ISO-10303-21;
HEADER;
FILE_DESCRIPTION(('Open CASCADE Model'),'2;1');
FILE_NAME('Open CASCADE Shape Model','2026-09-19T17:07:03',('Author'),(
    'Open CASCADE'),'Open CASCADE STEP processor 7.9','Open CASCADE 7.9'
  ,'Unknown');
FILE_SCHEMA(('AUTOMOTIVE_DESIGN { 1 0 10303 214 1 1 1 1 }'));
ENDSEC;
DATA;
#1 = APPLICATION_PROTOCOL_DEFINITION('international standard',
  'automotive_design',2000,#2);
#2 = APPLICATION_CONTEXT(
  'core data for automotive mechanical design processes');
#3 = SHAPE_DEFINITION_REPRESENTATION(#4,#10);
#4 = PRODUCT_DEFINITION_SHAPE('','',#5);
#5 = PRODUCT_DEFINITION('design','',#6,#9);
#6 = PRODUCT_DEFINITION_FORMATION('','',#7);
#7 = PRODUCT('Open CASCADE STEP translator 7.9 6',
  'Open CASCADE STEP translator 7.9 6','',(#8));
#8 = PRODUCT_CONTEXT('',#2,'mechanical');
#9 = PRODUCT_DEFINITION_CONTEXT('part definition',#2,'design');
#10 = ADVANCED_BREP_SHAPE_REPRESENTATION('',(#11,#15),#821);
#11 = AXIS2_PLACEMENT_3D('',#12,#13,#14);
#12 = CARTESIAN_POINT('',(0.,0.,0.));
#13 = DIRECTION('',(0.,0.,1.));
#14 = DIRECTION('',(1.,0.,-0.));
#15 = MANIFOLD_SOLID_BREP('',#16);
#16 = CLOSED_SHELL('',(#17,#268,#428,#496,#594,#727,#754,#814));
#17 = ADVANCED_FACE('',(#18),#35,.F.);
#18 = FACE_BOUND('',#19,.F.);
#19 = EDGE_LOOP('',(#20,#190,#229));
#20 = ORIENTED_EDGE('',*,*,#21,.F.);
#21 = EDGE_CURVE('',#22,#24,#26,.T.);
#22 = VERTEX_POINT('',#23);
#23 = CARTESIAN_POINT('',(2.500015615545,389.64999663477,-38.4402717917)
  );
#24 = VERTEX_POINT('',#25);
#25 = CARTESIAN_POINT('',(2.500015615546,404.50479755842,-37.80540092029
    ));
#26 = SURFACE_CURVE('',#27,(#34,#175),.PCURVE_S1.);
#27 = B_SPLINE_CURVE_WITH_KNOTS('',5,(#28,#29,#30,#31,#32,#33),
  .UNSPECIFIED.,.F.,.F.,(6,6),(0.,1.),.PIECEWISE_BEZIER_KNOTS.);
#28 = CARTESIAN_POINT('',(2.500015615545,389.64999663131,-38.44007103697
    ));
#29 = CARTESIAN_POINT('',(2.500015615545,392.62130235407,-38.32139009521
    ));
#30 = CARTESIAN_POINT('',(2.500015615545,395.5924460529,-38.1986598458)
  );
#31 = CARTESIAN_POINT('',(2.500015615546,398.56341808366,-38.07181834154
    ));
#32 = CARTESIAN_POINT('',(2.500015615546,401.53420721379,-37.94078687366
    ));
#33 = CARTESIAN_POINT('',(2.500015615546,404.50479755842,-37.80540092028
    ));
#34 = PCURVE('',#35,#166);
#35 = B_SPLINE_SURFACE_WITH_KNOTS('',3,3,(
    (#36,#37,#38,#39,#40,#41,#42,#43,#44,#45)
    ,(#46,#47,#48,#49,#50,#51,#52,#53,#54,#55)
    ,(#56,#57,#58,#59,#60,#61,#62,#63,#64,#65)
    ,(#66,#67,#68,#69,#70,#71,#72,#73,#74,#75)
    ,(#76,#77,#78,#79,#80,#81,#82,#83,#84,#85)
    ,(#86,#87,#88,#89,#90,#91,#92,#93,#94,#95)
    ,(#96,#97,#98,#99,#100,#101,#102,#103,#104,#105)
    ,(#106,#107,#108,#109,#110,#111,#112,#113,#114,#115)
    ,(#116,#117,#118,#119,#120,#121,#122,#123,#124,#125)
    ,(#126,#127,#128,#129,#130,#131,#132,#133,#134,#135)
    ,(#136,#137,#138,#139,#140,#141,#142,#143,#144,#145)
    ,(#146,#147,#148,#149,#150,#151,#152,#153,#154,#155)
    ,(#156,#157,#158,#159,#160,#161,#162,#163,#164,#165
  )),.UNSPECIFIED.,.F.,.F.,.F.,(4,2,1,1,1,1,1,1,1,4),(4,1,1,1,1,1,1,4),(
    -1.079131076147E-02,0.,0.1,0.2,0.3,0.4,0.6,0.8,0.9,1.),(
    -6.180667866816E-12,0.571428571445,0.607142857161,0.642857142877,
    0.78571428574,0.928571428603,0.964285714319,1.000000000034),
  .UNSPECIFIED.);
#36 = CARTESIAN_POINT('',(46.72273556578,389.64999663131,-11.79058312889
    ));
#37 = CARTESIAN_POINT('',(49.487410689399,430.25591963739,
    -8.157066924155));
#38 = CARTESIAN_POINT('',(48.112320054177,473.1474776553,-5.273469544868
    ));
#39 = CARTESIAN_POINT('',(41.804714036205,518.27830392473,
    -3.319389077109));
#40 = CARTESIAN_POINT('',(39.511918787143,533.31078465873,
    -2.711132461847));
#41 = CARTESIAN_POINT('',(35.359251252031,555.81777567546,
    -1.960385816422));
#42 = CARTESIAN_POINT('',(30.065024258491,578.25799855736,
    -1.468260414945));
#43 = CARTESIAN_POINT('',(26.059889821785,593.19032708911,
    -1.247935665606));
#44 = CARTESIAN_POINT('',(24.661425039636,598.1640605922,-1.188861929379
    ));
#45 = CARTESIAN_POINT('',(23.946337656084,600.65000000854,
    -1.162917022987));
#46 = CARTESIAN_POINT('',(46.630188040919,389.64999663131,
    -11.96333816136));
#47 = CARTESIAN_POINT('',(49.385281220584,430.25591963739,
    -8.332264281005));
#48 = CARTESIAN_POINT('',(48.017477177563,473.1474776553,-5.442135984558
    ));
#49 = CARTESIAN_POINT('',(41.737372715451,518.27830392473,
    -3.471135096326));
#50 = CARTESIAN_POINT('',(39.454516961807,533.31078465873,
    -2.856837640548));
#51 = CARTESIAN_POINT('',(35.319653575985,555.81777567546,
    -2.095539744178));
#52 = CARTESIAN_POINT('',(30.047871961954,578.25799855736,
    -1.590482993624));
#53 = CARTESIAN_POINT('',(26.059637438376,593.19032708911,
    -1.360543548269));
#54 = CARTESIAN_POINT('',(24.667063597771,598.1640605922,-1.298132614194
    ));
#55 = CARTESIAN_POINT('',(23.954986718693,600.65000000854,
    -1.270485822116));
#56 = CARTESIAN_POINT('',(46.536634517111,389.64999663131,
    -12.13555414706));
#57 = CARTESIAN_POINT('',(49.282193597863,430.25591963739,
    -8.506659110893));
#58 = CARTESIAN_POINT('',(47.921873240963,473.1474776553,-5.610295961775
    ));
#59 = CARTESIAN_POINT('',(41.669184826882,518.27830392473,
    -3.622467389017));
#60 = CARTESIAN_POINT('',(39.396240827351,533.31078465873,
    -3.002179099973));
#61 = CARTESIAN_POINT('',(35.279146783456,555.81777567546,
    -2.230434097046));
#62 = CARTESIAN_POINT('',(30.029755160974,578.25799855736,
    -1.712584268435));
#63 = CARTESIAN_POINT('',(26.058366790651,593.1903270891,-1.473143683068
    ));
#64 = CARTESIAN_POINT('',(24.671665528936,598.1640605922,-1.407435526678
    ));
#65 = CARTESIAN_POINT('',(23.962587777179,600.65000000853,
    -1.378108115595));
#66 = CARTESIAN_POINT('',(45.565893364519,389.64999663131,
    -13.89800230817));
#67 = CARTESIAN_POINT('',(48.21607906227,430.25591963739,-10.29419230946
    ));
#68 = CARTESIAN_POINT('',(46.931515257829,473.1474776553,-7.33178842146)
  );
#69 = CARTESIAN_POINT('',(40.960493281923,518.27830392473,
    -5.173481170937));
#70 = CARTESIAN_POINT('',(38.789277599678,533.31078465873,
    -4.492302955241));
#71 = CARTESIAN_POINT('',(34.854165602327,555.81777567546,
    -3.614181840271));
#72 = CARTESIAN_POINT('',(29.833922075954,578.25799855735,
    -2.965928958015));
#73 = CARTESIAN_POINT('',(26.034986873795,593.19032708909,
    -2.629504033032));
#74 = CARTESIAN_POINT('',(24.708387170063,598.16406059219,
    -2.530132296603));
#75 = CARTESIAN_POINT('',(24.030023613298,600.65000000852,
    -2.483634568152));
#76 = CARTESIAN_POINT('',(43.641663623995,389.64999663131,
    -16.98489110393));
#77 = CARTESIAN_POINT('',(46.027228019521,430.25591963739,
    -13.59765555659));
#78 = CARTESIAN_POINT('',(44.840251451885,473.1474776553,-10.63415086417
    ));
#79 = CARTESIAN_POINT('',(39.39531065263,518.27830392473,-8.205818466077
    ));
#80 = CARTESIAN_POINT('',(37.416118208161,533.31078465873,
    -7.424360648207));
#81 = CARTESIAN_POINT('',(33.831613627158,555.81777567546,
    -6.356955190366));
#82 = CARTESIAN_POINT('',(29.261809844171,578.25799855735,
    -5.457033104961));
#83 = CARTESIAN_POINT('',(25.804677980935,593.1903270891,-4.926870659556
    ));
#84 = CARTESIAN_POINT('',(24.597565341039,598.16406059219,
    -4.759457971398));
#85 = CARTESIAN_POINT('',(23.980312833195,600.65000000853,
    -4.678074352869));
#86 = CARTESIAN_POINT('',(40.273603381319,389.64999663131,
    -21.27761860746));
#87 = CARTESIAN_POINT('',(41.988210788318,430.25591963737,
    -18.50646352584));
#88 = CARTESIAN_POINT('',(40.784652143367,473.14747765528,
    -15.74243044594));
#89 = CARTESIAN_POINT('',(36.108881829705,518.27830392475,
    -13.02361972282));
#90 = CARTESIAN_POINT('',(34.416850043222,533.31078465876,
    -12.12534479272));
#91 = CARTESIAN_POINT('',(31.378345693659,555.81777567552,
    -10.80811181565));
#92 = CARTESIAN_POINT('',(27.53928402164,578.25799855745,-9.539279704012
    ));
#93 = CARTESIAN_POINT('',(24.646396297616,593.19032708922,
    -8.713538471278));
#94 = CARTESIAN_POINT('',(23.637621090232,598.16406059232,
    -8.440978038799));
#95 = CARTESIAN_POINT('',(23.122126171547,600.65000000867,
    -8.305369466115));
#96 = CARTESIAN_POINT('',(36.462654811548,389.64999663131,
    -25.18243510632));
#97 = CARTESIAN_POINT('',(37.283381650943,430.25591963732,
    -23.07810107289));
#98 = CARTESIAN_POINT('',(35.908544480876,473.14747765524,
    -20.59033495964));
#99 = CARTESIAN_POINT('',(31.923159480673,518.27830392478,-17.6667890347
    ));
#100 = CARTESIAN_POINT('',(30.49554277012,533.31078465883,
    -16.68111032566));
#101 = CARTESIAN_POINT('',(27.982354636773,555.81777567564,
    -15.16049855548));
#102 = CARTESIAN_POINT('',(24.874162716476,578.25799855764,
    -13.57238933123));
#103 = CARTESIAN_POINT('',(22.554057771716,593.19032708947,
    -12.48554628858));
#104 = CARTESIAN_POINT('',(21.747637814841,598.16406059259,
    -12.11951841492));
#105 = CARTESIAN_POINT('',(21.336151184051,600.65000000894,
    -11.93556691207));
#106 = CARTESIAN_POINT('',(30.850698384056,389.64999663131,
    -29.81196247764));
#107 = CARTESIAN_POINT('',(30.349716662147,430.25591963722,
    -28.46243343915));
#108 = CARTESIAN_POINT('',(28.612373146444,473.14747765516,
    -26.29065077376));
#109 = CARTESIAN_POINT('',(25.420358342021,518.27830392486,
    -23.16773062016));
#110 = CARTESIAN_POINT('',(24.303233008648,533.31078465897,
    -22.09425490173));
#111 = CARTESIAN_POINT('',(22.428273324947,555.81777567589,
    -20.36245148069));
#112 = CARTESIAN_POINT('',(20.234739096602,578.25799855802,
    -18.43623603903));
#113 = CARTESIAN_POINT('',(18.639720723869,593.19032708996,
    -17.07104843332));
#114 = CARTESIAN_POINT('',(18.090343511645,598.16406059311,
    -16.60518265267));
#115 = CARTESIAN_POINT('',(17.811247381163,600.65000000949,
    -16.3695465744));
#116 = CARTESIAN_POINT('',(22.960570020696,389.64999663131,
    -34.41296179797));
#117 = CARTESIAN_POINT('',(20.96794955231,430.25591963705,
    -33.40997485362));
#118 = CARTESIAN_POINT('',(18.765395885885,473.14747765502,
    -31.33125473405));
#119 = CARTESIAN_POINT('',(16.341119325614,518.278303925,-27.9898659866)
  );
#120 = CARTESIAN_POINT('',(15.529310226784,533.3107846592,
    -26.83136480263));
#121 = CARTESIAN_POINT('',(14.297602040709,555.8177756763,
    -24.92600761402));
#122 = CARTESIAN_POINT('',(13.043791849052,578.25799855868,
    -22.75240268172));
#123 = CARTESIAN_POINT('',(12.198789832395,593.1903270908,
    -21.19153540412));
#124 = CARTESIAN_POINT('',(11.915888141034,598.16406059402,
    -20.65634545229));
#125 = CARTESIAN_POINT('',(11.774148582766,600.65000001042,
    -20.38501901368));
#126 = CARTESIAN_POINT('',(14.267882414487,389.64999663131,
    -37.21651213672));
#127 = CARTESIAN_POINT('',(12.385268663248,430.2559196369,-35.8363878632
    ));
#128 = CARTESIAN_POINT('',(10.599950386252,473.1474776549,
    -33.43605116956));
#129 = CARTESIAN_POINT('',(8.947998212914,518.27830392512,
    -29.84317030095));
#130 = CARTESIAN_POINT('',(8.40678611214,533.31078465941,-28.60433939911
    ));
#131 = CARTESIAN_POINT('',(7.63041628254,555.81777567668,-26.59149440481
    ));
#132 = CARTESIAN_POINT('',(6.91050505547,578.25799855928,-24.33133140688
    ));
#133 = CARTESIAN_POINT('',(6.454015774242,593.19032709157,
    -22.72153603782));
#134 = CARTESIAN_POINT('',(6.304995054104,598.16406059484,
    -22.17119671539));
#135 = CARTESIAN_POINT('',(6.23125239288,600.65000001128,-21.89259729698
    ));
#136 = CARTESIAN_POINT('',(7.074626653526,389.64999663131,
    -38.30453132854));
#137 = CARTESIAN_POINT('',(7.026413280718,430.25591963682,
    -36.68302805088));
#138 = CARTESIAN_POINT('',(6.599551059613,473.14747765484,
    -34.09208691053));
#139 = CARTESIAN_POINT('',(5.727419208496,518.27830392518,
    -30.37284426376));
#140 = CARTESIAN_POINT('',(5.420169238317,533.31078465952,
    -29.09480189644));
#141 = CARTESIAN_POINT('',(4.897221048322,555.81777567687,
    -27.03418707104));
#142 = CARTESIAN_POINT('',(4.275150408966,578.25799855957,
    -24.74388209273));
#143 = CARTESIAN_POINT('',(3.819192949515,593.19032709193,
    -23.12129312607));
#144 = CARTESIAN_POINT('',(3.661695961132,598.16406059524,-22.5676698148
    ));
#145 = CARTESIAN_POINT('',(3.581583515817,600.65000001169,
    -22.28766563511));
#146 = CARTESIAN_POINT('',(3.440401360933,389.64999663131,
    -38.45862251689));
#147 = CARTESIAN_POINT('',(4.992984453656,430.25591963681,
    -36.81130987537));
#148 = CARTESIAN_POINT('',(5.651720731237,473.14747765482,
    -34.19854622321));
#149 = CARTESIAN_POINT('',(5.228853571842,518.27830392519,
    -30.45907874205));
#150 = CARTESIAN_POINT('',(5.044109921939,533.31078465954,
    -29.17452516477));
#151 = CARTESIAN_POINT('',(4.602870531318,555.81777567691,
    -27.10474854134));
#152 = CARTESIAN_POINT('',(3.898617441703,578.25799855963,
    -24.80628727536));
#153 = CARTESIAN_POINT('',(3.319410508778,593.19032709201,
    -23.17874982428));
#154 = CARTESIAN_POINT('',(3.111738941916,598.16406059533,
    -22.62353175411));
#155 = CARTESIAN_POINT('',(3.004223957494,600.65000001178,
    -22.34275545905));
#156 = CARTESIAN_POINT('',(1.624405575912,389.64999663131,
    -38.43748455981));
#157 = CARTESIAN_POINT('',(4.176645575912,430.2559196368,-36.81118898691
    ));
#158 = CARTESIAN_POINT('',(5.491394670243,473.14747765482,
    -34.21006964636));
#159 = CARTESIAN_POINT('',(5.311850302714,518.27830392519,
    -30.47361545463));
#160 = CARTESIAN_POINT('',(5.190369566719,533.31078465954,-29.189608064)
  );
#161 = CARTESIAN_POINT('',(4.777026162157,555.81777567691,-27.1191370029
    ));
#162 = CARTESIAN_POINT('',(3.993887076682,578.25799855964,
    -24.81752998153));
#163 = CARTESIAN_POINT('',(3.317712819318,593.19032709202,
    -23.18681865051));
#164 = CARTESIAN_POINT('',(3.071777195702,598.16406059534,
    -22.63040732015));
#165 = CARTESIAN_POINT('',(2.94367333277,600.65000001179,-22.3489914333)
  );
#166 = DEFINITIONAL_REPRESENTATION('',(#167),#174);
#167 = B_SPLINE_CURVE_WITH_KNOTS('',5,(#168,#169,#170,#171,#172,#173),
  .UNSPECIFIED.,.F.,.F.,(6,6),(0.,1.),.PIECEWISE_BEZIER_KNOTS.);
#168 = CARTESIAN_POINT('',(0.983928612641,-6.180667866816E-12));
#169 = CARTESIAN_POINT('',(0.986729715596,1.393794187382E-02));
#170 = CARTESIAN_POINT('',(0.989702505791,2.78800926525E-02));
#171 = CARTESIAN_POINT('',(0.992875751258,4.182641308955E-02));
#172 = CARTESIAN_POINT('',(0.996285852335,5.577685639885E-02));
#173 = CARTESIAN_POINT('',(1.,6.973135375968E-02));
#174 = ( GEOMETRIC_REPRESENTATION_CONTEXT(2) 
PARAMETRIC_REPRESENTATION_CONTEXT() REPRESENTATION_CONTEXT('2D SPACE',''
  ) );
#175 = PCURVE('',#176,#181);
#176 = PLANE('',#177);
#177 = AXIS2_PLACEMENT_3D('',#178,#179,#180);
#178 = CARTESIAN_POINT('',(2.500015615531,83.308292489812,
    -23.17506030816));
#179 = DIRECTION('',(1.,-4.273210745757E-14,7.418371472667E-14));
#180 = DIRECTION('',(4.265650056534E-14,0.999999480936,
    1.018885503523E-03));
#181 = DEFINITIONAL_REPRESENTATION('',(#182),#189);
#182 = B_SPLINE_CURVE_WITH_KNOTS('',5,(#183,#184,#185,#186,#187,#188),
  .UNSPECIFIED.,.F.,.F.,(6,6),(0.,1.),.PIECEWISE_BEZIER_KNOTS.);
#183 = CARTESIAN_POINT('',(306.32599183241,-15.57712992677));
#184 = CARTESIAN_POINT('',(309.29741693517,-15.46147646694));
#185 = CARTESIAN_POINT('',(312.26868413986,-15.34177353648));
#186 = CARTESIAN_POINT('',(315.23978386546,-15.21795917838));
#187 = CARTESIAN_POINT('',(318.21070495962,-15.0899546725));
#188 = CARTESIAN_POINT('',(321.18143170511,-14.95759548084));
#189 = ( GEOMETRIC_REPRESENTATION_CONTEXT(2) 
PARAMETRIC_REPRESENTATION_CONTEXT() REPRESENTATION_CONTEXT('2D SPACE',''
  ) );
#190 = ORIENTED_EDGE('',*,*,#191,.T.);
#191 = EDGE_CURVE('',#22,#192,#194,.T.);
#192 = VERTEX_POINT('',#193);
#193 = CARTESIAN_POINT('',(1.624405575954,389.64999663179,
    -38.43748455979));
#194 = SURFACE_CURVE('',#195,(#205,#211),.PCURVE_S1.);
#195 = B_SPLINE_CURVE_WITH_KNOTS('',3,(#196,#197,#198,#199,#200,#201,
    #202,#203,#204),.UNSPECIFIED.,.F.,.F.,(4,1,1,1,1,1,4),(0.,
    1.281716993079E-02,1.922575489618E-02,2.563433986158E-02,
    3.204292482697E-02,3.845150979236E-02,5.126867972315E-02),
  .UNSPECIFIED.);
#196 = CARTESIAN_POINT('',(44.928994837503,389.64999662534,
    -14.8722415117));
#197 = CARTESIAN_POINT('',(42.617921104499,389.64999662569,
    -18.53854521641));
#198 = CARTESIAN_POINT('',(38.545662018264,389.64999662629,
    -23.47279161513));
#199 = CARTESIAN_POINT('',(31.847271440018,389.64999662742,
    -29.00158817191));
#200 = CARTESIAN_POINT('',(26.410933840059,389.64999662798,
    -32.4175295118));
#201 = CARTESIAN_POINT('',(20.582804392543,389.64999662994,
    -35.13008281868));
#202 = CARTESIAN_POINT('',(12.307955341323,389.64999662595,
    -37.74814963067));
#203 = CARTESIAN_POINT('',(5.958106756026,389.6499966343,-38.48792828339
    ));
#204 = CARTESIAN_POINT('',(1.62440557605,389.64999663497,-38.43748455973
    ));
#205 = PCURVE('',#35,#206);
#206 = DEFINITIONAL_REPRESENTATION('',(#207),#210);
#207 = B_SPLINE_CURVE_WITH_KNOTS('',1,(#208,#209),.UNSPECIFIED.,.F.,.F.,
  (2,2),(0.,5.126867972315E-02),.PIECEWISE_BEZIER_KNOTS.);
#208 = CARTESIAN_POINT('',(5.466747673244E-02,-3.419932717053E-11));
#209 = CARTESIAN_POINT('',(1.000000000002,1.09626651008E-11));
#210 = ( GEOMETRIC_REPRESENTATION_CONTEXT(2) 
PARAMETRIC_REPRESENTATION_CONTEXT() REPRESENTATION_CONTEXT('2D SPACE',''
  ) );
#211 = PCURVE('',#212,#217);
#212 = PLANE('',#213);
#213 = AXIS2_PLACEMENT_3D('',#214,#215,#216);
#214 = CARTESIAN_POINT('',(-2.16414307486,389.64999663263,
    -21.57037753328));
#215 = DIRECTION('',(1.548299434492E-10,1.,-3.339169189314E-17));
#216 = DIRECTION('',(1.642570292967E-30,3.339169189314E-17,1.));
#217 = DEFINITIONAL_REPRESENTATION('',(#218),#228);
#218 = B_SPLINE_CURVE_WITH_KNOTS('',3,(#219,#220,#221,#222,#223,#224,
    #225,#226,#227),.UNSPECIFIED.,.F.,.F.,(4,1,1,1,1,1,4),(0.,
    1.281716993079E-02,1.922575489618E-02,2.563433986158E-02,
    3.204292482697E-02,3.845150979236E-02,5.126867972315E-02),
  .UNSPECIFIED.);
#219 = CARTESIAN_POINT('',(6.69813602158,47.093137912363));
#220 = CARTESIAN_POINT('',(3.03183231687,44.782064179359));
#221 = CARTESIAN_POINT('',(-1.90241408185,40.709805093124));
#222 = CARTESIAN_POINT('',(-7.43121063863,34.011414514878));
#223 = CARTESIAN_POINT('',(-10.84715197852,28.575076914919));
#224 = CARTESIAN_POINT('',(-13.5597052854,22.746947467403));
#225 = CARTESIAN_POINT('',(-16.17777209739,14.472098416183));
#226 = CARTESIAN_POINT('',(-16.91755075011,8.122249830886));
#227 = CARTESIAN_POINT('',(-16.86710702645,3.78854865091));
#228 = ( GEOMETRIC_REPRESENTATION_CONTEXT(2) 
PARAMETRIC_REPRESENTATION_CONTEXT() REPRESENTATION_CONTEXT('2D SPACE',''
  ) );
#229 = ORIENTED_EDGE('',*,*,#230,.T.);
#230 = EDGE_CURVE('',#192,#24,#231,.T.);
#231 = SURFACE_CURVE('',#232,(#237,#244),.PCURVE_S1.);
#232 = B_SPLINE_CURVE_WITH_KNOTS('',3,(#233,#234,#235,#236),
  .UNSPECIFIED.,.F.,.F.,(4,4),(0.,0.485569570843),
  .PIECEWISE_BEZIER_KNOTS.);
#233 = CARTESIAN_POINT('',(1.624405575995,389.64999663263,
    -38.43748455976));
#234 = CARTESIAN_POINT('',(3.793163218488,424.15474769428,
    -37.05554518386));
#235 = CARTESIAN_POINT('',(5.012522829957,458.48808102762,
    -35.08019696922));
#236 = CARTESIAN_POINT('',(5.282484410404,492.64999663263,
    -32.51143991586));
#237 = PCURVE('',#35,#238);
#238 = DEFINITIONAL_REPRESENTATION('',(#239),#243);
#239 = LINE('',#240,#241);
#240 = CARTESIAN_POINT('',(1.,2.012689936517E-15));
#241 = VECTOR('',#242,1.);
#242 = DIRECTION('',(3.201008316433E-15,1.));
#243 = ( GEOMETRIC_REPRESENTATION_CONTEXT(2) 
PARAMETRIC_REPRESENTATION_CONTEXT() REPRESENTATION_CONTEXT('2D SPACE',''
  ) );
#244 = PCURVE('',#245,#262);
#245 = B_SPLINE_SURFACE_WITH_KNOTS('',3,3,(
    (#246,#247,#248,#249)
    ,(#250,#251,#252,#253)
    ,(#254,#255,#256,#257)
    ,(#258,#259,#260,#261
    )),.UNSPECIFIED.,.F.,.F.,.F.,(4,4),(4,4),(0.,1.),(0.,1.),
  .PIECEWISE_BEZIER_KNOTS.);
#246 = CARTESIAN_POINT('',(1.624405575995,389.64999663263,
    -38.43748455976));
#247 = CARTESIAN_POINT('',(6.090825575764,460.71036188936,
    -35.59146730727));
#248 = CARTESIAN_POINT('',(6.530581494812,531.0436963467,-30.22863626539
    ));
#249 = CARTESIAN_POINT('',(2.943673333138,600.65000000464,
    -22.34899143411));
#250 = CARTESIAN_POINT('',(0.608892367879,389.64999663263,
    -38.43656490467));
#251 = CARTESIAN_POINT('',(5.067404653231,460.71036188933,
    -35.72865924246));
#252 = CARTESIAN_POINT('',(5.643829413104,531.0436963467,-30.38691999458
    ));
#253 = CARTESIAN_POINT('',(2.338167086486,600.65000000473,
    -22.41135117671));
#254 = CARTESIAN_POINT('',(-0.406620840238,389.64999663263,
    -38.43564524959));
#255 = CARTESIAN_POINT('',(4.040649838898,460.7103618893,-35.83859791457
    ));
#256 = CARTESIAN_POINT('',(4.752792096265,531.0436963467,-30.51153502376
    ));
#257 = CARTESIAN_POINT('',(1.729806312825,600.65000000482,
    -22.45446059695));
#258 = CARTESIAN_POINT('',(-1.422134048354,389.64999663263,
    -38.4347255945));
#259 = CARTESIAN_POINT('',(3.011807612043,460.71036188927,
    -35.92114297075));
#260 = CARTESIAN_POINT('',(3.859305176653,531.0436963467,-30.60229925176
    ));
#261 = CARTESIAN_POINT('',(1.120358645476,600.65000000492,
    -22.47819443751));
#262 = DEFINITIONAL_REPRESENTATION('',(#263),#267);
#263 = LINE('',#264,#265);
#264 = CARTESIAN_POINT('',(-5.352171003806E-16,-1.321320171555E-16));
#265 = VECTOR('',#266,1.);
#266 = DIRECTION('',(1.642709198811E-14,1.));
#267 = ( GEOMETRIC_REPRESENTATION_CONTEXT(2) 
PARAMETRIC_REPRESENTATION_CONTEXT() REPRESENTATION_CONTEXT('2D SPACE',''
  ) );
#268 = ADVANCED_FACE('',(#269),#176,.T.);
#269 = FACE_BOUND('',#270,.T.);
#270 = EDGE_LOOP('',(#271,#302,#380,#381,#402));
#271 = ORIENTED_EDGE('',*,*,#272,.T.);
#272 = EDGE_CURVE('',#273,#275,#277,.T.);
#273 = VERTEX_POINT('',#274);
#274 = CARTESIAN_POINT('',(2.500015615546,389.99669933873,
    -38.47444326462));
#275 = VERTEX_POINT('',#276);
#276 = CARTESIAN_POINT('',(2.500015615418,492.64999661315,
    -32.78891295135));
#277 = SURFACE_CURVE('',#278,(#283,#290),.PCURVE_S1.);
#278 = CIRCLE('',#279,1.515414561808E+03);
#279 = AXIS2_PLACEMENT_3D('',#280,#281,#282);
#280 = CARTESIAN_POINT('',(2.500015615435,357.56763798618,
    1.476593096524E+03));
#281 = DIRECTION('',(1.,-4.251770429619E-14,7.238143845829E-14));
#282 = DIRECTION('',(7.327471962526E-14,2.139946531453E-02,
    -0.999771005223));
#283 = PCURVE('',#176,#284);
#284 = DEFINITIONAL_REPRESENTATION('',(#285),#289);
#285 = CIRCLE('',#286,1.515414561808E+03);
#286 = AXIS2_PLACEMENT_2D('',#287,#288);
#287 = CARTESIAN_POINT('',(275.78729517186,1.499487939485E+03));
#288 = DIRECTION('',(2.038080202277E-02,-0.999792289883));
#289 = ( GEOMETRIC_REPRESENTATION_CONTEXT(2) 
PARAMETRIC_REPRESENTATION_CONTEXT() REPRESENTATION_CONTEXT('2D SPACE',''
  ) );
#290 = PCURVE('',#291,#296);
#291 = CYLINDRICAL_SURFACE('',#292,1.515414561808E+03);
#292 = AXIS2_PLACEMENT_3D('',#293,#294,#295);
#293 = CARTESIAN_POINT('',(1.56154346147E-05,357.56763798618,
    1.476593096524E+03));
#294 = DIRECTION('',(1.,-4.320491447246E-14,5.468542285669E-14));
#295 = DIRECTION('',(5.559746224914E-14,2.139946531453E-02,
    -0.999771005223));
#296 = DEFINITIONAL_REPRESENTATION('',(#297),#301);
#297 = LINE('',#298,#299);
#298 = CARTESIAN_POINT('',(0.,2.500000000027));
#299 = VECTOR('',#300,1.);
#300 = DIRECTION('',(1.,-3.412819716777E-12));
#301 = ( GEOMETRIC_REPRESENTATION_CONTEXT(2) 
PARAMETRIC_REPRESENTATION_CONTEXT() REPRESENTATION_CONTEXT('2D SPACE',''
  ) );
#302 = ORIENTED_EDGE('',*,*,#303,.T.);
#303 = EDGE_CURVE('',#275,#24,#304,.T.);
#304 = SURFACE_CURVE('',#305,(#328,#354),.PCURVE_S1.);
#305 = B_SPLINE_CURVE_WITH_KNOTS('',6,(#306,#307,#308,#309,#310,#311,
    #312,#313,#314,#315,#316,#317,#318,#319,#320,#321,#322,#323,#324,
    #325,#326,#327),.UNSPECIFIED.,.F.,.F.,(7,5,5,5,7),(0.,0.38554876248,
    0.634075841624,0.831942820057,1.),.UNSPECIFIED.);
#306 = CARTESIAN_POINT('',(2.500015615549,492.64999663259,
    -32.78891295003));
#307 = CARTESIAN_POINT('',(2.500015615549,486.99147886583,-33.2046417421
    ));
#308 = CARTESIAN_POINT('',(2.500015615549,481.3318222604,-33.60449357884
    ));
#309 = CARTESIAN_POINT('',(2.500015615549,475.67110401067,
    -33.98864509027));
#310 = CARTESIAN_POINT('',(2.500015615548,470.00940202714,
    -34.35735093851));
#311 = CARTESIAN_POINT('',(2.500015615548,464.34679684678,
    -34.71097546532));
#312 = CARTESIAN_POINT('',(2.500015615548,455.03270062209,
    -35.26863873972));
#313 = CARTESIAN_POINT('',(2.500015615548,451.38168589136,
    -35.48117483574));
#314 = CARTESIAN_POINT('',(2.500015615548,447.73035533604,
    -35.68781580074));
#315 = CARTESIAN_POINT('',(2.500015615547,444.07873265466,
    -35.88873752252));
#316 = CARTESIAN_POINT('',(2.500015615547,440.426842373,-36.08415607014)
  );
#317 = CARTESIAN_POINT('',(2.500015615547,433.86703401006,
    -36.42575263771));
#318 = CARTESIAN_POINT('',(2.500015615547,430.95920430197,
    -36.57384804331));
#319 = CARTESIAN_POINT('',(2.500015615547,428.05123432664,
    -36.71875875187));
#320 = CARTESIAN_POINT('',(2.500015615547,425.14313736783,
    -36.86063977358));
#321 = CARTESIAN_POINT('',(2.500015615547,422.23492717607,
    -36.99967128932));
#322 = CARTESIAN_POINT('',(2.500015615546,416.85646271336,
    -37.25190751217));
#323 = CARTESIAN_POINT('',(2.500015615546,414.38623593132,
    -37.36584756401));
#324 = CARTESIAN_POINT('',(2.500015615546,411.91594669576,
    -37.47801265834));
#325 = CARTESIAN_POINT('',(2.500015615546,409.44560411702,
    -37.58854742345));
#326 = CARTESIAN_POINT('',(2.500015615546,406.97521771586,
    -37.69761517194));
#327 = CARTESIAN_POINT('',(2.500015615546,404.50479755842,
    -37.80540092029));
#328 = PCURVE('',#176,#329);
#329 = DEFINITIONAL_REPRESENTATION('',(#330),#353);
#330 = B_SPLINE_CURVE_WITH_KNOTS('',6,(#331,#332,#333,#334,#335,#336,
    #337,#338,#339,#340,#341,#342,#343,#344,#345,#346,#347,#348,#349,
    #350,#351,#352),.UNSPECIFIED.,.F.,.F.,(7,5,5,5,7),(0.,0.38554876248,
    0.634075841624,0.831942820057,1.),.UNSPECIFIED.);
#331 = CARTESIAN_POINT('',(409.33169625315,-10.03091998));
#332 = CARTESIAN_POINT('',(403.6727578435,-10.44088317456));
#333 = CARTESIAN_POINT('',(398.01269677254,-10.83496826168));
#334 = CARTESIAN_POINT('',(392.35159005468,-11.21335194995));
#335 = CARTESIAN_POINT('',(386.6895153409,-11.57628898073));
#336 = CARTESIAN_POINT('',(381.02655279688,-11.92414377765));
#337 = CARTESIAN_POINT('',(371.71189321178,-12.47231676498));
#338 = CARTESIAN_POINT('',(368.06066382621,-12.68113278469));
#339 = CARTESIAN_POINT('',(364.40912462268,-12.88405335466));
#340 = CARTESIAN_POINT('',(360.7572991205,-13.08125438673));
#341 = CARTESIAN_POINT('',(357.10521162528,-13.27295197485));
#342 = CARTESIAN_POINT('',(350.54505861951,-13.60786467146));
#343 = CARTESIAN_POINT('',(347.63707952851,-13.75299725465));
#344 = CARTESIAN_POINT('',(344.72896341517,-13.89494499955));
#345 = CARTESIAN_POINT('',(341.82072340534,-14.03386292978));
#346 = CARTESIAN_POINT('',(338.91237306593,-14.16993124014));
#347 = CARTESIAN_POINT('',(333.53365439515,-14.4166872926));
#348 = CARTESIAN_POINT('',(331.06331280345,-14.52811040704));
#349 = CARTESIAN_POINT('',(328.59291056674,-14.63775850125));
#350 = CARTESIAN_POINT('',(326.12245664801,-14.74577621274));
#351 = CARTESIAN_POINT('',(323.65196040158,-14.85232686372));
#352 = CARTESIAN_POINT('',(321.18143170512,-14.95759548084));
#353 = ( GEOMETRIC_REPRESENTATION_CONTEXT(2) 
PARAMETRIC_REPRESENTATION_CONTEXT() REPRESENTATION_CONTEXT('2D SPACE',''
  ) );
#354 = PCURVE('',#245,#355);
#355 = DEFINITIONAL_REPRESENTATION('',(#356),#379);
#356 = B_SPLINE_CURVE_WITH_KNOTS('',6,(#357,#358,#359,#360,#361,#362,
    #363,#364,#365,#366,#367,#368,#369,#370,#371,#372,#373,#374,#375,
    #376,#377,#378),.UNSPECIFIED.,.F.,.F.,(7,5,5,5,7),(0.,0.38554876248,
    0.634075841624,0.831942820057,1.),.UNSPECIFIED.);
#357 = CARTESIAN_POINT('',(1.,0.485569570843));
#358 = CARTESIAN_POINT('',(0.972577777889,0.45875994971));
#359 = CARTESIAN_POINT('',(0.939256880419,0.431962758878));
#360 = CARTESIAN_POINT('',(0.900244614588,0.405178333096));
#361 = CARTESIAN_POINT('',(0.855656762495,0.378407009036));
#362 = CARTESIAN_POINT('',(0.805541056596,0.35164913437));
#363 = CARTESIAN_POINT('',(0.714007356631,0.307665713991));
#364 = CARTESIAN_POINT('',(0.675828114886,0.290432083756));
#365 = CARTESIAN_POINT('',(0.635342821363,0.273204299373));
#366 = CARTESIAN_POINT('',(0.592537518061,0.255982463295));
#367 = CARTESIAN_POINT('',(0.547388513041,0.238766681582));
#368 = CARTESIAN_POINT('',(0.46202516845,0.207855482942));
#369 = CARTESIAN_POINT('',(0.422680934551,0.194157807659));
#370 = CARTESIAN_POINT('',(0.381813732652,0.180464097206));
#371 = CARTESIAN_POINT('',(0.339403297852,0.166774409101));
#372 = CARTESIAN_POINT('',(0.295425768443,0.15308880293));
#373 = CARTESIAN_POINT('',(0.211147473014,0.127787070864));
#374 = CARTESIAN_POINT('',(0.171290945137,0.116169790044));
#375 = CARTESIAN_POINT('',(0.130267427408,0.104555537356));
#376 = CARTESIAN_POINT('',(8.80583208283E-02,9.294435237828E-02));
#377 = CARTESIAN_POINT('',(4.46432304726E-02,8.133627654198E-02));
#378 = CARTESIAN_POINT('',(0.,6.973135375974E-02));
#379 = ( GEOMETRIC_REPRESENTATION_CONTEXT(2) 
PARAMETRIC_REPRESENTATION_CONTEXT() REPRESENTATION_CONTEXT('2D SPACE',''
  ) );
#380 = ORIENTED_EDGE('',*,*,#21,.F.);
#381 = ORIENTED_EDGE('',*,*,#382,.T.);
#382 = EDGE_CURVE('',#22,#383,#385,.T.);
#383 = VERTEX_POINT('',#384);
#384 = CARTESIAN_POINT('',(2.500015615545,389.6499966319,-38.48186421653
    ));
#385 = SURFACE_CURVE('',#386,(#390,#396),.PCURVE_S1.);
#386 = LINE('',#387,#388);
#387 = CARTESIAN_POINT('',(2.500015615544,389.6499966319,-22.37271892072
    ));
#388 = VECTOR('',#389,1.);
#389 = DIRECTION('',(7.418371472667E-14,-3.3391703379E-17,-1.));
#390 = PCURVE('',#176,#391);
#391 = DEFINITIONAL_REPRESENTATION('',(#392),#395);
#392 = B_SPLINE_CURVE_WITH_KNOTS('',1,(#393,#394),.UNSPECIFIED.,.F.,.F.,
  (2,2),(-22.57246035057,19.187352823471),.PIECEWISE_BEZIER_KNOTS.);
#393 = CARTESIAN_POINT('',(306.36536137779,23.062662483526));
#394 = CARTESIAN_POINT('',(306.32281290952,-18.6971290145));
#395 = ( GEOMETRIC_REPRESENTATION_CONTEXT(2) 
PARAMETRIC_REPRESENTATION_CONTEXT() REPRESENTATION_CONTEXT('2D SPACE',''
  ) );
#396 = PCURVE('',#212,#397);
#397 = DEFINITIONAL_REPRESENTATION('',(#398),#401);
#398 = B_SPLINE_CURVE_WITH_KNOTS('',1,(#399,#400),.UNSPECIFIED.,.F.,.F.,
  (2,2),(-22.57246035057,19.187352823471),.PIECEWISE_BEZIER_KNOTS.);
#399 = CARTESIAN_POINT('',(21.770118963138,4.664158690402));
#400 = CARTESIAN_POINT('',(-19.98969421091,4.664158690405));
#401 = ( GEOMETRIC_REPRESENTATION_CONTEXT(2) 
PARAMETRIC_REPRESENTATION_CONTEXT() REPRESENTATION_CONTEXT('2D SPACE',''
  ) );
#402 = ORIENTED_EDGE('',*,*,#403,.T.);
#403 = EDGE_CURVE('',#383,#273,#404,.T.);
#404 = SURFACE_CURVE('',#405,(#409,#416),.PCURVE_S1.);
#405 = LINE('',#406,#407);
#406 = CARTESIAN_POINT('',(2.500015615539,238.64999999992,
    -41.71392353165));
#407 = VECTOR('',#408,1.);
#408 = DIRECTION('',(4.112736626953E-14,0.999771005223,2.13994653145E-02
    ));
#409 = PCURVE('',#176,#410);
#410 = DEFINITIONAL_REPRESENTATION('',(#411),#415);
#411 = LINE('',#412,#413);
#412 = CARTESIAN_POINT('',(155.32273789883,-18.6971290145));
#413 = VECTOR('',#414,1.);
#414 = DIRECTION('',(0.999792289883,2.038080202274E-02));
#415 = ( GEOMETRIC_REPRESENTATION_CONTEXT(2) 
PARAMETRIC_REPRESENTATION_CONTEXT() REPRESENTATION_CONTEXT('2D SPACE',''
  ) );
#416 = PCURVE('',#417,#422);
#417 = PLANE('',#418);
#418 = AXIS2_PLACEMENT_3D('',#419,#420,#421);
#419 = CARTESIAN_POINT('',(1.561553938245E-05,238.64999999992,
    -41.71392353165));
#420 = DIRECTION('',(5.557360127638E-14,2.13994653145E-02,
    -0.999771005223));
#421 = DIRECTION('',(4.112069842617E-14,0.999771005223,2.13994653145E-02
    ));
#422 = DEFINITIONAL_REPRESENTATION('',(#423),#427);
#423 = LINE('',#424,#425);
#424 = CARTESIAN_POINT('',(1.058427929911E-13,2.5));
#425 = VECTOR('',#426,1.);
#426 = DIRECTION('',(1.,6.667843359999E-18));
#427 = ( GEOMETRIC_REPRESENTATION_CONTEXT(2) 
PARAMETRIC_REPRESENTATION_CONTEXT() REPRESENTATION_CONTEXT('2D SPACE',''
  ) );
#428 = ADVANCED_FACE('',(#429),#245,.F.);
#429 = FACE_BOUND('',#430,.F.);
#430 = EDGE_LOOP('',(#431,#453,#494,#495));
#431 = ORIENTED_EDGE('',*,*,#432,.T.);
#432 = EDGE_CURVE('',#192,#433,#435,.T.);
#433 = VERTEX_POINT('',#434);
#434 = CARTESIAN_POINT('',(-1.422134048354,389.64999663266,
    -38.4347255945));
#435 = SURFACE_CURVE('',#436,(#440,#446),.PCURVE_S1.);
#436 = LINE('',#437,#438);
#437 = CARTESIAN_POINT('',(2.708391970392,389.64999663263,
    -38.43846622459));
#438 = VECTOR('',#439,1.);
#439 = DIRECTION('',(-0.999999589939,-1.19718619762E-15,
    9.05605857441E-04));
#440 = PCURVE('',#245,#441);
#441 = DEFINITIONAL_REPRESENTATION('',(#442),#445);
#442 = B_SPLINE_CURVE_WITH_KNOTS('',1,(#443,#444),.UNSPECIFIED.,.F.,.F.,
  (2,2),(1.083986838939,4.130527712514),.PIECEWISE_BEZIER_KNOTS.);
#443 = CARTESIAN_POINT('',(1.358030666243E-11,-1.961204659868E-16));
#444 = CARTESIAN_POINT('',(1.,-1.278784790735E-16));
#445 = ( GEOMETRIC_REPRESENTATION_CONTEXT(2) 
PARAMETRIC_REPRESENTATION_CONTEXT() REPRESENTATION_CONTEXT('2D SPACE',''
  ) );
#446 = PCURVE('',#212,#447);
#447 = DEFINITIONAL_REPRESENTATION('',(#448),#452);
#448 = LINE('',#449,#450);
#449 = CARTESIAN_POINT('',(-16.86808869131,4.872535045252));
#450 = VECTOR('',#451,1.);
#451 = DIRECTION('',(9.05605857441E-04,-0.999999589939));
#452 = ( GEOMETRIC_REPRESENTATION_CONTEXT(2) 
PARAMETRIC_REPRESENTATION_CONTEXT() REPRESENTATION_CONTEXT('2D SPACE',''
  ) );
#453 = ORIENTED_EDGE('',*,*,#454,.T.);
#454 = EDGE_CURVE('',#433,#275,#455,.T.);
#455 = SURFACE_CURVE('',#456,(#463,#470),.PCURVE_S1.);
#456 = B_SPLINE_CURVE_WITH_KNOTS('',3,(#457,#458,#459,#460,#461,#462),
  .UNSPECIFIED.,.F.,.F.,(4,2,4),(0.,0.485569570843,1.),.UNSPECIFIED.);
#457 = CARTESIAN_POINT('',(-1.422134048354,389.64999663263,
    -38.4347255945));
#458 = CARTESIAN_POINT('',(0.730853100828,424.15474769424,
    -37.21420635861));
#459 = CARTESIAN_POINT('',(2.038236322129,458.48808102757,
    -35.33226881045));
#460 = CARTESIAN_POINT('',(2.989241741639,528.84239821789,
    -30.09438733446));
#461 = CARTESIAN_POINT('',(2.529356084947,564.84239934199,
    -26.65748116362));
#462 = CARTESIAN_POINT('',(1.120358645476,600.65000000492,
    -22.47819443751));
#463 = PCURVE('',#245,#464);
#464 = DEFINITIONAL_REPRESENTATION('',(#465),#469);
#465 = LINE('',#466,#467);
#466 = CARTESIAN_POINT('',(1.,-1.667827389436E-16));
#467 = VECTOR('',#468,1.);
#468 = DIRECTION('',(7.549516567451E-15,1.));
#469 = ( GEOMETRIC_REPRESENTATION_CONTEXT(2) 
PARAMETRIC_REPRESENTATION_CONTEXT() REPRESENTATION_CONTEXT('2D SPACE',''
  ) );
#470 = PCURVE('',#471,#488);
#471 = B_SPLINE_SURFACE_WITH_KNOTS('',3,3,(
    (#472,#473,#474,#475)
    ,(#476,#477,#478,#479)
    ,(#480,#481,#482,#483)
    ,(#484,#485,#486,#487
    )),.UNSPECIFIED.,.F.,.F.,.F.,(4,4),(4,4),(0.,1.),(0.,1.),
  .PIECEWISE_BEZIER_KNOTS.);
#472 = CARTESIAN_POINT('',(-1.422134048354,389.64999663263,
    -38.4347255945));
#473 = CARTESIAN_POINT('',(3.011807612043,460.71036188927,
    -35.92114297075));
#474 = CARTESIAN_POINT('',(3.859305176653,531.0436963467,-30.60229925176
    ));
#475 = CARTESIAN_POINT('',(1.120358645476,600.65000000492,
    -22.47819443751));
#476 = CARTESIAN_POINT('',(-4.409208195275,389.64999663263,
    -38.48146102147));
#477 = CARTESIAN_POINT('',(1.189836284724,460.71036188922,
    -35.90207770311));
#478 = CARTESIAN_POINT('',(2.669878715355,531.0436963467,-30.58490682684
    ));
#479 = CARTESIAN_POINT('',(3.168201594583E-02,600.65000000509,
    -22.52059098595));
#480 = CARTESIAN_POINT('',(-7.513307700195,389.64999663263,
    -38.24398097898));
#481 = CARTESIAN_POINT('',(-0.628788068584,460.71036188917,
    -35.91302305233));
#482 = CARTESIAN_POINT('',(1.521693380923,531.04369634671,
    -30.66844403477));
#483 = CARTESIAN_POINT('',(-1.060459207204,600.65000000525,
    -22.50109457112));
#484 = CARTESIAN_POINT('',(-10.34879096642,389.64999663263,
    -37.78102745746));
#485 = CARTESIAN_POINT('',(-2.455868965229,460.71036188911,
    -35.95244013355));
#486 = CARTESIAN_POINT('',(0.278408557026,531.04369634671,
    -30.83205951839));
#487 = CARTESIAN_POINT('',(-2.14595839966,600.65000000542,
    -22.41988561196));
#488 = DEFINITIONAL_REPRESENTATION('',(#489),#493);
#489 = LINE('',#490,#491);
#490 = CARTESIAN_POINT('',(1.897906697643E-16,1.746696819959E-16));
#491 = VECTOR('',#492,1.);
#492 = DIRECTION('',(1.65279737564E-15,1.));
#493 = ( GEOMETRIC_REPRESENTATION_CONTEXT(2) 
PARAMETRIC_REPRESENTATION_CONTEXT() REPRESENTATION_CONTEXT('2D SPACE',''
  ) );
#494 = ORIENTED_EDGE('',*,*,#303,.T.);
#495 = ORIENTED_EDGE('',*,*,#230,.F.);
#496 = ADVANCED_FACE('',(#497),#212,.F.);
#497 = FACE_BOUND('',#498,.F.);
#498 = EDGE_LOOP('',(#499,#500,#501,#522,#548,#593));
#499 = ORIENTED_EDGE('',*,*,#191,.F.);
#500 = ORIENTED_EDGE('',*,*,#382,.T.);
#501 = ORIENTED_EDGE('',*,*,#502,.T.);
#502 = EDGE_CURVE('',#383,#503,#505,.T.);
#503 = VERTEX_POINT('',#504);
#504 = CARTESIAN_POINT('',(-2.499984384455,389.64999663268,
    -38.48186421651));
#505 = SURFACE_CURVE('',#506,(#510,#516),.PCURVE_S1.);
#506 = LINE('',#507,#508);
#507 = CARTESIAN_POINT('',(-1.082063717993,389.64999663246,
    -38.48186421652));
#508 = VECTOR('',#509,1.);
#509 = DIRECTION('',(-1.,1.548299434492E-10,3.258450571373E-12));
#510 = PCURVE('',#212,#511);
#511 = DEFINITIONAL_REPRESENTATION('',(#512),#515);
#512 = B_SPLINE_CURVE_WITH_KNOTS('',1,(#513,#514),.UNSPECIFIED.,.F.,.F.,
  (2,2),(-3.582079333539,1.417920666462),.PIECEWISE_BEZIER_KNOTS.);
#513 = CARTESIAN_POINT('',(-16.91148668325,4.664158690406));
#514 = CARTESIAN_POINT('',(-16.91148668323,-0.335841309595));
#515 = ( GEOMETRIC_REPRESENTATION_CONTEXT(2) 
PARAMETRIC_REPRESENTATION_CONTEXT() REPRESENTATION_CONTEXT('2D SPACE',''
  ) );
#516 = PCURVE('',#417,#517);
#517 = DEFINITIONAL_REPRESENTATION('',(#518),#521);
#518 = B_SPLINE_CURVE_WITH_KNOTS('',1,(#519,#520),.UNSPECIFIED.,.F.,.F.,
  (2,2),(-3.582079333539,1.417920666462),.PIECEWISE_BEZIER_KNOTS.);
#519 = CARTESIAN_POINT('',(151.03458276261,2.5));
#520 = CARTESIAN_POINT('',(151.03458276338,-2.5));
#521 = ( GEOMETRIC_REPRESENTATION_CONTEXT(2) 
PARAMETRIC_REPRESENTATION_CONTEXT() REPRESENTATION_CONTEXT('2D SPACE',''
  ) );
#522 = ORIENTED_EDGE('',*,*,#523,.F.);
#523 = EDGE_CURVE('',#524,#503,#526,.T.);
#524 = VERTEX_POINT('',#525);
#525 = CARTESIAN_POINT('',(-2.499984384455,389.64999663284,
    -38.44007344972));
#526 = SURFACE_CURVE('',#527,(#531,#537),.PCURVE_S1.);
#527 = LINE('',#528,#529);
#528 = CARTESIAN_POINT('',(-2.499984384456,389.64999663268,
    -22.37271892072));
#529 = VECTOR('',#530,1.);
#530 = DIRECTION('',(7.418371472667E-14,-3.3391703379E-17,-1.));
#531 = PCURVE('',#212,#532);
#532 = DEFINITIONAL_REPRESENTATION('',(#533),#536);
#533 = B_SPLINE_CURVE_WITH_KNOTS('',1,(#534,#535),.UNSPECIFIED.,.F.,.F.,
  (2,2),(-22.57246035057,19.18735282347),.PIECEWISE_BEZIER_KNOTS.);
#534 = CARTESIAN_POINT('',(21.770118963138,-0.335841309598));
#535 = CARTESIAN_POINT('',(-19.98969421091,-0.335841309595));
#536 = ( GEOMETRIC_REPRESENTATION_CONTEXT(2) 
PARAMETRIC_REPRESENTATION_CONTEXT() REPRESENTATION_CONTEXT('2D SPACE',''
  ) );
#537 = PCURVE('',#538,#543);
#538 = PLANE('',#539);
#539 = AXIS2_PLACEMENT_3D('',#540,#541,#542);
#540 = CARTESIAN_POINT('',(-2.499984384469,83.308292489813,
    -23.17506030816));
#541 = DIRECTION('',(1.,-4.273210745757E-14,7.418371472667E-14));
#542 = DIRECTION('',(4.265650056534E-14,0.999999480936,
    1.018885503523E-03));
#543 = DEFINITIONAL_REPRESENTATION('',(#544),#547);
#544 = B_SPLINE_CURVE_WITH_KNOTS('',1,(#545,#546),.UNSPECIFIED.,.F.,.F.,
  (2,2),(-22.57246035057,19.18735282347),.PIECEWISE_BEZIER_KNOTS.);
#545 = CARTESIAN_POINT('',(306.36536137856,23.062662483525));
#546 = CARTESIAN_POINT('',(306.32281291029,-18.6971290145));
#547 = ( GEOMETRIC_REPRESENTATION_CONTEXT(2) 
PARAMETRIC_REPRESENTATION_CONTEXT() REPRESENTATION_CONTEXT('2D SPACE',''
  ) );
#548 = ORIENTED_EDGE('',*,*,#549,.F.);
#549 = EDGE_CURVE('',#433,#524,#550,.T.);
#550 = SURFACE_CURVE('',#551,(#556,#564),.PCURVE_S1.);
#551 = B_SPLINE_CURVE_WITH_KNOTS('',3,(#552,#553,#554,#555),
  .UNSPECIFIED.,.F.,.F.,(4,4),(0.,8.960256158307E-03),
  .PIECEWISE_BEZIER_KNOTS.);
#552 = CARTESIAN_POINT('',(-1.422134048354,389.64999663269,
    -38.4347255945));
#553 = CARTESIAN_POINT('',(-4.409389305672,389.64999663315,
    -38.48146385509));
#554 = CARTESIAN_POINT('',(-7.397550467753,389.64999663344,
    -38.26271708885));
#555 = CARTESIAN_POINT('',(-10.34630532144,389.64999663389,
    -37.78143322333));
#556 = PCURVE('',#212,#557);
#557 = DEFINITIONAL_REPRESENTATION('',(#558),#563);
#558 = B_SPLINE_CURVE_WITH_KNOTS('',3,(#559,#560,#561,#562),
  .UNSPECIFIED.,.F.,.F.,(4,4),(0.,8.960256158307E-03),
  .PIECEWISE_BEZIER_KNOTS.);
#559 = CARTESIAN_POINT('',(-16.86434806122,0.742009026506));
#560 = CARTESIAN_POINT('',(-16.91108632181,-2.245246230812));
#561 = CARTESIAN_POINT('',(-16.69233955557,-5.233407392893));
#562 = CARTESIAN_POINT('',(-16.21105569005,-8.18216224658));
#563 = ( GEOMETRIC_REPRESENTATION_CONTEXT(2) 
PARAMETRIC_REPRESENTATION_CONTEXT() REPRESENTATION_CONTEXT('2D SPACE',''
  ) );
#564 = PCURVE('',#471,#565);
#565 = DEFINITIONAL_REPRESENTATION('',(#566),#592);
#566 = B_SPLINE_CURVE_WITH_KNOTS('',3,(#567,#568,#569,#570,#571,#572,
    #573,#574,#575,#576,#577,#578,#579,#580,#581,#582,#583,#584,#585,
    #586,#587,#588,#589,#590,#591),.UNSPECIFIED.,.F.,.F.,(4,1,1,1,1,1,1,
    1,1,1,1,1,1,1,1,1,1,1,1,1,1,1,4),(0.,4.072843708321E-04,
    8.145687416643E-04,1.221853112496E-03,1.629137483329E-03,
    2.036421854161E-03,2.443706224993E-03,2.850990595825E-03,
    3.258274966657E-03,3.665559337489E-03,4.072843708321E-03,
    4.480128079153E-03,4.887412449986E-03,5.294696820818E-03,
    5.70198119165E-03,6.109265562482E-03,6.516549933314E-03,
    6.923834304146E-03,7.331118674978E-03,7.738403045811E-03,
    8.145687416643E-03,8.552971787475E-03,8.960256158307E-03),
  .QUASI_UNIFORM_KNOTS.);
#567 = CARTESIAN_POINT('',(0.,0.));
#568 = CARTESIAN_POINT('',(1.515239857756E-02,-3.228645559066E-11));
#569 = CARTESIAN_POINT('',(4.540390756666E-02,-1.368003272249E-08));
#570 = CARTESIAN_POINT('',(9.064316377028E-02,-6.61450594477E-08));
#571 = CARTESIAN_POINT('',(0.135766417978,-1.416649965842E-07));
#572 = CARTESIAN_POINT('',(0.180795157243,-2.31939691818E-07));
#573 = CARTESIAN_POINT('',(0.225750626712,-3.292266053397E-07));
#574 = CARTESIAN_POINT('',(0.270653853649,-4.264831109114E-07));
#575 = CARTESIAN_POINT('',(0.315525739625,-5.174341687534E-07));
#576 = CARTESIAN_POINT('',(0.360387135461,-5.966486009655E-07));
#577 = CARTESIAN_POINT('',(0.405258922362,-6.596046985065E-07));
#578 = CARTESIAN_POINT('',(0.450162093624,-7.027529872076E-07));
#579 = CARTESIAN_POINT('',(0.495117839194,-7.235764743109E-07));
#580 = CARTESIAN_POINT('',(0.540147633334,-7.20650537222E-07));
#581 = CARTESIAN_POINT('',(0.58527332629,-6.93704038822E-07));
#582 = CARTESIAN_POINT('',(0.630517240848,-6.436834477917E-07));
#583 = CARTESIAN_POINT('',(0.675902274636,-5.728215811077E-07));
#584 = CARTESIAN_POINT('',(0.721452009756,-4.847135224585E-07));
#585 = CARTESIAN_POINT('',(0.767190829172,-3.84399515526E-07));
#586 = CARTESIAN_POINT('',(0.813144047995,-2.784662519523E-07));
#587 = CARTESIAN_POINT('',(0.85933803599,-1.751359311071E-07));
#588 = CARTESIAN_POINT('',(0.905800427229,-8.44720349463E-08));
#589 = CARTESIAN_POINT('',(0.952560067445,-1.823778611519E-08));
#590 = CARTESIAN_POINT('',(0.983952030964,-1.862279490962E-10));
#591 = CARTESIAN_POINT('',(0.999707800994,0.));
#592 = ( GEOMETRIC_REPRESENTATION_CONTEXT(2) 
PARAMETRIC_REPRESENTATION_CONTEXT() REPRESENTATION_CONTEXT('2D SPACE',''
  ) );
#593 = ORIENTED_EDGE('',*,*,#432,.F.);
#594 = ADVANCED_FACE('',(#595),#291,.T.);
#595 = FACE_BOUND('',#596,.T.);
#596 = EDGE_LOOP('',(#597,#627,#705,#706));
#597 = ORIENTED_EDGE('',*,*,#598,.F.);
#598 = EDGE_CURVE('',#599,#601,#603,.T.);
#599 = VERTEX_POINT('',#600);
#600 = CARTESIAN_POINT('',(-2.499984384545,492.64999662799,
    -32.78891295013));
#601 = VERTEX_POINT('',#602);
#602 = CARTESIAN_POINT('',(-2.499984384454,389.99669933873,
    -38.47444326462));
#603 = SURFACE_CURVE('',#604,(#609,#616),.PCURVE_S1.);
#604 = CIRCLE('',#605,1.515414561808E+03);
#605 = AXIS2_PLACEMENT_3D('',#606,#607,#608);
#606 = CARTESIAN_POINT('',(-2.499984384565,357.56763798618,
    1.476593096524E+03));
#607 = DIRECTION('',(-1.,4.251770429619E-14,-7.238143845829E-14));
#608 = DIRECTION('',(7.327471962526E-14,2.139946531453E-02,
    -0.999771005223));
#609 = PCURVE('',#291,#610);
#610 = DEFINITIONAL_REPRESENTATION('',(#611),#615);
#611 = LINE('',#612,#613);
#612 = CARTESIAN_POINT('',(6.28318530718,-2.499999999994));
#613 = VECTOR('',#614,1.);
#614 = DIRECTION('',(-1.,3.435615268321E-12));
#615 = ( GEOMETRIC_REPRESENTATION_CONTEXT(2) 
PARAMETRIC_REPRESENTATION_CONTEXT() REPRESENTATION_CONTEXT('2D SPACE',''
  ) );
#616 = PCURVE('',#538,#617);
#617 = DEFINITIONAL_REPRESENTATION('',(#618),#626);
#618 = ( BOUNDED_CURVE() B_SPLINE_CURVE(2,(#619,#620,#621,#622,#623,#624
,#625),.UNSPECIFIED.,.T.,.F.) B_SPLINE_CURVE_WITH_KNOTS((1,2,2,2,2,1),(
    -2.094395102393,0.,2.094395102393,4.188790204786,6.28318530718,
8.377580409573),.UNSPECIFIED.) CURVE() GEOMETRIC_REPRESENTATION_ITEM() 
RATIONAL_B_SPLINE_CURVE((1.,0.5,1.,0.5,1.,0.5,1.)) REPRESENTATION_ITEM(
  '') );
#619 = CARTESIAN_POINT('',(306.67265933849,-15.6118553864));
#620 = CARTESIAN_POINT('',(-2.317557163916E+03,-69.10687533328));
#621 = CARTESIAN_POINT('',(-1.051770298539E+03,2.230290326948E+03));
#622 = CARTESIAN_POINT('',(214.01656683859,4.529687529228E+03));
#623 = CARTESIAN_POINT('',(1.572459524716E+03,2.283785346894E+03));
#624 = CARTESIAN_POINT('',(2.930902482593E+03,37.883164560471));
#625 = CARTESIAN_POINT('',(306.67265933849,-15.6118553864));
#626 = ( GEOMETRIC_REPRESENTATION_CONTEXT(2) 
PARAMETRIC_REPRESENTATION_CONTEXT() REPRESENTATION_CONTEXT('2D SPACE',''
  ) );
#627 = ORIENTED_EDGE('',*,*,#628,.T.);
#628 = EDGE_CURVE('',#599,#275,#629,.T.);
#629 = SURFACE_CURVE('',#630,(#653,#679),.PCURVE_S1.);
#630 = B_SPLINE_CURVE_WITH_KNOTS('',6,(#631,#632,#633,#634,#635,#636,
    #637,#638,#639,#640,#641,#642,#643,#644,#645,#646,#647,#648,#649,
    #650,#651,#652),.UNSPECIFIED.,.F.,.F.,(7,5,5,5,7),(0.,0.412715657627
    ,0.772809028327,0.796771671008,1.),.UNSPECIFIED.);
#631 = CARTESIAN_POINT('',(-2.499984385658,492.64999660314,
    -32.78891295213));
#632 = CARTESIAN_POINT('',(-2.156331191246,492.67738173842,
    -32.78646211553));
#633 = CARTESIAN_POINT('',(-1.812568444855,492.70184345147,
    -32.78427231011));
#634 = CARTESIAN_POINT('',(-1.46868855694,492.72285193732,
    -32.78239119088));
#635 = CARTESIAN_POINT('',(-1.124697962606,492.73983734955,
    -32.78087003326));
#636 = CARTESIAN_POINT('',(-0.780617970055,492.75222995031,
    -32.77976009206));
#637 = CARTESIAN_POINT('',(-0.136234128621,492.76594985584,
    -32.77853122329));
#638 = CARTESIAN_POINT('',(0.164058817856,492.76848679514,
    -32.77830396028));
#639 = CARTESIAN_POINT('',(0.464360692256,492.76685244293,
    -32.77845035732));
#640 = CARTESIAN_POINT('',(0.764634855175,492.76078997282,
    -32.77899342132));
#641 = CARTESIAN_POINT('',(1.064839008457,492.75014333106,
    -32.77994703503));
#642 = CARTESIAN_POINT('',(1.3848947472,492.73388503424,-32.78140299549)
  );
#643 = CARTESIAN_POINT('',(1.404863667538,492.73285026026,
    -32.78149566058));
#644 = CARTESIAN_POINT('',(1.424832061216,492.73179512168,
    -32.78159014847));
#645 = CARTESIAN_POINT('',(1.44479991555,492.73071961668,-32.78168645927
    ));
#646 = CARTESIAN_POINT('',(1.464767217927,492.72962374612,
    -32.78178459282));
#647 = CARTESIAN_POINT('',(1.654072823261,492.71904069132,
    -32.78273227971));
#648 = CARTESIAN_POINT('',(1.823371268077,492.70810930088,
    -32.78371108796));
#649 = CARTESIAN_POINT('',(1.992621247661,492.6957153543,-32.78482075003
    ));
#650 = CARTESIAN_POINT('',(2.161815762488,492.68187541689,
    -32.78605973101));
#651 = CARTESIAN_POINT('',(2.330948856093,492.66662060724,
    -32.78742518451));
#652 = CARTESIAN_POINT('',(2.500015615071,492.64999659723,
    -32.78891295266));
#653 = PCURVE('',#291,#654);
#654 = DEFINITIONAL_REPRESENTATION('',(#655),#678);
#655 = B_SPLINE_CURVE_WITH_KNOTS('',6,(#656,#657,#658,#659,#660,#661,
    #662,#663,#664,#665,#666,#667,#668,#669,#670,#671,#672,#673,#674,
    #675,#676,#677),.UNSPECIFIED.,.F.,.F.,(7,5,5,5,7),(0.,0.412715657627
    ,0.772809028327,0.796771671008,1.),.UNSPECIFIED.);
#656 = CARTESIAN_POINT('',(6.78562521165E-02,-2.500000001181));
#657 = CARTESIAN_POINT('',(6.787439539309E-02,-2.156346806769));
#658 = CARTESIAN_POINT('',(6.789060187114E-02,-1.812584060378));
#659 = CARTESIAN_POINT('',(6.790452052866E-02,-1.468704172463));
#660 = CARTESIAN_POINT('',(6.791577381312E-02,-1.124713578129));
#661 = CARTESIAN_POINT('',(6.792398424453E-02,-0.780633585578));
#662 = CARTESIAN_POINT('',(6.793307405387E-02,-0.136249744144));
#663 = CARTESIAN_POINT('',(6.793475484691E-02,0.164043202333));
#664 = CARTESIAN_POINT('',(6.793367204363E-02,0.464345076733));
#665 = CARTESIAN_POINT('',(6.792965548937E-02,0.764619239652));
#666 = CARTESIAN_POINT('',(6.792260179989E-02,1.064823392934));
#667 = CARTESIAN_POINT('',(6.791183025326E-02,1.384879131677));
#668 = CARTESIAN_POINT('',(6.79111446885E-02,1.404848052015));
#669 = CARTESIAN_POINT('',(6.791044563171E-02,1.424816445693));
#670 = CARTESIAN_POINT('',(6.790973308169E-02,1.444784300027));
#671 = CARTESIAN_POINT('',(6.790900703901E-02,1.464751602404));
#672 = CARTESIAN_POINT('',(6.790199549123E-02,1.654057207738));
#673 = CARTESIAN_POINT('',(6.789475316627E-02,1.823355652554));
#674 = CARTESIAN_POINT('',(6.788654186673E-02,1.992605632138));
#675 = CARTESIAN_POINT('',(6.787737257061E-02,2.161800146965));
#676 = CARTESIAN_POINT('',(6.78672658983E-02,2.33093324057));
#677 = CARTESIAN_POINT('',(6.785625211258E-02,2.499999999548));
#678 = ( GEOMETRIC_REPRESENTATION_CONTEXT(2) 
PARAMETRIC_REPRESENTATION_CONTEXT() REPRESENTATION_CONTEXT('2D SPACE',''
  ) );
#679 = PCURVE('',#471,#680);
#680 = DEFINITIONAL_REPRESENTATION('',(#681),#704);
#681 = B_SPLINE_CURVE_WITH_KNOTS('',6,(#682,#683,#684,#685,#686,#687,
    #688,#689,#690,#691,#692,#693,#694,#695,#696,#697,#698,#699,#700,
    #701,#702,#703),.UNSPECIFIED.,.F.,.F.,(7,5,5,5,7),(0.,0.412715657627
    ,0.772809028327,0.796771671008,1.),.UNSPECIFIED.);
#682 = CARTESIAN_POINT('',(1.,0.485569570703));
#683 = CARTESIAN_POINT('',(0.931508897207,0.485699319364));
#684 = CARTESIAN_POINT('',(0.862945330783,0.485815217493));
#685 = CARTESIAN_POINT('',(0.79430727951,0.485914754748));
#686 = CARTESIAN_POINT('',(0.725597326516,0.485995231049));
#687 = CARTESIAN_POINT('',(0.656823568081,0.486053946836));
#688 = CARTESIAN_POINT('',(0.527951608815,0.486118951389));
#689 = CARTESIAN_POINT('',(0.467865070022,0.486130971364));
#690 = CARTESIAN_POINT('',(0.407750650945,0.486123227838));
#691 = CARTESIAN_POINT('',(0.34762131334,0.486094503973));
#692 = CARTESIAN_POINT('',(0.287492190719,0.486044060456));
#693 = CARTESIAN_POINT('',(0.2233798669,0.485967029258));
#694 = CARTESIAN_POINT('',(0.219379740942,0.485962126538));
#695 = CARTESIAN_POINT('',(0.215379693278,0.485957127332));
#696 = CARTESIAN_POINT('',(0.211379728563,0.485952031632));
#697 = CARTESIAN_POINT('',(0.207379851446,0.485946839441));
#698 = CARTESIAN_POINT('',(0.169457697975,0.485896697358));
#699 = CARTESIAN_POINT('',(0.13554191731,0.485844904923));
#700 = CARTESIAN_POINT('',(0.101635663891,0.485786183037));
#701 = CARTESIAN_POINT('',(6.774164635181E-02,0.485720610221));
#702 = CARTESIAN_POINT('',(3.386234263623E-02,0.485648333954));
#703 = CARTESIAN_POINT('',(0.,0.485569570675));
#704 = ( GEOMETRIC_REPRESENTATION_CONTEXT(2) 
PARAMETRIC_REPRESENTATION_CONTEXT() REPRESENTATION_CONTEXT('2D SPACE',''
  ) );
#705 = ORIENTED_EDGE('',*,*,#272,.F.);
#706 = ORIENTED_EDGE('',*,*,#707,.F.);
#707 = EDGE_CURVE('',#601,#273,#708,.T.);
#708 = SURFACE_CURVE('',#709,(#713,#720),.PCURVE_S1.);
#709 = LINE('',#710,#711);
#710 = CARTESIAN_POINT('',(1.561554558727E-05,389.99669933873,
    -38.47444326462));
#711 = VECTOR('',#712,1.);
#712 = DIRECTION('',(1.,-4.320491786059E-14,5.468542285669E-14));
#713 = PCURVE('',#291,#714);
#714 = DEFINITIONAL_REPRESENTATION('',(#715),#719);
#715 = LINE('',#716,#717);
#716 = CARTESIAN_POINT('',(0.,2.671463050774E-11));
#717 = VECTOR('',#718,1.);
#718 = DIRECTION('',(0.,1.));
#719 = ( GEOMETRIC_REPRESENTATION_CONTEXT(2) 
PARAMETRIC_REPRESENTATION_CONTEXT() REPRESENTATION_CONTEXT('2D SPACE',''
  ) );
#720 = PCURVE('',#417,#721);
#721 = DEFINITIONAL_REPRESENTATION('',(#722),#726);
#722 = LINE('',#723,#724);
#723 = CARTESIAN_POINT('',(151.38136488073,-2.008745265356E-14));
#724 = VECTOR('',#725,1.);
#725 = DIRECTION('',(-9.040869242486E-16,1.));
#726 = ( GEOMETRIC_REPRESENTATION_CONTEXT(2) 
PARAMETRIC_REPRESENTATION_CONTEXT() REPRESENTATION_CONTEXT('2D SPACE',''
  ) );
#727 = ADVANCED_FACE('',(#728),#417,.T.);
#728 = FACE_BOUND('',#729,.T.);
#729 = EDGE_LOOP('',(#730,#751,#752,#753));
#730 = ORIENTED_EDGE('',*,*,#731,.F.);
#731 = EDGE_CURVE('',#601,#503,#732,.T.);
#732 = SURFACE_CURVE('',#733,(#737,#744),.PCURVE_S1.);
#733 = LINE('',#734,#735);
#734 = CARTESIAN_POINT('',(-2.499984384461,238.64999999992,
    -41.71392353165));
#735 = VECTOR('',#736,1.);
#736 = DIRECTION('',(-4.112736626953E-14,-0.999771005223,
    -2.13994653145E-02));
#737 = PCURVE('',#417,#738);
#738 = DEFINITIONAL_REPRESENTATION('',(#739),#743);
#739 = LINE('',#740,#741);
#740 = CARTESIAN_POINT('',(-1.058427929911E-13,-2.5));
#741 = VECTOR('',#742,1.);
#742 = DIRECTION('',(-1.,-6.667843359999E-18));
#743 = ( GEOMETRIC_REPRESENTATION_CONTEXT(2) 
PARAMETRIC_REPRESENTATION_CONTEXT() REPRESENTATION_CONTEXT('2D SPACE',''
  ) );
#744 = PCURVE('',#538,#745);
#745 = DEFINITIONAL_REPRESENTATION('',(#746),#750);
#746 = LINE('',#747,#748);
#747 = CARTESIAN_POINT('',(155.32273789883,-18.6971290145));
#748 = VECTOR('',#749,1.);
#749 = DIRECTION('',(-0.999792289883,-2.038080202274E-02));
#750 = ( GEOMETRIC_REPRESENTATION_CONTEXT(2) 
PARAMETRIC_REPRESENTATION_CONTEXT() REPRESENTATION_CONTEXT('2D SPACE',''
  ) );
#751 = ORIENTED_EDGE('',*,*,#707,.T.);
#752 = ORIENTED_EDGE('',*,*,#403,.F.);
#753 = ORIENTED_EDGE('',*,*,#502,.T.);
#754 = ADVANCED_FACE('',(#755),#471,.F.);
#755 = FACE_BOUND('',#756,.F.);
#756 = EDGE_LOOP('',(#757,#811,#812,#813));
#757 = ORIENTED_EDGE('',*,*,#758,.T.);
#758 = EDGE_CURVE('',#524,#599,#759,.T.);
#759 = SURFACE_CURVE('',#760,(#775,#793),.PCURVE_S1.);
#760 = B_SPLINE_CURVE_WITH_KNOTS('',7,(#761,#762,#763,#764,#765,#766,
    #767,#768,#769,#770,#771,#772,#773,#774),.UNSPECIFIED.,.F.,.F.,(8,6,
    8),(0.,0.517171842626,1.),.UNSPECIFIED.);
#761 = CARTESIAN_POINT('',(-2.499984384455,389.64999663263,
    -38.43938663445));
#762 = CARTESIAN_POINT('',(-2.499984384454,397.26675842793,
    -38.16531812938));
#763 = CARTESIAN_POINT('',(-2.499984384454,404.8823674191,
    -37.85992546175));
#764 = CARTESIAN_POINT('',(-2.499984384454,412.49677985151,-37.525826864
    ));
#765 = CARTESIAN_POINT('',(-2.499984384454,420.10997725184,
    -37.16549139547));
#766 = CARTESIAN_POINT('',(-2.499984384453,427.72196613575,
    -36.7812319067));
#767 = CARTESIAN_POINT('',(-2.499984384453,435.33276891681,
    -36.37501032371));
#768 = CARTESIAN_POINT('',(-2.499984384452,450.04671208327,
    -35.54945286623));
#769 = CARTESIAN_POINT('',(-2.499984384452,457.14998200173,
    -35.13278030466));
#770 = CARTESIAN_POINT('',(-2.499984384452,464.25224274323,
    -34.69903690775));
#771 = CARTESIAN_POINT('',(-2.499984384452,471.3534804119,
    -34.24866734058));
#772 = CARTESIAN_POINT('',(-2.499984384451,478.45362525577,
    -33.78131587349));
#773 = CARTESIAN_POINT('',(-2.499984384451,485.5525291091,
    -33.29546170622));
#774 = CARTESIAN_POINT('',(-2.499984384451,492.64999663259,
    -32.78891295003));
#775 = PCURVE('',#471,#776);
#776 = DEFINITIONAL_REPRESENTATION('',(#777),#792);
#777 = B_SPLINE_CURVE_WITH_KNOTS('',7,(#778,#779,#780,#781,#782,#783,
    #784,#785,#786,#787,#788,#789,#790,#791),.UNSPECIFIED.,.F.,.F.,(8,6,
    8),(0.,0.517171842626,1.),.UNSPECIFIED.);
#778 = CARTESIAN_POINT('',(0.119791171755,0.));
#779 = CARTESIAN_POINT('',(0.177454201754,3.572906766331E-02));
#780 = CARTESIAN_POINT('',(0.236927235751,7.148320281836E-02));
#781 = CARTESIAN_POINT('',(0.298278060409,0.107262277231));
#782 = CARTESIAN_POINT('',(0.361520279643,0.14306628055));
#783 = CARTESIAN_POINT('',(0.426568566377,0.178895320286));
#784 = CARTESIAN_POINT('',(0.493169847767,0.214749579749));
#785 = CARTESIAN_POINT('',(0.623959211256,0.284126238086));
#786 = CARTESIAN_POINT('',(0.688014140344,0.317645281189));
#787 = CARTESIAN_POINT('',(0.752557952952,0.351186554249));
#788 = CARTESIAN_POINT('',(0.816986299248,0.384750056431));
#789 = CARTESIAN_POINT('',(0.880442629969,0.418335523246));
#790 = CARTESIAN_POINT('',(0.941841147609,0.451942316649));
#791 = CARTESIAN_POINT('',(1.,0.485569570843));
#792 = ( GEOMETRIC_REPRESENTATION_CONTEXT(2) 
PARAMETRIC_REPRESENTATION_CONTEXT() REPRESENTATION_CONTEXT('2D SPACE',''
  ) );
#793 = PCURVE('',#538,#794);
#794 = DEFINITIONAL_REPRESENTATION('',(#795),#810);
#795 = B_SPLINE_CURVE_WITH_KNOTS('',7,(#796,#797,#798,#799,#800,#801,
    #802,#803,#804,#805,#806,#807,#808,#809),.UNSPECIFIED.,.F.,.F.,(8,6,
    8),(0.,0.517171842626,1.),.UNSPECIFIED.);
#796 = CARTESIAN_POINT('',(306.32599253106,-15.57644552461));
#797 = CARTESIAN_POINT('',(313.9430296172,-15.31013776997));
#798 = CARTESIAN_POINT('',(321.55894581554,-15.01250469446));
#799 = CARTESIAN_POINT('',(329.17369470381,-14.68616448457));
#800 = CARTESIAN_POINT('',(336.78725529298,-14.33358617955));
#801 = CARTESIAN_POINT('',(344.3996317422,-13.95708263536));
#802 = CARTESIAN_POINT('',(352.01084446605,-13.55861579985));
#803 = CARTESIAN_POINT('',(366.72562114356,-12.74805059428));
#804 = CARTESIAN_POINT('',(373.8293119166,-12.33861566773));
#805 = CARTESIAN_POINT('',(380.93201090644,-11.91210888647));
#806 = CARTESIAN_POINT('',(388.03370376414,-11.4689749012));
#807 = CARTESIAN_POINT('',(395.13432110021,-11.00885791135));
#808 = CARTESIAN_POINT('',(402.23371629853,-10.53023696649));
#809 = CARTESIAN_POINT('',(409.33169625316,-10.03091998));
#810 = ( GEOMETRIC_REPRESENTATION_CONTEXT(2) 
PARAMETRIC_REPRESENTATION_CONTEXT() REPRESENTATION_CONTEXT('2D SPACE',''
  ) );
#811 = ORIENTED_EDGE('',*,*,#628,.T.);
#812 = ORIENTED_EDGE('',*,*,#454,.F.);
#813 = ORIENTED_EDGE('',*,*,#549,.T.);
#814 = ADVANCED_FACE('',(#815),#538,.F.);
#815 = FACE_BOUND('',#816,.F.);
#816 = EDGE_LOOP('',(#817,#818,#819,#820));
#817 = ORIENTED_EDGE('',*,*,#598,.F.);
#818 = ORIENTED_EDGE('',*,*,#758,.F.);
#819 = ORIENTED_EDGE('',*,*,#523,.T.);
#820 = ORIENTED_EDGE('',*,*,#731,.F.);
#821 = ( GEOMETRIC_REPRESENTATION_CONTEXT(3) 
GLOBAL_UNCERTAINTY_ASSIGNED_CONTEXT((#825)) GLOBAL_UNIT_ASSIGNED_CONTEXT
((#822,#823,#824)) REPRESENTATION_CONTEXT('Context #1',
  '3D Context with UNIT and UNCERTAINTY') );
#822 = ( LENGTH_UNIT() NAMED_UNIT(*) SI_UNIT(.MILLI.,.METRE.) );
#823 = ( NAMED_UNIT(*) PLANE_ANGLE_UNIT() SI_UNIT($,.RADIAN.) );
#824 = ( NAMED_UNIT(*) SI_UNIT($,.STERADIAN.) SOLID_ANGLE_UNIT() );
#825 = UNCERTAINTY_MEASURE_WITH_UNIT(LENGTH_MEASURE(2.E-03),#822,
  'distance_accuracy_value','confusion accuracy');
#826 = PRODUCT_RELATED_PRODUCT_CATEGORY('part',$,(#7));
ENDSEC;
END-ISO-10303-21;
