  0
SECTION
  2
HEADER
  9
$ACADVER
  1
AC1024
  9
$ACADMAINTVER
 70
6
  9
$DWGCODEPAGE
  3
ANSI_1252
  9
$LASTSAVEDBY
  1
ezdxf
  9
$INSBASE
 10
0.0
 20
0.0
 30
0.0
  9
$EXTMIN
 10
1e+20
 20
1e+20
 30
1e+20
  9
$EXTMAX
 10
-1e+20
 20
-1e+20
 30
-1e+20
  9
$LIMMIN
 10
0.0
 20
0.0
  9
$LIMMAX
 10
420.0
 20
297.0
  9
$ORTHOMODE
 70
0
  9
$REGENMODE
 70
1
  9
$FILLMODE
 70
1
  9
$QTEXTMODE
 70
0
  9
$MIRRTEXT
 70
1
  9
$LTSCALE
 40
1.0
  9
$ATTMODE
 70
1
  9
$TEXTSIZE
 40
2.5
  9
$TRACEWID
 40
1.0
  9
$TEXTSTYLE
  7
Standard
  9
$CLAYER
  8
0
  9
$CELTYPE
  6
ByLayer
  9
$CECOLOR
 62
256
  9
$CELTSCALE
 40
1.0
  9
$DISPSILH
 70
0
  9
$DIMSCALE
 40
1.0
  9
$DIMASZ
 40
2.5
  9
$DIMEXO
 40
0.625
  9
$DIMDLI
 40
3.75
  9
$DIMRND
 40
0.0
  9
$DIMDLE
 40
0.0
  9
$DIMEXE
 40
1.25
  9
$DIMTP
 40
0.0
  9
$DIMTM
 40
0.0
  9
$DIMTXT
 40
2.5
  9
$DIMCEN
 40
2.5
  9
$DIMTSZ
 40
0.0
  9
$DIMTOL
 70
0
  9
$DIMLIM
 70
0
  9
$DIMTIH
 70
0
  9
$DIMTOH
 70
0
  9
$DIMSE1
 70
0
  9
$DIMSE2
 70
0
  9
$DIMTAD
 70
1
  9
$DIMZIN
 70
8
  9
$DIMBLK
  1

  9
$DIMASO
 70
1
  9
$DIMSHO
 70
1
  9
$DIMPOST
  1

  9
$DIMAPOST
  1

  9
$DIMALT
 70
0
  9
$DIMALTD
 70
3
  9
$DIMALTF
 40
0.03937007874
  9
$DIMLFAC
 40
1.0
  9
$DIMTOFL
 70
1
  9
$DIMTVP
 40
0.0
  9
$DIMTIX
 70
0
  9
$DIMSOXD
 70
0
  9
$DIMSAH
 70
0
  9
$DIMBLK1
  1

  9
$DIMBLK2
  1

  9
$DIMSTYLE
  2
ISO-25
  9
$DIMCLRD
 70
0
  9
$DIMCLRE
 70
0
  9
$DIMCLRT
 70
0
  9
$DIMTFAC
 40
1.0
  9
$DIMGAP
 40
0.625
  9
$DIMJUST
 70
0
  9
$DIMSD1
 70
0
  9
$DIMSD2
 70
0
  9
$DIMTOLJ
 70
0
  9
$DIMTZIN
 70
8
  9
$DIMALTZ
 70
0
  9
$DIMALTTZ
 70
0
  9
$DIMUPT
 70
0
  9
$DIMDEC
 70
2
  9
$DIMTDEC
 70
2
  9
$DIMALTU
 70
2
  9
$DIMALTTD
 70
3
  9
$DIMTXSTY
  7
Standard
  9
$DIMAUNIT
 70
0
  9
$DIMADEC
 70
0
  9
$DIMALTRND
 40
0.0
  9
$DIMAZIN
 70
0
  9
$DIMDSEP
 70
44
  9
$DIMATFIT
 70
3
  9
$DIMFRAC
 70
0
  9
$DIMLDRBLK
  1

  9
$DIMLUNIT
 70
2
  9
$DIMLWD
 70
-2
  9
$DIMLWE
 70
-2
  9
$DIMTMOVE
 70
0
  9
$DIMFXL
 40
1.0
  9
$DIMFXLON
 70
0
  9
$DIMJOGANG
 40
0.785398163397
  9
$DIMTFILL
 70
0
  9
$DIMTFILLCLR
 70
0
  9
$DIMARCSYM
 70
0
  9
$DIMLTYPE
  6

  9
$DIMLTEX1
  6

  9
$DIMLTEX2
  6

  9
$DIMTXTDIRECTION
 70
0
  9
$LUNITS
 70
2
  9
$LUPREC
 70
4
  9
$SKETCHINC
 40
1.0
  9
$FILLETRAD
 40
10.0
  9
$AUNITS
 70
0
  9
$AUPREC
 70
2
  9
$MENU
  1
.
  9
$ELEVATION
 40
0.0
  9
$PELEVATION
 40
0.0
  9
$THICKNESS
 40
0.0
  9
$LIMCHECK
 70
0
  9
$CHAMFERA
 40
0.0
  9
$CHAMFERB
 40
0.0
  9
$CHAMFERC
 40
0.0
  9
$CHAMFERD
 40
0.0
  9
$SKPOLY
 70
0
  9
$TDCREATE
 40
2461303.7186805555
  9
$TDUCREATE
 40
2458532.153996898
  9
$TDUPDATE
 40
2461303.7186805555
  9
$TDUUPDATE
 40
2458532.1544311
  9
$TDINDWG
 40
0.0
  9
$TDUSRTIMER
 40
0.0
  9
$USRTIMER
 70
1
  9
$ANGBASE
 50
0.0
  9
$ANGDIR
 70
0
  9
$PDMODE
 70
0
  9
$PDSIZE
 40
0.0
  9
$PLINEWID
 40
0.0
  9
$SPLFRAME
 70
0
  9
$SPLINETYPE
 70
6
  9
$SPLINESEGS
 70
8
  9
$HANDSEED
  5
36
  9
$SURFTAB1
 70
6
  9
$SURFTAB2
 70
6
  9
$SURFTYPE
 70
6
  9
$SURFU
 70
6
  9
$SURFV
 70
6
  9
$UCSBASE
  2

  9
$UCSNAME
  2

  9
$UCSORG
 10
0.0
 20
0.0
 30
0.0
  9
$UCSXDIR
 10
1.0
 20
0.0
 30
0.0
  9
$UCSYDIR
 10
0.0
 20
1.0
 30
0.0
  9
$UCSORTHOREF
  2

  9
$UCSORTHOVIEW
 70
0
  9
$UCSORGTOP
 10
0.0
 20
0.0
 30
0.0
  9
$UCSORGBOTTOM
 10
0.0
 20
0.0
 30
0.0
  9
$UCSORGLEFT
 10
0.0
 20
0.0
 30
0.0
  9
$UCSORGRIGHT
 10
0.0
 20
0.0
 30
0.0
  9
$UCSORGFRONT
 10
0.0
 20
0.0
 30
0.0
  9
$UCSORGBACK
 10
0.0
 20
0.0
 30
0.0
  9
$PUCSBASE
  2

  9
$PUCSNAME
  2

  9
$PUCSORG
 10
0.0
 20
0.0
 30
0.0
  9
$PUCSXDIR
 10
1.0
 20
0.0
 30
0.0
  9
$PUCSYDIR
 10
0.0
 20
1.0
 30
0.0
  9
$PUCSORTHOREF
  2

  9
$PUCSORTHOVIEW
 70
0
  9
$PUCSORGTOP
 10
0.0
 20
0.0
 30
0.0
  9
$PUCSORGBOTTOM
 10
0.0
 20
0.0
 30
0.0
  9
$PUCSORGLEFT
 10
0.0
 20
0.0
 30
0.0
  9
$PUCSORGRIGHT
 10
0.0
 20
0.0
 30
0.0
  9
$PUCSORGFRONT
 10
0.0
 20
0.0
 30
0.0
  9
$PUCSORGBACK
 10
0.0
 20
0.0
 30
0.0
  9
$USERI1
 70
0
  9
$USERI2
 70
0
  9
$USERI3
 70
0
  9
$USERI4
 70
0
  9
$USERI5
 70
0
  9
$USERR1
 40
0.0
  9
$USERR2
 40
0.0
  9
$USERR3
 40
0.0
  9
$USERR4
 40
0.0
  9
$USERR5
 40
0.0
  9
$WORLDVIEW
 70
1
  9
$SHADEDGE
 70
3
  9
$SHADEDIF
 70
70
  9
$TILEMODE
 70
1
  9
$MAXACTVP
 70
64
  9
$PINSBASE
 10
0.0
 20
0.0
 30
0.0
  9
$PLIMCHECK
 70
0
  9
$PEXTMIN
 10
1e+20
 20
1e+20
 30
1e+20
  9
$PEXTMAX
 10
-1e+20
 20
-1e+20
 30
-1e+20
  9
$PLIMMIN
 10
0.0
 20
0.0
  9
$PLIMMAX
 10
420.0
 20
297.0
  9
$UNITMODE
 70
0
  9
$VISRETAIN
 70
1
  9
$PLINEGEN
 70
0
  9
$PSLTSCALE
 70
1
  9
$TREEDEPTH
 70
3020
  9
$CMLSTYLE
  2
Standard
  9
$CMLJUST
 70
0
  9
$CMLSCALE
 40
20.0
  9
$PROXYGRAPHICS
 70
1
  9
$MEASUREMENT
 70
1
  9
$CELWEIGHT
370
-1
  9
$ENDCAPS
280
0
  9
$JOINSTYLE
280
0
  9
$LWDISPLAY
290
0
  9
$INSUNITS
 70
4
  9
$HYPERLINKBASE
  1

  9
$STYLESHEET
  1

  9
$XEDIT
290
1
  9
$CEPSNTYPE
380
0
  9
$PSTYLEMODE
290
1
  9
$FINGERPRINTGUID
  2
{9D5DB8CC-FA97-467D-8174-2B98424D7C38}
  9
$VERSIONGUID
  2
{CF66AF87-ED72-4C09-801A-3ED177D1AB7F}
  9
$EXTNAMES
290
1
  9
$PSVPSCALE
 40
0.0
  9
$OLESTARTUP
290
0
  9
$SORTENTS
280
127
  9
$INDEXCTL
280
0
  9
$HIDETEXT
280
1
  9
$XCLIPFRAME
280
1
  9
$HALOGAP
280
0
  9
$OBSCOLOR
 70
257
  9
$OBSLTYPE
280
0
  9
$INTERSECTIONDISPLAY
280
0
  9
$INTERSECTIONCOLOR
 70
257
  9
$DIMASSOC
280
2
  9
$PROJECTNAME
  1

  9
$CAMERADISPLAY
290
0
  9
$LENSLENGTH
 40
50.0
  9
$CAMERAHEIGHT
 40
0.0
  9
$STEPSPERSEC
 40
24.0
  9
$STEPSIZE
 40
100.0
  9
$3DDWFPREC
 40
2.0
  9
$PSOLWIDTH
 40
0.005
  9
$PSOLHEIGHT
 40
0.08
  9
$LOFTANG1
 40
1.570796326795
  9
$LOFTANG2
 40
1.570796326795
  9
$LOFTMAG1
 40
0.0
  9
$LOFTMAG2
 40
0.0
  9
$LOFTPARAM
 70
7
  9
$LOFTNORMALS
280
1
  9
$LATITUDE
 40
37.795
  9
$LONGITUDE
 40
-122.394
  9
$NORTHDIRECTION
 40
0.0
  9
$TIMEZONE
 70
-8000
  9
$LIGHTGLYPHDISPLAY
280
1
  9
$TILEMODELIGHTSYNCH
280
1
  9
$CMATERIAL
347
20
  9
$SOLIDHIST
280
0
  9
$SHOWHIST
280
1
  9
$DWFFRAME
280
2
  9
$DGNFRAME
280
2
  9
$REALWORLDSCALE
290
1
  9
$INTERFERECOLOR
 62
256
  9
$CSHADOW
280
0
  9
$SHADOWPLANELOCATION
 40
0.0
  0
ENDSEC
  0
SECTION
  2
CLASSES
  0
CLASS
  1
ACDBDICTIONARYWDFLT
  2
AcDbDictionaryWithDefault
  3
ObjectDBX Classes
 90
0
 91
0
280
0
281
0
  0
CLASS
  1
SUN
  2
AcDbSun
  3
SCENEOE
 90
1153
 91
0
280
0
281
0
  0
CLASS
  1
VISUALSTYLE
  2
AcDbVisualStyle
  3
ObjectDBX Classes
 90
4095
 91
0
280
0
281
0
  0
CLASS
  1
MATERIAL
  2
AcDbMaterial
  3
ObjectDBX Classes
 90
1153
 91
0
280
0
281
0
  0
CLASS
  1
SCALE
  2
AcDbScale
  3
ObjectDBX Classes
 90
1153
 91
0
280
0
281
0
  0
CLASS
  1
TABLESTYLE
  2
AcDbTableStyle
  3
ObjectDBX Classes
 90
4095
 91
0
280
0
281
0
  0
CLASS
  1
MLEADERSTYLE
  2
AcDbMLeaderStyle
  3
ACDB_MLEADERSTYLE_CLASS
 90
4095
 91
0
280
0
281
0
  0
CLASS
  1
DICTIONARYVAR
  2
AcDbDictionaryVar
  3
ObjectDBX Classes
 90
0
 91
0
280
0
281
0
  0
CLASS
  1
CELLSTYLEMAP
  2
AcDbCellStyleMap
  3
ObjectDBX Classes
 90
1152
 91
0
280
0
281
0
  0
CLASS
  1
MENTALRAYRENDERSETTINGS
  2
AcDbMentalRayRenderSettings
  3
SCENEOE
 90
1024
 91
0
280
0
281
0
  0
CLASS
  1
ACDBDETAILVIEWSTYLE
  2
AcDbDetailViewStyle
  3
ObjectDBX Classes
 90
1025
 91
0
280
0
281
0
  0
CLASS
  1
ACDBSECTIONVIEWSTYLE
  2
AcDbSectionViewStyle
  3
ObjectDBX Classes
 90
1025
 91
0
280
0
281
0
  0
CLASS
  1
RASTERVARIABLES
  2
AcDbRasterVariables
  3
ISM
 90
0
 91
0
280
0
281
0
  0
CLASS
  1
LAYOUT
  2
AcDbLayout
  3
ObjectDBX Classes
 90
0
 91
0
280
0
281
0
  0
CLASS
  1
ACDBPLACEHOLDER
  2
AcDbPlaceHolder
  3
ObjectDBX Classes
 90
0
 91
0
280
0
281
0
  0
ENDSEC
  0
SECTION
  2
TABLES
  0
TABLE
  2
VPORT
  5
8
330
0
100
AcDbSymbolTable
 70
1
  0
VPORT
  5
23
330
8
100
AcDbSymbolTableRecord
100
AcDbViewportTableRecord
  2
*Active
 70
0
 10
0.0
 20
0.0
 11
1.0
 21
1.0
 12
0.0
 22
0.0
 13
0.0
 23
0.0
 14
0.5
 24
0.5
 15
0.5
 25
0.5
 16
0.0
 26
0.0
 36
1.0
 17
0.0
 27
0.0
 37
0.0
 40
1000.0
 41
1.34
 42
50.0
 43
0.0
 44
0.0
 50
0.0
 51
0.0
 71
0
 72
1000
 73
1
 74
3
 75
0
 76
0
 77
0
 78
0
281
0
 65
0
146
0.0
  0
ENDTAB
  0
TABLE
  2
LTYPE
  5
2
330
0
100
AcDbSymbolTable
 70
3
  0
LTYPE
  5
24
330
2
100
AcDbSymbolTableRecord
100
AcDbLinetypeTableRecord
  2
ByBlock
 70
0
  3

 72
65
 73
0
 40
0.0
  0
LTYPE
  5
25
330
2
100
AcDbSymbolTableRecord
100
AcDbLinetypeTableRecord
  2
ByLayer
 70
0
  3

 72
65
 73
0
 40
0.0
  0
LTYPE
  5
26
330
2
100
AcDbSymbolTableRecord
100
AcDbLinetypeTableRecord
  2
Continuous
 70
0
  3

 72
65
 73
0
 40
0.0
  0
ENDTAB
  0
TABLE
  2
LAYER
  5
1
330
0
100
AcDbSymbolTable
 70
4
  0
LAYER
  5
27
330
1
100
AcDbSymbolTableRecord
100
AcDbLayerTableRecord
  2
0
 70
0
 62
7
  6
Continuous
370
-3
390
13
347
21
  0
LAYER
  5
28
330
1
100
AcDbSymbolTableRecord
100
AcDbLayerTableRecord
  2
Defpoints
 70
0
 62
7
  6
Continuous
290
0
370
-3
390
13
347
21
  0
LAYER
  5
2F
330
1
100
AcDbSymbolTableRecord
100
AcDbLayerTableRecord
  2
FORMED_OUTLINE_REFERENCE
 70
0
 62
7
  6
Continuous
370
-3
390
13
347
21
  0
LAYER
  5
30
330
1
100
AcDbSymbolTableRecord
100
AcDbLayerTableRecord
  2
NOTE_NONCUT
 70
0
 62
3
  6
Continuous
370
-3
390
13
347
21
  0
ENDTAB
  0
TABLE
  2
STYLE
  5
5
330
0
100
AcDbSymbolTable
 70
1
  0
STYLE
  5
29
330
5
100
AcDbSymbolTableRecord
100
AcDbTextStyleTableRecord
  2
Standard
 70
0
 40
0.0
 41
1.0
 50
0.0
 71
0
 42
2.5
  3
txt
  4

  0
ENDTAB
  0
TABLE
  2
VIEW
  5
7
330
0
100
AcDbSymbolTable
 70
0
  0
ENDTAB
  0
TABLE
  2
UCS
  5
6
330
0
100
AcDbSymbolTable
 70
0
  0
ENDTAB
  0
TABLE
  2
APPID
  5
3
330
0
100
AcDbSymbolTable
 70
3
  0
APPID
  5
2A
330
3
100
AcDbSymbolTableRecord
100
AcDbRegAppTableRecord
  2
ACAD
 70
0
  0
APPID
  5
33
330
3
100
AcDbSymbolTableRecord
100
AcDbRegAppTableRecord
  2
HATCHBACKGROUNDCOLOR
 70
0
  0
APPID
  5
34
330
3
100
AcDbSymbolTableRecord
100
AcDbRegAppTableRecord
  2
EZDXF
 70
0
  0
ENDTAB
  0
TABLE
  2
DIMSTYLE
  5
4
330
0
100
AcDbSymbolTable
 70
1
100
AcDbDimStyleTable
  0
DIMSTYLE
105
2B
330
4
100
AcDbSymbolTableRecord
100
AcDbDimStyleTableRecord
  2
Standard
 70
0
 40
1.0
 41
2.5
 42
0.625
 43
3.75
 44
1.25
 45
0.0
 46
0.0
 47
0.0
 48
0.0
 49
2.5
140
2.5
141
2.5
142
0.0
143
0.03937007874
144
1.0
145
0.0
146
1.0
147
0.625
148
0.0
 69
0
 70
0
 71
0
 72
0
 73
0
 74
0
 75
0
 76
0
 77
1
 78
8
 79
3
170
0
171
3
172
1
173
0
174
0
175
0
176
0
177
0
178
0
179
2
271
2
272
2
273
2
274
3
275
0
276
0
277
2
278
44
279
0
280
0
281
0
282
0
283
0
284
8
285
0
286
0
288
0
289
3
290
0
371
-2
372
-2
  0
ENDTAB
  0
TABLE
  2
BLOCK_RECORD
  5
9
330
0
100
AcDbSymbolTable
 70
2
  0
BLOCK_RECORD
  5
17
330
9
100
AcDbSymbolTableRecord
100
AcDbBlockTableRecord
  2
*Model_Space
340
1A
 70
0
280
1
281
0
  0
BLOCK_RECORD
  5
1B
330
9
100
AcDbSymbolTableRecord
100
AcDbBlockTableRecord
  2
*Paper_Space
340
1E
 70
0
280
1
281
0
  0
ENDTAB
  0
ENDSEC
  0
SECTION
  2
BLOCKS
  0
BLOCK
  5
18
330
17
100
AcDbEntity
  8
0
100
AcDbBlockBegin
  2
*Model_Space
 70
0
 10
0.0
 20
0.0
 30
0.0
  3
*Model_Space
  1

  0
ENDBLK
  5
19
330
17
100
AcDbEntity
  8
0
100
AcDbBlockEnd
  0
BLOCK
  5
1C
330
1B
100
AcDbEntity
  8
0
100
AcDbBlockBegin
  2
*Paper_Space
 70
0
 10
0.0
 20
0.0
 30
0.0
  3
*Paper_Space
  1

  0
ENDBLK
  5
1D
330
1B
100
AcDbEntity
  8
0
100
AcDbBlockEnd
  0
ENDSEC
  0
SECTION
  2
ENTITIES
  0
LWPOLYLINE
  5
31
330
17
100
AcDbEntity
  8
FORMED_OUTLINE_REFERENCE
100
AcDbPolyline
 90
2216
 70
1
 10
-142.74722290039062
 20
-142.1198272705078
 10
-142.74722290039062
 20
-142.09860229492188
 10
-142.74722290039062
 20
-142.07489013671875
 10
-142.74722290039062
 20
-142.04872131347656
 10
-142.74722290039062
 20
-142.0200958251953
 10
-142.74722290039062
 20
-141.98904418945312
 10
-142.74722290039062
 20
-141.95555114746094
 10
-142.74722290039062
 20
-141.91966247558594
 10
-142.74722290039062
 20
-141.88136291503906
 10
-142.74722290039062
 20
-141.84066772460938
 10
-142.74722290039062
 20
-141.79762268066406
 10
-142.74722290039062
 20
-141.75221252441406
 10
-142.74722290039062
 20
-141.70448303222656
 10
-142.74722290039062
 20
-141.65443420410156
 10
-142.74722290039062
 20
-141.60208129882812
 10
-142.74722290039062
 20
-141.54747009277344
 10
-142.74722290039062
 20
-141.4906005859375
 10
-142.74722290039062
 20
-141.43148803710938
 10
-142.74722290039062
 20
-141.37017822265625
 10
-142.74722290039062
 20
-141.3066864013672
 10
-142.74722290039062
 20
-141.2410430908203
 10
-142.74722290039062
 20
-141.1732635498047
 10
-142.74722290039062
 20
-141.10337829589844
 10
-142.74722290039062
 20
-141.0314178466797
 10
-142.74722290039062
 20
-140.95741271972656
 10
-142.74722290039062
 20
-140.88137817382812
 10
-142.74722290039062
 20
-140.80335998535156
 10
-142.74722290039062
 20
-140.723388671875
 10
-142.74722290039062
 20
-140.6414794921875
 10
-142.74722290039062
 20
-140.5576934814453
 10
-142.74722290039062
 20
-140.47203063964844
 10
-142.74722290039062
 20
-140.38455200195312
 10
-142.74722290039062
 20
-140.29527282714844
 10
-142.74722290039062
 20
-140.20423889160156
 10
-142.74722290039062
 20
-140.11148071289062
 10
-142.74722290039062
 20
-140.01702880859375
 10
-142.74722290039062
 20
-139.9209442138672
 10
-142.74722290039062
 20
-139.8232421875
 10
-142.74722290039062
 20
-139.72398376464844
 10
-142.74722290039062
 20
-139.6231689453125
 10
-142.74722290039062
 20
-139.52088928222656
 10
-142.74722290039062
 20
-139.41714477539062
 10
-142.74722290039062
 20
-139.31198120117188
 10
-142.74722290039062
 20
-139.20545959472656
 10
-142.74722290039062
 20
-139.0976104736328
 10
-142.74722290039062
 20
-138.9884796142578
 10
-142.74722290039062
 20
-138.87811279296875
 10
-142.74722290039062
 20
-138.76654052734375
 10
-142.74722290039062
 20
-138.65380859375
 10
-142.74722290039062
 20
-138.53997802734375
 10
-142.74722290039062
 20
-138.42507934570312
 10
-142.74722290039062
 20
-138.30917358398438
 10
-142.74722290039062
 20
-138.19229125976562
 10
-142.74722290039062
 20
-138.07447814941406
 10
-142.74722290039062
 20
-137.95578002929688
 10
-142.74722290039062
 20
-137.8362579345703
 10
-142.74722290039062
 20
-137.7159423828125
 10
-142.74722290039062
 20
-137.59490966796875
 10
-142.74722290039062
 20
-137.47315979003906
 10
-142.74722290039062
 20
-137.3507843017578
 10
-142.74722290039062
 20
-137.3499755859375
 10
-142.74722290039062
 20
-137.34983825683594
 10
-142.74722290039062
 20
-137.3495330810547
 10
-142.74722290039062
 20
-137.34909057617188
 10
-142.74722290039062
 20
-137.34849548339844
 10
-142.74722290039062
 20
-137.34774780273438
 10
-142.74722290039062
 20
-137.3468475341797
 10
-142.74722290039062
 20
-137.34580993652344
 10
-142.74722290039062
 20
-137.34461975097656
 10
-142.74722290039062
 20
-137.34327697753906
 10
-142.74722290039062
 20
-137.34178161621094
 10
-142.74722290039062
 20
-137.34014892578125
 10
-142.74722290039062
 20
-137.33836364746094
 10
-142.74722290039062
 20
-137.33642578125
 10
-142.74722290039062
 20
-137.33433532714844
 10
-142.74722290039062
 20
-137.3321075439453
 10
-142.74722290039062
 20
-137.32974243164062
 10
-142.74722290039062
 20
-137.32720947265625
 10
-142.74722290039062
 20
-137.3245391845703
 10
-142.74722290039062
 20
-137.32171630859375
 10
-142.74722290039062
 20
-137.31875610351562
 10
-142.74722290039062
 20
-137.31564331054688
 10
-142.74722290039062
 20
-137.31239318847656
 10
-142.74722290039062
 20
-137.30899047851562
 10
-142.74722290039062
 20
-137.30545043945312
 10
-142.74722290039062
 20
-137.3017578125
 10
-142.74722290039062
 20
-137.29791259765625
 10
-142.74722290039062
 20
-137.29393005371094
 10
-142.74722290039062
 20
-137.28981018066406
 10
-142.74722290039062
 20
-137.28555297851562
 10
-142.74722290039062
 20
-137.28114318847656
 10
-142.74722290039062
 20
-137.27658081054688
 10
-142.74722290039062
 20
-137.2718963623047
 10
-142.74722290039062
 20
-137.26705932617188
 10
-142.74722290039062
 20
-137.2620849609375
 10
-142.74722290039062
 20
-137.2569580078125
 10
-142.74722290039062
 20
-137.251708984375
 10
-142.74722290039062
 20
-137.24630737304688
 10
-142.74722290039062
 20
-137.2407684326172
 10
-142.74722290039062
 20
-137.235107421875
 10
-142.74722290039062
 20
-137.2292938232422
 10
-142.74722290039062
 20
-137.22781372070312
 10
-142.74722290039062
 20
-137.2233428955078
 10
-142.74722290039062
 20
-137.21725463867188
 10
-142.74722290039062
 20
-137.21104431152344
 10
-142.74722290039062
 20
-137.20468139648438
 10
-142.74722290039062
 20
-137.1981964111328
 10
-142.74722290039062
 20
-137.19155883789062
 10
-142.74722290039062
 20
-137.184814453125
 10
-142.74722290039062
 20
-137.17791748046875
 10
-142.74722290039062
 20
-137.1708984375
 10
-142.74722290039062
 20
-137.1637420654297
 10
-142.74722290039062
 20
-137.1564483642578
 10
-142.74722290039062
 20
-137.14903259277344
 10
-142.74722290039062
 20
-137.14149475097656
 10
-142.74722290039062
 20
-137.13381958007812
 10
-142.74722290039062
 20
-137.1260223388672
 10
-142.74722290039062
 20
-137.1180877685547
 10
-142.74722290039062
 20
-137.11004638671875
 10
-142.74722290039062
 20
-137.1042938232422
 10
-142.74722290039062
 20
-137.1018524169922
 10
-142.74722290039062
 20
-137.0935516357422
 10
-142.74722290039062
 20
-137.0851287841797
 10
-142.74722290039062
 20
-137.0765838623047
 10
-142.74722290039062
 20
-137.06790161132812
 10
-142.74722290039062
 20
-137.05911254882812
 10
-142.74722290039062
 20
-137.05020141601562
 10
-142.74722290039062
 20
-137.04116821289062
 10
-142.74722290039062
 20
-137.03201293945312
 10
-142.74722290039062
 20
-137.0227508544922
 10
-142.74722290039062
 20
-137.01336669921875
 10
-142.74722290039062
 20
-137.0038604736328
 10
-142.74722290039062
 20
-136.99424743652344
 10
-142.74722290039062
 20
-136.98451232910156
 10
-142.74722290039062
 20
-136.98028564453125
 10
-142.74722290039062
 20
-136.97467041015625
 10
-142.74722290039062
 20
-136.9647216796875
 10
-142.74722290039062
 20
-136.95465087890625
 10
-142.74722290039062
 20
-136.94447326660156
 10
-142.74722290039062
 20
-136.93418884277344
 10
-142.74722290039062
 20
-136.92379760742188
 10
-142.74722290039062
 20
-136.91329956054688
 10
-142.74722290039062
 20
-136.90269470214844
 10
-142.74722290039062
 20
-136.89198303222656
 10
-142.74722290039062
 20
-136.8811798095703
 10
-142.74722290039062
 20
-136.87025451660156
 10
-142.74722290039062
 20
-136.85923767089844
 10
-142.74722290039062
 20
-136.8558349609375
 10
-142.74722290039062
 20
-136.84812927246094
 10
-142.74722290039062
 20
-136.8369140625
 10
-142.74722290039062
 20
-136.82559204101562
 10
-142.74722290039062
 20
-136.81417846679688
 10
-142.74722290039062
 20
-136.80267333984375
 10
-142.74722290039062
 20
-136.79107666015625
 10
-142.74722290039062
 20
-136.7793731689453
 10
-142.74722290039062
 20
-136.76759338378906
 10
-142.74722290039062
 20
-136.75570678710938
 10
-142.74722290039062
 20
-136.74374389648438
 10
-142.74722290039062
 20
-136.73167419433594
 10
-142.74722290039062
 20
-136.73097229003906
 10
-142.74722290039062
 20
-136.7195281982422
 10
-142.74722290039062
 20
-136.70730590820312
 10
-142.74722290039062
 20
-136.69497680664062
 10
-142.74722290039062
 20
-136.6825714111328
 10
-142.74722290039062
 20
-136.6700897216797
 10
-142.74722290039062
 20
-136.65753173828125
 10
-142.74722290039062
 20
-136.64488220214844
 10
-142.74722290039062
 20
-136.6321563720703
 10
-142.74722290039062
 20
-136.61935424804688
 10
-142.74722290039062
 20
-136.60647583007812
 10
-142.74722290039062
 20
-136.6057586669922
 10
-142.74722290039062
 20
-136.593505859375
 10
-142.74722290039062
 20
-136.5804901123047
 10
-142.74722290039062
 20
-136.5673828125
 10
-142.74722290039062
 20
-136.55421447753906
 10
-142.74722290039062
 20
-136.5409698486328
 10
-142.74722290039062
 20
-136.52764892578125
 10
-142.74722290039062
 20
-136.51426696777344
 10
-142.74722290039062
 20
-136.50082397460938
 10
-142.74722290039062
 20
-136.48731994628906
 10
-142.74722290039062
 20
-136.48025512695312
 10
-142.74722290039062
 20
-136.47373962402344
 10
-142.74722290039062
 20
-136.46009826660156
 10
-142.74722290039062
 20
-136.4464111328125
 10
-142.74722290039062
 20
-136.43264770507812
 10
-142.74722290039062
 20
-136.41883850097656
 10
-142.74722290039062
 20
-136.40496826171875
 10
-142.74722290039062
 20
-136.3910369873047
 10
-142.74722290039062
 20
-136.37705993652344
 10
-142.74722290039062
 20
-136.363037109375
 10
-142.74722290039062
 20
-136.35450744628906
 10
-142.74722290039062
 20
-136.3489532470703
 10
-142.74722290039062
 20
-136.33480834960938
 10
-142.74722290039062
 20
-136.3206329345703
 10
-142.74722290039062
 20
-136.30641174316406
 10
-142.74722290039062
 20
-136.29212951660156
 10
-142.74722290039062
 20
-136.27781677246094
 10
-142.74722290039062
 20
-136.26345825195312
 10
-142.74722290039062
 20
-136.24905395507812
 10
-142.74722290039062
 20
-136.234619140625
 10
-142.74722290039062
 20
-136.2285614013672
 10
-142.74722290039062
 20
-136.2201385498047
 10
-142.74722290039062
 20
-136.20562744140625
 10
-142.74722290039062
 20
-136.19107055664062
 10
-142.74722290039062
 20
-136.17648315429688
 10
-142.74722290039062
 20
-136.161865234375
 10
-142.74722290039062
 20
-136.147216796875
 10
-142.74722290039062
 20
-136.13253784179688
 10
-142.74722290039062
 20
-136.11782836914062
 10
-142.74722290039062
 20
-136.1031036376953
 10
-142.74722290039062
 20
-136.10244750976562
 10
-142.74722290039062
 20
-136.08834838867188
 10
-142.74722290039062
 20
-136.0735626220703
 10
-142.74722290039062
 20
-136.0587615966797
 10
-142.74722290039062
 20
-136.04393005371094
 10
-142.74722290039062
 20
-136.0290985107422
 10
-142.74722290039062
 20
-136.0142364501953
 10
-142.74722290039062
 20
-135.99935913085938
 10
-142.74722290039062
 20
-135.98446655273438
 10
-142.74722290039062
 20
-135.97625732421875
 10
-142.74722290039062
 20
-135.9695587158203
 10
-142.74722290039062
 20
-135.9546356201172
 10
-142.74722290039062
 20
-135.93971252441406
 10
-142.74722290039062
 20
-135.92477416992188
 10
-142.74722290039062
 20
-135.90982055664062
 10
-142.74722290039062
 20
-135.89486694335938
 10
-142.74722290039062
 20
-135.87991333007812
 10
-142.74722290039062
 20
-135.86495971679688
 10
-142.74722290039062
 20
-135.85000610351562
 10
-142.74722290039062
 20
-135.8350372314453
 10
-142.74722290039062
 20
-135.82008361816406
 10
-142.74722290039062
 20
-135.8051300048828
 10
-142.74722290039062
 20
-135.79017639160156
 10
-142.74722290039062
 20
-135.77523803710938
 10
-142.74722290039062
 20
-135.7602996826172
 10
-142.74722290039062
 20
-135.745361328125
 10
-142.74722290039062
 20
-135.73045349121094
 10
-142.74722290039062
 20
-135.71554565429688
 10
-142.74722290039062
 20
-135.70065307617188
 10
-142.74722290039062
 20
-135.68577575683594
 10
-142.74722290039062
 20
-135.67091369628906
 10
-142.74722290039062
 20
-135.65606689453125
 10
-142.74722290039062
 20
-135.6412353515625
 10
-142.74722290039062
 20
-135.62643432617188
 10
-142.74722290039062
 20
-135.6116485595703
 10
-142.74722290039062
 20
-135.59689331054688
 10
-142.74722290039062
 20
-135.58216857910156
 10
-142.74722290039062
 20
-135.5674591064453
 10
-142.74722290039062
 20
-135.5527801513672
 10
-142.74722290039062
 20
-135.5381317138672
 10
-142.74722290039062
 20
-135.5235137939453
 10
-142.74722290039062
 20
-135.50892639160156
 10
-142.74722290039062
 20
-135.494384765625
 10
-142.74722290039062
 20
-135.4798583984375
 10
-142.74722290039062
 20
-135.4653778076172
 10
-142.74722290039062
 20
-135.45094299316406
 10
-142.74722290039062
 20
-135.43653869628906
 10
-142.74722290039062
 20
-135.42218017578125
 10
-142.74722290039062
 20
-135.40786743164062
 10
-142.74722290039062
 20
-135.3936004638672
 10
-142.74722290039062
 20
-135.37936401367188
 10
-142.74722290039062
 20
-135.3651885986328
 10
-142.74722290039062
 20
-135.35105895996094
 10
-142.74722290039062
 20
-135.33697509765625
 10
-142.74722290039062
 20
-135.32293701171875
 10
-142.74722290039062
 20
-135.3089599609375
 10
-142.74722290039062
 20
-135.29502868652344
 10
-142.74722290039062
 20
-135.28115844726562
 10
-142.74722290039062
 20
-135.26734924316406
 10
-142.74722290039062
 20
-135.2535858154297
 10
-142.74722290039062
 20
-135.23989868164062
 10
-142.74722290039062
 20
-135.22625732421875
 10
-142.74722290039062
 20
-135.2126922607422
 10
-142.74722290039062
 20
-135.1991729736328
 10
-142.74722290039062
 20
-135.18572998046875
 10
-142.74722290039062
 20
-135.17234802246094
 10
-142.74722290039062
 20
-135.15904235839844
 10
-142.74722290039062
 20
-135.1457977294922
 10
-142.74722290039062
 20
-135.1326141357422
 10
-142.74722290039062
 20
-135.11952209472656
 10
-142.74722290039062
 20
-135.1064910888672
 10
-142.74722290039062
 20
-135.09353637695312
 10
-142.74722290039062
 20
-135.08065795898438
 10
-142.74722290039062
 20
-135.06784057617188
 10
-142.74722290039062
 20
-135.05511474609375
 10
-142.74722290039062
 20
-135.04248046875
 10
-142.74722290039062
 20
-135.0299072265625
 10
-142.74722290039062
 20
-135.01742553710938
 10
-142.74722290039062
 20
-135.00502014160156
 10
-142.74722290039062
 20
-134.99270629882812
 10
-142.74722290039062
 20
-134.98046875
 10
-142.74722290039062
 20
-134.96832275390625
 10
-142.74722290039062
 20
-134.95626831054688
 10
-142.74722290039062
 20
-134.9442901611328
 10
-142.74722290039062
 20
-134.9324188232422
 10
-142.74722290039062
 20
-134.92062377929688
 10
-142.74722290039062
 20
-134.908935546875
 10
-142.74722290039062
 20
-134.89732360839844
 10
-142.74722290039062
 20
-134.8858184814453
 10
-142.74722290039062
 20
-134.87440490722656
 10
-142.74722290039062
 20
-134.86309814453125
 10
-142.74722290039062
 20
-134.85186767578125
 10
-142.74722290039062
 20
-134.84075927734375
 10
-142.74722290039062
 20
-134.82974243164062
 10
-142.74722290039062
 20
-134.81883239746094
 10
-142.74722290039062
 20
-134.80801391601562
 10
-142.74722290039062
 20
-134.79730224609375
 10
-142.74722290039062
 20
-134.7866973876953
 10
-142.74722290039062
 20
-134.7761993408203
 10
-142.74722290039062
 20
-134.76580810546875
 10
-142.74722290039062
 20
-134.75552368164062
 10
-142.74722290039062
 20
-134.74534606933594
 10
-142.74722290039062
 20
-134.7352752685547
 10
-142.74722290039062
 20
-134.72532653808594
 10
-142.74722290039062
 20
-134.71548461914062
 10
-142.74722290039062
 20
-134.70574951171875
 10
-142.74722290039062
 20
-134.69613647460938
 10
-142.74722290039062
 20
-134.6866455078125
 10
-142.74722290039062
 20
-134.67724609375
 10
-142.74722290039062
 20
-134.66798400878906
 10
-142.74722290039062
 20
-134.65882873535156
 10
-142.74722290039062
 20
-134.64979553222656
 10
-142.74722290039062
 20
-134.64088439941406
 10
-142.74722290039062
 20
-134.63209533691406
 10
-142.74722290039062
 20
-134.62342834472656
 10
-142.74722290039062
 20
-134.6148681640625
 10
-142.74722290039062
 20
-134.6064453125
 10
-142.74722290039062
 20
-134.59814453125
 10
-142.74722290039062
 20
-134.5899658203125
 10
-142.74722290039062
 20
-134.5819091796875
 10
-142.74722290039062
 20
-134.573974609375
 10
-142.74722290039062
 20
-134.56617736816406
 10
-142.74722290039062
 20
-134.55850219726562
 10
-142.74722290039062
 20
-134.55096435546875
 10
-142.74722290039062
 20
-134.54354858398438
 10
-142.74722290039062
 20
-134.5362548828125
 10
-142.74722290039062
 20
-134.52911376953125
 10
-142.74722290039062
 20
-134.52207946777344
 10
-142.74722290039062
 20
-134.51519775390625
 10
-142.74722290039062
 20
-134.50843811035156
 10
-142.74722290039062
 20
-134.50181579589844
 10
-142.74722290039062
 20
-134.4953155517578
 10
-142.74722290039062
 20
-134.4889678955078
 10
-142.74722290039062
 20
-134.4827423095703
 10
-142.74722290039062
 20
-134.47665405273438
 10
-142.74722290039062
 20
-134.470703125
 10
-142.74722290039062
 20
-134.46490478515625
 10
-142.74722290039062
 20
-134.459228515625
 10
-142.74722290039062
 20
-134.4536895751953
 10
-142.74722290039062
 20
-134.4482879638672
 10
-142.74722290039062
 20
-134.4430389404297
 10
-142.74722290039062
 20
-134.43792724609375
 10
-142.74722290039062
 20
-134.4329376220703
 10
-142.74722290039062
 20
-134.42811584472656
 10
-142.74722290039062
 20
-134.4234161376953
 10
-142.74722290039062
 20
-134.4188690185547
 10
-142.74722290039062
 20
-134.41445922851562
 10
-142.74722290039062
 20
-134.41018676757812
 10
-142.74722290039062
 20
-134.40606689453125
 10
-142.74722290039062
 20
-134.40208435058594
 10
-142.74722290039062
 20
-134.39825439453125
 10
-142.74722290039062
 20
-134.39456176757812
 10
-142.74722290039062
 20
-134.39100646972656
 10
-142.74722290039062
 20
-134.38760375976562
 10
-142.74722290039062
 20
-134.3843536376953
 10
-142.74722290039062
 20
-134.38124084472656
 10
-142.74722290039062
 20
-134.37828063964844
 10
-142.74722290039062
 20
-134.37545776367188
 10
-142.74722290039062
 20
-134.37278747558594
 10
-142.74722290039062
 20
-134.37026977539062
 10
-142.74722290039062
 20
-134.36788940429688
 10
-142.74722290039062
 20
-134.36566162109375
 10
-142.74722290039062
 20
-134.3635711669922
 10
-142.74722290039062
 20
-134.3616485595703
 10
-142.74722290039062
 20
-134.35984802246094
 10
-142.74722290039062
 20
-134.35821533203125
 10
-142.74722290039062
 20
-134.3567352294922
 10
-142.74722290039062
 20
-134.3553924560547
 10
-142.74722290039062
 20
-134.35418701171875
 10
-142.74722290039062
 20
-134.3531494140625
 10
-142.74722290039062
 20
-134.3522491455078
 10
-142.74722290039062
 20
-134.3515167236328
 10
-142.74722290039062
 20
-134.3509063720703
 10
-142.74722290039062
 20
-134.3504638671875
 10
-142.74722290039062
 20
-134.3501739501953
 10
-142.74722290039062
 20
-134.3500213623047
 10
-142.74722290039062
 20
-110.88487243652344
 10
-38.68734359741211
 20
-6.824999809265137
 10
-24.422138214111328
 20
-6.824999809265137
 10
-24.42150115966797
 20
-6.824999809265137
 10
-24.420228958129883
 20
-6.824999809265137
 10
-24.418319702148438
 20
-6.824999809265137
 10
-24.415775299072266
 20
-6.824999809265137
 10
-24.41259765625
 20
-6.824999809265137
 10
-24.408788681030273
 20
-6.824999809265137
 10
-24.404346466064453
 20
-6.824999809265137
 10
-24.399274826049805
 20
-6.824999809265137
 10
-24.393577575683594
 20
-6.824999809265137
 10
-24.387252807617188
 20
-6.824999809265137
 10
-24.380306243896484
 20
-6.824999809265137
 10
-24.37274169921875
 20
-6.824999809265137
 10
-24.36455726623535
 20
-6.824999809265137
 10
-24.35576057434082
 20
-6.824999809265137
 10
-24.34635353088379
 20
-6.824999809265137
 10
-24.336341857910156
 20
-6.824999809265137
 10
-24.325725555419922
 20
-6.824999809265137
 10
-24.314512252807617
 20
-6.824999809265137
 10
-24.302703857421875
 20
-6.824999809265137
 10
-24.290307998657227
 20
-6.824999809265137
 10
-24.277326583862305
 20
-6.824999809265137
 10
-24.26376724243164
 20
-6.824999809265137
 10
-24.2496337890625
 20
-6.824999809265137
 10
-24.234933853149414
 20
-6.824999809265137
 10
-24.219669342041016
 20
-6.824999809265137
 10
-24.2038516998291
 20
-6.824999809265137
 10
-24.187482833862305
 20
-6.824999809265137
 10
-24.170570373535156
 20
-6.824999809265137
 10
-24.153121948242188
 20
-6.824999809265137
 10
-24.13514518737793
 20
-6.824999809265137
 10
-24.11664390563965
 20
-6.824999809265137
 10
-24.09762954711914
 20
-6.824999809265137
 10
-24.078105926513672
 20
-6.824999809265137
 10
-24.05808448791504
 20
-6.824999809265137
 10
-24.03757095336914
 20
-6.824999809265137
 10
-24.016572952270508
 20
-6.824999809265137
 10
-23.995100021362305
 20
-6.824999809265137
 10
-23.973161697387695
 20
-6.824999809265137
 10
-23.950763702392578
 20
-6.824999809265137
 10
-23.92791748046875
 20
-6.824999809265137
 10
-23.904630661010742
 20
-6.824999809265137
 10
-23.88091468811035
 20
-6.824999809265137
 10
-23.85677719116211
 20
-6.824999809265137
 10
-23.83222770690918
 20
-6.824999809265137
 10
-23.807275772094727
 20
-6.824999809265137
 10
-23.781932830810547
 20
-6.824999809265137
 10
-23.756206512451172
 20
-6.824999809265137
 10
-23.73011016845703
 20
-6.824999809265137
 10
-23.703651428222656
 20
-6.824999809265137
 10
-23.676843643188477
 20
-6.824999809265137
 10
-23.649694442749023
 20
-6.824999809265137
 10
-23.622217178344727
 20
-6.824999809265137
 10
-23.59442138671875
 20
-6.824999809265137
 10
-23.566316604614258
 20
-6.824999809265137
 10
-23.537918090820312
 20
-6.824999809265137
 10
-23.509233474731445
 20
-6.824999809265137
 10
-23.480276107788086
 20
-6.824999809265137
 10
-23.45105743408203
 20
-6.824999809265137
 10
-23.421586990356445
 20
-6.824999809265137
 10
-23.39188003540039
 20
-6.824999809265137
 10
-23.3619441986084
 20
-6.824999809265137
 10
-23.331796646118164
 20
-6.824999809265137
 10
-23.301443099975586
 20
-6.824999809265137
 10
-23.27090072631836
 20
-6.824999809265137
 10
-23.24017906188965
 20
-6.824999809265137
 10
-23.209291458129883
 20
-6.824999809265137
 10
-23.178251266479492
 20
-6.824999809265137
 10
-23.14706802368164
 20
-6.824999809265137
 10
-23.115755081176758
 20
-6.824999809265137
 10
-23.084325790405273
 20
-6.824999809265137
 10
-23.052791595458984
 20
-6.824999809265137
 10
-23.021167755126953
 20
-6.824999809265137
 10
-22.98946189880371
 20
-6.824999809265137
 10
-22.957691192626953
 20
-6.824999809265137
 10
-22.925867080688477
 20
-6.824999809265137
 10
-22.894001007080078
 20
-6.824999809265137
 10
-22.862106323242188
 20
-6.824999809265137
 10
-22.830196380615234
 20
-6.824999809265137
 10
-22.798282623291016
 20
-6.824999809265137
 10
-22.76637840270996
 20
-6.824999809265137
 10
-22.734495162963867
 20
-6.824999809265137
 10
-22.702648162841797
 20
-6.824999809265137
 10
-22.670848846435547
 20
-6.824999809265137
 10
-22.639110565185547
 20
-6.824999809265137
 10
-22.607444763183594
 20
-6.824999809265137
 10
-22.575862884521484
 20
-6.824999809265137
 10
-22.54438018798828
 20
-6.824999809265137
 10
-22.51300811767578
 20
-6.824999809265137
 10
-22.48175811767578
 20
-6.824999809265137
 10
-22.45064353942871
 20
-6.824999809265137
 10
-22.419677734375
 20
-6.824999809265137
 10
-22.388872146606445
 20
-6.824999809265137
 10
-22.358238220214844
 20
-6.824999809265137
 10
-22.327789306640625
 20
-6.824999809265137
 10
-22.297536849975586
 20
-6.824999809265137
 10
-22.267494201660156
 20
-6.824999809265137
 10
-22.2376708984375
 20
-6.824999809265137
 10
-22.20808219909668
 20
-6.824999809265137
 10
-22.178735733032227
 20
-6.824999809265137
 10
-22.14964485168457
 20
-6.824999809265137
 10
-22.12082290649414
 20
-6.824999809265137
 10
-22.0922794342041
 20
-6.824999809265137
 10
-22.064027786254883
 20
-6.824999809265137
 10
-22.036075592041016
 20
-6.824999809265137
 10
-22.008438110351562
 20
-6.824999809265137
 10
-21.981122970581055
 20
-6.824999809265137
 10
-21.954143524169922
 20
-6.824999809265137
 10
-21.927509307861328
 20
-6.824999809265137
 10
-21.901229858398438
 20
-6.824999809265137
 10
-21.875316619873047
 20
-6.824999809265137
 10
-21.849782943725586
 20
-6.824999809265137
 10
-21.82463264465332
 20
-6.824999809265137
 10
-21.799880981445312
 20
-6.824999809265137
 10
-21.775537490844727
 20
-6.824999809265137
 10
-21.75160789489746
 20
-6.824999809265137
 10
-21.728105545043945
 20
-6.824999809265137
 10
-21.70503807067871
 20
-6.824999809265137
 10
-21.682415008544922
 20
-6.824999809265137
 10
-21.660245895385742
 20
-6.824999809265137
 10
-21.638538360595703
 20
-6.824999809265137
 10
-21.61730194091797
 20
-6.824999809265137
 10
-21.596546173095703
 20
-6.824999809265137
 10
-21.576276779174805
 20
-6.824999809265137
 10
-21.556503295898438
 20
-6.824999809265137
 10
-21.537233352661133
 20
-6.824999809265137
 10
-21.518474578857422
 20
-6.824999809265137
 10
-21.500234603881836
 20
-6.824999809265137
 10
-21.482521057128906
 20
-6.824999809265137
 10
-21.46533966064453
 20
-6.824999809265137
 10
-21.448699951171875
 20
-6.824999809265137
 10
-21.43260383605957
 20
-6.824999809265137
 10
-21.417062759399414
 20
-6.824999809265137
 10
-21.402080535888672
 20
-6.824999809265137
 10
-21.387662887573242
 20
-6.824999809265137
 10
-21.373815536499023
 20
-6.824999809265137
 10
-21.360544204711914
 20
-6.824999809265137
 10
-21.347854614257812
 20
-6.824999809265137
 10
-21.335752487182617
 20
-6.824999809265137
 10
-21.324241638183594
 20
-6.824999809265137
 10
-21.313325881958008
 20
-6.824999809265137
 10
-21.303010940551758
 20
-6.824999809265137
 10
-21.29330062866211
 20
-6.824999809265137
 10
-21.284198760986328
 20
-6.824999809265137
 10
-21.275707244873047
 20
-6.824999809265137
 10
-21.267833709716797
 20
-6.824999809265137
 10
-21.260576248168945
 20
-6.824999809265137
 10
-21.25394058227539
 20
-6.824999809265137
 10
-21.2479305267334
 20
-6.824999809265137
 10
-21.242544174194336
 20
-6.824999809265137
 10
-21.2377872467041
 20
-6.824999809265137
 10
-21.233661651611328
 20
-6.824999809265137
 10
-21.230167388916016
 20
-6.824999809265137
 10
-21.227306365966797
 20
-6.824999809265137
 10
-21.225080490112305
 20
-6.824999809265137
 10
-21.22348976135254
 20
-6.824999809265137
 10
-21.222536087036133
 20
-6.824999809265137
 10
-21.222217559814453
 20
-6.824999809265137
 10
21.2222957611084
 20
-6.824999809265137
 10
21.222932815551758
 20
-6.824999809265137
 10
21.224206924438477
 20
-6.824999809265137
 10
21.22611427307129
 20
-6.824999809265137
 10
21.22865867614746
 20
-6.824999809265137
 10
21.231836318969727
 20
-6.824999809265137
 10
21.235645294189453
 20
-6.824999809265137
 10
21.240087509155273
 20
-6.824999809265137
 10
21.245159149169922
 20
-6.824999809265137
 10
21.250856399536133
 20
-6.824999809265137
 10
21.25718116760254
 20
-6.824999809265137
 10
21.264127731323242
 20
-6.824999809265137
 10
21.27169418334961
 20
-6.824999809265137
 10
21.279876708984375
 20
-6.824999809265137
 10
21.288673400878906
 20
-6.824999809265137
 10
21.298080444335938
 20
-6.824999809265137
 10
21.308094024658203
 20
-6.824999809265137
 10
21.318708419799805
 20
-6.824999809265137
 10
21.329923629760742
 20
-6.824999809265137
 10
21.34173011779785
 20
-6.824999809265137
 10
21.3541259765625
 20
-6.824999809265137
 10
21.367107391357422
 20
-6.824999809265137
 10
21.380666732788086
 20
-6.824999809265137
 10
21.394800186157227
 20
-6.824999809265137
 10
21.409500122070312
 20
-6.824999809265137
 10
21.42476463317871
 20
-6.824999809265137
 10
21.440582275390625
 20
-6.824999809265137
 10
21.456951141357422
 20
-6.824999809265137
 10
21.47386360168457
 20
-6.824999809265137
 10
21.49131202697754
 20
-6.824999809265137
 10
21.509288787841797
 20
-6.824999809265137
 10
21.527790069580078
 20
-6.824999809265137
 10
21.546804428100586
 20
-6.824999809265137
 10
21.566328048706055
 20
-6.824999809265137
 10
21.586349487304688
 20
-6.824999809265137
 10
21.606863021850586
 20
-6.824999809265137
 10
21.62786102294922
 20
-6.824999809265137
 10
21.649333953857422
 20
-6.824999809265137
 10
21.671274185180664
 20
-6.824999809265137
 10
21.69367027282715
 20
-6.824999809265137
 10
21.716516494750977
 20
-6.824999809265137
 10
21.739803314208984
 20
-6.824999809265137
 10
21.763519287109375
 20
-6.824999809265137
 10
21.787656784057617
 20
-6.824999809265137
 10
21.81220817565918
 20
-6.824999809265137
 10
21.837158203125
 20
-6.824999809265137
 10
21.86250114440918
 20
-6.824999809265137
 10
21.888227462768555
 20
-6.824999809265137
 10
21.914323806762695
 20
-6.824999809265137
 10
21.94078254699707
 20
-6.824999809265137
 10
21.96759033203125
 20
-6.824999809265137
 10
21.994739532470703
 20
-6.824999809265137
 10
22.022216796875
 20
-6.824999809265137
 10
22.050012588500977
 20
-6.824999809265137
 10
22.07811737060547
 20
-6.824999809265137
 10
22.106515884399414
 20
-6.824999809265137
 10
22.13520050048828
 20
-6.824999809265137
 10
22.16415786743164
 20
-6.824999809265137
 10
22.193376541137695
 20
-6.824999809265137
 10
22.22284698486328
 20
-6.824999809265137
 10
22.252553939819336
 20
-6.824999809265137
 10
22.282489776611328
 20
-6.824999809265137
 10
22.312639236450195
 20
-6.824999809265137
 10
22.34299087524414
 20
-6.824999809265137
 10
22.373533248901367
 20
-6.824999809265137
 10
22.404254913330078
 20
-6.824999809265137
 10
22.435142517089844
 20
-6.824999809265137
 10
22.466182708740234
 20
-6.824999809265137
 10
22.497365951538086
 20
-6.824999809265137
 10
22.52867889404297
 20
-6.824999809265137
 10
22.560108184814453
 20
-6.824999809265137
 10
22.591642379760742
 20
-6.824999809265137
 10
22.623266220092773
 20
-6.824999809265137
 10
22.654972076416016
 20
-6.824999809265137
 10
22.686742782592773
 20
-6.824999809265137
 10
22.71856689453125
 20
-6.824999809265137
 10
22.75043296813965
 20
-6.824999809265137
 10
22.78232765197754
 20
-6.824999809265137
 10
22.814237594604492
 20
-6.824999809265137
 10
22.84615135192871
 20
-6.824999809265137
 10
22.878055572509766
 20
-6.824999809265137
 10
22.90993881225586
 20
-6.824999809265137
 10
22.94178581237793
 20
-6.824999809265137
 10
22.97358512878418
 20
-6.824999809265137
 10
23.00532341003418
 20
-6.824999809265137
 10
23.036991119384766
 20
-6.824999809265137
 10
23.068571090698242
 20
-6.824999809265137
 10
23.100053787231445
 20
-6.824999809265137
 10
23.131425857543945
 20
-6.824999809265137
 10
23.162675857543945
 20
-6.824999809265137
 10
23.193790435791016
 20
-6.824999809265137
 10
23.224756240844727
 20
-6.824999809265137
 10
23.25556182861328
 20
-6.824999809265137
 10
23.286195755004883
 20
-6.824999809265137
 10
23.3166446685791
 20
-6.824999809265137
 10
23.34689712524414
 20
-6.824999809265137
 10
23.37693977355957
 20
-6.824999809265137
 10
23.406763076782227
 20
-6.824999809265137
 10
23.43635368347168
 20
-6.824999809265137
 10
23.4656982421875
 20
-6.824999809265137
 10
23.494789123535156
 20
-6.824999809265137
 10
23.523611068725586
 20
-6.824999809265137
 10
23.552154541015625
 20
-6.824999809265137
 10
23.580406188964844
 20
-6.824999809265137
 10
23.60835838317871
 20
-6.824999809265137
 10
23.635995864868164
 20
-6.824999809265137
 10
23.663311004638672
 20
-6.824999809265137
 10
23.690290451049805
 20
-6.824999809265137
 10
23.71692657470703
 20
-6.824999809265137
 10
23.74320411682129
 20
-6.824999809265137
 10
23.76911735534668
 20
-6.824999809265137
 10
23.794652938842773
 20
-6.824999809265137
 10
23.819801330566406
 20
-6.824999809265137
 10
23.844552993774414
 20
-6.824999809265137
 10
23.868898391723633
 20
-6.824999809265137
 10
23.892826080322266
 20
-6.824999809265137
 10
23.91632843017578
 20
-6.824999809265137
 10
23.939395904541016
 20
-6.824999809265137
 10
23.962018966674805
 20
-6.824999809265137
 10
23.984188079833984
 20
-6.824999809265137
 10
24.005895614624023
 20
-6.824999809265137
 10
24.027132034301758
 20
-6.824999809265137
 10
24.047887802124023
 20
-6.824999809265137
 10
24.068157196044922
 20
-6.824999809265137
 10
24.08793067932129
 20
-6.824999809265137
 10
24.107200622558594
 20
-6.824999809265137
 10
24.125959396362305
 20
-6.824999809265137
 10
24.14419937133789
 20
-6.824999809265137
 10
24.16191291809082
 20
-6.824999809265137
 10
24.179094314575195
 20
-6.824999809265137
 10
24.195735931396484
 20
-6.824999809265137
 10
24.211830139160156
 20
-6.824999809265137
 10
24.227371215820312
 20
-6.824999809265137
 10
24.242353439331055
 20
-6.824999809265137
 10
24.256772994995117
 20
-6.824999809265137
 10
24.270618438720703
 20
-6.824999809265137
 10
24.283889770507812
 20
-6.824999809265137
 10
24.296579360961914
 20
-6.824999809265137
 10
24.30868148803711
 20
-6.824999809265137
 10
24.320192337036133
 20
-6.824999809265137
 10
24.33110809326172
 20
-6.824999809265137
 10
24.34142303466797
 20
-6.824999809265137
 10
24.351133346557617
 20
-6.824999809265137
 10
24.3602352142334
 20
-6.824999809265137
 10
24.36872673034668
 20
-6.824999809265137
 10
24.37660026550293
 20
-6.824999809265137
 10
24.38385772705078
 20
-6.824999809265137
 10
24.390493392944336
 20
-6.824999809265137
 10
24.39650535583496
 20
-6.824999809265137
 10
24.40188980102539
 20
-6.824999809265137
 10
24.406646728515625
 20
-6.824999809265137
 10
24.4107723236084
 20
-6.824999809265137
 10
24.41426658630371
 20
-6.824999809265137
 10
24.41712760925293
 20
-6.824999809265137
 10
24.419353485107422
 20
-6.824999809265137
 10
24.420944213867188
 20
-6.824999809265137
 10
24.421897888183594
 20
-6.824999809265137
 10
24.422216415405273
 20
-6.824999809265137
 10
38.68734359741211
 20
-6.824999809265137
 10
142.74722290039062
 20
-110.88487243652344
 10
142.74722290039062
 20
-134.3500213623047
 10
142.74722290039062
 20
-134.3501739501953
 10
142.74722290039062
 20
-134.3504638671875
 10
142.74722290039062
 20
-134.3509063720703
 10
142.74722290039062
 20
-134.3515167236328
 10
142.74722290039062
 20
-134.3522491455078
 10
142.74722290039062
 20
-134.3531494140625
 10
142.74722290039062
 20
-134.35418701171875
 10
142.74722290039062
 20
-134.3553924560547
 10
142.74722290039062
 20
-134.3567352294922
 10
142.74722290039062
 20
-134.35821533203125
 10
142.74722290039062
 20
-134.35984802246094
 10
142.74722290039062
 20
-134.3616485595703
 10
142.74722290039062
 20
-134.3635711669922
 10
142.74722290039062
 20
-134.36566162109375
 10
142.74722290039062
 20
-134.36788940429688
 10
142.74722290039062
 20
-134.37026977539062
 10
142.74722290039062
 20
-134.37278747558594
 10
142.74722290039062
 20
-134.37545776367188
 10
142.74722290039062
 20
-134.37828063964844
 10
142.74722290039062
 20
-134.38124084472656
 10
142.74722290039062
 20
-134.3843536376953
 10
142.74722290039062
 20
-134.38760375976562
 10
142.74722290039062
 20
-134.39100646972656
 10
142.74722290039062
 20
-134.39456176757812
 10
142.74722290039062
 20
-134.39825439453125
 10
142.74722290039062
 20
-134.40208435058594
 10
142.74722290039062
 20
-134.40606689453125
 10
142.74722290039062
 20
-134.41018676757812
 10
142.74722290039062
 20
-134.41445922851562
 10
142.74722290039062
 20
-134.4188690185547
 10
142.74722290039062
 20
-134.4234161376953
 10
142.74722290039062
 20
-134.42811584472656
 10
142.74722290039062
 20
-134.4329376220703
 10
142.74722290039062
 20
-134.43792724609375
 10
142.74722290039062
 20
-134.4430389404297
 10
142.74722290039062
 20
-134.4482879638672
 10
142.74722290039062
 20
-134.4536895751953
 10
142.74722290039062
 20
-134.459228515625
 10
142.74722290039062
 20
-134.46490478515625
 10
142.74722290039062
 20
-134.470703125
 10
142.74722290039062
 20
-134.47665405273438
 10
142.74722290039062
 20
-134.4827423095703
 10
142.74722290039062
 20
-134.4889678955078
 10
142.74722290039062
 20
-134.4953155517578
 10
142.74722290039062
 20
-134.50181579589844
 10
142.74722290039062
 20
-134.50843811035156
 10
142.74722290039062
 20
-134.51519775390625
 10
142.74722290039062
 20
-134.52207946777344
 10
142.74722290039062
 20
-134.52911376953125
 10
142.74722290039062
 20
-134.5362548828125
 10
142.74722290039062
 20
-134.54354858398438
 10
142.74722290039062
 20
-134.55096435546875
 10
142.74722290039062
 20
-134.55850219726562
 10
142.74722290039062
 20
-134.56617736816406
 10
142.74722290039062
 20
-134.573974609375
 10
142.74722290039062
 20
-134.5819091796875
 10
142.74722290039062
 20
-134.5899658203125
 10
142.74722290039062
 20
-134.59814453125
 10
142.74722290039062
 20
-134.6064453125
 10
142.74722290039062
 20
-134.6148681640625
 10
142.74722290039062
 20
-134.62342834472656
 10
142.74722290039062
 20
-134.63209533691406
 10
142.74722290039062
 20
-134.64088439941406
 10
142.74722290039062
 20
-134.64979553222656
 10
142.74722290039062
 20
-134.65882873535156
 10
142.74722290039062
 20
-134.66798400878906
 10
142.74722290039062
 20
-134.67724609375
 10
142.74722290039062
 20
-134.6866455078125
 10
142.74722290039062
 20
-134.69613647460938
 10
142.74722290039062
 20
-134.70574951171875
 10
142.74722290039062
 20
-134.71548461914062
 10
142.74722290039062
 20
-134.72532653808594
 10
142.74722290039062
 20
-134.7352752685547
 10
142.74722290039062
 20
-134.74534606933594
 10
142.74722290039062
 20
-134.75552368164062
 10
142.74722290039062
 20
-134.76580810546875
 10
142.74722290039062
 20
-134.7761993408203
 10
142.74722290039062
 20
-134.7866973876953
 10
142.74722290039062
 20
-134.79730224609375
 10
142.74722290039062
 20
-134.80801391601562
 10
142.74722290039062
 20
-134.81883239746094
 10
142.74722290039062
 20
-134.82974243164062
 10
142.74722290039062
 20
-134.84075927734375
 10
142.74722290039062
 20
-134.85186767578125
 10
142.74722290039062
 20
-134.86309814453125
 10
142.74722290039062
 20
-134.87440490722656
 10
142.74722290039062
 20
-134.8858184814453
 10
142.74722290039062
 20
-134.89732360839844
 10
142.74722290039062
 20
-134.908935546875
 10
142.74722290039062
 20
-134.92062377929688
 10
142.74722290039062
 20
-134.9324188232422
 10
142.74722290039062
 20
-134.9442901611328
 10
142.74722290039062
 20
-134.95626831054688
 10
142.74722290039062
 20
-134.96832275390625
 10
142.74722290039062
 20
-134.98046875
 10
142.74722290039062
 20
-134.99270629882812
 10
142.74722290039062
 20
-135.00502014160156
 10
142.74722290039062
 20
-135.01742553710938
 10
142.74722290039062
 20
-135.0299072265625
 10
142.74722290039062
 20
-135.04248046875
 10
142.74722290039062
 20
-135.05511474609375
 10
142.74722290039062
 20
-135.06784057617188
 10
142.74722290039062
 20
-135.08065795898438
 10
142.74722290039062
 20
-135.09353637695312
 10
142.74722290039062
 20
-135.1064910888672
 10
142.74722290039062
 20
-135.11952209472656
 10
142.74722290039062
 20
-135.1326141357422
 10
142.74722290039062
 20
-135.1457977294922
 10
142.74722290039062
 20
-135.15904235839844
 10
142.74722290039062
 20
-135.17234802246094
 10
142.74722290039062
 20
-135.18572998046875
 10
142.74722290039062
 20
-135.1991729736328
 10
142.74722290039062
 20
-135.2126922607422
 10
142.74722290039062
 20
-135.22625732421875
 10
142.74722290039062
 20
-135.23989868164062
 10
142.74722290039062
 20
-135.2535858154297
 10
142.74722290039062
 20
-135.26734924316406
 10
142.74722290039062
 20
-135.28115844726562
 10
142.74722290039062
 20
-135.29502868652344
 10
142.74722290039062
 20
-135.3089599609375
 10
142.74722290039062
 20
-135.32293701171875
 10
142.74722290039062
 20
-135.33697509765625
 10
142.74722290039062
 20
-135.35105895996094
 10
142.74722290039062
 20
-135.3651885986328
 10
142.74722290039062
 20
-135.37936401367188
 10
142.74722290039062
 20
-135.3936004638672
 10
142.74722290039062
 20
-135.40786743164062
 10
142.74722290039062
 20
-135.42218017578125
 10
142.74722290039062
 20
-135.43653869628906
 10
142.74722290039062
 20
-135.45094299316406
 10
142.74722290039062
 20
-135.4653778076172
 10
142.74722290039062
 20
-135.4798583984375
 10
142.74722290039062
 20
-135.494384765625
 10
142.74722290039062
 20
-135.50892639160156
 10
142.74722290039062
 20
-135.5235137939453
 10
142.74722290039062
 20
-135.5381317138672
 10
142.74722290039062
 20
-135.5527801513672
 10
142.74722290039062
 20
-135.5674591064453
 10
142.74722290039062
 20
-135.58216857910156
 10
142.74722290039062
 20
-135.59689331054688
 10
142.74722290039062
 20
-135.6116485595703
 10
142.74722290039062
 20
-135.62643432617188
 10
142.74722290039062
 20
-135.6412353515625
 10
142.74722290039062
 20
-135.65606689453125
 10
142.74722290039062
 20
-135.67091369628906
 10
142.74722290039062
 20
-135.68577575683594
 10
142.74722290039062
 20
-135.70065307617188
 10
142.74722290039062
 20
-135.71554565429688
 10
142.74722290039062
 20
-135.73045349121094
 10
142.74722290039062
 20
-135.745361328125
 10
142.74722290039062
 20
-135.7602996826172
 10
142.74722290039062
 20
-135.77523803710938
 10
142.74722290039062
 20
-135.79017639160156
 10
142.74722290039062
 20
-135.8051300048828
 10
142.74722290039062
 20
-135.82008361816406
 10
142.74722290039062
 20
-135.8350372314453
 10
142.74722290039062
 20
-135.85000610351562
 10
142.74722290039062
 20
-135.86495971679688
 10
142.74722290039062
 20
-135.87991333007812
 10
142.74722290039062
 20
-135.89486694335938
 10
142.74722290039062
 20
-135.90982055664062
 10
142.74722290039062
 20
-135.92477416992188
 10
142.74722290039062
 20
-135.93971252441406
 10
142.74722290039062
 20
-135.9546356201172
 10
142.74722290039062
 20
-135.9695587158203
 10
142.74722290039062
 20
-135.97625732421875
 10
142.74722290039062
 20
-135.98446655273438
 10
142.74722290039062
 20
-135.99935913085938
 10
142.74722290039062
 20
-136.0142364501953
 10
142.74722290039062
 20
-136.0290985107422
 10
142.74722290039062
 20
-136.04393005371094
 10
142.74722290039062
 20
-136.0587615966797
 10
142.74722290039062
 20
-136.0735626220703
 10
142.74722290039062
 20
-136.08834838867188
 10
142.74722290039062
 20
-136.10244750976562
 10
142.74722290039062
 20
-136.1031036376953
 10
142.74722290039062
 20
-136.11782836914062
 10
142.74722290039062
 20
-136.13253784179688
 10
142.74722290039062
 20
-136.147216796875
 10
142.74722290039062
 20
-136.161865234375
 10
142.74722290039062
 20
-136.17648315429688
 10
142.74722290039062
 20
-136.19107055664062
 10
142.74722290039062
 20
-136.20562744140625
 10
142.74722290039062
 20
-136.2201385498047
 10
142.74722290039062
 20
-136.2285614013672
 10
142.74722290039062
 20
-136.234619140625
 10
142.74722290039062
 20
-136.24905395507812
 10
142.74722290039062
 20
-136.26345825195312
 10
142.74722290039062
 20
-136.27781677246094
 10
142.74722290039062
 20
-136.29212951660156
 10
142.74722290039062
 20
-136.30641174316406
 10
142.74722290039062
 20
-136.3206329345703
 10
142.74722290039062
 20
-136.33480834960938
 10
142.74722290039062
 20
-136.3489532470703
 10
142.74722290039062
 20
-136.35450744628906
 10
142.74722290039062
 20
-136.363037109375
 10
142.74722290039062
 20
-136.37705993652344
 10
142.74722290039062
 20
-136.3910369873047
 10
142.74722290039062
 20
-136.40496826171875
 10
142.74722290039062
 20
-136.41883850097656
 10
142.74722290039062
 20
-136.43264770507812
 10
142.74722290039062
 20
-136.4464111328125
 10
142.74722290039062
 20
-136.46009826660156
 10
142.74722290039062
 20
-136.47373962402344
 10
142.74722290039062
 20
-136.48025512695312
 10
142.74722290039062
 20
-136.48731994628906
 10
142.74722290039062
 20
-136.50082397460938
 10
142.74722290039062
 20
-136.51426696777344
 10
142.74722290039062
 20
-136.52764892578125
 10
142.74722290039062
 20
-136.5409698486328
 10
142.74722290039062
 20
-136.55421447753906
 10
142.74722290039062
 20
-136.5673828125
 10
142.74722290039062
 20
-136.5804901123047
 10
142.74722290039062
 20
-136.593505859375
 10
142.74722290039062
 20
-136.6057586669922
 10
142.74722290039062
 20
-136.60647583007812
 10
142.74722290039062
 20
-136.61935424804688
 10
142.74722290039062
 20
-136.6321563720703
 10
142.74722290039062
 20
-136.64488220214844
 10
142.74722290039062
 20
-136.65753173828125
 10
142.74722290039062
 20
-136.6700897216797
 10
142.74722290039062
 20
-136.6825714111328
 10
142.74722290039062
 20
-136.69497680664062
 10
142.74722290039062
 20
-136.70730590820312
 10
142.74722290039062
 20
-136.7195281982422
 10
142.74722290039062
 20
-136.73097229003906
 10
142.74722290039062
 20
-136.73167419433594
 10
142.74722290039062
 20
-136.74374389648438
 10
142.74722290039062
 20
-136.75570678710938
 10
142.74722290039062
 20
-136.76759338378906
 10
142.74722290039062
 20
-136.7793731689453
 10
142.74722290039062
 20
-136.79107666015625
 10
142.74722290039062
 20
-136.80267333984375
 10
142.74722290039062
 20
-136.81417846679688
 10
142.74722290039062
 20
-136.82559204101562
 10
142.74722290039062
 20
-136.8369140625
 10
142.74722290039062
 20
-136.84812927246094
 10
142.74722290039062
 20
-136.8558349609375
 10
142.74722290039062
 20
-136.85923767089844
 10
142.74722290039062
 20
-136.87025451660156
 10
142.74722290039062
 20
-136.8811798095703
 10
142.74722290039062
 20
-136.89198303222656
 10
142.74722290039062
 20
-136.90269470214844
 10
142.74722290039062
 20
-136.91329956054688
 10
142.74722290039062
 20
-136.92379760742188
 10
142.74722290039062
 20
-136.93418884277344
 10
142.74722290039062
 20
-136.94447326660156
 10
142.74722290039062
 20
-136.95465087890625
 10
142.74722290039062
 20
-136.9647216796875
 10
142.74722290039062
 20
-136.97467041015625
 10
142.74722290039062
 20
-136.98028564453125
 10
142.74722290039062
 20
-136.98451232910156
 10
142.74722290039062
 20
-136.99424743652344
 10
142.74722290039062
 20
-137.0038604736328
 10
142.74722290039062
 20
-137.01336669921875
 10
142.74722290039062
 20
-137.0227508544922
 10
142.74722290039062
 20
-137.03201293945312
 10
142.74722290039062
 20
-137.04116821289062
 10
142.74722290039062
 20
-137.05020141601562
 10
142.74722290039062
 20
-137.05911254882812
 10
142.74722290039062
 20
-137.06790161132812
 10
142.74722290039062
 20
-137.0765838623047
 10
142.74722290039062
 20
-137.0851287841797
 10
142.74722290039062
 20
-137.0935516357422
 10
142.74722290039062
 20
-137.1018524169922
 10
142.74722290039062
 20
-137.1042938232422
 10
142.74722290039062
 20
-137.11004638671875
 10
142.74722290039062
 20
-137.1180877685547
 10
142.74722290039062
 20
-137.1260223388672
 10
142.74722290039062
 20
-137.13381958007812
 10
142.74722290039062
 20
-137.14149475097656
 10
142.74722290039062
 20
-137.14903259277344
 10
142.74722290039062
 20
-137.1564483642578
 10
142.74722290039062
 20
-137.1637420654297
 10
142.74722290039062
 20
-137.1708984375
 10
142.74722290039062
 20
-137.17791748046875
 10
142.74722290039062
 20
-137.184814453125
 10
142.74722290039062
 20
-137.19155883789062
 10
142.74722290039062
 20
-137.1981964111328
 10
142.74722290039062
 20
-137.20468139648438
 10
142.74722290039062
 20
-137.21104431152344
 10
142.74722290039062
 20
-137.21725463867188
 10
142.74722290039062
 20
-137.2233428955078
 10
142.74722290039062
 20
-137.22781372070312
 10
142.74722290039062
 20
-137.2292938232422
 10
142.74722290039062
 20
-137.235107421875
 10
142.74722290039062
 20
-137.2407684326172
 10
142.74722290039062
 20
-137.24630737304688
 10
142.74722290039062
 20
-137.251708984375
 10
142.74722290039062
 20
-137.2569580078125
 10
142.74722290039062
 20
-137.2620849609375
 10
142.74722290039062
 20
-137.26705932617188
 10
142.74722290039062
 20
-137.2718963623047
 10
142.74722290039062
 20
-137.27658081054688
 10
142.74722290039062
 20
-137.28114318847656
 10
142.74722290039062
 20
-137.28555297851562
 10
142.74722290039062
 20
-137.28981018066406
 10
142.74722290039062
 20
-137.29393005371094
 10
142.74722290039062
 20
-137.29791259765625
 10
142.74722290039062
 20
-137.3017578125
 10
142.74722290039062
 20
-137.30545043945312
 10
142.74722290039062
 20
-137.30899047851562
 10
142.74722290039062
 20
-137.31239318847656
 10
142.74722290039062
 20
-137.31564331054688
 10
142.74722290039062
 20
-137.31875610351562
 10
142.74722290039062
 20
-137.32171630859375
 10
142.74722290039062
 20
-137.3245391845703
 10
142.74722290039062
 20
-137.32720947265625
 10
142.74722290039062
 20
-137.32974243164062
 10
142.74722290039062
 20
-137.3321075439453
 10
142.74722290039062
 20
-137.33433532714844
 10
142.74722290039062
 20
-137.33642578125
 10
142.74722290039062
 20
-137.33836364746094
 10
142.74722290039062
 20
-137.34014892578125
 10
142.74722290039062
 20
-137.34178161621094
 10
142.74722290039062
 20
-137.34327697753906
 10
142.74722290039062
 20
-137.34461975097656
 10
142.74722290039062
 20
-137.34580993652344
 10
142.74722290039062
 20
-137.3468475341797
 10
142.74722290039062
 20
-137.34774780273438
 10
142.74722290039062
 20
-137.34849548339844
 10
142.74722290039062
 20
-137.34909057617188
 10
142.74722290039062
 20
-137.3495330810547
 10
142.74722290039062
 20
-137.34983825683594
 10
142.74722290039062
 20
-137.3499755859375
 10
142.74722290039062
 20
-137.3507843017578
 10
142.74722290039062
 20
-137.47315979003906
 10
142.74722290039062
 20
-137.59490966796875
 10
142.74722290039062
 20
-137.7159423828125
 10
142.74722290039062
 20
-137.8362579345703
 10
142.74722290039062
 20
-137.95578002929688
 10
142.74722290039062
 20
-138.07447814941406
 10
142.74722290039062
 20
-138.19229125976562
 10
142.74722290039062
 20
-138.30917358398438
 10
142.74722290039062
 20
-138.42507934570312
 10
142.74722290039062
 20
-138.53997802734375
 10
142.74722290039062
 20
-138.65380859375
 10
142.74722290039062
 20
-138.76654052734375
 10
142.74722290039062
 20
-138.87811279296875
 10
142.74722290039062
 20
-138.9884796142578
 10
142.74722290039062
 20
-139.0976104736328
 10
142.74722290039062
 20
-139.20545959472656
 10
142.74722290039062
 20
-139.31198120117188
 10
142.74722290039062
 20
-139.41714477539062
 10
142.74722290039062
 20
-139.52088928222656
 10
142.74722290039062
 20
-139.6231689453125
 10
142.74722290039062
 20
-139.72398376464844
 10
142.74722290039062
 20
-139.8232421875
 10
142.74722290039062
 20
-139.9209442138672
 10
142.74722290039062
 20
-140.01702880859375
 10
142.74722290039062
 20
-140.11148071289062
 10
142.74722290039062
 20
-140.20423889160156
 10
142.74722290039062
 20
-140.29527282714844
 10
142.74722290039062
 20
-140.38455200195312
 10
142.74722290039062
 20
-140.47203063964844
 10
142.74722290039062
 20
-140.5576934814453
 10
142.74722290039062
 20
-140.6414794921875
 10
142.74722290039062
 20
-140.723388671875
 10
142.74722290039062
 20
-140.80335998535156
 10
142.74722290039062
 20
-140.88137817382812
 10
142.74722290039062
 20
-140.95741271972656
 10
142.74722290039062
 20
-141.0314178466797
 10
142.74722290039062
 20
-141.10337829589844
 10
142.74722290039062
 20
-141.1732635498047
 10
142.74722290039062
 20
-141.2410430908203
 10
142.74722290039062
 20
-141.3066864013672
 10
142.74722290039062
 20
-141.37017822265625
 10
142.74722290039062
 20
-141.43148803710938
 10
142.74722290039062
 20
-141.4906005859375
 10
142.74722290039062
 20
-141.54747009277344
 10
142.74722290039062
 20
-141.60208129882812
 10
142.74722290039062
 20
-141.65443420410156
 10
142.74722290039062
 20
-141.70448303222656
 10
142.74722290039062
 20
-141.75221252441406
 10
142.74722290039062
 20
-141.79762268066406
 10
142.74722290039062
 20
-141.84066772460938
 10
142.74722290039062
 20
-141.88136291503906
 10
142.74722290039062
 20
-141.91966247558594
 10
142.74722290039062
 20
-141.95555114746094
 10
142.74722290039062
 20
-141.98904418945312
 10
142.74722290039062
 20
-142.0200958251953
 10
142.74722290039062
 20
-142.04872131347656
 10
142.74722290039062
 20
-142.07489013671875
 10
142.74722290039062
 20
-142.09860229492188
 10
142.74722290039062
 20
-142.1198272705078
 10
142.74722290039062
 20
-142.1385955810547
 10
142.74722290039062
 20
-142.1548614501953
 10
142.74722290039062
 20
-142.16864013671875
 10
142.74722290039062
 20
-142.179931640625
 10
142.74722290039062
 20
-142.18870544433594
 10
142.74722290039062
 20
-142.19497680664062
 10
142.74722290039062
 20
-142.19874572753906
 10
142.74722290039062
 20
-142.1999969482422
 10
139.5722198486328
 20
-142.1999969482422
 10
139.5722198486328
 20
-142.19874572753906
 10
139.5722198486328
 20
-142.19497680664062
 10
139.5722198486328
 20
-142.18870544433594
 10
139.5722198486328
 20
-142.179931640625
 10
139.5722198486328
 20
-142.16864013671875
 10
139.5722198486328
 20
-142.1548614501953
 10
139.5722198486328
 20
-142.1385955810547
 10
139.5722198486328
 20
-142.1198272705078
 10
139.5722198486328
 20
-142.09860229492188
 10
139.5722198486328
 20
-142.07489013671875
 10
139.5722198486328
 20
-142.04872131347656
 10
139.5722198486328
 20
-142.0200958251953
 10
139.5722198486328
 20
-141.98904418945312
 10
139.5722198486328
 20
-141.95555114746094
 10
139.5722198486328
 20
-141.91966247558594
 10
139.5722198486328
 20
-141.88136291503906
 10
139.5722198486328
 20
-141.84066772460938
 10
139.5722198486328
 20
-141.79762268066406
 10
139.5722198486328
 20
-141.75221252441406
 10
139.5722198486328
 20
-141.70448303222656
 10
139.5722198486328
 20
-141.65443420410156
 10
139.5722198486328
 20
-141.60208129882812
 10
139.5722198486328
 20
-141.54747009277344
 10
139.5722198486328
 20
-141.4906005859375
 10
139.5722198486328
 20
-141.43148803710938
 10
139.5722198486328
 20
-141.37017822265625
 10
139.5722198486328
 20
-141.3066864013672
 10
139.5722198486328
 20
-141.2410430908203
 10
139.5722198486328
 20
-141.1732635498047
 10
139.5722198486328
 20
-141.10337829589844
 10
139.5722198486328
 20
-141.0314178466797
 10
139.5722198486328
 20
-140.95741271972656
 10
139.5722198486328
 20
-140.88137817382812
 10
139.5722198486328
 20
-140.80335998535156
 10
139.5722198486328
 20
-140.723388671875
 10
139.5722198486328
 20
-140.6414794921875
 10
139.5722198486328
 20
-140.5576934814453
 10
139.5722198486328
 20
-140.47203063964844
 10
139.5722198486328
 20
-140.38455200195312
 10
139.5722198486328
 20
-140.29527282714844
 10
139.5722198486328
 20
-140.20423889160156
 10
139.5722198486328
 20
-140.11148071289062
 10
139.5722198486328
 20
-140.01702880859375
 10
139.5722198486328
 20
-139.9209442138672
 10
139.5722198486328
 20
-139.8232421875
 10
139.5722198486328
 20
-139.72398376464844
 10
139.5722198486328
 20
-139.6231689453125
 10
139.5722198486328
 20
-139.52088928222656
 10
139.5722198486328
 20
-139.41714477539062
 10
139.5722198486328
 20
-139.31198120117188
 10
139.5722198486328
 20
-139.20545959472656
 10
139.5722198486328
 20
-139.0976104736328
 10
139.5722198486328
 20
-138.9884796142578
 10
139.5722198486328
 20
-138.87811279296875
 10
139.5722198486328
 20
-138.76654052734375
 10
139.5722198486328
 20
-138.65380859375
 10
139.5722198486328
 20
-138.53997802734375
 10
139.5722198486328
 20
-138.42507934570312
 10
139.5722198486328
 20
-138.30917358398438
 10
139.5722198486328
 20
-138.19229125976562
 10
139.5722198486328
 20
-138.07447814941406
 10
139.5722198486328
 20
-137.95578002929688
 10
139.5722198486328
 20
-137.8362579345703
 10
139.5722198486328
 20
-137.7159423828125
 10
139.5722198486328
 20
-137.59490966796875
 10
139.5722198486328
 20
-137.47315979003906
 10
139.5722198486328
 20
-137.3507843017578
 10
139.5722198486328
 20
-137.3499755859375
 10
139.5722198486328
 20
-137.34983825683594
 10
139.5722198486328
 20
-137.3495330810547
 10
139.5722198486328
 20
-137.34909057617188
 10
139.5722198486328
 20
-137.34849548339844
 10
139.5722198486328
 20
-137.34774780273438
 10
139.5722198486328
 20
-137.3468475341797
 10
139.5722198486328
 20
-137.34580993652344
 10
139.5722198486328
 20
-137.34461975097656
 10
139.5722198486328
 20
-137.34327697753906
 10
139.5722198486328
 20
-137.34178161621094
 10
139.5722198486328
 20
-137.34014892578125
 10
139.5722198486328
 20
-137.33836364746094
 10
139.5722198486328
 20
-137.33642578125
 10
139.5722198486328
 20
-137.33433532714844
 10
139.5722198486328
 20
-137.3321075439453
 10
139.5722198486328
 20
-137.32974243164062
 10
139.5722198486328
 20
-137.32720947265625
 10
139.5722198486328
 20
-137.3245391845703
 10
139.5722198486328
 20
-137.32171630859375
 10
139.5722198486328
 20
-137.31875610351562
 10
139.5722198486328
 20
-137.31564331054688
 10
139.5722198486328
 20
-137.31239318847656
 10
139.5722198486328
 20
-137.30899047851562
 10
139.5722198486328
 20
-137.30545043945312
 10
139.5722198486328
 20
-137.3017578125
 10
139.5722198486328
 20
-137.29791259765625
 10
139.5722198486328
 20
-137.29393005371094
 10
139.5722198486328
 20
-137.28981018066406
 10
139.5722198486328
 20
-137.28555297851562
 10
139.5722198486328
 20
-137.28114318847656
 10
139.5722198486328
 20
-137.27658081054688
 10
139.5722198486328
 20
-137.2718963623047
 10
139.5722198486328
 20
-137.26705932617188
 10
139.5722198486328
 20
-137.2620849609375
 10
139.5722198486328
 20
-137.2569580078125
 10
139.5722198486328
 20
-137.251708984375
 10
139.5722198486328
 20
-137.24630737304688
 10
139.5722198486328
 20
-137.2407684326172
 10
139.5722198486328
 20
-137.235107421875
 10
139.5722198486328
 20
-137.2292938232422
 10
139.5722198486328
 20
-137.22781372070312
 10
139.5722198486328
 20
-137.2233428955078
 10
139.5722198486328
 20
-137.21725463867188
 10
139.5722198486328
 20
-137.21104431152344
 10
139.5722198486328
 20
-137.20468139648438
 10
139.5722198486328
 20
-137.1981964111328
 10
139.5722198486328
 20
-137.19155883789062
 10
139.5722198486328
 20
-137.184814453125
 10
139.5722198486328
 20
-137.17791748046875
 10
139.5722198486328
 20
-137.1708984375
 10
139.5722198486328
 20
-137.1637420654297
 10
139.5722198486328
 20
-137.1564483642578
 10
139.5722198486328
 20
-137.14903259277344
 10
139.5722198486328
 20
-137.14149475097656
 10
139.5722198486328
 20
-137.13381958007812
 10
139.5722198486328
 20
-137.1260223388672
 10
139.5722198486328
 20
-137.1180877685547
 10
139.5722198486328
 20
-137.11004638671875
 10
139.5722198486328
 20
-137.1042938232422
 10
139.5722198486328
 20
-137.1018524169922
 10
139.5722198486328
 20
-137.0935516357422
 10
139.5722198486328
 20
-137.0851287841797
 10
139.5722198486328
 20
-137.0765838623047
 10
139.5722198486328
 20
-137.06790161132812
 10
139.5722198486328
 20
-137.05911254882812
 10
139.5722198486328
 20
-137.05020141601562
 10
139.5722198486328
 20
-137.04116821289062
 10
139.5722198486328
 20
-137.03201293945312
 10
139.5722198486328
 20
-137.0227508544922
 10
139.5722198486328
 20
-137.01336669921875
 10
139.5722198486328
 20
-137.0038604736328
 10
139.5722198486328
 20
-136.99424743652344
 10
139.5722198486328
 20
-136.98451232910156
 10
139.5722198486328
 20
-136.98028564453125
 10
139.5722198486328
 20
-136.97467041015625
 10
139.5722198486328
 20
-136.9647216796875
 10
139.5722198486328
 20
-136.95465087890625
 10
139.5722198486328
 20
-136.94447326660156
 10
139.5722198486328
 20
-136.93418884277344
 10
139.5722198486328
 20
-136.92379760742188
 10
139.5722198486328
 20
-136.91329956054688
 10
139.5722198486328
 20
-136.90269470214844
 10
139.5722198486328
 20
-136.89198303222656
 10
139.5722198486328
 20
-136.8811798095703
 10
139.5722198486328
 20
-136.87025451660156
 10
139.5722198486328
 20
-136.85923767089844
 10
139.5722198486328
 20
-136.8558349609375
 10
139.5722198486328
 20
-136.84812927246094
 10
139.5722198486328
 20
-136.8369140625
 10
139.5722198486328
 20
-136.82559204101562
 10
139.5722198486328
 20
-136.81417846679688
 10
139.5722198486328
 20
-136.80267333984375
 10
139.5722198486328
 20
-136.79107666015625
 10
139.5722198486328
 20
-136.7793731689453
 10
139.5722198486328
 20
-136.76759338378906
 10
139.5722198486328
 20
-136.75570678710938
 10
139.5722198486328
 20
-136.74374389648438
 10
139.5722198486328
 20
-136.73167419433594
 10
139.5722198486328
 20
-136.73097229003906
 10
139.5722198486328
 20
-136.7195281982422
 10
139.5722198486328
 20
-136.70730590820312
 10
139.5722198486328
 20
-136.69497680664062
 10
139.5722198486328
 20
-136.6825714111328
 10
139.5722198486328
 20
-136.6700897216797
 10
139.5722198486328
 20
-136.65753173828125
 10
139.5722198486328
 20
-136.64488220214844
 10
139.5722198486328
 20
-136.6321563720703
 10
139.5722198486328
 20
-136.61935424804688
 10
139.5722198486328
 20
-136.60647583007812
 10
139.5722198486328
 20
-136.6057586669922
 10
139.5722198486328
 20
-136.593505859375
 10
139.5722198486328
 20
-136.5804901123047
 10
139.5722198486328
 20
-136.5673828125
 10
139.5722198486328
 20
-136.55421447753906
 10
139.5722198486328
 20
-136.5409698486328
 10
139.5722198486328
 20
-136.52764892578125
 10
139.5722198486328
 20
-136.51426696777344
 10
139.5722198486328
 20
-136.50082397460938
 10
139.5722198486328
 20
-136.48731994628906
 10
139.5722198486328
 20
-136.48025512695312
 10
139.5722198486328
 20
-136.47373962402344
 10
139.5722198486328
 20
-136.46009826660156
 10
139.5722198486328
 20
-136.4464111328125
 10
139.5722198486328
 20
-136.43264770507812
 10
139.5722198486328
 20
-136.41883850097656
 10
139.5722198486328
 20
-136.40496826171875
 10
139.5722198486328
 20
-136.3910369873047
 10
139.5722198486328
 20
-136.37705993652344
 10
139.5722198486328
 20
-136.363037109375
 10
139.5722198486328
 20
-136.35450744628906
 10
139.5722198486328
 20
-136.3489532470703
 10
139.5722198486328
 20
-136.33480834960938
 10
139.5722198486328
 20
-136.3206329345703
 10
139.5722198486328
 20
-136.30641174316406
 10
139.5722198486328
 20
-136.29212951660156
 10
139.5722198486328
 20
-136.27781677246094
 10
139.5722198486328
 20
-136.26345825195312
 10
139.5722198486328
 20
-136.24905395507812
 10
139.5722198486328
 20
-136.234619140625
 10
139.5722198486328
 20
-136.2285614013672
 10
139.5722198486328
 20
-136.2201385498047
 10
139.5722198486328
 20
-136.20562744140625
 10
139.5722198486328
 20
-136.19107055664062
 10
139.5722198486328
 20
-136.17648315429688
 10
139.5722198486328
 20
-136.161865234375
 10
139.5722198486328
 20
-136.147216796875
 10
139.5722198486328
 20
-136.13253784179688
 10
139.5722198486328
 20
-136.11782836914062
 10
139.5722198486328
 20
-136.1031036376953
 10
139.5722198486328
 20
-136.10244750976562
 10
139.5722198486328
 20
-136.08834838867188
 10
139.5722198486328
 20
-136.0735626220703
 10
139.5722198486328
 20
-136.0587615966797
 10
139.5722198486328
 20
-136.04393005371094
 10
139.5722198486328
 20
-136.0290985107422
 10
139.5722198486328
 20
-136.0142364501953
 10
139.5722198486328
 20
-135.99935913085938
 10
139.5722198486328
 20
-135.98446655273438
 10
139.5722198486328
 20
-135.97625732421875
 10
139.5722198486328
 20
-135.9695587158203
 10
139.5722198486328
 20
-135.9546356201172
 10
139.5722198486328
 20
-135.93971252441406
 10
139.5722198486328
 20
-135.92477416992188
 10
139.5722198486328
 20
-135.90982055664062
 10
139.5722198486328
 20
-135.89486694335938
 10
139.5722198486328
 20
-135.87991333007812
 10
139.5722198486328
 20
-135.86495971679688
 10
139.5722198486328
 20
-135.85000610351562
 10
139.5722198486328
 20
-135.8350372314453
 10
139.5722198486328
 20
-135.82008361816406
 10
139.5722198486328
 20
-135.8051300048828
 10
139.5722198486328
 20
-135.79017639160156
 10
139.5722198486328
 20
-135.77523803710938
 10
139.5722198486328
 20
-135.7602996826172
 10
139.5722198486328
 20
-135.745361328125
 10
139.5722198486328
 20
-135.73045349121094
 10
139.5722198486328
 20
-135.71554565429688
 10
139.5722198486328
 20
-135.70065307617188
 10
139.5722198486328
 20
-135.68577575683594
 10
139.5722198486328
 20
-135.67091369628906
 10
139.5722198486328
 20
-135.65606689453125
 10
139.5722198486328
 20
-135.6412353515625
 10
139.5722198486328
 20
-135.62643432617188
 10
139.5722198486328
 20
-135.6116485595703
 10
139.5722198486328
 20
-135.59689331054688
 10
139.5722198486328
 20
-135.58216857910156
 10
139.5722198486328
 20
-135.5674591064453
 10
139.5722198486328
 20
-135.5527801513672
 10
139.5722198486328
 20
-135.5381317138672
 10
139.5722198486328
 20
-135.5235137939453
 10
139.5722198486328
 20
-135.50892639160156
 10
139.5722198486328
 20
-135.494384765625
 10
139.5722198486328
 20
-135.4798583984375
 10
139.5722198486328
 20
-135.4653778076172
 10
139.5722198486328
 20
-135.45094299316406
 10
139.5722198486328
 20
-135.43653869628906
 10
139.5722198486328
 20
-135.42218017578125
 10
139.5722198486328
 20
-135.40786743164062
 10
139.5722198486328
 20
-135.3936004638672
 10
139.5722198486328
 20
-135.37936401367188
 10
139.5722198486328
 20
-135.3651885986328
 10
139.5722198486328
 20
-135.35105895996094
 10
139.5722198486328
 20
-135.33697509765625
 10
139.5722198486328
 20
-135.32293701171875
 10
139.5722198486328
 20
-135.3089599609375
 10
139.5722198486328
 20
-135.29502868652344
 10
139.5722198486328
 20
-135.28115844726562
 10
139.5722198486328
 20
-135.26734924316406
 10
139.5722198486328
 20
-135.2535858154297
 10
139.5722198486328
 20
-135.23989868164062
 10
139.5722198486328
 20
-135.22625732421875
 10
139.5722198486328
 20
-135.2126922607422
 10
139.5722198486328
 20
-135.1991729736328
 10
139.5722198486328
 20
-135.18572998046875
 10
139.5722198486328
 20
-135.17234802246094
 10
139.5722198486328
 20
-135.15904235839844
 10
139.5722198486328
 20
-135.1457977294922
 10
139.5722198486328
 20
-135.1326141357422
 10
139.5722198486328
 20
-135.11952209472656
 10
139.5722198486328
 20
-135.1064910888672
 10
139.5722198486328
 20
-135.09353637695312
 10
139.5722198486328
 20
-135.08065795898438
 10
139.5722198486328
 20
-135.06784057617188
 10
139.5722198486328
 20
-135.05511474609375
 10
139.5722198486328
 20
-135.04248046875
 10
139.5722198486328
 20
-135.0299072265625
 10
139.5722198486328
 20
-135.01742553710938
 10
139.5722198486328
 20
-135.00502014160156
 10
139.5722198486328
 20
-134.99270629882812
 10
139.5722198486328
 20
-134.98046875
 10
139.5722198486328
 20
-134.96832275390625
 10
139.5722198486328
 20
-134.95626831054688
 10
139.5722198486328
 20
-134.9442901611328
 10
139.5722198486328
 20
-134.9324188232422
 10
139.5722198486328
 20
-134.92062377929688
 10
139.5722198486328
 20
-134.908935546875
 10
139.5722198486328
 20
-134.89732360839844
 10
139.5722198486328
 20
-134.8858184814453
 10
139.5722198486328
 20
-134.87440490722656
 10
139.5722198486328
 20
-134.86309814453125
 10
139.5722198486328
 20
-134.85186767578125
 10
139.5722198486328
 20
-134.84075927734375
 10
139.5722198486328
 20
-134.82974243164062
 10
139.5722198486328
 20
-134.81883239746094
 10
139.5722198486328
 20
-134.80801391601562
 10
139.5722198486328
 20
-134.79730224609375
 10
139.5722198486328
 20
-134.7866973876953
 10
139.5722198486328
 20
-134.7761993408203
 10
139.5722198486328
 20
-134.76580810546875
 10
139.5722198486328
 20
-134.75552368164062
 10
139.5722198486328
 20
-134.74534606933594
 10
139.5722198486328
 20
-134.7352752685547
 10
139.5722198486328
 20
-134.72532653808594
 10
139.5722198486328
 20
-134.71548461914062
 10
139.5722198486328
 20
-134.70574951171875
 10
139.5722198486328
 20
-134.69613647460938
 10
139.5722198486328
 20
-134.6866455078125
 10
139.5722198486328
 20
-134.67724609375
 10
139.5722198486328
 20
-134.66798400878906
 10
139.5722198486328
 20
-134.65882873535156
 10
139.5722198486328
 20
-134.64979553222656
 10
139.5722198486328
 20
-134.64088439941406
 10
139.5722198486328
 20
-134.63209533691406
 10
139.5722198486328
 20
-134.62342834472656
 10
139.5722198486328
 20
-134.6148681640625
 10
139.5722198486328
 20
-134.6064453125
 10
139.5722198486328
 20
-134.59814453125
 10
139.5722198486328
 20
-134.5899658203125
 10
139.5722198486328
 20
-134.5819091796875
 10
139.5722198486328
 20
-134.573974609375
 10
139.5722198486328
 20
-134.56617736816406
 10
139.5722198486328
 20
-134.55850219726562
 10
139.5722198486328
 20
-134.55096435546875
 10
139.5722198486328
 20
-134.54354858398438
 10
139.5722198486328
 20
-134.5362548828125
 10
139.5722198486328
 20
-134.52911376953125
 10
139.5722198486328
 20
-134.52207946777344
 10
139.5722198486328
 20
-134.51519775390625
 10
139.5722198486328
 20
-134.50843811035156
 10
139.5722198486328
 20
-134.50181579589844
 10
139.5722198486328
 20
-134.4953155517578
 10
139.5722198486328
 20
-134.4889678955078
 10
139.5722198486328
 20
-134.4827423095703
 10
139.5722198486328
 20
-134.47665405273438
 10
139.5722198486328
 20
-134.470703125
 10
139.5722198486328
 20
-134.46490478515625
 10
139.5722198486328
 20
-134.459228515625
 10
139.5722198486328
 20
-134.4536895751953
 10
139.5722198486328
 20
-134.4482879638672
 10
139.5722198486328
 20
-134.4430389404297
 10
139.5722198486328
 20
-134.43792724609375
 10
139.5722198486328
 20
-134.4329376220703
 10
139.5722198486328
 20
-134.42811584472656
 10
139.5722198486328
 20
-134.4234161376953
 10
139.5722198486328
 20
-134.4188690185547
 10
139.5722198486328
 20
-134.41445922851562
 10
139.5722198486328
 20
-134.41018676757812
 10
139.5722198486328
 20
-134.40606689453125
 10
139.5722198486328
 20
-134.40208435058594
 10
139.5722198486328
 20
-134.39825439453125
 10
139.5722198486328
 20
-134.39456176757812
 10
139.5722198486328
 20
-134.39100646972656
 10
139.5722198486328
 20
-134.38760375976562
 10
139.5722198486328
 20
-134.3843536376953
 10
139.5722198486328
 20
-134.38124084472656
 10
139.5722198486328
 20
-134.37828063964844
 10
139.5722198486328
 20
-134.37545776367188
 10
139.5722198486328
 20
-134.37278747558594
 10
139.5722198486328
 20
-134.37026977539062
 10
139.5722198486328
 20
-134.36788940429688
 10
139.5722198486328
 20
-134.36566162109375
 10
139.5722198486328
 20
-134.3635711669922
 10
139.5722198486328
 20
-134.3616485595703
 10
139.5722198486328
 20
-134.35984802246094
 10
139.5722198486328
 20
-134.35821533203125
 10
139.5722198486328
 20
-134.3567352294922
 10
139.5722198486328
 20
-134.3553924560547
 10
139.5722198486328
 20
-134.35418701171875
 10
139.5722198486328
 20
-134.3531494140625
 10
139.5722198486328
 20
-134.3522491455078
 10
139.5722198486328
 20
-134.3515167236328
 10
139.5722198486328
 20
-134.3509063720703
 10
139.5722198486328
 20
-134.3504638671875
 10
139.5722198486328
 20
-134.3501739501953
 10
139.5722198486328
 20
-134.3500213623047
 10
139.5722198486328
 20
-112.19999694824219
 10
37.372215270996094
 20
-10.0
 10
24.422216415405273
 20
-10.0
 10
24.421897888183594
 20
-10.0
 10
24.420944213867188
 20
-10.0
 10
24.419353485107422
 20
-10.0
 10
24.41712760925293
 20
-10.0
 10
24.41426658630371
 20
-10.0
 10
24.4107723236084
 20
-10.0
 10
24.406646728515625
 20
-10.0
 10
24.40188980102539
 20
-10.0
 10
24.39650535583496
 20
-10.0
 10
24.390493392944336
 20
-10.0
 10
24.38385772705078
 20
-10.0
 10
24.37660026550293
 20
-10.0
 10
24.36872673034668
 20
-10.0
 10
24.3602352142334
 20
-10.0
 10
24.351133346557617
 20
-10.0
 10
24.34142303466797
 20
-10.0
 10
24.33110809326172
 20
-10.0
 10
24.320192337036133
 20
-10.0
 10
24.30868148803711
 20
-10.0
 10
24.296579360961914
 20
-10.0
 10
24.283889770507812
 20
-10.0
 10
24.270618438720703
 20
-10.0
 10
24.256772994995117
 20
-10.0
 10
24.242353439331055
 20
-10.0
 10
24.227371215820312
 20
-10.0
 10
24.211830139160156
 20
-10.0
 10
24.195735931396484
 20
-10.0
 10
24.179094314575195
 20
-10.0
 10
24.16191291809082
 20
-10.0
 10
24.14419937133789
 20
-10.0
 10
24.125959396362305
 20
-10.0
 10
24.107200622558594
 20
-10.0
 10
24.08793067932129
 20
-10.0
 10
24.068157196044922
 20
-10.0
 10
24.047887802124023
 20
-10.0
 10
24.027132034301758
 20
-10.0
 10
24.005895614624023
 20
-10.0
 10
23.984188079833984
 20
-10.0
 10
23.962018966674805
 20
-10.0
 10
23.939395904541016
 20
-10.0
 10
23.91632843017578
 20
-10.0
 10
23.892826080322266
 20
-10.0
 10
23.868898391723633
 20
-10.0
 10
23.844552993774414
 20
-10.0
 10
23.819801330566406
 20
-10.0
 10
23.794652938842773
 20
-10.0
 10
23.76911735534668
 20
-10.0
 10
23.74320411682129
 20
-10.0
 10
23.71692657470703
 20
-10.0
 10
23.690290451049805
 20
-10.0
 10
23.663311004638672
 20
-10.0
 10
23.635995864868164
 20
-10.0
 10
23.60835838317871
 20
-10.0
 10
23.580406188964844
 20
-10.0
 10
23.552154541015625
 20
-10.0
 10
23.523611068725586
 20
-10.0
 10
23.494789123535156
 20
-10.0
 10
23.4656982421875
 20
-10.0
 10
23.43635368347168
 20
-10.0
 10
23.406763076782227
 20
-10.0
 10
23.37693977355957
 20
-10.0
 10
23.34689712524414
 20
-10.0
 10
23.3166446685791
 20
-10.0
 10
23.286195755004883
 20
-10.0
 10
23.25556182861328
 20
-10.0
 10
23.224756240844727
 20
-10.0
 10
23.193790435791016
 20
-10.0
 10
23.162675857543945
 20
-10.0
 10
23.131425857543945
 20
-10.0
 10
23.100053787231445
 20
-10.0
 10
23.068571090698242
 20
-10.0
 10
23.036991119384766
 20
-10.0
 10
23.00532341003418
 20
-10.0
 10
22.97358512878418
 20
-10.0
 10
22.94178581237793
 20
-10.0
 10
22.90993881225586
 20
-10.0
 10
22.878055572509766
 20
-10.0
 10
22.84615135192871
 20
-10.0
 10
22.814237594604492
 20
-10.0
 10
22.78232765197754
 20
-10.0
 10
22.75043296813965
 20
-10.0
 10
22.71856689453125
 20
-10.0
 10
22.686742782592773
 20
-10.0
 10
22.654972076416016
 20
-10.0
 10
22.623266220092773
 20
-10.0
 10
22.591642379760742
 20
-10.0
 10
22.560108184814453
 20
-10.0
 10
22.52867889404297
 20
-10.0
 10
22.497365951538086
 20
-10.0
 10
22.466182708740234
 20
-10.0
 10
22.435142517089844
 20
-10.0
 10
22.404254913330078
 20
-10.0
 10
22.373533248901367
 20
-10.0
 10
22.34299087524414
 20
-10.0
 10
22.312639236450195
 20
-10.0
 10
22.282489776611328
 20
-10.0
 10
22.252553939819336
 20
-10.0
 10
22.22284698486328
 20
-10.0
 10
22.193376541137695
 20
-10.0
 10
22.16415786743164
 20
-10.0
 10
22.13520050048828
 20
-10.0
 10
22.106515884399414
 20
-10.0
 10
22.07811737060547
 20
-10.0
 10
22.050012588500977
 20
-10.0
 10
22.022216796875
 20
-10.0
 10
21.994739532470703
 20
-10.0
 10
21.96759033203125
 20
-10.0
 10
21.94078254699707
 20
-10.0
 10
21.914323806762695
 20
-10.0
 10
21.888227462768555
 20
-10.0
 10
21.86250114440918
 20
-10.0
 10
21.837158203125
 20
-10.0
 10
21.81220817565918
 20
-10.0
 10
21.787656784057617
 20
-10.0
 10
21.763519287109375
 20
-10.0
 10
21.739803314208984
 20
-10.0
 10
21.716516494750977
 20
-10.0
 10
21.69367027282715
 20
-10.0
 10
21.671274185180664
 20
-10.0
 10
21.649333953857422
 20
-10.0
 10
21.62786102294922
 20
-10.0
 10
21.606863021850586
 20
-10.0
 10
21.586349487304688
 20
-10.0
 10
21.566328048706055
 20
-10.0
 10
21.546804428100586
 20
-10.0
 10
21.527790069580078
 20
-10.0
 10
21.509288787841797
 20
-10.0
 10
21.49131202697754
 20
-10.0
 10
21.47386360168457
 20
-10.0
 10
21.456951141357422
 20
-10.0
 10
21.440582275390625
 20
-10.0
 10
21.42476463317871
 20
-10.0
 10
21.409500122070312
 20
-10.0
 10
21.394800186157227
 20
-10.0
 10
21.380666732788086
 20
-10.0
 10
21.367107391357422
 20
-10.0
 10
21.3541259765625
 20
-10.0
 10
21.34173011779785
 20
-10.0
 10
21.329923629760742
 20
-10.0
 10
21.318708419799805
 20
-10.0
 10
21.308094024658203
 20
-10.0
 10
21.298080444335938
 20
-10.0
 10
21.288673400878906
 20
-10.0
 10
21.279876708984375
 20
-10.0
 10
21.27169418334961
 20
-10.0
 10
21.264127731323242
 20
-10.0
 10
21.25718116760254
 20
-10.0
 10
21.250856399536133
 20
-10.0
 10
21.245159149169922
 20
-10.0
 10
21.240087509155273
 20
-10.0
 10
21.235645294189453
 20
-10.0
 10
21.231836318969727
 20
-10.0
 10
21.22865867614746
 20
-10.0
 10
21.22611427307129
 20
-10.0
 10
21.224206924438477
 20
-10.0
 10
21.222932815551758
 20
-10.0
 10
21.2222957611084
 20
-10.0
 10
-21.222217559814453
 20
-10.0
 10
-21.222536087036133
 20
-10.0
 10
-21.22348976135254
 20
-10.0
 10
-21.225080490112305
 20
-10.0
 10
-21.227306365966797
 20
-10.0
 10
-21.230167388916016
 20
-10.0
 10
-21.233661651611328
 20
-10.0
 10
-21.2377872467041
 20
-10.0
 10
-21.242544174194336
 20
-10.0
 10
-21.2479305267334
 20
-10.0
 10
-21.25394058227539
 20
-10.0
 10
-21.260576248168945
 20
-10.0
 10
-21.267833709716797
 20
-10.0
 10
-21.275707244873047
 20
-10.0
 10
-21.284198760986328
 20
-10.0
 10
-21.29330062866211
 20
-10.0
 10
-21.303010940551758
 20
-10.0
 10
-21.313325881958008
 20
-10.0
 10
-21.324241638183594
 20
-10.0
 10
-21.335752487182617
 20
-10.0
 10
-21.347854614257812
 20
-10.0
 10
-21.360544204711914
 20
-10.0
 10
-21.373815536499023
 20
-10.0
 10
-21.387662887573242
 20
-10.0
 10
-21.402080535888672
 20
-10.0
 10
-21.417062759399414
 20
-10.0
 10
-21.43260383605957
 20
-10.0
 10
-21.448699951171875
 20
-10.0
 10
-21.46533966064453
 20
-10.0
 10
-21.482521057128906
 20
-10.0
 10
-21.500234603881836
 20
-10.0
 10
-21.518474578857422
 20
-10.0
 10
-21.537233352661133
 20
-10.0
 10
-21.556503295898438
 20
-10.0
 10
-21.576276779174805
 20
-10.0
 10
-21.596546173095703
 20
-10.0
 10
-21.61730194091797
 20
-10.0
 10
-21.638538360595703
 20
-10.0
 10
-21.660245895385742
 20
-10.0
 10
-21.682415008544922
 20
-10.0
 10
-21.70503807067871
 20
-10.0
 10
-21.728105545043945
 20
-10.0
 10
-21.75160789489746
 20
-10.0
 10
-21.775537490844727
 20
-10.0
 10
-21.799880981445312
 20
-10.0
 10
-21.82463264465332
 20
-10.0
 10
-21.849782943725586
 20
-10.0
 10
-21.875316619873047
 20
-10.0
 10
-21.901229858398438
 20
-10.0
 10
-21.927509307861328
 20
-10.0
 10
-21.954143524169922
 20
-10.0
 10
-21.981122970581055
 20
-10.0
 10
-22.008438110351562
 20
-10.0
 10
-22.036075592041016
 20
-10.0
 10
-22.064027786254883
 20
-10.0
 10
-22.0922794342041
 20
-10.0
 10
-22.12082290649414
 20
-10.0
 10
-22.14964485168457
 20
-10.0
 10
-22.178735733032227
 20
-10.0
 10
-22.20808219909668
 20
-10.0
 10
-22.2376708984375
 20
-10.0
 10
-22.267494201660156
 20
-10.0
 10
-22.297536849975586
 20
-10.0
 10
-22.327789306640625
 20
-10.0
 10
-22.358238220214844
 20
-10.0
 10
-22.388872146606445
 20
-10.0
 10
-22.419677734375
 20
-10.0
 10
-22.45064353942871
 20
-10.0
 10
-22.48175811767578
 20
-10.0
 10
-22.51300811767578
 20
-10.0
 10
-22.54438018798828
 20
-10.0
 10
-22.575862884521484
 20
-10.0
 10
-22.607444763183594
 20
-10.0
 10
-22.639110565185547
 20
-10.0
 10
-22.670848846435547
 20
-10.0
 10
-22.702648162841797
 20
-10.0
 10
-22.734495162963867
 20
-10.0
 10
-22.76637840270996
 20
-10.0
 10
-22.798282623291016
 20
-10.0
 10
-22.830196380615234
 20
-10.0
 10
-22.862106323242188
 20
-10.0
 10
-22.894001007080078
 20
-10.0
 10
-22.925867080688477
 20
-10.0
 10
-22.957691192626953
 20
-10.0
 10
-22.98946189880371
 20
-10.0
 10
-23.021167755126953
 20
-10.0
 10
-23.052791595458984
 20
-10.0
 10
-23.084325790405273
 20
-10.0
 10
-23.115755081176758
 20
-10.0
 10
-23.14706802368164
 20
-10.0
 10
-23.178251266479492
 20
-10.0
 10
-23.209291458129883
 20
-10.0
 10
-23.24017906188965
 20
-10.0
 10
-23.27090072631836
 20
-10.0
 10
-23.301443099975586
 20
-10.0
 10
-23.331796646118164
 20
-10.0
 10
-23.3619441986084
 20
-10.0
 10
-23.39188003540039
 20
-10.0
 10
-23.421586990356445
 20
-10.0
 10
-23.45105743408203
 20
-10.0
 10
-23.480276107788086
 20
-10.0
 10
-23.509233474731445
 20
-10.0
 10
-23.537918090820312
 20
-10.0
 10
-23.566316604614258
 20
-10.0
 10
-23.59442138671875
 20
-10.0
 10
-23.622217178344727
 20
-10.0
 10
-23.649694442749023
 20
-10.0
 10
-23.676843643188477
 20
-10.0
 10
-23.703651428222656
 20
-10.0
 10
-23.73011016845703
 20
-10.0
 10
-23.756206512451172
 20
-10.0
 10
-23.781932830810547
 20
-10.0
 10
-23.807275772094727
 20
-10.0
 10
-23.83222770690918
 20
-10.0
 10
-23.85677719116211
 20
-10.0
 10
-23.88091468811035
 20
-10.0
 10
-23.904630661010742
 20
-10.0
 10
-23.92791748046875
 20
-10.0
 10
-23.950763702392578
 20
-10.0
 10
-23.973161697387695
 20
-10.0
 10
-23.995100021362305
 20
-10.0
 10
-24.016572952270508
 20
-10.0
 10
-24.03757095336914
 20
-10.0
 10
-24.05808448791504
 20
-10.0
 10
-24.078105926513672
 20
-10.0
 10
-24.09762954711914
 20
-10.0
 10
-24.11664390563965
 20
-10.0
 10
-24.13514518737793
 20
-10.0
 10
-24.153121948242188
 20
-10.0
 10
-24.170570373535156
 20
-10.0
 10
-24.187482833862305
 20
-10.0
 10
-24.2038516998291
 20
-10.0
 10
-24.219669342041016
 20
-10.0
 10
-24.234933853149414
 20
-10.0
 10
-24.2496337890625
 20
-10.0
 10
-24.26376724243164
 20
-10.0
 10
-24.277326583862305
 20
-10.0
 10
-24.290307998657227
 20
-10.0
 10
-24.302703857421875
 20
-10.0
 10
-24.314512252807617
 20
-10.0
 10
-24.325725555419922
 20
-10.0
 10
-24.336341857910156
 20
-10.0
 10
-24.34635353088379
 20
-10.0
 10
-24.35576057434082
 20
-10.0
 10
-24.36455726623535
 20
-10.0
 10
-24.37274169921875
 20
-10.0
 10
-24.380306243896484
 20
-10.0
 10
-24.387252807617188
 20
-10.0
 10
-24.393577575683594
 20
-10.0
 10
-24.399274826049805
 20
-10.0
 10
-24.404346466064453
 20
-10.0
 10
-24.408788681030273
 20
-10.0
 10
-24.41259765625
 20
-10.0
 10
-24.415775299072266
 20
-10.0
 10
-24.418319702148438
 20
-10.0
 10
-24.420228958129883
 20
-10.0
 10
-24.42150115966797
 20
-10.0
 10
-24.422138214111328
 20
-10.0
 10
-37.372215270996094
 20
-10.0
 10
-139.5722198486328
 20
-112.19999694824219
 10
-139.5722198486328
 20
-134.3500213623047
 10
-139.5722198486328
 20
-134.3501739501953
 10
-139.5722198486328
 20
-134.3504638671875
 10
-139.5722198486328
 20
-134.3509063720703
 10
-139.5722198486328
 20
-134.3515167236328
 10
-139.5722198486328
 20
-134.3522491455078
 10
-139.5722198486328
 20
-134.3531494140625
 10
-139.5722198486328
 20
-134.35418701171875
 10
-139.5722198486328
 20
-134.3553924560547
 10
-139.5722198486328
 20
-134.3567352294922
 10
-139.5722198486328
 20
-134.35821533203125
 10
-139.5722198486328
 20
-134.35984802246094
 10
-139.5722198486328
 20
-134.3616485595703
 10
-139.5722198486328
 20
-134.3635711669922
 10
-139.5722198486328
 20
-134.36566162109375
 10
-139.5722198486328
 20
-134.36788940429688
 10
-139.5722198486328
 20
-134.37026977539062
 10
-139.5722198486328
 20
-134.37278747558594
 10
-139.5722198486328
 20
-134.37545776367188
 10
-139.5722198486328
 20
-134.37828063964844
 10
-139.5722198486328
 20
-134.38124084472656
 10
-139.5722198486328
 20
-134.3843536376953
 10
-139.5722198486328
 20
-134.38760375976562
 10
-139.5722198486328
 20
-134.39100646972656
 10
-139.5722198486328
 20
-134.39456176757812
 10
-139.5722198486328
 20
-134.39825439453125
 10
-139.5722198486328
 20
-134.40208435058594
 10
-139.5722198486328
 20
-134.40606689453125
 10
-139.5722198486328
 20
-134.41018676757812
 10
-139.5722198486328
 20
-134.41445922851562
 10
-139.5722198486328
 20
-134.4188690185547
 10
-139.5722198486328
 20
-134.4234161376953
 10
-139.5722198486328
 20
-134.42811584472656
 10
-139.5722198486328
 20
-134.4329376220703
 10
-139.5722198486328
 20
-134.43792724609375
 10
-139.5722198486328
 20
-134.4430389404297
 10
-139.5722198486328
 20
-134.4482879638672
 10
-139.5722198486328
 20
-134.4536895751953
 10
-139.5722198486328
 20
-134.459228515625
 10
-139.5722198486328
 20
-134.46490478515625
 10
-139.5722198486328
 20
-134.470703125
 10
-139.5722198486328
 20
-134.47665405273438
 10
-139.5722198486328
 20
-134.4827423095703
 10
-139.5722198486328
 20
-134.4889678955078
 10
-139.5722198486328
 20
-134.4953155517578
 10
-139.5722198486328
 20
-134.50181579589844
 10
-139.5722198486328
 20
-134.50843811035156
 10
-139.5722198486328
 20
-134.51519775390625
 10
-139.5722198486328
 20
-134.52207946777344
 10
-139.5722198486328
 20
-134.52911376953125
 10
-139.5722198486328
 20
-134.5362548828125
 10
-139.5722198486328
 20
-134.54354858398438
 10
-139.5722198486328
 20
-134.55096435546875
 10
-139.5722198486328
 20
-134.55850219726562
 10
-139.5722198486328
 20
-134.56617736816406
 10
-139.5722198486328
 20
-134.573974609375
 10
-139.5722198486328
 20
-134.5819091796875
 10
-139.5722198486328
 20
-134.5899658203125
 10
-139.5722198486328
 20
-134.59814453125
 10
-139.5722198486328
 20
-134.6064453125
 10
-139.5722198486328
 20
-134.6148681640625
 10
-139.5722198486328
 20
-134.62342834472656
 10
-139.5722198486328
 20
-134.63209533691406
 10
-139.5722198486328
 20
-134.64088439941406
 10
-139.5722198486328
 20
-134.64979553222656
 10
-139.5722198486328
 20
-134.65882873535156
 10
-139.5722198486328
 20
-134.66798400878906
 10
-139.5722198486328
 20
-134.67724609375
 10
-139.5722198486328
 20
-134.6866455078125
 10
-139.5722198486328
 20
-134.69613647460938
 10
-139.5722198486328
 20
-134.70574951171875
 10
-139.5722198486328
 20
-134.71548461914062
 10
-139.5722198486328
 20
-134.72532653808594
 10
-139.5722198486328
 20
-134.7352752685547
 10
-139.5722198486328
 20
-134.74534606933594
 10
-139.5722198486328
 20
-134.75552368164062
 10
-139.5722198486328
 20
-134.76580810546875
 10
-139.5722198486328
 20
-134.7761993408203
 10
-139.5722198486328
 20
-134.7866973876953
 10
-139.5722198486328
 20
-134.79730224609375
 10
-139.5722198486328
 20
-134.80801391601562
 10
-139.5722198486328
 20
-134.81883239746094
 10
-139.5722198486328
 20
-134.82974243164062
 10
-139.5722198486328
 20
-134.84075927734375
 10
-139.5722198486328
 20
-134.85186767578125
 10
-139.5722198486328
 20
-134.86309814453125
 10
-139.5722198486328
 20
-134.87440490722656
 10
-139.5722198486328
 20
-134.8858184814453
 10
-139.5722198486328
 20
-134.89732360839844
 10
-139.5722198486328
 20
-134.908935546875
 10
-139.5722198486328
 20
-134.92062377929688
 10
-139.5722198486328
 20
-134.9324188232422
 10
-139.5722198486328
 20
-134.9442901611328
 10
-139.5722198486328
 20
-134.95626831054688
 10
-139.5722198486328
 20
-134.96832275390625
 10
-139.5722198486328
 20
-134.98046875
 10
-139.5722198486328
 20
-134.99270629882812
 10
-139.5722198486328
 20
-135.00502014160156
 10
-139.5722198486328
 20
-135.01742553710938
 10
-139.5722198486328
 20
-135.0299072265625
 10
-139.5722198486328
 20
-135.04248046875
 10
-139.5722198486328
 20
-135.05511474609375
 10
-139.5722198486328
 20
-135.06784057617188
 10
-139.5722198486328
 20
-135.08065795898438
 10
-139.5722198486328
 20
-135.09353637695312
 10
-139.5722198486328
 20
-135.1064910888672
 10
-139.5722198486328
 20
-135.11952209472656
 10
-139.5722198486328
 20
-135.1326141357422
 10
-139.5722198486328
 20
-135.1457977294922
 10
-139.5722198486328
 20
-135.15904235839844
 10
-139.5722198486328
 20
-135.17234802246094
 10
-139.5722198486328
 20
-135.18572998046875
 10
-139.5722198486328
 20
-135.1991729736328
 10
-139.5722198486328
 20
-135.2126922607422
 10
-139.5722198486328
 20
-135.22625732421875
 10
-139.5722198486328
 20
-135.23989868164062
 10
-139.5722198486328
 20
-135.2535858154297
 10
-139.5722198486328
 20
-135.26734924316406
 10
-139.5722198486328
 20
-135.28115844726562
 10
-139.5722198486328
 20
-135.29502868652344
 10
-139.5722198486328
 20
-135.3089599609375
 10
-139.5722198486328
 20
-135.32293701171875
 10
-139.5722198486328
 20
-135.33697509765625
 10
-139.5722198486328
 20
-135.35105895996094
 10
-139.5722198486328
 20
-135.3651885986328
 10
-139.5722198486328
 20
-135.37936401367188
 10
-139.5722198486328
 20
-135.3936004638672
 10
-139.5722198486328
 20
-135.40786743164062
 10
-139.5722198486328
 20
-135.42218017578125
 10
-139.5722198486328
 20
-135.43653869628906
 10
-139.5722198486328
 20
-135.45094299316406
 10
-139.5722198486328
 20
-135.4653778076172
 10
-139.5722198486328
 20
-135.4798583984375
 10
-139.5722198486328
 20
-135.494384765625
 10
-139.5722198486328
 20
-135.50892639160156
 10
-139.5722198486328
 20
-135.5235137939453
 10
-139.5722198486328
 20
-135.5381317138672
 10
-139.5722198486328
 20
-135.5527801513672
 10
-139.5722198486328
 20
-135.5674591064453
 10
-139.5722198486328
 20
-135.58216857910156
 10
-139.5722198486328
 20
-135.59689331054688
 10
-139.5722198486328
 20
-135.6116485595703
 10
-139.5722198486328
 20
-135.62643432617188
 10
-139.5722198486328
 20
-135.6412353515625
 10
-139.5722198486328
 20
-135.65606689453125
 10
-139.5722198486328
 20
-135.67091369628906
 10
-139.5722198486328
 20
-135.68577575683594
 10
-139.5722198486328
 20
-135.70065307617188
 10
-139.5722198486328
 20
-135.71554565429688
 10
-139.5722198486328
 20
-135.73045349121094
 10
-139.5722198486328
 20
-135.745361328125
 10
-139.5722198486328
 20
-135.7602996826172
 10
-139.5722198486328
 20
-135.77523803710938
 10
-139.5722198486328
 20
-135.79017639160156
 10
-139.5722198486328
 20
-135.8051300048828
 10
-139.5722198486328
 20
-135.82008361816406
 10
-139.5722198486328
 20
-135.8350372314453
 10
-139.5722198486328
 20
-135.85000610351562
 10
-139.5722198486328
 20
-135.86495971679688
 10
-139.5722198486328
 20
-135.87991333007812
 10
-139.5722198486328
 20
-135.89486694335938
 10
-139.5722198486328
 20
-135.90982055664062
 10
-139.5722198486328
 20
-135.92477416992188
 10
-139.5722198486328
 20
-135.93971252441406
 10
-139.5722198486328
 20
-135.9546356201172
 10
-139.5722198486328
 20
-135.9695587158203
 10
-139.5722198486328
 20
-135.97625732421875
 10
-139.5722198486328
 20
-135.98446655273438
 10
-139.5722198486328
 20
-135.99935913085938
 10
-139.5722198486328
 20
-136.0142364501953
 10
-139.5722198486328
 20
-136.0290985107422
 10
-139.5722198486328
 20
-136.04393005371094
 10
-139.5722198486328
 20
-136.0587615966797
 10
-139.5722198486328
 20
-136.0735626220703
 10
-139.5722198486328
 20
-136.08834838867188
 10
-139.5722198486328
 20
-136.10244750976562
 10
-139.5722198486328
 20
-136.1031036376953
 10
-139.5722198486328
 20
-136.11782836914062
 10
-139.5722198486328
 20
-136.13253784179688
 10
-139.5722198486328
 20
-136.147216796875
 10
-139.5722198486328
 20
-136.161865234375
 10
-139.5722198486328
 20
-136.17648315429688
 10
-139.5722198486328
 20
-136.19107055664062
 10
-139.5722198486328
 20
-136.20562744140625
 10
-139.5722198486328
 20
-136.2201385498047
 10
-139.5722198486328
 20
-136.2285614013672
 10
-139.5722198486328
 20
-136.234619140625
 10
-139.5722198486328
 20
-136.24905395507812
 10
-139.5722198486328
 20
-136.26345825195312
 10
-139.5722198486328
 20
-136.27781677246094
 10
-139.5722198486328
 20
-136.29212951660156
 10
-139.5722198486328
 20
-136.30641174316406
 10
-139.5722198486328
 20
-136.3206329345703
 10
-139.5722198486328
 20
-136.33480834960938
 10
-139.5722198486328
 20
-136.3489532470703
 10
-139.5722198486328
 20
-136.35450744628906
 10
-139.5722198486328
 20
-136.363037109375
 10
-139.5722198486328
 20
-136.37705993652344
 10
-139.5722198486328
 20
-136.3910369873047
 10
-139.5722198486328
 20
-136.40496826171875
 10
-139.5722198486328
 20
-136.41883850097656
 10
-139.5722198486328
 20
-136.43264770507812
 10
-139.5722198486328
 20
-136.4464111328125
 10
-139.5722198486328
 20
-136.46009826660156
 10
-139.5722198486328
 20
-136.47373962402344
 10
-139.5722198486328
 20
-136.48025512695312
 10
-139.5722198486328
 20
-136.48731994628906
 10
-139.5722198486328
 20
-136.50082397460938
 10
-139.5722198486328
 20
-136.51426696777344
 10
-139.5722198486328
 20
-136.52764892578125
 10
-139.5722198486328
 20
-136.5409698486328
 10
-139.5722198486328
 20
-136.55421447753906
 10
-139.5722198486328
 20
-136.5673828125
 10
-139.5722198486328
 20
-136.5804901123047
 10
-139.5722198486328
 20
-136.593505859375
 10
-139.5722198486328
 20
-136.6057586669922
 10
-139.5722198486328
 20
-136.60647583007812
 10
-139.5722198486328
 20
-136.61935424804688
 10
-139.5722198486328
 20
-136.6321563720703
 10
-139.5722198486328
 20
-136.64488220214844
 10
-139.5722198486328
 20
-136.65753173828125
 10
-139.5722198486328
 20
-136.6700897216797
 10
-139.5722198486328
 20
-136.6825714111328
 10
-139.5722198486328
 20
-136.69497680664062
 10
-139.5722198486328
 20
-136.70730590820312
 10
-139.5722198486328
 20
-136.7195281982422
 10
-139.5722198486328
 20
-136.73097229003906
 10
-139.5722198486328
 20
-136.73167419433594
 10
-139.5722198486328
 20
-136.74374389648438
 10
-139.5722198486328
 20
-136.75570678710938
 10
-139.5722198486328
 20
-136.76759338378906
 10
-139.5722198486328
 20
-136.7793731689453
 10
-139.5722198486328
 20
-136.79107666015625
 10
-139.5722198486328
 20
-136.80267333984375
 10
-139.5722198486328
 20
-136.81417846679688
 10
-139.5722198486328
 20
-136.82559204101562
 10
-139.5722198486328
 20
-136.8369140625
 10
-139.5722198486328
 20
-136.84812927246094
 10
-139.5722198486328
 20
-136.8558349609375
 10
-139.5722198486328
 20
-136.85923767089844
 10
-139.5722198486328
 20
-136.87025451660156
 10
-139.5722198486328
 20
-136.8811798095703
 10
-139.5722198486328
 20
-136.89198303222656
 10
-139.5722198486328
 20
-136.90269470214844
 10
-139.5722198486328
 20
-136.91329956054688
 10
-139.5722198486328
 20
-136.92379760742188
 10
-139.5722198486328
 20
-136.93418884277344
 10
-139.5722198486328
 20
-136.94447326660156
 10
-139.5722198486328
 20
-136.95465087890625
 10
-139.5722198486328
 20
-136.9647216796875
 10
-139.5722198486328
 20
-136.97467041015625
 10
-139.5722198486328
 20
-136.98028564453125
 10
-139.5722198486328
 20
-136.98451232910156
 10
-139.5722198486328
 20
-136.99424743652344
 10
-139.5722198486328
 20
-137.0038604736328
 10
-139.5722198486328
 20
-137.01336669921875
 10
-139.5722198486328
 20
-137.0227508544922
 10
-139.5722198486328
 20
-137.03201293945312
 10
-139.5722198486328
 20
-137.04116821289062
 10
-139.5722198486328
 20
-137.05020141601562
 10
-139.5722198486328
 20
-137.05911254882812
 10
-139.5722198486328
 20
-137.06790161132812
 10
-139.5722198486328
 20
-137.0765838623047
 10
-139.5722198486328
 20
-137.0851287841797
 10
-139.5722198486328
 20
-137.0935516357422
 10
-139.5722198486328
 20
-137.1018524169922
 10
-139.5722198486328
 20
-137.1042938232422
 10
-139.5722198486328
 20
-137.11004638671875
 10
-139.5722198486328
 20
-137.1180877685547
 10
-139.5722198486328
 20
-137.1260223388672
 10
-139.5722198486328
 20
-137.13381958007812
 10
-139.5722198486328
 20
-137.14149475097656
 10
-139.5722198486328
 20
-137.14903259277344
 10
-139.5722198486328
 20
-137.1564483642578
 10
-139.5722198486328
 20
-137.1637420654297
 10
-139.5722198486328
 20
-137.1708984375
 10
-139.5722198486328
 20
-137.17791748046875
 10
-139.5722198486328
 20
-137.184814453125
 10
-139.5722198486328
 20
-137.19155883789062
 10
-139.5722198486328
 20
-137.1981964111328
 10
-139.5722198486328
 20
-137.20468139648438
 10
-139.5722198486328
 20
-137.21104431152344
 10
-139.5722198486328
 20
-137.21725463867188
 10
-139.5722198486328
 20
-137.2233428955078
 10
-139.5722198486328
 20
-137.22781372070312
 10
-139.5722198486328
 20
-137.2292938232422
 10
-139.5722198486328
 20
-137.235107421875
 10
-139.5722198486328
 20
-137.2407684326172
 10
-139.5722198486328
 20
-137.24630737304688
 10
-139.5722198486328
 20
-137.251708984375
 10
-139.5722198486328
 20
-137.2569580078125
 10
-139.5722198486328
 20
-137.2620849609375
 10
-139.5722198486328
 20
-137.26705932617188
 10
-139.5722198486328
 20
-137.2718963623047
 10
-139.5722198486328
 20
-137.27658081054688
 10
-139.5722198486328
 20
-137.28114318847656
 10
-139.5722198486328
 20
-137.28555297851562
 10
-139.5722198486328
 20
-137.28981018066406
 10
-139.5722198486328
 20
-137.29393005371094
 10
-139.5722198486328
 20
-137.29791259765625
 10
-139.5722198486328
 20
-137.3017578125
 10
-139.5722198486328
 20
-137.30545043945312
 10
-139.5722198486328
 20
-137.30899047851562
 10
-139.5722198486328
 20
-137.31239318847656
 10
-139.5722198486328
 20
-137.31564331054688
 10
-139.5722198486328
 20
-137.31875610351562
 10
-139.5722198486328
 20
-137.32171630859375
 10
-139.5722198486328
 20
-137.3245391845703
 10
-139.5722198486328
 20
-137.32720947265625
 10
-139.5722198486328
 20
-137.32974243164062
 10
-139.5722198486328
 20
-137.3321075439453
 10
-139.5722198486328
 20
-137.33433532714844
 10
-139.5722198486328
 20
-137.33642578125
 10
-139.5722198486328
 20
-137.33836364746094
 10
-139.5722198486328
 20
-137.34014892578125
 10
-139.5722198486328
 20
-137.34178161621094
 10
-139.5722198486328
 20
-137.34327697753906
 10
-139.5722198486328
 20
-137.34461975097656
 10
-139.5722198486328
 20
-137.34580993652344
 10
-139.5722198486328
 20
-137.3468475341797
 10
-139.5722198486328
 20
-137.34774780273438
 10
-139.5722198486328
 20
-137.34849548339844
 10
-139.5722198486328
 20
-137.34909057617188
 10
-139.5722198486328
 20
-137.3495330810547
 10
-139.5722198486328
 20
-137.34983825683594
 10
-139.5722198486328
 20
-137.3499755859375
 10
-139.5722198486328
 20
-137.3507843017578
 10
-139.5722198486328
 20
-137.47315979003906
 10
-139.5722198486328
 20
-137.59490966796875
 10
-139.5722198486328
 20
-137.7159423828125
 10
-139.5722198486328
 20
-137.8362579345703
 10
-139.5722198486328
 20
-137.95578002929688
 10
-139.5722198486328
 20
-138.07447814941406
 10
-139.5722198486328
 20
-138.19229125976562
 10
-139.5722198486328
 20
-138.30917358398438
 10
-139.5722198486328
 20
-138.42507934570312
 10
-139.5722198486328
 20
-138.53997802734375
 10
-139.5722198486328
 20
-138.65380859375
 10
-139.5722198486328
 20
-138.76654052734375
 10
-139.5722198486328
 20
-138.87811279296875
 10
-139.5722198486328
 20
-138.9884796142578
 10
-139.5722198486328
 20
-139.0976104736328
 10
-139.5722198486328
 20
-139.20545959472656
 10
-139.5722198486328
 20
-139.31198120117188
 10
-139.5722198486328
 20
-139.41714477539062
 10
-139.5722198486328
 20
-139.52088928222656
 10
-139.5722198486328
 20
-139.6231689453125
 10
-139.5722198486328
 20
-139.72398376464844
 10
-139.5722198486328
 20
-139.8232421875
 10
-139.5722198486328
 20
-139.9209442138672
 10
-139.5722198486328
 20
-140.01702880859375
 10
-139.5722198486328
 20
-140.11148071289062
 10
-139.5722198486328
 20
-140.20423889160156
 10
-139.5722198486328
 20
-140.29527282714844
 10
-139.5722198486328
 20
-140.38455200195312
 10
-139.5722198486328
 20
-140.47203063964844
 10
-139.5722198486328
 20
-140.5576934814453
 10
-139.5722198486328
 20
-140.6414794921875
 10
-139.5722198486328
 20
-140.723388671875
 10
-139.5722198486328
 20
-140.80335998535156
 10
-139.5722198486328
 20
-140.88137817382812
 10
-139.5722198486328
 20
-140.95741271972656
 10
-139.5722198486328
 20
-141.0314178466797
 10
-139.5722198486328
 20
-141.10337829589844
 10
-139.5722198486328
 20
-141.1732635498047
 10
-139.5722198486328
 20
-141.2410430908203
 10
-139.5722198486328
 20
-141.3066864013672
 10
-139.5722198486328
 20
-141.37017822265625
 10
-139.5722198486328
 20
-141.43148803710938
 10
-139.5722198486328
 20
-141.4906005859375
 10
-139.5722198486328
 20
-141.54747009277344
 10
-139.5722198486328
 20
-141.60208129882812
 10
-139.5722198486328
 20
-141.65443420410156
 10
-139.5722198486328
 20
-141.70448303222656
 10
-139.5722198486328
 20
-141.75221252441406
 10
-139.5722198486328
 20
-141.79762268066406
 10
-139.5722198486328
 20
-141.84066772460938
 10
-139.5722198486328
 20
-141.88136291503906
 10
-139.5722198486328
 20
-141.91966247558594
 10
-139.5722198486328
 20
-141.95555114746094
 10
-139.5722198486328
 20
-141.98904418945312
 10
-139.5722198486328
 20
-142.0200958251953
 10
-139.5722198486328
 20
-142.04872131347656
 10
-139.5722198486328
 20
-142.07489013671875
 10
-139.5722198486328
 20
-142.09860229492188
 10
-139.5722198486328
 20
-142.1198272705078
 10
-139.5722198486328
 20
-142.1385955810547
 10
-139.5722198486328
 20
-142.1548614501953
 10
-139.5722198486328
 20
-142.16864013671875
 10
-139.5722198486328
 20
-142.179931640625
 10
-139.5722198486328
 20
-142.18870544433594
 10
-139.5722198486328
 20
-142.19497680664062
 10
-139.5722198486328
 20
-142.19874572753906
 10
-139.5722198486328
 20
-142.1999969482422
 10
-142.74722290039062
 20
-142.1999969482422
 10
-142.74722290039062
 20
-142.19874572753906
 10
-142.74722290039062
 20
-142.19497680664062
 10
-142.74722290039062
 20
-142.18870544433594
 10
-142.74722290039062
 20
-142.179931640625
 10
-142.74722290039062
 20
-142.16864013671875
 10
-142.74722290039062
 20
-142.1548614501953
 10
-142.74722290039062
 20
-142.1385955810547
  0
TEXT
  5
32
330
17
100
AcDbEntity
  8
NOTE_NONCUT
100
AcDbText
 10
-142.74722290039062
 20
1.1750001907348633
 30
0.0
 40
3.0
  1
FORMED VIEW - NOT A FLAT BLANK. mm. See hardware instructions.
100
AcDbText
  0
ENDSEC
  0
SECTION
  2
OBJECTS
  0
DICTIONARY
  5
A
330
0
100
AcDbDictionary
281
1
  3
ACAD_COLOR
350
B
  3
ACAD_GROUP
350
C
  3
ACAD_LAYOUT
350
D
  3
ACAD_MATERIAL
350
E
  3
ACAD_MLEADERSTYLE
350
F
  3
ACAD_MLINESTYLE
350
10
  3
ACAD_PLOTSETTINGS
350
11
  3
ACAD_PLOTSTYLENAME
350
12
  3
ACAD_SCALELIST
350
14
  3
ACAD_TABLESTYLE
350
15
  3
ACAD_VISUALSTYLE
350
16
  3
EZDXF_META
350
2D
  0
DICTIONARY
  5
B
330
A
100
AcDbDictionary
281
1
  0
DICTIONARY
  5
C
330
A
100
AcDbDictionary
281
1
  0
DICTIONARY
  5
D
330
A
100
AcDbDictionary
281
1
  3
Model
350
1A
  3
Layout1
350
1E
  0
DICTIONARY
  5
E
330
A
100
AcDbDictionary
281
1
  3
ByBlock
350
1F
  3
ByLayer
350
20
  3
Global
350
21
  0
DICTIONARY
  5
F
330
A
100
AcDbDictionary
281
1
  3
Standard
350
2C
  0
DICTIONARY
  5
10
330
A
100
AcDbDictionary
281
1
  3
Standard
350
22
  0
DICTIONARY
  5
11
330
A
100
AcDbDictionary
281
1
  0
ACDBDICTIONARYWDFLT
  5
12
330
A
100
AcDbDictionary
281
1
  3
Normal
350
13
100
AcDbDictionaryWithDefault
340
13
  0
ACDBPLACEHOLDER
  5
13
330
12
  0
DICTIONARY
  5
14
330
A
100
AcDbDictionary
281
1
  0
DICTIONARY
  5
15
330
A
100
AcDbDictionary
281
1
  0
DICTIONARY
  5
16
330
A
100
AcDbDictionary
281
1
  0
LAYOUT
  5
1A
330
D
100
AcDbPlotSettings
  1

  4
A3
  6

 40
7.5
 41
20.0
 42
7.5
 43
20.0
 44
420.0
 45
297.0
 46
0.0
 47
0.0
 48
0.0
 49
0.0
140
0.0
141
0.0
142
1.0
143
1.0
 70
1024
 72
1
 73
0
 74
5
  7

 75
16
 76
0
 77
2
 78
300
147
1.0
148
0.0
149
0.0
100
AcDbLayout
  1
Model
 70
1
 71
0
 10
0.0
 20
0.0
 11
420.0
 21
297.0
 12
0.0
 22
0.0
 32
0.0
 14
1e+20
 24
1e+20
 34
1e+20
 15
-1e+20
 25
-1e+20
 35
-1e+20
146
0.0
 13
0.0
 23
0.0
 33
0.0
 16
1.0
 26
0.0
 36
0.0
 17
0.0
 27
1.0
 37
0.0
 76
1
330
17
  0
LAYOUT
  5
1E
330
D
100
AcDbPlotSettings
  1

  4
A3
  6

 40
7.5
 41
20.0
 42
7.5
 43
20.0
 44
420.0
 45
297.0
 46
0.0
 47
0.0
 48
0.0
 49
0.0
140
0.0
141
0.0
142
1.0
143
1.0
 70
0
 72
1
 73
0
 74
5
  7

 75
16
 76
0
 77
2
 78
300
147
1.0
148
0.0
149
0.0
100
AcDbLayout
  1
Layout1
 70
1
 71
1
 10
0.0
 20
0.0
 11
420.0
 21
297.0
 12
0.0
 22
0.0
 32
0.0
 14
1e+20
 24
1e+20
 34
1e+20
 15
-1e+20
 25
-1e+20
 35
-1e+20
146
0.0
 13
0.0
 23
0.0
 33
0.0
 16
1.0
 26
0.0
 36
0.0
 17
0.0
 27
1.0
 37
0.0
 76
1
330
1B
  0
MATERIAL
  5
1F
102
{ACAD_REACTORS
330
E
102
}
330
E
100
AcDbMaterial
  1
ByBlock
  2

 70
0
 40
1.0
 71
1
 41
1.0
 91
-1023410177
 42
1.0
 72
1
  3

 73
1
 74
1
 75
1
 44
0.5
 73
0
 45
1.0
 46
1.0
 77
1
  4

 78
1
 79
1
170
1
 48
1.0
171
1
  6

172
1
173
1
174
1
140
1.0
141
1.0
175
1
  7

176
1
177
1
178
1
143
1.0
179
1
  8

270
1
271
1
272
1
145
1.0
146
1.0
273
1
  9

274
1
275
1
276
1
 42
1.0
 72
1
  3

 73
1
 74
1
 75
1
 94
63
  0
MATERIAL
  5
20
102
{ACAD_REACTORS
330
E
102
}
330
E
100
AcDbMaterial
  1
ByLayer
  2

 70
0
 40
1.0
 71
1
 41
1.0
 91
-1023410177
 42
1.0
 72
1
  3

 73
1
 74
1
 75
1
 44
0.5
 73
0
 45
1.0
 46
1.0
 77
1
  4

 78
1
 79
1
170
1
 48
1.0
171
1
  6

172
1
173
1
174
1
140
1.0
141
1.0
175
1
  7

176
1
177
1
178
1
143
1.0
179
1
  8

270
1
271
1
272
1
145
1.0
146
1.0
273
1
  9

274
1
275
1
276
1
 42
1.0
 72
1
  3

 73
1
 74
1
 75
1
 94
63
  0
MATERIAL
  5
21
102
{ACAD_REACTORS
330
E
102
}
330
E
100
AcDbMaterial
  1
Global
  2

 70
0
 40
1.0
 71
1
 41
1.0
 91
-1023410177
 42
1.0
 72
1
  3

 73
1
 74
1
 75
1
 44
0.5
 73
0
 45
1.0
 46
1.0
 77
1
  4

 78
1
 79
1
170
1
 48
1.0
171
1
  6

172
1
173
1
174
1
140
1.0
141
1.0
175
1
  7

176
1
177
1
178
1
143
1.0
179
1
  8

270
1
271
1
272
1
145
1.0
146
1.0
273
1
  9

274
1
275
1
276
1
 42
1.0
 72
1
  3

 73
1
 74
1
 75
1
 94
63
  0
MLINESTYLE
  5
22
102
{ACAD_REACTORS
330
10
102
}
330
10
100
AcDbMlineStyle
  2
Standard
 70
0
  3

 62
256
 51
90.0
 52
90.0
 71
2
 49
0.5
 62
256
  6
BYLAYER
 49
-0.5
 62
256
  6
BYLAYER
  0
MLEADERSTYLE
  5
2C
102
{ACAD_REACTORS
330
F
102
}
330
F
100
AcDbMLeaderStyle
179
2
170
2
171
1
172
0
 90
2
 40
0.0
 41
0.0
173
1
 91
-1056964608
 92
-2
290
1
 42
2.0
291
1
 43
8.0
  3
Standard
 44
4.0
300

342
29
174
1
175
1
176
0
178
1
 93
-1056964608
 45
4.0
292
0
297
0
 46
4.0
 94
-1056964608
 47
1.0
 49
1.0
140
1.0
294
1
141
0.0
177
0
142
1.0
295
0
296
0
143
3.75
271
0
272
9
273
9
  0
DICTIONARY
  5
2D
330
A
100
AcDbDictionary
280
1
281
1
  3
CREATED_BY_EZDXF
350
2E
  3
WRITTEN_BY_EZDXF
350
35
  0
DICTIONARYVAR
  5
2E
330
2D
100
DictionaryVariables
280
0
  1
1.4.4 @ 2026-09-19T11:44:54.480056+00:00
  0
DICTIONARYVAR
  5
35
330
2D
100
DictionaryVariables
280
0
  1
1.4.4 @ 2026-09-19T11:44:54.498076+00:00
  0
ENDSEC
  0
EOF
