  0
SECTION
  2
HEADER
  9
$ACADVER
  1
AC1024
  9
$ACADMAINTVER
 70
6
  9
$DWGCODEPAGE
  3
ANSI_1252
  9
$LASTSAVEDBY
  1
ezdxf
  9
$INSBASE
 10
0.0
 20
0.0
 30
0.0
  9
$EXTMIN
 10
1e+20
 20
1e+20
 30
1e+20
  9
$EXTMAX
 10
-1e+20
 20
-1e+20
 30
-1e+20
  9
$LIMMIN
 10
0.0
 20
0.0
  9
$LIMMAX
 10
420.0
 20
297.0
  9
$ORTHOMODE
 70
0
  9
$REGENMODE
 70
1
  9
$FILLMODE
 70
1
  9
$QTEXTMODE
 70
0
  9
$MIRRTEXT
 70
1
  9
$LTSCALE
 40
1.0
  9
$ATTMODE
 70
1
  9
$TEXTSIZE
 40
2.5
  9
$TRACEWID
 40
1.0
  9
$TEXTSTYLE
  7
Standard
  9
$CLAYER
  8
0
  9
$CELTYPE
  6
ByLayer
  9
$CECOLOR
 62
256
  9
$CELTSCALE
 40
1.0
  9
$DISPSILH
 70
0
  9
$DIMSCALE
 40
1.0
  9
$DIMASZ
 40
2.5
  9
$DIMEXO
 40
0.625
  9
$DIMDLI
 40
3.75
  9
$DIMRND
 40
0.0
  9
$DIMDLE
 40
0.0
  9
$DIMEXE
 40
1.25
  9
$DIMTP
 40
0.0
  9
$DIMTM
 40
0.0
  9
$DIMTXT
 40
2.5
  9
$DIMCEN
 40
2.5
  9
$DIMTSZ
 40
0.0
  9
$DIMTOL
 70
0
  9
$DIMLIM
 70
0
  9
$DIMTIH
 70
0
  9
$DIMTOH
 70
0
  9
$DIMSE1
 70
0
  9
$DIMSE2
 70
0
  9
$DIMTAD
 70
1
  9
$DIMZIN
 70
8
  9
$DIMBLK
  1

  9
$DIMASO
 70
1
  9
$DIMSHO
 70
1
  9
$DIMPOST
  1

  9
$DIMAPOST
  1

  9
$DIMALT
 70
0
  9
$DIMALTD
 70
3
  9
$DIMALTF
 40
0.03937007874
  9
$DIMLFAC
 40
1.0
  9
$DIMTOFL
 70
1
  9
$DIMTVP
 40
0.0
  9
$DIMTIX
 70
0
  9
$DIMSOXD
 70
0
  9
$DIMSAH
 70
0
  9
$DIMBLK1
  1

  9
$DIMBLK2
  1

  9
$DIMSTYLE
  2
ISO-25
  9
$DIMCLRD
 70
0
  9
$DIMCLRE
 70
0
  9
$DIMCLRT
 70
0
  9
$DIMTFAC
 40
1.0
  9
$DIMGAP
 40
0.625
  9
$DIMJUST
 70
0
  9
$DIMSD1
 70
0
  9
$DIMSD2
 70
0
  9
$DIMTOLJ
 70
0
  9
$DIMTZIN
 70
8
  9
$DIMALTZ
 70
0
  9
$DIMALTTZ
 70
0
  9
$DIMUPT
 70
0
  9
$DIMDEC
 70
2
  9
$DIMTDEC
 70
2
  9
$DIMALTU
 70
2
  9
$DIMALTTD
 70
3
  9
$DIMTXSTY
  7
Standard
  9
$DIMAUNIT
 70
0
  9
$DIMADEC
 70
0
  9
$DIMALTRND
 40
0.0
  9
$DIMAZIN
 70
0
  9
$DIMDSEP
 70
44
  9
$DIMATFIT
 70
3
  9
$DIMFRAC
 70
0
  9
$DIMLDRBLK
  1

  9
$DIMLUNIT
 70
2
  9
$DIMLWD
 70
-2
  9
$DIMLWE
 70
-2
  9
$DIMTMOVE
 70
0
  9
$DIMFXL
 40
1.0
  9
$DIMFXLON
 70
0
  9
$DIMJOGANG
 40
0.785398163397
  9
$DIMTFILL
 70
0
  9
$DIMTFILLCLR
 70
0
  9
$DIMARCSYM
 70
0
  9
$DIMLTYPE
  6

  9
$DIMLTEX1
  6

  9
$DIMLTEX2
  6

  9
$DIMTXTDIRECTION
 70
0
  9
$LUNITS
 70
2
  9
$LUPREC
 70
4
  9
$SKETCHINC
 40
1.0
  9
$FILLETRAD
 40
10.0
  9
$AUNITS
 70
0
  9
$AUPREC
 70
2
  9
$MENU
  1
.
  9
$ELEVATION
 40
0.0
  9
$PELEVATION
 40
0.0
  9
$THICKNESS
 40
0.0
  9
$LIMCHECK
 70
0
  9
$CHAMFERA
 40
0.0
  9
$CHAMFERB
 40
0.0
  9
$CHAMFERC
 40
0.0
  9
$CHAMFERD
 40
0.0
  9
$SKPOLY
 70
0
  9
$TDCREATE
 40
2461303.7188425926
  9
$TDUCREATE
 40
2458532.153996898
  9
$TDUPDATE
 40
2461303.7188425926
  9
$TDUUPDATE
 40
2458532.1544311
  9
$TDINDWG
 40
0.0
  9
$TDUSRTIMER
 40
0.0
  9
$USRTIMER
 70
1
  9
$ANGBASE
 50
0.0
  9
$ANGDIR
 70
0
  9
$PDMODE
 70
0
  9
$PDSIZE
 40
0.0
  9
$PLINEWID
 40
0.0
  9
$SPLFRAME
 70
0
  9
$SPLINETYPE
 70
6
  9
$SPLINESEGS
 70
8
  9
$HANDSEED
  5
3C
  9
$SURFTAB1
 70
6
  9
$SURFTAB2
 70
6
  9
$SURFTYPE
 70
6
  9
$SURFU
 70
6
  9
$SURFV
 70
6
  9
$UCSBASE
  2

  9
$UCSNAME
  2

  9
$UCSORG
 10
0.0
 20
0.0
 30
0.0
  9
$UCSXDIR
 10
1.0
 20
0.0
 30
0.0
  9
$UCSYDIR
 10
0.0
 20
1.0
 30
0.0
  9
$UCSORTHOREF
  2

  9
$UCSORTHOVIEW
 70
0
  9
$UCSORGTOP
 10
0.0
 20
0.0
 30
0.0
  9
$UCSORGBOTTOM
 10
0.0
 20
0.0
 30
0.0
  9
$UCSORGLEFT
 10
0.0
 20
0.0
 30
0.0
  9
$UCSORGRIGHT
 10
0.0
 20
0.0
 30
0.0
  9
$UCSORGFRONT
 10
0.0
 20
0.0
 30
0.0
  9
$UCSORGBACK
 10
0.0
 20
0.0
 30
0.0
  9
$PUCSBASE
  2

  9
$PUCSNAME
  2

  9
$PUCSORG
 10
0.0
 20
0.0
 30
0.0
  9
$PUCSXDIR
 10
1.0
 20
0.0
 30
0.0
  9
$PUCSYDIR
 10
0.0
 20
1.0
 30
0.0
  9
$PUCSORTHOREF
  2

  9
$PUCSORTHOVIEW
 70
0
  9
$PUCSORGTOP
 10
0.0
 20
0.0
 30
0.0
  9
$PUCSORGBOTTOM
 10
0.0
 20
0.0
 30
0.0
  9
$PUCSORGLEFT
 10
0.0
 20
0.0
 30
0.0
  9
$PUCSORGRIGHT
 10
0.0
 20
0.0
 30
0.0
  9
$PUCSORGFRONT
 10
0.0
 20
0.0
 30
0.0
  9
$PUCSORGBACK
 10
0.0
 20
0.0
 30
0.0
  9
$USERI1
 70
0
  9
$USERI2
 70
0
  9
$USERI3
 70
0
  9
$USERI4
 70
0
  9
$USERI5
 70
0
  9
$USERR1
 40
0.0
  9
$USERR2
 40
0.0
  9
$USERR3
 40
0.0
  9
$USERR4
 40
0.0
  9
$USERR5
 40
0.0
  9
$WORLDVIEW
 70
1
  9
$SHADEDGE
 70
3
  9
$SHADEDIF
 70
70
  9
$TILEMODE
 70
1
  9
$MAXACTVP
 70
64
  9
$PINSBASE
 10
0.0
 20
0.0
 30
0.0
  9
$PLIMCHECK
 70
0
  9
$PEXTMIN
 10
1e+20
 20
1e+20
 30
1e+20
  9
$PEXTMAX
 10
-1e+20
 20
-1e+20
 30
-1e+20
  9
$PLIMMIN
 10
0.0
 20
0.0
  9
$PLIMMAX
 10
420.0
 20
297.0
  9
$UNITMODE
 70
0
  9
$VISRETAIN
 70
1
  9
$PLINEGEN
 70
0
  9
$PSLTSCALE
 70
1
  9
$TREEDEPTH
 70
3020
  9
$CMLSTYLE
  2
Standard
  9
$CMLJUST
 70
0
  9
$CMLSCALE
 40
20.0
  9
$PROXYGRAPHICS
 70
1
  9
$MEASUREMENT
 70
1
  9
$CELWEIGHT
370
-1
  9
$ENDCAPS
280
0
  9
$JOINSTYLE
280
0
  9
$LWDISPLAY
290
0
  9
$INSUNITS
 70
4
  9
$HYPERLINKBASE
  1

  9
$STYLESHEET
  1

  9
$XEDIT
290
1
  9
$CEPSNTYPE
380
0
  9
$PSTYLEMODE
290
1
  9
$FINGERPRINTGUID
  2
{49B75FDC-CA2C-4021-8C81-CC2A0E3AF027}
  9
$VERSIONGUID
  2
{4A3F6540-8392-4F9C-A18B-BF9B4B679302}
  9
$EXTNAMES
290
1
  9
$PSVPSCALE
 40
0.0
  9
$OLESTARTUP
290
0
  9
$SORTENTS
280
127
  9
$INDEXCTL
280
0
  9
$HIDETEXT
280
1
  9
$XCLIPFRAME
280
1
  9
$HALOGAP
280
0
  9
$OBSCOLOR
 70
257
  9
$OBSLTYPE
280
0
  9
$INTERSECTIONDISPLAY
280
0
  9
$INTERSECTIONCOLOR
 70
257
  9
$DIMASSOC
280
2
  9
$PROJECTNAME
  1

  9
$CAMERADISPLAY
290
0
  9
$LENSLENGTH
 40
50.0
  9
$CAMERAHEIGHT
 40
0.0
  9
$STEPSPERSEC
 40
24.0
  9
$STEPSIZE
 40
100.0
  9
$3DDWFPREC
 40
2.0
  9
$PSOLWIDTH
 40
0.005
  9
$PSOLHEIGHT
 40
0.08
  9
$LOFTANG1
 40
1.570796326795
  9
$LOFTANG2
 40
1.570796326795
  9
$LOFTMAG1
 40
0.0
  9
$LOFTMAG2
 40
0.0
  9
$LOFTPARAM
 70
7
  9
$LOFTNORMALS
280
1
  9
$LATITUDE
 40
37.795
  9
$LONGITUDE
 40
-122.394
  9
$NORTHDIRECTION
 40
0.0
  9
$TIMEZONE
 70
-8000
  9
$LIGHTGLYPHDISPLAY
280
1
  9
$TILEMODELIGHTSYNCH
280
1
  9
$CMATERIAL
347
20
  9
$SOLIDHIST
280
0
  9
$SHOWHIST
280
1
  9
$DWFFRAME
280
2
  9
$DGNFRAME
280
2
  9
$REALWORLDSCALE
290
1
  9
$INTERFERECOLOR
 62
256
  9
$CSHADOW
280
0
  9
$SHADOWPLANELOCATION
 40
0.0
  0
ENDSEC
  0
SECTION
  2
CLASSES
  0
CLASS
  1
ACDBDICTIONARYWDFLT
  2
AcDbDictionaryWithDefault
  3
ObjectDBX Classes
 90
0
 91
0
280
0
281
0
  0
CLASS
  1
SUN
  2
AcDbSun
  3
SCENEOE
 90
1153
 91
0
280
0
281
0
  0
CLASS
  1
VISUALSTYLE
  2
AcDbVisualStyle
  3
ObjectDBX Classes
 90
4095
 91
0
280
0
281
0
  0
CLASS
  1
MATERIAL
  2
AcDbMaterial
  3
ObjectDBX Classes
 90
1153
 91
0
280
0
281
0
  0
CLASS
  1
SCALE
  2
AcDbScale
  3
ObjectDBX Classes
 90
1153
 91
0
280
0
281
0
  0
CLASS
  1
TABLESTYLE
  2
AcDbTableStyle
  3
ObjectDBX Classes
 90
4095
 91
0
280
0
281
0
  0
CLASS
  1
MLEADERSTYLE
  2
AcDbMLeaderStyle
  3
ACDB_MLEADERSTYLE_CLASS
 90
4095
 91
0
280
0
281
0
  0
CLASS
  1
DICTIONARYVAR
  2
AcDbDictionaryVar
  3
ObjectDBX Classes
 90
0
 91
0
280
0
281
0
  0
CLASS
  1
CELLSTYLEMAP
  2
AcDbCellStyleMap
  3
ObjectDBX Classes
 90
1152
 91
0
280
0
281
0
  0
CLASS
  1
MENTALRAYRENDERSETTINGS
  2
AcDbMentalRayRenderSettings
  3
SCENEOE
 90
1024
 91
0
280
0
281
0
  0
CLASS
  1
ACDBDETAILVIEWSTYLE
  2
AcDbDetailViewStyle
  3
ObjectDBX Classes
 90
1025
 91
0
280
0
281
0
  0
CLASS
  1
ACDBSECTIONVIEWSTYLE
  2
AcDbSectionViewStyle
  3
ObjectDBX Classes
 90
1025
 91
0
280
0
281
0
  0
CLASS
  1
RASTERVARIABLES
  2
AcDbRasterVariables
  3
ISM
 90
0
 91
0
280
0
281
0
  0
CLASS
  1
LAYOUT
  2
AcDbLayout
  3
ObjectDBX Classes
 90
0
 91
0
280
0
281
0
  0
CLASS
  1
ACDBPLACEHOLDER
  2
AcDbPlaceHolder
  3
ObjectDBX Classes
 90
0
 91
0
280
0
281
0
  0
ENDSEC
  0
SECTION
  2
TABLES
  0
TABLE
  2
VPORT
  5
8
330
0
100
AcDbSymbolTable
 70
1
  0
VPORT
  5
23
330
8
100
AcDbSymbolTableRecord
100
AcDbViewportTableRecord
  2
*Active
 70
0
 10
0.0
 20
0.0
 11
1.0
 21
1.0
 12
0.0
 22
0.0
 13
0.0
 23
0.0
 14
0.5
 24
0.5
 15
0.5
 25
0.5
 16
0.0
 26
0.0
 36
1.0
 17
0.0
 27
0.0
 37
0.0
 40
1000.0
 41
1.34
 42
50.0
 43
0.0
 44
0.0
 50
0.0
 51
0.0
 71
0
 72
1000
 73
1
 74
3
 75
0
 76
0
 77
0
 78
0
281
0
 65
0
146
0.0
  0
ENDTAB
  0
TABLE
  2
LTYPE
  5
2
330
0
100
AcDbSymbolTable
 70
3
  0
LTYPE
  5
24
330
2
100
AcDbSymbolTableRecord
100
AcDbLinetypeTableRecord
  2
ByBlock
 70
0
  3

 72
65
 73
0
 40
0.0
  0
LTYPE
  5
25
330
2
100
AcDbSymbolTableRecord
100
AcDbLinetypeTableRecord
  2
ByLayer
 70
0
  3

 72
65
 73
0
 40
0.0
  0
LTYPE
  5
26
330
2
100
AcDbSymbolTableRecord
100
AcDbLinetypeTableRecord
  2
Continuous
 70
0
  3

 72
65
 73
0
 40
0.0
  0
ENDTAB
  0
TABLE
  2
LAYER
  5
1
330
0
100
AcDbSymbolTable
 70
4
  0
LAYER
  5
27
330
1
100
AcDbSymbolTableRecord
100
AcDbLayerTableRecord
  2
0
 70
0
 62
7
  6
Continuous
370
-3
390
13
347
21
  0
LAYER
  5
28
330
1
100
AcDbSymbolTableRecord
100
AcDbLayerTableRecord
  2
Defpoints
 70
0
 62
7
  6
Continuous
290
0
370
-3
390
13
347
21
  0
LAYER
  5
2F
330
1
100
AcDbSymbolTableRecord
100
AcDbLayerTableRecord
  2
FORMED_OUTLINE_REFERENCE
 70
0
 62
7
  6
Continuous
370
-3
390
13
347
21
  0
LAYER
  5
30
330
1
100
AcDbSymbolTableRecord
100
AcDbLayerTableRecord
  2
NOTE_NONCUT
 70
0
 62
3
  6
Continuous
370
-3
390
13
347
21
  0
ENDTAB
  0
TABLE
  2
STYLE
  5
5
330
0
100
AcDbSymbolTable
 70
1
  0
STYLE
  5
29
330
5
100
AcDbSymbolTableRecord
100
AcDbTextStyleTableRecord
  2
Standard
 70
0
 40
0.0
 41
1.0
 50
0.0
 71
0
 42
2.5
  3
txt
  4

  0
ENDTAB
  0
TABLE
  2
VIEW
  5
7
330
0
100
AcDbSymbolTable
 70
0
  0
ENDTAB
  0
TABLE
  2
UCS
  5
6
330
0
100
AcDbSymbolTable
 70
0
  0
ENDTAB
  0
TABLE
  2
APPID
  5
3
330
0
100
AcDbSymbolTable
 70
3
  0
APPID
  5
2A
330
3
100
AcDbSymbolTableRecord
100
AcDbRegAppTableRecord
  2
ACAD
 70
0
  0
APPID
  5
39
330
3
100
AcDbSymbolTableRecord
100
AcDbRegAppTableRecord
  2
HATCHBACKGROUNDCOLOR
 70
0
  0
APPID
  5
3A
330
3
100
AcDbSymbolTableRecord
100
AcDbRegAppTableRecord
  2
EZDXF
 70
0
  0
ENDTAB
  0
TABLE
  2
DIMSTYLE
  5
4
330
0
100
AcDbSymbolTable
 70
1
100
AcDbDimStyleTable
  0
DIMSTYLE
105
2B
330
4
100
AcDbSymbolTableRecord
100
AcDbDimStyleTableRecord
  2
Standard
 70
0
 40
1.0
 41
2.5
 42
0.625
 43
3.75
 44
1.25
 45
0.0
 46
0.0
 47
0.0
 48
0.0
 49
2.5
140
2.5
141
2.5
142
0.0
143
0.03937007874
144
1.0
145
0.0
146
1.0
147
0.625
148
0.0
 69
0
 70
0
 71
0
 72
0
 73
0
 74
0
 75
0
 76
0
 77
1
 78
8
 79
3
170
0
171
3
172
1
173
0
174
0
175
0
176
0
177
0
178
0
179
2
271
2
272
2
273
2
274
3
275
0
276
0
277
2
278
44
279
0
280
0
281
0
282
0
283
0
284
8
285
0
286
0
288
0
289
3
290
0
371
-2
372
-2
  0
ENDTAB
  0
TABLE
  2
BLOCK_RECORD
  5
9
330
0
100
AcDbSymbolTable
 70
2
  0
BLOCK_RECORD
  5
17
330
9
100
AcDbSymbolTableRecord
100
AcDbBlockTableRecord
  2
*Model_Space
340
1A
 70
0
280
1
281
0
  0
BLOCK_RECORD
  5
1B
330
9
100
AcDbSymbolTableRecord
100
AcDbBlockTableRecord
  2
*Paper_Space
340
1E
 70
0
280
1
281
0
  0
ENDTAB
  0
ENDSEC
  0
SECTION
  2
BLOCKS
  0
BLOCK
  5
18
330
17
100
AcDbEntity
  8
0
100
AcDbBlockBegin
  2
*Model_Space
 70
0
 10
0.0
 20
0.0
 30
0.0
  3
*Model_Space
  1

  0
ENDBLK
  5
19
330
17
100
AcDbEntity
  8
0
100
AcDbBlockEnd
  0
BLOCK
  5
1C
330
1B
100
AcDbEntity
  8
0
100
AcDbBlockBegin
  2
*Paper_Space
 70
0
 10
0.0
 20
0.0
 30
0.0
  3
*Paper_Space
  1

  0
ENDBLK
  5
1D
330
1B
100
AcDbEntity
  8
0
100
AcDbBlockEnd
  0
ENDSEC
  0
SECTION
  2
ENTITIES
  0
LWPOLYLINE
  5
31
330
17
100
AcDbEntity
  8
FORMED_OUTLINE_REFERENCE
100
AcDbPolyline
 90
834
 70
1
 10
-9.744702339172363
 20
-121.11014556884766
 10
-9.748457908630371
 20
-120.98736572265625
 10
-9.749547004699707
 20
-120.91868591308594
 10
-9.749909400939941
 20
-120.8499984741211
 10
-9.749909400939941
 20
-55.95000076293945
 10
-9.74929428100586
 20
-55.88345718383789
 10
-9.74744987487793
 20
-55.81693649291992
 10
-9.744375228881836
 20
-55.75046157836914
 10
-9.740073204040527
 20
-55.68405532836914
 10
-9.734543800354004
 20
-55.61773681640625
 10
-9.727788925170898
 20
-55.551536560058594
 10
-9.719812393188477
 20
-55.485469818115234
 10
-9.710616111755371
 20
-55.419559478759766
 10
-9.700202941894531
 20
-55.35383605957031
 10
-9.688575744628906
 20
-55.28831100463867
 10
-9.675740242004395
 20
-55.22301483154297
 10
-9.661700248718262
 20
-55.15796661376953
 10
-9.646459579467773
 20
-55.09318923950195
 10
-9.630023956298828
 20
-55.02870559692383
 10
-9.61240005493164
 20
-54.964534759521484
 10
-9.593592643737793
 20
-54.900699615478516
 10
-9.573607444763184
 20
-54.83722686767578
 10
-9.552453994750977
 20
-54.774131774902344
 10
-9.530137062072754
 20
-54.71144104003906
 10
-9.506665229797363
 20
-54.649169921875
 10
-9.482046127319336
 20
-54.587345123291016
 10
-9.45628833770752
 20
-54.52598571777344
 10
-9.429401397705078
 20
-54.46511459350586
 10
-9.401392936706543
 20
-54.404747009277344
 10
-9.372274398803711
 20
-54.34490966796875
 10
-9.34205436706543
 20
-54.285621643066406
 10
-9.31074333190918
 20
-54.22690200805664
 10
-9.278352737426758
 20
-54.16876983642578
 10
-9.244892120361328
 20
-54.11124801635742
 10
-9.21037483215332
 20
-54.05435562133789
 10
-9.174811363220215
 20
-53.99810791015625
 10
-9.138215065002441
 20
-53.942527770996094
 10
-9.10059642791748
 20
-53.88763427734375
 10
-9.061970710754395
 20
-53.83344650268555
 10
-9.02234935760498
 20
-53.77997970581055
 10
-8.981746673583984
 20
-53.727256774902344
 10
-8.940176010131836
 20
-53.67529296875
 10
-8.897651672363281
 20
-53.62410354614258
 10
-8.854188919067383
 20
-53.57371139526367
 10
-8.809802055358887
 20
-53.524131774902344
 10
-8.764506340026855
 20
-53.475379943847656
 10
-8.718317031860352
 20
-53.42747497558594
 10
-8.671250343322754
 20
-53.38043212890625
 10
-8.623321533203125
 20
-53.334266662597656
 10
-8.574548721313477
 20
-53.28899383544922
 10
-8.524946212768555
 20
-53.244632720947266
 10
-8.474533081054688
 20
-53.201194763183594
 10
-8.423324584960938
 20
-53.158695220947266
 10
-8.371339797973633
 20
-53.117149353027344
 10
-8.318595886230469
 20
-53.07657241821289
 10
-8.265110969543457
 20
-53.0369758605957
 10
-8.21090316772461
 20
-52.99837875366211
 10
-8.155991554260254
 20
-52.960784912109375
 10
-8.100394248962402
 20
-52.924217224121094
 10
-8.044130325317383
 20
-52.88867950439453
 10
-7.987219333648682
 20
-52.854190826416016
 10
-7.929680347442627
 20
-52.82075881958008
 10
-7.871533393859863
 20
-52.78839874267578
 10
-7.812798023223877
 20
-52.75711441040039
 10
-7.753494739532471
 20
-52.726924896240234
 10
-7.693643093109131
 20
-52.69783401489258
 10
-7.633264064788818
 20
-52.669857025146484
 10
-7.572378635406494
 20
-52.64299774169922
 10
-7.5110063552856445
 20
-52.617271423339844
 10
-7.449169635772705
 20
-52.592681884765625
 10
-7.3868889808654785
 20
-52.56924057006836
 10
-7.324185371398926
 20
-52.54695510864258
 10
-7.261080265045166
 20
-52.52583312988281
 10
-7.197596073150635
 20
-52.50587844848633
 10
-7.133753776550293
 20
-52.48710250854492
 10
-7.06957483291626
 20
-52.46950912475586
 10
-7.005082130432129
 20
-52.45310592651367
 10
-6.9402971267700195
 20
-52.437896728515625
 10
-6.875242233276367
 20
-52.42388916015625
 10
-6.809938907623291
 20
-52.41108322143555
 10
-6.744410514831543
 20
-52.39949035644531
 10
-6.6786789894104
 20
-52.38911056518555
 10
-6.612766742706299
 20
-52.37994384765625
 10
-6.546696662902832
 20
-52.37200164794922
 10
-6.480490684509277
 20
-52.36528015136719
 10
-6.4141716957092285
 20
-52.35978317260742
 10
-6.347762584686279
 20
-52.35551071166992
 10
-6.281285762786865
 20
-52.35247039794922
 10
-6.215646266937256
 20
-52.35067367553711
 10
-6.149984359741211
 20
-52.350074768066406
 10
-2.0999844074249268
 20
-52.350074768066406
 10
-2.088803291320801
 20
-52.349971771240234
 10
-2.0776259899139404
 20
-52.34965896606445
 10
-2.0664565563201904
 20
-52.34913635253906
 10
-2.0552985668182373
 20
-52.34840774536133
 10
-2.044156312942505
 20
-52.34747314453125
 10
-2.0330333709716797
 20
-52.34632873535156
 10
-2.0219337940216064
 20
-52.34497833251953
 10
-2.0108611583709717
 20
-52.34341812133789
 10
-1.9998193979263306
 20
-52.34165573120117
 10
-1.9888125658035278
 20
-52.33968734741211
 10
-1.97784423828125
 20
-52.3375129699707
 10
-1.9669183492660522
 20
-52.33513641357422
 10
-1.9560387134552002
 20
-52.33255386352539
 10
-1.94520902633667
 20
-52.329769134521484
 10
-1.934433102607727
 20
-52.326786041259766
 10
-1.9237146377563477
 20
-52.32360076904297
 10
-1.9130574464797974
 20
-52.32021713256836
 10
-1.9024649858474731
 20
-52.31663513183594
 10
-1.8919413089752197
 20
-52.3128547668457
 10
-1.8814897537231445
 20
-52.30888366699219
 10
-1.8711140155792236
 20
-52.30471420288086
 10
-1.8608179092407227
 20
-52.30035400390625
 10
-1.8506046533584595
 20
-52.29580307006836
 10
-1.8404780626296997
 20
-52.29106140136719
 10
-1.8304415941238403
 20
-52.286128997802734
 10
-1.8204987049102783
 20
-52.28101348876953
 10
-1.8106529712677002
 20
-52.27571487426758
 10
-1.8009074926376343
 20
-52.270233154296875
 10
-1.7912659645080566
 20
-52.26456832885742
 10
-1.7817317247390747
 20
-52.25872802734375
 10
-1.7723078727722168
 20
-52.252708435058594
 10
-1.7629977464675903
 20
-52.246517181396484
 10
-1.7538046836853027
 20
-52.240150451660156
 10
-1.7447317838668823
 20
-52.23361587524414
 10
-1.7357823848724365
 20
-52.22691345214844
 10
-1.726959228515625
 20
-52.22004318237305
 10
-1.7182657718658447
 20
-52.2130126953125
 10
-1.7097047567367554
 20
-52.20581817626953
 10
-1.7012792825698853
 20
-52.19846725463867
 10
-1.6929922103881836
 20
-52.19095993041992
 10
-1.6848465204238892
 20
-52.18330001831055
 10
-1.676844835281372
 20
-52.17549133300781
 10
-1.6689902544021606
 20
-52.16753387451172
 10
-1.661285161972046
 20
-52.159427642822266
 10
-1.6537325382232666
 20
-52.15118408203125
 10
-1.6463347673416138
 20
-52.142799377441406
 10
-1.6390944719314575
 20
-52.13427734375
 10
-1.632014274597168
 20
-52.12562561035156
 10
-1.6250965595245361
 20
-52.11684036254883
 10
-1.618343710899353
 20
-52.10792541503906
 10
-1.6117581129074097
 20
-52.09889221191406
 10
-1.6053420305252075
 20
-52.0897331237793
 10
-1.599097728729248
 20
-52.0804557800293
 10
-1.5930272340774536
 20
-52.071067810058594
 10
-1.5871328115463257
 20
-52.06156539916992
 10
-1.5814164876937866
 20
-52.05195617675781
 10
-1.5758802890777588
 20
-52.042240142822266
 10
-1.5705260038375854
 20
-52.03242492675781
 10
-1.5653555393218994
 20
-52.02251052856445
 10
-1.560370683670044
 20
-52.01250076293945
 10
-1.5555732250213623
 20
-52.00239944458008
 10
-1.5509647130966187
 20
-51.99221420288086
 10
-1.5465469360351562
 20
-51.98194122314453
 10
-1.5423213243484497
 20
-51.971588134765625
 10
-1.5382893085479736
 20
-51.961158752441406
 10
-1.5344523191452026
 20
-51.95065689086914
 10
-1.5308116674423218
 20
-51.94008255004883
 10
-1.5273686647415161
 20
-51.929447174072266
 10
-1.5241245031356812
 20
-51.91874313354492
 10
-1.5210802555084229
 20
-51.90798568725586
 10
-1.5182369947433472
 20
-51.89717102050781
 10
-1.51559579372406
 20
-51.88630676269531
 10
-1.5131573677062988
 20
-51.87539291381836
 10
-1.510922908782959
 20
-51.864437103271484
 10
-1.5088927745819092
 20
-51.85344314575195
 10
-1.5070680379867554
 20
-51.842411041259766
 10
-1.5054490566253662
 20
-51.83134841918945
 10
-1.504036545753479
 20
-51.820255279541016
 10
-1.502830982208252
 20
-51.809139251708984
 10
-1.5018327236175537
 20
-51.79800033569336
 10
-1.501042127609253
 20
-51.78684616088867
 10
-1.5004595518112183
 20
-51.77568054199219
 10
-1.5000851154327393
 20
-51.76450729370117
 10
-1.4999536275863647
 20
-51.75725173950195
 10
-1.49990975856781
 20
-51.75
 10
-1.4999843835830688
 20
-24.0
 10
-1.5
 20
-24.0
 10
-1.4999253749847412
 20
1.0
 10
-1.49932861328125
 20
1.0
 10
-1.4981353282928467
 20
1.0
 10
-1.496346116065979
 20
1.0
 10
-1.4939614534378052
 20
1.0
 10
-1.4909824132919312
 20
1.0
 10
-1.4874101877212524
 20
1.0
 10
-1.4832462072372437
 20
1.0
 10
-1.4784921407699585
 20
1.0
 10
-1.4731497764587402
 20
1.0
 10
-1.4672213792800903
 20
1.0
 10
-1.4607092142105103
 20
1.0
 10
-1.4536159038543701
 20
1.0
 10
-1.4459443092346191
 20
1.0
 10
-1.437697410583496
 20
1.0
 10
-1.4288784265518188
 20
1.0
 10
-1.4194910526275635
 20
1.0
 10
-1.409538984298706
 20
1.0
 10
-1.3990260362625122
 20
1.0
 10
-1.3879565000534058
 20
1.0
 10
-1.3763346672058105
 20
1.0
 10
-1.3641654253005981
 20
1.0
 10
-1.3514533042907715
 20
1.0
 10
-1.3382035493850708
 20
1.0
 10
-1.3244214057922363
 20
1.0
 10
-1.3101123571395874
 20
1.0
 10
-1.295282006263733
 20
1.0
 10
-1.2799363136291504
 20
1.0
 10
-1.2640814781188965
 20
1.0
 10
-1.2477235794067383
 20
1.0
 10
-1.2308694124221802
 20
1.0
 10
-1.2135255336761475
 20
1.0
 10
-1.1956987380981445
 20
1.0
 10
-1.177396297454834
 20
1.0
 10
-1.1586254835128784
 20
1.0
 10
-1.1393935680389404
 20
1.0
 10
-1.1197084188461304
 20
1.0
 10
-1.099577784538269
 20
1.0
 10
-1.0790096521377563
 20
1.0
 10
-1.0580122470855713
 20
1.0
 10
-1.0365939140319824
 20
1.0
 10
-1.0147632360458374
 20
1.0
 10
-0.9925287365913391
 20
1.0
 10
-0.9698994159698486
 20
1.0
 10
-0.9468841552734375
 20
1.0
 10
-0.9234921932220459
 20
1.0
 10
-0.8997328281402588
 20
1.0
 10
-0.8756155371665955
 20
1.0
 10
-0.8511497974395752
 20
1.0
 10
-0.8263454437255859
 20
1.0
 10
-0.8012123703956604
 20
1.0
 10
-0.7757605314254761
 20
1.0
 10
-0.75
 20
1.0
 10
-0.7239410877227783
 20
1.0
 10
-0.697594165802002
 20
1.0
 10
-0.6709697246551514
 20
1.0
 10
-0.6440783143043518
 20
1.0
 10
-0.6169306635856628
 20
1.0
 10
-0.5895375609397888
 20
1.0
 10
-0.5619099140167236
 20
1.0
 10
-0.534058690071106
 20
1.0
 10
-0.505994975566864
 20
1.0
 10
-0.4777299761772156
 20
1.0
 10
-0.4492748975753784
 20
1.0
 10
-0.42064109444618225
 20
1.0
 10
-0.3918399214744568
 20
1.0
 10
-0.3628828525543213
 20
1.0
 10
-0.3337813913822174
 20
1.0
 10
-0.30454716086387634
 20
1.0
 10
-0.2751917541027069
 20
1.0
 10
-0.24572686851024628
 20
1.0
 10
-0.2161642163991928
 20
1.0
 10
-0.18651555478572845
 20
1.0
 10
-0.15679270029067993
 20
1.0
 10
-0.12700745463371277
 20
1.0
 10
-0.09717167913913727
 20
1.0
 10
-0.06729724258184433
 20
1.0
 10
-0.037396036088466644
 20
1.0
 10
-0.0074799517169594765
 20
1.0
 10
0.02243911102414131
 20
1.0
 10
0.05234924331307411
 20
1.0
 10
0.08223855495452881
 20
1.0
 10
0.11209513992071152
 20
1.0
 10
0.14190712571144104
 20
1.0
 10
0.17166265845298767
 20
1.0
 10
0.2013498991727829
 20
1.0
 10
0.23095703125
 20
1.0
 10
0.26047226786613464
 20
1.0
 10
0.28988388180732727
 20
1.0
 10
0.3191801607608795
 20
1.0
 10
0.3483494520187378
 20
1.0
 10
0.3773801326751709
 20
1.0
 10
0.4062606990337372
 20
1.0
 10
0.4349796175956726
 20
1.0
 10
0.4635255038738251
 20
1.0
 10
0.4918869435787201
 20
1.0
 10
0.5200526714324951
 20
1.0
 10
0.5480115413665771
 20
1.0
 10
0.5757523775100708
 20
1.0
 10
0.6032640933990479
 20
1.0
 10
0.6305358409881592
 20
1.0
 10
0.6575567126274109
 20
1.0
 10
0.6843159794807434
 20
1.0
 10
0.7108029723167419
 20
1.0
 10
0.737007200717926
 20
1.0
 10
0.7629181742668152
 20
1.0
 10
0.7885256409645081
 20
1.0
 10
0.813819408416748
 20
1.0
 10
0.8387893438339233
 20
1.0
 10
0.863425612449646
 20
1.0
 10
0.8877183198928833
 20
1.0
 10
0.9116578698158264
 20
1.0
 10
0.9352347254753113
 20
1.0
 10
0.9584394693374634
 20
1.0
 10
0.9812628626823425
 20
1.0
 10
1.0036959648132324
 20
1.0
 10
1.0257296562194824
 20
1.0
 10
1.0473551750183105
 20
1.0
 10
1.0685641765594482
 20
1.0
 10
1.0893479585647583
 20
1.0
 10
1.1096982955932617
 20
1.0
 10
1.1296072006225586
 20
1.0
 10
1.149066686630249
 20
1.0
 10
1.1680690050125122
 20
1.0
 10
1.186606526374817
 20
1.0
 10
1.2046719789505005
 20
1.0
 10
1.22225821018219
 20
1.0
 10
1.2393581867218018
 20
1.0
 10
1.255964994430542
 20
1.0
 10
1.272072196006775
 20
1.0
 10
1.2876732349395752
 20
1.0
 10
1.3027619123458862
 20
1.0
 10
1.31733238697052
 20
1.0
 10
1.331378698348999
 20
1.0
 10
1.344895362854004
 20
1.0
 10
1.3578768968582153
 20
1.0
 10
1.3703181743621826
 20
1.0
 10
1.3822143077850342
 20
1.0
 10
1.393560528755188
 20
1.0
 10
1.4043523073196411
 20
1.0
 10
1.4145853519439697
 20
1.0
 10
1.424255609512329
 20
1.0
 10
1.4333592653274536
 20
1.0
 10
1.4418925046920776
 20
1.0
 10
1.4498522281646729
 20
1.0
 10
1.4572350978851318
 20
1.0
 10
1.4640381336212158
 20
1.0
 10
1.4702587127685547
 20
1.0
 10
1.4758943319320679
 20
1.0
 10
1.4809428453445435
 20
1.0
 10
1.4854021072387695
 20
1.0
 10
1.4892704486846924
 20
1.0
 10
1.4925462007522583
 20
1.0
 10
1.4952281713485718
 20
1.0
 10
1.4973151683807373
 20
1.0
 10
1.4988065958023071
 20
1.0
 10
1.4997016191482544
 20
1.0
 10
1.5
 20
1.0
 10
1.5
 20
-23.850000381469727
 10
1.5000156164169312
 20
-23.850000381469727
 10
1.5000156164169312
 20
-51.75
 10
1.4997526407241821
 20
-51.793514251708984
 10
1.4989635944366455
 20
-51.8370246887207
 10
1.4967173337936401
 20
-51.90406799316406
 10
1.4932222366333008
 20
-51.9710578918457
 10
1.488479495048523
 20
-52.03797149658203
 10
1.4824907779693604
 20
-52.10478210449219
 10
1.475258231163025
 20
-52.17147445678711
 10
1.4667842388153076
 20
-52.23801803588867
 10
1.4570717811584473
 20
-52.30439376831055
 10
1.4461243152618408
 20
-52.370574951171875
 10
1.4339455366134644
 20
-52.43654251098633
 10
1.4205397367477417
 20
-52.50226974487305
 10
1.4059115648269653
 20
-52.5677375793457
 10
1.390066146850586
 20
-52.63291931152344
 10
1.3730088472366333
 20
-52.69779586791992
 10
1.3547457456588745
 20
-52.76234436035156
 10
1.3352830410003662
 20
-52.8265380859375
 10
1.3146275281906128
 20
-52.89036178588867
 10
1.2927864789962769
 20
-52.95378875732422
 10
1.2697674036026
 20
-53.01679611206055
 10
1.2455782890319824
 20
-53.07936477661133
 10
1.2202274799346924
 20
-53.14147186279297
 10
1.1937239170074463
 20
-53.203094482421875
 10
1.16607666015625
 20
-53.26421356201172
 10
1.1372954845428467
 20
-53.324806213378906
 10
1.1073901653289795
 20
-53.38485336303711
 10
1.076371192932129
 20
-53.444332122802734
 10
1.044249415397644
 20
-53.50322341918945
 10
1.0110359191894531
 20
-53.56150436401367
 10
0.9767422080039978
 20
-53.61915969848633
 10
0.9413802027702332
 20
-53.67616271972656
 10
0.9049621820449829
 20
-53.73249816894531
 10
0.8675008416175842
 20
-53.788143157958984
 10
0.8290091156959534
 20
-53.843082427978516
 10
0.78950035572052
 20
-53.89729690551758
 10
0.7489883899688721
 20
-53.95076370239258
 10
0.707487165927887
 20
-54.00346374511719
 10
0.6650111675262451
 20
-54.05538558959961
 10
0.621575117111206
 20
-54.10650634765625
 10
0.5771941542625427
 20
-54.15680694580078
 10
0.5318835377693176
 20
-54.20627212524414
 10
0.4856591522693634
 20
-54.2548828125
 10
0.43853700160980225
 20
-54.30262756347656
 10
0.3905334174633026
 20
-54.349483489990234
 10
0.3416650593280792
 20
-54.39543914794922
 10
0.29194897413253784
 20
-54.44047546386719
 10
0.24140234291553497
 20
-54.48457717895508
 10
0.19004274904727936
 20
-54.52772903442383
 10
0.13788802921772003
 20
-54.569915771484375
 10
0.08495628088712692
 20
-54.61112594604492
 10
0.03126588836312294
 20
-54.65134048461914
 10
-0.023164507001638412
 20
-54.690547943115234
 10
-0.07831601053476334
 20
-54.72873306274414
 10
-0.13416945934295654
 20
-54.76588821411133
 10
-0.19070547819137573
 20
-54.8019905090332
 10
-0.247904434800148
 20
-54.8370361328125
 10
-0.3057464361190796
 20
-54.871009826660156
 10
-0.36421146988868713
 20
-54.903900146484375
 10
-0.42327916622161865
 20
-54.93569564819336
 10
-0.4829290509223938
 20
-54.96638488769531
 10
-0.5431404113769531
 20
-54.99595642089844
 10
-0.6038923263549805
 20
-55.0244026184082
 10
-0.6651636958122253
 20
-55.05170822143555
 10
-0.7269332408905029
 20
-55.07787322998047
 10
-0.7891796231269836
 20
-55.10287857055664
 10
-0.8518810868263245
 20
-55.1267204284668
 10
-0.9150158762931824
 20
-55.149391174316406
 10
-0.9785621762275696
 20
-55.17087936401367
 10
-1.0424978733062744
 20
-55.19118118286133
 10
-1.1068006753921509
 20
-55.21028518676758
 10
-1.1714483499526978
 20
-55.22819137573242
 10
-1.23641836643219
 20
-55.24488830566406
 10
-1.301688313484192
 20
-55.260372161865234
 10
-1.3672354221343994
 20
-55.27463912963867
 10
-1.4330370426177979
 20
-55.287681579589844
 10
-1.4990700483322144
 20
-55.29949188232422
 10
-1.5653117895126343
 20
-55.31007385253906
 10
-1.6317391395568848
 20
-55.319419860839844
 10
-1.6983290910720825
 20
-55.32752227783203
 10
-1.7650585174560547
 20
-55.33438491821289
 10
-1.8319040536880493
 20
-55.340003967285156
 10
-1.8988428115844727
 20
-55.34437561035156
 10
-1.9658511877059937
 20
-55.34749984741211
 10
-2.0329062938690186
 20
-55.3493766784668
 10
-2.0999844074249268
 20
-55.349998474121094
 10
-6.149984359741211
 20
-55.349998474121094
 10
-6.160928249359131
 20
-55.350101470947266
 10
-6.171868324279785
 20
-55.350399017333984
 10
-6.182948112487793
 20
-55.35090637207031
 10
-6.194016456604004
 20
-55.351619720458984
 10
-6.205069541931152
 20
-55.352535247802734
 10
-6.216104507446289
 20
-55.35365295410156
 10
-6.227116107940674
 20
-55.354976654052734
 10
-6.238101959228516
 20
-55.35650634765625
 10
-6.249057292938232
 20
-55.35823440551758
 10
-6.259978771209717
 20
-55.36016845703125
 10
-6.270863056182861
 20
-55.362300872802734
 10
-6.281705856323242
 20
-55.3646354675293
 10
-6.292503356933594
 20
-55.36717224121094
 10
-6.303252696990967
 20
-55.36990737915039
 10
-6.313949108123779
 20
-55.37283706665039
 10
-6.324589729309082
 20
-55.37596893310547
 10
-6.335170745849609
 20
-55.379295349121094
 10
-6.345688343048096
 20
-55.3828125
 10
-6.356139183044434
 20
-55.38652801513672
 10
-6.366519927978516
 20
-55.39043426513672
 10
-6.376826286315918
 20
-55.394535064697266
 10
-6.387054920196533
 20
-55.39882278442383
 10
-6.397202968597412
 20
-55.403297424316406
 10
-6.407266139984131
 20
-55.407962799072266
 10
-6.41724157333374
 20
-55.412811279296875
 10
-6.427125930786133
 20
-55.417842864990234
 10
-6.436915397644043
 20
-55.42305374145508
 10
-6.446606636047363
 20
-55.42844772338867
 10
-6.4561967849731445
 20
-55.43402099609375
 10
-6.465682029724121
 20
-55.43976974487305
 10
-6.475059509277344
 20
-55.44569396972656
 10
-6.484325885772705
 20
-55.451786041259766
 10
-6.493477821350098
 20
-55.45805358886719
 10
-6.5025129318237305
 20
-55.46448516845703
 10
-6.51142692565918
 20
-55.47108459472656
 10
-6.5202178955078125
 20
-55.477848052978516
 10
-6.5288825035095215
 20
-55.484771728515625
 10
-6.537416934967041
 20
-55.49185562133789
 10
-6.5458197593688965
 20
-55.49909591674805
 10
-6.554086685180664
 20
-55.50648880004883
 10
-6.562215805053711
 20
-55.514034271240234
 10
-6.570204257965088
 20
-55.521728515625
 10
-6.5780487060546875
 20
-55.529571533203125
 10
-6.585747241973877
 20
-55.53755569458008
 10
-6.593296527862549
 20
-55.54568099975586
 10
-6.60069465637207
 20
-55.5539436340332
 10
-6.607938289642334
 20
-55.56234359741211
 10
-6.615025997161865
 20
-55.57087326049805
 10
-6.621954441070557
 20
-55.57953643798828
 10
-6.628721714019775
 20
-55.588321685791016
 10
-6.6353254318237305
 20
-55.597232818603516
 10
-6.641763210296631
 20
-55.606266021728516
 10
-6.648033142089844
 20
-55.615413665771484
 10
-6.654132843017578
 20
-55.62467956542969
 10
-6.660059928894043
 20
-55.63405227661133
 10
-6.665812969207764
 20
-55.64353561401367
 10
-6.671390056610107
 20
-55.65312194824219
 10
-6.676788330078125
 20
-55.662811279296875
 10
-6.6820068359375
 20
-55.67259979248047
 10
-6.6870436668396
 20
-55.68247985839844
 10
-6.691896915435791
 20
-55.69245147705078
 10
-6.6965651512146
 20
-55.7025146484375
 10
-6.701046466827393
 20
-55.7126579284668
 10
-6.705339431762695
 20
-55.72288513183594
 10
-6.709442615509033
 20
-55.73318862915039
 10
-6.713354587554932
 20
-55.743568420410156
 10
-6.717074394226074
 20
-55.7540168762207
 10
-6.720600128173828
 20
-55.76453399658203
 10
-6.723930835723877
 20
-55.77511215209961
 10
-6.727065563201904
 20
-55.78575134277344
 10
-6.7300028800964355
 20
-55.79644775390625
 10
-6.7327423095703125
 20
-55.807193756103516
 10
-6.7352824211120605
 20
-55.8179931640625
 10
-6.7376227378845215
 20
-55.828834533691406
 10
-6.739761829376221
 20
-55.839717864990234
 10
-6.741699695587158
 20
-55.85063552856445
 10
-6.743435382843018
 20
-55.86159133911133
 10
-6.744967937469482
 20
-55.87257766723633
 10
-6.746297359466553
 20
-55.88358688354492
 10
-6.74742317199707
 20
-55.894622802734375
 10
-6.748344898223877
 20
-55.90567398071289
 10
-6.7490620613098145
 20
-55.916744232177734
 10
-6.749574184417725
 20
-55.92782211303711
 10
-6.749881744384766
 20
-55.938907623291016
 10
-6.749984264373779
 20
-55.95000076293945
 10
-6.749984264373779
 20
-120.8499984741211
 10
-6.749788761138916
 20
-120.8869857788086
 10
-6.749202728271484
 20
-120.92396545410156
 10
-6.747179985046387
 20
-120.99008178710938
 10
-6.743908405303955
 20
-121.05613708496094
 10
-6.739389419555664
 20
-121.12213134765625
 10
-6.733623504638672
 20
-121.18801879882812
 10
-6.726613998413086
 20
-121.25379180908203
 10
-6.718362808227539
 20
-121.31941986083984
 10
-6.7088727951049805
 20
-121.38487243652344
 10
-6.698147296905518
 20
-121.45014190673828
 10
-6.686190605163574
 20
-121.51519775390625
 10
-6.673006534576416
 20
-121.58000946044922
 10
-6.658600330352783
 20
-121.64456939697266
 10
-6.6429762840271
 20
-121.7088394165039
 10
-6.626140594482422
 20
-121.7728042602539
 10
-6.608099460601807
 20
-121.83644104003906
 10
-6.5888590812683105
 20
-121.89971923828125
 10
-6.568426132202148
 20
-121.96263122558594
 10
-6.546807765960693
 20
-122.02513885498047
 10
-6.524012088775635
 20
-122.08723449707031
 10
-6.500047206878662
 20
-122.14888000488281
 10
-6.474921703338623
 20
-122.21006774902344
 10
-6.448644638061523
 20
-122.27076721191406
 10
-6.421225070953369
 20
-122.3309555053711
 10
-6.392672538757324
 20
-122.39061737060547
 10
-6.362998008728027
 20
-122.4497299194336
 10
-6.332211494445801
 20
-122.5082778930664
 10
-6.300324440002441
 20
-122.56622314453125
 10
-6.267348289489746
 20
-122.6235580444336
 10
-6.2332940101623535
 20
-122.68025970458984
 10
-6.198174476623535
 20
-122.73631286621094
 10
-6.162002086639404
 20
-122.79168701171875
 10
-6.124789714813232
 20
-122.84636688232422
 10
-6.086550235748291
 20
-122.90033721923828
 10
-6.047298431396484
 20
-122.95357513427734
 10
-6.007047176361084
 20
-123.00606536865234
 10
-5.965811252593994
 20
-123.05777740478516
 10
-5.923605442047119
 20
-123.10870361328125
 10
-5.8804450035095215
 20
-123.15882873535156
 10
-5.8363447189331055
 20
-123.20812225341797
 10
-5.791321277618408
 20
-123.25657653808594
 10
-5.745389938354492
 20
-123.30416870117188
 10
-5.6985673904418945
 20
-123.35089111328125
 10
-5.650870323181152
 20
-123.39671325683594
 10
-5.602315902709961
 20
-123.4416275024414
 10
-5.552921295166016
 20
-123.4856185913086
 10
-5.502704620361328
 20
-123.5286636352539
 10
-5.451683044433594
 20
-123.57075500488281
 10
-5.399875164031982
 20
-123.61187744140625
 10
-5.347299575805664
 20
-123.65200805664062
 10
-5.293974876403809
 20
-123.69114685058594
 10
-5.239920139312744
 20
-123.72926330566406
 10
-5.185154914855957
 20
-123.76634979248047
 10
-5.129698276519775
 20
-123.80239868164062
 10
-5.073570728302002
 20
-123.83739471435547
 10
-5.016791820526123
 20
-123.87132263183594
 10
-4.959381580352783
 20
-123.9041748046875
 10
-4.901360988616943
 20
-123.93592834472656
 10
-4.8427510261535645
 20
-123.96658325195312
 10
-4.783571720123291
 20
-123.99612426757812
 10
-4.7238450050354
 20
-124.02454376220703
 10
-4.6635918617248535
 20
-124.05182647705078
 10
-4.6028337478637695
 20
-124.07797241210938
 10
-4.541592597961426
 20
-124.10295867919922
 10
-4.4798903465271
 20
-124.12678527832031
 10
-4.41774845123291
 20
-124.14944458007812
 10
-4.355189800262451
 20
-124.1709213256836
 10
-4.292236328125
 20
-124.19121551513672
 10
-4.228910446166992
 20
-124.21031188964844
 10
-4.1652350425720215
 20
-124.22821044921875
 10
-4.101233005523682
 20
-124.24490356445312
 10
-4.036926746368408
 20
-124.26038360595703
 10
-3.972339630126953
 20
-124.27464294433594
 10
-3.907494306564331
 20
-124.28768157958984
 10
-3.842414379119873
 20
-124.29949951171875
 10
-3.777122735977173
 20
-124.31007385253906
 10
-3.7116429805755615
 20
-124.31941986083984
 10
-3.645998239517212
 20
-124.32752227783203
 10
-3.580212116241455
 20
-124.33438873291016
 10
-3.514308214187622
 20
-124.34000396728516
 10
-3.4483096599578857
 20
-124.34437561035156
 10
-3.3822405338287354
 20
-124.34750366210938
 10
-3.316124200820923
 20
-124.34937286376953
 10
-3.2499845027923584
 20
-124.3499984741211
 10
21.750015258789062
 20
-124.3499984741211
 10
21.750015258789062
 20
-124.35029602050781
 10
21.750015258789062
 20
-124.3511962890625
 10
21.750015258789062
 20
-124.3526840209961
 10
21.750015258789062
 20
-124.35477447509766
 10
21.750015258789062
 20
-124.35745239257812
 10
21.750015258789062
 20
-124.36073303222656
 10
21.750015258789062
 20
-124.3646011352539
 10
21.750015258789062
 20
-124.36905670166016
 10
21.750015258789062
 20
-124.37410736083984
 10
21.750015258789062
 20
-124.3797378540039
 10
21.750015258789062
 20
-124.3859634399414
 10
21.750015258789062
 20
-124.39276123046875
 10
21.750015258789062
 20
-124.400146484375
 10
21.750015258789062
 20
-124.4081039428711
 10
21.750015258789062
 20
-124.41664123535156
 10
21.750015258789062
 20
-124.42574310302734
 10
21.750015258789062
 20
-124.43541717529297
 10
21.750015258789062
 20
-124.44564819335938
 10
21.750015258789062
 20
-124.45643615722656
 10
21.750015258789062
 20
-124.46778869628906
 10
21.750015258789062
 20
-124.47968292236328
 10
21.750015258789062
 20
-124.49212646484375
 10
21.750015258789062
 20
-124.5051040649414
 10
21.750015258789062
 20
-124.51862335205078
 10
21.750015258789062
 20
-124.53266906738281
 10
21.750015258789062
 20
-124.5472412109375
 10
21.750015258789062
 20
-124.56232452392578
 10
21.750015258789062
 20
-124.57792663574219
 10
21.750015258789062
 20
-124.59403228759766
 10
21.750015258789062
 20
-124.61064147949219
 10
21.750015258789062
 20
-124.62773895263672
 10
21.750015258789062
 20
-124.64532470703125
 10
21.750015258789062
 20
-124.66339111328125
 10
21.750015258789062
 20
-124.68193054199219
 10
21.750015258789062
 20
-124.70093536376953
 10
21.750015258789062
 20
-124.72039031982422
 10
21.750015258789062
 20
-124.74030303955078
 10
21.750015258789062
 20
-124.76065063476562
 10
21.750015258789062
 20
-124.78143310546875
 10
21.750015258789062
 20
-124.80264282226562
 10
21.750015258789062
 20
-124.82427215576172
 10
21.750015258789062
 20
-124.84630584716797
 10
21.750015258789062
 20
-124.86873626708984
 10
21.750015258789062
 20
-124.89156341552734
 10
21.750015258789062
 20
-124.91476440429688
 10
21.750015258789062
 20
-124.93833923339844
 10
21.750015258789062
 20
-124.9622802734375
 10
21.750015258789062
 20
-124.986572265625
 10
21.750015258789062
 20
-125.0112075805664
 10
21.750015258789062
 20
-125.03617858886719
 10
21.750015258789062
 20
-125.06147766113281
 10
21.750015258789062
 20
-125.08708190917969
 10
21.750015258789062
 20
-125.11299133300781
 10
21.750015258789062
 20
-125.13919830322266
 10
21.750015258789062
 20
-125.16568756103516
 10
21.750015258789062
 20
-125.19244384765625
 10
21.750015258789062
 20
-125.21946716308594
 10
21.750015258789062
 20
-125.24673461914062
 10
21.750015258789062
 20
-125.27424621582031
 10
21.750015258789062
 20
-125.30198669433594
 10
21.750015258789062
 20
-125.32994842529297
 10
21.750015258789062
 20
-125.35811614990234
 10
21.750015258789062
 20
-125.386474609375
 10
21.750015258789062
 20
-125.41502380371094
 10
21.750015258789062
 20
-125.44374084472656
 10
21.750015258789062
 20
-125.47261810302734
 10
21.750015258789062
 20
-125.50164794921875
 10
21.750015258789062
 20
-125.53082275390625
 10
21.750015258789062
 20
-125.56011962890625
 10
21.750015258789062
 20
-125.58953094482422
 10
21.750015258789062
 20
-125.6190414428711
 10
21.750015258789062
 20
-125.64865112304688
 10
21.750015258789062
 20
-125.67833709716797
 10
21.750015258789062
 20
-125.70809173583984
 10
21.750015258789062
 20
-125.73790740966797
 10
21.750015258789062
 20
-125.76776123046875
 10
21.750015258789062
 20
-125.79765319824219
 10
21.750015258789062
 20
-125.82756042480469
 10
21.750015258789062
 20
-125.85748291015625
 10
21.750015258789062
 20
-125.88739776611328
 10
21.750015258789062
 20
-125.91729736328125
 10
21.750015258789062
 20
-125.94717407226562
 10
21.750015258789062
 20
-125.97700500488281
 10
21.750015258789062
 20
-126.00679016113281
 10
21.750015258789062
 20
-126.03651428222656
 10
21.750015258789062
 20
-126.066162109375
 10
21.750015258789062
 20
-126.0957260131836
 10
21.750015258789062
 20
-126.12519073486328
 10
21.750015258789062
 20
-126.15454864501953
 10
21.750015258789062
 20
-126.18378448486328
 10
21.750015258789062
 20
-126.21288299560547
 10
21.750015258789062
 20
-126.24183654785156
 10
21.750015258789062
 20
-126.27063751220703
 10
21.750015258789062
 20
-126.29927825927734
 10
21.750015258789062
 20
-126.32772827148438
 10
21.750015258789062
 20
-126.35599517822266
 10
21.750015258789062
 20
-126.3840560913086
 10
21.750015258789062
 20
-126.41191101074219
 10
21.750015258789062
 20
-126.43953704833984
 10
21.750015258789062
 20
-126.46693420410156
 10
21.750015258789062
 20
-126.49407958984375
 10
21.750015258789062
 20
-126.5209732055664
 10
21.750015258789062
 20
-126.54759216308594
 10
21.750015258789062
 20
-126.57394409179688
 10
21.750015258789062
 20
-126.5999984741211
 10
21.750015258789062
 20
-126.62576293945312
 10
21.750015258789062
 20
-126.65121459960938
 10
21.750015258789062
 20
-126.67634582519531
 10
21.750015258789062
 20
-126.7011489868164
 10
21.750015258789062
 20
-126.72561645507812
 10
21.750015258789062
 20
-126.7497329711914
 10
21.750015258789062
 20
-126.77349090576172
 10
21.750015258789062
 20
-126.79688262939453
 10
21.750015258789062
 20
-126.81990051269531
 10
21.750015258789062
 20
-126.842529296875
 10
21.750015258789062
 20
-126.86476135253906
 10
21.750015258789062
 20
-126.8865966796875
 10
21.750015258789062
 20
-126.90801239013672
 10
21.750015258789062
 20
-126.92900848388672
 10
21.750015258789062
 20
-126.94957733154297
 10
21.750015258789062
 20
-126.96971130371094
 10
21.750015258789062
 20
-126.98939514160156
 10
21.750015258789062
 20
-127.00862884521484
 10
21.750015258789062
 20
-127.02739715576172
 10
21.750015258789062
 20
-127.04570007324219
 10
21.750015258789062
 20
-127.06352233886719
 10
21.750015258789062
 20
-127.08087158203125
 10
21.750015258789062
 20
-127.09772491455078
 10
21.750015258789062
 20
-127.11408233642578
 10
21.750015258789062
 20
-127.12993621826172
 10
21.750015258789062
 20
-127.14527893066406
 10
21.750015258789062
 20
-127.16011047363281
 10
21.750015258789062
 20
-127.17442321777344
 10
21.750015258789062
 20
-127.18820190429688
 10
21.750015258789062
 20
-127.20145416259766
 10
21.750015258789062
 20
-127.21416473388672
 10
21.750015258789062
 20
-127.22633361816406
 10
21.750015258789062
 20
-127.23795318603516
 10
21.750015258789062
 20
-127.2490234375
 10
21.750015258789062
 20
-127.25953674316406
 10
21.750015258789062
 20
-127.26949310302734
 10
21.750015258789062
 20
-127.27887725830078
 10
21.750015258789062
 20
-127.2876968383789
 10
21.750015258789062
 20
-127.29594421386719
 10
21.750015258789062
 20
-127.30361938476562
 10
21.750015258789062
 20
-127.31070709228516
 10
21.750015258789062
 20
-127.31722259521484
 10
21.750015258789062
 20
-127.32315063476562
 10
21.750015258789062
 20
-127.3284912109375
 10
21.750015258789062
 20
-127.33324432373047
 10
21.750015258789062
 20
-127.33740997314453
 10
21.750015258789062
 20
-127.34098052978516
 10
21.750015258789062
 20
-127.34396362304688
 10
21.750015258789062
 20
-127.34634399414062
 10
21.750015258789062
 20
-127.34813690185547
 10
21.750015258789062
 20
-127.34932708740234
 10
21.750015258789062
 20
-127.34992218017578
 10
-3.2499845027923584
 20
-127.34992218017578
 10
-3.372814655303955
 20
-127.34876251220703
 10
-3.495601177215576
 20
-127.34528350830078
 10
-3.618299722671509
 20
-127.33948516845703
 10
-3.7408668994903564
 20
-127.33135986328125
 10
-3.8632588386535645
 20
-127.32093048095703
 10
-3.985431671142578
 20
-127.30818176269531
 10
-4.107341766357422
 20
-127.29313659667969
 10
-4.228945732116699
 20
-127.2757797241211
 10
-4.350200176239014
 20
-127.25613403320312
 10
-4.471061706542969
 20
-127.23419952392578
 10
-4.591486930847168
 20
-127.2099838256836
 10
-4.711433410644531
 20
-127.1834945678711
 10
-4.830857753753662
 20
-127.15474700927734
 10
-4.9497175216674805
 20
-127.12374877929688
 10
-5.067969799041748
 20
-127.09050750732422
 10
-5.185573577880859
 20
-127.05503845214844
 10
-5.302485466003418
 20
-127.0173568725586
 10
-5.418664932250977
 20
-126.97747039794922
 10
-5.534069538116455
 20
-126.93539428710938
 10
-5.648658275604248
 20
-126.89114379882812
 10
-5.762390613555908
 20
-126.84473419189453
 10
-5.87522554397583
 20
-126.79618835449219
 10
-5.987123012542725
 20
-126.74551391601562
 10
-6.098042964935303
 20
-126.69274139404297
 10
-6.207945346832275
 20
-126.63787841796875
 10
-6.316792011260986
 20
-126.58094787597656
 10
-6.4245429039001465
 20
-126.52196502685547
 10
-6.531160354614258
 20
-126.4609603881836
 10
-6.636605739593506
 20
-126.39795684814453
 10
-6.740841865539551
 20
-126.33296966552734
 10
-6.8438310623168945
 20
-126.26602172851562
 10
-6.945537090301514
 20
-126.1971435546875
 10
-7.045923233032227
 20
-126.12635040283203
 10
-7.14495325088501
 20
-126.05367279052734
 10
-7.242592811584473
 20
-125.97914123535156
 10
-7.33880615234375
 20
-125.90277862548828
 10
-7.433559417724609
 20
-125.8246078491211
 10
-7.52681827545166
 20
-125.74465942382812
 10
-7.618549823760986
 20
-125.66297149658203
 10
-7.70872163772583
 20
-125.57955169677734
 10
-7.797300338745117
 20
-125.49445343017578
 10
-7.884255409240723
 20
-125.4076919555664
 10
-7.969555854797363
 20
-125.31930541992188
 10
-8.053170204162598
 20
-125.22931671142578
 10
-8.135068893432617
 20
-125.13777160644531
 10
-8.21522331237793
 20
-125.04469299316406
 10
-8.293604850769043
 20
-124.95011138916016
 10
-8.370184898376465
 20
-124.85407257080078
 10
-8.44493579864502
 20
-124.75659942626953
 10
-8.51783275604248
 20
-124.65773010253906
 10
-8.588847160339355
 20
-124.55750274658203
 10
-8.657955169677734
 20
-124.45594787597656
 10
-8.72513198852539
 20
-124.35311126708984
 10
-8.790352821350098
 20
-124.2490234375
 10
-8.853595733642578
 20
-124.14371490478516
 10
-8.914836883544922
 20
-124.03723907470703
 10
-8.974055290222168
 20
-123.92961883544922
 10
-9.031229019165039
 20
-123.8208999633789
 10
-9.08633804321289
 20
-123.71112060546875
 10
-9.139363288879395
 20
-123.6003189086914
 10
-9.190284729003906
 20
-123.48853302001953
 10
-9.23908519744873
 20
-123.37580871582031
 10
-9.285746574401855
 20
-123.26217651367188
 10
-9.330251693725586
 20
-123.14768981933594
 10
-9.372586250305176
 20
-123.03237915039062
 10
-9.41273307800293
 20
-122.91629028320312
 10
-9.450679779052734
 20
-122.7994613647461
 10
-9.486412048339844
 20
-122.68193817138672
 10
-9.519917488098145
 20
-122.56375885009766
 10
-9.551182746887207
 20
-122.4449691772461
 10
-9.580198287963867
 20
-122.32560729980469
 10
-9.606952667236328
 20
-122.20572662353516
 10
-9.631436347961426
 20
-122.0853500366211
 10
-9.653641700744629
 20
-121.96453857421875
 10
-9.67356014251709
 20
-121.84333038330078
 10
-9.691184043884277
 20
-121.72176361083984
 10
-9.706507682800293
 20
-121.59989166259766
 10
-9.719525337219238
 20
-121.47774505615234
 10
-9.730233192443848
 20
-121.35537719726562
 10
-9.738626480102539
 20
-121.23282623291016
  0
LWPOLYLINE
  5
32
330
17
100
AcDbEntity
  8
FORMED_OUTLINE_REFERENCE
100
AcDbPolyline
 90
4
 70
1
 10
1.355127872750859
 20
-52.72759748920665
 10
1.3551278727508602
 20
-52.72759748920665
 10
1.355127872750863
 20
-52.72759748920664
 10
1.355127872750861
 20
-52.727597489206644
  0
LWPOLYLINE
  5
33
330
17
100
AcDbEntity
  8
FORMED_OUTLINE_REFERENCE
100
AcDbPolyline
 90
4
 70
1
 10
-5.6610805353319655
 20
-123.66259603126845
 10
-5.661080535331978
 20
-123.66259603126844
 10
-5.661080535331983
 20
-123.66259603126844
 10
-5.661080535331974
 20
-123.66259603126845
  0
LWPOLYLINE
  5
34
330
17
100
AcDbEntity
  8
FORMED_OUTLINE_REFERENCE
100
AcDbPolyline
 90
4
 70
1
 10
-5.818494447782932
 20
-126.82027076655376
 10
-5.818494447782485
 20
-126.82027076655395
 10
-5.818494447782954
 20
-126.82027076655375
 10
-5.818494447783422
 20
-126.82027076655355
  0
LWPOLYLINE
  5
35
330
17
100
AcDbEntity
  8
FORMED_OUTLINE_REFERENCE
100
AcDbPolyline
 90
4
 70
1
 10
-5.502690704601534
 20
-123.6882264577242
 10
-5.502690704601546
 20
-123.6882264577242
 10
-5.502690704601533
 20
-123.68822645772421
 10
-5.502690704601521
 20
-123.68822645772421
  0
LWPOLYLINE
  5
36
330
17
100
AcDbEntity
  8
FORMED_OUTLINE_REFERENCE
100
AcDbPolyline
 90
4
 70
1
 10
-5.5861204769653945
 20
-126.89964414939226
 10
-5.586120476965294
 20
-126.8996441493923
 10
-5.586120476965379
 20
-126.89964414939226
 10
-5.586120476965465
 20
-126.89964414939223
  0
LWPOLYLINE
  5
37
330
17
100
AcDbEntity
  8
FORMED_OUTLINE_REFERENCE
100
AcDbPolyline
 90
4
 70
1
 10
-5.553418936334375
 20
-123.53703168619354
 10
-5.55341893633436
 20
-123.53703168619356
 10
-5.553418936334345
 20
-123.53703168619357
 10
-5.553418936334371
 20
-123.53703168619354
  0
TEXT
  5
38
330
17
100
AcDbEntity
  8
NOTE_NONCUT
100
AcDbText
 10
-9.749909400939941
 20
9.0
 30
0.0
 40
3.0
  1
FORMED VIEW - NOT A FLAT BLANK. mm. See hardware instructions.
100
AcDbText
  0
ENDSEC
  0
SECTION
  2
OBJECTS
  0
DICTIONARY
  5
A
330
0
100
AcDbDictionary
281
1
  3
ACAD_COLOR
350
B
  3
ACAD_GROUP
350
C
  3
ACAD_LAYOUT
350
D
  3
ACAD_MATERIAL
350
E
  3
ACAD_MLEADERSTYLE
350
F
  3
ACAD_MLINESTYLE
350
10
  3
ACAD_PLOTSETTINGS
350
11
  3
ACAD_PLOTSTYLENAME
350
12
  3
ACAD_SCALELIST
350
14
  3
ACAD_TABLESTYLE
350
15
  3
ACAD_VISUALSTYLE
350
16
  3
EZDXF_META
350
2D
  0
DICTIONARY
  5
B
330
A
100
AcDbDictionary
281
1
  0
DICTIONARY
  5
C
330
A
100
AcDbDictionary
281
1
  0
DICTIONARY
  5
D
330
A
100
AcDbDictionary
281
1
  3
Model
350
1A
  3
Layout1
350
1E
  0
DICTIONARY
  5
E
330
A
100
AcDbDictionary
281
1
  3
ByBlock
350
1F
  3
ByLayer
350
20
  3
Global
350
21
  0
DICTIONARY
  5
F
330
A
100
AcDbDictionary
281
1
  3
Standard
350
2C
  0
DICTIONARY
  5
10
330
A
100
AcDbDictionary
281
1
  3
Standard
350
22
  0
DICTIONARY
  5
11
330
A
100
AcDbDictionary
281
1
  0
ACDBDICTIONARYWDFLT
  5
12
330
A
100
AcDbDictionary
281
1
  3
Normal
350
13
100
AcDbDictionaryWithDefault
340
13
  0
ACDBPLACEHOLDER
  5
13
330
12
  0
DICTIONARY
  5
14
330
A
100
AcDbDictionary
281
1
  0
DICTIONARY
  5
15
330
A
100
AcDbDictionary
281
1
  0
DICTIONARY
  5
16
330
A
100
AcDbDictionary
281
1
  0
LAYOUT
  5
1A
330
D
100
AcDbPlotSettings
  1

  4
A3
  6

 40
7.5
 41
20.0
 42
7.5
 43
20.0
 44
420.0
 45
297.0
 46
0.0
 47
0.0
 48
0.0
 49
0.0
140
0.0
141
0.0
142
1.0
143
1.0
 70
1024
 72
1
 73
0
 74
5
  7

 75
16
 76
0
 77
2
 78
300
147
1.0
148
0.0
149
0.0
100
AcDbLayout
  1
Model
 70
1
 71
0
 10
0.0
 20
0.0
 11
420.0
 21
297.0
 12
0.0
 22
0.0
 32
0.0
 14
1e+20
 24
1e+20
 34
1e+20
 15
-1e+20
 25
-1e+20
 35
-1e+20
146
0.0
 13
0.0
 23
0.0
 33
0.0
 16
1.0
 26
0.0
 36
0.0
 17
0.0
 27
1.0
 37
0.0
 76
1
330
17
  0
LAYOUT
  5
1E
330
D
100
AcDbPlotSettings
  1

  4
A3
  6

 40
7.5
 41
20.0
 42
7.5
 43
20.0
 44
420.0
 45
297.0
 46
0.0
 47
0.0
 48
0.0
 49
0.0
140
0.0
141
0.0
142
1.0
143
1.0
 70
0
 72
1
 73
0
 74
5
  7

 75
16
 76
0
 77
2
 78
300
147
1.0
148
0.0
149
0.0
100
AcDbLayout
  1
Layout1
 70
1
 71
1
 10
0.0
 20
0.0
 11
420.0
 21
297.0
 12
0.0
 22
0.0
 32
0.0
 14
1e+20
 24
1e+20
 34
1e+20
 15
-1e+20
 25
-1e+20
 35
-1e+20
146
0.0
 13
0.0
 23
0.0
 33
0.0
 16
1.0
 26
0.0
 36
0.0
 17
0.0
 27
1.0
 37
0.0
 76
1
330
1B
  0
MATERIAL
  5
1F
102
{ACAD_REACTORS
330
E
102
}
330
E
100
AcDbMaterial
  1
ByBlock
  2

 70
0
 40
1.0
 71
1
 41
1.0
 91
-1023410177
 42
1.0
 72
1
  3

 73
1
 74
1
 75
1
 44
0.5
 73
0
 45
1.0
 46
1.0
 77
1
  4

 78
1
 79
1
170
1
 48
1.0
171
1
  6

172
1
173
1
174
1
140
1.0
141
1.0
175
1
  7

176
1
177
1
178
1
143
1.0
179
1
  8

270
1
271
1
272
1
145
1.0
146
1.0
273
1
  9

274
1
275
1
276
1
 42
1.0
 72
1
  3

 73
1
 74
1
 75
1
 94
63
  0
MATERIAL
  5
20
102
{ACAD_REACTORS
330
E
102
}
330
E
100
AcDbMaterial
  1
ByLayer
  2

 70
0
 40
1.0
 71
1
 41
1.0
 91
-1023410177
 42
1.0
 72
1
  3

 73
1
 74
1
 75
1
 44
0.5
 73
0
 45
1.0
 46
1.0
 77
1
  4

 78
1
 79
1
170
1
 48
1.0
171
1
  6

172
1
173
1
174
1
140
1.0
141
1.0
175
1
  7

176
1
177
1
178
1
143
1.0
179
1
  8

270
1
271
1
272
1
145
1.0
146
1.0
273
1
  9

274
1
275
1
276
1
 42
1.0
 72
1
  3

 73
1
 74
1
 75
1
 94
63
  0
MATERIAL
  5
21
102
{ACAD_REACTORS
330
E
102
}
330
E
100
AcDbMaterial
  1
Global
  2

 70
0
 40
1.0
 71
1
 41
1.0
 91
-1023410177
 42
1.0
 72
1
  3

 73
1
 74
1
 75
1
 44
0.5
 73
0
 45
1.0
 46
1.0
 77
1
  4

 78
1
 79
1
170
1
 48
1.0
171
1
  6

172
1
173
1
174
1
140
1.0
141
1.0
175
1
  7

176
1
177
1
178
1
143
1.0
179
1
  8

270
1
271
1
272
1
145
1.0
146
1.0
273
1
  9

274
1
275
1
276
1
 42
1.0
 72
1
  3

 73
1
 74
1
 75
1
 94
63
  0
MLINESTYLE
  5
22
102
{ACAD_REACTORS
330
10
102
}
330
10
100
AcDbMlineStyle
  2
Standard
 70
0
  3

 62
256
 51
90.0
 52
90.0
 71
2
 49
0.5
 62
256
  6
BYLAYER
 49
-0.5
 62
256
  6
BYLAYER
  0
MLEADERSTYLE
  5
2C
102
{ACAD_REACTORS
330
F
102
}
330
F
100
AcDbMLeaderStyle
179
2
170
2
171
1
172
0
 90
2
 40
0.0
 41
0.0
173
1
 91
-1056964608
 92
-2
290
1
 42
2.0
291
1
 43
8.0
  3
Standard
 44
4.0
300

342
29
174
1
175
1
176
0
178
1
 93
-1056964608
 45
4.0
292
0
297
0
 46
4.0
 94
-1056964608
 47
1.0
 49
1.0
140
1.0
294
1
141
0.0
177
0
142
1.0
295
0
296
0
143
3.75
271
0
272
9
273
9
  0
DICTIONARY
  5
2D
330
A
100
AcDbDictionary
280
1
281
1
  3
CREATED_BY_EZDXF
350
2E
  3
WRITTEN_BY_EZDXF
350
3B
  0
DICTIONARYVAR
  5
2E
330
2D
100
DictionaryVariables
280
0
  1
1.4.4 @ 2026-09-19T11:45:08.883608+00:00
  0
DICTIONARYVAR
  5
3B
330
2D
100
DictionaryVariables
280
0
  1
1.4.4 @ 2026-09-19T11:45:08.895109+00:00
  0
ENDSEC
  0
EOF
