  0
SECTION
  2
HEADER
  9
$ACADVER
  1
AC1024
  9
$ACADMAINTVER
 70
6
  9
$DWGCODEPAGE
  3
ANSI_1252
  9
$LASTSAVEDBY
  1
ezdxf
  9
$INSBASE
 10
0.0
 20
0.0
 30
0.0
  9
$EXTMIN
 10
1e+20
 20
1e+20
 30
1e+20
  9
$EXTMAX
 10
-1e+20
 20
-1e+20
 30
-1e+20
  9
$LIMMIN
 10
0.0
 20
0.0
  9
$LIMMAX
 10
420.0
 20
297.0
  9
$ORTHOMODE
 70
0
  9
$REGENMODE
 70
1
  9
$FILLMODE
 70
1
  9
$QTEXTMODE
 70
0
  9
$MIRRTEXT
 70
1
  9
$LTSCALE
 40
1.0
  9
$ATTMODE
 70
1
  9
$TEXTSIZE
 40
2.5
  9
$TRACEWID
 40
1.0
  9
$TEXTSTYLE
  7
Standard
  9
$CLAYER
  8
0
  9
$CELTYPE
  6
ByLayer
  9
$CECOLOR
 62
256
  9
$CELTSCALE
 40
1.0
  9
$DISPSILH
 70
0
  9
$DIMSCALE
 40
1.0
  9
$DIMASZ
 40
2.5
  9
$DIMEXO
 40
0.625
  9
$DIMDLI
 40
3.75
  9
$DIMRND
 40
0.0
  9
$DIMDLE
 40
0.0
  9
$DIMEXE
 40
1.25
  9
$DIMTP
 40
0.0
  9
$DIMTM
 40
0.0
  9
$DIMTXT
 40
2.5
  9
$DIMCEN
 40
2.5
  9
$DIMTSZ
 40
0.0
  9
$DIMTOL
 70
0
  9
$DIMLIM
 70
0
  9
$DIMTIH
 70
0
  9
$DIMTOH
 70
0
  9
$DIMSE1
 70
0
  9
$DIMSE2
 70
0
  9
$DIMTAD
 70
1
  9
$DIMZIN
 70
8
  9
$DIMBLK
  1

  9
$DIMASO
 70
1
  9
$DIMSHO
 70
1
  9
$DIMPOST
  1

  9
$DIMAPOST
  1

  9
$DIMALT
 70
0
  9
$DIMALTD
 70
3
  9
$DIMALTF
 40
0.03937007874
  9
$DIMLFAC
 40
1.0
  9
$DIMTOFL
 70
1
  9
$DIMTVP
 40
0.0
  9
$DIMTIX
 70
0
  9
$DIMSOXD
 70
0
  9
$DIMSAH
 70
0
  9
$DIMBLK1
  1

  9
$DIMBLK2
  1

  9
$DIMSTYLE
  2
ISO-25
  9
$DIMCLRD
 70
0
  9
$DIMCLRE
 70
0
  9
$DIMCLRT
 70
0
  9
$DIMTFAC
 40
1.0
  9
$DIMGAP
 40
0.625
  9
$DIMJUST
 70
0
  9
$DIMSD1
 70
0
  9
$DIMSD2
 70
0
  9
$DIMTOLJ
 70
0
  9
$DIMTZIN
 70
8
  9
$DIMALTZ
 70
0
  9
$DIMALTTZ
 70
0
  9
$DIMUPT
 70
0
  9
$DIMDEC
 70
2
  9
$DIMTDEC
 70
2
  9
$DIMALTU
 70
2
  9
$DIMALTTD
 70
3
  9
$DIMTXSTY
  7
Standard
  9
$DIMAUNIT
 70
0
  9
$DIMADEC
 70
0
  9
$DIMALTRND
 40
0.0
  9
$DIMAZIN
 70
0
  9
$DIMDSEP
 70
44
  9
$DIMATFIT
 70
3
  9
$DIMFRAC
 70
0
  9
$DIMLDRBLK
  1

  9
$DIMLUNIT
 70
2
  9
$DIMLWD
 70
-2
  9
$DIMLWE
 70
-2
  9
$DIMTMOVE
 70
0
  9
$DIMFXL
 40
1.0
  9
$DIMFXLON
 70
0
  9
$DIMJOGANG
 40
0.785398163397
  9
$DIMTFILL
 70
0
  9
$DIMTFILLCLR
 70
0
  9
$DIMARCSYM
 70
0
  9
$DIMLTYPE
  6

  9
$DIMLTEX1
  6

  9
$DIMLTEX2
  6

  9
$DIMTXTDIRECTION
 70
0
  9
$LUNITS
 70
2
  9
$LUPREC
 70
4
  9
$SKETCHINC
 40
1.0
  9
$FILLETRAD
 40
10.0
  9
$AUNITS
 70
0
  9
$AUPREC
 70
2
  9
$MENU
  1
.
  9
$ELEVATION
 40
0.0
  9
$PELEVATION
 40
0.0
  9
$THICKNESS
 40
0.0
  9
$LIMCHECK
 70
0
  9
$CHAMFERA
 40
0.0
  9
$CHAMFERB
 40
0.0
  9
$CHAMFERC
 40
0.0
  9
$CHAMFERD
 40
0.0
  9
$SKPOLY
 70
0
  9
$TDCREATE
 40
2461303.7378819445
  9
$TDUCREATE
 40
2458532.153996898
  9
$TDUPDATE
 40
2461303.7378819445
  9
$TDUUPDATE
 40
2458532.1544311
  9
$TDINDWG
 40
0.0
  9
$TDUSRTIMER
 40
0.0
  9
$USRTIMER
 70
1
  9
$ANGBASE
 50
0.0
  9
$ANGDIR
 70
0
  9
$PDMODE
 70
0
  9
$PDSIZE
 40
0.0
  9
$PLINEWID
 40
0.0
  9
$SPLFRAME
 70
0
  9
$SPLINETYPE
 70
6
  9
$SPLINESEGS
 70
8
  9
$HANDSEED
  5
3B
  9
$SURFTAB1
 70
6
  9
$SURFTAB2
 70
6
  9
$SURFTYPE
 70
6
  9
$SURFU
 70
6
  9
$SURFV
 70
6
  9
$UCSBASE
  2

  9
$UCSNAME
  2

  9
$UCSORG
 10
0.0
 20
0.0
 30
0.0
  9
$UCSXDIR
 10
1.0
 20
0.0
 30
0.0
  9
$UCSYDIR
 10
0.0
 20
1.0
 30
0.0
  9
$UCSORTHOREF
  2

  9
$UCSORTHOVIEW
 70
0
  9
$UCSORGTOP
 10
0.0
 20
0.0
 30
0.0
  9
$UCSORGBOTTOM
 10
0.0
 20
0.0
 30
0.0
  9
$UCSORGLEFT
 10
0.0
 20
0.0
 30
0.0
  9
$UCSORGRIGHT
 10
0.0
 20
0.0
 30
0.0
  9
$UCSORGFRONT
 10
0.0
 20
0.0
 30
0.0
  9
$UCSORGBACK
 10
0.0
 20
0.0
 30
0.0
  9
$PUCSBASE
  2

  9
$PUCSNAME
  2

  9
$PUCSORG
 10
0.0
 20
0.0
 30
0.0
  9
$PUCSXDIR
 10
1.0
 20
0.0
 30
0.0
  9
$PUCSYDIR
 10
0.0
 20
1.0
 30
0.0
  9
$PUCSORTHOREF
  2

  9
$PUCSORTHOVIEW
 70
0
  9
$PUCSORGTOP
 10
0.0
 20
0.0
 30
0.0
  9
$PUCSORGBOTTOM
 10
0.0
 20
0.0
 30
0.0
  9
$PUCSORGLEFT
 10
0.0
 20
0.0
 30
0.0
  9
$PUCSORGRIGHT
 10
0.0
 20
0.0
 30
0.0
  9
$PUCSORGFRONT
 10
0.0
 20
0.0
 30
0.0
  9
$PUCSORGBACK
 10
0.0
 20
0.0
 30
0.0
  9
$USERI1
 70
0
  9
$USERI2
 70
0
  9
$USERI3
 70
0
  9
$USERI4
 70
0
  9
$USERI5
 70
0
  9
$USERR1
 40
0.0
  9
$USERR2
 40
0.0
  9
$USERR3
 40
0.0
  9
$USERR4
 40
0.0
  9
$USERR5
 40
0.0
  9
$WORLDVIEW
 70
1
  9
$SHADEDGE
 70
3
  9
$SHADEDIF
 70
70
  9
$TILEMODE
 70
1
  9
$MAXACTVP
 70
64
  9
$PINSBASE
 10
0.0
 20
0.0
 30
0.0
  9
$PLIMCHECK
 70
0
  9
$PEXTMIN
 10
1e+20
 20
1e+20
 30
1e+20
  9
$PEXTMAX
 10
-1e+20
 20
-1e+20
 30
-1e+20
  9
$PLIMMIN
 10
0.0
 20
0.0
  9
$PLIMMAX
 10
420.0
 20
297.0
  9
$UNITMODE
 70
0
  9
$VISRETAIN
 70
1
  9
$PLINEGEN
 70
0
  9
$PSLTSCALE
 70
1
  9
$TREEDEPTH
 70
3020
  9
$CMLSTYLE
  2
Standard
  9
$CMLJUST
 70
0
  9
$CMLSCALE
 40
20.0
  9
$PROXYGRAPHICS
 70
1
  9
$MEASUREMENT
 70
1
  9
$CELWEIGHT
370
-1
  9
$ENDCAPS
280
0
  9
$JOINSTYLE
280
0
  9
$LWDISPLAY
290
0
  9
$INSUNITS
 70
4
  9
$HYPERLINKBASE
  1

  9
$STYLESHEET
  1

  9
$XEDIT
290
1
  9
$CEPSNTYPE
380
0
  9
$PSTYLEMODE
290
1
  9
$FINGERPRINTGUID
  2
{AF335BEA-FD24-4953-BE72-BA5D1DDBD854}
  9
$VERSIONGUID
  2
{D0C8E081-94DD-4C18-A0E3-09785257F14B}
  9
$EXTNAMES
290
1
  9
$PSVPSCALE
 40
0.0
  9
$OLESTARTUP
290
0
  9
$SORTENTS
280
127
  9
$INDEXCTL
280
0
  9
$HIDETEXT
280
1
  9
$XCLIPFRAME
280
1
  9
$HALOGAP
280
0
  9
$OBSCOLOR
 70
257
  9
$OBSLTYPE
280
0
  9
$INTERSECTIONDISPLAY
280
0
  9
$INTERSECTIONCOLOR
 70
257
  9
$DIMASSOC
280
2
  9
$PROJECTNAME
  1

  9
$CAMERADISPLAY
290
0
  9
$LENSLENGTH
 40
50.0
  9
$CAMERAHEIGHT
 40
0.0
  9
$STEPSPERSEC
 40
24.0
  9
$STEPSIZE
 40
100.0
  9
$3DDWFPREC
 40
2.0
  9
$PSOLWIDTH
 40
0.005
  9
$PSOLHEIGHT
 40
0.08
  9
$LOFTANG1
 40
1.570796326795
  9
$LOFTANG2
 40
1.570796326795
  9
$LOFTMAG1
 40
0.0
  9
$LOFTMAG2
 40
0.0
  9
$LOFTPARAM
 70
7
  9
$LOFTNORMALS
280
1
  9
$LATITUDE
 40
37.795
  9
$LONGITUDE
 40
-122.394
  9
$NORTHDIRECTION
 40
0.0
  9
$TIMEZONE
 70
-8000
  9
$LIGHTGLYPHDISPLAY
280
1
  9
$TILEMODELIGHTSYNCH
280
1
  9
$CMATERIAL
347
20
  9
$SOLIDHIST
280
0
  9
$SHOWHIST
280
1
  9
$DWFFRAME
280
2
  9
$DGNFRAME
280
2
  9
$REALWORLDSCALE
290
1
  9
$INTERFERECOLOR
 62
256
  9
$CSHADOW
280
0
  9
$SHADOWPLANELOCATION
 40
0.0
  0
ENDSEC
  0
SECTION
  2
CLASSES
  0
CLASS
  1
ACDBDICTIONARYWDFLT
  2
AcDbDictionaryWithDefault
  3
ObjectDBX Classes
 90
0
 91
0
280
0
281
0
  0
CLASS
  1
SUN
  2
AcDbSun
  3
SCENEOE
 90
1153
 91
0
280
0
281
0
  0
CLASS
  1
VISUALSTYLE
  2
AcDbVisualStyle
  3
ObjectDBX Classes
 90
4095
 91
0
280
0
281
0
  0
CLASS
  1
MATERIAL
  2
AcDbMaterial
  3
ObjectDBX Classes
 90
1153
 91
0
280
0
281
0
  0
CLASS
  1
SCALE
  2
AcDbScale
  3
ObjectDBX Classes
 90
1153
 91
0
280
0
281
0
  0
CLASS
  1
TABLESTYLE
  2
AcDbTableStyle
  3
ObjectDBX Classes
 90
4095
 91
0
280
0
281
0
  0
CLASS
  1
MLEADERSTYLE
  2
AcDbMLeaderStyle
  3
ACDB_MLEADERSTYLE_CLASS
 90
4095
 91
0
280
0
281
0
  0
CLASS
  1
DICTIONARYVAR
  2
AcDbDictionaryVar
  3
ObjectDBX Classes
 90
0
 91
0
280
0
281
0
  0
CLASS
  1
CELLSTYLEMAP
  2
AcDbCellStyleMap
  3
ObjectDBX Classes
 90
1152
 91
0
280
0
281
0
  0
CLASS
  1
MENTALRAYRENDERSETTINGS
  2
AcDbMentalRayRenderSettings
  3
SCENEOE
 90
1024
 91
0
280
0
281
0
  0
CLASS
  1
ACDBDETAILVIEWSTYLE
  2
AcDbDetailViewStyle
  3
ObjectDBX Classes
 90
1025
 91
0
280
0
281
0
  0
CLASS
  1
ACDBSECTIONVIEWSTYLE
  2
AcDbSectionViewStyle
  3
ObjectDBX Classes
 90
1025
 91
0
280
0
281
0
  0
CLASS
  1
RASTERVARIABLES
  2
AcDbRasterVariables
  3
ISM
 90
0
 91
0
280
0
281
0
  0
CLASS
  1
LAYOUT
  2
AcDbLayout
  3
ObjectDBX Classes
 90
0
 91
0
280
0
281
0
  0
CLASS
  1
ACDBPLACEHOLDER
  2
AcDbPlaceHolder
  3
ObjectDBX Classes
 90
0
 91
0
280
0
281
0
  0
ENDSEC
  0
SECTION
  2
TABLES
  0
TABLE
  2
VPORT
  5
8
330
0
100
AcDbSymbolTable
 70
1
  0
VPORT
  5
23
330
8
100
AcDbSymbolTableRecord
100
AcDbViewportTableRecord
  2
*Active
 70
0
 10
0.0
 20
0.0
 11
1.0
 21
1.0
 12
0.0
 22
0.0
 13
0.0
 23
0.0
 14
0.5
 24
0.5
 15
0.5
 25
0.5
 16
0.0
 26
0.0
 36
1.0
 17
0.0
 27
0.0
 37
0.0
 40
1000.0
 41
1.34
 42
50.0
 43
0.0
 44
0.0
 50
0.0
 51
0.0
 71
0
 72
1000
 73
1
 74
3
 75
0
 76
0
 77
0
 78
0
281
0
 65
0
146
0.0
  0
ENDTAB
  0
TABLE
  2
LTYPE
  5
2
330
0
100
AcDbSymbolTable
 70
3
  0
LTYPE
  5
24
330
2
100
AcDbSymbolTableRecord
100
AcDbLinetypeTableRecord
  2
ByBlock
 70
0
  3

 72
65
 73
0
 40
0.0
  0
LTYPE
  5
25
330
2
100
AcDbSymbolTableRecord
100
AcDbLinetypeTableRecord
  2
ByLayer
 70
0
  3

 72
65
 73
0
 40
0.0
  0
LTYPE
  5
26
330
2
100
AcDbSymbolTableRecord
100
AcDbLinetypeTableRecord
  2
Continuous
 70
0
  3

 72
65
 73
0
 40
0.0
  0
ENDTAB
  0
TABLE
  2
LAYER
  5
1
330
0
100
AcDbSymbolTable
 70
6
  0
LAYER
  5
27
330
1
100
AcDbSymbolTableRecord
100
AcDbLayerTableRecord
  2
0
 70
0
 62
7
  6
Continuous
370
-3
390
13
347
21
  0
LAYER
  5
28
330
1
100
AcDbSymbolTableRecord
100
AcDbLayerTableRecord
  2
Defpoints
 70
0
 62
7
  6
Continuous
290
0
370
-3
390
13
347
21
  0
LAYER
  5
2F
330
1
100
AcDbSymbolTableRecord
100
AcDbLayerTableRecord
  2
CUT_TOOL
 70
0
 62
7
  6
Continuous
370
-3
390
13
347
21
  0
LAYER
  5
30
330
1
100
AcDbSymbolTableRecord
100
AcDbLayerTableRecord
  2
CAD_OUTER
 70
0
 62
5
  6
Continuous
370
-3
390
13
347
21
  0
LAYER
  5
31
330
1
100
AcDbSymbolTableRecord
100
AcDbLayerTableRecord
  2
INNER_5MM_REFERENCE
 70
0
 62
3
  6
Continuous
370
-3
390
13
347
21
  0
LAYER
  5
32
330
1
100
AcDbSymbolTableRecord
100
AcDbLayerTableRecord
  2
LABEL
 70
0
 62
2
  6
Continuous
370
-3
390
13
347
21
  0
ENDTAB
  0
TABLE
  2
STYLE
  5
5
330
0
100
AcDbSymbolTable
 70
1
  0
STYLE
  5
29
330
5
100
AcDbSymbolTableRecord
100
AcDbTextStyleTableRecord
  2
Standard
 70
0
 40
0.0
 41
1.0
 50
0.0
 71
0
 42
2.5
  3
txt
  4

  0
ENDTAB
  0
TABLE
  2
VIEW
  5
7
330
0
100
AcDbSymbolTable
 70
0
  0
ENDTAB
  0
TABLE
  2
UCS
  5
6
330
0
100
AcDbSymbolTable
 70
0
  0
ENDTAB
  0
TABLE
  2
APPID
  5
3
330
0
100
AcDbSymbolTable
 70
3
  0
APPID
  5
2A
330
3
100
AcDbSymbolTableRecord
100
AcDbRegAppTableRecord
  2
ACAD
 70
0
  0
APPID
  5
38
330
3
100
AcDbSymbolTableRecord
100
AcDbRegAppTableRecord
  2
HATCHBACKGROUNDCOLOR
 70
0
  0
APPID
  5
39
330
3
100
AcDbSymbolTableRecord
100
AcDbRegAppTableRecord
  2
EZDXF
 70
0
  0
ENDTAB
  0
TABLE
  2
DIMSTYLE
  5
4
330
0
100
AcDbSymbolTable
 70
1
100
AcDbDimStyleTable
  0
DIMSTYLE
105
2B
330
4
100
AcDbSymbolTableRecord
100
AcDbDimStyleTableRecord
  2
Standard
 70
0
 40
1.0
 41
2.5
 42
0.625
 43
3.75
 44
1.25
 45
0.0
 46
0.0
 47
0.0
 48
0.0
 49
2.5
140
2.5
141
2.5
142
0.0
143
0.03937007874
144
1.0
145
0.0
146
1.0
147
0.625
148
0.0
 69
0
 70
0
 71
0
 72
0
 73
0
 74
0
 75
0
 76
0
 77
1
 78
8
 79
3
170
0
171
3
172
1
173
0
174
0
175
0
176
0
177
0
178
0
179
2
271
2
272
2
273
2
274
3
275
0
276
0
277
2
278
44
279
0
280
0
281
0
282
0
283
0
284
8
285
0
286
0
288
0
289
3
290
0
371
-2
372
-2
  0
ENDTAB
  0
TABLE
  2
BLOCK_RECORD
  5
9
330
0
100
AcDbSymbolTable
 70
2
  0
BLOCK_RECORD
  5
17
330
9
100
AcDbSymbolTableRecord
100
AcDbBlockTableRecord
  2
*Model_Space
340
1A
 70
0
280
1
281
0
  0
BLOCK_RECORD
  5
1B
330
9
100
AcDbSymbolTableRecord
100
AcDbBlockTableRecord
  2
*Paper_Space
340
1E
 70
0
280
1
281
0
  0
ENDTAB
  0
ENDSEC
  0
SECTION
  2
BLOCKS
  0
BLOCK
  5
18
330
17
100
AcDbEntity
  8
0
100
AcDbBlockBegin
  2
*Model_Space
 70
0
 10
0.0
 20
0.0
 30
0.0
  3
*Model_Space
  1

  0
ENDBLK
  5
19
330
17
100
AcDbEntity
  8
0
100
AcDbBlockEnd
  0
BLOCK
  5
1C
330
1B
100
AcDbEntity
  8
0
100
AcDbBlockBegin
  2
*Paper_Space
 70
0
 10
0.0
 20
0.0
 30
0.0
  3
*Paper_Space
  1

  0
ENDBLK
  5
1D
330
1B
100
AcDbEntity
  8
0
100
AcDbBlockEnd
  0
ENDSEC
  0
SECTION
  2
ENTITIES
  0
LWPOLYLINE
  5
33
330
17
100
AcDbEntity
  8
CUT_TOOL
100
AcDbPolyline
 90
623
 70
1
 10
0.0
 20
17.2499999999999
 10
12.000000072140892
 20
17.2499999999999
 10
12.0
 20
17.245892673448687
 10
12.002465816942731
 20
17.09579295250697
 10
12.00270840449005
 20
17.08814856863279
 10
12.009764287347053
 20
16.938199466311215
 10
12.010237032553476
 20
16.93061198179566
 10
12.021848576856115
 20
16.78095086943832
 10
12.02254758609456
 20
16.773420247425893
 10
12.038680480939433
 20
16.62418220552024
 10
12.039602562523115
 20
16.616707869581546
 10
12.06022290833279
 20
16.468026103161424
 10
12.061365608178292
 20
16.460607092289408
 10
12.086440142808115
 20
16.31261336842695
 10
12.087801765588367
 20
16.305248471383187
 10
12.117298011073316
 20
16.158073569713174
 10
12.118877627938048
 20
16.15076145514445
 10
12.15276396033397
 20
16.00453562333886
 10
12.15456140416137
 20
15.997274966085456
 10
12.192807048703855
 20
15.852128372785192
 10
12.19482289744245
 20
15.844917976961778
 10
12.237397850918953
 20
15.700981155012002
 10
12.239633399169307
 20
15.693820074487933
 10
12.286508281043396
 20
15.551224347418824
 10
12.288965499626201
 20
15.544112004273597
 10
12.340111333126785
 20
15.402989888820002
 10
12.342792816005513
 20
15.395926190194782
 10
12.398180740162346
 20
15.256411767269455
 10
12.401089637744093
 20
15.249397220786548
 10
12.460690551270119
 20
15.111626466737285
 10
12.463830176126066
 20
15.104662960489108
 10
12.527613919838302
 20
14.968773829871823
 10
12.530984347862514
 20
14.961870998652651
 10
12.598915051566294
 20
14.828001498589352
 10
12.602671088134414
 20
14.820885707723859
 10
12.674875287704552
 20
14.689270441194692
 10
12.678708674961726
 20
14.682532738752045
 10
12.754956935504808
 20
14.553222390187912
 10
12.758903593176214
 20
14.546755223639927
 10
12.839032949267377
 20
14.41981822257818
 10
12.843156674560163
 20
14.413498952490965
 10
12.927078503779029
 20
14.289040899968345
 10
12.93137735648854
 20
14.282868022741361
 10
13.019003971058098
 20
14.16099342106703
 10
13.023476791152518
 20
14.154965474687163
 10
13.114721410886204
 20
14.035778188918146
 10
13.119367776312117
 20
14.029893876532222
 10
13.214144428252041
 20
13.913497571487186
 10
13.218964602484533
 20
13.907755876530159
 10
13.317187952229432
 20
13.794254423120655
 10
13.322182821941908
 20
13.78865471660815
 10
13.423767941315589
 20
13.678152561505293
 10
13.428938944163377
 20
13.67269470201511
 10
13.53380101957643
 20
13.565297194678777
 10
13.539150061740301
 20
13.559981621381384
 10
13.647204047399313
 20
13.455795292277198
 10
13.652733410250775
 20
13.450623111113297
 10
13.763893630330003
 20
13.349755894568652
 10
13.769605865350869
 20
13.344728957346051
 10
13.88378556939655
 20
13.247290351987457
 10
13.8896750820157
 20
13.242417981606877
 10
14.006782090568734
 20
13.14851405599574
 10
14.012788365047697
 20
13.143846179179642
 10
14.132700968920972
 20
13.053546412355361
 10
14.13866238853764
 20
13.049193599377862
 10
14.26119139567301
 20
12.96247133366106
 10
14.267203618818897
 20
12.958346328549855
 10
14.392212636208356
 20
12.8752320476644
 10
14.398443245529506
 20
12.871221393250837
 10
14.52586276324621
 20
12.791847018771696
 10
14.532279151252595
 20
12.787982216084641
 10
14.662018090208306
 20
12.712461521215102
 10
14.668256184062102
 20
12.708948948629777
 10
14.800101002246322
 20
12.63717587969821
 10
14.80640992288808
 20
12.63385717473852
 10
14.94024458854399
 20
12.565873825548195
 10
14.946624012787609
 20
12.56274653214294
 10
15.082333984191692
 20
12.498594847052996
 10
15.08878404217576
 20
12.495656958059525
 10
15.226255999487265
 20
12.435379001468112
 10
15.23277719044701
 20
12.432629008789409
 10
15.371898737893744
 20
12.376267184665515
 10
15.378491844090334
 20
12.373704120189352
 10
15.519151188008507
 20
12.32130134054813
 10
15.525817186627066
 20
12.318924808470477
 10
15.667902794537483
 20
12.2705246095876
 10
15.674642767239732
 20
12.268334810450817
 10
15.818043012947044
 20
12.223981415435723
 10
15.824858052689649
 20
12.221979161965766
 10
15.969460852345435
 20
12.181717488092708
 10
15.976351967057525
 20
12.179904212662816
 10
16.12204441123626
 20
12.143779821628328
 10
16.129012424003434
 20
12.142157574914235
 10
16.27568041110854
 20
12.110216563991818
 10
16.282725212226296
 20
12.108788125171145
 10
16.43025302567105
 20
12.08107656842714
 10
16.43736373633581
 20
12.079846865997666
 10
16.585632879836993
 20
12.056404334247523
 10
16.592761151602303
 20
12.055382299690732
 10
16.741647639590326
 20
12.03621942155607
 10
16.748749791645693
 20
12.035408357740772
 10
16.89812747413349
 20
12.020509609985064
 10
16.9055707165665
 20
12.019879381864545
 10
17.055328032010323
 20
12.0094500343213
 10
17.062508876747756
 20
12.009053642257822
 10
17.212501037602294
 20
12.002936379058186
 10
17.219395570205407
 20
12.002750410644254
 10
17.369495925694267
 20
12.000773135318003
 10
17.372318144102934
 20
12.000751890290395
 10
17.522436876938656
 20
12.000469215338482
 10
17.5228738968096
 20
12.000468774399856
 10
17.67299393014578
 20
12.000448519250433
 10
17.82311600268669
 20
12.000429488241354
 10
17.973236968359444
 20
12.00041101709408
 10
18.1233585783382
 20
12.000393492411968
 10
18.273479881842192
 20
12.000376730225787
 10
18.42360106234787
 20
12.00036065660921
 10
18.57372267054994
 20
12.000345528267326
 10
18.723843454676597
 20
12.000330850460704
 10
18.87396533444246
 20
12.000317280846993
 10
19.024085755289292
 20
12.000303943600533
 10
19.174207873483127
 20
12.000291857599505
 10
19.32432796415368
 20
12.000279805668665
 10
19.474450287638746
 20
12.000269128165469
 10
19.624570321961656
 20
12.000258450835561
 10
19.774692336169025
 20
12.000248962206378
 10
19.924812611291344
 20
12.000239618236975
 10
20.074934236432014
 20
12.00023122935649
 10
20.22505477566378
 20
12.000223143632775
 10
20.375176044858634
 20
12.0002157992699
 10
20.525296815057203
 20
12.000208896681572
 10
20.67541776143102
 20
12.000202541609733
 10
20.825538729452205
 20
12.000196747046811
 10
20.975659386133174
 20
12.00019132604331
 10
21.1257805188325
 20
12.00018656439641
 10
21.275900918951905
 20
12.000182022242504
 10
21.42602218318389
 20
12.000178218402644
 10
21.576142359876087
 20
12.000174499883133
 10
21.72626372249418
 20
12.000171578741739
 10
21.87638375716834
 20
12.000168657629711
 10
22.026505088482153
 20
12.00016651509429
 10
22.17662517144123
 20
12.000164401566067
 10
22.32674622051975
 20
12.00016289714355
 10
22.47686646065003
 20
12.000161516090326
 10
22.626987433745242
 20
12.000160698519942
 10
22.77710787241776
 20
12.000160123531126
 10
22.927227907119246
 20
12.000159548544175
 10
23.07734862252397
 20
12.000159382304036
 10
23.22746933720937
 20
12.000159624382032
 10
23.37758937191184
 20
12.000159866459859
 10
23.527709731970447
 20
12.000160303908798
 10
23.677830520580045
 20
12.000161194068092
 10
23.82795055527997
 20
12.00016208422403
 10
23.97807068178591
 20
12.000163029508464
 10
24.128191519021314
 20
12.000164456707726
 10
24.27831155371709
 20
12.000165883900623
 10
24.42843158841295
 20
12.000167311093543
 10
24.57855162310871
 20
12.000168738286431
 10
24.728672162730206
 20
12.000170468684384
 10
24.87879229534535
 20
12.000172257879136
 10
25.028912330037258
 20
12.000174047072683
 10
25.179032364729196
 20
12.000175836266255
 10
25.32915239942116
 20
12.000177625459836
 10
25.479272434113156
 20
12.000179414653406
 10
25.629392370760733
 20
12.000181203845809
 10
25.77951214311981
 20
12.000182875307798
 10
25.92963201349894
 20
12.000184349430992
 10
26.079752048194315
 20
12.000185823555807
 10
26.229872082889685
 20
12.000187297680592
 10
26.379992117585083
 20
12.000188771805398
 10
26.53011215228046
 20
12.000190245930213
 10
26.680232186975807
 20
12.00019172005502
 10
26.83035175557125
 20
12.000193194175258
 10
26.98047127801471
 20
12.000194108529614
 10
27.130591266406277
 20
12.000194967363312
 10
27.280711301106507
 20
12.000195826197297
 10
27.430831111060222
 20
12.000196685029975
 10
27.580950797189665
 20
12.000197273960467
 10
27.731070708002868
 20
12.000197714135092
 10
28.03131064514077
 20
12.00019859448473
 10
28.181430331537392
 20
12.000198875853716
 10
28.331550150138078
 20
12.000198897690058
 10
28.481670184840716
 20
12.000198919526433
 10
28.631790219543298
 20
12.000198941362807
 10
28.78191023833063
 20
12.000198963199214
 10
28.932029938208608
 20
12.000198965637896
 10
29.082149654491204
 20
12.00019858565809
 10
29.232269689193274
 20
12.000198205677444
 10
29.382389723895436
 20
12.000197825696855
 10
29.532509758597527
 20
12.000197445716209
 10
29.682629576719485
 20
12.000197065736145
 10
29.832749309358263
 20
12.000196425653307
 10
30.132989293229997
 20
12.000194940105454
 10
30.283109327930703
 20
12.000194197331282
 10
30.433229362631522
 20
12.000193454557143
 10
30.583349311279086
 20
12.000192711783454
 10
30.733469076681736
 20
12.00019186571472
 10
30.883588928081686
 20
12.000190799493483
 10
31.03370896278046
 20
12.000189733270911
 10
31.18382899747929
 20
12.000188667048372
 10
31.33394903217816
 20
12.000187600825823
 10
31.484069066877005
 20
12.000186534603284
 10
31.634189101575778
 20
12.000185468380746
 10
31.784308965560577
 20
12.000184402159386
 10
31.93442880062186
 20
12.00018313089068
 10
32.084548806524616
 20
12.000181824990273
 10
32.23466884122157
 20
12.000180519089616
 10
32.384788875918545
 20
12.000179213188968
 10
32.53490891061548
 20
12.00017790728831
 10
32.68502894531243
 20
12.000176601387684
 10
32.83514898000933
 20
12.000175295487027
 10
32.98526901470625
 20
12.000173989586347
 10
33.135389042370164
 20
12.000172683685783
 10
33.285509048351884
 20
12.0001713689687
 10
33.43562906213876
 20
12.0001700290463
 10
33.58574909683552
 20
12.00016868912377
 10
33.73586913153204
 20
12.000167349201183
 10
33.88598916622877
 20
12.000166009278628
 10
34.03610920092537
 20
12.000164669356064
 10
34.18622923562205
 20
12.00016332943351
 10
34.33634927031864
 20
12.000161989510978
 10
34.48646930501522
 20
12.000160649588391
 10
34.636589339711925
 20
12.000159309665861
 10
34.7867093744085
 20
12.000157969743274
 10
34.93682940910521
 20
12.000156629820742
 10
35.086949443801785
 20
12.000155289898155
 10
35.237069478498434
 20
12.000153949975624
 10
35.38718951319507
 20
12.00015261005307
 10
35.53730967675918
 20
12.000151347511364
 10
35.68742997136521
 20
12.00015024103804
 10
35.83755000606376
 20
12.000149134566767
 10
35.9876700407623
 20
12.000148028095493
 10
36.1377900754609
 20
12.000146921624253
 10
36.28791011015934
 20
12.00014581515298
 10
36.43803014485794
 20
12.000144708681706
 10
36.58815017955643
 20
12.000143602210432
 10
36.738270214254975
 20
12.00014249573916
 10
36.8883905387682
 20
12.000141563293196
 10
37.03851064530596
 20
12.0001406739859
 10
37.18863068000587
 20
12.00013978467904
 10
37.33875071470584
 20
12.000138895372148
 10
37.48887074940586
 20
12.000138006065287
 10
37.63899078410583
 20
12.000137116758426
 10
37.78911081880574
 20
12.000136227451533
 10
37.939230853505784
 20
12.00013533814465
 10
38.089350888205786
 20
12.00013444883779
 10
38.2394709923802
 20
12.000133601248415
 10
38.38959129653014
 20
12.00013291545678
 10
38.53971133123123
 20
12.000132229666544
 10
38.68983136593222
 20
12.000131543876275
 10
38.99007143533437
 20
12.000130172295803
 10
39.140191470035326
 20
12.000129486505513
 10
39.290311504736465
 20
12.000128800715276
 10
39.440431539437455
 20
12.00012811492504
 10
39.5905515741385
 20
12.000127429134771
 10
39.74067179612752
 20
12.000126855806155
 10
39.89079195127517
 20
12.000126354803271
 10
40.04091198597692
 20
12.000125853800798
 10
40.19103202067874
 20
12.000125352798346
 10
40.34115205538049
 20
12.00012485179587
 10
40.491272090082255
 20
12.00012435079342
 10
40.64139212478406
 20
12.00012384979098
 10
40.791512159485826
 20
12.000123348788527
 10
40.94163219418761
 20
12.000122847786075
 10
41.09175222888936
 20
12.000122346783602
 10
41.24187226359118
 20
12.00012184578115
 10
41.391992564004966
 20
12.000121504332455
 10
41.542112613889415
 20
12.000121172001087
 10
41.6922326485917
 20
12.000120839669778
 10
41.842352683293896
 20
12.000120507338444
 10
41.99247271799614
 20
12.00012017500711
 10
42.29271278740062
 20
12.000119510344444
 10
42.4428328221029
 20
12.000119178013133
 10
42.5929528568051
 20
12.000118845681799
 10
42.74307289150734
 20
12.000118513350467
 10
42.893192926209636
 20
12.000118181019133
 10
43.043313013931915
 20
12.000117880525165
 10
43.193433239915684
 20
12.000117694891589
 10
43.3435532746182
 20
12.000117509258354
 10
43.493673309320634
 20
12.000117323625062
 10
43.64379334402325
 20
12.000117137991827
 10
43.79391337872567
 20
12.00011695235856
 10
43.944033413428244
 20
12.000116766725325
 10
44.094153448130676
 20
12.000116581092033
 10
44.24427348283329
 20
12.000116395458798
 10
44.394393517535654
 20
12.000116209825531
 10
44.54451355223817
 20
12.000116024192296
 10
44.694633586940604
 20
12.000115838559006
 10
44.84475362164317
 20
12.000115652925738
 10
44.99487365634569
 20
12.000115467292503
 10
45.14499375447231
 20
12.000115319744106
 10
45.29511390412571
 20
12.000115241221339
 10
45.44523393882823
 20
12.000115162698627
 10
45.595353973530905
 20
12.000115084175969
 10
45.74547400823345
 20
12.000115005653289
 10
45.89559404293603
 20
12.000114927130609
 10
46.04571407763867
 20
12.000114848607929
 10
46.19583411234123
 20
12.000114770085238
 10
46.34595414704378
 20
12.000114691562558
 10
46.496074181746415
 20
12.000114613039878
 10
46.64619421644903
 20
12.000114534517222
 10
46.79631425115152
 20
12.000114455994508
 10
47.09655432055674
 20
12.000114298949148
 10
47.24667435525936
 20
12.000114220426491
 10
47.396794422925325
 20
12.000114161697676
 10
47.54691450171165
 20
12.00011412944024
 10
47.69703453641417
 20
12.000114097182783
 10
47.84715457111696
 20
12.000114064925382
 10
47.99727460581956
 20
12.000114032667959
 10
48.147394640522144
 20
12.000114000410536
 10
48.297514675224654
 20
12.000113968153103
 10
48.447634709927364
 20
12.00011393589568
 10
48.59775474462989
 20
12.000113903638255
 10
48.74787477933253
 20
12.000113871380831
 10
48.897994814035094
 20
12.000113839123399
 10
49.04811484873775
 20
12.000113806865976
 10
49.19823488344033
 20
12.000113774608552
 10
49.34835491814301
 20
12.000113742351118
 10
49.498474943395735
 20
12.000113710093697
 10
49.6485949599576
 20
12.000113666592005
 10
49.79871498480744
 20
12.000113611850614
 10
50.098955054212716
 20
12.000113502367823
 10
50.24907508891524
 20
12.000113447626427
 10
50.39919512361788
 20
12.000113392885032
 10
50.54931515832046
 20
12.000113338143636
 10
50.6994351930231
 20
12.000113283402241
 10
50.849555227725624
 20
12.000113228660846
 10
51.1497952971309
 20
12.000113119178055
 10
51.29991533183348
 20
12.00011306443666
 10
51.45003536653612
 20
12.000113009695264
 10
51.600155401238645
 20
12.000112954953869
 10
51.75027543594128
 20
12.000112900212473
 10
51.900395429777895
 20
12.000112845471094
 10
52.05051538408754
 20
12.000112741790682
 10
52.200635379014464
 20
12.000112590351266
 10
52.35075541371693
 20
12.00011243891181
 10
52.50087544841955
 20
12.000112287472378
 10
52.650995483122095
 20
12.000112136032921
 10
52.801115517824506
 20
12.000111984593433
 10
52.95123555252718
 20
12.000111833154001
 10
53.251475621932194
 20
12.00011153027509
 10
53.40159565663466
 20
12.000111378835602
 10
53.55171569133728
 20
12.00011122739617
 10
53.701835726039825
 20
12.000111075956713
 10
53.85195576074235
 20
12.000110924517259
 10
54.00207579544486
 20
12.000110773077793
 10
54.1521958301474
 20
12.000110621638337
 10
54.30231580886359
 20
12.000110470198939
 10
54.45243573420628
 20
12.000110251523731
 10
54.902795785013126
 20
12.000109403327139
 10
55.05291581971542
 20
12.000109120594875
 10
55.35315588912019
 20
12.000108555130412
 10
55.503275923822486
 20
12.000108272398181
 10
55.65339595852478
 20
12.000107989665917
 10
55.80351599322714
 20
12.000107706933685
 10
55.95363602792949
 20
12.000107424201454
 10
56.2538760973342
 20
12.000106858736991
 10
56.4039961320365
 20
12.000106576004727
 10
56.704236152231076
 20
12.000106010540359
 10
56.85435609187074
 20
12.000105668670976
 10
57.00447608076602
 20
12.000105271799905
 10
57.15459611546805
 20
12.000104874928688
 10
57.30471615017022
 20
12.000104478057464
 10
57.45483618487235
 20
12.00010408118627
 10
57.60495621957436
 20
12.000103684315047
 10
57.755076254276446
 20
12.00010328744383
 10
57.90519628897856
 20
12.000102890572638
 10
58.05531632368057
 20
12.000102493701412
 10
58.20543635838281
 20
12.00010209683022
 10
58.355556393084825
 20
12.000101699958995
 10
58.50567642778691
 20
12.00010130308778
 10
58.655796462488965
 20
12.000100906216554
 10
58.80591649719109
 20
12.000100509345362
 10
58.95603653189322
 20
12.000100112474168
 10
59.10615652588166
 20
12.000099715603028
 10
59.25627648232452
 20
12.000099269664451
 10
59.40639648009563
 20
12.000098779176486
 10
59.556516514797416
 20
12.000098288688402
 10
59.70663654949926
 20
12.000097798200317
 10
59.85675658420101
 20
12.00009730771221
 10
60.006876618902886
 20
12.000096817224124
 10
60.15699665360473
 20
12.00009632673604
 10
60.307116688306515
 20
12.000095836247954
 10
60.4572367230083
 20
12.00009534575987
 10
60.60735675771011
 20
12.000094855271762
 10
60.757476792411936
 20
12.000094364783644
 10
60.90759682711377
 20
12.00009387429556
 10
61.057716861815614
 20
12.000093383807476
 10
61.20783689651734
 20
12.00009289331939
 10
61.35795693121915
 20
12.000092402831282
 10
61.50807693378013
 20
12.000091912343303
 10
61.658196907339956
 20
12.000091383104147
 10
61.80831691359704
 20
12.000090819521425
 10
61.95843694829861
 20
12.000090255938574
 10
62.10855698300017
 20
12.00008969235572
 10
62.25867701770167
 20
12.000089128772869
 10
62.40879705240333
 20
12.00008856519004
 10
62.55891708710479
 20
12.000088001607189
 10
62.70903712180635
 20
12.000087438024336
 10
62.85915715650795
 20
12.000086874441507
 10
63.00927719120946
 20
12.000086310858656
 10
63.15939722591102
 20
12.000085747275802
 10
63.30951726061258
 20
12.000085183692951
 10
63.45963729531418
 20
12.000084620110123
 10
63.6097573300157
 20
12.00008405652727
 10
63.759877364717255
 20
12.000083492944418
 10
63.909997375911985
 20
12.000082929361676
 10
64.06011736700616
 20
12.000082337590898
 10
64.21023738127066
 20
12.000081721435535
 10
64.36035741597205
 20
12.000081105280087
 10
64.51047745067333
 20
12.000080489124615
 10
64.66059748537471
 20
12.000079872969167
 10
64.810717520076
 20
12.000079256813695
 10
64.96083755477737
 20
12.000078640658248
 10
65.11095758947876
 20
12.0000780245028
 10
65.26107762418005
 20
12.000077408347329
 10
65.41119765888148
 20
12.00007679219188
 10
65.56131769358277
 20
12.000076176036409
 10
65.71143772828414
 20
12.000075559880962
 10
65.86155776298553
 20
12.000074943725513
 10
66.01167779768676
 20
12.000074327570042
 10
66.16179783238819
 20
12.000073711414593
 10
66.31191785265099
 20
12.000073095259182
 10
66.4620378608293
 20
12.000072461726118
 10
66.61215788311736
 20
12.000071813520277
 10
66.76227791781855
 20
12.000071165314358
 10
66.91239795251974
 20
12.000070517108462
 10
67.06251798722093
 20
12.000069868902575
 10
67.21263802192215
 20
12.000069220696655
 10
67.36275805662339
 20
12.00006857249076
 10
67.51287809132464
 20
12.00006792428484
 10
67.66299812602583
 20
12.000067276078946
 10
67.81311816072702
 20
12.000066627873027
 10
67.96323819542832
 20
12.00006597966713
 10
68.11335823012945
 20
12.000065331461212
 10
68.26347826483072
 20
12.000064683255324
 10
68.41359829953186
 20
12.000064035049428
 10
68.5637183342331
 20
12.00006338684351
 10
68.71383836342687
 20
12.000062738637638
 10
68.86395838807536
 20
12.000062084111649
 10
69.01407841913826
 20
12.000061424377503
 10
69.16419845383936
 20
12.000060764643308
 10
69.31431848854058
 20
12.000060104909144
 10
69.46443852324172
 20
12.000059445174973
 10
69.6145585579429
 20
12.00005878544081
 10
69.764678592644
 20
12.000058125706614
 10
69.91479862734516
 20
12.000057465972452
 10
70.06491866204638
 20
12.000056806238256
 10
70.21503869674754
 20
12.000056146504093
 10
70.36515873144864
 20
12.000055486769899
 10
70.51527876614992
 20
12.000054827035735
 10
70.66539880085097
 20
12.00005416730154
 10
70.81551883555224
 20
12.000053507567378
 10
70.9656388702534
 20
12.000052847833182
 10
71.11575890495456
 20
12.00005218809902
 10
71.26587894727366
 20
12.00005153293921
 10
71.41599898810142
 20
12.000050881458272
 10
71.56611902280252
 20
12.00005022997736
 10
71.71623905750371
 20
12.000049578496437
 10
71.86635909220496
 20
12.000048927015525
 10
72.0164791269062
 20
12.000048275534636
 10
72.1665991616074
 20
12.000047624053725
 10
72.31671919630864
 20
12.000046972572836
 10
72.46683923100971
 20
12.000046321091924
 10
72.6169592657109
 20
12.000045669611001
 10
72.76707930041215
 20
12.00004501813009
 10
72.9171993351134
 20
12.0000443666492
 10
73.06731936981447
 20
12.000043715168289
 10
73.21743940451569
 20
12.000043063687377
 10
73.36755943921688
 20
12.000042412206454
 10
73.51767950132997
 20
12.000041777185698
 10
73.66779955237021
 20
12.000041151976117
 10
73.81791958707144
 20
12.000040526766613
 10
73.96803962177276
 20
12.000039901557098
 10
74.11815965647415
 20
12.000039276347618
 10
74.26827969117542
 20
12.000038651138103
 10
74.4183997258767
 20
12.000038025928623
 10
74.56851976057797
 20
12.000037400719108
 10
74.71863979527936
 20
12.000036775509628
 10
74.86875982998063
 20
12.000036150300115
 10
75.01887986468198
 20
12.00003552509061
 10
75.1689998993833
 20
12.000034899881097
 10
75.31911993408457
 20
12.000034274671616
 10
75.46923996878584
 20
12.000033649462102
 10
75.61936000348723
 20
12.000033024252621
 10
75.76948008956857
 20
12.00003242989554
 10
75.91960014641217
 20
12.000031848834436
 10
76.06972018111365
 20
12.000031267773442
 10
76.21984021581511
 20
12.000030686712458
 10
76.3699602505165
 20
12.000030105651442
 10
76.52008028521806
 20
12.000029524590426
 10
76.67020031991972
 20
12.000028943529465
 10
76.82032035462106
 20
12.000028362468447
 10
76.9704403893225
 20
12.00002778140743
 10
77.12056042402412
 20
12.000027200346446
 10
77.27068045872555
 20
12.000026619285453
 10
77.42080049342712
 20
12.000026038224469
 10
77.57092052812851
 20
12.000025457163451
 10
77.72104056283
 20
12.000024876102458
 10
77.87116059753146
 20
12.000024295041474
 10
78.02128071188551
 20
12.000023761809798
 10
78.17140077022819
 20
12.000023242774285
 10
78.32152080492995
 20
12.00002272373891
 10
78.47164083963153
 20
12.000022204703479
 10
78.62176087433335
 20
12.00002168566807
 10
78.7718809090351
 20
12.00002116663264
 10
78.92200094373686
 20
12.000020647597264
 10
79.07212097843845
 20
12.000020128561834
 10
79.22224101314026
 20
12.000019609526426
 10
79.3723610478419
 20
12.000019090490994
 10
79.52248108254372
 20
12.000018571455588
 10
79.6726011172454
 20
12.000018052420188
 10
79.82272115194706
 20
12.000017533384781
 10
79.97284118664874
 20
12.000017014349373
 10
80.1229612213505
 20
12.000016495313943
 10
80.27308136828117
 20
12.000016043669302
 10
80.42320142381904
 20
12.000015604536484
 10
80.5733214585209
 20
12.000015165403704
 10
80.87356152792496
 20
12.000014287138193
 10
81.02368156262698
 20
12.000013848005436
 10
81.17380159732883
 20
12.000013408872656
 10
81.32392163203077
 20
12.0000129697399
 10
81.47404166673279
 20
12.000012530607144
 10
81.62416170143486
 20
12.00001209147442
 10
81.77428173613667
 20
12.000011652341641
 10
81.92440177083871
 20
12.000011213208884
 10
82.07452180554073
 20
12.000010774076127
 10
82.22464184024263
 20
12.000010334943372
 10
82.37476187494461
 20
12.000009895810592
 10
82.52488205875576
 20
12.000009546214365
 10
82.67500210718495
 20
12.000009204861263
 10
82.82512214188705
 20
12.000008863508167
 10
82.97524217658935
 20
12.000008522155104
 10
83.12536221129156
 20
12.000008180802032
 10
83.27548224599377
 20
12.000007839448937
 10
83.42560228069607
 20
12.000007498095876
 10
83.57572231539825
 20
12.00000715674278
 10
83.72584235010052
 20
12.000006815389709
 10
83.87596238480268
 20
12.000006474036647
 10
84.02608241950486
 20
12.000006132683552
 10
84.17620245420713
 20
12.00000579133048
 10
84.3263224889094
 20
12.000005449977417
 10
84.62656255831382
 20
12.000004767271228
 10
84.77668278330864
 20
12.00000454018462
 10
84.92680282032572
 20
12.000004314488248
 10
85.07692285502807
 20
12.00000408879188
 10
85.22704288973065
 20
12.000003863095511
 10
85.37716292443307
 20
12.000003637399175
 10
85.52728295913548
 20
12.000003411702808
 10
85.67740299383794
 20
12.00000318600644
 10
85.8275230285403
 20
12.000002960310072
 10
85.97764306324277
 20
12.000002734613703
 10
86.12776309794529
 20
12.000002508917369
 10
86.57812320205264
 20
12.000001831828264
 10
86.72824323675505
 20
12.000001606131928
 10
86.87836328485795
 20
12.000001388482271
 10
87.02848352853825
 20
12.000001296319379
 10
87.17860356324086
 20
12.000001204156725
 10
87.32872359794352
 20
12.000001111994045
 10
87.47884363264602
 20
12.000001019831391
 10
87.62896366734869
 20
12.000000927668713
 10
87.77908370205115
 20
12.000000835506036
 10
87.92920373675376
 20
12.000000743343382
 10
88.07932377145632
 20
12.000000651180704
 10
88.22944380615904
 20
12.00000055901805
 10
88.37956384086159
 20
12.00000046685537
 10
88.5296838755642
 20
12.000000374692716
 10
88.67980391026664
 20
12.000000282530038
 10
88.82992394496922
 20
12.000000190367361
 10
88.98004397967195
 20
12.000000098204707
 10
89.13016403282636
 20
12.000000017121994
 10
89.28028418830186
 20
12.000000008560995
 10
89.43040422300439
 20
12.0
 10
89.45490850904221
 20
12.001203817021871
 10
89.47917680553027
 20
12.004803677465489
 10
89.50297539549003
 20
12.010764912704385
 10
89.5260750854739
 20
12.019030112780301
 10
89.54825341282364
 20
12.02951967929251
 10
89.56929678810745
 20
12.042132591973994
 10
89.58900255210317
 20
12.056747381571894
 10
89.60718092751749
 20
12.073223299662915
 10
89.62365684664515
 20
12.091401674137677
 10
89.6382716373668
 20
12.111107437299973
 10
89.6508845512483
 20
12.132150811864516
 10
89.66137411902525
 20
12.15432913861607
 10
89.66963932041845
 20
12.17742882812861
 10
89.6756005570145
 20
12.201227417748418
 10
89.67920041884204
 20
12.225495714031194
 10
89.6804042372613
 20
12.250000000000375
 10
89.68040423726107
 20
12.401515151514952
 10
89.68040423726119
 20
12.553030303029814
 10
89.68040423726119
 20
12.704545454545272
 10
89.68040423726119
 20
12.85606060606051
 10
89.68040423726119
 20
13.00757575757578
 10
89.68040423726119
 20
13.159090909091018
 10
89.68040423726119
 20
13.310606060606256
 10
89.68040423726119
 20
13.46212121212155
 10
89.68040423726119
 20
13.613636363636788
 10
89.68040423726119
 20
13.76515151515206
 10
89.68040423726119
 20
14.068181818182534
 10
89.68040423726119
 20
14.219696969697805
 10
89.68040423726119
 20
14.371212121213043
 10
89.68040423726119
 20
14.522727272728314
 10
89.68040423726119
 20
14.674242424243552
 10
89.68040423726119
 20
14.825757575758821
 10
89.68040423726119
 20
15.128787878789298
 10
89.68040423726119
 20
15.28030303030459
 10
89.68040423726119
 20
15.43181818181983
 10
89.68040423726119
 20
15.583333333334913
 10
89.6804042372613
 20
15.73484848485015
 10
89.6804042372613
 20
15.886363636365608
 10
89.6804042372613
 20
16.037878787880846
 10
89.6804042372613
 20
16.189393939396084
 10
89.6804042372613
 20
16.340909090911353
 10
89.6804042372613
 20
16.492424242426594
 10
89.6804042372613
 20
16.643939393941864
 10
89.6804042372613
 20
16.7954545454571
 10
89.6804042372613
 20
16.94696969697234
 10
89.6804042372613
 20
17.098484848487633
 10
89.6804042372613
 20
17.2499999999999
 10
101.68040423726153
 20
17.2499999999999
 10
101.68040423726153
 20
0.0
 10
0.0
 20
0.0
  0
TEXT
  5
34
330
17
100
AcDbEntity
  8
LABEL
100
AcDbText
 10
2.0
 20
5.000000000000001
 30
0.0
 40
2.2
  1
T01A TOOL ONLY
100
AcDbText
  0
LWPOLYLINE
  5
35
330
17
100
AcDbEntity
  8
CUT_TOOL
100
AcDbPolyline
 90
611
 70
1
 10
0.0
 20
42.4999999999998
 10
101.68040423726153
 20
42.4999999999998
 10
101.68040423726153
 20
25.2499999999999
 10
89.6804042372613
 20
25.2499999999999
 10
89.6804042372613
 20
25.250000000002874
 10
89.6804042372613
 20
25.401515151518144
 10
89.6804042372613
 20
25.55303030303338
 10
89.6804042372613
 20
25.70454545454865
 10
89.6804042372613
 20
25.856060606063892
 10
89.6804042372613
 20
26.007575757579126
 10
89.6804042372613
 20
26.1590909090944
 10
89.6804042372613
 20
26.310606060609636
 10
89.6804042372613
 20
26.462121212124906
 10
89.6804042372613
 20
26.613636363640147
 10
89.6804042372613
 20
26.765151515155253
 10
89.68040423726141
 20
26.916666666670487
 10
89.68040423726141
 20
27.068181818185913
 10
89.68040423726141
 20
27.219696969701186
 10
89.68040423726141
 20
27.371212121216423
 10
89.68040423726141
 20
27.522727272731693
 10
89.68040423726141
 20
27.67424242424693
 10
89.68040423726141
 20
27.825757575762168
 10
89.68040423726141
 20
27.97727272727744
 10
89.68040423726141
 20
28.12878787879268
 10
89.68040423726141
 20
28.280303030307948
 10
89.68040423726141
 20
28.431818181823186
 10
89.68040423726141
 20
28.58333333333848
 10
89.68040423726141
 20
28.734848484853718
 10
89.68040423726141
 20
28.886363636368955
 10
89.68040423726141
 20
29.037878787884225
 10
89.68040423726141
 20
29.189393939399466
 10
89.68040423726141
 20
29.340909090914735
 10
89.68040423726141
 20
29.492424242429973
 10
89.68040423726141
 20
29.643939393945246
 10
89.68040423726141
 20
29.94696969697553
 10
89.68040423726153
 20
30.098484848490802
 10
89.6804042372613
 20
30.250000000000178
 10
89.67920041892549
 20
30.274504285121388
 10
89.67560055734681
 20
30.298772580580724
 10
89.66963932116028
 20
30.322571169425768
 10
89.66137412032927
 20
30.345670858235586
 10
89.65088455325626
 20
30.36784918437865
 10
89.6382716402067
 20
30.388892558449626
 10
89.62365685042852
 20
30.40859832125209
 10
89.607180932337
 20
30.42677669551738
 10
89.58900255803053
 20
30.443252613563452
 10
89.56929679519153
 20
30.457867403292376
 10
89.54825342108903
 20
30.470480316289347
 10
89.52607509491973
 20
30.480969883306912
 10
89.50297540608926
 20
30.48923508408018
 10
89.47917681722932
 20
30.495196320207228
 10
89.45490852176098
 20
30.49879618172524
 10
89.43040423663676
 20
30.4999999999998
 10
89.28028420193418
 20
30.499999999624777
 10
89.13016416723151
 20
30.499999999249773
 10
88.9800441325289
 20
30.49999999887475
 10
88.8299240978263
 20
30.49999999849971
 10
88.67980406312374
 20
30.499999998124686
 10
88.52968402842104
 20
30.49999999774966
 10
88.3795639937185
 20
30.49999999737466
 10
88.22944395901588
 20
30.499999996999634
 10
88.07932392431334
 20
30.49999999662463
 10
87.92920388961055
 20
30.499999996249574
 10
87.77908385490802
 20
30.499999995874546
 10
87.62896382020547
 20
30.499999995499543
 10
87.47884378550275
 20
30.49999999512452
 10
87.32872375080017
 20
30.499999994749494
 10
87.17860371351597
 20
30.499999992824264
 10
87.02848364567296
 20
30.499999970998864
 10
86.87836361097025
 20
30.499999949173457
 10
86.72824357626769
 20
30.499999927348057
 10
86.57812354156509
 20
30.49999990552265
 10
86.42800350686247
 20
30.499999883697217
 10
86.27788347215983
 20
30.49999986187182
 10
86.12776343745723
 20
30.49999984004641
 10
85.97764340275467
 20
30.499999818221013
 10
85.82752336805203
 20
30.49999979639558
 10
85.67740333334943
 20
30.499999774570206
 10
85.52728329864675
 20
30.499999752744774
 10
85.37716326394417
 20
30.499999730919342
 10
85.22704322924169
 20
30.49999970909397
 10
85.07692319453889
 20
30.499999687268534
 10
84.9268031549504
 20
30.499999662509218
 10
84.7766830913298
 20
30.49999962038519
 10
84.62656305662728
 20
30.4999995782612
 10
84.47644302192457
 20
30.499999536137203
 10
84.32632298722194
 20
30.49999949401318
 10
84.17620295251936
 20
30.49999945188916
 10
84.02608291781678
 20
30.499999409765138
 10
83.8759628831142
 20
30.49999936764112
 10
83.72584284841156
 20
30.49999932551713
 10
83.57572281370892
 20
30.49999928339311
 10
83.42560277900634
 20
30.49999924126909
 10
83.27548274430376
 20
30.49999919914507
 10
83.12536270960106
 20
30.49999915702105
 10
82.97524267489848
 20
30.49999911489703
 10
82.82512264019596
 20
30.49999907277304
 10
82.67500259858029
 20
30.499999026497886
 10
82.52488253890488
 20
30.49999896522703
 10
82.37476250420215
 20
30.49999890395617
 10
82.2246424694996
 20
30.49999884268532
 10
82.07452243479705
 20
30.49999878141449
 10
81.92440240009438
 20
30.49999872014361
 10
81.77428236539188
 20
30.499998658872784
 10
81.62416233068922
 20
30.499998597601902
 10
81.4740422959866
 20
30.499998536331077
 10
81.32392226128398
 20
30.499998475060224
 10
81.17380222658139
 20
30.499998413789363
 10
80.87356215717625
 20
30.499998291247664
 10
80.72344212247364
 20
30.499998229976807
 10
80.57332208777098
 20
30.499998168705957
 10
80.42320204440553
 20
30.49999810223323
 10
80.27308198839805
 20
30.499998022967326
 10
80.12296195369545
 20
30.499997943701423
 10
79.97284191899283
 20
30.499997864435493
 10
79.82272188429029
 20
30.49999778516959
 10
79.67260184958766
 20
30.49999770590366
 10
79.52248181488517
 20
30.499997626637786
 10
79.3723617801825
 20
30.499997547371862
 10
79.22224174547996
 20
30.499997468105953
 10
79.07212171077734
 20
30.49999738884003
 10
78.92200167607469
 20
30.499997309574123
 10
78.77188164137212
 20
30.499997230308225
 10
78.62176160666952
 20
30.499997151042322
 10
78.4716415719669
 20
30.499997071776395
 10
78.32152153726436
 20
30.49999699251049
 10
78.17140149242636
 20
30.499996907158465
 10
78.02128143980944
 20
30.499996811049233
 10
77.87116140510696
 20
30.499996714940067
 10
77.72104137040432
 20
30.499996618830867
 10
77.57092133570175
 20
30.499996522721677
 10
77.42080130099922
 20
30.499996426612512
 10
77.27068126629658
 20
30.49999633050331
 10
77.12056123159401
 20
30.49999623439412
 10
76.97044119689147
 20
30.499996138284956
 10
76.82032116218879
 20
30.49999604217573
 10
76.67020112748631
 20
30.499995946066566
 10
76.52008109278367
 20
30.499995849957365
 10
76.3699610580811
 20
30.499995753848175
 10
76.21984102337856
 20
30.499995657739007
 10
76.06972098867593
 20
30.49999556162981
 10
75.91960094264255
 20
30.499995458716686
 10
75.76948089313916
 20
30.499995346915973
 10
75.61936085843658
 20
30.49999523511527
 10
75.31912078903142
 20
30.499995011513874
 10
75.169000754329
 20
30.499994899713204
 10
75.01888071962634
 20
30.499994787912478
 10
74.86876068492379
 20
30.49999467611178
 10
74.7186406502212
 20
30.499994564311077
 10
74.41840058081604
 20
30.499994340709677
 10
74.26828054611346
 20
30.499994228908974
 10
74.11816051141088
 20
30.499994117108272
 10
73.9680404767083
 20
30.49999400530757
 10
73.81792044200571
 20
30.499993893506872
 10
73.66780039505431
 20
30.499993774350912
 10
73.51768034838722
 20
30.49999364801051
 10
73.3675603136846
 20
30.49999352167009
 10
73.21744027898197
 20
30.499993395329636
 10
73.06732024427944
 20
30.499993268989215
 10
72.91720020957685
 20
30.49999314264879
 10
72.7670801748744
 20
30.49999301630837
 10
72.61696014017176
 20
30.49999288996792
 10
72.46684010546923
 20
30.4999927636275
 10
72.31672007076662
 20
30.49999263728707
 10
72.16660003606407
 20
30.49999251094665
 10
72.01648000136154
 20
30.4999923846062
 10
71.86635996665902
 20
30.49999225826578
 10
71.71623993195641
 20
30.499992131925353
 10
71.56611989725386
 20
30.499992005584936
 10
71.41599984966159
 20
30.499991871504434
 10
71.26587980555335
 20
30.49999173177603
 10
71.11575977085079
 20
30.499991592047646
 10
70.9656397361482
 20
30.499991452319257
 10
70.81551970144574
 20
30.499991312590872
 10
70.66539966674314
 20
30.49999117286248
 10
70.51527963204057
 20
30.49999103313409
 10
70.3651595973381
 20
30.499990893405705
 10
70.21503956263552
 20
30.499990753677316
 10
70.06491952793294
 20
30.49999061394893
 10
69.9147994932304
 20
30.49999047422054
 10
69.7646794585279
 20
30.49999033449215
 10
69.61455942382531
 20
30.499990194763765
 10
69.46443938912279
 20
30.499990055035376
 10
69.31431935442019
 20
30.499989915306983
 10
69.16419930646424
 20
30.499989767620157
 10
69.01407926463781
 20
30.49998961565558
 10
68.8639592299353
 20
30.49998946369101
 10
68.71383919523277
 20
30.499989311726438
 10
68.5637191605301
 20
30.49998915976181
 10
68.26347909112515
 20
30.499988855832676
 10
68.11335905642261
 20
30.499988703868105
 10
67.96323902172006
 20
30.49998855190351
 10
67.81311898701752
 20
30.499988399938943
 10
67.66299895231498
 20
30.499988247974372
 10
67.51287891761247
 20
30.4999880960098
 10
67.3627588829099
 20
30.49998794404521
 10
67.21263884820736
 20
30.499987792080603
 10
67.0625188135049
 20
30.499987640116036
 10
66.91239876546251
 20
30.499987480141165
 10
66.76227872564051
 20
30.499987317092167
 10
66.61215869093805
 20
30.499987154043176
 10
66.46203865623552
 20
30.49998699099418
 10
66.311918621533
 20
30.499986827945186
 10
66.16179858683047
 20
30.49998666489619
 10
66.01167855212805
 20
30.499986501847257
 10
65.41119841331785
 20
30.499985849651285
 10
65.26107837861537
 20
30.499985686602315
 10
65.11095834391286
 20
30.499985523553356
 10
64.81071827450775
 20
30.499985197455366
 10
64.66059822665616
 20
30.499985026510608
 10
64.51047818856158
 20
30.499984853528993
 10
64.36035815385901
 20
30.499984680547364
 10
64.21023811915654
 20
30.499984507565763
 10
64.06011808445402
 20
30.499984334584127
 10
63.609757980346444
 20
30.499983815639233
 10
63.459637945643976
 20
30.499983642657597
 10
63.309517910941494
 20
30.49998346967599
 10
63.15939787623893
 20
30.499983296694356
 10
63.0092778415364
 20
30.499983123712724
 10
62.85915780683388
 20
30.499982950731088
 10
62.70903777213141
 20
30.49998277774946
 10
62.558917737428885
 20
30.499982604767823
 10
62.40879769004539
 20
30.499982424171503
 10
62.25867765340084
 20
30.49998224240901
 10
62.10855761869831
 20
30.499982060646524
 10
61.9584375839958
 20
30.499981878884043
 10
61.80831754929332
 20
30.499981697121555
 10
61.658197514590796
 20
30.499981515359067
 10
61.508077479888286
 20
30.499981333596587
 10
61.357957445185804
 20
30.4999811518341
 10
61.20783741048328
 20
30.499980970071608
 10
61.05771737578077
 20
30.499980788309095
 10
60.90759734107834
 20
30.49998060654664
 10
60.75747730637576
 20
30.499980424784148
 10
60.60735727167326
 20
30.49998024302164
 10
60.45723723697077
 20
30.49998006125915
 10
60.30711720226836
 20
30.499979879496692
 10
60.156997155629995
 20
30.499979690566988
 10
60.006877120158315
 20
30.499979501175403
 10
59.85675708545579
 20
30.499979311783818
 10
59.70663705075333
 20
30.499979122392233
 10
59.5565170160508
 20
30.499978933000648
 10
59.25627694664586
 20
30.499978554217478
 10
59.10615691194334
 20
30.499978364825893
 10
58.95603687724088
 20
30.499978175434308
 10
58.805916842538394
 20
30.499977986042758
 10
58.655796807835884
 20
30.499977796651173
 10
58.50567677313335
 20
30.499977607259588
 10
58.355556738430884
 20
30.499977417868003
 10
58.205436703728324
 20
30.499977228476396
 10
58.05531666889951
 20
30.499977039008918
 10
57.90519662353654
 20
30.499976843140004
 10
57.755076588834015
 20
30.49997664727111
 10
57.60495655413155
 20
30.499976451402212
 10
57.45483651942908
 20
30.499976255533316
 10
57.304716484726555
 20
30.49997605966442
 10
57.15459645002414
 20
30.499975863795555
 10
57.004476415321655
 20
30.499975667926684
 10
56.854356380619144
 20
30.499975472057784
 10
56.70423634591663
 20
30.499975276188888
 10
56.55411631121415
 20
30.49997508031999
 10
56.40399627651169
 20
30.499974884451092
 10
56.25387624180917
 20
30.4999746885822
 10
56.10375620710669
 20
30.4999744927133
 10
55.95363617240423
 20
30.499974296844403
 10
55.803516136956894
 20
30.499974100528263
 10
55.65339609413045
 20
30.499973899333824
 10
55.50327605942795
 20
30.499973698139378
 10
55.353156024725465
 20
30.499973496944918
 10
55.20303599002305
 20
30.499973295750493
 10
55.05291595532054
 20
30.499973094556047
 10
54.902795920618054
 20
30.49997289336162
 10
54.752675885915494
 20
30.499972692167137
 10
54.602555851213125
 20
30.499972490972713
 10
54.45243581651065
 20
30.499972289778285
 10
54.30231578180809
 20
30.499972088583803
 10
54.15219574710572
 20
30.49997188738938
 10
54.002075712403155
 20
30.499971686194932
 10
53.85195567770073
 20
30.499971485000508
 10
53.701835642998205
 20
30.499971283806047
 10
53.55171560767994
 20
30.499971082241814
 10
53.40159556965183
 20
30.4999708786806
 10
53.10135550024689
 20
30.49997047155817
 10
52.95123546554443
 20
30.499970267996957
 10
52.8011154308419
 20
30.499970064435743
 10
52.650995396139436
 20
30.49996986087453
 10
52.500875361436925
 20
30.499969657313294
 10
52.35075532673444
 20
30.499969453752048
 10
52.200635292032025
 20
30.499969250190833
 10
52.050515257329565
 20
30.499969046629623
 10
51.90039522262709
 20
30.49996884306841
 10
51.75027518792457
 20
30.499968639507195
 10
51.45003511851963
 20
30.499968232384767
 10
51.29991508381717
 20
30.499968028823552
 10
51.14979505190284
 20
30.49996782693657
 10
50.999675031597576
 20
30.499967633694833
 10
50.849554996895016
 20
30.49996744045306
 10
50.69943496219258
 20
30.499967247211305
 10
50.54931492749002
 20
30.49996705396953
 10
50.39919489278759
 20
30.499966860727778
 10
50.24907485808509
 20
30.499966667486003
 10
50.0989548233826
 20
30.49996647424425
 10
49.948834788680095
 20
30.49996628100247
 10
49.79871475397761
 20
30.49996608776069
 10
49.6485947192751
 20
30.499965894518915
 10
49.49847468457267
 20
30.499965701277162
 10
49.34835464987021
 20
30.49996550803541
 10
49.19823461516764
 20
30.499965314793634
 10
49.04811458046522
 20
30.49996512155188
 10
48.89799454576271
 20
30.499964928310106
 10
48.74787453414193
 20
30.499964739471853
 10
48.44763448524411
 20
30.499964405336954
 10
48.29751445054153
 20
30.499964238269456
 10
48.14739441583906
 20
30.499964071201994
 10
47.99727438113659
 20
30.499963904134532
 10
47.69703431173154
 20
30.499963569999608
 10
47.54691427702896
 20
30.499963402932114
 10
47.096554172921444
 20
30.499962901729727
 10
46.94643413821886
 20
30.499962734662233
 10
46.496074034111345
 20
30.499962233459847
 10
46.34595404155879
 20
30.499962073715444
 10
46.195834034700525
 20
30.49996194867815
 10
46.045713999997886
 20
30.4999618236408
 10
45.895593965295305
 20
30.49996169860345
 10
45.74547393059278
 20
30.499961573566097
 10
45.5953538958902
 20
30.499961448528747
 10
45.445233861187674
 20
30.499961323491398
 10
45.29511382648509
 20
30.499961198454045
 10
45.14499379178251
 20
30.4999610734167
 10
44.99487375708001
 20
30.499960948379357
 10
44.844753722377405
 20
30.499960823342008
 10
44.69463368767482
 20
30.499960698304655
 10
44.5445136529723
 20
30.499960573267305
 10
44.39439361826972
 20
30.499960448229956
 10
44.244273583567136
 20
30.499960323192603
 10
44.09415356249172
 20
30.499960198155264
 10
43.94403357143565
 20
30.499960083550825
 10
43.79391357585888
 20
30.499960016399434
 10
43.643793541156256
 20
30.499959949248005
 10
43.49367350645366
 20
30.499959882096597
 10
43.34355347175104
 20
30.499959814945164
 10
43.1934334370485
 20
30.49995974779376
 10
43.04331340234587
 20
30.499959680642327
 10
42.893193367643335
 20
30.49995961349095
 10
42.743073332940654
 20
30.49995954633952
 10
42.592953298238115
 20
30.499959479188114
 10
42.442833263535434
 20
30.49995941203668
 10
42.292713228832895
 20
30.499959344885276
 10
42.14259319413027
 20
30.499959277733844
 10
41.99247315942773
 20
30.499959210582436
 10
41.84235312472505
 20
30.499959143431006
 10
41.69223309970894
 20
30.499959076279602
 10
41.542113127018936
 20
30.499959022580917
 10
41.39199314091484
 20
30.4999590276658
 10
41.2418731062123
 20
30.499959032750706
 10
41.09175307150957
 20
30.49995903783556
 10
40.941633036806984
 20
30.49995904292044
 10
40.791513002104445
 20
30.49995904800535
 10
40.641392967401714
 20
30.4999590530902
 10
40.49127293269918
 20
30.499959058175087
 10
40.34115289799659
 20
30.499959063259993
 10
40.19103286329397
 20
30.49995906834488
 10
40.04091282859131
 20
30.49995907342975
 10
39.89079279388874
 20
30.499959078514635
 10
39.740672759186104
 20
30.49995908359952
 10
39.59055272448346
 20
30.499959088684395
 10
39.2903126550783
 20
30.499959098854163
 10
39.14019261289531
 20
30.499959099447242
 10
38.990072546760636
 20
30.499959081166008
 10
38.839952512058005
 20
30.49995906288474
 10
38.68983247735538
 20
30.499959044603486
 10
38.539712442652835
 20
30.49995902632225
 10
38.389592407950104
 20
30.49995900804096
 10
38.239472373247615
 20
30.499958989759726
 10
38.08935233854498
 20
30.499958971478495
 10
37.9392323038423
 20
30.499958953197208
 10
37.78911226913976
 20
30.499958934915973
 10
37.638992234437175
 20
30.49995891663474
 10
37.488872199734445
 20
30.499958898353448
 10
37.338752165031956
 20
30.499958880072214
 10
37.18863213032932
 20
30.49995886179098
 10
37.03851209562664
 20
30.49995884350969
 10
36.88839196787189
 20
30.499958769352393
 10
36.73827167442163
 20
30.499958539821918
 10
36.588151639719115
 20
30.49995831029167
 10
36.438031605016754
 20
30.49995808076146
 10
36.287911570314286
 20
30.499957851231244
 10
36.137791535611825
 20
30.499957621700997
 10
35.98767150090941
 20
30.499957392170785
 10
35.837551466206996
 20
30.49995716264057
 10
35.68743143150447
 20
30.499956933110322
 10
35.53731139680212
 20
30.49995670358011
 10
35.38719107233329
 20
30.49995630005007
 10
35.23707089368066
 20
30.49995581008062
 10
35.08695085897893
 20
30.49995532011163
 10
34.93683082427708
 20
30.499954830142645
 10
34.786710789575245
 20
30.499954340173623
 10
34.63659075487346
 20
30.49995385020464
 10
34.48647072017162
 20
30.49995336023562
 10
34.336350685469824
 20
30.499952870266632
 10
34.186230600268644
 20
30.49995234997352
 10
34.03611025002183
 20
30.49995164020025
 10
33.88599021532094
 20
30.499950930428298
 10
33.73587018062
 20
30.49995022065634
 10
33.58575014591898
 20
30.499949510884335
 10
33.43563011121813
 20
30.499948801112378
 10
33.28551007651716
 20
30.4999480913404
 10
33.13539004181627
 20
30.499947381568447
 10
32.98527000711533
 20
30.499946671796494
 10
32.835149972414364
 20
30.49994596202452
 10
32.685029793117835
 20
30.499945165424755
 10
32.53490963600832
 20
30.49994429532061
 10
32.38478960130823
 20
30.499943425217168
 10
32.234669566608105
 20
30.499942555113705
 10
32.08454953190807
 20
30.499941685010263
 10
31.934429497207944
 20
30.4999408149068
 10
31.7843094625079
 20
30.499939944803355
 10
31.634189427807677
 20
30.49993907469986
 10
31.484069393107646
 20
30.499938204596393
 10
31.3339493584076
 20
30.499937334492948
 10
31.183829323707485
 20
30.499936464389485
 10
31.033709289007447
 20
30.499935594286043
 10
30.883589254307324
 20
30.49993472418258
 10
30.733469219607187
 20
30.499933854079114
 10
30.583349174488923
 20
30.49993297771964
 10
30.433229134887505
 20
30.49993209841701
 10
30.28310910018753
 20
30.499931219114437
 10
30.132989065487358
 20
30.49993033981181
 10
29.68262896138733
 20
30.499927701904
 10
29.532508926687264
 20
30.499926822601402
 10
29.08214882258718
 20
30.49992418469359
 10
28.932028787887155
 20
30.49992330539102
 10
28.781908753187032
 20
30.499922426088396
 10
28.63178871848705
 20
30.499921546785792
 10
28.48166868378697
 20
30.499920667483188
 10
28.331548745364664
 20
30.499919788181177
 10
28.1814288543587
 20
30.49991902582703
 10
28.03130886357485
 20
30.49991831699463
 10
27.88118882887398
 20
30.499917608162065
 10
27.430828724771175
 20
30.49991548166435
 10
27.280708690070185
 20
30.49991477283178
 10
27.130588655369195
 20
30.49991406399917
 10
26.98046862066836
 20
30.499913355166626
 10
26.830348585967386
 20
30.499912646334053
 10
26.68022875094608
 20
30.499911942977207
 10
26.530108907023525
 20
30.499911468608097
 10
26.379988872321633
 20
30.49991099423835
 10
26.22986883761984
 20
30.499910519868635
 10
26.07974880291794
 20
30.499910045498922
 10
25.92962876821614
 20
30.499909571129233
 10
25.7795087335142
 20
30.499909096759488
 10
25.629388698812363
 20
30.499908622389775
 10
25.47926877367542
 20
30.499908148020406
 10
25.32914895975381
 20
30.49990780480509
 10
25.17902903754984
 20
30.499907596354543
 10
25.028909002847314
 20
30.499907387903807
 10
24.878788968144903
 20
30.499907179453103
 10
24.728668933442435
 20
30.499906971002403
 10
24.57854889874001
 20
30.49990676255172
 10
24.428428864037443
 20
30.499906554100985
 10
24.27830907056061
 20
30.499906353919258
 10
23.978069229240276
 20
30.499906500640904
 10
23.827949194537638
 20
30.499906574001784
 10
23.527709125132475
 20
30.499906720723544
 10
23.37758925000297
 20
30.499906794084346
 10
23.227469468409424
 20
30.49990705887441
 10
23.077349525652167
 20
30.499907435253398
 10
22.777109456247814
 20
30.49990818801173
 10
22.626989421545787
 20
30.49990856439095
 10
22.476869451678695
 20
30.49990894076995
 10
22.326749705418848
 20
30.499909397612463
 10
22.176629889726073
 20
30.499910117636524
 10
22.026509855025154
 20
30.49991083766161
 10
21.726269785623444
 20
30.499912277711832
 10
21.57614975092251
 20
30.499912997736942
 10
21.426029960354114
 20
30.49991371776085
 10
21.275910218398664
 20
30.49991473073178
 10
21.12579022999357
 20
30.499915800938496
 10
20.825550160595995
 20
30.49991794135253
 10
20.67543027152702
 20
30.499919011558504
 10
20.525310528747752
 20
30.49992025780922
 10
20.37519063677614
 20
30.49992167645683
 10
20.225070602080265
 20
30.499923095105814
 10
20.074950567384334
 20
30.49992451375477
 10
19.924830586291364
 20
30.499925932403276
 10
19.77471086633095
 20
30.49992741655748
 10
19.624591090559278
 20
30.499929211859282
 10
19.474471055867483
 20
30.499931007164243
 10
19.324351021175588
 20
30.499932802469168
 10
19.174230986483707
 20
30.4999345977741
 10
19.0241112360321
 20
30.49993639307562
 10
18.87399153780524
 20
30.499938529522527
 10
18.723871556661834
 20
30.499940729696725
 10
18.573751521975424
 20
30.49994292987173
 10
18.4236314872889
 20
30.49994513004674
 10
18.273511636570873
 20
30.49994733021905
 10
18.1233919624447
 20
30.499949751824
 10
17.97327210447
 20
30.499952385080213
 10
17.823152069790538
 20
30.499955018339556
 10
17.673032035111035
 20
30.499957651598898
 10
17.522912000431432
 20
30.49996028485821
 10
17.522468464423355
 20
30.499959899189612
 10
17.372349737661693
 20
30.49969619977592
 10
17.36947434993698
 20
30.499674612186706
 10
17.219374345997153
 20
30.49768438830607
 10
17.21235463972586
 20
30.497492677051156
 10
17.062366088948878
 20
30.491287299505515
 10
17.055106478242607
 20
30.490881128114452
 10
16.90535865472222
 20
30.48031636734919
 10
16.897917073597824
 20
30.47967951850827
 10
16.74855292318736
 20
30.464646362694225
 10
16.74150751499937
 20
30.463836162079694
 10
16.592633931893175
 20
30.444572939809525
 10
16.585621267686676
 20
30.443564322641492
 10
16.437356745788165
 20
30.42009082792183
 10
16.430375790279115
 20
30.418883960199807
 10
16.28283875035332
 20
30.3912193165717
 10
16.275888520856284
 20
30.38981376515465
 10
16.129197666694807
 20
30.357976459596706
 10
16.12227732611693
 20
30.35637120555713
 10
15.976551992771746
 20
30.32037917735675
 10
15.969660941779779
 20
30.318572638083356
 10
15.825021430620012
 20
30.27844342219256
 10
15.818159418719816
 20
30.27643348860194
 10
15.674727310072242
 20
30.232184424778985
 10
15.667902943704206
 20
30.229971369062138
 10
15.525799579912444
 20
30.181624889931054
 10
15.519039591589916
 20
30.179216207005084
 10
15.378381703200176
 20
30.126810695590226
 10
15.37171099478681
 20
30.124216019418395
 10
15.232609754495769
 20
30.067804830125773
 10
15.226031458553066
 20
30.065027017174145
 10
15.088596392651894
 20
30.004665363437812
 10
15.082109379037576
 20
30.001705195544968
 10
14.946449573530202
 20
29.9374475784742
 10
14.940052758877613
 20
29.93430520903621
 10
14.806277233581767
 20
29.866205444989873
 10
14.799969676809368
 20
29.862880421349644
 10
14.668187746622706
 20
29.79099172625874
 10
14.661968740993089
 20
29.787483020455603
 10
14.532290359279969
 20
29.711858148866497
 10
14.525900530502838
 20
29.708002832340732
 10
14.39853597869552
 20
29.628540289202196
 10
14.392369197421203
 20
29.62456596214242
 10
14.267393388707262
 20
29.541401879004678
 10
14.261447429075531
 20
29.537320234965748
 10
14.138925508624197
 20
29.45058789887348
 10
14.133031204175737
 20
29.446284859931808
 10
14.013095725520216
 20
29.356015264017486
 10
14.007099782864131
 20
29.351358125623058
 10
13.889963614989526
 20
29.257490698959536
 10
13.884064316064965
 20
29.25261310828091
 10
13.769858615896524
 20
29.155205152730716
 10
13.764135357715546
 20
29.150170968027396
 10
13.652953476628298
 20
29.04932777222681
 10
13.647414716717307
 20
29.044148799557092
 10
13.539343131375333
 20
28.939980837148035
 10
13.533986225886594
 20
28.934659041647762
 10
13.429110270527389
 20
28.827275166532353
 10
13.423932834801079
 20
28.821811750613392
 10
13.322337155917367
 20
28.71131935085316
 10
13.31733717167161
 20
28.70571483326472
 10
13.219106135958086
 20
28.592220048670193
 10
13.214282046456532
 20
28.586474350637758
 10
13.119500097748897
 20
28.470082346823673
 10
13.114850891862176
 20
28.464194884982042
 10
13.023602852988205
 20
28.345010177205346
 10
13.019128138850846
 20
28.33897996339217
 10
12.931499454291469
 20
28.217106783900242
 10
12.927199522967456
 20
28.210932532144312
 10
12.843276438043873
 20
28.086475234999522
 10
12.839152317275563
 20
28.080155476228146
 10
12.759021989280228
 20
27.95321897360728
 10
12.75507548700837
 20
27.946752178687216
 10
12.678826023346872
 20
27.817442402454148
 10
12.674986688386056
 20
27.810694000480233
 10
12.602787770511938
 20
27.679075836547888
 10
12.599039050810973
 20
27.671973751718802
 10
12.531105456644582
 20
27.538105862200467
 10
12.52773596349219
 20
27.531205420672663
 10
12.463947883524028
 20
27.395318447778767
 10
12.46080886489193
 20
27.388356963151306
 10
12.40120239063748
 20
27.25058871450216
 10
12.398293829529521
 20
27.24357585133493
 10
12.3428993245994
 20
27.104064119502212
 10
12.34021795696043
 20
27.097001788752536
 10
12.289064713313962
 20
26.955882417411207
 10
12.286607430543555
 20
26.94877114714039
 10
12.239724487475385
 20
26.806178109679628
 10
12.23748873377751
 20
26.799017831639784
 10
12.194905231532502
 20
26.655083560205018
 10
12.192889070394315
 20
26.647873724855092
 10
12.154634535874052
 20
26.50272947897501
 10
12.152836702954588
 20
26.495469171991672
 10
12.118941266577124
 20
26.349245438639457
 10
12.11736120996288
 20
26.34193349908724
 10
12.087855752661014
 20
26.194760416597347
 10
12.086493661103304
 20
26.18739555716339
 10
12.061409890224695
 20
26.039403355794025
 10
12.060266709599304
 20
26.031984285648853
 10
12.039637162154278
 20
25.883303737720485
 10
12.038714599984672
 20
25.875829288611644
 10
12.022572571343204
 20
25.726592161051382
 10
12.02187308882327
 20
25.719061417191817
 10
12.010252484646287
 20
25.569400918970068
 10
12.009779275198213
 20
25.5618133511172
 10
12.002714384173117
 20
25.41186456747529
 10
12.002471235040005
 20
25.404213970538922
 10
12.000000144403842
 20
25.254114275235516
 10
12.000000072140892
 20
25.2499999999999
 10
0.0
 20
25.2499999999999
  0
TEXT
  5
36
330
17
100
AcDbEntity
  8
LABEL
100
AcDbText
 10
2.0
 20
37.4999999999998
 30
0.0
 40
2.2
  1
T01B TOOL ONLY
100
AcDbText
  0
LWPOLYLINE
  5
37
330
17
100
AcDbEntity
  8
CAD_OUTER
100
AcDbPolyline
 90
1132
 70
1
 10
89.4304042372613
 20
22.2499999999998
 10
89.28028420255872
 20
22.249999999624777
 10
89.13016416785602
 20
22.249999999249773
 10
88.98004413315344
 20
22.24999999887475
 10
88.82992409845086
 20
22.24999999849971
 10
88.67980406374828
 20
22.249999998124686
 10
88.52968402904558
 20
22.24999999774966
 10
88.379563994343
 20
22.24999999737466
 10
88.22944395964042
 20
22.249999996999634
 10
88.07932392493784
 20
22.24999999662463
 10
87.92920389023514
 20
22.24999999624957
 10
87.77908385553256
 20
22.249999995874546
 10
87.62896382082998
 20
22.249999995499543
 10
87.47884378612729
 20
22.24999999512452
 10
87.3287237514247
 20
22.249999994749494
 10
87.17860371672212
 20
22.249999992824264
 10
87.02848368201954
 20
22.249999970998864
 10
86.87836364731685
 20
22.249999949173457
 10
86.72824361261426
 20
22.249999927348057
 10
86.57812357791168
 20
22.24999990552265
 10
86.4280035432091
 20
22.249999883697217
 10
86.2778835085064
 20
22.24999986187182
 10
86.12776347380382
 20
22.24999984004641
 10
85.97764343910124
 20
22.249999818221013
 10
85.82752340439866
 20
22.24999979639558
 10
85.67740336969597
 20
22.249999774570206
 10
85.52728333499338
 20
22.249999752744774
 10
85.3771633002908
 20
22.249999730919342
 10
85.22704326558822
 20
22.24999970909397
 10
85.07692323088553
 20
22.249999687268534
 10
84.92680319618295
 20
22.249999662509218
 10
84.77668316148036
 20
22.249999620385196
 10
84.62656312677778
 20
22.24999957826121
 10
84.47644309207509
 20
22.24999953613721
 10
84.3263230573725
 20
22.24999949401319
 10
84.17620302266992
 20
22.24999945188917
 10
84.02608298796734
 20
22.24999940976515
 10
83.87596295326476
 20
22.24999936764113
 10
83.72584291856207
 20
22.24999932551714
 10
83.57572288385948
 20
22.24999928339312
 10
83.4256028491569
 20
22.2499992412691
 10
83.27548281445432
 20
22.24999919914508
 10
83.12536277975163
 20
22.24999915702106
 10
82.97524274504904
 20
22.249999114897037
 10
82.82512271034646
 20
22.24999907277305
 10
82.67500267564388
 20
22.249999026497896
 10
82.5248826409413
 20
22.249998965227046
 10
82.3747626062386
 20
22.24999890395619
 10
82.22464257153602
 20
22.249998842685336
 10
82.07452253683344
 20
22.24999878141451
 10
81.92440250213086
 20
22.24999872014363
 10
81.77428246742828
 20
22.249998658872805
 10
81.6241624327257
 20
22.24999859760192
 10
81.474042398023
 20
22.249998536331095
 10
81.32392236332042
 20
22.249998475060245
 10
81.17380232861784
 20
22.249998413789385
 10
81.02368229391526
 20
22.249998352518535
 10
80.87356225921268
 20
22.249998291247685
 10
80.7234422245101
 20
22.249998229976825
 10
80.5733221898074
 20
22.24999816870598
 10
80.42320215510482
 20
22.249998102233256
 10
80.27308212040224
 20
22.24999802296736
 10
80.12296208569965
 20
22.249997943701455
 10
79.97284205099707
 20
22.249997864435528
 10
79.82272201629449
 20
22.249997785169622
 10
79.67260198159191
 20
22.249997705903695
 10
79.52248194688933
 20
22.24999762663782
 10
79.37236191218675
 20
22.249997547371894
 10
79.22224187748417
 20
22.249997468105988
 10
79.07212184278158
 20
22.24999738884006
 10
78.92200180807889
 20
22.249997309574155
 10
78.77188177337631
 20
22.24999723030826
 10
78.62176173867373
 20
22.249997151042358
 10
78.47164170397114
 20
22.249997071776427
 10
78.32152166926856
 20
22.249996992510525
 10
78.17140163456598
 20
22.249996907158504
 10
78.0212815998634
 20
22.249996811049282
 10
77.87116156516082
 20
22.249996714940117
 10
77.72104153045824
 20
22.249996618830917
 10
77.57092149575566
 20
22.249996522721727
 10
77.42080146105307
 20
22.24999642661256
 10
77.27068142635049
 20
22.24999633050336
 10
77.12056139164791
 20
22.24999623439417
 10
76.97044135694533
 20
22.249996138285006
 10
76.82032132224275
 20
22.24999604217578
 10
76.67020128754017
 20
22.249995946066615
 10
76.52008125283758
 20
22.249995849957415
 10
76.369961218135
 20
22.249995753848225
 10
76.21984118343242
 20
22.249995657739056
 10
76.06972114872984
 20
22.24999556162986
 10
75.91960111402726
 20
22.249995458716743
 10
75.76948107932468
 20
22.249995346916045
 10
75.6193610446221
 20
22.249995235115342
 10
75.46924100991951
 20
22.24999512331464
 10
75.31912097521693
 20
22.24999501151394
 10
75.16900094051447
 20
22.249994899713272
 10
75.01888090581188
 20
22.24999478791255
 10
74.8687608711093
 20
22.249994676111847
 10
74.71864083640672
 20
22.249994564311145
 10
74.56852080170414
 20
22.249994452510442
 10
74.41840076700156
 20
22.249994340709744
 10
74.26828073229898
 20
22.249994228909042
 10
74.1181606975964
 20
22.249994117108344
 10
73.96804066289381
 20
22.24999400530764
 10
73.81792062819123
 20
22.24999389350694
 10
73.66780059348876
 20
22.24999377435099
 10
73.51768055878618
 20
22.249993648010594
 10
73.3675605240836
 20
22.249993521670177
 10
73.21744048938102
 20
22.249993395329724
 10
73.06732045467844
 20
22.249993268989304
 10
72.91720041997586
 20
22.249993142648876
 10
72.76708038527339
 20
22.24999301630846
 10
72.6169603505708
 20
22.249992889968006
 10
72.46684031586823
 20
22.24999276362759
 10
72.31672028116564
 20
22.249992637287157
 10
72.16660024646306
 20
22.24999251094674
 10
72.0164802117606
 20
22.249992384606287
 10
71.86636017705801
 20
22.24999225826587
 10
71.71624014235543
 20
22.24999213192544
 10
71.56612010765285
 20
22.24999200558502
 10
71.41600007295038
 20
22.249991871504534
 10
71.2658800382478
 20
22.249991731776138
 10
71.11576000354522
 20
22.249991592047753
 10
70.96563996884264
 20
22.249991452319364
 10
70.81551993414017
 20
22.24999131259098
 10
70.66539989943759
 20
22.249991172862586
 10
70.515279864735
 20
22.249991033134197
 10
70.36515983003254
 20
22.249990893405812
 10
70.21503979532996
 20
22.249990753677423
 10
70.06491976062738
 20
22.249990613949038
 10
69.91479972592485
 20
22.249990474220645
 10
69.76467969122233
 20
22.249990334492256
 10
69.61455965651975
 20
22.24999019476387
 10
69.46443962181722
 20
22.249990055035482
 10
69.31431958711464
 20
22.24998991530709
 10
69.16419955241211
 20
22.249989767620274
 10
69.01407951770959
 20
22.249989615655704
 10
68.86395948300706
 20
22.249989463691136
 10
68.71383944830454
 20
22.249989311726566
 10
68.56371941360196
 20
22.249989159761938
 10
68.41359937889943
 20
22.249989007797367
 10
68.26347934419691
 20
22.2499888558328
 10
68.11335930949438
 20
22.24998870386823
 10
67.96323927479186
 20
22.249988551903634
 10
67.81311924008928
 20
22.249988399939067
 10
67.66299920538675
 20
22.249988247974496
 10
67.51287917068423
 20
22.24998809600993
 10
67.3627591359817
 20
22.249987944045333
 10
67.21263910127918
 20
22.24998779208073
 10
67.06251906657666
 20
22.24998764011616
 10
66.91239903187407
 20
22.249987480141307
 10
66.76227899717155
 20
22.249987317092312
 10
66.61215896246908
 20
22.249987154043318
 10
66.46203892776656
 20
22.249986990994323
 10
66.31191889306403
 20
22.249986827945335
 10
66.16179885836151
 20
22.24998666489634
 10
66.01167882365898
 20
22.249986501847403
 10
65.86155878895646
 20
22.249986338798408
 10
65.71143875425393
 20
22.249986175749417
 10
65.56131871955141
 20
22.249986012700425
 10
65.41119868484888
 20
22.24998584965143
 10
65.26107865014636
 20
22.24998568660246
 10
65.11095861544383
 20
22.249985523553498
 10
64.96083858074131
 20
22.249985360504507
 10
64.81071854603879
 20
22.249985197455516
 10
64.66059851133626
 20
22.249985026510767
 10
64.51047847663374
 20
22.249984853529156
 10
64.36035844193121
 20
22.249984680547527
 10
64.21023840722869
 20
22.249984507565927
 10
64.06011837252622
 20
22.24998433458429
 10
63.909998337823694
 20
22.24998416160266
 10
63.75987830312117
 20
22.249983988621025
 10
63.609758268418645
 20
22.249983815639396
 10
63.45963823371618
 20
22.24998364265776
 10
63.30951819901365
 20
22.249983469676152
 10
63.15939816431113
 20
22.24998329669452
 10
63.0092781296086
 20
22.249983123712887
 10
62.85915809490608
 20
22.24998295073125
 10
62.70903806020361
 20
22.249982777749622
 10
62.558918025501086
 20
22.249982604767986
 10
62.40879799079856
 20
22.249982424171684
 10
62.25867795609609
 20
22.249982242409192
 10
62.10855792139357
 20
22.249982060646705
 10
61.958437886691044
 20
22.249981878884224
 10
61.808317851988576
 20
22.249981697121733
 10
61.65819781728605
 20
22.249981515359245
 10
61.50807778258353
 20
22.249981333596764
 10
61.35795774788106
 20
22.249981151834277
 10
61.207837713178535
 20
22.24998097007179
 10
61.05771767847607
 20
22.249980788309276
 10
60.90759764377354
 20
22.24998060654682
 10
60.75747760907102
 20
22.249980424784333
 10
60.60735757436855
 20
22.24998024302182
 10
60.457237539666025
 20
22.24998006125933
 10
60.30711750496356
 20
22.249979879496877
 10
60.15699747026103
 20
22.249979690567184
 10
60.006877435558565
 20
22.2499795011756
 10
59.85675740085604
 20
22.249979311784013
 10
59.70663736615357
 20
22.249979122392432
 10
59.55651733145105
 20
22.249978933000847
 10
59.40639729674858
 20
22.24997874360926
 10
59.25627726204611
 20
22.249978554217677
 10
59.10615722734359
 20
22.24997836482609
 10
58.95603719264112
 20
22.249978175434507
 10
58.805917157938595
 20
22.249977986042953
 10
58.65579712323613
 20
22.249977796651372
 10
58.5056770885336
 20
22.249977607259787
 10
58.355557053831134
 20
22.2499774178682
 10
58.20543701912861
 20
22.24997722847659
 10
58.05531698442614
 20
22.249977039009117
 10
57.905196949723674
 20
22.249976843140217
 10
57.75507691502115
 20
22.24997664727132
 10
57.60495688031868
 20
22.249976451402425
 10
57.454836845616214
 20
22.249976255533525
 10
57.30471681091369
 20
22.249976059664633
 10
57.15459677621122
 20
22.24997586379577
 10
57.00447674150875
 20
22.249975667926893
 10
56.854356706806286
 20
22.249975472057997
 10
56.70423667210376
 20
22.249975276189097
 10
56.55411663740129
 20
22.2499750803202
 10
56.403996602698825
 20
22.249974884451305
 10
56.2538765679963
 20
22.24997468858241
 10
56.10375653329383
 20
22.249974492713513
 10
55.953636498591365
 20
22.249974296844613
 10
55.80351646388884
 20
22.249974100528476
 10
55.65339642918637
 20
22.249973899334048
 10
55.503276394483905
 20
22.2499736981396
 10
55.35315635978144
 20
22.24997349694514
 10
55.20303632507897
 20
22.249973295750713
 10
55.0529162903765
 20
22.249973094556267
 10
54.90279625567398
 20
22.249972893361843
 10
54.75267622097151
 20
22.24997269216736
 10
54.60255618626904
 20
22.249972490972937
 10
54.45243615156657
 20
22.24997228977851
 10
54.302316116864105
 20
22.249972088584027
 10
54.15219608216164
 20
22.249971887389602
 10
54.00207604745911
 20
22.249971686195153
 10
53.851956012756645
 20
22.249971485000728
 10
53.70183597805418
 20
22.249971283806268
 10
53.55171594335171
 20
22.249971082242038
 10
53.40159590864924
 20
22.249970878680827
 10
53.251475873946774
 20
22.249970675119613
 10
53.101355839244306
 20
22.2499704715584
 10
52.95123580454184
 20
22.249970267997185
 10
52.80111576983931
 20
22.24997006443597
 10
52.650995735136846
 20
22.249969860874756
 10
52.50087570043438
 20
22.24996965731352
 10
52.35075566573191
 20
22.249969453752275
 10
52.20063563102944
 20
22.24996925019106
 10
52.050515596326974
 20
22.24996904662985
 10
51.90039556162451
 20
22.249968843068636
 10
51.75027552692198
 20
22.249968639507422
 10
51.600155492219514
 20
22.249968435946208
 10
51.450035457517046
 20
22.249968232384994
 10
51.29991542281458
 20
22.24996802882378
 10
51.14979538811211
 20
22.249967826936793
 10
50.99967535340964
 20
22.24996763369504
 10
50.84955531870712
 20
22.249967440453265
 10
50.69943528400465
 20
22.24996724721151
 10
50.549315249302126
 20
22.249967053969737
 10
50.39919521459966
 20
22.249966860727984
 10
50.24907517989719
 20
22.24996666748621
 10
50.098955145194665
 20
22.249966474244456
 10
49.9488351104922
 20
22.249966281002678
 10
49.79871507578973
 20
22.249966087760896
 10
49.648595041087205
 20
22.24996589451912
 10
49.49847500638474
 20
22.249965701277368
 10
49.34835497168227
 20
22.249965508035615
 10
49.198234936979745
 20
22.24996531479384
 10
49.04811490227728
 20
22.249965121552087
 10
48.89799486757481
 20
22.249964928310312
 10
48.747874832872284
 20
22.249964739472027
 10
48.59775479816976
 20
22.249964572404565
 10
48.447634763467235
 20
22.249964405337103
 10
48.29751472876471
 20
22.24996423826961
 10
48.147394694062186
 20
22.249964071202147
 10
47.99727465935972
 20
22.249963904134685
 10
47.84715462465719
 20
22.249963737067223
 10
47.69703458995467
 20
22.24996356999976
 10
47.546914555252144
 20
22.249963402932266
 10
47.39679452054962
 20
22.249963235864804
 10
47.246674485847095
 20
22.249963068797342
 10
47.09655445114457
 20
22.24996290172988
 10
46.946434416442045
 20
22.249962734662386
 10
46.79631438173952
 20
22.249962567594924
 10
46.646194347036996
 20
22.249962400527462
 10
46.49607431233447
 20
22.24996223346
 10
46.34595427763195
 20
22.24996207371555
 10
46.19583424292942
 20
22.249961948678234
 10
46.04571420822684
 20
22.249961823640884
 10
45.89559417352426
 20
22.249961698603535
 10
45.745474138821734
 20
22.249961573566182
 10
45.59535410411915
 20
22.249961448528833
 10
45.44523406941663
 20
22.249961323491483
 10
45.29511403471405
 20
22.24996119845413
 10
45.144994000011465
 20
22.249961073416785
 10
44.99487396530894
 20
22.249960948379442
 10
44.84475393060636
 20
22.249960823342093
 10
44.69463389590378
 20
22.24996069830474
 10
44.54451386120125
 20
22.24996057326739
 10
44.39439382649867
 20
22.24996044823004
 10
44.24427379179609
 20
22.24996032319269
 10
44.094153757093565
 20
22.249960198155343
 10
43.944033722390984
 20
22.249960083550867
 10
43.7939136876884
 20
22.24996001639946
 10
43.64379365298582
 20
22.24995994924803
 10
43.49367361828318
 20
22.24995988209662
 10
43.3435535835806
 20
22.24995981494519
 10
43.19343354887802
 20
22.24995974779378
 10
43.04331351417544
 20
22.24995968064235
 10
42.8931934794728
 20
22.249959613490976
 10
42.74307344477022
 20
22.249959546339547
 10
42.592953410067636
 20
22.249959479188135
 10
42.442833375365
 20
22.249959412036706
 10
42.29271334066242
 20
22.249959344885298
 10
42.142593305959835
 20
22.249959277733865
 10
41.99247327125725
 20
22.24995921058246
 10
41.842353236554615
 20
22.249959143431028
 10
41.692233201852034
 20
22.24995907627962
 10
41.54211316714945
 20
22.249959022580914
 10
41.391993132446814
 20
22.249959027665795
 10
41.24187309774423
 20
22.249959032750702
 10
41.091753063041594
 20
22.249959037835556
 10
40.941633028338956
 20
22.249959042920437
 10
40.791512993636374
 20
22.249959048005348
 10
40.641392958933736
 20
22.2499590530902
 10
40.491272924231154
 20
22.249959058175083
 10
40.341152889528516
 20
22.24995906325999
 10
40.191032854825934
 20
22.249959068344875
 10
40.040912820123296
 20
22.24995907342975
 10
39.890792785420714
 20
22.249959078514635
 10
39.740672750718076
 20
22.249959083599517
 10
39.59055271601544
 20
22.249959088684392
 10
39.440432681312856
 20
22.249959093769277
 10
39.290312646610275
 20
22.249959098854163
 10
39.140192611907636
 20
22.24995909944724
 10
38.990072577205
 20
22.249959081166008
 10
38.83995254250242
 20
22.24995906288474
 10
38.68983250779978
 20
22.249959044603486
 10
38.5397124730972
 20
22.24995902632225
 10
38.38959243839456
 20
22.24995900804096
 10
38.23947240369198
 20
22.249958989759726
 10
38.08935236898934
 20
22.249958971478495
 10
37.93923233428676
 20
22.249958953197208
 10
37.78911229958412
 20
22.249958934915973
 10
37.63899226488154
 20
22.24995891663474
 10
37.4888722301789
 20
22.249958898353448
 10
37.33875219547632
 20
22.249958880072214
 10
37.18863216077368
 20
22.24995886179098
 10
37.0385121260711
 20
22.24995884350969
 10
36.888392091368516
 20
22.24995876935242
 10
36.738272056666105
 20
22.24995853982221
 10
36.58815202196364
 20
22.249958310291962
 10
36.438031987261226
 20
22.24995808076175
 10
36.28791195255876
 20
22.249957851231535
 10
36.13779191785635
 20
22.249957621701288
 10
35.98767188315388
 20
22.249957392171076
 10
35.83755184845147
 20
22.24995716264086
 10
35.687431813749
 20
22.249956933110614
 10
35.53731177904659
 20
22.249956703580402
 10
35.38719174434458
 20
22.249956300050968
 10
35.237071709642734
 20
22.24995581008195
 10
35.08695167494095
 20
22.249955320112964
 10
34.936831640239106
 20
22.249954830143977
 10
34.78671160553732
 20
22.249954340174956
 10
34.63659157083548
 20
22.24995385020597
 10
34.48647153613369
 20
22.24995336023695
 10
34.33635150143185
 20
22.24995287026796
 10
34.18623146673018
 20
22.24995234997502
 10
34.036111432029244
 20
22.249951640203044
 10
33.88599139732831
 20
22.24995093043109
 10
33.73587136262738
 20
22.249950220659134
 10
33.585751327926445
 20
22.249949510887127
 10
33.43563129322551
 20
22.24994880111517
 10
33.28551125852458
 20
22.249948091343192
 10
33.135391223823646
 20
22.24994738157124
 10
32.98527118912271
 20
22.249946671799286
 10
32.83515115442178
 20
22.24994596202731
 10
32.6850311197213
 20
22.249945165428272
 10
32.53491108502122
 20
22.24994429532481
 10
32.384791050321084
 20
22.249943425221367
 10
32.234671015621004
 20
22.249942555117904
 10
32.08455098092092
 20
22.249941685014463
 10
31.934430946220843
 20
22.249940814910996
 10
31.784310911520762
 20
22.24993994480755
 10
31.634190876820625
 20
22.249939074704056
 10
31.484070842120545
 20
22.24993820460059
 10
31.333950807420464
 20
22.249937334497147
 10
31.183830772720384
 20
22.249936464393684
 10
31.033710738020304
 20
22.249935594290243
 10
30.883590703320223
 20
22.249934724186776
 10
30.733470668620086
 20
22.24993385408331
 10
30.583350633920062
 20
22.2499329777239
 10
30.43323059922004
 20
22.249932098421297
 10
30.283110564520015
 20
22.24993121911872
 10
30.132990529819935
 20
22.249930339816096
 10
29.98287049511991
 20
22.249929460513492
 10
29.832750460419888
 20
22.249928581210888
 10
29.682630425719864
 20
22.249927701908284
 10
29.532510391019784
 20
22.24992682260569
 10
29.38239035631976
 20
22.249925943303086
 10
29.232270321619737
 20
22.249925064000482
 10
29.082150286919713
 20
22.24992418469788
 10
28.932030252219633
 20
22.249923305395306
 10
28.78191021751961
 20
22.24992242609268
 10
28.631790182819586
 20
22.249921546790077
 10
28.481670148119505
 20
22.249920667487473
 10
28.331550113419482
 20
22.2499197881849
 10
28.181430078718833
 20
22.249919025830025
 10
28.0313100440179
 20
22.249918316997416
 10
27.881190009316967
 20
22.24991760816485
 10
27.731069974616034
 20
22.249916899332277
 10
27.5809499399151
 20
22.249916190499704
 10
27.430829905214168
 20
22.249915481667134
 10
27.280709870513178
 20
22.249914772834565
 10
27.130589835812245
 20
22.249914064001956
 10
26.98046980111131
 20
22.24991335516941
 10
26.83034976641038
 20
22.24991264633684
 10
26.680229731709446
 20
22.249911942979054
 10
26.530109697007546
 20
22.24991146860934
 10
26.379989662305704
 20
22.2499109942396
 10
26.22986962760386
 20
22.249910519869886
 10
26.079749592901962
 20
22.249910045500172
 10
25.92962955820012
 20
22.24990957113048
 10
25.779509523498277
 20
22.24990909676073
 10
25.629389488796377
 20
22.249908622391022
 10
25.479269454094535
 20
22.249908148021305
 10
25.32914941939235
 20
22.24990780480549
 10
25.179029384689883
 20
22.24990759635478
 10
25.028909349987416
 20
22.249907387904045
 10
24.878789315284948
 20
22.249907179453345
 10
24.72866928058248
 20
22.24990697100264
 10
24.578549245880012
 20
22.24990676255196
 10
24.428429211177544
 20
22.249906554101223
 10
24.278309176475076
 20
22.249906353919172
 10
24.128189141772495
 20
22.249906427280052
 10
23.978069107069913
 20
22.249906500640932
 10
23.827949072367275
 20
22.249906574001812
 10
23.677829037664694
 20
22.249906647362693
 10
23.527709002962112
 20
22.249906720723573
 10
23.37758896825953
 20
22.249906794084453
 10
23.227468933557176
 20
22.24990705887496
 10
23.07734889885505
 20
22.249907435254183
 10
22.927228864152923
 20
22.24990781163335
 10
22.777108829450796
 20
22.249908188012512
 10
22.62698879474867
 20
22.24990856439173
 10
22.476868760046486
 20
22.249908940770897
 10
22.326748725344643
 20
22.249909397614285
 10
22.176628690643767
 20
22.249910117639395
 10
22.02650865594289
 20
22.249910837664483
 10
21.876388621242015
 20
22.249911557689593
 10
21.72626858654114
 20
22.249912277714706
 10
21.576148551840205
 20
22.24991299773982
 10
21.42602851713933
 20
22.249913717764898
 10
21.275908482440215
 20
22.249914730737803
 10
21.125788447741385
 20
22.249915800944844
 10
20.975668413042612
 20
22.24991687115186
 10
20.82554837834384
 20
22.24991794135888
 10
20.67542834364501
 20
22.24991901156589
 10
20.525308308947658
 20
22.24992025781903
 10
20.375188274251784
 20
22.249921676467988
 10
20.225068239555853
 20
22.249923095116976
 10
20.07494820485998
 20
22.249924513765933
 10
19.924828170164048
 20
22.249925932414943
 10
19.774708135468856
 20
22.24992741657226
 10
19.62458810077696
 20
22.24992921187716
 10
19.474468066085066
 20
22.249931007182116
 10
19.324348031393228
 20
22.24993280248704
 10
19.174227996701333
 20
22.249934597791974
 10
19.024107962009438
 20
22.2499363930969
 10
18.87398792732209
 20
22.24993852954859
 10
18.723867892635596
 20
22.24994072972357
 10
18.573747857949158
 20
22.249942929898573
 10
18.423627823262606
 20
22.24994513007359
 10
18.27350778857617
 20
22.249947330248595
 10
18.123387753893198
 20
22.24994975185936
 10
17.973267719213695
 20
22.249952385118675
 10
17.82314768453419
 20
22.249955018378017
 10
17.67302764985469
 20
22.24995765163736
 10
17.52290761517513
 20
22.249960284896673
 10
17.372788888413467
 20
22.24969658548298
 10
17.22268888447364
 20
22.24770636160234
 10
17.07270033369666
 20
22.241500984056703
 10
16.922952510176273
 20
22.23093622329144
 10
16.77358835976581
 20
22.21590306747739
 10
16.624714776659616
 20
22.19663984520723
 10
16.476450254761104
 20
22.173166350487566
 10
16.32891321483531
 20
22.145501706859456
 10
16.182222360673833
 20
22.113664401301516
 10
16.03649702732865
 20
22.077672373101137
 10
15.891857516168884
 20
22.03754315721034
 10
15.74842540752131
 20
21.993294093387384
 10
15.606322043729548
 20
21.9449476142563
 10
15.465664155339809
 20
21.892542102841446
 10
15.326562915048768
 20
21.83613091354882
 10
15.189127849147596
 20
21.775769259812492
 10
15.053468043640223
 20
21.711511642741723
 10
14.919692518344377
 20
21.64341187869539
 10
14.787910588157715
 20
21.571523183604484
 10
14.658232206444595
 20
21.495898312015377
 10
14.530867654637277
 20
21.41643576887684
 10
14.405891845923335
 20
21.3332716857391
 10
14.283369925472002
 20
21.24653934964683
 10
14.163434446816481
 20
21.156269753732506
 10
14.046298278941876
 20
21.062402327068984
 10
13.932092578773435
 20
20.96499437151879
 10
13.820910697686188
 20
20.864151175718206
 10
13.712839112344213
 20
20.759983213309148
 10
13.607963156985008
 20
20.652599338193742
 10
13.506367478101296
 20
20.54210693843351
 10
13.408136442387772
 20
20.42861215383898
 10
13.313354493680137
 20
20.312220150024892
 10
13.222106454806166
 20
20.193035442248195
 10
13.13447777024679
 20
20.07116226275627
 10
13.050554685323206
 20
19.946704965611477
 10
12.970424357327872
 20
19.819768462990613
 10
12.894174893666374
 20
19.690458686757545
 10
12.821975975792256
 20
19.5588405228252
 10
12.754042381625865
 20
19.424972633306865
 10
12.690254301657703
 20
19.289085660412965
 10
12.630647827403251
 20
19.15131741176382
 10
12.57525332247313
 20
19.011805679931104
 10
12.524100078826663
 20
18.870686308589775
 10
12.477217135758494
 20
18.72809327112901
 10
12.434633633513485
 20
18.584158999694242
 10
12.396379098993222
 20
18.43901475381416
 10
12.362483662615759
 20
18.292791020461948
 10
12.332978205313893
 20
18.14561793797205
 10
12.307894434435283
 20
17.997625736602686
 10
12.287264886990258
 20
17.848945188674318
 10
12.27112285834879
 20
17.699708061114055
 10
12.259502254171807
 20
17.550047562892306
 10
12.252437363146711
 20
17.4000987792504
 10
12.249966272510548
 20
17.249999083946992
 10
12.25243208945328
 20
17.099899363005274
 10
12.259487972310282
 20
16.9499502606837
 10
12.27109951661292
 20
16.80028914832636
 10
12.287232411457794
 20
16.651051106420706
 10
12.307852757267469
 20
16.50236934000058
 10
12.332927291897292
 20
16.35437561613812
 10
12.362423537382242
 20
16.207200714468108
 10
12.396309869778165
 20
16.060974882662514
 10
12.43455551432065
 20
15.91582828936225
 10
12.477130467797153
 20
15.771891467412473
 10
12.524005349671242
 20
15.629295740343363
 10
12.575151183171826
 20
15.48817362488977
 10
12.630539107328659
 20
15.348659201964443
 10
12.690140020854685
 20
15.210888447915181
 10
12.75392376456692
 20
15.074999317297895
 10
12.8218544682707
 20
14.941129817234597
 10
12.894058667840838
 20
14.80951455070543
 10
12.97030692838392
 20
14.680204202141299
 10
13.050436284475083
 20
14.553267201079551
 10
13.13435811369395
 20
14.428809148556931
 10
13.221984728263507
 20
14.306934546882601
 10
13.313229347997193
 20
14.187747261113582
 10
13.408005999937117
 20
14.071350956068548
 10
13.506229349682016
 20
13.957849502659045
 10
13.607814469055697
 20
13.847347347556187
 10
13.71267654446875
 20
13.739949840219856
 10
13.820730530127761
 20
13.63576351111567
 10
13.931890750206989
 20
13.534896294571025
 10
14.046070454252671
 20
13.437457689212431
 10
14.163177462805706
 20
13.343553763601294
 10
14.28309006667898
 20
13.253253996777016
 10
14.40561907381435
 20
13.166531731060214
 10
14.530628091203809
 20
13.08341745017476
 10
14.658047608920512
 20
13.00404307569562
 10
14.787786547876223
 20
12.928522380826081
 10
14.919631366060443
 20
12.856749311894513
 10
15.053466031716354
 20
12.788765962704188
 10
15.189176003120437
 20
12.724614277614243
 10
15.326647960431941
 20
12.66433632102283
 10
15.465769507878676
 20
12.607974496898935
 10
15.60642885179685
 20
12.555571717257713
 10
15.748514459707266
 20
12.507171518374834
 10
15.891914705414578
 20
12.462818123359742
 10
16.036517505070364
 20
12.422556449486683
 10
16.1822099492491
 20
12.386432058452197
 10
16.328877936354203
 20
12.354491047529779
 10
16.476405749798957
 20
12.326779490785773
 10
16.62467489330014
 20
12.30333695903563
 10
16.77356138128816
 20
12.284174080900966
 10
16.922939063775956
 20
12.269275333145258
 10
17.072696379219778
 20
12.258845985602013
 10
17.222688540074316
 20
12.252728722402377
 10
17.372788895563176
 20
12.250751447076128
 10
17.522907628398897
 20
12.250468772124215
 10
17.673027661735077
 20
12.250448516974794
 10
17.82314769522911
 20
12.25042948623252
 10
17.973267728795392
 20
12.25041101520167
 10
18.12338776247269
 20
12.25039349070854
 10
18.273507796239514
 20
12.250376728667359
 10
18.42362783007944
 20
12.250360655176188
 10
18.573747864019808
 20
12.250345526997904
 10
18.723867898003206
 20
12.250330849265753
 10
18.87398793209256
 20
12.250317279825685
 10
19.024107966201754
 20
12.250303942613884
 10
19.17422800041787
 20
12.25029185678932
 10
19.324348034636486
 20
12.250279804863016
 10
19.47446806895941
 20
12.250269127533118
 10
19.624588103282335
 20
12.25025845020321
 10
19.7747081376845
 20
12.250248961707001
 10
19.92482817209627
 20
12.250239617752698
 10
20.074948206563576
 20
12.250231228966161
 10
20.22506824104839
 20
12.250223143270143
 10
20.375188275570267
 20
12.250215798970721
 10
20.525308310114198
 20
12.2502088964173
 10
20.675428344681265
 20
12.250202541385722
 10
20.825548379272036
 20
12.250196746860572
 10
20.975668413875994
 20
12.25019132588031
 10
21.12578844850303
 20
12.25018656427065
 10
21.275908483136433
 20
12.25018202212807
 10
21.42602851779087
 20
12.25017821832239
 10
21.57614855244718
 20
12.250174499806437
 10
21.726268587121396
 20
12.25017157869441
 10
21.876388621795556
 20
12.250168657582382
 10
22.026508656482847
 20
12.25016651506883
 10
22.176628691170535
 20
12.250164401541289
 10
22.326748725865386
 20
12.250162897130998
 10
22.476868760561658
 20
12.250161516079746
 10
22.626988795261568
 20
12.250160698516234
 10
22.77710882996307
 20
12.250160123529293
 10
22.92722886466457
 20
12.250159548542342
 10
23.077348899366527
 20
12.250159382303883
 10
23.227468934068938
 20
12.250159624381707
 10
23.377588968771406
 20
12.250159866459533
 10
23.527709003473078
 20
12.250160303907736
 10
23.677829038173044
 20
12.250161194063697
 10
23.82794907287301
 20
12.250162084219635
 10
23.978069107572523
 20
12.250163029503506
 10
24.128189142268397
 20
12.250164456696428
 10
24.278309176964214
 20
12.250165883889325
 10
24.42842921166003
 20
12.250167311082246
 10
24.57854924635585
 20
12.250168738275132
 10
24.728669281048482
 20
12.250170468667775
 10
24.878789315740377
 20
12.25017225786138
 10
25.028909350432386
 20
12.250174047054928
 10
25.17902938512428
 20
12.250175836248498
 10
25.329149419816233
 20
12.25017762544208
 10
25.47926945450824
 20
12.25017941463565
 10
25.629389489200136
 20
12.250181203829221
 10
25.77950952389334
 20
12.250182875294131
 10
25.929629558588758
 20
12.250184349418939
 10
26.07974959328412
 20
12.250185823543754
 10
26.22986962797954
 20
12.250187297668537
 10
26.3799896626749
 20
12.250188771793344
 10
26.530109697370264
 20
12.25019024591816
 10
26.680229732065627
 20
12.250191720042967
 10
26.83034976676099
 20
12.250193194167784
 10
26.98046980146073
 20
12.250194108525259
 10
27.130589836160866
 20
12.25019496735922
 10
27.28070987086106
 20
12.250195826193206
 10
27.430829905561197
 20
12.250196685027168
 10
27.58094994026247
 20
12.25019727395903
 10
27.731069974964484
 20
12.250197714134018
 10
27.88119000966644
 20
12.25019815430903
 10
28.031310044368396
 20
12.250198594484042
 10
28.181430079070637
 20
12.250198875853682
 10
28.33155011377322
 20
12.250198897690057
 10
28.481670148475857
 20
12.250198919526431
 10
28.63179018317844
 20
12.250198941362806
 10
28.781910217881077
 20
12.250198963199212
 10
28.932030252583658
 20
12.250198965637901
 10
29.08215028728584
 20
12.250198585657289
 10
29.23227032198797
 20
12.250198205676643
 10
29.38239035669004
 20
12.250197825696054
 10
29.532510391392222
 20
12.250197445715408
 10
29.68263042609435
 20
12.250197065734795
 10
29.83275046079551
 20
12.250196425650671
 10
29.98287049549627
 20
12.250195682876532
 10
30.132990530197034
 20
12.250194940102393
 10
30.283110564897797
 20
12.250194197328222
 10
30.43323059959856
 20
12.250193454554084
 10
30.58335063429932
 20
12.250192711779968
 10
30.733470668999516
 20
12.250191865709716
 10
30.883590703698346
 20
12.250190799487177
 10
31.033710738397176
 20
12.250189733264605
 10
31.18383077309595
 20
12.250188667042066
 10
31.333950807794835
 20
12.250187600819517
 10
31.484070842493665
 20
12.25018653459698
 10
31.634190877192438
 20
12.25018546837444
 10
31.784310911891325
 20
12.250184402151868
 10
31.934430946588506
 20
12.25018313088147
 10
32.0845509812854
 20
12.250181824980814
 10
32.23467101598236
 20
12.250180519080157
 10
32.38479105067931
 20
12.250179213179509
 10
32.534911085376265
 20
12.25017790727885
 10
32.68503112007316
 20
12.250176601378225
 10
32.83515115477012
 20
12.250175295477568
 10
32.98527118946707
 20
12.250173989576888
 10
33.13539122416397
 20
12.250172683676263
 10
33.285511258860865
 20
12.250171368958929
 10
33.43563129355742
 20
12.250170029036342
 10
33.58575132825409
 20
12.250168689113812
 10
33.735871362950704
 20
12.250167349191225
 10
33.88599139764737
 20
12.25016600926867
 10
34.036111432343986
 20
12.250164669346105
 10
34.186231467040656
 20
12.250163329423552
 10
34.33635150173721
 20
12.25016198950102
 10
34.48647153643388
 20
12.250160649578433
 10
34.636591571130495
 20
12.250159309655903
 10
34.786711605827165
 20
12.250157969733316
 10
34.93683164052378
 20
12.250156629810784
 10
35.08695167522045
 20
12.250155289888196
 10
35.237071709917004
 20
12.250153949965666
 10
35.38719174461367
 20
12.250152610043111
 10
35.53731177931097
 20
12.250151347502523
 10
35.68743181400946
 20
12.25015024103125
 10
35.837551848708
 20
12.250149134559976
 10
35.98767188340655
 20
12.250148028088702
 10
36.137791918105094
 20
12.250146921617462
 10
36.28791195280358
 20
12.250145815146189
 10
36.438031987502185
 20
12.250144708674915
 10
36.588152022200674
 20
12.250143602203643
 10
36.73827205689922
 20
12.25014249573237
 10
36.8883920915989
 20
12.250141563288375
 10
37.038512126298926
 20
12.250140673981514
 10
37.188632160998836
 20
12.250139784674653
 10
37.33875219569886
 20
12.25013889536776
 10
37.488872230398826
 20
12.2501380060609
 10
37.63899226509879
 20
12.25013711675404
 10
37.78911229979876
 20
12.250136227447147
 10
37.93923233449878
 20
12.250135338140263
 10
38.08935236919875
 20
12.250134448833403
 10
38.239472403898944
 20
12.25013360124443
 10
38.38959243859999
 20
12.25013291545417
 10
38.53971247330104
 20
12.250132229663935
 10
38.689832508002084
 20
12.250131543873666
 10
38.83995254270313
 20
12.25013085808343
 10
38.99007257740418
 20
12.250130172293195
 10
39.140192612105224
 20
12.250129486502903
 10
39.29031264680627
 20
12.250128800712668
 10
39.44043268150726
 20
12.25012811492243
 10
39.590552716208364
 20
12.250127429132164
 10
39.740672750909866
 20
12.25012685580433
 10
39.890792785611595
 20
12.25012635480188
 10
40.04091282031338
 20
12.250125853799405
 10
40.191032855015166
 20
12.250125352796953
 10
40.34115288971695
 20
12.25012485179448
 10
40.49127292441868
 20
12.250124350792028
 10
40.641392959120466
 20
12.250123849789587
 10
40.79151299382225
 20
12.250123348787135
 10
40.94163302852404
 20
12.250122847784684
 10
41.09175306322582
 20
12.25012234678221
 10
41.24187309792761
 20
12.250121845779757
 10
41.39199313262985
 20
12.250121504331808
 10
41.54211316733209
 20
12.250121172000476
 10
41.69223320203433
 20
12.250120839669165
 10
41.84235323673657
 20
12.250120507337831
 10
41.99247327143881
 20
12.250120175006497
 10
42.14259330614105
 20
12.250119842675165
 10
42.29271334084329
 20
12.250119510343831
 10
42.44283337554553
 20
12.25011917801252
 10
42.59295341024777
 20
12.250118845681188
 10
42.743073444950014
 20
12.250118513349854
 10
42.89319347965231
 20
12.25011818101852
 10
43.04331351435455
 20
12.250117880524664
 10
43.193433549057076
 20
12.250117694891397
 10
43.343553583759544
 20
12.250117509258162
 10
43.49367361846207
 20
12.250117323624872
 10
43.64379365316459
 20
12.250117137991637
 10
43.79391368786706
 20
12.250116952358368
 10
43.944033722569586
 20
12.250116766725133
 10
44.09415375727211
 20
12.250116581091843
 10
44.244273791974635
 20
12.250116395458608
 10
44.394393826677046
 20
12.250116209825341
 10
44.544513861379514
 20
12.250116024192106
 10
44.69463389608204
 20
12.250115838558814
 10
44.84475393078456
 20
12.250115652925547
 10
44.99487396548703
 20
12.250115467292312
 10
45.144994000189556
 20
12.250115319743985
 10
45.295114034892194
 20
12.250115241221305
 10
45.445234069594775
 20
12.250115162698592
 10
45.59535410429736
 20
12.250115084175935
 10
45.74547413899994
 20
12.250115005653255
 10
45.89559417370252
 20
12.250114927130575
 10
46.04571420840516
 20
12.250114848607895
 10
46.19583424310774
 20
12.250114770085204
 10
46.345954277810264
 20
12.250114691562525
 10
46.4960743125129
 20
12.250114613039845
 10
46.646194347215484
 20
12.250114534517186
 10
46.796314381918066
 20
12.250114455994474
 10
46.94643441662065
 20
12.250114377471794
 10
47.09655445132323
 20
12.250114298949113
 10
47.24667448602581
 20
12.250114220426456
 10
47.39679452072839
 20
12.250114161697658
 10
47.54691455543103
 20
12.250114129440234
 10
47.69703459013361
 20
12.250114097182777
 10
47.84715462483631
 20
12.250114064925377
 10
47.997274659538945
 20
12.250114032667954
 10
48.14739469424153
 20
12.25011400041053
 10
48.29751472894405
 20
12.250113968153096
 10
48.44763476364675
 20
12.250113935895673
 10
48.59775479834927
 20
12.25011390363825
 10
48.74787483305191
 20
12.250113871380826
 10
48.89799486775449
 20
12.250113839123394
 10
49.04811490245713
 20
12.25011380686597
 10
49.19823493715971
 20
12.250113774608545
 10
49.348354971862406
 20
12.250113742351113
 10
49.49847500656493
 20
12.25011371009369
 10
49.64859504126757
 20
12.250113666591993
 10
49.79871507597015
 20
12.250113611850598
 10
49.94883511067279
 20
12.250113557109202
 10
50.09895514537543
 20
12.250113502367807
 10
50.24907518007795
 20
12.250113447626411
 10
50.39919521478059
 20
12.250113392885016
 10
50.54931524948317
 20
12.25011333814362
 10
50.69943528418581
 20
12.250113283402225
 10
50.849555318888335
 20
12.25011322866083
 10
50.99967535359097
 20
12.250113173919434
 10
51.14979538829361
 20
12.250113119178039
 10
51.29991542299619
 20
12.250113064436643
 10
51.45003545769883
 20
12.250113009695248
 10
51.600155492401356
 20
12.250112954953853
 10
51.750275527103994
 20
12.250112900212457
 10
51.90039556180663
 20
12.250112845471062
 10
52.05051559650916
 20
12.250112741790595
 10
52.20063563121174
 20
12.250112590351138
 10
52.35075566591421
 20
12.250112438911684
 10
52.50087570061679
 20
12.25011228747225
 10
52.65099573531937
 20
12.250112136032795
 10
52.80111577002184
 20
12.250111984593307
 10
52.95123580472442
 20
12.250111833153873
 10
53.101355839426944
 20
12.250111681714419
 10
53.25147587412947
 20
12.250111530274962
 10
53.40159590883199
 20
12.250111378835474
 10
53.55171594353452
 20
12.250111227396042
 10
53.7018359782371
 20
12.250111075956587
 10
53.851956012939624
 20
12.25011092451713
 10
54.00207604764215
 20
12.250110773077665
 10
54.15219608234467
 20
12.25011062163821
 10
54.302316117047255
 20
12.250110470198754
 10
54.452436151749666
 20
12.250110251523388
 10
54.60255618645202
 20
12.250109968791158
 10
54.752676221154374
 20
12.250109686058925
 10
54.90279625585673
 20
12.250109403326695
 10
55.05291629055908
 20
12.25010912059443
 10
55.203036325261436
 20
12.2501088378622
 10
55.35315635996379
 20
12.250108555129968
 10
55.50327639466609
 20
12.250108272397737
 10
55.65339642936844
 20
12.250107989665473
 10
55.80351646407074
 20
12.250107706933242
 10
55.95363649877309
 20
12.25010742420101
 10
56.10375653347545
 20
12.25010714146878
 10
56.2538765681778
 20
12.25010685873655
 10
56.403996602880156
 20
12.250106576004285
 10
56.55411663758251
 20
12.250106293272053
 10
56.704236672284864
 20
12.250106010539822
 10
56.85435670698705
 20
12.250105668670223
 10
57.00447674168912
 20
12.25010527179903
 10
57.15459677639119
 20
12.250104874927816
 10
57.30471681109337
 20
12.25010447805659
 10
57.45483684579544
 20
12.250104081185398
 10
57.60495688049751
 20
12.250103684314173
 10
57.75507691519958
 20
12.250103287442956
 10
57.90519694990165
 20
12.250102890571764
 10
58.05531698460372
 20
12.250102493700538
 10
58.205437019305904
 20
12.250102096829346
 10
58.355557054007974
 20
12.25010169995812
 10
58.505677088710044
 20
12.250101303086906
 10
58.655797123412114
 20
12.25010090621568
 10
58.805917158114184
 20
12.250100509344488
 10
58.95603719281631
 20
12.250100112473296
 10
59.10615722751838
 20
12.250099715602047
 10
59.25627726222034
 20
12.250099269663236
 10
59.40639729692212
 20
12.250098779175152
 10
59.55651733162391
 20
12.250098288687068
 10
59.70663736632575
 20
12.250097798198983
 10
59.85675740102754
 20
12.250097307710874
 10
60.00687743572938
 20
12.25009681722279
 10
60.15699747043122
 20
12.250096326734706
 10
60.30711750513301
 20
12.25009583624662
 10
60.45723753983479
 20
12.250095345758536
 10
60.607357574536636
 20
12.250094855270428
 10
60.75747760923848
 20
12.25009436478231
 10
60.907597643940264
 20
12.250093874294226
 10
61.057717678642106
 20
12.25009338380614
 10
61.207837713343835
 20
12.250092893318056
 10
61.35795774804568
 20
12.250092402829948
 10
61.50807778274752
 20
12.250091912341864
 10
61.658197817449135
 20
12.250091383102493
 10
61.808317852150694
 20
12.250090819519663
 10
61.95843788685231
 20
12.250090255936811
 10
62.10855792155387
 20
12.25008969235396
 10
62.25867795625537
 20
12.250089128771107
 10
62.408797990956984
 20
12.250088565188278
 10
62.558918025658485
 20
12.250088001605427
 10
62.709038060360044
 20
12.250087438022573
 10
62.8591580950616
 20
12.250086874439745
 10
63.00927812976316
 20
12.250086310856894
 10
63.15939816446472
 20
12.25008574727404
 10
63.30951819916628
 20
12.250085183691189
 10
63.459638233867835
 20
12.25008462010836
 10
63.609758268569394
 20
12.250084056525507
 10
63.75987830327095
 20
12.250083492942656
 10
63.90999833797251
 20
12.250082929359827
 10
64.06011837267395
 20
12.250082337588877
 10
64.21023840737529
 20
12.250081721433428
 10
64.36035844207667
 20
12.250081105277982
 10
64.510478476778
 20
12.25008048912251
 10
64.66059851147934
 20
12.250079872967062
 10
64.81071854618067
 20
12.25007925681159
 10
64.960838580882
 20
12.250078640656142
 10
65.11095861558339
 20
12.250078024500693
 10
65.26107865028472
 20
12.250077408345224
 10
65.4111986849861
 20
12.250076792189775
 10
65.56131871968743
 20
12.250076176034304
 10
65.71143875438877
 20
12.250075559878855
 10
65.86155878909015
 20
12.250074943723407
 10
66.01167882379143
 20
12.250074327567935
 10
66.16179885849282
 20
12.250073711412488
 10
66.3119188931942
 20
12.250073095257017
 10
66.46203892789542
 20
12.25007246172384
 10
66.6121589625967
 20
12.250071813517946
 10
66.76227899729791
 20
12.250071165312027
 10
66.91239903199907
 20
12.250070517106131
 10
67.06251906670023
 20
12.250069868900244
 10
67.2126391014015
 20
12.250069220694325
 10
67.36275913610272
 20
12.250068572488429
 10
67.512879170804
 20
12.25006792428251
 10
67.66299920550516
 20
12.250067276076615
 10
67.81311924020638
 20
12.250066627870696
 10
67.96323927490765
 20
12.2500659796648
 10
68.11335930960881
 20
12.250065331458881
 10
68.26347934431003
 20
12.250064683252994
 10
68.41359937901119
 20
12.250064035047098
 10
68.56371941371246
 20
12.250063386841179
 10
68.71383944841368
 20
12.250062738635284
 10
68.8639594831149
 20
12.250062084109251
 10
69.014079517816
 20
12.250061424375088
 10
69.16419955251716
 20
12.250060764640894
 10
69.31431958721832
 20
12.25006010490673
 10
69.46443962191948
 20
12.250059445172559
 10
69.61455965662064
 20
12.250058785438396
 10
69.7646796913218
 20
12.2500581257042
 10
69.9147997260229
 20
12.250057465970038
 10
70.06491976072418
 20
12.250056806235841
 10
70.21503979542528
 20
12.250056146501679
 10
70.36515983012644
 20
12.250055486767485
 10
70.51527986482766
 20
12.25005482703332
 10
70.66539989952877
 20
12.250054167299126
 10
70.81551993422998
 20
12.250053507564964
 10
70.9656399689312
 20
12.250052847830768
 10
71.1157600036323
 20
12.250052188096605
 10
71.26588003833352
 20
12.25005153293683
 10
71.41600007303474
 20
12.250050881455918
 10
71.56612010773584
 20
12.250050229975006
 10
71.71624014243706
 20
12.250049578494083
 10
71.86636017713828
 20
12.250048927013172
 10
72.0164802118395
 20
12.250048275532283
 10
72.16660024654071
 20
12.250047624051371
 10
72.31672028124193
 20
12.250046972570482
 10
72.46684031594303
 20
12.25004632108957
 10
72.61696035064425
 20
12.250045669608648
 10
72.76708038534547
 20
12.250045018127736
 10
72.91720042004668
 20
12.250044366646847
 10
73.06732045474779
 20
12.250043715165935
 10
73.217440489449
 20
12.250043063685023
 10
73.36756052415022
 20
12.2500424122041
 10
73.51768055885144
 20
12.250041777183462
 10
73.66780059355288
 20
12.250041151973948
 10
73.8179206282541
 20
12.250040526764444
 10
73.96804066295543
 20
12.250039901554931
 10
74.11816069765676
 20
12.250039276345449
 10
74.2682807323581
 20
12.250038651135936
 10
74.41840076705931
 20
12.250038025926456
 10
74.56852080176064
 20
12.250037400716941
 10
74.71864083646197
 20
12.25003677550746
 10
74.8687608711633
 20
12.250036150297946
 10
75.01888090586463
 20
12.250035525088443
 10
75.16900094056597
 20
12.250034899878928
 10
75.31912097526718
 20
12.250034274669447
 10
75.46924100996851
 20
12.250033649459933
 10
75.61936104466984
 20
12.250033024250452
 10
75.76948107937129
 20
12.250032429893581
 10
75.91960111407285
 20
12.250031848832563
 10
76.06972114877429
 20
12.25003126777157
 10
76.21984118347574
 20
12.250030686710586
 10
76.36996121817718
 20
12.25003010564957
 10
76.52008125287874
 20
12.250029524588552
 10
76.6702012875803
 20
12.25002894352759
 10
76.82032132228174
 20
12.250028362466574
 10
76.97044135698319
 20
12.250027781405558
 10
77.12056139168475
 20
12.250027200344574
 10
77.27068142638619
 20
12.25002661928358
 10
77.42080146108775
 20
12.250026038222595
 10
77.5709214957892
 20
12.250025457161579
 10
77.72104153049064
 20
12.250024876100586
 10
77.87116156519208
 20
12.250024295039601
 10
78.02128159989387
 20
12.25002376180822
 10
78.17140163459554
 20
12.25002324277279
 10
78.32152166929721
 20
12.250022723737414
 10
78.47164170399888
 20
12.250022204701985
 10
78.62176173870067
 20
12.250021685666576
 10
78.77188177340246
 20
12.250021166631145
 10
78.92200180810413
 20
12.25002064759577
 10
79.0721218428058
 20
12.250020128560339
 10
79.22224187750759
 20
12.250019609524932
 10
79.37236191220926
 20
12.2500190904895
 10
79.52248194691104
 20
12.250018571454094
 10
79.67260198161271
 20
12.250018052418694
 10
79.82272201631439
 20
12.250017533383287
 10
79.97284205101606
 20
12.250017014347879
 10
80.12296208571784
 20
12.250016495312448
 10
80.27308212041974
 20
12.25001604366817
 10
80.42320215512176
 20
12.250015604535415
 10
80.57332218982366
 20
12.250015165402635
 10
80.72344222452567
 20
12.250014726269878
 10
80.87356225922768
 20
12.250014287137123
 10
81.0236822939297
 20
12.250013848004366
 10
81.1738023286316
 20
12.250013408871586
 10
81.3239223633335
 20
12.25001296973883
 10
81.47404239803551
 20
12.250012530606075
 10
81.62416243273752
 20
12.25001209147335
 10
81.77428246743942
 20
12.250011652340572
 10
81.92440250214143
 20
12.250011213207815
 10
82.07452253684345
 20
12.250010774075058
 10
82.22464257154535
 20
12.250010334942303
 10
82.37476260624736
 20
12.250009895809523
 10
82.5248826409496
 20
12.250009546213688
 10
82.67500267565184
 20
12.250009204860616
 10
82.82512271035397
 20
12.25000886350752
 10
82.9752427450562
 20
12.250008522154458
 10
83.12536277975845
 20
12.250008180801387
 10
83.27548281446069
 20
12.250007839448292
 10
83.42560284916293
 20
12.25000749809523
 10
83.57572288386517
 20
12.250007156742134
 10
83.72584291856741
 20
12.250006815389062
 10
83.87596295326954
 20
12.250006474036
 10
84.02608298797178
 20
12.250006132682906
 10
84.17620302267402
 20
12.250005791329833
 10
84.32632305737626
 20
12.250005449976772
 10
84.4764430920785
 20
12.250005108623677
 10
84.62656312678074
 20
12.250004767270582
 10
84.77668316148309
 20
12.250004540184333
 10
84.92680319618556
 20
12.250004314487965
 10
85.07692323088791
 20
12.250004088791597
 10
85.2270432655905
 20
12.250003863095229
 10
85.37716330029285
 20
12.250003637398892
 10
85.52728333499532
 20
12.250003411702526
 10
85.67740336969779
 20
12.250003186006158
 10
85.82752340440014
 20
12.25000296030979
 10
85.97764343910261
 20
12.250002734613421
 10
86.12776347380508
 20
12.250002508917085
 10
86.27788350850754
 20
12.250002283220718
 10
86.42800354321001
 20
12.25000205752435
 10
86.57812357791248
 20
12.250001831827982
 10
86.72824361261483
 20
12.250001606131645
 10
86.8783636473173
 20
12.250001388482008
 10
87.02848368201988
 20
12.250001296319331
 10
87.17860371672246
 20
12.250001204156677
 10
87.32872375142516
 20
12.250001111993999
 10
87.47884378612763
 20
12.250001019831345
 10
87.62896382083032
 20
12.250000927668667
 10
87.77908385553279
 20
12.250000835505988
 10
87.92920389023537
 20
12.250000743343334
 10
88.07932392493795
 20
12.250000651180656
 10
88.22944395964065
 20
12.250000559018002
 10
88.37956399434323
 20
12.250000466855324
 10
88.52968402904581
 20
12.25000037469267
 10
88.67980406374828
 20
12.250000282529992
 10
88.82992409845086
 20
12.250000190367315
 10
88.98004413315356
 20
12.250000098204659
 10
89.13016416785614
 20
12.250000017121957
 10
89.28028420255872
 20
12.250000008560995
 10
89.4304042372613
 20
12.25
 10
89.43040423726107
 20
12.401515151514763
 10
89.43040423726119
 20
12.55303030303
 10
89.43040423726119
 20
12.704545454545272
 10
89.43040423726119
 20
12.85606060606051
 10
89.43040423726119
 20
13.00757575757578
 10
89.43040423726119
 20
13.159090909091018
 10
89.43040423726119
 20
13.310606060606256
 10
89.43040423726119
 20
13.46212121212155
 10
89.43040423726119
 20
13.613636363636788
 10
89.43040423726119
 20
13.76515151515206
 10
89.43040423726119
 20
13.916666666667297
 10
89.43040423726119
 20
14.068181818182534
 10
89.43040423726119
 20
14.219696969697805
 10
89.43040423726119
 20
14.371212121213043
 10
89.43040423726119
 20
14.522727272728314
 10
89.43040423726119
 20
14.674242424243552
 10
89.43040423726119
 20
14.825757575758821
 10
89.43040423726119
 20
14.977272727274059
 10
89.43040423726119
 20
15.128787878789298
 10
89.43040423726119
 20
15.28030303030459
 10
89.43040423726119
 20
15.43181818181983
 10
89.43040423726119
 20
15.5833333333351
 10
89.4304042372613
 20
15.734848484850339
 10
89.4304042372613
 20
15.886363636365608
 10
89.4304042372613
 20
16.037878787880846
 10
89.4304042372613
 20
16.189393939396084
 10
89.4304042372613
 20
16.340909090911353
 10
89.4304042372613
 20
16.492424242426594
 10
89.4304042372613
 20
16.643939393941864
 10
89.4304042372613
 20
16.7954545454571
 10
89.4304042372613
 20
16.94696969697234
 10
89.4304042372613
 20
17.098484848487633
 10
89.4304042372613
 20
17.25000000000287
 10
89.4304042372613
 20
17.40151515151814
 10
89.4304042372613
 20
17.55303030303338
 10
89.4304042372613
 20
17.70454545454865
 10
89.4304042372613
 20
17.85606060606389
 10
89.4304042372613
 20
18.007575757579126
 10
89.4304042372613
 20
18.159090909094395
 10
89.4304042372613
 20
18.310606060609636
 10
89.4304042372613
 20
18.462121212124906
 10
89.4304042372613
 20
18.613636363640143
 10
89.4304042372613
 20
18.765151515155438
 10
89.43040423726141
 20
18.916666666670675
 10
89.43040423726141
 20
19.068181818185913
 10
89.43040423726141
 20
19.219696969701182
 10
89.43040423726141
 20
19.371212121216423
 10
89.43040423726141
 20
19.522727272731693
 10
89.43040423726141
 20
19.67424242424693
 10
89.43040423726141
 20
19.825757575762168
 10
89.43040423726141
 20
19.977272727277438
 10
89.43040423726141
 20
20.12878787879268
 10
89.43040423726141
 20
20.280303030307948
 10
89.43040423726141
 20
20.431818181823182
 10
89.43040423726141
 20
20.58333333333848
 10
89.43040423726141
 20
20.734848484853714
 10
89.43040423726141
 20
20.886363636368955
 10
89.43040423726141
 20
21.037878787884225
 10
89.43040423726141
 20
21.189393939399462
 10
89.43040423726141
 20
21.340909090914735
 10
89.43040423726141
 20
21.49242424242997
 10
89.43040423726141
 20
21.643939393945242
 10
89.43040423726141
 20
21.79545454546048
 10
89.43040423726141
 20
21.946969696975717
 10
89.43040423726153
 20
22.09848484849099
  0
ENDSEC
  0
SECTION
  2
OBJECTS
  0
DICTIONARY
  5
A
330
0
100
AcDbDictionary
281
1
  3
ACAD_COLOR
350
B
  3
ACAD_GROUP
350
C
  3
ACAD_LAYOUT
350
D
  3
ACAD_MATERIAL
350
E
  3
ACAD_MLEADERSTYLE
350
F
  3
ACAD_MLINESTYLE
350
10
  3
ACAD_PLOTSETTINGS
350
11
  3
ACAD_PLOTSTYLENAME
350
12
  3
ACAD_SCALELIST
350
14
  3
ACAD_TABLESTYLE
350
15
  3
ACAD_VISUALSTYLE
350
16
  3
EZDXF_META
350
2D
  0
DICTIONARY
  5
B
330
A
100
AcDbDictionary
281
1
  0
DICTIONARY
  5
C
330
A
100
AcDbDictionary
281
1
  0
DICTIONARY
  5
D
330
A
100
AcDbDictionary
281
1
  3
Model
350
1A
  3
Layout1
350
1E
  0
DICTIONARY
  5
E
330
A
100
AcDbDictionary
281
1
  3
ByBlock
350
1F
  3
ByLayer
350
20
  3
Global
350
21
  0
DICTIONARY
  5
F
330
A
100
AcDbDictionary
281
1
  3
Standard
350
2C
  0
DICTIONARY
  5
10
330
A
100
AcDbDictionary
281
1
  3
Standard
350
22
  0
DICTIONARY
  5
11
330
A
100
AcDbDictionary
281
1
  0
ACDBDICTIONARYWDFLT
  5
12
330
A
100
AcDbDictionary
281
1
  3
Normal
350
13
100
AcDbDictionaryWithDefault
340
13
  0
ACDBPLACEHOLDER
  5
13
330
12
  0
DICTIONARY
  5
14
330
A
100
AcDbDictionary
281
1
  0
DICTIONARY
  5
15
330
A
100
AcDbDictionary
281
1
  0
DICTIONARY
  5
16
330
A
100
AcDbDictionary
281
1
  0
LAYOUT
  5
1A
330
D
100
AcDbPlotSettings
  1

  4
A3
  6

 40
7.5
 41
20.0
 42
7.5
 43
20.0
 44
420.0
 45
297.0
 46
0.0
 47
0.0
 48
0.0
 49
0.0
140
0.0
141
0.0
142
1.0
143
1.0
 70
1024
 72
1
 73
0
 74
5
  7

 75
16
 76
0
 77
2
 78
300
147
1.0
148
0.0
149
0.0
100
AcDbLayout
  1
Model
 70
1
 71
0
 10
0.0
 20
0.0
 11
420.0
 21
297.0
 12
0.0
 22
0.0
 32
0.0
 14
1e+20
 24
1e+20
 34
1e+20
 15
-1e+20
 25
-1e+20
 35
-1e+20
146
0.0
 13
0.0
 23
0.0
 33
0.0
 16
1.0
 26
0.0
 36
0.0
 17
0.0
 27
1.0
 37
0.0
 76
1
330
17
  0
LAYOUT
  5
1E
330
D
100
AcDbPlotSettings
  1

  4
A3
  6

 40
7.5
 41
20.0
 42
7.5
 43
20.0
 44
420.0
 45
297.0
 46
0.0
 47
0.0
 48
0.0
 49
0.0
140
0.0
141
0.0
142
1.0
143
1.0
 70
0
 72
1
 73
0
 74
5
  7

 75
16
 76
0
 77
2
 78
300
147
1.0
148
0.0
149
0.0
100
AcDbLayout
  1
Layout1
 70
1
 71
1
 10
0.0
 20
0.0
 11
420.0
 21
297.0
 12
0.0
 22
0.0
 32
0.0
 14
1e+20
 24
1e+20
 34
1e+20
 15
-1e+20
 25
-1e+20
 35
-1e+20
146
0.0
 13
0.0
 23
0.0
 33
0.0
 16
1.0
 26
0.0
 36
0.0
 17
0.0
 27
1.0
 37
0.0
 76
1
330
1B
  0
MATERIAL
  5
1F
102
{ACAD_REACTORS
330
E
102
}
330
E
100
AcDbMaterial
  1
ByBlock
  2

 70
0
 40
1.0
 71
1
 41
1.0
 91
-1023410177
 42
1.0
 72
1
  3

 73
1
 74
1
 75
1
 44
0.5
 73
0
 45
1.0
 46
1.0
 77
1
  4

 78
1
 79
1
170
1
 48
1.0
171
1
  6

172
1
173
1
174
1
140
1.0
141
1.0
175
1
  7

176
1
177
1
178
1
143
1.0
179
1
  8

270
1
271
1
272
1
145
1.0
146
1.0
273
1
  9

274
1
275
1
276
1
 42
1.0
 72
1
  3

 73
1
 74
1
 75
1
 94
63
  0
MATERIAL
  5
20
102
{ACAD_REACTORS
330
E
102
}
330
E
100
AcDbMaterial
  1
ByLayer
  2

 70
0
 40
1.0
 71
1
 41
1.0
 91
-1023410177
 42
1.0
 72
1
  3

 73
1
 74
1
 75
1
 44
0.5
 73
0
 45
1.0
 46
1.0
 77
1
  4

 78
1
 79
1
170
1
 48
1.0
171
1
  6

172
1
173
1
174
1
140
1.0
141
1.0
175
1
  7

176
1
177
1
178
1
143
1.0
179
1
  8

270
1
271
1
272
1
145
1.0
146
1.0
273
1
  9

274
1
275
1
276
1
 42
1.0
 72
1
  3

 73
1
 74
1
 75
1
 94
63
  0
MATERIAL
  5
21
102
{ACAD_REACTORS
330
E
102
}
330
E
100
AcDbMaterial
  1
Global
  2

 70
0
 40
1.0
 71
1
 41
1.0
 91
-1023410177
 42
1.0
 72
1
  3

 73
1
 74
1
 75
1
 44
0.5
 73
0
 45
1.0
 46
1.0
 77
1
  4

 78
1
 79
1
170
1
 48
1.0
171
1
  6

172
1
173
1
174
1
140
1.0
141
1.0
175
1
  7

176
1
177
1
178
1
143
1.0
179
1
  8

270
1
271
1
272
1
145
1.0
146
1.0
273
1
  9

274
1
275
1
276
1
 42
1.0
 72
1
  3

 73
1
 74
1
 75
1
 94
63
  0
MLINESTYLE
  5
22
102
{ACAD_REACTORS
330
10
102
}
330
10
100
AcDbMlineStyle
  2
Standard
 70
0
  3

 62
256
 51
90.0
 52
90.0
 71
2
 49
0.5
 62
256
  6
BYLAYER
 49
-0.5
 62
256
  6
BYLAYER
  0
MLEADERSTYLE
  5
2C
102
{ACAD_REACTORS
330
F
102
}
330
F
100
AcDbMLeaderStyle
179
2
170
2
171
1
172
0
 90
2
 40
0.0
 41
0.0
173
1
 91
-1056964608
 92
-2
290
1
 42
2.0
291
1
 43
8.0
  3
Standard
 44
4.0
300

342
29
174
1
175
1
176
0
178
1
 93
-1056964608
 45
4.0
292
0
297
0
 46
4.0
 94
-1056964608
 47
1.0
 49
1.0
140
1.0
294
1
141
0.0
177
0
142
1.0
295
0
296
0
143
3.75
271
0
272
9
273
9
  0
DICTIONARY
  5
2D
330
A
100
AcDbDictionary
280
1
281
1
  3
CREATED_BY_EZDXF
350
2E
  3
WRITTEN_BY_EZDXF
350
3A
  0
DICTIONARYVAR
  5
2E
330
2D
100
DictionaryVariables
280
0
  1
1.4.4 @ 2026-09-19T12:12:33.524874+00:00
  0
DICTIONARYVAR
  5
3A
330
2D
100
DictionaryVariables
280
0
  1
1.4.4 @ 2026-09-19T12:12:33.542344+00:00
  0
ENDSEC
  0
EOF
