  0
SECTION
  2
HEADER
  9
$ACADVER
  1
AC1024
  9
$ACADMAINTVER
 70
6
  9
$DWGCODEPAGE
  3
ANSI_1252
  9
$LASTSAVEDBY
  1
ezdxf
  9
$INSBASE
 10
0.0
 20
0.0
 30
0.0
  9
$EXTMIN
 10
1e+20
 20
1e+20
 30
1e+20
  9
$EXTMAX
 10
-1e+20
 20
-1e+20
 30
-1e+20
  9
$LIMMIN
 10
0.0
 20
0.0
  9
$LIMMAX
 10
420.0
 20
297.0
  9
$ORTHOMODE
 70
0
  9
$REGENMODE
 70
1
  9
$FILLMODE
 70
1
  9
$QTEXTMODE
 70
0
  9
$MIRRTEXT
 70
1
  9
$LTSCALE
 40
1.0
  9
$ATTMODE
 70
1
  9
$TEXTSIZE
 40
2.5
  9
$TRACEWID
 40
1.0
  9
$TEXTSTYLE
  7
Standard
  9
$CLAYER
  8
0
  9
$CELTYPE
  6
ByLayer
  9
$CECOLOR
 62
256
  9
$CELTSCALE
 40
1.0
  9
$DISPSILH
 70
0
  9
$DIMSCALE
 40
1.0
  9
$DIMASZ
 40
2.5
  9
$DIMEXO
 40
0.625
  9
$DIMDLI
 40
3.75
  9
$DIMRND
 40
0.0
  9
$DIMDLE
 40
0.0
  9
$DIMEXE
 40
1.25
  9
$DIMTP
 40
0.0
  9
$DIMTM
 40
0.0
  9
$DIMTXT
 40
2.5
  9
$DIMCEN
 40
2.5
  9
$DIMTSZ
 40
0.0
  9
$DIMTOL
 70
0
  9
$DIMLIM
 70
0
  9
$DIMTIH
 70
0
  9
$DIMTOH
 70
0
  9
$DIMSE1
 70
0
  9
$DIMSE2
 70
0
  9
$DIMTAD
 70
1
  9
$DIMZIN
 70
8
  9
$DIMBLK
  1

  9
$DIMASO
 70
1
  9
$DIMSHO
 70
1
  9
$DIMPOST
  1

  9
$DIMAPOST
  1

  9
$DIMALT
 70
0
  9
$DIMALTD
 70
3
  9
$DIMALTF
 40
0.03937007874
  9
$DIMLFAC
 40
1.0
  9
$DIMTOFL
 70
1
  9
$DIMTVP
 40
0.0
  9
$DIMTIX
 70
0
  9
$DIMSOXD
 70
0
  9
$DIMSAH
 70
0
  9
$DIMBLK1
  1

  9
$DIMBLK2
  1

  9
$DIMSTYLE
  2
ISO-25
  9
$DIMCLRD
 70
0
  9
$DIMCLRE
 70
0
  9
$DIMCLRT
 70
0
  9
$DIMTFAC
 40
1.0
  9
$DIMGAP
 40
0.625
  9
$DIMJUST
 70
0
  9
$DIMSD1
 70
0
  9
$DIMSD2
 70
0
  9
$DIMTOLJ
 70
0
  9
$DIMTZIN
 70
8
  9
$DIMALTZ
 70
0
  9
$DIMALTTZ
 70
0
  9
$DIMUPT
 70
0
  9
$DIMDEC
 70
2
  9
$DIMTDEC
 70
2
  9
$DIMALTU
 70
2
  9
$DIMALTTD
 70
3
  9
$DIMTXSTY
  7
Standard
  9
$DIMAUNIT
 70
0
  9
$DIMADEC
 70
0
  9
$DIMALTRND
 40
0.0
  9
$DIMAZIN
 70
0
  9
$DIMDSEP
 70
44
  9
$DIMATFIT
 70
3
  9
$DIMFRAC
 70
0
  9
$DIMLDRBLK
  1

  9
$DIMLUNIT
 70
2
  9
$DIMLWD
 70
-2
  9
$DIMLWE
 70
-2
  9
$DIMTMOVE
 70
0
  9
$DIMFXL
 40
1.0
  9
$DIMFXLON
 70
0
  9
$DIMJOGANG
 40
0.785398163397
  9
$DIMTFILL
 70
0
  9
$DIMTFILLCLR
 70
0
  9
$DIMARCSYM
 70
0
  9
$DIMLTYPE
  6

  9
$DIMLTEX1
  6

  9
$DIMLTEX2
  6

  9
$DIMTXTDIRECTION
 70
0
  9
$LUNITS
 70
2
  9
$LUPREC
 70
4
  9
$SKETCHINC
 40
1.0
  9
$FILLETRAD
 40
10.0
  9
$AUNITS
 70
0
  9
$AUPREC
 70
2
  9
$MENU
  1
.
  9
$ELEVATION
 40
0.0
  9
$PELEVATION
 40
0.0
  9
$THICKNESS
 40
0.0
  9
$LIMCHECK
 70
0
  9
$CHAMFERA
 40
0.0
  9
$CHAMFERB
 40
0.0
  9
$CHAMFERC
 40
0.0
  9
$CHAMFERD
 40
0.0
  9
$SKPOLY
 70
0
  9
$TDCREATE
 40
2461303.7378935185
  9
$TDUCREATE
 40
2458532.153996898
  9
$TDUPDATE
 40
2461303.7378935185
  9
$TDUUPDATE
 40
2458532.1544311
  9
$TDINDWG
 40
0.0
  9
$TDUSRTIMER
 40
0.0
  9
$USRTIMER
 70
1
  9
$ANGBASE
 50
0.0
  9
$ANGDIR
 70
0
  9
$PDMODE
 70
0
  9
$PDSIZE
 40
0.0
  9
$PLINEWID
 40
0.0
  9
$SPLFRAME
 70
0
  9
$SPLINETYPE
 70
6
  9
$SPLINESEGS
 70
8
  9
$HANDSEED
  5
3B
  9
$SURFTAB1
 70
6
  9
$SURFTAB2
 70
6
  9
$SURFTYPE
 70
6
  9
$SURFU
 70
6
  9
$SURFV
 70
6
  9
$UCSBASE
  2

  9
$UCSNAME
  2

  9
$UCSORG
 10
0.0
 20
0.0
 30
0.0
  9
$UCSXDIR
 10
1.0
 20
0.0
 30
0.0
  9
$UCSYDIR
 10
0.0
 20
1.0
 30
0.0
  9
$UCSORTHOREF
  2

  9
$UCSORTHOVIEW
 70
0
  9
$UCSORGTOP
 10
0.0
 20
0.0
 30
0.0
  9
$UCSORGBOTTOM
 10
0.0
 20
0.0
 30
0.0
  9
$UCSORGLEFT
 10
0.0
 20
0.0
 30
0.0
  9
$UCSORGRIGHT
 10
0.0
 20
0.0
 30
0.0
  9
$UCSORGFRONT
 10
0.0
 20
0.0
 30
0.0
  9
$UCSORGBACK
 10
0.0
 20
0.0
 30
0.0
  9
$PUCSBASE
  2

  9
$PUCSNAME
  2

  9
$PUCSORG
 10
0.0
 20
0.0
 30
0.0
  9
$PUCSXDIR
 10
1.0
 20
0.0
 30
0.0
  9
$PUCSYDIR
 10
0.0
 20
1.0
 30
0.0
  9
$PUCSORTHOREF
  2

  9
$PUCSORTHOVIEW
 70
0
  9
$PUCSORGTOP
 10
0.0
 20
0.0
 30
0.0
  9
$PUCSORGBOTTOM
 10
0.0
 20
0.0
 30
0.0
  9
$PUCSORGLEFT
 10
0.0
 20
0.0
 30
0.0
  9
$PUCSORGRIGHT
 10
0.0
 20
0.0
 30
0.0
  9
$PUCSORGFRONT
 10
0.0
 20
0.0
 30
0.0
  9
$PUCSORGBACK
 10
0.0
 20
0.0
 30
0.0
  9
$USERI1
 70
0
  9
$USERI2
 70
0
  9
$USERI3
 70
0
  9
$USERI4
 70
0
  9
$USERI5
 70
0
  9
$USERR1
 40
0.0
  9
$USERR2
 40
0.0
  9
$USERR3
 40
0.0
  9
$USERR4
 40
0.0
  9
$USERR5
 40
0.0
  9
$WORLDVIEW
 70
1
  9
$SHADEDGE
 70
3
  9
$SHADEDIF
 70
70
  9
$TILEMODE
 70
1
  9
$MAXACTVP
 70
64
  9
$PINSBASE
 10
0.0
 20
0.0
 30
0.0
  9
$PLIMCHECK
 70
0
  9
$PEXTMIN
 10
1e+20
 20
1e+20
 30
1e+20
  9
$PEXTMAX
 10
-1e+20
 20
-1e+20
 30
-1e+20
  9
$PLIMMIN
 10
0.0
 20
0.0
  9
$PLIMMAX
 10
420.0
 20
297.0
  9
$UNITMODE
 70
0
  9
$VISRETAIN
 70
1
  9
$PLINEGEN
 70
0
  9
$PSLTSCALE
 70
1
  9
$TREEDEPTH
 70
3020
  9
$CMLSTYLE
  2
Standard
  9
$CMLJUST
 70
0
  9
$CMLSCALE
 40
20.0
  9
$PROXYGRAPHICS
 70
1
  9
$MEASUREMENT
 70
1
  9
$CELWEIGHT
370
-1
  9
$ENDCAPS
280
0
  9
$JOINSTYLE
280
0
  9
$LWDISPLAY
290
0
  9
$INSUNITS
 70
4
  9
$HYPERLINKBASE
  1

  9
$STYLESHEET
  1

  9
$XEDIT
290
1
  9
$CEPSNTYPE
380
0
  9
$PSTYLEMODE
290
1
  9
$FINGERPRINTGUID
  2
{FE54779E-6EE6-480D-8C51-FF5A74A6284C}
  9
$VERSIONGUID
  2
{66196643-E70B-4B2E-835D-31B7923B22AA}
  9
$EXTNAMES
290
1
  9
$PSVPSCALE
 40
0.0
  9
$OLESTARTUP
290
0
  9
$SORTENTS
280
127
  9
$INDEXCTL
280
0
  9
$HIDETEXT
280
1
  9
$XCLIPFRAME
280
1
  9
$HALOGAP
280
0
  9
$OBSCOLOR
 70
257
  9
$OBSLTYPE
280
0
  9
$INTERSECTIONDISPLAY
280
0
  9
$INTERSECTIONCOLOR
 70
257
  9
$DIMASSOC
280
2
  9
$PROJECTNAME
  1

  9
$CAMERADISPLAY
290
0
  9
$LENSLENGTH
 40
50.0
  9
$CAMERAHEIGHT
 40
0.0
  9
$STEPSPERSEC
 40
24.0
  9
$STEPSIZE
 40
100.0
  9
$3DDWFPREC
 40
2.0
  9
$PSOLWIDTH
 40
0.005
  9
$PSOLHEIGHT
 40
0.08
  9
$LOFTANG1
 40
1.570796326795
  9
$LOFTANG2
 40
1.570796326795
  9
$LOFTMAG1
 40
0.0
  9
$LOFTMAG2
 40
0.0
  9
$LOFTPARAM
 70
7
  9
$LOFTNORMALS
280
1
  9
$LATITUDE
 40
37.795
  9
$LONGITUDE
 40
-122.394
  9
$NORTHDIRECTION
 40
0.0
  9
$TIMEZONE
 70
-8000
  9
$LIGHTGLYPHDISPLAY
280
1
  9
$TILEMODELIGHTSYNCH
280
1
  9
$CMATERIAL
347
20
  9
$SOLIDHIST
280
0
  9
$SHOWHIST
280
1
  9
$DWFFRAME
280
2
  9
$DGNFRAME
280
2
  9
$REALWORLDSCALE
290
1
  9
$INTERFERECOLOR
 62
256
  9
$CSHADOW
280
0
  9
$SHADOWPLANELOCATION
 40
0.0
  0
ENDSEC
  0
SECTION
  2
CLASSES
  0
CLASS
  1
ACDBDICTIONARYWDFLT
  2
AcDbDictionaryWithDefault
  3
ObjectDBX Classes
 90
0
 91
0
280
0
281
0
  0
CLASS
  1
SUN
  2
AcDbSun
  3
SCENEOE
 90
1153
 91
0
280
0
281
0
  0
CLASS
  1
VISUALSTYLE
  2
AcDbVisualStyle
  3
ObjectDBX Classes
 90
4095
 91
0
280
0
281
0
  0
CLASS
  1
MATERIAL
  2
AcDbMaterial
  3
ObjectDBX Classes
 90
1153
 91
0
280
0
281
0
  0
CLASS
  1
SCALE
  2
AcDbScale
  3
ObjectDBX Classes
 90
1153
 91
0
280
0
281
0
  0
CLASS
  1
TABLESTYLE
  2
AcDbTableStyle
  3
ObjectDBX Classes
 90
4095
 91
0
280
0
281
0
  0
CLASS
  1
MLEADERSTYLE
  2
AcDbMLeaderStyle
  3
ACDB_MLEADERSTYLE_CLASS
 90
4095
 91
0
280
0
281
0
  0
CLASS
  1
DICTIONARYVAR
  2
AcDbDictionaryVar
  3
ObjectDBX Classes
 90
0
 91
0
280
0
281
0
  0
CLASS
  1
CELLSTYLEMAP
  2
AcDbCellStyleMap
  3
ObjectDBX Classes
 90
1152
 91
0
280
0
281
0
  0
CLASS
  1
MENTALRAYRENDERSETTINGS
  2
AcDbMentalRayRenderSettings
  3
SCENEOE
 90
1024
 91
0
280
0
281
0
  0
CLASS
  1
ACDBDETAILVIEWSTYLE
  2
AcDbDetailViewStyle
  3
ObjectDBX Classes
 90
1025
 91
0
280
0
281
0
  0
CLASS
  1
ACDBSECTIONVIEWSTYLE
  2
AcDbSectionViewStyle
  3
ObjectDBX Classes
 90
1025
 91
0
280
0
281
0
  0
CLASS
  1
RASTERVARIABLES
  2
AcDbRasterVariables
  3
ISM
 90
0
 91
0
280
0
281
0
  0
CLASS
  1
LAYOUT
  2
AcDbLayout
  3
ObjectDBX Classes
 90
0
 91
0
280
0
281
0
  0
CLASS
  1
ACDBPLACEHOLDER
  2
AcDbPlaceHolder
  3
ObjectDBX Classes
 90
0
 91
0
280
0
281
0
  0
ENDSEC
  0
SECTION
  2
TABLES
  0
TABLE
  2
VPORT
  5
8
330
0
100
AcDbSymbolTable
 70
1
  0
VPORT
  5
23
330
8
100
AcDbSymbolTableRecord
100
AcDbViewportTableRecord
  2
*Active
 70
0
 10
0.0
 20
0.0
 11
1.0
 21
1.0
 12
0.0
 22
0.0
 13
0.0
 23
0.0
 14
0.5
 24
0.5
 15
0.5
 25
0.5
 16
0.0
 26
0.0
 36
1.0
 17
0.0
 27
0.0
 37
0.0
 40
1000.0
 41
1.34
 42
50.0
 43
0.0
 44
0.0
 50
0.0
 51
0.0
 71
0
 72
1000
 73
1
 74
3
 75
0
 76
0
 77
0
 78
0
281
0
 65
0
146
0.0
  0
ENDTAB
  0
TABLE
  2
LTYPE
  5
2
330
0
100
AcDbSymbolTable
 70
3
  0
LTYPE
  5
24
330
2
100
AcDbSymbolTableRecord
100
AcDbLinetypeTableRecord
  2
ByBlock
 70
0
  3

 72
65
 73
0
 40
0.0
  0
LTYPE
  5
25
330
2
100
AcDbSymbolTableRecord
100
AcDbLinetypeTableRecord
  2
ByLayer
 70
0
  3

 72
65
 73
0
 40
0.0
  0
LTYPE
  5
26
330
2
100
AcDbSymbolTableRecord
100
AcDbLinetypeTableRecord
  2
Continuous
 70
0
  3

 72
65
 73
0
 40
0.0
  0
ENDTAB
  0
TABLE
  2
LAYER
  5
1
330
0
100
AcDbSymbolTable
 70
6
  0
LAYER
  5
27
330
1
100
AcDbSymbolTableRecord
100
AcDbLayerTableRecord
  2
0
 70
0
 62
7
  6
Continuous
370
-3
390
13
347
21
  0
LAYER
  5
28
330
1
100
AcDbSymbolTableRecord
100
AcDbLayerTableRecord
  2
Defpoints
 70
0
 62
7
  6
Continuous
290
0
370
-3
390
13
347
21
  0
LAYER
  5
2F
330
1
100
AcDbSymbolTableRecord
100
AcDbLayerTableRecord
  2
CUT_TOOL
 70
0
 62
7
  6
Continuous
370
-3
390
13
347
21
  0
LAYER
  5
30
330
1
100
AcDbSymbolTableRecord
100
AcDbLayerTableRecord
  2
CAD_OUTER
 70
0
 62
5
  6
Continuous
370
-3
390
13
347
21
  0
LAYER
  5
31
330
1
100
AcDbSymbolTableRecord
100
AcDbLayerTableRecord
  2
INNER_5MM_REFERENCE
 70
0
 62
3
  6
Continuous
370
-3
390
13
347
21
  0
LAYER
  5
32
330
1
100
AcDbSymbolTableRecord
100
AcDbLayerTableRecord
  2
LABEL
 70
0
 62
2
  6
Continuous
370
-3
390
13
347
21
  0
ENDTAB
  0
TABLE
  2
STYLE
  5
5
330
0
100
AcDbSymbolTable
 70
1
  0
STYLE
  5
29
330
5
100
AcDbSymbolTableRecord
100
AcDbTextStyleTableRecord
  2
Standard
 70
0
 40
0.0
 41
1.0
 50
0.0
 71
0
 42
2.5
  3
txt
  4

  0
ENDTAB
  0
TABLE
  2
VIEW
  5
7
330
0
100
AcDbSymbolTable
 70
0
  0
ENDTAB
  0
TABLE
  2
UCS
  5
6
330
0
100
AcDbSymbolTable
 70
0
  0
ENDTAB
  0
TABLE
  2
APPID
  5
3
330
0
100
AcDbSymbolTable
 70
3
  0
APPID
  5
2A
330
3
100
AcDbSymbolTableRecord
100
AcDbRegAppTableRecord
  2
ACAD
 70
0
  0
APPID
  5
38
330
3
100
AcDbSymbolTableRecord
100
AcDbRegAppTableRecord
  2
HATCHBACKGROUNDCOLOR
 70
0
  0
APPID
  5
39
330
3
100
AcDbSymbolTableRecord
100
AcDbRegAppTableRecord
  2
EZDXF
 70
0
  0
ENDTAB
  0
TABLE
  2
DIMSTYLE
  5
4
330
0
100
AcDbSymbolTable
 70
1
100
AcDbDimStyleTable
  0
DIMSTYLE
105
2B
330
4
100
AcDbSymbolTableRecord
100
AcDbDimStyleTableRecord
  2
Standard
 70
0
 40
1.0
 41
2.5
 42
0.625
 43
3.75
 44
1.25
 45
0.0
 46
0.0
 47
0.0
 48
0.0
 49
2.5
140
2.5
141
2.5
142
0.0
143
0.03937007874
144
1.0
145
0.0
146
1.0
147
0.625
148
0.0
 69
0
 70
0
 71
0
 72
0
 73
0
 74
0
 75
0
 76
0
 77
1
 78
8
 79
3
170
0
171
3
172
1
173
0
174
0
175
0
176
0
177
0
178
0
179
2
271
2
272
2
273
2
274
3
275
0
276
0
277
2
278
44
279
0
280
0
281
0
282
0
283
0
284
8
285
0
286
0
288
0
289
3
290
0
371
-2
372
-2
  0
ENDTAB
  0
TABLE
  2
BLOCK_RECORD
  5
9
330
0
100
AcDbSymbolTable
 70
2
  0
BLOCK_RECORD
  5
17
330
9
100
AcDbSymbolTableRecord
100
AcDbBlockTableRecord
  2
*Model_Space
340
1A
 70
0
280
1
281
0
  0
BLOCK_RECORD
  5
1B
330
9
100
AcDbSymbolTableRecord
100
AcDbBlockTableRecord
  2
*Paper_Space
340
1E
 70
0
280
1
281
0
  0
ENDTAB
  0
ENDSEC
  0
SECTION
  2
BLOCKS
  0
BLOCK
  5
18
330
17
100
AcDbEntity
  8
0
100
AcDbBlockBegin
  2
*Model_Space
 70
0
 10
0.0
 20
0.0
 30
0.0
  3
*Model_Space
  1

  0
ENDBLK
  5
19
330
17
100
AcDbEntity
  8
0
100
AcDbBlockEnd
  0
BLOCK
  5
1C
330
1B
100
AcDbEntity
  8
0
100
AcDbBlockBegin
  2
*Paper_Space
 70
0
 10
0.0
 20
0.0
 30
0.0
  3
*Paper_Space
  1

  0
ENDBLK
  5
1D
330
1B
100
AcDbEntity
  8
0
100
AcDbBlockEnd
  0
ENDSEC
  0
SECTION
  2
ENTITIES
  0
LWPOLYLINE
  5
33
330
17
100
AcDbEntity
  8
CUT_TOOL
100
AcDbPolyline
 90
541
 70
1
 10
0.0
 20
17.250231538130336
 10
12.000000031677686
 20
17.250231538130336
 10
12.0
 20
17.244113587321564
 10
12.003637633100766
 20
17.09401105274594
 10
12.003889476841294
 20
17.08732005754265
 10
12.011543461609818
 20
16.937411262464835
 10
12.011972580831596
 20
16.930752806034185
 10
12.023626373847847
 20
16.781076452508962
 10
12.024652853892732
 20
16.77069612522809
 10
12.042542272815453
 20
16.621619034645654
 10
12.043602870344486
 20
16.61382055436927
 10
12.066170564567344
 20
16.465415867872508
 10
12.067227433549462
 20
16.459024249752353
 10
12.093634205854002
 20
16.311247020784677
 10
12.095345186863085
 20
16.302562788880305
 10
12.126972620141032
 20
16.1557850122581
 10
12.12904102159014
 20
16.146965117037258
 10
12.16595916689711
 20
16.001454812176018
 10
12.16760558379005
 20
15.995296088619217
 10
12.208219381120301
 20
15.85078351369697
 10
12.210329031632071
 20
15.843682562641181
 10
12.255217156844552
 20
15.700402883478958
 10
12.258509751215271
 20
15.690607560406058
 10
12.309276480522882
 20
15.549317433505625
 10
12.311508455974305
 20
15.543345942032705
 10
12.36585190272028
 20
15.403420330589114
 10
12.36824325193156
 20
15.397488940333435
 10
12.426161167442658
 20
15.258967901395863
 10
12.430649138978666
 20
15.24886747438274
 10
12.494635093705668
 20
15.113037404650058
 10
12.497637784340057
 20
15.106883315963328
 10
12.565302586268459
 20
14.972890712547224
 10
12.568320105788501
 20
14.967104254977318
 10
12.639466977085846
 20
14.83490919306566
 10
12.644236486485724
 20
14.826445472676388
 10
12.720476968641591
 20
14.697095563026036
 10
12.724963503806734
 20
14.689774105224462
 10
12.805583697700897
 20
14.563146167489851
 10
12.809294233264922
 20
14.557488600156997
 10
12.893309585467279
 20
14.433091586711415
 10
12.898065372295193
 20
14.426295800274579
 10
12.98618233964929
 20
14.304725202224574
 10
12.992592299532092
 20
14.296265606540304
 10
13.08577838097763
 20
14.17855940261595
 10
13.090172210779755
 20
14.173165375378957
 10
13.186581799697578
 20
14.05811641636019
 10
13.191138009192017
 20
14.05283096127706
 10
13.290745601293409
 20
13.940489936480555
 10
13.2985129581986
 20
13.93212257404696
 10
13.403149922799727
 20
13.824441954226174
 10
13.408298930023307
 20
13.819295277973232
 10
13.515999042608826
 20
13.714734146370454
 10
13.520976560754207
 20
13.71003238571244
 10
13.631508787166979
 20
13.608451611683634
 10
13.63840044751825
 20
13.602348268481558
 10
13.752617836171197
 20
13.504888541541531
 10
13.759704808755558
 20
13.4990626350979
 10
13.877400841995339
 20
13.405875333995796
 10
13.882788316029831
 20
13.401727661624001
 10
14.002965659564467
 20
13.311782403749431
 10
14.008647074717075
 20
13.307653442881813
 10
14.131334258553622
 20
13.22109788171918
 10
14.140670693708998
 20
13.214820843062293
 10
14.267125538193781
 20
13.13387405549092
 10
14.272951493712725
 20
13.130256399817132
 10
14.401548420276782
 20
13.052826961773542
 10
14.407516666547764
 20
13.04934488652962
 10
14.538217012792956
 20
12.975491823117187
 10
14.546474143867783
 20
12.971028466486525
 10
14.679875866957843
 20
12.902122802550068
 10
14.688081605491718
 20
12.898072807458126
 10
14.823891587974842
 20
12.834106756611144
 10
14.830375295670166
 20
12.831165019048477
 10
14.967940029205835
 20
12.771097414571356
 10
14.974582378419996
 20
12.768310274408256
 10
15.11385439981808
 20
12.712217311147034
 10
15.124726151761962
 20
12.70812949474533
 10
15.266456021427217
 20
12.658564847156699
 10
15.273740038362945
 20
12.656142387523225
 10
15.416886737590943
 20
12.610964436474447
 10
15.423824032811893
 20
12.608884985553637
 10
15.56823062413875
 20
12.56786915360501
 10
15.57599883194844
 20
12.565797138092277
 10
15.72167691297075
 20
12.529439099702188
 10
15.72506740501015
 20
12.528617993503223
 10
15.871236983336502
 20
12.494296625877361
 10
15.87303087162546
 20
12.49388237534749
 10
16.019448666417233
 20
12.460638511021626
 10
16.02111244888117
 20
12.460266713332501
 10
16.167754698855262
 20
12.428021823650512
 10
16.170073814653662
 20
12.427523399915177
 10
16.31701647752446
 20
12.39667110544068
 10
16.319042470639005
 20
12.396254468026475
 10
16.466233689960376
 20
12.366619294006675
 10
16.4678715559548
 20
12.366295216615114
 10
16.615257026945258
 20
12.337643786047895
 10
16.616997352661016
 20
12.337311865660546
 10
16.764584225766086
 20
12.309705251725044
 10
16.767183732536623
 20
12.309233208018592
 10
16.915053742615484
 20
12.283187887284955
 10
16.91667557578114
 20
12.282907724171935
 10
17.06471197570778
 20
12.257836769180958
 10
17.06632376967488
 20
12.2575692160389
 10
17.21452197729886
 20
12.23346608576253
 10
17.2168687846043
 20
12.233095835786456
 10
17.365290478935847
 20
12.21040198424759
 10
17.36729843111658
 20
12.210103303951685
 10
17.515897689957114
 20
12.188615664426491
 10
17.51750506265826
 20
12.188388561576033
 10
17.66624054152068
 20
12.167866300506807
 10
17.668150096042893
 20
12.167610317701564
 10
17.817041308464127
 20
12.148234634238698
 10
17.819520765226514
 20
12.147924567691136
 10
17.968597268737483
 20
12.130038124194954
 10
17.970208723634585
 20
12.129850081242324
 10
18.119396720482598
 20
12.112931613317674
 10
18.121002843060907
 20
12.112754728412188
 10
18.27029912646661
 20
12.096800641259128
 10
18.273034216321335
 20
12.096523565344782
 10
18.422497229339584
 20
12.082212101918277
 10
18.424218395866674
 20
12.082053298443432
 10
18.57377442712574
 20
12.068775753678443
 10
18.575394802186523
 20
12.06863720763632
 10
18.72503499846603
 20
12.056332744219816
 10
18.72743267602752
 20
12.056147196011223
 10
18.877185710908662
 20
12.045282630221697
 10
18.87931379978029
 20
12.04513736126145
 10
19.02915208084643
 20
12.035551024935337
 10
19.03078504114322
 20
12.035451915296935
 10
19.180682738229763
 20
12.026846305962719
 10
19.18273935729667
 20
12.02673673304666
 10
19.332704970685086
 20
12.019366180357386
 10
19.33516453982692
 20
12.019257433997366
 10
19.485194208514955
 20
12.013364114720018
 10
19.48679534436343
 20
12.013306358364455
 10
19.636858575074996
 20
12.008374688620986
 10
19.638543518029692
 20
12.00832500081997
 10
19.78863897252741
 20
12.004405206815653
 10
19.791390218867633
 20
12.004348507384995
 10
19.941519431893795
 20
12.002081079282645
 10
19.943062120829097
 20
12.002062540786909
 10
20.093200470804504
 20
12.000721646876956
 10
20.09458702700779
 20
12.00071310884215
 10
20.244732722285463
 20
12.000204941677962
 10
20.245561213987685
 20
12.000203510461953
 10
20.395707842767138
 20
12.00019292399301
 10
20.545854471546562
 20
12.000182337524052
 10
20.696001435268258
 20
12.00017195218538
 10
20.846149440334443
 20
12.00016239331654
 10
20.99629606918282
 20
12.000152834539083
 10
21.146443204461463
 20
12.000143579874042
 10
21.296590964934197
 20
12.000135004776144
 10
21.446737593842016
 20
12.000126429745448
 10
21.596884884058397
 20
12.000118251838
 10
21.747032416537607
 20
12.000110616562178
 10
21.897179045496173
 20
12.000102981333933
 10
22.047326474034122
 20
12.000095826269114
 10
22.19747379511861
 20
12.00008908686741
 10
22.347620424120038
 20
12.00008234749773
 10
22.497767974365985
 20
12.000076161361438
 10
22.64791510065399
 20
12.000070273886916
 10
22.798061729691284
 20
12.000064386432385
 10
22.94820938503412
 20
12.0000591153115
 10
23.098356333122922
 20
12.000054035818073
 10
23.24850296218966
 20
12.000048956335643
 10
23.398650706020888
 20
12.000044546317904
 10
23.548797492506893
 20
12.000040230860334
 10
23.69894412159755
 20
12.000035915407365
 10
23.849091937310845
 20
12.000032312581357
 10
23.999238578789857
 20
12.00002871721524
 10
24.14938532395827
 20
12.000025191549074
 10
24.299532962833496
 20
12.000022272306795
 10
24.44967959195779
 20
12.000019353086172
 10
24.59982644897022
 20
12.000016570726316
 10
24.74997390286339
 20
12.000014283695355
 10
24.900120531998652
 20
12.000011996678305
 10
25.05026748425378
 20
12.00000990371642
 10
25.200414769759192
 20
12.000008204953327
 10
25.350561398902215
 20
12.000006506198524
 10
25.500708429800625
 20
12.000005048726926
 10
25.650855563511925
 20
12.00000389428893
 10
25.801002192660135
 20
12.000002739855296
 10
25.95114928560389
 20
12.000001863966862
 10
26.101296284114213
 20
12.000001209911751
 10
26.251442913265464
 20
12.00000055585851
 10
26.40159016875546
 20
12.000000277973374
 10
26.55173710631587
 20
12.000000185315322
 10
26.7018837354685
 20
12.000000092657656
 10
26.852030364621157
 20
12.0
 10
27.002177325537545
 20
12.000000106595339
 10
27.15232459829545
 20
12.000000599733045
 10
27.30247122744737
 20
12.000001092869477
 10
27.45261785659929
 20
12.000001586005924
 10
27.602764494034076
 20
12.00000208411703
 10
27.752911925656463
 20
12.000003064186492
 10
27.903058554805938
 20
12.00000404425199
 10
28.053205183955455
 20
12.00000502431749
 10
28.203351813104973
 20
12.000006004383001
 10
28.35349894055858
 20
12.000007283728452
 10
28.503645803892397
 20
12.000008703722319
 10
28.653792433038404
 20
12.000010123714096
 10
28.80393906218434
 20
12.000011543705845
 10
28.954085691330363
 20
12.000012963697621
 10
29.104232320476314
 20
12.000014383689383
 10
29.25437950523157
 20
12.000016137380642
 10
29.55467282045646
 20
12.000019713147818
 10
29.70481944959853
 20
12.000021501031075
 10
29.854966078740517
 20
12.000023288914326
 10
30.005112707882574
 20
12.000025076797577
 10
30.15525933702466
 20
12.000026864680846
 10
30.305406071215202
 20
12.00002871565657
 10
30.455552747445466
 20
12.000030594912824
 10
30.605699376586358
 20
12.000032474168481
 10
30.755846005727363
 20
12.000034353424152
 10
30.905992634868255
 20
12.000036232679836
 10
31.056139264009147
 20
12.000038111935506
 10
31.206285893150095
 20
12.000039991191162
 10
31.356432522290987
 20
12.000041870446832
 10
31.506579151431964
 20
12.0000437497025
 10
31.656725780572913
 20
12.000045628958187
 10
31.806872409713804
 20
12.000047508213855
 10
31.957019038854696
 20
12.000049387469513
 10
32.1071656679957
 20
12.000051266725182
 10
32.25731221788806
 20
12.000053145979876
 10
32.407458539170804
 20
12.000054930056125
 10
32.557604939669815
 20
12.00005643949606
 10
32.70775156881494
 20
12.000057948938293
 10
32.85789819796001
 20
12.000059458380527
 10
33.008044827105195
 20
12.000060967822787
 10
33.15819133760307
 20
12.000062477263828
 10
33.30833772173666
 20
12.000063844213134
 10
33.608630853618365
 20
12.000066274433115
 10
33.75877748276611
 20
12.000067489543621
 10
33.908924111913905
 20
12.000068704654124
 10
34.059070564546715
 20
12.000069919763199
 10
34.20921694523999
 20
12.000070922819333
 10
34.35936350268152
 20
12.000071839630504
 10
34.50951013183136
 20
12.000072756442112
 10
34.65965676098129
 20
12.000073673253738
 10
34.80980339013118
 20
12.000074590065356
 10
34.95995001928101
 20
12.000075506876966
 10
35.11009652819503
 20
12.00007642368784
 10
35.26024291406381
 20
12.000077196073795
 10
35.410389420265375
 20
12.000077820719042
 10
35.56053604941678
 20
12.000078445364819
 10
35.86082930771954
 20
12.000079694656371
 10
36.01097593687095
 20
12.000080319302132
 10
36.161122503133484
 20
12.000080943947646
 10
36.31126890581724
 20
12.00008149303586
 10
36.46141537142725
 20
12.000081845676249
 10
36.61156200057955
 20
12.000082198317035
 10
36.7617086297318
 20
12.000082550957792
 10
36.911855258884074
 20
12.000082903598576
 10
37.06200188803635
 20
12.00008325623935
 10
37.21214851718865
 20
12.000083608880136
 10
37.36229514634093
 20
12.000083961520907
 10
37.512441652284
 20
12.000084314161404
 10
37.662588082107916
 20
12.000084518809032
 10
37.812734635022096
 20
12.000084631950104
 10
37.96288126417467
 20
12.000084745091232
 10
38.11302789332731
 20
12.000084858232333
 10
38.413321151632616
 20
12.000085084514591
 10
38.56346778078523
 20
12.000085197655704
 10
38.71361440993793
 20
12.000085310796832
 10
38.8637608873878
 20
12.000085423937847
 10
39.01390735897324
 20
12.00008535489033
 10
39.314200609923276
 20
12.000085200850819
 10
39.614493868228536
 20
12.000085046811302
 10
39.76464049738128
 20
12.000084969791544
 10
39.91478712653391
 20
12.000084892771786
 10
40.06493375568654
 20
12.000084815752027
 10
40.36522691283179
 20
12.000084661712563
 10
40.51537342372471
 20
12.000084463208625
 10
40.665520035695394
 20
12.00008424408919
 10
40.815666664847996
 20
12.000084024969748
 10
40.9658132940004
 20
12.000083805850277
 10
41.11595992315303
 20
12.000083586730836
 10
41.266106552305516
 20
12.000083367611378
 10
41.416253181458
 20
12.000083148491907
 10
41.56639981061058
 20
12.000082929372464
 10
41.71654643976312
 20
12.000082710253006
 10
41.86669306891564
 20
12.000082491133552
 10
42.01683969806815
 20
12.000082272014094
 10
42.1669863272207
 20
12.000082052894651
 10
42.31713295637316
 20
12.00008183377518
 10
42.46727958552573
 20
12.00008161465574
 10
42.617426214678275
 20
12.00008139553628
 10
42.76757284383079
 20
12.000081176416826
 10
42.91771950051911
 20
12.000080973834928
 10
43.21801275942795
 20
12.000080569396495
 10
43.36815938858051
 20
12.000080367177267
 10
43.518306017733096
 20
12.000080164958051
 10
43.66845264688561
 20
12.000079962738836
 10
43.81859927603817
 20
12.000079760519604
 10
43.9687459051907
 20
12.000079558300387
 10
44.11889253434326
 20
12.000079356081159
 10
44.26903916349579
 20
12.000079153861943
 10
44.41918579264842
 20
12.000078951642728
 10
44.56933242180088
 20
12.000078749423512
 10
44.71947905095351
 20
12.000078547204295
 10
44.86962568010601
 20
12.000078344985063
 10
45.019772309258585
 20
12.000078142765835
 10
45.169918938411115
 20
12.00007794054662
 10
45.32006556756363
 20
12.000077738327404
 10
45.470212196716204
 20
12.000077536108186
 10
45.62035887864363
 20
12.000077365584769
 10
45.7705056998644
 20
12.00007731041477
 10
45.920652329017116
 20
12.000077255244934
 10
46.070798958169746
 20
12.000077200075097
 10
46.220945587322404
 20
12.000077144905244
 10
46.371092216475134
 20
12.000077089735418
 10
46.52123884562778
 20
12.000077034565566
 10
46.671385474780436
 20
12.000076979395729
 10
46.82153210393315
 20
12.000076924225876
 10
46.97167873308581
 20
12.00007686905604
 10
47.12182536223847
 20
12.000076813886187
 10
47.27197199139118
 20
12.00007675871635
 10
47.42211862054384
 20
12.000076703546496
 10
47.5722652496965
 20
12.000076648376659
 10
47.722411878849215
 20
12.000076593206806
 10
47.872558675413316
 20
12.000076638582017
 10
48.022705351107874
 20
12.000076711909678
 10
48.1728519802605
 20
12.00007678523732
 10
48.32299860941319
 20
12.000076858564963
 10
48.47314523856582
 20
12.000076931892604
 10
48.623291867718564
 20
12.000077005220247
 10
48.92358512602382
 20
12.00007715187553
 10
49.07373175517648
 20
12.000077225203157
 10
49.22387838432914
 20
12.0000772985308
 10
49.374025013481855
 20
12.000077371858453
 10
49.52417164263451
 20
12.000077445186093
 10
49.6743182717872
 20
12.000077518513736
 10
49.82446490093983
 20
12.000077591841379
 10
49.97461153009252
 20
12.00007766516902
 10
50.12475815924515
 20
12.000077738496662
 10
50.274904971391805
 20
12.000077921728202
 10
50.4250516195134
 20
12.000078116352181
 10
50.57519824866591
 20
12.000078310976107
 10
50.72534487781854
 20
12.000078505600062
 10
50.87549150697103
 20
12.000078700224003
 10
51.025638136123575
 20
12.00007889484793
 10
51.175784765276205
 20
12.000079089471884
 10
51.32593139442875
 20
12.000079284095827
 10
51.47607802358132
 20
12.000079478719764
 10
51.62622465273384
 20
12.000079673343707
 10
51.776371281886384
 20
12.000079867967633
 10
51.926517911039014
 20
12.000080062591588
 10
52.0766645401915
 20
12.00008025721553
 10
52.226811169344046
 20
12.000080451839455
 10
52.376957798496676
 20
12.00008064646341
 10
52.52710442764922
 20
12.000080841087353
 10
52.67725105680179
 20
12.000081035711291
 10
52.82739779217334
 20
12.000081294129144
 10
52.977544496252165
 20
12.000081597546805
 10
53.12769112540454
 20
12.00008190096431
 10
53.27783775455691
 20
12.00008220438183
 10
53.42798438370933
 20
12.000082507799362
 10
53.57813101286172
 20
12.000082811216883
 10
53.72827764201406
 20
12.000083114634403
 10
53.87842427116648
 20
12.000083418051936
 10
54.028570900318805
 20
12.000083721469457
 10
54.17871752947121
 20
12.000084024886979
 10
54.32886415862355
 20
12.0000843283045
 10
54.47901078777595
 20
12.000084631722014
 10
54.62915741692836
 20
12.000084935139537
 10
54.7793040460807
 20
12.000085238557057
 10
54.92945067523307
 20
12.00008554197459
 10
55.229743933537854
 20
12.00008614880963
 10
55.3798905626902
 20
12.000086452227153
 10
55.530037191842624
 20
12.000086755644684
 10
55.68018394510235
 20
12.000087133599823
 10
55.83033060088018
 20
12.000087527545755
 10
55.98047723003238
 20
12.00008792149163
 10
56.13062385918455
 20
12.000088315437507
 10
56.28077048833671
 20
12.000088709383371
 10
56.4309171174889
 20
12.000089103329246
 10
56.58106374664106
 20
12.00008949727511
 10
56.731210375793225
 20
12.00008989122097
 10
56.88135700494535
 20
12.000090285166834
 10
57.18165026324972
 20
12.000091073058586
 10
57.331796892401876
 20
12.00009146700445
 10
57.48194352155407
 20
12.000091860950326
 10
57.632090150706226
 20
12.00009225489619
 10
57.78223677985842
 20
12.000092648842065
 10
57.93238340901049
 20
12.000093042787913
 10
58.082530038162716
 20
12.000093436733788
 10
58.23267666731489
 20
12.000093830679665
 10
58.382823296467045
 20
12.00009422462553
 10
58.53296992561924
 20
12.000094618571405
 10
58.683116621016374
 20
12.000095052303362
 10
58.83326329128416
 20
12.00009551072884
 10
58.98340992043608
 20
12.00009596915418
 10
59.133556549588114
 20
12.000096427579537
 10
59.283703178740055
 20
12.00009688600489
 10
59.43384980789212
 20
12.000097344430248
 10
59.583996437044014
 20
12.000097802855604
 10
59.73414306619605
 20
12.000098261280945
 10
59.88428969534802
 20
12.000098719706303
 10
60.03443632450002
 20
12.000099178131654
 10
60.184582953651976
 20
12.000099636557012
 10
60.33472958280395
 20
12.000100094982352
 10
60.48487621195593
 20
12.000100553407709
 10
60.63502284110796
 20
12.00010101183305
 10
60.78516947025995
 20
12.000101470258418
 10
60.935316099411914
 20
12.00010192868376
 10
61.08546272856395
 20
12.000102387109116
 10
61.235609357715866
 20
12.000102845534457
 10
61.385755986867956
 20
12.000103303959815
 10
61.535902616019904
 20
12.000103762385171
 10
61.68604926866884
 20
12.000104234922611
 10
61.836195931535485
 20
12.00010472770868
 10
61.98634256068735
 20
12.000105220494653
 10
62.13648918983924
 20
12.000105713280629
 10
62.28663581899107
 20
12.000106206066604
 10
62.43678244814299
 20
12.000106698852564
 10
62.586929077294855
 20
12.000107191638538
 10
62.737075706446745
 20
12.000107684424513
 10
62.88722233559858
 20
12.000108177210489
 10
63.0373689647505
 20
12.000108669996449
 10
63.18751559390236
 20
12.000109162782424
 10
63.33766222305425
 20
12.000109655568398
 10
63.487808852206086
 20
12.000110148354374
 10
63.637955481358006
 20
12.000110641140333
 10
63.78810211050981
 20
12.000111133926309
 10
63.93824873966176
 20
12.000111626712284
 10
64.0883953688136
 20
12.000112119498258
 10
64.23854199796546
 20
12.000112612284218
 10
64.38868862711732
 20
12.000113105070193
 10
64.53883525626927
 20
12.000113597856169
 10
64.68898188666333
 20
12.000114091388218
 10
64.83912852065127
 20
12.000114587824743
 10
64.98927514980315
 20
12.000115084261244
 10
65.13942177895494
 20
12.000115580697754
 10
65.28956840810683
 20
12.000116077134265
 10
65.43971503725871
 20
12.000116573570764
 10
65.58986166641064
 20
12.00011707000726
 10
65.74000829556245
 20
12.00011756644377
 10
65.89015492471432
 20
12.000118062880269
 10
66.04030155386612
 20
12.00011855931678
 10
66.190448183018
 20
12.000119055753292
 10
66.34059481216988
 20
12.00011955218979
 10
66.49074144132179
 20
12.0001200486263
 10
66.64088807047362
 20
12.000120545062812
 10
66.7910346996255
 20
12.00012104149931
 10
66.94118132877738
 20
12.000121537935806
 10
67.09132795792918
 20
12.000122034372318
 10
67.24147458708106
 20
12.000122530808817
 10
67.39162121623296
 20
12.000123027245326
 10
67.54176784538478
 20
12.000123523681825
 10
67.69191447453669
 20
12.000124020118337
 10
67.84206109081984
 20
12.000124516554806
 10
67.99220769667764
 20
12.000124997344296
 10
68.14235431502803
 20
12.000125465574595
 10
68.29250094418003
 20
12.000125933804929
 10
68.44264757333201
 20
12.000126402035278
 10
68.74294083163588
 20
12.000127338495943
 10
68.8930874607878
 20
12.000127806726265
 10
69.0432340899398
 20
12.000128274956614
 10
69.19338071909166
 20
12.000128743186947
 10
69.34352734824361
 20
12.000129211417281
 10
69.49367397739567
 20
12.000129679647614
 10
69.64382060654765
 20
12.000130147877963
 10
69.79396723569957
 20
12.000130616108295
 10
70.09426049400346
 20
12.000131552568963
 10
70.24440712315547
 20
12.000132020799295
 10
70.39455375230733
 20
12.000132489029644
 10
70.54470038145936
 20
12.000132957259977
 10
70.84499363976326
 20
12.000133893720644
 10
70.99514026891521
 20
12.00013436195098
 10
71.14528686779457
 20
12.000134830181219
 10
71.2954334635115
 20
12.000135261978834
 10
71.44558008934902
 20
12.000135689956457
 10
71.59572671850106
 20
12.000136117934106
 10
71.74587334765317
 20
12.000136545911756
 10
71.8960199768052
 20
12.00013697388939
 10
72.04616660595735
 20
12.00013740186704
 10
72.19631323510933
 20
12.000137829844673
 10
72.34645986426142
 20
12.000138257822323
 10
72.49660649341354
 20
12.000138685799973
 10
72.64675312256558
 20
12.000139113777617
 10
72.79689975171772
 20
12.000139541755267
 10
72.9470463808697
 20
12.000139969732901
 10
73.09719301002184
 20
12.00014039771055
 10
73.2473396391739
 20
12.0001408256882
 10
73.39748626832588
 20
12.000141253665834
 10
73.54763289747808
 20
12.000141681643484
 10
73.69777952663006
 20
12.000142109621118
 10
73.8479261557822
 20
12.000142537598768
 10
73.99807278493427
 20
12.000142965576417
 10
74.14821941408636
 20
12.000143393554051
 10
74.29836603462684
 20
12.000143821531676
 10
74.4485126315869
 20
12.00014423950103
 10
74.59865923631222
 20
12.00014462830204
 10
74.74880586546428
 20
12.000145017103087
 10
74.89895249461654
 20
12.000145405904151
 10
75.04909912376874
 20
12.000145794705226
 10
75.19924575292094
 20
12.00014618350629
 10
75.34939238207306
 20
12.000146572307353
 10
75.49953901122527
 20
12.000146961108427
 10
75.64968564037747
 20
12.000147349909492
 10
75.79983226952959
 20
12.000147738710554
 10
75.94997889868179
 20
12.000148127511629
 10
76.100125527834
 20
12.000148516312693
 10
76.25027215698611
 20
12.000148905113756
 10
76.4004187861384
 20
12.00014929391482
 10
76.55056541529055
 20
12.000149682715895
 10
76.7007120444427
 20
12.000150071516957
 10
76.85085867359493
 20
12.000150460318022
 10
77.00100530274707
 20
12.000150849119096
 10
77.15115193189925
 20
12.000151237920143
 10
77.30129856105145
 20
12.000151626721205
 10
77.4514451902036
 20
12.00015201552228
 10
77.60159180002015
 20
12.000152404323295
 10
77.75173841028504
 20
12.000152770168095
 10
77.77624265454591
 20
12.00135664447503
 10
77.8005109044043
 20
12.00495655405079
 10
77.82430944407221
 20
12.01091782990572
 10
77.84740908131349
 20
12.019183061872535
 10
77.86958735468353
 20
12.029672651495904
 10
77.89063067594802
 20
12.042285578606712
 10
77.91033638704795
 20
12.05690037419849
 10
77.92851471180148
 20
12.073376290236729
 10
77.9449905835466
 20
12.09155465513519
 10
77.95960533112365
 20
12.11126040184528
 10
77.97221820696055
 20
12.132303753842207
 10
77.98270774254459
 20
12.154482052770987
 10
77.99097291822711
 20
12.17758171015114
 10
77.99693413609482
 20
12.20138026434414
 10
78.00053398653887
 20
12.225648522973959
 10
78.00173780113909
 20
12.250152770168103
 10
78.00173780113863
 20
12.401588235130687
 10
78.00173780113863
 20
13.159181955053208
 10
78.00173780113869
 20
13.310700699037886
 10
78.00173780113869
 20
14.674369394899994
 10
78.00173780113874
 20
14.825888138884672
 10
78.00173780113874
 20
16.341075578731456
 10
78.0017378011388
 20
16.492594322716176
 10
78.0017378011388
 20
17.250231538130336
 10
90.00173780113909
 20
17.250231538130336
 10
90.00173780113909
 20
0.0
 10
0.0
 20
0.0
  0
TEXT
  5
34
330
17
100
AcDbEntity
  8
LABEL
100
AcDbText
 10
2.0
 20
5.0
 30
0.0
 40
2.2
  1
T02A TOOL ONLY
100
AcDbText
  0
LWPOLYLINE
  5
35
330
17
100
AcDbEntity
  8
CUT_TOOL
100
AcDbPolyline
 90
545
 70
1
 10
0.0
 20
42.50046307626067
 10
90.00173780113909
 20
42.50046307626067
 10
90.00173780113909
 20
25.250231538130336
 10
78.0017378011388
 20
25.250231538130336
 10
78.0017378011388
 20
25.856263018578243
 10
78.00173780113886
 20
26.00778176256288
 10
78.00173780113886
 20
27.52296920240967
 10
78.00173780113892
 20
27.674487946394386
 10
78.00173780113892
 20
29.038156642256453
 10
78.00173780113897
 20
29.189675386241156
 10
78.00173780113897
 20
30.098787850149307
 10
78.00173780113886
 20
30.25026408353483
 10
78.00053398660306
 20
30.274768330074032
 10
77.9969341363512
 20
30.29903658806785
 10
77.99097291879973
 20
30.322835141662445
 10
77.9827077435514
 20
30.345934798499826
 10
77.97221820851102
 20
30.36811309695862
 10
77.95960533331666
 20
30.389156448574315
 10
77.94499058646826
 20
30.40886219500646
 10
77.92851471552339
 20
30.42704055974311
 10
77.91033639162552
 20
30.443516475746605
 10
77.89063068141897
 20
30.458131271439548
 10
77.86958736106686
 20
30.470744198793994
 10
77.84740908860852
 20
30.481233788807643
 10
77.82430945225809
 20
30.48949902131303
 10
77.80051091343962
 20
30.495460297853903
 10
77.77624266436882
 20
30.499060208259447
 10
77.75173842081358
 20
30.500264083533875
 10
77.60159179166135
 20
30.500264455702162
 10
77.45144516250907
 20
30.500264827870417
 10
77.30129853335694
 20
30.500265200038704
 10
77.15115190420471
 20
30.50026557220699
 10
77.00100527505244
 20
30.50026594437525
 10
76.85085864590025
 20
30.500266316543538
 10
76.70071201674797
 20
30.500266688711793
 10
76.55056538759578
 20
30.50026706088008
 10
76.40041875844352
 20
30.50026743304835
 10
76.25027212929136
 20
30.500267805216623
 10
76.10012550013914
 20
30.50026817738491
 10
75.94997887098688
 20
30.50026854955318
 10
75.79983224183466
 20
30.500268921721457
 10
75.64968561268242
 20
30.500269293889723
 10
75.49953898353021
 20
30.50026966605801
 10
75.34939235437803
 20
30.500270038226283
 10
75.19924572145197
 20
30.500270408128067
 10
75.04909908878322
 20
30.50027077591787
 10
74.89895245963095
 20
30.50027114370768
 10
74.7488058304787
 20
30.500271511497473
 10
74.59865920132644
 20
30.500271879287254
 10
74.44851257217424
 20
30.50027224707705
 10
74.29836594302202
 20
30.50027261486686
 10
74.14821931386977
 20
30.500272982656654
 10
73.99807268471754
 20
30.50027335044645
 10
73.8479260555653
 20
30.50027371823624
 10
73.69777942641308
 20
30.500274086026035
 10
73.54763279726085
 20
30.500274453815834
 10
73.39748616810861
 20
30.50027482160563
 10
73.2473395389564
 20
30.500275189395435
 10
73.09719290980415
 20
30.50027555718523
 10
72.9470462806519
 20
30.50027592497501
 10
72.7968996514997
 20
30.500276292764816
 10
72.64675302234745
 20
30.50027666055461
 10
72.49660639319522
 20
30.500277028344406
 10
72.34645976404299
 20
30.500277396134205
 10
72.19631313489074
 20
30.500277763923997
 10
72.04616650573853
 20
30.50027813171379
 10
71.89601986294545
 20
30.500278491311143
 10
71.74587323171886
 20
30.500278849662642
 10
71.59572660256663
 20
30.50027920801416
 10
71.44557997341434
 20
30.50027956636565
 10
71.29543334426205
 20
30.50027992471714
 10
71.14528671510982
 20
30.500280283068633
 10
70.9951400859576
 20
30.500280641420133
 10
70.84499345680533
 20
30.500280999771643
 10
70.69484682765307
 20
30.500281358123132
 10
70.5447001985008
 20
30.50028171647464
 10
70.39455356934855
 20
30.500282074826128
 10
70.24440694019626
 20
30.500282433177617
 10
70.09426031104405
 20
30.500282791529123
 10
69.94411368189176
 20
30.50028314988063
 10
69.7939670527395
 20
30.500283508232123
 10
69.64382042358727
 20
30.50028386658361
 10
69.49367379443501
 20
30.500284224935115
 10
69.34352716528275
 20
30.500284583286607
 10
69.19338053613046
 20
30.500284941638096
 10
69.04323390697829
 20
30.500285299989613
 10
68.89308727782594
 20
30.500285658341106
 10
68.74294064287838
 20
30.500286013212012
 10
68.59279399298148
 20
30.50028635562402
 10
68.4426473638292
 20
30.50028669803598
 10
68.29250073467685
 20
30.500287040447944
 10
68.14235410552456
 20
30.50028738285991
 10
67.99220747637224
 20
30.500287725271853
 10
67.84206084722001
 20
30.500288067683833
 10
67.69191421806767
 20
30.500288410095777
 10
67.5417675889154
 20
30.500288752507743
 10
67.39162095976309
 20
30.50028909491969
 10
67.24147433061086
 20
30.500289437331666
 10
67.09132770145854
 20
30.500289779743632
 10
66.94118107230616
 20
30.500290122155576
 10
66.7910344431539
 20
30.50029046456754
 10
66.64088781400162
 20
30.5002908069795
 10
66.49074118484933
 20
30.500291149391465
 10
66.34059455569701
 20
30.50029149180341
 10
66.19044792654475
 20
30.500291834215375
 10
66.04030129739246
 20
30.500292176627333
 10
65.74000803908788
 20
30.500292861451264
 10
65.58986140993557
 20
30.500293203863208
 10
65.43971475484517
 20
30.50029353069717
 10
65.28956810602328
 20
30.500293845717852
 10
65.13942147687095
 20
30.5002941607385
 10
64.98927484771852
 20
30.500294475759123
 10
64.83912821856619
 20
30.500294790779762
 10
64.68898158941383
 20
30.50029510580039
 10
64.53883496026148
 20
30.50029542082102
 10
64.38868833110917
 20
30.50029573584167
 10
64.23854170195679
 20
30.500296050862296
 10
64.08839507280439
 20
30.500296365882924
 10
63.938248443652036
 20
30.500296680903553
 10
63.78810181449973
 20
30.50029699592421
 10
63.637955185347344
 20
30.500297310944838
 10
63.487808556195
 20
30.500297625965462
 10
63.337661927042674
 20
30.5002979409861
 10
63.187515297890336
 20
30.500298256006744
 10
63.037368668737905
 20
30.500298571027372
 10
62.88722203958558
 20
30.50029888604801
 10
62.737075410433214
 20
30.50029920106864
 10
62.58692878128087
 20
30.500299516089264
 10
62.43678215212855
 20
30.50029983110991
 10
62.28663552297619
 20
30.50030014613055
 10
62.136488832800524
 20
30.50030042450159
 10
61.98634219827558
 20
30.500300699645845
 10
61.83619556912309
 20
30.500300974790072
 10
61.68604893997067
 20
30.50030124993429
 10
61.53590231081826
 20
30.50030152507853
 10
61.38575568166583
 20
30.500301800222758
 10
61.2356090525134
 20
30.500302075367003
 10
61.085462423360966
 20
30.500302350511227
 10
60.935315794208485
 20
30.500302625655443
 10
60.78516916505613
 20
30.50030290079969
 10
60.635022535903644
 20
30.500303175943912
 10
60.48487590675121
 20
30.500303451088158
 10
60.33472927759878
 20
30.50030372623238
 10
60.1845826484463
 20
30.5003040013766
 10
60.03443601929395
 20
30.500304276520843
 10
59.88428939014146
 20
30.500304551665067
 10
59.73414276098909
 20
30.500304826809312
 10
59.5839961318366
 20
30.50030510195354
 10
59.433849502684204
 20
30.50030537709777
 10
59.28370287353174
 20
30.500305652241998
 10
59.133556244379335
 20
30.500305927386226
 10
58.983409591735736
 20
30.50030618842203
 10
58.83326289889044
 20
30.500306411204875
 10
58.68311626973794
 20
30.500306633987627
 10
58.53296964058541
 20
30.500306856770365
 10
58.38282301143286
 20
30.50030707955312
 10
58.23267638228034
 20
30.500307302335873
 10
57.932383123975285
 20
30.500307747901353
 10
57.78223649482279
 20
30.500307970684105
 10
57.63208986567025
 20
30.500308193466843
 10
57.481943236517765
 20
30.500308416249602
 10
57.33179660736522
 20
30.50030863903234
 10
57.18164997821272
 20
30.500308861815093
 10
56.88135671990767
 20
30.50030930738057
 10
56.7312100907552
 20
30.50030953016334
 10
56.28077020329761
 20
30.500310198511556
 10
56.13062357414511
 20
30.50031042129431
 10
55.98047694499252
 20
30.50031064407705
 10
55.83033031584003
 20
30.500310866859806
 10
55.680183619765685
 20
30.500311049450342
 10
55.530036949562785
 20
30.50031120738656
 10
55.37989032041014
 20
30.500311365322723
 10
55.22974369125761
 20
30.50031152325891
 10
55.07959706210495
 20
30.500311681195086
 10
54.92945043295238
 20
30.500311839131257
 10
54.77930380379975
 20
30.500311997067428
 10
54.62915717464716
 20
30.50031215500359
 10
54.479010545494575
 20
30.50031231293978
 10
54.32886391634197
 20
30.500312470875954
 10
54.17871728718934
 20
30.500312628812125
 10
54.02857065803678
 20
30.5003127867483
 10
53.87842402888412
 20
30.50031294468446
 10
53.728277399731596
 20
30.500313102620648
 10
53.57813077057894
 20
30.500313260556823
 10
53.427984141426364
 20
30.500313418492993
 10
53.277837512273734
 20
30.500313576429168
 10
53.12769088312115
 20
30.500313734365328
 10
52.97754425396856
 20
30.50031389230152
 10
52.82739762481596
 20
30.50031405023769
 10
52.67725099566333
 20
30.50031420817386
 10
52.527104366510756
 20
30.500314366110036
 10
52.37695761979434
 20
30.500314453439113
 10
52.226810987026994
 20
30.500314538597145
 10
52.076664357874265
 20
30.500314623755152
 10
51.92651772872162
 20
30.500314708913184
 10
51.776371099568976
 20
30.500314794071205
 10
51.62622447041632
 20
30.500314879229208
 10
51.476077841263674
 20
30.500314964387243
 10
51.32593121211103
 20
30.500315049545264
 10
51.17578458295833
 20
30.50031513470328
 10
51.025637953805656
 20
30.5003152198613
 10
50.87549132465304
 20
30.500315305019335
 10
50.72534469550031
 20
30.500315390177338
 10
50.57519806634771
 20
30.500315475335356
 10
50.42505143719504
 20
30.50031556049339
 10
50.274904808042365
 20
30.500315645651398
 10
50.12475817888972
 20
30.500315730809426
 10
49.97461154973708
 20
30.500315815967447
 10
49.824464920584376
 20
30.500315901125465
 10
49.6743182914317
 20
30.500315986283486
 10
49.524171662279045
 20
30.50031607144149
 10
49.3740250331264
 20
30.500316156599524
 10
49.22387844695365
 20
30.50031625501786
 10
49.07373184370253
 20
30.500316381545105
 10
48.92358521454993
 20
30.500316508072387
 10
48.77343858539726
 20
30.500316634599642
 10
48.62329195624467
 20
30.500316761126925
 10
48.47314532709201
 20
30.50031688765419
 10
48.32299869793941
 20
30.500317014181473
 10
48.17285206878675
 20
30.500317140708738
 10
48.02270543963415
 20
30.50031726723602
 10
47.87255881048149
 20
30.500317393763286
 10
47.72241218132888
 20
30.500317520290558
 10
47.57226555217623
 20
30.500317646817823
 10
47.42211892302363
 20
30.500317773345103
 10
47.271972293870974
 20
30.50031789987237
 10
47.121825664718315
 20
30.500318026399654
 10
46.97167903556566
 20
30.50031815292692
 10
46.82153240641304
 20
30.50031827945419
 10
46.67138592565519
 20
30.50031840612825
 10
46.52123944358526
 20
30.50031871011485
 10
46.371092814432885
 20
30.500319014101763
 10
46.22094618528051
 20
30.500319318088657
 10
46.07079955612814
 20
30.500319622075565
 10
45.92065292697576
 20
30.50031992606246
 10
45.77050629782336
 20
30.500320230049354
 10
45.620359668670986
 20
30.50032053403627
 10
45.47021303951861
 20
30.500320838023164
 10
45.32006641036621
 20
30.50032114201006
 10
45.16991992758581
 20
30.500321445996658
 10
45.01977346325154
 20
30.50032192716823
 10
44.86962685156385
 20
30.500322428540084
 10
44.5693335932602
 20
30.500323431283935
 10
44.41918696410835
 20
30.50032393265585
 10
44.26904033495644
 20
30.50032443402776
 10
44.11889370580462
 20
30.500324935399675
 10
43.9687471215464
 20
30.500325436771448
 10
43.818600661471365
 20
30.50032598767139
 10
43.66845416513465
 20
30.500326697316776
 10
43.518307535983666
 20
30.500327406962818
 10
43.36816090683264
 20
30.50032811660884
 10
43.21801427768162
 20
30.500328826254872
 10
43.06786764853064
 20
30.500329535900896
 10
42.91772101937957
 20
30.50033024554691
 10
42.767574390228646
 20
30.50033095519295
 10
42.61742776107758
 20
30.500331664838974
 10
42.46728115623169
 20
30.50033237448489
 10
42.31713468115811
 20
30.500333109693514
 10
42.16698818976873
 20
30.500334009209947
 10
42.01684156061877
 20
30.500334908727208
 10
41.86669493146873
 20
30.50033580824445
 10
41.7165483023188
 20
30.50033670776171
 10
41.566401673168755
 20
30.50033760727895
 10
41.41625504401877
 20
30.50033850679621
 10
41.26610841486881
 20
30.500339406313472
 10
41.11596178571877
 20
30.50034030583071
 10
40.96581515656884
 20
30.500341205347972
 10
40.81566867450877
 20
30.500342110217446
 10
40.665522181555815
 20
30.500343179871383
 10
40.51537555240695
 20
30.500344249526293
 10
40.36522892325806
 20
30.5003453191812
 10
40.215082294109195
 20
30.500346388836107
 10
40.06493566496029
 20
30.500347458491
 10
39.91478903581147
 20
30.500348528145924
 10
39.76464240666253
 20
30.50034959780082
 10
39.61449577751374
 20
30.500350667455727
 10
39.464349148364846
 20
30.50035173711063
 10
39.314202519215925
 20
30.50035280676554
 10
39.16405589006709
 20
30.500353876420448
 10
39.013909260918226
 20
30.500354946075355
 10
38.86376275751819
 20
30.50035602172605
 10
38.71361624224245
 20
30.500357235293087
 10
38.56346961309471
 20
30.50035844886108
 10
38.413322983946884
 20
30.500359662429055
 10
38.26317635479914
 20
30.50036087599703
 10
38.11302972565137
 20
30.500362089565016
 10
37.96288309650352
 20
30.50036330313298
 10
37.812736467355805
 20
30.500364516700955
 10
37.66258983820801
 20
30.50036573026893
 10
37.51244320906024
 20
30.50036694383692
 10
37.36229657991241
 20
30.500368157404893
 10
37.21214995076464
 20
30.500369370972855
 10
37.06200332161687
 20
30.50037058454083
 10
36.9118566924691
 20
30.50037179810882
 10
36.76171006332133
 20
30.500373011676793
 10
36.61156343469433
 20
30.500374225244762
 10
36.461416877573484
 20
30.50037545058061
 10
36.311270294455184
 20
30.500376735363645
 10
36.16112366530801
 20
30.500378020147075
 10
36.01097703616081
 20
30.50037930493052
 10
35.86083040701362
 20
30.50038058971396
 10
35.710683777866464
 20
30.500381874497407
 10
35.56053714871926
 20
30.500383159280837
 10
35.41039051957203
 20
30.500384444064267
 10
35.26024389042489
 20
30.50038572884771
 10
35.1100972612777
 20
30.500387013631148
 10
34.95995063213046
 20
30.500388298414578
 10
34.80980400298331
 20
30.500389583198025
 10
34.65965737383611
 20
30.50039086798145
 10
34.50951074468894
 20
30.50039215276488
 10
34.35936411554174
 20
30.50039343754833
 10
34.20921748639455
 20
30.50039472233177
 10
34.05907085724739
 20
30.500396007115214
 10
33.90892422810019
 20
30.500397291898643
 10
33.75877759895296
 20
30.500398576682073
 10
33.608630969805816
 20
30.500399861465517
 10
33.458484340658615
 20
30.500401146248947
 10
33.308337711511456
 20
30.500402431032388
 10
33.158191028835844
 20
30.500403683667987
 10
33.008044349397366
 20
30.50040490609961
 10
32.85789772024964
 20
30.5004061285308
 10
32.70775109110191
 20
30.500407350961993
 10
32.55760446195421
 20
30.500408573393173
 10
32.407457832806486
 20
30.500409795824368
 10
32.25731120365883
 20
30.50041101825558
 10
32.107164574511046
 20
30.500412240686764
 10
31.80687131621569
 20
30.500414685549153
 10
31.656724687067936
 20
30.500415907980337
 10
31.506578057920294
 20
30.50041713041155
 10
31.356431428772524
 20
30.500418352842743
 10
31.206284799624825
 20
30.500419575273924
 10
31.056138170477155
 20
30.500420797705118
 10
30.9059915413294
 20
30.500422020136305
 10
30.75584491218173
 20
30.5004232425675
 10
30.605698283034016
 20
30.50042446499871
 10
30.45555165388629
 20
30.500425687429892
 10
30.305404833475734
 20
30.500426794993203
 10
30.15525814143922
 20
30.50042786478602
 10
30.005111512290327
 20
30.500428934578377
 10
29.854964883141506
 20
30.500430004370763
 10
29.70481825399257
 20
30.50043107416312
 10
29.554671624843706
 20
30.50043214395548
 10
29.4045249956949
 20
30.500433213747854
 10
29.25437836654602
 20
30.500434283540223
 10
29.10423173739713
 20
30.500435353332584
 10
28.954085108248265
 20
30.50043642312496
 10
28.803938479099386
 20
30.500437492917328
 10
28.653791849950494
 20
30.50043856270969
 10
28.5036452208016
 20
30.500439632502044
 10
28.353498359378108
 20
30.50044056279549
 10
28.203351657987255
 20
30.50044144970099
 10
28.053205028837183
 20
30.50044233660605
 10
27.90305839968711
 20
30.500443223511112
 10
27.75291177053704
 20
30.50044411041617
 10
27.602765141387025
 20
30.50044499732123
 10
27.452618512236967
 20
30.500445884226302
 10
27.30247188308688
 20
30.500446771131365
 10
27.15232525393678
 20
30.500447658036407
 10
27.002178624786737
 20
30.50044854494147
 10
26.852031995636665
 20
30.50044943184653
 10
26.701885291862695
 20
30.50045027393405
 10
26.55173839232144
 20
30.500450953629862
 10
26.401591763170288
 20
30.500451633324303
 10
26.101298504867984
 20
30.500452992713186
 10
25.95115187571689
 20
30.500453672407627
 10
25.801005246565737
 20
30.500454352102068
 10
25.650858617414556
 20
30.5004550317965
 10
25.500711988263433
 20
30.50045571149094
 10
25.35056535911231
 20
30.500456391185395
 10
25.20041868958613
 20
30.500457046631404
 10
25.050271743917605
 20
30.500457511982823
 10
24.74997848561371
 20
30.50045844268331
 10
24.599831856461705
 20
30.500458908033554
 10
24.449685227309757
 20
30.500459373383798
 10
24.29953859815781
 20
30.500459838734038
 10
24.149391969005805
 20
30.500460304084285
 10
23.999245339853857
 20
30.500460769434525
 10
23.84909853946327
 20
30.500461131941755
 10
23.698951703771883
 20
30.500461370404466
 10
23.548805074619352
 20
30.500461608866754
 10
23.398658445466907
 20
30.50046184732905
 10
23.24851181631439
 20
30.500462085791348
 10
23.098365187161917
 20
30.500462324253633
 10
22.948218558009387
 20
30.500462562715914
 10
22.798071928856885
 20
30.500462801178198
 10
22.64792529970444
 20
30.500463039640493
 10
22.49777833447628
 20
30.500463076260672
 10
22.347631617826764
 20
30.500463060331157
 10
22.197484988674177
 20
30.500463044401663
 10
22.047338359521433
 20
30.50046302847214
 10
21.897191730368746
 20
30.500463012542646
 10
21.747045101216088
 20
30.500462996613138
 10
21.596898472063387
 20
30.500462980683615
 10
21.446751842910743
 20
30.50046296475412
 10
21.29660515659309
 20
30.50046291449211
 10
21.146458156684375
 20
30.500462641558467
 10
20.996311527531887
 20
30.50046236862521
 10
20.846164898379513
 20
30.50046209569197
 10
20.545871640074594
 20
30.50046154982548
 10
20.39572501092219
 20
30.500461276892235
 10
20.245578381769732
 20
30.500461003958993
 10
20.24472835353035
 20
30.50045955731363
 10
20.09458267171405
 20
30.49994876914813
 10
20.093166950379967
 20
30.499939944221595
 10
19.943028881538467
 20
30.498578914322493
 10
19.941453543521845
 20
30.498559669261937
 10
19.791324937311856
 20
30.49625249545652
 10
19.78854200712368
 20
30.496194229413334
 10
19.6384480990626
 20
30.492215660716674
 10
19.63676428958499
 20
30.492165350163624
 10
19.48670298048077
 20
30.487175587440376
 10
19.485105983058375
 20
30.48711737448825
 10
19.335078480042696
 20
30.48116844606871
 10
19.332644300921814
 20
30.481060042093894
 10
19.18268067658029
 20
30.47364912985047
 10
19.180668085670618
 20
30.473541537389828
 10
19.03077110145972
 20
30.464922006427827
 10
19.029173636472876
 20
30.464825016283672
 10
18.879334791946746
 20
30.455246075264334
 10
18.87725378538508
 20
30.455104320947026
 10
18.72749816632924
 20
30.444275433326027
 10
18.72513563189291
 20
30.444093338758442
 10
18.57549073968444
 20
30.43184565638965
 10
18.573883620862745
 20
30.431708901327617
 10
18.42432182957802
 20
30.418496099411247
 10
18.42260858164157
 20
30.418338802230835
 10
18.27313892993972
 20
30.4040968407772
 10
18.27039486787986
 20
30.403820095661352
 10
18.121091754531946
 20
30.387930122545193
 10
18.11946553829992
 20
30.387751665160042
 10
17.97027171210138
 20
30.37088524899633
 10
17.968637123506284
 20
30.370695007519092
 10
17.81955607891129
 20
30.352846719170422
 10
17.817026316469708
 20
30.3525307589372
 10
17.66813407117428
 20
30.333163014184557
 10
17.666193734949744
 20
30.332902887596102
 10
17.517459783270013
 20
30.312370088156626
 10
17.51582767435717
 20
30.31213928903933
 10
17.367232137011726
 20
30.290626251853418
 10
17.36519577456589
 20
30.290322869849376
 10
17.216780579770997
 20
30.267586550887994
 10
17.214413648461715
 20
30.26721233239721
 10
17.06622434871005
 20
30.24305465297507
 10
17.06460234759159
 20
30.24278475704356
 10
16.916576260821856
 20
30.217653123019215
 10
16.914946238317754
 20
30.217370828736108
 10
16.76708779513072
 20
30.191259905314247
 10
16.76448409272382
 20
30.19078588225082
 10
16.61690997836672
 20
30.16311114616107
 10
16.615176120332364
 20
30.162779652911016
 10
16.467803140219814
 20
30.13406398331246
 10
16.466173021658648
 20
30.133740726778058
 10
16.318993785712706
 20
30.10404596349963
 10
16.316981581954565
 20
30.103631371096306
 10
16.170049700097138
 20
30.072727773575284
 10
16.167758385039633
 20
30.072234623382702
 10
16.02112372652124
 20
30.03995512275055
 10
16.019484769133328
 20
30.039588553796534
 10
15.873071377510996
 20
30.006324977119565
 10
15.871304909071426
 20
30.00591691276631
 10
15.725136044544485
 20
29.97159230606483
 10
15.721785587325584
 20
29.970781109689682
 10
15.576102312749342
 20
29.934443886974357
 10
15.568337505349291
 20
29.93237403073337
 10
15.423924444372915
 20
29.89138105795667
 10
15.41698441804391
 20
29.889301947210352
 10
15.273831062090323
 20
29.844145219582366
 10
15.26653816297231
 20
29.841720859865923
 10
15.124802739783647
 20
29.792172095406652
 10
15.113927383369926
 20
29.788084230492515
 10
14.97464988807117
 20
29.73200500557685
 10
14.968003482881201
 20
29.72921686889655
 10
14.830433872962871
 20
29.669160564875092
 10
14.823946416660036
 20
29.666217707264394
 10
14.688132180194671
 20
29.602260685099473
 10
14.679919342595369
 20
29.59820770822231
 10
14.546515157118378
 20
29.52930681168877
 10
14.538257376083351
 20
29.524843473030252
 10
14.407554598245241
 20
29.45099480924465
 10
14.401584101181754
 20
29.447511648899116
 10
14.272985369215235
 20
29.370085244733865
 10
14.267157445697734
 20
29.366466520831125
 10
14.140701386970846
 20
29.28552155454014
 10
14.131359904825857
 20
29.279241155902547
 10
14.008673559028935
 20
29.192684406882538
 10
14.002993749713326
 20
29.188556562970255
 10
13.882816592596058
 20
29.09861109614407
 10
13.877428387431877
 20
29.094462828770258
 10
13.7597328614344
 20
29.001274851621368
 10
13.752642494102076
 20
28.995445980546663
 10
13.638427410528095
 20
28.897983552246835
 10
13.631538220061472
 20
28.891882183321997
 10
13.521007136865407
 20
28.790300213640712
 10
13.516029796290212
 20
28.785598520249984
 10
13.408330752449586
 20
28.681036267959144
 10
13.403179085326741
 20
28.675886746578932
 10
13.298544908425555
 20
28.56820341792441
 10
13.290781024767426
 20
28.559839527471215
 10
13.19117417171438
 20
28.447497921132726
 10
13.186618652555822
 20
28.442213221931056
 10
13.090209309940363
 20
28.327164052188976
 10
13.085816103589238
 20
28.321770788252117
 10
12.99262977668387
 20
28.204064705582965
 10
12.986217773459742
 20
28.195602323015294
 10
12.898102269945554
 20
28.074030663956314
 10
12.89334978459938
 20
28.067239587428354
 10
12.809333078728812
 20
27.942843511675697
 10
12.80562283523011
 20
27.937186541243726
 10
12.725000898278552
 20
27.810559668972918
 10
12.720512190695175
 20
27.803234755546253
 10
12.64427206058265
 20
27.673884638397723
 10
12.639505155835735
 20
27.665425701731074
 10
12.56835578373537
 20
27.533232033274533
 10
12.565338270339325
 20
27.527445863844527
 10
12.497670767690053
 20
27.393454606013297
 10
12.494666118384444
 20
27.38729668250927
 10
12.430679772748093
 20
27.251466796924316
 10
12.426193664377678
 20
27.241370908281283
 10
12.368272654561139
 20
27.102851225504384
 10
12.36588116087897
 20
27.09691986066759
 10
12.311534583752277
 20
26.95699546701131
 10
12.309302451210954
 20
26.951023960172723
 10
12.258532583827957
 20
26.809734911480536
 10
12.255238569692537
 20
26.799935820520687
 10
12.210349584791103
 20
26.656656410693476
 10
12.208240956841607
 20
26.649559262191353
 10
12.167624021147887
 20
26.50504758599419
 10
12.165977418267104
 20
26.498888693093434
 10
12.129056224469693
 20
26.35337913121008
 10
12.126986842420706
 20
26.344555584144086
 10
12.095358560645991
 20
26.19777799035711
 10
12.093648136581365
 20
26.189097165800025
 10
12.067238474633726
 20
26.04132048041391
 10
12.066181445852692
 20
26.0349286554084
 10
12.043610979271818
 20
25.886524374595638
 10
12.042549822306526
 20
25.878722465517974
 10
12.02465969202457
 20
25.72964546030116
 10
12.023633407290433
 20
25.71926828212908
 10
12.011977014684177
 20
25.56959216696979
 10
12.0115477741452
 20
25.56293360935954
 10
12.003891247945731
 20
25.41302493921159
 10
12.003639250810096
 20
25.406332299791906
 10
12.000000062735552
 20
25.2562297796396
 10
12.000000031677686
 20
25.250231538130336
 10
0.0
 20
25.250231538130336
  0
TEXT
  5
36
330
17
100
AcDbEntity
  8
LABEL
100
AcDbText
 10
2.0
 20
37.50046307626067
 30
0.0
 40
2.2
  1
T02B TOOL ONLY
100
AcDbText
  0
LWPOLYLINE
  5
37
330
17
100
AcDbEntity
  8
CAD_OUTER
100
AcDbPolyline
 90
974
 70
1
 10
77.75173780113886
 20
22.250264083534642
 10
77.60159117198663
 20
22.25026445570293
 10
77.4514445428344
 20
22.250264827871185
 10
77.30129791368222
 20
22.250265200039472
 10
77.15115128452999
 20
22.25026557220776
 10
77.00100465537776
 20
22.250265944376018
 10
76.85085802622552
 20
22.250266316544305
 10
76.70071139707329
 20
22.25026668871256
 10
76.55056476792106
 20
22.250267060880848
 10
76.40041813876883
 20
22.250267433049117
 10
76.25027150961665
 20
22.25026780521739
 10
76.10012488046442
 20
22.250268177385678
 10
75.94997825131219
 20
22.250268549553947
 10
75.79983162215996
 20
22.250268921722224
 10
75.64968499300772
 20
22.25026929389049
 10
75.49953836385549
 20
22.250269666058777
 10
75.34939173470332
 20
22.25027003822705
 10
75.19924510555109
 20
22.250270408128827
 10
75.04909847639885
 20
22.250270775918622
 10
74.89895184724656
 20
22.25027114370843
 10
74.74880521809433
 20
22.250271511498227
 10
74.5986585889421
 20
22.250271879288004
 10
74.44851195978987
 20
22.2502722470778
 10
74.29836533063764
 20
22.250272614867605
 10
74.1482187014854
 20
22.250272982657403
 10
73.99807207233317
 20
22.2502733504472
 10
73.84792544318094
 20
22.25027371823699
 10
73.69777881402871
 20
22.250274086026785
 10
73.54763218487648
 20
22.25027445381658
 10
73.39748555572424
 20
22.250274821606375
 10
73.24733892657201
 20
22.250275189396184
 10
73.09719229741978
 20
22.25027555718598
 10
72.94704566826755
 20
22.25027592497576
 10
72.79689903911532
 20
22.250276292765566
 10
72.64675240996309
 20
22.250276660555365
 10
72.49660578081085
 20
22.25027702834516
 10
72.34645915165862
 20
22.250277396134955
 10
72.19631252250639
 20
22.250277763924743
 10
72.04616589335416
 20
22.25027813171454
 10
71.89601926420187
 20
22.25027849131186
 10
71.74587263504964
 20
22.250278849663353
 10
71.59572600589735
 20
22.250279208014874
 10
71.44557937674512
 20
22.250279566366363
 10
71.29543274759283
 20
22.250279924717855
 10
71.1452861184406
 20
22.250280283069344
 10
70.99513948928836
 20
22.250280641420847
 10
70.84499286013607
 20
22.250280999772357
 10
70.69484623098384
 20
22.250281358123846
 10
70.54469960183155
 20
22.25028171647535
 10
70.39455297267932
 20
22.250282074826842
 10
70.24440634352703
 20
22.25028243317833
 10
70.0942597143748
 20
22.250282791529834
 10
69.94411308522251
 20
22.25028314988134
 10
69.79396645607028
 20
22.250283508232833
 10
69.64381982691805
 20
22.250283866584326
 10
69.49367319776576
 20
22.250284224935825
 10
69.34352656861353
 20
22.250284583287318
 10
69.19337993946124
 20
22.25028494163881
 10
69.043233310309
 20
22.250285299990328
 10
68.89308668115672
 20
22.250285658341816
 10
68.74294005200449
 20
22.25028601321271
 10
68.5927934228522
 20
22.250286355624674
 10
68.44264679369991
 20
22.250286698036632
 10
68.29250016454756
 20
22.250287040448594
 10
68.14235353539527
 20
22.250287382860556
 10
67.99220690624298
 20
22.250287725272507
 10
67.8420602770907
 20
22.25028806768448
 10
67.6919136479384
 20
22.25028841009643
 10
67.54176701878612
 20
22.250288752508393
 10
67.39162038963383
 20
22.25028909492034
 10
67.24147376048154
 20
22.250289437332317
 10
67.09132713132925
 20
22.25028977974428
 10
66.9411805021769
 20
22.25029012215623
 10
66.79103387302462
 20
22.25029046456819
 10
66.64088724387233
 20
22.25029080698015
 10
66.49074061472004
 20
22.250291149392112
 10
66.34059398556775
 20
22.250291491804063
 10
66.19044735641546
 20
22.250291834216025
 10
66.04030072726317
 20
22.250292176627987
 10
65.89015409811088
 20
22.25029251903995
 10
65.7400074689586
 20
22.25029286145191
 10
65.5898608398063
 20
22.250293203863862
 10
65.43971421065396
 20
22.250293530697764
 10
65.28956758150161
 20
22.250293845718403
 10
65.13942095234927
 20
22.250294160739045
 10
64.98927432319687
 20
22.250294475759674
 10
64.83912769404452
 20
22.250294790780313
 10
64.68898106489218
 20
22.250295105800937
 10
64.53883443573983
 20
22.250295420821566
 10
64.38868780658748
 20
22.250295735842222
 10
64.23854117743514
 20
22.25029605086285
 10
64.08839454828274
 20
22.25029636588348
 10
63.93824791913039
 20
22.250296680904103
 10
63.788101289978044
 20
22.250296995924757
 10
63.6379546608257
 20
22.250297310945385
 10
63.48780803167335
 20
22.250297625966013
 10
63.33766140252101
 20
22.250297940986652
 10
63.18751477336866
 20
22.250298256007298
 10
63.03736814421626
 20
22.250298571027923
 10
62.887221515063914
 20
22.25029888604856
 10
62.73707488591157
 20
22.25029920106919
 10
62.58692825675922
 20
22.250299516089818
 10
62.43678162760688
 20
22.25029983111046
 10
62.28663499845453
 20
22.250300146131096
 10
62.13648836930207
 20
22.250300424502022
 10
61.98634174014967
 20
22.250300699646264
 10
61.83619511099721
 20
22.25030097479049
 10
61.68604848184481
 20
22.250301249934708
 10
61.53590185269235
 20
22.25030152507895
 10
61.385755223539945
 20
22.250301800223177
 10
61.235608594387486
 20
22.250302075367422
 10
61.08546196523508
 20
22.250302350511646
 10
60.935315336082624
 20
22.250302625655863
 10
60.78516870693022
 20
22.250302900800108
 10
60.63502207777776
 20
22.25030317594433
 10
60.4848754486253
 20
22.250303451088577
 10
60.3347288194729
 20
22.2503037262328
 10
60.18458219032044
 20
22.250304001377017
 10
60.03443556116804
 20
22.250304276521263
 10
59.88428893201558
 20
22.250304551665486
 10
59.73414230286318
 20
22.25030482680973
 10
59.58399567371072
 20
22.25030510195396
 10
59.433849044558315
 20
22.25030537709819
 10
59.283702415405855
 20
22.250305652242417
 10
59.13355578625345
 20
22.250305927386645
 10
58.98340915710099
 20
22.25030618842241
 10
58.83326252794848
 20
22.250306411205152
 10
58.68311589879596
 20
22.2503066339879
 10
58.532969269643445
 20
22.250306856770642
 10
58.38282264049087
 20
22.250307079553394
 10
58.232676011338356
 20
22.250307302336147
 10
58.08252938218584
 20
22.250307525118888
 10
57.93238275303332
 20
22.25030774790163
 10
57.78223612388081
 20
22.250307970684382
 10
57.63208949472829
 20
22.25030819346712
 10
57.481942865575775
 20
22.250308416249876
 10
57.33179623642326
 20
22.250308639032617
 10
57.18164960727074
 20
22.250308861815366
 10
57.031502978118226
 20
22.250309084598108
 10
56.88135634896571
 20
22.250309307380846
 10
56.731209719813194
 20
22.250309530163612
 10
56.58106309066068
 20
22.250309752946354
 10
56.43091646150816
 20
22.250309975729095
 10
56.280769832355645
 20
22.250310198511833
 10
56.13062320320313
 20
22.250310421294586
 10
55.980476574050556
 20
22.250310644077324
 10
55.83032994489804
 20
22.250310866860083
 10
55.68018331574547
 20
22.250311049450527
 10
55.530036686592894
 20
22.2503112073867
 10
55.379890057440264
 20
22.25031136532286
 10
55.22974342828769
 20
22.25031152325905
 10
55.07959679913506
 20
22.25031168119522
 10
54.92945016998249
 20
22.250311839131395
 10
54.77930354082986
 20
22.25031199706757
 10
54.629156911677285
 20
22.25031215500373
 10
54.479010282524655
 20
22.25031231293992
 10
54.32886365337208
 20
22.25031247087609
 10
54.17871702421945
 20
22.250312628812264
 10
54.02857039506688
 20
22.250312786748438
 10
53.87842376591425
 20
22.250312944684598
 10
53.728277136761676
 20
22.250313102620787
 10
53.578130507609046
 20
22.25031326055696
 10
53.42798387845647
 20
22.250313418493135
 10
53.27783724930384
 20
22.250313576429306
 10
53.12769062015127
 20
22.250313734365466
 10
52.97754399099864
 20
22.250313892301655
 10
52.82739736184607
 20
22.25031405023783
 10
52.67725073269344
 20
22.250314208174004
 10
52.527104103540864
 20
22.250314366110175
 10
52.37695747438818
 20
22.250314453439156
 10
52.22681084523555
 20
22.250314538597188
 10
52.07666421608286
 20
22.250314623755195
 10
51.926517586930174
 20
22.250314708913223
 10
51.776370957777544
 20
22.250314794071244
 10
51.626224328624915
 20
22.25031487922925
 10
51.47607769947223
 20
22.250314964387286
 10
51.3259310703196
 20
22.250315049545303
 10
51.17578444116691
 20
22.25031513470332
 10
51.025637812014224
 20
22.250315219861342
 10
50.875491182861595
 20
22.250315305019374
 10
50.72534455370891
 20
22.250315390177377
 10
50.57519792455628
 20
22.250315475335398
 10
50.42505129540359
 20
22.250315560493434
 10
50.27490466625096
 20
22.250315645651437
 10
50.124758037098275
 20
22.25031573080947
 10
49.974611407945645
 20
22.25031581596749
 10
49.82446477879296
 20
22.250315901125504
 10
49.67431814964027
 20
22.250315986283525
 10
49.52417152048764
 20
22.25031607144153
 10
49.374024891334955
 20
22.250316156599563
 10
49.223878262182325
 20
22.25031625501793
 10
49.073731633029695
 20
22.250316381545193
 10
48.923585003877065
 20
22.250316508072476
 10
48.773438374724435
 20
22.25031663459973
 10
48.623291745571805
 20
22.25031676112701
 10
48.473145116419175
 20
22.25031688765428
 10
48.322998487266545
 20
22.25031701418156
 10
48.172851858113916
 20
22.250317140708827
 10
48.022705228961286
 20
22.25031726723611
 10
47.872558599808656
 20
22.250317393763375
 10
47.722411970656026
 20
22.250317520290643
 10
47.572265341503396
 20
22.250317646817912
 10
47.422118712350766
 20
22.250317773345195
 10
47.271972083198136
 20
22.25031789987246
 10
47.12182545404545
 20
22.250318026399743
 10
46.97167882489282
 20
22.250318152927008
 10
46.82153219574019
 20
22.250318279454277
 10
46.67138556658756
 20
22.250318406128464
 10
46.521238937435214
 20
22.250318710115362
 10
46.37109230828281
 20
22.250319014102274
 10
46.220945679130466
 20
22.25031931808917
 10
46.07079904997806
 20
22.250319622076077
 10
45.92065242082572
 20
22.25031992606297
 10
45.770505791673315
 20
22.250320230049866
 10
45.62035916252091
 20
22.25032053403678
 10
45.47021253336857
 20
22.250320838023676
 10
45.320065904216165
 20
22.25032114201057
 10
45.16991927506382
 20
22.250321445997464
 10
45.01977264591193
 20
22.250321927169566
 10
44.86962601676004
 20
22.25032242854148
 10
44.7194793876082
 20
22.250322929913402
 10
44.56933275845637
 20
22.25032343128533
 10
44.419186129304535
 20
22.250323932657246
 10
44.269039500152644
 20
22.250324434029153
 10
44.11889287100081
 20
22.250324935401068
 10
43.968746241848976
 20
22.250325436772993
 10
43.81859961269731
 20
22.250325987673556
 10
43.66845298354633
 20
22.25032669731957
 10
43.51830635439529
 20
22.25032740696561
 10
43.36815972524431
 20
22.250328116611634
 10
43.21801309609327
 20
22.250328826257665
 10
43.06786646694229
 20
22.25032953590369
 10
42.91771983779125
 20
22.2503302455497
 10
42.76757320864027
 20
22.250330955195743
 10
42.61742657948923
 20
22.250331664841767
 10
42.46727995033825
 20
22.250332374487797
 10
42.317133321187384
 20
22.250333109697173
 10
42.16698669203737
 20
22.250334009214434
 10
42.01684006288741
 20
22.250334908731695
 10
41.866693433737396
 20
22.250335808248938
 10
41.71654680458744
 20
22.250336707766195
 10
41.56640017543742
 20
22.25033760728344
 10
41.41625354628741
 20
22.2503385068007
 10
41.26610691713745
 20
22.250339406317956
 10
41.115960287987434
 20
22.250340305835202
 10
40.965813658837476
 20
22.250341205352463
 10
40.81566702968752
 20
22.25034211022282
 10
40.66552040053864
 20
22.250343179877724
 10
40.51537377138976
 20
22.25034424953264
 10
40.36522714224088
 20
22.250345319187545
 10
40.215080513092005
 20
22.250346388842452
 10
40.06493388394313
 20
22.250347458497345
 10
39.91478725479425
 20
22.250348528152266
 10
39.76464062564537
 20
22.250349597807162
 10
39.61449399649655
 20
22.25035066746207
 10
39.46434736734767
 20
22.250351737116972
 10
39.314200738198736
 20
22.250352806771886
 10
39.164054109049914
 20
22.250353876426793
 10
39.013907479901036
 20
22.2503549460817
 10
38.86376085075216
 20
22.250356021733293
 10
38.713614221604416
 20
22.250357235301255
 10
38.56346759245662
 20
22.250358448869246
 10
38.41332096330882
 20
22.25035966243722
 10
38.26317433416108
 20
22.250360876005196
 10
38.11302770501328
 20
22.250362089573184
 10
37.96288107586548
 20
22.250363303141146
 10
37.81273444671774
 20
22.25036451670912
 10
37.66258781756994
 20
22.250365730277096
 10
37.512441188422144
 20
22.250366943845087
 10
37.362294559274346
 20
22.250368157413057
 10
37.212147930126605
 20
22.25036937098102
 10
37.06200130097881
 20
22.250370584548996
 10
36.91185467183101
 20
22.250371798116987
 10
36.76170804268327
 20
22.25037301168496
 10
36.61156141353547
 20
22.250374225252934
 10
36.461414784387784
 20
22.250375450589367
 10
36.31126815524061
 20
22.250376735372797
 10
36.16112152609344
 20
22.250378020156226
 10
36.01097489694621
 20
22.25037930493967
 10
35.860828267799036
 20
22.25038058972311
 10
35.71068163865186
 20
22.25038187450656
 10
35.56053500950469
 20
22.25038315928999
 10
35.41038838035746
 20
22.25038444407342
 10
35.26024175121029
 20
22.250385728856862
 10
35.110095122063115
 20
22.2503870136403
 10
34.959948492915885
 20
22.25038829842373
 10
34.80980186376871
 20
22.250389583207177
 10
34.65965523462154
 20
22.250390867990603
 10
34.509508605474366
 20
22.250392152774033
 10
34.359361976327136
 20
22.25039343755748
 10
34.20921534717996
 20
22.25039472234092
 10
34.05906871803279
 20
22.250396007124365
 10
33.90892208888562
 20
22.250397291907795
 10
33.75877545973839
 20
22.250398576691225
 10
33.608628830591215
 20
22.25039986147467
 10
33.45848220144404
 20
22.2504011462581
 10
33.30833557229687
 20
22.25040243104154
 10
33.15818894314941
 20
22.250403683676687
 10
33.00804231400167
 20
22.250404906107896
 10
32.857895684853986
 20
22.250406128539083
 10
32.707749055706245
 20
22.250407350970278
 10
32.55760242655856
 20
22.250408573401458
 10
32.40745579741082
 20
22.250409795832653
 10
32.257309168263134
 20
22.250411018263865
 10
32.10716253911539
 20
22.25041224069505
 10
31.95701590996771
 20
22.250413463126243
 10
31.806869280820024
 20
22.250414685557438
 10
31.656722651672283
 20
22.25041590798862
 10
31.506576022524598
 20
22.250417130419834
 10
31.356429393376857
 20
22.250418352851028
 10
31.206282764229172
 20
22.25041957528221
 10
31.056136135081488
 20
22.250420797713403
 10
30.905989505933746
 20
22.25042202014459
 10
30.755842876786062
 20
22.250423242575785
 10
30.60569624763832
 20
22.250424465006994
 10
30.455549618490636
 20
22.250425687438177
 10
30.305402989342042
 20
22.250426795000003
 10
30.155256360193164
 20
22.250427864792364
 10
30.005109731044286
 20
22.250428934584722
 10
29.854963101895407
 20
22.250430004377108
 10
29.70481647274653
 20
22.250431074169466
 10
29.55466984359765
 20
22.250432143961824
 10
29.40452321444883
 20
22.2504332137542
 10
29.25437658529995
 20
22.250434283546568
 10
29.104229956151073
 20
22.25043535333893
 10
28.954083327002195
 20
22.250436423131305
 10
28.803936697853317
 20
22.250437492923673
 10
28.65379006870444
 20
22.250438562716035
 10
28.50364343955556
 20
22.25043963250839
 10
28.353496810405773
 20
22.25044056280029
 10
28.2033501812557
 20
22.25044144970535
 10
28.05320355210563
 20
22.250442336610412
 10
27.903056922955557
 20
22.25044322351547
 10
27.752910293805485
 20
22.25044411042053
 10
27.60276366465547
 20
22.250444997325594
 10
27.452617035505398
 20
22.250445884230665
 10
27.302470406355326
 20
22.250446771135724
 10
27.152323777205254
 20
22.25044765804077
 10
27.002177148055182
 20
22.25044854494583
 10
26.85203051890511
 20
22.25044943185089
 10
26.70188388975481
 20
22.25045027393798
 10
26.55173726060366
 20
22.250450953632424
 10
26.401590631452507
 20
22.25045163332686
 10
26.251444002301355
 20
22.250452313021306
 10
26.101297373150203
 20
22.25045299271575
 10
25.951150743999108
 20
22.25045367241019
 10
25.801004114847956
 20
22.250454352104633
 10
25.650857485696804
 20
22.250455031799056
 10
25.500710856545652
 20
22.2504557114935
 10
25.3505642273945
 20
22.250456391187953
 10
25.200417598243234
 20
22.250457046633784
 10
25.050270969091287
 20
22.250457511984024
 10
24.90012433993934
 20
22.25045797733427
 10
24.74997771078739
 20
22.25045844268451
 10
24.599831081635386
 20
22.250458908034755
 10
24.44968445248344
 20
22.250459373385
 10
24.29953782333149
 20
22.25045983873524
 10
24.149391194179486
 20
22.250460304085486
 10
23.99924456502754
 20
22.250460769435726
 10
23.849097935875363
 20
22.250461131942487
 10
23.698951306722847
 20
22.250461370404782
 10
23.54880467757033
 20
22.25046160886707
 10
23.39865804841787
 20
22.250461847329365
 10
23.248511419265355
 20
22.25046208579166
 10
23.098364790112896
 20
22.250462324253945
 10
22.94821816096038
 20
22.25046256271623
 10
22.798071531807864
 20
22.250462801178514
 10
22.647924902655404
 20
22.25046303964081
 10
22.497778273502774
 20
22.25046307626068
 10
22.34763164435003
 20
22.250463060331157
 10
22.1974850151974
 20
22.250463044401663
 10
22.047338386044714
 20
22.25046302847214
 10
21.89719175689197
 20
22.250463012542646
 10
21.74704512773934
 20
22.250462996613138
 10
21.596898498586654
 20
22.25046298068362
 10
21.446751869433967
 20
22.250462964754124
 10
21.29660524028128
 20
22.250462914492125
 10
21.146458611128878
 20
22.250462641558883
 10
20.99631198197642
 20
22.250462368625627
 10
20.846165352824016
 20
22.25046209569238
 10
20.696018723671557
 20
22.250461822759135
 10
20.545872094519098
 20
22.250461549825893
 10
20.395725465366695
 20
22.25046127689265
 10
20.245578836214236
 20
22.25046100395941
 10
20.095433154397938
 20
22.24995021579391
 10
19.945295085556438
 20
22.248589185894808
 10
19.79516647934645
 20
22.24628201208939
 10
19.645072571285368
 20
22.242303443392732
 10
19.49501126218115
 20
22.237313680669484
 10
19.344983759165473
 20
22.231364752249945
 10
19.19502013482395
 20
22.223953840006523
 10
19.04512315061305
 20
22.215334309044522
 10
18.89528430608692
 20
22.20575536802518
 10
18.745528687031083
 20
22.194926480404185
 10
18.595883794822612
 20
22.18267879803539
 10
18.446322003537887
 20
22.169465996119023
 10
18.296852351836037
 20
22.15522403466539
 10
18.147549238488125
 20
22.139334061549228
 10
17.998355412289584
 20
22.12246764538552
 10
17.84927436769459
 20
22.10461935703685
 10
17.700382122399162
 20
22.085251612284207
 10
17.55164817071943
 20
22.06471881284473
 10
17.40305263337399
 20
22.04320577565882
 10
17.254637438579095
 20
22.02046945669744
 10
17.10644813882743
 20
21.996311777275295
 10
16.9584220520577
 20
21.971180143250955
 10
16.810563608870666
 20
21.945069219829094
 10
16.662989494513567
 20
21.917394483739347
 10
16.515616514401017
 20
21.88867881414079
 10
16.368437278455076
 20
21.858984050862368
 10
16.22150539659765
 20
21.828080453341347
 10
16.074870738079255
 20
21.795800952709193
 10
15.928457346456923
 20
21.762537376032224
 10
15.782288481929982
 20
21.728212769330746
 10
15.636605207353739
 20
21.69187554661542
 10
15.492192146377363
 20
21.650882573838718
 10
15.349038790423776
 20
21.60572584621073
 10
15.207303367235113
 20
21.556177081751457
 10
15.068025871936356
 20
21.50009785683579
 10
14.930456262018026
 20
21.440041552814332
 10
14.794642025552662
 20
21.376084530649415
 10
14.661237840075671
 20
21.30718363411587
 10
14.530535062237561
 20
21.23333497033027
 10
14.401936330271042
 20
21.155908566165024
 10
14.275480271544154
 20
21.07496359987403
 10
14.152793925747233
 20
20.988406850854027
 10
14.032616768629964
 20
20.898461384027836
 10
13.914921242632488
 20
20.805273406878946
 10
13.800706159058507
 20
20.707810978579126
 10
13.690175075862442
 20
20.606229008897834
 10
13.582476032021816
 20
20.501666756606994
 10
13.47784185512063
 20
20.39398342795247
 10
13.378235002067584
 20
20.28164182161398
 10
13.281825659452124
 20
20.166592651871902
 10
13.188639332546757
 20
20.04888656920275
 10
13.100523829032568
 20
19.92731491014377
 10
13.016507123162
 20
19.802918834391114
 10
12.935885186210442
 20
19.67629196212031
 10
12.859645056097918
 20
19.546941844971776
 10
12.788495683997553
 20
19.414748176515236
 10
12.720828181348281
 20
19.280756918684006
 10
12.65684183571193
 20
19.144927033099048
 10
12.59892082589539
 20
19.00640735032215
 10
12.544574248768697
 20
18.86648295666587
 10
12.4938043813857
 20
18.725193907973683
 10
12.448915396484267
 20
18.581914498146467
 10
12.408298460790547
 20
18.437402821949306
 10
12.371377266993136
 20
18.291893260065947
 10
12.33974898521842
 20
18.145115666278976
 10
12.313339323270782
 20
17.99733898089286
 10
12.290768856689908
 20
17.848934700080097
 10
12.272878726407953
 20
17.699857694863283
 10
12.261222333801697
 20
17.55018157970399
 10
12.253565807602229
 20
17.400272909556037
 10
12.249926619527685
 20
17.250170389403735
 10
12.25356425262845
 20
17.10006785482811
 10
12.261218237396974
 20
16.950159059750295
 10
12.272872030413225
 20
16.80048270622507
 10
12.290761449335946
 20
16.65140561564263
 10
12.313329143558803
 20
16.503000929145877
 10
12.339735915863344
 20
16.3552237001782
 10
12.37136334914129
 20
16.208445923555995
 10
12.40828149444826
 20
16.062935618694752
 10
12.448895291778513
 20
15.918423043772506
 10
12.493783416990993
 20
15.775143364610283
 10
12.544550146298604
 20
15.633853237709852
 10
12.59889359304458
 20
15.493927626266261
 10
12.656811508555677
 20
15.35540658732869
 10
12.720797463282679
 20
15.219576517596007
 10
12.78846226521108
 20
15.085583914179905
 10
12.859609136508425
 20
14.953388852268246
 10
12.935849618664292
 20
14.824038942617893
 10
13.016469812558455
 20
14.697411004883282
 10
13.100485164760812
 20
14.5730139914377
 10
13.188602132114909
 20
14.451443393387695
 10
13.281788213560446
 20
14.333737189463339
 10
13.378197802478269
 20
14.21868823044457
 10
13.477805394579661
 20
14.106347205648067
 10
13.582442359180789
 20
13.99866658582728
 10
13.690142471766308
 20
13.894105454224501
 10
13.80067469817908
 20
13.792524680195696
 10
13.914892086832026
 20
13.695064953255669
 10
14.032588120071807
 20
13.601877652153565
 10
14.152765463606443
 20
13.511932394278993
 10
14.27545264744299
 20
13.425376833116362
 10
14.401907491927773
 20
13.344430045544987
 10
14.53050441849183
 20
13.267000607501398
 10
14.661204764737022
 20
13.193147544088962
 10
14.794606487827082
 20
13.124241880152505
 10
14.930416470310206
 20
13.060275829305525
 10
15.067981203845875
 20
13.000208224828404
 10
15.20725322524396
 20
12.944115261567182
 10
15.348983094909215
 20
12.894550613978552
 10
15.492129794137213
 20
12.849372662929774
 10
15.636536385464069
 20
12.808356830981147
 10
15.78221446648638
 20
12.771998792591058
 10
15.92838404481273
 20
12.737677424965193
 10
16.074801839604504
 20
12.704433560639332
 10
16.221444089578597
 20
12.672188670957343
 10
16.368386752449396
 20
12.641336376482846
 10
16.515577971770767
 20
12.611701202463045
 10
16.662963442761225
 20
12.583049771895825
 10
16.810550315866294
 20
12.555443157960324
 10
16.958420325945156
 20
12.529397837226687
 10
17.106456725871794
 20
12.504326882235711
 10
17.25465493349577
 20
12.480223751959338
 10
17.403076627827318
 20
12.457529900420472
 10
17.55167588666785
 20
12.436042260895277
 10
17.70041136553027
 20
12.41551999982605
 10
17.849302577951505
 20
12.396144316363182
 10
17.998379081462474
 20
12.378257872867
 10
18.147567078310487
 20
12.361339404942349
 10
18.29686336171619
 20
12.345385317789288
 10
18.44632637473444
 20
12.331073854362783
 10
18.595882405993507
 20
12.317796309597792
 10
18.745522602273013
 20
12.305491846181289
 10
18.895275637154157
 20
12.294627280391762
 10
19.045113918220295
 20
12.28504094406565
 10
19.19501161530684
 20
12.276435334731433
 10
19.344977228695257
 20
12.26906478204216
 10
19.49500689738329
 20
12.263171462764813
 10
19.645070128094858
 20
12.258239793021344
 10
19.795165582592574
 20
12.254319999017028
 10
19.945294795618736
 20
12.252052570914678
 10
20.095433145594143
 20
12.250711677004725
 10
20.245578840871815
 20
12.250203509840539
 10
20.395725469651268
 20
12.250192923371596
 10
20.54587209843072
 20
12.250182336902638
 10
20.696018727223702
 20
12.250171951587356
 10
20.846165356072106
 20
12.250162392809917
 10
20.99631198492051
 20
12.250152834032463
 10
21.146458613787274
 20
12.250143579399147
 10
21.296605242695136
 20
12.250135004368435
 10
21.44675187160294
 20
12.250126429337739
 10
21.596898500532177
 20
12.250118251467184
 10
21.747045129490743
 20
12.250110616238938
 10
21.89719175844931
 20
12.250102981010695
 10
22.04733838743084
 20
12.250095825985255
 10
22.197485016432267
 20
12.250089086615574
 10
22.347631645433694
 20
12.250082347245893
 10
22.497778274458426
 20
12.250076161149254
 10
22.647924903495664
 20
12.250070273694725
 10
22.79807153253296
 20
12.250064386240194
 10
22.948218161592706
 20
12.250059115157443
 10
23.098364790659502
 20
12.250054035675014
 10
23.248511419726242
 20
12.250048956192582
 10
23.398658048813957
 20
12.25004454621007
 10
23.548804677904627
 20
12.250040230757074
 10
23.69895130699524
 20
12.250035915304105
 10
23.849097936104727
 20
12.250032312509386
 10
23.999244565214326
 20
12.250028717143566
 10
24.149391194325517
 20
12.250025191480152
 10
24.299537823449782
 20
12.250022272259544
 10
24.449684452574104
 20
12.25001935303892
 10
24.599831081700813
 20
12.250016570683393
 10
24.74997771083605
 20
12.250014283666353
 10
24.90012433997134
 20
12.250011996649304
 10
25.050270969109192
 20
12.25000990369213
 10
25.200417598252272
 20
12.250008204937327
 10
25.350564227395296
 20
12.250006506182523
 10
25.500710856540707
 20
12.250005048715149
 10
25.65085748568896
 20
12.25000389428154
 10
25.801004114837212
 20
12.250002739847906
 10
25.951150743987114
 20
12.25000186396261
 10
26.10129737313838
 20
12.250001209909378
 10
26.251444002289645
 20
12.250000555856136
 10
26.40159063144182
 20
12.250000277972946
 10
26.551737260594507
 20
12.250000185315274
 10
26.701883889747137
 20
12.250000092657608
 10
26.852030518899767
 20
12.249999999999952
 10
27.00217714805217
 20
12.250000106595277
 10
27.15232377720406
 20
12.250000599731697
 10
27.30247040635595
 20
12.250001092868128
 10
27.452617035507842
 20
12.250001586004576
 10
27.602763664659676
 20
12.250002084115653
 10
27.752910293809123
 20
12.250003064181167
 10
27.903056922958626
 20
12.250004044246662
 10
28.05320355210813
 20
12.250005024312163
 10
28.203350181257633
 20
12.250006004377676
 10
28.353496810404692
 20
12.250007283719377
 10
28.50364343955067
 20
12.250008703711138
 10
28.65379006869665
 20
12.250010123702916
 10
28.80393669784263
 20
12.250011543694665
 10
28.95408332698861
 20
12.250012963686443
 10
29.10422995613459
 20
12.250014383678202
 10
29.25437658527693
 20
12.250016137363591
 10
29.404523214418987
 20
12.250017925246842
 10
29.554669843561044
 20
12.250019713130094
 10
29.7048164727031
 20
12.25002150101335
 10
29.8549631018451
 20
12.250023288896601
 10
30.005109730987158
 20
12.250025076779854
 10
30.155256360129215
 20
12.250026864663122
 10
30.305402989270476
 20
12.250028715637573
 10
30.455549618411396
 20
12.250030594893243
 10
30.605696247552316
 20
12.2500324741489
 10
30.755842876693293
 20
12.250034353404569
 10
30.905989505834157
 20
12.250036232660255
 10
31.056136134975077
 20
12.250038111915924
 10
31.206282764116054
 20
12.250039991171581
 10
31.356429393256917
 20
12.25004187042725
 10
31.506576022397894
 20
12.25004374968292
 10
31.656722651538814
 20
12.250045628938604
 10
31.806869280679734
 20
12.250047508194275
 10
31.957015909820655
 20
12.25004938744993
 10
32.10716253896163
 20
12.2500512667056
 10
32.257309168102495
 20
12.250053145961285
 10
32.407455797244495
 20
12.250054930041195
 10
32.557602426389565
 20
12.250056439483426
 10
32.70774905553469
 20
12.25005794892566
 10
32.85789568467976
 20
12.250059458367893
 10
33.00804231382489
 20
12.250060967810155
 10
33.158188942970014
 20
12.250062477252387
 10
33.308335572116334
 20
12.250063844203924
 10
33.45848220126413
 20
12.250065059314426
 10
33.60862883041193
 20
12.250066274424928
 10
33.75877545955967
 20
12.250067489535436
 10
33.90892208870747
 20
12.250068704645937
 10
34.05906871785521
 20
12.25006991975644
 10
34.20921534700449
 20
12.250070922814235
 10
34.35936197615439
 20
12.250071839625843
 10
34.509508605304234
 20
12.25007275643745
 10
34.659655234454135
 20
12.250073673249076
 10
34.80980186360404
 20
12.250074590060697
 10
34.95994849275388
 20
12.250075506872305
 10
35.11009512190378
 20
12.250076423683913
 10
35.26024175105442
 20
12.25007719607112
 10
35.4103883802058
 20
12.25007782071688
 10
35.56053500935718
 20
12.250078445362655
 10
35.71068163850856
 20
12.250079070008432
 10
35.86082826765994
 20
12.250079694654207
 10
36.010974896811376
 20
12.250080319299968
 10
36.1611215259627
 20
12.250080943945743
 10
36.31126815511436
 20
12.250081493034786
 10
36.461414784266594
 20
12.25008184567556
 10
36.61156141341888
 20
12.250082198316345
 10
36.76170804257117
 20
12.250082550957103
 10
36.911854671723404
 20
12.250082903597887
 10
37.06200130087569
 20
12.25008325623866
 10
37.21214793002798
 20
12.250083608879445
 10
37.36229455918027
 20
12.250083961520218
 10
37.51244118833256
 20
12.250084314161004
 10
37.66258781748502
 20
12.250084518808903
 10
37.812734446637705
 20
12.250084631950033
 10
37.96288107579028
 20
12.250084745091161
 10
38.113027704942965
 20
12.250084858232263
 10
38.263174334095595
 20
12.250084971373392
 10
38.413320963248225
 20
12.25008508451452
 10
38.563467592400855
 20
12.250085197655633
 10
38.71361422155354
 20
12.250085310796761
 10
38.86376085070617
 20
12.250085423937891
 10
39.0139074798588
 20
12.250085354890302
 10
39.16405410901149
 20
12.250085277870543
 10
39.314200738164175
 20
12.250085200850785
 10
39.464347367316805
 20
12.250085123831028
 10
39.614493996469434
 20
12.25008504681127
 10
39.76464062562218
 20
12.25008496979151
 10
39.91478725477481
 20
12.250084892771753
 10
40.06493388392744
 20
12.250084815751995
 10
40.215080513080125
 20
12.250084738732236
 10
40.36522714223281
 20
12.250084661712478
 10
40.51537377138533
 20
12.250084463208383
 10
40.665520400537844
 20
12.250084244088924
 10
40.81566702969042
 20
12.250084024969482
 10
40.965813658842876
 20
12.250083805850013
 10
41.11596028799545
 20
12.25008358673057
 10
41.266106917147965
 20
12.250083367611111
 10
41.41625354630048
 20
12.25008314849164
 10
41.566400175453
 20
12.250082929372198
 10
41.71654680460557
 20
12.25008271025274
 10
41.86669343375809
 20
12.250082491133286
 10
42.0168400629106
 20
12.250082272013827
 10
42.16698669206312
 20
12.250082052894385
 10
42.317133321215636
 20
12.250081833774916
 10
42.46727995036815
 20
12.250081614655473
 10
42.617426579520725
 20
12.250081395536014
 10
42.76757320867324
 20
12.25008117641656
 10
42.917719837825814
 20
12.2500809738347
 10
43.06786646697833
 20
12.250080771615485
 10
43.218013096130846
 20
12.25008056939627
 10
43.36815972528342
 20
12.250080367177041
 10
43.51830635443599
 20
12.250080164957826
 10
43.66845298358851
 20
12.250079962738608
 10
43.81859961274108
 20
12.250079760519377
 10
43.9687462418936
 20
12.250079558300161
 10
44.11889287104617
 20
12.250079356080933
 10
44.26903950019869
 20
12.250079153861718
 10
44.41918612935132
 20
12.2500789516425
 10
44.569332758503776
 20
12.250078749423285
 10
44.719479387656406
 20
12.250078547204069
 10
44.86962601680892
 20
12.250078344984836
 10
45.019772645961496
 20
12.25007814276561
 10
45.16991927511401
 20
12.250077940546392
 10
45.32006590426653
 20
12.250077738327176
 10
45.4702125334191
 20
12.25007753610796
 10
45.620359162571674
 20
12.250077365584607
 10
45.77050579172436
 20
12.250077310414754
 10
45.92065242087705
 20
12.250077255244918
 10
46.07079905002968
 20
12.250077200075081
 10
46.220945679182364
 20
12.250077144905227
 10
46.37109230833505
 20
12.250077089735402
 10
46.52123893748774
 20
12.25007703456555
 10
46.67138556664037
 20
12.250076979395713
 10
46.82153219579311
 20
12.250076924225858
 10
46.97167882494574
 20
12.250076869056022
 10
47.12182545409843
 20
12.250076813886169
 10
47.271972083251114
 20
12.250076758716332
 10
47.4221187124038
 20
12.25007670354648
 10
47.57226534155643
 20
12.250076648376643
 10
47.722411970709175
 20
12.250076593206789
 10
47.872558599861804
 20
12.250076638582007
 10
48.02270522901449
 20
12.25007671190965
 10
48.17285185816712
 20
12.25007678523729
 10
48.32299848731981
 20
12.250076858564933
 10
48.47314511647244
 20
12.250076931892576
 10
48.62329174562518
 20
12.250077005220216
 10
48.77343837477781
 20
12.250077078547859
 10
48.92358500393044
 20
12.250077151875502
 10
49.07373163308313
 20
12.250077225203126
 10
49.22387826223576
 20
12.250077298530769
 10
49.374024891388444
 20
12.250077371858422
 10
49.52417152054113
 20
12.250077445186065
 10
49.67431814969382
 20
12.250077518513706
 10
49.82446477884645
 20
12.250077591841348
 10
49.974611407999134
 20
12.250077665168991
 10
50.124758037151764
 20
12.250077738496632
 10
50.274904666304394
 20
12.250077921728016
 10
50.42505129545691
 20
12.25007811635197
 10
50.57519792460948
 20
12.250078310975896
 10
50.725344553762056
 20
12.25007850559985
 10
50.87549118291457
 20
12.250078700223794
 10
51.025637812067146
 20
12.25007889484772
 10
51.17578444121972
 20
12.250079089471674
 10
51.32593107037229
 20
12.250079284095616
 10
51.476077699524865
 20
12.250079478719554
 10
51.62622432867738
 20
12.250079673343496
 10
51.776370957829954
 20
12.250079867967424
 10
51.92651758698253
 20
12.250080062591378
 10
52.07666421613504
 20
12.25008025721532
 10
52.226810845287616
 20
12.250080451839246
 10
52.37695747444019
 20
12.2500806464632
 10
52.52710410359276
 20
12.250080841087144
 10
52.677250732745335
 20
12.25008103571108
 10
52.827397361897795
 20
12.250081294128773
 10
52.97754399105014
 20
12.250081597546293
 10
53.12769062020254
 20
12.250081900963798
 10
53.27783724935489
 20
12.25008220438132
 10
53.42798387850729
 20
12.25008250779885
 10
53.578130507659694
 20
12.250082811216373
 10
53.72827713681204
 20
12.250083114633894
 10
53.87842376596444
 20
12.250083418051426
 10
54.02857039511679
 20
12.250083721468947
 10
54.17871702426919
 20
12.250084024886467
 10
54.328863653421536
 20
12.25008432830399
 10
54.47901028257394
 20
12.250084631721505
 10
54.62915691172634
 20
12.250084935139025
 10
54.779303540878686
 20
12.250085238556547
 10
54.92945017003103
 20
12.250085541974078
 10
55.079596799183435
 20
12.2500858453916
 10
55.22974342833584
 20
12.250086148809121
 10
55.37989005748818
 20
12.250086452226641
 10
55.530036686640585
 20
12.250086755644174
 10
55.68018331579276
 20
12.250087133599031
 10
55.830329944944936
 20
12.250087527544894
 10
55.98047657409711
 20
12.25008792149077
 10
56.130623203249286
 20
12.250088315436646
 10
56.28076983240146
 20
12.25008870938251
 10
56.430916461553636
 20
12.250089103328387
 10
56.58106309070581
 20
12.25008949727425
 10
56.731209719857986
 20
12.25008989122011
 10
56.881356349010105
 20
12.250090285165975
 10
57.03150297816228
 20
12.25009067911185
 10
57.181649607314455
 20
12.250091073057725
 10
57.33179623646663
 20
12.250091467003589
 10
57.481942865618805
 20
12.250091860949466
 10
57.63208949477098
 20
12.25009225489533
 10
57.782236123923155
 20
12.250092648841205
 10
57.932382753075274
 20
12.250093042787054
 10
58.08252938222745
 20
12.250093436732929
 10
58.232676011379624
 20
12.250093830678804
 10
58.3828226405318
 20
12.250094224624668
 10
58.532969269683974
 20
12.250094618570545
 10
58.683115898836036
 20
12.250095052302317
 10
58.83326252798804
 20
12.250095510727675
 10
58.98340915713999
 20
12.250095969153016
 10
59.13355578629199
 20
12.250096427578372
 10
59.28370241544394
 20
12.250096886003725
 10
59.433849044596
 20
12.250097344429083
 10
59.58399567374789
 20
12.25009780285444
 10
59.734142302899954
 20
12.25009826127978
 10
59.8842889320519
 20
12.250098719705138
 10
60.03443556120391
 20
12.250099178130489
 10
60.184582190355854
 20
12.250099636555847
 10
60.33472881950786
 20
12.250100094981187
 10
60.48487544865981
 20
12.250100553406543
 10
60.63502207781187
 20
12.250101011831886
 10
60.785168706963816
 20
12.250101470257253
 10
60.93531533611582
 20
12.250101928682595
 10
61.085461965267825
 20
12.250102387107951
 10
61.23560859441977
 20
12.250102845533291
 10
61.385755223571834
 20
12.25010330395865
 10
61.53590185272378
 20
12.250103762384006
 10
61.68604848187567
 20
12.250104234921373
 10
61.83619511102762
 20
12.250104727707333
 10
61.986341740179455
 20
12.250105220493307
 10
62.136488369331346
 20
12.250105713279282
 10
62.28663499848318
 20
12.250106206065258
 10
62.43678162763513
 20
12.250106698851218
 10
62.58692825678696
 20
12.250107191637193
 10
62.73707488593885
 20
12.250107684423167
 10
62.88722151509069
 20
12.250108177209142
 10
63.037368144242635
 20
12.250108669995102
 10
63.18751477339447
 20
12.250109162781078
 10
63.33766140254636
 20
12.250109655567051
 10
63.487808031698194
 20
12.250110148353027
 10
63.63795466085014
 20
12.250110641138987
 10
63.78810129000192
 20
12.250111133924962
 10
63.938247919153866
 20
12.250111626710938
 10
64.0883945483057
 20
12.250112119496912
 10
64.23854117745759
 20
12.250112612282871
 10
64.38868780660943
 20
12.250113105068847
 10
64.53883443576137
 20
12.250113597854822
 10
64.68898106491321
 20
12.250114091386866
 10
64.8391276940651
 20
12.250114587823377
 10
64.98927432321699
 20
12.250115084259876
 10
65.13942095236877
 20
12.250115580696388
 10
65.28956758152066
 20
12.2501160771329
 10
65.43971421067255
 20
12.250116573569398
 10
65.5898608398245
 20
12.250117070005892
 10
65.74000746897627
 20
12.250117566442404
 10
65.89015409812816
 20
12.250118062878903
 10
66.04030072727994
 20
12.250118559315414
 10
66.19044735643183
 20
12.250119055751924
 10
66.34059398558372
 20
12.250119552188425
 10
66.49074061473561
 20
12.250120048624934
 10
66.64088724388745
 20
12.250120545061446
 10
66.79103387303934
 20
12.250121041497945
 10
66.94118050219123
 20
12.25012153793444
 10
67.09132713134301
 20
12.25012203437095
 10
67.2414737604949
 20
12.250122530807449
 10
67.39162038964679
 20
12.25012302724396
 10
67.54176701879862
 20
12.25012352368046
 10
67.69191364795051
 20
12.25012402011697
 10
67.8420602771024
 20
12.250124516553482
 10
67.9922069062543
 20
12.250124997343047
 10
68.14235353540624
 20
12.25012546557338
 10
68.29250016455825
 20
12.250125933803712
 10
68.4426467937102
 20
12.250126402034063
 10
68.59279342286214
 20
12.250126870264396
 10
68.74294005201409
 20
12.250127338494728
 10
68.89308668116604
 20
12.25012780672505
 10
69.04323331031799
 20
12.250128274955399
 10
69.19337993946988
 20
12.250128743185732
 10
69.34352656862183
 20
12.250129211416064
 10
69.49367319777389
 20
12.250129679646397
 10
69.64381982692584
 20
12.250130147876748
 10
69.79396645607778
 20
12.25013061610708
 10
69.94411308522973
 20
12.250131084337413
 10
70.09425971438168
 20
12.250131552567746
 10
70.24440634353368
 20
12.250132020798079
 10
70.39455297268552
 20
12.250132489028429
 10
70.54469960183758
 20
12.250132957258762
 10
70.69484623098953
 20
12.250133425489095
 10
70.84499286014147
 20
12.250133893719427
 10
70.99513948929342
 20
12.250134361949765
 10
71.14528611844537
 20
12.250134830180098
 10
71.29543274759737
 20
12.250135261977807
 10
71.44557937674955
 20
12.25013568995544
 10
71.59572600590155
 20
12.25013611793309
 10
71.74587263505367
 20
12.25013654591074
 10
71.89601926420573
 20
12.250136973888374
 10
72.04616589335785
 20
12.250137401866024
 10
72.19631252250986
 20
12.250137829843657
 10
72.34645915166192
 20
12.250138257821307
 10
72.49660578081404
 20
12.250138685798957
 10
72.6467524099661
 20
12.250139113776603
 10
72.79689903911822
 20
12.250139541754253
 10
72.94704566827022
 20
12.250139969731887
 10
73.09719229742234
 20
12.250140397709536
 10
73.2473389265744
 20
12.250140825687186
 10
73.3974855557264
 20
12.250141253664818
 10
73.54763218487858
 20
12.25014168164247
 10
73.69777881403058
 20
12.250142109620102
 10
73.8479254431827
 20
12.250142537597752
 10
73.99807207233476
 20
12.250142965575401
 10
74.14821870148688
 20
12.250143393553035
 10
74.29836533063889
 20
12.250143821530685
 10
74.44851195979106
 20
12.250144239500127
 10
74.59865858894324
 20
12.250144628301202
 10
74.74880521809536
 20
12.25014501710225
 10
74.89895184724759
 20
12.250145405903313
 10
75.04909847639976
 20
12.250145794704387
 10
75.199245105552
 20
12.250146183505452
 10
75.34939173470411
 20
12.250146572306514
 10
75.49953836385629
 20
12.250146961107589
 10
75.64968499300852
 20
12.250147349908653
 10
75.79983162216064
 20
12.250147738709716
 10
75.94997825131281
 20
12.25014812751079
 10
76.10012488046505
 20
12.250148516311855
 10
76.25027150961716
 20
12.250148905112917
 10
76.40041813876945
 20
12.250149293913982
 10
76.55056476792157
 20
12.250149682715056
 10
76.70071139707375
 20
12.250150071516119
 10
76.85085802622598
 20
12.250150460317183
 10
77.0010046553781
 20
12.250150849118258
 10
77.15115128453033
 20
12.250151237919304
 10
77.3012979136825
 20
12.250151626720369
 10
77.45144454283462
 20
12.250152015521444
 10
77.6015911719868
 20
12.250152404322506
 10
77.75173780113909
 20
12.250152770167352
 10
77.75173780113863
 20
12.401588235129937
 10
77.75173780113863
 20
12.553106979114574
 10
77.75173780113863
 20
12.704625723099252
 10
77.75173780113863
 20
12.85614446708397
 10
77.75173780113863
 20
13.007663211068607
 10
77.75173780113863
 20
13.159181955053302
 10
77.75173780113869
 20
13.31070069903798
 10
77.75173780113869
 20
13.462219443022697
 10
77.75173780113869
 20
13.613738187007336
 10
77.75173780113869
 20
13.76525693099203
 10
77.75173780113869
 20
13.916775674976707
 10
77.75173780113869
 20
14.068294418961361
 10
77.75173780113869
 20
14.21981316294604
 10
77.75173780113869
 20
14.371331906930756
 10
77.75173780113869
 20
14.522850650915395
 10
77.75173780113869
 20
14.674369394900088
 10
77.75173780113874
 20
14.825888138884766
 10
77.75173780113874
 20
14.977406882869483
 10
77.75173780113874
 20
15.128925626854121
 10
77.75173780113874
 20
15.280444370838815
 10
77.75173780113874
 20
15.431963114823493
 10
77.75173780113874
 20
15.583481858808147
 10
77.75173780113874
 20
15.735000602792825
 10
77.75173780113874
 20
15.886519346777542
 10
77.75173780113874
 20
16.03803809076218
 10
77.75173780113874
 20
16.189556834746874
 10
77.75173780113874
 20
16.34107557873155
 10
77.7517378011388
 20
16.49259432271627
 10
77.7517378011388
 20
16.644113066700907
 10
77.7517378011388
 20
16.7956318106856
 10
77.7517378011388
 20
16.94715055467028
 10
77.7517378011388
 20
17.09866929865492
 10
77.7517378011388
 20
17.250188042639635
 10
77.7517378011388
 20
17.40170678662431
 10
77.7517378011388
 20
17.553225530608966
 10
77.7517378011388
 20
17.704744274593644
 10
77.7517378011388
 20
17.85626301857834
 10
77.75173780113886
 20
18.007781762562978
 10
77.75173780113886
 20
18.159300506547694
 10
77.75173780113886
 20
18.31081925053237
 10
77.75173780113886
 20
18.462337994517064
 10
77.75173780113886
 20
18.613856738501703
 10
77.75173780113886
 20
18.76537548248642
 10
77.75173780113886
 20
18.916894226471097
 10
77.75173780113886
 20
19.068412970455753
 10
77.75173780113886
 20
19.21993171444043
 10
77.75173780113886
 20
19.371450458425148
 10
77.75173780113886
 20
19.52296920240976
 10
77.75173780113892
 20
19.67448794639448
 10
77.75173780113892
 20
19.826006690379156
 10
77.75173780113892
 20
19.97752543436385
 10
77.75173780113892
 20
20.12904417834849
 10
77.75173780113892
 20
20.280562922333207
 10
77.75173780113892
 20
20.432081666317885
 10
77.75173780113892
 20
20.583600410302537
 10
77.75173780113892
 20
20.735119154287215
 10
77.75173780113892
 20
20.886637898271935
 10
77.75173780113892
 20
21.03815664225655
 10
77.75173780113897
 20
21.189675386241248
 10
77.75173780113897
 20
21.341194130225944
 10
77.75173780113897
 20
21.49271287421064
 10
77.75173780113897
 20
21.644231618195278
 10
77.75173780113897
 20
21.795750362179977
 10
77.75173780113897
 20
21.94726910616467
 10
77.75173780113897
 20
22.098787850149307
  0
ENDSEC
  0
SECTION
  2
OBJECTS
  0
DICTIONARY
  5
A
330
0
100
AcDbDictionary
281
1
  3
ACAD_COLOR
350
B
  3
ACAD_GROUP
350
C
  3
ACAD_LAYOUT
350
D
  3
ACAD_MATERIAL
350
E
  3
ACAD_MLEADERSTYLE
350
F
  3
ACAD_MLINESTYLE
350
10
  3
ACAD_PLOTSETTINGS
350
11
  3
ACAD_PLOTSTYLENAME
350
12
  3
ACAD_SCALELIST
350
14
  3
ACAD_TABLESTYLE
350
15
  3
ACAD_VISUALSTYLE
350
16
  3
EZDXF_META
350
2D
  0
DICTIONARY
  5
B
330
A
100
AcDbDictionary
281
1
  0
DICTIONARY
  5
C
330
A
100
AcDbDictionary
281
1
  0
DICTIONARY
  5
D
330
A
100
AcDbDictionary
281
1
  3
Model
350
1A
  3
Layout1
350
1E
  0
DICTIONARY
  5
E
330
A
100
AcDbDictionary
281
1
  3
ByBlock
350
1F
  3
ByLayer
350
20
  3
Global
350
21
  0
DICTIONARY
  5
F
330
A
100
AcDbDictionary
281
1
  3
Standard
350
2C
  0
DICTIONARY
  5
10
330
A
100
AcDbDictionary
281
1
  3
Standard
350
22
  0
DICTIONARY
  5
11
330
A
100
AcDbDictionary
281
1
  0
ACDBDICTIONARYWDFLT
  5
12
330
A
100
AcDbDictionary
281
1
  3
Normal
350
13
100
AcDbDictionaryWithDefault
340
13
  0
ACDBPLACEHOLDER
  5
13
330
12
  0
DICTIONARY
  5
14
330
A
100
AcDbDictionary
281
1
  0
DICTIONARY
  5
15
330
A
100
AcDbDictionary
281
1
  0
DICTIONARY
  5
16
330
A
100
AcDbDictionary
281
1
  0
LAYOUT
  5
1A
330
D
100
AcDbPlotSettings
  1

  4
A3
  6

 40
7.5
 41
20.0
 42
7.5
 43
20.0
 44
420.0
 45
297.0
 46
0.0
 47
0.0
 48
0.0
 49
0.0
140
0.0
141
0.0
142
1.0
143
1.0
 70
1024
 72
1
 73
0
 74
5
  7

 75
16
 76
0
 77
2
 78
300
147
1.0
148
0.0
149
0.0
100
AcDbLayout
  1
Model
 70
1
 71
0
 10
0.0
 20
0.0
 11
420.0
 21
297.0
 12
0.0
 22
0.0
 32
0.0
 14
1e+20
 24
1e+20
 34
1e+20
 15
-1e+20
 25
-1e+20
 35
-1e+20
146
0.0
 13
0.0
 23
0.0
 33
0.0
 16
1.0
 26
0.0
 36
0.0
 17
0.0
 27
1.0
 37
0.0
 76
1
330
17
  0
LAYOUT
  5
1E
330
D
100
AcDbPlotSettings
  1

  4
A3
  6

 40
7.5
 41
20.0
 42
7.5
 43
20.0
 44
420.0
 45
297.0
 46
0.0
 47
0.0
 48
0.0
 49
0.0
140
0.0
141
0.0
142
1.0
143
1.0
 70
0
 72
1
 73
0
 74
5
  7

 75
16
 76
0
 77
2
 78
300
147
1.0
148
0.0
149
0.0
100
AcDbLayout
  1
Layout1
 70
1
 71
1
 10
0.0
 20
0.0
 11
420.0
 21
297.0
 12
0.0
 22
0.0
 32
0.0
 14
1e+20
 24
1e+20
 34
1e+20
 15
-1e+20
 25
-1e+20
 35
-1e+20
146
0.0
 13
0.0
 23
0.0
 33
0.0
 16
1.0
 26
0.0
 36
0.0
 17
0.0
 27
1.0
 37
0.0
 76
1
330
1B
  0
MATERIAL
  5
1F
102
{ACAD_REACTORS
330
E
102
}
330
E
100
AcDbMaterial
  1
ByBlock
  2

 70
0
 40
1.0
 71
1
 41
1.0
 91
-1023410177
 42
1.0
 72
1
  3

 73
1
 74
1
 75
1
 44
0.5
 73
0
 45
1.0
 46
1.0
 77
1
  4

 78
1
 79
1
170
1
 48
1.0
171
1
  6

172
1
173
1
174
1
140
1.0
141
1.0
175
1
  7

176
1
177
1
178
1
143
1.0
179
1
  8

270
1
271
1
272
1
145
1.0
146
1.0
273
1
  9

274
1
275
1
276
1
 42
1.0
 72
1
  3

 73
1
 74
1
 75
1
 94
63
  0
MATERIAL
  5
20
102
{ACAD_REACTORS
330
E
102
}
330
E
100
AcDbMaterial
  1
ByLayer
  2

 70
0
 40
1.0
 71
1
 41
1.0
 91
-1023410177
 42
1.0
 72
1
  3

 73
1
 74
1
 75
1
 44
0.5
 73
0
 45
1.0
 46
1.0
 77
1
  4

 78
1
 79
1
170
1
 48
1.0
171
1
  6

172
1
173
1
174
1
140
1.0
141
1.0
175
1
  7

176
1
177
1
178
1
143
1.0
179
1
  8

270
1
271
1
272
1
145
1.0
146
1.0
273
1
  9

274
1
275
1
276
1
 42
1.0
 72
1
  3

 73
1
 74
1
 75
1
 94
63
  0
MATERIAL
  5
21
102
{ACAD_REACTORS
330
E
102
}
330
E
100
AcDbMaterial
  1
Global
  2

 70
0
 40
1.0
 71
1
 41
1.0
 91
-1023410177
 42
1.0
 72
1
  3

 73
1
 74
1
 75
1
 44
0.5
 73
0
 45
1.0
 46
1.0
 77
1
  4

 78
1
 79
1
170
1
 48
1.0
171
1
  6

172
1
173
1
174
1
140
1.0
141
1.0
175
1
  7

176
1
177
1
178
1
143
1.0
179
1
  8

270
1
271
1
272
1
145
1.0
146
1.0
273
1
  9

274
1
275
1
276
1
 42
1.0
 72
1
  3

 73
1
 74
1
 75
1
 94
63
  0
MLINESTYLE
  5
22
102
{ACAD_REACTORS
330
10
102
}
330
10
100
AcDbMlineStyle
  2
Standard
 70
0
  3

 62
256
 51
90.0
 52
90.0
 71
2
 49
0.5
 62
256
  6
BYLAYER
 49
-0.5
 62
256
  6
BYLAYER
  0
MLEADERSTYLE
  5
2C
102
{ACAD_REACTORS
330
F
102
}
330
F
100
AcDbMLeaderStyle
179
2
170
2
171
1
172
0
 90
2
 40
0.0
 41
0.0
173
1
 91
-1056964608
 92
-2
290
1
 42
2.0
291
1
 43
8.0
  3
Standard
 44
4.0
300

342
29
174
1
175
1
176
0
178
1
 93
-1056964608
 45
4.0
292
0
297
0
 46
4.0
 94
-1056964608
 47
1.0
 49
1.0
140
1.0
294
1
141
0.0
177
0
142
1.0
295
0
296
0
143
3.75
271
0
272
9
273
9
  0
DICTIONARY
  5
2D
330
A
100
AcDbDictionary
280
1
281
1
  3
CREATED_BY_EZDXF
350
2E
  3
WRITTEN_BY_EZDXF
350
3A
  0
DICTIONARYVAR
  5
2E
330
2D
100
DictionaryVariables
280
0
  1
1.4.4 @ 2026-09-19T12:12:34.601146+00:00
  0
DICTIONARYVAR
  5
3A
330
2D
100
DictionaryVariables
280
0
  1
1.4.4 @ 2026-09-19T12:12:34.611578+00:00
  0
ENDSEC
  0
EOF
