  0
SECTION
  2
HEADER
  9
$ACADVER
  1
AC1024
  9
$ACADMAINTVER
 70
6
  9
$DWGCODEPAGE
  3
ANSI_1252
  9
$LASTSAVEDBY
  1
ezdxf
  9
$INSBASE
 10
0.0
 20
0.0
 30
0.0
  9
$EXTMIN
 10
1e+20
 20
1e+20
 30
1e+20
  9
$EXTMAX
 10
-1e+20
 20
-1e+20
 30
-1e+20
  9
$LIMMIN
 10
0.0
 20
0.0
  9
$LIMMAX
 10
420.0
 20
297.0
  9
$ORTHOMODE
 70
0
  9
$REGENMODE
 70
1
  9
$FILLMODE
 70
1
  9
$QTEXTMODE
 70
0
  9
$MIRRTEXT
 70
1
  9
$LTSCALE
 40
1.0
  9
$ATTMODE
 70
1
  9
$TEXTSIZE
 40
2.5
  9
$TRACEWID
 40
1.0
  9
$TEXTSTYLE
  7
Standard
  9
$CLAYER
  8
0
  9
$CELTYPE
  6
ByLayer
  9
$CECOLOR
 62
256
  9
$CELTSCALE
 40
1.0
  9
$DISPSILH
 70
0
  9
$DIMSCALE
 40
1.0
  9
$DIMASZ
 40
2.5
  9
$DIMEXO
 40
0.625
  9
$DIMDLI
 40
3.75
  9
$DIMRND
 40
0.0
  9
$DIMDLE
 40
0.0
  9
$DIMEXE
 40
1.25
  9
$DIMTP
 40
0.0
  9
$DIMTM
 40
0.0
  9
$DIMTXT
 40
2.5
  9
$DIMCEN
 40
2.5
  9
$DIMTSZ
 40
0.0
  9
$DIMTOL
 70
0
  9
$DIMLIM
 70
0
  9
$DIMTIH
 70
0
  9
$DIMTOH
 70
0
  9
$DIMSE1
 70
0
  9
$DIMSE2
 70
0
  9
$DIMTAD
 70
1
  9
$DIMZIN
 70
8
  9
$DIMBLK
  1

  9
$DIMASO
 70
1
  9
$DIMSHO
 70
1
  9
$DIMPOST
  1

  9
$DIMAPOST
  1

  9
$DIMALT
 70
0
  9
$DIMALTD
 70
3
  9
$DIMALTF
 40
0.03937007874
  9
$DIMLFAC
 40
1.0
  9
$DIMTOFL
 70
1
  9
$DIMTVP
 40
0.0
  9
$DIMTIX
 70
0
  9
$DIMSOXD
 70
0
  9
$DIMSAH
 70
0
  9
$DIMBLK1
  1

  9
$DIMBLK2
  1

  9
$DIMSTYLE
  2
ISO-25
  9
$DIMCLRD
 70
0
  9
$DIMCLRE
 70
0
  9
$DIMCLRT
 70
0
  9
$DIMTFAC
 40
1.0
  9
$DIMGAP
 40
0.625
  9
$DIMJUST
 70
0
  9
$DIMSD1
 70
0
  9
$DIMSD2
 70
0
  9
$DIMTOLJ
 70
0
  9
$DIMTZIN
 70
8
  9
$DIMALTZ
 70
0
  9
$DIMALTTZ
 70
0
  9
$DIMUPT
 70
0
  9
$DIMDEC
 70
2
  9
$DIMTDEC
 70
2
  9
$DIMALTU
 70
2
  9
$DIMALTTD
 70
3
  9
$DIMTXSTY
  7
Standard
  9
$DIMAUNIT
 70
0
  9
$DIMADEC
 70
0
  9
$DIMALTRND
 40
0.0
  9
$DIMAZIN
 70
0
  9
$DIMDSEP
 70
44
  9
$DIMATFIT
 70
3
  9
$DIMFRAC
 70
0
  9
$DIMLDRBLK
  1

  9
$DIMLUNIT
 70
2
  9
$DIMLWD
 70
-2
  9
$DIMLWE
 70
-2
  9
$DIMTMOVE
 70
0
  9
$DIMFXL
 40
1.0
  9
$DIMFXLON
 70
0
  9
$DIMJOGANG
 40
0.785398163397
  9
$DIMTFILL
 70
0
  9
$DIMTFILLCLR
 70
0
  9
$DIMARCSYM
 70
0
  9
$DIMLTYPE
  6

  9
$DIMLTEX1
  6

  9
$DIMLTEX2
  6

  9
$DIMTXTDIRECTION
 70
0
  9
$LUNITS
 70
2
  9
$LUPREC
 70
4
  9
$SKETCHINC
 40
1.0
  9
$FILLETRAD
 40
10.0
  9
$AUNITS
 70
0
  9
$AUPREC
 70
2
  9
$MENU
  1
.
  9
$ELEVATION
 40
0.0
  9
$PELEVATION
 40
0.0
  9
$THICKNESS
 40
0.0
  9
$LIMCHECK
 70
0
  9
$CHAMFERA
 40
0.0
  9
$CHAMFERB
 40
0.0
  9
$CHAMFERC
 40
0.0
  9
$CHAMFERD
 40
0.0
  9
$SKPOLY
 70
0
  9
$TDCREATE
 40
2461303.7379166665
  9
$TDUCREATE
 40
2458532.153996898
  9
$TDUPDATE
 40
2461303.7379166665
  9
$TDUUPDATE
 40
2458532.1544311
  9
$TDINDWG
 40
0.0
  9
$TDUSRTIMER
 40
0.0
  9
$USRTIMER
 70
1
  9
$ANGBASE
 50
0.0
  9
$ANGDIR
 70
0
  9
$PDMODE
 70
0
  9
$PDSIZE
 40
0.0
  9
$PLINEWID
 40
0.0
  9
$SPLFRAME
 70
0
  9
$SPLINETYPE
 70
6
  9
$SPLINESEGS
 70
8
  9
$HANDSEED
  5
3B
  9
$SURFTAB1
 70
6
  9
$SURFTAB2
 70
6
  9
$SURFTYPE
 70
6
  9
$SURFU
 70
6
  9
$SURFV
 70
6
  9
$UCSBASE
  2

  9
$UCSNAME
  2

  9
$UCSORG
 10
0.0
 20
0.0
 30
0.0
  9
$UCSXDIR
 10
1.0
 20
0.0
 30
0.0
  9
$UCSYDIR
 10
0.0
 20
1.0
 30
0.0
  9
$UCSORTHOREF
  2

  9
$UCSORTHOVIEW
 70
0
  9
$UCSORGTOP
 10
0.0
 20
0.0
 30
0.0
  9
$UCSORGBOTTOM
 10
0.0
 20
0.0
 30
0.0
  9
$UCSORGLEFT
 10
0.0
 20
0.0
 30
0.0
  9
$UCSORGRIGHT
 10
0.0
 20
0.0
 30
0.0
  9
$UCSORGFRONT
 10
0.0
 20
0.0
 30
0.0
  9
$UCSORGBACK
 10
0.0
 20
0.0
 30
0.0
  9
$PUCSBASE
  2

  9
$PUCSNAME
  2

  9
$PUCSORG
 10
0.0
 20
0.0
 30
0.0
  9
$PUCSXDIR
 10
1.0
 20
0.0
 30
0.0
  9
$PUCSYDIR
 10
0.0
 20
1.0
 30
0.0
  9
$PUCSORTHOREF
  2

  9
$PUCSORTHOVIEW
 70
0
  9
$PUCSORGTOP
 10
0.0
 20
0.0
 30
0.0
  9
$PUCSORGBOTTOM
 10
0.0
 20
0.0
 30
0.0
  9
$PUCSORGLEFT
 10
0.0
 20
0.0
 30
0.0
  9
$PUCSORGRIGHT
 10
0.0
 20
0.0
 30
0.0
  9
$PUCSORGFRONT
 10
0.0
 20
0.0
 30
0.0
  9
$PUCSORGBACK
 10
0.0
 20
0.0
 30
0.0
  9
$USERI1
 70
0
  9
$USERI2
 70
0
  9
$USERI3
 70
0
  9
$USERI4
 70
0
  9
$USERI5
 70
0
  9
$USERR1
 40
0.0
  9
$USERR2
 40
0.0
  9
$USERR3
 40
0.0
  9
$USERR4
 40
0.0
  9
$USERR5
 40
0.0
  9
$WORLDVIEW
 70
1
  9
$SHADEDGE
 70
3
  9
$SHADEDIF
 70
70
  9
$TILEMODE
 70
1
  9
$MAXACTVP
 70
64
  9
$PINSBASE
 10
0.0
 20
0.0
 30
0.0
  9
$PLIMCHECK
 70
0
  9
$PEXTMIN
 10
1e+20
 20
1e+20
 30
1e+20
  9
$PEXTMAX
 10
-1e+20
 20
-1e+20
 30
-1e+20
  9
$PLIMMIN
 10
0.0
 20
0.0
  9
$PLIMMAX
 10
420.0
 20
297.0
  9
$UNITMODE
 70
0
  9
$VISRETAIN
 70
1
  9
$PLINEGEN
 70
0
  9
$PSLTSCALE
 70
1
  9
$TREEDEPTH
 70
3020
  9
$CMLSTYLE
  2
Standard
  9
$CMLJUST
 70
0
  9
$CMLSCALE
 40
20.0
  9
$PROXYGRAPHICS
 70
1
  9
$MEASUREMENT
 70
1
  9
$CELWEIGHT
370
-1
  9
$ENDCAPS
280
0
  9
$JOINSTYLE
280
0
  9
$LWDISPLAY
290
0
  9
$INSUNITS
 70
4
  9
$HYPERLINKBASE
  1

  9
$STYLESHEET
  1

  9
$XEDIT
290
1
  9
$CEPSNTYPE
380
0
  9
$PSTYLEMODE
290
1
  9
$FINGERPRINTGUID
  2
{4B565EAD-4953-4EF7-B64D-13A9EBFFA88E}
  9
$VERSIONGUID
  2
{F24B4D86-FA4F-42FB-9B17-25BE05542683}
  9
$EXTNAMES
290
1
  9
$PSVPSCALE
 40
0.0
  9
$OLESTARTUP
290
0
  9
$SORTENTS
280
127
  9
$INDEXCTL
280
0
  9
$HIDETEXT
280
1
  9
$XCLIPFRAME
280
1
  9
$HALOGAP
280
0
  9
$OBSCOLOR
 70
257
  9
$OBSLTYPE
280
0
  9
$INTERSECTIONDISPLAY
280
0
  9
$INTERSECTIONCOLOR
 70
257
  9
$DIMASSOC
280
2
  9
$PROJECTNAME
  1

  9
$CAMERADISPLAY
290
0
  9
$LENSLENGTH
 40
50.0
  9
$CAMERAHEIGHT
 40
0.0
  9
$STEPSPERSEC
 40
24.0
  9
$STEPSIZE
 40
100.0
  9
$3DDWFPREC
 40
2.0
  9
$PSOLWIDTH
 40
0.005
  9
$PSOLHEIGHT
 40
0.08
  9
$LOFTANG1
 40
1.570796326795
  9
$LOFTANG2
 40
1.570796326795
  9
$LOFTMAG1
 40
0.0
  9
$LOFTMAG2
 40
0.0
  9
$LOFTPARAM
 70
7
  9
$LOFTNORMALS
280
1
  9
$LATITUDE
 40
37.795
  9
$LONGITUDE
 40
-122.394
  9
$NORTHDIRECTION
 40
0.0
  9
$TIMEZONE
 70
-8000
  9
$LIGHTGLYPHDISPLAY
280
1
  9
$TILEMODELIGHTSYNCH
280
1
  9
$CMATERIAL
347
20
  9
$SOLIDHIST
280
0
  9
$SHOWHIST
280
1
  9
$DWFFRAME
280
2
  9
$DGNFRAME
280
2
  9
$REALWORLDSCALE
290
1
  9
$INTERFERECOLOR
 62
256
  9
$CSHADOW
280
0
  9
$SHADOWPLANELOCATION
 40
0.0
  0
ENDSEC
  0
SECTION
  2
CLASSES
  0
CLASS
  1
ACDBDICTIONARYWDFLT
  2
AcDbDictionaryWithDefault
  3
ObjectDBX Classes
 90
0
 91
0
280
0
281
0
  0
CLASS
  1
SUN
  2
AcDbSun
  3
SCENEOE
 90
1153
 91
0
280
0
281
0
  0
CLASS
  1
VISUALSTYLE
  2
AcDbVisualStyle
  3
ObjectDBX Classes
 90
4095
 91
0
280
0
281
0
  0
CLASS
  1
MATERIAL
  2
AcDbMaterial
  3
ObjectDBX Classes
 90
1153
 91
0
280
0
281
0
  0
CLASS
  1
SCALE
  2
AcDbScale
  3
ObjectDBX Classes
 90
1153
 91
0
280
0
281
0
  0
CLASS
  1
TABLESTYLE
  2
AcDbTableStyle
  3
ObjectDBX Classes
 90
4095
 91
0
280
0
281
0
  0
CLASS
  1
MLEADERSTYLE
  2
AcDbMLeaderStyle
  3
ACDB_MLEADERSTYLE_CLASS
 90
4095
 91
0
280
0
281
0
  0
CLASS
  1
DICTIONARYVAR
  2
AcDbDictionaryVar
  3
ObjectDBX Classes
 90
0
 91
0
280
0
281
0
  0
CLASS
  1
CELLSTYLEMAP
  2
AcDbCellStyleMap
  3
ObjectDBX Classes
 90
1152
 91
0
280
0
281
0
  0
CLASS
  1
MENTALRAYRENDERSETTINGS
  2
AcDbMentalRayRenderSettings
  3
SCENEOE
 90
1024
 91
0
280
0
281
0
  0
CLASS
  1
ACDBDETAILVIEWSTYLE
  2
AcDbDetailViewStyle
  3
ObjectDBX Classes
 90
1025
 91
0
280
0
281
0
  0
CLASS
  1
ACDBSECTIONVIEWSTYLE
  2
AcDbSectionViewStyle
  3
ObjectDBX Classes
 90
1025
 91
0
280
0
281
0
  0
CLASS
  1
RASTERVARIABLES
  2
AcDbRasterVariables
  3
ISM
 90
0
 91
0
280
0
281
0
  0
CLASS
  1
LAYOUT
  2
AcDbLayout
  3
ObjectDBX Classes
 90
0
 91
0
280
0
281
0
  0
CLASS
  1
ACDBPLACEHOLDER
  2
AcDbPlaceHolder
  3
ObjectDBX Classes
 90
0
 91
0
280
0
281
0
  0
ENDSEC
  0
SECTION
  2
TABLES
  0
TABLE
  2
VPORT
  5
8
330
0
100
AcDbSymbolTable
 70
1
  0
VPORT
  5
23
330
8
100
AcDbSymbolTableRecord
100
AcDbViewportTableRecord
  2
*Active
 70
0
 10
0.0
 20
0.0
 11
1.0
 21
1.0
 12
0.0
 22
0.0
 13
0.0
 23
0.0
 14
0.5
 24
0.5
 15
0.5
 25
0.5
 16
0.0
 26
0.0
 36
1.0
 17
0.0
 27
0.0
 37
0.0
 40
1000.0
 41
1.34
 42
50.0
 43
0.0
 44
0.0
 50
0.0
 51
0.0
 71
0
 72
1000
 73
1
 74
3
 75
0
 76
0
 77
0
 78
0
281
0
 65
0
146
0.0
  0
ENDTAB
  0
TABLE
  2
LTYPE
  5
2
330
0
100
AcDbSymbolTable
 70
3
  0
LTYPE
  5
24
330
2
100
AcDbSymbolTableRecord
100
AcDbLinetypeTableRecord
  2
ByBlock
 70
0
  3

 72
65
 73
0
 40
0.0
  0
LTYPE
  5
25
330
2
100
AcDbSymbolTableRecord
100
AcDbLinetypeTableRecord
  2
ByLayer
 70
0
  3

 72
65
 73
0
 40
0.0
  0
LTYPE
  5
26
330
2
100
AcDbSymbolTableRecord
100
AcDbLinetypeTableRecord
  2
Continuous
 70
0
  3

 72
65
 73
0
 40
0.0
  0
ENDTAB
  0
TABLE
  2
LAYER
  5
1
330
0
100
AcDbSymbolTable
 70
6
  0
LAYER
  5
27
330
1
100
AcDbSymbolTableRecord
100
AcDbLayerTableRecord
  2
0
 70
0
 62
7
  6
Continuous
370
-3
390
13
347
21
  0
LAYER
  5
28
330
1
100
AcDbSymbolTableRecord
100
AcDbLayerTableRecord
  2
Defpoints
 70
0
 62
7
  6
Continuous
290
0
370
-3
390
13
347
21
  0
LAYER
  5
2F
330
1
100
AcDbSymbolTableRecord
100
AcDbLayerTableRecord
  2
CUT_TOOL
 70
0
 62
7
  6
Continuous
370
-3
390
13
347
21
  0
LAYER
  5
30
330
1
100
AcDbSymbolTableRecord
100
AcDbLayerTableRecord
  2
CAD_OUTER
 70
0
 62
5
  6
Continuous
370
-3
390
13
347
21
  0
LAYER
  5
31
330
1
100
AcDbSymbolTableRecord
100
AcDbLayerTableRecord
  2
INNER_5MM_REFERENCE
 70
0
 62
3
  6
Continuous
370
-3
390
13
347
21
  0
LAYER
  5
32
330
1
100
AcDbSymbolTableRecord
100
AcDbLayerTableRecord
  2
LABEL
 70
0
 62
2
  6
Continuous
370
-3
390
13
347
21
  0
ENDTAB
  0
TABLE
  2
STYLE
  5
5
330
0
100
AcDbSymbolTable
 70
1
  0
STYLE
  5
29
330
5
100
AcDbSymbolTableRecord
100
AcDbTextStyleTableRecord
  2
Standard
 70
0
 40
0.0
 41
1.0
 50
0.0
 71
0
 42
2.5
  3
txt
  4

  0
ENDTAB
  0
TABLE
  2
VIEW
  5
7
330
0
100
AcDbSymbolTable
 70
0
  0
ENDTAB
  0
TABLE
  2
UCS
  5
6
330
0
100
AcDbSymbolTable
 70
0
  0
ENDTAB
  0
TABLE
  2
APPID
  5
3
330
0
100
AcDbSymbolTable
 70
3
  0
APPID
  5
2A
330
3
100
AcDbSymbolTableRecord
100
AcDbRegAppTableRecord
  2
ACAD
 70
0
  0
APPID
  5
38
330
3
100
AcDbSymbolTableRecord
100
AcDbRegAppTableRecord
  2
HATCHBACKGROUNDCOLOR
 70
0
  0
APPID
  5
39
330
3
100
AcDbSymbolTableRecord
100
AcDbRegAppTableRecord
  2
EZDXF
 70
0
  0
ENDTAB
  0
TABLE
  2
DIMSTYLE
  5
4
330
0
100
AcDbSymbolTable
 70
1
100
AcDbDimStyleTable
  0
DIMSTYLE
105
2B
330
4
100
AcDbSymbolTableRecord
100
AcDbDimStyleTableRecord
  2
Standard
 70
0
 40
1.0
 41
2.5
 42
0.625
 43
3.75
 44
1.25
 45
0.0
 46
0.0
 47
0.0
 48
0.0
 49
2.5
140
2.5
141
2.5
142
0.0
143
0.03937007874
144
1.0
145
0.0
146
1.0
147
0.625
148
0.0
 69
0
 70
0
 71
0
 72
0
 73
0
 74
0
 75
0
 76
0
 77
1
 78
8
 79
3
170
0
171
3
172
1
173
0
174
0
175
0
176
0
177
0
178
0
179
2
271
2
272
2
273
2
274
3
275
0
276
0
277
2
278
44
279
0
280
0
281
0
282
0
283
0
284
8
285
0
286
0
288
0
289
3
290
0
371
-2
372
-2
  0
ENDTAB
  0
TABLE
  2
BLOCK_RECORD
  5
9
330
0
100
AcDbSymbolTable
 70
2
  0
BLOCK_RECORD
  5
17
330
9
100
AcDbSymbolTableRecord
100
AcDbBlockTableRecord
  2
*Model_Space
340
1A
 70
0
280
1
281
0
  0
BLOCK_RECORD
  5
1B
330
9
100
AcDbSymbolTableRecord
100
AcDbBlockTableRecord
  2
*Paper_Space
340
1E
 70
0
280
1
281
0
  0
ENDTAB
  0
ENDSEC
  0
SECTION
  2
BLOCKS
  0
BLOCK
  5
18
330
17
100
AcDbEntity
  8
0
100
AcDbBlockBegin
  2
*Model_Space
 70
0
 10
0.0
 20
0.0
 30
0.0
  3
*Model_Space
  1

  0
ENDBLK
  5
19
330
17
100
AcDbEntity
  8
0
100
AcDbBlockEnd
  0
BLOCK
  5
1C
330
1B
100
AcDbEntity
  8
0
100
AcDbBlockBegin
  2
*Paper_Space
 70
0
 10
0.0
 20
0.0
 30
0.0
  3
*Paper_Space
  1

  0
ENDBLK
  5
1D
330
1B
100
AcDbEntity
  8
0
100
AcDbBlockEnd
  0
ENDSEC
  0
SECTION
  2
ENTITIES
  0
LWPOLYLINE
  5
33
330
17
100
AcDbEntity
  8
CUT_TOOL
100
AcDbPolyline
 90
712
 70
1
 10
0.0
 20
17.25058532898197
 10
12.000000003819196
 20
17.25058532898197
 10
12.000000007640438
 20
17.24338406034361
 10
12.004322449839663
 20
17.093350896776755
 10
12.004410439867286
 20
17.090762553652528
 10
12.010285460345642
 20
16.94081834364755
 10
12.0110104507865
 20
16.929217082775974
 10
12.023852071001158
 20
16.779672017773137
 10
12.024337876197592
 20
16.774617411523234
 10
12.040208460283793
 20
16.625417873672404
 10
12.041304795727768
 20
16.616603101463
 10
12.062473336418378
 20
16.468007924685722
 10
12.063638846297152
 20
16.460619807305367
 10
12.08923347799319
 20
16.312779828161887
 10
12.090379575446036
 20
16.306619989403654
 10
12.119682060545813
 20
16.15941265927565
 10
12.121787104277558
 20
16.149824688772455
 10
12.156835693210127
 20
16.00392422264595
 10
12.157740063703073
 20
16.000280206813393
 10
12.194986790736976
 20
15.854879673796134
 10
12.198276611018969
 20
15.84322005302465
 10
12.242517872464816
 20
15.699813105519766
 10
12.243228373212418
 20
15.69754826083539
 10
12.288830387553816
 20
15.55456420398176
 10
12.292858491708557
 20
15.54293165047379
 10
12.345449184237282
 20
15.402351236703618
 10
12.346661413890303
 20
15.399176731125827
 10
12.40114331680249
 20
15.259361853542085
 10
12.404929652298108
 20
15.250187709272431
 10
12.464934247732913
 20
15.112608342348658
 10
12.467296248215632
 20
15.107358506753583
 10
12.53043070461382
 20
14.971244767128294
 10
12.533723563591195
 20
14.96441859684124
 10
12.60097837149533
 20
14.830234303832652
 10
12.604750695304944
 20
14.823004713728754
 10
12.676321535760536
 20
14.691130362297796
 10
12.67886979050516
 20
14.686550206628265
 10
12.753214953192327
 20
14.556160673070318
 10
12.758670993779788
 20
14.547047208921548
 10
12.838468169794396
 20
14.419964506358674
 10
12.84001431804245
 20
14.417533374817586
 10
12.92129064426507
 20
14.291347827023081
 10
12.928720951542687
 20
14.280454131038972
 10
13.016533308050384
 20
14.15873562616814
 10
13.018001330906117
 20
14.156721997068692
 10
13.10700993133284
 20
14.035901983139953
 10
13.114249385401166
 20
14.026546992551546
 10
13.208891597683845
 20
13.910050274440334
 10
13.211837130194652
 20
13.906492241890716
 10
13.308581651778894
 20
13.791804117343212
 10
13.314823700978337
 20
13.784682504185554
 10
13.415877776689257
 20
13.673701841641806
 10
13.420880876954442
 20
13.668366211384114
 10
13.525095629271192
 20
13.560433581121348
 10
13.53003184504982
 20
13.555462573915568
 10
13.637273836880041
 20
13.450449294447056
 10
13.644466452505611
 20
13.443679265108646
 10
13.755734784956672
 20
13.343018913323563
 10
13.75898571240009
 20
13.340128947196309
 10
13.872027388352876
 20
13.241385779461927
 10
13.881467241499791
 20
13.233540067375184
 10
13.999199530930326
 20
13.14048007147433
 10
14.001201552577669
 20
13.138914068774172
 10
14.119883649339698
 20
13.047048288248858
 10
14.130328940096177
 20
13.039387490654551
 10
14.253620639389254
 20
12.953784975727324
 10
14.256339499132167
 20
12.951923681118737
 10
14.380714827033529
 20
12.867976372590967
 10
14.389389235792464
 20
12.86237873537442
 10
14.517159140963713
 20
12.783616529914173
 10
14.522052418852724
 20
12.780676689809404
 10
14.651541274886057
 20
12.704879289178455
 10
14.658323545601263
 20
12.701049815452043
 10
14.790157622654078
 20
12.629297395255458
 10
14.797330477250796
 20
12.62554272900267
 10
14.931372548897514
 20
12.55812001680571
 10
14.936153939733117
 20
12.555778449942807
 10
15.0716480833496
 20
12.491203139474452
 10
15.081206899988416
 20
12.486891121192102
 10
15.219256278681115
 20
12.428069074914077
 10
15.22193267555923
 20
12.426946987320209
 10
15.360689356687544
 20
12.369717474665407
 10
15.37274588972764
 20
12.365105313996638
 10
15.514264402053584
 20
12.315116874924703
 10
15.516553745451148
 20
12.314320674051116
 10
15.658532217772546
 20
12.265712820786087
 10
15.669528332254913
 20
12.262229442655517
 10
15.81362345081692
 20
12.22021479660144
 10
15.817857779456801
 20
12.219020492749326
 10
15.96262318856327
 20
12.179560802264053
 10
15.971514556529002
 20
12.177311590138002
 10
16.117677098933513
 20
12.143177371613335
 10
16.12445847944784
 20
12.14169265145381
 10
16.271457058352183
 20
12.111641167344533
 10
16.278116430763703
 20
12.110373575232867
 10
16.425931410981093
 20
12.084308938274429
 10
16.435396056105645
 20
12.08282639709926
 10
16.584051756452283
 20
12.062450926447967
 10
16.58834827305617
 20
12.061899903293643
 10
16.73738416800336
 20
12.044097215470552
 10
16.749660948444983
 20
12.042937018108407
 10
16.899366684377043
 20
12.032506945730054
 10
16.90186829098201
 20
12.032345256389847
 10
17.051687959346225
 20
12.023415828981467
 10
17.06346098399257
 20
12.02299220264808
 10
17.21354485295541
 20
12.021130495478154
 10
17.21395569909876
 20
12.02112573681994
 10
17.364041781520285
 20
12.019510701065045
 10
17.365346233785743
 20
12.019500067821493
 10
17.515439343764143
 20
12.018668194359295
 10
17.665535354079253
 20
12.017838040440433
 10
17.81563243687691
 20
12.017010252285148
 10
17.96573441202125
 20
12.016187728917657
 10
18.1158333418269
 20
12.015368674250896
 10
18.265944124190824
 20
12.014560089420156
 10
18.416042112461653
 20
12.013754417191265
 10
18.566164532564528
 20
12.012966071795773
 10
18.716264507700373
 20
12.012181813982455
 10
18.866389987139215
 20
12.011416646026001
 10
19.01649858084967
 20
12.010660622233226
 10
19.166622511288253
 20
12.009922732473221
 10
19.31674344405066
 20
12.009201222699563
 10
19.46686306370495
 20
12.008495250751894
 10
19.61699912618262
 20
12.007814537563547
 10
19.767111677437043
 20
12.00714511962523
 10
19.917265649767657
 20
12.006511484843049
 10
20.06737252183173
 20
12.005885718171582
 10
20.217538895721873
 20
12.005302995623364
 10
20.367652876411142
 20
12.004732286239477
 10
20.517811620919275
 20
12.004200004122408
 10
20.667944092095183
 20
12.003690594457073
 10
20.818092452290614
 20
12.003213382190372
 10
20.9682461589356
 20
12.002771554902642
 10
21.118381377444493
 20
12.002354038030486
 10
21.26855905523982
 20
12.001986081233895
 10
21.418678370837583
 20
12.001632881134176
 10
21.568882298925345
 20
12.001344822380966
 10
21.718997629595663
 20
12.001069067980547
 10
21.86919018999197
 20
12.000851610245311
 10
22.019316766939
 20
12.000653058266371
 10
22.169481686633645
 20
12.000496245613926
 10
22.31962079278196
 20
12.000365740156417
 10
22.469761859684553
 20
12.000262670668157
 10
22.619909362678598
 20
12.000190890179008
 10
22.770030657170224
 20
12.000134672737863
 10
22.9201814967646
 20
12.000111728937892
 10
23.07028744398582
 20
12.000095122128457
 10
23.22040232047543
 20
12.000090199535661
 10
23.37049773563602
 20
12.00008527833843
 10
23.520593150796543
 20
12.000080357141197
 10
23.670688939195315
 20
12.000075660013229
 10
23.820784954536492
 20
12.000071323205754
 10
23.970880369715033
 20
12.000066986416334
 10
24.120975784893645
 20
12.00006264962692
 10
24.27107188978131
 20
12.000058726900505
 10
24.421167545908773
 20
12.000054948839079
 10
24.57126296110245
 20
12.000051170783832
 10
24.721358464002634
 20
12.000047445383021
 10
24.871454679373016
 20
12.000044200369734
 10
25.02155009457914
 20
12.000040955375027
 10
25.17164550978532
 20
12.000037710380322
 10
25.321741310750483
 20
12.00003469697743
 10
25.471837185319657
 20
12.00003195936082
 10
25.621932600535942
 20
12.000029221753005
 10
25.7720280157522
 20
12.000026484145193
 10
25.92212408418871
 20
12.00002413870383
 10
26.072219648544333
 20
12.000021882806982
 10
26.222315063768647
 20
12.000019626912422
 10
26.372410609494224
 20
12.000017449365888
 10
26.522506653807284
 20
12.000015649502604
 10
26.672602069037723
 20
12.00001384964765
 10
26.82269748426819
 20
12.000012049792698
 10
26.972793279043017
 20
12.000010477803537
 10
27.122889031556724
 20
12.000009108311243
 10
27.272984446791668
 20
12.000007738822255
 10
27.42307986202667
 20
12.000006369333267
 10
27.573175875258315
 20
12.000005358864092
 10
27.723271366561008
 20
12.000004394066924
 10
27.87336678179919
 20
12.000003429270258
 10
28.023462388056302
 20
12.000002579156385
 10
28.173558392489824
 20
12.00000208278174
 10
28.323653807730224
 20
12.000001586409741
 10
28.47374922297064
 20
12.000001090037744
 10
28.623844638211082
 20
12.000000593665744
 10
28.773940053451483
 20
12.000000097293743
 10
28.92403613340231
 20
12.0
 10
29.074131734663126
 20
12.00000001439025
 10
29.22422714990438
 20
12.000000028780553
 10
29.37432256514562
 20
12.000000043170854
 10
29.524417980386886
 20
12.000000057561156
 10
29.674513635452698
 20
12.000000215938035
 10
29.82460956538273
 20
12.000000683326
 10
29.974704980623258
 20
12.000001150712896
 10
30.124800395863815
 20
12.000001618099786
 10
30.274895811104287
 20
12.000002085486681
 10
30.424991226344787
 20
12.00000255287357
 10
30.575087204012135
 20
12.000003357934487
 10
30.725182715122017
 20
12.000004220552787
 10
30.875278130360783
 20
12.000005083170562
 10
31.02537354559952
 20
12.00000594578833
 10
31.175468960838273
 20
12.000006808406102
 10
31.32556459578248
 20
12.000007802932899
 10
31.475660353396975
 20
12.000009003018329
 10
31.775851183869833
 20
12.000011403184189
 10
31.92594659910631
 20
12.00001260326712
 10
32.07604201434279
 20
12.000013803350049
 10
32.22613792205972
 20
12.000015299115272
 10
32.376233375852024
 20
12.000016818026445
 10
32.526328791085604
 20
12.000018336937234
 10
32.676424206319126
 20
12.000019855848022
 10
32.826519621552706
 20
12.000021374758807
 10
32.976615036786285
 20
12.000022893669593
 10
33.12671045201981
 20
12.000024412580379
 10
33.27680618241142
 20
12.000026120710958
 10
33.426901772819804
 20
12.000027934013886
 10
33.576997188050086
 20
12.00002974731476
 10
33.72709260328037
 20
12.00003156061563
 10
33.87718801851065
 20
12.000033373916505
 10
34.027283433740934
 20
12.000035187217374
 10
34.17737884897127
 20
12.00003700051825
 10
34.327474264201555
 20
12.000038813819119
 10
34.47756967943178
 20
12.000040627119992
 10
34.62766526201413
 20
12.000042540898777
 10
34.7777608215753
 20
12.000044541332375
 10
34.92785623680315
 20
12.000046541764098
 10
35.07795165203103
 20
12.000048542195813
 10
35.228047067259
 20
12.000050542627537
 10
35.37814248248688
 20
12.000052543059253
 10
35.52823789771479
 20
12.000054543490975
 10
35.678333312942726
 20
12.000056543922692
 10
35.828428728170636
 20
12.000058544354415
 10
35.978524143398516
 20
12.000060544786134
 10
36.12861955862647
 20
12.000062545217855
 10
36.27871497385436
 20
12.000064545649574
 10
36.428810331979406
 20
12.000066546080532
 10
36.57890567500834
 20
12.000068477978193
 10
36.72900107482603
 20
12.000070391526005
 10
36.87909649005506
 20
12.000072305074013
 10
37.029191905284094
 20
12.00007421862203
 10
37.32938273574216
 20
12.000078045718048
 10
37.47947815097125
 20
12.00007995926606
 10
37.62957356620028
 20
12.000081872814073
 10
37.77966898142937
 20
12.000083786362085
 10
37.9297643966584
 20
12.000085699910095
 10
38.079859811887374
 20
12.000087613458106
 10
38.22995522711646
 20
12.00008952700612
 10
38.380050642345495
 20
12.000091440554128
 10
38.53014600231225
 20
12.00009335410144
 10
38.68024116625979
 20
12.00009520139512
 10
38.830336385294046
 20
12.000096813103399
 10
38.98043180052666
 20
12.000098424813785
 10
39.130527215759216
 20
12.000100036524168
 10
39.28062263099183
 20
12.000101648234555
 10
39.43071804622444
 20
12.000103259944941
 10
39.580813461457
 20
12.000104871655328
 10
39.73090887668961
 20
12.000106483365714
 10
39.88100426912712
 20
12.000108095075856
 10
40.03109948254537
 20
12.000109679253141
 10
40.181194719019885
 20
12.000111048785834
 10
40.331290134254886
 20
12.00011241832016
 10
40.4813855494899
 20
12.00011378785449
 10
40.63148096472489
 20
12.000115157388818
 10
40.78157637995989
 20
12.000116526923142
 10
40.931671795194845
 20
12.000117896457471
 10
41.08176721042983
 20
12.000119265991797
 10
41.23186262415129
 20
12.00012063552611
 10
41.381957860435975
 20
12.000122003366684
 10
41.532053098038475
 20
12.000123157904065
 10
41.682148513275294
 20
12.000124312442813
 10
41.83224392851211
 20
12.000125466981558
 10
41.982339343748876
 20
12.000126621520305
 10
42.132434758985696
 20
12.000127776059053
 10
42.28253017422246
 20
12.000128930597798
 10
42.73281626624701
 20
12.000132394212859
 10
42.882911510853646
 20
12.000133364186075
 10
43.033006909620454
 20
12.00013431412135
 10
43.18310232485862
 20
12.000135264056723
 10
43.33319774009688
 20
12.000136213992104
 10
43.483293155335105
 20
12.000137163927477
 10
43.633388570573345
 20
12.000138113862853
 10
43.783483985811586
 20
12.00013906379823
 10
43.93357940104977
 20
12.000140013733606
 10
44.08367481628807
 20
12.000140963668983
 10
44.23377023152631
 20
12.00014191360436
 10
44.383865495566354
 20
12.000142863538779
 10
44.533960756567396
 20
12.00014363187497
 10
44.684056167043366
 20
12.000144395572098
 10
44.83415158228267
 20
12.00014515926925
 10
44.98424699752201
 20
12.000145922966404
 10
45.13434241276133
 20
12.000146686663562
 10
45.28443782800059
 20
12.000147450360716
 10
45.4345332432399
 20
12.000148214057868
 10
45.584628658479176
 20
12.000148977755021
 10
45.734724073718496
 20
12.00014974145218
 10
45.884819481050556
 20
12.000150505149294
 10
46.03491476718898
 20
12.000151261291867
 10
46.18501005793537
 20
12.00015186798765
 10
46.335105473175375
 20
12.000152474683938
 10
46.485200888415434
 20
12.000153081380226
 10
46.63529630365542
 20
12.00015368807651
 10
46.93548713413544
 20
12.000154901469084
 10
47.0855825493755
 20
12.000155508165372
 10
47.235677964615505
 20
12.00015611486166
 10
47.38577337985549
 20
12.000156721557945
 10
47.53586879509557
 20
12.00015732825423
 10
47.836059593210564
 20
12.000158541646675
 10
47.98615490057669
 20
12.000159109510735
 10
48.1362502404462
 20
12.000159586758492
 10
48.2863456556867
 20
12.000160064006486
 10
48.436441070927174
 20
12.000160541254484
 10
48.58653648616769
 20
12.00016101850248
 10
48.73663190140819
 20
12.000161495750474
 10
48.8867273166486
 20
12.000161972998471
 10
49.036822731889174
 20
12.000162450246469
 10
49.18691814712963
 20
12.000162927494465
 10
49.33701356237002
 20
12.00016340474246
 10
49.487108977610546
 20
12.000163881990456
 10
49.637204392851004
 20
12.000164359238454
 10
49.787299808091575
 20
12.000164836486451
 10
49.93739522333196
 20
12.000165313734446
 10
50.08749063857249
 20
12.000165790982441
 10
50.23758605381295
 20
12.000166268230439
 10
50.38768142395506
 20
12.000166745478293
 10
50.53777678964312
 20
12.000167168526701
 10
50.68787220027929
 20
12.000167586183483
 10
50.837967615519915
 20
12.000168003840278
 10
50.988063030760614
 20
12.00016842149708
 10
51.138158446001285
 20
12.000168839153874
 10
51.288253861241856
 20
12.000169256810668
 10
51.4383492764825
 20
12.000169674467468
 10
51.58844469172317
 20
12.000170092124263
 10
51.73854010696385
 20
12.000170509781057
 10
51.888635522204495
 20
12.000170927437855
 10
52.03873093744518
 20
12.000171345094653
 10
52.18882635268585
 20
12.000171762751448
 10
52.338921767926536
 20
12.000172180408244
 10
52.48901718316718
 20
12.000172598065042
 10
52.63911259840785
 20
12.000173015721836
 10
52.78920801364853
 20
12.000173433378631
 10
52.93930342888923
 20
12.000173851035429
 10
53.08939884412986
 20
12.000174268692227
 10
53.23949425937053
 20
12.000174686349023
 10
53.389589674611216
 20
12.000175104005818
 10
53.539685089851915
 20
12.000175521662616
 10
53.68978050509253
 20
12.00017593931941
 10
53.83987592033321
 20
12.000176356976205
 10
53.9899713355738
 20
12.000176774633003
 10
54.14006675081443
 20
12.000177192289803
 10
54.2901621660551
 20
12.000177609946597
 10
54.44025758129578
 20
12.000178027603392
 10
54.59035306184785
 20
12.000178484472203
 10
54.74044852208324
 20
12.000178968355131
 10
54.8905439373237
 20
12.000179452237916
 10
55.04063935256427
 20
12.000179936120704
 10
55.19073476780467
 20
12.000180420003492
 10
55.34083018304513
 20
12.000180903886278
 10
55.490925598285585
 20
12.000181387769066
 10
55.641021013525986
 20
12.000181871651854
 10
55.79111642876656
 20
12.000182355534635
 10
55.941211844007015
 20
12.000182839417423
 10
56.091307259247415
 20
12.000183323300211
 10
56.24140267448787
 20
12.000183807182996
 10
56.39149808972839
 20
12.000184291065784
 10
56.541593504968844
 20
12.000184774948572
 10
56.6916889202093
 20
12.000185258831358
 10
56.8417843354497
 20
12.000185742714146
 10
56.99187975069027
 20
12.000186226596934
 10
57.14197516593073
 20
12.000186710479715
 10
57.29207058117113
 20
12.000187194362503
 10
57.44216599641159
 20
12.000187678245291
 10
57.59226141165216
 20
12.000188162128076
 10
57.74235682689256
 20
12.000188646010864
 10
57.89245224213302
 20
12.000189129893652
 10
58.042547657373476
 20
12.000189613776438
 10
58.192643072613876
 20
12.000190097659226
 10
58.34273850026389
 20
12.000190588992522
 10
58.492834032598324
 20
12.000191150627362
 10
58.64292944783848
 20
12.000191712261788
 10
58.79302486307867
 20
12.000192273896221
 10
58.943120278318844
 20
12.000192835530651
 10
59.093215693559
 20
12.000193397165079
 10
59.393406524039364
 20
12.000194520433938
 10
59.543501939279636
 20
12.000195082068366
 10
59.693597354519824
 20
12.000195643702796
 10
59.84369276976004
 20
12.000196205337222
 10
59.99378818500023
 20
12.000196766971653
 10
60.1438836002404
 20
12.000197328606083
 10
60.29397901548056
 20
12.000197890240512
 10
60.44407443072075
 20
12.000198451874942
 10
60.594169845961034
 20
12.000199013509372
 10
60.74426526120119
 20
12.0001995751438
 10
60.89436067644138
 20
12.00020013677823
 10
61.04445609168155
 20
12.00020069841266
 10
61.19455150692171
 20
12.000201260047087
 10
61.3446469221619
 20
12.000201821681516
 10
61.494742337402116
 20
12.000202383315944
 10
61.6448377526423
 20
12.000202944950374
 10
61.79493316788259
 20
12.000203506584803
 10
61.94502858312275
 20
12.000204068219233
 10
62.09512399836282
 20
12.000204629853663
 10
62.24521948463098
 20
12.000205234132306
 10
62.54541036255023
 20
12.000206499652812
 10
62.69550577779012
 20
12.000207132412969
 10
62.84560119303001
 20
12.000207765173121
 10
62.99569660826995
 20
12.000208397933276
 10
63.14579202350984
 20
12.000209030693432
 10
63.295887438749844
 20
12.000209663453587
 10
63.44598285398973
 20
12.00021029621374
 10
64.04636451494929
 20
12.000212827254362
 10
64.19645993018929
 20
12.000213460014516
 10
64.64674617590896
 20
12.000215358294982
 10
64.79684159114885
 20
12.000215991055132
 10
64.94693700638874
 20
12.000216623815291
 10
65.09703242162874
 20
12.000217256575446
 10
65.24712783686863
 20
12.000217889335602
 10
65.39722325210852
 20
12.000218522095752
 10
65.5473186673484
 20
12.000219154855907
 10
65.6974140825883
 20
12.000219787616066
 10
65.84750949782824
 20
12.000220420376221
 10
65.99760491306813
 20
12.000221053136373
 10
66.14770032830813
 20
12.000221685896527
 10
66.29779577344635
 20
12.00022233660729
 10
66.447891264762
 20
12.000223032992926
 10
66.5979866800016
 20
12.000223729378215
 10
66.74808209524126
 20
12.000224425763506
 10
66.89817751048086
 20
12.000225122148791
 10
67.04827292572048
 20
12.000225818534084
 10
67.19836834096019
 20
12.000226514919374
 10
67.34846375619979
 20
12.00022721130466
 10
67.49855917143934
 20
12.00022790768995
 10
67.64865458667896
 20
12.000228604075243
 10
67.79875000191866
 20
12.000229300460528
 10
67.94884541715827
 20
12.00022999684582
 10
68.09894083239789
 20
12.000230693231112
 10
68.24903624763742
 20
12.000231389616397
 10
68.39913166287714
 20
12.000232086001688
 10
68.54922707811674
 20
12.000232782386977
 10
68.69932249335646
 20
12.000233478772266
 10
68.84941790859607
 20
12.000234175157557
 10
68.99951332383561
 20
12.000234871542846
 10
69.14960873907522
 20
12.000235567928131
 10
69.29970415431495
 20
12.000236264313425
 10
69.59989498479415
 20
12.000237657084005
 10
69.7499904000337
 20
12.000238353469294
 10
69.90008581527341
 20
12.000239049854583
 10
70.05018123051302
 20
12.000239746239874
 10
70.20027664575274
 20
12.00024044262516
 10
70.35037206099236
 20
12.000241139010452
 10
70.50046755959768
 20
12.000241885447565
 10
70.65056297788757
 20
12.000242633715734
 10
70.80065839312695
 20
12.000243381983893
 10
70.95075380836626
 20
12.000244130252042
 10
71.1008492236057
 20
12.000244878520197
 10
71.25094463884503
 20
12.000245626788352
 10
71.40104005408446
 20
12.000246375056507
 10
71.5511354693239
 20
12.00024712332466
 10
71.85132629980254
 20
12.00024861986097
 10
72.00142171504197
 20
12.000249368129126
 10
72.15151713028128
 20
12.000250116397275
 10
72.30161254552073
 20
12.000250864665432
 10
72.45170796076005
 20
12.000251612933587
 10
72.60180337599948
 20
12.000252361201742
 10
72.75189879123879
 20
12.000253109469893
 10
72.90199420647824
 20
12.000253857738048
 10
73.05208962171761
 20
12.000254606006202
 10
73.20218503695705
 20
12.00025535427436
 10
73.35228045219635
 20
12.00025610254251
 10
73.50237586743569
 20
12.000256850810665
 10
73.65247128267512
 20
12.00025759907882
 10
73.80256669791456
 20
12.000258347346975
 10
73.95266211315388
 20
12.000259095615128
 10
74.10275752839331
 20
12.000259843883283
 10
74.25285297563384
 20
12.000260611364544
 10
74.402948427187
 20
12.000261400648158
 10
74.55304384242619
 20
12.000262189931581
 10
74.70313925766534
 20
12.000262979215004
 10
74.8532346729046
 20
12.000263768498424
 10
75.00333008814377
 20
12.00026455778185
 10
75.1534255033829
 20
12.000265347065273
 10
75.30352091862211
 20
12.000266136348694
 10
75.45361633386116
 20
12.00026692563212
 10
75.60371174910041
 20
12.000267714915545
 10
75.75380716433956
 20
12.000268504198964
 10
75.90390257957883
 20
12.000269293482386
 10
76.05399799481793
 20
12.000270082765814
 10
76.20409341005707
 20
12.000270872049233
 10
76.35418882529622
 20
12.000271661332656
 10
76.50428424053538
 20
12.000272450616084
 10
76.65437965577463
 20
12.000273239899503
 10
76.80447507101373
 20
12.000274029182926
 10
76.95457048625289
 20
12.000274818466353
 10
77.10466590149203
 20
12.000275607749773
 10
77.25476131673129
 20
12.000276397033197
 10
77.40485673197044
 20
12.00027718631662
 10
77.55495214720955
 20
12.000277975600044
 10
77.7050475624488
 20
12.000278764883467
 10
77.85514297768783
 20
12.00027955416689
 10
78.00523839292711
 20
12.000280343450315
 10
78.15533386022153
 20
12.00028116398712
 10
78.30542927695079
 20
12.00028198541842
 10
78.45552469218981
 20
12.00028280684971
 10
78.6056201074288
 20
12.000283628281
 10
78.75571552266784
 20
12.000284449712293
 10
78.90581093790681
 20
12.00028527114358
 10
79.05590635314574
 20
12.000286092574873
 10
79.20600176838478
 20
12.000286914006166
 10
79.35609718362375
 20
12.000287735437453
 10
79.5061925988628
 20
12.000288556868744
 10
79.65628801410178
 20
12.000289378300037
 10
79.80638342934068
 20
12.000290199731326
 10
79.95647884457973
 20
12.000291021162617
 10
80.10657425981871
 20
12.00029184259391
 10
80.25666967505774
 20
12.000292664025197
 10
80.40676509029673
 20
12.00029348545649
 10
80.55686050553564
 20
12.000294306887778
 10
80.70695592077469
 20
12.00029512831907
 10
80.85705133601378
 20
12.000295949750361
 10
81.00714675125269
 20
12.00029677118165
 10
81.1572421664918
 20
12.000297592612943
 10
81.30733758173072
 20
12.000298414044234
 10
81.45743299696974
 20
12.000299235475524
 10
81.60752841220874
 20
12.000300056906815
 10
81.75762382744766
 20
12.000300878338107
 10
81.90771926114083
 20
12.000301710849023
 10
82.05781469670282
 20
12.000302555561618
 10
82.20791011194169
 20
12.000303400274102
 10
82.35800552718061
 20
12.000304244986584
 10
82.50810094241942
 20
12.000305089699069
 10
82.65819635765828
 20
12.00030593441155
 10
82.8082917728972
 20
12.000306779124035
 10
82.95838718813602
 20
12.000307623836516
 10
83.10848260337488
 20
12.000308468549001
 10
83.25857801861369
 20
12.00030931326148
 10
83.40867343385273
 20
12.000310157973967
 10
83.55876884909148
 20
12.000311002686447
 10
83.7088642643304
 20
12.000311847398933
 10
83.85895967956932
 20
12.000312692111413
 10
84.00905509480813
 20
12.0003135368239
 10
84.159150510047
 20
12.000314381536379
 10
84.30924592528581
 20
12.000315226248865
 10
84.45934134052473
 20
12.000316070961349
 10
84.6094367557636
 20
12.000316915673832
 10
84.75953217100252
 20
12.000317760386315
 10
84.90962758624133
 20
12.000318605098794
 10
85.0597230014802
 20
12.00031944981128
 10
85.209818416719
 20
12.00032029452376
 10
85.35991383195793
 20
12.000321139236247
 10
85.51000924719679
 20
12.000321983948727
 10
85.66010466243571
 20
12.000322828661213
 10
85.81020010129207
 20
12.000323687553374
 10
85.96029551702179
 20
12.000324546740211
 10
86.11039093226067
 20
12.000325405927049
 10
86.26048634749935
 20
12.000326265113879
 10
86.41058176273822
 20
12.000327124300712
 10
86.56067717797704
 20
12.00032798348755
 10
86.71077259321578
 20
12.000328842674385
 10
86.86086800845447
 20
12.000329701861219
 10
87.01096342369334
 20
12.000330561048054
 10
87.16105883893216
 20
12.000331420234891
 10
87.3111542541709
 20
12.000332279421725
 10
87.46124966940971
 20
12.000333138608559
 10
87.61134508464846
 20
12.000333997795392
 10
87.76144049988727
 20
12.000334856982228
 10
87.91153591512602
 20
12.000335716169062
 10
88.06163133036483
 20
12.000336575355895
 10
88.2117267456036
 20
12.000337434542732
 10
88.3618221608424
 20
12.000338293729568
 10
88.51191757608115
 20
12.000339152916402
 10
88.66201299131997
 20
12.000340012103239
 10
88.8121084065587
 20
12.000340871290074
 10
88.96220382179752
 20
12.000341730476904
 10
89.11229923703627
 20
12.000342589663738
 10
89.26239465227509
 20
12.000343448850575
 10
89.41249006751389
 20
12.000344308037409
 10
89.56258548739879
 20
12.000345170013725
 10
89.71268090760341
 20
12.0003460349715
 10
89.86277632284217
 20
12.000346899929244
 10
90.01287173808097
 20
12.000347764886994
 10
90.16296715331973
 20
12.000348629844739
 10
90.31306256855854
 20
12.000349494802485
 10
90.46315798379723
 20
12.000350359760233
 10
90.61325339903598
 20
12.000351224717981
 10
90.76334881427468
 20
12.000352089675728
 10
90.91344422951354
 20
12.000352954633478
 10
91.06353964475224
 20
12.000353819591222
 10
91.21363505999099
 20
12.000354684548967
 10
91.36373047522969
 20
12.000355549506716
 10
91.5138258904685
 20
12.000356414464461
 10
91.66392130570725
 20
12.00035727942221
 10
91.81401672094594
 20
12.000358144379959
 10
91.96411213618481
 20
12.000359009337705
 10
92.1142075514235
 20
12.00035987429545
 10
92.2643029666622
 20
12.0003607392532
 10
92.41439838190095
 20
12.000361604210944
 10
92.56449379713976
 20
12.000362469168692
 10
92.71458921237851
 20
12.000363334126442
 10
92.86468462761721
 20
12.000364199084187
 10
93.01478004285602
 20
12.000365064041933
 10
93.16487545809477
 20
12.000365928999678
 10
93.31497087074482
 20
12.000366793957411
 10
93.46506628376781
 20
12.0003676560306
 10
93.6151616989437
 20
12.00036851806609
 10
93.76525711418256
 20
12.00036938010158
 10
93.91535252942126
 20
12.00037024213707
 10
94.06544794466001
 20
12.00037110417256
 10
94.21554335989876
 20
12.00037196620805
 10
94.36563877513757
 20
12.000372828243536
 10
94.51573419037632
 20
12.000373690279027
 10
94.66582960561513
 20
12.000374552314517
 10
94.81592502085388
 20
12.000375414350007
 10
94.96602043609258
 20
12.0003762763855
 10
95.11611585133144
 20
12.000377138420987
 10
95.26621126657014
 20
12.000378000456477
 10
95.416306681809
 20
12.000378862491967
 10
95.56640209704776
 20
12.000379724527459
 10
95.71649751228645
 20
12.000380586562944
 10
95.86659292752532
 20
12.000381448598436
 10
96.01668834276401
 20
12.000382310633926
 10
96.16678375800277
 20
12.000383172669416
 10
96.31687917324157
 20
12.00038403470491
 10
96.46697458848033
 20
12.000384896740396
 10
96.61707000371908
 20
12.000385758775886
 10
96.76716541895789
 20
12.000386620811376
 10
96.91726083419664
 20
12.000387482846866
 10
97.06735624498975
 20
12.000388344882332
 10
97.21745165017413
 20
12.000389201216606
 10
97.36754706056632
 20
12.000390051636645
 10
97.51764247580513
 20
12.000390902056706
 10
97.66773789104394
 20
12.000391752476771
 10
97.81783330628275
 20
12.000392602896833
 10
97.96792872152167
 20
12.0003934533169
 10
98.11802413676048
 20
12.000394303736961
 10
98.26811955199929
 20
12.000395154157022
 10
98.4182149672381
 20
12.000396004577084
 10
98.56831038247697
 20
12.00039685499715
 10
98.71840579771589
 20
12.000397705417212
 10
98.8685012129547
 20
12.000398555837277
 10
99.0185966281935
 20
12.000399406257344
 10
99.16869204343243
 20
12.000400256677406
 10
99.31878745867112
 20
12.00040110709747
 10
99.46888287391005
 20
12.000401957517532
 10
99.61897828914886
 20
12.000402807937595
 10
99.76907370438767
 20
12.000403658357657
 10
99.91916911962659
 20
12.000404508777722
 10
100.0692645348654
 20
12.000405359197783
 10
100.2193599501042
 20
12.00040620961785
 10
100.36945536534301
 20
12.000407060037912
 10
100.51955078058182
 20
12.000407910457977
 10
100.66964619582075
 20
12.000408760878042
 10
100.81974161105956
 20
12.000409611298103
 10
100.96983700869373
 20
12.000410461718067
 10
101.1199324063387
 20
12.000411291005413
 10
101.27002782138504
 20
12.0004121201772
 10
101.42012323662397
 20
12.000412949348988
 10
101.5702186518629
 20
12.00041377852078
 10
101.72031406710187
 20
12.00041460769257
 10
101.87040948234079
 20
12.000415436864357
 10
102.02050489757971
 20
12.000416266036142
 10
102.17060031281869
 20
12.000417095207931
 10
102.32069572805763
 20
12.000417924379724
 10
102.47079114329665
 20
12.00041875355151
 10
102.62088655853563
 20
12.0004195827233
 10
102.77098197377455
 20
12.000420411895087
 10
102.92107738901348
 20
12.000421241066872
 10
103.07117280425246
 20
12.000422070238661
 10
103.22126821949139
 20
12.000422899410454
 10
103.3713636347303
 20
12.000423728582241
 10
103.52145904996934
 20
12.00042455775403
 10
103.67155446520832
 20
12.000425386925818
 10
103.82164988044724
 20
12.000426216097603
 10
103.97174529568618
 20
12.000427045269396
 10
104.12184071092514
 20
12.000427874441183
 10
104.27193612616406
 20
12.000428703612972
 10
104.42203154140299
 20
12.00042953278476
 10
104.57212695664197
 20
12.000430361956548
 10
104.72222237188089
 20
12.000431191128333
 10
104.87231778711983
 20
12.000432020300126
 10
105.02241318450098
 20
12.000432849471816
 10
105.17250857333178
 20
12.00043365715244
 10
105.32260397997304
 20
12.00043445458557
 10
105.47269939521215
 20
12.000435252018747
 10
105.62279481045128
 20
12.000436049451922
 10
105.77289022569038
 20
12.000436846885098
 10
105.92298564092947
 20
12.000437644318271
 10
106.07308105616852
 20
12.00043844175145
 10
106.0975852522424
 20
12.001642382133724
 10
106.12185344831647
 20
12.005242348380994
 10
106.14565192997588
 20
12.011203671084692
 10
106.1687515063818
 20
12.019468939836427
 10
106.19092971748952
 20
12.029958556117876
 10
106.2119729764459
 20
12.042571499872839
 10
106.23167862653355
 20
12.057186302379034
 10
106.24985689285256
 20
12.07366221605038
 10
106.26633270994438
 20
12.091840569904038
 10
106.2809474077562
 20
12.111546297638379
 10
106.29356023971026
 20
12.132589623605774
 10
106.30404973816093
 20
12.154767890443479
 10
106.3123148841868
 20
12.177867510761617
 10
106.31827608045145
 20
12.201666024092612
 10
106.32187591776417
 20
12.225934239292604
 10
106.32307972795809
 20
12.250438441762553
 10
106.32307972794922
 20
12.401957634580242
 10
106.32307972794922
 20
13.15955135448886
 10
106.32307972794928
 20
13.311070098473577
 10
106.32307972794928
 20
14.674738794335646
 10
106.32307972794933
 20
14.826257538320347
 10
106.32307972794933
 20
16.341444978167132
 10
106.32307972794939
 20
16.492963722151764
 10
106.32307972794939
 20
17.25058532898197
 10
118.32307972795809
 20
17.25058532898197
 10
118.32307972795809
 20
0.0
 10
0.0
 20
0.0
  0
TEXT
  5
34
330
17
100
AcDbEntity
  8
LABEL
100
AcDbText
 10
2.0
 20
5.0
 30
0.0
 40
2.2
  1
T03A TOOL ONLY
100
AcDbText
  0
LWPOLYLINE
  5
35
330
17
100
AcDbEntity
  8
CUT_TOOL
100
AcDbPolyline
 90
681
 70
1
 10
0.0
 20
42.50117065796394
 10
118.32307972795809
 20
42.50117065796394
 10
118.32307972795809
 20
25.25058532898197
 10
106.32307972794939
 20
25.25058532898197
 10
106.32307972794939
 20
25.85663241801392
 10
106.32307972794945
 20
26.008151161998576
 10
106.32307972794945
 20
27.523338601845346
 10
106.3230797279495
 20
27.674857345830038
 10
106.3230797279495
 20
29.03852604169213
 10
106.32307972794956
 20
29.190044785676825
 10
106.32307972794956
 20
30.09915724957785
 10
106.32307972795388
 20
30.250672922642643
 10
106.32187591631872
 20
30.275177139738442
 10
106.31827607471146
 20
30.29944536914097
 10
106.31231487138183
 20
30.32324389583473
 10
106.30404971565727
 20
30.346343528272925
 10
106.29356020506285
 20
30.36852180560505
 10
106.28094735875783
 20
30.38956514008457
 10
106.26633264467137
 20
30.409270874024266
 10
106.24985680970644
 20
30.42744923148965
 10
106.23167852427775
 20
30.443925145934827
 10
106.2119728542375
 20
30.458539946179627
 10
106.19092957490476
 20
30.47115288449133
 10
106.16875134343566
 20
30.481642492054725
 10
106.14565174713505
 20
30.489907748776673
 10
106.12185324650541
 20
30.495869056159467
 10
106.09758503284255
 20
30.499469003873564
 10
106.07308082101034
 20
30.500672922647382
 10
105.77288999053067
 20
30.500674235149496
 10
105.6227945752909
 20
30.50067489140055
 10
105.47269916005108
 20
30.500675547651607
 10
105.32260374481125
 20
30.500676203902664
 10
105.17250832957146
 20
30.500676860153717
 10
105.02241294133103
 20
30.50067752358831
 10
104.8723175361474
 20
30.500678202086718
 10
104.7222221209077
 20
30.500678880585184
 10
104.57212670566797
 20
30.500679559083643
 10
104.27193587518855
 20
30.500680916080565
 10
104.12184045994888
 20
30.500681594579028
 10
103.97174504470917
 20
30.500682273077494
 10
103.82164962946943
 20
30.50068295157595
 10
103.52145879899001
 20
30.500684308572872
 10
103.37136338375029
 20
30.500684987071335
 10
103.22126796851057
 20
30.500685665569797
 10
103.07117255327091
 20
30.500686344068257
 10
102.92107713803118
 20
30.500687022566716
 10
102.77098172279148
 20
30.500687701065182
 10
102.62088630755176
 20
30.50068837956364
 10
102.47079089231202
 20
30.5006890580621
 10
102.32069547707232
 20
30.500689736560563
 10
102.17060006183264
 20
30.500690415059022
 10
102.02050464659294
 20
30.500691093557485
 10
101.87040923135321
 20
30.500691772055944
 10
101.7203138161135
 20
30.500692450554407
 10
101.57021840087377
 20
30.500693129052866
 10
101.42012298563407
 20
30.50069380755133
 10
101.27002757514558
 20
30.500694486049774
 10
101.11993217531383
 20
30.50069517665132
 10
100.9698367643021
 20
30.500695869791286
 10
100.81974134906244
 20
30.500696562931275
 10
100.66964593382278
 20
30.500697256071263
 10
100.51955051858317
 20
30.50069794921125
 10
100.36945510334351
 20
30.50069864235124
 10
100.21935968810385
 20
30.50069933549122
 10
100.06926427286425
 20
30.500700028631208
 10
99.91916885762458
 20
30.500700721771196
 10
99.76907344238492
 20
30.500701414911184
 10
99.61897802714532
 20
30.500702108051172
 10
99.318787196666
 20
30.500703494331148
 10
99.16869178142639
 20
30.50070418747113
 10
99.01859636618673
 20
30.50070488061112
 10
98.86850095094707
 20
30.50070557375111
 10
98.71840553570746
 20
30.500706266891097
 10
98.5683101204678
 20
30.50070696003108
 10
98.41821470522814
 20
30.50070765317107
 10
98.26811928998853
 20
30.500708346311058
 10
98.11802387474887
 20
30.50070903945104
 10
97.96792845950921
 20
30.50070973259103
 10
97.8178330442696
 20
30.500710425731018
 10
97.66773762902994
 20
30.500711118871006
 10
97.51764221379028
 20
30.50071181201099
 10
97.36754680245718
 20
30.500712507496353
 10
97.06735597989622
 20
30.500713907975012
 10
96.91726056465656
 20
30.500714608214363
 10
96.76716514941695
 20
30.500715308453714
 10
96.61706973417733
 20
30.50071600869306
 10
96.46697431893774
 20
30.500716708932416
 10
95.86659265797933
 20
30.500719509889812
 10
95.71649724273972
 20
30.500720210129163
 10
95.5664018275001
 20
30.500720910368507
 10
95.41630641226051
 20
30.50072161060786
 10
95.26621099702085
 20
30.50072231084721
 10
95.11611558178124
 20
30.500723011086563
 10
94.96602016654163
 20
30.50072371132591
 10
94.81592475130203
 20
30.50072441156526
 10
94.66582933606243
 20
30.500725111804613
 10
94.21554309034362
 20
30.50072721252266
 10
94.06544767510401
 20
30.50072791276201
 10
93.91535225986439
 20
30.500728613001357
 10
93.76525684462474
 20
30.500729313240704
 10
93.61516142938514
 20
30.50073001348006
 10
93.46506601414553
 20
30.500730713719406
 10
93.31497059888022
 20
30.50073141394332
 10
93.01477976643957
 20
30.50073281203595
 10
92.86468435119998
 20
30.50073351108226
 10
92.71458893596031
 20
30.50073421012857
 10
92.5644935207207
 20
30.500734909174877
 10
92.41439810548111
 20
30.50073560822119
 10
92.11420727500189
 20
30.500737006313805
 10
91.96411185976223
 20
30.500737705360116
 10
91.81401644452262
 20
30.500738404406423
 10
91.66392102928302
 20
30.50073910345273
 10
91.51382561404341
 20
30.50073980249904
 10
91.36373019880381
 20
30.50074050154535
 10
91.21363478356415
 20
30.500741200591662
 10
91.06353936832454
 20
30.50074189963797
 10
90.91344395308494
 20
30.50074259868428
 10
90.61325312260573
 20
30.500743996776897
 10
90.46315770736607
 20
30.500744695823208
 10
90.31306229212646
 20
30.50074539486952
 10
90.16296687688686
 20
30.500746093915822
 10
90.01287146164725
 20
30.500746792962133
 10
89.71268063116804
 20
30.50074819105475
 10
89.5625852159284
 20
30.500748890101065
 10
89.41248980068877
 20
30.50074958914737
 10
89.26239438544917
 20
30.50075028819368
 10
89.11229895871276
 20
30.500750980337603
 10
88.96220353843991
 20
30.50075166945966
 10
88.81210812320023
 20
30.500752358581686
 10
88.6620127079606
 20
30.500753047703725
 10
88.51191729272091
 20
30.50075373682575
 10
88.36182187748128
 20
30.500754425947786
 10
88.21172646224159
 20
30.500755115069815
 10
88.06163104700194
 20
30.500755804191847
 10
87.91153563176226
 20
30.50075649331388
 10
87.76144021652262
 20
30.500757182435912
 10
87.61134480128294
 20
30.500757871557944
 10
87.46124938604329
 20
30.500758560679976
 10
87.31115397080363
 20
30.50075924980201
 10
87.16105855556395
 20
30.50075993892404
 10
87.01096314032431
 20
30.500760628046073
 10
86.86086772508463
 20
30.500761317168102
 10
86.71077230984498
 20
30.500762006290138
 10
86.56067689460531
 20
30.500762695412167
 10
86.41058147936566
 20
30.5007633845342
 10
86.26048606412598
 20
30.500764073656228
 10
86.11039064888635
 20
30.500764762778267
 10
85.96029523364666
 20
30.500765451900293
 10
85.81019981840703
 20
30.50076614102233
 10
85.66010440316734
 20
30.500766830144357
 10
85.51000898792769
 20
30.50076751926639
 10
85.35991357268803
 20
30.500768208388422
 10
85.20981815744835
 20
30.500768897510454
 10
85.05972272910248
 20
30.500769578763837
 10
84.90962729230415
 20
30.500770247073866
 10
84.75953187706436
 20
30.500770915383793
 10
84.60943646182464
 20
30.50077158369372
 10
84.45934104658488
 20
30.50077225200365
 10
84.30924563134509
 20
30.500772920313576
 10
84.15915021610537
 20
30.500773588623503
 10
84.00905480086561
 20
30.500774256933433
 10
83.85895938562582
 20
30.500774925243363
 10
83.7088639703861
 20
30.500775593553286
 10
83.55876855514634
 20
30.500776261863216
 10
83.40867313990655
 20
30.500776930173146
 10
83.25857772466684
 20
30.50077759848307
 10
83.10848230942707
 20
30.500778266793
 10
82.95838689418729
 20
30.500778935102925
 10
82.80829147894757
 20
30.50077960341285
 10
82.6581960637078
 20
30.500780271722782
 10
82.50810064846802
 20
30.50078094003271
 10
82.3580052332283
 20
30.500781608342635
 10
82.20790981798854
 20
30.500782276652565
 10
82.05781440274875
 20
30.50078294496249
 10
81.90771898750903
 20
30.500783613272418
 10
81.75762357226925
 20
30.500784281582348
 10
81.60752815702948
 20
30.500784949892275
 10
81.45743274178976
 20
30.5007856182022
 10
81.30733732654998
 20
30.50078628651213
 10
81.15724191131021
 20
30.500786954822054
 10
81.00714649153528
 20
30.500787620409145
 10
80.85705100606091
 20
30.500788243829092
 10
80.70695559082095
 20
30.50078886724873
 10
80.55686017558101
 20
30.500789490668364
 10
80.40676476034108
 20
30.500790114088005
 10
80.25666934510112
 20
30.500790737507646
 10
80.10657392986117
 20
30.500791360927288
 10
79.95647851462122
 20
30.500791984346925
 10
79.80638309938128
 20
30.500792607766563
 10
79.65628768414133
 20
30.500793231186204
 10
79.50619226890139
 20
30.50079385460584
 10
79.35609685366144
 20
30.500794478025476
 10
79.20600143842151
 20
30.50079510144512
 10
79.05590602318155
 20
30.50079572486476
 10
78.9058106079416
 20
30.500796348284396
 10
78.60561977746171
 20
30.50079759512368
 10
78.45552436222171
 20
30.500798218543316
 10
78.30542894698182
 20
30.500798841962954
 10
78.15533353174182
 20
30.500799465382595
 10
78.00523811650193
 20
30.500800088802237
 10
77.85514270126193
 20
30.50080071222187
 10
77.70504728602198
 20
30.500801335641512
 10
77.55495187078203
 20
30.50080195906115
 10
77.40485645554209
 20
30.500802582480787
 10
77.25476104030214
 20
30.50080320590043
 10
77.1046656250622
 20
30.50080382932007
 10
76.95457020982225
 20
30.500804452739708
 10
76.80447470685743
 20
30.500805023491427
 10
76.65437926131011
 20
30.500805576047085
 10
76.50428384606994
 20
30.500806128602633
 10
76.3541884308297
 20
30.500806681158174
 10
76.20409301558942
 20
30.500807233713722
 10
76.05399760034925
 20
30.50080778626927
 10
75.903902185109
 20
30.50080833882481
 10
75.75380676986879
 20
30.50080889138036
 10
75.60371135462854
 20
30.5008094439359
 10
75.45361593938833
 20
30.500809996491448
 10
75.3035205241481
 20
30.500810549046996
 10
75.15342510890785
 20
30.500811101602537
 10
75.00332969366764
 20
30.500811654158085
 10
74.8532342784274
 20
30.500812206713626
 10
74.70313886318718
 20
30.500812759269174
 10
74.55304344794695
 20
30.50081331182472
 10
74.4029480327067
 20
30.500813864380262
 10
74.25285261746649
 20
30.50081441693581
 10
74.10275720222624
 20
30.50081496949135
 10
73.95266178698608
 20
30.5008155220469
 10
73.80256637174585
 20
30.500816074602444
 10
73.65247095650562
 20
30.500816627157988
 10
73.50237554126534
 20
30.500817179713536
 10
73.35228012602515
 20
30.500817732269077
 10
73.20218471078493
 20
30.500818284824625
 10
73.05208925996718
 20
30.50081881602027
 10
72.60180290576461
 20
30.500820214217157
 10
72.4517074905241
 20
30.500820680282658
 10
72.15151666004307
 20
30.500821612413674
 10
72.00142124480256
 20
30.50082207847918
 10
71.70123041432153
 20
30.500823010610198
 10
71.55113499908096
 20
30.500823476675702
 10
71.40103958384044
 20
30.500823942741214
 10
71.25094416859993
 20
30.500824408806714
 10
70.35037167715684
 20
30.500827205199762
 10
70.20027626191633
 20
30.500827671265267
 10
70.05018084667581
 20
30.500828137330775
 10
69.90008543143524
 20
30.500828603396283
 10
69.74998995411188
 20
30.500829032188634
 10
69.59989444299264
 20
30.50082940341737
 10
69.29970361251105
 20
30.50083014587434
 10
69.14960819727025
 20
30.50083051710282
 10
68.99951278202951
 20
30.500830888331308
 10
68.8494173667887
 20
30.500831259559785
 10
68.69932195154792
 20
30.50083163078827
 10
68.54922653630712
 20
30.500832002016757
 10
68.39913112106638
 20
30.500832373245238
 10
68.24903570582558
 20
30.50083274447372
 10
68.09894029058478
 20
30.5008331157022
 10
67.94884487534398
 20
30.500833486930688
 10
67.79874946010324
 20
30.50083385815917
 10
67.64865404486243
 20
30.50083422938765
 10
67.34846321438084
 20
30.50083497184462
 10
67.1983677991401
 20
30.5008353430731
 10
67.0482723838993
 20
30.500835714301584
 10
66.8981769686585
 20
30.500836085530064
 10
66.7480814925059
 20
30.500836420188392
 10
66.5979859690936
 20
30.500836689902748
 10
66.44789055385262
 20
30.50083695961688
 10
66.2977951386116
 20
30.50083722933102
 10
66.14769972337062
 20
30.50083749904515
 10
65.99760430812961
 20
30.50083776875929
 10
65.84750889288863
 20
30.500838038473418
 10
65.54731806240657
 20
30.50083857790169
 10
65.39722264716562
 20
30.500838847615825
 10
65.24712723192458
 20
30.500839117329956
 10
65.09703181668363
 20
30.500839387044095
 10
64.94693640144258
 20
30.500839656758227
 10
64.79684098620163
 20
30.500839926472366
 10
64.64674557096059
 20
30.500840196186495
 10
64.49665015571958
 20
30.500840465900634
 10
64.3465547404786
 20
30.500840735614766
 10
64.19645932523758
 20
30.5008410053289
 10
64.04636388275823
 20
30.50084125868969
 10
63.896268311495376
 20
30.500841418378073
 10
63.74617289625424
 20
30.500841578066243
 10
63.59607748101304
 20
30.500841737754417
 10
63.4459820657719
 20
30.500841897442587
 10
63.29588665053076
 20
30.50084205713076
 10
63.145791235289565
 20
30.50084221681893
 10
62.845600404807286
 20
30.50084253619527
 10
62.69550498956609
 20
30.500842695883446
 10
62.54540957432495
 20
30.50084285557162
 10
62.39531415908381
 20
30.50084301525979
 10
62.24521874384263
 20
30.500843174947967
 10
62.095123328601474
 20
30.50084333463613
 10
61.945027913360335
 20
30.5008434943243
 10
61.79493249811915
 20
30.500843654012478
 10
61.49474166763686
 20
30.500843973388818
 10
61.34464625239568
 20
30.500844133076995
 10
61.19455078760839
 20
30.500844263018656
 10
61.04445536903695
 20
30.500844390960822
 10
60.74426453855456
 20
30.500844646845152
 10
60.594169123313364
 20
30.500844774787325
 10
60.44407370807217
 20
30.50084490272949
 10
60.29397829283097
 20
30.500845030671655
 10
60.143882877589775
 20
30.50084515861382
 10
59.99378746234859
 20
30.500845286555993
 10
59.84369204710744
 20
30.50084541449816
 10
59.39340580138385
 20
30.500845798324654
 10
59.24331038614265
 20
30.500845926266823
 10
58.793024140419064
 20
30.50084631009332
 10
58.64292872517794
 20
30.500846438035488
 10
58.192642479454335
 20
30.500846821861984
 10
58.04254706421315
 20
30.500846949804156
 10
57.742356233730746
 20
30.500847205688487
 10
57.59226090109935
 20
30.50084733363058
 10
57.44216567332879
 20
30.50084756075754
 10
57.2920703628251
 20
30.500847913732933
 10
57.141974947584245
 20
30.50084826670858
 10
56.99187953234345
 20
30.500848619684227
 10
56.84178411710259
 20
30.500848972659874
 10
56.69168870186179
 20
30.500849325635514
 10
56.54159328662094
 20
30.50084967861116
 10
56.39149787138008
 20
30.500850031586804
 10
56.24140251418201
 20
30.500850384562312
 10
56.09130727944802
 20
30.50085080937297
 10
55.94121198287628
 20
30.50085137681515
 10
55.79111656763605
 20
30.50085194425777
 10
55.64102115239595
 20
30.5008525117004
 10
55.34083032191559
 20
30.500853646585657
 10
55.19073491976863
 20
30.500854214028237
 10
55.04063970559291
 20
30.500854793785805
 10
54.89054448399344
 20
30.50085560606133
 10
54.74044906875436
 20
30.500856418337904
 10
54.59035365351531
 20
30.500857230614475
 10
54.440258238276286
 20
30.50085804289105
 10
54.290162823037235
 20
30.50085885516762
 10
53.989972175591944
 20
30.500860479719776
 10
53.83987699856054
 20
30.500861511758767
 10
53.68978164015934
 20
30.500862611062423
 10
53.539686224922136
 20
30.500863710366502
 10
53.38959080968492
 20
30.50086480967058
 10
53.23949539444769
 20
30.500865908974653
 10
53.089399979210484
 20
30.500867008278732
 10
52.9393046764167
 20
30.500868107581983
 10
52.789209490682
 20
30.500869340527856
 10
52.63911419627679
 20
30.50087071767218
 10
52.48901878104185
 20
30.50087209481761
 10
52.338923365806906
 20
30.50087347196304
 10
52.18882795057196
 20
30.500874849108477
 10
52.038732535337076
 20
30.500876226253908
 10
51.8886371621077
 20
30.500877603398955
 10
51.73854195179622
 20
30.500879029229807
 10
51.58844670262458
 20
30.500880654324654
 10
51.43835128739214
 20
30.5008822794213
 10
51.288255872159695
 20
30.500883904517952
 10
51.13816045692725
 20
30.5008855296146
 10
50.98806504169481
 20
30.50088715471125
 10
50.83796962646237
 20
30.500888779807894
 10
50.687874394875706
 20
30.50089040490256
 10
50.53777918575764
 20
30.500892251037918
 10
50.38768378459186
 20
30.500894118581392
 10
50.23758836936226
 20
30.50089598612505
 10
50.08749295413264
 20
30.500897853668704
 10
49.937397538903
 20
30.500899721212356
 10
49.7873021236734
 20
30.50090158875601
 10
49.63720670844373
 20
30.50090345629966
 10
49.48711129321414
 20
30.50090532384332
 10
49.33701602877909
 20
30.500907191385096
 10
49.18692080168496
 20
30.5009092408274
 10
49.036825423479186
 20
30.500911334083156
 10
48.88673000825254
 20
30.500913427339434
 10
48.7366345930259
 20
30.500915520595708
 10
48.58653917779925
 20
30.500917613851982
 10
48.43644376257261
 20
30.50091970710826
 10
48.286348347345964
 20
30.500921800364537
 10
48.136252932119305
 20
30.500923893620808
 10
47.98615762886753
 20
30.500925986875522
 10
47.83606237536078
 20
30.50092821551229
 10
47.68596700854057
 20
30.500930502148606
 10
47.53587159331671
 20
30.50093278878566
 10
47.38577617809291
 20
30.500935075422714
 10
47.23568076286911
 20
30.50093736205977
 10
47.08558534764525
 20
30.500939648696825
 10
46.93548993242145
 20
30.500941935333877
 10
46.78539451719759
 20
30.500944221970933
 10
46.635299101973786
 20
30.500946508607992
 10
46.48520368674998
 20
30.500948795245048
 10
46.3351083773604
 20
30.500951081880487
 10
46.18501309148006
 20
30.500953494642236
 10
46.034917712814334
 20
30.500955944421165
 10
45.88482229759309
 20
30.500958394200687
 10
45.734726882371845
 20
30.500960843980213
 10
45.584631467150544
 20
30.50096329375974
 10
45.4345360519293
 20
30.50096574353926
 10
45.13434522148681
 20
30.500970643098313
 10
44.98424980626557
 20
30.500973092877835
 10
44.83415439104432
 20
30.500975542657358
 10
44.68405897582308
 20
30.500977992436887
 10
44.53396356060182
 20
30.50098044221641
 10
44.38386814538053
 20
30.500982891995932
 10
44.23377273015929
 20
30.500985341775458
 10
44.08367737766092
 20
30.500987804639465
 10
43.933582006660046
 20
30.500990318624268
 10
43.783486591439896
 20
30.50099283260981
 10
43.63339117621966
 20
30.500995346595353
 10
43.48329576099951
 20
30.500997860580902
 10
43.333200345779346
 20
30.501000374566445
 10
43.18310493055911
 20
30.501002888551987
 10
43.03300951533896
 20
30.501005402537533
 10
42.882914100118725
 20
30.501007916523076
 10
42.732818684898575
 20
30.50101043050862
 10
42.582723269678354
 20
30.501012944494164
 10
42.43262785445819
 20
30.501015458479714
 10
42.28253243923797
 20
30.50101797246526
 10
41.98234160879764
 20
30.501023000436348
 10
41.83224619357742
 20
30.501025514421894
 10
41.68215077835718
 20
30.501028028407436
 10
41.53205536313703
 20
30.501030542392982
 10
41.38195994791687
 20
30.501033056378525
 10
41.23186453269665
 20
30.50103557036407
 10
41.08176911747648
 20
30.501038084349616
 10
40.93167370225625
 20
30.50104059833516
 10
40.7815782870361
 20
30.5010431123207
 10
40.63148287181588
 20
30.501045626306247
 10
40.48138745659571
 20
30.501048140291793
 10
40.33129204137548
 20
30.501050654277336
 10
40.181196474499345
 20
30.501053077214795
 10
40.03110099658544
 20
30.501055462511886
 10
39.88100558136317
 20
30.501057847807978
 10
39.730910166140916
 20
30.50106023310407
 10
39.58081475091858
 20
30.501062618400155
 10
39.43071933569631
 20
30.501065003696247
 10
39.280623920474056
 20
30.50106738899234
 10
39.13052850525172
 20
30.50106977428843
 10
38.98043309002945
 20
30.501072159584517
 10
38.83033767480714
 20
30.50107454488061
 10
38.68024225958486
 20
30.5010769301767
 10
38.53014684436259
 20
30.501079315472786
 10
38.38005142914028
 20
30.501081700768882
 10
38.22995571164877
 20
30.50108390459436
 10
38.07986028362542
 20
30.50108610073161
 10
37.929764868400255
 20
30.501088296868673
 10
37.779669453175075
 20
30.501090493005734
 10
37.629574037949865
 20
30.501092689142794
 10
37.4794786227247
 20
30.501094885279855
 10
37.32938320749953
 20
30.501097081416916
 10
37.0291923770492
 20
30.501101473691044
 10
36.87909696182396
 20
30.5011036698281
 10
36.729001534628054
 20
30.501105858778352
 10
36.578905761899534
 20
30.501107833096807
 10
36.4288103466713
 20
30.50110980741031
 10
36.278714931443005
 20
30.501111781723807
 10
36.12861951621477
 20
30.501113756037306
 10
35.97852410098655
 20
30.50111573035081
 10
35.82842868575824
 20
30.50111770466431
 10
35.678333270530004
 20
30.50111967897781
 10
35.52823785530171
 20
30.50112165329131
 10
35.37814244007349
 20
30.501123627604812
 10
35.228046636588985
 20
30.501125368822922
 10
35.07795119059479
 20
30.50112709156714
 10
34.927855775363426
 20
30.501128814311
 10
34.77776036013208
 20
30.501130537054863
 10
34.17737869920661
 20
30.50113742803031
 10
34.02728328397531
 20
30.501139150774176
 10
33.8771875054848
 20
30.50114065542921
 10
33.727092010925205
 20
30.501142112455586
 10
33.576996595691
 20
30.501143569481176
 10
33.42690118045685
 20
30.50114502650677
 10
33.27680576522265
 20
30.50114648353236
 10
33.1267103499885
 20
30.50114794055795
 10
32.97661493475431
 20
30.50114939758354
 10
32.82651927963836
 20
30.501150710591503
 10
32.67642365683905
 20
30.501151898982094
 10
32.5263282416025
 20
30.501153087370945
 10
32.37623282636598
 20
30.501154275759806
 10
32.22613741112943
 20
30.50115546414866
 10
32.07604199589291
 20
30.501156652537524
 10
31.92594658065636
 20
30.501157840926375
 10
31.775851040362
 20
30.50115895423407
 10
31.625755252857303
 20
30.501159844041545
 10
31.475659837618664
 20
30.50116073384654
 10
31.325564422380083
 20
30.50116162365153
 10
31.175469007141444
 20
30.50116251345652
 10
31.025373591902877
 20
30.501163403261515
 10
30.875278176664224
 20
30.501164293066505
 10
30.725182761425643
 20
30.501165182871496
 10
30.575086817144722
 20
30.501165755052696
 10
30.424991383741713
 20
30.50116631632676
 10
30.274895968501525
 20
30.501166877600745
 10
30.124800553261295
 20
30.50116743887473
 10
29.974705138021136
 20
30.501168000148724
 10
29.824609722780963
 20
30.501168561422713
 10
29.674514307540733
 20
30.501169122696705
 10
29.524418538390222
 20
30.501169471490833
 10
29.37432295824776
 20
30.501169721280426
 10
29.224227543006734
 20
30.501169971069686
 10
29.07413212776565
 20
30.501170220858945
 10
28.924036712524625
 20
30.501170470648205
 10
28.773941193226946
 20
30.50117065796394
 10
28.623845406171853
 20
30.501170622049507
 10
28.47374999093067
 20
30.50117058613489
 10
28.323654575689417
 20
30.501170550220273
 10
28.17355916044815
 20
30.501170514305652
 10
28.02346374520691
 20
30.501170478391035
 10
27.873367949411332
 20
30.501170213998
 10
27.723272410797094
 20
30.501169875533975
 10
27.57317699555624
 20
30.501169537070197
 10
27.423081580315326
 20
30.501169198606426
 10
27.27298616507447
 20
30.50116886014265
 10
27.122890594660333
 20
30.501168428515115
 10
26.972794802608462
 20
30.501167770655538
 10
26.82269938736863
 20
30.50116711279733
 10
26.672603972128854
 20
30.501166454939117
 10
26.52250855688908
 20
30.5011657970809
 10
26.372413141649247
 20
30.501165139222692
 10
26.22231726258397
 20
30.501164202888774
 10
26.07222175112976
 20
30.501163208790217
 10
25.922126335891804
 20
30.501162214692286
 10
25.62193550541589
 20
30.501160226496424
 10
25.471839875692808
 20
30.50115910362343
 10
25.3217440868428
 20
30.501157756437408
 10
25.17164867160764
 20
30.50115640925447
 10
25.0215532563724
 20
30.50115506207153
 10
24.871457841137243
 20
30.50115371488859
 10
24.721362425902015
 20
30.501152367705654
 10
24.571266455375067
 20
30.501150687128067
 10
24.421170979280262
 20
30.50114897001414
 10
24.271075564048843
 20
30.501147252900896
 10
24.120980148817367
 20
30.50114553578765
 10
23.97088473358602
 20
30.501143818674414
 10
23.820789036362058
 20
30.501141932253383
 10
23.670693258914
 20
30.501139828359726
 10
23.52059784368751
 20
30.50113772447088
 10
23.370502428460995
 20
30.501135620582033
 10
23.22040701323452
 20
30.501133516693194
 10
23.07031159800799
 20
30.501131412804348
 10
22.920190317317008
 20
30.50111377743844
 10
22.770081811634185
 20
30.501088280717017
 10
22.619917755735813
 20
30.501021545294442
 10
22.46979428862805
 20
30.50093795996711
 10
22.31964241203302
 20
30.500820424873716
 10
22.169502879054107
 20
30.500676358817365
 10
22.01936524502628
 20
30.50050688227151
 10
21.86920897821267
 20
30.500300753329604
 10
21.719086297244004
 20
30.500078192642366
 10
21.568912626586055
 20
30.49980841320692
 10
21.418801194902926
 20
30.499528960286693
 10
21.268618292111256
 20
30.49919661155132
 10
21.118501870663252
 20
30.4988515425822
 10
20.96833415150408
 20
30.498462631758816
 10
20.818200212906802
 20
30.498050324456376
 10
20.668048406049863
 20
30.497603703103827
 10
20.51789627252134
 20
30.497122550364182
 10
20.367761112640437
 20
30.496617069145785
 10
20.217590108850757
 20
30.496065460445884
 10
20.067472338532113
 20
30.495499973326957
 10
19.917285098591663
 20
30.494878302989388
 10
19.767174632682142
 20
30.494247098982257
 10
19.61700410824801
 20
30.493569618064065
 10
19.466887184370748
 20
30.49287849659143
 10
19.316741191574494
 20
30.49215582442551
 10
19.166616853227637
 20
30.491414785226194
 10
19.016490962893513
 20
30.49065428095959
 10
18.866363592523626
 20
30.48987335942743
 10
18.71625336018208
 20
30.489082376934334
 10
18.566127344646716
 20
30.48827162191616
 10
18.416027505299937
 20
30.487457022704717
 10
18.2659088514186
 20
30.486626990030185
 10
18.115812752484175
 20
30.48579528677253
 10
17.965708608190567
 20
30.484956892087894
 10
17.815614838000585
 20
30.48411813572355
 10
17.665523738581356
 20
30.48327875140695
 10
17.51543591385601
 20
30.482443035038656
 10
17.365345034810247
 20
30.481609972527536
 10
17.364054655417846
 20
30.481599479992685
 10
17.213968481366948
 20
30.479991691759157
 10
17.213562069337627
 20
30.479987007692806
 10
17.0634780777757
 20
30.47813521038405
 10
17.0517047700651
 20
30.477712346221644
 10
16.90188452215375
 20
30.468792658122823
 10
16.899382366257925
 20
30.46863109390086
 10
16.749675989431154
 20
30.45821043096902
 10
16.737396052770322
 20
30.457050637023833
 10
16.58835926030767
 20
30.439255464395025
 10
16.58406153895686
 20
30.438704496631132
 10
16.435404932413405
 20
30.418335818935986
 10
16.42593817030499
 20
30.416853348776968
 10
16.278122216679975
 20
30.390794232706593
 10
16.271461092229686
 20
30.38952654088446
 10
16.124461623545415
 20
30.359479528875788
 10
16.117679073379406
 20
30.3579947522178
 10
15.971515651352263
 20
30.32386430045181
 10
15.962622167674056
 20
30.321614756617844
 10
15.817856093143746
 20
30.282157565891797
 10
15.813621386475603
 20
30.28096323082412
 10
15.669525606183555
 20
30.23895085433252
 10
15.658527217313491
 20
30.235466889545116
 10
15.51654843756532
 20
30.186859940875916
 10
15.514258691510861
 20
30.186063614140238
 10
15.372739955477982
 20
30.13607584096122
 10
15.360682428160572
 20
30.131463335535067
 10
15.221925720071539
 20
30.074233888248397
 10
15.219248505746094
 20
30.07311145382976
 10
15.081199319948638
 20
30.014288987216858
 10
15.071640126404873
 20
30.00997675352245
 10
14.936146293384354
 20
29.945400791355034
 10
14.93136408663031
 20
29.943058785418476
 10
14.797322597114373
 20
29.875634936138596
 10
14.790149762114083
 20
29.871880202087404
 10
14.658316299973876
 20
29.80012665209461
 10
14.65153338630509
 20
29.79629672466728
 10
14.522045420221588
 20
29.72049781049395
 10
14.517152353159673
 20
29.71755802188582
 10
14.389383304377105
 20
29.638794427188543
 10
14.380708561173492
 20
29.633196428834815
 10
14.25633430524232
 20
29.549247530069398
 10
14.253615670015705
 20
29.54738634008246
 10
14.130324981118548
 20
29.461782369919234
 10
14.119879754184467
 20
29.454121428446456
 10
14.001198752681546
 20
29.362254230021982
 10
13.99919695387311
 20
29.360688364789166
 10
13.88146567650594
 20
29.267627084384696
 10
13.872026079513489
 20
29.25978141850946
 10
13.758985390061184
 20
29.161037121435687
 10
13.755734859426099
 20
29.158147455694206
 10
13.644467328033357
 20
29.05748620875289
 10
13.637274850603944
 20
29.05071620408316
 10
13.530033650117502
 20
28.945702116482153
 10
13.52509805255147
 20
28.940731673557373
 10
13.42088374823237
 20
28.832798601971927
 10
13.4158805869547
 20
28.827462859178638
 10
13.314827031367884
 20
28.716481723035116
 10
13.308585658433032
 20
28.709360842755068
 10
13.211841216337149
 20
28.594672649935305
 10
13.208895431315256
 20
28.591114301449174
 10
13.11425348883293
 20
28.47461736415207
 10
13.10701467390291
 20
28.46526319495346
 10
13.018005853579467
 20
28.344443350159597
 10
13.016537872018233
 20
28.342429786170975
 10
12.928725247080052
 20
28.2207114623005
 10
12.921294741183345
 20
28.209817510435485
 10
12.84001830614855
 20
28.083632032727174
 10
12.83847250135824
 20
28.081201452836414
 10
12.75867488180944
 20
27.9541190207184
 10
12.753218600101064
 20
27.945005207898998
 10
12.678873206736426
 20
27.814615805868396
 10
12.676325214739649
 20
27.81003615376541
 10
12.604753840115706
 20
27.678162089040974
 10
12.600981291420652
 20
27.67093212377875
 10
12.533726175745102
 20
27.53674798502939
 10
12.53043348161168
 20
27.52992221143961
 10
12.467298479666226
 20
27.393808725392883
 10
12.464936306624622
 20
27.38855855188822
 10
12.404931368123357
 20
27.25097933459179
 10
12.40114510020129
 20
27.241805431880383
 10
12.346662710105875
 20
27.101990746440837
 10
12.345450376423315
 20
27.098815996630137
 10
12.292859342433957
 20
26.958235710599823
 10
12.288831223599772
 20
26.94660320944053
 10
12.243228836890495
 20
26.80361927301709
 10
12.242518277931708
 20
26.80135426064053
 10
12.198276744609927
 20
26.6579473980736
 10
12.194986893490238
 20
26.646287749550133
 10
12.157739910907594
 20
26.500887281996093
 10
12.15683547572678
 20
26.497243025132263
 10
12.121786776537817
 20
26.351342587908718
 10
12.119681751115138
 20
26.34175474756403
 10
12.090379077032594
 20
26.194547455054256
 10
12.089232900062967
 20
26.18838720414059
 10
12.06363832706839
 20
26.040547216355034
 10
12.062472862690669
 20
26.033159397411307
 10
12.041304201291979
 20
25.884564237829892
 10
12.040207799949115
 20
25.875748914308925
 10
12.024337425918958
 20
25.726549352618335
 10
12.023851666937986
 20
25.721495200947505
 10
12.011009984091658
 20
25.57195014132294
 10
12.010284964032678
 20
25.560348248824955
 10
12.004410259826955
 20
25.410404020386416
 10
12.004322282818919
 20
25.407815939361903
 10
12.0
 20
25.2577827765855
 10
12.000000003819196
 20
25.25058532898197
 10
0.0
 20
25.25058532898197
  0
TEXT
  5
36
330
17
100
AcDbEntity
  8
LABEL
100
AcDbText
 10
2.0
 20
37.50117065796394
 30
0.0
 40
2.2
  1
T03B TOOL ONLY
100
AcDbText
  0
LWPOLYLINE
  5
37
330
17
100
AcDbEntity
  8
CAD_OUTER
100
AcDbPolyline
 90
1354
 70
1
 10
106.07307972795388
 20
22.25067292264977
 10
105.92298431271405
 20
22.250673578900827
 10
105.77288889747422
 20
22.250674235151884
 10
105.62279348223444
 20
22.250674891402937
 10
105.47269806699461
 20
22.250675547653994
 10
105.32260265175478
 20
22.25067620390505
 10
105.172507236515
 20
22.250676860156105
 10
105.02241182127523
 20
22.250677523590817
 10
104.87231640603551
 20
22.250678202089272
 10
104.72222099079579
 20
22.250678880587735
 10
104.57212557555607
 20
22.250679559086194
 10
104.42203016031635
 20
22.250680237584657
 10
104.27193474507663
 20
22.25068091608312
 10
104.12183932983697
 20
22.25068159458158
 10
103.97174391459725
 20
22.250682273080045
 10
103.82164849935754
 20
22.250682951578504
 10
103.67155308411782
 20
22.250683630076963
 10
103.5214576688781
 20
22.250684308575423
 10
103.37136225363838
 20
22.25068498707389
 10
103.22126683839866
 20
22.250685665572348
 10
103.071171423159
 20
22.250686344070807
 10
102.92107600791928
 20
22.250687022569267
 10
102.77098059267956
 20
22.250687701067733
 10
102.62088517743985
 20
22.250688379566192
 10
102.47078976220013
 20
22.25068905806465
 10
102.32069434696041
 20
22.250689736563118
 10
102.17059893172075
 20
22.250690415061577
 10
102.02050351648103
 20
22.25069109356004
 10
101.87040810124131
 20
22.250691772058495
 10
101.72031268600159
 20
22.25069245055696
 10
101.57021727076187
 20
22.25069312905542
 10
101.42012185552215
 20
22.25069380755388
 10
101.27002644028244
 20
22.250694486052346
 10
101.11993102504283
 20
22.250695176653963
 10
100.96983560980317
 20
22.25069586979395
 10
100.81974019456351
 20
22.25069656293394
 10
100.66964477932385
 20
22.250697256073927
 10
100.51954936408424
 20
22.250697949213915
 10
100.36945394884458
 20
22.250698642353903
 10
100.21935853360492
 20
22.250699335493884
 10
100.06926311836531
 20
22.250700028633872
 10
99.91916770312565
 20
22.25070072177386
 10
99.76907228788599
 20
22.25070141491385
 10
99.61897687264639
 20
22.250702108053837
 10
99.46888145740672
 20
22.250702801193825
 10
99.31878604216706
 20
22.250703494333813
 10
99.16869062692746
 20
22.250704187473794
 10
99.0185952116878
 20
22.250704880613785
 10
98.86849979644813
 20
22.250705573753773
 10
98.71840438120853
 20
22.25070626689376
 10
98.56830896596887
 20
22.250706960033746
 10
98.4182135507292
 20
22.250707653173734
 10
98.2681181354896
 20
22.250708346313722
 10
98.11802272024994
 20
22.250709039453703
 10
97.96792730501028
 20
22.250709732593695
 10
97.81783188977067
 20
22.250710425733683
 10
97.66773647453101
 20
22.25071111887367
 10
97.51764105929135
 20
22.250711812013655
 10
97.36754564405175
 20
22.250712507499035
 10
97.21745022881214
 20
22.250713207738386
 10
97.06735481357254
 20
22.250713907977733
 10
96.91725939833287
 20
22.25071460821708
 10
96.76716398309327
 20
22.250715308456435
 10
96.61706856785366
 20
22.250716008695782
 10
96.46697315261406
 20
22.250716708935133
 10
96.31687773737445
 20
22.250717409174484
 10
96.16678232213485
 20
22.25071810941383
 10
96.01668690689525
 20
22.25071880965318
 10
95.86659149165564
 20
22.25071950989253
 10
95.71649607641604
 20
22.25072021013188
 10
95.56640066117643
 20
22.25072091037123
 10
95.41630524593683
 20
22.250721610610583
 10
95.26620983069716
 20
22.25072231084993
 10
95.11611441545756
 20
22.250723011089285
 10
94.96601900021795
 20
22.25072371132863
 10
94.81592358497835
 20
22.25072441156798
 10
94.66582816973875
 20
22.25072511180733
 10
94.51573275449914
 20
22.25072581204668
 10
94.36563733925954
 20
22.25072651228603
 10
94.21554192401993
 20
22.250727212525376
 10
94.06544650878033
 20
22.25072791276473
 10
93.91535109354072
 20
22.25072861300408
 10
93.76525567830106
 20
22.250729313243426
 10
93.61516026306145
 20
22.25073001348278
 10
93.46506484782185
 20
22.250730713722128
 10
93.31496943258225
 20
22.250731413946042
 10
93.16487401734264
 20
22.25073211299235
 10
93.01477860210304
 20
22.250732812038656
 10
92.86468318686343
 20
22.25073351108497
 10
92.71458777162377
 20
22.250734210131277
 10
92.56449235638416
 20
22.250734909177588
 10
92.41439694114456
 20
22.2507356082239
 10
92.26430152590495
 20
22.25073630727021
 10
92.11420611066535
 20
22.250737006316516
 10
91.96411069542569
 20
22.250737705362827
 10
91.81401528018608
 20
22.250738404409134
 10
91.66391986494648
 20
22.25073910345544
 10
91.51382444970687
 20
22.25073980250175
 10
91.36372903446727
 20
22.25074050154806
 10
91.21363361922761
 20
22.25074120059437
 10
91.063538203988
 20
22.25074189964068
 10
90.9134427887484
 20
22.25074259868699
 10
90.7633473735088
 20
22.250743297733298
 10
90.61325195826919
 20
22.250743996779605
 10
90.46315654302953
 20
22.250744695825915
 10
90.31306112778992
 20
22.250745394872226
 10
90.16296571255032
 20
22.25074609391853
 10
90.01287029731071
 20
22.25074679296484
 10
89.86277488207111
 20
22.25074749201115
 10
89.7126794668315
 20
22.25074819105746
 10
89.56258405159184
 20
22.25074889010377
 10
89.41248863635224
 20
22.250749589150082
 10
89.26239322111263
 20
22.250750288196386
 10
89.11229780587297
 20
22.250750980340257
 10
88.96220239063331
 20
22.25075166946229
 10
88.81210697539365
 20
22.25075235858432
 10
88.66201156015399
 20
22.250753047706354
 10
88.51191614491432
 20
22.250753736828383
 10
88.36182072967466
 20
22.25075442595042
 10
88.211725314435
 20
22.25075511507245
 10
88.06162989919534
 20
22.250755804194483
 10
87.91153448395568
 20
22.250756493316512
 10
87.76143906871602
 20
22.250757182438548
 10
87.61134365347635
 20
22.250757871560573
 10
87.46124823823669
 20
22.25075856068261
 10
87.31115282299703
 20
22.25075924980464
 10
87.16105740775737
 20
22.25075993892667
 10
87.01096199251771
 20
22.250760628048706
 10
86.86086657727805
 20
22.250761317170735
 10
86.71077116203838
 20
22.250762006292767
 10
86.56067574679872
 20
22.2507626954148
 10
86.41058033155906
 20
22.250763384536832
 10
86.2604849163194
 20
22.250764073658864
 10
86.11038950107974
 20
22.250764762780896
 10
85.96029408584008
 20
22.250765451902925
 10
85.81019867060041
 20
22.25076614102496
 10
85.66010325536075
 20
22.250766830146986
 10
85.51000784012109
 20
22.250767519269022
 10
85.35991242488143
 20
22.250768208391055
 10
85.20981700964177
 20
22.250768897513083
 10
85.05972159440205
 20
22.250769578766413
 10
84.90962617916233
 20
22.250770247076343
 10
84.75953076392256
 20
22.25077091538627
 10
84.60943534868284
 20
22.250771583696196
 10
84.45933993344306
 20
22.250772252006126
 10
84.30924451820329
 20
22.250772920316052
 10
84.15914910296357
 20
22.25077358862598
 10
84.00905368772379
 20
22.250774256935912
 10
83.85895827248402
 20
22.250774925245835
 10
83.7088628572443
 20
22.250775593555765
 10
83.55876744200452
 20
22.250776261865695
 10
83.40867202676475
 20
22.25077693017562
 10
83.25857661152503
 20
22.25077759848555
 10
83.10848119628525
 20
22.25077826679548
 10
82.95838578104548
 20
22.2507789351054
 10
82.80829036580576
 20
22.250779603415328
 10
82.65819495056598
 20
22.250780271725258
 10
82.50809953532621
 20
22.250780940035185
 10
82.35800412008649
 20
22.25078160834511
 10
82.20790870484672
 20
22.25078227665504
 10
82.05781328960694
 20
22.250782944964968
 10
81.90771787436722
 20
22.250783613274894
 10
81.75762245912745
 20
22.250784281584824
 10
81.60752704388767
 20
22.25078494989475
 10
81.45743162864795
 20
22.250785618204674
 10
81.30733621340818
 20
22.250786286514604
 10
81.1572407981684
 20
22.250786954824534
 10
81.00714538292868
 20
22.2507876204116
 10
80.85704996768868
 20
22.250788243831245
 10
80.70695455244874
 20
22.250788867250883
 10
80.55685913720879
 20
22.25078949067052
 10
80.40676372196884
 20
22.25079011409016
 10
80.2566683067289
 20
22.250790737509803
 10
80.10657289148895
 20
22.25079136092944
 10
79.956477476249
 20
22.25079198434908
 10
79.80638206100906
 20
22.250792607768716
 10
79.65628664576911
 20
22.25079323118836
 10
79.50619123052917
 20
22.250793854607995
 10
79.35609581528922
 20
22.250794478027633
 10
79.20600040004928
 20
22.250795101447274
 10
79.05590498480933
 20
22.250795724866915
 10
78.90580956956939
 20
22.250796348286553
 10
78.75571415432944
 20
22.250796971706194
 10
78.6056187390895
 20
22.25079759512583
 10
78.45552332384949
 20
22.25079821854547
 10
78.3054279086096
 20
22.250798841965107
 10
78.1553324933696
 20
22.250799465384752
 10
78.00523707812971
 20
22.25080008880439
 10
77.85514166288971
 20
22.250800712224027
 10
77.70504624764976
 20
22.250801335643665
 10
77.55495083240982
 20
22.250801959063306
 10
77.40485541716987
 20
22.25080258248294
 10
77.25476000192992
 20
22.250803205902585
 10
77.10466458668998
 20
22.250803829322223
 10
76.95456917145003
 20
22.250804452741864
 10
76.80447375620986
 20
22.250805023493236
 10
76.65437834096963
 20
22.250805576048776
 10
76.50428292572946
 20
22.250806128604324
 10
76.35418751048923
 20
22.250806681159865
 10
76.20409209524894
 20
22.250807233715413
 10
76.05399668000877
 20
22.25080778627096
 10
75.90390126476854
 20
22.250808338826502
 10
75.7538058495283
 20
22.25080889138205
 10
75.60371043428808
 20
22.25080944393759
 10
75.45361501904785
 20
22.25080999649314
 10
75.30351960380762
 20
22.250810549048687
 10
75.15342418856739
 20
22.250811101604228
 10
75.00332877332715
 20
22.250811654159776
 10
74.85323335808692
 20
22.250812206715317
 10
74.7031379428467
 20
22.250812759270865
 10
74.55304252760646
 20
22.250813311826413
 10
74.40294711236623
 20
22.250813864381954
 10
74.252851697126
 20
22.2508144169375
 10
74.10275628188577
 20
22.250814969493042
 10
73.9526608666456
 20
22.25081552204859
 10
73.80256545140537
 20
22.25081607460414
 10
73.65247003616514
 20
22.25081662715968
 10
73.50237462092485
 20
22.250817179715227
 10
73.35227920568468
 20
22.250817732270768
 10
73.20218379044445
 20
22.250818284826316
 10
73.05208837520411
 20
22.250818816021834
 10
72.9019929599636
 20
22.250819282087342
 10
72.75189754472308
 20
22.25081974815285
 10
72.60180212948256
 20
22.250820214218358
 10
72.45170671424205
 20
22.250820680283862
 10
72.30161129900154
 20
22.25082114634937
 10
72.15151588376102
 20
22.250821612414878
 10
72.00142046852051
 20
22.250822078480383
 10
71.85132505328
 20
22.25082254454589
 10
71.70122963803948
 20
22.2508230106114
 10
71.55113422279891
 20
22.250823476676906
 10
71.4010388075584
 20
22.250823942742414
 10
71.25094339231788
 20
22.25082440880792
 10
71.10084797707736
 20
22.250824874873427
 10
70.95075256183685
 20
22.250825340938935
 10
70.80065714659634
 20
22.250825807004443
 10
70.65056173135582
 20
22.25082627306995
 10
70.50046631611531
 20
22.25082673913546
 10
70.3503709008748
 20
22.250827205200967
 10
70.20027548563428
 20
22.25082767126647
 10
70.05018007039376
 20
22.25082813733198
 10
69.9000846551532
 20
22.250828603397487
 10
69.74998923991257
 20
22.250829032189653
 10
69.59989382467182
 20
22.25082940341813
 10
69.44979840943103
 20
22.25082977464662
 10
69.29970299419023
 20
22.2508301458751
 10
69.14960757894943
 20
22.250830517103584
 10
68.99951216370869
 20
22.250830888332068
 10
68.84941674846789
 20
22.25083125956055
 10
68.69932133322709
 20
22.25083163078903
 10
68.54922591798629
 20
22.250832002017518
 10
68.39913050274555
 20
22.250832373246
 10
68.24903508750475
 20
22.25083274447448
 10
68.09893967226395
 20
22.25083311570296
 10
67.94884425702315
 20
22.250833486931448
 10
67.79874884178241
 20
22.250833858159933
 10
67.64865342654161
 20
22.25083422938841
 10
67.49855801130082
 20
22.250834600616898
 10
67.34846259606002
 20
22.25083497184538
 10
67.19836718081928
 20
22.250835343073863
 10
67.04827176557848
 20
22.250835714302347
 10
66.89817635033768
 20
22.25083608553083
 10
66.74808093509682
 20
22.25083642018901
 10
66.5979855198558
 20
22.25083668990315
 10
66.44789010461483
 20
22.25083695961728
 10
66.2977946893738
 20
22.250837229331417
 10
66.14769927413283
 20
22.250837499045552
 10
65.99760385889181
 20
22.250837768759688
 10
65.84750844365084
 20
22.250838038473823
 10
65.69741302840981
 20
22.250838308187955
 10
65.54731761316879
 20
22.250838577902087
 10
65.39722219792782
 20
22.250838847616226
 10
65.24712678268679
 20
22.250839117330358
 10
65.09703136744582
 20
22.250839387044493
 10
64.9469359522048
 20
22.25083965675863
 10
64.79684053696383
 20
22.250839926472764
 10
64.6467451217228
 20
22.2508401961869
 10
64.49664970648178
 20
22.250840465901035
 10
64.3465542912408
 20
22.250840735615164
 10
64.19645887599978
 20
22.250841005329303
 10
64.04636346075876
 20
22.250841258690045
 10
63.896268045517616
 20
22.25084141837821
 10
63.746172630276476
 20
22.250841578066385
 10
63.59607721503528
 20
22.250841737754556
 10
63.44598179979414
 20
22.250841897442726
 10
63.295886384553
 20
22.250842057130903
 10
63.145790969311804
 20
22.250842216819073
 10
62.995695554070664
 20
22.250842376507244
 10
62.845600138829525
 20
22.250842536195414
 10
62.69550472358833
 20
22.250842695883584
 10
62.54540930834719
 20
22.25084285557176
 10
62.39531389310605
 20
22.25084301525993
 10
62.24521847786485
 20
22.250843174948105
 10
62.09512306262371
 20
22.250843334636272
 10
61.945027647382574
 20
22.250843494324442
 10
61.79493223214138
 20
22.25084365401262
 10
61.64483681690024
 20
22.25084381370079
 10
61.4947414016591
 20
22.25084397338896
 10
61.3446459864179
 20
22.250844133077134
 10
61.194550571176705
 20
22.25084426301875
 10
61.044455155935566
 20
22.250844390960914
 10
60.89435974069437
 20
22.25084451890308
 10
60.74426432545317
 20
22.250844646845245
 10
60.59416891021198
 20
22.25084477478741
 10
60.44407349497078
 20
22.25084490272958
 10
60.293978079729584
 20
22.25084503067174
 10
60.14388266448839
 20
22.250845158613913
 10
59.99378724924719
 20
22.250845286556082
 10
59.84369183400605
 20
22.250845414498247
 10
59.693596418764855
 20
22.250845542440413
 10
59.54350100352366
 20
22.250845670382578
 10
59.39340558828246
 20
22.250845798324743
 10
59.243310173041266
 20
22.250845926266912
 10
59.09321475780007
 20
22.250846054209077
 10
58.94311934255887
 20
22.250846182151243
 10
58.79302392731768
 20
22.250846310093408
 10
58.64292851207654
 20
22.25084643803558
 10
58.49283309683534
 20
22.250846565977746
 10
58.342737681594144
 20
22.25084669391991
 10
58.19264226635295
 20
22.250846821862076
 10
58.04254685111175
 20
22.25084694980425
 10
57.892451435870555
 20
22.250847077746414
 10
57.74235602062936
 20
22.25084720568858
 10
57.59226060538822
 20
22.250847333630745
 10
57.442165190147136
 20
22.250847560757983
 10
57.29206977490634
 20
22.250847913733622
 10
57.14197435966548
 20
22.25084826670927
 10
56.991878944424684
 20
22.250848619684916
 10
56.84178352918383
 20
22.250848972660563
 10
56.69168811394303
 20
22.250849325636203
 10
56.541592698702175
 20
22.25084967861185
 10
56.39149728346132
 20
22.250850031587493
 10
56.24140186822052
 20
22.250850384563137
 10
56.09130645297989
 20
22.250850809374306
 10
55.94121103773978
 20
22.250851376816932
 10
55.79111562249955
 20
22.25085194425956
 10
55.64102020725943
 20
22.250852511702185
 10
55.49092479201926
 20
22.250853079144814
 10
55.340829376779084
 20
22.250853646587444
 10
55.19073396153891
 20
22.25085421403007
 10
55.040638546298794
 20
22.250854793788417
 10
54.89054313105976
 20
22.250855606064988
 10
54.740447715820665
 20
22.250856418341563
 10
54.59035230058163
 20
22.250857230618134
 10
54.44025688534259
 20
22.25085804289471
 10
54.290161470103556
 20
22.25085885517128
 10
54.14006605486452
 20
22.250859667447855
 10
53.98997063962548
 20
22.250860479724427
 10
53.83987522438781
 20
22.250861511765056
 10
53.68977980915059
 20
22.25086261106913
 10
53.539684393913376
 20
22.25086371037321
 10
53.38958897867616
 20
22.250864809677285
 10
53.23949356343894
 20
22.25086590898136
 10
53.089398148201724
 20
22.250867008285436
 10
52.93930273296451
 20
22.25086810758951
 10
52.78920731772837
 20
22.250869340537268
 10
52.63911190249348
 20
22.2508707176827
 10
52.48901648725854
 20
22.250872094828132
 10
52.338921072023595
 20
22.250873471973563
 10
52.18882565678865
 20
22.250874849118997
 10
52.038730241553765
 20
22.25087622626443
 10
51.88863482631882
 20
22.25087760340986
 10
51.73853941108439
 20
22.25087902924266
 10
51.58844399585195
 20
22.250880654339305
 10
51.438348580619504
 20
22.250882279435952
 10
51.28825316538706
 20
22.250883904532603
 10
51.13815775015462
 20
22.25088552962925
 10
50.988062334922176
 20
22.250887154725902
 10
50.837966919689734
 20
22.250888779822546
 10
50.68787150445729
 20
22.250890404919197
 10
50.53777608922741
 20
22.25089225105709
 10
50.38768067399775
 20
22.250894118600744
 10
50.23758525876815
 20
22.2508959861444
 10
50.08748984353855
 20
22.250897853688052
 10
49.93739442830889
 20
22.250899721231708
 10
49.78729901307929
 20
22.250901588775363
 10
49.637203597849634
 20
22.250903456319012
 10
49.487108182620034
 20
22.250905323862668
 10
49.33701276739038
 20
22.25090719140632
 10
49.186917352163164
 20
22.250909240851193
 10
49.03682193693652
 20
22.250911334107467
 10
48.886726521709875
 20
22.25091342736374
 10
48.73663110648323
 20
22.25091552062002
 10
48.586535691256586
 20
22.250917613876293
 10
48.43644027602994
 20
22.250919707132567
 10
48.2863448608033
 20
22.250921800388845
 10
48.13624944557665
 20
22.250923893645115
 10
47.98615403035001
 20
22.250925986901393
 10
47.836058615125296
 20
22.25092821554056
 10
47.685963199901494
 20
22.250930502177614
 10
47.535867784677635
 20
22.25093278881467
 10
47.38577236945383
 20
22.25093507545172
 10
47.23567695423003
 20
22.250937362088777
 10
47.08558153900617
 20
22.250939648725833
 10
46.93548612378237
 20
22.25094193536289
 10
46.78539070855851
 20
22.250944221999944
 10
46.63529529333471
 20
22.250946508637
 10
46.485199878110905
 20
22.250948795274056
 10
46.335104462887045
 20
22.25095108191111
 10
46.18500904766523
 20
22.25095349467494
 10
46.03491363244399
 20
22.250955944454464
 10
45.884818217222744
 20
22.250958394233987
 10
45.7347228020015
 20
22.250960844013512
 10
45.5846273867802
 20
22.250963293793035
 10
45.434531971558954
 20
22.25096574357256
 10
45.28443655633771
 20
22.250968193352087
 10
45.134341141116465
 20
22.25097064313161
 10
44.98424572589522
 20
22.25097309291113
 10
44.83415031067398
 20
22.250975542690654
 10
44.68405489545273
 20
22.250977992470183
 10
44.53395948023149
 20
22.250980442249706
 10
44.38386406501019
 20
22.25098289202923
 10
44.23376864978894
 20
22.250985341808757
 10
44.083673234567925
 20
22.25098780467379
 10
43.933577819347704
 20
22.250990318659333
 10
43.78348240412754
 20
22.250992832644876
 10
43.63338698890732
 20
22.25099534663042
 10
43.483291573687154
 20
22.250997860615968
 10
43.33319615846699
 20
22.25100037460151
 10
43.18310074324677
 20
22.251002888587053
 10
43.033005328026604
 20
22.2510054025726
 10
42.88290991280638
 20
22.25100791655814
 10
42.73281449758622
 20
22.251010430543687
 10
42.582719082366
 20
22.25101294452923
 10
42.43262366714583
 20
22.25101545851478
 10
42.28252825192561
 20
22.251017972500325
 10
42.13243283670545
 20
22.25102048648587
 10
41.98233742148528
 20
22.251023000471413
 10
41.83224200626506
 20
22.25102551445696
 10
41.68214659104484
 20
22.2510280284425
 10
41.53205117582468
 20
22.251030542428047
 10
41.38195576060451
 20
22.25103305641359
 10
41.23186034538429
 20
22.251035570399136
 10
41.08176493016413
 20
22.251038084384682
 10
40.931669514943906
 20
22.251040598370224
 10
40.78157409972374
 20
22.251043112355767
 10
40.63147868450352
 20
22.251045626341313
 10
40.481383269283356
 20
22.25104814032686
 10
40.331287854063135
 20
22.2510506543124
 10
40.18119243884149
 20
22.251053077247366
 10
40.03109702361917
 20
22.251055462543455
 10
39.8810016083969
 20
22.251057847839544
 10
39.73090619317463
 20
22.25106023313564
 10
39.58081077795231
 20
22.251062618431725
 10
39.43071536273004
 20
22.251065003727817
 10
39.28061994750777
 20
22.25106738902391
 10
39.13052453228545
 20
22.251069774319994
 10
38.98042911706318
 20
22.251072159616086
 10
38.83033370184086
 20
22.25107454491218
 10
38.68023828661859
 20
22.25107693020827
 10
38.53014287139632
 20
22.251079315504356
 10
38.380047456174
 20
22.251081700800448
 10
38.229952040948945
 20
22.251083904621304
 10
38.07985662572378
 20
22.251086100758368
 10
37.92976121049861
 20
22.251088296895432
 10
37.779665795273445
 20
22.251090493032493
 10
37.62957038004822
 20
22.251092689169553
 10
37.479474964823055
 20
22.251094885306614
 10
37.32937954959789
 20
22.251097081443675
 10
37.17928413437272
 20
22.25109927758074
 10
37.029188719147555
 20
22.251101473717803
 10
36.87909330392233
 20
22.25110366985486
 10
36.72899788869711
 20
22.251105858804934
 10
36.578902473468816
 20
22.251107833118432
 10
36.42880705824058
 20
22.25110980743193
 10
36.27871164301229
 20
22.251111781745433
 10
36.12861622778405
 20
22.251113756058935
 10
35.978520812555814
 20
22.251115730372433
 10
35.82842539732752
 20
22.251117704685935
 10
35.678329982099285
 20
22.251119678999437
 10
35.52823456687099
 20
22.251121653312936
 10
35.378139151642756
 20
22.25112362762644
 10
35.22804373641162
 20
22.251125368839745
 10
35.07794832118026
 20
22.251127091583605
 10
34.927852905948896
 20
22.251128814327465
 10
34.77775749071753
 20
22.25113053707133
 10
34.62766207548617
 20
22.251132259815193
 10
34.47756666025481
 20
22.251133982559054
 10
34.327471245023446
 20
22.251135705302914
 10
34.17737582979208
 20
22.25113742804678
 10
34.02728041456078
 20
22.251139150790642
 10
33.877184999327085
 20
22.251140655441773
 10
33.72708958409294
 20
22.251142112467363
 10
33.57699416885873
 20
22.251143569492953
 10
33.426898753624585
 20
22.251145026518543
 10
33.27680333839038
 20
22.251146483544137
 10
33.12670792315623
 20
22.251147940569723
 10
32.97661250792203
 20
22.25114939759532
 10
32.82651709268657
 20
22.251150710601067
 10
32.67642167745004
 20
22.251151898989924
 10
32.5263262622135
 20
22.251153087378782
 10
32.376230846976966
 20
22.25115427576764
 10
32.22613543174043
 20
22.251155464156493
 10
32.076040016503896
 20
22.251156652545355
 10
31.92594460126736
 20
22.251157840934212
 10
31.775849186030314
 20
22.25115895424095
 10
31.625753770791732
 20
22.251159844045937
 10
31.475658355553094
 20
22.25116073385093
 10
31.325562940314512
 20
22.25116162365592
 10
31.175467525075874
 20
22.251162513460912
 10
31.025372109837292
 20
22.251163403265906
 10
30.875276694598654
 20
22.251164293070897
 10
30.725181279360072
 20
22.251165182875887
 10
30.5750858641199
 20
22.251165755054515
 10
30.424990448879726
 20
22.251166316328504
 10
30.274895033639552
 20
22.251166877602493
 10
30.124799618399322
 20
22.25116743887648
 10
29.97470420315915
 20
22.251168000150468
 10
29.824608787918976
 20
22.251168561424457
 10
29.674513372678746
 20
22.25116912269845
 10
29.524417957438004
 20
22.251169471491508
 10
29.37432254219698
 20
22.25116972128077
 10
29.224227126955952
 20
22.251169971070027
 10
29.07413171171487
 20
22.25117022085929
 10
28.924036296473844
 20
22.251170470648553
 10
28.77394088123276
 20
22.251170657964135
 10
28.623845465991508
 20
22.251170622049514
 10
28.47375005075031
 20
22.251170586134897
 10
28.323654635509058
 20
22.25117055022028
 10
28.173559220267805
 20
22.251170514305656
 10
28.02346380502655
 20
22.25117047839104
 10
27.87336838978564
 20
22.251170213998385
 10
27.723272974544784
 20
22.251169875534607
 10
27.57317755930393
 20
22.25116953707083
 10
27.423082144063017
 20
22.25116919860706
 10
27.27298672882216
 20
22.25116886014328
 10
27.12289131358159
 20
22.25116842851615
 10
26.972795898341815
 20
22.251167770657936
 10
26.822700483101983
 20
22.251167112799727
 10
26.672605067862207
 20
22.251166454941515
 10
26.522509652622432
 20
22.251165797083303
 10
26.3724142373826
 20
22.251165139225094
 10
26.22231882214436
 20
22.251164202893634
 10
26.072223406906403
 20
22.251163208795703
 10
25.922127991668447
 20
22.25116221469777
 10
25.77203257643049
 20
22.251161220599837
 10
25.621937161192534
 20
22.251160226501902
 10
25.4718417459556
 20
22.25115910363042
 10
25.321746330720373
 20
22.251157756447476
 10
25.171650915485202
 20
22.25115640926454
 10
25.021555500249974
 20
22.251155062081597
 10
24.871460085014803
 20
22.25115371489866
 10
24.721364669779575
 20
22.251152367715722
 10
24.571269254547815
 20
22.25115068714374
 10
24.421173839316396
 20
22.2511489700305
 10
24.271078424084976
 20
22.251147252917256
 10
24.1209830088535
 20
22.25114553580401
 10
23.970887593622138
 20
22.25114381869077
 10
23.82079217839282
 20
22.25114193227313
 10
23.670696763166347
 20
22.251139828384286
 10
23.520601347939873
 20
22.251137724495436
 10
23.370505932713343
 20
22.25113562060659
 10
23.22041051748687
 20
22.25113351671775
 10
23.070315102260338
 20
22.251131412828904
 10
22.9202196880762
 20
22.251113779163724
 10
22.77012427602324
 20
22.251088284323465
 10
22.62002887560857
 20
22.251021569989696
 10
22.46993348553815
 20
22.250937998718673
 10
22.31983811628629
 20
22.250820501474035
 10
22.16974277239285
 20
22.250676473915018
 10
22.01964745278184
 20
22.250507041553995
 10
21.86955218098541
 20
22.250300988906
 10
21.719456930692104
 20
22.25007846738082
 10
21.569361758785874
 20
22.249808816646713
 10
21.419266604103825
 20
22.249529393498513
 10
21.26917155641837
 20
22.249197223754855
 10
21.11907653959429
 20
22.248852203071834
 10
20.968981627744483
 20
22.248463470211185
 10
20.818886781193555
 20
22.248051267210176
 10
20.668792029947667
 20
22.247604809059276
 10
20.518697388144233
 20
22.24712383393996
 10
20.368602823619085
 20
22.246618486104545
 10
20.218508423140577
 20
22.246067147053843
 10
20.06841407281621
 20
22.245501747060175
 10
19.918319944080963
 20
22.244880444808935
 10
19.768225856791673
 20
22.24424930913628
 10
19.618131969013064
 20
22.24357216221682
 10
19.468038145897538
 20
22.24288114603034
 10
19.317944469224074
 20
22.24215872019648
 10
19.167850883750475
 20
22.24141783090741
 10
19.017757394364253
 20
22.240657488677506
 10
18.867664010421322
 20
22.239876741623725
 10
18.717570678913546
 20
22.239085847615705
 10
18.567477452659034
 20
22.238275267526028
 10
18.417384247764062
 20
22.237460704232053
 10
18.267291126821135
 20
22.23663081142997
 10
18.117198015847634
 20
22.23579912471116
 10
17.96710494181002
 20
22.23496079161346
 10
17.817011870116175
 20
22.234122039151487
 10
17.666918802015346
 20
22.23328264382274
 10
17.516825713580715
 20
22.232446898145156
 10
17.36673261026573
 20
22.231613823288477
 10
17.21664643621483
 20
22.23000603505495
 10
17.066562444652902
 20
22.228154237746196
 10
16.916742196741552
 20
22.219234549647375
 10
16.76703581991478
 20
22.208813886715536
 10
16.61799902745213
 20
22.191018714086727
 10
16.469342420908674
 20
22.170650036391585
 10
16.32152646728366
 20
22.14459092032121
 10
16.17452699859939
 20
22.11454390831254
 10
16.028363576572247
 20
22.08041345654655
 10
15.883597502041937
 20
22.040956265820505
 10
15.739501721749889
 20
21.998943889328903
 10
15.597522942001717
 20
21.950336940659703
 10
15.456004205968839
 20
21.900349167480684
 10
15.317247497879805
 20
21.84311972019401
 10
15.179198312082349
 20
21.784297253581112
 10
15.04370447906183
 20
21.7197212914137
 10
14.909662989545893
 20
21.652297442133815
 10
14.777829527405686
 20
21.580543892141023
 10
14.648341561322184
 20
21.504744977967697
 10
14.520572512539616
 20
21.42598138327042
 10
14.396198256608443
 20
21.342032484505005
 10
14.272907567711286
 20
21.256428514341778
 10
14.154226566208365
 20
21.164561315917304
 10
14.036495288841195
 20
21.071500035512834
 10
13.92345459938889
 20
20.972755738439062
 10
13.812187067996149
 20
20.872094491497748
 10
13.704945867509707
 20
20.767080403896745
 10
13.600731563190607
 20
20.6591473323113
 10
13.49967800760379
 20
20.548166196167777
 10
13.402933565507908
 20
20.433478003348014
 10
13.308291623025582
 20
20.31698106605091
 10
13.21928280270214
 20
20.196161221257046
 10
13.131470177763958
 20
20.074442897386568
 10
13.050193742729164
 20
19.948257419678256
 10
12.970396123180365
 20
19.821174987560244
 10
12.896050729815727
 20
19.690785585529643
 10
12.824479355191784
 20
19.558911520805207
 10
12.757224239516233
 20
19.424727382055845
 10
12.694089237570779
 20
19.288613896009117
 10
12.634084299069514
 20
19.151034678712687
 10
12.579601908974098
 20
19.01121999327314
 10
12.52701087498474
 20
18.870639707242827
 10
12.481408488275463
 20
18.72765577081939
 10
12.437166954953682
 20
18.58424890825246
 10
12.399919972371038
 20
18.438848440698415
 10
12.364871273182075
 20
18.29294800347487
 10
12.335568599099531
 20
18.145740710965097
 10
12.309974026104953
 20
17.997900723179537
 10
12.288805364706263
 20
17.849305563598122
 10
12.272934990676106
 20
17.700106001907532
 10
12.260093307829777
 20
17.550560942282964
 10
12.254218603624054
 20
17.40061671384443
 10
12.249896320805135
 20
17.250583551068026
 10
12.25421876300436
 20
17.100550387501166
 10
12.260093783482716
 20
16.950606177496187
 10
12.272935403697375
 20
16.80106111249335
 10
12.288805987783576
 20
16.65186157464252
 10
12.309974528474186
 20
16.503266397865247
 10
12.335569160170223
 20
16.35542641872177
 10
12.36487164527
 20
16.208219088593765
 10
12.399920234202568
 20
16.06231862246726
 10
12.437166961236471
 20
15.91691808945
 10
12.481408222682319
 20
15.773511141945118
 10
12.527010237023717
 20
15.630527085091488
 10
12.579600929552441
 20
15.489946671321317
 10
12.634082832464628
 20
15.350131793737575
 10
12.694087427899433
 20
15.2125524268138
 10
12.757221884297621
 20
15.076438687188512
 10
12.824476692201756
 20
14.942254394179924
 10
12.896047532657349
 20
14.810380042748967
 10
12.970392695344515
 20
14.679990509191022
 10
13.050189871359123
 20
14.552907806628149
 10
13.131466197581744
 20
14.426722258833644
 10
13.219278554089442
 20
14.305003753962811
 10
13.308287154516165
 20
14.184183740034074
 10
13.402929366798844
 20
14.067687021922861
 10
13.499673888383086
 20
13.952998897375359
 10
13.600727964094006
 20
13.842018234831611
 10
13.704942716410756
 20
13.734085604568847
 10
13.812184708240977
 20
13.629072325100335
 10
13.923453040692038
 20
13.52841197331525
 10
14.036494716644825
 20
13.42966880558087
 10
14.15422700607536
 20
13.336608809680017
 10
14.272909102837389
 20
13.244743029154703
 10
14.396200802130465
 20
13.159140514227476
 10
14.520576130031827
 20
13.075193205699705
 10
14.648346035203076
 20
12.996431000239458
 10
14.77783489123641
 20
12.920633599608509
 10
14.909668968289225
 20
12.848881179411924
 10
15.043711039935943
 20
12.781458467214962
 10
15.179205183552426
 20
12.71688315674661
 10
15.317254562245125
 20
12.658061110468584
 10
15.456011243373439
 20
12.600831597813782
 10
15.597529755699384
 20
12.550843158741847
 10
15.739508228020782
 20
12.502235305476818
 10
15.883603346582788
 20
12.460220659422742
 10
16.028368755689257
 20
12.420760968937469
 10
16.17453129809377
 20
12.3866267504128
 10
16.321529876998113
 20
12.356575266303523
 10
16.469344857215503
 20
12.330510629345087
 10
16.61800055756214
 20
12.310135158693793
 10
16.76703645250933
 20
12.292332470870702
 10
16.91674218844139
 20
12.281902398492347
 10
17.066561856805606
 20
12.272972971083968
 10
17.216645725768444
 20
12.271111263914042
 10
17.366731808189968
 20
12.269496228159147
 10
17.516824918168368
 20
12.26866435469695
 10
17.66691803774205
 20
12.267834216782969
 10
17.81701117042752
 20
12.267006450443834
 10
17.967104332141105
 20
12.266183975527213
 10
18.117197512790312
 20
12.265364952298354
 10
18.267290750449035
 20
12.26455646258929
 10
18.417384003494362
 20
12.263750815822238
 10
18.56747734918872
 20
12.262962624797032
 10
18.717570715480406
 20
12.262178401601636
 10
18.86766418118509
 20
12.26141339886398
 10
19.017757692221096
 20
12.260657451490228
 10
19.167851294409274
 20
12.259919712639064
 10
19.31794497527943
 20
12.259198335328302
 10
19.468038730824617
 20
12.258492486350258
 10
19.618132602411436
 20
12.25781196801362
 10
19.768226525233842
 20
12.257142633841651
 10
19.91832060348628
 20
12.256509258978443
 10
20.06841471413719
 20
12.255883545832539
 10
20.218508999334574
 20
12.255301113414239
 10
20.368603328335098
 20
12.25473047951523
 10
20.518697800596613
 20
12.254198433488632
 10
20.668792349392163
 20
12.253689155372047
 10
20.81888700656981
 20
12.253212119554178
 10
20.968981769191373
 20
12.252770472655403
 10
21.1190766040545
 20
12.252353071348539
 10
21.269171566389673
 20
12.251985330892952
 10
21.419266566197734
 20
12.251632189185655
 10
21.569361704751827
 20
12.251344362720651
 10
21.71945686503858
 20
12.251068646185807
 10
21.86955212298517
 20
12.25085134825419
 10
22.019647404342606
 20
12.25065283962409
 10
22.169742737754575
 20
12.250496109318513
 10
22.319838093895953
 20
12.25036564571685
 10
22.46993347377304
 20
12.25026261176536
 10
22.62002887024505
 20
12.25019086161489
 10
22.770124274962484
 20
12.25013465520928
 10
22.92021968778556
 20
12.250111726020783
 10
23.07031510209623
 20
12.250095120598514
 10
23.220410517256823
 20
12.250090199401287
 10
23.370505932417416
 20
12.250085278204056
 10
23.52060134757795
 20
12.250080357006821
 10
23.670696762745422
 20
12.250075659890813
 10
23.820792177924034
 20
12.2500713231014
 10
23.97088759310259
 20
12.25006698631198
 10
24.1209830082812
 20
12.250062649522564
 10
24.271078423470954
 20
12.250058726815126
 10
24.421173838664686
 20
12.250054948759882
 10
24.57126925385836
 20
12.250051170704635
 10
24.721364669053287
 20
12.250047445306016
 10
24.871460084259468
 20
12.250044200311308
 10
25.02155549946559
 20
12.250040955316603
 10
25.171650914671773
 20
12.250037710321896
 10
25.321746329882558
 20
12.250034696927047
 10
25.471841745098857
 20
12.250031959319235
 10
25.621937160315156
 20
12.25002922171142
 10
25.772032575531398
 20
12.25002648410361
 10
25.922127990754234
 20
12.250024138673307
 10
26.07222340597849
 20
12.250021882778745
 10
26.222318821202805
 20
12.250019626884185
 10
26.372414236428142
 20
12.250017449339579
 10
26.522509651658595
 20
12.25001564948463
 10
26.672605066889048
 20
12.250013849629676
 10
26.8227004821195
 20
12.250012049774723
 10
26.97279589735234
 20
12.250010477789825
 10
27.1228913125874
 20
12.250009108300837
 10
27.272986727822342
 20
12.25000773881185
 10
27.423082143057343
 20
12.250006369322861
 10
27.57317755829513
 20
12.250005358858427
 10
27.723272973533255
 20
12.250004394061758
 10
27.87336838877144
 20
12.250003429265094
 10
28.023463804010134
 20
12.250002579152376
 10
28.173559219250592
 20
12.250002082780373
 10
28.323654634490993
 20
12.250001586408375
 10
28.473750049731393
 20
12.250001090036378
 10
28.62384546497185
 20
12.250000593664378
 10
28.77394088021225
 20
12.250000097292375
 10
28.924036295453277
 20
12.249999999999947
 10
29.07413171069453
 20
12.250000014390249
 10
29.224227125935784
 20
12.250000028780553
 10
29.374322541177037
 20
12.250000043170852
 10
29.52441795641829
 20
12.250000057561154
 10
29.67451337165926
 20
12.250000215937895
 10
29.824608786899773
 20
12.250000683324789
 10
29.974704202140288
 20
12.250001150711684
 10
30.12479961738086
 20
12.250001618098572
 10
30.274895032621316
 20
12.250002085485468
 10
30.42499044786183
 20
12.250002552872358
 10
30.575085863100867
 20
12.25000335793089
 10
30.725181278339676
 20
12.250004220548659
 10
30.875276693578428
 20
12.250005083166434
 10
31.02537210881718
 20
12.250005945784201
 10
31.175467524055932
 20
12.250006808401972
 10
31.325562939293775
 20
12.250007802927412
 10
31.475658354530253
 20
12.250009003010339
 10
31.625753769766675
 20
12.250010203093268
 10
31.775849185003096
 20
12.250011403176197
 10
31.925944600239575
 20
12.250012603259128
 10
32.07604001547605
 20
12.250013803342059
 10
32.2261354307098
 20
12.25001529910286
 10
32.376230845943326
 20
12.250016818013645
 10
32.526326261176905
 20
12.250018336924434
 10
32.67642167641043
 20
12.25001985583522
 10
32.82651709164401
 20
12.250021374746007
 10
32.976612506877586
 20
12.250022893656793
 10
33.12670792211111
 20
12.250024412567578
 10
33.27680333734253
 20
12.250026120694768
 10
33.42689875257287
 20
12.250027933995643
 10
33.57699416780315
 20
12.250029747296516
 10
33.72708958303343
 20
12.250031560597387
 10
33.877184998263715
 20
12.25003337389826
 10
34.027280413494
 20
12.250035187199131
 10
34.17737582872434
 20
12.250037000500004
 10
34.32747124395462
 20
12.250038813800876
 10
34.477566659184845
 20
12.250040627101749
 10
34.627662074413934
 20
12.250042540878455
 10
34.777757489641886
 20
12.25004454131017
 10
34.927852904869724
 20
12.250046541741895
 10
35.07794832009762
 20
12.25004854217361
 10
35.22804373532557
 20
12.250050542605333
 10
35.378139150553466
 20
12.25005254303705
 10
35.52823456578136
 20
12.250054543468773
 10
35.67832998100931
 20
12.250056543900488
 10
35.82842539623721
 20
12.250058544332212
 10
35.9785208114651
 20
12.250060544763931
 10
36.128616226693055
 20
12.25006254519565
 10
36.27871164192095
 20
12.25006454562737
 10
36.428807057148845
 20
12.25006654605909
 10
36.57890247237765
 20
12.25006847795768
 10
36.72899788760674
 20
12.25007039150569
 10
36.87909330283577
 20
12.250072305053697
 10
37.0291887180648
 20
12.250074218601712
 10
37.179284133293834
 20
12.250076132149722
 10
37.329379548522866
 20
12.25007804569773
 10
37.479474963751954
 20
12.250079959245744
 10
37.629570378980986
 20
12.250081872793755
 10
37.779665794210075
 20
12.250083786341769
 10
37.92976120943911
 20
12.250085699889777
 10
38.07985662466808
 20
12.25008761343779
 10
38.22995203989717
 20
12.250089526985802
 10
38.3800474551262
 20
12.250091440533811
 10
38.53014287035529
 20
12.250093354081827
 10
38.68023828558512
 20
12.2500952013786
 10
38.830333700817675
 20
12.250096813088987
 10
38.98042911605029
 20
12.250098424799374
 10
39.130524531282845
 20
12.250100036509755
 10
39.28061994651546
 20
12.250101648220141
 10
39.43071536174807
 20
12.250103259930528
 10
39.58081077698063
 20
12.250104871640914
 10
39.73090619221324
 20
12.250106483351301
 10
39.881001607445796
 20
12.250108095061687
 10
40.03109702267864
 20
12.250109679241103
 10
40.181192437913694
 20
12.250111048775429
 10
40.331287853148694
 20
12.250112418309753
 10
40.481383268383695
 20
12.250113787844082
 10
40.631478683618695
 20
12.25011515737841
 10
40.781574098853696
 20
12.250116526912736
 10
40.93166951408864
 20
12.250117896447065
 10
41.08176492932364
 20
12.25011926598139
 10
41.23186034455864
 20
12.250120635515717
 10
41.38195575979364
 20
12.250122003357923
 10
41.53205117503046
 20
12.25012315789667
 10
41.68214659026728
 20
12.250124312435418
 10
41.8322420055041
 20
12.250125466974161
 10
41.98233742074086
 20
12.250126621512909
 10
42.13243283597768
 20
12.250127776051656
 10
42.282528251214444
 20
12.250128930590403
 10
42.43262366645126
 20
12.25013008512915
 10
42.58271908168808
 20
12.250131239667898
 10
42.7328144969249
 20
12.250132394206645
 10
42.88290991216297
 20
12.250133364180964
 10
43.03300532740127
 20
12.250134314116345
 10
43.18310074263945
 20
12.250135264051718
 10
43.333196157877694
 20
12.250136213987098
 10
43.483291573115935
 20
12.25013716392247
 10
43.633386988354175
 20
12.250138113857847
 10
43.783482403592416
 20
12.250139063793222
 10
43.9335778188306
 20
12.2501400137286
 10
44.0836732340689
 20
12.250140963663975
 10
44.23376864930714
 20
12.250141913599354
 10
44.38386406454538
 20
12.250142863534728
 10
44.533959479784585
 20
12.250143631871708
 10
44.684054895023905
 20
12.250144395568864
 10
44.834150310263226
 20
12.250145159266014
 10
44.98424572550255
 20
12.250145922963169
 10
45.13434114074187
 20
12.250146686660326
 10
45.28443655598113
 20
12.250147450357481
 10
45.43453197122045
 20
12.250148214054631
 10
45.584627386459715
 20
12.250148977751786
 10
45.734722801699036
 20
12.250149741448944
 10
45.8848182169383
 20
12.250150505146097
 10
46.03491363217768
 20
12.250151261289322
 10
46.18500904741768
 20
12.25015186798561
 10
46.33510446265768
 20
12.250152474681895
 10
46.48519987789774
 20
12.250153081378183
 10
46.635295293137744
 20
12.250153688074468
 10
46.78539070837775
 20
12.250154294770756
 10
46.93548612361775
 20
12.250154901467042
 10
47.08558153885781
 20
12.25015550816333
 10
47.23567695409781
 20
12.250156114859617
 10
47.385772369337815
 20
12.250156721555902
 10
47.535867784577874
 20
12.25015732825219
 10
47.68596319981788
 20
12.250157934948476
 10
47.83605861505788
 20
12.250158541644764
 10
47.98615403029805
 20
12.250159109509232
 10
48.13624944553851
 20
12.250159586757228
 10
48.286344860779025
 20
12.250160064005224
 10
48.43644027601948
 20
12.25016054125322
 10
48.586535691259996
 20
12.250161018501217
 10
48.73663110650051
 20
12.25016149574921
 10
48.88672652174091
 20
12.250161972997208
 10
49.03682193698148
 20
12.250162450245204
 10
49.18691735222194
 20
12.250162927493202
 10
49.33701276746234
 20
12.250163404741196
 10
49.487108182702855
 20
12.250163881989193
 10
49.63720359794331
 20
12.250164359237191
 10
49.78729901318388
 20
12.250164836485187
 10
49.937394428424284
 20
12.25016531373318
 10
50.0874898436648
 20
12.250165790981178
 10
50.237585258905256
 20
12.250166268229176
 10
50.38768067414577
 20
12.250166745477172
 10
50.537776089386455
 20
12.25016716852572
 10
50.68787150462714
 20
12.250167586182515
 10
50.83796691986777
 20
12.25016800383931
 10
50.98806233510845
 20
12.250168421496111
 10
51.13815775034914
 20
12.250168839152906
 10
51.28825316558971
 20
12.250169256809702
 10
51.438348580830336
 20
12.2501696744665
 10
51.58844399607102
 20
12.250170092123295
 10
51.738539411311706
 20
12.250170509780089
 10
51.888634826552334
 20
12.250170927436887
 10
52.03873024179302
 20
12.250171345093685
 10
52.1888256570337
 20
12.250171762750481
 10
52.33892107227439
 20
12.250172180407276
 10
52.489016487515016
 20
12.250172598064074
 10
52.6391119027557
 20
12.250173015720868
 10
52.789207317996386
 20
12.250173433377663
 10
52.93930273323707
 20
12.25017385103446
 10
53.0893981484777
 20
12.25017426869126
 10
53.23949356371838
 20
12.250174686348055
 10
53.38958897895907
 20
12.25017510400485
 10
53.53968439419975
 20
12.250175521661648
 10
53.68977980944038
 20
12.250175939318442
 10
53.839875224681066
 20
12.250176356975238
 10
53.98997063992164
 20
12.250176774632035
 10
54.140066055162265
 20
12.250177192288835
 10
54.29016147040295
 20
12.250177609945629
 10
54.440256885643635
 20
12.250178027602423
 10
54.590352300884206
 20
12.250178484471045
 10
54.740447716124606
 20
12.250178968353833
 10
54.890543131365064
 20
12.250179452236617
 10
55.040638546605635
 20
12.250179936119405
 10
55.190733961846036
 20
12.250180420002193
 10
55.34082937708649
 20
12.250180903884978
 10
55.49092479232695
 20
12.250181387767766
 10
55.64102020756735
 20
12.250181871650554
 10
55.79111562280792
 20
12.250182355533337
 10
55.94121103804838
 20
12.250182839416125
 10
56.09130645328878
 20
12.250183323298913
 10
56.24140186852924
 20
12.250183807181697
 10
56.39149728376975
 20
12.250184291064485
 10
56.54159269901021
 20
12.250184774947273
 10
56.69168811425067
 20
12.250185258830058
 10
56.84178352949107
 20
12.250185742712846
 10
56.99187894473164
 20
12.250186226595634
 10
57.141974359972096
 20
12.250186710478415
 10
57.2920697752125
 20
12.250187194361205
 10
57.442165190452954
 20
12.250187678243993
 10
57.592260605693525
 20
12.250188162126777
 10
57.742356020933926
 20
12.250188646009565
 10
57.89245143617438
 20
12.250189129892354
 10
58.04254685141484
 20
12.250189613775138
 10
58.19264226665524
 20
12.250190097657926
 10
58.3427376818957
 20
12.250190588991183
 10
58.492833097135986
 20
12.250191150625612
 10
58.64292851237616
 20
12.250191712260039
 10
58.79302392761633
 20
12.25019227389447
 10
58.943119342856505
 20
12.2501928355289
 10
59.09321475809668
 20
12.25019339716333
 10
59.24331017333685
 20
12.250193958797759
 10
59.393405588577025
 20
12.250194520432188
 10
59.54350100381731
 20
12.250195082066616
 10
59.693596419057485
 20
12.250195643701046
 10
59.843691834297715
 20
12.25019620533547
 10
59.99378724953789
 20
12.250196766969903
 10
60.14388266477806
 20
12.250197328604333
 10
60.293978080018235
 20
12.250197890238761
 10
60.44407349525841
 20
12.25019845187319
 10
60.594168910498695
 20
12.25019901350762
 10
60.74426432573887
 20
12.25019957514205
 10
60.89435974097904
 20
12.25020013677648
 10
61.044455156219215
 20
12.25020069841091
 10
61.19455057145939
 20
12.250201260045337
 10
61.34464598669956
 20
12.250201821679767
 10
61.49474140193979
 20
12.250202383314194
 10
61.644836817179964
 20
12.250202944948624
 10
61.79493223242025
 20
12.250203506583054
 10
61.945027647660424
 20
12.250204068217482
 10
62.095123062900484
 20
12.250204629851911
 10
62.2452184781406
 20
12.250205234130279
 10
62.39531389338049
 20
12.250205866890434
 10
62.54540930862038
 20
12.25020649965059
 10
62.69550472386027
 20
12.250207132410749
 10
62.845600139100156
 20
12.250207765170899
 10
62.9956955543401
 20
12.250208397931054
 10
63.14579096957999
 20
12.25020903069121
 10
63.295886384819994
 20
12.250209663451365
 10
63.44598180005988
 20
12.250210296211518
 10
63.59607721529977
 20
12.250210928971674
 10
63.74617263053966
 20
12.25021156173183
 10
63.89626804577955
 20
12.250212194491985
 10
64.04636346101944
 20
12.25021282725214
 10
64.19645887625944
 20
12.250213460012294
 10
64.34655429149933
 20
12.250214092772449
 10
64.49664970673922
 20
12.250214725532604
 10
64.64674512197911
 20
12.25021535829276
 10
64.796840537219
 20
12.250215991052912
 10
64.94693595245889
 20
12.250216623813069
 10
65.09703136769889
 20
12.250217256573224
 10
65.24712678293878
 20
12.25021788933338
 10
65.39722219817867
 20
12.250218522093531
 10
65.54731761341856
 20
12.250219154853687
 10
65.69741302865845
 20
12.250219787613844
 10
65.84750844389839
 20
12.250220420374
 10
65.99760385913828
 20
12.250221053134151
 10
66.14769927437828
 20
12.250221685894306
 10
66.29779468961806
 20
12.250222336604942
 10
66.44789010485766
 20
12.250223032990235
 10
66.59798552009727
 20
12.250223729375524
 10
66.74808093533693
 20
12.250224425760814
 10
66.89817635057653
 20
12.2502251221461
 10
67.04827176581614
 20
12.250225818531392
 10
67.19836718105586
 20
12.250226514916683
 10
67.34846259629546
 20
12.250227211301969
 10
67.49855801153501
 20
12.25022790768726
 10
67.64865342677462
 20
12.250228604072552
 10
67.79874884201433
 20
12.250229300457837
 10
67.94884425725394
 20
12.250229996843128
 10
68.09893967249354
 20
12.25023069322842
 10
68.24903508773309
 20
12.250231389613706
 10
68.39913050297281
 20
12.250232085998997
 10
68.54922591821241
 20
12.250232782384286
 10
68.69932133345213
 20
12.250233478769575
 10
68.84941674869174
 20
12.250234175154866
 10
68.99951216393129
 20
12.250234871540155
 10
69.14960757917089
 20
12.250235567925442
 10
69.29970299441061
 20
12.250236264310734
 10
69.44979840965021
 20
12.250236960696023
 10
69.59989382488982
 20
12.250237657081314
 10
69.74998924012937
 20
12.250238353466603
 10
69.90008465536908
 20
12.250239049851892
 10
70.05018007060869
 20
12.250239746237183
 10
70.20027548584841
 20
12.250240442622468
 10
70.35037090108801
 20
12.25024113900776
 10
70.50046631632733
 20
12.250241885444474
 10
70.65056173156677
 20
12.250242633712627
 10
70.80065714680615
 20
12.250243381980786
 10
70.95075256204547
 20
12.250244130248936
 10
71.1008479772849
 20
12.25024487851709
 10
71.25094339252422
 20
12.250245626785246
 10
71.40103880776365
 20
12.2502463750534
 10
71.55113422300309
 20
12.250247123321554
 10
71.70122963824241
 20
12.250247871589709
 10
71.85132505348173
 20
12.250248619857864
 10
72.00142046872116
 20
12.250249368126019
 10
72.15151588396049
 20
12.250250116394168
 10
72.30161129919992
 20
12.250250864662327
 10
72.45170671443924
 20
12.25025161293048
 10
72.60180212967867
 20
12.250252361198635
 10
72.751897544918
 20
12.250253109466787
 10
72.90199296015743
 20
12.250253857734942
 10
73.0520883753968
 20
12.250254606003095
 10
73.20218379063624
 20
12.250255354271253
 10
73.35227920587556
 20
12.250256102539403
 10
73.50237462111488
 20
12.250256850807558
 10
73.65247003635432
 20
12.250257599075713
 10
73.80256545159375
 20
12.250258347343868
 10
73.95266086683307
 20
12.250259095612021
 10
74.1027562820725
 20
12.250259843880176
 10
74.25285169731183
 20
12.250260611361275
 10
74.40294711255086
 20
12.250261400644701
 10
74.55304252779007
 20
12.250262189928124
 10
74.70313794302922
 20
12.250262979211547
 10
74.85323335826848
 20
12.250263768494968
 10
75.00332877350763
 20
12.250264557778394
 10
75.15342418874678
 20
12.250265347061818
 10
75.30351960398599
 20
12.250266136345237
 10
75.45361501922503
 20
12.250266925628665
 10
75.60371043446429
 20
12.250267714912088
 10
75.75380584970344
 20
12.250268504195507
 10
75.9039012649427
 20
12.25026929347893
 10
76.0539966801818
 20
12.250270082762357
 10
76.20409209542095
 20
12.250270872045776
 10
76.3541875106601
 20
12.2502716613292
 10
76.50428292589925
 20
12.250272450612627
 10
76.65437834113851
 20
12.250273239896048
 10
76.8044737563776
 20
12.25027402917947
 10
76.95456917161675
 20
12.250274818462897
 10
77.1046645868559
 20
12.250275607746318
 10
77.25476000209517
 20
12.25027639702974
 10
77.40485541733432
 20
12.250277186313163
 10
77.55495083257341
 20
12.250277975596587
 10
77.70504624781267
 20
12.25027876488001
 10
77.85514166305171
 20
12.250279554163432
 10
78.00523707829097
 20
12.25028034344686
 10
78.15533249353001
 20
12.250281163983384
 10
78.30542790876893
 20
12.250281985414677
 10
78.45552332400797
 20
12.250282806845965
 10
78.60561873924695
 20
12.250283628277256
 10
78.75571415448599
 20
12.250284449708548
 10
78.90580956972497
 20
12.250285271139838
 10
79.05590498496389
 20
12.250286092571129
 10
79.20600040020292
 20
12.250286914002421
 10
79.3560958154419
 20
12.25028773543371
 10
79.50619123068094
 20
12.250288556865002
 10
79.65628664591992
 20
12.250289378296294
 10
79.80638206115884
 20
12.250290199727582
 10
79.95647747639788
 20
12.250291021158873
 10
80.10657289163686
 20
12.250291842590165
 10
80.2566683068759
 20
12.250292664021455
 10
80.40676372211487
 20
12.250293485452746
 10
80.5568591373538
 20
12.250294306884035
 10
80.70695455259283
 20
12.250295128315328
 10
80.85704996783193
 20
12.250295949746619
 10
81.00714538307085
 20
12.250296771177906
 10
81.15724079830994
 20
12.250297592609199
 10
81.30733621354887
 20
12.25029841404049
 10
81.4574316287879
 20
12.250299235471779
 10
81.60752704402688
 20
12.250300056903072
 10
81.7576224592658
 20
12.250300878334363
 10
81.90771787450484
 20
12.250301710845177
 10
82.05781328974365
 20
12.250302555557658
 10
82.20790870498251
 20
12.250303400270143
 10
82.35800412022144
 20
12.250304244982624
 10
82.50809953546025
 20
12.25030508969511
 10
82.65819495069911
 20
12.25030593440759
 10
82.80829036593803
 20
12.250306779120075
 10
82.95838578117684
 20
12.250307623832557
 10
83.10848119641571
 20
12.250308468545041
 10
83.25857661165452
 20
12.250309313257521
 10
83.40867202689356
 20
12.250310157970008
 10
83.55876744213231
 20
12.250311002682487
 10
83.70886285737123
 20
12.250311847394974
 10
83.85895827261015
 20
12.250312692107453
 10
84.00905368784896
 20
12.25031353681994
 10
84.15914910308783
 20
12.25031438153242
 10
84.30924451832664
 20
12.250315226244906
 10
84.45933993356556
 20
12.250316070957389
 10
84.60943534880442
 20
12.250316915669872
 10
84.75953076404335
 20
12.250317760382355
 10
84.90962617928216
 20
12.250318605094835
 10
85.05972159452102
 20
12.250319449807321
 10
85.20981700975983
 20
12.2503202945198
 10
85.35991242499875
 20
12.250321139232287
 10
85.51000784023762
 20
12.250321983944767
 10
85.66010325547654
 20
12.250322828657254
 10
85.81019867071535
 20
12.250323687549281
 10
85.96029408595405
 20
12.250324546736115
 10
86.11038950119291
 20
12.250325405922952
 10
86.26048491643161
 20
12.250326265109782
 10
86.41058033167047
 20
12.250327124296618
 10
86.56067574690928
 20
12.250327983483455
 10
86.71077116214803
 20
12.250328842670289
 10
86.86086657738673
 20
12.250329701857122
 10
87.0109619926256
 20
12.250330561043958
 10
87.1610574078644
 20
12.250331420230795
 10
87.31115282310316
 20
12.250332279417629
 10
87.46124823834197
 20
12.250333138604464
 10
87.61134365358072
 20
12.250333997791296
 10
87.76143906881953
 20
12.250334856978132
 10
87.91153448405828
 20
12.250335716164965
 10
88.06162989929709
 20
12.2503365753518
 10
88.21172531453584
 20
12.250337434538638
 10
88.36182072977465
 20
12.250338293725472
 10
88.5119161450134
 20
12.250339152912305
 10
88.66201156025221
 20
12.250340012099143
 10
88.81210697549096
 20
12.250340871285978
 10
88.96220239072977
 20
12.250341730472808
 10
89.11229780596852
 20
12.250342589659642
 10
89.26239322120733
 20
12.250343448846479
 10
89.41248863644614
 20
12.250344308033315
 10
89.5625840516849
 20
12.250345170009604
 10
89.71267946692359
 20
12.250346034967349
 10
89.86277488216234
 20
12.250346899925093
 10
90.01287029740115
 20
12.250347764882843
 10
90.1629657126399
 20
12.250348629840587
 10
90.31306112787871
 20
12.250349494798334
 10
90.4631565431174
 20
12.250350359756084
 10
90.61325195835616
 20
12.250351224713832
 10
90.76334737359485
 20
12.250352089671576
 10
90.91344278883372
 20
12.250352954629326
 10
91.06353820407242
 20
12.25035381958707
 10
91.21363361931117
 20
12.250354684544815
 10
91.36372903454986
 20
12.250355549502565
 10
91.51382444978867
 20
12.250356414460311
 10
91.66391986502742
 20
12.25035727941806
 10
91.81401528026612
 20
12.250358144375808
 10
91.96411069550498
 20
12.250359009333554
 10
92.11420611074368
 20
12.250359874291298
 10
92.26430152598238
 20
12.250360739249048
 10
92.41439694122113
 20
12.250361604206793
 10
92.56449235645994
 20
12.250362469164541
 10
92.71458777169869
 20
12.25036333412229
 10
92.86468318693738
 20
12.250364199080035
 10
93.0147786021762
 20
12.250365064037782
 10
93.16487401741495
 20
12.250365928995526
 10
93.31496943265364
 20
12.250366793953276
 10
93.4650648478925
 20
12.250367656026476
 10
93.6151602631312
 20
12.250368518061965
 10
93.76525567837007
 20
12.250369380097457
 10
93.91535109360876
 20
12.250370242132947
 10
94.06544650884751
 20
12.250371104168437
 10
94.21554192408627
 20
12.250371966203927
 10
94.36563733932508
 20
12.250372828239414
 10
94.51573275456383
 20
12.250373690274904
 10
94.66582816980264
 20
12.250374552310394
 10
94.81592358504139
 20
12.250375414345884
 10
94.96601900028008
 20
12.250376276381377
 10
95.11611441551895
 20
12.250377138416864
 10
95.26620983075765
 20
12.250378000452354
 10
95.41630524599651
 20
12.250378862487844
 10
95.56640066123526
 20
12.250379724523334
 10
95.71649607647396
 20
12.250380586558821
 10
95.86659149171282
 20
12.250381448594311
 10
96.01668690695152
 20
12.250382310629803
 10
96.16678232219027
 20
12.250383172665293
 10
96.31687773742908
 20
12.250384034700787
 10
96.46697315266783
 20
12.250384896736271
 10
96.61706856790659
 20
12.250385758771763
 10
96.7671639831454
 20
12.250386620807253
 10
96.91725939838415
 20
12.250387482842743
 10
97.06735481362296
 20
12.250388344878234
 10
97.21745022886165
 20
12.250389201212567
 10
97.36754564410057
 20
12.250390051632632
 10
97.51764105933938
 20
12.250390902052693
 10
97.66773647457819
 20
12.250391752472758
 10
97.817831889817
 20
12.25039260289282
 10
97.96792730505592
 20
12.250393453312887
 10
98.11802272029473
 20
12.250394303732948
 10
98.26811813553354
 20
12.25039515415301
 10
98.41821355077235
 20
12.250396004573073
 10
98.56830896601122
 20
12.250396854993138
 10
98.71840438125014
 20
12.2503977054132
 10
98.86849979648895
 20
12.250398555833264
 10
99.01859521172776
 20
12.250399406253331
 10
99.16869062696668
 20
12.250400256673393
 10
99.31878604220537
 20
12.250401107093458
 10
99.4688814574443
 20
12.25040195751352
 10
99.6189768726831
 20
12.250402807933582
 10
99.76907228792192
 20
12.250403658353644
 10
99.91916770316084
 20
12.250404508773709
 10
100.06926311839965
 20
12.25040535919377
 10
100.21935853363846
 20
12.250406209613837
 10
100.36945394887726
 20
12.250407060033899
 10
100.51954936411607
 20
12.250407910453964
 10
100.669644779355
 20
12.250408760874029
 10
100.8197401945938
 20
12.25040961129409
 10
100.96983560983261
 20
12.250410461714154
 10
101.1199310250716
 20
12.250411291001598
 10
101.27002644031057
 20
12.250412120173385
 10
101.4201218555495
 20
12.250412949345174
 10
101.57021727078842
 20
12.250413778516966
 10
101.7203126860274
 20
12.250414607688754
 10
101.87040810126632
 20
12.250415436860543
 10
102.02050351650524
 20
12.250416266032328
 10
102.17059893174422
 20
12.250417095204115
 10
102.32069434698315
 20
12.250417924375908
 10
102.47078976222218
 20
12.250418753547697
 10
102.62088517746116
 20
12.250419582719484
 10
102.77098059270008
 20
12.250420411891273
 10
102.921076007939
 20
12.250421241063059
 10
103.07117142317799
 20
12.250422070234846
 10
103.22126683841691
 20
12.250422899406638
 10
103.37136225365583
 20
12.250423728578427
 10
103.52145766889487
 20
12.250424557750215
 10
103.67155308413385
 20
12.250425386922004
 10
103.82164849937277
 20
12.25042621609379
 10
103.9717439146117
 20
12.25042704526558
 10
104.12183932985067
 20
12.250427874437369
 10
104.2719347450896
 20
12.250428703609156
 10
104.42203016032852
 20
12.250429532780945
 10
104.5721255755675
 20
12.250430361952734
 10
104.72222099080642
 20
12.250431191124518
 10
104.87231640604534
 20
12.25043202029631
 10
105.02241182128444
 20
12.2504328494681
 10
105.17250723652342
 20
12.250433657148866
 10
105.32260265176262
 20
12.25043445458204
 10
105.47269806700172
 20
12.250435252015219
 10
105.62279348224087
 20
12.250436049448393
 10
105.77288889747996
 20
12.25043684688157
 10
105.92298431271905
 20
12.250437644314744
 10
106.07307972795809
 20
12.250438441747923
 10
106.07307972794922
 20
12.401957634565612
 10
106.07307972794922
 20
12.553476378550226
 10
106.07307972794922
 20
12.704995122534942
 10
106.07307972794922
 20
12.85651386651962
 10
106.07307972794922
 20
13.008032610504275
 10
106.07307972794922
 20
13.159551354488952
 10
106.07307972794928
 20
13.311070098473671
 10
106.07307972794928
 20
13.462588842458349
 10
106.07307972794928
 20
13.614107586443001
 10
106.07307972794928
 20
13.765626330427681
 10
106.07307972794928
 20
13.917145074412398
 10
106.07307972794928
 20
14.068663818397013
 10
106.07307972794928
 20
14.22018256238173
 10
106.07307972794928
 20
14.371701306366408
 10
106.07307972794928
 20
14.523220050351046
 10
106.07307972794928
 20
14.674738794335738
 10
106.07307972794933
 20
14.82625753832044
 10
106.07307972794933
 20
14.977776282305134
 10
106.07307972794933
 20
15.129295026289771
 10
106.07307972794933
 20
15.280813770274467
 10
106.07307972794933
 20
15.432332514259167
 10
106.07307972794933
 20
15.583851258243799
 10
106.07307972794933
 20
15.7353700022285
 10
106.07307972794933
 20
15.886888746213193
 10
106.07307972794933
 20
16.03840749019783
 10
106.07307972794933
 20
16.189926234182526
 10
106.07307972794933
 20
16.341444978167225
 10
106.07307972794939
 20
16.492963722151856
 10
106.07307972794939
 20
16.64448246613656
 10
106.07307972794939
 20
16.796001210121254
 10
106.07307972794939
 20
16.947519954105953
 10
106.07307972794939
 20
17.099038698090585
 10
106.07307972794939
 20
17.250557442075284
 10
106.07307972794939
 20
17.40207618605998
 10
106.07307972794939
 20
17.553594930044618
 10
106.07307972794939
 20
17.705113674029313
 10
106.07307972794939
 20
17.856632418014012
 10
106.07307972794945
 20
18.00815116199867
 10
106.07307972794945
 20
18.159669905983343
 10
106.07307972794945
 20
18.311188649968038
 10
106.07307972794945
 20
18.46270739395274
 10
106.07307972794945
 20
18.614226137937372
 10
106.07307972794945
 20
18.76574488192207
 10
106.07307972794945
 20
18.917263625906767
 10
106.07307972794945
 20
19.0687823698914
 10
106.07307972794945
 20
19.220301113876083
 10
106.07307972794945
 20
19.3718198578608
 10
106.07307972794945
 20
19.52333860184544
 10
106.0730797279495
 20
19.67485734583013
 10
106.0730797279495
 20
19.826376089814808
 10
106.0730797279495
 20
19.977894833799525
 10
106.0730797279495
 20
20.129413577784163
 10
106.0730797279495
 20
20.28093232176886
 10
106.0730797279495
 20
20.432451065753533
 10
106.0730797279495
 20
20.58396980973819
 10
106.0730797279495
 20
20.735488553722867
 10
106.0730797279495
 20
20.887007297707584
 10
106.0730797279495
 20
21.038526041692222
 10
106.07307972794956
 20
21.190044785676918
 10
106.07307972794956
 20
21.341563529661595
 10
106.07307972794956
 20
21.493082273646312
 10
106.07307972794956
 20
21.644601017630947
 10
106.07307972794956
 20
21.796119761615643
 10
106.07307972794956
 20
21.947638505600324
 10
106.07307972794956
 20
22.099157249584977
  0
ENDSEC
  0
SECTION
  2
OBJECTS
  0
DICTIONARY
  5
A
330
0
100
AcDbDictionary
281
1
  3
ACAD_COLOR
350
B
  3
ACAD_GROUP
350
C
  3
ACAD_LAYOUT
350
D
  3
ACAD_MATERIAL
350
E
  3
ACAD_MLEADERSTYLE
350
F
  3
ACAD_MLINESTYLE
350
10
  3
ACAD_PLOTSETTINGS
350
11
  3
ACAD_PLOTSTYLENAME
350
12
  3
ACAD_SCALELIST
350
14
  3
ACAD_TABLESTYLE
350
15
  3
ACAD_VISUALSTYLE
350
16
  3
EZDXF_META
350
2D
  0
DICTIONARY
  5
B
330
A
100
AcDbDictionary
281
1
  0
DICTIONARY
  5
C
330
A
100
AcDbDictionary
281
1
  0
DICTIONARY
  5
D
330
A
100
AcDbDictionary
281
1
  3
Model
350
1A
  3
Layout1
350
1E
  0
DICTIONARY
  5
E
330
A
100
AcDbDictionary
281
1
  3
ByBlock
350
1F
  3
ByLayer
350
20
  3
Global
350
21
  0
DICTIONARY
  5
F
330
A
100
AcDbDictionary
281
1
  3
Standard
350
2C
  0
DICTIONARY
  5
10
330
A
100
AcDbDictionary
281
1
  3
Standard
350
22
  0
DICTIONARY
  5
11
330
A
100
AcDbDictionary
281
1
  0
ACDBDICTIONARYWDFLT
  5
12
330
A
100
AcDbDictionary
281
1
  3
Normal
350
13
100
AcDbDictionaryWithDefault
340
13
  0
ACDBPLACEHOLDER
  5
13
330
12
  0
DICTIONARY
  5
14
330
A
100
AcDbDictionary
281
1
  0
DICTIONARY
  5
15
330
A
100
AcDbDictionary
281
1
  0
DICTIONARY
  5
16
330
A
100
AcDbDictionary
281
1
  0
LAYOUT
  5
1A
330
D
100
AcDbPlotSettings
  1

  4
A3
  6

 40
7.5
 41
20.0
 42
7.5
 43
20.0
 44
420.0
 45
297.0
 46
0.0
 47
0.0
 48
0.0
 49
0.0
140
0.0
141
0.0
142
1.0
143
1.0
 70
1024
 72
1
 73
0
 74
5
  7

 75
16
 76
0
 77
2
 78
300
147
1.0
148
0.0
149
0.0
100
AcDbLayout
  1
Model
 70
1
 71
0
 10
0.0
 20
0.0
 11
420.0
 21
297.0
 12
0.0
 22
0.0
 32
0.0
 14
1e+20
 24
1e+20
 34
1e+20
 15
-1e+20
 25
-1e+20
 35
-1e+20
146
0.0
 13
0.0
 23
0.0
 33
0.0
 16
1.0
 26
0.0
 36
0.0
 17
0.0
 27
1.0
 37
0.0
 76
1
330
17
  0
LAYOUT
  5
1E
330
D
100
AcDbPlotSettings
  1

  4
A3
  6

 40
7.5
 41
20.0
 42
7.5
 43
20.0
 44
420.0
 45
297.0
 46
0.0
 47
0.0
 48
0.0
 49
0.0
140
0.0
141
0.0
142
1.0
143
1.0
 70
0
 72
1
 73
0
 74
5
  7

 75
16
 76
0
 77
2
 78
300
147
1.0
148
0.0
149
0.0
100
AcDbLayout
  1
Layout1
 70
1
 71
1
 10
0.0
 20
0.0
 11
420.0
 21
297.0
 12
0.0
 22
0.0
 32
0.0
 14
1e+20
 24
1e+20
 34
1e+20
 15
-1e+20
 25
-1e+20
 35
-1e+20
146
0.0
 13
0.0
 23
0.0
 33
0.0
 16
1.0
 26
0.0
 36
0.0
 17
0.0
 27
1.0
 37
0.0
 76
1
330
1B
  0
MATERIAL
  5
1F
102
{ACAD_REACTORS
330
E
102
}
330
E
100
AcDbMaterial
  1
ByBlock
  2

 70
0
 40
1.0
 71
1
 41
1.0
 91
-1023410177
 42
1.0
 72
1
  3

 73
1
 74
1
 75
1
 44
0.5
 73
0
 45
1.0
 46
1.0
 77
1
  4

 78
1
 79
1
170
1
 48
1.0
171
1
  6

172
1
173
1
174
1
140
1.0
141
1.0
175
1
  7

176
1
177
1
178
1
143
1.0
179
1
  8

270
1
271
1
272
1
145
1.0
146
1.0
273
1
  9

274
1
275
1
276
1
 42
1.0
 72
1
  3

 73
1
 74
1
 75
1
 94
63
  0
MATERIAL
  5
20
102
{ACAD_REACTORS
330
E
102
}
330
E
100
AcDbMaterial
  1
ByLayer
  2

 70
0
 40
1.0
 71
1
 41
1.0
 91
-1023410177
 42
1.0
 72
1
  3

 73
1
 74
1
 75
1
 44
0.5
 73
0
 45
1.0
 46
1.0
 77
1
  4

 78
1
 79
1
170
1
 48
1.0
171
1
  6

172
1
173
1
174
1
140
1.0
141
1.0
175
1
  7

176
1
177
1
178
1
143
1.0
179
1
  8

270
1
271
1
272
1
145
1.0
146
1.0
273
1
  9

274
1
275
1
276
1
 42
1.0
 72
1
  3

 73
1
 74
1
 75
1
 94
63
  0
MATERIAL
  5
21
102
{ACAD_REACTORS
330
E
102
}
330
E
100
AcDbMaterial
  1
Global
  2

 70
0
 40
1.0
 71
1
 41
1.0
 91
-1023410177
 42
1.0
 72
1
  3

 73
1
 74
1
 75
1
 44
0.5
 73
0
 45
1.0
 46
1.0
 77
1
  4

 78
1
 79
1
170
1
 48
1.0
171
1
  6

172
1
173
1
174
1
140
1.0
141
1.0
175
1
  7

176
1
177
1
178
1
143
1.0
179
1
  8

270
1
271
1
272
1
145
1.0
146
1.0
273
1
  9

274
1
275
1
276
1
 42
1.0
 72
1
  3

 73
1
 74
1
 75
1
 94
63
  0
MLINESTYLE
  5
22
102
{ACAD_REACTORS
330
10
102
}
330
10
100
AcDbMlineStyle
  2
Standard
 70
0
  3

 62
256
 51
90.0
 52
90.0
 71
2
 49
0.5
 62
256
  6
BYLAYER
 49
-0.5
 62
256
  6
BYLAYER
  0
MLEADERSTYLE
  5
2C
102
{ACAD_REACTORS
330
F
102
}
330
F
100
AcDbMLeaderStyle
179
2
170
2
171
1
172
0
 90
2
 40
0.0
 41
0.0
173
1
 91
-1056964608
 92
-2
290
1
 42
2.0
291
1
 43
8.0
  3
Standard
 44
4.0
300

342
29
174
1
175
1
176
0
178
1
 93
-1056964608
 45
4.0
292
0
297
0
 46
4.0
 94
-1056964608
 47
1.0
 49
1.0
140
1.0
294
1
141
0.0
177
0
142
1.0
295
0
296
0
143
3.75
271
0
272
9
273
9
  0
DICTIONARY
  5
2D
330
A
100
AcDbDictionary
280
1
281
1
  3
CREATED_BY_EZDXF
350
2E
  3
WRITTEN_BY_EZDXF
350
3A
  0
DICTIONARYVAR
  5
2E
330
2D
100
DictionaryVariables
280
0
  1
1.4.4 @ 2026-09-19T12:12:36.212970+00:00
  0
DICTIONARYVAR
  5
3A
330
2D
100
DictionaryVariables
280
0
  1
1.4.4 @ 2026-09-19T12:12:36.234152+00:00
  0
ENDSEC
  0
EOF
