  0
SECTION
  2
HEADER
  9
$ACADVER
  1
AC1024
  9
$ACADMAINTVER
 70
6
  9
$DWGCODEPAGE
  3
ANSI_1252
  9
$LASTSAVEDBY
  1
ezdxf
  9
$INSBASE
 10
0.0
 20
0.0
 30
0.0
  9
$EXTMIN
 10
1e+20
 20
1e+20
 30
1e+20
  9
$EXTMAX
 10
-1e+20
 20
-1e+20
 30
-1e+20
  9
$LIMMIN
 10
0.0
 20
0.0
  9
$LIMMAX
 10
420.0
 20
297.0
  9
$ORTHOMODE
 70
0
  9
$REGENMODE
 70
1
  9
$FILLMODE
 70
1
  9
$QTEXTMODE
 70
0
  9
$MIRRTEXT
 70
1
  9
$LTSCALE
 40
1.0
  9
$ATTMODE
 70
1
  9
$TEXTSIZE
 40
2.5
  9
$TRACEWID
 40
1.0
  9
$TEXTSTYLE
  7
Standard
  9
$CLAYER
  8
0
  9
$CELTYPE
  6
ByLayer
  9
$CECOLOR
 62
256
  9
$CELTSCALE
 40
1.0
  9
$DISPSILH
 70
0
  9
$DIMSCALE
 40
1.0
  9
$DIMASZ
 40
2.5
  9
$DIMEXO
 40
0.625
  9
$DIMDLI
 40
3.75
  9
$DIMRND
 40
0.0
  9
$DIMDLE
 40
0.0
  9
$DIMEXE
 40
1.25
  9
$DIMTP
 40
0.0
  9
$DIMTM
 40
0.0
  9
$DIMTXT
 40
2.5
  9
$DIMCEN
 40
2.5
  9
$DIMTSZ
 40
0.0
  9
$DIMTOL
 70
0
  9
$DIMLIM
 70
0
  9
$DIMTIH
 70
0
  9
$DIMTOH
 70
0
  9
$DIMSE1
 70
0
  9
$DIMSE2
 70
0
  9
$DIMTAD
 70
1
  9
$DIMZIN
 70
8
  9
$DIMBLK
  1

  9
$DIMASO
 70
1
  9
$DIMSHO
 70
1
  9
$DIMPOST
  1

  9
$DIMAPOST
  1

  9
$DIMALT
 70
0
  9
$DIMALTD
 70
3
  9
$DIMALTF
 40
0.03937007874
  9
$DIMLFAC
 40
1.0
  9
$DIMTOFL
 70
1
  9
$DIMTVP
 40
0.0
  9
$DIMTIX
 70
0
  9
$DIMSOXD
 70
0
  9
$DIMSAH
 70
0
  9
$DIMBLK1
  1

  9
$DIMBLK2
  1

  9
$DIMSTYLE
  2
ISO-25
  9
$DIMCLRD
 70
0
  9
$DIMCLRE
 70
0
  9
$DIMCLRT
 70
0
  9
$DIMTFAC
 40
1.0
  9
$DIMGAP
 40
0.625
  9
$DIMJUST
 70
0
  9
$DIMSD1
 70
0
  9
$DIMSD2
 70
0
  9
$DIMTOLJ
 70
0
  9
$DIMTZIN
 70
8
  9
$DIMALTZ
 70
0
  9
$DIMALTTZ
 70
0
  9
$DIMUPT
 70
0
  9
$DIMDEC
 70
2
  9
$DIMTDEC
 70
2
  9
$DIMALTU
 70
2
  9
$DIMALTTD
 70
3
  9
$DIMTXSTY
  7
Standard
  9
$DIMAUNIT
 70
0
  9
$DIMADEC
 70
0
  9
$DIMALTRND
 40
0.0
  9
$DIMAZIN
 70
0
  9
$DIMDSEP
 70
44
  9
$DIMATFIT
 70
3
  9
$DIMFRAC
 70
0
  9
$DIMLDRBLK
  1

  9
$DIMLUNIT
 70
2
  9
$DIMLWD
 70
-2
  9
$DIMLWE
 70
-2
  9
$DIMTMOVE
 70
0
  9
$DIMFXL
 40
1.0
  9
$DIMFXLON
 70
0
  9
$DIMJOGANG
 40
0.785398163397
  9
$DIMTFILL
 70
0
  9
$DIMTFILLCLR
 70
0
  9
$DIMARCSYM
 70
0
  9
$DIMLTYPE
  6

  9
$DIMLTEX1
  6

  9
$DIMLTEX2
  6

  9
$DIMTXTDIRECTION
 70
0
  9
$LUNITS
 70
2
  9
$LUPREC
 70
4
  9
$SKETCHINC
 40
1.0
  9
$FILLETRAD
 40
10.0
  9
$AUNITS
 70
0
  9
$AUPREC
 70
2
  9
$MENU
  1
.
  9
$ELEVATION
 40
0.0
  9
$PELEVATION
 40
0.0
  9
$THICKNESS
 40
0.0
  9
$LIMCHECK
 70
0
  9
$CHAMFERA
 40
0.0
  9
$CHAMFERB
 40
0.0
  9
$CHAMFERC
 40
0.0
  9
$CHAMFERD
 40
0.0
  9
$SKPOLY
 70
0
  9
$TDCREATE
 40
2461308.070011574
  9
$TDUCREATE
 40
2458532.153996898
  9
$TDUPDATE
 40
2461308.070011574
  9
$TDUUPDATE
 40
2458532.1544311
  9
$TDINDWG
 40
0.0
  9
$TDUSRTIMER
 40
0.0
  9
$USRTIMER
 70
1
  9
$ANGBASE
 50
0.0
  9
$ANGDIR
 70
0
  9
$PDMODE
 70
0
  9
$PDSIZE
 40
0.0
  9
$PLINEWID
 40
0.0
  9
$SPLFRAME
 70
0
  9
$SPLINETYPE
 70
6
  9
$SPLINESEGS
 70
8
  9
$HANDSEED
  5
3E
  9
$SURFTAB1
 70
6
  9
$SURFTAB2
 70
6
  9
$SURFTYPE
 70
6
  9
$SURFU
 70
6
  9
$SURFV
 70
6
  9
$UCSBASE
  2

  9
$UCSNAME
  2

  9
$UCSORG
 10
0.0
 20
0.0
 30
0.0
  9
$UCSXDIR
 10
1.0
 20
0.0
 30
0.0
  9
$UCSYDIR
 10
0.0
 20
1.0
 30
0.0
  9
$UCSORTHOREF
  2

  9
$UCSORTHOVIEW
 70
0
  9
$UCSORGTOP
 10
0.0
 20
0.0
 30
0.0
  9
$UCSORGBOTTOM
 10
0.0
 20
0.0
 30
0.0
  9
$UCSORGLEFT
 10
0.0
 20
0.0
 30
0.0
  9
$UCSORGRIGHT
 10
0.0
 20
0.0
 30
0.0
  9
$UCSORGFRONT
 10
0.0
 20
0.0
 30
0.0
  9
$UCSORGBACK
 10
0.0
 20
0.0
 30
0.0
  9
$PUCSBASE
  2

  9
$PUCSNAME
  2

  9
$PUCSORG
 10
0.0
 20
0.0
 30
0.0
  9
$PUCSXDIR
 10
1.0
 20
0.0
 30
0.0
  9
$PUCSYDIR
 10
0.0
 20
1.0
 30
0.0
  9
$PUCSORTHOREF
  2

  9
$PUCSORTHOVIEW
 70
0
  9
$PUCSORGTOP
 10
0.0
 20
0.0
 30
0.0
  9
$PUCSORGBOTTOM
 10
0.0
 20
0.0
 30
0.0
  9
$PUCSORGLEFT
 10
0.0
 20
0.0
 30
0.0
  9
$PUCSORGRIGHT
 10
0.0
 20
0.0
 30
0.0
  9
$PUCSORGFRONT
 10
0.0
 20
0.0
 30
0.0
  9
$PUCSORGBACK
 10
0.0
 20
0.0
 30
0.0
  9
$USERI1
 70
0
  9
$USERI2
 70
0
  9
$USERI3
 70
0
  9
$USERI4
 70
0
  9
$USERI5
 70
0
  9
$USERR1
 40
0.0
  9
$USERR2
 40
0.0
  9
$USERR3
 40
0.0
  9
$USERR4
 40
0.0
  9
$USERR5
 40
0.0
  9
$WORLDVIEW
 70
1
  9
$SHADEDGE
 70
3
  9
$SHADEDIF
 70
70
  9
$TILEMODE
 70
1
  9
$MAXACTVP
 70
64
  9
$PINSBASE
 10
0.0
 20
0.0
 30
0.0
  9
$PLIMCHECK
 70
0
  9
$PEXTMIN
 10
1e+20
 20
1e+20
 30
1e+20
  9
$PEXTMAX
 10
-1e+20
 20
-1e+20
 30
-1e+20
  9
$PLIMMIN
 10
0.0
 20
0.0
  9
$PLIMMAX
 10
420.0
 20
297.0
  9
$UNITMODE
 70
0
  9
$VISRETAIN
 70
1
  9
$PLINEGEN
 70
0
  9
$PSLTSCALE
 70
1
  9
$TREEDEPTH
 70
3020
  9
$CMLSTYLE
  2
Standard
  9
$CMLJUST
 70
0
  9
$CMLSCALE
 40
20.0
  9
$PROXYGRAPHICS
 70
1
  9
$MEASUREMENT
 70
1
  9
$CELWEIGHT
370
-1
  9
$ENDCAPS
280
0
  9
$JOINSTYLE
280
0
  9
$LWDISPLAY
290
0
  9
$INSUNITS
 70
4
  9
$HYPERLINKBASE
  1

  9
$STYLESHEET
  1

  9
$XEDIT
290
1
  9
$CEPSNTYPE
380
0
  9
$PSTYLEMODE
290
1
  9
$FINGERPRINTGUID
  2
{B60F4F5C-F8A8-4874-B371-AA27663F0585}
  9
$VERSIONGUID
  2
{68744063-C87F-4C1F-84D2-6A50CF697A0A}
  9
$EXTNAMES
290
1
  9
$PSVPSCALE
 40
0.0
  9
$OLESTARTUP
290
0
  9
$SORTENTS
280
127
  9
$INDEXCTL
280
0
  9
$HIDETEXT
280
1
  9
$XCLIPFRAME
280
1
  9
$HALOGAP
280
0
  9
$OBSCOLOR
 70
257
  9
$OBSLTYPE
280
0
  9
$INTERSECTIONDISPLAY
280
0
  9
$INTERSECTIONCOLOR
 70
257
  9
$DIMASSOC
280
2
  9
$PROJECTNAME
  1

  9
$CAMERADISPLAY
290
0
  9
$LENSLENGTH
 40
50.0
  9
$CAMERAHEIGHT
 40
0.0
  9
$STEPSPERSEC
 40
24.0
  9
$STEPSIZE
 40
100.0
  9
$3DDWFPREC
 40
2.0
  9
$PSOLWIDTH
 40
0.005
  9
$PSOLHEIGHT
 40
0.08
  9
$LOFTANG1
 40
1.570796326795
  9
$LOFTANG2
 40
1.570796326795
  9
$LOFTMAG1
 40
0.0
  9
$LOFTMAG2
 40
0.0
  9
$LOFTPARAM
 70
7
  9
$LOFTNORMALS
280
1
  9
$LATITUDE
 40
37.795
  9
$LONGITUDE
 40
-122.394
  9
$NORTHDIRECTION
 40
0.0
  9
$TIMEZONE
 70
-8000
  9
$LIGHTGLYPHDISPLAY
280
1
  9
$TILEMODELIGHTSYNCH
280
1
  9
$CMATERIAL
347
20
  9
$SOLIDHIST
280
0
  9
$SHOWHIST
280
1
  9
$DWFFRAME
280
2
  9
$DGNFRAME
280
2
  9
$REALWORLDSCALE
290
1
  9
$INTERFERECOLOR
 62
256
  9
$CSHADOW
280
0
  9
$SHADOWPLANELOCATION
 40
0.0
  0
ENDSEC
  0
SECTION
  2
CLASSES
  0
CLASS
  1
ACDBDICTIONARYWDFLT
  2
AcDbDictionaryWithDefault
  3
ObjectDBX Classes
 90
0
 91
0
280
0
281
0
  0
CLASS
  1
SUN
  2
AcDbSun
  3
SCENEOE
 90
1153
 91
0
280
0
281
0
  0
CLASS
  1
VISUALSTYLE
  2
AcDbVisualStyle
  3
ObjectDBX Classes
 90
4095
 91
0
280
0
281
0
  0
CLASS
  1
MATERIAL
  2
AcDbMaterial
  3
ObjectDBX Classes
 90
1153
 91
0
280
0
281
0
  0
CLASS
  1
SCALE
  2
AcDbScale
  3
ObjectDBX Classes
 90
1153
 91
0
280
0
281
0
  0
CLASS
  1
TABLESTYLE
  2
AcDbTableStyle
  3
ObjectDBX Classes
 90
4095
 91
0
280
0
281
0
  0
CLASS
  1
MLEADERSTYLE
  2
AcDbMLeaderStyle
  3
ACDB_MLEADERSTYLE_CLASS
 90
4095
 91
0
280
0
281
0
  0
CLASS
  1
DICTIONARYVAR
  2
AcDbDictionaryVar
  3
ObjectDBX Classes
 90
0
 91
0
280
0
281
0
  0
CLASS
  1
CELLSTYLEMAP
  2
AcDbCellStyleMap
  3
ObjectDBX Classes
 90
1152
 91
0
280
0
281
0
  0
CLASS
  1
MENTALRAYRENDERSETTINGS
  2
AcDbMentalRayRenderSettings
  3
SCENEOE
 90
1024
 91
0
280
0
281
0
  0
CLASS
  1
ACDBDETAILVIEWSTYLE
  2
AcDbDetailViewStyle
  3
ObjectDBX Classes
 90
1025
 91
0
280
0
281
0
  0
CLASS
  1
ACDBSECTIONVIEWSTYLE
  2
AcDbSectionViewStyle
  3
ObjectDBX Classes
 90
1025
 91
0
280
0
281
0
  0
CLASS
  1
RASTERVARIABLES
  2
AcDbRasterVariables
  3
ISM
 90
0
 91
0
280
0
281
0
  0
CLASS
  1
LAYOUT
  2
AcDbLayout
  3
ObjectDBX Classes
 90
0
 91
0
280
0
281
0
  0
CLASS
  1
ACDBPLACEHOLDER
  2
AcDbPlaceHolder
  3
ObjectDBX Classes
 90
0
 91
0
280
0
281
0
  0
ENDSEC
  0
SECTION
  2
TABLES
  0
TABLE
  2
VPORT
  5
8
330
0
100
AcDbSymbolTable
 70
1
  0
VPORT
  5
23
330
8
100
AcDbSymbolTableRecord
100
AcDbViewportTableRecord
  2
*Active
 70
0
 10
0.0
 20
0.0
 11
1.0
 21
1.0
 12
0.0
 22
0.0
 13
0.0
 23
0.0
 14
0.5
 24
0.5
 15
0.5
 25
0.5
 16
0.0
 26
0.0
 36
1.0
 17
0.0
 27
0.0
 37
0.0
 40
1000.0
 41
1.34
 42
50.0
 43
0.0
 44
0.0
 50
0.0
 51
0.0
 71
0
 72
1000
 73
1
 74
3
 75
0
 76
0
 77
0
 78
0
281
0
 65
0
146
0.0
  0
ENDTAB
  0
TABLE
  2
LTYPE
  5
2
330
0
100
AcDbSymbolTable
 70
3
  0
LTYPE
  5
24
330
2
100
AcDbSymbolTableRecord
100
AcDbLinetypeTableRecord
  2
ByBlock
 70
0
  3

 72
65
 73
0
 40
0.0
  0
LTYPE
  5
25
330
2
100
AcDbSymbolTableRecord
100
AcDbLinetypeTableRecord
  2
ByLayer
 70
0
  3

 72
65
 73
0
 40
0.0
  0
LTYPE
  5
26
330
2
100
AcDbSymbolTableRecord
100
AcDbLinetypeTableRecord
  2
Continuous
 70
0
  3

 72
65
 73
0
 40
0.0
  0
ENDTAB
  0
TABLE
  2
LAYER
  5
1
330
0
100
AcDbSymbolTable
 70
6
  0
LAYER
  5
27
330
1
100
AcDbSymbolTableRecord
100
AcDbLayerTableRecord
  2
0
 70
0
 62
7
  6
Continuous
370
-3
390
13
347
21
  0
LAYER
  5
28
330
1
100
AcDbSymbolTableRecord
100
AcDbLayerTableRecord
  2
Defpoints
 70
0
 62
7
  6
Continuous
290
0
370
-3
390
13
347
21
  0
LAYER
  5
2F
330
1
100
AcDbSymbolTableRecord
100
AcDbLayerTableRecord
  2
CUT
 70
0
 62
7
  6
Continuous
370
-3
390
13
347
21
  0
LAYER
  5
30
330
1
100
AcDbSymbolTableRecord
100
AcDbLayerTableRecord
  2
MARK_DO_NOT_CUT
 70
0
 62
5
  6
Continuous
370
-3
390
13
347
21
  0
LAYER
  5
31
330
1
100
AcDbSymbolTableRecord
100
AcDbLayerTableRecord
  2
LABEL_DO_NOT_CUT
 70
0
 62
3
  6
Continuous
370
-3
390
13
347
21
  0
LAYER
  5
32
330
1
100
AcDbSymbolTableRecord
100
AcDbLayerTableRecord
  2
STOCK_DO_NOT_CUT
 70
0
 62
8
  6
Continuous
370
-3
390
13
347
21
  0
ENDTAB
  0
TABLE
  2
STYLE
  5
5
330
0
100
AcDbSymbolTable
 70
1
  0
STYLE
  5
29
330
5
100
AcDbSymbolTableRecord
100
AcDbTextStyleTableRecord
  2
Standard
 70
0
 40
0.0
 41
1.0
 50
0.0
 71
0
 42
2.5
  3
txt
  4

  0
ENDTAB
  0
TABLE
  2
VIEW
  5
7
330
0
100
AcDbSymbolTable
 70
0
  0
ENDTAB
  0
TABLE
  2
UCS
  5
6
330
0
100
AcDbSymbolTable
 70
0
  0
ENDTAB
  0
TABLE
  2
APPID
  5
3
330
0
100
AcDbSymbolTable
 70
3
  0
APPID
  5
2A
330
3
100
AcDbSymbolTableRecord
100
AcDbRegAppTableRecord
  2
ACAD
 70
0
  0
APPID
  5
3B
330
3
100
AcDbSymbolTableRecord
100
AcDbRegAppTableRecord
  2
HATCHBACKGROUNDCOLOR
 70
0
  0
APPID
  5
3C
330
3
100
AcDbSymbolTableRecord
100
AcDbRegAppTableRecord
  2
EZDXF
 70
0
  0
ENDTAB
  0
TABLE
  2
DIMSTYLE
  5
4
330
0
100
AcDbSymbolTable
 70
1
100
AcDbDimStyleTable
  0
DIMSTYLE
105
2B
330
4
100
AcDbSymbolTableRecord
100
AcDbDimStyleTableRecord
  2
Standard
 70
0
 40
1.0
 41
2.5
 42
0.625
 43
3.75
 44
1.25
 45
0.0
 46
0.0
 47
0.0
 48
0.0
 49
2.5
140
2.5
141
2.5
142
0.0
143
0.03937007874
144
1.0
145
0.0
146
1.0
147
0.625
148
0.0
 69
0
 70
0
 71
0
 72
0
 73
0
 74
0
 75
0
 76
0
 77
1
 78
8
 79
3
170
0
171
3
172
1
173
0
174
0
175
0
176
0
177
0
178
0
179
2
271
2
272
2
273
2
274
3
275
0
276
0
277
2
278
44
279
0
280
0
281
0
282
0
283
0
284
8
285
0
286
0
288
0
289
3
290
0
371
-2
372
-2
  0
ENDTAB
  0
TABLE
  2
BLOCK_RECORD
  5
9
330
0
100
AcDbSymbolTable
 70
2
  0
BLOCK_RECORD
  5
17
330
9
100
AcDbSymbolTableRecord
100
AcDbBlockTableRecord
  2
*Model_Space
340
1A
 70
0
280
1
281
0
  0
BLOCK_RECORD
  5
1B
330
9
100
AcDbSymbolTableRecord
100
AcDbBlockTableRecord
  2
*Paper_Space
340
1E
 70
0
280
1
281
0
  0
ENDTAB
  0
ENDSEC
  0
SECTION
  2
BLOCKS
  0
BLOCK
  5
18
330
17
100
AcDbEntity
  8
0
100
AcDbBlockBegin
  2
*Model_Space
 70
0
 10
0.0
 20
0.0
 30
0.0
  3
*Model_Space
  1

  0
ENDBLK
  5
19
330
17
100
AcDbEntity
  8
0
100
AcDbBlockEnd
  0
BLOCK
  5
1C
330
1B
100
AcDbEntity
  8
0
100
AcDbBlockBegin
  2
*Paper_Space
 70
0
 10
0.0
 20
0.0
 30
0.0
  3
*Paper_Space
  1

  0
ENDBLK
  5
1D
330
1B
100
AcDbEntity
  8
0
100
AcDbBlockEnd
  0
ENDSEC
  0
SECTION
  2
ENTITIES
  0
LWPOLYLINE
  5
33
330
17
100
AcDbEntity
  8
STOCK_DO_NOT_CUT
100
AcDbPolyline
 90
4
 70
1
 10
0.0
 20
0.0
 10
600.0
 20
0.0
 10
600.0
 20
457.2
 10
0.0
 20
457.2
  0
LWPOLYLINE
  5
34
330
17
100
AcDbEntity
  8
CUT
100
AcDbPolyline
 90
147
 70
1
 10
511.58518
 20
228.69413
 10
512.71331
 20
215.94873
 10
508.55408
 20
215.561
 10
508.70288999999997
 20
213.96806
 10
508.85167
 20
212.37506
 10
509.00037
 20
210.78205
 10
507.25791
 20
210.6192
 10
495.54481
 20
209.52616
 10
497.26784
 20
191.13231
 10
508.97535999999997
 20
192.28082
 10
509.75121
 20
183.99398
 10
511.49322
 20
184.16159
 10
511.93917999999996
 20
179.38235
 10
515.92449
 20
179.76999
 10
517.5811199999999
 20
161.53884
 10
518.42347
 20
152.43896
 10
518.68136
 20
149.68202
 10
518.80141
 20
148.40637
 10
518.86555
 20
147.71651
 10
518.93056
 20
147.02265
 10
518.99548
 20
146.32075
 10
519.06513
 20
145.57104
 10
519.14354
 20
144.72168
 10
519.29775
 20
143.05891
 10
519.40085
 20
141.9296
 10
519.43252
 20
141.57363
 10
519.46376
 20
141.21743
 10
519.491
 20
140.89626
 10
519.51227
 20
140.63671
 10
519.5263
 20
140.45925
 10
519.53926
 20
140.2822
 10
519.55359
 20
140.08602
 10
519.56975
 20
139.83614
 10
519.59246
 20
139.47496
 10
519.60927
 20
139.19688
 10
519.6191
 20
139.01976
 10
519.62964
 20
138.80919
 10
519.64685
 20
138.4379
 10
519.65657
 20
138.21074
 10
519.66265
 20
138.05122
 10
519.66653
 20
137.93258
 10
519.67002
 20
137.80282
 10
519.67247
 20
137.68277
 10
519.67414
 20
137.57487
 10
519.67519
 20
137.46711
 10
519.67566
 20
137.3594
 10
519.67563
 20
137.25164
 10
519.67516
 20
137.14383
 10
519.6743299999999
 20
137.03608
 10
519.67259
 20
136.89278
 10
519.66993
 20
136.73197
 10
519.6667
 20
136.57128
 10
519.66167
 20
136.35691
 10
519.65515
 20
136.11541
 10
519.64587
 20
135.79325
 10
519.62942
 20
135.31
 10
519.59741
 20
134.49303
 10
519.56796
 20
133.76837
 10
519.53112
 20
132.95469
 10
519.49193
 20
132.14154
 10
519.43516
 20
131.05685
 10
519.36867
 20
129.83915
 10
519.30013
 20
128.62782
 10
519.06051
 20
124.60588
 10
518.8332
 20
120.98442
 10
518.57237
 20
116.90365
 10
518.30394
 20
112.84403
 10
517.93871
 20
107.45581
 10
517.51616
 20
101.40903
 10
517.0847
 20
95.36052
 10
516.39342
 20
85.77988
 10
515.61469
 20
75.13313
 10
514.55422
 20
60.89599
 10
513.5045700000001
 20
46.65045
 10
373.91603999999995
 20
56.76022
 10
234.48442
 20
66.23143
 10
233.88925
 20
55.00171
 10
233.18025999999998
 20
43.78459
 10
231.99788999999998
 20
25.42442
 10
230.67723999999998
 20
5.0
 10
5.0
 20
31.94486
 10
5.74508000000003
 20
43.0907
 10
6.464339999999993
 20
54.2367
 10
7.389149999999972
 20
68.59655
 10
8.11256000000003
 20
79.68829
 10
8.754800000000046
 20
89.54525
 10
9.331729999999993
 20
98.55144
 10
9.907410000000027
 20
107.88624
 10
10.11229000000003
 20
111.17029
 10
10.30934000000002
 20
114.45483
 10
10.50974999999994
 20
117.73858
 10
10.684549999999945
 20
120.65748
 10
10.813909999999964
 20
122.84657
 10
10.923940000000016
 20
124.79284
 10
10.992349999999988
 20
126.0905
 10
11.047450000000026
 20
127.06355
 10
11.09838000000002
 20
127.92809
 10
11.131290000000035
 20
128.5769
 10
11.162090000000035
 20
129.22584
 10
11.192760000000021
 20
129.87496
 10
11.223769999999945
 20
130.57579
 10
11.276640000000043
 20
131.85781
 10
11.290380000000027
 20
132.19989
 10
11.299120000000016
 20
132.42793
 10
11.30526999999995
 20
132.59899
 10
11.310339999999997
 20
132.75109
 10
11.313539999999989
 20
132.86517
 10
11.316130000000044
 20
132.97929
 10
11.31854999999996
 20
133.08071
 10
11.320320000000038
 20
133.15673
 10
11.321950000000015
 20
133.23273
 10
11.32335999999998
 20
133.30877
 10
11.32438000000002
 20
133.38485
 10
11.324979999999982
 20
133.46098
 10
11.325309999999945
 20
133.53724
 10
11.32528000000002
 20
133.61373
 10
11.324929999999995
 20
133.69041
 10
11.324349999999981
 20
133.76821
 10
11.323210000000017
 20
133.84705
 10
11.32168999999999
 20
133.92573
 10
11.319920000000025
 20
134.00411
 10
11.317609999999945
 20
134.09092
 10
11.314219999999978
 20
134.19805
 10
11.309679999999958
 20
134.31715
 10
11.304219999999987
 20
134.44947
 10
11.29776000000004
 20
134.59241
 10
11.291299999999978
 20
134.7231
 10
11.282060000000001
 20
134.89731
 10
11.270250000000033
 20
135.10646
 10
11.260760000000005
 20
135.26467
 10
11.25093000000004
 20
135.42277
 10
11.240949999999998
 20
135.58074
 10
11.23190999999997
 20
135.72251
 10
11.222149999999942
 20
135.86428
 10
11.205460000000016
 20
136.10203
 10
11.189679999999953
 20
136.31974
 10
11.168180000000007
 20
136.60984
 10
11.12203999999997
 20
137.23496
 10
10.963020000000029
 20
139.29182
 10
10.857349999999997
 20
140.66316
 10
10.261989999999969
 20
147.97368
 10
9.446699999999964
 20
157.71975
 10
8.323350000000005
 20
170.93446
 10
5.0
 20
210.62747
 10
229.96629000000001
 20
242.07398
 10
232.861
 20
204.17337
 10
372.15772
 20
216.16781
  0
TEXT
  5
35
330
17
100
AcDbEntity
  8
LABEL_DO_NOT_CUT
100
AcDbText
 10
516.861182580055
 20
117.6368415467364
 30
0.0
 40
2.0
  1
ROOT
 50
90.0
100
AcDbText
  0
TEXT
  5
36
330
17
100
AcDbEntity
  8
LABEL_DO_NOT_CUT
100
AcDbText
 10
10.605288418243617
 20
127.2010948886805
 30
0.0
 40
2.0
  1
TIP
 50
90.0
100
AcDbText
  0
TEXT
  5
37
330
17
100
AcDbEntity
  8
LABEL_DO_NOT_CUT
100
AcDbText
 10
519.666525249398
 20
137.93257815165333
 30
0.0
 40
2.0
  1
LEADING EDGE
 50
90.0
100
AcDbText
  0
TEXT
  5
38
330
17
100
AcDbEntity
  8
LABEL_DO_NOT_CUT
100
AcDbText
 10
264.9344682373689
 20
123.726225
 30
0.0
 40
3.0
  1
FW04
100
AcDbText
  0
LWPOLYLINE
  5
39
330
17
100
AcDbEntity
  8
CUT
100
AcDbPolyline
 90
137
 70
1
 10
14.361319999999978
 20
258.1685
 10
14.861930000000001
 20
262.41657
 10
15.077199999999976
 20
264.36503
 10
15.218969999999985
 20
265.9092
 10
15.34162999999998
 20
267.54137000000003
 10
15.432969999999983
 20
269.07669
 10
15.513479999999987
 20
270.76248
 10
15.567559999999986
 20
272.49583
 10
15.593619999999987
 20
274.08769
 10
15.590249999999997
 20
275.53972
 10
15.57822999999999
 20
277.00376
 10
15.552539999999993
 20
278.47419
 10
15.512059999999991
 20
279.94396
 10
15.463129999999978
 20
281.40734
 10
15.387809999999973
 20
282.85798
 10
15.314409999999981
 20
284.29014
 10
15.23227
 20
285.6966
 10
15.145639999999986
 20
287.06961
 10
15.057369999999992
 20
288.40216
 10
14.96683999999999
 20
289.68485
 10
14.815829999999977
 20
291.30622
 10
14.66977
 20
292.99451
 10
14.541089999999997
 20
294.51523
 10
14.359819999999985
 20
296.23186
 10
14.199639999999988
 20
297.68066
 10
13.971319999999992
 20
299.97469
 10
13.69928999999999
 20
302.26325
 10
13.498609999999985
 20
303.93644
 10
13.290399999999977
 20
305.60879
 10
13.076929999999976
 20
307.27919
 10
12.878309999999999
 20
308.94906000000003
 10
12.696699999999993
 20
310.61738
 10
12.476759999999985
 20
312.27413
 10
12.22247999999999
 20
313.92060000000004
 10
11.988979999999998
 20
315.56422
 10
11.736989999999992
 20
317.19658000000004
 10
11.476579999999984
 20
318.82056
 10
11.208129999999983
 20
320.43351
 10
10.93786
 20
322.03828
 10
10.67013
 20
323.63332
 10
10.376029999999986
 20
325.21581000000003
 10
10.072059999999993
 20
326.78913
 10
9.761289999999974
 20
328.35329
 10
9.46026999999998
 20
329.9119
 10
9.190529999999995
 20
331.46711
 10
8.908259999999984
 20
333.01296
 10
8.574649999999991
 20
334.54116
 10
8.23447999999999
 20
336.0627
 10
7.870909999999981
 20
337.57257
 10
7.470939999999985
 20
339.06953
 10
7.067349999999976
 20
340.56198
 10
6.65652
 20
341.95321
 10
6.036669999999987
 20
344.00946
 10
5.0
 20
347.44645
 10
17.158559999999994
 20
351.58596
 10
29.39887999999999
 20
355.59077
 10
40.46575999999999
 20
359.1615
 10
51.56416999999999
 20
362.5683
 10
64.05954
 20
366.219
 10
76.63138999999998
 20
369.84874
 10
90.02785
 20
373.46517
 10
103.49066999999998
 20
376.96014
 10
117.66564999999999
 20
380.45969
 10
131.88213
 20
383.76576
 10
144.79251
 20
386.6078
 10
157.72916999999998
 20
389.28430000000003
 10
170.59872
 20
391.87435
 10
183.47854999999998
 20
394.30476
 10
197.93977999999998
 20
396.89455
 10
212.38968
 20
399.42206
 10
212.89482999999998
 20
396.55205
 10
213.39290999999997
 20
393.67917
 10
213.93702
 20
390.46722
 10
214.48458
 20
387.25373
 10
215.04380999999998
 20
384.03817000000004
 10
215.57835999999998
 20
380.81768
 10
216.12350999999998
 20
377.59899
 10
216.66622999999998
 20
374.37488
 10
217.21481999999997
 20
371.15173
 10
217.75339
 20
367.91973
 10
218.26550999999998
 20
364.68448
 10
218.75984
 20
361.44638
 10
219.24089999999998
 20
358.20607
 10
219.71865
 20
354.96061
 10
220.17152
 20
351.71172
 10
220.62572999999998
 20
348.46027000000004
 10
221.04827999999998
 20
345.20272
 10
221.45991999999998
 20
341.94376
 10
221.91241
 20
338.67978
 10
222.31438999999997
 20
335.40958
 10
222.70245
 20
332.13778
 10
223.07990999999998
 20
328.86670000000004
 10
223.3285
 20
326.61353
 10
223.54663
 20
324.35699999999997
 10
223.78108999999998
 20
322.14032
 10
224.02011
 20
319.86831
 10
224.25824999999998
 20
317.20284000000004
 10
224.50059
 20
314.61414
 10
224.73542999999998
 20
311.58436
 10
225.00126999999998
 20
308.5809
 10
225.17987
 20
306.15722
 10
225.39412
 20
303.61037
 10
225.60387999999998
 20
300.95762
 10
225.81216999999998
 20
298.21959
 10
226.03540999999998
 20
295.41643
 10
226.24564999999998
 20
292.56385
 10
226.44059
 20
289.67882000000003
 10
226.64801
 20
286.78089
 10
226.84125999999998
 20
283.88926000000004
 10
227.03506
 20
281.02477
 10
227.21665
 20
278.20387
 10
227.39452999999997
 20
275.44502
 10
227.58062999999999
 20
272.6147
 10
227.76621
 20
269.89876
 10
227.99013
 20
266.29911
 10
228.20777999999999
 20
262.96047
 10
228.42887
 20
259.64576
 10
228.64291999999998
 20
256.33105
 10
228.86549
 20
253.01729
 10
229.0955
 20
249.70412000000002
 10
217.30434
 20
248.79333
 10
205.4819
 20
247.93135
 10
193.62435
 20
247.21814
 10
181.72362999999999
 20
246.65732
 10
171.1311
 20
246.31446
 10
160.52388
 20
246.11903
 10
149.87561
 20
246.07398
 10
139.22411999999997
 20
246.17174
 10
121.24353999999998
 20
246.68568000000002
 10
109.54913999999998
 20
247.2456
 10
97.86166
 20
247.98604
 10
86.33521999999999
 20
248.89932000000002
 10
74.82902999999999
 20
249.98806000000002
 10
56.96215999999998
 20
252.01881
 10
46.258399999999995
 20
253.4187
 10
35.584209999999985
 20
254.92337
 10
24.945809999999994
 20
256.52664
  0
TEXT
  5
3A
330
17
100
AcDbEntity
  8
LABEL_DO_NOT_CUT
100
AcDbText
 10
117.24878165769398
 20
322.88682
 30
0.0
 40
3.0
  1
FW11
100
AcDbText
  0
ENDSEC
  0
SECTION
  2
OBJECTS
  0
DICTIONARY
  5
A
330
0
100
AcDbDictionary
281
1
  3
ACAD_COLOR
350
B
  3
ACAD_GROUP
350
C
  3
ACAD_LAYOUT
350
D
  3
ACAD_MATERIAL
350
E
  3
ACAD_MLEADERSTYLE
350
F
  3
ACAD_MLINESTYLE
350
10
  3
ACAD_PLOTSETTINGS
350
11
  3
ACAD_PLOTSTYLENAME
350
12
  3
ACAD_SCALELIST
350
14
  3
ACAD_TABLESTYLE
350
15
  3
ACAD_VISUALSTYLE
350
16
  3
EZDXF_META
350
2D
  0
DICTIONARY
  5
B
330
A
100
AcDbDictionary
281
1
  0
DICTIONARY
  5
C
330
A
100
AcDbDictionary
281
1
  0
DICTIONARY
  5
D
330
A
100
AcDbDictionary
281
1
  3
Model
350
1A
  3
Layout1
350
1E
  0
DICTIONARY
  5
E
330
A
100
AcDbDictionary
281
1
  3
ByBlock
350
1F
  3
ByLayer
350
20
  3
Global
350
21
  0
DICTIONARY
  5
F
330
A
100
AcDbDictionary
281
1
  3
Standard
350
2C
  0
DICTIONARY
  5
10
330
A
100
AcDbDictionary
281
1
  3
Standard
350
22
  0
DICTIONARY
  5
11
330
A
100
AcDbDictionary
281
1
  0
ACDBDICTIONARYWDFLT
  5
12
330
A
100
AcDbDictionary
281
1
  3
Normal
350
13
100
AcDbDictionaryWithDefault
340
13
  0
ACDBPLACEHOLDER
  5
13
330
12
  0
DICTIONARY
  5
14
330
A
100
AcDbDictionary
281
1
  0
DICTIONARY
  5
15
330
A
100
AcDbDictionary
281
1
  0
DICTIONARY
  5
16
330
A
100
AcDbDictionary
281
1
  0
LAYOUT
  5
1A
330
D
100
AcDbPlotSettings
  1

  4
A3
  6

 40
7.5
 41
20.0
 42
7.5
 43
20.0
 44
420.0
 45
297.0
 46
0.0
 47
0.0
 48
0.0
 49
0.0
140
0.0
141
0.0
142
1.0
143
1.0
 70
1024
 72
1
 73
0
 74
5
  7

 75
16
 76
0
 77
2
 78
300
147
1.0
148
0.0
149
0.0
100
AcDbLayout
  1
Model
 70
1
 71
0
 10
0.0
 20
0.0
 11
420.0
 21
297.0
 12
0.0
 22
0.0
 32
0.0
 14
1e+20
 24
1e+20
 34
1e+20
 15
-1e+20
 25
-1e+20
 35
-1e+20
146
0.0
 13
0.0
 23
0.0
 33
0.0
 16
1.0
 26
0.0
 36
0.0
 17
0.0
 27
1.0
 37
0.0
 76
1
330
17
  0
LAYOUT
  5
1E
330
D
100
AcDbPlotSettings
  1

  4
A3
  6

 40
7.5
 41
20.0
 42
7.5
 43
20.0
 44
420.0
 45
297.0
 46
0.0
 47
0.0
 48
0.0
 49
0.0
140
0.0
141
0.0
142
1.0
143
1.0
 70
0
 72
1
 73
0
 74
5
  7

 75
16
 76
0
 77
2
 78
300
147
1.0
148
0.0
149
0.0
100
AcDbLayout
  1
Layout1
 70
1
 71
1
 10
0.0
 20
0.0
 11
420.0
 21
297.0
 12
0.0
 22
0.0
 32
0.0
 14
1e+20
 24
1e+20
 34
1e+20
 15
-1e+20
 25
-1e+20
 35
-1e+20
146
0.0
 13
0.0
 23
0.0
 33
0.0
 16
1.0
 26
0.0
 36
0.0
 17
0.0
 27
1.0
 37
0.0
 76
1
330
1B
  0
MATERIAL
  5
1F
102
{ACAD_REACTORS
330
E
102
}
330
E
100
AcDbMaterial
  1
ByBlock
  2

 70
0
 40
1.0
 71
1
 41
1.0
 91
-1023410177
 42
1.0
 72
1
  3

 73
1
 74
1
 75
1
 44
0.5
 73
0
 45
1.0
 46
1.0
 77
1
  4

 78
1
 79
1
170
1
 48
1.0
171
1
  6

172
1
173
1
174
1
140
1.0
141
1.0
175
1
  7

176
1
177
1
178
1
143
1.0
179
1
  8

270
1
271
1
272
1
145
1.0
146
1.0
273
1
  9

274
1
275
1
276
1
 42
1.0
 72
1
  3

 73
1
 74
1
 75
1
 94
63
  0
MATERIAL
  5
20
102
{ACAD_REACTORS
330
E
102
}
330
E
100
AcDbMaterial
  1
ByLayer
  2

 70
0
 40
1.0
 71
1
 41
1.0
 91
-1023410177
 42
1.0
 72
1
  3

 73
1
 74
1
 75
1
 44
0.5
 73
0
 45
1.0
 46
1.0
 77
1
  4

 78
1
 79
1
170
1
 48
1.0
171
1
  6

172
1
173
1
174
1
140
1.0
141
1.0
175
1
  7

176
1
177
1
178
1
143
1.0
179
1
  8

270
1
271
1
272
1
145
1.0
146
1.0
273
1
  9

274
1
275
1
276
1
 42
1.0
 72
1
  3

 73
1
 74
1
 75
1
 94
63
  0
MATERIAL
  5
21
102
{ACAD_REACTORS
330
E
102
}
330
E
100
AcDbMaterial
  1
Global
  2

 70
0
 40
1.0
 71
1
 41
1.0
 91
-1023410177
 42
1.0
 72
1
  3

 73
1
 74
1
 75
1
 44
0.5
 73
0
 45
1.0
 46
1.0
 77
1
  4

 78
1
 79
1
170
1
 48
1.0
171
1
  6

172
1
173
1
174
1
140
1.0
141
1.0
175
1
  7

176
1
177
1
178
1
143
1.0
179
1
  8

270
1
271
1
272
1
145
1.0
146
1.0
273
1
  9

274
1
275
1
276
1
 42
1.0
 72
1
  3

 73
1
 74
1
 75
1
 94
63
  0
MLINESTYLE
  5
22
102
{ACAD_REACTORS
330
10
102
}
330
10
100
AcDbMlineStyle
  2
Standard
 70
0
  3

 62
256
 51
90.0
 52
90.0
 71
2
 49
0.5
 62
256
  6
BYLAYER
 49
-0.5
 62
256
  6
BYLAYER
  0
MLEADERSTYLE
  5
2C
102
{ACAD_REACTORS
330
F
102
}
330
F
100
AcDbMLeaderStyle
179
2
170
2
171
1
172
0
 90
2
 40
0.0
 41
0.0
173
1
 91
-1056964608
 92
-2
290
1
 42
2.0
291
1
 43
8.0
  3
Standard
 44
4.0
300

342
29
174
1
175
1
176
0
178
1
 93
-1056964608
 45
4.0
292
0
297
0
 46
4.0
 94
-1056964608
 47
1.0
 49
1.0
140
1.0
294
1
141
0.0
177
0
142
1.0
295
0
296
0
143
3.75
271
0
272
9
273
9
  0
DICTIONARY
  5
2D
330
A
100
AcDbDictionary
280
1
281
1
  3
CREATED_BY_EZDXF
350
2E
  3
WRITTEN_BY_EZDXF
350
3D
  0
DICTIONARYVAR
  5
2E
330
2D
100
DictionaryVariables
280
0
  1
1.4.4 @ 2026-09-23T20:10:49.317146+00:00
  0
DICTIONARYVAR
  5
3D
330
2D
100
DictionaryVariables
280
0
  1
1.4.4 @ 2026-09-23T20:10:49.333583+00:00
  0
ENDSEC
  0
EOF
