  0
SECTION
  2
HEADER
  9
$ACADVER
  1
AC1024
  9
$ACADMAINTVER
 70
6
  9
$DWGCODEPAGE
  3
ANSI_1252
  9
$LASTSAVEDBY
  1
ezdxf
  9
$INSBASE
 10
0.0
 20
0.0
 30
0.0
  9
$EXTMIN
 10
1e+20
 20
1e+20
 30
1e+20
  9
$EXTMAX
 10
-1e+20
 20
-1e+20
 30
-1e+20
  9
$LIMMIN
 10
0.0
 20
0.0
  9
$LIMMAX
 10
420.0
 20
297.0
  9
$ORTHOMODE
 70
0
  9
$REGENMODE
 70
1
  9
$FILLMODE
 70
1
  9
$QTEXTMODE
 70
0
  9
$MIRRTEXT
 70
1
  9
$LTSCALE
 40
1.0
  9
$ATTMODE
 70
1
  9
$TEXTSIZE
 40
2.5
  9
$TRACEWID
 40
1.0
  9
$TEXTSTYLE
  7
Standard
  9
$CLAYER
  8
0
  9
$CELTYPE
  6
ByLayer
  9
$CECOLOR
 62
256
  9
$CELTSCALE
 40
1.0
  9
$DISPSILH
 70
0
  9
$DIMSCALE
 40
1.0
  9
$DIMASZ
 40
2.5
  9
$DIMEXO
 40
0.625
  9
$DIMDLI
 40
3.75
  9
$DIMRND
 40
0.0
  9
$DIMDLE
 40
0.0
  9
$DIMEXE
 40
1.25
  9
$DIMTP
 40
0.0
  9
$DIMTM
 40
0.0
  9
$DIMTXT
 40
2.5
  9
$DIMCEN
 40
2.5
  9
$DIMTSZ
 40
0.0
  9
$DIMTOL
 70
0
  9
$DIMLIM
 70
0
  9
$DIMTIH
 70
0
  9
$DIMTOH
 70
0
  9
$DIMSE1
 70
0
  9
$DIMSE2
 70
0
  9
$DIMTAD
 70
1
  9
$DIMZIN
 70
8
  9
$DIMBLK
  1

  9
$DIMASO
 70
1
  9
$DIMSHO
 70
1
  9
$DIMPOST
  1

  9
$DIMAPOST
  1

  9
$DIMALT
 70
0
  9
$DIMALTD
 70
3
  9
$DIMALTF
 40
0.03937007874
  9
$DIMLFAC
 40
1.0
  9
$DIMTOFL
 70
1
  9
$DIMTVP
 40
0.0
  9
$DIMTIX
 70
0
  9
$DIMSOXD
 70
0
  9
$DIMSAH
 70
0
  9
$DIMBLK1
  1

  9
$DIMBLK2
  1

  9
$DIMSTYLE
  2
ISO-25
  9
$DIMCLRD
 70
0
  9
$DIMCLRE
 70
0
  9
$DIMCLRT
 70
0
  9
$DIMTFAC
 40
1.0
  9
$DIMGAP
 40
0.625
  9
$DIMJUST
 70
0
  9
$DIMSD1
 70
0
  9
$DIMSD2
 70
0
  9
$DIMTOLJ
 70
0
  9
$DIMTZIN
 70
8
  9
$DIMALTZ
 70
0
  9
$DIMALTTZ
 70
0
  9
$DIMUPT
 70
0
  9
$DIMDEC
 70
2
  9
$DIMTDEC
 70
2
  9
$DIMALTU
 70
2
  9
$DIMALTTD
 70
3
  9
$DIMTXSTY
  7
Standard
  9
$DIMAUNIT
 70
0
  9
$DIMADEC
 70
0
  9
$DIMALTRND
 40
0.0
  9
$DIMAZIN
 70
0
  9
$DIMDSEP
 70
44
  9
$DIMATFIT
 70
3
  9
$DIMFRAC
 70
0
  9
$DIMLDRBLK
  1

  9
$DIMLUNIT
 70
2
  9
$DIMLWD
 70
-2
  9
$DIMLWE
 70
-2
  9
$DIMTMOVE
 70
0
  9
$DIMFXL
 40
1.0
  9
$DIMFXLON
 70
0
  9
$DIMJOGANG
 40
0.785398163397
  9
$DIMTFILL
 70
0
  9
$DIMTFILLCLR
 70
0
  9
$DIMARCSYM
 70
0
  9
$DIMLTYPE
  6

  9
$DIMLTEX1
  6

  9
$DIMLTEX2
  6

  9
$DIMTXTDIRECTION
 70
0
  9
$LUNITS
 70
2
  9
$LUPREC
 70
4
  9
$SKETCHINC
 40
1.0
  9
$FILLETRAD
 40
10.0
  9
$AUNITS
 70
0
  9
$AUPREC
 70
2
  9
$MENU
  1
.
  9
$ELEVATION
 40
0.0
  9
$PELEVATION
 40
0.0
  9
$THICKNESS
 40
0.0
  9
$LIMCHECK
 70
0
  9
$CHAMFERA
 40
0.0
  9
$CHAMFERB
 40
0.0
  9
$CHAMFERC
 40
0.0
  9
$CHAMFERD
 40
0.0
  9
$SKPOLY
 70
0
  9
$TDCREATE
 40
2461308.070011574
  9
$TDUCREATE
 40
2458532.153996898
  9
$TDUPDATE
 40
2461308.070011574
  9
$TDUUPDATE
 40
2458532.1544311
  9
$TDINDWG
 40
0.0
  9
$TDUSRTIMER
 40
0.0
  9
$USRTIMER
 70
1
  9
$ANGBASE
 50
0.0
  9
$ANGDIR
 70
0
  9
$PDMODE
 70
0
  9
$PDSIZE
 40
0.0
  9
$PLINEWID
 40
0.0
  9
$SPLFRAME
 70
0
  9
$SPLINETYPE
 70
6
  9
$SPLINESEGS
 70
8
  9
$HANDSEED
  5
48
  9
$SURFTAB1
 70
6
  9
$SURFTAB2
 70
6
  9
$SURFTYPE
 70
6
  9
$SURFU
 70
6
  9
$SURFV
 70
6
  9
$UCSBASE
  2

  9
$UCSNAME
  2

  9
$UCSORG
 10
0.0
 20
0.0
 30
0.0
  9
$UCSXDIR
 10
1.0
 20
0.0
 30
0.0
  9
$UCSYDIR
 10
0.0
 20
1.0
 30
0.0
  9
$UCSORTHOREF
  2

  9
$UCSORTHOVIEW
 70
0
  9
$UCSORGTOP
 10
0.0
 20
0.0
 30
0.0
  9
$UCSORGBOTTOM
 10
0.0
 20
0.0
 30
0.0
  9
$UCSORGLEFT
 10
0.0
 20
0.0
 30
0.0
  9
$UCSORGRIGHT
 10
0.0
 20
0.0
 30
0.0
  9
$UCSORGFRONT
 10
0.0
 20
0.0
 30
0.0
  9
$UCSORGBACK
 10
0.0
 20
0.0
 30
0.0
  9
$PUCSBASE
  2

  9
$PUCSNAME
  2

  9
$PUCSORG
 10
0.0
 20
0.0
 30
0.0
  9
$PUCSXDIR
 10
1.0
 20
0.0
 30
0.0
  9
$PUCSYDIR
 10
0.0
 20
1.0
 30
0.0
  9
$PUCSORTHOREF
  2

  9
$PUCSORTHOVIEW
 70
0
  9
$PUCSORGTOP
 10
0.0
 20
0.0
 30
0.0
  9
$PUCSORGBOTTOM
 10
0.0
 20
0.0
 30
0.0
  9
$PUCSORGLEFT
 10
0.0
 20
0.0
 30
0.0
  9
$PUCSORGRIGHT
 10
0.0
 20
0.0
 30
0.0
  9
$PUCSORGFRONT
 10
0.0
 20
0.0
 30
0.0
  9
$PUCSORGBACK
 10
0.0
 20
0.0
 30
0.0
  9
$USERI1
 70
0
  9
$USERI2
 70
0
  9
$USERI3
 70
0
  9
$USERI4
 70
0
  9
$USERI5
 70
0
  9
$USERR1
 40
0.0
  9
$USERR2
 40
0.0
  9
$USERR3
 40
0.0
  9
$USERR4
 40
0.0
  9
$USERR5
 40
0.0
  9
$WORLDVIEW
 70
1
  9
$SHADEDGE
 70
3
  9
$SHADEDIF
 70
70
  9
$TILEMODE
 70
1
  9
$MAXACTVP
 70
64
  9
$PINSBASE
 10
0.0
 20
0.0
 30
0.0
  9
$PLIMCHECK
 70
0
  9
$PEXTMIN
 10
1e+20
 20
1e+20
 30
1e+20
  9
$PEXTMAX
 10
-1e+20
 20
-1e+20
 30
-1e+20
  9
$PLIMMIN
 10
0.0
 20
0.0
  9
$PLIMMAX
 10
420.0
 20
297.0
  9
$UNITMODE
 70
0
  9
$VISRETAIN
 70
1
  9
$PLINEGEN
 70
0
  9
$PSLTSCALE
 70
1
  9
$TREEDEPTH
 70
3020
  9
$CMLSTYLE
  2
Standard
  9
$CMLJUST
 70
0
  9
$CMLSCALE
 40
20.0
  9
$PROXYGRAPHICS
 70
1
  9
$MEASUREMENT
 70
1
  9
$CELWEIGHT
370
-1
  9
$ENDCAPS
280
0
  9
$JOINSTYLE
280
0
  9
$LWDISPLAY
290
0
  9
$INSUNITS
 70
4
  9
$HYPERLINKBASE
  1

  9
$STYLESHEET
  1

  9
$XEDIT
290
1
  9
$CEPSNTYPE
380
0
  9
$PSTYLEMODE
290
1
  9
$FINGERPRINTGUID
  2
{C6A635B6-6821-4C11-8E6C-5DE178902B63}
  9
$VERSIONGUID
  2
{85F49843-544D-4D51-AE21-73665AA47501}
  9
$EXTNAMES
290
1
  9
$PSVPSCALE
 40
0.0
  9
$OLESTARTUP
290
0
  9
$SORTENTS
280
127
  9
$INDEXCTL
280
0
  9
$HIDETEXT
280
1
  9
$XCLIPFRAME
280
1
  9
$HALOGAP
280
0
  9
$OBSCOLOR
 70
257
  9
$OBSLTYPE
280
0
  9
$INTERSECTIONDISPLAY
280
0
  9
$INTERSECTIONCOLOR
 70
257
  9
$DIMASSOC
280
2
  9
$PROJECTNAME
  1

  9
$CAMERADISPLAY
290
0
  9
$LENSLENGTH
 40
50.0
  9
$CAMERAHEIGHT
 40
0.0
  9
$STEPSPERSEC
 40
24.0
  9
$STEPSIZE
 40
100.0
  9
$3DDWFPREC
 40
2.0
  9
$PSOLWIDTH
 40
0.005
  9
$PSOLHEIGHT
 40
0.08
  9
$LOFTANG1
 40
1.570796326795
  9
$LOFTANG2
 40
1.570796326795
  9
$LOFTMAG1
 40
0.0
  9
$LOFTMAG2
 40
0.0
  9
$LOFTPARAM
 70
7
  9
$LOFTNORMALS
280
1
  9
$LATITUDE
 40
37.795
  9
$LONGITUDE
 40
-122.394
  9
$NORTHDIRECTION
 40
0.0
  9
$TIMEZONE
 70
-8000
  9
$LIGHTGLYPHDISPLAY
280
1
  9
$TILEMODELIGHTSYNCH
280
1
  9
$CMATERIAL
347
20
  9
$SOLIDHIST
280
0
  9
$SHOWHIST
280
1
  9
$DWFFRAME
280
2
  9
$DGNFRAME
280
2
  9
$REALWORLDSCALE
290
1
  9
$INTERFERECOLOR
 62
256
  9
$CSHADOW
280
0
  9
$SHADOWPLANELOCATION
 40
0.0
  0
ENDSEC
  0
SECTION
  2
CLASSES
  0
CLASS
  1
ACDBDICTIONARYWDFLT
  2
AcDbDictionaryWithDefault
  3
ObjectDBX Classes
 90
0
 91
0
280
0
281
0
  0
CLASS
  1
SUN
  2
AcDbSun
  3
SCENEOE
 90
1153
 91
0
280
0
281
0
  0
CLASS
  1
VISUALSTYLE
  2
AcDbVisualStyle
  3
ObjectDBX Classes
 90
4095
 91
0
280
0
281
0
  0
CLASS
  1
MATERIAL
  2
AcDbMaterial
  3
ObjectDBX Classes
 90
1153
 91
0
280
0
281
0
  0
CLASS
  1
SCALE
  2
AcDbScale
  3
ObjectDBX Classes
 90
1153
 91
0
280
0
281
0
  0
CLASS
  1
TABLESTYLE
  2
AcDbTableStyle
  3
ObjectDBX Classes
 90
4095
 91
0
280
0
281
0
  0
CLASS
  1
MLEADERSTYLE
  2
AcDbMLeaderStyle
  3
ACDB_MLEADERSTYLE_CLASS
 90
4095
 91
0
280
0
281
0
  0
CLASS
  1
DICTIONARYVAR
  2
AcDbDictionaryVar
  3
ObjectDBX Classes
 90
0
 91
0
280
0
281
0
  0
CLASS
  1
CELLSTYLEMAP
  2
AcDbCellStyleMap
  3
ObjectDBX Classes
 90
1152
 91
0
280
0
281
0
  0
CLASS
  1
MENTALRAYRENDERSETTINGS
  2
AcDbMentalRayRenderSettings
  3
SCENEOE
 90
1024
 91
0
280
0
281
0
  0
CLASS
  1
ACDBDETAILVIEWSTYLE
  2
AcDbDetailViewStyle
  3
ObjectDBX Classes
 90
1025
 91
0
280
0
281
0
  0
CLASS
  1
ACDBSECTIONVIEWSTYLE
  2
AcDbSectionViewStyle
  3
ObjectDBX Classes
 90
1025
 91
0
280
0
281
0
  0
CLASS
  1
RASTERVARIABLES
  2
AcDbRasterVariables
  3
ISM
 90
0
 91
0
280
0
281
0
  0
CLASS
  1
LAYOUT
  2
AcDbLayout
  3
ObjectDBX Classes
 90
0
 91
0
280
0
281
0
  0
CLASS
  1
ACDBPLACEHOLDER
  2
AcDbPlaceHolder
  3
ObjectDBX Classes
 90
0
 91
0
280
0
281
0
  0
ENDSEC
  0
SECTION
  2
TABLES
  0
TABLE
  2
VPORT
  5
8
330
0
100
AcDbSymbolTable
 70
1
  0
VPORT
  5
23
330
8
100
AcDbSymbolTableRecord
100
AcDbViewportTableRecord
  2
*Active
 70
0
 10
0.0
 20
0.0
 11
1.0
 21
1.0
 12
0.0
 22
0.0
 13
0.0
 23
0.0
 14
0.5
 24
0.5
 15
0.5
 25
0.5
 16
0.0
 26
0.0
 36
1.0
 17
0.0
 27
0.0
 37
0.0
 40
1000.0
 41
1.34
 42
50.0
 43
0.0
 44
0.0
 50
0.0
 51
0.0
 71
0
 72
1000
 73
1
 74
3
 75
0
 76
0
 77
0
 78
0
281
0
 65
0
146
0.0
  0
ENDTAB
  0
TABLE
  2
LTYPE
  5
2
330
0
100
AcDbSymbolTable
 70
3
  0
LTYPE
  5
24
330
2
100
AcDbSymbolTableRecord
100
AcDbLinetypeTableRecord
  2
ByBlock
 70
0
  3

 72
65
 73
0
 40
0.0
  0
LTYPE
  5
25
330
2
100
AcDbSymbolTableRecord
100
AcDbLinetypeTableRecord
  2
ByLayer
 70
0
  3

 72
65
 73
0
 40
0.0
  0
LTYPE
  5
26
330
2
100
AcDbSymbolTableRecord
100
AcDbLinetypeTableRecord
  2
Continuous
 70
0
  3

 72
65
 73
0
 40
0.0
  0
ENDTAB
  0
TABLE
  2
LAYER
  5
1
330
0
100
AcDbSymbolTable
 70
6
  0
LAYER
  5
27
330
1
100
AcDbSymbolTableRecord
100
AcDbLayerTableRecord
  2
0
 70
0
 62
7
  6
Continuous
370
-3
390
13
347
21
  0
LAYER
  5
28
330
1
100
AcDbSymbolTableRecord
100
AcDbLayerTableRecord
  2
Defpoints
 70
0
 62
7
  6
Continuous
290
0
370
-3
390
13
347
21
  0
LAYER
  5
2F
330
1
100
AcDbSymbolTableRecord
100
AcDbLayerTableRecord
  2
CUT
 70
0
 62
7
  6
Continuous
370
-3
390
13
347
21
  0
LAYER
  5
30
330
1
100
AcDbSymbolTableRecord
100
AcDbLayerTableRecord
  2
MARK_DO_NOT_CUT
 70
0
 62
5
  6
Continuous
370
-3
390
13
347
21
  0
LAYER
  5
31
330
1
100
AcDbSymbolTableRecord
100
AcDbLayerTableRecord
  2
LABEL_DO_NOT_CUT
 70
0
 62
3
  6
Continuous
370
-3
390
13
347
21
  0
LAYER
  5
32
330
1
100
AcDbSymbolTableRecord
100
AcDbLayerTableRecord
  2
STOCK_DO_NOT_CUT
 70
0
 62
8
  6
Continuous
370
-3
390
13
347
21
  0
ENDTAB
  0
TABLE
  2
STYLE
  5
5
330
0
100
AcDbSymbolTable
 70
1
  0
STYLE
  5
29
330
5
100
AcDbSymbolTableRecord
100
AcDbTextStyleTableRecord
  2
Standard
 70
0
 40
0.0
 41
1.0
 50
0.0
 71
0
 42
2.5
  3
txt
  4

  0
ENDTAB
  0
TABLE
  2
VIEW
  5
7
330
0
100
AcDbSymbolTable
 70
0
  0
ENDTAB
  0
TABLE
  2
UCS
  5
6
330
0
100
AcDbSymbolTable
 70
0
  0
ENDTAB
  0
TABLE
  2
APPID
  5
3
330
0
100
AcDbSymbolTable
 70
3
  0
APPID
  5
2A
330
3
100
AcDbSymbolTableRecord
100
AcDbRegAppTableRecord
  2
ACAD
 70
0
  0
APPID
  5
45
330
3
100
AcDbSymbolTableRecord
100
AcDbRegAppTableRecord
  2
HATCHBACKGROUNDCOLOR
 70
0
  0
APPID
  5
46
330
3
100
AcDbSymbolTableRecord
100
AcDbRegAppTableRecord
  2
EZDXF
 70
0
  0
ENDTAB
  0
TABLE
  2
DIMSTYLE
  5
4
330
0
100
AcDbSymbolTable
 70
1
100
AcDbDimStyleTable
  0
DIMSTYLE
105
2B
330
4
100
AcDbSymbolTableRecord
100
AcDbDimStyleTableRecord
  2
Standard
 70
0
 40
1.0
 41
2.5
 42
0.625
 43
3.75
 44
1.25
 45
0.0
 46
0.0
 47
0.0
 48
0.0
 49
2.5
140
2.5
141
2.5
142
0.0
143
0.03937007874
144
1.0
145
0.0
146
1.0
147
0.625
148
0.0
 69
0
 70
0
 71
0
 72
0
 73
0
 74
0
 75
0
 76
0
 77
1
 78
8
 79
3
170
0
171
3
172
1
173
0
174
0
175
0
176
0
177
0
178
0
179
2
271
2
272
2
273
2
274
3
275
0
276
0
277
2
278
44
279
0
280
0
281
0
282
0
283
0
284
8
285
0
286
0
288
0
289
3
290
0
371
-2
372
-2
  0
ENDTAB
  0
TABLE
  2
BLOCK_RECORD
  5
9
330
0
100
AcDbSymbolTable
 70
2
  0
BLOCK_RECORD
  5
17
330
9
100
AcDbSymbolTableRecord
100
AcDbBlockTableRecord
  2
*Model_Space
340
1A
 70
0
280
1
281
0
  0
BLOCK_RECORD
  5
1B
330
9
100
AcDbSymbolTableRecord
100
AcDbBlockTableRecord
  2
*Paper_Space
340
1E
 70
0
280
1
281
0
  0
ENDTAB
  0
ENDSEC
  0
SECTION
  2
BLOCKS
  0
BLOCK
  5
18
330
17
100
AcDbEntity
  8
0
100
AcDbBlockBegin
  2
*Model_Space
 70
0
 10
0.0
 20
0.0
 30
0.0
  3
*Model_Space
  1

  0
ENDBLK
  5
19
330
17
100
AcDbEntity
  8
0
100
AcDbBlockEnd
  0
BLOCK
  5
1C
330
1B
100
AcDbEntity
  8
0
100
AcDbBlockBegin
  2
*Paper_Space
 70
0
 10
0.0
 20
0.0
 30
0.0
  3
*Paper_Space
  1

  0
ENDBLK
  5
1D
330
1B
100
AcDbEntity
  8
0
100
AcDbBlockEnd
  0
ENDSEC
  0
SECTION
  2
ENTITIES
  0
LWPOLYLINE
  5
33
330
17
100
AcDbEntity
  8
STOCK_DO_NOT_CUT
100
AcDbPolyline
 90
4
 70
1
 10
0.0
 20
0.0
 10
600.0
 20
0.0
 10
600.0
 20
457.2
 10
0.0
 20
457.2
  0
LWPOLYLINE
  5
34
330
17
100
AcDbEntity
  8
CUT
100
AcDbPolyline
 90
119
 70
1
 10
5.0
 20
340.61768
 10
86.96532
 20
369.69613
 10
89.84866
 20
370.72233
 10
90.11264
 20
370.81789
 10
90.37694
 20
370.91252
 10
90.72696
 20
371.0358
 10
91.03569
 20
371.14363
 10
91.3448
 20
371.25077
 10
91.65432
 20
371.35688
 10
91.96438
 20
371.46135
 10
92.27502
 20
371.56371
 10
92.58578
 20
371.66514
 10
92.89702
 20
371.76429
 10
93.20879
 20
371.8611
 10
93.52112
 20
371.95563
 10
93.83427
 20
372.04752
 10
94.16485
 20
372.14126
 10
94.49136
 20
372.23041
 10
94.82833
 20
372.31924
 10
95.10989
 20
372.39112
 10
95.45305
 20
372.47448
 10
95.77151
 20
372.5481
 10
96.12023
 20
372.6257
 10
96.47984
 20
372.70107
 10
96.84015
 20
372.77119
 10
97.16487
 20
372.83069
 10
97.45758
 20
372.88119
 10
97.75094
 20
372.92815
 10
98.04492
 20
372.97219
 10
98.33953
 20
373.01345
 10
98.63474
 20
373.05188
 10
98.93051
 20
373.0873
 10
99.22678
 20
373.11937
 10
99.52331
 20
373.14948
 10
99.82003
 20
373.17697
 10
100.11681
 20
373.20201
 10
100.41363
 20
373.22398
 10
100.71041
 20
373.24335
 10
101.00712
 20
373.26055
 10
101.3038
 20
373.27564
 10
101.60061
 20
373.28815
 10
101.8976
 20
373.29888
 10
102.19482
 20
373.30803
 10
102.49231
 20
373.31507
 10
102.79
 20
373.32048
 10
103.08782
 20
373.32471
 10
103.38569
 20
373.32789
 10
103.68362
 20
373.3298
 10
103.98147
 20
373.33059
 10
104.27921
 20
373.33072
 10
104.57684
 20
373.33021
 10
104.87439
 20
373.32902
 10
150.01002
 20
373.17814
 10
195.15021
 20
373.03477
 10
194.97851
 20
321.03875
 10
194.80488
 20
264.80013
 10
194.66047
 20
208.57274
 10
194.5478
 20
152.34356
 10
194.50911
 20
124.23547
 10
194.49174
 20
96.12875
 10
234.49017
 20
96.14544
 10
234.49473
 20
31.14646
 10
198.78859
 20
31.14895
 10
163.08917
 20
31.14954
 10
162.76942
 20
31.14881
 10
162.44967
 20
31.14731
 10
162.12993
 20
31.14561
 10
161.81021
 20
31.14309
 10
161.49049
 20
31.13958
 10
161.17079
 20
31.13461
 10
160.85111
 20
31.12798
 10
160.53147
 20
31.11974
 10
160.2119
 20
31.10972
 10
159.89241
 20
31.09745
 10
159.57302
 20
31.08269
 10
159.2537
 20
31.06557
 10
158.93451
 20
31.04608
 10
158.61551
 20
31.02385
 10
158.29677
 20
30.99863
 10
157.97831
 20
30.97038
 10
157.66014
 20
30.93921
 10
157.34229
 20
30.90463
 10
157.02474
 20
30.86695
 10
156.70759
 20
30.82592
 10
156.39091
 20
30.78144
 10
156.07475
 20
30.73365
 10
155.75915
 20
30.68265
 10
155.4442
 20
30.62784
 10
155.12979
 20
30.56979
 10
154.81596
 20
30.50838
 10
154.5028
 20
30.44354
 10
154.15571
 20
30.36759
 10
153.81918
 20
30.29021
 10
153.47823
 20
30.20761
 10
153.15199
 20
30.12507
 10
152.79049
 20
30.02943
 10
152.42996
 20
29.92999
 10
152.07036
 20
29.82717
 10
151.71176
 20
29.72103
 10
151.38988
 20
29.62265
 10
151.0655
 20
29.52094
 10
150.7418
 20
29.41722
 10
150.4187
 20
29.3116
 10
150.06036
 20
29.19225
 10
149.70273
 20
29.07096
 10
149.38127
 20
28.96061
 10
149.06017
 20
28.84924
 10
148.79608
 20
28.75691
 10
148.5321
 20
28.66412
 10
148.21617
 20
28.55353
 10
147.29324
 20
28.23013
 10
81.16981
 20
5.0
 10
59.63786
 20
66.32836
 10
97.37996
 20
79.57103
 10
88.04729
 20
106.08299
 10
78.6968
 20
132.58917
 10
59.95186
 20
185.60061
 10
41.18957
 20
238.60973
 10
22.39202
 20
291.61664
  0
TEXT
  5
35
330
17
100
AcDbEntity
  8
LABEL_DO_NOT_CUT
100
AcDbText
 10
5.0
 20
340.61767664487917
 30
0.0
 40
2.0
  1
ROOT
100
AcDbText
  0
TEXT
  5
36
330
17
100
AcDbEntity
  8
LABEL_DO_NOT_CUT
100
AcDbText
 10
161.0112700296888
 20
31.118413738905538
 30
0.0
 40
2.0
  1
TIP
100
AcDbText
  0
TEXT
  5
37
330
17
100
AcDbEntity
  8
LABEL_DO_NOT_CUT
100
AcDbText
 10
125.26194217018114
 20
197.086675
 30
0.0
 40
3.0
  1
FW06
100
AcDbText
  0
LWPOLYLINE
  5
38
330
17
100
AcDbEntity
  8
CUT
100
AcDbPolyline
 90
119
 70
1
 10
247.08592000000002
 20
298.42976
 10
238.49473
 20
349.71118
 10
324.27213
 20
364.069
 10
327.29016
 20
364.57731
 10
327.56675
 20
364.62543
 10
327.84349
 20
364.67257
 10
328.20963
 20
364.73301
 10
328.53243
 20
364.78541
 10
328.85547
 20
364.83708
 10
329.17875000000004
 20
364.88765
 10
329.50227
 20
364.93652
 10
329.82599
 20
364.9832
 10
330.14966
 20
365.02896
 10
330.47343
 20
365.07238
 10
330.79729
 20
365.11341
 10
331.12131
 20
365.15209
 10
331.44568000000004
 20
365.18802
 10
331.78754000000004
 20
365.22276
 10
332.12459
 20
365.25367
 10
332.47188
 20
365.28245
 10
332.76165000000003
 20
365.30418
 10
333.11408
 20
365.3265
 10
333.4405
 20
365.34352
 10
333.79741
 20
365.35919
 10
334.16465
 20
365.37077
 10
334.53166
 20
365.37706
 10
334.86179
 20
365.37909
 10
335.15881
 20
365.37783
 10
335.45587
 20
365.37298
 10
335.75302
 20
365.36514
 10
336.05032
 20
365.35445
 10
336.34771
 20
365.34088
 10
336.64513
 20
365.32424
 10
336.94246
 20
365.30422
 10
337.23969
 20
365.28222
 10
337.53667
 20
365.2576
 10
337.83326999999997
 20
365.23056
 10
338.12937999999997
 20
365.2005
 10
338.425
 20
365.16788
 10
338.72016
 20
365.13313
 10
339.01494
 20
365.09631
 10
339.30939
 20
365.05693
 10
339.60371
 20
365.01577
 10
339.89798
 20
364.97301
 10
340.19214999999997
 20
364.92812
 10
340.48623
 20
364.88161
 10
340.78023
 20
364.83389
 10
341.0741
 20
364.78515
 10
341.3678
 20
364.73513
 10
341.66124
 20
364.68403
 10
341.95445
 20
364.63229
 10
342.24743
 20
364.57996
 10
342.54023
 20
364.52696
 10
386.95955000000004
 20
356.51709
 10
431.38472
 20
348.51368
 10
422.15900999999997
 20
297.34251
 10
412.19329
 20
241.99416
 10
402.25901
 20
186.65121
 10
392.35312999999996
 20
131.30113
 10
387.41931
 20
103.62971
 10
382.50746000000004
 20
75.95585
 10
421.89759000000004
 20
69.00648
 10
410.58216000000004
 20
5.0
 10
375.42213000000004
 20
11.2209
 10
340.26838
 20
17.4388
 10
339.95339
 20
17.493769999999998
 10
339.63826
 20
17.547980000000003
 10
339.32311
 20
17.60199
 10
339.00784
 20
17.655189999999997
 10
338.69241
 20
17.70741
 10
338.37672
 20
17.758200000000002
 10
338.06077
 20
17.80734
 10
337.74458
 20
17.8549
 10
337.42815
 20
17.90068
 10
337.11141
 20
17.94424
 10
336.79431999999997
 20
17.985329999999998
 10
336.47691
 20
18.02409
 10
336.1592
 20
18.06048
 10
335.8412
 20
18.09415
 10
335.52294
 20
18.12482
 10
335.20443
 20
18.152459999999998
 10
334.88569
 20
18.17718
 10
334.56668
 20
18.19849
 10
334.24742000000003
 20
18.21668
 10
333.92797
 20
18.23151
 10
333.60839
 20
18.24287
 10
333.28874
 20
18.25086
 10
332.96908
 20
18.25561
 10
332.6494
 20
18.25648
 10
332.32967
 20
18.254080000000002
 10
332.00995
 20
18.248269999999998
 10
331.69029
 20
18.238950000000003
 10
331.33527000000004
 20
18.22461
 10
330.99041
 20
18.20702
 10
330.64028
 20
18.18506
 10
330.30465000000004
 20
18.160600000000002
 10
329.93202
 20
18.129379999999998
 10
329.55968
 20
18.09424
 10
329.18767
 20
18.05563
 10
328.81607
 20
18.013550000000002
 10
328.48197
 20
17.97274
 10
328.14483
 20
17.92907
 10
327.80802
 20
17.88331
 10
327.47147
 20
17.83558
 10
327.09782
 20
17.780450000000002
 10
326.72453
 20
17.723309999999998
 10
326.38877
 20
17.67062
 10
326.05318
 20
17.616880000000002
 10
325.77704
 20
17.57195
 10
325.50094
 20
17.52655
 10
325.17057
 20
17.47267
 10
324.20542
 20
17.31494
 10
255.04683
 20
5.9555
 10
244.52453
 20
70.09655
 10
283.99615
 20
76.56391
 10
279.42349
 20
104.29606
 10
274.83258
 20
132.02543
 10
265.606
 20
187.49141
 10
256.36332
 20
242.95871
  0
TEXT
  5
39
330
17
100
AcDbEntity
  8
LABEL_DO_NOT_CUT
100
AcDbText
 10
328.9613349170104
 20
364.74479718617204
 30
0.0
 40
2.0
  1
ROOT
100
AcDbText
  0
TEXT
  5
3A
330
17
100
AcDbEntity
  8
LABEL_DO_NOT_CUT
100
AcDbText
 10
410.58215744254096
 20
5.0
 30
0.0
 40
2.0
  1
TIP
100
AcDbText
  0
TEXT
  5
3B
330
17
100
AcDbEntity
  8
LABEL_DO_NOT_CUT
100
AcDbText
 10
333.8300277016635
 20
159.33832
 30
0.0
 40
3.0
  1
FW05
100
AcDbText
  0
LWPOLYLINE
  5
3C
330
17
100
AcDbEntity
  8
CUT
100
AcDbPolyline
 90
133
 70
1
 10
449.82079
 20
6.94833
 10
446.49920000000003
 20
7.04849
 10
443.17973
 20
7.14836
 10
439.28346
 20
7.26555
 10
435.38472
 20
7.38259
 10
439.71341
 20
158.32043
 10
441.91801
 20
158.25456
 10
444.12117
 20
158.18849
 10
446.32118
 20
158.12246
 10
448.51627
 20
158.0564
 10
450.70853
 20
157.99028
 10
452.62744000000004
 20
157.9323
 10
454.55183
 20
157.87389
 10
454.55172000000005
 20
157.87025
 10
457.85941
 20
157.77434
 10
461.14549
 20
157.67796
 10
463.70622000000003
 20
157.60537
 10
466.16299000000004
 20
157.53523
 10
468.62458000000004
 20
157.46583
 10
471.09635000000003
 20
157.39689
 10
473.5772
 20
157.32857
 10
476.05835
 20
157.26009
 10
478.53119000000004
 20
157.19366
 10
480.99259
 20
157.12923
 10
483.44838000000004
 20
157.06603
 10
485.90504
 20
157.00447
 10
488.36956000000004
 20
156.94418
 10
490.84914000000003
 20
156.88479
 10
493.3342
 20
156.82832
 10
495.80870000000004
 20
156.77298
 10
498.27344000000005
 20
156.71927
 10
500.73272000000003
 20
156.66783
 10
503.19074
 20
156.61797
 10
505.65197
 20
156.57018
 10
508.12094
 20
156.52356
 10
510.60170000000005
 20
156.48202
 10
513.09128
 20
156.44064
 10
514.71335
 20
156.41429
 10
516.3356
 20
156.38992
 10
516.33574
 20
156.39407
 10
517.96104
 20
156.36859
 10
519.58636
 20
156.34414
 10
521.21169
 20
156.32072
 10
521.21163
 20
156.31858
 10
524.53806
 20
156.27616
 10
527.85366
 20
156.23569
 10
530.2307000000001
 20
156.2112
 10
532.72347
 20
156.18672
 10
535.2153500000001
 20
156.16453
 10
537.59036
 20
156.14478
 10
540.6056600000001
 20
156.12255
 10
542.96725
 20
156.10692
 10
545.4977
 20
156.0907
 10
548.03011
 20
156.07642
 10
550.3977600000001
 20
156.06396
 10
553.35149
 20
156.0515
 10
556.67402
 20
156.03928
 10
559.04129
 20
156.03222
 10
561.5122
 20
156.02557
 10
563.86848
 20
156.0203
 10
566.8714600000001
 20
156.01509
 10
570.26202
 20
156.00845
 10
572.64153
 20
156.00476
 10
575.20608
 20
156.0036
 10
576.67219
 20
156.00188
 10
578.1383000000001
 20
156.00025
 10
578.1383000000001
 20
156.00196
 10
580.3348000000001
 20
156.00214
 10
582.5298700000001
 20
156.00205
 10
584.72182
 20
156.00185
 10
586.9089200000001
 20
156.00146
 10
589.09348
 20
156.00094
 10
590.91584
 20
156.00042
 10
592.74321
 20
155.99968
 10
592.74321
 20
5.0
 10
589.42066
 20
5.00078
 10
586.10018
 20
5.00134
 10
582.20271
 20
5.00194
 10
578.3028400000001
 20
5.00228
 10
578.3028400000001
 20
5.00399
 10
576.65233
 20
5.00367
 10
575.00197
 20
5.00526
 10
572.52301
 20
5.00325
 10
570.05253
 20
5.00296
 10
567.59301
 20
5.00411
 10
565.14114
 20
5.00533
 10
562.69294
 20
5.00789
 10
560.24426
 20
5.01162
 10
557.79038
 20
5.01585
 10
555.3263000000001
 20
5.02131
 10
552.85077
 20
5.02852
 10
550.3804
 20
5.03648
 10
547.92498
 20
5.04636
 10
545.47766
 20
5.05721
 10
543.03142
 20
5.07043
 10
540.57968
 20
5.08538
 10
538.11652
 20
5.10181
 10
535.64492
 20
5.1206
 10
533.17382
 20
5.14153
 10
530.71164
 20
5.1641
 10
528.25949
 20
5.18904
 10
525.81213
 20
5.21596
 10
523.25838
 20
5.2478
 10
519.98522
 20
5.28915
 10
516.69063
 20
5.33732
 10
516.69057
 20
5.33518
 10
511.41301
 20
5.41502
 10
511.41314
 20
5.41917
 10
509.76287
 20
5.44516
 10
508.11274000000003
 20
5.47142
 10
505.63373
 20
5.51509
 10
503.16344000000004
 20
5.55827
 10
500.70417000000003
 20
5.60494
 10
498.25273000000004
 20
5.65338
 10
495.80498
 20
5.70378
 10
493.3569
 20
5.75596
 10
490.90368
 20
5.80956
 10
488.44039000000004
 20
5.86726
 10
485.96576000000005
 20
5.9273
 10
483.49632
 20
5.98834
 10
481.04188
 20
6.05054
 10
478.59545
 20
6.11298
 10
476.15024
 20
6.17845
 10
473.69956
 20
6.24511
 10
471.23745
 20
6.31347
 10
468.76703000000003
 20
6.38427
 10
466.29709
 20
6.45571
 10
463.83607
 20
6.52788
 10
461.38489000000004
 20
6.60049
 10
458.93857
 20
6.6743
 10
456.38588000000004
 20
6.75191
 10
453.11434
 20
6.85271
 10
449.8209
 20
6.95197
  0
LWPOLYLINE
  5
3D
330
17
100
AcDbEntity
  8
MARK_DO_NOT_CUT
100
AcDbPolyline
 90
2
 70
0
 10
578.3028419876863
 20
5.002278254481382
 10
578.1383000000001
 20
156.00196077396856
  0
LWPOLYLINE
  5
3E
330
17
100
AcDbEntity
  8
MARK_DO_NOT_CUT
100
AcDbPolyline
 90
2
 70
0
 10
516.6906313859718
 20
5.337317917755655
 10
521.2116307399767
 20
156.31858369572942
  0
LWPOLYLINE
  5
3F
330
17
100
AcDbEntity
  8
MARK_DO_NOT_CUT
100
AcDbPolyline
 90
2
 70
0
 10
511.41300831049784
 20
5.415019000701477
 10
516.3357379450333
 20
156.39406739646859
  0
LWPOLYLINE
  5
40
330
17
100
AcDbEntity
  8
MARK_DO_NOT_CUT
100
AcDbPolyline
 90
2
 70
0
 10
449.82090270155015
 20
6.951972424827105
 10
454.5517199635192
 20
157.87024943875508
  0
TEXT
  5
41
330
17
100
AcDbEntity
  8
LABEL_DO_NOT_CUT
100
AcDbText
 10
515.1294985191495
 20
81.691135
 30
0.0
 40
3.0
  1
FW08
100
AcDbText
  0
LWPOLYLINE
  5
42
330
17
100
AcDbEntity
  8
CUT
100
AcDbPolyline
 90
104
 70
1
 10
438.11931000000004
 20
166.03805999999997
 10
438.13478
 20
168.72045999999997
 10
438.14695
 20
170.84339
 10
438.16346
 20
173.68206999999998
 10
438.18166
 20
176.96606
 10
438.20046
 20
180.33144
 10
438.21786
 20
183.76682
 10
438.23404000000005
 20
187.26029999999997
 10
438.24776
 20
190.79975
 10
438.25917000000004
 20
194.37277999999998
 10
438.26955
 20
197.96697999999998
 10
438.27606000000003
 20
201.57023999999998
 10
438.28114000000005
 20
205.16851
 10
438.28060000000005
 20
208.74626999999998
 10
438.27840000000003
 20
212.29401
 10
438.27058
 20
215.8038
 10
438.25912000000005
 20
219.26972999999998
 10
438.24141
 20
222.68785
 10
438.21754
 20
226.05553999999998
 10
438.18958
 20
229.04267999999996
 10
438.15917
 20
231.69763999999998
 10
438.13225
 20
233.76599
 10
438.10317
 20
235.82228999999998
 10
438.06019000000003
 20
238.0632
 10
438.01235
 20
240.30938999999998
 10
437.96055
 20
242.54901999999998
 10
437.90553
 20
244.79325
 10
437.84574
 20
247.05033999999998
 10
437.78236000000004
 20
249.31349999999998
 10
437.7165
 20
251.56928999999997
 10
437.64744
 20
253.81512999999998
 10
437.57605
 20
256.0549
 10
437.47699
 20
259.03922
 10
437.3619
 20
262.40486
 10
437.23995
 20
265.78477
 10
437.11623
 20
269.16621
 10
436.98911
 20
272.52634
 10
436.85933
 20
275.87399999999997
 10
436.72837000000004
 20
279.21867999999995
 10
436.59409000000005
 20
282.56515
 10
436.45881
 20
285.91886
 10
436.32025
 20
289.28995
 10
436.17949
 20
292.67146
 10
436.03958
 20
296.03828999999996
 10
435.89905
 20
299.39006
 10
435.76631
 20
302.52783
 10
435.64097000000004
 20
305.47334
 10
435.51568
 20
308.43212
 10
435.45120000000003
 20
310.00032
 10
435.38472
 20
311.57547999999997
 10
591.23094
 20
318.30554
 10
591.32557
 20
316.14423
 10
591.42223
 20
313.92188999999996
 10
591.56551
 20
310.62427
 10
591.71277
 20
307.21115
 10
591.86296
 20
303.70509
 10
592.01608
 20
300.11913
 10
592.17131
 20
296.46732
 10
592.32608
 20
292.76336000000003
 10
592.4801
 20
289.02135
 10
592.6347900000001
 20
285.25514
 10
592.789
 20
281.47834
 10
592.94055
 20
277.70520999999997
 10
593.08664
 20
273.95104
 10
593.22873
 20
270.22988999999995
 10
593.36481
 20
266.55325
 10
593.48094
 20
263.32926
 10
593.5642
 20
260.94117
 10
593.64374
 20
258.58018
 10
593.71922
 20
256.24683
 10
593.79042
 20
253.94095
 10
593.8574
 20
251.66217999999998
 10
593.91943
 20
249.40974999999997
 10
593.97627
 20
247.18180999999998
 10
594.02858
 20
244.97472999999997
 10
594.07615
 20
242.78253999999998
 10
594.11692
 20
240.59947
 10
594.15959
 20
238.40983
 10
594.19501
 20
236.20020999999997
 10
594.22398
 20
233.97453
 10
594.24858
 20
231.72785
 10
594.26971
 20
229.45653
 10
594.2875
 20
227.15821
 10
594.30213
 20
224.83158
 10
594.31408
 20
222.47637
 10
594.3226500000001
 20
220.09303
 10
594.32866
 20
217.68236
 10
594.3318
 20
214.42809
 10
594.33142
 20
210.71748
 10
594.32635
 20
206.96276
 10
594.3180500000001
 20
203.17441
 10
594.30691
 20
199.36748
 10
594.29172
 20
195.55823999999998
 10
594.2756
 20
191.76039999999998
 10
594.2572700000001
 20
187.98843
 10
594.23753
 20
184.25680999999997
 10
594.21668
 20
180.57996999999997
 10
594.19497
 20
176.97200999999998
 10
594.173
 20
173.4465
 10
594.14844
 20
170.01988
 10
594.12436
 20
166.71296999999998
 10
594.108
 20
164.48572
 10
594.09185
 20
162.32043
 10
438.10317
 20
163.44276
  0
LWPOLYLINE
  5
43
330
17
100
AcDbEntity
  8
MARK_DO_NOT_CUT
100
AcDbPolyline
 90
7
 70
0
 10
594.116510392297
 20
240.61010453012287
 10
594.0863412096691
 20
240.59497044648228
 10
594.0484096822836
 20
240.58677194144735
 10
593.9952837055381
 20
240.57793495741873
 10
569.8754257475753
 20
239.5793573888394
 10
509.86121384503065
 20
237.75660503514158
 10
438.1031678625369
 20
235.82229154921114
  0
TEXT
  5
44
330
17
100
AcDbEntity
  8
LABEL_DO_NOT_CUT
100
AcDbText
 10
516.0643709112593
 20
240.45443
 30
0.0
 40
3.0
  1
FW10
100
AcDbText
  0
ENDSEC
  0
SECTION
  2
OBJECTS
  0
DICTIONARY
  5
A
330
0
100
AcDbDictionary
281
1
  3
ACAD_COLOR
350
B
  3
ACAD_GROUP
350
C
  3
ACAD_LAYOUT
350
D
  3
ACAD_MATERIAL
350
E
  3
ACAD_MLEADERSTYLE
350
F
  3
ACAD_MLINESTYLE
350
10
  3
ACAD_PLOTSETTINGS
350
11
  3
ACAD_PLOTSTYLENAME
350
12
  3
ACAD_SCALELIST
350
14
  3
ACAD_TABLESTYLE
350
15
  3
ACAD_VISUALSTYLE
350
16
  3
EZDXF_META
350
2D
  0
DICTIONARY
  5
B
330
A
100
AcDbDictionary
281
1
  0
DICTIONARY
  5
C
330
A
100
AcDbDictionary
281
1
  0
DICTIONARY
  5
D
330
A
100
AcDbDictionary
281
1
  3
Model
350
1A
  3
Layout1
350
1E
  0
DICTIONARY
  5
E
330
A
100
AcDbDictionary
281
1
  3
ByBlock
350
1F
  3
ByLayer
350
20
  3
Global
350
21
  0
DICTIONARY
  5
F
330
A
100
AcDbDictionary
281
1
  3
Standard
350
2C
  0
DICTIONARY
  5
10
330
A
100
AcDbDictionary
281
1
  3
Standard
350
22
  0
DICTIONARY
  5
11
330
A
100
AcDbDictionary
281
1
  0
ACDBDICTIONARYWDFLT
  5
12
330
A
100
AcDbDictionary
281
1
  3
Normal
350
13
100
AcDbDictionaryWithDefault
340
13
  0
ACDBPLACEHOLDER
  5
13
330
12
  0
DICTIONARY
  5
14
330
A
100
AcDbDictionary
281
1
  0
DICTIONARY
  5
15
330
A
100
AcDbDictionary
281
1
  0
DICTIONARY
  5
16
330
A
100
AcDbDictionary
281
1
  0
LAYOUT
  5
1A
330
D
100
AcDbPlotSettings
  1

  4
A3
  6

 40
7.5
 41
20.0
 42
7.5
 43
20.0
 44
420.0
 45
297.0
 46
0.0
 47
0.0
 48
0.0
 49
0.0
140
0.0
141
0.0
142
1.0
143
1.0
 70
1024
 72
1
 73
0
 74
5
  7

 75
16
 76
0
 77
2
 78
300
147
1.0
148
0.0
149
0.0
100
AcDbLayout
  1
Model
 70
1
 71
0
 10
0.0
 20
0.0
 11
420.0
 21
297.0
 12
0.0
 22
0.0
 32
0.0
 14
1e+20
 24
1e+20
 34
1e+20
 15
-1e+20
 25
-1e+20
 35
-1e+20
146
0.0
 13
0.0
 23
0.0
 33
0.0
 16
1.0
 26
0.0
 36
0.0
 17
0.0
 27
1.0
 37
0.0
 76
1
330
17
  0
LAYOUT
  5
1E
330
D
100
AcDbPlotSettings
  1

  4
A3
  6

 40
7.5
 41
20.0
 42
7.5
 43
20.0
 44
420.0
 45
297.0
 46
0.0
 47
0.0
 48
0.0
 49
0.0
140
0.0
141
0.0
142
1.0
143
1.0
 70
0
 72
1
 73
0
 74
5
  7

 75
16
 76
0
 77
2
 78
300
147
1.0
148
0.0
149
0.0
100
AcDbLayout
  1
Layout1
 70
1
 71
1
 10
0.0
 20
0.0
 11
420.0
 21
297.0
 12
0.0
 22
0.0
 32
0.0
 14
1e+20
 24
1e+20
 34
1e+20
 15
-1e+20
 25
-1e+20
 35
-1e+20
146
0.0
 13
0.0
 23
0.0
 33
0.0
 16
1.0
 26
0.0
 36
0.0
 17
0.0
 27
1.0
 37
0.0
 76
1
330
1B
  0
MATERIAL
  5
1F
102
{ACAD_REACTORS
330
E
102
}
330
E
100
AcDbMaterial
  1
ByBlock
  2

 70
0
 40
1.0
 71
1
 41
1.0
 91
-1023410177
 42
1.0
 72
1
  3

 73
1
 74
1
 75
1
 44
0.5
 73
0
 45
1.0
 46
1.0
 77
1
  4

 78
1
 79
1
170
1
 48
1.0
171
1
  6

172
1
173
1
174
1
140
1.0
141
1.0
175
1
  7

176
1
177
1
178
1
143
1.0
179
1
  8

270
1
271
1
272
1
145
1.0
146
1.0
273
1
  9

274
1
275
1
276
1
 42
1.0
 72
1
  3

 73
1
 74
1
 75
1
 94
63
  0
MATERIAL
  5
20
102
{ACAD_REACTORS
330
E
102
}
330
E
100
AcDbMaterial
  1
ByLayer
  2

 70
0
 40
1.0
 71
1
 41
1.0
 91
-1023410177
 42
1.0
 72
1
  3

 73
1
 74
1
 75
1
 44
0.5
 73
0
 45
1.0
 46
1.0
 77
1
  4

 78
1
 79
1
170
1
 48
1.0
171
1
  6

172
1
173
1
174
1
140
1.0
141
1.0
175
1
  7

176
1
177
1
178
1
143
1.0
179
1
  8

270
1
271
1
272
1
145
1.0
146
1.0
273
1
  9

274
1
275
1
276
1
 42
1.0
 72
1
  3

 73
1
 74
1
 75
1
 94
63
  0
MATERIAL
  5
21
102
{ACAD_REACTORS
330
E
102
}
330
E
100
AcDbMaterial
  1
Global
  2

 70
0
 40
1.0
 71
1
 41
1.0
 91
-1023410177
 42
1.0
 72
1
  3

 73
1
 74
1
 75
1
 44
0.5
 73
0
 45
1.0
 46
1.0
 77
1
  4

 78
1
 79
1
170
1
 48
1.0
171
1
  6

172
1
173
1
174
1
140
1.0
141
1.0
175
1
  7

176
1
177
1
178
1
143
1.0
179
1
  8

270
1
271
1
272
1
145
1.0
146
1.0
273
1
  9

274
1
275
1
276
1
 42
1.0
 72
1
  3

 73
1
 74
1
 75
1
 94
63
  0
MLINESTYLE
  5
22
102
{ACAD_REACTORS
330
10
102
}
330
10
100
AcDbMlineStyle
  2
Standard
 70
0
  3

 62
256
 51
90.0
 52
90.0
 71
2
 49
0.5
 62
256
  6
BYLAYER
 49
-0.5
 62
256
  6
BYLAYER
  0
MLEADERSTYLE
  5
2C
102
{ACAD_REACTORS
330
F
102
}
330
F
100
AcDbMLeaderStyle
179
2
170
2
171
1
172
0
 90
2
 40
0.0
 41
0.0
173
1
 91
-1056964608
 92
-2
290
1
 42
2.0
291
1
 43
8.0
  3
Standard
 44
4.0
300

342
29
174
1
175
1
176
0
178
1
 93
-1056964608
 45
4.0
292
0
297
0
 46
4.0
 94
-1056964608
 47
1.0
 49
1.0
140
1.0
294
1
141
0.0
177
0
142
1.0
295
0
296
0
143
3.75
271
0
272
9
273
9
  0
DICTIONARY
  5
2D
330
A
100
AcDbDictionary
280
1
281
1
  3
CREATED_BY_EZDXF
350
2E
  3
WRITTEN_BY_EZDXF
350
47
  0
DICTIONARYVAR
  5
2E
330
2D
100
DictionaryVariables
280
0
  1
1.4.4 @ 2026-09-23T20:10:49.153588+00:00
  0
DICTIONARYVAR
  5
47
330
2D
100
DictionaryVariables
280
0
  1
1.4.4 @ 2026-09-23T20:10:49.185334+00:00
  0
ENDSEC
  0
EOF
