  0
SECTION
  2
HEADER
  9
$ACADVER
  1
AC1024
  9
$ACADMAINTVER
 70
6
  9
$DWGCODEPAGE
  3
ANSI_1252
  9
$LASTSAVEDBY
  1
ezdxf
  9
$INSBASE
 10
0.0
 20
0.0
 30
0.0
  9
$EXTMIN
 10
1e+20
 20
1e+20
 30
1e+20
  9
$EXTMAX
 10
-1e+20
 20
-1e+20
 30
-1e+20
  9
$LIMMIN
 10
0.0
 20
0.0
  9
$LIMMAX
 10
420.0
 20
297.0
  9
$ORTHOMODE
 70
0
  9
$REGENMODE
 70
1
  9
$FILLMODE
 70
1
  9
$QTEXTMODE
 70
0
  9
$MIRRTEXT
 70
1
  9
$LTSCALE
 40
1.0
  9
$ATTMODE
 70
1
  9
$TEXTSIZE
 40
2.5
  9
$TRACEWID
 40
1.0
  9
$TEXTSTYLE
  7
Standard
  9
$CLAYER
  8
0
  9
$CELTYPE
  6
ByLayer
  9
$CECOLOR
 62
256
  9
$CELTSCALE
 40
1.0
  9
$DISPSILH
 70
0
  9
$DIMSCALE
 40
1.0
  9
$DIMASZ
 40
2.5
  9
$DIMEXO
 40
0.625
  9
$DIMDLI
 40
3.75
  9
$DIMRND
 40
0.0
  9
$DIMDLE
 40
0.0
  9
$DIMEXE
 40
1.25
  9
$DIMTP
 40
0.0
  9
$DIMTM
 40
0.0
  9
$DIMTXT
 40
2.5
  9
$DIMCEN
 40
2.5
  9
$DIMTSZ
 40
0.0
  9
$DIMTOL
 70
0
  9
$DIMLIM
 70
0
  9
$DIMTIH
 70
0
  9
$DIMTOH
 70
0
  9
$DIMSE1
 70
0
  9
$DIMSE2
 70
0
  9
$DIMTAD
 70
1
  9
$DIMZIN
 70
8
  9
$DIMBLK
  1

  9
$DIMASO
 70
1
  9
$DIMSHO
 70
1
  9
$DIMPOST
  1

  9
$DIMAPOST
  1

  9
$DIMALT
 70
0
  9
$DIMALTD
 70
3
  9
$DIMALTF
 40
0.03937007874
  9
$DIMLFAC
 40
1.0
  9
$DIMTOFL
 70
1
  9
$DIMTVP
 40
0.0
  9
$DIMTIX
 70
0
  9
$DIMSOXD
 70
0
  9
$DIMSAH
 70
0
  9
$DIMBLK1
  1

  9
$DIMBLK2
  1

  9
$DIMSTYLE
  2
ISO-25
  9
$DIMCLRD
 70
0
  9
$DIMCLRE
 70
0
  9
$DIMCLRT
 70
0
  9
$DIMTFAC
 40
1.0
  9
$DIMGAP
 40
0.625
  9
$DIMJUST
 70
0
  9
$DIMSD1
 70
0
  9
$DIMSD2
 70
0
  9
$DIMTOLJ
 70
0
  9
$DIMTZIN
 70
8
  9
$DIMALTZ
 70
0
  9
$DIMALTTZ
 70
0
  9
$DIMUPT
 70
0
  9
$DIMDEC
 70
2
  9
$DIMTDEC
 70
2
  9
$DIMALTU
 70
2
  9
$DIMALTTD
 70
3
  9
$DIMTXSTY
  7
Standard
  9
$DIMAUNIT
 70
0
  9
$DIMADEC
 70
0
  9
$DIMALTRND
 40
0.0
  9
$DIMAZIN
 70
0
  9
$DIMDSEP
 70
44
  9
$DIMATFIT
 70
3
  9
$DIMFRAC
 70
0
  9
$DIMLDRBLK
  1

  9
$DIMLUNIT
 70
2
  9
$DIMLWD
 70
-2
  9
$DIMLWE
 70
-2
  9
$DIMTMOVE
 70
0
  9
$DIMFXL
 40
1.0
  9
$DIMFXLON
 70
0
  9
$DIMJOGANG
 40
0.785398163397
  9
$DIMTFILL
 70
0
  9
$DIMTFILLCLR
 70
0
  9
$DIMARCSYM
 70
0
  9
$DIMLTYPE
  6

  9
$DIMLTEX1
  6

  9
$DIMLTEX2
  6

  9
$DIMTXTDIRECTION
 70
0
  9
$LUNITS
 70
2
  9
$LUPREC
 70
4
  9
$SKETCHINC
 40
1.0
  9
$FILLETRAD
 40
10.0
  9
$AUNITS
 70
0
  9
$AUPREC
 70
2
  9
$MENU
  1
.
  9
$ELEVATION
 40
0.0
  9
$PELEVATION
 40
0.0
  9
$THICKNESS
 40
0.0
  9
$LIMCHECK
 70
0
  9
$CHAMFERA
 40
0.0
  9
$CHAMFERB
 40
0.0
  9
$CHAMFERC
 40
0.0
  9
$CHAMFERD
 40
0.0
  9
$SKPOLY
 70
0
  9
$TDCREATE
 40
2461308.823784722
  9
$TDUCREATE
 40
2458532.153996898
  9
$TDUPDATE
 40
2461308.823784722
  9
$TDUUPDATE
 40
2458532.1544311
  9
$TDINDWG
 40
0.0
  9
$TDUSRTIMER
 40
0.0
  9
$USRTIMER
 70
1
  9
$ANGBASE
 50
0.0
  9
$ANGDIR
 70
0
  9
$PDMODE
 70
0
  9
$PDSIZE
 40
0.0
  9
$PLINEWID
 40
0.0
  9
$SPLFRAME
 70
0
  9
$SPLINETYPE
 70
6
  9
$SPLINESEGS
 70
8
  9
$HANDSEED
  5
37
  9
$SURFTAB1
 70
6
  9
$SURFTAB2
 70
6
  9
$SURFTYPE
 70
6
  9
$SURFU
 70
6
  9
$SURFV
 70
6
  9
$UCSBASE
  2

  9
$UCSNAME
  2

  9
$UCSORG
 10
0.0
 20
0.0
 30
0.0
  9
$UCSXDIR
 10
1.0
 20
0.0
 30
0.0
  9
$UCSYDIR
 10
0.0
 20
1.0
 30
0.0
  9
$UCSORTHOREF
  2

  9
$UCSORTHOVIEW
 70
0
  9
$UCSORGTOP
 10
0.0
 20
0.0
 30
0.0
  9
$UCSORGBOTTOM
 10
0.0
 20
0.0
 30
0.0
  9
$UCSORGLEFT
 10
0.0
 20
0.0
 30
0.0
  9
$UCSORGRIGHT
 10
0.0
 20
0.0
 30
0.0
  9
$UCSORGFRONT
 10
0.0
 20
0.0
 30
0.0
  9
$UCSORGBACK
 10
0.0
 20
0.0
 30
0.0
  9
$PUCSBASE
  2

  9
$PUCSNAME
  2

  9
$PUCSORG
 10
0.0
 20
0.0
 30
0.0
  9
$PUCSXDIR
 10
1.0
 20
0.0
 30
0.0
  9
$PUCSYDIR
 10
0.0
 20
1.0
 30
0.0
  9
$PUCSORTHOREF
  2

  9
$PUCSORTHOVIEW
 70
0
  9
$PUCSORGTOP
 10
0.0
 20
0.0
 30
0.0
  9
$PUCSORGBOTTOM
 10
0.0
 20
0.0
 30
0.0
  9
$PUCSORGLEFT
 10
0.0
 20
0.0
 30
0.0
  9
$PUCSORGRIGHT
 10
0.0
 20
0.0
 30
0.0
  9
$PUCSORGFRONT
 10
0.0
 20
0.0
 30
0.0
  9
$PUCSORGBACK
 10
0.0
 20
0.0
 30
0.0
  9
$USERI1
 70
0
  9
$USERI2
 70
0
  9
$USERI3
 70
0
  9
$USERI4
 70
0
  9
$USERI5
 70
0
  9
$USERR1
 40
0.0
  9
$USERR2
 40
0.0
  9
$USERR3
 40
0.0
  9
$USERR4
 40
0.0
  9
$USERR5
 40
0.0
  9
$WORLDVIEW
 70
1
  9
$SHADEDGE
 70
3
  9
$SHADEDIF
 70
70
  9
$TILEMODE
 70
1
  9
$MAXACTVP
 70
64
  9
$PINSBASE
 10
0.0
 20
0.0
 30
0.0
  9
$PLIMCHECK
 70
0
  9
$PEXTMIN
 10
1e+20
 20
1e+20
 30
1e+20
  9
$PEXTMAX
 10
-1e+20
 20
-1e+20
 30
-1e+20
  9
$PLIMMIN
 10
0.0
 20
0.0
  9
$PLIMMAX
 10
420.0
 20
297.0
  9
$UNITMODE
 70
0
  9
$VISRETAIN
 70
1
  9
$PLINEGEN
 70
0
  9
$PSLTSCALE
 70
1
  9
$TREEDEPTH
 70
3020
  9
$CMLSTYLE
  2
Standard
  9
$CMLJUST
 70
0
  9
$CMLSCALE
 40
20.0
  9
$PROXYGRAPHICS
 70
1
  9
$MEASUREMENT
 70
1
  9
$CELWEIGHT
370
-1
  9
$ENDCAPS
280
0
  9
$JOINSTYLE
280
0
  9
$LWDISPLAY
290
0
  9
$INSUNITS
 70
4
  9
$HYPERLINKBASE
  1

  9
$STYLESHEET
  1

  9
$XEDIT
290
1
  9
$CEPSNTYPE
380
0
  9
$PSTYLEMODE
290
1
  9
$FINGERPRINTGUID
  2
{83156A66-7EA1-44C9-9773-4178CE36FB89}
  9
$VERSIONGUID
  2
{A3BC9796-0668-4BF2-9D07-FAAD930DC4DC}
  9
$EXTNAMES
290
1
  9
$PSVPSCALE
 40
0.0
  9
$OLESTARTUP
290
0
  9
$SORTENTS
280
127
  9
$INDEXCTL
280
0
  9
$HIDETEXT
280
1
  9
$XCLIPFRAME
280
1
  9
$HALOGAP
280
0
  9
$OBSCOLOR
 70
257
  9
$OBSLTYPE
280
0
  9
$INTERSECTIONDISPLAY
280
0
  9
$INTERSECTIONCOLOR
 70
257
  9
$DIMASSOC
280
2
  9
$PROJECTNAME
  1

  9
$CAMERADISPLAY
290
0
  9
$LENSLENGTH
 40
50.0
  9
$CAMERAHEIGHT
 40
0.0
  9
$STEPSPERSEC
 40
24.0
  9
$STEPSIZE
 40
100.0
  9
$3DDWFPREC
 40
2.0
  9
$PSOLWIDTH
 40
0.005
  9
$PSOLHEIGHT
 40
0.08
  9
$LOFTANG1
 40
1.570796326795
  9
$LOFTANG2
 40
1.570796326795
  9
$LOFTMAG1
 40
0.0
  9
$LOFTMAG2
 40
0.0
  9
$LOFTPARAM
 70
7
  9
$LOFTNORMALS
280
1
  9
$LATITUDE
 40
37.795
  9
$LONGITUDE
 40
-122.394
  9
$NORTHDIRECTION
 40
0.0
  9
$TIMEZONE
 70
-8000
  9
$LIGHTGLYPHDISPLAY
280
1
  9
$TILEMODELIGHTSYNCH
280
1
  9
$CMATERIAL
347
20
  9
$SOLIDHIST
280
0
  9
$SHOWHIST
280
1
  9
$DWFFRAME
280
2
  9
$DGNFRAME
280
2
  9
$REALWORLDSCALE
290
1
  9
$INTERFERECOLOR
 62
256
  9
$CSHADOW
280
0
  9
$SHADOWPLANELOCATION
 40
0.0
  0
ENDSEC
  0
SECTION
  2
CLASSES
  0
CLASS
  1
ACDBDICTIONARYWDFLT
  2
AcDbDictionaryWithDefault
  3
ObjectDBX Classes
 90
0
 91
0
280
0
281
0
  0
CLASS
  1
SUN
  2
AcDbSun
  3
SCENEOE
 90
1153
 91
0
280
0
281
0
  0
CLASS
  1
VISUALSTYLE
  2
AcDbVisualStyle
  3
ObjectDBX Classes
 90
4095
 91
0
280
0
281
0
  0
CLASS
  1
MATERIAL
  2
AcDbMaterial
  3
ObjectDBX Classes
 90
1153
 91
0
280
0
281
0
  0
CLASS
  1
SCALE
  2
AcDbScale
  3
ObjectDBX Classes
 90
1153
 91
0
280
0
281
0
  0
CLASS
  1
TABLESTYLE
  2
AcDbTableStyle
  3
ObjectDBX Classes
 90
4095
 91
0
280
0
281
0
  0
CLASS
  1
MLEADERSTYLE
  2
AcDbMLeaderStyle
  3
ACDB_MLEADERSTYLE_CLASS
 90
4095
 91
0
280
0
281
0
  0
CLASS
  1
DICTIONARYVAR
  2
AcDbDictionaryVar
  3
ObjectDBX Classes
 90
0
 91
0
280
0
281
0
  0
CLASS
  1
CELLSTYLEMAP
  2
AcDbCellStyleMap
  3
ObjectDBX Classes
 90
1152
 91
0
280
0
281
0
  0
CLASS
  1
MENTALRAYRENDERSETTINGS
  2
AcDbMentalRayRenderSettings
  3
SCENEOE
 90
1024
 91
0
280
0
281
0
  0
CLASS
  1
ACDBDETAILVIEWSTYLE
  2
AcDbDetailViewStyle
  3
ObjectDBX Classes
 90
1025
 91
0
280
0
281
0
  0
CLASS
  1
ACDBSECTIONVIEWSTYLE
  2
AcDbSectionViewStyle
  3
ObjectDBX Classes
 90
1025
 91
0
280
0
281
0
  0
CLASS
  1
RASTERVARIABLES
  2
AcDbRasterVariables
  3
ISM
 90
0
 91
0
280
0
281
0
  0
CLASS
  1
LAYOUT
  2
AcDbLayout
  3
ObjectDBX Classes
 90
0
 91
0
280
0
281
0
  0
CLASS
  1
ACDBPLACEHOLDER
  2
AcDbPlaceHolder
  3
ObjectDBX Classes
 90
0
 91
0
280
0
281
0
  0
ENDSEC
  0
SECTION
  2
TABLES
  0
TABLE
  2
VPORT
  5
8
330
0
100
AcDbSymbolTable
 70
1
  0
VPORT
  5
23
330
8
100
AcDbSymbolTableRecord
100
AcDbViewportTableRecord
  2
*Active
 70
0
 10
0.0
 20
0.0
 11
1.0
 21
1.0
 12
0.0
 22
0.0
 13
0.0
 23
0.0
 14
0.5
 24
0.5
 15
0.5
 25
0.5
 16
0.0
 26
0.0
 36
1.0
 17
0.0
 27
0.0
 37
0.0
 40
1000.0
 41
1.34
 42
50.0
 43
0.0
 44
0.0
 50
0.0
 51
0.0
 71
0
 72
1000
 73
1
 74
3
 75
0
 76
0
 77
0
 78
0
281
0
 65
0
146
0.0
  0
ENDTAB
  0
TABLE
  2
LTYPE
  5
2
330
0
100
AcDbSymbolTable
 70
3
  0
LTYPE
  5
24
330
2
100
AcDbSymbolTableRecord
100
AcDbLinetypeTableRecord
  2
ByBlock
 70
0
  3

 72
65
 73
0
 40
0.0
  0
LTYPE
  5
25
330
2
100
AcDbSymbolTableRecord
100
AcDbLinetypeTableRecord
  2
ByLayer
 70
0
  3

 72
65
 73
0
 40
0.0
  0
LTYPE
  5
26
330
2
100
AcDbSymbolTableRecord
100
AcDbLinetypeTableRecord
  2
Continuous
 70
0
  3

 72
65
 73
0
 40
0.0
  0
ENDTAB
  0
TABLE
  2
LAYER
  5
1
330
0
100
AcDbSymbolTable
 70
3
  0
LAYER
  5
27
330
1
100
AcDbSymbolTableRecord
100
AcDbLayerTableRecord
  2
0
 70
0
 62
7
  6
Continuous
370
-3
390
13
347
21
  0
LAYER
  5
28
330
1
100
AcDbSymbolTableRecord
100
AcDbLayerTableRecord
  2
Defpoints
 70
0
 62
7
  6
Continuous
290
0
370
-3
390
13
347
21
  0
LAYER
  5
2F
330
1
100
AcDbSymbolTableRecord
100
AcDbLayerTableRecord
  2
CUT
 70
0
 62
7
  6
Continuous
370
-3
390
13
347
21
  0
ENDTAB
  0
TABLE
  2
STYLE
  5
5
330
0
100
AcDbSymbolTable
 70
1
  0
STYLE
  5
29
330
5
100
AcDbSymbolTableRecord
100
AcDbTextStyleTableRecord
  2
Standard
 70
0
 40
0.0
 41
1.0
 50
0.0
 71
0
 42
2.5
  3
txt
  4

  0
ENDTAB
  0
TABLE
  2
VIEW
  5
7
330
0
100
AcDbSymbolTable
 70
0
  0
ENDTAB
  0
TABLE
  2
UCS
  5
6
330
0
100
AcDbSymbolTable
 70
0
  0
ENDTAB
  0
TABLE
  2
APPID
  5
3
330
0
100
AcDbSymbolTable
 70
3
  0
APPID
  5
2A
330
3
100
AcDbSymbolTableRecord
100
AcDbRegAppTableRecord
  2
ACAD
 70
0
  0
APPID
  5
34
330
3
100
AcDbSymbolTableRecord
100
AcDbRegAppTableRecord
  2
HATCHBACKGROUNDCOLOR
 70
0
  0
APPID
  5
35
330
3
100
AcDbSymbolTableRecord
100
AcDbRegAppTableRecord
  2
EZDXF
 70
0
  0
ENDTAB
  0
TABLE
  2
DIMSTYLE
  5
4
330
0
100
AcDbSymbolTable
 70
1
100
AcDbDimStyleTable
  0
DIMSTYLE
105
2B
330
4
100
AcDbSymbolTableRecord
100
AcDbDimStyleTableRecord
  2
Standard
 70
0
 40
1.0
 41
2.5
 42
0.625
 43
3.75
 44
1.25
 45
0.0
 46
0.0
 47
0.0
 48
0.0
 49
2.5
140
2.5
141
2.5
142
0.0
143
0.03937007874
144
1.0
145
0.0
146
1.0
147
0.625
148
0.0
 69
0
 70
0
 71
0
 72
0
 73
0
 74
0
 75
0
 76
0
 77
1
 78
8
 79
3
170
0
171
3
172
1
173
0
174
0
175
0
176
0
177
0
178
0
179
2
271
2
272
2
273
2
274
3
275
0
276
0
277
2
278
44
279
0
280
0
281
0
282
0
283
0
284
8
285
0
286
0
288
0
289
3
290
0
371
-2
372
-2
  0
ENDTAB
  0
TABLE
  2
BLOCK_RECORD
  5
9
330
0
100
AcDbSymbolTable
 70
2
  0
BLOCK_RECORD
  5
17
330
9
100
AcDbSymbolTableRecord
100
AcDbBlockTableRecord
  2
*Model_Space
340
1A
 70
0
280
1
281
0
  0
BLOCK_RECORD
  5
1B
330
9
100
AcDbSymbolTableRecord
100
AcDbBlockTableRecord
  2
*Paper_Space
340
1E
 70
0
280
1
281
0
  0
ENDTAB
  0
ENDSEC
  0
SECTION
  2
BLOCKS
  0
BLOCK
  5
18
330
17
100
AcDbEntity
  8
0
100
AcDbBlockBegin
  2
*Model_Space
 70
0
 10
0.0
 20
0.0
 30
0.0
  3
*Model_Space
  1

  0
ENDBLK
  5
19
330
17
100
AcDbEntity
  8
0
100
AcDbBlockEnd
  0
BLOCK
  5
1C
330
1B
100
AcDbEntity
  8
0
100
AcDbBlockBegin
  2
*Paper_Space
 70
0
 10
0.0
 20
0.0
 30
0.0
  3
*Paper_Space
  1

  0
ENDBLK
  5
1D
330
1B
100
AcDbEntity
  8
0
100
AcDbBlockEnd
  0
ENDSEC
  0
SECTION
  2
ENTITIES
  0
LWPOLYLINE
  5
30
330
17
100
AcDbEntity
  8
CUT
100
AcDbPolyline
 90
119
 70
1
 10
5.0
 20
340.61768
 10
86.96532
 20
369.69613
 10
89.84866
 20
370.72233
 10
90.11264
 20
370.81789
 10
90.37694
 20
370.91252
 10
90.72696
 20
371.0358
 10
91.03569
 20
371.14363
 10
91.3448
 20
371.25077
 10
91.65432
 20
371.35688
 10
91.96438
 20
371.46135
 10
92.27502
 20
371.56371
 10
92.58578
 20
371.66514
 10
92.89702
 20
371.76429
 10
93.20879
 20
371.8611
 10
93.52112
 20
371.95563
 10
93.83427
 20
372.04752
 10
94.16485
 20
372.14126
 10
94.49136
 20
372.23041
 10
94.82833
 20
372.31924
 10
95.10989
 20
372.39112
 10
95.45305
 20
372.47448
 10
95.77151
 20
372.5481
 10
96.12023
 20
372.6257
 10
96.47984
 20
372.70107
 10
96.84015
 20
372.77119
 10
97.16487
 20
372.83069
 10
97.45758
 20
372.88119
 10
97.75094
 20
372.92815
 10
98.04492
 20
372.97219
 10
98.33953
 20
373.01345
 10
98.63474
 20
373.05188
 10
98.93051
 20
373.0873
 10
99.22678
 20
373.11937
 10
99.52331
 20
373.14948
 10
99.82003
 20
373.17697
 10
100.11681
 20
373.20201
 10
100.41363
 20
373.22398
 10
100.71041
 20
373.24335
 10
101.00712
 20
373.26055
 10
101.3038
 20
373.27564
 10
101.60061
 20
373.28815
 10
101.8976
 20
373.29888
 10
102.19482
 20
373.30803
 10
102.49231
 20
373.31507
 10
102.79
 20
373.32048
 10
103.08782
 20
373.32471
 10
103.38569
 20
373.32789
 10
103.68362
 20
373.3298
 10
103.98147
 20
373.33059
 10
104.27921
 20
373.33072
 10
104.57684
 20
373.33021
 10
104.87439
 20
373.32902
 10
150.01002
 20
373.17814
 10
195.15021
 20
373.03477
 10
194.97851
 20
321.03875
 10
194.80488
 20
264.80013
 10
194.66047
 20
208.57274
 10
194.5478
 20
152.34356
 10
194.50911
 20
124.23547
 10
194.49174
 20
96.12875
 10
234.49017
 20
96.14544
 10
234.49473
 20
31.14646
 10
198.78859
 20
31.14895
 10
163.08917
 20
31.14954
 10
162.76942
 20
31.14881
 10
162.44967
 20
31.14731
 10
162.12993
 20
31.14561
 10
161.81021
 20
31.14309
 10
161.49049
 20
31.13958
 10
161.17079
 20
31.13461
 10
160.85111
 20
31.12798
 10
160.53147
 20
31.11974
 10
160.2119
 20
31.10972
 10
159.89241
 20
31.09745
 10
159.57302
 20
31.08269
 10
159.2537
 20
31.06557
 10
158.93451
 20
31.04608
 10
158.61551
 20
31.02385
 10
158.29677
 20
30.99863
 10
157.97831
 20
30.97038
 10
157.66014
 20
30.93921
 10
157.34229
 20
30.90463
 10
157.02474
 20
30.86695
 10
156.70759
 20
30.82592
 10
156.39091
 20
30.78144
 10
156.07475
 20
30.73365
 10
155.75915
 20
30.68265
 10
155.4442
 20
30.62784
 10
155.12979
 20
30.56979
 10
154.81596
 20
30.50838
 10
154.5028
 20
30.44354
 10
154.15571
 20
30.36759
 10
153.81918
 20
30.29021
 10
153.47823
 20
30.20761
 10
153.15199
 20
30.12507
 10
152.79049
 20
30.02943
 10
152.42996
 20
29.92999
 10
152.07036
 20
29.82717
 10
151.71176
 20
29.72103
 10
151.38988
 20
29.62265
 10
151.0655
 20
29.52094
 10
150.7418
 20
29.41722
 10
150.4187
 20
29.3116
 10
150.06036
 20
29.19225
 10
149.70273
 20
29.07096
 10
149.38127
 20
28.96061
 10
149.06017
 20
28.84924
 10
148.79608
 20
28.75691
 10
148.5321
 20
28.66412
 10
148.21617
 20
28.55353
 10
147.29324
 20
28.23013
 10
81.16981
 20
5.0
 10
59.63786
 20
66.32836
 10
97.37996
 20
79.57103
 10
88.04729
 20
106.08299
 10
78.6968
 20
132.58917
 10
59.95186
 20
185.60061
 10
41.18957
 20
238.60973
 10
22.39202
 20
291.61664
  0
LWPOLYLINE
  5
31
330
17
100
AcDbEntity
  8
CUT
100
AcDbPolyline
 90
119
 70
1
 10
248.08592000000002
 20
298.42976
 10
239.49473
 20
349.71118
 10
325.27213
 20
364.069
 10
328.29016
 20
364.57731
 10
328.56675
 20
364.62543
 10
328.84349
 20
364.67257
 10
329.20963
 20
364.73301
 10
329.53243
 20
364.78541
 10
329.85547
 20
364.83708
 10
330.17875000000004
 20
364.88765
 10
330.50227
 20
364.93652
 10
330.82599
 20
364.9832
 10
331.14966
 20
365.02896
 10
331.47343
 20
365.07238
 10
331.79729
 20
365.11341
 10
332.12131
 20
365.15209
 10
332.44568000000004
 20
365.18802
 10
332.78754000000004
 20
365.22276
 10
333.12459
 20
365.25367
 10
333.47188
 20
365.28245
 10
333.76165000000003
 20
365.30418
 10
334.11408
 20
365.3265
 10
334.4405
 20
365.34352
 10
334.79741
 20
365.35919
 10
335.16465
 20
365.37077
 10
335.53166
 20
365.37706
 10
335.86179
 20
365.37909
 10
336.15881
 20
365.37783
 10
336.45587
 20
365.37298
 10
336.75302
 20
365.36514
 10
337.05032
 20
365.35445
 10
337.34771
 20
365.34088
 10
337.64513
 20
365.32424
 10
337.94246
 20
365.30422
 10
338.23969
 20
365.28222
 10
338.53667
 20
365.2576
 10
338.83326999999997
 20
365.23056
 10
339.12937999999997
 20
365.2005
 10
339.425
 20
365.16788
 10
339.72016
 20
365.13313
 10
340.01494
 20
365.09631
 10
340.30939
 20
365.05693
 10
340.60371
 20
365.01577
 10
340.89798
 20
364.97301
 10
341.19214999999997
 20
364.92812
 10
341.48623
 20
364.88161
 10
341.78023
 20
364.83389
 10
342.0741
 20
364.78515
 10
342.3678
 20
364.73513
 10
342.66124
 20
364.68403
 10
342.95445
 20
364.63229
 10
343.24743
 20
364.57996
 10
343.54023
 20
364.52696
 10
387.95955000000004
 20
356.51709
 10
432.38472
 20
348.51368
 10
423.15900999999997
 20
297.34251
 10
413.19329
 20
241.99416
 10
403.25901
 20
186.65121
 10
393.35312999999996
 20
131.30113
 10
388.41931
 20
103.62971
 10
383.50746000000004
 20
75.95585
 10
422.89759000000004
 20
69.00648
 10
411.58216000000004
 20
5.0
 10
376.42213000000004
 20
11.2209
 10
341.26838
 20
17.4388
 10
340.95339
 20
17.493769999999998
 10
340.63826
 20
17.547980000000003
 10
340.32311
 20
17.60199
 10
340.00784
 20
17.655189999999997
 10
339.69241
 20
17.70741
 10
339.37672
 20
17.758200000000002
 10
339.06077
 20
17.80734
 10
338.74458
 20
17.8549
 10
338.42815
 20
17.90068
 10
338.11141
 20
17.94424
 10
337.79431999999997
 20
17.985329999999998
 10
337.47691
 20
18.02409
 10
337.1592
 20
18.06048
 10
336.8412
 20
18.09415
 10
336.52294
 20
18.12482
 10
336.20443
 20
18.152459999999998
 10
335.88569
 20
18.17718
 10
335.56668
 20
18.19849
 10
335.24742000000003
 20
18.21668
 10
334.92797
 20
18.23151
 10
334.60839
 20
18.24287
 10
334.28874
 20
18.25086
 10
333.96908
 20
18.25561
 10
333.6494
 20
18.25648
 10
333.32967
 20
18.254080000000002
 10
333.00995
 20
18.248269999999998
 10
332.69029
 20
18.238950000000003
 10
332.33527000000004
 20
18.22461
 10
331.99041
 20
18.20702
 10
331.64028
 20
18.18506
 10
331.30465000000004
 20
18.160600000000002
 10
330.93202
 20
18.129379999999998
 10
330.55968
 20
18.09424
 10
330.18767
 20
18.05563
 10
329.81607
 20
18.013550000000002
 10
329.48197
 20
17.97274
 10
329.14483
 20
17.92907
 10
328.80802
 20
17.88331
 10
328.47147
 20
17.83558
 10
328.09782
 20
17.780450000000002
 10
327.72453
 20
17.723309999999998
 10
327.38877
 20
17.67062
 10
327.05318
 20
17.616880000000002
 10
326.77704
 20
17.57195
 10
326.50094
 20
17.52655
 10
326.17057
 20
17.47267
 10
325.20542
 20
17.31494
 10
256.04683
 20
5.9555
 10
245.52453
 20
70.09655
 10
284.99615
 20
76.56391
 10
280.42349
 20
104.29606
 10
275.83258
 20
132.02543
 10
266.606
 20
187.49141
 10
257.36332
 20
242.95871
  0
LWPOLYLINE
  5
32
330
17
100
AcDbEntity
  8
CUT
100
AcDbPolyline
 90
104
 70
1
 10
441.10235
 20
161.21249
 10
443.78475000000003
 20
161.19702
 10
445.90768
 20
161.18485
 10
448.74636000000004
 20
161.16834
 10
452.03035
 20
161.15014
 10
455.39573
 20
161.13134
 10
458.83111
 20
161.11394
 10
462.32459
 20
161.09776
 10
465.86404
 20
161.08404
 10
469.43707
 20
161.07263
 10
473.03127
 20
161.06225
 10
476.63453000000004
 20
161.05574
 10
480.2328
 20
161.05066
 10
483.81056
 20
161.0512
 10
487.35830000000004
 20
161.0534
 10
490.86809
 20
161.06122
 10
494.33402
 20
161.07268
 10
497.75214
 20
161.09039
 10
501.11983000000004
 20
161.11426
 10
504.10697
 20
161.14222
 10
506.76193
 20
161.17263
 10
508.83028
 20
161.19955
 10
510.88658
 20
161.22863
 10
513.12749
 20
161.27161
 10
515.37368
 20
161.31945
 10
517.61331
 20
161.37125
 10
519.85754
 20
161.42627
 10
522.11463
 20
161.48606
 10
524.37779
 20
161.54944
 10
526.63358
 20
161.6153
 10
528.87942
 20
161.68436
 10
531.11919
 20
161.75575
 10
534.10351
 20
161.85481
 10
537.46915
 20
161.9699
 10
540.84906
 20
162.09185
 10
544.2305
 20
162.21557
 10
547.59063
 20
162.34269
 10
550.93829
 20
162.47247
 10
554.28297
 20
162.60343
 10
557.62944
 20
162.73771
 10
560.98315
 20
162.87299
 10
564.35424
 20
163.01155
 10
567.73575
 20
163.15231
 10
571.10258
 20
163.29222
 10
574.45435
 20
163.43275
 10
577.59212
 20
163.56549
 10
580.53763
 20
163.69083
 10
583.49641
 20
163.81612
 10
585.06461
 20
163.8806
 10
586.63977
 20
163.94708
 10
593.3698300000001
 20
8.10086
 10
591.20852
 20
8.00623
 10
588.98618
 20
7.90957
 10
585.68856
 20
7.76629
 10
582.27544
 20
7.61903
 10
578.76938
 20
7.46884
 10
575.1834200000001
 20
7.31572
 10
571.53161
 20
7.16049
 10
567.8276500000001
 20
7.00572
 10
564.08564
 20
6.8517
 10
560.31943
 20
6.69701
 10
556.54263
 20
6.5428
 10
552.7695
 20
6.39125
 10
549.01533
 20
6.24516
 10
545.29418
 20
6.10307
 10
541.61754
 20
5.96699
 10
538.39355
 20
5.85086
 10
536.00546
 20
5.7676
 10
533.64447
 20
5.68806
 10
531.3111200000001
 20
5.61258
 10
529.00524
 20
5.54138
 10
526.7264700000001
 20
5.4744
 10
524.4740400000001
 20
5.41237
 10
522.2461000000001
 20
5.35553
 10
520.03902
 20
5.30322
 10
517.84683
 20
5.25565
 10
515.66376
 20
5.21488
 10
513.47412
 20
5.17221
 10
511.2645
 20
5.13679
 10
509.03882
 20
5.10782
 10
506.79214
 20
5.08322
 10
504.52082
 20
5.06209
 10
502.2225
 20
5.0443
 10
499.89587
 20
5.02967
 10
497.54066
 20
5.01772
 10
495.15732
 20
5.00915
 10
492.74665000000005
 20
5.00314
 10
489.49238
 20
5.0
 10
485.78177
 20
5.00038
 10
482.02705000000003
 20
5.00545
 10
478.2387
 20
5.01375
 10
474.43177000000003
 20
5.02489
 10
470.62253000000004
 20
5.04008
 10
466.82469000000003
 20
5.0562
 10
463.05272
 20
5.07453
 10
459.3211
 20
5.09427
 10
455.64426000000003
 20
5.11512
 10
452.03630000000004
 20
5.13683
 10
448.51079000000004
 20
5.1588
 10
445.08417000000003
 20
5.18336
 10
441.77726
 20
5.20744
 10
439.55001000000004
 20
5.2238
 10
437.38472
 20
5.23995
 10
438.50705
 20
161.22863
  0
LWPOLYLINE
  5
33
330
17
100
AcDbEntity
  8
CUT
100
AcDbPolyline
 90
133
 70
1
 10
451.82079
 20
170.89541
 10
448.49920000000003
 20
170.99557
 10
445.17973
 20
171.09544
 10
441.28346
 20
171.21263
 10
437.38472
 20
171.32967
 10
441.71341
 20
322.26751
 10
443.91801
 20
322.20164
 10
446.12117
 20
322.13557000000003
 10
448.32118
 20
322.06953999999996
 10
450.51627
 20
322.00347999999997
 10
452.70853
 20
321.93736
 10
454.62744000000004
 20
321.87937999999997
 10
456.55183
 20
321.82097
 10
456.55172000000005
 20
321.81732999999997
 10
459.85941
 20
321.72141999999997
 10
463.14549
 20
321.62504
 10
465.70622000000003
 20
321.55245
 10
468.16299000000004
 20
321.48231
 10
470.62458000000004
 20
321.41291
 10
473.09635000000003
 20
321.34397
 10
475.5772
 20
321.27565000000004
 10
478.05835
 20
321.20717
 10
480.53119000000004
 20
321.14074
 10
482.99259
 20
321.07631000000003
 10
485.44838000000004
 20
321.01311
 10
487.90504
 20
320.95155
 10
490.36956000000004
 20
320.89126
 10
492.84914000000003
 20
320.83187
 10
495.3342
 20
320.7754
 10
497.80870000000004
 20
320.72006
 10
500.27344000000005
 20
320.66634999999997
 10
502.73272000000003
 20
320.61491
 10
505.19074
 20
320.56505000000004
 10
507.65197
 20
320.51725999999996
 10
510.12094
 20
320.47064
 10
512.6017
 20
320.4291
 10
515.09128
 20
320.38772
 10
516.71335
 20
320.36136999999997
 10
518.3356
 20
320.337
 10
518.33574
 20
320.34114999999997
 10
519.96104
 20
320.31567
 10
521.58636
 20
320.29122
 10
523.21169
 20
320.26779999999997
 10
523.21163
 20
320.26566
 10
526.53806
 20
320.22324000000003
 10
529.85366
 20
320.18277
 10
532.2307000000001
 20
320.15828
 10
534.72347
 20
320.1338
 10
537.2153500000001
 20
320.11161000000004
 10
539.59036
 20
320.09186
 10
542.6056600000001
 20
320.06962999999996
 10
544.96725
 20
320.054
 10
547.4977
 20
320.03778
 10
550.03011
 20
320.0235
 10
552.3977600000001
 20
320.01104
 10
555.35149
 20
319.99858
 10
558.67402
 20
319.98636
 10
561.04129
 20
319.97929999999997
 10
563.5122
 20
319.97265
 10
565.86848
 20
319.96738
 10
568.8714600000001
 20
319.96217
 10
572.26202
 20
319.95553
 10
574.64153
 20
319.95184
 10
577.20608
 20
319.95068000000003
 10
578.67219
 20
319.94896
 10
580.1383000000001
 20
319.94732999999997
 10
580.1383000000001
 20
319.94903999999997
 10
582.3348000000001
 20
319.94921999999997
 10
584.5298700000001
 20
319.94912999999997
 10
586.72182
 20
319.94893
 10
588.9089200000001
 20
319.94854
 10
591.09348
 20
319.94802000000004
 10
592.91584
 20
319.9475
 10
594.74321
 20
319.94676000000004
 10
594.74321
 20
168.94708
 10
591.42066
 20
168.94786
 10
588.10018
 20
168.94842
 10
584.20271
 20
168.94902
 10
580.3028400000001
 20
168.94936
 10
580.3028400000001
 20
168.95107
 10
578.65233
 20
168.95075
 10
577.00197
 20
168.95234
 10
574.52301
 20
168.95033
 10
572.05253
 20
168.95004
 10
569.59301
 20
168.95119
 10
567.14114
 20
168.95241
 10
564.69294
 20
168.95497
 10
562.24426
 20
168.9587
 10
559.79038
 20
168.96293
 10
557.3263000000001
 20
168.96839
 10
554.85077
 20
168.9756
 10
552.3804
 20
168.98356
 10
549.92498
 20
168.99344
 10
547.47766
 20
169.00429
 10
545.03142
 20
169.01751
 10
542.57968
 20
169.03246
 10
540.11652
 20
169.04889
 10
537.64492
 20
169.06768
 10
535.17382
 20
169.08861
 10
532.71164
 20
169.11118
 10
530.25949
 20
169.13612
 10
527.81213
 20
169.16304
 10
525.25838
 20
169.19488
 10
521.98522
 20
169.23623
 10
518.69063
 20
169.2844
 10
518.69057
 20
169.28226
 10
513.41301
 20
169.3621
 10
513.41314
 20
169.36625
 10
511.76287
 20
169.39224
 10
510.11274000000003
 20
169.4185
 10
507.63373
 20
169.46217
 10
505.16344000000004
 20
169.50535
 10
502.70417000000003
 20
169.55202
 10
500.25273000000004
 20
169.60046
 10
497.80498
 20
169.65086
 10
495.3569
 20
169.70304
 10
492.90368
 20
169.75664
 10
490.44039000000004
 20
169.81434
 10
487.96576000000005
 20
169.87438
 10
485.49632
 20
169.93542
 10
483.04188
 20
169.99762
 10
480.59545
 20
170.06006
 10
478.15024
 20
170.12553
 10
475.69956
 20
170.19219
 10
473.23745
 20
170.26055
 10
470.76703000000003
 20
170.33135
 10
468.29709
 20
170.40279
 10
465.83607
 20
170.47496
 10
463.38489000000004
 20
170.54757
 10
460.93857
 20
170.62138
 10
458.38588000000004
 20
170.69899
 10
455.11434
 20
170.79979
 10
451.8209
 20
170.89905
  0
ENDSEC
  0
SECTION
  2
OBJECTS
  0
DICTIONARY
  5
A
330
0
100
AcDbDictionary
281
1
  3
ACAD_COLOR
350
B
  3
ACAD_GROUP
350
C
  3
ACAD_LAYOUT
350
D
  3
ACAD_MATERIAL
350
E
  3
ACAD_MLEADERSTYLE
350
F
  3
ACAD_MLINESTYLE
350
10
  3
ACAD_PLOTSETTINGS
350
11
  3
ACAD_PLOTSTYLENAME
350
12
  3
ACAD_SCALELIST
350
14
  3
ACAD_TABLESTYLE
350
15
  3
ACAD_VISUALSTYLE
350
16
  3
EZDXF_META
350
2D
  0
DICTIONARY
  5
B
330
A
100
AcDbDictionary
281
1
  0
DICTIONARY
  5
C
330
A
100
AcDbDictionary
281
1
  0
DICTIONARY
  5
D
330
A
100
AcDbDictionary
281
1
  3
Model
350
1A
  3
Layout1
350
1E
  0
DICTIONARY
  5
E
330
A
100
AcDbDictionary
281
1
  3
ByBlock
350
1F
  3
ByLayer
350
20
  3
Global
350
21
  0
DICTIONARY
  5
F
330
A
100
AcDbDictionary
281
1
  3
Standard
350
2C
  0
DICTIONARY
  5
10
330
A
100
AcDbDictionary
281
1
  3
Standard
350
22
  0
DICTIONARY
  5
11
330
A
100
AcDbDictionary
281
1
  0
ACDBDICTIONARYWDFLT
  5
12
330
A
100
AcDbDictionary
281
1
  3
Normal
350
13
100
AcDbDictionaryWithDefault
340
13
  0
ACDBPLACEHOLDER
  5
13
330
12
  0
DICTIONARY
  5
14
330
A
100
AcDbDictionary
281
1
  0
DICTIONARY
  5
15
330
A
100
AcDbDictionary
281
1
  0
DICTIONARY
  5
16
330
A
100
AcDbDictionary
281
1
  0
LAYOUT
  5
1A
330
D
100
AcDbPlotSettings
  1

  4
A3
  6

 40
7.5
 41
20.0
 42
7.5
 43
20.0
 44
420.0
 45
297.0
 46
0.0
 47
0.0
 48
0.0
 49
0.0
140
0.0
141
0.0
142
1.0
143
1.0
 70
1024
 72
1
 73
0
 74
5
  7

 75
16
 76
0
 77
2
 78
300
147
1.0
148
0.0
149
0.0
100
AcDbLayout
  1
Model
 70
1
 71
0
 10
0.0
 20
0.0
 11
420.0
 21
297.0
 12
0.0
 22
0.0
 32
0.0
 14
1e+20
 24
1e+20
 34
1e+20
 15
-1e+20
 25
-1e+20
 35
-1e+20
146
0.0
 13
0.0
 23
0.0
 33
0.0
 16
1.0
 26
0.0
 36
0.0
 17
0.0
 27
1.0
 37
0.0
 76
1
330
17
  0
LAYOUT
  5
1E
330
D
100
AcDbPlotSettings
  1

  4
A3
  6

 40
7.5
 41
20.0
 42
7.5
 43
20.0
 44
420.0
 45
297.0
 46
0.0
 47
0.0
 48
0.0
 49
0.0
140
0.0
141
0.0
142
1.0
143
1.0
 70
0
 72
1
 73
0
 74
5
  7

 75
16
 76
0
 77
2
 78
300
147
1.0
148
0.0
149
0.0
100
AcDbLayout
  1
Layout1
 70
1
 71
1
 10
0.0
 20
0.0
 11
420.0
 21
297.0
 12
0.0
 22
0.0
 32
0.0
 14
1e+20
 24
1e+20
 34
1e+20
 15
-1e+20
 25
-1e+20
 35
-1e+20
146
0.0
 13
0.0
 23
0.0
 33
0.0
 16
1.0
 26
0.0
 36
0.0
 17
0.0
 27
1.0
 37
0.0
 76
1
330
1B
  0
MATERIAL
  5
1F
102
{ACAD_REACTORS
330
E
102
}
330
E
100
AcDbMaterial
  1
ByBlock
  2

 70
0
 40
1.0
 71
1
 41
1.0
 91
-1023410177
 42
1.0
 72
1
  3

 73
1
 74
1
 75
1
 44
0.5
 73
0
 45
1.0
 46
1.0
 77
1
  4

 78
1
 79
1
170
1
 48
1.0
171
1
  6

172
1
173
1
174
1
140
1.0
141
1.0
175
1
  7

176
1
177
1
178
1
143
1.0
179
1
  8

270
1
271
1
272
1
145
1.0
146
1.0
273
1
  9

274
1
275
1
276
1
 42
1.0
 72
1
  3

 73
1
 74
1
 75
1
 94
63
  0
MATERIAL
  5
20
102
{ACAD_REACTORS
330
E
102
}
330
E
100
AcDbMaterial
  1
ByLayer
  2

 70
0
 40
1.0
 71
1
 41
1.0
 91
-1023410177
 42
1.0
 72
1
  3

 73
1
 74
1
 75
1
 44
0.5
 73
0
 45
1.0
 46
1.0
 77
1
  4

 78
1
 79
1
170
1
 48
1.0
171
1
  6

172
1
173
1
174
1
140
1.0
141
1.0
175
1
  7

176
1
177
1
178
1
143
1.0
179
1
  8

270
1
271
1
272
1
145
1.0
146
1.0
273
1
  9

274
1
275
1
276
1
 42
1.0
 72
1
  3

 73
1
 74
1
 75
1
 94
63
  0
MATERIAL
  5
21
102
{ACAD_REACTORS
330
E
102
}
330
E
100
AcDbMaterial
  1
Global
  2

 70
0
 40
1.0
 71
1
 41
1.0
 91
-1023410177
 42
1.0
 72
1
  3

 73
1
 74
1
 75
1
 44
0.5
 73
0
 45
1.0
 46
1.0
 77
1
  4

 78
1
 79
1
170
1
 48
1.0
171
1
  6

172
1
173
1
174
1
140
1.0
141
1.0
175
1
  7

176
1
177
1
178
1
143
1.0
179
1
  8

270
1
271
1
272
1
145
1.0
146
1.0
273
1
  9

274
1
275
1
276
1
 42
1.0
 72
1
  3

 73
1
 74
1
 75
1
 94
63
  0
MLINESTYLE
  5
22
102
{ACAD_REACTORS
330
10
102
}
330
10
100
AcDbMlineStyle
  2
Standard
 70
0
  3

 62
256
 51
90.0
 52
90.0
 71
2
 49
0.5
 62
256
  6
BYLAYER
 49
-0.5
 62
256
  6
BYLAYER
  0
MLEADERSTYLE
  5
2C
102
{ACAD_REACTORS
330
F
102
}
330
F
100
AcDbMLeaderStyle
179
2
170
2
171
1
172
0
 90
2
 40
0.0
 41
0.0
173
1
 91
-1056964608
 92
-2
290
1
 42
2.0
291
1
 43
8.0
  3
Standard
 44
4.0
300

342
29
174
1
175
1
176
0
178
1
 93
-1056964608
 45
4.0
292
0
297
0
 46
4.0
 94
-1056964608
 47
1.0
 49
1.0
140
1.0
294
1
141
0.0
177
0
142
1.0
295
0
296
0
143
3.75
271
0
272
9
273
9
  0
DICTIONARY
  5
2D
330
A
100
AcDbDictionary
280
1
281
1
  3
CREATED_BY_EZDXF
350
2E
  3
WRITTEN_BY_EZDXF
350
36
  0
DICTIONARYVAR
  5
2E
330
2D
100
DictionaryVariables
280
0
  1
1.4.4 @ 2026-09-24T14:16:15.070495+00:00
  0
DICTIONARYVAR
  5
36
330
2D
100
DictionaryVariables
280
0
  1
1.4.4 @ 2026-09-24T14:16:15.101742+00:00
  0
ENDSEC
  0
EOF
