  0
SECTION
  2
HEADER
  9
$ACADVER
  1
AC1024
  9
$ACADMAINTVER
 70
6
  9
$DWGCODEPAGE
  3
ANSI_1252
  9
$LASTSAVEDBY
  1
ezdxf
  9
$INSBASE
 10
0.0
 20
0.0
 30
0.0
  9
$EXTMIN
 10
1e+20
 20
1e+20
 30
1e+20
  9
$EXTMAX
 10
-1e+20
 20
-1e+20
 30
-1e+20
  9
$LIMMIN
 10
0.0
 20
0.0
  9
$LIMMAX
 10
420.0
 20
297.0
  9
$ORTHOMODE
 70
0
  9
$REGENMODE
 70
1
  9
$FILLMODE
 70
1
  9
$QTEXTMODE
 70
0
  9
$MIRRTEXT
 70
1
  9
$LTSCALE
 40
1.0
  9
$ATTMODE
 70
1
  9
$TEXTSIZE
 40
2.5
  9
$TRACEWID
 40
1.0
  9
$TEXTSTYLE
  7
Standard
  9
$CLAYER
  8
0
  9
$CELTYPE
  6
ByLayer
  9
$CECOLOR
 62
256
  9
$CELTSCALE
 40
1.0
  9
$DISPSILH
 70
0
  9
$DIMSCALE
 40
1.0
  9
$DIMASZ
 40
2.5
  9
$DIMEXO
 40
0.625
  9
$DIMDLI
 40
3.75
  9
$DIMRND
 40
0.0
  9
$DIMDLE
 40
0.0
  9
$DIMEXE
 40
1.25
  9
$DIMTP
 40
0.0
  9
$DIMTM
 40
0.0
  9
$DIMTXT
 40
2.5
  9
$DIMCEN
 40
2.5
  9
$DIMTSZ
 40
0.0
  9
$DIMTOL
 70
0
  9
$DIMLIM
 70
0
  9
$DIMTIH
 70
0
  9
$DIMTOH
 70
0
  9
$DIMSE1
 70
0
  9
$DIMSE2
 70
0
  9
$DIMTAD
 70
1
  9
$DIMZIN
 70
8
  9
$DIMBLK
  1

  9
$DIMASO
 70
1
  9
$DIMSHO
 70
1
  9
$DIMPOST
  1

  9
$DIMAPOST
  1

  9
$DIMALT
 70
0
  9
$DIMALTD
 70
3
  9
$DIMALTF
 40
0.03937007874
  9
$DIMLFAC
 40
1.0
  9
$DIMTOFL
 70
1
  9
$DIMTVP
 40
0.0
  9
$DIMTIX
 70
0
  9
$DIMSOXD
 70
0
  9
$DIMSAH
 70
0
  9
$DIMBLK1
  1

  9
$DIMBLK2
  1

  9
$DIMSTYLE
  2
ISO-25
  9
$DIMCLRD
 70
0
  9
$DIMCLRE
 70
0
  9
$DIMCLRT
 70
0
  9
$DIMTFAC
 40
1.0
  9
$DIMGAP
 40
0.625
  9
$DIMJUST
 70
0
  9
$DIMSD1
 70
0
  9
$DIMSD2
 70
0
  9
$DIMTOLJ
 70
0
  9
$DIMTZIN
 70
8
  9
$DIMALTZ
 70
0
  9
$DIMALTTZ
 70
0
  9
$DIMUPT
 70
0
  9
$DIMDEC
 70
2
  9
$DIMTDEC
 70
2
  9
$DIMALTU
 70
2
  9
$DIMALTTD
 70
3
  9
$DIMTXSTY
  7
Standard
  9
$DIMAUNIT
 70
0
  9
$DIMADEC
 70
0
  9
$DIMALTRND
 40
0.0
  9
$DIMAZIN
 70
0
  9
$DIMDSEP
 70
44
  9
$DIMATFIT
 70
3
  9
$DIMFRAC
 70
0
  9
$DIMLDRBLK
  1

  9
$DIMLUNIT
 70
2
  9
$DIMLWD
 70
-2
  9
$DIMLWE
 70
-2
  9
$DIMTMOVE
 70
0
  9
$DIMFXL
 40
1.0
  9
$DIMFXLON
 70
0
  9
$DIMJOGANG
 40
0.785398163397
  9
$DIMTFILL
 70
0
  9
$DIMTFILLCLR
 70
0
  9
$DIMARCSYM
 70
0
  9
$DIMLTYPE
  6

  9
$DIMLTEX1
  6

  9
$DIMLTEX2
  6

  9
$DIMTXTDIRECTION
 70
0
  9
$LUNITS
 70
2
  9
$LUPREC
 70
4
  9
$SKETCHINC
 40
1.0
  9
$FILLETRAD
 40
10.0
  9
$AUNITS
 70
0
  9
$AUPREC
 70
2
  9
$MENU
  1
.
  9
$ELEVATION
 40
0.0
  9
$PELEVATION
 40
0.0
  9
$THICKNESS
 40
0.0
  9
$LIMCHECK
 70
0
  9
$CHAMFERA
 40
0.0
  9
$CHAMFERB
 40
0.0
  9
$CHAMFERC
 40
0.0
  9
$CHAMFERD
 40
0.0
  9
$SKPOLY
 70
0
  9
$TDCREATE
 40
2461308.791527778
  9
$TDUCREATE
 40
2458532.153996898
  9
$TDUPDATE
 40
2461308.791539352
  9
$TDUUPDATE
 40
2458532.1544311
  9
$TDINDWG
 40
0.0
  9
$TDUSRTIMER
 40
0.0
  9
$USRTIMER
 70
1
  9
$ANGBASE
 50
0.0
  9
$ANGDIR
 70
0
  9
$PDMODE
 70
0
  9
$PDSIZE
 40
0.0
  9
$PLINEWID
 40
0.0
  9
$SPLFRAME
 70
0
  9
$SPLINETYPE
 70
6
  9
$SPLINESEGS
 70
8
  9
$HANDSEED
  5
57
  9
$SURFTAB1
 70
6
  9
$SURFTAB2
 70
6
  9
$SURFTYPE
 70
6
  9
$SURFU
 70
6
  9
$SURFV
 70
6
  9
$UCSBASE
  2

  9
$UCSNAME
  2

  9
$UCSORG
 10
0.0
 20
0.0
 30
0.0
  9
$UCSXDIR
 10
1.0
 20
0.0
 30
0.0
  9
$UCSYDIR
 10
0.0
 20
1.0
 30
0.0
  9
$UCSORTHOREF
  2

  9
$UCSORTHOVIEW
 70
0
  9
$UCSORGTOP
 10
0.0
 20
0.0
 30
0.0
  9
$UCSORGBOTTOM
 10
0.0
 20
0.0
 30
0.0
  9
$UCSORGLEFT
 10
0.0
 20
0.0
 30
0.0
  9
$UCSORGRIGHT
 10
0.0
 20
0.0
 30
0.0
  9
$UCSORGFRONT
 10
0.0
 20
0.0
 30
0.0
  9
$UCSORGBACK
 10
0.0
 20
0.0
 30
0.0
  9
$PUCSBASE
  2

  9
$PUCSNAME
  2

  9
$PUCSORG
 10
0.0
 20
0.0
 30
0.0
  9
$PUCSXDIR
 10
1.0
 20
0.0
 30
0.0
  9
$PUCSYDIR
 10
0.0
 20
1.0
 30
0.0
  9
$PUCSORTHOREF
  2

  9
$PUCSORTHOVIEW
 70
0
  9
$PUCSORGTOP
 10
0.0
 20
0.0
 30
0.0
  9
$PUCSORGBOTTOM
 10
0.0
 20
0.0
 30
0.0
  9
$PUCSORGLEFT
 10
0.0
 20
0.0
 30
0.0
  9
$PUCSORGRIGHT
 10
0.0
 20
0.0
 30
0.0
  9
$PUCSORGFRONT
 10
0.0
 20
0.0
 30
0.0
  9
$PUCSORGBACK
 10
0.0
 20
0.0
 30
0.0
  9
$USERI1
 70
0
  9
$USERI2
 70
0
  9
$USERI3
 70
0
  9
$USERI4
 70
0
  9
$USERI5
 70
0
  9
$USERR1
 40
0.0
  9
$USERR2
 40
0.0
  9
$USERR3
 40
0.0
  9
$USERR4
 40
0.0
  9
$USERR5
 40
0.0
  9
$WORLDVIEW
 70
1
  9
$SHADEDGE
 70
3
  9
$SHADEDIF
 70
70
  9
$TILEMODE
 70
1
  9
$MAXACTVP
 70
64
  9
$PINSBASE
 10
0.0
 20
0.0
 30
0.0
  9
$PLIMCHECK
 70
0
  9
$PEXTMIN
 10
1e+20
 20
1e+20
 30
1e+20
  9
$PEXTMAX
 10
-1e+20
 20
-1e+20
 30
-1e+20
  9
$PLIMMIN
 10
0.0
 20
0.0
  9
$PLIMMAX
 10
420.0
 20
297.0
  9
$UNITMODE
 70
0
  9
$VISRETAIN
 70
1
  9
$PLINEGEN
 70
0
  9
$PSLTSCALE
 70
1
  9
$TREEDEPTH
 70
3020
  9
$CMLSTYLE
  2
Standard
  9
$CMLJUST
 70
0
  9
$CMLSCALE
 40
20.0
  9
$PROXYGRAPHICS
 70
1
  9
$MEASUREMENT
 70
1
  9
$CELWEIGHT
370
-1
  9
$ENDCAPS
280
0
  9
$JOINSTYLE
280
0
  9
$LWDISPLAY
290
0
  9
$INSUNITS
 70
4
  9
$HYPERLINKBASE
  1

  9
$STYLESHEET
  1

  9
$XEDIT
290
1
  9
$CEPSNTYPE
380
0
  9
$PSTYLEMODE
290
1
  9
$FINGERPRINTGUID
  2
{3B1B56CD-049C-4FC3-9E5D-E7D1566642ED}
  9
$VERSIONGUID
  2
{12FA864A-8902-489A-B68D-6D1277CCA981}
  9
$EXTNAMES
290
1
  9
$PSVPSCALE
 40
0.0
  9
$OLESTARTUP
290
0
  9
$SORTENTS
280
127
  9
$INDEXCTL
280
0
  9
$HIDETEXT
280
1
  9
$XCLIPFRAME
280
1
  9
$HALOGAP
280
0
  9
$OBSCOLOR
 70
257
  9
$OBSLTYPE
280
0
  9
$INTERSECTIONDISPLAY
280
0
  9
$INTERSECTIONCOLOR
 70
257
  9
$DIMASSOC
280
2
  9
$PROJECTNAME
  1

  9
$CAMERADISPLAY
290
0
  9
$LENSLENGTH
 40
50.0
  9
$CAMERAHEIGHT
 40
0.0
  9
$STEPSPERSEC
 40
24.0
  9
$STEPSIZE
 40
100.0
  9
$3DDWFPREC
 40
2.0
  9
$PSOLWIDTH
 40
0.005
  9
$PSOLHEIGHT
 40
0.08
  9
$LOFTANG1
 40
1.570796326795
  9
$LOFTANG2
 40
1.570796326795
  9
$LOFTMAG1
 40
0.0
  9
$LOFTMAG2
 40
0.0
  9
$LOFTPARAM
 70
7
  9
$LOFTNORMALS
280
1
  9
$LATITUDE
 40
37.795
  9
$LONGITUDE
 40
-122.394
  9
$NORTHDIRECTION
 40
0.0
  9
$TIMEZONE
 70
-8000
  9
$LIGHTGLYPHDISPLAY
280
1
  9
$TILEMODELIGHTSYNCH
280
1
  9
$CMATERIAL
347
20
  9
$SOLIDHIST
280
0
  9
$SHOWHIST
280
1
  9
$DWFFRAME
280
2
  9
$DGNFRAME
280
2
  9
$REALWORLDSCALE
290
1
  9
$INTERFERECOLOR
 62
256
  9
$CSHADOW
280
0
  9
$SHADOWPLANELOCATION
 40
0.0
  0
ENDSEC
  0
SECTION
  2
CLASSES
  0
CLASS
  1
ACDBDICTIONARYWDFLT
  2
AcDbDictionaryWithDefault
  3
ObjectDBX Classes
 90
0
 91
0
280
0
281
0
  0
CLASS
  1
SUN
  2
AcDbSun
  3
SCENEOE
 90
1153
 91
0
280
0
281
0
  0
CLASS
  1
VISUALSTYLE
  2
AcDbVisualStyle
  3
ObjectDBX Classes
 90
4095
 91
0
280
0
281
0
  0
CLASS
  1
MATERIAL
  2
AcDbMaterial
  3
ObjectDBX Classes
 90
1153
 91
0
280
0
281
0
  0
CLASS
  1
SCALE
  2
AcDbScale
  3
ObjectDBX Classes
 90
1153
 91
0
280
0
281
0
  0
CLASS
  1
TABLESTYLE
  2
AcDbTableStyle
  3
ObjectDBX Classes
 90
4095
 91
0
280
0
281
0
  0
CLASS
  1
MLEADERSTYLE
  2
AcDbMLeaderStyle
  3
ACDB_MLEADERSTYLE_CLASS
 90
4095
 91
0
280
0
281
0
  0
CLASS
  1
DICTIONARYVAR
  2
AcDbDictionaryVar
  3
ObjectDBX Classes
 90
0
 91
0
280
0
281
0
  0
CLASS
  1
CELLSTYLEMAP
  2
AcDbCellStyleMap
  3
ObjectDBX Classes
 90
1152
 91
0
280
0
281
0
  0
CLASS
  1
MENTALRAYRENDERSETTINGS
  2
AcDbMentalRayRenderSettings
  3
SCENEOE
 90
1024
 91
0
280
0
281
0
  0
CLASS
  1
ACDBDETAILVIEWSTYLE
  2
AcDbDetailViewStyle
  3
ObjectDBX Classes
 90
1025
 91
0
280
0
281
0
  0
CLASS
  1
ACDBSECTIONVIEWSTYLE
  2
AcDbSectionViewStyle
  3
ObjectDBX Classes
 90
1025
 91
0
280
0
281
0
  0
CLASS
  1
RASTERVARIABLES
  2
AcDbRasterVariables
  3
ISM
 90
0
 91
0
280
0
281
0
  0
CLASS
  1
LAYOUT
  2
AcDbLayout
  3
ObjectDBX Classes
 90
0
 91
0
280
0
281
0
  0
CLASS
  1
ACDBPLACEHOLDER
  2
AcDbPlaceHolder
  3
ObjectDBX Classes
 90
0
 91
0
280
0
281
0
  0
ENDSEC
  0
SECTION
  2
TABLES
  0
TABLE
  2
VPORT
  5
8
330
0
100
AcDbSymbolTable
 70
1
  0
VPORT
  5
23
330
8
100
AcDbSymbolTableRecord
100
AcDbViewportTableRecord
  2
*Active
 70
0
 10
0.0
 20
0.0
 11
1.0
 21
1.0
 12
0.0
 22
0.0
 13
0.0
 23
0.0
 14
0.5
 24
0.5
 15
0.5
 25
0.5
 16
0.0
 26
0.0
 36
1.0
 17
0.0
 27
0.0
 37
0.0
 40
1000.0
 41
1.34
 42
50.0
 43
0.0
 44
0.0
 50
0.0
 51
0.0
 71
0
 72
1000
 73
1
 74
3
 75
0
 76
0
 77
0
 78
0
281
0
 65
0
146
0.0
  0
ENDTAB
  0
TABLE
  2
LTYPE
  5
2
330
0
100
AcDbSymbolTable
 70
3
  0
LTYPE
  5
24
330
2
100
AcDbSymbolTableRecord
100
AcDbLinetypeTableRecord
  2
ByBlock
 70
0
  3

 72
65
 73
0
 40
0.0
  0
LTYPE
  5
25
330
2
100
AcDbSymbolTableRecord
100
AcDbLinetypeTableRecord
  2
ByLayer
 70
0
  3

 72
65
 73
0
 40
0.0
  0
LTYPE
  5
26
330
2
100
AcDbSymbolTableRecord
100
AcDbLinetypeTableRecord
  2
Continuous
 70
0
  3

 72
65
 73
0
 40
0.0
  0
ENDTAB
  0
TABLE
  2
LAYER
  5
1
330
0
100
AcDbSymbolTable
 70
3
  0
LAYER
  5
27
330
1
100
AcDbSymbolTableRecord
100
AcDbLayerTableRecord
  2
0
 70
0
 62
7
  6
Continuous
370
-3
390
13
347
21
  0
LAYER
  5
28
330
1
100
AcDbSymbolTableRecord
100
AcDbLayerTableRecord
  2
Defpoints
 70
0
 62
7
  6
Continuous
290
0
370
-3
390
13
347
21
  0
LAYER
  5
2F
330
1
100
AcDbSymbolTableRecord
100
AcDbLayerTableRecord
  2
CUT
 70
0
 62
7
  6
Continuous
370
-3
390
13
347
21
  0
ENDTAB
  0
TABLE
  2
STYLE
  5
5
330
0
100
AcDbSymbolTable
 70
1
  0
STYLE
  5
29
330
5
100
AcDbSymbolTableRecord
100
AcDbTextStyleTableRecord
  2
Standard
 70
0
 40
0.0
 41
1.0
 50
0.0
 71
0
 42
2.5
  3
txt
  4

  0
ENDTAB
  0
TABLE
  2
VIEW
  5
7
330
0
100
AcDbSymbolTable
 70
0
  0
ENDTAB
  0
TABLE
  2
UCS
  5
6
330
0
100
AcDbSymbolTable
 70
0
  0
ENDTAB
  0
TABLE
  2
APPID
  5
3
330
0
100
AcDbSymbolTable
 70
3
  0
APPID
  5
2A
330
3
100
AcDbSymbolTableRecord
100
AcDbRegAppTableRecord
  2
ACAD
 70
0
  0
APPID
  5
54
330
3
100
AcDbSymbolTableRecord
100
AcDbRegAppTableRecord
  2
HATCHBACKGROUNDCOLOR
 70
0
  0
APPID
  5
55
330
3
100
AcDbSymbolTableRecord
100
AcDbRegAppTableRecord
  2
EZDXF
 70
0
  0
ENDTAB
  0
TABLE
  2
DIMSTYLE
  5
4
330
0
100
AcDbSymbolTable
 70
1
100
AcDbDimStyleTable
  0
DIMSTYLE
105
2B
330
4
100
AcDbSymbolTableRecord
100
AcDbDimStyleTableRecord
  2
Standard
 70
0
 40
1.0
 41
2.5
 42
0.625
 43
3.75
 44
1.25
 45
0.0
 46
0.0
 47
0.0
 48
0.0
 49
2.5
140
2.5
141
2.5
142
0.0
143
0.03937007874
144
1.0
145
0.0
146
1.0
147
0.625
148
0.0
 69
0
 70
0
 71
0
 72
0
 73
0
 74
0
 75
0
 76
0
 77
1
 78
8
 79
3
170
0
171
3
172
1
173
0
174
0
175
0
176
0
177
0
178
0
179
2
271
2
272
2
273
2
274
3
275
0
276
0
277
2
278
44
279
0
280
0
281
0
282
0
283
0
284
8
285
0
286
0
288
0
289
3
290
0
371
-2
372
-2
  0
ENDTAB
  0
TABLE
  2
BLOCK_RECORD
  5
9
330
0
100
AcDbSymbolTable
 70
2
  0
BLOCK_RECORD
  5
17
330
9
100
AcDbSymbolTableRecord
100
AcDbBlockTableRecord
  2
*Model_Space
340
1A
 70
0
280
1
281
0
  0
BLOCK_RECORD
  5
1B
330
9
100
AcDbSymbolTableRecord
100
AcDbBlockTableRecord
  2
*Paper_Space
340
1E
 70
0
280
1
281
0
  0
ENDTAB
  0
ENDSEC
  0
SECTION
  2
BLOCKS
  0
BLOCK
  5
18
330
17
100
AcDbEntity
  8
0
100
AcDbBlockBegin
  2
*Model_Space
 70
0
 10
0.0
 20
0.0
 30
0.0
  3
*Model_Space
  1

  0
ENDBLK
  5
19
330
17
100
AcDbEntity
  8
0
100
AcDbBlockEnd
  0
BLOCK
  5
1C
330
1B
100
AcDbEntity
  8
0
100
AcDbBlockBegin
  2
*Paper_Space
 70
0
 10
0.0
 20
0.0
 30
0.0
  3
*Paper_Space
  1

  0
ENDBLK
  5
1D
330
1B
100
AcDbEntity
  8
0
100
AcDbBlockEnd
  0
ENDSEC
  0
SECTION
  2
ENTITIES
  0
LWPOLYLINE
  5
30
330
17
100
AcDbEntity
  8
CUT
100
AcDbPolyline
 90
195
 70
1
 10
47.94646
 20
104.9505
 10
46.512519999999995
 20
106.99838
 10
25.41683
 20
92.22702
 10
20.0
 20
104.55673
 10
20.0
 20
111.59034
 10
58.00002
 20
137.59034
 10
63.00002
 20
137.59034
 10
101.0
 20
111.59034
 10
101.0
 20
104.55673
 10
95.5832
 20
92.22702
 10
74.48752
 20
106.99838
 10
73.05358
 20
104.9505
 10
94.55783
 20
89.89306
 10
93.01972
 20
86.39203
 10
92.86289
 20
86.14287
 10
92.73124
 20
85.87954
 10
92.62604
 20
85.60457
 10
92.54829
 20
85.32062
 10
92.49875
 20
85.03041
 10
92.47789
 20
84.73675
 10
92.48592
 20
84.44245
 10
92.52275
 20
84.15036
 10
92.58804
 20
83.86328
 10
92.68115
 20
83.58399
 10
92.80119
 20
83.31515999999999
 10
92.947
 20
83.0594
 10
93.11718
 20
82.81916
 10
93.31008
 20
82.59676
 10
93.52386
 20
82.39434
 10
93.75645
 20
82.21384
 10
98.43249
 20
78.93964
 10
98.60161
 20
78.80714
 10
98.75554
 20
78.65726000000001
 10
98.89251
 20
78.49174
 10
99.01093
 20
78.31248
 10
99.10944
 20
78.12155
 10
99.1869
 20
77.92115
 10
99.24241
 20
77.7136
 10
99.27535
 20
77.5013
 10
99.28532
 20
77.28667999999999
 10
99.27221
 20
77.07224
 10
99.23618
 20
76.86044
 10
99.17763
 20
76.65371999999999
 10
99.09725
 20
76.45447999999999
 10
98.99596
 20
76.26500999999999
 10
98.87493
 20
76.0875
 10
98.73556
 20
75.92399
 10
97.35349
 20
74.49467
 10
95.94568
 20
73.0907
 10
94.22579
 20
65.18245999999999
 10
93.37863
 20
61.21754
 10
92.5362
 20
57.22297
 10
91.38736
 20
51.68459
 10
90.26918
 20
46.185379999999995
 10
89.17232
 20
40.68106
 10
88.08747
 20
35.127359999999996
 10
87.98679
 20
34.64278
 10
87.9094
 20
34.32917
 10
87.81578
 20
33.99431
 10
87.70385
 20
33.63903
 10
87.57152
 20
33.264160000000004
 10
87.41672
 20
32.87055
 10
87.23737
 20
32.45901
 10
87.03139
 20
32.03039
 10
86.7967
 20
31.58553
 10
86.51562
 20
31.09976
 10
86.22335
 20
30.63781
 10
85.92266
 20
30.19969
 10
85.61632
 20
29.78538
 10
85.12828
 20
29.18151
 10
84.6447
 20
28.636110000000002
 10
84.17625
 20
28.14924
 10
83.73366
 20
27.72097
 10
83.17911000000001
 20
27.221040000000002
 10
82.58153
 20
26.7214
 10
81.93969
 20
26.223959999999998
 10
81.25236000000001
 20
25.730620000000002
 10
80.51831
 20
25.243290000000002
 10
79.73631
 20
24.763849999999998
 10
78.90513
 20
24.29421
 10
78.02354
 20
23.83627
 10
77.3925
 20
23.53117
 10
76.73698999999999
 20
23.23305
 10
76.05664999999999
 20
22.94249
 10
75.3511
 20
22.66004
 10
74.4265
 20
22.31701
 10
73.49517
 20
22.00076
 10
72.55843999999999
 20
21.71061
 10
71.61765
 20
21.44586
 10
70.67414
 20
21.20583
 10
69.72926
 20
20.98983
 10
68.78435
 20
20.79717
 10
67.84075
 20
20.62716
 10
66.89979
 20
20.47912
 10
65.96283
 20
20.35235
 10
65.0312
 20
20.24617
 10
64.10625
 20
20.15989
 10
63.18932
 20
20.09283
 10
62.28174
 20
20.04428
 10
61.38486
 20
20.01357
 10
60.50002
 20
20.0
 10
59.76237
 20
20.01015
 10
59.01816
 20
20.0321
 10
58.26806
 20
20.06614
 10
57.51278
 20
20.1126
 10
56.75301
 20
20.1718
 10
55.98944
 20
20.24404
 10
55.22275
 20
20.32965
 10
54.45365
 20
20.42894
 10
53.68283
 20
20.54222
 10
52.91097
 20
20.6698
 10
52.13878
 20
20.81202
 10
51.366929999999996
 20
20.96917
 10
50.59613
 20
21.14157
 10
49.82707
 20
21.32955
 10
49.06043
 20
21.5334
 10
48.29692
 20
21.75346
 10
47.62083
 20
21.96309
 10
46.94581
 20
22.18679
 10
46.272890000000004
 20
22.42478
 10
45.603120000000004
 20
22.67727
 10
44.937560000000005
 20
22.94445
 10
44.27724
 20
23.22654
 10
43.6232
 20
23.52375
 10
42.9765
 20
23.83627
 10
42.485969999999995
 20
24.08626
 10
42.00087
 20
24.34551
 10
41.52163
 20
24.61409
 10
41.04873
 20
24.89207
 10
40.58262
 20
25.1795
 10
40.12375
 20
25.47645
 10
39.67259
 20
25.782989999999998
 10
39.22959
 20
26.09917
 10
38.78711
 20
26.43102
 10
38.32246
 20
26.79846
 10
37.84125
 20
27.20211
 10
37.349109999999996
 20
27.64261
 10
36.851659999999995
 20
28.12057
 10
36.35453
 20
28.6366
 10
35.86334
 20
29.19133
 10
35.38372
 20
29.78538
 10
35.05475
 20
30.23156
 10
34.736959999999996
 20
30.69846
 10
34.46662
 20
31.12886
 10
34.20716
 20
31.577289999999998
 10
33.96098
 20
32.04369
 10
33.73048
 20
32.52799
 10
33.51805
 20
33.03012
 10
33.32611
 20
33.55001
 10
33.15704
 20
34.08759
 10
33.01325
 20
34.64278
 10
32.91257
 20
35.127359999999996
 10
31.82772
 20
40.68106
 10
30.73087
 20
46.185379999999995
 10
29.612679999999997
 20
51.68459
 10
28.463839999999998
 20
57.22297
 10
27.62142
 20
61.21754
 10
26.774250000000002
 20
65.18245999999999
 10
25.0544
 20
73.09074
 10
23.64655
 20
74.49467
 10
22.26452
 20
75.92403
 10
22.12511
 20
76.0875
 10
22.00409
 20
76.26500999999999
 10
21.9028
 20
76.45447999999999
 10
21.82241
 20
76.65371999999999
 10
21.76387
 20
76.86044
 10
21.72783
 20
77.07224
 10
21.71472
 20
77.28667999999999
 10
21.72469
 20
77.5013
 10
21.75763
 20
77.7136
 10
21.81315
 20
77.92115
 10
21.89061
 20
78.12155
 10
21.98911
 20
78.31248
 10
22.10754
 20
78.49174
 10
22.2445
 20
78.65726000000001
 10
22.39843
 20
78.80714
 10
22.56755
 20
78.93964
 10
27.2436
 20
82.21384
 10
27.47618
 20
82.39434
 10
27.68996
 20
82.59676
 10
27.88286
 20
82.81916
 10
28.05304
 20
83.0594
 10
28.19885
 20
83.31515999999999
 10
28.31889
 20
83.58399
 10
28.412
 20
83.86328
 10
28.47729
 20
84.15036
 10
28.51413
 20
84.44245
 10
28.52215
 20
84.73675
 10
28.5013
 20
85.03041
 10
28.45176
 20
85.32062
 10
28.37401
 20
85.60457
 10
28.2688
 20
85.87954
 10
28.13715
 20
86.14287
 10
27.98032
 20
86.39203
 10
26.44221
 20
89.89306
  0
LWPOLYLINE
  5
31
330
17
100
AcDbEntity
  8
CUT
100
AcDbPolyline
 90
145
 70
1
 10
40.80748
 20
36.445570000000004
 10
40.89668
 20
36.13668
 10
41.028999999999996
 20
35.80482
 10
41.20788
 20
35.44931
 10
41.43646
 20
35.07073
 10
41.73043
 20
34.65564
 10
41.97287
 20
34.35695
 10
42.23247
 20
34.065979999999996
 10
42.50571
 20
33.78403
 10
42.789069999999995
 20
33.51243
 10
43.07904
 20
33.25247
 10
43.3721
 20
33.00547
 10
43.95344
 20
32.55558
 10
44.54468
 20
32.14412
 10
45.17512
 20
31.74605
 10
45.84151
 20
31.36347
 10
46.54455
 20
30.99652
 10
47.01774
 20
30.76797
 10
47.502849999999995
 20
30.54776
 10
47.99862
 20
30.33616
 10
48.503789999999995
 20
30.13344
 10
49.0171
 20
29.93987
 10
49.537310000000005
 20
29.75572
 10
50.063140000000004
 20
29.58127
 10
50.593360000000004
 20
29.41678
 10
51.1927
 20
29.2442
 10
51.798559999999995
 20
29.08347
 10
52.4101
 20
28.934440000000002
 10
53.02651
 20
28.79697
 10
53.64695
 20
28.67094
 10
54.27058
 20
28.55621
 10
54.89658
 20
28.452640000000002
 10
55.52412
 20
28.36009
 10
56.15236
 20
28.27842
 10
56.78048
 20
28.20751
 10
57.40764
 20
28.14721
 10
58.03301
 20
28.09739
 10
58.65577
 20
28.05791
 10
59.27507
 20
28.02864
 10
60.50002
 20
28.00017
 10
61.23213
 20
28.012610000000002
 10
61.97351
 20
28.039720000000003
 10
62.72262
 20
28.081780000000002
 10
63.47792
 20
28.13908
 10
64.23786
 20
28.21191
 10
65.00089
 20
28.30055
 10
65.76548
 20
28.40529
 10
66.53007
 20
28.52642
 10
67.29312
 20
28.66422
 10
68.05308
 20
28.819000000000003
 10
68.80842
 20
28.99102
 10
69.55758
 20
29.18058
 10
70.29902
 20
29.38797
 10
71.0312
 20
29.61348
 10
71.75256999999999
 20
29.85738
 10
72.46158
 20
30.119979999999998
 10
72.99884
 20
30.33504
 10
73.50985
 20
30.553269999999998
 10
73.99521
 20
30.77398
 10
74.45943
 20
30.99848
 10
75.09278
 20
31.32727
 10
75.6771
 20
31.65709
 10
76.21441
 20
31.98621
 10
76.70671999999999
 20
32.31291
 10
77.15602
 20
32.63545
 10
77.56433
 20
32.95211
 10
77.93364
 20
33.261160000000004
 10
78.26596
 20
33.56086
 10
78.51671
 20
33.80368
 10
78.77185
 20
34.06892
 10
79.02497
 20
34.35383
 10
79.26962
 20
34.65565
 10
79.54768
 20
35.046530000000004
 10
79.79186
 20
35.44976
 10
79.96423999999999
 20
35.78647
 10
80.07713
 20
36.05388
 10
80.14748
 20
36.26787
 10
80.19228
 20
36.44434
 10
80.22423
 20
36.60101
 10
81.3236
 20
42.22946
 10
82.42649
 20
47.76405
 10
83.55094
 20
53.29407
 10
84.70613
 20
58.86308
 10
85.55304
 20
62.87894
 10
86.40451
 20
66.86401000000001
 10
88.13217
 20
74.80819
 10
88.44152
 20
76.21556000000001
 10
87.98856
 20
76.61397
 10
87.55812
 20
77.03661
 10
87.1515
 20
77.48221000000001
 10
86.76991
 20
77.94943
 10
86.41452
 20
78.43686
 10
86.08638
 20
78.94305
 10
85.78648
 20
79.46646
 10
85.51572
 20
80.00553
 10
67.40711
 20
92.01109
 10
67.02136
 20
92.2568
 10
66.62689
 20
92.48822
 10
66.22421
 20
92.70506
 10
65.81386
 20
92.90703
 10
65.39641
 20
93.09385
 10
64.9724
 20
93.26527
 10
64.5424
 20
93.42107
 10
64.10699
 20
93.56103
 10
63.66675
 20
93.68497
 10
63.22227
 20
93.79272
 10
62.77415
 20
93.88414
 10
62.32299
 20
93.95911
 10
61.86938
 20
94.01752
 10
61.41394
 20
94.0593
 10
60.95728
 20
94.08438
 10
60.5
 20
94.09275
 10
60.04273
 20
94.08438
 10
59.58606
 20
94.0593
 10
59.13062
 20
94.01752
 10
58.67702
 20
93.95911
 10
58.22585
 20
93.88414
 10
57.77773
 20
93.79272
 10
57.33325
 20
93.68497
 10
56.89301
 20
93.56103
 10
56.4576
 20
93.42106
 10
56.0276
 20
93.26527
 10
55.60359
 20
93.09385
 10
55.18614
 20
92.90703
 10
54.77579
 20
92.70506
 10
54.37312
 20
92.48822
 10
53.97864
 20
92.25679
 10
53.59289
 20
92.01109
 10
35.48433
 20
80.00554
 10
35.213570000000004
 20
79.46647
 10
34.913669999999996
 20
78.94306
 10
34.58553
 20
78.43687
 10
34.23013
 20
77.94943
 10
33.84855
 20
77.48221000000001
 10
33.44193
 20
77.03661
 10
33.01149
 20
76.61397
 10
32.55853
 20
76.21556000000001
 10
32.867869999999996
 20
74.80819
 10
34.59553
 20
66.86401000000001
 10
35.447
 20
62.87894
 10
36.29391
 20
58.86308
 10
37.4491
 20
53.29407
 10
38.57355
 20
47.76405
 10
39.67644
 20
42.22946
 10
40.77581
 20
36.60102
  0
LWPOLYLINE
  5
32
330
17
100
AcDbEntity
  8
CUT
100
AcDbPolyline
 90
4
 70
1
 10
20.0
 20
142.59034
 10
20.0
 20
148.59034
 10
120.0
 20
148.59034
 10
120.0
 20
142.59034
  0
LWPOLYLINE
  5
33
330
17
100
AcDbEntity
  8
CUT
100
AcDbPolyline
 90
4
 70
1
 10
206.0
 20
26.0
 10
206.0
 20
20.0
 10
106.0
 20
20.0
 10
106.0
 20
26.0
  0
LWPOLYLINE
  5
34
330
17
100
AcDbEntity
  8
CUT
100
AcDbPolyline
 90
4
 70
1
 10
206.0
 20
37.0
 10
206.0
 20
31.0
 10
106.0
 20
31.0
 10
106.0
 20
37.0
  0
LWPOLYLINE
  5
35
330
17
100
AcDbEntity
  8
CUT
100
AcDbPolyline
 90
305
 70
1
 10
201.64445
 20
76.6037
 10
201.627
 20
75.94337
 10
201.57468
 20
75.28488
 10
201.48766
 20
74.63007
 10
201.36615999999998
 20
73.98078
 10
201.21053999999998
 20
73.33881
 10
201.02122
 20
72.70596
 10
200.79873
 20
72.08399
 10
200.5437
 20
71.47465
 10
200.17752000000002
 20
70.67949
 10
199.79748
 20
69.89086
 10
199.40368999999998
 20
69.10901
 10
198.99629
 20
68.33416
 10
198.57538
 20
67.56657
 10
198.1411
 20
66.80646
 10
197.69359
 20
66.05405999999999
 10
197.23298
 20
65.30962
 10
196.75941
 20
64.57335
 10
196.27302
 20
63.845479999999995
 10
195.77397000000002
 20
63.12623
 10
195.26241
 20
62.41583
 10
194.7385
 20
61.71449
 10
194.20238999999998
 20
61.02243
 10
193.65425
 20
60.33985
 10
193.09425
 20
59.666979999999995
 10
192.52255
 20
59.00401
 10
191.93935
 20
58.35114
 10
191.34480000000002
 20
57.70859
 10
190.7391
 20
57.07653
 10
190.12243
 20
56.45518
 10
189.49498
 20
55.84471
 10
188.85694
 20
55.24532
 10
188.20851
 20
54.65718
 10
187.54989
 20
54.08049
 10
186.88127
 20
53.51541
 10
186.20287000000002
 20
52.962109999999996
 10
185.51488
 20
52.42078
 10
184.81753
 20
51.89157
 10
184.11102
 20
51.37465
 10
183.39558
 20
50.87017
 10
182.67140999999998
 20
50.37829
 10
181.93874
 20
49.89915
 10
181.19781
 20
49.43292
 10
180.44882
 20
48.97972
 10
179.69202
 20
48.53971
 10
178.92763
 20
48.113
 10
178.1559
 20
47.69974
 10
177.37704
 20
47.30005
 10
176.59132
 20
46.91405
 10
175.79895
 20
46.54186
 10
175.0002
 20
46.18359
 10
174.19529
 20
45.83937
 10
173.38449
 20
45.50928
 10
172.56803
 20
45.19343
 10
171.74617
 20
44.89192
 10
170.91916
 20
44.60484
 10
170.08724999999998
 20
44.33227
 10
169.2507
 20
44.07431
 10
168.40976
 20
43.83103
 10
167.56468999999998
 20
43.60251
 10
166.71575
 20
43.38881
 10
165.8632
 20
43.19
 10
165.0073
 20
43.00614
 10
164.14832
 20
42.83729
 10
163.28651
 20
42.6835
 10
162.42214
 20
42.54482
 10
161.55548
 20
42.42128
 10
160.68679
 20
42.31293
 10
159.81634
 20
42.21981
 10
158.94438
 20
42.14193
 10
158.0712
 20
42.07932
 10
157.19706
 20
42.03201
 10
156.75970999999998
 20
42.01409
 10
156.32222000000002
 20
42.0
 10
156.32222000000002
 20
49.49294
 10
151.32222000000002
 20
49.49294
 10
151.32222000000002
 20
42.0
 10
150.44738999999998
 20
42.03201
 10
149.57324
 20
42.07932
 10
148.70006
 20
42.14193
 10
147.82811
 20
42.21981
 10
146.95766
 20
42.31293
 10
146.08897000000002
 20
42.42128
 10
145.2223
 20
42.54482
 10
144.35793999999999
 20
42.6835
 10
143.49613
 20
42.83729
 10
142.63715
 20
43.00614
 10
141.78125
 20
43.19
 10
140.9287
 20
43.38881
 10
140.07976
 20
43.60251
 10
139.23469
 20
43.83103
 10
138.39375
 20
44.07431
 10
137.5572
 20
44.33227
 10
136.72529
 20
44.60484
 10
135.89828
 20
44.89192
 10
135.07641999999998
 20
45.19343
 10
134.25996
 20
45.50928
 10
133.44916
 20
45.83937
 10
132.64425
 20
46.18359
 10
131.84550000000002
 20
46.54186
 10
131.05313
 20
46.91405
 10
130.2674
 20
47.30005
 10
129.48855
 20
47.69974
 10
128.71681
 20
48.113
 10
127.95242999999999
 20
48.53971
 10
127.19563
 20
48.97972
 10
126.44664
 20
49.43292
 10
125.70570000000001
 20
49.89915
 10
124.97304
 20
50.37829
 10
124.24887
 20
50.87017
 10
123.53343
 20
51.37465
 10
122.82692
 20
51.89157
 10
122.12957
 20
52.42078
 10
121.44158
 20
52.962109999999996
 10
120.76318
 20
53.51541
 10
120.09456
 20
54.08049
 10
119.43594
 20
54.65718
 10
118.78751
 20
55.24532
 10
118.14947000000001
 20
55.84471
 10
117.52202
 20
56.45518
 10
116.90535
 20
57.07653
 10
116.29965
 20
57.70859
 10
115.7051
 20
58.35114
 10
115.12189000000001
 20
59.00401
 10
114.5502
 20
59.666979999999995
 10
113.9902
 20
60.33985
 10
113.44206
 20
61.02243
 10
112.90595
 20
61.71449
 10
112.38203
 20
62.41583
 10
111.87047
 20
63.12623
 10
111.37143
 20
63.845479999999995
 10
110.88504
 20
64.57335
 10
110.41147
 20
65.30962
 10
109.95086
 20
66.05405999999999
 10
109.50335
 20
66.80646
 10
109.06907
 20
67.56657
 10
108.64816
 20
68.33416
 10
108.24076
 20
69.10901
 10
107.84697
 20
69.89086
 10
107.46693
 20
70.67949
 10
107.10075
 20
71.47465
 10
106.84572
 20
72.08399
 10
106.62323
 20
72.70596
 10
106.43391
 20
73.33881
 10
106.27829
 20
73.98078
 10
106.15679
 20
74.63007
 10
106.06977
 20
75.28488
 10
106.01745
 20
75.94337
 10
106.0
 20
76.6037
 10
106.0
 20
77.70688
 10
115.99999
 20
77.70688
 10
116.0
 20
83.70688
 10
106.0
 20
83.70688
 10
106.0
 20
84.2722
 10
106.26454
 20
85.27575
 10
106.55913
 20
86.29373
 10
106.88349
 20
87.32476
 10
107.23733
 20
88.36744
 10
107.62036
 20
89.4204
 10
108.03229
 20
90.48225
 10
108.47284
 20
91.55160000000001
 10
108.94172
 20
92.62707
 10
109.30434
 20
93.42124
 10
109.68155
 20
94.21751
 10
110.07311
 20
95.01543000000001
 10
110.47876
 20
95.81457
 10
110.89823
 20
96.61448
 10
111.33127
 20
97.41471
 10
111.77763
 20
98.21482
 10
112.23705
 20
99.01438
 10
112.70926
 20
99.81293
 10
113.19402
 20
100.61004
 10
113.69106
 20
101.40526
 10
114.20013
 20
102.19815
 10
114.72097
 20
102.98826
 10
115.25333
 20
103.77516
 10
115.79694
 20
104.5584
 10
116.35155
 20
105.33753
 10
116.91691
 20
106.11212
 10
117.49275
 20
106.88172
 10
118.07881
 20
107.64589
 10
118.67484999999999
 20
108.40419
 10
119.28061
 20
109.15617
 10
119.89582
 20
109.90139
 10
120.52023
 20
110.63941
 10
121.15359
 20
111.36978
 10
121.79562
 20
112.09206
 10
122.44609
 20
112.80582
 10
123.10473
 20
113.51059
 10
123.77129
 20
114.20596
 10
124.4455
 20
114.89146
 10
125.12711
 20
115.56666
 10
125.81586
 20
116.23111
 10
126.5115
 20
116.88438
 10
127.55978999999999
 20
117.8357
 10
128.62158
 20
118.75984
 10
129.69584
 20
119.65563
 10
130.78154
 20
120.52189
 10
131.87763999999999
 20
121.35743
 10
132.98311999999999
 20
122.16108
 10
134.09692
 20
122.93165
 10
135.21802
 20
123.66797
 10
136.34539
 20
124.36885
 10
137.47799
 20
125.03311
 10
138.61479
 20
125.65958
 10
139.75474
 20
126.24707
 10
140.89682
 20
126.79441
 10
142.04
 20
127.30041
 10
143.18323
 20
127.7639
 10
143.75455
 20
127.97933
 10
144.32549
 20
128.18369
 10
144.92812
 20
128.38752
 10
145.52994
 20
128.57889
 10
146.13085999999998
 20
128.75772
 10
146.7308
 20
128.9239
 10
147.32967
 20
129.07733000000002
 10
147.92738
 20
129.21793
 10
148.52386
 20
129.3456
 10
149.11901
 20
129.46023
 10
149.71275
 20
129.56174
 10
150.30499
 20
129.65001999999998
 10
150.89565
 20
129.72499
 10
151.48464
 20
129.78654
 10
152.07188
 20
129.83458000000002
 10
152.65728000000001
 20
129.86902
 10
153.24076
 20
129.88975
 10
153.82222000000002
 20
129.89668
 10
154.40368999999998
 20
129.88975
 10
154.98717
 20
129.86902
 10
155.57256999999998
 20
129.83458000000002
 10
156.15981
 20
129.78654
 10
156.74880000000002
 20
129.72499
 10
157.33946
 20
129.65001999999998
 10
157.9317
 20
129.56174
 10
158.52544
 20
129.46023
 10
159.12059
 20
129.3456
 10
159.71707
 20
129.21793
 10
160.31477999999998
 20
129.07733000000002
 10
160.91365
 20
128.9239
 10
161.51359
 20
128.75772
 10
162.11451
 20
128.57889
 10
162.71633
 20
128.38752
 10
163.31896
 20
128.18369
 10
163.8899
 20
127.97933
 10
164.46122
 20
127.7639
 10
165.60444999999999
 20
127.30041
 10
166.74761999999998
 20
126.79441
 10
167.88971
 20
126.24707
 10
169.02966
 20
125.65958
 10
170.16646
 20
125.03311
 10
171.29906
 20
124.36885
 10
172.42642
 20
123.66797
 10
173.54753
 20
122.93165
 10
174.66133000000002
 20
122.16108
 10
175.7668
 20
121.35743
 10
176.86291
 20
120.52189
 10
177.94861
 20
119.65563
 10
179.02287
 20
118.75984
 10
180.08465999999999
 20
117.8357
 10
181.13294000000002
 20
116.88438
 10
181.82858
 20
116.23111
 10
182.51734
 20
115.56666
 10
183.19895
 20
114.89146
 10
183.87315999999998
 20
114.20596
 10
184.53972
 20
113.51059
 10
185.19835999999998
 20
112.80582
 10
185.84882
 20
112.09206
 10
186.49086
 20
111.36978
 10
187.12421999999998
 20
110.63941
 10
187.74863
 20
109.90139
 10
188.36383999999998
 20
109.15617
 10
188.96958999999998
 20
108.40419
 10
189.56563
 20
107.64589
 10
190.1517
 20
106.88172
 10
190.72754
 20
106.11212
 10
191.2929
 20
105.33753
 10
191.84751
 20
104.5584
 10
192.39112
 20
103.77516
 10
192.92347999999998
 20
102.98826
 10
193.44432
 20
102.19815
 10
193.95339
 20
101.40526
 10
194.45042999999998
 20
100.61004
 10
194.93519
 20
99.81293
 10
195.4074
 20
99.01438
 10
195.86682000000002
 20
98.21482
 10
196.31317
 20
97.41471
 10
196.74622
 20
96.61448
 10
197.16568999999998
 20
95.81457
 10
197.57134000000002
 20
95.01543000000001
 10
197.96289000000002
 20
94.21751
 10
198.34010999999998
 20
93.42124
 10
198.70273
 20
92.62707
 10
199.17161
 20
91.55160000000001
 10
199.61214999999999
 20
90.48225
 10
200.02409
 20
89.4204
 10
200.40712000000002
 20
88.36744
 10
200.76094999999998
 20
87.32476
 10
201.08531
 20
86.29373
 10
201.37991
 20
85.27575
 10
201.64445
 20
84.2722
 10
201.64445
 20
83.70688
 10
191.64444
 20
83.70688
 10
191.64444
 20
77.70688
 10
201.64444
 20
77.70688
 10
201.64445
 20
78.70688
  0
LWPOLYLINE
  5
36
330
17
100
AcDbEntity
  8
CUT
100
AcDbPolyline
 90
127
 70
1
 10
122.56885
 20
64.18216
 10
123.33785
 20
63.37123
 10
124.12867
 20
62.581540000000004
 10
124.94069999999999
 20
61.81369
 10
125.77335
 20
61.06825
 10
126.626
 20
60.34577
 10
127.49802
 20
59.646789999999996
 10
128.38875000000002
 20
58.97183
 10
129.29755
 20
58.321380000000005
 10
130.22372000000001
 20
57.695930000000004
 10
131.1666
 20
57.09595
 10
132.12547
 20
56.521879999999996
 10
133.09962000000002
 20
55.97415
 10
134.08834
 20
55.45316
 10
135.09088
 20
54.9593
 10
136.1065
 20
54.492940000000004
 10
171.53795
 20
54.492940000000004
 10
172.55356999999998
 20
54.9593
 10
173.55611
 20
55.45316
 10
174.54483
 20
55.97415
 10
175.51898
 20
56.521879999999996
 10
176.47785
 20
57.09595
 10
177.42073
 20
57.695930000000004
 10
178.3469
 20
58.321380000000005
 10
179.2557
 20
58.97183
 10
180.14643
 20
59.646789999999996
 10
181.01845
 20
60.34577
 10
181.8711
 20
61.06825
 10
182.70375
 20
61.81369
 10
183.51578
 20
62.581540000000004
 10
184.3066
 20
63.37123
 10
185.0756
 20
64.18216
 10
185.82222000000002
 20
65.01375
 10
185.82222000000002
 20
97.39582
 10
185.09339
 20
98.48929
 10
184.33911999999998
 20
99.57717
 10
183.56061
 20
100.65723
 10
182.75903
 20
101.72727
 10
181.93558000000002
 20
102.78508
 10
181.09145999999998
 20
103.82845
 10
180.22784000000001
 20
104.85517
 10
179.34593
 20
105.86303000000001
 10
178.29171
 20
107.01718
 10
177.21715
 20
108.14041
 10
176.6063
 20
108.75589
 10
175.99025
 20
109.36014
 10
175.16541
 20
110.14377
 10
175.01673
 20
110.28196
 10
174.42302999999998
 20
110.82434
 10
173.82528000000002
 20
111.35537
 10
173.22397
 20
111.87478
 10
172.61957999999998
 20
112.38226
 10
172.01262
 20
112.87753
 10
171.40357
 20
113.36029
 10
170.79293
 20
113.83026
 10
170.18117999999998
 20
114.28713
 10
169.04349
 20
115.1001
 10
167.90686
 20
115.86502
 10
166.77442
 20
116.58002
 10
166.21076
 20
116.91821
 10
165.64933
 20
117.24322
 10
164.8357
 20
117.69292
 10
164.02886999999998
 20
118.11339
 10
163.23006
 20
118.5039
 10
162.4405
 20
118.86373
 10
161.54679
 20
119.23907
 10
160.68418
 20
119.56869
 10
160.27155
 20
119.71465
 10
159.69653
 20
119.90523
 10
159.13096000000002
 20
120.07789
 10
158.56744
 20
120.23496
 10
158.01342
 20
120.37441
 10
157.45578
 20
120.49936
 10
156.90791000000002
 20
120.60659
 10
156.36539
 20
120.69712
 10
155.83266
 20
120.77035
 10
155.30015
 20
120.82749
 10
154.77766
 20
120.86737
 10
154.29555
 20
120.88939
 10
153.82222000000002
 20
120.89668
 10
153.34890000000001
 20
120.88939
 10
152.86679
 20
120.86737
 10
152.3443
 20
120.82749
 10
151.81179
 20
120.77035
 10
151.27906000000002
 20
120.69712
 10
150.73654
 20
120.60659
 10
150.18867
 20
120.49936
 10
149.63103
 20
120.37441
 10
149.07701
 20
120.23496
 10
148.51349
 20
120.07789
 10
147.94792
 20
119.90523
 10
147.37288999999998
 20
119.71465
 10
146.96027
 20
119.56869
 10
146.09766
 20
119.23907
 10
145.20395
 20
118.86373
 10
144.41439
 20
118.5039
 10
143.61558
 20
118.11339
 10
142.80875
 20
117.69292
 10
141.99512
 20
117.24322
 10
141.43369
 20
116.91821
 10
140.87002999999999
 20
116.58002
 10
139.73759
 20
115.86502
 10
138.60095
 20
115.1001
 10
137.46327
 20
114.28713
 10
136.85152
 20
113.83026
 10
136.24088
 20
113.36029
 10
135.63183
 20
112.87753
 10
135.02487
 20
112.38226
 10
134.42048
 20
111.87478
 10
133.81916999999999
 20
111.35537
 10
133.22142
 20
110.82434
 10
132.62772
 20
110.28196
 10
132.47904
 20
110.14377
 10
131.6542
 20
109.36014
 10
131.03815
 20
108.75589
 10
130.4273
 20
108.14041
 10
129.35273
 20
107.01718
 10
128.29851
 20
105.86303000000001
 10
127.4166
 20
104.85517
 10
126.55299
 20
103.82845
 10
125.70887
 20
102.78508
 10
124.88542
 20
101.72727
 10
124.08384
 20
100.65723
 10
123.30532
 20
99.57717
 10
122.55105
 20
98.48929
 10
121.82222
 20
97.39582
 10
121.82222
 20
65.01375
  0
LWPOLYLINE
  5
37
330
17
100
AcDbEntity
  8
CUT
100
AcDbPolyline
 90
303
 70
1
 10
63.57324
 20
153.65301
 10
62.70006
 20
153.71562
 10
61.82811
 20
153.7935
 10
60.95766
 20
153.88662
 10
60.08897
 20
153.99497
 10
59.2223
 20
154.11851
 10
58.35794
 20
154.25719
 10
57.49613
 20
154.41098
 10
56.63715
 20
154.57983
 10
55.78125
 20
154.76369
 10
54.9287
 20
154.9625
 10
54.07976
 20
155.1762
 10
53.23469
 20
155.40472
 10
52.39375
 20
155.648
 10
51.5572
 20
155.90596
 10
50.72529
 20
156.17853
 10
49.89828
 20
156.46561
 10
49.07642
 20
156.76712
 10
48.25996
 20
157.08297
 10
47.44916
 20
157.41305
 10
46.64425
 20
157.75728
 10
45.8455
 20
158.11554999999998
 10
45.053129999999996
 20
158.48774
 10
44.267399999999995
 20
158.87374
 10
43.488550000000004
 20
159.27343
 10
42.716809999999995
 20
159.68669
 10
41.95243
 20
160.11339
 10
41.19563
 20
160.55340999999999
 10
40.44664
 20
161.00661
 10
39.7057
 20
161.47284
 10
38.97304
 20
161.95198
 10
38.24887
 20
162.44386
 10
37.533429999999996
 20
162.94834
 10
36.82692
 20
163.46526
 10
36.12957
 20
163.99447
 10
35.44158
 20
164.5358
 10
34.76318
 20
165.08909
 10
34.09456
 20
165.65417
 10
33.43594
 20
166.23087
 10
32.78751
 20
166.819
 10
32.14947
 20
167.4184
 10
31.522019999999998
 20
168.02886999999998
 10
30.90535
 20
168.65022
 10
30.29965
 20
169.28226999999998
 10
29.7051
 20
169.92483
 10
29.12189
 20
170.5777
 10
28.5502
 20
171.24067
 10
27.9902
 20
171.91354
 10
27.442059999999998
 20
172.59611999999998
 10
26.90595
 20
173.28818
 10
26.38203
 20
173.98952
 10
25.87047
 20
174.69992
 10
25.37143
 20
175.41917
 10
24.88504
 20
176.14704
 10
24.41147
 20
176.88331
 10
23.95086
 20
177.62775
 10
23.50335
 20
178.38015
 10
23.06907
 20
179.14026
 10
22.64816
 20
179.90785
 10
22.24076
 20
180.6827
 10
21.84697
 20
181.46455
 10
21.46693
 20
182.25318
 10
21.10075
 20
183.04834
 10
20.84572
 20
183.65768
 10
20.62323
 20
184.27965
 10
20.43391
 20
184.9125
 10
20.27829
 20
185.55447
 10
20.15679
 20
186.20376
 10
20.06977
 20
186.85857
 10
20.01745
 20
187.51706000000001
 10
20.0
 20
188.17739
 10
20.0
 20
190.28057
 10
30.0
 20
190.28057
 10
30.0
 20
195.28057
 10
20.0
 20
195.28057
 10
20.0
 20
195.84589
 10
20.26454
 20
196.84944
 10
20.55913
 20
197.86741999999998
 10
20.88349
 20
198.89845
 10
21.23733
 20
199.94113
 10
21.62036
 20
200.99409
 10
22.03229
 20
202.05593
 10
22.47284
 20
203.12529
 10
22.94172
 20
204.20076
 10
23.30434
 20
204.99493
 10
23.68155
 20
205.7912
 10
24.07311
 20
206.58911999999998
 10
24.47876
 20
207.38826
 10
24.898229999999998
 20
208.18817
 10
25.33127
 20
208.9884
 10
25.777630000000002
 20
209.78851
 10
26.23705
 20
210.58807
 10
26.70926
 20
211.38662
 10
27.194020000000002
 20
212.18373
 10
27.69106
 20
212.97895
 10
28.20013
 20
213.77184
 10
28.72097
 20
214.56195
 10
29.25333
 20
215.34885
 10
29.79694
 20
216.13209
 10
30.35155
 20
216.91122000000001
 10
30.91691
 20
217.68581
 10
31.49275
 20
218.45541
 10
32.078810000000004
 20
219.21958
 10
32.67485
 20
219.97788
 10
33.280609999999996
 20
220.72986
 10
33.89582
 20
221.47508
 10
34.52023
 20
222.2131
 10
35.15359
 20
222.94347
 10
35.79562
 20
223.66575
 10
36.44609
 20
224.3795
 10
37.10473
 20
225.08427999999998
 10
37.77129
 20
225.77965
 10
38.445499999999996
 20
226.46515
 10
39.12711
 20
227.14035
 10
39.81586
 20
227.8048
 10
40.5115
 20
228.45807
 10
41.55979
 20
229.40939
 10
42.62158
 20
230.33353
 10
43.695840000000004
 20
231.22932
 10
44.78154
 20
232.09557999999998
 10
45.87764
 20
232.93112
 10
46.98312
 20
233.73477
 10
48.09692
 20
234.50534
 10
49.218019999999996
 20
235.24165
 10
50.345389999999995
 20
235.94254
 10
51.47799
 20
236.6068
 10
52.61479
 20
237.23327
 10
53.75474
 20
237.82076
 10
54.89682
 20
238.3681
 10
56.04
 20
238.8741
 10
57.18323
 20
239.33758999999998
 10
57.75455
 20
239.55302
 10
58.32549
 20
239.75738
 10
58.92812
 20
239.96121
 10
59.52994
 20
240.15258
 10
60.13086
 20
240.33141
 10
60.7308
 20
240.49759
 10
61.32967
 20
240.65102000000002
 10
61.92738
 20
240.79162
 10
62.52386
 20
240.91929
 10
63.11901
 20
241.03392
 10
63.71275
 20
241.13542999999999
 10
64.30499
 20
241.22370999999998
 10
64.89565
 20
241.29868
 10
65.48464
 20
241.36023
 10
66.07188
 20
241.40827000000002
 10
66.65728
 20
241.44270999999998
 10
67.24076
 20
241.46344
 10
67.82222
 20
241.47037
 10
68.40369
 20
241.46344
 10
68.98716999999999
 20
241.44270999999998
 10
69.57257
 20
241.40827000000002
 10
70.15981
 20
241.36023
 10
70.7488
 20
241.29868
 10
71.33946
 20
241.22370999999998
 10
71.9317
 20
241.13542999999999
 10
72.52544
 20
241.03392
 10
73.12058999999999
 20
240.91929
 10
73.71707
 20
240.79162
 10
74.31478
 20
240.65102000000002
 10
74.91364999999999
 20
240.49759
 10
75.51359
 20
240.33141
 10
76.11451
 20
240.15258
 10
76.71633
 20
239.96121
 10
77.31896
 20
239.75738
 10
77.8899
 20
239.55302
 10
78.46122
 20
239.33758999999998
 10
79.60445
 20
238.8741
 10
80.74762
 20
238.3681
 10
81.88971000000001
 20
237.82076
 10
83.02966
 20
237.23327
 10
84.16646
 20
236.6068
 10
85.29906
 20
235.94254
 10
86.42642
 20
235.24165
 10
87.54753
 20
234.50534
 10
88.66133
 20
233.73477
 10
89.7668
 20
232.93112
 10
90.86291
 20
232.09557999999998
 10
91.94861
 20
231.22932
 10
93.02287
 20
230.33353
 10
94.08466
 20
229.40939
 10
95.13294
 20
228.45807
 10
95.82858
 20
227.8048
 10
96.51734
 20
227.14035
 10
97.19895
 20
226.46515
 10
97.87316
 20
225.77965
 10
98.53972
 20
225.08427999999998
 10
99.19836
 20
224.3795
 10
99.84882
 20
223.66575
 10
100.49086
 20
222.94347
 10
101.12422
 20
222.2131
 10
101.74863
 20
221.47508
 10
102.36384
 20
220.72986
 10
102.96959
 20
219.97788
 10
103.56563
 20
219.21958
 10
104.1517
 20
218.45541
 10
104.72754
 20
217.68581
 10
105.2929
 20
216.91122000000001
 10
105.84751
 20
216.13209
 10
106.39112
 20
215.34885
 10
106.92348
 20
214.56195
 10
107.44432
 20
213.77184
 10
107.95339
 20
212.97895
 10
108.45043
 20
212.18373
 10
108.93519
 20
211.38662
 10
109.4074
 20
210.58807
 10
109.86682
 20
209.78851
 10
110.31317
 20
208.9884
 10
110.74622
 20
208.18817
 10
111.16569
 20
207.38826
 10
111.57134
 20
206.58911999999998
 10
111.96289
 20
205.7912
 10
112.34011
 20
204.99493
 10
112.70273
 20
204.20076
 10
113.17161
 20
203.12529
 10
113.61215
 20
202.05593
 10
114.02409
 20
200.99409
 10
114.40712
 20
199.94113
 10
114.76095
 20
198.89845
 10
115.08531
 20
197.86741999999998
 10
115.37991
 20
196.84944
 10
115.64445
 20
195.84589
 10
115.64445
 20
195.28057
 10
105.64445
 20
195.28057
 10
105.64445
 20
190.28057
 10
115.64445
 20
190.28057
 10
115.64445
 20
188.17739
 10
115.627
 20
187.51706000000001
 10
115.57468
 20
186.85857
 10
115.48766
 20
186.20376
 10
115.36616
 20
185.55447
 10
115.21054
 20
184.9125
 10
115.02122
 20
184.27965
 10
114.79873
 20
183.65768
 10
114.5437
 20
183.04834
 10
114.17752
 20
182.25318
 10
113.79748
 20
181.46455
 10
113.40369
 20
180.6827
 10
112.99629
 20
179.90785
 10
112.57538
 20
179.14026
 10
112.1411
 20
178.38015
 10
111.69359
 20
177.62775
 10
111.23298
 20
176.88331
 10
110.75941
 20
176.14704
 10
110.27302
 20
175.41917
 10
109.77397
 20
174.69992
 10
109.26241
 20
173.98952
 10
108.7385
 20
173.28818
 10
108.20239
 20
172.59611999999998
 10
107.65425
 20
171.91354
 10
107.09425
 20
171.24067
 10
106.52255
 20
170.5777
 10
105.93935
 20
169.92483
 10
105.3448
 20
169.28226999999998
 10
104.7391
 20
168.65022
 10
104.12243
 20
168.02886999999998
 10
103.49498
 20
167.4184
 10
102.85694
 20
166.819
 10
102.20851
 20
166.23087
 10
101.54989
 20
165.65417
 10
100.88127
 20
165.08909
 10
100.20287
 20
164.5358
 10
99.51488
 20
163.99447
 10
98.81753
 20
163.46526
 10
98.11102
 20
162.94834
 10
97.39558
 20
162.44386
 10
96.67141
 20
161.95198
 10
95.93874
 20
161.47284
 10
95.19781
 20
161.00661
 10
94.44882
 20
160.55340999999999
 10
93.69202
 20
160.11339
 10
92.92763
 20
159.68669
 10
92.1559
 20
159.27343
 10
91.37704
 20
158.87374
 10
90.59132
 20
158.48774
 10
89.79895
 20
158.11554999999998
 10
89.0002
 20
157.75728
 10
88.19529
 20
157.41305
 10
87.38449
 20
157.08297
 10
86.56803
 20
156.76712
 10
85.74617
 20
156.46561
 10
84.91916
 20
156.17853
 10
84.08725
 20
155.90596
 10
83.2507
 20
155.648
 10
82.40976
 20
155.40472
 10
81.56469
 20
155.1762
 10
80.71575
 20
154.9625
 10
79.8632
 20
154.76369
 10
79.0073
 20
154.57983
 10
78.14832
 20
154.41098
 10
77.28650999999999
 20
154.25719
 10
76.42214
 20
154.11851
 10
75.55548
 20
153.99497
 10
74.68679
 20
153.88662
 10
73.81634
 20
153.7935
 10
72.94438
 20
153.71562
 10
72.0712
 20
153.65301
 10
71.19706
 20
153.60569999999998
 10
70.82222
 20
153.59034
 10
70.82222
 20
161.08977
 10
64.82222
 20
161.08977
 10
64.82222
 20
153.59198
 10
64.44739
 20
153.60569999999998
  0
LWPOLYLINE
  5
38
330
17
100
AcDbEntity
  8
CUT
100
AcDbPolyline
 90
127
 70
1
 10
36.56885
 20
175.75585
 10
37.33785
 20
174.94491
 10
38.12867
 20
174.15523
 10
38.9407
 20
173.38738
 10
39.77335
 20
172.64194
 10
40.626000000000005
 20
171.91946
 10
41.49802
 20
171.22048
 10
42.38875
 20
170.54552
 10
43.29755
 20
169.89507
 10
44.22372
 20
169.26962
 10
45.1666
 20
168.66964
 10
46.12547
 20
168.09557
 10
47.09962
 20
167.54784
 10
48.08834
 20
167.02685
 10
49.09088
 20
166.53298999999998
 10
50.1065
 20
166.06662
 10
85.53795
 20
166.06662
 10
86.55357
 20
166.53298999999998
 10
87.55611
 20
167.02685
 10
88.54483
 20
167.54784
 10
89.51898
 20
168.09557
 10
90.47785
 20
168.66964
 10
91.42073
 20
169.26962
 10
92.3469
 20
169.89507
 10
93.2557
 20
170.54552
 10
94.14643
 20
171.22048
 10
95.01845
 20
171.91946
 10
95.8711
 20
172.64194
 10
96.70375
 20
173.38738
 10
97.51578
 20
174.15523
 10
98.3066
 20
174.94491
 10
99.0756
 20
175.75585
 10
99.82222
 20
176.58744
 10
99.82222
 20
208.96951
 10
99.09339
 20
210.06297999999998
 10
98.33912
 20
211.15085
 10
97.56061
 20
212.23092
 10
96.75903
 20
213.30096
 10
95.93558
 20
214.35877
 10
95.09146
 20
215.40214
 10
94.22784
 20
216.42886
 10
93.34593
 20
217.43672
 10
92.29171
 20
218.59087
 10
91.21715
 20
219.7141
 10
90.6063
 20
220.32958
 10
89.99025
 20
220.93383
 10
89.16541
 20
221.71746000000002
 10
89.01673
 20
221.85565
 10
88.42303
 20
222.39803
 10
87.82528
 20
222.92906
 10
87.22397
 20
223.44847
 10
86.61958
 20
223.95595
 10
86.01262
 20
224.45121999999998
 10
85.40357
 20
224.93398
 10
84.79293
 20
225.40395
 10
84.18118
 20
225.86082
 10
83.04348999999999
 20
226.67379
 10
81.90686
 20
227.43871000000001
 10
80.77441999999999
 20
228.15371
 10
80.21076
 20
228.4919
 10
79.64932999999999
 20
228.81691
 10
78.8357
 20
229.26661000000001
 10
78.02887
 20
229.68707999999998
 10
77.23006000000001
 20
230.07759
 10
76.4405
 20
230.43742
 10
75.54679
 20
230.81276
 10
74.68418
 20
231.14238
 10
74.27154999999999
 20
231.28833
 10
73.69653
 20
231.47892000000002
 10
73.13096
 20
231.65158
 10
72.56744
 20
231.80865
 10
72.01342
 20
231.9481
 10
71.45578
 20
232.07305
 10
70.90791
 20
232.18027999999998
 10
70.36538999999999
 20
232.27080999999998
 10
69.83266
 20
232.34404
 10
69.30015
 20
232.40118
 10
68.77766
 20
232.44106
 10
68.29554999999999
 20
232.46308
 10
67.82222
 20
232.47037
 10
67.3489
 20
232.46308
 10
66.86679000000001
 20
232.44106
 10
66.3443
 20
232.40118
 10
65.81179
 20
232.34404
 10
65.27906
 20
232.27080999999998
 10
64.73653999999999
 20
232.18027999999998
 10
64.18867
 20
232.07305
 10
63.63103
 20
231.9481
 10
63.07701
 20
231.80865
 10
62.51349
 20
231.65158
 10
61.94792
 20
231.47892000000002
 10
61.37289
 20
231.28833
 10
60.96027
 20
231.14238
 10
60.09766
 20
230.81276
 10
59.20395
 20
230.43742
 10
58.41439
 20
230.07759
 10
57.61558
 20
229.68707999999998
 10
56.80875
 20
229.26661000000001
 10
55.99512
 20
228.81691
 10
55.43369
 20
228.4919
 10
54.87003
 20
228.15371
 10
53.73759
 20
227.43871000000001
 10
52.60095
 20
226.67379
 10
51.46327
 20
225.86082
 10
50.85152
 20
225.40395
 10
50.240880000000004
 20
224.93398
 10
49.63183
 20
224.45121999999998
 10
49.02487
 20
223.95595
 10
48.42048
 20
223.44847
 10
47.81917
 20
222.92906
 10
47.221419999999995
 20
222.39803
 10
46.62772
 20
221.85565
 10
46.47904
 20
221.71746000000002
 10
45.6542
 20
220.93383
 10
45.03815
 20
220.32958
 10
44.4273
 20
219.7141
 10
43.35273
 20
218.59087
 10
42.29851
 20
217.43672
 10
41.4166
 20
216.42886
 10
40.55299
 20
215.40214
 10
39.708870000000005
 20
214.35877
 10
38.885419999999996
 20
213.30096
 10
38.083839999999995
 20
212.23092
 10
37.305319999999995
 20
211.15085
 10
36.551050000000004
 20
210.06297999999998
 10
35.82222
 20
208.96951
 10
35.82222
 20
176.58744
  0
LWPOLYLINE
  5
39
330
17
100
AcDbEntity
  8
CUT
100
AcDbPolyline
 90
304
 70
1
 10
115.627
 20
280.39709
 10
115.57468
 20
279.7386
 10
115.48766
 20
279.08379
 10
115.36616
 20
278.4345
 10
115.21054
 20
277.79253
 10
115.02122
 20
277.15968
 10
114.79873
 20
276.53771
 10
114.5437
 20
275.92837
 10
114.17752
 20
275.13321
 10
113.79748
 20
274.34458
 10
113.40369
 20
273.56273
 10
112.99629
 20
272.78788
 10
112.57538
 20
272.02029
 10
112.1411
 20
271.26018
 10
111.69359
 20
270.50778
 10
111.23298
 20
269.76334
 10
110.75941
 20
269.02707
 10
110.27302
 20
268.2992
 10
109.77397
 20
267.57995
 10
109.26241
 20
266.86955
 10
108.7385
 20
266.16821
 10
108.20239
 20
265.47615
 10
107.65425
 20
264.79357
 10
107.09425
 20
264.1207
 10
106.52255
 20
263.45773
 10
105.93935
 20
262.80486
 10
105.3448
 20
262.1623
 10
104.7391
 20
261.53025
 10
104.12243
 20
260.9089
 10
103.49498
 20
260.29843
 10
102.85694
 20
259.69903
 10
102.20851
 20
259.1109
 10
101.54989
 20
258.5342
 10
100.88127
 20
257.96912
 10
100.20287
 20
257.41583
 10
99.51488
 20
256.8745
 10
98.81753
 20
256.34529
 10
98.11102
 20
255.82837
 10
97.39558
 20
255.32389
 10
96.67141
 20
254.83201
 10
95.93874
 20
254.35287
 10
95.19781
 20
253.88664
 10
94.44882
 20
253.43344
 10
93.69202
 20
252.99342000000001
 10
92.92763
 20
252.56672
 10
92.1559
 20
252.15346
 10
91.37704
 20
251.75377
 10
90.59132
 20
251.36777
 10
89.79895
 20
250.99558
 10
89.0002
 20
250.63731
 10
88.19529
 20
250.29308
 10
87.38449
 20
249.963
 10
86.56803
 20
249.64715
 10
85.74617
 20
249.34564
 10
84.91916
 20
249.05856
 10
84.08725
 20
248.78599
 10
83.2507
 20
248.52803
 10
82.40976
 20
248.28475
 10
81.56469
 20
248.05623
 10
80.71575
 20
247.84253
 10
79.8632
 20
247.64372
 10
79.0073
 20
247.45986
 10
78.14832
 20
247.29101
 10
77.28650999999999
 20
247.13722
 10
76.42214
 20
246.99854
 10
75.55548
 20
246.875
 10
74.68679
 20
246.76665
 10
73.81634
 20
246.67353
 10
72.94438
 20
246.59565
 10
72.0712
 20
246.53304
 10
71.19706
 20
246.48573
 10
70.82222
 20
246.47037
 10
70.82222
 20
253.94668000000001
 10
64.82222
 20
253.94668000000001
 10
64.82222
 20
246.47201
 10
64.44739
 20
246.48573
 10
63.57324
 20
246.53304
 10
62.70006
 20
246.59565
 10
61.82811
 20
246.67353
 10
60.95766
 20
246.76665
 10
60.08897
 20
246.875
 10
59.2223
 20
246.99854
 10
58.35794
 20
247.13722
 10
57.49613
 20
247.29101
 10
56.63715
 20
247.45986
 10
55.78125
 20
247.64372
 10
54.9287
 20
247.84253
 10
54.07976
 20
248.05623
 10
53.23469
 20
248.28475
 10
52.39375
 20
248.52803
 10
51.5572
 20
248.78599
 10
50.72529
 20
249.05856
 10
49.89828
 20
249.34564
 10
49.07642
 20
249.64715
 10
48.25996
 20
249.963
 10
47.44916
 20
250.29308
 10
46.64425
 20
250.63731
 10
45.8455
 20
250.99558
 10
45.053129999999996
 20
251.36777
 10
44.267399999999995
 20
251.75377
 10
43.488550000000004
 20
252.15346
 10
42.716809999999995
 20
252.56672
 10
41.95243
 20
252.99342000000001
 10
41.19563
 20
253.43344
 10
40.44664
 20
253.88664
 10
39.7057
 20
254.35287
 10
38.97304
 20
254.83201
 10
38.24887
 20
255.32389
 10
37.533429999999996
 20
255.82837
 10
36.82692
 20
256.34529
 10
36.12957
 20
256.8745
 10
35.44158
 20
257.41583
 10
34.76318
 20
257.96912
 10
34.09456
 20
258.5342
 10
33.43594
 20
259.1109
 10
32.78751
 20
259.69903
 10
32.14947
 20
260.29843
 10
31.522019999999998
 20
260.9089
 10
30.90535
 20
261.53025
 10
30.29965
 20
262.1623
 10
29.7051
 20
262.80486
 10
29.12189
 20
263.45773
 10
28.5502
 20
264.1207
 10
27.9902
 20
264.79357
 10
27.442059999999998
 20
265.47615
 10
26.90595
 20
266.16821
 10
26.38203
 20
266.86955
 10
25.87047
 20
267.57995
 10
25.37143
 20
268.2992
 10
24.88504
 20
269.02707
 10
24.41147
 20
269.76334
 10
23.95086
 20
270.50778
 10
23.50335
 20
271.26018
 10
23.06907
 20
272.02029
 10
22.64816
 20
272.78788
 10
22.24076
 20
273.56273
 10
21.84697
 20
274.34458
 10
21.46693
 20
275.13321
 10
21.10075
 20
275.92837
 10
20.84572
 20
276.53771
 10
20.62323
 20
277.15968
 10
20.43391
 20
277.79253
 10
20.27829
 20
278.4345
 10
20.15679
 20
279.08379
 10
20.06977
 20
279.7386
 10
20.01745
 20
280.39709
 10
20.0
 20
281.05742
 10
20.0
 20
282.1606
 10
30.0
 20
282.1606
 10
30.0
 20
288.1606
 10
20.0
 20
288.1606
 10
20.0
 20
288.72592
 10
20.26454
 20
289.72947
 10
20.55913
 20
290.74745
 10
20.88349
 20
291.77848
 10
21.23733
 20
292.82116
 10
21.62036
 20
293.87412
 10
22.03229
 20
294.93596
 10
22.47284
 20
296.00532
 10
22.94172
 20
297.08079
 10
23.30434
 20
297.87496
 10
23.68155
 20
298.67123
 10
24.07311
 20
299.46915
 10
24.47876
 20
300.26829
 10
24.898229999999998
 20
301.0682
 10
25.33127
 20
301.86843
 10
25.777630000000002
 20
302.66854
 10
26.23705
 20
303.4681
 10
26.70926
 20
304.26665
 10
27.194020000000002
 20
305.06376
 10
27.69106
 20
305.85898
 10
28.20013
 20
306.65187000000003
 10
28.72097
 20
307.44198
 10
29.25333
 20
308.22888
 10
29.79694
 20
309.01212
 10
30.35155
 20
309.79125
 10
30.91691
 20
310.56584
 10
31.49275
 20
311.33544
 10
32.078810000000004
 20
312.09961
 10
32.67485
 20
312.85791
 10
33.280609999999996
 20
313.60989
 10
33.89582
 20
314.35510999999997
 10
34.52023
 20
315.09313
 10
35.15359
 20
315.82349999999997
 10
35.79562
 20
316.54578000000004
 10
36.44609
 20
317.25953
 10
37.10473
 20
317.96431
 10
37.77129
 20
318.65968
 10
38.445499999999996
 20
319.34518
 10
39.12711
 20
320.02038
 10
39.81586
 20
320.68483000000003
 10
40.5115
 20
321.3381
 10
41.55979
 20
322.28942
 10
42.62158
 20
323.21356000000003
 10
43.695840000000004
 20
324.10935
 10
44.78154
 20
324.97561
 10
45.87764
 20
325.81115
 10
46.98312
 20
326.6148
 10
48.09692
 20
327.38537
 10
49.218019999999996
 20
328.12167999999997
 10
50.345389999999995
 20
328.82257
 10
51.47799
 20
329.48683
 10
52.61479
 20
330.1133
 10
53.75474
 20
330.70079
 10
54.89682
 20
331.24813
 10
56.04
 20
331.75413000000003
 10
57.18323
 20
332.21762
 10
57.75455
 20
332.43305
 10
58.32549
 20
332.63741
 10
58.92812
 20
332.84123999999997
 10
59.52994
 20
333.03261
 10
60.13086
 20
333.21144
 10
60.7308
 20
333.37762
 10
61.32967
 20
333.53105
 10
61.92738
 20
333.67165
 10
62.52386
 20
333.79932
 10
63.11901
 20
333.91395
 10
63.71275
 20
334.01546
 10
64.30499
 20
334.10374
 10
64.89565
 20
334.17871
 10
65.48464
 20
334.24026000000003
 10
66.07188
 20
334.2883
 10
66.65728
 20
334.32274
 10
67.24076
 20
334.34347
 10
67.82222
 20
334.35040000000004
 10
68.40369
 20
334.34347
 10
68.98716999999999
 20
334.32274
 10
69.57257
 20
334.2883
 10
70.15981
 20
334.24026000000003
 10
70.7488
 20
334.17871
 10
71.33946
 20
334.10374
 10
71.9317
 20
334.01546
 10
72.52544
 20
333.91395
 10
73.12058999999999
 20
333.79932
 10
73.71707
 20
333.67165
 10
74.31478
 20
333.53105
 10
74.91364999999999
 20
333.37762
 10
75.51359
 20
333.21144
 10
76.11451
 20
333.03261
 10
76.71633
 20
332.84123999999997
 10
77.31896
 20
332.63741
 10
77.8899
 20
332.43305
 10
78.46122
 20
332.21762
 10
79.60445
 20
331.75413000000003
 10
80.74762
 20
331.24813
 10
81.88971000000001
 20
330.70079
 10
83.02966
 20
330.1133
 10
84.16646
 20
329.48683
 10
85.29906
 20
328.82257
 10
86.42642
 20
328.12167999999997
 10
87.54753
 20
327.38537
 10
88.66133
 20
326.6148
 10
89.7668
 20
325.81115
 10
90.86291
 20
324.97561
 10
91.94861
 20
324.10935
 10
93.02287
 20
323.21356000000003
 10
94.08466
 20
322.28942
 10
95.13294
 20
321.3381
 10
95.82858
 20
320.68483000000003
 10
96.51734
 20
320.02038
 10
97.19895
 20
319.34518
 10
97.87316
 20
318.65968
 10
98.53972
 20
317.96431
 10
99.19836
 20
317.25953
 10
99.84882
 20
316.54578000000004
 10
100.49086
 20
315.82349999999997
 10
101.12422
 20
315.09313
 10
101.74863
 20
314.35510999999997
 10
102.36384
 20
313.60989
 10
102.96959
 20
312.85791
 10
103.56563
 20
312.09961
 10
104.1517
 20
311.33544
 10
104.72754
 20
310.56584
 10
105.2929
 20
309.79125
 10
105.84751
 20
309.01212
 10
106.39112
 20
308.22888
 10
106.92348
 20
307.44198
 10
107.44432
 20
306.65187000000003
 10
107.95339
 20
305.85898
 10
108.45043
 20
305.06376
 10
108.93519
 20
304.26665
 10
109.4074
 20
303.4681
 10
109.86682
 20
302.66854
 10
110.31317
 20
301.86843
 10
110.74622
 20
301.0682
 10
111.16569
 20
300.26829
 10
111.57134
 20
299.46915
 10
111.96289
 20
298.67123
 10
112.34011
 20
297.87496
 10
112.70273
 20
297.08079
 10
113.17161
 20
296.00532
 10
113.61215
 20
294.93596
 10
114.02409
 20
293.87412
 10
114.40712
 20
292.82116
 10
114.76095
 20
291.77848
 10
115.08531
 20
290.74745
 10
115.37991
 20
289.72947
 10
115.64445
 20
288.72592
 10
115.64445
 20
288.1606
 10
105.64444
 20
288.1606
 10
105.64444
 20
282.1606
 10
115.64444
 20
282.1606
 10
115.64445
 20
283.1606
 10
115.64445
 20
281.05742
  0
LWPOLYLINE
  5
3A
330
17
100
AcDbEntity
  8
CUT
100
AcDbPolyline
 90
127
 70
1
 10
37.33785
 20
267.82494
 10
38.12867
 20
267.03526
 10
38.9407
 20
266.26741
 10
39.77335
 20
265.52197
 10
40.626000000000005
 20
264.79949
 10
41.49802
 20
264.10051
 10
42.38875
 20
263.42555
 10
43.29755
 20
262.7751
 10
44.22372
 20
262.14965
 10
45.1666
 20
261.54967
 10
46.12547
 20
260.9756
 10
47.09962
 20
260.42787
 10
48.08834
 20
259.90688
 10
49.09088
 20
259.41302
 10
50.1065
 20
258.94665
 10
85.53795
 20
258.94665
 10
86.55357
 20
259.41302
 10
87.55611
 20
259.90688
 10
88.54483
 20
260.42787
 10
89.51898
 20
260.9756
 10
90.47785
 20
261.54967
 10
91.42073
 20
262.14965
 10
92.3469
 20
262.7751
 10
93.2557
 20
263.42555
 10
94.14643
 20
264.10051
 10
95.01845
 20
264.79949
 10
95.8711
 20
265.52197
 10
96.70375
 20
266.26741
 10
97.51578
 20
267.03526
 10
98.3066
 20
267.82494
 10
99.0756
 20
268.63588
 10
99.82222
 20
269.46747
 10
99.82222
 20
301.84954
 10
99.09339
 20
302.94301
 10
98.33912
 20
304.03088
 10
97.56061
 20
305.11095
 10
96.75903
 20
306.18099
 10
95.93558
 20
307.2388
 10
95.09146
 20
308.28217
 10
94.22784
 20
309.30889
 10
93.34593
 20
310.31675
 10
92.29171
 20
311.47090000000003
 10
91.21715
 20
312.59413
 10
90.6063
 20
313.20961
 10
89.99025
 20
313.81386
 10
89.16541
 20
314.59749
 10
89.01673
 20
314.73568
 10
88.42303
 20
315.27806
 10
87.82528
 20
315.80908999999997
 10
87.22397
 20
316.3285
 10
86.61958
 20
316.83598
 10
86.01262
 20
317.33125
 10
85.40357
 20
317.81401
 10
84.79293
 20
318.28398
 10
84.18118
 20
318.74085
 10
83.04348999999999
 20
319.55382
 10
81.90686
 20
320.31874
 10
80.77441999999999
 20
321.03374
 10
80.21076
 20
321.37193
 10
79.64932999999999
 20
321.69694
 10
78.8357
 20
322.14664
 10
78.02887
 20
322.56711
 10
77.23006000000001
 20
322.95762
 10
76.4405
 20
323.31745
 10
75.54679
 20
323.69279
 10
74.68418
 20
324.02241000000004
 10
74.27154999999999
 20
324.16836
 10
73.69653
 20
324.35895
 10
73.13096
 20
324.53161
 10
72.56744
 20
324.68868
 10
72.01342
 20
324.82813
 10
71.45578
 20
324.95308
 10
70.90791
 20
325.06031
 10
70.36538999999999
 20
325.15084
 10
69.83266
 20
325.22407
 10
69.30015
 20
325.28121
 10
68.77766
 20
325.32109
 10
68.29554999999999
 20
325.34311
 10
67.82222
 20
325.35040000000004
 10
67.3489
 20
325.34311
 10
66.86679000000001
 20
325.32109
 10
66.3443
 20
325.28121
 10
65.81179
 20
325.22407
 10
65.27906
 20
325.15084
 10
64.73653999999999
 20
325.06031
 10
64.18867
 20
324.95308
 10
63.63103
 20
324.82813
 10
63.07701
 20
324.68868
 10
62.51349
 20
324.53161
 10
61.94792
 20
324.35895
 10
61.37289
 20
324.16836
 10
60.96027
 20
324.02241000000004
 10
60.09766
 20
323.69279
 10
59.20395
 20
323.31745
 10
58.41439
 20
322.95762
 10
57.61558
 20
322.56711
 10
56.80875
 20
322.14664
 10
55.99512
 20
321.69694
 10
55.43369
 20
321.37193
 10
54.87003
 20
321.03374
 10
53.73759
 20
320.31874
 10
52.60095
 20
319.55382
 10
51.46327
 20
318.74085
 10
50.85152
 20
318.28398
 10
50.240880000000004
 20
317.81401
 10
49.63183
 20
317.33125
 10
49.02487
 20
316.83598
 10
48.42048
 20
316.3285
 10
47.81917
 20
315.80908999999997
 10
47.221419999999995
 20
315.27806
 10
46.62772
 20
314.73568
 10
46.47904
 20
314.59749
 10
45.6542
 20
313.81386
 10
45.03815
 20
313.20961
 10
44.4273
 20
312.59413
 10
43.35273
 20
311.47090000000003
 10
42.29851
 20
310.31675
 10
41.4166
 20
309.30889
 10
40.55299
 20
308.28217
 10
39.708870000000005
 20
307.2388
 10
38.885419999999996
 20
306.18099
 10
38.083839999999995
 20
305.11095
 10
37.305319999999995
 20
304.03088
 10
36.551050000000004
 20
302.94301
 10
35.82222
 20
301.84954
 10
35.82222
 20
269.46747
 10
36.56885
 20
268.63588
  0
LWPOLYLINE
  5
3B
330
17
100
AcDbEntity
  8
CUT
100
AcDbPolyline
 90
32
 70
1
 10
32.82222
 20
303.04035
 10
32.80301
 20
303.23544
 10
32.7461
 20
303.42303
 10
32.65369
 20
303.59592
 10
32.52933
 20
303.74745
 10
32.37779
 20
303.87182
 10
32.20491
 20
303.96423
 10
32.01731
 20
304.02112999999997
 10
31.82222
 20
304.04035
 10
31.62713
 20
304.02112999999997
 10
31.43954
 20
303.96423
 10
31.26665
 20
303.87182
 10
31.115119999999997
 20
303.74745
 10
30.99075
 20
303.59592
 10
30.898339999999997
 20
303.42303
 10
30.84144
 20
303.23544
 10
30.82222
 20
303.04035
 10
30.84144
 20
302.84526
 10
30.898339999999997
 20
302.65766
 10
30.99075
 20
302.48478
 10
31.115119999999997
 20
302.33324
 10
31.26665
 20
302.20888
 10
31.43954
 20
302.11647
 10
31.62713
 20
302.05956000000003
 10
31.82222
 20
302.04035
 10
32.01731
 20
302.05956000000003
 10
32.20491
 20
302.11647
 10
32.37779
 20
302.20888
 10
32.52933
 20
302.33324
 10
32.65369
 20
302.48478
 10
32.7461
 20
302.65766
 10
32.80301
 20
302.84526
  0
LWPOLYLINE
  5
3C
330
17
100
AcDbEntity
  8
CUT
100
AcDbPolyline
 90
32
 70
1
 10
68.82222
 20
329.35040000000004
 10
68.80301
 20
329.54549
 10
68.7461
 20
329.73308
 10
68.65369
 20
329.90597
 10
68.52933
 20
330.05751
 10
68.37779
 20
330.18187
 10
68.20491
 20
330.27428
 10
68.01731000000001
 20
330.33118
 10
67.82222
 20
330.35040000000004
 10
67.62713
 20
330.33118
 10
67.43954
 20
330.27428
 10
67.26665
 20
330.18187
 10
67.11511999999999
 20
330.05751
 10
66.99074999999999
 20
329.90597
 10
66.89833999999999
 20
329.73308
 10
66.84144
 20
329.54549
 10
66.82222
 20
329.35040000000004
 10
66.84144
 20
329.15531
 10
66.89833999999999
 20
328.96772
 10
66.99074999999999
 20
328.79483
 10
67.11511999999999
 20
328.64329
 10
67.26665
 20
328.51893
 10
67.43954
 20
328.42652
 10
67.62713
 20
328.36961
 10
67.82222
 20
328.35040000000004
 10
68.01731000000001
 20
328.36961
 10
68.20491
 20
328.42652
 10
68.37779
 20
328.51893
 10
68.52933
 20
328.64329
 10
68.65369
 20
328.79483
 10
68.7461
 20
328.96772
 10
68.80301
 20
329.15531
  0
LWPOLYLINE
  5
3D
330
17
100
AcDbEntity
  8
CUT
100
AcDbPolyline
 90
32
 70
1
 10
104.82222
 20
303.04035
 10
104.80301
 20
303.23544
 10
104.7461
 20
303.42303
 10
104.65369
 20
303.59592
 10
104.52933
 20
303.74745
 10
104.37779
 20
303.87182
 10
104.20491
 20
303.96423
 10
104.01731
 20
304.02112999999997
 10
103.82222
 20
304.04035
 10
103.62713
 20
304.02112999999997
 10
103.43954
 20
303.96423
 10
103.26665
 20
303.87182
 10
103.11512
 20
303.74745
 10
102.99075
 20
303.59592
 10
102.89834
 20
303.42303
 10
102.84144
 20
303.23544
 10
102.82222
 20
303.04035
 10
102.84144
 20
302.84526
 10
102.89834
 20
302.65766
 10
102.99075
 20
302.48478
 10
103.11512
 20
302.33324
 10
103.26665
 20
302.20888
 10
103.43954
 20
302.11647
 10
103.62713
 20
302.05956000000003
 10
103.82222
 20
302.04035
 10
104.01731
 20
302.05956000000003
 10
104.20491
 20
302.11647
 10
104.37779
 20
302.20888
 10
104.52933
 20
302.33324
 10
104.65369
 20
302.48478
 10
104.7461
 20
302.65766
 10
104.80301
 20
302.84526
  0
LWPOLYLINE
  5
3E
330
17
100
AcDbEntity
  8
CUT
100
AcDbPolyline
 90
48
 70
1
 10
88.69442
 20
344.35040000000004
 10
88.69442
 20
339.35040000000004
 10
73.82222
 20
339.35040000000004
 10
73.82222
 20
344.35040000000004
 10
61.82222
 20
344.35040000000004
 10
61.82222
 20
339.35040000000004
 10
46.95003
 20
339.35040000000004
 10
46.95003
 20
344.35040000000004
 10
34.95003
 20
344.35040000000004
 10
34.95003
 20
339.35040000000004
 10
22.450029999999998
 20
339.35040000000004
 10
22.09677
 20
340.03447000000006
 10
21.75409
 20
340.7239
 10
21.42205
 20
341.41852000000006
 10
21.10075
 20
342.11817
 10
20.84572
 20
342.72751000000005
 10
20.62323
 20
343.34948
 10
20.43391
 20
343.98233000000005
 10
20.27829
 20
344.62430000000006
 10
20.15679
 20
345.27359
 10
20.06977
 20
345.9284
 10
20.01745
 20
346.58688000000006
 10
20.0
 20
347.24722
 10
20.0
 20
349.35040000000004
 10
30.49999
 20
349.35040000000004
 10
30.49999
 20
354.35040000000004
 10
25.32218
 20
354.35040000000004
 10
25.32218
 20
364.35040000000004
 10
110.32222
 20
364.35040000000004
 10
110.32222
 20
354.35040000000004
 10
105.14444
 20
354.35040000000004
 10
105.14444
 20
349.35040000000004
 10
115.64445
 20
349.35040000000004
 10
115.64445
 20
347.24722
 10
115.627
 20
346.58688000000006
 10
115.57468
 20
345.9284
 10
115.48766
 20
345.27359
 10
115.36616
 20
344.62430000000006
 10
115.21054
 20
343.98233000000005
 10
115.02122
 20
343.34948
 10
114.79873
 20
342.72751000000005
 10
114.5437
 20
342.11817
 10
114.22239
 20
341.41852000000006
 10
113.89036
 20
340.7239
 10
113.54768
 20
340.03447000000006
 10
113.19442
 20
339.35040000000004
 10
100.69442
 20
339.35040000000004
 10
100.69442
 20
344.35040000000004
  0
LWPOLYLINE
  5
3F
330
17
100
AcDbEntity
  8
CUT
100
AcDbPolyline
 90
48
 70
1
 10
113.19442
 20
369.35040000000004
 10
100.69442
 20
369.35040000000004
 10
100.69442
 20
374.35040000000004
 10
88.69442
 20
374.35040000000004
 10
88.69442
 20
369.35040000000004
 10
73.82222
 20
369.35040000000004
 10
73.82222
 20
374.35040000000004
 10
61.82222
 20
374.35040000000004
 10
61.82222
 20
369.35040000000004
 10
46.95003
 20
369.35040000000004
 10
46.95003
 20
374.35040000000004
 10
34.95003
 20
374.35040000000004
 10
34.95003
 20
369.35040000000004
 10
22.450029999999998
 20
369.35040000000004
 10
22.09677
 20
370.03447000000006
 10
21.75409
 20
370.7239
 10
21.42205
 20
371.41852000000006
 10
21.10075
 20
372.11817
 10
20.84572
 20
372.72751000000005
 10
20.62323
 20
373.34948
 10
20.43391
 20
373.98233000000005
 10
20.27829
 20
374.62430000000006
 10
20.15679
 20
375.27359
 10
20.06977
 20
375.9284
 10
20.01745
 20
376.58688000000006
 10
20.0
 20
377.24722
 10
20.0
 20
379.35040000000004
 10
30.49999
 20
379.35040000000004
 10
30.49999
 20
384.35040000000004
 10
25.32218
 20
384.35040000000004
 10
25.32218
 20
394.35040000000004
 10
110.32222
 20
394.35040000000004
 10
110.32222
 20
384.35040000000004
 10
105.14444
 20
384.35040000000004
 10
105.14444
 20
379.35040000000004
 10
115.64445
 20
379.35040000000004
 10
115.64445
 20
377.24722
 10
115.627
 20
376.58688000000006
 10
115.57468
 20
375.9284
 10
115.48766
 20
375.27359
 10
115.36616
 20
374.62430000000006
 10
115.21054
 20
373.98233000000005
 10
115.02122
 20
373.34948
 10
114.79873
 20
372.72751000000005
 10
114.5437
 20
372.11817
 10
114.22239
 20
371.41852000000006
 10
113.89036
 20
370.7239
 10
113.54768
 20
370.03447000000006
  0
LWPOLYLINE
  5
40
330
17
100
AcDbEntity
  8
CUT
100
AcDbPolyline
 90
30
 70
1
 10
105.85813
 20
399.49354000000005
 10
29.32084
 20
399.35040000000004
 10
24.31576
 20
404.34138
 10
20.00633
 20
404.33362000000005
 10
20.0
 20
411.98147000000006
 10
22.17804
 20
411.72360000000003
 10
24.3544
 20
411.45194000000004
 10
29.30411
 20
415.78113
 10
29.30381
 20
416.07620000000003
 10
32.13509
 20
415.69012000000004
 10
35.073679999999996
 20
415.2653
 10
38.118700000000004
 20
414.80074
 10
41.269239999999996
 20
414.29541000000006
 10
44.52442
 20
413.74833
 10
47.88335
 20
413.15848000000005
 10
51.34513
 20
412.52486000000005
 10
54.90889
 20
411.84645000000006
 10
58.57371
 20
411.12226000000004
 10
62.33873
 20
410.35127000000006
 10
66.20303
 20
409.53248
 10
70.16574
 20
408.66488000000004
 10
74.22596999999999
 20
407.74747
 10
78.38281
 20
406.77924
 10
82.63539
 20
405.75917000000004
 10
86.9828
 20
404.68627000000004
 10
90.10728
 20
403.89590000000004
 10
93.09349
 20
403.12555000000003
 10
98.49099
 20
401.69995000000006
 10
102.85505
 20
400.51957000000004
 10
105.86539
 20
399.69448000000006
  0
LWPOLYLINE
  5
41
330
17
100
AcDbEntity
  8
CUT
100
AcDbPolyline
 90
32
 70
1
 10
39.31293
 20
407.15926
 10
39.29372
 20
407.35435
 10
39.23681
 20
407.54195000000004
 10
39.144400000000005
 20
407.71483000000006
 10
39.02004
 20
407.86637
 10
38.8685
 20
407.99073000000004
 10
38.695620000000005
 20
408.08314
 10
38.50802
 20
408.14005000000003
 10
38.31293
 20
408.15926
 10
38.11784
 20
408.14005000000003
 10
37.93025
 20
408.08314
 10
37.75736
 20
407.99073000000004
 10
37.60583
 20
407.86637
 10
37.48146
 20
407.71483000000006
 10
37.38905
 20
407.54195000000004
 10
37.33215
 20
407.35435
 10
37.31293
 20
407.15926
 10
37.33215
 20
406.96417
 10
37.38905
 20
406.77658
 10
37.48146
 20
406.60369000000003
 10
37.60583
 20
406.45216000000005
 10
37.75736
 20
406.32779000000005
 10
37.93025
 20
406.23538
 10
38.11784
 20
406.17848000000004
 10
38.31293
 20
406.15926
 10
38.50802
 20
406.17848000000004
 10
38.695620000000005
 20
406.23538
 10
38.8685
 20
406.32779000000005
 10
39.02004
 20
406.45216000000005
 10
39.144400000000005
 20
406.60369000000003
 10
39.23681
 20
406.77658
 10
39.29372
 20
406.96417
  0
LWPOLYLINE
  5
42
330
17
100
AcDbEntity
  8
CUT
100
AcDbPolyline
 90
30
 70
1
 10
196.73078
 20
415.73212
 10
193.72044
 20
414.90703
 10
189.35638
 20
413.72665000000006
 10
183.95888000000002
 20
412.30105000000003
 10
180.97267
 20
411.5307
 10
177.84819
 20
410.74032000000005
 10
173.50078000000002
 20
409.66742000000005
 10
169.2482
 20
408.64736000000005
 10
165.09136
 20
407.67913000000004
 10
161.03113000000002
 20
406.76171000000005
 10
157.06842
 20
405.89412000000004
 10
153.20412
 20
405.07533
 10
149.4391
 20
404.30434
 10
145.77428
 20
403.58014000000003
 10
142.21052
 20
402.90174
 10
138.74874
 20
402.26811000000004
 10
135.38981
 20
401.67826
 10
132.13463000000002
 20
401.13118000000003
 10
128.98409
 20
400.62586000000005
 10
125.93907
 20
400.16130000000004
 10
123.00048000000001
 20
399.73648000000003
 10
120.1692
 20
399.35040000000004
 10
120.1695
 20
399.64547000000005
 10
115.21979
 20
403.97466000000003
 10
113.04343
 20
403.70299000000006
 10
110.86539
 20
403.44512000000003
 10
110.87172000000001
 20
411.09298
 10
115.18115
 20
411.08522000000005
 10
120.18623000000001
 20
416.07620000000003
 10
196.72352
 20
415.93306
  0
LWPOLYLINE
  5
43
330
17
100
AcDbEntity
  8
CUT
100
AcDbPolyline
 90
32
 70
1
 10
130.17832
 20
408.26734000000005
 10
130.15911
 20
408.46243000000004
 10
130.1022
 20
408.65002000000004
 10
130.00979
 20
408.82291000000004
 10
129.88543
 20
408.97444
 10
129.73389
 20
409.09881
 10
129.56101
 20
409.19121
 10
129.37341
 20
409.24812000000003
 10
129.17832
 20
409.26734000000005
 10
128.98323
 20
409.24812000000003
 10
128.79564
 20
409.19121
 10
128.62275
 20
409.09881
 10
128.47122000000002
 20
408.97444
 10
128.34685000000002
 20
408.82291000000004
 10
128.25444000000002
 20
408.65002000000004
 10
128.19754
 20
408.46243000000004
 10
128.17832
 20
408.26734000000005
 10
128.19754
 20
408.07225000000005
 10
128.25444000000002
 20
407.88465
 10
128.34685000000002
 20
407.71177000000006
 10
128.47122000000002
 20
407.56023000000005
 10
128.62275
 20
407.43587
 10
128.79564
 20
407.34346000000005
 10
128.98323
 20
407.28655000000003
 10
129.17832
 20
407.26734000000005
 10
129.37341
 20
407.28655000000003
 10
129.56101
 20
407.34346000000005
 10
129.73389
 20
407.43587
 10
129.88543
 20
407.56023000000005
 10
130.00979
 20
407.71177000000006
 10
130.1022
 20
407.88465
 10
130.15911
 20
408.07225000000005
  0
LWPOLYLINE
  5
44
330
17
100
AcDbEntity
  8
CUT
100
AcDbPolyline
 90
28
 70
1
 10
123.14445
 20
171.29034
 10
123.14445
 20
176.29034
 10
135.14445
 20
176.29034
 10
135.14445
 20
171.29034
 10
150.01664
 20
171.29034
 10
150.01664
 20
176.29034
 10
162.01664
 20
176.29034
 10
162.01664
 20
171.29034
 10
176.88884000000002
 20
171.29034
 10
176.88884000000002
 20
176.29034
 10
188.88884000000002
 20
176.29034
 10
188.88884000000002
 20
171.29034
 10
193.38884000000002
 20
171.29034
 10
193.38884000000002
 20
159.59034
 10
188.88884000000002
 20
159.59034
 10
188.88884000000002
 20
153.59034
 10
176.88884000000002
 20
153.59034
 10
176.88884000000002
 20
159.59034
 10
162.01664
 20
159.59034
 10
162.01664
 20
153.59034
 10
150.01664
 20
153.59034
 10
150.01664
 20
159.59034
 10
135.14445
 20
159.59034
 10
135.14445
 20
153.59034
 10
123.14445
 20
153.59034
 10
123.14445
 20
159.59034
 10
120.64445
 20
159.59034
 10
120.64445
 20
171.29034
  0
LWPOLYLINE
  5
45
330
17
100
AcDbEntity
  8
CUT
100
AcDbPolyline
 90
32
 70
1
 10
179.83886
 20
164.94034
 10
179.81965
 20
165.13542999999999
 10
179.76274
 20
165.32301999999999
 10
179.67033
 20
165.49591
 10
179.54597
 20
165.64745
 10
179.39443
 20
165.77181
 10
179.22155
 20
165.86422
 10
179.03395
 20
165.92113
 10
178.83886
 20
165.94034
 10
178.64377000000002
 20
165.92113
 10
178.45618000000002
 20
165.86422
 10
178.28329000000002
 20
165.77181
 10
178.13176
 20
165.64745
 10
178.00739000000002
 20
165.49591
 10
177.91498
 20
165.32301999999999
 10
177.85808
 20
165.13542999999999
 10
177.83886
 20
164.94034
 10
177.85808
 20
164.74525
 10
177.91498
 20
164.55766
 10
178.00739000000002
 20
164.38477
 10
178.13176
 20
164.23323
 10
178.28329000000002
 20
164.10887
 10
178.45618000000002
 20
164.01646
 10
178.64377000000002
 20
163.95955
 10
178.83886
 20
163.94034
 10
179.03395
 20
163.95955
 10
179.22155
 20
164.01646
 10
179.39443
 20
164.10887
 10
179.54597
 20
164.23323
 10
179.67033
 20
164.38477
 10
179.76274
 20
164.55766
 10
179.81965
 20
164.74525
  0
LWPOLYLINE
  5
46
330
17
100
AcDbEntity
  8
CUT
100
AcDbPolyline
 90
32
 70
1
 10
134.19442
 20
164.94034
 10
134.17520000000002
 20
165.13542999999999
 10
134.1183
 20
165.32301999999999
 10
134.02589
 20
165.49591
 10
133.90152
 20
165.64745
 10
133.74999
 20
165.77181
 10
133.5771
 20
165.86422
 10
133.38951
 20
165.92113
 10
133.19442
 20
165.94034
 10
132.99933000000001
 20
165.92113
 10
132.81173
 20
165.86422
 10
132.63885000000002
 20
165.77181
 10
132.48731
 20
165.64745
 10
132.36295
 20
165.49591
 10
132.27054
 20
165.32301999999999
 10
132.21363
 20
165.13542999999999
 10
132.19442
 20
164.94034
 10
132.21363
 20
164.74525
 10
132.27054
 20
164.55766
 10
132.36295
 20
164.38477
 10
132.48731
 20
164.23323
 10
132.63885000000002
 20
164.10887
 10
132.81173
 20
164.01646
 10
132.99933000000001
 20
163.95955
 10
133.19442
 20
163.94034
 10
133.38951
 20
163.95955
 10
133.5771
 20
164.01646
 10
133.74999
 20
164.10887
 10
133.90152
 20
164.23323
 10
134.02589
 20
164.38477
 10
134.1183
 20
164.55766
 10
134.17520000000002
 20
164.74525
  0
LWPOLYLINE
  5
47
330
17
100
AcDbEntity
  8
CUT
100
AcDbPolyline
 90
31
 70
1
 10
130.72741
 20
139.6356
 10
125.0
 20
139.00824
 10
125.00323
 20
142.90307
 10
130.70044000000001
 20
142.89396
 10
135.70553
 20
147.88595
 10
135.70557
 20
147.93115
 10
195.69970999999998
 20
147.81846000000002
 10
195.70533
 20
147.66307
 10
191.30020000000002
 20
146.46376
 10
188.62641
 20
145.74936
 10
185.66707
 20
144.97329
 10
182.44364000000002
 20
144.14666
 10
178.97758
 20
143.2806
 10
175.29034000000001
 20
142.38622
 10
171.40338
 20
141.47464
 10
167.33814999999998
 20
140.55697
 10
165.24539
 20
140.09932
 10
163.11610000000002
 20
139.64433
 10
160.95298
 20
139.19337000000002
 10
158.7587
 20
138.74784
 10
156.53595
 20
138.30912
 10
154.2874
 20
137.87861
 10
152.01574
 20
137.45769
 10
149.72366
 20
137.04776
 10
147.41382
 20
136.65021000000002
 10
145.08892
 20
136.26641
 10
142.75163
 20
135.89778
 10
140.40465
 20
135.54568
 10
138.05064
 20
135.21152
 10
135.6923
 20
134.89668
 10
135.69259
 20
135.18003000000002
  0
LWPOLYLINE
  5
48
330
17
100
AcDbEntity
  8
CUT
100
AcDbPolyline
 90
32
 70
1
 10
145.80181
 20
142.19007
 10
145.7826
 20
142.38516
 10
145.72569
 20
142.57275
 10
145.63328
 20
142.74564
 10
145.50892
 20
142.89718
 10
145.35738
 20
143.02154000000002
 10
145.18449
 20
143.11395
 10
144.9969
 20
143.17085
 10
144.80181
 20
143.19007
 10
144.60672
 20
143.17085
 10
144.41913
 20
143.11395
 10
144.24624
 20
143.02154000000002
 10
144.0947
 20
142.89718
 10
143.97034
 20
142.74564
 10
143.87793
 20
142.57275
 10
143.82103
 20
142.38516
 10
143.80181
 20
142.19007
 10
143.82103
 20
141.99498
 10
143.87793
 20
141.80739
 10
143.97034
 20
141.6345
 10
144.0947
 20
141.48296
 10
144.24624
 20
141.3586
 10
144.41913
 20
141.26619
 10
144.60672
 20
141.20928
 10
144.80181
 20
141.19007
 10
144.9969
 20
141.20928
 10
145.18449
 20
141.26619
 10
145.35738
 20
141.3586
 10
145.50892
 20
141.48296
 10
145.63328
 20
141.6345
 10
145.72569
 20
141.80739
 10
145.7826
 20
141.99498
  0
LWPOLYLINE
  5
49
330
17
100
AcDbEntity
  8
CUT
100
AcDbPolyline
 90
31
 70
1
 10
30.69259
 20
433.82733
 10
30.6923
 20
434.11067
 10
33.05064
 20
433.79584000000006
 10
35.404650000000004
 20
433.46167
 10
37.75163
 20
433.10958000000005
 10
40.08892
 20
432.74094
 10
42.41382
 20
432.35715000000005
 10
44.723659999999995
 20
431.95959000000005
 10
47.01574
 20
431.54966
 10
49.287400000000005
 20
431.12875
 10
51.53595
 20
430.69824000000006
 10
53.7587
 20
430.25952
 10
55.95298
 20
429.81399000000005
 10
58.1161
 20
429.36303000000004
 10
60.24539
 20
428.90803000000005
 10
62.33815
 20
428.45039
 10
66.40338
 20
427.53272000000004
 10
70.29034
 20
426.62113000000005
 10
73.97758
 20
425.72675000000004
 10
77.44364
 20
424.86069000000003
 10
80.66707
 20
424.03407000000004
 10
83.62640999999999
 20
423.25800000000004
 10
86.3002
 20
422.5436
 10
90.70533
 20
421.34428
 10
90.69971
 20
421.18890000000005
 10
30.70557
 20
421.07620000000003
 10
30.70553
 20
421.12140000000005
 10
25.70044
 20
426.1134
 10
20.00323
 20
426.10428
 10
20.0
 20
429.99912
 10
25.72741
 20
429.37176000000005
  0
LWPOLYLINE
  5
4A
330
17
100
AcDbEntity
  8
CUT
100
AcDbPolyline
 90
32
 70
1
 10
40.80181
 20
426.81729
 10
40.7826
 20
427.01238
 10
40.72569
 20
427.19997
 10
40.63328
 20
427.37286
 10
40.50892
 20
427.52439000000004
 10
40.35738
 20
427.64876000000004
 10
40.18449
 20
427.74117
 10
39.9969
 20
427.79807000000005
 10
39.80181
 20
427.81729
 10
39.606719999999996
 20
427.79807000000005
 10
39.419129999999996
 20
427.74117
 10
39.24624
 20
427.64876000000004
 10
39.0947
 20
427.52439000000004
 10
38.97034
 20
427.37286
 10
38.87793
 20
427.19997
 10
38.82103
 20
427.01238
 10
38.80181
 20
426.81729
 10
38.82103
 20
426.6222
 10
38.87793
 20
426.43460000000005
 10
38.97034
 20
426.26172
 10
39.0947
 20
426.11018
 10
39.24624
 20
425.98582000000005
 10
39.419129999999996
 20
425.89341
 10
39.606719999999996
 20
425.8365
 10
39.80181
 20
425.81729
 10
39.9969
 20
425.8365
 10
40.18449
 20
425.89341
 10
40.35738
 20
425.98582000000005
 10
40.50892
 20
426.11018
 10
40.63328
 20
426.26172
 10
40.72569
 20
426.43460000000005
 10
40.7826
 20
426.6222
  0
LWPOLYLINE
  5
4B
330
17
100
AcDbEntity
  8
CUT
100
AcDbPolyline
 90
321
 70
1
 10
148.18923
 20
221.0409
 10
148.72264
 20
220.96475999999998
 10
149.25385
 20
220.87857
 10
149.78259
 20
220.7824
 10
150.3086
 20
220.67628
 10
150.8316
 20
220.56027
 10
151.35133000000002
 20
220.43444
 10
151.86752
 20
220.29883999999998
 10
152.37991
 20
220.15354
 10
152.88824
 20
219.99862
 10
153.39225
 20
219.83416
 10
153.89169
 20
219.66024
 10
154.38629
 20
219.47695
 10
154.8758
 20
219.28438
 10
155.35998
 20
219.08263999999997
 10
155.83858
 20
218.87181999999999
 10
156.31135
 20
218.65203
 10
156.77805
 20
218.42338999999998
 10
157.23845
 20
218.18599999999998
 10
157.69231000000002
 20
217.94
 10
158.13940000000002
 20
217.68551
 10
158.57949000000002
 20
217.42264999999998
 10
159.01236
 20
217.15156
 10
159.43778
 20
216.87239
 10
159.85554000000002
 20
216.58525999999998
 10
160.26542
 20
216.29034
 10
160.66722000000001
 20
215.98775999999998
 10
161.06073
 20
215.67767999999998
 10
161.44576
 20
215.36026999999999
 10
161.82209
 20
215.03567999999999
 10
162.18955
 20
214.70407999999998
 10
162.54794
 20
214.36563999999998
 10
162.89709
 20
214.02051999999998
 10
163.23681
 20
213.66891999999999
 10
163.56693
 20
213.31099999999998
 10
163.88728
 20
212.94695
 10
164.1977
 20
212.57694999999998
 10
164.49803
 20
212.20119
 10
164.78812
 20
211.81986999999998
 10
165.06781
 20
211.43318
 10
165.33698
 20
211.04131999999998
 10
165.59547
 20
210.64448
 10
165.84316
 20
210.24286999999998
 10
166.07992000000002
 20
209.83668999999998
 10
166.30563
 20
209.42615999999998
 10
166.52018
 20
209.01146999999997
 10
166.72345
 20
208.59285
 10
166.91534000000001
 20
208.17049999999998
 10
167.09576
 20
207.74463999999998
 10
167.26461
 20
207.31548999999998
 10
167.42181
 20
206.88326999999998
 10
167.56727
 20
206.44818999999998
 10
167.70092
 20
206.01047999999997
 10
167.8227
 20
205.57037
 10
167.93254000000002
 20
205.12806999999998
 10
168.03038
 20
204.68381
 10
168.11618
 20
204.23782999999997
 10
168.18989
 20
203.79034
 10
162.37786
 20
203.79034
 10
162.37786
 20
198.79034
 10
168.18998
 20
198.79034
 10
168.11629
 20
198.34285
 10
168.03050000000002
 20
197.89685999999998
 10
167.93268
 20
197.4526
 10
167.82285000000002
 20
197.01030999999998
 10
167.70109000000002
 20
196.57019
 10
167.56745
 20
196.13248
 10
167.42201
 20
195.69741
 10
167.26483000000002
 20
195.26518
 10
167.09599
 20
194.83603
 10
166.91559
 20
194.41017
 10
166.72371
 20
193.98782999999997
 10
166.52046
 20
193.5692
 10
166.30592000000001
 20
193.15452
 10
166.08023
 20
192.74398
 10
165.84348
 20
192.3378
 10
165.59581
 20
191.93618999999998
 10
165.33733
 20
191.53936
 10
165.06818
 20
191.14748999999998
 10
164.7885
 20
190.7608
 10
164.49842
 20
190.37948
 10
164.19811
 20
190.00373
 10
163.8877
 20
189.63372999999999
 10
163.56736
 20
189.26968
 10
163.23726
 20
188.91176
 10
162.89755000000002
 20
188.56015
 10
162.54842000000002
 20
188.21504
 10
162.19004
 20
187.8766
 10
161.82259
 20
187.54498999999998
 10
161.44627
 20
187.22039999999998
 10
161.06126
 20
186.90299
 10
160.66776000000002
 20
186.59292
 10
160.26597
 20
186.29034
 10
159.85609
 20
185.99541
 10
159.43834
 20
185.70828999999998
 10
159.01293
 20
185.42910999999998
 10
158.58008
 20
185.15803
 10
158.14000000000001
 20
184.89516999999998
 10
157.69292000000002
 20
184.64067
 10
157.23907
 20
184.39467
 10
156.77868
 20
184.15729
 10
156.31198
 20
183.92863999999997
 10
155.83922
 20
183.70886
 10
155.36062
 20
183.49803999999997
 10
154.87645
 20
183.29629
 10
154.38695
 20
183.10371999999998
 10
153.89235000000002
 20
182.92042999999998
 10
153.39293
 20
182.74650999999997
 10
152.88892
 20
182.58204999999998
 10
152.38060000000002
 20
182.42712999999998
 10
151.86821
 20
182.28184
 10
151.35202
 20
182.14623999999998
 10
150.8323
 20
182.0204
 10
150.3093
 20
181.90439999999998
 10
149.7833
 20
181.79827999999998
 10
149.25456
 20
181.70209999999997
 10
148.72335
 20
181.61592
 10
148.18995
 20
181.53976999999998
 10
147.65462
 20
181.47369999999998
 10
147.11764
 20
181.41772999999998
 10
146.57928
 20
181.37189999999998
 10
146.03982000000002
 20
181.33623
 10
145.49953
 20
181.31073999999998
 10
144.95869000000002
 20
181.29543999999999
 10
144.41758000000002
 20
181.29034
 10
143.87646
 20
181.29543999999999
 10
143.33562
 20
181.31073999999998
 10
142.79533
 20
181.33623
 10
142.25587000000002
 20
181.37189999999998
 10
141.71751
 20
181.41772999999998
 10
141.18053
 20
181.47369999999998
 10
140.64520000000002
 20
181.53976999999998
 10
140.11179
 20
181.61592
 10
139.58058
 20
181.70209999999997
 10
139.05184
 20
181.79827999999998
 10
138.52583
 20
181.90439999999998
 10
138.00283000000002
 20
182.0204
 10
137.4831
 20
182.14623999999998
 10
136.96691
 20
182.28184
 10
136.45452
 20
182.42712999999998
 10
135.94619
 20
182.58204999999998
 10
135.44218
 20
182.74650999999997
 10
134.94274000000001
 20
182.92042999999998
 10
134.44814
 20
183.10371999999998
 10
133.95863
 20
183.29629
 10
133.47445000000002
 20
183.49803999999997
 10
132.99585000000002
 20
183.70886
 10
132.52308
 20
183.92863999999997
 10
132.05638000000002
 20
184.15729
 10
131.59598
 20
184.39467
 10
131.14212
 20
184.64067
 10
130.69503
 20
184.89516999999998
 10
130.25494
 20
185.15803
 10
129.82207
 20
185.42910999999998
 10
129.39665
 20
185.70828999999998
 10
128.97889
 20
185.99541
 10
128.56901
 20
186.29034
 10
128.16721
 20
186.59292
 10
127.7737
 20
186.90299
 10
127.38867
 20
187.22039999999998
 10
127.01234000000001
 20
187.54498999999998
 10
126.64488
 20
187.8766
 10
126.28649
 20
188.21504
 10
125.93734
 20
188.56015
 10
125.59762
 20
188.91176
 10
125.26750000000001
 20
189.26968
 10
124.94715000000001
 20
189.63372999999999
 10
124.63673
 20
190.00373
 10
124.33640000000001
 20
190.37948
 10
124.04631
 20
190.7608
 10
123.76662
 20
191.14748999999998
 10
123.49746
 20
191.53936
 10
123.23896
 20
191.93618999999998
 10
122.99127
 20
192.3378
 10
122.75451000000001
 20
192.74398
 10
122.5288
 20
193.15452
 10
122.31425
 20
193.5692
 10
122.11098000000001
 20
193.98782999999997
 10
121.91909000000001
 20
194.41017
 10
121.73867000000001
 20
194.83603
 10
121.56982
 20
195.26518
 10
121.41262
 20
195.69741
 10
121.26716
 20
196.13248
 10
121.13351
 20
196.57019
 10
121.01173
 20
197.01030999999998
 10
120.90189000000001
 20
197.4526
 10
120.80405
 20
197.89685999999998
 10
120.71825000000001
 20
198.34285
 10
120.64454
 20
198.79034
 10
126.45657
 20
198.79034
 10
126.45657
 20
203.79034
 10
120.64445
 20
203.79034
 10
120.71814
 20
204.23782999999997
 10
120.80393000000001
 20
204.68381
 10
120.90175
 20
205.12806999999998
 10
121.01158000000001
 20
205.57037
 10
121.13334
 20
206.01047999999997
 10
121.26698
 20
206.44818999999998
 10
121.41242000000001
 20
206.88326999999998
 10
121.56960000000001
 20
207.31548999999998
 10
121.73844000000001
 20
207.74463999999998
 10
121.91884
 20
208.17049999999998
 10
122.11072
 20
208.59285
 10
122.31398
 20
209.01146999999997
 10
122.52851000000001
 20
209.42615999999998
 10
122.75420000000001
 20
209.83668999999998
 10
122.99095000000001
 20
210.24286999999998
 10
123.23862000000001
 20
210.64448
 10
123.4971
 20
211.04131999999998
 10
123.76625
 20
211.43318
 10
124.04593000000001
 20
211.81986999999998
 10
124.33601
 20
212.20119
 10
124.63632000000001
 20
212.57694999999998
 10
124.94673
 20
212.94695
 10
125.26707
 20
213.31099999999998
 10
125.59717
 20
213.66891999999999
 10
125.93688
 20
214.02051999999998
 10
126.28601
 20
214.36563999999998
 10
126.64439
 20
214.70407999999998
 10
127.01184
 20
215.03567999999999
 10
127.38816
 20
215.36026999999999
 10
127.77317000000001
 20
215.67767999999998
 10
128.16667
 20
215.98775999999998
 10
128.56846000000002
 20
216.29034
 10
128.97834
 20
216.58525999999998
 10
129.39609000000002
 20
216.87239
 10
129.82150000000001
 20
217.15156
 10
130.25435000000002
 20
217.42264999999998
 10
130.69443
 20
217.68551
 10
131.14151
 20
217.94
 10
131.59536
 20
218.18599999999998
 10
132.05575000000002
 20
218.42338999999998
 10
132.52245
 20
218.65203
 10
132.99521000000001
 20
218.87181999999999
 10
133.47381000000001
 20
219.08263999999997
 10
133.95798000000002
 20
219.28438
 10
134.44748
 20
219.47695
 10
134.94208
 20
219.66024
 10
135.44150000000002
 20
219.83416
 10
135.94551
 20
219.99862
 10
136.45383
 20
220.15354
 10
136.96622000000002
 20
220.29883999999998
 10
137.48241000000002
 20
220.43444
 10
138.00213
 20
220.56027
 10
138.52513000000002
 20
220.67628
 10
139.05113
 20
220.7824
 10
139.57987
 20
220.87857
 10
140.11108000000002
 20
220.96475999999998
 10
140.64448000000002
 20
221.0409
 10
141.17981
 20
221.10698
 10
141.41722000000001
 20
221.13171999999997
 10
141.41722000000001
 20
206.48648999999997
 10
141.42631
 20
206.48648999999997
 10
141.27701000000002
 20
206.40297999999999
 10
140.87073
 20
206.13001
 10
140.48805000000002
 20
205.82483
 10
140.13152
 20
205.48948
 10
139.80351000000002
 20
205.12618999999998
 10
139.50621
 20
204.73736
 10
139.24158
 20
204.32559999999998
 10
139.0114
 20
203.89363999999998
 10
138.8172
 20
203.44435
 10
138.66026
 20
202.98073
 10
138.54163
 20
202.50585999999998
 10
138.46210000000002
 20
202.0229
 10
138.42221
 20
201.53507
 10
138.42221
 20
201.04560999999998
 10
138.46210000000002
 20
200.55776999999998
 10
138.54163
 20
200.07480999999999
 10
138.66026
 20
199.59993999999998
 10
138.8172
 20
199.13631999999998
 10
139.0114
 20
198.68703
 10
139.24158
 20
198.25507
 10
139.50621
 20
197.84330999999997
 10
139.80351000000002
 20
197.45449
 10
140.13152
 20
197.09118999999998
 10
140.48805000000002
 20
196.75583999999998
 10
140.87073
 20
196.45066
 10
141.27701000000002
 20
196.1777
 10
141.70418
 20
195.93875
 10
142.14941000000002
 20
195.73541999999998
 10
142.60974000000002
 20
195.56905999999998
 10
143.08209
 20
195.44077
 10
143.56333
 20
195.35141
 10
144.05025
 20
195.30157
 10
144.53961
 20
195.29158999999999
 10
145.02815
 20
195.32152
 10
145.51263
 20
195.39118
 10
145.98983
 20
195.50009999999997
 10
146.45655
 20
195.64754
 10
146.90971000000002
 20
195.83255
 10
147.34627
 20
196.05387
 10
147.76335
 20
196.31004
 10
148.15815
 20
196.59935
 10
148.52807
 20
196.91987999999998
 10
148.87062
 20
197.26949
 10
149.18354
 20
197.64587
 10
149.46474
 20
198.04648999999998
 10
149.71234
 20
198.46871
 10
149.92471
 20
198.9097
 10
150.10043000000002
 20
199.36652999999998
 10
150.23833000000002
 20
199.83616999999998
 10
150.33749
 20
200.31547999999998
 10
150.39725
 20
200.80128
 10
150.41722000000001
 20
201.29034
 10
150.39725
 20
201.77938999999998
 10
150.33749
 20
202.26519
 10
150.23833000000002
 20
202.74451
 10
150.10043000000002
 20
203.21414
 10
149.92471
 20
203.67098
 10
149.71234
 20
204.11196999999999
 10
149.46474
 20
204.53418
 10
149.18354
 20
204.93480999999997
 10
148.87062
 20
205.31117999999998
 10
148.52807
 20
205.6608
 10
148.15815
 20
205.98132999999999
 10
147.76335
 20
206.27064
 10
147.41192
 20
206.48648999999997
 10
147.41722000000001
 20
206.48648999999997
 10
147.41722000000001
 20
221.13164999999998
 10
147.65390000000002
 20
221.10698
  0
LWPOLYLINE
  5
4C
330
17
100
AcDbEntity
  8
CUT
100
AcDbPolyline
 90
128
 70
1
 10
136.51721
 20
191.79034
 10
136.51529
 20
191.86884999999998
 10
136.50951
 20
191.94716999999997
 10
136.4999
 20
192.02510999999998
 10
136.48647
 20
192.10247999999999
 10
136.46927
 20
192.17910999999998
 10
136.44832
 20
192.2548
 10
136.42369
 20
192.32935999999998
 10
136.39542
 20
192.40263
 10
136.36360000000002
 20
192.47442999999998
 10
136.32829
 20
192.54457
 10
136.28958
 20
192.6129
 10
136.24757
 20
192.67925
 10
136.20235
 20
192.74346
 10
136.15403
 20
192.80536999999998
 10
136.10274
 20
192.86482999999998
 10
136.04859000000002
 20
192.92171
 10
135.99171
 20
192.97585999999998
 10
135.93224
 20
193.02715999999998
 10
135.87033
 20
193.07547
 10
135.80613
 20
193.12069
 10
135.73978
 20
193.16270999999998
 10
135.67145
 20
193.20140999999998
 10
135.6013
 20
193.23672
 10
135.52951000000002
 20
193.26854999999998
 10
135.45624
 20
193.29681
 10
135.38167
 20
193.32144
 10
135.30598
 20
193.34239
 10
135.22936
 20
193.3596
 10
135.15198
 20
193.37302
 10
135.07404
 20
193.38263999999998
 10
134.99572
 20
193.38841
 10
134.91721
 20
193.39033999999998
 10
134.83871
 20
193.38841
 10
134.76039
 20
193.38263999999998
 10
134.68245000000002
 20
193.37302
 10
134.60507
 20
193.3596
 10
134.52845000000002
 20
193.34239
 10
134.45276
 20
193.32144
 10
134.37819000000002
 20
193.29681
 10
134.30492
 20
193.26854999999998
 10
134.23313000000002
 20
193.23672
 10
134.16298
 20
193.20140999999998
 10
134.09465
 20
193.16270999999998
 10
134.0283
 20
193.12069
 10
133.9641
 20
193.07547
 10
133.90219000000002
 20
193.02715999999998
 10
133.84272
 20
192.97585999999998
 10
133.78584
 20
192.92171
 10
133.73169000000001
 20
192.86482999999998
 10
133.68040000000002
 20
192.80536999999998
 10
133.63208
 20
192.74346
 10
133.58686
 20
192.67925
 10
133.54485
 20
192.6129
 10
133.50614000000002
 20
192.54457
 10
133.47083
 20
192.47442999999998
 10
133.43901
 20
192.40263
 10
133.41074
 20
192.32935999999998
 10
133.38611
 20
192.2548
 10
133.36516
 20
192.17910999999998
 10
133.34796
 20
192.10247999999999
 10
133.33453
 20
192.02510999999998
 10
133.32492000000002
 20
191.94716999999997
 10
133.31914
 20
191.86884999999998
 10
133.31722000000002
 20
191.79034
 10
133.31914
 20
191.71183
 10
133.32492000000002
 20
191.63351
 10
133.33453
 20
191.55557
 10
133.34796
 20
191.4782
 10
133.36516
 20
191.40157
 10
133.38611
 20
191.32587999999998
 10
133.41074
 20
191.25132
 10
133.43901
 20
191.17804999999998
 10
133.47083
 20
191.10625
 10
133.50614000000002
 20
191.03610999999998
 10
133.54485
 20
190.96777999999998
 10
133.58686
 20
190.90142999999998
 10
133.63208
 20
190.83721999999997
 10
133.68040000000002
 20
190.77531
 10
133.73169000000001
 20
190.71585
 10
133.78584
 20
190.65896999999998
 10
133.84272
 20
190.60482
 10
133.90219000000002
 20
190.55352
 10
133.9641
 20
190.50520999999998
 10
134.0283
 20
190.45998999999998
 10
134.09465
 20
190.41797
 10
134.16298
 20
190.37927
 10
134.23313000000002
 20
190.34395999999998
 10
134.30492
 20
190.31213
 10
134.37819000000002
 20
190.28386999999998
 10
134.45276
 20
190.25923999999998
 10
134.52845000000002
 20
190.23828999999998
 10
134.60507
 20
190.22107999999997
 10
134.68245000000002
 20
190.20765999999998
 10
134.76039
 20
190.19804
 10
134.83871
 20
190.19226999999998
 10
134.91721
 20
190.19034
 10
134.99572
 20
190.19226999999998
 10
135.07404
 20
190.19804
 10
135.15198
 20
190.20765999999998
 10
135.22936
 20
190.22107999999997
 10
135.30598
 20
190.23828999999998
 10
135.38167
 20
190.25923999999998
 10
135.45624
 20
190.28386999999998
 10
135.52951000000002
 20
190.31213
 10
135.6013
 20
190.34395999999998
 10
135.67145
 20
190.37927
 10
135.73978
 20
190.41797
 10
135.80613
 20
190.45998999999998
 10
135.87033
 20
190.50520999999998
 10
135.93224
 20
190.55352
 10
135.99171
 20
190.60482
 10
136.04859000000002
 20
190.65896999999998
 10
136.10274
 20
190.71585
 10
136.15403
 20
190.77531
 10
136.20235
 20
190.83721999999997
 10
136.24757
 20
190.90142999999998
 10
136.28958
 20
190.96777999999998
 10
136.32829
 20
191.03610999999998
 10
136.36360000000002
 20
191.10625
 10
136.39542
 20
191.17804999999998
 10
136.42369
 20
191.25132
 10
136.44832
 20
191.32587999999998
 10
136.46927
 20
191.40157
 10
136.48647
 20
191.4782
 10
136.4999
 20
191.55557
 10
136.50951
 20
191.63351
 10
136.51529
 20
191.71183
  0
LWPOLYLINE
  5
4D
330
17
100
AcDbEntity
  8
CUT
100
AcDbPolyline
 90
128
 70
1
 10
136.51721
 20
210.79034
 10
136.51529
 20
210.86884999999998
 10
136.50951
 20
210.94716999999997
 10
136.4999
 20
211.02510999999998
 10
136.48647
 20
211.10247999999999
 10
136.46927
 20
211.17910999999998
 10
136.44832
 20
211.2548
 10
136.42369
 20
211.32935999999998
 10
136.39542
 20
211.40263
 10
136.36360000000002
 20
211.47442999999998
 10
136.32829
 20
211.54457
 10
136.28958
 20
211.6129
 10
136.24757
 20
211.67925
 10
136.20235
 20
211.74345999999997
 10
136.15403
 20
211.80536999999998
 10
136.10274
 20
211.86482999999998
 10
136.04859000000002
 20
211.92171
 10
135.99171
 20
211.97585999999998
 10
135.93224
 20
212.02715999999998
 10
135.87033
 20
212.07547
 10
135.80613
 20
212.12069
 10
135.73978
 20
212.16270999999998
 10
135.67145
 20
212.20140999999998
 10
135.6013
 20
212.23672
 10
135.52951000000002
 20
212.26854999999998
 10
135.45624
 20
212.29681
 10
135.38167
 20
212.32144
 10
135.30598
 20
212.34239
 10
135.22936
 20
212.3596
 10
135.15198
 20
212.37302
 10
135.07404
 20
212.38263999999998
 10
134.99572
 20
212.38841
 10
134.91721
 20
212.39033999999998
 10
134.83871
 20
212.38841
 10
134.76039
 20
212.38263999999998
 10
134.68245000000002
 20
212.37302
 10
134.60507
 20
212.3596
 10
134.52845000000002
 20
212.34239
 10
134.45276
 20
212.32144
 10
134.37819000000002
 20
212.29681
 10
134.30492
 20
212.26854999999998
 10
134.23313000000002
 20
212.23672
 10
134.16298
 20
212.20140999999998
 10
134.09465
 20
212.16270999999998
 10
134.0283
 20
212.12069
 10
133.9641
 20
212.07547
 10
133.90219000000002
 20
212.02715999999998
 10
133.84272
 20
211.97585999999998
 10
133.78584
 20
211.92171
 10
133.73169000000001
 20
211.86482999999998
 10
133.68040000000002
 20
211.80536999999998
 10
133.63208
 20
211.74345999999997
 10
133.58686
 20
211.67925
 10
133.54485
 20
211.6129
 10
133.50614000000002
 20
211.54457
 10
133.47083
 20
211.47442999999998
 10
133.43901
 20
211.40263
 10
133.41074
 20
211.32935999999998
 10
133.38611
 20
211.2548
 10
133.36516
 20
211.17910999999998
 10
133.34796
 20
211.10247999999999
 10
133.33453
 20
211.02510999999998
 10
133.32492000000002
 20
210.94716999999997
 10
133.31914
 20
210.86884999999998
 10
133.31722000000002
 20
210.79034
 10
133.31914
 20
210.71183
 10
133.32492000000002
 20
210.63351
 10
133.33453
 20
210.55557
 10
133.34796
 20
210.4782
 10
133.36516
 20
210.40157
 10
133.38611
 20
210.32587999999998
 10
133.41074
 20
210.25132
 10
133.43901
 20
210.17804999999998
 10
133.47083
 20
210.10625
 10
133.50614000000002
 20
210.03610999999998
 10
133.54485
 20
209.96777999999998
 10
133.58686
 20
209.90142999999998
 10
133.63208
 20
209.83722
 10
133.68040000000002
 20
209.77531
 10
133.73169000000001
 20
209.71585
 10
133.78584
 20
209.65896999999998
 10
133.84272
 20
209.60482
 10
133.90219000000002
 20
209.55352
 10
133.9641
 20
209.50520999999998
 10
134.0283
 20
209.45998999999998
 10
134.09465
 20
209.41797
 10
134.16298
 20
209.37927
 10
134.23313000000002
 20
209.34395999999998
 10
134.30492
 20
209.31213
 10
134.37819000000002
 20
209.28386999999998
 10
134.45276
 20
209.25923999999998
 10
134.52845000000002
 20
209.23828999999998
 10
134.60507
 20
209.22107999999997
 10
134.68245000000002
 20
209.20765999999998
 10
134.76039
 20
209.19804
 10
134.83871
 20
209.19226999999998
 10
134.91721
 20
209.19034
 10
134.99572
 20
209.19226999999998
 10
135.07404
 20
209.19804
 10
135.15198
 20
209.20765999999998
 10
135.22936
 20
209.22107999999997
 10
135.30598
 20
209.23828999999998
 10
135.38167
 20
209.25923999999998
 10
135.45624
 20
209.28386999999998
 10
135.52951000000002
 20
209.31213
 10
135.6013
 20
209.34395999999998
 10
135.67145
 20
209.37927
 10
135.73978
 20
209.41797
 10
135.80613
 20
209.45998999999998
 10
135.87033
 20
209.50520999999998
 10
135.93224
 20
209.55352
 10
135.99171
 20
209.60482
 10
136.04859000000002
 20
209.65896999999998
 10
136.10274
 20
209.71585
 10
136.15403
 20
209.77531
 10
136.20235
 20
209.83722
 10
136.24757
 20
209.90142999999998
 10
136.28958
 20
209.96777999999998
 10
136.32829
 20
210.03610999999998
 10
136.36360000000002
 20
210.10625
 10
136.39542
 20
210.17804999999998
 10
136.42369
 20
210.25132
 10
136.44832
 20
210.32587999999998
 10
136.46927
 20
210.40157
 10
136.48647
 20
210.4782
 10
136.4999
 20
210.55557
 10
136.50951
 20
210.63351
 10
136.51529
 20
210.71183
  0
LWPOLYLINE
  5
4E
330
17
100
AcDbEntity
  8
CUT
100
AcDbPolyline
 90
128
 70
1
 10
155.51722
 20
191.79034
 10
155.51529
 20
191.86884999999998
 10
155.50951
 20
191.94716999999997
 10
155.4999
 20
192.02510999999998
 10
155.48647
 20
192.10247999999999
 10
155.46927
 20
192.17910999999998
 10
155.44832000000002
 20
192.2548
 10
155.42369000000002
 20
192.32935999999998
 10
155.39542
 20
192.40263
 10
155.36360000000002
 20
192.47442999999998
 10
155.32829
 20
192.54457
 10
155.28958
 20
192.6129
 10
155.24757
 20
192.67925
 10
155.20235
 20
192.74346
 10
155.15403
 20
192.80536999999998
 10
155.10274
 20
192.86482999999998
 10
155.04859
 20
192.92171
 10
154.99171
 20
192.97585999999998
 10
154.93224
 20
193.02715999999998
 10
154.87033
 20
193.07547
 10
154.80613
 20
193.12069
 10
154.73978
 20
193.16270999999998
 10
154.67145
 20
193.20140999999998
 10
154.6013
 20
193.23672
 10
154.52951000000002
 20
193.26854999999998
 10
154.45624
 20
193.29681
 10
154.38167
 20
193.32144
 10
154.30598
 20
193.34239
 10
154.22936
 20
193.3596
 10
154.15198
 20
193.37302
 10
154.07404
 20
193.38263999999998
 10
153.99572
 20
193.38841
 10
153.91721
 20
193.39033999999998
 10
153.83871
 20
193.38841
 10
153.76039
 20
193.38263999999998
 10
153.68245000000002
 20
193.37302
 10
153.60507
 20
193.3596
 10
153.52845000000002
 20
193.34239
 10
153.45276
 20
193.32144
 10
153.37819000000002
 20
193.29681
 10
153.30492
 20
193.26854999999998
 10
153.23313000000002
 20
193.23672
 10
153.16298
 20
193.20140999999998
 10
153.09465
 20
193.16270999999998
 10
153.0283
 20
193.12069
 10
152.9641
 20
193.07547
 10
152.90219000000002
 20
193.02715999999998
 10
152.84272
 20
192.97585999999998
 10
152.78584
 20
192.92171
 10
152.73169000000001
 20
192.86482999999998
 10
152.68040000000002
 20
192.80536999999998
 10
152.63208
 20
192.74346
 10
152.58686
 20
192.67925
 10
152.54485
 20
192.6129
 10
152.50614000000002
 20
192.54457
 10
152.47083
 20
192.47442999999998
 10
152.43901
 20
192.40263
 10
152.41074
 20
192.32935999999998
 10
152.38611
 20
192.2548
 10
152.36516
 20
192.17910999999998
 10
152.34796
 20
192.10247999999999
 10
152.33453
 20
192.02510999999998
 10
152.32492000000002
 20
191.94716999999997
 10
152.31914
 20
191.86884999999998
 10
152.31721000000002
 20
191.79034
 10
152.31914
 20
191.71183
 10
152.32492000000002
 20
191.63351
 10
152.33453
 20
191.55557
 10
152.34796
 20
191.4782
 10
152.36516
 20
191.40157
 10
152.38611
 20
191.32587999999998
 10
152.41074
 20
191.25132
 10
152.43901
 20
191.17804999999998
 10
152.47083
 20
191.10625
 10
152.50614000000002
 20
191.03610999999998
 10
152.54485
 20
190.96777999999998
 10
152.58686
 20
190.90142999999998
 10
152.63208
 20
190.83721999999997
 10
152.68040000000002
 20
190.77531
 10
152.73169000000001
 20
190.71585
 10
152.78584
 20
190.65896999999998
 10
152.84272
 20
190.60482
 10
152.90219000000002
 20
190.55352
 10
152.9641
 20
190.50520999999998
 10
153.0283
 20
190.45998999999998
 10
153.09465
 20
190.41797
 10
153.16298
 20
190.37927
 10
153.23313000000002
 20
190.34395999999998
 10
153.30492
 20
190.31213
 10
153.37819000000002
 20
190.28386999999998
 10
153.45276
 20
190.25923999999998
 10
153.52845000000002
 20
190.23828999999998
 10
153.60507
 20
190.22107999999997
 10
153.68245000000002
 20
190.20765999999998
 10
153.76039
 20
190.19804
 10
153.83871
 20
190.19226999999998
 10
153.91721
 20
190.19034
 10
153.99572
 20
190.19226999999998
 10
154.07404
 20
190.19804
 10
154.15198
 20
190.20765999999998
 10
154.22936
 20
190.22107999999997
 10
154.30598
 20
190.23828999999998
 10
154.38167
 20
190.25923999999998
 10
154.45624
 20
190.28386999999998
 10
154.52951000000002
 20
190.31213
 10
154.6013
 20
190.34395999999998
 10
154.67145
 20
190.37927
 10
154.73978
 20
190.41797
 10
154.80613
 20
190.45998999999998
 10
154.87033
 20
190.50520999999998
 10
154.93224
 20
190.55352
 10
154.99171
 20
190.60482
 10
155.04859
 20
190.65896999999998
 10
155.10274
 20
190.71585
 10
155.15403
 20
190.77531
 10
155.20235
 20
190.83721999999997
 10
155.24757
 20
190.90142999999998
 10
155.28958
 20
190.96777999999998
 10
155.32829
 20
191.03610999999998
 10
155.36360000000002
 20
191.10625
 10
155.39542
 20
191.17804999999998
 10
155.42369000000002
 20
191.25132
 10
155.44832000000002
 20
191.32587999999998
 10
155.46927
 20
191.40157
 10
155.48647
 20
191.4782
 10
155.4999
 20
191.55557
 10
155.50951
 20
191.63351
 10
155.51529
 20
191.71183
  0
LWPOLYLINE
  5
4F
330
17
100
AcDbEntity
  8
CUT
100
AcDbPolyline
 90
128
 70
1
 10
155.51722
 20
210.79034
 10
155.51529
 20
210.86884999999998
 10
155.50951
 20
210.94716999999997
 10
155.4999
 20
211.02510999999998
 10
155.48647
 20
211.10247999999999
 10
155.46927
 20
211.17910999999998
 10
155.44832000000002
 20
211.2548
 10
155.42369000000002
 20
211.32935999999998
 10
155.39542
 20
211.40263
 10
155.36360000000002
 20
211.47442999999998
 10
155.32829
 20
211.54457
 10
155.28958
 20
211.6129
 10
155.24757
 20
211.67925
 10
155.20235
 20
211.74345999999997
 10
155.15403
 20
211.80536999999998
 10
155.10274
 20
211.86482999999998
 10
155.04859
 20
211.92171
 10
154.99171
 20
211.97585999999998
 10
154.93224
 20
212.02715999999998
 10
154.87033
 20
212.07547
 10
154.80613
 20
212.12069
 10
154.73978
 20
212.16270999999998
 10
154.67145
 20
212.20140999999998
 10
154.6013
 20
212.23672
 10
154.52951000000002
 20
212.26854999999998
 10
154.45624
 20
212.29681
 10
154.38167
 20
212.32144
 10
154.30598
 20
212.34239
 10
154.22936
 20
212.3596
 10
154.15198
 20
212.37302
 10
154.07404
 20
212.38263999999998
 10
153.99572
 20
212.38841
 10
153.91721
 20
212.39033999999998
 10
153.83871
 20
212.38841
 10
153.76039
 20
212.38263999999998
 10
153.68245000000002
 20
212.37302
 10
153.60507
 20
212.3596
 10
153.52845000000002
 20
212.34239
 10
153.45276
 20
212.32144
 10
153.37819000000002
 20
212.29681
 10
153.30492
 20
212.26854999999998
 10
153.23313000000002
 20
212.23672
 10
153.16298
 20
212.20140999999998
 10
153.09465
 20
212.16270999999998
 10
153.0283
 20
212.12069
 10
152.9641
 20
212.07547
 10
152.90219000000002
 20
212.02715999999998
 10
152.84272
 20
211.97585999999998
 10
152.78584
 20
211.92171
 10
152.73169000000001
 20
211.86482999999998
 10
152.68040000000002
 20
211.80536999999998
 10
152.63208
 20
211.74345999999997
 10
152.58686
 20
211.67925
 10
152.54485
 20
211.6129
 10
152.50614000000002
 20
211.54457
 10
152.47083
 20
211.47442999999998
 10
152.43901
 20
211.40263
 10
152.41074
 20
211.32935999999998
 10
152.38611
 20
211.2548
 10
152.36516
 20
211.17910999999998
 10
152.34796
 20
211.10247999999999
 10
152.33453
 20
211.02510999999998
 10
152.32492000000002
 20
210.94716999999997
 10
152.31914
 20
210.86884999999998
 10
152.31721000000002
 20
210.79034
 10
152.31914
 20
210.71183
 10
152.32492000000002
 20
210.63351
 10
152.33453
 20
210.55557
 10
152.34796
 20
210.4782
 10
152.36516
 20
210.40157
 10
152.38611
 20
210.32587999999998
 10
152.41074
 20
210.25132
 10
152.43901
 20
210.17804999999998
 10
152.47083
 20
210.10625
 10
152.50614000000002
 20
210.03610999999998
 10
152.54485
 20
209.96777999999998
 10
152.58686
 20
209.90142999999998
 10
152.63208
 20
209.83722
 10
152.68040000000002
 20
209.77531
 10
152.73169000000001
 20
209.71585
 10
152.78584
 20
209.65896999999998
 10
152.84272
 20
209.60482
 10
152.90219000000002
 20
209.55352
 10
152.9641
 20
209.50520999999998
 10
153.0283
 20
209.45998999999998
 10
153.09465
 20
209.41797
 10
153.16298
 20
209.37927
 10
153.23313000000002
 20
209.34395999999998
 10
153.30492
 20
209.31213
 10
153.37819000000002
 20
209.28386999999998
 10
153.45276
 20
209.25923999999998
 10
153.52845000000002
 20
209.23828999999998
 10
153.60507
 20
209.22107999999997
 10
153.68245000000002
 20
209.20765999999998
 10
153.76039
 20
209.19804
 10
153.83871
 20
209.19226999999998
 10
153.91721
 20
209.19034
 10
153.99572
 20
209.19226999999998
 10
154.07404
 20
209.19804
 10
154.15198
 20
209.20765999999998
 10
154.22936
 20
209.22107999999997
 10
154.30598
 20
209.23828999999998
 10
154.38167
 20
209.25923999999998
 10
154.45624
 20
209.28386999999998
 10
154.52951000000002
 20
209.31213
 10
154.6013
 20
209.34395999999998
 10
154.67145
 20
209.37927
 10
154.73978
 20
209.41797
 10
154.80613
 20
209.45998999999998
 10
154.87033
 20
209.50520999999998
 10
154.93224
 20
209.55352
 10
154.99171
 20
209.60482
 10
155.04859
 20
209.65896999999998
 10
155.10274
 20
209.71585
 10
155.15403
 20
209.77531
 10
155.20235
 20
209.83722
 10
155.24757
 20
209.90142999999998
 10
155.28958
 20
209.96777999999998
 10
155.32829
 20
210.03610999999998
 10
155.36360000000002
 20
210.10625
 10
155.39542
 20
210.17804999999998
 10
155.42369000000002
 20
210.25132
 10
155.44832000000002
 20
210.32587999999998
 10
155.46927
 20
210.40157
 10
155.48647
 20
210.4782
 10
155.4999
 20
210.55557
 10
155.50951
 20
210.63351
 10
155.51529
 20
210.71183
  0
LWPOLYLINE
  5
50
330
17
100
AcDbEntity
  8
CUT
100
AcDbPolyline
 90
29
 70
1
 10
101.24952
 20
421.20901000000003
 10
97.86593
 20
421.10442
 10
96.7014
 20
421.07620000000003
 10
96.71401
 20
436.25758
 10
95.70533
 20
436.25842
 10
95.70536
 20
436.29467000000005
 10
105.70601
 20
436.27739
 10
121.11783
 20
436.25363000000004
 10
128.11401
 20
436.24076
 10
128.10386
 20
424.01812
 10
134.09699
 20
424.01314
 10
134.09687
 20
423.87202
 10
132.58870000000002
 20
423.69156000000004
 10
131.8201
 20
423.60132000000004
 10
130.31642
 20
423.42841000000004
 10
127.33217
 20
423.09981000000005
 10
124.40491
 20
422.79734
 10
122.97076
 20
422.65666000000004
 10
121.56177
 20
422.52345
 10
118.78576000000001
 20
422.27591
 10
118.0657
 20
422.21499
 10
116.96645000000001
 20
422.12464000000006
 10
115.85115
 20
422.03633
 10
112.82324
 20
421.81405
 10
109.92289000000001
 20
421.62575000000004
 10
108.87133
 20
421.56356000000005
 10
107.83417
 20
421.50537
 10
105.61413
 20
421.39139
 10
103.47771
 20
421.29523
  0
LWPOLYLINE
  5
51
330
17
100
AcDbEntity
  8
CUT
100
AcDbPolyline
 90
50
 70
1
 10
114.40321
 20
429.35991
 10
114.3835
 20
429.67325000000005
 10
114.32467
 20
429.98164
 10
114.22765000000001
 20
430.28022000000004
 10
114.09398
 20
430.5643
 10
113.92575000000001
 20
430.82938
 10
113.72563
 20
431.07128
 10
113.49677
 20
431.2862
 10
113.24278000000001
 20
431.47073
 10
112.96766
 20
431.62198
 10
112.67575000000001
 20
431.73755000000006
 10
112.37166
 20
431.81563000000006
 10
112.06018
 20
431.85498
 10
111.74623
 20
431.85498
 10
111.43476000000001
 20
431.81563000000006
 10
111.13067000000001
 20
431.73755000000006
 10
110.83876000000001
 20
431.62198
 10
110.56364
 20
431.47073
 10
110.30965
 20
431.2862
 10
110.08079000000001
 20
431.07128
 10
109.88067000000001
 20
430.82938
 10
109.71244
 20
430.5643
 10
109.57877
 20
430.28022000000004
 10
109.48175
 20
429.98164
 10
109.42292
 20
429.67325000000005
 10
109.40321
 20
429.35991
 10
109.42292
 20
429.04658
 10
109.48175
 20
428.73819000000003
 10
109.57877
 20
428.43960000000004
 10
109.71244
 20
428.15553000000006
 10
109.88067000000001
 20
427.89045000000004
 10
110.08079000000001
 20
427.64855
 10
110.30965
 20
427.43363000000005
 10
110.56364
 20
427.24909
 10
110.83876000000001
 20
427.09785000000005
 10
111.13067000000001
 20
426.98227
 10
111.43476000000001
 20
426.9042
 10
111.74623
 20
426.86485000000005
 10
112.06018
 20
426.86485000000005
 10
112.37166
 20
426.9042
 10
112.67575000000001
 20
426.98227
 10
112.96766
 20
427.09785000000005
 10
113.24278000000001
 20
427.24909
 10
113.49677
 20
427.43363000000005
 10
113.72563
 20
427.64855
 10
113.92575000000001
 20
427.89045000000004
 10
114.09398
 20
428.15553000000006
 10
114.22765000000001
 20
428.43960000000004
 10
114.32467
 20
428.73819000000003
 10
114.3835
 20
429.04658
  0
LWPOLYLINE
  5
52
330
17
100
AcDbEntity
  8
CUT
100
AcDbPolyline
 90
29
 70
1
 10
146.86937
 20
436.07565000000005
 10
149.00579
 20
435.97948
 10
151.22583
 20
435.86551000000003
 10
152.26299
 20
435.80732
 10
153.31455
 20
435.74513
 10
156.2149
 20
435.55682
 10
159.24281000000002
 20
435.33454
 10
160.35811
 20
435.24623
 10
161.45736
 20
435.15589
 10
162.17742
 20
435.09496
 10
164.95343
 20
434.84743000000003
 10
166.36242000000001
 20
434.71422
 10
167.79657
 20
434.57354000000004
 10
170.72383000000002
 20
434.27106000000003
 10
173.70808
 20
433.94246000000004
 10
175.21176
 20
433.76955000000004
 10
175.98036000000002
 20
433.67932
 10
177.48853
 20
433.49885
 10
177.48865
 20
433.35773
 10
171.49552
 20
433.35275
 10
171.50567
 20
421.13012000000003
 10
164.50949
 20
421.11725
 10
149.09767
 20
421.09348000000006
 10
139.09702000000001
 20
421.07620000000003
 10
139.09699
 20
421.11245
 10
140.10567
 20
421.11329
 10
140.09306
 20
436.29467000000005
 10
141.25759
 20
436.26645
 10
144.64118000000002
 20
436.16186000000005
  0
LWPOLYLINE
  5
53
330
17
100
AcDbEntity
  8
CUT
100
AcDbPolyline
 90
50
 70
1
 10
157.79487
 20
428.01096
 10
157.77516
 20
428.32429
 10
157.71633
 20
428.63268000000005
 10
157.61931
 20
428.93127000000004
 10
157.48564
 20
429.21534
 10
157.31741
 20
429.48042000000004
 10
157.11729
 20
429.72233000000006
 10
156.88843
 20
429.93724000000003
 10
156.63444
 20
430.12178
 10
156.35932
 20
430.27303
 10
156.06741
 20
430.38860000000005
 10
155.76332
 20
430.46668000000005
 10
155.45184
 20
430.50603
 10
155.13789
 20
430.50603
 10
154.82642
 20
430.46668000000005
 10
154.52233
 20
430.38860000000005
 10
154.23042
 20
430.27303
 10
153.9553
 20
430.12178
 10
153.70131
 20
429.93724000000003
 10
153.47245
 20
429.72233000000006
 10
153.27233
 20
429.48042000000004
 10
153.10410000000002
 20
429.21534
 10
152.97043
 20
428.93127000000004
 10
152.87341
 20
428.63268000000005
 10
152.81458
 20
428.32429
 10
152.79487
 20
428.01096
 10
152.81458
 20
427.69763
 10
152.87341
 20
427.38923000000005
 10
152.97043
 20
427.09065000000004
 10
153.10410000000002
 20
426.80658000000005
 10
153.27233
 20
426.54150000000004
 10
153.47245
 20
426.29959
 10
153.70131
 20
426.08468000000005
 10
153.9553
 20
425.90014
 10
154.23042
 20
425.74889
 10
154.52233
 20
425.63332
 10
154.82642
 20
425.55524
 10
155.13789
 20
425.51589
 10
155.45184
 20
425.51589
 10
155.76332
 20
425.55524
 10
156.06741
 20
425.63332
 10
156.35932
 20
425.74889
 10
156.63444
 20
425.90014
 10
156.88843
 20
426.08468000000005
 10
157.11729
 20
426.29959
 10
157.31741
 20
426.54150000000004
 10
157.48564
 20
426.80658000000005
 10
157.61931
 20
427.09065000000004
 10
157.71633
 20
427.38923000000005
 10
157.77516
 20
427.69763
  0
ENDSEC
  0
SECTION
  2
OBJECTS
  0
DICTIONARY
  5
A
330
0
100
AcDbDictionary
281
1
  3
ACAD_COLOR
350
B
  3
ACAD_GROUP
350
C
  3
ACAD_LAYOUT
350
D
  3
ACAD_MATERIAL
350
E
  3
ACAD_MLEADERSTYLE
350
F
  3
ACAD_MLINESTYLE
350
10
  3
ACAD_PLOTSETTINGS
350
11
  3
ACAD_PLOTSTYLENAME
350
12
  3
ACAD_SCALELIST
350
14
  3
ACAD_TABLESTYLE
350
15
  3
ACAD_VISUALSTYLE
350
16
  3
EZDXF_META
350
2D
  0
DICTIONARY
  5
B
330
A
100
AcDbDictionary
281
1
  0
DICTIONARY
  5
C
330
A
100
AcDbDictionary
281
1
  0
DICTIONARY
  5
D
330
A
100
AcDbDictionary
281
1
  3
Model
350
1A
  3
Layout1
350
1E
  0
DICTIONARY
  5
E
330
A
100
AcDbDictionary
281
1
  3
ByBlock
350
1F
  3
ByLayer
350
20
  3
Global
350
21
  0
DICTIONARY
  5
F
330
A
100
AcDbDictionary
281
1
  3
Standard
350
2C
  0
DICTIONARY
  5
10
330
A
100
AcDbDictionary
281
1
  3
Standard
350
22
  0
DICTIONARY
  5
11
330
A
100
AcDbDictionary
281
1
  0
ACDBDICTIONARYWDFLT
  5
12
330
A
100
AcDbDictionary
281
1
  3
Normal
350
13
100
AcDbDictionaryWithDefault
340
13
  0
ACDBPLACEHOLDER
  5
13
330
12
  0
DICTIONARY
  5
14
330
A
100
AcDbDictionary
281
1
  0
DICTIONARY
  5
15
330
A
100
AcDbDictionary
281
1
  0
DICTIONARY
  5
16
330
A
100
AcDbDictionary
281
1
  0
LAYOUT
  5
1A
330
D
100
AcDbPlotSettings
  1

  4
A3
  6

 40
7.5
 41
20.0
 42
7.5
 43
20.0
 44
420.0
 45
297.0
 46
0.0
 47
0.0
 48
0.0
 49
0.0
140
0.0
141
0.0
142
1.0
143
1.0
 70
1024
 72
1
 73
0
 74
5
  7

 75
16
 76
0
 77
2
 78
300
147
1.0
148
0.0
149
0.0
100
AcDbLayout
  1
Model
 70
1
 71
0
 10
0.0
 20
0.0
 11
420.0
 21
297.0
 12
0.0
 22
0.0
 32
0.0
 14
1e+20
 24
1e+20
 34
1e+20
 15
-1e+20
 25
-1e+20
 35
-1e+20
146
0.0
 13
0.0
 23
0.0
 33
0.0
 16
1.0
 26
0.0
 36
0.0
 17
0.0
 27
1.0
 37
0.0
 76
1
330
17
  0
LAYOUT
  5
1E
330
D
100
AcDbPlotSettings
  1

  4
A3
  6

 40
7.5
 41
20.0
 42
7.5
 43
20.0
 44
420.0
 45
297.0
 46
0.0
 47
0.0
 48
0.0
 49
0.0
140
0.0
141
0.0
142
1.0
143
1.0
 70
0
 72
1
 73
0
 74
5
  7

 75
16
 76
0
 77
2
 78
300
147
1.0
148
0.0
149
0.0
100
AcDbLayout
  1
Layout1
 70
1
 71
1
 10
0.0
 20
0.0
 11
420.0
 21
297.0
 12
0.0
 22
0.0
 32
0.0
 14
1e+20
 24
1e+20
 34
1e+20
 15
-1e+20
 25
-1e+20
 35
-1e+20
146
0.0
 13
0.0
 23
0.0
 33
0.0
 16
1.0
 26
0.0
 36
0.0
 17
0.0
 27
1.0
 37
0.0
 76
1
330
1B
  0
MATERIAL
  5
1F
102
{ACAD_REACTORS
330
E
102
}
330
E
100
AcDbMaterial
  1
ByBlock
  2

 70
0
 40
1.0
 71
1
 41
1.0
 91
-1023410177
 42
1.0
 72
1
  3

 73
1
 74
1
 75
1
 44
0.5
 73
0
 45
1.0
 46
1.0
 77
1
  4

 78
1
 79
1
170
1
 48
1.0
171
1
  6

172
1
173
1
174
1
140
1.0
141
1.0
175
1
  7

176
1
177
1
178
1
143
1.0
179
1
  8

270
1
271
1
272
1
145
1.0
146
1.0
273
1
  9

274
1
275
1
276
1
 42
1.0
 72
1
  3

 73
1
 74
1
 75
1
 94
63
  0
MATERIAL
  5
20
102
{ACAD_REACTORS
330
E
102
}
330
E
100
AcDbMaterial
  1
ByLayer
  2

 70
0
 40
1.0
 71
1
 41
1.0
 91
-1023410177
 42
1.0
 72
1
  3

 73
1
 74
1
 75
1
 44
0.5
 73
0
 45
1.0
 46
1.0
 77
1
  4

 78
1
 79
1
170
1
 48
1.0
171
1
  6

172
1
173
1
174
1
140
1.0
141
1.0
175
1
  7

176
1
177
1
178
1
143
1.0
179
1
  8

270
1
271
1
272
1
145
1.0
146
1.0
273
1
  9

274
1
275
1
276
1
 42
1.0
 72
1
  3

 73
1
 74
1
 75
1
 94
63
  0
MATERIAL
  5
21
102
{ACAD_REACTORS
330
E
102
}
330
E
100
AcDbMaterial
  1
Global
  2

 70
0
 40
1.0
 71
1
 41
1.0
 91
-1023410177
 42
1.0
 72
1
  3

 73
1
 74
1
 75
1
 44
0.5
 73
0
 45
1.0
 46
1.0
 77
1
  4

 78
1
 79
1
170
1
 48
1.0
171
1
  6

172
1
173
1
174
1
140
1.0
141
1.0
175
1
  7

176
1
177
1
178
1
143
1.0
179
1
  8

270
1
271
1
272
1
145
1.0
146
1.0
273
1
  9

274
1
275
1
276
1
 42
1.0
 72
1
  3

 73
1
 74
1
 75
1
 94
63
  0
MLINESTYLE
  5
22
102
{ACAD_REACTORS
330
10
102
}
330
10
100
AcDbMlineStyle
  2
Standard
 70
0
  3

 62
256
 51
90.0
 52
90.0
 71
2
 49
0.5
 62
256
  6
BYLAYER
 49
-0.5
 62
256
  6
BYLAYER
  0
MLEADERSTYLE
  5
2C
102
{ACAD_REACTORS
330
F
102
}
330
F
100
AcDbMLeaderStyle
179
2
170
2
171
1
172
0
 90
2
 40
0.0
 41
0.0
173
1
 91
-1056964608
 92
-2
290
1
 42
2.0
291
1
 43
8.0
  3
Standard
 44
4.0
300

342
29
174
1
175
1
176
0
178
1
 93
-1056964608
 45
4.0
292
0
297
0
 46
4.0
 94
-1056964608
 47
1.0
 49
1.0
140
1.0
294
1
141
0.0
177
0
142
1.0
295
0
296
0
143
3.75
271
0
272
9
273
9
  0
DICTIONARY
  5
2D
330
A
100
AcDbDictionary
280
1
281
1
  3
CREATED_BY_EZDXF
350
2E
  3
WRITTEN_BY_EZDXF
350
56
  0
DICTIONARYVAR
  5
2E
330
2D
100
DictionaryVariables
280
0
  1
1.4.4 @ 2026-09-24T13:29:48.896518+00:00
  0
DICTIONARYVAR
  5
56
330
2D
100
DictionaryVariables
280
0
  1
1.4.4 @ 2026-09-24T13:29:49.019329+00:00
  0
ENDSEC
  0
EOF
