  0
SECTION
  2
HEADER
  9
$ACADVER
  1
AC1024
  9
$ACADMAINTVER
 70
6
  9
$DWGCODEPAGE
  3
ANSI_1252
  9
$LASTSAVEDBY
  1
ezdxf
  9
$INSBASE
 10
0.0
 20
0.0
 30
0.0
  9
$EXTMIN
 10
1e+20
 20
1e+20
 30
1e+20
  9
$EXTMAX
 10
-1e+20
 20
-1e+20
 30
-1e+20
  9
$LIMMIN
 10
0.0
 20
0.0
  9
$LIMMAX
 10
420.0
 20
297.0
  9
$ORTHOMODE
 70
0
  9
$REGENMODE
 70
1
  9
$FILLMODE
 70
1
  9
$QTEXTMODE
 70
0
  9
$MIRRTEXT
 70
1
  9
$LTSCALE
 40
1.0
  9
$ATTMODE
 70
1
  9
$TEXTSIZE
 40
2.5
  9
$TRACEWID
 40
1.0
  9
$TEXTSTYLE
  7
Standard
  9
$CLAYER
  8
0
  9
$CELTYPE
  6
ByLayer
  9
$CECOLOR
 62
256
  9
$CELTSCALE
 40
1.0
  9
$DISPSILH
 70
0
  9
$DIMSCALE
 40
1.0
  9
$DIMASZ
 40
2.5
  9
$DIMEXO
 40
0.625
  9
$DIMDLI
 40
3.75
  9
$DIMRND
 40
0.0
  9
$DIMDLE
 40
0.0
  9
$DIMEXE
 40
1.25
  9
$DIMTP
 40
0.0
  9
$DIMTM
 40
0.0
  9
$DIMTXT
 40
2.5
  9
$DIMCEN
 40
2.5
  9
$DIMTSZ
 40
0.0
  9
$DIMTOL
 70
0
  9
$DIMLIM
 70
0
  9
$DIMTIH
 70
0
  9
$DIMTOH
 70
0
  9
$DIMSE1
 70
0
  9
$DIMSE2
 70
0
  9
$DIMTAD
 70
1
  9
$DIMZIN
 70
8
  9
$DIMBLK
  1

  9
$DIMASO
 70
1
  9
$DIMSHO
 70
1
  9
$DIMPOST
  1

  9
$DIMAPOST
  1

  9
$DIMALT
 70
0
  9
$DIMALTD
 70
3
  9
$DIMALTF
 40
0.03937007874
  9
$DIMLFAC
 40
1.0
  9
$DIMTOFL
 70
1
  9
$DIMTVP
 40
0.0
  9
$DIMTIX
 70
0
  9
$DIMSOXD
 70
0
  9
$DIMSAH
 70
0
  9
$DIMBLK1
  1

  9
$DIMBLK2
  1

  9
$DIMSTYLE
  2
ISO-25
  9
$DIMCLRD
 70
0
  9
$DIMCLRE
 70
0
  9
$DIMCLRT
 70
0
  9
$DIMTFAC
 40
1.0
  9
$DIMGAP
 40
0.625
  9
$DIMJUST
 70
0
  9
$DIMSD1
 70
0
  9
$DIMSD2
 70
0
  9
$DIMTOLJ
 70
0
  9
$DIMTZIN
 70
8
  9
$DIMALTZ
 70
0
  9
$DIMALTTZ
 70
0
  9
$DIMUPT
 70
0
  9
$DIMDEC
 70
2
  9
$DIMTDEC
 70
2
  9
$DIMALTU
 70
2
  9
$DIMALTTD
 70
3
  9
$DIMTXSTY
  7
Standard
  9
$DIMAUNIT
 70
0
  9
$DIMADEC
 70
0
  9
$DIMALTRND
 40
0.0
  9
$DIMAZIN
 70
0
  9
$DIMDSEP
 70
44
  9
$DIMATFIT
 70
3
  9
$DIMFRAC
 70
0
  9
$DIMLDRBLK
  1

  9
$DIMLUNIT
 70
2
  9
$DIMLWD
 70
-2
  9
$DIMLWE
 70
-2
  9
$DIMTMOVE
 70
0
  9
$DIMFXL
 40
1.0
  9
$DIMFXLON
 70
0
  9
$DIMJOGANG
 40
0.785398163397
  9
$DIMTFILL
 70
0
  9
$DIMTFILLCLR
 70
0
  9
$DIMARCSYM
 70
0
  9
$DIMLTYPE
  6

  9
$DIMLTEX1
  6

  9
$DIMLTEX2
  6

  9
$DIMTXTDIRECTION
 70
0
  9
$LUNITS
 70
2
  9
$LUPREC
 70
4
  9
$SKETCHINC
 40
1.0
  9
$FILLETRAD
 40
10.0
  9
$AUNITS
 70
0
  9
$AUPREC
 70
2
  9
$MENU
  1
.
  9
$ELEVATION
 40
0.0
  9
$PELEVATION
 40
0.0
  9
$THICKNESS
 40
0.0
  9
$LIMCHECK
 70
0
  9
$CHAMFERA
 40
0.0
  9
$CHAMFERB
 40
0.0
  9
$CHAMFERC
 40
0.0
  9
$CHAMFERD
 40
0.0
  9
$SKPOLY
 70
0
  9
$TDCREATE
 40
2461308.791527778
  9
$TDUCREATE
 40
2458532.153996898
  9
$TDUPDATE
 40
2461308.791527778
  9
$TDUUPDATE
 40
2458532.1544311
  9
$TDINDWG
 40
0.0
  9
$TDUSRTIMER
 40
0.0
  9
$USRTIMER
 70
1
  9
$ANGBASE
 50
0.0
  9
$ANGDIR
 70
0
  9
$PDMODE
 70
0
  9
$PDSIZE
 40
0.0
  9
$PLINEWID
 40
0.0
  9
$SPLFRAME
 70
0
  9
$SPLINETYPE
 70
6
  9
$SPLINESEGS
 70
8
  9
$HANDSEED
  5
68
  9
$SURFTAB1
 70
6
  9
$SURFTAB2
 70
6
  9
$SURFTYPE
 70
6
  9
$SURFU
 70
6
  9
$SURFV
 70
6
  9
$UCSBASE
  2

  9
$UCSNAME
  2

  9
$UCSORG
 10
0.0
 20
0.0
 30
0.0
  9
$UCSXDIR
 10
1.0
 20
0.0
 30
0.0
  9
$UCSYDIR
 10
0.0
 20
1.0
 30
0.0
  9
$UCSORTHOREF
  2

  9
$UCSORTHOVIEW
 70
0
  9
$UCSORGTOP
 10
0.0
 20
0.0
 30
0.0
  9
$UCSORGBOTTOM
 10
0.0
 20
0.0
 30
0.0
  9
$UCSORGLEFT
 10
0.0
 20
0.0
 30
0.0
  9
$UCSORGRIGHT
 10
0.0
 20
0.0
 30
0.0
  9
$UCSORGFRONT
 10
0.0
 20
0.0
 30
0.0
  9
$UCSORGBACK
 10
0.0
 20
0.0
 30
0.0
  9
$PUCSBASE
  2

  9
$PUCSNAME
  2

  9
$PUCSORG
 10
0.0
 20
0.0
 30
0.0
  9
$PUCSXDIR
 10
1.0
 20
0.0
 30
0.0
  9
$PUCSYDIR
 10
0.0
 20
1.0
 30
0.0
  9
$PUCSORTHOREF
  2

  9
$PUCSORTHOVIEW
 70
0
  9
$PUCSORGTOP
 10
0.0
 20
0.0
 30
0.0
  9
$PUCSORGBOTTOM
 10
0.0
 20
0.0
 30
0.0
  9
$PUCSORGLEFT
 10
0.0
 20
0.0
 30
0.0
  9
$PUCSORGRIGHT
 10
0.0
 20
0.0
 30
0.0
  9
$PUCSORGFRONT
 10
0.0
 20
0.0
 30
0.0
  9
$PUCSORGBACK
 10
0.0
 20
0.0
 30
0.0
  9
$USERI1
 70
0
  9
$USERI2
 70
0
  9
$USERI3
 70
0
  9
$USERI4
 70
0
  9
$USERI5
 70
0
  9
$USERR1
 40
0.0
  9
$USERR2
 40
0.0
  9
$USERR3
 40
0.0
  9
$USERR4
 40
0.0
  9
$USERR5
 40
0.0
  9
$WORLDVIEW
 70
1
  9
$SHADEDGE
 70
3
  9
$SHADEDIF
 70
70
  9
$TILEMODE
 70
1
  9
$MAXACTVP
 70
64
  9
$PINSBASE
 10
0.0
 20
0.0
 30
0.0
  9
$PLIMCHECK
 70
0
  9
$PEXTMIN
 10
1e+20
 20
1e+20
 30
1e+20
  9
$PEXTMAX
 10
-1e+20
 20
-1e+20
 30
-1e+20
  9
$PLIMMIN
 10
0.0
 20
0.0
  9
$PLIMMAX
 10
420.0
 20
297.0
  9
$UNITMODE
 70
0
  9
$VISRETAIN
 70
1
  9
$PLINEGEN
 70
0
  9
$PSLTSCALE
 70
1
  9
$TREEDEPTH
 70
3020
  9
$CMLSTYLE
  2
Standard
  9
$CMLJUST
 70
0
  9
$CMLSCALE
 40
20.0
  9
$PROXYGRAPHICS
 70
1
  9
$MEASUREMENT
 70
1
  9
$CELWEIGHT
370
-1
  9
$ENDCAPS
280
0
  9
$JOINSTYLE
280
0
  9
$LWDISPLAY
290
0
  9
$INSUNITS
 70
4
  9
$HYPERLINKBASE
  1

  9
$STYLESHEET
  1

  9
$XEDIT
290
1
  9
$CEPSNTYPE
380
0
  9
$PSTYLEMODE
290
1
  9
$FINGERPRINTGUID
  2
{01C6A8E6-6393-4B61-B473-839E3A0C90BD}
  9
$VERSIONGUID
  2
{BF866BCB-C018-4032-9590-A4C1366A8F04}
  9
$EXTNAMES
290
1
  9
$PSVPSCALE
 40
0.0
  9
$OLESTARTUP
290
0
  9
$SORTENTS
280
127
  9
$INDEXCTL
280
0
  9
$HIDETEXT
280
1
  9
$XCLIPFRAME
280
1
  9
$HALOGAP
280
0
  9
$OBSCOLOR
 70
257
  9
$OBSLTYPE
280
0
  9
$INTERSECTIONDISPLAY
280
0
  9
$INTERSECTIONCOLOR
 70
257
  9
$DIMASSOC
280
2
  9
$PROJECTNAME
  1

  9
$CAMERADISPLAY
290
0
  9
$LENSLENGTH
 40
50.0
  9
$CAMERAHEIGHT
 40
0.0
  9
$STEPSPERSEC
 40
24.0
  9
$STEPSIZE
 40
100.0
  9
$3DDWFPREC
 40
2.0
  9
$PSOLWIDTH
 40
0.005
  9
$PSOLHEIGHT
 40
0.08
  9
$LOFTANG1
 40
1.570796326795
  9
$LOFTANG2
 40
1.570796326795
  9
$LOFTMAG1
 40
0.0
  9
$LOFTMAG2
 40
0.0
  9
$LOFTPARAM
 70
7
  9
$LOFTNORMALS
280
1
  9
$LATITUDE
 40
37.795
  9
$LONGITUDE
 40
-122.394
  9
$NORTHDIRECTION
 40
0.0
  9
$TIMEZONE
 70
-8000
  9
$LIGHTGLYPHDISPLAY
280
1
  9
$TILEMODELIGHTSYNCH
280
1
  9
$CMATERIAL
347
20
  9
$SOLIDHIST
280
0
  9
$SHOWHIST
280
1
  9
$DWFFRAME
280
2
  9
$DGNFRAME
280
2
  9
$REALWORLDSCALE
290
1
  9
$INTERFERECOLOR
 62
256
  9
$CSHADOW
280
0
  9
$SHADOWPLANELOCATION
 40
0.0
  0
ENDSEC
  0
SECTION
  2
CLASSES
  0
CLASS
  1
ACDBDICTIONARYWDFLT
  2
AcDbDictionaryWithDefault
  3
ObjectDBX Classes
 90
0
 91
0
280
0
281
0
  0
CLASS
  1
SUN
  2
AcDbSun
  3
SCENEOE
 90
1153
 91
0
280
0
281
0
  0
CLASS
  1
VISUALSTYLE
  2
AcDbVisualStyle
  3
ObjectDBX Classes
 90
4095
 91
0
280
0
281
0
  0
CLASS
  1
MATERIAL
  2
AcDbMaterial
  3
ObjectDBX Classes
 90
1153
 91
0
280
0
281
0
  0
CLASS
  1
SCALE
  2
AcDbScale
  3
ObjectDBX Classes
 90
1153
 91
0
280
0
281
0
  0
CLASS
  1
TABLESTYLE
  2
AcDbTableStyle
  3
ObjectDBX Classes
 90
4095
 91
0
280
0
281
0
  0
CLASS
  1
MLEADERSTYLE
  2
AcDbMLeaderStyle
  3
ACDB_MLEADERSTYLE_CLASS
 90
4095
 91
0
280
0
281
0
  0
CLASS
  1
DICTIONARYVAR
  2
AcDbDictionaryVar
  3
ObjectDBX Classes
 90
0
 91
0
280
0
281
0
  0
CLASS
  1
CELLSTYLEMAP
  2
AcDbCellStyleMap
  3
ObjectDBX Classes
 90
1152
 91
0
280
0
281
0
  0
CLASS
  1
MENTALRAYRENDERSETTINGS
  2
AcDbMentalRayRenderSettings
  3
SCENEOE
 90
1024
 91
0
280
0
281
0
  0
CLASS
  1
ACDBDETAILVIEWSTYLE
  2
AcDbDetailViewStyle
  3
ObjectDBX Classes
 90
1025
 91
0
280
0
281
0
  0
CLASS
  1
ACDBSECTIONVIEWSTYLE
  2
AcDbSectionViewStyle
  3
ObjectDBX Classes
 90
1025
 91
0
280
0
281
0
  0
CLASS
  1
RASTERVARIABLES
  2
AcDbRasterVariables
  3
ISM
 90
0
 91
0
280
0
281
0
  0
CLASS
  1
LAYOUT
  2
AcDbLayout
  3
ObjectDBX Classes
 90
0
 91
0
280
0
281
0
  0
CLASS
  1
ACDBPLACEHOLDER
  2
AcDbPlaceHolder
  3
ObjectDBX Classes
 90
0
 91
0
280
0
281
0
  0
ENDSEC
  0
SECTION
  2
TABLES
  0
TABLE
  2
VPORT
  5
8
330
0
100
AcDbSymbolTable
 70
1
  0
VPORT
  5
23
330
8
100
AcDbSymbolTableRecord
100
AcDbViewportTableRecord
  2
*Active
 70
0
 10
0.0
 20
0.0
 11
1.0
 21
1.0
 12
0.0
 22
0.0
 13
0.0
 23
0.0
 14
0.5
 24
0.5
 15
0.5
 25
0.5
 16
0.0
 26
0.0
 36
1.0
 17
0.0
 27
0.0
 37
0.0
 40
1000.0
 41
1.34
 42
50.0
 43
0.0
 44
0.0
 50
0.0
 51
0.0
 71
0
 72
1000
 73
1
 74
3
 75
0
 76
0
 77
0
 78
0
281
0
 65
0
146
0.0
  0
ENDTAB
  0
TABLE
  2
LTYPE
  5
2
330
0
100
AcDbSymbolTable
 70
3
  0
LTYPE
  5
24
330
2
100
AcDbSymbolTableRecord
100
AcDbLinetypeTableRecord
  2
ByBlock
 70
0
  3

 72
65
 73
0
 40
0.0
  0
LTYPE
  5
25
330
2
100
AcDbSymbolTableRecord
100
AcDbLinetypeTableRecord
  2
ByLayer
 70
0
  3

 72
65
 73
0
 40
0.0
  0
LTYPE
  5
26
330
2
100
AcDbSymbolTableRecord
100
AcDbLinetypeTableRecord
  2
Continuous
 70
0
  3

 72
65
 73
0
 40
0.0
  0
ENDTAB
  0
TABLE
  2
LAYER
  5
1
330
0
100
AcDbSymbolTable
 70
3
  0
LAYER
  5
27
330
1
100
AcDbSymbolTableRecord
100
AcDbLayerTableRecord
  2
0
 70
0
 62
7
  6
Continuous
370
-3
390
13
347
21
  0
LAYER
  5
28
330
1
100
AcDbSymbolTableRecord
100
AcDbLayerTableRecord
  2
Defpoints
 70
0
 62
7
  6
Continuous
290
0
370
-3
390
13
347
21
  0
LAYER
  5
2F
330
1
100
AcDbSymbolTableRecord
100
AcDbLayerTableRecord
  2
CUT
 70
0
 62
7
  6
Continuous
370
-3
390
13
347
21
  0
ENDTAB
  0
TABLE
  2
STYLE
  5
5
330
0
100
AcDbSymbolTable
 70
1
  0
STYLE
  5
29
330
5
100
AcDbSymbolTableRecord
100
AcDbTextStyleTableRecord
  2
Standard
 70
0
 40
0.0
 41
1.0
 50
0.0
 71
0
 42
2.5
  3
txt
  4

  0
ENDTAB
  0
TABLE
  2
VIEW
  5
7
330
0
100
AcDbSymbolTable
 70
0
  0
ENDTAB
  0
TABLE
  2
UCS
  5
6
330
0
100
AcDbSymbolTable
 70
0
  0
ENDTAB
  0
TABLE
  2
APPID
  5
3
330
0
100
AcDbSymbolTable
 70
3
  0
APPID
  5
2A
330
3
100
AcDbSymbolTableRecord
100
AcDbRegAppTableRecord
  2
ACAD
 70
0
  0
APPID
  5
65
330
3
100
AcDbSymbolTableRecord
100
AcDbRegAppTableRecord
  2
HATCHBACKGROUNDCOLOR
 70
0
  0
APPID
  5
66
330
3
100
AcDbSymbolTableRecord
100
AcDbRegAppTableRecord
  2
EZDXF
 70
0
  0
ENDTAB
  0
TABLE
  2
DIMSTYLE
  5
4
330
0
100
AcDbSymbolTable
 70
1
100
AcDbDimStyleTable
  0
DIMSTYLE
105
2B
330
4
100
AcDbSymbolTableRecord
100
AcDbDimStyleTableRecord
  2
Standard
 70
0
 40
1.0
 41
2.5
 42
0.625
 43
3.75
 44
1.25
 45
0.0
 46
0.0
 47
0.0
 48
0.0
 49
2.5
140
2.5
141
2.5
142
0.0
143
0.03937007874
144
1.0
145
0.0
146
1.0
147
0.625
148
0.0
 69
0
 70
0
 71
0
 72
0
 73
0
 74
0
 75
0
 76
0
 77
1
 78
8
 79
3
170
0
171
3
172
1
173
0
174
0
175
0
176
0
177
0
178
0
179
2
271
2
272
2
273
2
274
3
275
0
276
0
277
2
278
44
279
0
280
0
281
0
282
0
283
0
284
8
285
0
286
0
288
0
289
3
290
0
371
-2
372
-2
  0
ENDTAB
  0
TABLE
  2
BLOCK_RECORD
  5
9
330
0
100
AcDbSymbolTable
 70
2
  0
BLOCK_RECORD
  5
17
330
9
100
AcDbSymbolTableRecord
100
AcDbBlockTableRecord
  2
*Model_Space
340
1A
 70
0
280
1
281
0
  0
BLOCK_RECORD
  5
1B
330
9
100
AcDbSymbolTableRecord
100
AcDbBlockTableRecord
  2
*Paper_Space
340
1E
 70
0
280
1
281
0
  0
ENDTAB
  0
ENDSEC
  0
SECTION
  2
BLOCKS
  0
BLOCK
  5
18
330
17
100
AcDbEntity
  8
0
100
AcDbBlockBegin
  2
*Model_Space
 70
0
 10
0.0
 20
0.0
 30
0.0
  3
*Model_Space
  1

  0
ENDBLK
  5
19
330
17
100
AcDbEntity
  8
0
100
AcDbBlockEnd
  0
BLOCK
  5
1C
330
1B
100
AcDbEntity
  8
0
100
AcDbBlockBegin
  2
*Paper_Space
 70
0
 10
0.0
 20
0.0
 30
0.0
  3
*Paper_Space
  1

  0
ENDBLK
  5
1D
330
1B
100
AcDbEntity
  8
0
100
AcDbBlockEnd
  0
ENDSEC
  0
SECTION
  2
ENTITIES
  0
LWPOLYLINE
  5
30
330
17
100
AcDbEntity
  8
CUT
100
AcDbPolyline
 90
318
 70
1
 10
34.74066
 20
63.31065
 10
35.25984
 20
62.69449
 10
35.79164
 20
62.08281
 10
36.335750000000004
 20
61.47575
 10
36.89186
 20
60.87345
 10
37.45967
 20
60.27604
 10
38.03885
 20
59.68367
 10
38.62911
 20
59.09648
 10
39.23012
 20
58.51461
 10
39.84152
 20
57.93824
 10
40.46292
 20
57.36752
 10
41.094049999999996
 20
56.80248
 10
41.73462
 20
56.24318
 10
42.38436
 20
55.68964
 10
43.04298
 20
55.14194
 10
44.38574
 20
54.06417
 10
45.75954
 20
53.01106
 10
47.16135
 20
51.983509999999995
 10
48.58943
 20
50.98143
 10
50.04205
 20
50.00471
 10
51.517070000000004
 20
49.0535
 10
53.01246
 20
48.12781
 10
54.52664
 20
47.227360000000004
 10
56.05799
 20
46.35189
 10
57.60358
 20
45.5019
 10
59.16084
 20
44.677859999999995
 10
60.72874
 20
43.87938
 10
62.30626
 20
43.10606
 10
63.89236
 20
42.35753
 10
65.48601
 20
41.63339
 10
67.08619
 20
40.933260000000004
 10
68.69187
 20
40.25675
 10
70.30081
 20
39.60398
 10
71.91107
 20
38.9751
 10
73.52206000000001
 20
38.369749999999996
 10
75.13315
 20
37.78757
 10
76.74377
 20
37.2282
 10
78.35329
 20
36.691289999999995
 10
79.96113
 20
36.17648
 10
81.56667999999999
 20
35.68341
 10
83.16839
 20
35.21203
 10
84.76488
 20
34.762370000000004
 10
86.35577
 20
34.33416
 10
87.94068
 20
33.92716
 10
89.51926
 20
33.54111
 10
91.09111
 20
33.17576
 10
92.65588
 20
32.83085
 10
94.21318
 20
32.506119999999996
 10
95.76175
 20
32.20154
 10
97.30041
 20
31.91714
 10
98.82891
 20
31.65277
 10
100.34701
 20
31.40831
 10
101.85446
 20
31.18361
 10
103.35101
 20
30.97855
 10
104.83641
 20
30.79298
 10
106.31041
 20
30.62677
 10
107.77152
 20
30.47994
 10
109.21817
 20
30.352629999999998
 10
110.65008
 20
30.244880000000002
 10
112.06696
 20
30.1567
 10
113.4685
 20
30.08813
 10
114.85444
 20
30.039160000000003
 10
116.22449
 20
30.009790000000002
 10
117.57838
 20
30.0
 10
318.0102
 20
30.0
 10
325.0102
 20
35.82223
 10
325.0102
 20
30.00001
 10
443.0102
 20
30.0
 10
450.0102
 20
35.82223
 10
450.0102
 20
30.0
 10
570.6602
 20
30.0
 10
570.6602
 20
20.0
 10
540.6602
 20
20.0
 10
540.6602
 20
24.82219
 10
495.60454
 20
24.82219
 10
495.60454
 20
20.0
 10
117.57838
 20
20.0
 10
116.50375
 20
20.00559
 10
115.41311
 20
20.02251
 10
114.30767
 20
20.05098
 10
113.19228
 20
20.09098
 10
112.06642
 20
20.14261
 10
111.51167
 20
20.17213
 10
109.96396
 20
20.26844
 10
108.40428
 20
20.3858
 10
106.83288
 20
20.52409
 10
105.24999
 20
20.68315
 10
103.65626
 20
20.86286
 10
102.05234
 20
21.06322
 10
100.43846
 20
21.28436
 10
98.81484
 20
21.52637
 10
97.18172
 20
21.78935
 10
95.53932
 20
22.07342
 10
93.88787
 20
22.37868
 10
92.22761
 20
22.70523
 10
90.55908
 20
23.05315
 10
88.88294
 20
23.4226
 10
87.19958
 20
23.81387
 10
85.50935
 20
24.22723
 10
83.81264999999999
 20
24.66293
 10
82.10983999999999
 20
25.12127
 10
80.40129999999999
 20
25.60249
 10
78.68741
 20
26.10688
 10
76.96891
 20
26.63464
 10
75.24672000000001
 20
27.18606
 10
73.52145999999999
 20
27.76157
 10
71.79375999999999
 20
28.3616
 10
70.06425999999999
 20
28.98657
 10
68.33358
 20
29.63691
 10
66.60236
 20
30.31304
 10
64.87122
 20
31.01539
 10
63.14129
 20
31.744239999999998
 10
61.41402
 20
32.49995
 10
59.6905
 20
33.28307
 10
57.97183
 20
34.09417
 10
56.25911
 20
34.93378
 10
54.55343
 20
35.80247
 10
52.85589
 20
36.70078
 10
51.16758
 20
37.62928
 10
49.490179999999995
 20
38.58825
 10
47.825810000000004
 20
39.578019999999995
 10
46.17619
 20
40.599199999999996
 10
44.54306
 20
41.6524
 10
42.92832
 20
42.73813
 10
41.334050000000005
 20
43.85683
 10
40.54521
 20
44.428709999999995
 10
39.76223
 20
45.009029999999996
 10
38.98535
 20
45.59786
 10
38.21482
 20
46.19525
 10
37.45101
 20
46.8012
 10
36.69433
 20
47.41567
 10
35.94512
 20
48.038709999999995
 10
35.2037
 20
48.670339999999996
 10
34.47041
 20
49.31061
 10
33.74559
 20
49.95955
 10
33.02957
 20
50.61721
 10
32.32267
 20
51.28363
 10
31.62527
 20
51.9588
 10
30.93778
 20
52.64269
 10
30.26059
 20
53.33526
 10
29.59411
 20
54.03649
 10
28.93871
 20
54.74635
 10
28.294800000000002
 20
55.4648
 10
27.662770000000002
 20
56.19181
 10
27.04302
 20
56.92736
 10
26.43593
 20
57.67142
 10
25.841920000000002
 20
58.42386
 10
25.26146
 20
59.18455
 10
24.69499
 20
59.9533
 10
24.142960000000002
 20
60.72999
 10
23.605809999999998
 20
61.51443
 10
23.084
 20
62.30649
 10
22.57797
 20
63.106
 10
21.88168
 20
64.26347
 10
21.21911
 20
65.43601000000001
 10
20.59148
 20
66.6226
 10
20.0
 20
67.82222
 10
20.59148
 20
69.02185
 10
21.21911
 20
70.20844
 10
21.88168
 20
71.38098
 10
22.57797
 20
72.53845
 10
23.084
 20
73.33796000000001
 10
23.605809999999998
 20
74.13002
 10
24.142960000000002
 20
74.91445999999999
 10
24.69499
 20
75.69113999999999
 10
25.26146
 20
76.4599
 10
25.841920000000002
 20
77.22058
 10
26.43593
 20
77.97303
 10
27.04302
 20
78.71709
 10
27.662770000000002
 20
79.45264
 10
28.294800000000002
 20
80.17965000000001
 10
28.93871
 20
80.8981
 10
29.59411
 20
81.60795999999999
 10
30.26059
 20
82.30919
 10
30.93778
 20
83.00175999999999
 10
31.62527
 20
83.68565000000001
 10
32.32267
 20
84.36082
 10
33.02957
 20
85.02723
 10
33.74559
 20
85.6849
 10
34.47041
 20
86.33384
 10
35.2037
 20
86.97411
 10
35.94512
 20
87.60574
 10
36.69433
 20
88.22878
 10
37.45101
 20
88.84325
 10
38.21482
 20
89.4492
 10
38.98535
 20
90.04659
 10
39.76223
 20
90.63542
 10
40.54521
 20
91.21574
 10
41.334050000000005
 20
91.78762
 10
42.92832
 20
92.90632
 10
44.54306
 20
93.99205
 10
46.17619
 20
95.04525
 10
47.825810000000004
 20
96.06643
 10
49.490179999999995
 20
97.0562
 10
51.16758
 20
98.01517
 10
52.85589
 20
98.94367
 10
54.55343
 20
99.84198
 10
56.25911
 20
100.71067
 10
57.97183
 20
101.55028
 10
59.6905
 20
102.36138
 10
61.41402
 20
103.1445
 10
63.14129
 20
103.90021
 10
64.87122
 20
104.62906
 10
66.60236
 20
105.33141
 10
68.33358
 20
106.00754
 10
70.06425999999999
 20
106.65788
 10
71.79375999999999
 20
107.28285
 10
73.52145999999999
 20
107.88288
 10
75.24672000000001
 20
108.45839
 10
76.96891
 20
109.00981
 10
78.68741
 20
109.53757
 10
80.40129999999999
 20
110.04196
 10
82.10983999999999
 20
110.52318
 10
83.81264999999999
 20
110.98151
 10
85.50935
 20
111.41722
 10
87.19958
 20
111.83058
 10
88.88294
 20
112.22185
 10
90.55908
 20
112.5913
 10
92.22761
 20
112.93922
 10
93.88787
 20
113.26577
 10
95.53932
 20
113.57103
 10
97.18172
 20
113.85509
 10
98.81484
 20
114.11808
 10
100.43846
 20
114.36009
 10
102.05234
 20
114.58123
 10
103.65626
 20
114.78159
 10
105.24999
 20
114.9613
 10
106.83288
 20
115.12036
 10
108.40428
 20
115.25864
 10
109.96396
 20
115.37601
 10
111.51167
 20
115.47232
 10
112.82571
 20
115.53788
 10
114.12226
 20
115.5876
 10
115.41055
 20
115.62188
 10
116.68648
 20
115.6406
 10
117.57838
 20
115.64445
 10
495.60454
 20
115.64445
 10
495.60454
 20
110.82223
 10
540.6602
 20
110.82223
 10
540.6602
 20
115.64445
 10
570.6602
 20
115.64445
 10
570.6602
 20
105.64445
 10
450.0102
 20
105.64445
 10
450.0102
 20
99.82223
 10
443.0102
 20
105.64445
 10
325.0102
 20
105.64445
 10
325.0102
 20
99.82223
 10
318.0102
 20
105.64445
 10
117.57838
 20
105.64445
 10
116.22449
 20
105.63466
 10
114.85444
 20
105.60529
 10
113.4685
 20
105.55632
 10
112.06696
 20
105.48775
 10
110.65008
 20
105.39957
 10
109.21817
 20
105.29182
 10
107.77152
 20
105.16451
 10
106.31041
 20
105.01768
 10
104.83641
 20
104.85147
 10
103.35101
 20
104.6659
 10
101.85446
 20
104.46084
 10
100.34701
 20
104.23614
 10
98.82891
 20
103.99168
 10
97.30041
 20
103.72731
 10
95.76175
 20
103.4429
 10
94.21318
 20
103.13832
 10
92.65588
 20
102.8136
 10
91.09111
 20
102.46869
 10
89.51926
 20
102.10334
 10
87.94068
 20
101.71729
 10
86.35577
 20
101.31028
 10
84.76488
 20
100.88208
 10
83.16839
 20
100.43242
 10
81.56667999999999
 20
99.96104
 10
79.96113
 20
99.46797
 10
78.35329
 20
98.95316
 10
76.74377
 20
98.41625
 10
75.13315
 20
97.85688
 10
73.52206000000001
 20
97.2747
 10
71.91107
 20
96.66935
 10
70.30081
 20
96.04047
 10
68.69187
 20
95.3877
 10
67.08619
 20
94.71119
 10
65.48601
 20
94.01106
 10
63.89236
 20
93.28692
 10
62.30626
 20
92.53839
 10
60.72874
 20
91.76507
 10
59.16084
 20
90.96659
 10
57.60358
 20
90.14255
 10
56.05799
 20
89.29256
 10
54.52664
 20
88.41708
 10
53.01246
 20
87.51664
 10
51.517070000000004
 20
86.59095
 10
50.04205
 20
85.63974
 10
48.58943
 20
84.66302
 10
47.16135
 20
83.66093000000001
 10
45.75954
 20
82.63338999999999
 10
44.38574
 20
81.58028
 10
43.04298
 20
80.50251
 10
42.38436
 20
79.9548
 10
41.73462
 20
79.40127
 10
41.094049999999996
 20
78.84197
 10
40.46292
 20
78.27693
 10
39.84152
 20
77.7062
 10
39.23012
 20
77.12984
 10
38.62911
 20
76.54796999999999
 10
38.03885
 20
75.96078
 10
37.45967
 20
75.36841
 10
36.89186
 20
74.771
 10
36.335750000000004
 20
74.1687
 10
35.79164
 20
73.56164
 10
35.25984
 20
72.94996
 10
34.74066
 20
72.3338
 10
33.93236
 20
71.33318
 10
33.541309999999996
 20
70.82222
 10
25.93975
 20
70.82222
 10
25.93975
 20
64.82222
 10
33.541309999999996
 20
64.82222
 10
33.93236
 20
64.31126
  0
LWPOLYLINE
  5
31
330
17
100
AcDbEntity
  8
CUT
100
AcDbPolyline
 90
32
 70
1
 10
121.72413
 20
25.0
 10
121.70492
 20
25.19509
 10
121.64801
 20
25.38268
 10
121.5556
 20
25.55557
 10
121.43124
 20
25.70711
 10
121.2797
 20
25.83147
 10
121.10681
 20
25.92388
 10
120.91922
 20
25.98079
 10
120.72413
 20
26.0
 10
120.52904
 20
25.98079
 10
120.34145
 20
25.92388
 10
120.16856
 20
25.83147
 10
120.01702
 20
25.70711
 10
119.89266
 20
25.55557
 10
119.80025
 20
25.38268
 10
119.74334
 20
25.19509
 10
119.72413
 20
25.0
 10
119.74334
 20
24.80491
 10
119.80025
 20
24.61732
 10
119.89266
 20
24.44443
 10
120.01702
 20
24.29289
 10
120.16856
 20
24.16853
 10
120.34145
 20
24.07612
 10
120.52904
 20
24.01921
 10
120.72413
 20
24.0
 10
120.91922
 20
24.01921
 10
121.10681
 20
24.07612
 10
121.2797
 20
24.16853
 10
121.43124
 20
24.29289
 10
121.5556
 20
24.44443
 10
121.64801
 20
24.61732
 10
121.70492
 20
24.80491
  0
LWPOLYLINE
  5
32
330
17
100
AcDbEntity
  8
CUT
100
AcDbPolyline
 90
32
 70
1
 10
41.72413
 20
85.05873
 10
41.70492
 20
85.25382
 10
41.64801
 20
85.44141
 10
41.5556
 20
85.6143
 10
41.43124
 20
85.76583
 10
41.2797
 20
85.8902
 10
41.106809999999996
 20
85.98261
 10
40.919219999999996
 20
86.03951
 10
40.72413
 20
86.05873
 10
40.529039999999995
 20
86.03951
 10
40.341449999999995
 20
85.98261
 10
40.16856
 20
85.8902
 10
40.01702
 20
85.76583
 10
39.89266
 20
85.6143
 10
39.80025
 20
85.44141
 10
39.74334
 20
85.25382
 10
39.72413
 20
85.05873
 10
39.74334
 20
84.86364
 10
39.80025
 20
84.67604
 10
39.89266
 20
84.50316
 10
40.01702
 20
84.35162
 10
40.16856
 20
84.22726
 10
40.341449999999995
 20
84.13485
 10
40.529039999999995
 20
84.07794
 10
40.72413
 20
84.05873
 10
40.919219999999996
 20
84.07794
 10
41.106809999999996
 20
84.13485
 10
41.2797
 20
84.22726
 10
41.43124
 20
84.35162
 10
41.5556
 20
84.50316
 10
41.64801
 20
84.67604
 10
41.70492
 20
84.86364
  0
LWPOLYLINE
  5
33
330
17
100
AcDbEntity
  8
CUT
100
AcDbPolyline
 90
32
 70
1
 10
221.72413
 20
110.64445
 10
221.70492
 20
110.83954
 10
221.64801
 20
111.02713
 10
221.5556
 20
111.20002
 10
221.43124
 20
111.35156
 10
221.2797
 20
111.47592
 10
221.10681
 20
111.56833
 10
220.91922
 20
111.62523
 10
220.72413
 20
111.64445
 10
220.52904
 20
111.62523
 10
220.34145
 20
111.56833
 10
220.16856
 20
111.47592
 10
220.01702
 20
111.35156
 10
219.89266
 20
111.20002
 10
219.80025
 20
111.02713
 10
219.74334
 20
110.83954
 10
219.72413
 20
110.64445
 10
219.74334
 20
110.44936
 10
219.80025
 20
110.26177
 10
219.89266
 20
110.08888
 10
220.01702
 20
109.93734
 10
220.16856
 20
109.81298
 10
220.34145
 20
109.72057
 10
220.52904
 20
109.66366
 10
220.72413
 20
109.64445
 10
220.91922
 20
109.66366
 10
221.10681
 20
109.72057
 10
221.2797
 20
109.81298
 10
221.43124
 20
109.93734
 10
221.5556
 20
110.08888
 10
221.64801
 20
110.26177
 10
221.70492
 20
110.44936
  0
LWPOLYLINE
  5
34
330
17
100
AcDbEntity
  8
CUT
100
AcDbPolyline
 90
32
 70
1
 10
121.72413
 20
110.64445
 10
121.70492
 20
110.83954
 10
121.64801
 20
111.02713
 10
121.5556
 20
111.20002
 10
121.43124
 20
111.35156
 10
121.2797
 20
111.47592
 10
121.10681
 20
111.56833
 10
120.91922
 20
111.62523
 10
120.72413
 20
111.64445
 10
120.52904
 20
111.62523
 10
120.34145
 20
111.56833
 10
120.16856
 20
111.47592
 10
120.01702
 20
111.35156
 10
119.89266
 20
111.20002
 10
119.80025
 20
111.02713
 10
119.74334
 20
110.83954
 10
119.72413
 20
110.64445
 10
119.74334
 20
110.44936
 10
119.80025
 20
110.26177
 10
119.89266
 20
110.08888
 10
120.01702
 20
109.93734
 10
120.16856
 20
109.81298
 10
120.34145
 20
109.72057
 10
120.52904
 20
109.66366
 10
120.72413
 20
109.64445
 10
120.91922
 20
109.66366
 10
121.10681
 20
109.72057
 10
121.2797
 20
109.81298
 10
121.43124
 20
109.93734
 10
121.5556
 20
110.08888
 10
121.64801
 20
110.26177
 10
121.70492
 20
110.44936
  0
LWPOLYLINE
  5
35
330
17
100
AcDbEntity
  8
CUT
100
AcDbPolyline
 90
32
 70
1
 10
41.72413
 20
50.585719999999995
 10
41.70492
 20
50.78081
 10
41.64801
 20
50.96841
 10
41.5556
 20
51.14129
 10
41.43124
 20
51.292829999999995
 10
41.2797
 20
51.417190000000005
 10
41.106809999999996
 20
51.5096
 10
40.919219999999996
 20
51.56651
 10
40.72413
 20
51.585719999999995
 10
40.529039999999995
 20
51.56651
 10
40.341449999999995
 20
51.5096
 10
40.16856
 20
51.417190000000005
 10
40.01702
 20
51.292829999999995
 10
39.89266
 20
51.14129
 10
39.80025
 20
50.96841
 10
39.74334
 20
50.78081
 10
39.72413
 20
50.585719999999995
 10
39.74334
 20
50.39063
 10
39.80025
 20
50.20304
 10
39.89266
 20
50.03015
 10
40.01702
 20
49.87862
 10
40.16856
 20
49.75425
 10
40.341449999999995
 20
49.66184
 10
40.529039999999995
 20
49.60494
 10
40.72413
 20
49.585719999999995
 10
40.919219999999996
 20
49.60494
 10
41.106809999999996
 20
49.66184
 10
41.2797
 20
49.75425
 10
41.43124
 20
49.87862
 10
41.5556
 20
50.03015
 10
41.64801
 20
50.20304
 10
41.70492
 20
50.39063
  0
LWPOLYLINE
  5
36
330
17
100
AcDbEntity
  8
CUT
100
AcDbPolyline
 90
32
 70
1
 10
221.72413
 20
25.0
 10
221.70492
 20
25.19509
 10
221.64801
 20
25.38268
 10
221.5556
 20
25.55557
 10
221.43124
 20
25.70711
 10
221.2797
 20
25.83147
 10
221.10681
 20
25.92388
 10
220.91922
 20
25.98079
 10
220.72413
 20
26.0
 10
220.52904
 20
25.98079
 10
220.34145
 20
25.92388
 10
220.16856
 20
25.83147
 10
220.01702
 20
25.70711
 10
219.89266
 20
25.55557
 10
219.80025
 20
25.38268
 10
219.74334
 20
25.19509
 10
219.72413
 20
25.0
 10
219.74334
 20
24.80491
 10
219.80025
 20
24.61732
 10
219.89266
 20
24.44443
 10
220.01702
 20
24.29289
 10
220.16856
 20
24.16853
 10
220.34145
 20
24.07612
 10
220.52904
 20
24.01921
 10
220.72413
 20
24.0
 10
220.91922
 20
24.01921
 10
221.10681
 20
24.07612
 10
221.2797
 20
24.16853
 10
221.43124
 20
24.29289
 10
221.5556
 20
24.44443
 10
221.64801
 20
24.61732
 10
221.70492
 20
24.80491
  0
LWPOLYLINE
  5
37
330
17
100
AcDbEntity
  8
CUT
100
AcDbPolyline
 90
39
 70
1
 10
557.1602
 20
110.64445
 10
557.14078
 20
110.88507
 10
557.083
 20
111.11945
 10
556.98838
 20
111.34153
 10
556.85936
 20
111.54556
 10
556.69929
 20
111.72625
 10
556.5123
 20
111.87892
 10
556.30324
 20
111.99962
 10
556.07753
 20
112.08523
 10
555.841
 20
112.13351
 10
555.5998
 20
112.14323
 10
555.36016
 20
112.11413
 10
555.12829
 20
112.04697
 10
554.9102
 20
111.94349
 10
554.71153
 20
111.80636
 10
554.53743
 20
111.63913
 10
554.39241
 20
111.44615
 10
554.28023
 20
111.2324
 10
554.20379
 20
111.00342
 10
554.16506
 20
110.76515
 10
554.16506
 20
110.52375
 10
554.20379
 20
110.28548
 10
554.28023
 20
110.0565
 10
554.39241
 20
109.84275
 10
554.53743
 20
109.64976
 10
554.71153
 20
109.48254
 10
554.9102
 20
109.34541
 10
555.12829
 20
109.24192
 10
555.36016
 20
109.17476
 10
555.5998
 20
109.14567
 10
555.841
 20
109.15539
 10
556.07753
 20
109.20367
 10
556.30324
 20
109.28927
 10
556.5123
 20
109.40997
 10
556.69929
 20
109.56265
 10
556.85936
 20
109.74334
 10
556.98838
 20
109.94736
 10
557.083
 20
110.16945
 10
557.14078
 20
110.40383
  0
LWPOLYLINE
  5
38
330
17
100
AcDbEntity
  8
CUT
100
AcDbPolyline
 90
39
 70
1
 10
557.1602
 20
25.0
 10
557.14078
 20
25.24062
 10
557.083
 20
25.475
 10
556.98838
 20
25.69708
 10
556.85936
 20
25.90111
 10
556.69929
 20
26.0818
 10
556.5123
 20
26.234479999999998
 10
556.30324
 20
26.35518
 10
556.07753
 20
26.44078
 10
555.841
 20
26.489060000000002
 10
555.5998
 20
26.49878
 10
555.36016
 20
26.46969
 10
555.12829
 20
26.40252
 10
554.9102
 20
26.299039999999998
 10
554.71153
 20
26.16191
 10
554.53743
 20
25.99468
 10
554.39241
 20
25.8017
 10
554.28023
 20
25.58795
 10
554.20379
 20
25.35897
 10
554.16506
 20
25.1207
 10
554.16506
 20
24.8793
 10
554.20379
 20
24.64103
 10
554.28023
 20
24.41205
 10
554.39241
 20
24.1983
 10
554.53743
 20
24.00532
 10
554.71153
 20
23.83809
 10
554.9102
 20
23.70096
 10
555.12829
 20
23.59748
 10
555.36016
 20
23.53031
 10
555.5998
 20
23.50122
 10
555.841
 20
23.51094
 10
556.07753
 20
23.55922
 10
556.30324
 20
23.64482
 10
556.5123
 20
23.76552
 10
556.69929
 20
23.9182
 10
556.85936
 20
24.09889
 10
556.98838
 20
24.30292
 10
557.083
 20
24.525
 10
557.14078
 20
24.75938
  0
LWPOLYLINE
  5
39
330
17
100
AcDbEntity
  8
CUT
100
AcDbPolyline
 90
39
 70
1
 10
477.16068
 20
110.92139
 10
477.14125
 20
111.16201
 10
477.08348
 20
111.39639
 10
476.98886
 20
111.61848
 10
476.85984
 20
111.82251
 10
476.69977
 20
112.0032
 10
476.51278
 20
112.15587
 10
476.30372
 20
112.27657
 10
476.07801
 20
112.36217
 10
475.84148
 20
112.41046
 10
475.60028
 20
112.42018
 10
475.36064
 20
112.39108
 10
475.12877
 20
112.32392
 10
474.91068
 20
112.22043
 10
474.71201
 20
112.0833
 10
474.53791
 20
111.91608
 10
474.39289
 20
111.72309
 10
474.28071
 20
111.50934
 10
474.20427
 20
111.28037
 10
474.16554
 20
111.04209
 10
474.16554
 20
110.80069
 10
474.20427
 20
110.56242
 10
474.28071
 20
110.33344
 10
474.39289
 20
110.11969
 10
474.53791
 20
109.92671
 10
474.71201
 20
109.75948
 10
474.91068
 20
109.62235
 10
475.12877
 20
109.51887
 10
475.36064
 20
109.45171
 10
475.60028
 20
109.42261
 10
475.84148
 20
109.43233
 10
476.07801
 20
109.48062
 10
476.30372
 20
109.56622
 10
476.51278
 20
109.68692
 10
476.69977
 20
109.83959
 10
476.85984
 20
110.02028
 10
476.98886
 20
110.22431
 10
477.08348
 20
110.44639
 10
477.14125
 20
110.68078
  0
LWPOLYLINE
  5
3A
330
17
100
AcDbEntity
  8
CUT
100
AcDbPolyline
 90
39
 70
1
 10
477.16068
 20
24.72306
 10
477.14125
 20
24.96367
 10
477.08348
 20
25.198059999999998
 10
476.98886
 20
25.42014
 10
476.85984
 20
25.62417
 10
476.69977
 20
25.804859999999998
 10
476.51278
 20
25.95753
 10
476.30372
 20
26.078229999999998
 10
476.07801
 20
26.16383
 10
475.84148
 20
26.21212
 10
475.60028
 20
26.22184
 10
475.36064
 20
26.19274
 10
475.12877
 20
26.12558
 10
474.91068
 20
26.02209
 10
474.71201
 20
25.88496
 10
474.53791
 20
25.71774
 10
474.39289
 20
25.52476
 10
474.28071
 20
25.31101
 10
474.20427
 20
25.08203
 10
474.16554
 20
24.84376
 10
474.16554
 20
24.60236
 10
474.20427
 20
24.36408
 10
474.28071
 20
24.13511
 10
474.39289
 20
23.92136
 10
474.53791
 20
23.728369999999998
 10
474.71201
 20
23.56115
 10
474.91068
 20
23.42402
 10
475.12877
 20
23.32053
 10
475.36064
 20
23.25337
 10
475.60028
 20
23.22427
 10
475.84148
 20
23.23399
 10
476.07801
 20
23.28228
 10
476.30372
 20
23.36788
 10
476.51278
 20
23.48858
 10
476.69977
 20
23.64125
 10
476.85984
 20
23.82194
 10
476.98886
 20
24.02597
 10
477.08348
 20
24.24805
 10
477.14125
 20
24.48244
  0
LWPOLYLINE
  5
3B
330
17
100
AcDbEntity
  8
CUT
100
AcDbPolyline
 90
134
 70
1
 10
101.41687
 20
154.85837
 10
100.18484
 20
154.85087000000001
 10
98.953
 20
154.82836
 10
97.72152
 20
154.79084
 10
96.49058
 20
154.73832000000002
 10
95.26038
 20
154.67081000000002
 10
94.0311
 20
154.58832
 10
92.80291
 20
154.49086
 10
91.576
 20
154.37844
 10
90.35054
 20
154.25109
 10
89.12674
 20
154.10881
 10
87.90475
 20
153.95164
 10
86.68477
 20
153.77959
 10
85.46698
 20
153.5927
 10
84.25155
 20
153.39098
 10
83.03868
 20
153.17447
 10
81.82852
 20
152.9432
 10
80.62128
 20
152.6972
 10
79.41712
 20
152.43652
 10
78.21623
 20
152.16118
 10
77.01877999999999
 20
151.87124
 10
75.82496
 20
151.56673
 10
74.63493
 20
151.2477
 10
73.44887
 20
150.91419000000002
 10
72.26697
 20
150.56627
 10
71.08939000000001
 20
150.20396
 10
69.91632
 20
149.82734
 10
68.74792
 20
149.43646
 10
67.58436
 20
149.03137
 10
66.42582999999999
 20
148.61214
 10
65.27250000000001
 20
148.17883
 10
64.12451999999999
 20
147.73149
 10
62.98208
 20
147.27021000000002
 10
61.84535
 20
146.79504
 10
60.71449
 20
146.30606
 10
59.58967
 20
145.80334
 10
58.47106
 20
145.28695
 10
57.35882
 20
144.75697
 10
56.25312
 20
144.21348
 10
55.15412
 20
143.65657000000002
 10
54.06199
 20
143.0863
 10
52.97689
 20
142.50278
 10
51.89898
 20
141.90608
 10
50.828410000000005
 20
141.29629
 10
49.76536
 20
140.67350000000002
 10
48.70997
 20
140.03781
 10
47.662400000000005
 20
139.38931
 10
46.62281
 20
138.7281
 10
45.59135
 20
138.05427
 10
44.56818
 20
137.36792
 10
43.55345
 20
136.66916
 10
42.5473
 20
135.95809
 10
41.549890000000005
 20
135.23482
 10
40.56137
 20
134.49945
 10
39.581869999999995
 20
133.75209
 10
38.61156
 20
132.99286
 10
37.65057
 20
132.22186
 10
36.69904
 20
131.43921
 10
35.75711
 20
130.64502000000002
 10
34.82493
 20
129.83942000000002
 10
33.90263
 20
129.02253000000002
 10
32.99036
 20
128.19445000000002
 10
32.08824
 20
127.35533000000001
 10
31.19641
 20
126.50528
 10
30.314999999999998
 20
125.64443
 10
30.314999999999998
 20
120.64445
 10
20.0
 20
120.64445
 10
20.0
 20
125.64443
 10
20.9592
 20
126.71593
 10
21.9325
 20
127.77465000000001
 10
22.919719999999998
 20
128.82039
 10
23.92071
 20
129.85297
 10
24.93528
 20
130.87220000000002
 10
25.963250000000002
 20
131.87792000000002
 10
27.00444
 20
132.86994
 10
28.058680000000003
 20
133.84809
 10
29.12577
 20
134.81219000000002
 10
30.20554
 20
135.76209
 10
31.29778
 20
136.69761
 10
32.40231
 20
137.61858
 10
33.51894
 20
138.52486000000002
 10
34.64746
 20
139.41627
 10
35.78769
 20
140.29267000000002
 10
36.93942
 20
141.15389000000002
 10
38.102450000000005
 20
141.99979000000002
 10
39.276579999999996
 20
142.83022
 10
40.46159
 20
143.64504
 10
41.65729
 20
144.4441
 10
42.86347
 20
145.22725
 10
44.079899999999995
 20
145.99437
 10
45.306380000000004
 20
146.74532
 10
46.542699999999996
 20
147.47997
 10
47.78864
 20
148.19819
 10
49.04397
 20
148.89985000000001
 10
50.30848
 20
149.58483
 10
51.58195
 20
150.25301000000002
 10
52.86415
 20
150.90428
 10
54.15486
 20
151.53851
 10
55.45386
 20
152.1556
 10
56.76091
 20
152.75544000000002
 10
58.07578
 20
153.33793
 10
59.39826
 20
153.90296
 10
60.72809
 20
154.45043
 10
62.06506
 20
154.98025
 10
63.40892
 20
155.49232
 10
64.75945
 20
155.98656
 10
66.1164
 20
156.46287
 10
67.47953
 20
156.92118
 10
68.84862
 20
157.36141
 10
70.22341
 20
157.78347000000002
 10
71.60367
 20
158.1873
 10
72.98915
 20
158.57281
 10
74.37962
 20
158.93996
 10
75.77482
 20
159.28866
 10
77.17452
 20
159.61887000000002
 10
78.57847000000001
 20
159.93051
 10
79.98642000000001
 20
160.22354
 10
81.39812
 20
160.49791
 10
82.81333000000001
 20
160.75357
 10
84.23181
 20
160.99046
 10
85.65329
 20
161.20856
 10
87.07754
 20
161.40783
 10
88.5043
 20
161.58822
 10
89.93333
 20
161.74970000000002
 10
91.36436
 20
161.89226000000002
 10
92.79716
 20
162.01586
 10
94.23147
 20
162.12048000000001
 10
95.66704
 20
162.2061
 10
97.10362
 20
162.27271000000002
 10
98.54095
 20
162.3203
 10
99.97879
 20
162.34885
 10
101.41687
 20
162.35837
 10
549.07045
 20
162.35837
 10
549.07045
 20
154.85837
  0
LWPOLYLINE
  5
3C
330
17
100
AcDbEntity
  8
CUT
100
AcDbPolyline
 90
166
 70
1
 10
365.58815
 20
191.10822000000002
 10
360.116
 20
191.4177
 10
358.76281
 20
191.49075000000002
 10
354.19918
 20
191.72995
 10
353.02757
 20
191.78987
 10
347.56303
 20
192.05367
 10
346.34187
 20
192.10920000000002
 10
341.79361
 20
192.30995000000001
 10
340.46932
 20
192.36642
 10
334.9971
 20
192.58532
 10
329.33001
 20
192.78969
 10
327.91641
 20
192.83796
 10
322.42079
 20
193.01235
 10
316.82794
 20
193.16729
 10
315.37276
 20
193.20461
 10
309.8362
 20
193.33455
 10
158.56974
 20
196.57232000000002
 10
20.0
 20
196.57232000000002
 10
20.0
 20
204.07232
 10
158.65
 20
204.07232
 10
309.9967
 20
200.83284
 10
315.88359
 20
200.69539
 10
316.45293
 20
200.68088
 10
321.7699
 20
200.53507000000002
 10
322.90845
 20
200.50141000000002
 10
324.80726
 20
200.44053000000002
 10
327.65554
 20
200.35187000000002
 10
328.56376
 20
200.32007000000002
 10
329.36316
 20
200.29444
 10
331.15337
 20
200.22939000000002
 10
333.54043
 20
200.14581
 10
334.76183
 20
200.09829000000002
 10
335.81692
 20
200.05996000000002
 10
337.42021
 20
199.99486000000002
 10
339.42447
 20
199.91688
 10
340.96879
 20
199.85079000000002
 10
342.26962
 20
199.79797000000002
 10
343.65044
 20
199.73602
 10
345.30758
 20
199.66509000000002
 10
347.19064
 20
199.57717000000002
 10
348.72115
 20
199.5085
 10
349.86039
 20
199.45251000000002
 10
351.18966
 20
199.39045000000002
 10
353.43973
 20
199.27662
 10
355.17138
 20
199.19153
 10
356.05763
 20
199.14419
 10
357.07064
 20
199.09294
 10
359.74595
 20
198.94718
 10
361.62021
 20
198.84707
 10
362.24613
 20
198.81096000000002
 10
362.95041
 20
198.77259
 10
368.06751
 20
198.47514
 10
368.82889
 20
198.42940000000002
 10
374.706
 20
198.06336000000002
 10
380.58164
 20
197.67449000000002
 10
386.45572
 20
197.26279
 10
387.39908
 20
197.19454000000002
 10
392.32816
 20
196.82827
 10
393.12973
 20
196.76583
 10
393.8391
 20
196.71276
 10
395.67405
 20
196.56762
 10
398.19887
 20
196.37094000000002
 10
399.3102
 20
196.28002
 10
400.27701
 20
196.20354
 10
401.94449
 20
196.0645
 10
404.06775
 20
195.89079
 10
405.49712
 20
195.76826
 10
406.7127
 20
195.6669
 10
408.16749
 20
195.53934
 10
409.93473
 20
195.38785000000001
 10
411.69527
 20
195.23003
 10
413.14603
 20
195.10283
 10
414.36505
 20
194.99071
 10
415.79971
 20
194.86211
 10
417.91416
 20
194.66428000000002
 10
419.57691
 20
194.51135
 10
420.5468
 20
194.41798
 10
421.66259
 20
194.31358
 10
424.17533
 20
194.06864000000002
 10
426.00521
 20
193.89247
 10
426.71764
 20
193.82082
 10
427.52331
 20
193.74228
 10
432.43081
 20
193.24621000000002
 10
433.38176
 20
193.14821
 10
439.23786
 20
192.53138
 10
445.09151
 20
191.89180000000002
 10
450.94264
 20
191.22948000000002
 10
451.69027
 20
191.14319
 10
456.79115
 20
190.54443
 10
457.48594
 20
190.46030000000002
 10
458.10392
 20
190.38749
 10
459.96863
 20
190.15972
 10
462.63695
 20
189.83665000000002
 10
463.63789
 20
189.71152
 10
464.51429
 20
189.60446000000002
 10
466.23751
 20
189.38652000000002
 10
468.47996
 20
189.10617000000002
 10
469.79406
 20
188.93669
 10
470.92127
 20
188.79413
 10
472.44424
 20
188.59491
 10
474.32008
 20
188.35299
 10
475.95834
 20
188.13523
 10
477.32474
 20
187.95649
 10
478.61914
 20
187.78156
 10
480.15724
 20
187.57712
 10
482.13811
 20
187.30599
 10
483.72457
 20
187.09158000000002
 10
484.77468
 20
186.9451
 10
485.99134
 20
186.77857
 10
488.34927
 20
186.44649
 10
490.12067
 20
186.1994
 10
490.91691
 20
186.08487000000002
 10
491.82229
 20
185.95736
 10
494.63318
 20
185.55034
 10
496.5129
 20
185.27997000000002
 10
497.65
 20
185.11350000000002
 10
497.65
 20
185.11147
 10
502.90116
 20
184.33331
 10
509.28533
 20
183.35944
 10
515.6652799999999
 20
182.35836
 10
515.65301
 20
170.31275
 10
515.65
 20
170.31275
 10
515.65
 20
167.35837
 10
508.15
 20
167.36601000000002
 10
508.15874
 20
175.9445
 10
502.65
 20
176.78529
 10
502.65
 20
172.35839
 10
497.65
 20
172.35839
 10
497.65
 20
168.35839
 10
487.65
 20
168.35839
 10
487.65
 20
178.97096000000002
 10
485.8114
 20
179.22832
 10
482.16567
 20
179.73295000000002
 10
479.3274
 20
180.11829
 10
475.71226
 20
180.60224
 10
472.85917
 20
180.97761
 10
469.24422
 20
181.4451
 10
466.39908
 20
181.80748
 10
462.75469
 20
182.26224000000002
 10
459.94312
 20
182.60856
 10
456.22922
 20
183.05516
 10
453.48901
 20
183.3812
 10
449.63176
 20
183.82757
 10
447.03539
 20
184.12563
 10
440.5814
 20
184.842
 10
434.1265
 20
185.53039
 10
427.66926
 20
186.19009
 10
421.20737
 20
186.82199
 10
418.70339
 20
187.05719000000002
 10
414.74034
 20
187.42633
 10
412.03776
 20
187.66894000000002
 10
408.26745
 20
188.00315
 10
405.46836
 20
188.24277
 10
401.78755
 20
188.55249
 10
398.93944
 20
188.78446
 10
395.29878
 20
189.07443
 10
392.43072
 20
189.29611
 10
388.79793
 20
189.56914
 10
385.93311
 20
189.77867
 10
382.27909
 20
190.03688
 10
380.5
 20
190.15963
 10
380.5
 20
193.35839
 10
374.5
 20
193.35839
 10
374.5
 20
190.55803
 10
372.65282
 20
190.67781000000002
 10
371.2256
 20
190.767
  0
LWPOLYLINE
  5
3D
330
17
100
AcDbEntity
  8
CUT
100
AcDbPolyline
 90
278
 70
1
 10
342.98291
 20
294.238
 10
335.91614
 20
294.39182999999997
 10
328.72444
 20
294.5138
 10
327.48453
 20
294.53153
 10
321.88833
 20
294.60024999999996
 10
316.50619
 20
294.64995999999996
 10
311.21174
 20
294.68451
 10
306.07714
 20
294.70562
 10
301.0
 20
294.71556
 10
294.0
 20
288.89524
 10
294.0
 20
294.71677
 10
150.0
 20
294.71677
 10
143.0
 20
288.89454
 10
143.0
 20
294.71677
 10
20.0
 20
294.71677
 10
20.0
 20
304.71677
 10
50.0
 20
304.71677
 10
50.0
 20
299.89458
 10
78.60753
 20
299.89458
 10
78.60753
 20
304.71677
 10
298.44237
 20
304.71677
 10
306.30293
 20
304.70498
 10
313.98376
 20
304.66834
 10
321.50111
 20
304.6049
 10
328.87121
 20
304.51272
 10
336.10925
 20
304.38996
 10
343.22578
 20
304.23505
 10
350.23006
 20
304.04651
 10
357.13132
 20
303.82286999999997
 10
360.54611
 20
303.69741
 10
363.93812
 20
303.56255999999996
 10
367.30814
 20
303.4181
 10
370.65692
 20
303.26377
 10
373.98524
 20
303.09933
 10
377.29387
 20
302.92456
 10
380.58357
 20
302.73920999999996
 10
383.85511
 20
302.54304
 10
387.10912
 20
302.33579
 10
390.34602
 20
302.11715
 10
393.56632
 20
301.88675
 10
396.77049
 20
301.64423999999997
 10
399.95904
 20
301.38926
 10
403.13245
 20
301.12147
 10
406.29122
 20
300.84051
 10
409.43584
 20
300.54603
 10
412.5666
 20
300.23765
 10
415.68368
 20
299.91488
 10
418.78737
 20
299.57719
 10
421.87799
 20
299.22404
 10
424.95584
 20
298.85489
 10
428.02123
 20
298.4692
 10
431.07444
 20
298.06645
 10
434.1158
 20
297.64608
 10
437.14522
 20
297.20754999999997
 10
440.16241
 20
296.75005
 10
443.16743
 20
296.27267
 10
446.1603
 20
295.77449
 10
449.14107
 20
295.2546
 10
452.10976
 20
294.71208
 10
455.06642
 20
294.14602
 10
458.01109
 20
293.5555
 10
460.94319
 20
292.93962999999997
 10
463.86191
 20
292.29713
 10
466.76692
 20
291.62653
 10
469.65787
 20
290.92633
 10
472.53401
 20
290.1951
 10
475.39442
 20
289.43116
 10
478.23846
 20
288.63271
 10
479.65414
 20
288.21997999999996
 10
481.06549
 20
287.79794
 10
482.0
 20
287.51251
 10
482.30818
 20
287.39557
 10
482.61069
 20
287.26484
 10
482.90702
 20
287.12073
 10
483.19672
 20
286.96365
 10
483.4793
 20
286.79402
 10
483.75427
 20
286.61225
 10
484.02115
 20
286.41876
 10
484.27947
 20
286.21395
 10
484.52875
 20
285.99823
 10
484.76851
 20
285.77202
 10
484.99825
 20
285.53574
 10
485.21752
 20
285.28979
 10
485.42581
 20
285.03459
 10
485.62266
 20
284.77054999999996
 10
485.80758
 20
284.49807999999996
 10
485.9801
 20
284.2176
 10
486.21474
 20
283.78288
 10
486.41984
 20
283.3332
 10
486.59486
 20
282.87071
 10
486.73928
 20
282.39757
 10
486.85253
 20
281.91593
 10
486.9341
 20
281.42792
 10
486.98344
 20
280.93571
 10
486.99243
 20
280.66731
 10
481.0
 20
280.66731
 10
481.0
 20
261.76794
 10
482.0
 20
261.76794
 10
482.0
 20
252.02114999999998
 10
481.0
 20
252.02114999999998
 10
481.0
 20
233.12187
 10
486.99243
 20
233.12187
 10
486.98344
 20
232.85338
 10
486.9341
 20
232.36117
 10
486.85253
 20
231.87315999999998
 10
486.73927
 20
231.39151999999999
 10
486.59486
 20
230.91837999999998
 10
486.41984
 20
230.45588999999998
 10
486.21473
 20
230.00620999999998
 10
485.9801
 20
229.57148999999998
 10
485.80758
 20
229.29101
 10
485.62266
 20
229.01854
 10
485.42581
 20
228.75449999999998
 10
485.21751
 20
228.4993
 10
484.99825
 20
228.25334999999998
 10
484.76851
 20
228.01706
 10
484.52875
 20
227.79085999999998
 10
484.27947
 20
227.57513999999998
 10
484.02115
 20
227.37033
 10
483.75427
 20
227.17683
 10
483.47929
 20
226.99507
 10
483.19672
 20
226.82544
 10
482.90702
 20
226.66835999999998
 10
482.61069
 20
226.52425
 10
482.30818
 20
226.39352
 10
482.0
 20
226.27658
 10
481.06549
 20
225.99115
 10
479.65414
 20
225.56911
 10
478.23846
 20
225.15637999999998
 10
475.39442
 20
224.35792999999998
 10
472.53401
 20
223.59399
 10
469.65787
 20
222.86275999999998
 10
466.76692
 20
222.16255999999998
 10
463.86191
 20
221.49195999999998
 10
460.94319
 20
220.84946
 10
458.01109
 20
220.23359
 10
455.06642
 20
219.64307
 10
452.10976
 20
219.07701
 10
449.14107
 20
218.53449
 10
446.1603
 20
218.0146
 10
443.16743
 20
217.51641999999998
 10
440.16241
 20
217.03904
 10
437.14522
 20
216.58154
 10
434.1158
 20
216.14301
 10
431.07444
 20
215.72263999999998
 10
428.02123
 20
215.31989
 10
424.95584
 20
214.9342
 10
421.87799
 20
214.56504999999999
 10
418.78737
 20
214.21189999999999
 10
415.68368
 20
213.87421
 10
412.5666
 20
213.55143999999999
 10
409.43584
 20
213.24305999999999
 10
406.29122
 20
212.94858
 10
403.13245
 20
212.66762
 10
399.95904
 20
212.39982999999998
 10
396.77049
 20
212.14485
 10
393.56632
 20
211.90233999999998
 10
390.34602
 20
211.67193999999998
 10
387.10912
 20
211.45329999999998
 10
383.85511
 20
211.24605
 10
380.58357
 20
211.04988
 10
377.29387
 20
210.86453
 10
373.98524
 20
210.68975
 10
370.65692
 20
210.52532
 10
367.30814
 20
210.37098999999998
 10
363.93812
 20
210.22653
 10
360.54611
 20
210.09168
 10
357.13132
 20
209.96622
 10
350.23006
 20
209.74257
 10
343.22578
 20
209.55404
 10
336.10925
 20
209.39912999999999
 10
328.87121
 20
209.27637
 10
321.50111
 20
209.18419
 10
313.98376
 20
209.12075
 10
306.30293
 20
209.08410999999998
 10
298.44237
 20
209.07232
 10
78.60753
 20
209.07232
 10
78.60753
 20
213.89453999999998
 10
50.0
 20
213.89453999999998
 10
50.0
 20
209.07232
 10
20.0
 20
209.07232
 10
20.0
 20
219.07232
 10
143.0
 20
219.07232
 10
143.0
 20
224.89453999999998
 10
150.0
 20
219.07232
 10
294.0
 20
219.07232
 10
294.0
 20
224.89524
 10
301.0
 20
219.07353
 10
308.14619
 20
219.09058
 10
315.14061
 20
219.12891
 10
321.99582
 20
219.18999
 10
328.72444
 20
219.27528999999998
 10
335.91614
 20
219.39726
 10
342.98291
 20
219.55109
 10
349.93404
 20
219.73819
 10
356.77885
 20
219.96000999999998
 10
358.85
 20
220.03812
 10
358.85
 20
216.39455999999998
 10
364.85
 20
216.39455999999998
 10
364.85
 20
220.27353
 10
369.50855
 20
220.48211999999998
 10
374.12468
 20
220.71015
 10
378.70052
 20
220.95823
 10
383.23821
 20
221.227
 10
386.45456
 20
221.43185
 10
389.65243
 20
221.64785999999998
 10
392.83234
 20
221.87537
 10
395.99478
 20
222.11472999999998
 10
399.14024
 20
222.36624999999998
 10
402.26923
 20
222.63029
 10
405.38224
 20
222.90717999999998
 10
408.47977
 20
223.19725
 10
411.5618
 20
223.50083999999998
 10
414.62817
 20
223.81835999999998
 10
417.67921
 20
224.15032
 10
420.71522
 20
224.49723
 10
423.73653
 20
224.8596
 10
426.74344
 20
225.23792
 10
429.73627
 20
225.6327
 10
432.71533
 20
226.04446
 10
435.67985
 20
226.47359999999998
 10
438.62888
 20
226.92077
 10
441.56247
 20
227.38681
 10
444.48068
 20
227.87257
 10
447.38357
 20
228.37887
 10
450.27119
 20
228.90655999999998
 10
453.1436
 20
229.45647
 10
456.00086
 20
230.02945
 10
458.84135
 20
230.62608
 10
461.6632
 20
231.24724999999998
 10
464.46613
 20
231.89428999999998
 10
467.24984
 20
232.5685
 10
469.63313
 20
233.17237
 10
472.0
 20
233.79804
 10
472.0
 20
254.39454
 10
476.0
 20
254.39454
 10
476.0
 20
259.39454
 10
472.0
 20
259.39454
 10
472.0
 20
279.99105
 10
469.63313
 20
280.61672
 10
467.24984
 20
281.22059
 10
464.46613
 20
281.8948
 10
461.6632
 20
282.54184
 10
458.84135
 20
283.16301
 10
456.00086
 20
283.75964
 10
453.1436
 20
284.33262
 10
450.27119
 20
284.88253
 10
447.38357
 20
285.41022
 10
444.48068
 20
285.91652
 10
441.56247
 20
286.40228
 10
438.62888
 20
286.86832
 10
435.67985
 20
287.31549
 10
432.71533
 20
287.74463
 10
429.73627
 20
288.15639
 10
426.74344
 20
288.55116999999996
 10
423.73653
 20
288.92949
 10
420.71522
 20
289.29186
 10
417.67921
 20
289.63877
 10
414.62817
 20
289.97073
 10
411.5618
 20
290.28825
 10
408.47977
 20
290.59182999999996
 10
405.38224
 20
290.88191
 10
402.26923
 20
291.1588
 10
399.14024
 20
291.42284
 10
395.99478
 20
291.67436
 10
392.83234
 20
291.91371
 10
389.65243
 20
292.14123
 10
386.45456
 20
292.35724
 10
383.23821
 20
292.56208
 10
378.70052
 20
292.83086
 10
374.12468
 20
293.07894
 10
369.50855
 20
293.30696
 10
364.85
 20
293.51556
 10
364.85
 20
297.39455999999996
 10
358.85
 20
297.39455999999996
 10
358.85
 20
293.75097
 10
356.77885
 20
293.82908
 10
349.93404
 20
294.05089999999996
  0
LWPOLYLINE
  5
3E
330
17
100
AcDbEntity
  8
CUT
100
AcDbPolyline
 90
39
 70
1
 10
36.5
 20
299.71677
 10
36.48058
 20
299.95739
 10
36.422799999999995
 20
300.19177
 10
36.32818
 20
300.41385
 10
36.19916
 20
300.61788
 10
36.03909
 20
300.79857
 10
35.8521
 20
300.95124
 10
35.64304
 20
301.07194
 10
35.41733
 20
301.15755
 10
35.18081
 20
301.20583
 10
34.9396
 20
301.21555
 10
34.699960000000004
 20
301.18645
 10
34.468090000000004
 20
301.11929
 10
34.25
 20
301.01581
 10
34.05133
 20
300.87868
 10
33.87723
 20
300.71145
 10
33.73221
 20
300.51847
 10
33.62003
 20
300.30472
 10
33.54359
 20
300.07574
 10
33.50486
 20
299.83747
 10
33.50486
 20
299.59607
 10
33.54359
 20
299.3578
 10
33.62003
 20
299.12882
 10
33.73221
 20
298.91507
 10
33.87723
 20
298.72208
 10
34.05133
 20
298.55485999999996
 10
34.25
 20
298.41773
 10
34.468090000000004
 20
298.31424
 10
34.699960000000004
 20
298.24708
 10
34.9396
 20
298.21799
 10
35.18081
 20
298.22771
 10
35.41733
 20
298.27599
 10
35.64304
 20
298.36159
 10
35.8521
 20
298.48229
 10
36.03909
 20
298.63497
 10
36.19916
 20
298.81566
 10
36.32818
 20
299.01968
 10
36.422799999999995
 20
299.24177
 10
36.48058
 20
299.47614999999996
  0
LWPOLYLINE
  5
3F
330
17
100
AcDbEntity
  8
CUT
100
AcDbPolyline
 90
39
 70
1
 10
36.5
 20
214.07232
 10
36.48058
 20
214.31294
 10
36.422799999999995
 20
214.54731999999998
 10
36.32818
 20
214.7694
 10
36.19916
 20
214.97342999999998
 10
36.03909
 20
215.15411999999998
 10
35.8521
 20
215.30679999999998
 10
35.64304
 20
215.42749999999998
 10
35.41733
 20
215.51309999999998
 10
35.18081
 20
215.56137999999999
 10
34.9396
 20
215.5711
 10
34.699960000000004
 20
215.54201
 10
34.468090000000004
 20
215.47484
 10
34.25
 20
215.37135999999998
 10
34.05133
 20
215.23423
 10
33.87723
 20
215.06699999999998
 10
33.73221
 20
214.87402
 10
33.62003
 20
214.66027
 10
33.54359
 20
214.43129
 10
33.50486
 20
214.19302
 10
33.50486
 20
213.95162
 10
33.54359
 20
213.71335
 10
33.62003
 20
213.48436999999998
 10
33.73221
 20
213.27061999999998
 10
33.87723
 20
213.07764
 10
34.05133
 20
212.91040999999998
 10
34.25
 20
212.77328
 10
34.468090000000004
 20
212.66979999999998
 10
34.699960000000004
 20
212.60262999999998
 10
34.9396
 20
212.57353999999998
 10
35.18081
 20
212.58326
 10
35.41733
 20
212.63154
 10
35.64304
 20
212.71714
 10
35.8521
 20
212.83784
 10
36.03909
 20
212.99052
 10
36.19916
 20
213.17121
 10
36.32818
 20
213.37524
 10
36.422799999999995
 20
213.59732
 10
36.48058
 20
213.83169999999998
  0
LWPOLYLINE
  5
40
330
17
100
AcDbEntity
  8
CUT
100
AcDbPolyline
 90
39
 70
1
 10
116.49952
 20
213.79538
 10
116.4801
 20
214.03599
 10
116.42233
 20
214.27038
 10
116.3277
 20
214.49246
 10
116.19868
 20
214.69648999999998
 10
116.03861
 20
214.87717999999998
 10
115.85162
 20
215.02984999999998
 10
115.64256
 20
215.15054999999998
 10
115.41685
 20
215.23614999999998
 10
115.18033
 20
215.28444
 10
114.93912
 20
215.29415999999998
 10
114.69948
 20
215.26505999999998
 10
114.46761
 20
215.1979
 10
114.24952
 20
215.09440999999998
 10
114.05085
 20
214.95728
 10
113.87675
 20
214.79005999999998
 10
113.73174
 20
214.59707999999998
 10
113.61955
 20
214.38333
 10
113.54311
 20
214.15435
 10
113.50438
 20
213.91608
 10
113.50438
 20
213.67468
 10
113.54311
 20
213.4364
 10
113.61955
 20
213.20743
 10
113.73174
 20
212.99367999999998
 10
113.87675
 20
212.80069
 10
114.05085
 20
212.63347
 10
114.24952
 20
212.49634
 10
114.46761
 20
212.39284999999998
 10
114.69948
 20
212.32568999999998
 10
114.93912
 20
212.29658999999998
 10
115.18033
 20
212.30631
 10
115.41685
 20
212.3546
 10
115.64256
 20
212.4402
 10
115.85162
 20
212.5609
 10
116.03861
 20
212.71357
 10
116.19868
 20
212.89426
 10
116.3277
 20
213.09829
 10
116.42233
 20
213.32037
 10
116.4801
 20
213.55476
  0
LWPOLYLINE
  5
41
330
17
100
AcDbEntity
  8
CUT
100
AcDbPolyline
 90
39
 70
1
 10
116.49952
 20
299.99370999999996
 10
116.4801
 20
300.23433
 10
116.42233
 20
300.46871
 10
116.3277
 20
300.69079999999997
 10
116.19868
 20
300.89482999999996
 10
116.03861
 20
301.07552
 10
115.85162
 20
301.22819
 10
115.64256
 20
301.34889
 10
115.41685
 20
301.43449
 10
115.18033
 20
301.48278
 10
114.93912
 20
301.4925
 10
114.69948
 20
301.4634
 10
114.46761
 20
301.39624
 10
114.24952
 20
301.29274999999996
 10
114.05085
 20
301.15562
 10
113.87675
 20
300.98839999999996
 10
113.73174
 20
300.79541
 10
113.61955
 20
300.58166
 10
113.54311
 20
300.35269
 10
113.50438
 20
300.11441
 10
113.50438
 20
299.87301
 10
113.54311
 20
299.63473999999997
 10
113.61955
 20
299.40576
 10
113.73174
 20
299.19201
 10
113.87675
 20
298.99903
 10
114.05085
 20
298.8318
 10
114.24952
 20
298.69467
 10
114.46761
 20
298.59119
 10
114.69948
 20
298.52403
 10
114.93912
 20
298.49493
 10
115.18033
 20
298.50464999999997
 10
115.41685
 20
298.55294
 10
115.64256
 20
298.63854
 10
115.85162
 20
298.75924
 10
116.03861
 20
298.91191
 10
116.19868
 20
299.0926
 10
116.3277
 20
299.29663
 10
116.42233
 20
299.51871
 10
116.4801
 20
299.7531
  0
LWPOLYLINE
  5
42
330
17
100
AcDbEntity
  8
CUT
100
AcDbPolyline
 90
7
 70
1
 10
20.0
 20
309.71677
 10
20.0
 20
318.93015
 10
123.62955
 20
318.39157
 10
308.85438
 20
317.44812
 10
391.89112
 20
317.03427
 10
463.00002
 20
316.68906
 10
463.00002
 20
313.211
  0
LWPOLYLINE
  5
43
330
17
100
AcDbEntity
  8
CUT
100
AcDbPolyline
 90
7
 70
1
 10
463.00002
 20
329.64930000000004
 10
463.00002
 20
326.17124
 10
391.89112
 20
325.82603
 10
308.85438
 20
325.41218000000003
 10
123.62955
 20
324.46873000000005
 10
20.0
 20
323.93015
 10
20.0
 20
333.14353000000006
  0
LWPOLYLINE
  5
44
330
17
100
AcDbEntity
  8
CUT
100
AcDbPolyline
 90
79
 70
1
 10
381.52224
 20
351.88359
 10
454.0
 20
351.29594000000003
 10
454.0
 20
341.87155000000007
 10
100.0
 20
338.83059000000003
 10
100.0
 20
344.21468000000004
 10
95.0
 20
344.21468000000004
 10
95.0
 20
338.78765000000004
 10
20.0
 20
338.14353000000006
 10
20.0
 20
346.43343000000004
 10
25.0
 20
346.43343000000004
 10
25.0
 20
354.68368000000004
 10
134.36977000000002
 20
353.82504000000006
 10
134.53454
 20
353.81676000000004
 10
134.69816
 20
353.79476000000005
 10
134.85949
 20
353.75939000000005
 10
135.01744
 20
353.71105000000006
 10
135.17088
 20
353.65009000000003
 10
135.31871
 20
353.5769000000001
 10
135.4598
 20
353.4918400000001
 10
135.59304
 20
353.39528000000007
 10
135.75679
 20
353.2495400000001
 10
135.90338
 20
353.08635000000004
 10
136.03158000000002
 20
352.90805000000006
 10
136.14015
 20
352.71695000000005
 10
136.22786000000002
 20
352.51540000000006
 10
136.29348
 20
352.30571000000003
 10
136.33579
 20
352.09022000000004
 10
136.37147
 20
351.65119000000004
 10
136.4142
 20
351.43465000000003
 10
136.48047
 20
351.2239900000001
 10
136.56903
 20
351.02159000000006
 10
136.67863
 20
350.82980000000003
 10
136.80801
 20
350.65098000000006
 10
136.95592
 20
350.48749000000004
 10
137.12111
 20
350.34170000000006
 10
137.25547
 20
350.24528000000004
 10
137.39771000000002
 20
350.1605200000001
 10
137.5467
 20
350.08778000000007
 10
137.70129
 20
350.02743000000004
 10
137.86034999999998
 20
349.97985000000006
 10
138.02275
 20
349.94541000000004
 10
138.18734999999998
 20
349.92447000000004
 10
138.35302000000001
 20
349.9174100000001
 10
184.38747
 20
349.9174100000001
 10
184.59288
 20
349.92848000000004
 10
184.79592
 20
349.96108000000004
 10
184.99464
 20
350.0143100000001
 10
185.18707
 20
350.0872600000001
 10
185.37126
 20
350.17902000000004
 10
185.54522
 20
350.28869000000003
 10
185.70701
 20
350.41535000000005
 10
185.85465
 20
350.55809000000005
 10
185.95499
 20
350.67508000000004
 10
186.04588
 20
350.79973000000007
 10
186.12693
 20
350.93117000000007
 10
186.19774
 20
351.06852000000003
 10
186.25792
 20
351.21091000000007
 10
186.30708
 20
351.35746000000006
 10
186.34483
 20
351.50729000000007
 10
186.3969
 20
351.81260000000003
 10
186.43496
 20
351.96323000000007
 10
186.48455
 20
352.11052000000007
 10
186.54527
 20
352.25359000000003
 10
186.61673
 20
352.39156
 10
186.69851
 20
352.52353000000005
 10
186.79024
 20
352.64860000000004
 10
186.89149
 20
352.7659100000001
 10
187.04046
 20
352.90887000000004
 10
187.20366
 20
353.03551000000004
 10
187.3791
 20
353.14493000000004
 10
187.56477
 20
353.23620000000005
 10
187.75867
 20
353.30841000000004
 10
187.95881
 20
353.36066000000005
 10
188.16317
 20
353.39202000000006
 10
188.36977
 20
353.40160000000003
 10
214.35
 20
353.19786000000005
 10
214.35
 20
346.43343000000004
 10
219.35
 20
346.43343000000004
 10
219.35
 20
353.15864000000005
  0
LWPOLYLINE
  5
45
330
17
100
AcDbEntity
  8
CUT
100
AcDbPolyline
 90
79
 70
1
 10
219.35
 20
361.20872
 10
219.35
 20
367.93393000000003
 10
214.35
 20
367.93393000000003
 10
214.35
 20
361.1695
 10
188.36977
 20
360.96576000000005
 10
188.16317
 20
360.97534
 10
187.95881
 20
361.0067
 10
187.75867
 20
361.05895000000004
 10
187.56477
 20
361.13116
 10
187.3791
 20
361.22243000000003
 10
187.20366
 20
361.33185000000003
 10
187.04046
 20
361.45849000000004
 10
186.89149
 20
361.60146000000003
 10
186.79024
 20
361.71876000000003
 10
186.69851
 20
361.84383
 10
186.61673
 20
361.97580000000005
 10
186.54527
 20
362.11377000000005
 10
186.48455
 20
362.25684
 10
186.43496
 20
362.40414000000004
 10
186.3969
 20
362.55476000000004
 10
186.34483
 20
362.86007000000006
 10
186.30708
 20
363.0099
 10
186.25792
 20
363.15645000000006
 10
186.19774
 20
363.29884000000004
 10
186.12693
 20
363.43619
 10
186.04588
 20
363.56763000000007
 10
185.95499
 20
363.69228000000004
 10
185.85465
 20
363.80927
 10
185.70701
 20
363.95201000000003
 10
185.54522
 20
364.07867000000005
 10
185.37126
 20
364.18834000000004
 10
185.18707
 20
364.28010000000006
 10
184.99464
 20
364.35305000000005
 10
184.79592
 20
364.40628000000004
 10
184.59288
 20
364.43888000000004
 10
184.38747
 20
364.44995000000006
 10
138.35302000000001
 20
364.44995000000006
 10
138.18734999999998
 20
364.44289000000003
 10
138.02275
 20
364.42195000000004
 10
137.86034999999998
 20
364.38751
 10
137.70129
 20
364.33993000000004
 10
137.5467
 20
364.27958
 10
137.39771000000002
 20
364.20684000000006
 10
137.25547
 20
364.12208000000004
 10
137.12111
 20
364.02566
 10
136.95592
 20
363.87987000000004
 10
136.80801
 20
363.71638
 10
136.67863
 20
363.53756000000004
 10
136.56903
 20
363.34577
 10
136.48047
 20
363.14337000000006
 10
136.4142
 20
362.93271000000004
 10
136.37147
 20
362.71617000000003
 10
136.33579
 20
362.27714000000003
 10
136.29348
 20
362.06165000000004
 10
136.22786000000002
 20
361.85197000000005
 10
136.14015
 20
361.65041
 10
136.03158000000002
 20
361.45931
 10
135.90338
 20
361.28101000000004
 10
135.75679
 20
361.11782000000005
 10
135.59304
 20
360.97208000000006
 10
135.4598
 20
360.87552000000005
 10
135.31871
 20
360.79046000000005
 10
135.17088
 20
360.71727000000004
 10
135.01744
 20
360.65631
 10
134.85949
 20
360.60797
 10
134.69816
 20
360.5726
 10
134.53454
 20
360.55060000000003
 10
134.36977000000002
 20
360.54232
 10
25.0
 20
359.68368000000004
 10
25.0
 20
367.93393000000003
 10
20.0
 20
367.93393000000003
 10
20.0
 20
376.22383
 10
95.0
 20
375.57971000000003
 10
95.0
 20
370.15268000000003
 10
100.0
 20
370.15268000000003
 10
100.0
 20
375.53677000000005
 10
454.0
 20
372.49581000000006
 10
454.0
 20
363.07142000000005
 10
381.52224
 20
362.48377000000005
  0
LWPOLYLINE
  5
46
330
17
100
AcDbEntity
  8
CUT
100
AcDbPolyline
 90
14
 70
1
 10
326.99998
 20
392.81928000000005
 10
326.99998
 20
383.6059
 10
219.35
 20
382.7568
 10
219.35
 20
387.80149
 10
214.35
 20
387.80149
 10
214.35
 20
382.71736000000004
 10
25.0
 20
381.22383
 10
25.0
 20
387.80149
 10
20.0
 20
387.80149
 10
20.0
 20
394.41874
 10
95.0
 20
394.02501
 10
95.0
 20
389.49678
 10
100.0
 20
389.49678
 10
100.0
 20
393.99905
  0
LWPOLYLINE
  5
47
330
17
100
AcDbEntity
  8
CUT
100
AcDbPolyline
 90
14
 70
1
 10
100.0
 20
399.83844
 10
100.0
 20
404.3407
 10
95.0
 20
404.3407
 10
95.0
 20
399.81247
 10
20.0
 20
399.41874
 10
20.0
 20
406.036
 10
25.0
 20
406.036
 10
25.0
 20
412.61365
 10
214.35
 20
411.12013
 10
214.35
 20
406.036
 10
219.35
 20
406.036
 10
219.35
 20
411.08069
 10
326.99998
 20
410.23158
 10
326.99998
 20
401.01820000000004
  0
LWPOLYLINE
  5
48
330
17
100
AcDbEntity
  8
CUT
100
AcDbPolyline
 90
122
 70
1
 10
197.63793
 20
419.265
 10
200.69369
 20
418.55814
 10
203.66319
 20
417.86003
 10
118.61694
 20
417.70749
 10
99.52272
 20
417.67812
 10
87.84481
 20
417.6569
 10
83.31597
 20
417.64585
 10
76.20224
 20
417.62545
 10
71.83321000000001
 20
417.61503
 10
67.93692999999999
 20
417.61365
 10
63.33598
 20
417.6341
 10
58.29528
 20
417.68721
 10
54.26081
 20
417.75792
 10
52.91429
 20
417.78868
 10
50.82725
 20
417.84411
 10
48.73247
 20
417.90981
 10
45.57434
 20
418.0304
 10
42.60661
 20
418.16975
 10
39.85034
 20
418.32544
 10
37.42264
 20
418.48554
 10
36.10528
 20
418.58213
 10
33.90327
 20
418.75891
 10
31.380760000000002
 20
418.98222
 10
30.00309
 20
419.11517000000003
 10
28.65382
 20
419.26271
 10
27.33338
 20
419.43107000000003
 10
26.0422
 20
419.62651
 10
24.82349
 20
419.85083000000003
 10
23.3916
 20
420.14838000000003
 10
21.96293
 20
420.47189000000003
 10
20.7539
 20
420.77413
 10
20.25074
 20
420.9191
 10
20.0
 20
421.00137
 10
20.27003
 20
421.25697
 10
20.90713
 20
421.83552000000003
 10
21.37937
 20
422.24812000000003
 10
21.83247
 20
422.63067
 10
22.31397
 20
423.01372000000003
 10
22.84149
 20
423.40421000000003
 10
23.43261
 20
423.80912
 10
24.0069
 20
424.17443000000003
 10
24.652
 20
424.55621
 10
25.376170000000002
 20
424.95422
 10
26.18772
 20
425.36825
 10
27.094920000000002
 20
425.79809
 10
28.10608
 20
426.24352
 10
29.22946
 20
426.70431
 10
30.47336
 20
427.18025
 10
30.67247
 20
427.25356
 10
31.34599
 20
427.49667
 10
32.17509
 20
427.78609
 10
33.06903
 20
428.08677
 10
34.01147
 20
428.39185000000003
 10
35.66575
 20
428.89845
 10
37.38868
 20
429.39235
 10
39.123270000000005
 20
429.85943000000003
 10
40.81252
 20
430.28557
 10
41.91079
 20
430.54729000000003
 10
42.94548
 20
430.7838
 10
44.93698
 20
431.21291
 10
47.016850000000005
 20
431.62605
 10
49.183409999999995
 20
432.02039
 10
51.434979999999996
 20
432.39306
 10
53.12635
 20
432.64912
 10
54.8609
 20
432.89119
 10
55.56422
 20
432.98341
 10
56.27415
 20
433.07284
 10
57.71548
 20
433.24311
 10
59.17631
 20
433.40033
 10
60.63454
 20
433.54214
 10
62.85064
 20
433.72938
 10
65.03470999999999
 20
433.88228000000004
 10
67.21763
 20
434.00587
 10
69.39065
 20
434.10193
 10
71.6406
 20
434.17622
 10
73.93469999999999
 20
434.22901
 10
76.25958
 20
434.26254
 10
78.60188
 20
434.27903000000003
 10
80.69162
 20
434.28151
 10
82.85741
 20
434.27443
 10
85.77092
 20
434.25234
 10
88.70362
 20
434.21496
 10
88.71049
 20
425.9474
 10
93.71049
 20
425.95155
 10
93.70371
 20
434.10866
 10
97.17052
 20
433.99906
 10
99.53219
 20
433.90622
 10
101.87409
 20
433.79929
 10
104.18644
 20
433.67895
 10
106.46771
 20
433.54544
 10
108.61094
 20
433.40668
 10
110.80799
 20
433.25159
 10
113.0138
 20
433.08358
 10
115.18333
 20
432.90605
 10
118.02788
 20
432.65474
 10
120.22161
 20
432.44723
 10
122.47455
 20
432.22232
 10
124.77361
 20
431.98129
 10
127.1057
 20
431.72540000000004
 10
127.11183
 20
424.34717
 10
132.11183
 20
424.35133
 10
132.10619
 20
431.1391
 10
136.25630999999998
 20
430.61397
 10
140.44803000000002
 20
430.04909
 10
143.40985999999998
 20
429.62802
 10
145.68319
 20
429.29256
 10
148.01232
 20
428.93834
 10
150.35102
 20
428.57254
 10
152.65304
 20
428.20234
 10
155.57366
 20
427.71804000000003
 10
158.64273
 20
427.19246
 10
161.83273
 20
426.6286
 10
164.98882
 20
426.05406
 10
169.11112
 20
425.27930000000003
 10
171.57793
 20
424.80312000000004
 10
174.90596
 20
424.14637
 10
178.19165
 20
423.48276
 10
181.91694
 20
422.71264
 10
186.30019
 20
421.78375
 10
189.20463
 20
421.15478
 10
191.50538
 20
420.64859
 10
194.55535
 20
419.96651
  0
LWPOLYLINE
  5
49
330
17
100
AcDbEntity
  8
CUT
100
AcDbPolyline
 90
91
 70
1
 10
60.30959
 20
422.72901
 10
60.29658
 20
422.84504
 10
60.27067
 20
422.95893
 10
60.18293
 20
423.27447
 10
60.10557
 20
423.59271
 10
60.03868
 20
423.91332
 10
59.98232
 20
424.23594
 10
59.93655
 20
424.56024
 10
59.90143
 20
424.88586
 10
59.87699
 20
425.21246
 10
59.86325
 20
425.53969
 10
59.86024
 20
425.86718
 10
59.86796
 20
426.1946
 10
59.88639
 20
426.52160000000003
 10
59.91552
 20
426.84781
 10
59.95532
 20
427.17289
 10
60.00575
 20
427.4965
 10
60.06674
 20
427.81828
 10
60.13838
 20
428.13786
 10
60.15922
 20
428.25545
 10
60.1659
 20
428.37469
 10
60.15832
 20
428.49387
 10
60.1366
 20
428.6113
 10
60.10103
 20
428.72531000000004
 10
60.05214
 20
428.83427
 10
59.99062
 20
428.93662
 10
59.91733
 20
429.03092
 10
59.83334
 20
429.11581
 10
59.73982
 20
429.19009
 10
59.63812
 20
429.2527
 10
59.52969
 20
429.30275
 10
59.41607
 20
429.33951
 10
59.29887
 20
429.36248
 10
59.17978
 20
429.37132
 10
59.06041
 20
429.36655
 10
58.16423
 20
429.26836000000003
 10
56.76395
 20
429.10294
 10
55.73429
 20
428.97192
 10
55.39093
 20
428.92646
 10
53.73435
 20
428.69547
 10
52.05676
 20
428.44168
 10
50.0131
 20
428.10435
 10
47.94992
 20
427.73137
 10
45.88095
 20
427.32326
 10
43.81995
 20
426.88056
 10
41.75837
 20
426.39901000000003
 10
40.103570000000005
 20
425.98272000000003
 10
38.466390000000004
 20
425.54283
 10
36.85073
 20
425.07919
 10
35.26066
 20
424.59107
 10
35.1018
 20
424.52517
 10
34.95658
 20
424.43302
 10
34.8293
 20
424.31734
 10
34.72374
 20
424.18156
 10
34.643010000000004
 20
424.02969
 10
34.5895
 20
423.86624
 10
34.56479
 20
423.69603
 10
34.569630000000004
 20
423.52411
 10
34.60386
 20
423.35556
 10
34.666470000000004
 20
423.19538
 10
34.755610000000004
 20
423.04829
 10
34.868629999999996
 20
422.91865
 10
35.00221
 20
422.81031
 10
35.15237
 20
422.72646000000003
 10
35.31469
 20
422.66959
 10
35.48435
 20
422.64143
 10
36.27286
 20
422.58057
 10
37.14703
 20
422.51555
 10
39.2107
 20
422.37492000000003
 10
41.3437
 20
422.24763
 10
43.52397
 20
422.13356
 10
45.729479999999995
 20
422.03256
 10
47.93817
 20
421.94451
 10
50.128
 20
421.86927000000003
 10
52.27693
 20
421.80669
 10
54.36292
 20
421.75665
 10
56.81237
 20
421.71042
 10
59.29987
 20
421.67526
 10
59.41649
 20
421.68083
 10
59.53168
 20
421.69996000000003
 10
59.64385
 20
421.73237
 10
59.75148
 20
421.77762
 10
59.8531
 20
421.83511
 10
59.94734
 20
421.90405
 10
60.0329
 20
421.9835
 10
60.10863
 20
422.07237
 10
60.17348
 20
422.16946
 10
60.22658
 20
422.27345
 10
60.26721
 20
422.38291
 10
60.29481
 20
422.49636
 10
60.309
 20
422.61225
  0
LWPOLYLINE
  5
4A
330
17
100
AcDbEntity
  8
CUT
100
AcDbPolyline
 90
50
 70
1
 10
72.35998000000001
 20
425.79532
 10
72.34027
 20
426.10866
 10
72.28144
 20
426.41705
 10
72.18442999999999
 20
426.71564
 10
72.05075
 20
426.99971
 10
71.88253
 20
427.26479
 10
71.68241
 20
427.50669
 10
71.45354
 20
427.72161
 10
71.19955
 20
427.90614
 10
70.92443
 20
428.05739
 10
70.63253
 20
428.17297
 10
70.32844
 20
428.25104
 10
70.01696
 20
428.29039
 10
69.70301
 20
428.29039
 10
69.39153
 20
428.25104
 10
69.08744
 20
428.17297
 10
68.79554
 20
428.05739
 10
68.52042
 20
427.90614
 10
68.26642
 20
427.72161
 10
68.03756
 20
427.50669
 10
67.83744
 20
427.26479
 10
67.66922
 20
426.99971
 10
67.53554
 20
426.71564
 10
67.43853
 20
426.41705
 10
67.3797
 20
426.10866
 10
67.35998000000001
 20
425.79532
 10
67.3797
 20
425.48199
 10
67.43853
 20
425.1736
 10
67.53554
 20
424.87501000000003
 10
67.66922
 20
424.59094
 10
67.83744
 20
424.32586000000003
 10
68.03756
 20
424.08396
 10
68.26642
 20
423.86904
 10
68.52042
 20
423.6845
 10
68.79554
 20
423.53326
 10
69.08744
 20
423.41768
 10
69.39153
 20
423.33961
 10
69.70301
 20
423.30026
 10
70.01696
 20
423.30026
 10
70.32844
 20
423.33961
 10
70.63253
 20
423.41768
 10
70.92443
 20
423.53326
 10
71.19955
 20
423.6845
 10
71.45354
 20
423.86904
 10
71.68241
 20
424.08396
 10
71.88253
 20
424.32586000000003
 10
72.05075
 20
424.59094
 10
72.18442999999999
 20
424.87501000000003
 10
72.28144
 20
425.1736
 10
72.34027
 20
425.48199
  0
LWPOLYLINE
  5
4B
330
17
100
AcDbEntity
  8
CUT
100
AcDbPolyline
 90
50
 70
1
 10
112.40601
 20
425.23332
 10
112.3863
 20
425.54666000000003
 10
112.32747
 20
425.85505
 10
112.23045
 20
426.15364
 10
112.09678
 20
426.43771
 10
111.92855
 20
426.70279
 10
111.72843
 20
426.94469
 10
111.49957
 20
427.15961
 10
111.24558
 20
427.34414
 10
110.97046
 20
427.49539
 10
110.67855
 20
427.61097
 10
110.37446
 20
427.68904000000003
 10
110.06299
 20
427.72839
 10
109.74903
 20
427.72839
 10
109.43756
 20
427.68904000000003
 10
109.13347
 20
427.61097
 10
108.84156
 20
427.49539
 10
108.56644
 20
427.34414
 10
108.31245
 20
427.15961
 10
108.08359
 20
426.94469
 10
107.88347
 20
426.70279
 10
107.71524
 20
426.43771
 10
107.58157
 20
426.15364
 10
107.48455
 20
425.85505
 10
107.42572
 20
425.54666000000003
 10
107.40601
 20
425.23332
 10
107.42572
 20
424.91999
 10
107.48455
 20
424.6116
 10
107.58157
 20
424.31301
 10
107.71524
 20
424.02894000000003
 10
107.88347
 20
423.76386
 10
108.08359
 20
423.52196000000004
 10
108.31245
 20
423.30704000000003
 10
108.56644
 20
423.1225
 10
108.84156
 20
422.97126000000003
 10
109.13347
 20
422.85568
 10
109.43756
 20
422.77761
 10
109.74903
 20
422.73826
 10
110.06299
 20
422.73826
 10
110.37446
 20
422.77761
 10
110.67855
 20
422.85568
 10
110.97046
 20
422.97126000000003
 10
111.24558
 20
423.1225
 10
111.49957
 20
423.30704000000003
 10
111.72843
 20
423.52196000000004
 10
111.92855
 20
423.76386
 10
112.09678
 20
424.02894000000003
 10
112.23045
 20
424.31301
 10
112.32747
 20
424.6116
 10
112.3863
 20
424.91999
  0
LWPOLYLINE
  5
4C
330
17
100
AcDbEntity
  8
CUT
100
AcDbPolyline
 90
122
 70
1
 10
383.21853999999996
 20
431.92865
 10
380.16857
 20
431.24658
 10
377.86782
 20
430.74038
 10
374.96338
 20
430.11141
 10
370.58013
 20
429.18253
 10
366.85483999999997
 20
428.4124
 10
363.56915
 20
427.74879
 10
360.24112
 20
427.09204
 10
357.77431
 20
426.61586
 10
353.65201
 20
425.8411
 10
350.49591999999996
 20
425.26657
 10
347.30592
 20
424.7027
 10
344.23685
 20
424.17713000000003
 10
341.31623
 20
423.69282
 10
339.01421
 20
423.32263
 10
336.67551
 20
422.95683
 10
334.34637999999995
 20
422.6026
 10
332.07304999999997
 20
422.26714
 10
329.11122
 20
421.84608000000003
 10
324.91949999999997
 20
421.28119
 10
320.76937999999996
 20
420.75606
 10
320.77502
 20
427.54384
 10
315.77502
 20
427.54799
 10
315.76889
 20
420.16976
 10
313.4368
 20
419.91387000000003
 10
311.13774
 20
419.67284
 10
308.8848
 20
419.44793
 10
306.69106999999997
 20
419.24042000000003
 10
303.84652
 20
418.98911
 10
301.67699
 20
418.81158
 10
299.47118
 20
418.64357
 10
297.27413
 20
418.48848
 10
295.1309
 20
418.34972
 10
292.84963
 20
418.21622
 10
290.53728
 20
418.09587
 10
288.19538
 20
417.98894
 10
285.83371
 20
417.8961
 10
282.3669
 20
417.78651
 10
282.37368
 20
425.94362
 10
277.37368
 20
425.94777
 10
277.36681
 20
417.6802
 10
274.43411
 20
417.64282000000003
 10
271.5206
 20
417.62073
 10
269.35481
 20
417.61365
 10
267.26507
 20
417.61613
 10
264.92277
 20
417.63262000000003
 10
262.59789
 20
417.66615
 10
260.30379
 20
417.71895
 10
258.05384
 20
417.79323
 10
255.88081999999997
 20
417.88929
 10
253.69789999999998
 20
418.01288
 10
251.51382999999998
 20
418.16578
 10
249.29773
 20
418.35303
 10
247.8395
 20
418.49483
 10
246.37867
 20
418.65206
 10
244.93733999999998
 20
418.82233
 10
244.22741
 20
418.91175
 10
243.52409
 20
419.00397
 10
241.78954
 20
419.24605
 10
240.09816999999998
 20
419.5021
 10
237.8466
 20
419.87478
 10
235.68004
 20
420.26911
 10
233.60017
 20
420.68225
 10
231.60867
 20
421.11136
 10
230.57397999999998
 20
421.34787
 10
229.47571
 20
421.6096
 10
227.78645999999998
 20
422.03573
 10
226.05186999999998
 20
422.50281
 10
224.32894
 20
422.99671
 10
222.67466
 20
423.50332000000003
 10
221.73221999999998
 20
423.8084
 10
220.83828
 20
424.10907000000003
 10
220.00918
 20
424.3985
 10
219.33566
 20
424.6416
 10
219.13655
 20
424.71491000000003
 10
217.89264999999997
 20
425.19085
 10
216.76926999999998
 20
425.65164
 10
215.75811
 20
426.09707000000003
 10
214.85091
 20
426.52691
 10
214.03936
 20
426.94094
 10
213.31518999999997
 20
427.33896
 10
212.67009
 20
427.72073
 10
212.0958
 20
428.08604
 10
211.50467999999998
 20
428.49095
 10
210.97716
 20
428.88145000000003
 10
210.49566
 20
429.26449
 10
210.04255999999998
 20
429.64705000000004
 10
209.57031999999998
 20
430.05964
 10
208.93321999999998
 20
430.6382
 10
208.66319
 20
430.89379
 10
208.91393
 20
430.97607
 10
209.41708999999997
 20
431.12104
 10
210.62612
 20
431.42327
 10
212.05479
 20
431.74679000000003
 10
213.48667999999998
 20
432.04433
 10
214.70539
 20
432.26865
 10
215.99657
 20
432.46409
 10
217.31700999999998
 20
432.63246
 10
218.66627999999997
 20
432.78000000000003
 10
220.04395
 20
432.91294
 10
222.56645999999998
 20
433.13625
 10
224.76846999999998
 20
433.31304
 10
226.08583
 20
433.40962
 10
228.51352999999997
 20
433.56972
 10
231.26979999999998
 20
433.72542
 10
234.23753
 20
433.86477
 10
237.39566
 20
433.98535
 10
239.49043999999998
 20
434.05106
 10
241.57747999999998
 20
434.10649
 10
242.92399999999998
 20
434.13725
 10
246.95846999999998
 20
434.20795
 10
251.99917
 20
434.26106
 10
256.60012
 20
434.28151
 10
260.4964
 20
434.28013
 10
264.86543
 20
434.26971000000003
 10
271.97916
 20
434.24931000000004
 10
276.508
 20
434.23826
 10
288.18591
 20
434.21705000000003
 10
307.28013
 20
434.18767
 10
392.32638
 20
434.03514
 10
389.35688
 20
433.33703
 10
386.30111999999997
 20
432.63016
  0
LWPOLYLINE
  5
4D
330
17
100
AcDbEntity
  8
CUT
100
AcDbPolyline
 90
91
 70
1
 10
248.97218999999998
 20
429.28291
 10
248.95799999999997
 20
429.3988
 10
248.9304
 20
429.51225
 10
248.88977
 20
429.62172
 10
248.83666999999997
 20
429.7257
 10
248.77182
 20
429.82279
 10
248.69608999999997
 20
429.91167
 10
248.61052999999998
 20
429.99111
 10
248.51628999999997
 20
430.06005
 10
248.41467
 20
430.11754
 10
248.30703999999997
 20
430.1628
 10
248.19486999999998
 20
430.19521000000003
 10
248.07968
 20
430.21433
 10
247.96305999999998
 20
430.2199
 10
245.47555999999997
 20
430.18475
 10
243.02611
 20
430.13852
 10
240.94011999999998
 20
430.08847000000003
 10
238.79118999999997
 20
430.0259
 10
236.60136
 20
429.95065
 10
234.39266999999998
 20
429.8626
 10
232.18715999999998
 20
429.76161
 10
230.00689
 20
429.64754
 10
227.87389
 20
429.52025000000003
 10
225.81022
 20
429.37961
 10
224.93605
 20
429.31459
 10
224.14754
 20
429.25374
 10
223.97788
 20
429.22557
 10
223.81555999999998
 20
429.1687
 10
223.66539999999998
 20
429.08485
 10
223.53181999999998
 20
428.97651
 10
223.41879999999998
 20
428.84688
 10
223.32966
 20
428.69979
 10
223.26704999999998
 20
428.5396
 10
223.23281999999998
 20
428.37105
 10
223.22797999999997
 20
428.19913
 10
223.25268999999997
 20
428.02892
 10
223.3062
 20
427.86547
 10
223.38692999999998
 20
427.7136
 10
223.49248999999998
 20
427.57782000000003
 10
223.61977
 20
427.46215
 10
223.76498999999998
 20
427.36999000000003
 10
223.92385
 20
427.30409000000003
 10
225.51391999999998
 20
426.81597
 10
227.12957999999998
 20
426.35233
 10
228.76675999999998
 20
425.91245000000004
 10
230.42156
 20
425.49616000000003
 10
232.48314
 20
425.01460000000003
 10
234.54413999999997
 20
424.5719
 10
236.61310999999998
 20
424.16379
 10
238.67629
 20
423.79081
 10
240.71994999999998
 20
423.45348
 10
242.39754
 20
423.19969000000003
 10
244.05411999999998
 20
422.9687
 10
244.39747999999997
 20
422.92324
 10
245.42713999999998
 20
422.79222
 10
246.82742
 20
422.6268
 10
247.72359999999998
 20
422.52861
 10
247.84296999999998
 20
422.52384
 10
247.96205999999998
 20
422.53268
 10
248.07925999999998
 20
422.55565
 10
248.19288
 20
422.59242
 10
248.30131
 20
422.64246
 10
248.40301
 20
422.70507000000003
 10
248.49652999999998
 20
422.77935
 10
248.58051999999998
 20
422.86424
 10
248.65381
 20
422.95854
 10
248.71533
 20
423.06089000000003
 10
248.76422
 20
423.16985
 10
248.79978999999997
 20
423.28386
 10
248.82151
 20
423.40129
 10
248.82908999999998
 20
423.52047
 10
248.82241
 20
423.63971
 10
248.80156999999997
 20
423.7573
 10
248.72993
 20
424.07688
 10
248.66894
 20
424.39866
 10
248.61851
 20
424.72227
 10
248.57871
 20
425.04735
 10
248.54958
 20
425.37357000000003
 10
248.53114999999997
 20
425.70056
 10
248.52343
 20
426.02798
 10
248.52643999999998
 20
426.35548
 10
248.54018
 20
426.6827
 10
248.56462
 20
427.0093
 10
248.59974
 20
427.33492
 10
248.64551
 20
427.65922
 10
248.70186999999999
 20
427.98184000000003
 10
248.76876
 20
428.30245
 10
248.84611999999998
 20
428.62069
 10
248.93385999999998
 20
428.93623
 10
248.95977
 20
429.05012
 10
248.97278
 20
429.16615
  0
LWPOLYLINE
  5
4E
330
17
100
AcDbEntity
  8
CUT
100
AcDbPolyline
 90
50
 70
1
 10
261.02317
 20
426.09984000000003
 10
261.00345999999996
 20
426.41317
 10
260.94462999999996
 20
426.72156
 10
260.84762
 20
427.02015
 10
260.71394
 20
427.30422
 10
260.54571999999996
 20
427.5693
 10
260.3456
 20
427.81121
 10
260.11672999999996
 20
428.02612
 10
259.86274
 20
428.21066
 10
259.58762
 20
428.36191
 10
259.29571999999996
 20
428.47748
 10
258.99163
 20
428.55556
 10
258.68014999999997
 20
428.59491
 10
258.3662
 20
428.59491
 10
258.05472
 20
428.55556
 10
257.75063
 20
428.47748
 10
257.45873
 20
428.36191
 10
257.18361
 20
428.21066
 10
256.92960999999997
 20
428.02612
 10
256.70074999999997
 20
427.81121
 10
256.50063
 20
427.5693
 10
256.33241
 20
427.30422
 10
256.19872999999995
 20
427.02015
 10
256.10172
 20
426.72156
 10
256.04289
 20
426.41317
 10
256.02317
 20
426.09984000000003
 10
256.04289
 20
425.78651
 10
256.10172
 20
425.47811
 10
256.19872999999995
 20
425.17953
 10
256.33241
 20
424.89545
 10
256.50063
 20
424.63038
 10
256.70074999999997
 20
424.38847
 10
256.92960999999997
 20
424.17356
 10
257.18361
 20
423.98902
 10
257.45873
 20
423.83777000000003
 10
257.75063
 20
423.7222
 10
258.05472
 20
423.64412
 10
258.3662
 20
423.60477000000003
 10
258.68014999999997
 20
423.60477000000003
 10
258.99163
 20
423.64412
 10
259.29571999999996
 20
423.7222
 10
259.58762
 20
423.83777000000003
 10
259.86274
 20
423.98902
 10
260.11672999999996
 20
424.17356
 10
260.3456
 20
424.38847
 10
260.54571999999996
 20
424.63038
 10
260.71394
 20
424.89545
 10
260.84762
 20
425.17953
 10
260.94462999999996
 20
425.47811
 10
261.00345999999996
 20
425.78651
  0
LWPOLYLINE
  5
4F
330
17
100
AcDbEntity
  8
CUT
100
AcDbPolyline
 90
50
 70
1
 10
301.06919999999997
 20
426.66184
 10
301.04949
 20
426.97517
 10
300.99066
 20
427.28356
 10
300.89364
 20
427.58215
 10
300.75996999999995
 20
427.86622
 10
300.59173999999996
 20
428.1313
 10
300.39162
 20
428.37321000000003
 10
300.16276
 20
428.58812
 10
299.90877
 20
428.77266000000003
 10
299.63365
 20
428.92391
 10
299.34173999999996
 20
429.03948
 10
299.03765
 20
429.11756
 10
298.72618
 20
429.15691
 10
298.41222
 20
429.15691
 10
298.10075
 20
429.11756
 10
297.79666
 20
429.03948
 10
297.50475
 20
428.92391
 10
297.22963
 20
428.77266000000003
 10
296.97564
 20
428.58812
 10
296.74678
 20
428.37321000000003
 10
296.54666
 20
428.1313
 10
296.37843
 20
427.86622
 10
296.24476
 20
427.58215
 10
296.14774
 20
427.28356
 10
296.08891
 20
426.97517
 10
296.06919999999997
 20
426.66184
 10
296.08891
 20
426.34851000000003
 10
296.14774
 20
426.04011
 10
296.24476
 20
425.74153
 10
296.37843
 20
425.45745
 10
296.54666
 20
425.19238
 10
296.74678
 20
424.95047
 10
296.97564
 20
424.73556
 10
297.22963
 20
424.55102
 10
297.50475
 20
424.39977
 10
297.79666
 20
424.2842
 10
298.10075
 20
424.20612
 10
298.41222
 20
424.16677
 10
298.72618
 20
424.16677
 10
299.03765
 20
424.20612
 10
299.34173999999996
 20
424.2842
 10
299.63365
 20
424.39977
 10
299.90877
 20
424.55102
 10
300.16276
 20
424.73556
 10
300.39162
 20
424.95047
 10
300.59173999999996
 20
425.19238
 10
300.75996999999995
 20
425.45745
 10
300.89364
 20
425.74153
 10
300.99066
 20
426.04011
 10
301.04949
 20
426.34851000000003
  0
LWPOLYLINE
  5
50
330
17
100
AcDbEntity
  8
CUT
100
AcDbPolyline
 90
158
 70
1
 10
478.26025
 20
383.15304000000003
 10
480.84189000000003
 20
382.57964000000004
 10
485.8914
 20
381.43016
 10
436.90422
 20
381.35016
 10
387.91706999999997
 20
381.25711
 10
379.14394
 20
381.23313
 10
372.06781
 20
381.22383
 10
368.23521
 20
381.23995
 10
364.0606
 20
381.28387000000004
 10
361.8423
 20
381.31897000000004
 10
359.58835
 20
381.36607000000004
 10
356.10579
 20
381.46405000000004
 10
354.07216
 20
381.5373
 10
352.11904
 20
381.6202
 10
350.27893
 20
381.71064
 10
348.57405
 20
381.80604
 10
345.59454999999997
 20
382.00149000000005
 10
343.58334
 20
382.15768
 10
341.56274
 20
382.33113000000003
 10
340.40292
 20
382.43872000000005
 10
339.26565999999997
 20
382.55802
 10
338.15132
 20
382.69401000000005
 10
337.06024
 20
382.85163
 10
336.03872
 20
383.03189000000003
 10
334.84775
 20
383.27043000000003
 10
333.65942
 20
383.52970000000005
 10
332.64582
 20
383.77214000000004
 10
332.21705
 20
383.88862
 10
331.99998
 20
383.95481
 10
332.22703
 20
384.16061
 10
332.36899
 20
384.28646000000003
 10
332.50687
 20
384.40676
 10
332.76489
 20
384.62713
 10
332.99019
 20
384.81449000000003
 10
333.17181
 20
384.96165
 10
333.36982
 20
385.11808
 10
333.57175
 20
385.27388
 10
333.77936
 20
385.42974000000004
 10
333.9944
 20
385.58637000000004
 10
334.2186
 20
385.74444
 10
334.33468
 20
385.82423
 10
334.51439
 20
385.94511
 10
334.70149
 20
386.06769
 10
334.96366
 20
386.23425000000003
 10
335.13803
 20
386.34187000000003
 10
335.31944
 20
386.45126000000005
 10
335.57283
 20
386.59984000000003
 10
335.77195
 20
386.71332
 10
335.97920999999997
 20
386.82854000000003
 10
336.20088
 20
386.94869
 10
336.43183
 20
387.07065
 10
336.67241
 20
387.19442000000004
 10
336.92298
 20
387.31998000000004
 10
337.18387
 20
387.44733
 10
337.45546
 20
387.57647000000003
 10
337.7381
 20
387.70737
 10
338.03213
 20
387.84003
 10
338.33792
 20
387.97444
 10
338.65581
 20
388.11059
 10
339.15613
 20
388.31807000000003
 10
339.50584
 20
388.45853
 10
339.86888999999996
 20
388.6007
 10
340.43923
 20
388.81713
 10
341.00671
 20
389.0249
 10
341.38027
 20
389.15586
 10
341.76135999999997
 20
389.28692
 10
342.11219
 20
389.40545000000003
 10
342.56601
 20
389.55584000000005
 10
342.94064
 20
389.67755
 10
343.32486
 20
389.80016
 10
343.71801
 20
389.92334
 10
344.1587
 20
390.05875000000003
 10
344.62154
 20
390.19800000000004
 10
344.97398
 20
390.30206000000004
 10
345.44992
 20
390.43991
 10
345.81059
 20
390.54239
 10
346.17374
 20
390.64387
 10
346.66062
 20
390.77731
 10
347.39312
 20
390.97252000000003
 10
347.88032
 20
391.09877
 10
348.36438
 20
391.22144000000003
 10
348.84332
 20
391.34014
 10
349.25659
 20
391.44047
 10
350.11697
 20
391.64321
 10
350.98327
 20
391.83916
 10
351.49909
 20
391.95204
 10
351.91363
 20
392.04085000000003
 10
352.75611
 20
392.21619000000004
 10
353.6163
 20
392.38825
 10
354.49401
 20
392.55675
 10
355.38904
 20
392.72139000000004
 10
356.3012
 20
392.88188
 10
357.23025
 20
393.03795
 10
358.17598
 20
393.18931000000003
 10
359.11674999999997
 20
393.33252000000005
 10
360.00608
 20
393.46127
 10
360.90869
 20
393.58548
 10
361.43302
 20
393.65467
 10
361.88259
 20
393.7121
 10
362.78513
 20
393.82221000000004
 10
363.68993
 20
393.92567
 10
364.59556
 20
394.02234000000004
 10
365.50059
 20
394.11213000000004
 10
366.34154
 20
394.18955
 10
367.29348
 20
394.27033
 10
368.23996
 20
394.34361
 10
369.17923
 20
394.4096
 10
370.1094
 20
394.46858000000003
 10
371.02851
 20
394.52086
 10
371.93458
 20
394.56684
 10
372.84224
 20
394.60761
 10
373.99273
 20
394.65213
 10
374.92467
 20
394.68267000000003
 10
376.10231
 20
394.71472
 10
377.05324
 20
394.73565
 10
378.25093
 20
394.75626
 10
379.45617
 20
394.77113
 10
380.66602
 20
394.78078000000005
 10
381.90242
 20
394.7858
 10
383.17385
 20
394.78650000000005
 10
383.17948
 20
388.00640000000004
 10
388.17948
 20
388.01055
 10
388.17389
 20
394.75551
 10
390.31347999999997
 20
394.72580000000005
 10
392.41901
 20
394.68533
 10
394.52058
 20
394.63269
 10
396.69479
 20
394.56465000000003
 10
398.69422
 20
394.48927000000003
 10
400.67724999999996
 20
394.40214000000003
 10
402.60393
 20
394.3056
 10
404.48098
 20
394.20028
 10
406.62588
 20
394.06600000000003
 10
408.82342
 20
393.91337000000004
 10
411.01332
 20
393.74658
 10
413.12718
 20
393.57224
 10
415.16325
 20
393.39243000000005
 10
417.25522
 20
393.19556
 10
419.39824999999996
 20
392.98165
 10
421.57555
 20
392.75216
 10
421.58083
 20
386.40618
 10
426.58082
 20
386.41033000000004
 10
426.57603
 20
392.18233000000004
 10
428.79338
 20
391.91112000000004
 10
431.04465
 20
391.62369
 10
433.26731
 20
391.32805
 10
435.41466
 20
391.0316
 10
439.2664
 20
390.47206
 10
443.15242
 20
389.87297
 10
446.60504
 20
389.31349
 10
450.18922
 20
388.70556000000005
 10
453.7698
 20
388.07248000000004
 10
457.21145
 20
387.44167000000004
 10
460.77463
 20
386.76552000000004
 10
464.33641
 20
386.06804
 10
467.80102
 20
385.3705
 10
471.34278
 20
384.63824
 10
473.77517
 20
384.12440000000004
 10
475.70347
 20
383.7106
  0
LWPOLYLINE
  5
51
330
17
100
AcDbEntity
  8
CUT
100
AcDbPolyline
 90
117
 70
1
 10
396.38701
 20
385.67806
 10
396.62969
 20
385.64206
 10
396.87473
 20
385.63002
 10
402.42999
 20
385.63002
 10
402.48206
 20
385.56756
 10
402.5227
 20
385.52160000000003
 10
402.56446
 20
385.47664000000003
 10
402.62914
 20
385.41117
 10
402.67358
 20
385.36886000000004
 10
402.74215
 20
385.30747
 10
402.837
 20
385.22963000000004
 10
402.91059
 20
385.17435
 10
402.96074999999996
 20
385.13902
 10
403.06361
 20
385.07210000000003
 10
403.11624
 20
385.04056
 10
403.19659
 20
384.99569
 10
403.30619
 20
384.94052
 10
403.41837
 20
384.89079000000004
 10
403.47533999999996
 20
384.86801
 10
403.56181
 20
384.83647
 10
403.67877999999996
 20
384.79942
 10
403.73792
 20
384.78305
 10
403.82732999999996
 20
384.76124000000004
 10
403.94768
 20
384.7373
 10
404.00826
 20
384.72755
 10
404.09952999999996
 20
384.71573
 10
404.16059
 20
384.70971000000003
 10
404.25241
 20
384.7035
 10
404.37508
 20
384.70049
 10
404.49775
 20
384.7035
 10
404.58957
 20
384.70971000000003
 10
404.65064
 20
384.71573
 10
404.71153
 20
384.72324000000003
 10
404.80249
 20
384.7373
 10
404.92283
 20
384.76124000000004
 10
405.01225
 20
384.78305
 10
405.07138
 20
384.79942
 10
405.18836
 20
384.83647
 10
405.27482
 20
384.86801
 10
405.33179
 20
384.89079000000004
 10
405.44397
 20
384.94052
 10
405.55357
 20
384.99569
 10
405.63392999999996
 20
385.04056
 10
405.68656
 20
385.07210000000003
 10
405.78941
 20
385.13902
 10
405.83958
 20
385.17435
 10
405.91316
 20
385.22963000000004
 10
406.00801
 20
385.30747
 10
406.07658
 20
385.36886000000004
 10
406.12102
 20
385.41117
 10
406.1857
 20
385.47664000000003
 10
406.22746
 20
385.52160000000003
 10
406.2681
 20
385.56756
 10
406.32018
 20
385.63002
 10
409.87473
 20
385.63002
 10
410.11977
 20
385.64206
 10
410.36246
 20
385.67806
 10
410.60044
 20
385.73767000000004
 10
410.83144
 20
385.82032000000004
 10
411.05322
 20
385.92522
 10
411.26365999999996
 20
386.05135
 10
411.46071
 20
386.19749
 10
411.6425
 20
386.36225
 10
411.80726
 20
386.54404
 10
411.95340999999996
 20
386.74109000000004
 10
412.07953
 20
386.95153000000005
 10
412.18443
 20
387.17331
 10
412.26707999999996
 20
387.40431
 10
412.32669
 20
387.64229
 10
412.36269
 20
387.88498000000004
 10
412.37473
 20
388.13002
 10
412.36269
 20
388.37506
 10
412.32669
 20
388.61774
 10
412.26707999999996
 20
388.85573
 10
412.18443
 20
389.08673000000005
 10
412.07953
 20
389.30851
 10
411.95340999999996
 20
389.51894000000004
 10
411.80726
 20
389.716
 10
411.6425
 20
389.89779000000004
 10
411.46071
 20
390.06255000000004
 10
411.26365999999996
 20
390.20869000000005
 10
411.05322
 20
390.33482000000004
 10
410.83144
 20
390.43972
 10
410.60044
 20
390.52237
 10
410.36246
 20
390.58198000000004
 10
410.11977
 20
390.61798000000005
 10
409.87473
 20
390.63002
 10
396.87473
 20
390.63002
 10
396.62969
 20
390.61798000000005
 10
396.38701
 20
390.58198000000004
 10
396.14902
 20
390.52237
 10
395.91802
 20
390.43972
 10
395.69624
 20
390.33482000000004
 10
395.48581
 20
390.20869000000005
 10
395.28875
 20
390.06255000000004
 10
395.10696
 20
389.89779000000004
 10
394.9422
 20
389.716
 10
394.79606
 20
389.51894000000004
 10
394.66993
 20
389.30851
 10
394.56503
 20
389.08673000000005
 10
394.48238
 20
388.85573
 10
394.42277
 20
388.61774
 10
394.38677
 20
388.37506
 10
394.37473
 20
388.13002
 10
394.38677
 20
387.88498000000004
 10
394.42277
 20
387.64229
 10
394.48238
 20
387.40431
 10
394.56503
 20
387.17331
 10
394.66993
 20
386.95153000000005
 10
394.79606
 20
386.74109000000004
 10
394.9422
 20
386.54404
 10
395.10696
 20
386.36225
 10
395.28875
 20
386.19749
 10
395.48581
 20
386.05135
 10
395.69624
 20
385.92522
 10
395.91802
 20
385.82032000000004
 10
396.14902
 20
385.73767000000004
  0
LWPOLYLINE
  5
52
330
17
100
AcDbEntity
  8
CUT
100
AcDbPolyline
 90
50
 70
1
 10
366.82905999999997
 20
387.76249
 10
366.80934
 20
388.07583
 10
366.75050999999996
 20
388.38422
 10
366.6535
 20
388.68280000000004
 10
366.51982
 20
388.96688
 10
366.35159999999996
 20
389.23196
 10
366.15148
 20
389.47386
 10
365.92262
 20
389.68878
 10
365.66862
 20
389.87331
 10
365.3935
 20
390.02456
 10
365.10159999999996
 20
390.14013
 10
364.79751
 20
390.21821
 10
364.48602999999997
 20
390.25756
 10
364.17208
 20
390.25756
 10
363.8606
 20
390.21821
 10
363.55651
 20
390.14013
 10
363.26461
 20
390.02456
 10
362.98949
 20
389.87331
 10
362.7355
 20
389.68878
 10
362.50663
 20
389.47386
 10
362.30651
 20
389.23196
 10
362.13829
 20
388.96688
 10
362.00461
 20
388.68280000000004
 10
361.9076
 20
388.38422
 10
361.84877
 20
388.07583
 10
361.82905999999997
 20
387.76249
 10
361.84877
 20
387.44916
 10
361.9076
 20
387.14077000000003
 10
362.00461
 20
386.84218000000004
 10
362.13829
 20
386.55811
 10
362.30651
 20
386.29303000000004
 10
362.50663
 20
386.05112
 10
362.7355
 20
385.83621
 10
362.98949
 20
385.65167
 10
363.26461
 20
385.50042
 10
363.55651
 20
385.38485000000003
 10
363.8606
 20
385.30677000000003
 10
364.17208
 20
385.26743000000005
 10
364.48602999999997
 20
385.26743000000005
 10
364.79751
 20
385.30677000000003
 10
365.10159999999996
 20
385.38485000000003
 10
365.3935
 20
385.50042
 10
365.66862
 20
385.65167
 10
365.92262
 20
385.83621
 10
366.15148
 20
386.05112
 10
366.35159999999996
 20
386.29303000000004
 10
366.51982
 20
386.55811
 10
366.6535
 20
386.84218000000004
 10
366.75050999999996
 20
387.14077000000003
 10
366.80934
 20
387.44916
  0
LWPOLYLINE
  5
53
330
17
100
AcDbEntity
  8
CUT
100
AcDbPolyline
 90
158
 70
1
 10
541.02987
 20
410.86240000000004
 10
539.10157
 20
410.44860000000006
 10
536.66918
 20
409.93476000000004
 10
533.12742
 20
409.20249000000007
 10
529.66281
 20
408.50496000000004
 10
526.10103
 20
407.80748000000006
 10
522.5378499999999
 20
407.13133000000005
 10
519.0962
 20
406.50051
 10
515.51562
 20
405.86744000000004
 10
511.93143999999995
 20
405.25950000000006
 10
508.47882
 20
404.70002000000005
 10
504.59279999999995
 20
404.10093000000006
 10
500.74105999999995
 20
403.54140000000007
 10
498.59371
 20
403.2449500000001
 10
496.37104999999997
 20
402.94931
 10
494.11978
 20
402.66188000000005
 10
491.90243
 20
402.39067000000006
 10
491.90721999999994
 20
408.16267000000005
 10
486.90722999999997
 20
408.16682000000003
 10
486.90194999999994
 20
401.82084000000003
 10
484.72465
 20
401.59135000000003
 10
482.58162
 20
401.37743000000006
 10
480.48965
 20
401.18057000000005
 10
478.45358
 20
401.00076000000007
 10
476.33971999999994
 20
400.82641000000007
 10
474.14982
 20
400.65963000000005
 10
471.95228
 20
400.50699000000003
 10
469.80737999999997
 20
400.3727200000001
 10
467.93032999999997
 20
400.26739000000003
 10
466.00365
 20
400.17086000000006
 10
464.02061999999995
 20
400.08372
 10
462.02119
 20
400.00835000000006
 10
459.84698
 20
399.94031000000007
 10
457.74541
 20
399.88767000000007
 10
455.63987999999995
 20
399.84720000000004
 10
453.50028999999995
 20
399.81749
 10
453.50588
 20
406.56244000000004
 10
448.50588
 20
406.56660000000005
 10
448.50025
 20
399.78650000000005
 10
447.22882
 20
399.78720000000004
 10
445.99242
 20
399.79222000000004
 10
444.78256999999996
 20
399.80187000000006
 10
443.57732999999996
 20
399.81674000000004
 10
442.37964
 20
399.8373500000001
 10
441.42870999999997
 20
399.85828000000004
 10
440.25106999999997
 20
399.89032000000003
 10
439.31913
 20
399.92087000000004
 10
438.16864
 20
399.96538000000004
 10
437.26097999999996
 20
400.00616
 10
436.35490999999996
 20
400.05213000000003
 10
435.4358
 20
400.10442000000006
 10
434.50563
 20
400.1634
 10
433.56636
 20
400.22939
 10
432.61987999999997
 20
400.30267000000003
 10
431.66794
 20
400.38345000000004
 10
430.82698999999997
 20
400.46087000000006
 10
429.92195999999996
 20
400.55066000000005
 10
429.01633
 20
400.64733000000007
 10
428.11152999999996
 20
400.75079000000005
 10
427.20899
 20
400.8609000000001
 10
426.75942
 20
400.91833
 10
426.23508999999996
 20
400.9875200000001
 10
425.33248
 20
401.11173
 10
424.44314999999995
 20
401.24048000000005
 10
423.50237999999996
 20
401.38368
 10
422.55665
 20
401.53505000000007
 10
421.6276
 20
401.69111000000004
 10
420.71543999999994
 20
401.85161000000005
 10
419.82041
 20
402.01625000000007
 10
418.94269999999995
 20
402.18475000000007
 10
418.08250999999996
 20
402.35681000000005
 10
417.24003
 20
402.53215000000006
 10
416.82548999999995
 20
402.62095000000005
 10
416.30967
 20
402.73384000000004
 10
415.44336999999996
 20
402.92979
 10
414.58299
 20
403.13253000000003
 10
414.16972
 20
403.2328600000001
 10
413.69077999999996
 20
403.35156000000006
 10
413.20671999999996
 20
403.47422000000006
 10
412.71952
 20
403.60048000000006
 10
411.98702
 20
403.79569000000004
 10
411.50014
 20
403.92912000000007
 10
411.13698999999997
 20
404.03061
 10
410.77632
 20
404.13308000000006
 10
410.30037999999996
 20
404.27094000000005
 10
409.94793999999996
 20
404.37499
 10
409.4851
 20
404.51425000000006
 10
409.04440999999997
 20
404.64966000000004
 10
408.65126
 20
404.77284000000003
 10
408.26703999999995
 20
404.89545000000004
 10
407.89241
 20
405.01716000000005
 10
407.43859
 20
405.16755000000006
 10
407.08775999999995
 20
405.28608
 10
406.70667
 20
405.41713000000004
 10
406.33311
 20
405.54809000000006
 10
405.76563
 20
405.7558700000001
 10
405.19529
 20
405.97229000000004
 10
404.83223999999996
 20
406.11447000000004
 10
404.48253
 20
406.25493000000006
 10
403.98220999999995
 20
406.46241000000003
 10
403.66432
 20
406.59856
 10
403.35853
 20
406.73297
 10
403.06449999999995
 20
406.86563000000007
 10
402.78186
 20
406.99653000000006
 10
402.51027
 20
407.12566000000004
 10
402.24938
 20
407.25302000000005
 10
401.99881
 20
407.37858000000006
 10
401.75822999999997
 20
407.50235000000004
 10
401.52727999999996
 20
407.62431000000004
 10
401.30560999999994
 20
407.74446000000006
 10
401.09835
 20
407.85968
 10
400.89923
 20
407.97316000000006
 10
400.64583999999996
 20
408.12174000000005
 10
400.46443
 20
408.23113000000006
 10
400.29006
 20
408.33875000000006
 10
400.02788999999996
 20
408.50531000000007
 10
399.84078999999997
 20
408.62789000000004
 10
399.66107999999997
 20
408.74877000000004
 10
399.54499999999996
 20
408.82856000000004
 10
399.32079999999996
 20
408.98663000000005
 10
399.10576
 20
409.14326000000005
 10
398.89815
 20
409.2991200000001
 10
398.69622
 20
409.4549200000001
 10
398.49821
 20
409.6113500000001
 10
398.31658999999996
 20
409.75851000000006
 10
398.09128999999996
 20
409.94587000000007
 10
397.83326999999997
 20
410.16623000000004
 10
397.69539
 20
410.28653
 10
397.55343
 20
410.41238000000004
 10
397.32638
 20
410.61819
 10
397.54344999999995
 20
410.68437000000006
 10
397.97222
 20
410.80085
 10
398.98582
 20
411.04329000000007
 10
400.17415
 20
411.30256
 10
401.36512
 20
411.54111000000006
 10
402.38664
 20
411.72137000000004
 10
403.47772
 20
411.87899000000004
 10
404.59205999999995
 20
412.01497000000006
 10
405.72932
 20
412.13428000000005
 10
406.88914
 20
412.24187000000006
 10
408.90974
 20
412.41531000000003
 10
410.92094999999995
 20
412.57150000000007
 10
413.90045
 20
412.76696000000004
 10
415.60533
 20
412.86235000000005
 10
417.44543999999996
 20
412.9528
 10
419.39856
 20
413.0357
 10
421.43219
 20
413.10895000000005
 10
424.91474999999997
 20
413.20693000000006
 10
427.16869999999994
 20
413.25403000000006
 10
429.38699999999994
 20
413.28913000000006
 10
433.56161
 20
413.33305000000007
 10
437.39421
 20
413.3491700000001
 10
444.47033999999996
 20
413.33986000000004
 10
453.24347
 20
413.31589
 10
502.23062
 20
413.22283000000004
 10
551.2178
 20
413.14284000000004
 10
546.16829
 20
411.99336000000005
 10
543.58665
 20
411.41996000000006
  0
LWPOLYLINE
  5
54
330
17
100
AcDbEntity
  8
CUT
100
AcDbPolyline
 90
117
 70
1
 10
461.47542
 20
408.83533000000006
 10
461.24442
 20
408.75268000000005
 10
461.02263999999997
 20
408.64778000000007
 10
460.81221
 20
408.52165
 10
460.61514999999997
 20
408.37550000000005
 10
460.43336
 20
408.21074000000004
 10
460.2686
 20
408.02896000000004
 10
460.12246
 20
407.8319
 10
459.99632999999994
 20
407.62147000000004
 10
459.89142999999996
 20
407.39969
 10
459.80877999999996
 20
407.16869
 10
459.74917
 20
406.93070000000006
 10
459.71317
 20
406.68802000000005
 10
459.70113
 20
406.44298000000003
 10
459.71317
 20
406.1979400000001
 10
459.74917
 20
405.95525000000004
 10
459.80877999999996
 20
405.71727000000004
 10
459.89142999999996
 20
405.48627000000005
 10
459.99632999999994
 20
405.26449
 10
460.12246
 20
405.0540500000001
 10
460.2686
 20
404.85699000000005
 10
460.43336
 20
404.67521000000005
 10
460.61514999999997
 20
404.51045000000005
 10
460.81221
 20
404.36430000000007
 10
461.02263999999997
 20
404.23817
 10
461.24442
 20
404.13328000000007
 10
461.47542
 20
404.05063000000007
 10
461.71340999999995
 20
403.9910100000001
 10
461.95608999999996
 20
403.95502000000005
 10
462.20113
 20
403.94298000000003
 10
475.20113
 20
403.94298000000003
 10
475.44616999999994
 20
403.95502000000005
 10
475.68886
 20
403.9910100000001
 10
475.92683999999997
 20
404.05063000000007
 10
476.15783999999996
 20
404.13328000000007
 10
476.37962
 20
404.23817
 10
476.59006
 20
404.36430000000007
 10
476.78711
 20
404.51045000000005
 10
476.96889999999996
 20
404.67521000000005
 10
477.13365999999996
 20
404.85699000000005
 10
477.27981
 20
405.0540500000001
 10
477.40592999999996
 20
405.26449
 10
477.51082999999994
 20
405.48627000000005
 10
477.59348
 20
405.71727000000004
 10
477.65308999999996
 20
405.95525000000004
 10
477.68908999999996
 20
406.1979400000001
 10
477.70113
 20
406.44298000000003
 10
477.68908999999996
 20
406.68802000000005
 10
477.65308999999996
 20
406.93070000000006
 10
477.59348
 20
407.16869
 10
477.51082999999994
 20
407.39969
 10
477.40592999999996
 20
407.62147000000004
 10
477.27981
 20
407.8319
 10
477.13365999999996
 20
408.02896000000004
 10
476.96889999999996
 20
408.21074000000004
 10
476.78711
 20
408.37550000000005
 10
476.59006
 20
408.52165
 10
476.37962
 20
408.64778000000007
 10
476.15783999999996
 20
408.75268000000005
 10
475.92683999999997
 20
408.83533000000006
 10
475.68886
 20
408.89494
 10
475.44616999999994
 20
408.93094
 10
475.20113
 20
408.94298000000003
 10
471.64658
 20
408.94298000000003
 10
471.5945
 20
409.00544
 10
471.55386
 20
409.05140000000006
 10
471.5121
 20
409.09636000000006
 10
471.44741999999997
 20
409.16183000000007
 10
471.40297999999996
 20
409.20414000000005
 10
471.33441
 20
409.26553000000007
 10
471.23956
 20
409.34337000000005
 10
471.16598
 20
409.39865000000003
 10
471.11580999999995
 20
409.43398
 10
471.01295999999996
 20
409.50089
 10
470.96033
 20
409.53244000000007
 10
470.87996999999996
 20
409.57731000000007
 10
470.77036999999996
 20
409.63248000000004
 10
470.65819
 20
409.6822
 10
470.60121999999996
 20
409.70499000000007
 10
470.51475999999997
 20
409.73652000000004
 10
470.39777999999995
 20
409.77358000000004
 10
470.33865
 20
409.78995000000003
 10
470.24922999999995
 20
409.81176000000005
 10
470.12888999999996
 20
409.83570000000003
 10
470.03792999999996
 20
409.84976000000006
 10
469.97704
 20
409.85727
 10
469.91596999999996
 20
409.86329000000006
 10
469.82415
 20
409.86949000000004
 10
469.70147999999995
 20
409.87250000000006
 10
469.57881
 20
409.86949000000004
 10
469.48699
 20
409.86329000000006
 10
469.42593
 20
409.85727
 10
469.33466
 20
409.84545
 10
469.27407999999997
 20
409.83570000000003
 10
469.15373
 20
409.81176000000005
 10
469.06431999999995
 20
409.78995000000003
 10
469.00518
 20
409.77358000000004
 10
468.88820999999996
 20
409.73652000000004
 10
468.80174
 20
409.70499000000007
 10
468.74476999999996
 20
409.6822
 10
468.63258999999994
 20
409.63248000000004
 10
468.52299
 20
409.57731000000007
 10
468.44264
 20
409.53244000000007
 10
468.39000999999996
 20
409.50089
 10
468.28715
 20
409.43398
 10
468.23699
 20
409.39865000000003
 10
468.16339999999997
 20
409.34337000000005
 10
468.06854999999996
 20
409.26553000000007
 10
467.99997999999994
 20
409.20414000000005
 10
467.95554
 20
409.16183000000007
 10
467.89086
 20
409.09636000000006
 10
467.84909999999996
 20
409.05140000000006
 10
467.80845999999997
 20
409.00544
 10
467.75638999999995
 20
408.94298000000003
 10
462.20113
 20
408.94298000000003
 10
461.95608999999996
 20
408.93094
 10
461.71340999999995
 20
408.89494
  0
LWPOLYLINE
  5
55
330
17
100
AcDbEntity
  8
CUT
100
AcDbPolyline
 90
50
 70
1
 10
432.15545999999995
 20
406.81050000000005
 10
432.13573999999994
 20
407.12384000000003
 10
432.07691
 20
407.43223000000006
 10
431.9799
 20
407.73082000000005
 10
431.84621999999996
 20
408.01489000000004
 10
431.678
 20
408.27997000000005
 10
431.47787999999997
 20
408.52187000000004
 10
431.24902
 20
408.73679000000004
 10
430.99501999999995
 20
408.92132000000004
 10
430.7199
 20
409.07257000000004
 10
430.428
 20
409.18815000000006
 10
430.12390999999997
 20
409.26622000000003
 10
429.81242999999995
 20
409.30557000000005
 10
429.49848
 20
409.30557000000005
 10
429.18699999999995
 20
409.26622000000003
 10
428.88291
 20
409.18815000000006
 10
428.59101
 20
409.07257000000004
 10
428.31588999999997
 20
408.92132000000004
 10
428.0619
 20
408.73679000000004
 10
427.83302999999995
 20
408.52187000000004
 10
427.63291
 20
408.27997000000005
 10
427.46468999999996
 20
408.01489000000004
 10
427.33101
 20
407.73082000000005
 10
427.234
 20
407.43223000000006
 10
427.17517
 20
407.12384000000003
 10
427.15545999999995
 20
406.81050000000005
 10
427.17517
 20
406.49717000000004
 10
427.234
 20
406.18878000000007
 10
427.33101
 20
405.8901900000001
 10
427.46468999999996
 20
405.60612000000003
 10
427.63291
 20
405.34104
 10
427.83302999999995
 20
405.09914000000003
 10
428.0619
 20
404.88422
 10
428.31588999999997
 20
404.69968000000006
 10
428.59101
 20
404.54844
 10
428.88291
 20
404.43286000000006
 10
429.18699999999995
 20
404.35479000000004
 10
429.49848
 20
404.31544
 10
429.81242999999995
 20
404.31544
 10
430.12390999999997
 20
404.35479000000004
 10
430.428
 20
404.43286000000006
 10
430.7199
 20
404.54844
 10
430.99501999999995
 20
404.69968000000006
 10
431.24902
 20
404.88422
 10
431.47787999999997
 20
405.09914000000003
 10
431.678
 20
405.34104
 10
431.84621999999996
 20
405.60612000000003
 10
431.9799
 20
405.8901900000001
 10
432.07691
 20
406.18878000000007
 10
432.13573999999994
 20
406.49717000000004
  0
LWPOLYLINE
  5
56
330
17
100
AcDbEntity
  8
CUT
100
AcDbPolyline
 90
4
 70
1
 10
468.00002
 20
309.71677
 10
468.00002
 20
323.71677
 10
588.00002
 20
323.71677
 10
588.00002
 20
309.71677
  0
LWPOLYLINE
  5
57
330
17
100
AcDbEntity
  8
CUT
100
AcDbPolyline
 90
4
 70
1
 10
588.00002
 20
342.71677
 10
588.00002
 20
328.71677
 10
468.00002
 20
328.71677
 10
468.00002
 20
342.71677
  0
LWPOLYLINE
  5
58
330
17
100
AcDbEntity
  8
CUT
100
AcDbPolyline
 90
218
 70
1
 10
465.19473
 20
431.59094000000005
 10
465.19543
 20
430.74518000000006
 10
464.19543
 20
430.74435000000005
 10
464.20169999999996
 20
423.1903200000001
 10
470.20169999999996
 20
423.19531000000006
 10
470.19516999999996
 20
431.05424000000005
 10
473.13081999999997
 20
430.70441000000005
 10
475.98031
 20
430.34078000000005
 10
478.90556999999995
 20
429.9412000000001
 10
481.85425
 20
429.51279000000005
 10
484.48400999999996
 20
429.1114600000001
 10
487.20701999999994
 20
428.67498000000006
 10
489.92525
 20
428.22033000000005
 10
492.54535
 20
427.76641000000006
 10
495.25297
 20
427.27936000000005
 10
497.95829
 20
426.7766900000001
 10
500.59675999999996
 20
426.2728000000001
 10
503.28797
 20
425.7440000000001
 10
505.13612
 20
425.3726900000001
 10
506.60317
 20
425.07333000000006
 10
510.50816
 20
424.2551400000001
 10
514.3519699999999
 20
423.42179000000004
 10
476.60265
 20
423.3543900000001
 10
471.65695999999997
 20
418.3957900000001
 10
471.65697
 20
418.3871500000001
 10
459.90569999999997
 20
418.37739000000005
 10
459.89547999999996
 20
430.6819100000001
 10
437.09549
 20
430.6629700000001
 10
437.10571
 20
418.35845000000006
 10
425.92902
 20
418.3491700000001
 10
420.82777999999996
 20
423.3200500000001
 10
418.31854999999996
 20
423.36680000000007
 10
415.70378
 20
423.4360700000001
 10
412.69935
 20
423.5461900000001
 10
409.99406999999997
 20
423.67768000000007
 10
407.67195
 20
423.8171700000001
 10
406.15655999999996
 20
423.9271500000001
 10
404.6352
 20
424.0491800000001
 10
402.87089
 20
424.20968000000005
 10
402.01192999999995
 20
424.30554000000006
 10
401.16884
 20
424.4163200000001
 10
400.39189
 20
424.5419800000001
 10
399.49978999999996
 20
424.70742000000007
 10
398.6096
 20
424.8871000000001
 10
397.83835
 20
425.05547000000007
 10
397.50174999999996
 20
425.13666000000006
 10
397.32638
 20
425.1829200000001
 10
397.50023
 20
425.3270800000001
 10
397.91529999999995
 20
425.65488000000005
 10
398.2414
 20
425.89276000000007
 10
398.92569999999995
 20
426.34316000000007
 10
399.30073999999996
 20
426.5720800000001
 10
399.71036
 20
426.80849000000006
 10
400.50735
 20
427.23289000000005
 10
401.23125
 20
427.5822800000001
 10
402.06768
 20
427.95076000000006
 10
403.03204999999997
 20
428.3379300000001
 10
404.14115999999996
 20
428.7439100000001
 10
404.45799999999997
 20
428.85059000000007
 10
405.39932
 20
429.14995000000005
 10
405.92992999999996
 20
429.3097600000001
 10
405.86852999999996
 20
429.22208000000006
 10
405.81881999999996
 20
429.14463000000006
 10
405.75703
 20
429.0386200000001
 10
405.71414
 20
428.9571900000001
 10
405.67427999999995
 20
428.87423000000007
 10
405.63750999999996
 20
428.78987000000006
 10
405.59333999999996
 20
428.6753800000001
 10
405.56393999999995
 20
428.58817000000005
 10
405.53776
 20
428.4999400000001
 10
405.51484999999997
 20
428.41080000000005
 10
405.49523999999997
 20
428.32088000000005
 10
405.47425999999996
 20
428.1999800000001
 10
405.45923999999997
 20
428.0782000000001
 10
405.45191
 20
427.9864600000001
 10
405.44795999999997
 20
427.8945100000001
 10
405.44739
 20
427.80248000000006
 10
405.45021999999994
 20
427.71049000000005
 10
405.45923999999997
 20
427.5881100000001
 10
405.47425999999996
 20
427.4663300000001
 10
405.48943999999995
 20
427.37556000000006
 10
405.50795
 20
427.2854000000001
 10
405.53776
 20
427.16638000000006
 10
405.56393999999995
 20
427.0781400000001
 10
405.59333999999996
 20
426.99093000000005
 10
405.62593999999996
 20
426.9048600000001
 10
405.66168
 20
426.8200500000001
 10
405.70052
 20
426.7366200000001
 10
405.75703
 20
426.62770000000006
 10
405.80287999999996
 20
426.5479000000001
 10
405.86852999999996
 20
426.44423000000006
 10
405.92105999999995
 20
426.3686600000001
 10
405.97634
 20
426.2950800000001
 10
406.03429
 20
426.2235800000001
 10
406.07435999999996
 20
426.17712000000006
 10
406.13658999999996
 20
426.10931000000005
 10
406.20126
 20
426.04383000000007
 10
406.26831
 20
425.9807800000001
 10
406.33763
 20
425.9202400000001
 10
406.40912
 20
425.8622900000001
 10
406.45795999999996
 20
425.8251400000001
 10
406.53286999999995
 20
425.77168000000006
 10
406.60970999999995
 20
425.72102000000007
 10
406.68836
 20
425.67323000000005
 10
406.74174
 20
425.6429800000001
 10
406.82318
 20
425.60010000000005
 10
406.87832
 20
425.5731800000001
 10
406.96221999999995
 20
425.53537000000006
 10
407.04747
 20
425.50068000000005
 10
407.10497999999995
 20
425.4793000000001
 10
407.19219
 20
425.4498900000001
 10
407.28042
 20
425.42372000000006
 10
407.36956
 20
425.4008100000001
 10
407.45948
 20
425.38119000000006
 10
407.55006
 20
425.3649000000001
 10
407.64117999999996
 20
425.3519600000001
 10
407.70216
 20
425.3452000000001
 10
407.79389999999995
 20
425.3378600000001
 10
407.85519
 20
425.3348500000001
 10
407.94719999999995
 20
425.3331600000001
 10
408.03922
 20
425.3348500000001
 10
408.10051
 20
425.3378600000001
 10
408.19224999999994
 20
425.3452000000001
 10
408.28366
 20
425.3559000000001
 10
408.37460999999996
 20
425.36996000000005
 10
408.49496
 20
425.3939000000001
 10
408.58437
 20
425.4157200000001
 10
408.70221999999995
 20
425.4498900000001
 10
408.78943
 20
425.4793000000001
 10
408.8755
 20
425.51189000000005
 10
408.96031
 20
425.5476300000001
 10
409.04373999999996
 20
425.5864700000001
 10
409.15265999999997
 20
425.6429800000001
 10
409.23245999999995
 20
425.6888400000001
 10
409.33612999999997
 20
425.75448000000006
 10
409.4117
 20
425.80701000000005
 10
409.48528
 20
425.8622900000001
 10
409.55677999999995
 20
425.9202400000001
 10
409.62609999999995
 20
425.9807800000001
 10
409.69313999999997
 20
426.04383000000007
 10
409.77883999999995
 20
426.1316500000001
 10
409.84022999999996
 20
426.2002300000001
 10
409.91806999999994
 20
426.2950800000001
 10
409.97335
 20
426.3686600000001
 10
410.02588
 20
426.44423000000006
 10
410.09153
 20
426.5479000000001
 10
410.13737999999995
 20
426.62770000000006
 10
410.18026
 20
426.7091300000001
 10
410.22011999999995
 20
426.79208000000006
 10
410.26847
 20
426.9048600000001
 10
410.30105999999995
 20
426.99093000000005
 10
410.33047
 20
427.0781400000001
 10
410.35663999999997
 20
427.16638000000006
 10
410.37955
 20
427.2555100000001
 10
410.39916999999997
 20
427.3454300000001
 10
410.42015
 20
427.4663300000001
 10
410.43197
 20
427.5576000000001
 10
410.4425
 20
427.6798600000001
 10
410.44644999999997
 20
427.7718000000001
 10
410.44701999999995
 20
427.8638400000001
 10
410.44419
 20
427.95583000000005
 10
410.43798999999996
 20
428.0476500000001
 10
410.42839999999995
 20
428.13918000000007
 10
410.41546
 20
428.23030000000006
 10
410.393
 20
428.3509400000001
 10
410.37228
 20
428.44061000000005
 10
410.34828
 20
428.5294600000001
 10
410.32102
 20
428.6173600000001
 10
410.27968999999996
 20
428.73289000000005
 10
410.24499
 20
428.8181400000001
 10
410.20718
 20
428.90204000000006
 10
410.15200999999996
 20
429.0116500000001
 10
410.10713999999996
 20
429.0920000000001
 10
410.04276999999996
 20
429.1964700000001
 10
409.99116999999995
 20
429.2726800000001
 10
409.93679999999995
 20
429.34693000000004
 10
409.87973
 20
429.4191400000001
 10
409.82003999999995
 20
429.4892000000001
 10
409.75782
 20
429.55701000000005
 10
409.69313999999997
 20
429.62248000000005
 10
409.60323999999997
 20
429.7060000000001
 10
409.53319
 20
429.7656800000001
 10
409.46097999999995
 20
429.8227500000001
 10
409.38671999999997
 20
429.87712000000005
 10
409.2847
 20
429.94529000000006
 10
409.17945
 20
430.00837000000007
 10
409.09855
 20
430.05226000000005
 10
409.01608999999996
 20
430.0931300000001
 10
408.92062999999996
 20
430.13581000000005
 10
409.31786
 20
430.2384200000001
 10
410.76405
 20
430.5805900000001
 10
412.09815
 20
430.8695600000001
 10
413.38379
 20
431.1264500000001
 10
414.7181
 20
431.3731400000001
 10
416.09956
 20
431.6079700000001
 10
417.52653
 20
431.82936000000007
 10
418.59312
 20
431.9812100000001
 10
419.68257
 20
432.1246000000001
 10
421.51052
 20
432.3367600000001
 10
423.34078999999997
 20
432.5142000000001
 10
425.08259999999996
 20
432.65184000000005
 10
426.79373999999996
 20
432.75937000000005
 10
426.80163
 20
423.26319000000007
 10
431.80163
 20
423.2673500000001
 10
431.79360999999994
 20
432.94139000000007
 10
433.27972
 20
432.9651800000001
 10
434.77446999999995
 20
432.9786000000001
 10
437.46416999999997
 20
432.9819500000001
 10
439.74062999999995
 20
432.9693900000001
 10
442.02815
 20
432.9419700000001
 10
444.27027
 20
432.89889000000005
 10
446.57086999999996
 20
432.8360100000001
 10
449.58923
 20
432.7231500000001
 10
452.48343
 20
432.58234000000004
 10
454.07460999999995
 20
432.4907100000001
 10
455.70059999999995
 20
432.38668000000007
 10
458.90130999999997
 20
432.15321000000006
 10
461.9915
 20
431.8942800000001
  0
LWPOLYLINE
  5
59
330
17
100
AcDbEntity
  8
CUT
100
AcDbPolyline
 90
32
 70
1
 10
463.50059
 20
424.5340700000001
 10
463.48136999999997
 20
424.7291600000001
 10
463.42447
 20
424.9167500000001
 10
463.33205999999996
 20
425.0896400000001
 10
463.20768999999996
 20
425.24117000000007
 10
463.05616
 20
425.36554000000007
 10
462.88327
 20
425.4579500000001
 10
462.69568
 20
425.5148500000001
 10
462.50059
 20
425.5340700000001
 10
462.30549999999994
 20
425.5148500000001
 10
462.11789999999996
 20
425.4579500000001
 10
461.94502
 20
425.36554000000007
 10
461.79348
 20
425.24117000000007
 10
461.66911999999996
 20
425.0896400000001
 10
461.57671
 20
424.9167500000001
 10
461.5198
 20
424.7291600000001
 10
461.50059
 20
424.5340700000001
 10
461.5198
 20
424.33898000000005
 10
461.57671
 20
424.1513800000001
 10
461.66911999999996
 20
423.97850000000005
 10
461.79348
 20
423.8269600000001
 10
461.94502
 20
423.7026000000001
 10
462.11789999999996
 20
423.61019000000005
 10
462.30549999999994
 20
423.5532800000001
 10
462.50059
 20
423.5340700000001
 10
462.69568
 20
423.5532800000001
 10
462.88327
 20
423.61019000000005
 10
463.05616
 20
423.7026000000001
 10
463.20768999999996
 20
423.8269600000001
 10
463.33205999999996
 20
423.97850000000005
 10
463.42447
 20
424.1513800000001
 10
463.48136999999997
 20
424.33898000000005
  0
LWPOLYLINE
  5
5A
330
17
100
AcDbEntity
  8
CUT
100
AcDbPolyline
 90
32
 70
1
 10
435.50059999999996
 20
424.51081000000005
 10
435.48137999999994
 20
424.7059000000001
 10
435.42447999999996
 20
424.8935000000001
 10
435.33207
 20
425.0663800000001
 10
435.2077
 20
425.21792000000005
 10
435.05616999999995
 20
425.3422800000001
 10
434.88327999999996
 20
425.43469000000005
 10
434.69568999999996
 20
425.49160000000006
 10
434.50059999999996
 20
425.51081000000005
 10
434.30550999999997
 20
425.49160000000006
 10
434.11791
 20
425.43469000000005
 10
433.94503
 20
425.3422800000001
 10
433.79348999999996
 20
425.21792000000005
 10
433.66913
 20
425.0663800000001
 10
433.57671999999997
 20
424.8935000000001
 10
433.51980999999995
 20
424.7059000000001
 10
433.50059999999996
 20
424.51081000000005
 10
433.51980999999995
 20
424.31572000000006
 10
433.57671999999997
 20
424.12813000000006
 10
433.66913
 20
423.95524000000006
 10
433.79348999999996
 20
423.80370000000005
 10
433.94503
 20
423.6793400000001
 10
434.11791
 20
423.58693000000005
 10
434.30550999999997
 20
423.53003000000007
 10
434.50059999999996
 20
423.51081000000005
 10
434.69568999999996
 20
423.53003000000007
 10
434.88327999999996
 20
423.58693000000005
 10
435.05616999999995
 20
423.6793400000001
 10
435.2077
 20
423.80370000000005
 10
435.33207
 20
423.95524000000006
 10
435.42447999999996
 20
424.12813000000006
 10
435.48137999999994
 20
424.31572000000006
  0
LWPOLYLINE
  5
5B
330
17
100
AcDbEntity
  8
CUT
100
AcDbPolyline
 90
64
 70
1
 10
487.75584
 20
424.7719600000001
 10
487.88860999999997
 20
424.70839000000007
 10
488.02698
 20
424.6581500000001
 10
488.16959999999995
 20
424.6217200000001
 10
488.31511
 20
424.5994400000001
 10
488.46209999999996
 20
424.59154000000007
 10
488.60916
 20
424.59809000000007
 10
488.75487
 20
424.6190200000001
 10
488.89783
 20
424.6541400000001
 10
489.03666
 20
424.7031100000001
 10
489.17003
 20
424.7654500000001
 10
489.29665
 20
424.8405600000001
 10
489.41528999999997
 20
424.92773000000005
 10
489.52482999999995
 20
425.0261100000001
 10
489.6242
 20
425.13475000000005
 10
489.71243999999996
 20
425.25261000000006
 10
489.78871999999996
 20
425.3785500000001
 10
489.85227999999995
 20
425.51137000000006
 10
489.90252999999996
 20
425.64977000000005
 10
489.93897
 20
425.79244000000006
 10
489.96124999999995
 20
425.9379800000001
 10
489.96916999999996
 20
426.08501000000007
 10
489.96263999999996
 20
426.2321100000001
 10
489.94172
 20
426.3778500000001
 10
489.90662999999995
 20
426.52085000000005
 10
489.85769
 20
426.6597100000001
 10
489.79537999999997
 20
426.7931000000001
 10
489.72029999999995
 20
426.91974000000005
 10
489.63316999999995
 20
427.03841000000006
 10
489.53481999999997
 20
427.14796000000007
 10
489.42621999999994
 20
427.2473500000001
 10
489.3084
 20
427.33560000000006
 10
489.1825
 20
427.41188000000005
 10
489.04972
 20
427.4754500000001
 10
488.91135999999995
 20
427.52569000000005
 10
488.76873
 20
427.56212000000005
 10
488.62323
 20
427.5844000000001
 10
488.47623
 20
427.5923000000001
 10
488.32917
 20
427.5857500000001
 10
488.18345999999997
 20
427.56482000000005
 10
488.04049999999995
 20
427.52970000000005
 10
487.90166999999997
 20
427.48073000000005
 10
487.76831
 20
427.41839000000004
 10
487.64169
 20
427.34328000000005
 10
487.52304
 20
427.2561100000001
 10
487.4135
 20
427.1577300000001
 10
487.31413999999995
 20
427.0490900000001
 10
487.22589
 20
426.9312300000001
 10
487.14961999999997
 20
426.80529000000007
 10
487.08605
 20
426.6724700000001
 10
487.03580999999997
 20
426.5340700000001
 10
486.99937
 20
426.39141000000006
 10
486.97708
 20
426.24586000000005
 10
486.96916999999996
 20
426.0988300000001
 10
486.97569999999996
 20
425.95173000000005
 10
486.99661
 20
425.80599000000007
 10
487.03171
 20
425.6629900000001
 10
487.08063999999996
 20
425.52413000000007
 10
487.14295
 20
425.39074000000005
 10
487.21804
 20
425.2641000000001
 10
487.30517
 20
425.1454300000001
 10
487.40351
 20
425.0358800000001
 10
487.51211
 20
424.93649000000005
 10
487.62994
 20
424.8482400000001
  0
LWPOLYLINE
  5
5C
330
17
100
AcDbEntity
  8
CUT
100
AcDbPolyline
 90
218
 70
1
 10
523.66512
 20
348.80443
 10
520.57493
 20
348.54551
 10
517.37422
 20
348.31204
 10
515.74823
 20
348.20801
 10
514.15705
 20
348.11638
 10
511.26285
 20
347.97557
 10
508.24449
 20
347.86271
 10
505.94389
 20
347.79983
 10
503.70177
 20
347.75675
 10
501.41425
 20
347.72932
 10
499.13779
 20
347.71677
 10
496.44809
 20
347.72012
 10
494.95334
 20
347.73354
 10
493.46723
 20
347.75732
 10
493.47525
 20
357.43137
 10
488.47525
 20
357.43552
 10
488.46736
 20
347.93935
 10
486.75622
 20
348.04688
 10
485.01441
 20
348.18452
 10
483.18414
 20
348.36196
 10
481.35619
 20
348.57412
 10
480.26674
 20
348.71751
 10
479.20015
 20
348.86936
 10
477.77318
 20
349.09075
 10
476.39172
 20
349.32558
 10
475.05741
 20
349.57225999999997
 10
473.77177
 20
349.82916
 10
472.43767
 20
350.11812
 10
470.99148
 20
350.4603
 10
470.59425
 20
350.56291
 10
470.68971
 20
350.60559
 10
470.77217
 20
350.64646
 10
470.85307
 20
350.69034
 10
470.95832
 20
350.75343
 10
471.06034
 20
350.8216
 10
471.1346
 20
350.87597
 10
471.20681
 20
350.93303
 10
471.27686
 20
350.99272
 10
471.36676
 20
351.07623
 10
471.43144
 20
351.14171
 10
471.49366
 20
351.20952
 10
471.55335
 20
351.27958
 10
471.61042
 20
351.35178
 10
471.66479
 20
351.42604
 10
471.71639
 20
351.50225
 10
471.78076
 20
351.60671
 10
471.82563
 20
351.68707
 10
471.8808
 20
351.79667
 10
471.91861
 20
351.88058
 10
471.95331
 20
351.96582
 10
471.99464
 20
352.08136
 10
472.0219
 20
352.16926
 10
472.0459
 20
352.25811
 10
472.06662
 20
352.34778
 10
472.08908
 20
352.46842
 10
472.10202
 20
352.55953
 10
472.11161
 20
352.65107
 10
472.11781
 20
352.74289
 10
472.12064
 20
352.83488
 10
472.12007
 20
352.92691
 10
472.11612
 20
353.01886
 10
472.10559
 20
353.14112
 10
472.09377
 20
353.23239
 10
472.07279
 20
353.35329
 10
472.05317
 20
353.44321
 10
472.03026
 20
353.53234
 10
472.00409
 20
353.62058
 10
471.97468
 20
353.70779
 10
471.94209
 20
353.79385
 10
471.89374
 20
353.90663
 10
471.85388
 20
353.98959
 10
471.811
 20
354.07102
 10
471.76515
 20
354.15082
 10
471.6995
 20
354.25449
 10
471.64697
 20
354.33006
 10
471.59168999999997
 20
354.40364
 10
471.51385
 20
354.49849
 10
471.45246
 20
354.56705999999997
 10
471.36676
 20
354.65489
 10
471.29972
 20
354.71794
 10
471.2304
 20
354.77848
 10
471.1589
 20
354.83643
 10
471.08532
 20
354.8917
 10
471.00975
 20
354.94423
 10
470.90608
 20
355.00988
 10
470.82628
 20
355.05574
 10
470.71736
 20
355.11225
 10
470.63393
 20
355.15108
 10
470.54912
 20
355.18683
 10
470.46305
 20
355.21942
 10
470.37584
 20
355.24883
 10
470.25799
 20
355.283
 10
470.16858
 20
355.30482
 10
470.04823
 20
355.32875
 10
469.95728
 20
355.34282
 10
469.86587
 20
355.35352
 10
469.77413
 20
355.36086
 10
469.71284
 20
355.36387
 10
469.62082
 20
355.36556
 10
469.52881
 20
355.36387
 10
469.46752
 20
355.36086
 10
469.37578
 20
355.35352
 10
469.3148
 20
355.34676
 10
469.22368
 20
355.33380999999997
 10
469.1331
 20
355.31752
 10
469.04318
 20
355.29791
 10
468.95404
 20
355.275
 10
468.86581
 20
355.24883
 10
468.7786
 20
355.21942
 10
468.72109
 20
355.19804
 10
468.63584
 20
355.16335
 10
468.55194
 20
355.12552999999997
 10
468.4968
 20
355.09862
 10
468.41536
 20
355.05574
 10
468.36198
 20
355.02549
 10
468.28333
 20
354.97769
 10
468.20649
 20
354.92703
 10
468.13158
 20
354.87358
 10
468.08274
 20
354.83643
 10
468.01125
 20
354.77848
 10
467.94193
 20
354.71794
 10
467.87488
 20
354.65489
 10
467.81021
 20
354.58941
 10
467.74798
 20
354.5216
 10
467.70791
 20
354.47514
 10
467.64996
 20
354.40364
 10
467.59468
 20
354.33006
 10
467.54215
 20
354.25449
 10
467.4765
 20
354.15082
 10
467.43065
 20
354.07102
 10
467.37414
 20
353.9621
 10
467.3353
 20
353.87865999999997
 10
467.29956
 20
353.79385
 10
467.26696
 20
353.70779
 10
467.23756
 20
353.62058
 10
467.21138
 20
353.53234
 10
467.18157
 20
353.41331
 10
467.16306
 20
353.32316
 10
467.14788
 20
353.23239
 10
467.13286
 20
353.1106
 10
467.12384
 20
352.98823
 10
467.12101
 20
352.89624
 10
467.12158
 20
352.80421
 10
467.12553
 20
352.71226
 10
467.13286
 20
352.62052
 10
467.14788
 20
352.49873
 10
467.16886
 20
352.37783
 10
467.18847
 20
352.28792
 10
467.21138
 20
352.19878
 10
467.23756
 20
352.11055
 10
467.26696
 20
352.02334
 10
467.31113
 20
351.90885
 10
467.3479
 20
351.82448999999997
 10
467.38776
 20
351.74153
 10
467.43065
 20
351.6601
 10
467.49244
 20
351.55409
 10
467.54215
 20
351.47663
 10
467.60355
 20
351.38895
 10
467.07294
 20
351.54877
 10
466.13162
 20
351.84812999999997
 10
465.81478
 20
351.95481
 10
464.70567
 20
352.36079
 10
463.7413
 20
352.74796
 10
462.90487
 20
353.11644
 10
462.18097
 20
353.46583
 10
461.38398
 20
353.89023
 10
460.97436
 20
354.12664
 10
460.59932
 20
354.35555999999997
 10
459.91502
 20
354.80595999999997
 10
459.58892
 20
355.04384
 10
459.17385
 20
355.37164
 10
459.0
 20
355.5158
 10
459.17537
 20
355.56205
 10
459.51197
 20
355.64325
 10
460.28322000000003
 20
355.81162
 10
461.17341
 20
355.99129
 10
462.06551
 20
356.15674
 10
462.84246
 20
356.2824
 10
463.68555
 20
356.39318
 10
464.54451
 20
356.48904
 10
466.30882
 20
356.64954
 10
467.83018
 20
356.77157
 10
469.34557
 20
356.88155
 10
471.66769
 20
357.02103999999997
 10
474.37297
 20
357.15253
 10
477.3774
 20
357.26265
 10
479.99217
 20
357.33191
 10
482.5014
 20
357.37867
 10
487.60264
 20
362.34955
 10
498.77933
 20
362.34027
 10
498.76911
 20
350.03575
 10
521.5691
 20
350.01681
 10
521.57932
 20
362.32133
 10
533.33059
 20
362.31157
 10
533.33058
 20
362.30293
 10
538.27627
 20
357.34433
 10
576.02559
 20
357.27693
 10
572.18178
 20
356.44357
 10
568.27679
 20
355.62539
 10
566.80974
 20
355.32603
 10
564.96159
 20
354.95471
 10
562.27038
 20
354.42592
 10
559.6319100000001
 20
353.92203
 10
556.92659
 20
353.41936
 10
554.21897
 20
352.9323
 10
551.59887
 20
352.47839
 10
548.88064
 20
352.02373
 10
546.15763
 20
351.58726
 10
543.52787
 20
351.18593
 10
540.57919
 20
350.75751
 10
537.65393
 20
350.35794
 10
534.80444
 20
349.9943
 10
531.86879
 20
349.64448
 10
531.87532
 20
357.50341
 10
525.87532
 20
357.50839
 10
525.86905
 20
349.95437
 10
526.86905
 20
349.95354
 10
526.86835
 20
349.10777
  0
LWPOLYLINE
  5
5D
330
17
100
AcDbEntity
  8
CUT
100
AcDbPolyline
 90
32
 70
1
 10
525.17421
 20
356.16465
 10
525.15499
 20
356.35974
 10
525.09809
 20
356.54733
 10
525.00568
 20
356.72022
 10
524.88131
 20
356.87176
 10
524.72978
 20
356.99612
 10
524.55689
 20
357.08853
 10
524.3693
 20
357.14544
 10
524.17421
 20
357.16465
 10
523.97912
 20
357.14544
 10
523.79152
 20
357.08853
 10
523.61864
 20
356.99612
 10
523.4671
 20
356.87176
 10
523.34274
 20
356.72022
 10
523.25033
 20
356.54733
 10
523.1934200000001
 20
356.35974
 10
523.17421
 20
356.16465
 10
523.1934200000001
 20
355.96956
 10
523.25033
 20
355.78197
 10
523.34274
 20
355.60908
 10
523.4671
 20
355.45754
 10
523.61864
 20
355.33317999999997
 10
523.79152
 20
355.24077
 10
523.97912
 20
355.18387
 10
524.17421
 20
355.16465
 10
524.3693
 20
355.18387
 10
524.55689
 20
355.24077
 10
524.72978
 20
355.33317999999997
 10
524.88131
 20
355.45754
 10
525.00568
 20
355.60908
 10
525.09809
 20
355.78197
 10
525.15499
 20
355.96956
  0
LWPOLYLINE
  5
5E
330
17
100
AcDbEntity
  8
CUT
100
AcDbPolyline
 90
32
 70
1
 10
497.17422
 20
356.18791
 10
497.155
 20
356.383
 10
497.0981
 20
356.57059
 10
497.00569
 20
356.74348
 10
496.88132
 20
356.89501
 10
496.72979
 20
357.01938
 10
496.5569
 20
357.11179
 10
496.36931
 20
357.16868999999997
 10
496.17422
 20
357.18791
 10
495.97913
 20
357.16868999999997
 10
495.79153
 20
357.11179
 10
495.61865
 20
357.01938
 10
495.46711
 20
356.89501
 10
495.34275
 20
356.74348
 10
495.25034
 20
356.57059
 10
495.19343
 20
356.383
 10
495.17422
 20
356.18791
 10
495.19343
 20
355.99282
 10
495.25034
 20
355.80522
 10
495.34275
 20
355.63234
 10
495.46711
 20
355.4808
 10
495.61865
 20
355.35644
 10
495.79153
 20
355.26403
 10
495.97913
 20
355.20712
 10
496.17422
 20
355.18791
 10
496.36931
 20
355.20712
 10
496.5569
 20
355.26403
 10
496.72979
 20
355.35644
 10
496.88132
 20
355.4808
 10
497.00569
 20
355.63234
 10
497.0981
 20
355.80522
 10
497.155
 20
355.99282
  0
LWPOLYLINE
  5
5F
330
17
100
AcDbEntity
  8
CUT
100
AcDbPolyline
 90
64
 70
1
 10
549.3035600000001
 20
355.85048
 10
549.18573
 20
355.76222
 10
549.07713
 20
355.66284
 10
548.97879
 20
355.55329
 10
548.89166
 20
355.43462
 10
548.81657
 20
355.30798
 10
548.75426
 20
355.17458
 10
548.70533
 20
355.03571999999997
 10
548.67023
 20
354.89273
 10
548.64932
 20
354.74698
 10
548.64279
 20
354.59989
 10
548.6507
 20
354.45286
 10
548.67299
 20
354.30731
 10
548.70943
 20
354.16465
 10
548.75967
 20
354.02624
 10
548.8232399999999
 20
353.89343
 10
548.89951
 20
353.76749
 10
548.98776
 20
353.64963
 10
549.08712
 20
353.54098
 10
549.19666
 20
353.44261
 10
549.31531
 20
353.35544
 10
549.44193
 20
353.28032
 10
549.57529
 20
353.21798
 10
549.71412
 20
353.16902
 10
549.85708
 20
353.1339
 10
550.00279
 20
353.11296
 10
550.14985
 20
353.10642
 10
550.29685
 20
353.11432
 10
550.44235
 20
353.13659
 10
550.58498
 20
353.17303
 10
550.72334
 20
353.22327
 10
550.85612
 20
353.28684
 10
550.98202
 20
353.36311
 10
551.09984
 20
353.45137
 10
551.20844
 20
353.55075
 10
551.30679
 20
353.66031
 10
551.39392
 20
353.77897
 10
551.469
 20
353.90562
 10
551.53131
 20
354.03901
 10
551.58025
 20
354.17787
 10
551.6153400000001
 20
354.32086
 10
551.63626
 20
354.46661
 10
551.64279
 20
354.61370999999997
 10
551.63487
 20
354.76073
 10
551.61259
 20
354.90628
 10
551.57615
 20
355.04894
 10
551.5259
 20
355.18735
 10
551.46234
 20
355.32016
 10
551.38606
 20
355.44611
 10
551.29782
 20
355.56397
 10
551.19845
 20
355.67261
 10
551.0889099999999
 20
355.77099
 10
550.97027
 20
355.85815
 10
550.84365
 20
355.93327
 10
550.71028
 20
355.99561
 10
550.57145
 20
356.04458
 10
550.42849
 20
356.07968999999997
 10
550.28278
 20
356.10063
 10
550.13572
 20
356.10717999999997
 10
549.98873
 20
356.09927
 10
549.84322
 20
356.077
 10
549.7006
 20
356.04057
 10
549.56223
 20
355.99032
 10
549.4294600000001
 20
355.92676
  0
LWPOLYLINE
  5
60
330
17
100
AcDbEntity
  8
CUT
100
AcDbPolyline
 90
4
 70
1
 10
459.0
 20
367.34955
 10
459.0
 20
373.34955
 10
559.0
 20
373.34955
 10
559.0
 20
367.34955
  0
LWPOLYLINE
  5
61
330
17
100
AcDbEntity
  8
CUT
100
AcDbPolyline
 90
300
 70
1
 10
535.65743
 20
209.11802
 10
534.79268
 20
209.16929
 10
533.92933
 20
209.23417999999998
 10
533.06763
 20
209.31265
 10
532.20781
 20
209.40466999999998
 10
531.3501
 20
209.5102
 10
530.49472
 20
209.62921
 10
529.64192
 20
209.76164
 10
528.79193
 20
209.90747
 10
527.94496
 20
210.06665999999998
 10
527.10127
 20
210.23917
 10
526.26108
 20
210.42496
 10
525.42461
 20
210.62399
 10
524.59211
 20
210.83623
 10
523.76381
 20
211.06163999999998
 10
522.93993
 20
211.30016999999998
 10
522.12072
 20
211.55173
 10
521.30642
 20
211.81623
 10
520.4972700000001
 20
212.09355
 10
519.69352
 20
212.38361999999998
 10
518.8954
 20
212.68631
 10
518.10316
 20
213.00154999999998
 10
517.31703
 20
213.32921
 10
516.53727
 20
213.66922
 10
515.7641
 20
214.02147
 10
514.99779
 20
214.38585
 10
514.23855
 20
214.76227
 10
513.48664
 20
215.15063999999998
 10
512.7423
 20
215.55084
 10
512.00577
 20
215.96278999999998
 10
511.27729
 20
216.38638
 10
510.5571
 20
216.82151
 10
509.84540000000004
 20
217.26801999999998
 10
509.14238
 20
217.72575
 10
508.44825000000003
 20
218.19454
 10
507.76320000000004
 20
218.67424
 10
507.08742
 20
219.16467
 10
506.42112000000003
 20
219.66568999999998
 10
505.7645
 20
220.17712999999998
 10
505.11773
 20
220.69883
 10
504.48104
 20
221.23063
 10
503.8546
 20
221.77237
 10
503.23863
 20
222.32388999999998
 10
502.63331
 20
222.88502
 10
502.03884
 20
223.45560999999998
 10
501.45542
 20
224.03549999999998
 10
500.88324
 20
224.62453
 10
500.3225
 20
225.22253
 10
499.77333
 20
225.82933
 10
499.23587000000003
 20
226.44474
 10
498.71025000000003
 20
227.06859
 10
498.1966
 20
227.70069999999998
 10
497.69506
 20
228.34089
 10
497.20575
 20
228.98898
 10
496.72882000000004
 20
229.64479
 10
496.26438
 20
230.30813999999998
 10
495.81258
 20
230.97885
 10
495.37355
 20
231.65673999999999
 10
494.94742
 20
232.34163999999998
 10
494.53432000000004
 20
233.03336
 10
494.13439
 20
233.73172
 10
493.74775
 20
234.43653999999998
 10
493.37455
 20
235.14765
 10
493.21127
 20
235.47806
 10
493.05801
 20
235.81324999999998
 10
492.91465
 20
236.15278999999998
 10
492.78131
 20
236.49638
 10
492.6581
 20
236.84374
 10
492.54512
 20
237.19456
 10
492.44249
 20
237.54854
 10
492.35027
 20
237.90537999999998
 10
492.26856000000004
 20
238.26477
 10
492.19742
 20
238.6264
 10
492.13692000000003
 20
238.98996
 10
492.0871
 20
239.35514
 10
492.04802
 20
239.72163
 10
492.01969
 20
240.0891
 10
492.00216
 20
240.45723999999998
 10
491.99542
 20
240.82574
 10
491.99243
 20
242.42920999999998
 10
501.99240000000003
 20
242.45183
 10
501.98109
 20
247.45182
 10
492.02001
 20
247.42928
 10
492.3001
 20
248.3876
 10
492.61344
 20
249.36023999999998
 10
492.96144000000004
 20
250.35052
 10
493.33413
 20
251.33513
 10
493.72284
 20
252.29417
 10
494.13567
 20
253.24797999999998
 10
494.57997
 20
254.21616999999998
 10
495.04327
 20
255.17513
 10
495.51395
 20
256.10204
 10
496.00355
 20
257.02049999999997
 10
496.52297
 20
257.95382
 10
497.05739
 20
258.87772
 10
497.59222
 20
259.76736999999997
 10
498.1393
 20
260.6433
 10
498.71112
 20
261.52771
 10
499.29618
 20
262.40395
 10
499.88198
 20
263.25329
 10
500.47592000000003
 20
264.08731
 10
501.08764
 20
264.92098
 10
501.71571
 20
265.75236
 10
502.35671
 20
266.57637
 10
503.01001
 20
267.39215
 10
503.6757
 20
268.19995
 10
504.35386
 20
268.99996999999996
 10
505.04463
 20
269.79241
 10
505.74824
 20
270.57727
 10
506.46497
 20
271.35452
 10
507.1951
 20
272.12415
 10
507.93797
 20
272.88523
 10
508.68914
 20
273.63333
 10
509.4457
 20
274.36544
 10
510.21461
 20
275.08778
 10
511.00199000000003
 20
275.80582
 10
511.80085
 20
276.51287
 10
512.60331
 20
277.20142
 10
513.41107
 20
277.87275999999997
 10
514.22653
 20
278.52912
 10
515.04528
 20
279.16744
 10
515.8656
 20
279.78643
 10
516.7034600000001
 20
280.39692
 10
517.57149
 20
281.00736
 10
518.45146
 20
281.60461
 10
519.3258500000001
 20
282.17578
 10
520.21102
 20
282.73071
 10
521.12404
 20
283.2799
 10
522.05103
 20
283.81381999999996
 10
522.97118
 20
284.31939
 10
523.89143
 20
284.80098
 10
524.87247
 20
285.28791
 10
525.8497600000001
 20
285.74564
 10
526.82261
 20
286.17373
 10
527.79308
 20
286.57346
 10
528.7582600000001
 20
286.9434
 10
529.7214
 20
287.28445999999997
 10
530.67994
 20
287.59614
 10
531.63472
 20
287.87861999999996
 10
532.65839
 20
288.15009
 10
533.67501
 20
288.387
 10
534.67606
 20
288.5882
 10
535.68712
 20
288.75716
 10
536.7254800000001
 20
288.89481
 10
537.77077
 20
288.99698
 10
538.7998
 20
289.05942
 10
539.81588
 20
289.08275
 10
540.72212
 20
289.0714
 10
541.63547
 20
289.02963
 10
542.5555
 20
288.95757
 10
543.4817400000001
 20
288.85533999999996
 10
544.41444
 20
288.72289
 10
545.35652
 20
288.55938
 10
546.3086000000001
 20
288.36465
 10
547.25921
 20
288.14191
 10
548.19841
 20
287.89405999999997
 10
549.13432
 20
287.61945
 10
550.07676
 20
287.31594
 10
551.02421
 20
286.9841
 10
551.97384
 20
286.6246
 10
552.92888
 20
286.23586
 10
553.89083
 20
285.8173
 10
554.8483200000001
 20
285.37473
 10
555.79152
 20
284.91319999999996
 10
556.72963
 20
284.42848
 10
557.67238
 20
283.91621
 10
558.61236
 20
283.38085
 10
559.54128
 20
282.82712
 10
560.46435
 20
282.25203999999997
 10
561.3874000000001
 20
281.65242
 10
562.30517
 20
281.03209
 10
563.21133
 20
280.39548
 10
564.10617
 20
279.74257
 10
564.9917
 20
279.07216999999997
 10
565.86989
 20
278.38313
 10
566.7425900000001
 20
277.67419
 10
567.61113
 20
276.94385
 10
568.47475
 20
276.19243
 10
569.32496
 20
275.42804
 10
570.1546900000001
 20
274.65758
 10
570.9705
 20
273.87523
 10
571.7796500000001
 20
273.07457999999997
 10
572.5785900000001
 20
272.25939
 10
573.36216
 20
271.43487
 10
574.12967
 20
270.60199
 10
574.88156
 20
269.76063999999997
 10
575.61823
 20
268.91069
 10
576.33996
 20
268.05219999999997
 10
577.04633
 20
267.18583
 10
577.7368
 20
266.31242
 10
578.41078
 20
265.43278
 10
579.06772
 20
264.54774
 10
579.70705
 20
263.65814
 10
580.32821
 20
262.7648
 10
580.9306300000001
 20
261.86854
 10
581.5137500000001
 20
260.9702
 10
582.07707
 20
260.07059
 10
582.62005
 20
259.17053
 10
583.1422
 20
258.27085
 10
583.64299
 20
257.37237
 10
584.12193
 20
256.47591
 10
584.57848
 20
255.58229
 10
585.01215
 20
254.69233
 10
585.42248
 20
253.80684
 10
585.8092300000001
 20
252.92655
 10
586.17223
 20
252.0522
 10
586.5113200000001
 20
251.18449999999999
 10
586.82631
 20
250.32416999999998
 10
587.11703
 20
249.47195
 10
587.38331
 20
248.62855
 10
587.62499
 20
247.79469999999998
 10
587.62532
 20
247.64555
 10
577.62535
 20
247.62293
 10
577.63666
 20
242.62294
 10
587.63663
 20
242.64556
 10
587.6397000000001
 20
241.29155
 10
587.63523
 20
240.92167
 10
587.61924
 20
240.5521
 10
587.5923700000001
 20
240.18316
 10
587.55466
 20
239.81517
 10
587.50614
 20
239.44844999999998
 10
587.44685
 20
239.08330999999998
 10
587.37683
 20
238.72008
 10
587.29616
 20
238.35907
 10
587.2049
 20
238.00057999999999
 10
587.10312
 20
237.64494
 10
586.99093
 20
237.29245
 10
586.86841
 20
236.94341
 10
586.73567
 20
236.59813
 10
586.59283
 20
236.2569
 10
586.44
 20
235.92003
 10
586.27733
 20
235.5878
 10
585.90583
 20
234.87554
 10
585.52115
 20
234.16904
 10
585.12315
 20
233.46865
 10
584.71194
 20
232.77455999999998
 10
584.28765
 20
232.08699
 10
583.8504
 20
231.40615
 10
583.40032
 20
230.73223
 10
582.9375600000001
 20
230.06544
 10
582.4622400000001
 20
229.40597
 10
581.9745
 20
228.75403
 10
581.47451
 20
228.10980999999998
 10
580.9624
 20
227.4735
 10
580.43832
 20
226.84528999999998
 10
579.9024400000001
 20
226.22537
 10
579.35491
 20
225.61392999999998
 10
578.7959000000001
 20
225.01113999999998
 10
578.22558
 20
224.41719
 10
577.6441
 20
223.83225
 10
577.05166
 20
223.25651
 10
576.44843
 20
222.69011999999998
 10
575.83457
 20
222.13326999999998
 10
575.21029
 20
221.58611
 10
574.57577
 20
221.04881
 10
573.93119
 20
220.52152999999998
 10
573.27674
 20
220.00444
 10
572.61263
 20
219.49767
 10
571.93906
 20
219.00139
 10
571.25621
 20
218.51575
 10
570.5643
 20
218.04088
 10
569.8635400000001
 20
217.57693
 10
569.15413
 20
217.12403999999998
 10
568.43629
 20
216.68233999999998
 10
567.71022
 20
216.25197
 10
566.97615
 20
215.83305
 10
566.2343000000001
 20
215.42570999999998
 10
565.48489
 20
215.03008
 10
564.72813
 20
214.64625999999998
 10
563.96427
 20
214.27437999999998
 10
563.19352
 20
213.91454
 10
562.41612
 20
213.56685
 10
561.63229
 20
213.23143
 10
560.8422800000001
 20
212.90834999999998
 10
560.04632
 20
212.59774
 10
559.24464
 20
212.29966
 10
558.43749
 20
212.01423
 10
557.62511
 20
211.74150999999998
 10
556.80774
 20
211.4816
 10
555.98562
 20
211.23456
 10
555.159
 20
211.00047999999998
 10
554.32813
 20
210.77942
 10
553.49325
 20
210.57145
 10
552.65462
 20
210.37663999999998
 10
551.81248
 20
210.19503
 10
550.96709
 20
210.02669
 10
550.1187
 20
209.87166
 10
549.26756
 20
209.72999
 10
548.41393
 20
209.60173
 10
547.5580600000001
 20
209.4869
 10
546.70021
 20
209.38556
 10
545.84064
 20
209.29771
 10
544.97959
 20
209.2234
 10
544.11733
 20
209.16264999999999
 10
543.2541200000001
 20
209.11547
 10
542.81659
 20
209.09844999999999
 10
542.81659
 20
216.49874
 10
536.81659
 20
216.49874
 10
536.81659
 20
209.07232
 10
536.52337
 20
209.08041
  0
LWPOLYLINE
  5
62
330
17
100
AcDbEntity
  8
CUT
100
AcDbPolyline
 90
105
 70
1
 10
560.81711
 20
222.02043999999998
 10
561.6402800000001
 20
222.451
 10
562.4524
 20
222.89871
 10
563.25303
 20
223.36332
 10
564.04174
 20
223.84459999999999
 10
564.81812
 20
224.34228
 10
565.58175
 20
224.8561
 10
566.33222
 20
225.38579
 10
567.0691400000001
 20
225.93105
 10
567.79211
 20
226.49160999999998
 10
568.50074
 20
227.06716
 10
569.19465
 20
227.65739
 10
569.87348
 20
228.26199
 10
570.53687
 20
228.88064
 10
571.18445
 20
229.51300999999998
 10
571.81589
 20
230.15875
 10
571.81589
 20
259.63248
 10
570.98932
 20
260.75563
 10
570.1377
 20
261.86248
 10
569.2578100000001
 20
262.9564
 10
568.34646
 20
264.04077
 10
567.40283
 20
265.11614
 10
566.43571
 20
266.17183
 10
565.45267
 20
267.19836
 10
564.44699
 20
268.2023
 10
563.41272
 20
269.18980999999997
 10
562.36143
 20
270.14947
 10
561.30521
 20
271.06919999999997
 10
560.24078
 20
271.95187999999996
 10
559.16229
 20
272.80285
 10
558.0690500000001
 20
273.62232
 10
556.9628700000001
 20
274.40858
 10
555.85026
 20
275.15736
 10
554.73814
 20
275.86435
 10
553.63048
 20
276.52761
 10
552.53048
 20
277.14581
 10
551.44134
 20
277.7176
 10
550.36486
 20
278.24213
 10
549.29714
 20
278.72037
 10
548.23709
 20
279.15261999999996
 10
547.2005800000001
 20
279.53448
 10
546.2003
 20
279.86262
 10
545.7089
 20
280.00818
 10
545.21925
 20
280.14273
 10
544.24231
 20
280.38052
 10
543.29163
 20
280.57276
 10
542.83478
 20
280.65033
 10
542.38912
 20
280.71591
 10
541.51855
 20
280.81421
 10
540.65985
 20
280.87243
 10
540.23549
 20
280.88638
 10
539.81589
 20
280.88989
 10
539.39554
 20
280.88274
 10
538.97047
 20
280.86508
 10
538.11022
 20
280.79922
 10
537.23786
 20
280.69297
 10
536.79154
 20
280.62332
 10
536.33439
 20
280.54163
 10
535.38457
 20
280.34113
 10
534.40994
 20
280.09532
 10
533.92171
 20
279.95693
 10
533.43168
 20
279.80755
 10
532.43304
 20
279.47131
 10
531.39595
 20
279.08026
 10
530.33513
 20
278.63864
 10
529.26806
 20
278.15157999999997
 10
528.19051
 20
277.61717
 10
527.09627
 20
277.03326
 10
525.9929
 20
276.40378999999996
 10
524.88876
 20
275.73285
 10
523.78176
 20
275.01894
 10
522.66993
 20
274.26090999999997
 10
521.56246
 20
273.46437
 10
520.46912
 20
272.63545
 10
519.39109
 20
271.77543
 10
518.3265
 20
270.88338
 10
517.2699700000001
 20
269.95428
 10
516.21883
 20
268.98569
 10
515.1847700000001
 20
267.98941
 10
514.17893
 20
266.97659999999996
 10
513.19569
 20
265.94137
 10
512.2287
 20
264.87747
 10
511.28532
 20
263.7942
 10
510.37404000000004
 20
262.70202
 10
509.49409
 20
261.60042
 10
508.6424
 20
260.48614
 10
507.81589
 20
259.35593
 10
507.81589
 20
229.88217
 10
508.43905
 20
229.25009
 10
509.07794
 20
228.63118
 10
509.73224
 20
228.02575
 10
510.40159
 20
227.43412999999998
 10
511.08567
 20
226.85662
 10
511.7841
 20
226.29352
 10
512.49652
 20
225.74512
 10
513.22258
 20
225.21170999999998
 10
513.9618800000001
 20
224.69357
 10
514.7140400000001
 20
224.19097
 10
515.47868
 20
223.70416
 10
516.25539
 20
223.2334
 10
517.04378
 20
222.77893
 10
517.84343
 20
222.34099999999998
 10
518.65392
 20
221.91982
 10
519.47484
 20
221.51561999999998
 10
559.98333
 20
221.60725
  0
LWPOLYLINE
  5
63
330
17
100
AcDbEntity
  8
CUT
100
AcDbPolyline
 90
39
 70
1
 10
521.31658
 20
277.45578
 10
521.29715
 20
277.6964
 10
521.23938
 20
277.93079
 10
521.14476
 20
278.15287
 10
521.01574
 20
278.3569
 10
520.8556600000001
 20
278.53759
 10
520.66867
 20
278.69025999999997
 10
520.45961
 20
278.81096
 10
520.2339000000001
 20
278.89656
 10
519.99738
 20
278.94485
 10
519.75618
 20
278.95457
 10
519.51654
 20
278.92547
 10
519.28467
 20
278.85830999999996
 10
519.06658
 20
278.75482
 10
518.86791
 20
278.61769
 10
518.69381
 20
278.45047
 10
518.54879
 20
278.25748
 10
518.43661
 20
278.04373
 10
518.3601600000001
 20
277.81476
 10
518.32144
 20
277.57648
 10
518.32144
 20
277.33508
 10
518.3601600000001
 20
277.09681
 10
518.43661
 20
276.86782999999997
 10
518.54879
 20
276.65409
 10
518.69381
 20
276.4611
 10
518.86791
 20
276.29388
 10
519.06658
 20
276.15675
 10
519.28467
 20
276.05326
 10
519.51654
 20
275.98609999999996
 10
519.75618
 20
275.957
 10
519.99738
 20
275.96672
 10
520.2339000000001
 20
276.01500999999996
 10
520.45961
 20
276.10060999999996
 10
520.66867
 20
276.22131
 10
520.8556600000001
 20
276.37397999999996
 10
521.01574
 20
276.55467
 10
521.14476
 20
276.7587
 10
521.23938
 20
276.98078
 10
521.29715
 20
277.21517
  0
LWPOLYLINE
  5
64
330
17
100
AcDbEntity
  8
CUT
100
AcDbPolyline
 90
39
 70
1
 10
561.31658
 20
277.45578
 10
561.29715
 20
277.6964
 10
561.23938
 20
277.93079
 10
561.14476
 20
278.15287
 10
561.01574
 20
278.3569
 10
560.8556600000001
 20
278.53759
 10
560.66867
 20
278.69025999999997
 10
560.45961
 20
278.81096
 10
560.2339000000001
 20
278.89656
 10
559.99738
 20
278.94485
 10
559.75618
 20
278.95457
 10
559.51654
 20
278.92547
 10
559.28467
 20
278.85830999999996
 10
559.06658
 20
278.75482
 10
558.86791
 20
278.61769
 10
558.69381
 20
278.45047
 10
558.54879
 20
278.25748
 10
558.43661
 20
278.04373
 10
558.36016
 20
277.81476
 10
558.32144
 20
277.57648
 10
558.32144
 20
277.33508
 10
558.36016
 20
277.09681
 10
558.43661
 20
276.86782999999997
 10
558.54879
 20
276.65409
 10
558.69381
 20
276.4611
 10
558.86791
 20
276.29388
 10
559.06658
 20
276.15675
 10
559.28467
 20
276.05326
 10
559.51654
 20
275.98609999999996
 10
559.75618
 20
275.957
 10
559.99738
 20
275.96672
 10
560.2339000000001
 20
276.01500999999996
 10
560.45961
 20
276.10060999999996
 10
560.66867
 20
276.22131
 10
560.8556600000001
 20
276.37397999999996
 10
561.01574
 20
276.55467
 10
561.14476
 20
276.7587
 10
561.23938
 20
276.98078
 10
561.29715
 20
277.21517
  0
ENDSEC
  0
SECTION
  2
OBJECTS
  0
DICTIONARY
  5
A
330
0
100
AcDbDictionary
281
1
  3
ACAD_COLOR
350
B
  3
ACAD_GROUP
350
C
  3
ACAD_LAYOUT
350
D
  3
ACAD_MATERIAL
350
E
  3
ACAD_MLEADERSTYLE
350
F
  3
ACAD_MLINESTYLE
350
10
  3
ACAD_PLOTSETTINGS
350
11
  3
ACAD_PLOTSTYLENAME
350
12
  3
ACAD_SCALELIST
350
14
  3
ACAD_TABLESTYLE
350
15
  3
ACAD_VISUALSTYLE
350
16
  3
EZDXF_META
350
2D
  0
DICTIONARY
  5
B
330
A
100
AcDbDictionary
281
1
  0
DICTIONARY
  5
C
330
A
100
AcDbDictionary
281
1
  0
DICTIONARY
  5
D
330
A
100
AcDbDictionary
281
1
  3
Model
350
1A
  3
Layout1
350
1E
  0
DICTIONARY
  5
E
330
A
100
AcDbDictionary
281
1
  3
ByBlock
350
1F
  3
ByLayer
350
20
  3
Global
350
21
  0
DICTIONARY
  5
F
330
A
100
AcDbDictionary
281
1
  3
Standard
350
2C
  0
DICTIONARY
  5
10
330
A
100
AcDbDictionary
281
1
  3
Standard
350
22
  0
DICTIONARY
  5
11
330
A
100
AcDbDictionary
281
1
  0
ACDBDICTIONARYWDFLT
  5
12
330
A
100
AcDbDictionary
281
1
  3
Normal
350
13
100
AcDbDictionaryWithDefault
340
13
  0
ACDBPLACEHOLDER
  5
13
330
12
  0
DICTIONARY
  5
14
330
A
100
AcDbDictionary
281
1
  0
DICTIONARY
  5
15
330
A
100
AcDbDictionary
281
1
  0
DICTIONARY
  5
16
330
A
100
AcDbDictionary
281
1
  0
LAYOUT
  5
1A
330
D
100
AcDbPlotSettings
  1

  4
A3
  6

 40
7.5
 41
20.0
 42
7.5
 43
20.0
 44
420.0
 45
297.0
 46
0.0
 47
0.0
 48
0.0
 49
0.0
140
0.0
141
0.0
142
1.0
143
1.0
 70
1024
 72
1
 73
0
 74
5
  7

 75
16
 76
0
 77
2
 78
300
147
1.0
148
0.0
149
0.0
100
AcDbLayout
  1
Model
 70
1
 71
0
 10
0.0
 20
0.0
 11
420.0
 21
297.0
 12
0.0
 22
0.0
 32
0.0
 14
1e+20
 24
1e+20
 34
1e+20
 15
-1e+20
 25
-1e+20
 35
-1e+20
146
0.0
 13
0.0
 23
0.0
 33
0.0
 16
1.0
 26
0.0
 36
0.0
 17
0.0
 27
1.0
 37
0.0
 76
1
330
17
  0
LAYOUT
  5
1E
330
D
100
AcDbPlotSettings
  1

  4
A3
  6

 40
7.5
 41
20.0
 42
7.5
 43
20.0
 44
420.0
 45
297.0
 46
0.0
 47
0.0
 48
0.0
 49
0.0
140
0.0
141
0.0
142
1.0
143
1.0
 70
0
 72
1
 73
0
 74
5
  7

 75
16
 76
0
 77
2
 78
300
147
1.0
148
0.0
149
0.0
100
AcDbLayout
  1
Layout1
 70
1
 71
1
 10
0.0
 20
0.0
 11
420.0
 21
297.0
 12
0.0
 22
0.0
 32
0.0
 14
1e+20
 24
1e+20
 34
1e+20
 15
-1e+20
 25
-1e+20
 35
-1e+20
146
0.0
 13
0.0
 23
0.0
 33
0.0
 16
1.0
 26
0.0
 36
0.0
 17
0.0
 27
1.0
 37
0.0
 76
1
330
1B
  0
MATERIAL
  5
1F
102
{ACAD_REACTORS
330
E
102
}
330
E
100
AcDbMaterial
  1
ByBlock
  2

 70
0
 40
1.0
 71
1
 41
1.0
 91
-1023410177
 42
1.0
 72
1
  3

 73
1
 74
1
 75
1
 44
0.5
 73
0
 45
1.0
 46
1.0
 77
1
  4

 78
1
 79
1
170
1
 48
1.0
171
1
  6

172
1
173
1
174
1
140
1.0
141
1.0
175
1
  7

176
1
177
1
178
1
143
1.0
179
1
  8

270
1
271
1
272
1
145
1.0
146
1.0
273
1
  9

274
1
275
1
276
1
 42
1.0
 72
1
  3

 73
1
 74
1
 75
1
 94
63
  0
MATERIAL
  5
20
102
{ACAD_REACTORS
330
E
102
}
330
E
100
AcDbMaterial
  1
ByLayer
  2

 70
0
 40
1.0
 71
1
 41
1.0
 91
-1023410177
 42
1.0
 72
1
  3

 73
1
 74
1
 75
1
 44
0.5
 73
0
 45
1.0
 46
1.0
 77
1
  4

 78
1
 79
1
170
1
 48
1.0
171
1
  6

172
1
173
1
174
1
140
1.0
141
1.0
175
1
  7

176
1
177
1
178
1
143
1.0
179
1
  8

270
1
271
1
272
1
145
1.0
146
1.0
273
1
  9

274
1
275
1
276
1
 42
1.0
 72
1
  3

 73
1
 74
1
 75
1
 94
63
  0
MATERIAL
  5
21
102
{ACAD_REACTORS
330
E
102
}
330
E
100
AcDbMaterial
  1
Global
  2

 70
0
 40
1.0
 71
1
 41
1.0
 91
-1023410177
 42
1.0
 72
1
  3

 73
1
 74
1
 75
1
 44
0.5
 73
0
 45
1.0
 46
1.0
 77
1
  4

 78
1
 79
1
170
1
 48
1.0
171
1
  6

172
1
173
1
174
1
140
1.0
141
1.0
175
1
  7

176
1
177
1
178
1
143
1.0
179
1
  8

270
1
271
1
272
1
145
1.0
146
1.0
273
1
  9

274
1
275
1
276
1
 42
1.0
 72
1
  3

 73
1
 74
1
 75
1
 94
63
  0
MLINESTYLE
  5
22
102
{ACAD_REACTORS
330
10
102
}
330
10
100
AcDbMlineStyle
  2
Standard
 70
0
  3

 62
256
 51
90.0
 52
90.0
 71
2
 49
0.5
 62
256
  6
BYLAYER
 49
-0.5
 62
256
  6
BYLAYER
  0
MLEADERSTYLE
  5
2C
102
{ACAD_REACTORS
330
F
102
}
330
F
100
AcDbMLeaderStyle
179
2
170
2
171
1
172
0
 90
2
 40
0.0
 41
0.0
173
1
 91
-1056964608
 92
-2
290
1
 42
2.0
291
1
 43
8.0
  3
Standard
 44
4.0
300

342
29
174
1
175
1
176
0
178
1
 93
-1056964608
 45
4.0
292
0
297
0
 46
4.0
 94
-1056964608
 47
1.0
 49
1.0
140
1.0
294
1
141
0.0
177
0
142
1.0
295
0
296
0
143
3.75
271
0
272
9
273
9
  0
DICTIONARY
  5
2D
330
A
100
AcDbDictionary
280
1
281
1
  3
CREATED_BY_EZDXF
350
2E
  3
WRITTEN_BY_EZDXF
350
67
  0
DICTIONARYVAR
  5
2E
330
2D
100
DictionaryVariables
280
0
  1
1.4.4 @ 2026-09-24T13:29:48.479605+00:00
  0
DICTIONARYVAR
  5
67
330
2D
100
DictionaryVariables
280
0
  1
1.4.4 @ 2026-09-24T13:29:48.558828+00:00
  0
ENDSEC
  0
EOF
