  0
SECTION
  2
HEADER
  9
$ACADVER
  1
AC1024
  9
$ACADMAINTVER
 70
6
  9
$DWGCODEPAGE
  3
ANSI_1252
  9
$LASTSAVEDBY
  1
ezdxf
  9
$INSBASE
 10
0.0
 20
0.0
 30
0.0
  9
$EXTMIN
 10
1e+20
 20
1e+20
 30
1e+20
  9
$EXTMAX
 10
-1e+20
 20
-1e+20
 30
-1e+20
  9
$LIMMIN
 10
0.0
 20
0.0
  9
$LIMMAX
 10
420.0
 20
297.0
  9
$ORTHOMODE
 70
0
  9
$REGENMODE
 70
1
  9
$FILLMODE
 70
1
  9
$QTEXTMODE
 70
0
  9
$MIRRTEXT
 70
1
  9
$LTSCALE
 40
1.0
  9
$ATTMODE
 70
1
  9
$TEXTSIZE
 40
2.5
  9
$TRACEWID
 40
1.0
  9
$TEXTSTYLE
  7
Standard
  9
$CLAYER
  8
0
  9
$CELTYPE
  6
ByLayer
  9
$CECOLOR
 62
256
  9
$CELTSCALE
 40
1.0
  9
$DISPSILH
 70
0
  9
$DIMSCALE
 40
1.0
  9
$DIMASZ
 40
2.5
  9
$DIMEXO
 40
0.625
  9
$DIMDLI
 40
3.75
  9
$DIMRND
 40
0.0
  9
$DIMDLE
 40
0.0
  9
$DIMEXE
 40
1.25
  9
$DIMTP
 40
0.0
  9
$DIMTM
 40
0.0
  9
$DIMTXT
 40
2.5
  9
$DIMCEN
 40
2.5
  9
$DIMTSZ
 40
0.0
  9
$DIMTOL
 70
0
  9
$DIMLIM
 70
0
  9
$DIMTIH
 70
0
  9
$DIMTOH
 70
0
  9
$DIMSE1
 70
0
  9
$DIMSE2
 70
0
  9
$DIMTAD
 70
1
  9
$DIMZIN
 70
8
  9
$DIMBLK
  1

  9
$DIMASO
 70
1
  9
$DIMSHO
 70
1
  9
$DIMPOST
  1

  9
$DIMAPOST
  1

  9
$DIMALT
 70
0
  9
$DIMALTD
 70
3
  9
$DIMALTF
 40
0.03937007874
  9
$DIMLFAC
 40
1.0
  9
$DIMTOFL
 70
1
  9
$DIMTVP
 40
0.0
  9
$DIMTIX
 70
0
  9
$DIMSOXD
 70
0
  9
$DIMSAH
 70
0
  9
$DIMBLK1
  1

  9
$DIMBLK2
  1

  9
$DIMSTYLE
  2
ISO-25
  9
$DIMCLRD
 70
0
  9
$DIMCLRE
 70
0
  9
$DIMCLRT
 70
0
  9
$DIMTFAC
 40
1.0
  9
$DIMGAP
 40
0.625
  9
$DIMJUST
 70
0
  9
$DIMSD1
 70
0
  9
$DIMSD2
 70
0
  9
$DIMTOLJ
 70
0
  9
$DIMTZIN
 70
8
  9
$DIMALTZ
 70
0
  9
$DIMALTTZ
 70
0
  9
$DIMUPT
 70
0
  9
$DIMDEC
 70
2
  9
$DIMTDEC
 70
2
  9
$DIMALTU
 70
2
  9
$DIMALTTD
 70
3
  9
$DIMTXSTY
  7
Standard
  9
$DIMAUNIT
 70
0
  9
$DIMADEC
 70
0
  9
$DIMALTRND
 40
0.0
  9
$DIMAZIN
 70
0
  9
$DIMDSEP
 70
44
  9
$DIMATFIT
 70
3
  9
$DIMFRAC
 70
0
  9
$DIMLDRBLK
  1

  9
$DIMLUNIT
 70
2
  9
$DIMLWD
 70
-2
  9
$DIMLWE
 70
-2
  9
$DIMTMOVE
 70
0
  9
$DIMFXL
 40
1.0
  9
$DIMFXLON
 70
0
  9
$DIMJOGANG
 40
0.785398163397
  9
$DIMTFILL
 70
0
  9
$DIMTFILLCLR
 70
0
  9
$DIMARCSYM
 70
0
  9
$DIMLTYPE
  6

  9
$DIMLTEX1
  6

  9
$DIMLTEX2
  6

  9
$DIMTXTDIRECTION
 70
0
  9
$LUNITS
 70
2
  9
$LUPREC
 70
4
  9
$SKETCHINC
 40
1.0
  9
$FILLETRAD
 40
10.0
  9
$AUNITS
 70
0
  9
$AUPREC
 70
2
  9
$MENU
  1
.
  9
$ELEVATION
 40
0.0
  9
$PELEVATION
 40
0.0
  9
$THICKNESS
 40
0.0
  9
$LIMCHECK
 70
0
  9
$CHAMFERA
 40
0.0
  9
$CHAMFERB
 40
0.0
  9
$CHAMFERC
 40
0.0
  9
$CHAMFERD
 40
0.0
  9
$SKPOLY
 70
0
  9
$TDCREATE
 40
2461308.074340278
  9
$TDUCREATE
 40
2458532.153996898
  9
$TDUPDATE
 40
2461308.074340278
  9
$TDUUPDATE
 40
2458532.1544311
  9
$TDINDWG
 40
0.0
  9
$TDUSRTIMER
 40
0.0
  9
$USRTIMER
 70
1
  9
$ANGBASE
 50
0.0
  9
$ANGDIR
 70
0
  9
$PDMODE
 70
0
  9
$PDSIZE
 40
0.0
  9
$PLINEWID
 40
0.0
  9
$SPLFRAME
 70
0
  9
$SPLINETYPE
 70
6
  9
$SPLINESEGS
 70
8
  9
$HANDSEED
  5
96
  9
$SURFTAB1
 70
6
  9
$SURFTAB2
 70
6
  9
$SURFTYPE
 70
6
  9
$SURFU
 70
6
  9
$SURFV
 70
6
  9
$UCSBASE
  2

  9
$UCSNAME
  2

  9
$UCSORG
 10
0.0
 20
0.0
 30
0.0
  9
$UCSXDIR
 10
1.0
 20
0.0
 30
0.0
  9
$UCSYDIR
 10
0.0
 20
1.0
 30
0.0
  9
$UCSORTHOREF
  2

  9
$UCSORTHOVIEW
 70
0
  9
$UCSORGTOP
 10
0.0
 20
0.0
 30
0.0
  9
$UCSORGBOTTOM
 10
0.0
 20
0.0
 30
0.0
  9
$UCSORGLEFT
 10
0.0
 20
0.0
 30
0.0
  9
$UCSORGRIGHT
 10
0.0
 20
0.0
 30
0.0
  9
$UCSORGFRONT
 10
0.0
 20
0.0
 30
0.0
  9
$UCSORGBACK
 10
0.0
 20
0.0
 30
0.0
  9
$PUCSBASE
  2

  9
$PUCSNAME
  2

  9
$PUCSORG
 10
0.0
 20
0.0
 30
0.0
  9
$PUCSXDIR
 10
1.0
 20
0.0
 30
0.0
  9
$PUCSYDIR
 10
0.0
 20
1.0
 30
0.0
  9
$PUCSORTHOREF
  2

  9
$PUCSORTHOVIEW
 70
0
  9
$PUCSORGTOP
 10
0.0
 20
0.0
 30
0.0
  9
$PUCSORGBOTTOM
 10
0.0
 20
0.0
 30
0.0
  9
$PUCSORGLEFT
 10
0.0
 20
0.0
 30
0.0
  9
$PUCSORGRIGHT
 10
0.0
 20
0.0
 30
0.0
  9
$PUCSORGFRONT
 10
0.0
 20
0.0
 30
0.0
  9
$PUCSORGBACK
 10
0.0
 20
0.0
 30
0.0
  9
$USERI1
 70
0
  9
$USERI2
 70
0
  9
$USERI3
 70
0
  9
$USERI4
 70
0
  9
$USERI5
 70
0
  9
$USERR1
 40
0.0
  9
$USERR2
 40
0.0
  9
$USERR3
 40
0.0
  9
$USERR4
 40
0.0
  9
$USERR5
 40
0.0
  9
$WORLDVIEW
 70
1
  9
$SHADEDGE
 70
3
  9
$SHADEDIF
 70
70
  9
$TILEMODE
 70
1
  9
$MAXACTVP
 70
64
  9
$PINSBASE
 10
0.0
 20
0.0
 30
0.0
  9
$PLIMCHECK
 70
0
  9
$PEXTMIN
 10
1e+20
 20
1e+20
 30
1e+20
  9
$PEXTMAX
 10
-1e+20
 20
-1e+20
 30
-1e+20
  9
$PLIMMIN
 10
0.0
 20
0.0
  9
$PLIMMAX
 10
420.0
 20
297.0
  9
$UNITMODE
 70
0
  9
$VISRETAIN
 70
1
  9
$PLINEGEN
 70
0
  9
$PSLTSCALE
 70
1
  9
$TREEDEPTH
 70
3020
  9
$CMLSTYLE
  2
Standard
  9
$CMLJUST
 70
0
  9
$CMLSCALE
 40
20.0
  9
$PROXYGRAPHICS
 70
1
  9
$MEASUREMENT
 70
1
  9
$CELWEIGHT
370
-1
  9
$ENDCAPS
280
0
  9
$JOINSTYLE
280
0
  9
$LWDISPLAY
290
0
  9
$INSUNITS
 70
4
  9
$HYPERLINKBASE
  1

  9
$STYLESHEET
  1

  9
$XEDIT
290
1
  9
$CEPSNTYPE
380
0
  9
$PSTYLEMODE
290
1
  9
$FINGERPRINTGUID
  2
{D8D026A5-2977-4293-B25B-E67B369AB196}
  9
$VERSIONGUID
  2
{6EF85601-6E7D-4FB0-8A73-491F8A36E4A6}
  9
$EXTNAMES
290
1
  9
$PSVPSCALE
 40
0.0
  9
$OLESTARTUP
290
0
  9
$SORTENTS
280
127
  9
$INDEXCTL
280
0
  9
$HIDETEXT
280
1
  9
$XCLIPFRAME
280
1
  9
$HALOGAP
280
0
  9
$OBSCOLOR
 70
257
  9
$OBSLTYPE
280
0
  9
$INTERSECTIONDISPLAY
280
0
  9
$INTERSECTIONCOLOR
 70
257
  9
$DIMASSOC
280
2
  9
$PROJECTNAME
  1

  9
$CAMERADISPLAY
290
0
  9
$LENSLENGTH
 40
50.0
  9
$CAMERAHEIGHT
 40
0.0
  9
$STEPSPERSEC
 40
24.0
  9
$STEPSIZE
 40
100.0
  9
$3DDWFPREC
 40
2.0
  9
$PSOLWIDTH
 40
0.005
  9
$PSOLHEIGHT
 40
0.08
  9
$LOFTANG1
 40
1.570796326795
  9
$LOFTANG2
 40
1.570796326795
  9
$LOFTMAG1
 40
0.0
  9
$LOFTMAG2
 40
0.0
  9
$LOFTPARAM
 70
7
  9
$LOFTNORMALS
280
1
  9
$LATITUDE
 40
37.795
  9
$LONGITUDE
 40
-122.394
  9
$NORTHDIRECTION
 40
0.0
  9
$TIMEZONE
 70
-8000
  9
$LIGHTGLYPHDISPLAY
280
1
  9
$TILEMODELIGHTSYNCH
280
1
  9
$CMATERIAL
347
20
  9
$SOLIDHIST
280
0
  9
$SHOWHIST
280
1
  9
$DWFFRAME
280
2
  9
$DGNFRAME
280
2
  9
$REALWORLDSCALE
290
1
  9
$INTERFERECOLOR
 62
256
  9
$CSHADOW
280
0
  9
$SHADOWPLANELOCATION
 40
0.0
  0
ENDSEC
  0
SECTION
  2
CLASSES
  0
CLASS
  1
ACDBDICTIONARYWDFLT
  2
AcDbDictionaryWithDefault
  3
ObjectDBX Classes
 90
0
 91
0
280
0
281
0
  0
CLASS
  1
SUN
  2
AcDbSun
  3
SCENEOE
 90
1153
 91
0
280
0
281
0
  0
CLASS
  1
VISUALSTYLE
  2
AcDbVisualStyle
  3
ObjectDBX Classes
 90
4095
 91
0
280
0
281
0
  0
CLASS
  1
MATERIAL
  2
AcDbMaterial
  3
ObjectDBX Classes
 90
1153
 91
0
280
0
281
0
  0
CLASS
  1
SCALE
  2
AcDbScale
  3
ObjectDBX Classes
 90
1153
 91
0
280
0
281
0
  0
CLASS
  1
TABLESTYLE
  2
AcDbTableStyle
  3
ObjectDBX Classes
 90
4095
 91
0
280
0
281
0
  0
CLASS
  1
MLEADERSTYLE
  2
AcDbMLeaderStyle
  3
ACDB_MLEADERSTYLE_CLASS
 90
4095
 91
0
280
0
281
0
  0
CLASS
  1
DICTIONARYVAR
  2
AcDbDictionaryVar
  3
ObjectDBX Classes
 90
0
 91
0
280
0
281
0
  0
CLASS
  1
CELLSTYLEMAP
  2
AcDbCellStyleMap
  3
ObjectDBX Classes
 90
1152
 91
0
280
0
281
0
  0
CLASS
  1
MENTALRAYRENDERSETTINGS
  2
AcDbMentalRayRenderSettings
  3
SCENEOE
 90
1024
 91
0
280
0
281
0
  0
CLASS
  1
ACDBDETAILVIEWSTYLE
  2
AcDbDetailViewStyle
  3
ObjectDBX Classes
 90
1025
 91
0
280
0
281
0
  0
CLASS
  1
ACDBSECTIONVIEWSTYLE
  2
AcDbSectionViewStyle
  3
ObjectDBX Classes
 90
1025
 91
0
280
0
281
0
  0
CLASS
  1
RASTERVARIABLES
  2
AcDbRasterVariables
  3
ISM
 90
0
 91
0
280
0
281
0
  0
CLASS
  1
ACDBPLACEHOLDER
  2
AcDbPlaceHolder
  3
ObjectDBX Classes
 90
0
 91
0
280
0
281
0
  0
CLASS
  1
LAYOUT
  2
AcDbLayout
  3
ObjectDBX Classes
 90
0
 91
0
280
0
281
0
  0
ENDSEC
  0
SECTION
  2
TABLES
  0
TABLE
  2
VPORT
  5
8
330
0
100
AcDbSymbolTable
 70
1
  0
VPORT
  5
23
330
8
100
AcDbSymbolTableRecord
100
AcDbViewportTableRecord
  2
*Active
 70
0
 10
0.0
 20
0.0
 11
1.0
 21
1.0
 12
0.0
 22
0.0
 13
0.0
 23
0.0
 14
0.5
 24
0.5
 15
0.5
 25
0.5
 16
0.0
 26
0.0
 36
1.0
 17
0.0
 27
0.0
 37
0.0
 40
1000.0
 41
1.34
 42
50.0
 43
0.0
 44
0.0
 50
0.0
 51
0.0
 71
0
 72
1000
 73
1
 74
3
 75
0
 76
0
 77
0
 78
0
281
0
 65
0
146
0.0
  0
ENDTAB
  0
TABLE
  2
LTYPE
  5
2
330
0
100
AcDbSymbolTable
 70
3
  0
LTYPE
  5
24
330
2
100
AcDbSymbolTableRecord
100
AcDbLinetypeTableRecord
  2
ByBlock
 70
0
  3

 72
65
 73
0
 40
0.0
  0
LTYPE
  5
25
330
2
100
AcDbSymbolTableRecord
100
AcDbLinetypeTableRecord
  2
ByLayer
 70
0
  3

 72
65
 73
0
 40
0.0
  0
LTYPE
  5
26
330
2
100
AcDbSymbolTableRecord
100
AcDbLinetypeTableRecord
  2
Continuous
 70
0
  3

 72
65
 73
0
 40
0.0
  0
ENDTAB
  0
TABLE
  2
LAYER
  5
1
330
0
100
AcDbSymbolTable
 70
6
  0
LAYER
  5
27
330
1
100
AcDbSymbolTableRecord
100
AcDbLayerTableRecord
  2
0
 70
0
 62
7
  6
Continuous
370
-3
390
13
347
21
  0
LAYER
  5
28
330
1
100
AcDbSymbolTableRecord
100
AcDbLayerTableRecord
  2
Defpoints
 70
0
 62
7
  6
Continuous
290
0
370
-3
390
13
347
21
  0
LAYER
  5
2F
330
1
100
AcDbSymbolTableRecord
100
AcDbLayerTableRecord
  2
CUT
 70
0
 62
7
  6
Continuous
370
-3
390
13
347
21
  0
LAYER
  5
30
330
1
100
AcDbSymbolTableRecord
100
AcDbLayerTableRecord
  2
TEST_CUT_FIRST
 70
0
 62
1
  6
Continuous
370
-3
390
13
347
21
  0
LAYER
  5
31
330
1
100
AcDbSymbolTableRecord
100
AcDbLayerTableRecord
  2
LABEL_DO_NOT_CUT
 70
0
 62
3
  6
Continuous
370
-3
390
13
347
21
  0
LAYER
  5
32
330
1
100
AcDbSymbolTableRecord
100
AcDbLayerTableRecord
  2
STOCK_DO_NOT_CUT
 70
0
 62
8
  6
Continuous
370
-3
390
13
347
21
  0
ENDTAB
  0
TABLE
  2
STYLE
  5
5
330
0
100
AcDbSymbolTable
 70
1
  0
STYLE
  5
29
330
5
100
AcDbSymbolTableRecord
100
AcDbTextStyleTableRecord
  2
Standard
 70
0
 40
0.0
 41
1.0
 50
0.0
 71
0
 42
2.5
  3
txt
  4

  0
ENDTAB
  0
TABLE
  2
VIEW
  5
7
330
0
100
AcDbSymbolTable
 70
0
  0
ENDTAB
  0
TABLE
  2
UCS
  5
6
330
0
100
AcDbSymbolTable
 70
0
  0
ENDTAB
  0
TABLE
  2
APPID
  5
3
330
0
100
AcDbSymbolTable
 70
3
  0
APPID
  5
2A
330
3
100
AcDbSymbolTableRecord
100
AcDbRegAppTableRecord
  2
ACAD
 70
0
  0
APPID
  5
93
330
3
100
AcDbSymbolTableRecord
100
AcDbRegAppTableRecord
  2
HATCHBACKGROUNDCOLOR
 70
0
  0
APPID
  5
94
330
3
100
AcDbSymbolTableRecord
100
AcDbRegAppTableRecord
  2
EZDXF
 70
0
  0
ENDTAB
  0
TABLE
  2
DIMSTYLE
  5
4
330
0
100
AcDbSymbolTable
 70
1
100
AcDbDimStyleTable
  0
DIMSTYLE
105
2B
330
4
100
AcDbSymbolTableRecord
100
AcDbDimStyleTableRecord
  2
Standard
 70
0
 40
1.0
 41
2.5
 42
0.625
 43
3.75
 44
1.25
 45
0.0
 46
0.0
 47
0.0
 48
0.0
 49
2.5
140
2.5
141
2.5
142
0.0
143
0.03937007874
144
1.0
145
0.0
146
1.0
147
0.625
148
0.0
 69
0
 70
0
 71
0
 72
0
 73
0
 74
0
 75
0
 76
0
 77
1
 78
8
 79
3
170
0
171
3
172
1
173
0
174
0
175
0
176
0
177
0
178
0
179
2
271
2
272
2
273
2
274
3
275
0
276
0
277
2
278
44
279
0
280
0
281
0
282
0
283
0
284
8
285
0
286
0
288
0
289
3
290
0
371
-2
372
-2
  0
ENDTAB
  0
TABLE
  2
BLOCK_RECORD
  5
9
330
0
100
AcDbSymbolTable
 70
2
  0
BLOCK_RECORD
  5
17
330
9
100
AcDbSymbolTableRecord
100
AcDbBlockTableRecord
  2
*Model_Space
340
1A
 70
0
280
1
281
0
  0
BLOCK_RECORD
  5
1B
330
9
100
AcDbSymbolTableRecord
100
AcDbBlockTableRecord
  2
*Paper_Space
340
1E
 70
0
280
1
281
0
  0
ENDTAB
  0
ENDSEC
  0
SECTION
  2
BLOCKS
  0
BLOCK
  5
18
330
17
100
AcDbEntity
  8
0
100
AcDbBlockBegin
  2
*Model_Space
 70
0
 10
0.0
 20
0.0
 30
0.0
  3
*Model_Space
  1

  0
ENDBLK
  5
19
330
17
100
AcDbEntity
  8
0
100
AcDbBlockEnd
  0
BLOCK
  5
1C
330
1B
100
AcDbEntity
  8
0
100
AcDbBlockBegin
  2
*Paper_Space
 70
0
 10
0.0
 20
0.0
 30
0.0
  3
*Paper_Space
  1

  0
ENDBLK
  5
1D
330
1B
100
AcDbEntity
  8
0
100
AcDbBlockEnd
  0
ENDSEC
  0
SECTION
  2
ENTITIES
  0
LWPOLYLINE
  5
33
330
17
100
AcDbEntity
  8
STOCK_DO_NOT_CUT
100
AcDbPolyline
 90
4
 70
1
 10
0.0
 20
0.0
 10
609.6
 20
0.0
 10
609.6
 20
457.2
 10
0.0
 20
457.2
  0
LWPOLYLINE
  5
34
330
17
100
AcDbEntity
  8
CUT
100
AcDbPolyline
 90
318
 70
1
 10
24.74066
 20
53.31065
 10
25.25984
 20
52.69449
 10
25.79164
 20
52.08281
 10
26.33575
 20
51.47575
 10
26.89186
 20
50.87345
 10
27.45967
 20
50.27604
 10
28.03885
 20
49.68367
 10
28.62911
 20
49.09648
 10
29.23012
 20
48.51461
 10
29.84152
 20
47.93824
 10
30.46292
 20
47.36752
 10
31.09405
 20
46.80248
 10
31.73462
 20
46.24318
 10
32.38436
 20
45.68964
 10
33.04298
 20
45.14194
 10
34.38574
 20
44.06417
 10
35.75954
 20
43.01106
 10
37.16135
 20
41.983509999999995
 10
38.58943
 20
40.98143
 10
40.04205
 20
40.00471
 10
41.517070000000004
 20
39.0535
 10
43.01246
 20
38.12781
 10
44.52664
 20
37.227360000000004
 10
46.05799
 20
36.35189
 10
47.60358
 20
35.5019
 10
49.16084
 20
34.677859999999995
 10
50.72874
 20
33.87938
 10
52.30626
 20
33.10606
 10
53.89236
 20
32.35753
 10
55.48601
 20
31.63339
 10
57.08619
 20
30.93326
 10
58.69187
 20
30.25675
 10
60.30081
 20
29.60398
 10
61.91107
 20
28.9751
 10
63.52206
 20
28.36975
 10
65.13315
 20
27.78757
 10
66.74377
 20
27.2282
 10
68.35329
 20
26.69129
 10
69.96113
 20
26.17648
 10
71.56667999999999
 20
25.683410000000002
 10
73.16839
 20
25.21203
 10
74.76488
 20
24.76237
 10
76.35577
 20
24.33416
 10
77.94068
 20
23.92716
 10
79.51926
 20
23.54111
 10
81.09111
 20
23.17576
 10
82.65588
 20
22.830849999999998
 10
84.21318
 20
22.50612
 10
85.76175
 20
22.20154
 10
87.30041
 20
21.91714
 10
88.82891
 20
21.65277
 10
90.34701
 20
21.40831
 10
91.85446
 20
21.18361
 10
93.35101
 20
20.97855
 10
94.83641
 20
20.79298
 10
96.31041
 20
20.62677
 10
97.77152
 20
20.47994
 10
99.21817
 20
20.352629999999998
 10
100.65008
 20
20.244880000000002
 10
102.06696
 20
20.1567
 10
103.4685
 20
20.08813
 10
104.85444
 20
20.039160000000003
 10
106.22449
 20
20.009790000000002
 10
107.57838
 20
20.0
 10
308.0102
 20
20.0
 10
315.0102
 20
25.822229999999998
 10
315.0102
 20
20.00001
 10
433.0102
 20
20.0
 10
440.0102
 20
25.822229999999998
 10
440.0102
 20
20.0
 10
560.6602
 20
20.0
 10
560.6602
 20
10.0
 10
530.6602
 20
10.0
 10
530.6602
 20
14.822189999999999
 10
485.60454
 20
14.822189999999999
 10
485.60454
 20
10.0
 10
107.57838
 20
10.0
 10
106.50375
 20
10.00559
 10
105.41311
 20
10.02251
 10
104.30767
 20
10.05098
 10
103.19228
 20
10.09098
 10
102.06642
 20
10.14261
 10
101.51167
 20
10.17213
 10
99.96396
 20
10.26844
 10
98.40428
 20
10.3858
 10
96.83288
 20
10.52409
 10
95.24999
 20
10.68315
 10
93.65626
 20
10.86286
 10
92.05234
 20
11.06322
 10
90.43846
 20
11.28436
 10
88.81484
 20
11.52637
 10
87.18172
 20
11.78935
 10
85.53932
 20
12.07342
 10
83.88787
 20
12.37868
 10
82.22761
 20
12.70523
 10
80.55908
 20
13.05315
 10
78.88294
 20
13.4226
 10
77.19958
 20
13.81387
 10
75.50935
 20
14.227229999999999
 10
73.81264999999999
 20
14.66293
 10
72.10983999999999
 20
15.121269999999999
 10
70.40129999999999
 20
15.60249
 10
68.68741
 20
16.10688
 10
66.96891
 20
16.63464
 10
65.24672000000001
 20
17.18606
 10
63.52146
 20
17.76157
 10
61.79376
 20
18.3616
 10
60.06426
 20
18.98657
 10
58.33358
 20
19.63691
 10
56.60236
 20
20.31304
 10
54.87122
 20
21.01539
 10
53.14129
 20
21.744239999999998
 10
51.41402
 20
22.49995
 10
49.6905
 20
23.283070000000002
 10
47.97183
 20
24.09417
 10
46.25911
 20
24.93378
 10
44.55343
 20
25.80247
 10
42.85589
 20
26.70078
 10
41.16758
 20
27.62928
 10
39.490179999999995
 20
28.58825
 10
37.825810000000004
 20
29.57802
 10
36.17619
 20
30.5992
 10
34.54306
 20
31.6524
 10
32.92832
 20
32.73813
 10
31.33405
 20
33.85683
 10
30.54521
 20
34.428709999999995
 10
29.76223
 20
35.009029999999996
 10
28.98535
 20
35.59786
 10
28.21482
 20
36.19525
 10
27.45101
 20
36.8012
 10
26.69433
 20
37.41567
 10
25.94512
 20
38.038709999999995
 10
25.203699999999998
 20
38.670339999999996
 10
24.47041
 20
39.31061
 10
23.74559
 20
39.95955
 10
23.02957
 20
40.61721
 10
22.322670000000002
 20
41.28363
 10
21.62527
 20
41.9588
 10
20.93778
 20
42.64269
 10
20.26059
 20
43.33526
 10
19.59411
 20
44.03649
 10
18.93871
 20
44.74635
 10
18.294800000000002
 20
45.4648
 10
17.662770000000002
 20
46.19181
 10
17.04302
 20
46.92736
 10
16.43593
 20
47.67142
 10
15.84192
 20
48.42386
 10
15.26146
 20
49.18455
 10
14.69499
 20
49.9533
 10
14.14296
 20
50.72999
 10
13.60581
 20
51.51443
 10
13.084
 20
52.30649
 10
12.57797
 20
53.106
 10
11.88168
 20
54.26347
 10
11.21911
 20
55.43601
 10
10.59148
 20
56.6226
 10
10.0
 20
57.82222
 10
10.59148
 20
59.02185
 10
11.21911
 20
60.20844
 10
11.88168
 20
61.38098
 10
12.57797
 20
62.53845
 10
13.084
 20
63.33796
 10
13.60581
 20
64.13002
 10
14.14296
 20
64.91445999999999
 10
14.69499
 20
65.69113999999999
 10
15.26146
 20
66.4599
 10
15.84192
 20
67.22058
 10
16.43593
 20
67.97303
 10
17.04302
 20
68.71709
 10
17.662770000000002
 20
69.45264
 10
18.294800000000002
 20
70.17965000000001
 10
18.93871
 20
70.8981
 10
19.59411
 20
71.60795999999999
 10
20.26059
 20
72.30919
 10
20.93778
 20
73.00175999999999
 10
21.62527
 20
73.68565000000001
 10
22.322670000000002
 20
74.36082
 10
23.02957
 20
75.02723
 10
23.74559
 20
75.6849
 10
24.47041
 20
76.33384
 10
25.203699999999998
 20
76.97411
 10
25.94512
 20
77.60574
 10
26.69433
 20
78.22878
 10
27.45101
 20
78.84325
 10
28.21482
 20
79.4492
 10
28.98535
 20
80.04659
 10
29.76223
 20
80.63542
 10
30.54521
 20
81.21574
 10
31.33405
 20
81.78762
 10
32.92832
 20
82.90632
 10
34.54306
 20
83.99205
 10
36.17619
 20
85.04525
 10
37.825810000000004
 20
86.06643
 10
39.490179999999995
 20
87.0562
 10
41.16758
 20
88.01517
 10
42.85589
 20
88.94367
 10
44.55343
 20
89.84198
 10
46.25911
 20
90.71067
 10
47.97183
 20
91.55028
 10
49.6905
 20
92.36138
 10
51.41402
 20
93.1445
 10
53.14129
 20
93.90021
 10
54.87122
 20
94.62906
 10
56.60236
 20
95.33141
 10
58.33358
 20
96.00754
 10
60.06426
 20
96.65788
 10
61.79376
 20
97.28285
 10
63.52146
 20
97.88288
 10
65.24672000000001
 20
98.45839
 10
66.96891
 20
99.00981
 10
68.68741
 20
99.53757
 10
70.40129999999999
 20
100.04196
 10
72.10983999999999
 20
100.52318
 10
73.81264999999999
 20
100.98151
 10
75.50935
 20
101.41722
 10
77.19958
 20
101.83058
 10
78.88294
 20
102.22185
 10
80.55908
 20
102.5913
 10
82.22761
 20
102.93922
 10
83.88787
 20
103.26577
 10
85.53932
 20
103.57103
 10
87.18172
 20
103.85509
 10
88.81484
 20
104.11808
 10
90.43846
 20
104.36009
 10
92.05234
 20
104.58123
 10
93.65626
 20
104.78159
 10
95.24999
 20
104.9613
 10
96.83288
 20
105.12036
 10
98.40428
 20
105.25864
 10
99.96396
 20
105.37601
 10
101.51167
 20
105.47232
 10
102.82571
 20
105.53788
 10
104.12226
 20
105.5876
 10
105.41055
 20
105.62188
 10
106.68648
 20
105.6406
 10
107.57838
 20
105.64445
 10
485.60454
 20
105.64445
 10
485.60454
 20
100.82223
 10
530.6602
 20
100.82223
 10
530.6602
 20
105.64445
 10
560.6602
 20
105.64445
 10
560.6602
 20
95.64445
 10
440.0102
 20
95.64445
 10
440.0102
 20
89.82223
 10
433.0102
 20
95.64445
 10
315.0102
 20
95.64445
 10
315.0102
 20
89.82223
 10
308.0102
 20
95.64445
 10
107.57838
 20
95.64445
 10
106.22449
 20
95.63466
 10
104.85444
 20
95.60529
 10
103.4685
 20
95.55632
 10
102.06696
 20
95.48775
 10
100.65008
 20
95.39957
 10
99.21817
 20
95.29182
 10
97.77152
 20
95.16451
 10
96.31041
 20
95.01768
 10
94.83641
 20
94.85147
 10
93.35101
 20
94.6659
 10
91.85446
 20
94.46084
 10
90.34701
 20
94.23614
 10
88.82891
 20
93.99168
 10
87.30041
 20
93.72731
 10
85.76175
 20
93.4429
 10
84.21318
 20
93.13832
 10
82.65588
 20
92.8136
 10
81.09111
 20
92.46869
 10
79.51926
 20
92.10334
 10
77.94068
 20
91.71729
 10
76.35577
 20
91.31028
 10
74.76488
 20
90.88208
 10
73.16839
 20
90.43242
 10
71.56667999999999
 20
89.96104
 10
69.96113
 20
89.46797
 10
68.35329
 20
88.95316
 10
66.74377
 20
88.41625
 10
65.13315
 20
87.85688
 10
63.52206
 20
87.2747
 10
61.91107
 20
86.66935
 10
60.30081
 20
86.04047
 10
58.69187
 20
85.3877
 10
57.08619
 20
84.71119
 10
55.48601
 20
84.01106
 10
53.89236
 20
83.28692
 10
52.30626
 20
82.53839
 10
50.72874
 20
81.76507
 10
49.16084
 20
80.96659
 10
47.60358
 20
80.14255
 10
46.05799
 20
79.29256
 10
44.52664
 20
78.41708
 10
43.01246
 20
77.51664
 10
41.517070000000004
 20
76.59095
 10
40.04205
 20
75.63974
 10
38.58943
 20
74.66302
 10
37.16135
 20
73.66093000000001
 10
35.75954
 20
72.63338999999999
 10
34.38574
 20
71.58028
 10
33.04298
 20
70.50251
 10
32.38436
 20
69.9548
 10
31.73462
 20
69.40127
 10
31.09405
 20
68.84197
 10
30.46292
 20
68.27693
 10
29.84152
 20
67.7062
 10
29.23012
 20
67.12984
 10
28.62911
 20
66.54796999999999
 10
28.03885
 20
65.96078
 10
27.45967
 20
65.36841
 10
26.89186
 20
64.771
 10
26.33575
 20
64.1687
 10
25.79164
 20
63.56164
 10
25.25984
 20
62.94996
 10
24.74066
 20
62.3338
 10
23.93236
 20
61.33318
 10
23.54131
 20
60.82222
 10
15.93975
 20
60.82222
 10
15.93975
 20
54.82222
 10
23.54131
 20
54.82222
 10
23.93236
 20
54.31126
  0
LWPOLYLINE
  5
35
330
17
100
AcDbEntity
  8
CUT
100
AcDbPolyline
 90
32
 70
1
 10
111.72413
 20
15.0
 10
111.70492
 20
15.19509
 10
111.64801
 20
15.38268
 10
111.5556
 20
15.55557
 10
111.43124
 20
15.70711
 10
111.2797
 20
15.83147
 10
111.10681
 20
15.92388
 10
110.91922
 20
15.980789999999999
 10
110.72413
 20
16.0
 10
110.52904
 20
15.980789999999999
 10
110.34145
 20
15.92388
 10
110.16856
 20
15.83147
 10
110.01702
 20
15.70711
 10
109.89266
 20
15.55557
 10
109.80025
 20
15.38268
 10
109.74334
 20
15.19509
 10
109.72413
 20
15.0
 10
109.74334
 20
14.80491
 10
109.80025
 20
14.61732
 10
109.89266
 20
14.44443
 10
110.01702
 20
14.29289
 10
110.16856
 20
14.16853
 10
110.34145
 20
14.07612
 10
110.52904
 20
14.019210000000001
 10
110.72413
 20
14.0
 10
110.91922
 20
14.019210000000001
 10
111.10681
 20
14.07612
 10
111.2797
 20
14.16853
 10
111.43124
 20
14.29289
 10
111.5556
 20
14.44443
 10
111.64801
 20
14.61732
 10
111.70492
 20
14.80491
  0
LWPOLYLINE
  5
36
330
17
100
AcDbEntity
  8
CUT
100
AcDbPolyline
 90
32
 70
1
 10
31.72413
 20
75.05873
 10
31.70492
 20
75.25382
 10
31.64801
 20
75.44141
 10
31.5556
 20
75.6143
 10
31.43124
 20
75.76583
 10
31.2797
 20
75.8902
 10
31.10681
 20
75.98261
 10
30.91922
 20
76.03951
 10
30.72413
 20
76.05873
 10
30.52904
 20
76.03951
 10
30.34145
 20
75.98261
 10
30.16856
 20
75.8902
 10
30.01702
 20
75.76583
 10
29.89266
 20
75.6143
 10
29.80025
 20
75.44141
 10
29.74334
 20
75.25382
 10
29.72413
 20
75.05873
 10
29.74334
 20
74.86364
 10
29.80025
 20
74.67604
 10
29.89266
 20
74.50316
 10
30.01702
 20
74.35162
 10
30.16856
 20
74.22726
 10
30.34145
 20
74.13485
 10
30.52904
 20
74.07794
 10
30.72413
 20
74.05873
 10
30.91922
 20
74.07794
 10
31.10681
 20
74.13485
 10
31.2797
 20
74.22726
 10
31.43124
 20
74.35162
 10
31.5556
 20
74.50316
 10
31.64801
 20
74.67604
 10
31.70492
 20
74.86364
  0
LWPOLYLINE
  5
37
330
17
100
AcDbEntity
  8
CUT
100
AcDbPolyline
 90
32
 70
1
 10
211.72413
 20
100.64445
 10
211.70492
 20
100.83954
 10
211.64801
 20
101.02713
 10
211.5556
 20
101.20002
 10
211.43124
 20
101.35156
 10
211.2797
 20
101.47592
 10
211.10681
 20
101.56833
 10
210.91922
 20
101.62523
 10
210.72413
 20
101.64445
 10
210.52904
 20
101.62523
 10
210.34145
 20
101.56833
 10
210.16856
 20
101.47592
 10
210.01702
 20
101.35156
 10
209.89266
 20
101.20002
 10
209.80025
 20
101.02713
 10
209.74334
 20
100.83954
 10
209.72413
 20
100.64445
 10
209.74334
 20
100.44936
 10
209.80025
 20
100.26177
 10
209.89266
 20
100.08888
 10
210.01702
 20
99.93734
 10
210.16856
 20
99.81298
 10
210.34145
 20
99.72057
 10
210.52904
 20
99.66366
 10
210.72413
 20
99.64445
 10
210.91922
 20
99.66366
 10
211.10681
 20
99.72057
 10
211.2797
 20
99.81298
 10
211.43124
 20
99.93734
 10
211.5556
 20
100.08888
 10
211.64801
 20
100.26177
 10
211.70492
 20
100.44936
  0
LWPOLYLINE
  5
38
330
17
100
AcDbEntity
  8
CUT
100
AcDbPolyline
 90
32
 70
1
 10
111.72413
 20
100.64445
 10
111.70492
 20
100.83954
 10
111.64801
 20
101.02713
 10
111.5556
 20
101.20002
 10
111.43124
 20
101.35156
 10
111.2797
 20
101.47592
 10
111.10681
 20
101.56833
 10
110.91922
 20
101.62523
 10
110.72413
 20
101.64445
 10
110.52904
 20
101.62523
 10
110.34145
 20
101.56833
 10
110.16856
 20
101.47592
 10
110.01702
 20
101.35156
 10
109.89266
 20
101.20002
 10
109.80025
 20
101.02713
 10
109.74334
 20
100.83954
 10
109.72413
 20
100.64445
 10
109.74334
 20
100.44936
 10
109.80025
 20
100.26177
 10
109.89266
 20
100.08888
 10
110.01702
 20
99.93734
 10
110.16856
 20
99.81298
 10
110.34145
 20
99.72057
 10
110.52904
 20
99.66366
 10
110.72413
 20
99.64445
 10
110.91922
 20
99.66366
 10
111.10681
 20
99.72057
 10
111.2797
 20
99.81298
 10
111.43124
 20
99.93734
 10
111.5556
 20
100.08888
 10
111.64801
 20
100.26177
 10
111.70492
 20
100.44936
  0
LWPOLYLINE
  5
39
330
17
100
AcDbEntity
  8
CUT
100
AcDbPolyline
 90
32
 70
1
 10
31.72413
 20
40.585719999999995
 10
31.70492
 20
40.78081
 10
31.64801
 20
40.96841
 10
31.5556
 20
41.14129
 10
31.43124
 20
41.292829999999995
 10
31.2797
 20
41.417190000000005
 10
31.10681
 20
41.5096
 10
30.91922
 20
41.56651
 10
30.72413
 20
41.585719999999995
 10
30.52904
 20
41.56651
 10
30.34145
 20
41.5096
 10
30.16856
 20
41.417190000000005
 10
30.01702
 20
41.292829999999995
 10
29.89266
 20
41.14129
 10
29.80025
 20
40.96841
 10
29.74334
 20
40.78081
 10
29.72413
 20
40.585719999999995
 10
29.74334
 20
40.39063
 10
29.80025
 20
40.20304
 10
29.89266
 20
40.03015
 10
30.01702
 20
39.87862
 10
30.16856
 20
39.75425
 10
30.34145
 20
39.66184
 10
30.52904
 20
39.60494
 10
30.72413
 20
39.585719999999995
 10
30.91922
 20
39.60494
 10
31.10681
 20
39.66184
 10
31.2797
 20
39.75425
 10
31.43124
 20
39.87862
 10
31.5556
 20
40.03015
 10
31.64801
 20
40.20304
 10
31.70492
 20
40.39063
  0
LWPOLYLINE
  5
3A
330
17
100
AcDbEntity
  8
CUT
100
AcDbPolyline
 90
32
 70
1
 10
211.72413
 20
15.0
 10
211.70492
 20
15.19509
 10
211.64801
 20
15.38268
 10
211.5556
 20
15.55557
 10
211.43124
 20
15.70711
 10
211.2797
 20
15.83147
 10
211.10681
 20
15.92388
 10
210.91922
 20
15.980789999999999
 10
210.72413
 20
16.0
 10
210.52904
 20
15.980789999999999
 10
210.34145
 20
15.92388
 10
210.16856
 20
15.83147
 10
210.01702
 20
15.70711
 10
209.89266
 20
15.55557
 10
209.80025
 20
15.38268
 10
209.74334
 20
15.19509
 10
209.72413
 20
15.0
 10
209.74334
 20
14.80491
 10
209.80025
 20
14.61732
 10
209.89266
 20
14.44443
 10
210.01702
 20
14.29289
 10
210.16856
 20
14.16853
 10
210.34145
 20
14.07612
 10
210.52904
 20
14.019210000000001
 10
210.72413
 20
14.0
 10
210.91922
 20
14.019210000000001
 10
211.10681
 20
14.07612
 10
211.2797
 20
14.16853
 10
211.43124
 20
14.29289
 10
211.5556
 20
14.44443
 10
211.64801
 20
14.61732
 10
211.70492
 20
14.80491
  0
LWPOLYLINE
  5
3B
330
17
100
AcDbEntity
  8
CUT
100
AcDbPolyline
 90
39
 70
1
 10
547.1602
 20
100.64445
 10
547.14078
 20
100.88507
 10
547.083
 20
101.11945
 10
546.98838
 20
101.34153
 10
546.85936
 20
101.54556
 10
546.69929
 20
101.72625
 10
546.5123
 20
101.87892
 10
546.30324
 20
101.99962
 10
546.07753
 20
102.08523
 10
545.841
 20
102.13351
 10
545.5998
 20
102.14323
 10
545.36016
 20
102.11413
 10
545.12829
 20
102.04697
 10
544.9102
 20
101.94349
 10
544.71153
 20
101.80636
 10
544.53743
 20
101.63913
 10
544.39241
 20
101.44615
 10
544.28023
 20
101.2324
 10
544.20379
 20
101.00342
 10
544.16506
 20
100.76515
 10
544.16506
 20
100.52375
 10
544.20379
 20
100.28548
 10
544.28023
 20
100.0565
 10
544.39241
 20
99.84275
 10
544.53743
 20
99.64976
 10
544.71153
 20
99.48254
 10
544.9102
 20
99.34541
 10
545.12829
 20
99.24192
 10
545.36016
 20
99.17476
 10
545.5998
 20
99.14567
 10
545.841
 20
99.15539
 10
546.07753
 20
99.20367
 10
546.30324
 20
99.28927
 10
546.5123
 20
99.40997
 10
546.69929
 20
99.56265
 10
546.85936
 20
99.74334
 10
546.98838
 20
99.94736
 10
547.083
 20
100.16945
 10
547.14078
 20
100.40383
  0
LWPOLYLINE
  5
3C
330
17
100
AcDbEntity
  8
CUT
100
AcDbPolyline
 90
39
 70
1
 10
547.1602
 20
15.0
 10
547.14078
 20
15.24062
 10
547.083
 20
15.475
 10
546.98838
 20
15.69708
 10
546.85936
 20
15.90111
 10
546.69929
 20
16.0818
 10
546.5123
 20
16.234479999999998
 10
546.30324
 20
16.35518
 10
546.07753
 20
16.44078
 10
545.841
 20
16.489060000000002
 10
545.5998
 20
16.49878
 10
545.36016
 20
16.46969
 10
545.12829
 20
16.40252
 10
544.9102
 20
16.299039999999998
 10
544.71153
 20
16.16191
 10
544.53743
 20
15.994679999999999
 10
544.39241
 20
15.8017
 10
544.28023
 20
15.58795
 10
544.20379
 20
15.35897
 10
544.16506
 20
15.1207
 10
544.16506
 20
14.8793
 10
544.20379
 20
14.64103
 10
544.28023
 20
14.41205
 10
544.39241
 20
14.1983
 10
544.53743
 20
14.005320000000001
 10
544.71153
 20
13.83809
 10
544.9102
 20
13.70096
 10
545.12829
 20
13.597480000000001
 10
545.36016
 20
13.53031
 10
545.5998
 20
13.50122
 10
545.841
 20
13.51094
 10
546.07753
 20
13.55922
 10
546.30324
 20
13.64482
 10
546.5123
 20
13.76552
 10
546.69929
 20
13.9182
 10
546.85936
 20
14.09889
 10
546.98838
 20
14.30292
 10
547.083
 20
14.525
 10
547.14078
 20
14.75938
  0
LWPOLYLINE
  5
3D
330
17
100
AcDbEntity
  8
CUT
100
AcDbPolyline
 90
39
 70
1
 10
467.16068
 20
100.92139
 10
467.14125
 20
101.16201
 10
467.08348
 20
101.39639
 10
466.98886
 20
101.61848
 10
466.85984
 20
101.82251
 10
466.69977
 20
102.0032
 10
466.51278
 20
102.15587
 10
466.30372
 20
102.27657
 10
466.07801
 20
102.36217
 10
465.84148
 20
102.41046
 10
465.60028
 20
102.42018
 10
465.36064
 20
102.39108
 10
465.12877
 20
102.32392
 10
464.91068
 20
102.22043
 10
464.71201
 20
102.0833
 10
464.53791
 20
101.91608
 10
464.39289
 20
101.72309
 10
464.28071
 20
101.50934
 10
464.20427
 20
101.28037
 10
464.16554
 20
101.04209
 10
464.16554
 20
100.80069
 10
464.20427
 20
100.56242
 10
464.28071
 20
100.33344
 10
464.39289
 20
100.11969
 10
464.53791
 20
99.92671
 10
464.71201
 20
99.75948
 10
464.91068
 20
99.62235
 10
465.12877
 20
99.51887
 10
465.36064
 20
99.45171
 10
465.60028
 20
99.42261
 10
465.84148
 20
99.43233
 10
466.07801
 20
99.48062
 10
466.30372
 20
99.56622
 10
466.51278
 20
99.68692
 10
466.69977
 20
99.83959
 10
466.85984
 20
100.02028
 10
466.98886
 20
100.22431
 10
467.08348
 20
100.44639
 10
467.14125
 20
100.68078
  0
LWPOLYLINE
  5
3E
330
17
100
AcDbEntity
  8
CUT
100
AcDbPolyline
 90
39
 70
1
 10
467.16068
 20
14.72306
 10
467.14125
 20
14.96367
 10
467.08348
 20
15.19806
 10
466.98886
 20
15.42014
 10
466.85984
 20
15.62417
 10
466.69977
 20
15.80486
 10
466.51278
 20
15.95753
 10
466.30372
 20
16.078229999999998
 10
466.07801
 20
16.16383
 10
465.84148
 20
16.21212
 10
465.60028
 20
16.22184
 10
465.36064
 20
16.19274
 10
465.12877
 20
16.12558
 10
464.91068
 20
16.02209
 10
464.71201
 20
15.88496
 10
464.53791
 20
15.71774
 10
464.39289
 20
15.52476
 10
464.28071
 20
15.31101
 10
464.20427
 20
15.08203
 10
464.16554
 20
14.84376
 10
464.16554
 20
14.602360000000001
 10
464.20427
 20
14.364080000000001
 10
464.28071
 20
14.135110000000001
 10
464.39289
 20
13.92136
 10
464.53791
 20
13.72837
 10
464.71201
 20
13.56115
 10
464.91068
 20
13.42402
 10
465.12877
 20
13.32053
 10
465.36064
 20
13.25337
 10
465.60028
 20
13.22427
 10
465.84148
 20
13.23399
 10
466.07801
 20
13.28228
 10
466.30372
 20
13.36788
 10
466.51278
 20
13.488579999999999
 10
466.69977
 20
13.64125
 10
466.85984
 20
13.82194
 10
466.98886
 20
14.025970000000001
 10
467.08348
 20
14.24805
 10
467.14125
 20
14.48244
  0
TEXT
  5
3F
330
17
100
AcDbEntity
  8
LABEL_DO_NOT_CUT
100
AcDbText
 10
13.117745
 20
58.422035
 30
0.0
 40
2.0
  1
A13
100
AcDbText
  0
LWPOLYLINE
  5
40
330
17
100
AcDbEntity
  8
CUT
100
AcDbPolyline
 90
134
 70
1
 10
91.41687
 20
145.85837
 10
90.18484
 20
145.85087000000001
 10
88.953
 20
145.82836
 10
87.72152
 20
145.79084
 10
86.49058
 20
145.73832000000002
 10
85.26038
 20
145.67081000000002
 10
84.0311
 20
145.58832
 10
82.80291
 20
145.49086
 10
81.576
 20
145.37844
 10
80.35054
 20
145.25109
 10
79.12674
 20
145.10881
 10
77.90475
 20
144.95164
 10
76.68477
 20
144.77959
 10
75.46698
 20
144.5927
 10
74.25155
 20
144.39098
 10
73.03868
 20
144.17447
 10
71.82852
 20
143.9432
 10
70.62128
 20
143.6972
 10
69.41712
 20
143.43652
 10
68.21623
 20
143.16118
 10
67.01877999999999
 20
142.87124
 10
65.82496
 20
142.56673
 10
64.63493
 20
142.2477
 10
63.44887
 20
141.91419000000002
 10
62.26697
 20
141.56627
 10
61.08939
 20
141.20396
 10
59.91632
 20
140.82734
 10
58.74792
 20
140.43646
 10
57.58436
 20
140.03137
 10
56.42583
 20
139.61214
 10
55.2725
 20
139.17883
 10
54.12452
 20
138.73149
 10
52.98208
 20
138.27021000000002
 10
51.84535
 20
137.79504
 10
50.71449
 20
137.30606
 10
49.58967
 20
136.80334
 10
48.47106
 20
136.28695
 10
47.35882
 20
135.75697
 10
46.25312
 20
135.21348
 10
45.15412
 20
134.65657000000002
 10
44.06199
 20
134.0863
 10
42.97689
 20
133.50278
 10
41.89898
 20
132.90608
 10
40.828410000000005
 20
132.29629
 10
39.76536
 20
131.67350000000002
 10
38.70997
 20
131.03781
 10
37.662400000000005
 20
130.38931
 10
36.62281
 20
129.7281
 10
35.59135
 20
129.05427
 10
34.56818
 20
128.36792
 10
33.55345
 20
127.66916
 10
32.5473
 20
126.95809
 10
31.54989
 20
126.23482000000001
 10
30.56137
 20
125.49945000000001
 10
29.58187
 20
124.75209000000001
 10
28.61156
 20
123.99286000000001
 10
27.65057
 20
123.22186
 10
26.69904
 20
122.43921
 10
25.75711
 20
121.64502
 10
24.824930000000002
 20
120.83942
 10
23.902630000000002
 20
120.02253
 10
22.990360000000003
 20
119.19445
 10
22.08824
 20
118.35533000000001
 10
21.19641
 20
117.50528
 10
20.314999999999998
 20
116.64443
 10
20.314999999999998
 20
111.64445
 10
10.0
 20
111.64445
 10
10.0
 20
116.64443
 10
10.9592
 20
117.71593
 10
11.932500000000001
 20
118.77465000000001
 10
12.91972
 20
119.82039
 10
13.92071
 20
120.85297
 10
14.935279999999999
 20
121.8722
 10
15.96325
 20
122.87792
 10
17.00444
 20
123.86994000000001
 10
18.058680000000003
 20
124.84809000000001
 10
19.12577
 20
125.81219
 10
20.20554
 20
126.76209
 10
21.29778
 20
127.69761
 10
22.40231
 20
128.61858
 10
23.51894
 20
129.52486000000002
 10
24.647460000000002
 20
130.41627
 10
25.787689999999998
 20
131.29267000000002
 10
26.93942
 20
132.15389000000002
 10
28.10245
 20
132.99979000000002
 10
29.27658
 20
133.83022
 10
30.46159
 20
134.64504
 10
31.65729
 20
135.4441
 10
32.86347
 20
136.22725
 10
34.079899999999995
 20
136.99437
 10
35.306380000000004
 20
137.74532
 10
36.542699999999996
 20
138.47997
 10
37.78864
 20
139.19819
 10
39.04397
 20
139.89985000000001
 10
40.30848
 20
140.58483
 10
41.58195
 20
141.25301000000002
 10
42.86415
 20
141.90428
 10
44.15486
 20
142.53851
 10
45.45386
 20
143.1556
 10
46.76091
 20
143.75544000000002
 10
48.07578
 20
144.33793
 10
49.39826
 20
144.90296
 10
50.72809
 20
145.45043
 10
52.06506
 20
145.98025
 10
53.40892
 20
146.49232
 10
54.75945
 20
146.98656
 10
56.1164
 20
147.46287
 10
57.47953
 20
147.92118
 10
58.84862
 20
148.36141
 10
60.22341
 20
148.78347000000002
 10
61.60367
 20
149.1873
 10
62.98915
 20
149.57281
 10
64.37962
 20
149.93996
 10
65.77482
 20
150.28866
 10
67.17452
 20
150.61887000000002
 10
68.57847000000001
 20
150.93051
 10
69.98642000000001
 20
151.22354
 10
71.39812
 20
151.49791
 10
72.81333000000001
 20
151.75357
 10
74.23181
 20
151.99046
 10
75.65329
 20
152.20856
 10
77.07754
 20
152.40783
 10
78.5043
 20
152.58822
 10
79.93333
 20
152.74970000000002
 10
81.36436
 20
152.89226000000002
 10
82.79716
 20
153.01586
 10
84.23147
 20
153.12048000000001
 10
85.66704
 20
153.2061
 10
87.10362
 20
153.27271000000002
 10
88.54095
 20
153.3203
 10
89.97879
 20
153.34885
 10
91.41687
 20
153.35837
 10
539.07045
 20
153.35837
 10
539.07045
 20
145.85837
  0
TEXT
  5
41
330
17
100
AcDbEntity
  8
LABEL_DO_NOT_CUT
100
AcDbText
 10
34.45905100032506
 20
132.601185
 30
0.0
 40
2.0
  1
A62_F
100
AcDbText
  0
LWPOLYLINE
  5
42
330
17
100
AcDbEntity
  8
CUT
100
AcDbPolyline
 90
166
 70
1
 10
355.58815
 20
183.10822000000002
 10
350.116
 20
183.4177
 10
348.76281
 20
183.49075000000002
 10
344.19918
 20
183.72995
 10
343.02757
 20
183.78987
 10
337.56303
 20
184.05367
 10
336.34187
 20
184.10920000000002
 10
331.79361
 20
184.30995000000001
 10
330.46932
 20
184.36642
 10
324.9971
 20
184.58532
 10
319.33001
 20
184.78969
 10
317.91641
 20
184.83796
 10
312.42079
 20
185.01235
 10
306.82794
 20
185.16729
 10
305.37276
 20
185.20461
 10
299.8362
 20
185.33455
 10
148.56974
 20
188.57232000000002
 10
10.0
 20
188.57232000000002
 10
10.0
 20
196.07232
 10
148.65
 20
196.07232
 10
299.9967
 20
192.83284
 10
305.88359
 20
192.69539
 10
306.45293
 20
192.68088
 10
311.7699
 20
192.53507000000002
 10
312.90845
 20
192.50141000000002
 10
314.80726
 20
192.44053000000002
 10
317.65554
 20
192.35187000000002
 10
318.56376
 20
192.32007000000002
 10
319.36316
 20
192.29444
 10
321.15337
 20
192.22939000000002
 10
323.54043
 20
192.14581
 10
324.76183
 20
192.09829000000002
 10
325.81692
 20
192.05996000000002
 10
327.42021
 20
191.99486000000002
 10
329.42447
 20
191.91688
 10
330.96879
 20
191.85079000000002
 10
332.26962
 20
191.79797000000002
 10
333.65044
 20
191.73602
 10
335.30758
 20
191.66509000000002
 10
337.19064
 20
191.57717000000002
 10
338.72115
 20
191.5085
 10
339.86039
 20
191.45251000000002
 10
341.18966
 20
191.39045000000002
 10
343.43973
 20
191.27662
 10
345.17138
 20
191.19153
 10
346.05763
 20
191.14419
 10
347.07064
 20
191.09294
 10
349.74595
 20
190.94718
 10
351.62021
 20
190.84707
 10
352.24613
 20
190.81096000000002
 10
352.95041
 20
190.77259
 10
358.06751
 20
190.47514
 10
358.82889
 20
190.42940000000002
 10
364.706
 20
190.06336000000002
 10
370.58164
 20
189.67449000000002
 10
376.45572
 20
189.26279
 10
377.39908
 20
189.19454000000002
 10
382.32816
 20
188.82827
 10
383.12973
 20
188.76583
 10
383.8391
 20
188.71276
 10
385.67405
 20
188.56762
 10
388.19887
 20
188.37094000000002
 10
389.3102
 20
188.28002
 10
390.27701
 20
188.20354
 10
391.94449
 20
188.0645
 10
394.06775
 20
187.89079
 10
395.49712
 20
187.76826
 10
396.7127
 20
187.6669
 10
398.16749
 20
187.53934
 10
399.93473
 20
187.38785000000001
 10
401.69527
 20
187.23003
 10
403.14603
 20
187.10283
 10
404.36505
 20
186.99071
 10
405.79971
 20
186.86211
 10
407.91416
 20
186.66428000000002
 10
409.57691
 20
186.51135
 10
410.5468
 20
186.41798
 10
411.66259
 20
186.31358
 10
414.17533
 20
186.06864000000002
 10
416.00521
 20
185.89247
 10
416.71764
 20
185.82082
 10
417.52331
 20
185.74228
 10
422.43081
 20
185.24621000000002
 10
423.38176
 20
185.14821
 10
429.23786
 20
184.53138
 10
435.09151
 20
183.89180000000002
 10
440.94264
 20
183.22948000000002
 10
441.69027
 20
183.14319
 10
446.79115
 20
182.54443
 10
447.48594
 20
182.46030000000002
 10
448.10392
 20
182.38749
 10
449.96863
 20
182.15972
 10
452.63695
 20
181.83665000000002
 10
453.63789
 20
181.71152
 10
454.51429
 20
181.60446000000002
 10
456.23751
 20
181.38652000000002
 10
458.47996
 20
181.10617000000002
 10
459.79406
 20
180.93669
 10
460.92127
 20
180.79413
 10
462.44424
 20
180.59491
 10
464.32008
 20
180.35299
 10
465.95834
 20
180.13523
 10
467.32474
 20
179.95649
 10
468.61914
 20
179.78156
 10
470.15724
 20
179.57712
 10
472.13811
 20
179.30599
 10
473.72457
 20
179.09158000000002
 10
474.77468
 20
178.9451
 10
475.99134
 20
178.77857
 10
478.34927
 20
178.44649
 10
480.12067
 20
178.1994
 10
480.91691
 20
178.08487000000002
 10
481.82229
 20
177.95736
 10
484.63318
 20
177.55034
 10
486.5129
 20
177.27997000000002
 10
487.65
 20
177.11350000000002
 10
487.65
 20
177.11147
 10
492.90116
 20
176.33331
 10
499.28533
 20
175.35944
 10
505.66528
 20
174.35836
 10
505.65301
 20
162.31275
 10
505.65
 20
162.31275
 10
505.65
 20
159.35837
 10
498.15
 20
159.36601000000002
 10
498.15874
 20
167.9445
 10
492.65
 20
168.78529
 10
492.65
 20
164.35839
 10
487.65
 20
164.35839
 10
487.65
 20
160.35839
 10
477.65
 20
160.35839
 10
477.65
 20
170.97096000000002
 10
475.8114
 20
171.22832
 10
472.16567
 20
171.73295000000002
 10
469.3274
 20
172.11829
 10
465.71226
 20
172.60224
 10
462.85917
 20
172.97761
 10
459.24422
 20
173.4451
 10
456.39908
 20
173.80748
 10
452.75469
 20
174.26224000000002
 10
449.94312
 20
174.60856
 10
446.22922
 20
175.05516
 10
443.48901
 20
175.3812
 10
439.63176
 20
175.82757
 10
437.03539
 20
176.12563
 10
430.5814
 20
176.842
 10
424.1265
 20
177.53039
 10
417.66926
 20
178.19009
 10
411.20737
 20
178.82199
 10
408.70339
 20
179.05719000000002
 10
404.74034
 20
179.42633
 10
402.03776
 20
179.66894000000002
 10
398.26745
 20
180.00315
 10
395.46836
 20
180.24277
 10
391.78755
 20
180.55249
 10
388.93944
 20
180.78446
 10
385.29878
 20
181.07443
 10
382.43072
 20
181.29611
 10
378.79793
 20
181.56914
 10
375.93311
 20
181.77867
 10
372.27909
 20
182.03688
 10
370.5
 20
182.15963
 10
370.5
 20
185.35839
 10
364.5
 20
185.35839
 10
364.5
 20
182.55803
 10
362.65282
 20
182.67781000000002
 10
361.2256
 20
182.767
  0
TEXT
  5
43
330
17
100
AcDbEntity
  8
LABEL_DO_NOT_CUT
100
AcDbText
 10
452.5834879332273
 20
177.75385
 30
0.0
 40
2.0
  1
A62_A
100
AcDbText
  0
LWPOLYLINE
  5
44
330
17
100
AcDbEntity
  8
CUT
100
AcDbPolyline
 90
278
 70
1
 10
332.98291
 20
287.238
 10
325.91614
 20
287.39182999999997
 10
318.72444
 20
287.5138
 10
317.48453
 20
287.53153
 10
311.88833
 20
287.60024999999996
 10
306.50619
 20
287.64995999999996
 10
301.21174
 20
287.68451
 10
296.07714
 20
287.70562
 10
291.0
 20
287.71556
 10
284.0
 20
281.89524
 10
284.0
 20
287.71677
 10
140.0
 20
287.71677
 10
133.0
 20
281.89454
 10
133.0
 20
287.71677
 10
10.0
 20
287.71677
 10
10.0
 20
297.71677
 10
40.0
 20
297.71677
 10
40.0
 20
292.89458
 10
68.60753
 20
292.89458
 10
68.60753
 20
297.71677
 10
288.44237
 20
297.71677
 10
296.30293
 20
297.70498
 10
303.98376
 20
297.66834
 10
311.50111
 20
297.6049
 10
318.87121
 20
297.51272
 10
326.10925
 20
297.38996
 10
333.22578
 20
297.23505
 10
340.23006
 20
297.04651
 10
347.13132
 20
296.82286999999997
 10
350.54611
 20
296.69741
 10
353.93812
 20
296.56255999999996
 10
357.30814
 20
296.4181
 10
360.65692
 20
296.26377
 10
363.98524
 20
296.09933
 10
367.29387
 20
295.92456
 10
370.58357
 20
295.73920999999996
 10
373.85511
 20
295.54304
 10
377.10912
 20
295.33579
 10
380.34602
 20
295.11715
 10
383.56632
 20
294.88675
 10
386.77049
 20
294.64423999999997
 10
389.95904
 20
294.38926
 10
393.13245
 20
294.12147
 10
396.29122
 20
293.84051
 10
399.43584
 20
293.54603
 10
402.5666
 20
293.23765
 10
405.68368
 20
292.91488
 10
408.78737
 20
292.57719
 10
411.87799
 20
292.22404
 10
414.95584
 20
291.85489
 10
418.02123
 20
291.4692
 10
421.07444
 20
291.06645
 10
424.1158
 20
290.64608
 10
427.14522
 20
290.20754999999997
 10
430.16241
 20
289.75005
 10
433.16743
 20
289.27267
 10
436.1603
 20
288.77449
 10
439.14107
 20
288.2546
 10
442.10976
 20
287.71208
 10
445.06642
 20
287.14602
 10
448.01109
 20
286.5555
 10
450.94319
 20
285.93962999999997
 10
453.86191
 20
285.29713
 10
456.76692
 20
284.62653
 10
459.65787
 20
283.92633
 10
462.53401
 20
283.1951
 10
465.39442
 20
282.43116
 10
468.23846
 20
281.63271
 10
469.65414
 20
281.21997999999996
 10
471.06549
 20
280.79794
 10
472.0
 20
280.51251
 10
472.30818
 20
280.39557
 10
472.61069
 20
280.26484
 10
472.90702
 20
280.12073
 10
473.19672
 20
279.96365
 10
473.4793
 20
279.79402
 10
473.75427
 20
279.61225
 10
474.02115
 20
279.41876
 10
474.27947
 20
279.21395
 10
474.52875
 20
278.99823
 10
474.76851
 20
278.77202
 10
474.99825
 20
278.53574
 10
475.21752
 20
278.28979
 10
475.42581
 20
278.03459
 10
475.62266
 20
277.77054999999996
 10
475.80758
 20
277.49807999999996
 10
475.9801
 20
277.2176
 10
476.21474
 20
276.78288
 10
476.41984
 20
276.3332
 10
476.59486
 20
275.87071
 10
476.73928
 20
275.39757
 10
476.85253
 20
274.91593
 10
476.9341
 20
274.42792
 10
476.98344
 20
273.93571
 10
476.99243
 20
273.66731
 10
471.0
 20
273.66731
 10
471.0
 20
254.76793999999998
 10
472.0
 20
254.76793999999998
 10
472.0
 20
245.02114999999998
 10
471.0
 20
245.02114999999998
 10
471.0
 20
226.12187
 10
476.99243
 20
226.12187
 10
476.98344
 20
225.85338
 10
476.9341
 20
225.36117
 10
476.85253
 20
224.87315999999998
 10
476.73927
 20
224.39151999999999
 10
476.59486
 20
223.91837999999998
 10
476.41984
 20
223.45588999999998
 10
476.21473
 20
223.00620999999998
 10
475.9801
 20
222.57148999999998
 10
475.80758
 20
222.29101
 10
475.62266
 20
222.01854
 10
475.42581
 20
221.75449999999998
 10
475.21751
 20
221.4993
 10
474.99825
 20
221.25334999999998
 10
474.76851
 20
221.01706
 10
474.52875
 20
220.79085999999998
 10
474.27947
 20
220.57513999999998
 10
474.02115
 20
220.37033
 10
473.75427
 20
220.17683
 10
473.47929
 20
219.99507
 10
473.19672
 20
219.82544
 10
472.90702
 20
219.66835999999998
 10
472.61069
 20
219.52425
 10
472.30818
 20
219.39352
 10
472.0
 20
219.27658
 10
471.06549
 20
218.99115
 10
469.65414
 20
218.56911
 10
468.23846
 20
218.15637999999998
 10
465.39442
 20
217.35792999999998
 10
462.53401
 20
216.59399
 10
459.65787
 20
215.86275999999998
 10
456.76692
 20
215.16255999999998
 10
453.86191
 20
214.49195999999998
 10
450.94319
 20
213.84946
 10
448.01109
 20
213.23359
 10
445.06642
 20
212.64307
 10
442.10976
 20
212.07701
 10
439.14107
 20
211.53449
 10
436.1603
 20
211.0146
 10
433.16743
 20
210.51641999999998
 10
430.16241
 20
210.03904
 10
427.14522
 20
209.58154
 10
424.1158
 20
209.14301
 10
421.07444
 20
208.72263999999998
 10
418.02123
 20
208.31989
 10
414.95584
 20
207.9342
 10
411.87799
 20
207.56504999999999
 10
408.78737
 20
207.21189999999999
 10
405.68368
 20
206.87421
 10
402.5666
 20
206.55143999999999
 10
399.43584
 20
206.24305999999999
 10
396.29122
 20
205.94858
 10
393.13245
 20
205.66762
 10
389.95904
 20
205.39982999999998
 10
386.77049
 20
205.14485
 10
383.56632
 20
204.90233999999998
 10
380.34602
 20
204.67193999999998
 10
377.10912
 20
204.45329999999998
 10
373.85511
 20
204.24605
 10
370.58357
 20
204.04988
 10
367.29387
 20
203.86453
 10
363.98524
 20
203.68975
 10
360.65692
 20
203.52532
 10
357.30814
 20
203.37098999999998
 10
353.93812
 20
203.22653
 10
350.54611
 20
203.09168
 10
347.13132
 20
202.96622
 10
340.23006
 20
202.74257
 10
333.22578
 20
202.55404
 10
326.10925
 20
202.39912999999999
 10
318.87121
 20
202.27637
 10
311.50111
 20
202.18419
 10
303.98376
 20
202.12075
 10
296.30293
 20
202.08410999999998
 10
288.44237
 20
202.07232
 10
68.60753
 20
202.07232
 10
68.60753
 20
206.89453999999998
 10
40.0
 20
206.89453999999998
 10
40.0
 20
202.07232
 10
10.0
 20
202.07232
 10
10.0
 20
212.07232
 10
133.0
 20
212.07232
 10
133.0
 20
217.89453999999998
 10
140.0
 20
212.07232
 10
284.0
 20
212.07232
 10
284.0
 20
217.89524
 10
291.0
 20
212.07353
 10
298.14619
 20
212.09058
 10
305.14061
 20
212.12891
 10
311.99582
 20
212.18999
 10
318.72444
 20
212.27528999999998
 10
325.91614
 20
212.39726
 10
332.98291
 20
212.55109
 10
339.93404
 20
212.73819
 10
346.77885
 20
212.96000999999998
 10
348.85
 20
213.03812
 10
348.85
 20
209.39455999999998
 10
354.85
 20
209.39455999999998
 10
354.85
 20
213.27353
 10
359.50855
 20
213.48211999999998
 10
364.12468
 20
213.71015
 10
368.70052
 20
213.95823
 10
373.23821
 20
214.227
 10
376.45456
 20
214.43185
 10
379.65243
 20
214.64785999999998
 10
382.83234
 20
214.87537
 10
385.99478
 20
215.11472999999998
 10
389.14024
 20
215.36624999999998
 10
392.26923
 20
215.63029
 10
395.38224
 20
215.90717999999998
 10
398.47977
 20
216.19725
 10
401.5618
 20
216.50083999999998
 10
404.62817
 20
216.81835999999998
 10
407.67921
 20
217.15032
 10
410.71522
 20
217.49723
 10
413.73653
 20
217.8596
 10
416.74344
 20
218.23792
 10
419.73627
 20
218.6327
 10
422.71533
 20
219.04446
 10
425.67985
 20
219.47359999999998
 10
428.62888
 20
219.92077
 10
431.56247
 20
220.38681
 10
434.48068
 20
220.87257
 10
437.38357
 20
221.37887
 10
440.27119
 20
221.90655999999998
 10
443.1436
 20
222.45647
 10
446.00086
 20
223.02945
 10
448.84135
 20
223.62608
 10
451.6632
 20
224.24724999999998
 10
454.46613
 20
224.89428999999998
 10
457.24984
 20
225.5685
 10
459.63313
 20
226.17237
 10
462.0
 20
226.79804
 10
462.0
 20
247.39454
 10
466.0
 20
247.39454
 10
466.0
 20
252.39454
 10
462.0
 20
252.39454
 10
462.0
 20
272.99105
 10
459.63313
 20
273.61672
 10
457.24984
 20
274.22059
 10
454.46613
 20
274.8948
 10
451.6632
 20
275.54184
 10
448.84135
 20
276.16301
 10
446.00086
 20
276.75964
 10
443.1436
 20
277.33262
 10
440.27119
 20
277.88253
 10
437.38357
 20
278.41022
 10
434.48068
 20
278.91652
 10
431.56247
 20
279.40228
 10
428.62888
 20
279.86832
 10
425.67985
 20
280.31549
 10
422.71533
 20
280.74463
 10
419.73627
 20
281.15639
 10
416.74344
 20
281.55116999999996
 10
413.73653
 20
281.92949
 10
410.71522
 20
282.29186
 10
407.67921
 20
282.63877
 10
404.62817
 20
282.97073
 10
401.5618
 20
283.28825
 10
398.47977
 20
283.59182999999996
 10
395.38224
 20
283.88191
 10
392.26923
 20
284.1588
 10
389.14024
 20
284.42284
 10
385.99478
 20
284.67436
 10
382.83234
 20
284.91371
 10
379.65243
 20
285.14123
 10
376.45456
 20
285.35724
 10
373.23821
 20
285.56208
 10
368.70052
 20
285.83086
 10
364.12468
 20
286.07894
 10
359.50855
 20
286.30696
 10
354.85
 20
286.51556
 10
354.85
 20
290.39455999999996
 10
348.85
 20
290.39455999999996
 10
348.85
 20
286.75097
 10
346.77885
 20
286.82908
 10
339.93404
 20
287.05089999999996
  0
LWPOLYLINE
  5
45
330
17
100
AcDbEntity
  8
CUT
100
AcDbPolyline
 90
39
 70
1
 10
26.5
 20
292.71677
 10
26.48058
 20
292.95739
 10
26.4228
 20
293.19177
 10
26.32818
 20
293.41385
 10
26.19916
 20
293.61788
 10
26.03909
 20
293.79857
 10
25.8521
 20
293.95124
 10
25.64304
 20
294.07194
 10
25.41733
 20
294.15755
 10
25.18081
 20
294.20583
 10
24.9396
 20
294.21555
 10
24.69996
 20
294.18645
 10
24.46809
 20
294.11929
 10
24.25
 20
294.01581
 10
24.05133
 20
293.87868
 10
23.87723
 20
293.71145
 10
23.732210000000002
 20
293.51847
 10
23.62003
 20
293.30472
 10
23.543590000000002
 20
293.07574
 10
23.50486
 20
292.83747
 10
23.50486
 20
292.59607
 10
23.543590000000002
 20
292.3578
 10
23.62003
 20
292.12882
 10
23.732210000000002
 20
291.91507
 10
23.87723
 20
291.72208
 10
24.05133
 20
291.55485999999996
 10
24.25
 20
291.41773
 10
24.46809
 20
291.31424
 10
24.69996
 20
291.24708
 10
24.9396
 20
291.21799
 10
25.18081
 20
291.22771
 10
25.41733
 20
291.27599
 10
25.64304
 20
291.36159
 10
25.8521
 20
291.48229
 10
26.03909
 20
291.63497
 10
26.19916
 20
291.81566
 10
26.32818
 20
292.01968
 10
26.4228
 20
292.24177
 10
26.48058
 20
292.47614999999996
  0
LWPOLYLINE
  5
46
330
17
100
AcDbEntity
  8
CUT
100
AcDbPolyline
 90
39
 70
1
 10
26.5
 20
207.07232
 10
26.48058
 20
207.31294
 10
26.4228
 20
207.54731999999998
 10
26.32818
 20
207.7694
 10
26.19916
 20
207.97342999999998
 10
26.03909
 20
208.15411999999998
 10
25.8521
 20
208.30679999999998
 10
25.64304
 20
208.42749999999998
 10
25.41733
 20
208.51309999999998
 10
25.18081
 20
208.56137999999999
 10
24.9396
 20
208.5711
 10
24.69996
 20
208.54201
 10
24.46809
 20
208.47484
 10
24.25
 20
208.37135999999998
 10
24.05133
 20
208.23423
 10
23.87723
 20
208.06699999999998
 10
23.732210000000002
 20
207.87402
 10
23.62003
 20
207.66027
 10
23.543590000000002
 20
207.43129
 10
23.50486
 20
207.19302
 10
23.50486
 20
206.95162
 10
23.543590000000002
 20
206.71335
 10
23.62003
 20
206.48436999999998
 10
23.732210000000002
 20
206.27061999999998
 10
23.87723
 20
206.07764
 10
24.05133
 20
205.91040999999998
 10
24.25
 20
205.77328
 10
24.46809
 20
205.66979999999998
 10
24.69996
 20
205.60262999999998
 10
24.9396
 20
205.57353999999998
 10
25.18081
 20
205.58326
 10
25.41733
 20
205.63154
 10
25.64304
 20
205.71714
 10
25.8521
 20
205.83784
 10
26.03909
 20
205.99052
 10
26.19916
 20
206.17121
 10
26.32818
 20
206.37524
 10
26.4228
 20
206.59732
 10
26.48058
 20
206.83169999999998
  0
LWPOLYLINE
  5
47
330
17
100
AcDbEntity
  8
CUT
100
AcDbPolyline
 90
39
 70
1
 10
106.49952
 20
206.79538
 10
106.4801
 20
207.03599
 10
106.42233
 20
207.27038
 10
106.3277
 20
207.49246
 10
106.19868
 20
207.69648999999998
 10
106.03861
 20
207.87717999999998
 10
105.85162
 20
208.02984999999998
 10
105.64256
 20
208.15054999999998
 10
105.41685
 20
208.23614999999998
 10
105.18033
 20
208.28444
 10
104.93912
 20
208.29415999999998
 10
104.69948
 20
208.26505999999998
 10
104.46761
 20
208.1979
 10
104.24952
 20
208.09440999999998
 10
104.05085
 20
207.95728
 10
103.87675
 20
207.79005999999998
 10
103.73174
 20
207.59707999999998
 10
103.61955
 20
207.38333
 10
103.54311
 20
207.15435
 10
103.50438
 20
206.91608
 10
103.50438
 20
206.67468
 10
103.54311
 20
206.4364
 10
103.61955
 20
206.20743
 10
103.73174
 20
205.99367999999998
 10
103.87675
 20
205.80069
 10
104.05085
 20
205.63347
 10
104.24952
 20
205.49634
 10
104.46761
 20
205.39284999999998
 10
104.69948
 20
205.32568999999998
 10
104.93912
 20
205.29658999999998
 10
105.18033
 20
205.30631
 10
105.41685
 20
205.3546
 10
105.64256
 20
205.4402
 10
105.85162
 20
205.5609
 10
106.03861
 20
205.71357
 10
106.19868
 20
205.89426
 10
106.3277
 20
206.09829
 10
106.42233
 20
206.32037
 10
106.4801
 20
206.55476
  0
LWPOLYLINE
  5
48
330
17
100
AcDbEntity
  8
CUT
100
AcDbPolyline
 90
39
 70
1
 10
106.49952
 20
292.99370999999996
 10
106.4801
 20
293.23433
 10
106.42233
 20
293.46871
 10
106.3277
 20
293.69079999999997
 10
106.19868
 20
293.89482999999996
 10
106.03861
 20
294.07552
 10
105.85162
 20
294.22819
 10
105.64256
 20
294.34889
 10
105.41685
 20
294.43449
 10
105.18033
 20
294.48278
 10
104.93912
 20
294.4925
 10
104.69948
 20
294.4634
 10
104.46761
 20
294.39624
 10
104.24952
 20
294.29274999999996
 10
104.05085
 20
294.15562
 10
103.87675
 20
293.98839999999996
 10
103.73174
 20
293.79541
 10
103.61955
 20
293.58166
 10
103.54311
 20
293.35269
 10
103.50438
 20
293.11441
 10
103.50438
 20
292.87301
 10
103.54311
 20
292.63473999999997
 10
103.61955
 20
292.40576
 10
103.73174
 20
292.19201
 10
103.87675
 20
291.99903
 10
104.05085
 20
291.8318
 10
104.24952
 20
291.69467
 10
104.46761
 20
291.59119
 10
104.69948
 20
291.52403
 10
104.93912
 20
291.49493
 10
105.18033
 20
291.50464999999997
 10
105.41685
 20
291.55294
 10
105.64256
 20
291.63854
 10
105.85162
 20
291.75924
 10
106.03861
 20
291.91191
 10
106.19868
 20
292.0926
 10
106.3277
 20
292.29663
 10
106.42233
 20
292.51871
 10
106.4801
 20
292.7531
  0
TEXT
  5
49
330
17
100
AcDbEntity
  8
LABEL_DO_NOT_CUT
100
AcDbText
 10
469.0
 20
249.89454
 30
0.0
 40
2.0
  1
A43
100
AcDbText
  0
LWPOLYLINE
  5
4A
330
17
100
AcDbEntity
  8
CUT
100
AcDbPolyline
 90
7
 70
1
 10
10.0
 20
303.71677
 10
10.0
 20
312.93015
 10
113.62955
 20
312.39157
 10
298.85438
 20
311.44812
 10
381.89112
 20
311.03427
 10
453.00002
 20
310.68906
 10
453.00002
 20
307.211
  0
TEXT
  5
4B
330
17
100
AcDbEntity
  8
LABEL_DO_NOT_CUT
100
AcDbText
 10
231.50001
 20
308.95002999999997
 30
0.0
 40
2.0
  1
A07_L_O
100
AcDbText
  0
LWPOLYLINE
  5
4C
330
17
100
AcDbEntity
  8
CUT
100
AcDbPolyline
 90
7
 70
1
 10
453.00002
 20
324.64930000000004
 10
453.00002
 20
321.17124
 10
381.89112
 20
320.82603
 10
298.85438
 20
320.41218000000003
 10
113.62955
 20
319.46873000000005
 10
10.0
 20
318.93015
 10
10.0
 20
328.14353000000006
  0
TEXT
  5
4D
330
17
100
AcDbEntity
  8
LABEL_DO_NOT_CUT
100
AcDbText
 10
231.50001
 20
322.91027
 30
0.0
 40
2.0
  1
A07_R_O
100
AcDbText
  0
LWPOLYLINE
  5
4E
330
17
100
AcDbEntity
  8
CUT
100
AcDbPolyline
 90
79
 70
1
 10
371.52224
 20
347.88359
 10
444.0
 20
347.29594000000003
 10
444.0
 20
337.87155000000007
 10
90.0
 20
334.83059000000003
 10
90.0
 20
340.21468000000004
 10
85.0
 20
340.21468000000004
 10
85.0
 20
334.78765000000004
 10
10.0
 20
334.14353000000006
 10
10.0
 20
342.43343000000004
 10
15.0
 20
342.43343000000004
 10
15.0
 20
350.68368000000004
 10
124.36977
 20
349.82504000000006
 10
124.53454
 20
349.81676000000004
 10
124.69816
 20
349.79476000000005
 10
124.85949
 20
349.75939000000005
 10
125.01744
 20
349.71105000000006
 10
125.17088
 20
349.65009000000003
 10
125.31871
 20
349.5769000000001
 10
125.4598
 20
349.4918400000001
 10
125.59304
 20
349.39528000000007
 10
125.75679
 20
349.2495400000001
 10
125.90338
 20
349.08635000000004
 10
126.03158
 20
348.90805000000006
 10
126.14015
 20
348.71695000000005
 10
126.22786
 20
348.51540000000006
 10
126.29348
 20
348.30571000000003
 10
126.33579
 20
348.09022000000004
 10
126.37147
 20
347.65119000000004
 10
126.4142
 20
347.43465000000003
 10
126.48047
 20
347.2239900000001
 10
126.56903
 20
347.02159000000006
 10
126.67863
 20
346.82980000000003
 10
126.80801
 20
346.65098000000006
 10
126.95592
 20
346.48749000000004
 10
127.12111
 20
346.34170000000006
 10
127.25547
 20
346.24528000000004
 10
127.39771
 20
346.1605200000001
 10
127.5467
 20
346.08778000000007
 10
127.70129
 20
346.02743000000004
 10
127.86035
 20
345.97985000000006
 10
128.02275
 20
345.94541000000004
 10
128.18734999999998
 20
345.92447000000004
 10
128.35302000000001
 20
345.9174100000001
 10
174.38747
 20
345.9174100000001
 10
174.59288
 20
345.92848000000004
 10
174.79592
 20
345.96108000000004
 10
174.99464
 20
346.0143100000001
 10
175.18707
 20
346.0872600000001
 10
175.37126
 20
346.17902000000004
 10
175.54522
 20
346.28869000000003
 10
175.70701
 20
346.41535000000005
 10
175.85465
 20
346.55809000000005
 10
175.95499
 20
346.67508000000004
 10
176.04588
 20
346.79973000000007
 10
176.12693
 20
346.93117000000007
 10
176.19774
 20
347.06852000000003
 10
176.25792
 20
347.21091000000007
 10
176.30708
 20
347.35746000000006
 10
176.34483
 20
347.50729000000007
 10
176.3969
 20
347.81260000000003
 10
176.43496
 20
347.96323000000007
 10
176.48455
 20
348.11052000000007
 10
176.54527
 20
348.25359000000003
 10
176.61673
 20
348.39156
 10
176.69851
 20
348.52353000000005
 10
176.79024
 20
348.64860000000004
 10
176.89149
 20
348.7659100000001
 10
177.04046
 20
348.90887000000004
 10
177.20366
 20
349.03551000000004
 10
177.3791
 20
349.14493000000004
 10
177.56477
 20
349.23620000000005
 10
177.75867
 20
349.30841000000004
 10
177.95881
 20
349.36066000000005
 10
178.16317
 20
349.39202000000006
 10
178.36977
 20
349.40160000000003
 10
204.35
 20
349.19786000000005
 10
204.35
 20
342.43343000000004
 10
209.35
 20
342.43343000000004
 10
209.35
 20
349.15864000000005
  0
TEXT
  5
4F
330
17
100
AcDbEntity
  8
LABEL_DO_NOT_CUT
100
AcDbText
 10
227.0
 20
341.32405500000004
 30
0.0
 40
2.0
  1
A05_L
100
AcDbText
  0
LWPOLYLINE
  5
50
330
17
100
AcDbEntity
  8
CUT
100
AcDbPolyline
 90
79
 70
1
 10
209.35
 20
358.20872
 10
209.35
 20
364.93393000000003
 10
204.35
 20
364.93393000000003
 10
204.35
 20
358.1695
 10
178.36977
 20
357.96576000000005
 10
178.16317
 20
357.97534
 10
177.95881
 20
358.0067
 10
177.75867
 20
358.05895000000004
 10
177.56477
 20
358.13116
 10
177.3791
 20
358.22243000000003
 10
177.20366
 20
358.33185000000003
 10
177.04046
 20
358.45849000000004
 10
176.89149
 20
358.60146000000003
 10
176.79024
 20
358.71876000000003
 10
176.69851
 20
358.84383
 10
176.61673
 20
358.97580000000005
 10
176.54527
 20
359.11377000000005
 10
176.48455
 20
359.25684
 10
176.43496
 20
359.40414000000004
 10
176.3969
 20
359.55476000000004
 10
176.34483
 20
359.86007000000006
 10
176.30708
 20
360.0099
 10
176.25792
 20
360.15645000000006
 10
176.19774
 20
360.29884000000004
 10
176.12693
 20
360.43619
 10
176.04588
 20
360.56763000000007
 10
175.95499
 20
360.69228000000004
 10
175.85465
 20
360.80927
 10
175.70701
 20
360.95201000000003
 10
175.54522
 20
361.07867000000005
 10
175.37126
 20
361.18834000000004
 10
175.18707
 20
361.28010000000006
 10
174.99464
 20
361.35305000000005
 10
174.79592
 20
361.40628000000004
 10
174.59288
 20
361.43888000000004
 10
174.38747
 20
361.44995000000006
 10
128.35302000000001
 20
361.44995000000006
 10
128.18734999999998
 20
361.44289000000003
 10
128.02275
 20
361.42195000000004
 10
127.86035
 20
361.38751
 10
127.70129
 20
361.33993000000004
 10
127.5467
 20
361.27958
 10
127.39771
 20
361.20684000000006
 10
127.25547
 20
361.12208000000004
 10
127.12111
 20
361.02566
 10
126.95592
 20
360.87987000000004
 10
126.80801
 20
360.71638
 10
126.67863
 20
360.53756000000004
 10
126.56903
 20
360.34577
 10
126.48047
 20
360.14337000000006
 10
126.4142
 20
359.93271000000004
 10
126.37147
 20
359.71617000000003
 10
126.33579
 20
359.27714000000003
 10
126.29348
 20
359.06165000000004
 10
126.22786
 20
358.85197000000005
 10
126.14015
 20
358.65041
 10
126.03158
 20
358.45931
 10
125.90338
 20
358.28101000000004
 10
125.75679
 20
358.11782000000005
 10
125.59304
 20
357.97208000000006
 10
125.4598
 20
357.87552000000005
 10
125.31871
 20
357.79046000000005
 10
125.17088
 20
357.71727000000004
 10
125.01744
 20
357.65631
 10
124.85949
 20
357.60797
 10
124.69816
 20
357.5726
 10
124.53454
 20
357.55060000000003
 10
124.36977
 20
357.54232
 10
15.0
 20
356.68368000000004
 10
15.0
 20
364.93393000000003
 10
10.0
 20
364.93393000000003
 10
10.0
 20
373.22383
 10
85.0
 20
372.57971000000003
 10
85.0
 20
367.15268000000003
 10
90.0
 20
367.15268000000003
 10
90.0
 20
372.53677000000005
 10
444.0
 20
369.49581000000006
 10
444.0
 20
360.07142000000005
 10
371.52224
 20
359.48377000000005
  0
TEXT
  5
51
330
17
100
AcDbEntity
  8
LABEL_DO_NOT_CUT
100
AcDbText
 10
227.0
 20
366.04330500000003
 30
0.0
 40
2.0
  1
A05_R
100
AcDbText
  0
LWPOLYLINE
  5
52
330
17
100
AcDbEntity
  8
CUT
100
AcDbPolyline
 90
14
 70
1
 10
316.99998
 20
390.81928000000005
 10
316.99998
 20
381.6059
 10
209.35
 20
380.7568
 10
209.35
 20
385.80149
 10
204.35
 20
385.80149
 10
204.35
 20
380.71736000000004
 10
15.0
 20
379.22383
 10
15.0
 20
385.80149
 10
10.0
 20
385.80149
 10
10.0
 20
392.41874
 10
85.0
 20
392.02501
 10
85.0
 20
387.49678
 10
90.0
 20
387.49678
 10
90.0
 20
391.99905
  0
TEXT
  5
53
330
17
100
AcDbEntity
  8
LABEL_DO_NOT_CUT
100
AcDbText
 10
163.49999
 20
386.649135
 30
0.0
 40
2.0
  1
A07_L_I
100
AcDbText
  0
LWPOLYLINE
  5
54
330
17
100
AcDbEntity
  8
CUT
100
AcDbPolyline
 90
14
 70
1
 10
90.0
 20
398.83844
 10
90.0
 20
403.3407
 10
85.0
 20
403.3407
 10
85.0
 20
398.81247
 10
10.0
 20
398.41874
 10
10.0
 20
405.036
 10
15.0
 20
405.036
 10
15.0
 20
411.61365
 10
204.35
 20
410.12013
 10
204.35
 20
405.036
 10
209.35
 20
405.036
 10
209.35
 20
410.08069
 10
316.99998
 20
409.23158
 10
316.99998
 20
400.01820000000004
  0
TEXT
  5
55
330
17
100
AcDbEntity
  8
LABEL_DO_NOT_CUT
100
AcDbText
 10
163.49999
 20
404.18835
 30
0.0
 40
2.0
  1
A07_R_I
100
AcDbText
  0
LWPOLYLINE
  5
56
330
17
100
AcDbEntity
  8
CUT
100
AcDbPolyline
 90
122
 70
1
 10
187.63793
 20
419.265
 10
190.69369
 20
418.55814
 10
193.66319
 20
417.86003
 10
108.61694
 20
417.70749
 10
89.52272
 20
417.67812
 10
77.84481
 20
417.6569
 10
73.31597
 20
417.64585
 10
66.20224
 20
417.62545
 10
61.83321
 20
417.61503
 10
57.93693
 20
417.61365
 10
53.33598
 20
417.6341
 10
48.29528
 20
417.68721
 10
44.26081
 20
417.75792
 10
42.91429
 20
417.78868
 10
40.82725
 20
417.84411
 10
38.73247
 20
417.90981
 10
35.57434
 20
418.0304
 10
32.60661
 20
418.16975
 10
29.85034
 20
418.32544
 10
27.42264
 20
418.48554
 10
26.10528
 20
418.58213
 10
23.90327
 20
418.75891
 10
21.380760000000002
 20
418.98222
 10
20.00309
 20
419.11517000000003
 10
18.65382
 20
419.26271
 10
17.33338
 20
419.43107000000003
 10
16.0422
 20
419.62651
 10
14.82349
 20
419.85083000000003
 10
13.3916
 20
420.14838000000003
 10
11.96293
 20
420.47189000000003
 10
10.7539
 20
420.77413
 10
10.25074
 20
420.9191
 10
10.0
 20
421.00137
 10
10.27003
 20
421.25697
 10
10.90713
 20
421.83552000000003
 10
11.37937
 20
422.24812000000003
 10
11.83247
 20
422.63067
 10
12.31397
 20
423.01372000000003
 10
12.84149
 20
423.40421000000003
 10
13.43261
 20
423.80912
 10
14.0069
 20
424.17443000000003
 10
14.652000000000001
 20
424.55621
 10
15.37617
 20
424.95422
 10
16.18772
 20
425.36825
 10
17.094920000000002
 20
425.79809
 10
18.10608
 20
426.24352
 10
19.22946
 20
426.70431
 10
20.47336
 20
427.18025
 10
20.67247
 20
427.25356
 10
21.34599
 20
427.49667
 10
22.17509
 20
427.78609
 10
23.069029999999998
 20
428.08677
 10
24.01147
 20
428.39185000000003
 10
25.66575
 20
428.89845
 10
27.38868
 20
429.39235
 10
29.12327
 20
429.85943000000003
 10
30.81252
 20
430.28557
 10
31.91079
 20
430.54729000000003
 10
32.94548
 20
430.7838
 10
34.93698
 20
431.21291
 10
37.016850000000005
 20
431.62605
 10
39.183409999999995
 20
432.02039
 10
41.434979999999996
 20
432.39306
 10
43.12635
 20
432.64912
 10
44.8609
 20
432.89119
 10
45.56422
 20
432.98341
 10
46.27415
 20
433.07284
 10
47.71548
 20
433.24311
 10
49.17631
 20
433.40033
 10
50.63454
 20
433.54214
 10
52.85064
 20
433.72938
 10
55.03471
 20
433.88228000000004
 10
57.21763
 20
434.00587
 10
59.39065
 20
434.10193
 10
61.6406
 20
434.17622
 10
63.9347
 20
434.22901
 10
66.25958
 20
434.26254
 10
68.60188
 20
434.27903000000003
 10
70.69162
 20
434.28151
 10
72.85741
 20
434.27443
 10
75.77092
 20
434.25234
 10
78.70362
 20
434.21496
 10
78.71049
 20
425.9474
 10
83.71049
 20
425.95155
 10
83.70371
 20
434.10866
 10
87.17052
 20
433.99906
 10
89.53219
 20
433.90622
 10
91.87409
 20
433.79929
 10
94.18644
 20
433.67895
 10
96.46771
 20
433.54544
 10
98.61094
 20
433.40668
 10
100.80799
 20
433.25159
 10
103.0138
 20
433.08358
 10
105.18333
 20
432.90605
 10
108.02788
 20
432.65474
 10
110.22161
 20
432.44723
 10
112.47455
 20
432.22232
 10
114.77361
 20
431.98129
 10
117.1057
 20
431.72540000000004
 10
117.11183
 20
424.34717
 10
122.11183
 20
424.35133
 10
122.10619
 20
431.1391
 10
126.25631
 20
430.61397
 10
130.44803000000002
 20
430.04909
 10
133.40985999999998
 20
429.62802
 10
135.68319
 20
429.29256
 10
138.01232
 20
428.93834
 10
140.35102
 20
428.57254
 10
142.65304
 20
428.20234
 10
145.57366
 20
427.71804000000003
 10
148.64273
 20
427.19246
 10
151.83273
 20
426.6286
 10
154.98882
 20
426.05406
 10
159.11112
 20
425.27930000000003
 10
161.57793
 20
424.80312000000004
 10
164.90596
 20
424.14637
 10
168.19165
 20
423.48276
 10
171.91694
 20
422.71264
 10
176.30019
 20
421.78375
 10
179.20463
 20
421.15478
 10
181.50538
 20
420.64859
 10
184.55535
 20
419.96651
  0
LWPOLYLINE
  5
57
330
17
100
AcDbEntity
  8
CUT
100
AcDbPolyline
 90
91
 70
1
 10
50.30959
 20
422.72901
 10
50.29658
 20
422.84504
 10
50.27067
 20
422.95893
 10
50.18293
 20
423.27447
 10
50.10557
 20
423.59271
 10
50.03868
 20
423.91332
 10
49.98232
 20
424.23594
 10
49.93655
 20
424.56024
 10
49.90143
 20
424.88586
 10
49.87699
 20
425.21246
 10
49.86325
 20
425.53969
 10
49.86024
 20
425.86718
 10
49.86796
 20
426.1946
 10
49.88639
 20
426.52160000000003
 10
49.91552
 20
426.84781
 10
49.95532
 20
427.17289
 10
50.00575
 20
427.4965
 10
50.06674
 20
427.81828
 10
50.13838
 20
428.13786
 10
50.15922
 20
428.25545
 10
50.1659
 20
428.37469
 10
50.15832
 20
428.49387
 10
50.1366
 20
428.6113
 10
50.10103
 20
428.72531000000004
 10
50.05214
 20
428.83427
 10
49.99062
 20
428.93662
 10
49.91733
 20
429.03092
 10
49.83334
 20
429.11581
 10
49.73982
 20
429.19009
 10
49.63812
 20
429.2527
 10
49.52969
 20
429.30275
 10
49.41607
 20
429.33951
 10
49.29887
 20
429.36248
 10
49.17978
 20
429.37132
 10
49.06041
 20
429.36655
 10
48.16423
 20
429.26836000000003
 10
46.76395
 20
429.10294
 10
45.73429
 20
428.97192
 10
45.39093
 20
428.92646
 10
43.73435
 20
428.69547
 10
42.05676
 20
428.44168
 10
40.0131
 20
428.10435
 10
37.94992
 20
427.73137
 10
35.88095
 20
427.32326
 10
33.81995
 20
426.88056
 10
31.75837
 20
426.39901000000003
 10
30.10357
 20
425.98272000000003
 10
28.46639
 20
425.54283
 10
26.85073
 20
425.07919
 10
25.26066
 20
424.59107
 10
25.1018
 20
424.52517
 10
24.956580000000002
 20
424.43302
 10
24.8293
 20
424.31734
 10
24.72374
 20
424.18156
 10
24.64301
 20
424.02969
 10
24.5895
 20
423.86624
 10
24.564790000000002
 20
423.69603
 10
24.56963
 20
423.52411
 10
24.603859999999997
 20
423.35556
 10
24.66647
 20
423.19538
 10
24.75561
 20
423.04829
 10
24.86863
 20
422.91865
 10
25.002209999999998
 20
422.81031
 10
25.152369999999998
 20
422.72646000000003
 10
25.31469
 20
422.66959
 10
25.48435
 20
422.64143
 10
26.27286
 20
422.58057
 10
27.14703
 20
422.51555
 10
29.2107
 20
422.37492000000003
 10
31.3437
 20
422.24763
 10
33.52397
 20
422.13356
 10
35.729479999999995
 20
422.03256
 10
37.93817
 20
421.94451
 10
40.128
 20
421.86927000000003
 10
42.27693
 20
421.80669
 10
44.36292
 20
421.75665
 10
46.81237
 20
421.71042
 10
49.29987
 20
421.67526
 10
49.41649
 20
421.68083
 10
49.53168
 20
421.69996000000003
 10
49.64385
 20
421.73237
 10
49.75148
 20
421.77762
 10
49.8531
 20
421.83511
 10
49.94734
 20
421.90405
 10
50.0329
 20
421.9835
 10
50.10863
 20
422.07237
 10
50.17348
 20
422.16946
 10
50.22658
 20
422.27345
 10
50.26721
 20
422.38291
 10
50.29481
 20
422.49636
 10
50.309
 20
422.61225
  0
LWPOLYLINE
  5
58
330
17
100
AcDbEntity
  8
CUT
100
AcDbPolyline
 90
50
 70
1
 10
62.35998
 20
425.79532
 10
62.34027
 20
426.10866
 10
62.28144
 20
426.41705
 10
62.18443
 20
426.71564
 10
62.05075
 20
426.99971
 10
61.88253
 20
427.26479
 10
61.68241
 20
427.50669
 10
61.45354
 20
427.72161
 10
61.19955
 20
427.90614
 10
60.92443
 20
428.05739
 10
60.63253
 20
428.17297
 10
60.32844
 20
428.25104
 10
60.01696
 20
428.29039
 10
59.70301
 20
428.29039
 10
59.39153
 20
428.25104
 10
59.08744
 20
428.17297
 10
58.79554
 20
428.05739
 10
58.52042
 20
427.90614
 10
58.26642
 20
427.72161
 10
58.03756
 20
427.50669
 10
57.83744
 20
427.26479
 10
57.66922
 20
426.99971
 10
57.53554
 20
426.71564
 10
57.43853
 20
426.41705
 10
57.3797
 20
426.10866
 10
57.35998
 20
425.79532
 10
57.3797
 20
425.48199
 10
57.43853
 20
425.1736
 10
57.53554
 20
424.87501000000003
 10
57.66922
 20
424.59094
 10
57.83744
 20
424.32586000000003
 10
58.03756
 20
424.08396
 10
58.26642
 20
423.86904
 10
58.52042
 20
423.6845
 10
58.79554
 20
423.53326
 10
59.08744
 20
423.41768
 10
59.39153
 20
423.33961
 10
59.70301
 20
423.30026
 10
60.01696
 20
423.30026
 10
60.32844
 20
423.33961
 10
60.63253
 20
423.41768
 10
60.92443
 20
423.53326
 10
61.19955
 20
423.6845
 10
61.45354
 20
423.86904
 10
61.68241
 20
424.08396
 10
61.88253
 20
424.32586000000003
 10
62.05075
 20
424.59094
 10
62.18443
 20
424.87501000000003
 10
62.28144
 20
425.1736
 10
62.34027
 20
425.48199
  0
LWPOLYLINE
  5
59
330
17
100
AcDbEntity
  8
CUT
100
AcDbPolyline
 90
50
 70
1
 10
102.40601
 20
425.23332
 10
102.3863
 20
425.54666000000003
 10
102.32747
 20
425.85505
 10
102.23045
 20
426.15364
 10
102.09678
 20
426.43771
 10
101.92855
 20
426.70279
 10
101.72843
 20
426.94469
 10
101.49957
 20
427.15961
 10
101.24558
 20
427.34414
 10
100.97046
 20
427.49539
 10
100.67855
 20
427.61097
 10
100.37446
 20
427.68904000000003
 10
100.06299
 20
427.72839
 10
99.74903
 20
427.72839
 10
99.43756
 20
427.68904000000003
 10
99.13347
 20
427.61097
 10
98.84156
 20
427.49539
 10
98.56644
 20
427.34414
 10
98.31245
 20
427.15961
 10
98.08359
 20
426.94469
 10
97.88347
 20
426.70279
 10
97.71524
 20
426.43771
 10
97.58157
 20
426.15364
 10
97.48455
 20
425.85505
 10
97.42572
 20
425.54666000000003
 10
97.40601
 20
425.23332
 10
97.42572
 20
424.91999
 10
97.48455
 20
424.6116
 10
97.58157
 20
424.31301
 10
97.71524
 20
424.02894000000003
 10
97.88347
 20
423.76386
 10
98.08359
 20
423.52196000000004
 10
98.31245
 20
423.30704000000003
 10
98.56644
 20
423.1225
 10
98.84156
 20
422.97126000000003
 10
99.13347
 20
422.85568
 10
99.43756
 20
422.77761
 10
99.74903
 20
422.73826
 10
100.06299
 20
422.73826
 10
100.37446
 20
422.77761
 10
100.67855
 20
422.85568
 10
100.97046
 20
422.97126000000003
 10
101.24558
 20
423.1225
 10
101.49957
 20
423.30704000000003
 10
101.72843
 20
423.52196000000004
 10
101.92855
 20
423.76386
 10
102.09678
 20
424.02894000000003
 10
102.23045
 20
424.31301
 10
102.32747
 20
424.6116
 10
102.3863
 20
424.91999
  0
TEXT
  5
5A
330
17
100
AcDbEntity
  8
LABEL_DO_NOT_CUT
100
AcDbText
 10
138.82789607689728
 20
425.949475
 30
0.0
 40
2.0
  1
A35_L
100
AcDbText
  0
LWPOLYLINE
  5
5B
330
17
100
AcDbEntity
  8
CUT
100
AcDbPolyline
 90
122
 70
1
 10
374.21853999999996
 20
431.92865
 10
371.16857
 20
431.24658
 10
368.86782
 20
430.74038
 10
365.96338
 20
430.11141
 10
361.58013
 20
429.18253
 10
357.85483999999997
 20
428.4124
 10
354.56915
 20
427.74879
 10
351.24112
 20
427.09204
 10
348.77431
 20
426.61586
 10
344.65201
 20
425.8411
 10
341.49591999999996
 20
425.26657
 10
338.30592
 20
424.7027
 10
335.23685
 20
424.17713000000003
 10
332.31623
 20
423.69282
 10
330.01421
 20
423.32263
 10
327.67551
 20
422.95683
 10
325.34637999999995
 20
422.6026
 10
323.07304999999997
 20
422.26714
 10
320.11122
 20
421.84608000000003
 10
315.91949999999997
 20
421.28119
 10
311.76937999999996
 20
420.75606
 10
311.77502
 20
427.54384
 10
306.77502
 20
427.54799
 10
306.76889
 20
420.16976
 10
304.4368
 20
419.91387000000003
 10
302.13774
 20
419.67284
 10
299.8848
 20
419.44793
 10
297.69106999999997
 20
419.24042000000003
 10
294.84652
 20
418.98911
 10
292.67699
 20
418.81158
 10
290.47118
 20
418.64357
 10
288.27413
 20
418.48848
 10
286.1309
 20
418.34972
 10
283.84963
 20
418.21622
 10
281.53728
 20
418.09587
 10
279.19538
 20
417.98894
 10
276.83371
 20
417.8961
 10
273.3669
 20
417.78651
 10
273.37368
 20
425.94362
 10
268.37368
 20
425.94777
 10
268.36681
 20
417.6802
 10
265.43411
 20
417.64282000000003
 10
262.5206
 20
417.62073
 10
260.35481
 20
417.61365
 10
258.26507
 20
417.61613
 10
255.92276999999999
 20
417.63262000000003
 10
253.59788999999998
 20
417.66615
 10
251.30379
 20
417.71895
 10
249.05383999999998
 20
417.79323
 10
246.88081999999997
 20
417.88929
 10
244.69789999999998
 20
418.01288
 10
242.51382999999998
 20
418.16578
 10
240.29773
 20
418.35303
 10
238.8395
 20
418.49483
 10
237.37867
 20
418.65206
 10
235.93733999999998
 20
418.82233
 10
235.22741
 20
418.91175
 10
234.52409
 20
419.00397
 10
232.78954
 20
419.24605
 10
231.09816999999998
 20
419.5021
 10
228.8466
 20
419.87478
 10
226.68004
 20
420.26911
 10
224.60017
 20
420.68225
 10
222.60867
 20
421.11136
 10
221.57397999999998
 20
421.34787
 10
220.47571
 20
421.6096
 10
218.78645999999998
 20
422.03573
 10
217.05186999999998
 20
422.50281
 10
215.32894
 20
422.99671
 10
213.67466
 20
423.50332000000003
 10
212.73221999999998
 20
423.8084
 10
211.83828
 20
424.10907000000003
 10
211.00918
 20
424.3985
 10
210.33566
 20
424.6416
 10
210.13655
 20
424.71491000000003
 10
208.89264999999997
 20
425.19085
 10
207.76926999999998
 20
425.65164
 10
206.75811
 20
426.09707000000003
 10
205.85091
 20
426.52691
 10
205.03936
 20
426.94094
 10
204.31518999999997
 20
427.33896
 10
203.67009
 20
427.72073
 10
203.0958
 20
428.08604
 10
202.50467999999998
 20
428.49095
 10
201.97716
 20
428.88145000000003
 10
201.49566
 20
429.26449
 10
201.04255999999998
 20
429.64705000000004
 10
200.57031999999998
 20
430.05964
 10
199.93321999999998
 20
430.6382
 10
199.66319
 20
430.89379
 10
199.91393
 20
430.97607
 10
200.41708999999997
 20
431.12104
 10
201.62612
 20
431.42327
 10
203.05479
 20
431.74679000000003
 10
204.48667999999998
 20
432.04433
 10
205.70539
 20
432.26865
 10
206.99657
 20
432.46409
 10
208.31700999999998
 20
432.63246
 10
209.66627999999997
 20
432.78000000000003
 10
211.04395
 20
432.91294
 10
213.56645999999998
 20
433.13625
 10
215.76846999999998
 20
433.31304
 10
217.08583
 20
433.40962
 10
219.51352999999997
 20
433.56972
 10
222.26979999999998
 20
433.72542
 10
225.23753
 20
433.86477
 10
228.39566
 20
433.98535
 10
230.49043999999998
 20
434.05106
 10
232.57747999999998
 20
434.10649
 10
233.92399999999998
 20
434.13725
 10
237.95846999999998
 20
434.20795
 10
242.99917
 20
434.26106
 10
247.60011999999998
 20
434.28151
 10
251.4964
 20
434.28013
 10
255.86543
 20
434.26971000000003
 10
262.97916
 20
434.24931000000004
 10
267.508
 20
434.23826
 10
279.18591
 20
434.21705000000003
 10
298.28013
 20
434.18767
 10
383.32638
 20
434.03514
 10
380.35688
 20
433.33703
 10
377.30111999999997
 20
432.63016
  0
LWPOLYLINE
  5
5C
330
17
100
AcDbEntity
  8
CUT
100
AcDbPolyline
 90
91
 70
1
 10
239.97218999999998
 20
429.28291
 10
239.95799999999997
 20
429.3988
 10
239.9304
 20
429.51225
 10
239.88977
 20
429.62172
 10
239.83666999999997
 20
429.7257
 10
239.77182
 20
429.82279
 10
239.69608999999997
 20
429.91167
 10
239.61052999999998
 20
429.99111
 10
239.51628999999997
 20
430.06005
 10
239.41467
 20
430.11754
 10
239.30703999999997
 20
430.1628
 10
239.19486999999998
 20
430.19521000000003
 10
239.07968
 20
430.21433
 10
238.96305999999998
 20
430.2199
 10
236.47555999999997
 20
430.18475
 10
234.02611
 20
430.13852
 10
231.94011999999998
 20
430.08847000000003
 10
229.79118999999997
 20
430.0259
 10
227.60136
 20
429.95065
 10
225.39266999999998
 20
429.8626
 10
223.18715999999998
 20
429.76161
 10
221.00689
 20
429.64754
 10
218.87389
 20
429.52025000000003
 10
216.81022
 20
429.37961
 10
215.93605
 20
429.31459
 10
215.14754
 20
429.25374
 10
214.97788
 20
429.22557
 10
214.81555999999998
 20
429.1687
 10
214.66539999999998
 20
429.08485
 10
214.53181999999998
 20
428.97651
 10
214.41879999999998
 20
428.84688
 10
214.32966
 20
428.69979
 10
214.26704999999998
 20
428.5396
 10
214.23281999999998
 20
428.37105
 10
214.22797999999997
 20
428.19913
 10
214.25268999999997
 20
428.02892
 10
214.3062
 20
427.86547
 10
214.38692999999998
 20
427.7136
 10
214.49248999999998
 20
427.57782000000003
 10
214.61977
 20
427.46215
 10
214.76498999999998
 20
427.36999000000003
 10
214.92385
 20
427.30409000000003
 10
216.51391999999998
 20
426.81597
 10
218.12957999999998
 20
426.35233
 10
219.76675999999998
 20
425.91245000000004
 10
221.42156
 20
425.49616000000003
 10
223.48314
 20
425.01460000000003
 10
225.54413999999997
 20
424.5719
 10
227.61310999999998
 20
424.16379
 10
229.67629
 20
423.79081
 10
231.71994999999998
 20
423.45348
 10
233.39754
 20
423.19969000000003
 10
235.05411999999998
 20
422.9687
 10
235.39747999999997
 20
422.92324
 10
236.42713999999998
 20
422.79222
 10
237.82742
 20
422.6268
 10
238.72359999999998
 20
422.52861
 10
238.84296999999998
 20
422.52384
 10
238.96205999999998
 20
422.53268
 10
239.07925999999998
 20
422.55565
 10
239.19288
 20
422.59242
 10
239.30131
 20
422.64246
 10
239.40301
 20
422.70507000000003
 10
239.49652999999998
 20
422.77935
 10
239.58051999999998
 20
422.86424
 10
239.65381
 20
422.95854
 10
239.71533
 20
423.06089000000003
 10
239.76422
 20
423.16985
 10
239.79978999999997
 20
423.28386
 10
239.82151
 20
423.40129
 10
239.82908999999998
 20
423.52047
 10
239.82241
 20
423.63971
 10
239.80156999999997
 20
423.7573
 10
239.72993
 20
424.07688
 10
239.66894
 20
424.39866
 10
239.61851
 20
424.72227
 10
239.57871
 20
425.04735
 10
239.54958
 20
425.37357000000003
 10
239.53114999999997
 20
425.70056
 10
239.52343
 20
426.02798
 10
239.52643999999998
 20
426.35548
 10
239.54018
 20
426.6827
 10
239.56462
 20
427.0093
 10
239.59974
 20
427.33492
 10
239.64551
 20
427.65922
 10
239.70186999999999
 20
427.98184000000003
 10
239.76876
 20
428.30245
 10
239.84611999999998
 20
428.62069
 10
239.93385999999998
 20
428.93623
 10
239.95977
 20
429.05012
 10
239.97278
 20
429.16615
  0
LWPOLYLINE
  5
5D
330
17
100
AcDbEntity
  8
CUT
100
AcDbPolyline
 90
50
 70
1
 10
252.02317
 20
426.09984000000003
 10
252.00346
 20
426.41317
 10
251.94463
 20
426.72156
 10
251.84761999999998
 20
427.02015
 10
251.71393999999998
 20
427.30422
 10
251.54572
 20
427.5693
 10
251.3456
 20
427.81121
 10
251.11673
 20
428.02612
 10
250.86273999999997
 20
428.21066
 10
250.58762
 20
428.36191
 10
250.29572
 20
428.47748
 10
249.99163
 20
428.55556
 10
249.68014999999997
 20
428.59491
 10
249.3662
 20
428.59491
 10
249.05471999999997
 20
428.55556
 10
248.75063
 20
428.47748
 10
248.45873
 20
428.36191
 10
248.18361
 20
428.21066
 10
247.92960999999997
 20
428.02612
 10
247.70074999999997
 20
427.81121
 10
247.50063
 20
427.5693
 10
247.33240999999998
 20
427.30422
 10
247.19872999999998
 20
427.02015
 10
247.10172
 20
426.72156
 10
247.04289
 20
426.41317
 10
247.02317
 20
426.09984000000003
 10
247.04289
 20
425.78651
 10
247.10172
 20
425.47811
 10
247.19872999999998
 20
425.17953
 10
247.33240999999998
 20
424.89545
 10
247.50063
 20
424.63038
 10
247.70074999999997
 20
424.38847
 10
247.92960999999997
 20
424.17356
 10
248.18361
 20
423.98902
 10
248.45873
 20
423.83777000000003
 10
248.75063
 20
423.7222
 10
249.05471999999997
 20
423.64412
 10
249.3662
 20
423.60477000000003
 10
249.68014999999997
 20
423.60477000000003
 10
249.99163
 20
423.64412
 10
250.29572
 20
423.7222
 10
250.58762
 20
423.83777000000003
 10
250.86273999999997
 20
423.98902
 10
251.11673
 20
424.17356
 10
251.3456
 20
424.38847
 10
251.54572
 20
424.63038
 10
251.71393999999998
 20
424.89545
 10
251.84761999999998
 20
425.17953
 10
251.94463
 20
425.47811
 10
252.00346
 20
425.78651
  0
LWPOLYLINE
  5
5E
330
17
100
AcDbEntity
  8
CUT
100
AcDbPolyline
 90
50
 70
1
 10
292.06919999999997
 20
426.66184
 10
292.04949
 20
426.97517
 10
291.99066
 20
427.28356
 10
291.89364
 20
427.58215
 10
291.75996999999995
 20
427.86622
 10
291.59173999999996
 20
428.1313
 10
291.39162
 20
428.37321000000003
 10
291.16276
 20
428.58812
 10
290.90877
 20
428.77266000000003
 10
290.63365
 20
428.92391
 10
290.34173999999996
 20
429.03948
 10
290.03765
 20
429.11756
 10
289.72618
 20
429.15691
 10
289.41222
 20
429.15691
 10
289.10075
 20
429.11756
 10
288.79666
 20
429.03948
 10
288.50475
 20
428.92391
 10
288.22963
 20
428.77266000000003
 10
287.97564
 20
428.58812
 10
287.74678
 20
428.37321000000003
 10
287.54666
 20
428.1313
 10
287.37843
 20
427.86622
 10
287.24476
 20
427.58215
 10
287.14774
 20
427.28356
 10
287.08891
 20
426.97517
 10
287.06919999999997
 20
426.66184
 10
287.08891
 20
426.34851000000003
 10
287.14774
 20
426.04011
 10
287.24476
 20
425.74153
 10
287.37843
 20
425.45745
 10
287.54666
 20
425.19238
 10
287.74678
 20
424.95047
 10
287.97564
 20
424.73556
 10
288.22963
 20
424.55102
 10
288.50475
 20
424.39977
 10
288.79666
 20
424.2842
 10
289.10075
 20
424.20612
 10
289.41222
 20
424.16677
 10
289.72618
 20
424.16677
 10
290.03765
 20
424.20612
 10
290.34173999999996
 20
424.2842
 10
290.63365
 20
424.39977
 10
290.90877
 20
424.55102
 10
291.16276
 20
424.73556
 10
291.39162
 20
424.95047
 10
291.59173999999996
 20
425.19238
 10
291.75996999999995
 20
425.45745
 10
291.89364
 20
425.74153
 10
291.99066
 20
426.04011
 10
292.04949
 20
426.34851000000003
  0
TEXT
  5
5F
330
17
100
AcDbEntity
  8
LABEL_DO_NOT_CUT
100
AcDbText
 10
328.49111268159794
 20
425.945695
 30
0.0
 40
2.0
  1
A35_R
100
AcDbText
  0
LWPOLYLINE
  5
60
330
17
100
AcDbEntity
  8
CUT
100
AcDbPolyline
 90
158
 70
1
 10
469.26025
 20
381.15304000000003
 10
471.84189000000003
 20
380.57964000000004
 10
476.8914
 20
379.43016
 10
427.90422
 20
379.35016
 10
378.91706999999997
 20
379.25711
 10
370.14394
 20
379.23313
 10
363.06781
 20
379.22383
 10
359.23521
 20
379.23995
 10
355.0606
 20
379.28387000000004
 10
352.8423
 20
379.31897000000004
 10
350.58835
 20
379.36607000000004
 10
347.10579
 20
379.46405000000004
 10
345.07216
 20
379.5373
 10
343.11904
 20
379.6202
 10
341.27893
 20
379.71064
 10
339.57405
 20
379.80604
 10
336.59454999999997
 20
380.00149000000005
 10
334.58334
 20
380.15768
 10
332.56274
 20
380.33113000000003
 10
331.40292
 20
380.43872000000005
 10
330.26565999999997
 20
380.55802
 10
329.15132
 20
380.69401000000005
 10
328.06024
 20
380.85163
 10
327.03872
 20
381.03189000000003
 10
325.84775
 20
381.27043000000003
 10
324.65942
 20
381.52970000000005
 10
323.64582
 20
381.77214000000004
 10
323.21705
 20
381.88862
 10
322.99998
 20
381.95481
 10
323.22703
 20
382.16061
 10
323.36899
 20
382.28646000000003
 10
323.50687
 20
382.40676
 10
323.76489
 20
382.62713
 10
323.99019
 20
382.81449000000003
 10
324.17181
 20
382.96165
 10
324.36982
 20
383.11808
 10
324.57175
 20
383.27388
 10
324.77936
 20
383.42974000000004
 10
324.9944
 20
383.58637000000004
 10
325.2186
 20
383.74444
 10
325.33468
 20
383.82423
 10
325.51439
 20
383.94511
 10
325.70149
 20
384.06769
 10
325.96366
 20
384.23425000000003
 10
326.13803
 20
384.34187000000003
 10
326.31944
 20
384.45126000000005
 10
326.57283
 20
384.59984000000003
 10
326.77195
 20
384.71332
 10
326.97920999999997
 20
384.82854000000003
 10
327.20088
 20
384.94869
 10
327.43183
 20
385.07065
 10
327.67241
 20
385.19442000000004
 10
327.92298
 20
385.31998000000004
 10
328.18387
 20
385.44733
 10
328.45546
 20
385.57647000000003
 10
328.7381
 20
385.70737
 10
329.03213
 20
385.84003
 10
329.33792
 20
385.97444
 10
329.65581
 20
386.11059
 10
330.15613
 20
386.31807000000003
 10
330.50584
 20
386.45853
 10
330.86888999999996
 20
386.6007
 10
331.43923
 20
386.81713
 10
332.00671
 20
387.0249
 10
332.38027
 20
387.15586
 10
332.76135999999997
 20
387.28692
 10
333.11219
 20
387.40545000000003
 10
333.56601
 20
387.55584000000005
 10
333.94064
 20
387.67755
 10
334.32486
 20
387.80016
 10
334.71801
 20
387.92334
 10
335.1587
 20
388.05875000000003
 10
335.62154
 20
388.19800000000004
 10
335.97398
 20
388.30206000000004
 10
336.44992
 20
388.43991
 10
336.81059
 20
388.54239
 10
337.17374
 20
388.64387
 10
337.66062
 20
388.77731
 10
338.39312
 20
388.97252000000003
 10
338.88032
 20
389.09877
 10
339.36438
 20
389.22144000000003
 10
339.84332
 20
389.34014
 10
340.25659
 20
389.44047
 10
341.11697
 20
389.64321
 10
341.98327
 20
389.83916
 10
342.49909
 20
389.95204
 10
342.91363
 20
390.04085000000003
 10
343.75611
 20
390.21619000000004
 10
344.6163
 20
390.38825
 10
345.49401
 20
390.55675
 10
346.38904
 20
390.72139000000004
 10
347.3012
 20
390.88188
 10
348.23025
 20
391.03795
 10
349.17598
 20
391.18931000000003
 10
350.11674999999997
 20
391.33252000000005
 10
351.00608
 20
391.46127
 10
351.90869
 20
391.58548
 10
352.43302
 20
391.65467
 10
352.88259
 20
391.7121
 10
353.78513
 20
391.82221000000004
 10
354.68993
 20
391.92567
 10
355.59556
 20
392.02234000000004
 10
356.50059
 20
392.11213000000004
 10
357.34154
 20
392.18955
 10
358.29348
 20
392.27033
 10
359.23996
 20
392.34361
 10
360.17923
 20
392.4096
 10
361.1094
 20
392.46858000000003
 10
362.02851
 20
392.52086
 10
362.93458
 20
392.56684
 10
363.84224
 20
392.60761
 10
364.99273
 20
392.65213
 10
365.92467
 20
392.68267000000003
 10
367.10231
 20
392.71472
 10
368.05324
 20
392.73565
 10
369.25093
 20
392.75626
 10
370.45617
 20
392.77113
 10
371.66602
 20
392.78078000000005
 10
372.90242
 20
392.7858
 10
374.17385
 20
392.78650000000005
 10
374.17948
 20
386.00640000000004
 10
379.17948
 20
386.01055
 10
379.17389
 20
392.75551
 10
381.31347999999997
 20
392.72580000000005
 10
383.41901
 20
392.68533
 10
385.52058
 20
392.63269
 10
387.69479
 20
392.56465000000003
 10
389.69422
 20
392.48927000000003
 10
391.67724999999996
 20
392.40214000000003
 10
393.60393
 20
392.3056
 10
395.48098
 20
392.20028
 10
397.62588
 20
392.06600000000003
 10
399.82342
 20
391.91337000000004
 10
402.01332
 20
391.74658
 10
404.12718
 20
391.57224
 10
406.16325
 20
391.39243000000005
 10
408.25522
 20
391.19556
 10
410.39824999999996
 20
390.98165
 10
412.57555
 20
390.75216
 10
412.58083
 20
384.40618
 10
417.58082
 20
384.41033000000004
 10
417.57603
 20
390.18233000000004
 10
419.79338
 20
389.91112000000004
 10
422.04465
 20
389.62369
 10
424.26731
 20
389.32805
 10
426.41466
 20
389.0316
 10
430.2664
 20
388.47206
 10
434.15242
 20
387.87297
 10
437.60504
 20
387.31349
 10
441.18922
 20
386.70556000000005
 10
444.7698
 20
386.07248000000004
 10
448.21145
 20
385.44167000000004
 10
451.77463
 20
384.76552000000004
 10
455.33641
 20
384.06804
 10
458.80102
 20
383.3705
 10
462.34278
 20
382.63824
 10
464.77517
 20
382.12440000000004
 10
466.70347
 20
381.7106
  0
LWPOLYLINE
  5
61
330
17
100
AcDbEntity
  8
CUT
100
AcDbPolyline
 90
117
 70
1
 10
387.38701
 20
383.67806
 10
387.62969
 20
383.64206
 10
387.87473
 20
383.63002
 10
393.42999
 20
383.63002
 10
393.48206
 20
383.56756
 10
393.5227
 20
383.52160000000003
 10
393.56446
 20
383.47664000000003
 10
393.62914
 20
383.41117
 10
393.67358
 20
383.36886000000004
 10
393.74215
 20
383.30747
 10
393.837
 20
383.22963000000004
 10
393.91059
 20
383.17435
 10
393.96074999999996
 20
383.13902
 10
394.06361
 20
383.07210000000003
 10
394.11624
 20
383.04056
 10
394.19659
 20
382.99569
 10
394.30619
 20
382.94052
 10
394.41837
 20
382.89079000000004
 10
394.47533999999996
 20
382.86801
 10
394.56181
 20
382.83647
 10
394.67877999999996
 20
382.79942
 10
394.73792
 20
382.78305
 10
394.82732999999996
 20
382.76124000000004
 10
394.94768
 20
382.7373
 10
395.00826
 20
382.72755
 10
395.09952999999996
 20
382.71573
 10
395.16059
 20
382.70971000000003
 10
395.25241
 20
382.7035
 10
395.37508
 20
382.70049
 10
395.49775
 20
382.7035
 10
395.58957
 20
382.70971000000003
 10
395.65064
 20
382.71573
 10
395.71153
 20
382.72324000000003
 10
395.80249
 20
382.7373
 10
395.92283
 20
382.76124000000004
 10
396.01225
 20
382.78305
 10
396.07138
 20
382.79942
 10
396.18836
 20
382.83647
 10
396.27482
 20
382.86801
 10
396.33179
 20
382.89079000000004
 10
396.44397
 20
382.94052
 10
396.55357
 20
382.99569
 10
396.63392999999996
 20
383.04056
 10
396.68656
 20
383.07210000000003
 10
396.78941
 20
383.13902
 10
396.83958
 20
383.17435
 10
396.91316
 20
383.22963000000004
 10
397.00801
 20
383.30747
 10
397.07658
 20
383.36886000000004
 10
397.12102
 20
383.41117
 10
397.1857
 20
383.47664000000003
 10
397.22746
 20
383.52160000000003
 10
397.2681
 20
383.56756
 10
397.32018
 20
383.63002
 10
400.87473
 20
383.63002
 10
401.11977
 20
383.64206
 10
401.36246
 20
383.67806
 10
401.60044
 20
383.73767000000004
 10
401.83144
 20
383.82032000000004
 10
402.05322
 20
383.92522
 10
402.26365999999996
 20
384.05135
 10
402.46071
 20
384.19749
 10
402.6425
 20
384.36225
 10
402.80726
 20
384.54404
 10
402.95340999999996
 20
384.74109000000004
 10
403.07953
 20
384.95153000000005
 10
403.18443
 20
385.17331
 10
403.26707999999996
 20
385.40431
 10
403.32669
 20
385.64229
 10
403.36269
 20
385.88498000000004
 10
403.37473
 20
386.13002
 10
403.36269
 20
386.37506
 10
403.32669
 20
386.61774
 10
403.26707999999996
 20
386.85573
 10
403.18443
 20
387.08673000000005
 10
403.07953
 20
387.30851
 10
402.95340999999996
 20
387.51894000000004
 10
402.80726
 20
387.716
 10
402.6425
 20
387.89779000000004
 10
402.46071
 20
388.06255000000004
 10
402.26365999999996
 20
388.20869000000005
 10
402.05322
 20
388.33482000000004
 10
401.83144
 20
388.43972
 10
401.60044
 20
388.52237
 10
401.36246
 20
388.58198000000004
 10
401.11977
 20
388.61798000000005
 10
400.87473
 20
388.63002
 10
387.87473
 20
388.63002
 10
387.62969
 20
388.61798000000005
 10
387.38701
 20
388.58198000000004
 10
387.14902
 20
388.52237
 10
386.91802
 20
388.43972
 10
386.69624
 20
388.33482000000004
 10
386.48581
 20
388.20869000000005
 10
386.28875
 20
388.06255000000004
 10
386.10696
 20
387.89779000000004
 10
385.9422
 20
387.716
 10
385.79606
 20
387.51894000000004
 10
385.66993
 20
387.30851
 10
385.56503
 20
387.08673000000005
 10
385.48238
 20
386.85573
 10
385.42277
 20
386.61774
 10
385.38677
 20
386.37506
 10
385.37473
 20
386.13002
 10
385.38677
 20
385.88498000000004
 10
385.42277
 20
385.64229
 10
385.48238
 20
385.40431
 10
385.56503
 20
385.17331
 10
385.66993
 20
384.95153000000005
 10
385.79606
 20
384.74109000000004
 10
385.9422
 20
384.54404
 10
386.10696
 20
384.36225
 10
386.28875
 20
384.19749
 10
386.48581
 20
384.05135
 10
386.69624
 20
383.92522
 10
386.91802
 20
383.82032000000004
 10
387.14902
 20
383.73767000000004
  0
LWPOLYLINE
  5
62
330
17
100
AcDbEntity
  8
CUT
100
AcDbPolyline
 90
50
 70
1
 10
357.82905999999997
 20
385.76249
 10
357.80934
 20
386.07583
 10
357.75050999999996
 20
386.38422
 10
357.6535
 20
386.68280000000004
 10
357.51982
 20
386.96688
 10
357.35159999999996
 20
387.23196
 10
357.15148
 20
387.47386
 10
356.92262
 20
387.68878
 10
356.66862
 20
387.87331
 10
356.3935
 20
388.02456
 10
356.10159999999996
 20
388.14013
 10
355.79751
 20
388.21821
 10
355.48602999999997
 20
388.25756
 10
355.17208
 20
388.25756
 10
354.8606
 20
388.21821
 10
354.55651
 20
388.14013
 10
354.26461
 20
388.02456
 10
353.98949
 20
387.87331
 10
353.7355
 20
387.68878
 10
353.50663
 20
387.47386
 10
353.30651
 20
387.23196
 10
353.13829
 20
386.96688
 10
353.00461
 20
386.68280000000004
 10
352.9076
 20
386.38422
 10
352.84877
 20
386.07583
 10
352.82905999999997
 20
385.76249
 10
352.84877
 20
385.44916
 10
352.9076
 20
385.14077000000003
 10
353.00461
 20
384.84218000000004
 10
353.13829
 20
384.55811
 10
353.30651
 20
384.29303000000004
 10
353.50663
 20
384.05112
 10
353.7355
 20
383.83621
 10
353.98949
 20
383.65167
 10
354.26461
 20
383.50042
 10
354.55651
 20
383.38485000000003
 10
354.8606
 20
383.30677000000003
 10
355.17208
 20
383.26743000000005
 10
355.48602999999997
 20
383.26743000000005
 10
355.79751
 20
383.30677000000003
 10
356.10159999999996
 20
383.38485000000003
 10
356.3935
 20
383.50042
 10
356.66862
 20
383.65167
 10
356.92262
 20
383.83621
 10
357.15148
 20
384.05112
 10
357.35159999999996
 20
384.29303000000004
 10
357.51982
 20
384.55811
 10
357.6535
 20
384.84218000000004
 10
357.75050999999996
 20
385.14077000000003
 10
357.80934
 20
385.44916
  0
TEXT
  5
63
330
17
100
AcDbEntity
  8
LABEL_DO_NOT_CUT
100
AcDbText
 10
431.3985108361353
 20
385.99042000000003
 30
0.0
 40
2.0
  1
A24_L
100
AcDbText
  0
LWPOLYLINE
  5
64
330
17
100
AcDbEntity
  8
CUT
100
AcDbPolyline
 90
158
 70
1
 10
533.02987
 20
409.86240000000004
 10
531.10157
 20
409.44860000000006
 10
528.66918
 20
408.93476000000004
 10
525.12742
 20
408.20249000000007
 10
521.66281
 20
407.50496000000004
 10
518.10103
 20
406.80748000000006
 10
514.5378499999999
 20
406.13133000000005
 10
511.09619999999995
 20
405.50051
 10
507.51561999999996
 20
404.86744000000004
 10
503.93143999999995
 20
404.25950000000006
 10
500.47882
 20
403.70002000000005
 10
496.59279999999995
 20
403.10093000000006
 10
492.74105999999995
 20
402.54140000000007
 10
490.59371
 20
402.2449500000001
 10
488.37104999999997
 20
401.94931
 10
486.11978
 20
401.66188000000005
 10
483.90243
 20
401.39067000000006
 10
483.90721999999994
 20
407.16267000000005
 10
478.90722999999997
 20
407.16682000000003
 10
478.90194999999994
 20
400.82084000000003
 10
476.72465
 20
400.59135000000003
 10
474.58162
 20
400.37743000000006
 10
472.48965
 20
400.18057000000005
 10
470.45358
 20
400.00076000000007
 10
468.33971999999994
 20
399.82641000000007
 10
466.14982
 20
399.65963000000005
 10
463.95228
 20
399.50699000000003
 10
461.80737999999997
 20
399.3727200000001
 10
459.93032999999997
 20
399.26739000000003
 10
458.00365
 20
399.17086000000006
 10
456.02061999999995
 20
399.08372
 10
454.02119
 20
399.00835000000006
 10
451.84698
 20
398.94031000000007
 10
449.74541
 20
398.88767000000007
 10
447.63987999999995
 20
398.84720000000004
 10
445.50028999999995
 20
398.81749
 10
445.50588
 20
405.56244000000004
 10
440.50588
 20
405.56660000000005
 10
440.50025
 20
398.78650000000005
 10
439.22882
 20
398.78720000000004
 10
437.99242
 20
398.79222000000004
 10
436.78256999999996
 20
398.80187000000006
 10
435.57732999999996
 20
398.81674000000004
 10
434.37964
 20
398.8373500000001
 10
433.42870999999997
 20
398.85828000000004
 10
432.25106999999997
 20
398.89032000000003
 10
431.31913
 20
398.92087000000004
 10
430.16864
 20
398.96538000000004
 10
429.26097999999996
 20
399.00616
 10
428.35490999999996
 20
399.05213000000003
 10
427.4358
 20
399.10442000000006
 10
426.50563
 20
399.1634
 10
425.56636
 20
399.22939
 10
424.61987999999997
 20
399.30267000000003
 10
423.66794
 20
399.38345000000004
 10
422.82698999999997
 20
399.46087000000006
 10
421.92195999999996
 20
399.55066000000005
 10
421.01633
 20
399.64733000000007
 10
420.11152999999996
 20
399.75079000000005
 10
419.20899
 20
399.8609000000001
 10
418.75942
 20
399.91833
 10
418.23508999999996
 20
399.9875200000001
 10
417.33248
 20
400.11173
 10
416.44314999999995
 20
400.24048000000005
 10
415.50237999999996
 20
400.38368
 10
414.55665
 20
400.53505000000007
 10
413.6276
 20
400.69111000000004
 10
412.71543999999994
 20
400.85161000000005
 10
411.82041
 20
401.01625000000007
 10
410.94269999999995
 20
401.18475000000007
 10
410.08250999999996
 20
401.35681000000005
 10
409.24003
 20
401.53215000000006
 10
408.82548999999995
 20
401.62095000000005
 10
408.30967
 20
401.73384000000004
 10
407.44336999999996
 20
401.92979
 10
406.58299
 20
402.13253000000003
 10
406.16972
 20
402.2328600000001
 10
405.69077999999996
 20
402.35156000000006
 10
405.20671999999996
 20
402.47422000000006
 10
404.71952
 20
402.60048000000006
 10
403.98702
 20
402.79569000000004
 10
403.50014
 20
402.92912000000007
 10
403.13698999999997
 20
403.03061
 10
402.77632
 20
403.13308000000006
 10
402.30037999999996
 20
403.27094000000005
 10
401.94793999999996
 20
403.37499
 10
401.4851
 20
403.51425000000006
 10
401.04440999999997
 20
403.64966000000004
 10
400.65126
 20
403.77284000000003
 10
400.26703999999995
 20
403.89545000000004
 10
399.89241
 20
404.01716000000005
 10
399.43859
 20
404.16755000000006
 10
399.08775999999995
 20
404.28608
 10
398.70667
 20
404.41713000000004
 10
398.33311
 20
404.54809000000006
 10
397.76563
 20
404.7558700000001
 10
397.19529
 20
404.97229000000004
 10
396.83223999999996
 20
405.11447000000004
 10
396.48253
 20
405.25493000000006
 10
395.98220999999995
 20
405.46241000000003
 10
395.66432
 20
405.59856
 10
395.35853
 20
405.73297
 10
395.06449999999995
 20
405.86563000000007
 10
394.78186
 20
405.99653000000006
 10
394.51027
 20
406.12566000000004
 10
394.24938
 20
406.25302000000005
 10
393.99881
 20
406.37858000000006
 10
393.75822999999997
 20
406.50235000000004
 10
393.52727999999996
 20
406.62431000000004
 10
393.30560999999994
 20
406.74446000000006
 10
393.09835
 20
406.85968
 10
392.89923
 20
406.97316000000006
 10
392.64583999999996
 20
407.12174000000005
 10
392.46443
 20
407.23113000000006
 10
392.29006
 20
407.33875000000006
 10
392.02788999999996
 20
407.50531000000007
 10
391.84078999999997
 20
407.62789000000004
 10
391.66107999999997
 20
407.74877000000004
 10
391.54499999999996
 20
407.82856000000004
 10
391.32079999999996
 20
407.98663000000005
 10
391.10576
 20
408.14326000000005
 10
390.89815
 20
408.2991200000001
 10
390.69622
 20
408.4549200000001
 10
390.49821
 20
408.6113500000001
 10
390.31658999999996
 20
408.75851000000006
 10
390.09128999999996
 20
408.94587000000007
 10
389.83326999999997
 20
409.16623000000004
 10
389.69539
 20
409.28653
 10
389.55343
 20
409.41238000000004
 10
389.32638
 20
409.61819
 10
389.54344999999995
 20
409.68437000000006
 10
389.97222
 20
409.80085
 10
390.98582
 20
410.04329000000007
 10
392.17415
 20
410.30256
 10
393.36512
 20
410.54111000000006
 10
394.38664
 20
410.72137000000004
 10
395.47772
 20
410.87899000000004
 10
396.59205999999995
 20
411.01497000000006
 10
397.72932
 20
411.13428000000005
 10
398.88914
 20
411.24187000000006
 10
400.90974
 20
411.41531000000003
 10
402.92094999999995
 20
411.57150000000007
 10
405.90045
 20
411.76696000000004
 10
407.60533
 20
411.86235000000005
 10
409.44543999999996
 20
411.9528
 10
411.39856
 20
412.0357
 10
413.43219
 20
412.10895000000005
 10
416.91474999999997
 20
412.20693000000006
 10
419.16869999999994
 20
412.25403000000006
 10
421.38699999999994
 20
412.28913000000006
 10
425.56161
 20
412.33305000000007
 10
429.39421
 20
412.3491700000001
 10
436.47033999999996
 20
412.33986000000004
 10
445.24347
 20
412.31589
 10
494.23062
 20
412.22283000000004
 10
543.2178
 20
412.14284000000004
 10
538.16829
 20
410.99336000000005
 10
535.58665
 20
410.41996000000006
  0
LWPOLYLINE
  5
65
330
17
100
AcDbEntity
  8
CUT
100
AcDbPolyline
 90
117
 70
1
 10
453.47542
 20
407.83533000000006
 10
453.24442
 20
407.75268000000005
 10
453.02263999999997
 20
407.64778000000007
 10
452.81221
 20
407.52165
 10
452.61514999999997
 20
407.37550000000005
 10
452.43336
 20
407.21074000000004
 10
452.2686
 20
407.02896000000004
 10
452.12246
 20
406.8319
 10
451.99632999999994
 20
406.62147000000004
 10
451.89142999999996
 20
406.39969
 10
451.80877999999996
 20
406.16869
 10
451.74917
 20
405.93070000000006
 10
451.71317
 20
405.68802000000005
 10
451.70113
 20
405.44298000000003
 10
451.71317
 20
405.1979400000001
 10
451.74917
 20
404.95525000000004
 10
451.80877999999996
 20
404.71727000000004
 10
451.89142999999996
 20
404.48627000000005
 10
451.99632999999994
 20
404.26449
 10
452.12246
 20
404.0540500000001
 10
452.2686
 20
403.85699000000005
 10
452.43336
 20
403.67521000000005
 10
452.61514999999997
 20
403.51045000000005
 10
452.81221
 20
403.36430000000007
 10
453.02263999999997
 20
403.23817
 10
453.24442
 20
403.13328000000007
 10
453.47542
 20
403.05063000000007
 10
453.71340999999995
 20
402.9910100000001
 10
453.95608999999996
 20
402.95502000000005
 10
454.20113
 20
402.94298000000003
 10
467.20113
 20
402.94298000000003
 10
467.44616999999994
 20
402.95502000000005
 10
467.68886
 20
402.9910100000001
 10
467.92683999999997
 20
403.05063000000007
 10
468.15783999999996
 20
403.13328000000007
 10
468.37962
 20
403.23817
 10
468.59006
 20
403.36430000000007
 10
468.78711
 20
403.51045000000005
 10
468.96889999999996
 20
403.67521000000005
 10
469.13365999999996
 20
403.85699000000005
 10
469.27981
 20
404.0540500000001
 10
469.40592999999996
 20
404.26449
 10
469.51082999999994
 20
404.48627000000005
 10
469.59348
 20
404.71727000000004
 10
469.65308999999996
 20
404.95525000000004
 10
469.68908999999996
 20
405.1979400000001
 10
469.70113
 20
405.44298000000003
 10
469.68908999999996
 20
405.68802000000005
 10
469.65308999999996
 20
405.93070000000006
 10
469.59348
 20
406.16869
 10
469.51082999999994
 20
406.39969
 10
469.40592999999996
 20
406.62147000000004
 10
469.27981
 20
406.8319
 10
469.13365999999996
 20
407.02896000000004
 10
468.96889999999996
 20
407.21074000000004
 10
468.78711
 20
407.37550000000005
 10
468.59006
 20
407.52165
 10
468.37962
 20
407.64778000000007
 10
468.15783999999996
 20
407.75268000000005
 10
467.92683999999997
 20
407.83533000000006
 10
467.68886
 20
407.89494
 10
467.44616999999994
 20
407.93094
 10
467.20113
 20
407.94298000000003
 10
463.64658
 20
407.94298000000003
 10
463.5945
 20
408.00544
 10
463.55386
 20
408.05140000000006
 10
463.5121
 20
408.09636000000006
 10
463.44741999999997
 20
408.16183000000007
 10
463.40297999999996
 20
408.20414000000005
 10
463.33441
 20
408.26553000000007
 10
463.23956
 20
408.34337000000005
 10
463.16598
 20
408.39865000000003
 10
463.11580999999995
 20
408.43398
 10
463.01295999999996
 20
408.50089
 10
462.96033
 20
408.53244000000007
 10
462.87996999999996
 20
408.57731000000007
 10
462.77036999999996
 20
408.63248000000004
 10
462.65819
 20
408.6822
 10
462.60121999999996
 20
408.70499000000007
 10
462.51475999999997
 20
408.73652000000004
 10
462.39777999999995
 20
408.77358000000004
 10
462.33865
 20
408.78995000000003
 10
462.24922999999995
 20
408.81176000000005
 10
462.12888999999996
 20
408.83570000000003
 10
462.03792999999996
 20
408.84976000000006
 10
461.97704
 20
408.85727
 10
461.91596999999996
 20
408.86329000000006
 10
461.82415
 20
408.86949000000004
 10
461.70147999999995
 20
408.87250000000006
 10
461.57881
 20
408.86949000000004
 10
461.48699
 20
408.86329000000006
 10
461.42593
 20
408.85727
 10
461.33466
 20
408.84545
 10
461.27407999999997
 20
408.83570000000003
 10
461.15373
 20
408.81176000000005
 10
461.06431999999995
 20
408.78995000000003
 10
461.00518
 20
408.77358000000004
 10
460.88820999999996
 20
408.73652000000004
 10
460.80174
 20
408.70499000000007
 10
460.74476999999996
 20
408.6822
 10
460.63258999999994
 20
408.63248000000004
 10
460.52299
 20
408.57731000000007
 10
460.44264
 20
408.53244000000007
 10
460.39000999999996
 20
408.50089
 10
460.28715
 20
408.43398
 10
460.23699
 20
408.39865000000003
 10
460.16339999999997
 20
408.34337000000005
 10
460.06854999999996
 20
408.26553000000007
 10
459.99997999999994
 20
408.20414000000005
 10
459.95554
 20
408.16183000000007
 10
459.89086
 20
408.09636000000006
 10
459.84909999999996
 20
408.05140000000006
 10
459.80845999999997
 20
408.00544
 10
459.75638999999995
 20
407.94298000000003
 10
454.20113
 20
407.94298000000003
 10
453.95608999999996
 20
407.93094
 10
453.71340999999995
 20
407.89494
  0
LWPOLYLINE
  5
66
330
17
100
AcDbEntity
  8
CUT
100
AcDbPolyline
 90
50
 70
1
 10
424.15545999999995
 20
405.81050000000005
 10
424.13573999999994
 20
406.12384000000003
 10
424.07691
 20
406.43223000000006
 10
423.9799
 20
406.73082000000005
 10
423.84621999999996
 20
407.01489000000004
 10
423.678
 20
407.27997000000005
 10
423.47787999999997
 20
407.52187000000004
 10
423.24902
 20
407.73679000000004
 10
422.99501999999995
 20
407.92132000000004
 10
422.7199
 20
408.07257000000004
 10
422.428
 20
408.18815000000006
 10
422.12390999999997
 20
408.26622000000003
 10
421.81242999999995
 20
408.30557000000005
 10
421.49848
 20
408.30557000000005
 10
421.18699999999995
 20
408.26622000000003
 10
420.88291
 20
408.18815000000006
 10
420.59101
 20
408.07257000000004
 10
420.31588999999997
 20
407.92132000000004
 10
420.0619
 20
407.73679000000004
 10
419.83302999999995
 20
407.52187000000004
 10
419.63291
 20
407.27997000000005
 10
419.46468999999996
 20
407.01489000000004
 10
419.33101
 20
406.73082000000005
 10
419.234
 20
406.43223000000006
 10
419.17517
 20
406.12384000000003
 10
419.15545999999995
 20
405.81050000000005
 10
419.17517
 20
405.49717000000004
 10
419.234
 20
405.18878000000007
 10
419.33101
 20
404.8901900000001
 10
419.46468999999996
 20
404.60612000000003
 10
419.63291
 20
404.34104
 10
419.83302999999995
 20
404.09914000000003
 10
420.0619
 20
403.88422
 10
420.31588999999997
 20
403.69968000000006
 10
420.59101
 20
403.54844
 10
420.88291
 20
403.43286000000006
 10
421.18699999999995
 20
403.35479000000004
 10
421.49848
 20
403.31544
 10
421.81242999999995
 20
403.31544
 10
422.12390999999997
 20
403.35479000000004
 10
422.428
 20
403.43286000000006
 10
422.7199
 20
403.54844
 10
422.99501999999995
 20
403.69968000000006
 10
423.24902
 20
403.88422
 10
423.47787999999997
 20
404.09914000000003
 10
423.678
 20
404.34104
 10
423.84621999999996
 20
404.60612000000003
 10
423.9799
 20
404.8901900000001
 10
424.07691
 20
405.18878000000007
 10
424.13573999999994
 20
405.49717000000004
  0
TEXT
  5
67
330
17
100
AcDbEntity
  8
LABEL_DO_NOT_CUT
100
AcDbText
 10
497.724934566653
 20
405.58258
 30
0.0
 40
2.0
  1
A24_R
100
AcDbText
  0
LWPOLYLINE
  5
68
330
17
100
AcDbEntity
  8
CUT
100
AcDbPolyline
 90
4
 70
1
 10
389.32638
 20
418.3491700000001
 10
389.32638
 20
432.3491700000001
 10
509.32638
 20
432.3491700000001
 10
509.32638
 20
418.3491700000001
  0
TEXT
  5
69
330
17
100
AcDbEntity
  8
LABEL_DO_NOT_CUT
100
AcDbText
 10
449.32638
 20
425.3491700000001
 30
0.0
 40
2.0
  1
A62_DL
100
AcDbText
  0
LWPOLYLINE
  5
6A
330
17
100
AcDbEntity
  8
CUT
100
AcDbPolyline
 90
4
 70
1
 10
579.00002
 20
317.71677
 10
579.00002
 20
303.71677
 10
459.00002
 20
303.71677
 10
459.00002
 20
317.71677
  0
TEXT
  5
6B
330
17
100
AcDbEntity
  8
LABEL_DO_NOT_CUT
100
AcDbText
 10
519.00002
 20
310.71677
 30
0.0
 40
2.0
  1
A62_DR
100
AcDbText
  0
LWPOLYLINE
  5
6C
330
17
100
AcDbEntity
  8
CUT
100
AcDbPolyline
 90
195
 70
1
 10
539.6117399999999
 20
244.30887
 10
538.1778
 20
246.35675
 10
517.08211
 20
231.58539000000002
 10
511.66528
 20
243.9151
 10
511.66528
 20
250.94871
 10
549.6653
 20
276.94871
 10
554.6653
 20
276.94871
 10
592.6652799999999
 20
250.94871
 10
592.6652799999999
 20
243.9151
 10
587.24848
 20
231.58539000000002
 10
566.1528
 20
246.35675
 10
564.71886
 20
244.30887
 10
586.22311
 20
229.25143000000003
 10
584.685
 20
225.7504
 10
584.52817
 20
225.50124
 10
584.39652
 20
225.23791
 10
584.29132
 20
224.96294
 10
584.21357
 20
224.67899
 10
584.16403
 20
224.38878
 10
584.14317
 20
224.09512
 10
584.1512
 20
223.80082
 10
584.18803
 20
223.50873
 10
584.25332
 20
223.22165
 10
584.34643
 20
222.94236
 10
584.46647
 20
222.67353
 10
584.61228
 20
222.41777000000002
 10
584.78246
 20
222.17753
 10
584.97536
 20
221.95513
 10
585.18914
 20
221.75271
 10
585.42173
 20
221.57221
 10
590.09777
 20
218.29801
 10
590.26689
 20
218.16551
 10
590.42082
 20
218.01563000000002
 10
590.55779
 20
217.85011
 10
590.67621
 20
217.67085
 10
590.77472
 20
217.47992
 10
590.85218
 20
217.27952
 10
590.90769
 20
217.07197000000002
 10
590.94063
 20
216.85967
 10
590.9506
 20
216.64505
 10
590.93749
 20
216.43061
 10
590.90146
 20
216.21881000000002
 10
590.84291
 20
216.01209
 10
590.76253
 20
215.81285
 10
590.66124
 20
215.62338
 10
590.54021
 20
215.44587
 10
590.40084
 20
215.28236
 10
589.01877
 20
213.85304000000002
 10
587.61096
 20
212.44907
 10
585.89107
 20
204.54083
 10
585.04391
 20
200.57591000000002
 10
584.20148
 20
196.58134
 10
583.05264
 20
191.04296
 10
581.93446
 20
185.54375000000002
 10
580.8376
 20
180.03943
 10
579.75275
 20
174.48573000000002
 10
579.65207
 20
174.00115
 10
579.57468
 20
173.68754
 10
579.48106
 20
173.35268000000002
 10
579.36913
 20
172.9974
 10
579.2368
 20
172.62253
 10
579.082
 20
172.22892000000002
 10
578.90265
 20
171.81738
 10
578.69667
 20
171.38876000000002
 10
578.46198
 20
170.9439
 10
578.1809
 20
170.45813
 10
577.88863
 20
169.99618
 10
577.58794
 20
169.55806
 10
577.2816
 20
169.14375
 10
576.79356
 20
168.53988
 10
576.30998
 20
167.99448
 10
575.84153
 20
167.50761
 10
575.39894
 20
167.07934
 10
574.84439
 20
166.57941
 10
574.24681
 20
166.07977
 10
573.60497
 20
165.58233
 10
572.91764
 20
165.08899
 10
572.18359
 20
164.60166
 10
571.4015899999999
 20
164.12222
 10
570.57041
 20
163.65258
 10
569.68882
 20
163.19464000000002
 10
569.05778
 20
162.88954
 10
568.40227
 20
162.59142
 10
567.72193
 20
162.30086
 10
567.01638
 20
162.01841000000002
 10
566.09178
 20
161.67538000000002
 10
565.16045
 20
161.35913000000002
 10
564.22372
 20
161.06898
 10
563.28293
 20
160.80423000000002
 10
562.33942
 20
160.5642
 10
561.39454
 20
160.34820000000002
 10
560.44963
 20
160.15554
 10
559.50603
 20
159.98553
 10
558.56507
 20
159.83749
 10
557.62811
 20
159.71072
 10
556.69648
 20
159.60454000000001
 10
555.77153
 20
159.51826
 10
554.8546
 20
159.4512
 10
553.94702
 20
159.40265
 10
553.05014
 20
159.37194
 10
552.1653
 20
159.35837
 10
551.42765
 20
159.36852000000002
 10
550.68344
 20
159.39047000000002
 10
549.93334
 20
159.42451
 10
549.17806
 20
159.47097
 10
548.41829
 20
159.53017
 10
547.65472
 20
159.60241000000002
 10
546.88803
 20
159.68802
 10
546.11893
 20
159.78731000000002
 10
545.34811
 20
159.90059
 10
544.57625
 20
160.02817000000002
 10
543.8040599999999
 20
160.17039
 10
543.03221
 20
160.32754
 10
542.26141
 20
160.49994
 10
541.49235
 20
160.68792000000002
 10
540.72571
 20
160.89177
 10
539.9621999999999
 20
161.11183
 10
539.28611
 20
161.32146
 10
538.61109
 20
161.54516
 10
537.93817
 20
161.78315
 10
537.2684
 20
162.03564
 10
536.60284
 20
162.30282
 10
535.94252
 20
162.58491
 10
535.28848
 20
162.88212000000001
 10
534.64178
 20
163.19464000000002
 10
534.15125
 20
163.44463000000002
 10
533.66615
 20
163.70388
 10
533.18691
 20
163.97246
 10
532.71401
 20
164.25044
 10
532.2479
 20
164.53787
 10
531.78903
 20
164.83482
 10
531.33787
 20
165.14136000000002
 10
530.89487
 20
165.45754
 10
530.45239
 20
165.78939
 10
529.98774
 20
166.15683
 10
529.50653
 20
166.56048
 10
529.01439
 20
167.00098
 10
528.51694
 20
167.47894000000002
 10
528.01981
 20
167.99497
 10
527.52862
 20
168.5497
 10
527.049
 20
169.14375
 10
526.72003
 20
169.58993
 10
526.40224
 20
170.05683000000002
 10
526.1319
 20
170.48723
 10
525.87244
 20
170.93566
 10
525.62626
 20
171.40206
 10
525.39576
 20
171.88636
 10
525.18333
 20
172.38849000000002
 10
524.99139
 20
172.90838000000002
 10
524.82232
 20
173.44596
 10
524.67853
 20
174.00115
 10
524.57785
 20
174.48573000000002
 10
523.4929999999999
 20
180.03943
 10
522.39615
 20
185.54375000000002
 10
521.27796
 20
191.04296
 10
520.12912
 20
196.58134
 10
519.2867
 20
200.57591000000002
 10
518.43953
 20
204.54083
 10
516.71968
 20
212.44911000000002
 10
515.31183
 20
213.85304000000002
 10
513.9298
 20
215.2824
 10
513.79039
 20
215.44587
 10
513.66937
 20
215.62338
 10
513.56808
 20
215.81285
 10
513.48769
 20
216.01209
 10
513.42915
 20
216.21881000000002
 10
513.39311
 20
216.43061
 10
513.38
 20
216.64505
 10
513.38997
 20
216.85967
 10
513.42291
 20
217.07197000000002
 10
513.47843
 20
217.27952
 10
513.55589
 20
217.47992
 10
513.65439
 20
217.67085
 10
513.77282
 20
217.85011
 10
513.90978
 20
218.01563000000002
 10
514.06371
 20
218.16551
 10
514.23283
 20
218.29801
 10
518.90888
 20
221.57221
 10
519.14146
 20
221.75271
 10
519.35524
 20
221.95513
 10
519.54814
 20
222.17753
 10
519.71832
 20
222.41777000000002
 10
519.86413
 20
222.67353
 10
519.98417
 20
222.94236
 10
520.07728
 20
223.22165
 10
520.14257
 20
223.50873
 10
520.17941
 20
223.80082
 10
520.18743
 20
224.09512
 10
520.16658
 20
224.38878
 10
520.11704
 20
224.67899
 10
520.03929
 20
224.96294
 10
519.93408
 20
225.23791
 10
519.80243
 20
225.50124
 10
519.6456
 20
225.7504
 10
518.10749
 20
229.25143000000003
  0
LWPOLYLINE
  5
6D
330
17
100
AcDbEntity
  8
CUT
100
AcDbPolyline
 90
145
 70
1
 10
532.47276
 20
175.80394
 10
532.56196
 20
175.49505
 10
532.69428
 20
175.16319000000001
 10
532.87316
 20
174.80768
 10
533.10174
 20
174.4291
 10
533.39571
 20
174.01401
 10
533.63815
 20
173.71532000000002
 10
533.89775
 20
173.42435
 10
534.17099
 20
173.1424
 10
534.45435
 20
172.8708
 10
534.74432
 20
172.61084
 10
535.03738
 20
172.36384
 10
535.6187199999999
 20
171.91395
 10
536.20996
 20
171.50249
 10
536.8404
 20
171.10442
 10
537.50679
 20
170.72184000000001
 10
538.20983
 20
170.35489
 10
538.6830199999999
 20
170.12634
 10
539.16813
 20
169.90613000000002
 10
539.6639
 20
169.69453000000001
 10
540.16907
 20
169.49181000000002
 10
540.68238
 20
169.29824000000002
 10
541.20259
 20
169.11409
 10
541.72842
 20
168.93964
 10
542.25864
 20
168.77515
 10
542.85798
 20
168.60257000000001
 10
543.46384
 20
168.44184
 10
544.07538
 20
168.29281
 10
544.69179
 20
168.15534
 10
545.31223
 20
168.02931
 10
545.93586
 20
167.91458
 10
546.56186
 20
167.81101
 10
547.1894
 20
167.71846
 10
547.81764
 20
167.63679000000002
 10
548.44576
 20
167.56588
 10
549.07292
 20
167.50558
 10
549.69829
 20
167.45576
 10
550.32105
 20
167.41628
 10
550.94035
 20
167.38701
 10
552.1653
 20
167.35854
 10
552.89741
 20
167.37098
 10
553.63879
 20
167.39809
 10
554.3879
 20
167.44015000000002
 10
555.1432
 20
167.49745000000001
 10
555.90314
 20
167.57028
 10
556.66617
 20
167.65892
 10
557.43076
 20
167.76366000000002
 10
558.19535
 20
167.88479
 10
558.9584
 20
168.02259
 10
559.71836
 20
168.17737
 10
560.4737
 20
168.34939
 10
561.22286
 20
168.53895
 10
561.9643
 20
168.74634
 10
562.69648
 20
168.97185000000002
 10
563.41785
 20
169.21575
 10
564.12686
 20
169.47835
 10
564.66412
 20
169.69341
 10
565.17513
 20
169.91164
 10
565.66049
 20
170.13235
 10
566.12471
 20
170.35685
 10
566.75806
 20
170.68564
 10
567.34238
 20
171.01546000000002
 10
567.87969
 20
171.34458
 10
568.372
 20
171.67128
 10
568.8213
 20
171.99382
 10
569.22961
 20
172.31048
 10
569.59892
 20
172.61953
 10
569.93124
 20
172.91923
 10
570.18199
 20
173.16205000000002
 10
570.43713
 20
173.42729
 10
570.69025
 20
173.7122
 10
570.9349
 20
174.01402000000002
 10
571.21296
 20
174.4049
 10
571.45714
 20
174.80813
 10
571.62952
 20
175.14484000000002
 10
571.74241
 20
175.41225
 10
571.81276
 20
175.62624
 10
571.85756
 20
175.80271000000002
 10
571.88951
 20
175.95938
 10
572.98888
 20
181.58783
 10
574.09177
 20
187.12242
 10
575.21622
 20
192.65244
 10
576.37141
 20
198.22145
 10
577.21832
 20
202.23731
 10
578.06979
 20
206.22238000000002
 10
579.79745
 20
214.16656
 10
580.1068
 20
215.57393000000002
 10
579.65384
 20
215.97234
 10
579.2234
 20
216.39498
 10
578.81678
 20
216.84058000000002
 10
578.43519
 20
217.30780000000001
 10
578.0798
 20
217.79523
 10
577.75166
 20
218.30142
 10
577.45176
 20
218.82483000000002
 10
577.181
 20
219.3639
 10
559.07239
 20
231.36946
 10
558.68664
 20
231.61517
 10
558.2921699999999
 20
231.84659
 10
557.88949
 20
232.06343
 10
557.47914
 20
232.2654
 10
557.06169
 20
232.45222
 10
556.63768
 20
232.62364000000002
 10
556.20768
 20
232.77944000000002
 10
555.77227
 20
232.9194
 10
555.33203
 20
233.04334
 10
554.88755
 20
233.15109
 10
554.43943
 20
233.24251
 10
553.9882699999999
 20
233.31748
 10
553.53466
 20
233.37589000000003
 10
553.07922
 20
233.41767
 10
552.62256
 20
233.44275
 10
552.1652799999999
 20
233.45112
 10
551.70801
 20
233.44275
 10
551.25134
 20
233.41767
 10
550.7959
 20
233.37589000000003
 10
550.3423
 20
233.31748
 10
549.89113
 20
233.24251
 10
549.44301
 20
233.15109
 10
548.99853
 20
233.04334
 10
548.5582899999999
 20
232.9194
 10
548.12288
 20
232.77943
 10
547.69288
 20
232.62364000000002
 10
547.26887
 20
232.45222
 10
546.85142
 20
232.2654
 10
546.44107
 20
232.06343
 10
546.0384
 20
231.84659
 10
545.64392
 20
231.61516
 10
545.25817
 20
231.36946
 10
527.1496099999999
 20
219.36391
 10
526.8788499999999
 20
218.82484
 10
526.57895
 20
218.30143
 10
526.25081
 20
217.79524
 10
525.89541
 20
217.30780000000001
 10
525.51383
 20
216.84058000000002
 10
525.10721
 20
216.39498
 10
524.67677
 20
215.97234
 10
524.22381
 20
215.57393000000002
 10
524.53315
 20
214.16656
 10
526.26081
 20
206.22238000000002
 10
527.1122799999999
 20
202.23731
 10
527.95919
 20
198.22145
 10
529.11438
 20
192.65244
 10
530.23883
 20
187.12242
 10
531.34172
 20
181.58783
 10
532.44109
 20
175.95939
  0
TEXT
  5
6E
330
17
100
AcDbEntity
  8
LABEL_DO_NOT_CUT
100
AcDbText
 10
520.2145020166834
 20
218.09057
 30
0.0
 40
2.0
  1
A18
100
AcDbText
  0
LWPOLYLINE
  5
6F
330
17
100
AcDbEntity
  8
CUT
100
AcDbPolyline
 90
218
 70
1
 10
526.86837
 20
336.95853999999997
 10
526.86907
 20
336.11278
 10
525.86907
 20
336.11195
 10
525.87534
 20
328.55792
 10
531.87534
 20
328.56291
 10
531.86881
 20
336.42184
 10
534.8044600000001
 20
336.07201
 10
537.65395
 20
335.70838
 10
540.57921
 20
335.3088
 10
543.52789
 20
334.88039
 10
546.15765
 20
334.47906
 10
548.88066
 20
334.04258
 10
551.59889
 20
333.58793
 10
554.21899
 20
333.13401
 10
556.92661
 20
332.64696
 10
559.63193
 20
332.14429
 10
562.2704
 20
331.6404
 10
564.9616100000001
 20
331.1116
 10
566.80976
 20
330.74029
 10
568.2768100000001
 20
330.44093
 10
572.1818000000001
 20
329.62274
 10
576.02561
 20
328.78938999999997
 10
538.27629
 20
328.72199
 10
533.3306
 20
323.76339
 10
533.33061
 20
323.75475
 10
521.57934
 20
323.74499
 10
521.56912
 20
336.04951
 10
498.76913
 20
336.03057
 10
498.77935
 20
323.72605
 10
487.60266
 20
323.71677
 10
482.50142
 20
328.68765
 10
479.99219
 20
328.7344
 10
477.37742000000003
 20
328.80367
 10
474.37299
 20
328.91379
 10
471.66771
 20
329.04528
 10
469.34559
 20
329.18477
 10
467.8302
 20
329.29475
 10
466.30884000000003
 20
329.41678
 10
464.54453
 20
329.57728
 10
463.68557
 20
329.67314
 10
462.84248
 20
329.78392
 10
462.06553
 20
329.90958
 10
461.17343
 20
330.07502
 10
460.28324
 20
330.2547
 10
459.51199
 20
330.42307
 10
459.17539
 20
330.50426
 10
459.00002
 20
330.55052
 10
459.17387
 20
330.69468
 10
459.58894
 20
331.02248
 10
459.91504000000003
 20
331.26036
 10
460.59934
 20
331.71076
 10
460.97438
 20
331.93968
 10
461.384
 20
332.17609
 10
462.18099
 20
332.60049
 10
462.90489
 20
332.94988
 10
463.74132000000003
 20
333.31836
 10
464.70569
 20
333.70553
 10
465.8148
 20
334.11151
 10
466.13164
 20
334.21819
 10
467.07296
 20
334.51754999999997
 10
467.60357
 20
334.67736
 10
467.54217
 20
334.58968
 10
467.49246
 20
334.51223
 10
467.43067
 20
334.40622
 10
467.38778
 20
334.32479
 10
467.34792
 20
334.24183
 10
467.31115
 20
334.15747
 10
467.26698
 20
334.04298
 10
467.23758
 20
333.95577
 10
467.2114
 20
333.86754
 10
467.18849
 20
333.7784
 10
467.16888
 20
333.68847999999997
 10
467.1479
 20
333.56758
 10
467.13288
 20
333.4458
 10
467.12555000000003
 20
333.35406
 10
467.1216
 20
333.26211
 10
467.12103
 20
333.17008
 10
467.12386
 20
333.07809
 10
467.13288
 20
332.95571
 10
467.1479
 20
332.83393
 10
467.16308
 20
332.74316
 10
467.18159
 20
332.653
 10
467.2114
 20
332.53398
 10
467.23758
 20
332.44574
 10
467.26698
 20
332.35853
 10
467.29958
 20
332.27246
 10
467.33532
 20
332.18765
 10
467.37416
 20
332.10422
 10
467.43067
 20
331.9953
 10
467.47652
 20
331.9155
 10
467.54217
 20
331.81183
 10
467.5947
 20
331.73626
 10
467.64998
 20
331.66268
 10
467.70793000000003
 20
331.59118
 10
467.748
 20
331.54472
 10
467.81023
 20
331.47691
 10
467.8749
 20
331.41143
 10
467.94195
 20
331.34838
 10
468.01127
 20
331.28784
 10
468.08276
 20
331.22989
 10
468.1316
 20
331.19274
 10
468.20651
 20
331.13928
 10
468.28335
 20
331.08862
 10
468.362
 20
331.04082999999997
 10
468.41538
 20
331.01058
 10
468.49682
 20
330.9677
 10
468.55196
 20
330.94078
 10
468.63586
 20
330.90297
 10
468.72111
 20
330.86827999999997
 10
468.77862
 20
330.8469
 10
468.86583
 20
330.81749
 10
468.95406
 20
330.79132
 10
469.0432
 20
330.76841
 10
469.13312
 20
330.74879
 10
469.2237
 20
330.7325
 10
469.31482
 20
330.71956
 10
469.3758
 20
330.7128
 10
469.46754
 20
330.70546
 10
469.52883
 20
330.70245
 10
469.62084
 20
330.70076
 10
469.71286
 20
330.70245
 10
469.77415
 20
330.70546
 10
469.86589
 20
330.7128
 10
469.95730000000003
 20
330.7235
 10
470.04825
 20
330.73756
 10
470.1686
 20
330.7615
 10
470.25801
 20
330.78332
 10
470.37586
 20
330.81749
 10
470.46307
 20
330.8469
 10
470.54914
 20
330.87949
 10
470.63395
 20
330.91523
 10
470.71738
 20
330.95407
 10
470.8263
 20
331.01058
 10
470.9061
 20
331.05644
 10
471.00977
 20
331.12208
 10
471.08534000000003
 20
331.17461
 10
471.15892
 20
331.22989
 10
471.23042
 20
331.28784
 10
471.29974
 20
331.34838
 10
471.36678
 20
331.41143
 10
471.45248
 20
331.49925
 10
471.51387
 20
331.56783
 10
471.59171000000003
 20
331.66268
 10
471.64699
 20
331.73626
 10
471.69952
 20
331.81183
 10
471.76517
 20
331.9155
 10
471.81102
 20
331.9953
 10
471.8539
 20
332.07673
 10
471.89376
 20
332.15968
 10
471.94211
 20
332.27246
 10
471.9747
 20
332.35853
 10
472.00411
 20
332.44574
 10
472.03028
 20
332.53398
 10
472.05319000000003
 20
332.62311
 10
472.07281
 20
332.71303
 10
472.09379
 20
332.83393
 10
472.10561
 20
332.9252
 10
472.11614000000003
 20
333.04746
 10
472.12009
 20
333.1394
 10
472.12066
 20
333.23144
 10
472.11783
 20
333.32343
 10
472.11163
 20
333.41525
 10
472.10204
 20
333.50678
 10
472.08910000000003
 20
333.5979
 10
472.06664
 20
333.71854
 10
472.04592
 20
333.80821
 10
472.02192
 20
333.89706
 10
471.99466
 20
333.98496
 10
471.95333
 20
334.10049
 10
471.91863
 20
334.18574
 10
471.88082
 20
334.26964
 10
471.82565
 20
334.37925
 10
471.78078
 20
334.4596
 10
471.71641
 20
334.56407
 10
471.66481
 20
334.64028
 10
471.61044
 20
334.71452999999997
 10
471.55337000000003
 20
334.78674
 10
471.49368
 20
334.8568
 10
471.43146
 20
334.92461
 10
471.36678
 20
334.99008
 10
471.27688
 20
335.0736
 10
471.20683
 20
335.13328
 10
471.13462
 20
335.19035
 10
471.06036
 20
335.24472
 10
470.95834
 20
335.31289
 10
470.85309
 20
335.37597
 10
470.77219
 20
335.41985999999997
 10
470.68973
 20
335.46073
 10
470.59427
 20
335.50341
 10
470.99150000000003
 20
335.60602
 10
472.43769000000003
 20
335.94819
 10
473.77179
 20
336.23716
 10
475.05743
 20
336.49405
 10
476.39174
 20
336.74074
 10
477.77320000000003
 20
336.97557
 10
479.20017
 20
337.19696
 10
480.26676
 20
337.34881
 10
481.35621000000003
 20
337.4922
 10
483.18416
 20
337.70436
 10
485.01443
 20
337.8818
 10
486.75624
 20
338.01944
 10
488.46738
 20
338.12697
 10
488.47527
 20
328.63079
 10
493.47527
 20
328.63495
 10
493.46725000000004
 20
338.30899
 10
494.95336
 20
338.33278
 10
496.44811
 20
338.3462
 10
499.13781
 20
338.34955
 10
501.41427
 20
338.33699
 10
503.70179
 20
338.30957
 10
505.94391
 20
338.26649
 10
508.24451
 20
338.20361
 10
511.26287
 20
338.09075
 10
514.15707
 20
337.94993999999997
 10
515.74825
 20
337.85831
 10
517.37424
 20
337.75428
 10
520.5749500000001
 20
337.52081
 10
523.6651400000001
 20
337.26188
  0
LWPOLYLINE
  5
70
330
17
100
AcDbEntity
  8
CUT
100
AcDbPolyline
 90
32
 70
1
 10
525.17423
 20
329.90167
 10
525.15501
 20
330.09676
 10
525.09811
 20
330.28435
 10
525.0057
 20
330.45724
 10
524.88133
 20
330.60877
 10
524.7298000000001
 20
330.73314
 10
524.55691
 20
330.82555
 10
524.36932
 20
330.88245
 10
524.17423
 20
330.90167
 10
523.97914
 20
330.88245
 10
523.79154
 20
330.82555
 10
523.61866
 20
330.73314
 10
523.46712
 20
330.60877
 10
523.34276
 20
330.45724
 10
523.25035
 20
330.28435
 10
523.19344
 20
330.09676
 10
523.17423
 20
329.90167
 10
523.19344
 20
329.70658
 10
523.25035
 20
329.51898
 10
523.34276
 20
329.3461
 10
523.46712
 20
329.19456
 10
523.61866
 20
329.0702
 10
523.79154
 20
328.97778999999997
 10
523.97914
 20
328.92088
 10
524.17423
 20
328.90167
 10
524.36932
 20
328.92088
 10
524.55691
 20
328.97778999999997
 10
524.7298000000001
 20
329.0702
 10
524.88133
 20
329.19456
 10
525.0057
 20
329.3461
 10
525.09811
 20
329.51898
 10
525.15501
 20
329.70658
  0
LWPOLYLINE
  5
71
330
17
100
AcDbEntity
  8
CUT
100
AcDbPolyline
 90
32
 70
1
 10
497.17424
 20
329.87841
 10
497.15502000000004
 20
330.0735
 10
497.09812
 20
330.2611
 10
497.00571
 20
330.43398
 10
496.88134
 20
330.58552
 10
496.72981
 20
330.70988
 10
496.55692
 20
330.80228999999997
 10
496.36933
 20
330.8592
 10
496.17424
 20
330.87841
 10
495.97915
 20
330.8592
 10
495.79155000000003
 20
330.80228999999997
 10
495.61867
 20
330.70988
 10
495.46713
 20
330.58552
 10
495.34277000000003
 20
330.43398
 10
495.25036
 20
330.2611
 10
495.19345
 20
330.0735
 10
495.17424
 20
329.87841
 10
495.19345
 20
329.68332
 10
495.25036
 20
329.49573
 10
495.34277000000003
 20
329.32284
 10
495.46713
 20
329.1713
 10
495.61867
 20
329.04694
 10
495.79155000000003
 20
328.95453
 10
495.97915
 20
328.89763
 10
496.17424
 20
328.87841
 10
496.36933
 20
328.89763
 10
496.55692
 20
328.95453
 10
496.72981
 20
329.04694
 10
496.88134
 20
329.1713
 10
497.00571
 20
329.32284
 10
497.09812
 20
329.49573
 10
497.15502000000004
 20
329.68332
  0
LWPOLYLINE
  5
72
330
17
100
AcDbEntity
  8
CUT
100
AcDbPolyline
 90
64
 70
1
 10
549.42948
 20
330.13956
 10
549.56225
 20
330.07599
 10
549.70062
 20
330.02575
 10
549.84324
 20
329.98932
 10
549.98875
 20
329.96704
 10
550.13574
 20
329.95914
 10
550.2828
 20
329.96569
 10
550.42851
 20
329.98662
 10
550.57147
 20
330.02174
 10
550.7103
 20
330.07071
 10
550.84367
 20
330.13305
 10
550.97029
 20
330.20816
 10
551.08893
 20
330.29533
 10
551.19847
 20
330.39371
 10
551.29784
 20
330.50235
 10
551.38608
 20
330.62021
 10
551.46236
 20
330.74615
 10
551.52592
 20
330.87897
 10
551.57617
 20
331.01736999999997
 10
551.61261
 20
331.16004
 10
551.63489
 20
331.30558
 10
551.64281
 20
331.45261
 10
551.6362799999999
 20
331.59971
 10
551.61536
 20
331.74545
 10
551.58027
 20
331.88845
 10
551.53133
 20
332.02731
 10
551.46902
 20
332.1607
 10
551.39394
 20
332.28734
 10
551.30681
 20
332.40601
 10
551.2084600000001
 20
332.51556
 10
551.09986
 20
332.61495
 10
550.98204
 20
332.7032
 10
550.85614
 20
332.77948
 10
550.72336
 20
332.84305
 10
550.585
 20
332.89329
 10
550.44237
 20
332.92972
 10
550.29687
 20
332.952
 10
550.14987
 20
332.9599
 10
550.00281
 20
332.95335
 10
549.8571
 20
332.93242
 10
549.71414
 20
332.8973
 10
549.57531
 20
332.84833
 10
549.44195
 20
332.78598999999997
 10
549.31533
 20
332.71088
 10
549.19668
 20
332.62371
 10
549.08714
 20
332.52533
 10
548.98778
 20
332.41669
 10
548.89953
 20
332.29883
 10
548.82326
 20
332.17289
 10
548.75969
 20
332.04007
 10
548.7094500000001
 20
331.90167
 10
548.67301
 20
331.75901
 10
548.65072
 20
331.61346
 10
548.64281
 20
331.46643
 10
548.64934
 20
331.31933
 10
548.67025
 20
331.17359
 10
548.70535
 20
331.03059
 10
548.75428
 20
330.89173
 10
548.81659
 20
330.75834
 10
548.89168
 20
330.6317
 10
548.9788100000001
 20
330.51303
 10
549.07715
 20
330.40348
 10
549.18575
 20
330.30409
 10
549.30358
 20
330.21584
  0
TEXT
  5
73
330
17
100
AcDbEntity
  8
LABEL_DO_NOT_CUT
100
AcDbText
 10
479.6716500099422
 20
331.03571
 30
0.0
 40
2.0
  1
A44_L
100
AcDbText
  0
LWPOLYLINE
  5
74
330
17
100
AcDbEntity
  8
CUT
100
AcDbPolyline
 90
218
 70
1
 10
514.66512
 20
345.43721000000005
 10
511.57493
 20
345.17829
 10
508.37422
 20
344.94482000000005
 10
506.74823
 20
344.84079
 10
505.15705
 20
344.74916
 10
502.26285
 20
344.60835000000003
 10
499.24449
 20
344.49549
 10
496.94389
 20
344.43261
 10
494.70177
 20
344.38953000000004
 10
492.41425
 20
344.3621
 10
490.13779
 20
344.34955
 10
487.44809
 20
344.35290000000003
 10
485.95334
 20
344.36632000000003
 10
484.46723
 20
344.3901
 10
484.47525
 20
354.06415000000004
 10
479.47525
 20
354.0683
 10
479.46736
 20
344.57213
 10
477.75622
 20
344.67966
 10
476.01441
 20
344.81730000000005
 10
474.18414
 20
344.99474000000004
 10
472.35619
 20
345.2069
 10
471.26674
 20
345.35029000000003
 10
470.20015
 20
345.50214
 10
468.77318
 20
345.72353000000004
 10
467.39172
 20
345.95836
 10
466.05741
 20
346.20504
 10
464.77177
 20
346.46194
 10
463.43767
 20
346.7509
 10
461.99148
 20
347.09308000000004
 10
461.59425
 20
347.19569
 10
461.68971
 20
347.23837000000003
 10
461.77217
 20
347.27924
 10
461.85307
 20
347.32312
 10
461.95832
 20
347.38621
 10
462.06034
 20
347.45438
 10
462.1346
 20
347.50875
 10
462.20681
 20
347.56581
 10
462.27686
 20
347.62550000000005
 10
462.36676
 20
347.70901000000003
 10
462.43144
 20
347.77449
 10
462.49366
 20
347.8423
 10
462.55335
 20
347.91236000000004
 10
462.61042
 20
347.98456000000004
 10
462.66479
 20
348.05882
 10
462.71639
 20
348.13503000000003
 10
462.78076
 20
348.23949000000005
 10
462.82563
 20
348.31985000000003
 10
462.8808
 20
348.42945000000003
 10
462.91861
 20
348.51336000000003
 10
462.95331
 20
348.59860000000003
 10
462.99464
 20
348.71414000000004
 10
463.0219
 20
348.80204000000003
 10
463.0459
 20
348.89089
 10
463.06662
 20
348.98056
 10
463.08908
 20
349.1012
 10
463.10202
 20
349.19231
 10
463.11161
 20
349.28385000000003
 10
463.11781
 20
349.37567
 10
463.12064
 20
349.46766
 10
463.12007
 20
349.55969000000005
 10
463.11612
 20
349.65164000000004
 10
463.10559
 20
349.7739
 10
463.09377
 20
349.86517000000003
 10
463.07279
 20
349.98607000000004
 10
463.05317
 20
350.07599000000005
 10
463.03026
 20
350.16512
 10
463.00409
 20
350.25336000000004
 10
462.97468
 20
350.34057
 10
462.94209
 20
350.42663000000005
 10
462.89374
 20
350.53941000000003
 10
462.85388
 20
350.62237000000005
 10
462.811
 20
350.7038
 10
462.76515
 20
350.78360000000004
 10
462.6995
 20
350.88727
 10
462.64697
 20
350.96284
 10
462.59168999999997
 20
351.03642
 10
462.51385
 20
351.13127000000003
 10
462.45246
 20
351.19984
 10
462.36676
 20
351.28767000000005
 10
462.29972
 20
351.35072
 10
462.2304
 20
351.41126
 10
462.1589
 20
351.46921000000003
 10
462.08532
 20
351.52448000000004
 10
462.00975
 20
351.57701000000003
 10
461.90608
 20
351.64266000000003
 10
461.82628
 20
351.68852000000004
 10
461.71736
 20
351.74503000000004
 10
461.63393
 20
351.78386
 10
461.54912
 20
351.81961
 10
461.46305
 20
351.85220000000004
 10
461.37584
 20
351.88161
 10
461.25799
 20
351.91578000000004
 10
461.16858
 20
351.93760000000003
 10
461.04823
 20
351.96153000000004
 10
460.95728
 20
351.97560000000004
 10
460.86587
 20
351.9863
 10
460.77413
 20
351.99364
 10
460.71284
 20
351.99665000000005
 10
460.62082
 20
351.99834000000004
 10
460.52881
 20
351.99665000000005
 10
460.46752
 20
351.99364
 10
460.37578
 20
351.9863
 10
460.3148
 20
351.97954000000004
 10
460.22368
 20
351.96659
 10
460.1331
 20
351.9503
 10
460.04318
 20
351.93069
 10
459.95404
 20
351.90778
 10
459.86581
 20
351.88161
 10
459.7786
 20
351.85220000000004
 10
459.72109
 20
351.83082
 10
459.63584
 20
351.79613
 10
459.55194
 20
351.75831
 10
459.4968
 20
351.7314
 10
459.41536
 20
351.68852000000004
 10
459.36198
 20
351.65827
 10
459.28333
 20
351.61047
 10
459.20649
 20
351.55981
 10
459.13158
 20
351.50636000000003
 10
459.08274
 20
351.46921000000003
 10
459.01125
 20
351.41126
 10
458.94193
 20
351.35072
 10
458.87488
 20
351.28767000000005
 10
458.81021
 20
351.22219
 10
458.74798
 20
351.15438
 10
458.70791
 20
351.10792000000004
 10
458.64996
 20
351.03642
 10
458.59468
 20
350.96284
 10
458.54215
 20
350.88727
 10
458.4765
 20
350.78360000000004
 10
458.43065
 20
350.7038
 10
458.37414
 20
350.59488000000005
 10
458.3353
 20
350.51144
 10
458.29956
 20
350.42663000000005
 10
458.26696
 20
350.34057
 10
458.23756
 20
350.25336000000004
 10
458.21138
 20
350.16512
 10
458.18157
 20
350.04609000000005
 10
458.16306
 20
349.95594
 10
458.14788
 20
349.86517000000003
 10
458.13286
 20
349.74338
 10
458.12384
 20
349.62101
 10
458.12101
 20
349.52902
 10
458.12158
 20
349.43699000000004
 10
458.12553
 20
349.34504000000004
 10
458.13286
 20
349.2533
 10
458.14788
 20
349.13151000000005
 10
458.16886
 20
349.01061000000004
 10
458.18847
 20
348.9207
 10
458.21138
 20
348.83156
 10
458.23756
 20
348.74333
 10
458.26696
 20
348.65612000000004
 10
458.31113
 20
348.54163
 10
458.3479
 20
348.45727
 10
458.38776
 20
348.37431000000004
 10
458.43065
 20
348.29288
 10
458.49244
 20
348.18687
 10
458.54215
 20
348.10941
 10
458.60355
 20
348.02173000000005
 10
458.07294
 20
348.18155
 10
457.13162
 20
348.48091
 10
456.81478
 20
348.58759000000003
 10
455.70567
 20
348.99357000000003
 10
454.7413
 20
349.38074
 10
453.90487
 20
349.74922000000004
 10
453.18097
 20
350.09861
 10
452.38398
 20
350.52301
 10
451.97436
 20
350.75942000000003
 10
451.59932
 20
350.98834
 10
450.91502
 20
351.43874
 10
450.58892
 20
351.67662
 10
450.17385
 20
352.00442000000004
 10
450.0
 20
352.14858000000004
 10
450.17537
 20
352.19483
 10
450.51197
 20
352.27603000000005
 10
451.28322000000003
 20
352.44440000000003
 10
452.17341
 20
352.62407
 10
453.06551
 20
352.78952000000004
 10
453.84246
 20
352.91518
 10
454.68555
 20
353.02596
 10
455.54451
 20
353.12182
 10
457.30882
 20
353.28232
 10
458.83018
 20
353.40435
 10
460.34557
 20
353.51433000000003
 10
462.66769
 20
353.65382
 10
465.37297
 20
353.78531000000004
 10
468.3774
 20
353.89543000000003
 10
470.99217
 20
353.96469
 10
473.5014
 20
354.01145
 10
478.60264
 20
358.98233000000005
 10
489.77933
 20
358.97305
 10
489.76911
 20
346.66853000000003
 10
512.5691
 20
346.64959000000005
 10
512.57932
 20
358.95411
 10
524.33059
 20
358.94435000000004
 10
524.33058
 20
358.93571000000003
 10
529.27627
 20
353.97711000000004
 10
567.02559
 20
353.90971
 10
563.18178
 20
353.07635000000005
 10
559.27679
 20
352.25817
 10
557.80974
 20
351.95881
 10
555.96159
 20
351.58749
 10
553.27038
 20
351.05870000000004
 10
550.6319100000001
 20
350.55481000000003
 10
547.92659
 20
350.05214
 10
545.21897
 20
349.56508
 10
542.59887
 20
349.11117
 10
539.88064
 20
348.65651
 10
537.15763
 20
348.22004000000004
 10
534.52787
 20
347.81871
 10
531.57919
 20
347.39029000000005
 10
528.65393
 20
346.99072
 10
525.80444
 20
346.62708000000003
 10
522.86879
 20
346.27726
 10
522.87532
 20
354.13619
 10
516.87532
 20
354.14117000000005
 10
516.86905
 20
346.58715
 10
517.86905
 20
346.58632
 10
517.86835
 20
345.74055000000004
  0
LWPOLYLINE
  5
75
330
17
100
AcDbEntity
  8
CUT
100
AcDbPolyline
 90
32
 70
1
 10
516.17421
 20
352.79743
 10
516.15499
 20
352.99252
 10
516.09809
 20
353.18011
 10
516.00568
 20
353.353
 10
515.88131
 20
353.50454
 10
515.72978
 20
353.62890000000004
 10
515.55689
 20
353.72131
 10
515.3693
 20
353.77822000000003
 10
515.17421
 20
353.79743
 10
514.97912
 20
353.77822000000003
 10
514.79152
 20
353.72131
 10
514.61864
 20
353.62890000000004
 10
514.4671
 20
353.50454
 10
514.34274
 20
353.353
 10
514.25033
 20
353.18011
 10
514.1934200000001
 20
352.99252
 10
514.17421
 20
352.79743
 10
514.1934200000001
 20
352.60234
 10
514.25033
 20
352.41475
 10
514.34274
 20
352.24186000000003
 10
514.4671
 20
352.09032
 10
514.61864
 20
351.96596
 10
514.79152
 20
351.87355
 10
514.97912
 20
351.81665000000004
 10
515.17421
 20
351.79743
 10
515.3693
 20
351.81665000000004
 10
515.55689
 20
351.87355
 10
515.72978
 20
351.96596
 10
515.88131
 20
352.09032
 10
516.00568
 20
352.24186000000003
 10
516.09809
 20
352.41475
 10
516.15499
 20
352.60234
  0
LWPOLYLINE
  5
76
330
17
100
AcDbEntity
  8
CUT
100
AcDbPolyline
 90
32
 70
1
 10
488.17422
 20
352.82069
 10
488.155
 20
353.01578
 10
488.0981
 20
353.20337
 10
488.00569
 20
353.37626
 10
487.88132
 20
353.52779000000004
 10
487.72979
 20
353.65216000000004
 10
487.5569
 20
353.74457
 10
487.36931
 20
353.80147
 10
487.17422
 20
353.82069
 10
486.97913
 20
353.80147
 10
486.79153
 20
353.74457
 10
486.61865
 20
353.65216000000004
 10
486.46711
 20
353.52779000000004
 10
486.34275
 20
353.37626
 10
486.25034
 20
353.20337
 10
486.19343
 20
353.01578
 10
486.17422
 20
352.82069
 10
486.19343
 20
352.6256
 10
486.25034
 20
352.43800000000005
 10
486.34275
 20
352.26512
 10
486.46711
 20
352.11358
 10
486.61865
 20
351.98922000000005
 10
486.79153
 20
351.89681
 10
486.97913
 20
351.8399
 10
487.17422
 20
351.82069
 10
487.36931
 20
351.8399
 10
487.5569
 20
351.89681
 10
487.72979
 20
351.98922000000005
 10
487.88132
 20
352.11358
 10
488.00569
 20
352.26512
 10
488.0981
 20
352.43800000000005
 10
488.155
 20
352.6256
  0
LWPOLYLINE
  5
77
330
17
100
AcDbEntity
  8
CUT
100
AcDbPolyline
 90
64
 70
1
 10
540.3035600000001
 20
352.48326000000003
 10
540.18573
 20
352.39500000000004
 10
540.07713
 20
352.29562000000004
 10
539.97879
 20
352.18607000000003
 10
539.89166
 20
352.0674
 10
539.81657
 20
351.94076
 10
539.75426
 20
351.80736
 10
539.70533
 20
351.6685
 10
539.67023
 20
351.52551
 10
539.64932
 20
351.37976000000003
 10
539.64279
 20
351.23267000000004
 10
539.6507
 20
351.08564
 10
539.67299
 20
350.94009
 10
539.70943
 20
350.79743
 10
539.75967
 20
350.65902
 10
539.8232399999999
 20
350.52621000000005
 10
539.89951
 20
350.40027000000003
 10
539.98776
 20
350.28241
 10
540.08712
 20
350.17376
 10
540.19666
 20
350.07539
 10
540.31531
 20
349.98822
 10
540.44193
 20
349.91310000000004
 10
540.57529
 20
349.85076000000004
 10
540.71412
 20
349.8018
 10
540.85708
 20
349.76668
 10
541.00279
 20
349.74574
 10
541.14985
 20
349.73920000000004
 10
541.29685
 20
349.74710000000005
 10
541.44235
 20
349.76937000000004
 10
541.58498
 20
349.80581
 10
541.72334
 20
349.85605000000004
 10
541.85612
 20
349.91962
 10
541.98202
 20
349.99589000000003
 10
542.09984
 20
350.08415
 10
542.20844
 20
350.18353
 10
542.30679
 20
350.29309
 10
542.39392
 20
350.41175000000004
 10
542.469
 20
350.5384
 10
542.53131
 20
350.67179000000004
 10
542.58025
 20
350.81065
 10
542.6153400000001
 20
350.95364
 10
542.63626
 20
351.09939
 10
542.64279
 20
351.24649
 10
542.63487
 20
351.39351000000005
 10
542.61259
 20
351.53906
 10
542.57615
 20
351.68172000000004
 10
542.5259
 20
351.82013
 10
542.46234
 20
351.95294
 10
542.38606
 20
352.07889
 10
542.29782
 20
352.19675
 10
542.19845
 20
352.30539000000005
 10
542.0889099999999
 20
352.40377
 10
541.97027
 20
352.49093000000005
 10
541.84365
 20
352.56605
 10
541.71028
 20
352.62839
 10
541.57145
 20
352.67736
 10
541.42849
 20
352.71247
 10
541.28278
 20
352.73341000000005
 10
541.13572
 20
352.73996
 10
540.98873
 20
352.73205
 10
540.84322
 20
352.70978
 10
540.7006
 20
352.67335
 10
540.56223
 20
352.6231
 10
540.4294600000001
 20
352.55954
  0
TEXT
  5
78
330
17
100
AcDbEntity
  8
LABEL_DO_NOT_CUT
100
AcDbText
 10
470.67163436116357
 20
351.663385
 30
0.0
 40
2.0
  1
A44_R
100
AcDbText
  0
LWPOLYLINE
  5
79
330
17
100
AcDbEntity
  8
CUT
100
AcDbPolyline
 90
4
 70
1
 10
10.0
 20
440.28151
 10
10.0
 20
446.28151
 10
110.0
 20
446.28151
 10
110.0
 20
440.28151
  0
TEXT
  5
7A
330
17
100
AcDbEntity
  8
LABEL_DO_NOT_CUT
100
AcDbText
 10
60.0
 20
443.28151
 30
0.0
 40
2.0
  1
A07_L_D1
100
AcDbText
  0
LWPOLYLINE
  5
7B
330
17
100
AcDbEntity
  8
CUT
100
AcDbPolyline
 90
4
 70
1
 10
116.0
 20
440.28151
 10
116.0
 20
446.28151
 10
216.0
 20
446.28151
 10
216.0
 20
440.28151
  0
TEXT
  5
7C
330
17
100
AcDbEntity
  8
LABEL_DO_NOT_CUT
100
AcDbText
 10
166.0
 20
443.28151
 30
0.0
 40
2.0
  1
A07_L_D2
100
AcDbText
  0
LWPOLYLINE
  5
7D
330
17
100
AcDbEntity
  8
CUT
100
AcDbPolyline
 90
4
 70
1
 10
322.0
 20
446.28151
 10
322.0
 20
440.28151
 10
222.0
 20
440.28151
 10
222.0
 20
446.28151
  0
TEXT
  5
7E
330
17
100
AcDbEntity
  8
LABEL_DO_NOT_CUT
100
AcDbText
 10
272.0
 20
443.28151
 30
0.0
 40
2.0
  1
A07_R_D1
100
AcDbText
  0
LWPOLYLINE
  5
7F
330
17
100
AcDbEntity
  8
CUT
100
AcDbPolyline
 90
4
 70
1
 10
428.0
 20
446.28151
 10
428.0
 20
440.28151
 10
328.0
 20
440.28151
 10
328.0
 20
446.28151
  0
TEXT
  5
80
330
17
100
AcDbEntity
  8
LABEL_DO_NOT_CUT
100
AcDbText
 10
378.0
 20
443.28151
 30
0.0
 40
2.0
  1
A07_R_D2
100
AcDbText
  0
LWPOLYLINE
  5
81
330
17
100
AcDbEntity
  8
CUT
100
AcDbPolyline
 90
48
 70
1
 10
576.08582
 20
364.98233000000005
 10
563.58582
 20
364.98233000000005
 10
563.58582
 20
369.98233000000005
 10
551.58582
 20
369.98233000000005
 10
551.58582
 20
364.98233000000005
 10
536.71362
 20
364.98233000000005
 10
536.71362
 20
369.98233000000005
 10
524.71362
 20
369.98233000000005
 10
524.71362
 20
364.98233000000005
 10
509.84143
 20
364.98233000000005
 10
509.84143
 20
369.98233000000005
 10
497.84143
 20
369.98233000000005
 10
497.84143
 20
364.98233000000005
 10
485.34143
 20
364.98233000000005
 10
484.98816999999997
 20
365.66640000000007
 10
484.64549
 20
366.35583
 10
484.31345
 20
367.05045000000007
 10
483.99215
 20
367.75010000000003
 10
483.73712
 20
368.35944000000006
 10
483.51462999999995
 20
368.98141000000004
 10
483.32531
 20
369.61426000000006
 10
483.16969
 20
370.2562300000001
 10
483.04819
 20
370.90552
 10
482.96117
 20
371.56033
 10
482.90885
 20
372.2188100000001
 10
482.8914
 20
372.87915000000004
 10
482.8914
 20
374.98233000000005
 10
493.39139
 20
374.98233000000005
 10
493.39139
 20
379.98233000000005
 10
488.21358
 20
379.98233000000005
 10
488.21358
 20
389.98233000000005
 10
573.21362
 20
389.98233000000005
 10
573.21362
 20
379.98233000000005
 10
568.03584
 20
379.98233000000005
 10
568.03584
 20
374.98233000000005
 10
578.53585
 20
374.98233000000005
 10
578.53585
 20
372.87915000000004
 10
578.5183999999999
 20
372.2188100000001
 10
578.4660799999999
 20
371.56033
 10
578.37906
 20
370.90552
 10
578.25756
 20
370.2562300000001
 10
578.10194
 20
369.61426000000006
 10
577.91262
 20
368.98141000000004
 10
577.69013
 20
368.35944000000006
 10
577.4350999999999
 20
367.75010000000003
 10
577.11379
 20
367.05045000000007
 10
576.78176
 20
366.35583
 10
576.43908
 20
365.66640000000007
  0
TEXT
  5
82
330
17
100
AcDbEntity
  8
LABEL_DO_NOT_CUT
100
AcDbText
 10
530.713615
 20
377.48233000000005
 30
0.0
 40
2.0
  1
A48
100
AcDbText
  0
LWPOLYLINE
  5
83
330
17
100
AcDbEntity
  8
CUT
100
AcDbPolyline
 90
28
 70
1
 10
517.82638
 20
436.04917000000006
 10
517.82638
 20
441.04917000000006
 10
529.82638
 20
441.04917000000006
 10
529.82638
 20
436.04917000000006
 10
544.69857
 20
436.04917000000006
 10
544.69857
 20
441.04917000000006
 10
556.69857
 20
441.04917000000006
 10
556.69857
 20
436.04917000000006
 10
571.5707699999999
 20
436.04917000000006
 10
571.5707699999999
 20
441.04917000000006
 10
583.5707699999999
 20
441.04917000000006
 10
583.5707699999999
 20
436.04917000000006
 10
588.0707699999999
 20
436.04917000000006
 10
588.0707699999999
 20
424.3491700000001
 10
583.5707699999999
 20
424.3491700000001
 10
583.5707699999999
 20
418.3491700000001
 10
571.5707699999999
 20
418.3491700000001
 10
571.5707699999999
 20
424.3491700000001
 10
556.69857
 20
424.3491700000001
 10
556.69857
 20
418.3491700000001
 10
544.69857
 20
418.3491700000001
 10
544.69857
 20
424.3491700000001
 10
529.82638
 20
424.3491700000001
 10
529.82638
 20
418.3491700000001
 10
517.82638
 20
418.3491700000001
 10
517.82638
 20
424.3491700000001
 10
515.32638
 20
424.3491700000001
 10
515.32638
 20
436.04917000000006
  0
LWPOLYLINE
  5
84
330
17
100
AcDbEntity
  8
CUT
100
AcDbPolyline
 90
32
 70
1
 10
574.5207899999999
 20
429.6991700000001
 10
574.50158
 20
429.8942600000001
 10
574.44467
 20
430.0818500000001
 10
574.35226
 20
430.2547400000001
 10
574.2279
 20
430.4062800000001
 10
574.07636
 20
430.53064000000006
 10
573.90348
 20
430.6230500000001
 10
573.71588
 20
430.67996000000005
 10
573.5207899999999
 20
430.6991700000001
 10
573.3257
 20
430.67996000000005
 10
573.13811
 20
430.6230500000001
 10
572.9652199999999
 20
430.53064000000006
 10
572.81369
 20
430.4062800000001
 10
572.68932
 20
430.2547400000001
 10
572.59691
 20
430.0818500000001
 10
572.5400099999999
 20
429.8942600000001
 10
572.5207899999999
 20
429.6991700000001
 10
572.5400099999999
 20
429.50408000000004
 10
572.59691
 20
429.31649000000004
 10
572.68932
 20
429.14360000000005
 10
572.81369
 20
428.9920600000001
 10
572.9652199999999
 20
428.86770000000007
 10
573.13811
 20
428.7752900000001
 10
573.3257
 20
428.7183800000001
 10
573.5207899999999
 20
428.6991700000001
 10
573.71588
 20
428.7183800000001
 10
573.90348
 20
428.7752900000001
 10
574.07636
 20
428.86770000000007
 10
574.2279
 20
428.9920600000001
 10
574.35226
 20
429.14360000000005
 10
574.44467
 20
429.31649000000004
 10
574.50158
 20
429.50408000000004
  0
LWPOLYLINE
  5
85
330
17
100
AcDbEntity
  8
CUT
100
AcDbPolyline
 90
32
 70
1
 10
528.87635
 20
429.6991700000001
 10
528.85713
 20
429.8942600000001
 10
528.8002299999999
 20
430.0818500000001
 10
528.70782
 20
430.2547400000001
 10
528.58345
 20
430.4062800000001
 10
528.43192
 20
430.53064000000006
 10
528.2590299999999
 20
430.6230500000001
 10
528.0714399999999
 20
430.67996000000005
 10
527.87635
 20
430.6991700000001
 10
527.68126
 20
430.67996000000005
 10
527.49366
 20
430.6230500000001
 10
527.32078
 20
430.53064000000006
 10
527.16924
 20
430.4062800000001
 10
527.0448799999999
 20
430.2547400000001
 10
526.95247
 20
430.0818500000001
 10
526.8955599999999
 20
429.8942600000001
 10
526.87635
 20
429.6991700000001
 10
526.8955599999999
 20
429.50408000000004
 10
526.95247
 20
429.31649000000004
 10
527.0448799999999
 20
429.14360000000005
 10
527.16924
 20
428.9920600000001
 10
527.32078
 20
428.86770000000007
 10
527.49366
 20
428.7752900000001
 10
527.68126
 20
428.7183800000001
 10
527.87635
 20
428.6991700000001
 10
528.0714399999999
 20
428.7183800000001
 10
528.2590299999999
 20
428.7752900000001
 10
528.43192
 20
428.86770000000007
 10
528.58345
 20
428.9920600000001
 10
528.70782
 20
429.14360000000005
 10
528.8002299999999
 20
429.31649000000004
 10
528.85713
 20
429.50408000000004
  0
TEXT
  5
86
330
17
100
AcDbEntity
  8
LABEL_DO_NOT_CUT
100
AcDbText
 10
550.69857
 20
429.79671500000006
 30
0.0
 40
2.0
  1
A47
100
AcDbText
  0
LWPOLYLINE
  5
87
330
17
100
AcDbEntity
  8
CUT
100
AcDbPolyline
 90
31
 70
1
 10
488.71984000000003
 20
287.68763
 10
482.99243
 20
287.06027
 10
482.99566
 20
290.9551
 10
488.69287
 20
290.94599
 10
493.69796
 20
295.93798
 10
493.69800000000004
 20
295.98318
 10
553.69214
 20
295.87049
 10
553.69776
 20
295.7151
 10
549.29263
 20
294.51579
 10
546.61884
 20
293.80139
 10
543.6595
 20
293.02532
 10
540.43607
 20
292.19869
 10
536.97001
 20
291.33263
 10
533.28277
 20
290.43825
 10
529.39581
 20
289.52667
 10
525.33058
 20
288.609
 10
523.23782
 20
288.15135
 10
521.10853
 20
287.69636
 10
518.94541
 20
287.2454
 10
516.75113
 20
286.79987
 10
514.52838
 20
286.36115
 10
512.2798300000001
 20
285.93064
 10
510.00817
 20
285.50972
 10
507.71609
 20
285.09979
 10
505.40625
 20
284.70224
 10
503.08135000000004
 20
284.31844
 10
500.74406
 20
283.94981
 10
498.39708
 20
283.59771
 10
496.04307
 20
283.26355
 10
493.68473
 20
282.94871
 10
493.68502
 20
283.23206
  0
LWPOLYLINE
  5
88
330
17
100
AcDbEntity
  8
CUT
100
AcDbPolyline
 90
32
 70
1
 10
503.79424
 20
290.2421
 10
503.77503
 20
290.43719
 10
503.71812
 20
290.62478
 10
503.62571
 20
290.79767
 10
503.50135
 20
290.94921
 10
503.34981
 20
291.07357
 10
503.17692
 20
291.16598
 10
502.98933
 20
291.22288000000003
 10
502.79424
 20
291.2421
 10
502.59915
 20
291.22288000000003
 10
502.41156
 20
291.16598
 10
502.23867
 20
291.07357
 10
502.08713
 20
290.94921
 10
501.96277000000003
 20
290.79767
 10
501.87036
 20
290.62478
 10
501.81346
 20
290.43719
 10
501.79424
 20
290.2421
 10
501.81346
 20
290.04701
 10
501.87036
 20
289.85942
 10
501.96277000000003
 20
289.68653
 10
502.08713
 20
289.53499
 10
502.23867
 20
289.41063
 10
502.41156
 20
289.31822
 10
502.59915
 20
289.26131
 10
502.79424
 20
289.2421
 10
502.98933
 20
289.26131
 10
503.17692
 20
289.31822
 10
503.34981
 20
289.41063
 10
503.50135
 20
289.53499
 10
503.62571
 20
289.68653
 10
503.71812
 20
289.85942
 10
503.77503
 20
290.04701
  0
TEXT
  5
89
330
17
100
AcDbEntity
  8
LABEL_DO_NOT_CUT
100
AcDbText
 10
516.2796476178033
 20
289.46865
 30
0.0
 40
2.0
  1
A10_L
100
AcDbText
  0
LWPOLYLINE
  5
8A
330
17
100
AcDbEntity
  8
CUT
100
AcDbPolyline
 90
321
 70
1
 10
572.61523
 20
151.39501
 10
573.14864
 20
151.31887
 10
573.6798500000001
 20
151.23268000000002
 10
574.2085900000001
 20
151.13651000000002
 10
574.7346
 20
151.03039
 10
575.2576
 20
150.91438
 10
575.77733
 20
150.78855000000001
 10
576.2935200000001
 20
150.65295
 10
576.80591
 20
150.50765
 10
577.31424
 20
150.35273
 10
577.81825
 20
150.18827
 10
578.3176900000001
 20
150.01435
 10
578.8122900000001
 20
149.83106
 10
579.3018000000001
 20
149.63849
 10
579.7859800000001
 20
149.43675000000002
 10
580.26458
 20
149.22593
 10
580.7373500000001
 20
149.00614000000002
 10
581.20405
 20
148.7775
 10
581.6644500000001
 20
148.54011
 10
582.1183100000001
 20
148.29411
 10
582.5654000000001
 20
148.03962
 10
583.00549
 20
147.77676
 10
583.4383600000001
 20
147.50567
 10
583.86378
 20
147.22650000000002
 10
584.2815400000001
 20
146.93937
 10
584.6914200000001
 20
146.64445
 10
585.0932200000001
 20
146.34187
 10
585.4867300000001
 20
146.03179
 10
585.87176
 20
145.71438
 10
586.24809
 20
145.38979
 10
586.6155500000001
 20
145.05819
 10
586.9739400000001
 20
144.71975
 10
587.3230900000001
 20
144.37463
 10
587.66281
 20
144.02303
 10
587.99293
 20
143.66511
 10
588.3132800000001
 20
143.30106
 10
588.6237000000001
 20
142.93106
 10
588.92403
 20
142.55530000000002
 10
589.2141200000001
 20
142.17398
 10
589.49381
 20
141.78729
 10
589.7629800000001
 20
141.39543
 10
590.02147
 20
140.99859
 10
590.26916
 20
140.59698
 10
590.5059200000001
 20
140.1908
 10
590.73163
 20
139.78027
 10
590.94618
 20
139.36558
 10
591.14945
 20
138.94696000000002
 10
591.3413400000001
 20
138.52461
 10
591.5217600000001
 20
138.09875
 10
591.6906100000001
 20
137.6696
 10
591.8478100000001
 20
137.23738
 10
591.99327
 20
136.8023
 10
592.12692
 20
136.36459000000002
 10
592.2487000000001
 20
135.92448000000002
 10
592.3585400000001
 20
135.48218
 10
592.4563800000001
 20
135.03792
 10
592.54218
 20
134.59194
 10
592.61589
 20
134.14445
 10
586.8038600000001
 20
134.14445
 10
586.8038600000001
 20
129.14445
 10
592.61598
 20
129.14445
 10
592.5422900000001
 20
128.69696000000002
 10
592.4565
 20
128.25097
 10
592.35868
 20
127.80671000000001
 10
592.2488500000001
 20
127.36442000000001
 10
592.1270900000001
 20
126.9243
 10
591.99345
 20
126.48659
 10
591.84801
 20
126.05152000000001
 10
591.69083
 20
125.61929
 10
591.5219900000001
 20
125.19014000000001
 10
591.34159
 20
124.76428000000001
 10
591.14971
 20
124.34194000000001
 10
590.94646
 20
123.92331
 10
590.7319200000001
 20
123.50863000000001
 10
590.5062300000001
 20
123.09809000000001
 10
590.26948
 20
122.69191000000001
 10
590.0218100000001
 20
122.2903
 10
589.76333
 20
121.89347000000001
 10
589.49418
 20
121.50160000000001
 10
589.2145
 20
121.11491000000001
 10
588.92442
 20
120.73359
 10
588.6241100000001
 20
120.35784000000001
 10
588.3137
 20
119.98784
 10
587.99336
 20
119.62379
 10
587.66326
 20
119.26587
 10
587.3235500000001
 20
118.91426000000001
 10
586.97442
 20
118.56915000000001
 10
586.61604
 20
118.23071
 10
586.24859
 20
117.8991
 10
585.8722700000001
 20
117.57451
 10
585.4872600000001
 20
117.25710000000001
 10
585.0937600000001
 20
116.94703000000001
 10
584.6919700000001
 20
116.64445
 10
584.28209
 20
116.34952000000001
 10
583.8643400000001
 20
116.06240000000001
 10
583.43893
 20
115.78322
 10
583.0060800000001
 20
115.51214
 10
582.566
 20
115.24928000000001
 10
582.11892
 20
114.99478
 10
581.66507
 20
114.74878000000001
 10
581.20468
 20
114.51140000000001
 10
580.7379800000001
 20
114.28275000000001
 10
580.26522
 20
114.06297
 10
579.7866200000001
 20
113.85215000000001
 10
579.30245
 20
113.6504
 10
578.81295
 20
113.45783
 10
578.31835
 20
113.27454
 10
577.81893
 20
113.10062
 10
577.31492
 20
112.93616
 10
576.8066
 20
112.78124000000001
 10
576.29421
 20
112.63595000000001
 10
575.7780200000001
 20
112.50035000000001
 10
575.2583000000001
 20
112.37451
 10
574.7353
 20
112.25851
 10
574.2093000000001
 20
112.15239000000001
 10
573.68056
 20
112.05621000000001
 10
573.14935
 20
111.97003000000001
 10
572.61595
 20
111.89388000000001
 10
572.0806200000001
 20
111.82781
 10
571.5436400000001
 20
111.77184000000001
 10
571.0052800000001
 20
111.72601
 10
570.46582
 20
111.69034
 10
569.9255300000001
 20
111.66485
 10
569.3846900000001
 20
111.64955
 10
568.8435800000001
 20
111.64445
 10
568.30246
 20
111.64955
 10
567.76162
 20
111.66485
 10
567.2213300000001
 20
111.69034
 10
566.68187
 20
111.72601
 10
566.1435100000001
 20
111.77184000000001
 10
565.60653
 20
111.82781
 10
565.0712000000001
 20
111.89388000000001
 10
564.5377900000001
 20
111.97003000000001
 10
564.0065800000001
 20
112.05621000000001
 10
563.47784
 20
112.15239000000001
 10
562.9518300000001
 20
112.25851
 10
562.4288300000001
 20
112.37451
 10
561.9091000000001
 20
112.50035000000001
 10
561.39291
 20
112.63595000000001
 10
560.88052
 20
112.78124000000001
 10
560.37219
 20
112.93616
 10
559.86818
 20
113.10062
 10
559.36874
 20
113.27454
 10
558.87414
 20
113.45783
 10
558.38463
 20
113.6504
 10
557.9004500000001
 20
113.85215000000001
 10
557.4218500000001
 20
114.06297
 10
556.9490800000001
 20
114.28275000000001
 10
556.48238
 20
114.51140000000001
 10
556.0219800000001
 20
114.74878000000001
 10
555.56812
 20
114.99478
 10
555.12103
 20
115.24928000000001
 10
554.6809400000001
 20
115.51214
 10
554.2480700000001
 20
115.78322
 10
553.8226500000001
 20
116.06240000000001
 10
553.40489
 20
116.34952000000001
 10
552.9950100000001
 20
116.64445
 10
552.59321
 20
116.94703000000001
 10
552.1997
 20
117.25710000000001
 10
551.8146700000001
 20
117.57451
 10
551.43834
 20
117.8991
 10
551.0708800000001
 20
118.23071
 10
550.71249
 20
118.56915000000001
 10
550.3633400000001
 20
118.91426000000001
 10
550.02362
 20
119.26587
 10
549.6935000000001
 20
119.62379
 10
549.37315
 20
119.98784
 10
549.0627300000001
 20
120.35784000000001
 10
548.7624000000001
 20
120.73359
 10
548.4723100000001
 20
121.11491000000001
 10
548.19262
 20
121.50160000000001
 10
547.9234600000001
 20
121.89347000000001
 10
547.6649600000001
 20
122.2903
 10
547.41727
 20
122.69191000000001
 10
547.18051
 20
123.09809000000001
 10
546.9548000000001
 20
123.50863000000001
 10
546.7402500000001
 20
123.92331
 10
546.5369800000001
 20
124.34194000000001
 10
546.34509
 20
124.76428000000001
 10
546.16467
 20
125.19014000000001
 10
545.9958200000001
 20
125.61929
 10
545.8386200000001
 20
126.05152000000001
 10
545.69316
 20
126.48659
 10
545.55951
 20
126.9243
 10
545.4377300000001
 20
127.36442000000001
 10
545.32789
 20
127.80671000000001
 10
545.23005
 20
128.25097
 10
545.14425
 20
128.69696000000002
 10
545.07054
 20
129.14445
 10
550.8825700000001
 20
129.14445
 10
550.8825700000001
 20
134.14445
 10
545.07045
 20
134.14445
 10
545.1441400000001
 20
134.59194
 10
545.2299300000001
 20
135.03792
 10
545.32775
 20
135.48218
 10
545.43758
 20
135.92448000000002
 10
545.55934
 20
136.36459000000002
 10
545.69298
 20
136.8023
 10
545.83842
 20
137.23738
 10
545.9956000000001
 20
137.6696
 10
546.16444
 20
138.09875
 10
546.3448400000001
 20
138.52461
 10
546.5367200000001
 20
138.94696000000002
 10
546.7399800000001
 20
139.36558
 10
546.95451
 20
139.78027
 10
547.1802
 20
140.1908
 10
547.41695
 20
140.59698
 10
547.66462
 20
140.99859
 10
547.9231000000001
 20
141.39543
 10
548.1922500000001
 20
141.78729
 10
548.47193
 20
142.17398
 10
548.76201
 20
142.55530000000002
 10
549.06232
 20
142.93106
 10
549.37273
 20
143.30106
 10
549.69307
 20
143.66511
 10
550.02317
 20
144.02303
 10
550.36288
 20
144.37463
 10
550.7120100000001
 20
144.71975
 10
551.0703900000001
 20
145.05819
 10
551.43784
 20
145.38979
 10
551.81416
 20
145.71438
 10
552.1991700000001
 20
146.03179
 10
552.59267
 20
146.34187
 10
552.99446
 20
146.64445
 10
553.40434
 20
146.93937
 10
553.82209
 20
147.22650000000002
 10
554.2475000000001
 20
147.50567
 10
554.6803500000001
 20
147.77676
 10
555.12043
 20
148.03962
 10
555.5675100000001
 20
148.29411
 10
556.0213600000001
 20
148.54011
 10
556.48175
 20
148.7775
 10
556.9484500000001
 20
149.00614000000002
 10
557.4212100000001
 20
149.22593
 10
557.89981
 20
149.43675000000002
 10
558.3839800000001
 20
149.63849
 10
558.8734800000001
 20
149.83106
 10
559.3680800000001
 20
150.01435
 10
559.8675000000001
 20
150.18827
 10
560.3715100000001
 20
150.35273
 10
560.8798300000001
 20
150.50765
 10
561.3922200000001
 20
150.65295
 10
561.90841
 20
150.78855000000001
 10
562.42813
 20
150.91438
 10
562.95113
 20
151.03039
 10
563.4771300000001
 20
151.13651000000002
 10
564.0058700000001
 20
151.23268000000002
 10
564.5370800000001
 20
151.31887
 10
565.0704800000001
 20
151.39501
 10
565.60581
 20
151.46109
 10
565.8432200000001
 20
151.48583000000002
 10
565.8432200000001
 20
136.8406
 10
565.8523100000001
 20
136.8406
 10
565.7030100000001
 20
136.75709
 10
565.29673
 20
136.48412000000002
 10
564.9140500000001
 20
136.17894
 10
564.5575200000001
 20
135.84359
 10
564.22951
 20
135.4803
 10
563.93221
 20
135.09147000000002
 10
563.66758
 20
134.67971
 10
563.4374
 20
134.24775
 10
563.2432
 20
133.79846
 10
563.08626
 20
133.33484
 10
562.9676300000001
 20
132.85997
 10
562.8881
 20
132.37701
 10
562.8482100000001
 20
131.88918
 10
562.8482100000001
 20
131.39972
 10
562.8881
 20
130.91188
 10
562.9676300000001
 20
130.42892
 10
563.08626
 20
129.95405
 10
563.2432
 20
129.49043
 10
563.4374
 20
129.04114
 10
563.66758
 20
128.60918
 10
563.93221
 20
128.19742
 10
564.22951
 20
127.80860000000001
 10
564.5575200000001
 20
127.4453
 10
564.9140500000001
 20
127.10995000000001
 10
565.29673
 20
126.80477
 10
565.7030100000001
 20
126.53181000000001
 10
566.13018
 20
126.29286
 10
566.57541
 20
126.08953000000001
 10
567.03574
 20
125.92317
 10
567.50809
 20
125.79488
 10
567.9893300000001
 20
125.70552
 10
568.47625
 20
125.65568
 10
568.9656100000001
 20
125.6457
 10
569.45415
 20
125.67563000000001
 10
569.9386300000001
 20
125.74529000000001
 10
570.41583
 20
125.85421000000001
 10
570.88255
 20
126.00165000000001
 10
571.3357100000001
 20
126.18666
 10
571.77227
 20
126.40798000000001
 10
572.1893500000001
 20
126.66415
 10
572.58415
 20
126.95346
 10
572.95407
 20
127.27399000000001
 10
573.2966200000001
 20
127.62360000000001
 10
573.60954
 20
127.99998000000001
 10
573.89074
 20
128.4006
 10
574.1383400000001
 20
128.82282
 10
574.35071
 20
129.26381
 10
574.52643
 20
129.72064
 10
574.6643300000001
 20
130.19028
 10
574.76349
 20
130.66959
 10
574.82325
 20
131.15539
 10
574.8432200000001
 20
131.64445
 10
574.82325
 20
132.1335
 10
574.76349
 20
132.6193
 10
574.6643300000001
 20
133.09862
 10
574.52643
 20
133.56825
 10
574.35071
 20
134.02509
 10
574.1383400000001
 20
134.46608
 10
573.89074
 20
134.88829
 10
573.60954
 20
135.28892000000002
 10
573.2966200000001
 20
135.66529
 10
572.95407
 20
136.01491000000001
 10
572.58415
 20
136.33544
 10
572.1893500000001
 20
136.62475
 10
571.83792
 20
136.8406
 10
571.8432200000001
 20
136.8406
 10
571.8432200000001
 20
151.48576
 10
572.0799000000001
 20
151.46109
  0
LWPOLYLINE
  5
8B
330
17
100
AcDbEntity
  8
CUT
100
AcDbPolyline
 90
40
 70
1
 10
563.7257000000001
 20
138.36196
 10
563.706
 20
138.61226
 10
563.6473900000001
 20
138.85639
 10
563.5513100000001
 20
139.08835
 10
563.4201300000001
 20
139.30242
 10
563.25707
 20
139.49333000000001
 10
563.0661600000001
 20
139.65639000000002
 10
562.8520900000001
 20
139.78757000000002
 10
562.62013
 20
139.88365000000002
 10
562.3760000000001
 20
139.94226
 10
562.1257
 20
139.96196
 10
561.8754100000001
 20
139.94226
 10
561.6312700000001
 20
139.88365000000002
 10
561.3993200000001
 20
139.78757000000002
 10
561.18524
 20
139.65639000000002
 10
560.9943300000001
 20
139.49333000000001
 10
560.83127
 20
139.30242
 10
560.70009
 20
139.08835
 10
560.60401
 20
138.85639
 10
560.5454000000001
 20
138.61226
 10
560.5257
 20
138.36196
 10
560.5454000000001
 20
138.11167
 10
560.60401
 20
137.86753000000002
 10
560.70009
 20
137.63558
 10
560.83127
 20
137.42151
 10
560.9943300000001
 20
137.23059
 10
561.18524
 20
137.06753
 10
561.3993200000001
 20
136.93635
 10
561.6312700000001
 20
136.84027
 10
561.8754100000001
 20
136.78166000000002
 10
562.1257
 20
136.76196000000002
 10
562.3760000000001
 20
136.78166000000002
 10
562.62013
 20
136.84027
 10
562.8520900000001
 20
136.93635
 10
563.0661600000001
 20
137.06753
 10
563.25707
 20
137.23059
 10
563.4201300000001
 20
137.42151
 10
563.5513100000001
 20
137.63558
 10
563.6473900000001
 20
137.86753000000002
 10
563.706
 20
138.11167
  0
LWPOLYLINE
  5
8C
330
17
100
AcDbEntity
  8
CUT
100
AcDbPolyline
 90
40
 70
1
 10
563.7257000000001
 20
124.92693
 10
563.706
 20
125.17723000000001
 10
563.6473900000001
 20
125.42136
 10
563.5513100000001
 20
125.65332000000001
 10
563.4201300000001
 20
125.86739
 10
563.25707
 20
126.0583
 10
563.0661600000001
 20
126.22136
 10
562.8520900000001
 20
126.35254
 10
562.62013
 20
126.44862
 10
562.3760000000001
 20
126.50723
 10
562.1257
 20
126.52693000000001
 10
561.8754100000001
 20
126.50723
 10
561.6312700000001
 20
126.44862
 10
561.3993200000001
 20
126.35254
 10
561.18524
 20
126.22136
 10
560.9943300000001
 20
126.0583
 10
560.83127
 20
125.86739
 10
560.70009
 20
125.65332000000001
 10
560.60401
 20
125.42136
 10
560.5454000000001
 20
125.17723000000001
 10
560.5257
 20
124.92693
 10
560.5454000000001
 20
124.67664
 10
560.60401
 20
124.43251000000001
 10
560.70009
 20
124.20055
 10
560.83127
 20
123.98648
 10
560.9943300000001
 20
123.79556000000001
 10
561.18524
 20
123.63251000000001
 10
561.3993200000001
 20
123.50132
 10
561.6312700000001
 20
123.40524
 10
561.8754100000001
 20
123.34663
 10
562.1257
 20
123.32693
 10
562.3760000000001
 20
123.34663
 10
562.62013
 20
123.40524
 10
562.8520900000001
 20
123.50132
 10
563.0661600000001
 20
123.63251000000001
 10
563.25707
 20
123.79556000000001
 10
563.4201300000001
 20
123.98648
 10
563.5513100000001
 20
124.20055
 10
563.6473900000001
 20
124.43251000000001
 10
563.706
 20
124.67664
  0
LWPOLYLINE
  5
8D
330
17
100
AcDbEntity
  8
CUT
100
AcDbPolyline
 90
40
 70
1
 10
577.1607300000001
 20
138.36196
 10
577.14103
 20
138.61226
 10
577.0824200000001
 20
138.85639
 10
576.98634
 20
139.08835
 10
576.8551600000001
 20
139.30242
 10
576.6921000000001
 20
139.49333000000001
 10
576.5011900000001
 20
139.65639000000002
 10
576.2871100000001
 20
139.78757000000002
 10
576.05516
 20
139.88365000000002
 10
575.8110200000001
 20
139.94226
 10
575.56073
 20
139.96196
 10
575.31043
 20
139.94226
 10
575.0663000000001
 20
139.88365000000002
 10
574.83434
 20
139.78757000000002
 10
574.62027
 20
139.65639000000002
 10
574.4293600000001
 20
139.49333000000001
 10
574.2663
 20
139.30242
 10
574.13512
 20
139.08835
 10
574.03904
 20
138.85639
 10
573.9804300000001
 20
138.61226
 10
573.96073
 20
138.36196
 10
573.9804300000001
 20
138.11167
 10
574.03904
 20
137.86753000000002
 10
574.13512
 20
137.63558
 10
574.2663
 20
137.42151
 10
574.4293600000001
 20
137.23059
 10
574.62027
 20
137.06753
 10
574.83434
 20
136.93635
 10
575.0663000000001
 20
136.84027
 10
575.31043
 20
136.78166000000002
 10
575.56073
 20
136.76196000000002
 10
575.8110200000001
 20
136.78166000000002
 10
576.05516
 20
136.84027
 10
576.2871100000001
 20
136.93635
 10
576.5011900000001
 20
137.06753
 10
576.6921000000001
 20
137.23059
 10
576.8551600000001
 20
137.42151
 10
576.98634
 20
137.63558
 10
577.0824200000001
 20
137.86753000000002
 10
577.14103
 20
138.11167
  0
LWPOLYLINE
  5
8E
330
17
100
AcDbEntity
  8
CUT
100
AcDbPolyline
 90
40
 70
1
 10
577.1607300000001
 20
124.92693
 10
577.14103
 20
125.17723000000001
 10
577.0824200000001
 20
125.42136
 10
576.98634
 20
125.65332000000001
 10
576.8551600000001
 20
125.86739
 10
576.6921000000001
 20
126.0583
 10
576.5011900000001
 20
126.22136
 10
576.2871100000001
 20
126.35254
 10
576.05516
 20
126.44862
 10
575.8110200000001
 20
126.50723
 10
575.56073
 20
126.52693000000001
 10
575.31043
 20
126.50723
 10
575.0663000000001
 20
126.44862
 10
574.83434
 20
126.35254
 10
574.62027
 20
126.22136
 10
574.4293600000001
 20
126.0583
 10
574.2663
 20
125.86739
 10
574.13512
 20
125.65332000000001
 10
574.03904
 20
125.42136
 10
573.9804300000001
 20
125.17723000000001
 10
573.96073
 20
124.92693
 10
573.9804300000001
 20
124.67664
 10
574.03904
 20
124.43251000000001
 10
574.13512
 20
124.20055
 10
574.2663
 20
123.98648
 10
574.4293600000001
 20
123.79556000000001
 10
574.62027
 20
123.63251000000001
 10
574.83434
 20
123.50132
 10
575.0663000000001
 20
123.40524
 10
575.31043
 20
123.34663
 10
575.56073
 20
123.32693
 10
575.8110200000001
 20
123.34663
 10
576.05516
 20
123.40524
 10
576.2871100000001
 20
123.50132
 10
576.5011900000001
 20
123.63251000000001
 10
576.6921000000001
 20
123.79556000000001
 10
576.8551600000001
 20
123.98648
 10
576.98634
 20
124.20055
 10
577.0824200000001
 20
124.43251000000001
 10
577.14103
 20
124.67664
  0
TEXT
  5
8F
330
17
100
AcDbEntity
  8
LABEL_DO_NOT_CUT
100
AcDbText
 10
556.8653900000002
 20
131.522085
 30
0.0
 40
2.0
  1
A26
100
AcDbText
  0
LWPOLYLINE
  5
90
330
17
100
AcDbEntity
  8
TEST_CUT_FIRST
100
AcDbPolyline
 90
4
 70
1
 10
594.2178
 20
395.98233000000005
 10
594.2178
 20
410.98233000000005
 10
549.2178
 20
410.98233000000005
 10
549.2178
 20
395.98233000000005
  0
TEXT
  5
91
330
17
100
AcDbEntity
  8
LABEL_DO_NOT_CUT
100
AcDbText
 10
571.7178
 20
403.48233000000005
 30
0.0
 40
2.0
  1
TEST_TONGUE
100
AcDbText
  0
TEXT
  5
92
330
17
100
AcDbEntity
  8
LABEL_DO_NOT_CUT
100
AcDbText
 10
10.0
 20
3.0
 30
0.0
 40
2.5
  1
NOMINAL 6 mm | GRAIN ALONG 609.6 mm EDGE | 1:1 MILLIMETRES
100
AcDbText
  0
ENDSEC
  0
SECTION
  2
OBJECTS
  0
DICTIONARY
  5
A
330
0
100
AcDbDictionary
281
1
  3
ACAD_COLOR
350
B
  3
ACAD_GROUP
350
C
  3
ACAD_LAYOUT
350
D
  3
ACAD_MATERIAL
350
E
  3
ACAD_MLEADERSTYLE
350
F
  3
ACAD_MLINESTYLE
350
10
  3
ACAD_PLOTSETTINGS
350
11
  3
ACAD_PLOTSTYLENAME
350
12
  3
ACAD_SCALELIST
350
14
  3
ACAD_TABLESTYLE
350
15
  3
ACAD_VISUALSTYLE
350
16
  3
EZDXF_META
350
2D
  0
DICTIONARY
  5
B
330
A
100
AcDbDictionary
281
1
  0
DICTIONARY
  5
C
330
A
100
AcDbDictionary
281
1
  0
DICTIONARY
  5
D
330
A
100
AcDbDictionary
281
1
  3
Model
350
1A
  3
Layout1
350
1E
  0
DICTIONARY
  5
E
330
A
100
AcDbDictionary
281
1
  3
ByBlock
350
1F
  3
ByLayer
350
20
  3
Global
350
21
  0
DICTIONARY
  5
F
330
A
100
AcDbDictionary
281
1
  3
Standard
350
2C
  0
DICTIONARY
  5
10
330
A
100
AcDbDictionary
281
1
  3
Standard
350
22
  0
DICTIONARY
  5
11
330
A
100
AcDbDictionary
281
1
  0
ACDBDICTIONARYWDFLT
  5
12
330
A
100
AcDbDictionary
281
1
  3
Normal
350
13
100
AcDbDictionaryWithDefault
340
13
  0
ACDBPLACEHOLDER
  5
13
330
12
  0
DICTIONARY
  5
14
330
A
100
AcDbDictionary
281
1
  0
DICTIONARY
  5
15
330
A
100
AcDbDictionary
281
1
  0
DICTIONARY
  5
16
330
A
100
AcDbDictionary
281
1
  0
LAYOUT
  5
1A
330
D
100
AcDbPlotSettings
  1

  4
A3
  6

 40
7.5
 41
20.0
 42
7.5
 43
20.0
 44
420.0
 45
297.0
 46
0.0
 47
0.0
 48
0.0
 49
0.0
140
0.0
141
0.0
142
1.0
143
1.0
 70
1024
 72
1
 73
0
 74
5
  7

 75
16
 76
0
 77
2
 78
300
147
1.0
148
0.0
149
0.0
100
AcDbLayout
  1
Model
 70
1
 71
0
 10
0.0
 20
0.0
 11
420.0
 21
297.0
 12
0.0
 22
0.0
 32
0.0
 14
1e+20
 24
1e+20
 34
1e+20
 15
-1e+20
 25
-1e+20
 35
-1e+20
146
0.0
 13
0.0
 23
0.0
 33
0.0
 16
1.0
 26
0.0
 36
0.0
 17
0.0
 27
1.0
 37
0.0
 76
1
330
17
  0
LAYOUT
  5
1E
330
D
100
AcDbPlotSettings
  1

  4
A3
  6

 40
7.5
 41
20.0
 42
7.5
 43
20.0
 44
420.0
 45
297.0
 46
0.0
 47
0.0
 48
0.0
 49
0.0
140
0.0
141
0.0
142
1.0
143
1.0
 70
0
 72
1
 73
0
 74
5
  7

 75
16
 76
0
 77
2
 78
300
147
1.0
148
0.0
149
0.0
100
AcDbLayout
  1
Layout1
 70
1
 71
1
 10
0.0
 20
0.0
 11
420.0
 21
297.0
 12
0.0
 22
0.0
 32
0.0
 14
1e+20
 24
1e+20
 34
1e+20
 15
-1e+20
 25
-1e+20
 35
-1e+20
146
0.0
 13
0.0
 23
0.0
 33
0.0
 16
1.0
 26
0.0
 36
0.0
 17
0.0
 27
1.0
 37
0.0
 76
1
330
1B
  0
MATERIAL
  5
1F
102
{ACAD_REACTORS
330
E
102
}
330
E
100
AcDbMaterial
  1
ByBlock
  2

 70
0
 40
1.0
 71
1
 41
1.0
 91
-1023410177
 42
1.0
 72
1
  3

 73
1
 74
1
 75
1
 44
0.5
 73
0
 45
1.0
 46
1.0
 77
1
  4

 78
1
 79
1
170
1
 48
1.0
171
1
  6

172
1
173
1
174
1
140
1.0
141
1.0
175
1
  7

176
1
177
1
178
1
143
1.0
179
1
  8

270
1
271
1
272
1
145
1.0
146
1.0
273
1
  9

274
1
275
1
276
1
 42
1.0
 72
1
  3

 73
1
 74
1
 75
1
 94
63
  0
MATERIAL
  5
20
102
{ACAD_REACTORS
330
E
102
}
330
E
100
AcDbMaterial
  1
ByLayer
  2

 70
0
 40
1.0
 71
1
 41
1.0
 91
-1023410177
 42
1.0
 72
1
  3

 73
1
 74
1
 75
1
 44
0.5
 73
0
 45
1.0
 46
1.0
 77
1
  4

 78
1
 79
1
170
1
 48
1.0
171
1
  6

172
1
173
1
174
1
140
1.0
141
1.0
175
1
  7

176
1
177
1
178
1
143
1.0
179
1
  8

270
1
271
1
272
1
145
1.0
146
1.0
273
1
  9

274
1
275
1
276
1
 42
1.0
 72
1
  3

 73
1
 74
1
 75
1
 94
63
  0
MATERIAL
  5
21
102
{ACAD_REACTORS
330
E
102
}
330
E
100
AcDbMaterial
  1
Global
  2

 70
0
 40
1.0
 71
1
 41
1.0
 91
-1023410177
 42
1.0
 72
1
  3

 73
1
 74
1
 75
1
 44
0.5
 73
0
 45
1.0
 46
1.0
 77
1
  4

 78
1
 79
1
170
1
 48
1.0
171
1
  6

172
1
173
1
174
1
140
1.0
141
1.0
175
1
  7

176
1
177
1
178
1
143
1.0
179
1
  8

270
1
271
1
272
1
145
1.0
146
1.0
273
1
  9

274
1
275
1
276
1
 42
1.0
 72
1
  3

 73
1
 74
1
 75
1
 94
63
  0
MLINESTYLE
  5
22
102
{ACAD_REACTORS
330
10
102
}
330
10
100
AcDbMlineStyle
  2
Standard
 70
0
  3

 62
256
 51
90.0
 52
90.0
 71
2
 49
0.5
 62
256
  6
BYLAYER
 49
-0.5
 62
256
  6
BYLAYER
  0
MLEADERSTYLE
  5
2C
102
{ACAD_REACTORS
330
F
102
}
330
F
100
AcDbMLeaderStyle
179
2
170
2
171
1
172
0
 90
2
 40
0.0
 41
0.0
173
1
 91
-1056964608
 92
-2
290
1
 42
2.0
291
1
 43
8.0
  3
Standard
 44
4.0
300

342
29
174
1
175
1
176
0
178
1
 93
-1056964608
 45
4.0
292
0
297
0
 46
4.0
 94
-1056964608
 47
1.0
 49
1.0
140
1.0
294
1
141
0.0
177
0
142
1.0
295
0
296
0
143
3.75
271
0
272
9
273
9
  0
DICTIONARY
  5
2D
330
A
100
AcDbDictionary
280
1
281
1
  3
CREATED_BY_EZDXF
350
2E
  3
WRITTEN_BY_EZDXF
350
95
  0
DICTIONARYVAR
  5
2E
330
2D
100
DictionaryVariables
280
0
  1
1.4.4 @ 2026-09-23T20:17:03.134020+00:00
  0
DICTIONARYVAR
  5
95
330
2D
100
DictionaryVariables
280
0
  1
1.4.4 @ 2026-09-23T20:17:03.403140+00:00
  0
ENDSEC
  0
EOF
