  0
SECTION
  2
HEADER
  9
$ACADVER
  1
AC1024
  9
$ACADMAINTVER
 70
6
  9
$DWGCODEPAGE
  3
ANSI_1252
  9
$LASTSAVEDBY
  1
ezdxf
  9
$INSBASE
 10
0.0
 20
0.0
 30
0.0
  9
$EXTMIN
 10
1e+20
 20
1e+20
 30
1e+20
  9
$EXTMAX
 10
-1e+20
 20
-1e+20
 30
-1e+20
  9
$LIMMIN
 10
0.0
 20
0.0
  9
$LIMMAX
 10
420.0
 20
297.0
  9
$ORTHOMODE
 70
0
  9
$REGENMODE
 70
1
  9
$FILLMODE
 70
1
  9
$QTEXTMODE
 70
0
  9
$MIRRTEXT
 70
1
  9
$LTSCALE
 40
1.0
  9
$ATTMODE
 70
1
  9
$TEXTSIZE
 40
2.5
  9
$TRACEWID
 40
1.0
  9
$TEXTSTYLE
  7
Standard
  9
$CLAYER
  8
0
  9
$CELTYPE
  6
ByLayer
  9
$CECOLOR
 62
256
  9
$CELTSCALE
 40
1.0
  9
$DISPSILH
 70
0
  9
$DIMSCALE
 40
1.0
  9
$DIMASZ
 40
2.5
  9
$DIMEXO
 40
0.625
  9
$DIMDLI
 40
3.75
  9
$DIMRND
 40
0.0
  9
$DIMDLE
 40
0.0
  9
$DIMEXE
 40
1.25
  9
$DIMTP
 40
0.0
  9
$DIMTM
 40
0.0
  9
$DIMTXT
 40
2.5
  9
$DIMCEN
 40
2.5
  9
$DIMTSZ
 40
0.0
  9
$DIMTOL
 70
0
  9
$DIMLIM
 70
0
  9
$DIMTIH
 70
0
  9
$DIMTOH
 70
0
  9
$DIMSE1
 70
0
  9
$DIMSE2
 70
0
  9
$DIMTAD
 70
1
  9
$DIMZIN
 70
8
  9
$DIMBLK
  1

  9
$DIMASO
 70
1
  9
$DIMSHO
 70
1
  9
$DIMPOST
  1

  9
$DIMAPOST
  1

  9
$DIMALT
 70
0
  9
$DIMALTD
 70
3
  9
$DIMALTF
 40
0.03937007874
  9
$DIMLFAC
 40
1.0
  9
$DIMTOFL
 70
1
  9
$DIMTVP
 40
0.0
  9
$DIMTIX
 70
0
  9
$DIMSOXD
 70
0
  9
$DIMSAH
 70
0
  9
$DIMBLK1
  1

  9
$DIMBLK2
  1

  9
$DIMSTYLE
  2
ISO-25
  9
$DIMCLRD
 70
0
  9
$DIMCLRE
 70
0
  9
$DIMCLRT
 70
0
  9
$DIMTFAC
 40
1.0
  9
$DIMGAP
 40
0.625
  9
$DIMJUST
 70
0
  9
$DIMSD1
 70
0
  9
$DIMSD2
 70
0
  9
$DIMTOLJ
 70
0
  9
$DIMTZIN
 70
8
  9
$DIMALTZ
 70
0
  9
$DIMALTTZ
 70
0
  9
$DIMUPT
 70
0
  9
$DIMDEC
 70
2
  9
$DIMTDEC
 70
2
  9
$DIMALTU
 70
2
  9
$DIMALTTD
 70
3
  9
$DIMTXSTY
  7
Standard
  9
$DIMAUNIT
 70
0
  9
$DIMADEC
 70
0
  9
$DIMALTRND
 40
0.0
  9
$DIMAZIN
 70
0
  9
$DIMDSEP
 70
44
  9
$DIMATFIT
 70
3
  9
$DIMFRAC
 70
0
  9
$DIMLDRBLK
  1

  9
$DIMLUNIT
 70
2
  9
$DIMLWD
 70
-2
  9
$DIMLWE
 70
-2
  9
$DIMTMOVE
 70
0
  9
$DIMFXL
 40
1.0
  9
$DIMFXLON
 70
0
  9
$DIMJOGANG
 40
0.785398163397
  9
$DIMTFILL
 70
0
  9
$DIMTFILLCLR
 70
0
  9
$DIMARCSYM
 70
0
  9
$DIMLTYPE
  6

  9
$DIMLTEX1
  6

  9
$DIMLTEX2
  6

  9
$DIMTXTDIRECTION
 70
0
  9
$LUNITS
 70
2
  9
$LUPREC
 70
4
  9
$SKETCHINC
 40
1.0
  9
$FILLETRAD
 40
10.0
  9
$AUNITS
 70
0
  9
$AUPREC
 70
2
  9
$MENU
  1
.
  9
$ELEVATION
 40
0.0
  9
$PELEVATION
 40
0.0
  9
$THICKNESS
 40
0.0
  9
$LIMCHECK
 70
0
  9
$CHAMFERA
 40
0.0
  9
$CHAMFERB
 40
0.0
  9
$CHAMFERC
 40
0.0
  9
$CHAMFERD
 40
0.0
  9
$SKPOLY
 70
0
  9
$TDCREATE
 40
2461308.074351852
  9
$TDUCREATE
 40
2458532.153996898
  9
$TDUPDATE
 40
2461308.074351852
  9
$TDUUPDATE
 40
2458532.1544311
  9
$TDINDWG
 40
0.0
  9
$TDUSRTIMER
 40
0.0
  9
$USRTIMER
 70
1
  9
$ANGBASE
 50
0.0
  9
$ANGDIR
 70
0
  9
$PDMODE
 70
0
  9
$PDSIZE
 40
0.0
  9
$PLINEWID
 40
0.0
  9
$SPLFRAME
 70
0
  9
$SPLINETYPE
 70
6
  9
$SPLINESEGS
 70
8
  9
$HANDSEED
  5
61
  9
$SURFTAB1
 70
6
  9
$SURFTAB2
 70
6
  9
$SURFTYPE
 70
6
  9
$SURFU
 70
6
  9
$SURFV
 70
6
  9
$UCSBASE
  2

  9
$UCSNAME
  2

  9
$UCSORG
 10
0.0
 20
0.0
 30
0.0
  9
$UCSXDIR
 10
1.0
 20
0.0
 30
0.0
  9
$UCSYDIR
 10
0.0
 20
1.0
 30
0.0
  9
$UCSORTHOREF
  2

  9
$UCSORTHOVIEW
 70
0
  9
$UCSORGTOP
 10
0.0
 20
0.0
 30
0.0
  9
$UCSORGBOTTOM
 10
0.0
 20
0.0
 30
0.0
  9
$UCSORGLEFT
 10
0.0
 20
0.0
 30
0.0
  9
$UCSORGRIGHT
 10
0.0
 20
0.0
 30
0.0
  9
$UCSORGFRONT
 10
0.0
 20
0.0
 30
0.0
  9
$UCSORGBACK
 10
0.0
 20
0.0
 30
0.0
  9
$PUCSBASE
  2

  9
$PUCSNAME
  2

  9
$PUCSORG
 10
0.0
 20
0.0
 30
0.0
  9
$PUCSXDIR
 10
1.0
 20
0.0
 30
0.0
  9
$PUCSYDIR
 10
0.0
 20
1.0
 30
0.0
  9
$PUCSORTHOREF
  2

  9
$PUCSORTHOVIEW
 70
0
  9
$PUCSORGTOP
 10
0.0
 20
0.0
 30
0.0
  9
$PUCSORGBOTTOM
 10
0.0
 20
0.0
 30
0.0
  9
$PUCSORGLEFT
 10
0.0
 20
0.0
 30
0.0
  9
$PUCSORGRIGHT
 10
0.0
 20
0.0
 30
0.0
  9
$PUCSORGFRONT
 10
0.0
 20
0.0
 30
0.0
  9
$PUCSORGBACK
 10
0.0
 20
0.0
 30
0.0
  9
$USERI1
 70
0
  9
$USERI2
 70
0
  9
$USERI3
 70
0
  9
$USERI4
 70
0
  9
$USERI5
 70
0
  9
$USERR1
 40
0.0
  9
$USERR2
 40
0.0
  9
$USERR3
 40
0.0
  9
$USERR4
 40
0.0
  9
$USERR5
 40
0.0
  9
$WORLDVIEW
 70
1
  9
$SHADEDGE
 70
3
  9
$SHADEDIF
 70
70
  9
$TILEMODE
 70
1
  9
$MAXACTVP
 70
64
  9
$PINSBASE
 10
0.0
 20
0.0
 30
0.0
  9
$PLIMCHECK
 70
0
  9
$PEXTMIN
 10
1e+20
 20
1e+20
 30
1e+20
  9
$PEXTMAX
 10
-1e+20
 20
-1e+20
 30
-1e+20
  9
$PLIMMIN
 10
0.0
 20
0.0
  9
$PLIMMAX
 10
420.0
 20
297.0
  9
$UNITMODE
 70
0
  9
$VISRETAIN
 70
1
  9
$PLINEGEN
 70
0
  9
$PSLTSCALE
 70
1
  9
$TREEDEPTH
 70
3020
  9
$CMLSTYLE
  2
Standard
  9
$CMLJUST
 70
0
  9
$CMLSCALE
 40
20.0
  9
$PROXYGRAPHICS
 70
1
  9
$MEASUREMENT
 70
1
  9
$CELWEIGHT
370
-1
  9
$ENDCAPS
280
0
  9
$JOINSTYLE
280
0
  9
$LWDISPLAY
290
0
  9
$INSUNITS
 70
4
  9
$HYPERLINKBASE
  1

  9
$STYLESHEET
  1

  9
$XEDIT
290
1
  9
$CEPSNTYPE
380
0
  9
$PSTYLEMODE
290
1
  9
$FINGERPRINTGUID
  2
{2E135CBC-B1CF-4875-87DA-F5CF7DC48102}
  9
$VERSIONGUID
  2
{0B075A49-EC94-4AC5-BC85-2EBB498AE68D}
  9
$EXTNAMES
290
1
  9
$PSVPSCALE
 40
0.0
  9
$OLESTARTUP
290
0
  9
$SORTENTS
280
127
  9
$INDEXCTL
280
0
  9
$HIDETEXT
280
1
  9
$XCLIPFRAME
280
1
  9
$HALOGAP
280
0
  9
$OBSCOLOR
 70
257
  9
$OBSLTYPE
280
0
  9
$INTERSECTIONDISPLAY
280
0
  9
$INTERSECTIONCOLOR
 70
257
  9
$DIMASSOC
280
2
  9
$PROJECTNAME
  1

  9
$CAMERADISPLAY
290
0
  9
$LENSLENGTH
 40
50.0
  9
$CAMERAHEIGHT
 40
0.0
  9
$STEPSPERSEC
 40
24.0
  9
$STEPSIZE
 40
100.0
  9
$3DDWFPREC
 40
2.0
  9
$PSOLWIDTH
 40
0.005
  9
$PSOLHEIGHT
 40
0.08
  9
$LOFTANG1
 40
1.570796326795
  9
$LOFTANG2
 40
1.570796326795
  9
$LOFTMAG1
 40
0.0
  9
$LOFTMAG2
 40
0.0
  9
$LOFTPARAM
 70
7
  9
$LOFTNORMALS
280
1
  9
$LATITUDE
 40
37.795
  9
$LONGITUDE
 40
-122.394
  9
$NORTHDIRECTION
 40
0.0
  9
$TIMEZONE
 70
-8000
  9
$LIGHTGLYPHDISPLAY
280
1
  9
$TILEMODELIGHTSYNCH
280
1
  9
$CMATERIAL
347
20
  9
$SOLIDHIST
280
0
  9
$SHOWHIST
280
1
  9
$DWFFRAME
280
2
  9
$DGNFRAME
280
2
  9
$REALWORLDSCALE
290
1
  9
$INTERFERECOLOR
 62
256
  9
$CSHADOW
280
0
  9
$SHADOWPLANELOCATION
 40
0.0
  0
ENDSEC
  0
SECTION
  2
CLASSES
  0
CLASS
  1
ACDBDICTIONARYWDFLT
  2
AcDbDictionaryWithDefault
  3
ObjectDBX Classes
 90
0
 91
0
280
0
281
0
  0
CLASS
  1
SUN
  2
AcDbSun
  3
SCENEOE
 90
1153
 91
0
280
0
281
0
  0
CLASS
  1
VISUALSTYLE
  2
AcDbVisualStyle
  3
ObjectDBX Classes
 90
4095
 91
0
280
0
281
0
  0
CLASS
  1
MATERIAL
  2
AcDbMaterial
  3
ObjectDBX Classes
 90
1153
 91
0
280
0
281
0
  0
CLASS
  1
SCALE
  2
AcDbScale
  3
ObjectDBX Classes
 90
1153
 91
0
280
0
281
0
  0
CLASS
  1
TABLESTYLE
  2
AcDbTableStyle
  3
ObjectDBX Classes
 90
4095
 91
0
280
0
281
0
  0
CLASS
  1
MLEADERSTYLE
  2
AcDbMLeaderStyle
  3
ACDB_MLEADERSTYLE_CLASS
 90
4095
 91
0
280
0
281
0
  0
CLASS
  1
DICTIONARYVAR
  2
AcDbDictionaryVar
  3
ObjectDBX Classes
 90
0
 91
0
280
0
281
0
  0
CLASS
  1
CELLSTYLEMAP
  2
AcDbCellStyleMap
  3
ObjectDBX Classes
 90
1152
 91
0
280
0
281
0
  0
CLASS
  1
MENTALRAYRENDERSETTINGS
  2
AcDbMentalRayRenderSettings
  3
SCENEOE
 90
1024
 91
0
280
0
281
0
  0
CLASS
  1
ACDBDETAILVIEWSTYLE
  2
AcDbDetailViewStyle
  3
ObjectDBX Classes
 90
1025
 91
0
280
0
281
0
  0
CLASS
  1
ACDBSECTIONVIEWSTYLE
  2
AcDbSectionViewStyle
  3
ObjectDBX Classes
 90
1025
 91
0
280
0
281
0
  0
CLASS
  1
RASTERVARIABLES
  2
AcDbRasterVariables
  3
ISM
 90
0
 91
0
280
0
281
0
  0
CLASS
  1
ACDBPLACEHOLDER
  2
AcDbPlaceHolder
  3
ObjectDBX Classes
 90
0
 91
0
280
0
281
0
  0
CLASS
  1
LAYOUT
  2
AcDbLayout
  3
ObjectDBX Classes
 90
0
 91
0
280
0
281
0
  0
ENDSEC
  0
SECTION
  2
TABLES
  0
TABLE
  2
VPORT
  5
8
330
0
100
AcDbSymbolTable
 70
1
  0
VPORT
  5
23
330
8
100
AcDbSymbolTableRecord
100
AcDbViewportTableRecord
  2
*Active
 70
0
 10
0.0
 20
0.0
 11
1.0
 21
1.0
 12
0.0
 22
0.0
 13
0.0
 23
0.0
 14
0.5
 24
0.5
 15
0.5
 25
0.5
 16
0.0
 26
0.0
 36
1.0
 17
0.0
 27
0.0
 37
0.0
 40
1000.0
 41
1.34
 42
50.0
 43
0.0
 44
0.0
 50
0.0
 51
0.0
 71
0
 72
1000
 73
1
 74
3
 75
0
 76
0
 77
0
 78
0
281
0
 65
0
146
0.0
  0
ENDTAB
  0
TABLE
  2
LTYPE
  5
2
330
0
100
AcDbSymbolTable
 70
3
  0
LTYPE
  5
24
330
2
100
AcDbSymbolTableRecord
100
AcDbLinetypeTableRecord
  2
ByBlock
 70
0
  3

 72
65
 73
0
 40
0.0
  0
LTYPE
  5
25
330
2
100
AcDbSymbolTableRecord
100
AcDbLinetypeTableRecord
  2
ByLayer
 70
0
  3

 72
65
 73
0
 40
0.0
  0
LTYPE
  5
26
330
2
100
AcDbSymbolTableRecord
100
AcDbLinetypeTableRecord
  2
Continuous
 70
0
  3

 72
65
 73
0
 40
0.0
  0
ENDTAB
  0
TABLE
  2
LAYER
  5
1
330
0
100
AcDbSymbolTable
 70
6
  0
LAYER
  5
27
330
1
100
AcDbSymbolTableRecord
100
AcDbLayerTableRecord
  2
0
 70
0
 62
7
  6
Continuous
370
-3
390
13
347
21
  0
LAYER
  5
28
330
1
100
AcDbSymbolTableRecord
100
AcDbLayerTableRecord
  2
Defpoints
 70
0
 62
7
  6
Continuous
290
0
370
-3
390
13
347
21
  0
LAYER
  5
2F
330
1
100
AcDbSymbolTableRecord
100
AcDbLayerTableRecord
  2
CUT
 70
0
 62
7
  6
Continuous
370
-3
390
13
347
21
  0
LAYER
  5
30
330
1
100
AcDbSymbolTableRecord
100
AcDbLayerTableRecord
  2
TEST_CUT_FIRST
 70
0
 62
1
  6
Continuous
370
-3
390
13
347
21
  0
LAYER
  5
31
330
1
100
AcDbSymbolTableRecord
100
AcDbLayerTableRecord
  2
LABEL_DO_NOT_CUT
 70
0
 62
3
  6
Continuous
370
-3
390
13
347
21
  0
LAYER
  5
32
330
1
100
AcDbSymbolTableRecord
100
AcDbLayerTableRecord
  2
STOCK_DO_NOT_CUT
 70
0
 62
8
  6
Continuous
370
-3
390
13
347
21
  0
ENDTAB
  0
TABLE
  2
STYLE
  5
5
330
0
100
AcDbSymbolTable
 70
1
  0
STYLE
  5
29
330
5
100
AcDbSymbolTableRecord
100
AcDbTextStyleTableRecord
  2
Standard
 70
0
 40
0.0
 41
1.0
 50
0.0
 71
0
 42
2.5
  3
txt
  4

  0
ENDTAB
  0
TABLE
  2
VIEW
  5
7
330
0
100
AcDbSymbolTable
 70
0
  0
ENDTAB
  0
TABLE
  2
UCS
  5
6
330
0
100
AcDbSymbolTable
 70
0
  0
ENDTAB
  0
TABLE
  2
APPID
  5
3
330
0
100
AcDbSymbolTable
 70
3
  0
APPID
  5
2A
330
3
100
AcDbSymbolTableRecord
100
AcDbRegAppTableRecord
  2
ACAD
 70
0
  0
APPID
  5
5E
330
3
100
AcDbSymbolTableRecord
100
AcDbRegAppTableRecord
  2
HATCHBACKGROUNDCOLOR
 70
0
  0
APPID
  5
5F
330
3
100
AcDbSymbolTableRecord
100
AcDbRegAppTableRecord
  2
EZDXF
 70
0
  0
ENDTAB
  0
TABLE
  2
DIMSTYLE
  5
4
330
0
100
AcDbSymbolTable
 70
1
100
AcDbDimStyleTable
  0
DIMSTYLE
105
2B
330
4
100
AcDbSymbolTableRecord
100
AcDbDimStyleTableRecord
  2
Standard
 70
0
 40
1.0
 41
2.5
 42
0.625
 43
3.75
 44
1.25
 45
0.0
 46
0.0
 47
0.0
 48
0.0
 49
2.5
140
2.5
141
2.5
142
0.0
143
0.03937007874
144
1.0
145
0.0
146
1.0
147
0.625
148
0.0
 69
0
 70
0
 71
0
 72
0
 73
0
 74
0
 75
0
 76
0
 77
1
 78
8
 79
3
170
0
171
3
172
1
173
0
174
0
175
0
176
0
177
0
178
0
179
2
271
2
272
2
273
2
274
3
275
0
276
0
277
2
278
44
279
0
280
0
281
0
282
0
283
0
284
8
285
0
286
0
288
0
289
3
290
0
371
-2
372
-2
  0
ENDTAB
  0
TABLE
  2
BLOCK_RECORD
  5
9
330
0
100
AcDbSymbolTable
 70
2
  0
BLOCK_RECORD
  5
17
330
9
100
AcDbSymbolTableRecord
100
AcDbBlockTableRecord
  2
*Model_Space
340
1A
 70
0
280
1
281
0
  0
BLOCK_RECORD
  5
1B
330
9
100
AcDbSymbolTableRecord
100
AcDbBlockTableRecord
  2
*Paper_Space
340
1E
 70
0
280
1
281
0
  0
ENDTAB
  0
ENDSEC
  0
SECTION
  2
BLOCKS
  0
BLOCK
  5
18
330
17
100
AcDbEntity
  8
0
100
AcDbBlockBegin
  2
*Model_Space
 70
0
 10
0.0
 20
0.0
 30
0.0
  3
*Model_Space
  1

  0
ENDBLK
  5
19
330
17
100
AcDbEntity
  8
0
100
AcDbBlockEnd
  0
BLOCK
  5
1C
330
1B
100
AcDbEntity
  8
0
100
AcDbBlockBegin
  2
*Paper_Space
 70
0
 10
0.0
 20
0.0
 30
0.0
  3
*Paper_Space
  1

  0
ENDBLK
  5
1D
330
1B
100
AcDbEntity
  8
0
100
AcDbBlockEnd
  0
ENDSEC
  0
SECTION
  2
ENTITIES
  0
LWPOLYLINE
  5
33
330
17
100
AcDbEntity
  8
STOCK_DO_NOT_CUT
100
AcDbPolyline
 90
4
 70
1
 10
0.0
 20
0.0
 10
609.6
 20
0.0
 10
609.6
 20
457.2
 10
0.0
 20
457.2
  0
LWPOLYLINE
  5
34
330
17
100
AcDbEntity
  8
TEST_CUT_FIRST
100
AcDbPolyline
 90
24
 70
1
 10
18.0
 20
46.0
 10
18.0
 20
28.0
 10
23.8
 20
28.0
 10
23.8
 20
46.0
 10
35.0
 20
46.0
 10
35.0
 20
28.0
 10
41.0
 20
28.0
 10
41.0
 20
46.0
 10
52.0
 20
46.0
 10
52.0
 20
28.0
 10
58.2
 20
28.0
 10
58.2
 20
46.0
 10
69.0
 20
46.0
 10
69.0
 20
28.0
 10
75.4
 20
28.0
 10
75.4
 20
46.0
 10
86.0
 20
46.0
 10
86.0
 20
28.0
 10
92.6
 20
28.0
 10
92.6
 20
46.0
 10
110.0
 20
46.0
 10
110.0
 20
10.0
 10
10.0
 20
10.0
 10
10.0
 20
46.0
  0
TEXT
  5
35
330
17
100
AcDbEntity
  8
LABEL_DO_NOT_CUT
100
AcDbText
 10
101.3
 20
37.0
 30
0.0
 40
2.0
  1
TEST_SLOTS
100
AcDbText
  0
TEXT
  5
36
330
17
100
AcDbEntity
  8
LABEL_DO_NOT_CUT
100
AcDbText
 10
18.0
 20
22.0
 30
0.0
 40
2.0
  1
5.8
100
AcDbText
  0
TEXT
  5
37
330
17
100
AcDbEntity
  8
LABEL_DO_NOT_CUT
100
AcDbText
 10
35.0
 20
22.0
 30
0.0
 40
2.0
  1
6
100
AcDbText
  0
TEXT
  5
38
330
17
100
AcDbEntity
  8
LABEL_DO_NOT_CUT
100
AcDbText
 10
52.0
 20
22.0
 30
0.0
 40
2.0
  1
6.2
100
AcDbText
  0
TEXT
  5
39
330
17
100
AcDbEntity
  8
LABEL_DO_NOT_CUT
100
AcDbText
 10
69.0
 20
22.0
 30
0.0
 40
2.0
  1
6.4
100
AcDbText
  0
TEXT
  5
3A
330
17
100
AcDbEntity
  8
LABEL_DO_NOT_CUT
100
AcDbText
 10
86.0
 20
22.0
 30
0.0
 40
2.0
  1
6.6
100
AcDbText
  0
LWPOLYLINE
  5
3B
330
17
100
AcDbEntity
  8
CUT
100
AcDbPolyline
 90
300
 70
1
 10
53.665
 20
52.0457
 10
52.80025
 20
52.09697
 10
51.9369
 20
52.16186
 10
51.0752
 20
52.24033
 10
50.21538
 20
52.33235
 10
49.35767
 20
52.43788
 10
48.50229
 20
52.55689
 10
47.64949
 20
52.68932
 10
46.7995
 20
52.83515
 10
45.95253
 20
52.99434
 10
45.10884
 20
53.16685
 10
44.26865
 20
53.35264
 10
43.43218
 20
53.55167
 10
42.59968
 20
53.76391
 10
41.77138
 20
53.98932
 10
40.947500000000005
 20
54.227850000000004
 10
40.12829
 20
54.47941
 10
39.313990000000004
 20
54.74391
 10
38.50484
 20
55.02123
 10
37.70109
 20
55.3113
 10
36.902969999999996
 20
55.61399
 10
36.110730000000004
 20
55.92923
 10
35.324600000000004
 20
56.25689
 10
34.54484
 20
56.5969
 10
33.77167
 20
56.94915
 10
33.005359999999996
 20
57.31353
 10
32.246120000000005
 20
57.689949999999996
 10
31.49421
 20
58.07832
 10
30.74987
 20
58.47852
 10
30.01334
 20
58.89047
 10
29.28486
 20
59.31406
 10
28.56467
 20
59.74919
 10
27.85297
 20
60.1957
 10
27.14995
 20
60.65343
 10
26.45582
 20
61.12222
 10
25.77077
 20
61.60192
 10
25.09499
 20
62.092349999999996
 10
24.42869
 20
62.59337
 10
23.77207
 20
63.10481
 10
23.1253
 20
63.626509999999996
 10
22.48861
 20
64.15831
 10
21.86217
 20
64.70005
 10
21.2462
 20
65.25157
 10
20.64088
 20
65.8127
 10
20.04641
 20
66.38329
 10
19.462989999999998
 20
66.96318
 10
18.890810000000002
 20
67.55221
 10
18.33007
 20
68.15021
 10
17.7809
 20
68.75701000000001
 10
17.24344
 20
69.37242
 10
16.71782
 20
69.99627
 10
16.20417
 20
70.62837999999999
 10
15.70263
 20
71.26857
 10
15.21332
 20
71.91666000000001
 10
14.73639
 20
72.57247
 10
14.27195
 20
73.23582
 10
13.82015
 20
73.90653
 10
13.38112
 20
74.58442
 10
12.95499
 20
75.26932
 10
12.54189
 20
75.96104
 10
12.141960000000001
 20
76.6594
 10
11.75532
 20
77.36422
 10
11.38212
 20
78.07533000000001
 10
11.21884
 20
78.40574000000001
 10
11.06558
 20
78.74092999999999
 10
10.92222
 20
79.08046999999999
 10
10.78888
 20
79.42406
 10
10.66567
 20
79.77142
 10
10.55269
 20
80.12224
 10
10.45006
 20
80.47622
 10
10.35784
 20
80.83306
 10
10.27613
 20
81.19245000000001
 10
10.20499
 20
81.55408
 10
10.14449
 20
81.91764
 10
10.09467
 20
82.28282
 10
10.05559
 20
82.64931
 10
10.02726
 20
83.01678
 10
10.00973
 20
83.38492
 10
10.00299
 20
83.75342
 10
10.0
 20
85.35688999999999
 10
19.999969999999998
 20
85.37951000000001
 10
19.98866
 20
90.37950000000001
 10
10.02758
 20
90.35696
 10
10.30767
 20
91.31528
 10
10.62101
 20
92.28792
 10
10.96901
 20
93.2782
 10
11.3417
 20
94.26281
 10
11.73041
 20
95.22185
 10
12.14324
 20
96.17566
 10
12.58754
 20
97.14385
 10
13.05084
 20
98.10281
 10
13.52152
 20
99.02972
 10
14.01112
 20
99.94818000000001
 10
14.53054
 20
100.8815
 10
15.06496
 20
101.80539999999999
 10
15.599789999999999
 20
102.69505000000001
 10
16.14687
 20
103.57097999999999
 10
16.71869
 20
104.45539
 10
17.30375
 20
105.33162999999999
 10
17.88955
 20
106.18097
 10
18.48349
 20
107.01499
 10
19.09521
 20
107.84866
 10
19.723280000000003
 20
108.68003999999999
 10
20.36428
 20
109.50405
 10
21.017580000000002
 20
110.31983
 10
21.68327
 20
111.12763000000001
 10
22.36143
 20
111.92765
 10
23.0522
 20
112.72009
 10
23.75581
 20
113.50495000000001
 10
24.472540000000002
 20
114.2822
 10
25.202669999999998
 20
115.05183
 10
25.94554
 20
115.81291
 10
26.69671
 20
116.56101
 10
27.45327
 20
117.29312
 10
28.22218
 20
118.01546
 10
29.00956
 20
118.7335
 10
29.80842
 20
119.44055
 10
30.61088
 20
120.1291
 10
31.41864
 20
120.80044
 10
32.2341
 20
121.4568
 10
33.05285
 20
122.09512
 10
33.87317
 20
122.71411
 10
34.71103
 20
123.3246
 10
35.57906
 20
123.93504
 10
36.45903
 20
124.53229
 10
37.333420000000004
 20
125.10346
 10
38.21859
 20
125.65839
 10
39.131609999999995
 20
126.20758
 10
40.0586
 20
126.7415
 10
40.978750000000005
 20
127.24707
 10
41.899
 20
127.72866
 10
42.88004
 20
128.21559000000002
 10
43.85733
 20
128.67332
 10
44.83018
 20
129.10141
 10
45.80065
 20
129.50114000000002
 10
46.76583
 20
129.87108
 10
47.72897
 20
130.21214
 10
48.68751
 20
130.52382
 10
49.64229
 20
130.8063
 10
50.66596
 20
131.07777
 10
51.68258
 20
131.31468
 10
52.68363
 20
131.51587999999998
 10
53.69469
 20
131.68484
 10
54.73305
 20
131.82249000000002
 10
55.77834
 20
131.92466000000002
 10
56.80737
 20
131.9871
 10
57.82345
 20
132.01042999999999
 10
58.72969
 20
131.99908
 10
59.64304
 20
131.95731
 10
60.56307
 20
131.88524999999998
 10
61.48931
 20
131.78302
 10
62.42201
 20
131.65057000000002
 10
63.36409
 20
131.48705999999999
 10
64.31617
 20
131.29233
 10
65.26678
 20
131.06959
 10
66.20598
 20
130.82174
 10
67.14188999999999
 20
130.54712999999998
 10
68.08433
 20
130.24362000000002
 10
69.03178
 20
129.91178
 10
69.98141
 20
129.55228
 10
70.93645000000001
 20
129.16354
 10
71.89840000000001
 20
128.74498
 10
72.85589
 20
128.30241
 10
73.79909
 20
127.84088
 10
74.7372
 20
127.35616
 10
75.67995
 20
126.84389
 10
76.61993
 20
126.30853
 10
77.54885
 20
125.7548
 10
78.47192
 20
125.17972
 10
79.39497
 20
124.5801
 10
80.31274
 20
123.95977
 10
81.2189
 20
123.32316
 10
82.11374
 20
122.67025
 10
82.99927
 20
121.99985
 10
83.87746
 20
121.31081
 10
84.75016
 20
120.60187
 10
85.6187
 20
119.87153
 10
86.48232
 20
119.12011
 10
87.33253
 20
118.35572
 10
88.16226
 20
117.58526
 10
88.97807
 20
116.80291
 10
89.78722
 20
116.00226
 10
90.58616
 20
115.18707
 10
91.36973
 20
114.36255
 10
92.13724
 20
113.52967000000001
 10
92.88913
 20
112.68832
 10
93.6258
 20
111.83837
 10
94.34753
 20
110.97988000000001
 10
95.0539
 20
110.11350999999999
 10
95.74437
 20
109.2401
 10
96.41835
 20
108.36046
 10
97.07529
 20
107.47542
 10
97.71462
 20
106.58582
 10
98.33578
 20
105.69248
 10
98.9382
 20
104.79622
 10
99.52132
 20
103.89788
 10
100.08464
 20
102.99826999999999
 10
100.62762
 20
102.09821
 10
101.14977
 20
101.19853
 10
101.65056
 20
100.30005
 10
102.1295
 20
99.40359000000001
 10
102.58605
 20
98.50997000000001
 10
103.01972
 20
97.62001000000001
 10
103.43005
 20
96.73452
 10
103.8168
 20
95.85423
 10
104.1798
 20
94.97988000000001
 10
104.51889
 20
94.11218
 10
104.83388
 20
93.25184999999999
 10
105.1246
 20
92.39963
 10
105.39088
 20
91.55623
 10
105.63256
 20
90.72238
 10
105.63289
 20
90.57323
 10
95.63292
 20
90.55061
 10
95.64423
 20
85.55062000000001
 10
105.6442
 20
85.57324
 10
105.64727
 20
84.21923000000001
 10
105.6428
 20
83.84935
 10
105.62681
 20
83.47978
 10
105.59994
 20
83.11084
 10
105.56223
 20
82.74285
 10
105.51371
 20
82.37613
 10
105.45442
 20
82.01098999999999
 10
105.3844
 20
81.64776
 10
105.30373
 20
81.28675
 10
105.21247
 20
80.92826
 10
105.11069
 20
80.57262
 10
104.9985
 20
80.22013
 10
104.87598
 20
79.87109
 10
104.74324
 20
79.52581
 10
104.6004
 20
79.18458
 10
104.44757
 20
78.84771
 10
104.2849
 20
78.51548
 10
103.9134
 20
77.80322
 10
103.52872
 20
77.09672
 10
103.13072
 20
76.39633
 10
102.71951
 20
75.70224
 10
102.29522
 20
75.01467
 10
101.85797
 20
74.33383
 10
101.40789
 20
73.65991
 10
100.94513
 20
72.99312
 10
100.46981
 20
72.33365
 10
99.98207
 20
71.68171
 10
99.48208
 20
71.03748999999999
 10
98.96997
 20
70.40118
 10
98.44589
 20
69.77297
 10
97.91001
 20
69.15305000000001
 10
97.36248
 20
68.54160999999999
 10
96.80347
 20
67.93881999999999
 10
96.23315
 20
67.34487
 10
95.65167
 20
66.75993
 10
95.05923
 20
66.18419
 10
94.456
 20
65.6178
 10
93.84214
 20
65.06095
 10
93.21786
 20
64.51379
 10
92.58334
 20
63.97649
 10
91.93876
 20
63.44921
 10
91.28431
 20
62.93212
 10
90.6202
 20
62.42535
 10
89.94663
 20
61.929069999999996
 10
89.26378
 20
61.44343
 10
88.57187
 20
60.96856
 10
87.87111
 20
60.50461
 10
87.1617
 20
60.05172
 10
86.44386
 20
59.61002
 10
85.71779
 20
59.17965
 10
84.98372
 20
58.76073
 10
84.24187
 20
58.35339
 10
83.49246
 20
57.95776
 10
82.7357
 20
57.57394
 10
81.97184
 20
57.20206
 10
81.20109
 20
56.84222
 10
80.42369
 20
56.49453
 10
79.63986
 20
56.15911
 10
78.84985
 20
55.83603
 10
78.05389
 20
55.52542
 10
77.25221
 20
55.22734
 10
76.44506
 20
54.94191
 10
75.63268
 20
54.66919
 10
74.81531
 20
54.40928
 10
73.99319
 20
54.16224
 10
73.16657000000001
 20
53.92816
 10
72.3357
 20
53.7071
 10
71.50082
 20
53.49913
 10
70.66219000000001
 20
53.30432
 10
69.82005000000001
 20
53.12271
 10
68.97466
 20
52.95437
 10
68.12627
 20
52.79934
 10
67.27512999999999
 20
52.65767
 10
66.42150000000001
 20
52.52941
 10
65.56563
 20
52.41458
 10
64.70778
 20
52.31324
 10
63.84821
 20
52.22539
 10
62.98716
 20
52.15108
 10
62.1249
 20
52.09033
 10
61.26169
 20
52.04315
 10
60.82416
 20
52.02613
 10
60.82416
 20
59.42642
 10
54.82416
 20
59.42642
 10
54.82416
 20
52.0
 10
54.53094
 20
52.00809
  0
LWPOLYLINE
  5
3C
330
17
100
AcDbEntity
  8
CUT
100
AcDbPolyline
 90
105
 70
1
 10
78.82468
 20
64.94812
 10
79.64785
 20
65.37868
 10
80.45997
 20
65.82639
 10
81.2606
 20
66.291
 10
82.04931
 20
66.77228
 10
82.82569
 20
67.26996
 10
83.58932
 20
67.78378000000001
 10
84.33979
 20
68.31347
 10
85.07671
 20
68.85873000000001
 10
85.79968
 20
69.41929
 10
86.50831
 20
69.99484
 10
87.20222
 20
70.58507
 10
87.88105
 20
71.18967
 10
88.54444
 20
71.80832
 10
89.19202
 20
72.44069
 10
89.82346
 20
73.08643000000001
 10
89.82346
 20
102.56016
 10
88.99689
 20
103.68331
 10
88.14527
 20
104.79016
 10
87.26538
 20
105.88408
 10
86.35403
 20
106.96844999999999
 10
85.4104
 20
108.04382
 10
84.44328
 20
109.09951000000001
 10
83.46024
 20
110.12604
 10
82.45456
 20
111.12998
 10
81.42029
 20
112.11749
 10
80.369
 20
113.07715
 10
79.31278
 20
113.99688
 10
78.24835
 20
114.87956
 10
77.16986
 20
115.73053
 10
76.07662
 20
116.55
 10
74.97044
 20
117.33626
 10
73.85783
 20
118.08504
 10
72.74571
 20
118.79203
 10
71.63804999999999
 20
119.45529
 10
70.53805
 20
120.07349
 10
69.44891
 20
120.64528
 10
68.37243000000001
 20
121.16981
 10
67.30471
 20
121.64805
 10
66.24466000000001
 20
122.0803
 10
65.20815
 20
122.46216
 10
64.20787
 20
122.7903
 10
63.71647
 20
122.93586
 10
63.22682
 20
123.07041
 10
62.24988
 20
123.3082
 10
61.2992
 20
123.50044
 10
60.84235
 20
123.57801
 10
60.39669
 20
123.64359
 10
59.52612
 20
123.74189
 10
58.66742
 20
123.80011
 10
58.24306
 20
123.81406
 10
57.82346
 20
123.81757
 10
57.40311
 20
123.81042
 10
56.97804
 20
123.79276
 10
56.11779
 20
123.7269
 10
55.24543
 20
123.62065
 10
54.79911
 20
123.551
 10
54.34196
 20
123.46931
 10
53.39214
 20
123.26881
 10
52.41751
 20
123.023
 10
51.92928
 20
122.88461
 10
51.43925
 20
122.73523
 10
50.44061
 20
122.39899
 10
49.40352
 20
122.00794
 10
48.3427
 20
121.56632
 10
47.27563
 20
121.07926
 10
46.19808
 20
120.54485
 10
45.10384
 20
119.96094
 10
44.00047
 20
119.33147
 10
42.89633
 20
118.66053
 10
41.78933
 20
117.94662
 10
40.677499999999995
 20
117.18859
 10
39.57003
 20
116.39205
 10
38.476690000000005
 20
115.56313
 10
37.39866
 20
114.70311000000001
 10
36.33407
 20
113.81106
 10
35.27754
 20
112.88195999999999
 10
34.2264
 20
111.91337
 10
33.19234
 20
110.91709
 10
32.186499999999995
 20
109.90428
 10
31.20326
 20
108.86905
 10
30.23627
 20
107.80515
 10
29.29289
 20
106.72188
 10
28.38161
 20
105.6297
 10
27.50166
 20
104.5281
 10
26.64997
 20
103.41382
 10
25.82346
 20
102.28361000000001
 10
25.82346
 20
72.80985
 10
26.44662
 20
72.17777
 10
27.08551
 20
71.55886
 10
27.73981
 20
70.95343
 10
28.40916
 20
70.36180999999999
 10
29.09324
 20
69.7843
 10
29.79167
 20
69.2212
 10
30.50409
 20
68.6728
 10
31.23015
 20
68.13938999999999
 10
31.96945
 20
67.62125
 10
32.72161
 20
67.11865
 10
33.48625
 20
66.63184
 10
34.26296
 20
66.16108
 10
35.05135
 20
65.70661
 10
35.851
 20
65.26868
 10
36.66149
 20
64.8475
 10
37.48241
 20
64.4433
 10
77.9909
 20
64.53493
  0
LWPOLYLINE
  5
3D
330
17
100
AcDbEntity
  8
CUT
100
AcDbPolyline
 90
39
 70
1
 10
39.32415
 20
120.38346
 10
39.30472
 20
120.62408
 10
39.24695
 20
120.85847
 10
39.15233
 20
121.08055
 10
39.023309999999995
 20
121.28458
 10
38.86323
 20
121.46527
 10
38.67624
 20
121.61794
 10
38.46718
 20
121.73864
 10
38.24147
 20
121.82424
 10
38.00495
 20
121.87253
 10
37.76375
 20
121.88225
 10
37.52411
 20
121.85315
 10
37.29224
 20
121.78599
 10
37.07415
 20
121.6825
 10
36.875479999999996
 20
121.54537
 10
36.70138
 20
121.37815
 10
36.55636
 20
121.18516
 10
36.44418
 20
120.97141
 10
36.36773
 20
120.74244
 10
36.32901
 20
120.50416
 10
36.32901
 20
120.26276
 10
36.36773
 20
120.02449
 10
36.44418
 20
119.79551
 10
36.55636
 20
119.58177
 10
36.70138
 20
119.38878
 10
36.875479999999996
 20
119.22156
 10
37.07415
 20
119.08443
 10
37.29224
 20
118.98094
 10
37.52411
 20
118.91378
 10
37.76375
 20
118.88468
 10
38.00495
 20
118.8944
 10
38.24147
 20
118.94269
 10
38.46718
 20
119.02829
 10
38.67624
 20
119.14899
 10
38.86323
 20
119.30166
 10
39.023309999999995
 20
119.48235
 10
39.15233
 20
119.68638
 10
39.24695
 20
119.90846
 10
39.30472
 20
120.14285
  0
LWPOLYLINE
  5
3E
330
17
100
AcDbEntity
  8
CUT
100
AcDbPolyline
 90
39
 70
1
 10
79.32415
 20
120.38346
 10
79.30472
 20
120.62408
 10
79.24695
 20
120.85847
 10
79.15233
 20
121.08055
 10
79.02331
 20
121.28458
 10
78.86323
 20
121.46527
 10
78.67624
 20
121.61794
 10
78.46718
 20
121.73864
 10
78.24147
 20
121.82424
 10
78.00495
 20
121.87253
 10
77.76375
 20
121.88225
 10
77.52411
 20
121.85315
 10
77.29224
 20
121.78599
 10
77.07415
 20
121.6825
 10
76.87548
 20
121.54537
 10
76.70138
 20
121.37815
 10
76.55636
 20
121.18516
 10
76.44418
 20
120.97141
 10
76.36773
 20
120.74244
 10
76.32901
 20
120.50416
 10
76.32901
 20
120.26276
 10
76.36773
 20
120.02449
 10
76.44418
 20
119.79551
 10
76.55636
 20
119.58177
 10
76.70138
 20
119.38878
 10
76.87548
 20
119.22156
 10
77.07415
 20
119.08443
 10
77.29224
 20
118.98094
 10
77.52411
 20
118.91378
 10
77.76375
 20
118.88468
 10
78.00495
 20
118.8944
 10
78.24147
 20
118.94269
 10
78.46718
 20
119.02829
 10
78.67624
 20
119.14899
 10
78.86323
 20
119.30166
 10
79.02331
 20
119.48235
 10
79.15233
 20
119.68638
 10
79.24695
 20
119.90846
 10
79.30472
 20
120.14285
  0
TEXT
  5
3F
330
17
100
AcDbEntity
  8
LABEL_DO_NOT_CUT
100
AcDbText
 10
97.54941732831396
 20
91.922075
 30
0.0
 40
2.0
  1
A04
100
AcDbText
  0
LWPOLYLINE
  5
40
330
17
100
AcDbEntity
  8
CUT
100
AcDbPolyline
 90
305
 70
1
 10
105.64445
 20
172.61413
 10
105.627
 20
171.9538
 10
105.57468
 20
171.29530999999997
 10
105.48766
 20
170.64049999999997
 10
105.36616
 20
169.99121
 10
105.21054
 20
169.34923999999998
 10
105.02122
 20
168.71639
 10
104.79873
 20
168.09441999999999
 10
104.5437
 20
167.48507999999998
 10
104.17752
 20
166.68991999999997
 10
103.79748
 20
165.90129
 10
103.40369
 20
165.11944
 10
102.99629
 20
164.34458999999998
 10
102.57538
 20
163.577
 10
102.1411
 20
162.81689
 10
101.69359
 20
162.06448999999998
 10
101.23298
 20
161.32004999999998
 10
100.75941
 20
160.58378
 10
100.27302
 20
159.85591
 10
99.77397
 20
159.13665999999998
 10
99.26241
 20
158.42625999999998
 10
98.7385
 20
157.72492
 10
98.20239
 20
157.03285999999997
 10
97.65425
 20
156.35028
 10
97.09425
 20
155.67740999999998
 10
96.52255
 20
155.01443999999998
 10
95.93935
 20
154.36156999999997
 10
95.3448
 20
153.71901999999997
 10
94.7391
 20
153.08695999999998
 10
94.12243
 20
152.46561
 10
93.49498
 20
151.85513999999998
 10
92.85694
 20
151.25574999999998
 10
92.20851
 20
150.66761
 10
91.54989
 20
150.09091999999998
 10
90.88127
 20
149.52584
 10
90.20287
 20
148.97253999999998
 10
89.51488
 20
148.43121
 10
88.81753
 20
147.902
 10
88.11102
 20
147.38508
 10
87.39558
 20
146.8806
 10
86.67141
 20
146.38871999999998
 10
85.93874
 20
145.90957999999998
 10
85.19781
 20
145.44334999999998
 10
84.44882
 20
144.99014999999997
 10
83.69202
 20
144.55014
 10
82.92763
 20
144.12342999999998
 10
82.1559
 20
143.71016999999998
 10
81.37704
 20
143.31047999999998
 10
80.59132
 20
142.92448
 10
79.79895
 20
142.55228999999997
 10
79.0002
 20
142.19402
 10
78.19529
 20
141.8498
 10
77.38449
 20
141.51970999999998
 10
76.56803
 20
141.20386
 10
75.74617
 20
140.90234999999998
 10
74.91916
 20
140.61526999999998
 10
74.08725
 20
140.34269999999998
 10
73.2507
 20
140.08473999999998
 10
72.40976
 20
139.84145999999998
 10
71.56469
 20
139.61293999999998
 10
70.71575
 20
139.39924
 10
69.8632
 20
139.20042999999998
 10
69.0073
 20
139.01656999999997
 10
68.14832
 20
138.84771999999998
 10
67.28650999999999
 20
138.69393
 10
66.42214
 20
138.55524999999997
 10
65.55548
 20
138.43170999999998
 10
64.68679
 20
138.32335999999998
 10
63.81634
 20
138.23023999999998
 10
62.94438
 20
138.15236
 10
62.0712
 20
138.08974999999998
 10
61.19706
 20
138.04244
 10
60.75971
 20
138.02452
 10
60.32222
 20
138.01042999999999
 10
60.32222
 20
145.50337
 10
55.32222
 20
145.50337
 10
55.32222
 20
138.01042999999999
 10
54.44739
 20
138.04244
 10
53.57324
 20
138.08974999999998
 10
52.70006
 20
138.15236
 10
51.82811
 20
138.23023999999998
 10
50.95766
 20
138.32335999999998
 10
50.08897
 20
138.43170999999998
 10
49.2223
 20
138.55524999999997
 10
48.35794
 20
138.69393
 10
47.49613
 20
138.84771999999998
 10
46.63715
 20
139.01656999999997
 10
45.78125
 20
139.20042999999998
 10
44.9287
 20
139.39924
 10
44.07976
 20
139.61293999999998
 10
43.23469
 20
139.84145999999998
 10
42.39375
 20
140.08473999999998
 10
41.5572
 20
140.34269999999998
 10
40.72529
 20
140.61526999999998
 10
39.89828
 20
140.90234999999998
 10
39.07642
 20
141.20386
 10
38.25996
 20
141.51970999999998
 10
37.44916
 20
141.8498
 10
36.64425
 20
142.19402
 10
35.8455
 20
142.55228999999997
 10
35.053129999999996
 20
142.92448
 10
34.267399999999995
 20
143.31047999999998
 10
33.488550000000004
 20
143.71016999999998
 10
32.716809999999995
 20
144.12342999999998
 10
31.95243
 20
144.55014
 10
31.19563
 20
144.99014999999997
 10
30.44664
 20
145.44334999999998
 10
29.7057
 20
145.90957999999998
 10
28.97304
 20
146.38871999999998
 10
28.24887
 20
146.8806
 10
27.53343
 20
147.38508
 10
26.82692
 20
147.902
 10
26.12957
 20
148.43121
 10
25.441580000000002
 20
148.97253999999998
 10
24.76318
 20
149.52584
 10
24.09456
 20
150.09091999999998
 10
23.435940000000002
 20
150.66761
 10
22.787509999999997
 20
151.25574999999998
 10
22.14947
 20
151.85513999999998
 10
21.522019999999998
 20
152.46561
 10
20.90535
 20
153.08695999999998
 10
20.29965
 20
153.71901999999997
 10
19.7051
 20
154.36156999999997
 10
19.12189
 20
155.01443999999998
 10
18.5502
 20
155.67740999999998
 10
17.9902
 20
156.35028
 10
17.442059999999998
 20
157.03285999999997
 10
16.90595
 20
157.72492
 10
16.38203
 20
158.42625999999998
 10
15.870470000000001
 20
159.13665999999998
 10
15.37143
 20
159.85591
 10
14.88504
 20
160.58378
 10
14.41147
 20
161.32004999999998
 10
13.95086
 20
162.06448999999998
 10
13.503350000000001
 20
162.81689
 10
13.06907
 20
163.577
 10
12.64816
 20
164.34458999999998
 10
12.24076
 20
165.11944
 10
11.84697
 20
165.90129
 10
11.46693
 20
166.68991999999997
 10
11.10075
 20
167.48507999999998
 10
10.84572
 20
168.09441999999999
 10
10.62323
 20
168.71639
 10
10.433910000000001
 20
169.34923999999998
 10
10.27829
 20
169.99121
 10
10.15679
 20
170.64049999999997
 10
10.06977
 20
171.29530999999997
 10
10.01745
 20
171.9538
 10
10.0
 20
172.61413
 10
10.0
 20
173.71731
 10
19.99999
 20
173.71731
 10
20.0
 20
179.71731
 10
10.0
 20
179.71731
 10
10.0
 20
180.28262999999998
 10
10.26454
 20
181.28618
 10
10.55913
 20
182.30415999999997
 10
10.88349
 20
183.33518999999998
 10
11.23733
 20
184.37786999999997
 10
11.62036
 20
185.43083
 10
12.03229
 20
186.49267999999998
 10
12.47284
 20
187.56203
 10
12.94172
 20
188.6375
 10
13.30434
 20
189.43167
 10
13.68155
 20
190.22794
 10
14.07311
 20
191.02586
 10
14.478760000000001
 20
191.825
 10
14.89823
 20
192.62491
 10
15.33127
 20
193.42514
 10
15.77763
 20
194.22525
 10
16.23705
 20
195.02481
 10
16.70926
 20
195.82335999999998
 10
17.194020000000002
 20
196.62046999999998
 10
17.69106
 20
197.41568999999998
 10
18.20013
 20
198.20857999999998
 10
18.72097
 20
198.99868999999998
 10
19.25333
 20
199.78558999999998
 10
19.79694
 20
200.56883
 10
20.35155
 20
201.34796
 10
20.91691
 20
202.12255
 10
21.49275
 20
202.89215
 10
22.07881
 20
203.65632
 10
22.67485
 20
204.41461999999999
 10
23.28061
 20
205.1666
 10
23.89582
 20
205.91181999999998
 10
24.520229999999998
 20
206.64983999999998
 10
25.15359
 20
207.38020999999998
 10
25.79562
 20
208.10249
 10
26.44609
 20
208.81624999999997
 10
27.10473
 20
209.52101999999996
 10
27.77129
 20
210.21639
 10
28.4455
 20
210.90188999999998
 10
29.12711
 20
211.57709
 10
29.81586
 20
212.24154
 10
30.5115
 20
212.89480999999998
 10
31.55979
 20
213.84613
 10
32.62158
 20
214.77026999999998
 10
33.695840000000004
 20
215.66606
 10
34.78154
 20
216.53231999999997
 10
35.87764
 20
217.36785999999998
 10
36.98312
 20
218.17150999999998
 10
38.09692
 20
218.94207999999998
 10
39.218019999999996
 20
219.67839999999998
 10
40.345389999999995
 20
220.37928
 10
41.47799
 20
221.04353999999998
 10
42.61479
 20
221.67001
 10
43.75474
 20
222.2575
 10
44.89682
 20
222.80483999999998
 10
46.04
 20
223.31083999999998
 10
47.18323
 20
223.77433
 10
47.75455
 20
223.98976
 10
48.32549
 20
224.19412
 10
48.92812
 20
224.39794999999998
 10
49.52994
 20
224.58932
 10
50.13086
 20
224.76815
 10
50.7308
 20
224.93433
 10
51.32967
 20
225.08776
 10
51.92738
 20
225.22835999999998
 10
52.52386
 20
225.35602999999998
 10
53.11901
 20
225.47065999999998
 10
53.71275
 20
225.57216999999997
 10
54.30499
 20
225.66044999999997
 10
54.89565
 20
225.73541999999998
 10
55.48464
 20
225.79697
 10
56.07188
 20
225.84501
 10
56.65728
 20
225.87945
 10
57.24076
 20
225.90017999999998
 10
57.82222
 20
225.90711
 10
58.40369
 20
225.90017999999998
 10
58.98717
 20
225.87945
 10
59.57257
 20
225.84501
 10
60.15981
 20
225.79697
 10
60.7488
 20
225.73541999999998
 10
61.33946
 20
225.66044999999997
 10
61.9317
 20
225.57216999999997
 10
62.52544
 20
225.47065999999998
 10
63.12059
 20
225.35602999999998
 10
63.71707
 20
225.22835999999998
 10
64.31478
 20
225.08776
 10
64.91364999999999
 20
224.93433
 10
65.51359
 20
224.76815
 10
66.11451
 20
224.58932
 10
66.71633
 20
224.39794999999998
 10
67.31896
 20
224.19412
 10
67.8899
 20
223.98976
 10
68.46122
 20
223.77433
 10
69.60445
 20
223.31083999999998
 10
70.74762
 20
222.80483999999998
 10
71.88971000000001
 20
222.2575
 10
73.02966
 20
221.67001
 10
74.16646
 20
221.04353999999998
 10
75.29906
 20
220.37928
 10
76.42642
 20
219.67839999999998
 10
77.54753
 20
218.94207999999998
 10
78.66133
 20
218.17150999999998
 10
79.7668
 20
217.36785999999998
 10
80.86291
 20
216.53231999999997
 10
81.94861
 20
215.66606
 10
83.02287
 20
214.77026999999998
 10
84.08466
 20
213.84613
 10
85.13294
 20
212.89480999999998
 10
85.82858
 20
212.24154
 10
86.51734
 20
211.57709
 10
87.19895
 20
210.90188999999998
 10
87.87316
 20
210.21639
 10
88.53972
 20
209.52101999999996
 10
89.19836
 20
208.81624999999997
 10
89.84882
 20
208.10249
 10
90.49086
 20
207.38020999999998
 10
91.12422
 20
206.64983999999998
 10
91.74863
 20
205.91181999999998
 10
92.36384
 20
205.1666
 10
92.96959
 20
204.41461999999999
 10
93.56563
 20
203.65632
 10
94.1517
 20
202.89215
 10
94.72754
 20
202.12255
 10
95.2929
 20
201.34796
 10
95.84751
 20
200.56883
 10
96.39112
 20
199.78558999999998
 10
96.92348
 20
198.99868999999998
 10
97.44432
 20
198.20857999999998
 10
97.95339
 20
197.41568999999998
 10
98.45043
 20
196.62046999999998
 10
98.93519
 20
195.82335999999998
 10
99.4074
 20
195.02481
 10
99.86682
 20
194.22525
 10
100.31317
 20
193.42514
 10
100.74622
 20
192.62491
 10
101.16569
 20
191.825
 10
101.57134
 20
191.02586
 10
101.96289
 20
190.22794
 10
102.34011
 20
189.43167
 10
102.70273
 20
188.6375
 10
103.17161
 20
187.56203
 10
103.61215
 20
186.49267999999998
 10
104.02409
 20
185.43083
 10
104.40712
 20
184.37786999999997
 10
104.76095
 20
183.33518999999998
 10
105.08531
 20
182.30415999999997
 10
105.37991
 20
181.28618
 10
105.64445
 20
180.28262999999998
 10
105.64445
 20
179.71731
 10
95.64444
 20
179.71731
 10
95.64444
 20
173.71731
 10
105.64444
 20
173.71731
 10
105.64445
 20
174.71731
  0
LWPOLYLINE
  5
41
330
17
100
AcDbEntity
  8
CUT
100
AcDbPolyline
 90
127
 70
1
 10
26.56885
 20
160.19259
 10
27.33785
 20
159.38165999999998
 10
28.12867
 20
158.59196999999998
 10
28.9407
 20
157.82412
 10
29.77335
 20
157.07868
 10
30.626
 20
156.3562
 10
31.49802
 20
155.65722
 10
32.38875
 20
154.98226
 10
33.29755
 20
154.33181
 10
34.22372
 20
153.70636
 10
35.1666
 20
153.10637999999997
 10
36.12547
 20
152.53231
 10
37.09962
 20
151.98458
 10
38.08834
 20
151.46358999999998
 10
39.09088
 20
150.96973
 10
40.1065
 20
150.50337
 10
75.53795
 20
150.50337
 10
76.55357
 20
150.96973
 10
77.55611
 20
151.46358999999998
 10
78.54483
 20
151.98458
 10
79.51898
 20
152.53231
 10
80.47785
 20
153.10637999999997
 10
81.42073
 20
153.70636
 10
82.3469
 20
154.33181
 10
83.2557
 20
154.98226
 10
84.14643
 20
155.65722
 10
85.01845
 20
156.3562
 10
85.8711
 20
157.07868
 10
86.70375
 20
157.82412
 10
87.51578
 20
158.59196999999998
 10
88.3066
 20
159.38165999999998
 10
89.0756
 20
160.19259
 10
89.82222
 20
161.02418
 10
89.82222
 20
193.40625
 10
89.09339
 20
194.49971999999997
 10
88.33912
 20
195.58759999999998
 10
87.56061
 20
196.66765999999998
 10
86.75903
 20
197.7377
 10
85.93558
 20
198.79550999999998
 10
85.09146
 20
199.83888
 10
84.22784
 20
200.86559999999997
 10
83.34593
 20
201.87346
 10
82.29171
 20
203.02760999999998
 10
81.21715
 20
204.15084
 10
80.6063
 20
204.76631999999998
 10
79.99025
 20
205.37057
 10
79.16541
 20
206.1542
 10
79.01673
 20
206.29238999999998
 10
78.42303
 20
206.83477
 10
77.82528
 20
207.36579999999998
 10
77.22397
 20
207.88520999999997
 10
76.61958
 20
208.39269
 10
76.01262
 20
208.88795999999996
 10
75.40357
 20
209.37072
 10
74.79293
 20
209.84069
 10
74.18118
 20
210.29755999999998
 10
73.04348999999999
 20
211.11052999999998
 10
71.90686
 20
211.87545
 10
70.77441999999999
 20
212.59044999999998
 10
70.21076
 20
212.92863999999997
 10
69.64932999999999
 20
213.25365
 10
68.8357
 20
213.70335
 10
68.02887
 20
214.12381999999997
 10
67.23006000000001
 20
214.51432999999997
 10
66.4405
 20
214.87416
 10
65.54679
 20
215.24949999999998
 10
64.68418
 20
215.57912
 10
64.27154999999999
 20
215.72508
 10
63.69653
 20
215.91566
 10
63.13096
 20
216.08831999999998
 10
62.56744
 20
216.24539
 10
62.01342
 20
216.38484
 10
61.45578
 20
216.50978999999998
 10
60.90791
 20
216.61701999999997
 10
60.36539
 20
216.70754999999997
 10
59.83266
 20
216.78078
 10
59.30015
 20
216.83792
 10
58.77766
 20
216.87779999999998
 10
58.29555
 20
216.89981999999998
 10
57.82222
 20
216.90711
 10
57.3489
 20
216.89981999999998
 10
56.86679
 20
216.87779999999998
 10
56.3443
 20
216.83792
 10
55.81179
 20
216.78078
 10
55.27906
 20
216.70754999999997
 10
54.73654
 20
216.61701999999997
 10
54.18867
 20
216.50978999999998
 10
53.63103
 20
216.38484
 10
53.07701
 20
216.24539
 10
52.51349
 20
216.08831999999998
 10
51.94792
 20
215.91566
 10
51.37289
 20
215.72508
 10
50.96027
 20
215.57912
 10
50.09766
 20
215.24949999999998
 10
49.20395
 20
214.87416
 10
48.41439
 20
214.51432999999997
 10
47.61558
 20
214.12381999999997
 10
46.80875
 20
213.70335
 10
45.99512
 20
213.25365
 10
45.43369
 20
212.92863999999997
 10
44.87003
 20
212.59044999999998
 10
43.73759
 20
211.87545
 10
42.60095
 20
211.11052999999998
 10
41.46327
 20
210.29755999999998
 10
40.85152
 20
209.84069
 10
40.240880000000004
 20
209.37072
 10
39.63183
 20
208.88795999999996
 10
39.02487
 20
208.39269
 10
38.42048
 20
207.88520999999997
 10
37.81917
 20
207.36579999999998
 10
37.221419999999995
 20
206.83477
 10
36.62772
 20
206.29238999999998
 10
36.47904
 20
206.1542
 10
35.6542
 20
205.37057
 10
35.03815
 20
204.76631999999998
 10
34.4273
 20
204.15084
 10
33.35273
 20
203.02760999999998
 10
32.29851
 20
201.87346
 10
31.4166
 20
200.86559999999997
 10
30.55299
 20
199.83888
 10
29.70887
 20
198.79550999999998
 10
28.88542
 20
197.7377
 10
28.08384
 20
196.66765999999998
 10
27.30532
 20
195.58759999999998
 10
26.55105
 20
194.49971999999997
 10
25.82222
 20
193.40625
 10
25.82222
 20
161.02418
  0
TEXT
  5
42
330
17
100
AcDbEntity
  8
LABEL_DO_NOT_CUT
100
AcDbText
 10
97.52741499999999
 20
181.79516999999998
 30
0.0
 40
2.0
  1
A54
100
AcDbText
  0
LWPOLYLINE
  5
43
330
17
100
AcDbEntity
  8
CUT
100
AcDbPolyline
 90
303
 70
1
 10
53.57324
 20
231.96978
 10
52.70006
 20
232.03239
 10
51.82811
 20
232.11026999999999
 10
50.95766
 20
232.20338999999998
 10
50.08897
 20
232.31174
 10
49.2223
 20
232.43527999999998
 10
48.35794
 20
232.57396
 10
47.49613
 20
232.72775
 10
46.63715
 20
232.89659999999998
 10
45.78125
 20
233.08046
 10
44.9287
 20
233.27927
 10
44.07976
 20
233.49296999999999
 10
43.23469
 20
233.72149
 10
42.39375
 20
233.96477
 10
41.5572
 20
234.22272999999998
 10
40.72529
 20
234.4953
 10
39.89828
 20
234.78238
 10
39.07642
 20
235.08389
 10
38.25996
 20
235.39973999999998
 10
37.44916
 20
235.72982
 10
36.64425
 20
236.07405
 10
35.8455
 20
236.43231999999998
 10
35.053129999999996
 20
236.80451
 10
34.267399999999995
 20
237.19051
 10
33.488550000000004
 20
237.59019999999998
 10
32.716809999999995
 20
238.00346
 10
31.95243
 20
238.43016
 10
31.19563
 20
238.87017999999998
 10
30.44664
 20
239.32338
 10
29.7057
 20
239.78960999999998
 10
28.97304
 20
240.26874999999998
 10
28.24887
 20
240.76063
 10
27.53343
 20
241.26511
 10
26.82692
 20
241.78203
 10
26.12957
 20
242.31124
 10
25.441580000000002
 20
242.85257
 10
24.76318
 20
243.40586
 10
24.09456
 20
243.97093999999998
 10
23.435940000000002
 20
244.54764
 10
22.787509999999997
 20
245.13576999999998
 10
22.14947
 20
245.73516999999998
 10
21.522019999999998
 20
246.34564
 10
20.90535
 20
246.96698999999998
 10
20.29965
 20
247.59904
 10
19.7051
 20
248.24159999999998
 10
19.12189
 20
248.89446999999998
 10
18.5502
 20
249.55743999999999
 10
17.9902
 20
250.23030999999997
 10
17.442059999999998
 20
250.91289
 10
16.90595
 20
251.60494999999997
 10
16.38203
 20
252.30629
 10
15.870470000000001
 20
253.01668999999998
 10
15.37143
 20
253.73594
 10
14.88504
 20
254.46381
 10
14.41147
 20
255.20007999999999
 10
13.95086
 20
255.94451999999998
 10
13.503350000000001
 20
256.69692
 10
13.06907
 20
257.45703
 10
12.64816
 20
258.22461999999996
 10
12.24076
 20
258.99947
 10
11.84697
 20
259.78132
 10
11.46693
 20
260.56995
 10
11.10075
 20
261.36510999999996
 10
10.84572
 20
261.97445
 10
10.62323
 20
262.59641999999997
 10
10.433910000000001
 20
263.22927
 10
10.27829
 20
263.87124
 10
10.15679
 20
264.52053
 10
10.06977
 20
265.17534
 10
10.01745
 20
265.83383
 10
10.0
 20
266.49415999999997
 10
10.0
 20
268.59734
 10
20.0
 20
268.59734
 10
20.0
 20
273.59734
 10
10.0
 20
273.59734
 10
10.0
 20
274.16265999999996
 10
10.26454
 20
275.16621
 10
10.55913
 20
276.18419
 10
10.88349
 20
277.21522
 10
11.23733
 20
278.2579
 10
11.62036
 20
279.31086
 10
12.03229
 20
280.3727
 10
12.47284
 20
281.44205999999997
 10
12.94172
 20
282.51752999999997
 10
13.30434
 20
283.3117
 10
13.68155
 20
284.10796999999997
 10
14.07311
 20
284.90589
 10
14.478760000000001
 20
285.70502999999997
 10
14.89823
 20
286.50494
 10
15.33127
 20
287.30517
 10
15.77763
 20
288.10528
 10
16.23705
 20
288.90484
 10
16.70926
 20
289.70339
 10
17.194020000000002
 20
290.5005
 10
17.69106
 20
291.29571999999996
 10
18.20013
 20
292.08861
 10
18.72097
 20
292.87872
 10
19.25333
 20
293.66562
 10
19.79694
 20
294.44885999999997
 10
20.35155
 20
295.22799
 10
20.91691
 20
296.00257999999997
 10
21.49275
 20
296.77218
 10
22.07881
 20
297.53634999999997
 10
22.67485
 20
298.29465
 10
23.28061
 20
299.04663
 10
23.89582
 20
299.79184999999995
 10
24.520229999999998
 20
300.52986999999996
 10
25.15359
 20
301.26023999999995
 10
25.79562
 20
301.98252
 10
26.44609
 20
302.69626999999997
 10
27.10473
 20
303.40105
 10
27.77129
 20
304.09641999999997
 10
28.4455
 20
304.78192
 10
29.12711
 20
305.45712
 10
29.81586
 20
306.12157
 10
30.5115
 20
306.77484
 10
31.55979
 20
307.72616
 10
32.62158
 20
308.6503
 10
33.695840000000004
 20
309.54609
 10
34.78154
 20
310.41235
 10
35.87764
 20
311.24789
 10
36.98312
 20
312.05154
 10
38.09692
 20
312.82211
 10
39.218019999999996
 20
313.55841999999996
 10
40.345389999999995
 20
314.25930999999997
 10
41.47799
 20
314.92357
 10
42.61479
 20
315.55003999999997
 10
43.75474
 20
316.13752999999997
 10
44.89682
 20
316.68487
 10
46.04
 20
317.19087
 10
47.18323
 20
317.65436
 10
47.75455
 20
317.86978999999997
 10
48.32549
 20
318.07415
 10
48.92812
 20
318.27797999999996
 10
49.52994
 20
318.46934999999996
 10
50.13086
 20
318.64817999999997
 10
50.7308
 20
318.81435999999997
 10
51.32967
 20
318.96779
 10
51.92738
 20
319.10839
 10
52.52386
 20
319.23606
 10
53.11901
 20
319.35069
 10
53.71275
 20
319.4522
 10
54.30499
 20
319.54048
 10
54.89565
 20
319.61545
 10
55.48464
 20
319.677
 10
56.07188
 20
319.72504
 10
56.65728
 20
319.75948
 10
57.24076
 20
319.78021
 10
57.82222
 20
319.78714
 10
58.40369
 20
319.78021
 10
58.98717
 20
319.75948
 10
59.57257
 20
319.72504
 10
60.15981
 20
319.677
 10
60.7488
 20
319.61545
 10
61.33946
 20
319.54048
 10
61.9317
 20
319.4522
 10
62.52544
 20
319.35069
 10
63.12059
 20
319.23606
 10
63.71707
 20
319.10839
 10
64.31478
 20
318.96779
 10
64.91364999999999
 20
318.81435999999997
 10
65.51359
 20
318.64817999999997
 10
66.11451
 20
318.46934999999996
 10
66.71633
 20
318.27797999999996
 10
67.31896
 20
318.07415
 10
67.8899
 20
317.86978999999997
 10
68.46122
 20
317.65436
 10
69.60445
 20
317.19087
 10
70.74762
 20
316.68487
 10
71.88971000000001
 20
316.13752999999997
 10
73.02966
 20
315.55003999999997
 10
74.16646
 20
314.92357
 10
75.29906
 20
314.25930999999997
 10
76.42642
 20
313.55841999999996
 10
77.54753
 20
312.82211
 10
78.66133
 20
312.05154
 10
79.7668
 20
311.24789
 10
80.86291
 20
310.41235
 10
81.94861
 20
309.54609
 10
83.02287
 20
308.6503
 10
84.08466
 20
307.72616
 10
85.13294
 20
306.77484
 10
85.82858
 20
306.12157
 10
86.51734
 20
305.45712
 10
87.19895
 20
304.78192
 10
87.87316
 20
304.09641999999997
 10
88.53972
 20
303.40105
 10
89.19836
 20
302.69626999999997
 10
89.84882
 20
301.98252
 10
90.49086
 20
301.26023999999995
 10
91.12422
 20
300.52986999999996
 10
91.74863
 20
299.79184999999995
 10
92.36384
 20
299.04663
 10
92.96959
 20
298.29465
 10
93.56563
 20
297.53634999999997
 10
94.1517
 20
296.77218
 10
94.72754
 20
296.00257999999997
 10
95.2929
 20
295.22799
 10
95.84751
 20
294.44885999999997
 10
96.39112
 20
293.66562
 10
96.92348
 20
292.87872
 10
97.44432
 20
292.08861
 10
97.95339
 20
291.29571999999996
 10
98.45043
 20
290.5005
 10
98.93519
 20
289.70339
 10
99.4074
 20
288.90484
 10
99.86682
 20
288.10528
 10
100.31317
 20
287.30517
 10
100.74622
 20
286.50494
 10
101.16569
 20
285.70502999999997
 10
101.57134
 20
284.90589
 10
101.96289
 20
284.10796999999997
 10
102.34011
 20
283.3117
 10
102.70273
 20
282.51752999999997
 10
103.17161
 20
281.44205999999997
 10
103.61215
 20
280.3727
 10
104.02409
 20
279.31086
 10
104.40712
 20
278.2579
 10
104.76095
 20
277.21522
 10
105.08531
 20
276.18419
 10
105.37991
 20
275.16621
 10
105.64445
 20
274.16265999999996
 10
105.64445
 20
273.59734
 10
95.64445
 20
273.59734
 10
95.64445
 20
268.59734
 10
105.64445
 20
268.59734
 10
105.64445
 20
266.49415999999997
 10
105.627
 20
265.83383
 10
105.57468
 20
265.17534
 10
105.48766
 20
264.52053
 10
105.36616
 20
263.87124
 10
105.21054
 20
263.22927
 10
105.02122
 20
262.59641999999997
 10
104.79873
 20
261.97445
 10
104.5437
 20
261.36510999999996
 10
104.17752
 20
260.56995
 10
103.79748
 20
259.78132
 10
103.40369
 20
258.99947
 10
102.99629
 20
258.22461999999996
 10
102.57538
 20
257.45703
 10
102.1411
 20
256.69692
 10
101.69359
 20
255.94451999999998
 10
101.23298
 20
255.20007999999999
 10
100.75941
 20
254.46381
 10
100.27302
 20
253.73594
 10
99.77397
 20
253.01668999999998
 10
99.26241
 20
252.30629
 10
98.7385
 20
251.60494999999997
 10
98.20239
 20
250.91289
 10
97.65425
 20
250.23030999999997
 10
97.09425
 20
249.55743999999999
 10
96.52255
 20
248.89446999999998
 10
95.93935
 20
248.24159999999998
 10
95.3448
 20
247.59904
 10
94.7391
 20
246.96698999999998
 10
94.12243
 20
246.34564
 10
93.49498
 20
245.73516999999998
 10
92.85694
 20
245.13576999999998
 10
92.20851
 20
244.54764
 10
91.54989
 20
243.97093999999998
 10
90.88127
 20
243.40586
 10
90.20287
 20
242.85257
 10
89.51488
 20
242.31124
 10
88.81753
 20
241.78203
 10
88.11102
 20
241.26511
 10
87.39558
 20
240.76063
 10
86.67141
 20
240.26874999999998
 10
85.93874
 20
239.78960999999998
 10
85.19781
 20
239.32338
 10
84.44882
 20
238.87017999999998
 10
83.69202
 20
238.43016
 10
82.92763
 20
238.00346
 10
82.1559
 20
237.59019999999998
 10
81.37704
 20
237.19051
 10
80.59132
 20
236.80451
 10
79.79895
 20
236.43231999999998
 10
79.0002
 20
236.07405
 10
78.19529
 20
235.72982
 10
77.38449
 20
235.39973999999998
 10
76.56803
 20
235.08389
 10
75.74617
 20
234.78238
 10
74.91916
 20
234.4953
 10
74.08725
 20
234.22272999999998
 10
73.2507
 20
233.96477
 10
72.40976
 20
233.72149
 10
71.56469
 20
233.49296999999999
 10
70.71575
 20
233.27927
 10
69.8632
 20
233.08046
 10
69.0073
 20
232.89659999999998
 10
68.14832
 20
232.72775
 10
67.28650999999999
 20
232.57396
 10
66.42214
 20
232.43527999999998
 10
65.55548
 20
232.31174
 10
64.68679
 20
232.20338999999998
 10
63.81634
 20
232.11026999999999
 10
62.94438
 20
232.03239
 10
62.0712
 20
231.96978
 10
61.19706
 20
231.92246999999998
 10
60.82222
 20
231.90711
 10
60.82222
 20
239.40653999999998
 10
54.82222
 20
239.40653999999998
 10
54.82222
 20
231.90875
 10
54.44739
 20
231.92246999999998
  0
LWPOLYLINE
  5
44
330
17
100
AcDbEntity
  8
CUT
100
AcDbPolyline
 90
127
 70
1
 10
26.56885
 20
254.07262
 10
27.33785
 20
253.26167999999998
 10
28.12867
 20
252.47199999999998
 10
28.9407
 20
251.70415
 10
29.77335
 20
250.95871
 10
30.626
 20
250.23622999999998
 10
31.49802
 20
249.53725
 10
32.38875
 20
248.86228999999997
 10
33.29755
 20
248.21184
 10
34.22372
 20
247.58639
 10
35.1666
 20
246.98640999999998
 10
36.12547
 20
246.41234
 10
37.09962
 20
245.86461
 10
38.08834
 20
245.34362
 10
39.09088
 20
244.84976
 10
40.1065
 20
244.38339
 10
75.53795
 20
244.38339
 10
76.55357
 20
244.84976
 10
77.55611
 20
245.34362
 10
78.54483
 20
245.86461
 10
79.51898
 20
246.41234
 10
80.47785
 20
246.98640999999998
 10
81.42073
 20
247.58639
 10
82.3469
 20
248.21184
 10
83.2557
 20
248.86228999999997
 10
84.14643
 20
249.53725
 10
85.01845
 20
250.23622999999998
 10
85.8711
 20
250.95871
 10
86.70375
 20
251.70415
 10
87.51578
 20
252.47199999999998
 10
88.3066
 20
253.26167999999998
 10
89.0756
 20
254.07262
 10
89.82222
 20
254.90420999999998
 10
89.82222
 20
287.28628
 10
89.09339
 20
288.37975
 10
88.33912
 20
289.46762
 10
87.56061
 20
290.54769
 10
86.75903
 20
291.61773
 10
85.93558
 20
292.67554
 10
85.09146
 20
293.71891
 10
84.22784
 20
294.74563
 10
83.34593
 20
295.75349
 10
82.29171
 20
296.90764
 10
81.21715
 20
298.03087
 10
80.6063
 20
298.64635
 10
79.99025
 20
299.25059999999996
 10
79.16541
 20
300.03423
 10
79.01673
 20
300.17242
 10
78.42303
 20
300.71479999999997
 10
77.82528
 20
301.24582999999996
 10
77.22397
 20
301.76524
 10
76.61958
 20
302.27272
 10
76.01262
 20
302.76799
 10
75.40357
 20
303.25075
 10
74.79293
 20
303.72072
 10
74.18118
 20
304.17759
 10
73.04348999999999
 20
304.99055999999996
 10
71.90686
 20
305.75548
 10
70.77441999999999
 20
306.47048
 10
70.21076
 20
306.80867
 10
69.64932999999999
 20
307.13367999999997
 10
68.8357
 20
307.58338
 10
68.02887
 20
308.00385
 10
67.23006000000001
 20
308.39436
 10
66.4405
 20
308.75419
 10
65.54679
 20
309.12953
 10
64.68418
 20
309.45915
 10
64.27154999999999
 20
309.6051
 10
63.69653
 20
309.79569
 10
63.13096
 20
309.96835
 10
62.56744
 20
310.12541999999996
 10
62.01342
 20
310.26487
 10
61.45578
 20
310.38982
 10
60.90791
 20
310.49705
 10
60.36539
 20
310.58758
 10
59.83266
 20
310.66080999999997
 10
59.30015
 20
310.71795
 10
58.77766
 20
310.75783
 10
58.29555
 20
310.77985
 10
57.82222
 20
310.78714
 10
57.3489
 20
310.77985
 10
56.86679
 20
310.75783
 10
56.3443
 20
310.71795
 10
55.81179
 20
310.66080999999997
 10
55.27906
 20
310.58758
 10
54.73654
 20
310.49705
 10
54.18867
 20
310.38982
 10
53.63103
 20
310.26487
 10
53.07701
 20
310.12541999999996
 10
52.51349
 20
309.96835
 10
51.94792
 20
309.79569
 10
51.37289
 20
309.6051
 10
50.96027
 20
309.45915
 10
50.09766
 20
309.12953
 10
49.20395
 20
308.75419
 10
48.41439
 20
308.39436
 10
47.61558
 20
308.00385
 10
46.80875
 20
307.58338
 10
45.99512
 20
307.13367999999997
 10
45.43369
 20
306.80867
 10
44.87003
 20
306.47048
 10
43.73759
 20
305.75548
 10
42.60095
 20
304.99055999999996
 10
41.46327
 20
304.17759
 10
40.85152
 20
303.72072
 10
40.240880000000004
 20
303.25075
 10
39.63183
 20
302.76799
 10
39.02487
 20
302.27272
 10
38.42048
 20
301.76524
 10
37.81917
 20
301.24582999999996
 10
37.221419999999995
 20
300.71479999999997
 10
36.62772
 20
300.17242
 10
36.47904
 20
300.03423
 10
35.6542
 20
299.25059999999996
 10
35.03815
 20
298.64635
 10
34.4273
 20
298.03087
 10
33.35273
 20
296.90764
 10
32.29851
 20
295.75349
 10
31.4166
 20
294.74563
 10
30.55299
 20
293.71891
 10
29.70887
 20
292.67554
 10
28.88542
 20
291.61773
 10
28.08384
 20
290.54769
 10
27.30532
 20
289.46762
 10
26.55105
 20
288.37975
 10
25.82222
 20
287.28628
 10
25.82222
 20
254.90420999999998
  0
TEXT
  5
45
330
17
100
AcDbEntity
  8
LABEL_DO_NOT_CUT
100
AcDbText
 10
97.52741499999999
 20
275.6752
 30
0.0
 40
2.0
  1
A16
100
AcDbText
  0
LWPOLYLINE
  5
46
330
17
100
AcDbEntity
  8
CUT
100
AcDbPolyline
 90
304
 70
1
 10
105.627
 20
359.71386
 10
105.57468
 20
359.05537000000004
 10
105.48766
 20
358.40056000000004
 10
105.36616
 20
357.75127000000003
 10
105.21054
 20
357.1093
 10
105.02122
 20
356.47645
 10
104.79873
 20
355.85448
 10
104.5437
 20
355.24514
 10
104.17752
 20
354.44998000000004
 10
103.79748
 20
353.66135
 10
103.40369
 20
352.8795
 10
102.99629
 20
352.10465
 10
102.57538
 20
351.33706
 10
102.1411
 20
350.57695
 10
101.69359
 20
349.82455000000004
 10
101.23298
 20
349.08011000000005
 10
100.75941
 20
348.34384
 10
100.27302
 20
347.61597
 10
99.77397
 20
346.89672
 10
99.26241
 20
346.18632
 10
98.7385
 20
345.48498
 10
98.20239
 20
344.79292000000004
 10
97.65425
 20
344.11034
 10
97.09425
 20
343.43747
 10
96.52255
 20
342.77450000000005
 10
95.93935
 20
342.12163000000004
 10
95.3448
 20
341.47907000000004
 10
94.7391
 20
340.84702000000004
 10
94.12243
 20
340.22567000000004
 10
93.49498
 20
339.6152
 10
92.85694
 20
339.0158
 10
92.20851
 20
338.42767000000003
 10
91.54989
 20
337.85097
 10
90.88127
 20
337.28589
 10
90.20287
 20
336.73260000000005
 10
89.51488
 20
336.19127000000003
 10
88.81753
 20
335.66206
 10
88.11102
 20
335.14514
 10
87.39558
 20
334.64066
 10
86.67141
 20
334.14878000000004
 10
85.93874
 20
333.66964
 10
85.19781
 20
333.20341
 10
84.44882
 20
332.75021000000004
 10
83.69202
 20
332.31019000000003
 10
82.92763
 20
331.88349
 10
82.1559
 20
331.47023
 10
81.37704
 20
331.07054000000005
 10
80.59132
 20
330.68454
 10
79.79895
 20
330.31235000000004
 10
79.0002
 20
329.95408000000003
 10
78.19529
 20
329.60985
 10
77.38449
 20
329.27977000000004
 10
76.56803
 20
328.96392000000003
 10
75.74617
 20
328.66241
 10
74.91916
 20
328.37533
 10
74.08725
 20
328.10276000000005
 10
73.2507
 20
327.8448
 10
72.40976
 20
327.60152000000005
 10
71.56469
 20
327.37300000000005
 10
70.71575
 20
327.15930000000003
 10
69.8632
 20
326.96049000000005
 10
69.0073
 20
326.77663
 10
68.14832
 20
326.60778000000005
 10
67.28650999999999
 20
326.45399000000003
 10
66.42214
 20
326.31531
 10
65.55548
 20
326.19177
 10
64.68679
 20
326.08342000000005
 10
63.81634
 20
325.99030000000005
 10
62.94438
 20
325.91242
 10
62.0712
 20
325.84981000000005
 10
61.19706
 20
325.8025
 10
60.82222
 20
325.78714
 10
60.82222
 20
333.26345000000003
 10
54.82222
 20
333.26345000000003
 10
54.82222
 20
325.78878000000003
 10
54.44739
 20
325.8025
 10
53.57324
 20
325.84981000000005
 10
52.70006
 20
325.91242
 10
51.82811
 20
325.99030000000005
 10
50.95766
 20
326.08342000000005
 10
50.08897
 20
326.19177
 10
49.2223
 20
326.31531
 10
48.35794
 20
326.45399000000003
 10
47.49613
 20
326.60778000000005
 10
46.63715
 20
326.77663
 10
45.78125
 20
326.96049000000005
 10
44.9287
 20
327.15930000000003
 10
44.07976
 20
327.37300000000005
 10
43.23469
 20
327.60152000000005
 10
42.39375
 20
327.8448
 10
41.5572
 20
328.10276000000005
 10
40.72529
 20
328.37533
 10
39.89828
 20
328.66241
 10
39.07642
 20
328.96392000000003
 10
38.25996
 20
329.27977000000004
 10
37.44916
 20
329.60985
 10
36.64425
 20
329.95408000000003
 10
35.8455
 20
330.31235000000004
 10
35.053129999999996
 20
330.68454
 10
34.267399999999995
 20
331.07054000000005
 10
33.488550000000004
 20
331.47023
 10
32.716809999999995
 20
331.88349
 10
31.95243
 20
332.31019000000003
 10
31.19563
 20
332.75021000000004
 10
30.44664
 20
333.20341
 10
29.7057
 20
333.66964
 10
28.97304
 20
334.14878000000004
 10
28.24887
 20
334.64066
 10
27.53343
 20
335.14514
 10
26.82692
 20
335.66206
 10
26.12957
 20
336.19127000000003
 10
25.441580000000002
 20
336.73260000000005
 10
24.76318
 20
337.28589
 10
24.09456
 20
337.85097
 10
23.435940000000002
 20
338.42767000000003
 10
22.787509999999997
 20
339.0158
 10
22.14947
 20
339.6152
 10
21.522019999999998
 20
340.22567000000004
 10
20.90535
 20
340.84702000000004
 10
20.29965
 20
341.47907000000004
 10
19.7051
 20
342.12163000000004
 10
19.12189
 20
342.77450000000005
 10
18.5502
 20
343.43747
 10
17.9902
 20
344.11034
 10
17.442059999999998
 20
344.79292000000004
 10
16.90595
 20
345.48498
 10
16.38203
 20
346.18632
 10
15.870470000000001
 20
346.89672
 10
15.37143
 20
347.61597
 10
14.88504
 20
348.34384
 10
14.41147
 20
349.08011000000005
 10
13.95086
 20
349.82455000000004
 10
13.503350000000001
 20
350.57695
 10
13.06907
 20
351.33706
 10
12.64816
 20
352.10465
 10
12.24076
 20
352.8795
 10
11.84697
 20
353.66135
 10
11.46693
 20
354.44998000000004
 10
11.10075
 20
355.24514
 10
10.84572
 20
355.85448
 10
10.62323
 20
356.47645
 10
10.433910000000001
 20
357.1093
 10
10.27829
 20
357.75127000000003
 10
10.15679
 20
358.40056000000004
 10
10.06977
 20
359.05537000000004
 10
10.01745
 20
359.71386
 10
10.0
 20
360.37419
 10
10.0
 20
361.47737
 10
20.0
 20
361.47737
 10
20.0
 20
367.47737
 10
10.0
 20
367.47737
 10
10.0
 20
368.04269
 10
10.26454
 20
369.04624
 10
10.55913
 20
370.06422000000003
 10
10.88349
 20
371.09525
 10
11.23733
 20
372.13793000000004
 10
11.62036
 20
373.19089
 10
12.03229
 20
374.25273000000004
 10
12.47284
 20
375.32209
 10
12.94172
 20
376.39756
 10
13.30434
 20
377.19173
 10
13.68155
 20
377.988
 10
14.07311
 20
378.78592000000003
 10
14.478760000000001
 20
379.58506
 10
14.89823
 20
380.38497
 10
15.33127
 20
381.1852
 10
15.77763
 20
381.98531
 10
16.23705
 20
382.78487
 10
16.70926
 20
383.58342000000005
 10
17.194020000000002
 20
384.38053
 10
17.69106
 20
385.17575
 10
18.20013
 20
385.96864000000005
 10
18.72097
 20
386.75875
 10
19.25333
 20
387.54565
 10
19.79694
 20
388.32889
 10
20.35155
 20
389.10802
 10
20.91691
 20
389.88261
 10
21.49275
 20
390.65221
 10
22.07881
 20
391.41638
 10
22.67485
 20
392.17468
 10
23.28061
 20
392.92666
 10
23.89582
 20
393.67188
 10
24.520229999999998
 20
394.4099
 10
25.15359
 20
395.14027
 10
25.79562
 20
395.86255000000006
 10
26.44609
 20
396.5763
 10
27.10473
 20
397.28108000000003
 10
27.77129
 20
397.97645
 10
28.4455
 20
398.66195000000005
 10
29.12711
 20
399.33715
 10
29.81586
 20
400.00160000000005
 10
30.5115
 20
400.65487
 10
31.55979
 20
401.60619
 10
32.62158
 20
402.53033000000005
 10
33.695840000000004
 20
403.42612
 10
34.78154
 20
404.29238000000004
 10
35.87764
 20
405.12792
 10
36.98312
 20
405.93157
 10
38.09692
 20
406.70214000000004
 10
39.218019999999996
 20
407.43845
 10
40.345389999999995
 20
408.13934
 10
41.47799
 20
408.8036
 10
42.61479
 20
409.43007
 10
43.75474
 20
410.01756
 10
44.89682
 20
410.5649
 10
46.04
 20
411.07090000000005
 10
47.18323
 20
411.53439000000003
 10
47.75455
 20
411.74982
 10
48.32549
 20
411.95418
 10
48.92812
 20
412.15801
 10
49.52994
 20
412.34938
 10
50.13086
 20
412.52821
 10
50.7308
 20
412.69439
 10
51.32967
 20
412.84782
 10
51.92738
 20
412.98842
 10
52.52386
 20
413.11609000000004
 10
53.11901
 20
413.23072
 10
53.71275
 20
413.33223000000004
 10
54.30499
 20
413.42051000000004
 10
54.89565
 20
413.49548000000004
 10
55.48464
 20
413.55703000000005
 10
56.07188
 20
413.60507
 10
56.65728
 20
413.63951000000003
 10
57.24076
 20
413.66024000000004
 10
57.82222
 20
413.66717000000006
 10
58.40369
 20
413.66024000000004
 10
58.98717
 20
413.63951000000003
 10
59.57257
 20
413.60507
 10
60.15981
 20
413.55703000000005
 10
60.7488
 20
413.49548000000004
 10
61.33946
 20
413.42051000000004
 10
61.9317
 20
413.33223000000004
 10
62.52544
 20
413.23072
 10
63.12059
 20
413.11609000000004
 10
63.71707
 20
412.98842
 10
64.31478
 20
412.84782
 10
64.91364999999999
 20
412.69439
 10
65.51359
 20
412.52821
 10
66.11451
 20
412.34938
 10
66.71633
 20
412.15801
 10
67.31896
 20
411.95418
 10
67.8899
 20
411.74982
 10
68.46122
 20
411.53439000000003
 10
69.60445
 20
411.07090000000005
 10
70.74762
 20
410.5649
 10
71.88971000000001
 20
410.01756
 10
73.02966
 20
409.43007
 10
74.16646
 20
408.8036
 10
75.29906
 20
408.13934
 10
76.42642
 20
407.43845
 10
77.54753
 20
406.70214000000004
 10
78.66133
 20
405.93157
 10
79.7668
 20
405.12792
 10
80.86291
 20
404.29238000000004
 10
81.94861
 20
403.42612
 10
83.02287
 20
402.53033000000005
 10
84.08466
 20
401.60619
 10
85.13294
 20
400.65487
 10
85.82858
 20
400.00160000000005
 10
86.51734
 20
399.33715
 10
87.19895
 20
398.66195000000005
 10
87.87316
 20
397.97645
 10
88.53972
 20
397.28108000000003
 10
89.19836
 20
396.5763
 10
89.84882
 20
395.86255000000006
 10
90.49086
 20
395.14027
 10
91.12422
 20
394.4099
 10
91.74863
 20
393.67188
 10
92.36384
 20
392.92666
 10
92.96959
 20
392.17468
 10
93.56563
 20
391.41638
 10
94.1517
 20
390.65221
 10
94.72754
 20
389.88261
 10
95.2929
 20
389.10802
 10
95.84751
 20
388.32889
 10
96.39112
 20
387.54565
 10
96.92348
 20
386.75875
 10
97.44432
 20
385.96864000000005
 10
97.95339
 20
385.17575
 10
98.45043
 20
384.38053
 10
98.93519
 20
383.58342000000005
 10
99.4074
 20
382.78487
 10
99.86682
 20
381.98531
 10
100.31317
 20
381.1852
 10
100.74622
 20
380.38497
 10
101.16569
 20
379.58506
 10
101.57134
 20
378.78592000000003
 10
101.96289
 20
377.988
 10
102.34011
 20
377.19173
 10
102.70273
 20
376.39756
 10
103.17161
 20
375.32209
 10
103.61215
 20
374.25273000000004
 10
104.02409
 20
373.19089
 10
104.40712
 20
372.13793000000004
 10
104.76095
 20
371.09525
 10
105.08531
 20
370.06422000000003
 10
105.37991
 20
369.04624
 10
105.64445
 20
368.04269
 10
105.64445
 20
367.47737
 10
95.64444
 20
367.47737
 10
95.64444
 20
361.47737
 10
105.64444
 20
361.47737
 10
105.64445
 20
362.47737
 10
105.64445
 20
360.37419
  0
LWPOLYLINE
  5
47
330
17
100
AcDbEntity
  8
CUT
100
AcDbPolyline
 90
127
 70
1
 10
27.33785
 20
347.14171000000005
 10
28.12867
 20
346.35203
 10
28.9407
 20
345.58418
 10
29.77335
 20
344.83874000000003
 10
30.626
 20
344.11626
 10
31.49802
 20
343.41728
 10
32.38875
 20
342.74232
 10
33.29755
 20
342.09187000000003
 10
34.22372
 20
341.46642
 10
35.1666
 20
340.86644
 10
36.12547
 20
340.29237
 10
37.09962
 20
339.74464
 10
38.08834
 20
339.22365
 10
39.09088
 20
338.72979000000004
 10
40.1065
 20
338.26342
 10
75.53795
 20
338.26342
 10
76.55357
 20
338.72979000000004
 10
77.55611
 20
339.22365
 10
78.54483
 20
339.74464
 10
79.51898
 20
340.29237
 10
80.47785
 20
340.86644
 10
81.42073
 20
341.46642
 10
82.3469
 20
342.09187000000003
 10
83.2557
 20
342.74232
 10
84.14643
 20
343.41728
 10
85.01845
 20
344.11626
 10
85.8711
 20
344.83874000000003
 10
86.70375
 20
345.58418
 10
87.51578
 20
346.35203
 10
88.3066
 20
347.14171000000005
 10
89.0756
 20
347.95265
 10
89.82222
 20
348.78424
 10
89.82222
 20
381.16631
 10
89.09339
 20
382.25978000000003
 10
88.33912
 20
383.34765000000004
 10
87.56061
 20
384.42772
 10
86.75903
 20
385.49776
 10
85.93558
 20
386.55557000000005
 10
85.09146
 20
387.59894
 10
84.22784
 20
388.62566000000004
 10
83.34593
 20
389.63352000000003
 10
82.29171
 20
390.78767000000005
 10
81.21715
 20
391.9109
 10
80.6063
 20
392.52638
 10
79.99025
 20
393.13063
 10
79.16541
 20
393.91426
 10
79.01673
 20
394.05245
 10
78.42303
 20
394.59483
 10
77.82528
 20
395.12586
 10
77.22397
 20
395.64527000000004
 10
76.61958
 20
396.15275
 10
76.01262
 20
396.64802000000003
 10
75.40357
 20
397.13078
 10
74.79293
 20
397.60075
 10
74.18118
 20
398.05762000000004
 10
73.04348999999999
 20
398.87059
 10
71.90686
 20
399.63551
 10
70.77441999999999
 20
400.35051000000004
 10
70.21076
 20
400.68870000000004
 10
69.64932999999999
 20
401.01371
 10
68.8357
 20
401.46341
 10
68.02887
 20
401.88388000000003
 10
67.23006000000001
 20
402.27439000000004
 10
66.4405
 20
402.63422
 10
65.54679
 20
403.00956
 10
64.68418
 20
403.33918000000006
 10
64.27154999999999
 20
403.48513
 10
63.69653
 20
403.67572
 10
63.13096
 20
403.84838
 10
62.56744
 20
404.00545
 10
62.01342
 20
404.1449
 10
61.45578
 20
404.26985
 10
60.90791
 20
404.37708000000003
 10
60.36539
 20
404.46761000000004
 10
59.83266
 20
404.54084
 10
59.30015
 20
404.59798
 10
58.77766
 20
404.63786000000005
 10
58.29555
 20
404.65988000000004
 10
57.82222
 20
404.66717000000006
 10
57.3489
 20
404.65988000000004
 10
56.86679
 20
404.63786000000005
 10
56.3443
 20
404.59798
 10
55.81179
 20
404.54084
 10
55.27906
 20
404.46761000000004
 10
54.73654
 20
404.37708000000003
 10
54.18867
 20
404.26985
 10
53.63103
 20
404.1449
 10
53.07701
 20
404.00545
 10
52.51349
 20
403.84838
 10
51.94792
 20
403.67572
 10
51.37289
 20
403.48513
 10
50.96027
 20
403.33918000000006
 10
50.09766
 20
403.00956
 10
49.20395
 20
402.63422
 10
48.41439
 20
402.27439000000004
 10
47.61558
 20
401.88388000000003
 10
46.80875
 20
401.46341
 10
45.99512
 20
401.01371
 10
45.43369
 20
400.68870000000004
 10
44.87003
 20
400.35051000000004
 10
43.73759
 20
399.63551
 10
42.60095
 20
398.87059
 10
41.46327
 20
398.05762000000004
 10
40.85152
 20
397.60075
 10
40.240880000000004
 20
397.13078
 10
39.63183
 20
396.64802000000003
 10
39.02487
 20
396.15275
 10
38.42048
 20
395.64527000000004
 10
37.81917
 20
395.12586
 10
37.221419999999995
 20
394.59483
 10
36.62772
 20
394.05245
 10
36.47904
 20
393.91426
 10
35.6542
 20
393.13063
 10
35.03815
 20
392.52638
 10
34.4273
 20
391.9109
 10
33.35273
 20
390.78767000000005
 10
32.29851
 20
389.63352000000003
 10
31.4166
 20
388.62566000000004
 10
30.55299
 20
387.59894
 10
29.70887
 20
386.55557000000005
 10
28.88542
 20
385.49776
 10
28.08384
 20
384.42772
 10
27.30532
 20
383.34765000000004
 10
26.55105
 20
382.25978000000003
 10
25.82222
 20
381.16631
 10
25.82222
 20
348.78424
 10
26.56885
 20
347.95265
  0
LWPOLYLINE
  5
48
330
17
100
AcDbEntity
  8
CUT
100
AcDbPolyline
 90
32
 70
1
 10
22.82222
 20
382.35712
 10
22.80301
 20
382.55221
 10
22.7461
 20
382.7398
 10
22.653689999999997
 20
382.91269
 10
22.52933
 20
383.06422000000003
 10
22.377789999999997
 20
383.18859000000003
 10
22.204909999999998
 20
383.281
 10
22.017310000000002
 20
383.3379
 10
21.82222
 20
383.35712
 10
21.62713
 20
383.3379
 10
21.43954
 20
383.281
 10
21.26665
 20
383.18859000000003
 10
21.115119999999997
 20
383.06422000000003
 10
20.99075
 20
382.91269
 10
20.898339999999997
 20
382.7398
 10
20.84144
 20
382.55221
 10
20.82222
 20
382.35712
 10
20.84144
 20
382.16203
 10
20.898339999999997
 20
381.97443000000004
 10
20.99075
 20
381.80155
 10
21.115119999999997
 20
381.65001
 10
21.26665
 20
381.52565000000004
 10
21.43954
 20
381.43324
 10
21.62713
 20
381.37633000000005
 10
21.82222
 20
381.35712
 10
22.017310000000002
 20
381.37633000000005
 10
22.204909999999998
 20
381.43324
 10
22.377789999999997
 20
381.52565000000004
 10
22.52933
 20
381.65001
 10
22.653689999999997
 20
381.80155
 10
22.7461
 20
381.97443000000004
 10
22.80301
 20
382.16203
  0
LWPOLYLINE
  5
49
330
17
100
AcDbEntity
  8
CUT
100
AcDbPolyline
 90
32
 70
1
 10
58.82222
 20
408.66717000000006
 10
58.80301
 20
408.86226
 10
58.7461
 20
409.04985
 10
58.65369
 20
409.22274000000004
 10
58.52933
 20
409.37428
 10
58.37779
 20
409.49864
 10
58.20491
 20
409.59105
 10
58.01731
 20
409.64795000000004
 10
57.82222
 20
409.66717000000006
 10
57.62713
 20
409.64795000000004
 10
57.43954
 20
409.59105
 10
57.26665
 20
409.49864
 10
57.11512
 20
409.37428
 10
56.99075
 20
409.22274000000004
 10
56.89834
 20
409.04985
 10
56.84144
 20
408.86226
 10
56.82222
 20
408.66717000000006
 10
56.84144
 20
408.47208
 10
56.89834
 20
408.28449
 10
56.99075
 20
408.1116
 10
57.11512
 20
407.96006
 10
57.26665
 20
407.83570000000003
 10
57.43954
 20
407.74329
 10
57.62713
 20
407.68638000000004
 10
57.82222
 20
407.66717000000006
 10
58.01731
 20
407.68638000000004
 10
58.20491
 20
407.74329
 10
58.37779
 20
407.83570000000003
 10
58.52933
 20
407.96006
 10
58.65369
 20
408.1116
 10
58.7461
 20
408.28449
 10
58.80301
 20
408.47208
  0
LWPOLYLINE
  5
4A
330
17
100
AcDbEntity
  8
CUT
100
AcDbPolyline
 90
32
 70
1
 10
94.82222
 20
382.35712
 10
94.80301
 20
382.55221
 10
94.7461
 20
382.7398
 10
94.65369
 20
382.91269
 10
94.52933
 20
383.06422000000003
 10
94.37779
 20
383.18859000000003
 10
94.20491
 20
383.281
 10
94.01731
 20
383.3379
 10
93.82222
 20
383.35712
 10
93.62713
 20
383.3379
 10
93.43954
 20
383.281
 10
93.26665
 20
383.18859000000003
 10
93.11512
 20
383.06422000000003
 10
92.99075
 20
382.91269
 10
92.89834
 20
382.7398
 10
92.84144
 20
382.55221
 10
92.82222
 20
382.35712
 10
92.84144
 20
382.16203
 10
92.89834
 20
381.97443000000004
 10
92.99075
 20
381.80155
 10
93.11512
 20
381.65001
 10
93.26665
 20
381.52565000000004
 10
93.43954
 20
381.43324
 10
93.62713
 20
381.37633000000005
 10
93.82222
 20
381.35712
 10
94.01731
 20
381.37633000000005
 10
94.20491
 20
381.43324
 10
94.37779
 20
381.52565000000004
 10
94.52933
 20
381.65001
 10
94.65369
 20
381.80155
 10
94.7461
 20
381.97443000000004
 10
94.80301
 20
382.16203
  0
TEXT
  5
4B
330
17
100
AcDbEntity
  8
LABEL_DO_NOT_CUT
100
AcDbText
 10
97.52741499999999
 20
369.55523000000005
 30
0.0
 40
2.0
  1
A34
100
AcDbText
  0
LWPOLYLINE
  5
4C
330
17
100
AcDbEntity
  8
CUT
100
AcDbPolyline
 90
48
 70
1
 10
78.69442
 20
424.66717000000006
 10
78.69442
 20
419.66717000000006
 10
63.82222
 20
419.66717000000006
 10
63.82222
 20
424.66717000000006
 10
51.82222
 20
424.66717000000006
 10
51.82222
 20
419.66717000000006
 10
36.95003
 20
419.66717000000006
 10
36.95003
 20
424.66717000000006
 10
24.950029999999998
 20
424.66717000000006
 10
24.950029999999998
 20
419.66717000000006
 10
12.45003
 20
419.66717000000006
 10
12.09677
 20
420.3512400000001
 10
11.75409
 20
421.04067000000003
 10
11.42205
 20
421.7352900000001
 10
11.10075
 20
422.43494000000004
 10
10.84572
 20
423.0442800000001
 10
10.62323
 20
423.66625000000005
 10
10.433910000000001
 20
424.29910000000007
 10
10.27829
 20
424.9410700000001
 10
10.15679
 20
425.59036000000003
 10
10.06977
 20
426.24517000000003
 10
10.01745
 20
426.9036500000001
 10
10.0
 20
427.56399000000005
 10
10.0
 20
429.66717000000006
 10
20.49999
 20
429.66717000000006
 10
20.49999
 20
434.66717000000006
 10
15.32218
 20
434.66717000000006
 10
15.32218
 20
444.66717000000006
 10
100.32222
 20
444.66717000000006
 10
100.32222
 20
434.66717000000006
 10
95.14444
 20
434.66717000000006
 10
95.14444
 20
429.66717000000006
 10
105.64445
 20
429.66717000000006
 10
105.64445
 20
427.56399000000005
 10
105.627
 20
426.9036500000001
 10
105.57468
 20
426.24517000000003
 10
105.48766
 20
425.59036000000003
 10
105.36616
 20
424.9410700000001
 10
105.21054
 20
424.29910000000007
 10
105.02122
 20
423.66625000000005
 10
104.79873
 20
423.0442800000001
 10
104.5437
 20
422.43494000000004
 10
104.22239
 20
421.7352900000001
 10
103.89036
 20
421.04067000000003
 10
103.54768
 20
420.3512400000001
 10
103.19442
 20
419.66717000000006
 10
90.69442
 20
419.66717000000006
 10
90.69442
 20
424.66717000000006
  0
TEXT
  5
4D
330
17
100
AcDbEntity
  8
LABEL_DO_NOT_CUT
100
AcDbText
 10
57.822215
 20
432.16717000000006
 30
0.0
 40
2.0
  1
A25
100
AcDbText
  0
LWPOLYLINE
  5
4E
330
17
100
AcDbEntity
  8
CUT
100
AcDbPolyline
 90
30
 70
1
 10
197.50258000000002
 20
325.93028000000004
 10
120.96529000000001
 20
325.78714
 10
115.96021
 20
330.77812
 10
111.65078000000001
 20
330.77036000000004
 10
111.64445
 20
338.41821000000004
 10
113.82249
 20
338.16034
 10
115.99885
 20
337.88868
 10
120.94856
 20
342.21787
 10
120.94826
 20
342.51294
 10
123.77954000000001
 20
342.12686
 10
126.71813
 20
341.70204
 10
129.76315
 20
341.23748
 10
132.91369
 20
340.73215000000005
 10
136.16887
 20
340.18507
 10
139.5278
 20
339.59522000000004
 10
142.98958000000002
 20
338.96160000000003
 10
146.55334
 20
338.28319000000005
 10
150.21816
 20
337.559
 10
153.98318
 20
336.78801000000004
 10
157.84748000000002
 20
335.96922
 10
161.81019
 20
335.10162
 10
165.87042
 20
334.18421
 10
170.02726
 20
333.21598
 10
174.27984
 20
332.19591
 10
178.62725
 20
331.12301
 10
181.75173
 20
330.33264
 10
184.73794
 20
329.56229
 10
190.13544000000002
 20
328.13669000000004
 10
194.4995
 20
326.95631000000003
 10
197.50984
 20
326.13122000000004
  0
LWPOLYLINE
  5
4F
330
17
100
AcDbEntity
  8
CUT
100
AcDbPolyline
 90
32
 70
1
 10
130.95738
 20
333.596
 10
130.93817
 20
333.79109
 10
130.88126
 20
333.97869000000003
 10
130.78885
 20
334.15157000000005
 10
130.66449
 20
334.30311
 10
130.51295000000002
 20
334.42747
 10
130.34007
 20
334.51988
 10
130.15247
 20
334.57679
 10
129.95738
 20
334.596
 10
129.76229
 20
334.57679
 10
129.5747
 20
334.51988
 10
129.40181
 20
334.42747
 10
129.25028
 20
334.30311
 10
129.12591
 20
334.15157000000005
 10
129.0335
 20
333.97869000000003
 10
128.97660000000002
 20
333.79109
 10
128.95738
 20
333.596
 10
128.97660000000002
 20
333.40091
 10
129.0335
 20
333.21332
 10
129.12591
 20
333.04043
 10
129.25028
 20
332.88890000000004
 10
129.40181
 20
332.76453000000004
 10
129.5747
 20
332.67212
 10
129.76229
 20
332.61522
 10
129.95738
 20
332.596
 10
130.15247
 20
332.61522
 10
130.34007
 20
332.67212
 10
130.51295000000002
 20
332.76453000000004
 10
130.66449
 20
332.88890000000004
 10
130.78885
 20
333.04043
 10
130.88126
 20
333.21332
 10
130.93817
 20
333.40091
  0
TEXT
  5
50
330
17
100
AcDbEntity
  8
LABEL_DO_NOT_CUT
100
AcDbText
 10
148.60835677806395
 20
334.06513000000007
 30
0.0
 40
2.0
  1
A53_L
100
AcDbText
  0
LWPOLYLINE
  5
51
330
17
100
AcDbEntity
  8
CUT
100
AcDbPolyline
 90
30
 70
1
 10
197.50984
 20
364.89466000000004
 10
194.4995
 20
364.06957
 10
190.13544000000002
 20
362.88919000000004
 10
184.73794
 20
361.46359
 10
181.75173
 20
360.69324
 10
178.62725
 20
359.90286000000003
 10
174.27984
 20
358.82996
 10
170.02726
 20
357.8099
 10
165.87042
 20
356.84167
 10
161.81019
 20
355.92425000000003
 10
157.84748000000002
 20
355.05666
 10
153.98318
 20
354.23787
 10
150.21816
 20
353.46688
 10
146.55334
 20
352.74268
 10
142.98958000000002
 20
352.06428
 10
139.5278
 20
351.43065
 10
136.16887
 20
350.8408
 10
132.91369
 20
350.29372
 10
129.76315
 20
349.7884
 10
126.71813
 20
349.32384
 10
123.77954000000001
 20
348.89902
 10
120.94826
 20
348.51294
 10
120.94856
 20
348.80801
 10
115.99885
 20
353.1372
 10
113.82249
 20
352.86553000000004
 10
111.64445
 20
352.60766
 10
111.65078000000001
 20
360.25552
 10
115.96021
 20
360.24776
 10
120.96529000000001
 20
365.23874
 10
197.50258000000002
 20
365.0956
  0
LWPOLYLINE
  5
52
330
17
100
AcDbEntity
  8
CUT
100
AcDbPolyline
 90
32
 70
1
 10
130.95738
 20
357.42988
 10
130.93817
 20
357.62497
 10
130.88126
 20
357.81256
 10
130.78885
 20
357.98545
 10
130.66449
 20
358.13698
 10
130.51295000000002
 20
358.26135
 10
130.34007
 20
358.35375
 10
130.15247
 20
358.41066
 10
129.95738
 20
358.42988
 10
129.76229
 20
358.41066
 10
129.5747
 20
358.35375
 10
129.40181
 20
358.26135
 10
129.25028
 20
358.13698
 10
129.12591
 20
357.98545
 10
129.0335
 20
357.81256
 10
128.97660000000002
 20
357.62497
 10
128.95738
 20
357.42988
 10
128.97660000000002
 20
357.23479000000003
 10
129.0335
 20
357.04719
 10
129.12591
 20
356.87431000000004
 10
129.25028
 20
356.72277
 10
129.40181
 20
356.59841
 10
129.5747
 20
356.50600000000003
 10
129.76229
 20
356.44909
 10
129.95738
 20
356.42988
 10
130.15247
 20
356.44909
 10
130.34007
 20
356.50600000000003
 10
130.51295000000002
 20
356.59841
 10
130.66449
 20
356.72277
 10
130.78885
 20
356.87431000000004
 10
130.88126
 20
357.04719
 10
130.93817
 20
357.23479000000003
  0
TEXT
  5
53
330
17
100
AcDbEntity
  8
LABEL_DO_NOT_CUT
100
AcDbText
 10
148.6083567780641
 20
356.96075
 30
0.0
 40
2.0
  1
A53_R
100
AcDbText
  0
LWPOLYLINE
  5
54
330
17
100
AcDbEntity
  8
CUT
100
AcDbPolyline
 90
31
 70
1
 10
122.33704
 20
383.98987
 10
122.33675000000001
 20
384.27321
 10
124.69509000000001
 20
383.95838000000003
 10
127.04910000000001
 20
383.62421
 10
129.39608
 20
383.27212000000003
 10
131.73337
 20
382.90348
 10
134.05827
 20
382.51969
 10
136.36811
 20
382.12213
 10
138.66019
 20
381.7122
 10
140.93185
 20
381.29129
 10
143.18040000000002
 20
380.86078000000003
 10
145.40315
 20
380.42206
 10
147.59743
 20
379.97653
 10
149.76055000000002
 20
379.52557
 10
151.88984
 20
379.07057000000003
 10
153.9826
 20
378.61293
 10
158.04783
 20
377.69526
 10
161.93479000000002
 20
376.78367000000003
 10
165.62203
 20
375.88929
 10
169.08809000000002
 20
375.02323
 10
172.31152
 20
374.19661
 10
175.27086
 20
373.42054
 10
177.94465000000002
 20
372.70614
 10
182.34978
 20
371.50682
 10
182.34416
 20
371.35144
 10
122.35002
 20
371.23874
 10
122.34998
 20
371.28394000000003
 10
117.34489
 20
376.27594
 10
111.64768000000001
 20
376.26682
 10
111.64445
 20
380.16166
 10
117.37186000000001
 20
379.53430000000003
  0
LWPOLYLINE
  5
55
330
17
100
AcDbEntity
  8
CUT
100
AcDbPolyline
 90
32
 70
1
 10
132.44626
 20
376.97983
 10
132.42705
 20
377.17492
 10
132.37014
 20
377.36251
 10
132.27773000000002
 20
377.5354
 10
132.15337
 20
377.68693
 10
132.00183
 20
377.8113
 10
131.82894000000002
 20
377.90371
 10
131.64135000000002
 20
377.96061000000003
 10
131.44626
 20
377.97983
 10
131.25117
 20
377.96061000000003
 10
131.06358
 20
377.90371
 10
130.89069
 20
377.8113
 10
130.73915
 20
377.68693
 10
130.61479
 20
377.5354
 10
130.52238
 20
377.36251
 10
130.46548
 20
377.17492
 10
130.44626
 20
376.97983
 10
130.46548
 20
376.78474
 10
130.52238
 20
376.59714
 10
130.61479
 20
376.42426
 10
130.73915
 20
376.27272
 10
130.89069
 20
376.14836
 10
131.06358
 20
376.05595
 10
131.25117
 20
375.99904
 10
131.44626
 20
375.97983
 10
131.64135000000002
 20
375.99904
 10
131.82894000000002
 20
376.05595
 10
132.00183
 20
376.14836
 10
132.15337
 20
376.27272
 10
132.27773000000002
 20
376.42426
 10
132.37014
 20
376.59714
 10
132.42705
 20
376.78474
  0
TEXT
  5
56
330
17
100
AcDbEntity
  8
LABEL_DO_NOT_CUT
100
AcDbText
 10
144.93166477544608
 20
377.75328
 30
0.0
 40
2.0
  1
A10_R
100
AcDbText
  0
LWPOLYLINE
  5
57
330
17
100
AcDbEntity
  8
CUT
100
AcDbPolyline
 90
29
 70
1
 10
117.18864
 20
390.40602
 10
113.80505000000001
 20
390.30143
 10
112.64052000000001
 20
390.27321
 10
112.65313
 20
405.45459
 10
111.64445
 20
405.45543
 10
111.64448
 20
405.49168000000003
 10
121.64513000000001
 20
405.4744
 10
137.05695
 20
405.45064
 10
144.05313
 20
405.43777
 10
144.04298
 20
393.21513
 10
150.03611
 20
393.21015
 10
150.03599
 20
393.06903
 10
148.52782000000002
 20
392.88857
 10
147.75922
 20
392.79833
 10
146.25554
 20
392.62542
 10
143.27129000000002
 20
392.29682
 10
140.34403
 20
391.99435
 10
138.90988000000002
 20
391.85367
 10
137.50089
 20
391.72046
 10
134.72488
 20
391.47292
 10
134.00482
 20
391.412
 10
132.90557
 20
391.32165000000003
 10
131.79027000000002
 20
391.23334
 10
128.76236
 20
391.01106
 10
125.86201000000001
 20
390.82276
 10
124.81045
 20
390.76057000000003
 10
123.77329
 20
390.70238
 10
121.55325
 20
390.5884
 10
119.41683
 20
390.49224
  0
LWPOLYLINE
  5
58
330
17
100
AcDbEntity
  8
CUT
100
AcDbPolyline
 90
50
 70
1
 10
130.34233
 20
398.55692
 10
130.32262
 20
398.87026000000003
 10
130.26379
 20
399.17865
 10
130.16677
 20
399.47723
 10
130.0331
 20
399.76131
 10
129.86487
 20
400.02639
 10
129.66475
 20
400.26829
 10
129.43589
 20
400.48321
 10
129.1819
 20
400.66774
 10
128.90678
 20
400.81899
 10
128.61487
 20
400.93456000000003
 10
128.31078
 20
401.01264000000003
 10
127.9993
 20
401.05199
 10
127.68535
 20
401.05199
 10
127.37388000000001
 20
401.01264000000003
 10
127.06979000000001
 20
400.93456000000003
 10
126.77788000000001
 20
400.81899
 10
126.50276000000001
 20
400.66774
 10
126.24877000000001
 20
400.48321
 10
126.01991000000001
 20
400.26829
 10
125.81979000000001
 20
400.02639
 10
125.65156
 20
399.76131
 10
125.51789000000001
 20
399.47723
 10
125.42087000000001
 20
399.17865
 10
125.36204000000001
 20
398.87026000000003
 10
125.34233
 20
398.55692
 10
125.36204000000001
 20
398.24359
 10
125.42087000000001
 20
397.9352
 10
125.51789000000001
 20
397.63661
 10
125.65156
 20
397.35254000000003
 10
125.81979000000001
 20
397.08746
 10
126.01991000000001
 20
396.84556
 10
126.24877000000001
 20
396.63064
 10
126.50276000000001
 20
396.4461
 10
126.77788000000001
 20
396.29486
 10
127.06979000000001
 20
396.17928
 10
127.37388000000001
 20
396.10121
 10
127.68535
 20
396.06186
 10
127.9993
 20
396.06186
 10
128.31078
 20
396.10121
 10
128.61487
 20
396.17928
 10
128.90678
 20
396.29486
 10
129.1819
 20
396.4461
 10
129.43589
 20
396.63064
 10
129.66475
 20
396.84556
 10
129.86487
 20
397.08746
 10
130.0331
 20
397.35254000000003
 10
130.16677
 20
397.63661
 10
130.26379
 20
397.9352
 10
130.32262
 20
398.24359
  0
TEXT
  5
59
330
17
100
AcDbEntity
  8
LABEL_DO_NOT_CUT
100
AcDbText
 10
137.1310278455657
 20
397.785905
 30
0.0
 40
2.0
  1
A01_L
100
AcDbText
  0
LWPOLYLINE
  5
5A
330
17
100
AcDbEntity
  8
CUT
100
AcDbPolyline
 90
29
 70
1
 10
119.41683
 20
426.49113000000006
 10
121.55325
 20
426.39496
 10
123.77329
 20
426.28099000000003
 10
124.81045
 20
426.2228
 10
125.86201000000001
 20
426.16061
 10
128.76236
 20
425.9723
 10
131.79027000000002
 20
425.75002
 10
132.90557
 20
425.66171
 10
134.00482
 20
425.57137
 10
134.72488
 20
425.51044
 10
137.50089
 20
425.26291000000003
 10
138.90988000000002
 20
425.1297
 10
140.34403
 20
424.98902000000004
 10
143.27129000000002
 20
424.68654000000004
 10
146.25554
 20
424.35794000000004
 10
147.75922
 20
424.18503000000004
 10
148.52782000000002
 20
424.0948
 10
150.03599
 20
423.91433
 10
150.03611
 20
423.77321
 10
144.04298
 20
423.76823
 10
144.05313
 20
411.54560000000004
 10
137.05695
 20
411.53273
 10
121.64513000000001
 20
411.50896000000006
 10
111.64448
 20
411.49168000000003
 10
111.64445
 20
411.52793
 10
112.65313
 20
411.52877
 10
112.64052000000001
 20
426.71015000000006
 10
113.80505000000001
 20
426.68193
 10
117.18864
 20
426.57734000000005
  0
LWPOLYLINE
  5
5B
330
17
100
AcDbEntity
  8
CUT
100
AcDbPolyline
 90
50
 70
1
 10
130.34233
 20
418.42644
 10
130.32262
 20
418.73977
 10
130.26379
 20
419.04816000000005
 10
130.16677
 20
419.34675000000004
 10
130.0331
 20
419.63082
 10
129.86487
 20
419.89590000000004
 10
129.66475
 20
420.13781000000006
 10
129.43589
 20
420.35272000000003
 10
129.1819
 20
420.53726
 10
128.90678
 20
420.68851
 10
128.61487
 20
420.80408000000006
 10
128.31078
 20
420.88216000000006
 10
127.9993
 20
420.92151
 10
127.68535
 20
420.92151
 10
127.37388000000001
 20
420.88216000000006
 10
127.06979000000001
 20
420.80408000000006
 10
126.77788000000001
 20
420.68851
 10
126.50276000000001
 20
420.53726
 10
126.24877000000001
 20
420.35272000000003
 10
126.01991000000001
 20
420.13781000000006
 10
125.81979000000001
 20
419.89590000000004
 10
125.65156
 20
419.63082
 10
125.51789000000001
 20
419.34675000000004
 10
125.42087000000001
 20
419.04816000000005
 10
125.36204000000001
 20
418.73977
 10
125.34233
 20
418.42644
 10
125.36204000000001
 20
418.11311
 10
125.42087000000001
 20
417.80471000000006
 10
125.51789000000001
 20
417.50613000000004
 10
125.65156
 20
417.22206000000006
 10
125.81979000000001
 20
416.95698000000004
 10
126.01991000000001
 20
416.71507
 10
126.24877000000001
 20
416.50016000000005
 10
126.50276000000001
 20
416.31562
 10
126.77788000000001
 20
416.16437
 10
127.06979000000001
 20
416.0488
 10
127.37388000000001
 20
415.97072000000003
 10
127.68535
 20
415.93137
 10
127.9993
 20
415.93137
 10
128.31078
 20
415.97072000000003
 10
128.61487
 20
416.0488
 10
128.90678
 20
416.16437
 10
129.1819
 20
416.31562
 10
129.43589
 20
416.50016000000005
 10
129.66475
 20
416.71507
 10
129.86487
 20
416.95698000000004
 10
130.0331
 20
417.22206000000006
 10
130.16677
 20
417.50613000000004
 10
130.26379
 20
417.80471000000006
 10
130.32262
 20
418.11311
  0
TEXT
  5
5C
330
17
100
AcDbEntity
  8
LABEL_DO_NOT_CUT
100
AcDbText
 10
137.13102784711842
 20
419.19745500000005
 30
0.0
 40
2.0
  1
A01_R
100
AcDbText
  0
TEXT
  5
5D
330
17
100
AcDbEntity
  8
LABEL_DO_NOT_CUT
100
AcDbText
 10
10.0
 20
3.0
 30
0.0
 40
2.5
  1
NOMINAL 6 mm | GRAIN ALONG 609.6 mm EDGE | 1:1 MILLIMETRES
100
AcDbText
  0
ENDSEC
  0
SECTION
  2
OBJECTS
  0
DICTIONARY
  5
A
330
0
100
AcDbDictionary
281
1
  3
ACAD_COLOR
350
B
  3
ACAD_GROUP
350
C
  3
ACAD_LAYOUT
350
D
  3
ACAD_MATERIAL
350
E
  3
ACAD_MLEADERSTYLE
350
F
  3
ACAD_MLINESTYLE
350
10
  3
ACAD_PLOTSETTINGS
350
11
  3
ACAD_PLOTSTYLENAME
350
12
  3
ACAD_SCALELIST
350
14
  3
ACAD_TABLESTYLE
350
15
  3
ACAD_VISUALSTYLE
350
16
  3
EZDXF_META
350
2D
  0
DICTIONARY
  5
B
330
A
100
AcDbDictionary
281
1
  0
DICTIONARY
  5
C
330
A
100
AcDbDictionary
281
1
  0
DICTIONARY
  5
D
330
A
100
AcDbDictionary
281
1
  3
Model
350
1A
  3
Layout1
350
1E
  0
DICTIONARY
  5
E
330
A
100
AcDbDictionary
281
1
  3
ByBlock
350
1F
  3
ByLayer
350
20
  3
Global
350
21
  0
DICTIONARY
  5
F
330
A
100
AcDbDictionary
281
1
  3
Standard
350
2C
  0
DICTIONARY
  5
10
330
A
100
AcDbDictionary
281
1
  3
Standard
350
22
  0
DICTIONARY
  5
11
330
A
100
AcDbDictionary
281
1
  0
ACDBDICTIONARYWDFLT
  5
12
330
A
100
AcDbDictionary
281
1
  3
Normal
350
13
100
AcDbDictionaryWithDefault
340
13
  0
ACDBPLACEHOLDER
  5
13
330
12
  0
DICTIONARY
  5
14
330
A
100
AcDbDictionary
281
1
  0
DICTIONARY
  5
15
330
A
100
AcDbDictionary
281
1
  0
DICTIONARY
  5
16
330
A
100
AcDbDictionary
281
1
  0
LAYOUT
  5
1A
330
D
100
AcDbPlotSettings
  1

  4
A3
  6

 40
7.5
 41
20.0
 42
7.5
 43
20.0
 44
420.0
 45
297.0
 46
0.0
 47
0.0
 48
0.0
 49
0.0
140
0.0
141
0.0
142
1.0
143
1.0
 70
1024
 72
1
 73
0
 74
5
  7

 75
16
 76
0
 77
2
 78
300
147
1.0
148
0.0
149
0.0
100
AcDbLayout
  1
Model
 70
1
 71
0
 10
0.0
 20
0.0
 11
420.0
 21
297.0
 12
0.0
 22
0.0
 32
0.0
 14
1e+20
 24
1e+20
 34
1e+20
 15
-1e+20
 25
-1e+20
 35
-1e+20
146
0.0
 13
0.0
 23
0.0
 33
0.0
 16
1.0
 26
0.0
 36
0.0
 17
0.0
 27
1.0
 37
0.0
 76
1
330
17
  0
LAYOUT
  5
1E
330
D
100
AcDbPlotSettings
  1

  4
A3
  6

 40
7.5
 41
20.0
 42
7.5
 43
20.0
 44
420.0
 45
297.0
 46
0.0
 47
0.0
 48
0.0
 49
0.0
140
0.0
141
0.0
142
1.0
143
1.0
 70
0
 72
1
 73
0
 74
5
  7

 75
16
 76
0
 77
2
 78
300
147
1.0
148
0.0
149
0.0
100
AcDbLayout
  1
Layout1
 70
1
 71
1
 10
0.0
 20
0.0
 11
420.0
 21
297.0
 12
0.0
 22
0.0
 32
0.0
 14
1e+20
 24
1e+20
 34
1e+20
 15
-1e+20
 25
-1e+20
 35
-1e+20
146
0.0
 13
0.0
 23
0.0
 33
0.0
 16
1.0
 26
0.0
 36
0.0
 17
0.0
 27
1.0
 37
0.0
 76
1
330
1B
  0
MATERIAL
  5
1F
102
{ACAD_REACTORS
330
E
102
}
330
E
100
AcDbMaterial
  1
ByBlock
  2

 70
0
 40
1.0
 71
1
 41
1.0
 91
-1023410177
 42
1.0
 72
1
  3

 73
1
 74
1
 75
1
 44
0.5
 73
0
 45
1.0
 46
1.0
 77
1
  4

 78
1
 79
1
170
1
 48
1.0
171
1
  6

172
1
173
1
174
1
140
1.0
141
1.0
175
1
  7

176
1
177
1
178
1
143
1.0
179
1
  8

270
1
271
1
272
1
145
1.0
146
1.0
273
1
  9

274
1
275
1
276
1
 42
1.0
 72
1
  3

 73
1
 74
1
 75
1
 94
63
  0
MATERIAL
  5
20
102
{ACAD_REACTORS
330
E
102
}
330
E
100
AcDbMaterial
  1
ByLayer
  2

 70
0
 40
1.0
 71
1
 41
1.0
 91
-1023410177
 42
1.0
 72
1
  3

 73
1
 74
1
 75
1
 44
0.5
 73
0
 45
1.0
 46
1.0
 77
1
  4

 78
1
 79
1
170
1
 48
1.0
171
1
  6

172
1
173
1
174
1
140
1.0
141
1.0
175
1
  7

176
1
177
1
178
1
143
1.0
179
1
  8

270
1
271
1
272
1
145
1.0
146
1.0
273
1
  9

274
1
275
1
276
1
 42
1.0
 72
1
  3

 73
1
 74
1
 75
1
 94
63
  0
MATERIAL
  5
21
102
{ACAD_REACTORS
330
E
102
}
330
E
100
AcDbMaterial
  1
Global
  2

 70
0
 40
1.0
 71
1
 41
1.0
 91
-1023410177
 42
1.0
 72
1
  3

 73
1
 74
1
 75
1
 44
0.5
 73
0
 45
1.0
 46
1.0
 77
1
  4

 78
1
 79
1
170
1
 48
1.0
171
1
  6

172
1
173
1
174
1
140
1.0
141
1.0
175
1
  7

176
1
177
1
178
1
143
1.0
179
1
  8

270
1
271
1
272
1
145
1.0
146
1.0
273
1
  9

274
1
275
1
276
1
 42
1.0
 72
1
  3

 73
1
 74
1
 75
1
 94
63
  0
MLINESTYLE
  5
22
102
{ACAD_REACTORS
330
10
102
}
330
10
100
AcDbMlineStyle
  2
Standard
 70
0
  3

 62
256
 51
90.0
 52
90.0
 71
2
 49
0.5
 62
256
  6
BYLAYER
 49
-0.5
 62
256
  6
BYLAYER
  0
MLEADERSTYLE
  5
2C
102
{ACAD_REACTORS
330
F
102
}
330
F
100
AcDbMLeaderStyle
179
2
170
2
171
1
172
0
 90
2
 40
0.0
 41
0.0
173
1
 91
-1056964608
 92
-2
290
1
 42
2.0
291
1
 43
8.0
  3
Standard
 44
4.0
300

342
29
174
1
175
1
176
0
178
1
 93
-1056964608
 45
4.0
292
0
297
0
 46
4.0
 94
-1056964608
 47
1.0
 49
1.0
140
1.0
294
1
141
0.0
177
0
142
1.0
295
0
296
0
143
3.75
271
0
272
9
273
9
  0
DICTIONARY
  5
2D
330
A
100
AcDbDictionary
280
1
281
1
  3
CREATED_BY_EZDXF
350
2E
  3
WRITTEN_BY_EZDXF
350
60
  0
DICTIONARYVAR
  5
2E
330
2D
100
DictionaryVariables
280
0
  1
1.4.4 @ 2026-09-23T20:17:04.397717+00:00
  0
DICTIONARYVAR
  5
60
330
2D
100
DictionaryVariables
280
0
  1
1.4.4 @ 2026-09-23T20:17:04.525782+00:00
  0
ENDSEC
  0
EOF
