ISO-10303-21;
HEADER;
FILE_DESCRIPTION(('Open CASCADE Model'),'2;1');
FILE_NAME('Open CASCADE Shape Model','2026-09-24T01:49:23',('Author'),(
    'Open CASCADE'),'Open CASCADE STEP processor 7.9','Open CASCADE 7.9'
  ,'Unknown');
FILE_SCHEMA(('AUTOMOTIVE_DESIGN { 1 0 10303 214 1 1 1 1 }'));
ENDSEC;
DATA;
#1 = APPLICATION_PROTOCOL_DEFINITION('international standard',
  'automotive_design',2000,#2);
#2 = APPLICATION_CONTEXT(
  'core data for automotive mechanical design processes');
#3 = SHAPE_DEFINITION_REPRESENTATION(#4,#10);
#4 = PRODUCT_DEFINITION_SHAPE('','',#5);
#5 = PRODUCT_DEFINITION('design','',#6,#9);
#6 = PRODUCT_DEFINITION_FORMATION('','',#7);
#7 = PRODUCT('Open CASCADE STEP translator 7.9 11',
  'Open CASCADE STEP translator 7.9 11','',(#8));
#8 = PRODUCT_CONTEXT('',#2,'mechanical');
#9 = PRODUCT_DEFINITION_CONTEXT('part definition',#2,'design');
#10 = ADVANCED_BREP_SHAPE_REPRESENTATION('',(#11,#15),#1527);
#11 = AXIS2_PLACEMENT_3D('',#12,#13,#14);
#12 = CARTESIAN_POINT('',(0.,0.,0.));
#13 = DIRECTION('',(0.,0.,1.));
#14 = DIRECTION('',(1.,0.,-0.));
#15 = MANIFOLD_SOLID_BREP('',#16);
#16 = CLOSED_SHELL('',(#17,#558,#634,#683,#733,#781,#828,#875,#924,#972,
    #1019,#1064,#1114,#1164,#1213,#1262,#1316,#1370,#1419,#1473,#1505));
#17 = ADVANCED_FACE('',(#18),#32,.F.);
#18 = FACE_BOUND('',#19,.F.);
#19 = EDGE_LOOP('',(#20,#55,#84,#113,#141,#170,#199,#227,#255,#284,#313,
    #339,#365,#394,#422,#448,#474,#503,#532));
#20 = ORIENTED_EDGE('',*,*,#21,.F.);
#21 = EDGE_CURVE('',#22,#24,#26,.T.);
#22 = VERTEX_POINT('',#23);
#23 = CARTESIAN_POINT('',(-53.11821750134,-130.,-5.973242262736E-10));
#24 = VERTEX_POINT('',#25);
#25 = CARTESIAN_POINT('',(-47.82220285453,-130.,-3.889761183817E-10));
#26 = SURFACE_CURVE('',#27,(#31,#43),.PCURVE_S1.);
#27 = LINE('',#28,#29);
#28 = CARTESIAN_POINT('',(5.560147585695E-04,-130.,1.423892254104E-09));
#29 = VECTOR('',#30,1.);
#30 = DIRECTION('',(1.,1.727784582073E-15,1.42108547152E-13));
#31 = PCURVE('',#32,#37);
#32 = PLANE('',#33);
#33 = AXIS2_PLACEMENT_3D('',#34,#35,#36);
#34 = CARTESIAN_POINT('',(5.560147618881E-04,-130.,-23.35247342396));
#35 = DIRECTION('',(1.727784582073E-15,-1.,-1.224646799147E-16));
#36 = DIRECTION('',(1.,1.727784582073E-15,0.));
#37 = DEFINITIONAL_REPRESENTATION('',(#38),#42);
#38 = LINE('',#39,#40);
#39 = CARTESIAN_POINT('',(-3.318599952132E-12,23.352473425384));
#40 = VECTOR('',#41,1.);
#41 = DIRECTION('',(1.,1.42108547152E-13));
#42 = ( GEOMETRIC_REPRESENTATION_CONTEXT(2) 
PARAMETRIC_REPRESENTATION_CONTEXT() REPRESENTATION_CONTEXT('2D SPACE',''
  ) );
#43 = PCURVE('',#44,#49);
#44 = PLANE('',#45);
#45 = AXIS2_PLACEMENT_3D('',#46,#47,#48);
#46 = CARTESIAN_POINT('',(2.161396139844E-05,-232.5,1.42387912743E-09));
#47 = DIRECTION('',(-1.42108547152E-13,-1.224646799152E-16,1.));
#48 = DIRECTION('',(-1.,-1.727784582073E-15,-1.42108547152E-13));
#49 = DEFINITIONAL_REPRESENTATION('',(#50),#54);
#50 = LINE('',#51,#52);
#51 = CARTESIAN_POINT('',(-5.344007973482E-04,-102.5));
#52 = VECTOR('',#53,1.);
#53 = DIRECTION('',(-1.,-4.833782528663E-32));
#54 = ( GEOMETRIC_REPRESENTATION_CONTEXT(2) 
PARAMETRIC_REPRESENTATION_CONTEXT() REPRESENTATION_CONTEXT('2D SPACE',''
  ) );
#55 = ORIENTED_EDGE('',*,*,#56,.T.);
#56 = EDGE_CURVE('',#22,#57,#59,.T.);
#57 = VERTEX_POINT('',#58);
#58 = CARTESIAN_POINT('',(-51.28114952627,-130.,-14.28385337883));
#59 = SURFACE_CURVE('',#60,(#65,#72),.PCURVE_S1.);
#60 = CIRCLE('',#61,54.939681621467);
#61 = AXIS2_PLACEMENT_3D('',#62,#63,#64);
#62 = CARTESIAN_POINT('',(1.821120787472,-130.,-0.194229388342));
#63 = DIRECTION('',(1.727784582072E-15,-1.,-1.224646799149E-16));
#64 = DIRECTION('',(-0.999993750735,-1.728206736592E-15,
    3.535320591828E-03));
#65 = PCURVE('',#32,#66);
#66 = DEFINITIONAL_REPRESENTATION('',(#67),#71);
#67 = CIRCLE('',#68,54.939681621467);
#68 = AXIS2_PLACEMENT_2D('',#69,#70);
#69 = CARTESIAN_POINT('',(1.82056477271,23.158244035618));
#70 = DIRECTION('',(-0.999993750735,3.535320591828E-03));
#71 = ( GEOMETRIC_REPRESENTATION_CONTEXT(2) 
PARAMETRIC_REPRESENTATION_CONTEXT() REPRESENTATION_CONTEXT('2D SPACE',''
  ) );
#72 = PCURVE('',#73,#78);
#73 = CYLINDRICAL_SURFACE('',#74,54.939681621467);
#74 = AXIS2_PLACEMENT_3D('',#75,#76,#77);
#75 = CARTESIAN_POINT('',(1.821120787472,-130.,-0.194229388342));
#76 = DIRECTION('',(1.71116943245E-15,-1.,-1.224646799149E-16));
#77 = DIRECTION('',(-0.999993750735,-1.711591690803E-15,
    3.535320591828E-03));
#78 = DEFINITIONAL_REPRESENTATION('',(#79),#83);
#79 = LINE('',#80,#81);
#80 = CARTESIAN_POINT('',(0.,0.));
#81 = VECTOR('',#82,1.);
#82 = DIRECTION('',(1.,0.));
#83 = ( GEOMETRIC_REPRESENTATION_CONTEXT(2) 
PARAMETRIC_REPRESENTATION_CONTEXT() REPRESENTATION_CONTEXT('2D SPACE',''
  ) );
#84 = ORIENTED_EDGE('',*,*,#85,.T.);
#85 = EDGE_CURVE('',#57,#86,#88,.T.);
#86 = VERTEX_POINT('',#87);
#87 = CARTESIAN_POINT('',(-2.639059879656,-130.,-46.70494684755));
#88 = SURFACE_CURVE('',#89,(#94,#101),.PCURVE_S1.);
#89 = CIRCLE('',#90,55.017301357235);
#90 = AXIS2_PLACEMENT_3D('',#91,#92,#93);
#91 = CARTESIAN_POINT('',(-1.108682190093,-130.,8.291065669354));
#92 = DIRECTION('',(1.727784582073E-15,-1.,-1.224646799147E-16));
#93 = DIRECTION('',(-0.911939809814,-1.525385346107E-15,-0.410323997929)
  );
#94 = PCURVE('',#32,#95);
#95 = DEFINITIONAL_REPRESENTATION('',(#96),#100);
#96 = CIRCLE('',#97,55.017301357235);
#97 = AXIS2_PLACEMENT_2D('',#98,#99);
#98 = CARTESIAN_POINT('',(-1.109238204855,31.643539093314));
#99 = DIRECTION('',(-0.911939809814,-0.410323997929));
#100 = ( GEOMETRIC_REPRESENTATION_CONTEXT(2) 
PARAMETRIC_REPRESENTATION_CONTEXT() REPRESENTATION_CONTEXT('2D SPACE',''
  ) );
#101 = PCURVE('',#102,#107);
#102 = CYLINDRICAL_SURFACE('',#103,55.017301357235);
#103 = AXIS2_PLACEMENT_3D('',#104,#105,#106);
#104 = CARTESIAN_POINT('',(-1.108682190093,-130.,8.291065669354));
#105 = DIRECTION('',(1.71116943245E-15,-1.,-1.224646799149E-16));
#106 = DIRECTION('',(-0.911939809814,-1.51023332972E-15,-0.410323997929)
  );
#107 = DEFINITIONAL_REPRESENTATION('',(#108),#112);
#108 = LINE('',#109,#110);
#109 = CARTESIAN_POINT('',(0.,0.));
#110 = VECTOR('',#111,1.);
#111 = DIRECTION('',(1.,0.));
#112 = ( GEOMETRIC_REPRESENTATION_CONTEXT(2) 
PARAMETRIC_REPRESENTATION_CONTEXT() REPRESENTATION_CONTEXT('2D SPACE',''
  ) );
#113 = ORIENTED_EDGE('',*,*,#114,.F.);
#114 = EDGE_CURVE('',#115,#86,#117,.T.);
#115 = VERTEX_POINT('',#116);
#116 = CARTESIAN_POINT('',(2.639103107588,-130.,-46.70494684755));
#117 = SURFACE_CURVE('',#118,(#122,#129),.PCURVE_S1.);
#118 = LINE('',#119,#120);
#119 = CARTESIAN_POINT('',(2.639103107588,-130.,-46.70494684755));
#120 = VECTOR('',#121,1.);
#121 = DIRECTION('',(-1.,-1.727784582073E-15,-1.295710997978E-13));
#122 = PCURVE('',#32,#123);
#123 = DEFINITIONAL_REPRESENTATION('',(#124),#128);
#124 = LINE('',#125,#126);
#125 = CARTESIAN_POINT('',(2.638547092826,-23.35247342359));
#126 = VECTOR('',#127,1.);
#127 = DIRECTION('',(-1.,-1.295710997978E-13));
#128 = ( GEOMETRIC_REPRESENTATION_CONTEXT(2) 
PARAMETRIC_REPRESENTATION_CONTEXT() REPRESENTATION_CONTEXT('2D SPACE',''
  ) );
#129 = PCURVE('',#130,#135);
#130 = PLANE('',#131);
#131 = AXIS2_PLACEMENT_3D('',#132,#133,#134);
#132 = CARTESIAN_POINT('',(-2.639059879656,-130.,-46.70494684755));
#133 = DIRECTION('',(1.295710997978E-13,1.224646799151E-16,-1.));
#134 = DIRECTION('',(1.,1.727784582073E-15,1.295710997978E-13));
#135 = DEFINITIONAL_REPRESENTATION('',(#136),#140);
#136 = LINE('',#137,#138);
#137 = CARTESIAN_POINT('',(5.278162987244,9.119528631029E-15));
#138 = VECTOR('',#139,1.);
#139 = DIRECTION('',(-1.,9.066515853581E-32));
#140 = ( GEOMETRIC_REPRESENTATION_CONTEXT(2) 
PARAMETRIC_REPRESENTATION_CONTEXT() REPRESENTATION_CONTEXT('2D SPACE',''
  ) );
#141 = ORIENTED_EDGE('',*,*,#142,.T.);
#142 = EDGE_CURVE('',#115,#143,#145,.T.);
#143 = VERTEX_POINT('',#144);
#144 = CARTESIAN_POINT('',(51.281192754218,-130.,-14.28385337881));
#145 = SURFACE_CURVE('',#146,(#151,#158),.PCURVE_S1.);
#146 = CIRCLE('',#147,55.017301357235);
#147 = AXIS2_PLACEMENT_3D('',#148,#149,#150);
#148 = CARTESIAN_POINT('',(1.108725418024,-130.,8.291065669355));
#149 = DIRECTION('',(1.727784582073E-15,-1.,-1.224646799147E-16));
#150 = DIRECTION('',(2.781629872443E-02,1.704778645057E-16,
    -0.999613051898));
#151 = PCURVE('',#32,#152);
#152 = DEFINITIONAL_REPRESENTATION('',(#153),#157);
#153 = CIRCLE('',#154,55.017301357235);
#154 = AXIS2_PLACEMENT_2D('',#155,#156);
#155 = CARTESIAN_POINT('',(1.108169403262,31.643539093315));
#156 = DIRECTION('',(2.781629872443E-02,-0.999613051898));
#157 = ( GEOMETRIC_REPRESENTATION_CONTEXT(2) 
PARAMETRIC_REPRESENTATION_CONTEXT() REPRESENTATION_CONTEXT('2D SPACE',''
  ) );
#158 = PCURVE('',#159,#164);
#159 = CYLINDRICAL_SURFACE('',#160,55.017301357235);
#160 = AXIS2_PLACEMENT_3D('',#161,#162,#163);
#161 = CARTESIAN_POINT('',(1.108725418024,-130.,8.291065669355));
#162 = DIRECTION('',(1.71116943245E-15,-1.,-1.224646799149E-16));
#163 = DIRECTION('',(2.781629872443E-02,1.700156925406E-16,
    -0.999613051898));
#164 = DEFINITIONAL_REPRESENTATION('',(#165),#169);
#165 = LINE('',#166,#167);
#166 = CARTESIAN_POINT('',(0.,0.));
#167 = VECTOR('',#168,1.);
#168 = DIRECTION('',(1.,0.));
#169 = ( GEOMETRIC_REPRESENTATION_CONTEXT(2) 
PARAMETRIC_REPRESENTATION_CONTEXT() REPRESENTATION_CONTEXT('2D SPACE',''
  ) );
#170 = ORIENTED_EDGE('',*,*,#171,.T.);
#171 = EDGE_CURVE('',#143,#172,#174,.T.);
#172 = VERTEX_POINT('',#173);
#173 = CARTESIAN_POINT('',(53.118260729267,-130.,-5.702209454854E-10));
#174 = SURFACE_CURVE('',#175,(#180,#187),.PCURVE_S1.);
#175 = CIRCLE('',#176,53.430548224035);
#176 = AXIS2_PLACEMENT_3D('',#177,#178,#179);
#177 = CARTESIAN_POINT('',(-0.310875360517,-130.,-0.388458776087));
#178 = DIRECTION('',(1.727784582073E-15,-1.,-1.224646799147E-16));
#179 = DIRECTION('',(0.965591217564,1.700182347321E-15,-0.260064608442)
  );
#180 = PCURVE('',#32,#181);
#181 = DEFINITIONAL_REPRESENTATION('',(#182),#186);
#182 = CIRCLE('',#183,53.430548224035);
#183 = AXIS2_PLACEMENT_2D('',#184,#185);
#184 = CARTESIAN_POINT('',(-0.311431375279,22.964014647873));
#185 = DIRECTION('',(0.965591217564,-0.260064608442));
#186 = ( GEOMETRIC_REPRESENTATION_CONTEXT(2) 
PARAMETRIC_REPRESENTATION_CONTEXT() REPRESENTATION_CONTEXT('2D SPACE',''
  ) );
#187 = PCURVE('',#188,#193);
#188 = CYLINDRICAL_SURFACE('',#189,53.430548224035);
#189 = AXIS2_PLACEMENT_3D('',#190,#191,#192);
#190 = CARTESIAN_POINT('',(-0.310875360517,-130.,-0.388458776087));
#191 = DIRECTION('',(1.71116943245E-15,-1.,-1.224646799149E-16));
#192 = DIRECTION('',(0.965591217564,1.684138904767E-15,-0.260064608442)
  );
#193 = DEFINITIONAL_REPRESENTATION('',(#194),#198);
#194 = LINE('',#195,#196);
#195 = CARTESIAN_POINT('',(0.,0.));
#196 = VECTOR('',#197,1.);
#197 = DIRECTION('',(1.,0.));
#198 = ( GEOMETRIC_REPRESENTATION_CONTEXT(2) 
PARAMETRIC_REPRESENTATION_CONTEXT() REPRESENTATION_CONTEXT('2D SPACE',''
  ) );
#199 = ORIENTED_EDGE('',*,*,#200,.F.);
#200 = EDGE_CURVE('',#201,#172,#203,.T.);
#201 = VERTEX_POINT('',#202);
#202 = CARTESIAN_POINT('',(47.822246082453,-130.,-3.71402304155E-10));
#203 = SURFACE_CURVE('',#204,(#208,#215),.PCURVE_S1.);
#204 = LINE('',#205,#206);
#205 = CARTESIAN_POINT('',(5.560147585695E-04,-130.,1.423892254104E-09)
  );
#206 = VECTOR('',#207,1.);
#207 = DIRECTION('',(1.,1.727784582073E-15,1.42108547152E-13));
#208 = PCURVE('',#32,#209);
#209 = DEFINITIONAL_REPRESENTATION('',(#210),#214);
#210 = LINE('',#211,#212);
#211 = CARTESIAN_POINT('',(-3.318599952132E-12,23.352473425384));
#212 = VECTOR('',#213,1.);
#213 = DIRECTION('',(1.,1.42108547152E-13));
#214 = ( GEOMETRIC_REPRESENTATION_CONTEXT(2) 
PARAMETRIC_REPRESENTATION_CONTEXT() REPRESENTATION_CONTEXT('2D SPACE',''
  ) );
#215 = PCURVE('',#216,#221);
#216 = PLANE('',#217);
#217 = AXIS2_PLACEMENT_3D('',#218,#219,#220);
#218 = CARTESIAN_POINT('',(2.161396139844E-05,-232.5,1.42387912743E-09)
  );
#219 = DIRECTION('',(-1.42108547152E-13,-1.224646799152E-16,1.));
#220 = DIRECTION('',(-1.,-1.727784582073E-15,-1.42108547152E-13));
#221 = DEFINITIONAL_REPRESENTATION('',(#222),#226);
#222 = LINE('',#223,#224);
#223 = CARTESIAN_POINT('',(-5.344007973482E-04,-102.5));
#224 = VECTOR('',#225,1.);
#225 = DIRECTION('',(-1.,-4.833782528663E-32));
#226 = ( GEOMETRIC_REPRESENTATION_CONTEXT(2) 
PARAMETRIC_REPRESENTATION_CONTEXT() REPRESENTATION_CONTEXT('2D SPACE',''
  ) );
#227 = ORIENTED_EDGE('',*,*,#228,.F.);
#228 = EDGE_CURVE('',#229,#201,#231,.T.);
#229 = VERTEX_POINT('',#230);
#230 = CARTESIAN_POINT('',(47.822246082473,-130.,-7.103183415057));
#231 = SURFACE_CURVE('',#232,(#236,#243),.PCURVE_S1.);
#232 = LINE('',#233,#234);
#233 = CARTESIAN_POINT('',(47.822246082474,-130.,-5.000000000001));
#234 = VECTOR('',#235,1.);
#235 = DIRECTION('',(-4.199307568653E-12,-1.22464679922E-16,1.));
#236 = PCURVE('',#32,#237);
#237 = DEFINITIONAL_REPRESENTATION('',(#238),#242);
#238 = LINE('',#239,#240);
#239 = CARTESIAN_POINT('',(47.821690067712,18.352473423959));
#240 = VECTOR('',#241,1.);
#241 = DIRECTION('',(-4.199307568653E-12,1.));
#242 = ( GEOMETRIC_REPRESENTATION_CONTEXT(2) 
PARAMETRIC_REPRESENTATION_CONTEXT() REPRESENTATION_CONTEXT('2D SPACE',''
  ) );
#243 = PCURVE('',#244,#249);
#244 = PLANE('',#245);
#245 = AXIS2_PLACEMENT_3D('',#246,#247,#248);
#246 = CARTESIAN_POINT('',(47.822246082453,-130.,-3.714017982048E-10));
#247 = DIRECTION('',(-1.,-1.711169432449E-15,-4.199307568653E-12));
#248 = DIRECTION('',(4.199307568653E-12,1.22464679922E-16,-1.));
#249 = DEFINITIONAL_REPRESENTATION('',(#250),#254);
#250 = LINE('',#251,#252);
#251 = CARTESIAN_POINT('',(4.99999999963,6.123233995646E-16));
#252 = VECTOR('',#253,1.);
#253 = DIRECTION('',(-1.,0.));
#254 = ( GEOMETRIC_REPRESENTATION_CONTEXT(2) 
PARAMETRIC_REPRESENTATION_CONTEXT() REPRESENTATION_CONTEXT('2D SPACE',''
  ) );
#255 = ORIENTED_EDGE('',*,*,#256,.F.);
#256 = EDGE_CURVE('',#257,#229,#259,.T.);
#257 = VERTEX_POINT('',#258);
#258 = CARTESIAN_POINT('',(46.721493705148,-130.,-12.23223338917));
#259 = SURFACE_CURVE('',#260,(#265,#272),.PCURVE_S1.);
#260 = CIRCLE('',#261,12.5);
#261 = AXIS2_PLACEMENT_3D('',#262,#263,#264);
#262 = CARTESIAN_POINT('',(35.322246082474,-130.,-7.103183415057));
#263 = DIRECTION('',(1.727784582073E-15,-1.,-1.224646799147E-16));
#264 = DIRECTION('',(0.911939809814,1.625885740243E-15,-0.410323997929)
  );
#265 = PCURVE('',#32,#266);
#266 = DEFINITIONAL_REPRESENTATION('',(#267),#271);
#267 = CIRCLE('',#268,12.5);
#268 = AXIS2_PLACEMENT_2D('',#269,#270);
#269 = CARTESIAN_POINT('',(35.321690067712,16.249290008903));
#270 = DIRECTION('',(0.911939809814,-0.410323997929));
#271 = ( GEOMETRIC_REPRESENTATION_CONTEXT(2) 
PARAMETRIC_REPRESENTATION_CONTEXT() REPRESENTATION_CONTEXT('2D SPACE',''
  ) );
#272 = PCURVE('',#273,#278);
#273 = CYLINDRICAL_SURFACE('',#274,12.5);
#274 = AXIS2_PLACEMENT_3D('',#275,#276,#277);
#275 = CARTESIAN_POINT('',(35.322246082474,-130.,-7.103183415057));
#276 = DIRECTION('',(1.71116943245E-15,-1.,-1.224646799149E-16));
#277 = DIRECTION('',(0.911939809814,1.610733723856E-15,-0.410323997929)
  );
#278 = DEFINITIONAL_REPRESENTATION('',(#279),#283);
#279 = LINE('',#280,#281);
#280 = CARTESIAN_POINT('',(0.,0.));
#281 = VECTOR('',#282,1.);
#282 = DIRECTION('',(1.,0.));
#283 = ( GEOMETRIC_REPRESENTATION_CONTEXT(2) 
PARAMETRIC_REPRESENTATION_CONTEXT() REPRESENTATION_CONTEXT('2D SPACE',''
  ) );
#284 = ORIENTED_EDGE('',*,*,#285,.F.);
#285 = EDGE_CURVE('',#286,#257,#288,.T.);
#286 = VERTEX_POINT('',#287);
#287 = CARTESIAN_POINT('',(3.000015615524,-130.,-41.69046548415));
#288 = SURFACE_CURVE('',#289,(#294,#301),.PCURVE_S1.);
#289 = CIRCLE('',#290,50.017301357236);
#290 = AXIS2_PLACEMENT_3D('',#291,#292,#293);
#291 = CARTESIAN_POINT('',(1.108725418024,-130.,8.291065669355));
#292 = DIRECTION('',(1.727784582073E-15,-1.,-1.224646799147E-16));
#293 = DIRECTION('',(2.781629872443E-02,1.704778645057E-16,
    -0.999613051898));
#294 = PCURVE('',#32,#295);
#295 = DEFINITIONAL_REPRESENTATION('',(#296),#300);
#296 = CIRCLE('',#297,50.017301357236);
#297 = AXIS2_PLACEMENT_2D('',#298,#299);
#298 = CARTESIAN_POINT('',(1.108169403262,31.643539093315));
#299 = DIRECTION('',(2.781629872443E-02,-0.999613051898));
#300 = ( GEOMETRIC_REPRESENTATION_CONTEXT(2) 
PARAMETRIC_REPRESENTATION_CONTEXT() REPRESENTATION_CONTEXT('2D SPACE',''
  ) );
#301 = PCURVE('',#302,#307);
#302 = CYLINDRICAL_SURFACE('',#303,50.017301357236);
#303 = AXIS2_PLACEMENT_3D('',#304,#305,#306);
#304 = CARTESIAN_POINT('',(1.108725418024,-130.,8.291065669355));
#305 = DIRECTION('',(1.71116943245E-15,-1.,-1.224646799149E-16));
#306 = DIRECTION('',(2.781629872443E-02,1.700156925406E-16,
    -0.999613051898));
#307 = DEFINITIONAL_REPRESENTATION('',(#308),#312);
#308 = LINE('',#309,#310);
#309 = CARTESIAN_POINT('',(0.,0.));
#310 = VECTOR('',#311,1.);
#311 = DIRECTION('',(1.,0.));
#312 = ( GEOMETRIC_REPRESENTATION_CONTEXT(2) 
PARAMETRIC_REPRESENTATION_CONTEXT() REPRESENTATION_CONTEXT('2D SPACE',''
  ) );
#313 = ORIENTED_EDGE('',*,*,#314,.F.);
#314 = EDGE_CURVE('',#315,#286,#317,.T.);
#315 = VERTEX_POINT('',#316);
#316 = CARTESIAN_POINT('',(3.000015615524,-130.,-41.71392353099));
#317 = SURFACE_CURVE('',#318,(#322,#328),.PCURVE_S1.);
#318 = LINE('',#319,#320);
#319 = CARTESIAN_POINT('',(3.000015615523,-130.,-29.4540105791));
#320 = VECTOR('',#321,1.);
#321 = DIRECTION('',(-7.418371472667E-14,-1.224646799148E-16,1.));
#322 = PCURVE('',#32,#323);
#323 = DEFINITIONAL_REPRESENTATION('',(#324),#327);
#324 = B_SPLINE_CURVE_WITH_KNOTS('',1,(#325,#326),.UNSPECIFIED.,.F.,.F.,
  (2,2),(-12.25991295229,29.454010475309),.PIECEWISE_BEZIER_KNOTS.);
#325 = CARTESIAN_POINT('',(2.999459600762,-18.36145010744));
#326 = CARTESIAN_POINT('',(2.999459600759,23.352473320164));
#327 = ( GEOMETRIC_REPRESENTATION_CONTEXT(2) 
PARAMETRIC_REPRESENTATION_CONTEXT() REPRESENTATION_CONTEXT('2D SPACE',''
  ) );
#328 = PCURVE('',#329,#334);
#329 = PLANE('',#330);
#330 = AXIS2_PLACEMENT_3D('',#331,#332,#333);
#331 = CARTESIAN_POINT('',(3.000015615522,-169.1737255877,
    -35.55554773425));
#332 = DIRECTION('',(1.,-4.273210745757E-14,7.418371472667E-14));
#333 = DIRECTION('',(-4.273210745757E-14,-1.,-3.170026469302E-27));
#334 = DEFINITIONAL_REPRESENTATION('',(#335),#338);
#335 = B_SPLINE_CURVE_WITH_KNOTS('',1,(#336,#337),.UNSPECIFIED.,.F.,.F.,
  (2,2),(-12.25991295229,29.454010475309),.PIECEWISE_BEZIER_KNOTS.);
#336 = CARTESIAN_POINT('',(-39.1737255877,6.15837579715));
#337 = CARTESIAN_POINT('',(-39.1737255877,-35.55554763045));
#338 = ( GEOMETRIC_REPRESENTATION_CONTEXT(2) 
PARAMETRIC_REPRESENTATION_CONTEXT() REPRESENTATION_CONTEXT('2D SPACE',''
  ) );
#339 = ORIENTED_EDGE('',*,*,#340,.T.);
#340 = EDGE_CURVE('',#315,#341,#343,.T.);
#341 = VERTEX_POINT('',#342);
#342 = CARTESIAN_POINT('',(2.308538623167,-130.,-41.71392353099));
#343 = SURFACE_CURVE('',#344,(#348,#354),.PCURVE_S1.);
#344 = LINE('',#345,#346);
#345 = CARTESIAN_POINT('',(-1.499714184861,-130.,-41.71392353099));
#346 = VECTOR('',#347,1.);
#347 = DIRECTION('',(-1.,-1.727784582073E-15,-7.418371472659E-14));
#348 = PCURVE('',#32,#349);
#349 = DEFINITIONAL_REPRESENTATION('',(#350),#353);
#350 = B_SPLINE_CURVE_WITH_KNOTS('',1,(#351,#352),.UNSPECIFIED.,.F.,.F.,
  (2,2),(-4.499729800385,1.500270199615),.PIECEWISE_BEZIER_KNOTS.);
#351 = CARTESIAN_POINT('',(2.999459600762,-18.36145010703));
#352 = CARTESIAN_POINT('',(-3.000540399238,-18.36145010703));
#353 = ( GEOMETRIC_REPRESENTATION_CONTEXT(2) 
PARAMETRIC_REPRESENTATION_CONTEXT() REPRESENTATION_CONTEXT('2D SPACE',''
  ) );
#354 = PCURVE('',#355,#360);
#355 = PLANE('',#356);
#356 = AXIS2_PLACEMENT_3D('',#357,#358,#359);
#357 = CARTESIAN_POINT('',(-2.999984384485,-347.6535769368,
    -41.71392353061));
#358 = DIRECTION('',(-7.418371472659E-14,1.759573240862E-12,1.));
#359 = DIRECTION('',(4.27321074577E-14,1.,-1.759573240862E-12));
#360 = DEFINITIONAL_REPRESENTATION('',(#361),#364);
#361 = B_SPLINE_CURVE_WITH_KNOTS('',1,(#362,#363),.UNSPECIFIED.,.F.,.F.,
  (2,2),(-4.499729800385,1.500270199615),.PIECEWISE_BEZIER_KNOTS.);
#362 = CARTESIAN_POINT('',(217.6535769368,-6.));
#363 = CARTESIAN_POINT('',(217.6535769368,1.292299600664E-13));
#364 = ( GEOMETRIC_REPRESENTATION_CONTEXT(2) 
PARAMETRIC_REPRESENTATION_CONTEXT() REPRESENTATION_CONTEXT('2D SPACE',''
  ) );
#365 = ORIENTED_EDGE('',*,*,#366,.F.);
#366 = EDGE_CURVE('',#367,#341,#369,.T.);
#367 = VERTEX_POINT('',#368);
#368 = CARTESIAN_POINT('',(-2.291481366829,-130.,-41.71392353061));
#369 = SURFACE_CURVE('',#370,(#375,#382),.PCURVE_S1.);
#370 = CIRCLE('',#371,65.188865187289);
#371 = AXIS2_PLACEMENT_3D('',#372,#373,#374);
#372 = CARTESIAN_POINT('',(8.528633481955E-03,-130.,23.434354254793));
#373 = DIRECTION('',(1.727784582073E-15,-1.,-1.224646799147E-16));
#374 = DIRECTION('',(-0.109501220839,-6.746626278092E-17,-0.993986661196
    ));
#375 = PCURVE('',#32,#376);
#376 = DEFINITIONAL_REPRESENTATION('',(#377),#381);
#377 = CIRCLE('',#378,65.188865187289);
#378 = AXIS2_PLACEMENT_2D('',#379,#380);
#379 = CARTESIAN_POINT('',(7.972618720067E-03,46.786827678753));
#380 = DIRECTION('',(-0.109501220839,-0.993986661196));
#381 = ( GEOMETRIC_REPRESENTATION_CONTEXT(2) 
PARAMETRIC_REPRESENTATION_CONTEXT() REPRESENTATION_CONTEXT('2D SPACE',''
  ) );
#382 = PCURVE('',#383,#388);
#383 = CYLINDRICAL_SURFACE('',#384,65.188865187289);
#384 = AXIS2_PLACEMENT_3D('',#385,#386,#387);
#385 = CARTESIAN_POINT('',(8.528633481955E-03,-130.,23.434354254793));
#386 = DIRECTION('',(1.71116943245E-15,-1.,-1.224646799149E-16));
#387 = DIRECTION('',(-0.109501220839,-6.564688361258E-17,-0.993986661196
    ));
#388 = DEFINITIONAL_REPRESENTATION('',(#389),#393);
#389 = LINE('',#390,#391);
#390 = CARTESIAN_POINT('',(-1.387778780781E-17,0.));
#391 = VECTOR('',#392,1.);
#392 = DIRECTION('',(1.,0.));
#393 = ( GEOMETRIC_REPRESENTATION_CONTEXT(2) 
PARAMETRIC_REPRESENTATION_CONTEXT() REPRESENTATION_CONTEXT('2D SPACE',''
  ) );
#394 = ORIENTED_EDGE('',*,*,#395,.T.);
#395 = EDGE_CURVE('',#367,#396,#398,.T.);
#396 = VERTEX_POINT('',#397);
#397 = CARTESIAN_POINT('',(-2.499984384486,-130.,-41.71392353061));
#398 = SURFACE_CURVE('',#399,(#403,#410),.PCURVE_S1.);
#399 = LINE('',#400,#401);
#400 = CARTESIAN_POINT('',(2.500015615514,-130.,-41.71392353061));
#401 = VECTOR('',#402,1.);
#402 = DIRECTION('',(-1.,-1.727784582073E-15,-1.42108547152E-13));
#403 = PCURVE('',#32,#404);
#404 = DEFINITIONAL_REPRESENTATION('',(#405),#409);
#405 = LINE('',#406,#407);
#406 = CARTESIAN_POINT('',(2.499459600752,-18.36145010665));
#407 = VECTOR('',#408,1.);
#408 = DIRECTION('',(-1.,-1.42108547152E-13));
#409 = ( GEOMETRIC_REPRESENTATION_CONTEXT(2) 
PARAMETRIC_REPRESENTATION_CONTEXT() REPRESENTATION_CONTEXT('2D SPACE',''
  ) );
#410 = PCURVE('',#411,#416);
#411 = PLANE('',#412);
#412 = AXIS2_PLACEMENT_3D('',#413,#414,#415);
#413 = CARTESIAN_POINT('',(-2.291481366829,-130.,-41.71392353061));
#414 = DIRECTION('',(-1.42108547152E-13,-1.224646799152E-16,1.));
#415 = DIRECTION('',(-1.,-1.727784582073E-15,-1.42108547152E-13));
#416 = DEFINITIONAL_REPRESENTATION('',(#417),#421);
#417 = LINE('',#418,#419);
#418 = CARTESIAN_POINT('',(-4.791496982343,8.278674611142E-15));
#419 = VECTOR('',#420,1.);
#420 = DIRECTION('',(1.,4.833782528663E-32));
#421 = ( GEOMETRIC_REPRESENTATION_CONTEXT(2) 
PARAMETRIC_REPRESENTATION_CONTEXT() REPRESENTATION_CONTEXT('2D SPACE',''
  ) );
#422 = ORIENTED_EDGE('',*,*,#423,.T.);
#423 = EDGE_CURVE('',#396,#424,#426,.T.);
#424 = VERTEX_POINT('',#425);
#425 = CARTESIAN_POINT('',(-2.999984384476,-130.,-41.71392353099));
#426 = SURFACE_CURVE('',#427,(#431,#437),.PCURVE_S1.);
#427 = LINE('',#428,#429);
#428 = CARTESIAN_POINT('',(-1.499714184861,-130.,-41.71392353099));
#429 = VECTOR('',#430,1.);
#430 = DIRECTION('',(-1.,-1.727784582073E-15,-7.418371472659E-14));
#431 = PCURVE('',#32,#432);
#432 = DEFINITIONAL_REPRESENTATION('',(#433),#436);
#433 = B_SPLINE_CURVE_WITH_KNOTS('',1,(#434,#435),.UNSPECIFIED.,.F.,.F.,
  (2,2),(-4.499729800385,1.500270199615),.PIECEWISE_BEZIER_KNOTS.);
#434 = CARTESIAN_POINT('',(2.999459600762,-18.36145010703));
#435 = CARTESIAN_POINT('',(-3.000540399238,-18.36145010703));
#436 = ( GEOMETRIC_REPRESENTATION_CONTEXT(2) 
PARAMETRIC_REPRESENTATION_CONTEXT() REPRESENTATION_CONTEXT('2D SPACE',''
  ) );
#437 = PCURVE('',#438,#443);
#438 = PLANE('',#439);
#439 = AXIS2_PLACEMENT_3D('',#440,#441,#442);
#440 = CARTESIAN_POINT('',(-2.999984384485,-347.6535769368,
    -41.71392353061));
#441 = DIRECTION('',(-7.418371472659E-14,1.759573240862E-12,1.));
#442 = DIRECTION('',(4.27321074577E-14,1.,-1.759573240862E-12));
#443 = DEFINITIONAL_REPRESENTATION('',(#444),#447);
#444 = B_SPLINE_CURVE_WITH_KNOTS('',1,(#445,#446),.UNSPECIFIED.,.F.,.F.,
  (2,2),(-4.499729800385,1.500270199615),.PIECEWISE_BEZIER_KNOTS.);
#445 = CARTESIAN_POINT('',(217.6535769368,-6.));
#446 = CARTESIAN_POINT('',(217.6535769368,1.292299600664E-13));
#447 = ( GEOMETRIC_REPRESENTATION_CONTEXT(2) 
PARAMETRIC_REPRESENTATION_CONTEXT() REPRESENTATION_CONTEXT('2D SPACE',''
  ) );
#448 = ORIENTED_EDGE('',*,*,#449,.T.);
#449 = EDGE_CURVE('',#424,#450,#452,.T.);
#450 = VERTEX_POINT('',#451);
#451 = CARTESIAN_POINT('',(-2.999984384476,-130.,-41.69046503019));
#452 = SURFACE_CURVE('',#453,(#457,#463),.PCURVE_S1.);
#453 = LINE('',#454,#455);
#454 = CARTESIAN_POINT('',(-2.999984384477,-130.,-29.4540105791));
#455 = VECTOR('',#456,1.);
#456 = DIRECTION('',(-7.418371472667E-14,-1.224646799148E-16,1.));
#457 = PCURVE('',#32,#458);
#458 = DEFINITIONAL_REPRESENTATION('',(#459),#462);
#459 = B_SPLINE_CURVE_WITH_KNOTS('',1,(#460,#461),.UNSPECIFIED.,.F.,.F.,
  (2,2),(-12.25991295229,29.454010475308),.PIECEWISE_BEZIER_KNOTS.);
#460 = CARTESIAN_POINT('',(-3.000540399238,-18.36145010744));
#461 = CARTESIAN_POINT('',(-3.000540399241,23.352473320163));
#462 = ( GEOMETRIC_REPRESENTATION_CONTEXT(2) 
PARAMETRIC_REPRESENTATION_CONTEXT() REPRESENTATION_CONTEXT('2D SPACE',''
  ) );
#463 = PCURVE('',#464,#469);
#464 = PLANE('',#465);
#465 = AXIS2_PLACEMENT_3D('',#466,#467,#468);
#466 = CARTESIAN_POINT('',(-2.999984384478,-169.1737255877,
    -35.55554773425));
#467 = DIRECTION('',(1.,-4.273210745757E-14,7.418371472667E-14));
#468 = DIRECTION('',(-4.273210745757E-14,-1.,-3.170026469302E-27));
#469 = DEFINITIONAL_REPRESENTATION('',(#470),#473);
#470 = B_SPLINE_CURVE_WITH_KNOTS('',1,(#471,#472),.UNSPECIFIED.,.F.,.F.,
  (2,2),(-12.25991295229,29.454010475308),.PIECEWISE_BEZIER_KNOTS.);
#471 = CARTESIAN_POINT('',(-39.1737255877,6.15837579715));
#472 = CARTESIAN_POINT('',(-39.1737255877,-35.55554763045));
#473 = ( GEOMETRIC_REPRESENTATION_CONTEXT(2) 
PARAMETRIC_REPRESENTATION_CONTEXT() REPRESENTATION_CONTEXT('2D SPACE',''
  ) );
#474 = ORIENTED_EDGE('',*,*,#475,.F.);
#475 = EDGE_CURVE('',#476,#450,#478,.T.);
#476 = VERTEX_POINT('',#477);
#477 = CARTESIAN_POINT('',(-46.7214504772,-130.,-12.23223338918));
#478 = SURFACE_CURVE('',#479,(#484,#491),.PCURVE_S1.);
#479 = CIRCLE('',#480,50.017301357235);
#480 = AXIS2_PLACEMENT_3D('',#481,#482,#483);
#481 = CARTESIAN_POINT('',(-1.108682190093,-130.,8.291065669354));
#482 = DIRECTION('',(1.727784582073E-15,-1.,-1.224646799147E-16));
#483 = DIRECTION('',(-0.911939809814,-1.525385346107E-15,-0.410323997929
    ));
#484 = PCURVE('',#32,#485);
#485 = DEFINITIONAL_REPRESENTATION('',(#486),#490);
#486 = CIRCLE('',#487,50.017301357235);
#487 = AXIS2_PLACEMENT_2D('',#488,#489);
#488 = CARTESIAN_POINT('',(-1.109238204855,31.643539093314));
#489 = DIRECTION('',(-0.911939809814,-0.410323997929));
#490 = ( GEOMETRIC_REPRESENTATION_CONTEXT(2) 
PARAMETRIC_REPRESENTATION_CONTEXT() REPRESENTATION_CONTEXT('2D SPACE',''
  ) );
#491 = PCURVE('',#492,#497);
#492 = CYLINDRICAL_SURFACE('',#493,50.017301357235);
#493 = AXIS2_PLACEMENT_3D('',#494,#495,#496);
#494 = CARTESIAN_POINT('',(-1.108682190093,-130.,8.291065669354));
#495 = DIRECTION('',(1.71116943245E-15,-1.,-1.224646799149E-16));
#496 = DIRECTION('',(-0.911939809814,-1.51023332972E-15,-0.410323997929)
  );
#497 = DEFINITIONAL_REPRESENTATION('',(#498),#502);
#498 = LINE('',#499,#500);
#499 = CARTESIAN_POINT('',(0.,0.));
#500 = VECTOR('',#501,1.);
#501 = DIRECTION('',(1.,0.));
#502 = ( GEOMETRIC_REPRESENTATION_CONTEXT(2) 
PARAMETRIC_REPRESENTATION_CONTEXT() REPRESENTATION_CONTEXT('2D SPACE',''
  ) );
#503 = ORIENTED_EDGE('',*,*,#504,.F.);
#504 = EDGE_CURVE('',#505,#476,#507,.T.);
#505 = VERTEX_POINT('',#506);
#506 = CARTESIAN_POINT('',(-47.82220285453,-130.,-7.103183415069));
#507 = SURFACE_CURVE('',#508,(#513,#520),.PCURVE_S1.);
#508 = CIRCLE('',#509,12.5);
#509 = AXIS2_PLACEMENT_3D('',#510,#511,#512);
#510 = CARTESIAN_POINT('',(-35.32220285453,-130.,-7.10318341507));
#511 = DIRECTION('',(1.727784582073E-15,-1.,-1.224646799147E-16));
#512 = DIRECTION('',(-1.,-1.727784582073E-15,4.884981308351E-14));
#513 = PCURVE('',#32,#514);
#514 = DEFINITIONAL_REPRESENTATION('',(#515),#519);
#515 = CIRCLE('',#516,12.5);
#516 = AXIS2_PLACEMENT_2D('',#517,#518);
#517 = CARTESIAN_POINT('',(-35.32275886929,16.24929000889));
#518 = DIRECTION('',(-1.,4.884981308351E-14));
#519 = ( GEOMETRIC_REPRESENTATION_CONTEXT(2) 
PARAMETRIC_REPRESENTATION_CONTEXT() REPRESENTATION_CONTEXT('2D SPACE',''
  ) );
#520 = PCURVE('',#521,#526);
#521 = CYLINDRICAL_SURFACE('',#522,12.5);
#522 = AXIS2_PLACEMENT_3D('',#523,#524,#525);
#523 = CARTESIAN_POINT('',(-35.32220285453,-130.,-7.10318341507));
#524 = DIRECTION('',(1.71116943245E-15,-1.,-1.224646799149E-16));
#525 = DIRECTION('',(-1.,-1.71116943245E-15,4.884981308351E-14));
#526 = DEFINITIONAL_REPRESENTATION('',(#527),#531);
#527 = LINE('',#528,#529);
#528 = CARTESIAN_POINT('',(0.,0.));
#529 = VECTOR('',#530,1.);
#530 = DIRECTION('',(1.,0.));
#531 = ( GEOMETRIC_REPRESENTATION_CONTEXT(2) 
PARAMETRIC_REPRESENTATION_CONTEXT() REPRESENTATION_CONTEXT('2D SPACE',''
  ) );
#532 = ORIENTED_EDGE('',*,*,#533,.F.);
#533 = EDGE_CURVE('',#24,#505,#534,.T.);
#534 = SURFACE_CURVE('',#535,(#539,#546),.PCURVE_S1.);
#535 = LINE('',#536,#537);
#536 = CARTESIAN_POINT('',(-47.82220285453,-130.,-5.));
#537 = VECTOR('',#538,1.);
#538 = DIRECTION('',(8.446038641579E-15,1.224646799148E-16,-1.));
#539 = PCURVE('',#32,#540);
#540 = DEFINITIONAL_REPRESENTATION('',(#541),#545);
#541 = LINE('',#542,#543);
#542 = CARTESIAN_POINT('',(-47.82275886929,18.35247342396));
#543 = VECTOR('',#544,1.);
#544 = DIRECTION('',(8.446038641579E-15,-1.));
#545 = ( GEOMETRIC_REPRESENTATION_CONTEXT(2) 
PARAMETRIC_REPRESENTATION_CONTEXT() REPRESENTATION_CONTEXT('2D SPACE',''
  ) );
#546 = PCURVE('',#547,#552);
#547 = PLANE('',#548);
#548 = AXIS2_PLACEMENT_3D('',#549,#550,#551);
#549 = CARTESIAN_POINT('',(-47.82220285453,-130.,-7.103183415069));
#550 = DIRECTION('',(1.,1.71116943245E-15,8.446038641579E-15));
#551 = DIRECTION('',(-8.446038641579E-15,-1.224646799148E-16,1.));
#552 = DEFINITIONAL_REPRESENTATION('',(#553),#557);
#553 = LINE('',#554,#555);
#554 = CARTESIAN_POINT('',(2.103183415069,-2.575656837285E-16));
#555 = VECTOR('',#556,1.);
#556 = DIRECTION('',(-1.,0.));
#557 = ( GEOMETRIC_REPRESENTATION_CONTEXT(2) 
PARAMETRIC_REPRESENTATION_CONTEXT() REPRESENTATION_CONTEXT('2D SPACE',''
  ) );
#558 = ADVANCED_FACE('',(#559),#44,.T.);
#559 = FACE_BOUND('',#560,.T.);
#560 = EDGE_LOOP('',(#561,#591,#612,#613));
#561 = ORIENTED_EDGE('',*,*,#562,.T.);
#562 = EDGE_CURVE('',#563,#565,#567,.T.);
#563 = VERTEX_POINT('',#564);
#564 = CARTESIAN_POINT('',(-53.11821750134,-335.,-5.973493809821E-10));
#565 = VERTEX_POINT('',#566);
#566 = CARTESIAN_POINT('',(-47.82220285453,-335.,-3.890013363353E-10));
#567 = SURFACE_CURVE('',#568,(#572,#579),.PCURVE_S1.);
#568 = LINE('',#569,#570);
#569 = CARTESIAN_POINT('',(2.161396157553E-05,-335.,1.4238665748E-09));
#570 = VECTOR('',#571,1.);
#571 = DIRECTION('',(1.,1.727784582073E-15,1.42108547152E-13));
#572 = PCURVE('',#44,#573);
#573 = DEFINITIONAL_REPRESENTATION('',(#574),#578);
#574 = LINE('',#575,#576);
#575 = CARTESIAN_POINT('',(7.918064002991E-18,102.5));
#576 = VECTOR('',#577,1.);
#577 = DIRECTION('',(-1.,-4.833782528663E-32));
#578 = ( GEOMETRIC_REPRESENTATION_CONTEXT(2) 
PARAMETRIC_REPRESENTATION_CONTEXT() REPRESENTATION_CONTEXT('2D SPACE',''
  ) );
#579 = PCURVE('',#580,#585);
#580 = PLANE('',#581);
#581 = AXIS2_PLACEMENT_3D('',#582,#583,#584);
#582 = CARTESIAN_POINT('',(5.560147622345E-04,-335.,-23.35247342396));
#583 = DIRECTION('',(1.727784582073E-15,-1.,-1.224646799147E-16));
#584 = DIRECTION('',(1.,1.727784582073E-15,0.));
#585 = DEFINITIONAL_REPRESENTATION('',(#586),#590);
#586 = LINE('',#587,#588);
#587 = CARTESIAN_POINT('',(-5.34400800659E-04,23.352473425384));
#588 = VECTOR('',#589,1.);
#589 = DIRECTION('',(1.,1.42108547152E-13));
#590 = ( GEOMETRIC_REPRESENTATION_CONTEXT(2) 
PARAMETRIC_REPRESENTATION_CONTEXT() REPRESENTATION_CONTEXT('2D SPACE',''
  ) );
#591 = ORIENTED_EDGE('',*,*,#592,.F.);
#592 = EDGE_CURVE('',#24,#565,#593,.T.);
#593 = SURFACE_CURVE('',#594,(#598,#605),.PCURVE_S1.);
#594 = LINE('',#595,#596);
#595 = CARTESIAN_POINT('',(-47.82220285453,-130.,1.417095607525E-09));
#596 = VECTOR('',#597,1.);
#597 = DIRECTION('',(1.71116943245E-15,-1.,-1.224646799149E-16));
#598 = PCURVE('',#44,#599);
#599 = DEFINITIONAL_REPRESENTATION('',(#600),#604);
#600 = LINE('',#601,#602);
#601 = CARTESIAN_POINT('',(47.822224468491,-102.5));
#602 = VECTOR('',#603,1.);
#603 = DIRECTION('',(1.661514962302E-17,1.));
#604 = ( GEOMETRIC_REPRESENTATION_CONTEXT(2) 
PARAMETRIC_REPRESENTATION_CONTEXT() REPRESENTATION_CONTEXT('2D SPACE',''
  ) );
#605 = PCURVE('',#547,#606);
#606 = DEFINITIONAL_REPRESENTATION('',(#607),#611);
#607 = LINE('',#608,#609);
#608 = CARTESIAN_POINT('',(7.103183416486,-8.698890834761E-16));
#609 = VECTOR('',#610,1.);
#610 = DIRECTION('',(-1.144341350636E-28,1.));
#611 = ( GEOMETRIC_REPRESENTATION_CONTEXT(2) 
PARAMETRIC_REPRESENTATION_CONTEXT() REPRESENTATION_CONTEXT('2D SPACE',''
  ) );
#612 = ORIENTED_EDGE('',*,*,#21,.F.);
#613 = ORIENTED_EDGE('',*,*,#614,.T.);
#614 = EDGE_CURVE('',#22,#563,#615,.T.);
#615 = SURFACE_CURVE('',#616,(#620,#627),.PCURVE_S1.);
#616 = LINE('',#617,#618);
#617 = CARTESIAN_POINT('',(-53.11821750133,-130.,1.416343134411E-09));
#618 = VECTOR('',#619,1.);
#619 = DIRECTION('',(1.71116943245E-15,-1.,-1.224646799149E-16));
#620 = PCURVE('',#44,#621);
#621 = DEFINITIONAL_REPRESENTATION('',(#622),#626);
#622 = LINE('',#623,#624);
#623 = CARTESIAN_POINT('',(53.118239115291,-102.5));
#624 = VECTOR('',#625,1.);
#625 = DIRECTION('',(1.661514962302E-17,1.));
#626 = ( GEOMETRIC_REPRESENTATION_CONTEXT(2) 
PARAMETRIC_REPRESENTATION_CONTEXT() REPRESENTATION_CONTEXT('2D SPACE',''
  ) );
#627 = PCURVE('',#73,#628);
#628 = DEFINITIONAL_REPRESENTATION('',(#629),#633);
#629 = LINE('',#630,#631);
#630 = CARTESIAN_POINT('',(0.,-8.526512829145E-14));
#631 = VECTOR('',#632,1.);
#632 = DIRECTION('',(0.,1.));
#633 = ( GEOMETRIC_REPRESENTATION_CONTEXT(2) 
PARAMETRIC_REPRESENTATION_CONTEXT() REPRESENTATION_CONTEXT('2D SPACE',''
  ) );
#634 = ADVANCED_FACE('',(#635),#547,.T.);
#635 = FACE_BOUND('',#636,.T.);
#636 = EDGE_LOOP('',(#637,#660,#681,#682));
#637 = ORIENTED_EDGE('',*,*,#638,.T.);
#638 = EDGE_CURVE('',#565,#639,#641,.T.);
#639 = VERTEX_POINT('',#640);
#640 = CARTESIAN_POINT('',(-47.82220285453,-335.,-7.103183415069));
#641 = SURFACE_CURVE('',#642,(#646,#653),.PCURVE_S1.);
#642 = LINE('',#643,#644);
#643 = CARTESIAN_POINT('',(-47.82220285453,-335.,-15.22782841951));
#644 = VECTOR('',#645,1.);
#645 = DIRECTION('',(8.446038641579E-15,1.224646799147E-16,-1.));
#646 = PCURVE('',#547,#647);
#647 = DEFINITIONAL_REPRESENTATION('',(#648),#652);
#648 = LINE('',#649,#650);
#649 = CARTESIAN_POINT('',(-8.124645004441,205.));
#650 = VECTOR('',#651,1.);
#651 = DIRECTION('',(-1.,1.000127716401E-28));
#652 = ( GEOMETRIC_REPRESENTATION_CONTEXT(2) 
PARAMETRIC_REPRESENTATION_CONTEXT() REPRESENTATION_CONTEXT('2D SPACE',''
  ) );
#653 = PCURVE('',#580,#654);
#654 = DEFINITIONAL_REPRESENTATION('',(#655),#659);
#655 = LINE('',#656,#657);
#656 = CARTESIAN_POINT('',(-47.82275886929,8.12464500445));
#657 = VECTOR('',#658,1.);
#658 = DIRECTION('',(8.446038641579E-15,-1.));
#659 = ( GEOMETRIC_REPRESENTATION_CONTEXT(2) 
PARAMETRIC_REPRESENTATION_CONTEXT() REPRESENTATION_CONTEXT('2D SPACE',''
  ) );
#660 = ORIENTED_EDGE('',*,*,#661,.F.);
#661 = EDGE_CURVE('',#505,#639,#662,.T.);
#662 = SURFACE_CURVE('',#663,(#667,#674),.PCURVE_S1.);
#663 = LINE('',#664,#665);
#664 = CARTESIAN_POINT('',(-47.82220285453,-130.,-7.103183415069));
#665 = VECTOR('',#666,1.);
#666 = DIRECTION('',(1.71116943245E-15,-1.,-1.224646799149E-16));
#667 = PCURVE('',#547,#668);
#668 = DEFINITIONAL_REPRESENTATION('',(#669),#673);
#669 = LINE('',#670,#671);
#670 = CARTESIAN_POINT('',(0.,0.));
#671 = VECTOR('',#672,1.);
#672 = DIRECTION('',(-1.144341350636E-28,1.));
#673 = ( GEOMETRIC_REPRESENTATION_CONTEXT(2) 
PARAMETRIC_REPRESENTATION_CONTEXT() REPRESENTATION_CONTEXT('2D SPACE',''
  ) );
#674 = PCURVE('',#521,#675);
#675 = DEFINITIONAL_REPRESENTATION('',(#676),#680);
#676 = LINE('',#677,#678);
#677 = CARTESIAN_POINT('',(0.,-2.84217094304E-14));
#678 = VECTOR('',#679,1.);
#679 = DIRECTION('',(0.,1.));
#680 = ( GEOMETRIC_REPRESENTATION_CONTEXT(2) 
PARAMETRIC_REPRESENTATION_CONTEXT() REPRESENTATION_CONTEXT('2D SPACE',''
  ) );
#681 = ORIENTED_EDGE('',*,*,#533,.F.);
#682 = ORIENTED_EDGE('',*,*,#592,.T.);
#683 = ADVANCED_FACE('',(#684),#521,.F.);
#684 = FACE_BOUND('',#685,.F.);
#685 = EDGE_LOOP('',(#686,#687,#688,#711));
#686 = ORIENTED_EDGE('',*,*,#661,.F.);
#687 = ORIENTED_EDGE('',*,*,#504,.T.);
#688 = ORIENTED_EDGE('',*,*,#689,.T.);
#689 = EDGE_CURVE('',#476,#690,#692,.T.);
#690 = VERTEX_POINT('',#691);
#691 = CARTESIAN_POINT('',(-46.7214504772,-335.,-12.23223338918));
#692 = SURFACE_CURVE('',#693,(#697,#704),.PCURVE_S1.);
#693 = LINE('',#694,#695);
#694 = CARTESIAN_POINT('',(-46.7214504772,-130.,-12.23223338918));
#695 = VECTOR('',#696,1.);
#696 = DIRECTION('',(1.71116943245E-15,-1.,-1.224646799149E-16));
#697 = PCURVE('',#521,#698);
#698 = DEFINITIONAL_REPRESENTATION('',(#699),#703);
#699 = LINE('',#700,#701);
#700 = CARTESIAN_POINT('',(0.422809318137,-2.84217094304E-14));
#701 = VECTOR('',#702,1.);
#702 = DIRECTION('',(-1.083144414268E-18,1.));
#703 = ( GEOMETRIC_REPRESENTATION_CONTEXT(2) 
PARAMETRIC_REPRESENTATION_CONTEXT() REPRESENTATION_CONTEXT('2D SPACE',''
  ) );
#704 = PCURVE('',#492,#705);
#705 = DEFINITIONAL_REPRESENTATION('',(#706),#710);
#706 = LINE('',#707,#708);
#707 = CARTESIAN_POINT('',(0.,-8.526512829121E-14));
#708 = VECTOR('',#709,1.);
#709 = DIRECTION('',(0.,1.));
#710 = ( GEOMETRIC_REPRESENTATION_CONTEXT(2) 
PARAMETRIC_REPRESENTATION_CONTEXT() REPRESENTATION_CONTEXT('2D SPACE',''
  ) );
#711 = ORIENTED_EDGE('',*,*,#712,.F.);
#712 = EDGE_CURVE('',#639,#690,#713,.T.);
#713 = SURFACE_CURVE('',#714,(#719,#726),.PCURVE_S1.);
#714 = CIRCLE('',#715,12.5);
#715 = AXIS2_PLACEMENT_3D('',#716,#717,#718);
#716 = CARTESIAN_POINT('',(-35.32220285453,-335.,-7.10318341507));
#717 = DIRECTION('',(1.727784582073E-15,-1.,-1.224646799147E-16));
#718 = DIRECTION('',(-1.,-1.727784582073E-15,4.884981308351E-14));
#719 = PCURVE('',#521,#720);
#720 = DEFINITIONAL_REPRESENTATION('',(#721),#725);
#721 = LINE('',#722,#723);
#722 = CARTESIAN_POINT('',(0.,205.));
#723 = VECTOR('',#724,1.);
#724 = DIRECTION('',(1.,0.));
#725 = ( GEOMETRIC_REPRESENTATION_CONTEXT(2) 
PARAMETRIC_REPRESENTATION_CONTEXT() REPRESENTATION_CONTEXT('2D SPACE',''
  ) );
#726 = PCURVE('',#580,#727);
#727 = DEFINITIONAL_REPRESENTATION('',(#728),#732);
#728 = CIRCLE('',#729,12.5);
#729 = AXIS2_PLACEMENT_2D('',#730,#731);
#730 = CARTESIAN_POINT('',(-35.32275886929,16.24929000889));
#731 = DIRECTION('',(-1.,4.884981308351E-14));
#732 = ( GEOMETRIC_REPRESENTATION_CONTEXT(2) 
PARAMETRIC_REPRESENTATION_CONTEXT() REPRESENTATION_CONTEXT('2D SPACE',''
  ) );
#733 = ADVANCED_FACE('',(#734),#492,.F.);
#734 = FACE_BOUND('',#735,.F.);
#735 = EDGE_LOOP('',(#736,#737,#738,#759));
#736 = ORIENTED_EDGE('',*,*,#689,.F.);
#737 = ORIENTED_EDGE('',*,*,#475,.T.);
#738 = ORIENTED_EDGE('',*,*,#739,.T.);
#739 = EDGE_CURVE('',#450,#740,#742,.T.);
#740 = VERTEX_POINT('',#741);
#741 = CARTESIAN_POINT('',(-2.999984384485,-335.,-41.69046503019));
#742 = SURFACE_CURVE('',#743,(#747,#753),.PCURVE_S1.);
#743 = LINE('',#744,#745);
#744 = CARTESIAN_POINT('',(-2.999984384476,-130.,-41.69046503019));
#745 = VECTOR('',#746,1.);
#746 = DIRECTION('',(1.71116943245E-15,-1.,-1.224646799149E-16));
#747 = PCURVE('',#492,#748);
#748 = DEFINITIONAL_REPRESENTATION('',(#749),#752);
#749 = B_SPLINE_CURVE_WITH_KNOTS('',1,(#750,#751),.UNSPECIFIED.,.F.,.F.,
  (2,2),(-2.040000001102E-05,205.0000204),.PIECEWISE_BEZIER_KNOTS.);
#750 = CARTESIAN_POINT('',(1.110165032325,-2.04000000934E-05));
#751 = CARTESIAN_POINT('',(1.110165032325,205.0000204));
#752 = ( GEOMETRIC_REPRESENTATION_CONTEXT(2) 
PARAMETRIC_REPRESENTATION_CONTEXT() REPRESENTATION_CONTEXT('2D SPACE',''
  ) );
#753 = PCURVE('',#464,#754);
#754 = DEFINITIONAL_REPRESENTATION('',(#755),#758);
#755 = B_SPLINE_CURVE_WITH_KNOTS('',1,(#756,#757),.UNSPECIFIED.,.F.,.F.,
  (2,2),(-2.040000001102E-05,205.0000204),.PIECEWISE_BEZIER_KNOTS.);
#756 = CARTESIAN_POINT('',(-39.1737459877,6.134917295945));
#757 = CARTESIAN_POINT('',(165.8262948123,6.134917295945));
#758 = ( GEOMETRIC_REPRESENTATION_CONTEXT(2) 
PARAMETRIC_REPRESENTATION_CONTEXT() REPRESENTATION_CONTEXT('2D SPACE',''
  ) );
#759 = ORIENTED_EDGE('',*,*,#760,.F.);
#760 = EDGE_CURVE('',#690,#740,#761,.T.);
#761 = SURFACE_CURVE('',#762,(#767,#774),.PCURVE_S1.);
#762 = CIRCLE('',#763,50.017301357235);
#763 = AXIS2_PLACEMENT_3D('',#764,#765,#766);
#764 = CARTESIAN_POINT('',(-1.108682190093,-335.,8.291065669354));
#765 = DIRECTION('',(1.727784582073E-15,-1.,-1.224646799147E-16));
#766 = DIRECTION('',(-0.911939809814,-1.525385346107E-15,-0.410323997929
    ));
#767 = PCURVE('',#492,#768);
#768 = DEFINITIONAL_REPRESENTATION('',(#769),#773);
#769 = LINE('',#770,#771);
#770 = CARTESIAN_POINT('',(0.,205.));
#771 = VECTOR('',#772,1.);
#772 = DIRECTION('',(1.,0.));
#773 = ( GEOMETRIC_REPRESENTATION_CONTEXT(2) 
PARAMETRIC_REPRESENTATION_CONTEXT() REPRESENTATION_CONTEXT('2D SPACE',''
  ) );
#774 = PCURVE('',#580,#775);
#775 = DEFINITIONAL_REPRESENTATION('',(#776),#780);
#776 = CIRCLE('',#777,50.017301357235);
#777 = AXIS2_PLACEMENT_2D('',#778,#779);
#778 = CARTESIAN_POINT('',(-1.109238204855,31.643539093314));
#779 = DIRECTION('',(-0.911939809814,-0.410323997929));
#780 = ( GEOMETRIC_REPRESENTATION_CONTEXT(2) 
PARAMETRIC_REPRESENTATION_CONTEXT() REPRESENTATION_CONTEXT('2D SPACE',''
  ) );
#781 = ADVANCED_FACE('',(#782),#464,.T.);
#782 = FACE_BOUND('',#783,.T.);
#783 = EDGE_LOOP('',(#784,#807,#808,#809));
#784 = ORIENTED_EDGE('',*,*,#785,.T.);
#785 = EDGE_CURVE('',#786,#424,#788,.T.);
#786 = VERTEX_POINT('',#787);
#787 = CARTESIAN_POINT('',(-2.999984384484,-335.,-41.71392353063));
#788 = SURFACE_CURVE('',#789,(#793,#800),.PCURVE_S1.);
#789 = LINE('',#790,#791);
#790 = CARTESIAN_POINT('',(-2.999984384485,-347.6535769368,
    -41.71392353061));
#791 = VECTOR('',#792,1.);
#792 = DIRECTION('',(4.27321074577E-14,1.,-1.759573240862E-12));
#793 = PCURVE('',#464,#794);
#794 = DEFINITIONAL_REPRESENTATION('',(#795),#799);
#795 = LINE('',#796,#797);
#796 = CARTESIAN_POINT('',(178.4798513491,6.15837579636));
#797 = VECTOR('',#798,1.);
#798 = DIRECTION('',(-1.,1.759573240862E-12));
#799 = ( GEOMETRIC_REPRESENTATION_CONTEXT(2) 
PARAMETRIC_REPRESENTATION_CONTEXT() REPRESENTATION_CONTEXT('2D SPACE',''
  ) );
#800 = PCURVE('',#438,#801);
#801 = DEFINITIONAL_REPRESENTATION('',(#802),#806);
#802 = LINE('',#803,#804);
#803 = CARTESIAN_POINT('',(0.,0.));
#804 = VECTOR('',#805,1.);
#805 = DIRECTION('',(1.,-2.712367951165E-30));
#806 = ( GEOMETRIC_REPRESENTATION_CONTEXT(2) 
PARAMETRIC_REPRESENTATION_CONTEXT() REPRESENTATION_CONTEXT('2D SPACE',''
  ) );
#807 = ORIENTED_EDGE('',*,*,#449,.T.);
#808 = ORIENTED_EDGE('',*,*,#739,.T.);
#809 = ORIENTED_EDGE('',*,*,#810,.F.);
#810 = EDGE_CURVE('',#786,#740,#811,.T.);
#811 = SURFACE_CURVE('',#812,(#816,#822),.PCURVE_S1.);
#812 = LINE('',#813,#814);
#813 = CARTESIAN_POINT('',(-2.999984384486,-335.,-29.4540105791));
#814 = VECTOR('',#815,1.);
#815 = DIRECTION('',(-7.418371472667E-14,-1.224646799148E-16,1.));
#816 = PCURVE('',#464,#817);
#817 = DEFINITIONAL_REPRESENTATION('',(#818),#821);
#818 = B_SPLINE_CURVE_WITH_KNOTS('',1,(#819,#820),.UNSPECIFIED.,.F.,.F.,
  (2,2),(-12.25991295229,29.454010475308),.PIECEWISE_BEZIER_KNOTS.);
#819 = CARTESIAN_POINT('',(165.8262744123,6.15837579715));
#820 = CARTESIAN_POINT('',(165.8262744123,-35.55554763045));
#821 = ( GEOMETRIC_REPRESENTATION_CONTEXT(2) 
PARAMETRIC_REPRESENTATION_CONTEXT() REPRESENTATION_CONTEXT('2D SPACE',''
  ) );
#822 = PCURVE('',#580,#823);
#823 = DEFINITIONAL_REPRESENTATION('',(#824),#827);
#824 = B_SPLINE_CURVE_WITH_KNOTS('',1,(#825,#826),.UNSPECIFIED.,.F.,.F.,
  (2,2),(-12.25991295229,29.454010475308),.PIECEWISE_BEZIER_KNOTS.);
#825 = CARTESIAN_POINT('',(-3.000540399247,-18.36145010744));
#826 = CARTESIAN_POINT('',(-3.00054039925,23.352473320163));
#827 = ( GEOMETRIC_REPRESENTATION_CONTEXT(2) 
PARAMETRIC_REPRESENTATION_CONTEXT() REPRESENTATION_CONTEXT('2D SPACE',''
  ) );
#828 = ADVANCED_FACE('',(#829),#438,.T.);
#829 = FACE_BOUND('',#830,.T.);
#830 = EDGE_LOOP('',(#831,#832,#853,#874));
#831 = ORIENTED_EDGE('',*,*,#785,.F.);
#832 = ORIENTED_EDGE('',*,*,#833,.F.);
#833 = EDGE_CURVE('',#834,#786,#836,.T.);
#834 = VERTEX_POINT('',#835);
#835 = CARTESIAN_POINT('',(-2.499984384486,-335.,-41.71392353061));
#836 = SURFACE_CURVE('',#837,(#841,#847),.PCURVE_S1.);
#837 = LINE('',#838,#839);
#838 = CARTESIAN_POINT('',(-1.499714184861,-335.,-41.71392353063));
#839 = VECTOR('',#840,1.);
#840 = DIRECTION('',(-1.,-1.727784582073E-15,-7.418371472659E-14));
#841 = PCURVE('',#438,#842);
#842 = DEFINITIONAL_REPRESENTATION('',(#843),#846);
#843 = B_SPLINE_CURVE_WITH_KNOTS('',1,(#844,#845),.UNSPECIFIED.,.F.,.F.,
  (2,2),(-4.499729800376,1.500270199624),.PIECEWISE_BEZIER_KNOTS.);
#844 = CARTESIAN_POINT('',(12.6535769368,-6.));
#845 = CARTESIAN_POINT('',(12.6535769368,1.292299600664E-13));
#846 = ( GEOMETRIC_REPRESENTATION_CONTEXT(2) 
PARAMETRIC_REPRESENTATION_CONTEXT() REPRESENTATION_CONTEXT('2D SPACE',''
  ) );
#847 = PCURVE('',#580,#848);
#848 = DEFINITIONAL_REPRESENTATION('',(#849),#852);
#849 = B_SPLINE_CURVE_WITH_KNOTS('',1,(#850,#851),.UNSPECIFIED.,.F.,.F.,
  (2,2),(-4.499729800376,1.500270199624),.PIECEWISE_BEZIER_KNOTS.);
#850 = CARTESIAN_POINT('',(2.999459600753,-18.36145010667));
#851 = CARTESIAN_POINT('',(-3.000540399247,-18.36145010667));
#852 = ( GEOMETRIC_REPRESENTATION_CONTEXT(2) 
PARAMETRIC_REPRESENTATION_CONTEXT() REPRESENTATION_CONTEXT('2D SPACE',''
  ) );
#853 = ORIENTED_EDGE('',*,*,#854,.F.);
#854 = EDGE_CURVE('',#396,#834,#855,.T.);
#855 = SURFACE_CURVE('',#856,(#860,#867),.PCURVE_S1.);
#856 = LINE('',#857,#858);
#857 = CARTESIAN_POINT('',(-2.499984384486,-130.,-41.71392353061));
#858 = VECTOR('',#859,1.);
#859 = DIRECTION('',(1.71116943245E-15,-1.,-1.224646799149E-16));
#860 = PCURVE('',#438,#861);
#861 = DEFINITIONAL_REPRESENTATION('',(#862),#866);
#862 = LINE('',#863,#864);
#863 = CARTESIAN_POINT('',(217.6535769368,-0.49999999999));
#864 = VECTOR('',#865,1.);
#865 = DIRECTION('',(-1.,-4.444327689002E-14));
#866 = ( GEOMETRIC_REPRESENTATION_CONTEXT(2) 
PARAMETRIC_REPRESENTATION_CONTEXT() REPRESENTATION_CONTEXT('2D SPACE',''
  ) );
#867 = PCURVE('',#411,#868);
#868 = DEFINITIONAL_REPRESENTATION('',(#869),#873);
#869 = LINE('',#870,#871);
#870 = CARTESIAN_POINT('',(0.208503017657,-3.602482992235E-16));
#871 = VECTOR('',#872,1.);
#872 = DIRECTION('',(1.661514962302E-17,1.));
#873 = ( GEOMETRIC_REPRESENTATION_CONTEXT(2) 
PARAMETRIC_REPRESENTATION_CONTEXT() REPRESENTATION_CONTEXT('2D SPACE',''
  ) );
#874 = ORIENTED_EDGE('',*,*,#423,.T.);
#875 = ADVANCED_FACE('',(#876),#411,.T.);
#876 = FACE_BOUND('',#877,.T.);
#877 = EDGE_LOOP('',(#878,#901,#922,#923));
#878 = ORIENTED_EDGE('',*,*,#879,.T.);
#879 = EDGE_CURVE('',#834,#880,#882,.T.);
#880 = VERTEX_POINT('',#881);
#881 = CARTESIAN_POINT('',(-2.291481366828,-335.,-41.71392353061));
#882 = SURFACE_CURVE('',#883,(#887,#894),.PCURVE_S1.);
#883 = LINE('',#884,#885);
#884 = CARTESIAN_POINT('',(-1.145462676032,-335.,-41.71392353061));
#885 = VECTOR('',#886,1.);
#886 = DIRECTION('',(1.,1.727784582073E-15,1.42108547152E-13));
#887 = PCURVE('',#411,#888);
#888 = DEFINITIONAL_REPRESENTATION('',(#889),#893);
#889 = LINE('',#890,#891);
#890 = CARTESIAN_POINT('',(-1.146018690797,205.));
#891 = VECTOR('',#892,1.);
#892 = DIRECTION('',(-1.,-4.833782528663E-32));
#893 = ( GEOMETRIC_REPRESENTATION_CONTEXT(2) 
PARAMETRIC_REPRESENTATION_CONTEXT() REPRESENTATION_CONTEXT('2D SPACE',''
  ) );
#894 = PCURVE('',#580,#895);
#895 = DEFINITIONAL_REPRESENTATION('',(#896),#900);
#896 = LINE('',#897,#898);
#897 = CARTESIAN_POINT('',(-1.146018690794,-18.36145010665));
#898 = VECTOR('',#899,1.);
#899 = DIRECTION('',(1.,1.42108547152E-13));
#900 = ( GEOMETRIC_REPRESENTATION_CONTEXT(2) 
PARAMETRIC_REPRESENTATION_CONTEXT() REPRESENTATION_CONTEXT('2D SPACE',''
  ) );
#901 = ORIENTED_EDGE('',*,*,#902,.F.);
#902 = EDGE_CURVE('',#367,#880,#903,.T.);
#903 = SURFACE_CURVE('',#904,(#908,#915),.PCURVE_S1.);
#904 = LINE('',#905,#906);
#905 = CARTESIAN_POINT('',(-2.291481366829,-130.,-41.71392353061));
#906 = VECTOR('',#907,1.);
#907 = DIRECTION('',(1.71116943245E-15,-1.,-1.224646799149E-16));
#908 = PCURVE('',#411,#909);
#909 = DEFINITIONAL_REPRESENTATION('',(#910),#914);
#910 = LINE('',#911,#912);
#911 = CARTESIAN_POINT('',(-0.,0.));
#912 = VECTOR('',#913,1.);
#913 = DIRECTION('',(1.661514962302E-17,1.));
#914 = ( GEOMETRIC_REPRESENTATION_CONTEXT(2) 
PARAMETRIC_REPRESENTATION_CONTEXT() REPRESENTATION_CONTEXT('2D SPACE',''
  ) );
#915 = PCURVE('',#383,#916);
#916 = DEFINITIONAL_REPRESENTATION('',(#917),#921);
#917 = LINE('',#918,#919);
#918 = CARTESIAN_POINT('',(7.443166276969E-02,0.));
#919 = VECTOR('',#920,1.);
#920 = DIRECTION('',(-6.769652589178E-20,1.));
#921 = ( GEOMETRIC_REPRESENTATION_CONTEXT(2) 
PARAMETRIC_REPRESENTATION_CONTEXT() REPRESENTATION_CONTEXT('2D SPACE',''
  ) );
#922 = ORIENTED_EDGE('',*,*,#395,.T.);
#923 = ORIENTED_EDGE('',*,*,#854,.T.);
#924 = ADVANCED_FACE('',(#925),#383,.F.);
#925 = FACE_BOUND('',#926,.F.);
#926 = EDGE_LOOP('',(#927,#928,#929,#950));
#927 = ORIENTED_EDGE('',*,*,#902,.F.);
#928 = ORIENTED_EDGE('',*,*,#366,.T.);
#929 = ORIENTED_EDGE('',*,*,#930,.T.);
#930 = EDGE_CURVE('',#341,#931,#933,.T.);
#931 = VERTEX_POINT('',#932);
#932 = CARTESIAN_POINT('',(2.308538633385,-335.,-41.71392353063));
#933 = SURFACE_CURVE('',#934,(#938,#944),.PCURVE_S1.);
#934 = LINE('',#935,#936);
#935 = CARTESIAN_POINT('',(2.308538623168,-130.0000000001,
    -41.71392353099));
#936 = VECTOR('',#937,1.);
#937 = DIRECTION('',(1.71116943245E-15,-1.,-1.224646799149E-16));
#938 = PCURVE('',#383,#939);
#939 = DEFINITIONAL_REPRESENTATION('',(#940),#943);
#940 = B_SPLINE_CURVE_WITH_KNOTS('',1,(#941,#942),.UNSPECIFIED.,.F.,.F.,
  (2,2),(-2.040011463578E-05,205.00002039988),.PIECEWISE_BEZIER_KNOTS.);
#941 = CARTESIAN_POINT('',(0.145010815992,-2.039999999911E-05));
#942 = CARTESIAN_POINT('',(0.145010815992,205.0000204));
#943 = ( GEOMETRIC_REPRESENTATION_CONTEXT(2) 
PARAMETRIC_REPRESENTATION_CONTEXT() REPRESENTATION_CONTEXT('2D SPACE',''
  ) );
#944 = PCURVE('',#355,#945);
#945 = DEFINITIONAL_REPRESENTATION('',(#946),#949);
#946 = B_SPLINE_CURVE_WITH_KNOTS('',1,(#947,#948),.UNSPECIFIED.,.F.,.F.,
  (2,2),(-2.040011463578E-05,205.00002039988),.PIECEWISE_BEZIER_KNOTS.);
#947 = CARTESIAN_POINT('',(217.6535973368,-5.308523007644));
#948 = CARTESIAN_POINT('',(12.6535565368,-5.308523007653));
#949 = ( GEOMETRIC_REPRESENTATION_CONTEXT(2) 
PARAMETRIC_REPRESENTATION_CONTEXT() REPRESENTATION_CONTEXT('2D SPACE',''
  ) );
#950 = ORIENTED_EDGE('',*,*,#951,.F.);
#951 = EDGE_CURVE('',#880,#931,#952,.T.);
#952 = SURFACE_CURVE('',#953,(#958,#965),.PCURVE_S1.);
#953 = CIRCLE('',#954,65.188865187289);
#954 = AXIS2_PLACEMENT_3D('',#955,#956,#957);
#955 = CARTESIAN_POINT('',(8.528633482306E-03,-335.,23.434354254793));
#956 = DIRECTION('',(1.727784582073E-15,-1.,-1.224646799147E-16));
#957 = DIRECTION('',(-0.109501220839,-6.746626278092E-17,-0.993986661196
    ));
#958 = PCURVE('',#383,#959);
#959 = DEFINITIONAL_REPRESENTATION('',(#960),#964);
#960 = LINE('',#961,#962);
#961 = CARTESIAN_POINT('',(-1.387778780781E-17,205.));
#962 = VECTOR('',#963,1.);
#963 = DIRECTION('',(1.,0.));
#964 = ( GEOMETRIC_REPRESENTATION_CONTEXT(2) 
PARAMETRIC_REPRESENTATION_CONTEXT() REPRESENTATION_CONTEXT('2D SPACE',''
  ) );
#965 = PCURVE('',#580,#966);
#966 = DEFINITIONAL_REPRESENTATION('',(#967),#971);
#967 = CIRCLE('',#968,65.188865187289);
#968 = AXIS2_PLACEMENT_2D('',#969,#970);
#969 = CARTESIAN_POINT('',(7.972618720071E-03,46.786827678753));
#970 = DIRECTION('',(-0.109501220839,-0.993986661196));
#971 = ( GEOMETRIC_REPRESENTATION_CONTEXT(2) 
PARAMETRIC_REPRESENTATION_CONTEXT() REPRESENTATION_CONTEXT('2D SPACE',''
  ) );
#972 = ADVANCED_FACE('',(#973),#355,.T.);
#973 = FACE_BOUND('',#974,.T.);
#974 = EDGE_LOOP('',(#975,#996,#1017,#1018));
#975 = ORIENTED_EDGE('',*,*,#976,.F.);
#976 = EDGE_CURVE('',#977,#931,#979,.T.);
#977 = VERTEX_POINT('',#978);
#978 = CARTESIAN_POINT('',(3.000015615516,-335.,-41.71392353063));
#979 = SURFACE_CURVE('',#980,(#984,#990),.PCURVE_S1.);
#980 = LINE('',#981,#982);
#981 = CARTESIAN_POINT('',(-1.499714184861,-335.,-41.71392353063));
#982 = VECTOR('',#983,1.);
#983 = DIRECTION('',(-1.,-1.727784582073E-15,-7.418371472659E-14));
#984 = PCURVE('',#355,#985);
#985 = DEFINITIONAL_REPRESENTATION('',(#986),#989);
#986 = B_SPLINE_CURVE_WITH_KNOTS('',1,(#987,#988),.UNSPECIFIED.,.F.,.F.,
  (2,2),(-4.499729800376,1.500270199624),.PIECEWISE_BEZIER_KNOTS.);
#987 = CARTESIAN_POINT('',(12.6535769368,-6.));
#988 = CARTESIAN_POINT('',(12.6535769368,1.292299600664E-13));
#989 = ( GEOMETRIC_REPRESENTATION_CONTEXT(2) 
PARAMETRIC_REPRESENTATION_CONTEXT() REPRESENTATION_CONTEXT('2D SPACE',''
  ) );
#990 = PCURVE('',#580,#991);
#991 = DEFINITIONAL_REPRESENTATION('',(#992),#995);
#992 = B_SPLINE_CURVE_WITH_KNOTS('',1,(#993,#994),.UNSPECIFIED.,.F.,.F.,
  (2,2),(-4.499729800376,1.500270199624),.PIECEWISE_BEZIER_KNOTS.);
#993 = CARTESIAN_POINT('',(2.999459600753,-18.36145010667));
#994 = CARTESIAN_POINT('',(-3.000540399247,-18.36145010667));
#995 = ( GEOMETRIC_REPRESENTATION_CONTEXT(2) 
PARAMETRIC_REPRESENTATION_CONTEXT() REPRESENTATION_CONTEXT('2D SPACE',''
  ) );
#996 = ORIENTED_EDGE('',*,*,#997,.T.);
#997 = EDGE_CURVE('',#977,#315,#998,.T.);
#998 = SURFACE_CURVE('',#999,(#1003,#1010),.PCURVE_S1.);
#999 = LINE('',#1000,#1001);
#1000 = CARTESIAN_POINT('',(3.000015615515,-347.6535769368,
    -41.71392353061));
#1001 = VECTOR('',#1002,1.);
#1002 = DIRECTION('',(4.27321074577E-14,1.,-1.759573240862E-12));
#1003 = PCURVE('',#355,#1004);
#1004 = DEFINITIONAL_REPRESENTATION('',(#1005),#1009);
#1005 = LINE('',#1006,#1007);
#1006 = CARTESIAN_POINT('',(2.563926447454E-13,-6.));
#1007 = VECTOR('',#1008,1.);
#1008 = DIRECTION('',(1.,-2.712367951165E-30));
#1009 = ( GEOMETRIC_REPRESENTATION_CONTEXT(2) 
PARAMETRIC_REPRESENTATION_CONTEXT() REPRESENTATION_CONTEXT('2D SPACE',''
  ) );
#1010 = PCURVE('',#329,#1011);
#1011 = DEFINITIONAL_REPRESENTATION('',(#1012),#1016);
#1012 = LINE('',#1013,#1014);
#1013 = CARTESIAN_POINT('',(178.4798513491,6.15837579636));
#1014 = VECTOR('',#1015,1.);
#1015 = DIRECTION('',(-1.,1.759573240862E-12));
#1016 = ( GEOMETRIC_REPRESENTATION_CONTEXT(2) 
PARAMETRIC_REPRESENTATION_CONTEXT() REPRESENTATION_CONTEXT('2D SPACE',''
  ) );
#1017 = ORIENTED_EDGE('',*,*,#340,.T.);
#1018 = ORIENTED_EDGE('',*,*,#930,.T.);
#1019 = ADVANCED_FACE('',(#1020),#329,.F.);
#1020 = FACE_BOUND('',#1021,.F.);
#1021 = EDGE_LOOP('',(#1022,#1023,#1024,#1045));
#1022 = ORIENTED_EDGE('',*,*,#997,.T.);
#1023 = ORIENTED_EDGE('',*,*,#314,.T.);
#1024 = ORIENTED_EDGE('',*,*,#1025,.T.);
#1025 = EDGE_CURVE('',#286,#1026,#1028,.T.);
#1026 = VERTEX_POINT('',#1027);
#1027 = CARTESIAN_POINT('',(3.000015615515,-335.,-41.69046548415));
#1028 = SURFACE_CURVE('',#1029,(#1033,#1039),.PCURVE_S1.);
#1029 = LINE('',#1030,#1031);
#1030 = CARTESIAN_POINT('',(3.000015615524,-130.,-41.69046548415));
#1031 = VECTOR('',#1032,1.);
#1032 = DIRECTION('',(1.71116943245E-15,-1.,-1.224646799149E-16));
#1033 = PCURVE('',#329,#1034);
#1034 = DEFINITIONAL_REPRESENTATION('',(#1035),#1038);
#1035 = B_SPLINE_CURVE_WITH_KNOTS('',1,(#1036,#1037),.UNSPECIFIED.,.F.,
  .F.,(2,2),(-2.040000009629E-05,205.0000204),.PIECEWISE_BEZIER_KNOTS.);
#1036 = CARTESIAN_POINT('',(-39.1737459877,6.134917749906));
#1037 = CARTESIAN_POINT('',(165.8262948123,6.134917749906));
#1038 = ( GEOMETRIC_REPRESENTATION_CONTEXT(2) 
PARAMETRIC_REPRESENTATION_CONTEXT() REPRESENTATION_CONTEXT('2D SPACE',''
  ) );
#1039 = PCURVE('',#302,#1040);
#1040 = DEFINITIONAL_REPRESENTATION('',(#1041),#1044);
#1041 = B_SPLINE_CURVE_WITH_KNOTS('',1,(#1042,#1043),.UNSPECIFIED.,.F.,
  .F.,(2,2),(-2.040000009629E-05,205.0000204),.PIECEWISE_BEZIER_KNOTS.);
#1042 = CARTESIAN_POINT('',(1.000184920625E-02,-2.040000000167E-05));
#1043 = CARTESIAN_POINT('',(1.000184920625E-02,205.0000204));
#1044 = ( GEOMETRIC_REPRESENTATION_CONTEXT(2) 
PARAMETRIC_REPRESENTATION_CONTEXT() REPRESENTATION_CONTEXT('2D SPACE',''
  ) );
#1045 = ORIENTED_EDGE('',*,*,#1046,.F.);
#1046 = EDGE_CURVE('',#977,#1026,#1047,.T.);
#1047 = SURFACE_CURVE('',#1048,(#1052,#1058),.PCURVE_S1.);
#1048 = LINE('',#1049,#1050);
#1049 = CARTESIAN_POINT('',(3.000015615514,-335.,-29.4540105791));
#1050 = VECTOR('',#1051,1.);
#1051 = DIRECTION('',(-7.418371472667E-14,-1.224646799148E-16,1.));
#1052 = PCURVE('',#329,#1053);
#1053 = DEFINITIONAL_REPRESENTATION('',(#1054),#1057);
#1054 = B_SPLINE_CURVE_WITH_KNOTS('',1,(#1055,#1056),.UNSPECIFIED.,.F.,
  .F.,(2,2),(-12.25991295229,29.454010475309),.PIECEWISE_BEZIER_KNOTS.);
#1055 = CARTESIAN_POINT('',(165.8262744123,6.15837579715));
#1056 = CARTESIAN_POINT('',(165.8262744123,-35.55554763045));
#1057 = ( GEOMETRIC_REPRESENTATION_CONTEXT(2) 
PARAMETRIC_REPRESENTATION_CONTEXT() REPRESENTATION_CONTEXT('2D SPACE',''
  ) );
#1058 = PCURVE('',#580,#1059);
#1059 = DEFINITIONAL_REPRESENTATION('',(#1060),#1063);
#1060 = B_SPLINE_CURVE_WITH_KNOTS('',1,(#1061,#1062),.UNSPECIFIED.,.F.,
  .F.,(2,2),(-12.25991295229,29.454010475309),.PIECEWISE_BEZIER_KNOTS.);
#1061 = CARTESIAN_POINT('',(2.999459600753,-18.36145010744));
#1062 = CARTESIAN_POINT('',(2.99945960075,23.352473320164));
#1063 = ( GEOMETRIC_REPRESENTATION_CONTEXT(2) 
PARAMETRIC_REPRESENTATION_CONTEXT() REPRESENTATION_CONTEXT('2D SPACE',''
  ) );
#1064 = ADVANCED_FACE('',(#1065),#302,.F.);
#1065 = FACE_BOUND('',#1066,.F.);
#1066 = EDGE_LOOP('',(#1067,#1068,#1069,#1092));
#1067 = ORIENTED_EDGE('',*,*,#1025,.F.);
#1068 = ORIENTED_EDGE('',*,*,#285,.T.);
#1069 = ORIENTED_EDGE('',*,*,#1070,.T.);
#1070 = EDGE_CURVE('',#257,#1071,#1073,.T.);
#1071 = VERTEX_POINT('',#1072);
#1072 = CARTESIAN_POINT('',(46.721493705148,-335.,-12.23223338917));
#1073 = SURFACE_CURVE('',#1074,(#1078,#1085),.PCURVE_S1.);
#1074 = LINE('',#1075,#1076);
#1075 = CARTESIAN_POINT('',(46.721493705148,-130.,-12.23223338917));
#1076 = VECTOR('',#1077,1.);
#1077 = DIRECTION('',(1.71116943245E-15,-1.,-1.224646799149E-16));
#1078 = PCURVE('',#302,#1079);
#1079 = DEFINITIONAL_REPRESENTATION('',(#1080),#1084);
#1080 = LINE('',#1081,#1082);
#1081 = CARTESIAN_POINT('',(1.120167121557,8.526512829121E-14));
#1082 = VECTOR('',#1083,1.);
#1083 = DIRECTION('',(0.,1.));
#1084 = ( GEOMETRIC_REPRESENTATION_CONTEXT(2) 
PARAMETRIC_REPRESENTATION_CONTEXT() REPRESENTATION_CONTEXT('2D SPACE',''
  ) );
#1085 = PCURVE('',#273,#1086);
#1086 = DEFINITIONAL_REPRESENTATION('',(#1087),#1091);
#1087 = LINE('',#1088,#1089);
#1088 = CARTESIAN_POINT('',(0.,2.84217094304E-14));
#1089 = VECTOR('',#1090,1.);
#1090 = DIRECTION('',(0.,1.));
#1091 = ( GEOMETRIC_REPRESENTATION_CONTEXT(2) 
PARAMETRIC_REPRESENTATION_CONTEXT() REPRESENTATION_CONTEXT('2D SPACE',''
  ) );
#1092 = ORIENTED_EDGE('',*,*,#1093,.F.);
#1093 = EDGE_CURVE('',#1026,#1071,#1094,.T.);
#1094 = SURFACE_CURVE('',#1095,(#1100,#1107),.PCURVE_S1.);
#1095 = CIRCLE('',#1096,50.017301357236);
#1096 = AXIS2_PLACEMENT_3D('',#1097,#1098,#1099);
#1097 = CARTESIAN_POINT('',(1.108725418024,-335.,8.291065669355));
#1098 = DIRECTION('',(1.727784582073E-15,-1.,-1.224646799147E-16));
#1099 = DIRECTION('',(2.781629872443E-02,1.704778645057E-16,
    -0.999613051898));
#1100 = PCURVE('',#302,#1101);
#1101 = DEFINITIONAL_REPRESENTATION('',(#1102),#1106);
#1102 = LINE('',#1103,#1104);
#1103 = CARTESIAN_POINT('',(0.,205.));
#1104 = VECTOR('',#1105,1.);
#1105 = DIRECTION('',(1.,0.));
#1106 = ( GEOMETRIC_REPRESENTATION_CONTEXT(2) 
PARAMETRIC_REPRESENTATION_CONTEXT() REPRESENTATION_CONTEXT('2D SPACE',''
  ) );
#1107 = PCURVE('',#580,#1108);
#1108 = DEFINITIONAL_REPRESENTATION('',(#1109),#1113);
#1109 = CIRCLE('',#1110,50.017301357236);
#1110 = AXIS2_PLACEMENT_2D('',#1111,#1112);
#1111 = CARTESIAN_POINT('',(1.108169403262,31.643539093315));
#1112 = DIRECTION('',(2.781629872443E-02,-0.999613051898));
#1113 = ( GEOMETRIC_REPRESENTATION_CONTEXT(2) 
PARAMETRIC_REPRESENTATION_CONTEXT() REPRESENTATION_CONTEXT('2D SPACE',''
  ) );
#1114 = ADVANCED_FACE('',(#1115),#273,.F.);
#1115 = FACE_BOUND('',#1116,.F.);
#1116 = EDGE_LOOP('',(#1117,#1118,#1119,#1142));
#1117 = ORIENTED_EDGE('',*,*,#1070,.F.);
#1118 = ORIENTED_EDGE('',*,*,#256,.T.);
#1119 = ORIENTED_EDGE('',*,*,#1120,.T.);
#1120 = EDGE_CURVE('',#229,#1121,#1123,.T.);
#1121 = VERTEX_POINT('',#1122);
#1122 = CARTESIAN_POINT('',(47.822246082474,-335.,-7.103183415057));
#1123 = SURFACE_CURVE('',#1124,(#1128,#1135),.PCURVE_S1.);
#1124 = LINE('',#1125,#1126);
#1125 = CARTESIAN_POINT('',(47.822246082473,-130.,-7.103183415057));
#1126 = VECTOR('',#1127,1.);
#1127 = DIRECTION('',(1.71116943245E-15,-1.,-1.224646799149E-16));
#1128 = PCURVE('',#273,#1129);
#1129 = DEFINITIONAL_REPRESENTATION('',(#1130),#1134);
#1130 = LINE('',#1131,#1132);
#1131 = CARTESIAN_POINT('',(0.422809318136,2.84217094304E-14));
#1132 = VECTOR('',#1133,1.);
#1133 = DIRECTION('',(0.,1.));
#1134 = ( GEOMETRIC_REPRESENTATION_CONTEXT(2) 
PARAMETRIC_REPRESENTATION_CONTEXT() REPRESENTATION_CONTEXT('2D SPACE',''
  ) );
#1135 = PCURVE('',#244,#1136);
#1136 = DEFINITIONAL_REPRESENTATION('',(#1137),#1141);
#1137 = LINE('',#1138,#1139);
#1138 = CARTESIAN_POINT('',(7.103183414686,8.698890833067E-16));
#1139 = VECTOR('',#1140,1.);
#1140 = DIRECTION('',(8.573931963621E-29,1.));
#1141 = ( GEOMETRIC_REPRESENTATION_CONTEXT(2) 
PARAMETRIC_REPRESENTATION_CONTEXT() REPRESENTATION_CONTEXT('2D SPACE',''
  ) );
#1142 = ORIENTED_EDGE('',*,*,#1143,.F.);
#1143 = EDGE_CURVE('',#1071,#1121,#1144,.T.);
#1144 = SURFACE_CURVE('',#1145,(#1150,#1157),.PCURVE_S1.);
#1145 = CIRCLE('',#1146,12.5);
#1146 = AXIS2_PLACEMENT_3D('',#1147,#1148,#1149);
#1147 = CARTESIAN_POINT('',(35.322246082474,-335.,-7.103183415057));
#1148 = DIRECTION('',(1.727784582073E-15,-1.,-1.224646799147E-16));
#1149 = DIRECTION('',(0.911939809814,1.625885740243E-15,-0.410323997929)
  );
#1150 = PCURVE('',#273,#1151);
#1151 = DEFINITIONAL_REPRESENTATION('',(#1152),#1156);
#1152 = LINE('',#1153,#1154);
#1153 = CARTESIAN_POINT('',(0.,205.));
#1154 = VECTOR('',#1155,1.);
#1155 = DIRECTION('',(1.,0.));
#1156 = ( GEOMETRIC_REPRESENTATION_CONTEXT(2) 
PARAMETRIC_REPRESENTATION_CONTEXT() REPRESENTATION_CONTEXT('2D SPACE',''
  ) );
#1157 = PCURVE('',#580,#1158);
#1158 = DEFINITIONAL_REPRESENTATION('',(#1159),#1163);
#1159 = CIRCLE('',#1160,12.5);
#1160 = AXIS2_PLACEMENT_2D('',#1161,#1162);
#1161 = CARTESIAN_POINT('',(35.321690067712,16.249290008903));
#1162 = DIRECTION('',(0.911939809814,-0.410323997929));
#1163 = ( GEOMETRIC_REPRESENTATION_CONTEXT(2) 
PARAMETRIC_REPRESENTATION_CONTEXT() REPRESENTATION_CONTEXT('2D SPACE',''
  ) );
#1164 = ADVANCED_FACE('',(#1165),#244,.T.);
#1165 = FACE_BOUND('',#1166,.T.);
#1166 = EDGE_LOOP('',(#1167,#1190,#1211,#1212));
#1167 = ORIENTED_EDGE('',*,*,#1168,.T.);
#1168 = EDGE_CURVE('',#1121,#1169,#1171,.T.);
#1169 = VERTEX_POINT('',#1170);
#1170 = CARTESIAN_POINT('',(47.822246082453,-335.,-3.714271268141E-10));
#1171 = SURFACE_CURVE('',#1172,(#1176,#1183),.PCURVE_S1.);
#1172 = LINE('',#1173,#1174);
#1173 = CARTESIAN_POINT('',(47.822246082502,-335.,-11.67623671206));
#1174 = VECTOR('',#1175,1.);
#1175 = DIRECTION('',(-4.199307568653E-12,-1.22464679922E-16,1.));
#1176 = PCURVE('',#244,#1177);
#1177 = DEFINITIONAL_REPRESENTATION('',(#1178),#1182);
#1178 = LINE('',#1179,#1180);
#1179 = CARTESIAN_POINT('',(11.676236711689,205.));
#1180 = VECTOR('',#1181,1.);
#1181 = DIRECTION('',(-1.,0.));
#1182 = ( GEOMETRIC_REPRESENTATION_CONTEXT(2) 
PARAMETRIC_REPRESENTATION_CONTEXT() REPRESENTATION_CONTEXT('2D SPACE',''
  ) );
#1183 = PCURVE('',#580,#1184);
#1184 = DEFINITIONAL_REPRESENTATION('',(#1185),#1189);
#1185 = LINE('',#1186,#1187);
#1186 = CARTESIAN_POINT('',(47.82169006774,11.6762367119));
#1187 = VECTOR('',#1188,1.);
#1188 = DIRECTION('',(-4.199307568653E-12,1.));
#1189 = ( GEOMETRIC_REPRESENTATION_CONTEXT(2) 
PARAMETRIC_REPRESENTATION_CONTEXT() REPRESENTATION_CONTEXT('2D SPACE',''
  ) );
#1190 = ORIENTED_EDGE('',*,*,#1191,.F.);
#1191 = EDGE_CURVE('',#201,#1169,#1192,.T.);
#1192 = SURFACE_CURVE('',#1193,(#1197,#1204),.PCURVE_S1.);
#1193 = LINE('',#1194,#1195);
#1194 = CARTESIAN_POINT('',(47.822246082453,-232.5,1.430675074271E-09));
#1195 = VECTOR('',#1196,1.);
#1196 = DIRECTION('',(1.71116943245E-15,-1.,-1.224646799149E-16));
#1197 = PCURVE('',#244,#1198);
#1198 = DEFINITIONAL_REPRESENTATION('',(#1199),#1203);
#1199 = LINE('',#1200,#1201);
#1200 = CARTESIAN_POINT('',(-1.802089425105E-09,102.5));
#1201 = VECTOR('',#1202,1.);
#1202 = DIRECTION('',(8.573931963621E-29,1.));
#1203 = ( GEOMETRIC_REPRESENTATION_CONTEXT(2) 
PARAMETRIC_REPRESENTATION_CONTEXT() REPRESENTATION_CONTEXT('2D SPACE',''
  ) );
#1204 = PCURVE('',#216,#1205);
#1205 = DEFINITIONAL_REPRESENTATION('',(#1206),#1210);
#1206 = LINE('',#1207,#1208);
#1207 = CARTESIAN_POINT('',(-47.82222446849,8.262650211709E-14));
#1208 = VECTOR('',#1209,1.);
#1209 = DIRECTION('',(1.661514962302E-17,1.));
#1210 = ( GEOMETRIC_REPRESENTATION_CONTEXT(2) 
PARAMETRIC_REPRESENTATION_CONTEXT() REPRESENTATION_CONTEXT('2D SPACE',''
  ) );
#1211 = ORIENTED_EDGE('',*,*,#228,.F.);
#1212 = ORIENTED_EDGE('',*,*,#1120,.T.);
#1213 = ADVANCED_FACE('',(#1214),#216,.T.);
#1214 = FACE_BOUND('',#1215,.T.);
#1215 = EDGE_LOOP('',(#1216,#1239,#1260,#1261));
#1216 = ORIENTED_EDGE('',*,*,#1217,.T.);
#1217 = EDGE_CURVE('',#1169,#1218,#1220,.T.);
#1218 = VERTEX_POINT('',#1219);
#1219 = CARTESIAN_POINT('',(53.118260729267,-335.,-5.702385847458E-10));
#1220 = SURFACE_CURVE('',#1221,(#1225,#1232),.PCURVE_S1.);
#1221 = LINE('',#1222,#1223);
#1222 = CARTESIAN_POINT('',(2.161396157553E-05,-335.,1.4238665748E-09));
#1223 = VECTOR('',#1224,1.);
#1224 = DIRECTION('',(1.,1.727784582073E-15,1.42108547152E-13));
#1225 = PCURVE('',#216,#1226);
#1226 = DEFINITIONAL_REPRESENTATION('',(#1227),#1231);
#1227 = LINE('',#1228,#1229);
#1228 = CARTESIAN_POINT('',(7.918064002991E-18,102.5));
#1229 = VECTOR('',#1230,1.);
#1230 = DIRECTION('',(-1.,-4.833782528663E-32));
#1231 = ( GEOMETRIC_REPRESENTATION_CONTEXT(2) 
PARAMETRIC_REPRESENTATION_CONTEXT() REPRESENTATION_CONTEXT('2D SPACE',''
  ) );
#1232 = PCURVE('',#580,#1233);
#1233 = DEFINITIONAL_REPRESENTATION('',(#1234),#1238);
#1234 = LINE('',#1235,#1236);
#1235 = CARTESIAN_POINT('',(-5.34400800659E-04,23.352473425384));
#1236 = VECTOR('',#1237,1.);
#1237 = DIRECTION('',(1.,1.42108547152E-13));
#1238 = ( GEOMETRIC_REPRESENTATION_CONTEXT(2) 
PARAMETRIC_REPRESENTATION_CONTEXT() REPRESENTATION_CONTEXT('2D SPACE',''
  ) );
#1239 = ORIENTED_EDGE('',*,*,#1240,.F.);
#1240 = EDGE_CURVE('',#172,#1218,#1241,.T.);
#1241 = SURFACE_CURVE('',#1242,(#1246,#1253),.PCURVE_S1.);
#1242 = LINE('',#1243,#1244);
#1243 = CARTESIAN_POINT('',(53.118260729253,-130.,1.43144026767E-09));
#1244 = VECTOR('',#1245,1.);
#1245 = DIRECTION('',(1.71116943245E-15,-1.,-1.224646799149E-16));
#1246 = PCURVE('',#216,#1247);
#1247 = DEFINITIONAL_REPRESENTATION('',(#1248),#1252);
#1248 = LINE('',#1249,#1250);
#1249 = CARTESIAN_POINT('',(-53.11823911529,-102.5));
#1250 = VECTOR('',#1251,1.);
#1251 = DIRECTION('',(1.661514962302E-17,1.));
#1252 = ( GEOMETRIC_REPRESENTATION_CONTEXT(2) 
PARAMETRIC_REPRESENTATION_CONTEXT() REPRESENTATION_CONTEXT('2D SPACE',''
  ) );
#1253 = PCURVE('',#188,#1254);
#1254 = DEFINITIONAL_REPRESENTATION('',(#1255),#1259);
#1255 = LINE('',#1256,#1257);
#1256 = CARTESIAN_POINT('',(0.270359526952,8.526512829094E-14));
#1257 = VECTOR('',#1258,1.);
#1258 = DIRECTION('',(0.,1.));
#1259 = ( GEOMETRIC_REPRESENTATION_CONTEXT(2) 
PARAMETRIC_REPRESENTATION_CONTEXT() REPRESENTATION_CONTEXT('2D SPACE',''
  ) );
#1260 = ORIENTED_EDGE('',*,*,#200,.F.);
#1261 = ORIENTED_EDGE('',*,*,#1191,.T.);
#1262 = ADVANCED_FACE('',(#1263),#188,.T.);
#1263 = FACE_BOUND('',#1264,.T.);
#1264 = EDGE_LOOP('',(#1265,#1293,#1314,#1315));
#1265 = ORIENTED_EDGE('',*,*,#1266,.T.);
#1266 = EDGE_CURVE('',#1218,#1267,#1269,.T.);
#1267 = VERTEX_POINT('',#1268);
#1268 = CARTESIAN_POINT('',(51.281192754218,-335.,-14.28385337881));
#1269 = SURFACE_CURVE('',#1270,(#1275,#1282),.PCURVE_S1.);
#1270 = CIRCLE('',#1271,53.430548224035);
#1271 = AXIS2_PLACEMENT_3D('',#1272,#1273,#1274);
#1272 = CARTESIAN_POINT('',(-0.310875360516,-335.,-0.388458776087));
#1273 = DIRECTION('',(-1.727784582073E-15,1.,1.224646799147E-16));
#1274 = DIRECTION('',(0.965591217564,1.700182347321E-15,-0.260064608442)
  );
#1275 = PCURVE('',#188,#1276);
#1276 = DEFINITIONAL_REPRESENTATION('',(#1277),#1281);
#1277 = LINE('',#1278,#1279);
#1278 = CARTESIAN_POINT('',(6.28318530718,205.));
#1279 = VECTOR('',#1280,1.);
#1280 = DIRECTION('',(-1.,0.));
#1281 = ( GEOMETRIC_REPRESENTATION_CONTEXT(2) 
PARAMETRIC_REPRESENTATION_CONTEXT() REPRESENTATION_CONTEXT('2D SPACE',''
  ) );
#1282 = PCURVE('',#580,#1283);
#1283 = DEFINITIONAL_REPRESENTATION('',(#1284),#1292);
#1284 = ( BOUNDED_CURVE() B_SPLINE_CURVE(2,(#1285,#1286,#1287,#1288,
#1289,#1290,#1291),.UNSPECIFIED.,.T.,.F.) B_SPLINE_CURVE_WITH_KNOTS((1,2
    ,2,2,2,1),(-2.094395102393,0.,2.094395102393,4.188790204786,
6.28318530718,8.377580409573),.UNSPECIFIED.) CURVE() 
GEOMETRIC_REPRESENTATION_ITEM() RATIONAL_B_SPLINE_CURVE((1.,0.5,1.,0.5,
1.,0.5,1.)) REPRESENTATION_ITEM('') );
#1285 = CARTESIAN_POINT('',(51.280636739459,9.068620045154));
#1286 = CARTESIAN_POINT('',(27.21310729633,-80.29146319712));
#1287 = CARTESIAN_POINT('',(-38.14123015421,-14.7683296719));
#1288 = CARTESIAN_POINT('',(-103.4955676047,50.754803853312));
#1289 = CARTESIAN_POINT('',(-14.07370071108,74.591753570372));
#1290 = CARTESIAN_POINT('',(75.348166182587,98.428703287432));
#1291 = CARTESIAN_POINT('',(51.280636739459,9.068620045154));
#1292 = ( GEOMETRIC_REPRESENTATION_CONTEXT(2) 
PARAMETRIC_REPRESENTATION_CONTEXT() REPRESENTATION_CONTEXT('2D SPACE',''
  ) );
#1293 = ORIENTED_EDGE('',*,*,#1294,.F.);
#1294 = EDGE_CURVE('',#143,#1267,#1295,.T.);
#1295 = SURFACE_CURVE('',#1296,(#1300,#1307),.PCURVE_S1.);
#1296 = LINE('',#1297,#1298);
#1297 = CARTESIAN_POINT('',(51.281192754218,-130.,-14.28385337881));
#1298 = VECTOR('',#1299,1.);
#1299 = DIRECTION('',(1.71116943245E-15,-1.,-1.224646799149E-16));
#1300 = PCURVE('',#188,#1301);
#1301 = DEFINITIONAL_REPRESENTATION('',(#1302),#1306);
#1302 = LINE('',#1303,#1304);
#1303 = CARTESIAN_POINT('',(0.,8.526512829121E-14));
#1304 = VECTOR('',#1305,1.);
#1305 = DIRECTION('',(0.,1.));
#1306 = ( GEOMETRIC_REPRESENTATION_CONTEXT(2) 
PARAMETRIC_REPRESENTATION_CONTEXT() REPRESENTATION_CONTEXT('2D SPACE',''
  ) );
#1307 = PCURVE('',#159,#1308);
#1308 = DEFINITIONAL_REPRESENTATION('',(#1309),#1313);
#1309 = LINE('',#1310,#1311);
#1310 = CARTESIAN_POINT('',(1.120167121557,8.526512829121E-14));
#1311 = VECTOR('',#1312,1.);
#1312 = DIRECTION('',(0.,1.));
#1313 = ( GEOMETRIC_REPRESENTATION_CONTEXT(2) 
PARAMETRIC_REPRESENTATION_CONTEXT() REPRESENTATION_CONTEXT('2D SPACE',''
  ) );
#1314 = ORIENTED_EDGE('',*,*,#171,.T.);
#1315 = ORIENTED_EDGE('',*,*,#1240,.T.);
#1316 = ADVANCED_FACE('',(#1317),#159,.T.);
#1317 = FACE_BOUND('',#1318,.T.);
#1318 = EDGE_LOOP('',(#1319,#1347,#1368,#1369));
#1319 = ORIENTED_EDGE('',*,*,#1320,.T.);
#1320 = EDGE_CURVE('',#1267,#1321,#1323,.T.);
#1321 = VERTEX_POINT('',#1322);
#1322 = CARTESIAN_POINT('',(2.639103107588,-335.,-46.70494684755));
#1323 = SURFACE_CURVE('',#1324,(#1329,#1336),.PCURVE_S1.);
#1324 = CIRCLE('',#1325,55.017301357235);
#1325 = AXIS2_PLACEMENT_3D('',#1326,#1327,#1328);
#1326 = CARTESIAN_POINT('',(1.108725418024,-335.,8.291065669355));
#1327 = DIRECTION('',(-1.727784582073E-15,1.,1.224646799147E-16));
#1328 = DIRECTION('',(2.781629872443E-02,1.704778645057E-16,
    -0.999613051898));
#1329 = PCURVE('',#159,#1330);
#1330 = DEFINITIONAL_REPRESENTATION('',(#1331),#1335);
#1331 = LINE('',#1332,#1333);
#1332 = CARTESIAN_POINT('',(6.28318530718,205.));
#1333 = VECTOR('',#1334,1.);
#1334 = DIRECTION('',(-1.,0.));
#1335 = ( GEOMETRIC_REPRESENTATION_CONTEXT(2) 
PARAMETRIC_REPRESENTATION_CONTEXT() REPRESENTATION_CONTEXT('2D SPACE',''
  ) );
#1336 = PCURVE('',#580,#1337);
#1337 = DEFINITIONAL_REPRESENTATION('',(#1338),#1346);
#1338 = ( BOUNDED_CURVE() B_SPLINE_CURVE(2,(#1339,#1340,#1341,#1342,
#1343,#1344,#1345),.UNSPECIFIED.,.T.,.F.) B_SPLINE_CURVE_WITH_KNOTS((1,2
    ,2,2,2,1),(-2.094395102393,0.,2.094395102393,4.188790204786,
6.28318530718,8.377580409573),.UNSPECIFIED.) CURVE() 
GEOMETRIC_REPRESENTATION_ITEM() RATIONAL_B_SPLINE_CURVE((1.,0.5,1.,0.5,
1.,0.5,1.)) REPRESENTATION_ITEM('') );
#1339 = CARTESIAN_POINT('',(2.638547092826,-23.35247342359));
#1340 = CARTESIAN_POINT('',(-92.61734080015,-26.00316533669));
#1341 = CARTESIAN_POINT('',(-47.28496338801,57.816199395222));
#1342 = CARTESIAN_POINT('',(-1.952585975867,141.63556412713));
#1343 = CARTESIAN_POINT('',(47.97092450497,60.466891308318));
#1344 = CARTESIAN_POINT('',(97.894434985808,-20.70178151049));
#1345 = CARTESIAN_POINT('',(2.638547092826,-23.35247342359));
#1346 = ( GEOMETRIC_REPRESENTATION_CONTEXT(2) 
PARAMETRIC_REPRESENTATION_CONTEXT() REPRESENTATION_CONTEXT('2D SPACE',''
  ) );
#1347 = ORIENTED_EDGE('',*,*,#1348,.F.);
#1348 = EDGE_CURVE('',#115,#1321,#1349,.T.);
#1349 = SURFACE_CURVE('',#1350,(#1354,#1361),.PCURVE_S1.);
#1350 = LINE('',#1351,#1352);
#1351 = CARTESIAN_POINT('',(2.639103107588,-130.,-46.70494684755));
#1352 = VECTOR('',#1353,1.);
#1353 = DIRECTION('',(1.71116943245E-15,-1.,-1.224646799149E-16));
#1354 = PCURVE('',#159,#1355);
#1355 = DEFINITIONAL_REPRESENTATION('',(#1356),#1360);
#1356 = LINE('',#1357,#1358);
#1357 = CARTESIAN_POINT('',(0.,0.));
#1358 = VECTOR('',#1359,1.);
#1359 = DIRECTION('',(0.,1.));
#1360 = ( GEOMETRIC_REPRESENTATION_CONTEXT(2) 
PARAMETRIC_REPRESENTATION_CONTEXT() REPRESENTATION_CONTEXT('2D SPACE',''
  ) );
#1361 = PCURVE('',#130,#1362);
#1362 = DEFINITIONAL_REPRESENTATION('',(#1363),#1367);
#1363 = LINE('',#1364,#1365);
#1364 = CARTESIAN_POINT('',(5.278162987244,9.119528631029E-15));
#1365 = VECTOR('',#1366,1.);
#1366 = DIRECTION('',(-1.661514962302E-17,1.));
#1367 = ( GEOMETRIC_REPRESENTATION_CONTEXT(2) 
PARAMETRIC_REPRESENTATION_CONTEXT() REPRESENTATION_CONTEXT('2D SPACE',''
  ) );
#1368 = ORIENTED_EDGE('',*,*,#142,.T.);
#1369 = ORIENTED_EDGE('',*,*,#1294,.T.);
#1370 = ADVANCED_FACE('',(#1371),#130,.T.);
#1371 = FACE_BOUND('',#1372,.T.);
#1372 = EDGE_LOOP('',(#1373,#1396,#1417,#1418));
#1373 = ORIENTED_EDGE('',*,*,#1374,.T.);
#1374 = EDGE_CURVE('',#1321,#1375,#1377,.T.);
#1375 = VERTEX_POINT('',#1376);
#1376 = CARTESIAN_POINT('',(-2.639059879656,-335.,-46.70494684755));
#1377 = SURFACE_CURVE('',#1378,(#1382,#1389),.PCURVE_S1.);
#1378 = LINE('',#1379,#1380);
#1379 = CARTESIAN_POINT('',(-1.319251932445,-335.,-46.70494684755));
#1380 = VECTOR('',#1381,1.);
#1381 = DIRECTION('',(-1.,-1.727784582073E-15,-1.295710997978E-13));
#1382 = PCURVE('',#130,#1383);
#1383 = DEFINITIONAL_REPRESENTATION('',(#1384),#1388);
#1384 = LINE('',#1385,#1386);
#1385 = CARTESIAN_POINT('',(1.319807947211,205.));
#1386 = VECTOR('',#1387,1.);
#1387 = DIRECTION('',(-1.,9.066515853581E-32));
#1388 = ( GEOMETRIC_REPRESENTATION_CONTEXT(2) 
PARAMETRIC_REPRESENTATION_CONTEXT() REPRESENTATION_CONTEXT('2D SPACE',''
  ) );
#1389 = PCURVE('',#580,#1390);
#1390 = DEFINITIONAL_REPRESENTATION('',(#1391),#1395);
#1391 = LINE('',#1392,#1393);
#1392 = CARTESIAN_POINT('',(-1.319807947207,-23.35247342359));
#1393 = VECTOR('',#1394,1.);
#1394 = DIRECTION('',(-1.,-1.295710997978E-13));
#1395 = ( GEOMETRIC_REPRESENTATION_CONTEXT(2) 
PARAMETRIC_REPRESENTATION_CONTEXT() REPRESENTATION_CONTEXT('2D SPACE',''
  ) );
#1396 = ORIENTED_EDGE('',*,*,#1397,.F.);
#1397 = EDGE_CURVE('',#86,#1375,#1398,.T.);
#1398 = SURFACE_CURVE('',#1399,(#1403,#1410),.PCURVE_S1.);
#1399 = LINE('',#1400,#1401);
#1400 = CARTESIAN_POINT('',(-2.639059879656,-130.,-46.70494684755));
#1401 = VECTOR('',#1402,1.);
#1402 = DIRECTION('',(1.71116943245E-15,-1.,-1.224646799149E-16));
#1403 = PCURVE('',#130,#1404);
#1404 = DEFINITIONAL_REPRESENTATION('',(#1405),#1409);
#1405 = LINE('',#1406,#1407);
#1406 = CARTESIAN_POINT('',(0.,0.));
#1407 = VECTOR('',#1408,1.);
#1408 = DIRECTION('',(-1.661514962302E-17,1.));
#1409 = ( GEOMETRIC_REPRESENTATION_CONTEXT(2) 
PARAMETRIC_REPRESENTATION_CONTEXT() REPRESENTATION_CONTEXT('2D SPACE',''
  ) );
#1410 = PCURVE('',#102,#1411);
#1411 = DEFINITIONAL_REPRESENTATION('',(#1412),#1416);
#1412 = LINE('',#1413,#1414);
#1413 = CARTESIAN_POINT('',(1.120167121557,0.));
#1414 = VECTOR('',#1415,1.);
#1415 = DIRECTION('',(0.,1.));
#1416 = ( GEOMETRIC_REPRESENTATION_CONTEXT(2) 
PARAMETRIC_REPRESENTATION_CONTEXT() REPRESENTATION_CONTEXT('2D SPACE',''
  ) );
#1417 = ORIENTED_EDGE('',*,*,#114,.F.);
#1418 = ORIENTED_EDGE('',*,*,#1348,.T.);
#1419 = ADVANCED_FACE('',(#1420),#102,.T.);
#1420 = FACE_BOUND('',#1421,.T.);
#1421 = EDGE_LOOP('',(#1422,#1450,#1471,#1472));
#1422 = ORIENTED_EDGE('',*,*,#1423,.T.);
#1423 = EDGE_CURVE('',#1375,#1424,#1426,.T.);
#1424 = VERTEX_POINT('',#1425);
#1425 = CARTESIAN_POINT('',(-51.28114952627,-335.,-14.28385337883));
#1426 = SURFACE_CURVE('',#1427,(#1432,#1439),.PCURVE_S1.);
#1427 = CIRCLE('',#1428,55.017301357235);
#1428 = AXIS2_PLACEMENT_3D('',#1429,#1430,#1431);
#1429 = CARTESIAN_POINT('',(-1.108682190093,-335.,8.291065669354));
#1430 = DIRECTION('',(-1.727784582073E-15,1.,1.224646799147E-16));
#1431 = DIRECTION('',(-0.911939809814,-1.525385346107E-15,
    -0.410323997929));
#1432 = PCURVE('',#102,#1433);
#1433 = DEFINITIONAL_REPRESENTATION('',(#1434),#1438);
#1434 = LINE('',#1435,#1436);
#1435 = CARTESIAN_POINT('',(6.28318530718,205.));
#1436 = VECTOR('',#1437,1.);
#1437 = DIRECTION('',(-1.,-5.074548053309E-14));
#1438 = ( GEOMETRIC_REPRESENTATION_CONTEXT(2) 
PARAMETRIC_REPRESENTATION_CONTEXT() REPRESENTATION_CONTEXT('2D SPACE',''
  ) );
#1439 = PCURVE('',#580,#1440);
#1440 = DEFINITIONAL_REPRESENTATION('',(#1441),#1449);
#1441 = ( BOUNDED_CURVE() B_SPLINE_CURVE(2,(#1442,#1443,#1444,#1445,
#1446,#1447,#1448),.UNSPECIFIED.,.T.,.F.) B_SPLINE_CURVE_WITH_KNOTS((1,2
    ,2,2,2,1),(-2.094395102393,0.,2.094395102393,4.188790204786,
6.28318530718,8.377580409573),.UNSPECIFIED.) CURVE() 
GEOMETRIC_REPRESENTATION_ITEM() RATIONAL_B_SPLINE_CURVE((1.,0.5,1.,0.5,
1.,0.5,1.)) REPRESENTATION_ITEM('') );
#1442 = CARTESIAN_POINT('',(-51.28170554105,9.068620045149));
#1443 = CARTESIAN_POINT('',(-90.38261230922,95.96988261253));
#1444 = CARTESIAN_POINT('',(4.426542079155,86.381629901087));
#1445 = CARTESIAN_POINT('',(99.235696467536,76.793377189644));
#1446 = CARTESIAN_POINT('',(43.527448847331,-0.519632666294));
#1447 = CARTESIAN_POINT('',(-12.18079877287,-77.83264252223));
#1448 = CARTESIAN_POINT('',(-51.28170554105,9.068620045149));
#1449 = ( GEOMETRIC_REPRESENTATION_CONTEXT(2) 
PARAMETRIC_REPRESENTATION_CONTEXT() REPRESENTATION_CONTEXT('2D SPACE',''
  ) );
#1450 = ORIENTED_EDGE('',*,*,#1451,.F.);
#1451 = EDGE_CURVE('',#57,#1424,#1452,.T.);
#1452 = SURFACE_CURVE('',#1453,(#1457,#1464),.PCURVE_S1.);
#1453 = LINE('',#1454,#1455);
#1454 = CARTESIAN_POINT('',(-51.28114952627,-130.,-14.28385337883));
#1455 = VECTOR('',#1456,1.);
#1456 = DIRECTION('',(1.71116943245E-15,-1.,-1.224646799149E-16));
#1457 = PCURVE('',#102,#1458);
#1458 = DEFINITIONAL_REPRESENTATION('',(#1459),#1463);
#1459 = LINE('',#1460,#1461);
#1460 = CARTESIAN_POINT('',(0.,-8.526512829121E-14));
#1461 = VECTOR('',#1462,1.);
#1462 = DIRECTION('',(0.,1.));
#1463 = ( GEOMETRIC_REPRESENTATION_CONTEXT(2) 
PARAMETRIC_REPRESENTATION_CONTEXT() REPRESENTATION_CONTEXT('2D SPACE',''
  ) );
#1464 = PCURVE('',#73,#1465);
#1465 = DEFINITIONAL_REPRESENTATION('',(#1466),#1470);
#1466 = LINE('',#1467,#1468);
#1467 = CARTESIAN_POINT('',(0.262889355131,-8.526512829121E-14));
#1468 = VECTOR('',#1469,1.);
#1469 = DIRECTION('',(0.,1.));
#1470 = ( GEOMETRIC_REPRESENTATION_CONTEXT(2) 
PARAMETRIC_REPRESENTATION_CONTEXT() REPRESENTATION_CONTEXT('2D SPACE',''
  ) );
#1471 = ORIENTED_EDGE('',*,*,#85,.T.);
#1472 = ORIENTED_EDGE('',*,*,#1397,.T.);
#1473 = ADVANCED_FACE('',(#1474),#73,.T.);
#1474 = FACE_BOUND('',#1475,.T.);
#1475 = EDGE_LOOP('',(#1476,#1502,#1503,#1504));
#1476 = ORIENTED_EDGE('',*,*,#1477,.T.);
#1477 = EDGE_CURVE('',#1424,#563,#1478,.T.);
#1478 = SURFACE_CURVE('',#1479,(#1484,#1491),.PCURVE_S1.);
#1479 = CIRCLE('',#1480,54.939681621467);
#1480 = AXIS2_PLACEMENT_3D('',#1481,#1482,#1483);
#1481 = CARTESIAN_POINT('',(1.821120787473,-335.,-0.194229388342));
#1482 = DIRECTION('',(-1.727784582073E-15,1.,1.224646799147E-16));
#1483 = DIRECTION('',(-0.999993750735,-1.728206736593E-15,
    3.535320591828E-03));
#1484 = PCURVE('',#73,#1485);
#1485 = DEFINITIONAL_REPRESENTATION('',(#1486),#1490);
#1486 = LINE('',#1487,#1488);
#1487 = CARTESIAN_POINT('',(6.28318530718,205.));
#1488 = VECTOR('',#1489,1.);
#1489 = DIRECTION('',(-1.,0.));
#1490 = ( GEOMETRIC_REPRESENTATION_CONTEXT(2) 
PARAMETRIC_REPRESENTATION_CONTEXT() REPRESENTATION_CONTEXT('2D SPACE',''
  ) );
#1491 = PCURVE('',#580,#1492);
#1492 = DEFINITIONAL_REPRESENTATION('',(#1493),#1501);
#1493 = ( BOUNDED_CURVE() B_SPLINE_CURVE(2,(#1494,#1495,#1496,#1497,
#1498,#1499,#1500),.UNSPECIFIED.,.T.,.F.) B_SPLINE_CURVE_WITH_KNOTS((1,2
    ,2,2,2,1),(-2.094395102393,0.,2.094395102393,4.188790204786,
6.28318530718,8.377580409573),.UNSPECIFIED.) CURVE() 
GEOMETRIC_REPRESENTATION_ITEM() RATIONAL_B_SPLINE_CURVE((1.,0.5,1.,0.5,
1.,0.5,1.)) REPRESENTATION_ITEM('') );
#1494 = CARTESIAN_POINT('',(-53.1187735161,23.352473423363));
#1495 = CARTESIAN_POINT('',(-52.7823583482,118.5101986738));
#1496 = CARTESIAN_POINT('',(29.458441501068,70.639991966968));
#1497 = CARTESIAN_POINT('',(111.69924135034,22.769785260128));
#1498 = CARTESIAN_POINT('',(29.122026333171,-24.51773328347));
#1499 = CARTESIAN_POINT('',(-53.455188684,-71.80525182708));
#1500 = CARTESIAN_POINT('',(-53.1187735161,23.352473423363));
#1501 = ( GEOMETRIC_REPRESENTATION_CONTEXT(2) 
PARAMETRIC_REPRESENTATION_CONTEXT() REPRESENTATION_CONTEXT('2D SPACE',''
  ) );
#1502 = ORIENTED_EDGE('',*,*,#614,.F.);
#1503 = ORIENTED_EDGE('',*,*,#56,.T.);
#1504 = ORIENTED_EDGE('',*,*,#1451,.T.);
#1505 = ADVANCED_FACE('',(#1506),#580,.T.);
#1506 = FACE_BOUND('',#1507,.T.);
#1507 = EDGE_LOOP('',(#1508,#1509,#1510,#1511,#1512,#1513,#1514,#1515,
    #1516,#1517,#1518,#1519,#1520,#1521,#1522,#1523,#1524,#1525,#1526));
#1508 = ORIENTED_EDGE('',*,*,#1477,.F.);
#1509 = ORIENTED_EDGE('',*,*,#1423,.F.);
#1510 = ORIENTED_EDGE('',*,*,#1374,.F.);
#1511 = ORIENTED_EDGE('',*,*,#1320,.F.);
#1512 = ORIENTED_EDGE('',*,*,#1266,.F.);
#1513 = ORIENTED_EDGE('',*,*,#1217,.F.);
#1514 = ORIENTED_EDGE('',*,*,#1168,.F.);
#1515 = ORIENTED_EDGE('',*,*,#1143,.F.);
#1516 = ORIENTED_EDGE('',*,*,#1093,.F.);
#1517 = ORIENTED_EDGE('',*,*,#1046,.F.);
#1518 = ORIENTED_EDGE('',*,*,#976,.T.);
#1519 = ORIENTED_EDGE('',*,*,#951,.F.);
#1520 = ORIENTED_EDGE('',*,*,#879,.F.);
#1521 = ORIENTED_EDGE('',*,*,#833,.T.);
#1522 = ORIENTED_EDGE('',*,*,#810,.T.);
#1523 = ORIENTED_EDGE('',*,*,#760,.F.);
#1524 = ORIENTED_EDGE('',*,*,#712,.F.);
#1525 = ORIENTED_EDGE('',*,*,#638,.F.);
#1526 = ORIENTED_EDGE('',*,*,#562,.F.);
#1527 = ( GEOMETRIC_REPRESENTATION_CONTEXT(3) 
GLOBAL_UNCERTAINTY_ASSIGNED_CONTEXT((#1531)) 
GLOBAL_UNIT_ASSIGNED_CONTEXT((#1528,#1529,#1530)) REPRESENTATION_CONTEXT
('Context #1','3D Context with UNIT and UNCERTAINTY') );
#1528 = ( LENGTH_UNIT() NAMED_UNIT(*) SI_UNIT(.MILLI.,.METRE.) );
#1529 = ( NAMED_UNIT(*) PLANE_ANGLE_UNIT() SI_UNIT($,.RADIAN.) );
#1530 = ( NAMED_UNIT(*) SI_UNIT($,.STERADIAN.) SOLID_ANGLE_UNIT() );
#1531 = UNCERTAINTY_MEASURE_WITH_UNIT(LENGTH_MEASURE(1.E-06),#1528,
  'distance_accuracy_value','confusion accuracy');
#1532 = PRODUCT_RELATED_PRODUCT_CATEGORY('part',$,(#7));
ENDSEC;
END-ISO-10303-21;
