ISO-10303-21;
HEADER;
FILE_DESCRIPTION(('Open CASCADE Model'),'2;1');
FILE_NAME('Open CASCADE Shape Model','2026-09-24T01:49:24',('Author'),(
    'Open CASCADE'),'Open CASCADE STEP processor 7.9','Open CASCADE 7.9'
  ,'Unknown');
FILE_SCHEMA(('AUTOMOTIVE_DESIGN { 1 0 10303 214 1 1 1 1 }'));
ENDSEC;
DATA;
#1 = APPLICATION_PROTOCOL_DEFINITION('international standard',
  'automotive_design',2000,#2);
#2 = APPLICATION_CONTEXT(
  'core data for automotive mechanical design processes');
#3 = SHAPE_DEFINITION_REPRESENTATION(#4,#10);
#4 = PRODUCT_DEFINITION_SHAPE('','',#5);
#5 = PRODUCT_DEFINITION('design','',#6,#9);
#6 = PRODUCT_DEFINITION_FORMATION('','',#7);
#7 = PRODUCT('Open CASCADE STEP translator 7.9 12',
  'Open CASCADE STEP translator 7.9 12','',(#8));
#8 = PRODUCT_CONTEXT('',#2,'mechanical');
#9 = PRODUCT_DEFINITION_CONTEXT('part definition',#2,'design');
#10 = ADVANCED_BREP_SHAPE_REPRESENTATION('',(#11,#15),#703);
#11 = AXIS2_PLACEMENT_3D('',#12,#13,#14);
#12 = CARTESIAN_POINT('',(0.,0.,0.));
#13 = DIRECTION('',(0.,0.,1.));
#14 = DIRECTION('',(1.,0.,-0.));
#15 = MANIFOLD_SOLID_BREP('',#16);
#16 = CLOSED_SHELL('',(#17,#590,#615,#640,#667,#696));
#17 = ADVANCED_FACE('',(#18),#35,.F.);
#18 = FACE_BOUND('',#19,.F.);
#19 = EDGE_LOOP('',(#20,#171,#221,#248,#316,#338,#383,#434,#479,#547));
#20 = ORIENTED_EDGE('',*,*,#21,.T.);
#21 = EDGE_CURVE('',#22,#24,#26,.T.);
#22 = VERTEX_POINT('',#23);
#23 = CARTESIAN_POINT('',(77.573029140565,491.10054543601,
    51.745029370418));
#24 = VERTEX_POINT('',#25);
#25 = CARTESIAN_POINT('',(261.88235717049,491.10054543577,
    180.79955893522));
#26 = SURFACE_CURVE('',#27,(#34,#156),.PCURVE_S1.);
#27 = B_SPLINE_CURVE_WITH_KNOTS('',3,(#28,#29,#30,#31,#32,#33),
  .UNSPECIFIED.,.F.,.F.,(4,2,4),(-22.50000877497,-11.25000877497,
    -8.774965670273E-06),.UNSPECIFIED.);
#28 = CARTESIAN_POINT('',(77.573029140292,491.10054543578,
    51.745029370807));
#29 = CARTESIAN_POINT('',(108.29123545627,491.10054543578,
    73.254139085739));
#30 = CARTESIAN_POINT('',(139.00945329531,491.10054543578,
    94.763232344044));
#31 = CARTESIAN_POINT('',(200.44590243668,491.10054543577,
    137.78139963303));
#32 = CARTESIAN_POINT('',(231.16413442638,491.10054543577,
    159.29047268207));
#33 = CARTESIAN_POINT('',(261.88235717099,491.10054543577,
    180.79955893451));
#34 = PCURVE('',#35,#128);
#35 = B_SPLINE_SURFACE_WITH_KNOTS('',3,3,(
    (#36,#37,#38,#39)
    ,(#40,#41,#42,#43)
    ,(#44,#45,#46,#47)
    ,(#48,#49,#50,#51)
    ,(#52,#53,#54,#55)
    ,(#56,#57,#58,#59)
    ,(#60,#61,#62,#63)
    ,(#64,#65,#66,#67)
    ,(#68,#69,#70,#71)
    ,(#72,#73,#74,#75)
    ,(#76,#77,#78,#79)
    ,(#80,#81,#82,#83)
    ,(#84,#85,#86,#87)
    ,(#88,#89,#90,#91)
    ,(#92,#93,#94,#95)
    ,(#96,#97,#98,#99)
    ,(#100,#101,#102,#103)
    ,(#104,#105,#106,#107)
    ,(#108,#109,#110,#111)
    ,(#112,#113,#114,#115)
    ,(#116,#117,#118,#119)
    ,(#120,#121,#122,#123)
    ,(#124,#125,#126,#127
    )),.UNSPECIFIED.,.F.,.F.,.F.,(4,1,1,1,2,1,2,1,1,1,2,1,2,1,1,1,4),(4,
    4),(0.,0.225099603497,0.337649405246,0.39392430612,0.450199206995,
    0.455527756001,0.471513403019,0.48575670151,0.5,0.51424329849,
    0.528486596981,0.539143694993,0.549800793005,0.662350594754,
    0.690488045191,0.774900396503,1.),(0.,1.),.UNSPECIFIED.);
#36 = CARTESIAN_POINT('',(315.12719544094,531.10054543577,
    218.08209100534));
#37 = CARTESIAN_POINT('',(221.743862392,531.10054543577,152.69437726132)
  );
#38 = CARTESIAN_POINT('',(128.36052934305,531.10054543578,
    87.306663517301));
#39 = CARTESIAN_POINT('',(34.977196294113,531.10054543578,
    21.918949773281));
#40 = CARTESIAN_POINT('',(315.12719544094,519.26721210243,
    218.08209100534));
#41 = CARTESIAN_POINT('',(221.7438604607,516.31591033694,152.69438001949
    ));
#42 = CARTESIAN_POINT('',(128.36053127434,513.36459613038,87.30666075913
    ));
#43 = CARTESIAN_POINT('',(34.977196294113,510.41329436488,21.91894977328
    ));
#44 = CARTESIAN_POINT('',(315.12728045423,501.51726749777,
    218.08196959378));
#45 = CARTESIAN_POINT('',(221.74395009589,494.13899693854,
    152.69425200718));
#46 = CARTESIAN_POINT('',(128.36041080863,486.76066955342,87.306832802)
  );
#47 = CARTESIAN_POINT('',(34.977080450295,479.38239899418,
    21.919115215394));
#48 = CARTESIAN_POINT('',(315.1272507806,480.80890659264,218.08201197211
    ));
#49 = CARTESIAN_POINT('',(221.74391545636,468.26586135151,
    152.69430147755));
#50 = CARTESIAN_POINT('',(128.36030835844,455.72274604225,
    87.306979116031));
#51 = CARTESIAN_POINT('',(34.976973034203,443.17970080112,21.91926862147
    ));
#52 = CARTESIAN_POINT('',(315.12734411207,468.97564009053,
    218.08187868096));
#53 = CARTESIAN_POINT('',(221.74401560532,453.48127428569,
    152.69415845001));
#54 = CARTESIAN_POINT('',(128.36028235178,437.98680615985,
    87.307016257386));
#55 = CARTESIAN_POINT('',(34.976953845033,422.49244035501,
    21.919296026442));
#56 = CARTESIAN_POINT('',(315.12723251001,463.05888489868,
    218.08203806521));
#57 = CARTESIAN_POINT('',(221.74388861552,446.08889932087,
    152.69433981024));
#58 = CARTESIAN_POINT('',(128.36016610532,429.1187955398,87.307182274544
    ));
#59 = CARTESIAN_POINT('',(34.976822210825,412.148809962,21.919484019572)
  );
#60 = CARTESIAN_POINT('',(315.12749903074,459.82063366634,
    218.08165743417));
#61 = CARTESIAN_POINT('',(221.74418820528,442.04288613264,
    152.69391195172));
#62 = CARTESIAN_POINT('',(128.36024803985,424.26502780813,
    87.307065259899));
#63 = CARTESIAN_POINT('',(34.976937214404,406.48728027444,21.91931977744
    ));
#64 = CARTESIAN_POINT('',(315.18085243283,458.69958650742,
    218.00546087932));
#65 = CARTESIAN_POINT('',(221.77938207309,440.64277806018,
    152.64364989956));
#66 = CARTESIAN_POINT('',(128.37803953136,422.58527905294,87.28165637677
    ));
#67 = CARTESIAN_POINT('',(34.976569171616,404.5284706057,21.919845397015
    ));
#68 = CARTESIAN_POINT('',(315.45079909539,457.64396317282,
    217.61993709126));
#69 = CARTESIAN_POINT('',(221.96022103284,439.28567955683,
    152.38538509965));
#70 = CARTESIAN_POINT('',(128.46813826495,420.92786441111,
    87.152982049983));
#71 = CARTESIAN_POINT('',(34.977560202399,402.56958079512,
    21.918430058377));
#72 = CARTESIAN_POINT('',(316.01851498762,456.40057614346,
    216.80915477138));
#73 = CARTESIAN_POINT('',(222.33704839734,437.5310358039,151.84721985016
    ));
#74 = CARTESIAN_POINT('',(128.65630572853,418.66115866672,
    86.884251061924));
#75 = CARTESIAN_POINT('',(34.974839138261,399.79161832716,
    21.922316140702));
#76 = CARTESIAN_POINT('',(316.70676993168,455.44239498379,
    215.82622484489));
#77 = CARTESIAN_POINT('',(223.00348136499,436.02219327132,
    150.89545493578));
#78 = CARTESIAN_POINT('',(129.30003159802,416.60244544288,
    85.964915244527));
#79 = CARTESIAN_POINT('',(35.59674303134,397.1822437304,21.034145335415)
  );
#80 = CARTESIAN_POINT('',(317.99502711345,454.92904627109,
    213.98640291858));
#81 = CARTESIAN_POINT('',(224.61169662479,435.13762072238,
    148.59868551808));
#82 = CARTESIAN_POINT('',(131.22842715833,415.34625519603,
    83.210880968867));
#83 = CARTESIAN_POINT('',(37.84509666968,395.55482964733,17.82316356837)
  );
#84 = CARTESIAN_POINT('',(319.28319506165,455.44242016115,212.146708431)
  );
#85 = CARTESIAN_POINT('',(226.21981089453,436.02219113741,
    146.30206032914));
#86 = CARTESIAN_POINT('',(133.15679432183,416.60247176469,80.45688724805
    ));
#87 = CARTESIAN_POINT('',(40.093410154712,397.18224274095,
    14.612239146189));
#88 = CARTESIAN_POINT('',(319.97157006834,456.40053256162,211.1636070373
    ));
#89 = CARTESIAN_POINT('',(226.88637822699,437.53105068834,
    145.35010352193));
#90 = CARTESIAN_POINT('',(133.80056051977,418.66110170818,
    79.537493835649));
#91 = CARTESIAN_POINT('',(40.715368678418,399.7916198349,13.723990320282
    ));
#92 = CARTESIAN_POINT('',(320.43897959779,457.42490801227,
    210.49607704949));
#93 = CARTESIAN_POINT('',(227.19653190184,438.97637935395,
    144.90715816941));
#94 = CARTESIAN_POINT('',(133.95546996824,420.52842489631,
    79.316260215583));
#95 = CARTESIAN_POINT('',(40.713022272294,402.07989623799,
    13.727341335511));
#96 = CARTESIAN_POINT('',(320.75374065414,458.41997739308,
    210.04655167426));
#97 = CARTESIAN_POINT('',(227.40706682419,440.29310169346,144.6064831397
    ));
#98 = CARTESIAN_POINT('',(134.06020477526,422.16563325,79.166683409702)
  );
#99 = CARTESIAN_POINT('',(40.713530945319,404.03875755039,
    13.726614875145));
#100 = CARTESIAN_POINT('',(320.86294895286,459.54030253692,
    209.89058606012));
#101 = CARTESIAN_POINT('',(227.47953673731,441.69270212218,
    144.50298537773));
#102 = CARTESIAN_POINT('',(134.09668338441,423.84517394652,
    79.114586556765));
#103 = CARTESIAN_POINT('',(40.713271168859,405.99757353177,
    13.726985874378));
#104 = CARTESIAN_POINT('',(320.86286856961,466.01716302485,
    209.8907008593));
#105 = CARTESIAN_POINT('',(227.47959600808,449.78501066933,
    144.5029007303));
#106 = CARTESIAN_POINT('',(134.09665178131,433.55277927073,
    79.114631690666));
#107 = CARTESIAN_POINT('',(40.713379219783,417.32062691521,
    13.726831561667));
#108 = CARTESIAN_POINT('',(320.86294029723,473.413034776,209.89059842164
    ));
#109 = CARTESIAN_POINT('',(227.47958634946,459.02540792894,
    144.50291452424));
#110 = CARTESIAN_POINT('',(134.09647038803,444.63780372178,
    79.114890747117));
#111 = CARTESIAN_POINT('',(40.713116440264,430.25017687472,
    13.727206849715));
#112 = CARTESIAN_POINT('',(320.86293392731,485.24636473897,
    209.89060751883));
#113 = CARTESIAN_POINT('',(227.4796094379,473.81005864083,
    144.50288155053));
#114 = CARTESIAN_POINT('',(134.09644776142,462.37373531609,
    79.114923061276));
#115 = CARTESIAN_POINT('',(40.713123272007,450.93742921795,
    13.727197092977));
#116 = CARTESIAN_POINT('',(320.86295005408,502.99637341515,
    209.89058448743));
#117 = CARTESIAN_POINT('',(227.47960529818,495.98701597331,
    144.50288746267));
#118 = CARTESIAN_POINT('',(134.096393577,488.97766999881,79.115000444641
    ));
#119 = CARTESIAN_POINT('',(40.713048821109,481.96831255698,
    13.727303419881));
#120 = CARTESIAN_POINT('',(320.86295980445,519.26721210243,
    209.89057056245));
#121 = CARTESIAN_POINT('',(227.47963548175,516.31591058765,
    144.50284435606));
#122 = CARTESIAN_POINT('',(134.09628498032,513.36459587967,
    79.115155536779));
#123 = CARTESIAN_POINT('',(40.712960657623,510.41329436488,
    13.727429330391));
#124 = CARTESIAN_POINT('',(320.86295980445,531.10054543577,
    209.89057056245));
#125 = CARTESIAN_POINT('',(227.47962675551,531.10054543577,
    144.50285681843));
#126 = CARTESIAN_POINT('',(134.09629370656,531.10054543578,
    79.115143074412));
#127 = CARTESIAN_POINT('',(40.712960657623,531.10054543578,
    13.727429330391));
#128 = DEFINITIONAL_REPRESENTATION('',(#129),#155);
#129 = B_SPLINE_CURVE_WITH_KNOTS('',3,(#130,#131,#132,#133,#134,#135,
    #136,#137,#138,#139,#140,#141,#142,#143,#144,#145,#146,#147,#148,
    #149,#150,#151,#152,#153,#154),.UNSPECIFIED.,.F.,.F.,(4,1,1,1,1,1,1,
    1,1,1,1,1,1,1,1,1,1,1,1,1,1,1,4),(-22.50000877497,-21.47728150224,
    -20.45455422951,-19.43182695679,-18.40909968406,-17.38637241133,
    -16.3636451386,-15.34091786588,-14.31819059315,-13.29546332042,
    -12.27273604769,-11.25000877497,-10.22728150224,-9.204554229515,
    -8.181826956787,-7.159099684059,-6.136372411332,-5.113645138604,
    -4.090917865876,-3.068190593149,-2.045463320421,-1.022736047693,
    -8.774965670273E-06),.UNSPECIFIED.);
#130 = CARTESIAN_POINT('',(0.155179200793,0.847953216374));
#131 = CARTESIAN_POINT('',(0.155887325081,0.837985114301));
#132 = CARTESIAN_POINT('',(0.157322916641,0.818048910154));
#133 = CARTESIAN_POINT('',(0.159536944086,0.788144603934));
#134 = CARTESIAN_POINT('',(0.16181416468,0.758240297714));
#135 = CARTESIAN_POINT('',(0.164157334856,0.728335991494));
#136 = CARTESIAN_POINT('',(0.166569358122,0.698431685274));
#137 = CARTESIAN_POINT('',(0.169053315135,0.668527379054));
#138 = CARTESIAN_POINT('',(0.171612471977,0.638623072834));
#139 = CARTESIAN_POINT('',(0.174250295775,0.608718766613));
#140 = CARTESIAN_POINT('',(0.176970470024,0.578814460393));
#141 = CARTESIAN_POINT('',(0.179776911833,0.548910154173));
#142 = CARTESIAN_POINT('',(0.182673790712,0.519005847953));
#143 = CARTESIAN_POINT('',(0.185665549245,0.489101541733));
#144 = CARTESIAN_POINT('',(0.188756925808,0.459197235513));
#145 = CARTESIAN_POINT('',(0.191952979608,0.429292929293));
#146 = CARTESIAN_POINT('',(0.195259118277,0.399388623073));
#147 = CARTESIAN_POINT('',(0.198681128503,0.369484316853));
#148 = CARTESIAN_POINT('',(0.20222520937,0.339580010633));
#149 = CARTESIAN_POINT('',(0.205898011517,0.309675704413));
#150 = CARTESIAN_POINT('',(0.209706672414,0.279771398192));
#151 = CARTESIAN_POINT('',(0.213658886383,0.249867091972));
#152 = CARTESIAN_POINT('',(0.217762867811,0.219962785752));
#153 = CARTESIAN_POINT('',(0.22060611525,0.200026581606));
#154 = CARTESIAN_POINT('',(0.22205603107,0.190058479532));
#155 = ( GEOMETRIC_REPRESENTATION_CONTEXT(2) 
PARAMETRIC_REPRESENTATION_CONTEXT() REPRESENTATION_CONTEXT('2D SPACE',''
  ) );
#156 = PCURVE('',#157,#162);
#157 = PLANE('',#158);
#158 = AXIS2_PLACEMENT_3D('',#159,#160,#161);
#159 = CARTESIAN_POINT('',(583.08511691875,491.10054543579,
    -277.9255221593));
#160 = DIRECTION('',(9.791646660151E-15,1.,5.049433093873E-14));
#161 = DIRECTION('',(-0.819152044289,3.698320577438E-14,-0.573576436351)
  );
#162 = DEFINITIONAL_REPRESENTATION('',(#163),#170);
#163 = B_SPLINE_CURVE_WITH_KNOTS('',3,(#164,#165,#166,#167,#168,#169),
  .UNSPECIFIED.,.F.,.F.,(4,2,4),(-22.50000877497,-11.25000877497,
    -8.774965670273E-06),.UNSPECIFIED.);
#164 = CARTESIAN_POINT('',(225.00000000002,560.0001280681));
#165 = CARTESIAN_POINT('',(187.50000000002,560.00011995211));
#166 = CARTESIAN_POINT('',(150.00000000001,560.00009174628));
#167 = CARTESIAN_POINT('',(75.000000000038,560.00001186205));
#168 = CARTESIAN_POINT('',(37.500000000049,559.99995898528));
#169 = CARTESIAN_POINT('',(3.512923285598E-11,559.99992222687));
#170 = ( GEOMETRIC_REPRESENTATION_CONTEXT(2) 
PARAMETRIC_REPRESENTATION_CONTEXT() REPRESENTATION_CONTEXT('2D SPACE',''
  ) );
#171 = ORIENTED_EDGE('',*,*,#172,.T.);
#172 = EDGE_CURVE('',#24,#173,#175,.T.);
#173 = VERTEX_POINT('',#174);
#174 = CARTESIAN_POINT('',(261.88231256216,531.10054543577,
    180.79962264252));
#175 = SURFACE_CURVE('',#176,(#180,#209),.PCURVE_S1.);
#176 = LINE('',#177,#178);
#177 = CARTESIAN_POINT('',(261.88233486657,511.10054543577,
    180.79959078851));
#178 = VECTOR('',#179,1.);
#179 = DIRECTION('',(-1.1152207364E-06,0.999999999998,1.592700303726E-06
    ));
#180 = PCURVE('',#35,#181);
#181 = DEFINITIONAL_REPRESENTATION('',(#182),#208);
#182 = B_SPLINE_CURVE_WITH_KNOTS('',3,(#183,#184,#185,#186,#187,#188,
    #189,#190,#191,#192,#193,#194,#195,#196,#197,#198,#199,#200,#201,
    #202,#203,#204,#205,#206,#207),.UNSPECIFIED.,.F.,.F.,(4,1,1,1,1,1,1,
    1,1,1,1,1,1,1,1,1,1,1,1,1,1,1,4),(-20.00000000003,-18.18181818185,
    -16.36363636366,-14.54545454548,-12.72727272729,-10.90909090911,
    -9.090909090926,-7.272727272741,-5.454545454556,-3.636363636371,
    -1.818181818185,-2.84217094304E-14,1.818181818185,3.63636363637,
    5.454545454556,7.272727272741,9.090909090926,10.909090909111,
    12.727272727297,14.545454545482,16.363636363667,18.181818181852,
    20.000000000038),.UNSPECIFIED.);
#183 = CARTESIAN_POINT('',(0.22205603107,0.190058479532));
#184 = CARTESIAN_POINT('',(0.218691547966,0.190058479532));
#185 = CARTESIAN_POINT('',(0.21196258113,0.190058479532));
#186 = CARTESIAN_POINT('',(0.201869129168,0.190058479532));
#187 = CARTESIAN_POINT('',(0.191775675672,0.190058479532));
#188 = CARTESIAN_POINT('',(0.181682220816,0.190058479532));
#189 = CARTESIAN_POINT('',(0.171588764774,0.190058479532));
#190 = CARTESIAN_POINT('',(0.161495307722,0.190058479532));
#191 = CARTESIAN_POINT('',(0.151401849833,0.190058479532));
#192 = CARTESIAN_POINT('',(0.141308391281,0.190058479532));
#193 = CARTESIAN_POINT('',(0.131214932241,0.190058479532));
#194 = CARTESIAN_POINT('',(0.121121472888,0.190058479532));
#195 = CARTESIAN_POINT('',(0.111028013396,0.190058479532));
#196 = CARTESIAN_POINT('',(0.100934553939,0.190058479532));
#197 = CARTESIAN_POINT('',(9.084109469201E-02,0.190058479532));
#198 = CARTESIAN_POINT('',(8.074763582875E-02,0.190058479532));
#199 = CARTESIAN_POINT('',(7.06541775239E-02,0.190058479532));
#200 = CARTESIAN_POINT('',(6.056071995186E-02,0.190058479532));
#201 = CARTESIAN_POINT('',(5.046726328701E-02,0.190058479532));
#202 = CARTESIAN_POINT('',(4.037380770375E-02,0.190058479532));
#203 = CARTESIAN_POINT('',(3.028035337646E-02,0.190058479532));
#204 = CARTESIAN_POINT('',(2.018690047955E-02,0.190058479532));
#205 = CARTESIAN_POINT('',(1.00934491874E-02,0.190058479532));
#206 = CARTESIAN_POINT('',(3.364482845406E-03,0.190058479532));
#207 = CARTESIAN_POINT('',(0.,0.190058479532));
#208 = ( GEOMETRIC_REPRESENTATION_CONTEXT(2) 
PARAMETRIC_REPRESENTATION_CONTEXT() REPRESENTATION_CONTEXT('2D SPACE',''
  ) );
#209 = PCURVE('',#210,#215);
#210 = PLANE('',#211);
#211 = AXIS2_PLACEMENT_3D('',#212,#213,#214);
#212 = CARTESIAN_POINT('',(583.08511691875,531.10054543579,
    -277.9255221593));
#213 = DIRECTION('',(-0.819152044289,3.694614059135E-14,-0.573576436351)
  );
#214 = DIRECTION('',(-9.721605951543E-15,-1.,-5.052973826253E-14));
#215 = DEFINITIONAL_REPRESENTATION('',(#216),#220);
#216 = LINE('',#217,#218);
#217 = CARTESIAN_POINT('',(20.,559.99996111342));
#218 = VECTOR('',#219,1.);
#219 = DIRECTION('',(-0.999999999998,1.944328009651E-06));
#220 = ( GEOMETRIC_REPRESENTATION_CONTEXT(2) 
PARAMETRIC_REPRESENTATION_CONTEXT() REPRESENTATION_CONTEXT('2D SPACE',''
  ) );
#221 = ORIENTED_EDGE('',*,*,#222,.F.);
#222 = EDGE_CURVE('',#223,#173,#225,.T.);
#223 = VERTEX_POINT('',#224);
#224 = CARTESIAN_POINT('',(315.12719544094,531.10054543577,
    218.08209100534));
#225 = SURFACE_CURVE('',#226,(#230,#236),.PCURVE_S1.);
#226 = LINE('',#227,#228);
#227 = CARTESIAN_POINT('',(315.12719544094,531.10054543577,
    218.08209100534));
#228 = VECTOR('',#229,1.);
#229 = DIRECTION('',(-0.819152044289,3.688369054622E-14,-0.573576436351)
  );
#230 = PCURVE('',#35,#231);
#231 = DEFINITIONAL_REPRESENTATION('',(#232),#235);
#232 = B_SPLINE_CURVE_WITH_KNOTS('',1,(#233,#234),.UNSPECIFIED.,.F.,.F.,
  (2,2),(0.,64.999999999999),.PIECEWISE_BEZIER_KNOTS.);
#233 = CARTESIAN_POINT('',(2.715322705761E-16,1.389351962677E-16));
#234 = CARTESIAN_POINT('',(2.803867063952E-15,0.190058479532));
#235 = ( GEOMETRIC_REPRESENTATION_CONTEXT(2) 
PARAMETRIC_REPRESENTATION_CONTEXT() REPRESENTATION_CONTEXT('2D SPACE',''
  ) );
#236 = PCURVE('',#237,#242);
#237 = PLANE('',#238);
#238 = AXIS2_PLACEMENT_3D('',#239,#240,#241);
#239 = CARTESIAN_POINT('',(320.86295980445,531.10054543577,
    209.89057056245));
#240 = DIRECTION('',(-9.791646660151E-15,-1.,-5.049433093873E-14));
#241 = DIRECTION('',(-0.819152044289,3.698320577438E-14,-0.573576436351)
  );
#242 = DEFINITIONAL_REPRESENTATION('',(#243),#247);
#243 = LINE('',#244,#245);
#244 = CARTESIAN_POINT('',(-1.68753899743E-14,-10.));
#245 = VECTOR('',#246,1.);
#246 = DIRECTION('',(1.,0.));
#247 = ( GEOMETRIC_REPRESENTATION_CONTEXT(2) 
PARAMETRIC_REPRESENTATION_CONTEXT() REPRESENTATION_CONTEXT('2D SPACE',''
  ) );
#248 = ORIENTED_EDGE('',*,*,#249,.T.);
#249 = EDGE_CURVE('',#223,#250,#252,.T.);
#250 = VERTEX_POINT('',#251);
#251 = CARTESIAN_POINT('',(320.86295980445,531.10054543577,
    209.89057056245));
#252 = SURFACE_CURVE('',#253,(#277,#284),.PCURVE_S1.);
#253 = B_SPLINE_CURVE_WITH_KNOTS('',3,(#254,#255,#256,#257,#258,#259,
    #260,#261,#262,#263,#264,#265,#266,#267,#268,#269,#270,#271,#272,
    #273,#274,#275,#276),.UNSPECIFIED.,.F.,.F.,(4,1,1,1,2,1,2,1,1,1,2,1,
    2,1,1,1,4),(0.,0.225099603497,0.337649405246,0.39392430612,
    0.450199206995,0.455527756001,0.471513403019,0.48575670151,0.5,
    0.51424329849,0.528486596981,0.539143694993,0.549800793005,
    0.662350594754,0.690488045191,0.774900396503,1.),.UNSPECIFIED.);
#254 = CARTESIAN_POINT('',(315.12719544094,531.10054543577,
    218.08209100534));
#255 = CARTESIAN_POINT('',(315.12719544094,519.26721210243,
    218.08209100534));
#256 = CARTESIAN_POINT('',(315.12728045423,501.51726749777,
    218.08196959378));
#257 = CARTESIAN_POINT('',(315.1272507806,480.80890659264,
    218.08201197211));
#258 = CARTESIAN_POINT('',(315.12734411207,468.97564009053,
    218.08187868096));
#259 = CARTESIAN_POINT('',(315.12723251001,463.05888489868,
    218.08203806521));
#260 = CARTESIAN_POINT('',(315.12749903074,459.82063366634,
    218.08165743417));
#261 = CARTESIAN_POINT('',(315.18085243283,458.69958650742,
    218.00546087932));
#262 = CARTESIAN_POINT('',(315.45079909539,457.64396317282,
    217.61993709126));
#263 = CARTESIAN_POINT('',(316.01851498762,456.40057614346,
    216.80915477138));
#264 = CARTESIAN_POINT('',(316.70676993168,455.44239498379,
    215.82622484489));
#265 = CARTESIAN_POINT('',(317.99502711345,454.92904627109,
    213.98640291858));
#266 = CARTESIAN_POINT('',(319.28319506165,455.44242016115,212.146708431
    ));
#267 = CARTESIAN_POINT('',(319.97157006834,456.40053256162,
    211.1636070373));
#268 = CARTESIAN_POINT('',(320.43897959779,457.42490801227,
    210.49607704949));
#269 = CARTESIAN_POINT('',(320.75374065414,458.41997739308,
    210.04655167426));
#270 = CARTESIAN_POINT('',(320.86294895286,459.54030253692,
    209.89058606012));
#271 = CARTESIAN_POINT('',(320.86286856961,466.01716302485,
    209.8907008593));
#272 = CARTESIAN_POINT('',(320.86294029723,473.413034776,209.89059842164
    ));
#273 = CARTESIAN_POINT('',(320.86293392731,485.24636473897,
    209.89060751883));
#274 = CARTESIAN_POINT('',(320.86295005408,502.99637341515,
    209.89058448743));
#275 = CARTESIAN_POINT('',(320.86295980445,519.26721210243,
    209.89057056245));
#276 = CARTESIAN_POINT('',(320.86295980445,531.10054543577,
    209.89057056245));
#277 = PCURVE('',#35,#278);
#278 = DEFINITIONAL_REPRESENTATION('',(#279),#283);
#279 = LINE('',#280,#281);
#280 = CARTESIAN_POINT('',(2.715322705761E-16,1.389351962677E-16));
#281 = VECTOR('',#282,1.);
#282 = DIRECTION('',(1.,-2.358358159645E-16));
#283 = ( GEOMETRIC_REPRESENTATION_CONTEXT(2) 
PARAMETRIC_REPRESENTATION_CONTEXT() REPRESENTATION_CONTEXT('2D SPACE',''
  ) );
#284 = PCURVE('',#285,#290);
#285 = PLANE('',#286);
#286 = AXIS2_PLACEMENT_3D('',#287,#288,#289);
#287 = CARTESIAN_POINT('',(317.9950776227,497.6390464007,213.98633078389
    ));
#288 = DIRECTION('',(-0.819152044289,3.694614059135E-14,-0.573576436351)
  );
#289 = DIRECTION('',(0.573576436351,3.576305918074E-14,-0.819152044289)
  );
#290 = DEFINITIONAL_REPRESENTATION('',(#291),#315);
#291 = B_SPLINE_CURVE_WITH_KNOTS('',3,(#292,#293,#294,#295,#296,#297,
    #298,#299,#300,#301,#302,#303,#304,#305,#306,#307,#308,#309,#310,
    #311,#312,#313,#314),.UNSPECIFIED.,.F.,.F.,(4,1,1,1,2,1,2,1,1,1,2,1,
    2,1,1,1,4),(0.,0.225099603497,0.337649405246,0.39392430612,
    0.450199206995,0.455527756001,0.471513403019,0.48575670151,0.5,
    0.51424329849,0.528486596981,0.539143694993,0.549800793005,
    0.662350594754,0.690488045191,0.774900396503,1.),.UNSPECIFIED.);
#292 = CARTESIAN_POINT('',(-5.000000000006,-33.46149903507));
#293 = CARTESIAN_POINT('',(-5.000000000006,-21.62816570173));
#294 = CARTESIAN_POINT('',(-4.999851783859,-3.87822109707));
#295 = CARTESIAN_POINT('',(-4.999903518251,16.83013980806));
#296 = CARTESIAN_POINT('',(-4.999740799801,28.66340631017));
#297 = CARTESIAN_POINT('',(-4.999935372047,34.58016150202));
#298 = CARTESIAN_POINT('',(-4.999470707342,37.81841273436));
#299 = CARTESIAN_POINT('',(-4.906451889431,38.93945989328));
#300 = CARTESIAN_POINT('',(-4.435814245604,39.99508322788));
#301 = CARTESIAN_POINT('',(-3.446031792476,41.23847025724));
#302 = CARTESIAN_POINT('',(-2.246095915684,42.19665141691));
#303 = CARTESIAN_POINT('',(-8.806019593521E-05,42.71000012961));
#304 = CARTESIAN_POINT('',(2.245764221323,42.19662623955));
#305 = CARTESIAN_POINT('',(3.445909420926,41.23851383908));
#306 = CARTESIAN_POINT('',(4.260813067283,40.21413838843));
#307 = CARTESIAN_POINT('',(4.809582222366,39.21906900762));
#308 = CARTESIAN_POINT('',(4.999981080827,38.09874386378));
#309 = CARTESIAN_POINT('',(4.999840936906,31.62188337585));
#310 = CARTESIAN_POINT('',(4.999965990198,24.2260116247));
#311 = CARTESIAN_POINT('',(4.999954884581,12.39268166173));
#312 = CARTESIAN_POINT('',(4.999983000735,-5.35732701445));
#313 = CARTESIAN_POINT('',(4.999999999994,-21.62816570173));
#314 = CARTESIAN_POINT('',(4.999999999994,-33.46149903507));
#315 = ( GEOMETRIC_REPRESENTATION_CONTEXT(2) 
PARAMETRIC_REPRESENTATION_CONTEXT() REPRESENTATION_CONTEXT('2D SPACE',''
  ) );
#316 = ORIENTED_EDGE('',*,*,#317,.T.);
#317 = EDGE_CURVE('',#250,#318,#320,.T.);
#318 = VERTEX_POINT('',#319);
#319 = CARTESIAN_POINT('',(267.61807692567,531.10054543577,
    172.60810219963));
#320 = SURFACE_CURVE('',#321,(#325,#331),.PCURVE_S1.);
#321 = LINE('',#322,#323);
#322 = CARTESIAN_POINT('',(320.86295980445,531.10054543577,
    209.89057056245));
#323 = VECTOR('',#324,1.);
#324 = DIRECTION('',(-0.819152044289,3.688369054622E-14,-0.573576436351)
  );
#325 = PCURVE('',#35,#326);
#326 = DEFINITIONAL_REPRESENTATION('',(#327),#330);
#327 = B_SPLINE_CURVE_WITH_KNOTS('',1,(#328,#329),.UNSPECIFIED.,.F.,.F.,
  (2,2),(0.,65.),.PIECEWISE_BEZIER_KNOTS.);
#328 = CARTESIAN_POINT('',(1.,1.040284696574E-18));
#329 = CARTESIAN_POINT('',(1.,0.190058479532));
#330 = ( GEOMETRIC_REPRESENTATION_CONTEXT(2) 
PARAMETRIC_REPRESENTATION_CONTEXT() REPRESENTATION_CONTEXT('2D SPACE',''
  ) );
#331 = PCURVE('',#237,#332);
#332 = DEFINITIONAL_REPRESENTATION('',(#333),#337);
#333 = LINE('',#334,#335);
#334 = CARTESIAN_POINT('',(0.,0.));
#335 = VECTOR('',#336,1.);
#336 = DIRECTION('',(1.,0.));
#337 = ( GEOMETRIC_REPRESENTATION_CONTEXT(2) 
PARAMETRIC_REPRESENTATION_CONTEXT() REPRESENTATION_CONTEXT('2D SPACE',''
  ) );
#338 = ORIENTED_EDGE('',*,*,#339,.T.);
#339 = EDGE_CURVE('',#318,#340,#342,.T.);
#340 = VERTEX_POINT('',#341);
#341 = CARTESIAN_POINT('',(267.6180727984,491.10054543577,
    172.60810809398));
#342 = SURFACE_CURVE('',#343,(#347,#376),.PCURVE_S1.);
#343 = LINE('',#344,#345);
#344 = CARTESIAN_POINT('',(267.61807486183,511.10054543577,
    172.6081051471));
#345 = VECTOR('',#346,1.);
#346 = DIRECTION('',(-1.031920456205E-07,-1.,1.473734578677E-07));
#347 = PCURVE('',#35,#348);
#348 = DEFINITIONAL_REPRESENTATION('',(#349),#375);
#349 = B_SPLINE_CURVE_WITH_KNOTS('',3,(#350,#351,#352,#353,#354,#355,
    #356,#357,#358,#359,#360,#361,#362,#363,#364,#365,#366,#367,#368,
    #369,#370,#371,#372,#373,#374),.UNSPECIFIED.,.F.,.F.,(4,1,1,1,1,1,1,
    1,1,1,1,1,1,1,1,1,1,1,1,1,1,1,4),(-20.,-18.18181818181,
    -16.36363636363,-14.54545454545,-12.72727272727,-10.90909090909,
    -9.090909090909,-7.272727272727,-5.454545454546,-3.636363636364,
    -1.818181818182,2.84217094304E-14,1.818181818182,3.636363636364,
    5.454545454546,7.272727272727,9.090909090909,10.909090909091,
    12.727272727273,14.545454545455,16.363636363637,18.181818181818,20.)
  ,.UNSPECIFIED.);
#350 = CARTESIAN_POINT('',(1.,0.190058479532));
#351 = CARTESIAN_POINT('',(0.996635517137,0.190058479532));
#352 = CARTESIAN_POINT('',(0.989906551583,0.190058479532));
#353 = CARTESIAN_POINT('',(0.97981310374,0.190058479532));
#354 = CARTESIAN_POINT('',(0.969719656356,0.190058479532));
#355 = CARTESIAN_POINT('',(0.959626209401,0.190058479532));
#356 = CARTESIAN_POINT('',(0.949532762848,0.190058479532));
#357 = CARTESIAN_POINT('',(0.939439316665,0.190058479532));
#358 = CARTESIAN_POINT('',(0.929345870825,0.190058479532));
#359 = CARTESIAN_POINT('',(0.919252425297,0.190058479532));
#360 = CARTESIAN_POINT('',(0.909158980054,0.190058479532));
#361 = CARTESIAN_POINT('',(0.899065535064,0.190058479532));
#362 = CARTESIAN_POINT('',(0.8889720903,0.190058479532));
#363 = CARTESIAN_POINT('',(0.878878645732,0.190058479532));
#364 = CARTESIAN_POINT('',(0.868785201331,0.190058479532));
#365 = CARTESIAN_POINT('',(0.858691757067,0.190058479532));
#366 = CARTESIAN_POINT('',(0.848598312912,0.190058479532));
#367 = CARTESIAN_POINT('',(0.838504868836,0.190058479532));
#368 = CARTESIAN_POINT('',(0.828411424809,0.190058479532));
#369 = CARTESIAN_POINT('',(0.818317980804,0.190058479532));
#370 = CARTESIAN_POINT('',(0.80822453679,0.190058479532));
#371 = CARTESIAN_POINT('',(0.798131092738,0.190058479532));
#372 = CARTESIAN_POINT('',(0.78803764862,0.190058479532));
#373 = CARTESIAN_POINT('',(0.78130868581,0.190058479532));
#374 = CARTESIAN_POINT('',(0.777944204384,0.190058479532));
#375 = ( GEOMETRIC_REPRESENTATION_CONTEXT(2) 
PARAMETRIC_REPRESENTATION_CONTEXT() REPRESENTATION_CONTEXT('2D SPACE',''
  ) );
#376 = PCURVE('',#210,#377);
#377 = DEFINITIONAL_REPRESENTATION('',(#378),#382);
#378 = LINE('',#379,#380);
#379 = CARTESIAN_POINT('',(20.,550.00000359818));
#380 = VECTOR('',#381,1.);
#381 = DIRECTION('',(1.,1.799098308885E-07));
#382 = ( GEOMETRIC_REPRESENTATION_CONTEXT(2) 
PARAMETRIC_REPRESENTATION_CONTEXT() REPRESENTATION_CONTEXT('2D SPACE',''
  ) );
#383 = ORIENTED_EDGE('',*,*,#384,.T.);
#384 = EDGE_CURVE('',#340,#385,#387,.T.);
#385 = VERTEX_POINT('',#386);
#386 = CARTESIAN_POINT('',(83.308929500249,491.10054543594,
    43.553314704846));
#387 = SURFACE_CURVE('',#388,(#395,#424),.PCURVE_S1.);
#388 = B_SPLINE_CURVE_WITH_KNOTS('',3,(#389,#390,#391,#392,#393,#394),
  .UNSPECIFIED.,.F.,.F.,(4,2,4),(-22.50001190021,-11.2500119002,
    -1.190020707149E-05),.UNSPECIFIED.);
#389 = CARTESIAN_POINT('',(267.61807279799,491.10054543577,
    172.60810809457));
#390 = CARTESIAN_POINT('',(236.89988494972,491.10054543577,
    151.09897200501));
#391 = CARTESIAN_POINT('',(206.18170117712,491.10054543577,
    129.58983009479));
#392 = CARTESIAN_POINT('',(144.7453235665,491.10054543578,
    86.571560649294));
#393 = CARTESIAN_POINT('',(114.02713000864,491.10054543578,
    65.062432713862));
#394 = CARTESIAN_POINT('',(83.308929500481,491.10054543578,
    43.553314704513));
#395 = PCURVE('',#35,#396);
#396 = DEFINITIONAL_REPRESENTATION('',(#397),#423);
#397 = B_SPLINE_CURVE_WITH_KNOTS('',3,(#398,#399,#400,#401,#402,#403,
    #404,#405,#406,#407,#408,#409,#410,#411,#412,#413,#414,#415,#416,
    #417,#418,#419,#420,#421,#422),.UNSPECIFIED.,.F.,.F.,(4,1,1,1,1,1,1,
    1,1,1,1,1,1,1,1,1,1,1,1,1,1,1,4),(-22.50001190021,-21.47728462748,
    -20.45455735475,-19.43183008202,-18.4091028093,-17.38637553657,
    -16.36364826384,-15.34092099111,-14.31819371839,-13.29546644566,
    -12.27273917293,-11.2500119002,-10.22728462748,-9.204557354754,
    -8.181830082026,-7.159102809299,-6.136375536572,-5.113648263844,
    -4.090920991117,-3.068193718389,-2.045466445662,-1.022739172934,
    -1.190020707149E-05),.UNSPECIFIED.);
#398 = CARTESIAN_POINT('',(0.777944204384,0.190058479532));
#399 = CARTESIAN_POINT('',(0.779394115199,0.200026581606));
#400 = CARTESIAN_POINT('',(0.782237352473,0.219962785752));
#401 = CARTESIAN_POINT('',(0.786341318376,0.249867091972));
#402 = CARTESIAN_POINT('',(0.790293516734,0.279771398192));
#403 = CARTESIAN_POINT('',(0.794102162092,0.309675704413));
#404 = CARTESIAN_POINT('',(0.797774948912,0.339580010633));
#405 = CARTESIAN_POINT('',(0.801319014782,0.369484316853));
#406 = CARTESIAN_POINT('',(0.804741010444,0.399388623073));
#407 = CARTESIAN_POINT('',(0.808047135064,0.429292929293));
#408 = CARTESIAN_POINT('',(0.811243175405,0.459197235513));
#409 = CARTESIAN_POINT('',(0.814334539152,0.489101541733));
#410 = CARTESIAN_POINT('',(0.817326285563,0.519005847953));
#411 = CARTESIAN_POINT('',(0.82022315305,0.548910154173));
#412 = CARTESIAN_POINT('',(0.823029584223,0.578814460393));
#413 = CARTESIAN_POINT('',(0.825749748614,0.608718766613));
#414 = CARTESIAN_POINT('',(0.828387563347,0.638623072834));
#415 = CARTESIAN_POINT('',(0.830946711922,0.668527379054));
#416 = CARTESIAN_POINT('',(0.833430661472,0.698431685274));
#417 = CARTESIAN_POINT('',(0.835842678077,0.728335991494));
#418 = CARTESIAN_POINT('',(0.838185842388,0.758240297714));
#419 = CARTESIAN_POINT('',(0.840463057906,0.788144603934));
#420 = CARTESIAN_POINT('',(0.842677081054,0.818048910154));
#421 = CARTESIAN_POINT('',(0.844112670258,0.837985114301));
#422 = CARTESIAN_POINT('',(0.844820793494,0.847953216374));
#423 = ( GEOMETRIC_REPRESENTATION_CONTEXT(2) 
PARAMETRIC_REPRESENTATION_CONTEXT() REPRESENTATION_CONTEXT('2D SPACE',''
  ) );
#424 = PCURVE('',#157,#425);
#425 = DEFINITIONAL_REPRESENTATION('',(#426),#433);
#426 = B_SPLINE_CURVE_WITH_KNOTS('',3,(#427,#428,#429,#430,#431,#432),
  .UNSPECIFIED.,.F.,.F.,(4,2,4),(-22.50001190021,-11.2500119002,
    -1.190020707149E-05),.UNSPECIFIED.);
#427 = CARTESIAN_POINT('',(3.49587025994E-11,550.00000719638));
#428 = CARTESIAN_POINT('',(37.500000000038,549.9999831149));
#429 = CARTESIAN_POINT('',(75.000000000041,549.9999519277));
#430 = CARTESIAN_POINT('',(150.00000000002,549.99990710186));
#431 = CARTESIAN_POINT('',(187.50000000003,549.99989297474));
#432 = CARTESIAN_POINT('',(225.00000000003,549.99989096511));
#433 = ( GEOMETRIC_REPRESENTATION_CONTEXT(2) 
PARAMETRIC_REPRESENTATION_CONTEXT() REPRESENTATION_CONTEXT('2D SPACE',''
  ) );
#434 = ORIENTED_EDGE('',*,*,#435,.T.);
#435 = EDGE_CURVE('',#385,#436,#438,.T.);
#436 = VERTEX_POINT('',#437);
#437 = CARTESIAN_POINT('',(40.71302319722,491.10054543594,
    13.727340014589));
#438 = SURFACE_CURVE('',#439,(#443,#472),.PCURVE_S1.);
#439 = LINE('',#440,#441);
#440 = CARTESIAN_POINT('',(62.010975038297,491.10054543578,
    28.640329231214));
#441 = VECTOR('',#442,1.);
#442 = DIRECTION('',(-0.819152094699,3.913189217108E-14,-0.573576364358)
  );
#443 = PCURVE('',#35,#444);
#444 = DEFINITIONAL_REPRESENTATION('',(#445),#471);
#445 = B_SPLINE_CURVE_WITH_KNOTS('',3,(#446,#447,#448,#449,#450,#451,
    #452,#453,#454,#455,#456,#457,#458,#459,#460,#461,#462,#463,#464,
    #465,#466,#467,#468,#469,#470),.UNSPECIFIED.,.F.,.F.,(4,1,1,1,1,1,1,
    1,1,1,1,1,1,1,1,1,1,1,1,1,1,1,4),(-26.,-23.63636363636,
    -21.27272727272,-18.90909090909,-16.54545454545,-14.18181818182,
    -11.81818181818,-9.454545454547,-7.09090909091,-4.727272727274,
    -2.363636363637,-8.135714324453E-13,2.363636363636,4.727272727272,
    7.090909090909,9.454545454545,11.818181818182,14.181818181818,
    16.545454545454,18.909090909091,21.272727272727,23.636363636364,26.)
  ,.UNSPECIFIED.);
#446 = CARTESIAN_POINT('',(0.844820793494,0.847953216374));
#447 = CARTESIAN_POINT('',(0.844984445872,0.85025695552));
#448 = CARTESIAN_POINT('',(0.845310715216,0.854864433812));
#449 = CARTESIAN_POINT('',(0.845797041887,0.861775651249));
#450 = CARTESIAN_POINT('',(0.846280320253,0.868686868687));
#451 = CARTESIAN_POINT('',(0.846760578857,0.875598086124));
#452 = CARTESIAN_POINT('',(0.847237845922,0.882509303562));
#453 = CARTESIAN_POINT('',(0.847712149309,0.889420520999));
#454 = CARTESIAN_POINT('',(0.84818351654,0.896331738437));
#455 = CARTESIAN_POINT('',(0.848651974793,0.903242955875));
#456 = CARTESIAN_POINT('',(0.849117550915,0.910154173312));
#457 = CARTESIAN_POINT('',(0.849580271422,0.91706539075));
#458 = CARTESIAN_POINT('',(0.850040162505,0.923976608187));
#459 = CARTESIAN_POINT('',(0.850497250037,0.930887825625));
#460 = CARTESIAN_POINT('',(0.850951559576,0.937799043062));
#461 = CARTESIAN_POINT('',(0.851403116371,0.9447102605));
#462 = CARTESIAN_POINT('',(0.851851945365,0.951621477937));
#463 = CARTESIAN_POINT('',(0.852298071201,0.958532695375));
#464 = CARTESIAN_POINT('',(0.852741518225,0.965443912812));
#465 = CARTESIAN_POINT('',(0.853182310494,0.97235513025));
#466 = CARTESIAN_POINT('',(0.853620471776,0.979266347687));
#467 = CARTESIAN_POINT('',(0.854056025551,0.986177565125));
#468 = CARTESIAN_POINT('',(0.854488995047,0.993088782562));
#469 = CARTESIAN_POINT('',(0.85477593376,0.997696260854));
#470 = CARTESIAN_POINT('',(0.854918980039,1.));
#471 = ( GEOMETRIC_REPRESENTATION_CONTEXT(2) 
PARAMETRIC_REPRESENTATION_CONTEXT() REPRESENTATION_CONTEXT('2D SPACE',''
  ) );
#472 = PCURVE('',#157,#473);
#473 = DEFINITIONAL_REPRESENTATION('',(#474),#478);
#474 = LINE('',#475,#476);
#475 = CARTESIAN_POINT('',(251.00000000003,549.99989325019));
#476 = VECTOR('',#477,1.);
#477 = DIRECTION('',(1.,8.788720123887E-08));
#478 = ( GEOMETRIC_REPRESENTATION_CONTEXT(2) 
PARAMETRIC_REPRESENTATION_CONTEXT() REPRESENTATION_CONTEXT('2D SPACE',''
  ) );
#479 = ORIENTED_EDGE('',*,*,#480,.F.);
#480 = EDGE_CURVE('',#481,#436,#483,.T.);
#481 = VERTEX_POINT('',#482);
#482 = CARTESIAN_POINT('',(34.977122837527,491.10054543601,
    21.919054680156));
#483 = SURFACE_CURVE('',#484,(#508,#515),.PCURVE_S1.);
#484 = B_SPLINE_CURVE_WITH_KNOTS('',3,(#485,#486,#487,#488,#489,#490,
    #491,#492,#493,#494,#495,#496,#497,#498,#499,#500,#501,#502,#503,
    #504,#505,#506,#507),.UNSPECIFIED.,.F.,.F.,(4,1,1,1,2,1,2,1,1,1,2,1,
    2,1,1,1,4),(0.145081007523,0.225099603497,0.337649405246,
    0.39392430612,0.450199206995,0.455527756001,0.471513403019,
    0.48575670151,0.5,0.51424329849,0.528486596981,0.539143694993,
    0.549800793005,0.662350594754,0.690488045191,0.774900396503,
    0.854918980039),.UNSPECIFIED.);
#485 = CARTESIAN_POINT('',(34.977123555827,491.10054543578,
    21.919053654316));
#486 = CARTESIAN_POINT('',(34.977101131754,483.74662091299,
    21.919085679211));
#487 = CARTESIAN_POINT('',(34.977040889307,466.04906604851,
    21.919171714339));
#488 = CARTESIAN_POINT('',(34.976973034203,443.17970080112,
    21.91926862147));
#489 = CARTESIAN_POINT('',(34.976953845033,422.49244035501,
    21.919296026442));
#490 = CARTESIAN_POINT('',(34.976822210825,412.148809962,21.919484019572
    ));
#491 = CARTESIAN_POINT('',(34.976937214404,406.48728027444,
    21.91931977744));
#492 = CARTESIAN_POINT('',(34.976569171616,404.5284706057,
    21.919845397015));
#493 = CARTESIAN_POINT('',(34.977560202399,402.56958079512,
    21.918430058377));
#494 = CARTESIAN_POINT('',(34.974839138261,399.79161832716,
    21.922316140702));
#495 = CARTESIAN_POINT('',(35.59674303134,397.1822437304,21.034145335415
    ));
#496 = CARTESIAN_POINT('',(37.84509666968,395.55482964733,17.82316356837
    ));
#497 = CARTESIAN_POINT('',(40.093410154712,397.18224274095,
    14.612239146189));
#498 = CARTESIAN_POINT('',(40.715368678418,399.7916198349,
    13.723990320282));
#499 = CARTESIAN_POINT('',(40.713022272294,402.07989623799,
    13.727341335511));
#500 = CARTESIAN_POINT('',(40.713530945319,404.03875755039,
    13.726614875145));
#501 = CARTESIAN_POINT('',(40.713271168859,405.99757353177,
    13.726985874378));
#502 = CARTESIAN_POINT('',(40.713379219783,417.32062691521,
    13.726831561667));
#503 = CARTESIAN_POINT('',(40.713116440264,430.25017687472,
    13.727206849715));
#504 = CARTESIAN_POINT('',(40.713123272007,450.93742921795,
    13.727197092977));
#505 = CARTESIAN_POINT('',(40.713080811132,468.63497882334,
    13.727257733392));
#506 = CARTESIAN_POINT('',(40.713038933255,483.74662301177,
    13.727317541201));
#507 = CARTESIAN_POINT('',(40.713020576114,491.10054543578,
    13.727343757916));
#508 = PCURVE('',#35,#509);
#509 = DEFINITIONAL_REPRESENTATION('',(#510),#514);
#510 = LINE('',#511,#512);
#511 = CARTESIAN_POINT('',(-4.440892098501E-16,1.));
#512 = VECTOR('',#513,1.);
#513 = DIRECTION('',(1.,9.384307976844E-16));
#514 = ( GEOMETRIC_REPRESENTATION_CONTEXT(2) 
PARAMETRIC_REPRESENTATION_CONTEXT() REPRESENTATION_CONTEXT('2D SPACE',''
  ) );
#515 = PCURVE('',#516,#521);
#516 = PLANE('',#517);
#517 = AXIS2_PLACEMENT_3D('',#518,#519,#520);
#518 = CARTESIAN_POINT('',(37.845078475867,470.88323078488,
    17.823189551834));
#519 = DIRECTION('',(-0.819152044289,3.694614059135E-14,-0.573576436351)
  );
#520 = DIRECTION('',(0.573576436351,3.576305918074E-14,-0.819152044289)
  );
#521 = DEFINITIONAL_REPRESENTATION('',(#522),#546);
#522 = B_SPLINE_CURVE_WITH_KNOTS('',3,(#523,#524,#525,#526,#527,#528,
    #529,#530,#531,#532,#533,#534,#535,#536,#537,#538,#539,#540,#541,
    #542,#543,#544,#545),.UNSPECIFIED.,.F.,.F.,(4,1,1,1,2,1,2,1,1,1,2,1,
    2,1,1,1,4),(0.145081007523,0.225099603497,0.337649405246,
    0.39392430612,0.450199206995,0.455527756001,0.471513403019,
    0.48575670151,0.5,0.51424329849,0.528486596981,0.539143694993,
    0.549800793005,0.662350594754,0.690488045191,0.774900396503,
    0.854918980039),.UNSPECIFIED.);
#523 = CARTESIAN_POINT('',(-5.000126815329,-20.2173146509));
#524 = CARTESIAN_POINT('',(-5.000165910508,-12.86339012811));
#525 = CARTESIAN_POINT('',(-5.000270940007,4.83416473637));
#526 = CARTESIAN_POINT('',(-5.000389241771,27.70352998376));
#527 = CARTESIAN_POINT('',(-5.000422697067,48.39079042987));
#528 = CARTESIAN_POINT('',(-5.000652194304,58.73442082288));
#529 = CARTESIAN_POINT('',(-5.000451691683,64.39595051044));
#530 = CARTESIAN_POINT('',(-5.001093354703,66.35476017918));
#531 = CARTESIAN_POINT('',(-4.99936554526,68.31364998976));
#532 = CARTESIAN_POINT('',(-5.004109575812,71.09161245772));
#533 = CARTESIAN_POINT('',(-3.919853226238,73.70098705448));
#534 = CARTESIAN_POINT('',(3.171994738338E-05,75.32840113755));
#535 = CARTESIAN_POINT('',(3.919846660979,73.70098804393));
#536 = CARTESIAN_POINT('',(5.004198256144,71.09161094998));
#537 = CARTESIAN_POINT('',(5.000107421906,68.80333454689));
#538 = CARTESIAN_POINT('',(5.000994266261,66.84447323449));
#539 = CARTESIAN_POINT('',(5.000541359824,64.88565725311));
#540 = CARTESIAN_POINT('',(5.000729740861,53.56260386967));
#541 = CARTESIAN_POINT('',(5.00027159875,40.63305391016));
#542 = CARTESIAN_POINT('',(5.000283509529,19.94580156693));
#543 = CARTESIAN_POINT('',(5.000209481253,2.24825196154));
#544 = CARTESIAN_POINT('',(5.000136469401,-12.86339222689));
#545 = CARTESIAN_POINT('',(5.000104464702,-20.2173146509));
#546 = ( GEOMETRIC_REPRESENTATION_CONTEXT(2) 
PARAMETRIC_REPRESENTATION_CONTEXT() REPRESENTATION_CONTEXT('2D SPACE',''
  ) );
#547 = ORIENTED_EDGE('',*,*,#548,.T.);
#548 = EDGE_CURVE('',#481,#22,#549,.T.);
#549 = SURFACE_CURVE('',#550,(#554,#583),.PCURVE_S1.);
#550 = LINE('',#551,#552);
#551 = CARTESIAN_POINT('',(56.27507634806,491.10054543578,
    36.832041512562));
#552 = VECTOR('',#553,1.);
#553 = DIRECTION('',(0.81915203047,-3.772676615556E-14,0.573576456086));
#554 = PCURVE('',#35,#555);
#555 = DEFINITIONAL_REPRESENTATION('',(#556),#582);
#556 = B_SPLINE_CURVE_WITH_KNOTS('',3,(#557,#558,#559,#560,#561,#562,
    #563,#564,#565,#566,#567,#568,#569,#570,#571,#572,#573,#574,#575,
    #576,#577,#578,#579,#580,#581),.UNSPECIFIED.,.F.,.F.,(4,1,1,1,1,1,1,
    1,1,1,1,1,1,1,1,1,1,1,1,1,1,1,4),(-26.,-23.63636363636,
    -21.27272727273,-18.90909090909,-16.54545454545,-14.18181818182,
    -11.81818181818,-9.454545454547,-7.09090909091,-4.727272727274,
    -2.363636363637,3.801403636317E-13,2.363636363637,4.727272727274,
    7.090909090911,9.454545454548,11.818181818185,14.181818181822,
    16.545454545459,18.909090909096,21.272727272733,23.63636363637,
    26.000000000007),.UNSPECIFIED.);
#557 = CARTESIAN_POINT('',(0.145081007523,1.));
#558 = CARTESIAN_POINT('',(0.145224053768,0.997696260854));
#559 = CARTESIAN_POINT('',(0.145510992427,0.993088782562));
#560 = CARTESIAN_POINT('',(0.145943961876,0.986177565125));
#561 = CARTESIAN_POINT('',(0.14637951564,0.979266347687));
#562 = CARTESIAN_POINT('',(0.146817676946,0.97235513025));
#563 = CARTESIAN_POINT('',(0.147258469275,0.965443912812));
#564 = CARTESIAN_POINT('',(0.147701916396,0.958532695375));
#565 = CARTESIAN_POINT('',(0.148148042365,0.951621477937));
#566 = CARTESIAN_POINT('',(0.14859687153,0.9447102605));
#567 = CARTESIAN_POINT('',(0.149048428532,0.937799043062));
#568 = CARTESIAN_POINT('',(0.149502738316,0.930887825625));
#569 = CARTESIAN_POINT('',(0.149959826131,0.923976608187));
#570 = CARTESIAN_POINT('',(0.150419717534,0.91706539075));
#571 = CARTESIAN_POINT('',(0.150882438398,0.910154173312));
#572 = CARTESIAN_POINT('',(0.151348014916,0.903242955875));
#573 = CARTESIAN_POINT('',(0.151816473604,0.896331738437));
#574 = CARTESIAN_POINT('',(0.152287841308,0.889420520999));
#575 = CARTESIAN_POINT('',(0.152762145208,0.882509303562));
#576 = CARTESIAN_POINT('',(0.153239412824,0.875598086124));
#577 = CARTESIAN_POINT('',(0.153719672018,0.868686868687));
#578 = CARTESIAN_POINT('',(0.154202951014,0.861775651249));
#579 = CARTESIAN_POINT('',(0.154689278355,0.854864433812));
#580 = CARTESIAN_POINT('',(0.155015548171,0.85025695552));
#581 = CARTESIAN_POINT('',(0.155179200793,0.847953216374));
#582 = ( GEOMETRIC_REPRESENTATION_CONTEXT(2) 
PARAMETRIC_REPRESENTATION_CONTEXT() REPRESENTATION_CONTEXT('2D SPACE',''
  ) );
#583 = PCURVE('',#157,#584);
#584 = DEFINITIONAL_REPRESENTATION('',(#585),#589);
#585 = LINE('',#586,#587);
#586 = CARTESIAN_POINT('',(251.00000000002,560.0001274417));
#587 = VECTOR('',#588,1.);
#588 = DIRECTION('',(-1.,2.409221855348E-08));
#589 = ( GEOMETRIC_REPRESENTATION_CONTEXT(2) 
PARAMETRIC_REPRESENTATION_CONTEXT() REPRESENTATION_CONTEXT('2D SPACE',''
  ) );
#590 = ADVANCED_FACE('',(#591),#285,.F.);
#591 = FACE_BOUND('',#592,.T.);
#592 = EDGE_LOOP('',(#593,#594));
#593 = ORIENTED_EDGE('',*,*,#249,.T.);
#594 = ORIENTED_EDGE('',*,*,#595,.T.);
#595 = EDGE_CURVE('',#250,#223,#596,.T.);
#596 = SURFACE_CURVE('',#597,(#601,#608),.PCURVE_S1.);
#597 = LINE('',#598,#599);
#598 = CARTESIAN_POINT('',(320.86295980445,531.10054543577,
    209.89057056245));
#599 = VECTOR('',#600,1.);
#600 = DIRECTION('',(-0.573576436351,-3.584632590758E-14,0.819152044289)
  );
#601 = PCURVE('',#285,#602);
#602 = DEFINITIONAL_REPRESENTATION('',(#603),#607);
#603 = LINE('',#604,#605);
#604 = CARTESIAN_POINT('',(4.999999999994,-33.46149903507));
#605 = VECTOR('',#606,1.);
#606 = DIRECTION('',(-1.,8.326672684E-17));
#607 = ( GEOMETRIC_REPRESENTATION_CONTEXT(2) 
PARAMETRIC_REPRESENTATION_CONTEXT() REPRESENTATION_CONTEXT('2D SPACE',''
  ) );
#608 = PCURVE('',#237,#609);
#609 = DEFINITIONAL_REPRESENTATION('',(#610),#614);
#610 = LINE('',#611,#612);
#611 = CARTESIAN_POINT('',(0.,0.));
#612 = VECTOR('',#613,1.);
#613 = DIRECTION('',(0.,-1.));
#614 = ( GEOMETRIC_REPRESENTATION_CONTEXT(2) 
PARAMETRIC_REPRESENTATION_CONTEXT() REPRESENTATION_CONTEXT('2D SPACE',''
  ) );
#615 = ADVANCED_FACE('',(#616),#516,.T.);
#616 = FACE_BOUND('',#617,.T.);
#617 = EDGE_LOOP('',(#618,#639));
#618 = ORIENTED_EDGE('',*,*,#619,.F.);
#619 = EDGE_CURVE('',#436,#481,#620,.T.);
#620 = SURFACE_CURVE('',#621,(#625,#632),.PCURVE_S1.);
#621 = LINE('',#622,#623);
#622 = CARTESIAN_POINT('',(36.411100656697,491.10054543578,
    19.871122115995));
#623 = VECTOR('',#624,1.);
#624 = DIRECTION('',(-0.573576436351,-3.584632590758E-14,0.819152044289)
  );
#625 = PCURVE('',#516,#626);
#626 = DEFINITIONAL_REPRESENTATION('',(#627),#631);
#627 = LINE('',#628,#629);
#628 = CARTESIAN_POINT('',(-2.500064033824,-20.2173146509));
#629 = VECTOR('',#630,1.);
#630 = DIRECTION('',(-1.,8.326672684E-17));
#631 = ( GEOMETRIC_REPRESENTATION_CONTEXT(2) 
PARAMETRIC_REPRESENTATION_CONTEXT() REPRESENTATION_CONTEXT('2D SPACE',''
  ) );
#632 = PCURVE('',#157,#633);
#633 = DEFINITIONAL_REPRESENTATION('',(#634),#638);
#634 = LINE('',#635,#636);
#635 = CARTESIAN_POINT('',(277.00000000003,557.5000640338));
#636 = VECTOR('',#637,1.);
#637 = DIRECTION('',(0.,1.));
#638 = ( GEOMETRIC_REPRESENTATION_CONTEXT(2) 
PARAMETRIC_REPRESENTATION_CONTEXT() REPRESENTATION_CONTEXT('2D SPACE',''
  ) );
#639 = ORIENTED_EDGE('',*,*,#480,.F.);
#640 = ADVANCED_FACE('',(#641),#237,.F.);
#641 = FACE_BOUND('',#642,.T.);
#642 = EDGE_LOOP('',(#643,#664,#665,#666));
#643 = ORIENTED_EDGE('',*,*,#644,.F.);
#644 = EDGE_CURVE('',#173,#318,#645,.T.);
#645 = SURFACE_CURVE('',#646,(#650,#657),.PCURVE_S1.);
#646 = LINE('',#647,#648);
#647 = CARTESIAN_POINT('',(425.35159692221,531.10054543578,
    -52.65870997983));
#648 = VECTOR('',#649,1.);
#649 = DIRECTION('',(0.573576436351,3.584632590758E-14,-0.819152044289)
  );
#650 = PCURVE('',#237,#651);
#651 = DEFINITIONAL_REPRESENTATION('',(#652),#656);
#652 = LINE('',#653,#654);
#653 = CARTESIAN_POINT('',(64.999999999977,274.99999999999));
#654 = VECTOR('',#655,1.);
#655 = DIRECTION('',(0.,1.));
#656 = ( GEOMETRIC_REPRESENTATION_CONTEXT(2) 
PARAMETRIC_REPRESENTATION_CONTEXT() REPRESENTATION_CONTEXT('2D SPACE',''
  ) );
#657 = PCURVE('',#210,#658);
#658 = DEFINITIONAL_REPRESENTATION('',(#659),#663);
#659 = LINE('',#660,#661);
#660 = CARTESIAN_POINT('',(1.551917875944E-13,274.99999999999));
#661 = VECTOR('',#662,1.);
#662 = DIRECTION('',(-3.0871609734E-17,-1.));
#663 = ( GEOMETRIC_REPRESENTATION_CONTEXT(2) 
PARAMETRIC_REPRESENTATION_CONTEXT() REPRESENTATION_CONTEXT('2D SPACE',''
  ) );
#664 = ORIENTED_EDGE('',*,*,#222,.F.);
#665 = ORIENTED_EDGE('',*,*,#595,.F.);
#666 = ORIENTED_EDGE('',*,*,#317,.T.);
#667 = ADVANCED_FACE('',(#668),#157,.T.);
#668 = FACE_BOUND('',#669,.T.);
#669 = EDGE_LOOP('',(#670,#671,#672,#673,#674,#675));
#670 = ORIENTED_EDGE('',*,*,#384,.T.);
#671 = ORIENTED_EDGE('',*,*,#435,.T.);
#672 = ORIENTED_EDGE('',*,*,#619,.T.);
#673 = ORIENTED_EDGE('',*,*,#548,.T.);
#674 = ORIENTED_EDGE('',*,*,#21,.T.);
#675 = ORIENTED_EDGE('',*,*,#676,.F.);
#676 = EDGE_CURVE('',#340,#24,#677,.T.);
#677 = SURFACE_CURVE('',#678,(#682,#689),.PCURVE_S1.);
#678 = LINE('',#679,#680);
#679 = CARTESIAN_POINT('',(583.08511691875,491.10054543579,
    -277.9255221593));
#680 = VECTOR('',#681,1.);
#681 = DIRECTION('',(-0.573576436351,-3.584632590758E-14,0.819152044289)
  );
#682 = PCURVE('',#157,#683);
#683 = DEFINITIONAL_REPRESENTATION('',(#684),#688);
#684 = LINE('',#685,#686);
#685 = CARTESIAN_POINT('',(0.,0.));
#686 = VECTOR('',#687,1.);
#687 = DIRECTION('',(0.,1.));
#688 = ( GEOMETRIC_REPRESENTATION_CONTEXT(2) 
PARAMETRIC_REPRESENTATION_CONTEXT() REPRESENTATION_CONTEXT('2D SPACE',''
  ) );
#689 = PCURVE('',#210,#690);
#690 = DEFINITIONAL_REPRESENTATION('',(#691),#695);
#691 = LINE('',#692,#693);
#692 = CARTESIAN_POINT('',(40.,1.451456134095E-12));
#693 = VECTOR('',#694,1.);
#694 = DIRECTION('',(3.0871609734E-17,1.));
#695 = ( GEOMETRIC_REPRESENTATION_CONTEXT(2) 
PARAMETRIC_REPRESENTATION_CONTEXT() REPRESENTATION_CONTEXT('2D SPACE',''
  ) );
#696 = ADVANCED_FACE('',(#697),#210,.T.);
#697 = FACE_BOUND('',#698,.T.);
#698 = EDGE_LOOP('',(#699,#700,#701,#702));
#699 = ORIENTED_EDGE('',*,*,#339,.T.);
#700 = ORIENTED_EDGE('',*,*,#676,.T.);
#701 = ORIENTED_EDGE('',*,*,#172,.T.);
#702 = ORIENTED_EDGE('',*,*,#644,.T.);
#703 = ( GEOMETRIC_REPRESENTATION_CONTEXT(3) 
GLOBAL_UNCERTAINTY_ASSIGNED_CONTEXT((#707)) GLOBAL_UNIT_ASSIGNED_CONTEXT
((#704,#705,#706)) REPRESENTATION_CONTEXT('Context #1',
  '3D Context with UNIT and UNCERTAINTY') );
#704 = ( LENGTH_UNIT() NAMED_UNIT(*) SI_UNIT(.MILLI.,.METRE.) );
#705 = ( NAMED_UNIT(*) PLANE_ANGLE_UNIT() SI_UNIT($,.RADIAN.) );
#706 = ( NAMED_UNIT(*) SI_UNIT($,.STERADIAN.) SOLID_ANGLE_UNIT() );
#707 = UNCERTAINTY_MEASURE_WITH_UNIT(LENGTH_MEASURE(2.E-06),#704,
  'distance_accuracy_value','confusion accuracy');
#708 = PRODUCT_RELATED_PRODUCT_CATEGORY('part',$,(#7));
ENDSEC;
END-ISO-10303-21;
