ISO-10303-21;
HEADER;
FILE_DESCRIPTION(('Open CASCADE Model'),'2;1');
FILE_NAME('Open CASCADE Shape Model','2026-09-23T08:26:31',('Author'),(
    'Open CASCADE'),'Open CASCADE STEP processor 7.9','Open CASCADE 7.9'
  ,'Unknown');
FILE_SCHEMA(('AUTOMOTIVE_DESIGN { 1 0 10303 214 1 1 1 1 }'));
ENDSEC;
DATA;
#1 = APPLICATION_PROTOCOL_DEFINITION('international standard',
  'automotive_design',2000,#2);
#2 = APPLICATION_CONTEXT(
  'core data for automotive mechanical design processes');
#3 = SHAPE_DEFINITION_REPRESENTATION(#4,#10);
#4 = PRODUCT_DEFINITION_SHAPE('','',#5);
#5 = PRODUCT_DEFINITION('design','',#6,#9);
#6 = PRODUCT_DEFINITION_FORMATION('','',#7);
#7 = PRODUCT('Open CASCADE STEP translator 7.9 278',
  'Open CASCADE STEP translator 7.9 278','',(#8));
#8 = PRODUCT_CONTEXT('',#2,'mechanical');
#9 = PRODUCT_DEFINITION_CONTEXT('part definition',#2,'design');
#10 = ADVANCED_BREP_SHAPE_REPRESENTATION('',(#11,#15),#1289);
#11 = AXIS2_PLACEMENT_3D('',#12,#13,#14);
#12 = CARTESIAN_POINT('',(0.,0.,0.));
#13 = DIRECTION('',(0.,0.,1.));
#14 = DIRECTION('',(1.,0.,-0.));
#15 = MANIFOLD_SOLID_BREP('',#16);
#16 = CLOSED_SHELL('',(#17,#139,#233,#341,#387,#829,#872,#879,#1110,
    #1180,#1206,#1257,#1282));
#17 = ADVANCED_FACE('',(#18),#32,.T.);
#18 = FACE_BOUND('',#19,.T.);
#19 = EDGE_LOOP('',(#20,#55,#82,#113));
#20 = ORIENTED_EDGE('',*,*,#21,.F.);
#21 = EDGE_CURVE('',#22,#24,#26,.T.);
#22 = VERTEX_POINT('',#23);
#23 = CARTESIAN_POINT('',(496.8418438757,208.50619178433,6.269641948218)
  );
#24 = VERTEX_POINT('',#25);
#25 = CARTESIAN_POINT('',(495.87252786938,208.55943643967,6.262412641979
    ));
#26 = SURFACE_CURVE('',#27,(#31,#43),.PCURVE_S1.);
#27 = LINE('',#28,#29);
#28 = CARTESIAN_POINT('',(769.96341156328,193.5035882578,8.306624150105)
  );
#29 = VECTOR('',#30,1.);
#30 = DIRECTION('',(-0.998467060405,5.484592655346E-02,
    -7.446719233621E-03));
#31 = PCURVE('',#32,#37);
#32 = PLANE('',#33);
#33 = AXIS2_PLACEMENT_3D('',#34,#35,#36);
#34 = CARTESIAN_POINT('',(632.98628406746,188.25906886728,7.262057240315
    ));
#35 = DIRECTION('',(7.556742488537E-03,1.798928454996E-03,
    -0.999969829295));
#36 = DIRECTION('',(-0.999121114921,-4.121729071695E-02,
    -7.624477973308E-03));
#37 = DEFINITIONAL_REPRESENTATION('',(#38),#42);
#38 = LINE('',#39,#40);
#39 = CARTESIAN_POINT('',(-137.0808695001,-0.405928272028));
#40 = VECTOR('',#41,1.);
#41 = DIRECTION('',(0.995385699451,9.595472540874E-02));
#42 = ( GEOMETRIC_REPRESENTATION_CONTEXT(2) 
PARAMETRIC_REPRESENTATION_CONTEXT() REPRESENTATION_CONTEXT('2D SPACE',''
  ) );
#43 = PCURVE('',#44,#49);
#44 = PLANE('',#45);
#45 = AXIS2_PLACEMENT_3D('',#46,#47,#48);
#46 = CARTESIAN_POINT('',(769.9625539397,193.50905339039,8.461866897529)
  );
#47 = DIRECTION('',(5.50731237311E-02,0.99787483656,-3.482472689756E-02)
  );
#48 = DIRECTION('',(-2.447440664269E-02,3.62162902081E-02,0.999044235128
    ));
#49 = DEFINITIONAL_REPRESENTATION('',(#50),#54);
#50 = LINE('',#51,#52);
#51 = CARTESIAN_POINT('',(-0.155313288516,-2.948937208898E-03));
#52 = VECTOR('',#53,1.);
#53 = DIRECTION('',(1.89836029275E-02,-0.999819795173));
#54 = ( GEOMETRIC_REPRESENTATION_CONTEXT(2) 
PARAMETRIC_REPRESENTATION_CONTEXT() REPRESENTATION_CONTEXT('2D SPACE',''
  ) );
#55 = ORIENTED_EDGE('',*,*,#56,.T.);
#56 = EDGE_CURVE('',#22,#57,#59,.T.);
#57 = VERTEX_POINT('',#58);
#58 = CARTESIAN_POINT('',(496.8418438757,179.43277809353,6.21733937904)
  );
#59 = SURFACE_CURVE('',#60,(#64,#71),.PCURVE_S1.);
#60 = LINE('',#61,#62);
#61 = CARTESIAN_POINT('',(496.8418438757,94.125157789614,6.063872443242)
  );
#62 = VECTOR('',#63,1.);
#63 = DIRECTION('',(0.,-0.999998381834,-1.798979820521E-03));
#64 = PCURVE('',#32,#65);
#65 = DEFINITIONAL_REPRESENTATION('',(#66),#70);
#66 = LINE('',#67,#68);
#67 = CARTESIAN_POINT('',(139.91386518752,-88.44234158477));
#68 = VECTOR('',#69,1.);
#69 = DIRECTION('',(4.123094030257E-02,-0.999149643228));
#70 = ( GEOMETRIC_REPRESENTATION_CONTEXT(2) 
PARAMETRIC_REPRESENTATION_CONTEXT() REPRESENTATION_CONTEXT('2D SPACE',''
  ) );
#71 = PCURVE('',#72,#77);
#72 = PLANE('',#73);
#73 = AXIS2_PLACEMENT_3D('',#74,#75,#76);
#74 = CARTESIAN_POINT('',(496.8418438757,0.,0.));
#75 = DIRECTION('',(1.,0.,0.));
#76 = DIRECTION('',(-0.,0.,1.));
#77 = DEFINITIONAL_REPRESENTATION('',(#78),#81);
#78 = B_SPLINE_CURVE_WITH_KNOTS('',1,(#79,#80),.UNSPECIFIED.,.F.,.F.,(2,
    2),(-114.4744516129,-66.23689275939),.PIECEWISE_BEZIER_KNOTS.);
#79 = CARTESIAN_POINT('',(6.269809671659,-208.5994241639));
#80 = CARTESIAN_POINT('',(6.18303127669,-160.3619433667));
#81 = ( GEOMETRIC_REPRESENTATION_CONTEXT(2) 
PARAMETRIC_REPRESENTATION_CONTEXT() REPRESENTATION_CONTEXT('2D SPACE',''
  ) );
#82 = ORIENTED_EDGE('',*,*,#83,.T.);
#83 = EDGE_CURVE('',#57,#84,#86,.T.);
#84 = VERTEX_POINT('',#85);
#85 = CARTESIAN_POINT('',(496.02050109927,179.45657258091,6.211186163295
    ));
#86 = SURFACE_CURVE('',#87,(#92,#100),.PCURVE_S1.);
#87 = B_SPLINE_CURVE_WITH_KNOTS('',3,(#88,#89,#90,#91),.UNSPECIFIED.,.F.
  ,.F.,(4,4),(0.,0.999999999363),.PIECEWISE_BEZIER_KNOTS.);
#88 = CARTESIAN_POINT('',(770.08595826729,171.51682854416,8.267996430883
    ));
#89 = CARTESIAN_POINT('',(678.7308059052,174.16340989426,7.582389394732)
  );
#90 = CARTESIAN_POINT('',(587.37565354312,176.80999124436,6.896782358583
    ));
#91 = CARTESIAN_POINT('',(496.02050118103,179.45657259446,6.211175322432
    ));
#92 = PCURVE('',#32,#93);
#93 = DEFINITIONAL_REPRESENTATION('',(#94),#99);
#94 = B_SPLINE_CURVE_WITH_KNOTS('',3,(#95,#96,#97,#98),.UNSPECIFIED.,.F.
  ,.F.,(4,4),(0.,0.999999999363),.PIECEWISE_BEZIER_KNOTS.);
#95 = CARTESIAN_POINT('',(-136.2967793164,-22.37907813918));
#96 = CARTESIAN_POINT('',(-45.12577515178,-15.96921756652));
#97 = CARTESIAN_POINT('',(46.045229012857,-9.559356993871));
#98 = CARTESIAN_POINT('',(137.2162331775,-3.149496421214));
#99 = ( GEOMETRIC_REPRESENTATION_CONTEXT(2) 
PARAMETRIC_REPRESENTATION_CONTEXT() REPRESENTATION_CONTEXT('2D SPACE',''
  ) );
#100 = PCURVE('',#101,#106);
#101 = PLANE('',#102);
#102 = AXIS2_PLACEMENT_3D('',#103,#104,#105);
#103 = CARTESIAN_POINT('',(633.12871542299,161.08477587237,
    7.214291111643));
#104 = DIRECTION('',(7.556496566381E-03,1.795899506915E-03,
    -0.999969836597));
#105 = DIRECTION('',(-0.999121117743,-4.121729085995E-02,
    -7.624107376979E-03));
#106 = DEFINITIONAL_REPRESENTATION('',(#107),#112);
#107 = B_SPLINE_CURVE_WITH_KNOTS('',3,(#108,#109,#110,#111),
  .UNSPECIFIED.,.F.,.F.,(4,4),(0.,0.999999999363),
  .PIECEWISE_BEZIER_KNOTS.);
#108 = CARTESIAN_POINT('',(-137.2748880653,4.778021765653));
#109 = CARTESIAN_POINT('',(-46.10388389738,11.187882290596));
#110 = CARTESIAN_POINT('',(45.067120270604,17.597742815539));
#111 = CARTESIAN_POINT('',(136.2381244386,24.007603340482));
#112 = ( GEOMETRIC_REPRESENTATION_CONTEXT(2) 
PARAMETRIC_REPRESENTATION_CONTEXT() REPRESENTATION_CONTEXT('2D SPACE',''
  ) );
#113 = ORIENTED_EDGE('',*,*,#114,.F.);
#114 = EDGE_CURVE('',#24,#84,#115,.T.);
#115 = SURFACE_CURVE('',#116,(#120,#127),.PCURVE_S1.);
#116 = LINE('',#117,#118);
#117 = CARTESIAN_POINT('',(495.97927783943,187.5642810838,6.225449426421
    ));
#118 = VECTOR('',#119,1.);
#119 = DIRECTION('',(5.084431287844E-03,-0.999985524435,
    -1.760533793095E-03));
#120 = PCURVE('',#32,#121);
#121 = DEFINITIONAL_REPRESENTATION('',(#122),#126);
#122 = LINE('',#123,#124);
#123 = CARTESIAN_POINT('',(136.92313367808,4.953029897502));
#124 = VECTOR('',#125,1.);
#125 = DIRECTION('',(3.615015456745E-02,-0.999346369546));
#126 = ( GEOMETRIC_REPRESENTATION_CONTEXT(2) 
PARAMETRIC_REPRESENTATION_CONTEXT() REPRESENTATION_CONTEXT('2D SPACE',''
  ) );
#127 = PCURVE('',#128,#133);
#128 = PLANE('',#129);
#129 = AXIS2_PLACEMENT_3D('',#130,#131,#132);
#130 = CARTESIAN_POINT('',(495.96231374424,169.80222649918,
    10.865332883984));
#131 = DIRECTION('',(0.999723686394,5.0426790387E-03,2.295914306868E-02)
  );
#132 = DIRECTION('',(2.295428780227E-02,1.01861704491E-03,
    -0.999735996697));
#133 = DEFINITIONAL_REPRESENTATION('',(#134),#138);
#134 = LINE('',#135,#136);
#135 = CARTESIAN_POINT('',(4.657140643278,17.757545730648));
#136 = VECTOR('',#137,1.);
#137 = DIRECTION('',(8.581762055974E-04,-0.999999631767));
#138 = ( GEOMETRIC_REPRESENTATION_CONTEXT(2) 
PARAMETRIC_REPRESENTATION_CONTEXT() REPRESENTATION_CONTEXT('2D SPACE',''
  ) );
#139 = ADVANCED_FACE('',(#140),#44,.T.);
#140 = FACE_BOUND('',#141,.T.);
#141 = EDGE_LOOP('',(#142,#191,#211,#212));
#142 = ORIENTED_EDGE('',*,*,#143,.F.);
#143 = EDGE_CURVE('',#144,#146,#148,.T.);
#144 = VERTEX_POINT('',#145);
#145 = CARTESIAN_POINT('',(496.8418438757,208.51319691428,6.470368371664
    ));
#146 = VERTEX_POINT('',#147);
#147 = CARTESIAN_POINT('',(495.86787850975,208.56670261925,
    6.463266564593));
#148 = SURFACE_CURVE('',#149,(#153,#160),.PCURVE_S1.);
#149 = LINE('',#150,#151);
#150 = CARTESIAN_POINT('',(769.9625539397,193.50905339039,8.461866897529
    ));
#151 = VECTOR('',#152,1.);
#152 = DIRECTION('',(-0.998467965009,5.485177834919E-02,
    -7.280471261125E-03));
#153 = PCURVE('',#44,#154);
#154 = DEFINITIONAL_REPRESENTATION('',(#155),#159);
#155 = LINE('',#156,#157);
#156 = CARTESIAN_POINT('',(0.,0.));
#157 = VECTOR('',#158,1.);
#158 = DIRECTION('',(1.914992607602E-02,-0.999816623352));
#159 = ( GEOMETRIC_REPRESENTATION_CONTEXT(2) 
PARAMETRIC_REPRESENTATION_CONTEXT() REPRESENTATION_CONTEXT('2D SPACE',''
  ) );
#160 = PCURVE('',#161,#186);
#161 = B_SPLINE_SURFACE_WITH_KNOTS('',3,3,(
    (#162,#163,#164,#165)
    ,(#166,#167,#168,#169)
    ,(#170,#171,#172,#173)
    ,(#174,#175,#176,#177)
    ,(#178,#179,#180,#181)
    ,(#182,#183,#184,#185
    )),.UNSPECIFIED.,.F.,.F.,.F.,(4,2,4),(4,4),(4.034381095125E-02,
    0.676536383594,1.),(0.,1.),.UNSPECIFIED.);
#162 = CARTESIAN_POINT('',(769.9680318431,147.07314889002,
    19.159673311961));
#163 = CARTESIAN_POINT('',(678.59731710116,146.70043622546,
    19.685529548238));
#164 = CARTESIAN_POINT('',(587.22660235921,146.3277235609,
    20.211385784515));
#165 = CARTESIAN_POINT('',(495.85588761727,145.95501089634,
    20.737242020792));
#166 = CARTESIAN_POINT('',(769.94926748953,160.41605174392,
    16.834280070779));
#167 = CARTESIAN_POINT('',(678.57999923676,159.72907372223,
    17.436796802142));
#168 = CARTESIAN_POINT('',(587.21073098399,159.04209570054,
    18.039313533505));
#169 = CARTESIAN_POINT('',(495.84146273122,158.35511767885,
    18.641830264869));
#170 = CARTESIAN_POINT('',(769.94978178923,172.89341547813,
    13.873285531398));
#171 = CARTESIAN_POINT('',(678.57876246215,172.93048530106,
    14.459058719932));
#172 = CARTESIAN_POINT('',(587.20774313508,172.967555124,15.044831908466
    ));
#173 = CARTESIAN_POINT('',(495.836723808,173.00462494693,15.630605097001
    ));
#174 = CARTESIAN_POINT('',(769.95671358877,186.8771496889,
    10.278082349495));
#175 = CARTESIAN_POINT('',(678.58928653884,190.63974490069,9.96317843543
    ));
#176 = CARTESIAN_POINT('',(587.22185948891,194.40234011247,
    9.648274521367));
#177 = CARTESIAN_POINT('',(495.85443243898,198.16493532426,
    9.333370607302));
#178 = CARTESIAN_POINT('',(769.96010501918,190.76149647099,
    9.215589555598));
#179 = CARTESIAN_POINT('',(678.59478652933,195.70691570332,
    8.569636389789));
#180 = CARTESIAN_POINT('',(587.22946803948,200.65233493564,
    7.923683223981));
#181 = CARTESIAN_POINT('',(495.86414954963,205.59775416797,
    7.277730058172));
#182 = CARTESIAN_POINT('',(769.9625539397,193.50905339039,8.461866897529
    ));
#183 = CARTESIAN_POINT('',(678.59766212972,198.52826980001,7.79566678655
    ));
#184 = CARTESIAN_POINT('',(587.23277031973,203.54748620963,
    7.129466675571));
#185 = CARTESIAN_POINT('',(495.86787850975,208.56670261925,
    6.463266564592));
#186 = DEFINITIONAL_REPRESENTATION('',(#187),#190);
#187 = B_SPLINE_CURVE_WITH_KNOTS('',1,(#188,#189),.UNSPECIFIED.,.F.,.F.,
  (2,2),(0.,274.51524238672),.PIECEWISE_BEZIER_KNOTS.);
#188 = CARTESIAN_POINT('',(1.,-1.259565974393E-16));
#189 = CARTESIAN_POINT('',(1.,1.));
#190 = ( GEOMETRIC_REPRESENTATION_CONTEXT(2) 
PARAMETRIC_REPRESENTATION_CONTEXT() REPRESENTATION_CONTEXT('2D SPACE',''
  ) );
#191 = ORIENTED_EDGE('',*,*,#192,.T.);
#192 = EDGE_CURVE('',#144,#22,#193,.T.);
#193 = SURFACE_CURVE('',#194,(#198,#205),.PCURVE_S1.);
#194 = LINE('',#195,#196);
#195 = CARTESIAN_POINT('',(496.8418438757,208.29918922138,0.338148234593
    ));
#196 = VECTOR('',#197,1.);
#197 = DIRECTION('',(0.,-3.48776598901E-02,-0.999391589339));
#198 = PCURVE('',#44,#199);
#199 = DEFINITIONAL_REPRESENTATION('',(#200),#204);
#200 = LINE('',#201,#202);
#201 = CARTESIAN_POINT('',(-0.895843125892,-273.640023852));
#202 = VECTOR('',#203,1.);
#203 = DIRECTION('',(-0.999699545417,-2.45116073245E-02));
#204 = ( GEOMETRIC_REPRESENTATION_CONTEXT(2) 
PARAMETRIC_REPRESENTATION_CONTEXT() REPRESENTATION_CONTEXT('2D SPACE',''
  ) );
#205 = PCURVE('',#72,#206);
#206 = DEFINITIONAL_REPRESENTATION('',(#207),#210);
#207 = B_SPLINE_CURVE_WITH_KNOTS('',1,(#208,#209),.UNSPECIFIED.,.F.,.F.,
  (2,2),(-6.15463891381,-0.770217852352),.PIECEWISE_BEZIER_KNOTS.);
#208 = CARTESIAN_POINT('',(6.48904260047,-208.5138486241));
#209 = CARTESIAN_POINT('',(1.107897478192,-208.3260526176));
#210 = ( GEOMETRIC_REPRESENTATION_CONTEXT(2) 
PARAMETRIC_REPRESENTATION_CONTEXT() REPRESENTATION_CONTEXT('2D SPACE',''
  ) );
#211 = ORIENTED_EDGE('',*,*,#21,.T.);
#212 = ORIENTED_EDGE('',*,*,#213,.F.);
#213 = EDGE_CURVE('',#146,#24,#214,.T.);
#214 = SURFACE_CURVE('',#215,(#219,#226),.PCURVE_S1.);
#215 = LINE('',#216,#217);
#216 = CARTESIAN_POINT('',(495.87252864572,208.55943522638,
    6.262379103828));
#217 = VECTOR('',#218,1.);
#218 = DIRECTION('',(2.312664588503E-02,-3.614311972799E-02,
    -0.999078992446));
#219 = PCURVE('',#44,#220);
#220 = DEFINITIONAL_REPRESENTATION('',(#221),#225);
#221 = LINE('',#222,#223);
#222 = CARTESIAN_POINT('',(5.055874131532,-274.4651741886));
#223 = VECTOR('',#224,1.);
#224 = DIRECTION('',(-0.999999088489,-1.350192660066E-03));
#225 = ( GEOMETRIC_REPRESENTATION_CONTEXT(2) 
PARAMETRIC_REPRESENTATION_CONTEXT() REPRESENTATION_CONTEXT('2D SPACE',''
  ) );
#226 = PCURVE('',#128,#227);
#227 = DEFINITIONAL_REPRESENTATION('',(#228),#232);
#228 = LINE('',#229,#230);
#229 = CARTESIAN_POINT('',(4.639156385583,38.752996028953));
#230 = VECTOR('',#231,1.);
#231 = DIRECTION('',(0.999309271979,-3.716152495086E-02));
#232 = ( GEOMETRIC_REPRESENTATION_CONTEXT(2) 
PARAMETRIC_REPRESENTATION_CONTEXT() REPRESENTATION_CONTEXT('2D SPACE',''
  ) );
#233 = ADVANCED_FACE('',(#234),#128,.F.);
#234 = FACE_BOUND('',#235,.F.);
#235 = EDGE_LOOP('',(#236,#264,#285,#286,#287,#315));
#236 = ORIENTED_EDGE('',*,*,#237,.F.);
#237 = EDGE_CURVE('',#238,#240,#242,.T.);
#238 = VERTEX_POINT('',#239);
#239 = CARTESIAN_POINT('',(496.1804399352,148.,6.155911071268));
#240 = VERTEX_POINT('',#241);
#241 = CARTESIAN_POINT('',(495.85361912978,148.,20.386864700979));
#242 = SURFACE_CURVE('',#243,(#247,#253),.PCURVE_S1.);
#243 = LINE('',#244,#245);
#244 = CARTESIAN_POINT('',(496.19581402658,148.,5.486467823435));
#245 = VECTOR('',#246,1.);
#246 = DIRECTION('',(-2.295943498381E-02,0.,0.999736397429));
#247 = PCURVE('',#128,#248);
#248 = DEFINITIONAL_REPRESENTATION('',(#249),#252);
#249 = B_SPLINE_CURVE_WITH_KNOTS('',1,(#250,#251),.UNSPECIFIED.,.F.,.F.,
  (2,2),(0.668443739253,15.292076637368),.PIECEWISE_BEZIER_KNOTS.);
#250 = CARTESIAN_POINT('',(4.692153343097,-21.80729458649));
#251 = CARTESIAN_POINT('',(-9.931471968224,-21.79239851536));
#252 = ( GEOMETRIC_REPRESENTATION_CONTEXT(2) 
PARAMETRIC_REPRESENTATION_CONTEXT() REPRESENTATION_CONTEXT('2D SPACE',''
  ) );
#253 = PCURVE('',#254,#259);
#254 = PLANE('',#255);
#255 = AXIS2_PLACEMENT_3D('',#256,#257,#258);
#256 = CARTESIAN_POINT('',(-1.25E+03,148.,-40.));
#257 = DIRECTION('',(0.,1.,0.));
#258 = DIRECTION('',(0.,0.,1.));
#259 = DEFINITIONAL_REPRESENTATION('',(#260),#263);
#260 = B_SPLINE_CURVE_WITH_KNOTS('',1,(#261,#262),.UNSPECIFIED.,.F.,.F.,
  (2,2),(0.668443739253,15.292076637368),.PIECEWISE_BEZIER_KNOTS.);
#261 = CARTESIAN_POINT('',(46.154735359199,1.746180466936E+03));
#262 = CARTESIAN_POINT('',(60.774513430092,1.745844716587E+03));
#263 = ( GEOMETRIC_REPRESENTATION_CONTEXT(2) 
PARAMETRIC_REPRESENTATION_CONTEXT() REPRESENTATION_CONTEXT('2D SPACE',''
  ) );
#264 = ORIENTED_EDGE('',*,*,#265,.F.);
#265 = EDGE_CURVE('',#84,#238,#266,.T.);
#266 = SURFACE_CURVE('',#267,(#271,#278),.PCURVE_S1.);
#267 = LINE('',#268,#269);
#268 = CARTESIAN_POINT('',(496.1174439194,160.38997278316,6.177686844934
    ));
#269 = VECTOR('',#270,1.);
#270 = DIRECTION('',(5.084361794839E-03,-0.999985530113,
    -1.757506570385E-03));
#271 = PCURVE('',#128,#272);
#272 = DEFINITIONAL_REPRESENTATION('',(#273),#277);
#273 = LINE('',#274,#275);
#274 = CARTESIAN_POINT('',(4.680381905631,-9.417145851628));
#275 = VECTOR('',#276,1.);
#276 = DIRECTION('',(8.551481811383E-04,-0.999999634361));
#277 = ( GEOMETRIC_REPRESENTATION_CONTEXT(2) 
PARAMETRIC_REPRESENTATION_CONTEXT() REPRESENTATION_CONTEXT('2D SPACE',''
  ) );
#278 = PCURVE('',#101,#279);
#279 = DEFINITIONAL_REPRESENTATION('',(#280),#284);
#280 = LINE('',#281,#282);
#281 = CARTESIAN_POINT('',(136.92739581137,4.953190394628));
#282 = VECTOR('',#283,1.);
#283 = DIRECTION('',(3.615020062975E-02,-0.99934636788));
#284 = ( GEOMETRIC_REPRESENTATION_CONTEXT(2) 
PARAMETRIC_REPRESENTATION_CONTEXT() REPRESENTATION_CONTEXT('2D SPACE',''
  ) );
#285 = ORIENTED_EDGE('',*,*,#114,.F.);
#286 = ORIENTED_EDGE('',*,*,#213,.F.);
#287 = ORIENTED_EDGE('',*,*,#288,.F.);
#288 = EDGE_CURVE('',#289,#146,#291,.T.);
#289 = VERTEX_POINT('',#290);
#290 = CARTESIAN_POINT('',(495.8418439757,171.23984623311,
    15.795265410493));
#291 = SURFACE_CURVE('',#292,(#299,#309),.PCURVE_S1.);
#292 = B_SPLINE_CURVE_WITH_KNOTS('',3,(#293,#294,#295,#296,#297,#298),
  .UNSPECIFIED.,.F.,.F.,(4,2,4),(-2.732129659681,-0.923591773161,0.),
  .UNSPECIFIED.);
#293 = CARTESIAN_POINT('',(495.85569772365,146.1188647375,
    20.709522293818));
#294 = CARTESIAN_POINT('',(495.84142133725,158.48410554119,
    18.615302190345));
#295 = CARTESIAN_POINT('',(495.83677547596,173.07803445725,
    15.612231837956));
#296 = CARTESIAN_POINT('',(495.85443243898,198.16493532426,
    9.333370607302));
#297 = CARTESIAN_POINT('',(495.86414954963,205.59775416797,
    7.277730058172));
#298 = CARTESIAN_POINT('',(495.86787850975,208.56670261925,
    6.463266564593));
#299 = PCURVE('',#128,#300);
#300 = DEFINITIONAL_REPRESENTATION('',(#301),#308);
#301 = B_SPLINE_CURVE_WITH_KNOTS('',3,(#302,#303,#304,#305,#306,#307),
  .UNSPECIFIED.,.F.,.F.,(4,2,4),(-2.732129659681,-0.923591773161,0.),
  .UNSPECIFIED.);
#302 = CARTESIAN_POINT('',(-9.868162082102,-23.67362316098));
#303 = CARTESIAN_POINT('',(-7.76222711889,-11.31036389326));
#304 = CARTESIAN_POINT('',(-4.745190604685,3.280684904008));
#305 = CARTESIAN_POINT('',(1.5579722337,28.361497160913));
#306 = CARTESIAN_POINT('',(3.620864332254,35.792313040923));
#307 = CARTESIAN_POINT('',(4.438222621902,38.76046819526));
#308 = ( GEOMETRIC_REPRESENTATION_CONTEXT(2) 
PARAMETRIC_REPRESENTATION_CONTEXT() REPRESENTATION_CONTEXT('2D SPACE',''
  ) );
#309 = PCURVE('',#161,#310);
#310 = DEFINITIONAL_REPRESENTATION('',(#311),#314);
#311 = B_SPLINE_CURVE_WITH_KNOTS('',1,(#312,#313),.UNSPECIFIED.,.F.,.F.,
  (2,2),(-2.732129659681,0.),.PIECEWISE_BEZIER_KNOTS.);
#312 = CARTESIAN_POINT('',(4.314377207449E-02,1.));
#313 = CARTESIAN_POINT('',(1.,1.));
#314 = ( GEOMETRIC_REPRESENTATION_CONTEXT(2) 
PARAMETRIC_REPRESENTATION_CONTEXT() REPRESENTATION_CONTEXT('2D SPACE',''
  ) );
#315 = ORIENTED_EDGE('',*,*,#316,.F.);
#316 = EDGE_CURVE('',#240,#289,#317,.T.);
#317 = SURFACE_CURVE('',#318,(#325,#335),.PCURVE_S1.);
#318 = B_SPLINE_CURVE_WITH_KNOTS('',3,(#319,#320,#321,#322,#323,#324),
  .UNSPECIFIED.,.F.,.F.,(4,2,4),(-2.732129659681,-0.923591773161,0.),
  .UNSPECIFIED.);
#319 = CARTESIAN_POINT('',(495.85569772365,146.1188647375,
    20.709522293818));
#320 = CARTESIAN_POINT('',(495.84142133725,158.48410554119,
    18.615302190345));
#321 = CARTESIAN_POINT('',(495.83677547596,173.07803445725,
    15.612231837956));
#322 = CARTESIAN_POINT('',(495.85443243898,198.16493532426,
    9.333370607302));
#323 = CARTESIAN_POINT('',(495.86414954963,205.59775416797,
    7.277730058172));
#324 = CARTESIAN_POINT('',(495.86787850975,208.56670261925,
    6.463266564593));
#325 = PCURVE('',#128,#326);
#326 = DEFINITIONAL_REPRESENTATION('',(#327),#334);
#327 = B_SPLINE_CURVE_WITH_KNOTS('',3,(#328,#329,#330,#331,#332,#333),
  .UNSPECIFIED.,.F.,.F.,(4,2,4),(-2.732129659681,-0.923591773161,0.),
  .UNSPECIFIED.);
#328 = CARTESIAN_POINT('',(-9.868162082102,-23.67362316098));
#329 = CARTESIAN_POINT('',(-7.76222711889,-11.31036389326));
#330 = CARTESIAN_POINT('',(-4.745190604685,3.280684904008));
#331 = CARTESIAN_POINT('',(1.5579722337,28.361497160913));
#332 = CARTESIAN_POINT('',(3.620864332254,35.792313040923));
#333 = CARTESIAN_POINT('',(4.438222621902,38.76046819526));
#334 = ( GEOMETRIC_REPRESENTATION_CONTEXT(2) 
PARAMETRIC_REPRESENTATION_CONTEXT() REPRESENTATION_CONTEXT('2D SPACE',''
  ) );
#335 = PCURVE('',#161,#336);
#336 = DEFINITIONAL_REPRESENTATION('',(#337),#340);
#337 = B_SPLINE_CURVE_WITH_KNOTS('',1,(#338,#339),.UNSPECIFIED.,.F.,.F.,
  (2,2),(-2.732129659681,0.),.PIECEWISE_BEZIER_KNOTS.);
#338 = CARTESIAN_POINT('',(4.314377207449E-02,1.));
#339 = CARTESIAN_POINT('',(1.,1.));
#340 = ( GEOMETRIC_REPRESENTATION_CONTEXT(2) 
PARAMETRIC_REPRESENTATION_CONTEXT() REPRESENTATION_CONTEXT('2D SPACE',''
  ) );
#341 = ADVANCED_FACE('',(#342),#101,.T.);
#342 = FACE_BOUND('',#343,.T.);
#343 = EDGE_LOOP('',(#344,#345,#367,#386));
#344 = ORIENTED_EDGE('',*,*,#83,.F.);
#345 = ORIENTED_EDGE('',*,*,#346,.T.);
#346 = EDGE_CURVE('',#57,#347,#349,.T.);
#347 = VERTEX_POINT('',#348);
#348 = CARTESIAN_POINT('',(496.8418438757,148.,6.160909118631));
#349 = SURFACE_CURVE('',#350,(#354,#361),.PCURVE_S1.);
#350 = LINE('',#351,#352);
#351 = CARTESIAN_POINT('',(496.8418438757,80.53801909034,6.039750525824)
  );
#352 = VECTOR('',#353,1.);
#353 = DIRECTION('',(0.,-0.999998387279,-1.795950782618E-03));
#354 = PCURVE('',#101,#355);
#355 = DEFINITIONAL_REPRESENTATION('',(#356),#360);
#356 = LINE('',#357,#358);
#357 = CARTESIAN_POINT('',(139.49596535973,-74.86084809961));
#358 = VECTOR('',#359,1.);
#359 = DIRECTION('',(4.123091690957E-02,-0.999149644193));
#360 = ( GEOMETRIC_REPRESENTATION_CONTEXT(2) 
PARAMETRIC_REPRESENTATION_CONTEXT() REPRESENTATION_CONTEXT('2D SPACE',''
  ) );
#361 = PCURVE('',#72,#362);
#362 = DEFINITIONAL_REPRESENTATION('',(#363),#366);
#363 = B_SPLINE_CURVE_WITH_KNOTS('',1,(#364,#365),.UNSPECIFIED.,.F.,.F.,
  (2,2),(-98.95259636066,-56.25875241603),.PIECEWISE_BEZIER_KNOTS.);
#364 = CARTESIAN_POINT('',(6.2174645187,-179.490455868));
#365 = CARTESIAN_POINT('',(6.140788476254,-136.7966807767));
#366 = ( GEOMETRIC_REPRESENTATION_CONTEXT(2) 
PARAMETRIC_REPRESENTATION_CONTEXT() REPRESENTATION_CONTEXT('2D SPACE',''
  ) );
#367 = ORIENTED_EDGE('',*,*,#368,.F.);
#368 = EDGE_CURVE('',#238,#347,#369,.T.);
#369 = SURFACE_CURVE('',#370,(#374,#380),.PCURVE_S1.);
#370 = LINE('',#371,#372);
#371 = CARTESIAN_POINT('',(-308.5600831259,148.,7.470864217051E-02));
#372 = VECTOR('',#373,1.);
#373 = DIRECTION('',(0.99997144918,-0.,7.556508752225E-03));
#374 = PCURVE('',#101,#375);
#375 = DEFINITIONAL_REPRESENTATION('',(#376),#379);
#376 = B_SPLINE_CURVE_WITH_KNOTS('',1,(#377,#378),.UNSPECIFIED.,.F.,.F.,
  (2,2),(804.71431590925,1.079647285316E+03),.PIECEWISE_BEZIER_KNOTS.);
#377 = CARTESIAN_POINT('',(137.42444430783,-7.426835844608));
#378 = CARTESIAN_POINT('',(-137.2748880654,-18.75884628597));
#379 = ( GEOMETRIC_REPRESENTATION_CONTEXT(2) 
PARAMETRIC_REPRESENTATION_CONTEXT() REPRESENTATION_CONTEXT('2D SPACE',''
  ) );
#380 = PCURVE('',#254,#381);
#381 = DEFINITIONAL_REPRESENTATION('',(#382),#385);
#382 = B_SPLINE_CURVE_WITH_KNOTS('',1,(#383,#384),.UNSPECIFIED.,.F.,.F.,
  (2,2),(804.71431590925,1.079647285316E+03),.PIECEWISE_BEZIER_KNOTS.);
#383 = CARTESIAN_POINT('',(46.155539413379,1.74613125753E+03));
#384 = CARTESIAN_POINT('',(48.233072802978,2.021056377375E+03));
#385 = ( GEOMETRIC_REPRESENTATION_CONTEXT(2) 
PARAMETRIC_REPRESENTATION_CONTEXT() REPRESENTATION_CONTEXT('2D SPACE',''
  ) );
#386 = ORIENTED_EDGE('',*,*,#265,.F.);
#387 = ADVANCED_FACE('',(#388,#587),#72,.T.);
#388 = FACE_BOUND('',#389,.T.);
#389 = EDGE_LOOP('',(#390,#391,#392,#566,#586));
#390 = ORIENTED_EDGE('',*,*,#56,.F.);
#391 = ORIENTED_EDGE('',*,*,#192,.F.);
#392 = ORIENTED_EDGE('',*,*,#393,.T.);
#393 = EDGE_CURVE('',#144,#394,#396,.T.);
#394 = VERTEX_POINT('',#395);
#395 = CARTESIAN_POINT('',(496.8418438757,148.,20.381830704551));
#396 = SURFACE_CURVE('',#397,(#442,#490),.PCURVE_S1.);
#397 = B_SPLINE_CURVE_WITH_KNOTS('',7,(#398,#399,#400,#401,#402,#403,
    #404,#405,#406,#407,#408,#409,#410,#411,#412,#413,#414,#415,#416,
    #417,#418,#419,#420,#421,#422,#423,#424,#425,#426,#427,#428,#429,
    #430,#431,#432,#433,#434,#435,#436,#437,#438,#439,#440,#441),
  .UNSPECIFIED.,.F.,.F.,(8,6,6,6,6,6,6,8),(0.,2.696846748758E-02,
    7.955941038584E-02,0.145383157464,0.305925576461,0.317979206871,
    0.6802586317,1.),.UNSPECIFIED.);
#398 = CARTESIAN_POINT('',(496.8418438757,208.51319691426,6.470368371665
    ));
#399 = CARTESIAN_POINT('',(496.8418438757,208.27769454042,6.534970792076
    ));
#400 = CARTESIAN_POINT('',(496.8418438757,208.04218671128,6.599655565143
    ));
#401 = CARTESIAN_POINT('',(496.8418438757,207.80666651401,6.664355825948
    ));
#402 = CARTESIAN_POINT('',(496.8418438757,207.57113325158,6.729052810688
    ));
#403 = CARTESIAN_POINT('',(496.8418438757,207.33558505521,6.793726327738
    ));
#404 = CARTESIAN_POINT('',(496.8418438757,207.1000207265,6.858367425458)
  );
#405 = CARTESIAN_POINT('',(496.8418438757,206.4050312991,7.04894458672)
  );
#406 = CARTESIAN_POINT('',(496.8418438757,205.9455590225,7.174765985759)
  );
#407 = CARTESIAN_POINT('',(496.8418438757,205.48601408296,7.300374266445
    ));
#408 = CARTESIAN_POINT('',(496.8418438757,205.02639512806,7.425750576303
    ));
#409 = CARTESIAN_POINT('',(496.8418438757,204.56670005323,7.550876162814
    ));
#410 = CARTESIAN_POINT('',(496.8418438757,204.10692753341,7.675740828956
    ));
#411 = CARTESIAN_POINT('',(496.8418438757,203.07151708689,7.956279424037
    ));
#412 = CARTESIAN_POINT('',(496.8418438757,202.49583506103,8.111799987015
    ));
#413 = CARTESIAN_POINT('',(496.8418438757,201.92002722939,8.266878823868
    ));
#414 = CARTESIAN_POINT('',(496.8418438757,201.34409185852,8.421502980804
    ));
#415 = CARTESIAN_POINT('',(496.8418438757,200.76802728657,8.575661083751
    ));
#416 = CARTESIAN_POINT('',(496.8418438757,200.19183166073,8.729341798961
    ));
#417 = CARTESIAN_POINT('',(496.8418438757,198.20985230042,9.256166380799
    ));
#418 = CARTESIAN_POINT('',(496.8418438757,196.80341155921,9.62689304901)
  );
#419 = CARTESIAN_POINT('',(496.8418438757,195.39615157279,9.994554010266
    ));
#420 = CARTESIAN_POINT('',(496.8418438757,193.98804120646,
    10.358985667267));
#421 = CARTESIAN_POINT('',(496.8418438757,192.57904224736,
    10.719990707835));
#422 = CARTESIAN_POINT('',(496.8418438757,191.16910899567,
    11.077337918625));
#423 = CARTESIAN_POINT('',(496.8418438757,189.65225018519,
    11.457275031368));
#424 = CARTESIAN_POINT('',(496.8418438757,189.5462638157,11.483797028506
    ));
#425 = CARTESIAN_POINT('',(496.8418438757,189.4403113022,11.510292351587
    ));
#426 = CARTESIAN_POINT('',(496.8418438757,189.33444162657,
    11.536746501866));
#427 = CARTESIAN_POINT('',(496.8418438757,189.22866822711,
    11.563154902795));
#428 = CARTESIAN_POINT('',(496.8418438757,189.12296951105,
    11.589524860294));
#429 = CARTESIAN_POINT('',(496.8418438757,185.84094527051,
    12.407688993028));
#430 = CARTESIAN_POINT('',(496.8418438757,182.6602616683,13.182031870667
    ));
#431 = CARTESIAN_POINT('',(496.8418438757,179.47521946987,
    13.938365281394));
#432 = CARTESIAN_POINT('',(496.8418438757,176.28580525866,
    14.676086488886));
#433 = CARTESIAN_POINT('',(496.8418438757,173.09200678823,
    15.394512350047));
#434 = CARTESIAN_POINT('',(496.8418438757,169.89380633686,
    16.092849927407));
#435 = CARTESIAN_POINT('',(496.8418438757,163.86458012106,
    17.367920558782));
#436 = CARTESIAN_POINT('',(496.8418438757,161.0345468544,17.949301195375
    ));
#437 = CARTESIAN_POINT('',(496.8418438757,158.20103940152,
    18.513640405125));
#438 = CARTESIAN_POINT('',(496.8418438757,155.36403495341,
    19.060180188573));
#439 = CARTESIAN_POINT('',(496.8418438757,152.52351578724,
    19.588040302071));
#440 = CARTESIAN_POINT('',(496.8418438757,149.67945794615,
    20.096157421644));
#441 = CARTESIAN_POINT('',(496.8418438757,146.83181145647,
    20.583177933146));
#442 = PCURVE('',#72,#443);
#443 = DEFINITIONAL_REPRESENTATION('',(#444),#489);
#444 = B_SPLINE_CURVE_WITH_KNOTS('',7,(#445,#446,#447,#448,#449,#450,
    #451,#452,#453,#454,#455,#456,#457,#458,#459,#460,#461,#462,#463,
    #464,#465,#466,#467,#468,#469,#470,#471,#472,#473,#474,#475,#476,
    #477,#478,#479,#480,#481,#482,#483,#484,#485,#486,#487,#488),
  .UNSPECIFIED.,.F.,.F.,(8,6,6,6,6,6,6,8),(0.,2.696846748758E-02,
    7.955941038584E-02,0.145383157464,0.305925576461,0.317979206871,
    0.6802586317,1.),.UNSPECIFIED.);
#445 = CARTESIAN_POINT('',(6.470368371665,-208.5131969142));
#446 = CARTESIAN_POINT('',(6.534970792076,-208.2776945404));
#447 = CARTESIAN_POINT('',(6.599655565143,-208.0421867112));
#448 = CARTESIAN_POINT('',(6.664355825948,-207.806666514));
#449 = CARTESIAN_POINT('',(6.729052810688,-207.5711332515));
#450 = CARTESIAN_POINT('',(6.793726327738,-207.3355850552));
#451 = CARTESIAN_POINT('',(6.858367425458,-207.1000207265));
#452 = CARTESIAN_POINT('',(7.04894458672,-206.4050312991));
#453 = CARTESIAN_POINT('',(7.174765985759,-205.9455590225));
#454 = CARTESIAN_POINT('',(7.300374266445,-205.4860140829));
#455 = CARTESIAN_POINT('',(7.425750576303,-205.026395128));
#456 = CARTESIAN_POINT('',(7.550876162814,-204.5667000532));
#457 = CARTESIAN_POINT('',(7.675740828956,-204.1069275334));
#458 = CARTESIAN_POINT('',(7.956279424037,-203.0715170868));
#459 = CARTESIAN_POINT('',(8.111799987015,-202.495835061));
#460 = CARTESIAN_POINT('',(8.266878823868,-201.9200272293));
#461 = CARTESIAN_POINT('',(8.421502980804,-201.3440918585));
#462 = CARTESIAN_POINT('',(8.575661083751,-200.7680272865));
#463 = CARTESIAN_POINT('',(8.729341798961,-200.1918316607));
#464 = CARTESIAN_POINT('',(9.256166380799,-198.2098523004));
#465 = CARTESIAN_POINT('',(9.62689304901,-196.8034115592));
#466 = CARTESIAN_POINT('',(9.994554010266,-195.3961515727));
#467 = CARTESIAN_POINT('',(10.358985667267,-193.9880412064));
#468 = CARTESIAN_POINT('',(10.719990707835,-192.5790422473));
#469 = CARTESIAN_POINT('',(11.077337918625,-191.1691089956));
#470 = CARTESIAN_POINT('',(11.457275031368,-189.6522501851));
#471 = CARTESIAN_POINT('',(11.483797028506,-189.5462638157));
#472 = CARTESIAN_POINT('',(11.510292351587,-189.4403113022));
#473 = CARTESIAN_POINT('',(11.536746501866,-189.3344416265));
#474 = CARTESIAN_POINT('',(11.563154902795,-189.2286682271));
#475 = CARTESIAN_POINT('',(11.589524860294,-189.122969511));
#476 = CARTESIAN_POINT('',(12.407688993028,-185.8409452705));
#477 = CARTESIAN_POINT('',(13.182031870667,-182.6602616683));
#478 = CARTESIAN_POINT('',(13.938365281394,-179.4752194698));
#479 = CARTESIAN_POINT('',(14.676086488886,-176.2858052586));
#480 = CARTESIAN_POINT('',(15.394512350047,-173.0920067882));
#481 = CARTESIAN_POINT('',(16.092849927407,-169.8938063368));
#482 = CARTESIAN_POINT('',(17.367920558782,-163.864580121));
#483 = CARTESIAN_POINT('',(17.949301195375,-161.0345468544));
#484 = CARTESIAN_POINT('',(18.513640405125,-158.2010394015));
#485 = CARTESIAN_POINT('',(19.060180188573,-155.3640349534));
#486 = CARTESIAN_POINT('',(19.588040302071,-152.5235157872));
#487 = CARTESIAN_POINT('',(20.096157421644,-149.6794579461));
#488 = CARTESIAN_POINT('',(20.583177933146,-146.8318114564));
#489 = ( GEOMETRIC_REPRESENTATION_CONTEXT(2) 
PARAMETRIC_REPRESENTATION_CONTEXT() REPRESENTATION_CONTEXT('2D SPACE',''
  ) );
#490 = PCURVE('',#161,#491);
#491 = DEFINITIONAL_REPRESENTATION('',(#492),#565);
#492 = B_SPLINE_CURVE_WITH_KNOTS('',8,(#493,#494,#495,#496,#497,#498,
    #499,#500,#501,#502,#503,#504,#505,#506,#507,#508,#509,#510,#511,
    #512,#513,#514,#515,#516,#517,#518,#519,#520,#521,#522,#523,#524,
    #525,#526,#527,#528,#529,#530,#531,#532,#533,#534,#535,#536,#537,
    #538,#539,#540,#541,#542,#543,#544,#545,#546,#547,#548,#549,#550,
    #551,#552,#553,#554,#555,#556,#557,#558,#559,#560,#561,#562,#563,
    #564),.UNSPECIFIED.,.F.,.F.,(9,7,7,7,7,7,7,7,7,7,9),(0.,
    3.06643019094E-02,9.007638685887E-02,0.201474046139,0.298946998009,
    0.304277550065,0.306922003623,0.309556127286,0.320051463751,
    0.650654562426,0.981257661101),.UNSPECIFIED.);
#493 = CARTESIAN_POINT('',(1.,0.996446609682));
#494 = CARTESIAN_POINT('',(0.991489302302,0.996445537111));
#495 = CARTESIAN_POINT('',(0.983745777477,0.996444457978));
#496 = CARTESIAN_POINT('',(0.976508525142,0.996443377175));
#497 = CARTESIAN_POINT('',(0.969684733798,0.996442297226));
#498 = CARTESIAN_POINT('',(0.963186664754,0.996441218769));
#499 = CARTESIAN_POINT('',(0.956969265902,0.996440143474));
#500 = CARTESIAN_POINT('',(0.950989428764,0.996439071521));
#501 = CARTESIAN_POINT('',(0.934035058576,0.996435934532));
#502 = CARTESIAN_POINT('',(0.923632728098,0.996433880362));
#503 = CARTESIAN_POINT('',(0.913788858306,0.996431845451));
#504 = CARTESIAN_POINT('',(0.904401418949,0.99642982988));
#505 = CARTESIAN_POINT('',(0.895387038559,0.996427837221));
#506 = CARTESIAN_POINT('',(0.886692942506,0.996425866069));
#507 = CARTESIAN_POINT('',(0.878274332416,0.996423918498));
#508 = CARTESIAN_POINT('',(0.85476599048,0.996418387193));
#509 = CARTESIAN_POINT('',(0.840284087668,0.99641486325));
#510 = CARTESIAN_POINT('',(0.826426928594,0.99641142739));
#511 = CARTESIAN_POINT('',(0.813077637133,0.996408080508));
#512 = CARTESIAN_POINT('',(0.800143898996,0.996404828598));
#513 = CARTESIAN_POINT('',(0.787562179292,0.99640167144));
#514 = CARTESIAN_POINT('',(0.775279407979,0.996398613963));
#515 = CARTESIAN_POINT('',(0.752731351945,0.996393073029));
#516 = CARTESIAN_POINT('',(0.742405721199,0.996390565714));
#517 = CARTESIAN_POINT('',(0.732248725426,0.996388139076));
#518 = CARTESIAN_POINT('',(0.722237681369,0.996385795512));
#519 = CARTESIAN_POINT('',(0.712353646066,0.996383537608));
#520 = CARTESIAN_POINT('',(0.702580189498,0.996381368181));
#521 = CARTESIAN_POINT('',(0.692902677666,0.996379290313));
#522 = CARTESIAN_POINT('',(0.682783360614,0.996377198949));
#523 = CARTESIAN_POINT('',(0.682258902948,0.996377090792));
#524 = CARTESIAN_POINT('',(0.681734691,0.996376982919));
#525 = CARTESIAN_POINT('',(0.681210722657,0.996376875332));
#526 = CARTESIAN_POINT('',(0.680686995806,0.99637676803));
#527 = CARTESIAN_POINT('',(0.680163508335,0.996376661014));
#528 = CARTESIAN_POINT('',(0.67964025813,0.996376554285));
#529 = CARTESIAN_POINT('',(0.678857773912,0.996376395037));
#530 = CARTESIAN_POINT('',(0.678598369844,0.996376342304));
#531 = CARTESIAN_POINT('',(0.678339026509,0.996376289641));
#532 = CARTESIAN_POINT('',(0.678079739545,0.99637623705));
#533 = CARTESIAN_POINT('',(0.677820504589,0.996376184528));
#534 = CARTESIAN_POINT('',(0.677561317277,0.996376132074));
#535 = CARTESIAN_POINT('',(0.677302173247,0.996376079689));
#536 = CARTESIAN_POINT('',(0.676784961735,0.996375975257));
#537 = CARTESIAN_POINT('',(0.676526975422,0.996375923223));
#538 = CARTESIAN_POINT('',(0.67626899311,0.996375871253));
#539 = CARTESIAN_POINT('',(0.67601096993,0.996375819343));
#540 = CARTESIAN_POINT('',(0.67575290701,0.996375767493));
#541 = CARTESIAN_POINT('',(0.675494826246,0.996375715708));
#542 = CARTESIAN_POINT('',(0.675236745084,0.996375663989));
#543 = CARTESIAN_POINT('',(0.673950318615,0.996375406531));
#544 = CARTESIAN_POINT('',(0.672921771202,0.996375201749));
#545 = CARTESIAN_POINT('',(0.671893519534,0.996374998114));
#546 = CARTESIAN_POINT('',(0.670865140072,0.996374795509));
#547 = CARTESIAN_POINT('',(0.669836997205,0.996374594027));
#548 = CARTESIAN_POINT('',(0.668809115483,0.996374393685));
#549 = CARTESIAN_POINT('',(0.667780371841,0.996374194216));
#550 = CARTESIAN_POINT('',(0.634331577671,0.996367743689));
#551 = CARTESIAN_POINT('',(0.601418454288,0.996362457393));
#552 = CARTESIAN_POINT('',(0.567983883812,0.996358158298));
#553 = CARTESIAN_POINT('',(0.533996668195,0.996354869831));
#554 = CARTESIAN_POINT('',(0.499421864199,0.996352617661));
#555 = CARTESIAN_POINT('',(0.464219866069,0.99635143017));
#556 = CARTESIAN_POINT('',(0.428345041599,0.996351339138));
#557 = CARTESIAN_POINT('',(0.355142805013,0.996353422153));
#558 = CARTESIAN_POINT('',(0.317815292367,0.996355596254));
#559 = CARTESIAN_POINT('',(0.279708314734,0.996358938918));
#560 = CARTESIAN_POINT('',(0.240759931749,0.996363490794));
#561 = CARTESIAN_POINT('',(0.200898765823,0.996369297714));
#562 = CARTESIAN_POINT('',(0.160040896158,0.996376412252));
#563 = CARTESIAN_POINT('',(0.118084212559,0.996384896339));
#564 = CARTESIAN_POINT('',(7.490022904381E-02,0.996394824938));
#565 = ( GEOMETRIC_REPRESENTATION_CONTEXT(2) 
PARAMETRIC_REPRESENTATION_CONTEXT() REPRESENTATION_CONTEXT('2D SPACE',''
  ) );
#566 = ORIENTED_EDGE('',*,*,#567,.T.);
#567 = EDGE_CURVE('',#394,#347,#568,.T.);
#568 = SURFACE_CURVE('',#569,(#573,#579),.PCURVE_S1.);
#569 = LINE('',#570,#571);
#570 = CARTESIAN_POINT('',(496.8418438757,148.,-20.));
#571 = VECTOR('',#572,1.);
#572 = DIRECTION('',(0.,0.,-1.));
#573 = PCURVE('',#72,#574);
#574 = DEFINITIONAL_REPRESENTATION('',(#575),#578);
#575 = B_SPLINE_CURVE_WITH_KNOTS('',1,(#576,#577),.UNSPECIFIED.,.F.,.F.,
  (2,2),(-40.38686470097,-26.15591107126),.PIECEWISE_BEZIER_KNOTS.);
#576 = CARTESIAN_POINT('',(20.386864700979,-148.));
#577 = CARTESIAN_POINT('',(6.155911071268,-148.));
#578 = ( GEOMETRIC_REPRESENTATION_CONTEXT(2) 
PARAMETRIC_REPRESENTATION_CONTEXT() REPRESENTATION_CONTEXT('2D SPACE',''
  ) );
#579 = PCURVE('',#254,#580);
#580 = DEFINITIONAL_REPRESENTATION('',(#581),#585);
#581 = LINE('',#582,#583);
#582 = CARTESIAN_POINT('',(20.,1.746841843876E+03));
#583 = VECTOR('',#584,1.);
#584 = DIRECTION('',(-1.,0.));
#585 = ( GEOMETRIC_REPRESENTATION_CONTEXT(2) 
PARAMETRIC_REPRESENTATION_CONTEXT() REPRESENTATION_CONTEXT('2D SPACE',''
  ) );
#586 = ORIENTED_EDGE('',*,*,#346,.F.);
#587 = FACE_BOUND('',#588,.T.);
#588 = EDGE_LOOP('',(#589,#727,#753,#779,#805));
#589 = ORIENTED_EDGE('',*,*,#590,.F.);
#590 = EDGE_CURVE('',#591,#593,#595,.T.);
#591 = VERTEX_POINT('',#592);
#592 = CARTESIAN_POINT('',(496.8418438757,203.31905824251,7.060334521842
    ));
#593 = VERTEX_POINT('',#594);
#594 = CARTESIAN_POINT('',(496.8418438757,148.8,19.42990867568));
#595 = SURFACE_CURVE('',#596,(#629,#665),.PCURVE_S1.);
#596 = B_SPLINE_CURVE_WITH_KNOTS('',7,(#597,#598,#599,#600,#601,#602,
    #603,#604,#605,#606,#607,#608,#609,#610,#611,#612,#613,#614,#615,
    #616,#617,#618,#619,#620,#621,#622,#623,#624,#625,#626,#627,#628),
  .UNSPECIFIED.,.F.,.F.,(8,6,6,6,6,8),(0.,7.037215892444E-02,
    0.248905365945,0.261470518791,0.648489649069,1.),.UNSPECIFIED.);
#597 = CARTESIAN_POINT('',(496.8418438757,203.32002946527,7.060071510658
    ));
#598 = CARTESIAN_POINT('',(496.8418438757,202.76423224269,7.210584041862
    ));
#599 = CARTESIAN_POINT('',(496.8418438757,202.20831952873,7.360698658354
    ));
#600 = CARTESIAN_POINT('',(496.8418438757,201.65228922186,7.510399708842
    ));
#601 = CARTESIAN_POINT('',(496.8418438757,201.09613975056,7.659675578277
    ));
#602 = CARTESIAN_POINT('',(496.8418438757,200.53986960208,7.808515981913
    ));
#603 = CARTESIAN_POINT('',(496.8418438757,199.98347710903,7.956910714839
    ));
#604 = CARTESIAN_POINT('',(496.8418438757,198.01508543445,8.480169442124
    ));
#605 = CARTESIAN_POINT('',(496.8418438757,196.60241277438,8.852556191511
    ));
#606 = CARTESIAN_POINT('',(496.8418438757,195.18891282793,9.221847350558
    ));
#607 = CARTESIAN_POINT('',(496.8418438757,193.77455396934,9.58787679044)
  );
#608 = CARTESIAN_POINT('',(496.8418438757,192.35929731603,9.950443775895
    ));
#609 = CARTESIAN_POINT('',(496.8418438757,190.94309632501,
    10.309312872786));
#610 = CARTESIAN_POINT('',(496.8418438757,189.42614900173,
    10.689168621409));
#611 = CARTESIAN_POINT('',(496.8418438757,189.32639444294,
    10.714126244333));
#612 = CARTESIAN_POINT('',(496.8418438757,189.22668013798,
    10.739058411207));
#613 = CARTESIAN_POINT('',(496.8418438757,189.12703440875,
    10.763954809727));
#614 = CARTESIAN_POINT('',(496.8418438757,189.02746470174,
    10.788812488856));
#615 = CARTESIAN_POINT('',(496.8418438757,188.92795801262,
    10.813637477571));
#616 = CARTESIAN_POINT('',(496.8418438757,185.76442277274,
    11.602288280168));
#617 = CARTESIAN_POINT('',(496.8418438757,182.69632157604,
    12.349858898428));
#618 = CARTESIAN_POINT('',(496.8418438757,179.62416025156,
    13.080668363071));
#619 = CARTESIAN_POINT('',(496.8418438757,176.54792676055,13.79417599351
    ));
#620 = CARTESIAN_POINT('',(496.8418438757,173.46760983027,
    14.489771345662));
#621 = CARTESIAN_POINT('',(496.8418438757,170.3831934611,15.166750007167
    ));
#622 = CARTESIAN_POINT('',(496.8418438757,164.48947508702,
    16.421472093433));
#623 = CARTESIAN_POINT('',(496.8418438757,161.68090679504,
    17.002618792626));
#624 = CARTESIAN_POINT('',(496.8418438757,158.86891424877,
    17.567090672055));
#625 = CARTESIAN_POINT('',(496.8418438757,156.05347563357,
    18.114162283395));
#626 = CARTESIAN_POINT('',(496.8418438757,153.23457357493,
    18.642992939305));
#627 = CARTESIAN_POINT('',(496.8418438757,150.41218467878,
    19.152571035081));
#628 = CARTESIAN_POINT('',(496.8418438757,147.58626139218,
    19.641616716885));
#629 = PCURVE('',#72,#630);
#630 = DEFINITIONAL_REPRESENTATION('',(#631),#664);
#631 = B_SPLINE_CURVE_WITH_KNOTS('',7,(#632,#633,#634,#635,#636,#637,
    #638,#639,#640,#641,#642,#643,#644,#645,#646,#647,#648,#649,#650,
    #651,#652,#653,#654,#655,#656,#657,#658,#659,#660,#661,#662,#663),
  .UNSPECIFIED.,.F.,.F.,(8,6,6,6,6,8),(0.,7.037215892444E-02,
    0.248905365945,0.261470518791,0.648489649069,1.),.UNSPECIFIED.);
#632 = CARTESIAN_POINT('',(7.060071510658,-203.3200294652));
#633 = CARTESIAN_POINT('',(7.210584041862,-202.7642322426));
#634 = CARTESIAN_POINT('',(7.360698658354,-202.2083195287));
#635 = CARTESIAN_POINT('',(7.510399708842,-201.6522892218));
#636 = CARTESIAN_POINT('',(7.659675578277,-201.0961397505));
#637 = CARTESIAN_POINT('',(7.808515981913,-200.539869602));
#638 = CARTESIAN_POINT('',(7.956910714839,-199.983477109));
#639 = CARTESIAN_POINT('',(8.480169442124,-198.0150854344));
#640 = CARTESIAN_POINT('',(8.852556191511,-196.6024127743));
#641 = CARTESIAN_POINT('',(9.221847350558,-195.1889128279));
#642 = CARTESIAN_POINT('',(9.58787679044,-193.7745539693));
#643 = CARTESIAN_POINT('',(9.950443775895,-192.359297316));
#644 = CARTESIAN_POINT('',(10.309312872786,-190.943096325));
#645 = CARTESIAN_POINT('',(10.689168621409,-189.4261490017));
#646 = CARTESIAN_POINT('',(10.714126244333,-189.3263944429));
#647 = CARTESIAN_POINT('',(10.739058411207,-189.2266801379));
#648 = CARTESIAN_POINT('',(10.763954809727,-189.1270344087));
#649 = CARTESIAN_POINT('',(10.788812488856,-189.0274647017));
#650 = CARTESIAN_POINT('',(10.813637477571,-188.9279580126));
#651 = CARTESIAN_POINT('',(11.602288280168,-185.7644227727));
#652 = CARTESIAN_POINT('',(12.349858898428,-182.696321576));
#653 = CARTESIAN_POINT('',(13.080668363071,-179.6241602515));
#654 = CARTESIAN_POINT('',(13.79417599351,-176.5479267605));
#655 = CARTESIAN_POINT('',(14.489771345662,-173.4676098302));
#656 = CARTESIAN_POINT('',(15.166750007167,-170.3831934611));
#657 = CARTESIAN_POINT('',(16.421472093433,-164.489475087));
#658 = CARTESIAN_POINT('',(17.002618792626,-161.680906795));
#659 = CARTESIAN_POINT('',(17.567090672055,-158.8689142487));
#660 = CARTESIAN_POINT('',(18.114162283395,-156.0534756335));
#661 = CARTESIAN_POINT('',(18.642992939305,-153.2345735749));
#662 = CARTESIAN_POINT('',(19.152571035081,-150.4121846787));
#663 = CARTESIAN_POINT('',(19.641616716885,-147.5862613921));
#664 = ( GEOMETRIC_REPRESENTATION_CONTEXT(2) 
PARAMETRIC_REPRESENTATION_CONTEXT() REPRESENTATION_CONTEXT('2D SPACE',''
  ) );
#665 = PCURVE('',#666,#692);
#666 = OFFSET_SURFACE('',#667,-0.8,.F.);
#667 = B_SPLINE_SURFACE_WITH_KNOTS('',3,3,(
    (#668,#669,#670,#671)
    ,(#672,#673,#674,#675)
    ,(#676,#677,#678,#679)
    ,(#680,#681,#682,#683)
    ,(#684,#685,#686,#687)
    ,(#688,#689,#690,#691
    )),.UNSPECIFIED.,.F.,.F.,.F.,(4,2,4),(4,4),(4.034381095125E-02,
    0.676536383594,1.),(0.,1.),.UNSPECIFIED.);
#668 = CARTESIAN_POINT('',(769.9680318431,147.07314889002,
    19.159673311961));
#669 = CARTESIAN_POINT('',(678.59731710116,146.70043622546,
    19.685529548238));
#670 = CARTESIAN_POINT('',(587.22660235921,146.3277235609,
    20.211385784515));
#671 = CARTESIAN_POINT('',(495.85588761727,145.95501089634,
    20.737242020792));
#672 = CARTESIAN_POINT('',(769.94926748953,160.41605174392,
    16.834280070779));
#673 = CARTESIAN_POINT('',(678.57999923676,159.72907372223,
    17.436796802142));
#674 = CARTESIAN_POINT('',(587.21073098399,159.04209570054,
    18.039313533505));
#675 = CARTESIAN_POINT('',(495.84146273122,158.35511767885,
    18.641830264869));
#676 = CARTESIAN_POINT('',(769.94978178923,172.89341547813,
    13.873285531398));
#677 = CARTESIAN_POINT('',(678.57876246215,172.93048530106,
    14.459058719932));
#678 = CARTESIAN_POINT('',(587.20774313508,172.967555124,15.044831908466
    ));
#679 = CARTESIAN_POINT('',(495.836723808,173.00462494693,15.630605097001
    ));
#680 = CARTESIAN_POINT('',(769.95671358877,186.8771496889,
    10.278082349495));
#681 = CARTESIAN_POINT('',(678.58928653884,190.63974490069,9.96317843543
    ));
#682 = CARTESIAN_POINT('',(587.22185948891,194.40234011247,
    9.648274521367));
#683 = CARTESIAN_POINT('',(495.85443243898,198.16493532426,
    9.333370607302));
#684 = CARTESIAN_POINT('',(769.96010501918,190.76149647099,
    9.215589555598));
#685 = CARTESIAN_POINT('',(678.59478652933,195.70691570332,
    8.569636389789));
#686 = CARTESIAN_POINT('',(587.22946803948,200.65233493564,
    7.923683223981));
#687 = CARTESIAN_POINT('',(495.86414954963,205.59775416797,
    7.277730058172));
#688 = CARTESIAN_POINT('',(769.9625539397,193.50905339039,8.461866897529
    ));
#689 = CARTESIAN_POINT('',(678.59766212972,198.52826980001,7.79566678655
    ));
#690 = CARTESIAN_POINT('',(587.23277031973,203.54748620963,
    7.129466675571));
#691 = CARTESIAN_POINT('',(495.86787850975,208.56670261925,
    6.463266564592));
#692 = DEFINITIONAL_REPRESENTATION('',(#693),#726);
#693 = B_SPLINE_CURVE_WITH_KNOTS('',7,(#694,#695,#696,#697,#698,#699,
    #700,#701,#702,#703,#704,#705,#706,#707,#708,#709,#710,#711,#712,
    #713,#714,#715,#716,#717,#718,#719,#720,#721,#722,#723,#724,#725),
  .UNSPECIFIED.,.F.,.F.,(8,6,6,6,6,8),(0.,7.037215892444E-02,
    0.248905365945,0.261470518791,0.648489649069,1.),.UNSPECIFIED.);
#694 = CARTESIAN_POINT('',(0.879708480958,0.996402815101));
#695 = CARTESIAN_POINT('',(0.869383063724,0.996400520308));
#696 = CARTESIAN_POINT('',(0.859476881686,0.996398262727));
#697 = CARTESIAN_POINT('',(0.849908772699,0.996396042931));
#698 = CARTESIAN_POINT('',(0.840626357509,0.996393861583));
#699 = CARTESIAN_POINT('',(0.831591116,0.996391719392));
#700 = CARTESIAN_POINT('',(0.822771175781,0.996389617093));
#701 = CARTESIAN_POINT('',(0.79224923773,0.996382325213));
#702 = CARTESIAN_POINT('',(0.771582410159,0.996377356834));
#703 = CARTESIAN_POINT('',(0.751733614547,0.996372663311));
#704 = CARTESIAN_POINT('',(0.732520702755,0.996368259646));
#705 = CARTESIAN_POINT('',(0.713786021295,0.996364163665));
#706 = CARTESIAN_POINT('',(0.695424318696,0.996360396714));
#707 = CARTESIAN_POINT('',(0.676069605629,0.996356745168));
#708 = CARTESIAN_POINT('',(0.674799086696,0.996356504859));
#709 = CARTESIAN_POINT('',(0.673526144596,0.996356265514));
#710 = CARTESIAN_POINT('',(0.672253538911,0.996356028646));
#711 = CARTESIAN_POINT('',(0.670982307066,0.996355793962));
#712 = CARTESIAN_POINT('',(0.669710278679,0.996355560074));
#713 = CARTESIAN_POINT('',(0.62925395367,0.996348180857));
#714 = CARTESIAN_POINT('',(0.589333414142,0.996342444993));
#715 = CARTESIAN_POINT('',(0.548623568072,0.996338165614));
#716 = CARTESIAN_POINT('',(0.507063230203,0.99633539192));
#717 = CARTESIAN_POINT('',(0.464581384836,0.996334177746));
#718 = CARTESIAN_POINT('',(0.421092970574,0.996334583041));
#719 = CARTESIAN_POINT('',(0.335983171195,0.99633857734));
#720 = CARTESIAN_POINT('',(0.294556648072,0.996341870847));
#721 = CARTESIAN_POINT('',(0.252133208632,0.996346607897));
#722 = CARTESIAN_POINT('',(0.208618277494,0.996352845838));
#723 = CARTESIAN_POINT('',(0.163899611275,0.996360648995));
#724 = CARTESIAN_POINT('',(0.117836920871,0.996370091969));
#725 = CARTESIAN_POINT('',(7.024344569895E-02,0.996381265437));
#726 = ( GEOMETRIC_REPRESENTATION_CONTEXT(2) 
PARAMETRIC_REPRESENTATION_CONTEXT() REPRESENTATION_CONTEXT('2D SPACE',''
  ) );
#727 = ORIENTED_EDGE('',*,*,#728,.T.);
#728 = EDGE_CURVE('',#591,#729,#731,.T.);
#729 = VERTEX_POINT('',#730);
#730 = CARTESIAN_POINT('',(496.8418438757,179.43116619963,7.017382168652
    ));
#731 = SURFACE_CURVE('',#732,(#736,#742),.PCURVE_S1.);
#732 = LINE('',#733,#734);
#733 = CARTESIAN_POINT('',(496.8418438757,94.123718564661,6.863893991394
    ));
#734 = VECTOR('',#735,1.);
#735 = DIRECTION('',(0.,-0.999998381834,-1.798979820521E-03));
#736 = PCURVE('',#72,#737);
#737 = DEFINITIONAL_REPRESENTATION('',(#738),#741);
#738 = B_SPLINE_CURVE_WITH_KNOTS('',1,(#739,#740),.UNSPECIFIED.,.F.,.F.,
  (2,2),(-109.2111124116,-84.35133323726),.PIECEWISE_BEZIER_KNOTS.);
#739 = CARTESIAN_POINT('',(7.0603625788,-203.3346542546));
#740 = CARTESIAN_POINT('',(7.015640337722,-178.4749153075));
#741 = ( GEOMETRIC_REPRESENTATION_CONTEXT(2) 
PARAMETRIC_REPRESENTATION_CONTEXT() REPRESENTATION_CONTEXT('2D SPACE',''
  ) );
#742 = PCURVE('',#743,#748);
#743 = PLANE('',#744);
#744 = AXIS2_PLACEMENT_3D('',#745,#746,#747);
#745 = CARTESIAN_POINT('',(632.98023867346,188.25762972451,
    8.062033103751));
#746 = DIRECTION('',(7.556742488534E-03,1.798928454995E-03,
    -0.999969829295));
#747 = DIRECTION('',(-0.999121114921,-4.121729071696E-02,
    -7.624477973305E-03));
#748 = DEFINITIONAL_REPRESENTATION('',(#749),#752);
#749 = B_SPLINE_CURVE_WITH_KNOTS('',1,(#750,#751),.UNSPECIFIED.,.F.,.F.,
  (2,2),(-109.2111124116,-84.35133323726),.PIECEWISE_BEZIER_KNOTS.);
#750 = CARTESIAN_POINT('',(135.40494790557,20.67565315345));
#751 = CARTESIAN_POINT('',(136.42993997665,-4.162986339387));
#752 = ( GEOMETRIC_REPRESENTATION_CONTEXT(2) 
PARAMETRIC_REPRESENTATION_CONTEXT() REPRESENTATION_CONTEXT('2D SPACE',''
  ) );
#753 = ORIENTED_EDGE('',*,*,#754,.T.);
#754 = EDGE_CURVE('',#729,#755,#757,.T.);
#755 = VERTEX_POINT('',#756);
#756 = CARTESIAN_POINT('',(496.8418438757,171.66212887211,7.003429337481
    ));
#757 = SURFACE_CURVE('',#758,(#762,#768),.PCURVE_S1.);
#758 = LINE('',#759,#760);
#759 = CARTESIAN_POINT('',(496.8418438757,80.53658228869,6.839772076845)
  );
#760 = VECTOR('',#761,1.);
#761 = DIRECTION('',(0.,-0.999998387279,-1.795950782618E-03));
#762 = PCURVE('',#72,#763);
#763 = DEFINITIONAL_REPRESENTATION('',(#764),#767);
#764 = B_SPLINE_CURVE_WITH_KNOTS('',1,(#765,#766),.UNSPECIFIED.,.F.,.F.,
  (2,2),(-98.89751773562,-71.080480713),.PIECEWISE_BEZIER_KNOTS.);
#765 = CARTESIAN_POINT('',(7.017387151221,-179.4339405302));
#766 = CARTESIAN_POINT('',(6.96742912181,-151.6169483687));
#767 = ( GEOMETRIC_REPRESENTATION_CONTEXT(2) 
PARAMETRIC_REPRESENTATION_CONTEXT() REPRESENTATION_CONTEXT('2D SPACE',''
  ) );
#768 = PCURVE('',#769,#774);
#769 = PLANE('',#770);
#770 = AXIS2_PLACEMENT_3D('',#771,#772,#773);
#771 = CARTESIAN_POINT('',(633.12267022573,161.08333915276,
    8.014266980921));
#772 = DIRECTION('',(7.556496566384E-03,1.795899506916E-03,
    -0.999969836597));
#773 = DIRECTION('',(-0.999121117743,-4.121729085997E-02,
    -7.624107376982E-03));
#774 = DEFINITIONAL_REPRESENTATION('',(#775),#778);
#775 = B_SPLINE_CURVE_WITH_KNOTS('',1,(#776,#777),.UNSPECIFIED.,.F.,.F.,
  (2,2),(-98.89751773562,-71.080480713),.PIECEWISE_BEZIER_KNOTS.);
#776 = CARTESIAN_POINT('',(135.41228979426,23.952322301355));
#777 = CARTESIAN_POINT('',(136.55921173641,-3.84106034229));
#778 = ( GEOMETRIC_REPRESENTATION_CONTEXT(2) 
PARAMETRIC_REPRESENTATION_CONTEXT() REPRESENTATION_CONTEXT('2D SPACE',''
  ) );
#779 = ORIENTED_EDGE('',*,*,#780,.F.);
#780 = EDGE_CURVE('',#781,#755,#783,.T.);
#781 = VERTEX_POINT('',#782);
#782 = CARTESIAN_POINT('',(496.8418438757,148.8,12.024800461922));
#783 = SURFACE_CURVE('',#784,(#788,#794),.PCURVE_S1.);
#784 = LINE('',#785,#786);
#785 = CARTESIAN_POINT('',(496.8418438757,89.223010754771,
    25.110116144447));
#786 = VECTOR('',#787,1.);
#787 = DIRECTION('',(0.,0.976718792524,-0.214523659138));
#788 = PCURVE('',#72,#789);
#789 = DEFINITIONAL_REPRESENTATION('',(#790),#793);
#790 = B_SPLINE_CURVE_WITH_KNOTS('',1,(#791,#792),.UNSPECIFIED.,.F.,.F.,
  (2,2),(60.991793546049,84.494887571871),.PIECEWISE_BEZIER_KNOTS.);
#791 = CARTESIAN_POINT('',(12.025933415558,-148.7948417009));
#792 = CARTESIAN_POINT('',(6.983963684073,-171.7507553184));
#793 = ( GEOMETRIC_REPRESENTATION_CONTEXT(2) 
PARAMETRIC_REPRESENTATION_CONTEXT() REPRESENTATION_CONTEXT('2D SPACE',''
  ) );
#794 = PCURVE('',#795,#800);
#795 = PLANE('',#796);
#796 = AXIS2_PLACEMENT_3D('',#797,#798,#799);
#797 = CARTESIAN_POINT('',(496.76209269335,169.80626064241,
    10.883700198439));
#798 = DIRECTION('',(0.999723686394,5.042679038701E-03,
    2.295914306869E-02));
#799 = DIRECTION('',(2.295428780228E-02,1.01861704491E-03,
    -0.999735996697));
#800 = DEFINITIONAL_REPRESENTATION('',(#801),#804);
#801 = B_SPLINE_CURVE_WITH_KNOTS('',1,(#802,#803),.UNSPECIFIED.,.F.,.F.,
  (2,2),(60.991793546049,84.494887571871),.PIECEWISE_BEZIER_KNOTS.);
#802 = CARTESIAN_POINT('',(-1.161503621655,-21.01051385005));
#803 = CARTESIAN_POINT('',(3.902518298056,1.940545183967));
#804 = ( GEOMETRIC_REPRESENTATION_CONTEXT(2) 
PARAMETRIC_REPRESENTATION_CONTEXT() REPRESENTATION_CONTEXT('2D SPACE',''
  ) );
#805 = ORIENTED_EDGE('',*,*,#806,.F.);
#806 = EDGE_CURVE('',#593,#781,#807,.T.);
#807 = SURFACE_CURVE('',#808,(#812,#818),.PCURVE_S1.);
#808 = LINE('',#809,#810);
#809 = CARTESIAN_POINT('',(496.8418438757,148.8,-20.));
#810 = VECTOR('',#811,1.);
#811 = DIRECTION('',(0.,0.,-1.));
#812 = PCURVE('',#72,#813);
#813 = DEFINITIONAL_REPRESENTATION('',(#814),#817);
#814 = B_SPLINE_CURVE_WITH_KNOTS('',1,(#815,#816),.UNSPECIFIED.,.F.,.F.,
  (2,2),(-39.43077779104,-26.96324841436),.PIECEWISE_BEZIER_KNOTS.);
#815 = CARTESIAN_POINT('',(19.430777791041,-148.8));
#816 = CARTESIAN_POINT('',(6.963248414362,-148.8));
#817 = ( GEOMETRIC_REPRESENTATION_CONTEXT(2) 
PARAMETRIC_REPRESENTATION_CONTEXT() REPRESENTATION_CONTEXT('2D SPACE',''
  ) );
#818 = PCURVE('',#819,#824);
#819 = PLANE('',#820);
#820 = AXIS2_PLACEMENT_3D('',#821,#822,#823);
#821 = CARTESIAN_POINT('',(-1.25E+03,148.8,-40.));
#822 = DIRECTION('',(0.,1.,0.));
#823 = DIRECTION('',(0.,-0.,1.));
#824 = DEFINITIONAL_REPRESENTATION('',(#825),#828);
#825 = B_SPLINE_CURVE_WITH_KNOTS('',1,(#826,#827),.UNSPECIFIED.,.F.,.F.,
  (2,2),(-39.43077779104,-26.96324841436),.PIECEWISE_BEZIER_KNOTS.);
#826 = CARTESIAN_POINT('',(59.430777791041,1.746841843876E+03));
#827 = CARTESIAN_POINT('',(46.963248414362,1.746841843876E+03));
#828 = ( GEOMETRIC_REPRESENTATION_CONTEXT(2) 
PARAMETRIC_REPRESENTATION_CONTEXT() REPRESENTATION_CONTEXT('2D SPACE',''
  ) );
#829 = ADVANCED_FACE('',(#830),#161,.T.);
#830 = FACE_BOUND('',#831,.T.);
#831 = EDGE_LOOP('',(#832,#868,#869,#870,#871));
#832 = ORIENTED_EDGE('',*,*,#833,.F.);
#833 = EDGE_CURVE('',#394,#240,#834,.T.);
#834 = SURFACE_CURVE('',#835,(#844,#856),.PCURVE_S1.);
#835 = B_SPLINE_CURVE_WITH_KNOTS('',4,(#836,#837,#838,#839,#840,#841,
    #842,#843),.UNSPECIFIED.,.F.,.F.,(5,3,5),(0.,0.500000240904,1.),
  .UNSPECIFIED.);
#836 = CARTESIAN_POINT('',(769.96675730556,148.,18.996883461038));
#837 = CARTESIAN_POINT('',(735.70259503448,148.,19.169944047551));
#838 = CARTESIAN_POINT('',(701.4384337434,148.,19.34319796807));
#839 = CARTESIAN_POINT('',(667.17427356519,148.,19.516671228449));
#840 = CARTESIAN_POINT('',(598.64598873807,148.,19.864111691523));
#841 = CARTESIAN_POINT('',(564.38186408881,148.,20.038078823523));
#842 = CARTESIAN_POINT('',(530.11774083836,148.,20.21232070714));
#843 = CARTESIAN_POINT('',(495.85361912978,148.,20.386864700979));
#844 = PCURVE('',#161,#845);
#845 = DEFINITIONAL_REPRESENTATION('',(#846),#855);
#846 = B_SPLINE_CURVE_WITH_KNOTS('',4,(#847,#848,#849,#850,#851,#852,
    #853,#854),.UNSPECIFIED.,.F.,.F.,(5,3,5),(0.,0.500000240904,1.),
  .UNSPECIFIED.);
#847 = CARTESIAN_POINT('',(5.509729140967E-02,0.));
#848 = CARTESIAN_POINT('',(5.744622838842E-02,0.124999934514));
#849 = CARTESIAN_POINT('',(5.98436885899E-02,0.249999910674));
#850 = CARTESIAN_POINT('',(6.228791941449E-02,0.374999928942));
#851 = CARTESIAN_POINT('',(6.72636992354E-02,0.624999929105));
#852 = CARTESIAN_POINT('',(6.979524745075E-02,0.749999910997));
#853 = CARTESIAN_POINT('',(7.236732985378E-02,0.874999934854));
#854 = CARTESIAN_POINT('',(7.497543928832E-02,1.));
#855 = ( GEOMETRIC_REPRESENTATION_CONTEXT(2) 
PARAMETRIC_REPRESENTATION_CONTEXT() REPRESENTATION_CONTEXT('2D SPACE',''
  ) );
#856 = PCURVE('',#254,#857);
#857 = DEFINITIONAL_REPRESENTATION('',(#858),#867);
#858 = B_SPLINE_CURVE_WITH_KNOTS('',4,(#859,#860,#861,#862,#863,#864,
    #865,#866),.UNSPECIFIED.,.F.,.F.,(5,3,5),(0.,0.500000240904,1.),
  .UNSPECIFIED.);
#859 = CARTESIAN_POINT('',(58.996883461038,2.019966757306E+03));
#860 = CARTESIAN_POINT('',(59.169944047551,1.985702595034E+03));
#861 = CARTESIAN_POINT('',(59.34319796807,1.951438433743E+03));
#862 = CARTESIAN_POINT('',(59.516671228449,1.917174273565E+03));
#863 = CARTESIAN_POINT('',(59.864111691523,1.848645988738E+03));
#864 = CARTESIAN_POINT('',(60.038078823523,1.814381864089E+03));
#865 = CARTESIAN_POINT('',(60.21232070714,1.780117740838E+03));
#866 = CARTESIAN_POINT('',(60.386864700979,1.74585361913E+03));
#867 = ( GEOMETRIC_REPRESENTATION_CONTEXT(2) 
PARAMETRIC_REPRESENTATION_CONTEXT() REPRESENTATION_CONTEXT('2D SPACE',''
  ) );
#868 = ORIENTED_EDGE('',*,*,#393,.F.);
#869 = ORIENTED_EDGE('',*,*,#143,.T.);
#870 = ORIENTED_EDGE('',*,*,#288,.F.);
#871 = ORIENTED_EDGE('',*,*,#316,.F.);
#872 = ADVANCED_FACE('',(#873),#254,.F.);
#873 = FACE_BOUND('',#874,.F.);
#874 = EDGE_LOOP('',(#875,#876,#877,#878));
#875 = ORIENTED_EDGE('',*,*,#833,.F.);
#876 = ORIENTED_EDGE('',*,*,#567,.T.);
#877 = ORIENTED_EDGE('',*,*,#368,.F.);
#878 = ORIENTED_EDGE('',*,*,#237,.T.);
#879 = ADVANCED_FACE('',(#880),#666,.T.);
#880 = FACE_BOUND('',#881,.T.);
#881 = EDGE_LOOP('',(#882,#999,#1055,#1056));
#882 = ORIENTED_EDGE('',*,*,#883,.F.);
#883 = EDGE_CURVE('',#884,#886,#888,.T.);
#884 = VERTEX_POINT('',#885);
#885 = CARTESIAN_POINT('',(500.8418438757,203.09660285472,7.090162210392
    ));
#886 = VERTEX_POINT('',#887);
#887 = CARTESIAN_POINT('',(500.8418438757,148.8,19.409470624323));
#888 = SURFACE_CURVE('',#889,(#922,#958),.PCURVE_S1.);
#889 = B_SPLINE_CURVE_WITH_KNOTS('',7,(#890,#891,#892,#893,#894,#895,
    #896,#897,#898,#899,#900,#901,#902,#903,#904,#905,#906,#907,#908,
    #909,#910,#911,#912,#913,#914,#915,#916,#917,#918,#919,#920,#921),
  .UNSPECIFIED.,.F.,.F.,(8,6,6,6,6,8),(0.,7.072368433112E-02,
    0.250064908595,0.262687032099,0.652019511583,1.),.UNSPECIFIED.);
#890 = CARTESIAN_POINT('',(500.8418438757,203.1207389548,7.083626427371)
  );
#891 = CARTESIAN_POINT('',(500.8418438757,202.56830092075,7.233228368393
    ));
#892 = CARTESIAN_POINT('',(500.8418438757,202.01574833031,7.382435858499
    ));
#893 = CARTESIAN_POINT('',(500.8418438757,201.46307908529,7.531233298156
    ));
#894 = CARTESIAN_POINT('',(500.8418438757,200.91029161594,7.679609102721
    ));
#895 = CARTESIAN_POINT('',(500.8418438757,200.35738441446,7.827553024518
    ));
#896 = CARTESIAN_POINT('',(500.8418438757,199.80435582318,7.975054912357
    ));
#897 = CARTESIAN_POINT('',(500.8418438757,197.84852105549,8.494994508021
    ));
#898 = CARTESIAN_POINT('',(500.8418438757,196.44504738169,8.864977803795
    ));
#899 = CARTESIAN_POINT('',(500.8418438757,195.04075363914,9.231893300217
    ));
#900 = CARTESIAN_POINT('',(500.8418438757,193.63560859006,9.59557669739)
  );
#901 = CARTESIAN_POINT('',(500.8418438757,192.2295738764,9.955829785495)
  );
#902 = CARTESIAN_POINT('',(500.8418438757,190.8226036371,10.312420410461
    ));
#903 = CARTESIAN_POINT('',(500.8418438757,189.31554637141,
    10.689880248963));
#904 = CARTESIAN_POINT('',(500.8418438757,189.21644194388,
    10.714680624029));
#905 = CARTESIAN_POINT('',(500.8418438757,189.11737630216,
    10.739456060157));
#906 = CARTESIAN_POINT('',(500.8418438757,189.01837660075,10.76419655515
    ));
#907 = CARTESIAN_POINT('',(500.8418438757,188.91944998195,
    10.788899250452));
#908 = CARTESIAN_POINT('',(500.8418438757,188.82058399323,
    10.813570020745));
#909 = CARTESIAN_POINT('',(500.8418438757,185.67301869177,
    11.598420496382));
#910 = CARTESIAN_POINT('',(500.8418438757,182.62027455964,
    12.342456889411));
#911 = CARTESIAN_POINT('',(500.8418438757,179.56349912559,
    13.069856339689));
#912 = CARTESIAN_POINT('',(500.8418438757,176.50268189464,
    13.780089761139));
#913 = CARTESIAN_POINT('',(500.8418438757,173.43781266955,
    14.472557811595));
#914 = CARTESIAN_POINT('',(500.8418438757,170.36887597722,
    15.146566363264));
#915 = CARTESIAN_POINT('',(500.8418438757,164.54920311296,
    16.386468552444));
#916 = CARTESIAN_POINT('',(500.8418438757,161.79930107064,
    16.956239275045));
#917 = CARTESIAN_POINT('',(500.8418438757,159.04610872291,
    17.510010696766));
#918 = CARTESIAN_POINT('',(500.8418438757,156.28960491582,
    18.047098745909));
#919 = CARTESIAN_POINT('',(500.8418438757,153.52977193782,
    18.566710136412));
#920 = CARTESIAN_POINT('',(500.8418438757,150.76658586642,
    19.067891230902));
#921 = CARTESIAN_POINT('',(500.8418438757,148.,19.549439621692));
#922 = PCURVE('',#666,#923);
#923 = DEFINITIONAL_REPRESENTATION('',(#924),#957);
#924 = B_SPLINE_CURVE_WITH_KNOTS('',7,(#925,#926,#927,#928,#929,#930,
    #931,#932,#933,#934,#935,#936,#937,#938,#939,#940,#941,#942,#943,
    #944,#945,#946,#947,#948,#949,#950,#951,#952,#953,#954,#955,#956),
  .UNSPECIFIED.,.F.,.F.,(8,6,6,6,6,8),(0.,7.072368433112E-02,
    0.250064908595,0.262687032099,0.652019511583,1.),.UNSPECIFIED.);
#925 = CARTESIAN_POINT('',(0.879690438453,0.981809479848));
#926 = CARTESIAN_POINT('',(0.869369257638,0.981807205902));
#927 = CARTESIAN_POINT('',(0.859465118514,0.98180496875));
#928 = CARTESIAN_POINT('',(0.84989764286,0.981802768991));
#929 = CARTESIAN_POINT('',(0.840614842121,0.981800607305));
#930 = CARTESIAN_POINT('',(0.831578440464,0.981798484405));
#931 = CARTESIAN_POINT('',(0.822756769127,0.981796401035));
#932 = CARTESIAN_POINT('',(0.792237367421,0.981789177249));
#933 = CARTESIAN_POINT('',(0.771571272318,0.981784255832));
#934 = CARTESIAN_POINT('',(0.75172198522,0.981779606725));
#935 = CARTESIAN_POINT('',(0.732507952447,0.981775244834));
#936 = CARTESIAN_POINT('',(0.713772322608,0.981771187823));
#937 = CARTESIAN_POINT('',(0.695410211228,0.981767456801));
#938 = CARTESIAN_POINT('',(0.67605610393,0.98176384009));
#939 = CARTESIAN_POINT('',(0.674785607409,0.981763601996));
#940 = CARTESIAN_POINT('',(0.67351269477,0.981763364977));
#941 = CARTESIAN_POINT('',(0.672240124469,0.981763130373));
#942 = CARTESIAN_POINT('',(0.670968922177,0.981762897861));
#943 = CARTESIAN_POINT('',(0.669696911605,0.981762666202));
#944 = CARTESIAN_POINT('',(0.629185358164,0.981755346537));
#945 = CARTESIAN_POINT('',(0.589229271498,0.981749660484));
#946 = CARTESIAN_POINT('',(0.548505217712,0.981745422389));
#947 = CARTESIAN_POINT('',(0.506953961296,0.98174268046));
#948 = CARTESIAN_POINT('',(0.464506814795,0.981741487544));
#949 = CARTESIAN_POINT('',(0.421081635659,0.981741902663));
#950 = CARTESIAN_POINT('',(0.336798049615,0.981745862222));
#951 = CARTESIAN_POINT('',(0.296156983385,0.981749069621));
#952 = CARTESIAN_POINT('',(0.254580351916,0.981753663901));
#953 = CARTESIAN_POINT('',(0.211981762222,0.981759699201));
#954 = CARTESIAN_POINT('',(0.168259013529,0.981767236375));
#955 = CARTESIAN_POINT('',(0.123285260489,0.981776346167));
#956 = CARTESIAN_POINT('',(7.689353579003E-02,0.981787114764));
#957 = ( GEOMETRIC_REPRESENTATION_CONTEXT(2) 
PARAMETRIC_REPRESENTATION_CONTEXT() REPRESENTATION_CONTEXT('2D SPACE',''
  ) );
#958 = PCURVE('',#959,#964);
#959 = PLANE('',#960);
#960 = AXIS2_PLACEMENT_3D('',#961,#962,#963);
#961 = CARTESIAN_POINT('',(500.8418438757,0.,0.));
#962 = DIRECTION('',(1.,0.,0.));
#963 = DIRECTION('',(-0.,0.,1.));
#964 = DEFINITIONAL_REPRESENTATION('',(#965),#998);
#965 = B_SPLINE_CURVE_WITH_KNOTS('',7,(#966,#967,#968,#969,#970,#971,
    #972,#973,#974,#975,#976,#977,#978,#979,#980,#981,#982,#983,#984,
    #985,#986,#987,#988,#989,#990,#991,#992,#993,#994,#995,#996,#997),
  .UNSPECIFIED.,.F.,.F.,(8,6,6,6,6,8),(0.,7.072368433112E-02,
    0.250064908595,0.262687032099,0.652019511583,1.),.UNSPECIFIED.);
#966 = CARTESIAN_POINT('',(7.083626427371,-203.1207389548));
#967 = CARTESIAN_POINT('',(7.233228368393,-202.5683009207));
#968 = CARTESIAN_POINT('',(7.382435858499,-202.0157483303));
#969 = CARTESIAN_POINT('',(7.531233298156,-201.4630790852));
#970 = CARTESIAN_POINT('',(7.679609102721,-200.9102916159));
#971 = CARTESIAN_POINT('',(7.827553024518,-200.3573844144));
#972 = CARTESIAN_POINT('',(7.975054912357,-199.8043558231));
#973 = CARTESIAN_POINT('',(8.494994508021,-197.8485210554));
#974 = CARTESIAN_POINT('',(8.864977803795,-196.4450473816));
#975 = CARTESIAN_POINT('',(9.231893300217,-195.0407536391));
#976 = CARTESIAN_POINT('',(9.59557669739,-193.63560859));
#977 = CARTESIAN_POINT('',(9.955829785495,-192.2295738764));
#978 = CARTESIAN_POINT('',(10.312420410461,-190.8226036371));
#979 = CARTESIAN_POINT('',(10.689880248963,-189.3155463714));
#980 = CARTESIAN_POINT('',(10.714680624029,-189.2164419438));
#981 = CARTESIAN_POINT('',(10.739456060157,-189.1173763021));
#982 = CARTESIAN_POINT('',(10.76419655515,-189.0183766007));
#983 = CARTESIAN_POINT('',(10.788899250452,-188.9194499819));
#984 = CARTESIAN_POINT('',(10.813570020745,-188.8205839932));
#985 = CARTESIAN_POINT('',(11.598420496382,-185.6730186917));
#986 = CARTESIAN_POINT('',(12.342456889411,-182.6202745596));
#987 = CARTESIAN_POINT('',(13.069856339689,-179.5634991255));
#988 = CARTESIAN_POINT('',(13.780089761139,-176.5026818946));
#989 = CARTESIAN_POINT('',(14.472557811595,-173.4378126695));
#990 = CARTESIAN_POINT('',(15.146566363264,-170.3688759772));
#991 = CARTESIAN_POINT('',(16.386468552444,-164.5492031129));
#992 = CARTESIAN_POINT('',(16.956239275045,-161.7993010706));
#993 = CARTESIAN_POINT('',(17.510010696766,-159.0461087229));
#994 = CARTESIAN_POINT('',(18.047098745909,-156.2896049158));
#995 = CARTESIAN_POINT('',(18.566710136412,-153.5297719378));
#996 = CARTESIAN_POINT('',(19.067891230902,-150.7665858664));
#997 = CARTESIAN_POINT('',(19.549439621692,-148.));
#998 = ( GEOMETRIC_REPRESENTATION_CONTEXT(2) 
PARAMETRIC_REPRESENTATION_CONTEXT() REPRESENTATION_CONTEXT('2D SPACE',''
  ) );
#999 = ORIENTED_EDGE('',*,*,#1000,.T.);
#1000 = EDGE_CURVE('',#884,#591,#1001,.T.);
#1001 = SURFACE_CURVE('',#1002,(#1017,#1037),.PCURVE_S1.);
#1002 = B_SPLINE_CURVE_WITH_KNOTS('',5,(#1003,#1004,#1005,#1006,#1007,
    #1008,#1009,#1010,#1011,#1012,#1013,#1014,#1015,#1016),
  .UNSPECIFIED.,.F.,.F.,(6,4,4,6),(0.,0.33400199278,0.667002181993,1.),
  .UNSPECIFIED.);
#1003 = CARTESIAN_POINT('',(769.95246352277,188.12246466686,
    9.096885004962));
#1004 = CARTESIAN_POINT('',(751.6427364025,189.14188041516,
    8.960352848805));
#1005 = CARTESIAN_POINT('',(733.33300441349,190.16121175759,
    8.823820504009));
#1006 = CARTESIAN_POINT('',(715.02326562911,191.18042292574,
    8.68728789167));
#1007 = CARTESIAN_POINT('',(696.71352039759,192.19951958334,
    8.550755024608));
#1008 = CARTESIAN_POINT('',(660.14893556002,194.23443348477,
    8.278098311065));
#1009 = CARTESIAN_POINT('',(641.89409600899,195.25025167354,
    8.141974466701));
#1010 = CARTESIAN_POINT('',(623.63925055393,196.26596447154,
    8.005850388124));
#1011 = CARTESIAN_POINT('',(605.38439969746,197.28158072201,
    7.869726095042));
#1012 = CARTESIAN_POINT('',(568.87481801672,199.31262790643,
    7.597478082575));
#1013 = CARTESIAN_POINT('',(550.62008719357,200.32805885232,
    7.461354363221));
#1014 = CARTESIAN_POINT('',(532.36535183618,201.34340860693,
    7.32523046354));
#1015 = CARTESIAN_POINT('',(514.11061233822,202.35868416782,
    7.189106399096));
#1016 = CARTESIAN_POINT('',(495.85586904456,203.37389169074,
    7.052982183568));
#1017 = PCURVE('',#666,#1018);
#1018 = DEFINITIONAL_REPRESENTATION('',(#1019),#1036);
#1019 = B_SPLINE_CURVE_WITH_KNOTS('',8,(#1020,#1021,#1022,#1023,#1024,
    #1025,#1026,#1027,#1028,#1029,#1030,#1031,#1032,#1033,#1034,#1035),
  .UNSPECIFIED.,.F.,.F.,(9,7,9),(0.,0.499932537581,0.999865075163),
  .UNSPECIFIED.);
#1020 = CARTESIAN_POINT('',(0.831398611258,-2.775557561563E-17));
#1021 = CARTESIAN_POINT('',(0.836340461925,6.24911994412E-02));
#1022 = CARTESIAN_POINT('',(0.840802832089,0.124982469938));
#1023 = CARTESIAN_POINT('',(0.844876256131,0.187473820452));
#1024 = CARTESIAN_POINT('',(0.848628219022,0.249965207623));
#1025 = CARTESIAN_POINT('',(0.852100210407,0.31245667756));
#1026 = CARTESIAN_POINT('',(0.855334910502,0.374948179775));
#1027 = CARTESIAN_POINT('',(0.858359175423,0.437439734574));
#1028 = CARTESIAN_POINT('',(0.864037586913,0.562422925168));
#1029 = CARTESIAN_POINT('',(0.866691741889,0.624914560641));
#1030 = CARTESIAN_POINT('',(0.869184301093,0.687406241911));
#1031 = CARTESIAN_POINT('',(0.871536748163,0.749897940374));
#1032 = CARTESIAN_POINT('',(0.873761067653,0.812389687523));
#1033 = CARTESIAN_POINT('',(0.875872386717,0.874881459108));
#1034 = CARTESIAN_POINT('',(0.877881339592,0.937373253376));
#1035 = CARTESIAN_POINT('',(0.879796680588,0.999865074614));
#1036 = ( GEOMETRIC_REPRESENTATION_CONTEXT(2) 
PARAMETRIC_REPRESENTATION_CONTEXT() REPRESENTATION_CONTEXT('2D SPACE',''
  ) );
#1037 = PCURVE('',#743,#1038);
#1038 = DEFINITIONAL_REPRESENTATION('',(#1039),#1054);
#1039 = B_SPLINE_CURVE_WITH_KNOTS('',5,(#1040,#1041,#1042,#1043,#1044,
    #1045,#1046,#1047,#1048,#1049,#1050,#1051,#1052,#1053),
  .UNSPECIFIED.,.F.,.F.,(6,4,4,6),(0.,0.33400199278,0.667002181993,1.),
  .UNSPECIFIED.);
#1040 = CARTESIAN_POINT('',(-136.8541610727,-5.780844687023));
#1041 = CARTESIAN_POINT('',(-118.6015026672,-4.007594042126));
#1042 = CARTESIAN_POINT('',(-100.3488359169,-2.234427530778));
#1043 = CARTESIAN_POINT('',(-82.09615742188,-0.461380811618));
#1044 = CARTESIAN_POINT('',(-63.84346776361,1.311551759924));
#1045 = CARTESIAN_POINT('',(-27.39281376681,4.851877143199));
#1046 = CARTESIAN_POINT('',(-9.194849522232,6.619270896802));
#1047 = CARTESIAN_POINT('',(9.003124966902,8.386559592441));
#1048 = CARTESIAN_POINT('',(27.201108833762,10.153752045132));
#1049 = CARTESIAN_POINT('',(63.596964274648,13.687946843727));
#1050 = CARTESIAN_POINT('',(81.794835847062,15.454949201516));
#1051 = CARTESIAN_POINT('',(99.99271529759,17.221870623829));
#1052 = CARTESIAN_POINT('',(118.19060194437,18.988718086062));
#1053 = CARTESIAN_POINT('',(136.388495189,20.755497724525));
#1054 = ( GEOMETRIC_REPRESENTATION_CONTEXT(2) 
PARAMETRIC_REPRESENTATION_CONTEXT() REPRESENTATION_CONTEXT('2D SPACE',''
  ) );
#1055 = ORIENTED_EDGE('',*,*,#590,.T.);
#1056 = ORIENTED_EDGE('',*,*,#1057,.F.);
#1057 = EDGE_CURVE('',#886,#593,#1058,.T.);
#1058 = SURFACE_CURVE('',#1059,(#1074,#1092),.PCURVE_S1.);
#1059 = B_SPLINE_CURVE_WITH_KNOTS('',4,(#1060,#1061,#1062,#1063,#1064,
    #1065,#1066,#1067,#1068,#1069,#1070,#1071,#1072,#1073),
  .UNSPECIFIED.,.F.,.F.,(5,3,3,3,5),(0.,0.250004726171,0.500009334616,
    0.750013826695,1.),.UNSPECIFIED.);
#1060 = CARTESIAN_POINT('',(769.96153752583,148.8,18.041591539557));
#1061 = CARTESIAN_POINT('',(752.8294666827,148.8,18.128271023957));
#1062 = CARTESIAN_POINT('',(735.69739613875,148.8,18.215009490325));
#1063 = CARTESIAN_POINT('',(718.56532591126,148.8,18.301810291583));
#1064 = CARTESIAN_POINT('',(684.30119419154,148.8,18.475543292162));
#1065 = CARTESIAN_POINT('',(667.16913269931,148.8,18.562475489134));
#1066 = CARTESIAN_POINT('',(650.03707155853,148.8,18.649476788478));
#1067 = CARTESIAN_POINT('',(615.77295798905,148.8,18.823624247748));
#1068 = CARTESIAN_POINT('',(598.64090556032,148.8,18.910770405083));
#1069 = CARTESIAN_POINT('',(581.50885351794,148.8,18.997992358979));
#1070 = CARTESIAN_POINT('',(547.24600556993,148.8,19.172587934444));
#1071 = CARTESIAN_POINT('',(530.11520966425,148.8,19.259961541793));
#1072 = CARTESIAN_POINT('',(512.98441417882,148.8,19.34741740231));
#1073 = CARTESIAN_POINT('',(495.85361912978,148.8,19.434958558893));
#1074 = PCURVE('',#666,#1075);
#1075 = DEFINITIONAL_REPRESENTATION('',(#1076),#1091);
#1076 = B_SPLINE_CURVE_WITH_KNOTS('',4,(#1077,#1078,#1079,#1080,#1081,
    #1082,#1083,#1084,#1085,#1086,#1087,#1088,#1089,#1090),
  .UNSPECIFIED.,.F.,.F.,(5,3,3,3,5),(0.,0.250004726171,0.500009334616,
    0.750013826695,1.),.UNSPECIFIED.);
#1077 = CARTESIAN_POINT('',(7.013254719412E-02,0.));
#1078 = CARTESIAN_POINT('',(7.135998676171E-02,6.249998400471E-02));
#1079 = CARTESIAN_POINT('',(7.259772678052E-02,0.124999977894));
#1080 = CARTESIAN_POINT('',(7.384540242833E-02,0.187499981663));
#1081 = CARTESIAN_POINT('',(7.635973701447E-02,0.312499979455));
#1082 = CARTESIAN_POINT('',(7.762639600799E-02,0.374999973478));
#1083 = CARTESIAN_POINT('',(7.890210308377E-02,0.437499977306));
#1084 = CARTESIAN_POINT('',(8.147057106038E-02,0.562499975349));
#1085 = CARTESIAN_POINT('',(8.276333212115E-02,0.624999969563));
#1086 = CARTESIAN_POINT('',(8.406409943918E-02,0.687499973447));
#1087 = CARTESIAN_POINT('',(8.668036465527E-02,0.812495420744));
#1088 = CARTESIAN_POINT('',(8.799586172888E-02,0.874990864156));
#1089 = CARTESIAN_POINT('',(8.93181780938E-02,0.937486317039));
#1090 = CARTESIAN_POINT('',(9.064665689214E-02,0.999981779262));
#1091 = ( GEOMETRIC_REPRESENTATION_CONTEXT(2) 
PARAMETRIC_REPRESENTATION_CONTEXT() REPRESENTATION_CONTEXT('2D SPACE',''
  ) );
#1092 = PCURVE('',#819,#1093);
#1093 = DEFINITIONAL_REPRESENTATION('',(#1094),#1109);
#1094 = B_SPLINE_CURVE_WITH_KNOTS('',4,(#1095,#1096,#1097,#1098,#1099,
    #1100,#1101,#1102,#1103,#1104,#1105,#1106,#1107,#1108),
  .UNSPECIFIED.,.F.,.F.,(5,3,3,3,5),(0.,0.250004726171,0.500009334616,
    0.750013826695,1.),.UNSPECIFIED.);
#1095 = CARTESIAN_POINT('',(58.041591539557,2.019961537526E+03));
#1096 = CARTESIAN_POINT('',(58.128271023957,2.002829466683E+03));
#1097 = CARTESIAN_POINT('',(58.215009490325,1.985697396139E+03));
#1098 = CARTESIAN_POINT('',(58.301810291583,1.968565325911E+03));
#1099 = CARTESIAN_POINT('',(58.475543292162,1.934301194192E+03));
#1100 = CARTESIAN_POINT('',(58.562475489134,1.917169132699E+03));
#1101 = CARTESIAN_POINT('',(58.649476788478,1.900037071559E+03));
#1102 = CARTESIAN_POINT('',(58.823624247748,1.865772957989E+03));
#1103 = CARTESIAN_POINT('',(58.910770405083,1.84864090556E+03));
#1104 = CARTESIAN_POINT('',(58.997992358979,1.831508853518E+03));
#1105 = CARTESIAN_POINT('',(59.172587934444,1.79724600557E+03));
#1106 = CARTESIAN_POINT('',(59.259961541793,1.780115209664E+03));
#1107 = CARTESIAN_POINT('',(59.34741740231,1.762984414179E+03));
#1108 = CARTESIAN_POINT('',(59.434958558893,1.74585361913E+03));
#1109 = ( GEOMETRIC_REPRESENTATION_CONTEXT(2) 
PARAMETRIC_REPRESENTATION_CONTEXT() REPRESENTATION_CONTEXT('2D SPACE',''
  ) );
#1110 = ADVANCED_FACE('',(#1111),#819,.F.);
#1111 = FACE_BOUND('',#1112,.F.);
#1112 = EDGE_LOOP('',(#1113,#1138,#1159,#1160,#1161));
#1113 = ORIENTED_EDGE('',*,*,#1114,.F.);
#1114 = EDGE_CURVE('',#1115,#1117,#1119,.T.);
#1115 = VERTEX_POINT('',#1116);
#1116 = CARTESIAN_POINT('',(496.95808489229,148.8,6.963248414362));
#1117 = VERTEX_POINT('',#1118);
#1118 = CARTESIAN_POINT('',(500.8418438757,148.8,6.992596911037));
#1119 = SURFACE_CURVE('',#1120,(#1124,#1131),.PCURVE_S1.);
#1120 = LINE('',#1121,#1122);
#1121 = CARTESIAN_POINT('',(-308.5661391993,148.8,0.876123772486));
#1122 = VECTOR('',#1123,1.);
#1123 = DIRECTION('',(0.99997144918,-0.,7.556508752226E-03));
#1124 = PCURVE('',#819,#1125);
#1125 = DEFINITIONAL_REPRESENTATION('',(#1126),#1130);
#1126 = LINE('',#1127,#1128);
#1127 = CARTESIAN_POINT('',(40.876123772486,941.4338608007));
#1128 = VECTOR('',#1129,1.);
#1129 = DIRECTION('',(7.556508752226E-03,0.99997144918));
#1130 = ( GEOMETRIC_REPRESENTATION_CONTEXT(2) 
PARAMETRIC_REPRESENTATION_CONTEXT() REPRESENTATION_CONTEXT('2D SPACE',''
  ) );
#1131 = PCURVE('',#769,#1132);
#1132 = DEFINITIONAL_REPRESENTATION('',(#1133),#1137);
#1133 = LINE('',#1134,#1135);
#1134 = CARTESIAN_POINT('',(941.42188377209,26.542118614331));
#1135 = VECTOR('',#1136,1.);
#1136 = DIRECTION('',(-0.999150203651,-4.121735732827E-02));
#1137 = ( GEOMETRIC_REPRESENTATION_CONTEXT(2) 
PARAMETRIC_REPRESENTATION_CONTEXT() REPRESENTATION_CONTEXT('2D SPACE',''
  ) );
#1138 = ORIENTED_EDGE('',*,*,#1139,.T.);
#1139 = EDGE_CURVE('',#1115,#781,#1140,.T.);
#1140 = SURFACE_CURVE('',#1141,(#1145,#1152),.PCURVE_S1.);
#1141 = LINE('',#1142,#1143);
#1142 = CARTESIAN_POINT('',(496.99158018238,148.8,5.50474298213));
#1143 = VECTOR('',#1144,1.);
#1144 = DIRECTION('',(-2.295943498382E-02,0.,0.999736397429));
#1145 = PCURVE('',#819,#1146);
#1146 = DEFINITIONAL_REPRESENTATION('',(#1147),#1151);
#1147 = LINE('',#1148,#1149);
#1148 = CARTESIAN_POINT('',(45.50474298213,1.746991580182E+03));
#1149 = VECTOR('',#1150,1.);
#1150 = DIRECTION('',(0.999736397429,-2.295943498382E-02));
#1151 = ( GEOMETRIC_REPRESENTATION_CONTEXT(2) 
PARAMETRIC_REPRESENTATION_CONTEXT() REPRESENTATION_CONTEXT('2D SPACE',''
  ) );
#1152 = PCURVE('',#795,#1153);
#1153 = DEFINITIONAL_REPRESENTATION('',(#1154),#1158);
#1154 = LINE('',#1155,#1156);
#1155 = CARTESIAN_POINT('',(5.361407540565,-21.01199991917));
#1156 = VECTOR('',#1157,1.);
#1157 = DIRECTION('',(-0.999999481196,1.018629996165E-03));
#1158 = ( GEOMETRIC_REPRESENTATION_CONTEXT(2) 
PARAMETRIC_REPRESENTATION_CONTEXT() REPRESENTATION_CONTEXT('2D SPACE',''
  ) );
#1159 = ORIENTED_EDGE('',*,*,#806,.F.);
#1160 = ORIENTED_EDGE('',*,*,#1057,.F.);
#1161 = ORIENTED_EDGE('',*,*,#1162,.F.);
#1162 = EDGE_CURVE('',#1117,#886,#1163,.T.);
#1163 = SURFACE_CURVE('',#1164,(#1168,#1174),.PCURVE_S1.);
#1164 = LINE('',#1165,#1166);
#1165 = CARTESIAN_POINT('',(500.8418438757,148.8,-20.));
#1166 = VECTOR('',#1167,1.);
#1167 = DIRECTION('',(0.,0.,1.));
#1168 = PCURVE('',#819,#1169);
#1169 = DEFINITIONAL_REPRESENTATION('',(#1170),#1173);
#1170 = B_SPLINE_CURVE_WITH_KNOTS('',1,(#1171,#1172),.UNSPECIFIED.,.F.,
  .F.,(2,2),(26.963248414362,39.42990867568),.PIECEWISE_BEZIER_KNOTS.);
#1171 = CARTESIAN_POINT('',(46.963248414362,1.750841843876E+03));
#1172 = CARTESIAN_POINT('',(59.42990867568,1.750841843876E+03));
#1173 = ( GEOMETRIC_REPRESENTATION_CONTEXT(2) 
PARAMETRIC_REPRESENTATION_CONTEXT() REPRESENTATION_CONTEXT('2D SPACE',''
  ) );
#1174 = PCURVE('',#959,#1175);
#1175 = DEFINITIONAL_REPRESENTATION('',(#1176),#1179);
#1176 = B_SPLINE_CURVE_WITH_KNOTS('',1,(#1177,#1178),.UNSPECIFIED.,.F.,
  .F.,(2,2),(26.963248414362,39.42990867568),.PIECEWISE_BEZIER_KNOTS.);
#1177 = CARTESIAN_POINT('',(6.963248414362,-148.8));
#1178 = CARTESIAN_POINT('',(19.42990867568,-148.8));
#1179 = ( GEOMETRIC_REPRESENTATION_CONTEXT(2) 
PARAMETRIC_REPRESENTATION_CONTEXT() REPRESENTATION_CONTEXT('2D SPACE',''
  ) );
#1180 = ADVANCED_FACE('',(#1181),#795,.F.);
#1181 = FACE_BOUND('',#1182,.F.);
#1182 = EDGE_LOOP('',(#1183,#1204,#1205));
#1183 = ORIENTED_EDGE('',*,*,#1184,.T.);
#1184 = EDGE_CURVE('',#1115,#755,#1185,.T.);
#1185 = SURFACE_CURVE('',#1186,(#1190,#1197),.PCURVE_S1.);
#1186 = LINE('',#1187,#1188);
#1187 = CARTESIAN_POINT('',(496.87519316416,165.10303507851,
    6.991901520237));
#1188 = VECTOR('',#1189,1.);
#1189 = DIRECTION('',(-5.084361794841E-03,0.999985530113,
    1.757506570385E-03));
#1190 = PCURVE('',#795,#1191);
#1191 = DEFINITIONAL_REPRESENTATION('',(#1192),#1196);
#1192 = LINE('',#1193,#1194);
#1193 = CARTESIAN_POINT('',(3.888576585527,-4.70724882618));
#1194 = VECTOR('',#1195,1.);
#1195 = DIRECTION('',(-8.551481811383E-04,0.999999634361));
#1196 = ( GEOMETRIC_REPRESENTATION_CONTEXT(2) 
PARAMETRIC_REPRESENTATION_CONTEXT() REPRESENTATION_CONTEXT('2D SPACE',''
  ) );
#1197 = PCURVE('',#769,#1198);
#1198 = DEFINITIONAL_REPRESENTATION('',(#1199),#1203);
#1199 = LINE('',#1200,#1201);
#1200 = CARTESIAN_POINT('',(135.96984521938,9.632205517401));
#1201 = VECTOR('',#1202,1.);
#1202 = DIRECTION('',(-3.615020062977E-02,0.99934636788));
#1203 = ( GEOMETRIC_REPRESENTATION_CONTEXT(2) 
PARAMETRIC_REPRESENTATION_CONTEXT() REPRESENTATION_CONTEXT('2D SPACE',''
  ) );
#1204 = ORIENTED_EDGE('',*,*,#780,.F.);
#1205 = ORIENTED_EDGE('',*,*,#1139,.F.);
#1206 = ADVANCED_FACE('',(#1207),#769,.T.);
#1207 = FACE_BOUND('',#1208,.T.);
#1208 = EDGE_LOOP('',(#1209,#1230,#1231,#1232,#1233));
#1209 = ORIENTED_EDGE('',*,*,#1210,.F.);
#1210 = EDGE_CURVE('',#1117,#1211,#1213,.T.);
#1211 = VERTEX_POINT('',#1212);
#1212 = CARTESIAN_POINT('',(500.8418438757,179.31528521197,
    7.047400949778));
#1213 = SURFACE_CURVE('',#1214,(#1218,#1224),.PCURVE_S1.);
#1214 = LINE('',#1215,#1216);
#1215 = CARTESIAN_POINT('',(500.8418438757,80.536528002756,
    6.869998877361));
#1216 = VECTOR('',#1217,1.);
#1217 = DIRECTION('',(-0.,0.999998387279,1.795950782618E-03));
#1218 = PCURVE('',#769,#1219);
#1219 = DEFINITIONAL_REPRESENTATION('',(#1220),#1223);
#1220 = B_SPLINE_CURVE_WITH_KNOTS('',1,(#1221,#1222),.UNSPECIFIED.,.F.,
  .F.,(2,2),(67.463580797171,99.059812144198),.PIECEWISE_BEZIER_KNOTS.);
#1221 = CARTESIAN_POINT('',(132.71162715049,-7.619812982743));
#1222 = CARTESIAN_POINT('',(131.40888556116,23.949550325475));
#1223 = ( GEOMETRIC_REPRESENTATION_CONTEXT(2) 
PARAMETRIC_REPRESENTATION_CONTEXT() REPRESENTATION_CONTEXT('2D SPACE',''
  ) );
#1224 = PCURVE('',#959,#1225);
#1225 = DEFINITIONAL_REPRESENTATION('',(#1226),#1229);
#1226 = B_SPLINE_CURVE_WITH_KNOTS('',1,(#1227,#1228),.UNSPECIFIED.,.F.,
  .F.,(2,2),(67.463580797171,99.059812144198),.PIECEWISE_BEZIER_KNOTS.);
#1227 = CARTESIAN_POINT('',(6.991160148092,-148.));
#1228 = CARTESIAN_POINT('',(7.047905424508,-179.5961803911));
#1229 = ( GEOMETRIC_REPRESENTATION_CONTEXT(2) 
PARAMETRIC_REPRESENTATION_CONTEXT() REPRESENTATION_CONTEXT('2D SPACE',''
  ) );
#1230 = ORIENTED_EDGE('',*,*,#1114,.F.);
#1231 = ORIENTED_EDGE('',*,*,#1184,.T.);
#1232 = ORIENTED_EDGE('',*,*,#754,.F.);
#1233 = ORIENTED_EDGE('',*,*,#1234,.F.);
#1234 = EDGE_CURVE('',#1211,#729,#1235,.T.);
#1235 = SURFACE_CURVE('',#1236,(#1241,#1249),.PCURVE_S1.);
#1236 = B_SPLINE_CURVE_WITH_KNOTS('',3,(#1237,#1238,#1239,#1240),
  .UNSPECIFIED.,.F.,.F.,(4,4),(0.,0.999999999363),
  .PIECEWISE_BEZIER_KNOTS.);
#1237 = CARTESIAN_POINT('',(770.07991323388,171.51539186349,
    9.067950618456));
#1238 = CARTESIAN_POINT('',(678.72476076256,174.16197318763,
    8.382358036775));
#1239 = CARTESIAN_POINT('',(587.36960829125,176.80855451177,
    7.696765455095));
#1240 = CARTESIAN_POINT('',(496.01445581993,179.45513583591,
    7.011172873414));
#1241 = PCURVE('',#769,#1242);
#1242 = DEFINITIONAL_REPRESENTATION('',(#1243),#1248);
#1243 = B_SPLINE_CURVE_WITH_KNOTS('',3,(#1244,#1245,#1246,#1247),
  .UNSPECIFIED.,.F.,.F.,(4,4),(0.,0.999999999363),
  .PIECEWISE_BEZIER_KNOTS.);
#1244 = CARTESIAN_POINT('',(-137.2748880653,4.778021765651));
#1245 = CARTESIAN_POINT('',(-46.10388389739,11.187882290595));
#1246 = CARTESIAN_POINT('',(45.067120270599,17.597742815539));
#1247 = CARTESIAN_POINT('',(136.2381244386,24.007603340484));
#1248 = ( GEOMETRIC_REPRESENTATION_CONTEXT(2) 
PARAMETRIC_REPRESENTATION_CONTEXT() REPRESENTATION_CONTEXT('2D SPACE',''
  ) );
#1249 = PCURVE('',#743,#1250);
#1250 = DEFINITIONAL_REPRESENTATION('',(#1251),#1256);
#1251 = B_SPLINE_CURVE_WITH_KNOTS('',3,(#1252,#1253,#1254,#1255),
  .UNSPECIFIED.,.F.,.F.,(4,4),(0.,0.999999999363),
  .PIECEWISE_BEZIER_KNOTS.);
#1252 = CARTESIAN_POINT('',(-136.2967796129,-22.37907572625));
#1253 = CARTESIAN_POINT('',(-45.12577544827,-15.96921515355));
#1254 = CARTESIAN_POINT('',(46.045228716363,-9.559354580855));
#1255 = CARTESIAN_POINT('',(137.216232881,-3.149494008154));
#1256 = ( GEOMETRIC_REPRESENTATION_CONTEXT(2) 
PARAMETRIC_REPRESENTATION_CONTEXT() REPRESENTATION_CONTEXT('2D SPACE',''
  ) );
#1257 = ADVANCED_FACE('',(#1258),#743,.T.);
#1258 = FACE_BOUND('',#1259,.T.);
#1259 = EDGE_LOOP('',(#1260,#1261,#1280,#1281));
#1260 = ORIENTED_EDGE('',*,*,#1000,.F.);
#1261 = ORIENTED_EDGE('',*,*,#1262,.F.);
#1262 = EDGE_CURVE('',#1211,#884,#1263,.T.);
#1263 = SURFACE_CURVE('',#1264,(#1268,#1274),.PCURVE_S1.);
#1264 = LINE('',#1265,#1266);
#1265 = CARTESIAN_POINT('',(500.8418438757,94.123664185399,
    6.894121775518));
#1266 = VECTOR('',#1267,1.);
#1267 = DIRECTION('',(-0.,0.999998381834,1.798979820521E-03));
#1268 = PCURVE('',#743,#1269);
#1269 = DEFINITIONAL_REPRESENTATION('',(#1270),#1273);
#1270 = B_SPLINE_CURVE_WITH_KNOTS('',1,(#1271,#1272),.UNSPECIFIED.,.F.,
  .F.,(2,2),(66.401788975968,109.36058521202),.PIECEWISE_BEZIER_KNOTS.);
#1271 = CARTESIAN_POINT('',(133.17330387515,-22.2621955545));
#1272 = CARTESIAN_POINT('',(131.40207231207,20.660070378235));
#1273 = ( GEOMETRIC_REPRESENTATION_CONTEXT(2) 
PARAMETRIC_REPRESENTATION_CONTEXT() REPRESENTATION_CONTEXT('2D SPACE',''
  ) );
#1274 = PCURVE('',#959,#1275);
#1275 = DEFINITIONAL_REPRESENTATION('',(#1276),#1279);
#1276 = B_SPLINE_CURVE_WITH_KNOTS('',1,(#1277,#1278),.UNSPECIFIED.,.F.,
  .F.,(2,2),(66.401788975968,109.36058521202),.PIECEWISE_BEZIER_KNOTS.);
#1277 = CARTESIAN_POINT('',(7.013577253932,-160.5253457122));
#1278 = CARTESIAN_POINT('',(7.090859261475,-203.4840724338));
#1279 = ( GEOMETRIC_REPRESENTATION_CONTEXT(2) 
PARAMETRIC_REPRESENTATION_CONTEXT() REPRESENTATION_CONTEXT('2D SPACE',''
  ) );
#1280 = ORIENTED_EDGE('',*,*,#1234,.T.);
#1281 = ORIENTED_EDGE('',*,*,#728,.F.);
#1282 = ADVANCED_FACE('',(#1283),#959,.T.);
#1283 = FACE_BOUND('',#1284,.T.);
#1284 = EDGE_LOOP('',(#1285,#1286,#1287,#1288));
#1285 = ORIENTED_EDGE('',*,*,#1262,.T.);
#1286 = ORIENTED_EDGE('',*,*,#883,.T.);
#1287 = ORIENTED_EDGE('',*,*,#1162,.F.);
#1288 = ORIENTED_EDGE('',*,*,#1210,.T.);
#1289 = ( GEOMETRIC_REPRESENTATION_CONTEXT(3) 
GLOBAL_UNCERTAINTY_ASSIGNED_CONTEXT((#1293)) 
GLOBAL_UNIT_ASSIGNED_CONTEXT((#1290,#1291,#1292)) REPRESENTATION_CONTEXT
('Context #1','3D Context with UNIT and UNCERTAINTY') );
#1290 = ( LENGTH_UNIT() NAMED_UNIT(*) SI_UNIT(.MILLI.,.METRE.) );
#1291 = ( NAMED_UNIT(*) PLANE_ANGLE_UNIT() SI_UNIT($,.RADIAN.) );
#1292 = ( NAMED_UNIT(*) SI_UNIT($,.STERADIAN.) SOLID_ANGLE_UNIT() );
#1293 = UNCERTAINTY_MEASURE_WITH_UNIT(LENGTH_MEASURE(5.E-06),#1290,
  'distance_accuracy_value','confusion accuracy');
#1294 = PRODUCT_RELATED_PRODUCT_CATEGORY('part',$,(#7));
ENDSEC;
END-ISO-10303-21;
