ISO-10303-21;
HEADER;
FILE_DESCRIPTION(('Open CASCADE Model'),'2;1');
FILE_NAME('Open CASCADE Shape Model','2026-09-23T08:14:45',('Author'),(
    'Open CASCADE'),'Open CASCADE STEP processor 7.9','Open CASCADE 7.9'
  ,'Unknown');
FILE_SCHEMA(('AUTOMOTIVE_DESIGN { 1 0 10303 214 1 1 1 1 }'));
ENDSEC;
DATA;
#1 = APPLICATION_PROTOCOL_DEFINITION('international standard',
  'automotive_design',2000,#2);
#2 = APPLICATION_CONTEXT(
  'core data for automotive mechanical design processes');
#3 = SHAPE_DEFINITION_REPRESENTATION(#4,#10);
#4 = PRODUCT_DEFINITION_SHAPE('','',#5);
#5 = PRODUCT_DEFINITION('design','',#6,#9);
#6 = PRODUCT_DEFINITION_FORMATION('','',#7);
#7 = PRODUCT('Open CASCADE STEP translator 7.9 3',
  'Open CASCADE STEP translator 7.9 3','',(#8));
#8 = PRODUCT_CONTEXT('',#2,'mechanical');
#9 = PRODUCT_DEFINITION_CONTEXT('part definition',#2,'design');
#10 = ADVANCED_BREP_SHAPE_REPRESENTATION('',(#11,#15),#1150);
#11 = AXIS2_PLACEMENT_3D('',#12,#13,#14);
#12 = CARTESIAN_POINT('',(0.,0.,0.));
#13 = DIRECTION('',(0.,0.,1.));
#14 = DIRECTION('',(1.,0.,-0.));
#15 = MANIFOLD_SOLID_BREP('',#16);
#16 = CLOSED_SHELL('',(#17,#158,#234,#345,#441,#538,#635,#898,#945,#1077
    ,#1124,#1137));
#17 = ADVANCED_FACE('',(#18),#33,.F.);
#18 = FACE_BOUND('',#19,.F.);
#19 = EDGE_LOOP('',(#20,#65,#98,#127));
#20 = ORIENTED_EDGE('',*,*,#21,.F.);
#21 = EDGE_CURVE('',#22,#24,#26,.T.);
#22 = VERTEX_POINT('',#23);
#23 = CARTESIAN_POINT('',(46.464231783658,-130.,4.999999999999));
#24 = VERTEX_POINT('',#25);
#25 = CARTESIAN_POINT('',(46.464231783658,7.0432595176E-14,
    4.999999999999));
#26 = SURFACE_CURVE('',#27,(#32,#43),.PCURVE_S1.);
#27 = B_SPLINE_CURVE_WITH_KNOTS('',3,(#28,#29,#30,#31),.UNSPECIFIED.,.F.
  ,.F.,(4,4),(0.,1.),.PIECEWISE_BEZIER_KNOTS.);
#28 = CARTESIAN_POINT('',(46.463550214958,-130.,4.999753404868));
#29 = CARTESIAN_POINT('',(46.463550214958,-86.66666666666,4.999753404868
    ));
#30 = CARTESIAN_POINT('',(46.463550214957,-43.33333333333,4.999753404869
    ));
#31 = CARTESIAN_POINT('',(46.463550214957,9.950935363438E-14,
    4.999753404869));
#32 = PCURVE('',#33,#38);
#33 = CYLINDRICAL_SURFACE('',#34,46.706249606566);
#34 = AXIS2_PLACEMENT_3D('',#35,#36,#37);
#35 = CARTESIAN_POINT('',(2.54355226948,-65.,-10.89073220067));
#36 = DIRECTION('',(3.200831338575E-16,1.,-7.121950575627E-15));
#37 = DIRECTION('',(0.956384234749,1.774282020406E-15,0.292111614837));
#38 = DEFINITIONAL_REPRESENTATION('',(#39),#42);
#39 = B_SPLINE_CURVE_WITH_KNOTS('',1,(#40,#41),.UNSPECIFIED.,.F.,.F.,(2,
    2),(8.090139405604E-17,1.),.PIECEWISE_BEZIER_KNOTS.);
#40 = CARTESIAN_POINT('',(6.23246652974,-64.99999999999));
#41 = CARTESIAN_POINT('',(6.23246652974,65.000000000003));
#42 = ( GEOMETRIC_REPRESENTATION_CONTEXT(2) 
PARAMETRIC_REPRESENTATION_CONTEXT() REPRESENTATION_CONTEXT('2D SPACE',''
  ) );
#43 = PCURVE('',#44,#59);
#44 = B_SPLINE_SURFACE_WITH_KNOTS('',3,1,(
    (#45,#46)
    ,(#47,#48)
    ,(#49,#50)
    ,(#51,#52)
    ,(#53,#54)
    ,(#55,#56)
    ,(#57,#58
    )),.UNSPECIFIED.,.F.,.F.,.F.,(4,1,1,1,4),(2,2),(-1.547009719908E-07,
    1.554675874493,3.109351903686,4.66402793288,6.218703962074),(0.,1.),
  .UNSPECIFIED.);
#45 = CARTESIAN_POINT('',(46.464232291369,-130.,4.999998587593));
#46 = CARTESIAN_POINT('',(46.464232291368,5.551115123126E-14,
    4.999998587593));
#47 = CARTESIAN_POINT('',(44.763476572846,-130.,9.73134888358));
#48 = CARTESIAN_POINT('',(44.763476572846,5.551115123126E-14,
    9.73134888358));
#49 = CARTESIAN_POINT('',(39.554650416346,-130.,19.755199301149));
#50 = CARTESIAN_POINT('',(39.554650416346,2.775557561563E-14,
    19.755199301149));
#51 = CARTESIAN_POINT('',(27.888686650529,-130.,33.635970115326));
#52 = CARTESIAN_POINT('',(27.888686650529,1.665334536938E-13,
    33.635970115326));
#53 = CARTESIAN_POINT('',(13.959304142877,-130.,43.645915549719));
#54 = CARTESIAN_POINT('',(13.959304142877,2.775557561563E-14,
    43.645915549719));
#55 = CARTESIAN_POINT('',(4.513017316889,-130.,46.189798479743));
#56 = CARTESIAN_POINT('',(4.513017316889,2.775557561563E-14,
    46.189798479743));
#57 = CARTESIAN_POINT('',(2.169676849258E-05,-130.,46.189798495155));
#58 = CARTESIAN_POINT('',(2.169676820138E-05,2.775557561563E-14,
    46.189798495155));
#59 = DEFINITIONAL_REPRESENTATION('',(#60),#64);
#60 = LINE('',#61,#62);
#61 = CARTESIAN_POINT('',(-1.547010129774E-07,4.390951973698E-17));
#62 = VECTOR('',#63,1.);
#63 = DIRECTION('',(9.608540771263E-14,1.));
#64 = ( GEOMETRIC_REPRESENTATION_CONTEXT(2) 
PARAMETRIC_REPRESENTATION_CONTEXT() REPRESENTATION_CONTEXT('2D SPACE',''
  ) );
#65 = ORIENTED_EDGE('',*,*,#66,.T.);
#66 = EDGE_CURVE('',#22,#67,#69,.T.);
#67 = VERTEX_POINT('',#68);
#68 = CARTESIAN_POINT('',(47.822547009668,-129.99999988,0.565411878811)
  );
#69 = SURFACE_CURVE('',#70,(#75,#82),.PCURVE_S1.);
#70 = CIRCLE('',#71,46.706249606566);
#71 = AXIS2_PLACEMENT_3D('',#72,#73,#74);
#72 = CARTESIAN_POINT('',(2.54355226948,-130.,-10.89073220067));
#73 = DIRECTION('',(3.200831338575E-16,1.,-7.121950575627E-15));
#74 = DIRECTION('',(0.,7.121950575627E-15,1.));
#75 = PCURVE('',#33,#76);
#76 = DEFINITIONAL_REPRESENTATION('',(#77),#81);
#77 = LINE('',#78,#79);
#78 = CARTESIAN_POINT('',(5.008822990677,-64.99999999999));
#79 = VECTOR('',#80,1.);
#80 = DIRECTION('',(1.,0.));
#81 = ( GEOMETRIC_REPRESENTATION_CONTEXT(2) 
PARAMETRIC_REPRESENTATION_CONTEXT() REPRESENTATION_CONTEXT('2D SPACE',''
  ) );
#82 = PCURVE('',#83,#88);
#83 = PLANE('',#84);
#84 = AXIS2_PLACEMENT_3D('',#85,#86,#87);
#85 = CARTESIAN_POINT('',(2.143548458733E-05,-130.,25.594899247281));
#86 = DIRECTION('',(1.727784582073E-15,-1.,-1.224646799147E-16));
#87 = DIRECTION('',(1.,1.727784582073E-15,0.));
#88 = DEFINITIONAL_REPRESENTATION('',(#89),#97);
#89 = ( BOUNDED_CURVE() B_SPLINE_CURVE(2,(#90,#91,#92,#93,#94,#95,#96),
.UNSPECIFIED.,.T.,.F.) B_SPLINE_CURVE_WITH_KNOTS((1,2,2,2,2,1),(
    -2.094395102393,0.,2.094395102393,4.188790204786,6.28318530718,
8.377580409573),.UNSPECIFIED.) CURVE() GEOMETRIC_REPRESENTATION_ITEM() 
RATIONAL_B_SPLINE_CURVE((1.,0.5,1.,0.5,1.,0.5,1.)) REPRESENTATION_ITEM(
  '') );
#90 = CARTESIAN_POINT('',(2.543530833995,10.220618158615));
#91 = CARTESIAN_POINT('',(83.441128183562,10.220618158615));
#92 = CARTESIAN_POINT('',(42.992329508779,-59.83875625123));
#93 = CARTESIAN_POINT('',(2.543530833995,-129.898130661));
#94 = CARTESIAN_POINT('',(-37.90526784078,-59.83875625123));
#95 = CARTESIAN_POINT('',(-78.35406651557,10.220618158615));
#96 = CARTESIAN_POINT('',(2.543530833995,10.220618158615));
#97 = ( GEOMETRIC_REPRESENTATION_CONTEXT(2) 
PARAMETRIC_REPRESENTATION_CONTEXT() REPRESENTATION_CONTEXT('2D SPACE',''
  ) );
#98 = ORIENTED_EDGE('',*,*,#99,.T.);
#99 = EDGE_CURVE('',#67,#100,#102,.T.);
#100 = VERTEX_POINT('',#101);
#101 = CARTESIAN_POINT('',(47.822622288591,1.725161247096E-13,
    0.565415534809));
#102 = SURFACE_CURVE('',#103,(#108,#114),.PCURVE_S1.);
#103 = B_SPLINE_CURVE_WITH_KNOTS('',3,(#104,#105,#106,#107),
  .UNSPECIFIED.,.F.,.F.,(4,4),(9.230769994526E-10,1.),
  .PIECEWISE_BEZIER_KNOTS.);
#104 = CARTESIAN_POINT('',(47.822246082452,-129.99999988,0.565320350148)
  );
#105 = CARTESIAN_POINT('',(47.822246082452,-86.66666658666,
    0.565320350148));
#106 = CARTESIAN_POINT('',(47.822246082452,-43.33333329333,
    0.565320350148));
#107 = CARTESIAN_POINT('',(47.822246082452,0.,0.565320350148));
#108 = PCURVE('',#33,#109);
#109 = DEFINITIONAL_REPRESENTATION('',(#110),#113);
#110 = B_SPLINE_CURVE_WITH_KNOTS('',1,(#111,#112),.UNSPECIFIED.,.F.,.F.,
  (2,2),(9.230770811291E-10,1.),.PIECEWISE_BEZIER_KNOTS.);
#111 = CARTESIAN_POINT('',(6.331807852839,-64.99999987999));
#112 = CARTESIAN_POINT('',(6.331807852839,65.000000000003));
#113 = ( GEOMETRIC_REPRESENTATION_CONTEXT(2) 
PARAMETRIC_REPRESENTATION_CONTEXT() REPRESENTATION_CONTEXT('2D SPACE',''
  ) );
#114 = PCURVE('',#115,#120);
#115 = PLANE('',#116);
#116 = AXIS2_PLACEMENT_3D('',#117,#118,#119);
#117 = CARTESIAN_POINT('',(47.822246082463,-65.,0.282660174888));
#118 = DIRECTION('',(-1.,-1.708035422495E-15,-3.933801355367E-11));
#119 = DIRECTION('',(3.933801355367E-11,1.224646799812E-16,-1.));
#120 = DEFINITIONAL_REPRESENTATION('',(#121),#126);
#121 = B_SPLINE_CURVE_WITH_KNOTS('',3,(#122,#123,#124,#125),
  .UNSPECIFIED.,.F.,.F.,(4,4),(9.230769994526E-10,1.),
  .PIECEWISE_BEZIER_KNOTS.);
#122 = CARTESIAN_POINT('',(-0.28266017526,64.99999988));
#123 = CARTESIAN_POINT('',(-0.28266017526,21.66666658666));
#124 = CARTESIAN_POINT('',(-0.28266017526,-21.66666670667));
#125 = CARTESIAN_POINT('',(-0.28266017526,-65.));
#126 = ( GEOMETRIC_REPRESENTATION_CONTEXT(2) 
PARAMETRIC_REPRESENTATION_CONTEXT() REPRESENTATION_CONTEXT('2D SPACE',''
  ) );
#127 = ORIENTED_EDGE('',*,*,#128,.F.);
#128 = EDGE_CURVE('',#24,#100,#129,.T.);
#129 = SURFACE_CURVE('',#130,(#135,#142),.PCURVE_S1.);
#130 = CIRCLE('',#131,46.706249606566);
#131 = AXIS2_PLACEMENT_3D('',#132,#133,#134);
#132 = CARTESIAN_POINT('',(2.54355226948,-2.775557561563E-14,
    -10.89073220067));
#133 = DIRECTION('',(3.200831338575E-16,1.,-7.121950575627E-15));
#134 = DIRECTION('',(0.,7.121950575627E-15,1.));
#135 = PCURVE('',#33,#136);
#136 = DEFINITIONAL_REPRESENTATION('',(#137),#141);
#137 = LINE('',#138,#139);
#138 = CARTESIAN_POINT('',(5.008822990677,65.000000000003));
#139 = VECTOR('',#140,1.);
#140 = DIRECTION('',(1.,0.));
#141 = ( GEOMETRIC_REPRESENTATION_CONTEXT(2) 
PARAMETRIC_REPRESENTATION_CONTEXT() REPRESENTATION_CONTEXT('2D SPACE',''
  ) );
#142 = PCURVE('',#143,#148);
#143 = PLANE('',#144);
#144 = AXIS2_PLACEMENT_3D('',#145,#146,#147);
#145 = CARTESIAN_POINT('',(2.143548436528E-05,1.407261119314E-13,
    25.594899247281));
#146 = DIRECTION('',(1.727784582073E-15,-1.,-1.224646799147E-16));
#147 = DIRECTION('',(1.,1.727784582073E-15,0.));
#148 = DEFINITIONAL_REPRESENTATION('',(#149),#157);
#149 = ( BOUNDED_CURVE() B_SPLINE_CURVE(2,(#150,#151,#152,#153,#154,#155
,#156),.UNSPECIFIED.,.T.,.F.) B_SPLINE_CURVE_WITH_KNOTS((1,2,2,2,2,1),(
    -2.094395102393,0.,2.094395102393,4.188790204786,6.28318530718,
8.377580409573),.UNSPECIFIED.) CURVE() GEOMETRIC_REPRESENTATION_ITEM() 
RATIONAL_B_SPLINE_CURVE((1.,0.5,1.,0.5,1.,0.5,1.)) REPRESENTATION_ITEM(
  '') );
#150 = CARTESIAN_POINT('',(2.543530833996,10.220618158615));
#151 = CARTESIAN_POINT('',(83.441128183562,10.220618158615));
#152 = CARTESIAN_POINT('',(42.992329508779,-59.83875625123));
#153 = CARTESIAN_POINT('',(2.543530833996,-129.898130661));
#154 = CARTESIAN_POINT('',(-37.90526784078,-59.83875625123));
#155 = CARTESIAN_POINT('',(-78.35406651557,10.220618158615));
#156 = CARTESIAN_POINT('',(2.543530833996,10.220618158615));
#157 = ( GEOMETRIC_REPRESENTATION_CONTEXT(2) 
PARAMETRIC_REPRESENTATION_CONTEXT() REPRESENTATION_CONTEXT('2D SPACE',''
  ) );
#158 = ADVANCED_FACE('',(#159),#115,.T.);
#159 = FACE_BOUND('',#160,.T.);
#160 = EDGE_LOOP('',(#161,#184,#212,#233));
#161 = ORIENTED_EDGE('',*,*,#162,.T.);
#162 = EDGE_CURVE('',#100,#163,#165,.T.);
#163 = VERTEX_POINT('',#164);
#164 = CARTESIAN_POINT('',(47.822246082452,2.264870855006E-13,
    -3.713862753433E-10));
#165 = SURFACE_CURVE('',#166,(#170,#177),.PCURVE_S1.);
#166 = LINE('',#167,#168);
#167 = CARTESIAN_POINT('',(47.822246082463,2.22044604925E-13,
    0.282660174888));
#168 = VECTOR('',#169,1.);
#169 = DIRECTION('',(3.933801355367E-11,1.224646799827E-16,-1.));
#170 = PCURVE('',#115,#171);
#171 = DEFINITIONAL_REPRESENTATION('',(#172),#176);
#172 = LINE('',#173,#174);
#173 = CARTESIAN_POINT('',(7.960204194306E-15,-65.));
#174 = VECTOR('',#175,1.);
#175 = DIRECTION('',(1.,-1.499994359374E-27));
#176 = ( GEOMETRIC_REPRESENTATION_CONTEXT(2) 
PARAMETRIC_REPRESENTATION_CONTEXT() REPRESENTATION_CONTEXT('2D SPACE',''
  ) );
#177 = PCURVE('',#143,#178);
#178 = DEFINITIONAL_REPRESENTATION('',(#179),#183);
#179 = LINE('',#180,#181);
#180 = CARTESIAN_POINT('',(47.822224646979,-25.31223907239));
#181 = VECTOR('',#182,1.);
#182 = DIRECTION('',(3.933801355367E-11,-1.));
#183 = ( GEOMETRIC_REPRESENTATION_CONTEXT(2) 
PARAMETRIC_REPRESENTATION_CONTEXT() REPRESENTATION_CONTEXT('2D SPACE',''
  ) );
#184 = ORIENTED_EDGE('',*,*,#185,.T.);
#185 = EDGE_CURVE('',#163,#186,#188,.T.);
#186 = VERTEX_POINT('',#187);
#187 = CARTESIAN_POINT('',(47.822246082453,-130.,-3.71402176625E-10));
#188 = SURFACE_CURVE('',#189,(#193,#200),.PCURVE_S1.);
#189 = LINE('',#190,#191);
#190 = CARTESIAN_POINT('',(47.822246082474,-65.,3.373660021049E-09));
#191 = VECTOR('',#192,1.);
#192 = DIRECTION('',(1.7080354225E-15,-1.,-1.222312849227E-16));
#193 = PCURVE('',#115,#194);
#194 = DEFINITIONAL_REPRESENTATION('',(#195),#199);
#195 = LINE('',#196,#197);
#196 = CARTESIAN_POINT('',(0.282660171514,3.461588744794E-17));
#197 = VECTOR('',#198,1.);
#198 = DIRECTION('',(-2.333949913093E-19,1.));
#199 = ( GEOMETRIC_REPRESENTATION_CONTEXT(2) 
PARAMETRIC_REPRESENTATION_CONTEXT() REPRESENTATION_CONTEXT('2D SPACE',''
  ) );
#200 = PCURVE('',#201,#206);
#201 = PLANE('',#202);
#202 = AXIS2_PLACEMENT_3D('',#203,#204,#205);
#203 = CARTESIAN_POINT('',(-53.09120324402,5.21303836306E-14,
    -5.962413018405E-10));
#204 = DIRECTION('',(3.933974446777E-11,1.222312849899E-16,-1.));
#205 = DIRECTION('',(1.,1.727784582068E-15,3.933974446777E-11));
#206 = DEFINITIONAL_REPRESENTATION('',(#207),#211);
#207 = LINE('',#208,#209);
#208 = CARTESIAN_POINT('',(100.91344932649,65.));
#209 = VECTOR('',#210,1.);
#210 = DIRECTION('',(-1.974915957281E-17,1.));
#211 = ( GEOMETRIC_REPRESENTATION_CONTEXT(2) 
PARAMETRIC_REPRESENTATION_CONTEXT() REPRESENTATION_CONTEXT('2D SPACE',''
  ) );
#212 = ORIENTED_EDGE('',*,*,#213,.F.);
#213 = EDGE_CURVE('',#67,#186,#214,.T.);
#214 = SURFACE_CURVE('',#215,(#219,#226),.PCURVE_S1.);
#215 = LINE('',#216,#217);
#216 = CARTESIAN_POINT('',(47.822246081467,-130.,25.594899249162));
#217 = VECTOR('',#218,1.);
#218 = DIRECTION('',(3.933801355367E-11,1.224646799827E-16,-1.));
#219 = PCURVE('',#115,#220);
#220 = DEFINITIONAL_REPRESENTATION('',(#221),#225);
#221 = LINE('',#222,#223);
#222 = CARTESIAN_POINT('',(-25.31223907427,65.));
#223 = VECTOR('',#224,1.);
#224 = DIRECTION('',(1.,-1.499994359374E-27));
#225 = ( GEOMETRIC_REPRESENTATION_CONTEXT(2) 
PARAMETRIC_REPRESENTATION_CONTEXT() REPRESENTATION_CONTEXT('2D SPACE',''
  ) );
#226 = PCURVE('',#83,#227);
#227 = DEFINITIONAL_REPRESENTATION('',(#228),#232);
#228 = LINE('',#229,#230);
#229 = CARTESIAN_POINT('',(47.822224645982,1.881002020809E-09));
#230 = VECTOR('',#231,1.);
#231 = DIRECTION('',(3.933801355367E-11,-1.));
#232 = ( GEOMETRIC_REPRESENTATION_CONTEXT(2) 
PARAMETRIC_REPRESENTATION_CONTEXT() REPRESENTATION_CONTEXT('2D SPACE',''
  ) );
#233 = ORIENTED_EDGE('',*,*,#99,.T.);
#234 = ADVANCED_FACE('',(#235),#249,.T.);
#235 = FACE_BOUND('',#236,.T.);
#236 = EDGE_LOOP('',(#237,#267,#296,#319));
#237 = ORIENTED_EDGE('',*,*,#238,.F.);
#238 = EDGE_CURVE('',#239,#241,#243,.T.);
#239 = VERTEX_POINT('',#240);
#240 = CARTESIAN_POINT('',(-47.82257906064,3.70110491437E-14,
    0.565415534831));
#241 = VERTEX_POINT('',#242);
#242 = CARTESIAN_POINT('',(-47.82220285451,6.12340812665E-14,
    -3.889601835061E-10));
#243 = SURFACE_CURVE('',#244,(#248,#260),.PCURVE_S1.);
#244 = LINE('',#245,#246);
#245 = CARTESIAN_POINT('',(-47.82220285453,6.116484949068E-14,
    0.565320350174));
#246 = VECTOR('',#247,1.);
#247 = DIRECTION('',(3.933801355367E-11,1.224646799827E-16,-1.));
#248 = PCURVE('',#249,#254);
#249 = PLANE('',#250);
#250 = AXIS2_PLACEMENT_3D('',#251,#252,#253);
#251 = CARTESIAN_POINT('',(-47.82220285451,6.12340812665E-14,
    -3.889601835061E-10));
#252 = DIRECTION('',(1.,1.708035422495E-15,3.933801355367E-11));
#253 = DIRECTION('',(-3.933801355367E-11,-1.224646799827E-16,1.));
#254 = DEFINITIONAL_REPRESENTATION('',(#255),#259);
#255 = LINE('',#256,#257);
#256 = CARTESIAN_POINT('',(0.565320350563,4.432954553083E-27));
#257 = VECTOR('',#258,1.);
#258 = DIRECTION('',(-1.,0.));
#259 = ( GEOMETRIC_REPRESENTATION_CONTEXT(2) 
PARAMETRIC_REPRESENTATION_CONTEXT() REPRESENTATION_CONTEXT('2D SPACE',''
  ) );
#260 = PCURVE('',#143,#261);
#261 = DEFINITIONAL_REPRESENTATION('',(#262),#266);
#262 = LINE('',#263,#264);
#263 = CARTESIAN_POINT('',(-47.82222429001,-25.0295788971));
#264 = VECTOR('',#265,1.);
#265 = DIRECTION('',(3.933801355367E-11,-1.));
#266 = ( GEOMETRIC_REPRESENTATION_CONTEXT(2) 
PARAMETRIC_REPRESENTATION_CONTEXT() REPRESENTATION_CONTEXT('2D SPACE',''
  ) );
#267 = ORIENTED_EDGE('',*,*,#268,.T.);
#268 = EDGE_CURVE('',#239,#269,#271,.T.);
#269 = VERTEX_POINT('',#270);
#270 = CARTESIAN_POINT('',(-47.82257906064,-130.,0.565415534831));
#271 = SURFACE_CURVE('',#272,(#277,#285),.PCURVE_S1.);
#272 = B_SPLINE_CURVE_WITH_KNOTS('',3,(#273,#274,#275,#276),
  .UNSPECIFIED.,.F.,.F.,(4,4),(0.,1.),.PIECEWISE_BEZIER_KNOTS.);
#273 = CARTESIAN_POINT('',(-47.82220285453,6.116484949068E-14,
    0.565320350174));
#274 = CARTESIAN_POINT('',(-47.82220285453,-43.33333333333,
    0.565320350174));
#275 = CARTESIAN_POINT('',(-47.82220285453,-86.66666666666,
    0.565320350174));
#276 = CARTESIAN_POINT('',(-47.82220285453,-130.,0.565320350174));
#277 = PCURVE('',#249,#278);
#278 = DEFINITIONAL_REPRESENTATION('',(#279),#284);
#279 = B_SPLINE_CURVE_WITH_KNOTS('',3,(#280,#281,#282,#283),
  .UNSPECIFIED.,.F.,.F.,(4,4),(0.,1.),.PIECEWISE_BEZIER_KNOTS.);
#280 = CARTESIAN_POINT('',(0.565320350563,4.417621069238E-27));
#281 = CARTESIAN_POINT('',(0.565320350563,43.33333333333));
#282 = CARTESIAN_POINT('',(0.565320350563,86.66666666666));
#283 = CARTESIAN_POINT('',(0.565320350563,130.));
#284 = ( GEOMETRIC_REPRESENTATION_CONTEXT(2) 
PARAMETRIC_REPRESENTATION_CONTEXT() REPRESENTATION_CONTEXT('2D SPACE',''
  ) );
#285 = PCURVE('',#286,#291);
#286 = CYLINDRICAL_SURFACE('',#287,46.706249563398);
#287 = AXIS2_PLACEMENT_3D('',#288,#289,#290);
#288 = CARTESIAN_POINT('',(-2.543509082844,-65.,-10.89073218803));
#289 = DIRECTION('',(-1.583033545844E-15,1.,-2.432647017679E-17));
#290 = DIRECTION('',(-0.95638423475,-1.506882281838E-15,0.292111614837)
  );
#291 = DEFINITIONAL_REPRESENTATION('',(#292),#295);
#292 = B_SPLINE_CURVE_WITH_KNOTS('',1,(#293,#294),.UNSPECIFIED.,.F.,.F.,
  (2,2),(1.857983797917E-16,1.),.PIECEWISE_BEZIER_KNOTS.);
#293 = CARTESIAN_POINT('',(-4.862254570408E-02,65.000000000008));
#294 = CARTESIAN_POINT('',(-4.862254570408E-02,-64.99999999999));
#295 = ( GEOMETRIC_REPRESENTATION_CONTEXT(2) 
PARAMETRIC_REPRESENTATION_CONTEXT() REPRESENTATION_CONTEXT('2D SPACE',''
  ) );
#296 = ORIENTED_EDGE('',*,*,#297,.F.);
#297 = EDGE_CURVE('',#298,#269,#300,.T.);
#298 = VERTEX_POINT('',#299);
#299 = CARTESIAN_POINT('',(-47.82220285451,-130.,-3.889760735731E-10));
#300 = SURFACE_CURVE('',#301,(#305,#312),.PCURVE_S1.);
#301 = LINE('',#302,#303);
#302 = CARTESIAN_POINT('',(-47.82220285453,-130.,0.565320350174));
#303 = VECTOR('',#304,1.);
#304 = DIRECTION('',(-3.933801355367E-11,-1.224646799827E-16,1.));
#305 = PCURVE('',#249,#306);
#306 = DEFINITIONAL_REPRESENTATION('',(#307),#311);
#307 = LINE('',#308,#309);
#308 = CARTESIAN_POINT('',(0.565320350563,130.));
#309 = VECTOR('',#310,1.);
#310 = DIRECTION('',(1.,0.));
#311 = ( GEOMETRIC_REPRESENTATION_CONTEXT(2) 
PARAMETRIC_REPRESENTATION_CONTEXT() REPRESENTATION_CONTEXT('2D SPACE',''
  ) );
#312 = PCURVE('',#83,#313);
#313 = DEFINITIONAL_REPRESENTATION('',(#314),#318);
#314 = LINE('',#315,#316);
#315 = CARTESIAN_POINT('',(-47.82222429001,-25.0295788971));
#316 = VECTOR('',#317,1.);
#317 = DIRECTION('',(-3.933801355367E-11,1.));
#318 = ( GEOMETRIC_REPRESENTATION_CONTEXT(2) 
PARAMETRIC_REPRESENTATION_CONTEXT() REPRESENTATION_CONTEXT('2D SPACE',''
  ) );
#319 = ORIENTED_EDGE('',*,*,#320,.F.);
#320 = EDGE_CURVE('',#241,#298,#321,.T.);
#321 = SURFACE_CURVE('',#322,(#326,#333),.PCURVE_S1.);
#322 = LINE('',#323,#324);
#323 = CARTESIAN_POINT('',(-47.82220285451,6.12340812665E-14,
    -3.889601835061E-10));
#324 = VECTOR('',#325,1.);
#325 = DIRECTION('',(1.7080354225E-15,-1.,-1.222312849227E-16));
#326 = PCURVE('',#249,#327);
#327 = DEFINITIONAL_REPRESENTATION('',(#328),#332);
#328 = LINE('',#329,#330);
#329 = CARTESIAN_POINT('',(0.,0.));
#330 = VECTOR('',#331,1.);
#331 = DIRECTION('',(2.333949928093E-19,1.));
#332 = ( GEOMETRIC_REPRESENTATION_CONTEXT(2) 
PARAMETRIC_REPRESENTATION_CONTEXT() REPRESENTATION_CONTEXT('2D SPACE',''
  ) );
#333 = PCURVE('',#334,#339);
#334 = PLANE('',#335);
#335 = AXIS2_PLACEMENT_3D('',#336,#337,#338);
#336 = CARTESIAN_POINT('',(-53.09120324402,5.21303836306E-14,
    -5.962413018405E-10));
#337 = DIRECTION('',(3.933974446777E-11,1.222312849899E-16,-1.));
#338 = DIRECTION('',(1.,1.727784582068E-15,3.933974446777E-11));
#339 = DEFINITIONAL_REPRESENTATION('',(#340),#344);
#340 = LINE('',#341,#342);
#341 = CARTESIAN_POINT('',(5.26900038951,5.664417124938E-27));
#342 = VECTOR('',#343,1.);
#343 = DIRECTION('',(-1.974915957281E-17,1.));
#344 = ( GEOMETRIC_REPRESENTATION_CONTEXT(2) 
PARAMETRIC_REPRESENTATION_CONTEXT() REPRESENTATION_CONTEXT('2D SPACE',''
  ) );
#345 = ADVANCED_FACE('',(#346),#286,.F.);
#346 = FACE_BOUND('',#347,.F.);
#347 = EDGE_LOOP('',(#348,#349,#377,#415));
#348 = ORIENTED_EDGE('',*,*,#268,.T.);
#349 = ORIENTED_EDGE('',*,*,#350,.T.);
#350 = EDGE_CURVE('',#269,#351,#353,.T.);
#351 = VERTEX_POINT('',#352);
#352 = CARTESIAN_POINT('',(-46.46418855572,-130.,4.999999999999));
#353 = SURFACE_CURVE('',#354,(#359,#366),.PCURVE_S1.);
#354 = CIRCLE('',#355,46.706249563398);
#355 = AXIS2_PLACEMENT_3D('',#356,#357,#358);
#356 = CARTESIAN_POINT('',(-2.543509082844,-130.,-10.89073218803));
#357 = DIRECTION('',(-1.583033545844E-15,1.,-2.432647017679E-17));
#358 = DIRECTION('',(-1.,-1.583033545844E-15,0.));
#359 = PCURVE('',#286,#360);
#360 = DEFINITIONAL_REPRESENTATION('',(#361),#365);
#361 = LINE('',#362,#363);
#362 = CARTESIAN_POINT('',(-0.296434010293,-65.));
#363 = VECTOR('',#364,1.);
#364 = DIRECTION('',(1.,2.86101579059E-13));
#365 = ( GEOMETRIC_REPRESENTATION_CONTEXT(2) 
PARAMETRIC_REPRESENTATION_CONTEXT() REPRESENTATION_CONTEXT('2D SPACE',''
  ) );
#366 = PCURVE('',#83,#367);
#367 = DEFINITIONAL_REPRESENTATION('',(#368),#376);
#368 = ( BOUNDED_CURVE() B_SPLINE_CURVE(2,(#369,#370,#371,#372,#373,#374
,#375),.UNSPECIFIED.,.T.,.F.) B_SPLINE_CURVE_WITH_KNOTS((1,2,2,2,2,1),(
    -2.094395102393,0.,2.094395102393,4.188790204786,6.28318530718,
8.377580409573),.UNSPECIFIED.) CURVE() GEOMETRIC_REPRESENTATION_ITEM() 
RATIONAL_B_SPLINE_CURVE((1.,0.5,1.,0.5,1.,0.5,1.)) REPRESENTATION_ITEM(
  '') );
#369 = CARTESIAN_POINT('',(-49.24978008172,-36.48563143531));
#370 = CARTESIAN_POINT('',(-49.24978008172,44.411965839486));
#371 = CARTESIAN_POINT('',(20.80959426337,3.963167202088));
#372 = CARTESIAN_POINT('',(90.868968608467,-36.48563143531));
#373 = CARTESIAN_POINT('',(20.80959426337,-76.93443007271));
#374 = CARTESIAN_POINT('',(-49.24978008172,-117.3832287101));
#375 = CARTESIAN_POINT('',(-49.24978008172,-36.48563143531));
#376 = ( GEOMETRIC_REPRESENTATION_CONTEXT(2) 
PARAMETRIC_REPRESENTATION_CONTEXT() REPRESENTATION_CONTEXT('2D SPACE',''
  ) );
#377 = ORIENTED_EDGE('',*,*,#378,.F.);
#378 = EDGE_CURVE('',#379,#351,#381,.T.);
#379 = VERTEX_POINT('',#380);
#380 = CARTESIAN_POINT('',(-46.46418855572,1.975615963218E-15,
    4.999999999999));
#381 = SURFACE_CURVE('',#382,(#387,#393),.PCURVE_S1.);
#382 = B_SPLINE_CURVE_WITH_KNOTS('',3,(#383,#384,#385,#386),
  .UNSPECIFIED.,.F.,.F.,(4,4),(0.,1.),.PIECEWISE_BEZIER_KNOTS.);
#383 = CARTESIAN_POINT('',(-46.46350698699,-6.814965958097E-14,
    4.999753404857));
#384 = CARTESIAN_POINT('',(-46.46350698699,-43.33333333333,
    4.999753404857));
#385 = CARTESIAN_POINT('',(-46.46350698699,-86.66666666666,
    4.999753404857));
#386 = CARTESIAN_POINT('',(-46.46350698699,-130.,4.999753404857));
#387 = PCURVE('',#286,#388);
#388 = DEFINITIONAL_REPRESENTATION('',(#389),#392);
#389 = B_SPLINE_CURVE_WITH_KNOTS('',1,(#390,#391),.UNSPECIFIED.,.F.,.F.,
  (2,2),(0.,1.),.PIECEWISE_BEZIER_KNOTS.);
#390 = CARTESIAN_POINT('',(5.071877748568E-02,65.000000000008));
#391 = CARTESIAN_POINT('',(5.071877748568E-02,-64.99999999999));
#392 = ( GEOMETRIC_REPRESENTATION_CONTEXT(2) 
PARAMETRIC_REPRESENTATION_CONTEXT() REPRESENTATION_CONTEXT('2D SPACE',''
  ) );
#393 = PCURVE('',#394,#409);
#394 = B_SPLINE_SURFACE_WITH_KNOTS('',3,1,(
    (#395,#396)
    ,(#397,#398)
    ,(#399,#400)
    ,(#401,#402)
    ,(#403,#404)
    ,(#405,#406)
    ,(#407,#408
    )),.UNSPECIFIED.,.F.,.F.,.F.,(4,1,1,1,4),(2,2),(0.398081862006,
    1.641247394463,2.88441292692,4.127578459377,5.370743991834),(0.,1.),
  .UNSPECIFIED.);
#395 = CARTESIAN_POINT('',(2.153116342143E-05,-130.,46.189798495155));
#396 = CARTESIAN_POINT('',(2.153116321397E-05,2.775557561563E-14,
    46.189798495155));
#397 = CARTESIAN_POINT('',(-4.512974088957,-130.,46.189798479743));
#398 = CARTESIAN_POINT('',(-4.512974088957,2.775557561563E-14,
    46.189798479743));
#399 = CARTESIAN_POINT('',(-13.95926091494,-130.,43.645915549719));
#400 = CARTESIAN_POINT('',(-13.95926091494,2.775557561563E-14,
    43.645915549719));
#401 = CARTESIAN_POINT('',(-27.88864342259,-130.,33.635970115327));
#402 = CARTESIAN_POINT('',(-27.88864342259,5.551115123126E-14,
    33.635970115327));
#403 = CARTESIAN_POINT('',(-39.55460718841,-130.,19.75519930115));
#404 = CARTESIAN_POINT('',(-39.55460718841,2.775557561563E-14,
    19.75519930115));
#405 = CARTESIAN_POINT('',(-44.76343334491,-130.,9.731348883579));
#406 = CARTESIAN_POINT('',(-44.76343334491,2.775557561563E-14,
    9.731348883579));
#407 = CARTESIAN_POINT('',(-46.46418906343,-130.,4.999998587593));
#408 = CARTESIAN_POINT('',(-46.46418906343,2.775557561563E-14,
    4.999998587593));
#409 = DEFINITIONAL_REPRESENTATION('',(#410),#414);
#410 = LINE('',#411,#412);
#411 = CARTESIAN_POINT('',(5.370743991834,1.));
#412 = VECTOR('',#413,1.);
#413 = DIRECTION('',(8.881784197001E-16,-1.));
#414 = ( GEOMETRIC_REPRESENTATION_CONTEXT(2) 
PARAMETRIC_REPRESENTATION_CONTEXT() REPRESENTATION_CONTEXT('2D SPACE',''
  ) );
#415 = ORIENTED_EDGE('',*,*,#416,.F.);
#416 = EDGE_CURVE('',#239,#379,#417,.T.);
#417 = SURFACE_CURVE('',#418,(#423,#430),.PCURVE_S1.);
#418 = CIRCLE('',#419,46.706249563398);
#419 = AXIS2_PLACEMENT_3D('',#420,#421,#422);
#420 = CARTESIAN_POINT('',(-2.543509082844,4.163336342344E-14,
    -10.89073218803));
#421 = DIRECTION('',(-1.583033545844E-15,1.,-2.432647017679E-17));
#422 = DIRECTION('',(-1.,-1.583033545844E-15,0.));
#423 = PCURVE('',#286,#424);
#424 = DEFINITIONAL_REPRESENTATION('',(#425),#429);
#425 = LINE('',#426,#427);
#426 = CARTESIAN_POINT('',(-0.296434010292,65.000000000008));
#427 = VECTOR('',#428,1.);
#428 = DIRECTION('',(1.,0.));
#429 = ( GEOMETRIC_REPRESENTATION_CONTEXT(2) 
PARAMETRIC_REPRESENTATION_CONTEXT() REPRESENTATION_CONTEXT('2D SPACE',''
  ) );
#430 = PCURVE('',#143,#431);
#431 = DEFINITIONAL_REPRESENTATION('',(#432),#440);
#432 = ( BOUNDED_CURVE() B_SPLINE_CURVE(2,(#433,#434,#435,#436,#437,#438
,#439),.UNSPECIFIED.,.T.,.F.) B_SPLINE_CURVE_WITH_KNOTS((1,2,2,2,2,1),(
    -2.094395102393,0.,2.094395102393,4.188790204786,6.28318530718,
8.377580409573),.UNSPECIFIED.) CURVE() GEOMETRIC_REPRESENTATION_ITEM() 
RATIONAL_B_SPLINE_CURVE((1.,0.5,1.,0.5,1.,0.5,1.)) REPRESENTATION_ITEM(
  '') );
#433 = CARTESIAN_POINT('',(-49.24978008172,-36.48563143531));
#434 = CARTESIAN_POINT('',(-49.24978008172,44.411965839486));
#435 = CARTESIAN_POINT('',(20.809594263371,3.963167202088));
#436 = CARTESIAN_POINT('',(90.868968608468,-36.48563143531));
#437 = CARTESIAN_POINT('',(20.809594263371,-76.93443007271));
#438 = CARTESIAN_POINT('',(-49.24978008172,-117.3832287101));
#439 = CARTESIAN_POINT('',(-49.24978008172,-36.48563143531));
#440 = ( GEOMETRIC_REPRESENTATION_CONTEXT(2) 
PARAMETRIC_REPRESENTATION_CONTEXT() REPRESENTATION_CONTEXT('2D SPACE',''
  ) );
#441 = ADVANCED_FACE('',(#442),#394,.T.);
#442 = FACE_BOUND('',#443,.T.);
#443 = EDGE_LOOP('',(#444,#481,#502,#537));
#444 = ORIENTED_EDGE('',*,*,#445,.F.);
#445 = EDGE_CURVE('',#446,#379,#448,.T.);
#446 = VERTEX_POINT('',#447);
#447 = CARTESIAN_POINT('',(2.161396570388E-05,1.7763568394E-14,
    46.189798495155));
#448 = SURFACE_CURVE('',#449,(#460,#467),.PCURVE_S1.);
#449 = B_SPLINE_CURVE_WITH_KNOTS('',3,(#450,#451,#452,#453,#454,#455,
    #456,#457,#458,#459),.UNSPECIFIED.,.F.,.F.,(4,2,2,2,4),(
    -5.37074386813,-4.518008685288,-2.903886514588,-0.736613560757,
    -0.398081854403),.UNSPECIFIED.);
#450 = CARTESIAN_POINT('',(2.161396570388E-05,1.7763568394E-14,
    46.189798495155));
#451 = CARTESIAN_POINT('',(-3.095616129225,9.325873406851E-14,
    46.189798495155));
#452 = CARTESIAN_POINT('',(-6.280667737851,9.325873406851E-14,
    45.596930734072));
#453 = CARTESIAN_POINT('',(-15.58429943345,7.549516567451E-14,
    42.356553674861));
#454 = CARTESIAN_POINT('',(-21.75770586266,2.6645352591E-14,
    38.321568610419));
#455 = CARTESIAN_POINT('',(-34.76667067667,9.325873406851E-14,
    26.270575643686));
#456 = CARTESIAN_POINT('',(-41.09134261476,6.217248937901E-14,
    17.378596974825));
#457 = CARTESIAN_POINT('',(-45.47235269884,2.385140465377E-14,
    7.598966252248));
#458 = CARTESIAN_POINT('',(-46.00104846697,1.26118256338E-14,
    6.28841418729));
#459 = CARTESIAN_POINT('',(-46.46418855572,1.975615963218E-15,
    4.999999999999));
#460 = PCURVE('',#394,#461);
#461 = DEFINITIONAL_REPRESENTATION('',(#462),#466);
#462 = LINE('',#463,#464);
#463 = CARTESIAN_POINT('',(5.768825722533,1.));
#464 = VECTOR('',#465,1.);
#465 = DIRECTION('',(1.,-2.232653298294E-17));
#466 = ( GEOMETRIC_REPRESENTATION_CONTEXT(2) 
PARAMETRIC_REPRESENTATION_CONTEXT() REPRESENTATION_CONTEXT('2D SPACE',''
  ) );
#467 = PCURVE('',#143,#468);
#468 = DEFINITIONAL_REPRESENTATION('',(#469),#480);
#469 = B_SPLINE_CURVE_WITH_KNOTS('',3,(#470,#471,#472,#473,#474,#475,
    #476,#477,#478,#479),.UNSPECIFIED.,.F.,.F.,(4,2,2,2,4),(
    -5.37074386813,-4.518008685288,-2.903886514588,-0.736613560757,
    -0.398081854403),.UNSPECIFIED.);
#470 = CARTESIAN_POINT('',(1.784813386E-07,20.594899247874));
#471 = CARTESIAN_POINT('',(-3.095637564709,20.594899247874));
#472 = CARTESIAN_POINT('',(-6.280689173335,20.002031486791));
#473 = CARTESIAN_POINT('',(-15.58432086893,16.76165442758));
#474 = CARTESIAN_POINT('',(-21.75772729814,12.726669363138));
#475 = CARTESIAN_POINT('',(-34.76669211215,0.675676396405));
#476 = CARTESIAN_POINT('',(-41.09136405024,-8.216302272456));
#477 = CARTESIAN_POINT('',(-45.47237413432,-17.99593299503));
#478 = CARTESIAN_POINT('',(-46.00106990245,-19.30648505999));
#479 = CARTESIAN_POINT('',(-46.4642099912,-20.59489924728));
#480 = ( GEOMETRIC_REPRESENTATION_CONTEXT(2) 
PARAMETRIC_REPRESENTATION_CONTEXT() REPRESENTATION_CONTEXT('2D SPACE',''
  ) );
#481 = ORIENTED_EDGE('',*,*,#482,.T.);
#482 = EDGE_CURVE('',#446,#483,#485,.T.);
#483 = VERTEX_POINT('',#484);
#484 = CARTESIAN_POINT('',(2.161396592371E-05,-130.,46.189798495155));
#485 = SURFACE_CURVE('',#486,(#490,#496),.PCURVE_S1.);
#486 = LINE('',#487,#488);
#487 = CARTESIAN_POINT('',(2.161396570388E-05,1.7763568394E-14,
    46.189798495155));
#488 = VECTOR('',#489,1.);
#489 = DIRECTION('',(1.7080354225E-15,-1.,-1.222312849227E-16));
#490 = PCURVE('',#394,#491);
#491 = DEFINITIONAL_REPRESENTATION('',(#492),#495);
#492 = B_SPLINE_CURVE_WITH_KNOTS('',1,(#493,#494),.UNSPECIFIED.,.F.,.F.,
  (2,2),(0.,130.),.PIECEWISE_BEZIER_KNOTS.);
#493 = CARTESIAN_POINT('',(0.398081854403,1.));
#494 = CARTESIAN_POINT('',(0.398081854403,-1.357700640824E-16));
#495 = ( GEOMETRIC_REPRESENTATION_CONTEXT(2) 
PARAMETRIC_REPRESENTATION_CONTEXT() REPRESENTATION_CONTEXT('2D SPACE',''
  ) );
#496 = PCURVE('',#44,#497);
#497 = DEFINITIONAL_REPRESENTATION('',(#498),#501);
#498 = B_SPLINE_CURVE_WITH_KNOTS('',1,(#499,#500),.UNSPECIFIED.,.F.,.F.,
  (2,2),(0.,130.),.PIECEWISE_BEZIER_KNOTS.);
#499 = CARTESIAN_POINT('',(6.218703971582,1.));
#500 = CARTESIAN_POINT('',(6.218703971582,-1.356616438652E-16));
#501 = ( GEOMETRIC_REPRESENTATION_CONTEXT(2) 
PARAMETRIC_REPRESENTATION_CONTEXT() REPRESENTATION_CONTEXT('2D SPACE',''
  ) );
#502 = ORIENTED_EDGE('',*,*,#503,.F.);
#503 = EDGE_CURVE('',#351,#483,#504,.T.);
#504 = SURFACE_CURVE('',#505,(#516,#523),.PCURVE_S1.);
#505 = B_SPLINE_CURVE_WITH_KNOTS('',3,(#506,#507,#508,#509,#510,#511,
    #512,#513,#514,#515),.UNSPECIFIED.,.F.,.F.,(4,2,2,2,4),(
    0.398081854403,0.736613560757,2.903886514588,4.518008685288,
    5.37074386813),.UNSPECIFIED.);
#506 = CARTESIAN_POINT('',(-46.46418855572,-130.,4.999999999999));
#507 = CARTESIAN_POINT('',(-46.00104846697,-130.,6.28841418729));
#508 = CARTESIAN_POINT('',(-45.47235269884,-130.,7.598966252248));
#509 = CARTESIAN_POINT('',(-41.09134261476,-130.,17.378596974825));
#510 = CARTESIAN_POINT('',(-34.76667067666,-130.,26.270575643686));
#511 = CARTESIAN_POINT('',(-21.75770586266,-130.,38.321568610419));
#512 = CARTESIAN_POINT('',(-15.58429943345,-130.,42.356553674861));
#513 = CARTESIAN_POINT('',(-6.280667737851,-130.,45.596930734072));
#514 = CARTESIAN_POINT('',(-3.095616129225,-130.,46.189798495155));
#515 = CARTESIAN_POINT('',(2.161396592593E-05,-130.,46.189798495155));
#516 = PCURVE('',#394,#517);
#517 = DEFINITIONAL_REPRESENTATION('',(#518),#522);
#518 = LINE('',#519,#520);
#519 = CARTESIAN_POINT('',(5.768825722533,-1.357700640824E-16));
#520 = VECTOR('',#521,1.);
#521 = DIRECTION('',(-1.,3.965988956435E-32));
#522 = ( GEOMETRIC_REPRESENTATION_CONTEXT(2) 
PARAMETRIC_REPRESENTATION_CONTEXT() REPRESENTATION_CONTEXT('2D SPACE',''
  ) );
#523 = PCURVE('',#83,#524);
#524 = DEFINITIONAL_REPRESENTATION('',(#525),#536);
#525 = B_SPLINE_CURVE_WITH_KNOTS('',3,(#526,#527,#528,#529,#530,#531,
    #532,#533,#534,#535),.UNSPECIFIED.,.F.,.F.,(4,2,2,2,4),(
    0.398081854403,0.736613560757,2.903886514588,4.518008685288,
    5.37074386813),.UNSPECIFIED.);
#526 = CARTESIAN_POINT('',(-46.4642099912,-20.59489924728));
#527 = CARTESIAN_POINT('',(-46.00106990245,-19.30648505999));
#528 = CARTESIAN_POINT('',(-45.47237413432,-17.99593299503));
#529 = CARTESIAN_POINT('',(-41.09136405024,-8.216302272456));
#530 = CARTESIAN_POINT('',(-34.76669211214,0.675676396405));
#531 = CARTESIAN_POINT('',(-21.75772729814,12.726669363138));
#532 = CARTESIAN_POINT('',(-15.58432086893,16.76165442758));
#533 = CARTESIAN_POINT('',(-6.280689173336,20.002031486791));
#534 = CARTESIAN_POINT('',(-3.09563756471,20.594899247874));
#535 = CARTESIAN_POINT('',(1.784813386E-07,20.594899247874));
#536 = ( GEOMETRIC_REPRESENTATION_CONTEXT(2) 
PARAMETRIC_REPRESENTATION_CONTEXT() REPRESENTATION_CONTEXT('2D SPACE',''
  ) );
#537 = ORIENTED_EDGE('',*,*,#378,.F.);
#538 = ADVANCED_FACE('',(#539),#44,.T.);
#539 = FACE_BOUND('',#540,.T.);
#540 = EDGE_LOOP('',(#541,#576,#577,#634));
#541 = ORIENTED_EDGE('',*,*,#542,.F.);
#542 = EDGE_CURVE('',#24,#446,#543,.T.);
#543 = SURFACE_CURVE('',#544,(#555,#562),.PCURVE_S1.);
#544 = B_SPLINE_CURVE_WITH_KNOTS('',3,(#545,#546,#547,#548,#549,#550,
    #551,#552,#553,#554),.UNSPECIFIED.,.F.,.F.,(4,2,2,2,4),(
    -6.218703971582,-5.795343513743,-3.084998654535,-1.066412246321,0.),
  .UNSPECIFIED.);
#545 = CARTESIAN_POINT('',(46.464231783658,7.0432595176E-14,
    4.999999999999));
#546 = CARTESIAN_POINT('',(46.0010916949,6.5285605483E-14,6.288414187293
    ));
#547 = CARTESIAN_POINT('',(45.472395926776,6.71133218629E-14,
    7.598966252252));
#548 = CARTESIAN_POINT('',(41.091385842698,1.820765760385E-13,
    17.378596974823));
#549 = CARTESIAN_POINT('',(34.766713904606,7.549516567451E-14,
    26.270575643677));
#550 = CARTESIAN_POINT('',(21.757749090606,2.6645352591E-14,
    38.32156861041));
#551 = CARTESIAN_POINT('',(15.584342661396,6.661338147751E-14,
    42.356553674856));
#552 = CARTESIAN_POINT('',(6.280710965786,2.22044604925E-14,
    45.596930734072));
#553 = CARTESIAN_POINT('',(3.095659357159,2.22044604925E-14,
    46.189798495156));
#554 = CARTESIAN_POINT('',(2.161396570388E-05,1.7763568394E-14,
    46.189798495155));
#555 = PCURVE('',#44,#556);
#556 = DEFINITIONAL_REPRESENTATION('',(#557),#561);
#557 = LINE('',#558,#559);
#558 = CARTESIAN_POINT('',(6.218703971582,1.));
#559 = VECTOR('',#560,1.);
#560 = DIRECTION('',(1.,-1.785296469648E-17));
#561 = ( GEOMETRIC_REPRESENTATION_CONTEXT(2) 
PARAMETRIC_REPRESENTATION_CONTEXT() REPRESENTATION_CONTEXT('2D SPACE',''
  ) );
#562 = PCURVE('',#143,#563);
#563 = DEFINITIONAL_REPRESENTATION('',(#564),#575);
#564 = B_SPLINE_CURVE_WITH_KNOTS('',3,(#565,#566,#567,#568,#569,#570,
    #571,#572,#573,#574),.UNSPECIFIED.,.F.,.F.,(4,2,2,2,4),(
    -6.218703971582,-5.795343513743,-3.084998654535,-1.066412246321,0.),
  .UNSPECIFIED.);
#565 = CARTESIAN_POINT('',(46.464210348174,-20.59489924728));
#566 = CARTESIAN_POINT('',(46.001070259416,-19.30648505998));
#567 = CARTESIAN_POINT('',(45.472374491292,-17.99593299502));
#568 = CARTESIAN_POINT('',(41.091364407214,-8.216302272458));
#569 = CARTESIAN_POINT('',(34.766692469122,0.675676396396));
#570 = CARTESIAN_POINT('',(21.757727655122,12.726669363129));
#571 = CARTESIAN_POINT('',(15.584321225912,16.761654427575));
#572 = CARTESIAN_POINT('',(6.280689530302,20.002031486791));
#573 = CARTESIAN_POINT('',(3.095637921675,20.594899247875));
#574 = CARTESIAN_POINT('',(1.784813386E-07,20.594899247874));
#575 = ( GEOMETRIC_REPRESENTATION_CONTEXT(2) 
PARAMETRIC_REPRESENTATION_CONTEXT() REPRESENTATION_CONTEXT('2D SPACE',''
  ) );
#576 = ORIENTED_EDGE('',*,*,#21,.F.);
#577 = ORIENTED_EDGE('',*,*,#578,.F.);
#578 = EDGE_CURVE('',#483,#22,#579,.T.);
#579 = SURFACE_CURVE('',#580,(#591,#620),.PCURVE_S1.);
#580 = B_SPLINE_CURVE_WITH_KNOTS('',3,(#581,#582,#583,#584,#585,#586,
    #587,#588,#589,#590),.UNSPECIFIED.,.F.,.F.,(4,2,2,2,4),(0.,
    1.066412246321,3.084998654535,5.795343513743,6.218703971582),
  .UNSPECIFIED.);
#581 = CARTESIAN_POINT('',(2.161396592593E-05,-130.,46.189798495155));
#582 = CARTESIAN_POINT('',(3.095659357159,-130.,46.189798495156));
#583 = CARTESIAN_POINT('',(6.280710965787,-130.,45.596930734072));
#584 = CARTESIAN_POINT('',(15.584342661397,-130.,42.356553674856));
#585 = CARTESIAN_POINT('',(21.757749090606,-130.,38.32156861041));
#586 = CARTESIAN_POINT('',(34.766713904607,-130.,26.270575643677));
#587 = CARTESIAN_POINT('',(41.091385842698,-130.,17.378596974823));
#588 = CARTESIAN_POINT('',(45.472395926776,-130.,7.598966252252));
#589 = CARTESIAN_POINT('',(46.0010916949,-130.,6.288414187293));
#590 = CARTESIAN_POINT('',(46.464231783658,-130.,4.999999999999));
#591 = PCURVE('',#44,#592);
#592 = DEFINITIONAL_REPRESENTATION('',(#593),#619);
#593 = B_SPLINE_CURVE_WITH_KNOTS('',3,(#594,#595,#596,#597,#598,#599,
    #600,#601,#602,#603,#604,#605,#606,#607,#608,#609,#610,#611,#612,
    #613,#614,#615,#616,#617,#618),.UNSPECIFIED.,.F.,.F.,(4,1,1,1,1,1,1,
    1,1,1,1,1,1,1,1,1,1,1,1,1,1,1,4),(0.,0.282668362345,0.565336724689,
    0.848005087034,1.130673449379,1.413341811723,1.696010174068,
    1.978678536412,2.261346898757,2.544015261102,2.826683623446,
    3.109351985791,3.392020348136,3.67468871048,3.957357072825,
    4.24002543517,4.522693797514,4.805362159859,5.088030522203,
    5.370698884548,5.653367246893,5.936035609237,6.218703971582),
  .QUASI_UNIFORM_KNOTS.);
#594 = CARTESIAN_POINT('',(6.218703962074,0.));
#595 = CARTESIAN_POINT('',(6.12447902113,8.329864795024E-18));
#596 = CARTESIAN_POINT('',(5.936192409169,2.542946271919E-17));
#597 = CARTESIAN_POINT('',(5.653947016985,4.842113745599E-17));
#598 = CARTESIAN_POINT('',(5.371604922565,8.06932501068E-17));
#599 = CARTESIAN_POINT('',(5.088800701802,7.847975548173E-17));
#600 = CARTESIAN_POINT('',(4.805571676107,2.049224186214E-16));
#601 = CARTESIAN_POINT('',(4.522476093951,-1.487740287814E-16));
#602 = CARTESIAN_POINT('',(4.239673181662,-2.234139625904E-17));
#603 = CARTESIAN_POINT('',(3.957036870265,-2.451476841459E-17));
#604 = CARTESIAN_POINT('',(3.674495205711,7.606798216245E-18));
#605 = CARTESIAN_POINT('',(3.391971166351,3.115461437944E-17));
#606 = CARTESIAN_POINT('',(3.10936324416,5.470249362679E-17));
#607 = CARTESIAN_POINT('',(2.826687771728,8.682387100516E-17));
#608 = CARTESIAN_POINT('',(2.544008379701,8.465119277531E-17));
#609 = CARTESIAN_POINT('',(2.26132160235,2.110812388473E-16));
#610 = CARTESIAN_POINT('',(1.978643449563,-1.426055566799E-16));
#611 = CARTESIAN_POINT('',(1.69598469685,-1.619891459225E-17));
#612 = CARTESIAN_POINT('',(1.41336530047,-1.827797688466E-17));
#613 = CARTESIAN_POINT('',(1.130778526099,1.349202163595E-17));
#614 = CARTESIAN_POINT('',(0.848178661427,3.832366390486E-17));
#615 = CARTESIAN_POINT('',(0.565528472586,5.686025281583E-17));
#616 = CARTESIAN_POINT('',(0.282730422215,1.069157249188E-16));
#617 = CARTESIAN_POINT('',(9.422673616029E-02,5.990549975223E-17));
#618 = CARTESIAN_POINT('',(2.571185975058E-14,0.));
#619 = ( GEOMETRIC_REPRESENTATION_CONTEXT(2) 
PARAMETRIC_REPRESENTATION_CONTEXT() REPRESENTATION_CONTEXT('2D SPACE',''
  ) );
#620 = PCURVE('',#83,#621);
#621 = DEFINITIONAL_REPRESENTATION('',(#622),#633);
#622 = B_SPLINE_CURVE_WITH_KNOTS('',3,(#623,#624,#625,#626,#627,#628,
    #629,#630,#631,#632),.UNSPECIFIED.,.F.,.F.,(4,2,2,2,4),(0.,
    1.066412246321,3.084998654535,5.795343513743,6.218703971582),
  .UNSPECIFIED.);
#623 = CARTESIAN_POINT('',(1.784813386E-07,20.594899247874));
#624 = CARTESIAN_POINT('',(3.095637921674,20.594899247875));
#625 = CARTESIAN_POINT('',(6.280689530302,20.002031486791));
#626 = CARTESIAN_POINT('',(15.584321225912,16.761654427575));
#627 = CARTESIAN_POINT('',(21.757727655121,12.726669363129));
#628 = CARTESIAN_POINT('',(34.766692469122,0.675676396396));
#629 = CARTESIAN_POINT('',(41.091364407213,-8.216302272458));
#630 = CARTESIAN_POINT('',(45.472374491291,-17.99593299502));
#631 = CARTESIAN_POINT('',(46.001070259415,-19.30648505998));
#632 = CARTESIAN_POINT('',(46.464210348173,-20.59489924728));
#633 = ( GEOMETRIC_REPRESENTATION_CONTEXT(2) 
PARAMETRIC_REPRESENTATION_CONTEXT() REPRESENTATION_CONTEXT('2D SPACE',''
  ) );
#634 = ORIENTED_EDGE('',*,*,#482,.F.);
#635 = ADVANCED_FACE('',(#636),#666,.T.);
#636 = FACE_BOUND('',#637,.T.);
#637 = EDGE_LOOP('',(#638,#717,#761,#878));
#638 = ORIENTED_EDGE('',*,*,#639,.F.);
#639 = EDGE_CURVE('',#640,#642,#644,.T.);
#640 = VERTEX_POINT('',#641);
#641 = CARTESIAN_POINT('',(2.161396586236E-05,1.375916410959E-13,
    51.189798495158));
#642 = VERTEX_POINT('',#643);
#643 = CARTESIAN_POINT('',(53.118260729262,2.376719292202E-13,
    -5.518099782758E-10));
#644 = SURFACE_CURVE('',#645,(#665,#694),.PCURVE_S1.);
#645 = B_SPLINE_CURVE_WITH_KNOTS('',3,(#646,#647,#648,#649,#650,#651,
    #652,#653,#654,#655,#656,#657,#658,#659,#660,#661,#662,#663,#664),
  .UNSPECIFIED.,.F.,.F.,(4,3,3,3,3,3,4),(-21.80608970588,-19.39372004787
    ,-14.82740282858,-14.17181322572,-8.696233833061,-6.61236976904,
    -6.19717767239),.UNSPECIFIED.);
#646 = CARTESIAN_POINT('',(2.161396448486E-05,1.402053076812E-13,
    51.189798495158));
#647 = CARTESIAN_POINT('',(3.734049903541,1.440117866228E-13,
    51.189798495158));
#648 = CARTESIAN_POINT('',(7.47445285675,1.516247445059E-13,
    50.475749785339));
#649 = CARTESIAN_POINT('',(11.141323892775,1.554312234475E-13,
    49.198609290854));
#650 = CARTESIAN_POINT('',(18.098109888288,1.719259655277E-13,
    46.775618948666));
#651 = CARTESIAN_POINT('',(24.756597815384,1.833454023524E-13,
    42.35924103743));
#652 = CARTESIAN_POINT('',(30.708640095599,1.909583602355E-13,
    36.8455033433));
#653 = CARTESIAN_POINT('',(31.563130608734,1.95399252334E-13,
    36.053936964948));
#654 = CARTESIAN_POINT('',(32.401700462912,1.95399252334E-13,
    35.239964350314));
#655 = CARTESIAN_POINT('',(33.223195171946,1.95399252334E-13,
    34.406395185738));
#656 = CARTESIAN_POINT('',(40.084438059769,2.112595812572E-13,
    27.444304694999));
#657 = CARTESIAN_POINT('',(45.779037918419,2.22679018082E-13,
    19.14460678237));
#658 = CARTESIAN_POINT('',(49.443588240602,2.264854970235E-13,
    10.964313145183));
#659 = CARTESIAN_POINT('',(50.840596546205,2.31560802279E-13,
    7.84580278274));
#660 = CARTESIAN_POINT('',(51.926585492029,2.31560802279E-13,
    4.75811532467));
#661 = CARTESIAN_POINT('',(52.672443335637,2.353672812205E-13,
    1.780057607914));
#662 = CARTESIAN_POINT('',(52.821049133509,2.357325399872E-13,
    1.186705071771));
#663 = CARTESIAN_POINT('',(52.969654931381,2.360967472784E-13,
    0.593352535628));
#664 = CARTESIAN_POINT('',(53.118260729253,2.364599333632E-13,
    -5.150191384473E-10));
#665 = PCURVE('',#666,#689);
#666 = B_SPLINE_SURFACE_WITH_KNOTS('',3,1,(
    (#667,#668)
    ,(#669,#670)
    ,(#671,#672)
    ,(#673,#674)
    ,(#675,#676)
    ,(#677,#678)
    ,(#679,#680)
    ,(#681,#682)
    ,(#683,#684)
    ,(#685,#686)
    ,(#687,#688
    )),.UNSPECIFIED.,.F.,.F.,.F.,(4,1,1,1,1,1,1,1,4),(2,2),(
    -6.90007639958,-6.468821624531,-6.037566849482,-5.606312074432,
    -5.175057299383,-4.312547749284,-3.450038199185,-1.725019098988,
    1.209673484751E-09),(0.,1.),.UNSPECIFIED.);
#667 = CARTESIAN_POINT('',(53.118260729267,1.942890293094E-13,
    -5.701701047064E-10));
#668 = CARTESIAN_POINT('',(53.118260729267,-130.,-5.701701047064E-10));
#669 = CARTESIAN_POINT('',(52.769088796899,1.942890293094E-13,
    1.39417206127));
#670 = CARTESIAN_POINT('',(52.769088796899,-130.,1.39417206127));
#671 = CARTESIAN_POINT('',(52.081051657204,1.942890293094E-13,
    4.181491190732));
#672 = CARTESIAN_POINT('',(52.081051657205,-130.,4.181491190732));
#673 = CARTESIAN_POINT('',(50.547839381996,1.942890293094E-13,
    8.502118957932));
#674 = CARTESIAN_POINT('',(50.547839381997,-130.,8.502118957932));
#675 = CARTESIAN_POINT('',(48.610934330696,1.942890293094E-13,
    12.882913240904));
#676 = CARTESIAN_POINT('',(48.610934330696,-130.,12.882913240904));
#677 = CARTESIAN_POINT('',(45.527388981719,1.942890293094E-13,
    18.719239147284));
#678 = CARTESIAN_POINT('',(45.527388981719,-130.,18.719239147284));
#679 = CARTESIAN_POINT('',(40.813080409855,1.942890293094E-13,
    25.89472814631));
#680 = CARTESIAN_POINT('',(40.813080409855,-130.,25.89472814631));
#681 = CARTESIAN_POINT('',(31.741866828061,1.942890293094E-13,
    36.596046226274));
#682 = CARTESIAN_POINT('',(31.741866828061,-130.,36.596046226274));
#683 = CARTESIAN_POINT('',(18.150675218572,1.942890293094E-13,
    47.463288855863));
#684 = CARTESIAN_POINT('',(18.150675218572,-130.,47.463288855863));
#685 = CARTESIAN_POINT('',(6.040153025475,1.942890293094E-13,
    51.189798497779));
#686 = CARTESIAN_POINT('',(6.040153025475,-130.,51.189798497779));
#687 = CARTESIAN_POINT('',(2.160125748798E-05,1.942890293094E-13,
    51.189798495158));
#688 = CARTESIAN_POINT('',(2.160125776554E-05,-130.,51.189798495158));
#689 = DEFINITIONAL_REPRESENTATION('',(#690),#693);
#690 = B_SPLINE_CURVE_WITH_KNOTS('',1,(#691,#692),.UNSPECIFIED.,.F.,.F.,
  (2,2),(-21.80608970588,-6.19717767239),.PIECEWISE_BEZIER_KNOTS.);
#691 = CARTESIAN_POINT('',(-2.740076066086E-15,4.256094920398E-16));
#692 = CARTESIAN_POINT('',(-6.900076399575,-3.148108062754E-16));
#693 = ( GEOMETRIC_REPRESENTATION_CONTEXT(2) 
PARAMETRIC_REPRESENTATION_CONTEXT() REPRESENTATION_CONTEXT('2D SPACE',''
  ) );
#694 = PCURVE('',#143,#695);
#695 = DEFINITIONAL_REPRESENTATION('',(#696),#716);
#696 = B_SPLINE_CURVE_WITH_KNOTS('',3,(#697,#698,#699,#700,#701,#702,
    #703,#704,#705,#706,#707,#708,#709,#710,#711,#712,#713,#714,#715),
  .UNSPECIFIED.,.F.,.F.,(4,3,3,3,3,3,4),(-21.80608970588,-19.39372004787
    ,-14.82740282858,-14.17181322572,-8.696233833061,-6.61236976904,
    -6.19717767239),.UNSPECIFIED.);
#697 = CARTESIAN_POINT('',(1.7848011958E-07,25.594899247877));
#698 = CARTESIAN_POINT('',(3.734028468057,25.594899247877));
#699 = CARTESIAN_POINT('',(7.474431421266,24.880850538058));
#700 = CARTESIAN_POINT('',(11.141302457291,23.603710043573));
#701 = CARTESIAN_POINT('',(18.098088452804,21.180719701385));
#702 = CARTESIAN_POINT('',(24.7565763799,16.764341790149));
#703 = CARTESIAN_POINT('',(30.708618660115,11.250604096019));
#704 = CARTESIAN_POINT('',(31.56310917325,10.459037717667));
#705 = CARTESIAN_POINT('',(32.401679027428,9.645065103033));
#706 = CARTESIAN_POINT('',(33.223173736462,8.811495938457));
#707 = CARTESIAN_POINT('',(40.084416624285,1.849405447718));
#708 = CARTESIAN_POINT('',(45.779016482935,-6.450292464911));
#709 = CARTESIAN_POINT('',(49.443566805118,-14.63058610209));
#710 = CARTESIAN_POINT('',(50.840575110721,-17.74909646454));
#711 = CARTESIAN_POINT('',(51.926564056545,-20.83678392261));
#712 = CARTESIAN_POINT('',(52.672421900153,-23.81484163936));
#713 = CARTESIAN_POINT('',(52.821027698025,-24.40819417551));
#714 = CARTESIAN_POINT('',(52.969633495897,-25.00154671165));
#715 = CARTESIAN_POINT('',(53.118239293769,-25.59489924779));
#716 = ( GEOMETRIC_REPRESENTATION_CONTEXT(2) 
PARAMETRIC_REPRESENTATION_CONTEXT() REPRESENTATION_CONTEXT('2D SPACE',''
  ) );
#717 = ORIENTED_EDGE('',*,*,#718,.T.);
#718 = EDGE_CURVE('',#640,#719,#721,.T.);
#719 = VERTEX_POINT('',#720);
#720 = CARTESIAN_POINT('',(2.16139660844E-05,-130.,51.189798495158));
#721 = SURFACE_CURVE('',#722,(#726,#732),.PCURVE_S1.);
#722 = LINE('',#723,#724);
#723 = CARTESIAN_POINT('',(2.161396586236E-05,1.375916410959E-13,
    51.189798495158));
#724 = VECTOR('',#725,1.);
#725 = DIRECTION('',(1.7080354225E-15,-1.,-1.222312849227E-16));
#726 = PCURVE('',#666,#727);
#727 = DEFINITIONAL_REPRESENTATION('',(#728),#731);
#728 = B_SPLINE_CURVE_WITH_KNOTS('',1,(#729,#730),.UNSPECIFIED.,.F.,.F.,
  (2,2),(0.,130.),.PIECEWISE_BEZIER_KNOTS.);
#729 = CARTESIAN_POINT('',(-1.338960807914E-13,4.603549232406E-16));
#730 = CARTESIAN_POINT('',(-1.287336454983E-13,1.));
#731 = ( GEOMETRIC_REPRESENTATION_CONTEXT(2) 
PARAMETRIC_REPRESENTATION_CONTEXT() REPRESENTATION_CONTEXT('2D SPACE',''
  ) );
#732 = PCURVE('',#733,#756);
#733 = B_SPLINE_SURFACE_WITH_KNOTS('',3,1,(
    (#734,#735)
    ,(#736,#737)
    ,(#738,#739)
    ,(#740,#741)
    ,(#742,#743)
    ,(#744,#745)
    ,(#746,#747)
    ,(#748,#749)
    ,(#750,#751)
    ,(#752,#753)
    ,(#754,#755
    )),.UNSPECIFIED.,.F.,.F.,.F.,(4,1,1,1,1,1,1,1,4),(2,2),(
    -5.370743869098,-3.991366913432,-2.611989957766,-1.922301479932,
    -1.232613002099,-0.887768763183,-0.542924524266,-0.19808028535,
    0.146763953567),(0.,1.),.UNSPECIFIED.);
#734 = CARTESIAN_POINT('',(2.162667421833E-05,8.326672684689E-14,
    51.189798495158));
#735 = CARTESIAN_POINT('',(2.16266744451E-05,-130.,51.189798495158));
#736 = CARTESIAN_POINT('',(-6.040109797544,8.326672684689E-14,
    51.189798497779));
#737 = CARTESIAN_POINT('',(-6.040109797544,-130.,51.189798497779));
#738 = CARTESIAN_POINT('',(-18.15016014426,8.326672684689E-14,
    47.462659166159));
#739 = CARTESIAN_POINT('',(-18.15016014426,-130.,47.462659166159));
#740 = CARTESIAN_POINT('',(-31.74312117768,8.326672684689E-14,
    36.597777872946));
#741 = CARTESIAN_POINT('',(-31.74312117768,-130.,36.597777872946));
#742 = CARTESIAN_POINT('',(-40.81446906576,8.326672684689E-14,
    25.895391850865));
#743 = CARTESIAN_POINT('',(-40.81446906576,-130.,25.895391850865));
#744 = CARTESIAN_POINT('',(-45.52439443439,8.326672684689E-14,
    18.714545805923));
#745 = CARTESIAN_POINT('',(-45.52439443439,-130.,18.714545805923));
#746 = CARTESIAN_POINT('',(-48.61084280532,8.326672684689E-14,
    12.882839903954));
#747 = CARTESIAN_POINT('',(-48.61084280532,-130.,12.882839903954));
#748 = CARTESIAN_POINT('',(-50.54780915723,8.326672684689E-14,
    8.502138702465));
#749 = CARTESIAN_POINT('',(-50.54780915723,-130.,8.502138702465));
#750 = CARTESIAN_POINT('',(-52.08100471409,8.326672684689E-14,
    4.181485549405));
#751 = CARTESIAN_POINT('',(-52.08100471409,-130.,4.181485549405));
#752 = CARTESIAN_POINT('',(-52.76904556897,8.326672684689E-14,
    1.394172061244));
#753 = CARTESIAN_POINT('',(-52.76904556897,-130.,1.394172061244));
#754 = CARTESIAN_POINT('',(-53.11821750134,8.326672684689E-14,
    -5.973082271848E-10));
#755 = CARTESIAN_POINT('',(-53.11821750134,-130.,-5.973082271848E-10));
#756 = DEFINITIONAL_REPRESENTATION('',(#757),#760);
#757 = B_SPLINE_CURVE_WITH_KNOTS('',1,(#758,#759),.UNSPECIFIED.,.F.,.F.,
  (2,2),(0.,130.),.PIECEWISE_BEZIER_KNOTS.);
#758 = CARTESIAN_POINT('',(-5.37074386813,-4.289112264682E-16));
#759 = CARTESIAN_POINT('',(-5.37074386813,1.));
#760 = ( GEOMETRIC_REPRESENTATION_CONTEXT(2) 
PARAMETRIC_REPRESENTATION_CONTEXT() REPRESENTATION_CONTEXT('2D SPACE',''
  ) );
#761 = ORIENTED_EDGE('',*,*,#762,.T.);
#762 = EDGE_CURVE('',#719,#763,#765,.T.);
#763 = VERTEX_POINT('',#764);
#764 = CARTESIAN_POINT('',(53.118260729267,-130.,-5.70192907027E-10));
#765 = SURFACE_CURVE('',#766,(#784,#857),.PCURVE_S1.);
#766 = B_SPLINE_CURVE_WITH_KNOTS('',3,(#767,#768,#769,#770,#771,#772,
    #773,#774,#775,#776,#777,#778,#779,#780,#781,#782,#783),
  .UNSPECIFIED.,.F.,.F.,(4,1,1,1,1,1,1,1,1,1,1,1,1,1,4),(
    6.236044247803E-12,9.779545992074E-03,1.466931898499E-02,
    1.955909197791E-02,2.444886497083E-02,2.933863796375E-02,
    3.422841095667E-02,3.911818394959E-02,4.889772993543E-02,
    5.378750292835E-02,5.867727592126E-02,6.356704891418E-02,
    6.84568219071E-02,7.334659490002E-02,7.823636789294E-02),
  .UNSPECIFIED.);
#767 = CARTESIAN_POINT('',(2.160761189929E-05,-130.,51.189798495158));
#768 = CARTESIAN_POINT('',(3.321627293978,-130.,51.189798496599));
#769 = CARTESIAN_POINT('',(8.134913130804,-130.,50.364898629539));
#770 = CARTESIAN_POINT('',(14.342999898903,-130.,48.033725003969));
#771 = CARTESIAN_POINT('',(18.714835720853,-130.,45.824390455714));
#772 = CARTESIAN_POINT('',(22.858443062542,-130.,43.230386402279));
#773 = CARTESIAN_POINT('',(26.809322837614,-130.,40.288980803832));
#774 = CARTESIAN_POINT('',(30.544106563605,-130.,37.069719587908));
#775 = CARTESIAN_POINT('',(35.185424174901,-130.,32.510823364045));
#776 = CARTESIAN_POINT('',(39.398383142426,-130.,27.565484284042));
#777 = CARTESIAN_POINT('',(43.191626843533,-130.,22.259585544951));
#778 = CARTESIAN_POINT('',(45.821914023808,-130.,18.078040158325));
#779 = CARTESIAN_POINT('',(48.165951129049,-130.,13.781561836204));
#780 = CARTESIAN_POINT('',(50.203981581474,-130.,9.352614576636));
#781 = CARTESIAN_POINT('',(51.910818557597,-130.,4.782897121489));
#782 = CARTESIAN_POINT('',(52.718661017266,-130.,1.595519864422));
#783 = CARTESIAN_POINT('',(53.118260729267,-130.,-5.701784530632E-10));
#784 = PCURVE('',#666,#785);
#785 = DEFINITIONAL_REPRESENTATION('',(#786),#856);
#786 = B_SPLINE_CURVE_WITH_KNOTS('',3,(#787,#788,#789,#790,#791,#792,
    #793,#794,#795,#796,#797,#798,#799,#800,#801,#802,#803,#804,#805,
    #806,#807,#808,#809,#810,#811,#812,#813,#814,#815,#816,#817,#818,
    #819,#820,#821,#822,#823,#824,#825,#826,#827,#828,#829,#830,#831,
    #832,#833,#834,#835,#836,#837,#838,#839,#840,#841,#842,#843,#844,
    #845,#846,#847,#848,#849,#850,#851,#852,#853,#854,#855),
  .UNSPECIFIED.,.F.,.F.,(4,1,1,1,1,1,1,1,1,1,1,1,1,1,1,1,1,1,1,1,1,1,1,1
    ,1,1,1,1,1,1,1,1,1,1,1,1,1,1,1,1,1,1,1,1,1,1,1,1,1,1,1,1,1,1,1,1,1,1
    ,1,1,1,1,1,1,1,1,4),(6.236044247803E-12,1.185399519671E-03,
    2.370799033106E-03,3.556198546541E-03,4.741598059976E-03,
    5.926997573411E-03,7.112397086846E-03,8.29779660028E-03,
    9.483196113715E-03,1.066859562715E-02,1.185399514059E-02,
    1.303939465402E-02,1.422479416746E-02,1.541019368089E-02,
    1.659559319432E-02,1.778099270776E-02,1.896639222119E-02,
    2.015179173463E-02,2.133719124806E-02,2.25225907615E-02,
    2.370799027493E-02,2.489338978837E-02,2.60787893018E-02,
    2.726418881524E-02,2.844958832867E-02,2.963498784211E-02,
    3.082038735554E-02,3.200578686898E-02,3.319118638241E-02,
    3.437658589585E-02,3.556198540928E-02,3.674738492272E-02,
    3.793278443615E-02,3.911818394959E-02,4.030358346302E-02,
    4.148898297646E-02,4.267438248989E-02,4.385978200333E-02,
    4.504518151676E-02,4.62305810302E-02,4.741598054363E-02,
    4.860138005707E-02,4.97867795705E-02,5.097217908394E-02,
    5.215757859737E-02,5.334297811081E-02,5.452837762424E-02,
    5.571377713768E-02,5.689917665111E-02,5.808457616455E-02,
    5.926997567798E-02,6.045537519142E-02,6.164077470485E-02,
    6.282617421829E-02,6.401157373172E-02,6.519697324516E-02,
    6.638237275859E-02,6.756777227203E-02,6.875317178546E-02,
    6.99385712989E-02,7.112397081233E-02,7.230937032577E-02,
    7.34947698392E-02,7.468016935264E-02,7.586556886607E-02,
    7.705096837951E-02,7.823636789294E-02),.UNSPECIFIED.);
#787 = CARTESIAN_POINT('',(1.209673484751E-09,1.));
#788 = CARTESIAN_POINT('',(-3.832889693868E-02,1.));
#789 = CARTESIAN_POINT('',(-0.114656383228,1.));
#790 = CARTESIAN_POINT('',(-0.228254457207,1.));
#791 = CARTESIAN_POINT('',(-0.341055670726,1.));
#792 = CARTESIAN_POINT('',(-0.453161497284,1.));
#793 = CARTESIAN_POINT('',(-0.564672399416,1.));
#794 = CARTESIAN_POINT('',(-0.675684992368,1.));
#795 = CARTESIAN_POINT('',(-0.786292871558,1.));
#796 = CARTESIAN_POINT('',(-0.896573478218,1.));
#797 = CARTESIAN_POINT('',(-1.006630789945,1.));
#798 = CARTESIAN_POINT('',(-1.116312260802,1.));
#799 = CARTESIAN_POINT('',(-1.225388203156,1.));
#800 = CARTESIAN_POINT('',(-1.333664101773,1.));
#801 = CARTESIAN_POINT('',(-1.440902862552,1.));
#802 = CARTESIAN_POINT('',(-1.547111641361,1.));
#803 = CARTESIAN_POINT('',(-1.652428679767,1.));
#804 = CARTESIAN_POINT('',(-1.756953880946,1.));
#805 = CARTESIAN_POINT('',(-1.860786328496,1.));
#806 = CARTESIAN_POINT('',(-1.964011658794,1.));
#807 = CARTESIAN_POINT('',(-2.066715558048,1.));
#808 = CARTESIAN_POINT('',(-2.168977908268,1.));
#809 = CARTESIAN_POINT('',(-2.270883783766,1.));
#810 = CARTESIAN_POINT('',(-2.372479373543,1.));
#811 = CARTESIAN_POINT('',(-2.473747865522,1.));
#812 = CARTESIAN_POINT('',(-2.574682096562,1.));
#813 = CARTESIAN_POINT('',(-2.675272003661,1.));
#814 = CARTESIAN_POINT('',(-2.775501858712,1.));
#815 = CARTESIAN_POINT('',(-2.875337193661,1.));
#816 = CARTESIAN_POINT('',(-2.974746329881,1.));
#817 = CARTESIAN_POINT('',(-3.073692130029,1.));
#818 = CARTESIAN_POINT('',(-3.172151732066,1.));
#819 = CARTESIAN_POINT('',(-3.270221021973,1.));
#820 = CARTESIAN_POINT('',(-3.367983794835,1.));
#821 = CARTESIAN_POINT('',(-3.465524515136,1.));
#822 = CARTESIAN_POINT('',(-3.562925159397,1.));
#823 = CARTESIAN_POINT('',(-3.660237995069,1.));
#824 = CARTESIAN_POINT('',(-3.757515337633,1.));
#825 = CARTESIAN_POINT('',(-3.854809701037,1.));
#826 = CARTESIAN_POINT('',(-3.95217385218,1.));
#827 = CARTESIAN_POINT('',(-4.049660974747,1.));
#828 = CARTESIAN_POINT('',(-4.147324569431,1.));
#829 = CARTESIAN_POINT('',(-4.245219364662,1.));
#830 = CARTESIAN_POINT('',(-4.343398503493,1.));
#831 = CARTESIAN_POINT('',(-4.441933824819,1.));
#832 = CARTESIAN_POINT('',(-4.540904114279,1.));
#833 = CARTESIAN_POINT('',(-4.640384380971,1.));
#834 = CARTESIAN_POINT('',(-4.740473826841,1.));
#835 = CARTESIAN_POINT('',(-4.841159539306,1.));
#836 = CARTESIAN_POINT('',(-4.94236158526,1.));
#837 = CARTESIAN_POINT('',(-5.044021010446,1.));
#838 = CARTESIAN_POINT('',(-5.146056766917,1.));
#839 = CARTESIAN_POINT('',(-5.248475203163,1.));
#840 = CARTESIAN_POINT('',(-5.351369271159,1.));
#841 = CARTESIAN_POINT('',(-5.454816489299,1.));
#842 = CARTESIAN_POINT('',(-5.55890581624,1.));
#843 = CARTESIAN_POINT('',(-5.663720856957,1.));
#844 = CARTESIAN_POINT('',(-5.76935351468,1.));
#845 = CARTESIAN_POINT('',(-5.87591499544,1.));
#846 = CARTESIAN_POINT('',(-5.983523536021,1.));
#847 = CARTESIAN_POINT('',(-6.092300892471,1.));
#848 = CARTESIAN_POINT('',(-6.202428823365,1.));
#849 = CARTESIAN_POINT('',(-6.314160882839,1.));
#850 = CARTESIAN_POINT('',(-6.427750587171,1.));
#851 = CARTESIAN_POINT('',(-6.543589834916,1.));
#852 = CARTESIAN_POINT('',(-6.66136769129,1.));
#853 = CARTESIAN_POINT('',(-6.780413722509,1.));
#854 = CARTESIAN_POINT('',(-6.860192321934,1.));
#855 = CARTESIAN_POINT('',(-6.90007639958,1.));
#856 = ( GEOMETRIC_REPRESENTATION_CONTEXT(2) 
PARAMETRIC_REPRESENTATION_CONTEXT() REPRESENTATION_CONTEXT('2D SPACE',''
  ) );
#857 = PCURVE('',#83,#858);
#858 = DEFINITIONAL_REPRESENTATION('',(#859),#877);
#859 = B_SPLINE_CURVE_WITH_KNOTS('',3,(#860,#861,#862,#863,#864,#865,
    #866,#867,#868,#869,#870,#871,#872,#873,#874,#875,#876),
  .UNSPECIFIED.,.F.,.F.,(4,1,1,1,1,1,1,1,1,1,1,1,1,1,4),(
    6.236044247803E-12,9.779545992074E-03,1.466931898499E-02,
    1.955909197791E-02,2.444886497083E-02,2.933863796375E-02,
    3.422841095667E-02,3.911818394959E-02,4.889772993543E-02,
    5.378750292835E-02,5.867727592126E-02,6.356704891418E-02,
    6.84568219071E-02,7.334659490002E-02,7.823636789294E-02),
  .UNSPECIFIED.);
#860 = CARTESIAN_POINT('',(1.7212731196E-07,25.594899247877));
#861 = CARTESIAN_POINT('',(3.321605858493,25.594899249318));
#862 = CARTESIAN_POINT('',(8.134891695319,24.769999382258));
#863 = CARTESIAN_POINT('',(14.342978463418,22.438825756688));
#864 = CARTESIAN_POINT('',(18.714814285368,20.229491208433));
#865 = CARTESIAN_POINT('',(22.858421627057,17.635487154998));
#866 = CARTESIAN_POINT('',(26.809301402129,14.694081556551));
#867 = CARTESIAN_POINT('',(30.54408512812,11.474820340627));
#868 = CARTESIAN_POINT('',(35.185402739416,6.915924116764));
#869 = CARTESIAN_POINT('',(39.398361706941,1.970585036761));
#870 = CARTESIAN_POINT('',(43.191605408048,-3.33531370233));
#871 = CARTESIAN_POINT('',(45.821892588323,-7.516859088956));
#872 = CARTESIAN_POINT('',(48.165929693564,-11.81333741107));
#873 = CARTESIAN_POINT('',(50.203960145989,-16.24228467064));
#874 = CARTESIAN_POINT('',(51.910797122112,-20.81200212579));
#875 = CARTESIAN_POINT('',(52.718639581781,-23.99937938285));
#876 = CARTESIAN_POINT('',(53.118239293782,-25.59489924785));
#877 = ( GEOMETRIC_REPRESENTATION_CONTEXT(2) 
PARAMETRIC_REPRESENTATION_CONTEXT() REPRESENTATION_CONTEXT('2D SPACE',''
  ) );
#878 = ORIENTED_EDGE('',*,*,#879,.T.);
#879 = EDGE_CURVE('',#763,#642,#880,.T.);
#880 = SURFACE_CURVE('',#881,(#885,#891),.PCURVE_S1.);
#881 = LINE('',#882,#883);
#882 = CARTESIAN_POINT('',(53.118260729267,-65.,-5.70211620976E-10));
#883 = VECTOR('',#884,1.);
#884 = DIRECTION('',(-4.803849625782E-15,1.,1.222312848951E-16));
#885 = PCURVE('',#666,#886);
#886 = DEFINITIONAL_REPRESENTATION('',(#887),#890);
#887 = B_SPLINE_CURVE_WITH_KNOTS('',1,(#888,#889),.UNSPECIFIED.,.F.,.F.,
  (2,2),(-65.,65.),.PIECEWISE_BEZIER_KNOTS.);
#888 = CARTESIAN_POINT('',(-6.90007639958,1.));
#889 = CARTESIAN_POINT('',(-6.90007639958,-3.542300255747E-16));
#890 = ( GEOMETRIC_REPRESENTATION_CONTEXT(2) 
PARAMETRIC_REPRESENTATION_CONTEXT() REPRESENTATION_CONTEXT('2D SPACE',''
  ) );
#891 = PCURVE('',#201,#892);
#892 = DEFINITIONAL_REPRESENTATION('',(#893),#897);
#893 = LINE('',#894,#895);
#894 = CARTESIAN_POINT('',(106.20946397328,65.));
#895 = VECTOR('',#896,1.);
#896 = DIRECTION('',(-3.076065043709E-15,-1.));
#897 = ( GEOMETRIC_REPRESENTATION_CONTEXT(2) 
PARAMETRIC_REPRESENTATION_CONTEXT() REPRESENTATION_CONTEXT('2D SPACE',''
  ) );
#898 = ADVANCED_FACE('',(#899),#201,.T.);
#899 = FACE_BOUND('',#900,.T.);
#900 = EDGE_LOOP('',(#901,#922,#923,#944));
#901 = ORIENTED_EDGE('',*,*,#902,.T.);
#902 = EDGE_CURVE('',#163,#642,#903,.T.);
#903 = SURFACE_CURVE('',#904,(#908,#915),.PCURVE_S1.);
#904 = LINE('',#905,#906);
#905 = CARTESIAN_POINT('',(-53.09120324402,5.21303836306E-14,
    -5.962413018405E-10));
#906 = VECTOR('',#907,1.);
#907 = DIRECTION('',(1.,1.727784582068E-15,3.933974446777E-11));
#908 = PCURVE('',#201,#909);
#909 = DEFINITIONAL_REPRESENTATION('',(#910),#914);
#910 = LINE('',#911,#912);
#911 = CARTESIAN_POINT('',(0.,0.));
#912 = VECTOR('',#913,1.);
#913 = DIRECTION('',(1.,-4.586702121306E-32));
#914 = ( GEOMETRIC_REPRESENTATION_CONTEXT(2) 
PARAMETRIC_REPRESENTATION_CONTEXT() REPRESENTATION_CONTEXT('2D SPACE',''
  ) );
#915 = PCURVE('',#143,#916);
#916 = DEFINITIONAL_REPRESENTATION('',(#917),#921);
#917 = LINE('',#918,#919);
#918 = CARTESIAN_POINT('',(-53.0912246795,-25.59489924787));
#919 = VECTOR('',#920,1.);
#920 = DIRECTION('',(1.,3.933974446777E-11));
#921 = ( GEOMETRIC_REPRESENTATION_CONTEXT(2) 
PARAMETRIC_REPRESENTATION_CONTEXT() REPRESENTATION_CONTEXT('2D SPACE',''
  ) );
#922 = ORIENTED_EDGE('',*,*,#879,.F.);
#923 = ORIENTED_EDGE('',*,*,#924,.F.);
#924 = EDGE_CURVE('',#186,#763,#925,.T.);
#925 = SURFACE_CURVE('',#926,(#930,#937),.PCURVE_S1.);
#926 = LINE('',#927,#928);
#927 = CARTESIAN_POINT('',(2.143649148412E-05,-130.,1.492337503572E-09)
  );
#928 = VECTOR('',#929,1.);
#929 = DIRECTION('',(1.,1.727784582068E-15,3.933974446777E-11));
#930 = PCURVE('',#201,#931);
#931 = DEFINITIONAL_REPRESENTATION('',(#932),#936);
#932 = LINE('',#933,#934);
#933 = CARTESIAN_POINT('',(53.091224680511,130.));
#934 = VECTOR('',#935,1.);
#935 = DIRECTION('',(1.,-4.586702121306E-32));
#936 = ( GEOMETRIC_REPRESENTATION_CONTEXT(2) 
PARAMETRIC_REPRESENTATION_CONTEXT() REPRESENTATION_CONTEXT('2D SPACE',''
  ) );
#937 = PCURVE('',#83,#938);
#938 = DEFINITIONAL_REPRESENTATION('',(#939),#943);
#939 = LINE('',#940,#941);
#940 = CARTESIAN_POINT('',(1.006896789999E-09,-25.59489924578));
#941 = VECTOR('',#942,1.);
#942 = DIRECTION('',(1.,3.933974446777E-11));
#943 = ( GEOMETRIC_REPRESENTATION_CONTEXT(2) 
PARAMETRIC_REPRESENTATION_CONTEXT() REPRESENTATION_CONTEXT('2D SPACE',''
  ) );
#944 = ORIENTED_EDGE('',*,*,#185,.F.);
#945 = ADVANCED_FACE('',(#946),#733,.T.);
#946 = FACE_BOUND('',#947,.T.);
#947 = EDGE_LOOP('',(#948,#1002,#1003,#1057));
#948 = ORIENTED_EDGE('',*,*,#949,.F.);
#949 = EDGE_CURVE('',#719,#950,#952,.T.);
#950 = VERTEX_POINT('',#951);
#951 = CARTESIAN_POINT('',(-53.11821750134,-130.,-5.973242058088E-10));
#952 = SURFACE_CURVE('',#953,(#973,#979),.PCURVE_S1.);
#953 = B_SPLINE_CURVE_WITH_KNOTS('',3,(#954,#955,#956,#957,#958,#959,
    #960,#961,#962,#963,#964,#965,#966,#967,#968,#969,#970,#971,#972),
  .UNSPECIFIED.,.F.,.F.,(4,3,3,3,3,3,4),(-7.785098297255,-7.212102583953
    ,-6.127492609877,-4.826911038794,-4.671192767806,-4.176225020296,
    -4.077606928826),.UNSPECIFIED.);
#954 = CARTESIAN_POINT('',(2.16139660844E-05,-130.,51.189798495158));
#955 = CARTESIAN_POINT('',(-3.734006675607,-130.,51.189798495158));
#956 = CARTESIAN_POINT('',(-7.474409628814,-130.,50.47574978534));
#957 = CARTESIAN_POINT('',(-11.14128066483,-130.,49.198609290857));
#958 = CARTESIAN_POINT('',(-18.09806666034,-130.,46.775618948672));
#959 = CARTESIAN_POINT('',(-24.75655458743,-130.,42.35924103744));
#960 = CARTESIAN_POINT('',(-30.70859686765,-130.,36.845503343315));
#961 = CARTESIAN_POINT('',(-37.84542549417,-130.,30.234226211534));
#962 = CARTESIAN_POINT('',(-43.89829645322,-130.,22.08563084486));
#963 = CARTESIAN_POINT('',(-48.04060456368,-130.,13.903879275964));
#964 = CARTESIAN_POINT('',(-48.53656196551,-130.,12.924280428581));
#965 = CARTESIAN_POINT('',(-49.0047894184,-130.,11.943737434799));
#966 = CARTESIAN_POINT('',(-49.44354501267,-130.,10.964313145175));
#967 = CARTESIAN_POINT('',(-50.84055331827,-130.,7.845802782745));
#968 = CARTESIAN_POINT('',(-51.92654226409,-130.,4.758115324688));
#969 = CARTESIAN_POINT('',(-52.6724001077,-130.,1.780057607943));
#970 = CARTESIAN_POINT('',(-52.82100590558,-130.,1.186705071763));
#971 = CARTESIAN_POINT('',(-52.96961170346,-130.,0.593352535583));
#972 = CARTESIAN_POINT('',(-53.11821750134,-130.,-5.973183059282E-10));
#973 = PCURVE('',#733,#974);
#974 = DEFINITIONAL_REPRESENTATION('',(#975),#978);
#975 = B_SPLINE_CURVE_WITH_KNOTS('',1,(#976,#977),.UNSPECIFIED.,.F.,.F.,
  (2,2),(-7.785098297255,-4.077606928826),.PIECEWISE_BEZIER_KNOTS.);
#976 = CARTESIAN_POINT('',(-5.37074386813,1.));
#977 = CARTESIAN_POINT('',(0.146763953567,1.));
#978 = ( GEOMETRIC_REPRESENTATION_CONTEXT(2) 
PARAMETRIC_REPRESENTATION_CONTEXT() REPRESENTATION_CONTEXT('2D SPACE',''
  ) );
#979 = PCURVE('',#83,#980);
#980 = DEFINITIONAL_REPRESENTATION('',(#981),#1001);
#981 = B_SPLINE_CURVE_WITH_KNOTS('',3,(#982,#983,#984,#985,#986,#987,
    #988,#989,#990,#991,#992,#993,#994,#995,#996,#997,#998,#999,#1000),
  .UNSPECIFIED.,.F.,.F.,(4,3,3,3,3,3,4),(-7.785098297255,-7.212102583953
    ,-6.127492609877,-4.826911038794,-4.671192767806,-4.176225020296,
    -4.077606928826),.UNSPECIFIED.);
#982 = CARTESIAN_POINT('',(1.7848149707E-07,25.594899247877));
#983 = CARTESIAN_POINT('',(-3.734028111092,25.594899247877));
#984 = CARTESIAN_POINT('',(-7.474431064299,24.880850538059));
#985 = CARTESIAN_POINT('',(-11.14130210031,23.603710043576));
#986 = CARTESIAN_POINT('',(-18.09808809582,21.180719701391));
#987 = CARTESIAN_POINT('',(-24.75657602291,16.764341790159));
#988 = CARTESIAN_POINT('',(-30.70861830313,11.250604096034));
#989 = CARTESIAN_POINT('',(-37.84544692965,4.639326964253));
#990 = CARTESIAN_POINT('',(-43.8983178887,-3.509268402421));
#991 = CARTESIAN_POINT('',(-48.04062599916,-11.69101997131));
#992 = CARTESIAN_POINT('',(-48.53658340099,-12.6706188187));
#993 = CARTESIAN_POINT('',(-49.00481085388,-13.65116181248));
#994 = CARTESIAN_POINT('',(-49.44356644815,-14.6305861021));
#995 = CARTESIAN_POINT('',(-50.84057475375,-17.74909646453));
#996 = CARTESIAN_POINT('',(-51.92656369957,-20.83678392259));
#997 = CARTESIAN_POINT('',(-52.67242154318,-23.81484163933));
#998 = CARTESIAN_POINT('',(-52.82102734106,-24.40819417551));
#999 = CARTESIAN_POINT('',(-52.96963313894,-25.00154671169));
#1000 = CARTESIAN_POINT('',(-53.11823893682,-25.59489924787));
#1001 = ( GEOMETRIC_REPRESENTATION_CONTEXT(2) 
PARAMETRIC_REPRESENTATION_CONTEXT() REPRESENTATION_CONTEXT('2D SPACE',''
  ) );
#1002 = ORIENTED_EDGE('',*,*,#718,.F.);
#1003 = ORIENTED_EDGE('',*,*,#1004,.F.);
#1004 = EDGE_CURVE('',#1005,#640,#1007,.T.);
#1005 = VERTEX_POINT('',#1006);
#1006 = CARTESIAN_POINT('',(-53.11821750134,5.20837088133E-14,
    -5.973057585371E-10));
#1007 = SURFACE_CURVE('',#1008,(#1028,#1034),.PCURVE_S1.);
#1008 = B_SPLINE_CURVE_WITH_KNOTS('',3,(#1009,#1010,#1011,#1012,#1013,
    #1014,#1015,#1016,#1017,#1018,#1019,#1020,#1021,#1022,#1023,#1024,
    #1025,#1026,#1027),.UNSPECIFIED.,.F.,.F.,(4,3,3,3,3,3,4),(
    -4.711152089083,-4.585836941594,-3.956875709866,-3.759002704977,
    -2.106338685902,-0.728112268783,0.),.UNSPECIFIED.);
#1009 = CARTESIAN_POINT('',(-53.11821750134,5.279893007181E-14,
    -5.965039573397E-10));
#1010 = CARTESIAN_POINT('',(-52.96961170346,5.296285510854E-14,
    0.593352535583));
#1011 = CARTESIAN_POINT('',(-52.82100590558,5.312678014528E-14,
    1.186705071763));
#1012 = CARTESIAN_POINT('',(-52.6724001077,5.329070518201E-14,
    1.780057607943));
#1013 = CARTESIAN_POINT('',(-51.92654226409,5.392511833894E-14,
    4.758115324688));
#1014 = CARTESIAN_POINT('',(-50.84055331827,5.392511833894E-14,
    7.845802782745));
#1015 = CARTESIAN_POINT('',(-49.44354501267,5.773159728051E-14,
    10.964313145175));
#1016 = CARTESIAN_POINT('',(-49.0047894184,5.773159728051E-14,
    11.943737434799));
#1017 = CARTESIAN_POINT('',(-48.53656196551,5.773159728051E-14,
    12.924280428582));
#1018 = CARTESIAN_POINT('',(-48.04060456368,5.773159728051E-14,
    13.903879275964));
#1019 = CARTESIAN_POINT('',(-43.89829645322,6.915103410522E-14,
    22.08563084486));
#1020 = CARTESIAN_POINT('',(-37.84542549417,7.676399198837E-14,
    30.234226211534));
#1021 = CARTESIAN_POINT('',(-30.70859686765,8.437694987151E-14,
    36.845503343315));
#1022 = CARTESIAN_POINT('',(-24.75655458743,9.579638669623E-14,
    42.35924103744));
#1023 = CARTESIAN_POINT('',(-18.09806666034,1.084846498348E-13,
    46.775618948672));
#1024 = CARTESIAN_POINT('',(-11.14128066483,1.199040866595E-13,
    49.198609290857));
#1025 = CARTESIAN_POINT('',(-7.474409628814,1.256138050719E-13,
    50.47574978534));
#1026 = CARTESIAN_POINT('',(-3.734006675607,1.33226762955E-13,
    51.189798495158));
#1027 = CARTESIAN_POINT('',(2.161396586236E-05,1.42108547152E-13,
    51.189798495158));
#1028 = PCURVE('',#733,#1029);
#1029 = DEFINITIONAL_REPRESENTATION('',(#1030),#1033);
#1030 = B_SPLINE_CURVE_WITH_KNOTS('',1,(#1031,#1032),.UNSPECIFIED.,.F.,
  .F.,(2,2),(-4.711152089083,0.),.PIECEWISE_BEZIER_KNOTS.);
#1031 = CARTESIAN_POINT('',(0.146763953567,2.233405653343E-16));
#1032 = CARTESIAN_POINT('',(-5.37074386813,-4.289112264682E-16));
#1033 = ( GEOMETRIC_REPRESENTATION_CONTEXT(2) 
PARAMETRIC_REPRESENTATION_CONTEXT() REPRESENTATION_CONTEXT('2D SPACE',''
  ) );
#1034 = PCURVE('',#143,#1035);
#1035 = DEFINITIONAL_REPRESENTATION('',(#1036),#1056);
#1036 = B_SPLINE_CURVE_WITH_KNOTS('',3,(#1037,#1038,#1039,#1040,#1041,
    #1042,#1043,#1044,#1045,#1046,#1047,#1048,#1049,#1050,#1051,#1052,
    #1053,#1054,#1055),.UNSPECIFIED.,.F.,.F.,(4,3,3,3,3,3,4),(
    -4.711152089083,-4.585836941594,-3.956875709866,-3.759002704977,
    -2.106338685902,-0.728112268783,0.),.UNSPECIFIED.);
#1037 = CARTESIAN_POINT('',(-53.11823893682,-25.59489924787));
#1038 = CARTESIAN_POINT('',(-52.96963313894,-25.00154671169));
#1039 = CARTESIAN_POINT('',(-52.82102734106,-24.40819417551));
#1040 = CARTESIAN_POINT('',(-52.67242154318,-23.81484163933));
#1041 = CARTESIAN_POINT('',(-51.92656369957,-20.83678392259));
#1042 = CARTESIAN_POINT('',(-50.84057475375,-17.74909646453));
#1043 = CARTESIAN_POINT('',(-49.44356644815,-14.6305861021));
#1044 = CARTESIAN_POINT('',(-49.00481085388,-13.65116181248));
#1045 = CARTESIAN_POINT('',(-48.53658340099,-12.67061881869));
#1046 = CARTESIAN_POINT('',(-48.04062599916,-11.69101997131));
#1047 = CARTESIAN_POINT('',(-43.8983178887,-3.509268402421));
#1048 = CARTESIAN_POINT('',(-37.84544692965,4.639326964253));
#1049 = CARTESIAN_POINT('',(-30.70861830313,11.250604096034));
#1050 = CARTESIAN_POINT('',(-24.75657602291,16.764341790159));
#1051 = CARTESIAN_POINT('',(-18.09808809582,21.180719701391));
#1052 = CARTESIAN_POINT('',(-11.14130210031,23.603710043576));
#1053 = CARTESIAN_POINT('',(-7.474431064298,24.880850538059));
#1054 = CARTESIAN_POINT('',(-3.734028111091,25.594899247877));
#1055 = CARTESIAN_POINT('',(1.7848149708E-07,25.594899247877));
#1056 = ( GEOMETRIC_REPRESENTATION_CONTEXT(2) 
PARAMETRIC_REPRESENTATION_CONTEXT() REPRESENTATION_CONTEXT('2D SPACE',''
  ) );
#1057 = ORIENTED_EDGE('',*,*,#1058,.T.);
#1058 = EDGE_CURVE('',#1005,#950,#1059,.T.);
#1059 = SURFACE_CURVE('',#1060,(#1064,#1070),.PCURVE_S1.);
#1060 = LINE('',#1061,#1062);
#1061 = CARTESIAN_POINT('',(-53.11821750134,-65.,-5.973162607752E-10));
#1062 = VECTOR('',#1063,1.);
#1063 = DIRECTION('',(1.547907101641E-15,-1.,-1.222312849231E-16));
#1064 = PCURVE('',#733,#1065);
#1065 = DEFINITIONAL_REPRESENTATION('',(#1066),#1069);
#1066 = B_SPLINE_CURVE_WITH_KNOTS('',1,(#1067,#1068),.UNSPECIFIED.,.F.,
  .F.,(2,2),(-65.,65.),.PIECEWISE_BEZIER_KNOTS.);
#1067 = CARTESIAN_POINT('',(0.146763953567,2.233405653343E-16));
#1068 = CARTESIAN_POINT('',(0.146763953567,1.));
#1069 = ( GEOMETRIC_REPRESENTATION_CONTEXT(2) 
PARAMETRIC_REPRESENTATION_CONTEXT() REPRESENTATION_CONTEXT('2D SPACE',''
  ) );
#1070 = PCURVE('',#334,#1071);
#1071 = DEFINITIONAL_REPRESENTATION('',(#1072),#1076);
#1072 = LINE('',#1073,#1074);
#1073 = CARTESIAN_POINT('',(-2.701425732011E-02,65.));
#1074 = VECTOR('',#1075,1.);
#1075 = DIRECTION('',(-1.798774804318E-16,1.));
#1076 = ( GEOMETRIC_REPRESENTATION_CONTEXT(2) 
PARAMETRIC_REPRESENTATION_CONTEXT() REPRESENTATION_CONTEXT('2D SPACE',''
  ) );
#1077 = ADVANCED_FACE('',(#1078),#334,.T.);
#1078 = FACE_BOUND('',#1079,.T.);
#1079 = EDGE_LOOP('',(#1080,#1101,#1102,#1123));
#1080 = ORIENTED_EDGE('',*,*,#1081,.F.);
#1081 = EDGE_CURVE('',#950,#298,#1082,.T.);
#1082 = SURFACE_CURVE('',#1083,(#1087,#1094),.PCURVE_S1.);
#1083 = LINE('',#1084,#1085);
#1084 = CARTESIAN_POINT('',(-53.09120324402,-130.,-5.962571919076E-10));
#1085 = VECTOR('',#1086,1.);
#1086 = DIRECTION('',(1.,1.727784582068E-15,3.933974446777E-11));
#1087 = PCURVE('',#334,#1088);
#1088 = DEFINITIONAL_REPRESENTATION('',(#1089),#1093);
#1089 = LINE('',#1090,#1091);
#1090 = CARTESIAN_POINT('',(-2.246119956695E-13,130.));
#1091 = VECTOR('',#1092,1.);
#1092 = DIRECTION('',(1.,-4.586702121306E-32));
#1093 = ( GEOMETRIC_REPRESENTATION_CONTEXT(2) 
PARAMETRIC_REPRESENTATION_CONTEXT() REPRESENTATION_CONTEXT('2D SPACE',''
  ) );
#1094 = PCURVE('',#83,#1095);
#1095 = DEFINITIONAL_REPRESENTATION('',(#1096),#1100);
#1096 = LINE('',#1097,#1098);
#1097 = CARTESIAN_POINT('',(-53.0912246795,-25.59489924787));
#1098 = VECTOR('',#1099,1.);
#1099 = DIRECTION('',(1.,3.933974446777E-11));
#1100 = ( GEOMETRIC_REPRESENTATION_CONTEXT(2) 
PARAMETRIC_REPRESENTATION_CONTEXT() REPRESENTATION_CONTEXT('2D SPACE',''
  ) );
#1101 = ORIENTED_EDGE('',*,*,#1058,.F.);
#1102 = ORIENTED_EDGE('',*,*,#1103,.T.);
#1103 = EDGE_CURVE('',#1005,#241,#1104,.T.);
#1104 = SURFACE_CURVE('',#1105,(#1109,#1116),.PCURVE_S1.);
#1105 = LINE('',#1106,#1107);
#1106 = CARTESIAN_POINT('',(-53.09120324402,5.21303836306E-14,
    -5.962413018405E-10));
#1107 = VECTOR('',#1108,1.);
#1108 = DIRECTION('',(1.,1.727784582068E-15,3.933974446777E-11));
#1109 = PCURVE('',#334,#1110);
#1110 = DEFINITIONAL_REPRESENTATION('',(#1111),#1115);
#1111 = LINE('',#1112,#1113);
#1112 = CARTESIAN_POINT('',(0.,0.));
#1113 = VECTOR('',#1114,1.);
#1114 = DIRECTION('',(1.,-4.586702121306E-32));
#1115 = ( GEOMETRIC_REPRESENTATION_CONTEXT(2) 
PARAMETRIC_REPRESENTATION_CONTEXT() REPRESENTATION_CONTEXT('2D SPACE',''
  ) );
#1116 = PCURVE('',#143,#1117);
#1117 = DEFINITIONAL_REPRESENTATION('',(#1118),#1122);
#1118 = LINE('',#1119,#1120);
#1119 = CARTESIAN_POINT('',(-53.0912246795,-25.59489924787));
#1120 = VECTOR('',#1121,1.);
#1121 = DIRECTION('',(1.,3.933974446777E-11));
#1122 = ( GEOMETRIC_REPRESENTATION_CONTEXT(2) 
PARAMETRIC_REPRESENTATION_CONTEXT() REPRESENTATION_CONTEXT('2D SPACE',''
  ) );
#1123 = ORIENTED_EDGE('',*,*,#320,.T.);
#1124 = ADVANCED_FACE('',(#1125),#143,.F.);
#1125 = FACE_BOUND('',#1126,.T.);
#1126 = EDGE_LOOP('',(#1127,#1128,#1129,#1130,#1131,#1132,#1133,#1134,
    #1135,#1136));
#1127 = ORIENTED_EDGE('',*,*,#1103,.F.);
#1128 = ORIENTED_EDGE('',*,*,#1004,.T.);
#1129 = ORIENTED_EDGE('',*,*,#639,.T.);
#1130 = ORIENTED_EDGE('',*,*,#902,.F.);
#1131 = ORIENTED_EDGE('',*,*,#162,.F.);
#1132 = ORIENTED_EDGE('',*,*,#128,.F.);
#1133 = ORIENTED_EDGE('',*,*,#542,.T.);
#1134 = ORIENTED_EDGE('',*,*,#445,.T.);
#1135 = ORIENTED_EDGE('',*,*,#416,.F.);
#1136 = ORIENTED_EDGE('',*,*,#238,.T.);
#1137 = ADVANCED_FACE('',(#1138),#83,.T.);
#1138 = FACE_BOUND('',#1139,.T.);
#1139 = EDGE_LOOP('',(#1140,#1141,#1142,#1143,#1144,#1145,#1146,#1147,
    #1148,#1149));
#1140 = ORIENTED_EDGE('',*,*,#1081,.T.);
#1141 = ORIENTED_EDGE('',*,*,#297,.T.);
#1142 = ORIENTED_EDGE('',*,*,#350,.T.);
#1143 = ORIENTED_EDGE('',*,*,#503,.T.);
#1144 = ORIENTED_EDGE('',*,*,#578,.T.);
#1145 = ORIENTED_EDGE('',*,*,#66,.T.);
#1146 = ORIENTED_EDGE('',*,*,#213,.T.);
#1147 = ORIENTED_EDGE('',*,*,#924,.T.);
#1148 = ORIENTED_EDGE('',*,*,#762,.F.);
#1149 = ORIENTED_EDGE('',*,*,#949,.T.);
#1150 = ( GEOMETRIC_REPRESENTATION_CONTEXT(3) 
GLOBAL_UNCERTAINTY_ASSIGNED_CONTEXT((#1154)) 
GLOBAL_UNIT_ASSIGNED_CONTEXT((#1151,#1152,#1153)) REPRESENTATION_CONTEXT
('Context #1','3D Context with UNIT and UNCERTAINTY') );
#1151 = ( LENGTH_UNIT() NAMED_UNIT(*) SI_UNIT(.MILLI.,.METRE.) );
#1152 = ( NAMED_UNIT(*) PLANE_ANGLE_UNIT() SI_UNIT($,.RADIAN.) );
#1153 = ( NAMED_UNIT(*) SI_UNIT($,.STERADIAN.) SOLID_ANGLE_UNIT() );
#1154 = UNCERTAINTY_MEASURE_WITH_UNIT(LENGTH_MEASURE(5.E-03),#1151,
  'distance_accuracy_value','confusion accuracy');
#1155 = PRODUCT_RELATED_PRODUCT_CATEGORY('part',$,(#7));
ENDSEC;
END-ISO-10303-21;
