ISO-10303-21;
HEADER;
FILE_DESCRIPTION(('Open CASCADE Model'),'2;1');
FILE_NAME('Open CASCADE Shape Model','2026-09-23T19:03:00',('Author'),(
    'Open CASCADE'),'Open CASCADE STEP processor 7.9','Open CASCADE 7.9'
  ,'Unknown');
FILE_SCHEMA(('AUTOMOTIVE_DESIGN { 1 0 10303 214 1 1 1 1 }'));
ENDSEC;
DATA;
#1 = APPLICATION_PROTOCOL_DEFINITION('international standard',
  'automotive_design',2000,#2);
#2 = APPLICATION_CONTEXT(
  'core data for automotive mechanical design processes');
#3 = SHAPE_DEFINITION_REPRESENTATION(#4,#10);
#4 = PRODUCT_DEFINITION_SHAPE('','',#5);
#5 = PRODUCT_DEFINITION('design','',#6,#9);
#6 = PRODUCT_DEFINITION_FORMATION('','',#7);
#7 = PRODUCT('Open CASCADE STEP translator 7.9 4',
  'Open CASCADE STEP translator 7.9 4','',(#8));
#8 = PRODUCT_CONTEXT('',#2,'mechanical');
#9 = PRODUCT_DEFINITION_CONTEXT('part definition',#2,'design');
#10 = ADVANCED_BREP_SHAPE_REPRESENTATION('',(#11,#15),#789);
#11 = AXIS2_PLACEMENT_3D('',#12,#13,#14);
#12 = CARTESIAN_POINT('',(0.,0.,0.));
#13 = DIRECTION('',(0.,0.,1.));
#14 = DIRECTION('',(1.,0.,-0.));
#15 = MANIFOLD_SOLID_BREP('',#16);
#16 = CLOSED_SHELL('',(#17,#137,#211,#287,#467,#622,#649,#676,#703,#730,
    #757,#782));
#17 = ADVANCED_FACE('',(#18),#32,.F.);
#18 = FACE_BOUND('',#19,.F.);
#19 = EDGE_LOOP('',(#20,#55,#83,#111));
#20 = ORIENTED_EDGE('',*,*,#21,.T.);
#21 = EDGE_CURVE('',#22,#24,#26,.T.);
#22 = VERTEX_POINT('',#23);
#23 = CARTESIAN_POINT('',(520.53595048304,153.84662094878,
    18.914895272787));
#24 = VERTEX_POINT('',#25);
#25 = CARTESIAN_POINT('',(520.54336097985,154.18361348219,
    20.376531724495));
#26 = SURFACE_CURVE('',#27,(#31,#43),.PCURVE_S1.);
#27 = LINE('',#28,#29);
#28 = CARTESIAN_POINT('',(520.53595048304,153.84662094878,
    18.914895272787));
#29 = VECTOR('',#30,1.);
#30 = DIRECTION('',(4.940331206771E-03,0.224661688943,0.974424301138));
#31 = PCURVE('',#32,#37);
#32 = PLANE('',#33);
#33 = AXIS2_PLACEMENT_3D('',#34,#35,#36);
#34 = CARTESIAN_POINT('',(520.53595048304,153.84662094878,
    18.914895272787));
#35 = DIRECTION('',(-0.999987147798,1.645385216964E-15,
    5.069934839334E-03));
#36 = DIRECTION('',(-1.139020123833E-03,0.974436824797,-0.224658801545)
  );
#37 = DEFINITIONAL_REPRESENTATION('',(#38),#42);
#38 = LINE('',#39,#40);
#39 = CARTESIAN_POINT('',(-7.981483973128E-16,-3.46185054361E-15));
#40 = VECTOR('',#41,1.);
#41 = DIRECTION('',(1.942890293094E-16,-1.));
#42 = ( GEOMETRIC_REPRESENTATION_CONTEXT(2) 
PARAMETRIC_REPRESENTATION_CONTEXT() REPRESENTATION_CONTEXT('2D SPACE',''
  ) );
#43 = PCURVE('',#44,#49);
#44 = PLANE('',#45);
#45 = AXIS2_PLACEMENT_3D('',#46,#47,#48);
#46 = CARTESIAN_POINT('',(498.53623323149,153.84662094878,
    19.026433839253));
#47 = DIRECTION('',(-1.139020123833E-03,0.974436824797,-0.224658801545)
  );
#48 = DIRECTION('',(0.999987147798,-1.291935308734E-15,
    -5.069934839334E-03));
#49 = DEFINITIONAL_REPRESENTATION('',(#50),#54);
#50 = LINE('',#51,#52);
#51 = CARTESIAN_POINT('',(22.,-1.387778780781E-17));
#52 = VECTOR('',#53,1.);
#53 = DIRECTION('',(2.142383492831E-16,-1.));
#54 = ( GEOMETRIC_REPRESENTATION_CONTEXT(2) 
PARAMETRIC_REPRESENTATION_CONTEXT() REPRESENTATION_CONTEXT('2D SPACE',''
  ) );
#55 = ORIENTED_EDGE('',*,*,#56,.T.);
#56 = EDGE_CURVE('',#24,#57,#59,.T.);
#57 = VERTEX_POINT('',#58);
#58 = CARTESIAN_POINT('',(520.52058057738,173.67234997814,15.88335569359
    ));
#59 = SURFACE_CURVE('',#60,(#64,#71),.PCURVE_S1.);
#60 = LINE('',#61,#62);
#61 = CARTESIAN_POINT('',(520.54336097985,154.18361348219,
    20.376531724495));
#62 = VECTOR('',#63,1.);
#63 = DIRECTION('',(-1.139020123833E-03,0.974436824797,-0.224658801545)
  );
#64 = PCURVE('',#32,#65);
#65 = DEFINITIONAL_REPRESENTATION('',(#66),#70);
#66 = LINE('',#67,#68);
#67 = CARTESIAN_POINT('',(-2.164934898019E-15,-1.5));
#68 = VECTOR('',#69,1.);
#69 = DIRECTION('',(1.,2.775557561563E-17));
#70 = ( GEOMETRIC_REPRESENTATION_CONTEXT(2) 
PARAMETRIC_REPRESENTATION_CONTEXT() REPRESENTATION_CONTEXT('2D SPACE',''
  ) );
#71 = PCURVE('',#72,#77);
#72 = PLANE('',#73);
#73 = AXIS2_PLACEMENT_3D('',#74,#75,#76);
#74 = CARTESIAN_POINT('',(509.53211215284,163.92798173017,
    18.185712992275));
#75 = DIRECTION('',(4.940331206771E-03,0.224661688943,0.974424301138));
#76 = DIRECTION('',(-2.168404344971E-19,0.974436192681,-0.224664430637)
  );
#77 = DEFINITIONAL_REPRESENTATION('',(#78),#82);
#78 = LINE('',#79,#80);
#79 = CARTESIAN_POINT('',(-9.987464138741,-11.01138320454));
#80 = VECTOR('',#81,1.);
#81 = DIRECTION('',(0.999999351301,1.139034024047E-03));
#82 = ( GEOMETRIC_REPRESENTATION_CONTEXT(2) 
PARAMETRIC_REPRESENTATION_CONTEXT() REPRESENTATION_CONTEXT('2D SPACE',''
  ) );
#83 = ORIENTED_EDGE('',*,*,#84,.F.);
#84 = EDGE_CURVE('',#85,#57,#87,.T.);
#85 = VERTEX_POINT('',#86);
#86 = CARTESIAN_POINT('',(520.51317008057,173.33535744473,
    14.421719241882));
#87 = SURFACE_CURVE('',#88,(#92,#99),.PCURVE_S1.);
#88 = LINE('',#89,#90);
#89 = CARTESIAN_POINT('',(520.51317008057,173.33535744473,
    14.421719241882));
#90 = VECTOR('',#91,1.);
#91 = DIRECTION('',(4.940331206771E-03,0.224661688943,0.974424301138));
#92 = PCURVE('',#32,#93);
#93 = DEFINITIONAL_REPRESENTATION('',(#94),#98);
#94 = LINE('',#95,#96);
#95 = CARTESIAN_POINT('',(20.,0.));
#96 = VECTOR('',#97,1.);
#97 = DIRECTION('',(1.942890293094E-16,-1.));
#98 = ( GEOMETRIC_REPRESENTATION_CONTEXT(2) 
PARAMETRIC_REPRESENTATION_CONTEXT() REPRESENTATION_CONTEXT('2D SPACE',''
  ) );
#99 = PCURVE('',#100,#105);
#100 = PLANE('',#101);
#101 = AXIS2_PLACEMENT_3D('',#102,#103,#104);
#102 = CARTESIAN_POINT('',(520.51317008057,173.33535744473,
    14.421719241882));
#103 = DIRECTION('',(1.139020123834E-03,-0.974436824797,0.224658801545)
  );
#104 = DIRECTION('',(-0.999987147798,0.,5.069934839335E-03));
#105 = DEFINITIONAL_REPRESENTATION('',(#106),#110);
#106 = LINE('',#107,#108);
#107 = CARTESIAN_POINT('',(0.,-0.));
#108 = VECTOR('',#109,1.);
#109 = DIRECTION('',(-3.122502256758E-17,-1.));
#110 = ( GEOMETRIC_REPRESENTATION_CONTEXT(2) 
PARAMETRIC_REPRESENTATION_CONTEXT() REPRESENTATION_CONTEXT('2D SPACE',''
  ) );
#111 = ORIENTED_EDGE('',*,*,#112,.F.);
#112 = EDGE_CURVE('',#22,#85,#113,.T.);
#113 = SURFACE_CURVE('',#114,(#118,#125),.PCURVE_S1.);
#114 = LINE('',#115,#116);
#115 = CARTESIAN_POINT('',(520.53595048304,153.84662094878,
    18.914895272787));
#116 = VECTOR('',#117,1.);
#117 = DIRECTION('',(-1.139020123833E-03,0.974436824797,-0.224658801545)
  );
#118 = PCURVE('',#32,#119);
#119 = DEFINITIONAL_REPRESENTATION('',(#120),#124);
#120 = LINE('',#121,#122);
#121 = CARTESIAN_POINT('',(0.,-0.));
#122 = VECTOR('',#123,1.);
#123 = DIRECTION('',(1.,2.775557561563E-17));
#124 = ( GEOMETRIC_REPRESENTATION_CONTEXT(2) 
PARAMETRIC_REPRESENTATION_CONTEXT() REPRESENTATION_CONTEXT('2D SPACE',''
  ) );
#125 = PCURVE('',#126,#131);
#126 = PLANE('',#127);
#127 = AXIS2_PLACEMENT_3D('',#128,#129,#130);
#128 = CARTESIAN_POINT('',(509.52470165603,163.59098919676,
    16.724076540567));
#129 = DIRECTION('',(4.940331206771E-03,0.224661688943,0.974424301138));
#130 = DIRECTION('',(-2.168404344971E-19,0.974436192681,-0.224664430637)
  );
#131 = DEFINITIONAL_REPRESENTATION('',(#132),#136);
#132 = LINE('',#133,#134);
#133 = CARTESIAN_POINT('',(-9.987464138741,-11.01138320454));
#134 = VECTOR('',#135,1.);
#135 = DIRECTION('',(0.999999351301,1.139034024047E-03));
#136 = ( GEOMETRIC_REPRESENTATION_CONTEXT(2) 
PARAMETRIC_REPRESENTATION_CONTEXT() REPRESENTATION_CONTEXT('2D SPACE',''
  ) );
#137 = ADVANCED_FACE('',(#138),#44,.F.);
#138 = FACE_BOUND('',#139,.F.);
#139 = EDGE_LOOP('',(#140,#163,#189,#210));
#140 = ORIENTED_EDGE('',*,*,#141,.F.);
#141 = EDGE_CURVE('',#142,#22,#144,.T.);
#142 = VERTEX_POINT('',#143);
#143 = CARTESIAN_POINT('',(511.14095913552,153.84662094878,
    18.962527878919));
#144 = SURFACE_CURVE('',#145,(#149,#156),.PCURVE_S1.);
#145 = LINE('',#146,#147);
#146 = CARTESIAN_POINT('',(498.53623323149,153.84662094878,
    19.026433839253));
#147 = VECTOR('',#148,1.);
#148 = DIRECTION('',(0.999987147798,-1.2918958832E-15,
    -5.069934839334E-03));
#149 = PCURVE('',#44,#150);
#150 = DEFINITIONAL_REPRESENTATION('',(#151),#155);
#151 = LINE('',#152,#153);
#152 = CARTESIAN_POINT('',(0.,-0.));
#153 = VECTOR('',#154,1.);
#154 = DIRECTION('',(1.,0.));
#155 = ( GEOMETRIC_REPRESENTATION_CONTEXT(2) 
PARAMETRIC_REPRESENTATION_CONTEXT() REPRESENTATION_CONTEXT('2D SPACE',''
  ) );
#156 = PCURVE('',#126,#157);
#157 = DEFINITIONAL_REPRESENTATION('',(#158),#162);
#158 = LINE('',#159,#160);
#159 = CARTESIAN_POINT('',(-10.01252288727,10.988602524066));
#160 = VECTOR('',#161,1.);
#161 = DIRECTION('',(1.139034024047E-03,-0.999999351301));
#162 = ( GEOMETRIC_REPRESENTATION_CONTEXT(2) 
PARAMETRIC_REPRESENTATION_CONTEXT() REPRESENTATION_CONTEXT('2D SPACE',''
  ) );
#163 = ORIENTED_EDGE('',*,*,#164,.F.);
#164 = EDGE_CURVE('',#165,#142,#167,.T.);
#165 = VERTEX_POINT('',#166);
#166 = CARTESIAN_POINT('',(511.14836963233,154.18361348219,
    20.424164330627));
#167 = SURFACE_CURVE('',#168,(#172,#178),.PCURVE_S1.);
#168 = LINE('',#169,#170);
#169 = CARTESIAN_POINT('',(511.14071211896,153.83538786433,
    18.913806663862));
#170 = VECTOR('',#171,1.);
#171 = DIRECTION('',(-4.940331206771E-03,-0.224661688943,-0.974424301138
    ));
#172 = PCURVE('',#44,#173);
#173 = DEFINITIONAL_REPRESENTATION('',(#174),#177);
#174 = B_SPLINE_CURVE_WITH_KNOTS('',1,(#175,#176),.UNSPECIFIED.,.F.,.F.,
  (2,2),(-1.55,-5.000000000001E-02),.PIECEWISE_BEZIER_KNOTS.);
#175 = CARTESIAN_POINT('',(12.604887904599,-1.5));
#176 = CARTESIAN_POINT('',(12.604887904599,0.));
#177 = ( GEOMETRIC_REPRESENTATION_CONTEXT(2) 
PARAMETRIC_REPRESENTATION_CONTEXT() REPRESENTATION_CONTEXT('2D SPACE',''
  ) );
#178 = PCURVE('',#179,#184);
#179 = PLANE('',#180);
#180 = AXIS2_PLACEMENT_3D('',#181,#182,#183);
#181 = CARTESIAN_POINT('',(511.14950413635,154.23520508152,
    18.770268528991));
#182 = DIRECTION('',(0.99975830558,-2.198477710881E-02,
    1.163825980033E-14));
#183 = DIRECTION('',(-2.142250106994E-02,-0.974188788222,0.224716001546)
  );
#184 = DEFINITIONAL_REPRESENTATION('',(#185),#188);
#185 = B_SPLINE_CURVE_WITH_KNOTS('',1,(#186,#187),.UNSPECIFIED.,.F.,.F.,
  (2,2),(-1.55,-5.000000000001E-02),.PIECEWISE_BEZIER_KNOTS.);
#186 = CARTESIAN_POINT('',(0.421941113056,-1.6));
#187 = CARTESIAN_POINT('',(0.421941113056,-0.1));
#188 = ( GEOMETRIC_REPRESENTATION_CONTEXT(2) 
PARAMETRIC_REPRESENTATION_CONTEXT() REPRESENTATION_CONTEXT('2D SPACE',''
  ) );
#189 = ORIENTED_EDGE('',*,*,#190,.T.);
#190 = EDGE_CURVE('',#165,#24,#191,.T.);
#191 = SURFACE_CURVE('',#192,(#196,#203),.PCURVE_S1.);
#192 = LINE('',#193,#194);
#193 = CARTESIAN_POINT('',(498.5436437283,154.18361348219,20.48807029096
    ));
#194 = VECTOR('',#195,1.);
#195 = DIRECTION('',(0.999987147798,-1.2918958832E-15,
    -5.069934839334E-03));
#196 = PCURVE('',#44,#197);
#197 = DEFINITIONAL_REPRESENTATION('',(#198),#202);
#198 = LINE('',#199,#200);
#199 = CARTESIAN_POINT('',(9.604296524746E-15,-1.5));
#200 = VECTOR('',#201,1.);
#201 = DIRECTION('',(1.,0.));
#202 = ( GEOMETRIC_REPRESENTATION_CONTEXT(2) 
PARAMETRIC_REPRESENTATION_CONTEXT() REPRESENTATION_CONTEXT('2D SPACE',''
  ) );
#203 = PCURVE('',#72,#204);
#204 = DEFINITIONAL_REPRESENTATION('',(#205),#209);
#205 = LINE('',#206,#207);
#206 = CARTESIAN_POINT('',(-10.01252288727,10.988602524066));
#207 = VECTOR('',#208,1.);
#208 = DIRECTION('',(1.139034024047E-03,-0.999999351301));
#209 = ( GEOMETRIC_REPRESENTATION_CONTEXT(2) 
PARAMETRIC_REPRESENTATION_CONTEXT() REPRESENTATION_CONTEXT('2D SPACE',''
  ) );
#210 = ORIENTED_EDGE('',*,*,#21,.F.);
#211 = ADVANCED_FACE('',(#212),#100,.F.);
#212 = FACE_BOUND('',#213,.F.);
#213 = EDGE_LOOP('',(#214,#215,#238,#266));
#214 = ORIENTED_EDGE('',*,*,#84,.T.);
#215 = ORIENTED_EDGE('',*,*,#216,.T.);
#216 = EDGE_CURVE('',#57,#217,#219,.T.);
#217 = VERTEX_POINT('',#218);
#218 = CARTESIAN_POINT('',(498.52086332583,173.67234997814,
    15.994894260055));
#219 = SURFACE_CURVE('',#220,(#224,#231),.PCURVE_S1.);
#220 = LINE('',#221,#222);
#221 = CARTESIAN_POINT('',(520.52058057738,173.67234997814,
    15.88335569359));
#222 = VECTOR('',#223,1.);
#223 = DIRECTION('',(-0.999987147798,0.,5.069934839335E-03));
#224 = PCURVE('',#100,#225);
#225 = DEFINITIONAL_REPRESENTATION('',(#226),#230);
#226 = LINE('',#227,#228);
#227 = CARTESIAN_POINT('',(-9.338883832921E-15,-1.5));
#228 = VECTOR('',#229,1.);
#229 = DIRECTION('',(1.,8.673617379884E-19));
#230 = ( GEOMETRIC_REPRESENTATION_CONTEXT(2) 
PARAMETRIC_REPRESENTATION_CONTEXT() REPRESENTATION_CONTEXT('2D SPACE',''
  ) );
#231 = PCURVE('',#72,#232);
#232 = DEFINITIONAL_REPRESENTATION('',(#233),#237);
#233 = LINE('',#234,#235);
#234 = CARTESIAN_POINT('',(10.01252288727,-10.98860252406));
#235 = VECTOR('',#236,1.);
#236 = DIRECTION('',(-1.139034024048E-03,0.999999351301));
#237 = ( GEOMETRIC_REPRESENTATION_CONTEXT(2) 
PARAMETRIC_REPRESENTATION_CONTEXT() REPRESENTATION_CONTEXT('2D SPACE',''
  ) );
#238 = ORIENTED_EDGE('',*,*,#239,.F.);
#239 = EDGE_CURVE('',#240,#217,#242,.T.);
#240 = VERTEX_POINT('',#241);
#241 = CARTESIAN_POINT('',(498.51345282902,173.33535744473,
    14.533257808347));
#242 = SURFACE_CURVE('',#243,(#247,#254),.PCURVE_S1.);
#243 = LINE('',#244,#245);
#244 = CARTESIAN_POINT('',(498.51345282902,173.33535744473,
    14.533257808347));
#245 = VECTOR('',#246,1.);
#246 = DIRECTION('',(4.940331206771E-03,0.224661688943,0.974424301138));
#247 = PCURVE('',#100,#248);
#248 = DEFINITIONAL_REPRESENTATION('',(#249),#253);
#249 = LINE('',#250,#251);
#250 = CARTESIAN_POINT('',(22.,2.775557561563E-17));
#251 = VECTOR('',#252,1.);
#252 = DIRECTION('',(-3.122502256758E-17,-1.));
#253 = ( GEOMETRIC_REPRESENTATION_CONTEXT(2) 
PARAMETRIC_REPRESENTATION_CONTEXT() REPRESENTATION_CONTEXT('2D SPACE',''
  ) );
#254 = PCURVE('',#255,#260);
#255 = PLANE('',#256);
#256 = AXIS2_PLACEMENT_3D('',#257,#258,#259);
#257 = CARTESIAN_POINT('',(498.51345282902,173.33535744473,
    14.533257808347));
#258 = DIRECTION('',(0.999987147798,-1.645385216964E-15,
    -5.069934839334E-03));
#259 = DIRECTION('',(1.139020123833E-03,-0.974436824797,0.224658801545)
  );
#260 = DEFINITIONAL_REPRESENTATION('',(#261),#265);
#261 = LINE('',#262,#263);
#262 = CARTESIAN_POINT('',(0.,-0.));
#263 = VECTOR('',#264,1.);
#264 = DIRECTION('',(-1.942890293094E-16,-1.));
#265 = ( GEOMETRIC_REPRESENTATION_CONTEXT(2) 
PARAMETRIC_REPRESENTATION_CONTEXT() REPRESENTATION_CONTEXT('2D SPACE',''
  ) );
#266 = ORIENTED_EDGE('',*,*,#267,.F.);
#267 = EDGE_CURVE('',#85,#240,#268,.T.);
#268 = SURFACE_CURVE('',#269,(#273,#280),.PCURVE_S1.);
#269 = LINE('',#270,#271);
#270 = CARTESIAN_POINT('',(520.51317008057,173.33535744473,
    14.421719241882));
#271 = VECTOR('',#272,1.);
#272 = DIRECTION('',(-0.999987147798,0.,5.069934839335E-03));
#273 = PCURVE('',#100,#274);
#274 = DEFINITIONAL_REPRESENTATION('',(#275),#279);
#275 = LINE('',#276,#277);
#276 = CARTESIAN_POINT('',(0.,-0.));
#277 = VECTOR('',#278,1.);
#278 = DIRECTION('',(1.,8.673617379884E-19));
#279 = ( GEOMETRIC_REPRESENTATION_CONTEXT(2) 
PARAMETRIC_REPRESENTATION_CONTEXT() REPRESENTATION_CONTEXT('2D SPACE',''
  ) );
#280 = PCURVE('',#126,#281);
#281 = DEFINITIONAL_REPRESENTATION('',(#282),#286);
#282 = LINE('',#283,#284);
#283 = CARTESIAN_POINT('',(10.01252288727,-10.98860252406));
#284 = VECTOR('',#285,1.);
#285 = DIRECTION('',(-1.139034024048E-03,0.999999351301));
#286 = ( GEOMETRIC_REPRESENTATION_CONTEXT(2) 
PARAMETRIC_REPRESENTATION_CONTEXT() REPRESENTATION_CONTEXT('2D SPACE',''
  ) );
#287 = ADVANCED_FACE('',(#288),#126,.F.);
#288 = FACE_BOUND('',#289,.F.);
#289 = EDGE_LOOP('',(#290,#291,#292,#293,#316,#344,#370,#396,#422,#448)
  );
#290 = ORIENTED_EDGE('',*,*,#141,.T.);
#291 = ORIENTED_EDGE('',*,*,#112,.T.);
#292 = ORIENTED_EDGE('',*,*,#267,.T.);
#293 = ORIENTED_EDGE('',*,*,#294,.T.);
#294 = EDGE_CURVE('',#240,#295,#297,.T.);
#295 = VERTEX_POINT('',#296);
#296 = CARTESIAN_POINT('',(498.53623323149,153.84662094878,
    19.026433839253));
#297 = SURFACE_CURVE('',#298,(#302,#309),.PCURVE_S1.);
#298 = LINE('',#299,#300);
#299 = CARTESIAN_POINT('',(498.51345282902,173.33535744473,
    14.533257808347));
#300 = VECTOR('',#301,1.);
#301 = DIRECTION('',(1.139020123833E-03,-0.974436824797,0.224658801545)
  );
#302 = PCURVE('',#126,#303);
#303 = DEFINITIONAL_REPRESENTATION('',(#304),#308);
#304 = LINE('',#305,#306);
#305 = CARTESIAN_POINT('',(9.987464138741,11.011383204546));
#306 = VECTOR('',#307,1.);
#307 = DIRECTION('',(-0.999999351301,-1.139034024047E-03));
#308 = ( GEOMETRIC_REPRESENTATION_CONTEXT(2) 
PARAMETRIC_REPRESENTATION_CONTEXT() REPRESENTATION_CONTEXT('2D SPACE',''
  ) );
#309 = PCURVE('',#255,#310);
#310 = DEFINITIONAL_REPRESENTATION('',(#311),#315);
#311 = LINE('',#312,#313);
#312 = CARTESIAN_POINT('',(0.,-0.));
#313 = VECTOR('',#314,1.);
#314 = DIRECTION('',(1.,-2.775557561563E-17));
#315 = ( GEOMETRIC_REPRESENTATION_CONTEXT(2) 
PARAMETRIC_REPRESENTATION_CONTEXT() REPRESENTATION_CONTEXT('2D SPACE',''
  ) );
#316 = ORIENTED_EDGE('',*,*,#317,.T.);
#317 = EDGE_CURVE('',#295,#318,#320,.T.);
#318 = VERTEX_POINT('',#319);
#319 = CARTESIAN_POINT('',(507.84259133371,153.84662094878,
    18.979250603674));
#320 = SURFACE_CURVE('',#321,(#325,#332),.PCURVE_S1.);
#321 = LINE('',#322,#323);
#322 = CARTESIAN_POINT('',(498.53623323149,153.84662094878,
    19.026433839253));
#323 = VECTOR('',#324,1.);
#324 = DIRECTION('',(0.999987147798,-1.2918958832E-15,
    -5.069934839334E-03));
#325 = PCURVE('',#126,#326);
#326 = DEFINITIONAL_REPRESENTATION('',(#327),#331);
#327 = LINE('',#328,#329);
#328 = CARTESIAN_POINT('',(-10.01252288727,10.988602524066));
#329 = VECTOR('',#330,1.);
#330 = DIRECTION('',(1.139034024047E-03,-0.999999351301));
#331 = ( GEOMETRIC_REPRESENTATION_CONTEXT(2) 
PARAMETRIC_REPRESENTATION_CONTEXT() REPRESENTATION_CONTEXT('2D SPACE',''
  ) );
#332 = PCURVE('',#333,#338);
#333 = PLANE('',#334);
#334 = AXIS2_PLACEMENT_3D('',#335,#336,#337);
#335 = CARTESIAN_POINT('',(498.53623323149,153.84662094878,
    19.026433839253));
#336 = DIRECTION('',(-1.139020123833E-03,0.974436824797,-0.224658801545)
  );
#337 = DIRECTION('',(0.999987147798,-1.291935308734E-15,
    -5.069934839334E-03));
#338 = DEFINITIONAL_REPRESENTATION('',(#339),#343);
#339 = LINE('',#340,#341);
#340 = CARTESIAN_POINT('',(0.,-0.));
#341 = VECTOR('',#342,1.);
#342 = DIRECTION('',(1.,0.));
#343 = ( GEOMETRIC_REPRESENTATION_CONTEXT(2) 
PARAMETRIC_REPRESENTATION_CONTEXT() REPRESENTATION_CONTEXT('2D SPACE',''
  ) );
#344 = ORIENTED_EDGE('',*,*,#345,.F.);
#345 = EDGE_CURVE('',#346,#318,#348,.T.);
#346 = VERTEX_POINT('',#347);
#347 = CARTESIAN_POINT('',(507.84259133371,166.59182204099,
    16.040737678715));
#348 = SURFACE_CURVE('',#349,(#353,#359),.PCURVE_S1.);
#349 = LINE('',#350,#351);
#350 = CARTESIAN_POINT('',(507.84259133371,158.68455085798,
    17.86382531808));
#351 = VECTOR('',#352,1.);
#352 = DIRECTION('',(2.168404344971E-19,-0.974436192681,0.224664430637)
  );
#353 = PCURVE('',#126,#354);
#354 = DEFINITIONAL_REPRESENTATION('',(#355),#358);
#355 = B_SPLINE_CURVE_WITH_KNOTS('',1,(#356,#357),.UNSPECIFIED.,.F.,.F.,
  (2,2),(-8.114714172563,4.975450782641),.PIECEWISE_BEZIER_KNOTS.);
#356 = CARTESIAN_POINT('',(3.077642067934,1.682130850219));
#357 = CARTESIAN_POINT('',(-10.01252288727,1.682130850219));
#358 = ( GEOMETRIC_REPRESENTATION_CONTEXT(2) 
PARAMETRIC_REPRESENTATION_CONTEXT() REPRESENTATION_CONTEXT('2D SPACE',''
  ) );
#359 = PCURVE('',#360,#365);
#360 = PLANE('',#361);
#361 = AXIS2_PLACEMENT_3D('',#362,#363,#364);
#362 = CARTESIAN_POINT('',(507.84209730059,153.75377932519,
    18.898033824432));
#363 = DIRECTION('',(-0.999987796489,1.10991669773E-03,
    4.814037531709E-03));
#364 = DIRECTION('',(0.,0.974436192681,-0.224664430637));
#365 = DEFINITIONAL_REPRESENTATION('',(#366),#369);
#366 = B_SPLINE_CURVE_WITH_KNOTS('',1,(#367,#368),.UNSPECIFIED.,.F.,.F.,
  (2,2),(-8.114714172563,4.975450782641),.PIECEWISE_BEZIER_KNOTS.);
#367 = CARTESIAN_POINT('',(13.151786277191,-0.1));
#368 = CARTESIAN_POINT('',(6.162132198731E-02,-0.1));
#369 = ( GEOMETRIC_REPRESENTATION_CONTEXT(2) 
PARAMETRIC_REPRESENTATION_CONTEXT() REPRESENTATION_CONTEXT('2D SPACE',''
  ) );
#370 = ORIENTED_EDGE('',*,*,#371,.F.);
#371 = EDGE_CURVE('',#372,#346,#374,.T.);
#372 = VERTEX_POINT('',#373);
#373 = CARTESIAN_POINT('',(507.85317793038,167.07324779731,
    15.929687261886));
#374 = SURFACE_CURVE('',#375,(#379,#385),.PCURVE_S1.);
#375 = LINE('',#376,#377);
#376 = CARTESIAN_POINT('',(507.81001949326,165.110616757,16.382407109641
    ));
#377 = VECTOR('',#378,1.);
#378 = DIRECTION('',(-2.142250106994E-02,-0.974188788222,0.224716001546)
  );
#379 = PCURVE('',#126,#380);
#380 = DEFINITIONAL_REPRESENTATION('',(#381),#384);
#381 = B_SPLINE_CURVE_WITH_KNOTS('',1,(#382,#383),.UNSPECIFIED.,.F.,.F.,
  (2,2),(-2.014631110556,-1.520449939367),.PIECEWISE_BEZIER_KNOTS.);
#382 = CARTESIAN_POINT('',(3.571709827652,1.671544124356));
#383 = CARTESIAN_POINT('',(3.077642067934,1.682130850219));
#384 = ( GEOMETRIC_REPRESENTATION_CONTEXT(2) 
PARAMETRIC_REPRESENTATION_CONTEXT() REPRESENTATION_CONTEXT('2D SPACE',''
  ) );
#385 = PCURVE('',#386,#391);
#386 = PLANE('',#387);
#387 = AXIS2_PLACEMENT_3D('',#388,#389,#390);
#388 = CARTESIAN_POINT('',(507.84209730059,166.56935587209,
    15.943295248601));
#389 = DIRECTION('',(-0.99975830558,2.198477710881E-02,
    -1.163825980033E-14));
#390 = DIRECTION('',(2.142250106994E-02,0.974188788222,-0.224716001546)
  );
#391 = DEFINITIONAL_REPRESENTATION('',(#392),#395);
#392 = B_SPLINE_CURVE_WITH_KNOTS('',1,(#393,#394),.UNSPECIFIED.,.F.,.F.,
  (2,2),(-2.014631110556,-1.520449939367),.PIECEWISE_BEZIER_KNOTS.);
#393 = CARTESIAN_POINT('',(0.494181171189,-0.1));
#394 = CARTESIAN_POINT('',(-3.552713678801E-15,-0.1));
#395 = ( GEOMETRIC_REPRESENTATION_CONTEXT(2) 
PARAMETRIC_REPRESENTATION_CONTEXT() REPRESENTATION_CONTEXT('2D SPACE',''
  ) );
#396 = ORIENTED_EDGE('',*,*,#397,.F.);
#397 = EDGE_CURVE('',#398,#372,#400,.T.);
#398 = VERTEX_POINT('',#399);
#399 = CARTESIAN_POINT('',(511.14999816947,167.07324779731,
    15.912972383274));
#400 = SURFACE_CURVE('',#401,(#405,#411),.PCURVE_S1.);
#401 = LINE('',#402,#403);
#402 = CARTESIAN_POINT('',(508.68690458552,167.07324779731,
    15.925460267744));
#403 = VECTOR('',#404,1.);
#404 = DIRECTION('',(-0.999987147798,-5.160802341031E-17,
    5.069934839335E-03));
#405 = PCURVE('',#126,#406);
#406 = DEFINITIONAL_REPRESENTATION('',(#407),#410);
#407 = B_SPLINE_CURVE_WITH_KNOTS('',1,(#408,#409),.UNSPECIFIED.,.F.,.F.,
  (2,2),(-2.463125240529,0.833737370504),.PIECEWISE_BEZIER_KNOTS.);
#408 = CARTESIAN_POINT('',(3.575465066339,-1.625316348005));
#409 = CARTESIAN_POINT('',(3.571709827652,1.671544124356));
#410 = ( GEOMETRIC_REPRESENTATION_CONTEXT(2) 
PARAMETRIC_REPRESENTATION_CONTEXT() REPRESENTATION_CONTEXT('2D SPACE',''
  ) );
#411 = PCURVE('',#412,#417);
#412 = PLANE('',#413);
#413 = AXIS2_PLACEMENT_3D('',#414,#415,#416);
#414 = CARTESIAN_POINT('',(507.85268389726,167.05078162841,
    15.832244831772));
#415 = DIRECTION('',(-1.139020123835E-03,0.974436824797,-0.224658801545)
  );
#416 = DIRECTION('',(0.999987147798,2.168404344971E-19,
    -5.069934839335E-03));
#417 = DEFINITIONAL_REPRESENTATION('',(#418),#421);
#418 = B_SPLINE_CURVE_WITH_KNOTS('',1,(#419,#420),.UNSPECIFIED.,.F.,.F.,
  (2,2),(-2.463125240529,0.833737370504),.PIECEWISE_BEZIER_KNOTS.);
#419 = CARTESIAN_POINT('',(3.296862611033,-0.1));
#420 = CARTESIAN_POINT('',(-2.22044604925E-16,-0.1));
#421 = ( GEOMETRIC_REPRESENTATION_CONTEXT(2) 
PARAMETRIC_REPRESENTATION_CONTEXT() REPRESENTATION_CONTEXT('2D SPACE',''
  ) );
#422 = ORIENTED_EDGE('',*,*,#423,.F.);
#423 = EDGE_CURVE('',#424,#398,#426,.T.);
#424 = VERTEX_POINT('',#425);
#425 = CARTESIAN_POINT('',(511.14999816947,154.25767125041,
    18.867710959105));
#426 = SURFACE_CURVE('',#427,(#431,#437),.PCURVE_S1.);
#427 = LINE('',#428,#429);
#428 = CARTESIAN_POINT('',(511.14999816947,165.33121651415,
    16.31461229497));
#429 = VECTOR('',#430,1.);
#430 = DIRECTION('',(4.336808689942E-19,0.974436192681,-0.224664430637)
  );
#431 = PCURVE('',#126,#432);
#432 = DEFINITIONAL_REPRESENTATION('',(#433),#436);
#433 = B_SPLINE_CURVE_WITH_KNOTS('',1,(#434,#435),.UNSPECIFIED.,.F.,.F.,
  (2,2),(-11.36405374402,1.787732533169),.PIECEWISE_BEZIER_KNOTS.);
#434 = CARTESIAN_POINT('',(-9.576321210853,-1.625316348005));
#435 = CARTESIAN_POINT('',(3.575465066339,-1.625316348005));
#436 = ( GEOMETRIC_REPRESENTATION_CONTEXT(2) 
PARAMETRIC_REPRESENTATION_CONTEXT() REPRESENTATION_CONTEXT('2D SPACE',''
  ) );
#437 = PCURVE('',#438,#443);
#438 = PLANE('',#439);
#439 = AXIS2_PLACEMENT_3D('',#440,#441,#442);
#440 = CARTESIAN_POINT('',(511.14950413635,167.05078162841,
    15.81552995316));
#441 = DIRECTION('',(0.999987796489,-1.10991669773E-03,
    -4.814037531709E-03));
#442 = DIRECTION('',(0.,-0.974436192681,0.224664430637));
#443 = DEFINITIONAL_REPRESENTATION('',(#444),#447);
#444 = B_SPLINE_CURVE_WITH_KNOTS('',1,(#445,#446),.UNSPECIFIED.,.F.,.F.,
  (2,2),(-11.36405374402,1.787732533169),.PIECEWISE_BEZIER_KNOTS.);
#445 = CARTESIAN_POINT('',(13.151786277191,-0.1));
#446 = CARTESIAN_POINT('',(0.,-0.1));
#447 = ( GEOMETRIC_REPRESENTATION_CONTEXT(2) 
PARAMETRIC_REPRESENTATION_CONTEXT() REPRESENTATION_CONTEXT('2D SPACE',''
  ) );
#448 = ORIENTED_EDGE('',*,*,#449,.F.);
#449 = EDGE_CURVE('',#142,#424,#450,.T.);
#450 = SURFACE_CURVE('',#451,(#455,#461),.PCURVE_S1.);
#451 = LINE('',#452,#453);
#452 = CARTESIAN_POINT('',(511.25217605246,158.90421311261,
    17.795893749836));
#453 = VECTOR('',#454,1.);
#454 = DIRECTION('',(2.142250106994E-02,0.974188788222,-0.224716001546)
  );
#455 = PCURVE('',#126,#456);
#456 = DEFINITIONAL_REPRESENTATION('',(#457),#460);
#457 = B_SPLINE_CURVE_WITH_KNOTS('',1,(#458,#459),.UNSPECIFIED.,.F.,.F.,
  (2,2),(-5.205954174563,-4.769652369626),.PIECEWISE_BEZIER_KNOTS.);
#458 = CARTESIAN_POINT('',(-10.01252288727,-1.615969558058));
#459 = CARTESIAN_POINT('',(-9.576321210853,-1.625316348005));
#460 = ( GEOMETRIC_REPRESENTATION_CONTEXT(2) 
PARAMETRIC_REPRESENTATION_CONTEXT() REPRESENTATION_CONTEXT('2D SPACE',''
  ) );
#461 = PCURVE('',#179,#462);
#462 = DEFINITIONAL_REPRESENTATION('',(#463),#466);
#463 = B_SPLINE_CURVE_WITH_KNOTS('',1,(#464,#465),.UNSPECIFIED.,.F.,.F.,
  (2,2),(-5.205954174563,-4.769652369626),.PIECEWISE_BEZIER_KNOTS.);
#464 = CARTESIAN_POINT('',(0.436301804937,-0.1));
#465 = CARTESIAN_POINT('',(-4.440892098501E-15,-0.1));
#466 = ( GEOMETRIC_REPRESENTATION_CONTEXT(2) 
PARAMETRIC_REPRESENTATION_CONTEXT() REPRESENTATION_CONTEXT('2D SPACE',''
  ) );
#467 = ADVANCED_FACE('',(#468),#72,.T.);
#468 = FACE_BOUND('',#469,.T.);
#469 = EDGE_LOOP('',(#470,#471,#472,#473,#496,#519,#540,#561,#582,#603)
  );
#470 = ORIENTED_EDGE('',*,*,#190,.T.);
#471 = ORIENTED_EDGE('',*,*,#56,.T.);
#472 = ORIENTED_EDGE('',*,*,#216,.T.);
#473 = ORIENTED_EDGE('',*,*,#474,.T.);
#474 = EDGE_CURVE('',#217,#475,#477,.T.);
#475 = VERTEX_POINT('',#476);
#476 = CARTESIAN_POINT('',(498.5436437283,154.18361348219,20.48807029096
    ));
#477 = SURFACE_CURVE('',#478,(#482,#489),.PCURVE_S1.);
#478 = LINE('',#479,#480);
#479 = CARTESIAN_POINT('',(498.52086332583,173.67234997814,
    15.994894260055));
#480 = VECTOR('',#481,1.);
#481 = DIRECTION('',(1.139020123833E-03,-0.974436824797,0.224658801545)
  );
#482 = PCURVE('',#72,#483);
#483 = DEFINITIONAL_REPRESENTATION('',(#484),#488);
#484 = LINE('',#485,#486);
#485 = CARTESIAN_POINT('',(9.987464138741,11.011383204546));
#486 = VECTOR('',#487,1.);
#487 = DIRECTION('',(-0.999999351301,-1.139034024047E-03));
#488 = ( GEOMETRIC_REPRESENTATION_CONTEXT(2) 
PARAMETRIC_REPRESENTATION_CONTEXT() REPRESENTATION_CONTEXT('2D SPACE',''
  ) );
#489 = PCURVE('',#255,#490);
#490 = DEFINITIONAL_REPRESENTATION('',(#491),#495);
#491 = LINE('',#492,#493);
#492 = CARTESIAN_POINT('',(1.720845688169E-15,-1.5));
#493 = VECTOR('',#494,1.);
#494 = DIRECTION('',(1.,-2.775557561563E-17));
#495 = ( GEOMETRIC_REPRESENTATION_CONTEXT(2) 
PARAMETRIC_REPRESENTATION_CONTEXT() REPRESENTATION_CONTEXT('2D SPACE',''
  ) );
#496 = ORIENTED_EDGE('',*,*,#497,.T.);
#497 = EDGE_CURVE('',#475,#498,#500,.T.);
#498 = VERTEX_POINT('',#499);
#499 = CARTESIAN_POINT('',(507.85000183052,154.18361348219,
    20.440887055382));
#500 = SURFACE_CURVE('',#501,(#505,#512),.PCURVE_S1.);
#501 = LINE('',#502,#503);
#502 = CARTESIAN_POINT('',(498.5436437283,154.18361348219,20.48807029096
    ));
#503 = VECTOR('',#504,1.);
#504 = DIRECTION('',(0.999987147798,-1.2918958832E-15,
    -5.069934839334E-03));
#505 = PCURVE('',#72,#506);
#506 = DEFINITIONAL_REPRESENTATION('',(#507),#511);
#507 = LINE('',#508,#509);
#508 = CARTESIAN_POINT('',(-10.01252288727,10.988602524066));
#509 = VECTOR('',#510,1.);
#510 = DIRECTION('',(1.139034024047E-03,-0.999999351301));
#511 = ( GEOMETRIC_REPRESENTATION_CONTEXT(2) 
PARAMETRIC_REPRESENTATION_CONTEXT() REPRESENTATION_CONTEXT('2D SPACE',''
  ) );
#512 = PCURVE('',#333,#513);
#513 = DEFINITIONAL_REPRESENTATION('',(#514),#518);
#514 = LINE('',#515,#516);
#515 = CARTESIAN_POINT('',(9.604296524746E-15,-1.5));
#516 = VECTOR('',#517,1.);
#517 = DIRECTION('',(1.,0.));
#518 = ( GEOMETRIC_REPRESENTATION_CONTEXT(2) 
PARAMETRIC_REPRESENTATION_CONTEXT() REPRESENTATION_CONTEXT('2D SPACE',''
  ) );
#519 = ORIENTED_EDGE('',*,*,#520,.F.);
#520 = EDGE_CURVE('',#521,#498,#523,.T.);
#521 = VERTEX_POINT('',#522);
#522 = CARTESIAN_POINT('',(507.85000183052,166.9288145744,
    17.502374130423));
#523 = SURFACE_CURVE('',#524,(#528,#534),.PCURVE_S1.);
#524 = LINE('',#525,#526);
#525 = CARTESIAN_POINT('',(507.85000183052,159.02154339139,
    19.325461769787));
#526 = VECTOR('',#527,1.);
#527 = DIRECTION('',(2.168404344971E-19,-0.974436192681,0.224664430637)
  );
#528 = PCURVE('',#72,#529);
#529 = DEFINITIONAL_REPRESENTATION('',(#530),#533);
#530 = B_SPLINE_CURVE_WITH_KNOTS('',1,(#531,#532),.UNSPECIFIED.,.F.,.F.,
  (2,2),(-8.114714172563,4.975450782641),.PIECEWISE_BEZIER_KNOTS.);
#531 = CARTESIAN_POINT('',(3.077642067934,1.682130850219));
#532 = CARTESIAN_POINT('',(-10.01252288727,1.682130850219));
#533 = ( GEOMETRIC_REPRESENTATION_CONTEXT(2) 
PARAMETRIC_REPRESENTATION_CONTEXT() REPRESENTATION_CONTEXT('2D SPACE',''
  ) );
#534 = PCURVE('',#360,#535);
#535 = DEFINITIONAL_REPRESENTATION('',(#536),#539);
#536 = B_SPLINE_CURVE_WITH_KNOTS('',1,(#537,#538),.UNSPECIFIED.,.F.,.F.,
  (2,2),(-8.114714172563,4.975450782641),.PIECEWISE_BEZIER_KNOTS.);
#537 = CARTESIAN_POINT('',(13.151786277191,-1.6));
#538 = CARTESIAN_POINT('',(6.162132198731E-02,-1.6));
#539 = ( GEOMETRIC_REPRESENTATION_CONTEXT(2) 
PARAMETRIC_REPRESENTATION_CONTEXT() REPRESENTATION_CONTEXT('2D SPACE',''
  ) );
#540 = ORIENTED_EDGE('',*,*,#541,.F.);
#541 = EDGE_CURVE('',#542,#521,#544,.T.);
#542 = VERTEX_POINT('',#543);
#543 = CARTESIAN_POINT('',(507.86058842719,167.41024033072,
    17.391323713594));
#544 = SURFACE_CURVE('',#545,(#549,#555),.PCURVE_S1.);
#545 = LINE('',#546,#547);
#546 = CARTESIAN_POINT('',(507.81742999007,165.44760929042,
    17.844043561349));
#547 = VECTOR('',#548,1.);
#548 = DIRECTION('',(-2.142250106994E-02,-0.974188788222,0.224716001546)
  );
#549 = PCURVE('',#72,#550);
#550 = DEFINITIONAL_REPRESENTATION('',(#551),#554);
#551 = B_SPLINE_CURVE_WITH_KNOTS('',1,(#552,#553),.UNSPECIFIED.,.F.,.F.,
  (2,2),(-2.014631110556,-1.520449939367),.PIECEWISE_BEZIER_KNOTS.);
#552 = CARTESIAN_POINT('',(3.571709827652,1.671544124356));
#553 = CARTESIAN_POINT('',(3.077642067934,1.682130850219));
#554 = ( GEOMETRIC_REPRESENTATION_CONTEXT(2) 
PARAMETRIC_REPRESENTATION_CONTEXT() REPRESENTATION_CONTEXT('2D SPACE',''
  ) );
#555 = PCURVE('',#386,#556);
#556 = DEFINITIONAL_REPRESENTATION('',(#557),#560);
#557 = B_SPLINE_CURVE_WITH_KNOTS('',1,(#558,#559),.UNSPECIFIED.,.F.,.F.,
  (2,2),(-2.014631110556,-1.520449939367),.PIECEWISE_BEZIER_KNOTS.);
#558 = CARTESIAN_POINT('',(0.494181171189,-1.6));
#559 = CARTESIAN_POINT('',(-3.552713678801E-15,-1.6));
#560 = ( GEOMETRIC_REPRESENTATION_CONTEXT(2) 
PARAMETRIC_REPRESENTATION_CONTEXT() REPRESENTATION_CONTEXT('2D SPACE',''
  ) );
#561 = ORIENTED_EDGE('',*,*,#562,.F.);
#562 = EDGE_CURVE('',#563,#542,#565,.T.);
#563 = VERTEX_POINT('',#564);
#564 = CARTESIAN_POINT('',(511.15740866628,167.41024033072,
    17.374608834981));
#565 = SURFACE_CURVE('',#566,(#570,#576),.PCURVE_S1.);
#566 = LINE('',#567,#568);
#567 = CARTESIAN_POINT('',(508.69431508233,167.41024033072,
    17.387096719452));
#568 = VECTOR('',#569,1.);
#569 = DIRECTION('',(-0.999987147798,-5.160802341031E-17,
    5.069934839335E-03));
#570 = PCURVE('',#72,#571);
#571 = DEFINITIONAL_REPRESENTATION('',(#572),#575);
#572 = B_SPLINE_CURVE_WITH_KNOTS('',1,(#573,#574),.UNSPECIFIED.,.F.,.F.,
  (2,2),(-2.463125240529,0.833737370504),.PIECEWISE_BEZIER_KNOTS.);
#573 = CARTESIAN_POINT('',(3.575465066339,-1.625316348005));
#574 = CARTESIAN_POINT('',(3.571709827652,1.671544124356));
#575 = ( GEOMETRIC_REPRESENTATION_CONTEXT(2) 
PARAMETRIC_REPRESENTATION_CONTEXT() REPRESENTATION_CONTEXT('2D SPACE',''
  ) );
#576 = PCURVE('',#412,#577);
#577 = DEFINITIONAL_REPRESENTATION('',(#578),#581);
#578 = B_SPLINE_CURVE_WITH_KNOTS('',1,(#579,#580),.UNSPECIFIED.,.F.,.F.,
  (2,2),(-2.463125240529,0.833737370504),.PIECEWISE_BEZIER_KNOTS.);
#579 = CARTESIAN_POINT('',(3.296862611033,-1.6));
#580 = CARTESIAN_POINT('',(-2.22044604925E-16,-1.6));
#581 = ( GEOMETRIC_REPRESENTATION_CONTEXT(2) 
PARAMETRIC_REPRESENTATION_CONTEXT() REPRESENTATION_CONTEXT('2D SPACE',''
  ) );
#582 = ORIENTED_EDGE('',*,*,#583,.F.);
#583 = EDGE_CURVE('',#584,#563,#586,.T.);
#584 = VERTEX_POINT('',#585);
#585 = CARTESIAN_POINT('',(511.15740866628,154.59466378382,
    20.329347410813));
#586 = SURFACE_CURVE('',#587,(#591,#597),.PCURVE_S1.);
#587 = LINE('',#588,#589);
#588 = CARTESIAN_POINT('',(511.15740866628,165.66820904757,
    17.776248746678));
#589 = VECTOR('',#590,1.);
#590 = DIRECTION('',(4.336808689942E-19,0.974436192681,-0.224664430637)
  );
#591 = PCURVE('',#72,#592);
#592 = DEFINITIONAL_REPRESENTATION('',(#593),#596);
#593 = B_SPLINE_CURVE_WITH_KNOTS('',1,(#594,#595),.UNSPECIFIED.,.F.,.F.,
  (2,2),(-11.36405374402,1.787732533169),.PIECEWISE_BEZIER_KNOTS.);
#594 = CARTESIAN_POINT('',(-9.576321210853,-1.625316348005));
#595 = CARTESIAN_POINT('',(3.575465066339,-1.625316348005));
#596 = ( GEOMETRIC_REPRESENTATION_CONTEXT(2) 
PARAMETRIC_REPRESENTATION_CONTEXT() REPRESENTATION_CONTEXT('2D SPACE',''
  ) );
#597 = PCURVE('',#438,#598);
#598 = DEFINITIONAL_REPRESENTATION('',(#599),#602);
#599 = B_SPLINE_CURVE_WITH_KNOTS('',1,(#600,#601),.UNSPECIFIED.,.F.,.F.,
  (2,2),(-11.36405374402,1.787732533169),.PIECEWISE_BEZIER_KNOTS.);
#600 = CARTESIAN_POINT('',(13.151786277191,-1.6));
#601 = CARTESIAN_POINT('',(0.,-1.6));
#602 = ( GEOMETRIC_REPRESENTATION_CONTEXT(2) 
PARAMETRIC_REPRESENTATION_CONTEXT() REPRESENTATION_CONTEXT('2D SPACE',''
  ) );
#603 = ORIENTED_EDGE('',*,*,#604,.F.);
#604 = EDGE_CURVE('',#165,#584,#605,.T.);
#605 = SURFACE_CURVE('',#606,(#610,#616),.PCURVE_S1.);
#606 = LINE('',#607,#608);
#607 = CARTESIAN_POINT('',(511.25958654927,159.24120564603,
    19.257530201544));
#608 = VECTOR('',#609,1.);
#609 = DIRECTION('',(2.142250106994E-02,0.974188788222,-0.224716001546)
  );
#610 = PCURVE('',#72,#611);
#611 = DEFINITIONAL_REPRESENTATION('',(#612),#615);
#612 = B_SPLINE_CURVE_WITH_KNOTS('',1,(#613,#614),.UNSPECIFIED.,.F.,.F.,
  (2,2),(-5.205954174563,-4.769652369626),.PIECEWISE_BEZIER_KNOTS.);
#613 = CARTESIAN_POINT('',(-10.01252288727,-1.615969558058));
#614 = CARTESIAN_POINT('',(-9.576321210853,-1.625316348005));
#615 = ( GEOMETRIC_REPRESENTATION_CONTEXT(2) 
PARAMETRIC_REPRESENTATION_CONTEXT() REPRESENTATION_CONTEXT('2D SPACE',''
  ) );
#616 = PCURVE('',#179,#617);
#617 = DEFINITIONAL_REPRESENTATION('',(#618),#621);
#618 = B_SPLINE_CURVE_WITH_KNOTS('',1,(#619,#620),.UNSPECIFIED.,.F.,.F.,
  (2,2),(-5.205954174563,-4.769652369626),.PIECEWISE_BEZIER_KNOTS.);
#619 = CARTESIAN_POINT('',(0.436301804937,-1.6));
#620 = CARTESIAN_POINT('',(-4.440892098501E-15,-1.6));
#621 = ( GEOMETRIC_REPRESENTATION_CONTEXT(2) 
PARAMETRIC_REPRESENTATION_CONTEXT() REPRESENTATION_CONTEXT('2D SPACE',''
  ) );
#622 = ADVANCED_FACE('',(#623),#179,.F.);
#623 = FACE_BOUND('',#624,.F.);
#624 = EDGE_LOOP('',(#625,#626,#647,#648));
#625 = ORIENTED_EDGE('',*,*,#449,.T.);
#626 = ORIENTED_EDGE('',*,*,#627,.T.);
#627 = EDGE_CURVE('',#424,#584,#628,.T.);
#628 = SURFACE_CURVE('',#629,(#633,#640),.PCURVE_S1.);
#629 = LINE('',#630,#631);
#630 = CARTESIAN_POINT('',(511.14950413635,154.23520508152,
    18.770268528991));
#631 = VECTOR('',#632,1.);
#632 = DIRECTION('',(4.940331206771E-03,0.224661688943,0.974424301138));
#633 = PCURVE('',#179,#634);
#634 = DEFINITIONAL_REPRESENTATION('',(#635),#639);
#635 = LINE('',#636,#637);
#636 = CARTESIAN_POINT('',(0.,-0.));
#637 = VECTOR('',#638,1.);
#638 = DIRECTION('',(-2.470246229791E-15,-1.));
#639 = ( GEOMETRIC_REPRESENTATION_CONTEXT(2) 
PARAMETRIC_REPRESENTATION_CONTEXT() REPRESENTATION_CONTEXT('2D SPACE',''
  ) );
#640 = PCURVE('',#438,#641);
#641 = DEFINITIONAL_REPRESENTATION('',(#642),#646);
#642 = LINE('',#643,#644);
#643 = CARTESIAN_POINT('',(13.151786277191,0.));
#644 = VECTOR('',#645,1.);
#645 = DIRECTION('',(-2.775557561563E-17,-1.));
#646 = ( GEOMETRIC_REPRESENTATION_CONTEXT(2) 
PARAMETRIC_REPRESENTATION_CONTEXT() REPRESENTATION_CONTEXT('2D SPACE',''
  ) );
#647 = ORIENTED_EDGE('',*,*,#604,.F.);
#648 = ORIENTED_EDGE('',*,*,#164,.T.);
#649 = ADVANCED_FACE('',(#650),#255,.F.);
#650 = FACE_BOUND('',#651,.F.);
#651 = EDGE_LOOP('',(#652,#653,#654,#675));
#652 = ORIENTED_EDGE('',*,*,#239,.T.);
#653 = ORIENTED_EDGE('',*,*,#474,.T.);
#654 = ORIENTED_EDGE('',*,*,#655,.F.);
#655 = EDGE_CURVE('',#295,#475,#656,.T.);
#656 = SURFACE_CURVE('',#657,(#661,#668),.PCURVE_S1.);
#657 = LINE('',#658,#659);
#658 = CARTESIAN_POINT('',(498.53623323149,153.84662094878,
    19.026433839253));
#659 = VECTOR('',#660,1.);
#660 = DIRECTION('',(4.940331206771E-03,0.224661688943,0.974424301138));
#661 = PCURVE('',#255,#662);
#662 = DEFINITIONAL_REPRESENTATION('',(#663),#667);
#663 = LINE('',#664,#665);
#664 = CARTESIAN_POINT('',(20.,0.));
#665 = VECTOR('',#666,1.);
#666 = DIRECTION('',(-1.942890293094E-16,-1.));
#667 = ( GEOMETRIC_REPRESENTATION_CONTEXT(2) 
PARAMETRIC_REPRESENTATION_CONTEXT() REPRESENTATION_CONTEXT('2D SPACE',''
  ) );
#668 = PCURVE('',#333,#669);
#669 = DEFINITIONAL_REPRESENTATION('',(#670),#674);
#670 = LINE('',#671,#672);
#671 = CARTESIAN_POINT('',(0.,-0.));
#672 = VECTOR('',#673,1.);
#673 = DIRECTION('',(2.142383492831E-16,-1.));
#674 = ( GEOMETRIC_REPRESENTATION_CONTEXT(2) 
PARAMETRIC_REPRESENTATION_CONTEXT() REPRESENTATION_CONTEXT('2D SPACE',''
  ) );
#675 = ORIENTED_EDGE('',*,*,#294,.F.);
#676 = ADVANCED_FACE('',(#677),#438,.F.);
#677 = FACE_BOUND('',#678,.F.);
#678 = EDGE_LOOP('',(#679,#680,#701,#702));
#679 = ORIENTED_EDGE('',*,*,#423,.T.);
#680 = ORIENTED_EDGE('',*,*,#681,.T.);
#681 = EDGE_CURVE('',#398,#563,#682,.T.);
#682 = SURFACE_CURVE('',#683,(#687,#694),.PCURVE_S1.);
#683 = LINE('',#684,#685);
#684 = CARTESIAN_POINT('',(511.14950413635,167.05078162841,
    15.81552995316));
#685 = VECTOR('',#686,1.);
#686 = DIRECTION('',(4.940331206771E-03,0.224661688943,0.974424301138));
#687 = PCURVE('',#438,#688);
#688 = DEFINITIONAL_REPRESENTATION('',(#689),#693);
#689 = LINE('',#690,#691);
#690 = CARTESIAN_POINT('',(0.,-0.));
#691 = VECTOR('',#692,1.);
#692 = DIRECTION('',(-2.775557561563E-17,-1.));
#693 = ( GEOMETRIC_REPRESENTATION_CONTEXT(2) 
PARAMETRIC_REPRESENTATION_CONTEXT() REPRESENTATION_CONTEXT('2D SPACE',''
  ) );
#694 = PCURVE('',#412,#695);
#695 = DEFINITIONAL_REPRESENTATION('',(#696),#700);
#696 = LINE('',#697,#698);
#697 = CARTESIAN_POINT('',(3.296862611033,-3.469446951954E-18));
#698 = VECTOR('',#699,1.);
#699 = DIRECTION('',(-1.431146867681E-16,-1.));
#700 = ( GEOMETRIC_REPRESENTATION_CONTEXT(2) 
PARAMETRIC_REPRESENTATION_CONTEXT() REPRESENTATION_CONTEXT('2D SPACE',''
  ) );
#701 = ORIENTED_EDGE('',*,*,#583,.F.);
#702 = ORIENTED_EDGE('',*,*,#627,.F.);
#703 = ADVANCED_FACE('',(#704),#412,.F.);
#704 = FACE_BOUND('',#705,.F.);
#705 = EDGE_LOOP('',(#706,#707,#728,#729));
#706 = ORIENTED_EDGE('',*,*,#397,.T.);
#707 = ORIENTED_EDGE('',*,*,#708,.T.);
#708 = EDGE_CURVE('',#372,#542,#709,.T.);
#709 = SURFACE_CURVE('',#710,(#714,#721),.PCURVE_S1.);
#710 = LINE('',#711,#712);
#711 = CARTESIAN_POINT('',(507.85268389726,167.05078162841,
    15.832244831772));
#712 = VECTOR('',#713,1.);
#713 = DIRECTION('',(4.940331206771E-03,0.224661688943,0.974424301138));
#714 = PCURVE('',#412,#715);
#715 = DEFINITIONAL_REPRESENTATION('',(#716),#720);
#716 = LINE('',#717,#718);
#717 = CARTESIAN_POINT('',(0.,-0.));
#718 = VECTOR('',#719,1.);
#719 = DIRECTION('',(-1.431146867681E-16,-1.));
#720 = ( GEOMETRIC_REPRESENTATION_CONTEXT(2) 
PARAMETRIC_REPRESENTATION_CONTEXT() REPRESENTATION_CONTEXT('2D SPACE',''
  ) );
#721 = PCURVE('',#386,#722);
#722 = DEFINITIONAL_REPRESENTATION('',(#723),#727);
#723 = LINE('',#724,#725);
#724 = CARTESIAN_POINT('',(0.494181171189,1.387778780781E-17));
#725 = VECTOR('',#726,1.);
#726 = DIRECTION('',(2.470246229791E-15,-1.));
#727 = ( GEOMETRIC_REPRESENTATION_CONTEXT(2) 
PARAMETRIC_REPRESENTATION_CONTEXT() REPRESENTATION_CONTEXT('2D SPACE',''
  ) );
#728 = ORIENTED_EDGE('',*,*,#562,.F.);
#729 = ORIENTED_EDGE('',*,*,#681,.F.);
#730 = ADVANCED_FACE('',(#731),#386,.F.);
#731 = FACE_BOUND('',#732,.F.);
#732 = EDGE_LOOP('',(#733,#734,#755,#756));
#733 = ORIENTED_EDGE('',*,*,#371,.T.);
#734 = ORIENTED_EDGE('',*,*,#735,.T.);
#735 = EDGE_CURVE('',#346,#521,#736,.T.);
#736 = SURFACE_CURVE('',#737,(#741,#748),.PCURVE_S1.);
#737 = LINE('',#738,#739);
#738 = CARTESIAN_POINT('',(507.84209730059,166.56935587209,
    15.943295248601));
#739 = VECTOR('',#740,1.);
#740 = DIRECTION('',(4.940331206771E-03,0.224661688943,0.974424301138));
#741 = PCURVE('',#386,#742);
#742 = DEFINITIONAL_REPRESENTATION('',(#743),#747);
#743 = LINE('',#744,#745);
#744 = CARTESIAN_POINT('',(0.,-0.));
#745 = VECTOR('',#746,1.);
#746 = DIRECTION('',(2.470246229791E-15,-1.));
#747 = ( GEOMETRIC_REPRESENTATION_CONTEXT(2) 
PARAMETRIC_REPRESENTATION_CONTEXT() REPRESENTATION_CONTEXT('2D SPACE',''
  ) );
#748 = PCURVE('',#360,#749);
#749 = DEFINITIONAL_REPRESENTATION('',(#750),#754);
#750 = LINE('',#751,#752);
#751 = CARTESIAN_POINT('',(13.151786277191,0.));
#752 = VECTOR('',#753,1.);
#753 = DIRECTION('',(1.665334536938E-16,-1.));
#754 = ( GEOMETRIC_REPRESENTATION_CONTEXT(2) 
PARAMETRIC_REPRESENTATION_CONTEXT() REPRESENTATION_CONTEXT('2D SPACE',''
  ) );
#755 = ORIENTED_EDGE('',*,*,#541,.F.);
#756 = ORIENTED_EDGE('',*,*,#708,.F.);
#757 = ADVANCED_FACE('',(#758),#360,.F.);
#758 = FACE_BOUND('',#759,.F.);
#759 = EDGE_LOOP('',(#760,#761,#762,#781));
#760 = ORIENTED_EDGE('',*,*,#735,.F.);
#761 = ORIENTED_EDGE('',*,*,#345,.T.);
#762 = ORIENTED_EDGE('',*,*,#763,.T.);
#763 = EDGE_CURVE('',#318,#498,#764,.T.);
#764 = SURFACE_CURVE('',#765,(#769,#775),.PCURVE_S1.);
#765 = LINE('',#766,#767);
#766 = CARTESIAN_POINT('',(507.84234431715,153.83538786433,
    18.930529388617));
#767 = VECTOR('',#768,1.);
#768 = DIRECTION('',(4.940331206771E-03,0.224661688943,0.974424301138));
#769 = PCURVE('',#360,#770);
#770 = DEFINITIONAL_REPRESENTATION('',(#771),#774);
#771 = B_SPLINE_CURVE_WITH_KNOTS('',1,(#772,#773),.UNSPECIFIED.,.F.,.F.,
  (2,2),(5.000000000001E-02,1.55),.PIECEWISE_BEZIER_KNOTS.);
#772 = CARTESIAN_POINT('',(7.222171674415E-02,-0.1));
#773 = CARTESIAN_POINT('',(7.222171674415E-02,-1.6));
#774 = ( GEOMETRIC_REPRESENTATION_CONTEXT(2) 
PARAMETRIC_REPRESENTATION_CONTEXT() REPRESENTATION_CONTEXT('2D SPACE',''
  ) );
#775 = PCURVE('',#333,#776);
#776 = DEFINITIONAL_REPRESENTATION('',(#777),#780);
#777 = B_SPLINE_CURVE_WITH_KNOTS('',1,(#778,#779),.UNSPECIFIED.,.F.,.F.,
  (2,2),(5.000000000001E-02,1.55),.PIECEWISE_BEZIER_KNOTS.);
#778 = CARTESIAN_POINT('',(9.306477710953,0.));
#779 = CARTESIAN_POINT('',(9.306477710953,-1.5));
#780 = ( GEOMETRIC_REPRESENTATION_CONTEXT(2) 
PARAMETRIC_REPRESENTATION_CONTEXT() REPRESENTATION_CONTEXT('2D SPACE',''
  ) );
#781 = ORIENTED_EDGE('',*,*,#520,.F.);
#782 = ADVANCED_FACE('',(#783),#333,.F.);
#783 = FACE_BOUND('',#784,.F.);
#784 = EDGE_LOOP('',(#785,#786,#787,#788));
#785 = ORIENTED_EDGE('',*,*,#317,.F.);
#786 = ORIENTED_EDGE('',*,*,#655,.T.);
#787 = ORIENTED_EDGE('',*,*,#497,.T.);
#788 = ORIENTED_EDGE('',*,*,#763,.F.);
#789 = ( GEOMETRIC_REPRESENTATION_CONTEXT(3) 
GLOBAL_UNCERTAINTY_ASSIGNED_CONTEXT((#793)) GLOBAL_UNIT_ASSIGNED_CONTEXT
((#790,#791,#792)) REPRESENTATION_CONTEXT('Context #1',
  '3D Context with UNIT and UNCERTAINTY') );
#790 = ( LENGTH_UNIT() NAMED_UNIT(*) SI_UNIT(.MILLI.,.METRE.) );
#791 = ( NAMED_UNIT(*) PLANE_ANGLE_UNIT() SI_UNIT($,.RADIAN.) );
#792 = ( NAMED_UNIT(*) SI_UNIT($,.STERADIAN.) SOLID_ANGLE_UNIT() );
#793 = UNCERTAINTY_MEASURE_WITH_UNIT(LENGTH_MEASURE(1.E-07),#790,
  'distance_accuracy_value','confusion accuracy');
#794 = PRODUCT_RELATED_PRODUCT_CATEGORY('part',$,(#7));
ENDSEC;
END-ISO-10303-21;
