ISO-10303-21;
HEADER;
FILE_DESCRIPTION(('Open CASCADE Model'),'2;1');
FILE_NAME('Open CASCADE Shape Model','2026-09-23T19:03:02',('Author'),(
    'Open CASCADE'),'Open CASCADE STEP processor 7.9','Open CASCADE 7.9'
  ,'Unknown');
FILE_SCHEMA(('AUTOMOTIVE_DESIGN { 1 0 10303 214 1 1 1 1 }'));
ENDSEC;
DATA;
#1 = APPLICATION_PROTOCOL_DEFINITION('international standard',
  'automotive_design',2000,#2);
#2 = APPLICATION_CONTEXT(
  'core data for automotive mechanical design processes');
#3 = SHAPE_DEFINITION_REPRESENTATION(#4,#10);
#4 = PRODUCT_DEFINITION_SHAPE('','',#5);
#5 = PRODUCT_DEFINITION('design','',#6,#9);
#6 = PRODUCT_DEFINITION_FORMATION('','',#7);
#7 = PRODUCT('Open CASCADE STEP translator 7.9 12',
  'Open CASCADE STEP translator 7.9 12','',(#8));
#8 = PRODUCT_CONTEXT('',#2,'mechanical');
#9 = PRODUCT_DEFINITION_CONTEXT('part definition',#2,'design');
#10 = ADVANCED_BREP_SHAPE_REPRESENTATION('',(#11,#15),#793);
#11 = AXIS2_PLACEMENT_3D('',#12,#13,#14);
#12 = CARTESIAN_POINT('',(0.,0.,0.));
#13 = DIRECTION('',(0.,0.,1.));
#14 = DIRECTION('',(1.,0.,-0.));
#15 = MANIFOLD_SOLID_BREP('',#16);
#16 = CLOSED_SHELL('',(#17,#137,#213,#284,#469,#624,#631,#678,#705,#732,
    #759,#786));
#17 = ADVANCED_FACE('',(#18),#32,.F.);
#18 = FACE_BOUND('',#19,.F.);
#19 = EDGE_LOOP('',(#20,#55,#83,#111));
#20 = ORIENTED_EDGE('',*,*,#21,.T.);
#21 = EDGE_CURVE('',#22,#24,#26,.T.);
#22 = VERTEX_POINT('',#23);
#23 = CARTESIAN_POINT('',(67.419616389389,498.59535756824,43.21969359474
    ));
#24 = VERTEX_POINT('',#25);
#25 = CARTESIAN_POINT('',(66.559939971603,498.65435313424,
    44.447486728738));
#26 = SURFACE_CURVE('',#27,(#31,#43),.PCURVE_S1.);
#27 = LINE('',#28,#29);
#28 = CARTESIAN_POINT('',(67.419616389389,498.59535756824,43.21969359474
    ));
#29 = VECTOR('',#30,1.);
#30 = DIRECTION('',(-0.573117611858,3.933037733744E-02,0.818528755999));
#31 = PCURVE('',#32,#37);
#32 = PLANE('',#33);
#33 = AXIS2_PLACEMENT_3D('',#34,#35,#36);
#34 = CARTESIAN_POINT('',(67.419616389389,498.59535756824,43.21969359474
    ));
#35 = DIRECTION('',(-0.819162573723,-1.040834085586E-17,-0.573561398467)
  );
#36 = DIRECTION('',(2.255838622788E-02,0.999226261374,
    -3.221797312525E-02));
#37 = DEFINITIONAL_REPRESENTATION('',(#38),#42);
#38 = LINE('',#39,#40);
#39 = CARTESIAN_POINT('',(-5.679943691197E-14,2.235673112946E-15));
#40 = VECTOR('',#41,1.);
#41 = DIRECTION('',(-2.25514051877E-16,-1.));
#42 = ( GEOMETRIC_REPRESENTATION_CONTEXT(2) 
PARAMETRIC_REPRESENTATION_CONTEXT() REPRESENTATION_CONTEXT('2D SPACE',''
  ) );
#43 = PCURVE('',#44,#49);
#44 = PLANE('',#45);
#45 = AXIS2_PLACEMENT_3D('',#46,#47,#48);
#46 = CARTESIAN_POINT('',(49.398039767475,498.59535756824,
    30.601342828477));
#47 = DIRECTION('',(2.255838622788E-02,0.999226261374,
    -3.221797312525E-02));
#48 = DIRECTION('',(0.819162573723,-2.584737979205E-15,0.573561398467));
#49 = DEFINITIONAL_REPRESENTATION('',(#50),#54);
#50 = LINE('',#51,#52);
#51 = CARTESIAN_POINT('',(22.,-1.7763568394E-15));
#52 = VECTOR('',#53,1.);
#53 = DIRECTION('',(1.110223024625E-16,-1.));
#54 = ( GEOMETRIC_REPRESENTATION_CONTEXT(2) 
PARAMETRIC_REPRESENTATION_CONTEXT() REPRESENTATION_CONTEXT('2D SPACE',''
  ) );
#55 = ORIENTED_EDGE('',*,*,#56,.T.);
#56 = EDGE_CURVE('',#24,#57,#59,.T.);
#57 = VERTEX_POINT('',#58);
#58 = CARTESIAN_POINT('',(67.01110769616,518.63887836171,43.803127266233
    ));
#59 = SURFACE_CURVE('',#60,(#64,#71),.PCURVE_S1.);
#60 = LINE('',#61,#62);
#61 = CARTESIAN_POINT('',(66.559939971603,498.65435313424,
    44.447486728738));
#62 = VECTOR('',#63,1.);
#63 = DIRECTION('',(2.255838622788E-02,0.999226261374,
    -3.221797312525E-02));
#64 = PCURVE('',#32,#65);
#65 = DEFINITIONAL_REPRESENTATION('',(#66),#70);
#66 = LINE('',#67,#68);
#67 = CARTESIAN_POINT('',(2.636779683485E-15,-1.5));
#68 = VECTOR('',#69,1.);
#69 = DIRECTION('',(1.,-3.469446951954E-18));
#70 = ( GEOMETRIC_REPRESENTATION_CONTEXT(2) 
PARAMETRIC_REPRESENTATION_CONTEXT() REPRESENTATION_CONTEXT('2D SPACE',''
  ) );
#71 = PCURVE('',#72,#77);
#72 = PLANE('',#73);
#73 = AXIS2_PLACEMENT_3D('',#74,#75,#76);
#74 = CARTESIAN_POINT('',(57.774735522924,508.64661574798,
    37.816131614354));
#75 = DIRECTION('',(-0.573117611858,3.933037733744E-02,0.818528755999));
#76 = DIRECTION('',(0.819162573723,0.,0.573561398467));
#77 = DEFINITIONAL_REPRESENTATION('',(#78),#82);
#78 = LINE('',#79,#80);
#79 = CARTESIAN_POINT('',(11.,-10.));
#80 = VECTOR('',#81,1.);
#81 = DIRECTION('',(-3.469446951954E-18,1.));
#82 = ( GEOMETRIC_REPRESENTATION_CONTEXT(2) 
PARAMETRIC_REPRESENTATION_CONTEXT() REPRESENTATION_CONTEXT('2D SPACE',''
  ) );
#83 = ORIENTED_EDGE('',*,*,#84,.F.);
#84 = EDGE_CURVE('',#85,#57,#87,.T.);
#85 = VERTEX_POINT('',#86);
#86 = CARTESIAN_POINT('',(67.870784113947,518.57988279571,
    42.575334132235));
#87 = SURFACE_CURVE('',#88,(#92,#99),.PCURVE_S1.);
#88 = LINE('',#89,#90);
#89 = CARTESIAN_POINT('',(67.870784113947,518.57988279571,
    42.575334132235));
#90 = VECTOR('',#91,1.);
#91 = DIRECTION('',(-0.573117611858,3.933037733744E-02,0.818528755999));
#92 = PCURVE('',#32,#93);
#93 = DEFINITIONAL_REPRESENTATION('',(#94),#98);
#94 = LINE('',#95,#96);
#95 = CARTESIAN_POINT('',(20.,-2.22044604925E-16));
#96 = VECTOR('',#97,1.);
#97 = DIRECTION('',(-2.25514051877E-16,-1.));
#98 = ( GEOMETRIC_REPRESENTATION_CONTEXT(2) 
PARAMETRIC_REPRESENTATION_CONTEXT() REPRESENTATION_CONTEXT('2D SPACE',''
  ) );
#99 = PCURVE('',#100,#105);
#100 = PLANE('',#101);
#101 = AXIS2_PLACEMENT_3D('',#102,#103,#104);
#102 = CARTESIAN_POINT('',(67.870784113947,518.57988279571,
    42.575334132235));
#103 = DIRECTION('',(-2.255838622788E-02,-0.999226261374,
    3.221797312525E-02));
#104 = DIRECTION('',(-0.819162573723,0.,-0.573561398467));
#105 = DEFINITIONAL_REPRESENTATION('',(#106),#110);
#106 = LINE('',#107,#108);
#107 = CARTESIAN_POINT('',(0.,0.));
#108 = VECTOR('',#109,1.);
#109 = DIRECTION('',(1.665334536938E-16,-1.));
#110 = ( GEOMETRIC_REPRESENTATION_CONTEXT(2) 
PARAMETRIC_REPRESENTATION_CONTEXT() REPRESENTATION_CONTEXT('2D SPACE',''
  ) );
#111 = ORIENTED_EDGE('',*,*,#112,.F.);
#112 = EDGE_CURVE('',#22,#85,#113,.T.);
#113 = SURFACE_CURVE('',#114,(#118,#125),.PCURVE_S1.);
#114 = LINE('',#115,#116);
#115 = CARTESIAN_POINT('',(67.419616389389,498.59535756824,
    43.21969359474));
#116 = VECTOR('',#117,1.);
#117 = DIRECTION('',(2.255838622788E-02,0.999226261374,
    -3.221797312525E-02));
#118 = PCURVE('',#32,#119);
#119 = DEFINITIONAL_REPRESENTATION('',(#120),#124);
#120 = LINE('',#121,#122);
#121 = CARTESIAN_POINT('',(0.,0.));
#122 = VECTOR('',#123,1.);
#123 = DIRECTION('',(1.,-3.469446951954E-18));
#124 = ( GEOMETRIC_REPRESENTATION_CONTEXT(2) 
PARAMETRIC_REPRESENTATION_CONTEXT() REPRESENTATION_CONTEXT('2D SPACE',''
  ) );
#125 = PCURVE('',#126,#131);
#126 = PLANE('',#127);
#127 = AXIS2_PLACEMENT_3D('',#128,#129,#130);
#128 = CARTESIAN_POINT('',(58.634411940711,508.58762018197,
    36.588338480356));
#129 = DIRECTION('',(-0.573117611858,3.933037733744E-02,0.818528755999)
  );
#130 = DIRECTION('',(0.819162573723,0.,0.573561398467));
#131 = DEFINITIONAL_REPRESENTATION('',(#132),#136);
#132 = LINE('',#133,#134);
#133 = CARTESIAN_POINT('',(11.,-10.));
#134 = VECTOR('',#135,1.);
#135 = DIRECTION('',(-3.469446951954E-18,1.));
#136 = ( GEOMETRIC_REPRESENTATION_CONTEXT(2) 
PARAMETRIC_REPRESENTATION_CONTEXT() REPRESENTATION_CONTEXT('2D SPACE',''
  ) );
#137 = ADVANCED_FACE('',(#138),#44,.F.);
#138 = FACE_BOUND('',#139,.F.);
#139 = EDGE_LOOP('',(#140,#170,#191,#192));
#140 = ORIENTED_EDGE('',*,*,#141,.T.);
#141 = EDGE_CURVE('',#142,#144,#146,.T.);
#142 = VERTEX_POINT('',#143);
#143 = CARTESIAN_POINT('',(49.398039767475,498.59535756824,
    30.601342828477));
#144 = VERTEX_POINT('',#145);
#145 = CARTESIAN_POINT('',(48.538363349688,498.65435313424,
    31.829135962475));
#146 = SURFACE_CURVE('',#147,(#151,#158),.PCURVE_S1.);
#147 = LINE('',#148,#149);
#148 = CARTESIAN_POINT('',(49.398039767475,498.59535756824,
    30.601342828477));
#149 = VECTOR('',#150,1.);
#150 = DIRECTION('',(-0.573117611858,3.933037733744E-02,0.818528755999)
  );
#151 = PCURVE('',#44,#152);
#152 = DEFINITIONAL_REPRESENTATION('',(#153),#157);
#153 = LINE('',#154,#155);
#154 = CARTESIAN_POINT('',(-5.820500161657E-15,-4.072245558418E-15));
#155 = VECTOR('',#156,1.);
#156 = DIRECTION('',(1.110223024625E-16,-1.));
#157 = ( GEOMETRIC_REPRESENTATION_CONTEXT(2) 
PARAMETRIC_REPRESENTATION_CONTEXT() REPRESENTATION_CONTEXT('2D SPACE',''
  ) );
#158 = PCURVE('',#159,#164);
#159 = PLANE('',#160);
#160 = AXIS2_PLACEMENT_3D('',#161,#162,#163);
#161 = CARTESIAN_POINT('',(49.849207492032,518.57988279571,
    29.956983365972));
#162 = DIRECTION('',(0.819162573723,-9.367506770275E-17,0.573561398467)
  );
#163 = DIRECTION('',(-2.255838622788E-02,-0.999226261374,
    3.221797312525E-02));
#164 = DEFINITIONAL_REPRESENTATION('',(#165),#169);
#165 = LINE('',#166,#167);
#166 = CARTESIAN_POINT('',(20.,2.775557561563E-15));
#167 = VECTOR('',#168,1.);
#168 = DIRECTION('',(7.285838599103E-17,-1.));
#169 = ( GEOMETRIC_REPRESENTATION_CONTEXT(2) 
PARAMETRIC_REPRESENTATION_CONTEXT() REPRESENTATION_CONTEXT('2D SPACE',''
  ) );
#170 = ORIENTED_EDGE('',*,*,#171,.T.);
#171 = EDGE_CURVE('',#144,#24,#172,.T.);
#172 = SURFACE_CURVE('',#173,(#177,#184),.PCURVE_S1.);
#173 = LINE('',#174,#175);
#174 = CARTESIAN_POINT('',(48.538363349688,498.65435313424,
    31.829135962475));
#175 = VECTOR('',#176,1.);
#176 = DIRECTION('',(0.819162573723,-2.5837917664E-15,0.573561398467));
#177 = PCURVE('',#44,#178);
#178 = DEFINITIONAL_REPRESENTATION('',(#179),#183);
#179 = LINE('',#180,#181);
#180 = CARTESIAN_POINT('',(-2.22044604925E-15,-1.5));
#181 = VECTOR('',#182,1.);
#182 = DIRECTION('',(1.,-5.551115123126E-17));
#183 = ( GEOMETRIC_REPRESENTATION_CONTEXT(2) 
PARAMETRIC_REPRESENTATION_CONTEXT() REPRESENTATION_CONTEXT('2D SPACE',''
  ) );
#184 = PCURVE('',#72,#185);
#185 = DEFINITIONAL_REPRESENTATION('',(#186),#190);
#186 = LINE('',#187,#188);
#187 = CARTESIAN_POINT('',(-11.,-10.));
#188 = VECTOR('',#189,1.);
#189 = DIRECTION('',(1.,-2.595146320061E-15));
#190 = ( GEOMETRIC_REPRESENTATION_CONTEXT(2) 
PARAMETRIC_REPRESENTATION_CONTEXT() REPRESENTATION_CONTEXT('2D SPACE',''
  ) );
#191 = ORIENTED_EDGE('',*,*,#21,.F.);
#192 = ORIENTED_EDGE('',*,*,#193,.F.);
#193 = EDGE_CURVE('',#142,#22,#194,.T.);
#194 = SURFACE_CURVE('',#195,(#199,#206),.PCURVE_S1.);
#195 = LINE('',#196,#197);
#196 = CARTESIAN_POINT('',(49.398039767475,498.59535756824,
    30.601342828477));
#197 = VECTOR('',#198,1.);
#198 = DIRECTION('',(0.819162573723,-2.5837917664E-15,0.573561398467));
#199 = PCURVE('',#44,#200);
#200 = DEFINITIONAL_REPRESENTATION('',(#201),#205);
#201 = LINE('',#202,#203);
#202 = CARTESIAN_POINT('',(0.,0.));
#203 = VECTOR('',#204,1.);
#204 = DIRECTION('',(1.,-5.551115123126E-17));
#205 = ( GEOMETRIC_REPRESENTATION_CONTEXT(2) 
PARAMETRIC_REPRESENTATION_CONTEXT() REPRESENTATION_CONTEXT('2D SPACE',''
  ) );
#206 = PCURVE('',#126,#207);
#207 = DEFINITIONAL_REPRESENTATION('',(#208),#212);
#208 = LINE('',#209,#210);
#209 = CARTESIAN_POINT('',(-11.,-10.));
#210 = VECTOR('',#211,1.);
#211 = DIRECTION('',(1.,-2.595146320061E-15));
#212 = ( GEOMETRIC_REPRESENTATION_CONTEXT(2) 
PARAMETRIC_REPRESENTATION_CONTEXT() REPRESENTATION_CONTEXT('2D SPACE',''
  ) );
#213 = ADVANCED_FACE('',(#214),#100,.F.);
#214 = FACE_BOUND('',#215,.F.);
#215 = EDGE_LOOP('',(#216,#217,#240,#263));
#216 = ORIENTED_EDGE('',*,*,#84,.T.);
#217 = ORIENTED_EDGE('',*,*,#218,.T.);
#218 = EDGE_CURVE('',#57,#219,#221,.T.);
#219 = VERTEX_POINT('',#220);
#220 = CARTESIAN_POINT('',(48.989531074245,518.63887836171,
    31.18477649997));
#221 = SURFACE_CURVE('',#222,(#226,#233),.PCURVE_S1.);
#222 = LINE('',#223,#224);
#223 = CARTESIAN_POINT('',(67.01110769616,518.63887836171,
    43.803127266233));
#224 = VECTOR('',#225,1.);
#225 = DIRECTION('',(-0.819162573723,0.,-0.573561398467));
#226 = PCURVE('',#100,#227);
#227 = DEFINITIONAL_REPRESENTATION('',(#228),#232);
#228 = LINE('',#229,#230);
#229 = CARTESIAN_POINT('',(4.773959005888E-15,-1.5));
#230 = VECTOR('',#231,1.);
#231 = DIRECTION('',(1.,0.));
#232 = ( GEOMETRIC_REPRESENTATION_CONTEXT(2) 
PARAMETRIC_REPRESENTATION_CONTEXT() REPRESENTATION_CONTEXT('2D SPACE',''
  ) );
#233 = PCURVE('',#72,#234);
#234 = DEFINITIONAL_REPRESENTATION('',(#235),#239);
#235 = LINE('',#236,#237);
#236 = CARTESIAN_POINT('',(11.,10.));
#237 = VECTOR('',#238,1.);
#238 = DIRECTION('',(-1.,-3.469446951954E-18));
#239 = ( GEOMETRIC_REPRESENTATION_CONTEXT(2) 
PARAMETRIC_REPRESENTATION_CONTEXT() REPRESENTATION_CONTEXT('2D SPACE',''
  ) );
#240 = ORIENTED_EDGE('',*,*,#241,.F.);
#241 = EDGE_CURVE('',#242,#219,#244,.T.);
#242 = VERTEX_POINT('',#243);
#243 = CARTESIAN_POINT('',(49.849207492032,518.57988279571,
    29.956983365972));
#244 = SURFACE_CURVE('',#245,(#249,#256),.PCURVE_S1.);
#245 = LINE('',#246,#247);
#246 = CARTESIAN_POINT('',(49.849207492032,518.57988279571,
    29.956983365972));
#247 = VECTOR('',#248,1.);
#248 = DIRECTION('',(-0.573117611858,3.933037733744E-02,0.818528755999)
  );
#249 = PCURVE('',#100,#250);
#250 = DEFINITIONAL_REPRESENTATION('',(#251),#255);
#251 = LINE('',#252,#253);
#252 = CARTESIAN_POINT('',(22.,0.));
#253 = VECTOR('',#254,1.);
#254 = DIRECTION('',(1.665334536938E-16,-1.));
#255 = ( GEOMETRIC_REPRESENTATION_CONTEXT(2) 
PARAMETRIC_REPRESENTATION_CONTEXT() REPRESENTATION_CONTEXT('2D SPACE',''
  ) );
#256 = PCURVE('',#159,#257);
#257 = DEFINITIONAL_REPRESENTATION('',(#258),#262);
#258 = LINE('',#259,#260);
#259 = CARTESIAN_POINT('',(0.,0.));
#260 = VECTOR('',#261,1.);
#261 = DIRECTION('',(7.285838599103E-17,-1.));
#262 = ( GEOMETRIC_REPRESENTATION_CONTEXT(2) 
PARAMETRIC_REPRESENTATION_CONTEXT() REPRESENTATION_CONTEXT('2D SPACE',''
  ) );
#263 = ORIENTED_EDGE('',*,*,#264,.F.);
#264 = EDGE_CURVE('',#85,#242,#265,.T.);
#265 = SURFACE_CURVE('',#266,(#270,#277),.PCURVE_S1.);
#266 = LINE('',#267,#268);
#267 = CARTESIAN_POINT('',(67.870784113947,518.57988279571,
    42.575334132235));
#268 = VECTOR('',#269,1.);
#269 = DIRECTION('',(-0.819162573723,0.,-0.573561398467));
#270 = PCURVE('',#100,#271);
#271 = DEFINITIONAL_REPRESENTATION('',(#272),#276);
#272 = LINE('',#273,#274);
#273 = CARTESIAN_POINT('',(0.,0.));
#274 = VECTOR('',#275,1.);
#275 = DIRECTION('',(1.,0.));
#276 = ( GEOMETRIC_REPRESENTATION_CONTEXT(2) 
PARAMETRIC_REPRESENTATION_CONTEXT() REPRESENTATION_CONTEXT('2D SPACE',''
  ) );
#277 = PCURVE('',#126,#278);
#278 = DEFINITIONAL_REPRESENTATION('',(#279),#283);
#279 = LINE('',#280,#281);
#280 = CARTESIAN_POINT('',(11.,10.));
#281 = VECTOR('',#282,1.);
#282 = DIRECTION('',(-1.,-3.469446951954E-18));
#283 = ( GEOMETRIC_REPRESENTATION_CONTEXT(2) 
PARAMETRIC_REPRESENTATION_CONTEXT() REPRESENTATION_CONTEXT('2D SPACE',''
  ) );
#284 = ADVANCED_FACE('',(#285,#311),#126,.F.);
#285 = FACE_BOUND('',#286,.F.);
#286 = EDGE_LOOP('',(#287,#288,#289,#310));
#287 = ORIENTED_EDGE('',*,*,#112,.T.);
#288 = ORIENTED_EDGE('',*,*,#264,.T.);
#289 = ORIENTED_EDGE('',*,*,#290,.T.);
#290 = EDGE_CURVE('',#242,#142,#291,.T.);
#291 = SURFACE_CURVE('',#292,(#296,#303),.PCURVE_S1.);
#292 = LINE('',#293,#294);
#293 = CARTESIAN_POINT('',(49.849207492032,518.57988279571,
    29.956983365972));
#294 = VECTOR('',#295,1.);
#295 = DIRECTION('',(-2.255838622788E-02,-0.999226261374,
    3.221797312525E-02));
#296 = PCURVE('',#126,#297);
#297 = DEFINITIONAL_REPRESENTATION('',(#298),#302);
#298 = LINE('',#299,#300);
#299 = CARTESIAN_POINT('',(-11.,10.));
#300 = VECTOR('',#301,1.);
#301 = DIRECTION('',(-9.71445146547E-17,-1.));
#302 = ( GEOMETRIC_REPRESENTATION_CONTEXT(2) 
PARAMETRIC_REPRESENTATION_CONTEXT() REPRESENTATION_CONTEXT('2D SPACE',''
  ) );
#303 = PCURVE('',#159,#304);
#304 = DEFINITIONAL_REPRESENTATION('',(#305),#309);
#305 = LINE('',#306,#307);
#306 = CARTESIAN_POINT('',(0.,0.));
#307 = VECTOR('',#308,1.);
#308 = DIRECTION('',(1.,0.));
#309 = ( GEOMETRIC_REPRESENTATION_CONTEXT(2) 
PARAMETRIC_REPRESENTATION_CONTEXT() REPRESENTATION_CONTEXT('2D SPACE',''
  ) );
#310 = ORIENTED_EDGE('',*,*,#193,.T.);
#311 = FACE_BOUND('',#312,.F.);
#312 = EDGE_LOOP('',(#313,#341,#367,#393,#419,#445));
#313 = ORIENTED_EDGE('',*,*,#314,.F.);
#314 = EDGE_CURVE('',#315,#317,#319,.T.);
#315 = VERTEX_POINT('',#316);
#316 = CARTESIAN_POINT('',(59.877079031215,499.35434058394,
    37.902089228898));
#317 = VERTEX_POINT('',#318);
#318 = CARTESIAN_POINT('',(60.852844340411,499.28737838105,
    38.58851829853));
#319 = SURFACE_CURVE('',#320,(#324,#330),.PCURVE_S1.);
#320 = LINE('',#321,#322);
#321 = CARTESIAN_POINT('',(59.431207229548,499.38493867732,
    37.588428389443));
#322 = VECTOR('',#323,1.);
#323 = DIRECTION('',(0.816608133539,-5.603999138119E-02,0.574465556499)
  );
#324 = PCURVE('',#126,#325);
#325 = DEFINITIONAL_REPRESENTATION('',(#326),#329);
#326 = B_SPLINE_CURVE_WITH_KNOTS('',1,(#327,#328),.UNSPECIFIED.,.F.,.F.,
  (2,2),(0.546004605336,1.740904912007),.PIECEWISE_BEZIER_KNOTS.);
#327 = CARTESIAN_POINT('',(1.771463088709,-9.240429275086));
#328 = CARTESIAN_POINT('',(2.964482727867,-9.307443329335));
#329 = ( GEOMETRIC_REPRESENTATION_CONTEXT(2) 
PARAMETRIC_REPRESENTATION_CONTEXT() REPRESENTATION_CONTEXT('2D SPACE',''
  ) );
#330 = PCURVE('',#331,#336);
#331 = PLANE('',#332);
#332 = AXIS2_PLACEMENT_3D('',#333,#334,#335);
#333 = CARTESIAN_POINT('',(60.910156101597,499.28344534332,
    38.50666542293));
#334 = DIRECTION('',(-6.846429153588E-02,-0.99765356752,
    4.232725281383E-15));
#335 = DIRECTION('',(-0.816608133539,5.603999138119E-02,-0.574465556499)
  );
#336 = DEFINITIONAL_REPRESENTATION('',(#337),#340);
#337 = B_SPLINE_CURVE_WITH_KNOTS('',1,(#338,#339),.UNSPECIFIED.,.F.,.F.,
  (2,2),(0.546004605336,1.740904912007),.PIECEWISE_BEZIER_KNOTS.);
#338 = CARTESIAN_POINT('',(1.194900306671,-1.E-01));
#339 = CARTESIAN_POINT('',(-4.440892098501E-16,-1.E-01));
#340 = ( GEOMETRIC_REPRESENTATION_CONTEXT(2) 
PARAMETRIC_REPRESENTATION_CONTEXT() REPRESENTATION_CONTEXT('2D SPACE',''
  ) );
#341 = ORIENTED_EDGE('',*,*,#342,.F.);
#342 = EDGE_CURVE('',#343,#315,#345,.T.);
#343 = VERTEX_POINT('',#344);
#344 = CARTESIAN_POINT('',(59.877079031215,512.63608322333,
    37.263900349305));
#345 = SURFACE_CURVE('',#346,(#350,#356),.PCURVE_S1.);
#346 = LINE('',#347,#348);
#347 = CARTESIAN_POINT('',(59.877079031215,503.99183620144,
    37.679257164417));
#348 = VECTOR('',#349,1.);
#349 = DIRECTION('',(-2.949029909161E-16,-0.998847589744,
    4.799471285441E-02));
#350 = PCURVE('',#126,#351);
#351 = DEFINITIONAL_REPRESENTATION('',(#352),#355);
#352 = B_SPLINE_CURVE_WITH_KNOTS('',1,(#353,#354),.UNSPECIFIED.,.F.,.F.,
  (2,2),(-8.654220234045,4.642846080933),.PIECEWISE_BEZIER_KNOTS.);
#353 = CARTESIAN_POINT('',(1.405422582444,4.051597919165));
#354 = CARTESIAN_POINT('',(1.771463088709,-9.240429275086));
#355 = ( GEOMETRIC_REPRESENTATION_CONTEXT(2) 
PARAMETRIC_REPRESENTATION_CONTEXT() REPRESENTATION_CONTEXT('2D SPACE',''
  ) );
#356 = PCURVE('',#357,#362);
#357 = PLANE('',#358);
#358 = AXIS2_PLACEMENT_3D('',#359,#360,#361);
#359 = CARTESIAN_POINT('',(59.934390792401,499.35040754621,
    37.820236353298));
#360 = DIRECTION('',(-0.819473125233,-2.750661521292E-02,-0.572457145244
    ));
#361 = DIRECTION('',(5.377642775528E-16,0.998847589744,
    -4.799471285441E-02));
#362 = DEFINITIONAL_REPRESENTATION('',(#363),#366);
#363 = B_SPLINE_CURVE_WITH_KNOTS('',1,(#364,#365),.UNSPECIFIED.,.F.,.F.,
  (2,2),(-8.654220234045,4.642846080933),.PIECEWISE_BEZIER_KNOTS.);
#364 = CARTESIAN_POINT('',(13.297066314979,-0.1));
#365 = CARTESIAN_POINT('',(-2.39808173319E-14,-9.999999999999E-02));
#366 = ( GEOMETRIC_REPRESENTATION_CONTEXT(2) 
PARAMETRIC_REPRESENTATION_CONTEXT() REPRESENTATION_CONTEXT('2D SPACE',''
  ) );
#367 = ORIENTED_EDGE('',*,*,#368,.F.);
#368 = EDGE_CURVE('',#369,#343,#371,.T.);
#369 = VERTEX_POINT('',#370);
#370 = CARTESIAN_POINT('',(63.006832077375,512.63608322333,
    39.455291401085));
#371 = SURFACE_CURVE('',#372,(#376,#382),.PCURVE_S1.);
#372 = LINE('',#373,#374);
#373 = CARTESIAN_POINT('',(59.301444241313,512.63608322333,
    36.860852278393));
#374 = VECTOR('',#375,1.);
#375 = DIRECTION('',(-0.819162573723,7.979727989493E-17,-0.573561398467)
  );
#376 = PCURVE('',#126,#377);
#377 = DEFINITIONAL_REPRESENTATION('',(#378),#381);
#378 = B_SPLINE_CURVE_WITH_KNOTS('',1,(#379,#380),.UNSPECIFIED.,.F.,.F.,
  (2,2),(-4.523385167879,-0.702711291222),.PIECEWISE_BEZIER_KNOTS.);
#379 = CARTESIAN_POINT('',(5.226096459101,4.051597919165));
#380 = CARTESIAN_POINT('',(1.405422582444,4.051597919165));
#381 = ( GEOMETRIC_REPRESENTATION_CONTEXT(2) 
PARAMETRIC_REPRESENTATION_CONTEXT() REPRESENTATION_CONTEXT('2D SPACE',''
  ) );
#382 = PCURVE('',#383,#388);
#383 = PLANE('',#384);
#384 = AXIS2_PLACEMENT_3D('',#385,#386,#387);
#385 = CARTESIAN_POINT('',(59.934390792401,512.63215018559,
    37.182047473705));
#386 = DIRECTION('',(2.255838622788E-02,0.999226261374,
    -3.221797312525E-02));
#387 = DIRECTION('',(0.819162573723,-3.469446951954E-18,0.573561398467)
  );
#388 = DEFINITIONAL_REPRESENTATION('',(#389),#392);
#389 = B_SPLINE_CURVE_WITH_KNOTS('',1,(#390,#391),.UNSPECIFIED.,.F.,.F.,
  (2,2),(-4.523385167879,-0.702711291222),.PIECEWISE_BEZIER_KNOTS.);
#390 = CARTESIAN_POINT('',(3.820673876657,-1.E-01));
#391 = CARTESIAN_POINT('',(0.,-0.1));
#392 = ( GEOMETRIC_REPRESENTATION_CONTEXT(2) 
PARAMETRIC_REPRESENTATION_CONTEXT() REPRESENTATION_CONTEXT('2D SPACE',''
  ) );
#393 = ORIENTED_EDGE('',*,*,#394,.F.);
#394 = EDGE_CURVE('',#395,#369,#397,.T.);
#395 = VERTEX_POINT('',#396);
#396 = CARTESIAN_POINT('',(63.982597386572,512.56912102044,
    40.141720470717));
#397 = SURFACE_CURVE('',#398,(#402,#408),.PCURVE_S1.);
#398 = LINE('',#399,#400);
#399 = CARTESIAN_POINT('',(60.96913195153,512.7759210388,38.02181494072)
  );
#400 = VECTOR('',#401,1.);
#401 = DIRECTION('',(-0.816608133539,5.60399913812E-02,-0.574465556499)
  );
#402 = PCURVE('',#126,#403);
#403 = DEFINITIONAL_REPRESENTATION('',(#404),#407);
#404 = B_SPLINE_CURVE_WITH_KNOTS('',1,(#405,#406),.UNSPECIFIED.,.F.,.F.,
  (2,2),(-3.690222165655,-2.495321858985),.PIECEWISE_BEZIER_KNOTS.);
#405 = CARTESIAN_POINT('',(6.419116098259,3.984583864916));
#406 = CARTESIAN_POINT('',(5.226096459101,4.051597919165));
#407 = ( GEOMETRIC_REPRESENTATION_CONTEXT(2) 
PARAMETRIC_REPRESENTATION_CONTEXT() REPRESENTATION_CONTEXT('2D SPACE',''
  ) );
#408 = PCURVE('',#409,#414);
#409 = PLANE('',#410);
#410 = AXIS2_PLACEMENT_3D('',#411,#412,#413);
#411 = CARTESIAN_POINT('',(63.064143838561,512.63215018559,
    39.373438525485));
#412 = DIRECTION('',(6.846429153588E-02,0.99765356752,
    -2.595146320061E-15));
#413 = DIRECTION('',(0.816608133539,-5.60399913812E-02,0.574465556499));
#414 = DEFINITIONAL_REPRESENTATION('',(#415),#418);
#415 = B_SPLINE_CURVE_WITH_KNOTS('',1,(#416,#417),.UNSPECIFIED.,.F.,.F.,
  (2,2),(-3.690222165655,-2.495321858985),.PIECEWISE_BEZIER_KNOTS.);
#416 = CARTESIAN_POINT('',(1.194900306671,-9.999999999999E-02));
#417 = CARTESIAN_POINT('',(-3.996802888651E-15,-9.999999999999E-02));
#418 = ( GEOMETRIC_REPRESENTATION_CONTEXT(2) 
PARAMETRIC_REPRESENTATION_CONTEXT() REPRESENTATION_CONTEXT('2D SPACE',''
  ) );
#419 = ORIENTED_EDGE('',*,*,#420,.F.);
#420 = EDGE_CURVE('',#421,#395,#423,.T.);
#421 = VERTEX_POINT('',#422);
#422 = CARTESIAN_POINT('',(63.982597386572,499.28737838105,
    40.77990935031));
#423 = SURFACE_CURVE('',#424,(#428,#434),.PCURVE_S1.);
#424 = LINE('',#425,#426);
#425 = CARTESIAN_POINT('',(63.982597386572,510.66812978587,
    40.23306326353));
#426 = VECTOR('',#427,1.);
#427 = DIRECTION('',(1.838806884535E-16,0.998847589744,
    -4.799471285441E-02));
#428 = PCURVE('',#126,#429);
#429 = DEFINITIONAL_REPRESENTATION('',(#430),#433);
#430 = B_SPLINE_CURVE_WITH_KNOTS('',1,(#431,#432),.UNSPECIFIED.,.F.,.F.,
  (2,2),(-11.39388183108,1.90318448389),.PIECEWISE_BEZIER_KNOTS.);
#431 = CARTESIAN_POINT('',(6.785156604524,-9.307443329335));
#432 = CARTESIAN_POINT('',(6.419116098259,3.984583864916));
#433 = ( GEOMETRIC_REPRESENTATION_CONTEXT(2) 
PARAMETRIC_REPRESENTATION_CONTEXT() REPRESENTATION_CONTEXT('2D SPACE',''
  ) );
#434 = PCURVE('',#435,#440);
#435 = PLANE('',#436);
#436 = AXIS2_PLACEMENT_3D('',#437,#438,#439);
#437 = CARTESIAN_POINT('',(64.039909147757,512.56518798271,
    40.059867595117));
#438 = DIRECTION('',(0.819473125233,2.750661521292E-02,0.572457145244));
#439 = DIRECTION('',(0.,-0.998847589744,4.799471285441E-02));
#440 = DEFINITIONAL_REPRESENTATION('',(#441),#444);
#441 = B_SPLINE_CURVE_WITH_KNOTS('',1,(#442,#443),.UNSPECIFIED.,.F.,.F.,
  (2,2),(-11.39388183108,1.90318448389),.PIECEWISE_BEZIER_KNOTS.);
#442 = CARTESIAN_POINT('',(13.297066314979,-1.E-01));
#443 = CARTESIAN_POINT('',(-3.419486915845E-14,-9.999999999999E-02));
#444 = ( GEOMETRIC_REPRESENTATION_CONTEXT(2) 
PARAMETRIC_REPRESENTATION_CONTEXT() REPRESENTATION_CONTEXT('2D SPACE',''
  ) );
#445 = ORIENTED_EDGE('',*,*,#446,.F.);
#446 = EDGE_CURVE('',#317,#421,#447,.T.);
#447 = SURFACE_CURVE('',#448,(#452,#458),.PCURVE_S1.);
#448 = LINE('',#449,#450);
#449 = CARTESIAN_POINT('',(61.203524212933,499.28737838105,
    38.834057394858));
#450 = VECTOR('',#451,1.);
#451 = DIRECTION('',(0.819162573723,1.484576350741E-14,0.573561398467));
#452 = PCURVE('',#126,#453);
#453 = DEFINITIONAL_REPRESENTATION('',(#454),#457);
#454 = B_SPLINE_CURVE_WITH_KNOTS('',1,(#455,#456),.UNSPECIFIED.,.F.,.F.,
  (2,2),(-0.428095574395,3.392578302262),.PIECEWISE_BEZIER_KNOTS.);
#455 = CARTESIAN_POINT('',(2.964482727867,-9.307443329335));
#456 = CARTESIAN_POINT('',(6.785156604524,-9.307443329335));
#457 = ( GEOMETRIC_REPRESENTATION_CONTEXT(2) 
PARAMETRIC_REPRESENTATION_CONTEXT() REPRESENTATION_CONTEXT('2D SPACE',''
  ) );
#458 = PCURVE('',#459,#464);
#459 = PLANE('',#460);
#460 = AXIS2_PLACEMENT_3D('',#461,#462,#463);
#461 = CARTESIAN_POINT('',(64.039909147757,499.28344534332,
    40.69805647471));
#462 = DIRECTION('',(-2.255838622786E-02,-0.999226261374,
    3.221797312526E-02));
#463 = DIRECTION('',(-0.819162573723,-1.487698852998E-14,-0.573561398467
    ));
#464 = DEFINITIONAL_REPRESENTATION('',(#465),#468);
#465 = B_SPLINE_CURVE_WITH_KNOTS('',1,(#466,#467),.UNSPECIFIED.,.F.,.F.,
  (2,2),(-0.428095574395,3.392578302262),.PIECEWISE_BEZIER_KNOTS.);
#466 = CARTESIAN_POINT('',(3.820673876657,-0.1));
#467 = CARTESIAN_POINT('',(-1.7763568394E-15,-1.E-01));
#468 = ( GEOMETRIC_REPRESENTATION_CONTEXT(2) 
PARAMETRIC_REPRESENTATION_CONTEXT() REPRESENTATION_CONTEXT('2D SPACE',''
  ) );
#469 = ADVANCED_FACE('',(#470,#496),#72,.T.);
#470 = FACE_BOUND('',#471,.T.);
#471 = EDGE_LOOP('',(#472,#473,#474,#495));
#472 = ORIENTED_EDGE('',*,*,#56,.T.);
#473 = ORIENTED_EDGE('',*,*,#218,.T.);
#474 = ORIENTED_EDGE('',*,*,#475,.T.);
#475 = EDGE_CURVE('',#219,#144,#476,.T.);
#476 = SURFACE_CURVE('',#477,(#481,#488),.PCURVE_S1.);
#477 = LINE('',#478,#479);
#478 = CARTESIAN_POINT('',(48.989531074245,518.63887836171,
    31.18477649997));
#479 = VECTOR('',#480,1.);
#480 = DIRECTION('',(-2.255838622788E-02,-0.999226261374,
    3.221797312525E-02));
#481 = PCURVE('',#72,#482);
#482 = DEFINITIONAL_REPRESENTATION('',(#483),#487);
#483 = LINE('',#484,#485);
#484 = CARTESIAN_POINT('',(-11.,10.));
#485 = VECTOR('',#486,1.);
#486 = DIRECTION('',(-9.71445146547E-17,-1.));
#487 = ( GEOMETRIC_REPRESENTATION_CONTEXT(2) 
PARAMETRIC_REPRESENTATION_CONTEXT() REPRESENTATION_CONTEXT('2D SPACE',''
  ) );
#488 = PCURVE('',#159,#489);
#489 = DEFINITIONAL_REPRESENTATION('',(#490),#494);
#490 = LINE('',#491,#492);
#491 = CARTESIAN_POINT('',(-2.747801985947E-15,-1.5));
#492 = VECTOR('',#493,1.);
#493 = DIRECTION('',(1.,0.));
#494 = ( GEOMETRIC_REPRESENTATION_CONTEXT(2) 
PARAMETRIC_REPRESENTATION_CONTEXT() REPRESENTATION_CONTEXT('2D SPACE',''
  ) );
#495 = ORIENTED_EDGE('',*,*,#171,.T.);
#496 = FACE_BOUND('',#497,.T.);
#497 = EDGE_LOOP('',(#498,#521,#542,#563,#584,#605));
#498 = ORIENTED_EDGE('',*,*,#499,.F.);
#499 = EDGE_CURVE('',#500,#502,#504,.T.);
#500 = VERTEX_POINT('',#501);
#501 = CARTESIAN_POINT('',(59.017402613428,499.41333614995,
    39.129882362896));
#502 = VERTEX_POINT('',#503);
#503 = CARTESIAN_POINT('',(59.993167922625,499.34637394706,
    39.816311432528));
#504 = SURFACE_CURVE('',#505,(#509,#515),.PCURVE_S1.);
#505 = LINE('',#506,#507);
#506 = CARTESIAN_POINT('',(58.571530811761,499.44393424332,
    38.816221523441));
#507 = VECTOR('',#508,1.);
#508 = DIRECTION('',(0.816608133539,-5.603999138119E-02,0.574465556499)
  );
#509 = PCURVE('',#72,#510);
#510 = DEFINITIONAL_REPRESENTATION('',(#511),#514);
#511 = B_SPLINE_CURVE_WITH_KNOTS('',1,(#512,#513),.UNSPECIFIED.,.F.,.F.,
  (2,2),(0.546004605336,1.740904912007),.PIECEWISE_BEZIER_KNOTS.);
#512 = CARTESIAN_POINT('',(1.771463088709,-9.240429275086));
#513 = CARTESIAN_POINT('',(2.964482727867,-9.307443329335));
#514 = ( GEOMETRIC_REPRESENTATION_CONTEXT(2) 
PARAMETRIC_REPRESENTATION_CONTEXT() REPRESENTATION_CONTEXT('2D SPACE',''
  ) );
#515 = PCURVE('',#331,#516);
#516 = DEFINITIONAL_REPRESENTATION('',(#517),#520);
#517 = B_SPLINE_CURVE_WITH_KNOTS('',1,(#518,#519),.UNSPECIFIED.,.F.,.F.,
  (2,2),(0.546004605336,1.740904912007),.PIECEWISE_BEZIER_KNOTS.);
#518 = CARTESIAN_POINT('',(1.194900306671,-1.6));
#519 = CARTESIAN_POINT('',(-2.22044604925E-16,-1.6));
#520 = ( GEOMETRIC_REPRESENTATION_CONTEXT(2) 
PARAMETRIC_REPRESENTATION_CONTEXT() REPRESENTATION_CONTEXT('2D SPACE',''
  ) );
#521 = ORIENTED_EDGE('',*,*,#522,.F.);
#522 = EDGE_CURVE('',#523,#500,#525,.T.);
#523 = VERTEX_POINT('',#524);
#524 = CARTESIAN_POINT('',(59.017402613428,512.69507878933,
    38.491693483303));
#525 = SURFACE_CURVE('',#526,(#530,#536),.PCURVE_S1.);
#526 = LINE('',#527,#528);
#527 = CARTESIAN_POINT('',(59.017402613428,504.05083176744,
    38.907050298415));
#528 = VECTOR('',#529,1.);
#529 = DIRECTION('',(-2.949029909161E-16,-0.998847589744,
    4.799471285441E-02));
#530 = PCURVE('',#72,#531);
#531 = DEFINITIONAL_REPRESENTATION('',(#532),#535);
#532 = B_SPLINE_CURVE_WITH_KNOTS('',1,(#533,#534),.UNSPECIFIED.,.F.,.F.,
  (2,2),(-8.654220234045,4.642846080933),.PIECEWISE_BEZIER_KNOTS.);
#533 = CARTESIAN_POINT('',(1.405422582444,4.051597919165));
#534 = CARTESIAN_POINT('',(1.771463088709,-9.240429275086));
#535 = ( GEOMETRIC_REPRESENTATION_CONTEXT(2) 
PARAMETRIC_REPRESENTATION_CONTEXT() REPRESENTATION_CONTEXT('2D SPACE',''
  ) );
#536 = PCURVE('',#357,#537);
#537 = DEFINITIONAL_REPRESENTATION('',(#538),#541);
#538 = B_SPLINE_CURVE_WITH_KNOTS('',1,(#539,#540),.UNSPECIFIED.,.F.,.F.,
  (2,2),(-8.654220234045,4.642846080933),.PIECEWISE_BEZIER_KNOTS.);
#539 = CARTESIAN_POINT('',(13.297066314979,-1.6));
#540 = CARTESIAN_POINT('',(-2.39808173319E-14,-1.6));
#541 = ( GEOMETRIC_REPRESENTATION_CONTEXT(2) 
PARAMETRIC_REPRESENTATION_CONTEXT() REPRESENTATION_CONTEXT('2D SPACE',''
  ) );
#542 = ORIENTED_EDGE('',*,*,#543,.F.);
#543 = EDGE_CURVE('',#544,#523,#546,.T.);
#544 = VERTEX_POINT('',#545);
#545 = CARTESIAN_POINT('',(62.147155659589,512.69507878933,
    40.683084535083));
#546 = SURFACE_CURVE('',#547,(#551,#557),.PCURVE_S1.);
#547 = LINE('',#548,#549);
#548 = CARTESIAN_POINT('',(58.441767823526,512.69507878933,
    38.088645412392));
#549 = VECTOR('',#550,1.);
#550 = DIRECTION('',(-0.819162573723,7.979727989493E-17,-0.573561398467)
  );
#551 = PCURVE('',#72,#552);
#552 = DEFINITIONAL_REPRESENTATION('',(#553),#556);
#553 = B_SPLINE_CURVE_WITH_KNOTS('',1,(#554,#555),.UNSPECIFIED.,.F.,.F.,
  (2,2),(-4.523385167879,-0.702711291222),.PIECEWISE_BEZIER_KNOTS.);
#554 = CARTESIAN_POINT('',(5.226096459101,4.051597919165));
#555 = CARTESIAN_POINT('',(1.405422582444,4.051597919165));
#556 = ( GEOMETRIC_REPRESENTATION_CONTEXT(2) 
PARAMETRIC_REPRESENTATION_CONTEXT() REPRESENTATION_CONTEXT('2D SPACE',''
  ) );
#557 = PCURVE('',#383,#558);
#558 = DEFINITIONAL_REPRESENTATION('',(#559),#562);
#559 = B_SPLINE_CURVE_WITH_KNOTS('',1,(#560,#561),.UNSPECIFIED.,.F.,.F.,
  (2,2),(-4.523385167879,-0.702711291222),.PIECEWISE_BEZIER_KNOTS.);
#560 = CARTESIAN_POINT('',(3.820673876657,-1.6));
#561 = CARTESIAN_POINT('',(0.,-1.6));
#562 = ( GEOMETRIC_REPRESENTATION_CONTEXT(2) 
PARAMETRIC_REPRESENTATION_CONTEXT() REPRESENTATION_CONTEXT('2D SPACE',''
  ) );
#563 = ORIENTED_EDGE('',*,*,#564,.F.);
#564 = EDGE_CURVE('',#565,#544,#567,.T.);
#565 = VERTEX_POINT('',#566);
#566 = CARTESIAN_POINT('',(63.122920968785,512.62811658645,
    41.369513604715));
#567 = SURFACE_CURVE('',#568,(#572,#578),.PCURVE_S1.);
#568 = LINE('',#569,#570);
#569 = CARTESIAN_POINT('',(60.109455533743,512.83491660481,
    39.249608074718));
#570 = VECTOR('',#571,1.);
#571 = DIRECTION('',(-0.816608133539,5.60399913812E-02,-0.574465556499)
  );
#572 = PCURVE('',#72,#573);
#573 = DEFINITIONAL_REPRESENTATION('',(#574),#577);
#574 = B_SPLINE_CURVE_WITH_KNOTS('',1,(#575,#576),.UNSPECIFIED.,.F.,.F.,
  (2,2),(-3.690222165655,-2.495321858985),.PIECEWISE_BEZIER_KNOTS.);
#575 = CARTESIAN_POINT('',(6.419116098259,3.984583864916));
#576 = CARTESIAN_POINT('',(5.226096459101,4.051597919165));
#577 = ( GEOMETRIC_REPRESENTATION_CONTEXT(2) 
PARAMETRIC_REPRESENTATION_CONTEXT() REPRESENTATION_CONTEXT('2D SPACE',''
  ) );
#578 = PCURVE('',#409,#579);
#579 = DEFINITIONAL_REPRESENTATION('',(#580),#583);
#580 = B_SPLINE_CURVE_WITH_KNOTS('',1,(#581,#582),.UNSPECIFIED.,.F.,.F.,
  (2,2),(-3.690222165655,-2.495321858985),.PIECEWISE_BEZIER_KNOTS.);
#581 = CARTESIAN_POINT('',(1.194900306671,-1.6));
#582 = CARTESIAN_POINT('',(-3.996802888651E-15,-1.6));
#583 = ( GEOMETRIC_REPRESENTATION_CONTEXT(2) 
PARAMETRIC_REPRESENTATION_CONTEXT() REPRESENTATION_CONTEXT('2D SPACE',''
  ) );
#584 = ORIENTED_EDGE('',*,*,#585,.F.);
#585 = EDGE_CURVE('',#586,#565,#588,.T.);
#586 = VERTEX_POINT('',#587);
#587 = CARTESIAN_POINT('',(63.122920968785,499.34637394706,
    42.007702484308));
#588 = SURFACE_CURVE('',#589,(#593,#599),.PCURVE_S1.);
#589 = LINE('',#590,#591);
#590 = CARTESIAN_POINT('',(63.122920968785,510.72712535187,
    41.460856397528));
#591 = VECTOR('',#592,1.);
#592 = DIRECTION('',(1.838806884535E-16,0.998847589744,
    -4.799471285441E-02));
#593 = PCURVE('',#72,#594);
#594 = DEFINITIONAL_REPRESENTATION('',(#595),#598);
#595 = B_SPLINE_CURVE_WITH_KNOTS('',1,(#596,#597),.UNSPECIFIED.,.F.,.F.,
  (2,2),(-11.39388183108,1.90318448389),.PIECEWISE_BEZIER_KNOTS.);
#596 = CARTESIAN_POINT('',(6.785156604524,-9.307443329335));
#597 = CARTESIAN_POINT('',(6.419116098259,3.984583864916));
#598 = ( GEOMETRIC_REPRESENTATION_CONTEXT(2) 
PARAMETRIC_REPRESENTATION_CONTEXT() REPRESENTATION_CONTEXT('2D SPACE',''
  ) );
#599 = PCURVE('',#435,#600);
#600 = DEFINITIONAL_REPRESENTATION('',(#601),#604);
#601 = B_SPLINE_CURVE_WITH_KNOTS('',1,(#602,#603),.UNSPECIFIED.,.F.,.F.,
  (2,2),(-11.39388183108,1.90318448389),.PIECEWISE_BEZIER_KNOTS.);
#602 = CARTESIAN_POINT('',(13.297066314979,-1.6));
#603 = CARTESIAN_POINT('',(-3.419486915845E-14,-1.6));
#604 = ( GEOMETRIC_REPRESENTATION_CONTEXT(2) 
PARAMETRIC_REPRESENTATION_CONTEXT() REPRESENTATION_CONTEXT('2D SPACE',''
  ) );
#605 = ORIENTED_EDGE('',*,*,#606,.F.);
#606 = EDGE_CURVE('',#502,#586,#607,.T.);
#607 = SURFACE_CURVE('',#608,(#612,#618),.PCURVE_S1.);
#608 = LINE('',#609,#610);
#609 = CARTESIAN_POINT('',(60.343847795146,499.34637394706,
    40.061850528856));
#610 = VECTOR('',#611,1.);
#611 = DIRECTION('',(0.819162573723,1.484576350741E-14,0.573561398467));
#612 = PCURVE('',#72,#613);
#613 = DEFINITIONAL_REPRESENTATION('',(#614),#617);
#614 = B_SPLINE_CURVE_WITH_KNOTS('',1,(#615,#616),.UNSPECIFIED.,.F.,.F.,
  (2,2),(-0.428095574395,3.392578302262),.PIECEWISE_BEZIER_KNOTS.);
#615 = CARTESIAN_POINT('',(2.964482727867,-9.307443329335));
#616 = CARTESIAN_POINT('',(6.785156604524,-9.307443329335));
#617 = ( GEOMETRIC_REPRESENTATION_CONTEXT(2) 
PARAMETRIC_REPRESENTATION_CONTEXT() REPRESENTATION_CONTEXT('2D SPACE',''
  ) );
#618 = PCURVE('',#459,#619);
#619 = DEFINITIONAL_REPRESENTATION('',(#620),#623);
#620 = B_SPLINE_CURVE_WITH_KNOTS('',1,(#621,#622),.UNSPECIFIED.,.F.,.F.,
  (2,2),(-0.428095574395,3.392578302262),.PIECEWISE_BEZIER_KNOTS.);
#621 = CARTESIAN_POINT('',(3.820673876657,-1.6));
#622 = CARTESIAN_POINT('',(-1.7763568394E-15,-1.6));
#623 = ( GEOMETRIC_REPRESENTATION_CONTEXT(2) 
PARAMETRIC_REPRESENTATION_CONTEXT() REPRESENTATION_CONTEXT('2D SPACE',''
  ) );
#624 = ADVANCED_FACE('',(#625),#159,.F.);
#625 = FACE_BOUND('',#626,.F.);
#626 = EDGE_LOOP('',(#627,#628,#629,#630));
#627 = ORIENTED_EDGE('',*,*,#241,.T.);
#628 = ORIENTED_EDGE('',*,*,#475,.T.);
#629 = ORIENTED_EDGE('',*,*,#141,.F.);
#630 = ORIENTED_EDGE('',*,*,#290,.F.);
#631 = ADVANCED_FACE('',(#632),#331,.F.);
#632 = FACE_BOUND('',#633,.F.);
#633 = EDGE_LOOP('',(#634,#635,#656,#657));
#634 = ORIENTED_EDGE('',*,*,#314,.T.);
#635 = ORIENTED_EDGE('',*,*,#636,.T.);
#636 = EDGE_CURVE('',#317,#502,#637,.T.);
#637 = SURFACE_CURVE('',#638,(#642,#649),.PCURVE_S1.);
#638 = LINE('',#639,#640);
#639 = CARTESIAN_POINT('',(60.910156101597,499.28344534332,
    38.50666542293));
#640 = VECTOR('',#641,1.);
#641 = DIRECTION('',(-0.573117611858,3.933037733744E-02,0.818528755999)
  );
#642 = PCURVE('',#331,#643);
#643 = DEFINITIONAL_REPRESENTATION('',(#644),#648);
#644 = LINE('',#645,#646);
#645 = CARTESIAN_POINT('',(0.,0.));
#646 = VECTOR('',#647,1.);
#647 = DIRECTION('',(8.881784197001E-16,-1.));
#648 = ( GEOMETRIC_REPRESENTATION_CONTEXT(2) 
PARAMETRIC_REPRESENTATION_CONTEXT() REPRESENTATION_CONTEXT('2D SPACE',''
  ) );
#649 = PCURVE('',#459,#650);
#650 = DEFINITIONAL_REPRESENTATION('',(#651),#655);
#651 = LINE('',#652,#653);
#652 = CARTESIAN_POINT('',(3.820673876657,-3.774758283726E-15));
#653 = VECTOR('',#654,1.);
#654 = DIRECTION('',(-8.326672684689E-16,-1.));
#655 = ( GEOMETRIC_REPRESENTATION_CONTEXT(2) 
PARAMETRIC_REPRESENTATION_CONTEXT() REPRESENTATION_CONTEXT('2D SPACE',''
  ) );
#656 = ORIENTED_EDGE('',*,*,#499,.F.);
#657 = ORIENTED_EDGE('',*,*,#658,.F.);
#658 = EDGE_CURVE('',#315,#500,#659,.T.);
#659 = SURFACE_CURVE('',#660,(#664,#671),.PCURVE_S1.);
#660 = LINE('',#661,#662);
#661 = CARTESIAN_POINT('',(59.934390792401,499.35040754621,
    37.820236353298));
#662 = VECTOR('',#663,1.);
#663 = DIRECTION('',(-0.573117611858,3.933037733744E-02,0.818528755999)
  );
#664 = PCURVE('',#331,#665);
#665 = DEFINITIONAL_REPRESENTATION('',(#666),#670);
#666 = LINE('',#667,#668);
#667 = CARTESIAN_POINT('',(1.194900306671,-1.110223024625E-16));
#668 = VECTOR('',#669,1.);
#669 = DIRECTION('',(8.881784197001E-16,-1.));
#670 = ( GEOMETRIC_REPRESENTATION_CONTEXT(2) 
PARAMETRIC_REPRESENTATION_CONTEXT() REPRESENTATION_CONTEXT('2D SPACE',''
  ) );
#671 = PCURVE('',#357,#672);
#672 = DEFINITIONAL_REPRESENTATION('',(#673),#677);
#673 = LINE('',#674,#675);
#674 = CARTESIAN_POINT('',(0.,0.));
#675 = VECTOR('',#676,1.);
#676 = DIRECTION('',(-4.649058915618E-16,-1.));
#677 = ( GEOMETRIC_REPRESENTATION_CONTEXT(2) 
PARAMETRIC_REPRESENTATION_CONTEXT() REPRESENTATION_CONTEXT('2D SPACE',''
  ) );
#678 = ADVANCED_FACE('',(#679),#459,.F.);
#679 = FACE_BOUND('',#680,.F.);
#680 = EDGE_LOOP('',(#681,#682,#703,#704));
#681 = ORIENTED_EDGE('',*,*,#446,.T.);
#682 = ORIENTED_EDGE('',*,*,#683,.T.);
#683 = EDGE_CURVE('',#421,#586,#684,.T.);
#684 = SURFACE_CURVE('',#685,(#689,#696),.PCURVE_S1.);
#685 = LINE('',#686,#687);
#686 = CARTESIAN_POINT('',(64.039909147757,499.28344534332,
    40.69805647471));
#687 = VECTOR('',#688,1.);
#688 = DIRECTION('',(-0.573117611858,3.933037733744E-02,0.818528755999)
  );
#689 = PCURVE('',#459,#690);
#690 = DEFINITIONAL_REPRESENTATION('',(#691),#695);
#691 = LINE('',#692,#693);
#692 = CARTESIAN_POINT('',(-0.,0.));
#693 = VECTOR('',#694,1.);
#694 = DIRECTION('',(-8.326672684689E-16,-1.));
#695 = ( GEOMETRIC_REPRESENTATION_CONTEXT(2) 
PARAMETRIC_REPRESENTATION_CONTEXT() REPRESENTATION_CONTEXT('2D SPACE',''
  ) );
#696 = PCURVE('',#435,#697);
#697 = DEFINITIONAL_REPRESENTATION('',(#698),#702);
#698 = LINE('',#699,#700);
#699 = CARTESIAN_POINT('',(13.297066314979,0.));
#700 = VECTOR('',#701,1.);
#701 = DIRECTION('',(-2.775557561563E-16,-1.));
#702 = ( GEOMETRIC_REPRESENTATION_CONTEXT(2) 
PARAMETRIC_REPRESENTATION_CONTEXT() REPRESENTATION_CONTEXT('2D SPACE',''
  ) );
#703 = ORIENTED_EDGE('',*,*,#606,.F.);
#704 = ORIENTED_EDGE('',*,*,#636,.F.);
#705 = ADVANCED_FACE('',(#706),#435,.F.);
#706 = FACE_BOUND('',#707,.F.);
#707 = EDGE_LOOP('',(#708,#709,#730,#731));
#708 = ORIENTED_EDGE('',*,*,#420,.T.);
#709 = ORIENTED_EDGE('',*,*,#710,.T.);
#710 = EDGE_CURVE('',#395,#565,#711,.T.);
#711 = SURFACE_CURVE('',#712,(#716,#723),.PCURVE_S1.);
#712 = LINE('',#713,#714);
#713 = CARTESIAN_POINT('',(64.039909147757,512.56518798271,
    40.059867595117));
#714 = VECTOR('',#715,1.);
#715 = DIRECTION('',(-0.573117611858,3.933037733744E-02,0.818528755999)
  );
#716 = PCURVE('',#435,#717);
#717 = DEFINITIONAL_REPRESENTATION('',(#718),#722);
#718 = LINE('',#719,#720);
#719 = CARTESIAN_POINT('',(0.,0.));
#720 = VECTOR('',#721,1.);
#721 = DIRECTION('',(-2.775557561563E-16,-1.));
#722 = ( GEOMETRIC_REPRESENTATION_CONTEXT(2) 
PARAMETRIC_REPRESENTATION_CONTEXT() REPRESENTATION_CONTEXT('2D SPACE',''
  ) );
#723 = PCURVE('',#409,#724);
#724 = DEFINITIONAL_REPRESENTATION('',(#725),#729);
#725 = LINE('',#726,#727);
#726 = CARTESIAN_POINT('',(1.194900306671,-1.110223024625E-16));
#727 = VECTOR('',#728,1.);
#728 = DIRECTION('',(-1.443289932013E-15,-1.));
#729 = ( GEOMETRIC_REPRESENTATION_CONTEXT(2) 
PARAMETRIC_REPRESENTATION_CONTEXT() REPRESENTATION_CONTEXT('2D SPACE',''
  ) );
#730 = ORIENTED_EDGE('',*,*,#585,.F.);
#731 = ORIENTED_EDGE('',*,*,#683,.F.);
#732 = ADVANCED_FACE('',(#733),#409,.F.);
#733 = FACE_BOUND('',#734,.F.);
#734 = EDGE_LOOP('',(#735,#736,#757,#758));
#735 = ORIENTED_EDGE('',*,*,#394,.T.);
#736 = ORIENTED_EDGE('',*,*,#737,.T.);
#737 = EDGE_CURVE('',#369,#544,#738,.T.);
#738 = SURFACE_CURVE('',#739,(#743,#750),.PCURVE_S1.);
#739 = LINE('',#740,#741);
#740 = CARTESIAN_POINT('',(63.064143838561,512.63215018559,
    39.373438525485));
#741 = VECTOR('',#742,1.);
#742 = DIRECTION('',(-0.573117611858,3.933037733744E-02,0.818528755999)
  );
#743 = PCURVE('',#409,#744);
#744 = DEFINITIONAL_REPRESENTATION('',(#745),#749);
#745 = LINE('',#746,#747);
#746 = CARTESIAN_POINT('',(0.,0.));
#747 = VECTOR('',#748,1.);
#748 = DIRECTION('',(-1.443289932013E-15,-1.));
#749 = ( GEOMETRIC_REPRESENTATION_CONTEXT(2) 
PARAMETRIC_REPRESENTATION_CONTEXT() REPRESENTATION_CONTEXT('2D SPACE',''
  ) );
#750 = PCURVE('',#383,#751);
#751 = DEFINITIONAL_REPRESENTATION('',(#752),#756);
#752 = LINE('',#753,#754);
#753 = CARTESIAN_POINT('',(3.820673876657,-2.22044604925E-16));
#754 = VECTOR('',#755,1.);
#755 = DIRECTION('',(1.831867990632E-15,-1.));
#756 = ( GEOMETRIC_REPRESENTATION_CONTEXT(2) 
PARAMETRIC_REPRESENTATION_CONTEXT() REPRESENTATION_CONTEXT('2D SPACE',''
  ) );
#757 = ORIENTED_EDGE('',*,*,#564,.F.);
#758 = ORIENTED_EDGE('',*,*,#710,.F.);
#759 = ADVANCED_FACE('',(#760),#383,.F.);
#760 = FACE_BOUND('',#761,.F.);
#761 = EDGE_LOOP('',(#762,#763,#784,#785));
#762 = ORIENTED_EDGE('',*,*,#368,.T.);
#763 = ORIENTED_EDGE('',*,*,#764,.T.);
#764 = EDGE_CURVE('',#343,#523,#765,.T.);
#765 = SURFACE_CURVE('',#766,(#770,#777),.PCURVE_S1.);
#766 = LINE('',#767,#768);
#767 = CARTESIAN_POINT('',(59.934390792401,512.63215018559,
    37.182047473705));
#768 = VECTOR('',#769,1.);
#769 = DIRECTION('',(-0.573117611858,3.933037733744E-02,0.818528755999)
  );
#770 = PCURVE('',#383,#771);
#771 = DEFINITIONAL_REPRESENTATION('',(#772),#776);
#772 = LINE('',#773,#774);
#773 = CARTESIAN_POINT('',(0.,0.));
#774 = VECTOR('',#775,1.);
#775 = DIRECTION('',(1.831867990632E-15,-1.));
#776 = ( GEOMETRIC_REPRESENTATION_CONTEXT(2) 
PARAMETRIC_REPRESENTATION_CONTEXT() REPRESENTATION_CONTEXT('2D SPACE',''
  ) );
#777 = PCURVE('',#357,#778);
#778 = DEFINITIONAL_REPRESENTATION('',(#779),#783);
#779 = LINE('',#780,#781);
#780 = CARTESIAN_POINT('',(13.297066314979,1.110223024625E-16));
#781 = VECTOR('',#782,1.);
#782 = DIRECTION('',(-4.649058915618E-16,-1.));
#783 = ( GEOMETRIC_REPRESENTATION_CONTEXT(2) 
PARAMETRIC_REPRESENTATION_CONTEXT() REPRESENTATION_CONTEXT('2D SPACE',''
  ) );
#784 = ORIENTED_EDGE('',*,*,#543,.F.);
#785 = ORIENTED_EDGE('',*,*,#737,.F.);
#786 = ADVANCED_FACE('',(#787),#357,.F.);
#787 = FACE_BOUND('',#788,.F.);
#788 = EDGE_LOOP('',(#789,#790,#791,#792));
#789 = ORIENTED_EDGE('',*,*,#342,.T.);
#790 = ORIENTED_EDGE('',*,*,#658,.T.);
#791 = ORIENTED_EDGE('',*,*,#522,.F.);
#792 = ORIENTED_EDGE('',*,*,#764,.F.);
#793 = ( GEOMETRIC_REPRESENTATION_CONTEXT(3) 
GLOBAL_UNCERTAINTY_ASSIGNED_CONTEXT((#797)) GLOBAL_UNIT_ASSIGNED_CONTEXT
((#794,#795,#796)) REPRESENTATION_CONTEXT('Context #1',
  '3D Context with UNIT and UNCERTAINTY') );
#794 = ( LENGTH_UNIT() NAMED_UNIT(*) SI_UNIT(.MILLI.,.METRE.) );
#795 = ( NAMED_UNIT(*) PLANE_ANGLE_UNIT() SI_UNIT($,.RADIAN.) );
#796 = ( NAMED_UNIT(*) SI_UNIT($,.STERADIAN.) SOLID_ANGLE_UNIT() );
#797 = UNCERTAINTY_MEASURE_WITH_UNIT(LENGTH_MEASURE(1.E-07),#794,
  'distance_accuracy_value','confusion accuracy');
#798 = PRODUCT_RELATED_PRODUCT_CATEGORY('part',$,(#7));
ENDSEC;
END-ISO-10303-21;
