ISO-10303-21;
HEADER;
FILE_DESCRIPTION(('Open CASCADE Model'),'2;1');
FILE_NAME('Open CASCADE Shape Model','2026-09-24T01:36:53',('Author'),(
    'Open CASCADE'),'Open CASCADE STEP processor 7.9','Open CASCADE 7.9'
  ,'Unknown');
FILE_SCHEMA(('AUTOMOTIVE_DESIGN { 1 0 10303 214 1 1 1 1 }'));
ENDSEC;
DATA;
#1 = APPLICATION_PROTOCOL_DEFINITION('international standard',
  'automotive_design',2000,#2);
#2 = APPLICATION_CONTEXT(
  'core data for automotive mechanical design processes');
#3 = SHAPE_DEFINITION_REPRESENTATION(#4,#10);
#4 = PRODUCT_DEFINITION_SHAPE('','',#5);
#5 = PRODUCT_DEFINITION('design','',#6,#9);
#6 = PRODUCT_DEFINITION_FORMATION('','',#7);
#7 = PRODUCT('Open CASCADE STEP translator 7.9 3',
  'Open CASCADE STEP translator 7.9 3','',(#8));
#8 = PRODUCT_CONTEXT('',#2,'mechanical');
#9 = PRODUCT_DEFINITION_CONTEXT('part definition',#2,'design');
#10 = ADVANCED_BREP_SHAPE_REPRESENTATION('',(#11,#15),#682);
#11 = AXIS2_PLACEMENT_3D('',#12,#13,#14);
#12 = CARTESIAN_POINT('',(0.,0.,0.));
#13 = DIRECTION('',(0.,0.,1.));
#14 = DIRECTION('',(1.,0.,-0.));
#15 = MANIFOLD_SOLID_BREP('',#16);
#16 = CLOSED_SHELL('',(#17,#266,#342,#413,#462,#515,#564,#592,#648,#675)
  );
#17 = ADVANCED_FACE('',(#18,#58),#31,.T.);
#18 = FACE_BOUND('',#19,.T.);
#19 = EDGE_LOOP('',(#20));
#20 = ORIENTED_EDGE('',*,*,#21,.T.);
#21 = EDGE_CURVE('',#22,#22,#24,.T.);
#22 = VERTEX_POINT('',#23);
#23 = CARTESIAN_POINT('',(510.55002319388,155.76285612588,
    -4.747560581405));
#24 = SURFACE_CURVE('',#25,(#30,#46),.PCURVE_S1.);
#25 = CIRCLE('',#26,1.000000014901);
#26 = AXIS2_PLACEMENT_3D('',#27,#28,#29);
#27 = CARTESIAN_POINT('',(510.5500231938,154.76285611098,-4.747560581405
    ));
#28 = DIRECTION('',(-1.,8.313561485415E-11,-1.003338230519E-07));
#29 = DIRECTION('',(8.313561485415E-11,1.,-2.168404344971E-19));
#30 = PCURVE('',#31,#36);
#31 = PLANE('',#32);
#32 = AXIS2_PLACEMENT_3D('',#33,#34,#35);
#33 = CARTESIAN_POINT('',(510.5500224909,160.50694008693,2.262793270082)
  );
#34 = DIRECTION('',(1.,-8.313562835114E-11,1.00333823045E-07));
#35 = DIRECTION('',(8.313562835114E-11,1.,-2.168390802921E-19));
#36 = DEFINITIONAL_REPRESENTATION('',(#37),#45);
#37 = ( BOUNDED_CURVE() B_SPLINE_CURVE(2,(#38,#39,#40,#41,#42,#43,#44),
.UNSPECIFIED.,.T.,.F.) B_SPLINE_CURVE_WITH_KNOTS((1,2,2,2,2,1),(
    -2.094395102393,0.,2.094395102393,4.188790204786,6.28318530718,
8.377580409573),.UNSPECIFIED.) CURVE() GEOMETRIC_REPRESENTATION_ITEM() 
RATIONAL_B_SPLINE_CURVE((1.,0.5,1.,0.5,1.,0.5,1.)) REPRESENTATION_ITEM(
  '') );
#38 = CARTESIAN_POINT('',(-4.744083961049,-7.010353851487));
#39 = CARTESIAN_POINT('',(-4.744083961049,-8.742404684865));
#40 = CARTESIAN_POINT('',(-6.2440839834,-7.876379268176));
#41 = CARTESIAN_POINT('',(-7.744084005752,-7.010353851487));
#42 = CARTESIAN_POINT('',(-6.2440839834,-6.144328434798));
#43 = CARTESIAN_POINT('',(-4.744083961049,-5.278303018109));
#44 = CARTESIAN_POINT('',(-4.744083961049,-7.010353851487));
#45 = ( GEOMETRIC_REPRESENTATION_CONTEXT(2) 
PARAMETRIC_REPRESENTATION_CONTEXT() REPRESENTATION_CONTEXT('2D SPACE',''
  ) );
#46 = PCURVE('',#47,#52);
#47 = CYLINDRICAL_SURFACE('',#48,1.000000014901);
#48 = AXIS2_PLACEMENT_3D('',#49,#50,#51);
#49 = CARTESIAN_POINT('',(507.3500231938,154.76285611125,-4.747560902473
    ));
#50 = DIRECTION('',(1.,-8.313350008393E-11,1.003338230207E-07));
#51 = DIRECTION('',(8.313350008393E-11,1.,-2.17052617478E-19));
#52 = DEFINITIONAL_REPRESENTATION('',(#53),#57);
#53 = LINE('',#54,#55);
#54 = CARTESIAN_POINT('',(6.28318530718,3.2));
#55 = VECTOR('',#56,1.);
#56 = DIRECTION('',(-1.,0.));
#57 = ( GEOMETRIC_REPRESENTATION_CONTEXT(2) 
PARAMETRIC_REPRESENTATION_CONTEXT() REPRESENTATION_CONTEXT('2D SPACE',''
  ) );
#58 = FACE_BOUND('',#59,.T.);
#59 = EDGE_LOOP('',(#60,#95,#123,#151,#179,#207,#240));
#60 = ORIENTED_EDGE('',*,*,#61,.F.);
#61 = EDGE_CURVE('',#62,#64,#66,.T.);
#62 = VERTEX_POINT('',#63);
#63 = CARTESIAN_POINT('',(510.55002346409,156.06248814744,
    -7.440388993374));
#64 = VERTEX_POINT('',#65);
#65 = CARTESIAN_POINT('',(510.55002349474,155.34418099164,-7.74652100114
    ));
#66 = SURFACE_CURVE('',#67,(#72,#83),.PCURVE_S1.);
#67 = CIRCLE('',#68,1.);
#68 = AXIS2_PLACEMENT_3D('',#69,#70,#71);
#69 = CARTESIAN_POINT('',(510.55002339441,155.34238437086,
    -6.746522615065));
#70 = DIRECTION('',(-1.,8.313562835113E-11,-1.00333823045E-07));
#71 = DIRECTION('',(9.233348165604E-08,0.392064085927,-0.919937906886));
#72 = PCURVE('',#31,#73);
#73 = DEFINITIONAL_REPRESENTATION('',(#74),#82);
#74 = ( BOUNDED_CURVE() B_SPLINE_CURVE(2,(#75,#76,#77,#78,#79,#80,#81),
.UNSPECIFIED.,.T.,.F.) B_SPLINE_CURVE_WITH_KNOTS((1,2,2,2,2,1),(
    -2.094395102393,0.,2.094395102393,4.188790204786,6.28318530718,
8.377580409573),.UNSPECIFIED.) CURVE() GEOMETRIC_REPRESENTATION_ITEM() 
RATIONAL_B_SPLINE_CURVE((1.,0.5,1.,0.5,1.,0.5,1.)) REPRESENTATION_ITEM(
  '') );
#75 = CARTESIAN_POINT('',(-4.772491630143,-9.929253792033));
#76 = CARTESIAN_POINT('',(-6.365870824678,-10.60832870868));
#77 = CARTESIAN_POINT('',(-6.157277356301,-8.888884390028));
#78 = CARTESIAN_POINT('',(-5.948683887924,-7.169440071375));
#79 = CARTESIAN_POINT('',(-4.563898161766,-8.20980947338));
#80 = CARTESIAN_POINT('',(-3.179112435607,-9.250178875384));
#81 = CARTESIAN_POINT('',(-4.772491630143,-9.929253792033));
#82 = ( GEOMETRIC_REPRESENTATION_CONTEXT(2) 
PARAMETRIC_REPRESENTATION_CONTEXT() REPRESENTATION_CONTEXT('2D SPACE',''
  ) );
#83 = PCURVE('',#84,#89);
#84 = CYLINDRICAL_SURFACE('',#85,1.);
#85 = AXIS2_PLACEMENT_3D('',#86,#87,#88);
#86 = CARTESIAN_POINT('',(507.35002339441,155.34238437113,
    -6.746522936133));
#87 = DIRECTION('',(1.,-8.313350008393E-11,1.003338230207E-07));
#88 = DIRECTION('',(9.233348079927E-08,0.392064085927,-0.919937906886));
#89 = DEFINITIONAL_REPRESENTATION('',(#90),#94);
#90 = LINE('',#91,#92);
#91 = CARTESIAN_POINT('',(12.566370614356,3.2));
#92 = VECTOR('',#93,1.);
#93 = DIRECTION('',(-1.,-7.086336339135E-14));
#94 = ( GEOMETRIC_REPRESENTATION_CONTEXT(2) 
PARAMETRIC_REPRESENTATION_CONTEXT() REPRESENTATION_CONTEXT('2D SPACE',''
  ) );
#95 = ORIENTED_EDGE('',*,*,#96,.T.);
#96 = EDGE_CURVE('',#62,#97,#99,.T.);
#97 = VERTEX_POINT('',#98);
#98 = CARTESIAN_POINT('',(510.55002208871,169.28156177436,6.278541825683
    ));
#99 = SURFACE_CURVE('',#100,(#104,#111),.PCURVE_S1.);
#100 = LINE('',#101,#102);
#101 = CARTESIAN_POINT('',(510.5500234947,155.7682443594,-7.745759118852
    ));
#102 = VECTOR('',#103,1.);
#103 = DIRECTION('',(-7.219307988089E-08,0.693866378309,0.720103776585)
  );
#104 = PCURVE('',#31,#105);
#105 = DEFINITIONAL_REPRESENTATION('',(#106),#110);
#106 = LINE('',#107,#108);
#107 = CARTESIAN_POINT('',(-4.73869572753,-10.00855238893));
#108 = VECTOR('',#109,1.);
#109 = DIRECTION('',(0.693866378309,0.720103776585));
#110 = ( GEOMETRIC_REPRESENTATION_CONTEXT(2) 
PARAMETRIC_REPRESENTATION_CONTEXT() REPRESENTATION_CONTEXT('2D SPACE',''
  ) );
#111 = PCURVE('',#112,#117);
#112 = PLANE('',#113);
#113 = AXIS2_PLACEMENT_3D('',#114,#115,#116);
#114 = CARTESIAN_POINT('',(507.3500234947,155.76824435966,-7.74575943992
    ));
#115 = DIRECTION('',(6.96781311487E-08,0.720103776585,-0.693866378309));
#116 = DIRECTION('',(-7.219307988089E-08,0.693866378309,0.720103776585)
  );
#117 = DEFINITIONAL_REPRESENTATION('',(#118),#122);
#118 = LINE('',#119,#120);
#119 = CARTESIAN_POINT('',(4.017616854536E-12,3.2));
#120 = VECTOR('',#121,1.);
#121 = DIRECTION('',(1.,2.64697796017E-23));
#122 = ( GEOMETRIC_REPRESENTATION_CONTEXT(2) 
PARAMETRIC_REPRESENTATION_CONTEXT() REPRESENTATION_CONTEXT('2D SPACE',''
  ) );
#123 = ORIENTED_EDGE('',*,*,#124,.T.);
#124 = EDGE_CURVE('',#97,#125,#127,.T.);
#125 = VERTEX_POINT('',#126);
#126 = CARTESIAN_POINT('',(510.55002148671,169.27078204848,
    12.278532142135));
#127 = SURFACE_CURVE('',#128,(#132,#139),.PCURVE_S1.);
#128 = LINE('',#129,#130);
#129 = CARTESIAN_POINT('',(510.55002249004,169.28874821629,
    2.278570874514));
#130 = VECTOR('',#131,1.);
#131 = DIRECTION('',(-1.00333810477E-07,-1.796620779673E-03,
    0.999998386076));
#132 = PCURVE('',#31,#133);
#133 = DEFINITIONAL_REPRESENTATION('',(#134),#138);
#134 = LINE('',#135,#136);
#135 = CARTESIAN_POINT('',(8.78180812936,1.5777604432E-02));
#136 = VECTOR('',#137,1.);
#137 = DIRECTION('',(-1.796620779673E-03,0.999998386076));
#138 = ( GEOMETRIC_REPRESENTATION_CONTEXT(2) 
PARAMETRIC_REPRESENTATION_CONTEXT() REPRESENTATION_CONTEXT('2D SPACE',''
  ) );
#139 = PCURVE('',#140,#145);
#140 = PLANE('',#141);
#141 = AXIS2_PLACEMENT_3D('',#142,#143,#144);
#142 = CARTESIAN_POINT('',(508.95002178771,169.27617191155,
    9.278536823375));
#143 = DIRECTION('',(-9.712846543041E-11,0.999998386076,
    1.796620779673E-03));
#144 = DIRECTION('',(-1.00333810477E-07,-1.796620779673E-03,
    0.999998386076));
#145 = DEFINITIONAL_REPRESENTATION('',(#146),#150);
#146 = LINE('',#147,#148);
#147 = CARTESIAN_POINT('',(-6.99997740683,1.599999999996));
#148 = VECTOR('',#149,1.);
#149 = DIRECTION('',(1.,-2.64697796017E-23));
#150 = ( GEOMETRIC_REPRESENTATION_CONTEXT(2) 
PARAMETRIC_REPRESENTATION_CONTEXT() REPRESENTATION_CONTEXT('2D SPACE',''
  ) );
#151 = ORIENTED_EDGE('',*,*,#152,.T.);
#152 = EDGE_CURVE('',#125,#153,#155,.T.);
#153 = VERTEX_POINT('',#154);
#154 = CARTESIAN_POINT('',(510.55002148841,151.7323183995,
    12.247022119541));
#155 = SURFACE_CURVE('',#156,(#160,#167),.PCURVE_S1.);
#156 = LINE('',#157,#158);
#157 = CARTESIAN_POINT('',(510.55002148841,151.7323183995,
    12.247022119541));
#158 = VECTOR('',#159,1.);
#159 = DIRECTION('',(9.712635725528E-11,-0.999998386075,
    -1.796620979457E-03));
#160 = PCURVE('',#31,#161);
#161 = DEFINITIONAL_REPRESENTATION('',(#162),#166);
#162 = LINE('',#163,#164);
#163 = CARTESIAN_POINT('',(-8.77462168743,9.984228849459));
#164 = VECTOR('',#165,1.);
#165 = DIRECTION('',(-0.999998386075,-1.796620979457E-03));
#166 = ( GEOMETRIC_REPRESENTATION_CONTEXT(2) 
PARAMETRIC_REPRESENTATION_CONTEXT() REPRESENTATION_CONTEXT('2D SPACE',''
  ) );
#167 = PCURVE('',#168,#173);
#168 = PLANE('',#169);
#169 = AXIS2_PLACEMENT_3D('',#170,#171,#172);
#170 = CARTESIAN_POINT('',(507.35002148671,169.27078204875,
    12.278531821066));
#171 = DIRECTION('',(-1.003338104489E-07,-1.796620979457E-03,
    0.999998386075));
#172 = DIRECTION('',(9.712635725528E-11,-0.999998386075,
    -1.796620979457E-03));
#173 = DEFINITIONAL_REPRESENTATION('',(#174),#178);
#174 = LINE('',#175,#176);
#175 = CARTESIAN_POINT('',(17.538491954791,3.199999999997));
#176 = VECTOR('',#177,1.);
#177 = DIRECTION('',(1.,2.584939414228E-26));
#178 = ( GEOMETRIC_REPRESENTATION_CONTEXT(2) 
PARAMETRIC_REPRESENTATION_CONTEXT() REPRESENTATION_CONTEXT('2D SPACE',''
  ) );
#179 = ORIENTED_EDGE('',*,*,#180,.T.);
#180 = EDGE_CURVE('',#153,#181,#183,.T.);
#181 = VERTEX_POINT('',#182);
#182 = CARTESIAN_POINT('',(510.55002339475,151.76645419432,
    -6.752947215895));
#183 = SURFACE_CURVE('',#184,(#188,#195),.PCURVE_S1.);
#184 = LINE('',#185,#186);
#185 = CARTESIAN_POINT('',(510.55002148841,151.7323183995,
    12.247022119541));
#186 = VECTOR('',#187,1.);
#187 = DIRECTION('',(1.003338104839E-07,1.796620779673E-03,
    -0.999998386076));
#188 = PCURVE('',#31,#189);
#189 = DEFINITIONAL_REPRESENTATION('',(#190),#194);
#190 = LINE('',#191,#192);
#191 = CARTESIAN_POINT('',(-8.77462168743,9.984228849459));
#192 = VECTOR('',#193,1.);
#193 = DIRECTION('',(1.796620779673E-03,-0.999998386076));
#194 = ( GEOMETRIC_REPRESENTATION_CONTEXT(2) 
PARAMETRIC_REPRESENTATION_CONTEXT() REPRESENTATION_CONTEXT('2D SPACE',''
  ) );
#195 = PCURVE('',#196,#201);
#196 = PLANE('',#197);
#197 = AXIS2_PLACEMENT_3D('',#198,#199,#200);
#198 = CARTESIAN_POINT('',(507.35002148841,151.73231839977,
    12.247021798473));
#199 = DIRECTION('',(9.712846543041E-11,-0.999998386076,
    -1.796620779673E-03));
#200 = DIRECTION('',(1.003338104839E-07,1.796620779673E-03,
    -0.999998386076));
#201 = DEFINITIONAL_REPRESENTATION('',(#202),#206);
#202 = LINE('',#203,#204);
#203 = CARTESIAN_POINT('',(2.260419431914E-13,3.2));
#204 = VECTOR('',#205,1.);
#205 = DIRECTION('',(1.,2.64697796017E-23));
#206 = ( GEOMETRIC_REPRESENTATION_CONTEXT(2) 
PARAMETRIC_REPRESENTATION_CONTEXT() REPRESENTATION_CONTEXT('2D SPACE',''
  ) );
#207 = ORIENTED_EDGE('',*,*,#208,.F.);
#208 = EDGE_CURVE('',#209,#181,#211,.T.);
#209 = VERTEX_POINT('',#210);
#210 = CARTESIAN_POINT('',(510.55002349499,152.76824920117,
    -7.751148981191));
#211 = SURFACE_CURVE('',#212,(#217,#228),.PCURVE_S1.);
#212 = CIRCLE('',#213,1.);
#213 = AXIS2_PLACEMENT_3D('',#214,#215,#216);
#214 = CARTESIAN_POINT('',(510.55002339466,152.76645258039,
    -6.751150595116));
#215 = DIRECTION('',(-1.,8.313562835113E-11,-1.00333823045E-07));
#216 = DIRECTION('',(7.101539646224E-08,-0.705835237233,-0.708376042706)
  );
#217 = PCURVE('',#31,#218);
#218 = DEFINITIONAL_REPRESENTATION('',(#219),#227);
#219 = ( BOUNDED_CURVE() B_SPLINE_CURVE(2,(#220,#221,#222,#223,#224,#225
,#226),.UNSPECIFIED.,.T.,.F.) B_SPLINE_CURVE_WITH_KNOTS((1,2,2,2,2,1),(
    -2.094395102393,0.,2.094395102393,4.188790204786,6.28318530718,
8.377580409573),.UNSPECIFIED.) CURVE() GEOMETRIC_REPRESENTATION_ITEM() 
RATIONAL_B_SPLINE_CURVE((1.,0.5,1.,0.5,1.,0.5,1.)) REPRESENTATION_ITEM(
  '') );
#220 = CARTESIAN_POINT('',(-8.446322743773,-9.722319907904));
#221 = CARTESIAN_POINT('',(-9.673266040605,-8.499777415244));
#222 = CARTESIAN_POINT('',(-8.001041536339,-8.048484597515));
#223 = CARTESIAN_POINT('',(-6.328817032074,-7.597191779786));
#224 = CARTESIAN_POINT('',(-6.774098239508,-9.271027090175));
#225 = CARTESIAN_POINT('',(-7.219379446942,-10.94486240056));
#226 = CARTESIAN_POINT('',(-8.446322743773,-9.722319907904));
#227 = ( GEOMETRIC_REPRESENTATION_CONTEXT(2) 
PARAMETRIC_REPRESENTATION_CONTEXT() REPRESENTATION_CONTEXT('2D SPACE',''
  ) );
#228 = PCURVE('',#229,#234);
#229 = CYLINDRICAL_SURFACE('',#230,1.);
#230 = AXIS2_PLACEMENT_3D('',#231,#232,#233);
#231 = CARTESIAN_POINT('',(507.35002339466,152.76645258066,
    -6.751150916184));
#232 = DIRECTION('',(1.,-8.313350008393E-11,1.003338230207E-07));
#233 = DIRECTION('',(7.101539794723E-08,-0.705835237233,-0.708376042706)
  );
#234 = DEFINITIONAL_REPRESENTATION('',(#235),#239);
#235 = LINE('',#236,#237);
#236 = CARTESIAN_POINT('',(6.283185307176,3.2));
#237 = VECTOR('',#238,1.);
#238 = DIRECTION('',(-1.,3.618764437584E-14));
#239 = ( GEOMETRIC_REPRESENTATION_CONTEXT(2) 
PARAMETRIC_REPRESENTATION_CONTEXT() REPRESENTATION_CONTEXT('2D SPACE',''
  ) );
#240 = ORIENTED_EDGE('',*,*,#241,.T.);
#241 = EDGE_CURVE('',#209,#64,#242,.T.);
#242 = SURFACE_CURVE('',#243,(#247,#254),.PCURVE_S1.);
#243 = LINE('',#244,#245);
#244 = CARTESIAN_POINT('',(510.55002349424,160.52490633732,
    -7.737213186016));
#245 = VECTOR('',#246,1.);
#246 = DIRECTION('',(-9.712635725528E-11,0.999998386075,
    1.796620979457E-03));
#247 = PCURVE('',#31,#248);
#248 = DEFINITIONAL_REPRESENTATION('',(#249),#253);
#249 = LINE('',#250,#251);
#250 = CARTESIAN_POINT('',(1.796625039E-02,-10.00000645609));
#251 = VECTOR('',#252,1.);
#252 = DIRECTION('',(0.999998386075,1.796620979457E-03));
#253 = ( GEOMETRIC_REPRESENTATION_CONTEXT(2) 
PARAMETRIC_REPRESENTATION_CONTEXT() REPRESENTATION_CONTEXT('2D SPACE',''
  ) );
#254 = PCURVE('',#255,#260);
#255 = PLANE('',#256);
#256 = AXIS2_PLACEMENT_3D('',#257,#258,#259);
#257 = CARTESIAN_POINT('',(508.95002349487,154.05621509654,-7.7488351517
    ));
#258 = DIRECTION('',(1.003338104489E-07,1.796620979457E-03,
    -0.999998386075));
#259 = DIRECTION('',(-9.712637076473E-11,0.999998386075,
    1.796620979457E-03));
#260 = DEFINITIONAL_REPRESENTATION('',(#261),#265);
#261 = LINE('',#262,#263);
#262 = CARTESIAN_POINT('',(6.468701680911,1.599999999998));
#263 = VECTOR('',#264,1.);
#264 = DIRECTION('',(1.,1.350944996791E-17));
#265 = ( GEOMETRIC_REPRESENTATION_CONTEXT(2) 
PARAMETRIC_REPRESENTATION_CONTEXT() REPRESENTATION_CONTEXT('2D SPACE',''
  ) );
#266 = ADVANCED_FACE('',(#267),#255,.T.);
#267 = FACE_BOUND('',#268,.T.);
#268 = EDGE_LOOP('',(#269,#292,#293,#316));
#269 = ORIENTED_EDGE('',*,*,#270,.F.);
#270 = EDGE_CURVE('',#64,#271,#273,.T.);
#271 = VERTEX_POINT('',#272);
#272 = CARTESIAN_POINT('',(507.35002349474,155.34418099191,
    -7.746521322208));
#273 = SURFACE_CURVE('',#274,(#278,#285),.PCURVE_S1.);
#274 = LINE('',#275,#276);
#275 = CARTESIAN_POINT('',(507.35002349474,155.3441809921,
    -7.746521322079));
#276 = VECTOR('',#277,1.);
#277 = DIRECTION('',(-1.,8.313350008393E-11,-1.003338230207E-07));
#278 = PCURVE('',#255,#279);
#279 = DEFINITIONAL_REPRESENTATION('',(#280),#284);
#280 = LINE('',#281,#282);
#281 = CARTESIAN_POINT('',(1.28796797411,-1.600000000005));
#282 = VECTOR('',#283,1.);
#283 = DIRECTION('',(-2.114710709491E-15,-1.));
#284 = ( GEOMETRIC_REPRESENTATION_CONTEXT(2) 
PARAMETRIC_REPRESENTATION_CONTEXT() REPRESENTATION_CONTEXT('2D SPACE',''
  ) );
#285 = PCURVE('',#84,#286);
#286 = DEFINITIONAL_REPRESENTATION('',(#287),#291);
#287 = LINE('',#288,#289);
#288 = CARTESIAN_POINT('',(5.882107683198,9.725553695716E-14));
#289 = VECTOR('',#290,1.);
#290 = DIRECTION('',(0.,-1.));
#291 = ( GEOMETRIC_REPRESENTATION_CONTEXT(2) 
PARAMETRIC_REPRESENTATION_CONTEXT() REPRESENTATION_CONTEXT('2D SPACE',''
  ) );
#292 = ORIENTED_EDGE('',*,*,#241,.F.);
#293 = ORIENTED_EDGE('',*,*,#294,.F.);
#294 = EDGE_CURVE('',#295,#209,#297,.T.);
#295 = VERTEX_POINT('',#296);
#296 = CARTESIAN_POINT('',(507.35002349499,152.76824920144,
    -7.751149302259));
#297 = SURFACE_CURVE('',#298,(#302,#309),.PCURVE_S1.);
#298 = LINE('',#299,#300);
#299 = CARTESIAN_POINT('',(507.35002349499,152.76824920164,
    -7.751149302388));
#300 = VECTOR('',#301,1.);
#301 = DIRECTION('',(1.,-8.313350008393E-11,1.003338230207E-07));
#302 = PCURVE('',#255,#303);
#303 = DEFINITIONAL_REPRESENTATION('',(#304),#308);
#304 = LINE('',#305,#306);
#305 = CARTESIAN_POINT('',(-1.287967973716,-1.600000000005));
#306 = VECTOR('',#307,1.);
#307 = DIRECTION('',(2.114710709491E-15,1.));
#308 = ( GEOMETRIC_REPRESENTATION_CONTEXT(2) 
PARAMETRIC_REPRESENTATION_CONTEXT() REPRESENTATION_CONTEXT('2D SPACE',''
  ) );
#309 = PCURVE('',#229,#310);
#310 = DEFINITIONAL_REPRESENTATION('',(#311),#315);
#311 = LINE('',#312,#313);
#312 = CARTESIAN_POINT('',(0.785398163598,2.842042048438E-13));
#313 = VECTOR('',#314,1.);
#314 = DIRECTION('',(6.279698983036E-15,1.));
#315 = ( GEOMETRIC_REPRESENTATION_CONTEXT(2) 
PARAMETRIC_REPRESENTATION_CONTEXT() REPRESENTATION_CONTEXT('2D SPACE',''
  ) );
#316 = ORIENTED_EDGE('',*,*,#317,.T.);
#317 = EDGE_CURVE('',#295,#271,#318,.T.);
#318 = SURFACE_CURVE('',#319,(#323,#330),.PCURVE_S1.);
#319 = LINE('',#320,#321);
#320 = CARTESIAN_POINT('',(507.35002349487,154.05621509667,
    -7.748835312234));
#321 = VECTOR('',#322,1.);
#322 = DIRECTION('',(-9.712635725528E-11,0.999998386075,
    1.796620979457E-03));
#323 = PCURVE('',#255,#324);
#324 = DEFINITIONAL_REPRESENTATION('',(#325),#329);
#325 = LINE('',#326,#327);
#326 = CARTESIAN_POINT('',(-3.016089149651E-12,-1.6));
#327 = VECTOR('',#328,1.);
#328 = DIRECTION('',(1.,1.350944996791E-17));
#329 = ( GEOMETRIC_REPRESENTATION_CONTEXT(2) 
PARAMETRIC_REPRESENTATION_CONTEXT() REPRESENTATION_CONTEXT('2D SPACE',''
  ) );
#330 = PCURVE('',#331,#336);
#331 = PLANE('',#332);
#332 = AXIS2_PLACEMENT_3D('',#333,#334,#335);
#333 = CARTESIAN_POINT('',(507.3500224909,160.5069400872,2.262792949014)
  );
#334 = DIRECTION('',(1.,-8.313562835114E-11,1.00333823045E-07));
#335 = DIRECTION('',(8.313562835114E-11,1.,-2.168390802921E-19));
#336 = DEFINITIONAL_REPRESENTATION('',(#337),#341);
#337 = LINE('',#338,#339);
#338 = CARTESIAN_POINT('',(-6.45072499053,-10.01162826124));
#339 = VECTOR('',#340,1.);
#340 = DIRECTION('',(0.999998386075,1.796620979457E-03));
#341 = ( GEOMETRIC_REPRESENTATION_CONTEXT(2) 
PARAMETRIC_REPRESENTATION_CONTEXT() REPRESENTATION_CONTEXT('2D SPACE',''
  ) );
#342 = ADVANCED_FACE('',(#343),#140,.T.);
#343 = FACE_BOUND('',#344,.T.);
#344 = EDGE_LOOP('',(#345,#370,#391,#392));
#345 = ORIENTED_EDGE('',*,*,#346,.F.);
#346 = EDGE_CURVE('',#347,#349,#351,.T.);
#347 = VERTEX_POINT('',#348);
#348 = CARTESIAN_POINT('',(507.35002148671,169.27078204875,
    12.278531821066));
#349 = VERTEX_POINT('',#350);
#350 = CARTESIAN_POINT('',(507.35002208871,169.28156177463,
    6.278541504615));
#351 = SURFACE_CURVE('',#352,(#356,#363),.PCURVE_S1.);
#352 = LINE('',#353,#354);
#353 = CARTESIAN_POINT('',(507.35002249004,169.28874821655,
    2.278570553446));
#354 = VECTOR('',#355,1.);
#355 = DIRECTION('',(1.00333810477E-07,1.796620779673E-03,
    -0.999998386076));
#356 = PCURVE('',#140,#357);
#357 = DEFINITIONAL_REPRESENTATION('',(#358),#362);
#358 = LINE('',#359,#360);
#359 = CARTESIAN_POINT('',(-6.999977406829,-1.600000000004));
#360 = VECTOR('',#361,1.);
#361 = DIRECTION('',(-1.,2.64697796017E-23));
#362 = ( GEOMETRIC_REPRESENTATION_CONTEXT(2) 
PARAMETRIC_REPRESENTATION_CONTEXT() REPRESENTATION_CONTEXT('2D SPACE',''
  ) );
#363 = PCURVE('',#331,#364);
#364 = DEFINITIONAL_REPRESENTATION('',(#365),#369);
#365 = LINE('',#366,#367);
#366 = CARTESIAN_POINT('',(8.78180812935,1.5777604432E-02));
#367 = VECTOR('',#368,1.);
#368 = DIRECTION('',(1.796620779673E-03,-0.999998386076));
#369 = ( GEOMETRIC_REPRESENTATION_CONTEXT(2) 
PARAMETRIC_REPRESENTATION_CONTEXT() REPRESENTATION_CONTEXT('2D SPACE',''
  ) );
#370 = ORIENTED_EDGE('',*,*,#371,.T.);
#371 = EDGE_CURVE('',#347,#125,#372,.T.);
#372 = SURFACE_CURVE('',#373,(#377,#384),.PCURVE_S1.);
#373 = LINE('',#374,#375);
#374 = CARTESIAN_POINT('',(508.95002148671,169.27078204922,
    12.278531981602));
#375 = VECTOR('',#376,1.);
#376 = DIRECTION('',(1.,-8.313350008393E-11,1.003338230207E-07));
#377 = PCURVE('',#140,#378);
#378 = DEFINITIONAL_REPRESENTATION('',(#379),#383);
#379 = LINE('',#380,#381);
#380 = CARTESIAN_POINT('',(3.,1.43139504214E-12));
#381 = VECTOR('',#382,1.);
#382 = DIRECTION('',(-2.809122565587E-17,1.));
#383 = ( GEOMETRIC_REPRESENTATION_CONTEXT(2) 
PARAMETRIC_REPRESENTATION_CONTEXT() REPRESENTATION_CONTEXT('2D SPACE',''
  ) );
#384 = PCURVE('',#168,#385);
#385 = DEFINITIONAL_REPRESENTATION('',(#386),#390);
#386 = LINE('',#387,#388);
#387 = CARTESIAN_POINT('',(-6.030277857862E-10,1.6));
#388 = VECTOR('',#389,1.);
#389 = DIRECTION('',(-2.128220159484E-15,1.));
#390 = ( GEOMETRIC_REPRESENTATION_CONTEXT(2) 
PARAMETRIC_REPRESENTATION_CONTEXT() REPRESENTATION_CONTEXT('2D SPACE',''
  ) );
#391 = ORIENTED_EDGE('',*,*,#124,.F.);
#392 = ORIENTED_EDGE('',*,*,#393,.F.);
#393 = EDGE_CURVE('',#349,#97,#394,.T.);
#394 = SURFACE_CURVE('',#395,(#399,#406),.PCURVE_S1.);
#395 = LINE('',#396,#397);
#396 = CARTESIAN_POINT('',(507.35002208871,169.28156177403,
    6.278541503995));
#397 = VECTOR('',#398,1.);
#398 = DIRECTION('',(1.,-8.313350008393E-11,1.003338230207E-07));
#399 = PCURVE('',#140,#400);
#400 = DEFINITIONAL_REPRESENTATION('',(#401),#405);
#401 = LINE('',#402,#403);
#402 = CARTESIAN_POINT('',(-3.000000000619,-1.600000000001));
#403 = VECTOR('',#404,1.);
#404 = DIRECTION('',(-2.809122565587E-17,1.));
#405 = ( GEOMETRIC_REPRESENTATION_CONTEXT(2) 
PARAMETRIC_REPRESENTATION_CONTEXT() REPRESENTATION_CONTEXT('2D SPACE',''
  ) );
#406 = PCURVE('',#112,#407);
#407 = DEFINITIONAL_REPRESENTATION('',(#408),#412);
#408 = LINE('',#409,#410);
#409 = CARTESIAN_POINT('',(19.47538868693,-1.728333689816E-12));
#410 = VECTOR('',#411,1.);
#411 = DIRECTION('',(1.454917682675E-15,1.));
#412 = ( GEOMETRIC_REPRESENTATION_CONTEXT(2) 
PARAMETRIC_REPRESENTATION_CONTEXT() REPRESENTATION_CONTEXT('2D SPACE',''
  ) );
#413 = ADVANCED_FACE('',(#414),#168,.T.);
#414 = FACE_BOUND('',#415,.T.);
#415 = EDGE_LOOP('',(#416,#439,#460,#461));
#416 = ORIENTED_EDGE('',*,*,#417,.F.);
#417 = EDGE_CURVE('',#418,#347,#420,.T.);
#418 = VERTEX_POINT('',#419);
#419 = CARTESIAN_POINT('',(507.35002148841,151.73231839977,
    12.247021798473));
#420 = SURFACE_CURVE('',#421,(#425,#432),.PCURVE_S1.);
#421 = LINE('',#422,#423);
#422 = CARTESIAN_POINT('',(507.35002148841,151.73231839977,
    12.247021798473));
#423 = VECTOR('',#424,1.);
#424 = DIRECTION('',(-9.712635725528E-11,0.999998386075,
    1.796620979457E-03));
#425 = PCURVE('',#168,#426);
#426 = DEFINITIONAL_REPRESENTATION('',(#427),#431);
#427 = LINE('',#428,#429);
#428 = CARTESIAN_POINT('',(17.538491954787,-3.433707449307E-12));
#429 = VECTOR('',#430,1.);
#430 = DIRECTION('',(-1.,-2.584939414228E-26));
#431 = ( GEOMETRIC_REPRESENTATION_CONTEXT(2) 
PARAMETRIC_REPRESENTATION_CONTEXT() REPRESENTATION_CONTEXT('2D SPACE',''
  ) );
#432 = PCURVE('',#331,#433);
#433 = DEFINITIONAL_REPRESENTATION('',(#434),#438);
#434 = LINE('',#435,#436);
#435 = CARTESIAN_POINT('',(-8.77462168743,9.984228849459));
#436 = VECTOR('',#437,1.);
#437 = DIRECTION('',(0.999998386075,1.796620979457E-03));
#438 = ( GEOMETRIC_REPRESENTATION_CONTEXT(2) 
PARAMETRIC_REPRESENTATION_CONTEXT() REPRESENTATION_CONTEXT('2D SPACE',''
  ) );
#439 = ORIENTED_EDGE('',*,*,#440,.T.);
#440 = EDGE_CURVE('',#418,#153,#441,.T.);
#441 = SURFACE_CURVE('',#442,(#446,#453),.PCURVE_S1.);
#442 = LINE('',#443,#444);
#443 = CARTESIAN_POINT('',(507.35002148841,151.73231839977,
    12.247021798473));
#444 = VECTOR('',#445,1.);
#445 = DIRECTION('',(1.,-8.313350008393E-11,1.003338230207E-07));
#446 = PCURVE('',#168,#447);
#447 = DEFINITIONAL_REPRESENTATION('',(#448),#452);
#448 = LINE('',#449,#450);
#449 = CARTESIAN_POINT('',(17.538491954787,-3.433707449307E-12));
#450 = VECTOR('',#451,1.);
#451 = DIRECTION('',(-2.128220159484E-15,1.));
#452 = ( GEOMETRIC_REPRESENTATION_CONTEXT(2) 
PARAMETRIC_REPRESENTATION_CONTEXT() REPRESENTATION_CONTEXT('2D SPACE',''
  ) );
#453 = PCURVE('',#196,#454);
#454 = DEFINITIONAL_REPRESENTATION('',(#455),#459);
#455 = LINE('',#456,#457);
#456 = CARTESIAN_POINT('',(0.,0.));
#457 = VECTOR('',#458,1.);
#458 = DIRECTION('',(3.499122221865E-17,1.));
#459 = ( GEOMETRIC_REPRESENTATION_CONTEXT(2) 
PARAMETRIC_REPRESENTATION_CONTEXT() REPRESENTATION_CONTEXT('2D SPACE',''
  ) );
#460 = ORIENTED_EDGE('',*,*,#152,.F.);
#461 = ORIENTED_EDGE('',*,*,#371,.F.);
#462 = ADVANCED_FACE('',(#463),#47,.F.);
#463 = FACE_BOUND('',#464,.F.);
#464 = EDGE_LOOP('',(#465,#493,#513,#514));
#465 = ORIENTED_EDGE('',*,*,#466,.F.);
#466 = EDGE_CURVE('',#467,#467,#469,.T.);
#467 = VERTEX_POINT('',#468);
#468 = CARTESIAN_POINT('',(507.35002319388,155.76285612615,
    -4.747560902473));
#469 = SURFACE_CURVE('',#470,(#475,#482),.PCURVE_S1.);
#470 = CIRCLE('',#471,1.000000014901);
#471 = AXIS2_PLACEMENT_3D('',#472,#473,#474);
#472 = CARTESIAN_POINT('',(507.3500231938,154.76285611125,
    -4.747560902473));
#473 = DIRECTION('',(-1.,8.313561485415E-11,-1.003338230519E-07));
#474 = DIRECTION('',(8.313561485415E-11,1.,-2.168404344972E-19));
#475 = PCURVE('',#47,#476);
#476 = DEFINITIONAL_REPRESENTATION('',(#477),#481);
#477 = LINE('',#478,#479);
#478 = CARTESIAN_POINT('',(6.28318530718,5.684341886081E-14));
#479 = VECTOR('',#480,1.);
#480 = DIRECTION('',(-1.,0.));
#481 = ( GEOMETRIC_REPRESENTATION_CONTEXT(2) 
PARAMETRIC_REPRESENTATION_CONTEXT() REPRESENTATION_CONTEXT('2D SPACE',''
  ) );
#482 = PCURVE('',#331,#483);
#483 = DEFINITIONAL_REPRESENTATION('',(#484),#492);
#484 = ( BOUNDED_CURVE() B_SPLINE_CURVE(2,(#485,#486,#487,#488,#489,#490
,#491),.UNSPECIFIED.,.T.,.F.) B_SPLINE_CURVE_WITH_KNOTS((1,2,2,2,2,1),(
    -2.094395102393,0.,2.094395102393,4.188790204786,6.28318530718,
8.377580409573),.UNSPECIFIED.) CURVE() GEOMETRIC_REPRESENTATION_ITEM() 
RATIONAL_B_SPLINE_CURVE((1.,0.5,1.,0.5,1.,0.5,1.)) REPRESENTATION_ITEM(
  '') );
#485 = CARTESIAN_POINT('',(-4.744083961049,-7.010353851487));
#486 = CARTESIAN_POINT('',(-4.744083961049,-8.742404684865));
#487 = CARTESIAN_POINT('',(-6.244083983401,-7.876379268176));
#488 = CARTESIAN_POINT('',(-7.744084005752,-7.010353851487));
#489 = CARTESIAN_POINT('',(-6.244083983401,-6.144328434798));
#490 = CARTESIAN_POINT('',(-4.744083961049,-5.278303018109));
#491 = CARTESIAN_POINT('',(-4.744083961049,-7.010353851487));
#492 = ( GEOMETRIC_REPRESENTATION_CONTEXT(2) 
PARAMETRIC_REPRESENTATION_CONTEXT() REPRESENTATION_CONTEXT('2D SPACE',''
  ) );
#493 = ORIENTED_EDGE('',*,*,#494,.T.);
#494 = EDGE_CURVE('',#467,#22,#495,.T.);
#495 = SEAM_CURVE('',#496,(#499,#506),.PCURVE_S1.);
#496 = B_SPLINE_CURVE_WITH_KNOTS('',1,(#497,#498),.UNSPECIFIED.,.F.,.F.,
  (2,2),(5.684341886081E-14,3.2),.PIECEWISE_BEZIER_KNOTS.);
#497 = CARTESIAN_POINT('',(507.35002319388,155.76285612615,
    -4.747560902473));
#498 = CARTESIAN_POINT('',(510.55002319388,155.76285612588,
    -4.747560581405));
#499 = PCURVE('',#47,#500);
#500 = DEFINITIONAL_REPRESENTATION('',(#501),#505);
#501 = LINE('',#502,#503);
#502 = CARTESIAN_POINT('',(6.28318530718,0.));
#503 = VECTOR('',#504,1.);
#504 = DIRECTION('',(0.,1.));
#505 = ( GEOMETRIC_REPRESENTATION_CONTEXT(2) 
PARAMETRIC_REPRESENTATION_CONTEXT() REPRESENTATION_CONTEXT('2D SPACE',''
  ) );
#506 = PCURVE('',#47,#507);
#507 = DEFINITIONAL_REPRESENTATION('',(#508),#512);
#508 = LINE('',#509,#510);
#509 = CARTESIAN_POINT('',(4.138911435803E-13,0.));
#510 = VECTOR('',#511,1.);
#511 = DIRECTION('',(0.,1.));
#512 = ( GEOMETRIC_REPRESENTATION_CONTEXT(2) 
PARAMETRIC_REPRESENTATION_CONTEXT() REPRESENTATION_CONTEXT('2D SPACE',''
  ) );
#513 = ORIENTED_EDGE('',*,*,#21,.T.);
#514 = ORIENTED_EDGE('',*,*,#494,.F.);
#515 = ADVANCED_FACE('',(#516),#196,.T.);
#516 = FACE_BOUND('',#517,.T.);
#517 = EDGE_LOOP('',(#518,#541,#542,#543));
#518 = ORIENTED_EDGE('',*,*,#519,.F.);
#519 = EDGE_CURVE('',#181,#520,#522,.T.);
#520 = VERTEX_POINT('',#521);
#521 = CARTESIAN_POINT('',(507.35002339475,151.76645419458,
    -6.752947536964));
#522 = SURFACE_CURVE('',#523,(#527,#534),.PCURVE_S1.);
#523 = LINE('',#524,#525);
#524 = CARTESIAN_POINT('',(507.35002339475,151.76645419458,
    -6.752947536964));
#525 = VECTOR('',#526,1.);
#526 = DIRECTION('',(-1.,8.313350008393E-11,-1.003338230207E-07));
#527 = PCURVE('',#196,#528);
#528 = DEFINITIONAL_REPRESENTATION('',(#529),#533);
#529 = LINE('',#530,#531);
#530 = CARTESIAN_POINT('',(19.000000000001,-2.396005162675E-12));
#531 = VECTOR('',#532,1.);
#532 = DIRECTION('',(-3.499122221865E-17,-1.));
#533 = ( GEOMETRIC_REPRESENTATION_CONTEXT(2) 
PARAMETRIC_REPRESENTATION_CONTEXT() REPRESENTATION_CONTEXT('2D SPACE',''
  ) );
#534 = PCURVE('',#229,#535);
#535 = DEFINITIONAL_REPRESENTATION('',(#536),#540);
#536 = LINE('',#537,#538);
#537 = CARTESIAN_POINT('',(-0.785398163397,-1.643130076445E-14));
#538 = VECTOR('',#539,1.);
#539 = DIRECTION('',(3.053113317719E-15,-1.));
#540 = ( GEOMETRIC_REPRESENTATION_CONTEXT(2) 
PARAMETRIC_REPRESENTATION_CONTEXT() REPRESENTATION_CONTEXT('2D SPACE',''
  ) );
#541 = ORIENTED_EDGE('',*,*,#180,.F.);
#542 = ORIENTED_EDGE('',*,*,#440,.F.);
#543 = ORIENTED_EDGE('',*,*,#544,.T.);
#544 = EDGE_CURVE('',#418,#520,#545,.T.);
#545 = SURFACE_CURVE('',#546,(#550,#557),.PCURVE_S1.);
#546 = LINE('',#547,#548);
#547 = CARTESIAN_POINT('',(507.35002148841,151.73231839977,
    12.247021798473));
#548 = VECTOR('',#549,1.);
#549 = DIRECTION('',(1.003338104839E-07,1.796620779673E-03,
    -0.999998386076));
#550 = PCURVE('',#196,#551);
#551 = DEFINITIONAL_REPRESENTATION('',(#552),#556);
#552 = LINE('',#553,#554);
#553 = CARTESIAN_POINT('',(0.,0.));
#554 = VECTOR('',#555,1.);
#555 = DIRECTION('',(1.,2.64697796017E-23));
#556 = ( GEOMETRIC_REPRESENTATION_CONTEXT(2) 
PARAMETRIC_REPRESENTATION_CONTEXT() REPRESENTATION_CONTEXT('2D SPACE',''
  ) );
#557 = PCURVE('',#331,#558);
#558 = DEFINITIONAL_REPRESENTATION('',(#559),#563);
#559 = LINE('',#560,#561);
#560 = CARTESIAN_POINT('',(-8.77462168743,9.984228849459));
#561 = VECTOR('',#562,1.);
#562 = DIRECTION('',(1.796620779673E-03,-0.999998386076));
#563 = ( GEOMETRIC_REPRESENTATION_CONTEXT(2) 
PARAMETRIC_REPRESENTATION_CONTEXT() REPRESENTATION_CONTEXT('2D SPACE',''
  ) );
#564 = ADVANCED_FACE('',(#565),#229,.T.);
#565 = FACE_BOUND('',#566,.T.);
#566 = EDGE_LOOP('',(#567,#568,#569,#591));
#567 = ORIENTED_EDGE('',*,*,#208,.T.);
#568 = ORIENTED_EDGE('',*,*,#519,.T.);
#569 = ORIENTED_EDGE('',*,*,#570,.T.);
#570 = EDGE_CURVE('',#520,#295,#571,.T.);
#571 = SURFACE_CURVE('',#572,(#577,#584),.PCURVE_S1.);
#572 = CIRCLE('',#573,1.);
#573 = AXIS2_PLACEMENT_3D('',#574,#575,#576);
#574 = CARTESIAN_POINT('',(507.35002339466,152.76645258066,
    -6.751150916184));
#575 = DIRECTION('',(1.,-8.313562835113E-11,1.00333823045E-07));
#576 = DIRECTION('',(7.101539646224E-08,-0.705835237233,-0.708376042706)
  );
#577 = PCURVE('',#229,#578);
#578 = DEFINITIONAL_REPRESENTATION('',(#579),#583);
#579 = LINE('',#580,#581);
#580 = CARTESIAN_POINT('',(-6.28318530718,2.557953848736E-13));
#581 = VECTOR('',#582,1.);
#582 = DIRECTION('',(1.,-3.618764437576E-14));
#583 = ( GEOMETRIC_REPRESENTATION_CONTEXT(2) 
PARAMETRIC_REPRESENTATION_CONTEXT() REPRESENTATION_CONTEXT('2D SPACE',''
  ) );
#584 = PCURVE('',#331,#585);
#585 = DEFINITIONAL_REPRESENTATION('',(#586),#590);
#586 = CIRCLE('',#587,1.);
#587 = AXIS2_PLACEMENT_2D('',#588,#589);
#588 = CARTESIAN_POINT('',(-7.74048750654,-9.013943865198));
#589 = DIRECTION('',(-0.705835237233,-0.708376042706));
#590 = ( GEOMETRIC_REPRESENTATION_CONTEXT(2) 
PARAMETRIC_REPRESENTATION_CONTEXT() REPRESENTATION_CONTEXT('2D SPACE',''
  ) );
#591 = ORIENTED_EDGE('',*,*,#294,.T.);
#592 = ADVANCED_FACE('',(#593,#596),#331,.F.);
#593 = FACE_BOUND('',#594,.T.);
#594 = EDGE_LOOP('',(#595));
#595 = ORIENTED_EDGE('',*,*,#466,.F.);
#596 = FACE_BOUND('',#597,.T.);
#597 = EDGE_LOOP('',(#598,#622,#623,#624,#625,#626,#627));
#598 = ORIENTED_EDGE('',*,*,#599,.F.);
#599 = EDGE_CURVE('',#271,#600,#602,.T.);
#600 = VERTEX_POINT('',#601);
#601 = CARTESIAN_POINT('',(507.35002346409,156.06248814771,
    -7.440389314442));
#602 = SURFACE_CURVE('',#603,(#608,#615),.PCURVE_S1.);
#603 = CIRCLE('',#604,1.);
#604 = AXIS2_PLACEMENT_3D('',#605,#606,#607);
#605 = CARTESIAN_POINT('',(507.35002339441,155.34238437113,
    -6.746522936133));
#606 = DIRECTION('',(1.,-8.313562835113E-11,1.00333823045E-07));
#607 = DIRECTION('',(9.233348165604E-08,0.392064085927,-0.919937906886)
  );
#608 = PCURVE('',#331,#609);
#609 = DEFINITIONAL_REPRESENTATION('',(#610),#614);
#610 = CIRCLE('',#611,1.);
#611 = AXIS2_PLACEMENT_2D('',#612,#613);
#612 = CARTESIAN_POINT('',(-5.16455571607,-9.009315885147));
#613 = DIRECTION('',(0.392064085927,-0.919937906886));
#614 = ( GEOMETRIC_REPRESENTATION_CONTEXT(2) 
PARAMETRIC_REPRESENTATION_CONTEXT() REPRESENTATION_CONTEXT('2D SPACE',''
  ) );
#615 = PCURVE('',#84,#616);
#616 = DEFINITIONAL_REPRESENTATION('',(#617),#621);
#617 = LINE('',#618,#619);
#618 = CARTESIAN_POINT('',(4.440892098501E-15,-4.168259342479E-13));
#619 = VECTOR('',#620,1.);
#620 = DIRECTION('',(1.,7.086336339144E-14));
#621 = ( GEOMETRIC_REPRESENTATION_CONTEXT(2) 
PARAMETRIC_REPRESENTATION_CONTEXT() REPRESENTATION_CONTEXT('2D SPACE',''
  ) );
#622 = ORIENTED_EDGE('',*,*,#317,.F.);
#623 = ORIENTED_EDGE('',*,*,#570,.F.);
#624 = ORIENTED_EDGE('',*,*,#544,.F.);
#625 = ORIENTED_EDGE('',*,*,#417,.T.);
#626 = ORIENTED_EDGE('',*,*,#346,.T.);
#627 = ORIENTED_EDGE('',*,*,#628,.F.);
#628 = EDGE_CURVE('',#600,#349,#629,.T.);
#629 = SURFACE_CURVE('',#630,(#634,#641),.PCURVE_S1.);
#630 = LINE('',#631,#632);
#631 = CARTESIAN_POINT('',(507.3500234947,155.76824435966,-7.74575943992
    ));
#632 = VECTOR('',#633,1.);
#633 = DIRECTION('',(-7.219307988089E-08,0.693866378309,0.720103776585)
  );
#634 = PCURVE('',#331,#635);
#635 = DEFINITIONAL_REPRESENTATION('',(#636),#640);
#636 = LINE('',#637,#638);
#637 = CARTESIAN_POINT('',(-4.73869572754,-10.00855238893));
#638 = VECTOR('',#639,1.);
#639 = DIRECTION('',(0.693866378309,0.720103776585));
#640 = ( GEOMETRIC_REPRESENTATION_CONTEXT(2) 
PARAMETRIC_REPRESENTATION_CONTEXT() REPRESENTATION_CONTEXT('2D SPACE',''
  ) );
#641 = PCURVE('',#112,#642);
#642 = DEFINITIONAL_REPRESENTATION('',(#643),#647);
#643 = LINE('',#644,#645);
#644 = CARTESIAN_POINT('',(0.,0.));
#645 = VECTOR('',#646,1.);
#646 = DIRECTION('',(1.,2.64697796017E-23));
#647 = ( GEOMETRIC_REPRESENTATION_CONTEXT(2) 
PARAMETRIC_REPRESENTATION_CONTEXT() REPRESENTATION_CONTEXT('2D SPACE',''
  ) );
#648 = ADVANCED_FACE('',(#649),#112,.T.);
#649 = FACE_BOUND('',#650,.T.);
#650 = EDGE_LOOP('',(#651,#672,#673,#674));
#651 = ORIENTED_EDGE('',*,*,#652,.F.);
#652 = EDGE_CURVE('',#600,#62,#653,.T.);
#653 = SURFACE_CURVE('',#654,(#658,#665),.PCURVE_S1.);
#654 = LINE('',#655,#656);
#655 = CARTESIAN_POINT('',(507.35002346409,156.06248814771,
    -7.440389314442));
#656 = VECTOR('',#657,1.);
#657 = DIRECTION('',(1.,-8.313350008392E-11,1.003338230207E-07));
#658 = PCURVE('',#112,#659);
#659 = DEFINITIONAL_REPRESENTATION('',(#660),#664);
#660 = LINE('',#661,#662);
#661 = CARTESIAN_POINT('',(0.424064052167,4.47946643363E-12));
#662 = VECTOR('',#663,1.);
#663 = DIRECTION('',(1.45491769591E-15,1.));
#664 = ( GEOMETRIC_REPRESENTATION_CONTEXT(2) 
PARAMETRIC_REPRESENTATION_CONTEXT() REPRESENTATION_CONTEXT('2D SPACE',''
  ) );
#665 = PCURVE('',#84,#666);
#666 = DEFINITIONAL_REPRESENTATION('',(#667),#671);
#667 = LINE('',#668,#669);
#668 = CARTESIAN_POINT('',(6.684262931361,-1.705302565824E-13));
#669 = VECTOR('',#670,1.);
#670 = DIRECTION('',(0.,1.));
#671 = ( GEOMETRIC_REPRESENTATION_CONTEXT(2) 
PARAMETRIC_REPRESENTATION_CONTEXT() REPRESENTATION_CONTEXT('2D SPACE',''
  ) );
#672 = ORIENTED_EDGE('',*,*,#628,.T.);
#673 = ORIENTED_EDGE('',*,*,#393,.T.);
#674 = ORIENTED_EDGE('',*,*,#96,.F.);
#675 = ADVANCED_FACE('',(#676),#84,.T.);
#676 = FACE_BOUND('',#677,.T.);
#677 = EDGE_LOOP('',(#678,#679,#680,#681));
#678 = ORIENTED_EDGE('',*,*,#61,.T.);
#679 = ORIENTED_EDGE('',*,*,#270,.T.);
#680 = ORIENTED_EDGE('',*,*,#599,.T.);
#681 = ORIENTED_EDGE('',*,*,#652,.T.);
#682 = ( GEOMETRIC_REPRESENTATION_CONTEXT(3) 
GLOBAL_UNCERTAINTY_ASSIGNED_CONTEXT((#686)) GLOBAL_UNIT_ASSIGNED_CONTEXT
((#683,#684,#685)) REPRESENTATION_CONTEXT('Context #1',
  '3D Context with UNIT and UNCERTAINTY') );
#683 = ( LENGTH_UNIT() NAMED_UNIT(*) SI_UNIT(.MILLI.,.METRE.) );
#684 = ( NAMED_UNIT(*) PLANE_ANGLE_UNIT() SI_UNIT($,.RADIAN.) );
#685 = ( NAMED_UNIT(*) SI_UNIT($,.STERADIAN.) SOLID_ANGLE_UNIT() );
#686 = UNCERTAINTY_MEASURE_WITH_UNIT(LENGTH_MEASURE(1.E-07),#683,
  'distance_accuracy_value','confusion accuracy');
#687 = PRODUCT_RELATED_PRODUCT_CATEGORY('part',$,(#7));
ENDSEC;
END-ISO-10303-21;
