ISO-10303-21;
HEADER;
FILE_DESCRIPTION(('Open CASCADE Model'),'2;1');
FILE_NAME('Open CASCADE Shape Model','2026-09-23T19:44:18',('Author'),(
    'Open CASCADE'),'Open CASCADE STEP processor 7.9','Open CASCADE 7.9'
  ,'Unknown');
FILE_SCHEMA(('AUTOMOTIVE_DESIGN { 1 0 10303 214 1 1 1 1 }'));
ENDSEC;
DATA;
#1 = APPLICATION_PROTOCOL_DEFINITION('international standard',
  'automotive_design',2000,#2);
#2 = APPLICATION_CONTEXT(
  'core data for automotive mechanical design processes');
#3 = SHAPE_DEFINITION_REPRESENTATION(#4,#10);
#4 = PRODUCT_DEFINITION_SHAPE('','',#5);
#5 = PRODUCT_DEFINITION('design','',#6,#9);
#6 = PRODUCT_DEFINITION_FORMATION('','',#7);
#7 = PRODUCT('Open CASCADE STEP translator 7.9 43',
  'Open CASCADE STEP translator 7.9 43','',(#8));
#8 = PRODUCT_CONTEXT('',#2,'mechanical');
#9 = PRODUCT_DEFINITION_CONTEXT('part definition',#2,'design');
#10 = ADVANCED_BREP_SHAPE_REPRESENTATION('',(#11,#15),#1644);
#11 = AXIS2_PLACEMENT_3D('',#12,#13,#14);
#12 = CARTESIAN_POINT('',(0.,0.,0.));
#13 = DIRECTION('',(0.,0.,1.));
#14 = DIRECTION('',(1.,0.,-0.));
#15 = MANIFOLD_SOLID_BREP('',#16);
#16 = CLOSED_SHELL('',(#17,#137,#213,#576,#625,#864,#891,#987,#1013,
    #1040,#1067,#1188,#1265,#1312,#1381,#1408,#1415,#1464,#1513,#1561,
    #1608,#1635));
#17 = ADVANCED_FACE('',(#18),#32,.T.);
#18 = FACE_BOUND('',#19,.T.);
#19 = EDGE_LOOP('',(#20,#55,#83,#111));
#20 = ORIENTED_EDGE('',*,*,#21,.T.);
#21 = EDGE_CURVE('',#22,#24,#26,.T.);
#22 = VERTEX_POINT('',#23);
#23 = CARTESIAN_POINT('',(-0.15,91.7,6.));
#24 = VERTEX_POINT('',#25);
#25 = CARTESIAN_POINT('',(-0.15,85.7,6.));
#26 = SURFACE_CURVE('',#27,(#31,#43),.PCURVE_S1.);
#27 = LINE('',#28,#29);
#28 = CARTESIAN_POINT('',(-0.15,91.7,6.));
#29 = VECTOR('',#30,1.);
#30 = DIRECTION('',(0.,-1.,0.));
#31 = PCURVE('',#32,#37);
#32 = PLANE('',#33);
#33 = AXIS2_PLACEMENT_3D('',#34,#35,#36);
#34 = CARTESIAN_POINT('',(-0.15,91.7,6.));
#35 = DIRECTION('',(-0.,-0.,-1.));
#36 = DIRECTION('',(-1.,0.,0.));
#37 = DEFINITIONAL_REPRESENTATION('',(#38),#42);
#38 = LINE('',#39,#40);
#39 = CARTESIAN_POINT('',(0.,0.));
#40 = VECTOR('',#41,1.);
#41 = DIRECTION('',(0.,-1.));
#42 = ( GEOMETRIC_REPRESENTATION_CONTEXT(2) 
PARAMETRIC_REPRESENTATION_CONTEXT() REPRESENTATION_CONTEXT('2D SPACE',''
  ) );
#43 = PCURVE('',#44,#49);
#44 = PLANE('',#45);
#45 = AXIS2_PLACEMENT_3D('',#46,#47,#48);
#46 = CARTESIAN_POINT('',(-0.15,91.7,23.));
#47 = DIRECTION('',(1.,0.,0.));
#48 = DIRECTION('',(0.,0.,-1.));
#49 = DEFINITIONAL_REPRESENTATION('',(#50),#54);
#50 = LINE('',#51,#52);
#51 = CARTESIAN_POINT('',(17.,0.));
#52 = VECTOR('',#53,1.);
#53 = DIRECTION('',(0.,-1.));
#54 = ( GEOMETRIC_REPRESENTATION_CONTEXT(2) 
PARAMETRIC_REPRESENTATION_CONTEXT() REPRESENTATION_CONTEXT('2D SPACE',''
  ) );
#55 = ORIENTED_EDGE('',*,*,#56,.T.);
#56 = EDGE_CURVE('',#24,#57,#59,.T.);
#57 = VERTEX_POINT('',#58);
#58 = CARTESIAN_POINT('',(-50.,85.7,6.));
#59 = SURFACE_CURVE('',#60,(#64,#71),.PCURVE_S1.);
#60 = LINE('',#61,#62);
#61 = CARTESIAN_POINT('',(-0.15,85.7,6.));
#62 = VECTOR('',#63,1.);
#63 = DIRECTION('',(-1.,0.,0.));
#64 = PCURVE('',#32,#65);
#65 = DEFINITIONAL_REPRESENTATION('',(#66),#70);
#66 = LINE('',#67,#68);
#67 = CARTESIAN_POINT('',(0.,-6.));
#68 = VECTOR('',#69,1.);
#69 = DIRECTION('',(1.,0.));
#70 = ( GEOMETRIC_REPRESENTATION_CONTEXT(2) 
PARAMETRIC_REPRESENTATION_CONTEXT() REPRESENTATION_CONTEXT('2D SPACE',''
  ) );
#71 = PCURVE('',#72,#77);
#72 = PLANE('',#73);
#73 = AXIS2_PLACEMENT_3D('',#74,#75,#76);
#74 = CARTESIAN_POINT('',(-138.3017254536,85.7,15.27327454638));
#75 = DIRECTION('',(0.,1.,0.));
#76 = DIRECTION('',(0.,-0.,1.));
#77 = DEFINITIONAL_REPRESENTATION('',(#78),#82);
#78 = LINE('',#79,#80);
#79 = CARTESIAN_POINT('',(-9.27327454638,138.1517254536));
#80 = VECTOR('',#81,1.);
#81 = DIRECTION('',(0.,-1.));
#82 = ( GEOMETRIC_REPRESENTATION_CONTEXT(2) 
PARAMETRIC_REPRESENTATION_CONTEXT() REPRESENTATION_CONTEXT('2D SPACE',''
  ) );
#83 = ORIENTED_EDGE('',*,*,#84,.F.);
#84 = EDGE_CURVE('',#85,#57,#87,.T.);
#85 = VERTEX_POINT('',#86);
#86 = CARTESIAN_POINT('',(-50.,91.7,6.));
#87 = SURFACE_CURVE('',#88,(#92,#99),.PCURVE_S1.);
#88 = LINE('',#89,#90);
#89 = CARTESIAN_POINT('',(-50.,91.7,6.));
#90 = VECTOR('',#91,1.);
#91 = DIRECTION('',(0.,-1.,0.));
#92 = PCURVE('',#32,#93);
#93 = DEFINITIONAL_REPRESENTATION('',(#94),#98);
#94 = LINE('',#95,#96);
#95 = CARTESIAN_POINT('',(49.85,0.));
#96 = VECTOR('',#97,1.);
#97 = DIRECTION('',(0.,-1.));
#98 = ( GEOMETRIC_REPRESENTATION_CONTEXT(2) 
PARAMETRIC_REPRESENTATION_CONTEXT() REPRESENTATION_CONTEXT('2D SPACE',''
  ) );
#99 = PCURVE('',#100,#105);
#100 = PLANE('',#101);
#101 = AXIS2_PLACEMENT_3D('',#102,#103,#104);
#102 = CARTESIAN_POINT('',(-50.,91.7,6.));
#103 = DIRECTION('',(-1.,0.,0.));
#104 = DIRECTION('',(0.,0.,1.));
#105 = DEFINITIONAL_REPRESENTATION('',(#106),#110);
#106 = LINE('',#107,#108);
#107 = CARTESIAN_POINT('',(0.,0.));
#108 = VECTOR('',#109,1.);
#109 = DIRECTION('',(0.,-1.));
#110 = ( GEOMETRIC_REPRESENTATION_CONTEXT(2) 
PARAMETRIC_REPRESENTATION_CONTEXT() REPRESENTATION_CONTEXT('2D SPACE',''
  ) );
#111 = ORIENTED_EDGE('',*,*,#112,.F.);
#112 = EDGE_CURVE('',#22,#85,#113,.T.);
#113 = SURFACE_CURVE('',#114,(#118,#125),.PCURVE_S1.);
#114 = LINE('',#115,#116);
#115 = CARTESIAN_POINT('',(-0.15,91.7,6.));
#116 = VECTOR('',#117,1.);
#117 = DIRECTION('',(-1.,0.,0.));
#118 = PCURVE('',#32,#119);
#119 = DEFINITIONAL_REPRESENTATION('',(#120),#124);
#120 = LINE('',#121,#122);
#121 = CARTESIAN_POINT('',(0.,0.));
#122 = VECTOR('',#123,1.);
#123 = DIRECTION('',(1.,0.));
#124 = ( GEOMETRIC_REPRESENTATION_CONTEXT(2) 
PARAMETRIC_REPRESENTATION_CONTEXT() REPRESENTATION_CONTEXT('2D SPACE',''
  ) );
#125 = PCURVE('',#126,#131);
#126 = PLANE('',#127);
#127 = AXIS2_PLACEMENT_3D('',#128,#129,#130);
#128 = CARTESIAN_POINT('',(-138.3017254536,91.7,15.27327454638));
#129 = DIRECTION('',(0.,1.,0.));
#130 = DIRECTION('',(0.,-0.,1.));
#131 = DEFINITIONAL_REPRESENTATION('',(#132),#136);
#132 = LINE('',#133,#134);
#133 = CARTESIAN_POINT('',(-9.27327454638,138.1517254536));
#134 = VECTOR('',#135,1.);
#135 = DIRECTION('',(0.,-1.));
#136 = ( GEOMETRIC_REPRESENTATION_CONTEXT(2) 
PARAMETRIC_REPRESENTATION_CONTEXT() REPRESENTATION_CONTEXT('2D SPACE',''
  ) );
#137 = ADVANCED_FACE('',(#138),#44,.T.);
#138 = FACE_BOUND('',#139,.T.);
#139 = EDGE_LOOP('',(#140,#170,#191,#192));
#140 = ORIENTED_EDGE('',*,*,#141,.T.);
#141 = EDGE_CURVE('',#142,#144,#146,.T.);
#142 = VERTEX_POINT('',#143);
#143 = CARTESIAN_POINT('',(-0.15,91.7,23.));
#144 = VERTEX_POINT('',#145);
#145 = CARTESIAN_POINT('',(-0.15,85.7,23.));
#146 = SURFACE_CURVE('',#147,(#151,#158),.PCURVE_S1.);
#147 = LINE('',#148,#149);
#148 = CARTESIAN_POINT('',(-0.15,91.7,23.));
#149 = VECTOR('',#150,1.);
#150 = DIRECTION('',(0.,-1.,0.));
#151 = PCURVE('',#44,#152);
#152 = DEFINITIONAL_REPRESENTATION('',(#153),#157);
#153 = LINE('',#154,#155);
#154 = CARTESIAN_POINT('',(0.,0.));
#155 = VECTOR('',#156,1.);
#156 = DIRECTION('',(0.,-1.));
#157 = ( GEOMETRIC_REPRESENTATION_CONTEXT(2) 
PARAMETRIC_REPRESENTATION_CONTEXT() REPRESENTATION_CONTEXT('2D SPACE',''
  ) );
#158 = PCURVE('',#159,#164);
#159 = PLANE('',#160);
#160 = AXIS2_PLACEMENT_3D('',#161,#162,#163);
#161 = CARTESIAN_POINT('',(-278.,91.7,23.));
#162 = DIRECTION('',(-0.,0.,1.));
#163 = DIRECTION('',(1.,0.,0.));
#164 = DEFINITIONAL_REPRESENTATION('',(#165),#169);
#165 = LINE('',#166,#167);
#166 = CARTESIAN_POINT('',(277.85,0.));
#167 = VECTOR('',#168,1.);
#168 = DIRECTION('',(0.,-1.));
#169 = ( GEOMETRIC_REPRESENTATION_CONTEXT(2) 
PARAMETRIC_REPRESENTATION_CONTEXT() REPRESENTATION_CONTEXT('2D SPACE',''
  ) );
#170 = ORIENTED_EDGE('',*,*,#171,.T.);
#171 = EDGE_CURVE('',#144,#24,#172,.T.);
#172 = SURFACE_CURVE('',#173,(#177,#184),.PCURVE_S1.);
#173 = LINE('',#174,#175);
#174 = CARTESIAN_POINT('',(-0.15,85.7,23.));
#175 = VECTOR('',#176,1.);
#176 = DIRECTION('',(0.,0.,-1.));
#177 = PCURVE('',#44,#178);
#178 = DEFINITIONAL_REPRESENTATION('',(#179),#183);
#179 = LINE('',#180,#181);
#180 = CARTESIAN_POINT('',(0.,-6.));
#181 = VECTOR('',#182,1.);
#182 = DIRECTION('',(1.,0.));
#183 = ( GEOMETRIC_REPRESENTATION_CONTEXT(2) 
PARAMETRIC_REPRESENTATION_CONTEXT() REPRESENTATION_CONTEXT('2D SPACE',''
  ) );
#184 = PCURVE('',#72,#185);
#185 = DEFINITIONAL_REPRESENTATION('',(#186),#190);
#186 = LINE('',#187,#188);
#187 = CARTESIAN_POINT('',(7.72672545362,138.1517254536));
#188 = VECTOR('',#189,1.);
#189 = DIRECTION('',(-1.,0.));
#190 = ( GEOMETRIC_REPRESENTATION_CONTEXT(2) 
PARAMETRIC_REPRESENTATION_CONTEXT() REPRESENTATION_CONTEXT('2D SPACE',''
  ) );
#191 = ORIENTED_EDGE('',*,*,#21,.F.);
#192 = ORIENTED_EDGE('',*,*,#193,.F.);
#193 = EDGE_CURVE('',#142,#22,#194,.T.);
#194 = SURFACE_CURVE('',#195,(#199,#206),.PCURVE_S1.);
#195 = LINE('',#196,#197);
#196 = CARTESIAN_POINT('',(-0.15,91.7,23.));
#197 = VECTOR('',#198,1.);
#198 = DIRECTION('',(0.,0.,-1.));
#199 = PCURVE('',#44,#200);
#200 = DEFINITIONAL_REPRESENTATION('',(#201),#205);
#201 = LINE('',#202,#203);
#202 = CARTESIAN_POINT('',(0.,0.));
#203 = VECTOR('',#204,1.);
#204 = DIRECTION('',(1.,0.));
#205 = ( GEOMETRIC_REPRESENTATION_CONTEXT(2) 
PARAMETRIC_REPRESENTATION_CONTEXT() REPRESENTATION_CONTEXT('2D SPACE',''
  ) );
#206 = PCURVE('',#126,#207);
#207 = DEFINITIONAL_REPRESENTATION('',(#208),#212);
#208 = LINE('',#209,#210);
#209 = CARTESIAN_POINT('',(7.72672545362,138.1517254536));
#210 = VECTOR('',#211,1.);
#211 = DIRECTION('',(-1.,0.));
#212 = ( GEOMETRIC_REPRESENTATION_CONTEXT(2) 
PARAMETRIC_REPRESENTATION_CONTEXT() REPRESENTATION_CONTEXT('2D SPACE',''
  ) );
#213 = ADVANCED_FACE('',(#214),#72,.F.);
#214 = FACE_BOUND('',#215,.F.);
#215 = EDGE_LOOP('',(#216,#246,#267,#268,#269,#292,#320,#348,#374,#402,
    #430,#500,#526,#552));
#216 = ORIENTED_EDGE('',*,*,#217,.T.);
#217 = EDGE_CURVE('',#218,#220,#222,.T.);
#218 = VERTEX_POINT('',#219);
#219 = CARTESIAN_POINT('',(-278.,85.7,10.822460060836));
#220 = VERTEX_POINT('',#221);
#221 = CARTESIAN_POINT('',(-278.,85.7,23.));
#222 = SURFACE_CURVE('',#223,(#227,#234),.PCURVE_S1.);
#223 = LINE('',#224,#225);
#224 = CARTESIAN_POINT('',(-278.,85.7,8.));
#225 = VECTOR('',#226,1.);
#226 = DIRECTION('',(0.,0.,1.));
#227 = PCURVE('',#72,#228);
#228 = DEFINITIONAL_REPRESENTATION('',(#229),#233);
#229 = LINE('',#230,#231);
#230 = CARTESIAN_POINT('',(-7.27327454638,-139.6982745464));
#231 = VECTOR('',#232,1.);
#232 = DIRECTION('',(1.,0.));
#233 = ( GEOMETRIC_REPRESENTATION_CONTEXT(2) 
PARAMETRIC_REPRESENTATION_CONTEXT() REPRESENTATION_CONTEXT('2D SPACE',''
  ) );
#234 = PCURVE('',#235,#240);
#235 = PLANE('',#236);
#236 = AXIS2_PLACEMENT_3D('',#237,#238,#239);
#237 = CARTESIAN_POINT('',(-278.,91.7,8.));
#238 = DIRECTION('',(-1.,0.,0.));
#239 = DIRECTION('',(0.,0.,1.));
#240 = DEFINITIONAL_REPRESENTATION('',(#241),#245);
#241 = LINE('',#242,#243);
#242 = CARTESIAN_POINT('',(0.,-6.));
#243 = VECTOR('',#244,1.);
#244 = DIRECTION('',(1.,0.));
#245 = ( GEOMETRIC_REPRESENTATION_CONTEXT(2) 
PARAMETRIC_REPRESENTATION_CONTEXT() REPRESENTATION_CONTEXT('2D SPACE',''
  ) );
#246 = ORIENTED_EDGE('',*,*,#247,.T.);
#247 = EDGE_CURVE('',#220,#144,#248,.T.);
#248 = SURFACE_CURVE('',#249,(#253,#260),.PCURVE_S1.);
#249 = LINE('',#250,#251);
#250 = CARTESIAN_POINT('',(-278.,85.7,23.));
#251 = VECTOR('',#252,1.);
#252 = DIRECTION('',(1.,0.,0.));
#253 = PCURVE('',#72,#254);
#254 = DEFINITIONAL_REPRESENTATION('',(#255),#259);
#255 = LINE('',#256,#257);
#256 = CARTESIAN_POINT('',(7.72672545362,-139.6982745464));
#257 = VECTOR('',#258,1.);
#258 = DIRECTION('',(0.,1.));
#259 = ( GEOMETRIC_REPRESENTATION_CONTEXT(2) 
PARAMETRIC_REPRESENTATION_CONTEXT() REPRESENTATION_CONTEXT('2D SPACE',''
  ) );
#260 = PCURVE('',#159,#261);
#261 = DEFINITIONAL_REPRESENTATION('',(#262),#266);
#262 = LINE('',#263,#264);
#263 = CARTESIAN_POINT('',(0.,-6.));
#264 = VECTOR('',#265,1.);
#265 = DIRECTION('',(1.,0.));
#266 = ( GEOMETRIC_REPRESENTATION_CONTEXT(2) 
PARAMETRIC_REPRESENTATION_CONTEXT() REPRESENTATION_CONTEXT('2D SPACE',''
  ) );
#267 = ORIENTED_EDGE('',*,*,#171,.T.);
#268 = ORIENTED_EDGE('',*,*,#56,.T.);
#269 = ORIENTED_EDGE('',*,*,#270,.T.);
#270 = EDGE_CURVE('',#57,#271,#273,.T.);
#271 = VERTEX_POINT('',#272);
#272 = CARTESIAN_POINT('',(-50.,85.7,8.));
#273 = SURFACE_CURVE('',#274,(#278,#285),.PCURVE_S1.);
#274 = LINE('',#275,#276);
#275 = CARTESIAN_POINT('',(-50.,85.7,6.));
#276 = VECTOR('',#277,1.);
#277 = DIRECTION('',(0.,0.,1.));
#278 = PCURVE('',#72,#279);
#279 = DEFINITIONAL_REPRESENTATION('',(#280),#284);
#280 = LINE('',#281,#282);
#281 = CARTESIAN_POINT('',(-9.27327454638,88.3017254536));
#282 = VECTOR('',#283,1.);
#283 = DIRECTION('',(1.,0.));
#284 = ( GEOMETRIC_REPRESENTATION_CONTEXT(2) 
PARAMETRIC_REPRESENTATION_CONTEXT() REPRESENTATION_CONTEXT('2D SPACE',''
  ) );
#285 = PCURVE('',#100,#286);
#286 = DEFINITIONAL_REPRESENTATION('',(#287),#291);
#287 = LINE('',#288,#289);
#288 = CARTESIAN_POINT('',(0.,-6.));
#289 = VECTOR('',#290,1.);
#290 = DIRECTION('',(1.,0.));
#291 = ( GEOMETRIC_REPRESENTATION_CONTEXT(2) 
PARAMETRIC_REPRESENTATION_CONTEXT() REPRESENTATION_CONTEXT('2D SPACE',''
  ) );
#292 = ORIENTED_EDGE('',*,*,#293,.T.);
#293 = EDGE_CURVE('',#271,#294,#296,.T.);
#294 = VERTEX_POINT('',#295);
#295 = CARTESIAN_POINT('',(-99.8952,85.7,8.));
#296 = SURFACE_CURVE('',#297,(#301,#308),.PCURVE_S1.);
#297 = LINE('',#298,#299);
#298 = CARTESIAN_POINT('',(-50.,85.7,8.));
#299 = VECTOR('',#300,1.);
#300 = DIRECTION('',(-1.,0.,0.));
#301 = PCURVE('',#72,#302);
#302 = DEFINITIONAL_REPRESENTATION('',(#303),#307);
#303 = LINE('',#304,#305);
#304 = CARTESIAN_POINT('',(-7.27327454638,88.3017254536));
#305 = VECTOR('',#306,1.);
#306 = DIRECTION('',(0.,-1.));
#307 = ( GEOMETRIC_REPRESENTATION_CONTEXT(2) 
PARAMETRIC_REPRESENTATION_CONTEXT() REPRESENTATION_CONTEXT('2D SPACE',''
  ) );
#308 = PCURVE('',#309,#314);
#309 = PLANE('',#310);
#310 = AXIS2_PLACEMENT_3D('',#311,#312,#313);
#311 = CARTESIAN_POINT('',(-50.,91.7,8.));
#312 = DIRECTION('',(-0.,-0.,-1.));
#313 = DIRECTION('',(-1.,0.,0.));
#314 = DEFINITIONAL_REPRESENTATION('',(#315),#319);
#315 = LINE('',#316,#317);
#316 = CARTESIAN_POINT('',(0.,-6.));
#317 = VECTOR('',#318,1.);
#318 = DIRECTION('',(1.,0.));
#319 = ( GEOMETRIC_REPRESENTATION_CONTEXT(2) 
PARAMETRIC_REPRESENTATION_CONTEXT() REPRESENTATION_CONTEXT('2D SPACE',''
  ) );
#320 = ORIENTED_EDGE('',*,*,#321,.T.);
#321 = EDGE_CURVE('',#294,#322,#324,.T.);
#322 = VERTEX_POINT('',#323);
#323 = CARTESIAN_POINT('',(-99.89200127789,85.7,8.399840263246));
#324 = SURFACE_CURVE('',#325,(#329,#336),.PCURVE_S1.);
#325 = LINE('',#326,#327);
#326 = CARTESIAN_POINT('',(-99.88575265863,85.7,9.18091767111));
#327 = VECTOR('',#328,1.);
#328 = DIRECTION('',(7.999744012286E-03,-0.,0.999968001536));
#329 = PCURVE('',#72,#330);
#330 = DEFINITIONAL_REPRESENTATION('',(#331),#335);
#331 = LINE('',#332,#333);
#332 = CARTESIAN_POINT('',(-6.09235687527,38.41597279497));
#333 = VECTOR('',#334,1.);
#334 = DIRECTION('',(0.999968001536,7.999744012286E-03));
#335 = ( GEOMETRIC_REPRESENTATION_CONTEXT(2) 
PARAMETRIC_REPRESENTATION_CONTEXT() REPRESENTATION_CONTEXT('2D SPACE',''
  ) );
#336 = PCURVE('',#337,#342);
#337 = PLANE('',#338);
#338 = AXIS2_PLACEMENT_3D('',#339,#340,#341);
#339 = CARTESIAN_POINT('',(-100.3996803834,74.007990412782,3.4));
#340 = DIRECTION('',(-0.999169036898,3.996676147594E-02,
    7.993352295188E-03));
#341 = DIRECTION('',(3.996803834888E-02,0.999200958722,
    -1.599198204416E-16));
#342 = DEFINITIONAL_REPRESENTATION('',(#343),#347);
#343 = LINE('',#344,#345);
#344 = CARTESIAN_POINT('',(11.703207871945,-5.781102362014));
#345 = VECTOR('',#346,1.);
#346 = DIRECTION('',(3.197340754641E-04,-0.999999948885));
#347 = ( GEOMETRIC_REPRESENTATION_CONTEXT(2) 
PARAMETRIC_REPRESENTATION_CONTEXT() REPRESENTATION_CONTEXT('2D SPACE',''
  ) );
#348 = ORIENTED_EDGE('',*,*,#349,.T.);
#349 = EDGE_CURVE('',#322,#350,#352,.T.);
#350 = VERTEX_POINT('',#351);
#351 = CARTESIAN_POINT('',(-99.89199616637,85.7,8.400479202607));
#352 = SURFACE_CURVE('',#353,(#357,#363),.PCURVE_S1.);
#353 = LINE('',#354,#355);
#354 = CARTESIAN_POINT('',(-99.8857334752,85.7,9.183315599944));
#355 = VECTOR('',#356,1.);
#356 = DIRECTION('',(7.999744012287E-03,-0.,0.999968001536));
#357 = PCURVE('',#72,#358);
#358 = DEFINITIONAL_REPRESENTATION('',(#359),#362);
#359 = B_SPLINE_CURVE_WITH_KNOTS('',1,(#360,#361),.UNSPECIFIED.,.F.,.F.,
  (2,2),(-3.183417464414,0.216499643607),.PIECEWISE_BEZIER_KNOTS.);
#360 = CARTESIAN_POINT('',(-9.27327454638,38.3905254536));
#361 = CARTESIAN_POINT('',(-5.873466230485,38.417723920127));
#362 = ( GEOMETRIC_REPRESENTATION_CONTEXT(2) 
PARAMETRIC_REPRESENTATION_CONTEXT() REPRESENTATION_CONTEXT('2D SPACE',''
  ) );
#363 = PCURVE('',#364,#369);
#364 = PLANE('',#365);
#365 = AXIS2_PLACEMENT_3D('',#366,#367,#368);
#366 = CARTESIAN_POINT('',(-99.80015980825,88.996004793609,3.4));
#367 = DIRECTION('',(0.999169036898,-3.996676147593E-02,
    -7.993352295186E-03));
#368 = DIRECTION('',(-3.996803834887E-02,-0.999200958722,
    5.421010862428E-20));
#369 = DEFINITIONAL_REPRESENTATION('',(#370),#373);
#370 = B_SPLINE_CURVE_WITH_KNOTS('',1,(#371,#372),.UNSPECIFIED.,.F.,.F.,
  (2,2),(-3.183417464414,0.216499643607),.PIECEWISE_BEZIER_KNOTS.);
#371 = CARTESIAN_POINT('',(3.297809208368,-2.600083065766));
#372 = CARTESIAN_POINT('',(3.296722139014,-6.));
#373 = ( GEOMETRIC_REPRESENTATION_CONTEXT(2) 
PARAMETRIC_REPRESENTATION_CONTEXT() REPRESENTATION_CONTEXT('2D SPACE',''
  ) );
#374 = ORIENTED_EDGE('',*,*,#375,.T.);
#375 = EDGE_CURVE('',#350,#376,#378,.T.);
#376 = VERTEX_POINT('',#377);
#377 = CARTESIAN_POINT('',(-99.832,85.7,8.4));
#378 = SURFACE_CURVE('',#379,(#383,#390),.PCURVE_S1.);
#379 = LINE('',#380,#381);
#380 = CARTESIAN_POINT('',(-119.1770777737,85.7,8.554513400749));
#381 = VECTOR('',#382,1.);
#382 = DIRECTION('',(0.999968103681,0.,-7.986965684351E-03));
#383 = PCURVE('',#72,#384);
#384 = DEFINITIONAL_REPRESENTATION('',(#385),#389);
#385 = LINE('',#386,#387);
#386 = CARTESIAN_POINT('',(-6.718761145631,19.1246476799));
#387 = VECTOR('',#388,1.);
#388 = DIRECTION('',(-7.986965684351E-03,0.999968103681));
#389 = ( GEOMETRIC_REPRESENTATION_CONTEXT(2) 
PARAMETRIC_REPRESENTATION_CONTEXT() REPRESENTATION_CONTEXT('2D SPACE',''
  ) );
#390 = PCURVE('',#391,#396);
#391 = PLANE('',#392);
#392 = AXIS2_PLACEMENT_3D('',#393,#394,#395);
#393 = CARTESIAN_POINT('',(-100.,81.5,8.4));
#394 = DIRECTION('',(7.986965276753E-03,-3.194786110701E-04,
    0.999968052649));
#395 = DIRECTION('',(-0.999169036898,3.996676147594E-02,
    7.993352295188E-03));
#396 = DEFINITIONAL_REPRESENTATION('',(#397),#401);
#397 = LINE('',#398,#399);
#398 = CARTESIAN_POINT('',(19.330237807916,-3.430173846753));
#399 = VECTOR('',#400,1.);
#400 = DIRECTION('',(-0.999201009714,-3.996676351558E-02));
#401 = ( GEOMETRIC_REPRESENTATION_CONTEXT(2) 
PARAMETRIC_REPRESENTATION_CONTEXT() REPRESENTATION_CONTEXT('2D SPACE',''
  ) );
#402 = ORIENTED_EDGE('',*,*,#403,.T.);
#403 = EDGE_CURVE('',#376,#404,#406,.T.);
#404 = VERTEX_POINT('',#405);
#405 = CARTESIAN_POINT('',(-99.83199999999,85.7,17.872243161309));
#406 = SURFACE_CURVE('',#407,(#411,#418),.PCURVE_S1.);
#407 = LINE('',#408,#409);
#408 = CARTESIAN_POINT('',(-99.832,85.7,17.48663727319));
#409 = VECTOR('',#410,1.);
#410 = DIRECTION('',(0.,-0.,1.));
#411 = PCURVE('',#72,#412);
#412 = DEFINITIONAL_REPRESENTATION('',(#413),#417);
#413 = LINE('',#414,#415);
#414 = CARTESIAN_POINT('',(2.21336272681,38.4697254536));
#415 = VECTOR('',#416,1.);
#416 = DIRECTION('',(1.,0.));
#417 = ( GEOMETRIC_REPRESENTATION_CONTEXT(2) 
PARAMETRIC_REPRESENTATION_CONTEXT() REPRESENTATION_CONTEXT('2D SPACE',''
  ) );
#418 = PCURVE('',#419,#424);
#419 = PLANE('',#420);
#420 = AXIS2_PLACEMENT_3D('',#421,#422,#423);
#421 = CARTESIAN_POINT('',(-100.,81.5,19.7));
#422 = DIRECTION('',(-0.999200958722,3.996803834886E-02,0.));
#423 = DIRECTION('',(0.,0.,-1.));
#424 = DEFINITIONAL_REPRESENTATION('',(#425),#429);
#425 = LINE('',#426,#427);
#426 = CARTESIAN_POINT('',(2.21336272681,-4.203358657074));
#427 = VECTOR('',#428,1.);
#428 = DIRECTION('',(-1.,0.));
#429 = ( GEOMETRIC_REPRESENTATION_CONTEXT(2) 
PARAMETRIC_REPRESENTATION_CONTEXT() REPRESENTATION_CONTEXT('2D SPACE',''
  ) );
#430 = ORIENTED_EDGE('',*,*,#431,.F.);
#431 = EDGE_CURVE('',#432,#404,#434,.T.);
#432 = VERTEX_POINT('',#433);
#433 = CARTESIAN_POINT('',(-205.0499800159,85.7,19.38514982024));
#434 = SURFACE_CURVE('',#435,(#440,#447),.PCURVE_S1.);
#435 = ELLIPSE('',#436,62.550261040622,2.5);
#436 = AXIS2_PLACEMENT_3D('',#437,#438,#439);
#437 = CARTESIAN_POINT('',(-142.5,85.7,19.5725));
#438 = DIRECTION('',(0.,1.,0.));
#439 = DIRECTION('',(-0.99999550003,0.,-2.999986500092E-03));
#440 = PCURVE('',#72,#441);
#441 = DEFINITIONAL_REPRESENTATION('',(#442),#446);
#442 = ELLIPSE('',#443,62.550261040622,2.5);
#443 = AXIS2_PLACEMENT_2D('',#444,#445);
#444 = CARTESIAN_POINT('',(4.29922545362,-4.1982745464));
#445 = DIRECTION('',(-2.999986500092E-03,-0.99999550003));
#446 = ( GEOMETRIC_REPRESENTATION_CONTEXT(2) 
PARAMETRIC_REPRESENTATION_CONTEXT() REPRESENTATION_CONTEXT('2D SPACE',''
  ) );
#447 = PCURVE('',#448,#453);
#448 = CYLINDRICAL_SURFACE('',#449,2.5);
#449 = AXIS2_PLACEMENT_3D('',#450,#451,#452);
#450 = CARTESIAN_POINT('',(-0.15,80.006,19.99955));
#451 = DIRECTION('',(-0.99919646953,3.996785878124E-02,
    -2.997589408592E-03));
#452 = DIRECTION('',(-3.996803834889E-02,-0.999200958722,
    -8.988036009905E-17));
#453 = DEFINITIONAL_REPRESENTATION('',(#454),#499);
#454 = B_SPLINE_CURVE_WITH_KNOTS('',8,(#455,#456,#457,#458,#459,#460,
    #461,#462,#463,#464,#465,#466,#467,#468,#469,#470,#471,#472,#473,
    #474,#475,#476,#477,#478,#479,#480,#481,#482,#483,#484,#485,#486,
    #487,#488,#489,#490,#491,#492,#493,#494,#495,#496,#497,#498),
  .UNSPECIFIED.,.F.,.F.,(9,7,7,7,7,7,9),(1.199035757686E-04,
    0.785518066973,2.159964852919,3.190799942378,3.963926259472,
    5.123615735114,6.283305210755),.UNSPECIFIED.);
#455 = CARTESIAN_POINT('',(0.,204.9647553462));
#456 = CARTESIAN_POINT('',(9.817477042468E-02,204.96401962377));
#457 = CARTESIAN_POINT('',(0.196349540849,204.27483160163));
#458 = CARTESIAN_POINT('',(0.294524311274,202.89720371505));
#459 = CARTESIAN_POINT('',(0.392699081699,200.84529767293));
#460 = CARTESIAN_POINT('',(0.490873852123,198.14744347289));
#461 = CARTESIAN_POINT('',(0.589048622548,194.84538207252));
#462 = CARTESIAN_POINT('',(0.687223392973,190.99284045939));
#463 = CARTESIAN_POINT('',(0.957204011641,179.05978581827));
#464 = CARTESIAN_POINT('',(1.129009859881,169.97534842728));
#465 = CARTESIAN_POINT('',(1.300815708129,159.7418035785));
#466 = CARTESIAN_POINT('',(1.472621556361,148.79453097167));
#467 = CARTESIAN_POINT('',(1.644427404614,137.63069075456));
#468 = CARTESIAN_POINT('',(1.816233252854,126.76158232244));
#469 = CARTESIAN_POINT('',(1.9880391011,116.66248162392));
#470 = CARTESIAN_POINT('',(2.288699335525,101.03929767526));
#471 = CARTESIAN_POINT('',(2.417553721706,95.002653148142));
#472 = CARTESIAN_POINT('',(2.546408107888,89.794418050325));
#473 = CARTESIAN_POINT('',(2.675262494069,85.560651474982));
#474 = CARTESIAN_POINT('',(2.804116880254,82.415076513134));
#475 = CARTESIAN_POINT('',(2.932971266436,80.432120913974));
#476 = CARTESIAN_POINT('',(3.06182565262,79.643717970968));
#477 = CARTESIAN_POINT('',(3.287320828439,80.336941645437));
#478 = CARTESIAN_POINT('',(3.383961618076,81.300336242691));
#479 = CARTESIAN_POINT('',(3.480602407712,82.925800035024));
#480 = CARTESIAN_POINT('',(3.577243197349,85.195833651691));
#481 = CARTESIAN_POINT('',(3.673883986986,88.079777457679));
#482 = CARTESIAN_POINT('',(3.770524776623,91.534624702335));
#483 = CARTESIAN_POINT('',(3.86716556626,95.506430837077));
#484 = CARTESIAN_POINT('',(4.108767540352,106.57088271304));
#485 = CARTESIAN_POINT('',(4.253728724807,114.23099748235));
#486 = CARTESIAN_POINT('',(4.39868990926,122.69997056495));
#487 = CARTESIAN_POINT('',(4.543651093717,131.71946388778));
#488 = CARTESIAN_POINT('',(4.688612278174,140.99955480362));
#489 = CARTESIAN_POINT('',(4.833573462627,150.23840658671));
#490 = CARTESIAN_POINT('',(4.978534647083,159.14318552152));
#491 = CARTESIAN_POINT('',(5.268457015993,175.75275217937));
#492 = CARTESIAN_POINT('',(5.413418200445,183.4575393394));
#493 = CARTESIAN_POINT('',(5.558379384911,190.2964019468));
#494 = CARTESIAN_POINT('',(5.703340569322,196.03031650092));
#495 = CARTESIAN_POINT('',(5.848301753809,200.46501477609));
#496 = CARTESIAN_POINT('',(5.993262938265,203.46593936416));
#497 = CARTESIAN_POINT('',(6.138224122724,204.96584168636));
#498 = CARTESIAN_POINT('',(6.28318530718,204.9647553462));
#499 = ( GEOMETRIC_REPRESENTATION_CONTEXT(2) 
PARAMETRIC_REPRESENTATION_CONTEXT() REPRESENTATION_CONTEXT('2D SPACE',''
  ) );
#500 = ORIENTED_EDGE('',*,*,#501,.T.);
#501 = EDGE_CURVE('',#432,#502,#504,.T.);
#502 = VERTEX_POINT('',#503);
#503 = CARTESIAN_POINT('',(-217.5599760191,85.7,19.347679784288));
#504 = SURFACE_CURVE('',#505,(#509,#515),.PCURVE_S1.);
#505 = LINE('',#506,#507);
#506 = CARTESIAN_POINT('',(-256.7172732256,85.7,19.230395547447));
#507 = VECTOR('',#508,1.);
#508 = DIRECTION('',(-0.999995514396,0.,-2.995194232415E-03));
#509 = PCURVE('',#72,#510);
#510 = DEFINITIONAL_REPRESENTATION('',(#511),#514);
#511 = B_SPLINE_CURVE_WITH_KNOTS('',1,(#512,#513),.UNSPECIFIED.,.F.,.F.,
  (2,2),(-51.66752496991,-39.15747285138),.PIECEWISE_BEZIER_KNOTS.);
#512 = CARTESIAN_POINT('',(4.11187527386,-66.74825456219));
#513 = CARTESIAN_POINT('',(4.074405237908,-79.25825056558));
#514 = ( GEOMETRIC_REPRESENTATION_CONTEXT(2) 
PARAMETRIC_REPRESENTATION_CONTEXT() REPRESENTATION_CONTEXT('2D SPACE',''
  ) );
#515 = PCURVE('',#516,#521);
#516 = PLANE('',#517);
#517 = AXIS2_PLACEMENT_3D('',#518,#519,#520);
#518 = CARTESIAN_POINT('',(-375.119904115,92.002397123835,18.875));
#519 = DIRECTION('',(-2.995194210919E-03,1.198077684368E-04,
    0.999995507219));
#520 = DIRECTION('',(-0.99919646953,3.996785878122E-02,
    -2.997589408591E-03));
#521 = DEFINITIONAL_REPRESENTATION('',(#522),#525);
#522 = B_SPLINE_CURVE_WITH_KNOTS('',1,(#523,#524),.UNSPECIFIED.,.F.,.F.,
  (2,2),(-51.66752496991,-39.15747285138),.PIECEWISE_BEZIER_KNOTS.);
#523 = CARTESIAN_POINT('',(-170.1866902712,-0.500000000008));
#524 = CARTESIAN_POINT('',(-157.686634111,0.));
#525 = ( GEOMETRIC_REPRESENTATION_CONTEXT(2) 
PARAMETRIC_REPRESENTATION_CONTEXT() REPRESENTATION_CONTEXT('2D SPACE',''
  ) );
#526 = ORIENTED_EDGE('',*,*,#527,.T.);
#527 = EDGE_CURVE('',#502,#528,#530,.T.);
#528 = VERTEX_POINT('',#529);
#529 = CARTESIAN_POINT('',(-217.5599760191,85.7,10.339712265462));
#530 = SURFACE_CURVE('',#531,(#535,#541),.PCURVE_S1.);
#531 = LINE('',#532,#533);
#532 = CARTESIAN_POINT('',(-217.5599760191,85.7,14.832567733244));
#533 = VECTOR('',#534,1.);
#534 = DIRECTION('',(0.,0.,-1.));
#535 = PCURVE('',#72,#536);
#536 = DEFINITIONAL_REPRESENTATION('',(#537),#540);
#537 = B_SPLINE_CURVE_WITH_KNOTS('',1,(#538,#539),.UNSPECIFIED.,.F.,.F.,
  (2,2),(-4.867432266756,5.432376043015),.PIECEWISE_BEZIER_KNOTS.);
#538 = CARTESIAN_POINT('',(4.42672545362,-79.25825056558));
#539 = CARTESIAN_POINT('',(-5.873082856151,-79.25825056558));
#540 = ( GEOMETRIC_REPRESENTATION_CONTEXT(2) 
PARAMETRIC_REPRESENTATION_CONTEXT() REPRESENTATION_CONTEXT('2D SPACE',''
  ) );
#541 = PCURVE('',#542,#547);
#542 = PLANE('',#543);
#543 = AXIS2_PLACEMENT_3D('',#544,#545,#546);
#544 = CARTESIAN_POINT('',(-236.8902210188,86.473209799986,
    14.391860920108));
#545 = DIRECTION('',(-3.996803834887E-02,-0.999200958722,-0.));
#546 = DIRECTION('',(-0.999200958722,3.996803834887E-02,-0.));
#547 = DEFINITIONAL_REPRESENTATION('',(#548),#551);
#548 = B_SPLINE_CURVE_WITH_KNOTS('',1,(#549,#550),.UNSPECIFIED.,.F.,.F.,
  (2,2),(-4.867432266756,5.432376043015),.PIECEWISE_BEZIER_KNOTS.);
#549 = CARTESIAN_POINT('',(-19.34570301492,-5.308139079892));
#550 = CARTESIAN_POINT('',(-19.34570301492,4.991669229879));
#551 = ( GEOMETRIC_REPRESENTATION_CONTEXT(2) 
PARAMETRIC_REPRESENTATION_CONTEXT() REPRESENTATION_CONTEXT('2D SPACE',''
  ) );
#552 = ORIENTED_EDGE('',*,*,#553,.F.);
#553 = EDGE_CURVE('',#218,#528,#554,.T.);
#554 = SURFACE_CURVE('',#555,(#559,#565),.PCURVE_S1.);
#555 = LINE('',#556,#557);
#556 = CARTESIAN_POINT('',(-249.8037573493,85.7,10.597250455));
#557 = VECTOR('',#558,1.);
#558 = DIRECTION('',(0.999968103681,0.,-7.986965684352E-03));
#559 = PCURVE('',#72,#560);
#560 = DEFINITIONAL_REPRESENTATION('',(#561),#564);
#561 = B_SPLINE_CURVE_WITH_KNOTS('',1,(#562,#563),.UNSPECIFIED.,.F.,.F.,
  (2,2),(-28.19714203568,150.25613098847),.PIECEWISE_BEZIER_KNOTS.);
#562 = CARTESIAN_POINT('',(-4.450814485544,-139.6982745464));
#563 = CARTESIAN_POINT('',(-5.876114653449,38.749306475211));
#564 = ( GEOMETRIC_REPRESENTATION_CONTEXT(2) 
PARAMETRIC_REPRESENTATION_CONTEXT() REPRESENTATION_CONTEXT('2D SPACE',''
  ) );
#565 = PCURVE('',#566,#571);
#566 = PLANE('',#567);
#567 = AXIS2_PLACEMENT_3D('',#568,#569,#570);
#568 = CARTESIAN_POINT('',(-361.2613079688,94.450452318753,
    11.490282153979));
#569 = DIRECTION('',(-7.986965276751E-03,3.1947861107E-04,
    -0.999968052649));
#570 = DIRECTION('',(-0.999968103681,-0.,7.986965684352E-03));
#571 = DEFINITIONAL_REPRESENTATION('',(#572),#575);
#572 = B_SPLINE_CURVE_WITH_KNOTS('',1,(#573,#574),.UNSPECIFIED.,.F.,.F.,
  (2,2),(-28.19714203568,150.25613098847),.PIECEWISE_BEZIER_KNOTS.);
#573 = CARTESIAN_POINT('',(-83.26398611172,-8.750452765318));
#574 = CARTESIAN_POINT('',(-261.7172591358,-8.750452765318));
#575 = ( GEOMETRIC_REPRESENTATION_CONTEXT(2) 
PARAMETRIC_REPRESENTATION_CONTEXT() REPRESENTATION_CONTEXT('2D SPACE',''
  ) );
#576 = ADVANCED_FACE('',(#577),#100,.T.);
#577 = FACE_BOUND('',#578,.T.);
#578 = EDGE_LOOP('',(#579,#580,#581,#604));
#579 = ORIENTED_EDGE('',*,*,#84,.T.);
#580 = ORIENTED_EDGE('',*,*,#270,.T.);
#581 = ORIENTED_EDGE('',*,*,#582,.F.);
#582 = EDGE_CURVE('',#583,#271,#585,.T.);
#583 = VERTEX_POINT('',#584);
#584 = CARTESIAN_POINT('',(-50.,91.7,8.));
#585 = SURFACE_CURVE('',#586,(#590,#597),.PCURVE_S1.);
#586 = LINE('',#587,#588);
#587 = CARTESIAN_POINT('',(-50.,91.7,8.));
#588 = VECTOR('',#589,1.);
#589 = DIRECTION('',(0.,-1.,0.));
#590 = PCURVE('',#100,#591);
#591 = DEFINITIONAL_REPRESENTATION('',(#592),#596);
#592 = LINE('',#593,#594);
#593 = CARTESIAN_POINT('',(2.,0.));
#594 = VECTOR('',#595,1.);
#595 = DIRECTION('',(0.,-1.));
#596 = ( GEOMETRIC_REPRESENTATION_CONTEXT(2) 
PARAMETRIC_REPRESENTATION_CONTEXT() REPRESENTATION_CONTEXT('2D SPACE',''
  ) );
#597 = PCURVE('',#309,#598);
#598 = DEFINITIONAL_REPRESENTATION('',(#599),#603);
#599 = LINE('',#600,#601);
#600 = CARTESIAN_POINT('',(0.,0.));
#601 = VECTOR('',#602,1.);
#602 = DIRECTION('',(0.,-1.));
#603 = ( GEOMETRIC_REPRESENTATION_CONTEXT(2) 
PARAMETRIC_REPRESENTATION_CONTEXT() REPRESENTATION_CONTEXT('2D SPACE',''
  ) );
#604 = ORIENTED_EDGE('',*,*,#605,.F.);
#605 = EDGE_CURVE('',#85,#583,#606,.T.);
#606 = SURFACE_CURVE('',#607,(#611,#618),.PCURVE_S1.);
#607 = LINE('',#608,#609);
#608 = CARTESIAN_POINT('',(-50.,91.7,6.));
#609 = VECTOR('',#610,1.);
#610 = DIRECTION('',(0.,0.,1.));
#611 = PCURVE('',#100,#612);
#612 = DEFINITIONAL_REPRESENTATION('',(#613),#617);
#613 = LINE('',#614,#615);
#614 = CARTESIAN_POINT('',(0.,0.));
#615 = VECTOR('',#616,1.);
#616 = DIRECTION('',(1.,0.));
#617 = ( GEOMETRIC_REPRESENTATION_CONTEXT(2) 
PARAMETRIC_REPRESENTATION_CONTEXT() REPRESENTATION_CONTEXT('2D SPACE',''
  ) );
#618 = PCURVE('',#126,#619);
#619 = DEFINITIONAL_REPRESENTATION('',(#620),#624);
#620 = LINE('',#621,#622);
#621 = CARTESIAN_POINT('',(-9.27327454638,88.3017254536));
#622 = VECTOR('',#623,1.);
#623 = DIRECTION('',(1.,0.));
#624 = ( GEOMETRIC_REPRESENTATION_CONTEXT(2) 
PARAMETRIC_REPRESENTATION_CONTEXT() REPRESENTATION_CONTEXT('2D SPACE',''
  ) );
#625 = ADVANCED_FACE('',(#626),#126,.T.);
#626 = FACE_BOUND('',#627,.T.);
#627 = EDGE_LOOP('',(#628,#674,#697,#718,#719,#720,#721,#744,#767,#788,
    #814,#840));
#628 = ORIENTED_EDGE('',*,*,#629,.F.);
#629 = EDGE_CURVE('',#630,#632,#634,.T.);
#630 = VERTEX_POINT('',#631);
#631 = CARTESIAN_POINT('',(-278.,91.7,21.597841389977));
#632 = VERTEX_POINT('',#633);
#633 = CARTESIAN_POINT('',(-229.950019984,91.700000000002,19.30985017976
    ));
#634 = SURFACE_CURVE('',#635,(#640,#647),.PCURVE_S1.);
#635 = ELLIPSE('',#636,62.550261040622,2.5);
#636 = AXIS2_PLACEMENT_3D('',#637,#638,#639);
#637 = CARTESIAN_POINT('',(-292.5,91.7,19.1225));
#638 = DIRECTION('',(0.,1.,0.));
#639 = DIRECTION('',(-0.99999550003,0.,-2.999986500092E-03));
#640 = PCURVE('',#126,#641);
#641 = DEFINITIONAL_REPRESENTATION('',(#642),#646);
#642 = ELLIPSE('',#643,62.550261040622,2.5);
#643 = AXIS2_PLACEMENT_2D('',#644,#645);
#644 = CARTESIAN_POINT('',(3.84922545362,-154.1982745464));
#645 = DIRECTION('',(-2.999986500092E-03,-0.99999550003));
#646 = ( GEOMETRIC_REPRESENTATION_CONTEXT(2) 
PARAMETRIC_REPRESENTATION_CONTEXT() REPRESENTATION_CONTEXT('2D SPACE',''
  ) );
#647 = PCURVE('',#448,#648);
#648 = DEFINITIONAL_REPRESENTATION('',(#649),#673);
#649 = B_SPLINE_CURVE_WITH_KNOTS('',8,(#650,#651,#652,#653,#654,#655,
    #656,#657,#658,#659,#660,#661,#662,#663,#664,#665,#666,#667,#668,
    #669,#670,#671,#672),.UNSPECIFIED.,.F.,.F.,(9,7,7,9),(1.356895957497
    ,2.249304257332,3.587916707083,4.926529156834),.UNSPECIFIED.);
#650 = CARTESIAN_POINT('',(1.356776053922,305.85222238838));
#651 = CARTESIAN_POINT('',(1.468327091401,299.03913955961));
#652 = CARTESIAN_POINT('',(1.57987812888,292.03738121136));
#653 = CARTESIAN_POINT('',(1.691429166359,284.976134273));
#654 = CARTESIAN_POINT('',(1.802980203839,277.98959755606));
#655 = CARTESIAN_POINT('',(1.914531241318,271.21182930927));
#656 = CARTESIAN_POINT('',(2.026082278797,264.77127726275));
#657 = CARTESIAN_POINT('',(2.137633316277,258.78566597197));
#658 = CARTESIAN_POINT('',(2.416510909975,245.21629172198));
#659 = CARTESIAN_POINT('',(2.583837466198,238.32985508482));
#660 = CARTESIAN_POINT('',(2.751164022407,233.04596205765));
#661 = CARTESIAN_POINT('',(2.918490578644,229.63698347727));
#662 = CARTESIAN_POINT('',(3.085817134835,228.26924305444));
#663 = CARTESIAN_POINT('',(3.25314369107,228.98291400118));
#664 = CARTESIAN_POINT('',(3.420470247288,231.69314769439));
#665 = CARTESIAN_POINT('',(3.755123359726,240.72155635757));
#666 = CARTESIAN_POINT('',(3.922449915938,247.03973198187));
#667 = CARTESIAN_POINT('',(4.089776472192,254.96927801019));
#668 = CARTESIAN_POINT('',(4.257103028343,264.20988221676));
#669 = CARTESIAN_POINT('',(4.424429584629,274.37061846139));
#670 = CARTESIAN_POINT('',(4.591756140812,285.00369553372));
#671 = CARTESIAN_POINT('',(4.759082697039,295.64777685902));
#672 = CARTESIAN_POINT('',(4.926409253258,305.86686845042));
#673 = ( GEOMETRIC_REPRESENTATION_CONTEXT(2) 
PARAMETRIC_REPRESENTATION_CONTEXT() REPRESENTATION_CONTEXT('2D SPACE',''
  ) );
#674 = ORIENTED_EDGE('',*,*,#675,.T.);
#675 = EDGE_CURVE('',#630,#676,#678,.T.);
#676 = VERTEX_POINT('',#677);
#677 = CARTESIAN_POINT('',(-278.,91.7,23.));
#678 = SURFACE_CURVE('',#679,(#683,#690),.PCURVE_S1.);
#679 = LINE('',#680,#681);
#680 = CARTESIAN_POINT('',(-278.,91.7,8.));
#681 = VECTOR('',#682,1.);
#682 = DIRECTION('',(0.,0.,1.));
#683 = PCURVE('',#126,#684);
#684 = DEFINITIONAL_REPRESENTATION('',(#685),#689);
#685 = LINE('',#686,#687);
#686 = CARTESIAN_POINT('',(-7.27327454638,-139.6982745464));
#687 = VECTOR('',#688,1.);
#688 = DIRECTION('',(1.,0.));
#689 = ( GEOMETRIC_REPRESENTATION_CONTEXT(2) 
PARAMETRIC_REPRESENTATION_CONTEXT() REPRESENTATION_CONTEXT('2D SPACE',''
  ) );
#690 = PCURVE('',#235,#691);
#691 = DEFINITIONAL_REPRESENTATION('',(#692),#696);
#692 = LINE('',#693,#694);
#693 = CARTESIAN_POINT('',(0.,0.));
#694 = VECTOR('',#695,1.);
#695 = DIRECTION('',(1.,0.));
#696 = ( GEOMETRIC_REPRESENTATION_CONTEXT(2) 
PARAMETRIC_REPRESENTATION_CONTEXT() REPRESENTATION_CONTEXT('2D SPACE',''
  ) );
#697 = ORIENTED_EDGE('',*,*,#698,.T.);
#698 = EDGE_CURVE('',#676,#142,#699,.T.);
#699 = SURFACE_CURVE('',#700,(#704,#711),.PCURVE_S1.);
#700 = LINE('',#701,#702);
#701 = CARTESIAN_POINT('',(-278.,91.7,23.));
#702 = VECTOR('',#703,1.);
#703 = DIRECTION('',(1.,0.,0.));
#704 = PCURVE('',#126,#705);
#705 = DEFINITIONAL_REPRESENTATION('',(#706),#710);
#706 = LINE('',#707,#708);
#707 = CARTESIAN_POINT('',(7.72672545362,-139.6982745464));
#708 = VECTOR('',#709,1.);
#709 = DIRECTION('',(0.,1.));
#710 = ( GEOMETRIC_REPRESENTATION_CONTEXT(2) 
PARAMETRIC_REPRESENTATION_CONTEXT() REPRESENTATION_CONTEXT('2D SPACE',''
  ) );
#711 = PCURVE('',#159,#712);
#712 = DEFINITIONAL_REPRESENTATION('',(#713),#717);
#713 = LINE('',#714,#715);
#714 = CARTESIAN_POINT('',(0.,0.));
#715 = VECTOR('',#716,1.);
#716 = DIRECTION('',(1.,0.));
#717 = ( GEOMETRIC_REPRESENTATION_CONTEXT(2) 
PARAMETRIC_REPRESENTATION_CONTEXT() REPRESENTATION_CONTEXT('2D SPACE',''
  ) );
#718 = ORIENTED_EDGE('',*,*,#193,.T.);
#719 = ORIENTED_EDGE('',*,*,#112,.T.);
#720 = ORIENTED_EDGE('',*,*,#605,.T.);
#721 = ORIENTED_EDGE('',*,*,#722,.T.);
#722 = EDGE_CURVE('',#583,#723,#725,.T.);
#723 = VERTEX_POINT('',#724);
#724 = CARTESIAN_POINT('',(-99.6552,91.7,8.));
#725 = SURFACE_CURVE('',#726,(#730,#737),.PCURVE_S1.);
#726 = LINE('',#727,#728);
#727 = CARTESIAN_POINT('',(-50.,91.7,8.));
#728 = VECTOR('',#729,1.);
#729 = DIRECTION('',(-1.,0.,0.));
#730 = PCURVE('',#126,#731);
#731 = DEFINITIONAL_REPRESENTATION('',(#732),#736);
#732 = LINE('',#733,#734);
#733 = CARTESIAN_POINT('',(-7.27327454638,88.3017254536));
#734 = VECTOR('',#735,1.);
#735 = DIRECTION('',(0.,-1.));
#736 = ( GEOMETRIC_REPRESENTATION_CONTEXT(2) 
PARAMETRIC_REPRESENTATION_CONTEXT() REPRESENTATION_CONTEXT('2D SPACE',''
  ) );
#737 = PCURVE('',#309,#738);
#738 = DEFINITIONAL_REPRESENTATION('',(#739),#743);
#739 = LINE('',#740,#741);
#740 = CARTESIAN_POINT('',(0.,0.));
#741 = VECTOR('',#742,1.);
#742 = DIRECTION('',(1.,0.));
#743 = ( GEOMETRIC_REPRESENTATION_CONTEXT(2) 
PARAMETRIC_REPRESENTATION_CONTEXT() REPRESENTATION_CONTEXT('2D SPACE',''
  ) );
#744 = ORIENTED_EDGE('',*,*,#745,.T.);
#745 = EDGE_CURVE('',#723,#746,#748,.T.);
#746 = VERTEX_POINT('',#747);
#747 = CARTESIAN_POINT('',(-99.65200127789,91.7,8.399840263246));
#748 = SURFACE_CURVE('',#749,(#753,#760),.PCURVE_S1.);
#749 = LINE('',#750,#751);
#750 = CARTESIAN_POINT('',(-99.64576801764,91.7,9.178997793983));
#751 = VECTOR('',#752,1.);
#752 = DIRECTION('',(7.999744012286E-03,-0.,0.999968001536));
#753 = PCURVE('',#126,#754);
#754 = DEFINITIONAL_REPRESENTATION('',(#755),#759);
#755 = LINE('',#756,#757);
#756 = CARTESIAN_POINT('',(-6.094276752397,38.65595743596));
#757 = VECTOR('',#758,1.);
#758 = DIRECTION('',(0.999968001536,7.999744012286E-03));
#759 = ( GEOMETRIC_REPRESENTATION_CONTEXT(2) 
PARAMETRIC_REPRESENTATION_CONTEXT() REPRESENTATION_CONTEXT('2D SPACE',''
  ) );
#760 = PCURVE('',#337,#761);
#761 = DEFINITIONAL_REPRESENTATION('',(#762),#766);
#762 = LINE('',#763,#764);
#763 = CARTESIAN_POINT('',(17.70800533961,-5.77918242355));
#764 = VECTOR('',#765,1.);
#765 = DIRECTION('',(3.197340754641E-04,-0.999999948885));
#766 = ( GEOMETRIC_REPRESENTATION_CONTEXT(2) 
PARAMETRIC_REPRESENTATION_CONTEXT() REPRESENTATION_CONTEXT('2D SPACE',''
  ) );
#767 = ORIENTED_EDGE('',*,*,#768,.T.);
#768 = EDGE_CURVE('',#746,#769,#771,.T.);
#769 = VERTEX_POINT('',#770);
#770 = CARTESIAN_POINT('',(-99.64400153347,91.7,9.399808315895));
#771 = SURFACE_CURVE('',#772,(#776,#782),.PCURVE_S1.);
#772 = LINE('',#773,#774);
#773 = CARTESIAN_POINT('',(-99.64574883421,91.7,9.181395722816));
#774 = VECTOR('',#775,1.);
#775 = DIRECTION('',(7.999744012287E-03,-0.,0.999968001536));
#776 = PCURVE('',#126,#777);
#777 = DEFINITIONAL_REPRESENTATION('',(#778),#781);
#778 = B_SPLINE_CURVE_WITH_KNOTS('',1,(#779,#780),.UNSPECIFIED.,.F.,.F.,
  (2,2),(-3.181497525851,0.21841958217),.PIECEWISE_BEZIER_KNOTS.);
#779 = CARTESIAN_POINT('',(-9.27327454638,38.6305254536));
#780 = CARTESIAN_POINT('',(-5.873466230485,38.657723920127));
#781 = ( GEOMETRIC_REPRESENTATION_CONTEXT(2) 
PARAMETRIC_REPRESENTATION_CONTEXT() REPRESENTATION_CONTEXT('2D SPACE',''
  ) );
#782 = PCURVE('',#364,#783);
#783 = DEFINITIONAL_REPRESENTATION('',(#784),#787);
#784 = B_SPLINE_CURVE_WITH_KNOTS('',1,(#785,#786),.UNSPECIFIED.,.F.,.F.,
  (2,2),(-3.181497525851,0.21841958217),.PIECEWISE_BEZIER_KNOTS.);
#785 = CARTESIAN_POINT('',(-2.706988873167,-2.600083065766));
#786 = CARTESIAN_POINT('',(-2.70807594252,-6.));
#787 = ( GEOMETRIC_REPRESENTATION_CONTEXT(2) 
PARAMETRIC_REPRESENTATION_CONTEXT() REPRESENTATION_CONTEXT('2D SPACE',''
  ) );
#788 = ORIENTED_EDGE('',*,*,#789,.F.);
#789 = EDGE_CURVE('',#790,#769,#792,.T.);
#790 = VERTEX_POINT('',#791);
#791 = CARTESIAN_POINT('',(-217.4400239807,91.7,10.340671114995));
#792 = SURFACE_CURVE('',#793,(#797,#803),.PCURVE_S1.);
#793 = LINE('',#794,#795);
#794 = CARTESIAN_POINT('',(-249.8037420393,91.7,10.599167265623));
#795 = VECTOR('',#796,1.);
#796 = DIRECTION('',(0.999968103681,0.,-7.986965684352E-03));
#797 = PCURVE('',#126,#798);
#798 = DEFINITIONAL_REPRESENTATION('',(#799),#802);
#799 = B_SPLINE_CURVE_WITH_KNOTS('',1,(#800,#801),.UNSPECIFIED.,.F.,.F.,
  (2,2),(-28.19715734616,150.25613098847),.PIECEWISE_BEZIER_KNOTS.);
#800 = CARTESIAN_POINT('',(-4.448897552637,-139.6982745464));
#801 = CARTESIAN_POINT('',(-5.874197842825,38.7493217852));
#802 = ( GEOMETRIC_REPRESENTATION_CONTEXT(2) 
PARAMETRIC_REPRESENTATION_CONTEXT() REPRESENTATION_CONTEXT('2D SPACE',''
  ) );
#803 = PCURVE('',#804,#809);
#804 = PLANE('',#805);
#805 = AXIS2_PLACEMENT_3D('',#806,#807,#808);
#806 = CARTESIAN_POINT('',(-361.2613079688,94.450452318753,
    11.490282153979));
#807 = DIRECTION('',(-7.986965276751E-03,3.1947861107E-04,
    -0.999968052649));
#808 = DIRECTION('',(-0.999968103681,-0.,7.986965684352E-03));
#809 = DEFINITIONAL_REPRESENTATION('',(#810),#813);
#810 = B_SPLINE_CURVE_WITH_KNOTS('',1,(#811,#812),.UNSPECIFIED.,.F.,.F.,
  (2,2),(-28.19715734616,150.25613098847),.PIECEWISE_BEZIER_KNOTS.);
#811 = CARTESIAN_POINT('',(-83.26397080125,-2.750452459118));
#812 = CARTESIAN_POINT('',(-261.7172591358,-2.750452459118));
#813 = ( GEOMETRIC_REPRESENTATION_CONTEXT(2) 
PARAMETRIC_REPRESENTATION_CONTEXT() REPRESENTATION_CONTEXT('2D SPACE',''
  ) );
#814 = ORIENTED_EDGE('',*,*,#815,.F.);
#815 = EDGE_CURVE('',#816,#790,#818,.T.);
#816 = VERTEX_POINT('',#817);
#817 = CARTESIAN_POINT('',(-217.4400239808,91.7,19.347320215712));
#818 = SURFACE_CURVE('',#819,(#823,#829),.PCURVE_S1.);
#819 = LINE('',#820,#821);
#820 = CARTESIAN_POINT('',(-217.4400239808,91.7,14.832567733244));
#821 = VECTOR('',#822,1.);
#822 = DIRECTION('',(0.,0.,-1.));
#823 = PCURVE('',#126,#824);
#824 = DEFINITIONAL_REPRESENTATION('',(#825),#828);
#825 = B_SPLINE_CURVE_WITH_KNOTS('',1,(#826,#827),.UNSPECIFIED.,.F.,.F.,
  (2,2),(-4.867432266756,5.432376043015),.PIECEWISE_BEZIER_KNOTS.);
#826 = CARTESIAN_POINT('',(4.42672545362,-79.13829852722));
#827 = CARTESIAN_POINT('',(-5.873082856151,-79.13829852722));
#828 = ( GEOMETRIC_REPRESENTATION_CONTEXT(2) 
PARAMETRIC_REPRESENTATION_CONTEXT() REPRESENTATION_CONTEXT('2D SPACE',''
  ) );
#829 = PCURVE('',#830,#835);
#830 = PLANE('',#831);
#831 = AXIS2_PLACEMENT_3D('',#832,#833,#834);
#832 = CARTESIAN_POINT('',(-236.6504127887,92.468415552317,
    14.391860920108));
#833 = DIRECTION('',(-3.996803834887E-02,-0.999200958722,-0.));
#834 = DIRECTION('',(-0.999200958722,3.996803834887E-02,-0.));
#835 = DEFINITIONAL_REPRESENTATION('',(#836),#839);
#836 = B_SPLINE_CURVE_WITH_KNOTS('',1,(#837,#838),.UNSPECIFIED.,.F.,.F.,
  (2,2),(-4.867432266756,5.432376043015),.PIECEWISE_BEZIER_KNOTS.);
#837 = CARTESIAN_POINT('',(-19.22575097655,-5.308139079892));
#838 = CARTESIAN_POINT('',(-19.22575097655,4.991669229879));
#839 = ( GEOMETRIC_REPRESENTATION_CONTEXT(2) 
PARAMETRIC_REPRESENTATION_CONTEXT() REPRESENTATION_CONTEXT('2D SPACE',''
  ) );
#840 = ORIENTED_EDGE('',*,*,#841,.T.);
#841 = EDGE_CURVE('',#816,#632,#842,.T.);
#842 = SURFACE_CURVE('',#843,(#847,#853),.PCURVE_S1.);
#843 = LINE('',#844,#845);
#844 = CARTESIAN_POINT('',(-256.7172710725,91.7,19.229676704056));
#845 = VECTOR('',#846,1.);
#846 = DIRECTION('',(-0.999995514396,0.,-2.995194232415E-03));
#847 = PCURVE('',#126,#848);
#848 = DEFINITIONAL_REPRESENTATION('',(#849),#852);
#849 = B_SPLINE_CURVE_WITH_KNOTS('',1,(#850,#851),.UNSPECIFIED.,.F.,.F.,
  (2,2),(-39.27742327471,-26.76737115641),.PIECEWISE_BEZIER_KNOTS.);
#850 = CARTESIAN_POINT('',(4.074045669332,-79.13829852721));
#851 = CARTESIAN_POINT('',(4.03657563338,-91.64829453037));
#852 = ( GEOMETRIC_REPRESENTATION_CONTEXT(2) 
PARAMETRIC_REPRESENTATION_CONTEXT() REPRESENTATION_CONTEXT('2D SPACE',''
  ) );
#853 = PCURVE('',#854,#859);
#854 = PLANE('',#855);
#855 = AXIS2_PLACEMENT_3D('',#856,#857,#858);
#856 = CARTESIAN_POINT('',(-375.119904115,92.002397123835,18.875));
#857 = DIRECTION('',(-2.995194210919E-03,1.198077684368E-04,
    0.999995507219));
#858 = DIRECTION('',(-0.99919646953,3.996785878122E-02,
    -2.997589408591E-03));
#859 = DEFINITIONAL_REPRESENTATION('',(#860),#863);
#860 = B_SPLINE_CURVE_WITH_KNOTS('',1,(#861,#862),.UNSPECIFIED.,.F.,.F.,
  (2,2),(-39.27742327471,-26.76737115641),.PIECEWISE_BEZIER_KNOTS.);
#861 = CARTESIAN_POINT('',(-157.5666815337,-6.));
#862 = CARTESIAN_POINT('',(-145.0666253737,-5.500000000002));
#863 = ( GEOMETRIC_REPRESENTATION_CONTEXT(2) 
PARAMETRIC_REPRESENTATION_CONTEXT() REPRESENTATION_CONTEXT('2D SPACE',''
  ) );
#864 = ADVANCED_FACE('',(#865),#159,.T.);
#865 = FACE_BOUND('',#866,.T.);
#866 = EDGE_LOOP('',(#867,#888,#889,#890));
#867 = ORIENTED_EDGE('',*,*,#868,.T.);
#868 = EDGE_CURVE('',#676,#220,#869,.T.);
#869 = SURFACE_CURVE('',#870,(#874,#881),.PCURVE_S1.);
#870 = LINE('',#871,#872);
#871 = CARTESIAN_POINT('',(-278.,91.7,23.));
#872 = VECTOR('',#873,1.);
#873 = DIRECTION('',(0.,-1.,0.));
#874 = PCURVE('',#159,#875);
#875 = DEFINITIONAL_REPRESENTATION('',(#876),#880);
#876 = LINE('',#877,#878);
#877 = CARTESIAN_POINT('',(0.,0.));
#878 = VECTOR('',#879,1.);
#879 = DIRECTION('',(0.,-1.));
#880 = ( GEOMETRIC_REPRESENTATION_CONTEXT(2) 
PARAMETRIC_REPRESENTATION_CONTEXT() REPRESENTATION_CONTEXT('2D SPACE',''
  ) );
#881 = PCURVE('',#235,#882);
#882 = DEFINITIONAL_REPRESENTATION('',(#883),#887);
#883 = LINE('',#884,#885);
#884 = CARTESIAN_POINT('',(15.,0.));
#885 = VECTOR('',#886,1.);
#886 = DIRECTION('',(0.,-1.));
#887 = ( GEOMETRIC_REPRESENTATION_CONTEXT(2) 
PARAMETRIC_REPRESENTATION_CONTEXT() REPRESENTATION_CONTEXT('2D SPACE',''
  ) );
#888 = ORIENTED_EDGE('',*,*,#247,.T.);
#889 = ORIENTED_EDGE('',*,*,#141,.F.);
#890 = ORIENTED_EDGE('',*,*,#698,.F.);
#891 = ADVANCED_FACE('',(#892),#235,.T.);
#892 = FACE_BOUND('',#893,.T.);
#893 = EDGE_LOOP('',(#894,#915,#916,#917,#918,#947,#968));
#894 = ORIENTED_EDGE('',*,*,#895,.F.);
#895 = EDGE_CURVE('',#218,#896,#898,.T.);
#896 = VERTEX_POINT('',#897);
#897 = CARTESIAN_POINT('',(-278.,88.117600959233,10.823232457308));
#898 = SURFACE_CURVE('',#899,(#903,#909),.PCURVE_S1.);
#899 = LINE('',#900,#901);
#900 = CARTESIAN_POINT('',(-278.,93.074881215231,10.824816252917));
#901 = VECTOR('',#902,1.);
#902 = DIRECTION('',(0.,0.999999948963,3.194888015857E-04));
#903 = PCURVE('',#235,#904);
#904 = DEFINITIONAL_REPRESENTATION('',(#905),#908);
#905 = B_SPLINE_CURVE_WITH_KNOTS('',1,(#906,#907),.UNSPECIFIED.,.F.,.F.,
  (2,2),(-7.37488159162,-1.3748812854),.PIECEWISE_BEZIER_KNOTS.);
#906 = CARTESIAN_POINT('',(2.822460060836,-6.));
#907 = CARTESIAN_POINT('',(2.824376993743,8.881784197001E-16));
#908 = ( GEOMETRIC_REPRESENTATION_CONTEXT(2) 
PARAMETRIC_REPRESENTATION_CONTEXT() REPRESENTATION_CONTEXT('2D SPACE',''
  ) );
#909 = PCURVE('',#566,#910);
#910 = DEFINITIONAL_REPRESENTATION('',(#911),#914);
#911 = B_SPLINE_CURVE_WITH_KNOTS('',1,(#912,#913),.UNSPECIFIED.,.F.,.F.,
  (2,2),(-7.37488159162,-1.3748812854),.PIECEWISE_BEZIER_KNOTS.);
#912 = CARTESIAN_POINT('',(-83.26398611172,-8.750452765318));
#913 = CARTESIAN_POINT('',(-83.26397080125,-2.750452459118));
#914 = ( GEOMETRIC_REPRESENTATION_CONTEXT(2) 
PARAMETRIC_REPRESENTATION_CONTEXT() REPRESENTATION_CONTEXT('2D SPACE',''
  ) );
#915 = ORIENTED_EDGE('',*,*,#217,.T.);
#916 = ORIENTED_EDGE('',*,*,#868,.F.);
#917 = ORIENTED_EDGE('',*,*,#675,.F.);
#918 = ORIENTED_EDGE('',*,*,#919,.F.);
#919 = EDGE_CURVE('',#920,#630,#922,.T.);
#920 = VERTEX_POINT('',#921);
#921 = CARTESIAN_POINT('',(-278.,88.618000799361,19.166299760288));
#922 = SURFACE_CURVE('',#923,(#928,#935),.PCURVE_S1.);
#923 = ELLIPSE('',#924,2.502010441625,2.5);
#924 = AXIS2_PLACEMENT_3D('',#925,#926,#927);
#925 = CARTESIAN_POINT('',(-278.,91.12,19.166));
#926 = DIRECTION('',(-1.,0.,0.));
#927 = DIRECTION('',(0.,0.997199309888,-7.478994824166E-02));
#928 = PCURVE('',#235,#929);
#929 = DEFINITIONAL_REPRESENTATION('',(#930),#934);
#930 = ELLIPSE('',#931,2.502010441625,2.5);
#931 = AXIS2_PLACEMENT_2D('',#932,#933);
#932 = CARTESIAN_POINT('',(11.166,-0.58));
#933 = DIRECTION('',(-7.478994824166E-02,0.997199309888));
#934 = ( GEOMETRIC_REPRESENTATION_CONTEXT(2) 
PARAMETRIC_REPRESENTATION_CONTEXT() REPRESENTATION_CONTEXT('2D SPACE',''
  ) );
#935 = PCURVE('',#448,#936);
#936 = DEFINITIONAL_REPRESENTATION('',(#937),#946);
#937 = B_SPLINE_CURVE_WITH_KNOTS('',7,(#938,#939,#940,#941,#942,#943,
    #944,#945),.UNSPECIFIED.,.F.,.F.,(8,8),(3.06679273384,5.128719320216
    ),.PIECEWISE_BEZIER_KNOTS.);
#938 = CARTESIAN_POINT('',(-1.7763568394E-15,277.97344003291));
#939 = CARTESIAN_POINT('',(0.294560940911,277.9712325911));
#940 = CARTESIAN_POINT('',(0.589121881822,277.97914867563));
#941 = CARTESIAN_POINT('',(0.883682822733,277.99749470205));
#942 = CARTESIAN_POINT('',(1.178243763644,278.02445808899));
#943 = CARTESIAN_POINT('',(1.472804704554,278.05585899375));
#944 = CARTESIAN_POINT('',(1.767365645465,278.0869791698));
#945 = CARTESIAN_POINT('',(2.061926586376,278.11399476105));
#946 = ( GEOMETRIC_REPRESENTATION_CONTEXT(2) 
PARAMETRIC_REPRESENTATION_CONTEXT() REPRESENTATION_CONTEXT('2D SPACE',''
  ) );
#947 = ORIENTED_EDGE('',*,*,#948,.T.);
#948 = EDGE_CURVE('',#920,#949,#951,.T.);
#949 = VERTEX_POINT('',#950);
#950 = CARTESIAN_POINT('',(-278.,88.117600959233,19.166359712345));
#951 = SURFACE_CURVE('',#952,(#956,#962),.PCURVE_S1.);
#952 = LINE('',#953,#954);
#953 = CARTESIAN_POINT('',(-278.,91.851884873297,19.165912314113));
#954 = VECTOR('',#955,1.);
#955 = DIRECTION('',(0.,-0.999999992823,1.198083058494E-04));
#956 = PCURVE('',#235,#957);
#957 = DEFINITIONAL_REPRESENTATION('',(#958),#961);
#958 = B_SPLINE_CURVE_WITH_KNOTS('',1,(#959,#960),.UNSPECIFIED.,.F.,.F.,
  (2,2),(3.233884097138,3.734283940865),.PIECEWISE_BEZIER_KNOTS.);
#959 = CARTESIAN_POINT('',(11.166299760288,-3.081999200632));
#960 = CARTESIAN_POINT('',(11.166359712345,-3.582399040767));
#961 = ( GEOMETRIC_REPRESENTATION_CONTEXT(2) 
PARAMETRIC_REPRESENTATION_CONTEXT() REPRESENTATION_CONTEXT('2D SPACE',''
  ) );
#962 = PCURVE('',#516,#963);
#963 = DEFINITIONAL_REPRESENTATION('',(#964),#967);
#964 = B_SPLINE_CURVE_WITH_KNOTS('',1,(#965,#966),.UNSPECIFIED.,.F.,.F.,
  (2,2),(3.233884097138,3.734283940865),.PIECEWISE_BEZIER_KNOTS.);
#965 = CARTESIAN_POINT('',(-97.17800558432,-0.500000000008));
#966 = CARTESIAN_POINT('',(-97.19800567418,8.881784197001E-16));
#967 = ( GEOMETRIC_REPRESENTATION_CONTEXT(2) 
PARAMETRIC_REPRESENTATION_CONTEXT() REPRESENTATION_CONTEXT('2D SPACE',''
  ) );
#968 = ORIENTED_EDGE('',*,*,#969,.T.);
#969 = EDGE_CURVE('',#949,#896,#970,.T.);
#970 = SURFACE_CURVE('',#971,(#975,#981),.PCURVE_S1.);
#971 = LINE('',#972,#973);
#972 = CARTESIAN_POINT('',(-278.,88.117600959233,11.195930460054));
#973 = VECTOR('',#974,1.);
#974 = DIRECTION('',(0.,0.,-1.));
#975 = PCURVE('',#235,#976);
#976 = DEFINITIONAL_REPRESENTATION('',(#977),#980);
#977 = B_SPLINE_CURVE_WITH_KNOTS('',1,(#978,#979),.UNSPECIFIED.,.F.,.F.,
  (2,2),(-8.504069539946,0.373470399218),.PIECEWISE_BEZIER_KNOTS.);
#978 = CARTESIAN_POINT('',(11.7,-3.582399040767));
#979 = CARTESIAN_POINT('',(2.822460060836,-3.582399040767));
#980 = ( GEOMETRIC_REPRESENTATION_CONTEXT(2) 
PARAMETRIC_REPRESENTATION_CONTEXT() REPRESENTATION_CONTEXT('2D SPACE',''
  ) );
#981 = PCURVE('',#542,#982);
#982 = DEFINITIONAL_REPRESENTATION('',(#983),#986);
#983 = B_SPLINE_CURVE_WITH_KNOTS('',1,(#984,#985),.UNSPECIFIED.,.F.,.F.,
  (2,2),(-8.504069539946,0.373470399218),.PIECEWISE_BEZIER_KNOTS.);
#984 = CARTESIAN_POINT('',(41.142653659729,-5.308139079892));
#985 = CARTESIAN_POINT('',(41.142653659729,3.569400859272));
#986 = ( GEOMETRIC_REPRESENTATION_CONTEXT(2) 
PARAMETRIC_REPRESENTATION_CONTEXT() REPRESENTATION_CONTEXT('2D SPACE',''
  ) );
#987 = ADVANCED_FACE('',(#988),#566,.T.);
#988 = FACE_BOUND('',#989,.F.);
#989 = EDGE_LOOP('',(#990,#991,#992));
#990 = ORIENTED_EDGE('',*,*,#895,.F.);
#991 = ORIENTED_EDGE('',*,*,#553,.T.);
#992 = ORIENTED_EDGE('',*,*,#993,.T.);
#993 = EDGE_CURVE('',#528,#896,#994,.T.);
#994 = SURFACE_CURVE('',#995,(#999,#1006),.PCURVE_S1.);
#995 = LINE('',#996,#997);
#996 = CARTESIAN_POINT('',(-390.0141877122,92.598168467721,
    11.719345959006));
#997 = VECTOR('',#998,1.);
#998 = DIRECTION('',(-0.999169036898,3.996676147593E-02,
    7.993352295186E-03));
#999 = PCURVE('',#566,#1000);
#1000 = DEFINITIONAL_REPRESENTATION('',(#1001),#1005);
#1001 = LINE('',#1002,#1003);
#1002 = CARTESIAN_POINT('',(28.753792157087,-1.852283945561));
#1003 = VECTOR('',#1004,1.);
#1004 = DIRECTION('',(0.999201009714,3.996676351557E-02));
#1005 = ( GEOMETRIC_REPRESENTATION_CONTEXT(2) 
PARAMETRIC_REPRESENTATION_CONTEXT() REPRESENTATION_CONTEXT('2D SPACE',''
  ) );
#1006 = PCURVE('',#542,#1007);
#1007 = DEFINITIONAL_REPRESENTATION('',(#1008),#1012);
#1008 = LINE('',#1009,#1010);
#1009 = CARTESIAN_POINT('',(153.2464169062,2.672514961102));
#1010 = VECTOR('',#1011,1.);
#1011 = DIRECTION('',(0.999968052649,-7.993352295186E-03));
#1012 = ( GEOMETRIC_REPRESENTATION_CONTEXT(2) 
PARAMETRIC_REPRESENTATION_CONTEXT() REPRESENTATION_CONTEXT('2D SPACE',''
  ) );
#1013 = ADVANCED_FACE('',(#1014),#542,.F.);
#1014 = FACE_BOUND('',#1015,.T.);
#1015 = EDGE_LOOP('',(#1016,#1037,#1038,#1039));
#1016 = ORIENTED_EDGE('',*,*,#1017,.T.);
#1017 = EDGE_CURVE('',#949,#502,#1018,.T.);
#1018 = SURFACE_CURVE('',#1019,(#1023,#1030),.PCURVE_S1.);
#1019 = LINE('',#1020,#1021);
#1020 = CARTESIAN_POINT('',(-375.119904115,92.002397123835,18.875));
#1021 = VECTOR('',#1022,1.);
#1022 = DIRECTION('',(0.99919646953,-3.996785878122E-02,
    2.997589408591E-03));
#1023 = PCURVE('',#542,#1024);
#1024 = DEFINITIONAL_REPRESENTATION('',(#1025),#1029);
#1025 = LINE('',#1026,#1027);
#1026 = CARTESIAN_POINT('',(138.34022264453,-4.483139079892));
#1027 = VECTOR('',#1028,1.);
#1028 = DIRECTION('',(-0.999995507219,-2.997589408591E-03));
#1029 = ( GEOMETRIC_REPRESENTATION_CONTEXT(2) 
PARAMETRIC_REPRESENTATION_CONTEXT() REPRESENTATION_CONTEXT('2D SPACE',''
  ) );
#1030 = PCURVE('',#516,#1031);
#1031 = DEFINITIONAL_REPRESENTATION('',(#1032),#1036);
#1032 = LINE('',#1033,#1034);
#1033 = CARTESIAN_POINT('',(-0.,-0.));
#1034 = VECTOR('',#1035,1.);
#1035 = DIRECTION('',(-1.,-6.938934528819E-18));
#1036 = ( GEOMETRIC_REPRESENTATION_CONTEXT(2) 
PARAMETRIC_REPRESENTATION_CONTEXT() REPRESENTATION_CONTEXT('2D SPACE',''
  ) );
#1037 = ORIENTED_EDGE('',*,*,#527,.T.);
#1038 = ORIENTED_EDGE('',*,*,#993,.T.);
#1039 = ORIENTED_EDGE('',*,*,#969,.F.);
#1040 = ADVANCED_FACE('',(#1041),#516,.F.);
#1041 = FACE_BOUND('',#1042,.T.);
#1042 = EDGE_LOOP('',(#1043,#1044,#1045,#1066));
#1043 = ORIENTED_EDGE('',*,*,#1017,.F.);
#1044 = ORIENTED_EDGE('',*,*,#948,.F.);
#1045 = ORIENTED_EDGE('',*,*,#1046,.F.);
#1046 = EDGE_CURVE('',#432,#920,#1047,.T.);
#1047 = SURFACE_CURVE('',#1048,(#1052,#1059),.PCURVE_S1.);
#1048 = LINE('',#1049,#1050);
#1049 = CARTESIAN_POINT('',(-0.249920095872,77.507997603196,19.99955));
#1050 = VECTOR('',#1051,1.);
#1051 = DIRECTION('',(-0.99919646953,3.996785878124E-02,
    -2.997589408592E-03));
#1052 = PCURVE('',#516,#1053);
#1053 = DEFINITIONAL_REPRESENTATION('',(#1054),#1058);
#1054 = LINE('',#1055,#1056);
#1055 = CARTESIAN_POINT('',(-375.1514456172,-0.5));
#1056 = VECTOR('',#1057,1.);
#1057 = DIRECTION('',(1.,-1.997707550872E-14));
#1058 = ( GEOMETRIC_REPRESENTATION_CONTEXT(2) 
PARAMETRIC_REPRESENTATION_CONTEXT() REPRESENTATION_CONTEXT('2D SPACE',''
  ) );
#1059 = PCURVE('',#448,#1060);
#1060 = DEFINITIONAL_REPRESENTATION('',(#1061),#1065);
#1061 = LINE('',#1062,#1063);
#1062 = CARTESIAN_POINT('',(0.,-0.));
#1063 = VECTOR('',#1064,1.);
#1064 = DIRECTION('',(0.,1.));
#1065 = ( GEOMETRIC_REPRESENTATION_CONTEXT(2) 
PARAMETRIC_REPRESENTATION_CONTEXT() REPRESENTATION_CONTEXT('2D SPACE',''
  ) );
#1066 = ORIENTED_EDGE('',*,*,#501,.T.);
#1067 = ADVANCED_FACE('',(#1068),#448,.F.);
#1068 = FACE_BOUND('',#1069,.F.);
#1069 = EDGE_LOOP('',(#1070,#1071,#1072,#1073,#1103,#1130,#1166,#1187));
#1070 = ORIENTED_EDGE('',*,*,#919,.F.);
#1071 = ORIENTED_EDGE('',*,*,#1046,.F.);
#1072 = ORIENTED_EDGE('',*,*,#431,.T.);
#1073 = ORIENTED_EDGE('',*,*,#1074,.F.);
#1074 = EDGE_CURVE('',#1075,#404,#1077,.T.);
#1075 = VERTEX_POINT('',#1076);
#1076 = CARTESIAN_POINT('',(-99.80023964925,86.494008768653,19.7));
#1077 = SURFACE_CURVE('',#1078,(#1083,#1096),.PCURVE_S1.);
#1078 = ELLIPSE('',#1079,2.500011232004,2.5);
#1079 = AXIS2_PLACEMENT_3D('',#1080,#1081,#1082);
#1080 = CARTESIAN_POINT('',(-99.9001597444,83.996006389776,
    19.700299520767));
#1081 = DIRECTION('',(-0.999200958722,3.996803834886E-02,0.));
#1082 = DIRECTION('',(0.,0.,-1.));
#1083 = PCURVE('',#448,#1084);
#1084 = DEFINITIONAL_REPRESENTATION('',(#1085),#1095);
#1085 = B_SPLINE_CURVE_WITH_KNOTS('',8,(#1086,#1087,#1088,#1089,#1090,
    #1091,#1092,#1093,#1094),.UNSPECIFIED.,.F.,.F.,(9,9),(4.243519387062
    ,7.853981633974),.PIECEWISE_BEZIER_KNOTS.);
#1086 = CARTESIAN_POINT('',(2.672723060267,99.826990115514));
#1087 = CARTESIAN_POINT('',(3.124030841131,99.830007221495));
#1088 = CARTESIAN_POINT('',(3.575338621997,99.83381286246));
#1089 = CARTESIAN_POINT('',(4.026646402857,99.837467968115));
#1090 = CARTESIAN_POINT('',(4.477954183726,99.839706598024));
#1091 = CARTESIAN_POINT('',(4.929261964582,99.839473400556));
#1092 = CARTESIAN_POINT('',(5.380569745452,99.837140611839));
#1093 = CARTESIAN_POINT('',(5.831877526315,99.83375859746));
#1094 = CARTESIAN_POINT('',(6.28318530718,99.830376493705));
#1095 = ( GEOMETRIC_REPRESENTATION_CONTEXT(2) 
PARAMETRIC_REPRESENTATION_CONTEXT() REPRESENTATION_CONTEXT('2D SPACE',''
  ) );
#1096 = PCURVE('',#419,#1097);
#1097 = DEFINITIONAL_REPRESENTATION('',(#1098),#1102);
#1098 = ELLIPSE('',#1099,2.500011232004,2.5);
#1099 = AXIS2_PLACEMENT_2D('',#1100,#1101);
#1100 = CARTESIAN_POINT('',(-2.995207670011E-04,-2.498002396804));
#1101 = DIRECTION('',(1.,0.));
#1102 = ( GEOMETRIC_REPRESENTATION_CONTEXT(2) 
PARAMETRIC_REPRESENTATION_CONTEXT() REPRESENTATION_CONTEXT('2D SPACE',''
  ) );
#1103 = ORIENTED_EDGE('',*,*,#1104,.T.);
#1104 = EDGE_CURVE('',#1075,#1105,#1107,.T.);
#1105 = VERTEX_POINT('',#1106);
#1106 = CARTESIAN_POINT('',(-99.90007990484,86.498002378879,
    19.699700479234));
#1107 = SURFACE_CURVE('',#1108,(#1112,#1118),.PCURVE_S1.);
#1108 = LINE('',#1109,#1110);
#1109 = CARTESIAN_POINT('',(-5.007900772611E-02,82.504002342992,
    19.999250481925));
#1110 = VECTOR('',#1111,1.);
#1111 = DIRECTION('',(-0.99919646953,3.996785878124E-02,
    -2.997589408592E-03));
#1112 = PCURVE('',#448,#1113);
#1113 = DEFINITIONAL_REPRESENTATION('',(#1114),#1117);
#1114 = B_SPLINE_CURVE_WITH_KNOTS('',1,(#1115,#1116),.UNSPECIFIED.,.F.,
  .F.,(2,2),(19.766043259549,980.5380528435),.PIECEWISE_BEZIER_KNOTS.);
#1115 = CARTESIAN_POINT('',(3.141712461359,19.766043259549));
#1116 = CARTESIAN_POINT('',(3.141712461359,980.5380528435));
#1117 = ( GEOMETRIC_REPRESENTATION_CONTEXT(2) 
PARAMETRIC_REPRESENTATION_CONTEXT() REPRESENTATION_CONTEXT('2D SPACE',''
  ) );
#1118 = PCURVE('',#1119,#1124);
#1119 = PLANE('',#1120);
#1120 = AXIS2_PLACEMENT_3D('',#1121,#1122,#1123);
#1121 = CARTESIAN_POINT('',(-900.,113.5,17.3));
#1122 = DIRECTION('',(2.995194210918E-03,-1.198077684368E-04,
    -0.999995507219));
#1123 = DIRECTION('',(0.99919646953,-3.996785878124E-02,
    2.997589408591E-03));
#1124 = DEFINITIONAL_REPRESENTATION('',(#1125),#1129);
#1125 = LINE('',#1126,#1127);
#1126 = CARTESIAN_POINT('',(900.47371871151,-4.99800237888));
#1127 = VECTOR('',#1128,1.);
#1128 = DIRECTION('',(-1.,6.998775023993E-18));
#1129 = ( GEOMETRIC_REPRESENTATION_CONTEXT(2) 
PARAMETRIC_REPRESENTATION_CONTEXT() REPRESENTATION_CONTEXT('2D SPACE',''
  ) );
#1130 = ORIENTED_EDGE('',*,*,#1131,.F.);
#1131 = EDGE_CURVE('',#1132,#1105,#1134,.T.);
#1132 = VERTEX_POINT('',#1133);
#1133 = CARTESIAN_POINT('',(-99.90007990412,86.498002396806,19.7));
#1134 = SURFACE_CURVE('',#1135,(#1140,#1150),.PCURVE_S1.);
#1135 = ELLIPSE('',#1136,2.500011232004,2.5);
#1136 = AXIS2_PLACEMENT_3D('',#1137,#1138,#1139);
#1137 = CARTESIAN_POINT('',(-100.,84.000000000002,19.7));
#1138 = DIRECTION('',(-0.999200958722,3.996803834887E-02,0.));
#1139 = DIRECTION('',(2.664547230327E-13,6.661368075818E-12,-1.));
#1140 = PCURVE('',#448,#1141);
#1141 = DEFINITIONAL_REPRESENTATION('',(#1142),#1149);
#1142 = B_SPLINE_CURVE_WITH_KNOTS('',5,(#1143,#1144,#1145,#1146,#1147,
    #1148),.UNSPECIFIED.,.F.,.F.,(6,6),(4.712388980391,4.71250878816),
  .PIECEWISE_BEZIER_KNOTS.);
#1143 = CARTESIAN_POINT('',(3.141592653589,99.930297038498));
#1144 = CARTESIAN_POINT('',(3.141616615143,99.930297218066));
#1145 = CARTESIAN_POINT('',(3.141640576697,99.930297397635));
#1146 = CARTESIAN_POINT('',(3.141664538251,99.930297577203));
#1147 = CARTESIAN_POINT('',(3.141688499805,99.930297756771));
#1148 = CARTESIAN_POINT('',(3.141712461358,99.930297936339));
#1149 = ( GEOMETRIC_REPRESENTATION_CONTEXT(2) 
PARAMETRIC_REPRESENTATION_CONTEXT() REPRESENTATION_CONTEXT('2D SPACE',''
  ) );
#1150 = PCURVE('',#1151,#1156);
#1151 = PLANE('',#1152);
#1152 = AXIS2_PLACEMENT_3D('',#1153,#1154,#1155);
#1153 = CARTESIAN_POINT('',(-100.119904115,81.002397123835,19.7));
#1154 = DIRECTION('',(0.999200958722,-3.996803834887E-02,-0.));
#1155 = DIRECTION('',(0.,0.,1.));
#1156 = DEFINITIONAL_REPRESENTATION('',(#1157),#1165);
#1157 = ( BOUNDED_CURVE() B_SPLINE_CURVE(2,(#1158,#1159,#1160,#1161,
#1162,#1163,#1164),.UNSPECIFIED.,.T.,.F.) B_SPLINE_CURVE_WITH_KNOTS((1,2
    ,2,2,2,1),(-2.094395102393,0.,2.094395102393,4.188790204786,
6.28318530718,8.377580409573),.UNSPECIFIED.) CURVE() 
GEOMETRIC_REPRESENTATION_ITEM() RATIONAL_B_SPLINE_CURVE((1.,0.5,1.,0.5,
1.,0.5,1.)) REPRESENTATION_ITEM('') );
#1158 = CARTESIAN_POINT('',(-2.500011232004,-3.000000000019));
#1159 = CARTESIAN_POINT('',(-2.500011232032,1.330127018904));
#1160 = CARTESIAN_POINT('',(1.250005615987,-0.834936490533));
#1161 = CARTESIAN_POINT('',(5.000022464007,-2.999999999969));
#1162 = CARTESIAN_POINT('',(1.250005616016,-5.165063509455));
#1163 = CARTESIAN_POINT('',(-2.500011231975,-7.330127018941));
#1164 = CARTESIAN_POINT('',(-2.500011232004,-3.000000000019));
#1165 = ( GEOMETRIC_REPRESENTATION_CONTEXT(2) 
PARAMETRIC_REPRESENTATION_CONTEXT() REPRESENTATION_CONTEXT('2D SPACE',''
  ) );
#1166 = ORIENTED_EDGE('',*,*,#1167,.T.);
#1167 = EDGE_CURVE('',#1132,#632,#1168,.T.);
#1168 = SURFACE_CURVE('',#1169,(#1173,#1180),.PCURVE_S1.);
#1169 = LINE('',#1170,#1171);
#1170 = CARTESIAN_POINT('',(-5.007990412782E-02,82.504002396804,19.99955
    ));
#1171 = VECTOR('',#1172,1.);
#1172 = DIRECTION('',(-0.99919646953,3.996785878124E-02,
    -2.997589408592E-03));
#1173 = PCURVE('',#448,#1174);
#1174 = DEFINITIONAL_REPRESENTATION('',(#1175),#1179);
#1175 = LINE('',#1176,#1177);
#1176 = CARTESIAN_POINT('',(3.14159265359,2.987887715022E-14));
#1177 = VECTOR('',#1178,1.);
#1178 = DIRECTION('',(0.,1.));
#1179 = ( GEOMETRIC_REPRESENTATION_CONTEXT(2) 
PARAMETRIC_REPRESENTATION_CONTEXT() REPRESENTATION_CONTEXT('2D SPACE',''
  ) );
#1180 = PCURVE('',#854,#1181);
#1181 = DEFINITIONAL_REPRESENTATION('',(#1182),#1186);
#1182 = LINE('',#1183,#1184);
#1183 = CARTESIAN_POINT('',(-375.1514456172,-5.5));
#1184 = VECTOR('',#1185,1.);
#1185 = DIRECTION('',(1.,-1.997707550872E-14));
#1186 = ( GEOMETRIC_REPRESENTATION_CONTEXT(2) 
PARAMETRIC_REPRESENTATION_CONTEXT() REPRESENTATION_CONTEXT('2D SPACE',''
  ) );
#1187 = ORIENTED_EDGE('',*,*,#629,.F.);
#1188 = ADVANCED_FACE('',(#1189),#419,.T.);
#1189 = FACE_BOUND('',#1190,.T.);
#1190 = EDGE_LOOP('',(#1191,#1192,#1215,#1243,#1264));
#1191 = ORIENTED_EDGE('',*,*,#1074,.F.);
#1192 = ORIENTED_EDGE('',*,*,#1193,.T.);
#1193 = EDGE_CURVE('',#1075,#1194,#1196,.T.);
#1194 = VERTEX_POINT('',#1195);
#1195 = CARTESIAN_POINT('',(-99.80015980825,86.496004793609,19.7));
#1196 = SURFACE_CURVE('',#1197,(#1201,#1208),.PCURVE_S1.);
#1197 = LINE('',#1198,#1199);
#1198 = CARTESIAN_POINT('',(-100.,81.5,19.7));
#1199 = VECTOR('',#1200,1.);
#1200 = DIRECTION('',(3.996803834886E-02,0.999200958722,0.));
#1201 = PCURVE('',#419,#1202);
#1202 = DEFINITIONAL_REPRESENTATION('',(#1203),#1207);
#1203 = LINE('',#1204,#1205);
#1204 = CARTESIAN_POINT('',(0.,-0.));
#1205 = VECTOR('',#1206,1.);
#1206 = DIRECTION('',(0.,-1.));
#1207 = ( GEOMETRIC_REPRESENTATION_CONTEXT(2) 
PARAMETRIC_REPRESENTATION_CONTEXT() REPRESENTATION_CONTEXT('2D SPACE',''
  ) );
#1208 = PCURVE('',#1119,#1209);
#1209 = DEFINITIONAL_REPRESENTATION('',(#1210),#1214);
#1210 = LINE('',#1211,#1212);
#1211 = CARTESIAN_POINT('',(800.64334131996,-1.60085757801E-11));
#1212 = VECTOR('',#1213,1.);
#1213 = DIRECTION('',(-2.998317010114E-14,-1.));
#1214 = ( GEOMETRIC_REPRESENTATION_CONTEXT(2) 
PARAMETRIC_REPRESENTATION_CONTEXT() REPRESENTATION_CONTEXT('2D SPACE',''
  ) );
#1215 = ORIENTED_EDGE('',*,*,#1216,.T.);
#1216 = EDGE_CURVE('',#1194,#1217,#1219,.T.);
#1217 = VERTEX_POINT('',#1218);
#1218 = CARTESIAN_POINT('',(-99.80015980825,86.496004793609,8.4));
#1219 = SURFACE_CURVE('',#1220,(#1224,#1231),.PCURVE_S1.);
#1220 = LINE('',#1221,#1222);
#1221 = CARTESIAN_POINT('',(-99.80015980825,86.496004793609,19.7));
#1222 = VECTOR('',#1223,1.);
#1223 = DIRECTION('',(0.,0.,-1.));
#1224 = PCURVE('',#419,#1225);
#1225 = DEFINITIONAL_REPRESENTATION('',(#1226),#1230);
#1226 = LINE('',#1227,#1228);
#1227 = CARTESIAN_POINT('',(0.,-5.));
#1228 = VECTOR('',#1229,1.);
#1229 = DIRECTION('',(1.,0.));
#1230 = ( GEOMETRIC_REPRESENTATION_CONTEXT(2) 
PARAMETRIC_REPRESENTATION_CONTEXT() REPRESENTATION_CONTEXT('2D SPACE',''
  ) );
#1231 = PCURVE('',#1232,#1237);
#1232 = PLANE('',#1233);
#1233 = AXIS2_PLACEMENT_3D('',#1234,#1235,#1236);
#1234 = CARTESIAN_POINT('',(-497.6207398862,102.40882799672,
    15.044504494858));
#1235 = DIRECTION('',(3.996803834886E-02,0.999200958722,
    2.093529135184E-16));
#1236 = DIRECTION('',(0.999200958722,-3.996803834886E-02,0.));
#1237 = DEFINITIONAL_REPRESENTATION('',(#1238),#1242);
#1238 = LINE('',#1239,#1240);
#1239 = CARTESIAN_POINT('',(398.13870934116,-4.655495505142));
#1240 = VECTOR('',#1241,1.);
#1241 = DIRECTION('',(1.54074395551E-33,1.));
#1242 = ( GEOMETRIC_REPRESENTATION_CONTEXT(2) 
PARAMETRIC_REPRESENTATION_CONTEXT() REPRESENTATION_CONTEXT('2D SPACE',''
  ) );
#1243 = ORIENTED_EDGE('',*,*,#1244,.F.);
#1244 = EDGE_CURVE('',#376,#1217,#1245,.T.);
#1245 = SURFACE_CURVE('',#1246,(#1250,#1257),.PCURVE_S1.);
#1246 = LINE('',#1247,#1248);
#1247 = CARTESIAN_POINT('',(-100.,81.5,8.4));
#1248 = VECTOR('',#1249,1.);
#1249 = DIRECTION('',(3.996803834886E-02,0.999200958722,0.));
#1250 = PCURVE('',#419,#1251);
#1251 = DEFINITIONAL_REPRESENTATION('',(#1252),#1256);
#1252 = LINE('',#1253,#1254);
#1253 = CARTESIAN_POINT('',(11.3,0.));
#1254 = VECTOR('',#1255,1.);
#1255 = DIRECTION('',(0.,-1.));
#1256 = ( GEOMETRIC_REPRESENTATION_CONTEXT(2) 
PARAMETRIC_REPRESENTATION_CONTEXT() REPRESENTATION_CONTEXT('2D SPACE',''
  ) );
#1257 = PCURVE('',#391,#1258);
#1258 = DEFINITIONAL_REPRESENTATION('',(#1259),#1263);
#1259 = LINE('',#1260,#1261);
#1260 = CARTESIAN_POINT('',(0.,0.));
#1261 = VECTOR('',#1262,1.);
#1262 = DIRECTION('',(1.998433379026E-14,-1.));
#1263 = ( GEOMETRIC_REPRESENTATION_CONTEXT(2) 
PARAMETRIC_REPRESENTATION_CONTEXT() REPRESENTATION_CONTEXT('2D SPACE',''
  ) );
#1264 = ORIENTED_EDGE('',*,*,#403,.T.);
#1265 = ADVANCED_FACE('',(#1266),#391,.T.);
#1266 = FACE_BOUND('',#1267,.T.);
#1267 = EDGE_LOOP('',(#1268,#1289,#1290,#1291));
#1268 = ORIENTED_EDGE('',*,*,#1269,.T.);
#1269 = EDGE_CURVE('',#1270,#350,#1272,.T.);
#1270 = VERTEX_POINT('',#1271);
#1271 = CARTESIAN_POINT('',(-99.86006013411,86.498400806644,
    8.400479202607));
#1272 = SURFACE_CURVE('',#1273,(#1277,#1283),.PCURVE_S1.);
#1273 = LINE('',#1274,#1275);
#1274 = CARTESIAN_POINT('',(-99.91006010219,85.248401604727,
    8.400479202607));
#1275 = VECTOR('',#1276,1.);
#1276 = DIRECTION('',(-3.996803834887E-02,-0.999200958722,
    3.903127820948E-17));
#1277 = PCURVE('',#391,#1278);
#1278 = DEFINITIONAL_REPRESENTATION('',(#1279),#1282);
#1279 = B_SPLINE_CURVE_WITH_KNOTS('',1,(#1280,#1281),.UNSPECIFIED.,.F.,
  .F.,(2,2),(-1.250998801598,3.749001198404),.PIECEWISE_BEZIER_KNOTS.);
#1280 = CARTESIAN_POINT('',(5.995014221395E-02,-5.));
#1281 = CARTESIAN_POINT('',(5.99501422139E-02,1.77591275019E-12));
#1282 = ( GEOMETRIC_REPRESENTATION_CONTEXT(2) 
PARAMETRIC_REPRESENTATION_CONTEXT() REPRESENTATION_CONTEXT('2D SPACE',''
  ) );
#1283 = PCURVE('',#364,#1284);
#1284 = DEFINITIONAL_REPRESENTATION('',(#1285),#1288);
#1285 = B_SPLINE_CURVE_WITH_KNOTS('',1,(#1286,#1287),.UNSPECIFIED.,.F.,
  .F.,(2,2),(-1.250998801598,3.749001198404),.PIECEWISE_BEZIER_KNOTS.);
#1286 = CARTESIAN_POINT('',(2.498002396804,-5.000638959774));
#1287 = CARTESIAN_POINT('',(7.498002396806,-5.000638959774));
#1288 = ( GEOMETRIC_REPRESENTATION_CONTEXT(2) 
PARAMETRIC_REPRESENTATION_CONTEXT() REPRESENTATION_CONTEXT('2D SPACE',''
  ) );
#1289 = ORIENTED_EDGE('',*,*,#375,.T.);
#1290 = ORIENTED_EDGE('',*,*,#1244,.T.);
#1291 = ORIENTED_EDGE('',*,*,#1292,.T.);
#1292 = EDGE_CURVE('',#1217,#1270,#1293,.T.);
#1293 = SURFACE_CURVE('',#1294,(#1298,#1305),.PCURVE_S1.);
#1294 = LINE('',#1295,#1296);
#1295 = CARTESIAN_POINT('',(-99.80015980825,86.496004793609,8.4));
#1296 = VECTOR('',#1297,1.);
#1297 = DIRECTION('',(-0.999169036898,3.996676147594E-02,
    7.993352295188E-03));
#1298 = PCURVE('',#391,#1299);
#1299 = DEFINITIONAL_REPRESENTATION('',(#1300),#1304);
#1300 = LINE('',#1301,#1302);
#1301 = CARTESIAN_POINT('',(-5.58455474541E-12,-5.));
#1302 = VECTOR('',#1303,1.);
#1303 = DIRECTION('',(1.,9.576382965893E-19));
#1304 = ( GEOMETRIC_REPRESENTATION_CONTEXT(2) 
PARAMETRIC_REPRESENTATION_CONTEXT() REPRESENTATION_CONTEXT('2D SPACE',''
  ) );
#1305 = PCURVE('',#1232,#1306);
#1306 = DEFINITIONAL_REPRESENTATION('',(#1307),#1311);
#1307 = LINE('',#1308,#1309);
#1308 = CARTESIAN_POINT('',(398.13870934116,6.644504494858));
#1309 = VECTOR('',#1310,1.);
#1310 = DIRECTION('',(-0.999968052649,-7.993352295188E-03));
#1311 = ( GEOMETRIC_REPRESENTATION_CONTEXT(2) 
PARAMETRIC_REPRESENTATION_CONTEXT() REPRESENTATION_CONTEXT('2D SPACE',''
  ) );
#1312 = ADVANCED_FACE('',(#1313),#364,.F.);
#1313 = FACE_BOUND('',#1314,.T.);
#1314 = EDGE_LOOP('',(#1315,#1338,#1339,#1360,#1361,#1362));
#1315 = ORIENTED_EDGE('',*,*,#1316,.T.);
#1316 = EDGE_CURVE('',#1317,#769,#1319,.T.);
#1317 = VERTEX_POINT('',#1318);
#1318 = CARTESIAN_POINT('',(-99.85207827218,86.498081532163,
    9.399808315895));
#1319 = SURFACE_CURVE('',#1320,(#1324,#1331),.PCURVE_S1.);
#1320 = LINE('',#1321,#1322);
#1321 = CARTESIAN_POINT('',(-100.3517585918,74.006073541116,
    9.399808315895));
#1322 = VECTOR('',#1323,1.);
#1323 = DIRECTION('',(3.996803834887E-02,0.999200958722,-0.));
#1324 = PCURVE('',#364,#1325);
#1325 = DEFINITIONAL_REPRESENTATION('',(#1326),#1330);
#1326 = LINE('',#1327,#1328);
#1327 = CARTESIAN_POINT('',(15.,-6.));
#1328 = VECTOR('',#1329,1.);
#1329 = DIRECTION('',(-1.,-5.421010862428E-20));
#1330 = ( GEOMETRIC_REPRESENTATION_CONTEXT(2) 
PARAMETRIC_REPRESENTATION_CONTEXT() REPRESENTATION_CONTEXT('2D SPACE',''
  ) );
#1331 = PCURVE('',#804,#1332);
#1332 = DEFINITIONAL_REPRESENTATION('',(#1333),#1337);
#1333 = LINE('',#1334,#1335);
#1334 = CARTESIAN_POINT('',(-260.9179238655,-20.44437982098));
#1335 = VECTOR('',#1336,1.);
#1336 = DIRECTION('',(-3.996676351557E-02,0.999201009714));
#1337 = ( GEOMETRIC_REPRESENTATION_CONTEXT(2) 
PARAMETRIC_REPRESENTATION_CONTEXT() REPRESENTATION_CONTEXT('2D SPACE',''
  ) );
#1338 = ORIENTED_EDGE('',*,*,#768,.F.);
#1339 = ORIENTED_EDGE('',*,*,#1340,.F.);
#1340 = EDGE_CURVE('',#322,#746,#1341,.T.);
#1341 = SURFACE_CURVE('',#1342,(#1346,#1353),.PCURVE_S1.);
#1342 = LINE('',#1343,#1344);
#1343 = CARTESIAN_POINT('',(-100.3597455571,74.006393019727,
    8.399840263246));
#1344 = VECTOR('',#1345,1.);
#1345 = DIRECTION('',(3.996803834886E-02,0.999200958722,0.));
#1346 = PCURVE('',#364,#1347);
#1347 = DEFINITIONAL_REPRESENTATION('',(#1348),#1352);
#1348 = LINE('',#1349,#1350);
#1349 = CARTESIAN_POINT('',(15.,-5.));
#1350 = VECTOR('',#1351,1.);
#1351 = DIRECTION('',(-1.,7.886999685028E-17));
#1352 = ( GEOMETRIC_REPRESENTATION_CONTEXT(2) 
PARAMETRIC_REPRESENTATION_CONTEXT() REPRESENTATION_CONTEXT('2D SPACE',''
  ) );
#1353 = PCURVE('',#337,#1354);
#1354 = DEFINITIONAL_REPRESENTATION('',(#1355),#1359);
#1355 = LINE('',#1356,#1357);
#1356 = CARTESIAN_POINT('',(-2.985135008582E-12,-4.999999999999));
#1357 = VECTOR('',#1358,1.);
#1358 = DIRECTION('',(1.,-1.856559709823E-19));
#1359 = ( GEOMETRIC_REPRESENTATION_CONTEXT(2) 
PARAMETRIC_REPRESENTATION_CONTEXT() REPRESENTATION_CONTEXT('2D SPACE',''
  ) );
#1360 = ORIENTED_EDGE('',*,*,#349,.T.);
#1361 = ORIENTED_EDGE('',*,*,#1269,.F.);
#1362 = ORIENTED_EDGE('',*,*,#1363,.T.);
#1363 = EDGE_CURVE('',#1270,#1317,#1364,.T.);
#1364 = SURFACE_CURVE('',#1365,(#1369,#1375),.PCURVE_S1.);
#1365 = LINE('',#1366,#1367);
#1366 = CARTESIAN_POINT('',(-99.86620534395,86.498646615034,
    7.63109893038));
#1367 = VECTOR('',#1368,1.);
#1368 = DIRECTION('',(7.986965276751E-03,-3.194786110702E-04,
    0.999968052649));
#1369 = PCURVE('',#364,#1370);
#1370 = DEFINITIONAL_REPRESENTATION('',(#1371),#1374);
#1371 = B_SPLINE_CURVE_WITH_KNOTS('',1,(#1372,#1373),.UNSPECIFIED.,.F.,
  .F.,(2,2),(0.768925634757,1.768765892899),.PIECEWISE_BEZIER_KNOTS.);
#1372 = CARTESIAN_POINT('',(2.498002396807,-5.000159741857));
#1373 = CARTESIAN_POINT('',(2.498002396807,-6.));
#1374 = ( GEOMETRIC_REPRESENTATION_CONTEXT(2) 
PARAMETRIC_REPRESENTATION_CONTEXT() REPRESENTATION_CONTEXT('2D SPACE',''
  ) );
#1375 = PCURVE('',#1232,#1376);
#1376 = DEFINITIONAL_REPRESENTATION('',(#1377),#1380);
#1377 = B_SPLINE_CURVE_WITH_KNOTS('',1,(#1378,#1379),.UNSPECIFIED.,.F.,
  .F.,(2,2),(0.768925634757,1.768765892899),.PIECEWISE_BEZIER_KNOTS.);
#1378 = CARTESIAN_POINT('',(398.07875728363,6.644504494858));
#1379 = CARTESIAN_POINT('',(398.08674935906,5.644696178963));
#1380 = ( GEOMETRIC_REPRESENTATION_CONTEXT(2) 
PARAMETRIC_REPRESENTATION_CONTEXT() REPRESENTATION_CONTEXT('2D SPACE',''
  ) );
#1381 = ADVANCED_FACE('',(#1382),#337,.T.);
#1382 = FACE_BOUND('',#1383,.T.);
#1383 = EDGE_LOOP('',(#1384,#1385,#1386,#1387));
#1384 = ORIENTED_EDGE('',*,*,#321,.T.);
#1385 = ORIENTED_EDGE('',*,*,#1340,.T.);
#1386 = ORIENTED_EDGE('',*,*,#745,.F.);
#1387 = ORIENTED_EDGE('',*,*,#1388,.F.);
#1388 = EDGE_CURVE('',#294,#723,#1389,.T.);
#1389 = SURFACE_CURVE('',#1390,(#1394,#1401),.PCURVE_S1.);
#1390 = LINE('',#1391,#1392);
#1391 = CARTESIAN_POINT('',(-99.96940888184,83.844777953995,8.));
#1392 = VECTOR('',#1393,1.);
#1393 = DIRECTION('',(3.996803834886E-02,0.999200958722,-0.));
#1394 = PCURVE('',#337,#1395);
#1395 = DEFINITIONAL_REPRESENTATION('',(#1396),#1400);
#1396 = LINE('',#1397,#1398);
#1397 = CARTESIAN_POINT('',(9.846124649797,-4.600146962508));
#1398 = VECTOR('',#1399,1.);
#1399 = DIRECTION('',(1.,-1.856559709823E-19));
#1400 = ( GEOMETRIC_REPRESENTATION_CONTEXT(2) 
PARAMETRIC_REPRESENTATION_CONTEXT() REPRESENTATION_CONTEXT('2D SPACE',''
  ) );
#1401 = PCURVE('',#309,#1402);
#1402 = DEFINITIONAL_REPRESENTATION('',(#1403),#1407);
#1403 = LINE('',#1404,#1405);
#1404 = CARTESIAN_POINT('',(49.96940888184,-7.855222046005));
#1405 = VECTOR('',#1406,1.);
#1406 = DIRECTION('',(-3.996803834886E-02,0.999200958722));
#1407 = ( GEOMETRIC_REPRESENTATION_CONTEXT(2) 
PARAMETRIC_REPRESENTATION_CONTEXT() REPRESENTATION_CONTEXT('2D SPACE',''
  ) );
#1408 = ADVANCED_FACE('',(#1409),#309,.T.);
#1409 = FACE_BOUND('',#1410,.T.);
#1410 = EDGE_LOOP('',(#1411,#1412,#1413,#1414));
#1411 = ORIENTED_EDGE('',*,*,#722,.F.);
#1412 = ORIENTED_EDGE('',*,*,#582,.T.);
#1413 = ORIENTED_EDGE('',*,*,#293,.T.);
#1414 = ORIENTED_EDGE('',*,*,#1388,.T.);
#1415 = ADVANCED_FACE('',(#1416),#854,.F.);
#1416 = FACE_BOUND('',#1417,.T.);
#1417 = EDGE_LOOP('',(#1418,#1441,#1442,#1443));
#1418 = ORIENTED_EDGE('',*,*,#1419,.F.);
#1419 = EDGE_CURVE('',#1132,#1420,#1422,.T.);
#1420 = VERTEX_POINT('',#1421);
#1421 = CARTESIAN_POINT('',(-99.88009588495,86.997602876165,19.7));
#1422 = SURFACE_CURVE('',#1423,(#1427,#1434),.PCURVE_S1.);
#1423 = LINE('',#1424,#1425);
#1424 = CARTESIAN_POINT('',(-100.119904115,81.002397123835,19.7));
#1425 = VECTOR('',#1426,1.);
#1426 = DIRECTION('',(3.996803834887E-02,0.999200958722,-0.));
#1427 = PCURVE('',#854,#1428);
#1428 = DEFINITIONAL_REPRESENTATION('',(#1429),#1433);
#1429 = LINE('',#1430,#1431);
#1430 = CARTESIAN_POINT('',(-275.2211485787,-1.776368020235E-15));
#1431 = VECTOR('',#1432,1.);
#1432 = DIRECTION('',(-4.062472934384E-23,-1.));
#1433 = ( GEOMETRIC_REPRESENTATION_CONTEXT(2) 
PARAMETRIC_REPRESENTATION_CONTEXT() REPRESENTATION_CONTEXT('2D SPACE',''
  ) );
#1434 = PCURVE('',#1151,#1435);
#1435 = DEFINITIONAL_REPRESENTATION('',(#1436),#1440);
#1436 = LINE('',#1437,#1438);
#1437 = CARTESIAN_POINT('',(-0.,-0.));
#1438 = VECTOR('',#1439,1.);
#1439 = DIRECTION('',(-0.,-1.));
#1440 = ( GEOMETRIC_REPRESENTATION_CONTEXT(2) 
PARAMETRIC_REPRESENTATION_CONTEXT() REPRESENTATION_CONTEXT('2D SPACE',''
  ) );
#1441 = ORIENTED_EDGE('',*,*,#1167,.T.);
#1442 = ORIENTED_EDGE('',*,*,#841,.F.);
#1443 = ORIENTED_EDGE('',*,*,#1444,.T.);
#1444 = EDGE_CURVE('',#816,#1420,#1445,.T.);
#1445 = SURFACE_CURVE('',#1446,(#1450,#1457),.PCURVE_S1.);
#1446 = LINE('',#1447,#1448);
#1447 = CARTESIAN_POINT('',(-374.8800958849,97.997602876165,18.875));
#1448 = VECTOR('',#1449,1.);
#1449 = DIRECTION('',(0.99919646953,-3.996785878122E-02,
    2.997589408591E-03));
#1450 = PCURVE('',#854,#1451);
#1451 = DEFINITIONAL_REPRESENTATION('',(#1452),#1456);
#1452 = LINE('',#1453,#1454);
#1453 = CARTESIAN_POINT('',(1.196265309034E-14,-6.));
#1454 = VECTOR('',#1455,1.);
#1455 = DIRECTION('',(-1.,-6.938934528819E-18));
#1456 = ( GEOMETRIC_REPRESENTATION_CONTEXT(2) 
PARAMETRIC_REPRESENTATION_CONTEXT() REPRESENTATION_CONTEXT('2D SPACE',''
  ) );
#1457 = PCURVE('',#830,#1458);
#1458 = DEFINITIONAL_REPRESENTATION('',(#1459),#1463);
#1459 = LINE('',#1460,#1461);
#1460 = CARTESIAN_POINT('',(138.34022264453,-4.483139079892));
#1461 = VECTOR('',#1462,1.);
#1462 = DIRECTION('',(-0.999995507219,-2.997589408591E-03));
#1463 = ( GEOMETRIC_REPRESENTATION_CONTEXT(2) 
PARAMETRIC_REPRESENTATION_CONTEXT() REPRESENTATION_CONTEXT('2D SPACE',''
  ) );
#1464 = ADVANCED_FACE('',(#1465),#830,.T.);
#1465 = FACE_BOUND('',#1466,.F.);
#1466 = EDGE_LOOP('',(#1467,#1468,#1491,#1512));
#1467 = ORIENTED_EDGE('',*,*,#1444,.T.);
#1468 = ORIENTED_EDGE('',*,*,#1469,.T.);
#1469 = EDGE_CURVE('',#1420,#1470,#1472,.T.);
#1470 = VERTEX_POINT('',#1471);
#1471 = CARTESIAN_POINT('',(-99.88009588495,86.997602876165,
    9.400191690229));
#1472 = SURFACE_CURVE('',#1473,(#1477,#1484),.PCURVE_S1.);
#1473 = LINE('',#1474,#1475);
#1474 = CARTESIAN_POINT('',(-99.88009588495,86.997602876165,19.7));
#1475 = VECTOR('',#1476,1.);
#1476 = DIRECTION('',(-0.,-0.,-1.));
#1477 = PCURVE('',#830,#1478);
#1478 = DEFINITIONAL_REPRESENTATION('',(#1479),#1483);
#1479 = LINE('',#1480,#1481);
#1480 = CARTESIAN_POINT('',(-136.8796894257,-5.308139079892));
#1481 = VECTOR('',#1482,1.);
#1482 = DIRECTION('',(-0.,1.));
#1483 = ( GEOMETRIC_REPRESENTATION_CONTEXT(2) 
PARAMETRIC_REPRESENTATION_CONTEXT() REPRESENTATION_CONTEXT('2D SPACE',''
  ) );
#1484 = PCURVE('',#1151,#1485);
#1485 = DEFINITIONAL_REPRESENTATION('',(#1486),#1490);
#1486 = LINE('',#1487,#1488);
#1487 = CARTESIAN_POINT('',(-0.,-6.));
#1488 = VECTOR('',#1489,1.);
#1489 = DIRECTION('',(-1.,0.));
#1490 = ( GEOMETRIC_REPRESENTATION_CONTEXT(2) 
PARAMETRIC_REPRESENTATION_CONTEXT() REPRESENTATION_CONTEXT('2D SPACE',''
  ) );
#1491 = ORIENTED_EDGE('',*,*,#1492,.T.);
#1492 = EDGE_CURVE('',#1470,#790,#1493,.T.);
#1493 = SURFACE_CURVE('',#1494,(#1498,#1505),.PCURVE_S1.);
#1494 = LINE('',#1495,#1496);
#1495 = CARTESIAN_POINT('',(-389.7743794821,98.593374220052,
    11.719345959006));
#1496 = VECTOR('',#1497,1.);
#1497 = DIRECTION('',(-0.999169036898,3.996676147593E-02,
    7.993352295186E-03));
#1498 = PCURVE('',#830,#1499);
#1499 = DEFINITIONAL_REPRESENTATION('',(#1500),#1504);
#1500 = LINE('',#1501,#1502);
#1501 = CARTESIAN_POINT('',(153.2464169062,2.672514961102));
#1502 = VECTOR('',#1503,1.);
#1503 = DIRECTION('',(0.999968052649,-7.993352295186E-03));
#1504 = ( GEOMETRIC_REPRESENTATION_CONTEXT(2) 
PARAMETRIC_REPRESENTATION_CONTEXT() REPRESENTATION_CONTEXT('2D SPACE',''
  ) );
#1505 = PCURVE('',#804,#1506);
#1506 = DEFINITIONAL_REPRESENTATION('',(#1507),#1511);
#1507 = LINE('',#1508,#1509);
#1508 = CARTESIAN_POINT('',(28.513991575994,4.142922112725));
#1509 = VECTOR('',#1510,1.);
#1510 = DIRECTION('',(0.999201009714,3.996676351557E-02));
#1511 = ( GEOMETRIC_REPRESENTATION_CONTEXT(2) 
PARAMETRIC_REPRESENTATION_CONTEXT() REPRESENTATION_CONTEXT('2D SPACE',''
  ) );
#1512 = ORIENTED_EDGE('',*,*,#815,.F.);
#1513 = ADVANCED_FACE('',(#1514),#804,.T.);
#1514 = FACE_BOUND('',#1515,.F.);
#1515 = EDGE_LOOP('',(#1516,#1537,#1538,#1539,#1540));
#1516 = ORIENTED_EDGE('',*,*,#1517,.T.);
#1517 = EDGE_CURVE('',#1518,#1317,#1520,.T.);
#1518 = VERTEX_POINT('',#1519);
#1519 = CARTESIAN_POINT('',(-99.90000006384,86.49999840383,
    9.400191690229));
#1520 = SURFACE_CURVE('',#1521,(#1525,#1531),.PCURVE_S1.);
#1521 = LINE('',#1522,#1523);
#1522 = CARTESIAN_POINT('',(-429.4008577835,99.680032712613,
    12.036198551986));
#1523 = VECTOR('',#1524,1.);
#1524 = DIRECTION('',(0.999169036898,-3.996676147592E-02,
    -7.993352295186E-03));
#1525 = PCURVE('',#804,#1526);
#1526 = DEFINITIONAL_REPRESENTATION('',(#1527),#1530);
#1527 = B_SPLINE_CURVE_WITH_KNOTS('',1,(#1528,#1529),.UNSPECIFIED.,.F.,
  .F.,(2,2),(199.66673350368,329.87481177202),.PIECEWISE_BEZIER_KNOTS.);
#1528 = CARTESIAN_POINT('',(-131.3654650938,-2.750452459123));
#1529 = CARTESIAN_POINT('',(-261.4695083725,-7.954447931089));
#1530 = ( GEOMETRIC_REPRESENTATION_CONTEXT(2) 
PARAMETRIC_REPRESENTATION_CONTEXT() REPRESENTATION_CONTEXT('2D SPACE',''
  ) );
#1531 = PCURVE('',#1232,#1532);
#1532 = DEFINITIONAL_REPRESENTATION('',(#1533),#1536);
#1533 = B_SPLINE_CURVE_WITH_KNOTS('',1,(#1534,#1535),.UNSPECIFIED.,.F.,
  .F.,(2,2),(199.66673350368,329.87481177202),.PIECEWISE_BEZIER_KNOTS.);
#1534 = CARTESIAN_POINT('',(267.93479087597,4.604312485396));
#1535 = CARTESIAN_POINT('',(398.13870934116,5.645111526674));
#1536 = ( GEOMETRIC_REPRESENTATION_CONTEXT(2) 
PARAMETRIC_REPRESENTATION_CONTEXT() REPRESENTATION_CONTEXT('2D SPACE',''
  ) );
#1537 = ORIENTED_EDGE('',*,*,#1316,.T.);
#1538 = ORIENTED_EDGE('',*,*,#789,.F.);
#1539 = ORIENTED_EDGE('',*,*,#1492,.F.);
#1540 = ORIENTED_EDGE('',*,*,#1541,.T.);
#1541 = EDGE_CURVE('',#1470,#1518,#1542,.T.);
#1542 = SURFACE_CURVE('',#1543,(#1547,#1554),.PCURVE_S1.);
#1543 = LINE('',#1544,#1545);
#1544 = CARTESIAN_POINT('',(-100.0599520575,82.501198561917,
    9.400191690229));
#1545 = VECTOR('',#1546,1.);
#1546 = DIRECTION('',(-3.996803834887E-02,-0.999200958722,
    2.2416596067E-16));
#1547 = PCURVE('',#804,#1548);
#1548 = DEFINITIONAL_REPRESENTATION('',(#1549),#1553);
#1549 = LINE('',#1550,#1551);
#1550 = CARTESIAN_POINT('',(-261.2097180303,-11.94925436664));
#1551 = VECTOR('',#1552,1.);
#1552 = DIRECTION('',(3.996676351557E-02,-0.999201009714));
#1553 = ( GEOMETRIC_REPRESENTATION_CONTEXT(2) 
PARAMETRIC_REPRESENTATION_CONTEXT() REPRESENTATION_CONTEXT('2D SPACE',''
  ) );
#1554 = PCURVE('',#1151,#1555);
#1555 = DEFINITIONAL_REPRESENTATION('',(#1556),#1560);
#1556 = LINE('',#1557,#1558);
#1557 = CARTESIAN_POINT('',(-10.29980830977,-1.5));
#1558 = VECTOR('',#1559,1.);
#1559 = DIRECTION('',(2.2416596067E-16,1.));
#1560 = ( GEOMETRIC_REPRESENTATION_CONTEXT(2) 
PARAMETRIC_REPRESENTATION_CONTEXT() REPRESENTATION_CONTEXT('2D SPACE',''
  ) );
#1561 = ADVANCED_FACE('',(#1562),#1151,.F.);
#1562 = FACE_BOUND('',#1563,.T.);
#1563 = EDGE_LOOP('',(#1564,#1565,#1586,#1605,#1606,#1607));
#1564 = ORIENTED_EDGE('',*,*,#1541,.T.);
#1565 = ORIENTED_EDGE('',*,*,#1566,.T.);
#1566 = EDGE_CURVE('',#1518,#1567,#1569,.T.);
#1567 = VERTEX_POINT('',#1568);
#1568 = CARTESIAN_POINT('',(-99.90000006384,86.49999840381,
    19.699700479234));
#1569 = SURFACE_CURVE('',#1570,(#1574,#1580),.PCURVE_S1.);
#1570 = LINE('',#1571,#1572);
#1571 = CARTESIAN_POINT('',(-99.90000006384,86.49999840383,
    17.372252247429));
#1572 = VECTOR('',#1573,1.);
#1573 = DIRECTION('',(-8.36742527595E-18,-2.091856318987E-16,1.));
#1574 = PCURVE('',#1151,#1575);
#1575 = DEFINITIONAL_REPRESENTATION('',(#1576),#1579);
#1576 = B_SPLINE_CURVE_WITH_KNOTS('',1,(#1577,#1578),.UNSPECIFIED.,.F.,
  .F.,(2,2),(-7.9720605572,2.327747752572),.PIECEWISE_BEZIER_KNOTS.);
#1577 = CARTESIAN_POINT('',(-10.29980830977,-5.501997603193));
#1578 = CARTESIAN_POINT('',(6.483702463811E-13,-5.501997603193));
#1579 = ( GEOMETRIC_REPRESENTATION_CONTEXT(2) 
PARAMETRIC_REPRESENTATION_CONTEXT() REPRESENTATION_CONTEXT('2D SPACE',''
  ) );
#1580 = PCURVE('',#1232,#1581);
#1581 = DEFINITIONAL_REPRESENTATION('',(#1582),#1585);
#1582 = B_SPLINE_CURVE_WITH_KNOTS('',1,(#1583,#1584),.UNSPECIFIED.,.F.,
  .F.,(2,2),(-7.9720605572,2.327747752572),.PIECEWISE_BEZIER_KNOTS.);
#1583 = CARTESIAN_POINT('',(398.03878924528,5.644312804629));
#1584 = CARTESIAN_POINT('',(398.03878924528,-4.655495505143));
#1585 = ( GEOMETRIC_REPRESENTATION_CONTEXT(2) 
PARAMETRIC_REPRESENTATION_CONTEXT() REPRESENTATION_CONTEXT('2D SPACE',''
  ) );
#1586 = ORIENTED_EDGE('',*,*,#1587,.F.);
#1587 = EDGE_CURVE('',#1105,#1567,#1588,.T.);
#1588 = SURFACE_CURVE('',#1589,(#1593,#1599),.PCURVE_S1.);
#1589 = LINE('',#1590,#1591);
#1590 = CARTESIAN_POINT('',(-100.1098721853,81.253195367029,
    19.699700479233));
#1591 = VECTOR('',#1592,1.);
#1592 = DIRECTION('',(3.996803834887E-02,0.999200958722,
    -3.995302955631E-17));
#1593 = PCURVE('',#1151,#1594);
#1594 = DEFINITIONAL_REPRESENTATION('',(#1595),#1598);
#1595 = B_SPLINE_CURVE_WITH_KNOTS('',1,(#1596,#1597),.UNSPECIFIED.,.F.,
  .F.,(2,2),(5.249001180459,5.250998801598),.PIECEWISE_BEZIER_KNOTS.);
#1596 = CARTESIAN_POINT('',(-2.995207671967E-04,-5.499999982056));
#1597 = CARTESIAN_POINT('',(-2.995207671967E-04,-5.501997603196));
#1598 = ( GEOMETRIC_REPRESENTATION_CONTEXT(2) 
PARAMETRIC_REPRESENTATION_CONTEXT() REPRESENTATION_CONTEXT('2D SPACE',''
  ) );
#1599 = PCURVE('',#1119,#1600);
#1600 = DEFINITIONAL_REPRESENTATION('',(#1601),#1604);
#1601 = B_SPLINE_CURVE_WITH_KNOTS('',1,(#1602,#1603),.UNSPECIFIED.,.F.,
  .F.,(2,2),(5.249001180459,5.250998801598),.PIECEWISE_BEZIER_KNOTS.);
#1602 = CARTESIAN_POINT('',(800.54342077517,-4.998002378877));
#1603 = CARTESIAN_POINT('',(800.54342077517,-5.000000000016));
#1604 = ( GEOMETRIC_REPRESENTATION_CONTEXT(2) 
PARAMETRIC_REPRESENTATION_CONTEXT() REPRESENTATION_CONTEXT('2D SPACE',''
  ) );
#1605 = ORIENTED_EDGE('',*,*,#1131,.F.);
#1606 = ORIENTED_EDGE('',*,*,#1419,.T.);
#1607 = ORIENTED_EDGE('',*,*,#1469,.T.);
#1608 = ADVANCED_FACE('',(#1609),#1119,.T.);
#1609 = FACE_BOUND('',#1610,.T.);
#1610 = EDGE_LOOP('',(#1611,#1612,#1613,#1614));
#1611 = ORIENTED_EDGE('',*,*,#1193,.F.);
#1612 = ORIENTED_EDGE('',*,*,#1104,.T.);
#1613 = ORIENTED_EDGE('',*,*,#1587,.T.);
#1614 = ORIENTED_EDGE('',*,*,#1615,.T.);
#1615 = EDGE_CURVE('',#1567,#1194,#1616,.T.);
#1616 = SURFACE_CURVE('',#1617,(#1621,#1628),.PCURVE_S1.);
#1617 = LINE('',#1618,#1619);
#1618 = CARTESIAN_POINT('',(-899.8001598082,118.4960047936,17.3));
#1619 = VECTOR('',#1620,1.);
#1620 = DIRECTION('',(0.99919646953,-3.996785878124E-02,
    2.997589408592E-03));
#1621 = PCURVE('',#1119,#1622);
#1622 = DEFINITIONAL_REPRESENTATION('',(#1623),#1627);
#1623 = LINE('',#1624,#1625);
#1624 = CARTESIAN_POINT('',(5.589118150234E-11,-4.999999999993));
#1625 = VECTOR('',#1626,1.);
#1626 = DIRECTION('',(1.,-6.998775023993E-18));
#1627 = ( GEOMETRIC_REPRESENTATION_CONTEXT(2) 
PARAMETRIC_REPRESENTATION_CONTEXT() REPRESENTATION_CONTEXT('2D SPACE',''
  ) );
#1628 = PCURVE('',#1232,#1629);
#1629 = DEFINITIONAL_REPRESENTATION('',(#1630),#1634);
#1630 = LINE('',#1631,#1632);
#1631 = CARTESIAN_POINT('',(-402.5010348633,-2.255495505142));
#1632 = VECTOR('',#1633,1.);
#1633 = DIRECTION('',(0.999995507219,-2.997589408592E-03));
#1634 = ( GEOMETRIC_REPRESENTATION_CONTEXT(2) 
PARAMETRIC_REPRESENTATION_CONTEXT() REPRESENTATION_CONTEXT('2D SPACE',''
  ) );
#1635 = ADVANCED_FACE('',(#1636),#1232,.F.);
#1636 = FACE_BOUND('',#1637,.F.);
#1637 = EDGE_LOOP('',(#1638,#1639,#1640,#1641,#1642,#1643));
#1638 = ORIENTED_EDGE('',*,*,#1566,.T.);
#1639 = ORIENTED_EDGE('',*,*,#1615,.T.);
#1640 = ORIENTED_EDGE('',*,*,#1216,.T.);
#1641 = ORIENTED_EDGE('',*,*,#1292,.T.);
#1642 = ORIENTED_EDGE('',*,*,#1363,.T.);
#1643 = ORIENTED_EDGE('',*,*,#1517,.F.);
#1644 = ( GEOMETRIC_REPRESENTATION_CONTEXT(3) 
GLOBAL_UNCERTAINTY_ASSIGNED_CONTEXT((#1648)) 
GLOBAL_UNIT_ASSIGNED_CONTEXT((#1645,#1646,#1647)) REPRESENTATION_CONTEXT
('Context #1','3D Context with UNIT and UNCERTAINTY') );
#1645 = ( LENGTH_UNIT() NAMED_UNIT(*) SI_UNIT(.MILLI.,.METRE.) );
#1646 = ( NAMED_UNIT(*) PLANE_ANGLE_UNIT() SI_UNIT($,.RADIAN.) );
#1647 = ( NAMED_UNIT(*) SI_UNIT($,.STERADIAN.) SOLID_ANGLE_UNIT() );
#1648 = UNCERTAINTY_MEASURE_WITH_UNIT(LENGTH_MEASURE(1.E-07),#1645,
  'distance_accuracy_value','confusion accuracy');
#1649 = PRODUCT_RELATED_PRODUCT_CATEGORY('part',$,(#7));
ENDSEC;
END-ISO-10303-21;
