ISO-10303-21;
HEADER;
FILE_DESCRIPTION(('Open CASCADE Model'),'2;1');
FILE_NAME('Open CASCADE Shape Model','2026-09-23T08:26:30',('Author'),(
    'Open CASCADE'),'Open CASCADE STEP processor 7.9','Open CASCADE 7.9'
  ,'Unknown');
FILE_SCHEMA(('AUTOMOTIVE_DESIGN { 1 0 10303 214 1 1 1 1 }'));
ENDSEC;
DATA;
#1 = APPLICATION_PROTOCOL_DEFINITION('international standard',
  'automotive_design',2000,#2);
#2 = APPLICATION_CONTEXT(
  'core data for automotive mechanical design processes');
#3 = SHAPE_DEFINITION_REPRESENTATION(#4,#10);
#4 = PRODUCT_DEFINITION_SHAPE('','',#5);
#5 = PRODUCT_DEFINITION('design','',#6,#9);
#6 = PRODUCT_DEFINITION_FORMATION('','',#7);
#7 = PRODUCT('Open CASCADE STEP translator 7.9 258',
  'Open CASCADE STEP translator 7.9 258','',(#8));
#8 = PRODUCT_CONTEXT('',#2,'mechanical');
#9 = PRODUCT_DEFINITION_CONTEXT('part definition',#2,'design');
#10 = ADVANCED_BREP_SHAPE_REPRESENTATION('',(#11,#15),#1367);
#11 = AXIS2_PLACEMENT_3D('',#12,#13,#14);
#12 = CARTESIAN_POINT('',(0.,0.,0.));
#13 = DIRECTION('',(0.,0.,1.));
#14 = DIRECTION('',(1.,0.,-0.));
#15 = MANIFOLD_SOLID_BREP('',#16);
#16 = CLOSED_SHELL('',(#17,#137,#303,#379,#719,#948,#975,#1098,#1105,
    #1130,#1199,#1247,#1254,#1303,#1329,#1336,#1360));
#17 = ADVANCED_FACE('',(#18),#32,.F.);
#18 = FACE_BOUND('',#19,.F.);
#19 = EDGE_LOOP('',(#20,#55,#83,#111));
#20 = ORIENTED_EDGE('',*,*,#21,.T.);
#21 = EDGE_CURVE('',#22,#24,#26,.T.);
#22 = VERTEX_POINT('',#23);
#23 = CARTESIAN_POINT('',(0.15,85.7,6.));
#24 = VERTEX_POINT('',#25);
#25 = CARTESIAN_POINT('',(0.15,79.7,6.));
#26 = SURFACE_CURVE('',#27,(#31,#43),.PCURVE_S1.);
#27 = LINE('',#28,#29);
#28 = CARTESIAN_POINT('',(0.15,85.7,6.));
#29 = VECTOR('',#30,1.);
#30 = DIRECTION('',(0.,-1.,0.));
#31 = PCURVE('',#32,#37);
#32 = PLANE('',#33);
#33 = AXIS2_PLACEMENT_3D('',#34,#35,#36);
#34 = CARTESIAN_POINT('',(0.15,85.7,6.));
#35 = DIRECTION('',(-0.,0.,1.));
#36 = DIRECTION('',(1.,0.,0.));
#37 = DEFINITIONAL_REPRESENTATION('',(#38),#42);
#38 = LINE('',#39,#40);
#39 = CARTESIAN_POINT('',(0.,0.));
#40 = VECTOR('',#41,1.);
#41 = DIRECTION('',(0.,-1.));
#42 = ( GEOMETRIC_REPRESENTATION_CONTEXT(2) 
PARAMETRIC_REPRESENTATION_CONTEXT() REPRESENTATION_CONTEXT('2D SPACE',''
  ) );
#43 = PCURVE('',#44,#49);
#44 = PLANE('',#45);
#45 = AXIS2_PLACEMENT_3D('',#46,#47,#48);
#46 = CARTESIAN_POINT('',(0.15,85.7,23.));
#47 = DIRECTION('',(1.,0.,0.));
#48 = DIRECTION('',(0.,0.,-1.));
#49 = DEFINITIONAL_REPRESENTATION('',(#50),#54);
#50 = LINE('',#51,#52);
#51 = CARTESIAN_POINT('',(17.,0.));
#52 = VECTOR('',#53,1.);
#53 = DIRECTION('',(0.,-1.));
#54 = ( GEOMETRIC_REPRESENTATION_CONTEXT(2) 
PARAMETRIC_REPRESENTATION_CONTEXT() REPRESENTATION_CONTEXT('2D SPACE',''
  ) );
#55 = ORIENTED_EDGE('',*,*,#56,.T.);
#56 = EDGE_CURVE('',#24,#57,#59,.T.);
#57 = VERTEX_POINT('',#58);
#58 = CARTESIAN_POINT('',(50.,79.7,6.));
#59 = SURFACE_CURVE('',#60,(#64,#71),.PCURVE_S1.);
#60 = LINE('',#61,#62);
#61 = CARTESIAN_POINT('',(0.15,79.7,6.));
#62 = VECTOR('',#63,1.);
#63 = DIRECTION('',(1.,0.,0.));
#64 = PCURVE('',#32,#65);
#65 = DEFINITIONAL_REPRESENTATION('',(#66),#70);
#66 = LINE('',#67,#68);
#67 = CARTESIAN_POINT('',(0.,-6.));
#68 = VECTOR('',#69,1.);
#69 = DIRECTION('',(1.,0.));
#70 = ( GEOMETRIC_REPRESENTATION_CONTEXT(2) 
PARAMETRIC_REPRESENTATION_CONTEXT() REPRESENTATION_CONTEXT('2D SPACE',''
  ) );
#71 = PCURVE('',#72,#77);
#72 = PLANE('',#73);
#73 = AXIS2_PLACEMENT_3D('',#74,#75,#76);
#74 = CARTESIAN_POINT('',(138.30172545362,79.7,15.27327454638));
#75 = DIRECTION('',(-0.,-1.,-0.));
#76 = DIRECTION('',(0.,0.,-1.));
#77 = DEFINITIONAL_REPRESENTATION('',(#78),#82);
#78 = LINE('',#79,#80);
#79 = CARTESIAN_POINT('',(9.27327454638,-138.1517254536));
#80 = VECTOR('',#81,1.);
#81 = DIRECTION('',(0.,1.));
#82 = ( GEOMETRIC_REPRESENTATION_CONTEXT(2) 
PARAMETRIC_REPRESENTATION_CONTEXT() REPRESENTATION_CONTEXT('2D SPACE',''
  ) );
#83 = ORIENTED_EDGE('',*,*,#84,.F.);
#84 = EDGE_CURVE('',#85,#57,#87,.T.);
#85 = VERTEX_POINT('',#86);
#86 = CARTESIAN_POINT('',(50.,85.7,6.));
#87 = SURFACE_CURVE('',#88,(#92,#99),.PCURVE_S1.);
#88 = LINE('',#89,#90);
#89 = CARTESIAN_POINT('',(50.,85.7,6.));
#90 = VECTOR('',#91,1.);
#91 = DIRECTION('',(0.,-1.,0.));
#92 = PCURVE('',#32,#93);
#93 = DEFINITIONAL_REPRESENTATION('',(#94),#98);
#94 = LINE('',#95,#96);
#95 = CARTESIAN_POINT('',(49.85,0.));
#96 = VECTOR('',#97,1.);
#97 = DIRECTION('',(0.,-1.));
#98 = ( GEOMETRIC_REPRESENTATION_CONTEXT(2) 
PARAMETRIC_REPRESENTATION_CONTEXT() REPRESENTATION_CONTEXT('2D SPACE',''
  ) );
#99 = PCURVE('',#100,#105);
#100 = PLANE('',#101);
#101 = AXIS2_PLACEMENT_3D('',#102,#103,#104);
#102 = CARTESIAN_POINT('',(50.,85.7,6.));
#103 = DIRECTION('',(-1.,0.,0.));
#104 = DIRECTION('',(0.,0.,1.));
#105 = DEFINITIONAL_REPRESENTATION('',(#106),#110);
#106 = LINE('',#107,#108);
#107 = CARTESIAN_POINT('',(0.,0.));
#108 = VECTOR('',#109,1.);
#109 = DIRECTION('',(0.,-1.));
#110 = ( GEOMETRIC_REPRESENTATION_CONTEXT(2) 
PARAMETRIC_REPRESENTATION_CONTEXT() REPRESENTATION_CONTEXT('2D SPACE',''
  ) );
#111 = ORIENTED_EDGE('',*,*,#112,.F.);
#112 = EDGE_CURVE('',#22,#85,#113,.T.);
#113 = SURFACE_CURVE('',#114,(#118,#125),.PCURVE_S1.);
#114 = LINE('',#115,#116);
#115 = CARTESIAN_POINT('',(0.15,85.7,6.));
#116 = VECTOR('',#117,1.);
#117 = DIRECTION('',(1.,0.,0.));
#118 = PCURVE('',#32,#119);
#119 = DEFINITIONAL_REPRESENTATION('',(#120),#124);
#120 = LINE('',#121,#122);
#121 = CARTESIAN_POINT('',(0.,0.));
#122 = VECTOR('',#123,1.);
#123 = DIRECTION('',(1.,0.));
#124 = ( GEOMETRIC_REPRESENTATION_CONTEXT(2) 
PARAMETRIC_REPRESENTATION_CONTEXT() REPRESENTATION_CONTEXT('2D SPACE',''
  ) );
#125 = PCURVE('',#126,#131);
#126 = PLANE('',#127);
#127 = AXIS2_PLACEMENT_3D('',#128,#129,#130);
#128 = CARTESIAN_POINT('',(138.30172545362,85.7,15.27327454638));
#129 = DIRECTION('',(-0.,-1.,-0.));
#130 = DIRECTION('',(0.,0.,-1.));
#131 = DEFINITIONAL_REPRESENTATION('',(#132),#136);
#132 = LINE('',#133,#134);
#133 = CARTESIAN_POINT('',(9.27327454638,-138.1517254536));
#134 = VECTOR('',#135,1.);
#135 = DIRECTION('',(0.,1.));
#136 = ( GEOMETRIC_REPRESENTATION_CONTEXT(2) 
PARAMETRIC_REPRESENTATION_CONTEXT() REPRESENTATION_CONTEXT('2D SPACE',''
  ) );
#137 = ADVANCED_FACE('',(#138,#213),#44,.F.);
#138 = FACE_BOUND('',#139,.F.);
#139 = EDGE_LOOP('',(#140,#170,#191,#192));
#140 = ORIENTED_EDGE('',*,*,#141,.T.);
#141 = EDGE_CURVE('',#142,#144,#146,.T.);
#142 = VERTEX_POINT('',#143);
#143 = CARTESIAN_POINT('',(0.15,85.7,23.));
#144 = VERTEX_POINT('',#145);
#145 = CARTESIAN_POINT('',(0.15,79.7,23.));
#146 = SURFACE_CURVE('',#147,(#151,#158),.PCURVE_S1.);
#147 = LINE('',#148,#149);
#148 = CARTESIAN_POINT('',(0.15,85.7,23.));
#149 = VECTOR('',#150,1.);
#150 = DIRECTION('',(0.,-1.,0.));
#151 = PCURVE('',#44,#152);
#152 = DEFINITIONAL_REPRESENTATION('',(#153),#157);
#153 = LINE('',#154,#155);
#154 = CARTESIAN_POINT('',(0.,0.));
#155 = VECTOR('',#156,1.);
#156 = DIRECTION('',(0.,-1.));
#157 = ( GEOMETRIC_REPRESENTATION_CONTEXT(2) 
PARAMETRIC_REPRESENTATION_CONTEXT() REPRESENTATION_CONTEXT('2D SPACE',''
  ) );
#158 = PCURVE('',#159,#164);
#159 = PLANE('',#160);
#160 = AXIS2_PLACEMENT_3D('',#161,#162,#163);
#161 = CARTESIAN_POINT('',(278.,85.7,23.));
#162 = DIRECTION('',(-0.,-0.,-1.));
#163 = DIRECTION('',(-1.,0.,0.));
#164 = DEFINITIONAL_REPRESENTATION('',(#165),#169);
#165 = LINE('',#166,#167);
#166 = CARTESIAN_POINT('',(277.85,0.));
#167 = VECTOR('',#168,1.);
#168 = DIRECTION('',(0.,-1.));
#169 = ( GEOMETRIC_REPRESENTATION_CONTEXT(2) 
PARAMETRIC_REPRESENTATION_CONTEXT() REPRESENTATION_CONTEXT('2D SPACE',''
  ) );
#170 = ORIENTED_EDGE('',*,*,#171,.T.);
#171 = EDGE_CURVE('',#144,#24,#172,.T.);
#172 = SURFACE_CURVE('',#173,(#177,#184),.PCURVE_S1.);
#173 = LINE('',#174,#175);
#174 = CARTESIAN_POINT('',(0.15,79.7,23.));
#175 = VECTOR('',#176,1.);
#176 = DIRECTION('',(0.,0.,-1.));
#177 = PCURVE('',#44,#178);
#178 = DEFINITIONAL_REPRESENTATION('',(#179),#183);
#179 = LINE('',#180,#181);
#180 = CARTESIAN_POINT('',(0.,-6.));
#181 = VECTOR('',#182,1.);
#182 = DIRECTION('',(1.,0.));
#183 = ( GEOMETRIC_REPRESENTATION_CONTEXT(2) 
PARAMETRIC_REPRESENTATION_CONTEXT() REPRESENTATION_CONTEXT('2D SPACE',''
  ) );
#184 = PCURVE('',#72,#185);
#185 = DEFINITIONAL_REPRESENTATION('',(#186),#190);
#186 = LINE('',#187,#188);
#187 = CARTESIAN_POINT('',(-7.72672545362,-138.1517254536));
#188 = VECTOR('',#189,1.);
#189 = DIRECTION('',(1.,0.));
#190 = ( GEOMETRIC_REPRESENTATION_CONTEXT(2) 
PARAMETRIC_REPRESENTATION_CONTEXT() REPRESENTATION_CONTEXT('2D SPACE',''
  ) );
#191 = ORIENTED_EDGE('',*,*,#21,.F.);
#192 = ORIENTED_EDGE('',*,*,#193,.F.);
#193 = EDGE_CURVE('',#142,#22,#194,.T.);
#194 = SURFACE_CURVE('',#195,(#199,#206),.PCURVE_S1.);
#195 = LINE('',#196,#197);
#196 = CARTESIAN_POINT('',(0.15,85.7,23.));
#197 = VECTOR('',#198,1.);
#198 = DIRECTION('',(0.,0.,-1.));
#199 = PCURVE('',#44,#200);
#200 = DEFINITIONAL_REPRESENTATION('',(#201),#205);
#201 = LINE('',#202,#203);
#202 = CARTESIAN_POINT('',(0.,0.));
#203 = VECTOR('',#204,1.);
#204 = DIRECTION('',(1.,0.));
#205 = ( GEOMETRIC_REPRESENTATION_CONTEXT(2) 
PARAMETRIC_REPRESENTATION_CONTEXT() REPRESENTATION_CONTEXT('2D SPACE',''
  ) );
#206 = PCURVE('',#126,#207);
#207 = DEFINITIONAL_REPRESENTATION('',(#208),#212);
#208 = LINE('',#209,#210);
#209 = CARTESIAN_POINT('',(-7.72672545362,-138.1517254536));
#210 = VECTOR('',#211,1.);
#211 = DIRECTION('',(1.,0.));
#212 = ( GEOMETRIC_REPRESENTATION_CONTEXT(2) 
PARAMETRIC_REPRESENTATION_CONTEXT() REPRESENTATION_CONTEXT('2D SPACE',''
  ) );
#213 = FACE_BOUND('',#214,.F.);
#214 = EDGE_LOOP('',(#215,#250,#279));
#215 = ORIENTED_EDGE('',*,*,#216,.F.);
#216 = EDGE_CURVE('',#217,#219,#221,.T.);
#217 = VERTEX_POINT('',#218);
#218 = CARTESIAN_POINT('',(0.15,82.507999200639,19.999250239712));
#219 = VERTEX_POINT('',#220);
#220 = CARTESIAN_POINT('',(0.15,80.192974870604,22.492548274721));
#221 = SURFACE_CURVE('',#222,(#227,#234),.PCURVE_S1.);
#222 = ELLIPSE('',#223,2.502010441625,2.5);
#223 = AXIS2_PLACEMENT_3D('',#224,#225,#226);
#224 = CARTESIAN_POINT('',(0.15,80.006,19.99955));
#225 = DIRECTION('',(1.,0.,0.));
#226 = DIRECTION('',(0.,0.997199309888,-7.478994824163E-02));
#227 = PCURVE('',#44,#228);
#228 = DEFINITIONAL_REPRESENTATION('',(#229),#233);
#229 = ELLIPSE('',#230,2.502010441625,2.5);
#230 = AXIS2_PLACEMENT_2D('',#231,#232);
#231 = CARTESIAN_POINT('',(3.00045,-5.694));
#232 = DIRECTION('',(7.478994824163E-02,0.997199309888));
#233 = ( GEOMETRIC_REPRESENTATION_CONTEXT(2) 
PARAMETRIC_REPRESENTATION_CONTEXT() REPRESENTATION_CONTEXT('2D SPACE',''
  ) );
#234 = PCURVE('',#235,#240);
#235 = CYLINDRICAL_SURFACE('',#236,2.5);
#236 = AXIS2_PLACEMENT_3D('',#237,#238,#239);
#237 = CARTESIAN_POINT('',(0.15,80.006,19.99955));
#238 = DIRECTION('',(0.99919646953,3.996785878122E-02,
    -2.997589408591E-03));
#239 = DIRECTION('',(-3.996803834887E-02,0.999200958722,
    1.355252715607E-20));
#240 = DEFINITIONAL_REPRESENTATION('',(#241),#249);
#241 = B_SPLINE_CURVE_WITH_KNOTS('',6,(#242,#243,#244,#245,#246,#247,
    #248),.UNSPECIFIED.,.F.,.F.,(7,7),(7.479991974954E-02,1.570802309991
    ),.PIECEWISE_BEZIER_KNOTS.);
#242 = CARTESIAN_POINT('',(0.,0.10000044928));
#243 = CARTESIAN_POINT('',(0.249333731707,9.813194050192E-02));
#244 = CARTESIAN_POINT('',(0.498667463414,8.880461572293E-02));
#245 = CARTESIAN_POINT('',(0.748001195121,7.221838648104E-02));
#246 = CARTESIAN_POINT('',(0.997334926827,5.000477486432E-02));
#247 = CARTESIAN_POINT('',(1.246668658534,2.500279994522E-02));
#248 = CARTESIAN_POINT('',(1.496002390241,-5.99999998574E-07));
#249 = ( GEOMETRIC_REPRESENTATION_CONTEXT(2) 
PARAMETRIC_REPRESENTATION_CONTEXT() REPRESENTATION_CONTEXT('2D SPACE',''
  ) );
#250 = ORIENTED_EDGE('',*,*,#251,.F.);
#251 = EDGE_CURVE('',#252,#217,#254,.T.);
#252 = VERTEX_POINT('',#253);
#253 = CARTESIAN_POINT('',(0.15,79.819025129396,17.506551725279));
#254 = SURFACE_CURVE('',#255,(#260,#267),.PCURVE_S1.);
#255 = ELLIPSE('',#256,2.502010441625,2.5);
#256 = AXIS2_PLACEMENT_3D('',#257,#258,#259);
#257 = CARTESIAN_POINT('',(0.15,80.006,19.99955));
#258 = DIRECTION('',(1.,0.,0.));
#259 = DIRECTION('',(0.,0.997199309888,-7.478994824163E-02));
#260 = PCURVE('',#44,#261);
#261 = DEFINITIONAL_REPRESENTATION('',(#262),#266);
#262 = ELLIPSE('',#263,2.502010441625,2.5);
#263 = AXIS2_PLACEMENT_2D('',#264,#265);
#264 = CARTESIAN_POINT('',(3.00045,-5.694));
#265 = DIRECTION('',(7.478994824163E-02,0.997199309888));
#266 = ( GEOMETRIC_REPRESENTATION_CONTEXT(2) 
PARAMETRIC_REPRESENTATION_CONTEXT() REPRESENTATION_CONTEXT('2D SPACE',''
  ) );
#267 = PCURVE('',#235,#268);
#268 = DEFINITIONAL_REPRESENTATION('',(#269),#278);
#269 = B_SPLINE_CURVE_WITH_KNOTS('',7,(#270,#271,#272,#273,#274,#275,
    #276,#277),.UNSPECIFIED.,.F.,.F.,(8,8),(4.712382997189,
    6.357985226929),.PIECEWISE_BEZIER_KNOTS.);
#270 = CARTESIAN_POINT('',(4.637583077439,-5.999999981299E-07));
#271 = CARTESIAN_POINT('',(4.872669110259,2.357402851054E-02));
#272 = CARTESIAN_POINT('',(5.107755143079,4.714855834023E-02));
#273 = CARTESIAN_POINT('',(5.342841175899,6.859607463047E-02));
#274 = CARTESIAN_POINT('',(5.57792720872,8.57844566949E-02));
#275 = CARTESIAN_POINT('',(5.813013241539,9.707610379043E-02));
#276 = CARTESIAN_POINT('',(6.04809927436,0.1017621857));
#277 = CARTESIAN_POINT('',(6.28318530718,0.10000044928));
#278 = ( GEOMETRIC_REPRESENTATION_CONTEXT(2) 
PARAMETRIC_REPRESENTATION_CONTEXT() REPRESENTATION_CONTEXT('2D SPACE',''
  ) );
#279 = ORIENTED_EDGE('',*,*,#280,.T.);
#280 = EDGE_CURVE('',#252,#219,#281,.T.);
#281 = SURFACE_CURVE('',#282,(#286,#292),.PCURVE_S1.);
#282 = LINE('',#283,#284);
#283 = CARTESIAN_POINT('',(0.15,80.13381230578,21.703714077067));
#284 = VECTOR('',#285,1.);
#285 = DIRECTION('',(-0.,7.478994824163E-02,0.997199309888));
#286 = PCURVE('',#44,#287);
#287 = DEFINITIONAL_REPRESENTATION('',(#288),#291);
#288 = B_SPLINE_CURVE_WITH_KNOTS('',1,(#289,#290),.UNSPECIFIED.,.F.,.F.,
  (2,2),(-4.215960443839,0.798059809196),.PIECEWISE_BEZIER_KNOTS.);
#289 = CARTESIAN_POINT('',(5.500438768047,-5.881499157604));
#290 = CARTESIAN_POINT('',(0.500461231953,-5.506500842397));
#291 = ( GEOMETRIC_REPRESENTATION_CONTEXT(2) 
PARAMETRIC_REPRESENTATION_CONTEXT() REPRESENTATION_CONTEXT('2D SPACE',''
  ) );
#292 = PCURVE('',#293,#298);
#293 = PLANE('',#294);
#294 = AXIS2_PLACEMENT_3D('',#295,#296,#297);
#295 = CARTESIAN_POINT('',(0.15,80.006,19.99955));
#296 = DIRECTION('',(0.99919646953,3.996785878122E-02,
    -2.997589408591E-03));
#297 = DIRECTION('',(-3.996803834887E-02,0.999200958722,
    1.355252715607E-20));
#298 = DEFINITIONAL_REPRESENTATION('',(#299),#302);
#299 = B_SPLINE_CURVE_WITH_KNOTS('',1,(#300,#301),.UNSPECIFIED.,.F.,.F.,
  (2,2),(-4.215960443839,0.798059809196),.PIECEWISE_BEZIER_KNOTS.);
#300 = CARTESIAN_POINT('',(-0.187349338037,-2.5));
#301 = CARTESIAN_POINT('',(0.187349338037,2.5));
#302 = ( GEOMETRIC_REPRESENTATION_CONTEXT(2) 
PARAMETRIC_REPRESENTATION_CONTEXT() REPRESENTATION_CONTEXT('2D SPACE',''
  ) );
#303 = ADVANCED_FACE('',(#304),#100,.F.);
#304 = FACE_BOUND('',#305,.F.);
#305 = EDGE_LOOP('',(#306,#307,#330,#358));
#306 = ORIENTED_EDGE('',*,*,#84,.T.);
#307 = ORIENTED_EDGE('',*,*,#308,.T.);
#308 = EDGE_CURVE('',#57,#309,#311,.T.);
#309 = VERTEX_POINT('',#310);
#310 = CARTESIAN_POINT('',(50.,79.7,8.));
#311 = SURFACE_CURVE('',#312,(#316,#323),.PCURVE_S1.);
#312 = LINE('',#313,#314);
#313 = CARTESIAN_POINT('',(50.,79.7,6.));
#314 = VECTOR('',#315,1.);
#315 = DIRECTION('',(0.,0.,1.));
#316 = PCURVE('',#100,#317);
#317 = DEFINITIONAL_REPRESENTATION('',(#318),#322);
#318 = LINE('',#319,#320);
#319 = CARTESIAN_POINT('',(0.,-6.));
#320 = VECTOR('',#321,1.);
#321 = DIRECTION('',(1.,0.));
#322 = ( GEOMETRIC_REPRESENTATION_CONTEXT(2) 
PARAMETRIC_REPRESENTATION_CONTEXT() REPRESENTATION_CONTEXT('2D SPACE',''
  ) );
#323 = PCURVE('',#72,#324);
#324 = DEFINITIONAL_REPRESENTATION('',(#325),#329);
#325 = LINE('',#326,#327);
#326 = CARTESIAN_POINT('',(9.27327454638,-88.30172545362));
#327 = VECTOR('',#328,1.);
#328 = DIRECTION('',(-1.,0.));
#329 = ( GEOMETRIC_REPRESENTATION_CONTEXT(2) 
PARAMETRIC_REPRESENTATION_CONTEXT() REPRESENTATION_CONTEXT('2D SPACE',''
  ) );
#330 = ORIENTED_EDGE('',*,*,#331,.F.);
#331 = EDGE_CURVE('',#332,#309,#334,.T.);
#332 = VERTEX_POINT('',#333);
#333 = CARTESIAN_POINT('',(50.,85.7,8.));
#334 = SURFACE_CURVE('',#335,(#339,#346),.PCURVE_S1.);
#335 = LINE('',#336,#337);
#336 = CARTESIAN_POINT('',(50.,85.7,8.));
#337 = VECTOR('',#338,1.);
#338 = DIRECTION('',(0.,-1.,0.));
#339 = PCURVE('',#100,#340);
#340 = DEFINITIONAL_REPRESENTATION('',(#341),#345);
#341 = LINE('',#342,#343);
#342 = CARTESIAN_POINT('',(2.,0.));
#343 = VECTOR('',#344,1.);
#344 = DIRECTION('',(0.,-1.));
#345 = ( GEOMETRIC_REPRESENTATION_CONTEXT(2) 
PARAMETRIC_REPRESENTATION_CONTEXT() REPRESENTATION_CONTEXT('2D SPACE',''
  ) );
#346 = PCURVE('',#347,#352);
#347 = PLANE('',#348);
#348 = AXIS2_PLACEMENT_3D('',#349,#350,#351);
#349 = CARTESIAN_POINT('',(50.,85.7,8.));
#350 = DIRECTION('',(-0.,0.,1.));
#351 = DIRECTION('',(1.,0.,0.));
#352 = DEFINITIONAL_REPRESENTATION('',(#353),#357);
#353 = LINE('',#354,#355);
#354 = CARTESIAN_POINT('',(0.,0.));
#355 = VECTOR('',#356,1.);
#356 = DIRECTION('',(0.,-1.));
#357 = ( GEOMETRIC_REPRESENTATION_CONTEXT(2) 
PARAMETRIC_REPRESENTATION_CONTEXT() REPRESENTATION_CONTEXT('2D SPACE',''
  ) );
#358 = ORIENTED_EDGE('',*,*,#359,.F.);
#359 = EDGE_CURVE('',#85,#332,#360,.T.);
#360 = SURFACE_CURVE('',#361,(#365,#372),.PCURVE_S1.);
#361 = LINE('',#362,#363);
#362 = CARTESIAN_POINT('',(50.,85.7,6.));
#363 = VECTOR('',#364,1.);
#364 = DIRECTION('',(0.,0.,1.));
#365 = PCURVE('',#100,#366);
#366 = DEFINITIONAL_REPRESENTATION('',(#367),#371);
#367 = LINE('',#368,#369);
#368 = CARTESIAN_POINT('',(0.,0.));
#369 = VECTOR('',#370,1.);
#370 = DIRECTION('',(1.,0.));
#371 = ( GEOMETRIC_REPRESENTATION_CONTEXT(2) 
PARAMETRIC_REPRESENTATION_CONTEXT() REPRESENTATION_CONTEXT('2D SPACE',''
  ) );
#372 = PCURVE('',#126,#373);
#373 = DEFINITIONAL_REPRESENTATION('',(#374),#378);
#374 = LINE('',#375,#376);
#375 = CARTESIAN_POINT('',(9.27327454638,-88.30172545362));
#376 = VECTOR('',#377,1.);
#377 = DIRECTION('',(-1.,0.));
#378 = ( GEOMETRIC_REPRESENTATION_CONTEXT(2) 
PARAMETRIC_REPRESENTATION_CONTEXT() REPRESENTATION_CONTEXT('2D SPACE',''
  ) );
#379 = ADVANCED_FACE('',(#380,#509),#126,.F.);
#380 = FACE_BOUND('',#381,.F.);
#381 = EDGE_LOOP('',(#382,#383,#384,#385,#408,#434,#460,#488));
#382 = ORIENTED_EDGE('',*,*,#193,.T.);
#383 = ORIENTED_EDGE('',*,*,#112,.T.);
#384 = ORIENTED_EDGE('',*,*,#359,.T.);
#385 = ORIENTED_EDGE('',*,*,#386,.T.);
#386 = EDGE_CURVE('',#332,#387,#389,.T.);
#387 = VERTEX_POINT('',#388);
#388 = CARTESIAN_POINT('',(99.8952,85.7,8.));
#389 = SURFACE_CURVE('',#390,(#394,#401),.PCURVE_S1.);
#390 = LINE('',#391,#392);
#391 = CARTESIAN_POINT('',(50.,85.7,8.));
#392 = VECTOR('',#393,1.);
#393 = DIRECTION('',(1.,0.,0.));
#394 = PCURVE('',#126,#395);
#395 = DEFINITIONAL_REPRESENTATION('',(#396),#400);
#396 = LINE('',#397,#398);
#397 = CARTESIAN_POINT('',(7.27327454638,-88.30172545362));
#398 = VECTOR('',#399,1.);
#399 = DIRECTION('',(0.,1.));
#400 = ( GEOMETRIC_REPRESENTATION_CONTEXT(2) 
PARAMETRIC_REPRESENTATION_CONTEXT() REPRESENTATION_CONTEXT('2D SPACE',''
  ) );
#401 = PCURVE('',#347,#402);
#402 = DEFINITIONAL_REPRESENTATION('',(#403),#407);
#403 = LINE('',#404,#405);
#404 = CARTESIAN_POINT('',(0.,0.));
#405 = VECTOR('',#406,1.);
#406 = DIRECTION('',(1.,0.));
#407 = ( GEOMETRIC_REPRESENTATION_CONTEXT(2) 
PARAMETRIC_REPRESENTATION_CONTEXT() REPRESENTATION_CONTEXT('2D SPACE',''
  ) );
#408 = ORIENTED_EDGE('',*,*,#409,.T.);
#409 = EDGE_CURVE('',#387,#410,#412,.T.);
#410 = VERTEX_POINT('',#411);
#411 = CARTESIAN_POINT('',(99.892001277894,85.7,8.399840263246));
#412 = SURFACE_CURVE('',#413,(#417,#423),.PCURVE_S1.);
#413 = LINE('',#414,#415);
#414 = CARTESIAN_POINT('',(99.885727080724,85.7,9.184114909555));
#415 = VECTOR('',#416,1.);
#416 = DIRECTION('',(-7.999744012287E-03,0.,0.999968001536));
#417 = PCURVE('',#126,#418);
#418 = DEFINITIONAL_REPRESENTATION('',(#419),#422);
#419 = B_SPLINE_CURVE_WITH_KNOTS('',1,(#420,#421),.UNSPECIFIED.,.F.,.F.,
  (2,2),(-3.184216799602,-0.784299742696),.PIECEWISE_BEZIER_KNOTS.);
#420 = CARTESIAN_POINT('',(9.27327454638,-38.39052545362));
#421 = CARTESIAN_POINT('',(6.873434283133,-38.40972417572));
#422 = ( GEOMETRIC_REPRESENTATION_CONTEXT(2) 
PARAMETRIC_REPRESENTATION_CONTEXT() REPRESENTATION_CONTEXT('2D SPACE',''
  ) );
#423 = PCURVE('',#424,#429);
#424 = PLANE('',#425);
#425 = AXIS2_PLACEMENT_3D('',#426,#427,#428);
#426 = CARTESIAN_POINT('',(99.600319616511,93.992009587218,3.4));
#427 = DIRECTION('',(0.999169036898,3.996676147593E-02,
    7.993352295186E-03));
#428 = DIRECTION('',(3.996803834887E-02,-0.999200958722,
    5.421010862428E-20));
#429 = DEFINITIONAL_REPRESENTATION('',(#430),#433);
#430 = B_SPLINE_CURVE_WITH_KNOTS('',1,(#431,#432),.UNSPECIFIED.,.F.,.F.,
  (2,2),(-3.184216799602,-0.784299742696),.PIECEWISE_BEZIER_KNOTS.);
#431 = CARTESIAN_POINT('',(8.297809208368,-2.600083065766));
#432 = CARTESIAN_POINT('',(8.297041873106,-5.));
#433 = ( GEOMETRIC_REPRESENTATION_CONTEXT(2) 
PARAMETRIC_REPRESENTATION_CONTEXT() REPRESENTATION_CONTEXT('2D SPACE',''
  ) );
#434 = ORIENTED_EDGE('',*,*,#435,.F.);
#435 = EDGE_CURVE('',#436,#410,#438,.T.);
#436 = VERTEX_POINT('',#437);
#437 = CARTESIAN_POINT('',(278.,85.7,9.822428112464));
#438 = SURFACE_CURVE('',#439,(#443,#449),.PCURVE_S1.);
#439 = LINE('',#440,#441);
#440 = CARTESIAN_POINT('',(343.95625642684,85.7,10.349235272423));
#441 = VECTOR('',#442,1.);
#442 = DIRECTION('',(-0.999968103681,0.,-7.986965684352E-03));
#443 = PCURVE('',#126,#444);
#444 = DEFINITIONAL_REPRESENTATION('',(#445),#448);
#445 = B_SPLINE_CURVE_WITH_KNOTS('',1,(#446,#447),.UNSPECIFIED.,.F.,.F.,
  (2,2),(65.958360255749,244.40364605904),.PIECEWISE_BEZIER_KNOTS.);
#446 = CARTESIAN_POINT('',(5.450846433915,139.69827454638));
#447 = CARTESIAN_POINT('',(6.876082808161,-38.74131950914));
#448 = ( GEOMETRIC_REPRESENTATION_CONTEXT(2) 
PARAMETRIC_REPRESENTATION_CONTEXT() REPRESENTATION_CONTEXT('2D SPACE',''
  ) );
#449 = PCURVE('',#450,#455);
#450 = PLANE('',#451);
#451 = AXIS2_PLACEMENT_3D('',#452,#453,#454);
#452 = CARTESIAN_POINT('',(549.55829993885,101.98233199755,
    11.996626141368));
#453 = DIRECTION('',(-7.986965276751E-03,-3.1947861107E-04,
    0.999968052649));
#454 = DIRECTION('',(0.999968103681,0.,7.986965684352E-03));
#455 = DEFINITIONAL_REPRESENTATION('',(#456),#459);
#456 = B_SPLINE_CURVE_WITH_KNOTS('',1,(#457,#458),.UNSPECIFIED.,.F.,.F.,
  (2,2),(65.958360255749,244.40364605904),.PIECEWISE_BEZIER_KNOTS.);
#457 = CARTESIAN_POINT('',(-271.5670034737,-16.28233282849));
#458 = CARTESIAN_POINT('',(-450.012289277,-16.28233282849));
#459 = ( GEOMETRIC_REPRESENTATION_CONTEXT(2) 
PARAMETRIC_REPRESENTATION_CONTEXT() REPRESENTATION_CONTEXT('2D SPACE',''
  ) );
#460 = ORIENTED_EDGE('',*,*,#461,.T.);
#461 = EDGE_CURVE('',#436,#462,#464,.T.);
#462 = VERTEX_POINT('',#463);
#463 = CARTESIAN_POINT('',(278.,85.7,23.));
#464 = SURFACE_CURVE('',#465,(#469,#476),.PCURVE_S1.);
#465 = LINE('',#466,#467);
#466 = CARTESIAN_POINT('',(278.,85.7,8.));
#467 = VECTOR('',#468,1.);
#468 = DIRECTION('',(0.,0.,1.));
#469 = PCURVE('',#126,#470);
#470 = DEFINITIONAL_REPRESENTATION('',(#471),#475);
#471 = LINE('',#472,#473);
#472 = CARTESIAN_POINT('',(7.27327454638,139.69827454638));
#473 = VECTOR('',#474,1.);
#474 = DIRECTION('',(-1.,0.));
#475 = ( GEOMETRIC_REPRESENTATION_CONTEXT(2) 
PARAMETRIC_REPRESENTATION_CONTEXT() REPRESENTATION_CONTEXT('2D SPACE',''
  ) );
#476 = PCURVE('',#477,#482);
#477 = PLANE('',#478);
#478 = AXIS2_PLACEMENT_3D('',#479,#480,#481);
#479 = CARTESIAN_POINT('',(278.,85.7,8.));
#480 = DIRECTION('',(-1.,0.,0.));
#481 = DIRECTION('',(0.,0.,1.));
#482 = DEFINITIONAL_REPRESENTATION('',(#483),#487);
#483 = LINE('',#484,#485);
#484 = CARTESIAN_POINT('',(0.,0.));
#485 = VECTOR('',#486,1.);
#486 = DIRECTION('',(1.,0.));
#487 = ( GEOMETRIC_REPRESENTATION_CONTEXT(2) 
PARAMETRIC_REPRESENTATION_CONTEXT() REPRESENTATION_CONTEXT('2D SPACE',''
  ) );
#488 = ORIENTED_EDGE('',*,*,#489,.T.);
#489 = EDGE_CURVE('',#462,#142,#490,.T.);
#490 = SURFACE_CURVE('',#491,(#495,#502),.PCURVE_S1.);
#491 = LINE('',#492,#493);
#492 = CARTESIAN_POINT('',(278.,85.7,23.));
#493 = VECTOR('',#494,1.);
#494 = DIRECTION('',(-1.,0.,0.));
#495 = PCURVE('',#126,#496);
#496 = DEFINITIONAL_REPRESENTATION('',(#497),#501);
#497 = LINE('',#498,#499);
#498 = CARTESIAN_POINT('',(-7.72672545362,139.69827454638));
#499 = VECTOR('',#500,1.);
#500 = DIRECTION('',(0.,-1.));
#501 = ( GEOMETRIC_REPRESENTATION_CONTEXT(2) 
PARAMETRIC_REPRESENTATION_CONTEXT() REPRESENTATION_CONTEXT('2D SPACE',''
  ) );
#502 = PCURVE('',#159,#503);
#503 = DEFINITIONAL_REPRESENTATION('',(#504),#508);
#504 = LINE('',#505,#506);
#505 = CARTESIAN_POINT('',(0.,0.));
#506 = VECTOR('',#507,1.);
#507 = DIRECTION('',(1.,0.));
#508 = ( GEOMETRIC_REPRESENTATION_CONTEXT(2) 
PARAMETRIC_REPRESENTATION_CONTEXT() REPRESENTATION_CONTEXT('2D SPACE',''
  ) );
#509 = FACE_BOUND('',#510,.F.);
#510 = EDGE_LOOP('',(#511,#578,#643,#669,#695));
#511 = ORIENTED_EDGE('',*,*,#512,.F.);
#512 = EDGE_CURVE('',#513,#515,#517,.T.);
#513 = VERTEX_POINT('',#514);
#514 = CARTESIAN_POINT('',(79.950019984016,85.7,19.75985017976));
#515 = VERTEX_POINT('',#516);
#516 = CARTESIAN_POINT('',(99.832000000001,85.7,17.872243161309));
#517 = SURFACE_CURVE('',#518,(#523,#530),.PCURVE_S1.);
#518 = ELLIPSE('',#519,62.550261040622,2.5);
#519 = AXIS2_PLACEMENT_3D('',#520,#521,#522);
#520 = CARTESIAN_POINT('',(142.5,85.7,19.5725));
#521 = DIRECTION('',(0.,-1.,-0.));
#522 = DIRECTION('',(0.99999550003,0.,-2.999986500091E-03));
#523 = PCURVE('',#126,#524);
#524 = DEFINITIONAL_REPRESENTATION('',(#525),#529);
#525 = ELLIPSE('',#526,62.550261040622,2.5);
#526 = AXIS2_PLACEMENT_2D('',#527,#528);
#527 = CARTESIAN_POINT('',(-4.29922545362,4.198274546379));
#528 = DIRECTION('',(2.999986500091E-03,0.99999550003));
#529 = ( GEOMETRIC_REPRESENTATION_CONTEXT(2) 
PARAMETRIC_REPRESENTATION_CONTEXT() REPRESENTATION_CONTEXT('2D SPACE',''
  ) );
#530 = PCURVE('',#235,#531);
#531 = DEFINITIONAL_REPRESENTATION('',(#532),#577);
#532 = B_SPLINE_CURVE_WITH_KNOTS('',8,(#533,#534,#535,#536,#537,#538,
    #539,#540,#541,#542,#543,#544,#545,#546,#547,#548,#549,#550,#551,
    #552,#553,#554,#555,#556,#557,#558,#559,#560,#561,#562,#563,#564,
    #565,#566,#567,#568,#569,#570,#571,#572,#573,#574,#575,#576),
  .UNSPECIFIED.,.F.,.F.,(9,7,7,7,7,7,9),(3.141712557166,3.927110720563,
    5.301557506509,6.332392595968,7.105518913062,8.265208388704,
    9.424897864345),.UNSPECIFIED.);
#533 = CARTESIAN_POINT('',(6.28318530718,79.964193746033));
#534 = CARTESIAN_POINT('',(6.185010536755,79.964929468469));
#535 = CARTESIAN_POINT('',(6.08683576633,80.654117490614));
#536 = CARTESIAN_POINT('',(5.988660995905,82.031745377238));
#537 = CARTESIAN_POINT('',(5.890486225481,84.083651419362));
#538 = CARTESIAN_POINT('',(5.792311455056,86.78150561936));
#539 = CARTESIAN_POINT('',(5.694136684631,90.083567019708));
#540 = CARTESIAN_POINT('',(5.595961914207,93.936108632845));
#541 = CARTESIAN_POINT('',(5.325981295539,105.86916327397));
#542 = CARTESIAN_POINT('',(5.154175447297,114.95360066465));
#543 = CARTESIAN_POINT('',(4.982369599054,125.18714551365));
#544 = CARTESIAN_POINT('',(4.810563750816,136.13441811944));
#545 = CARTESIAN_POINT('',(4.638757902564,147.29825833771));
#546 = CARTESIAN_POINT('',(4.466952054324,158.16736676954));
#547 = CARTESIAN_POINT('',(4.29514620608,168.26646746831));
#548 = CARTESIAN_POINT('',(3.994485971654,183.88965141698));
#549 = CARTESIAN_POINT('',(3.865631585473,189.92629594405));
#550 = CARTESIAN_POINT('',(3.736777199277,195.13453104079));
#551 = CARTESIAN_POINT('',(3.607922813125,199.36829761753));
#552 = CARTESIAN_POINT('',(3.47906842692,202.51387257815));
#553 = CARTESIAN_POINT('',(3.350214040746,204.49682817829));
#554 = CARTESIAN_POINT('',(3.22135965456,205.28523112127));
#555 = CARTESIAN_POINT('',(2.995864478741,204.5920074468));
#556 = CARTESIAN_POINT('',(2.899223689104,203.62861284955));
#557 = CARTESIAN_POINT('',(2.802582899466,202.00314905721));
#558 = CARTESIAN_POINT('',(2.70594210983,199.73311544056));
#559 = CARTESIAN_POINT('',(2.609301320194,196.84917163458));
#560 = CARTESIAN_POINT('',(2.512660530556,193.39432438989));
#561 = CARTESIAN_POINT('',(2.41601974092,189.42251825516));
#562 = CARTESIAN_POINT('',(2.174417766828,178.35806637919));
#563 = CARTESIAN_POINT('',(2.029456582372,170.69795160987));
#564 = CARTESIAN_POINT('',(1.884495397918,162.22897852739));
#565 = CARTESIAN_POINT('',(1.739534213462,153.20948520454));
#566 = CARTESIAN_POINT('',(1.594573029007,143.92939428863));
#567 = CARTESIAN_POINT('',(1.449611844553,134.69054250555));
#568 = CARTESIAN_POINT('',(1.304650660097,125.78576357071));
#569 = CARTESIAN_POINT('',(1.014728291186,109.17619691286));
#570 = CARTESIAN_POINT('',(0.869767106735,101.4714097527));
#571 = CARTESIAN_POINT('',(0.724805922276,94.632547144778));
#572 = CARTESIAN_POINT('',(0.579844737843,88.898632591066));
#573 = CARTESIAN_POINT('',(0.434883553363,84.463934315951));
#574 = CARTESIAN_POINT('',(0.289922368919,81.463009727842));
#575 = CARTESIAN_POINT('',(0.144961184455,79.963107405875));
#576 = CARTESIAN_POINT('',(5.329070518201E-15,79.964193746033));
#577 = ( GEOMETRIC_REPRESENTATION_CONTEXT(2) 
PARAMETRIC_REPRESENTATION_CONTEXT() REPRESENTATION_CONTEXT('2D SPACE',''
  ) );
#578 = ORIENTED_EDGE('',*,*,#579,.F.);
#579 = EDGE_CURVE('',#580,#513,#582,.T.);
#580 = VERTEX_POINT('',#581);
#581 = CARTESIAN_POINT('',(205.,85.7,19.285378975974));
#582 = SURFACE_CURVE('',#583,(#588,#595),.PCURVE_S1.);
#583 = ELLIPSE('',#584,62.550261040622,2.5);
#584 = AXIS2_PLACEMENT_3D('',#585,#586,#587);
#585 = CARTESIAN_POINT('',(142.5,85.7,19.5725));
#586 = DIRECTION('',(0.,-1.,-0.));
#587 = DIRECTION('',(0.99999550003,0.,-2.999986500091E-03));
#588 = PCURVE('',#126,#589);
#589 = DEFINITIONAL_REPRESENTATION('',(#590),#594);
#590 = ELLIPSE('',#591,62.550261040622,2.5);
#591 = AXIS2_PLACEMENT_2D('',#592,#593);
#592 = CARTESIAN_POINT('',(-4.29922545362,4.198274546379));
#593 = DIRECTION('',(2.999986500091E-03,0.99999550003));
#594 = ( GEOMETRIC_REPRESENTATION_CONTEXT(2) 
PARAMETRIC_REPRESENTATION_CONTEXT() REPRESENTATION_CONTEXT('2D SPACE',''
  ) );
#595 = PCURVE('',#235,#596);
#596 = DEFINITIONAL_REPRESENTATION('',(#597),#642);
#597 = B_SPLINE_CURVE_WITH_KNOTS('',8,(#598,#599,#600,#601,#602,#603,
    #604,#605,#606,#607,#608,#609,#610,#611,#612,#613,#614,#615,#616,
    #617,#618,#619,#620,#621,#622,#623,#624,#625,#626,#627,#628,#629,
    #630,#631,#632,#633,#634,#635,#636,#637,#638,#639,#640,#641),
  .UNSPECIFIED.,.F.,.F.,(9,7,7,7,7,7,9),(3.141712557166,3.927110720563,
    5.301557506509,6.332392595968,7.105518913062,8.265208388704,
    9.424897864345),.UNSPECIFIED.);
#598 = CARTESIAN_POINT('',(6.28318530718,79.964193746033));
#599 = CARTESIAN_POINT('',(6.185010536755,79.964929468469));
#600 = CARTESIAN_POINT('',(6.08683576633,80.654117490614));
#601 = CARTESIAN_POINT('',(5.988660995905,82.031745377238));
#602 = CARTESIAN_POINT('',(5.890486225481,84.083651419362));
#603 = CARTESIAN_POINT('',(5.792311455056,86.78150561936));
#604 = CARTESIAN_POINT('',(5.694136684631,90.083567019708));
#605 = CARTESIAN_POINT('',(5.595961914207,93.936108632845));
#606 = CARTESIAN_POINT('',(5.325981295539,105.86916327397));
#607 = CARTESIAN_POINT('',(5.154175447297,114.95360066465));
#608 = CARTESIAN_POINT('',(4.982369599054,125.18714551365));
#609 = CARTESIAN_POINT('',(4.810563750816,136.13441811944));
#610 = CARTESIAN_POINT('',(4.638757902564,147.29825833771));
#611 = CARTESIAN_POINT('',(4.466952054324,158.16736676954));
#612 = CARTESIAN_POINT('',(4.29514620608,168.26646746831));
#613 = CARTESIAN_POINT('',(3.994485971654,183.88965141698));
#614 = CARTESIAN_POINT('',(3.865631585473,189.92629594405));
#615 = CARTESIAN_POINT('',(3.736777199277,195.13453104079));
#616 = CARTESIAN_POINT('',(3.607922813125,199.36829761753));
#617 = CARTESIAN_POINT('',(3.47906842692,202.51387257815));
#618 = CARTESIAN_POINT('',(3.350214040746,204.49682817829));
#619 = CARTESIAN_POINT('',(3.22135965456,205.28523112127));
#620 = CARTESIAN_POINT('',(2.995864478741,204.5920074468));
#621 = CARTESIAN_POINT('',(2.899223689104,203.62861284955));
#622 = CARTESIAN_POINT('',(2.802582899466,202.00314905721));
#623 = CARTESIAN_POINT('',(2.70594210983,199.73311544056));
#624 = CARTESIAN_POINT('',(2.609301320194,196.84917163458));
#625 = CARTESIAN_POINT('',(2.512660530556,193.39432438989));
#626 = CARTESIAN_POINT('',(2.41601974092,189.42251825516));
#627 = CARTESIAN_POINT('',(2.174417766828,178.35806637919));
#628 = CARTESIAN_POINT('',(2.029456582372,170.69795160987));
#629 = CARTESIAN_POINT('',(1.884495397918,162.22897852739));
#630 = CARTESIAN_POINT('',(1.739534213462,153.20948520454));
#631 = CARTESIAN_POINT('',(1.594573029007,143.92939428863));
#632 = CARTESIAN_POINT('',(1.449611844553,134.69054250555));
#633 = CARTESIAN_POINT('',(1.304650660097,125.78576357071));
#634 = CARTESIAN_POINT('',(1.014728291186,109.17619691286));
#635 = CARTESIAN_POINT('',(0.869767106735,101.4714097527));
#636 = CARTESIAN_POINT('',(0.724805922276,94.632547144778));
#637 = CARTESIAN_POINT('',(0.579844737843,88.898632591066));
#638 = CARTESIAN_POINT('',(0.434883553363,84.463934315951));
#639 = CARTESIAN_POINT('',(0.289922368919,81.463009727842));
#640 = CARTESIAN_POINT('',(0.144961184455,79.963107405875));
#641 = CARTESIAN_POINT('',(5.329070518201E-15,79.964193746033));
#642 = ( GEOMETRIC_REPRESENTATION_CONTEXT(2) 
PARAMETRIC_REPRESENTATION_CONTEXT() REPRESENTATION_CONTEXT('2D SPACE',''
  ) );
#643 = ORIENTED_EDGE('',*,*,#644,.F.);
#644 = EDGE_CURVE('',#645,#580,#647,.T.);
#645 = VERTEX_POINT('',#646);
#646 = CARTESIAN_POINT('',(205.,85.7,9.24));
#647 = SURFACE_CURVE('',#648,(#652,#658),.PCURVE_S1.);
#648 = LINE('',#649,#650);
#649 = CARTESIAN_POINT('',(204.99999999998,85.699999999999,
    15.15888952062));
#650 = VECTOR('',#651,1.);
#651 = DIRECTION('',(5.238008222746E-15,-0.,1.));
#652 = PCURVE('',#126,#653);
#653 = DEFINITIONAL_REPRESENTATION('',(#654),#657);
#654 = B_SPLINE_CURVE_WITH_KNOTS('',1,(#655,#656),.UNSPECIFIED.,.F.,.F.,
  (2,2),(-6.75888952062,4.441489455354),.PIECEWISE_BEZIER_KNOTS.);
#655 = CARTESIAN_POINT('',(6.87327454638,66.698274546369));
#656 = CARTESIAN_POINT('',(-4.327104429594,66.698274546369));
#657 = ( GEOMETRIC_REPRESENTATION_CONTEXT(2) 
PARAMETRIC_REPRESENTATION_CONTEXT() REPRESENTATION_CONTEXT('2D SPACE',''
  ) );
#658 = PCURVE('',#659,#664);
#659 = PLANE('',#660);
#660 = AXIS2_PLACEMENT_3D('',#661,#662,#663);
#661 = CARTESIAN_POINT('',(497.82058007797,97.412823203119,
    15.044504494858));
#662 = DIRECTION('',(3.996803834887E-02,-0.999200958722,
    -2.093529135184E-16));
#663 = DIRECTION('',(-0.999200958722,-3.996803834887E-02,0.));
#664 = DEFINITIONAL_REPRESENTATION('',(#665),#668);
#665 = B_SPLINE_CURVE_WITH_KNOTS('',1,(#666,#667),.UNSPECIFIED.,.F.,.F.,
  (2,2),(-6.75888952062,4.441489455354),.PIECEWISE_BEZIER_KNOTS.);
#666 = CARTESIAN_POINT('',(293.05474291434,6.644504494858));
#667 = CARTESIAN_POINT('',(293.05474291434,-4.555874481115));
#668 = ( GEOMETRIC_REPRESENTATION_CONTEXT(2) 
PARAMETRIC_REPRESENTATION_CONTEXT() REPRESENTATION_CONTEXT('2D SPACE',''
  ) );
#669 = ORIENTED_EDGE('',*,*,#670,.F.);
#670 = EDGE_CURVE('',#671,#645,#673,.T.);
#671 = VERTEX_POINT('',#672);
#672 = CARTESIAN_POINT('',(99.832,85.7,8.4));
#673 = SURFACE_CURVE('',#674,(#678,#684),.PCURVE_S1.);
#674 = LINE('',#675,#676);
#675 = CARTESIAN_POINT('',(119.17707777371,85.7,8.554513400749));
#676 = VECTOR('',#677,1.);
#677 = DIRECTION('',(0.999968103681,-0.,7.986965684352E-03));
#678 = PCURVE('',#126,#679);
#679 = DEFINITIONAL_REPRESENTATION('',(#680),#683);
#680 = B_SPLINE_CURVE_WITH_KNOTS('',1,(#681,#682),.UNSPECIFIED.,.F.,.F.,
  (2,2),(-19.34569483017,85.825659748916),.PIECEWISE_BEZIER_KNOTS.);
#681 = CARTESIAN_POINT('',(6.87327454638,-38.46972545362));
#682 = CARTESIAN_POINT('',(6.03327454638,66.69827454638));
#683 = ( GEOMETRIC_REPRESENTATION_CONTEXT(2) 
PARAMETRIC_REPRESENTATION_CONTEXT() REPRESENTATION_CONTEXT('2D SPACE',''
  ) );
#684 = PCURVE('',#685,#690);
#685 = PLANE('',#686);
#686 = AXIS2_PLACEMENT_3D('',#687,#688,#689);
#687 = CARTESIAN_POINT('',(100.,81.5,8.4));
#688 = DIRECTION('',(7.986965276751E-03,3.1947861107E-04,-0.999968052649
    ));
#689 = DIRECTION('',(0.999169036898,3.996676147593E-02,
    7.993352295186E-03));
#690 = DEFINITIONAL_REPRESENTATION('',(#691),#694);
#691 = B_SPLINE_CURVE_WITH_KNOTS('',1,(#692,#693),.UNSPECIFIED.,.F.,.F.,
  (2,2),(-19.34569483017,85.825659748916),.PIECEWISE_BEZIER_KNOTS.);
#692 = CARTESIAN_POINT('',(0.,-4.203358657074));
#693 = CARTESIAN_POINT('',(105.08732368844,1.42108547152E-14));
#694 = ( GEOMETRIC_REPRESENTATION_CONTEXT(2) 
PARAMETRIC_REPRESENTATION_CONTEXT() REPRESENTATION_CONTEXT('2D SPACE',''
  ) );
#695 = ORIENTED_EDGE('',*,*,#696,.F.);
#696 = EDGE_CURVE('',#515,#671,#697,.T.);
#697 = SURFACE_CURVE('',#698,(#702,#708),.PCURVE_S1.);
#698 = LINE('',#699,#700);
#699 = CARTESIAN_POINT('',(99.832,85.7,17.48663727319));
#700 = VECTOR('',#701,1.);
#701 = DIRECTION('',(0.,0.,-1.));
#702 = PCURVE('',#126,#703);
#703 = DEFINITIONAL_REPRESENTATION('',(#704),#707);
#704 = B_SPLINE_CURVE_WITH_KNOTS('',1,(#705,#706),.UNSPECIFIED.,.F.,.F.,
  (2,2),(-2.21336272681,9.08663727319),.PIECEWISE_BEZIER_KNOTS.);
#705 = CARTESIAN_POINT('',(-4.42672545362,-38.46972545362));
#706 = CARTESIAN_POINT('',(6.87327454638,-38.46972545362));
#707 = ( GEOMETRIC_REPRESENTATION_CONTEXT(2) 
PARAMETRIC_REPRESENTATION_CONTEXT() REPRESENTATION_CONTEXT('2D SPACE',''
  ) );
#708 = PCURVE('',#709,#714);
#709 = PLANE('',#710);
#710 = AXIS2_PLACEMENT_3D('',#711,#712,#713);
#711 = CARTESIAN_POINT('',(100.,81.5,19.7));
#712 = DIRECTION('',(-0.999200958722,-3.996803834887E-02,-0.));
#713 = DIRECTION('',(0.,0.,-1.));
#714 = DEFINITIONAL_REPRESENTATION('',(#715),#718);
#715 = B_SPLINE_CURVE_WITH_KNOTS('',1,(#716,#717),.UNSPECIFIED.,.F.,.F.,
  (2,2),(-2.21336272681,9.08663727319),.PIECEWISE_BEZIER_KNOTS.);
#716 = CARTESIAN_POINT('',(-4.440892098501E-16,-4.203358657074));
#717 = CARTESIAN_POINT('',(11.3,-4.203358657074));
#718 = ( GEOMETRIC_REPRESENTATION_CONTEXT(2) 
PARAMETRIC_REPRESENTATION_CONTEXT() REPRESENTATION_CONTEXT('2D SPACE',''
  ) );
#719 = ADVANCED_FACE('',(#720,#888),#72,.T.);
#720 = FACE_BOUND('',#721,.T.);
#721 = EDGE_LOOP('',(#722,#723,#724,#725,#748,#769,#790,#816,#844,#867)
  );
#722 = ORIENTED_EDGE('',*,*,#171,.T.);
#723 = ORIENTED_EDGE('',*,*,#56,.T.);
#724 = ORIENTED_EDGE('',*,*,#308,.T.);
#725 = ORIENTED_EDGE('',*,*,#726,.T.);
#726 = EDGE_CURVE('',#309,#727,#729,.T.);
#727 = VERTEX_POINT('',#728);
#728 = CARTESIAN_POINT('',(100.1352,79.7,8.));
#729 = SURFACE_CURVE('',#730,(#734,#741),.PCURVE_S1.);
#730 = LINE('',#731,#732);
#731 = CARTESIAN_POINT('',(50.,79.7,8.));
#732 = VECTOR('',#733,1.);
#733 = DIRECTION('',(1.,0.,0.));
#734 = PCURVE('',#72,#735);
#735 = DEFINITIONAL_REPRESENTATION('',(#736),#740);
#736 = LINE('',#737,#738);
#737 = CARTESIAN_POINT('',(7.27327454638,-88.30172545362));
#738 = VECTOR('',#739,1.);
#739 = DIRECTION('',(0.,1.));
#740 = ( GEOMETRIC_REPRESENTATION_CONTEXT(2) 
PARAMETRIC_REPRESENTATION_CONTEXT() REPRESENTATION_CONTEXT('2D SPACE',''
  ) );
#741 = PCURVE('',#347,#742);
#742 = DEFINITIONAL_REPRESENTATION('',(#743),#747);
#743 = LINE('',#744,#745);
#744 = CARTESIAN_POINT('',(0.,-6.));
#745 = VECTOR('',#746,1.);
#746 = DIRECTION('',(1.,0.));
#747 = ( GEOMETRIC_REPRESENTATION_CONTEXT(2) 
PARAMETRIC_REPRESENTATION_CONTEXT() REPRESENTATION_CONTEXT('2D SPACE',''
  ) );
#748 = ORIENTED_EDGE('',*,*,#749,.T.);
#749 = EDGE_CURVE('',#727,#750,#752,.T.);
#750 = VERTEX_POINT('',#751);
#751 = CARTESIAN_POINT('',(100.13200127789,79.7,8.399840263246));
#752 = SURFACE_CURVE('',#753,(#757,#763),.PCURVE_S1.);
#753 = LINE('',#754,#755);
#754 = CARTESIAN_POINT('',(100.1257117217,79.7,9.186034786683));
#755 = VECTOR('',#756,1.);
#756 = DIRECTION('',(-7.999744012287E-03,0.,0.999968001536));
#757 = PCURVE('',#72,#758);
#758 = DEFINITIONAL_REPRESENTATION('',(#759),#762);
#759 = B_SPLINE_CURVE_WITH_KNOTS('',1,(#760,#761),.UNSPECIFIED.,.F.,.F.,
  (2,2),(-3.186136738165,-0.786219681259),.PIECEWISE_BEZIER_KNOTS.);
#760 = CARTESIAN_POINT('',(9.27327454638,-38.15052545362));
#761 = CARTESIAN_POINT('',(6.873434283133,-38.16972417572));
#762 = ( GEOMETRIC_REPRESENTATION_CONTEXT(2) 
PARAMETRIC_REPRESENTATION_CONTEXT() REPRESENTATION_CONTEXT('2D SPACE',''
  ) );
#763 = PCURVE('',#424,#764);
#764 = DEFINITIONAL_REPRESENTATION('',(#765),#768);
#765 = B_SPLINE_CURVE_WITH_KNOTS('',1,(#766,#767),.UNSPECIFIED.,.F.,.F.,
  (2,2),(-3.186136738165,-0.786219681259),.PIECEWISE_BEZIER_KNOTS.);
#766 = CARTESIAN_POINT('',(14.302607289902,-2.600083065766));
#767 = CARTESIAN_POINT('',(14.301839954641,-5.));
#768 = ( GEOMETRIC_REPRESENTATION_CONTEXT(2) 
PARAMETRIC_REPRESENTATION_CONTEXT() REPRESENTATION_CONTEXT('2D SPACE',''
  ) );
#769 = ORIENTED_EDGE('',*,*,#770,.F.);
#770 = EDGE_CURVE('',#771,#750,#773,.T.);
#771 = VERTEX_POINT('',#772);
#772 = CARTESIAN_POINT('',(242.69992006393,79.7,9.538561659301));
#773 = SURFACE_CURVE('',#774,(#778,#784),.PCURVE_S1.);
#774 = LINE('',#775,#776);
#775 = CARTESIAN_POINT('',(343.95627173683,79.7,10.3473184618));
#776 = VECTOR('',#777,1.);
#777 = DIRECTION('',(-0.999968103681,0.,-7.986965684352E-03));
#778 = PCURVE('',#72,#779);
#779 = DEFINITIONAL_REPRESENTATION('',(#780),#783);
#780 = B_SPLINE_CURVE_WITH_KNOTS('',1,(#781,#782),.UNSPECIFIED.,.F.,.F.,
  (2,2),(65.958375566226,244.40364605904),.PIECEWISE_BEZIER_KNOTS.);
#781 = CARTESIAN_POINT('',(5.452763366823,139.69827454638));
#782 = CARTESIAN_POINT('',(6.877999618784,-38.74130419915));
#783 = ( GEOMETRIC_REPRESENTATION_CONTEXT(2) 
PARAMETRIC_REPRESENTATION_CONTEXT() REPRESENTATION_CONTEXT('2D SPACE',''
  ) );
#784 = PCURVE('',#450,#785);
#785 = DEFINITIONAL_REPRESENTATION('',(#786),#789);
#786 = B_SPLINE_CURVE_WITH_KNOTS('',1,(#787,#788),.UNSPECIFIED.,.F.,.F.,
  (2,2),(65.958375566226,244.40364605904),.PIECEWISE_BEZIER_KNOTS.);
#787 = CARTESIAN_POINT('',(-271.5670187841,-22.28233313469));
#788 = CARTESIAN_POINT('',(-450.012289277,-22.28233313469));
#789 = ( GEOMETRIC_REPRESENTATION_CONTEXT(2) 
PARAMETRIC_REPRESENTATION_CONTEXT() REPRESENTATION_CONTEXT('2D SPACE',''
  ) );
#790 = ORIENTED_EDGE('',*,*,#791,.T.);
#791 = EDGE_CURVE('',#771,#792,#794,.T.);
#792 = VERTEX_POINT('',#793);
#793 = CARTESIAN_POINT('',(242.69992006393,79.7,8.));
#794 = SURFACE_CURVE('',#795,(#799,#805),.PCURVE_S1.);
#795 = LINE('',#796,#797);
#796 = CARTESIAN_POINT('',(242.69992006394,79.7,9.33663727319));
#797 = VECTOR('',#798,1.);
#798 = DIRECTION('',(1.356336484445E-18,0.,-1.));
#799 = PCURVE('',#72,#800);
#800 = DEFINITIONAL_REPRESENTATION('',(#801),#804);
#801 = B_SPLINE_CURVE_WITH_KNOTS('',1,(#802,#803),.UNSPECIFIED.,.F.,.F.,
  (2,2),(-0.201924386111,3.33663727319),.PIECEWISE_BEZIER_KNOTS.);
#802 = CARTESIAN_POINT('',(5.734712887079,104.39819461032));
#803 = CARTESIAN_POINT('',(9.27327454638,104.39819461032));
#804 = ( GEOMETRIC_REPRESENTATION_CONTEXT(2) 
PARAMETRIC_REPRESENTATION_CONTEXT() REPRESENTATION_CONTEXT('2D SPACE',''
  ) );
#805 = PCURVE('',#806,#811);
#806 = PLANE('',#807);
#807 = AXIS2_PLACEMENT_3D('',#808,#809,#810);
#808 = CARTESIAN_POINT('',(100.39968038348,74.007990412782,3.4));
#809 = DIRECTION('',(-3.996803834887E-02,0.999200958722,
    -5.421010862428E-20));
#810 = DIRECTION('',(0.999169036898,3.996676147593E-02,
    7.993352295186E-03));
#811 = DEFINITIONAL_REPRESENTATION('',(#812),#815);
#812 = B_SPLINE_CURVE_WITH_KNOTS('',1,(#813,#814),.UNSPECIFIED.,.F.,.F.,
  (2,2),(-0.201924386111,3.33663727319),.PIECEWISE_BEZIER_KNOTS.);
#813 = CARTESIAN_POINT('',(142.45855230733,-5.));
#814 = CARTESIAN_POINT('',(142.43026733737,-1.46155138837));
#815 = ( GEOMETRIC_REPRESENTATION_CONTEXT(2) 
PARAMETRIC_REPRESENTATION_CONTEXT() REPRESENTATION_CONTEXT('2D SPACE',''
  ) );
#816 = ORIENTED_EDGE('',*,*,#817,.T.);
#817 = EDGE_CURVE('',#792,#818,#820,.T.);
#818 = VERTEX_POINT('',#819);
#819 = CARTESIAN_POINT('',(278.,79.7,8.));
#820 = SURFACE_CURVE('',#821,(#825,#832),.PCURVE_S1.);
#821 = LINE('',#822,#823);
#822 = CARTESIAN_POINT('',(50.,79.7,8.));
#823 = VECTOR('',#824,1.);
#824 = DIRECTION('',(1.,0.,0.));
#825 = PCURVE('',#72,#826);
#826 = DEFINITIONAL_REPRESENTATION('',(#827),#831);
#827 = LINE('',#828,#829);
#828 = CARTESIAN_POINT('',(7.27327454638,-88.30172545362));
#829 = VECTOR('',#830,1.);
#830 = DIRECTION('',(0.,1.));
#831 = ( GEOMETRIC_REPRESENTATION_CONTEXT(2) 
PARAMETRIC_REPRESENTATION_CONTEXT() REPRESENTATION_CONTEXT('2D SPACE',''
  ) );
#832 = PCURVE('',#833,#838);
#833 = PLANE('',#834);
#834 = AXIS2_PLACEMENT_3D('',#835,#836,#837);
#835 = CARTESIAN_POINT('',(50.,85.7,8.));
#836 = DIRECTION('',(-0.,0.,1.));
#837 = DIRECTION('',(1.,0.,0.));
#838 = DEFINITIONAL_REPRESENTATION('',(#839),#843);
#839 = LINE('',#840,#841);
#840 = CARTESIAN_POINT('',(0.,-6.));
#841 = VECTOR('',#842,1.);
#842 = DIRECTION('',(1.,0.));
#843 = ( GEOMETRIC_REPRESENTATION_CONTEXT(2) 
PARAMETRIC_REPRESENTATION_CONTEXT() REPRESENTATION_CONTEXT('2D SPACE',''
  ) );
#844 = ORIENTED_EDGE('',*,*,#845,.T.);
#845 = EDGE_CURVE('',#818,#846,#848,.T.);
#846 = VERTEX_POINT('',#847);
#847 = CARTESIAN_POINT('',(278.,79.7,23.));
#848 = SURFACE_CURVE('',#849,(#853,#860),.PCURVE_S1.);
#849 = LINE('',#850,#851);
#850 = CARTESIAN_POINT('',(278.,79.7,8.));
#851 = VECTOR('',#852,1.);
#852 = DIRECTION('',(0.,0.,1.));
#853 = PCURVE('',#72,#854);
#854 = DEFINITIONAL_REPRESENTATION('',(#855),#859);
#855 = LINE('',#856,#857);
#856 = CARTESIAN_POINT('',(7.27327454638,139.69827454638));
#857 = VECTOR('',#858,1.);
#858 = DIRECTION('',(-1.,0.));
#859 = ( GEOMETRIC_REPRESENTATION_CONTEXT(2) 
PARAMETRIC_REPRESENTATION_CONTEXT() REPRESENTATION_CONTEXT('2D SPACE',''
  ) );
#860 = PCURVE('',#477,#861);
#861 = DEFINITIONAL_REPRESENTATION('',(#862),#866);
#862 = LINE('',#863,#864);
#863 = CARTESIAN_POINT('',(0.,-6.));
#864 = VECTOR('',#865,1.);
#865 = DIRECTION('',(1.,0.));
#866 = ( GEOMETRIC_REPRESENTATION_CONTEXT(2) 
PARAMETRIC_REPRESENTATION_CONTEXT() REPRESENTATION_CONTEXT('2D SPACE',''
  ) );
#867 = ORIENTED_EDGE('',*,*,#868,.T.);
#868 = EDGE_CURVE('',#846,#144,#869,.T.);
#869 = SURFACE_CURVE('',#870,(#874,#881),.PCURVE_S1.);
#870 = LINE('',#871,#872);
#871 = CARTESIAN_POINT('',(278.,79.7,23.));
#872 = VECTOR('',#873,1.);
#873 = DIRECTION('',(-1.,0.,0.));
#874 = PCURVE('',#72,#875);
#875 = DEFINITIONAL_REPRESENTATION('',(#876),#880);
#876 = LINE('',#877,#878);
#877 = CARTESIAN_POINT('',(-7.72672545362,139.69827454638));
#878 = VECTOR('',#879,1.);
#879 = DIRECTION('',(0.,-1.));
#880 = ( GEOMETRIC_REPRESENTATION_CONTEXT(2) 
PARAMETRIC_REPRESENTATION_CONTEXT() REPRESENTATION_CONTEXT('2D SPACE',''
  ) );
#881 = PCURVE('',#159,#882);
#882 = DEFINITIONAL_REPRESENTATION('',(#883),#887);
#883 = LINE('',#884,#885);
#884 = CARTESIAN_POINT('',(0.,-6.));
#885 = VECTOR('',#886,1.);
#886 = DIRECTION('',(1.,0.));
#887 = ( GEOMETRIC_REPRESENTATION_CONTEXT(2) 
PARAMETRIC_REPRESENTATION_CONTEXT() REPRESENTATION_CONTEXT('2D SPACE',''
  ) );
#888 = FACE_BOUND('',#889,.T.);
#889 = EDGE_LOOP('',(#890,#929));
#890 = ORIENTED_EDGE('',*,*,#891,.F.);
#891 = EDGE_CURVE('',#892,#894,#896,.T.);
#892 = VERTEX_POINT('',#893);
#893 = CARTESIAN_POINT('',(0.154796407524,79.7,17.518352507966));
#894 = VERTEX_POINT('',#895);
#895 = CARTESIAN_POINT('',(0.169683372158,79.7,22.480674052695));
#896 = SURFACE_CURVE('',#897,(#902,#909),.PCURVE_S1.);
#897 = ELLIPSE('',#898,62.550261040622,2.5);
#898 = AXIS2_PLACEMENT_3D('',#899,#900,#901);
#899 = CARTESIAN_POINT('',(-7.5,79.7,20.0225));
#900 = DIRECTION('',(0.,-1.,-0.));
#901 = DIRECTION('',(0.99999550003,0.,-2.999986500091E-03));
#902 = PCURVE('',#72,#903);
#903 = DEFINITIONAL_REPRESENTATION('',(#904),#908);
#904 = ELLIPSE('',#905,62.550261040622,2.5);
#905 = AXIS2_PLACEMENT_2D('',#906,#907);
#906 = CARTESIAN_POINT('',(-4.74922545362,-145.8017254536));
#907 = DIRECTION('',(2.999986500091E-03,0.99999550003));
#908 = ( GEOMETRIC_REPRESENTATION_CONTEXT(2) 
PARAMETRIC_REPRESENTATION_CONTEXT() REPRESENTATION_CONTEXT('2D SPACE',''
  ) );
#909 = PCURVE('',#235,#910);
#910 = DEFINITIONAL_REPRESENTATION('',(#911),#928);
#911 = B_SPLINE_CURVE_WITH_KNOTS('',8,(#912,#913,#914,#915,#916,#917,
    #918,#919,#920,#921,#922,#923,#924,#925,#926,#927),.UNSPECIFIED.,.F.
  ,.F.,(9,7,9),(4.835195299792,6.28318530718,7.731175314567),
  .UNSPECIFIED.);
#912 = CARTESIAN_POINT('',(4.589702564553,-5.999999825868E-07));
#913 = CARTESIAN_POINT('',(4.408703813629,11.22727547393));
#914 = CARTESIAN_POINT('',(4.227705062708,22.167901766301));
#915 = CARTESIAN_POINT('',(4.046706311756,32.261391167092));
#916 = CARTESIAN_POINT('',(3.86570756089,40.967355897446));
#917 = CARTESIAN_POINT('',(3.684708809908,47.823987296957));
#918 = CARTESIAN_POINT('',(3.503710059017,52.504078452359));
#919 = CARTESIAN_POINT('',(3.322711308089,54.844129297995));
#920 = CARTESIAN_POINT('',(2.960713806242,54.844129297995));
#921 = CARTESIAN_POINT('',(2.779715055318,52.504078452454));
#922 = CARTESIAN_POINT('',(2.598716304401,47.823987296681));
#923 = CARTESIAN_POINT('',(2.417717553451,40.967355897796));
#924 = CARTESIAN_POINT('',(2.236718802551,32.26139116686));
#925 = CARTESIAN_POINT('',(2.055720051622,22.167901766377));
#926 = CARTESIAN_POINT('',(1.874721300702,11.22727547393));
#927 = CARTESIAN_POINT('',(1.693722549778,-6.000000083439E-07));
#928 = ( GEOMETRIC_REPRESENTATION_CONTEXT(2) 
PARAMETRIC_REPRESENTATION_CONTEXT() REPRESENTATION_CONTEXT('2D SPACE',''
  ) );
#929 = ORIENTED_EDGE('',*,*,#930,.T.);
#930 = EDGE_CURVE('',#892,#894,#931,.T.);
#931 = SURFACE_CURVE('',#932,(#936,#942),.PCURVE_S1.);
#932 = LINE('',#933,#934);
#933 = CARTESIAN_POINT('',(0.155772217634,79.7,17.843622544717));
#934 = VECTOR('',#935,1.);
#935 = DIRECTION('',(2.999986500091E-03,-0.,0.99999550003));
#936 = PCURVE('',#72,#937);
#937 = DEFINITIONAL_REPRESENTATION('',(#938),#941);
#938 = B_SPLINE_CURVE_WITH_KNOTS('',1,(#939,#940),.UNSPECIFIED.,.F.,.F.,
  (2,2),(-0.344062861037,4.655937174906),.PIECEWISE_BEZIER_KNOTS.);
#939 = CARTESIAN_POINT('',(-2.226286685574,-138.1469854199));
#940 = CARTESIAN_POINT('',(-7.226264221667,-138.1319854873));
#941 = ( GEOMETRIC_REPRESENTATION_CONTEXT(2) 
PARAMETRIC_REPRESENTATION_CONTEXT() REPRESENTATION_CONTEXT('2D SPACE',''
  ) );
#942 = PCURVE('',#293,#943);
#943 = DEFINITIONAL_REPRESENTATION('',(#944),#947);
#944 = B_SPLINE_CURVE_WITH_KNOTS('',1,(#945,#946),.UNSPECIFIED.,.F.,.F.,
  (2,2),(-0.344062861037,4.655937174906),.PIECEWISE_BEZIER_KNOTS.);
#945 = CARTESIAN_POINT('',(-0.305944943217,-2.5));
#946 = CARTESIAN_POINT('',(-0.306544461099,2.5));
#947 = ( GEOMETRIC_REPRESENTATION_CONTEXT(2) 
PARAMETRIC_REPRESENTATION_CONTEXT() REPRESENTATION_CONTEXT('2D SPACE',''
  ) );
#948 = ADVANCED_FACE('',(#949),#159,.F.);
#949 = FACE_BOUND('',#950,.F.);
#950 = EDGE_LOOP('',(#951,#972,#973,#974));
#951 = ORIENTED_EDGE('',*,*,#952,.T.);
#952 = EDGE_CURVE('',#462,#846,#953,.T.);
#953 = SURFACE_CURVE('',#954,(#958,#965),.PCURVE_S1.);
#954 = LINE('',#955,#956);
#955 = CARTESIAN_POINT('',(278.,85.7,23.));
#956 = VECTOR('',#957,1.);
#957 = DIRECTION('',(0.,-1.,0.));
#958 = PCURVE('',#159,#959);
#959 = DEFINITIONAL_REPRESENTATION('',(#960),#964);
#960 = LINE('',#961,#962);
#961 = CARTESIAN_POINT('',(0.,0.));
#962 = VECTOR('',#963,1.);
#963 = DIRECTION('',(0.,-1.));
#964 = ( GEOMETRIC_REPRESENTATION_CONTEXT(2) 
PARAMETRIC_REPRESENTATION_CONTEXT() REPRESENTATION_CONTEXT('2D SPACE',''
  ) );
#965 = PCURVE('',#477,#966);
#966 = DEFINITIONAL_REPRESENTATION('',(#967),#971);
#967 = LINE('',#968,#969);
#968 = CARTESIAN_POINT('',(15.,0.));
#969 = VECTOR('',#970,1.);
#970 = DIRECTION('',(0.,-1.));
#971 = ( GEOMETRIC_REPRESENTATION_CONTEXT(2) 
PARAMETRIC_REPRESENTATION_CONTEXT() REPRESENTATION_CONTEXT('2D SPACE',''
  ) );
#972 = ORIENTED_EDGE('',*,*,#868,.T.);
#973 = ORIENTED_EDGE('',*,*,#141,.F.);
#974 = ORIENTED_EDGE('',*,*,#489,.F.);
#975 = ADVANCED_FACE('',(#976),#235,.F.);
#976 = FACE_BOUND('',#977,.F.);
#977 = EDGE_LOOP('',(#978,#999,#1000,#1030,#1049,#1050,#1051,#1052,#1074
    ,#1075,#1097));
#978 = ORIENTED_EDGE('',*,*,#979,.T.);
#979 = EDGE_CURVE('',#217,#513,#980,.T.);
#980 = SEAM_CURVE('',#981,(#985,#992),.PCURVE_S1.);
#981 = LINE('',#982,#983);
#982 = CARTESIAN_POINT('',(5.007990412782E-02,82.504002396804,19.99955)
  );
#983 = VECTOR('',#984,1.);
#984 = DIRECTION('',(0.99919646953,3.996785878122E-02,
    -2.997589408591E-03));
#985 = PCURVE('',#235,#986);
#986 = DEFINITIONAL_REPRESENTATION('',(#987),#991);
#987 = LINE('',#988,#989);
#988 = CARTESIAN_POINT('',(6.28318530718,-0.));
#989 = VECTOR('',#990,1.);
#990 = DIRECTION('',(0.,1.));
#991 = ( GEOMETRIC_REPRESENTATION_CONTEXT(2) 
PARAMETRIC_REPRESENTATION_CONTEXT() REPRESENTATION_CONTEXT('2D SPACE',''
  ) );
#992 = PCURVE('',#235,#993);
#993 = DEFINITIONAL_REPRESENTATION('',(#994),#998);
#994 = LINE('',#995,#996);
#995 = CARTESIAN_POINT('',(0.,-0.));
#996 = VECTOR('',#997,1.);
#997 = DIRECTION('',(0.,1.));
#998 = ( GEOMETRIC_REPRESENTATION_CONTEXT(2) 
PARAMETRIC_REPRESENTATION_CONTEXT() REPRESENTATION_CONTEXT('2D SPACE',''
  ) );
#999 = ORIENTED_EDGE('',*,*,#512,.T.);
#1000 = ORIENTED_EDGE('',*,*,#1001,.T.);
#1001 = EDGE_CURVE('',#515,#1002,#1004,.T.);
#1002 = VERTEX_POINT('',#1003);
#1003 = CARTESIAN_POINT('',(100.,81.5,19.600378975969));
#1004 = SURFACE_CURVE('',#1005,(#1010,#1023),.PCURVE_S1.);
#1005 = ELLIPSE('',#1006,2.500011232004,2.5);
#1006 = AXIS2_PLACEMENT_3D('',#1007,#1008,#1009);
#1007 = CARTESIAN_POINT('',(99.900159744409,83.996006389776,
    19.700299520767));
#1008 = DIRECTION('',(-0.999200958722,-3.996803834887E-02,-0.));
#1009 = DIRECTION('',(0.,0.,-1.));
#1010 = PCURVE('',#235,#1011);
#1011 = DEFINITIONAL_REPRESENTATION('',(#1012),#1022);
#1012 = B_SPLINE_CURVE_WITH_KNOTS('',8,(#1013,#1014,#1015,#1016,#1017,
    #1018,#1019,#1020,#1021),.UNSPECIFIED.,.F.,.F.,(9,9),(4.712388980385
    ,8.322851227298),.PIECEWISE_BEZIER_KNOTS.);
#1013 = CARTESIAN_POINT('',(6.28318530718,99.830376493705));
#1014 = CARTESIAN_POINT('',(5.831877526315,99.83375859746));
#1015 = CARTESIAN_POINT('',(5.380569745454,99.837140611809));
#1016 = CARTESIAN_POINT('',(4.929261964581,99.839473400731));
#1017 = CARTESIAN_POINT('',(4.477954183735,99.839706597617));
#1018 = CARTESIAN_POINT('',(4.026646402856,99.837467968289));
#1019 = CARTESIAN_POINT('',(3.575338621998,99.833812862489));
#1020 = CARTESIAN_POINT('',(3.124030841131,99.830007221495));
#1021 = CARTESIAN_POINT('',(2.672723060267,99.826990115514));
#1022 = ( GEOMETRIC_REPRESENTATION_CONTEXT(2) 
PARAMETRIC_REPRESENTATION_CONTEXT() REPRESENTATION_CONTEXT('2D SPACE',''
  ) );
#1023 = PCURVE('',#709,#1024);
#1024 = DEFINITIONAL_REPRESENTATION('',(#1025),#1029);
#1025 = ELLIPSE('',#1026,2.500011232004,2.5);
#1026 = AXIS2_PLACEMENT_2D('',#1027,#1028);
#1027 = CARTESIAN_POINT('',(-2.995207667738E-04,-2.498002396804));
#1028 = DIRECTION('',(1.,0.));
#1029 = ( GEOMETRIC_REPRESENTATION_CONTEXT(2) 
PARAMETRIC_REPRESENTATION_CONTEXT() REPRESENTATION_CONTEXT('2D SPACE',''
  ) );
#1030 = ORIENTED_EDGE('',*,*,#1031,.T.);
#1031 = EDGE_CURVE('',#1002,#580,#1032,.T.);
#1032 = SURFACE_CURVE('',#1033,(#1037,#1043),.PCURVE_S1.);
#1033 = LINE('',#1034,#1035);
#1034 = CARTESIAN_POINT('',(0.249540975498,77.50998163902,
    19.899630353047));
#1035 = VECTOR('',#1036,1.);
#1036 = DIRECTION('',(0.99919646953,3.996785878122E-02,
    -2.997589408591E-03));
#1037 = PCURVE('',#235,#1038);
#1038 = DEFINITIONAL_REPRESENTATION('',(#1039),#1042);
#1039 = B_SPLINE_CURVE_WITH_KNOTS('',1,(#1040,#1041),.UNSPECIFIED.,.F.,
  .F.,(2,2),(19.766341882475,980.53835146643),.PIECEWISE_BEZIER_KNOTS.);
#1040 = CARTESIAN_POINT('',(3.181571340713,19.766341882475));
#1041 = CARTESIAN_POINT('',(3.181571340713,980.53835146643));
#1042 = ( GEOMETRIC_REPRESENTATION_CONTEXT(2) 
PARAMETRIC_REPRESENTATION_CONTEXT() REPRESENTATION_CONTEXT('2D SPACE',''
  ) );
#1043 = PCURVE('',#659,#1044);
#1044 = DEFINITIONAL_REPRESENTATION('',(#1045),#1048);
#1045 = B_SPLINE_CURVE_WITH_KNOTS('',1,(#1046,#1047),.UNSPECIFIED.,.F.,
  .F.,(2,2),(19.766341882475,980.53835146643),.PIECEWISE_BEZIER_KNOTS.);
#1046 = CARTESIAN_POINT('',(478.20268376164,-4.795874481115));
#1047 = CARTESIAN_POINT('',(-482.5650092838,-1.915874481115));
#1048 = ( GEOMETRIC_REPRESENTATION_CONTEXT(2) 
PARAMETRIC_REPRESENTATION_CONTEXT() REPRESENTATION_CONTEXT('2D SPACE',''
  ) );
#1049 = ORIENTED_EDGE('',*,*,#579,.T.);
#1050 = ORIENTED_EDGE('',*,*,#979,.F.);
#1051 = ORIENTED_EDGE('',*,*,#216,.T.);
#1052 = ORIENTED_EDGE('',*,*,#1053,.T.);
#1053 = EDGE_CURVE('',#219,#894,#1054,.T.);
#1054 = SURFACE_CURVE('',#1055,(#1060,#1067),.PCURVE_S1.);
#1055 = CIRCLE('',#1056,2.5);
#1056 = AXIS2_PLACEMENT_3D('',#1057,#1058,#1059);
#1057 = CARTESIAN_POINT('',(0.15,80.006,19.99955));
#1058 = DIRECTION('',(0.99919646953,3.996785878122E-02,
    -2.997589408591E-03));
#1059 = DIRECTION('',(-3.996803834887E-02,0.999200958722,
    1.355252715607E-20));
#1060 = PCURVE('',#235,#1061);
#1061 = DEFINITIONAL_REPRESENTATION('',(#1062),#1066);
#1062 = LINE('',#1063,#1064);
#1063 = CARTESIAN_POINT('',(0.,0.));
#1064 = VECTOR('',#1065,1.);
#1065 = DIRECTION('',(1.,0.));
#1066 = ( GEOMETRIC_REPRESENTATION_CONTEXT(2) 
PARAMETRIC_REPRESENTATION_CONTEXT() REPRESENTATION_CONTEXT('2D SPACE',''
  ) );
#1067 = PCURVE('',#293,#1068);
#1068 = DEFINITIONAL_REPRESENTATION('',(#1069),#1073);
#1069 = CIRCLE('',#1070,2.5);
#1070 = AXIS2_PLACEMENT_2D('',#1071,#1072);
#1071 = CARTESIAN_POINT('',(0.,0.));
#1072 = DIRECTION('',(1.,0.));
#1073 = ( GEOMETRIC_REPRESENTATION_CONTEXT(2) 
PARAMETRIC_REPRESENTATION_CONTEXT() REPRESENTATION_CONTEXT('2D SPACE',''
  ) );
#1074 = ORIENTED_EDGE('',*,*,#891,.F.);
#1075 = ORIENTED_EDGE('',*,*,#1076,.T.);
#1076 = EDGE_CURVE('',#892,#252,#1077,.T.);
#1077 = SURFACE_CURVE('',#1078,(#1083,#1090),.PCURVE_S1.);
#1078 = CIRCLE('',#1079,2.5);
#1079 = AXIS2_PLACEMENT_3D('',#1080,#1081,#1082);
#1080 = CARTESIAN_POINT('',(0.15,80.006,19.99955));
#1081 = DIRECTION('',(0.99919646953,3.996785878122E-02,
    -2.997589408591E-03));
#1082 = DIRECTION('',(-3.996803834887E-02,0.999200958722,
    1.355252715607E-20));
#1083 = PCURVE('',#235,#1084);
#1084 = DEFINITIONAL_REPRESENTATION('',(#1085),#1089);
#1085 = LINE('',#1086,#1087);
#1086 = CARTESIAN_POINT('',(0.,0.));
#1087 = VECTOR('',#1088,1.);
#1088 = DIRECTION('',(1.,0.));
#1089 = ( GEOMETRIC_REPRESENTATION_CONTEXT(2) 
PARAMETRIC_REPRESENTATION_CONTEXT() REPRESENTATION_CONTEXT('2D SPACE',''
  ) );
#1090 = PCURVE('',#293,#1091);
#1091 = DEFINITIONAL_REPRESENTATION('',(#1092),#1096);
#1092 = CIRCLE('',#1093,2.5);
#1093 = AXIS2_PLACEMENT_2D('',#1094,#1095);
#1094 = CARTESIAN_POINT('',(0.,0.));
#1095 = DIRECTION('',(1.,0.));
#1096 = ( GEOMETRIC_REPRESENTATION_CONTEXT(2) 
PARAMETRIC_REPRESENTATION_CONTEXT() REPRESENTATION_CONTEXT('2D SPACE',''
  ) );
#1097 = ORIENTED_EDGE('',*,*,#251,.T.);
#1098 = ADVANCED_FACE('',(#1099),#293,.T.);
#1099 = FACE_BOUND('',#1100,.T.);
#1100 = EDGE_LOOP('',(#1101,#1102,#1103,#1104));
#1101 = ORIENTED_EDGE('',*,*,#280,.T.);
#1102 = ORIENTED_EDGE('',*,*,#1053,.T.);
#1103 = ORIENTED_EDGE('',*,*,#930,.F.);
#1104 = ORIENTED_EDGE('',*,*,#1076,.T.);
#1105 = ADVANCED_FACE('',(#1106),#347,.F.);
#1106 = FACE_BOUND('',#1107,.F.);
#1107 = EDGE_LOOP('',(#1108,#1109,#1110,#1111));
#1108 = ORIENTED_EDGE('',*,*,#386,.F.);
#1109 = ORIENTED_EDGE('',*,*,#331,.T.);
#1110 = ORIENTED_EDGE('',*,*,#726,.T.);
#1111 = ORIENTED_EDGE('',*,*,#1112,.T.);
#1112 = EDGE_CURVE('',#727,#387,#1113,.T.);
#1113 = SURFACE_CURVE('',#1114,(#1118,#1124),.PCURVE_S1.);
#1114 = LINE('',#1115,#1116);
#1115 = CARTESIAN_POINT('',(99.689536805061,90.841579873481,8.));
#1116 = VECTOR('',#1117,1.);
#1117 = DIRECTION('',(-3.996803834887E-02,0.999200958722,-0.));
#1118 = PCURVE('',#347,#1119);
#1119 = DEFINITIONAL_REPRESENTATION('',(#1120),#1123);
#1120 = B_SPLINE_CURVE_WITH_KNOTS('',1,(#1121,#1122),.UNSPECIFIED.,.F.,
  .F.,(2,2),(-11.15048957492,-5.145691493389),.PIECEWISE_BEZIER_KNOTS.);
#1121 = CARTESIAN_POINT('',(50.1352,-6.));
#1122 = CARTESIAN_POINT('',(49.8952,0.));
#1123 = ( GEOMETRIC_REPRESENTATION_CONTEXT(2) 
PARAMETRIC_REPRESENTATION_CONTEXT() REPRESENTATION_CONTEXT('2D SPACE',''
  ) );
#1124 = PCURVE('',#424,#1125);
#1125 = DEFINITIONAL_REPRESENTATION('',(#1126),#1129);
#1126 = B_SPLINE_CURVE_WITH_KNOTS('',1,(#1127,#1128),.UNSPECIFIED.,.F.,
  .F.,(2,2),(-11.15048957492,-5.145691493389),.PIECEWISE_BEZIER_KNOTS.);
#1127 = CARTESIAN_POINT('',(14.301967801288,-4.600146962509));
#1128 = CARTESIAN_POINT('',(8.297169719754,-4.600146962509));
#1129 = ( GEOMETRIC_REPRESENTATION_CONTEXT(2) 
PARAMETRIC_REPRESENTATION_CONTEXT() REPRESENTATION_CONTEXT('2D SPACE',''
  ) );
#1130 = ADVANCED_FACE('',(#1131),#477,.F.);
#1131 = FACE_BOUND('',#1132,.F.);
#1132 = EDGE_LOOP('',(#1133,#1156,#1177,#1178,#1179,#1180));
#1133 = ORIENTED_EDGE('',*,*,#1134,.T.);
#1134 = EDGE_CURVE('',#1135,#1137,#1139,.T.);
#1135 = VERTEX_POINT('',#1136);
#1136 = CARTESIAN_POINT('',(278.,81.112003197443,9.820962298789));
#1137 = VERTEX_POINT('',#1138);
#1138 = CARTESIAN_POINT('',(278.,81.112003197443,8.));
#1139 = SURFACE_CURVE('',#1140,(#1144,#1150),.PCURVE_S1.);
#1140 = LINE('',#1141,#1142);
#1141 = CARTESIAN_POINT('',(278.,81.112003197443,5.7));
#1142 = VECTOR('',#1143,1.);
#1143 = DIRECTION('',(-0.,-5.42534593778E-20,-1.));
#1144 = PCURVE('',#477,#1145);
#1145 = DEFINITIONAL_REPRESENTATION('',(#1146),#1149);
#1146 = B_SPLINE_CURVE_WITH_KNOTS('',1,(#1147,#1148),.UNSPECIFIED.,.F.,
  .F.,(2,2),(-4.120962298789,-2.3),.PIECEWISE_BEZIER_KNOTS.);
#1147 = CARTESIAN_POINT('',(1.820962298789,-4.587996802557));
#1148 = CARTESIAN_POINT('',(0.,-4.587996802557));
#1149 = ( GEOMETRIC_REPRESENTATION_CONTEXT(2) 
PARAMETRIC_REPRESENTATION_CONTEXT() REPRESENTATION_CONTEXT('2D SPACE',''
  ) );
#1150 = PCURVE('',#806,#1151);
#1151 = DEFINITIONAL_REPRESENTATION('',(#1152),#1155);
#1152 = B_SPLINE_CURVE_WITH_KNOTS('',1,(#1153,#1154),.UNSPECIFIED.,.F.,
  .F.,(2,2),(-4.120962298789,-2.3),.PIECEWISE_BEZIER_KNOTS.);
#1153 = CARTESIAN_POINT('',(177.78798970226,-5.));
#1154 = CARTESIAN_POINT('',(177.77343410909,-3.179095876132));
#1155 = ( GEOMETRIC_REPRESENTATION_CONTEXT(2) 
PARAMETRIC_REPRESENTATION_CONTEXT() REPRESENTATION_CONTEXT('2D SPACE',''
  ) );
#1156 = ORIENTED_EDGE('',*,*,#1157,.T.);
#1157 = EDGE_CURVE('',#1137,#818,#1158,.T.);
#1158 = SURFACE_CURVE('',#1159,(#1163,#1170),.PCURVE_S1.);
#1159 = LINE('',#1160,#1161);
#1160 = CARTESIAN_POINT('',(278.,85.7,8.));
#1161 = VECTOR('',#1162,1.);
#1162 = DIRECTION('',(0.,-1.,0.));
#1163 = PCURVE('',#477,#1164);
#1164 = DEFINITIONAL_REPRESENTATION('',(#1165),#1169);
#1165 = LINE('',#1166,#1167);
#1166 = CARTESIAN_POINT('',(0.,0.));
#1167 = VECTOR('',#1168,1.);
#1168 = DIRECTION('',(0.,-1.));
#1169 = ( GEOMETRIC_REPRESENTATION_CONTEXT(2) 
PARAMETRIC_REPRESENTATION_CONTEXT() REPRESENTATION_CONTEXT('2D SPACE',''
  ) );
#1170 = PCURVE('',#833,#1171);
#1171 = DEFINITIONAL_REPRESENTATION('',(#1172),#1176);
#1172 = LINE('',#1173,#1174);
#1173 = CARTESIAN_POINT('',(228.,0.));
#1174 = VECTOR('',#1175,1.);
#1175 = DIRECTION('',(0.,-1.));
#1176 = ( GEOMETRIC_REPRESENTATION_CONTEXT(2) 
PARAMETRIC_REPRESENTATION_CONTEXT() REPRESENTATION_CONTEXT('2D SPACE',''
  ) );
#1177 = ORIENTED_EDGE('',*,*,#845,.T.);
#1178 = ORIENTED_EDGE('',*,*,#952,.F.);
#1179 = ORIENTED_EDGE('',*,*,#461,.F.);
#1180 = ORIENTED_EDGE('',*,*,#1181,.F.);
#1181 = EDGE_CURVE('',#1135,#436,#1182,.T.);
#1182 = SURFACE_CURVE('',#1183,(#1187,#1193),.PCURVE_S1.);
#1183 = LINE('',#1184,#1185);
#1184 = CARTESIAN_POINT('',(278.,93.841221361055,9.825029141653));
#1185 = VECTOR('',#1186,1.);
#1186 = DIRECTION('',(0.,0.999999948963,3.194888015858E-04));
#1187 = PCURVE('',#477,#1188);
#1188 = DEFINITIONAL_REPRESENTATION('',(#1189),#1192);
#1189 = B_SPLINE_CURVE_WITH_KNOTS('',1,(#1190,#1191),.UNSPECIFIED.,.F.,
  .F.,(2,2),(-14.14122208277,-8.141221776555),.PIECEWISE_BEZIER_KNOTS.);
#1190 = CARTESIAN_POINT('',(1.820511179557,-6.));
#1191 = CARTESIAN_POINT('',(1.822428112464,0.));
#1192 = ( GEOMETRIC_REPRESENTATION_CONTEXT(2) 
PARAMETRIC_REPRESENTATION_CONTEXT() REPRESENTATION_CONTEXT('2D SPACE',''
  ) );
#1193 = PCURVE('',#450,#1194);
#1194 = DEFINITIONAL_REPRESENTATION('',(#1195),#1198);
#1195 = B_SPLINE_CURVE_WITH_KNOTS('',1,(#1196,#1197),.UNSPECIFIED.,.F.,
  .F.,(2,2),(-14.14122208277,-8.141221776555),.PIECEWISE_BEZIER_KNOTS.);
#1196 = CARTESIAN_POINT('',(-271.5670187841,-22.28233313469));
#1197 = CARTESIAN_POINT('',(-271.5670034737,-16.28233282849));
#1198 = ( GEOMETRIC_REPRESENTATION_CONTEXT(2) 
PARAMETRIC_REPRESENTATION_CONTEXT() REPRESENTATION_CONTEXT('2D SPACE',''
  ) );
#1199 = ADVANCED_FACE('',(#1200),#450,.F.);
#1200 = FACE_BOUND('',#1201,.F.);
#1201 = EDGE_LOOP('',(#1202,#1203,#1224,#1225,#1246));
#1202 = ORIENTED_EDGE('',*,*,#435,.T.);
#1203 = ORIENTED_EDGE('',*,*,#1204,.T.);
#1204 = EDGE_CURVE('',#410,#750,#1205,.T.);
#1205 = SURFACE_CURVE('',#1206,(#1210,#1217),.PCURVE_S1.);
#1206 = LINE('',#1207,#1208);
#1207 = CARTESIAN_POINT('',(99.560384790128,93.990412194163,
    8.399840263246));
#1208 = VECTOR('',#1209,1.);
#1209 = DIRECTION('',(3.996803834887E-02,-0.999200958722,0.));
#1210 = PCURVE('',#450,#1211);
#1211 = DEFINITIONAL_REPRESENTATION('',(#1212),#1216);
#1212 = LINE('',#1213,#1214);
#1213 = CARTESIAN_POINT('',(-450.012289277,-7.991920211246));
#1214 = VECTOR('',#1215,1.);
#1215 = DIRECTION('',(3.996676351557E-02,-0.999201009714));
#1216 = ( GEOMETRIC_REPRESENTATION_CONTEXT(2) 
PARAMETRIC_REPRESENTATION_CONTEXT() REPRESENTATION_CONTEXT('2D SPACE',''
  ) );
#1217 = PCURVE('',#424,#1218);
#1218 = DEFINITIONAL_REPRESENTATION('',(#1219),#1223);
#1219 = LINE('',#1220,#1221);
#1220 = CARTESIAN_POINT('',(-1.670918186785E-15,-5.));
#1221 = VECTOR('',#1222,1.);
#1222 = DIRECTION('',(1.,-1.253142928013E-21));
#1223 = ( GEOMETRIC_REPRESENTATION_CONTEXT(2) 
PARAMETRIC_REPRESENTATION_CONTEXT() REPRESENTATION_CONTEXT('2D SPACE',''
  ) );
#1224 = ORIENTED_EDGE('',*,*,#770,.F.);
#1225 = ORIENTED_EDGE('',*,*,#1226,.T.);
#1226 = EDGE_CURVE('',#771,#1135,#1227,.T.);
#1227 = SURFACE_CURVE('',#1228,(#1232,#1239),.PCURVE_S1.);
#1228 = LINE('',#1229,#1230);
#1229 = CARTESIAN_POINT('',(100.3597455571,74.006393019727,
    8.399840263246));
#1230 = VECTOR('',#1231,1.);
#1231 = DIRECTION('',(0.999169036898,3.996676147593E-02,
    7.993352295186E-03));
#1232 = PCURVE('',#450,#1233);
#1233 = DEFINITIONAL_REPRESENTATION('',(#1234),#1238);
#1234 = LINE('',#1235,#1236);
#1235 = CARTESIAN_POINT('',(-449.2129540067,-27.97594040553));
#1236 = VECTOR('',#1237,1.);
#1237 = DIRECTION('',(0.999201009714,3.996676351557E-02));
#1238 = ( GEOMETRIC_REPRESENTATION_CONTEXT(2) 
PARAMETRIC_REPRESENTATION_CONTEXT() REPRESENTATION_CONTEXT('2D SPACE',''
  ) );
#1239 = PCURVE('',#806,#1240);
#1240 = DEFINITIONAL_REPRESENTATION('',(#1241),#1245);
#1241 = LINE('',#1242,#1243);
#1242 = CARTESIAN_POINT('',(-1.575128916187E-15,-5.));
#1243 = VECTOR('',#1244,1.);
#1244 = DIRECTION('',(1.,1.734723475977E-18));
#1245 = ( GEOMETRIC_REPRESENTATION_CONTEXT(2) 
PARAMETRIC_REPRESENTATION_CONTEXT() REPRESENTATION_CONTEXT('2D SPACE',''
  ) );
#1246 = ORIENTED_EDGE('',*,*,#1181,.T.);
#1247 = ADVANCED_FACE('',(#1248),#424,.T.);
#1248 = FACE_BOUND('',#1249,.T.);
#1249 = EDGE_LOOP('',(#1250,#1251,#1252,#1253));
#1250 = ORIENTED_EDGE('',*,*,#409,.T.);
#1251 = ORIENTED_EDGE('',*,*,#1204,.T.);
#1252 = ORIENTED_EDGE('',*,*,#749,.F.);
#1253 = ORIENTED_EDGE('',*,*,#1112,.T.);
#1254 = ADVANCED_FACE('',(#1255),#709,.F.);
#1255 = FACE_BOUND('',#1256,.F.);
#1256 = EDGE_LOOP('',(#1257,#1258,#1259,#1282));
#1257 = ORIENTED_EDGE('',*,*,#1001,.F.);
#1258 = ORIENTED_EDGE('',*,*,#696,.T.);
#1259 = ORIENTED_EDGE('',*,*,#1260,.F.);
#1260 = EDGE_CURVE('',#1261,#671,#1263,.T.);
#1261 = VERTEX_POINT('',#1262);
#1262 = CARTESIAN_POINT('',(100.,81.5,8.4));
#1263 = SURFACE_CURVE('',#1264,(#1268,#1275),.PCURVE_S1.);
#1264 = LINE('',#1265,#1266);
#1265 = CARTESIAN_POINT('',(100.,81.5,8.4));
#1266 = VECTOR('',#1267,1.);
#1267 = DIRECTION('',(-3.996803834887E-02,0.999200958722,0.));
#1268 = PCURVE('',#709,#1269);
#1269 = DEFINITIONAL_REPRESENTATION('',(#1270),#1274);
#1270 = LINE('',#1271,#1272);
#1271 = CARTESIAN_POINT('',(11.3,0.));
#1272 = VECTOR('',#1273,1.);
#1273 = DIRECTION('',(0.,-1.));
#1274 = ( GEOMETRIC_REPRESENTATION_CONTEXT(2) 
PARAMETRIC_REPRESENTATION_CONTEXT() REPRESENTATION_CONTEXT('2D SPACE',''
  ) );
#1275 = PCURVE('',#685,#1276);
#1276 = DEFINITIONAL_REPRESENTATION('',(#1277),#1281);
#1277 = LINE('',#1278,#1279);
#1278 = CARTESIAN_POINT('',(0.,0.));
#1279 = VECTOR('',#1280,1.);
#1280 = DIRECTION('',(6.938893903907E-18,-1.));
#1281 = ( GEOMETRIC_REPRESENTATION_CONTEXT(2) 
PARAMETRIC_REPRESENTATION_CONTEXT() REPRESENTATION_CONTEXT('2D SPACE',''
  ) );
#1282 = ORIENTED_EDGE('',*,*,#1283,.F.);
#1283 = EDGE_CURVE('',#1002,#1261,#1284,.T.);
#1284 = SURFACE_CURVE('',#1285,(#1289,#1296),.PCURVE_S1.);
#1285 = LINE('',#1286,#1287);
#1286 = CARTESIAN_POINT('',(100.,81.5,19.7));
#1287 = VECTOR('',#1288,1.);
#1288 = DIRECTION('',(0.,0.,-1.));
#1289 = PCURVE('',#709,#1290);
#1290 = DEFINITIONAL_REPRESENTATION('',(#1291),#1295);
#1291 = LINE('',#1292,#1293);
#1292 = CARTESIAN_POINT('',(0.,0.));
#1293 = VECTOR('',#1294,1.);
#1294 = DIRECTION('',(1.,0.));
#1295 = ( GEOMETRIC_REPRESENTATION_CONTEXT(2) 
PARAMETRIC_REPRESENTATION_CONTEXT() REPRESENTATION_CONTEXT('2D SPACE',''
  ) );
#1296 = PCURVE('',#659,#1297);
#1297 = DEFINITIONAL_REPRESENTATION('',(#1298),#1302);
#1298 = LINE('',#1299,#1300);
#1299 = CARTESIAN_POINT('',(398.13870934119,-4.655495505142));
#1300 = VECTOR('',#1301,1.);
#1301 = DIRECTION('',(-1.54074395551E-33,1.));
#1302 = ( GEOMETRIC_REPRESENTATION_CONTEXT(2) 
PARAMETRIC_REPRESENTATION_CONTEXT() REPRESENTATION_CONTEXT('2D SPACE',''
  ) );
#1303 = ADVANCED_FACE('',(#1304),#685,.F.);
#1304 = FACE_BOUND('',#1305,.F.);
#1305 = EDGE_LOOP('',(#1306,#1327,#1328));
#1306 = ORIENTED_EDGE('',*,*,#1307,.F.);
#1307 = EDGE_CURVE('',#1261,#645,#1308,.T.);
#1308 = SURFACE_CURVE('',#1309,(#1313,#1320),.PCURVE_S1.);
#1309 = LINE('',#1310,#1311);
#1310 = CARTESIAN_POINT('',(100.,81.5,8.4));
#1311 = VECTOR('',#1312,1.);
#1312 = DIRECTION('',(0.999169036898,3.996676147593E-02,
    7.993352295186E-03));
#1313 = PCURVE('',#685,#1314);
#1314 = DEFINITIONAL_REPRESENTATION('',(#1315),#1319);
#1315 = LINE('',#1316,#1317);
#1316 = CARTESIAN_POINT('',(0.,0.));
#1317 = VECTOR('',#1318,1.);
#1318 = DIRECTION('',(1.,1.387822112831E-17));
#1319 = ( GEOMETRIC_REPRESENTATION_CONTEXT(2) 
PARAMETRIC_REPRESENTATION_CONTEXT() REPRESENTATION_CONTEXT('2D SPACE',''
  ) );
#1320 = PCURVE('',#659,#1321);
#1321 = DEFINITIONAL_REPRESENTATION('',(#1322),#1326);
#1322 = LINE('',#1323,#1324);
#1323 = CARTESIAN_POINT('',(398.13870934119,6.644504494858));
#1324 = VECTOR('',#1325,1.);
#1325 = DIRECTION('',(-0.999968052649,-7.993352295186E-03));
#1326 = ( GEOMETRIC_REPRESENTATION_CONTEXT(2) 
PARAMETRIC_REPRESENTATION_CONTEXT() REPRESENTATION_CONTEXT('2D SPACE',''
  ) );
#1327 = ORIENTED_EDGE('',*,*,#1260,.T.);
#1328 = ORIENTED_EDGE('',*,*,#670,.T.);
#1329 = ADVANCED_FACE('',(#1330),#659,.F.);
#1330 = FACE_BOUND('',#1331,.F.);
#1331 = EDGE_LOOP('',(#1332,#1333,#1334,#1335));
#1332 = ORIENTED_EDGE('',*,*,#1031,.F.);
#1333 = ORIENTED_EDGE('',*,*,#1283,.T.);
#1334 = ORIENTED_EDGE('',*,*,#1307,.T.);
#1335 = ORIENTED_EDGE('',*,*,#644,.T.);
#1336 = ADVANCED_FACE('',(#1337),#833,.F.);
#1337 = FACE_BOUND('',#1338,.F.);
#1338 = EDGE_LOOP('',(#1339,#1358,#1359));
#1339 = ORIENTED_EDGE('',*,*,#1340,.T.);
#1340 = EDGE_CURVE('',#1137,#792,#1341,.T.);
#1341 = SURFACE_CURVE('',#1342,(#1346,#1352),.PCURVE_S1.);
#1342 = LINE('',#1343,#1344);
#1343 = CARTESIAN_POINT('',(75.473562172626,73.010945684348,8.));
#1344 = VECTOR('',#1345,1.);
#1345 = DIRECTION('',(-0.999200958722,-3.996803834887E-02,0.));
#1346 = PCURVE('',#833,#1347);
#1347 = DEFINITIONAL_REPRESENTATION('',(#1348),#1351);
#1348 = B_SPLINE_CURVE_WITH_KNOTS('',1,(#1349,#1350),.UNSPECIFIED.,.F.,
  .F.,(2,2),(-202.6883942209,-167.3600855079),.PIECEWISE_BEZIER_KNOTS.);
#1349 = CARTESIAN_POINT('',(228.,-4.587996802557));
#1350 = CARTESIAN_POINT('',(192.69992006393,-6.));
#1351 = ( GEOMETRIC_REPRESENTATION_CONTEXT(2) 
PARAMETRIC_REPRESENTATION_CONTEXT() REPRESENTATION_CONTEXT('2D SPACE',''
  ) );
#1352 = PCURVE('',#806,#1353);
#1353 = DEFINITIONAL_REPRESENTATION('',(#1354),#1357);
#1354 = B_SPLINE_CURVE_WITH_KNOTS('',1,(#1355,#1356),.UNSPECIFIED.,.F.,
  .F.,(2,2),(-202.6883942209,-167.3600855079),.PIECEWISE_BEZIER_KNOTS.);
#1355 = CARTESIAN_POINT('',(177.77343410909,-3.179095876132));
#1356 = CARTESIAN_POINT('',(142.44625404195,-3.461487493668));
#1357 = ( GEOMETRIC_REPRESENTATION_CONTEXT(2) 
PARAMETRIC_REPRESENTATION_CONTEXT() REPRESENTATION_CONTEXT('2D SPACE',''
  ) );
#1358 = ORIENTED_EDGE('',*,*,#817,.T.);
#1359 = ORIENTED_EDGE('',*,*,#1157,.F.);
#1360 = ADVANCED_FACE('',(#1361),#806,.T.);
#1361 = FACE_BOUND('',#1362,.T.);
#1362 = EDGE_LOOP('',(#1363,#1364,#1365,#1366));
#1363 = ORIENTED_EDGE('',*,*,#791,.F.);
#1364 = ORIENTED_EDGE('',*,*,#1226,.T.);
#1365 = ORIENTED_EDGE('',*,*,#1134,.T.);
#1366 = ORIENTED_EDGE('',*,*,#1340,.T.);
#1367 = ( GEOMETRIC_REPRESENTATION_CONTEXT(3) 
GLOBAL_UNCERTAINTY_ASSIGNED_CONTEXT((#1371)) 
GLOBAL_UNIT_ASSIGNED_CONTEXT((#1368,#1369,#1370)) REPRESENTATION_CONTEXT
('Context #1','3D Context with UNIT and UNCERTAINTY') );
#1368 = ( LENGTH_UNIT() NAMED_UNIT(*) SI_UNIT(.MILLI.,.METRE.) );
#1369 = ( NAMED_UNIT(*) PLANE_ANGLE_UNIT() SI_UNIT($,.RADIAN.) );
#1370 = ( NAMED_UNIT(*) SI_UNIT($,.STERADIAN.) SOLID_ANGLE_UNIT() );
#1371 = UNCERTAINTY_MEASURE_WITH_UNIT(LENGTH_MEASURE(1.E-07),#1368,
  'distance_accuracy_value','confusion accuracy');
#1372 = PRODUCT_RELATED_PRODUCT_CATEGORY('part',$,(#7));
ENDSEC;
END-ISO-10303-21;
