ISO-10303-21;
HEADER;
FILE_DESCRIPTION(('Open CASCADE Model'),'2;1');
FILE_NAME('Open CASCADE Shape Model','2026-09-23T19:44:18',('Author'),(
    'Open CASCADE'),'Open CASCADE STEP processor 7.9','Open CASCADE 7.9'
  ,'Unknown');
FILE_SCHEMA(('AUTOMOTIVE_DESIGN { 1 0 10303 214 1 1 1 1 }'));
ENDSEC;
DATA;
#1 = APPLICATION_PROTOCOL_DEFINITION('international standard',
  'automotive_design',2000,#2);
#2 = APPLICATION_CONTEXT(
  'core data for automotive mechanical design processes');
#3 = SHAPE_DEFINITION_REPRESENTATION(#4,#10);
#4 = PRODUCT_DEFINITION_SHAPE('','',#5);
#5 = PRODUCT_DEFINITION('design','',#6,#9);
#6 = PRODUCT_DEFINITION_FORMATION('','',#7);
#7 = PRODUCT('Open CASCADE STEP translator 7.9 37',
  'Open CASCADE STEP translator 7.9 37','',(#8));
#8 = PRODUCT_CONTEXT('',#2,'mechanical');
#9 = PRODUCT_DEFINITION_CONTEXT('part definition',#2,'design');
#10 = ADVANCED_BREP_SHAPE_REPRESENTATION('',(#11,#15),#1710);
#11 = AXIS2_PLACEMENT_3D('',#12,#13,#14);
#12 = CARTESIAN_POINT('',(0.,0.,0.));
#13 = DIRECTION('',(0.,0.,1.));
#14 = DIRECTION('',(1.,0.,-0.));
#15 = MANIFOLD_SOLID_BREP('',#16);
#16 = CLOSED_SHELL('',(#17,#137,#213,#627,#676,#906,#933,#1035,#1060,
    #1087,#1113,#1164,#1256,#1333,#1380,#1449,#1476,#1483,#1532,#1580,
    #1627,#1674,#1701));
#17 = ADVANCED_FACE('',(#18),#32,.F.);
#18 = FACE_BOUND('',#19,.F.);
#19 = EDGE_LOOP('',(#20,#55,#83,#111));
#20 = ORIENTED_EDGE('',*,*,#21,.T.);
#21 = EDGE_CURVE('',#22,#24,#26,.T.);
#22 = VERTEX_POINT('',#23);
#23 = CARTESIAN_POINT('',(0.15,91.7,6.));
#24 = VERTEX_POINT('',#25);
#25 = CARTESIAN_POINT('',(0.15,85.7,6.));
#26 = SURFACE_CURVE('',#27,(#31,#43),.PCURVE_S1.);
#27 = LINE('',#28,#29);
#28 = CARTESIAN_POINT('',(0.15,91.7,6.));
#29 = VECTOR('',#30,1.);
#30 = DIRECTION('',(0.,-1.,0.));
#31 = PCURVE('',#32,#37);
#32 = PLANE('',#33);
#33 = AXIS2_PLACEMENT_3D('',#34,#35,#36);
#34 = CARTESIAN_POINT('',(0.15,91.7,6.));
#35 = DIRECTION('',(-0.,0.,1.));
#36 = DIRECTION('',(1.,0.,0.));
#37 = DEFINITIONAL_REPRESENTATION('',(#38),#42);
#38 = LINE('',#39,#40);
#39 = CARTESIAN_POINT('',(0.,0.));
#40 = VECTOR('',#41,1.);
#41 = DIRECTION('',(0.,-1.));
#42 = ( GEOMETRIC_REPRESENTATION_CONTEXT(2) 
PARAMETRIC_REPRESENTATION_CONTEXT() REPRESENTATION_CONTEXT('2D SPACE',''
  ) );
#43 = PCURVE('',#44,#49);
#44 = PLANE('',#45);
#45 = AXIS2_PLACEMENT_3D('',#46,#47,#48);
#46 = CARTESIAN_POINT('',(0.15,91.7,23.));
#47 = DIRECTION('',(1.,0.,0.));
#48 = DIRECTION('',(0.,0.,-1.));
#49 = DEFINITIONAL_REPRESENTATION('',(#50),#54);
#50 = LINE('',#51,#52);
#51 = CARTESIAN_POINT('',(17.,0.));
#52 = VECTOR('',#53,1.);
#53 = DIRECTION('',(0.,-1.));
#54 = ( GEOMETRIC_REPRESENTATION_CONTEXT(2) 
PARAMETRIC_REPRESENTATION_CONTEXT() REPRESENTATION_CONTEXT('2D SPACE',''
  ) );
#55 = ORIENTED_EDGE('',*,*,#56,.T.);
#56 = EDGE_CURVE('',#24,#57,#59,.T.);
#57 = VERTEX_POINT('',#58);
#58 = CARTESIAN_POINT('',(50.,85.7,6.));
#59 = SURFACE_CURVE('',#60,(#64,#71),.PCURVE_S1.);
#60 = LINE('',#61,#62);
#61 = CARTESIAN_POINT('',(0.15,85.7,6.));
#62 = VECTOR('',#63,1.);
#63 = DIRECTION('',(1.,0.,0.));
#64 = PCURVE('',#32,#65);
#65 = DEFINITIONAL_REPRESENTATION('',(#66),#70);
#66 = LINE('',#67,#68);
#67 = CARTESIAN_POINT('',(0.,-6.));
#68 = VECTOR('',#69,1.);
#69 = DIRECTION('',(1.,0.));
#70 = ( GEOMETRIC_REPRESENTATION_CONTEXT(2) 
PARAMETRIC_REPRESENTATION_CONTEXT() REPRESENTATION_CONTEXT('2D SPACE',''
  ) );
#71 = PCURVE('',#72,#77);
#72 = PLANE('',#73);
#73 = AXIS2_PLACEMENT_3D('',#74,#75,#76);
#74 = CARTESIAN_POINT('',(138.30172545362,85.7,15.27327454638));
#75 = DIRECTION('',(-0.,-1.,-0.));
#76 = DIRECTION('',(0.,0.,-1.));
#77 = DEFINITIONAL_REPRESENTATION('',(#78),#82);
#78 = LINE('',#79,#80);
#79 = CARTESIAN_POINT('',(9.27327454638,-138.1517254536));
#80 = VECTOR('',#81,1.);
#81 = DIRECTION('',(0.,1.));
#82 = ( GEOMETRIC_REPRESENTATION_CONTEXT(2) 
PARAMETRIC_REPRESENTATION_CONTEXT() REPRESENTATION_CONTEXT('2D SPACE',''
  ) );
#83 = ORIENTED_EDGE('',*,*,#84,.F.);
#84 = EDGE_CURVE('',#85,#57,#87,.T.);
#85 = VERTEX_POINT('',#86);
#86 = CARTESIAN_POINT('',(50.,91.7,6.));
#87 = SURFACE_CURVE('',#88,(#92,#99),.PCURVE_S1.);
#88 = LINE('',#89,#90);
#89 = CARTESIAN_POINT('',(50.,91.7,6.));
#90 = VECTOR('',#91,1.);
#91 = DIRECTION('',(0.,-1.,0.));
#92 = PCURVE('',#32,#93);
#93 = DEFINITIONAL_REPRESENTATION('',(#94),#98);
#94 = LINE('',#95,#96);
#95 = CARTESIAN_POINT('',(49.85,0.));
#96 = VECTOR('',#97,1.);
#97 = DIRECTION('',(0.,-1.));
#98 = ( GEOMETRIC_REPRESENTATION_CONTEXT(2) 
PARAMETRIC_REPRESENTATION_CONTEXT() REPRESENTATION_CONTEXT('2D SPACE',''
  ) );
#99 = PCURVE('',#100,#105);
#100 = PLANE('',#101);
#101 = AXIS2_PLACEMENT_3D('',#102,#103,#104);
#102 = CARTESIAN_POINT('',(50.,91.7,6.));
#103 = DIRECTION('',(-1.,0.,0.));
#104 = DIRECTION('',(0.,0.,1.));
#105 = DEFINITIONAL_REPRESENTATION('',(#106),#110);
#106 = LINE('',#107,#108);
#107 = CARTESIAN_POINT('',(0.,0.));
#108 = VECTOR('',#109,1.);
#109 = DIRECTION('',(0.,-1.));
#110 = ( GEOMETRIC_REPRESENTATION_CONTEXT(2) 
PARAMETRIC_REPRESENTATION_CONTEXT() REPRESENTATION_CONTEXT('2D SPACE',''
  ) );
#111 = ORIENTED_EDGE('',*,*,#112,.F.);
#112 = EDGE_CURVE('',#22,#85,#113,.T.);
#113 = SURFACE_CURVE('',#114,(#118,#125),.PCURVE_S1.);
#114 = LINE('',#115,#116);
#115 = CARTESIAN_POINT('',(0.15,91.7,6.));
#116 = VECTOR('',#117,1.);
#117 = DIRECTION('',(1.,0.,0.));
#118 = PCURVE('',#32,#119);
#119 = DEFINITIONAL_REPRESENTATION('',(#120),#124);
#120 = LINE('',#121,#122);
#121 = CARTESIAN_POINT('',(0.,0.));
#122 = VECTOR('',#123,1.);
#123 = DIRECTION('',(1.,0.));
#124 = ( GEOMETRIC_REPRESENTATION_CONTEXT(2) 
PARAMETRIC_REPRESENTATION_CONTEXT() REPRESENTATION_CONTEXT('2D SPACE',''
  ) );
#125 = PCURVE('',#126,#131);
#126 = PLANE('',#127);
#127 = AXIS2_PLACEMENT_3D('',#128,#129,#130);
#128 = CARTESIAN_POINT('',(138.30172545362,91.7,15.27327454638));
#129 = DIRECTION('',(-0.,-1.,-0.));
#130 = DIRECTION('',(0.,0.,-1.));
#131 = DEFINITIONAL_REPRESENTATION('',(#132),#136);
#132 = LINE('',#133,#134);
#133 = CARTESIAN_POINT('',(9.27327454638,-138.1517254536));
#134 = VECTOR('',#135,1.);
#135 = DIRECTION('',(0.,1.));
#136 = ( GEOMETRIC_REPRESENTATION_CONTEXT(2) 
PARAMETRIC_REPRESENTATION_CONTEXT() REPRESENTATION_CONTEXT('2D SPACE',''
  ) );
#137 = ADVANCED_FACE('',(#138),#44,.F.);
#138 = FACE_BOUND('',#139,.F.);
#139 = EDGE_LOOP('',(#140,#170,#191,#192));
#140 = ORIENTED_EDGE('',*,*,#141,.T.);
#141 = EDGE_CURVE('',#142,#144,#146,.T.);
#142 = VERTEX_POINT('',#143);
#143 = CARTESIAN_POINT('',(0.15,91.7,23.));
#144 = VERTEX_POINT('',#145);
#145 = CARTESIAN_POINT('',(0.15,85.7,23.));
#146 = SURFACE_CURVE('',#147,(#151,#158),.PCURVE_S1.);
#147 = LINE('',#148,#149);
#148 = CARTESIAN_POINT('',(0.15,91.7,23.));
#149 = VECTOR('',#150,1.);
#150 = DIRECTION('',(0.,-1.,0.));
#151 = PCURVE('',#44,#152);
#152 = DEFINITIONAL_REPRESENTATION('',(#153),#157);
#153 = LINE('',#154,#155);
#154 = CARTESIAN_POINT('',(0.,0.));
#155 = VECTOR('',#156,1.);
#156 = DIRECTION('',(0.,-1.));
#157 = ( GEOMETRIC_REPRESENTATION_CONTEXT(2) 
PARAMETRIC_REPRESENTATION_CONTEXT() REPRESENTATION_CONTEXT('2D SPACE',''
  ) );
#158 = PCURVE('',#159,#164);
#159 = PLANE('',#160);
#160 = AXIS2_PLACEMENT_3D('',#161,#162,#163);
#161 = CARTESIAN_POINT('',(278.,91.7,23.));
#162 = DIRECTION('',(-0.,-0.,-1.));
#163 = DIRECTION('',(-1.,0.,0.));
#164 = DEFINITIONAL_REPRESENTATION('',(#165),#169);
#165 = LINE('',#166,#167);
#166 = CARTESIAN_POINT('',(277.85,0.));
#167 = VECTOR('',#168,1.);
#168 = DIRECTION('',(0.,-1.));
#169 = ( GEOMETRIC_REPRESENTATION_CONTEXT(2) 
PARAMETRIC_REPRESENTATION_CONTEXT() REPRESENTATION_CONTEXT('2D SPACE',''
  ) );
#170 = ORIENTED_EDGE('',*,*,#171,.T.);
#171 = EDGE_CURVE('',#144,#24,#172,.T.);
#172 = SURFACE_CURVE('',#173,(#177,#184),.PCURVE_S1.);
#173 = LINE('',#174,#175);
#174 = CARTESIAN_POINT('',(0.15,85.7,23.));
#175 = VECTOR('',#176,1.);
#176 = DIRECTION('',(0.,0.,-1.));
#177 = PCURVE('',#44,#178);
#178 = DEFINITIONAL_REPRESENTATION('',(#179),#183);
#179 = LINE('',#180,#181);
#180 = CARTESIAN_POINT('',(0.,-6.));
#181 = VECTOR('',#182,1.);
#182 = DIRECTION('',(1.,0.));
#183 = ( GEOMETRIC_REPRESENTATION_CONTEXT(2) 
PARAMETRIC_REPRESENTATION_CONTEXT() REPRESENTATION_CONTEXT('2D SPACE',''
  ) );
#184 = PCURVE('',#72,#185);
#185 = DEFINITIONAL_REPRESENTATION('',(#186),#190);
#186 = LINE('',#187,#188);
#187 = CARTESIAN_POINT('',(-7.72672545362,-138.1517254536));
#188 = VECTOR('',#189,1.);
#189 = DIRECTION('',(1.,0.));
#190 = ( GEOMETRIC_REPRESENTATION_CONTEXT(2) 
PARAMETRIC_REPRESENTATION_CONTEXT() REPRESENTATION_CONTEXT('2D SPACE',''
  ) );
#191 = ORIENTED_EDGE('',*,*,#21,.F.);
#192 = ORIENTED_EDGE('',*,*,#193,.F.);
#193 = EDGE_CURVE('',#142,#22,#194,.T.);
#194 = SURFACE_CURVE('',#195,(#199,#206),.PCURVE_S1.);
#195 = LINE('',#196,#197);
#196 = CARTESIAN_POINT('',(0.15,91.7,23.));
#197 = VECTOR('',#198,1.);
#198 = DIRECTION('',(0.,0.,-1.));
#199 = PCURVE('',#44,#200);
#200 = DEFINITIONAL_REPRESENTATION('',(#201),#205);
#201 = LINE('',#202,#203);
#202 = CARTESIAN_POINT('',(0.,0.));
#203 = VECTOR('',#204,1.);
#204 = DIRECTION('',(1.,0.));
#205 = ( GEOMETRIC_REPRESENTATION_CONTEXT(2) 
PARAMETRIC_REPRESENTATION_CONTEXT() REPRESENTATION_CONTEXT('2D SPACE',''
  ) );
#206 = PCURVE('',#126,#207);
#207 = DEFINITIONAL_REPRESENTATION('',(#208),#212);
#208 = LINE('',#209,#210);
#209 = CARTESIAN_POINT('',(-7.72672545362,-138.1517254536));
#210 = VECTOR('',#211,1.);
#211 = DIRECTION('',(1.,0.));
#212 = ( GEOMETRIC_REPRESENTATION_CONTEXT(2) 
PARAMETRIC_REPRESENTATION_CONTEXT() REPRESENTATION_CONTEXT('2D SPACE',''
  ) );
#213 = ADVANCED_FACE('',(#214),#72,.T.);
#214 = FACE_BOUND('',#215,.T.);
#215 = EDGE_LOOP('',(#216,#246,#267,#268,#269,#292,#320,#348,#374,#402,
    #430,#500,#551,#577,#603));
#216 = ORIENTED_EDGE('',*,*,#217,.T.);
#217 = EDGE_CURVE('',#218,#220,#222,.T.);
#218 = VERTEX_POINT('',#219);
#219 = CARTESIAN_POINT('',(278.,85.7,10.822460060836));
#220 = VERTEX_POINT('',#221);
#221 = CARTESIAN_POINT('',(278.,85.7,23.));
#222 = SURFACE_CURVE('',#223,(#227,#234),.PCURVE_S1.);
#223 = LINE('',#224,#225);
#224 = CARTESIAN_POINT('',(278.,85.7,8.));
#225 = VECTOR('',#226,1.);
#226 = DIRECTION('',(0.,0.,1.));
#227 = PCURVE('',#72,#228);
#228 = DEFINITIONAL_REPRESENTATION('',(#229),#233);
#229 = LINE('',#230,#231);
#230 = CARTESIAN_POINT('',(7.27327454638,139.69827454638));
#231 = VECTOR('',#232,1.);
#232 = DIRECTION('',(-1.,0.));
#233 = ( GEOMETRIC_REPRESENTATION_CONTEXT(2) 
PARAMETRIC_REPRESENTATION_CONTEXT() REPRESENTATION_CONTEXT('2D SPACE',''
  ) );
#234 = PCURVE('',#235,#240);
#235 = PLANE('',#236);
#236 = AXIS2_PLACEMENT_3D('',#237,#238,#239);
#237 = CARTESIAN_POINT('',(278.,91.7,8.));
#238 = DIRECTION('',(-1.,0.,0.));
#239 = DIRECTION('',(0.,0.,1.));
#240 = DEFINITIONAL_REPRESENTATION('',(#241),#245);
#241 = LINE('',#242,#243);
#242 = CARTESIAN_POINT('',(0.,-6.));
#243 = VECTOR('',#244,1.);
#244 = DIRECTION('',(1.,0.));
#245 = ( GEOMETRIC_REPRESENTATION_CONTEXT(2) 
PARAMETRIC_REPRESENTATION_CONTEXT() REPRESENTATION_CONTEXT('2D SPACE',''
  ) );
#246 = ORIENTED_EDGE('',*,*,#247,.T.);
#247 = EDGE_CURVE('',#220,#144,#248,.T.);
#248 = SURFACE_CURVE('',#249,(#253,#260),.PCURVE_S1.);
#249 = LINE('',#250,#251);
#250 = CARTESIAN_POINT('',(278.,85.7,23.));
#251 = VECTOR('',#252,1.);
#252 = DIRECTION('',(-1.,0.,0.));
#253 = PCURVE('',#72,#254);
#254 = DEFINITIONAL_REPRESENTATION('',(#255),#259);
#255 = LINE('',#256,#257);
#256 = CARTESIAN_POINT('',(-7.72672545362,139.69827454638));
#257 = VECTOR('',#258,1.);
#258 = DIRECTION('',(0.,-1.));
#259 = ( GEOMETRIC_REPRESENTATION_CONTEXT(2) 
PARAMETRIC_REPRESENTATION_CONTEXT() REPRESENTATION_CONTEXT('2D SPACE',''
  ) );
#260 = PCURVE('',#159,#261);
#261 = DEFINITIONAL_REPRESENTATION('',(#262),#266);
#262 = LINE('',#263,#264);
#263 = CARTESIAN_POINT('',(0.,-6.));
#264 = VECTOR('',#265,1.);
#265 = DIRECTION('',(1.,0.));
#266 = ( GEOMETRIC_REPRESENTATION_CONTEXT(2) 
PARAMETRIC_REPRESENTATION_CONTEXT() REPRESENTATION_CONTEXT('2D SPACE',''
  ) );
#267 = ORIENTED_EDGE('',*,*,#171,.T.);
#268 = ORIENTED_EDGE('',*,*,#56,.T.);
#269 = ORIENTED_EDGE('',*,*,#270,.T.);
#270 = EDGE_CURVE('',#57,#271,#273,.T.);
#271 = VERTEX_POINT('',#272);
#272 = CARTESIAN_POINT('',(50.,85.7,8.));
#273 = SURFACE_CURVE('',#274,(#278,#285),.PCURVE_S1.);
#274 = LINE('',#275,#276);
#275 = CARTESIAN_POINT('',(50.,85.7,6.));
#276 = VECTOR('',#277,1.);
#277 = DIRECTION('',(0.,0.,1.));
#278 = PCURVE('',#72,#279);
#279 = DEFINITIONAL_REPRESENTATION('',(#280),#284);
#280 = LINE('',#281,#282);
#281 = CARTESIAN_POINT('',(9.27327454638,-88.30172545362));
#282 = VECTOR('',#283,1.);
#283 = DIRECTION('',(-1.,0.));
#284 = ( GEOMETRIC_REPRESENTATION_CONTEXT(2) 
PARAMETRIC_REPRESENTATION_CONTEXT() REPRESENTATION_CONTEXT('2D SPACE',''
  ) );
#285 = PCURVE('',#100,#286);
#286 = DEFINITIONAL_REPRESENTATION('',(#287),#291);
#287 = LINE('',#288,#289);
#288 = CARTESIAN_POINT('',(0.,-6.));
#289 = VECTOR('',#290,1.);
#290 = DIRECTION('',(1.,0.));
#291 = ( GEOMETRIC_REPRESENTATION_CONTEXT(2) 
PARAMETRIC_REPRESENTATION_CONTEXT() REPRESENTATION_CONTEXT('2D SPACE',''
  ) );
#292 = ORIENTED_EDGE('',*,*,#293,.T.);
#293 = EDGE_CURVE('',#271,#294,#296,.T.);
#294 = VERTEX_POINT('',#295);
#295 = CARTESIAN_POINT('',(99.8952,85.7,8.));
#296 = SURFACE_CURVE('',#297,(#301,#308),.PCURVE_S1.);
#297 = LINE('',#298,#299);
#298 = CARTESIAN_POINT('',(50.,85.7,8.));
#299 = VECTOR('',#300,1.);
#300 = DIRECTION('',(1.,0.,0.));
#301 = PCURVE('',#72,#302);
#302 = DEFINITIONAL_REPRESENTATION('',(#303),#307);
#303 = LINE('',#304,#305);
#304 = CARTESIAN_POINT('',(7.27327454638,-88.30172545362));
#305 = VECTOR('',#306,1.);
#306 = DIRECTION('',(0.,1.));
#307 = ( GEOMETRIC_REPRESENTATION_CONTEXT(2) 
PARAMETRIC_REPRESENTATION_CONTEXT() REPRESENTATION_CONTEXT('2D SPACE',''
  ) );
#308 = PCURVE('',#309,#314);
#309 = PLANE('',#310);
#310 = AXIS2_PLACEMENT_3D('',#311,#312,#313);
#311 = CARTESIAN_POINT('',(50.,91.7,8.));
#312 = DIRECTION('',(-0.,0.,1.));
#313 = DIRECTION('',(1.,0.,0.));
#314 = DEFINITIONAL_REPRESENTATION('',(#315),#319);
#315 = LINE('',#316,#317);
#316 = CARTESIAN_POINT('',(0.,-6.));
#317 = VECTOR('',#318,1.);
#318 = DIRECTION('',(1.,0.));
#319 = ( GEOMETRIC_REPRESENTATION_CONTEXT(2) 
PARAMETRIC_REPRESENTATION_CONTEXT() REPRESENTATION_CONTEXT('2D SPACE',''
  ) );
#320 = ORIENTED_EDGE('',*,*,#321,.T.);
#321 = EDGE_CURVE('',#294,#322,#324,.T.);
#322 = VERTEX_POINT('',#323);
#323 = CARTESIAN_POINT('',(99.892001277894,85.7,8.399840263246));
#324 = SURFACE_CURVE('',#325,(#329,#336),.PCURVE_S1.);
#325 = LINE('',#326,#327);
#326 = CARTESIAN_POINT('',(99.885727080724,85.7,9.184114909555));
#327 = VECTOR('',#328,1.);
#328 = DIRECTION('',(-7.999744012286E-03,0.,0.999968001536));
#329 = PCURVE('',#72,#330);
#330 = DEFINITIONAL_REPRESENTATION('',(#331),#335);
#331 = LINE('',#332,#333);
#332 = CARTESIAN_POINT('',(6.089159636825,-38.41599837289));
#333 = VECTOR('',#334,1.);
#334 = DIRECTION('',(-0.999968001536,-7.999744012286E-03));
#335 = ( GEOMETRIC_REPRESENTATION_CONTEXT(2) 
PARAMETRIC_REPRESENTATION_CONTEXT() REPRESENTATION_CONTEXT('2D SPACE',''
  ) );
#336 = PCURVE('',#337,#342);
#337 = PLANE('',#338);
#338 = AXIS2_PLACEMENT_3D('',#339,#340,#341);
#339 = CARTESIAN_POINT('',(99.600319616511,93.992009587218,3.4));
#340 = DIRECTION('',(0.999169036898,3.996676147594E-02,
    7.993352295188E-03));
#341 = DIRECTION('',(3.996803834888E-02,-0.999200958722,
    1.599198204416E-16));
#342 = DEFINITIONAL_REPRESENTATION('',(#343),#347);
#343 = LINE('',#344,#345);
#344 = CARTESIAN_POINT('',(8.296791105753,-5.784299702607));
#345 = VECTOR('',#346,1.);
#346 = DIRECTION('',(-3.197340754641E-04,-0.999999948885));
#347 = ( GEOMETRIC_REPRESENTATION_CONTEXT(2) 
PARAMETRIC_REPRESENTATION_CONTEXT() REPRESENTATION_CONTEXT('2D SPACE',''
  ) );
#348 = ORIENTED_EDGE('',*,*,#349,.F.);
#349 = EDGE_CURVE('',#350,#322,#352,.T.);
#350 = VERTEX_POINT('',#351);
#351 = CARTESIAN_POINT('',(99.891996166379,85.7,8.400479202607));
#352 = SURFACE_CURVE('',#353,(#357,#363),.PCURVE_S1.);
#353 = LINE('',#354,#355);
#354 = CARTESIAN_POINT('',(99.8857334752,85.7,9.183315599944));
#355 = VECTOR('',#356,1.);
#356 = DIRECTION('',(7.999744012287E-03,0.,-0.999968001536));
#357 = PCURVE('',#72,#358);
#358 = DEFINITIONAL_REPRESENTATION('',(#359),#362);
#359 = B_SPLINE_CURVE_WITH_KNOTS('',1,(#360,#361),.UNSPECIFIED.,.F.,.F.,
  (2,2),(-0.216499643607,3.183417464413),.PIECEWISE_BEZIER_KNOTS.);
#360 = CARTESIAN_POINT('',(5.873466230485,-38.41772392014));
#361 = CARTESIAN_POINT('',(9.27327454638,-38.39052545362));
#362 = ( GEOMETRIC_REPRESENTATION_CONTEXT(2) 
PARAMETRIC_REPRESENTATION_CONTEXT() REPRESENTATION_CONTEXT('2D SPACE',''
  ) );
#363 = PCURVE('',#364,#369);
#364 = PLANE('',#365);
#365 = AXIS2_PLACEMENT_3D('',#366,#367,#368);
#366 = CARTESIAN_POINT('',(99.800159808256,88.996004793609,3.4));
#367 = DIRECTION('',(-0.999169036898,-3.996676147593E-02,
    -7.993352295186E-03));
#368 = DIRECTION('',(-3.996803834887E-02,0.999200958722,
    -5.421010862428E-20));
#369 = DEFINITIONAL_REPRESENTATION('',(#370),#373);
#370 = B_SPLINE_CURVE_WITH_KNOTS('',1,(#371,#372),.UNSPECIFIED.,.F.,.F.,
  (2,2),(-0.216499643607,3.183417464413),.PIECEWISE_BEZIER_KNOTS.);
#371 = CARTESIAN_POINT('',(-3.296722139014,-6.));
#372 = CARTESIAN_POINT('',(-3.297809208368,-2.600083065766));
#373 = ( GEOMETRIC_REPRESENTATION_CONTEXT(2) 
PARAMETRIC_REPRESENTATION_CONTEXT() REPRESENTATION_CONTEXT('2D SPACE',''
  ) );
#374 = ORIENTED_EDGE('',*,*,#375,.F.);
#375 = EDGE_CURVE('',#376,#350,#378,.T.);
#376 = VERTEX_POINT('',#377);
#377 = CARTESIAN_POINT('',(99.832,85.7,8.4));
#378 = SURFACE_CURVE('',#379,(#383,#390),.PCURVE_S1.);
#379 = LINE('',#380,#381);
#380 = CARTESIAN_POINT('',(119.17707777371,85.7,8.554513400749));
#381 = VECTOR('',#382,1.);
#382 = DIRECTION('',(0.999968103681,-0.,7.986965684351E-03));
#383 = PCURVE('',#72,#384);
#384 = DEFINITIONAL_REPRESENTATION('',(#385),#389);
#385 = LINE('',#386,#387);
#386 = CARTESIAN_POINT('',(6.718761145631,-19.12464767991));
#387 = VECTOR('',#388,1.);
#388 = DIRECTION('',(-7.986965684351E-03,0.999968103681));
#389 = ( GEOMETRIC_REPRESENTATION_CONTEXT(2) 
PARAMETRIC_REPRESENTATION_CONTEXT() REPRESENTATION_CONTEXT('2D SPACE',''
  ) );
#390 = PCURVE('',#391,#396);
#391 = PLANE('',#392);
#392 = AXIS2_PLACEMENT_3D('',#393,#394,#395);
#393 = CARTESIAN_POINT('',(100.,81.5,8.4));
#394 = DIRECTION('',(7.986965276753E-03,3.194786110701E-04,
    -0.999968052649));
#395 = DIRECTION('',(0.999169036898,3.996676147594E-02,
    7.993352295188E-03));
#396 = DEFINITIONAL_REPRESENTATION('',(#397),#401);
#397 = LINE('',#398,#399);
#398 = CARTESIAN_POINT('',(19.330237807926,-3.430173846752));
#399 = VECTOR('',#400,1.);
#400 = DIRECTION('',(0.999201009714,3.996676351558E-02));
#401 = ( GEOMETRIC_REPRESENTATION_CONTEXT(2) 
PARAMETRIC_REPRESENTATION_CONTEXT() REPRESENTATION_CONTEXT('2D SPACE',''
  ) );
#402 = ORIENTED_EDGE('',*,*,#403,.F.);
#403 = EDGE_CURVE('',#404,#376,#406,.T.);
#404 = VERTEX_POINT('',#405);
#405 = CARTESIAN_POINT('',(99.832000000001,85.7,17.872243161309));
#406 = SURFACE_CURVE('',#407,(#411,#418),.PCURVE_S1.);
#407 = LINE('',#408,#409);
#408 = CARTESIAN_POINT('',(99.832,85.7,17.48663727319));
#409 = VECTOR('',#410,1.);
#410 = DIRECTION('',(0.,0.,-1.));
#411 = PCURVE('',#72,#412);
#412 = DEFINITIONAL_REPRESENTATION('',(#413),#417);
#413 = LINE('',#414,#415);
#414 = CARTESIAN_POINT('',(-2.21336272681,-38.46972545362));
#415 = VECTOR('',#416,1.);
#416 = DIRECTION('',(1.,0.));
#417 = ( GEOMETRIC_REPRESENTATION_CONTEXT(2) 
PARAMETRIC_REPRESENTATION_CONTEXT() REPRESENTATION_CONTEXT('2D SPACE',''
  ) );
#418 = PCURVE('',#419,#424);
#419 = PLANE('',#420);
#420 = AXIS2_PLACEMENT_3D('',#421,#422,#423);
#421 = CARTESIAN_POINT('',(100.,81.5,19.7));
#422 = DIRECTION('',(-0.999200958722,-3.996803834886E-02,-0.));
#423 = DIRECTION('',(0.,0.,-1.));
#424 = DEFINITIONAL_REPRESENTATION('',(#425),#429);
#425 = LINE('',#426,#427);
#426 = CARTESIAN_POINT('',(2.21336272681,-4.203358657074));
#427 = VECTOR('',#428,1.);
#428 = DIRECTION('',(1.,0.));
#429 = ( GEOMETRIC_REPRESENTATION_CONTEXT(2) 
PARAMETRIC_REPRESENTATION_CONTEXT() REPRESENTATION_CONTEXT('2D SPACE',''
  ) );
#430 = ORIENTED_EDGE('',*,*,#431,.F.);
#431 = EDGE_CURVE('',#432,#404,#434,.T.);
#432 = VERTEX_POINT('',#433);
#433 = CARTESIAN_POINT('',(79.950019984016,85.7,19.75985017976));
#434 = SURFACE_CURVE('',#435,(#440,#447),.PCURVE_S1.);
#435 = ELLIPSE('',#436,62.550261040622,2.5);
#436 = AXIS2_PLACEMENT_3D('',#437,#438,#439);
#437 = CARTESIAN_POINT('',(142.5,85.7,19.5725));
#438 = DIRECTION('',(0.,-1.,0.));
#439 = DIRECTION('',(0.99999550003,0.,-2.999986500092E-03));
#440 = PCURVE('',#72,#441);
#441 = DEFINITIONAL_REPRESENTATION('',(#442),#446);
#442 = ELLIPSE('',#443,62.550261040622,2.5);
#443 = AXIS2_PLACEMENT_2D('',#444,#445);
#444 = CARTESIAN_POINT('',(-4.29922545362,4.19827454638));
#445 = DIRECTION('',(2.999986500092E-03,0.99999550003));
#446 = ( GEOMETRIC_REPRESENTATION_CONTEXT(2) 
PARAMETRIC_REPRESENTATION_CONTEXT() REPRESENTATION_CONTEXT('2D SPACE',''
  ) );
#447 = PCURVE('',#448,#453);
#448 = CYLINDRICAL_SURFACE('',#449,2.5);
#449 = AXIS2_PLACEMENT_3D('',#450,#451,#452);
#450 = CARTESIAN_POINT('',(0.15,80.006,19.99955));
#451 = DIRECTION('',(0.99919646953,3.996785878124E-02,
    -2.997589408592E-03));
#452 = DIRECTION('',(-3.996803834889E-02,0.999200958722,
    8.988036009905E-17));
#453 = DEFINITIONAL_REPRESENTATION('',(#454),#499);
#454 = B_SPLINE_CURVE_WITH_KNOTS('',8,(#455,#456,#457,#458,#459,#460,
    #461,#462,#463,#464,#465,#466,#467,#468,#469,#470,#471,#472,#473,
    #474,#475,#476,#477,#478,#479,#480,#481,#482,#483,#484,#485,#486,
    #487,#488,#489,#490,#491,#492,#493,#494,#495,#496,#497,#498),
  .UNSPECIFIED.,.F.,.F.,(9,7,7,7,7,7,9),(3.141712557166,3.927110720563,
    5.301557506509,6.332392595968,7.105518913062,8.265208388704,
    9.424897864345),.UNSPECIFIED.);
#455 = CARTESIAN_POINT('',(6.28318530718,79.964193746033));
#456 = CARTESIAN_POINT('',(6.185010536755,79.964929468469));
#457 = CARTESIAN_POINT('',(6.08683576633,80.654117490614));
#458 = CARTESIAN_POINT('',(5.988660995905,82.031745377238));
#459 = CARTESIAN_POINT('',(5.890486225481,84.083651419362));
#460 = CARTESIAN_POINT('',(5.792311455056,86.78150561936));
#461 = CARTESIAN_POINT('',(5.694136684631,90.083567019708));
#462 = CARTESIAN_POINT('',(5.595961914207,93.936108632845));
#463 = CARTESIAN_POINT('',(5.325981295539,105.86916327397));
#464 = CARTESIAN_POINT('',(5.154175447297,114.95360066465));
#465 = CARTESIAN_POINT('',(4.982369599054,125.18714551365));
#466 = CARTESIAN_POINT('',(4.810563750816,136.13441811944));
#467 = CARTESIAN_POINT('',(4.638757902564,147.29825833771));
#468 = CARTESIAN_POINT('',(4.466952054324,158.16736676954));
#469 = CARTESIAN_POINT('',(4.29514620608,168.26646746831));
#470 = CARTESIAN_POINT('',(3.994485971654,183.88965141698));
#471 = CARTESIAN_POINT('',(3.865631585473,189.92629594405));
#472 = CARTESIAN_POINT('',(3.736777199277,195.13453104079));
#473 = CARTESIAN_POINT('',(3.607922813125,199.36829761753));
#474 = CARTESIAN_POINT('',(3.47906842692,202.51387257815));
#475 = CARTESIAN_POINT('',(3.350214040746,204.49682817829));
#476 = CARTESIAN_POINT('',(3.22135965456,205.28523112127));
#477 = CARTESIAN_POINT('',(2.995864478741,204.5920074468));
#478 = CARTESIAN_POINT('',(2.899223689104,203.62861284955));
#479 = CARTESIAN_POINT('',(2.802582899466,202.00314905721));
#480 = CARTESIAN_POINT('',(2.70594210983,199.73311544056));
#481 = CARTESIAN_POINT('',(2.609301320194,196.84917163458));
#482 = CARTESIAN_POINT('',(2.512660530556,193.39432438989));
#483 = CARTESIAN_POINT('',(2.41601974092,189.42251825516));
#484 = CARTESIAN_POINT('',(2.174417766828,178.35806637919));
#485 = CARTESIAN_POINT('',(2.029456582372,170.69795160987));
#486 = CARTESIAN_POINT('',(1.884495397918,162.22897852739));
#487 = CARTESIAN_POINT('',(1.739534213462,153.20948520454));
#488 = CARTESIAN_POINT('',(1.594573029007,143.92939428863));
#489 = CARTESIAN_POINT('',(1.449611844553,134.69054250555));
#490 = CARTESIAN_POINT('',(1.304650660097,125.78576357071));
#491 = CARTESIAN_POINT('',(1.014728291186,109.17619691286));
#492 = CARTESIAN_POINT('',(0.869767106735,101.4714097527));
#493 = CARTESIAN_POINT('',(0.724805922276,94.632547144778));
#494 = CARTESIAN_POINT('',(0.579844737843,88.898632591066));
#495 = CARTESIAN_POINT('',(0.434883553363,84.463934315951));
#496 = CARTESIAN_POINT('',(0.289922368919,81.463009727842));
#497 = CARTESIAN_POINT('',(0.144961184455,79.963107405875));
#498 = CARTESIAN_POINT('',(5.329070518201E-15,79.964193746033));
#499 = ( GEOMETRIC_REPRESENTATION_CONTEXT(2) 
PARAMETRIC_REPRESENTATION_CONTEXT() REPRESENTATION_CONTEXT('2D SPACE',''
  ) );
#500 = ORIENTED_EDGE('',*,*,#501,.F.);
#501 = EDGE_CURVE('',#502,#432,#504,.T.);
#502 = VERTEX_POINT('',#503);
#503 = CARTESIAN_POINT('',(205.04998001598,85.700000000002,
    19.385149820239));
#504 = SURFACE_CURVE('',#505,(#510,#517),.PCURVE_S1.);
#505 = ELLIPSE('',#506,62.550261040622,2.5);
#506 = AXIS2_PLACEMENT_3D('',#507,#508,#509);
#507 = CARTESIAN_POINT('',(142.5,85.7,19.5725));
#508 = DIRECTION('',(0.,-1.,0.));
#509 = DIRECTION('',(0.99999550003,0.,-2.999986500092E-03));
#510 = PCURVE('',#72,#511);
#511 = DEFINITIONAL_REPRESENTATION('',(#512),#516);
#512 = ELLIPSE('',#513,62.550261040622,2.5);
#513 = AXIS2_PLACEMENT_2D('',#514,#515);
#514 = CARTESIAN_POINT('',(-4.29922545362,4.19827454638));
#515 = DIRECTION('',(2.999986500092E-03,0.99999550003));
#516 = ( GEOMETRIC_REPRESENTATION_CONTEXT(2) 
PARAMETRIC_REPRESENTATION_CONTEXT() REPRESENTATION_CONTEXT('2D SPACE',''
  ) );
#517 = PCURVE('',#518,#523);
#518 = CYLINDRICAL_SURFACE('',#519,2.5);
#519 = AXIS2_PLACEMENT_3D('',#520,#521,#522);
#520 = CARTESIAN_POINT('',(0.15,80.006,19.99955));
#521 = DIRECTION('',(0.99919646953,3.996785878124E-02,
    -2.997589408592E-03));
#522 = DIRECTION('',(-3.996803834889E-02,0.999200958722,
    8.988036009905E-17));
#523 = DEFINITIONAL_REPRESENTATION('',(#524),#550);
#524 = B_SPLINE_CURVE_WITH_KNOTS('',3,(#525,#526,#527,#528,#529,#530,
    #531,#532,#533,#534,#535,#536,#537,#538,#539,#540,#541,#542,#543,
    #544,#545,#546,#547,#548,#549),.UNSPECIFIED.,.F.,.F.,(4,1,1,1,1,1,1,
    1,1,1,1,1,1,1,1,1,1,1,1,1,1,1,4),(6.243326523632,6.387943402756,
    6.532560281879,6.677177161002,6.821794040126,6.966410919249,
    7.111027798372,7.255644677496,7.400261556619,7.544878435742,
    7.689495314865,7.834112193989,7.978729073112,8.123345952235,
    8.267962831359,8.412579710482,8.557196589605,8.701813468729,
    8.846430347852,8.991047226975,9.135664106099,9.280280985222,
    9.424897864345),.QUASI_UNIFORM_KNOTS.);
#525 = CARTESIAN_POINT('',(3.181571340713,204.91511456271));
#526 = CARTESIAN_POINT('',(3.133365714338,205.03742436235));
#527 = CARTESIAN_POINT('',(3.03695446159,204.838115827));
#528 = CARTESIAN_POINT('',(2.892337582467,203.24319119696));
#529 = CARTESIAN_POINT('',(2.747720703343,200.3776767755));
#530 = CARTESIAN_POINT('',(2.60310382422,196.30352149263));
#531 = CARTESIAN_POINT('',(2.458486945097,191.10521492857));
#532 = CARTESIAN_POINT('',(2.313870065974,184.89143782186));
#533 = CARTESIAN_POINT('',(2.169253186851,177.79187817561));
#534 = CARTESIAN_POINT('',(2.024636307728,169.95476882732));
#535 = CARTESIAN_POINT('',(1.880019428604,161.54372701405));
#536 = CARTESIAN_POINT('',(1.735402549481,152.73435603337));
#537 = CARTESIAN_POINT('',(1.590785670358,143.71057435526));
#538 = CARTESIAN_POINT('',(1.446168791234,134.66077708222));
#539 = CARTESIAN_POINT('',(1.301551912111,125.7739024599));
#540 = CARTESIAN_POINT('',(1.156935032987,117.23548705102));
#541 = CARTESIAN_POINT('',(1.012318153864,109.22379340541));
#542 = CARTESIAN_POINT('',(0.86770127474,101.90608368265));
#543 = CARTESIAN_POINT('',(0.723084395617,95.435145105538));
#544 = CARTESIAN_POINT('',(0.578467516494,89.946034851736));
#545 = CARTESIAN_POINT('',(0.43385063737,85.553503993358));
#546 = CARTESIAN_POINT('',(0.289233758247,82.348692596686));
#547 = CARTESIAN_POINT('',(0.144616879123,80.400620008244));
#548 = CARTESIAN_POINT('',(4.820562637441E-02,79.961593851133));
#549 = CARTESIAN_POINT('',(0.,79.964193746034));
#550 = ( GEOMETRIC_REPRESENTATION_CONTEXT(2) 
PARAMETRIC_REPRESENTATION_CONTEXT() REPRESENTATION_CONTEXT('2D SPACE',''
  ) );
#551 = ORIENTED_EDGE('',*,*,#552,.F.);
#552 = EDGE_CURVE('',#553,#502,#555,.T.);
#553 = VERTEX_POINT('',#554);
#554 = CARTESIAN_POINT('',(217.55997601918,85.7,19.347679784288));
#555 = SURFACE_CURVE('',#556,(#560,#566),.PCURVE_S1.);
#556 = LINE('',#557,#558);
#557 = CARTESIAN_POINT('',(256.71727322565,85.7,19.230395547447));
#558 = VECTOR('',#559,1.);
#559 = DIRECTION('',(-0.999995514396,0.,2.995194232415E-03));
#560 = PCURVE('',#72,#561);
#561 = DEFINITIONAL_REPRESENTATION('',(#562),#565);
#562 = B_SPLINE_CURVE_WITH_KNOTS('',1,(#563,#564),.UNSPECIFIED.,.F.,.F.,
  (2,2),(39.157472851398,51.667524969926),.PIECEWISE_BEZIER_KNOTS.);
#563 = CARTESIAN_POINT('',(-4.074405237908,79.258250565561));
#564 = CARTESIAN_POINT('',(-4.11187527386,66.748254562176));
#565 = ( GEOMETRIC_REPRESENTATION_CONTEXT(2) 
PARAMETRIC_REPRESENTATION_CONTEXT() REPRESENTATION_CONTEXT('2D SPACE',''
  ) );
#566 = PCURVE('',#567,#572);
#567 = PLANE('',#568);
#568 = AXIS2_PLACEMENT_3D('',#569,#570,#571);
#569 = CARTESIAN_POINT('',(375.11990411504,92.002397123835,18.875));
#570 = DIRECTION('',(2.995194210919E-03,1.198077684368E-04,
    0.999995507219));
#571 = DIRECTION('',(-0.99919646953,-3.996785878122E-02,
    2.997589408591E-03));
#572 = DEFINITIONAL_REPRESENTATION('',(#573),#576);
#573 = B_SPLINE_CURVE_WITH_KNOTS('',1,(#574,#575),.UNSPECIFIED.,.F.,.F.,
  (2,2),(39.157472851398,51.667524969926),.PIECEWISE_BEZIER_KNOTS.);
#574 = CARTESIAN_POINT('',(157.686634111,-2.22044604925E-16));
#575 = CARTESIAN_POINT('',(170.18669027121,-0.500000000008));
#576 = ( GEOMETRIC_REPRESENTATION_CONTEXT(2) 
PARAMETRIC_REPRESENTATION_CONTEXT() REPRESENTATION_CONTEXT('2D SPACE',''
  ) );
#577 = ORIENTED_EDGE('',*,*,#578,.F.);
#578 = EDGE_CURVE('',#579,#553,#581,.T.);
#579 = VERTEX_POINT('',#580);
#580 = CARTESIAN_POINT('',(217.55997601917,85.7,10.339712265462));
#581 = SURFACE_CURVE('',#582,(#586,#592),.PCURVE_S1.);
#582 = LINE('',#583,#584);
#583 = CARTESIAN_POINT('',(217.55997601918,85.7,14.832567733244));
#584 = VECTOR('',#585,1.);
#585 = DIRECTION('',(0.,-0.,1.));
#586 = PCURVE('',#72,#587);
#587 = DEFINITIONAL_REPRESENTATION('',(#588),#591);
#588 = B_SPLINE_CURVE_WITH_KNOTS('',1,(#589,#590),.UNSPECIFIED.,.F.,.F.,
  (2,2),(-5.432376043015,4.867432266756),.PIECEWISE_BEZIER_KNOTS.);
#589 = CARTESIAN_POINT('',(5.873082856151,79.258250565564));
#590 = CARTESIAN_POINT('',(-4.42672545362,79.258250565564));
#591 = ( GEOMETRIC_REPRESENTATION_CONTEXT(2) 
PARAMETRIC_REPRESENTATION_CONTEXT() REPRESENTATION_CONTEXT('2D SPACE',''
  ) );
#592 = PCURVE('',#593,#598);
#593 = PLANE('',#594);
#594 = AXIS2_PLACEMENT_3D('',#595,#596,#597);
#595 = CARTESIAN_POINT('',(236.89022101884,86.473209799986,
    14.391860920108));
#596 = DIRECTION('',(3.996803834887E-02,-0.999200958722,-0.));
#597 = DIRECTION('',(-0.999200958722,-3.996803834887E-02,0.));
#598 = DEFINITIONAL_REPRESENTATION('',(#599),#602);
#599 = B_SPLINE_CURVE_WITH_KNOTS('',1,(#600,#601),.UNSPECIFIED.,.F.,.F.,
  (2,2),(-5.432376043015,4.867432266756),.PIECEWISE_BEZIER_KNOTS.);
#600 = CARTESIAN_POINT('',(19.345703014921,4.991669229879));
#601 = CARTESIAN_POINT('',(19.345703014921,-5.308139079892));
#602 = ( GEOMETRIC_REPRESENTATION_CONTEXT(2) 
PARAMETRIC_REPRESENTATION_CONTEXT() REPRESENTATION_CONTEXT('2D SPACE',''
  ) );
#603 = ORIENTED_EDGE('',*,*,#604,.T.);
#604 = EDGE_CURVE('',#579,#218,#605,.T.);
#605 = SURFACE_CURVE('',#606,(#610,#616),.PCURVE_S1.);
#606 = LINE('',#607,#608);
#607 = CARTESIAN_POINT('',(249.80375734936,85.7,10.597250455));
#608 = VECTOR('',#609,1.);
#609 = DIRECTION('',(0.999968103681,-0.,7.986965684352E-03));
#610 = PCURVE('',#72,#611);
#611 = DEFINITIONAL_REPRESENTATION('',(#612),#615);
#612 = B_SPLINE_CURVE_WITH_KNOTS('',1,(#613,#614),.UNSPECIFIED.,.F.,.F.,
  (2,2),(-150.2561309884,28.197142035672),.PIECEWISE_BEZIER_KNOTS.);
#613 = CARTESIAN_POINT('',(5.876114653449,-38.74930647523));
#614 = CARTESIAN_POINT('',(4.450814485544,139.69827454638));
#615 = ( GEOMETRIC_REPRESENTATION_CONTEXT(2) 
PARAMETRIC_REPRESENTATION_CONTEXT() REPRESENTATION_CONTEXT('2D SPACE',''
  ) );
#616 = PCURVE('',#617,#622);
#617 = PLANE('',#618);
#618 = AXIS2_PLACEMENT_3D('',#619,#620,#621);
#619 = CARTESIAN_POINT('',(361.26130796883,94.450452318753,
    11.490282153979));
#620 = DIRECTION('',(7.986965276751E-03,3.1947861107E-04,-0.999968052649
    ));
#621 = DIRECTION('',(-0.999968103681,0.,-7.986965684352E-03));
#622 = DEFINITIONAL_REPRESENTATION('',(#623),#626);
#623 = B_SPLINE_CURVE_WITH_KNOTS('',1,(#624,#625),.UNSPECIFIED.,.F.,.F.,
  (2,2),(-150.2561309884,28.197142035672),.PIECEWISE_BEZIER_KNOTS.);
#624 = CARTESIAN_POINT('',(261.71725913588,-8.750452765318));
#625 = CARTESIAN_POINT('',(83.263986111728,-8.750452765318));
#626 = ( GEOMETRIC_REPRESENTATION_CONTEXT(2) 
PARAMETRIC_REPRESENTATION_CONTEXT() REPRESENTATION_CONTEXT('2D SPACE',''
  ) );
#627 = ADVANCED_FACE('',(#628),#100,.F.);
#628 = FACE_BOUND('',#629,.F.);
#629 = EDGE_LOOP('',(#630,#631,#632,#655));
#630 = ORIENTED_EDGE('',*,*,#84,.T.);
#631 = ORIENTED_EDGE('',*,*,#270,.T.);
#632 = ORIENTED_EDGE('',*,*,#633,.F.);
#633 = EDGE_CURVE('',#634,#271,#636,.T.);
#634 = VERTEX_POINT('',#635);
#635 = CARTESIAN_POINT('',(50.,91.7,8.));
#636 = SURFACE_CURVE('',#637,(#641,#648),.PCURVE_S1.);
#637 = LINE('',#638,#639);
#638 = CARTESIAN_POINT('',(50.,91.7,8.));
#639 = VECTOR('',#640,1.);
#640 = DIRECTION('',(0.,-1.,0.));
#641 = PCURVE('',#100,#642);
#642 = DEFINITIONAL_REPRESENTATION('',(#643),#647);
#643 = LINE('',#644,#645);
#644 = CARTESIAN_POINT('',(2.,0.));
#645 = VECTOR('',#646,1.);
#646 = DIRECTION('',(0.,-1.));
#647 = ( GEOMETRIC_REPRESENTATION_CONTEXT(2) 
PARAMETRIC_REPRESENTATION_CONTEXT() REPRESENTATION_CONTEXT('2D SPACE',''
  ) );
#648 = PCURVE('',#309,#649);
#649 = DEFINITIONAL_REPRESENTATION('',(#650),#654);
#650 = LINE('',#651,#652);
#651 = CARTESIAN_POINT('',(0.,0.));
#652 = VECTOR('',#653,1.);
#653 = DIRECTION('',(0.,-1.));
#654 = ( GEOMETRIC_REPRESENTATION_CONTEXT(2) 
PARAMETRIC_REPRESENTATION_CONTEXT() REPRESENTATION_CONTEXT('2D SPACE',''
  ) );
#655 = ORIENTED_EDGE('',*,*,#656,.F.);
#656 = EDGE_CURVE('',#85,#634,#657,.T.);
#657 = SURFACE_CURVE('',#658,(#662,#669),.PCURVE_S1.);
#658 = LINE('',#659,#660);
#659 = CARTESIAN_POINT('',(50.,91.7,6.));
#660 = VECTOR('',#661,1.);
#661 = DIRECTION('',(0.,0.,1.));
#662 = PCURVE('',#100,#663);
#663 = DEFINITIONAL_REPRESENTATION('',(#664),#668);
#664 = LINE('',#665,#666);
#665 = CARTESIAN_POINT('',(0.,0.));
#666 = VECTOR('',#667,1.);
#667 = DIRECTION('',(1.,0.));
#668 = ( GEOMETRIC_REPRESENTATION_CONTEXT(2) 
PARAMETRIC_REPRESENTATION_CONTEXT() REPRESENTATION_CONTEXT('2D SPACE',''
  ) );
#669 = PCURVE('',#126,#670);
#670 = DEFINITIONAL_REPRESENTATION('',(#671),#675);
#671 = LINE('',#672,#673);
#672 = CARTESIAN_POINT('',(9.27327454638,-88.30172545362));
#673 = VECTOR('',#674,1.);
#674 = DIRECTION('',(-1.,0.));
#675 = ( GEOMETRIC_REPRESENTATION_CONTEXT(2) 
PARAMETRIC_REPRESENTATION_CONTEXT() REPRESENTATION_CONTEXT('2D SPACE',''
  ) );
#676 = ADVANCED_FACE('',(#677),#126,.F.);
#677 = FACE_BOUND('',#678,.F.);
#678 = EDGE_LOOP('',(#679,#716,#739,#760,#761,#762,#763,#786,#809,#830,
    #856,#882));
#679 = ORIENTED_EDGE('',*,*,#680,.F.);
#680 = EDGE_CURVE('',#681,#683,#685,.T.);
#681 = VERTEX_POINT('',#682);
#682 = CARTESIAN_POINT('',(278.,91.7,21.597841389977));
#683 = VERTEX_POINT('',#684);
#684 = CARTESIAN_POINT('',(229.95001998401,91.7,19.30985017976));
#685 = SURFACE_CURVE('',#686,(#691,#698),.PCURVE_S1.);
#686 = ELLIPSE('',#687,62.550261040622,2.5);
#687 = AXIS2_PLACEMENT_3D('',#688,#689,#690);
#688 = CARTESIAN_POINT('',(292.5,91.7,19.1225));
#689 = DIRECTION('',(0.,-1.,0.));
#690 = DIRECTION('',(0.99999550003,0.,-2.999986500092E-03));
#691 = PCURVE('',#126,#692);
#692 = DEFINITIONAL_REPRESENTATION('',(#693),#697);
#693 = ELLIPSE('',#694,62.550261040622,2.5);
#694 = AXIS2_PLACEMENT_2D('',#695,#696);
#695 = CARTESIAN_POINT('',(-3.84922545362,154.19827454638));
#696 = DIRECTION('',(2.999986500092E-03,0.99999550003));
#697 = ( GEOMETRIC_REPRESENTATION_CONTEXT(2) 
PARAMETRIC_REPRESENTATION_CONTEXT() REPRESENTATION_CONTEXT('2D SPACE',''
  ) );
#698 = PCURVE('',#518,#699);
#699 = DEFINITIONAL_REPRESENTATION('',(#700),#715);
#700 = B_SPLINE_CURVE_WITH_KNOTS('',7,(#701,#702,#703,#704,#705,#706,
    #707,#708,#709,#710,#711,#712,#713,#714),.UNSPECIFIED.,.F.,.F.,(8,6,
    8),(1.356895957497,2.249304257332,3.141712557166),.UNSPECIFIED.);
#701 = CARTESIAN_POINT('',(1.784816599668,305.85222238838));
#702 = CARTESIAN_POINT('',(1.657329699692,298.06584201264));
#703 = CARTESIAN_POINT('',(1.529842799715,290.02789427769));
#704 = CARTESIAN_POINT('',(1.402355899739,281.94507827007));
#705 = CARTESIAN_POINT('',(1.274868999763,274.03411684205));
#706 = CARTESIAN_POINT('',(1.147382099787,266.50801675488));
#707 = CARTESIAN_POINT('',(1.01989519981,259.56105878625));
#708 = CARTESIAN_POINT('',(0.764921399858,247.15477375769));
#709 = CARTESIAN_POINT('',(0.637434499881,241.69544728752));
#710 = CARTESIAN_POINT('',(0.509947599905,237.14460128833));
#711 = CARTESIAN_POINT('',(0.382460699929,233.63731490611));
#712 = CARTESIAN_POINT('',(0.254973799953,231.26802365508));
#713 = CARTESIAN_POINT('',(0.127486899976,230.08386485578));
#714 = CARTESIAN_POINT('',(0.,230.08482024352));
#715 = ( GEOMETRIC_REPRESENTATION_CONTEXT(2) 
PARAMETRIC_REPRESENTATION_CONTEXT() REPRESENTATION_CONTEXT('2D SPACE',''
  ) );
#716 = ORIENTED_EDGE('',*,*,#717,.T.);
#717 = EDGE_CURVE('',#681,#718,#720,.T.);
#718 = VERTEX_POINT('',#719);
#719 = CARTESIAN_POINT('',(278.,91.7,23.));
#720 = SURFACE_CURVE('',#721,(#725,#732),.PCURVE_S1.);
#721 = LINE('',#722,#723);
#722 = CARTESIAN_POINT('',(278.,91.7,8.));
#723 = VECTOR('',#724,1.);
#724 = DIRECTION('',(0.,0.,1.));
#725 = PCURVE('',#126,#726);
#726 = DEFINITIONAL_REPRESENTATION('',(#727),#731);
#727 = LINE('',#728,#729);
#728 = CARTESIAN_POINT('',(7.27327454638,139.69827454638));
#729 = VECTOR('',#730,1.);
#730 = DIRECTION('',(-1.,0.));
#731 = ( GEOMETRIC_REPRESENTATION_CONTEXT(2) 
PARAMETRIC_REPRESENTATION_CONTEXT() REPRESENTATION_CONTEXT('2D SPACE',''
  ) );
#732 = PCURVE('',#235,#733);
#733 = DEFINITIONAL_REPRESENTATION('',(#734),#738);
#734 = LINE('',#735,#736);
#735 = CARTESIAN_POINT('',(0.,0.));
#736 = VECTOR('',#737,1.);
#737 = DIRECTION('',(1.,0.));
#738 = ( GEOMETRIC_REPRESENTATION_CONTEXT(2) 
PARAMETRIC_REPRESENTATION_CONTEXT() REPRESENTATION_CONTEXT('2D SPACE',''
  ) );
#739 = ORIENTED_EDGE('',*,*,#740,.T.);
#740 = EDGE_CURVE('',#718,#142,#741,.T.);
#741 = SURFACE_CURVE('',#742,(#746,#753),.PCURVE_S1.);
#742 = LINE('',#743,#744);
#743 = CARTESIAN_POINT('',(278.,91.7,23.));
#744 = VECTOR('',#745,1.);
#745 = DIRECTION('',(-1.,0.,0.));
#746 = PCURVE('',#126,#747);
#747 = DEFINITIONAL_REPRESENTATION('',(#748),#752);
#748 = LINE('',#749,#750);
#749 = CARTESIAN_POINT('',(-7.72672545362,139.69827454638));
#750 = VECTOR('',#751,1.);
#751 = DIRECTION('',(0.,-1.));
#752 = ( GEOMETRIC_REPRESENTATION_CONTEXT(2) 
PARAMETRIC_REPRESENTATION_CONTEXT() REPRESENTATION_CONTEXT('2D SPACE',''
  ) );
#753 = PCURVE('',#159,#754);
#754 = DEFINITIONAL_REPRESENTATION('',(#755),#759);
#755 = LINE('',#756,#757);
#756 = CARTESIAN_POINT('',(0.,0.));
#757 = VECTOR('',#758,1.);
#758 = DIRECTION('',(1.,0.));
#759 = ( GEOMETRIC_REPRESENTATION_CONTEXT(2) 
PARAMETRIC_REPRESENTATION_CONTEXT() REPRESENTATION_CONTEXT('2D SPACE',''
  ) );
#760 = ORIENTED_EDGE('',*,*,#193,.T.);
#761 = ORIENTED_EDGE('',*,*,#112,.T.);
#762 = ORIENTED_EDGE('',*,*,#656,.T.);
#763 = ORIENTED_EDGE('',*,*,#764,.T.);
#764 = EDGE_CURVE('',#634,#765,#767,.T.);
#765 = VERTEX_POINT('',#766);
#766 = CARTESIAN_POINT('',(99.6552,91.7,8.));
#767 = SURFACE_CURVE('',#768,(#772,#779),.PCURVE_S1.);
#768 = LINE('',#769,#770);
#769 = CARTESIAN_POINT('',(50.,91.7,8.));
#770 = VECTOR('',#771,1.);
#771 = DIRECTION('',(1.,0.,0.));
#772 = PCURVE('',#126,#773);
#773 = DEFINITIONAL_REPRESENTATION('',(#774),#778);
#774 = LINE('',#775,#776);
#775 = CARTESIAN_POINT('',(7.27327454638,-88.30172545362));
#776 = VECTOR('',#777,1.);
#777 = DIRECTION('',(0.,1.));
#778 = ( GEOMETRIC_REPRESENTATION_CONTEXT(2) 
PARAMETRIC_REPRESENTATION_CONTEXT() REPRESENTATION_CONTEXT('2D SPACE',''
  ) );
#779 = PCURVE('',#309,#780);
#780 = DEFINITIONAL_REPRESENTATION('',(#781),#785);
#781 = LINE('',#782,#783);
#782 = CARTESIAN_POINT('',(0.,0.));
#783 = VECTOR('',#784,1.);
#784 = DIRECTION('',(1.,0.));
#785 = ( GEOMETRIC_REPRESENTATION_CONTEXT(2) 
PARAMETRIC_REPRESENTATION_CONTEXT() REPRESENTATION_CONTEXT('2D SPACE',''
  ) );
#786 = ORIENTED_EDGE('',*,*,#787,.T.);
#787 = EDGE_CURVE('',#765,#788,#790,.T.);
#788 = VERTEX_POINT('',#789);
#789 = CARTESIAN_POINT('',(99.652001277894,91.7,8.399840263246));
#790 = SURFACE_CURVE('',#791,(#795,#802),.PCURVE_S1.);
#791 = LINE('',#792,#793);
#792 = CARTESIAN_POINT('',(99.645742439741,91.7,9.182195032427));
#793 = VECTOR('',#794,1.);
#794 = DIRECTION('',(-7.999744012286E-03,0.,0.999968001536));
#795 = PCURVE('',#126,#796);
#796 = DEFINITIONAL_REPRESENTATION('',(#797),#801);
#797 = LINE('',#798,#799);
#798 = CARTESIAN_POINT('',(6.091079513953,-38.65598301387));
#799 = VECTOR('',#800,1.);
#800 = DIRECTION('',(-0.999968001536,-7.999744012286E-03));
#801 = ( GEOMETRIC_REPRESENTATION_CONTEXT(2) 
PARAMETRIC_REPRESENTATION_CONTEXT() REPRESENTATION_CONTEXT('2D SPACE',''
  ) );
#802 = PCURVE('',#337,#803);
#803 = DEFINITIONAL_REPRESENTATION('',(#804),#808);
#804 = LINE('',#805,#806);
#805 = CARTESIAN_POINT('',(2.291993638089,-5.782379764142));
#806 = VECTOR('',#807,1.);
#807 = DIRECTION('',(-3.197340754641E-04,-0.999999948885));
#808 = ( GEOMETRIC_REPRESENTATION_CONTEXT(2) 
PARAMETRIC_REPRESENTATION_CONTEXT() REPRESENTATION_CONTEXT('2D SPACE',''
  ) );
#809 = ORIENTED_EDGE('',*,*,#810,.F.);
#810 = EDGE_CURVE('',#811,#788,#813,.T.);
#811 = VERTEX_POINT('',#812);
#812 = CARTESIAN_POINT('',(99.644001533473,91.7,9.399808315895));
#813 = SURFACE_CURVE('',#814,(#818,#824),.PCURVE_S1.);
#814 = LINE('',#815,#816);
#815 = CARTESIAN_POINT('',(99.645748834217,91.7,9.181395722816));
#816 = VECTOR('',#817,1.);
#817 = DIRECTION('',(7.999744012287E-03,0.,-0.999968001536));
#818 = PCURVE('',#126,#819);
#819 = DEFINITIONAL_REPRESENTATION('',(#820),#823);
#820 = B_SPLINE_CURVE_WITH_KNOTS('',1,(#821,#822),.UNSPECIFIED.,.F.,.F.,
  (2,2),(-0.21841958217,3.181497525851),.PIECEWISE_BEZIER_KNOTS.);
#821 = CARTESIAN_POINT('',(5.873466230485,-38.65772392014));
#822 = CARTESIAN_POINT('',(9.27327454638,-38.63052545362));
#823 = ( GEOMETRIC_REPRESENTATION_CONTEXT(2) 
PARAMETRIC_REPRESENTATION_CONTEXT() REPRESENTATION_CONTEXT('2D SPACE',''
  ) );
#824 = PCURVE('',#364,#825);
#825 = DEFINITIONAL_REPRESENTATION('',(#826),#829);
#826 = B_SPLINE_CURVE_WITH_KNOTS('',1,(#827,#828),.UNSPECIFIED.,.F.,.F.,
  (2,2),(-0.21841958217,3.181497525851),.PIECEWISE_BEZIER_KNOTS.);
#827 = CARTESIAN_POINT('',(2.70807594252,-6.));
#828 = CARTESIAN_POINT('',(2.706988873167,-2.600083065766));
#829 = ( GEOMETRIC_REPRESENTATION_CONTEXT(2) 
PARAMETRIC_REPRESENTATION_CONTEXT() REPRESENTATION_CONTEXT('2D SPACE',''
  ) );
#830 = ORIENTED_EDGE('',*,*,#831,.T.);
#831 = EDGE_CURVE('',#811,#832,#834,.T.);
#832 = VERTEX_POINT('',#833);
#833 = CARTESIAN_POINT('',(217.44002398079,91.7,10.340671114995));
#834 = SURFACE_CURVE('',#835,(#839,#845),.PCURVE_S1.);
#835 = LINE('',#836,#837);
#836 = CARTESIAN_POINT('',(249.80374203937,91.7,10.599167265623));
#837 = VECTOR('',#838,1.);
#838 = DIRECTION('',(0.999968103681,-0.,7.986965684352E-03));
#839 = PCURVE('',#126,#840);
#840 = DEFINITIONAL_REPRESENTATION('',(#841),#844);
#841 = B_SPLINE_CURVE_WITH_KNOTS('',1,(#842,#843),.UNSPECIFIED.,.F.,.F.,
  (2,2),(-150.2561309884,28.19715734615),.PIECEWISE_BEZIER_KNOTS.);
#842 = CARTESIAN_POINT('',(5.874197842825,-38.74932178522));
#843 = CARTESIAN_POINT('',(4.448897552637,139.69827454638));
#844 = ( GEOMETRIC_REPRESENTATION_CONTEXT(2) 
PARAMETRIC_REPRESENTATION_CONTEXT() REPRESENTATION_CONTEXT('2D SPACE',''
  ) );
#845 = PCURVE('',#846,#851);
#846 = PLANE('',#847);
#847 = AXIS2_PLACEMENT_3D('',#848,#849,#850);
#848 = CARTESIAN_POINT('',(361.26130796883,94.450452318753,
    11.490282153979));
#849 = DIRECTION('',(7.986965276751E-03,3.1947861107E-04,-0.999968052649
    ));
#850 = DIRECTION('',(-0.999968103681,0.,-7.986965684352E-03));
#851 = DEFINITIONAL_REPRESENTATION('',(#852),#855);
#852 = B_SPLINE_CURVE_WITH_KNOTS('',1,(#853,#854),.UNSPECIFIED.,.F.,.F.,
  (2,2),(-150.2561309884,28.19715734615),.PIECEWISE_BEZIER_KNOTS.);
#853 = CARTESIAN_POINT('',(261.71725913588,-2.750452459118));
#854 = CARTESIAN_POINT('',(83.263970801251,-2.750452459118));
#855 = ( GEOMETRIC_REPRESENTATION_CONTEXT(2) 
PARAMETRIC_REPRESENTATION_CONTEXT() REPRESENTATION_CONTEXT('2D SPACE',''
  ) );
#856 = ORIENTED_EDGE('',*,*,#857,.T.);
#857 = EDGE_CURVE('',#832,#858,#860,.T.);
#858 = VERTEX_POINT('',#859);
#859 = CARTESIAN_POINT('',(217.44002398081,91.7,19.347320215712));
#860 = SURFACE_CURVE('',#861,(#865,#871),.PCURVE_S1.);
#861 = LINE('',#862,#863);
#862 = CARTESIAN_POINT('',(217.44002398082,91.7,14.832567733244));
#863 = VECTOR('',#864,1.);
#864 = DIRECTION('',(0.,-0.,1.));
#865 = PCURVE('',#126,#866);
#866 = DEFINITIONAL_REPRESENTATION('',(#867),#870);
#867 = B_SPLINE_CURVE_WITH_KNOTS('',1,(#868,#869),.UNSPECIFIED.,.F.,.F.,
  (2,2),(-5.432376043015,4.867432266756),.PIECEWISE_BEZIER_KNOTS.);
#868 = CARTESIAN_POINT('',(5.873082856151,79.138298527202));
#869 = CARTESIAN_POINT('',(-4.42672545362,79.138298527202));
#870 = ( GEOMETRIC_REPRESENTATION_CONTEXT(2) 
PARAMETRIC_REPRESENTATION_CONTEXT() REPRESENTATION_CONTEXT('2D SPACE',''
  ) );
#871 = PCURVE('',#872,#877);
#872 = PLANE('',#873);
#873 = AXIS2_PLACEMENT_3D('',#874,#875,#876);
#874 = CARTESIAN_POINT('',(236.65041278874,92.468415552317,
    14.391860920108));
#875 = DIRECTION('',(3.996803834887E-02,-0.999200958722,-0.));
#876 = DIRECTION('',(-0.999200958722,-3.996803834887E-02,0.));
#877 = DEFINITIONAL_REPRESENTATION('',(#878),#881);
#878 = B_SPLINE_CURVE_WITH_KNOTS('',1,(#879,#880),.UNSPECIFIED.,.F.,.F.,
  (2,2),(-5.432376043015,4.867432266756),.PIECEWISE_BEZIER_KNOTS.);
#879 = CARTESIAN_POINT('',(19.225750976559,4.991669229879));
#880 = CARTESIAN_POINT('',(19.225750976559,-5.308139079892));
#881 = ( GEOMETRIC_REPRESENTATION_CONTEXT(2) 
PARAMETRIC_REPRESENTATION_CONTEXT() REPRESENTATION_CONTEXT('2D SPACE',''
  ) );
#882 = ORIENTED_EDGE('',*,*,#883,.F.);
#883 = EDGE_CURVE('',#683,#858,#884,.T.);
#884 = SURFACE_CURVE('',#885,(#889,#895),.PCURVE_S1.);
#885 = LINE('',#886,#887);
#886 = CARTESIAN_POINT('',(256.71727107256,91.7,19.229676704056));
#887 = VECTOR('',#888,1.);
#888 = DIRECTION('',(-0.999995514396,0.,2.995194232415E-03));
#889 = PCURVE('',#126,#890);
#890 = DEFINITIONAL_REPRESENTATION('',(#891),#894);
#891 = B_SPLINE_CURVE_WITH_KNOTS('',1,(#892,#893),.UNSPECIFIED.,.F.,.F.,
  (2,2),(26.767371156422,39.277423274724),.PIECEWISE_BEZIER_KNOTS.);
#892 = CARTESIAN_POINT('',(-4.03657563338,91.648294530358));
#893 = CARTESIAN_POINT('',(-4.074045669332,79.138298527199));
#894 = ( GEOMETRIC_REPRESENTATION_CONTEXT(2) 
PARAMETRIC_REPRESENTATION_CONTEXT() REPRESENTATION_CONTEXT('2D SPACE',''
  ) );
#895 = PCURVE('',#896,#901);
#896 = PLANE('',#897);
#897 = AXIS2_PLACEMENT_3D('',#898,#899,#900);
#898 = CARTESIAN_POINT('',(375.11990411504,92.002397123835,18.875));
#899 = DIRECTION('',(2.995194210919E-03,1.198077684368E-04,
    0.999995507219));
#900 = DIRECTION('',(-0.99919646953,-3.996785878122E-02,
    2.997589408591E-03));
#901 = DEFINITIONAL_REPRESENTATION('',(#902),#905);
#902 = B_SPLINE_CURVE_WITH_KNOTS('',1,(#903,#904),.UNSPECIFIED.,.F.,.F.,
  (2,2),(26.767371156422,39.277423274724),.PIECEWISE_BEZIER_KNOTS.);
#903 = CARTESIAN_POINT('',(145.06662537374,-5.500000000002));
#904 = CARTESIAN_POINT('',(157.56668153372,-6.));
#905 = ( GEOMETRIC_REPRESENTATION_CONTEXT(2) 
PARAMETRIC_REPRESENTATION_CONTEXT() REPRESENTATION_CONTEXT('2D SPACE',''
  ) );
#906 = ADVANCED_FACE('',(#907),#159,.F.);
#907 = FACE_BOUND('',#908,.F.);
#908 = EDGE_LOOP('',(#909,#930,#931,#932));
#909 = ORIENTED_EDGE('',*,*,#910,.T.);
#910 = EDGE_CURVE('',#718,#220,#911,.T.);
#911 = SURFACE_CURVE('',#912,(#916,#923),.PCURVE_S1.);
#912 = LINE('',#913,#914);
#913 = CARTESIAN_POINT('',(278.,91.7,23.));
#914 = VECTOR('',#915,1.);
#915 = DIRECTION('',(0.,-1.,0.));
#916 = PCURVE('',#159,#917);
#917 = DEFINITIONAL_REPRESENTATION('',(#918),#922);
#918 = LINE('',#919,#920);
#919 = CARTESIAN_POINT('',(0.,0.));
#920 = VECTOR('',#921,1.);
#921 = DIRECTION('',(0.,-1.));
#922 = ( GEOMETRIC_REPRESENTATION_CONTEXT(2) 
PARAMETRIC_REPRESENTATION_CONTEXT() REPRESENTATION_CONTEXT('2D SPACE',''
  ) );
#923 = PCURVE('',#235,#924);
#924 = DEFINITIONAL_REPRESENTATION('',(#925),#929);
#925 = LINE('',#926,#927);
#926 = CARTESIAN_POINT('',(15.,0.));
#927 = VECTOR('',#928,1.);
#928 = DIRECTION('',(0.,-1.));
#929 = ( GEOMETRIC_REPRESENTATION_CONTEXT(2) 
PARAMETRIC_REPRESENTATION_CONTEXT() REPRESENTATION_CONTEXT('2D SPACE',''
  ) );
#930 = ORIENTED_EDGE('',*,*,#247,.T.);
#931 = ORIENTED_EDGE('',*,*,#141,.F.);
#932 = ORIENTED_EDGE('',*,*,#740,.F.);
#933 = ADVANCED_FACE('',(#934),#235,.F.);
#934 = FACE_BOUND('',#935,.F.);
#935 = EDGE_LOOP('',(#936,#959,#978,#979,#980,#981,#1016));
#936 = ORIENTED_EDGE('',*,*,#937,.F.);
#937 = EDGE_CURVE('',#938,#940,#942,.T.);
#938 = VERTEX_POINT('',#939);
#939 = CARTESIAN_POINT('',(278.,88.117600959233,10.823232457308));
#940 = VERTEX_POINT('',#941);
#941 = CARTESIAN_POINT('',(278.,88.117600959233,19.166359712345));
#942 = SURFACE_CURVE('',#943,(#947,#953),.PCURVE_S1.);
#943 = LINE('',#944,#945);
#944 = CARTESIAN_POINT('',(278.,88.117600959233,11.195930460054));
#945 = VECTOR('',#946,1.);
#946 = DIRECTION('',(0.,0.,1.));
#947 = PCURVE('',#235,#948);
#948 = DEFINITIONAL_REPRESENTATION('',(#949),#952);
#949 = B_SPLINE_CURVE_WITH_KNOTS('',1,(#950,#951),.UNSPECIFIED.,.F.,.F.,
  (2,2),(-0.373470399218,8.504069539946),.PIECEWISE_BEZIER_KNOTS.);
#950 = CARTESIAN_POINT('',(2.822460060836,-3.582399040767));
#951 = CARTESIAN_POINT('',(11.7,-3.582399040767));
#952 = ( GEOMETRIC_REPRESENTATION_CONTEXT(2) 
PARAMETRIC_REPRESENTATION_CONTEXT() REPRESENTATION_CONTEXT('2D SPACE',''
  ) );
#953 = PCURVE('',#593,#954);
#954 = DEFINITIONAL_REPRESENTATION('',(#955),#958);
#955 = B_SPLINE_CURVE_WITH_KNOTS('',1,(#956,#957),.UNSPECIFIED.,.F.,.F.,
  (2,2),(-0.373470399218,8.504069539946),.PIECEWISE_BEZIER_KNOTS.);
#956 = CARTESIAN_POINT('',(-41.14265365972,3.569400859272));
#957 = CARTESIAN_POINT('',(-41.14265365972,-5.308139079892));
#958 = ( GEOMETRIC_REPRESENTATION_CONTEXT(2) 
PARAMETRIC_REPRESENTATION_CONTEXT() REPRESENTATION_CONTEXT('2D SPACE',''
  ) );
#959 = ORIENTED_EDGE('',*,*,#960,.T.);
#960 = EDGE_CURVE('',#938,#218,#961,.T.);
#961 = SURFACE_CURVE('',#962,(#966,#972),.PCURVE_S1.);
#962 = LINE('',#963,#964);
#963 = CARTESIAN_POINT('',(278.,93.074881215231,10.824816252917));
#964 = VECTOR('',#965,1.);
#965 = DIRECTION('',(-0.,-0.999999948963,-3.194888015857E-04));
#966 = PCURVE('',#235,#967);
#967 = DEFINITIONAL_REPRESENTATION('',(#968),#971);
#968 = B_SPLINE_CURVE_WITH_KNOTS('',1,(#969,#970),.UNSPECIFIED.,.F.,.F.,
  (2,2),(1.3748812854,7.37488159162),.PIECEWISE_BEZIER_KNOTS.);
#969 = CARTESIAN_POINT('',(2.824376993743,8.881784197001E-16));
#970 = CARTESIAN_POINT('',(2.822460060836,-6.));
#971 = ( GEOMETRIC_REPRESENTATION_CONTEXT(2) 
PARAMETRIC_REPRESENTATION_CONTEXT() REPRESENTATION_CONTEXT('2D SPACE',''
  ) );
#972 = PCURVE('',#617,#973);
#973 = DEFINITIONAL_REPRESENTATION('',(#974),#977);
#974 = B_SPLINE_CURVE_WITH_KNOTS('',1,(#975,#976),.UNSPECIFIED.,.F.,.F.,
  (2,2),(1.3748812854,7.37488159162),.PIECEWISE_BEZIER_KNOTS.);
#975 = CARTESIAN_POINT('',(83.263970801251,-2.750452459118));
#976 = CARTESIAN_POINT('',(83.263986111728,-8.750452765318));
#977 = ( GEOMETRIC_REPRESENTATION_CONTEXT(2) 
PARAMETRIC_REPRESENTATION_CONTEXT() REPRESENTATION_CONTEXT('2D SPACE',''
  ) );
#978 = ORIENTED_EDGE('',*,*,#217,.T.);
#979 = ORIENTED_EDGE('',*,*,#910,.F.);
#980 = ORIENTED_EDGE('',*,*,#717,.F.);
#981 = ORIENTED_EDGE('',*,*,#982,.F.);
#982 = EDGE_CURVE('',#983,#681,#985,.T.);
#983 = VERTEX_POINT('',#984);
#984 = CARTESIAN_POINT('',(278.,88.618000799363,19.166299760287));
#985 = SURFACE_CURVE('',#986,(#991,#998),.PCURVE_S1.);
#986 = ELLIPSE('',#987,2.502010441625,2.5);
#987 = AXIS2_PLACEMENT_3D('',#988,#989,#990);
#988 = CARTESIAN_POINT('',(278.,91.12,19.166));
#989 = DIRECTION('',(-1.,0.,0.));
#990 = DIRECTION('',(0.,0.997199309888,-7.478994824166E-02));
#991 = PCURVE('',#235,#992);
#992 = DEFINITIONAL_REPRESENTATION('',(#993),#997);
#993 = ELLIPSE('',#994,2.502010441625,2.5);
#994 = AXIS2_PLACEMENT_2D('',#995,#996);
#995 = CARTESIAN_POINT('',(11.166,-0.58));
#996 = DIRECTION('',(-7.478994824166E-02,0.997199309888));
#997 = ( GEOMETRIC_REPRESENTATION_CONTEXT(2) 
PARAMETRIC_REPRESENTATION_CONTEXT() REPRESENTATION_CONTEXT('2D SPACE',''
  ) );
#998 = PCURVE('',#518,#999);
#999 = DEFINITIONAL_REPRESENTATION('',(#1000),#1015);
#1000 = B_SPLINE_CURVE_WITH_KNOTS('',7,(#1001,#1002,#1003,#1004,#1005,
    #1006,#1007,#1008,#1009,#1010,#1011,#1012,#1013,#1014),
  .UNSPECIFIED.,.F.,.F.,(8,6,8),(1.004866147464,3.06679273384,
    5.128719320216),.UNSPECIFIED.);
#1001 = CARTESIAN_POINT('',(5.203519239966,278.12721119761));
#1002 = CARTESIAN_POINT('',(4.908958299055,278.10227776637));
#1003 = CARTESIAN_POINT('',(4.614397358143,278.07190172792));
#1004 = CARTESIAN_POINT('',(4.319836417237,278.03961317788));
#1005 = CARTESIAN_POINT('',(4.025275476319,278.01011440961));
#1006 = CARTESIAN_POINT('',(3.730714535412,277.98797829738));
#1007 = CARTESIAN_POINT('',(3.436153594501,277.97564747472));
#1008 = CARTESIAN_POINT('',(2.847031712679,277.9712325911));
#1009 = CARTESIAN_POINT('',(2.552470771768,277.97914867563));
#1010 = CARTESIAN_POINT('',(2.257909830857,277.99749470205));
#1011 = CARTESIAN_POINT('',(1.963348889947,278.02445808899));
#1012 = CARTESIAN_POINT('',(1.668787949036,278.05585899375));
#1013 = CARTESIAN_POINT('',(1.374227008125,278.0869791698));
#1014 = CARTESIAN_POINT('',(1.079666067214,278.11399476105));
#1015 = ( GEOMETRIC_REPRESENTATION_CONTEXT(2) 
PARAMETRIC_REPRESENTATION_CONTEXT() REPRESENTATION_CONTEXT('2D SPACE',''
  ) );
#1016 = ORIENTED_EDGE('',*,*,#1017,.F.);
#1017 = EDGE_CURVE('',#940,#983,#1018,.T.);
#1018 = SURFACE_CURVE('',#1019,(#1023,#1029),.PCURVE_S1.);
#1019 = LINE('',#1020,#1021);
#1020 = CARTESIAN_POINT('',(278.,91.851884873297,19.165912314113));
#1021 = VECTOR('',#1022,1.);
#1022 = DIRECTION('',(0.,0.999999992823,-1.198083058494E-04));
#1023 = PCURVE('',#235,#1024);
#1024 = DEFINITIONAL_REPRESENTATION('',(#1025),#1028);
#1025 = B_SPLINE_CURVE_WITH_KNOTS('',1,(#1026,#1027),.UNSPECIFIED.,.F.,
  .F.,(2,2),(-3.734283940865,-3.233884097138),.PIECEWISE_BEZIER_KNOTS.);
#1026 = CARTESIAN_POINT('',(11.166359712345,-3.582399040767));
#1027 = CARTESIAN_POINT('',(11.166299760288,-3.081999200632));
#1028 = ( GEOMETRIC_REPRESENTATION_CONTEXT(2) 
PARAMETRIC_REPRESENTATION_CONTEXT() REPRESENTATION_CONTEXT('2D SPACE',''
  ) );
#1029 = PCURVE('',#567,#1030);
#1030 = DEFINITIONAL_REPRESENTATION('',(#1031),#1034);
#1031 = B_SPLINE_CURVE_WITH_KNOTS('',1,(#1032,#1033),.UNSPECIFIED.,.F.,
  .F.,(2,2),(-3.734283940865,-3.233884097138),.PIECEWISE_BEZIER_KNOTS.);
#1032 = CARTESIAN_POINT('',(97.198005674182,8.881784197001E-16));
#1033 = CARTESIAN_POINT('',(97.178005584326,-0.500000000008));
#1034 = ( GEOMETRIC_REPRESENTATION_CONTEXT(2) 
PARAMETRIC_REPRESENTATION_CONTEXT() REPRESENTATION_CONTEXT('2D SPACE',''
  ) );
#1035 = ADVANCED_FACE('',(#1036),#617,.T.);
#1036 = FACE_BOUND('',#1037,.T.);
#1037 = EDGE_LOOP('',(#1038,#1039,#1059));
#1038 = ORIENTED_EDGE('',*,*,#604,.F.);
#1039 = ORIENTED_EDGE('',*,*,#1040,.T.);
#1040 = EDGE_CURVE('',#579,#938,#1041,.T.);
#1041 = SURFACE_CURVE('',#1042,(#1046,#1053),.PCURVE_S1.);
#1042 = LINE('',#1043,#1044);
#1043 = CARTESIAN_POINT('',(390.0141877122,92.598168467721,
    11.719345959006));
#1044 = VECTOR('',#1045,1.);
#1045 = DIRECTION('',(0.999169036898,3.996676147593E-02,
    7.993352295186E-03));
#1046 = PCURVE('',#617,#1047);
#1047 = DEFINITIONAL_REPRESENTATION('',(#1048),#1052);
#1048 = LINE('',#1049,#1050);
#1049 = CARTESIAN_POINT('',(-28.75379215708,-1.852283945561));
#1050 = VECTOR('',#1051,1.);
#1051 = DIRECTION('',(-0.999201009714,3.996676351557E-02));
#1052 = ( GEOMETRIC_REPRESENTATION_CONTEXT(2) 
PARAMETRIC_REPRESENTATION_CONTEXT() REPRESENTATION_CONTEXT('2D SPACE',''
  ) );
#1053 = PCURVE('',#593,#1054);
#1054 = DEFINITIONAL_REPRESENTATION('',(#1055),#1058);
#1055 = B_SPLINE_CURVE_WITH_KNOTS('',1,(#1056,#1057),.UNSPECIFIED.,.F.,
  .F.,(2,2),(-290.1353753886,-14.9066704903),.PIECEWISE_BEZIER_KNOTS.);
#1056 = CARTESIAN_POINT('',(136.87968942579,4.991669229879));
#1057 = CARTESIAN_POINT('',(-138.3402226445,2.791669229879));
#1058 = ( GEOMETRIC_REPRESENTATION_CONTEXT(2) 
PARAMETRIC_REPRESENTATION_CONTEXT() REPRESENTATION_CONTEXT('2D SPACE',''
  ) );
#1059 = ORIENTED_EDGE('',*,*,#960,.T.);
#1060 = ADVANCED_FACE('',(#1061),#593,.F.);
#1061 = FACE_BOUND('',#1062,.F.);
#1062 = EDGE_LOOP('',(#1063,#1084,#1085,#1086));
#1063 = ORIENTED_EDGE('',*,*,#1064,.T.);
#1064 = EDGE_CURVE('',#940,#553,#1065,.T.);
#1065 = SURFACE_CURVE('',#1066,(#1070,#1077),.PCURVE_S1.);
#1066 = LINE('',#1067,#1068);
#1067 = CARTESIAN_POINT('',(375.11990411504,92.002397123835,18.875));
#1068 = VECTOR('',#1069,1.);
#1069 = DIRECTION('',(-0.99919646953,-3.996785878122E-02,
    2.997589408591E-03));
#1070 = PCURVE('',#593,#1071);
#1071 = DEFINITIONAL_REPRESENTATION('',(#1072),#1076);
#1072 = LINE('',#1073,#1074);
#1073 = CARTESIAN_POINT('',(-138.3402226445,-4.483139079892));
#1074 = VECTOR('',#1075,1.);
#1075 = DIRECTION('',(0.999995507219,-2.997589408591E-03));
#1076 = ( GEOMETRIC_REPRESENTATION_CONTEXT(2) 
PARAMETRIC_REPRESENTATION_CONTEXT() REPRESENTATION_CONTEXT('2D SPACE',''
  ) );
#1077 = PCURVE('',#567,#1078);
#1078 = DEFINITIONAL_REPRESENTATION('',(#1079),#1083);
#1079 = LINE('',#1080,#1081);
#1080 = CARTESIAN_POINT('',(0.,0.));
#1081 = VECTOR('',#1082,1.);
#1082 = DIRECTION('',(1.,-6.938934528819E-18));
#1083 = ( GEOMETRIC_REPRESENTATION_CONTEXT(2) 
PARAMETRIC_REPRESENTATION_CONTEXT() REPRESENTATION_CONTEXT('2D SPACE',''
  ) );
#1084 = ORIENTED_EDGE('',*,*,#578,.F.);
#1085 = ORIENTED_EDGE('',*,*,#1040,.T.);
#1086 = ORIENTED_EDGE('',*,*,#937,.T.);
#1087 = ADVANCED_FACE('',(#1088),#567,.F.);
#1088 = FACE_BOUND('',#1089,.F.);
#1089 = EDGE_LOOP('',(#1090,#1091,#1092,#1112));
#1090 = ORIENTED_EDGE('',*,*,#1064,.F.);
#1091 = ORIENTED_EDGE('',*,*,#1017,.T.);
#1092 = ORIENTED_EDGE('',*,*,#1093,.F.);
#1093 = EDGE_CURVE('',#502,#983,#1094,.T.);
#1094 = SURFACE_CURVE('',#1095,(#1099,#1105),.PCURVE_S1.);
#1095 = LINE('',#1096,#1097);
#1096 = CARTESIAN_POINT('',(0.249920095872,77.507997603196,19.99955));
#1097 = VECTOR('',#1098,1.);
#1098 = DIRECTION('',(0.99919646953,3.996785878124E-02,
    -2.997589408592E-03));
#1099 = PCURVE('',#567,#1100);
#1100 = DEFINITIONAL_REPRESENTATION('',(#1101),#1104);
#1101 = B_SPLINE_CURVE_WITH_KNOTS('',1,(#1102,#1103),.UNSPECIFIED.,.F.,
  .F.,(2,2),(72.408182180624,402.67356047511),.PIECEWISE_BEZIER_KNOTS.);
#1102 = CARTESIAN_POINT('',(302.74326343661,-0.500000000001));
#1103 = CARTESIAN_POINT('',(-27.52211485787,-0.500000000008));
#1104 = ( GEOMETRIC_REPRESENTATION_CONTEXT(2) 
PARAMETRIC_REPRESENTATION_CONTEXT() REPRESENTATION_CONTEXT('2D SPACE',''
  ) );
#1105 = PCURVE('',#518,#1106);
#1106 = DEFINITIONAL_REPRESENTATION('',(#1107),#1111);
#1107 = LINE('',#1108,#1109);
#1108 = CARTESIAN_POINT('',(3.14159265359,2.465719696282E-16));
#1109 = VECTOR('',#1110,1.);
#1110 = DIRECTION('',(0.,1.));
#1111 = ( GEOMETRIC_REPRESENTATION_CONTEXT(2) 
PARAMETRIC_REPRESENTATION_CONTEXT() REPRESENTATION_CONTEXT('2D SPACE',''
  ) );
#1112 = ORIENTED_EDGE('',*,*,#552,.F.);
#1113 = ADVANCED_FACE('',(#1114),#518,.F.);
#1114 = FACE_BOUND('',#1115,.F.);
#1115 = EDGE_LOOP('',(#1116,#1117,#1118,#1119,#1142,#1163));
#1116 = ORIENTED_EDGE('',*,*,#1093,.T.);
#1117 = ORIENTED_EDGE('',*,*,#982,.T.);
#1118 = ORIENTED_EDGE('',*,*,#680,.T.);
#1119 = ORIENTED_EDGE('',*,*,#1120,.F.);
#1120 = EDGE_CURVE('',#1121,#683,#1123,.T.);
#1121 = VERTEX_POINT('',#1122);
#1122 = CARTESIAN_POINT('',(99.900079904128,86.498002396806,19.7));
#1123 = SURFACE_CURVE('',#1124,(#1128,#1135),.PCURVE_S1.);
#1124 = LINE('',#1125,#1126);
#1125 = CARTESIAN_POINT('',(5.007990412782E-02,82.504002396804,19.99955)
  );
#1126 = VECTOR('',#1127,1.);
#1127 = DIRECTION('',(0.99919646953,3.996785878124E-02,
    -2.997589408592E-03));
#1128 = PCURVE('',#518,#1129);
#1129 = DEFINITIONAL_REPRESENTATION('',(#1130),#1134);
#1130 = LINE('',#1131,#1132);
#1131 = CARTESIAN_POINT('',(0.,-0.));
#1132 = VECTOR('',#1133,1.);
#1133 = DIRECTION('',(0.,1.));
#1134 = ( GEOMETRIC_REPRESENTATION_CONTEXT(2) 
PARAMETRIC_REPRESENTATION_CONTEXT() REPRESENTATION_CONTEXT('2D SPACE',''
  ) );
#1135 = PCURVE('',#896,#1136);
#1136 = DEFINITIONAL_REPRESENTATION('',(#1137),#1141);
#1137 = LINE('',#1138,#1139);
#1138 = CARTESIAN_POINT('',(375.15144561723,-5.5));
#1139 = VECTOR('',#1140,1.);
#1140 = DIRECTION('',(-1.,-1.997707550872E-14));
#1141 = ( GEOMETRIC_REPRESENTATION_CONTEXT(2) 
PARAMETRIC_REPRESENTATION_CONTEXT() REPRESENTATION_CONTEXT('2D SPACE',''
  ) );
#1142 = ORIENTED_EDGE('',*,*,#1143,.F.);
#1143 = EDGE_CURVE('',#432,#1121,#1144,.T.);
#1144 = SURFACE_CURVE('',#1145,(#1149,#1156),.PCURVE_S1.);
#1145 = LINE('',#1146,#1147);
#1146 = CARTESIAN_POINT('',(5.007990412782E-02,82.504002396804,19.99955)
  );
#1147 = VECTOR('',#1148,1.);
#1148 = DIRECTION('',(0.99919646953,3.996785878124E-02,
    -2.997589408592E-03));
#1149 = PCURVE('',#518,#1150);
#1150 = DEFINITIONAL_REPRESENTATION('',(#1151),#1155);
#1151 = LINE('',#1152,#1153);
#1152 = CARTESIAN_POINT('',(0.,-0.));
#1153 = VECTOR('',#1154,1.);
#1154 = DIRECTION('',(0.,1.));
#1155 = ( GEOMETRIC_REPRESENTATION_CONTEXT(2) 
PARAMETRIC_REPRESENTATION_CONTEXT() REPRESENTATION_CONTEXT('2D SPACE',''
  ) );
#1156 = PCURVE('',#448,#1157);
#1157 = DEFINITIONAL_REPRESENTATION('',(#1158),#1162);
#1158 = LINE('',#1159,#1160);
#1159 = CARTESIAN_POINT('',(6.28318530718,-0.));
#1160 = VECTOR('',#1161,1.);
#1161 = DIRECTION('',(0.,1.));
#1162 = ( GEOMETRIC_REPRESENTATION_CONTEXT(2) 
PARAMETRIC_REPRESENTATION_CONTEXT() REPRESENTATION_CONTEXT('2D SPACE',''
  ) );
#1163 = ORIENTED_EDGE('',*,*,#501,.F.);
#1164 = ADVANCED_FACE('',(#1165),#448,.F.);
#1165 = FACE_BOUND('',#1166,.F.);
#1166 = EDGE_LOOP('',(#1167,#1168,#1169,#1201,#1228));
#1167 = ORIENTED_EDGE('',*,*,#431,.F.);
#1168 = ORIENTED_EDGE('',*,*,#1143,.T.);
#1169 = ORIENTED_EDGE('',*,*,#1170,.T.);
#1170 = EDGE_CURVE('',#1121,#1171,#1173,.T.);
#1171 = VERTEX_POINT('',#1172);
#1172 = CARTESIAN_POINT('',(99.900079904845,86.498002378879,
    19.699700479234));
#1173 = SURFACE_CURVE('',#1174,(#1179,#1189),.PCURVE_S1.);
#1174 = ELLIPSE('',#1175,2.500011232004,2.5);
#1175 = AXIS2_PLACEMENT_3D('',#1176,#1177,#1178);
#1176 = CARTESIAN_POINT('',(100.,84.000000000002,19.7));
#1177 = DIRECTION('',(-0.999200958722,-3.996803834887E-02,0.));
#1178 = DIRECTION('',(-2.664547230327E-13,6.661368075818E-12,-1.));
#1179 = PCURVE('',#448,#1180);
#1180 = DEFINITIONAL_REPRESENTATION('',(#1181),#1188);
#1181 = B_SPLINE_CURVE_WITH_KNOTS('',5,(#1182,#1183,#1184,#1185,#1186,
    #1187),.UNSPECIFIED.,.F.,.F.,(6,6),(4.712388980391,4.71250878816),
  .PIECEWISE_BEZIER_KNOTS.);
#1182 = CARTESIAN_POINT('',(6.28318530718,99.930297038498));
#1183 = CARTESIAN_POINT('',(6.283161345626,99.930297218066));
#1184 = CARTESIAN_POINT('',(6.283137384072,99.930297397635));
#1185 = CARTESIAN_POINT('',(6.283113422519,99.930297577203));
#1186 = CARTESIAN_POINT('',(6.283089460965,99.930297756771));
#1187 = CARTESIAN_POINT('',(6.283065499411,99.930297936339));
#1188 = ( GEOMETRIC_REPRESENTATION_CONTEXT(2) 
PARAMETRIC_REPRESENTATION_CONTEXT() REPRESENTATION_CONTEXT('2D SPACE',''
  ) );
#1189 = PCURVE('',#1190,#1195);
#1190 = PLANE('',#1191);
#1191 = AXIS2_PLACEMENT_3D('',#1192,#1193,#1194);
#1192 = CARTESIAN_POINT('',(100.11990411504,81.002397123835,19.7));
#1193 = DIRECTION('',(-0.999200958722,-3.996803834887E-02,-0.));
#1194 = DIRECTION('',(0.,0.,-1.));
#1195 = DEFINITIONAL_REPRESENTATION('',(#1196),#1200);
#1196 = ELLIPSE('',#1197,2.500011232004,2.5);
#1197 = AXIS2_PLACEMENT_2D('',#1198,#1199);
#1198 = CARTESIAN_POINT('',(9.947598300641E-14,-3.000000000002));
#1199 = DIRECTION('',(1.,-6.666695040345E-12));
#1200 = ( GEOMETRIC_REPRESENTATION_CONTEXT(2) 
PARAMETRIC_REPRESENTATION_CONTEXT() REPRESENTATION_CONTEXT('2D SPACE',''
  ) );
#1201 = ORIENTED_EDGE('',*,*,#1202,.F.);
#1202 = EDGE_CURVE('',#1203,#1171,#1205,.T.);
#1203 = VERTEX_POINT('',#1204);
#1204 = CARTESIAN_POINT('',(99.800239649254,86.494008768653,19.7));
#1205 = SURFACE_CURVE('',#1206,(#1210,#1216),.PCURVE_S1.);
#1206 = LINE('',#1207,#1208);
#1207 = CARTESIAN_POINT('',(5.007900772611E-02,82.504002342992,
    19.999250481925));
#1208 = VECTOR('',#1209,1.);
#1209 = DIRECTION('',(0.99919646953,3.996785878124E-02,
    -2.997589408592E-03));
#1210 = PCURVE('',#448,#1211);
#1211 = DEFINITIONAL_REPRESENTATION('',(#1212),#1215);
#1212 = B_SPLINE_CURVE_WITH_KNOTS('',1,(#1213,#1214),.UNSPECIFIED.,.F.,
  .F.,(2,2),(19.766043259549,980.5380528435),.PIECEWISE_BEZIER_KNOTS.);
#1213 = CARTESIAN_POINT('',(6.283065499411,19.766043259549));
#1214 = CARTESIAN_POINT('',(6.283065499411,980.5380528435));
#1215 = ( GEOMETRIC_REPRESENTATION_CONTEXT(2) 
PARAMETRIC_REPRESENTATION_CONTEXT() REPRESENTATION_CONTEXT('2D SPACE',''
  ) );
#1216 = PCURVE('',#1217,#1222);
#1217 = PLANE('',#1218);
#1218 = AXIS2_PLACEMENT_3D('',#1219,#1220,#1221);
#1219 = CARTESIAN_POINT('',(900.,113.5,17.3));
#1220 = DIRECTION('',(2.995194210918E-03,1.198077684368E-04,
    0.999995507219));
#1221 = DIRECTION('',(-0.99919646953,-3.996785878124E-02,
    2.997589408591E-03));
#1222 = DEFINITIONAL_REPRESENTATION('',(#1223),#1227);
#1223 = LINE('',#1224,#1225);
#1224 = CARTESIAN_POINT('',(900.47371871151,-4.99800237888));
#1225 = VECTOR('',#1226,1.);
#1226 = DIRECTION('',(-1.,6.998775023993E-18));
#1227 = ( GEOMETRIC_REPRESENTATION_CONTEXT(2) 
PARAMETRIC_REPRESENTATION_CONTEXT() REPRESENTATION_CONTEXT('2D SPACE',''
  ) );
#1228 = ORIENTED_EDGE('',*,*,#1229,.T.);
#1229 = EDGE_CURVE('',#1203,#404,#1230,.T.);
#1230 = SURFACE_CURVE('',#1231,(#1236,#1249),.PCURVE_S1.);
#1231 = ELLIPSE('',#1232,2.500011232004,2.5);
#1232 = AXIS2_PLACEMENT_3D('',#1233,#1234,#1235);
#1233 = CARTESIAN_POINT('',(99.900159744409,83.996006389776,
    19.700299520767));
#1234 = DIRECTION('',(-0.999200958722,-3.996803834886E-02,-0.));
#1235 = DIRECTION('',(0.,0.,-1.));
#1236 = PCURVE('',#448,#1237);
#1237 = DEFINITIONAL_REPRESENTATION('',(#1238),#1248);
#1238 = B_SPLINE_CURVE_WITH_KNOTS('',8,(#1239,#1240,#1241,#1242,#1243,
    #1244,#1245,#1246,#1247),.UNSPECIFIED.,.F.,.F.,(9,9),(4.712388980385
    ,8.322851227298),.PIECEWISE_BEZIER_KNOTS.);
#1239 = CARTESIAN_POINT('',(6.28318530718,99.830376493705));
#1240 = CARTESIAN_POINT('',(5.831877526315,99.83375859746));
#1241 = CARTESIAN_POINT('',(5.380569745454,99.837140611809));
#1242 = CARTESIAN_POINT('',(4.929261964581,99.839473400731));
#1243 = CARTESIAN_POINT('',(4.477954183735,99.839706597617));
#1244 = CARTESIAN_POINT('',(4.026646402856,99.837467968289));
#1245 = CARTESIAN_POINT('',(3.575338621998,99.833812862489));
#1246 = CARTESIAN_POINT('',(3.124030841131,99.830007221495));
#1247 = CARTESIAN_POINT('',(2.672723060267,99.826990115514));
#1248 = ( GEOMETRIC_REPRESENTATION_CONTEXT(2) 
PARAMETRIC_REPRESENTATION_CONTEXT() REPRESENTATION_CONTEXT('2D SPACE',''
  ) );
#1249 = PCURVE('',#419,#1250);
#1250 = DEFINITIONAL_REPRESENTATION('',(#1251),#1255);
#1251 = ELLIPSE('',#1252,2.500011232004,2.5);
#1252 = AXIS2_PLACEMENT_2D('',#1253,#1254);
#1253 = CARTESIAN_POINT('',(-2.995207670011E-04,-2.498002396804));
#1254 = DIRECTION('',(1.,0.));
#1255 = ( GEOMETRIC_REPRESENTATION_CONTEXT(2) 
PARAMETRIC_REPRESENTATION_CONTEXT() REPRESENTATION_CONTEXT('2D SPACE',''
  ) );
#1256 = ADVANCED_FACE('',(#1257),#419,.F.);
#1257 = FACE_BOUND('',#1258,.F.);
#1258 = EDGE_LOOP('',(#1259,#1260,#1283,#1311,#1332));
#1259 = ORIENTED_EDGE('',*,*,#1229,.F.);
#1260 = ORIENTED_EDGE('',*,*,#1261,.T.);
#1261 = EDGE_CURVE('',#1203,#1262,#1264,.T.);
#1262 = VERTEX_POINT('',#1263);
#1263 = CARTESIAN_POINT('',(99.800159808256,86.496004793609,19.7));
#1264 = SURFACE_CURVE('',#1265,(#1269,#1276),.PCURVE_S1.);
#1265 = LINE('',#1266,#1267);
#1266 = CARTESIAN_POINT('',(100.,81.5,19.7));
#1267 = VECTOR('',#1268,1.);
#1268 = DIRECTION('',(-3.996803834886E-02,0.999200958722,0.));
#1269 = PCURVE('',#419,#1270);
#1270 = DEFINITIONAL_REPRESENTATION('',(#1271),#1275);
#1271 = LINE('',#1272,#1273);
#1272 = CARTESIAN_POINT('',(0.,0.));
#1273 = VECTOR('',#1274,1.);
#1274 = DIRECTION('',(0.,-1.));
#1275 = ( GEOMETRIC_REPRESENTATION_CONTEXT(2) 
PARAMETRIC_REPRESENTATION_CONTEXT() REPRESENTATION_CONTEXT('2D SPACE',''
  ) );
#1276 = PCURVE('',#1217,#1277);
#1277 = DEFINITIONAL_REPRESENTATION('',(#1278),#1282);
#1278 = LINE('',#1279,#1280);
#1279 = CARTESIAN_POINT('',(800.64334131996,-1.60085757801E-11));
#1280 = VECTOR('',#1281,1.);
#1281 = DIRECTION('',(-2.998317010114E-14,-1.));
#1282 = ( GEOMETRIC_REPRESENTATION_CONTEXT(2) 
PARAMETRIC_REPRESENTATION_CONTEXT() REPRESENTATION_CONTEXT('2D SPACE',''
  ) );
#1283 = ORIENTED_EDGE('',*,*,#1284,.T.);
#1284 = EDGE_CURVE('',#1262,#1285,#1287,.T.);
#1285 = VERTEX_POINT('',#1286);
#1286 = CARTESIAN_POINT('',(99.800159808256,86.496004793609,8.4));
#1287 = SURFACE_CURVE('',#1288,(#1292,#1299),.PCURVE_S1.);
#1288 = LINE('',#1289,#1290);
#1289 = CARTESIAN_POINT('',(99.800159808256,86.496004793609,19.7));
#1290 = VECTOR('',#1291,1.);
#1291 = DIRECTION('',(0.,0.,-1.));
#1292 = PCURVE('',#419,#1293);
#1293 = DEFINITIONAL_REPRESENTATION('',(#1294),#1298);
#1294 = LINE('',#1295,#1296);
#1295 = CARTESIAN_POINT('',(0.,-5.));
#1296 = VECTOR('',#1297,1.);
#1297 = DIRECTION('',(1.,0.));
#1298 = ( GEOMETRIC_REPRESENTATION_CONTEXT(2) 
PARAMETRIC_REPRESENTATION_CONTEXT() REPRESENTATION_CONTEXT('2D SPACE',''
  ) );
#1299 = PCURVE('',#1300,#1305);
#1300 = PLANE('',#1301);
#1301 = AXIS2_PLACEMENT_3D('',#1302,#1303,#1304);
#1302 = CARTESIAN_POINT('',(497.62073988622,102.40882799672,
    15.044504494858));
#1303 = DIRECTION('',(3.996803834886E-02,-0.999200958722,
    -2.093529135184E-16));
#1304 = DIRECTION('',(-0.999200958722,-3.996803834886E-02,0.));
#1305 = DEFINITIONAL_REPRESENTATION('',(#1306),#1310);
#1306 = LINE('',#1307,#1308);
#1307 = CARTESIAN_POINT('',(398.13870934118,-4.655495505142));
#1308 = VECTOR('',#1309,1.);
#1309 = DIRECTION('',(1.54074395551E-33,1.));
#1310 = ( GEOMETRIC_REPRESENTATION_CONTEXT(2) 
PARAMETRIC_REPRESENTATION_CONTEXT() REPRESENTATION_CONTEXT('2D SPACE',''
  ) );
#1311 = ORIENTED_EDGE('',*,*,#1312,.F.);
#1312 = EDGE_CURVE('',#376,#1285,#1313,.T.);
#1313 = SURFACE_CURVE('',#1314,(#1318,#1325),.PCURVE_S1.);
#1314 = LINE('',#1315,#1316);
#1315 = CARTESIAN_POINT('',(100.,81.5,8.4));
#1316 = VECTOR('',#1317,1.);
#1317 = DIRECTION('',(-3.996803834886E-02,0.999200958722,0.));
#1318 = PCURVE('',#419,#1319);
#1319 = DEFINITIONAL_REPRESENTATION('',(#1320),#1324);
#1320 = LINE('',#1321,#1322);
#1321 = CARTESIAN_POINT('',(11.3,0.));
#1322 = VECTOR('',#1323,1.);
#1323 = DIRECTION('',(0.,-1.));
#1324 = ( GEOMETRIC_REPRESENTATION_CONTEXT(2) 
PARAMETRIC_REPRESENTATION_CONTEXT() REPRESENTATION_CONTEXT('2D SPACE',''
  ) );
#1325 = PCURVE('',#391,#1326);
#1326 = DEFINITIONAL_REPRESENTATION('',(#1327),#1331);
#1327 = LINE('',#1328,#1329);
#1328 = CARTESIAN_POINT('',(0.,0.));
#1329 = VECTOR('',#1330,1.);
#1330 = DIRECTION('',(1.998433379026E-14,-1.));
#1331 = ( GEOMETRIC_REPRESENTATION_CONTEXT(2) 
PARAMETRIC_REPRESENTATION_CONTEXT() REPRESENTATION_CONTEXT('2D SPACE',''
  ) );
#1332 = ORIENTED_EDGE('',*,*,#403,.F.);
#1333 = ADVANCED_FACE('',(#1334),#391,.F.);
#1334 = FACE_BOUND('',#1335,.F.);
#1335 = EDGE_LOOP('',(#1336,#1337,#1338,#1361));
#1336 = ORIENTED_EDGE('',*,*,#375,.F.);
#1337 = ORIENTED_EDGE('',*,*,#1312,.T.);
#1338 = ORIENTED_EDGE('',*,*,#1339,.T.);
#1339 = EDGE_CURVE('',#1285,#1340,#1342,.T.);
#1340 = VERTEX_POINT('',#1341);
#1341 = CARTESIAN_POINT('',(99.860060134113,86.498400806643,
    8.400479202607));
#1342 = SURFACE_CURVE('',#1343,(#1347,#1354),.PCURVE_S1.);
#1343 = LINE('',#1344,#1345);
#1344 = CARTESIAN_POINT('',(99.800159808256,86.496004793609,8.4));
#1345 = VECTOR('',#1346,1.);
#1346 = DIRECTION('',(0.999169036898,3.996676147594E-02,
    7.993352295188E-03));
#1347 = PCURVE('',#391,#1348);
#1348 = DEFINITIONAL_REPRESENTATION('',(#1349),#1353);
#1349 = LINE('',#1350,#1351);
#1350 = CARTESIAN_POINT('',(4.077991159908E-13,-5.));
#1351 = VECTOR('',#1352,1.);
#1352 = DIRECTION('',(1.,9.576382965893E-19));
#1353 = ( GEOMETRIC_REPRESENTATION_CONTEXT(2) 
PARAMETRIC_REPRESENTATION_CONTEXT() REPRESENTATION_CONTEXT('2D SPACE',''
  ) );
#1354 = PCURVE('',#1300,#1355);
#1355 = DEFINITIONAL_REPRESENTATION('',(#1356),#1360);
#1356 = LINE('',#1357,#1358);
#1357 = CARTESIAN_POINT('',(398.13870934118,6.644504494858));
#1358 = VECTOR('',#1359,1.);
#1359 = DIRECTION('',(-0.999968052649,-7.993352295188E-03));
#1360 = ( GEOMETRIC_REPRESENTATION_CONTEXT(2) 
PARAMETRIC_REPRESENTATION_CONTEXT() REPRESENTATION_CONTEXT('2D SPACE',''
  ) );
#1361 = ORIENTED_EDGE('',*,*,#1362,.F.);
#1362 = EDGE_CURVE('',#350,#1340,#1363,.T.);
#1363 = SURFACE_CURVE('',#1364,(#1368,#1374),.PCURVE_S1.);
#1364 = LINE('',#1365,#1366);
#1365 = CARTESIAN_POINT('',(99.91006010219,85.248401604727,
    8.400479202607));
#1366 = VECTOR('',#1367,1.);
#1367 = DIRECTION('',(-3.996803834887E-02,0.999200958722,
    -3.903127820948E-17));
#1368 = PCURVE('',#391,#1369);
#1369 = DEFINITIONAL_REPRESENTATION('',(#1370),#1373);
#1370 = B_SPLINE_CURVE_WITH_KNOTS('',1,(#1371,#1372),.UNSPECIFIED.,.F.,
  .F.,(2,2),(-3.749001198404,1.250998801598),.PIECEWISE_BEZIER_KNOTS.);
#1371 = CARTESIAN_POINT('',(5.99501422139E-02,1.77591275019E-12));
#1372 = CARTESIAN_POINT('',(5.995014221395E-02,-5.));
#1373 = ( GEOMETRIC_REPRESENTATION_CONTEXT(2) 
PARAMETRIC_REPRESENTATION_CONTEXT() REPRESENTATION_CONTEXT('2D SPACE',''
  ) );
#1374 = PCURVE('',#364,#1375);
#1375 = DEFINITIONAL_REPRESENTATION('',(#1376),#1379);
#1376 = B_SPLINE_CURVE_WITH_KNOTS('',1,(#1377,#1378),.UNSPECIFIED.,.F.,
  .F.,(2,2),(-3.749001198404,1.250998801598),.PIECEWISE_BEZIER_KNOTS.);
#1377 = CARTESIAN_POINT('',(-7.498002396806,-5.000638959774));
#1378 = CARTESIAN_POINT('',(-2.498002396804,-5.000638959774));
#1379 = ( GEOMETRIC_REPRESENTATION_CONTEXT(2) 
PARAMETRIC_REPRESENTATION_CONTEXT() REPRESENTATION_CONTEXT('2D SPACE',''
  ) );
#1380 = ADVANCED_FACE('',(#1381),#364,.F.);
#1381 = FACE_BOUND('',#1382,.F.);
#1382 = EDGE_LOOP('',(#1383,#1406,#1407,#1428,#1429,#1430));
#1383 = ORIENTED_EDGE('',*,*,#1384,.T.);
#1384 = EDGE_CURVE('',#1385,#811,#1387,.T.);
#1385 = VERTEX_POINT('',#1386);
#1386 = CARTESIAN_POINT('',(99.852078272186,86.498081532163,
    9.399808315895));
#1387 = SURFACE_CURVE('',#1388,(#1392,#1399),.PCURVE_S1.);
#1388 = LINE('',#1389,#1390);
#1389 = CARTESIAN_POINT('',(100.35175859182,74.006073541116,
    9.399808315895));
#1390 = VECTOR('',#1391,1.);
#1391 = DIRECTION('',(-3.996803834887E-02,0.999200958722,0.));
#1392 = PCURVE('',#364,#1393);
#1393 = DEFINITIONAL_REPRESENTATION('',(#1394),#1398);
#1394 = LINE('',#1395,#1396);
#1395 = CARTESIAN_POINT('',(-15.,-6.));
#1396 = VECTOR('',#1397,1.);
#1397 = DIRECTION('',(1.,-5.421010862428E-20));
#1398 = ( GEOMETRIC_REPRESENTATION_CONTEXT(2) 
PARAMETRIC_REPRESENTATION_CONTEXT() REPRESENTATION_CONTEXT('2D SPACE',''
  ) );
#1399 = PCURVE('',#846,#1400);
#1400 = DEFINITIONAL_REPRESENTATION('',(#1401),#1405);
#1401 = LINE('',#1402,#1403);
#1402 = CARTESIAN_POINT('',(260.91792386557,-20.44437982098));
#1403 = VECTOR('',#1404,1.);
#1404 = DIRECTION('',(3.996676351557E-02,0.999201009714));
#1405 = ( GEOMETRIC_REPRESENTATION_CONTEXT(2) 
PARAMETRIC_REPRESENTATION_CONTEXT() REPRESENTATION_CONTEXT('2D SPACE',''
  ) );
#1406 = ORIENTED_EDGE('',*,*,#810,.T.);
#1407 = ORIENTED_EDGE('',*,*,#1408,.T.);
#1408 = EDGE_CURVE('',#788,#322,#1409,.T.);
#1409 = SURFACE_CURVE('',#1410,(#1414,#1421),.PCURVE_S1.);
#1410 = LINE('',#1411,#1412);
#1411 = CARTESIAN_POINT('',(99.560384790128,93.990412194163,
    8.399840263246));
#1412 = VECTOR('',#1413,1.);
#1413 = DIRECTION('',(3.996803834886E-02,-0.999200958722,0.));
#1414 = PCURVE('',#364,#1415);
#1415 = DEFINITIONAL_REPRESENTATION('',(#1416),#1420);
#1416 = LINE('',#1417,#1418);
#1417 = CARTESIAN_POINT('',(5.,-5.));
#1418 = VECTOR('',#1419,1.);
#1419 = DIRECTION('',(-1.,-7.886999685028E-17));
#1420 = ( GEOMETRIC_REPRESENTATION_CONTEXT(2) 
PARAMETRIC_REPRESENTATION_CONTEXT() REPRESENTATION_CONTEXT('2D SPACE',''
  ) );
#1421 = PCURVE('',#337,#1422);
#1422 = DEFINITIONAL_REPRESENTATION('',(#1423),#1427);
#1423 = LINE('',#1424,#1425);
#1424 = CARTESIAN_POINT('',(-3.142606873093E-13,-5.));
#1425 = VECTOR('',#1426,1.);
#1426 = DIRECTION('',(1.,1.856559709823E-19));
#1427 = ( GEOMETRIC_REPRESENTATION_CONTEXT(2) 
PARAMETRIC_REPRESENTATION_CONTEXT() REPRESENTATION_CONTEXT('2D SPACE',''
  ) );
#1428 = ORIENTED_EDGE('',*,*,#349,.F.);
#1429 = ORIENTED_EDGE('',*,*,#1362,.T.);
#1430 = ORIENTED_EDGE('',*,*,#1431,.F.);
#1431 = EDGE_CURVE('',#1385,#1340,#1432,.T.);
#1432 = SURFACE_CURVE('',#1433,(#1437,#1443),.PCURVE_S1.);
#1433 = LINE('',#1434,#1435);
#1434 = CARTESIAN_POINT('',(99.866205343956,86.498646615033,
    7.63109893038));
#1435 = VECTOR('',#1436,1.);
#1436 = DIRECTION('',(7.986965276751E-03,3.194786110702E-04,
    -0.999968052649));
#1437 = PCURVE('',#364,#1438);
#1438 = DEFINITIONAL_REPRESENTATION('',(#1439),#1442);
#1439 = B_SPLINE_CURVE_WITH_KNOTS('',1,(#1440,#1441),.UNSPECIFIED.,.F.,
  .F.,(2,2),(-1.768765892899,-0.768925634757),.PIECEWISE_BEZIER_KNOTS.);
#1440 = CARTESIAN_POINT('',(-2.498002396808,-6.));
#1441 = CARTESIAN_POINT('',(-2.498002396808,-5.000159741857));
#1442 = ( GEOMETRIC_REPRESENTATION_CONTEXT(2) 
PARAMETRIC_REPRESENTATION_CONTEXT() REPRESENTATION_CONTEXT('2D SPACE',''
  ) );
#1443 = PCURVE('',#1300,#1444);
#1444 = DEFINITIONAL_REPRESENTATION('',(#1445),#1448);
#1445 = B_SPLINE_CURVE_WITH_KNOTS('',1,(#1446,#1447),.UNSPECIFIED.,.F.,
  .F.,(2,2),(-1.768765892899,-0.768925634757),.PIECEWISE_BEZIER_KNOTS.);
#1446 = CARTESIAN_POINT('',(398.08674935908,5.644696178963));
#1447 = CARTESIAN_POINT('',(398.07875728365,6.644504494858));
#1448 = ( GEOMETRIC_REPRESENTATION_CONTEXT(2) 
PARAMETRIC_REPRESENTATION_CONTEXT() REPRESENTATION_CONTEXT('2D SPACE',''
  ) );
#1449 = ADVANCED_FACE('',(#1450),#337,.T.);
#1450 = FACE_BOUND('',#1451,.T.);
#1451 = EDGE_LOOP('',(#1452,#1453,#1454,#1455));
#1452 = ORIENTED_EDGE('',*,*,#787,.T.);
#1453 = ORIENTED_EDGE('',*,*,#1408,.T.);
#1454 = ORIENTED_EDGE('',*,*,#321,.F.);
#1455 = ORIENTED_EDGE('',*,*,#1456,.T.);
#1456 = EDGE_CURVE('',#294,#765,#1457,.T.);
#1457 = SURFACE_CURVE('',#1458,(#1462,#1469),.PCURVE_S1.);
#1458 = LINE('',#1459,#1460);
#1459 = CARTESIAN_POINT('',(99.569728498352,93.836787541213,8.));
#1460 = VECTOR('',#1461,1.);
#1461 = DIRECTION('',(-3.996803834886E-02,0.999200958722,-0.));
#1462 = PCURVE('',#337,#1463);
#1463 = DEFINITIONAL_REPRESENTATION('',(#1464),#1468);
#1464 = LINE('',#1465,#1466);
#1465 = CARTESIAN_POINT('',(0.153875350199,-4.600146962509));
#1466 = VECTOR('',#1467,1.);
#1467 = DIRECTION('',(-1.,-1.856559709823E-19));
#1468 = ( GEOMETRIC_REPRESENTATION_CONTEXT(2) 
PARAMETRIC_REPRESENTATION_CONTEXT() REPRESENTATION_CONTEXT('2D SPACE',''
  ) );
#1469 = PCURVE('',#309,#1470);
#1470 = DEFINITIONAL_REPRESENTATION('',(#1471),#1475);
#1471 = LINE('',#1472,#1473);
#1472 = CARTESIAN_POINT('',(49.569728498352,2.136787541213));
#1473 = VECTOR('',#1474,1.);
#1474 = DIRECTION('',(-3.996803834886E-02,0.999200958722));
#1475 = ( GEOMETRIC_REPRESENTATION_CONTEXT(2) 
PARAMETRIC_REPRESENTATION_CONTEXT() REPRESENTATION_CONTEXT('2D SPACE',''
  ) );
#1476 = ADVANCED_FACE('',(#1477),#309,.F.);
#1477 = FACE_BOUND('',#1478,.F.);
#1478 = EDGE_LOOP('',(#1479,#1480,#1481,#1482));
#1479 = ORIENTED_EDGE('',*,*,#764,.F.);
#1480 = ORIENTED_EDGE('',*,*,#633,.T.);
#1481 = ORIENTED_EDGE('',*,*,#293,.T.);
#1482 = ORIENTED_EDGE('',*,*,#1456,.T.);
#1483 = ADVANCED_FACE('',(#1484),#896,.F.);
#1484 = FACE_BOUND('',#1485,.F.);
#1485 = EDGE_LOOP('',(#1486,#1509,#1510,#1511));
#1486 = ORIENTED_EDGE('',*,*,#1487,.F.);
#1487 = EDGE_CURVE('',#1121,#1488,#1490,.T.);
#1488 = VERTEX_POINT('',#1489);
#1489 = CARTESIAN_POINT('',(99.880095884953,86.997602876165,19.7));
#1490 = SURFACE_CURVE('',#1491,(#1495,#1502),.PCURVE_S1.);
#1491 = LINE('',#1492,#1493);
#1492 = CARTESIAN_POINT('',(100.11990411504,81.002397123835,19.7));
#1493 = VECTOR('',#1494,1.);
#1494 = DIRECTION('',(-3.996803834887E-02,0.999200958722,0.));
#1495 = PCURVE('',#896,#1496);
#1496 = DEFINITIONAL_REPRESENTATION('',(#1497),#1501);
#1497 = LINE('',#1498,#1499);
#1498 = CARTESIAN_POINT('',(275.22114857873,-1.776368020235E-15));
#1499 = VECTOR('',#1500,1.);
#1500 = DIRECTION('',(4.062472934384E-23,-1.));
#1501 = ( GEOMETRIC_REPRESENTATION_CONTEXT(2) 
PARAMETRIC_REPRESENTATION_CONTEXT() REPRESENTATION_CONTEXT('2D SPACE',''
  ) );
#1502 = PCURVE('',#1190,#1503);
#1503 = DEFINITIONAL_REPRESENTATION('',(#1504),#1508);
#1504 = LINE('',#1505,#1506);
#1505 = CARTESIAN_POINT('',(0.,0.));
#1506 = VECTOR('',#1507,1.);
#1507 = DIRECTION('',(0.,-1.));
#1508 = ( GEOMETRIC_REPRESENTATION_CONTEXT(2) 
PARAMETRIC_REPRESENTATION_CONTEXT() REPRESENTATION_CONTEXT('2D SPACE',''
  ) );
#1509 = ORIENTED_EDGE('',*,*,#1120,.T.);
#1510 = ORIENTED_EDGE('',*,*,#883,.T.);
#1511 = ORIENTED_EDGE('',*,*,#1512,.T.);
#1512 = EDGE_CURVE('',#858,#1488,#1513,.T.);
#1513 = SURFACE_CURVE('',#1514,(#1518,#1525),.PCURVE_S1.);
#1514 = LINE('',#1515,#1516);
#1515 = CARTESIAN_POINT('',(374.88009588495,97.997602876165,18.875));
#1516 = VECTOR('',#1517,1.);
#1517 = DIRECTION('',(-0.99919646953,-3.996785878122E-02,
    2.997589408591E-03));
#1518 = PCURVE('',#896,#1519);
#1519 = DEFINITIONAL_REPRESENTATION('',(#1520),#1524);
#1520 = LINE('',#1521,#1522);
#1521 = CARTESIAN_POINT('',(-1.196265309034E-14,-6.));
#1522 = VECTOR('',#1523,1.);
#1523 = DIRECTION('',(1.,-6.938934528819E-18));
#1524 = ( GEOMETRIC_REPRESENTATION_CONTEXT(2) 
PARAMETRIC_REPRESENTATION_CONTEXT() REPRESENTATION_CONTEXT('2D SPACE',''
  ) );
#1525 = PCURVE('',#872,#1526);
#1526 = DEFINITIONAL_REPRESENTATION('',(#1527),#1531);
#1527 = LINE('',#1528,#1529);
#1528 = CARTESIAN_POINT('',(-138.3402226445,-4.483139079892));
#1529 = VECTOR('',#1530,1.);
#1530 = DIRECTION('',(0.999995507219,-2.997589408591E-03));
#1531 = ( GEOMETRIC_REPRESENTATION_CONTEXT(2) 
PARAMETRIC_REPRESENTATION_CONTEXT() REPRESENTATION_CONTEXT('2D SPACE',''
  ) );
#1532 = ADVANCED_FACE('',(#1533),#872,.T.);
#1533 = FACE_BOUND('',#1534,.T.);
#1534 = EDGE_LOOP('',(#1535,#1536,#1559,#1579));
#1535 = ORIENTED_EDGE('',*,*,#1512,.T.);
#1536 = ORIENTED_EDGE('',*,*,#1537,.T.);
#1537 = EDGE_CURVE('',#1488,#1538,#1540,.T.);
#1538 = VERTEX_POINT('',#1539);
#1539 = CARTESIAN_POINT('',(99.880095884953,86.997602876165,
    9.400191690229));
#1540 = SURFACE_CURVE('',#1541,(#1545,#1552),.PCURVE_S1.);
#1541 = LINE('',#1542,#1543);
#1542 = CARTESIAN_POINT('',(99.880095884953,86.997602876165,19.7));
#1543 = VECTOR('',#1544,1.);
#1544 = DIRECTION('',(0.,0.,-1.));
#1545 = PCURVE('',#872,#1546);
#1546 = DEFINITIONAL_REPRESENTATION('',(#1547),#1551);
#1547 = LINE('',#1548,#1549);
#1548 = CARTESIAN_POINT('',(136.87968942579,-5.308139079892));
#1549 = VECTOR('',#1550,1.);
#1550 = DIRECTION('',(-0.,1.));
#1551 = ( GEOMETRIC_REPRESENTATION_CONTEXT(2) 
PARAMETRIC_REPRESENTATION_CONTEXT() REPRESENTATION_CONTEXT('2D SPACE',''
  ) );
#1552 = PCURVE('',#1190,#1553);
#1553 = DEFINITIONAL_REPRESENTATION('',(#1554),#1558);
#1554 = LINE('',#1555,#1556);
#1555 = CARTESIAN_POINT('',(0.,-6.));
#1556 = VECTOR('',#1557,1.);
#1557 = DIRECTION('',(1.,0.));
#1558 = ( GEOMETRIC_REPRESENTATION_CONTEXT(2) 
PARAMETRIC_REPRESENTATION_CONTEXT() REPRESENTATION_CONTEXT('2D SPACE',''
  ) );
#1559 = ORIENTED_EDGE('',*,*,#1560,.T.);
#1560 = EDGE_CURVE('',#1538,#832,#1561,.T.);
#1561 = SURFACE_CURVE('',#1562,(#1566,#1572),.PCURVE_S1.);
#1562 = LINE('',#1563,#1564);
#1563 = CARTESIAN_POINT('',(389.7743794821,98.593374220052,
    11.719345959006));
#1564 = VECTOR('',#1565,1.);
#1565 = DIRECTION('',(0.999169036898,3.996676147593E-02,
    7.993352295186E-03));
#1566 = PCURVE('',#872,#1567);
#1567 = DEFINITIONAL_REPRESENTATION('',(#1568),#1571);
#1568 = B_SPLINE_CURVE_WITH_KNOTS('',1,(#1569,#1570),.UNSPECIFIED.,.F.,
  .F.,(2,2),(-290.1353753886,-14.9066704903),.PIECEWISE_BEZIER_KNOTS.);
#1569 = CARTESIAN_POINT('',(136.87968942579,4.991669229879));
#1570 = CARTESIAN_POINT('',(-138.3402226445,2.791669229879));
#1571 = ( GEOMETRIC_REPRESENTATION_CONTEXT(2) 
PARAMETRIC_REPRESENTATION_CONTEXT() REPRESENTATION_CONTEXT('2D SPACE',''
  ) );
#1572 = PCURVE('',#846,#1573);
#1573 = DEFINITIONAL_REPRESENTATION('',(#1574),#1578);
#1574 = LINE('',#1575,#1576);
#1575 = CARTESIAN_POINT('',(-28.51399157599,4.142922112725));
#1576 = VECTOR('',#1577,1.);
#1577 = DIRECTION('',(-0.999201009714,3.996676351557E-02));
#1578 = ( GEOMETRIC_REPRESENTATION_CONTEXT(2) 
PARAMETRIC_REPRESENTATION_CONTEXT() REPRESENTATION_CONTEXT('2D SPACE',''
  ) );
#1579 = ORIENTED_EDGE('',*,*,#857,.T.);
#1580 = ADVANCED_FACE('',(#1581),#846,.T.);
#1581 = FACE_BOUND('',#1582,.T.);
#1582 = EDGE_LOOP('',(#1583,#1604,#1605,#1606,#1607));
#1583 = ORIENTED_EDGE('',*,*,#1584,.F.);
#1584 = EDGE_CURVE('',#1385,#1585,#1587,.T.);
#1585 = VERTEX_POINT('',#1586);
#1586 = CARTESIAN_POINT('',(99.900000063847,86.499998403829,
    9.400191690229));
#1587 = SURFACE_CURVE('',#1588,(#1592,#1598),.PCURVE_S1.);
#1588 = LINE('',#1589,#1590);
#1589 = CARTESIAN_POINT('',(429.40085778351,99.680032712612,
    12.036198551986));
#1590 = VECTOR('',#1591,1.);
#1591 = DIRECTION('',(0.999169036898,3.996676147592E-02,
    7.993352295186E-03));
#1592 = PCURVE('',#846,#1593);
#1593 = DEFINITIONAL_REPRESENTATION('',(#1594),#1597);
#1594 = B_SPLINE_CURVE_WITH_KNOTS('',1,(#1595,#1596),.UNSPECIFIED.,.F.,
  .F.,(2,2),(-329.874811772,-199.6667335036),.PIECEWISE_BEZIER_KNOTS.);
#1595 = CARTESIAN_POINT('',(261.46950837254,-7.95444793109));
#1596 = CARTESIAN_POINT('',(131.36546509383,-2.750452459123));
#1597 = ( GEOMETRIC_REPRESENTATION_CONTEXT(2) 
PARAMETRIC_REPRESENTATION_CONTEXT() REPRESENTATION_CONTEXT('2D SPACE',''
  ) );
#1598 = PCURVE('',#1300,#1599);
#1599 = DEFINITIONAL_REPRESENTATION('',(#1600),#1603);
#1600 = B_SPLINE_CURVE_WITH_KNOTS('',1,(#1601,#1602),.UNSPECIFIED.,.F.,
  .F.,(2,2),(-329.874811772,-199.6667335036),.PIECEWISE_BEZIER_KNOTS.);
#1601 = CARTESIAN_POINT('',(398.13870934118,5.645111526674));
#1602 = CARTESIAN_POINT('',(267.93479087596,4.604312485396));
#1603 = ( GEOMETRIC_REPRESENTATION_CONTEXT(2) 
PARAMETRIC_REPRESENTATION_CONTEXT() REPRESENTATION_CONTEXT('2D SPACE',''
  ) );
#1604 = ORIENTED_EDGE('',*,*,#1384,.T.);
#1605 = ORIENTED_EDGE('',*,*,#831,.T.);
#1606 = ORIENTED_EDGE('',*,*,#1560,.F.);
#1607 = ORIENTED_EDGE('',*,*,#1608,.T.);
#1608 = EDGE_CURVE('',#1538,#1585,#1609,.T.);
#1609 = SURFACE_CURVE('',#1610,(#1614,#1621),.PCURVE_S1.);
#1610 = LINE('',#1611,#1612);
#1611 = CARTESIAN_POINT('',(100.05995205752,82.501198561917,
    9.400191690229));
#1612 = VECTOR('',#1613,1.);
#1613 = DIRECTION('',(3.996803834887E-02,-0.999200958722,
    2.2416596067E-16));
#1614 = PCURVE('',#846,#1615);
#1615 = DEFINITIONAL_REPRESENTATION('',(#1616),#1620);
#1616 = LINE('',#1617,#1618);
#1617 = CARTESIAN_POINT('',(261.20971803032,-11.94925436664));
#1618 = VECTOR('',#1619,1.);
#1619 = DIRECTION('',(-3.996676351557E-02,-0.999201009714));
#1620 = ( GEOMETRIC_REPRESENTATION_CONTEXT(2) 
PARAMETRIC_REPRESENTATION_CONTEXT() REPRESENTATION_CONTEXT('2D SPACE',''
  ) );
#1621 = PCURVE('',#1190,#1622);
#1622 = DEFINITIONAL_REPRESENTATION('',(#1623),#1626);
#1623 = B_SPLINE_CURVE_WITH_KNOTS('',1,(#1624,#1625),.UNSPECIFIED.,.F.,
  .F.,(2,2),(-4.5,1.5),.PIECEWISE_BEZIER_KNOTS.);
#1624 = CARTESIAN_POINT('',(10.299808309771,-6.));
#1625 = CARTESIAN_POINT('',(10.299808309771,0.));
#1626 = ( GEOMETRIC_REPRESENTATION_CONTEXT(2) 
PARAMETRIC_REPRESENTATION_CONTEXT() REPRESENTATION_CONTEXT('2D SPACE',''
  ) );
#1627 = ADVANCED_FACE('',(#1628),#1217,.F.);
#1628 = FACE_BOUND('',#1629,.F.);
#1629 = EDGE_LOOP('',(#1630,#1631,#1632,#1653));
#1630 = ORIENTED_EDGE('',*,*,#1261,.F.);
#1631 = ORIENTED_EDGE('',*,*,#1202,.T.);
#1632 = ORIENTED_EDGE('',*,*,#1633,.F.);
#1633 = EDGE_CURVE('',#1634,#1171,#1636,.T.);
#1634 = VERTEX_POINT('',#1635);
#1635 = CARTESIAN_POINT('',(99.900000063848,86.499998403808,
    19.699700479234));
#1636 = SURFACE_CURVE('',#1637,(#1641,#1647),.PCURVE_S1.);
#1637 = LINE('',#1638,#1639);
#1638 = CARTESIAN_POINT('',(100.10987218531,81.253195367029,
    19.699700479233));
#1639 = VECTOR('',#1640,1.);
#1640 = DIRECTION('',(3.996803834887E-02,-0.999200958722,
    3.995302955631E-17));
#1641 = PCURVE('',#1217,#1642);
#1642 = DEFINITIONAL_REPRESENTATION('',(#1643),#1646);
#1643 = B_SPLINE_CURVE_WITH_KNOTS('',1,(#1644,#1645),.UNSPECIFIED.,.F.,
  .F.,(2,2),(-5.250998801598,-5.249001180457),.PIECEWISE_BEZIER_KNOTS.);
#1644 = CARTESIAN_POINT('',(800.54342077517,-5.000000000016));
#1645 = CARTESIAN_POINT('',(800.54342077517,-4.998002378876));
#1646 = ( GEOMETRIC_REPRESENTATION_CONTEXT(2) 
PARAMETRIC_REPRESENTATION_CONTEXT() REPRESENTATION_CONTEXT('2D SPACE',''
  ) );
#1647 = PCURVE('',#1190,#1648);
#1648 = DEFINITIONAL_REPRESENTATION('',(#1649),#1652);
#1649 = B_SPLINE_CURVE_WITH_KNOTS('',1,(#1650,#1651),.UNSPECIFIED.,.F.,
  .F.,(2,2),(-5.250998801598,-5.249001180457),.PIECEWISE_BEZIER_KNOTS.);
#1650 = CARTESIAN_POINT('',(2.995207671967E-04,-5.501997603196));
#1651 = CARTESIAN_POINT('',(2.995207671967E-04,-5.499999982055));
#1652 = ( GEOMETRIC_REPRESENTATION_CONTEXT(2) 
PARAMETRIC_REPRESENTATION_CONTEXT() REPRESENTATION_CONTEXT('2D SPACE',''
  ) );
#1653 = ORIENTED_EDGE('',*,*,#1654,.T.);
#1654 = EDGE_CURVE('',#1634,#1262,#1655,.T.);
#1655 = SURFACE_CURVE('',#1656,(#1660,#1667),.PCURVE_S1.);
#1656 = LINE('',#1657,#1658);
#1657 = CARTESIAN_POINT('',(899.80015980825,118.4960047936,17.3));
#1658 = VECTOR('',#1659,1.);
#1659 = DIRECTION('',(-0.99919646953,-3.996785878124E-02,
    2.997589408592E-03));
#1660 = PCURVE('',#1217,#1661);
#1661 = DEFINITIONAL_REPRESENTATION('',(#1662),#1666);
#1662 = LINE('',#1663,#1664);
#1663 = CARTESIAN_POINT('',(5.908715696091E-12,-4.999999999991));
#1664 = VECTOR('',#1665,1.);
#1665 = DIRECTION('',(1.,-6.998775023993E-18));
#1666 = ( GEOMETRIC_REPRESENTATION_CONTEXT(2) 
PARAMETRIC_REPRESENTATION_CONTEXT() REPRESENTATION_CONTEXT('2D SPACE',''
  ) );
#1667 = PCURVE('',#1300,#1668);
#1668 = DEFINITIONAL_REPRESENTATION('',(#1669),#1673);
#1669 = LINE('',#1670,#1671);
#1670 = CARTESIAN_POINT('',(-402.5010348634,-2.255495505142));
#1671 = VECTOR('',#1672,1.);
#1672 = DIRECTION('',(0.999995507219,-2.997589408592E-03));
#1673 = ( GEOMETRIC_REPRESENTATION_CONTEXT(2) 
PARAMETRIC_REPRESENTATION_CONTEXT() REPRESENTATION_CONTEXT('2D SPACE',''
  ) );
#1674 = ADVANCED_FACE('',(#1675),#1190,.F.);
#1675 = FACE_BOUND('',#1676,.F.);
#1676 = EDGE_LOOP('',(#1677,#1678,#1697,#1698,#1699,#1700));
#1677 = ORIENTED_EDGE('',*,*,#1608,.T.);
#1678 = ORIENTED_EDGE('',*,*,#1679,.F.);
#1679 = EDGE_CURVE('',#1634,#1585,#1680,.T.);
#1680 = SURFACE_CURVE('',#1681,(#1685,#1691),.PCURVE_S1.);
#1681 = LINE('',#1682,#1683);
#1682 = CARTESIAN_POINT('',(99.900000063847,86.499998403829,
    17.372252247429));
#1683 = VECTOR('',#1684,1.);
#1684 = DIRECTION('',(-8.36742527595E-18,2.091856318987E-16,-1.));
#1685 = PCURVE('',#1190,#1686);
#1686 = DEFINITIONAL_REPRESENTATION('',(#1687),#1690);
#1687 = B_SPLINE_CURVE_WITH_KNOTS('',1,(#1688,#1689),.UNSPECIFIED.,.F.,
  .F.,(2,2),(-2.327747752572,7.9720605572),.PIECEWISE_BEZIER_KNOTS.);
#1688 = CARTESIAN_POINT('',(-7.807088309164E-13,-5.501997603192));
#1689 = CARTESIAN_POINT('',(10.299808309771,-5.501997603192));
#1690 = ( GEOMETRIC_REPRESENTATION_CONTEXT(2) 
PARAMETRIC_REPRESENTATION_CONTEXT() REPRESENTATION_CONTEXT('2D SPACE',''
  ) );
#1691 = PCURVE('',#1300,#1692);
#1692 = DEFINITIONAL_REPRESENTATION('',(#1693),#1696);
#1693 = B_SPLINE_CURVE_WITH_KNOTS('',1,(#1694,#1695),.UNSPECIFIED.,.F.,
  .F.,(2,2),(-2.327747752572,7.9720605572),.PIECEWISE_BEZIER_KNOTS.);
#1694 = CARTESIAN_POINT('',(398.0387892453,-4.655495505143));
#1695 = CARTESIAN_POINT('',(398.0387892453,5.644312804629));
#1696 = ( GEOMETRIC_REPRESENTATION_CONTEXT(2) 
PARAMETRIC_REPRESENTATION_CONTEXT() REPRESENTATION_CONTEXT('2D SPACE',''
  ) );
#1697 = ORIENTED_EDGE('',*,*,#1633,.T.);
#1698 = ORIENTED_EDGE('',*,*,#1170,.F.);
#1699 = ORIENTED_EDGE('',*,*,#1487,.T.);
#1700 = ORIENTED_EDGE('',*,*,#1537,.T.);
#1701 = ADVANCED_FACE('',(#1702),#1300,.T.);
#1702 = FACE_BOUND('',#1703,.T.);
#1703 = EDGE_LOOP('',(#1704,#1705,#1706,#1707,#1708,#1709));
#1704 = ORIENTED_EDGE('',*,*,#1679,.F.);
#1705 = ORIENTED_EDGE('',*,*,#1654,.T.);
#1706 = ORIENTED_EDGE('',*,*,#1284,.T.);
#1707 = ORIENTED_EDGE('',*,*,#1339,.T.);
#1708 = ORIENTED_EDGE('',*,*,#1431,.F.);
#1709 = ORIENTED_EDGE('',*,*,#1584,.T.);
#1710 = ( GEOMETRIC_REPRESENTATION_CONTEXT(3) 
GLOBAL_UNCERTAINTY_ASSIGNED_CONTEXT((#1714)) 
GLOBAL_UNIT_ASSIGNED_CONTEXT((#1711,#1712,#1713)) REPRESENTATION_CONTEXT
('Context #1','3D Context with UNIT and UNCERTAINTY') );
#1711 = ( LENGTH_UNIT() NAMED_UNIT(*) SI_UNIT(.MILLI.,.METRE.) );
#1712 = ( NAMED_UNIT(*) PLANE_ANGLE_UNIT() SI_UNIT($,.RADIAN.) );
#1713 = ( NAMED_UNIT(*) SI_UNIT($,.STERADIAN.) SOLID_ANGLE_UNIT() );
#1714 = UNCERTAINTY_MEASURE_WITH_UNIT(LENGTH_MEASURE(5.E-05),#1711,
  'distance_accuracy_value','confusion accuracy');
#1715 = PRODUCT_RELATED_PRODUCT_CATEGORY('part',$,(#7));
ENDSEC;
END-ISO-10303-21;
