ISO-10303-21;
HEADER;
FILE_DESCRIPTION(('Open CASCADE Model'),'2;1');
FILE_NAME('Open CASCADE Shape Model','2026-09-23T19:44:17',('Author'),(
    'Open CASCADE'),'Open CASCADE STEP processor 7.9','Open CASCADE 7.9'
  ,'Unknown');
FILE_SCHEMA(('AUTOMOTIVE_DESIGN { 1 0 10303 214 1 1 1 1 }'));
ENDSEC;
DATA;
#1 = APPLICATION_PROTOCOL_DEFINITION('international standard',
  'automotive_design',2000,#2);
#2 = APPLICATION_CONTEXT(
  'core data for automotive mechanical design processes');
#3 = SHAPE_DEFINITION_REPRESENTATION(#4,#10);
#4 = PRODUCT_DEFINITION_SHAPE('','',#5);
#5 = PRODUCT_DEFINITION('design','',#6,#9);
#6 = PRODUCT_DEFINITION_FORMATION('','',#7);
#7 = PRODUCT('Open CASCADE STEP translator 7.9 19',
  'Open CASCADE STEP translator 7.9 19','',(#8));
#8 = PRODUCT_CONTEXT('',#2,'mechanical');
#9 = PRODUCT_DEFINITION_CONTEXT('part definition',#2,'design');
#10 = ADVANCED_BREP_SHAPE_REPRESENTATION('',(#11,#15),#459);
#11 = AXIS2_PLACEMENT_3D('',#12,#13,#14);
#12 = CARTESIAN_POINT('',(0.,0.,0.));
#13 = DIRECTION('',(0.,0.,1.));
#14 = DIRECTION('',(1.,0.,-0.));
#15 = MANIFOLD_SOLID_BREP('',#16);
#16 = CLOSED_SHELL('',(#17,#199,#275,#324,#420,#425,#452));
#17 = ADVANCED_FACE('',(#18),#32,.T.);
#18 = FACE_BOUND('',#19,.F.);
#19 = EDGE_LOOP('',(#20,#55,#83,#111,#150,#173));
#20 = ORIENTED_EDGE('',*,*,#21,.F.);
#21 = EDGE_CURVE('',#22,#24,#26,.T.);
#22 = VERTEX_POINT('',#23);
#23 = CARTESIAN_POINT('',(-998.9966293387,124.96386357482,
    10.593571756244));
#24 = VERTEX_POINT('',#25);
#25 = CARTESIAN_POINT('',(-999.3963097222,114.97185398761,
    10.593571756244));
#26 = SURFACE_CURVE('',#27,(#31,#43),.PCURVE_S1.);
#27 = LINE('',#28,#29);
#28 = CARTESIAN_POINT('',(-998.9966293387,124.96386357482,
    10.593571756244));
#29 = VECTOR('',#30,1.);
#30 = DIRECTION('',(-3.996803834887E-02,-0.999200958722,-0.));
#31 = PCURVE('',#32,#37);
#32 = PLANE('',#33);
#33 = AXIS2_PLACEMENT_3D('',#34,#35,#36);
#34 = CARTESIAN_POINT('',(-998.9966293387,124.96386357482,
    10.593571756244));
#35 = DIRECTION('',(-0.999169036898,3.996676147592E-02,
    7.993352295186E-03));
#36 = DIRECTION('',(3.996803834887E-02,0.999200958722,0.));
#37 = DEFINITIONAL_REPRESENTATION('',(#38),#42);
#38 = LINE('',#39,#40);
#39 = CARTESIAN_POINT('',(0.,-0.));
#40 = VECTOR('',#41,1.);
#41 = DIRECTION('',(-1.,-5.546325155229E-20));
#42 = ( GEOMETRIC_REPRESENTATION_CONTEXT(2) 
PARAMETRIC_REPRESENTATION_CONTEXT() REPRESENTATION_CONTEXT('2D SPACE',''
  ) );
#43 = PCURVE('',#44,#49);
#44 = PLANE('',#45);
#45 = AXIS2_PLACEMENT_3D('',#46,#47,#48);
#46 = CARTESIAN_POINT('',(-811.880106951,112.47520427804,9.095040855608)
  );
#47 = DIRECTION('',(-7.986965276751E-03,3.194786110698E-04,
    -0.999968052649));
#48 = DIRECTION('',(-0.999968103681,-0.,7.986965684352E-03));
#49 = DEFINITIONAL_REPRESENTATION('',(#50),#54);
#50 = LINE('',#51,#52);
#51 = CARTESIAN_POINT('',(187.12252277427,12.488659934124));
#52 = VECTOR('',#53,1.);
#53 = DIRECTION('',(3.996676351556E-02,-0.999201009714));
#54 = ( GEOMETRIC_REPRESENTATION_CONTEXT(2) 
PARAMETRIC_REPRESENTATION_CONTEXT() REPRESENTATION_CONTEXT('2D SPACE',''
  ) );
#55 = ORIENTED_EDGE('',*,*,#56,.T.);
#56 = EDGE_CURVE('',#22,#57,#59,.T.);
#57 = VERTEX_POINT('',#58);
#58 = CARTESIAN_POINT('',(-998.948707547,124.96194670316,16.593380072139
    ));
#59 = SURFACE_CURVE('',#60,(#64,#71),.PCURVE_S1.);
#60 = LINE('',#61,#62);
#61 = CARTESIAN_POINT('',(-998.9966293387,124.96386357482,
    10.593571756244));
#62 = VECTOR('',#63,1.);
#63 = DIRECTION('',(7.986965276751E-03,-3.1947861107E-04,0.999968052649)
  );
#64 = PCURVE('',#32,#65);
#65 = DEFINITIONAL_REPRESENTATION('',(#66),#70);
#66 = LINE('',#67,#68);
#67 = CARTESIAN_POINT('',(0.,-0.));
#68 = VECTOR('',#69,1.);
#69 = DIRECTION('',(-4.629543276513E-17,-1.));
#70 = ( GEOMETRIC_REPRESENTATION_CONTEXT(2) 
PARAMETRIC_REPRESENTATION_CONTEXT() REPRESENTATION_CONTEXT('2D SPACE',''
  ) );
#71 = PCURVE('',#72,#77);
#72 = PLANE('',#73);
#73 = AXIS2_PLACEMENT_3D('',#74,#75,#76);
#74 = CARTESIAN_POINT('',(-624.3639041798,109.97855456847,7.596509954973
    ));
#75 = DIRECTION('',(3.996803834887E-02,0.999200958722,
    -2.710505431214E-19));
#76 = DIRECTION('',(0.999169036898,-3.996676147593E-02,
    -7.993352295186E-03));
#77 = DEFINITIONAL_REPRESENTATION('',(#78),#82);
#78 = LINE('',#79,#80);
#79 = CARTESIAN_POINT('',(-374.9442900291,4.440892098501E-16));
#80 = VECTOR('',#81,1.);
#81 = DIRECTION('',(-1.734723475977E-18,-1.));
#82 = ( GEOMETRIC_REPRESENTATION_CONTEXT(2) 
PARAMETRIC_REPRESENTATION_CONTEXT() REPRESENTATION_CONTEXT('2D SPACE',''
  ) );
#83 = ORIENTED_EDGE('',*,*,#84,.T.);
#84 = EDGE_CURVE('',#57,#85,#87,.T.);
#85 = VERTEX_POINT('',#86);
#86 = CARTESIAN_POINT('',(-999.049975034,122.43025952933,16.593380072139
    ));
#87 = SURFACE_CURVE('',#88,(#92,#99),.PCURVE_S1.);
#88 = LINE('',#89,#90);
#89 = CARTESIAN_POINT('',(-998.948707547,124.96194670316,16.593380072139
    ));
#90 = VECTOR('',#91,1.);
#91 = DIRECTION('',(-3.996803834887E-02,-0.999200958722,-0.));
#92 = PCURVE('',#32,#93);
#93 = DEFINITIONAL_REPRESENTATION('',(#94),#98);
#94 = LINE('',#95,#96);
#95 = CARTESIAN_POINT('',(-2.549609828817E-15,-6.));
#96 = VECTOR('',#97,1.);
#97 = DIRECTION('',(-1.,-5.546325155229E-20));
#98 = ( GEOMETRIC_REPRESENTATION_CONTEXT(2) 
PARAMETRIC_REPRESENTATION_CONTEXT() REPRESENTATION_CONTEXT('2D SPACE',''
  ) );
#99 = PCURVE('',#100,#105);
#100 = PLANE('',#101);
#101 = AXIS2_PLACEMENT_3D('',#102,#103,#104);
#102 = CARTESIAN_POINT('',(-811.8321851593,112.47328740637,
    15.094849171504));
#103 = DIRECTION('',(-7.986965276751E-03,3.194786110698E-04,
    -0.999968052649));
#104 = DIRECTION('',(-0.999968103681,-0.,7.986965684352E-03));
#105 = DEFINITIONAL_REPRESENTATION('',(#106),#110);
#106 = LINE('',#107,#108);
#107 = CARTESIAN_POINT('',(187.12252277427,12.488659934124));
#108 = VECTOR('',#109,1.);
#109 = DIRECTION('',(3.996676351556E-02,-0.999201009714));
#110 = ( GEOMETRIC_REPRESENTATION_CONTEXT(2) 
PARAMETRIC_REPRESENTATION_CONTEXT() REPRESENTATION_CONTEXT('2D SPACE',''
  ) );
#111 = ORIENTED_EDGE('',*,*,#112,.F.);
#112 = EDGE_CURVE('',#113,#85,#115,.T.);
#113 = VERTEX_POINT('',#114);
#114 = CARTESIAN_POINT('',(-999.2471204436,117.50162428981,
    16.593380072139));
#115 = SURFACE_CURVE('',#116,(#121,#132),.PCURVE_S1.);
#116 = ELLIPSE('',#117,2.500151011063,2.5);
#117 = AXIS2_PLACEMENT_3D('',#118,#119,#120);
#118 = CARTESIAN_POINT('',(-999.1452794952,119.96581117983,
    17.002564161513));
#119 = DIRECTION('',(0.999169036898,-3.996676147592E-02,
    -7.993352295186E-03));
#120 = DIRECTION('',(-7.986965276657E-03,3.194786134136E-04,
    -0.999968052649));
#121 = PCURVE('',#32,#122);
#122 = DEFINITIONAL_REPRESENTATION('',(#123),#131);
#123 = ( BOUNDED_CURVE() B_SPLINE_CURVE(2,(#124,#125,#126,#127,#128,#129
,#130),.UNSPECIFIED.,.T.,.F.) B_SPLINE_CURVE_WITH_KNOTS((1,2,2,2,2,1),(
    -2.094395102393,0.,2.094395102393,4.188790204786,6.28318530718,
8.377580409573),.UNSPECIFIED.) CURVE() GEOMETRIC_REPRESENTATION_ITEM() 
RATIONAL_B_SPLINE_CURVE((1.,0.5,1.,0.5,1.,0.5,1.)) REPRESENTATION_ITEM(
  '') );
#124 = CARTESIAN_POINT('',(-4.999999999974,-3.909046151076));
#125 = CARTESIAN_POINT('',(-0.669872981052,-3.909046151087));
#126 = CARTESIAN_POINT('',(-2.834936490522,-7.659272667676));
#127 = CARTESIAN_POINT('',(-4.999999999992,-11.40949918426));
#128 = CARTESIAN_POINT('',(-7.165063509444,-7.659272667665));
#129 = CARTESIAN_POINT('',(-9.330127018896,-3.909046151066));
#130 = CARTESIAN_POINT('',(-4.999999999974,-3.909046151076));
#131 = ( GEOMETRIC_REPRESENTATION_CONTEXT(2) 
PARAMETRIC_REPRESENTATION_CONTEXT() REPRESENTATION_CONTEXT('2D SPACE',''
  ) );
#132 = PCURVE('',#133,#138);
#133 = CYLINDRICAL_SURFACE('',#134,2.5);
#134 = AXIS2_PLACEMENT_3D('',#135,#136,#137);
#135 = CARTESIAN_POINT('',(-0.15,80.006,19.99955));
#136 = DIRECTION('',(-0.99919646953,3.996785878124E-02,
    -2.997589408592E-03));
#137 = DIRECTION('',(3.996803834889E-02,0.999200958722,
    8.988036009905E-17));
#138 = DEFINITIONAL_REPRESENTATION('',(#139),#149);
#139 = B_SPLINE_CURVE_WITH_KNOTS('',8,(#140,#141,#142,#143,#144,#145,
    #146,#147,#148),.UNSPECIFIED.,.F.,.F.,(9,9),(4.635998179656,
    7.853981633972),.PIECEWISE_BEZIER_KNOTS.);
#140 = CARTESIAN_POINT('',(-3.065201852864,999.79655109474));
#141 = CARTESIAN_POINT('',(-3.467449784653,999.80757210364));
#142 = CARTESIAN_POINT('',(-3.869697716437,999.81898104737));
#143 = CARTESIAN_POINT('',(-4.271945648234,999.82805898552));
#144 = CARTESIAN_POINT('',(-4.674193580006,999.83196375053));
#145 = CARTESIAN_POINT('',(-5.076441511814,999.82908192742));
#146 = CARTESIAN_POINT('',(-5.478689443599,999.82075472979));
#147 = CARTESIAN_POINT('',(-5.88093737539,999.80970141661));
#148 = CARTESIAN_POINT('',(-6.28318530718,999.79864817248));
#149 = ( GEOMETRIC_REPRESENTATION_CONTEXT(2) 
PARAMETRIC_REPRESENTATION_CONTEXT() REPRESENTATION_CONTEXT('2D SPACE',''
  ) );
#150 = ORIENTED_EDGE('',*,*,#151,.T.);
#151 = EDGE_CURVE('',#113,#152,#154,.T.);
#152 = VERTEX_POINT('',#153);
#153 = CARTESIAN_POINT('',(-999.3483879305,114.96993711594,
    16.593380072139));
#154 = SURFACE_CURVE('',#155,(#159,#166),.PCURVE_S1.);
#155 = LINE('',#156,#157);
#156 = CARTESIAN_POINT('',(-998.948707547,124.96194670316,
    16.593380072139));
#157 = VECTOR('',#158,1.);
#158 = DIRECTION('',(-3.996803834887E-02,-0.999200958722,-0.));
#159 = PCURVE('',#32,#160);
#160 = DEFINITIONAL_REPRESENTATION('',(#161),#165);
#161 = LINE('',#162,#163);
#162 = CARTESIAN_POINT('',(-2.549609828817E-15,-6.));
#163 = VECTOR('',#164,1.);
#164 = DIRECTION('',(-1.,-5.546325155229E-20));
#165 = ( GEOMETRIC_REPRESENTATION_CONTEXT(2) 
PARAMETRIC_REPRESENTATION_CONTEXT() REPRESENTATION_CONTEXT('2D SPACE',''
  ) );
#166 = PCURVE('',#100,#167);
#167 = DEFINITIONAL_REPRESENTATION('',(#168),#172);
#168 = LINE('',#169,#170);
#169 = CARTESIAN_POINT('',(187.12252277427,12.488659934124));
#170 = VECTOR('',#171,1.);
#171 = DIRECTION('',(3.996676351556E-02,-0.999201009714));
#172 = ( GEOMETRIC_REPRESENTATION_CONTEXT(2) 
PARAMETRIC_REPRESENTATION_CONTEXT() REPRESENTATION_CONTEXT('2D SPACE',''
  ) );
#173 = ORIENTED_EDGE('',*,*,#174,.F.);
#174 = EDGE_CURVE('',#24,#152,#175,.T.);
#175 = SURFACE_CURVE('',#176,(#180,#187),.PCURVE_S1.);
#176 = LINE('',#177,#178);
#177 = CARTESIAN_POINT('',(-999.3963097222,114.97185398761,
    10.593571756244));
#178 = VECTOR('',#179,1.);
#179 = DIRECTION('',(7.986965276751E-03,-3.1947861107E-04,0.999968052649
    ));
#180 = PCURVE('',#32,#181);
#181 = DEFINITIONAL_REPRESENTATION('',(#182),#186);
#182 = LINE('',#183,#184);
#183 = CARTESIAN_POINT('',(-10.,-4.336808689942E-19));
#184 = VECTOR('',#185,1.);
#185 = DIRECTION('',(-4.629543276513E-17,-1.));
#186 = ( GEOMETRIC_REPRESENTATION_CONTEXT(2) 
PARAMETRIC_REPRESENTATION_CONTEXT() REPRESENTATION_CONTEXT('2D SPACE',''
  ) );
#187 = PCURVE('',#188,#193);
#188 = PLANE('',#189);
#189 = AXIS2_PLACEMENT_3D('',#190,#191,#192);
#190 = CARTESIAN_POINT('',(-999.3963097222,114.97185398761,
    10.593571756244));
#191 = DIRECTION('',(-3.996803834887E-02,-0.999200958722,-0.));
#192 = DIRECTION('',(-0.999169036898,3.996676147593E-02,
    7.993352295186E-03));
#193 = DEFINITIONAL_REPRESENTATION('',(#194),#198);
#194 = LINE('',#195,#196);
#195 = CARTESIAN_POINT('',(-0.,0.));
#196 = VECTOR('',#197,1.);
#197 = DIRECTION('',(1.734723475977E-18,-1.));
#198 = ( GEOMETRIC_REPRESENTATION_CONTEXT(2) 
PARAMETRIC_REPRESENTATION_CONTEXT() REPRESENTATION_CONTEXT('2D SPACE',''
  ) );
#199 = ADVANCED_FACE('',(#200),#44,.T.);
#200 = FACE_BOUND('',#201,.F.);
#201 = EDGE_LOOP('',(#202,#203,#226,#254));
#202 = ORIENTED_EDGE('',*,*,#21,.T.);
#203 = ORIENTED_EDGE('',*,*,#204,.T.);
#204 = EDGE_CURVE('',#24,#205,#207,.T.);
#205 = VERTEX_POINT('',#206);
#206 = CARTESIAN_POINT('',(-624.7635845633,99.986544981255,
    7.596509954973));
#207 = SURFACE_CURVE('',#208,(#212,#219),.PCURVE_S1.);
#208 = LINE('',#209,#210);
#209 = CARTESIAN_POINT('',(-999.3963097222,114.97185398761,
    10.593571756244));
#210 = VECTOR('',#211,1.);
#211 = DIRECTION('',(0.999169036898,-3.996676147593E-02,
    -7.993352295186E-03));
#212 = PCURVE('',#44,#213);
#213 = DEFINITIONAL_REPRESENTATION('',(#214),#218);
#214 = LINE('',#215,#216);
#215 = CARTESIAN_POINT('',(187.52219040942,2.496649836981));
#216 = VECTOR('',#217,1.);
#217 = DIRECTION('',(-0.999201009714,-3.996676351557E-02));
#218 = ( GEOMETRIC_REPRESENTATION_CONTEXT(2) 
PARAMETRIC_REPRESENTATION_CONTEXT() REPRESENTATION_CONTEXT('2D SPACE',''
  ) );
#219 = PCURVE('',#188,#220);
#220 = DEFINITIONAL_REPRESENTATION('',(#221),#225);
#221 = LINE('',#222,#223);
#222 = CARTESIAN_POINT('',(-0.,0.));
#223 = VECTOR('',#224,1.);
#224 = DIRECTION('',(-1.,-1.734723475977E-18));
#225 = ( GEOMETRIC_REPRESENTATION_CONTEXT(2) 
PARAMETRIC_REPRESENTATION_CONTEXT() REPRESENTATION_CONTEXT('2D SPACE',''
  ) );
#226 = ORIENTED_EDGE('',*,*,#227,.T.);
#227 = EDGE_CURVE('',#205,#228,#230,.T.);
#228 = VERTEX_POINT('',#229);
#229 = CARTESIAN_POINT('',(-624.3639041798,109.97855456847,
    7.596509954973));
#230 = SURFACE_CURVE('',#231,(#235,#242),.PCURVE_S1.);
#231 = LINE('',#232,#233);
#232 = CARTESIAN_POINT('',(-624.7635845633,99.986544981255,
    7.596509954973));
#233 = VECTOR('',#234,1.);
#234 = DIRECTION('',(3.996803834887E-02,0.999200958722,-0.));
#235 = PCURVE('',#44,#236);
#236 = DEFINITIONAL_REPRESENTATION('',(#237),#241);
#237 = LINE('',#238,#239);
#238 = CARTESIAN_POINT('',(-187.1225227742,-12.48865993412));
#239 = VECTOR('',#240,1.);
#240 = DIRECTION('',(-3.996676351556E-02,0.999201009714));
#241 = ( GEOMETRIC_REPRESENTATION_CONTEXT(2) 
PARAMETRIC_REPRESENTATION_CONTEXT() REPRESENTATION_CONTEXT('2D SPACE',''
  ) );
#242 = PCURVE('',#243,#248);
#243 = PLANE('',#244);
#244 = AXIS2_PLACEMENT_3D('',#245,#246,#247);
#245 = CARTESIAN_POINT('',(-624.7635845633,99.986544981255,
    7.596509954973));
#246 = DIRECTION('',(0.999169036898,-3.996676147592E-02,
    -7.993352295186E-03));
#247 = DIRECTION('',(-3.996803834887E-02,-0.999200958722,0.));
#248 = DEFINITIONAL_REPRESENTATION('',(#249),#253);
#249 = LINE('',#250,#251);
#250 = CARTESIAN_POINT('',(-0.,0.));
#251 = VECTOR('',#252,1.);
#252 = DIRECTION('',(-1.,5.546325155229E-20));
#253 = ( GEOMETRIC_REPRESENTATION_CONTEXT(2) 
PARAMETRIC_REPRESENTATION_CONTEXT() REPRESENTATION_CONTEXT('2D SPACE',''
  ) );
#254 = ORIENTED_EDGE('',*,*,#255,.T.);
#255 = EDGE_CURVE('',#228,#22,#256,.T.);
#256 = SURFACE_CURVE('',#257,(#261,#268),.PCURVE_S1.);
#257 = LINE('',#258,#259);
#258 = CARTESIAN_POINT('',(-624.3639041798,109.97855456847,
    7.596509954973));
#259 = VECTOR('',#260,1.);
#260 = DIRECTION('',(-0.999169036898,3.996676147593E-02,
    7.993352295186E-03));
#261 = PCURVE('',#44,#262);
#262 = DEFINITIONAL_REPRESENTATION('',(#263),#267);
#263 = LINE('',#264,#265);
#264 = CARTESIAN_POINT('',(-187.5221904094,-2.496649836981));
#265 = VECTOR('',#266,1.);
#266 = DIRECTION('',(0.999201009714,3.996676351557E-02));
#267 = ( GEOMETRIC_REPRESENTATION_CONTEXT(2) 
PARAMETRIC_REPRESENTATION_CONTEXT() REPRESENTATION_CONTEXT('2D SPACE',''
  ) );
#268 = PCURVE('',#72,#269);
#269 = DEFINITIONAL_REPRESENTATION('',(#270),#274);
#270 = LINE('',#271,#272);
#271 = CARTESIAN_POINT('',(-0.,0.));
#272 = VECTOR('',#273,1.);
#273 = DIRECTION('',(-1.,1.734723475977E-18));
#274 = ( GEOMETRIC_REPRESENTATION_CONTEXT(2) 
PARAMETRIC_REPRESENTATION_CONTEXT() REPRESENTATION_CONTEXT('2D SPACE',''
  ) );
#275 = ADVANCED_FACE('',(#276),#188,.T.);
#276 = FACE_BOUND('',#277,.F.);
#277 = EDGE_LOOP('',(#278,#279,#302,#323));
#278 = ORIENTED_EDGE('',*,*,#174,.T.);
#279 = ORIENTED_EDGE('',*,*,#280,.T.);
#280 = EDGE_CURVE('',#152,#281,#283,.T.);
#281 = VERTEX_POINT('',#282);
#282 = CARTESIAN_POINT('',(-624.7156627716,99.984628109588,
    13.596318270868));
#283 = SURFACE_CURVE('',#284,(#288,#295),.PCURVE_S1.);
#284 = LINE('',#285,#286);
#285 = CARTESIAN_POINT('',(-999.3483879305,114.96993711594,
    16.593380072139));
#286 = VECTOR('',#287,1.);
#287 = DIRECTION('',(0.999169036898,-3.996676147593E-02,
    -7.993352295186E-03));
#288 = PCURVE('',#188,#289);
#289 = DEFINITIONAL_REPRESENTATION('',(#290),#294);
#290 = LINE('',#291,#292);
#291 = CARTESIAN_POINT('',(-3.618633170888E-14,-6.));
#292 = VECTOR('',#293,1.);
#293 = DIRECTION('',(-1.,-1.734723475977E-18));
#294 = ( GEOMETRIC_REPRESENTATION_CONTEXT(2) 
PARAMETRIC_REPRESENTATION_CONTEXT() REPRESENTATION_CONTEXT('2D SPACE',''
  ) );
#295 = PCURVE('',#100,#296);
#296 = DEFINITIONAL_REPRESENTATION('',(#297),#301);
#297 = LINE('',#298,#299);
#298 = CARTESIAN_POINT('',(187.52219040942,2.496649836981));
#299 = VECTOR('',#300,1.);
#300 = DIRECTION('',(-0.999201009714,-3.996676351557E-02));
#301 = ( GEOMETRIC_REPRESENTATION_CONTEXT(2) 
PARAMETRIC_REPRESENTATION_CONTEXT() REPRESENTATION_CONTEXT('2D SPACE',''
  ) );
#302 = ORIENTED_EDGE('',*,*,#303,.F.);
#303 = EDGE_CURVE('',#205,#281,#304,.T.);
#304 = SURFACE_CURVE('',#305,(#309,#316),.PCURVE_S1.);
#305 = LINE('',#306,#307);
#306 = CARTESIAN_POINT('',(-624.7635845633,99.986544981255,
    7.596509954973));
#307 = VECTOR('',#308,1.);
#308 = DIRECTION('',(7.986965276751E-03,-3.1947861107E-04,0.999968052649
    ));
#309 = PCURVE('',#188,#310);
#310 = DEFINITIONAL_REPRESENTATION('',(#311),#315);
#311 = LINE('',#312,#313);
#312 = CARTESIAN_POINT('',(-374.9442900291,-4.440892098501E-16));
#313 = VECTOR('',#314,1.);
#314 = DIRECTION('',(1.734723475977E-18,-1.));
#315 = ( GEOMETRIC_REPRESENTATION_CONTEXT(2) 
PARAMETRIC_REPRESENTATION_CONTEXT() REPRESENTATION_CONTEXT('2D SPACE',''
  ) );
#316 = PCURVE('',#243,#317);
#317 = DEFINITIONAL_REPRESENTATION('',(#318),#322);
#318 = LINE('',#319,#320);
#319 = CARTESIAN_POINT('',(-0.,0.));
#320 = VECTOR('',#321,1.);
#321 = DIRECTION('',(4.629543276513E-17,-1.));
#322 = ( GEOMETRIC_REPRESENTATION_CONTEXT(2) 
PARAMETRIC_REPRESENTATION_CONTEXT() REPRESENTATION_CONTEXT('2D SPACE',''
  ) );
#323 = ORIENTED_EDGE('',*,*,#204,.F.);
#324 = ADVANCED_FACE('',(#325),#100,.F.);
#325 = FACE_BOUND('',#326,.T.);
#326 = EDGE_LOOP('',(#327,#350,#351,#397,#398,#399));
#327 = ORIENTED_EDGE('',*,*,#328,.T.);
#328 = EDGE_CURVE('',#329,#57,#331,.T.);
#329 = VERTEX_POINT('',#330);
#330 = CARTESIAN_POINT('',(-624.3159823881,109.9766376968,
    13.596318270868));
#331 = SURFACE_CURVE('',#332,(#336,#343),.PCURVE_S1.);
#332 = LINE('',#333,#334);
#333 = CARTESIAN_POINT('',(-624.3159823881,109.9766376968,
    13.596318270868));
#334 = VECTOR('',#335,1.);
#335 = DIRECTION('',(-0.999169036898,3.996676147593E-02,
    7.993352295186E-03));
#336 = PCURVE('',#100,#337);
#337 = DEFINITIONAL_REPRESENTATION('',(#338),#342);
#338 = LINE('',#339,#340);
#339 = CARTESIAN_POINT('',(-187.5221904094,-2.496649836981));
#340 = VECTOR('',#341,1.);
#341 = DIRECTION('',(0.999201009714,3.996676351557E-02));
#342 = ( GEOMETRIC_REPRESENTATION_CONTEXT(2) 
PARAMETRIC_REPRESENTATION_CONTEXT() REPRESENTATION_CONTEXT('2D SPACE',''
  ) );
#343 = PCURVE('',#72,#344);
#344 = DEFINITIONAL_REPRESENTATION('',(#345),#349);
#345 = LINE('',#346,#347);
#346 = CARTESIAN_POINT('',(3.618633170888E-14,-6.));
#347 = VECTOR('',#348,1.);
#348 = DIRECTION('',(-1.,1.734723475977E-18));
#349 = ( GEOMETRIC_REPRESENTATION_CONTEXT(2) 
PARAMETRIC_REPRESENTATION_CONTEXT() REPRESENTATION_CONTEXT('2D SPACE',''
  ) );
#350 = ORIENTED_EDGE('',*,*,#84,.T.);
#351 = ORIENTED_EDGE('',*,*,#352,.F.);
#352 = EDGE_CURVE('',#113,#85,#353,.T.);
#353 = SURFACE_CURVE('',#354,(#359,#370),.PCURVE_S1.);
#354 = ELLIPSE('',#355,227.46276152578,2.5);
#355 = AXIS2_PLACEMENT_3D('',#356,#357,#358);
#356 = CARTESIAN_POINT('',(-1.036346209979E+03,121.45384839918,
    16.890961370062));
#357 = DIRECTION('',(7.986965276751E-03,-3.194786110698E-04,
    0.999968052649));
#358 = DIRECTION('',(-0.999169036898,3.996676147595E-02,
    7.993352295186E-03));
#359 = PCURVE('',#100,#360);
#360 = DEFINITIONAL_REPRESENTATION('',(#361),#369);
#361 = ( BOUNDED_CURVE() B_SPLINE_CURVE(2,(#362,#363,#364,#365,#366,#367
,#368),.UNSPECIFIED.,.T.,.F.) B_SPLINE_CURVE_WITH_KNOTS((1,2,2,2,2,1),(
    -2.094395102393,0.,2.094395102393,4.188790204786,6.28318530718,
8.377580409573),.UNSPECIFIED.) CURVE() GEOMETRIC_REPRESENTATION_ITEM() 
RATIONAL_B_SPLINE_CURVE((1.,0.5,1.,0.5,1.,0.5,1.)) REPRESENTATION_ITEM(
  '') );
#362 = CARTESIAN_POINT('',(451.80223012422,18.071511849621));
#363 = CARTESIAN_POINT('',(451.97529128678,13.744844560123));
#364 = CARTESIAN_POINT('',(110.96722922205,2.271752607117));
#365 = CARTESIAN_POINT('',(-230.0408328426,-9.201339345888));
#366 = CARTESIAN_POINT('',(110.79416805949,6.598419896616));
#367 = CARTESIAN_POINT('',(451.62916896166,22.398179139119));
#368 = CARTESIAN_POINT('',(451.80223012422,18.071511849621));
#369 = ( GEOMETRIC_REPRESENTATION_CONTEXT(2) 
PARAMETRIC_REPRESENTATION_CONTEXT() REPRESENTATION_CONTEXT('2D SPACE',''
  ) );
#370 = PCURVE('',#133,#371);
#371 = DEFINITIONAL_REPRESENTATION('',(#372),#396);
#372 = B_SPLINE_CURVE_WITH_KNOTS('',8,(#373,#374,#375,#376,#377,#378,
    #379,#380,#381,#382,#383,#384,#385,#386,#387,#388,#389,#390,#391,
    #392,#393,#394,#395),.UNSPECIFIED.,.F.,.F.,(9,7,7,9),(1.73432771404,
    2.437960183815,3.493408888477,4.54885759314),.UNSPECIFIED.);
#373 = CARTESIAN_POINT('',(-3.305124040835,1.0000000006E+03));
#374 = CARTESIAN_POINT('',(-3.393078099557,980.26183318937));
#375 = CARTESIAN_POINT('',(-3.481032158278,960.85104547216));
#376 = CARTESIAN_POINT('',(-3.568986217,942.00031100124));
#377 = CARTESIAN_POINT('',(-3.656940275722,923.93690514535));
#378 = CARTESIAN_POINT('',(-3.744894334445,906.87693191341));
#379 = CARTESIAN_POINT('',(-3.832848393166,891.01980466394));
#380 = CARTESIAN_POINT('',(-3.920802451888,876.54339787081));
#381 = CARTESIAN_POINT('',(-4.140687598693,844.18562098577));
#382 = CARTESIAN_POINT('',(-4.272618686766,828.22087040997));
#383 = CARTESIAN_POINT('',(-4.404549774883,816.22097413474));
#384 = CARTESIAN_POINT('',(-4.53648086288,808.57276276778));
#385 = CARTESIAN_POINT('',(-4.668411951043,805.50629748636));
#386 = CARTESIAN_POINT('',(-4.800343039097,807.07801975344));
#387 = CARTESIAN_POINT('',(-4.932274127189,813.17137424388));
#388 = CARTESIAN_POINT('',(-5.196136303355,833.85281191839));
#389 = CARTESIAN_POINT('',(-5.328067391437,848.44089534634));
#390 = CARTESIAN_POINT('',(-5.45999847951,867.00207229936));
#391 = CARTESIAN_POINT('',(-5.591929567596,889.1043710988));
#392 = CARTESIAN_POINT('',(-5.723860655678,914.17333823861));
#393 = CARTESIAN_POINT('',(-5.855791743763,941.52210195118));
#394 = CARTESIAN_POINT('',(-5.987722831852,970.39274948406));
#395 = CARTESIAN_POINT('',(-6.119653919935,1.0000000006E+03));
#396 = ( GEOMETRIC_REPRESENTATION_CONTEXT(2) 
PARAMETRIC_REPRESENTATION_CONTEXT() REPRESENTATION_CONTEXT('2D SPACE',''
  ) );
#397 = ORIENTED_EDGE('',*,*,#151,.T.);
#398 = ORIENTED_EDGE('',*,*,#280,.T.);
#399 = ORIENTED_EDGE('',*,*,#400,.T.);
#400 = EDGE_CURVE('',#281,#329,#401,.T.);
#401 = SURFACE_CURVE('',#402,(#406,#413),.PCURVE_S1.);
#402 = LINE('',#403,#404);
#403 = CARTESIAN_POINT('',(-624.7156627716,99.984628109588,
    13.596318270868));
#404 = VECTOR('',#405,1.);
#405 = DIRECTION('',(3.996803834887E-02,0.999200958722,-0.));
#406 = PCURVE('',#100,#407);
#407 = DEFINITIONAL_REPRESENTATION('',(#408),#412);
#408 = LINE('',#409,#410);
#409 = CARTESIAN_POINT('',(-187.1225227742,-12.48865993412));
#410 = VECTOR('',#411,1.);
#411 = DIRECTION('',(-3.996676351556E-02,0.999201009714));
#412 = ( GEOMETRIC_REPRESENTATION_CONTEXT(2) 
PARAMETRIC_REPRESENTATION_CONTEXT() REPRESENTATION_CONTEXT('2D SPACE',''
  ) );
#413 = PCURVE('',#243,#414);
#414 = DEFINITIONAL_REPRESENTATION('',(#415),#419);
#415 = LINE('',#416,#417);
#416 = CARTESIAN_POINT('',(2.549609828817E-15,-6.));
#417 = VECTOR('',#418,1.);
#418 = DIRECTION('',(-1.,5.546325155229E-20));
#419 = ( GEOMETRIC_REPRESENTATION_CONTEXT(2) 
PARAMETRIC_REPRESENTATION_CONTEXT() REPRESENTATION_CONTEXT('2D SPACE',''
  ) );
#420 = ADVANCED_FACE('',(#421),#133,.F.);
#421 = FACE_BOUND('',#422,.T.);
#422 = EDGE_LOOP('',(#423,#424));
#423 = ORIENTED_EDGE('',*,*,#112,.F.);
#424 = ORIENTED_EDGE('',*,*,#352,.T.);
#425 = ADVANCED_FACE('',(#426),#72,.T.);
#426 = FACE_BOUND('',#427,.F.);
#427 = EDGE_LOOP('',(#428,#449,#450,#451));
#428 = ORIENTED_EDGE('',*,*,#429,.T.);
#429 = EDGE_CURVE('',#228,#329,#430,.T.);
#430 = SURFACE_CURVE('',#431,(#435,#442),.PCURVE_S1.);
#431 = LINE('',#432,#433);
#432 = CARTESIAN_POINT('',(-624.3639041798,109.97855456847,
    7.596509954973));
#433 = VECTOR('',#434,1.);
#434 = DIRECTION('',(7.986965276751E-03,-3.1947861107E-04,0.999968052649
    ));
#435 = PCURVE('',#72,#436);
#436 = DEFINITIONAL_REPRESENTATION('',(#437),#441);
#437 = LINE('',#438,#439);
#438 = CARTESIAN_POINT('',(-0.,0.));
#439 = VECTOR('',#440,1.);
#440 = DIRECTION('',(-1.734723475977E-18,-1.));
#441 = ( GEOMETRIC_REPRESENTATION_CONTEXT(2) 
PARAMETRIC_REPRESENTATION_CONTEXT() REPRESENTATION_CONTEXT('2D SPACE',''
  ) );
#442 = PCURVE('',#243,#443);
#443 = DEFINITIONAL_REPRESENTATION('',(#444),#448);
#444 = LINE('',#445,#446);
#445 = CARTESIAN_POINT('',(-10.,4.336808689942E-19));
#446 = VECTOR('',#447,1.);
#447 = DIRECTION('',(4.629543276513E-17,-1.));
#448 = ( GEOMETRIC_REPRESENTATION_CONTEXT(2) 
PARAMETRIC_REPRESENTATION_CONTEXT() REPRESENTATION_CONTEXT('2D SPACE',''
  ) );
#449 = ORIENTED_EDGE('',*,*,#328,.T.);
#450 = ORIENTED_EDGE('',*,*,#56,.F.);
#451 = ORIENTED_EDGE('',*,*,#255,.F.);
#452 = ADVANCED_FACE('',(#453),#243,.T.);
#453 = FACE_BOUND('',#454,.F.);
#454 = EDGE_LOOP('',(#455,#456,#457,#458));
#455 = ORIENTED_EDGE('',*,*,#303,.T.);
#456 = ORIENTED_EDGE('',*,*,#400,.T.);
#457 = ORIENTED_EDGE('',*,*,#429,.F.);
#458 = ORIENTED_EDGE('',*,*,#227,.F.);
#459 = ( GEOMETRIC_REPRESENTATION_CONTEXT(3) 
GLOBAL_UNCERTAINTY_ASSIGNED_CONTEXT((#463)) GLOBAL_UNIT_ASSIGNED_CONTEXT
((#460,#461,#462)) REPRESENTATION_CONTEXT('Context #1',
  '3D Context with UNIT and UNCERTAINTY') );
#460 = ( LENGTH_UNIT() NAMED_UNIT(*) SI_UNIT(.MILLI.,.METRE.) );
#461 = ( NAMED_UNIT(*) PLANE_ANGLE_UNIT() SI_UNIT($,.RADIAN.) );
#462 = ( NAMED_UNIT(*) SI_UNIT($,.STERADIAN.) SOLID_ANGLE_UNIT() );
#463 = UNCERTAINTY_MEASURE_WITH_UNIT(LENGTH_MEASURE(1.E-07),#460,
  'distance_accuracy_value','confusion accuracy');
#464 = PRODUCT_RELATED_PRODUCT_CATEGORY('part',$,(#7));
ENDSEC;
END-ISO-10303-21;
