ISO-10303-21;
HEADER;
FILE_DESCRIPTION(('Open CASCADE Model'),'2;1');
FILE_NAME('Open CASCADE Shape Model','2026-09-23T08:26:51',('Author'),(
    'Open CASCADE'),'Open CASCADE STEP processor 7.9','Open CASCADE 7.9'
  ,'Unknown');
FILE_SCHEMA(('AUTOMOTIVE_DESIGN { 1 0 10303 214 1 1 1 1 }'));
ENDSEC;
DATA;
#1 = APPLICATION_PROTOCOL_DEFINITION('international standard',
  'automotive_design',2000,#2);
#2 = APPLICATION_CONTEXT(
  'core data for automotive mechanical design processes');
#3 = SHAPE_DEFINITION_REPRESENTATION(#4,#10);
#4 = PRODUCT_DEFINITION_SHAPE('','',#5);
#5 = PRODUCT_DEFINITION('design','',#6,#9);
#6 = PRODUCT_DEFINITION_FORMATION('','',#7);
#7 = PRODUCT('Open CASCADE STEP translator 7.9 285',
  'Open CASCADE STEP translator 7.9 285','',(#8));
#8 = PRODUCT_CONTEXT('',#2,'mechanical');
#9 = PRODUCT_DEFINITION_CONTEXT('part definition',#2,'design');
#10 = ADVANCED_BREP_SHAPE_REPRESENTATION('',(#11,#15),#442);
#11 = AXIS2_PLACEMENT_3D('',#12,#13,#14);
#12 = CARTESIAN_POINT('',(0.,0.,0.));
#13 = DIRECTION('',(0.,0.,1.));
#14 = DIRECTION('',(1.,0.,-0.));
#15 = MANIFOLD_SOLID_BREP('',#16);
#16 = CLOSED_SHELL('',(#17,#137,#213,#340,#367,#430,#437));
#17 = ADVANCED_FACE('',(#18),#32,.F.);
#18 = FACE_BOUND('',#19,.F.);
#19 = EDGE_LOOP('',(#20,#55,#83,#111));
#20 = ORIENTED_EDGE('',*,*,#21,.T.);
#21 = EDGE_CURVE('',#22,#24,#26,.T.);
#22 = VERTEX_POINT('',#23);
#23 = CARTESIAN_POINT('',(100.39968038348,74.007990412782,3.4));
#24 = VERTEX_POINT('',#25);
#25 = CARTESIAN_POINT('',(100.3597455571,74.006393019727,8.399840263246)
  );
#26 = SURFACE_CURVE('',#27,(#31,#43),.PCURVE_S1.);
#27 = LINE('',#28,#29);
#28 = CARTESIAN_POINT('',(100.39968038348,74.007990412782,3.4));
#29 = VECTOR('',#30,1.);
#30 = DIRECTION('',(-7.986965276751E-03,-3.1947861107E-04,0.999968052649
    ));
#31 = PCURVE('',#32,#37);
#32 = PLANE('',#33);
#33 = AXIS2_PLACEMENT_3D('',#34,#35,#36);
#34 = CARTESIAN_POINT('',(100.39968038348,74.007990412782,3.4));
#35 = DIRECTION('',(-3.996803834887E-02,0.999200958722,
    -5.421010862428E-20));
#36 = DIRECTION('',(0.999169036898,3.996676147593E-02,7.993352295186E-03
    ));
#37 = DEFINITIONAL_REPRESENTATION('',(#38),#42);
#38 = LINE('',#39,#40);
#39 = CARTESIAN_POINT('',(0.,0.));
#40 = VECTOR('',#41,1.);
#41 = DIRECTION('',(0.,-1.));
#42 = ( GEOMETRIC_REPRESENTATION_CONTEXT(2) 
PARAMETRIC_REPRESENTATION_CONTEXT() REPRESENTATION_CONTEXT('2D SPACE',''
  ) );
#43 = PCURVE('',#44,#49);
#44 = PLANE('',#45);
#45 = AXIS2_PLACEMENT_3D('',#46,#47,#48);
#46 = CARTESIAN_POINT('',(99.600319616511,93.992009587218,3.4));
#47 = DIRECTION('',(0.999169036898,3.996676147593E-02,7.993352295186E-03
    ));
#48 = DIRECTION('',(3.996803834887E-02,-0.999200958722,
    5.421010862428E-20));
#49 = DEFINITIONAL_REPRESENTATION('',(#50),#54);
#50 = LINE('',#51,#52);
#51 = CARTESIAN_POINT('',(20.,8.673617379884E-19));
#52 = VECTOR('',#53,1.);
#53 = DIRECTION('',(6.559421411668E-18,-1.));
#54 = ( GEOMETRIC_REPRESENTATION_CONTEXT(2) 
PARAMETRIC_REPRESENTATION_CONTEXT() REPRESENTATION_CONTEXT('2D SPACE',''
  ) );
#55 = ORIENTED_EDGE('',*,*,#56,.T.);
#56 = EDGE_CURVE('',#24,#57,#59,.T.);
#57 = VERTEX_POINT('',#58);
#58 = CARTESIAN_POINT('',(999.55621508758,109.97425180094,15.59341201949
    ));
#59 = SURFACE_CURVE('',#60,(#64,#71),.PCURVE_S1.);
#60 = LINE('',#61,#62);
#61 = CARTESIAN_POINT('',(100.3597455571,74.006393019727,8.399840263246)
  );
#62 = VECTOR('',#63,1.);
#63 = DIRECTION('',(0.999169036898,3.996676147593E-02,7.993352295186E-03
    ));
#64 = PCURVE('',#32,#65);
#65 = DEFINITIONAL_REPRESENTATION('',(#66),#70);
#66 = LINE('',#67,#68);
#67 = CARTESIAN_POINT('',(-1.575128916187E-15,-5.));
#68 = VECTOR('',#69,1.);
#69 = DIRECTION('',(1.,1.734723475977E-18));
#70 = ( GEOMETRIC_REPRESENTATION_CONTEXT(2) 
PARAMETRIC_REPRESENTATION_CONTEXT() REPRESENTATION_CONTEXT('2D SPACE',''
  ) );
#71 = PCURVE('',#72,#77);
#72 = PLANE('',#73);
#73 = AXIS2_PLACEMENT_3D('',#74,#75,#76);
#74 = CARTESIAN_POINT('',(549.55829993885,101.98233199755,
    11.996626141368));
#75 = DIRECTION('',(-7.986965276751E-03,-3.1947861107E-04,0.999968052649
    ));
#76 = DIRECTION('',(0.999968103681,0.,7.986965684352E-03));
#77 = DEFINITIONAL_REPRESENTATION('',(#78),#82);
#78 = LINE('',#79,#80);
#79 = CARTESIAN_POINT('',(-449.2129540067,-27.97594040553));
#80 = VECTOR('',#81,1.);
#81 = DIRECTION('',(0.999201009714,3.996676351557E-02));
#82 = ( GEOMETRIC_REPRESENTATION_CONTEXT(2) 
PARAMETRIC_REPRESENTATION_CONTEXT() REPRESENTATION_CONTEXT('2D SPACE',''
  ) );
#83 = ORIENTED_EDGE('',*,*,#84,.F.);
#84 = EDGE_CURVE('',#85,#57,#87,.T.);
#85 = VERTEX_POINT('',#86);
#86 = CARTESIAN_POINT('',(999.59614991397,109.975849194,10.593571756244)
  );
#87 = SURFACE_CURVE('',#88,(#92,#99),.PCURVE_S1.);
#88 = LINE('',#89,#90);
#89 = CARTESIAN_POINT('',(999.59614991397,109.975849194,10.593571756244)
  );
#90 = VECTOR('',#91,1.);
#91 = DIRECTION('',(-7.986965276751E-03,-3.1947861107E-04,0.999968052649
    ));
#92 = PCURVE('',#32,#93);
#93 = DEFINITIONAL_REPRESENTATION('',(#94),#98);
#94 = LINE('',#95,#96);
#95 = CARTESIAN_POINT('',(899.94429002911,1.7763568394E-15));
#96 = VECTOR('',#97,1.);
#97 = DIRECTION('',(0.,-1.));
#98 = ( GEOMETRIC_REPRESENTATION_CONTEXT(2) 
PARAMETRIC_REPRESENTATION_CONTEXT() REPRESENTATION_CONTEXT('2D SPACE',''
  ) );
#99 = PCURVE('',#100,#105);
#100 = PLANE('',#101);
#101 = AXIS2_PLACEMENT_3D('',#102,#103,#104);
#102 = CARTESIAN_POINT('',(999.59614991397,109.975849194,10.593571756244
    ));
#103 = DIRECTION('',(-0.999169036898,-3.996676147594E-02,
    -7.993352295186E-03));
#104 = DIRECTION('',(-3.996803834888E-02,0.999200958722,
    -5.421010862428E-20));
#105 = DEFINITIONAL_REPRESENTATION('',(#106),#110);
#106 = LINE('',#107,#108);
#107 = CARTESIAN_POINT('',(0.,0.));
#108 = VECTOR('',#109,1.);
#109 = DIRECTION('',(4.445229080378E-17,-1.));
#110 = ( GEOMETRIC_REPRESENTATION_CONTEXT(2) 
PARAMETRIC_REPRESENTATION_CONTEXT() REPRESENTATION_CONTEXT('2D SPACE',''
  ) );
#111 = ORIENTED_EDGE('',*,*,#112,.F.);
#112 = EDGE_CURVE('',#22,#85,#113,.T.);
#113 = SURFACE_CURVE('',#114,(#118,#125),.PCURVE_S1.);
#114 = LINE('',#115,#116);
#115 = CARTESIAN_POINT('',(100.39968038348,74.007990412782,3.4));
#116 = VECTOR('',#117,1.);
#117 = DIRECTION('',(0.999169036898,3.996676147593E-02,
    7.993352295186E-03));
#118 = PCURVE('',#32,#119);
#119 = DEFINITIONAL_REPRESENTATION('',(#120),#124);
#120 = LINE('',#121,#122);
#121 = CARTESIAN_POINT('',(0.,0.));
#122 = VECTOR('',#123,1.);
#123 = DIRECTION('',(1.,1.734723475977E-18));
#124 = ( GEOMETRIC_REPRESENTATION_CONTEXT(2) 
PARAMETRIC_REPRESENTATION_CONTEXT() REPRESENTATION_CONTEXT('2D SPACE',''
  ) );
#125 = PCURVE('',#126,#131);
#126 = PLANE('',#127);
#127 = AXIS2_PLACEMENT_3D('',#128,#129,#130);
#128 = CARTESIAN_POINT('',(549.59823476524,101.98392939061,
    6.996785878122));
#129 = DIRECTION('',(-7.986965276751E-03,-3.1947861107E-04,
    0.999968052649));
#130 = DIRECTION('',(0.999968103681,0.,7.986965684352E-03));
#131 = DEFINITIONAL_REPRESENTATION('',(#132),#136);
#132 = LINE('',#133,#134);
#133 = CARTESIAN_POINT('',(-449.2129540067,-27.97594040553));
#134 = VECTOR('',#135,1.);
#135 = DIRECTION('',(0.999201009714,3.996676351557E-02));
#136 = ( GEOMETRIC_REPRESENTATION_CONTEXT(2) 
PARAMETRIC_REPRESENTATION_CONTEXT() REPRESENTATION_CONTEXT('2D SPACE',''
  ) );
#137 = ADVANCED_FACE('',(#138),#44,.F.);
#138 = FACE_BOUND('',#139,.F.);
#139 = EDGE_LOOP('',(#140,#170,#191,#192));
#140 = ORIENTED_EDGE('',*,*,#141,.T.);
#141 = EDGE_CURVE('',#142,#144,#146,.T.);
#142 = VERTEX_POINT('',#143);
#143 = CARTESIAN_POINT('',(99.600319616511,93.992009587218,3.4));
#144 = VERTEX_POINT('',#145);
#145 = CARTESIAN_POINT('',(99.560384790128,93.990412194163,
    8.399840263246));
#146 = SURFACE_CURVE('',#147,(#151,#158),.PCURVE_S1.);
#147 = LINE('',#148,#149);
#148 = CARTESIAN_POINT('',(99.600319616511,93.992009587218,3.4));
#149 = VECTOR('',#150,1.);
#150 = DIRECTION('',(-7.986965276751E-03,-3.1947861107E-04,
    0.999968052649));
#151 = PCURVE('',#44,#152);
#152 = DEFINITIONAL_REPRESENTATION('',(#153),#157);
#153 = LINE('',#154,#155);
#154 = CARTESIAN_POINT('',(0.,0.));
#155 = VECTOR('',#156,1.);
#156 = DIRECTION('',(6.559421411668E-18,-1.));
#157 = ( GEOMETRIC_REPRESENTATION_CONTEXT(2) 
PARAMETRIC_REPRESENTATION_CONTEXT() REPRESENTATION_CONTEXT('2D SPACE',''
  ) );
#158 = PCURVE('',#159,#164);
#159 = PLANE('',#160);
#160 = AXIS2_PLACEMENT_3D('',#161,#162,#163);
#161 = CARTESIAN_POINT('',(998.79678914699,129.95986836843,
    10.593571756244));
#162 = DIRECTION('',(3.996803834887E-02,-0.999200958722,
    1.626303258728E-19));
#163 = DIRECTION('',(-0.999169036898,-3.996676147593E-02,
    -7.993352295186E-03));
#164 = DEFINITIONAL_REPRESENTATION('',(#165),#169);
#165 = LINE('',#166,#167);
#166 = CARTESIAN_POINT('',(899.94429002911,-8.881784197001E-16));
#167 = VECTOR('',#168,1.);
#168 = DIRECTION('',(0.,-1.));
#169 = ( GEOMETRIC_REPRESENTATION_CONTEXT(2) 
PARAMETRIC_REPRESENTATION_CONTEXT() REPRESENTATION_CONTEXT('2D SPACE',''
  ) );
#170 = ORIENTED_EDGE('',*,*,#171,.T.);
#171 = EDGE_CURVE('',#144,#24,#172,.T.);
#172 = SURFACE_CURVE('',#173,(#177,#184),.PCURVE_S1.);
#173 = LINE('',#174,#175);
#174 = CARTESIAN_POINT('',(99.560384790128,93.990412194163,
    8.399840263246));
#175 = VECTOR('',#176,1.);
#176 = DIRECTION('',(3.996803834887E-02,-0.999200958722,0.));
#177 = PCURVE('',#44,#178);
#178 = DEFINITIONAL_REPRESENTATION('',(#179),#183);
#179 = LINE('',#180,#181);
#180 = CARTESIAN_POINT('',(-1.670918186785E-15,-5.));
#181 = VECTOR('',#182,1.);
#182 = DIRECTION('',(1.,-1.253142928013E-21));
#183 = ( GEOMETRIC_REPRESENTATION_CONTEXT(2) 
PARAMETRIC_REPRESENTATION_CONTEXT() REPRESENTATION_CONTEXT('2D SPACE',''
  ) );
#184 = PCURVE('',#72,#185);
#185 = DEFINITIONAL_REPRESENTATION('',(#186),#190);
#186 = LINE('',#187,#188);
#187 = CARTESIAN_POINT('',(-450.012289277,-7.991920211246));
#188 = VECTOR('',#189,1.);
#189 = DIRECTION('',(3.996676351557E-02,-0.999201009714));
#190 = ( GEOMETRIC_REPRESENTATION_CONTEXT(2) 
PARAMETRIC_REPRESENTATION_CONTEXT() REPRESENTATION_CONTEXT('2D SPACE',''
  ) );
#191 = ORIENTED_EDGE('',*,*,#21,.F.);
#192 = ORIENTED_EDGE('',*,*,#193,.F.);
#193 = EDGE_CURVE('',#142,#22,#194,.T.);
#194 = SURFACE_CURVE('',#195,(#199,#206),.PCURVE_S1.);
#195 = LINE('',#196,#197);
#196 = CARTESIAN_POINT('',(99.600319616511,93.992009587218,3.4));
#197 = VECTOR('',#198,1.);
#198 = DIRECTION('',(3.996803834887E-02,-0.999200958722,0.));
#199 = PCURVE('',#44,#200);
#200 = DEFINITIONAL_REPRESENTATION('',(#201),#205);
#201 = LINE('',#202,#203);
#202 = CARTESIAN_POINT('',(0.,0.));
#203 = VECTOR('',#204,1.);
#204 = DIRECTION('',(1.,-1.253142928013E-21));
#205 = ( GEOMETRIC_REPRESENTATION_CONTEXT(2) 
PARAMETRIC_REPRESENTATION_CONTEXT() REPRESENTATION_CONTEXT('2D SPACE',''
  ) );
#206 = PCURVE('',#126,#207);
#207 = DEFINITIONAL_REPRESENTATION('',(#208),#212);
#208 = LINE('',#209,#210);
#209 = CARTESIAN_POINT('',(-450.012289277,-7.991920211246));
#210 = VECTOR('',#211,1.);
#211 = DIRECTION('',(3.996676351557E-02,-0.999201009714));
#212 = ( GEOMETRIC_REPRESENTATION_CONTEXT(2) 
PARAMETRIC_REPRESENTATION_CONTEXT() REPRESENTATION_CONTEXT('2D SPACE',''
  ) );
#213 = ADVANCED_FACE('',(#214),#100,.F.);
#214 = FACE_BOUND('',#215,.F.);
#215 = EDGE_LOOP('',(#216,#239,#240,#263,#296,#319));
#216 = ORIENTED_EDGE('',*,*,#217,.F.);
#217 = EDGE_CURVE('',#85,#218,#220,.T.);
#218 = VERTEX_POINT('',#219);
#219 = CARTESIAN_POINT('',(998.79678914699,129.95986836843,
    10.593571756244));
#220 = SURFACE_CURVE('',#221,(#225,#232),.PCURVE_S1.);
#221 = LINE('',#222,#223);
#222 = CARTESIAN_POINT('',(999.59614991397,109.975849194,10.593571756244
    ));
#223 = VECTOR('',#224,1.);
#224 = DIRECTION('',(-3.996803834888E-02,0.999200958722,0.));
#225 = PCURVE('',#100,#226);
#226 = DEFINITIONAL_REPRESENTATION('',(#227),#231);
#227 = LINE('',#228,#229);
#228 = CARTESIAN_POINT('',(0.,0.));
#229 = VECTOR('',#230,1.);
#230 = DIRECTION('',(1.,1.253142928013E-21));
#231 = ( GEOMETRIC_REPRESENTATION_CONTEXT(2) 
PARAMETRIC_REPRESENTATION_CONTEXT() REPRESENTATION_CONTEXT('2D SPACE',''
  ) );
#232 = PCURVE('',#126,#233);
#233 = DEFINITIONAL_REPRESENTATION('',(#234),#238);
#234 = LINE('',#235,#236);
#235 = CARTESIAN_POINT('',(450.01228927701,7.991920211246));
#236 = VECTOR('',#237,1.);
#237 = DIRECTION('',(-3.996676351557E-02,0.999201009714));
#238 = ( GEOMETRIC_REPRESENTATION_CONTEXT(2) 
PARAMETRIC_REPRESENTATION_CONTEXT() REPRESENTATION_CONTEXT('2D SPACE',''
  ) );
#239 = ORIENTED_EDGE('',*,*,#84,.T.);
#240 = ORIENTED_EDGE('',*,*,#241,.T.);
#241 = EDGE_CURVE('',#57,#242,#244,.T.);
#242 = VERTEX_POINT('',#243);
#243 = CARTESIAN_POINT('',(999.23907042821,117.90286828519,
    15.59341201949));
#244 = SURFACE_CURVE('',#245,(#249,#256),.PCURVE_S1.);
#245 = LINE('',#246,#247);
#246 = CARTESIAN_POINT('',(999.55621508758,109.97425180094,
    15.59341201949));
#247 = VECTOR('',#248,1.);
#248 = DIRECTION('',(-3.996803834888E-02,0.999200958722,0.));
#249 = PCURVE('',#100,#250);
#250 = DEFINITIONAL_REPRESENTATION('',(#251),#255);
#251 = LINE('',#252,#253);
#252 = CARTESIAN_POINT('',(7.905460227272E-16,-5.));
#253 = VECTOR('',#254,1.);
#254 = DIRECTION('',(1.,1.253142928013E-21));
#255 = ( GEOMETRIC_REPRESENTATION_CONTEXT(2) 
PARAMETRIC_REPRESENTATION_CONTEXT() REPRESENTATION_CONTEXT('2D SPACE',''
  ) );
#256 = PCURVE('',#72,#257);
#257 = DEFINITIONAL_REPRESENTATION('',(#258),#262);
#258 = LINE('',#259,#260);
#259 = CARTESIAN_POINT('',(450.01228927701,7.991920211246));
#260 = VECTOR('',#261,1.);
#261 = DIRECTION('',(-3.996676351557E-02,0.999201009714));
#262 = ( GEOMETRIC_REPRESENTATION_CONTEXT(2) 
PARAMETRIC_REPRESENTATION_CONTEXT() REPRESENTATION_CONTEXT('2D SPACE',''
  ) );
#263 = ORIENTED_EDGE('',*,*,#264,.F.);
#264 = EDGE_CURVE('',#265,#242,#267,.T.);
#265 = VERTEX_POINT('',#266);
#266 = CARTESIAN_POINT('',(999.07399897998,122.02965449113,
    15.59341201949));
#267 = SURFACE_CURVE('',#268,(#273,#280),.PCURVE_S1.);
#268 = ELLIPSE('',#269,2.500151011063,2.5);
#269 = AXIS2_PLACEMENT_3D('',#270,#271,#272);
#270 = CARTESIAN_POINT('',(999.14527949529,119.96581117981,
    17.002564161514));
#271 = DIRECTION('',(-0.999169036898,-3.996676147594E-02,
    -7.993352295186E-03));
#272 = DIRECTION('',(7.986965276771E-03,3.194786105635E-04,
    -0.999968052649));
#273 = PCURVE('',#100,#274);
#274 = DEFINITIONAL_REPRESENTATION('',(#275),#279);
#275 = ELLIPSE('',#276,2.500151011063,2.5);
#276 = AXIS2_PLACEMENT_2D('',#277,#278);
#277 = CARTESIAN_POINT('',(10.,-6.40919716214));
#278 = DIRECTION('',(-5.069788989679E-13,1.));
#279 = ( GEOMETRIC_REPRESENTATION_CONTEXT(2) 
PARAMETRIC_REPRESENTATION_CONTEXT() REPRESENTATION_CONTEXT('2D SPACE',''
  ) );
#280 = PCURVE('',#281,#286);
#281 = CYLINDRICAL_SURFACE('',#282,2.5);
#282 = AXIS2_PLACEMENT_3D('',#283,#284,#285);
#283 = CARTESIAN_POINT('',(0.15,80.006,19.99955));
#284 = DIRECTION('',(0.99919646953,3.996785878122E-02,
    -2.997589408591E-03));
#285 = DIRECTION('',(-3.996803834887E-02,0.999200958722,
    1.355252715607E-20));
#286 = DEFINITIONAL_REPRESENTATION('',(#287),#295);
#287 = B_SPLINE_CURVE_WITH_KNOTS('',6,(#288,#289,#290,#291,#292,#293,
    #294),.UNSPECIFIED.,.F.,.F.,(7,7),(5.084579558273,7.481791056086),
  .PIECEWISE_BEZIER_KNOTS.);
#288 = CARTESIAN_POINT('',(5.910994729291,999.80864098577));
#289 = CARTESIAN_POINT('',(5.511459479656,999.81886800968));
#290 = CARTESIAN_POINT('',(5.11192423002,999.82717938682));
#291 = CARTESIAN_POINT('',(4.712388980385,999.83065171596));
#292 = CARTESIAN_POINT('',(4.312853730749,999.82717938681));
#293 = CARTESIAN_POINT('',(3.913318481114,999.81886800968));
#294 = CARTESIAN_POINT('',(3.513783231478,999.80864098577));
#295 = ( GEOMETRIC_REPRESENTATION_CONTEXT(2) 
PARAMETRIC_REPRESENTATION_CONTEXT() REPRESENTATION_CONTEXT('2D SPACE',''
  ) );
#296 = ORIENTED_EDGE('',*,*,#297,.T.);
#297 = EDGE_CURVE('',#265,#298,#300,.T.);
#298 = VERTEX_POINT('',#299);
#299 = CARTESIAN_POINT('',(998.75685432061,129.95827097538,
    15.59341201949));
#300 = SURFACE_CURVE('',#301,(#305,#312),.PCURVE_S1.);
#301 = LINE('',#302,#303);
#302 = CARTESIAN_POINT('',(999.55621508758,109.97425180094,
    15.59341201949));
#303 = VECTOR('',#304,1.);
#304 = DIRECTION('',(-3.996803834888E-02,0.999200958722,0.));
#305 = PCURVE('',#100,#306);
#306 = DEFINITIONAL_REPRESENTATION('',(#307),#311);
#307 = LINE('',#308,#309);
#308 = CARTESIAN_POINT('',(7.905460227272E-16,-5.));
#309 = VECTOR('',#310,1.);
#310 = DIRECTION('',(1.,1.253142928013E-21));
#311 = ( GEOMETRIC_REPRESENTATION_CONTEXT(2) 
PARAMETRIC_REPRESENTATION_CONTEXT() REPRESENTATION_CONTEXT('2D SPACE',''
  ) );
#312 = PCURVE('',#72,#313);
#313 = DEFINITIONAL_REPRESENTATION('',(#314),#318);
#314 = LINE('',#315,#316);
#315 = CARTESIAN_POINT('',(450.01228927701,7.991920211246));
#316 = VECTOR('',#317,1.);
#317 = DIRECTION('',(-3.996676351557E-02,0.999201009714));
#318 = ( GEOMETRIC_REPRESENTATION_CONTEXT(2) 
PARAMETRIC_REPRESENTATION_CONTEXT() REPRESENTATION_CONTEXT('2D SPACE',''
  ) );
#319 = ORIENTED_EDGE('',*,*,#320,.F.);
#320 = EDGE_CURVE('',#218,#298,#321,.T.);
#321 = SURFACE_CURVE('',#322,(#326,#333),.PCURVE_S1.);
#322 = LINE('',#323,#324);
#323 = CARTESIAN_POINT('',(998.79678914699,129.95986836843,
    10.593571756244));
#324 = VECTOR('',#325,1.);
#325 = DIRECTION('',(-7.986965276751E-03,-3.1947861107E-04,
    0.999968052649));
#326 = PCURVE('',#100,#327);
#327 = DEFINITIONAL_REPRESENTATION('',(#328),#332);
#328 = LINE('',#329,#330);
#329 = CARTESIAN_POINT('',(20.,8.673617379884E-19));
#330 = VECTOR('',#331,1.);
#331 = DIRECTION('',(4.445229080378E-17,-1.));
#332 = ( GEOMETRIC_REPRESENTATION_CONTEXT(2) 
PARAMETRIC_REPRESENTATION_CONTEXT() REPRESENTATION_CONTEXT('2D SPACE',''
  ) );
#333 = PCURVE('',#159,#334);
#334 = DEFINITIONAL_REPRESENTATION('',(#335),#339);
#335 = LINE('',#336,#337);
#336 = CARTESIAN_POINT('',(-0.,0.));
#337 = VECTOR('',#338,1.);
#338 = DIRECTION('',(0.,-1.));
#339 = ( GEOMETRIC_REPRESENTATION_CONTEXT(2) 
PARAMETRIC_REPRESENTATION_CONTEXT() REPRESENTATION_CONTEXT('2D SPACE',''
  ) );
#340 = ADVANCED_FACE('',(#341),#126,.F.);
#341 = FACE_BOUND('',#342,.F.);
#342 = EDGE_LOOP('',(#343,#344,#345,#366));
#343 = ORIENTED_EDGE('',*,*,#112,.T.);
#344 = ORIENTED_EDGE('',*,*,#217,.T.);
#345 = ORIENTED_EDGE('',*,*,#346,.T.);
#346 = EDGE_CURVE('',#218,#142,#347,.T.);
#347 = SURFACE_CURVE('',#348,(#352,#359),.PCURVE_S1.);
#348 = LINE('',#349,#350);
#349 = CARTESIAN_POINT('',(998.79678914699,129.95986836843,
    10.593571756244));
#350 = VECTOR('',#351,1.);
#351 = DIRECTION('',(-0.999169036898,-3.996676147593E-02,
    -7.993352295186E-03));
#352 = PCURVE('',#126,#353);
#353 = DEFINITIONAL_REPRESENTATION('',(#354),#358);
#354 = LINE('',#355,#356);
#355 = CARTESIAN_POINT('',(449.2129540067,27.975940405532));
#356 = VECTOR('',#357,1.);
#357 = DIRECTION('',(-0.999201009714,-3.996676351557E-02));
#358 = ( GEOMETRIC_REPRESENTATION_CONTEXT(2) 
PARAMETRIC_REPRESENTATION_CONTEXT() REPRESENTATION_CONTEXT('2D SPACE',''
  ) );
#359 = PCURVE('',#159,#360);
#360 = DEFINITIONAL_REPRESENTATION('',(#361),#365);
#361 = LINE('',#362,#363);
#362 = CARTESIAN_POINT('',(-0.,0.));
#363 = VECTOR('',#364,1.);
#364 = DIRECTION('',(1.,-1.734723475977E-18));
#365 = ( GEOMETRIC_REPRESENTATION_CONTEXT(2) 
PARAMETRIC_REPRESENTATION_CONTEXT() REPRESENTATION_CONTEXT('2D SPACE',''
  ) );
#366 = ORIENTED_EDGE('',*,*,#193,.T.);
#367 = ADVANCED_FACE('',(#368),#72,.T.);
#368 = FACE_BOUND('',#369,.T.);
#369 = EDGE_LOOP('',(#370,#371,#372,#373,#408,#409));
#370 = ORIENTED_EDGE('',*,*,#171,.T.);
#371 = ORIENTED_EDGE('',*,*,#56,.T.);
#372 = ORIENTED_EDGE('',*,*,#241,.T.);
#373 = ORIENTED_EDGE('',*,*,#374,.F.);
#374 = EDGE_CURVE('',#265,#242,#375,.T.);
#375 = SURFACE_CURVE('',#376,(#381,#388),.PCURVE_S1.);
#376 = ELLIPSE('',#377,227.4627615258,2.5);
#377 = AXIS2_PLACEMENT_3D('',#378,#379,#380);
#378 = CARTESIAN_POINT('',(1.127258205286E+03,125.09032821142,
    16.618225384143));
#379 = DIRECTION('',(-7.986965276751E-03,-3.1947861107E-04,
    0.999968052649));
#380 = DIRECTION('',(0.999169036898,3.996676147593E-02,
    7.993352295186E-03));
#381 = PCURVE('',#72,#382);
#382 = DEFINITIONAL_REPRESENTATION('',(#383),#387);
#383 = ELLIPSE('',#384,227.4627615258,2.5);
#384 = AXIS2_PLACEMENT_2D('',#385,#386);
#385 = CARTESIAN_POINT('',(577.71839140088,23.107997393151));
#386 = DIRECTION('',(0.999201009714,3.996676351557E-02));
#387 = ( GEOMETRIC_REPRESENTATION_CONTEXT(2) 
PARAMETRIC_REPRESENTATION_CONTEXT() REPRESENTATION_CONTEXT('2D SPACE',''
  ) );
#388 = PCURVE('',#281,#389);
#389 = DEFINITIONAL_REPRESENTATION('',(#390),#407);
#390 = B_SPLINE_CURVE_WITH_KNOTS('',8,(#391,#392,#393,#394,#395,#396,
    #397,#398,#399,#400,#401,#402,#403,#404,#405,#406),.UNSPECIFIED.,.F.
  ,.F.,(9,7,9),(2.168599084559,3.14159265359,4.114586222621),
  .UNSPECIFIED.);
#391 = CARTESIAN_POINT('',(5.685382549416,1.0000000006E+03));
#392 = CARTESIAN_POINT('',(5.563758353287,977.13422463076));
#393 = CARTESIAN_POINT('',(5.442134157163,956.43261876294));
#394 = CARTESIAN_POINT('',(5.320509961002,938.41059833159));
#395 = CARTESIAN_POINT('',(5.198885764916,923.51527869701));
#396 = CARTESIAN_POINT('',(5.077261568742,912.10109802987));
#397 = CARTESIAN_POINT('',(4.955637372643,904.41075078863));
#398 = CARTESIAN_POINT('',(4.834013176514,900.56557678802));
#399 = CARTESIAN_POINT('',(4.590764784256,900.56557678802));
#400 = CARTESIAN_POINT('',(4.469140588128,904.41075078805));
#401 = CARTESIAN_POINT('',(4.347516391977,912.10109803034));
#402 = CARTESIAN_POINT('',(4.225892195882,923.51527869422));
#403 = CARTESIAN_POINT('',(4.104267999726,938.41059833206));
#404 = CARTESIAN_POINT('',(3.982643803613,956.4326187619));
#405 = CARTESIAN_POINT('',(3.861019607483,977.13422463076));
#406 = CARTESIAN_POINT('',(3.739395411354,1.0000000006E+03));
#407 = ( GEOMETRIC_REPRESENTATION_CONTEXT(2) 
PARAMETRIC_REPRESENTATION_CONTEXT() REPRESENTATION_CONTEXT('2D SPACE',''
  ) );
#408 = ORIENTED_EDGE('',*,*,#297,.T.);
#409 = ORIENTED_EDGE('',*,*,#410,.T.);
#410 = EDGE_CURVE('',#298,#144,#411,.T.);
#411 = SURFACE_CURVE('',#412,(#416,#423),.PCURVE_S1.);
#412 = LINE('',#413,#414);
#413 = CARTESIAN_POINT('',(998.75685432061,129.95827097538,
    15.59341201949));
#414 = VECTOR('',#415,1.);
#415 = DIRECTION('',(-0.999169036898,-3.996676147593E-02,
    -7.993352295186E-03));
#416 = PCURVE('',#72,#417);
#417 = DEFINITIONAL_REPRESENTATION('',(#418),#422);
#418 = LINE('',#419,#420);
#419 = CARTESIAN_POINT('',(449.2129540067,27.975940405532));
#420 = VECTOR('',#421,1.);
#421 = DIRECTION('',(-0.999201009714,-3.996676351557E-02));
#422 = ( GEOMETRIC_REPRESENTATION_CONTEXT(2) 
PARAMETRIC_REPRESENTATION_CONTEXT() REPRESENTATION_CONTEXT('2D SPACE',''
  ) );
#423 = PCURVE('',#159,#424);
#424 = DEFINITIONAL_REPRESENTATION('',(#425),#429);
#425 = LINE('',#426,#427);
#426 = CARTESIAN_POINT('',(-2.625677453238E-14,-5.));
#427 = VECTOR('',#428,1.);
#428 = DIRECTION('',(1.,-1.734723475977E-18));
#429 = ( GEOMETRIC_REPRESENTATION_CONTEXT(2) 
PARAMETRIC_REPRESENTATION_CONTEXT() REPRESENTATION_CONTEXT('2D SPACE',''
  ) );
#430 = ADVANCED_FACE('',(#431),#159,.F.);
#431 = FACE_BOUND('',#432,.F.);
#432 = EDGE_LOOP('',(#433,#434,#435,#436));
#433 = ORIENTED_EDGE('',*,*,#320,.T.);
#434 = ORIENTED_EDGE('',*,*,#410,.T.);
#435 = ORIENTED_EDGE('',*,*,#141,.F.);
#436 = ORIENTED_EDGE('',*,*,#346,.F.);
#437 = ADVANCED_FACE('',(#438),#281,.F.);
#438 = FACE_BOUND('',#439,.F.);
#439 = EDGE_LOOP('',(#440,#441));
#440 = ORIENTED_EDGE('',*,*,#374,.F.);
#441 = ORIENTED_EDGE('',*,*,#264,.T.);
#442 = ( GEOMETRIC_REPRESENTATION_CONTEXT(3) 
GLOBAL_UNCERTAINTY_ASSIGNED_CONTEXT((#446)) GLOBAL_UNIT_ASSIGNED_CONTEXT
((#443,#444,#445)) REPRESENTATION_CONTEXT('Context #1',
  '3D Context with UNIT and UNCERTAINTY') );
#443 = ( LENGTH_UNIT() NAMED_UNIT(*) SI_UNIT(.MILLI.,.METRE.) );
#444 = ( NAMED_UNIT(*) PLANE_ANGLE_UNIT() SI_UNIT($,.RADIAN.) );
#445 = ( NAMED_UNIT(*) SI_UNIT($,.STERADIAN.) SOLID_ANGLE_UNIT() );
#446 = UNCERTAINTY_MEASURE_WITH_UNIT(LENGTH_MEASURE(1.E-07),#443,
  'distance_accuracy_value','confusion accuracy');
#447 = PRODUCT_RELATED_PRODUCT_CATEGORY('part',$,(#7));
ENDSEC;
END-ISO-10303-21;
