ISO-10303-21;
HEADER;
FILE_DESCRIPTION(('Open CASCADE Model'),'2;1');
FILE_NAME('Open CASCADE Shape Model','2026-09-23T19:44:17',('Author'),(
    'Open CASCADE'),'Open CASCADE STEP processor 7.9','Open CASCADE 7.9'
  ,'Unknown');
FILE_SCHEMA(('AUTOMOTIVE_DESIGN { 1 0 10303 214 1 1 1 1 }'));
ENDSEC;
DATA;
#1 = APPLICATION_PROTOCOL_DEFINITION('international standard',
  'automotive_design',2000,#2);
#2 = APPLICATION_CONTEXT(
  'core data for automotive mechanical design processes');
#3 = SHAPE_DEFINITION_REPRESENTATION(#4,#10);
#4 = PRODUCT_DEFINITION_SHAPE('','',#5);
#5 = PRODUCT_DEFINITION('design','',#6,#9);
#6 = PRODUCT_DEFINITION_FORMATION('','',#7);
#7 = PRODUCT('Open CASCADE STEP translator 7.9 3',
  'Open CASCADE STEP translator 7.9 3','',(#8));
#8 = PRODUCT_CONTEXT('',#2,'mechanical');
#9 = PRODUCT_DEFINITION_CONTEXT('part definition',#2,'design');
#10 = ADVANCED_BREP_SHAPE_REPRESENTATION('',(#11,#15),#451);
#11 = AXIS2_PLACEMENT_3D('',#12,#13,#14);
#12 = CARTESIAN_POINT('',(0.,0.,0.));
#13 = DIRECTION('',(0.,0.,1.));
#14 = DIRECTION('',(1.,0.,-0.));
#15 = MANIFOLD_SOLID_BREP('',#16);
#16 = CLOSED_SHELL('',(#17,#195,#271,#320,#412,#417,#444));
#17 = ADVANCED_FACE('',(#18),#32,.T.);
#18 = FACE_BOUND('',#19,.T.);
#19 = EDGE_LOOP('',(#20,#55,#83,#111,#146,#169));
#20 = ORIENTED_EDGE('',*,*,#21,.F.);
#21 = EDGE_CURVE('',#22,#24,#26,.T.);
#22 = VERTEX_POINT('',#23);
#23 = CARTESIAN_POINT('',(998.99662933873,124.96386357482,
    10.593571756244));
#24 = VERTEX_POINT('',#25);
#25 = CARTESIAN_POINT('',(999.39630972222,114.97185398761,
    10.593571756244));
#26 = SURFACE_CURVE('',#27,(#31,#43),.PCURVE_S1.);
#27 = LINE('',#28,#29);
#28 = CARTESIAN_POINT('',(998.99662933873,124.96386357482,
    10.593571756244));
#29 = VECTOR('',#30,1.);
#30 = DIRECTION('',(3.996803834887E-02,-0.999200958722,0.));
#31 = PCURVE('',#32,#37);
#32 = PLANE('',#33);
#33 = AXIS2_PLACEMENT_3D('',#34,#35,#36);
#34 = CARTESIAN_POINT('',(998.99662933873,124.96386357482,
    10.593571756244));
#35 = DIRECTION('',(0.999169036898,3.996676147592E-02,7.993352295186E-03
    ));
#36 = DIRECTION('',(3.996803834887E-02,-0.999200958722,0.));
#37 = DEFINITIONAL_REPRESENTATION('',(#38),#42);
#38 = LINE('',#39,#40);
#39 = CARTESIAN_POINT('',(0.,0.));
#40 = VECTOR('',#41,1.);
#41 = DIRECTION('',(1.,-5.546325155229E-20));
#42 = ( GEOMETRIC_REPRESENTATION_CONTEXT(2) 
PARAMETRIC_REPRESENTATION_CONTEXT() REPRESENTATION_CONTEXT('2D SPACE',''
  ) );
#43 = PCURVE('',#44,#49);
#44 = PLANE('',#45);
#45 = AXIS2_PLACEMENT_3D('',#46,#47,#48);
#46 = CARTESIAN_POINT('',(811.88010695103,112.47520427804,9.095040855608
    ));
#47 = DIRECTION('',(7.986965276751E-03,3.194786110698E-04,
    -0.999968052649));
#48 = DIRECTION('',(-0.999968103681,0.,-7.986965684352E-03));
#49 = DEFINITIONAL_REPRESENTATION('',(#50),#54);
#50 = LINE('',#51,#52);
#51 = CARTESIAN_POINT('',(-187.1225227742,12.488659934124));
#52 = VECTOR('',#53,1.);
#53 = DIRECTION('',(-3.996676351556E-02,-0.999201009714));
#54 = ( GEOMETRIC_REPRESENTATION_CONTEXT(2) 
PARAMETRIC_REPRESENTATION_CONTEXT() REPRESENTATION_CONTEXT('2D SPACE',''
  ) );
#55 = ORIENTED_EDGE('',*,*,#56,.T.);
#56 = EDGE_CURVE('',#22,#57,#59,.T.);
#57 = VERTEX_POINT('',#58);
#58 = CARTESIAN_POINT('',(998.94870754707,124.96194670316,
    16.593380072139));
#59 = SURFACE_CURVE('',#60,(#64,#71),.PCURVE_S1.);
#60 = LINE('',#61,#62);
#61 = CARTESIAN_POINT('',(998.99662933873,124.96386357482,
    10.593571756244));
#62 = VECTOR('',#63,1.);
#63 = DIRECTION('',(-7.986965276751E-03,-3.1947861107E-04,0.999968052649
    ));
#64 = PCURVE('',#32,#65);
#65 = DEFINITIONAL_REPRESENTATION('',(#66),#70);
#66 = LINE('',#67,#68);
#67 = CARTESIAN_POINT('',(0.,0.));
#68 = VECTOR('',#69,1.);
#69 = DIRECTION('',(4.629543276513E-17,-1.));
#70 = ( GEOMETRIC_REPRESENTATION_CONTEXT(2) 
PARAMETRIC_REPRESENTATION_CONTEXT() REPRESENTATION_CONTEXT('2D SPACE',''
  ) );
#71 = PCURVE('',#72,#77);
#72 = PLANE('',#73);
#73 = AXIS2_PLACEMENT_3D('',#74,#75,#76);
#74 = CARTESIAN_POINT('',(624.36390417984,109.97855456847,7.596509954973
    ));
#75 = DIRECTION('',(-3.996803834887E-02,0.999200958722,
    -2.710505431214E-19));
#76 = DIRECTION('',(0.999169036898,3.996676147593E-02,7.993352295186E-03
    ));
#77 = DEFINITIONAL_REPRESENTATION('',(#78),#82);
#78 = LINE('',#79,#80);
#79 = CARTESIAN_POINT('',(374.94429002911,4.440892098501E-16));
#80 = VECTOR('',#81,1.);
#81 = DIRECTION('',(1.734723475977E-18,-1.));
#82 = ( GEOMETRIC_REPRESENTATION_CONTEXT(2) 
PARAMETRIC_REPRESENTATION_CONTEXT() REPRESENTATION_CONTEXT('2D SPACE',''
  ) );
#83 = ORIENTED_EDGE('',*,*,#84,.T.);
#84 = EDGE_CURVE('',#57,#85,#87,.T.);
#85 = VERTEX_POINT('',#86);
#86 = CARTESIAN_POINT('',(999.04997503403,122.43025952933,
    16.593380072139));
#87 = SURFACE_CURVE('',#88,(#92,#99),.PCURVE_S1.);
#88 = LINE('',#89,#90);
#89 = CARTESIAN_POINT('',(998.94870754707,124.96194670316,
    16.593380072139));
#90 = VECTOR('',#91,1.);
#91 = DIRECTION('',(3.996803834887E-02,-0.999200958722,0.));
#92 = PCURVE('',#32,#93);
#93 = DEFINITIONAL_REPRESENTATION('',(#94),#98);
#94 = LINE('',#95,#96);
#95 = CARTESIAN_POINT('',(2.549609828817E-15,-6.));
#96 = VECTOR('',#97,1.);
#97 = DIRECTION('',(1.,-5.546325155229E-20));
#98 = ( GEOMETRIC_REPRESENTATION_CONTEXT(2) 
PARAMETRIC_REPRESENTATION_CONTEXT() REPRESENTATION_CONTEXT('2D SPACE',''
  ) );
#99 = PCURVE('',#100,#105);
#100 = PLANE('',#101);
#101 = AXIS2_PLACEMENT_3D('',#102,#103,#104);
#102 = CARTESIAN_POINT('',(811.83218515937,112.47328740637,
    15.094849171504));
#103 = DIRECTION('',(7.986965276751E-03,3.194786110698E-04,
    -0.999968052649));
#104 = DIRECTION('',(-0.999968103681,0.,-7.986965684352E-03));
#105 = DEFINITIONAL_REPRESENTATION('',(#106),#110);
#106 = LINE('',#107,#108);
#107 = CARTESIAN_POINT('',(-187.1225227742,12.488659934124));
#108 = VECTOR('',#109,1.);
#109 = DIRECTION('',(-3.996676351556E-02,-0.999201009714));
#110 = ( GEOMETRIC_REPRESENTATION_CONTEXT(2) 
PARAMETRIC_REPRESENTATION_CONTEXT() REPRESENTATION_CONTEXT('2D SPACE',''
  ) );
#111 = ORIENTED_EDGE('',*,*,#112,.F.);
#112 = EDGE_CURVE('',#113,#85,#115,.T.);
#113 = VERTEX_POINT('',#114);
#114 = CARTESIAN_POINT('',(999.24712044361,117.50162428981,
    16.593380072139));
#115 = SURFACE_CURVE('',#116,(#121,#128),.PCURVE_S1.);
#116 = ELLIPSE('',#117,2.500151011063,2.5);
#117 = AXIS2_PLACEMENT_3D('',#118,#119,#120);
#118 = CARTESIAN_POINT('',(999.14527949529,119.96581117983,
    17.002564161513));
#119 = DIRECTION('',(0.999169036898,3.996676147592E-02,
    7.993352295186E-03));
#120 = DIRECTION('',(7.986965276657E-03,3.194786134136E-04,
    -0.999968052649));
#121 = PCURVE('',#32,#122);
#122 = DEFINITIONAL_REPRESENTATION('',(#123),#127);
#123 = ELLIPSE('',#124,2.500151011063,2.5);
#124 = AXIS2_PLACEMENT_2D('',#125,#126);
#125 = CARTESIAN_POINT('',(4.99999999998,-6.409197162139));
#126 = DIRECTION('',(-2.345488278425E-12,1.));
#127 = ( GEOMETRIC_REPRESENTATION_CONTEXT(2) 
PARAMETRIC_REPRESENTATION_CONTEXT() REPRESENTATION_CONTEXT('2D SPACE',''
  ) );
#128 = PCURVE('',#129,#134);
#129 = CYLINDRICAL_SURFACE('',#130,2.5);
#130 = AXIS2_PLACEMENT_3D('',#131,#132,#133);
#131 = CARTESIAN_POINT('',(0.15,80.006,19.99955));
#132 = DIRECTION('',(0.99919646953,3.996785878124E-02,
    -2.997589408592E-03));
#133 = DIRECTION('',(-3.996803834889E-02,0.999200958722,
    8.988036009905E-17));
#134 = DEFINITIONAL_REPRESENTATION('',(#135),#145);
#135 = B_SPLINE_CURVE_WITH_KNOTS('',8,(#136,#137,#138,#139,#140,#141,
    #142,#143,#144),.UNSPECIFIED.,.F.,.F.,(9,9),(4.635998179656,
    7.853981633972),.PIECEWISE_BEZIER_KNOTS.);
#136 = CARTESIAN_POINT('',(3.065201852864,999.79655109474));
#137 = CARTESIAN_POINT('',(3.467449784653,999.80757210364));
#138 = CARTESIAN_POINT('',(3.869697716437,999.81898104737));
#139 = CARTESIAN_POINT('',(4.271945648234,999.82805898552));
#140 = CARTESIAN_POINT('',(4.674193580006,999.83196375053));
#141 = CARTESIAN_POINT('',(5.076441511814,999.82908192742));
#142 = CARTESIAN_POINT('',(5.478689443599,999.82075472979));
#143 = CARTESIAN_POINT('',(5.88093737539,999.80970141661));
#144 = CARTESIAN_POINT('',(6.28318530718,999.79864817248));
#145 = ( GEOMETRIC_REPRESENTATION_CONTEXT(2) 
PARAMETRIC_REPRESENTATION_CONTEXT() REPRESENTATION_CONTEXT('2D SPACE',''
  ) );
#146 = ORIENTED_EDGE('',*,*,#147,.T.);
#147 = EDGE_CURVE('',#113,#148,#150,.T.);
#148 = VERTEX_POINT('',#149);
#149 = CARTESIAN_POINT('',(999.34838793056,114.96993711594,
    16.593380072139));
#150 = SURFACE_CURVE('',#151,(#155,#162),.PCURVE_S1.);
#151 = LINE('',#152,#153);
#152 = CARTESIAN_POINT('',(998.94870754707,124.96194670316,
    16.593380072139));
#153 = VECTOR('',#154,1.);
#154 = DIRECTION('',(3.996803834887E-02,-0.999200958722,0.));
#155 = PCURVE('',#32,#156);
#156 = DEFINITIONAL_REPRESENTATION('',(#157),#161);
#157 = LINE('',#158,#159);
#158 = CARTESIAN_POINT('',(2.549609828817E-15,-6.));
#159 = VECTOR('',#160,1.);
#160 = DIRECTION('',(1.,-5.546325155229E-20));
#161 = ( GEOMETRIC_REPRESENTATION_CONTEXT(2) 
PARAMETRIC_REPRESENTATION_CONTEXT() REPRESENTATION_CONTEXT('2D SPACE',''
  ) );
#162 = PCURVE('',#100,#163);
#163 = DEFINITIONAL_REPRESENTATION('',(#164),#168);
#164 = LINE('',#165,#166);
#165 = CARTESIAN_POINT('',(-187.1225227742,12.488659934124));
#166 = VECTOR('',#167,1.);
#167 = DIRECTION('',(-3.996676351556E-02,-0.999201009714));
#168 = ( GEOMETRIC_REPRESENTATION_CONTEXT(2) 
PARAMETRIC_REPRESENTATION_CONTEXT() REPRESENTATION_CONTEXT('2D SPACE',''
  ) );
#169 = ORIENTED_EDGE('',*,*,#170,.F.);
#170 = EDGE_CURVE('',#24,#148,#171,.T.);
#171 = SURFACE_CURVE('',#172,(#176,#183),.PCURVE_S1.);
#172 = LINE('',#173,#174);
#173 = CARTESIAN_POINT('',(999.39630972222,114.97185398761,
    10.593571756244));
#174 = VECTOR('',#175,1.);
#175 = DIRECTION('',(-7.986965276751E-03,-3.1947861107E-04,
    0.999968052649));
#176 = PCURVE('',#32,#177);
#177 = DEFINITIONAL_REPRESENTATION('',(#178),#182);
#178 = LINE('',#179,#180);
#179 = CARTESIAN_POINT('',(10.,-4.336808689942E-19));
#180 = VECTOR('',#181,1.);
#181 = DIRECTION('',(4.629543276513E-17,-1.));
#182 = ( GEOMETRIC_REPRESENTATION_CONTEXT(2) 
PARAMETRIC_REPRESENTATION_CONTEXT() REPRESENTATION_CONTEXT('2D SPACE',''
  ) );
#183 = PCURVE('',#184,#189);
#184 = PLANE('',#185);
#185 = AXIS2_PLACEMENT_3D('',#186,#187,#188);
#186 = CARTESIAN_POINT('',(999.39630972222,114.97185398761,
    10.593571756244));
#187 = DIRECTION('',(3.996803834887E-02,-0.999200958722,0.));
#188 = DIRECTION('',(-0.999169036898,-3.996676147593E-02,
    -7.993352295186E-03));
#189 = DEFINITIONAL_REPRESENTATION('',(#190),#194);
#190 = LINE('',#191,#192);
#191 = CARTESIAN_POINT('',(-0.,0.));
#192 = VECTOR('',#193,1.);
#193 = DIRECTION('',(-1.734723475977E-18,-1.));
#194 = ( GEOMETRIC_REPRESENTATION_CONTEXT(2) 
PARAMETRIC_REPRESENTATION_CONTEXT() REPRESENTATION_CONTEXT('2D SPACE',''
  ) );
#195 = ADVANCED_FACE('',(#196),#44,.T.);
#196 = FACE_BOUND('',#197,.T.);
#197 = EDGE_LOOP('',(#198,#199,#222,#250));
#198 = ORIENTED_EDGE('',*,*,#21,.T.);
#199 = ORIENTED_EDGE('',*,*,#200,.T.);
#200 = EDGE_CURVE('',#24,#201,#203,.T.);
#201 = VERTEX_POINT('',#202);
#202 = CARTESIAN_POINT('',(624.76358456333,99.986544981255,
    7.596509954973));
#203 = SURFACE_CURVE('',#204,(#208,#215),.PCURVE_S1.);
#204 = LINE('',#205,#206);
#205 = CARTESIAN_POINT('',(999.39630972222,114.97185398761,
    10.593571756244));
#206 = VECTOR('',#207,1.);
#207 = DIRECTION('',(-0.999169036898,-3.996676147593E-02,
    -7.993352295186E-03));
#208 = PCURVE('',#44,#209);
#209 = DEFINITIONAL_REPRESENTATION('',(#210),#214);
#210 = LINE('',#211,#212);
#211 = CARTESIAN_POINT('',(-187.5221904094,2.496649836981));
#212 = VECTOR('',#213,1.);
#213 = DIRECTION('',(0.999201009714,-3.996676351557E-02));
#214 = ( GEOMETRIC_REPRESENTATION_CONTEXT(2) 
PARAMETRIC_REPRESENTATION_CONTEXT() REPRESENTATION_CONTEXT('2D SPACE',''
  ) );
#215 = PCURVE('',#184,#216);
#216 = DEFINITIONAL_REPRESENTATION('',(#217),#221);
#217 = LINE('',#218,#219);
#218 = CARTESIAN_POINT('',(-0.,0.));
#219 = VECTOR('',#220,1.);
#220 = DIRECTION('',(1.,-1.734723475977E-18));
#221 = ( GEOMETRIC_REPRESENTATION_CONTEXT(2) 
PARAMETRIC_REPRESENTATION_CONTEXT() REPRESENTATION_CONTEXT('2D SPACE',''
  ) );
#222 = ORIENTED_EDGE('',*,*,#223,.T.);
#223 = EDGE_CURVE('',#201,#224,#226,.T.);
#224 = VERTEX_POINT('',#225);
#225 = CARTESIAN_POINT('',(624.36390417984,109.97855456847,
    7.596509954973));
#226 = SURFACE_CURVE('',#227,(#231,#238),.PCURVE_S1.);
#227 = LINE('',#228,#229);
#228 = CARTESIAN_POINT('',(624.76358456333,99.986544981255,
    7.596509954973));
#229 = VECTOR('',#230,1.);
#230 = DIRECTION('',(-3.996803834887E-02,0.999200958722,0.));
#231 = PCURVE('',#44,#232);
#232 = DEFINITIONAL_REPRESENTATION('',(#233),#237);
#233 = LINE('',#234,#235);
#234 = CARTESIAN_POINT('',(187.12252277427,-12.48865993412));
#235 = VECTOR('',#236,1.);
#236 = DIRECTION('',(3.996676351556E-02,0.999201009714));
#237 = ( GEOMETRIC_REPRESENTATION_CONTEXT(2) 
PARAMETRIC_REPRESENTATION_CONTEXT() REPRESENTATION_CONTEXT('2D SPACE',''
  ) );
#238 = PCURVE('',#239,#244);
#239 = PLANE('',#240);
#240 = AXIS2_PLACEMENT_3D('',#241,#242,#243);
#241 = CARTESIAN_POINT('',(624.76358456333,99.986544981255,
    7.596509954973));
#242 = DIRECTION('',(-0.999169036898,-3.996676147592E-02,
    -7.993352295186E-03));
#243 = DIRECTION('',(-3.996803834887E-02,0.999200958722,0.));
#244 = DEFINITIONAL_REPRESENTATION('',(#245),#249);
#245 = LINE('',#246,#247);
#246 = CARTESIAN_POINT('',(0.,0.));
#247 = VECTOR('',#248,1.);
#248 = DIRECTION('',(1.,5.546325155229E-20));
#249 = ( GEOMETRIC_REPRESENTATION_CONTEXT(2) 
PARAMETRIC_REPRESENTATION_CONTEXT() REPRESENTATION_CONTEXT('2D SPACE',''
  ) );
#250 = ORIENTED_EDGE('',*,*,#251,.T.);
#251 = EDGE_CURVE('',#224,#22,#252,.T.);
#252 = SURFACE_CURVE('',#253,(#257,#264),.PCURVE_S1.);
#253 = LINE('',#254,#255);
#254 = CARTESIAN_POINT('',(624.36390417984,109.97855456847,
    7.596509954973));
#255 = VECTOR('',#256,1.);
#256 = DIRECTION('',(0.999169036898,3.996676147593E-02,
    7.993352295186E-03));
#257 = PCURVE('',#44,#258);
#258 = DEFINITIONAL_REPRESENTATION('',(#259),#263);
#259 = LINE('',#260,#261);
#260 = CARTESIAN_POINT('',(187.52219040942,-2.496649836981));
#261 = VECTOR('',#262,1.);
#262 = DIRECTION('',(-0.999201009714,3.996676351557E-02));
#263 = ( GEOMETRIC_REPRESENTATION_CONTEXT(2) 
PARAMETRIC_REPRESENTATION_CONTEXT() REPRESENTATION_CONTEXT('2D SPACE',''
  ) );
#264 = PCURVE('',#72,#265);
#265 = DEFINITIONAL_REPRESENTATION('',(#266),#270);
#266 = LINE('',#267,#268);
#267 = CARTESIAN_POINT('',(0.,0.));
#268 = VECTOR('',#269,1.);
#269 = DIRECTION('',(1.,1.734723475977E-18));
#270 = ( GEOMETRIC_REPRESENTATION_CONTEXT(2) 
PARAMETRIC_REPRESENTATION_CONTEXT() REPRESENTATION_CONTEXT('2D SPACE',''
  ) );
#271 = ADVANCED_FACE('',(#272),#184,.T.);
#272 = FACE_BOUND('',#273,.T.);
#273 = EDGE_LOOP('',(#274,#275,#298,#319));
#274 = ORIENTED_EDGE('',*,*,#170,.T.);
#275 = ORIENTED_EDGE('',*,*,#276,.T.);
#276 = EDGE_CURVE('',#148,#277,#279,.T.);
#277 = VERTEX_POINT('',#278);
#278 = CARTESIAN_POINT('',(624.71566277167,99.984628109588,
    13.596318270868));
#279 = SURFACE_CURVE('',#280,(#284,#291),.PCURVE_S1.);
#280 = LINE('',#281,#282);
#281 = CARTESIAN_POINT('',(999.34838793056,114.96993711594,
    16.593380072139));
#282 = VECTOR('',#283,1.);
#283 = DIRECTION('',(-0.999169036898,-3.996676147593E-02,
    -7.993352295186E-03));
#284 = PCURVE('',#184,#285);
#285 = DEFINITIONAL_REPRESENTATION('',(#286),#290);
#286 = LINE('',#287,#288);
#287 = CARTESIAN_POINT('',(3.618633170888E-14,-6.));
#288 = VECTOR('',#289,1.);
#289 = DIRECTION('',(1.,-1.734723475977E-18));
#290 = ( GEOMETRIC_REPRESENTATION_CONTEXT(2) 
PARAMETRIC_REPRESENTATION_CONTEXT() REPRESENTATION_CONTEXT('2D SPACE',''
  ) );
#291 = PCURVE('',#100,#292);
#292 = DEFINITIONAL_REPRESENTATION('',(#293),#297);
#293 = LINE('',#294,#295);
#294 = CARTESIAN_POINT('',(-187.5221904094,2.496649836981));
#295 = VECTOR('',#296,1.);
#296 = DIRECTION('',(0.999201009714,-3.996676351557E-02));
#297 = ( GEOMETRIC_REPRESENTATION_CONTEXT(2) 
PARAMETRIC_REPRESENTATION_CONTEXT() REPRESENTATION_CONTEXT('2D SPACE',''
  ) );
#298 = ORIENTED_EDGE('',*,*,#299,.F.);
#299 = EDGE_CURVE('',#201,#277,#300,.T.);
#300 = SURFACE_CURVE('',#301,(#305,#312),.PCURVE_S1.);
#301 = LINE('',#302,#303);
#302 = CARTESIAN_POINT('',(624.76358456333,99.986544981255,
    7.596509954973));
#303 = VECTOR('',#304,1.);
#304 = DIRECTION('',(-7.986965276751E-03,-3.1947861107E-04,
    0.999968052649));
#305 = PCURVE('',#184,#306);
#306 = DEFINITIONAL_REPRESENTATION('',(#307),#311);
#307 = LINE('',#308,#309);
#308 = CARTESIAN_POINT('',(374.94429002911,-4.440892098501E-16));
#309 = VECTOR('',#310,1.);
#310 = DIRECTION('',(-1.734723475977E-18,-1.));
#311 = ( GEOMETRIC_REPRESENTATION_CONTEXT(2) 
PARAMETRIC_REPRESENTATION_CONTEXT() REPRESENTATION_CONTEXT('2D SPACE',''
  ) );
#312 = PCURVE('',#239,#313);
#313 = DEFINITIONAL_REPRESENTATION('',(#314),#318);
#314 = LINE('',#315,#316);
#315 = CARTESIAN_POINT('',(0.,0.));
#316 = VECTOR('',#317,1.);
#317 = DIRECTION('',(-4.629543276513E-17,-1.));
#318 = ( GEOMETRIC_REPRESENTATION_CONTEXT(2) 
PARAMETRIC_REPRESENTATION_CONTEXT() REPRESENTATION_CONTEXT('2D SPACE',''
  ) );
#319 = ORIENTED_EDGE('',*,*,#200,.F.);
#320 = ADVANCED_FACE('',(#321),#100,.F.);
#321 = FACE_BOUND('',#322,.F.);
#322 = EDGE_LOOP('',(#323,#346,#347,#389,#390,#391));
#323 = ORIENTED_EDGE('',*,*,#324,.T.);
#324 = EDGE_CURVE('',#325,#57,#327,.T.);
#325 = VERTEX_POINT('',#326);
#326 = CARTESIAN_POINT('',(624.31598238818,109.9766376968,
    13.596318270868));
#327 = SURFACE_CURVE('',#328,(#332,#339),.PCURVE_S1.);
#328 = LINE('',#329,#330);
#329 = CARTESIAN_POINT('',(624.31598238818,109.9766376968,
    13.596318270868));
#330 = VECTOR('',#331,1.);
#331 = DIRECTION('',(0.999169036898,3.996676147593E-02,
    7.993352295186E-03));
#332 = PCURVE('',#100,#333);
#333 = DEFINITIONAL_REPRESENTATION('',(#334),#338);
#334 = LINE('',#335,#336);
#335 = CARTESIAN_POINT('',(187.52219040942,-2.496649836981));
#336 = VECTOR('',#337,1.);
#337 = DIRECTION('',(-0.999201009714,3.996676351557E-02));
#338 = ( GEOMETRIC_REPRESENTATION_CONTEXT(2) 
PARAMETRIC_REPRESENTATION_CONTEXT() REPRESENTATION_CONTEXT('2D SPACE',''
  ) );
#339 = PCURVE('',#72,#340);
#340 = DEFINITIONAL_REPRESENTATION('',(#341),#345);
#341 = LINE('',#342,#343);
#342 = CARTESIAN_POINT('',(-3.618633170888E-14,-6.));
#343 = VECTOR('',#344,1.);
#344 = DIRECTION('',(1.,1.734723475977E-18));
#345 = ( GEOMETRIC_REPRESENTATION_CONTEXT(2) 
PARAMETRIC_REPRESENTATION_CONTEXT() REPRESENTATION_CONTEXT('2D SPACE',''
  ) );
#346 = ORIENTED_EDGE('',*,*,#84,.T.);
#347 = ORIENTED_EDGE('',*,*,#348,.F.);
#348 = EDGE_CURVE('',#113,#85,#349,.T.);
#349 = SURFACE_CURVE('',#350,(#355,#362),.PCURVE_S1.);
#350 = ELLIPSE('',#351,227.46276152578,2.5);
#351 = AXIS2_PLACEMENT_3D('',#352,#353,#354);
#352 = CARTESIAN_POINT('',(1.036346209979E+03,121.45384839918,
    16.890961370062));
#353 = DIRECTION('',(7.986965276751E-03,3.194786110698E-04,
    -0.999968052649));
#354 = DIRECTION('',(0.999169036898,3.996676147595E-02,
    7.993352295186E-03));
#355 = PCURVE('',#100,#356);
#356 = DEFINITIONAL_REPRESENTATION('',(#357),#361);
#357 = ELLIPSE('',#358,227.46276152578,2.5);
#358 = AXIS2_PLACEMENT_2D('',#359,#360);
#359 = CARTESIAN_POINT('',(-224.5212091352,8.980561451118));
#360 = DIRECTION('',(-0.999201009714,3.996676351559E-02));
#361 = ( GEOMETRIC_REPRESENTATION_CONTEXT(2) 
PARAMETRIC_REPRESENTATION_CONTEXT() REPRESENTATION_CONTEXT('2D SPACE',''
  ) );
#362 = PCURVE('',#129,#363);
#363 = DEFINITIONAL_REPRESENTATION('',(#364),#388);
#364 = B_SPLINE_CURVE_WITH_KNOTS('',8,(#365,#366,#367,#368,#369,#370,
    #371,#372,#373,#374,#375,#376,#377,#378,#379,#380,#381,#382,#383,
    #384,#385,#386,#387),.UNSPECIFIED.,.F.,.F.,(9,7,7,9),(1.73432771404,
    2.437960183815,3.493408888477,4.54885759314),.UNSPECIFIED.);
#365 = CARTESIAN_POINT('',(3.305124040835,1.0000000006E+03));
#366 = CARTESIAN_POINT('',(3.393078099557,980.26183318937));
#367 = CARTESIAN_POINT('',(3.481032158278,960.85104547216));
#368 = CARTESIAN_POINT('',(3.568986217,942.00031100124));
#369 = CARTESIAN_POINT('',(3.656940275722,923.93690514535));
#370 = CARTESIAN_POINT('',(3.744894334445,906.87693191341));
#371 = CARTESIAN_POINT('',(3.832848393166,891.01980466394));
#372 = CARTESIAN_POINT('',(3.920802451888,876.54339787081));
#373 = CARTESIAN_POINT('',(4.140687598693,844.18562098577));
#374 = CARTESIAN_POINT('',(4.272618686766,828.22087040997));
#375 = CARTESIAN_POINT('',(4.404549774883,816.22097413474));
#376 = CARTESIAN_POINT('',(4.53648086288,808.57276276778));
#377 = CARTESIAN_POINT('',(4.668411951043,805.50629748636));
#378 = CARTESIAN_POINT('',(4.800343039097,807.07801975344));
#379 = CARTESIAN_POINT('',(4.932274127189,813.17137424388));
#380 = CARTESIAN_POINT('',(5.196136303355,833.85281191839));
#381 = CARTESIAN_POINT('',(5.328067391437,848.44089534634));
#382 = CARTESIAN_POINT('',(5.45999847951,867.00207229936));
#383 = CARTESIAN_POINT('',(5.591929567596,889.1043710988));
#384 = CARTESIAN_POINT('',(5.723860655678,914.17333823861));
#385 = CARTESIAN_POINT('',(5.855791743763,941.52210195118));
#386 = CARTESIAN_POINT('',(5.987722831852,970.39274948406));
#387 = CARTESIAN_POINT('',(6.119653919935,1.0000000006E+03));
#388 = ( GEOMETRIC_REPRESENTATION_CONTEXT(2) 
PARAMETRIC_REPRESENTATION_CONTEXT() REPRESENTATION_CONTEXT('2D SPACE',''
  ) );
#389 = ORIENTED_EDGE('',*,*,#147,.T.);
#390 = ORIENTED_EDGE('',*,*,#276,.T.);
#391 = ORIENTED_EDGE('',*,*,#392,.T.);
#392 = EDGE_CURVE('',#277,#325,#393,.T.);
#393 = SURFACE_CURVE('',#394,(#398,#405),.PCURVE_S1.);
#394 = LINE('',#395,#396);
#395 = CARTESIAN_POINT('',(624.71566277167,99.984628109588,
    13.596318270868));
#396 = VECTOR('',#397,1.);
#397 = DIRECTION('',(-3.996803834887E-02,0.999200958722,0.));
#398 = PCURVE('',#100,#399);
#399 = DEFINITIONAL_REPRESENTATION('',(#400),#404);
#400 = LINE('',#401,#402);
#401 = CARTESIAN_POINT('',(187.12252277427,-12.48865993412));
#402 = VECTOR('',#403,1.);
#403 = DIRECTION('',(3.996676351556E-02,0.999201009714));
#404 = ( GEOMETRIC_REPRESENTATION_CONTEXT(2) 
PARAMETRIC_REPRESENTATION_CONTEXT() REPRESENTATION_CONTEXT('2D SPACE',''
  ) );
#405 = PCURVE('',#239,#406);
#406 = DEFINITIONAL_REPRESENTATION('',(#407),#411);
#407 = LINE('',#408,#409);
#408 = CARTESIAN_POINT('',(-2.549609828817E-15,-6.));
#409 = VECTOR('',#410,1.);
#410 = DIRECTION('',(1.,5.546325155229E-20));
#411 = ( GEOMETRIC_REPRESENTATION_CONTEXT(2) 
PARAMETRIC_REPRESENTATION_CONTEXT() REPRESENTATION_CONTEXT('2D SPACE',''
  ) );
#412 = ADVANCED_FACE('',(#413),#129,.F.);
#413 = FACE_BOUND('',#414,.F.);
#414 = EDGE_LOOP('',(#415,#416));
#415 = ORIENTED_EDGE('',*,*,#112,.F.);
#416 = ORIENTED_EDGE('',*,*,#348,.T.);
#417 = ADVANCED_FACE('',(#418),#72,.T.);
#418 = FACE_BOUND('',#419,.T.);
#419 = EDGE_LOOP('',(#420,#441,#442,#443));
#420 = ORIENTED_EDGE('',*,*,#421,.T.);
#421 = EDGE_CURVE('',#224,#325,#422,.T.);
#422 = SURFACE_CURVE('',#423,(#427,#434),.PCURVE_S1.);
#423 = LINE('',#424,#425);
#424 = CARTESIAN_POINT('',(624.36390417984,109.97855456847,
    7.596509954973));
#425 = VECTOR('',#426,1.);
#426 = DIRECTION('',(-7.986965276751E-03,-3.1947861107E-04,
    0.999968052649));
#427 = PCURVE('',#72,#428);
#428 = DEFINITIONAL_REPRESENTATION('',(#429),#433);
#429 = LINE('',#430,#431);
#430 = CARTESIAN_POINT('',(0.,0.));
#431 = VECTOR('',#432,1.);
#432 = DIRECTION('',(1.734723475977E-18,-1.));
#433 = ( GEOMETRIC_REPRESENTATION_CONTEXT(2) 
PARAMETRIC_REPRESENTATION_CONTEXT() REPRESENTATION_CONTEXT('2D SPACE',''
  ) );
#434 = PCURVE('',#239,#435);
#435 = DEFINITIONAL_REPRESENTATION('',(#436),#440);
#436 = LINE('',#437,#438);
#437 = CARTESIAN_POINT('',(10.,4.336808689942E-19));
#438 = VECTOR('',#439,1.);
#439 = DIRECTION('',(-4.629543276513E-17,-1.));
#440 = ( GEOMETRIC_REPRESENTATION_CONTEXT(2) 
PARAMETRIC_REPRESENTATION_CONTEXT() REPRESENTATION_CONTEXT('2D SPACE',''
  ) );
#441 = ORIENTED_EDGE('',*,*,#324,.T.);
#442 = ORIENTED_EDGE('',*,*,#56,.F.);
#443 = ORIENTED_EDGE('',*,*,#251,.F.);
#444 = ADVANCED_FACE('',(#445),#239,.T.);
#445 = FACE_BOUND('',#446,.T.);
#446 = EDGE_LOOP('',(#447,#448,#449,#450));
#447 = ORIENTED_EDGE('',*,*,#299,.T.);
#448 = ORIENTED_EDGE('',*,*,#392,.T.);
#449 = ORIENTED_EDGE('',*,*,#421,.F.);
#450 = ORIENTED_EDGE('',*,*,#223,.F.);
#451 = ( GEOMETRIC_REPRESENTATION_CONTEXT(3) 
GLOBAL_UNCERTAINTY_ASSIGNED_CONTEXT((#455)) GLOBAL_UNIT_ASSIGNED_CONTEXT
((#452,#453,#454)) REPRESENTATION_CONTEXT('Context #1',
  '3D Context with UNIT and UNCERTAINTY') );
#452 = ( LENGTH_UNIT() NAMED_UNIT(*) SI_UNIT(.MILLI.,.METRE.) );
#453 = ( NAMED_UNIT(*) PLANE_ANGLE_UNIT() SI_UNIT($,.RADIAN.) );
#454 = ( NAMED_UNIT(*) SI_UNIT($,.STERADIAN.) SOLID_ANGLE_UNIT() );
#455 = UNCERTAINTY_MEASURE_WITH_UNIT(LENGTH_MEASURE(1.E-07),#452,
  'distance_accuracy_value','confusion accuracy');
#456 = PRODUCT_RELATED_PRODUCT_CATEGORY('part',$,(#7));
ENDSEC;
END-ISO-10303-21;
