ISO-10303-21;
HEADER;
FILE_DESCRIPTION(('Open CASCADE Model'),'2;1');
FILE_NAME('Open CASCADE Shape Model','2026-09-23T08:26:39',('Author'),(
    'Open CASCADE'),'Open CASCADE STEP processor 7.9','Open CASCADE 7.9'
  ,'Unknown');
FILE_SCHEMA(('AUTOMOTIVE_DESIGN { 1 0 10303 214 1 1 1 1 }'));
ENDSEC;
DATA;
#1 = APPLICATION_PROTOCOL_DEFINITION('international standard',
  'automotive_design',2000,#2);
#2 = APPLICATION_CONTEXT(
  'core data for automotive mechanical design processes');
#3 = SHAPE_DEFINITION_REPRESENTATION(#4,#10);
#4 = PRODUCT_DEFINITION_SHAPE('','',#5);
#5 = PRODUCT_DEFINITION('design','',#6,#9);
#6 = PRODUCT_DEFINITION_FORMATION('','',#7);
#7 = PRODUCT('Open CASCADE STEP translator 7.9 284',
  'Open CASCADE STEP translator 7.9 284','',(#8));
#8 = PRODUCT_CONTEXT('',#2,'mechanical');
#9 = PRODUCT_DEFINITION_CONTEXT('part definition',#2,'design');
#10 = ADVANCED_BREP_SHAPE_REPRESENTATION('',(#11,#15),#820);
#11 = AXIS2_PLACEMENT_3D('',#12,#13,#14);
#12 = CARTESIAN_POINT('',(0.,0.,0.));
#13 = DIRECTION('',(0.,0.,1.));
#14 = DIRECTION('',(1.,0.,-0.));
#15 = MANIFOLD_SOLID_BREP('',#16);
#16 = CLOSED_SHELL('',(#17,#136,#211,#294,#342,#532,#559,#566,#643,#693,
    #740,#787,#812));
#17 = ADVANCED_FACE('',(#18),#32,.T.);
#18 = FACE_BOUND('',#19,.T.);
#19 = EDGE_LOOP('',(#20,#55,#82,#110));
#20 = ORIENTED_EDGE('',*,*,#21,.F.);
#21 = EDGE_CURVE('',#22,#24,#26,.T.);
#22 = VERTEX_POINT('',#23);
#23 = CARTESIAN_POINT('',(-51.33280189126,532.60054557786,
    21.163444817158));
#24 = VERTEX_POINT('',#25);
#25 = CARTESIAN_POINT('',(-50.51364984699,532.60054557786,
    20.589868380788));
#26 = SURFACE_CURVE('',#27,(#31,#43),.PCURVE_S1.);
#27 = LINE('',#28,#29);
#28 = CARTESIAN_POINT('',(-271.3507700232,532.60054557785,
    175.22168464471));
#29 = VECTOR('',#30,1.);
#30 = DIRECTION('',(0.819152044289,3.693754812559E-14,-0.573576436351));
#31 = PCURVE('',#32,#37);
#32 = PLANE('',#33);
#33 = AXIS2_PLACEMENT_3D('',#34,#35,#36);
#34 = CARTESIAN_POINT('',(-156.197967318,532.60054557786,100.69476532918
    ));
#35 = DIRECTION('',(-9.770484462451E-15,1.,5.062376111184E-14));
#36 = DIRECTION('',(5.551115123197E-17,-5.062376111184E-14,1.));
#37 = DEFINITIONAL_REPRESENTATION('',(#38),#42);
#38 = LINE('',#39,#40);
#39 = CARTESIAN_POINT('',(74.52691931553,-115.1528027052));
#40 = VECTOR('',#41,1.);
#41 = DIRECTION('',(-0.573576436351,0.819152044289));
#42 = ( GEOMETRIC_REPRESENTATION_CONTEXT(2) 
PARAMETRIC_REPRESENTATION_CONTEXT() REPRESENTATION_CONTEXT('2D SPACE',''
  ) );
#43 = PCURVE('',#44,#49);
#44 = PLANE('',#45);
#45 = AXIS2_PLACEMENT_3D('',#46,#47,#48);
#46 = CARTESIAN_POINT('',(-50.51364984699,492.60054557786,
    20.589868380787));
#47 = DIRECTION('',(-0.573576436351,2.841943692947E-14,-0.819152044289)
  );
#48 = DIRECTION('',(-0.819152044289,9.541662554068E-19,0.573576436351));
#49 = DEFINITIONAL_REPRESENTATION('',(#50),#54);
#50 = LINE('',#51,#52);
#51 = CARTESIAN_POINT('',(269.59234456638,39.99999999999));
#52 = VECTOR('',#53,1.);
#53 = DIRECTION('',(-1.,3.693850229185E-14));
#54 = ( GEOMETRIC_REPRESENTATION_CONTEXT(2) 
PARAMETRIC_REPRESENTATION_CONTEXT() REPRESENTATION_CONTEXT('2D SPACE',''
  ) );
#55 = ORIENTED_EDGE('',*,*,#56,.T.);
#56 = EDGE_CURVE('',#22,#57,#59,.T.);
#57 = VERTEX_POINT('',#58);
#58 = CARTESIAN_POINT('',(-45.59703752773,532.60054557786,
    29.354965260069));
#59 = SURFACE_CURVE('',#60,(#64,#71),.PCURVE_S1.);
#60 = LINE('',#61,#62);
#61 = CARTESIAN_POINT('',(-46.42664059253,532.60054557786,
    28.170169296697));
#62 = VECTOR('',#63,1.);
#63 = DIRECTION('',(0.573576436351,-3.586443774497E-14,0.819152044289));
#64 = PCURVE('',#32,#65);
#65 = DEFINITIONAL_REPRESENTATION('',(#66),#70);
#66 = LINE('',#67,#68);
#67 = CARTESIAN_POINT('',(-72.52459603248,109.77132672546));
#68 = VECTOR('',#69,1.);
#69 = DIRECTION('',(0.819152044289,0.573576436351));
#70 = ( GEOMETRIC_REPRESENTATION_CONTEXT(2) 
PARAMETRIC_REPRESENTATION_CONTEXT() REPRESENTATION_CONTEXT('2D SPACE',''
  ) );
#71 = PCURVE('',#72,#77);
#72 = PLANE('',#73);
#73 = AXIS2_PLACEMENT_3D('',#74,#75,#76);
#74 = CARTESIAN_POINT('',(-44.38839353825,-2.910383045673E-14,
    31.081087764507));
#75 = DIRECTION('',(-0.819152044289,-0.,0.573576436351));
#76 = DIRECTION('',(-0.573576436351,0.,-0.819152044289));
#77 = DEFINITIONAL_REPRESENTATION('',(#78),#81);
#78 = B_SPLINE_CURVE_WITH_KNOTS('',1,(#79,#80),.UNSPECIFIED.,.F.,.F.,(2,
    2),(-9.253838733303,2.874516811691),.PIECEWISE_BEZIER_KNOTS.);
#79 = CARTESIAN_POINT('',(12.807414028762,-532.6005455778));
#80 = CARTESIAN_POINT('',(0.679058483768,-532.6005455778));
#81 = ( GEOMETRIC_REPRESENTATION_CONTEXT(2) 
PARAMETRIC_REPRESENTATION_CONTEXT() REPRESENTATION_CONTEXT('2D SPACE',''
  ) );
#82 = ORIENTED_EDGE('',*,*,#83,.F.);
#83 = EDGE_CURVE('',#84,#57,#86,.T.);
#84 = VERTEX_POINT('',#85);
#85 = CARTESIAN_POINT('',(-44.77788548348,532.60054557786,
    28.781388823678));
#86 = SURFACE_CURVE('',#87,(#91,#98),.PCURVE_S1.);
#87 = LINE('',#88,#89);
#88 = CARTESIAN_POINT('',(-261.8823489144,532.60054557785,
    180.79957069703));
#89 = VECTOR('',#90,1.);
#90 = DIRECTION('',(-0.819152044289,-3.704010881433E-14,0.573576436351)
  );
#91 = PCURVE('',#32,#92);
#92 = DEFINITIONAL_REPRESENTATION('',(#93),#97);
#93 = LINE('',#94,#95);
#94 = CARTESIAN_POINT('',(80.10480536785,-105.6843815964));
#95 = VECTOR('',#96,1.);
#96 = DIRECTION('',(0.573576436351,-0.819152044289));
#97 = ( GEOMETRIC_REPRESENTATION_CONTEXT(2) 
PARAMETRIC_REPRESENTATION_CONTEXT() REPRESENTATION_CONTEXT('2D SPACE',''
  ) );
#98 = PCURVE('',#99,#104);
#99 = PLANE('',#100);
#100 = AXIS2_PLACEMENT_3D('',#101,#102,#103);
#101 = CARTESIAN_POINT('',(-261.8823489144,492.60054557785,
    180.79957069703));
#102 = DIRECTION('',(0.573576436351,-2.841943692947E-14,0.819152044289)
  );
#103 = DIRECTION('',(0.819152044289,-9.541662554068E-19,-0.573576436351)
  );
#104 = DEFINITIONAL_REPRESENTATION('',(#105),#109);
#105 = LINE('',#106,#107);
#106 = CARTESIAN_POINT('',(-2.580748897707E-14,40.));
#107 = VECTOR('',#108,1.);
#108 = DIRECTION('',(-1.,-3.704106298059E-14));
#109 = ( GEOMETRIC_REPRESENTATION_CONTEXT(2) 
PARAMETRIC_REPRESENTATION_CONTEXT() REPRESENTATION_CONTEXT('2D SPACE',''
  ) );
#110 = ORIENTED_EDGE('',*,*,#111,.F.);
#111 = EDGE_CURVE('',#24,#84,#112,.T.);
#112 = SURFACE_CURVE('',#113,(#117,#124),.PCURVE_S1.);
#113 = LINE('',#114,#115);
#114 = CARTESIAN_POINT('',(-46.21176244897,532.60054557786,
    26.73360029351));
#115 = VECTOR('',#116,1.);
#116 = DIRECTION('',(0.573576436351,-2.841943692947E-14,0.819152044289)
  );
#117 = PCURVE('',#32,#118);
#118 = DEFINITIONAL_REPRESENTATION('',(#119),#123);
#119 = LINE('',#120,#121);
#120 = CARTESIAN_POINT('',(-73.96116503567,109.98620486903));
#121 = VECTOR('',#122,1.);
#122 = DIRECTION('',(0.819152044289,0.573576436351));
#123 = ( GEOMETRIC_REPRESENTATION_CONTEXT(2) 
PARAMETRIC_REPRESENTATION_CONTEXT() REPRESENTATION_CONTEXT('2D SPACE',''
  ) );
#124 = PCURVE('',#125,#130);
#125 = PLANE('',#126);
#126 = AXIS2_PLACEMENT_3D('',#127,#128,#129);
#127 = CARTESIAN_POINT('',(-46.21176244897,492.60054557786,
    26.733600293508));
#128 = DIRECTION('',(0.819152044289,3.704010881433E-14,-0.573576436351)
  );
#129 = DIRECTION('',(-0.573576436351,3.575154286195E-14,-0.819152044289)
  );
#130 = DEFINITIONAL_REPRESENTATION('',(#131),#135);
#131 = LINE('',#132,#133);
#132 = CARTESIAN_POINT('',(-2.065947822183E-13,40.));
#133 = VECTOR('',#134,1.);
#134 = DIRECTION('',(-1.,7.33210593248E-15));
#135 = ( GEOMETRIC_REPRESENTATION_CONTEXT(2) 
PARAMETRIC_REPRESENTATION_CONTEXT() REPRESENTATION_CONTEXT('2D SPACE',''
  ) );
#136 = ADVANCED_FACE('',(#137),#44,.T.);
#137 = FACE_BOUND('',#138,.T.);
#138 = EDGE_LOOP('',(#139,#169,#189,#190));
#139 = ORIENTED_EDGE('',*,*,#140,.F.);
#140 = EDGE_CURVE('',#141,#143,#145,.T.);
#141 = VERTEX_POINT('',#142);
#142 = CARTESIAN_POINT('',(-51.33280189126,497.60054557786,
    21.163444817158));
#143 = VERTEX_POINT('',#144);
#144 = CARTESIAN_POINT('',(-50.51364984699,497.60054557786,
    20.589868380787));
#145 = SURFACE_CURVE('',#146,(#150,#157),.PCURVE_S1.);
#146 = LINE('',#147,#148);
#147 = CARTESIAN_POINT('',(-104.7897657047,497.60054557786,
    58.594413849126));
#148 = VECTOR('',#149,1.);
#149 = DIRECTION('',(0.819152044289,3.718924182414E-14,-0.573576436351)
  );
#150 = PCURVE('',#44,#151);
#151 = DEFINITIONAL_REPRESENTATION('',(#152),#156);
#152 = LINE('',#153,#154);
#153 = CARTESIAN_POINT('',(66.258903015781,5.));
#154 = VECTOR('',#155,1.);
#155 = DIRECTION('',(-1.,3.71901959904E-14));
#156 = ( GEOMETRIC_REPRESENTATION_CONTEXT(2) 
PARAMETRIC_REPRESENTATION_CONTEXT() REPRESENTATION_CONTEXT('2D SPACE',''
  ) );
#157 = PCURVE('',#158,#163);
#158 = CYLINDRICAL_SURFACE('',#159,5.);
#159 = AXIS2_PLACEMENT_3D('',#160,#161,#162);
#160 = CARTESIAN_POINT('',(-101.9218835229,497.60054557786,
    62.690174070571));
#161 = DIRECTION('',(-0.819152044289,-3.718924182414E-14,0.573576436351)
  );
#162 = DIRECTION('',(-0.405579787673,-0.707106781186,-0.57922796534));
#163 = DEFINITIONAL_REPRESENTATION('',(#164),#168);
#164 = LINE('',#165,#166);
#165 = CARTESIAN_POINT('',(-0.785398163397,3.694822225953E-13));
#166 = VECTOR('',#167,1.);
#167 = DIRECTION('',(3.016049698029E-17,-1.));
#168 = ( GEOMETRIC_REPRESENTATION_CONTEXT(2) 
PARAMETRIC_REPRESENTATION_CONTEXT() REPRESENTATION_CONTEXT('2D SPACE',''
  ) );
#169 = ORIENTED_EDGE('',*,*,#170,.T.);
#170 = EDGE_CURVE('',#141,#22,#171,.T.);
#171 = SURFACE_CURVE('',#172,(#176,#183),.PCURVE_S1.);
#172 = LINE('',#173,#174);
#173 = CARTESIAN_POINT('',(-51.33280189128,246.30027278893,
    21.163444817132));
#174 = VECTOR('',#175,1.);
#175 = DIRECTION('',(1.630071935711E-14,1.,2.327983985832E-14));
#176 = PCURVE('',#44,#177);
#177 = DEFINITIONAL_REPRESENTATION('',(#178),#182);
#178 = LINE('',#179,#180);
#179 = CARTESIAN_POINT('',(0.999999999999,-246.3002727889));
#180 = VECTOR('',#181,1.);
#181 = DIRECTION('',(9.541662541967E-19,1.));
#182 = ( GEOMETRIC_REPRESENTATION_CONTEXT(2) 
PARAMETRIC_REPRESENTATION_CONTEXT() REPRESENTATION_CONTEXT('2D SPACE',''
  ) );
#183 = PCURVE('',#72,#184);
#184 = DEFINITIONAL_REPRESENTATION('',(#185),#188);
#185 = B_SPLINE_CURVE_WITH_KNOTS('',1,(#186,#187),.UNSPECIFIED.,.F.,.F.,
  (2,2),(251.30027278892,286.30027278893),.PIECEWISE_BEZIER_KNOTS.);
#186 = CARTESIAN_POINT('',(12.107206490558,-497.6005455778));
#187 = CARTESIAN_POINT('',(12.107206490557,-532.6005455778));
#188 = ( GEOMETRIC_REPRESENTATION_CONTEXT(2) 
PARAMETRIC_REPRESENTATION_CONTEXT() REPRESENTATION_CONTEXT('2D SPACE',''
  ) );
#189 = ORIENTED_EDGE('',*,*,#21,.T.);
#190 = ORIENTED_EDGE('',*,*,#191,.T.);
#191 = EDGE_CURVE('',#24,#143,#192,.T.);
#192 = SURFACE_CURVE('',#193,(#197,#204),.PCURVE_S1.);
#193 = LINE('',#194,#195);
#194 = CARTESIAN_POINT('',(-50.51364984699,492.60054557786,
    20.589868380786));
#195 = VECTOR('',#196,1.);
#196 = DIRECTION('',(9.770484462451E-15,-1.,-5.062376111184E-14));
#197 = PCURVE('',#44,#198);
#198 = DEFINITIONAL_REPRESENTATION('',(#199),#203);
#199 = LINE('',#200,#201);
#200 = CARTESIAN_POINT('',(-5.716213351208E-13,3.58938150607E-29));
#201 = VECTOR('',#202,1.);
#202 = DIRECTION('',(-3.704106298058E-14,-1.));
#203 = ( GEOMETRIC_REPRESENTATION_CONTEXT(2) 
PARAMETRIC_REPRESENTATION_CONTEXT() REPRESENTATION_CONTEXT('2D SPACE',''
  ) );
#204 = PCURVE('',#125,#205);
#205 = DEFINITIONAL_REPRESENTATION('',(#206),#210);
#206 = LINE('',#207,#208);
#207 = CARTESIAN_POINT('',(7.50011179921,-2.681405684589E-13));
#208 = VECTOR('',#209,1.);
#209 = DIRECTION('',(1.128948830162E-16,-1.));
#210 = ( GEOMETRIC_REPRESENTATION_CONTEXT(2) 
PARAMETRIC_REPRESENTATION_CONTEXT() REPRESENTATION_CONTEXT('2D SPACE',''
  ) );
#211 = ADVANCED_FACE('',(#212),#125,.T.);
#212 = FACE_BOUND('',#213,.T.);
#213 = EDGE_LOOP('',(#214,#242,#243,#244,#267));
#214 = ORIENTED_EDGE('',*,*,#215,.F.);
#215 = EDGE_CURVE('',#143,#216,#218,.T.);
#216 = VERTEX_POINT('',#217);
#217 = CARTESIAN_POINT('',(-47.64570353984,492.60054557786,
    24.685720182785));
#218 = SURFACE_CURVE('',#219,(#224,#235),.PCURVE_S1.);
#219 = CIRCLE('',#220,5.);
#220 = AXIS2_PLACEMENT_3D('',#221,#222,#223);
#221 = CARTESIAN_POINT('',(-47.64576766524,497.60054557786,
    24.685628602232));
#222 = DIRECTION('',(-0.819152044289,-3.699818229563E-14,0.573576436351)
  );
#223 = DIRECTION('',(-0.405579787673,-0.707106781186,-0.57922796534));
#224 = PCURVE('',#125,#225);
#225 = DEFINITIONAL_REPRESENTATION('',(#226),#234);
#226 = ( BOUNDED_CURVE() B_SPLINE_CURVE(2,(#227,#228,#229,#230,#231,#232
,#233),.UNSPECIFIED.,.T.,.F.) B_SPLINE_CURVE_WITH_KNOTS((1,2,2,2,2,1),(
    -2.094395102393,0.,2.094395102393,4.188790204786,6.28318530718,
8.377580409573),.UNSPECIFIED.) CURVE() GEOMETRIC_REPRESENTATION_ITEM() 
RATIONAL_B_SPLINE_CURVE((1.,0.5,1.,0.5,1.,0.5,1.)) REPRESENTATION_ITEM(
  '') );
#227 = CARTESIAN_POINT('',(6.035645705145,1.464466094067));
#228 = CARTESIAN_POINT('',(-8.807865181297E-02,-4.659258262891));
#229 = CARTESIAN_POINT('',(-2.329517332233,3.705904774487));
#230 = CARTESIAN_POINT('',(-4.570956012654,12.071067811865));
#231 = CARTESIAN_POINT('',(3.794207024724,9.829629131445));
#232 = CARTESIAN_POINT('',(12.159370062102,7.588190451026));
#233 = CARTESIAN_POINT('',(6.035645705145,1.464466094067));
#234 = ( GEOMETRIC_REPRESENTATION_CONTEXT(2) 
PARAMETRIC_REPRESENTATION_CONTEXT() REPRESENTATION_CONTEXT('2D SPACE',''
  ) );
#235 = PCURVE('',#158,#236);
#236 = DEFINITIONAL_REPRESENTATION('',(#237),#241);
#237 = LINE('',#238,#239);
#238 = CARTESIAN_POINT('',(-6.283185307179,-66.25890301574));
#239 = VECTOR('',#240,1.);
#240 = DIRECTION('',(1.,0.));
#241 = ( GEOMETRIC_REPRESENTATION_CONTEXT(2) 
PARAMETRIC_REPRESENTATION_CONTEXT() REPRESENTATION_CONTEXT('2D SPACE',''
  ) );
#242 = ORIENTED_EDGE('',*,*,#191,.F.);
#243 = ORIENTED_EDGE('',*,*,#111,.T.);
#244 = ORIENTED_EDGE('',*,*,#245,.F.);
#245 = EDGE_CURVE('',#246,#84,#248,.T.);
#246 = VERTEX_POINT('',#247);
#247 = CARTESIAN_POINT('',(-44.77788548348,497.60054557786,
    28.781388823676));
#248 = SURFACE_CURVE('',#249,(#253,#260),.PCURVE_S1.);
#249 = LINE('',#250,#251);
#250 = CARTESIAN_POINT('',(-44.77788548348,492.60054557786,
    28.781388823676));
#251 = VECTOR('',#252,1.);
#252 = DIRECTION('',(-1.404076149883E-14,1.,4.45251734741E-14));
#253 = PCURVE('',#125,#254);
#254 = DEFINITIONAL_REPRESENTATION('',(#255),#259);
#255 = LINE('',#256,#257);
#256 = CARTESIAN_POINT('',(-2.49988820079,8.937486016064E-14));
#257 = VECTOR('',#258,1.);
#258 = DIRECTION('',(7.332105932472E-15,1.));
#259 = ( GEOMETRIC_REPRESENTATION_CONTEXT(2) 
PARAMETRIC_REPRESENTATION_CONTEXT() REPRESENTATION_CONTEXT('2D SPACE',''
  ) );
#260 = PCURVE('',#99,#261);
#261 = DEFINITIONAL_REPRESENTATION('',(#262),#266);
#262 = LINE('',#263,#264);
#263 = CARTESIAN_POINT('',(265.03561206318,9.947851188679E-12));
#264 = VECTOR('',#265,1.);
#265 = DIRECTION('',(-3.704106298058E-14,1.));
#266 = ( GEOMETRIC_REPRESENTATION_CONTEXT(2) 
PARAMETRIC_REPRESENTATION_CONTEXT() REPRESENTATION_CONTEXT('2D SPACE',''
  ) );
#267 = ORIENTED_EDGE('',*,*,#268,.T.);
#268 = EDGE_CURVE('',#246,#216,#269,.T.);
#269 = SURFACE_CURVE('',#270,(#275,#282),.PCURVE_S1.);
#270 = CIRCLE('',#271,5.);
#271 = AXIS2_PLACEMENT_3D('',#272,#273,#274);
#272 = CARTESIAN_POINT('',(-47.64576766524,497.60054557786,
    24.685628602232));
#273 = DIRECTION('',(0.819152044289,3.704010881433E-14,-0.573576436351)
  );
#274 = DIRECTION('',(-0.573576436351,6.310887241768E-30,-0.819152044289)
  );
#275 = PCURVE('',#125,#276);
#276 = DEFINITIONAL_REPRESENTATION('',(#277),#281);
#277 = CIRCLE('',#278,5.);
#278 = AXIS2_PLACEMENT_2D('',#279,#280);
#279 = CARTESIAN_POINT('',(2.500111799212,5.));
#280 = DIRECTION('',(1.,-3.575154286195E-14));
#281 = ( GEOMETRIC_REPRESENTATION_CONTEXT(2) 
PARAMETRIC_REPRESENTATION_CONTEXT() REPRESENTATION_CONTEXT('2D SPACE',''
  ) );
#282 = PCURVE('',#283,#288);
#283 = CYLINDRICAL_SURFACE('',#284,5.);
#284 = AXIS2_PLACEMENT_3D('',#285,#286,#287);
#285 = CARTESIAN_POINT('',(-101.9218835229,497.60054557786,
    62.690174070571));
#286 = DIRECTION('',(-0.819152044289,-3.718924182414E-14,0.573576436351)
  );
#287 = DIRECTION('',(-0.405579787673,-0.707106781186,-0.57922796534));
#288 = DEFINITIONAL_REPRESENTATION('',(#289),#293);
#289 = LINE('',#290,#291);
#290 = CARTESIAN_POINT('',(5.497787143782,-66.2589030158));
#291 = VECTOR('',#292,1.);
#292 = DIRECTION('',(-1.,0.));
#293 = ( GEOMETRIC_REPRESENTATION_CONTEXT(2) 
PARAMETRIC_REPRESENTATION_CONTEXT() REPRESENTATION_CONTEXT('2D SPACE',''
  ) );
#294 = ADVANCED_FACE('',(#295),#99,.T.);
#295 = FACE_BOUND('',#296,.T.);
#296 = EDGE_LOOP('',(#297,#320,#321,#322));
#297 = ORIENTED_EDGE('',*,*,#298,.F.);
#298 = EDGE_CURVE('',#246,#299,#301,.T.);
#299 = VERTEX_POINT('',#300);
#300 = CARTESIAN_POINT('',(-45.59703752776,497.60054557786,
    29.354965260033));
#301 = SURFACE_CURVE('',#302,(#306,#313),.PCURVE_S1.);
#302 = LINE('',#303,#304);
#303 = CARTESIAN_POINT('',(-99.05400134122,497.60054557786,
    66.785934292016));
#304 = VECTOR('',#305,1.);
#305 = DIRECTION('',(-0.819152044289,-3.718924182414E-14,0.573576436351)
  );
#306 = PCURVE('',#99,#307);
#307 = DEFINITIONAL_REPRESENTATION('',(#308),#312);
#308 = LINE('',#309,#310);
#309 = CARTESIAN_POINT('',(198.77670904738,5.00000000001));
#310 = VECTOR('',#311,1.);
#311 = DIRECTION('',(-1.,-3.71901959904E-14));
#312 = ( GEOMETRIC_REPRESENTATION_CONTEXT(2) 
PARAMETRIC_REPRESENTATION_CONTEXT() REPRESENTATION_CONTEXT('2D SPACE',''
  ) );
#313 = PCURVE('',#283,#314);
#314 = DEFINITIONAL_REPRESENTATION('',(#315),#319);
#315 = LINE('',#316,#317);
#316 = CARTESIAN_POINT('',(2.356194490192,0.));
#317 = VECTOR('',#318,1.);
#318 = DIRECTION('',(6.032099396057E-17,1.));
#319 = ( GEOMETRIC_REPRESENTATION_CONTEXT(2) 
PARAMETRIC_REPRESENTATION_CONTEXT() REPRESENTATION_CONTEXT('2D SPACE',''
  ) );
#320 = ORIENTED_EDGE('',*,*,#245,.T.);
#321 = ORIENTED_EDGE('',*,*,#83,.T.);
#322 = ORIENTED_EDGE('',*,*,#323,.T.);
#323 = EDGE_CURVE('',#57,#299,#324,.T.);
#324 = SURFACE_CURVE('',#325,(#329,#336),.PCURVE_S1.);
#325 = LINE('',#326,#327);
#326 = CARTESIAN_POINT('',(-45.59703752774,246.30027278892,
    29.354965260063));
#327 = VECTOR('',#328,1.);
#328 = DIRECTION('',(-1.630071935711E-14,-1.,-2.327983985832E-14));
#329 = PCURVE('',#99,#330);
#330 = DEFINITIONAL_REPRESENTATION('',(#331),#335);
#331 = LINE('',#332,#333);
#332 = CARTESIAN_POINT('',(264.03561206318,-246.3002727889));
#333 = VECTOR('',#334,1.);
#334 = DIRECTION('',(9.541662541967E-19,-1.));
#335 = ( GEOMETRIC_REPRESENTATION_CONTEXT(2) 
PARAMETRIC_REPRESENTATION_CONTEXT() REPRESENTATION_CONTEXT('2D SPACE',''
  ) );
#336 = PCURVE('',#72,#337);
#337 = DEFINITIONAL_REPRESENTATION('',(#338),#341);
#338 = B_SPLINE_CURVE_WITH_KNOTS('',1,(#339,#340),.UNSPECIFIED.,.F.,.F.,
  (2,2),(-286.3002727889,-251.3002727889),.PIECEWISE_BEZIER_KNOTS.);
#339 = CARTESIAN_POINT('',(2.107206490506,-532.6005455778));
#340 = CARTESIAN_POINT('',(2.107206490507,-497.6005455778));
#341 = ( GEOMETRIC_REPRESENTATION_CONTEXT(2) 
PARAMETRIC_REPRESENTATION_CONTEXT() REPRESENTATION_CONTEXT('2D SPACE',''
  ) );
#342 = ADVANCED_FACE('',(#343,#394),#72,.T.);
#343 = FACE_BOUND('',#344,.T.);
#344 = EDGE_LOOP('',(#345,#346,#347,#371,#393));
#345 = ORIENTED_EDGE('',*,*,#56,.F.);
#346 = ORIENTED_EDGE('',*,*,#170,.F.);
#347 = ORIENTED_EDGE('',*,*,#348,.T.);
#348 = EDGE_CURVE('',#141,#349,#351,.T.);
#349 = VERTEX_POINT('',#350);
#350 = CARTESIAN_POINT('',(-48.46485558409,492.60054557785,
    25.259296619182));
#351 = SURFACE_CURVE('',#352,(#357,#364),.PCURVE_S1.);
#352 = CIRCLE('',#353,5.);
#353 = AXIS2_PLACEMENT_3D('',#354,#355,#356);
#354 = CARTESIAN_POINT('',(-48.46491970949,497.60054557786,
    25.259205038624));
#355 = DIRECTION('',(-0.819152044289,-3.724798247617E-14,0.573576436351)
  );
#356 = DIRECTION('',(-0.405579787673,-0.707106781186,-0.57922796534));
#357 = PCURVE('',#72,#358);
#358 = DEFINITIONAL_REPRESENTATION('',(#359),#363);
#359 = CIRCLE('',#360,5.);
#360 = AXIS2_PLACEMENT_2D('',#361,#362);
#361 = CARTESIAN_POINT('',(7.107206490508,-497.6005455778));
#362 = DIRECTION('',(0.707106781187,0.707106781186));
#363 = ( GEOMETRIC_REPRESENTATION_CONTEXT(2) 
PARAMETRIC_REPRESENTATION_CONTEXT() REPRESENTATION_CONTEXT('2D SPACE',''
  ) );
#364 = PCURVE('',#158,#365);
#365 = DEFINITIONAL_REPRESENTATION('',(#366),#370);
#366 = LINE('',#367,#368);
#367 = CARTESIAN_POINT('',(-6.28318530718,-65.25890301574));
#368 = VECTOR('',#369,1.);
#369 = DIRECTION('',(1.,0.));
#370 = ( GEOMETRIC_REPRESENTATION_CONTEXT(2) 
PARAMETRIC_REPRESENTATION_CONTEXT() REPRESENTATION_CONTEXT('2D SPACE',''
  ) );
#371 = ORIENTED_EDGE('',*,*,#372,.T.);
#372 = EDGE_CURVE('',#349,#299,#373,.T.);
#373 = SURFACE_CURVE('',#374,(#379,#386),.PCURVE_S1.);
#374 = CIRCLE('',#375,5.);
#375 = AXIS2_PLACEMENT_3D('',#376,#377,#378);
#376 = CARTESIAN_POINT('',(-48.46491970949,497.60054557786,
    25.259205038624));
#377 = DIRECTION('',(-0.819152044289,-3.724798247617E-14,0.573576436351)
  );
#378 = DIRECTION('',(-0.405579787673,-0.707106781186,-0.57922796534));
#379 = PCURVE('',#72,#380);
#380 = DEFINITIONAL_REPRESENTATION('',(#381),#385);
#381 = CIRCLE('',#382,5.);
#382 = AXIS2_PLACEMENT_2D('',#383,#384);
#383 = CARTESIAN_POINT('',(7.107206490508,-497.6005455778));
#384 = DIRECTION('',(0.707106781187,0.707106781186));
#385 = ( GEOMETRIC_REPRESENTATION_CONTEXT(2) 
PARAMETRIC_REPRESENTATION_CONTEXT() REPRESENTATION_CONTEXT('2D SPACE',''
  ) );
#386 = PCURVE('',#283,#387);
#387 = DEFINITIONAL_REPRESENTATION('',(#388),#392);
#388 = LINE('',#389,#390);
#389 = CARTESIAN_POINT('',(-7.069900220813E-13,-65.25890301574));
#390 = VECTOR('',#391,1.);
#391 = DIRECTION('',(1.,0.));
#392 = ( GEOMETRIC_REPRESENTATION_CONTEXT(2) 
PARAMETRIC_REPRESENTATION_CONTEXT() REPRESENTATION_CONTEXT('2D SPACE',''
  ) );
#393 = ORIENTED_EDGE('',*,*,#323,.F.);
#394 = FACE_BOUND('',#395,.T.);
#395 = EDGE_LOOP('',(#396,#427,#453,#479,#505));
#396 = ORIENTED_EDGE('',*,*,#397,.F.);
#397 = EDGE_CURVE('',#398,#400,#402,.T.);
#398 = VERTEX_POINT('',#399);
#399 = CARTESIAN_POINT('',(-50.87394074214,497.60054557785,
    21.818766452645));
#400 = VERTEX_POINT('',#401);
#401 = CARTESIAN_POINT('',(-48.46486584414,493.4005455789,
    25.259281966315));
#402 = SURFACE_CURVE('',#403,(#408,#415),.PCURVE_S1.);
#403 = CIRCLE('',#404,4.2);
#404 = AXIS2_PLACEMENT_3D('',#405,#406,#407);
#405 = CARTESIAN_POINT('',(-48.46491970949,497.60054557786,
    25.259205038624));
#406 = DIRECTION('',(-0.819152044289,-3.724798247617E-14,0.573576436351)
  );
#407 = DIRECTION('',(-0.405579787673,-0.707106781186,-0.57922796534));
#408 = PCURVE('',#72,#409);
#409 = DEFINITIONAL_REPRESENTATION('',(#410),#414);
#410 = CIRCLE('',#411,4.2);
#411 = AXIS2_PLACEMENT_2D('',#412,#413);
#412 = CARTESIAN_POINT('',(7.107206490508,-497.6005455778));
#413 = DIRECTION('',(0.707106781187,0.707106781186));
#414 = ( GEOMETRIC_REPRESENTATION_CONTEXT(2) 
PARAMETRIC_REPRESENTATION_CONTEXT() REPRESENTATION_CONTEXT('2D SPACE',''
  ) );
#415 = PCURVE('',#416,#421);
#416 = CYLINDRICAL_SURFACE('',#417,4.2);
#417 = AXIS2_PLACEMENT_3D('',#418,#419,#420);
#418 = CARTESIAN_POINT('',(-101.9218835229,497.60054557786,
    62.690174070571));
#419 = DIRECTION('',(-0.819152044289,-3.718924182414E-14,0.573576436351)
  );
#420 = DIRECTION('',(-0.405579787673,-0.707106781186,-0.57922796534));
#421 = DEFINITIONAL_REPRESENTATION('',(#422),#426);
#422 = LINE('',#423,#424);
#423 = CARTESIAN_POINT('',(-6.28318530718,-65.25890301574));
#424 = VECTOR('',#425,1.);
#425 = DIRECTION('',(1.,0.));
#426 = ( GEOMETRIC_REPRESENTATION_CONTEXT(2) 
PARAMETRIC_REPRESENTATION_CONTEXT() REPRESENTATION_CONTEXT('2D SPACE',''
  ) );
#427 = ORIENTED_EDGE('',*,*,#428,.T.);
#428 = EDGE_CURVE('',#398,#429,#431,.T.);
#429 = VERTEX_POINT('',#430);
#430 = CARTESIAN_POINT('',(-50.87394074218,531.80054557786,
    21.818766452591));
#431 = SURFACE_CURVE('',#432,(#436,#442),.PCURVE_S1.);
#432 = LINE('',#433,#434);
#433 = CARTESIAN_POINT('',(-50.87394074219,246.30027278893,
    21.818766452567));
#434 = VECTOR('',#435,1.);
#435 = DIRECTION('',(1.630071935711E-14,1.,2.327983985832E-14));
#436 = PCURVE('',#72,#437);
#437 = DEFINITIONAL_REPRESENTATION('',(#438),#441);
#438 = B_SPLINE_CURVE_WITH_KNOTS('',1,(#439,#440),.UNSPECIFIED.,.F.,.F.,
  (2,2),(251.30027278891,285.50027278893),.PIECEWISE_BEZIER_KNOTS.);
#439 = CARTESIAN_POINT('',(11.307206490553,-497.6005455778));
#440 = CARTESIAN_POINT('',(11.307206490552,-531.8005455778));
#441 = ( GEOMETRIC_REPRESENTATION_CONTEXT(2) 
PARAMETRIC_REPRESENTATION_CONTEXT() REPRESENTATION_CONTEXT('2D SPACE',''
  ) );
#442 = PCURVE('',#443,#448);
#443 = PLANE('',#444);
#444 = AXIS2_PLACEMENT_3D('',#445,#446,#447);
#445 = CARTESIAN_POINT('',(-50.0547886979,492.60054557786,
    21.245190016218));
#446 = DIRECTION('',(-0.573576436351,2.841943692947E-14,-0.819152044289)
  );
#447 = DIRECTION('',(-0.819152044289,9.541662554068E-19,0.573576436351)
  );
#448 = DEFINITIONAL_REPRESENTATION('',(#449),#452);
#449 = B_SPLINE_CURVE_WITH_KNOTS('',1,(#450,#451),.UNSPECIFIED.,.F.,.F.,
  (2,2),(251.30027278891,285.50027278893),.PIECEWISE_BEZIER_KNOTS.);
#450 = CARTESIAN_POINT('',(1.000000000007,4.999999999983));
#451 = CARTESIAN_POINT('',(1.000000000007,39.200000000002));
#452 = ( GEOMETRIC_REPRESENTATION_CONTEXT(2) 
PARAMETRIC_REPRESENTATION_CONTEXT() REPRESENTATION_CONTEXT('2D SPACE',''
  ) );
#453 = ORIENTED_EDGE('',*,*,#454,.T.);
#454 = EDGE_CURVE('',#429,#455,#457,.T.);
#455 = VERTEX_POINT('',#456);
#456 = CARTESIAN_POINT('',(-46.0558986768,531.80054557785,
    28.699643624658));
#457 = SURFACE_CURVE('',#458,(#462,#468),.PCURVE_S1.);
#458 = LINE('',#459,#460);
#459 = CARTESIAN_POINT('',(-46.42664059253,531.80054557786,
    28.170169296697));
#460 = VECTOR('',#461,1.);
#461 = DIRECTION('',(0.573576436351,-3.586443774497E-14,0.819152044289)
  );
#462 = PCURVE('',#72,#463);
#463 = DEFINITIONAL_REPRESENTATION('',(#464),#467);
#464 = B_SPLINE_CURVE_WITH_KNOTS('',1,(#465,#466),.UNSPECIFIED.,.F.,.F.,
  (2,2),(-7.893672702733,0.931998406322),.PIECEWISE_BEZIER_KNOTS.);
#465 = CARTESIAN_POINT('',(11.447247998192,-531.8005455778));
#466 = CARTESIAN_POINT('',(2.621576889137,-531.8005455778));
#467 = ( GEOMETRIC_REPRESENTATION_CONTEXT(2) 
PARAMETRIC_REPRESENTATION_CONTEXT() REPRESENTATION_CONTEXT('2D SPACE',''
  ) );
#468 = PCURVE('',#469,#474);
#469 = PLANE('',#470);
#470 = AXIS2_PLACEMENT_3D('',#471,#472,#473);
#471 = CARTESIAN_POINT('',(-156.197967318,531.80054557786,
    100.69476532918));
#472 = DIRECTION('',(-9.770484462451E-15,1.,5.062376111184E-14));
#473 = DIRECTION('',(5.551115123197E-17,-5.062376111184E-14,1.));
#474 = DEFINITIONAL_REPRESENTATION('',(#475),#478);
#475 = B_SPLINE_CURVE_WITH_KNOTS('',1,(#476,#477),.UNSPECIFIED.,.F.,.F.,
  (2,2),(-7.893672702733,0.931998406322),.PIECEWISE_BEZIER_KNOTS.);
#476 = CARTESIAN_POINT('',(-78.99071416387,105.24370206691));
#477 = CARTESIAN_POINT('',(-71.76114763267,110.30589905005));
#478 = ( GEOMETRIC_REPRESENTATION_CONTEXT(2) 
PARAMETRIC_REPRESENTATION_CONTEXT() REPRESENTATION_CONTEXT('2D SPACE',''
  ) );
#479 = ORIENTED_EDGE('',*,*,#480,.T.);
#480 = EDGE_CURVE('',#455,#481,#483,.T.);
#481 = VERTEX_POINT('',#482);
#482 = CARTESIAN_POINT('',(-46.05589867681,497.60054557785,
    28.69964362464));
#483 = SURFACE_CURVE('',#484,(#488,#494),.PCURVE_S1.);
#484 = LINE('',#485,#486);
#485 = CARTESIAN_POINT('',(-46.0558986768,246.30027278892,
    28.699643624664));
#486 = VECTOR('',#487,1.);
#487 = DIRECTION('',(-1.630071935711E-14,-1.,-2.327983985832E-14));
#488 = PCURVE('',#72,#489);
#489 = DEFINITIONAL_REPRESENTATION('',(#490),#493);
#490 = B_SPLINE_CURVE_WITH_KNOTS('',1,(#491,#492),.UNSPECIFIED.,.F.,.F.,
  (2,2),(-285.5002727889,-251.3002727889),.PIECEWISE_BEZIER_KNOTS.);
#491 = CARTESIAN_POINT('',(2.907206490467,-531.8005455778));
#492 = CARTESIAN_POINT('',(2.907206490468,-497.6005455778));
#493 = ( GEOMETRIC_REPRESENTATION_CONTEXT(2) 
PARAMETRIC_REPRESENTATION_CONTEXT() REPRESENTATION_CONTEXT('2D SPACE',''
  ) );
#494 = PCURVE('',#495,#500);
#495 = PLANE('',#496);
#496 = AXIS2_PLACEMENT_3D('',#497,#498,#499);
#497 = CARTESIAN_POINT('',(-262.3412100634,492.60054557785,
    180.14424906159));
#498 = DIRECTION('',(0.573576436351,-2.841943692947E-14,0.819152044289)
  );
#499 = DIRECTION('',(0.819152044289,-9.541662554068E-19,-0.573576436351)
  );
#500 = DEFINITIONAL_REPRESENTATION('',(#501),#504);
#501 = B_SPLINE_CURVE_WITH_KNOTS('',1,(#502,#503),.UNSPECIFIED.,.F.,.F.,
  (2,2),(-285.5002727889,-251.3002727889),.PIECEWISE_BEZIER_KNOTS.);
#502 = CARTESIAN_POINT('',(264.03561206311,39.20000000001));
#503 = CARTESIAN_POINT('',(264.03561206311,4.999999999993));
#504 = ( GEOMETRIC_REPRESENTATION_CONTEXT(2) 
PARAMETRIC_REPRESENTATION_CONTEXT() REPRESENTATION_CONTEXT('2D SPACE',''
  ) );
#505 = ORIENTED_EDGE('',*,*,#506,.F.);
#506 = EDGE_CURVE('',#400,#481,#507,.T.);
#507 = SURFACE_CURVE('',#508,(#513,#520),.PCURVE_S1.);
#508 = CIRCLE('',#509,4.2);
#509 = AXIS2_PLACEMENT_3D('',#510,#511,#512);
#510 = CARTESIAN_POINT('',(-48.46491970949,497.60054557786,
    25.259205038624));
#511 = DIRECTION('',(-0.819152044289,-3.724798247617E-14,0.573576436351)
  );
#512 = DIRECTION('',(-0.405579787673,-0.707106781186,-0.57922796534));
#513 = PCURVE('',#72,#514);
#514 = DEFINITIONAL_REPRESENTATION('',(#515),#519);
#515 = CIRCLE('',#516,4.2);
#516 = AXIS2_PLACEMENT_2D('',#517,#518);
#517 = CARTESIAN_POINT('',(7.107206490508,-497.6005455778));
#518 = DIRECTION('',(0.707106781187,0.707106781186));
#519 = ( GEOMETRIC_REPRESENTATION_CONTEXT(2) 
PARAMETRIC_REPRESENTATION_CONTEXT() REPRESENTATION_CONTEXT('2D SPACE',''
  ) );
#520 = PCURVE('',#521,#526);
#521 = CYLINDRICAL_SURFACE('',#522,4.2);
#522 = AXIS2_PLACEMENT_3D('',#523,#524,#525);
#523 = CARTESIAN_POINT('',(-101.9218835229,497.60054557786,
    62.690174070571));
#524 = DIRECTION('',(-0.819152044289,-3.718924182414E-14,0.573576436351)
  );
#525 = DIRECTION('',(-0.405579787673,-0.707106781186,-0.57922796534));
#526 = DEFINITIONAL_REPRESENTATION('',(#527),#531);
#527 = LINE('',#528,#529);
#528 = CARTESIAN_POINT('',(0.,-65.25890301574));
#529 = VECTOR('',#530,1.);
#530 = DIRECTION('',(1.,0.));
#531 = ( GEOMETRIC_REPRESENTATION_CONTEXT(2) 
PARAMETRIC_REPRESENTATION_CONTEXT() REPRESENTATION_CONTEXT('2D SPACE',''
  ) );
#532 = ADVANCED_FACE('',(#533),#158,.T.);
#533 = FACE_BOUND('',#534,.T.);
#534 = EDGE_LOOP('',(#535,#556,#557,#558));
#535 = ORIENTED_EDGE('',*,*,#536,.F.);
#536 = EDGE_CURVE('',#349,#216,#537,.T.);
#537 = SURFACE_CURVE('',#538,(#542,#549),.PCURVE_S1.);
#538 = LINE('',#539,#540);
#539 = CARTESIAN_POINT('',(-210.474051113,492.60054557785,138.6993565878
    ));
#540 = VECTOR('',#541,1.);
#541 = DIRECTION('',(0.819152044289,3.718924182414E-14,-0.573576436351)
  );
#542 = PCURVE('',#158,#543);
#543 = DEFINITIONAL_REPRESENTATION('',(#544),#548);
#544 = LINE('',#545,#546);
#545 = CARTESIAN_POINT('',(0.78542052324,132.51780603161));
#546 = VECTOR('',#547,1.);
#547 = DIRECTION('',(0.,-1.));
#548 = ( GEOMETRIC_REPRESENTATION_CONTEXT(2) 
PARAMETRIC_REPRESENTATION_CONTEXT() REPRESENTATION_CONTEXT('2D SPACE',''
  ) );
#549 = PCURVE('',#283,#550);
#550 = DEFINITIONAL_REPRESENTATION('',(#551),#555);
#551 = LINE('',#552,#553);
#552 = CARTESIAN_POINT('',(0.78542052324,132.51780603161));
#553 = VECTOR('',#554,1.);
#554 = DIRECTION('',(0.,-1.));
#555 = ( GEOMETRIC_REPRESENTATION_CONTEXT(2) 
PARAMETRIC_REPRESENTATION_CONTEXT() REPRESENTATION_CONTEXT('2D SPACE',''
  ) );
#556 = ORIENTED_EDGE('',*,*,#348,.F.);
#557 = ORIENTED_EDGE('',*,*,#140,.T.);
#558 = ORIENTED_EDGE('',*,*,#215,.T.);
#559 = ADVANCED_FACE('',(#560),#283,.T.);
#560 = FACE_BOUND('',#561,.T.);
#561 = EDGE_LOOP('',(#562,#563,#564,#565));
#562 = ORIENTED_EDGE('',*,*,#268,.F.);
#563 = ORIENTED_EDGE('',*,*,#298,.T.);
#564 = ORIENTED_EDGE('',*,*,#372,.F.);
#565 = ORIENTED_EDGE('',*,*,#536,.T.);
#566 = ADVANCED_FACE('',(#567),#416,.T.);
#567 = FACE_BOUND('',#568,.T.);
#568 = EDGE_LOOP('',(#569,#592,#621,#642));
#569 = ORIENTED_EDGE('',*,*,#570,.F.);
#570 = EDGE_CURVE('',#571,#400,#573,.T.);
#571 = VERTEX_POINT('',#572);
#572 = CARTESIAN_POINT('',(-51.7414740213,493.4005455789,27.553587711719
    ));
#573 = SURFACE_CURVE('',#574,(#578,#585),.PCURVE_S1.);
#574 = LINE('',#575,#576);
#575 = CARTESIAN_POINT('',(-210.474061373,493.4005455789,138.6993419349)
  );
#576 = VECTOR('',#577,1.);
#577 = DIRECTION('',(0.819152044289,3.718924182414E-14,-0.573576436351)
  );
#578 = PCURVE('',#416,#579);
#579 = DEFINITIONAL_REPRESENTATION('',(#580),#584);
#580 = LINE('',#581,#582);
#581 = CARTESIAN_POINT('',(0.78542052324,132.51780603161));
#582 = VECTOR('',#583,1.);
#583 = DIRECTION('',(0.,-1.));
#584 = ( GEOMETRIC_REPRESENTATION_CONTEXT(2) 
PARAMETRIC_REPRESENTATION_CONTEXT() REPRESENTATION_CONTEXT('2D SPACE',''
  ) );
#585 = PCURVE('',#521,#586);
#586 = DEFINITIONAL_REPRESENTATION('',(#587),#591);
#587 = LINE('',#588,#589);
#588 = CARTESIAN_POINT('',(0.78542052324,132.51780603161));
#589 = VECTOR('',#590,1.);
#590 = DIRECTION('',(0.,-1.));
#591 = ( GEOMETRIC_REPRESENTATION_CONTEXT(2) 
PARAMETRIC_REPRESENTATION_CONTEXT() REPRESENTATION_CONTEXT('2D SPACE',''
  ) );
#592 = ORIENTED_EDGE('',*,*,#593,.F.);
#593 = EDGE_CURVE('',#594,#571,#596,.T.);
#594 = VERTEX_POINT('',#595);
#595 = CARTESIAN_POINT('',(-54.1505489193,497.60054557785,
    24.113072198049));
#596 = SURFACE_CURVE('',#597,(#602,#609),.PCURVE_S1.);
#597 = CIRCLE('',#598,4.2);
#598 = AXIS2_PLACEMENT_3D('',#599,#600,#601);
#599 = CARTESIAN_POINT('',(-51.74152788665,497.60054557786,
    27.553510784028));
#600 = DIRECTION('',(-0.819152044289,-3.724798247617E-14,0.573576436351)
  );
#601 = DIRECTION('',(-0.405579787673,-0.707106781186,-0.57922796534));
#602 = PCURVE('',#416,#603);
#603 = DEFINITIONAL_REPRESENTATION('',(#604),#608);
#604 = LINE('',#605,#606);
#605 = CARTESIAN_POINT('',(-6.28318530718,-61.25890301574));
#606 = VECTOR('',#607,1.);
#607 = DIRECTION('',(1.,0.));
#608 = ( GEOMETRIC_REPRESENTATION_CONTEXT(2) 
PARAMETRIC_REPRESENTATION_CONTEXT() REPRESENTATION_CONTEXT('2D SPACE',''
  ) );
#609 = PCURVE('',#610,#615);
#610 = PLANE('',#611);
#611 = AXIS2_PLACEMENT_3D('',#612,#613,#614);
#612 = CARTESIAN_POINT('',(-47.66500171541,-2.910383045673E-14,
    33.375393509911));
#613 = DIRECTION('',(-0.819152044289,-0.,0.573576436351));
#614 = DIRECTION('',(-0.573576436351,0.,-0.819152044289));
#615 = DEFINITIONAL_REPRESENTATION('',(#616),#620);
#616 = CIRCLE('',#617,4.2);
#617 = AXIS2_PLACEMENT_2D('',#618,#619);
#618 = CARTESIAN_POINT('',(7.107206490508,-497.6005455778));
#619 = DIRECTION('',(0.707106781187,0.707106781186));
#620 = ( GEOMETRIC_REPRESENTATION_CONTEXT(2) 
PARAMETRIC_REPRESENTATION_CONTEXT() REPRESENTATION_CONTEXT('2D SPACE',''
  ) );
#621 = ORIENTED_EDGE('',*,*,#622,.T.);
#622 = EDGE_CURVE('',#594,#398,#623,.T.);
#623 = SURFACE_CURVE('',#624,(#628,#635),.PCURVE_S1.);
#624 = LINE('',#625,#626);
#625 = CARTESIAN_POINT('',(-104.3309045555,497.60054557785,
    59.249735484557));
#626 = VECTOR('',#627,1.);
#627 = DIRECTION('',(0.819152044289,3.718924182414E-14,-0.573576436351)
  );
#628 = PCURVE('',#416,#629);
#629 = DEFINITIONAL_REPRESENTATION('',(#630),#634);
#630 = LINE('',#631,#632);
#631 = CARTESIAN_POINT('',(-0.785398163397,3.694822225953E-13));
#632 = VECTOR('',#633,1.);
#633 = DIRECTION('',(3.016049698029E-17,-1.));
#634 = ( GEOMETRIC_REPRESENTATION_CONTEXT(2) 
PARAMETRIC_REPRESENTATION_CONTEXT() REPRESENTATION_CONTEXT('2D SPACE',''
  ) );
#635 = PCURVE('',#443,#636);
#636 = DEFINITIONAL_REPRESENTATION('',(#637),#641);
#637 = LINE('',#638,#639);
#638 = CARTESIAN_POINT('',(66.25890301569,4.99999999999));
#639 = VECTOR('',#640,1.);
#640 = DIRECTION('',(-1.,3.71901959904E-14));
#641 = ( GEOMETRIC_REPRESENTATION_CONTEXT(2) 
PARAMETRIC_REPRESENTATION_CONTEXT() REPRESENTATION_CONTEXT('2D SPACE',''
  ) );
#642 = ORIENTED_EDGE('',*,*,#397,.T.);
#643 = ADVANCED_FACE('',(#644),#521,.T.);
#644 = FACE_BOUND('',#645,.T.);
#645 = EDGE_LOOP('',(#646,#670,#671,#672));
#646 = ORIENTED_EDGE('',*,*,#647,.F.);
#647 = EDGE_CURVE('',#571,#648,#650,.T.);
#648 = VERTEX_POINT('',#649);
#649 = CARTESIAN_POINT('',(-49.33250685397,497.60054557785,
    30.993949370044));
#650 = SURFACE_CURVE('',#651,(#656,#663),.PCURVE_S1.);
#651 = CIRCLE('',#652,4.2);
#652 = AXIS2_PLACEMENT_3D('',#653,#654,#655);
#653 = CARTESIAN_POINT('',(-51.74152788665,497.60054557786,
    27.553510784028));
#654 = DIRECTION('',(-0.819152044289,-3.724798247617E-14,0.573576436351)
  );
#655 = DIRECTION('',(-0.405579787673,-0.707106781186,-0.57922796534));
#656 = PCURVE('',#521,#657);
#657 = DEFINITIONAL_REPRESENTATION('',(#658),#662);
#658 = LINE('',#659,#660);
#659 = CARTESIAN_POINT('',(0.,-61.25890301574));
#660 = VECTOR('',#661,1.);
#661 = DIRECTION('',(1.,0.));
#662 = ( GEOMETRIC_REPRESENTATION_CONTEXT(2) 
PARAMETRIC_REPRESENTATION_CONTEXT() REPRESENTATION_CONTEXT('2D SPACE',''
  ) );
#663 = PCURVE('',#610,#664);
#664 = DEFINITIONAL_REPRESENTATION('',(#665),#669);
#665 = CIRCLE('',#666,4.2);
#666 = AXIS2_PLACEMENT_2D('',#667,#668);
#667 = CARTESIAN_POINT('',(7.107206490508,-497.6005455778));
#668 = DIRECTION('',(0.707106781187,0.707106781186));
#669 = ( GEOMETRIC_REPRESENTATION_CONTEXT(2) 
PARAMETRIC_REPRESENTATION_CONTEXT() REPRESENTATION_CONTEXT('2D SPACE',''
  ) );
#670 = ORIENTED_EDGE('',*,*,#570,.T.);
#671 = ORIENTED_EDGE('',*,*,#506,.T.);
#672 = ORIENTED_EDGE('',*,*,#673,.T.);
#673 = EDGE_CURVE('',#481,#648,#674,.T.);
#674 = SURFACE_CURVE('',#675,(#679,#686),.PCURVE_S1.);
#675 = LINE('',#676,#677);
#676 = CARTESIAN_POINT('',(-99.51286249022,497.60054557785,
    66.130612656585));
#677 = VECTOR('',#678,1.);
#678 = DIRECTION('',(-0.819152044289,-3.718924182414E-14,0.573576436351)
  );
#679 = PCURVE('',#521,#680);
#680 = DEFINITIONAL_REPRESENTATION('',(#681),#685);
#681 = LINE('',#682,#683);
#682 = CARTESIAN_POINT('',(2.356194490192,0.));
#683 = VECTOR('',#684,1.);
#684 = DIRECTION('',(6.032099396057E-17,1.));
#685 = ( GEOMETRIC_REPRESENTATION_CONTEXT(2) 
PARAMETRIC_REPRESENTATION_CONTEXT() REPRESENTATION_CONTEXT('2D SPACE',''
  ) );
#686 = PCURVE('',#495,#687);
#687 = DEFINITIONAL_REPRESENTATION('',(#688),#692);
#688 = LINE('',#689,#690);
#689 = CARTESIAN_POINT('',(198.77670904737,5.));
#690 = VECTOR('',#691,1.);
#691 = DIRECTION('',(-1.,-3.71901959904E-14));
#692 = ( GEOMETRIC_REPRESENTATION_CONTEXT(2) 
PARAMETRIC_REPRESENTATION_CONTEXT() REPRESENTATION_CONTEXT('2D SPACE',''
  ) );
#693 = ADVANCED_FACE('',(#694),#495,.T.);
#694 = FACE_BOUND('',#695,.T.);
#695 = EDGE_LOOP('',(#696,#697,#698,#721));
#696 = ORIENTED_EDGE('',*,*,#673,.F.);
#697 = ORIENTED_EDGE('',*,*,#480,.F.);
#698 = ORIENTED_EDGE('',*,*,#699,.F.);
#699 = EDGE_CURVE('',#700,#455,#702,.T.);
#700 = VERTEX_POINT('',#701);
#701 = CARTESIAN_POINT('',(-49.33250685396,531.80054557785,
    30.993949370062));
#702 = SURFACE_CURVE('',#703,(#707,#714),.PCURVE_S1.);
#703 = LINE('',#704,#705);
#704 = CARTESIAN_POINT('',(-208.0650942057,531.80054557785,
    142.13970359327));
#705 = VECTOR('',#706,1.);
#706 = DIRECTION('',(0.819152044289,3.704010881432E-14,-0.573576436351)
  );
#707 = PCURVE('',#495,#708);
#708 = DEFINITIONAL_REPRESENTATION('',(#709),#713);
#709 = LINE('',#710,#711);
#710 = CARTESIAN_POINT('',(66.258903015761,39.2));
#711 = VECTOR('',#712,1.);
#712 = DIRECTION('',(1.,3.704106298058E-14));
#713 = ( GEOMETRIC_REPRESENTATION_CONTEXT(2) 
PARAMETRIC_REPRESENTATION_CONTEXT() REPRESENTATION_CONTEXT('2D SPACE',''
  ) );
#714 = PCURVE('',#469,#715);
#715 = DEFINITIONAL_REPRESENTATION('',(#716),#720);
#716 = LINE('',#717,#718);
#717 = CARTESIAN_POINT('',(41.44493826409,-51.8671268877));
#718 = VECTOR('',#719,1.);
#719 = DIRECTION('',(-0.573576436351,0.819152044289));
#720 = ( GEOMETRIC_REPRESENTATION_CONTEXT(2) 
PARAMETRIC_REPRESENTATION_CONTEXT() REPRESENTATION_CONTEXT('2D SPACE',''
  ) );
#721 = ORIENTED_EDGE('',*,*,#722,.F.);
#722 = EDGE_CURVE('',#648,#700,#723,.T.);
#723 = SURFACE_CURVE('',#724,(#728,#734),.PCURVE_S1.);
#724 = LINE('',#725,#726);
#725 = CARTESIAN_POINT('',(-49.33250685395,246.30027278892,
    30.993949370068));
#726 = VECTOR('',#727,1.);
#727 = DIRECTION('',(1.630071935711E-14,1.,2.327983985832E-14));
#728 = PCURVE('',#495,#729);
#729 = DEFINITIONAL_REPRESENTATION('',(#730),#733);
#730 = B_SPLINE_CURVE_WITH_KNOTS('',1,(#731,#732),.UNSPECIFIED.,.F.,.F.,
  (2,2),(251.30027278891,285.50027278893),.PIECEWISE_BEZIER_KNOTS.);
#731 = CARTESIAN_POINT('',(260.03561206311,4.999999999993));
#732 = CARTESIAN_POINT('',(260.03561206311,39.20000000001));
#733 = ( GEOMETRIC_REPRESENTATION_CONTEXT(2) 
PARAMETRIC_REPRESENTATION_CONTEXT() REPRESENTATION_CONTEXT('2D SPACE',''
  ) );
#734 = PCURVE('',#610,#735);
#735 = DEFINITIONAL_REPRESENTATION('',(#736),#739);
#736 = B_SPLINE_CURVE_WITH_KNOTS('',1,(#737,#738),.UNSPECIFIED.,.F.,.F.,
  (2,2),(251.30027278891,285.50027278893),.PIECEWISE_BEZIER_KNOTS.);
#737 = CARTESIAN_POINT('',(2.907206490468,-497.6005455778));
#738 = CARTESIAN_POINT('',(2.907206490467,-531.8005455778));
#739 = ( GEOMETRIC_REPRESENTATION_CONTEXT(2) 
PARAMETRIC_REPRESENTATION_CONTEXT() REPRESENTATION_CONTEXT('2D SPACE',''
  ) );
#740 = ADVANCED_FACE('',(#741),#469,.T.);
#741 = FACE_BOUND('',#742,.T.);
#742 = EDGE_LOOP('',(#743,#764,#765,#766));
#743 = ORIENTED_EDGE('',*,*,#744,.F.);
#744 = EDGE_CURVE('',#700,#745,#747,.T.);
#745 = VERTEX_POINT('',#746);
#746 = CARTESIAN_POINT('',(-54.15054891933,531.80054557786,
    24.113072197995));
#747 = SURFACE_CURVE('',#748,(#752,#758),.PCURVE_S1.);
#748 = LINE('',#749,#750);
#749 = CARTESIAN_POINT('',(-49.70324876968,531.80054557786,
    30.464475042101));
#750 = VECTOR('',#751,1.);
#751 = DIRECTION('',(-0.573576436351,3.586443774497E-14,-0.819152044289)
  );
#752 = PCURVE('',#469,#753);
#753 = DEFINITIONAL_REPRESENTATION('',(#754),#757);
#754 = B_SPLINE_CURVE_WITH_KNOTS('',1,(#755,#756),.UNSPECIFIED.,.F.,.F.,
  (2,2),(-1.446368804953,8.553631195099),.PIECEWISE_BEZIER_KNOTS.);
#755 = CARTESIAN_POINT('',(-69.0454943237,107.3243216131));
#756 = CARTESIAN_POINT('',(-77.23701476663,101.58855724956));
#757 = ( GEOMETRIC_REPRESENTATION_CONTEXT(2) 
PARAMETRIC_REPRESENTATION_CONTEXT() REPRESENTATION_CONTEXT('2D SPACE',''
  ) );
#758 = PCURVE('',#610,#759);
#759 = DEFINITIONAL_REPRESENTATION('',(#760),#763);
#760 = B_SPLINE_CURVE_WITH_KNOTS('',1,(#761,#762),.UNSPECIFIED.,.F.,.F.,
  (2,2),(-1.446368804953,8.553631195099),.PIECEWISE_BEZIER_KNOTS.);
#761 = CARTESIAN_POINT('',(2.107206490506,-531.8005455778));
#762 = CARTESIAN_POINT('',(12.107206490558,-531.8005455778));
#763 = ( GEOMETRIC_REPRESENTATION_CONTEXT(2) 
PARAMETRIC_REPRESENTATION_CONTEXT() REPRESENTATION_CONTEXT('2D SPACE',''
  ) );
#764 = ORIENTED_EDGE('',*,*,#699,.T.);
#765 = ORIENTED_EDGE('',*,*,#454,.F.);
#766 = ORIENTED_EDGE('',*,*,#767,.F.);
#767 = EDGE_CURVE('',#745,#429,#768,.T.);
#768 = SURFACE_CURVE('',#769,(#773,#780),.PCURVE_S1.);
#769 = LINE('',#770,#771);
#770 = CARTESIAN_POINT('',(-104.3309045556,531.80054557786,
    59.249735484547));
#771 = VECTOR('',#772,1.);
#772 = DIRECTION('',(0.819152044289,3.704010881432E-14,-0.573576436351)
  );
#773 = PCURVE('',#469,#774);
#774 = DEFINITIONAL_REPRESENTATION('',(#775),#779);
#775 = LINE('',#776,#777);
#776 = CARTESIAN_POINT('',(-41.44502984463,51.8670627624));
#777 = VECTOR('',#778,1.);
#778 = DIRECTION('',(-0.573576436351,0.819152044289));
#779 = ( GEOMETRIC_REPRESENTATION_CONTEXT(2) 
PARAMETRIC_REPRESENTATION_CONTEXT() REPRESENTATION_CONTEXT('2D SPACE',''
  ) );
#780 = PCURVE('',#443,#781);
#781 = DEFINITIONAL_REPRESENTATION('',(#782),#786);
#782 = LINE('',#783,#784);
#783 = CARTESIAN_POINT('',(66.258903015767,39.2));
#784 = VECTOR('',#785,1.);
#785 = DIRECTION('',(-1.,3.704106298058E-14));
#786 = ( GEOMETRIC_REPRESENTATION_CONTEXT(2) 
PARAMETRIC_REPRESENTATION_CONTEXT() REPRESENTATION_CONTEXT('2D SPACE',''
  ) );
#787 = ADVANCED_FACE('',(#788),#443,.T.);
#788 = FACE_BOUND('',#789,.T.);
#789 = EDGE_LOOP('',(#790,#809,#810,#811));
#790 = ORIENTED_EDGE('',*,*,#791,.F.);
#791 = EDGE_CURVE('',#745,#594,#792,.T.);
#792 = SURFACE_CURVE('',#793,(#797,#803),.PCURVE_S1.);
#793 = LINE('',#794,#795);
#794 = CARTESIAN_POINT('',(-54.15054891935,246.30027278893,
    24.113072197971));
#795 = VECTOR('',#796,1.);
#796 = DIRECTION('',(-1.630071935711E-14,-1.,-2.327983985832E-14));
#797 = PCURVE('',#443,#798);
#798 = DEFINITIONAL_REPRESENTATION('',(#799),#802);
#799 = B_SPLINE_CURVE_WITH_KNOTS('',1,(#800,#801),.UNSPECIFIED.,.F.,.F.,
  (2,2),(-285.5002727889,-251.3002727889),.PIECEWISE_BEZIER_KNOTS.);
#800 = CARTESIAN_POINT('',(5.000000000007,39.200000000002));
#801 = CARTESIAN_POINT('',(5.000000000007,4.999999999983));
#802 = ( GEOMETRIC_REPRESENTATION_CONTEXT(2) 
PARAMETRIC_REPRESENTATION_CONTEXT() REPRESENTATION_CONTEXT('2D SPACE',''
  ) );
#803 = PCURVE('',#610,#804);
#804 = DEFINITIONAL_REPRESENTATION('',(#805),#808);
#805 = B_SPLINE_CURVE_WITH_KNOTS('',1,(#806,#807),.UNSPECIFIED.,.F.,.F.,
  (2,2),(-285.5002727889,-251.3002727889),.PIECEWISE_BEZIER_KNOTS.);
#806 = CARTESIAN_POINT('',(11.307206490552,-531.8005455778));
#807 = CARTESIAN_POINT('',(11.307206490553,-497.6005455778));
#808 = ( GEOMETRIC_REPRESENTATION_CONTEXT(2) 
PARAMETRIC_REPRESENTATION_CONTEXT() REPRESENTATION_CONTEXT('2D SPACE',''
  ) );
#809 = ORIENTED_EDGE('',*,*,#767,.T.);
#810 = ORIENTED_EDGE('',*,*,#428,.F.);
#811 = ORIENTED_EDGE('',*,*,#622,.F.);
#812 = ADVANCED_FACE('',(#813),#610,.T.);
#813 = FACE_BOUND('',#814,.T.);
#814 = EDGE_LOOP('',(#815,#816,#817,#818,#819));
#815 = ORIENTED_EDGE('',*,*,#791,.T.);
#816 = ORIENTED_EDGE('',*,*,#593,.T.);
#817 = ORIENTED_EDGE('',*,*,#647,.T.);
#818 = ORIENTED_EDGE('',*,*,#722,.T.);
#819 = ORIENTED_EDGE('',*,*,#744,.T.);
#820 = ( GEOMETRIC_REPRESENTATION_CONTEXT(3) 
GLOBAL_UNCERTAINTY_ASSIGNED_CONTEXT((#824)) GLOBAL_UNIT_ASSIGNED_CONTEXT
((#821,#822,#823)) REPRESENTATION_CONTEXT('Context #1',
  '3D Context with UNIT and UNCERTAINTY') );
#821 = ( LENGTH_UNIT() NAMED_UNIT(*) SI_UNIT(.MILLI.,.METRE.) );
#822 = ( NAMED_UNIT(*) PLANE_ANGLE_UNIT() SI_UNIT($,.RADIAN.) );
#823 = ( NAMED_UNIT(*) SI_UNIT($,.STERADIAN.) SOLID_ANGLE_UNIT() );
#824 = UNCERTAINTY_MEASURE_WITH_UNIT(LENGTH_MEASURE(1.E-07),#821,
  'distance_accuracy_value','confusion accuracy');
#825 = PRODUCT_RELATED_PRODUCT_CATEGORY('part',$,(#7));
ENDSEC;
END-ISO-10303-21;
