ISO-10303-21;
HEADER;
FILE_DESCRIPTION(('Open CASCADE Model'),'2;1');
FILE_NAME('Open CASCADE Shape Model','2026-09-23T08:26:31',('Author'),(
    'Open CASCADE'),'Open CASCADE STEP processor 7.9','Open CASCADE 7.9'
  ,'Unknown');
FILE_SCHEMA(('AUTOMOTIVE_DESIGN { 1 0 10303 214 1 1 1 1 }'));
ENDSEC;
DATA;
#1 = APPLICATION_PROTOCOL_DEFINITION('international standard',
  'automotive_design',2000,#2);
#2 = APPLICATION_CONTEXT(
  'core data for automotive mechanical design processes');
#3 = SHAPE_DEFINITION_REPRESENTATION(#4,#10);
#4 = PRODUCT_DEFINITION_SHAPE('','',#5);
#5 = PRODUCT_DEFINITION('design','',#6,#9);
#6 = PRODUCT_DEFINITION_FORMATION('','',#7);
#7 = PRODUCT('Open CASCADE STEP translator 7.9 282',
  'Open CASCADE STEP translator 7.9 282','',(#8));
#8 = PRODUCT_CONTEXT('',#2,'mechanical');
#9 = PRODUCT_DEFINITION_CONTEXT('part definition',#2,'design');
#10 = ADVANCED_BREP_SHAPE_REPRESENTATION('',(#11,#15),#1081);
#11 = AXIS2_PLACEMENT_3D('',#12,#13,#14);
#12 = CARTESIAN_POINT('',(0.,0.,0.));
#13 = DIRECTION('',(0.,0.,1.));
#14 = DIRECTION('',(1.,0.,-0.));
#15 = MANIFOLD_SOLID_BREP('',#16);
#16 = CLOSED_SHELL('',(#17,#136,#211,#294,#342,#548,#575,#582,#656,#703,
    #802,#918,#950,#998,#1047,#1074));
#17 = ADVANCED_FACE('',(#18),#32,.F.);
#18 = FACE_BOUND('',#19,.F.);
#19 = EDGE_LOOP('',(#20,#55,#82,#110));
#20 = ORIENTED_EDGE('',*,*,#21,.F.);
#21 = EDGE_CURVE('',#22,#24,#26,.T.);
#22 = VERTEX_POINT('',#23);
#23 = CARTESIAN_POINT('',(51.332801891269,532.60054557786,
    21.163444817162));
#24 = VERTEX_POINT('',#25);
#25 = CARTESIAN_POINT('',(50.513649846999,532.60054557786,
    20.589868380788));
#26 = SURFACE_CURVE('',#27,(#31,#43),.PCURVE_S1.);
#27 = LINE('',#28,#29);
#28 = CARTESIAN_POINT('',(271.3507700232,532.60054557785,175.22168464471
    ));
#29 = VECTOR('',#30,1.);
#30 = DIRECTION('',(-0.819152044289,3.693754812559E-14,-0.573576436351)
  );
#31 = PCURVE('',#32,#37);
#32 = PLANE('',#33);
#33 = AXIS2_PLACEMENT_3D('',#34,#35,#36);
#34 = CARTESIAN_POINT('',(156.19796731802,532.60054557786,
    100.69476532918));
#35 = DIRECTION('',(-9.770484462451E-15,-1.,-5.062376111184E-14));
#36 = DIRECTION('',(-5.551115123197E-17,-5.062376111184E-14,1.));
#37 = DEFINITIONAL_REPRESENTATION('',(#38),#42);
#38 = LINE('',#39,#40);
#39 = CARTESIAN_POINT('',(74.52691931553,-115.1528027051));
#40 = VECTOR('',#41,1.);
#41 = DIRECTION('',(-0.573576436351,0.819152044289));
#42 = ( GEOMETRIC_REPRESENTATION_CONTEXT(2) 
PARAMETRIC_REPRESENTATION_CONTEXT() REPRESENTATION_CONTEXT('2D SPACE',''
  ) );
#43 = PCURVE('',#44,#49);
#44 = PLANE('',#45);
#45 = AXIS2_PLACEMENT_3D('',#46,#47,#48);
#46 = CARTESIAN_POINT('',(50.513649846998,492.60054557786,
    20.589868380787));
#47 = DIRECTION('',(-0.573576436351,-2.841943692947E-14,0.819152044289)
  );
#48 = DIRECTION('',(0.819152044289,9.541662554068E-19,0.573576436351));
#49 = DEFINITIONAL_REPRESENTATION('',(#50),#54);
#50 = LINE('',#51,#52);
#51 = CARTESIAN_POINT('',(269.59234456638,39.99999999999));
#52 = VECTOR('',#53,1.);
#53 = DIRECTION('',(-1.,3.693850229185E-14));
#54 = ( GEOMETRIC_REPRESENTATION_CONTEXT(2) 
PARAMETRIC_REPRESENTATION_CONTEXT() REPRESENTATION_CONTEXT('2D SPACE',''
  ) );
#55 = ORIENTED_EDGE('',*,*,#56,.T.);
#56 = EDGE_CURVE('',#22,#57,#59,.T.);
#57 = VERTEX_POINT('',#58);
#58 = CARTESIAN_POINT('',(45.597037527767,532.60054557786,29.35496526004
    ));
#59 = SURFACE_CURVE('',#60,(#64,#71),.PCURVE_S1.);
#60 = LINE('',#61,#62);
#61 = CARTESIAN_POINT('',(46.426640592541,532.60054557786,
    28.170169296696));
#62 = VECTOR('',#63,1.);
#63 = DIRECTION('',(-0.573576436351,-3.586443774497E-14,0.819152044289)
  );
#64 = PCURVE('',#32,#65);
#65 = DEFINITIONAL_REPRESENTATION('',(#66),#70);
#66 = LINE('',#67,#68);
#67 = CARTESIAN_POINT('',(-72.52459603248,109.77132672547));
#68 = VECTOR('',#69,1.);
#69 = DIRECTION('',(0.819152044289,0.573576436351));
#70 = ( GEOMETRIC_REPRESENTATION_CONTEXT(2) 
PARAMETRIC_REPRESENTATION_CONTEXT() REPRESENTATION_CONTEXT('2D SPACE',''
  ) );
#71 = PCURVE('',#72,#77);
#72 = PLANE('',#73);
#73 = AXIS2_PLACEMENT_3D('',#74,#75,#76);
#74 = CARTESIAN_POINT('',(44.388393538263,-2.910383045673E-14,
    31.081087764511));
#75 = DIRECTION('',(0.819152044289,0.,0.573576436351));
#76 = DIRECTION('',(-0.573576436351,0.,0.819152044289));
#77 = DEFINITIONAL_REPRESENTATION('',(#78),#81);
#78 = B_SPLINE_CURVE_WITH_KNOTS('',1,(#79,#80),.UNSPECIFIED.,.F.,.F.,(2,
    2),(-9.253838733306,2.874516811657),.PIECEWISE_BEZIER_KNOTS.);
#79 = CARTESIAN_POINT('',(-12.80741402877,-532.6005455778));
#80 = CARTESIAN_POINT('',(-0.679058483808,-532.6005455778));
#81 = ( GEOMETRIC_REPRESENTATION_CONTEXT(2) 
PARAMETRIC_REPRESENTATION_CONTEXT() REPRESENTATION_CONTEXT('2D SPACE',''
  ) );
#82 = ORIENTED_EDGE('',*,*,#83,.F.);
#83 = EDGE_CURVE('',#84,#57,#86,.T.);
#84 = VERTEX_POINT('',#85);
#85 = CARTESIAN_POINT('',(44.777885483488,532.60054557786,
    28.781388823678));
#86 = SURFACE_CURVE('',#87,(#91,#98),.PCURVE_S1.);
#87 = LINE('',#88,#89);
#88 = CARTESIAN_POINT('',(153.33011719896,532.60054557786,
    104.79047976035));
#89 = VECTOR('',#90,1.);
#90 = DIRECTION('',(0.819152044289,-3.704010881433E-14,0.573576436351));
#91 = PCURVE('',#32,#92);
#92 = DEFINITIONAL_REPRESENTATION('',(#93),#97);
#93 = LINE('',#94,#95);
#94 = CARTESIAN_POINT('',(4.09571443117,2.86785011906));
#95 = VECTOR('',#96,1.);
#96 = DIRECTION('',(0.573576436351,-0.819152044289));
#97 = ( GEOMETRIC_REPRESENTATION_CONTEXT(2) 
PARAMETRIC_REPRESENTATION_CONTEXT() REPRESENTATION_CONTEXT('2D SPACE',''
  ) );
#98 = PCURVE('',#99,#104);
#99 = PLANE('',#100);
#100 = AXIS2_PLACEMENT_3D('',#101,#102,#103);
#101 = CARTESIAN_POINT('',(261.88234891444,492.60054557785,
    180.79957069703));
#102 = DIRECTION('',(0.573576436351,2.841943692947E-14,-0.819152044289)
  );
#103 = DIRECTION('',(-0.819152044289,-9.541662554068E-19,-0.573576436351
    ));
#104 = DEFINITIONAL_REPRESENTATION('',(#105),#109);
#105 = LINE('',#106,#107);
#106 = CARTESIAN_POINT('',(132.51780603161,40.00000000001));
#107 = VECTOR('',#108,1.);
#108 = DIRECTION('',(-1.,-3.704106298059E-14));
#109 = ( GEOMETRIC_REPRESENTATION_CONTEXT(2) 
PARAMETRIC_REPRESENTATION_CONTEXT() REPRESENTATION_CONTEXT('2D SPACE',''
  ) );
#110 = ORIENTED_EDGE('',*,*,#111,.F.);
#111 = EDGE_CURVE('',#24,#84,#112,.T.);
#112 = SURFACE_CURVE('',#113,(#117,#124),.PCURVE_S1.);
#113 = LINE('',#114,#115);
#114 = CARTESIAN_POINT('',(46.211762448971,532.60054557786,
    26.73360029351));
#115 = VECTOR('',#116,1.);
#116 = DIRECTION('',(-0.573576436351,-2.841943692947E-14,0.819152044289)
  );
#117 = PCURVE('',#32,#118);
#118 = DEFINITIONAL_REPRESENTATION('',(#119),#123);
#119 = LINE('',#120,#121);
#120 = CARTESIAN_POINT('',(-73.96116503567,109.98620486904));
#121 = VECTOR('',#122,1.);
#122 = DIRECTION('',(0.819152044289,0.573576436351));
#123 = ( GEOMETRIC_REPRESENTATION_CONTEXT(2) 
PARAMETRIC_REPRESENTATION_CONTEXT() REPRESENTATION_CONTEXT('2D SPACE',''
  ) );
#124 = PCURVE('',#125,#130);
#125 = PLANE('',#126);
#126 = AXIS2_PLACEMENT_3D('',#127,#128,#129);
#127 = CARTESIAN_POINT('',(46.211762448971,492.60054557786,
    26.733600293508));
#128 = DIRECTION('',(0.819152044289,-3.704010881433E-14,0.573576436351)
  );
#129 = DIRECTION('',(0.573576436351,3.575154286195E-14,-0.819152044289)
  );
#130 = DEFINITIONAL_REPRESENTATION('',(#131),#135);
#131 = LINE('',#132,#133);
#132 = CARTESIAN_POINT('',(-2.065947822183E-13,40.));
#133 = VECTOR('',#134,1.);
#134 = DIRECTION('',(-1.,7.33210593248E-15));
#135 = ( GEOMETRIC_REPRESENTATION_CONTEXT(2) 
PARAMETRIC_REPRESENTATION_CONTEXT() REPRESENTATION_CONTEXT('2D SPACE',''
  ) );
#136 = ADVANCED_FACE('',(#137),#44,.F.);
#137 = FACE_BOUND('',#138,.F.);
#138 = EDGE_LOOP('',(#139,#169,#189,#190));
#139 = ORIENTED_EDGE('',*,*,#140,.F.);
#140 = EDGE_CURVE('',#141,#143,#145,.T.);
#141 = VERTEX_POINT('',#142);
#142 = CARTESIAN_POINT('',(51.332801891279,497.60054557786,
    21.163444817147));
#143 = VERTEX_POINT('',#144);
#144 = CARTESIAN_POINT('',(50.513649846998,497.60054557786,
    20.589868380787));
#145 = SURFACE_CURVE('',#146,(#150,#157),.PCURVE_S1.);
#146 = LINE('',#147,#148);
#147 = CARTESIAN_POINT('',(104.78976570473,497.60054557786,
    58.594413849126));
#148 = VECTOR('',#149,1.);
#149 = DIRECTION('',(-0.819152044289,3.718924182414E-14,-0.573576436351)
  );
#150 = PCURVE('',#44,#151);
#151 = DEFINITIONAL_REPRESENTATION('',(#152),#156);
#152 = LINE('',#153,#154);
#153 = CARTESIAN_POINT('',(66.258903015799,5.));
#154 = VECTOR('',#155,1.);
#155 = DIRECTION('',(-1.,3.71901959904E-14));
#156 = ( GEOMETRIC_REPRESENTATION_CONTEXT(2) 
PARAMETRIC_REPRESENTATION_CONTEXT() REPRESENTATION_CONTEXT('2D SPACE',''
  ) );
#157 = PCURVE('',#158,#163);
#158 = CYLINDRICAL_SURFACE('',#159,5.);
#159 = AXIS2_PLACEMENT_3D('',#160,#161,#162);
#160 = CARTESIAN_POINT('',(101.92188352298,497.60054557786,
    62.690174070571));
#161 = DIRECTION('',(-0.819152044289,3.718924182414E-14,-0.573576436351)
  );
#162 = DIRECTION('',(0.405579787673,-0.707106781186,-0.57922796534));
#163 = DEFINITIONAL_REPRESENTATION('',(#164),#168);
#164 = LINE('',#165,#166);
#165 = CARTESIAN_POINT('',(-0.785398163397,-3.694822225953E-13));
#166 = VECTOR('',#167,1.);
#167 = DIRECTION('',(3.016049698029E-17,1.));
#168 = ( GEOMETRIC_REPRESENTATION_CONTEXT(2) 
PARAMETRIC_REPRESENTATION_CONTEXT() REPRESENTATION_CONTEXT('2D SPACE',''
  ) );
#169 = ORIENTED_EDGE('',*,*,#170,.T.);
#170 = EDGE_CURVE('',#141,#22,#171,.T.);
#171 = SURFACE_CURVE('',#172,(#176,#183),.PCURVE_S1.);
#172 = LINE('',#173,#174);
#173 = CARTESIAN_POINT('',(51.33280189129,246.30027278893,
    21.163444817132));
#174 = VECTOR('',#175,1.);
#175 = DIRECTION('',(-1.630071935711E-14,1.,2.327983985832E-14));
#176 = PCURVE('',#44,#177);
#177 = DEFINITIONAL_REPRESENTATION('',(#178),#182);
#178 = LINE('',#179,#180);
#179 = CARTESIAN_POINT('',(0.999999999999,-246.3002727889));
#180 = VECTOR('',#181,1.);
#181 = DIRECTION('',(9.541662541967E-19,1.));
#182 = ( GEOMETRIC_REPRESENTATION_CONTEXT(2) 
PARAMETRIC_REPRESENTATION_CONTEXT() REPRESENTATION_CONTEXT('2D SPACE',''
  ) );
#183 = PCURVE('',#72,#184);
#184 = DEFINITIONAL_REPRESENTATION('',(#185),#188);
#185 = B_SPLINE_CURVE_WITH_KNOTS('',1,(#186,#187),.UNSPECIFIED.,.F.,.F.,
  (2,2),(251.30027278892,286.30027278893),.PIECEWISE_BEZIER_KNOTS.);
#186 = CARTESIAN_POINT('',(-12.10720649056,-497.6005455778));
#187 = CARTESIAN_POINT('',(-12.10720649056,-532.6005455778));
#188 = ( GEOMETRIC_REPRESENTATION_CONTEXT(2) 
PARAMETRIC_REPRESENTATION_CONTEXT() REPRESENTATION_CONTEXT('2D SPACE',''
  ) );
#189 = ORIENTED_EDGE('',*,*,#21,.T.);
#190 = ORIENTED_EDGE('',*,*,#191,.T.);
#191 = EDGE_CURVE('',#24,#143,#192,.T.);
#192 = SURFACE_CURVE('',#193,(#197,#204),.PCURVE_S1.);
#193 = LINE('',#194,#195);
#194 = CARTESIAN_POINT('',(50.513649846998,492.60054557786,
    20.589868380786));
#195 = VECTOR('',#196,1.);
#196 = DIRECTION('',(-9.770484462451E-15,-1.,-5.062376111184E-14));
#197 = PCURVE('',#44,#198);
#198 = DEFINITIONAL_REPRESENTATION('',(#199),#203);
#199 = LINE('',#200,#201);
#200 = CARTESIAN_POINT('',(-5.716213351208E-13,3.58938150607E-29));
#201 = VECTOR('',#202,1.);
#202 = DIRECTION('',(-3.704106298058E-14,-1.));
#203 = ( GEOMETRIC_REPRESENTATION_CONTEXT(2) 
PARAMETRIC_REPRESENTATION_CONTEXT() REPRESENTATION_CONTEXT('2D SPACE',''
  ) );
#204 = PCURVE('',#125,#205);
#205 = DEFINITIONAL_REPRESENTATION('',(#206),#210);
#206 = LINE('',#207,#208);
#207 = CARTESIAN_POINT('',(7.500111799214,-2.68140568459E-13));
#208 = VECTOR('',#209,1.);
#209 = DIRECTION('',(1.128948830162E-16,-1.));
#210 = ( GEOMETRIC_REPRESENTATION_CONTEXT(2) 
PARAMETRIC_REPRESENTATION_CONTEXT() REPRESENTATION_CONTEXT('2D SPACE',''
  ) );
#211 = ADVANCED_FACE('',(#212),#125,.F.);
#212 = FACE_BOUND('',#213,.T.);
#213 = EDGE_LOOP('',(#214,#242,#271,#292,#293));
#214 = ORIENTED_EDGE('',*,*,#215,.T.);
#215 = EDGE_CURVE('',#143,#216,#218,.T.);
#216 = VERTEX_POINT('',#217);
#217 = CARTESIAN_POINT('',(47.645703539848,492.60054557786,
    24.685720182785));
#218 = SURFACE_CURVE('',#219,(#224,#235),.PCURVE_S1.);
#219 = CIRCLE('',#220,5.);
#220 = AXIS2_PLACEMENT_3D('',#221,#222,#223);
#221 = CARTESIAN_POINT('',(47.645767665243,497.60054557786,
    24.685628602232));
#222 = DIRECTION('',(-0.819152044289,3.699818229563E-14,-0.573576436351)
  );
#223 = DIRECTION('',(0.405579787673,-0.707106781186,-0.57922796534));
#224 = PCURVE('',#125,#225);
#225 = DEFINITIONAL_REPRESENTATION('',(#226),#234);
#226 = ( BOUNDED_CURVE() B_SPLINE_CURVE(2,(#227,#228,#229,#230,#231,#232
,#233),.UNSPECIFIED.,.T.,.F.) B_SPLINE_CURVE_WITH_KNOTS((1,2,2,2,2,1),(
    -2.094395102393,0.,2.094395102393,4.188790204786,6.28318530718,
8.377580409573),.UNSPECIFIED.) CURVE() GEOMETRIC_REPRESENTATION_ITEM() 
RATIONAL_B_SPLINE_CURVE((1.,0.5,1.,0.5,1.,0.5,1.)) REPRESENTATION_ITEM(
  '') );
#227 = CARTESIAN_POINT('',(6.035645705146,1.464466094067));
#228 = CARTESIAN_POINT('',(-8.807865181182E-02,-4.659258262891));
#229 = CARTESIAN_POINT('',(-2.329517332232,3.705904774487));
#230 = CARTESIAN_POINT('',(-4.570956012653,12.071067811865));
#231 = CARTESIAN_POINT('',(3.794207024725,9.829629131445));
#232 = CARTESIAN_POINT('',(12.159370062104,7.588190451026));
#233 = CARTESIAN_POINT('',(6.035645705146,1.464466094067));
#234 = ( GEOMETRIC_REPRESENTATION_CONTEXT(2) 
PARAMETRIC_REPRESENTATION_CONTEXT() REPRESENTATION_CONTEXT('2D SPACE',''
  ) );
#235 = PCURVE('',#158,#236);
#236 = DEFINITIONAL_REPRESENTATION('',(#237),#241);
#237 = LINE('',#238,#239);
#238 = CARTESIAN_POINT('',(-6.283185307179,66.258903015803));
#239 = VECTOR('',#240,1.);
#240 = DIRECTION('',(1.,0.));
#241 = ( GEOMETRIC_REPRESENTATION_CONTEXT(2) 
PARAMETRIC_REPRESENTATION_CONTEXT() REPRESENTATION_CONTEXT('2D SPACE',''
  ) );
#242 = ORIENTED_EDGE('',*,*,#243,.F.);
#243 = EDGE_CURVE('',#244,#216,#246,.T.);
#244 = VERTEX_POINT('',#245);
#245 = CARTESIAN_POINT('',(44.777885483487,497.60054557786,
    28.781388823676));
#246 = SURFACE_CURVE('',#247,(#252,#259),.PCURVE_S1.);
#247 = CIRCLE('',#248,5.);
#248 = AXIS2_PLACEMENT_3D('',#249,#250,#251);
#249 = CARTESIAN_POINT('',(47.645767665243,497.60054557786,
    24.685628602232));
#250 = DIRECTION('',(0.819152044289,-3.704010881433E-14,0.573576436351)
  );
#251 = DIRECTION('',(0.573576436351,6.310887241768E-30,-0.819152044289)
  );
#252 = PCURVE('',#125,#253);
#253 = DEFINITIONAL_REPRESENTATION('',(#254),#258);
#254 = CIRCLE('',#255,5.);
#255 = AXIS2_PLACEMENT_2D('',#256,#257);
#256 = CARTESIAN_POINT('',(2.500111799213,5.));
#257 = DIRECTION('',(1.,-3.575154286195E-14));
#258 = ( GEOMETRIC_REPRESENTATION_CONTEXT(2) 
PARAMETRIC_REPRESENTATION_CONTEXT() REPRESENTATION_CONTEXT('2D SPACE',''
  ) );
#259 = PCURVE('',#260,#265);
#260 = CYLINDRICAL_SURFACE('',#261,5.);
#261 = AXIS2_PLACEMENT_3D('',#262,#263,#264);
#262 = CARTESIAN_POINT('',(101.92188352298,497.60054557786,
    62.690174070571));
#263 = DIRECTION('',(-0.819152044289,3.718924182414E-14,-0.573576436351)
  );
#264 = DIRECTION('',(0.405579787673,-0.707106781186,-0.57922796534));
#265 = DEFINITIONAL_REPRESENTATION('',(#266),#270);
#266 = LINE('',#267,#268);
#267 = CARTESIAN_POINT('',(5.497787143782,66.258903015806));
#268 = VECTOR('',#269,1.);
#269 = DIRECTION('',(-1.,0.));
#270 = ( GEOMETRIC_REPRESENTATION_CONTEXT(2) 
PARAMETRIC_REPRESENTATION_CONTEXT() REPRESENTATION_CONTEXT('2D SPACE',''
  ) );
#271 = ORIENTED_EDGE('',*,*,#272,.T.);
#272 = EDGE_CURVE('',#244,#84,#273,.T.);
#273 = SURFACE_CURVE('',#274,(#278,#285),.PCURVE_S1.);
#274 = LINE('',#275,#276);
#275 = CARTESIAN_POINT('',(44.777885483487,492.60054557786,
    28.781388823676));
#276 = VECTOR('',#277,1.);
#277 = DIRECTION('',(1.404076149883E-14,1.,4.45251734741E-14));
#278 = PCURVE('',#125,#279);
#279 = DEFINITIONAL_REPRESENTATION('',(#280),#284);
#280 = LINE('',#281,#282);
#281 = CARTESIAN_POINT('',(-2.499888200787,8.937486016052E-14));
#282 = VECTOR('',#283,1.);
#283 = DIRECTION('',(7.332105932472E-15,1.));
#284 = ( GEOMETRIC_REPRESENTATION_CONTEXT(2) 
PARAMETRIC_REPRESENTATION_CONTEXT() REPRESENTATION_CONTEXT('2D SPACE',''
  ) );
#285 = PCURVE('',#99,#286);
#286 = DEFINITIONAL_REPRESENTATION('',(#287),#291);
#287 = LINE('',#288,#289);
#288 = CARTESIAN_POINT('',(265.03561206321,9.947851188679E-12));
#289 = VECTOR('',#290,1.);
#290 = DIRECTION('',(-3.704106298058E-14,1.));
#291 = ( GEOMETRIC_REPRESENTATION_CONTEXT(2) 
PARAMETRIC_REPRESENTATION_CONTEXT() REPRESENTATION_CONTEXT('2D SPACE',''
  ) );
#292 = ORIENTED_EDGE('',*,*,#111,.F.);
#293 = ORIENTED_EDGE('',*,*,#191,.T.);
#294 = ADVANCED_FACE('',(#295),#99,.F.);
#295 = FACE_BOUND('',#296,.F.);
#296 = EDGE_LOOP('',(#297,#298,#320,#341));
#297 = ORIENTED_EDGE('',*,*,#83,.T.);
#298 = ORIENTED_EDGE('',*,*,#299,.T.);
#299 = EDGE_CURVE('',#57,#300,#302,.T.);
#300 = VERTEX_POINT('',#301);
#301 = CARTESIAN_POINT('',(45.597037527771,497.60054557786,
    29.354965260034));
#302 = SURFACE_CURVE('',#303,(#307,#314),.PCURVE_S1.);
#303 = LINE('',#304,#305);
#304 = CARTESIAN_POINT('',(45.597037527761,246.30027278892,
    29.354965260048));
#305 = VECTOR('',#306,1.);
#306 = DIRECTION('',(1.630071935711E-14,-1.,-2.327983985832E-14));
#307 = PCURVE('',#99,#308);
#308 = DEFINITIONAL_REPRESENTATION('',(#309),#313);
#309 = LINE('',#310,#311);
#310 = CARTESIAN_POINT('',(264.03561206321,-246.3002727889));
#311 = VECTOR('',#312,1.);
#312 = DIRECTION('',(9.541662541967E-19,-1.));
#313 = ( GEOMETRIC_REPRESENTATION_CONTEXT(2) 
PARAMETRIC_REPRESENTATION_CONTEXT() REPRESENTATION_CONTEXT('2D SPACE',''
  ) );
#314 = PCURVE('',#72,#315);
#315 = DEFINITIONAL_REPRESENTATION('',(#316),#319);
#316 = B_SPLINE_CURVE_WITH_KNOTS('',1,(#317,#318),.UNSPECIFIED.,.F.,.F.,
  (2,2),(-286.3002727889,-251.3002727889),.PIECEWISE_BEZIER_KNOTS.);
#317 = CARTESIAN_POINT('',(-2.107206490529,-532.6005455778));
#318 = CARTESIAN_POINT('',(-2.10720649053,-497.6005455778));
#319 = ( GEOMETRIC_REPRESENTATION_CONTEXT(2) 
PARAMETRIC_REPRESENTATION_CONTEXT() REPRESENTATION_CONTEXT('2D SPACE',''
  ) );
#320 = ORIENTED_EDGE('',*,*,#321,.T.);
#321 = EDGE_CURVE('',#300,#244,#322,.T.);
#322 = SURFACE_CURVE('',#323,(#327,#334),.PCURVE_S1.);
#323 = LINE('',#324,#325);
#324 = CARTESIAN_POINT('',(99.054001341227,497.60054557786,
    66.785934292016));
#325 = VECTOR('',#326,1.);
#326 = DIRECTION('',(-0.819152044289,3.718924182414E-14,-0.573576436351)
  );
#327 = PCURVE('',#99,#328);
#328 = DEFINITIONAL_REPRESENTATION('',(#329),#333);
#329 = LINE('',#330,#331);
#330 = CARTESIAN_POINT('',(198.7767090474,5.00000000001));
#331 = VECTOR('',#332,1.);
#332 = DIRECTION('',(1.,3.71901959904E-14));
#333 = ( GEOMETRIC_REPRESENTATION_CONTEXT(2) 
PARAMETRIC_REPRESENTATION_CONTEXT() REPRESENTATION_CONTEXT('2D SPACE',''
  ) );
#334 = PCURVE('',#260,#335);
#335 = DEFINITIONAL_REPRESENTATION('',(#336),#340);
#336 = LINE('',#337,#338);
#337 = CARTESIAN_POINT('',(2.356194490192,-2.84217094304E-14));
#338 = VECTOR('',#339,1.);
#339 = DIRECTION('',(-6.032099396057E-17,1.));
#340 = ( GEOMETRIC_REPRESENTATION_CONTEXT(2) 
PARAMETRIC_REPRESENTATION_CONTEXT() REPRESENTATION_CONTEXT('2D SPACE',''
  ) );
#341 = ORIENTED_EDGE('',*,*,#272,.T.);
#342 = ADVANCED_FACE('',(#343,#402),#72,.T.);
#343 = FACE_BOUND('',#344,.T.);
#344 = EDGE_LOOP('',(#345,#346,#347,#348,#376));
#345 = ORIENTED_EDGE('',*,*,#170,.T.);
#346 = ORIENTED_EDGE('',*,*,#56,.T.);
#347 = ORIENTED_EDGE('',*,*,#299,.T.);
#348 = ORIENTED_EDGE('',*,*,#349,.F.);
#349 = EDGE_CURVE('',#350,#300,#352,.T.);
#350 = VERTEX_POINT('',#351);
#351 = CARTESIAN_POINT('',(48.464855584137,492.60054557785,
    25.259296619137));
#352 = SURFACE_CURVE('',#353,(#358,#369),.PCURVE_S1.);
#353 = CIRCLE('',#354,5.);
#354 = AXIS2_PLACEMENT_3D('',#355,#356,#357);
#355 = CARTESIAN_POINT('',(48.464919709526,497.60054557786,
    25.25920503859));
#356 = DIRECTION('',(-0.819152044289,3.724798247617E-14,-0.573576436351)
  );
#357 = DIRECTION('',(0.405579787673,-0.707106781186,-0.57922796534));
#358 = PCURVE('',#72,#359);
#359 = DEFINITIONAL_REPRESENTATION('',(#360),#368);
#360 = ( BOUNDED_CURVE() B_SPLINE_CURVE(2,(#361,#362,#363,#364,#365,#366
,#367),.UNSPECIFIED.,.T.,.F.) B_SPLINE_CURVE_WITH_KNOTS((1,2,2,2,2,1),(
    -2.094395102393,0.,2.094395102393,4.188790204786,6.28318530718,
8.377580409573),.UNSPECIFIED.) CURVE() GEOMETRIC_REPRESENTATION_ITEM() 
RATIONAL_B_SPLINE_CURVE((1.,0.5,1.,0.5,1.,0.5,1.)) REPRESENTATION_ITEM(
  '') );
#361 = CARTESIAN_POINT('',(-10.64274039648,-494.0650116719));
#362 = CARTESIAN_POINT('',(-4.519016039536,-487.9412873149));
#363 = CARTESIAN_POINT('',(-2.277577359109,-496.3064503523));
#364 = CARTESIAN_POINT('',(-3.613867868254E-02,-504.6716133897));
#365 = CARTESIAN_POINT('',(-8.401301716062,-502.4301747093));
#366 = CARTESIAN_POINT('',(-16.76646475344,-500.1887360288));
#367 = CARTESIAN_POINT('',(-10.64274039648,-494.0650116719));
#368 = ( GEOMETRIC_REPRESENTATION_CONTEXT(2) 
PARAMETRIC_REPRESENTATION_CONTEXT() REPRESENTATION_CONTEXT('2D SPACE',''
  ) );
#369 = PCURVE('',#260,#370);
#370 = DEFINITIONAL_REPRESENTATION('',(#371),#375);
#371 = LINE('',#372,#373);
#372 = CARTESIAN_POINT('',(-7.069900220813E-13,65.258903015804));
#373 = VECTOR('',#374,1.);
#374 = DIRECTION('',(1.,0.));
#375 = ( GEOMETRIC_REPRESENTATION_CONTEXT(2) 
PARAMETRIC_REPRESENTATION_CONTEXT() REPRESENTATION_CONTEXT('2D SPACE',''
  ) );
#376 = ORIENTED_EDGE('',*,*,#377,.F.);
#377 = EDGE_CURVE('',#141,#350,#378,.T.);
#378 = SURFACE_CURVE('',#379,(#384,#395),.PCURVE_S1.);
#379 = CIRCLE('',#380,5.);
#380 = AXIS2_PLACEMENT_3D('',#381,#382,#383);
#381 = CARTESIAN_POINT('',(48.464919709526,497.60054557786,
    25.25920503859));
#382 = DIRECTION('',(-0.819152044289,3.724798247617E-14,-0.573576436351)
  );
#383 = DIRECTION('',(0.405579787673,-0.707106781186,-0.57922796534));
#384 = PCURVE('',#72,#385);
#385 = DEFINITIONAL_REPRESENTATION('',(#386),#394);
#386 = ( BOUNDED_CURVE() B_SPLINE_CURVE(2,(#387,#388,#389,#390,#391,#392
,#393),.UNSPECIFIED.,.T.,.F.) B_SPLINE_CURVE_WITH_KNOTS((1,2,2,2,2,1),(
    -2.094395102393,0.,2.094395102393,4.188790204786,6.28318530718,
8.377580409573),.UNSPECIFIED.) CURVE() GEOMETRIC_REPRESENTATION_ITEM() 
RATIONAL_B_SPLINE_CURVE((1.,0.5,1.,0.5,1.,0.5,1.)) REPRESENTATION_ITEM(
  '') );
#387 = CARTESIAN_POINT('',(-10.64274039648,-494.0650116719));
#388 = CARTESIAN_POINT('',(-4.519016039536,-487.9412873149));
#389 = CARTESIAN_POINT('',(-2.277577359109,-496.3064503523));
#390 = CARTESIAN_POINT('',(-3.613867868254E-02,-504.6716133897));
#391 = CARTESIAN_POINT('',(-8.401301716062,-502.4301747093));
#392 = CARTESIAN_POINT('',(-16.76646475344,-500.1887360288));
#393 = CARTESIAN_POINT('',(-10.64274039648,-494.0650116719));
#394 = ( GEOMETRIC_REPRESENTATION_CONTEXT(2) 
PARAMETRIC_REPRESENTATION_CONTEXT() REPRESENTATION_CONTEXT('2D SPACE',''
  ) );
#395 = PCURVE('',#158,#396);
#396 = DEFINITIONAL_REPRESENTATION('',(#397),#401);
#397 = LINE('',#398,#399);
#398 = CARTESIAN_POINT('',(-6.28318530718,65.258903015804));
#399 = VECTOR('',#400,1.);
#400 = DIRECTION('',(1.,0.));
#401 = ( GEOMETRIC_REPRESENTATION_CONTEXT(2) 
PARAMETRIC_REPRESENTATION_CONTEXT() REPRESENTATION_CONTEXT('2D SPACE',''
  ) );
#402 = FACE_BOUND('',#403,.T.);
#403 = EDGE_LOOP('',(#404,#432,#465,#498,#524));
#404 = ORIENTED_EDGE('',*,*,#405,.F.);
#405 = EDGE_CURVE('',#406,#408,#410,.T.);
#406 = VERTEX_POINT('',#407);
#407 = CARTESIAN_POINT('',(50.873940742199,497.60054557785,
    21.818766452578));
#408 = VERTEX_POINT('',#409);
#409 = CARTESIAN_POINT('',(50.873940742202,531.80054557786,
    21.818766452573));
#410 = SURFACE_CURVE('',#411,(#415,#421),.PCURVE_S1.);
#411 = LINE('',#412,#413);
#412 = CARTESIAN_POINT('',(50.873940742209,246.30027278893,
    21.818766452563));
#413 = VECTOR('',#414,1.);
#414 = DIRECTION('',(-1.630071935711E-14,1.,2.327983985832E-14));
#415 = PCURVE('',#72,#416);
#416 = DEFINITIONAL_REPRESENTATION('',(#417),#420);
#417 = B_SPLINE_CURVE_WITH_KNOTS('',1,(#418,#419),.UNSPECIFIED.,.F.,.F.,
  (2,2),(251.30027278891,285.50027278893),.PIECEWISE_BEZIER_KNOTS.);
#418 = CARTESIAN_POINT('',(-11.30720649056,-497.6005455778));
#419 = CARTESIAN_POINT('',(-11.30720649056,-531.8005455778));
#420 = ( GEOMETRIC_REPRESENTATION_CONTEXT(2) 
PARAMETRIC_REPRESENTATION_CONTEXT() REPRESENTATION_CONTEXT('2D SPACE',''
  ) );
#421 = PCURVE('',#422,#427);
#422 = PLANE('',#423);
#423 = AXIS2_PLACEMENT_3D('',#424,#425,#426);
#424 = CARTESIAN_POINT('',(50.054788697917,492.60054557786,
    21.245190016218));
#425 = DIRECTION('',(-0.573576436351,-2.841943692947E-14,0.819152044289)
  );
#426 = DIRECTION('',(0.819152044289,9.541662554068E-19,0.573576436351));
#427 = DEFINITIONAL_REPRESENTATION('',(#428),#431);
#428 = B_SPLINE_CURVE_WITH_KNOTS('',1,(#429,#430),.UNSPECIFIED.,.F.,.F.,
  (2,2),(251.30027278891,285.50027278893),.PIECEWISE_BEZIER_KNOTS.);
#429 = CARTESIAN_POINT('',(0.999999999999,4.999999999983));
#430 = CARTESIAN_POINT('',(0.999999999999,39.200000000002));
#431 = ( GEOMETRIC_REPRESENTATION_CONTEXT(2) 
PARAMETRIC_REPRESENTATION_CONTEXT() REPRESENTATION_CONTEXT('2D SPACE',''
  ) );
#432 = ORIENTED_EDGE('',*,*,#433,.T.);
#433 = EDGE_CURVE('',#406,#434,#436,.T.);
#434 = VERTEX_POINT('',#435);
#435 = CARTESIAN_POINT('',(48.464865844198,493.40054557891,
    25.259281966251));
#436 = SURFACE_CURVE('',#437,(#442,#453),.PCURVE_S1.);
#437 = CIRCLE('',#438,4.2);
#438 = AXIS2_PLACEMENT_3D('',#439,#440,#441);
#439 = CARTESIAN_POINT('',(48.464919709526,497.60054557786,
    25.25920503859));
#440 = DIRECTION('',(-0.819152044289,3.724798247617E-14,-0.573576436351)
  );
#441 = DIRECTION('',(0.405579787673,-0.707106781186,-0.57922796534));
#442 = PCURVE('',#72,#443);
#443 = DEFINITIONAL_REPRESENTATION('',(#444),#452);
#444 = ( BOUNDED_CURVE() B_SPLINE_CURVE(2,(#445,#446,#447,#448,#449,#450
,#451),.UNSPECIFIED.,.T.,.F.) B_SPLINE_CURVE_WITH_KNOTS((1,2,2,2,2,1),(
    -2.094395102393,0.,2.094395102393,4.188790204786,6.28318530718,
8.377580409573),.UNSPECIFIED.) CURVE() GEOMETRIC_REPRESENTATION_ITEM() 
RATIONAL_B_SPLINE_CURVE((1.,0.5,1.,0.5,1.,0.5,1.)) REPRESENTATION_ITEM(
  '') );
#445 = CARTESIAN_POINT('',(-10.07705497153,-494.6306970968));
#446 = CARTESIAN_POINT('',(-4.933126511699,-489.486768637));
#447 = CARTESIAN_POINT('',(-3.05031802014,-496.5135055884));
#448 = CARTESIAN_POINT('',(-1.167509528582,-503.5402425398));
#449 = CARTESIAN_POINT('',(-8.194246479981,-501.6574340482));
#450 = CARTESIAN_POINT('',(-15.22098343138,-499.7746255567));
#451 = CARTESIAN_POINT('',(-10.07705497153,-494.6306970968));
#452 = ( GEOMETRIC_REPRESENTATION_CONTEXT(2) 
PARAMETRIC_REPRESENTATION_CONTEXT() REPRESENTATION_CONTEXT('2D SPACE',''
  ) );
#453 = PCURVE('',#454,#459);
#454 = CYLINDRICAL_SURFACE('',#455,4.2);
#455 = AXIS2_PLACEMENT_3D('',#456,#457,#458);
#456 = CARTESIAN_POINT('',(101.92188352298,497.60054557786,
    62.690174070571));
#457 = DIRECTION('',(-0.819152044289,3.718924182414E-14,-0.573576436351)
  );
#458 = DIRECTION('',(0.405579787673,-0.707106781186,-0.57922796534));
#459 = DEFINITIONAL_REPRESENTATION('',(#460),#464);
#460 = LINE('',#461,#462);
#461 = CARTESIAN_POINT('',(-6.28318530718,65.258903015804));
#462 = VECTOR('',#463,1.);
#463 = DIRECTION('',(1.,0.));
#464 = ( GEOMETRIC_REPRESENTATION_CONTEXT(2) 
PARAMETRIC_REPRESENTATION_CONTEXT() REPRESENTATION_CONTEXT('2D SPACE',''
  ) );
#465 = ORIENTED_EDGE('',*,*,#466,.T.);
#466 = EDGE_CURVE('',#434,#467,#469,.T.);
#467 = VERTEX_POINT('',#468);
#468 = CARTESIAN_POINT('',(46.055898676851,497.60054557785,
    28.699643624604));
#469 = SURFACE_CURVE('',#470,(#475,#486),.PCURVE_S1.);
#470 = CIRCLE('',#471,4.2);
#471 = AXIS2_PLACEMENT_3D('',#472,#473,#474);
#472 = CARTESIAN_POINT('',(48.464919709526,497.60054557786,
    25.25920503859));
#473 = DIRECTION('',(-0.819152044289,3.724798247617E-14,-0.573576436351)
  );
#474 = DIRECTION('',(0.405579787673,-0.707106781186,-0.57922796534));
#475 = PCURVE('',#72,#476);
#476 = DEFINITIONAL_REPRESENTATION('',(#477),#485);
#477 = ( BOUNDED_CURVE() B_SPLINE_CURVE(2,(#478,#479,#480,#481,#482,#483
,#484),.UNSPECIFIED.,.T.,.F.) B_SPLINE_CURVE_WITH_KNOTS((1,2,2,2,2,1),(
    -2.094395102393,0.,2.094395102393,4.188790204786,6.28318530718,
8.377580409573),.UNSPECIFIED.) CURVE() GEOMETRIC_REPRESENTATION_ITEM() 
RATIONAL_B_SPLINE_CURVE((1.,0.5,1.,0.5,1.,0.5,1.)) REPRESENTATION_ITEM(
  '') );
#478 = CARTESIAN_POINT('',(-10.07705497153,-494.6306970968));
#479 = CARTESIAN_POINT('',(-4.933126511699,-489.486768637));
#480 = CARTESIAN_POINT('',(-3.05031802014,-496.5135055884));
#481 = CARTESIAN_POINT('',(-1.167509528582,-503.5402425398));
#482 = CARTESIAN_POINT('',(-8.194246479981,-501.6574340482));
#483 = CARTESIAN_POINT('',(-15.22098343138,-499.7746255567));
#484 = CARTESIAN_POINT('',(-10.07705497153,-494.6306970968));
#485 = ( GEOMETRIC_REPRESENTATION_CONTEXT(2) 
PARAMETRIC_REPRESENTATION_CONTEXT() REPRESENTATION_CONTEXT('2D SPACE',''
  ) );
#486 = PCURVE('',#487,#492);
#487 = CYLINDRICAL_SURFACE('',#488,4.2);
#488 = AXIS2_PLACEMENT_3D('',#489,#490,#491);
#489 = CARTESIAN_POINT('',(101.92188352298,497.60054557786,
    62.690174070571));
#490 = DIRECTION('',(-0.819152044289,3.718924182414E-14,-0.573576436351)
  );
#491 = DIRECTION('',(0.405579787673,-0.707106781186,-0.57922796534));
#492 = DEFINITIONAL_REPRESENTATION('',(#493),#497);
#493 = LINE('',#494,#495);
#494 = CARTESIAN_POINT('',(0.,65.258903015804));
#495 = VECTOR('',#496,1.);
#496 = DIRECTION('',(1.,0.));
#497 = ( GEOMETRIC_REPRESENTATION_CONTEXT(2) 
PARAMETRIC_REPRESENTATION_CONTEXT() REPRESENTATION_CONTEXT('2D SPACE',''
  ) );
#498 = ORIENTED_EDGE('',*,*,#499,.F.);
#499 = EDGE_CURVE('',#500,#467,#502,.T.);
#500 = VERTEX_POINT('',#501);
#501 = CARTESIAN_POINT('',(46.055898676839,531.80054557785,
    28.699643624622));
#502 = SURFACE_CURVE('',#503,(#507,#513),.PCURVE_S1.);
#503 = LINE('',#504,#505);
#504 = CARTESIAN_POINT('',(46.055898676846,246.30027278892,
    28.699643624612));
#505 = VECTOR('',#506,1.);
#506 = DIRECTION('',(1.630071935711E-14,-1.,-2.327983985832E-14));
#507 = PCURVE('',#72,#508);
#508 = DEFINITIONAL_REPRESENTATION('',(#509),#512);
#509 = B_SPLINE_CURVE_WITH_KNOTS('',1,(#510,#511),.UNSPECIFIED.,.F.,.F.,
  (2,2),(-285.5002727889,-251.3002727889),.PIECEWISE_BEZIER_KNOTS.);
#510 = CARTESIAN_POINT('',(-2.907206490536,-531.8005455778));
#511 = CARTESIAN_POINT('',(-2.907206490537,-497.6005455778));
#512 = ( GEOMETRIC_REPRESENTATION_CONTEXT(2) 
PARAMETRIC_REPRESENTATION_CONTEXT() REPRESENTATION_CONTEXT('2D SPACE',''
  ) );
#513 = PCURVE('',#514,#519);
#514 = PLANE('',#515);
#515 = AXIS2_PLACEMENT_3D('',#516,#517,#518);
#516 = CARTESIAN_POINT('',(262.34121006352,492.60054557785,
    180.14424906159));
#517 = DIRECTION('',(0.573576436351,2.841943692947E-14,-0.819152044289)
  );
#518 = DIRECTION('',(-0.819152044289,-9.541662554068E-19,-0.573576436351
    ));
#519 = DEFINITIONAL_REPRESENTATION('',(#520),#523);
#520 = B_SPLINE_CURVE_WITH_KNOTS('',1,(#521,#522),.UNSPECIFIED.,.F.,.F.,
  (2,2),(-285.5002727889,-251.3002727889),.PIECEWISE_BEZIER_KNOTS.);
#521 = CARTESIAN_POINT('',(264.0356120632,39.20000000001));
#522 = CARTESIAN_POINT('',(264.0356120632,4.999999999993));
#523 = ( GEOMETRIC_REPRESENTATION_CONTEXT(2) 
PARAMETRIC_REPRESENTATION_CONTEXT() REPRESENTATION_CONTEXT('2D SPACE',''
  ) );
#524 = ORIENTED_EDGE('',*,*,#525,.F.);
#525 = EDGE_CURVE('',#408,#500,#526,.T.);
#526 = SURFACE_CURVE('',#527,(#531,#537),.PCURVE_S1.);
#527 = LINE('',#528,#529);
#528 = CARTESIAN_POINT('',(46.426640592541,531.80054557786,
    28.170169296696));
#529 = VECTOR('',#530,1.);
#530 = DIRECTION('',(-0.573576436351,-3.586443774497E-14,0.819152044289)
  );
#531 = PCURVE('',#72,#532);
#532 = DEFINITIONAL_REPRESENTATION('',(#533),#536);
#533 = B_SPLINE_CURVE_WITH_KNOTS('',1,(#534,#535),.UNSPECIFIED.,.F.,.F.,
  (2,2),(-7.893672702738,0.931998406281),.PIECEWISE_BEZIER_KNOTS.);
#534 = CARTESIAN_POINT('',(-11.4472479982,-531.8005455778));
#535 = CARTESIAN_POINT('',(-2.621576889184,-531.8005455778));
#536 = ( GEOMETRIC_REPRESENTATION_CONTEXT(2) 
PARAMETRIC_REPRESENTATION_CONTEXT() REPRESENTATION_CONTEXT('2D SPACE',''
  ) );
#537 = PCURVE('',#538,#543);
#538 = PLANE('',#539);
#539 = AXIS2_PLACEMENT_3D('',#540,#541,#542);
#540 = CARTESIAN_POINT('',(156.19796731802,531.80054557786,
    100.69476532918));
#541 = DIRECTION('',(-9.770484462451E-15,-1.,-5.062376111184E-14));
#542 = DIRECTION('',(-5.551115123197E-17,-5.062376111184E-14,1.));
#543 = DEFINITIONAL_REPRESENTATION('',(#544),#547);
#544 = B_SPLINE_CURVE_WITH_KNOTS('',1,(#545,#546),.UNSPECIFIED.,.F.,.F.,
  (2,2),(-7.893672702738,0.931998406281),.PIECEWISE_BEZIER_KNOTS.);
#545 = CARTESIAN_POINT('',(-78.99071416388,105.24370206692));
#546 = CARTESIAN_POINT('',(-71.7611476327,110.30589905003));
#547 = ( GEOMETRIC_REPRESENTATION_CONTEXT(2) 
PARAMETRIC_REPRESENTATION_CONTEXT() REPRESENTATION_CONTEXT('2D SPACE',''
  ) );
#548 = ADVANCED_FACE('',(#549),#158,.T.);
#549 = FACE_BOUND('',#550,.T.);
#550 = EDGE_LOOP('',(#551,#552,#553,#574));
#551 = ORIENTED_EDGE('',*,*,#140,.F.);
#552 = ORIENTED_EDGE('',*,*,#377,.T.);
#553 = ORIENTED_EDGE('',*,*,#554,.F.);
#554 = EDGE_CURVE('',#216,#350,#555,.T.);
#555 = SURFACE_CURVE('',#556,(#560,#567),.PCURVE_S1.);
#556 = LINE('',#557,#558);
#557 = CARTESIAN_POINT('',(101.92181939759,492.60054557785,
    62.690265651117));
#558 = VECTOR('',#559,1.);
#559 = DIRECTION('',(0.819152044289,-3.718924182414E-14,0.573576436351)
  );
#560 = PCURVE('',#158,#561);
#561 = DEFINITIONAL_REPRESENTATION('',(#562),#566);
#562 = LINE('',#563,#564);
#563 = CARTESIAN_POINT('',(0.785420523238,-1.705302565824E-13));
#564 = VECTOR('',#565,1.);
#565 = DIRECTION('',(3.016049698029E-17,-1.));
#566 = ( GEOMETRIC_REPRESENTATION_CONTEXT(2) 
PARAMETRIC_REPRESENTATION_CONTEXT() REPRESENTATION_CONTEXT('2D SPACE',''
  ) );
#567 = PCURVE('',#260,#568);
#568 = DEFINITIONAL_REPRESENTATION('',(#569),#573);
#569 = LINE('',#570,#571);
#570 = CARTESIAN_POINT('',(0.785420523238,-1.705302565824E-13));
#571 = VECTOR('',#572,1.);
#572 = DIRECTION('',(3.016049698029E-17,-1.));
#573 = ( GEOMETRIC_REPRESENTATION_CONTEXT(2) 
PARAMETRIC_REPRESENTATION_CONTEXT() REPRESENTATION_CONTEXT('2D SPACE',''
  ) );
#574 = ORIENTED_EDGE('',*,*,#215,.F.);
#575 = ADVANCED_FACE('',(#576),#260,.T.);
#576 = FACE_BOUND('',#577,.T.);
#577 = EDGE_LOOP('',(#578,#579,#580,#581));
#578 = ORIENTED_EDGE('',*,*,#349,.T.);
#579 = ORIENTED_EDGE('',*,*,#321,.T.);
#580 = ORIENTED_EDGE('',*,*,#243,.T.);
#581 = ORIENTED_EDGE('',*,*,#554,.T.);
#582 = ADVANCED_FACE('',(#583),#422,.F.);
#583 = FACE_BOUND('',#584,.F.);
#584 = EDGE_LOOP('',(#585,#613,#634,#635));
#585 = ORIENTED_EDGE('',*,*,#586,.F.);
#586 = EDGE_CURVE('',#587,#589,#591,.T.);
#587 = VERTEX_POINT('',#588);
#588 = CARTESIAN_POINT('',(54.150548919358,531.80054557786,
    24.113072197978));
#589 = VERTEX_POINT('',#590);
#590 = CARTESIAN_POINT('',(54.150548919355,497.60054557785,
    24.113072197982));
#591 = SURFACE_CURVE('',#592,(#596,#602),.PCURVE_S1.);
#592 = LINE('',#593,#594);
#593 = CARTESIAN_POINT('',(54.150548919366,246.30027278893,
    24.113072197967));
#594 = VECTOR('',#595,1.);
#595 = DIRECTION('',(1.630071935711E-14,-1.,-2.327983985832E-14));
#596 = PCURVE('',#422,#597);
#597 = DEFINITIONAL_REPRESENTATION('',(#598),#601);
#598 = B_SPLINE_CURVE_WITH_KNOTS('',1,(#599,#600),.UNSPECIFIED.,.F.,.F.,
  (2,2),(-285.5002727889,-251.3002727889),.PIECEWISE_BEZIER_KNOTS.);
#599 = CARTESIAN_POINT('',(4.999999999999,39.200000000002));
#600 = CARTESIAN_POINT('',(4.999999999999,4.999999999983));
#601 = ( GEOMETRIC_REPRESENTATION_CONTEXT(2) 
PARAMETRIC_REPRESENTATION_CONTEXT() REPRESENTATION_CONTEXT('2D SPACE',''
  ) );
#602 = PCURVE('',#603,#608);
#603 = PLANE('',#604);
#604 = AXIS2_PLACEMENT_3D('',#605,#606,#607);
#605 = CARTESIAN_POINT('',(47.665001715419,-2.910383045673E-14,
    33.375393509915));
#606 = DIRECTION('',(0.819152044289,0.,0.573576436351));
#607 = DIRECTION('',(-0.573576436351,0.,0.819152044289));
#608 = DEFINITIONAL_REPRESENTATION('',(#609),#612);
#609 = B_SPLINE_CURVE_WITH_KNOTS('',1,(#610,#611),.UNSPECIFIED.,.F.,.F.,
  (2,2),(-285.5002727889,-251.3002727889),.PIECEWISE_BEZIER_KNOTS.);
#610 = CARTESIAN_POINT('',(-11.30720649056,-531.8005455778));
#611 = CARTESIAN_POINT('',(-11.30720649056,-497.6005455778));
#612 = ( GEOMETRIC_REPRESENTATION_CONTEXT(2) 
PARAMETRIC_REPRESENTATION_CONTEXT() REPRESENTATION_CONTEXT('2D SPACE',''
  ) );
#613 = ORIENTED_EDGE('',*,*,#614,.T.);
#614 = EDGE_CURVE('',#587,#408,#615,.T.);
#615 = SURFACE_CURVE('',#616,(#620,#627),.PCURVE_S1.);
#616 = LINE('',#617,#618);
#617 = CARTESIAN_POINT('',(104.33090455565,531.80054557786,
    59.24973548455));
#618 = VECTOR('',#619,1.);
#619 = DIRECTION('',(-0.819152044289,3.704010881432E-14,-0.573576436351)
  );
#620 = PCURVE('',#422,#621);
#621 = DEFINITIONAL_REPRESENTATION('',(#622),#626);
#622 = LINE('',#623,#624);
#623 = CARTESIAN_POINT('',(66.258903015795,39.2));
#624 = VECTOR('',#625,1.);
#625 = DIRECTION('',(-1.,3.704106298058E-14));
#626 = ( GEOMETRIC_REPRESENTATION_CONTEXT(2) 
PARAMETRIC_REPRESENTATION_CONTEXT() REPRESENTATION_CONTEXT('2D SPACE',''
  ) );
#627 = PCURVE('',#538,#628);
#628 = DEFINITIONAL_REPRESENTATION('',(#629),#633);
#629 = LINE('',#630,#631);
#630 = CARTESIAN_POINT('',(-41.44502984463,51.86706276237));
#631 = VECTOR('',#632,1.);
#632 = DIRECTION('',(-0.573576436351,0.819152044289));
#633 = ( GEOMETRIC_REPRESENTATION_CONTEXT(2) 
PARAMETRIC_REPRESENTATION_CONTEXT() REPRESENTATION_CONTEXT('2D SPACE',''
  ) );
#634 = ORIENTED_EDGE('',*,*,#405,.F.);
#635 = ORIENTED_EDGE('',*,*,#636,.F.);
#636 = EDGE_CURVE('',#589,#406,#637,.T.);
#637 = SURFACE_CURVE('',#638,(#642,#649),.PCURVE_S1.);
#638 = LINE('',#639,#640);
#639 = CARTESIAN_POINT('',(104.33090455565,497.60054557785,
    59.249735484557));
#640 = VECTOR('',#641,1.);
#641 = DIRECTION('',(-0.819152044289,3.718924182414E-14,-0.573576436351)
  );
#642 = PCURVE('',#422,#643);
#643 = DEFINITIONAL_REPRESENTATION('',(#644),#648);
#644 = LINE('',#645,#646);
#645 = CARTESIAN_POINT('',(66.258903015799,4.99999999999));
#646 = VECTOR('',#647,1.);
#647 = DIRECTION('',(-1.,3.71901959904E-14));
#648 = ( GEOMETRIC_REPRESENTATION_CONTEXT(2) 
PARAMETRIC_REPRESENTATION_CONTEXT() REPRESENTATION_CONTEXT('2D SPACE',''
  ) );
#649 = PCURVE('',#454,#650);
#650 = DEFINITIONAL_REPRESENTATION('',(#651),#655);
#651 = LINE('',#652,#653);
#652 = CARTESIAN_POINT('',(-0.785398163397,-3.694822225953E-13));
#653 = VECTOR('',#654,1.);
#654 = DIRECTION('',(3.016049698029E-17,1.));
#655 = ( GEOMETRIC_REPRESENTATION_CONTEXT(2) 
PARAMETRIC_REPRESENTATION_CONTEXT() REPRESENTATION_CONTEXT('2D SPACE',''
  ) );
#656 = ADVANCED_FACE('',(#657),#538,.F.);
#657 = FACE_BOUND('',#658,.F.);
#658 = EDGE_LOOP('',(#659,#682,#683,#684));
#659 = ORIENTED_EDGE('',*,*,#660,.F.);
#660 = EDGE_CURVE('',#500,#661,#663,.T.);
#661 = VERTEX_POINT('',#662);
#662 = CARTESIAN_POINT('',(49.332506853995,531.80054557785,
    30.993949370026));
#663 = SURFACE_CURVE('',#664,(#668,#675),.PCURVE_S1.);
#664 = LINE('',#665,#666);
#665 = CARTESIAN_POINT('',(208.06509420577,531.80054557785,
    142.13970359326));
#666 = VECTOR('',#667,1.);
#667 = DIRECTION('',(0.819152044289,-3.704010881432E-14,0.573576436351)
  );
#668 = PCURVE('',#538,#669);
#669 = DEFINITIONAL_REPRESENTATION('',(#670),#674);
#670 = LINE('',#671,#672);
#671 = CARTESIAN_POINT('',(41.44493826408,-51.86712688775));
#672 = VECTOR('',#673,1.);
#673 = DIRECTION('',(0.573576436351,-0.819152044289));
#674 = ( GEOMETRIC_REPRESENTATION_CONTEXT(2) 
PARAMETRIC_REPRESENTATION_CONTEXT() REPRESENTATION_CONTEXT('2D SPACE',''
  ) );
#675 = PCURVE('',#514,#676);
#676 = DEFINITIONAL_REPRESENTATION('',(#677),#681);
#677 = LINE('',#678,#679);
#678 = CARTESIAN_POINT('',(66.258903015808,39.2));
#679 = VECTOR('',#680,1.);
#680 = DIRECTION('',(-1.,-3.704106298058E-14));
#681 = ( GEOMETRIC_REPRESENTATION_CONTEXT(2) 
PARAMETRIC_REPRESENTATION_CONTEXT() REPRESENTATION_CONTEXT('2D SPACE',''
  ) );
#682 = ORIENTED_EDGE('',*,*,#525,.F.);
#683 = ORIENTED_EDGE('',*,*,#614,.F.);
#684 = ORIENTED_EDGE('',*,*,#685,.F.);
#685 = EDGE_CURVE('',#661,#587,#686,.T.);
#686 = SURFACE_CURVE('',#687,(#691,#697),.PCURVE_S1.);
#687 = LINE('',#688,#689);
#688 = CARTESIAN_POINT('',(49.703248769697,531.80054557786,30.4644750421
    ));
#689 = VECTOR('',#690,1.);
#690 = DIRECTION('',(0.573576436351,3.586443774497E-14,-0.819152044289)
  );
#691 = PCURVE('',#538,#692);
#692 = DEFINITIONAL_REPRESENTATION('',(#693),#696);
#693 = B_SPLINE_CURVE_WITH_KNOTS('',1,(#694,#695),.UNSPECIFIED.,.F.,.F.,
  (2,2),(-1.446368804936,8.553631195098),.PIECEWISE_BEZIER_KNOTS.);
#694 = CARTESIAN_POINT('',(-69.04549432372,107.3243216131));
#695 = CARTESIAN_POINT('',(-77.23701476663,101.58855724957));
#696 = ( GEOMETRIC_REPRESENTATION_CONTEXT(2) 
PARAMETRIC_REPRESENTATION_CONTEXT() REPRESENTATION_CONTEXT('2D SPACE',''
  ) );
#697 = PCURVE('',#603,#698);
#698 = DEFINITIONAL_REPRESENTATION('',(#699),#702);
#699 = B_SPLINE_CURVE_WITH_KNOTS('',1,(#700,#701),.UNSPECIFIED.,.F.,.F.,
  (2,2),(-1.446368804936,8.553631195098),.PIECEWISE_BEZIER_KNOTS.);
#700 = CARTESIAN_POINT('',(-2.107206490529,-531.8005455778));
#701 = CARTESIAN_POINT('',(-12.10720649056,-531.8005455778));
#702 = ( GEOMETRIC_REPRESENTATION_CONTEXT(2) 
PARAMETRIC_REPRESENTATION_CONTEXT() REPRESENTATION_CONTEXT('2D SPACE',''
  ) );
#703 = ADVANCED_FACE('',(#704),#514,.F.);
#704 = FACE_BOUND('',#705,.F.);
#705 = EDGE_LOOP('',(#706,#734,#755,#756,#757,#778));
#706 = ORIENTED_EDGE('',*,*,#707,.T.);
#707 = EDGE_CURVE('',#708,#710,#712,.T.);
#708 = VERTEX_POINT('',#709);
#709 = CARTESIAN_POINT('',(48.,509.,30.060918026137));
#710 = VERTEX_POINT('',#711);
#711 = CARTESIAN_POINT('',(48.,497.60054557785,30.060918026116));
#712 = SURFACE_CURVE('',#713,(#717,#723),.PCURVE_S1.);
#713 = LINE('',#714,#715);
#714 = CARTESIAN_POINT('',(48.,495.30027278892,30.060918026136));
#715 = VECTOR('',#716,1.);
#716 = DIRECTION('',(0.,-1.,-3.469372643041E-14));
#717 = PCURVE('',#514,#718);
#718 = DEFINITIONAL_REPRESENTATION('',(#719),#722);
#719 = B_SPLINE_CURVE_WITH_KNOTS('',1,(#720,#721),.UNSPECIFIED.,.F.,.F.,
  (2,2),(-13.69972721107,-2.300272788915),.PIECEWISE_BEZIER_KNOTS.);
#720 = CARTESIAN_POINT('',(261.66230256991,16.39945442215));
#721 = CARTESIAN_POINT('',(261.66230256991,4.999999999993));
#722 = ( GEOMETRIC_REPRESENTATION_CONTEXT(2) 
PARAMETRIC_REPRESENTATION_CONTEXT() REPRESENTATION_CONTEXT('2D SPACE',''
  ) );
#723 = PCURVE('',#724,#729);
#724 = PLANE('',#725);
#725 = AXIS2_PLACEMENT_3D('',#726,#727,#728);
#726 = CARTESIAN_POINT('',(48.,498.,33.31245228));
#727 = DIRECTION('',(1.,0.,0.));
#728 = DIRECTION('',(-0.,0.,1.));
#729 = DEFINITIONAL_REPRESENTATION('',(#730),#733);
#730 = B_SPLINE_CURVE_WITH_KNOTS('',1,(#731,#732),.UNSPECIFIED.,.F.,.F.,
  (2,2),(-13.69972721107,-2.300272788915),.PIECEWISE_BEZIER_KNOTS.);
#731 = CARTESIAN_POINT('',(-3.251534253863,-11.));
#732 = CARTESIAN_POINT('',(-3.251534253864,0.399454422157));
#733 = ( GEOMETRIC_REPRESENTATION_CONTEXT(2) 
PARAMETRIC_REPRESENTATION_CONTEXT() REPRESENTATION_CONTEXT('2D SPACE',''
  ) );
#734 = ORIENTED_EDGE('',*,*,#735,.T.);
#735 = EDGE_CURVE('',#710,#467,#736,.T.);
#736 = SURFACE_CURVE('',#737,(#741,#748),.PCURVE_S1.);
#737 = LINE('',#738,#739);
#738 = CARTESIAN_POINT('',(99.512862490306,497.60054557785,
    66.130612656585));
#739 = VECTOR('',#740,1.);
#740 = DIRECTION('',(-0.819152044289,3.718924182414E-14,-0.573576436351)
  );
#741 = PCURVE('',#514,#742);
#742 = DEFINITIONAL_REPRESENTATION('',(#743),#747);
#743 = LINE('',#744,#745);
#744 = CARTESIAN_POINT('',(198.7767090474,5.));
#745 = VECTOR('',#746,1.);
#746 = DIRECTION('',(1.,3.71901959904E-14));
#747 = ( GEOMETRIC_REPRESENTATION_CONTEXT(2) 
PARAMETRIC_REPRESENTATION_CONTEXT() REPRESENTATION_CONTEXT('2D SPACE',''
  ) );
#748 = PCURVE('',#487,#749);
#749 = DEFINITIONAL_REPRESENTATION('',(#750),#754);
#750 = LINE('',#751,#752);
#751 = CARTESIAN_POINT('',(2.356194490192,-2.84217094304E-14));
#752 = VECTOR('',#753,1.);
#753 = DIRECTION('',(-6.032099396057E-17,1.));
#754 = ( GEOMETRIC_REPRESENTATION_CONTEXT(2) 
PARAMETRIC_REPRESENTATION_CONTEXT() REPRESENTATION_CONTEXT('2D SPACE',''
  ) );
#755 = ORIENTED_EDGE('',*,*,#499,.F.);
#756 = ORIENTED_EDGE('',*,*,#660,.T.);
#757 = ORIENTED_EDGE('',*,*,#758,.F.);
#758 = EDGE_CURVE('',#759,#661,#761,.T.);
#759 = VERTEX_POINT('',#760);
#760 = CARTESIAN_POINT('',(49.332506853998,509.,30.993949370022));
#761 = SURFACE_CURVE('',#762,(#766,#772),.PCURVE_S1.);
#762 = LINE('',#763,#764);
#763 = CARTESIAN_POINT('',(49.332506854002,246.30027278892,
    30.993949370016));
#764 = VECTOR('',#765,1.);
#765 = DIRECTION('',(-1.630071935711E-14,1.,2.327983985832E-14));
#766 = PCURVE('',#514,#767);
#767 = DEFINITIONAL_REPRESENTATION('',(#768),#771);
#768 = B_SPLINE_CURVE_WITH_KNOTS('',1,(#769,#770),.UNSPECIFIED.,.F.,.F.,
  (2,2),(251.30027278891,285.50027278893),.PIECEWISE_BEZIER_KNOTS.);
#769 = CARTESIAN_POINT('',(260.0356120632,4.999999999993));
#770 = CARTESIAN_POINT('',(260.0356120632,39.20000000001));
#771 = ( GEOMETRIC_REPRESENTATION_CONTEXT(2) 
PARAMETRIC_REPRESENTATION_CONTEXT() REPRESENTATION_CONTEXT('2D SPACE',''
  ) );
#772 = PCURVE('',#603,#773);
#773 = DEFINITIONAL_REPRESENTATION('',(#774),#777);
#774 = B_SPLINE_CURVE_WITH_KNOTS('',1,(#775,#776),.UNSPECIFIED.,.F.,.F.,
  (2,2),(251.30027278891,285.50027278893),.PIECEWISE_BEZIER_KNOTS.);
#775 = CARTESIAN_POINT('',(-2.907206490537,-497.6005455778));
#776 = CARTESIAN_POINT('',(-2.907206490536,-531.8005455778));
#777 = ( GEOMETRIC_REPRESENTATION_CONTEXT(2) 
PARAMETRIC_REPRESENTATION_CONTEXT() REPRESENTATION_CONTEXT('2D SPACE',''
  ) );
#778 = ORIENTED_EDGE('',*,*,#779,.T.);
#779 = EDGE_CURVE('',#759,#708,#780,.T.);
#780 = SURFACE_CURVE('',#781,(#785,#791),.PCURVE_S1.);
#781 = LINE('',#782,#783);
#782 = CARTESIAN_POINT('',(158.9033719495,509.,107.71629507804));
#783 = VECTOR('',#784,1.);
#784 = DIRECTION('',(-0.819152044289,-0.,-0.573576436351));
#785 = PCURVE('',#514,#786);
#786 = DEFINITIONAL_REPRESENTATION('',(#787),#790);
#787 = B_SPLINE_CURVE_WITH_KNOTS('',1,(#788,#789),.UNSPECIFIED.,.F.,.F.,
  (2,2),(121.87363072785,135.3880182839),.PIECEWISE_BEZIER_KNOTS.);
#788 = CARTESIAN_POINT('',(248.14791501387,16.39945442215));
#789 = CARTESIAN_POINT('',(261.66230256991,16.39945442215));
#790 = ( GEOMETRIC_REPRESENTATION_CONTEXT(2) 
PARAMETRIC_REPRESENTATION_CONTEXT() REPRESENTATION_CONTEXT('2D SPACE',''
  ) );
#791 = PCURVE('',#792,#797);
#792 = PLANE('',#793);
#793 = AXIS2_PLACEMENT_3D('',#794,#795,#796);
#794 = CARTESIAN_POINT('',(60.,509.,28.81245228));
#795 = DIRECTION('',(0.,-1.,0.));
#796 = DIRECTION('',(0.,0.,1.));
#797 = DEFINITIONAL_REPRESENTATION('',(#798),#801);
#798 = B_SPLINE_CURVE_WITH_KNOTS('',1,(#799,#800),.UNSPECIFIED.,.F.,.F.,
  (2,2),(121.87363072785,135.3880182839),.PIECEWISE_BEZIER_KNOTS.);
#799 = CARTESIAN_POINT('',(9.,0.929661806151));
#800 = CARTESIAN_POINT('',(1.248465746136,12.));
#801 = ( GEOMETRIC_REPRESENTATION_CONTEXT(2) 
PARAMETRIC_REPRESENTATION_CONTEXT() REPRESENTATION_CONTEXT('2D SPACE',''
  ) );
#802 = ADVANCED_FACE('',(#803),#487,.T.);
#803 = FACE_BOUND('',#804,.T.);
#804 = EDGE_LOOP('',(#805,#806,#829,#857,#891,#917));
#805 = ORIENTED_EDGE('',*,*,#466,.F.);
#806 = ORIENTED_EDGE('',*,*,#807,.T.);
#807 = EDGE_CURVE('',#434,#808,#810,.T.);
#808 = VERTEX_POINT('',#809);
#809 = CARTESIAN_POINT('',(51.741474021354,493.40054557891,
    27.553587711655));
#810 = SURFACE_CURVE('',#811,(#815,#822),.PCURVE_S1.);
#811 = LINE('',#812,#813);
#812 = CARTESIAN_POINT('',(101.92182965765,493.40054557891,
    62.69025099823));
#813 = VECTOR('',#814,1.);
#814 = DIRECTION('',(0.819152044289,-3.718924182414E-14,0.573576436351)
  );
#815 = PCURVE('',#487,#816);
#816 = DEFINITIONAL_REPRESENTATION('',(#817),#821);
#817 = LINE('',#818,#819);
#818 = CARTESIAN_POINT('',(0.785420523238,-1.705302565824E-13));
#819 = VECTOR('',#820,1.);
#820 = DIRECTION('',(3.016049698029E-17,-1.));
#821 = ( GEOMETRIC_REPRESENTATION_CONTEXT(2) 
PARAMETRIC_REPRESENTATION_CONTEXT() REPRESENTATION_CONTEXT('2D SPACE',''
  ) );
#822 = PCURVE('',#454,#823);
#823 = DEFINITIONAL_REPRESENTATION('',(#824),#828);
#824 = LINE('',#825,#826);
#825 = CARTESIAN_POINT('',(0.785420523238,-1.705302565824E-13));
#826 = VECTOR('',#827,1.);
#827 = DIRECTION('',(3.016049698029E-17,-1.));
#828 = ( GEOMETRIC_REPRESENTATION_CONTEXT(2) 
PARAMETRIC_REPRESENTATION_CONTEXT() REPRESENTATION_CONTEXT('2D SPACE',''
  ) );
#829 = ORIENTED_EDGE('',*,*,#830,.T.);
#830 = EDGE_CURVE('',#808,#831,#833,.T.);
#831 = VERTEX_POINT('',#832);
#832 = CARTESIAN_POINT('',(50.860007561013,493.69183885759,28.81245228)
  );
#833 = SURFACE_CURVE('',#834,(#839,#846),.PCURVE_S1.);
#834 = CIRCLE('',#835,4.2);
#835 = AXIS2_PLACEMENT_3D('',#836,#837,#838);
#836 = CARTESIAN_POINT('',(51.741527886682,497.60054557786,
    27.553510783994));
#837 = DIRECTION('',(-0.819152044289,3.724798247617E-14,-0.573576436351)
  );
#838 = DIRECTION('',(0.405579787673,-0.707106781186,-0.57922796534));
#839 = PCURVE('',#487,#840);
#840 = DEFINITIONAL_REPRESENTATION('',(#841),#845);
#841 = LINE('',#842,#843);
#842 = CARTESIAN_POINT('',(0.,61.258903015804));
#843 = VECTOR('',#844,1.);
#844 = DIRECTION('',(1.,0.));
#845 = ( GEOMETRIC_REPRESENTATION_CONTEXT(2) 
PARAMETRIC_REPRESENTATION_CONTEXT() REPRESENTATION_CONTEXT('2D SPACE',''
  ) );
#846 = PCURVE('',#603,#847);
#847 = DEFINITIONAL_REPRESENTATION('',(#848),#856);
#848 = ( BOUNDED_CURVE() B_SPLINE_CURVE(2,(#849,#850,#851,#852,#853,#854
,#855),.UNSPECIFIED.,.T.,.F.) B_SPLINE_CURVE_WITH_KNOTS((1,2,2,2,2,1),(
    -2.094395102393,0.,2.094395102393,4.188790204786,6.28318530718,
8.377580409573),.UNSPECIFIED.) CURVE() GEOMETRIC_REPRESENTATION_ITEM() 
RATIONAL_B_SPLINE_CURVE((1.,0.5,1.,0.5,1.,0.5,1.)) REPRESENTATION_ITEM(
  '') );
#849 = CARTESIAN_POINT('',(-10.07705497153,-494.6306970968));
#850 = CARTESIAN_POINT('',(-4.933126511699,-489.486768637));
#851 = CARTESIAN_POINT('',(-3.05031802014,-496.5135055884));
#852 = CARTESIAN_POINT('',(-1.167509528582,-503.5402425398));
#853 = CARTESIAN_POINT('',(-8.194246479981,-501.6574340482));
#854 = CARTESIAN_POINT('',(-15.22098343138,-499.7746255567));
#855 = CARTESIAN_POINT('',(-10.07705497153,-494.6306970968));
#856 = ( GEOMETRIC_REPRESENTATION_CONTEXT(2) 
PARAMETRIC_REPRESENTATION_CONTEXT() REPRESENTATION_CONTEXT('2D SPACE',''
  ) );
#857 = ORIENTED_EDGE('',*,*,#858,.F.);
#858 = EDGE_CURVE('',#859,#831,#861,.T.);
#859 = VERTEX_POINT('',#860);
#860 = CARTESIAN_POINT('',(48.,494.85379142331,28.81245228));
#861 = SURFACE_CURVE('',#862,(#867,#879),.PCURVE_S1.);
#862 = ELLIPSE('',#863,7.322476541609,4.2);
#863 = AXIS2_PLACEMENT_3D('',#864,#865,#866);
#864 = CARTESIAN_POINT('',(53.539482674808,497.60054557786,28.81245228)
  );
#865 = DIRECTION('',(0.,0.,1.));
#866 = DIRECTION('',(-1.,4.539968139421E-14,0.));
#867 = PCURVE('',#487,#868);
#868 = DEFINITIONAL_REPRESENTATION('',(#869),#878);
#869 = B_SPLINE_CURVE_WITH_KNOTS('',7,(#870,#871,#872,#873,#874,#875,
    #876,#877),.UNSPECIFIED.,.F.,.F.,(8,8),(0.313688124726,
    1.570773966955),.PIECEWISE_BEZIER_KNOTS.);
#870 = CARTESIAN_POINT('',(2.042506365467,64.769525915198));
#871 = CARTESIAN_POINT('',(1.86292267372,64.437140831378));
#872 = CARTESIAN_POINT('',(1.683338981973,63.890082654963));
#873 = CARTESIAN_POINT('',(1.503755290226,63.145867206847));
#874 = CARTESIAN_POINT('',(1.324171598479,62.238935484413));
#875 = CARTESIAN_POINT('',(1.144587906732,61.218499372731));
#876 = CARTESIAN_POINT('',(0.965004214985,60.141322401652));
#877 = CARTESIAN_POINT('',(0.785420523238,59.064139617992));
#878 = ( GEOMETRIC_REPRESENTATION_CONTEXT(2) 
PARAMETRIC_REPRESENTATION_CONTEXT() REPRESENTATION_CONTEXT('2D SPACE',''
  ) );
#879 = PCURVE('',#880,#885);
#880 = PLANE('',#881);
#881 = AXIS2_PLACEMENT_3D('',#882,#883,#884);
#882 = CARTESIAN_POINT('',(60.,487.,28.81245228));
#883 = DIRECTION('',(0.,0.,1.));
#884 = DIRECTION('',(0.,1.,0.));
#885 = DEFINITIONAL_REPRESENTATION('',(#886),#890);
#886 = ELLIPSE('',#887,7.322476541609,4.2);
#887 = AXIS2_PLACEMENT_2D('',#888,#889);
#888 = CARTESIAN_POINT('',(10.600545577862,6.460517325192));
#889 = DIRECTION('',(4.539968139421E-14,1.));
#890 = ( GEOMETRIC_REPRESENTATION_CONTEXT(2) 
PARAMETRIC_REPRESENTATION_CONTEXT() REPRESENTATION_CONTEXT('2D SPACE',''
  ) );
#891 = ORIENTED_EDGE('',*,*,#892,.F.);
#892 = EDGE_CURVE('',#710,#859,#893,.T.);
#893 = SURFACE_CURVE('',#894,(#899,#910),.PCURVE_S1.);
#894 = ELLIPSE('',#895,5.127253272798,4.2);
#895 = AXIS2_PLACEMENT_3D('',#896,#897,#898);
#896 = CARTESIAN_POINT('',(48.,497.60054557786,24.933664753318));
#897 = DIRECTION('',(1.,0.,0.));
#898 = DIRECTION('',(0.,6.483746448988E-14,-1.));
#899 = PCURVE('',#487,#900);
#900 = DEFINITIONAL_REPRESENTATION('',(#901),#909);
#901 = B_SPLINE_CURVE_WITH_KNOTS('',6,(#902,#903,#904,#905,#906,#907,
    #908),.UNSPECIFIED.,.F.,.F.,(7,7),(3.14159265359,3.918469148856),
  .PIECEWISE_BEZIER_KNOTS.);
#902 = CARTESIAN_POINT('',(2.356194490193,62.885593522527));
#903 = CARTESIAN_POINT('',(2.226715074315,62.885593522527));
#904 = CARTESIAN_POINT('',(2.097235658438,62.944757494707));
#905 = CARTESIAN_POINT('',(1.96775624256,63.063086834014));
#906 = CARTESIAN_POINT('',(1.838276826682,63.237601242437));
#907 = CARTESIAN_POINT('',(1.708797410804,63.462360174319));
#908 = CARTESIAN_POINT('',(1.579317994927,63.729309712505));
#909 = ( GEOMETRIC_REPRESENTATION_CONTEXT(2) 
PARAMETRIC_REPRESENTATION_CONTEXT() REPRESENTATION_CONTEXT('2D SPACE',''
  ) );
#910 = PCURVE('',#724,#911);
#911 = DEFINITIONAL_REPRESENTATION('',(#912),#916);
#912 = ELLIPSE('',#913,5.127253272798,4.2);
#913 = AXIS2_PLACEMENT_2D('',#914,#915);
#914 = CARTESIAN_POINT('',(-8.378787526682,0.399454422138));
#915 = DIRECTION('',(-1.,-6.483746448988E-14));
#916 = ( GEOMETRIC_REPRESENTATION_CONTEXT(2) 
PARAMETRIC_REPRESENTATION_CONTEXT() REPRESENTATION_CONTEXT('2D SPACE',''
  ) );
#917 = ORIENTED_EDGE('',*,*,#735,.T.);
#918 = ADVANCED_FACE('',(#919),#454,.T.);
#919 = FACE_BOUND('',#920,.T.);
#920 = EDGE_LOOP('',(#921,#922,#923,#924));
#921 = ORIENTED_EDGE('',*,*,#807,.F.);
#922 = ORIENTED_EDGE('',*,*,#433,.F.);
#923 = ORIENTED_EDGE('',*,*,#636,.F.);
#924 = ORIENTED_EDGE('',*,*,#925,.T.);
#925 = EDGE_CURVE('',#589,#808,#926,.T.);
#926 = SURFACE_CURVE('',#927,(#932,#939),.PCURVE_S1.);
#927 = CIRCLE('',#928,4.2);
#928 = AXIS2_PLACEMENT_3D('',#929,#930,#931);
#929 = CARTESIAN_POINT('',(51.741527886682,497.60054557786,
    27.553510783994));
#930 = DIRECTION('',(-0.819152044289,3.724798247617E-14,-0.573576436351)
  );
#931 = DIRECTION('',(0.405579787673,-0.707106781186,-0.57922796534));
#932 = PCURVE('',#454,#933);
#933 = DEFINITIONAL_REPRESENTATION('',(#934),#938);
#934 = LINE('',#935,#936);
#935 = CARTESIAN_POINT('',(-6.28318530718,61.258903015804));
#936 = VECTOR('',#937,1.);
#937 = DIRECTION('',(1.,0.));
#938 = ( GEOMETRIC_REPRESENTATION_CONTEXT(2) 
PARAMETRIC_REPRESENTATION_CONTEXT() REPRESENTATION_CONTEXT('2D SPACE',''
  ) );
#939 = PCURVE('',#603,#940);
#940 = DEFINITIONAL_REPRESENTATION('',(#941),#949);
#941 = ( BOUNDED_CURVE() B_SPLINE_CURVE(2,(#942,#943,#944,#945,#946,#947
,#948),.UNSPECIFIED.,.T.,.F.) B_SPLINE_CURVE_WITH_KNOTS((1,2,2,2,2,1),(
    -2.094395102393,0.,2.094395102393,4.188790204786,6.28318530718,
8.377580409573),.UNSPECIFIED.) CURVE() GEOMETRIC_REPRESENTATION_ITEM() 
RATIONAL_B_SPLINE_CURVE((1.,0.5,1.,0.5,1.,0.5,1.)) REPRESENTATION_ITEM(
  '') );
#942 = CARTESIAN_POINT('',(-10.07705497153,-494.6306970968));
#943 = CARTESIAN_POINT('',(-4.933126511699,-489.486768637));
#944 = CARTESIAN_POINT('',(-3.05031802014,-496.5135055884));
#945 = CARTESIAN_POINT('',(-1.167509528582,-503.5402425398));
#946 = CARTESIAN_POINT('',(-8.194246479981,-501.6574340482));
#947 = CARTESIAN_POINT('',(-15.22098343138,-499.7746255567));
#948 = CARTESIAN_POINT('',(-10.07705497153,-494.6306970968));
#949 = ( GEOMETRIC_REPRESENTATION_CONTEXT(2) 
PARAMETRIC_REPRESENTATION_CONTEXT() REPRESENTATION_CONTEXT('2D SPACE',''
  ) );
#950 = ADVANCED_FACE('',(#951),#603,.T.);
#951 = FACE_BOUND('',#952,.T.);
#952 = EDGE_LOOP('',(#953,#954,#955,#956,#977,#996,#997));
#953 = ORIENTED_EDGE('',*,*,#586,.F.);
#954 = ORIENTED_EDGE('',*,*,#685,.F.);
#955 = ORIENTED_EDGE('',*,*,#758,.F.);
#956 = ORIENTED_EDGE('',*,*,#957,.T.);
#957 = EDGE_CURVE('',#759,#958,#960,.T.);
#958 = VERTEX_POINT('',#959);
#959 = CARTESIAN_POINT('',(50.860007561013,509.,28.81245228));
#960 = SURFACE_CURVE('',#961,(#965,#971),.PCURVE_S1.);
#961 = LINE('',#962,#963);
#962 = CARTESIAN_POINT('',(50.765987366968,509.,28.946727032719));
#963 = VECTOR('',#964,1.);
#964 = DIRECTION('',(0.573576436351,0.,-0.819152044289));
#965 = PCURVE('',#603,#966);
#966 = DEFINITIONAL_REPRESENTATION('',(#967),#970);
#967 = B_SPLINE_CURVE_WITH_KNOTS('',1,(#968,#969),.UNSPECIFIED.,.F.,.F.,
  (2,2),(-3.299197006932,0.163919206031),.PIECEWISE_BEZIER_KNOTS.);
#968 = CARTESIAN_POINT('',(-2.107206490529,-509.));
#969 = CARTESIAN_POINT('',(-5.570322703492,-509.));
#970 = ( GEOMETRIC_REPRESENTATION_CONTEXT(2) 
PARAMETRIC_REPRESENTATION_CONTEXT() REPRESENTATION_CONTEXT('2D SPACE',''
  ) );
#971 = PCURVE('',#792,#972);
#972 = DEFINITIONAL_REPRESENTATION('',(#973),#976);
#973 = B_SPLINE_CURVE_WITH_KNOTS('',1,(#974,#975),.UNSPECIFIED.,.F.,.F.,
  (2,2),(-3.299197006932,0.163919206031),.PIECEWISE_BEZIER_KNOTS.);
#974 = CARTESIAN_POINT('',(2.836818725459,11.126354295087));
#975 = CARTESIAN_POINT('',(-3.053113317719E-16,9.139992438987));
#976 = ( GEOMETRIC_REPRESENTATION_CONTEXT(2) 
PARAMETRIC_REPRESENTATION_CONTEXT() REPRESENTATION_CONTEXT('2D SPACE',''
  ) );
#977 = ORIENTED_EDGE('',*,*,#978,.T.);
#978 = EDGE_CURVE('',#958,#831,#979,.T.);
#979 = SURFACE_CURVE('',#980,(#984,#990),.PCURVE_S1.);
#980 = LINE('',#981,#982);
#981 = CARTESIAN_POINT('',(50.860007561013,243.5,28.81245228));
#982 = VECTOR('',#983,1.);
#983 = DIRECTION('',(0.,-1.,0.));
#984 = PCURVE('',#603,#985);
#985 = DEFINITIONAL_REPRESENTATION('',(#986),#989);
#986 = B_SPLINE_CURVE_WITH_KNOTS('',1,(#987,#988),.UNSPECIFIED.,.F.,.F.,
  (2,2),(-265.5,-249.9005455778),.PIECEWISE_BEZIER_KNOTS.);
#987 = CARTESIAN_POINT('',(-5.570322703492,-509.));
#988 = CARTESIAN_POINT('',(-5.570322703492,-493.4005455778));
#989 = ( GEOMETRIC_REPRESENTATION_CONTEXT(2) 
PARAMETRIC_REPRESENTATION_CONTEXT() REPRESENTATION_CONTEXT('2D SPACE',''
  ) );
#990 = PCURVE('',#880,#991);
#991 = DEFINITIONAL_REPRESENTATION('',(#992),#995);
#992 = B_SPLINE_CURVE_WITH_KNOTS('',1,(#993,#994),.UNSPECIFIED.,.F.,.F.,
  (2,2),(-265.5,-249.9005455778),.PIECEWISE_BEZIER_KNOTS.);
#993 = CARTESIAN_POINT('',(22.,9.139992438987));
#994 = CARTESIAN_POINT('',(6.400545577862,9.139992438987));
#995 = ( GEOMETRIC_REPRESENTATION_CONTEXT(2) 
PARAMETRIC_REPRESENTATION_CONTEXT() REPRESENTATION_CONTEXT('2D SPACE',''
  ) );
#996 = ORIENTED_EDGE('',*,*,#830,.F.);
#997 = ORIENTED_EDGE('',*,*,#925,.F.);
#998 = ADVANCED_FACE('',(#999),#724,.T.);
#999 = FACE_BOUND('',#1000,.T.);
#1000 = EDGE_LOOP('',(#1001,#1002,#1025,#1046));
#1001 = ORIENTED_EDGE('',*,*,#892,.T.);
#1002 = ORIENTED_EDGE('',*,*,#1003,.T.);
#1003 = EDGE_CURVE('',#859,#1004,#1006,.T.);
#1004 = VERTEX_POINT('',#1005);
#1005 = CARTESIAN_POINT('',(48.,509.,28.81245228));
#1006 = SURFACE_CURVE('',#1007,(#1011,#1018),.PCURVE_S1.);
#1007 = LINE('',#1008,#1009);
#1008 = CARTESIAN_POINT('',(48.,487.,28.81245228));
#1009 = VECTOR('',#1010,1.);
#1010 = DIRECTION('',(0.,1.,0.));
#1011 = PCURVE('',#724,#1012);
#1012 = DEFINITIONAL_REPRESENTATION('',(#1013),#1017);
#1013 = LINE('',#1014,#1015);
#1014 = CARTESIAN_POINT('',(-4.5,11.));
#1015 = VECTOR('',#1016,1.);
#1016 = DIRECTION('',(0.,-1.));
#1017 = ( GEOMETRIC_REPRESENTATION_CONTEXT(2) 
PARAMETRIC_REPRESENTATION_CONTEXT() REPRESENTATION_CONTEXT('2D SPACE',''
  ) );
#1018 = PCURVE('',#880,#1019);
#1019 = DEFINITIONAL_REPRESENTATION('',(#1020),#1024);
#1020 = LINE('',#1021,#1022);
#1021 = CARTESIAN_POINT('',(0.,12.));
#1022 = VECTOR('',#1023,1.);
#1023 = DIRECTION('',(1.,0.));
#1024 = ( GEOMETRIC_REPRESENTATION_CONTEXT(2) 
PARAMETRIC_REPRESENTATION_CONTEXT() REPRESENTATION_CONTEXT('2D SPACE',''
  ) );
#1025 = ORIENTED_EDGE('',*,*,#1026,.T.);
#1026 = EDGE_CURVE('',#1004,#708,#1027,.T.);
#1027 = SURFACE_CURVE('',#1028,(#1032,#1039),.PCURVE_S1.);
#1028 = LINE('',#1029,#1030);
#1029 = CARTESIAN_POINT('',(48.,509.,28.81245228));
#1030 = VECTOR('',#1031,1.);
#1031 = DIRECTION('',(0.,0.,1.));
#1032 = PCURVE('',#724,#1033);
#1033 = DEFINITIONAL_REPRESENTATION('',(#1034),#1038);
#1034 = LINE('',#1035,#1036);
#1035 = CARTESIAN_POINT('',(-4.5,-11.));
#1036 = VECTOR('',#1037,1.);
#1037 = DIRECTION('',(1.,0.));
#1038 = ( GEOMETRIC_REPRESENTATION_CONTEXT(2) 
PARAMETRIC_REPRESENTATION_CONTEXT() REPRESENTATION_CONTEXT('2D SPACE',''
  ) );
#1039 = PCURVE('',#792,#1040);
#1040 = DEFINITIONAL_REPRESENTATION('',(#1041),#1045);
#1041 = LINE('',#1042,#1043);
#1042 = CARTESIAN_POINT('',(0.,12.));
#1043 = VECTOR('',#1044,1.);
#1044 = DIRECTION('',(1.,0.));
#1045 = ( GEOMETRIC_REPRESENTATION_CONTEXT(2) 
PARAMETRIC_REPRESENTATION_CONTEXT() REPRESENTATION_CONTEXT('2D SPACE',''
  ) );
#1046 = ORIENTED_EDGE('',*,*,#707,.T.);
#1047 = ADVANCED_FACE('',(#1048),#792,.T.);
#1048 = FACE_BOUND('',#1049,.T.);
#1049 = EDGE_LOOP('',(#1050,#1071,#1072,#1073));
#1050 = ORIENTED_EDGE('',*,*,#1051,.T.);
#1051 = EDGE_CURVE('',#1004,#958,#1052,.T.);
#1052 = SURFACE_CURVE('',#1053,(#1057,#1064),.PCURVE_S1.);
#1053 = LINE('',#1054,#1055);
#1054 = CARTESIAN_POINT('',(48.,509.,28.81245228));
#1055 = VECTOR('',#1056,1.);
#1056 = DIRECTION('',(1.,0.,0.));
#1057 = PCURVE('',#792,#1058);
#1058 = DEFINITIONAL_REPRESENTATION('',(#1059),#1063);
#1059 = LINE('',#1060,#1061);
#1060 = CARTESIAN_POINT('',(0.,12.));
#1061 = VECTOR('',#1062,1.);
#1062 = DIRECTION('',(0.,-1.));
#1063 = ( GEOMETRIC_REPRESENTATION_CONTEXT(2) 
PARAMETRIC_REPRESENTATION_CONTEXT() REPRESENTATION_CONTEXT('2D SPACE',''
  ) );
#1064 = PCURVE('',#880,#1065);
#1065 = DEFINITIONAL_REPRESENTATION('',(#1066),#1070);
#1066 = LINE('',#1067,#1068);
#1067 = CARTESIAN_POINT('',(22.,12.));
#1068 = VECTOR('',#1069,1.);
#1069 = DIRECTION('',(0.,-1.));
#1070 = ( GEOMETRIC_REPRESENTATION_CONTEXT(2) 
PARAMETRIC_REPRESENTATION_CONTEXT() REPRESENTATION_CONTEXT('2D SPACE',''
  ) );
#1071 = ORIENTED_EDGE('',*,*,#957,.F.);
#1072 = ORIENTED_EDGE('',*,*,#779,.T.);
#1073 = ORIENTED_EDGE('',*,*,#1026,.F.);
#1074 = ADVANCED_FACE('',(#1075),#880,.T.);
#1075 = FACE_BOUND('',#1076,.T.);
#1076 = EDGE_LOOP('',(#1077,#1078,#1079,#1080));
#1077 = ORIENTED_EDGE('',*,*,#1003,.F.);
#1078 = ORIENTED_EDGE('',*,*,#858,.T.);
#1079 = ORIENTED_EDGE('',*,*,#978,.F.);
#1080 = ORIENTED_EDGE('',*,*,#1051,.F.);
#1081 = ( GEOMETRIC_REPRESENTATION_CONTEXT(3) 
GLOBAL_UNCERTAINTY_ASSIGNED_CONTEXT((#1085)) 
GLOBAL_UNIT_ASSIGNED_CONTEXT((#1082,#1083,#1084)) REPRESENTATION_CONTEXT
('Context #1','3D Context with UNIT and UNCERTAINTY') );
#1082 = ( LENGTH_UNIT() NAMED_UNIT(*) SI_UNIT(.MILLI.,.METRE.) );
#1083 = ( NAMED_UNIT(*) PLANE_ANGLE_UNIT() SI_UNIT($,.RADIAN.) );
#1084 = ( NAMED_UNIT(*) SI_UNIT($,.STERADIAN.) SOLID_ANGLE_UNIT() );
#1085 = UNCERTAINTY_MEASURE_WITH_UNIT(LENGTH_MEASURE(1.E-05),#1082,
  'distance_accuracy_value','confusion accuracy');
#1086 = PRODUCT_RELATED_PRODUCT_CATEGORY('part',$,(#7));
ENDSEC;
END-ISO-10303-21;
