  0
SECTION
  2
HEADER
  9
$ACADVER
  1
AC1027
  9
$ACADMAINTVER
 70
105
  9
$DWGCODEPAGE
  3
ANSI_1252
  9
$LASTSAVEDBY
  1
ezdxf
  9
$REQUIREDVERSIONS
160
0
  9
$INSBASE
 10
0.0
 20
0.0
 30
0.0
  9
$EXTMIN
 10
1e+20
 20
1e+20
 30
1e+20
  9
$EXTMAX
 10
-1e+20
 20
-1e+20
 30
-1e+20
  9
$LIMMIN
 10
0.0
 20
0.0
  9
$LIMMAX
 10
420.0
 20
297.0
  9
$ORTHOMODE
 70
0
  9
$REGENMODE
 70
1
  9
$FILLMODE
 70
1
  9
$QTEXTMODE
 70
0
  9
$MIRRTEXT
 70
1
  9
$LTSCALE
 40
1.0
  9
$ATTMODE
 70
1
  9
$TEXTSIZE
 40
2.5
  9
$TRACEWID
 40
1.0
  9
$TEXTSTYLE
  7
Standard
  9
$CLAYER
  8
0
  9
$CELTYPE
  6
ByLayer
  9
$CECOLOR
 62
256
  9
$CELTSCALE
 40
1.0
  9
$DISPSILH
 70
0
  9
$DIMSCALE
 40
1.0
  9
$DIMASZ
 40
2.5
  9
$DIMEXO
 40
0.625
  9
$DIMDLI
 40
3.75
  9
$DIMRND
 40
0.0
  9
$DIMDLE
 40
0.0
  9
$DIMEXE
 40
1.25
  9
$DIMTP
 40
0.0
  9
$DIMTM
 40
0.0
  9
$DIMTXT
 40
2.5
  9
$DIMCEN
 40
2.5
  9
$DIMTSZ
 40
0.0
  9
$DIMTOL
 70
0
  9
$DIMLIM
 70
0
  9
$DIMTIH
 70
0
  9
$DIMTOH
 70
0
  9
$DIMSE1
 70
0
  9
$DIMSE2
 70
0
  9
$DIMTAD
 70
1
  9
$DIMZIN
 70
8
  9
$DIMBLK
  1

  9
$DIMASO
 70
1
  9
$DIMSHO
 70
1
  9
$DIMPOST
  1

  9
$DIMAPOST
  1

  9
$DIMALT
 70
0
  9
$DIMALTD
 70
3
  9
$DIMALTF
 40
0.03937007874
  9
$DIMLFAC
 40
1.0
  9
$DIMTOFL
 70
1
  9
$DIMTVP
 40
0.0
  9
$DIMTIX
 70
0
  9
$DIMSOXD
 70
0
  9
$DIMSAH
 70
0
  9
$DIMBLK1
  1

  9
$DIMBLK2
  1

  9
$DIMSTYLE
  2
ISO-25
  9
$DIMCLRD
 70
0
  9
$DIMCLRE
 70
0
  9
$DIMCLRT
 70
0
  9
$DIMTFAC
 40
1.0
  9
$DIMGAP
 40
0.625
  9
$DIMJUST
 70
0
  9
$DIMSD1
 70
0
  9
$DIMSD2
 70
0
  9
$DIMTOLJ
 70
0
  9
$DIMTZIN
 70
8
  9
$DIMALTZ
 70
0
  9
$DIMALTTZ
 70
0
  9
$DIMUPT
 70
0
  9
$DIMDEC
 70
2
  9
$DIMTDEC
 70
2
  9
$DIMALTU
 70
2
  9
$DIMALTTD
 70
3
  9
$DIMTXSTY
  7
Standard
  9
$DIMAUNIT
 70
0
  9
$DIMADEC
 70
0
  9
$DIMALTRND
 40
0.0
  9
$DIMAZIN
 70
0
  9
$DIMDSEP
 70
44
  9
$DIMATFIT
 70
3
  9
$DIMFRAC
 70
0
  9
$DIMLDRBLK
  1

  9
$DIMLUNIT
 70
2
  9
$DIMLWD
 70
-2
  9
$DIMLWE
 70
-2
  9
$DIMTMOVE
 70
0
  9
$DIMFXL
 40
1.0
  9
$DIMFXLON
 70
0
  9
$DIMJOGANG
 40
0.785398163397
  9
$DIMTFILL
 70
0
  9
$DIMTFILLCLR
 70
0
  9
$DIMARCSYM
 70
0
  9
$DIMLTYPE
  6

  9
$DIMLTEX1
  6

  9
$DIMLTEX2
  6

  9
$DIMTXTDIRECTION
 70
0
  9
$LUNITS
 70
2
  9
$LUPREC
 70
4
  9
$SKETCHINC
 40
1.0
  9
$FILLETRAD
 40
10.0
  9
$AUNITS
 70
0
  9
$AUPREC
 70
2
  9
$MENU
  1
.
  9
$ELEVATION
 40
0.0
  9
$PELEVATION
 40
0.0
  9
$THICKNESS
 40
0.0
  9
$LIMCHECK
 70
0
  9
$CHAMFERA
 40
0.0
  9
$CHAMFERB
 40
0.0
  9
$CHAMFERC
 40
0.0
  9
$CHAMFERD
 40
0.0
  9
$SKPOLY
 70
0
  9
$TDCREATE
 40
2461303.705428241
  9
$TDUCREATE
 40
2458532.153996898
  9
$TDUPDATE
 40
2461303.705428241
  9
$TDUUPDATE
 40
2458532.1544311
  9
$TDINDWG
 40
0.0
  9
$TDUSRTIMER
 40
0.0
  9
$USRTIMER
 70
1
  9
$ANGBASE
 50
0.0
  9
$ANGDIR
 70
0
  9
$PDMODE
 70
0
  9
$PDSIZE
 40
0.0
  9
$PLINEWID
 40
0.0
  9
$SPLFRAME
 70
0
  9
$SPLINETYPE
 70
6
  9
$SPLINESEGS
 70
8
  9
$HANDSEED
  5
66
  9
$SURFTAB1
 70
6
  9
$SURFTAB2
 70
6
  9
$SURFTYPE
 70
6
  9
$SURFU
 70
6
  9
$SURFV
 70
6
  9
$UCSBASE
  2

  9
$UCSNAME
  2

  9
$UCSORG
 10
0.0
 20
0.0
 30
0.0
  9
$UCSXDIR
 10
1.0
 20
0.0
 30
0.0
  9
$UCSYDIR
 10
0.0
 20
1.0
 30
0.0
  9
$UCSORTHOREF
  2

  9
$UCSORTHOVIEW
 70
0
  9
$UCSORGTOP
 10
0.0
 20
0.0
 30
0.0
  9
$UCSORGBOTTOM
 10
0.0
 20
0.0
 30
0.0
  9
$UCSORGLEFT
 10
0.0
 20
0.0
 30
0.0
  9
$UCSORGRIGHT
 10
0.0
 20
0.0
 30
0.0
  9
$UCSORGFRONT
 10
0.0
 20
0.0
 30
0.0
  9
$UCSORGBACK
 10
0.0
 20
0.0
 30
0.0
  9
$PUCSBASE
  2

  9
$PUCSNAME
  2

  9
$PUCSORG
 10
0.0
 20
0.0
 30
0.0
  9
$PUCSXDIR
 10
1.0
 20
0.0
 30
0.0
  9
$PUCSYDIR
 10
0.0
 20
1.0
 30
0.0
  9
$PUCSORTHOREF
  2

  9
$PUCSORTHOVIEW
 70
0
  9
$PUCSORGTOP
 10
0.0
 20
0.0
 30
0.0
  9
$PUCSORGBOTTOM
 10
0.0
 20
0.0
 30
0.0
  9
$PUCSORGLEFT
 10
0.0
 20
0.0
 30
0.0
  9
$PUCSORGRIGHT
 10
0.0
 20
0.0
 30
0.0
  9
$PUCSORGFRONT
 10
0.0
 20
0.0
 30
0.0
  9
$PUCSORGBACK
 10
0.0
 20
0.0
 30
0.0
  9
$USERI1
 70
0
  9
$USERI2
 70
0
  9
$USERI3
 70
0
  9
$USERI4
 70
0
  9
$USERI5
 70
0
  9
$USERR1
 40
0.0
  9
$USERR2
 40
0.0
  9
$USERR3
 40
0.0
  9
$USERR4
 40
0.0
  9
$USERR5
 40
0.0
  9
$WORLDVIEW
 70
1
  9
$SHADEDGE
 70
3
  9
$SHADEDIF
 70
70
  9
$TILEMODE
 70
1
  9
$MAXACTVP
 70
64
  9
$PINSBASE
 10
0.0
 20
0.0
 30
0.0
  9
$PLIMCHECK
 70
0
  9
$PEXTMIN
 10
1e+20
 20
1e+20
 30
1e+20
  9
$PEXTMAX
 10
-1e+20
 20
-1e+20
 30
-1e+20
  9
$PLIMMIN
 10
0.0
 20
0.0
  9
$PLIMMAX
 10
420.0
 20
297.0
  9
$UNITMODE
 70
0
  9
$VISRETAIN
 70
1
  9
$PLINEGEN
 70
0
  9
$PSLTSCALE
 70
1
  9
$TREEDEPTH
 70
3020
  9
$CMLSTYLE
  2
Standard
  9
$CMLJUST
 70
0
  9
$CMLSCALE
 40
20.0
  9
$PROXYGRAPHICS
 70
1
  9
$MEASUREMENT
 70
1
  9
$CELWEIGHT
370
-1
  9
$ENDCAPS
280
0
  9
$JOINSTYLE
280
0
  9
$LWDISPLAY
290
0
  9
$INSUNITS
 70
4
  9
$HYPERLINKBASE
  1

  9
$STYLESHEET
  1

  9
$XEDIT
290
1
  9
$CEPSNTYPE
380
0
  9
$PSTYLEMODE
290
1
  9
$FINGERPRINTGUID
  2
{E3D1B4C5-2B34-44FE-A05F-3EEC8E2F6220}
  9
$VERSIONGUID
  2
{DA1EB91F-38E6-4F18-971C-7E29D3CA7C25}
  9
$EXTNAMES
290
1
  9
$PSVPSCALE
 40
0.0
  9
$OLESTARTUP
290
0
  9
$SORTENTS
280
127
  9
$INDEXCTL
280
0
  9
$HIDETEXT
280
1
  9
$XCLIPFRAME
280
1
  9
$HALOGAP
280
0
  9
$OBSCOLOR
 70
257
  9
$OBSLTYPE
280
0
  9
$INTERSECTIONDISPLAY
280
0
  9
$INTERSECTIONCOLOR
 70
257
  9
$DIMASSOC
280
2
  9
$PROJECTNAME
  1

  9
$CAMERADISPLAY
290
0
  9
$LENSLENGTH
 40
50.0
  9
$CAMERAHEIGHT
 40
0.0
  9
$STEPSPERSEC
 40
24.0
  9
$STEPSIZE
 40
100.0
  9
$3DDWFPREC
 40
2.0
  9
$PSOLWIDTH
 40
0.005
  9
$PSOLHEIGHT
 40
0.08
  9
$LOFTANG1
 40
1.570796326795
  9
$LOFTANG2
 40
1.570796326795
  9
$LOFTMAG1
 40
0.0
  9
$LOFTMAG2
 40
0.0
  9
$LOFTPARAM
 70
7
  9
$LOFTNORMALS
280
1
  9
$LATITUDE
 40
37.795
  9
$LONGITUDE
 40
-122.394
  9
$NORTHDIRECTION
 40
0.0
  9
$TIMEZONE
 70
-8000
  9
$LIGHTGLYPHDISPLAY
280
1
  9
$TILEMODELIGHTSYNCH
280
1
  9
$CMATERIAL
347
20
  9
$SOLIDHIST
280
0
  9
$SHOWHIST
280
1
  9
$DWFFRAME
280
2
  9
$DGNFRAME
280
2
  9
$REALWORLDSCALE
290
1
  9
$INTERFERECOLOR
 62
256
  9
$CSHADOW
280
0
  9
$SHADOWPLANELOCATION
 40
0.0
  0
ENDSEC
  0
SECTION
  2
CLASSES
  0
CLASS
  1
ACDBDICTIONARYWDFLT
  2
AcDbDictionaryWithDefault
  3
ObjectDBX Classes
 90
0
 91
0
280
0
281
0
  0
CLASS
  1
SUN
  2
AcDbSun
  3
SCENEOE
 90
1153
 91
0
280
0
281
0
  0
CLASS
  1
VISUALSTYLE
  2
AcDbVisualStyle
  3
ObjectDBX Classes
 90
4095
 91
0
280
0
281
0
  0
CLASS
  1
MATERIAL
  2
AcDbMaterial
  3
ObjectDBX Classes
 90
1153
 91
0
280
0
281
0
  0
CLASS
  1
SCALE
  2
AcDbScale
  3
ObjectDBX Classes
 90
1153
 91
0
280
0
281
0
  0
CLASS
  1
TABLESTYLE
  2
AcDbTableStyle
  3
ObjectDBX Classes
 90
4095
 91
0
280
0
281
0
  0
CLASS
  1
MLEADERSTYLE
  2
AcDbMLeaderStyle
  3
ACDB_MLEADERSTYLE_CLASS
 90
4095
 91
0
280
0
281
0
  0
CLASS
  1
DICTIONARYVAR
  2
AcDbDictionaryVar
  3
ObjectDBX Classes
 90
0
 91
0
280
0
281
0
  0
CLASS
  1
CELLSTYLEMAP
  2
AcDbCellStyleMap
  3
ObjectDBX Classes
 90
1152
 91
0
280
0
281
0
  0
CLASS
  1
MENTALRAYRENDERSETTINGS
  2
AcDbMentalRayRenderSettings
  3
SCENEOE
 90
1024
 91
0
280
0
281
0
  0
CLASS
  1
ACDBDETAILVIEWSTYLE
  2
AcDbDetailViewStyle
  3
ObjectDBX Classes
 90
1025
 91
0
280
0
281
0
  0
CLASS
  1
ACDBSECTIONVIEWSTYLE
  2
AcDbSectionViewStyle
  3
ObjectDBX Classes
 90
1025
 91
0
280
0
281
0
  0
CLASS
  1
RASTERVARIABLES
  2
AcDbRasterVariables
  3
ISM
 90
0
 91
0
280
0
281
0
  0
CLASS
  1
ACDBPLACEHOLDER
  2
AcDbPlaceHolder
  3
ObjectDBX Classes
 90
0
 91
0
280
0
281
0
  0
CLASS
  1
LAYOUT
  2
AcDbLayout
  3
ObjectDBX Classes
 90
0
 91
0
280
0
281
0
  0
ENDSEC
  0
SECTION
  2
TABLES
  0
TABLE
  2
VPORT
  5
8
330
0
100
AcDbSymbolTable
 70
1
  0
VPORT
  5
5F
330
8
100
AcDbSymbolTableRecord
100
AcDbViewportTableRecord
  2
*Active
 70
0
 10
0.0
 20
0.0
 11
1.0
 21
1.0
 12
40.500000100000044
 22
58.795170837895
 13
0.0
 23
0.0
 14
0.5
 24
0.5
 15
0.5
 25
0.5
 16
0.0
 26
0.0
 36
1.0
 17
0.0
 27
0.0
 37
0.0
 40
117.59034147579001
 41
1.34
 42
50.0
 43
0.0
 44
0.0
 50
0.0
 51
0.0
 71
0
 72
1000
 73
1
 74
3
 75
0
 76
0
 77
0
 78
0
281
0
 65
1
110
0.0
120
0.0
130
0.0
111
1.0
121
0.0
131
0.0
112
0.0
122
1.0
132
0.0
 79
0
146
0.0
  0
ENDTAB
  0
TABLE
  2
LTYPE
  5
2
330
0
100
AcDbSymbolTable
 70
3
  0
LTYPE
  5
24
330
2
100
AcDbSymbolTableRecord
100
AcDbLinetypeTableRecord
  2
ByBlock
 70
0
  3

 72
65
 73
0
 40
0.0
  0
LTYPE
  5
25
330
2
100
AcDbSymbolTableRecord
100
AcDbLinetypeTableRecord
  2
ByLayer
 70
0
  3

 72
65
 73
0
 40
0.0
  0
LTYPE
  5
26
330
2
100
AcDbSymbolTableRecord
100
AcDbLinetypeTableRecord
  2
Continuous
 70
0
  3

 72
65
 73
0
 40
0.0
  0
ENDTAB
  0
TABLE
  2
LAYER
  5
1
330
0
100
AcDbSymbolTable
 70
4
  0
LAYER
  5
27
330
1
100
AcDbSymbolTableRecord
100
AcDbLayerTableRecord
  2
0
 70
0
 62
7
  6
Continuous
370
-3
390
13
347
21
  0
LAYER
  5
28
330
1
100
AcDbSymbolTableRecord
100
AcDbLayerTableRecord
  2
Defpoints
 70
0
 62
7
  6
Continuous
290
0
370
-3
390
13
347
21
  0
LAYER
  5
63
330
1
100
AcDbSymbolTableRecord
100
AcDbLayerTableRecord
  2
LABELS_NONCUT
 70
0
 62
3
  6
Continuous
370
-3
390
13
347
21
  0
LAYER
  5
65
330
1
100
AcDbSymbolTableRecord
100
AcDbLayerTableRecord
  2
CUT
 70
0
 62
1
  6
Continuous
370
-3
390
13
347
21
  0
ENDTAB
  0
TABLE
  2
STYLE
  5
5
330
0
100
AcDbSymbolTable
 70
1
  0
STYLE
  5
29
330
5
100
AcDbSymbolTableRecord
100
AcDbTextStyleTableRecord
  2
Standard
 70
0
 40
0.0
 41
1.0
 50
0.0
 71
0
 42
2.5
  3
txt
  4

  0
ENDTAB
  0
TABLE
  2
VIEW
  5
7
330
0
100
AcDbSymbolTable
 70
0
  0
ENDTAB
  0
TABLE
  2
UCS
  5
6
330
0
100
AcDbSymbolTable
 70
0
  0
ENDTAB
  0
TABLE
  2
APPID
  5
3
330
0
100
AcDbSymbolTable
 70
3
  0
APPID
  5
2A
330
3
100
AcDbSymbolTableRecord
100
AcDbRegAppTableRecord
  2
ACAD
 70
0
  0
APPID
  5
60
330
3
100
AcDbSymbolTableRecord
100
AcDbRegAppTableRecord
  2
HATCHBACKGROUNDCOLOR
 70
0
  0
APPID
  5
61
330
3
100
AcDbSymbolTableRecord
100
AcDbRegAppTableRecord
  2
EZDXF
 70
0
  0
ENDTAB
  0
TABLE
  2
DIMSTYLE
  5
4
330
0
100
AcDbSymbolTable
 70
1
100
AcDbDimStyleTable
  0
DIMSTYLE
105
2B
330
4
100
AcDbSymbolTableRecord
100
AcDbDimStyleTableRecord
  2
Standard
 70
0
 40
1.0
 41
2.5
 42
0.625
 43
3.75
 44
1.25
 45
0.0
 46
0.0
 47
0.0
 48
0.0
 49
2.5
140
2.5
141
2.5
142
0.0
143
0.03937007874
144
1.0
145
0.0
146
1.0
147
0.625
148
0.0
 69
0
 70
0
 71
0
 72
0
 73
0
 74
0
 75
0
 76
0
 77
1
 78
8
 79
3
170
0
171
3
172
1
173
0
174
0
175
0
176
0
177
0
178
0
179
2
271
2
272
2
273
2
274
3
275
0
276
0
277
2
278
44
279
0
280
0
281
0
282
0
283
0
284
8
285
0
286
0
288
0
289
3
290
0
371
-2
372
-2
  0
ENDTAB
  0
TABLE
  2
BLOCK_RECORD
  5
9
330
0
100
AcDbSymbolTable
 70
2
  0
BLOCK_RECORD
  5
17
330
9
100
AcDbSymbolTableRecord
100
AcDbBlockTableRecord
  2
*Model_Space
340
1A
 70
0
280
1
281
0
  0
BLOCK_RECORD
  5
1B
330
9
100
AcDbSymbolTableRecord
100
AcDbBlockTableRecord
  2
*Paper_Space
340
1E
 70
0
280
1
281
0
  0
ENDTAB
  0
ENDSEC
  0
SECTION
  2
BLOCKS
  0
BLOCK
  5
18
330
17
100
AcDbEntity
  8
0
100
AcDbBlockBegin
  2
*Model_Space
 70
0
 10
0.0
 20
0.0
 30
0.0
  3
*Model_Space
  1

  0
ENDBLK
  5
19
330
17
100
AcDbEntity
  8
0
100
AcDbBlockEnd
  0
BLOCK
  5
1C
330
1B
100
AcDbEntity
  8
0
100
AcDbBlockBegin
  2
*Paper_Space
 70
0
 10
0.0
 20
0.0
 30
0.0
  3
*Paper_Space
  1

  0
ENDBLK
  5
1D
330
1B
100
AcDbEntity
  8
0
100
AcDbBlockEnd
  0
ENDSEC
  0
SECTION
  2
ENTITIES
  0
ARC
  5
2F
330
17
100
AcDbEntity
  8
CUT
100
AcDbCircle
 10
23.67649318093
 20
17.110984378492
 30
1.000159954856e-07
 40
2.945167972189
100
AcDbArc
 50
189.97111737422287
 51
193.05782577262124
  0
SPLINE
  5
30
330
17
100
AcDbEntity
  8
CUT
100
AcDbSpline
 70
0
 71
3
 72
17
 73
13
 74
0
 40
0.0
 40
0.0
 40
0.0
 40
0.0
 40
0.0011439302000952217
 40
0.0011439302000952217
 40
0.0011439302000952217
 40
0.560906071078083
 40
0.560906071078083
 40
0.560906071078083
 40
0.9642016808012194
 40
0.9642016808012194
 40
0.9642016808012194
 40
1.0
 40
1.0
 40
1.0
 40
1.0
 10
20.77581125286
 20
16.601023445393
 30
1.000161091724e-07
 10
20.77286313263
 20
16.61626366081
 30
1.000161091724e-07
 10
20.76991501239
 20
16.631503876226
 30
1.000161091724e-07
 10
20.76696689216
 20
16.646744091641
 30
1.000161091724e-07
 10
19.31709580586
 20
24.141807366501
 30
1.000155975817e-07
 10
17.85874531571
 20
31.39239458293
 30
1.000150859909e-07
 10
16.29391471272
 20
38.863076711279
 30
1.000145744001e-07
 10
15.16650624747
 20
44.245455006159
 30
1.000141764962e-07
 10
14.03431530534
 20
49.501488928868
 30
1.000138354357e-07
 10
12.86787455023
 20
54.808185877809
 30
1.000134375317e-07
 10
12.7647582176
 20
55.277311399468
 30
1.000134375317e-07
 10
12.66164188498
 20
55.746436921127
 30
1.000133806883e-07
 10
12.55852555235
 20
56.215562442787
 30
1.000133238449e-07
  0
ARC
  5
31
330
17
100
AcDbEntity
  8
CUT
100
AcDbCircle
 10
5.5228673963
 20
64.671300986
 30
1.000129827844e-07
 40
11.0
100
AcDbArc
 50
-50.23760696728531
 51
-25.09752641098643
  0
LINE
  5
32
330
17
100
AcDbEntity
  8
CUT
100
AcDbLine
 10
15.48432562633
 20
60.00553739024
 30
1.000129365147e-07
 11
33.592890648894
 21
72.011090360493
 31
1.000112312121e-07
  0
ARC
  5
33
330
17
100
AcDbEntity
  8
CUT
100
AcDbCircle
 10
40.50000431179
 20
61.592751680654
 30
1.000117890726e-07
 40
12.5
100
AcDbArc
 50
416.45658954516466
 51
483.5434426358573
  0
LINE
  5
34
330
17
100
AcDbEntity
  8
CUT
100
AcDbLine
 10
47.407112123071
 20
72.011094239974
 30
1.000106627779e-07
 11
65.515723530412
 21
60.005525159199
 31
1.000108901516e-07
  0
ARC
  5
35
330
17
100
AcDbEntity
  8
CUT
100
AcDbCircle
 10
75.47717603163
 20
64.671300986001
 30
1.000101406134e-07
 40
11.0
100
AcDbArc
 50
205.09759676087367
 51
230.2376069672807
  0
SPLINE
  5
36
330
17
100
AcDbEntity
  8
CUT
100
AcDbSpline
 70
0
 71
3
 72
17
 73
13
 74
0
 40
0.0
 40
0.0
 40
0.0
 40
0.0
 40
0.035798304347192465
 40
0.035798304347192465
 40
0.035798304347192465
 40
0.4390937467568295
 40
0.4390937467568295
 40
0.4390937467568295
 40
0.9988556554084648
 40
0.9988556554084648
 40
0.9988556554084648
 40
1.0
 40
1.0
 40
1.0
 40
1.0
 10
68.441517875579
 20
56.215562442787
 30
1.000110501082e-07
 10
68.338401542954
 20
55.746436921128
 30
1.000111069516e-07
 10
68.235285210329
 20
55.277311399469
 30
1.00011163795e-07
 10
68.132168877704
 20
54.80818587781
 30
1.00011163795e-07
 10
66.965728122592
 20
49.501488928868
 30
1.000116753858e-07
 10
65.833537180466
 20
44.245455006159
 30
1.000121301331e-07
 10
64.706128715216
 20
38.863076711279
 30
1.000125848805e-07
 10
63.141298112227
 20
31.392394582931
 30
1.000132670015e-07
 10
61.682947622074
 20
24.141807366503
 30
1.000138922791e-07
 10
60.233076535773
 20
16.646744091641
 30
1.000145175567e-07
 10
60.230127346354
 20
16.631498349097
 30
1.000145175567e-07
 10
60.227178156935
 20
16.616252606552
 30
1.000145175567e-07
 10
60.224228967516
 20
16.601006864007
 30
1.000145175567e-07
  0
ARC
  5
37
330
17
100
AcDbEntity
  8
CUT
100
AcDbCircle
 10
57.323549388264
 20
17.110978169296
 30
1.000146312435e-07
 40
2.945167972189
100
AcDbArc
 50
-13.05745461542989
 51
-9.971324020679617
  0
SPLINE
  5
38
330
17
100
AcDbEntity
  8
CUT
100
AcDbSpline
 70
0
 71
3
 72
14
 73
10
 74
0
 40
0.0
 40
0.0
 40
0.0
 40
0.0
 40
0.00033227991651488026
 40
0.00033227991651488026
 40
0.00033227991651488026
 40
0.6470631689924483
 40
0.6470631689924483
 40
0.6470631689924483
 40
1.0
 40
1.0
 40
1.0
 40
1.0
 10
60.192567098152
 20
16.445582223442
 30
1.000145744001e-07
 10
60.192471241172
 20
16.445167494189
 30
1.000145744001e-07
 10
60.192375384193
 20
16.444752764941
 30
1.000145744001e-07
 10
60.192279527214
 20
16.444338035693
 30
1.000145744001e-07
 10
60.142046253726
 20
16.227001666398
 30
1.000145744001e-07
 10
60.068908865716
 20
15.951977132191
 30
1.000145744001e-07
 10
59.791860315091
 20
15.449760988625
 30
1.000146312435e-07
 10
59.642122824478
 20
15.178326307183
 30
1.000146312435e-07
 10
59.464534851824
 20
14.910610510966
 30
1.00014688087e-07
 10
59.269622418774
 20
14.65564855754
 30
1.00014688087e-07
  0
SPLINE
  5
39
330
17
100
AcDbEntity
  8
CUT
100
AcDbSpline
 70
0
 71
3
 72
14
 73
10
 74
0
 40
0.0
 40
0.0
 40
0.0
 40
0.0
 40
0.2844252768843626
 40
0.2844252768843626
 40
0.2844252768843626
 40
0.9998060154824059
 40
0.9998060154824059
 40
0.9998060154824059
 40
1.0
 40
1.0
 40
1.0
 40
1.0
 10
59.269622418766
 20
14.655648557545
 30
1.00014688087e-07
 10
58.951910152692
 20
14.243159951379
 30
1.000148017738e-07
 10
58.594505603348
 20
13.868459921503
 30
1.000148017738e-07
 10
58.265964287873
 20
13.560857501014
 30
1.000148586172e-07
 10
57.427302381989
 20
12.775645961186
 30
1.000149723041e-07
 10
56.215485552455
 20
11.87233594591
 30
1.000150859909e-07
 10
54.459433456306
 20
10.998476765461
 30
1.000151996777e-07
 10
54.45877745435
 20
10.998150321084
 30
1.000151996777e-07
 10
54.458121452394
 20
10.997823876708
 30
1.000151996777e-07
 10
54.45746545041
 20
10.997497432317
 30
1.000151996777e-07
  0
SPLINE
  5
3A
330
17
100
AcDbEntity
  8
CUT
100
AcDbSpline
 70
0
 71
3
 72
14
 73
10
 74
0
 40
0.0
 40
0.0
 40
0.0
 40
0.0
 40
0.0001301168807415086
 40
0.0001301168807415086
 40
0.0001301168807415086
 40
0.16385950876776562
 40
0.16385950876776562
 40
0.16385950876776562
 40
1.0
 40
1.0
 40
1.0
 40
1.0
 10
54.457465450452
 20
10.997497432338
 30
1.000151996777e-07
 10
54.456809628067
 20
10.997170627539
 30
1.000151996777e-07
 10
54.456153805697
 20
10.996843822748
 30
1.000151996777e-07
 10
54.455497983327
 20
10.996517017957
 30
1.000151996777e-07
 10
53.858223989955
 20
10.698887642113
 30
1.000152565211e-07
 10
53.195682180927
 20
10.404322799242
 30
1.000153133646e-07
 10
52.461579315307
 20
10.119976646386
 30
1.00015370208e-07
 10
48.715875656793
 20
8.669122175007
 30
1.000156544251e-07
 10
44.377106748283
 20
8.027942204767
 30
1.000158249553e-07
 10
40.500019393974
 20
8.000170473401
 30
1.000159954856e-07
  0
SPLINE
  5
3B
330
17
100
AcDbEntity
  8
CUT
100
AcDbSpline
 70
0
 71
3
 72
14
 73
10
 74
0
 40
0.0
 40
0.0
 40
0.0
 40
0.0
 40
0.6914404538232755
 40
0.6914404538232755
 40
0.6914404538232755
 40
0.9998819698729425
 40
0.9998819698729425
 40
0.9998819698729425
 40
1.0
 40
1.0
 40
1.0
 40
1.0
 10
40.500019393974
 20
8.000170473401
 30
1.000159954856e-07
 10
37.262226468855
 20
8.023358829487
 30
1.000161091724e-07
 10
33.770956762874
 20
8.464556052401
 30
1.000162797027e-07
 10
30.593361389036
 20
9.416775723641
 30
1.000162797027e-07
 10
29.17472837734
 20
9.841892864464
 30
1.000163365461e-07
 10
27.78939817739
 20
10.376190759007
 30
1.000163365461e-07
 10
26.54454544461
 20
10.996517017957
 30
1.000163365461e-07
 10
26.54388962215
 20
10.996843822791
 30
1.000163365461e-07
 10
26.54323379969
 20
10.997170627625
 30
1.000163365461e-07
 10
26.54257797725
 20
10.997497432453
 30
1.000163365461e-07
  0
SPLINE
  5
3C
330
17
100
AcDbEntity
  8
CUT
100
AcDbSpline
 70
0
 71
3
 72
14
 73
10
 74
0
 40
0.0
 40
0.0
 40
0.0
 40
0.0
 40
0.0002523381367489908
 40
0.0002523381367489908
 40
0.0002523381367489908
 40
0.5060413885245924
 40
0.5060413885245924
 40
0.5060413885245924
 40
1.0
 40
1.0
 40
1.0
 40
1.0
 10
26.54257797726
 20
10.99749743245
 30
1.000163365461e-07
 10
26.54192197536
 20
10.997823876796
 30
1.000163365461e-07
 10
26.54126597349
 20
10.998150321131
 30
1.000163365461e-07
 10
26.54060997162
 20
10.998476765467
 30
1.000163365461e-07
 10
25.5881011475
 20
11.472471006433
 30
1.000163933895e-07
 10
24.71419651457
 20
11.998972141982
 30
1.000163365461e-07
 10
23.95343550855
 20
12.555584899813
 30
1.000163365461e-07
 10
23.19194839876
 20
13.112728913355
 30
1.000162797027e-07
 10
22.35094599717
 20
13.850005747576
 30
1.000162797027e-07
 10
21.73042993283
 20
14.655636926797
 30
1.000162228593e-07
  0
SPLINE
  5
3D
330
17
100
AcDbEntity
  8
CUT
100
AcDbSpline
 70
0
 71
3
 72
14
 73
10
 74
0
 40
0.0
 40
0.0
 40
0.0
 40
0.0
 40
0.21836622619707974
 40
0.21836622619707974
 40
0.21836622619707974
 40
0.9997866809526204
 40
0.9997866809526204
 40
0.9997866809526204
 40
1.0
 40
1.0
 40
1.0
 40
1.0
 10
21.73042993286
 20
14.655636926819
 30
1.000162228593e-07
 10
21.62597506327
 20
14.79227424646
 30
1.000162228593e-07
 10
21.52780628527
 20
14.930760462856
 30
1.000162797027e-07
 10
21.43646004162
 20
15.070727812242
 30
1.000162797027e-07
 10
21.09714681369
 20
15.590648185852
 30
1.000162228593e-07
 10
20.89878927169
 20
16.050512941964
 30
1.000161660158e-07
 10
20.80776390072
 20
16.444338035692
 30
1.000161660158e-07
 10
20.80766900727
 20
16.444748596215
 30
1.000161660158e-07
 10
20.80757411381
 20
16.445159156738
 30
1.000161660158e-07
 10
20.80747922036
 20
16.445569717255
 30
1.000161660158e-07
  0
LINE
  5
3E
330
17
100
AcDbEntity
  8
CUT
100
AcDbLine
 10
27.94645990814
 20
84.950495904851
 30
1.000104354043e-07
 11
6.44221172877
 21
69.893059226121
 31
1.000124817673e-07
  0
LINE
  5
3F
330
17
100
AcDbEntity
  8
CUT
100
AcDbLine
 10
6.44221172877
 20
69.893059226121
 30
1.000124817673e-07
 11
7.98032352917
 21
66.392030295054
 31
1.00012709141e-07
  0
ARC
  5
40
330
17
100
AcDbEntity
  8
CUT
100
AcDbCircle
 10
5.5228673963
 20
64.671300986
 30
1.000129827844e-07
 40
3.0
100
AcDbArc
 50
-55.000000000002444
 51
34.999999999980275
  0
LINE
  5
41
330
17
100
AcDbEntity
  8
CUT
100
AcDbLine
 10
7.24359670536
 20
62.213844853133
 30
1.00013107045e-07
 11
2.56755377815
 21
58.939644346511
 31
1.000135049489e-07
  0
ARC
  5
42
330
17
100
AcDbEntity
  8
CUT
100
AcDbCircle
 10
3.71468931815
 20
57.301305695139
 30
1.00013608062e-07
 40
2.000018370845
100
AcDbArc
 50
124.99902533551136
 51
223.52328785935293
  0
ARC
  5
43
330
17
100
AcDbEntity
  8
CUT
100
AcDbCircle
 10
81.489388251048
 20
131.14267575374
 30
1.000145744001e-07
 40
109.2447880432
100
AcDbArc
 50
223.5140979872061
 51
225.5996674385184
  0
SPLINE
  5
44
330
17
100
AcDbEntity
  8
CUT
100
AcDbSpline
 70
0
 71
3
 72
11
 73
7
 74
0
 40
0.0
 40
0.0
 40
0.0
 40
0.0
 40
0.41876575882528544
 40
0.41876575882528544
 40
0.41876575882528544
 40
1.0
 40
1.0
 40
1.0
 40
1.0
 10
5.05439991742
 20
53.090741799423
 30
1.000138922791e-07
 10
6.21608474423
 20
47.805681843289
 30
1.00014290183e-07
 10
7.34251289005
 20
42.576321308547
 30
1.000146312435e-07
 10
8.46384188711
 20
37.222967097372
 30
1.000150291475e-07
 10
10.02021271011
 20
29.792672936269
 30
1.000155407382e-07
 10
11.46996357119
 20
22.584894706769
 30
1.00016052329e-07
 10
12.91257439869
 20
15.127363112929
 30
1.000166207632e-07
  0
ARC
  5
45
330
17
100
AcDbEntity
  8
CUT
100
AcDbCircle
 10
23.67649418861
 20
17.110978356255
 30
1.000159954856e-07
 40
10.945167695346
100
AcDbArc
 50
190.44153167464322
 51
193.0326126434719
  0
SPLINE
  5
46
330
17
100
AcDbEntity
  8
CUT
100
AcDbSpline
 70
0
 71
3
 72
11
 73
7
 74
0
 40
0.0
 40
0.0
 40
0.0
 40
0.0
 40
0.7792910206643884
 40
0.7792910206643884
 40
0.7792910206643884
 40
1.0
 40
1.0
 40
1.0
 40
1.0
 10
13.01325341508
 20
14.642781406198
 30
1.000166207632e-07
 10
13.36086272562
 20
13.138835112437
 30
1.000166776066e-07
 10
14.00367029649
 20
11.822062790987
 30
1.000167912935e-07
 10
14.73695951891
 20
10.698463782458
 30
1.000168481369e-07
 10
14.94463997659
 20
10.38024070048
 30
1.000168481369e-07
 10
15.16112538681
 20
10.075981589185
 30
1.000169049803e-07
 10
15.38372370387
 20
9.785378019715
 30
1.000169049803e-07
  0
SPLINE
  5
47
330
17
100
AcDbEntity
  8
CUT
100
AcDbSpline
 70
0
 71
3
 72
11
 73
7
 74
0
 40
0.0
 40
0.0
 40
0.0
 40
0.0
 40
0.49466346656886023
 40
0.49466346656886023
 40
0.49466346656886023
 40
1.0
 40
1.0
 40
1.0
 40
1.0
 10
15.38372370387
 20
9.785378019715
 30
1.000169049803e-07
 10
16.64228992083
 20
8.148275227361
 30
1.000169618237e-07
 10
18.08423800868
 20
6.937170501858
 30
1.000170186671e-07
 10
19.22958570071
 20
6.099173900429
 30
1.000170186671e-07
 10
20.39964589594
 20
5.243096332118
 30
1.000170186671e-07
 10
21.66160696316
 20
4.490602438624
 30
1.000170186671e-07
 10
22.97650359523
 20
3.836274189598
 30
1.000170186671e-07
  0
SPLINE
  5
48
330
17
100
AcDbEntity
  8
CUT
100
AcDbSpline
 70
0
 71
3
 72
11
 73
7
 74
0
 40
0.0
 40
0.0
 40
0.0
 40
0.0
 40
0.30743623118856683
 40
0.30743623118856683
 40
0.30743623118856683
 40
1.0
 40
1.0
 40
1.0
 40
1.0
 10
22.97650359523
 20
3.836274189598
 30
1.000170186671e-07
 10
24.69032766366
 20
2.98225343287
 30
1.000170186671e-07
 10
26.49352700401
 20
2.293880237169
 30
1.000170186671e-07
 10
28.29692136287
 20
1.753462914796
 30
1.000170186671e-07
 10
32.35944056888
 20
0.53606099679
 30
1.000169618237e-07
 10
36.584655319736
 20
0.02328407563699
 30
1.000168481369e-07
 10
40.500021713965
 20
9.999999051047e-08
 30
1.000166776066e-07
  0
SPLINE
  5
49
330
17
100
AcDbEntity
  8
CUT
100
AcDbSpline
 70
0
 71
3
 72
11
 73
7
 74
0
 40
0.0
 40
0.0
 40
0.0
 40
0.0
 40
0.8368077136443853
 40
0.8368077136443853
 40
0.8368077136443853
 40
1.0
 40
1.0
 40
1.0
 40
1.0
 10
40.500021713965
 20
9.999999051047e-08
 30
1.000166776066e-07
 10
45.184660123478
 20
0.02785879714599
 30
1.000165070764e-07
 10
50.440287700976
 20
0.757893298299
 30
1.000162228593e-07
 10
55.351099011414
 20
2.66003858191
 30
1.000158249553e-07
 10
56.308793966354
 20
3.030990513581
 30
1.000157681119e-07
 10
57.198301807426
 20
3.425047380607
 30
1.000157112685e-07
 10
58.023539832708
 20
3.836274189598
 30
1.000155975817e-07
  0
SPLINE
  5
4A
330
17
100
AcDbEntity
  8
CUT
100
AcDbSpline
 70
0
 71
3
 72
11
 73
7
 74
0
 40
0.0
 40
0.0
 40
0.0
 40
0.0
 40
0.7145990767047196
 40
0.7145990767047196
 40
0.7145990767047196
 40
1.0
 40
1.0
 40
1.0
 40
1.0
 10
58.023539832708
 20
3.836274189598
 30
1.000155975817e-07
 10
60.442759533098
 20
5.040143567588
 30
1.000154838948e-07
 10
62.31113776968
 20
6.389107750093
 30
1.000152565211e-07
 10
63.733660083817
 20
7.72096857373
 30
1.000150859909e-07
 10
64.301795693138
 20
8.252895245845
 30
1.000150291475e-07
 10
64.967399299026
 20
8.941283028503
 30
1.000149154606e-07
 10
65.616319724061
 20
9.785378019715
 30
1.000148586172e-07
  0
SPLINE
  5
4B
330
17
100
AcDbEntity
  8
CUT
100
AcDbSpline
 70
0
 71
3
 72
11
 73
7
 74
0
 40
0.0
 40
0.0
 40
0.0
 40
0.0
 40
0.3547049655236758
 40
0.3547049655236758
 40
0.3547049655236758
 40
1.0
 40
1.0
 40
1.0
 40
1.0
 10
65.616319724061
 20
9.785378019715
 30
1.000148586172e-07
 10
66.02730723093
 20
10.321924917646
 30
1.000148017738e-07
 10
66.430626022157
 20
10.921941957611
 30
1.00014688087e-07
 10
66.796695447774
 20
11.585529530246
 30
1.000146312435e-07
 10
67.462665213029
 20
12.792757528672
 30
1.000145175567e-07
 10
67.800219396021
 20
13.835575790011
 30
1.000144038699e-07
 10
67.986790012852
 20
14.642781406199
 30
1.000143470264e-07
  0
ARC
  5
4C
330
17
100
AcDbEntity
  8
CUT
100
AcDbCircle
 10
57.323549388264
 20
17.110978169296
 30
1.000146312435e-07
 40
10.945167695346
100
AcDbArc
 50
-13.032611865833179
 51
-10.441530853859913
  0
SPLINE
  5
4D
330
17
100
AcDbEntity
  8
CUT
100
AcDbSpline
 70
0
 71
3
 72
11
 73
7
 74
0
 40
0.0
 40
0.0
 40
0.0
 40
0.0
 40
0.5812342411745816
 40
0.5812342411745816
 40
0.5812342411745816
 40
1.0
 40
1.0
 40
1.0
 40
1.0
 10
68.087469029246
 20
15.12736311293
 30
1.000143470264e-07
 10
69.530079856745
 20
22.584894706771
 30
1.000136649054e-07
 10
70.979830717823
 20
29.79267293627
 30
1.000130396278e-07
 10
72.536201540827
 20
37.222967097372
 30
1.000124143502e-07
 10
73.65753053788
 20
42.576321308548
 30
1.000119027594e-07
 10
74.783958683709
 20
47.805681843289
 30
1.000114480121e-07
 10
75.945643510515
 20
53.090741799423
 30
1.000109932647e-07
  0
ARC
  5
4E
330
17
100
AcDbEntity
  8
CUT
100
AcDbCircle
 10
-0.48934490037
 20
131.14267582972
 30
1.000079237201e-07
 40
109.24478815155
100
AcDbArc
 50
-45.599667437449284
 51
-43.51409798820747
  0
ARC
  5
4F
330
17
100
AcDbEntity
  8
CUT
100
AcDbCircle
 10
77.285354144287
 20
57.301305698607
 30
1.000105953608e-07
 40
2.000018348213
100
AcDbArc
 50
-43.52328849326787
 51
55.00097541726312
  0
LINE
  5
50
330
17
100
AcDbEntity
  8
CUT
100
AcDbLine
 10
78.432489649783
 20
58.939644346512
 30
1.000104354043e-07
 11
73.756446722577
 21
62.213844853134
 31
1.000103785608e-07
  0
ARC
  5
51
330
17
100
AcDbEntity
  8
CUT
100
AcDbCircle
 10
75.47717603163
 20
64.671300986001
 30
1.000101406134e-07
 40
3.0
100
AcDbArc
 50
-214.99999999999756
 51
-124.9999999999975
  0
LINE
  5
52
330
17
100
AcDbEntity
  8
CUT
100
AcDbLine
 10
73.019719898763
 20
66.392030295054
 30
1.000100943438e-07
 11
74.557825327545
 21
69.893063687577
 31
1.000097532832e-07
  0
LINE
  5
53
330
17
100
AcDbEntity
  8
CUT
100
AcDbLine
 10
74.557825327545
 20
69.893063687577
 30
1.000097532832e-07
 11
53.053583519791
 21
84.950495904851
 31
1.000094122227e-07
  0
LINE
  5
54
330
17
100
AcDbEntity
  8
CUT
100
AcDbLine
 10
53.053583519791
 20
84.950495904851
 30
1.000094122227e-07
 11
54.487524610669
 21
86.998376015574
 31
1.000091848491e-07
  0
LINE
  5
55
330
17
100
AcDbEntity
  8
CUT
100
AcDbLine
 10
54.487524610669
 20
86.998376015574
 30
1.000091848491e-07
 11
75.583201687805
 21
72.227023902525
 31
1.000095259096e-07
  0
LINE
  5
56
330
17
100
AcDbEntity
  8
CUT
100
AcDbLine
 10
75.583201687805
 20
72.227023902525
 30
1.000095259096e-07
 11
81.0000001
 21
84.556732755241
 31
1.000083321978e-07
  0
LINE
  5
57
330
17
100
AcDbEntity
  8
CUT
100
AcDbLine
 10
81.0000001
 20
84.556732755241
 30
1.000083321978e-07
 11
81.0000001
 21
91.590341575798
 31
1.000077637636e-07
  0
LINE
  5
58
330
17
100
AcDbEntity
  8
CUT
100
AcDbLine
 10
81.0000001
 20
91.590341575798
 30
1.000077637636e-07
 11
43.000015715548
 21
117.59034157579
 31
1.000072521728e-07
  0
LINE
  5
59
330
17
100
AcDbEntity
  8
CUT
100
AcDbLine
 10
43.000015715548
 20
117.59034157579
 30
1.000072521728e-07
 11
38.000015715548
 21
117.59034157579
 31
1.000074795465e-07
  0
LINE
  5
5A
330
17
100
AcDbEntity
  8
CUT
100
AcDbLine
 10
38.000015715548
 20
117.59034157579
 30
1.000074795465e-07
 11
1.000001006446e-07
 21
91.590341575797
 31
1.000110606819e-07
  0
LINE
  5
5B
330
17
100
AcDbEntity
  8
CUT
100
AcDbLine
 10
1.000001006446e-07
 20
91.590341575797
 30
1.000110606819e-07
 11
1.000001006446e-07
 21
84.55673275524
 31
1.000116291161e-07
  0
LINE
  5
5C
330
17
100
AcDbEntity
  8
CUT
100
AcDbLine
 10
1.000001006446e-07
 20
84.55673275524
 30
1.000116291161e-07
 11
5.41683112088
 21
72.227016466844
 31
1.000123680805e-07
  0
LINE
  5
5D
330
17
100
AcDbEntity
  8
CUT
100
AcDbLine
 10
5.41683112088
 20
72.227016466844
 30
1.000123680805e-07
 11
26.51251881726
 21
86.998376015573
 31
1.000103217174e-07
  0
LINE
  5
5E
330
17
100
AcDbEntity
  8
CUT
100
AcDbLine
 10
26.51251881726
 20
86.998376015573
 30
1.000103217174e-07
 11
27.94645990814
 21
84.950495904851
 31
1.000104354043e-07
  0
TEXT
  5
64
330
17
100
AcDbEntity
  8
LABELS_NONCUT
100
AcDbText
 10
0.0
 20
-6.0
 30
0.0
 40
3.0
  1
A18 PLY 2.500mm QTY 1
100
AcDbText
  0
ENDSEC
  0
SECTION
  2
OBJECTS
  0
DICTIONARY
  5
A
330
0
100
AcDbDictionary
281
1
  3
ACAD_COLOR
350
B
  3
ACAD_GROUP
350
C
  3
ACAD_LAYOUT
350
D
  3
ACAD_MATERIAL
350
E
  3
ACAD_MLEADERSTYLE
350
F
  3
ACAD_MLINESTYLE
350
10
  3
ACAD_PLOTSETTINGS
350
11
  3
ACAD_PLOTSTYLENAME
350
12
  3
ACAD_SCALELIST
350
14
  3
ACAD_TABLESTYLE
350
15
  3
ACAD_VISUALSTYLE
350
16
  3
EZDXF_META
350
2D
  0
DICTIONARY
  5
B
330
A
100
AcDbDictionary
281
1
  0
DICTIONARY
  5
C
330
A
100
AcDbDictionary
281
1
  0
DICTIONARY
  5
D
330
A
100
AcDbDictionary
281
1
  3
Model
350
1A
  3
Layout1
350
1E
  0
DICTIONARY
  5
E
330
A
100
AcDbDictionary
281
1
  3
ByBlock
350
1F
  3
ByLayer
350
20
  3
Global
350
21
  0
DICTIONARY
  5
F
330
A
100
AcDbDictionary
281
1
  3
Standard
350
2C
  0
DICTIONARY
  5
10
330
A
100
AcDbDictionary
281
1
  3
Standard
350
22
  0
DICTIONARY
  5
11
330
A
100
AcDbDictionary
281
1
  0
ACDBDICTIONARYWDFLT
  5
12
330
A
100
AcDbDictionary
281
1
  3
Normal
350
13
100
AcDbDictionaryWithDefault
340
13
  0
ACDBPLACEHOLDER
  5
13
330
12
  0
DICTIONARY
  5
14
330
A
100
AcDbDictionary
281
1
  0
DICTIONARY
  5
15
330
A
100
AcDbDictionary
281
1
  0
DICTIONARY
  5
16
330
A
100
AcDbDictionary
281
1
  0
LAYOUT
  5
1A
330
D
100
AcDbPlotSettings
  1

  4
A3
  6

 40
7.5
 41
20.0
 42
7.5
 43
20.0
 44
420.0
 45
297.0
 46
0.0
 47
0.0
 48
0.0
 49
0.0
140
0.0
141
0.0
142
1.0
143
1.0
 70
1024
 72
1
 73
0
 74
5
  7

 75
16
 76
0
 77
2
 78
300
147
1.0
148
0.0
149
0.0
100
AcDbLayout
  1
Model
 70
1
 71
0
 10
0.0
 20
0.0
 11
420.0
 21
297.0
 12
0.0
 22
0.0
 32
0.0
 14
1e+20
 24
1e+20
 34
1e+20
 15
-1e+20
 25
-1e+20
 35
-1e+20
146
0.0
 13
0.0
 23
0.0
 33
0.0
 16
1.0
 26
0.0
 36
0.0
 17
0.0
 27
1.0
 37
0.0
 76
1
330
17
  0
LAYOUT
  5
1E
330
D
100
AcDbPlotSettings
  1

  4
A3
  6

 40
7.5
 41
20.0
 42
7.5
 43
20.0
 44
420.0
 45
297.0
 46
0.0
 47
0.0
 48
0.0
 49
0.0
140
0.0
141
0.0
142
1.0
143
1.0
 70
0
 72
1
 73
0
 74
5
  7

 75
16
 76
0
 77
2
 78
300
147
1.0
148
0.0
149
0.0
100
AcDbLayout
  1
Layout1
 70
1
 71
1
 10
0.0
 20
0.0
 11
420.0
 21
297.0
 12
0.0
 22
0.0
 32
0.0
 14
1e+20
 24
1e+20
 34
1e+20
 15
-1e+20
 25
-1e+20
 35
-1e+20
146
0.0
 13
0.0
 23
0.0
 33
0.0
 16
1.0
 26
0.0
 36
0.0
 17
0.0
 27
1.0
 37
0.0
 76
1
330
1B
  0
MATERIAL
  5
1F
102
{ACAD_REACTORS
330
E
102
}
330
E
100
AcDbMaterial
  1
ByBlock
  2

 70
0
 40
1.0
 71
1
 41
1.0
 91
-1023410177
 42
1.0
 72
1
  3

 73
1
 74
1
 75
1
 44
0.5
 73
0
 45
1.0
 46
1.0
 77
1
  4

 78
1
 79
1
170
1
 48
1.0
171
1
  6

172
1
173
1
174
1
140
1.0
141
1.0
175
1
  7

176
1
177
1
178
1
143
1.0
179
1
  8

270
1
271
1
272
1
145
1.0
146
1.0
273
1
  9

274
1
275
1
276
1
 42
1.0
 72
1
  3

 73
1
 74
1
 75
1
 94
63
  0
MATERIAL
  5
20
102
{ACAD_REACTORS
330
E
102
}
330
E
100
AcDbMaterial
  1
ByLayer
  2

 70
0
 40
1.0
 71
1
 41
1.0
 91
-1023410177
 42
1.0
 72
1
  3

 73
1
 74
1
 75
1
 44
0.5
 73
0
 45
1.0
 46
1.0
 77
1
  4

 78
1
 79
1
170
1
 48
1.0
171
1
  6

172
1
173
1
174
1
140
1.0
141
1.0
175
1
  7

176
1
177
1
178
1
143
1.0
179
1
  8

270
1
271
1
272
1
145
1.0
146
1.0
273
1
  9

274
1
275
1
276
1
 42
1.0
 72
1
  3

 73
1
 74
1
 75
1
 94
63
  0
MATERIAL
  5
21
102
{ACAD_REACTORS
330
E
102
}
330
E
100
AcDbMaterial
  1
Global
  2

 70
0
 40
1.0
 71
1
 41
1.0
 91
-1023410177
 42
1.0
 72
1
  3

 73
1
 74
1
 75
1
 44
0.5
 73
0
 45
1.0
 46
1.0
 77
1
  4

 78
1
 79
1
170
1
 48
1.0
171
1
  6

172
1
173
1
174
1
140
1.0
141
1.0
175
1
  7

176
1
177
1
178
1
143
1.0
179
1
  8

270
1
271
1
272
1
145
1.0
146
1.0
273
1
  9

274
1
275
1
276
1
 42
1.0
 72
1
  3

 73
1
 74
1
 75
1
 94
63
  0
MLINESTYLE
  5
22
102
{ACAD_REACTORS
330
10
102
}
330
10
100
AcDbMlineStyle
  2
Standard
 70
0
  3

 62
256
 51
90.0
 52
90.0
 71
2
 49
0.5
 62
256
  6
BYLAYER
 49
-0.5
 62
256
  6
BYLAYER
  0
MLEADERSTYLE
  5
2C
102
{ACAD_REACTORS
330
F
102
}
330
F
100
AcDbMLeaderStyle
179
2
170
2
171
1
172
0
 90
2
 40
0.0
 41
0.0
173
1
 91
-1056964608
 92
-2
290
1
 42
2.0
291
1
 43
8.0
  3
Standard
 44
4.0
300

342
29
174
1
175
1
176
0
178
1
 93
-1056964608
 45
4.0
292
0
297
0
 46
4.0
 94
-1056964608
 47
1.0
 49
1.0
140
1.0
294
1
141
0.0
177
0
142
1.0
295
0
296
0
143
3.75
271
0
272
9
273
9
  0
DICTIONARY
  5
2D
330
A
100
AcDbDictionary
280
1
281
1
  3
CREATED_BY_EZDXF
350
2E
  3
WRITTEN_BY_EZDXF
350
62
  0
DICTIONARYVAR
  5
2E
330
2D
100
DictionaryVariables
280
0
  1
1.4.4 @ 2026-09-19T11:24:45.464589+00:00
  0
DICTIONARYVAR
  5
62
330
2D
100
DictionaryVariables
280
0
  1
1.4.4 @ 2026-09-19T11:25:49.999397+00:00
  0
ENDSEC
  0
EOF
