  0
SECTION
  2
HEADER
  9
$ACADVER
  1
AC1024
  9
$ACADMAINTVER
 70
6
  9
$DWGCODEPAGE
  3
ANSI_1252
  9
$LASTSAVEDBY
  1
ezdxf
  9
$INSBASE
 10
0.0
 20
0.0
 30
0.0
  9
$EXTMIN
 10
1e+20
 20
1e+20
 30
1e+20
  9
$EXTMAX
 10
-1e+20
 20
-1e+20
 30
-1e+20
  9
$LIMMIN
 10
0.0
 20
0.0
  9
$LIMMAX
 10
420.0
 20
297.0
  9
$ORTHOMODE
 70
0
  9
$REGENMODE
 70
1
  9
$FILLMODE
 70
1
  9
$QTEXTMODE
 70
0
  9
$MIRRTEXT
 70
1
  9
$LTSCALE
 40
1.0
  9
$ATTMODE
 70
1
  9
$TEXTSIZE
 40
2.5
  9
$TRACEWID
 40
1.0
  9
$TEXTSTYLE
  7
Standard
  9
$CLAYER
  8
0
  9
$CELTYPE
  6
ByLayer
  9
$CECOLOR
 62
256
  9
$CELTSCALE
 40
1.0
  9
$DISPSILH
 70
0
  9
$DIMSCALE
 40
1.0
  9
$DIMASZ
 40
2.5
  9
$DIMEXO
 40
0.625
  9
$DIMDLI
 40
3.75
  9
$DIMRND
 40
0.0
  9
$DIMDLE
 40
0.0
  9
$DIMEXE
 40
1.25
  9
$DIMTP
 40
0.0
  9
$DIMTM
 40
0.0
  9
$DIMTXT
 40
2.5
  9
$DIMCEN
 40
2.5
  9
$DIMTSZ
 40
0.0
  9
$DIMTOL
 70
0
  9
$DIMLIM
 70
0
  9
$DIMTIH
 70
0
  9
$DIMTOH
 70
0
  9
$DIMSE1
 70
0
  9
$DIMSE2
 70
0
  9
$DIMTAD
 70
1
  9
$DIMZIN
 70
8
  9
$DIMBLK
  1

  9
$DIMASO
 70
1
  9
$DIMSHO
 70
1
  9
$DIMPOST
  1

  9
$DIMAPOST
  1

  9
$DIMALT
 70
0
  9
$DIMALTD
 70
3
  9
$DIMALTF
 40
0.03937007874
  9
$DIMLFAC
 40
1.0
  9
$DIMTOFL
 70
1
  9
$DIMTVP
 40
0.0
  9
$DIMTIX
 70
0
  9
$DIMSOXD
 70
0
  9
$DIMSAH
 70
0
  9
$DIMBLK1
  1

  9
$DIMBLK2
  1

  9
$DIMSTYLE
  2
ISO-25
  9
$DIMCLRD
 70
0
  9
$DIMCLRE
 70
0
  9
$DIMCLRT
 70
0
  9
$DIMTFAC
 40
1.0
  9
$DIMGAP
 40
0.625
  9
$DIMJUST
 70
0
  9
$DIMSD1
 70
0
  9
$DIMSD2
 70
0
  9
$DIMTOLJ
 70
0
  9
$DIMTZIN
 70
8
  9
$DIMALTZ
 70
0
  9
$DIMALTTZ
 70
0
  9
$DIMUPT
 70
0
  9
$DIMDEC
 70
2
  9
$DIMTDEC
 70
2
  9
$DIMALTU
 70
2
  9
$DIMALTTD
 70
3
  9
$DIMTXSTY
  7
Standard
  9
$DIMAUNIT
 70
0
  9
$DIMADEC
 70
0
  9
$DIMALTRND
 40
0.0
  9
$DIMAZIN
 70
0
  9
$DIMDSEP
 70
44
  9
$DIMATFIT
 70
3
  9
$DIMFRAC
 70
0
  9
$DIMLDRBLK
  1

  9
$DIMLUNIT
 70
2
  9
$DIMLWD
 70
-2
  9
$DIMLWE
 70
-2
  9
$DIMTMOVE
 70
0
  9
$DIMFXL
 40
1.0
  9
$DIMFXLON
 70
0
  9
$DIMJOGANG
 40
0.785398163397
  9
$DIMTFILL
 70
0
  9
$DIMTFILLCLR
 70
0
  9
$DIMARCSYM
 70
0
  9
$DIMLTYPE
  6

  9
$DIMLTEX1
  6

  9
$DIMLTEX2
  6

  9
$DIMTXTDIRECTION
 70
0
  9
$LUNITS
 70
2
  9
$LUPREC
 70
4
  9
$SKETCHINC
 40
1.0
  9
$FILLETRAD
 40
10.0
  9
$AUNITS
 70
0
  9
$AUPREC
 70
2
  9
$MENU
  1
.
  9
$ELEVATION
 40
0.0
  9
$PELEVATION
 40
0.0
  9
$THICKNESS
 40
0.0
  9
$LIMCHECK
 70
0
  9
$CHAMFERA
 40
0.0
  9
$CHAMFERB
 40
0.0
  9
$CHAMFERC
 40
0.0
  9
$CHAMFERD
 40
0.0
  9
$SKPOLY
 70
0
  9
$TDCREATE
 40
2461303.738449074
  9
$TDUCREATE
 40
2458532.153996898
  9
$TDUPDATE
 40
2461303.738449074
  9
$TDUUPDATE
 40
2458532.1544311
  9
$TDINDWG
 40
0.0
  9
$TDUSRTIMER
 40
0.0
  9
$USRTIMER
 70
1
  9
$ANGBASE
 50
0.0
  9
$ANGDIR
 70
0
  9
$PDMODE
 70
0
  9
$PDSIZE
 40
0.0
  9
$PLINEWID
 40
0.0
  9
$SPLFRAME
 70
0
  9
$SPLINETYPE
 70
6
  9
$SPLINESEGS
 70
8
  9
$HANDSEED
  5
A7
  9
$SURFTAB1
 70
6
  9
$SURFTAB2
 70
6
  9
$SURFTYPE
 70
6
  9
$SURFU
 70
6
  9
$SURFV
 70
6
  9
$UCSBASE
  2

  9
$UCSNAME
  2

  9
$UCSORG
 10
0.0
 20
0.0
 30
0.0
  9
$UCSXDIR
 10
1.0
 20
0.0
 30
0.0
  9
$UCSYDIR
 10
0.0
 20
1.0
 30
0.0
  9
$UCSORTHOREF
  2

  9
$UCSORTHOVIEW
 70
0
  9
$UCSORGTOP
 10
0.0
 20
0.0
 30
0.0
  9
$UCSORGBOTTOM
 10
0.0
 20
0.0
 30
0.0
  9
$UCSORGLEFT
 10
0.0
 20
0.0
 30
0.0
  9
$UCSORGRIGHT
 10
0.0
 20
0.0
 30
0.0
  9
$UCSORGFRONT
 10
0.0
 20
0.0
 30
0.0
  9
$UCSORGBACK
 10
0.0
 20
0.0
 30
0.0
  9
$PUCSBASE
  2

  9
$PUCSNAME
  2

  9
$PUCSORG
 10
0.0
 20
0.0
 30
0.0
  9
$PUCSXDIR
 10
1.0
 20
0.0
 30
0.0
  9
$PUCSYDIR
 10
0.0
 20
1.0
 30
0.0
  9
$PUCSORTHOREF
  2

  9
$PUCSORTHOVIEW
 70
0
  9
$PUCSORGTOP
 10
0.0
 20
0.0
 30
0.0
  9
$PUCSORGBOTTOM
 10
0.0
 20
0.0
 30
0.0
  9
$PUCSORGLEFT
 10
0.0
 20
0.0
 30
0.0
  9
$PUCSORGRIGHT
 10
0.0
 20
0.0
 30
0.0
  9
$PUCSORGFRONT
 10
0.0
 20
0.0
 30
0.0
  9
$PUCSORGBACK
 10
0.0
 20
0.0
 30
0.0
  9
$USERI1
 70
0
  9
$USERI2
 70
0
  9
$USERI3
 70
0
  9
$USERI4
 70
0
  9
$USERI5
 70
0
  9
$USERR1
 40
0.0
  9
$USERR2
 40
0.0
  9
$USERR3
 40
0.0
  9
$USERR4
 40
0.0
  9
$USERR5
 40
0.0
  9
$WORLDVIEW
 70
1
  9
$SHADEDGE
 70
3
  9
$SHADEDIF
 70
70
  9
$TILEMODE
 70
1
  9
$MAXACTVP
 70
64
  9
$PINSBASE
 10
0.0
 20
0.0
 30
0.0
  9
$PLIMCHECK
 70
0
  9
$PEXTMIN
 10
1e+20
 20
1e+20
 30
1e+20
  9
$PEXTMAX
 10
-1e+20
 20
-1e+20
 30
-1e+20
  9
$PLIMMIN
 10
0.0
 20
0.0
  9
$PLIMMAX
 10
420.0
 20
297.0
  9
$UNITMODE
 70
0
  9
$VISRETAIN
 70
1
  9
$PLINEGEN
 70
0
  9
$PSLTSCALE
 70
1
  9
$TREEDEPTH
 70
3020
  9
$CMLSTYLE
  2
Standard
  9
$CMLJUST
 70
0
  9
$CMLSCALE
 40
20.0
  9
$PROXYGRAPHICS
 70
1
  9
$MEASUREMENT
 70
1
  9
$CELWEIGHT
370
-1
  9
$ENDCAPS
280
0
  9
$JOINSTYLE
280
0
  9
$LWDISPLAY
290
0
  9
$INSUNITS
 70
4
  9
$HYPERLINKBASE
  1

  9
$STYLESHEET
  1

  9
$XEDIT
290
1
  9
$CEPSNTYPE
380
0
  9
$PSTYLEMODE
290
1
  9
$FINGERPRINTGUID
  2
{ED93816F-7F4A-47E9-8FF0-2FFEB5A63F24}
  9
$VERSIONGUID
  2
{C11FEA87-921F-4B23-8490-3425F6FCFA0C}
  9
$EXTNAMES
290
1
  9
$PSVPSCALE
 40
0.0
  9
$OLESTARTUP
290
0
  9
$SORTENTS
280
127
  9
$INDEXCTL
280
0
  9
$HIDETEXT
280
1
  9
$XCLIPFRAME
280
1
  9
$HALOGAP
280
0
  9
$OBSCOLOR
 70
257
  9
$OBSLTYPE
280
0
  9
$INTERSECTIONDISPLAY
280
0
  9
$INTERSECTIONCOLOR
 70
257
  9
$DIMASSOC
280
2
  9
$PROJECTNAME
  1

  9
$CAMERADISPLAY
290
0
  9
$LENSLENGTH
 40
50.0
  9
$CAMERAHEIGHT
 40
0.0
  9
$STEPSPERSEC
 40
24.0
  9
$STEPSIZE
 40
100.0
  9
$3DDWFPREC
 40
2.0
  9
$PSOLWIDTH
 40
0.005
  9
$PSOLHEIGHT
 40
0.08
  9
$LOFTANG1
 40
1.570796326795
  9
$LOFTANG2
 40
1.570796326795
  9
$LOFTMAG1
 40
0.0
  9
$LOFTMAG2
 40
0.0
  9
$LOFTPARAM
 70
7
  9
$LOFTNORMALS
280
1
  9
$LATITUDE
 40
37.795
  9
$LONGITUDE
 40
-122.394
  9
$NORTHDIRECTION
 40
0.0
  9
$TIMEZONE
 70
-8000
  9
$LIGHTGLYPHDISPLAY
280
1
  9
$TILEMODELIGHTSYNCH
280
1
  9
$CMATERIAL
347
20
  9
$SOLIDHIST
280
0
  9
$SHOWHIST
280
1
  9
$DWFFRAME
280
2
  9
$DGNFRAME
280
2
  9
$REALWORLDSCALE
290
1
  9
$INTERFERECOLOR
 62
256
  9
$CSHADOW
280
0
  9
$SHADOWPLANELOCATION
 40
0.0
  0
ENDSEC
  0
SECTION
  2
CLASSES
  0
CLASS
  1
ACDBDICTIONARYWDFLT
  2
AcDbDictionaryWithDefault
  3
ObjectDBX Classes
 90
0
 91
0
280
0
281
0
  0
CLASS
  1
SUN
  2
AcDbSun
  3
SCENEOE
 90
1153
 91
0
280
0
281
0
  0
CLASS
  1
VISUALSTYLE
  2
AcDbVisualStyle
  3
ObjectDBX Classes
 90
4095
 91
0
280
0
281
0
  0
CLASS
  1
MATERIAL
  2
AcDbMaterial
  3
ObjectDBX Classes
 90
1153
 91
0
280
0
281
0
  0
CLASS
  1
SCALE
  2
AcDbScale
  3
ObjectDBX Classes
 90
1153
 91
0
280
0
281
0
  0
CLASS
  1
TABLESTYLE
  2
AcDbTableStyle
  3
ObjectDBX Classes
 90
4095
 91
0
280
0
281
0
  0
CLASS
  1
MLEADERSTYLE
  2
AcDbMLeaderStyle
  3
ACDB_MLEADERSTYLE_CLASS
 90
4095
 91
0
280
0
281
0
  0
CLASS
  1
DICTIONARYVAR
  2
AcDbDictionaryVar
  3
ObjectDBX Classes
 90
0
 91
0
280
0
281
0
  0
CLASS
  1
CELLSTYLEMAP
  2
AcDbCellStyleMap
  3
ObjectDBX Classes
 90
1152
 91
0
280
0
281
0
  0
CLASS
  1
MENTALRAYRENDERSETTINGS
  2
AcDbMentalRayRenderSettings
  3
SCENEOE
 90
1024
 91
0
280
0
281
0
  0
CLASS
  1
ACDBDETAILVIEWSTYLE
  2
AcDbDetailViewStyle
  3
ObjectDBX Classes
 90
1025
 91
0
280
0
281
0
  0
CLASS
  1
ACDBSECTIONVIEWSTYLE
  2
AcDbSectionViewStyle
  3
ObjectDBX Classes
 90
1025
 91
0
280
0
281
0
  0
CLASS
  1
RASTERVARIABLES
  2
AcDbRasterVariables
  3
ISM
 90
0
 91
0
280
0
281
0
  0
CLASS
  1
ACDBPLACEHOLDER
  2
AcDbPlaceHolder
  3
ObjectDBX Classes
 90
0
 91
0
280
0
281
0
  0
CLASS
  1
LAYOUT
  2
AcDbLayout
  3
ObjectDBX Classes
 90
0
 91
0
280
0
281
0
  0
ENDSEC
  0
SECTION
  2
TABLES
  0
TABLE
  2
VPORT
  5
8
330
0
100
AcDbSymbolTable
 70
1
  0
VPORT
  5
23
330
8
100
AcDbSymbolTableRecord
100
AcDbViewportTableRecord
  2
*Active
 70
0
 10
0.0
 20
0.0
 11
1.0
 21
1.0
 12
0.0
 22
0.0
 13
0.0
 23
0.0
 14
0.5
 24
0.5
 15
0.5
 25
0.5
 16
0.0
 26
0.0
 36
1.0
 17
0.0
 27
0.0
 37
0.0
 40
1000.0
 41
1.34
 42
50.0
 43
0.0
 44
0.0
 50
0.0
 51
0.0
 71
0
 72
1000
 73
1
 74
3
 75
0
 76
0
 77
0
 78
0
281
0
 65
0
146
0.0
  0
ENDTAB
  0
TABLE
  2
LTYPE
  5
2
330
0
100
AcDbSymbolTable
 70
3
  0
LTYPE
  5
24
330
2
100
AcDbSymbolTableRecord
100
AcDbLinetypeTableRecord
  2
ByBlock
 70
0
  3

 72
65
 73
0
 40
0.0
  0
LTYPE
  5
25
330
2
100
AcDbSymbolTableRecord
100
AcDbLinetypeTableRecord
  2
ByLayer
 70
0
  3

 72
65
 73
0
 40
0.0
  0
LTYPE
  5
26
330
2
100
AcDbSymbolTableRecord
100
AcDbLinetypeTableRecord
  2
Continuous
 70
0
  3

 72
65
 73
0
 40
0.0
  0
ENDTAB
  0
TABLE
  2
LAYER
  5
1
330
0
100
AcDbSymbolTable
 70
6
  0
LAYER
  5
27
330
1
100
AcDbSymbolTableRecord
100
AcDbLayerTableRecord
  2
0
 70
0
 62
7
  6
Continuous
370
-3
390
13
347
21
  0
LAYER
  5
28
330
1
100
AcDbSymbolTableRecord
100
AcDbLayerTableRecord
  2
Defpoints
 70
0
 62
7
  6
Continuous
290
0
370
-3
390
13
347
21
  0
LAYER
  5
2F
330
1
100
AcDbSymbolTableRecord
100
AcDbLayerTableRecord
  2
CUT
 70
0
 62
7
  6
Continuous
370
-3
390
13
347
21
  0
LAYER
  5
30
330
1
100
AcDbSymbolTableRecord
100
AcDbLayerTableRecord
  2
REFERENCE
 70
0
 62
3
  6
Continuous
370
-3
390
13
347
21
  0
LAYER
  5
31
330
1
100
AcDbSymbolTableRecord
100
AcDbLayerTableRecord
  2
LABEL
 70
0
 62
3
  6
Continuous
370
-3
390
13
347
21
  0
LAYER
  5
32
330
1
100
AcDbSymbolTableRecord
100
AcDbLayerTableRecord
  2
SHEET_NONCUT
 70
0
 62
8
  6
Continuous
370
-3
390
13
347
21
  0
ENDTAB
  0
TABLE
  2
STYLE
  5
5
330
0
100
AcDbSymbolTable
 70
1
  0
STYLE
  5
29
330
5
100
AcDbSymbolTableRecord
100
AcDbTextStyleTableRecord
  2
Standard
 70
0
 40
0.0
 41
1.0
 50
0.0
 71
0
 42
2.5
  3
txt
  4

  0
ENDTAB
  0
TABLE
  2
VIEW
  5
7
330
0
100
AcDbSymbolTable
 70
0
  0
ENDTAB
  0
TABLE
  2
UCS
  5
6
330
0
100
AcDbSymbolTable
 70
0
  0
ENDTAB
  0
TABLE
  2
APPID
  5
3
330
0
100
AcDbSymbolTable
 70
3
  0
APPID
  5
2A
330
3
100
AcDbSymbolTableRecord
100
AcDbRegAppTableRecord
  2
ACAD
 70
0
  0
APPID
  5
A4
330
3
100
AcDbSymbolTableRecord
100
AcDbRegAppTableRecord
  2
HATCHBACKGROUNDCOLOR
 70
0
  0
APPID
  5
A5
330
3
100
AcDbSymbolTableRecord
100
AcDbRegAppTableRecord
  2
EZDXF
 70
0
  0
ENDTAB
  0
TABLE
  2
DIMSTYLE
  5
4
330
0
100
AcDbSymbolTable
 70
1
100
AcDbDimStyleTable
  0
DIMSTYLE
105
2B
330
4
100
AcDbSymbolTableRecord
100
AcDbDimStyleTableRecord
  2
Standard
 70
0
 40
1.0
 41
2.5
 42
0.625
 43
3.75
 44
1.25
 45
0.0
 46
0.0
 47
0.0
 48
0.0
 49
2.5
140
2.5
141
2.5
142
0.0
143
0.03937007874
144
1.0
145
0.0
146
1.0
147
0.625
148
0.0
 69
0
 70
0
 71
0
 72
0
 73
0
 74
0
 75
0
 76
0
 77
1
 78
8
 79
3
170
0
171
3
172
1
173
0
174
0
175
0
176
0
177
0
178
0
179
2
271
2
272
2
273
2
274
3
275
0
276
0
277
2
278
44
279
0
280
0
281
0
282
0
283
0
284
8
285
0
286
0
288
0
289
3
290
0
371
-2
372
-2
  0
ENDTAB
  0
TABLE
  2
BLOCK_RECORD
  5
9
330
0
100
AcDbSymbolTable
 70
2
  0
BLOCK_RECORD
  5
17
330
9
100
AcDbSymbolTableRecord
100
AcDbBlockTableRecord
  2
*Model_Space
340
1A
 70
0
280
1
281
0
  0
BLOCK_RECORD
  5
1B
330
9
100
AcDbSymbolTableRecord
100
AcDbBlockTableRecord
  2
*Paper_Space
340
1E
 70
0
280
1
281
0
  0
ENDTAB
  0
ENDSEC
  0
SECTION
  2
BLOCKS
  0
BLOCK
  5
18
330
17
100
AcDbEntity
  8
0
100
AcDbBlockBegin
  2
*Model_Space
 70
0
 10
0.0
 20
0.0
 30
0.0
  3
*Model_Space
  1

  0
ENDBLK
  5
19
330
17
100
AcDbEntity
  8
0
100
AcDbBlockEnd
  0
BLOCK
  5
1C
330
1B
100
AcDbEntity
  8
0
100
AcDbBlockBegin
  2
*Paper_Space
 70
0
 10
0.0
 20
0.0
 30
0.0
  3
*Paper_Space
  1

  0
ENDBLK
  5
1D
330
1B
100
AcDbEntity
  8
0
100
AcDbBlockEnd
  0
ENDSEC
  0
SECTION
  2
ENTITIES
  0
LWPOLYLINE
  5
33
330
17
100
AcDbEntity
  8
SHEET_NONCUT
100
AcDbPolyline
 90
4
 70
1
 10
0.0
 20
0.0
 10
1000.0
 20
0.0
 10
1000.0
 20
600.0
 10
0.0
 20
600.0
  0
LWPOLYLINE
  5
34
330
17
100
AcDbEntity
  8
CUT
100
AcDbPolyline
 90
147
 70
1
 10
220.62525879790874
 20
21.143681742363356
 10
221.01410411048397
 20
16.9845583672855
 10
233.7592583421062
 20
18.115456258723555
 10
221.1887480782653
 20
157.53734478932478
 10
209.17264364975256
 20
296.820036246687
 10
247.07397795549542
 20
299.7100581611382
 10
215.63329221663096
 20
524.6768469098567
 10
175.94030845928813
 20
521.3533359845248
 10
162.72560040739396
 20
520.229896158238
 10
152.97953002536573
 20
519.4145297282075
 10
145.66902076666483
 20
518.8191201194329
 10
144.29767592956458
 20
518.7134459156189
 10
142.24082106331858
 20
518.5544061992446
 10
141.6157069886274
 20
518.5082610674242
 10
141.3256005828266
 20
518.4867652555108
 10
141.1078904587371
 20
518.4709768997875
 10
140.87014507971355
 20
518.4542920769263
 10
140.72837402596946
 20
518.444529023001
 10
140.5865985861788
 20
518.4354867780568
 10
140.428630629794
 20
518.4254996744793
 10
140.2705355309348
 20
518.4156741119543
 10
140.11232062798206
 20
518.4061800483372
 10
139.90317503786878
 20
518.3943683024539
 10
139.72896569618123
 20
518.3851290158693
 10
139.59827086428785
 20
518.3786711970544
 10
139.45533870608043
 20
518.3722055829306
 10
139.32301282297234
 20
518.3667526152842
 10
139.20391300569275
 20
518.3622090158312
 10
139.09678106122766
 20
518.3588151514846
 10
139.0099801432211
 20
518.3565093170107
 10
138.93159509208309
 20
518.3547404643921
 10
138.85292033592003
 20
518.3532200418795
 10
138.774080021487
 20
518.3520791847433
 10
138.69627234032612
 20
518.3514949101761
 10
138.6195977850703
 20
518.3511419219126
 10
138.5431037048535
 20
518.3511146766593
 10
138.46684310537734
 20
518.3514456248602
 10
138.3907157162528
 20
518.3520430118192
 10
138.31463243201551
 20
518.3530622082801
 10
138.238601125267
 20
518.354468505578
 10
138.1626001790241
 20
518.3561004263211
 10
138.0865766071943
 20
518.3578715138099
 10
137.98515484688068
 20
518.3602883946983
 10
137.87103508835133
 20
518.3628775705336
 10
137.75695854742122
 20
518.3660760387904
 10
137.60486085804584
 20
518.3711518150383
 10
137.43380046909928
 20
518.3773041720449
 10
137.20576387734934
 20
518.3860346641109
 10
136.86368214501366
 20
518.3997769586354
 10
135.58166152076416
 20
518.4526458107564
 10
134.88083414353616
 20
518.4836453983212
 10
134.23171902267083
 20
518.5143217686771
 10
133.58278022746376
 20
518.545108713254
 10
132.93398175153388
 20
518.5780128102238
 10
132.06944112644584
 20
518.628957284584
 10
131.09639858859526
 20
518.6840516654565
 10
129.79874595450863
 20
518.7524532893503
 10
127.85247771524934
 20
518.8624858215017
 10
125.66339969114111
 20
518.9918437763997
 10
122.74451580927669
 20
519.1666366515021
 10
119.4607721019936
 20
519.3670489111954
 10
116.1762546526688
 20
519.5640859151197
 10
112.89221612858987
 20
519.7689709484803
 10
103.55744539864651
 20
520.3446399126958
 10
94.55129979782618
 20
520.9216097539729
 10
84.69437571911993
 20
521.563916882196
 10
73.60266710454815
 20
522.2874154018843
 10
59.242834311210544
 20
523.2123107053937
 10
48.09684962786787
 20
523.9316305592358
 10
36.95103150568946
 20
524.6768469098566
 10
10.0
 20
299.00057049125815
 10
30.424345241527277
 20
297.6787524794564
 10
48.78444794154166
 20
296.49521267607855
 10
60.00157251032735
 20
295.7853421698005
 10
71.23131631317315
 20
295.1865805826299
 10
61.78224604673065
 20
155.74078661700656
 10
51.716785478566806
 20
16.144425066748227
 10
65.96279257540925
 20
15.097720097784475
 10
80.20048550255939
 20
14.041435031245044
 10
90.8477186801766
 20
13.265815486209021
 10
100.42887950062462
 20
12.577243107906156
 10
106.47771890818515
 20
12.147680684018894
 10
112.52484440085087
 20
11.727081781807613
 10
117.91332452909015
 20
11.363519940700883
 10
121.97314288147129
 20
11.096379728363729
 10
126.05412985025228
 20
10.836825727832718
 10
129.67579050047397
 20
10.610747605538279
 10
133.69792006519558
 20
10.372473446949641
 10
134.90930508005567
 20
10.304346783619906
 10
136.12705836216762
 20
10.23830264656715
 10
137.21179311493188
 20
10.181914716800009
 10
138.02496293810748
 20
10.143000810924036
 10
138.83866406051058
 20
10.106449099278905
 10
139.56334605044358
 20
10.077242375581307
 10
140.38033573077783
 20
10.04552342550818
 10
140.86359647076267
 20
10.029244272076937
 10
141.1857656808421
 20
10.020075931023769
 10
141.42727286034008
 20
10.013647085142395
 10
141.64165158705006
 20
10.008689472502851
 10
141.80234189128717
 20
10.00551794472824
 10
141.96315330436175
 20
10.002910033394755
 10
142.1064586937755
 20
10.001227149610656
 10
142.21420811695418
 20
10.000434367349214
 10
142.32201511617936
 20
10.0
 10
142.42977951730586
 20
10.000010150214962
 10
142.5374922206458
 20
10.00051660813591
 10
142.64524735282413
 20
10.001604477953663
 10
142.75314662947213
 20
10.003312454758316
 10
142.87319643808797
 20
10.005809469837175
 10
143.0029572146561
 20
10.009349000234295
 10
143.12159702583014
 20
10.013267969874676
 10
143.28111422545902
 20
10.019401864375311
 10
143.5082715866727
 20
10.029206500088208
 10
143.87956462026807
 20
10.046544227265144
 10
144.090127002456
 20
10.057163647875655
 10
144.26724715919718
 20
10.067053102674436
 10
144.54531961189016
 20
10.083965881314384
 10
144.9064934398731
 20
10.106803261843027
 10
145.15637170633798
 20
10.123057295196816
 10
145.35254112377297
 20
10.137449362652603
 10
145.52959103001598
 20
10.150478799399252
 10
145.707039723578
 20
10.16456570168981
 10
145.96658488535866
 20
10.185935666449438
 10
146.28774952598297
 20
10.213286569770446
 10
146.64393933263648
 20
10.244656917776183
 10
146.999895274099
 20
10.276456991220869
 10
148.12917440896265
 20
10.379969728155515
 10
149.7918904373077
 20
10.534788238052386
 10
150.64120030086633
 20
10.613615793546785
 10
151.39088415357446
 20
10.68356351851321
 10
152.0927572093907
 20
10.748740151414722
 10
152.78659744251468
 20
10.814003844850902
 10
153.47642366462566
 20
10.878406713394838
 10
154.75202834019868
 20
10.99893438317065
 10
157.50886342124133
 20
11.257758839069822
 10
166.60852548973338
 20
12.102853497914623
 10
184.83900892350363
 20
13.767252374517682
 10
184.44890817758608
 20
17.75231125020258
 10
189.22820388114002
 20
18.197711622944155
 10
189.06092373580847
 20
19.939753449404066
 10
197.34643498753894
 20
20.721199089275274
 10
196.19485956829763
 20
32.42768319854355
 10
214.58915830126256
 20
34.15247754095452
 10
215.68326382557552
 20
22.439385734146583
 10
215.84631310600727
 20
20.696943685911606
 10
217.43930194216526
 20
20.84582651178664
 10
219.03228833964513
 20
20.99474257082852
  0
CIRCLE
  5
35
330
17
100
AcDbEntity
  8
REFERENCE
100
AcDbCircle
 10
215.63329221663096
 20
524.6768469098567
 30
0.0
 40
1.0
  0
TEXT
  5
36
330
17
100
AcDbEntity
  8
REFERENCE
100
AcDbText
 10
217.63329221663096
 20
526.6768469098567
 30
0.0
 40
2.0
  1
F03.1
 11
217.63329221663096
 21
526.6768469098567
 31
0.0
100
AcDbText
  0
CIRCLE
  5
37
330
17
100
AcDbEntity
  8
REFERENCE
100
AcDbCircle
 10
36.95103150568946
 20
524.6768469098566
 30
0.0
 40
1.0
  0
TEXT
  5
38
330
17
100
AcDbEntity
  8
REFERENCE
100
AcDbText
 10
38.95103150568946
 20
526.6768469098566
 30
0.0
 40
2.0
  1
F03.2
 11
38.95103150568946
 21
526.6768469098566
 31
0.0
100
AcDbText
  0
CIRCLE
  5
39
330
17
100
AcDbEntity
  8
REFERENCE
100
AcDbCircle
 10
233.7592583421062
 20
18.115456258723555
 30
0.0
 40
1.0
  0
TEXT
  5
3A
330
17
100
AcDbEntity
  8
REFERENCE
100
AcDbText
 10
235.7592583421062
 20
20.115456258723555
 30
0.0
 40
2.0
  1
F03.3
 11
235.7592583421062
 21
20.115456258723555
 31
0.0
100
AcDbText
  0
CIRCLE
  5
3B
330
17
100
AcDbEntity
  8
REFERENCE
100
AcDbCircle
 10
51.716785478566806
 20
16.144425066748227
 30
0.0
 40
1.0
  0
TEXT
  5
3C
330
17
100
AcDbEntity
  8
REFERENCE
100
AcDbText
 10
53.716785478566806
 20
18.144425066748227
 30
0.0
 40
2.0
  1
F03.4
 11
53.716785478566806
 21
18.144425066748227
 31
0.0
100
AcDbText
  0
TEXT
  5
3D
330
17
100
AcDbEntity
  8
LABEL
100
AcDbText
 10
10.0
 20
5.0
 30
0.0
 40
4.0
  1
F03 #1
100
AcDbText
  0
LWPOLYLINE
  5
3E
330
17
100
AcDbEntity
  8
CUT
100
AcDbPolyline
 90
147
 70
1
 10
480.7681048206741
 20
18.09048074450118
 10
468.0227063964592
 20
16.96235202648802
 10
467.6349815151674
 20
21.121580609442276
 10
466.0420335594957
 20
20.97276753696758
 10
464.44903388159537
 20
20.82399270806411
 10
462.85602798255024
 20
20.67529347267032
 10
462.69317894141545
 20
22.417754584301406
 10
461.60014223604844
 20
34.13085347324238
 10
443.2062905960838
 20
32.40782261887796
 10
444.35479767429786
 20
20.700296852937072
 10
436.0679606960657
 20
19.92445402788087
 10
436.2355645423089
 20
18.18244311206786
 10
431.4563232021086
 20
17.73648116192976
 10
431.8439664301186
 20
13.751168621578472
 10
413.61281849766664
 20
12.094537756910086
 10
404.51293518574687
 20
11.252186764834505
 10
401.756000898906
 20
10.994297506808039
 10
400.48034576269197
 20
10.874254080628702
 10
399.7904929063477
 20
10.810107072797223
 10
399.09662600137216
 20
10.745101749680089
 10
398.3947269001592
 20
10.680183580482549
 10
397.64501447109285
 20
10.610527286576144
 10
396.7956584247346
 20
10.532122848597055
 10
395.1328925470252
 20
10.377913648306048
 10
394.00357696283857
 20
10.274811396383484
 10
393.6476098082278
 20
10.243140078346187
 10
393.29140928737934
 20
10.211898165593652
 10
392.9702354530808
 20
10.184662886991418
 10
392.71068315575474
 20
10.163386283415207
 10
392.53322984113595
 20
10.14936298356099
 10
392.3561758216828
 20
10.13639631177682
 10
392.1600018547872
 20
10.122072792216613
 10
391.9101185110332
 20
10.105909515003987
 10
391.54893786427806
 20
10.083201365205127
 10
391.2708603748473
 20
10.066387355428333
 10
391.0937372907658
 20
10.056560803705906
 10
390.8831720560588
 20
10.046017392577141
 10
390.5118747542361
 20
10.028812477552265
 10
390.284715076073
 20
10.019088638121048
 10
390.1251965305483
 20
10.013011735883424
 10
390.00655610714875
 20
10.009134750602016
 10
389.8767948993594
 20
10.005641348246286
 10
389.75674496430065
 20
10.003187529689967
 10
389.6488458084968
 20
10.001517711818906
 10
389.54109107130574
 20
10.000468111232067
 10
389.43337906708956
 20
10.0
 10
389.32561561227817
 20
10.000028272179748
 10
389.21780976408485
 20
10.000501079127048
 10
389.1100616377722
 20
10.00133217960638
 10
388.9667582259646
 20
10.003066066098768
 10
388.8059494174572
 20
10.005731104278311
 10
388.6452620382319
 20
10.008959578077793
 10
388.4308876182659
 20
10.013993269983416
 10
388.18938569833483
 20
10.02050738302944
 10
387.86722370338674
 20
10.029786647729452
 10
387.38397467064885
 20
10.046239657283763
 10
386.5670065051921
 20
10.078248314788311
 10
385.8423439664379
 20
10.107704385243323
 10
385.0286673974275
 20
10.144541725811564
 10
384.2155226785889
 20
10.183726302233595
 10
383.1308247866457
 20
10.240501901633024
 10
381.9131261100017
 20
10.306986221722354
 10
380.70179862355576
 20
10.37553455999273
 10
376.67985856072534
 20
10.615146356980631
 10
373.05840272798804
 20
10.842464998274863
 10
368.9776262565992
 20
11.103286971794091
 10
364.91800429741005
 20
11.371723941547998
 10
359.52978705781726
 20
11.736954577462939
 10
353.48301227214574
 20
12.159503297145875
 10
347.4345009833096
 20
12.590960382137155
 10
337.85385534542127
 20
13.282243853692194
 10
327.2071036280957
 20
14.060971262789508
 10
312.96996778467474
 20
15.121438178089306
 10
298.72443238418555
 20
16.17108944486847
 10
308.8341946114092
 20
155.75962189477752
 10
318.30541077145097
 20
295.1912430133006
 10
307.0756834009015
 20
295.78641340831746
 10
295.85856836928644
 20
296.4954006143659
 10
277.49840207531946
 20
297.67776547108895
 10
257.0739779554954
 20
298.99842088494563
 10
284.01884012828884
 20
524.6756560056049
 10
295.16467491117317
 20
523.9305760492765
 10
306.31067643228454
 20
523.2113220919765
 10
320.6705311167895
 20
522.2865074839463
 10
331.76227249626555
 20
521.5630986286059
 10
341.61923170115347
 20
520.9208614858164
 10
350.6254142787631
 20
520.3439331061063
 10
359.96021971884034
 20
519.7682502087052
 10
363.2442723966271
 20
519.5633684823922
 10
366.52880304482505
 20
519.3663196120463
 10
369.8125606306013
 20
519.1659057359506
 10
372.73145711550416
 20
518.9911115480393
 10
374.9205448372337
 20
518.86175358945
 10
376.8668216756247
 20
518.7517174398547
 10
378.16447969265477
 20
518.683307207787
 10
379.13752669303324
 20
518.6282148563946
 10
380.00207222423523
 20
518.5772785171057
 10
380.6508735753969
 20
518.5443663992937
 10
381.2998152668911
 20
518.5135742752786
 10
381.9489334743925
 20
518.482897083552
 10
382.6497638705678
 20
518.4518901918789
 10
383.93178881567053
 20
518.3990176203353
 10
384.2738717322475
 20
518.3852753947626
 10
384.5019090916568
 20
518.376544629045
 10
384.67297004471004
 20
518.3703919122771
 10
384.8250682286089
 20
518.3653157518991
 10
384.93914510901425
 20
518.3621159717721
 10
385.0532650750993
 20
518.3595253852175
 10
385.1546870499337
 20
518.3571085965325
 10
385.2307107765698
 20
518.3553374683015
 10
385.3067118730858
 20
518.3537054437448
 10
385.38274332626395
 20
518.352298983633
 10
385.4588267520769
 20
518.3512794199697
 10
385.5349542785029
 20
518.3506815460394
 10
385.611215011826
 20
518.3503502334729
 10
385.68770922552284
 20
518.3503771417363
 10
385.76438391395635
 20
518.3507297364317
 10
385.8421917285505
 20
518.3513136627629
 10
385.92103218453235
 20
518.3524543238179
 10
385.99970708814294
 20
518.3539741418899
 10
386.0780922704345
 20
518.3557425088401
 10
386.1648933271627
 20
518.3580480181131
 10
386.2720254428401
 20
518.3614414296705
 10
386.39112545989406
 20
518.3659842628958
 10
386.5234515389418
 20
518.3714364471859
 10
386.66638389991226
 20
518.3779013113256
 10
386.7970789154755
 20
518.3843584481765
 10
386.97128850804444
 20
518.3935966730746
 10
387.18043438366107
 20
518.4054072948279
 10
387.3386495029871
 20
518.4149004659905
 10
387.4967448177241
 20
518.4247250884023
 10
387.6547129882589
 20
518.4347112111872
 10
387.79648862638754
 20
518.4437524181451
 10
387.9382598779188
 20
518.4535143151211
 10
388.1760055362928
 20
518.4701978524463
 10
388.39371591509587
 20
518.4859849788543
 10
388.68382265613326
 20
518.5074791066185
 10
389.308937496672
 20
518.553619720381
 10
391.36579454040395
 20
518.7126441360391
 10
392.7371402048135
 20
518.8183074771474
 10
400.04765300045955
 20
519.4136702558726
 10
409.7937272959942
 20
520.2289616275658
 10
423.0084356652576
 20
521.3523149401097
 10
462.7014512700232
 20
524.675656005605
 10
494.14795585460047
 20
299.7093684119988
 10
456.2473449090318
 20
296.8146637850147
 10
468.2417854409818
 20
157.51793534597863
  0
CIRCLE
  5
3F
330
17
100
AcDbEntity
  8
REFERENCE
100
AcDbCircle
 10
462.7014512700232
 20
524.675656005605
 30
0.0
 40
1.0
  0
TEXT
  5
40
330
17
100
AcDbEntity
  8
REFERENCE
100
AcDbText
 10
464.7014512700232
 20
526.675656005605
 30
0.0
 40
2.0
  1
F04.1
 11
464.7014512700232
 21
526.675656005605
 31
0.0
100
AcDbText
  0
CIRCLE
  5
41
330
17
100
AcDbEntity
  8
REFERENCE
100
AcDbCircle
 10
284.01884012828884
 20
524.6756560056049
 30
0.0
 40
1.0
  0
TEXT
  5
42
330
17
100
AcDbEntity
  8
REFERENCE
100
AcDbText
 10
286.01884012828884
 20
526.6756560056049
 30
0.0
 40
2.0
  1
F04.2
 11
286.01884012828884
 21
526.6756560056049
 31
0.0
100
AcDbText
  0
CIRCLE
  5
43
330
17
100
AcDbEntity
  8
REFERENCE
100
AcDbCircle
 10
480.7681048206741
 20
18.09048074450118
 30
0.0
 40
1.0
  0
TEXT
  5
44
330
17
100
AcDbEntity
  8
REFERENCE
100
AcDbText
 10
482.7681048206741
 20
20.09048074450118
 30
0.0
 40
2.0
  1
F04.3
 11
482.7681048206741
 21
20.09048074450118
 31
0.0
100
AcDbText
  0
CIRCLE
  5
45
330
17
100
AcDbEntity
  8
REFERENCE
100
AcDbCircle
 10
298.72443238418555
 20
16.17108944486847
 30
0.0
 40
1.0
  0
TEXT
  5
46
330
17
100
AcDbEntity
  8
REFERENCE
100
AcDbText
 10
300.72443238418555
 20
18.17108944486847
 30
0.0
 40
2.0
  1
F04.4
 11
300.72443238418555
 21
18.17108944486847
 31
0.0
100
AcDbText
  0
TEXT
  5
47
330
17
100
AcDbEntity
  8
LABEL
100
AcDbText
 10
257.0739779554954
 20
5.0
 30
0.0
 40
4.0
  1
F04 #1
100
AcDbText
  0
LWPOLYLINE
  5
48
330
17
100
AcDbEntity
  8
CUT
100
AcDbPolyline
 90
139
 70
1
 10
807.5975386534121
 20
440.1782601754041
 10
784.9137881321774
 20
437.9789192369225
 10
783.136335879805
 20
456.6539328808803
 10
761.3790358354865
 20
454.66220950293985
 10
750.5068540092932
 20
453.66228803583516
 10
747.6728839676564
 20
453.4010913326987
 10
746.0269714477904
 20
453.2460315922824
 10
744.5108087422991
 20
453.10499688318345
 10
743.8115822029649
 20
453.0411198664677
 10
743.2360745984811
 20
452.98782552267375
 10
742.6629792782019
 20
452.934743548037
 10
742.0901590963808
 20
452.8825588744867
 10
740.3296661688709
 20
452.7237704623358
 10
738.5710765592519
 20
452.5673442002635
 10
738.1337829916708
 20
452.5292620175416
 10
737.8458525105682
 20
452.50477648376807
 10
737.556265205759
 20
452.4809287006917
 10
737.3215250306665
 20
452.4622721242459
 10
737.1103748930087
 20
452.4461283442676
 10
736.9201227859182
 20
452.43248358201345
 10
736.6891737505034
 20
452.41661525463405
 10
736.4504744307741
 20
452.4015372340874
 10
736.2111244267442
 20
452.3877652611522
 10
735.8924962894646
 20
452.36972679709083
 10
735.5712827067421
 20
452.3529989045716
 10
735.2834169125283
 20
452.33892796496355
 10
734.9953572505711
 20
452.32666103176143
 10
734.7053773001487
 20
452.31574388072664
 10
734.5596138565134
 20
452.311025553949
 10
734.4421397165862
 20
452.3077826908995
 10
734.3361941429748
 20
452.3056020418606
 10
734.2150858511728
 20
452.30386611303084
 10
734.0937679857609
 20
452.30285848554286
 10
733.9721551662826
 20
452.30258694619954
 10
733.8502779455519
 20
452.3027773643939
 10
733.7282813334648
 20
452.30345500565784
 10
733.6063708202032
 20
452.3048882208843
 10
733.4847610722685
 20
452.30684626835534
 10
733.3633703285622
 20
452.3091213693029
 10
733.2016834887427
 20
452.31257999085204
 10
733.019881517466
 20
452.31735614786004
 10
732.7778309663399
 20
452.32476520949626
 10
732.4165957213694
 20
452.33757744219315
 10
732.0112649343826
 20
452.35293969534575
 10
731.4693354304914
 20
452.3734291738899
 10
730.5772605669649
 20
452.4126508067795
 10
729.9178412296169
 20
452.443537869746
 10
729.2393040897172
 20
452.4774518492401
 10
728.225937061072
 20
452.52974687057497
 10
727.3201389586818
 20
452.57920243387923
 10
726.3014113544135
 20
452.6376645716791
 10
724.9396597558081
 20
452.7198205995806
 10
722.8982653820674
 20
452.84856738452953
 10
719.849609576071
 20
453.0464630537755
 10
716.433910377322
 20
453.2755829661794
 10
713.0233591471649
 20
453.513175772046
 10
708.474097779445
 20
453.8369637016557
 10
703.337679539555
 20
454.21534923052127
 10
698.1990183317288
 20
454.59978384635946
 10
691.379802844176
 20
455.12357404612277
 10
678.5556283154351
 20
456.13495202732
 10
665.9575775652398
 20
457.1358215001547
 10
650.8589597939142
 20
458.36131916614283
 10
634.1957251314749
 20
459.74066070252314
 10
616.7242133050411
 20
461.21005393500764
 10
595.674825484001
 20
462.9997417054786
 10
580.434279304308
 20
464.30604546938144
 10
565.1862775298074
 20
465.62468423311543
 10
504.14795585460047
 20
29.348673529173993
 10
519.2108238366397
 20
28.06630500737208
 10
534.360337374241
 20
26.777483489495125
 10
559.1493378030677
 20
24.67276762513893
 10
581.7213244518513
 20
22.76162679246613
 10
601.1145579064797
 20
21.11864049103167
 10
620.470378613354
 20
19.483307030158926
 10
637.603679816068
 20
18.0369422727656
 10
654.3080316279095
 20
16.629971130588956
 10
670.432167800141
 20
15.275029860777295
 10
681.5255521880885
 20
14.344794400470505
 10
689.8218957744166
 20
13.653007480445012
 10
698.6663935132061
 20
12.920459316701113
 10
705.8677092141087
 20
12.331355089163708
 10
712.2231623946697
 20
11.817680138821856
 10
717.9107555393343
 20
11.366085073022987
 10
721.2668715194357
 20
11.103821199377307
 10
723.4116456353734
 20
10.939749750268675
 10
725.2266805522069
 20
10.80312794061922
 10
726.724001858553
 20
10.691915343963046
 10
728.0900582014224
 20
10.592587304601011
 10
729.3983395847067
 20
10.499893520510795
 10
730.3928521359273
 20
10.43305614999474
 10
731.4596562616034
 20
10.364936215545754
 10
732.8923217586489
 20
10.275957338083913
 10
734.0235291413229
 20
10.206591692625807
 10
735.270414542275
 20
10.132677032191168
 10
735.7626552943407
 20
10.105073482702096
 10
736.2280519791645
 20
10.079158335161765
 10
736.6179098027699
 20
10.059487905937203
 10
736.8969045318684
 20
10.046799219342347
 10
737.1654509970376
 20
10.036038607542537
 10
737.4246363272879
 20
10.02635300315876
 10
737.6474374060317
 20
10.01855465765857
 10
737.8100084788857
 20
10.013243414188082
 10
737.9688702016166
 20
10.008551711882205
 10
738.124337041045
 20
10.00551469265804
 10
738.2767230748614
 20
10.003389705878249
 10
738.4264410708822
 20
10.001659523064518
 10
738.5739996751088
 20
10.000514182779284
 10
738.7195407456991
 20
10.0
 10
738.863079471898
 20
10.000297608717347
 10
739.0044447267675
 20
10.001321588588667
 10
739.1434474151306
 20
10.002982073617318
 10
739.2800439208968
 20
10.005199733977747
 10
739.4141864152393
 20
10.00791529342166
 10
739.5207395752036
 20
10.010575964475152
 10
739.6931524669865
 20
10.01619959379991
 10
739.866362595948
 20
10.022258906437514
 10
740.033064999268
 20
10.028742048343588
 10
740.3194173082609
 20
10.041145960529548
 10
740.636453238245
 20
10.05719444265685
 10
741.0087002974108
 20
10.078591569927653
 10
741.4235635207655
 20
10.104512938511903
 10
741.8683339642497
 20
10.134121602360324
 10
742.3872969739385
 20
10.171151282640494
 10
742.8367182635927
 20
10.204809571803594
 10
743.3361020796012
 20
10.243634172836096
 10
743.8402202970096
 20
10.284993417833107
 10
744.4052851162755
 20
10.333996860383877
 10
745.0491160718749
 20
10.392448070469413
 10
745.9871491025822
 20
10.478829610503794
 10
751.2103187123039
 20
10.97097425319464
 10
755.1078185492119
 20
11.347494460821508
 10
767.412999712349
 20
12.545936792975453
 10
783.4093458548398
 20
14.111120301892697
 10
797.3323090060044
 20
15.475550219007346
 10
850.3387911445975
 20
20.663168191848513
 10
947.2035901576638
 20
30.1072905227079
 10
880.1201406864523
 20
465.6246842331172
 10
805.7839371785044
 20
458.74490832942456
  0
CIRCLE
  5
49
330
17
100
AcDbEntity
  8
REFERENCE
100
AcDbCircle
 10
880.1201406864523
 20
465.6246842331172
 30
0.0
 40
1.0
  0
TEXT
  5
4A
330
17
100
AcDbEntity
  8
REFERENCE
100
AcDbText
 10
882.1201406864523
 20
467.6246842331172
 30
0.0
 40
2.0
  1
F01.1
 11
882.1201406864523
 21
467.6246842331172
 31
0.0
100
AcDbText
  0
CIRCLE
  5
4B
330
17
100
AcDbEntity
  8
REFERENCE
100
AcDbCircle
 10
565.1862775298074
 20
465.62468423311543
 30
0.0
 40
1.0
  0
TEXT
  5
4C
330
17
100
AcDbEntity
  8
REFERENCE
100
AcDbText
 10
567.1862775298074
 20
467.62468423311543
 30
0.0
 40
2.0
  1
F01.2
 11
567.1862775298074
 21
467.62468423311543
 31
0.0
100
AcDbText
  0
CIRCLE
  5
4D
330
17
100
AcDbEntity
  8
REFERENCE
100
AcDbCircle
 10
947.2035901576638
 20
30.1072905227079
 30
0.0
 40
1.0
  0
TEXT
  5
4E
330
17
100
AcDbEntity
  8
REFERENCE
100
AcDbText
 10
949.2035901576638
 20
32.1072905227079
 30
0.0
 40
2.0
  1
F01.3
 11
949.2035901576638
 21
32.1072905227079
 31
0.0
100
AcDbText
  0
CIRCLE
  5
4F
330
17
100
AcDbEntity
  8
REFERENCE
100
AcDbCircle
 10
504.14795585460047
 20
29.348673529173993
 30
0.0
 40
1.0
  0
TEXT
  5
50
330
17
100
AcDbEntity
  8
REFERENCE
100
AcDbText
 10
506.14795585460047
 20
31.348673529173993
 30
0.0
 40
2.0
  1
F01.4
 11
506.14795585460047
 21
31.348673529173993
 31
0.0
100
AcDbText
  0
TEXT
  5
51
330
17
100
AcDbEntity
  8
LABEL
100
AcDbText
 10
504.14795585460047
 20
5.0
 30
0.0
 40
4.0
  1
F01 #1
100
AcDbText
  0
LWPOLYLINE
  5
52
330
17
100
AcDbEntity
  8
CUT
100
AcDbPolyline
 90
4
 70
1
 10
962.4817531449082
 20
10.0
 10
957.2035901576638
 20
10.000000000024801
 10
957.2035901576638
 20
378.6500000000247
 10
962.4817531449082
 20
378.65
  0
CIRCLE
  5
53
330
17
100
AcDbEntity
  8
REFERENCE
100
AcDbCircle
 10
962.4817531449082
 20
10.0
 30
0.0
 40
1.0
  0
TEXT
  5
54
330
17
100
AcDbEntity
  8
REFERENCE
100
AcDbText
 10
964.4817531449082
 20
12.0
 30
0.0
 40
2.0
  1
F18.1
 11
964.4817531449082
 21
12.0
 31
0.0
100
AcDbText
  0
CIRCLE
  5
55
330
17
100
AcDbEntity
  8
REFERENCE
100
AcDbCircle
 10
957.2035901576638
 20
10.000000000024801
 30
0.0
 40
1.0
  0
TEXT
  5
56
330
17
100
AcDbEntity
  8
REFERENCE
100
AcDbText
 10
959.2035901576638
 20
12.000000000024801
 30
0.0
 40
2.0
  1
F18.2
 11
959.2035901576638
 21
12.000000000024801
 31
0.0
100
AcDbText
  0
CIRCLE
  5
57
330
17
100
AcDbEntity
  8
REFERENCE
100
AcDbCircle
 10
962.4817531449082
 20
378.65
 30
0.0
 40
1.0
  0
TEXT
  5
58
330
17
100
AcDbEntity
  8
REFERENCE
100
AcDbText
 10
964.4817531449082
 20
380.65
 30
0.0
 40
2.0
  1
F18.3
 11
964.4817531449082
 21
380.65
 31
0.0
100
AcDbText
  0
CIRCLE
  5
59
330
17
100
AcDbEntity
  8
REFERENCE
100
AcDbCircle
 10
957.2035901576638
 20
378.6500000000247
 30
0.0
 40
1.0
  0
TEXT
  5
5A
330
17
100
AcDbEntity
  8
REFERENCE
100
AcDbText
 10
959.2035901576638
 20
380.6500000000247
 30
0.0
 40
2.0
  1
F18.4
 11
959.2035901576638
 21
380.6500000000247
 31
0.0
100
AcDbText
  0
TEXT
  5
5B
330
17
100
AcDbEntity
  8
LABEL
100
AcDbText
 10
957.2035901576638
 20
5.0
 30
0.0
 40
4.0
  1
F18 #1
100
AcDbText
  0
LWPOLYLINE
  5
5C
330
17
100
AcDbEntity
  8
CUT
100
AcDbPolyline
 90
10
 70
1
 10
872.7979558546004
 20
475.6246842331172
 10
872.7979558546006
 20
479.23544860125884
 10
872.7979558546006
 20
482.8462129694004
 10
872.7979558546006
 20
486.45697733754207
 10
872.7979558546004
 20
490.0677417056838
 10
504.14795585460047
 20
490.06774170568383
 10
504.1479558546006
 20
486.4569773375421
 10
504.1479558546006
 20
482.8462129694005
 10
504.1479558546006
 20
479.23544860125884
 10
504.1479558546006
 20
475.62468423311725
  0
CIRCLE
  5
5D
330
17
100
AcDbEntity
  8
REFERENCE
100
AcDbCircle
 10
872.7979558546004
 20
490.0677417056838
 30
0.0
 40
1.0
  0
TEXT
  5
5E
330
17
100
AcDbEntity
  8
REFERENCE
100
AcDbText
 10
870.7979558546004
 20
492.0677417056838
 30
0.0
 40
2.0
  1
F16.1
 50
90.0
 11
870.7979558546004
 21
492.0677417056838
 31
0.0
100
AcDbText
  0
CIRCLE
  5
5F
330
17
100
AcDbEntity
  8
REFERENCE
100
AcDbCircle
 10
872.7979558546004
 20
475.6246842331172
 30
0.0
 40
1.0
  0
TEXT
  5
60
330
17
100
AcDbEntity
  8
REFERENCE
100
AcDbText
 10
870.7979558546004
 20
477.6246842331172
 30
0.0
 40
2.0
  1
F16.2
 50
90.0
 11
870.7979558546004
 21
477.6246842331172
 31
0.0
100
AcDbText
  0
CIRCLE
  5
61
330
17
100
AcDbEntity
  8
REFERENCE
100
AcDbCircle
 10
504.14795585460047
 20
490.06774170568383
 30
0.0
 40
1.0
  0
TEXT
  5
62
330
17
100
AcDbEntity
  8
REFERENCE
100
AcDbText
 10
502.14795585460047
 20
492.06774170568383
 30
0.0
 40
2.0
  1
F16.3
 50
90.0
 11
502.14795585460047
 21
492.06774170568383
 31
0.0
100
AcDbText
  0
CIRCLE
  5
63
330
17
100
AcDbEntity
  8
REFERENCE
100
AcDbCircle
 10
504.1479558546006
 20
475.62468423311725
 30
0.0
 40
1.0
  0
TEXT
  5
64
330
17
100
AcDbEntity
  8
REFERENCE
100
AcDbText
 10
502.1479558546006
 20
477.62468423311725
 30
0.0
 40
2.0
  1
F16.4
 50
90.0
 11
502.1479558546006
 21
477.62468423311725
 31
0.0
100
AcDbText
  0
TEXT
  5
65
330
17
100
AcDbEntity
  8
LABEL
100
AcDbText
 10
504.14795585460047
 20
470.6246842331172
 30
0.0
 40
4.0
  1
F16 #1
100
AcDbText
  0
LWPOLYLINE
  5
66
330
17
100
AcDbEntity
  8
CUT
100
AcDbPolyline
 90
10
 70
1
 10
872.7979558546006
 20
500.0677417056838
 10
872.7979558546004
 20
503.67910614084695
 10
872.7979558546004
 20
507.29047057601014
 10
872.7979558546004
 20
510.9018350111733
 10
872.7979558546006
 20
514.5131994483376
 10
504.1479558546006
 20
514.5131994483376
 10
504.14795585460047
 20
510.9018350111734
 10
504.14795585460047
 20
507.2904705760102
 10
504.14795585460047
 20
503.67910614084695
 10
504.14795585460047
 20
500.06774170568383
  0
CIRCLE
  5
67
330
17
100
AcDbEntity
  8
REFERENCE
100
AcDbCircle
 10
872.7979558546006
 20
514.5131994483376
 30
0.0
 40
1.0
  0
TEXT
  5
68
330
17
100
AcDbEntity
  8
REFERENCE
100
AcDbText
 10
870.7979558546006
 20
516.5131994483376
 30
0.0
 40
2.0
  1
F17.1
 50
90.0
 11
870.7979558546006
 21
516.5131994483376
 31
0.0
100
AcDbText
  0
CIRCLE
  5
69
330
17
100
AcDbEntity
  8
REFERENCE
100
AcDbCircle
 10
872.7979558546006
 20
500.0677417056838
 30
0.0
 40
1.0
  0
TEXT
  5
6A
330
17
100
AcDbEntity
  8
REFERENCE
100
AcDbText
 10
870.7979558546006
 20
502.0677417056838
 30
0.0
 40
2.0
  1
F17.2
 50
90.0
 11
870.7979558546006
 21
502.0677417056838
 31
0.0
100
AcDbText
  0
CIRCLE
  5
6B
330
17
100
AcDbEntity
  8
REFERENCE
100
AcDbCircle
 10
504.1479558546006
 20
514.5131994483376
 30
0.0
 40
1.0
  0
TEXT
  5
6C
330
17
100
AcDbEntity
  8
REFERENCE
100
AcDbText
 10
502.1479558546006
 20
516.5131994483376
 30
0.0
 40
2.0
  1
F17.3
 50
90.0
 11
502.1479558546006
 21
516.5131994483376
 31
0.0
100
AcDbText
  0
CIRCLE
  5
6D
330
17
100
AcDbEntity
  8
REFERENCE
100
AcDbCircle
 10
504.14795585460047
 20
500.06774170568383
 30
0.0
 40
1.0
  0
TEXT
  5
6E
330
17
100
AcDbEntity
  8
REFERENCE
100
AcDbText
 10
502.14795585460047
 20
502.06774170568383
 30
0.0
 40
2.0
  1
F17.4
 50
90.0
 11
502.14795585460047
 21
502.06774170568383
 31
0.0
100
AcDbText
  0
TEXT
  5
6F
330
17
100
AcDbEntity
  8
LABEL
100
AcDbText
 10
504.14795585460047
 20
495.0677417056838
 30
0.0
 40
4.0
  1
F17 #1
100
AcDbText
  0
LWPOLYLINE
  5
70
330
17
100
AcDbEntity
  8
CUT
100
AcDbPolyline
 90
4
 70
1
 10
10.000000000241641
 20
534.6768469098567
 10
10.0
 20
579.6768469112673
 10
285.0356120631882
 20
579.6768469112673
 10
285.03561206343136
 20
534.6768469098567
  0
LWPOLYLINE
  5
71
330
17
100
AcDbEntity
  8
REFERENCE
100
AcDbPolyline
 90
4
 70
1
 10
15.000000000214811
 20
539.6768469098567
 10
280.03561206340436
 20
539.6768469098567
 10
280.0356120632152
 20
574.6768469112673
 10
15.00000000002683
 20
574.6768469112673
  0
CIRCLE
  5
72
330
17
100
AcDbEntity
  8
REFERENCE
100
AcDbCircle
 10
280.03561206340436
 20
539.6768469098567
 30
0.0
 40
1.0
  0
TEXT
  5
73
330
17
100
AcDbEntity
  8
REFERENCE
100
AcDbText
 10
278.03561206340436
 20
541.6768469098567
 30
0.0
 40
2.0
  1
F32.1
 50
90.0
 11
278.03561206340436
 21
541.6768469098567
 31
0.0
100
AcDbText
  0
CIRCLE
  5
74
330
17
100
AcDbEntity
  8
REFERENCE
100
AcDbCircle
 10
15.000000000214811
 20
539.6768469098567
 30
0.0
 40
1.0
  0
TEXT
  5
75
330
17
100
AcDbEntity
  8
REFERENCE
100
AcDbText
 10
13.000000000214811
 20
541.6768469098567
 30
0.0
 40
2.0
  1
F32.2
 50
90.0
 11
13.000000000214811
 21
541.6768469098567
 31
0.0
100
AcDbText
  0
CIRCLE
  5
76
330
17
100
AcDbEntity
  8
REFERENCE
100
AcDbCircle
 10
280.0356120632152
 20
574.6768469112673
 30
0.0
 40
1.0
  0
TEXT
  5
77
330
17
100
AcDbEntity
  8
REFERENCE
100
AcDbText
 10
278.0356120632152
 20
576.6768469112673
 30
0.0
 40
2.0
  1
F32.3
 50
90.0
 11
278.0356120632152
 21
576.6768469112673
 31
0.0
100
AcDbText
  0
CIRCLE
  5
78
330
17
100
AcDbEntity
  8
REFERENCE
100
AcDbCircle
 10
15.00000000002683
 20
574.6768469112673
 30
0.0
 40
1.0
  0
TEXT
  5
79
330
17
100
AcDbEntity
  8
REFERENCE
100
AcDbText
 10
13.00000000002683
 20
576.6768469112673
 30
0.0
 40
2.0
  1
F32.4
 50
90.0
 11
13.00000000002683
 21
576.6768469112673
 31
0.0
100
AcDbText
  0
TEXT
  5
7A
330
17
100
AcDbEntity
  8
LABEL
100
AcDbText
 10
10.0
 20
529.6768469098567
 30
0.0
 40
4.0
  1
F32 #1
100
AcDbText
  0
LWPOLYLINE
  5
7B
330
17
100
AcDbEntity
  8
CUT
100
AcDbPolyline
 90
4
 70
1
 10
295.035612063673
 20
534.6768469098567
 10
295.03561206343136
 20
579.6768469112673
 10
570.0712241266195
 20
579.6768469112673
 10
570.0712241268627
 20
534.6768469098567
  0
LWPOLYLINE
  5
7C
330
17
100
AcDbEntity
  8
REFERENCE
100
AcDbPolyline
 90
4
 70
1
 10
300.03561206364617
 20
539.6768469098567
 10
565.0712241268357
 20
539.6768469098567
 10
565.0712241266466
 20
574.6768469112673
 10
300.0356120634582
 20
574.6768469112673
  0
CIRCLE
  5
7D
330
17
100
AcDbEntity
  8
REFERENCE
100
AcDbCircle
 10
565.0712241268357
 20
539.6768469098567
 30
0.0
 40
1.0
  0
TEXT
  5
7E
330
17
100
AcDbEntity
  8
REFERENCE
100
AcDbText
 10
563.0712241268357
 20
541.6768469098567
 30
0.0
 40
2.0
  1
F32.1
 50
90.0
 11
563.0712241268357
 21
541.6768469098567
 31
0.0
100
AcDbText
  0
CIRCLE
  5
7F
330
17
100
AcDbEntity
  8
REFERENCE
100
AcDbCircle
 10
300.03561206364617
 20
539.6768469098567
 30
0.0
 40
1.0
  0
TEXT
  5
80
330
17
100
AcDbEntity
  8
REFERENCE
100
AcDbText
 10
298.03561206364617
 20
541.6768469098567
 30
0.0
 40
2.0
  1
F32.2
 50
90.0
 11
298.03561206364617
 21
541.6768469098567
 31
0.0
100
AcDbText
  0
CIRCLE
  5
81
330
17
100
AcDbEntity
  8
REFERENCE
100
AcDbCircle
 10
565.0712241266466
 20
574.6768469112673
 30
0.0
 40
1.0
  0
TEXT
  5
82
330
17
100
AcDbEntity
  8
REFERENCE
100
AcDbText
 10
563.0712241266466
 20
576.6768469112673
 30
0.0
 40
2.0
  1
F32.3
 50
90.0
 11
563.0712241266466
 21
576.6768469112673
 31
0.0
100
AcDbText
  0
CIRCLE
  5
83
330
17
100
AcDbEntity
  8
REFERENCE
100
AcDbCircle
 10
300.0356120634582
 20
574.6768469112673
 30
0.0
 40
1.0
  0
TEXT
  5
84
330
17
100
AcDbEntity
  8
REFERENCE
100
AcDbText
 10
298.0356120634582
 20
576.6768469112673
 30
0.0
 40
2.0
  1
F32.4
 50
90.0
 11
298.0356120634582
 21
576.6768469112673
 31
0.0
100
AcDbText
  0
TEXT
  5
85
330
17
100
AcDbEntity
  8
LABEL
100
AcDbText
 10
295.03561206343136
 20
529.6768469098567
 30
0.0
 40
4.0
  1
F32 #2
100
AcDbText
  0
LWPOLYLINE
  5
86
330
17
100
AcDbEntity
  8
CUT
100
AcDbPolyline
 90
4
 70
1
 10
972.4817531449082
 20
215.00000000046438
 10
977.7599161321642
 20
215.0
 10
977.7599161321642
 20
10.0
 10
972.4817531449082
 20
10.000000000464379
  0
CIRCLE
  5
87
330
17
100
AcDbEntity
  8
REFERENCE
100
AcDbCircle
 10
977.7599161321642
 20
10.0
 30
0.0
 40
1.0
  0
TEXT
  5
88
330
17
100
AcDbEntity
  8
REFERENCE
100
AcDbText
 10
979.7599161321642
 20
12.0
 30
0.0
 40
2.0
  1
F14.1
 11
979.7599161321642
 21
12.0
 31
0.0
100
AcDbText
  0
CIRCLE
  5
89
330
17
100
AcDbEntity
  8
REFERENCE
100
AcDbCircle
 10
972.4817531449082
 20
10.000000000464379
 30
0.0
 40
1.0
  0
TEXT
  5
8A
330
17
100
AcDbEntity
  8
REFERENCE
100
AcDbText
 10
974.4817531449082
 20
12.000000000464379
 30
0.0
 40
2.0
  1
F14.2
 11
974.4817531449082
 21
12.000000000464379
 31
0.0
100
AcDbText
  0
CIRCLE
  5
8B
330
17
100
AcDbEntity
  8
REFERENCE
100
AcDbCircle
 10
977.7599161321642
 20
215.0
 30
0.0
 40
1.0
  0
TEXT
  5
8C
330
17
100
AcDbEntity
  8
REFERENCE
100
AcDbText
 10
979.7599161321642
 20
217.0
 30
0.0
 40
2.0
  1
F14.3
 11
979.7599161321642
 21
217.0
 31
0.0
100
AcDbText
  0
CIRCLE
  5
8D
330
17
100
AcDbEntity
  8
REFERENCE
100
AcDbCircle
 10
972.4817531449082
 20
215.00000000046438
 30
0.0
 40
1.0
  0
TEXT
  5
8E
330
17
100
AcDbEntity
  8
REFERENCE
100
AcDbText
 10
974.4817531449082
 20
217.00000000046438
 30
0.0
 40
2.0
  1
F14.4
 11
974.4817531449082
 21
217.00000000046438
 31
0.0
100
AcDbText
  0
TEXT
  5
8F
330
17
100
AcDbEntity
  8
LABEL
100
AcDbText
 10
972.4817531449082
 20
5.0
 30
0.0
 40
4.0
  1
F14 #1
100
AcDbText
  0
LWPOLYLINE
  5
90
330
17
100
AcDbEntity
  8
CUT
100
AcDbPolyline
 90
6
 70
1
 10
977.7593373682329
 20
376.1313710989257
 10
977.7593373682329
 20
225.0781614451561
 10
972.4817531449082
 20
225.00000000046438
 10
972.8833698086015
 20
376.058746935561
 10
974.5087075945218
 20
376.08192264756235
 10
976.1340302298804
 20
376.1061374791276
  0
CIRCLE
  5
91
330
17
100
AcDbEntity
  8
REFERENCE
100
AcDbCircle
 10
972.8833698086015
 20
376.058746935561
 30
0.0
 40
1.0
  0
TEXT
  5
92
330
17
100
AcDbEntity
  8
REFERENCE
100
AcDbText
 10
974.8833698086015
 20
378.058746935561
 30
0.0
 40
2.0
  1
F33.1
 11
974.8833698086015
 21
378.058746935561
 31
0.0
100
AcDbText
  0
CIRCLE
  5
93
330
17
100
AcDbEntity
  8
REFERENCE
100
AcDbCircle
 10
977.7593373682329
 20
376.1313710989257
 30
0.0
 40
1.0
  0
TEXT
  5
94
330
17
100
AcDbEntity
  8
REFERENCE
100
AcDbText
 10
979.7593373682329
 20
378.1313710989257
 30
0.0
 40
2.0
  1
F33.2
 11
979.7593373682329
 21
378.1313710989257
 31
0.0
100
AcDbText
  0
CIRCLE
  5
95
330
17
100
AcDbEntity
  8
REFERENCE
100
AcDbCircle
 10
972.4817531449082
 20
225.00000000046438
 30
0.0
 40
1.0
  0
TEXT
  5
96
330
17
100
AcDbEntity
  8
REFERENCE
100
AcDbText
 10
974.4817531449082
 20
227.00000000046438
 30
0.0
 40
2.0
  1
F33.3
 11
974.4817531449082
 21
227.00000000046438
 31
0.0
100
AcDbText
  0
CIRCLE
  5
97
330
17
100
AcDbEntity
  8
REFERENCE
100
AcDbCircle
 10
977.7593373682329
 20
225.0781614451561
 30
0.0
 40
1.0
  0
TEXT
  5
98
330
17
100
AcDbEntity
  8
REFERENCE
100
AcDbText
 10
979.7593373682329
 20
227.0781614451561
 30
0.0
 40
2.0
  1
F33.4
 11
979.7593373682329
 21
227.0781614451561
 31
0.0
100
AcDbText
  0
TEXT
  5
99
330
17
100
AcDbEntity
  8
LABEL
100
AcDbText
 10
972.4817531449082
 20
220.00000000046438
 30
0.0
 40
4.0
  1
F33 #1
100
AcDbText
  0
LWPOLYLINE
  5
9A
330
17
100
AcDbEntity
  8
CUT
100
AcDbPolyline
 90
13
 70
1
 10
731.0708032482809
 20
549.5219907657379
 10
580.0712241268627
 20
549.3311850393005
 10
580.0714651929782
 20
546.0080876514087
 10
580.0714811347261
 20
542.6871100628941
 10
580.0714650229082
 20
538.7890787060439
 10
580.071224126863
 20
534.8885812708546
 10
731.0709649476559
 20
534.6768469098567
 10
731.0714203235038
 20
536.8824352412963
 10
731.0716271822105
 20
539.0865785608104
 10
731.0717744403356
 20
541.2875851575565
 10
731.0717445548714
 20
543.4836674422814
 10
731.0715736774026
 20
545.6769247797806
 10
731.0713152058416
 20
547.596714788654
  0
CIRCLE
  5
9B
330
17
100
AcDbEntity
  8
REFERENCE
100
AcDbCircle
 10
731.0709649476559
 20
534.6768469098567
 30
0.0
 40
1.0
  0
TEXT
  5
9C
330
17
100
AcDbEntity
  8
REFERENCE
100
AcDbText
 10
729.0709649476559
 20
536.6768469098567
 30
0.0
 40
2.0
  1
F22.1
 50
90.0
 11
729.0709649476559
 21
536.6768469098567
 31
0.0
100
AcDbText
  0
CIRCLE
  5
9D
330
17
100
AcDbEntity
  8
REFERENCE
100
AcDbCircle
 10
731.0708032482809
 20
549.5219907657379
 30
0.0
 40
1.0
  0
TEXT
  5
9E
330
17
100
AcDbEntity
  8
REFERENCE
100
AcDbText
 10
729.0708032482809
 20
551.5219907657379
 30
0.0
 40
2.0
  1
F22.2
 50
90.0
 11
729.0708032482809
 21
551.5219907657379
 31
0.0
100
AcDbText
  0
CIRCLE
  5
9F
330
17
100
AcDbEntity
  8
REFERENCE
100
AcDbCircle
 10
580.071224126863
 20
534.8885812708546
 30
0.0
 40
1.0
  0
TEXT
  5
A0
330
17
100
AcDbEntity
  8
REFERENCE
100
AcDbText
 10
578.071224126863
 20
536.8885812708546
 30
0.0
 40
2.0
  1
F22.3
 50
90.0
 11
578.071224126863
 21
536.8885812708546
 31
0.0
100
AcDbText
  0
CIRCLE
  5
A1
330
17
100
AcDbEntity
  8
REFERENCE
100
AcDbCircle
 10
580.0712241268627
 20
549.3311850393005
 30
0.0
 40
1.0
  0
TEXT
  5
A2
330
17
100
AcDbEntity
  8
REFERENCE
100
AcDbText
 10
578.0712241268627
 20
551.3311850393005
 30
0.0
 40
2.0
  1
F22.4
 50
90.0
 11
578.0712241268627
 21
551.3311850393005
 31
0.0
100
AcDbText
  0
TEXT
  5
A3
330
17
100
AcDbEntity
  8
LABEL
100
AcDbText
 10
580.0712241268627
 20
529.6768469098567
 30
0.0
 40
4.0
  1
F22 #1
100
AcDbText
  0
ENDSEC
  0
SECTION
  2
OBJECTS
  0
DICTIONARY
  5
A
330
0
100
AcDbDictionary
281
1
  3
ACAD_COLOR
350
B
  3
ACAD_GROUP
350
C
  3
ACAD_LAYOUT
350
D
  3
ACAD_MATERIAL
350
E
  3
ACAD_MLEADERSTYLE
350
F
  3
ACAD_MLINESTYLE
350
10
  3
ACAD_PLOTSETTINGS
350
11
  3
ACAD_PLOTSTYLENAME
350
12
  3
ACAD_SCALELIST
350
14
  3
ACAD_TABLESTYLE
350
15
  3
ACAD_VISUALSTYLE
350
16
  3
EZDXF_META
350
2D
  0
DICTIONARY
  5
B
330
A
100
AcDbDictionary
281
1
  0
DICTIONARY
  5
C
330
A
100
AcDbDictionary
281
1
  0
DICTIONARY
  5
D
330
A
100
AcDbDictionary
281
1
  3
Model
350
1A
  3
Layout1
350
1E
  0
DICTIONARY
  5
E
330
A
100
AcDbDictionary
281
1
  3
ByBlock
350
1F
  3
ByLayer
350
20
  3
Global
350
21
  0
DICTIONARY
  5
F
330
A
100
AcDbDictionary
281
1
  3
Standard
350
2C
  0
DICTIONARY
  5
10
330
A
100
AcDbDictionary
281
1
  3
Standard
350
22
  0
DICTIONARY
  5
11
330
A
100
AcDbDictionary
281
1
  0
ACDBDICTIONARYWDFLT
  5
12
330
A
100
AcDbDictionary
281
1
  3
Normal
350
13
100
AcDbDictionaryWithDefault
340
13
  0
ACDBPLACEHOLDER
  5
13
330
12
  0
DICTIONARY
  5
14
330
A
100
AcDbDictionary
281
1
  0
DICTIONARY
  5
15
330
A
100
AcDbDictionary
281
1
  0
DICTIONARY
  5
16
330
A
100
AcDbDictionary
281
1
  0
LAYOUT
  5
1A
330
D
100
AcDbPlotSettings
  1

  4
A3
  6

 40
7.5
 41
20.0
 42
7.5
 43
20.0
 44
420.0
 45
297.0
 46
0.0
 47
0.0
 48
0.0
 49
0.0
140
0.0
141
0.0
142
1.0
143
1.0
 70
1024
 72
1
 73
0
 74
5
  7

 75
16
 76
0
 77
2
 78
300
147
1.0
148
0.0
149
0.0
100
AcDbLayout
  1
Model
 70
1
 71
0
 10
0.0
 20
0.0
 11
420.0
 21
297.0
 12
0.0
 22
0.0
 32
0.0
 14
1e+20
 24
1e+20
 34
1e+20
 15
-1e+20
 25
-1e+20
 35
-1e+20
146
0.0
 13
0.0
 23
0.0
 33
0.0
 16
1.0
 26
0.0
 36
0.0
 17
0.0
 27
1.0
 37
0.0
 76
1
330
17
  0
LAYOUT
  5
1E
330
D
100
AcDbPlotSettings
  1

  4
A3
  6

 40
7.5
 41
20.0
 42
7.5
 43
20.0
 44
420.0
 45
297.0
 46
0.0
 47
0.0
 48
0.0
 49
0.0
140
0.0
141
0.0
142
1.0
143
1.0
 70
0
 72
1
 73
0
 74
5
  7

 75
16
 76
0
 77
2
 78
300
147
1.0
148
0.0
149
0.0
100
AcDbLayout
  1
Layout1
 70
1
 71
1
 10
0.0
 20
0.0
 11
420.0
 21
297.0
 12
0.0
 22
0.0
 32
0.0
 14
1e+20
 24
1e+20
 34
1e+20
 15
-1e+20
 25
-1e+20
 35
-1e+20
146
0.0
 13
0.0
 23
0.0
 33
0.0
 16
1.0
 26
0.0
 36
0.0
 17
0.0
 27
1.0
 37
0.0
 76
1
330
1B
  0
MATERIAL
  5
1F
102
{ACAD_REACTORS
330
E
102
}
330
E
100
AcDbMaterial
  1
ByBlock
  2

 70
0
 40
1.0
 71
1
 41
1.0
 91
-1023410177
 42
1.0
 72
1
  3

 73
1
 74
1
 75
1
 44
0.5
 73
0
 45
1.0
 46
1.0
 77
1
  4

 78
1
 79
1
170
1
 48
1.0
171
1
  6

172
1
173
1
174
1
140
1.0
141
1.0
175
1
  7

176
1
177
1
178
1
143
1.0
179
1
  8

270
1
271
1
272
1
145
1.0
146
1.0
273
1
  9

274
1
275
1
276
1
 42
1.0
 72
1
  3

 73
1
 74
1
 75
1
 94
63
  0
MATERIAL
  5
20
102
{ACAD_REACTORS
330
E
102
}
330
E
100
AcDbMaterial
  1
ByLayer
  2

 70
0
 40
1.0
 71
1
 41
1.0
 91
-1023410177
 42
1.0
 72
1
  3

 73
1
 74
1
 75
1
 44
0.5
 73
0
 45
1.0
 46
1.0
 77
1
  4

 78
1
 79
1
170
1
 48
1.0
171
1
  6

172
1
173
1
174
1
140
1.0
141
1.0
175
1
  7

176
1
177
1
178
1
143
1.0
179
1
  8

270
1
271
1
272
1
145
1.0
146
1.0
273
1
  9

274
1
275
1
276
1
 42
1.0
 72
1
  3

 73
1
 74
1
 75
1
 94
63
  0
MATERIAL
  5
21
102
{ACAD_REACTORS
330
E
102
}
330
E
100
AcDbMaterial
  1
Global
  2

 70
0
 40
1.0
 71
1
 41
1.0
 91
-1023410177
 42
1.0
 72
1
  3

 73
1
 74
1
 75
1
 44
0.5
 73
0
 45
1.0
 46
1.0
 77
1
  4

 78
1
 79
1
170
1
 48
1.0
171
1
  6

172
1
173
1
174
1
140
1.0
141
1.0
175
1
  7

176
1
177
1
178
1
143
1.0
179
1
  8

270
1
271
1
272
1
145
1.0
146
1.0
273
1
  9

274
1
275
1
276
1
 42
1.0
 72
1
  3

 73
1
 74
1
 75
1
 94
63
  0
MLINESTYLE
  5
22
102
{ACAD_REACTORS
330
10
102
}
330
10
100
AcDbMlineStyle
  2
Standard
 70
0
  3

 62
256
 51
90.0
 52
90.0
 71
2
 49
0.5
 62
256
  6
BYLAYER
 49
-0.5
 62
256
  6
BYLAYER
  0
MLEADERSTYLE
  5
2C
102
{ACAD_REACTORS
330
F
102
}
330
F
100
AcDbMLeaderStyle
179
2
170
2
171
1
172
0
 90
2
 40
0.0
 41
0.0
173
1
 91
-1056964608
 92
-2
290
1
 42
2.0
291
1
 43
8.0
  3
Standard
 44
4.0
300

342
29
174
1
175
1
176
0
178
1
 93
-1056964608
 45
4.0
292
0
297
0
 46
4.0
 94
-1056964608
 47
1.0
 49
1.0
140
1.0
294
1
141
0.0
177
0
142
1.0
295
0
296
0
143
3.75
271
0
272
9
273
9
  0
DICTIONARY
  5
2D
330
A
100
AcDbDictionary
280
1
281
1
  3
CREATED_BY_EZDXF
350
2E
  3
WRITTEN_BY_EZDXF
350
A6
  0
DICTIONARYVAR
  5
2E
330
2D
100
DictionaryVariables
280
0
  1
1.4.4 @ 2026-09-19T12:13:22.182795+00:00
  0
DICTIONARYVAR
  5
A6
330
2D
100
DictionaryVariables
280
0
  1
1.4.4 @ 2026-09-19T12:13:22.259797+00:00
  0
ENDSEC
  0
EOF
