  0
SECTION
  2
HEADER
  9
$ACADVER
  1
AC1024
  9
$ACADMAINTVER
 70
6
  9
$DWGCODEPAGE
  3
ANSI_1252
  9
$LASTSAVEDBY
  1
ezdxf
  9
$INSBASE
 10
0.0
 20
0.0
 30
0.0
  9
$EXTMIN
 10
1e+20
 20
1e+20
 30
1e+20
  9
$EXTMAX
 10
-1e+20
 20
-1e+20
 30
-1e+20
  9
$LIMMIN
 10
0.0
 20
0.0
  9
$LIMMAX
 10
420.0
 20
297.0
  9
$ORTHOMODE
 70
0
  9
$REGENMODE
 70
1
  9
$FILLMODE
 70
1
  9
$QTEXTMODE
 70
0
  9
$MIRRTEXT
 70
1
  9
$LTSCALE
 40
1.0
  9
$ATTMODE
 70
1
  9
$TEXTSIZE
 40
2.5
  9
$TRACEWID
 40
1.0
  9
$TEXTSTYLE
  7
Standard
  9
$CLAYER
  8
0
  9
$CELTYPE
  6
ByLayer
  9
$CECOLOR
 62
256
  9
$CELTSCALE
 40
1.0
  9
$DISPSILH
 70
0
  9
$DIMSCALE
 40
1.0
  9
$DIMASZ
 40
2.5
  9
$DIMEXO
 40
0.625
  9
$DIMDLI
 40
3.75
  9
$DIMRND
 40
0.0
  9
$DIMDLE
 40
0.0
  9
$DIMEXE
 40
1.25
  9
$DIMTP
 40
0.0
  9
$DIMTM
 40
0.0
  9
$DIMTXT
 40
2.5
  9
$DIMCEN
 40
2.5
  9
$DIMTSZ
 40
0.0
  9
$DIMTOL
 70
0
  9
$DIMLIM
 70
0
  9
$DIMTIH
 70
0
  9
$DIMTOH
 70
0
  9
$DIMSE1
 70
0
  9
$DIMSE2
 70
0
  9
$DIMTAD
 70
1
  9
$DIMZIN
 70
8
  9
$DIMBLK
  1

  9
$DIMASO
 70
1
  9
$DIMSHO
 70
1
  9
$DIMPOST
  1

  9
$DIMAPOST
  1

  9
$DIMALT
 70
0
  9
$DIMALTD
 70
3
  9
$DIMALTF
 40
0.03937007874
  9
$DIMLFAC
 40
1.0
  9
$DIMTOFL
 70
1
  9
$DIMTVP
 40
0.0
  9
$DIMTIX
 70
0
  9
$DIMSOXD
 70
0
  9
$DIMSAH
 70
0
  9
$DIMBLK1
  1

  9
$DIMBLK2
  1

  9
$DIMSTYLE
  2
ISO-25
  9
$DIMCLRD
 70
0
  9
$DIMCLRE
 70
0
  9
$DIMCLRT
 70
0
  9
$DIMTFAC
 40
1.0
  9
$DIMGAP
 40
0.625
  9
$DIMJUST
 70
0
  9
$DIMSD1
 70
0
  9
$DIMSD2
 70
0
  9
$DIMTOLJ
 70
0
  9
$DIMTZIN
 70
8
  9
$DIMALTZ
 70
0
  9
$DIMALTTZ
 70
0
  9
$DIMUPT
 70
0
  9
$DIMDEC
 70
2
  9
$DIMTDEC
 70
2
  9
$DIMALTU
 70
2
  9
$DIMALTTD
 70
3
  9
$DIMTXSTY
  7
Standard
  9
$DIMAUNIT
 70
0
  9
$DIMADEC
 70
0
  9
$DIMALTRND
 40
0.0
  9
$DIMAZIN
 70
0
  9
$DIMDSEP
 70
44
  9
$DIMATFIT
 70
3
  9
$DIMFRAC
 70
0
  9
$DIMLDRBLK
  1

  9
$DIMLUNIT
 70
2
  9
$DIMLWD
 70
-2
  9
$DIMLWE
 70
-2
  9
$DIMTMOVE
 70
0
  9
$DIMFXL
 40
1.0
  9
$DIMFXLON
 70
0
  9
$DIMJOGANG
 40
0.785398163397
  9
$DIMTFILL
 70
0
  9
$DIMTFILLCLR
 70
0
  9
$DIMARCSYM
 70
0
  9
$DIMLTYPE
  6

  9
$DIMLTEX1
  6

  9
$DIMLTEX2
  6

  9
$DIMTXTDIRECTION
 70
0
  9
$LUNITS
 70
2
  9
$LUPREC
 70
4
  9
$SKETCHINC
 40
1.0
  9
$FILLETRAD
 40
10.0
  9
$AUNITS
 70
0
  9
$AUPREC
 70
2
  9
$MENU
  1
.
  9
$ELEVATION
 40
0.0
  9
$PELEVATION
 40
0.0
  9
$THICKNESS
 40
0.0
  9
$LIMCHECK
 70
0
  9
$CHAMFERA
 40
0.0
  9
$CHAMFERB
 40
0.0
  9
$CHAMFERC
 40
0.0
  9
$CHAMFERD
 40
0.0
  9
$SKPOLY
 70
0
  9
$TDCREATE
 40
2461303.738449074
  9
$TDUCREATE
 40
2458532.153996898
  9
$TDUPDATE
 40
2461303.738449074
  9
$TDUUPDATE
 40
2458532.1544311
  9
$TDINDWG
 40
0.0
  9
$TDUSRTIMER
 40
0.0
  9
$USRTIMER
 70
1
  9
$ANGBASE
 50
0.0
  9
$ANGDIR
 70
0
  9
$PDMODE
 70
0
  9
$PDSIZE
 40
0.0
  9
$PLINEWID
 40
0.0
  9
$SPLFRAME
 70
0
  9
$SPLINETYPE
 70
6
  9
$SPLINESEGS
 70
8
  9
$HANDSEED
  5
D0
  9
$SURFTAB1
 70
6
  9
$SURFTAB2
 70
6
  9
$SURFTYPE
 70
6
  9
$SURFU
 70
6
  9
$SURFV
 70
6
  9
$UCSBASE
  2

  9
$UCSNAME
  2

  9
$UCSORG
 10
0.0
 20
0.0
 30
0.0
  9
$UCSXDIR
 10
1.0
 20
0.0
 30
0.0
  9
$UCSYDIR
 10
0.0
 20
1.0
 30
0.0
  9
$UCSORTHOREF
  2

  9
$UCSORTHOVIEW
 70
0
  9
$UCSORGTOP
 10
0.0
 20
0.0
 30
0.0
  9
$UCSORGBOTTOM
 10
0.0
 20
0.0
 30
0.0
  9
$UCSORGLEFT
 10
0.0
 20
0.0
 30
0.0
  9
$UCSORGRIGHT
 10
0.0
 20
0.0
 30
0.0
  9
$UCSORGFRONT
 10
0.0
 20
0.0
 30
0.0
  9
$UCSORGBACK
 10
0.0
 20
0.0
 30
0.0
  9
$PUCSBASE
  2

  9
$PUCSNAME
  2

  9
$PUCSORG
 10
0.0
 20
0.0
 30
0.0
  9
$PUCSXDIR
 10
1.0
 20
0.0
 30
0.0
  9
$PUCSYDIR
 10
0.0
 20
1.0
 30
0.0
  9
$PUCSORTHOREF
  2

  9
$PUCSORTHOVIEW
 70
0
  9
$PUCSORGTOP
 10
0.0
 20
0.0
 30
0.0
  9
$PUCSORGBOTTOM
 10
0.0
 20
0.0
 30
0.0
  9
$PUCSORGLEFT
 10
0.0
 20
0.0
 30
0.0
  9
$PUCSORGRIGHT
 10
0.0
 20
0.0
 30
0.0
  9
$PUCSORGFRONT
 10
0.0
 20
0.0
 30
0.0
  9
$PUCSORGBACK
 10
0.0
 20
0.0
 30
0.0
  9
$USERI1
 70
0
  9
$USERI2
 70
0
  9
$USERI3
 70
0
  9
$USERI4
 70
0
  9
$USERI5
 70
0
  9
$USERR1
 40
0.0
  9
$USERR2
 40
0.0
  9
$USERR3
 40
0.0
  9
$USERR4
 40
0.0
  9
$USERR5
 40
0.0
  9
$WORLDVIEW
 70
1
  9
$SHADEDGE
 70
3
  9
$SHADEDIF
 70
70
  9
$TILEMODE
 70
1
  9
$MAXACTVP
 70
64
  9
$PINSBASE
 10
0.0
 20
0.0
 30
0.0
  9
$PLIMCHECK
 70
0
  9
$PEXTMIN
 10
1e+20
 20
1e+20
 30
1e+20
  9
$PEXTMAX
 10
-1e+20
 20
-1e+20
 30
-1e+20
  9
$PLIMMIN
 10
0.0
 20
0.0
  9
$PLIMMAX
 10
420.0
 20
297.0
  9
$UNITMODE
 70
0
  9
$VISRETAIN
 70
1
  9
$PLINEGEN
 70
0
  9
$PSLTSCALE
 70
1
  9
$TREEDEPTH
 70
3020
  9
$CMLSTYLE
  2
Standard
  9
$CMLJUST
 70
0
  9
$CMLSCALE
 40
20.0
  9
$PROXYGRAPHICS
 70
1
  9
$MEASUREMENT
 70
1
  9
$CELWEIGHT
370
-1
  9
$ENDCAPS
280
0
  9
$JOINSTYLE
280
0
  9
$LWDISPLAY
290
0
  9
$INSUNITS
 70
4
  9
$HYPERLINKBASE
  1

  9
$STYLESHEET
  1

  9
$XEDIT
290
1
  9
$CEPSNTYPE
380
0
  9
$PSTYLEMODE
290
1
  9
$FINGERPRINTGUID
  2
{8C6B04E3-EA9F-47F6-9DA7-20E9B5C37676}
  9
$VERSIONGUID
  2
{F8D2B4C6-D5F3-4D3B-BD03-BE0B59569767}
  9
$EXTNAMES
290
1
  9
$PSVPSCALE
 40
0.0
  9
$OLESTARTUP
290
0
  9
$SORTENTS
280
127
  9
$INDEXCTL
280
0
  9
$HIDETEXT
280
1
  9
$XCLIPFRAME
280
1
  9
$HALOGAP
280
0
  9
$OBSCOLOR
 70
257
  9
$OBSLTYPE
280
0
  9
$INTERSECTIONDISPLAY
280
0
  9
$INTERSECTIONCOLOR
 70
257
  9
$DIMASSOC
280
2
  9
$PROJECTNAME
  1

  9
$CAMERADISPLAY
290
0
  9
$LENSLENGTH
 40
50.0
  9
$CAMERAHEIGHT
 40
0.0
  9
$STEPSPERSEC
 40
24.0
  9
$STEPSIZE
 40
100.0
  9
$3DDWFPREC
 40
2.0
  9
$PSOLWIDTH
 40
0.005
  9
$PSOLHEIGHT
 40
0.08
  9
$LOFTANG1
 40
1.570796326795
  9
$LOFTANG2
 40
1.570796326795
  9
$LOFTMAG1
 40
0.0
  9
$LOFTMAG2
 40
0.0
  9
$LOFTPARAM
 70
7
  9
$LOFTNORMALS
280
1
  9
$LATITUDE
 40
37.795
  9
$LONGITUDE
 40
-122.394
  9
$NORTHDIRECTION
 40
0.0
  9
$TIMEZONE
 70
-8000
  9
$LIGHTGLYPHDISPLAY
280
1
  9
$TILEMODELIGHTSYNCH
280
1
  9
$CMATERIAL
347
20
  9
$SOLIDHIST
280
0
  9
$SHOWHIST
280
1
  9
$DWFFRAME
280
2
  9
$DGNFRAME
280
2
  9
$REALWORLDSCALE
290
1
  9
$INTERFERECOLOR
 62
256
  9
$CSHADOW
280
0
  9
$SHADOWPLANELOCATION
 40
0.0
  0
ENDSEC
  0
SECTION
  2
CLASSES
  0
CLASS
  1
ACDBDICTIONARYWDFLT
  2
AcDbDictionaryWithDefault
  3
ObjectDBX Classes
 90
0
 91
0
280
0
281
0
  0
CLASS
  1
SUN
  2
AcDbSun
  3
SCENEOE
 90
1153
 91
0
280
0
281
0
  0
CLASS
  1
VISUALSTYLE
  2
AcDbVisualStyle
  3
ObjectDBX Classes
 90
4095
 91
0
280
0
281
0
  0
CLASS
  1
MATERIAL
  2
AcDbMaterial
  3
ObjectDBX Classes
 90
1153
 91
0
280
0
281
0
  0
CLASS
  1
SCALE
  2
AcDbScale
  3
ObjectDBX Classes
 90
1153
 91
0
280
0
281
0
  0
CLASS
  1
TABLESTYLE
  2
AcDbTableStyle
  3
ObjectDBX Classes
 90
4095
 91
0
280
0
281
0
  0
CLASS
  1
MLEADERSTYLE
  2
AcDbMLeaderStyle
  3
ACDB_MLEADERSTYLE_CLASS
 90
4095
 91
0
280
0
281
0
  0
CLASS
  1
DICTIONARYVAR
  2
AcDbDictionaryVar
  3
ObjectDBX Classes
 90
0
 91
0
280
0
281
0
  0
CLASS
  1
CELLSTYLEMAP
  2
AcDbCellStyleMap
  3
ObjectDBX Classes
 90
1152
 91
0
280
0
281
0
  0
CLASS
  1
MENTALRAYRENDERSETTINGS
  2
AcDbMentalRayRenderSettings
  3
SCENEOE
 90
1024
 91
0
280
0
281
0
  0
CLASS
  1
ACDBDETAILVIEWSTYLE
  2
AcDbDetailViewStyle
  3
ObjectDBX Classes
 90
1025
 91
0
280
0
281
0
  0
CLASS
  1
ACDBSECTIONVIEWSTYLE
  2
AcDbSectionViewStyle
  3
ObjectDBX Classes
 90
1025
 91
0
280
0
281
0
  0
CLASS
  1
RASTERVARIABLES
  2
AcDbRasterVariables
  3
ISM
 90
0
 91
0
280
0
281
0
  0
CLASS
  1
ACDBPLACEHOLDER
  2
AcDbPlaceHolder
  3
ObjectDBX Classes
 90
0
 91
0
280
0
281
0
  0
CLASS
  1
LAYOUT
  2
AcDbLayout
  3
ObjectDBX Classes
 90
0
 91
0
280
0
281
0
  0
ENDSEC
  0
SECTION
  2
TABLES
  0
TABLE
  2
VPORT
  5
8
330
0
100
AcDbSymbolTable
 70
1
  0
VPORT
  5
23
330
8
100
AcDbSymbolTableRecord
100
AcDbViewportTableRecord
  2
*Active
 70
0
 10
0.0
 20
0.0
 11
1.0
 21
1.0
 12
0.0
 22
0.0
 13
0.0
 23
0.0
 14
0.5
 24
0.5
 15
0.5
 25
0.5
 16
0.0
 26
0.0
 36
1.0
 17
0.0
 27
0.0
 37
0.0
 40
1000.0
 41
1.34
 42
50.0
 43
0.0
 44
0.0
 50
0.0
 51
0.0
 71
0
 72
1000
 73
1
 74
3
 75
0
 76
0
 77
0
 78
0
281
0
 65
0
146
0.0
  0
ENDTAB
  0
TABLE
  2
LTYPE
  5
2
330
0
100
AcDbSymbolTable
 70
3
  0
LTYPE
  5
24
330
2
100
AcDbSymbolTableRecord
100
AcDbLinetypeTableRecord
  2
ByBlock
 70
0
  3

 72
65
 73
0
 40
0.0
  0
LTYPE
  5
25
330
2
100
AcDbSymbolTableRecord
100
AcDbLinetypeTableRecord
  2
ByLayer
 70
0
  3

 72
65
 73
0
 40
0.0
  0
LTYPE
  5
26
330
2
100
AcDbSymbolTableRecord
100
AcDbLinetypeTableRecord
  2
Continuous
 70
0
  3

 72
65
 73
0
 40
0.0
  0
ENDTAB
  0
TABLE
  2
LAYER
  5
1
330
0
100
AcDbSymbolTable
 70
6
  0
LAYER
  5
27
330
1
100
AcDbSymbolTableRecord
100
AcDbLayerTableRecord
  2
0
 70
0
 62
7
  6
Continuous
370
-3
390
13
347
21
  0
LAYER
  5
28
330
1
100
AcDbSymbolTableRecord
100
AcDbLayerTableRecord
  2
Defpoints
 70
0
 62
7
  6
Continuous
290
0
370
-3
390
13
347
21
  0
LAYER
  5
2F
330
1
100
AcDbSymbolTableRecord
100
AcDbLayerTableRecord
  2
CUT
 70
0
 62
7
  6
Continuous
370
-3
390
13
347
21
  0
LAYER
  5
30
330
1
100
AcDbSymbolTableRecord
100
AcDbLayerTableRecord
  2
REFERENCE
 70
0
 62
3
  6
Continuous
370
-3
390
13
347
21
  0
LAYER
  5
31
330
1
100
AcDbSymbolTableRecord
100
AcDbLayerTableRecord
  2
LABEL
 70
0
 62
3
  6
Continuous
370
-3
390
13
347
21
  0
LAYER
  5
32
330
1
100
AcDbSymbolTableRecord
100
AcDbLayerTableRecord
  2
SHEET_NONCUT
 70
0
 62
8
  6
Continuous
370
-3
390
13
347
21
  0
ENDTAB
  0
TABLE
  2
STYLE
  5
5
330
0
100
AcDbSymbolTable
 70
1
  0
STYLE
  5
29
330
5
100
AcDbSymbolTableRecord
100
AcDbTextStyleTableRecord
  2
Standard
 70
0
 40
0.0
 41
1.0
 50
0.0
 71
0
 42
2.5
  3
txt
  4

  0
ENDTAB
  0
TABLE
  2
VIEW
  5
7
330
0
100
AcDbSymbolTable
 70
0
  0
ENDTAB
  0
TABLE
  2
UCS
  5
6
330
0
100
AcDbSymbolTable
 70
0
  0
ENDTAB
  0
TABLE
  2
APPID
  5
3
330
0
100
AcDbSymbolTable
 70
3
  0
APPID
  5
2A
330
3
100
AcDbSymbolTableRecord
100
AcDbRegAppTableRecord
  2
ACAD
 70
0
  0
APPID
  5
CD
330
3
100
AcDbSymbolTableRecord
100
AcDbRegAppTableRecord
  2
HATCHBACKGROUNDCOLOR
 70
0
  0
APPID
  5
CE
330
3
100
AcDbSymbolTableRecord
100
AcDbRegAppTableRecord
  2
EZDXF
 70
0
  0
ENDTAB
  0
TABLE
  2
DIMSTYLE
  5
4
330
0
100
AcDbSymbolTable
 70
1
100
AcDbDimStyleTable
  0
DIMSTYLE
105
2B
330
4
100
AcDbSymbolTableRecord
100
AcDbDimStyleTableRecord
  2
Standard
 70
0
 40
1.0
 41
2.5
 42
0.625
 43
3.75
 44
1.25
 45
0.0
 46
0.0
 47
0.0
 48
0.0
 49
2.5
140
2.5
141
2.5
142
0.0
143
0.03937007874
144
1.0
145
0.0
146
1.0
147
0.625
148
0.0
 69
0
 70
0
 71
0
 72
0
 73
0
 74
0
 75
0
 76
0
 77
1
 78
8
 79
3
170
0
171
3
172
1
173
0
174
0
175
0
176
0
177
0
178
0
179
2
271
2
272
2
273
2
274
3
275
0
276
0
277
2
278
44
279
0
280
0
281
0
282
0
283
0
284
8
285
0
286
0
288
0
289
3
290
0
371
-2
372
-2
  0
ENDTAB
  0
TABLE
  2
BLOCK_RECORD
  5
9
330
0
100
AcDbSymbolTable
 70
2
  0
BLOCK_RECORD
  5
17
330
9
100
AcDbSymbolTableRecord
100
AcDbBlockTableRecord
  2
*Model_Space
340
1A
 70
0
280
1
281
0
  0
BLOCK_RECORD
  5
1B
330
9
100
AcDbSymbolTableRecord
100
AcDbBlockTableRecord
  2
*Paper_Space
340
1E
 70
0
280
1
281
0
  0
ENDTAB
  0
ENDSEC
  0
SECTION
  2
BLOCKS
  0
BLOCK
  5
18
330
17
100
AcDbEntity
  8
0
100
AcDbBlockBegin
  2
*Model_Space
 70
0
 10
0.0
 20
0.0
 30
0.0
  3
*Model_Space
  1

  0
ENDBLK
  5
19
330
17
100
AcDbEntity
  8
0
100
AcDbBlockEnd
  0
BLOCK
  5
1C
330
1B
100
AcDbEntity
  8
0
100
AcDbBlockBegin
  2
*Paper_Space
 70
0
 10
0.0
 20
0.0
 30
0.0
  3
*Paper_Space
  1

  0
ENDBLK
  5
1D
330
1B
100
AcDbEntity
  8
0
100
AcDbBlockEnd
  0
ENDSEC
  0
SECTION
  2
ENTITIES
  0
LWPOLYLINE
  5
33
330
17
100
AcDbEntity
  8
SHEET_NONCUT
100
AcDbPolyline
 90
4
 70
1
 10
0.0
 20
0.0
 10
1000.0
 20
0.0
 10
1000.0
 20
600.0
 10
0.0
 20
600.0
  0
LWPOLYLINE
  5
34
330
17
100
AcDbEntity
  8
CUT
100
AcDbPolyline
 90
139
 70
1
 10
311.6344970917785
 20
458.7451372847865
 10
313.44788341391535
 20
440.1784572822738
 10
290.764060713457
 20
437.9790795084742
 10
288.9863957811512
 20
456.654085954318
 10
267.22910137293877
 20
454.6622503346107
 10
256.35690724990855
 20
453.6622799938874
 10
253.52293329299678
 20
453.4010678259433
 10
251.87701789665132
 20
453.2460066776391
 10
250.36085280469888
 20
453.10496615852753
 10
249.66162560600853
 20
453.041084410381
 10
249.086117265839
 20
452.9877884951624
 10
248.5130212645081
 20
452.93470462405924
 10
247.9402005593771
 20
452.88251654059695
 10
246.17970625975386
 20
452.72371987099507
 10
244.4211156895979
 20
452.56728546333164
 10
243.9838220036223
 20
452.52920063978195
 10
243.69589144710227
 20
452.5047134504531
 10
243.4063040727516
 20
452.4808640124679
 10
243.17156384343866
 20
452.4622060997837
 10
242.9604136653778
 20
452.44606108359494
 10
242.77016152492365
 20
452.4324151641885
 10
242.5392124515118
 20
452.4165454377346
 10
242.30051310102152
 20
452.40146584271497
 10
242.0611630657122
 20
452.38769242483
 10
241.74253487397368
 20
452.36965247073965
 10
241.42132124215598
 20
452.35292302084616
 10
241.13345543974907
 20
452.3388503391978
 10
240.84539577730249
 20
452.3265817633581
 10
240.55541583378377
 20
452.31566291061984
 10
240.40965240222098
 20
452.3109437403036
 10
240.29217827159337
 20
452.30770023718384
 10
240.18623270860007
 20
452.30551900119906
 10
240.0651244280093
 20
452.3037824580602
 10
239.94380657452672
 20
452.30277421519696
 10
239.82219376749094
 20
452.30250206249997
 10
239.70031656135092
 20
452.30269180767067
 10
239.57831997028123
 20
452.3033687641491
 10
239.45640947907054
 20
452.3048013627506
 10
239.33479975505756
 20
452.3067588058512
 10
239.21340903672012
 20
452.3090332202005
 10
239.0517222468011
 20
452.31249090306414
 10
238.8699203371365
 20
452.31726614621175
 10
238.62786987401506
 20
452.32467405561897
 10
238.26663477554484
 20
452.337484811071
 10
237.86130407414097
 20
452.3528446374171
 10
237.3193747186209
 20
452.3733308284826
 10
236.4273001544599
 20
452.41254822670555
 10
235.76788122694762
 20
452.44343221758794
 10
235.08934485656334
 20
452.477342694699
 10
234.0759790217756
 20
452.5296326288743
 10
233.17018228041587
 20
452.579082902219
 10
232.1514563172828
 20
452.637539795892
 10
230.78970709354368
 20
452.71969116696306
 10
228.74831625634704
 20
452.84842941185605
 10
225.69966633732645
 20
453.0463082918642
 10
222.28397402838235
 20
453.27541277548954
 10
218.87342994171755
 20
453.5129931916508
 10
214.32417886156298
 20
453.8367589254344
 10
209.18777312261335
 20
454.2151302630012
 10
204.04912011063257
 20
454.5995430859448
 10
197.22991657519358
 20
455.1233154651836
 10
184.40577208256187
 20
456.13467894060545
 10
171.80773830680266
 20
457.1355030794261
 10
156.7091433188204
 20
458.3609679709886
 10
140.04593711676827
 20
459.740293777867
 10
122.57445095632758
 20
461.2096810965196
 10
101.52508862967852
 20
462.99935813560285
 10
86.28455721573874
 20
464.3056558178083
 10
71.03656675557028
 20
465.6243317611336
 10
10.0
 20
29.349040575195204
 10
25.062840808781687
 20
28.066680453681215
 10
40.21230011312366
 20
26.77775915695429
 10
65.00118301793589
 20
24.67265512959625
 10
87.57314897449078
 20
22.76110602816027
 10
106.96636990570536
 20
21.117847837310705
 10
126.32223785851434
 20
19.482412918409523
 10
143.4555544453576
 20
18.036113668533858
 10
160.15990771227976
 20
16.629319013378904
 10
176.28393725266216
 20
15.274645075252579
 10
187.3772641035793
 20
14.344515442323768
 10
195.67355450883738
 20
13.652792963404977
 10
204.51802053990326
 20
12.920290321728544
 10
211.71931056596807
 20
12.331222673261891
 10
218.07472996371033
 20
11.817573652629108
 10
223.76228144417274
 20
11.3660154570224
 10
227.11837145849623
 20
11.10376778634236
 10
229.26312823397646
 20
10.939698277171374
 10
231.07815330319482
 20
10.803083775548657
 10
232.5754673671217
 20
10.691887978953105
 10
233.94151670511502
 20
10.592568946614847
 10
235.2497905882176
 20
10.499871666763852
 10
236.2443004009109
 20
10.433033624847212
 10
237.31110228005468
 20
10.364922776915478
 10
238.7437644085056
 20
10.275949245995662
 10
239.8749689647513
 20
10.206585330478106
 10
241.12185113767492
 20
10.132669444118733
 10
241.61409072716364
 20
10.10506549174238
 10
242.0794864835288
 20
10.079152482985705
 10
242.46934371744163
 20
10.059481316035885
 10
242.74833817213008
 20
10.046795120322827
 10
243.01688434815622
 20
10.036036101592003
 10
243.27606939028453
 20
10.026351390628406
 10
243.4988702399325
 20
10.018553527721679
 10
243.66144114968097
 20
10.013242465129565
 10
243.82030271332158
 20
10.008550646110166
 10
243.97576946662548
 20
10.005513883936487
 10
244.1281554270979
 20
10.003389222546957
 10
244.2778733594957
 20
10.001659220564761
 10
244.42543191358374
 20
10.00051406719706
 10
244.57097294289815
 20
10.0
 10
244.71451163554545
 20
10.000297807336892
 10
244.85587684232087
 20
10.001321989663552
 10
244.9948794912811
 20
10.002982635593867
 10
245.13147596828958
 20
10.005200452096346
 10
245.2656184422852
 20
10.007916160918853
 10
245.3721715917706
 20
10.010576949431425
 10
245.5445844754239
 20
10.016200739428768
 10
245.7177946079264
 20
10.022260254811385
 10
245.8844970237137
 20
10.028743609686217
 10
246.17084937151338
 20
10.04114784022795
 10
246.48788538749392
 20
10.05719662721026
 10
246.86013257056837
 20
10.078594116119348
 10
247.27499600566756
 20
10.104515737158408
 10
247.71976670536566
 20
10.134125023689876
 10
248.23873005476102
 20
10.171155241734596
 10
248.6881518880611
 20
10.204813288216883
 10
249.18753630695875
 20
10.243638261486467
 10
249.69165514155185
 20
10.28499832018997
 10
250.25672073680016
 20
10.334002056106897
 10
250.90055294504924
 20
10.392453087383274
 10
251.83858772443787
 20
10.47883587441595
 10
257.0617689159358
 20
10.97099728349258
 10
260.9592859134853
 20
11.347509602903301
 10
273.2645116793788
 20
12.54600415426762
 10
289.2609149717686
 20
14.111193363882649
 10
303.18392436566364
 20
15.475635179453661
 10
356.19046116907816
 20
20.663510939523803
 10
453.05481150471337
 20
30.106713169333375
 10
385.9708061277704
 20
465.6243317611316
  0
CIRCLE
  5
35
330
17
100
AcDbEntity
  8
REFERENCE
100
AcDbCircle
 10
385.9708061277704
 20
465.6243317611316
 30
0.0
 40
1.0
  0
TEXT
  5
36
330
17
100
AcDbEntity
  8
REFERENCE
100
AcDbText
 10
387.9708061277704
 20
467.6243317611316
 30
0.0
 40
2.0
  1
F02.1
 11
387.9708061277704
 21
467.6243317611316
 31
0.0
100
AcDbText
  0
CIRCLE
  5
37
330
17
100
AcDbEntity
  8
REFERENCE
100
AcDbCircle
 10
71.03656675557028
 20
465.6243317611336
 30
0.0
 40
1.0
  0
TEXT
  5
38
330
17
100
AcDbEntity
  8
REFERENCE
100
AcDbText
 10
73.03656675557028
 20
467.6243317611336
 30
0.0
 40
2.0
  1
F02.2
 11
73.03656675557028
 21
467.6243317611336
 31
0.0
100
AcDbText
  0
CIRCLE
  5
39
330
17
100
AcDbEntity
  8
REFERENCE
100
AcDbCircle
 10
453.05481150471337
 20
30.106713169333375
 30
0.0
 40
1.0
  0
TEXT
  5
3A
330
17
100
AcDbEntity
  8
REFERENCE
100
AcDbText
 10
455.05481150471337
 20
32.106713169333375
 30
0.0
 40
2.0
  1
F02.3
 11
455.05481150471337
 21
32.106713169333375
 31
0.0
100
AcDbText
  0
CIRCLE
  5
3B
330
17
100
AcDbEntity
  8
REFERENCE
100
AcDbCircle
 10
10.0
 20
29.349040575195204
 30
0.0
 40
1.0
  0
TEXT
  5
3C
330
17
100
AcDbEntity
  8
REFERENCE
100
AcDbText
 10
12.0
 20
31.349040575195204
 30
0.0
 40
2.0
  1
F02.4
 11
12.0
 21
31.349040575195204
 31
0.0
100
AcDbText
  0
TEXT
  5
3D
330
17
100
AcDbEntity
  8
LABEL
100
AcDbText
 10
10.0
 20
5.0
 30
0.0
 40
4.0
  1
F02 #1
100
AcDbText
  0
LWPOLYLINE
  5
3E
330
17
100
AcDbEntity
  8
CUT
100
AcDbPolyline
 90
32
 70
1
 10
378.65
 20
475.6243317611336
 10
378.65
 20
479.7329032342798
 10
378.65
 20
483.84147470742596
 10
378.65
 20
487.95004618057214
 10
378.65
 20
492.0586176537183
 10
378.65
 20
496.16718912686446
 10
378.65
 20
500.27576060001064
 10
378.65
 20
504.3843320731568
 10
378.65000000000003
 20
508.492903546303
 10
378.65000000000003
 20
512.6014750194493
 10
378.65000000000003
 20
516.7100464925954
 10
378.65000000000003
 20
520.8186179657416
 10
378.65000000000003
 20
524.9271894388877
 10
378.65000000000003
 20
529.0357609120339
 10
378.65000000000003
 20
533.1443323851801
 10
378.6500000000001
 20
537.2529038583262
 10
10.000000000000114
 20
537.2529038583264
 10
10.0
 20
533.1443323851801
 10
10.0
 20
529.0357609120339
 10
10.0
 20
524.9271894388877
 10
10.0
 20
520.8186179657415
 10
10.0
 20
516.7100464925953
 10
10.0
 20
512.6014750194491
 10
10.0
 20
508.492903546303
 10
10.0
 20
504.3843320731568
 10
10.0
 20
500.27576060001064
 10
10.0
 20
496.16718912686446
 10
10.0
 20
492.0586176537183
 10
10.0
 20
487.9500461805721
 10
10.0
 20
483.8414747074259
 10
10.0
 20
479.7329032342797
 10
10.0
 20
475.62433176113365
  0
CIRCLE
  5
3F
330
17
100
AcDbEntity
  8
REFERENCE
100
AcDbCircle
 10
378.6500000000001
 20
537.2529038583262
 30
0.0
 40
1.0
  0
TEXT
  5
40
330
17
100
AcDbEntity
  8
REFERENCE
100
AcDbText
 10
376.6500000000001
 20
539.2529038583262
 30
0.0
 40
2.0
  1
F11.1
 50
90.0
 11
376.6500000000001
 21
539.2529038583262
 31
0.0
100
AcDbText
  0
CIRCLE
  5
41
330
17
100
AcDbEntity
  8
REFERENCE
100
AcDbCircle
 10
378.65
 20
475.6243317611336
 30
0.0
 40
1.0
  0
TEXT
  5
42
330
17
100
AcDbEntity
  8
REFERENCE
100
AcDbText
 10
376.65
 20
477.6243317611336
 30
0.0
 40
2.0
  1
F11.2
 50
90.0
 11
376.65
 21
477.6243317611336
 31
0.0
100
AcDbText
  0
CIRCLE
  5
43
330
17
100
AcDbEntity
  8
REFERENCE
100
AcDbCircle
 10
10.000000000000114
 20
537.2529038583264
 30
0.0
 40
1.0
  0
TEXT
  5
44
330
17
100
AcDbEntity
  8
REFERENCE
100
AcDbText
 10
8.000000000000114
 20
539.2529038583264
 30
0.0
 40
2.0
  1
F11.3
 50
90.0
 11
8.000000000000114
 21
539.2529038583264
 31
0.0
100
AcDbText
  0
CIRCLE
  5
45
330
17
100
AcDbEntity
  8
REFERENCE
100
AcDbCircle
 10
10.0
 20
475.62433176113365
 30
0.0
 40
1.0
  0
TEXT
  5
46
330
17
100
AcDbEntity
  8
REFERENCE
100
AcDbText
 10
8.0
 20
477.62433176113365
 30
0.0
 40
2.0
  1
F11.4
 50
90.0
 11
8.0
 21
477.62433176113365
 31
0.0
100
AcDbText
  0
TEXT
  5
47
330
17
100
AcDbEntity
  8
LABEL
100
AcDbText
 10
10.0
 20
470.6243317611336
 30
0.0
 40
4.0
  1
F11 #1
100
AcDbText
  0
LWPOLYLINE
  5
48
330
17
100
AcDbEntity
  8
CUT
100
AcDbPolyline
 90
32
 70
1
 10
757.3
 20
537.2529038583064
 10
757.3000000000001
 20
533.1443323851615
 10
757.3000000000001
 20
529.0357609120167
 10
757.3000000000001
 20
524.9271894388718
 10
757.3000000000001
 20
520.8186179657268
 10
757.3000000000001
 20
516.7100464925821
 10
757.3000000000001
 20
512.6014750194372
 10
757.3000000000001
 20
508.4929035462924
 10
757.3000000000001
 20
504.3843320731475
 10
757.3000000000001
 20
500.2757606000027
 10
757.3000000000001
 20
496.16718912685786
 10
757.3000000000001
 20
492.058617653713
 10
757.3000000000001
 20
487.9500461805681
 10
757.3000000000001
 20
483.8414747074233
 10
757.3000000000001
 20
479.7329032342784
 10
757.3000000000001
 20
475.6243317611336
 10
388.6500000000001
 20
475.6243317611336
 10
388.6500000000001
 20
479.7329032342784
 10
388.6500000000001
 20
483.8414747074233
 10
388.6500000000001
 20
487.95004618056817
 10
388.6500000000001
 20
492.05861765371304
 10
388.6500000000001
 20
496.16718912685786
 10
388.6500000000001
 20
500.27576060000274
 10
388.6500000000001
 20
504.3843320731476
 10
388.6500000000001
 20
508.4929035462925
 10
388.6500000000001
 20
512.6014750194374
 10
388.6500000000001
 20
516.7100464925823
 10
388.6500000000001
 20
520.8186179657271
 10
388.6500000000001
 20
524.927189438872
 10
388.6500000000001
 20
529.0357609120168
 10
388.6500000000001
 20
533.1443323851616
 10
388.6500000000001
 20
537.2529038583064
  0
CIRCLE
  5
49
330
17
100
AcDbEntity
  8
REFERENCE
100
AcDbCircle
 10
757.3000000000001
 20
475.6243317611336
 30
0.0
 40
1.0
  0
TEXT
  5
4A
330
17
100
AcDbEntity
  8
REFERENCE
100
AcDbText
 10
755.3000000000001
 20
477.6243317611336
 30
0.0
 40
2.0
  1
F12.1
 50
90.0
 11
755.3000000000001
 21
477.6243317611336
 31
0.0
100
AcDbText
  0
CIRCLE
  5
4B
330
17
100
AcDbEntity
  8
REFERENCE
100
AcDbCircle
 10
757.3
 20
537.2529038583064
 30
0.0
 40
1.0
  0
TEXT
  5
4C
330
17
100
AcDbEntity
  8
REFERENCE
100
AcDbText
 10
755.3
 20
539.2529038583064
 30
0.0
 40
2.0
  1
F12.2
 50
90.0
 11
755.3
 21
539.2529038583064
 31
0.0
100
AcDbText
  0
CIRCLE
  5
4D
330
17
100
AcDbEntity
  8
REFERENCE
100
AcDbCircle
 10
388.6500000000001
 20
475.6243317611336
 30
0.0
 40
1.0
  0
TEXT
  5
4E
330
17
100
AcDbEntity
  8
REFERENCE
100
AcDbText
 10
386.6500000000001
 20
477.6243317611336
 30
0.0
 40
2.0
  1
F12.3
 50
90.0
 11
386.6500000000001
 21
477.6243317611336
 31
0.0
100
AcDbText
  0
CIRCLE
  5
4F
330
17
100
AcDbEntity
  8
REFERENCE
100
AcDbCircle
 10
388.6500000000001
 20
537.2529038583064
 30
0.0
 40
1.0
  0
TEXT
  5
50
330
17
100
AcDbEntity
  8
REFERENCE
100
AcDbText
 10
386.6500000000001
 20
539.2529038583064
 30
0.0
 40
2.0
  1
F12.4
 50
90.0
 11
386.6500000000001
 21
539.2529038583064
 31
0.0
100
AcDbText
  0
TEXT
  5
51
330
17
100
AcDbEntity
  8
LABEL
100
AcDbText
 10
388.6500000000001
 20
470.6243317611336
 30
0.0
 40
4.0
  1
F12 #1
100
AcDbText
  0
LWPOLYLINE
  5
52
330
17
100
AcDbEntity
  8
CUT
100
AcDbPolyline
 90
138
 70
1
 10
610.5048564986698
 20
174.29100379198485
 10
605.7431971384078
 20
201.99182742632252
 10
601.0000736776478
 20
229.6953570389662
 10
640.4312204780056
 20
236.40501493489208
 10
629.5151636909873
 20
300.4802230778722
 10
560.4276497321114
 20
288.6962179823994
 10
559.4634868188488
 20
288.5325686554928
 10
559.1334617846143
 20
288.47665816404935
 10
558.8576418941183
 20
288.42956917349966
 10
558.5817871562073
 20
288.38294035314675
 10
558.2465324509226
 20
288.32713940066833
 10
557.911097754343
 20
288.2723918995077
 10
557.5381674007317
 20
288.2129527049316
 10
557.1648659230498
 20
288.1555352369774
 10
556.8286127343533
 20
288.1057338145466
 10
556.4920854983616
 20
288.05790353930666
 10
556.1552199715812
 20
288.0121717464632
 10
555.8213808055344
 20
287.96930213903465
 10
555.4500432039486
 20
287.9249498636634
 10
555.0782763293154
 20
287.8840485580012
 10
554.7061630363045
 20
287.84662796005887
 10
554.3337297117912
 20
287.8131152954708
 10
553.9982581879484
 20
287.7865982991559
 10
553.648270020896
 20
287.7624859501181
 10
553.3035237085703
 20
287.74277521386415
 10
552.9486019412905
 20
287.7262565249162
 10
552.6289995596484
 20
287.71497919736606
 10
552.3093177914533
 20
287.70720408840896
 10
551.9896159903908
 20
287.7028332297421
 10
551.6699349350424
 20
287.7017398499965
 10
551.350254643177
 20
287.704526090689
 10
551.03056096913
 20
287.7105569730272
 10
550.7109122497335
 20
287.7199492563399
 10
550.391373776997
 20
287.7328189098927
 10
550.0720127611362
 20
287.74905354081767
 10
549.7528707642227
 20
287.7683986867444
 10
549.4339852582574
 20
287.79115601445676
 10
549.1153160386241
 20
287.8168417339801
 10
548.7968694578412
 20
287.8455575016444
 10
548.478672368914
 20
287.8772747842353
 10
548.160745476724
 20
287.91171529113143
 10
547.8430971447912
 20
287.9485239213975
 10
547.5257681751557
 20
287.9876595604165
 10
547.2087642115414
 20
288.02927175747357
 10
546.892053458977
 20
288.07311275739164
 10
546.5755777388997
 20
288.11872692720414
 10
546.259329321348
 20
288.16592420978156
 10
545.9433412660069
 20
288.2147717089763
 10
545.6275905489163
 20
288.26505811239815
 10
545.3119962483802
 20
288.31631474689175
 10
544.9965192875507
 20
288.3683873585125
 10
544.6810652936783
 20
288.4206613457703
 10
544.3657429469067
 20
288.4736949849852
 10
509.1744399401869
 20
294.4754598941461
 10
473.97684161069174
 20
300.4802230778722
 10
463.05481150471337
 20
236.40544757192225
 10
502.4868432685204
 20
229.6980418358082
 10
497.7449035114398
 20
201.99421819379995
 10
492.9817087145282
 20
174.29262430289845
 10
483.4183505739586
 20
118.88255587038233
 10
473.8239963090847
 20
63.47959164089241
 10
467.00519635078103
 20
24.225302808989397
 10
477.3045729310774
 20
22.434580624880596
 10
477.92178899056114
 20
22.3275570511895
 10
484.51309828474075
 20
21.18605189674372
 10
484.7119664495412
 20
21.15161497129168
 10
485.507396754864
 20
21.01383416582661
 10
510.26917158851165
 20
16.71700639422926
 10
524.0142253647381
 20
14.332285283447732
 10
534.4202964874214
 20
12.529656559622367
 10
534.7592638604848
 20
12.47085382371057
 10
534.9301659923956
 20
12.441157377738364
 10
537.3912696839209
 20
12.0135173355593
 10
541.7600708797676
 20
11.254161643975863
 10
542.2845872462001
 20
11.163033972047288
 10
542.5944054965145
 20
11.109057597102662
 10
544.6590574220593
 20
10.749389924176455
 10
545.0585636355761
 20
10.68027868966118
 10
545.4421285785863
 20
10.61494775650283
 10
545.7592416102012
 20
10.562042933506746
 10
546.4355131939867
 20
10.453276518691723
 10
546.4635761910884
 20
10.448719862709709
 10
546.5136267646764
 20
10.441440725985899
 10
547.422721666762
 20
10.310072246442758
 10
547.6714451702722
 20
10.27566667467272
 10
547.9033642131731
 20
10.247686051504218
 10
548.6814957745587
 20
10.158791391201362
 10
548.7395491955652
 20
10.152600731123869
 10
548.7977136929335
 20
10.146800748496844
 10
548.8065485916924
 20
10.145953594120954
 10
548.8542019015479
 20
10.141467177823074
 10
549.7292733083422
 20
10.071300198014796
 10
549.924537918168
 20
10.059526199878917
 10
550.0420875942734
 20
10.053009870394192
 10
550.2898133734456
 20
10.03547657089456
 10
550.2973006310181
 20
10.035102444929805
 10
550.4541058401236
 20
10.027489358021683
 10
550.4615939166116
 20
10.027133879260589
 10
550.5476096238749
 20
10.02434178019638
 10
550.8145519241841
 20
10.013601660156212
 10
551.0606016164388
 20
10.006422713903191
 10
551.2856936897076
 20
10.00182771823438
 10
551.4204652066222
 20
10.0
 10
551.7440989312405
 20
10.002496962824353
 10
551.7806061365158
 20
10.0020271909666
 10
552.7826958132247
 20
10.018032310552826
 10
553.3763668486072
 20
10.046449168685342
 10
553.433871329723
 20
10.049305383182343
 10
553.5358072250443
 20
10.05658561903914
 10
554.3596415972111
 20
10.11820461041691
 10
554.6028173462088
 20
10.143365010584091
 10
555.16956007627
 20
10.199592585405128
 10
555.7392302508964
 20
10.273566545419044
 10
556.1766263393301
 20
10.327667469226128
 10
556.6429574452293
 20
10.393911524203304
 10
557.1923642938951
 20
10.479096867161104
 10
557.5539901859778
 20
10.53592010433141
 10
557.6830545258574
 20
10.557681958727812
 10
558.1263315026947
 20
10.63346788847241
 10
559.1547359198609
 20
10.808369097455454
 10
559.3347549168735
 20
10.839453811428598
 10
560.5521566006286
 20
11.050448946796735
 10
562.3062933557269
 20
11.355338369519984
 10
565.6547483613299
 20
11.937365213968747
 10
575.6317240422482
 20
13.669067531292455
 10
577.5003926541602
 20
13.99331757630165
 10
579.1713969995978
 20
14.283529544767418
 10
592.47529868268
 20
16.59035395489542
 10
617.9688176562968
 20
21.010988607943204
 10
618.3665244380063
 20
21.079672691071494
 10
618.7642405467019
 20
21.148631374680292
 10
622.0606346458255
 20
21.717454864317688
 10
622.8560827927105
 20
21.855515103301684
 10
626.1520367099317
 20
22.425997250677938
 10
632.8295305773058
 20
23.586828144344224
 10
636.4707944488605
 20
24.217401590819804
 10
629.655961004237
 20
63.47409244870204
 10
620.0716653215106
 20
118.88286052492788
  0
CIRCLE
  5
53
330
17
100
AcDbEntity
  8
REFERENCE
100
AcDbCircle
 10
629.5151636909873
 20
300.4802230778722
 30
0.0
 40
1.0
  0
TEXT
  5
54
330
17
100
AcDbEntity
  8
REFERENCE
100
AcDbText
 10
631.5151636909873
 20
302.4802230778722
 30
0.0
 40
2.0
  1
F06.1
 11
631.5151636909873
 21
302.4802230778722
 31
0.0
100
AcDbText
  0
CIRCLE
  5
55
330
17
100
AcDbEntity
  8
REFERENCE
100
AcDbCircle
 10
473.97684161069174
 20
300.4802230778722
 30
0.0
 40
1.0
  0
TEXT
  5
56
330
17
100
AcDbEntity
  8
REFERENCE
100
AcDbText
 10
475.97684161069174
 20
302.4802230778722
 30
0.0
 40
2.0
  1
F06.2
 11
475.97684161069174
 21
302.4802230778722
 31
0.0
100
AcDbText
  0
CIRCLE
  5
57
330
17
100
AcDbEntity
  8
REFERENCE
100
AcDbCircle
 10
636.4707944488605
 20
24.217401590819804
 30
0.0
 40
1.0
  0
TEXT
  5
58
330
17
100
AcDbEntity
  8
REFERENCE
100
AcDbText
 10
638.4707944488605
 20
26.217401590819804
 30
0.0
 40
2.0
  1
F06.3
 11
638.4707944488605
 21
26.217401590819804
 31
0.0
100
AcDbText
  0
CIRCLE
  5
59
330
17
100
AcDbEntity
  8
REFERENCE
100
AcDbCircle
 10
467.00519635078103
 20
24.225302808989397
 30
0.0
 40
1.0
  0
TEXT
  5
5A
330
17
100
AcDbEntity
  8
REFERENCE
100
AcDbText
 10
469.00519635078103
 20
26.225302808989397
 30
0.0
 40
2.0
  1
F06.4
 11
469.00519635078103
 21
26.225302808989397
 31
0.0
100
AcDbText
  0
TEXT
  5
5B
330
17
100
AcDbEntity
  8
LABEL
100
AcDbText
 10
463.05481150471337
 20
5.0
 30
0.0
 40
4.0
  1
F06 #1
100
AcDbText
  0
LWPOLYLINE
  5
5C
330
17
100
AcDbEntity
  8
CUT
100
AcDbPolyline
 90
138
 70
1
 10
797.8805909041664
 20
174.29083709661612
 10
793.1194197118728
 20
201.9914878488595
 10
788.3764858083937
 20
229.69502179874445
 10
827.8076264335461
 20
236.4047404136905
 10
816.8914939981414
 20
300.4799374562581
 10
747.8039882041617
 20
288.6958562169782
 10
746.8398258362344
 20
288.5322045529995
 10
746.5098009201712
 20
288.47629363679846
 10
746.2339811300758
 20
288.4292042858112
 10
745.9581264889126
 20
288.3825751319659
 10
745.6228719016117
 20
288.32677378601915
 10
745.2874373204152
 20
288.27202592965824
 10
744.9145070852338
 20
288.2125864317765
 10
744.5412057420823
 20
288.1551685512628
 10
744.204952669125
 20
288.105366828497
 10
743.8684255641563
 20
288.05753618149373
 10
743.5315601921154
 20
288.0118039501409
 10
743.1977211666612
 20
287.9689340509488
 10
742.8263837355316
 20
287.92458138823065
 10
742.454617063224
 20
287.88367953164334
 10
742.0825039795275
 20
287.84625838899836
 10
741.7100708721658
 20
287.8127452059196
 10
741.3745995343949
 20
287.78622794741835
 10
741.0246115756621
 20
287.7621152396022
 10
740.6798654803742
 20
287.742403984131
 10
740.3249439344968
 20
287.72588486375105
 10
740.0053417584076
 20
287.71460715790255
 10
739.6856602058889
 20
287.7068316993302
 10
739.3659586295469
 20
287.7024605992622
 10
739.0462778282149
 20
287.7013667844451
 10
738.7265977962675
 20
287.7041527723514
 10
738.4069043994824
 20
287.7101832131151
 10
738.0872559638217
 20
287.71957531674747
 10
737.7677177826748
 20
287.73244481265687
 10
737.4483570801036
 20
287.7486795689268
 10
737.1292153975215
 20
287.7680246480331
 10
736.8103302453608
 20
287.79078182332603
 10
736.4916613924013
 20
287.81646751855715
 10
736.1732151820497
 20
287.8451832737662
 10
735.8550184707822
 20
287.8769005957633
 10
735.5370919595717
 20
287.9113411546622
 10
735.2194440035131
 20
287.9481497862882
 10
734.9021154077216
 20
287.9872853460029
 10
734.5851118451377
 20
288.0288976758395
 10
734.2684014737126
 20
288.0727386660117
 10
733.9519261423413
 20
288.11835275758693
 10
733.6356781366964
 20
288.1655501228915
 10
733.3196904988079
 20
288.2143977256734
 10
733.0039402507816
 20
288.2646845488829
 10
732.6883464403718
 20
288.315941721419
 10
732.3728699966794
 20
288.3680150116222
 10
732.0574165437604
 20
288.4202897914897
 10
731.7420947721247
 20
288.47332436086594
 10
696.5508140026022
 20
294.47514833617026
 10
661.3532311752233
 20
300.479937456258
 10
650.4312204780056
 20
236.4051476437079
 10
689.8632900179343
 20
229.6978981597132
 10
685.1215394660737
 20
201.9943811322945
 10
680.3578045822918
 20
174.29317488004062
 10
670.7921411329991
 20
118.88328215280063
 10
661.1980308631752
 20
63.48035499894016
 10
654.3788853293229
 20
24.22649278281756
 10
664.6785498371993
 20
22.43549923259775
 10
665.2957854904304
 20
22.32846925987701
 10
671.8870745462925
 20
21.186956682657637
 10
672.0859421306775
 20
21.15251292537903
 10
672.8813763030992
 20
21.014742275912226
 10
697.6431307509702
 20
16.71772043099878
 10
711.3882017808148
 20
14.332906793034454
 10
721.7942668934359
 20
12.530106416375304
 10
722.133234487628
 20
12.47129961402942
 10
722.3041357207846
 20
12.441598694841502
 10
724.7652283644246
 20
12.013904172463299
 10
729.1340098626655
 20
11.25445366482063
 10
729.6585238374721
 20
11.163310545680872
 10
729.9683405865276
 20
11.109324983909858
 10
732.0329825264816
 20
10.749596029356553
 10
732.4324868501368
 20
10.680472654795722
 10
732.8160498896938
 20
10.615130084973032
 10
733.1331615137785
 20
10.562216005939433
 10
733.8094305016044
 20
10.45342964670732
 10
733.8374933595799
 20
10.44887213466069
 10
733.8875437583231
 20
10.441591523258523
 10
734.796634778997
 20
10.310195432996409
 10
735.0453572920953
 20
10.275782384520028
 10
735.2772755256032
 20
10.247794766336597
 10
736.0554046449338
 20
10.15887682217135
 10
736.1134578716806
 20
10.152684395580593
 10
736.1716221827451
 20
10.146882610128898
 10
736.1804570542439
 20
10.146035193692342
 10
736.2281102043723
 20
10.141547264601627
 10
737.1031799109588
 20
10.07135291820083
 10
737.298444245394
 20
10.059572867401982
 10
737.4159937660138
 20
10.053053351236656
 10
737.6637191375446
 20
10.035512463087514
 10
737.6712063803326
 20
10.035138044621362
 10
737.828011331132
 20
10.027519855243554
 10
737.8354993971273
 20
10.027164159392896
 10
737.921515045806
 20
10.024369360778508
 10
738.1884569612687
 20
10.01362066172834
 10
738.4345063927752
 20
10.006433745533286
 10
738.6595983195456
 20
10.001831735533813
 10
738.7943697761415
 20
10.0
 10
739.1180036949464
 20
10.002487183868197
 10
739.1545108681642
 20
10.002015540448667
 10
740.156601462609
 20
10.017990597506355
 10
740.7502736509167
 20
10.046389179711639
 10
740.8077782643985
 20
10.049243625275551
 10
740.9097144259076
 20
10.056520698519364
 10
741.7335511922925
 20
10.118114060292328
 10
741.9767278384071
 20
10.143266867638602
 10
742.5434727431302
 20
10.199476751764848
 10
743.1131455877137
 20
10.273433363365086
 10
743.5505437678311
 20
10.32752076696778
 10
744.0168774471621
 20
10.393750727764711
 10
744.5662873702285
 20
10.478919554594484
 10
744.9279153269315
 20
10.535731873618943
 10
745.0569805091997
 20
10.557489765665707
 10
745.5002605892456
 20
10.633262744557385
 10
746.5286717061505
 20
10.808133222918286
 10
746.7086916956177
 20
10.839212768617415
 10
747.9260992552056
 20
11.050175144170339
 10
749.6802457379054
 20
11.355015080717067
 10
753.0287254633711
 20
11.936953774601136
 10
763.0057294022873
 20
13.668436653743925
 10
764.87440509307
 20
13.992649106482531
 10
766.545417897787
 20
14.282827631430052
 10
779.8493090215263
 20
16.589508534324807
 10
805.3428076013423
 20
21.009885143338295
 10
805.7405173434631
 20
21.078581389118426
 10
806.1382354896479
 20
21.14753426696359
 10
809.4346171821517
 20
21.716417895316056
 10
810.2300676952718
 20
21.854457943608793
 10
813.5260276329308
 20
22.424921383732794
 10
820.2036174475675
 20
23.5855580666568
 10
823.8448008068126
 20
24.216079252490204
 10
817.0309864429295
 20
63.47311827210862
 10
807.4477385211235
 20
118.88258359716855
  0
CIRCLE
  5
5D
330
17
100
AcDbEntity
  8
REFERENCE
100
AcDbCircle
 10
816.8914939981414
 20
300.4799374562581
 30
0.0
 40
1.0
  0
TEXT
  5
5E
330
17
100
AcDbEntity
  8
REFERENCE
100
AcDbText
 10
818.8914939981414
 20
302.4799374562581
 30
0.0
 40
2.0
  1
F05.1
 11
818.8914939981414
 21
302.4799374562581
 31
0.0
100
AcDbText
  0
CIRCLE
  5
5F
330
17
100
AcDbEntity
  8
REFERENCE
100
AcDbCircle
 10
661.3532311752233
 20
300.479937456258
 30
0.0
 40
1.0
  0
TEXT
  5
60
330
17
100
AcDbEntity
  8
REFERENCE
100
AcDbText
 10
663.3532311752233
 20
302.479937456258
 30
0.0
 40
2.0
  1
F05.2
 11
663.3532311752233
 21
302.479937456258
 31
0.0
100
AcDbText
  0
CIRCLE
  5
61
330
17
100
AcDbEntity
  8
REFERENCE
100
AcDbCircle
 10
823.8448008068126
 20
24.216079252490204
 30
0.0
 40
1.0
  0
TEXT
  5
62
330
17
100
AcDbEntity
  8
REFERENCE
100
AcDbText
 10
825.8448008068126
 20
26.216079252490204
 30
0.0
 40
2.0
  1
F05.3
 11
825.8448008068126
 21
26.216079252490204
 31
0.0
100
AcDbText
  0
CIRCLE
  5
63
330
17
100
AcDbEntity
  8
REFERENCE
100
AcDbCircle
 10
654.3788853293229
 20
24.22649278281756
 30
0.0
 40
1.0
  0
TEXT
  5
64
330
17
100
AcDbEntity
  8
REFERENCE
100
AcDbText
 10
656.3788853293229
 20
26.22649278281756
 30
0.0
 40
2.0
  1
F05.4
 11
656.3788853293229
 21
26.22649278281756
 31
0.0
100
AcDbText
  0
TEXT
  5
65
330
17
100
AcDbEntity
  8
LABEL
100
AcDbText
 10
650.4312204780056
 20
5.0
 30
0.0
 40
4.0
  1
F05 #1
100
AcDbText
  0
LWPOLYLINE
  5
66
330
17
100
AcDbEntity
  8
CUT
100
AcDbPolyline
 90
4
 70
1
 10
837.8076264335466
 20
285.0356123054279
 10
882.8076278602698
 20
285.0356120664956
 10
882.8076278602692
 20
10.0
 10
837.8076264335461
 20
10.00000023892968
  0
LWPOLYLINE
  5
67
330
17
100
AcDbEntity
  8
REFERENCE
100
AcDbPolyline
 90
4
 70
1
 10
842.8076264335466
 20
280.03561227887985
 10
877.8076278602698
 20
280.03561209304365
 10
877.8076278602693
 20
15.000000026547742
 10
842.8076264335461
 20
15.000000212381938
  0
CIRCLE
  5
68
330
17
100
AcDbEntity
  8
REFERENCE
100
AcDbCircle
 10
842.8076264335461
 20
15.000000212381938
 30
0.0
 40
1.0
  0
TEXT
  5
69
330
17
100
AcDbEntity
  8
REFERENCE
100
AcDbText
 10
844.8076264335461
 20
17.000000212381938
 30
0.0
 40
2.0
  1
F31.1
 11
844.8076264335461
 21
17.000000212381938
 31
0.0
100
AcDbText
  0
CIRCLE
  5
6A
330
17
100
AcDbEntity
  8
REFERENCE
100
AcDbCircle
 10
842.8076264335466
 20
280.03561227887985
 30
0.0
 40
1.0
  0
TEXT
  5
6B
330
17
100
AcDbEntity
  8
REFERENCE
100
AcDbText
 10
844.8076264335466
 20
282.03561227887985
 30
0.0
 40
2.0
  1
F31.2
 11
844.8076264335466
 21
282.03561227887985
 31
0.0
100
AcDbText
  0
CIRCLE
  5
6C
330
17
100
AcDbEntity
  8
REFERENCE
100
AcDbCircle
 10
877.8076278602693
 20
15.000000026547742
 30
0.0
 40
1.0
  0
TEXT
  5
6D
330
17
100
AcDbEntity
  8
REFERENCE
100
AcDbText
 10
879.8076278602693
 20
17.000000026547742
 30
0.0
 40
2.0
  1
F31.3
 11
879.8076278602693
 21
17.000000026547742
 31
0.0
100
AcDbText
  0
CIRCLE
  5
6E
330
17
100
AcDbEntity
  8
REFERENCE
100
AcDbCircle
 10
877.8076278602698
 20
280.03561209304365
 30
0.0
 40
1.0
  0
TEXT
  5
6F
330
17
100
AcDbEntity
  8
REFERENCE
100
AcDbText
 10
879.8076278602698
 20
282.03561209304365
 30
0.0
 40
2.0
  1
F31.4
 11
879.8076278602698
 21
282.03561209304365
 31
0.0
100
AcDbText
  0
TEXT
  5
70
330
17
100
AcDbEntity
  8
LABEL
100
AcDbText
 10
837.8076264335461
 20
5.0
 30
0.0
 40
4.0
  1
F31 #1
100
AcDbText
  0
LWPOLYLINE
  5
71
330
17
100
AcDbEntity
  8
CUT
100
AcDbPolyline
 90
4
 70
1
 10
892.8076278602703
 20
285.0356123054279
 10
937.8076292869935
 20
285.0356120664956
 10
937.8076292869929
 20
10.0
 10
892.8076278602698
 20
10.00000023892968
  0
LWPOLYLINE
  5
72
330
17
100
AcDbEntity
  8
REFERENCE
100
AcDbPolyline
 90
4
 70
1
 10
897.8076278602703
 20
280.03561227887985
 10
932.8076292869935
 20
280.03561209304365
 10
932.807629286993
 20
15.000000026547742
 10
897.8076278602698
 20
15.000000212381938
  0
CIRCLE
  5
73
330
17
100
AcDbEntity
  8
REFERENCE
100
AcDbCircle
 10
897.8076278602698
 20
15.000000212381938
 30
0.0
 40
1.0
  0
TEXT
  5
74
330
17
100
AcDbEntity
  8
REFERENCE
100
AcDbText
 10
899.8076278602698
 20
17.000000212381938
 30
0.0
 40
2.0
  1
F31.1
 11
899.8076278602698
 21
17.000000212381938
 31
0.0
100
AcDbText
  0
CIRCLE
  5
75
330
17
100
AcDbEntity
  8
REFERENCE
100
AcDbCircle
 10
897.8076278602703
 20
280.03561227887985
 30
0.0
 40
1.0
  0
TEXT
  5
76
330
17
100
AcDbEntity
  8
REFERENCE
100
AcDbText
 10
899.8076278602703
 20
282.03561227887985
 30
0.0
 40
2.0
  1
F31.2
 11
899.8076278602703
 21
282.03561227887985
 31
0.0
100
AcDbText
  0
CIRCLE
  5
77
330
17
100
AcDbEntity
  8
REFERENCE
100
AcDbCircle
 10
932.807629286993
 20
15.000000026547742
 30
0.0
 40
1.0
  0
TEXT
  5
78
330
17
100
AcDbEntity
  8
REFERENCE
100
AcDbText
 10
934.807629286993
 20
17.000000026547742
 30
0.0
 40
2.0
  1
F31.3
 11
934.807629286993
 21
17.000000026547742
 31
0.0
100
AcDbText
  0
CIRCLE
  5
79
330
17
100
AcDbEntity
  8
REFERENCE
100
AcDbCircle
 10
932.8076292869935
 20
280.03561209304365
 30
0.0
 40
1.0
  0
TEXT
  5
7A
330
17
100
AcDbEntity
  8
REFERENCE
100
AcDbText
 10
934.8076292869935
 20
282.03561209304365
 30
0.0
 40
2.0
  1
F31.4
 11
934.8076292869935
 21
282.03561209304365
 31
0.0
100
AcDbText
  0
TEXT
  5
7B
330
17
100
AcDbEntity
  8
LABEL
100
AcDbText
 10
892.8076278602698
 20
5.0
 30
0.0
 40
4.0
  1
F31 #2
100
AcDbText
  0
LWPOLYLINE
  5
7C
330
17
100
AcDbEntity
  8
CUT
100
AcDbPolyline
 90
32
 70
1
 10
463.05481150471337
 20
310.4802230778722
 10
463.0548115047135
 20
314.5887945510184
 10
463.0548115047135
 20
318.6973660241646
 10
463.0548115047135
 20
322.80593749731077
 10
463.0548115047135
 20
326.91450897045695
 10
463.0548115047135
 20
331.02308044360313
 10
463.0548115047135
 20
335.1316519167493
 10
463.0548115047135
 20
339.2402233898955
 10
463.0548115047135
 20
343.3487948630417
 10
463.0548115047135
 20
347.4573663361879
 10
463.0548115047135
 20
351.56593780933406
 10
463.0548115047135
 20
355.67450928248024
 10
463.0548115047135
 20
359.78308075562643
 10
463.0548115047135
 20
363.8916522287726
 10
463.0548115047135
 20
368.0002237019188
 10
463.0548115047135
 20
372.10879517506487
 10
668.0548115047135
 20
372.10879517506487
 10
668.0548115047135
 20
368.0002237019187
 10
668.0548115047135
 20
363.8916522287725
 10
668.0548115047135
 20
359.7830807556263
 10
668.0548115047135
 20
355.67450928248013
 10
668.0548115047135
 20
351.565937809334
 10
668.0548115047135
 20
347.4573663361878
 10
668.0548115047135
 20
343.34879486304163
 10
668.0548115047135
 20
339.24022338989545
 10
668.0548115047135
 20
335.13165191674926
 10
668.0548115047135
 20
331.0230804436031
 10
668.0548115047135
 20
326.91450897045695
 10
668.0548115047135
 20
322.80593749731077
 10
668.0548115047135
 20
318.6973660241646
 10
668.0548115047135
 20
314.5887945510184
 10
668.0548115047134
 20
310.4802230778722
  0
CIRCLE
  5
7D
330
17
100
AcDbEntity
  8
REFERENCE
100
AcDbCircle
 10
668.0548115047135
 20
372.10879517506487
 30
0.0
 40
1.0
  0
TEXT
  5
7E
330
17
100
AcDbEntity
  8
REFERENCE
100
AcDbText
 10
666.0548115047135
 20
374.10879517506487
 30
0.0
 40
2.0
  1
F10.1
 50
90.0
 11
666.0548115047135
 21
374.10879517506487
 31
0.0
100
AcDbText
  0
CIRCLE
  5
7F
330
17
100
AcDbEntity
  8
REFERENCE
100
AcDbCircle
 10
668.0548115047134
 20
310.4802230778722
 30
0.0
 40
1.0
  0
TEXT
  5
80
330
17
100
AcDbEntity
  8
REFERENCE
100
AcDbText
 10
666.0548115047134
 20
312.4802230778722
 30
0.0
 40
2.0
  1
F10.2
 50
90.0
 11
666.0548115047134
 21
312.4802230778722
 31
0.0
100
AcDbText
  0
CIRCLE
  5
81
330
17
100
AcDbEntity
  8
REFERENCE
100
AcDbCircle
 10
463.0548115047135
 20
372.10879517506487
 30
0.0
 40
1.0
  0
TEXT
  5
82
330
17
100
AcDbEntity
  8
REFERENCE
100
AcDbText
 10
461.0548115047135
 20
374.10879517506487
 30
0.0
 40
2.0
  1
F10.3
 50
90.0
 11
461.0548115047135
 21
374.10879517506487
 31
0.0
100
AcDbText
  0
CIRCLE
  5
83
330
17
100
AcDbEntity
  8
REFERENCE
100
AcDbCircle
 10
463.05481150471337
 20
310.4802230778722
 30
0.0
 40
1.0
  0
TEXT
  5
84
330
17
100
AcDbEntity
  8
REFERENCE
100
AcDbText
 10
461.05481150471337
 20
312.4802230778722
 30
0.0
 40
2.0
  1
F10.4
 50
90.0
 11
461.05481150471337
 21
312.4802230778722
 31
0.0
100
AcDbText
  0
TEXT
  5
85
330
17
100
AcDbEntity
  8
LABEL
100
AcDbText
 10
463.05481150471337
 20
305.4802230778722
 30
0.0
 40
4.0
  1
F10 #1
100
AcDbText
  0
LWPOLYLINE
  5
86
330
17
100
AcDbEntity
  8
CUT
100
AcDbPolyline
 90
10
 70
1
 10
962.25068675956
 20
10.000000000000085
 10
958.6399223914184
 20
10.0
 10
955.0291580232768
 20
10.0
 10
951.4183936551352
 20
10.0
 10
947.8076292869935
 20
10.000000000000085
 10
947.8076292869935
 20
215.0
 10
951.4183936551351
 20
215.0
 10
955.0291580232768
 20
215.0
 10
958.6399223914184
 20
215.0
 10
962.25068675956
 20
215.00000000000009
  0
CIRCLE
  5
87
330
17
100
AcDbEntity
  8
REFERENCE
100
AcDbCircle
 10
947.8076292869935
 20
215.0
 30
0.0
 40
1.0
  0
TEXT
  5
88
330
17
100
AcDbEntity
  8
REFERENCE
100
AcDbText
 10
949.8076292869935
 20
217.0
 30
0.0
 40
2.0
  1
F13.1
 11
949.8076292869935
 21
217.0
 31
0.0
100
AcDbText
  0
CIRCLE
  5
89
330
17
100
AcDbEntity
  8
REFERENCE
100
AcDbCircle
 10
962.25068675956
 20
215.00000000000009
 30
0.0
 40
1.0
  0
TEXT
  5
8A
330
17
100
AcDbEntity
  8
REFERENCE
100
AcDbText
 10
964.25068675956
 20
217.00000000000009
 30
0.0
 40
2.0
  1
F13.2
 11
964.25068675956
 21
217.00000000000009
 31
0.0
100
AcDbText
  0
CIRCLE
  5
8B
330
17
100
AcDbEntity
  8
REFERENCE
100
AcDbCircle
 10
947.8076292869935
 20
10.000000000000085
 30
0.0
 40
1.0
  0
TEXT
  5
8C
330
17
100
AcDbEntity
  8
REFERENCE
100
AcDbText
 10
949.8076292869935
 20
12.000000000000085
 30
0.0
 40
2.0
  1
F13.3
 11
949.8076292869935
 21
12.000000000000085
 31
0.0
100
AcDbText
  0
CIRCLE
  5
8D
330
17
100
AcDbEntity
  8
REFERENCE
100
AcDbCircle
 10
962.25068675956
 20
10.000000000000085
 30
0.0
 40
1.0
  0
TEXT
  5
8E
330
17
100
AcDbEntity
  8
REFERENCE
100
AcDbText
 10
964.25068675956
 20
12.000000000000085
 30
0.0
 40
2.0
  1
F13.4
 11
964.25068675956
 21
12.000000000000085
 31
0.0
100
AcDbText
  0
TEXT
  5
8F
330
17
100
AcDbEntity
  8
LABEL
100
AcDbText
 10
947.8076292869935
 20
5.0
 30
0.0
 40
4.0
  1
F13 #1
100
AcDbText
  0
LWPOLYLINE
  5
90
330
17
100
AcDbEntity
  8
CUT
100
AcDbPolyline
 90
10
 70
1
 10
767.3000000000001
 20
475.6243317611336
 10
767.3000000000002
 20
479.2356961982985
 10
767.3000000000002
 20
482.84706063346175
 10
767.3000000000002
 20
486.45842506862493
 10
767.3000000000001
 20
490.06978950378806
 10
972.3000000000002
 20
490.069789503788
 10
972.3000000000002
 20
486.4584250686248
 10
972.3000000000002
 20
482.84706063346164
 10
972.3000000000002
 20
479.23569619829846
 10
972.3000000000001
 20
475.6243317611336
  0
CIRCLE
  5
91
330
17
100
AcDbEntity
  8
REFERENCE
100
AcDbCircle
 10
972.3000000000002
 20
490.069789503788
 30
0.0
 40
1.0
  0
TEXT
  5
92
330
17
100
AcDbEntity
  8
REFERENCE
100
AcDbText
 10
970.3000000000002
 20
492.069789503788
 30
0.0
 40
2.0
  1
F15.1
 50
90.0
 11
970.3000000000002
 21
492.069789503788
 31
0.0
100
AcDbText
  0
CIRCLE
  5
93
330
17
100
AcDbEntity
  8
REFERENCE
100
AcDbCircle
 10
972.3000000000001
 20
475.6243317611336
 30
0.0
 40
1.0
  0
TEXT
  5
94
330
17
100
AcDbEntity
  8
REFERENCE
100
AcDbText
 10
970.3000000000001
 20
477.6243317611336
 30
0.0
 40
2.0
  1
F15.2
 50
90.0
 11
970.3000000000001
 21
477.6243317611336
 31
0.0
100
AcDbText
  0
CIRCLE
  5
95
330
17
100
AcDbEntity
  8
REFERENCE
100
AcDbCircle
 10
767.3000000000001
 20
490.06978950378806
 30
0.0
 40
1.0
  0
TEXT
  5
96
330
17
100
AcDbEntity
  8
REFERENCE
100
AcDbText
 10
765.3000000000001
 20
492.06978950378806
 30
0.0
 40
2.0
  1
F15.3
 50
90.0
 11
765.3000000000001
 21
492.06978950378806
 31
0.0
100
AcDbText
  0
CIRCLE
  5
97
330
17
100
AcDbEntity
  8
REFERENCE
100
AcDbCircle
 10
767.3000000000001
 20
475.6243317611336
 30
0.0
 40
1.0
  0
TEXT
  5
98
330
17
100
AcDbEntity
  8
REFERENCE
100
AcDbText
 10
765.3000000000001
 20
477.6243317611336
 30
0.0
 40
2.0
  1
F15.4
 50
90.0
 11
765.3000000000001
 21
477.6243317611336
 31
0.0
100
AcDbText
  0
TEXT
  5
99
330
17
100
AcDbEntity
  8
LABEL
100
AcDbText
 10
767.3000000000001
 20
470.6243317611336
 30
0.0
 40
4.0
  1
F15 #1
100
AcDbText
  0
LWPOLYLINE
  5
9A
330
17
100
AcDbEntity
  8
CUT
100
AcDbPolyline
 90
32
 70
1
 10
678.0548115047135
 20
310.4802230778722
 10
678.0548115047135
 20
314.5887945510171
 10
678.0548115047135
 20
318.69736602416197
 10
678.0548115047135
 20
322.8059374973068
 10
678.0548115047135
 20
326.91450897045166
 10
678.0548115047135
 20
331.02308044359654
 10
678.0548115047135
 20
335.1316519167414
 10
678.0548115047135
 20
339.2402233898863
 10
678.0548115047135
 20
343.3487948630311
 10
678.0548115047135
 20
347.457366336176
 10
678.0548115047136
 20
351.56593780932087
 10
678.0548115047136
 20
355.67450928246575
 10
678.0548115047136
 20
359.78308075561057
 10
678.0548115047136
 20
363.89165222875545
 10
678.0548115047136
 20
368.0002237019003
 10
678.0548115047136
 20
372.108795175045
 10
883.0548115047135
 20
372.108795175045
 10
883.0548115047135
 20
368.0002237019001
 10
883.0548115047135
 20
363.8916522287553
 10
883.0548115047135
 20
359.7830807556104
 10
883.0548115047135
 20
355.6745092824656
 10
883.0548115047135
 20
351.5659378093207
 10
883.0548115047135
 20
347.4573663361759
 10
883.0548115047135
 20
343.348794863031
 10
883.0548115047135
 20
339.2402233898862
 10
883.0548115047135
 20
335.1316519167413
 10
883.0548115047135
 20
331.0230804435964
 10
883.0548115047135
 20
326.9145089704516
 10
883.0548115047135
 20
322.8059374973068
 10
883.0548115047135
 20
318.6973660241619
 10
883.0548115047135
 20
314.58879455101703
 10
883.0548115047135
 20
310.4802230778722
  0
CIRCLE
  5
9B
330
17
100
AcDbEntity
  8
REFERENCE
100
AcDbCircle
 10
883.0548115047135
 20
372.108795175045
 30
0.0
 40
1.0
  0
TEXT
  5
9C
330
17
100
AcDbEntity
  8
REFERENCE
100
AcDbText
 10
881.0548115047135
 20
374.108795175045
 30
0.0
 40
2.0
  1
F09.1
 50
90.0
 11
881.0548115047135
 21
374.108795175045
 31
0.0
100
AcDbText
  0
CIRCLE
  5
9D
330
17
100
AcDbEntity
  8
REFERENCE
100
AcDbCircle
 10
883.0548115047135
 20
310.4802230778722
 30
0.0
 40
1.0
  0
TEXT
  5
9E
330
17
100
AcDbEntity
  8
REFERENCE
100
AcDbText
 10
881.0548115047135
 20
312.4802230778722
 30
0.0
 40
2.0
  1
F09.2
 50
90.0
 11
881.0548115047135
 21
312.4802230778722
 31
0.0
100
AcDbText
  0
CIRCLE
  5
9F
330
17
100
AcDbEntity
  8
REFERENCE
100
AcDbCircle
 10
678.0548115047136
 20
372.108795175045
 30
0.0
 40
1.0
  0
TEXT
  5
A0
330
17
100
AcDbEntity
  8
REFERENCE
100
AcDbText
 10
676.0548115047136
 20
374.108795175045
 30
0.0
 40
2.0
  1
F09.3
 50
90.0
 11
676.0548115047136
 21
374.108795175045
 31
0.0
100
AcDbText
  0
CIRCLE
  5
A1
330
17
100
AcDbEntity
  8
REFERENCE
100
AcDbCircle
 10
678.0548115047135
 20
310.4802230778722
 30
0.0
 40
1.0
  0
TEXT
  5
A2
330
17
100
AcDbEntity
  8
REFERENCE
100
AcDbText
 10
676.0548115047135
 20
312.4802230778722
 30
0.0
 40
2.0
  1
F09.4
 50
90.0
 11
676.0548115047135
 21
312.4802230778722
 31
0.0
100
AcDbText
  0
TEXT
  5
A3
330
17
100
AcDbEntity
  8
LABEL
100
AcDbText
 10
678.0548115047135
 20
305.4802230778722
 30
0.0
 40
4.0
  1
F09 #1
100
AcDbText
  0
LWPOLYLINE
  5
A4
330
17
100
AcDbEntity
  8
CUT
100
AcDbPolyline
 90
62
 70
1
 10
463.34966723186005
 20
383.6393313227303
 10
463.3534839345056
 20
385.2158900237011
 10
463.35558579000957
 20
386.78541828907527
 10
463.36318253343796
 20
389.74683093477074
 10
463.37134807512285
 20
392.6949960418783
 10
463.37927204604136
 20
395.8355623859316
 10
463.3864711699217
 20
399.1902673995038
 10
463.39245570321793
 20
402.5600011047651
 10
463.3987047583547
 20
405.94442494269816
 10
463.4031711746791
 20
409.318351463873
 10
463.4050495789934
 20
412.6748018990839
 10
463.4062146002625
 20
416.0239490262497
 10
463.4041371222265
 20
419.37120767595115
 10
463.40075260369804
 20
422.72136890829165
 10
463.39422580338794
 20
426.0839070442246
 10
463.38345013763717
 20
429.46759159092386
 10
463.37096453814195
 20
432.8496857247153
 10
463.35219769287266
 20
436.2172334197172
 10
463.3325601518294
 20
439.20313273640596
 10
463.31488211217857
 20
441.44397307672307
 10
463.294618491041
 20
443.69078610892313
 10
463.27077105256035
 20
445.9474067820282
 10
463.244150821662
 20
448.2112966439228
 10
463.2141842149195
 20
450.46898749793957
 10
463.1799619766257
 20
452.71362654983335
 10
463.1427080629137
 20
454.95354431218846
 10
463.1012270986947
 20
457.19986720794844
 10
463.05481150471337
 20
459.4653274308593
 10
534.8343136016481
 20
460.3227651676694
 10
594.8721128951499
 20
460.8948695292591
 10
619.0129448127168
 20
460.8948695292591
 10
619.0664324096352
 20
460.88858155968984
 10
619.1046856331161
 20
460.8820464918548
 10
619.1354575651305
 20
460.86817896474327
 10
619.1814877071852
 20
458.6852053105317
 10
619.2210870543981
 20
456.49285399039803
 10
619.2565338953693
 20
454.28543369689135
 10
619.2882877703387
 20
452.05699524840776
 10
619.3158338398508
 20
449.8038842452401
 10
619.3394821656198
 20
447.5242503558377
 10
619.3599804915603
 20
445.2173658715142
 10
619.37730157283
 20
442.8828579036823
 10
619.3916662655548
 20
440.5205762577149
 10
619.403391999439
 20
438.13106418449263
 10
619.4154920873026
 20
434.90501955475924
 10
619.4256510542798
 20
431.225855258024
 10
619.4315729306987
 20
427.50201211492816
 10
619.4348051768673
 20
423.7449926750102
 10
619.433343452274
 20
419.9688284219692
 10
619.4293682671978
 20
416.1888808823855
 10
619.4244888089495
 20
412.419497762632
 10
619.4193202768777
 20
408.6743330206467
 10
619.411888437263
 20
404.9671442046731
 10
619.4019229898947
 20
401.3120425610341
 10
619.3914442423978
 20
397.7228267310421
 10
619.3807246342833
 20
394.21356860757305
 10
619.3692374750106
 20
390.7972964693478
 10
619.3571400176834
 20
387.4965875531116
 10
619.3488837862815
 20
385.27215773881886
 10
619.3402283056053
 20
383.10878939132135
 10
619.336827209672
 20
382.10879517506487
 10
463.34626613592684
 20
382.6393371064738
  0
LWPOLYLINE
  5
A5
330
17
100
AcDbEntity
  8
REFERENCE
100
AcDbPolyline
 90
60
 70
1
 10
619.1354575651305
 20
460.86817896474327
 10
619.1046856331161
 20
460.8820464918548
 10
619.0664324096352
 20
460.88858155968984
 10
619.0129448127168
 20
460.8948695292591
 10
594.8721128951499
 20
460.8948695292591
 10
534.8343136016481
 20
460.3227651676694
 10
463.05481150471337
 20
459.4653274308593
 10
463.1012270986947
 20
457.19986720794844
 10
463.1427080629137
 20
454.95354431218846
 10
463.1799619766257
 20
452.71362654983335
 10
463.2141842149195
 20
450.46898749793957
 10
463.244150821662
 20
448.2112966439228
 10
463.27077105256035
 20
445.9474067820282
 10
463.294618491041
 20
443.69078610892313
 10
463.31488211217857
 20
441.44397307672307
 10
463.3325601518294
 20
439.20313273640596
 10
463.35219769287266
 20
436.2172334197172
 10
463.37096453814195
 20
432.8496857247153
 10
463.38345013763717
 20
429.46759159092386
 10
463.39422580338794
 20
426.0839070442246
 10
463.40075260369804
 20
422.72136890829165
 10
463.4041371222265
 20
419.37120767595115
 10
463.4062146002625
 20
416.0239490262497
 10
463.4050495789934
 20
412.6748018990839
 10
463.4031711746791
 20
409.318351463873
 10
463.3987047583547
 20
405.94442494269816
 10
463.39245570321793
 20
402.5600011047651
 10
463.3864711699217
 20
399.1902673995038
 10
463.37927204604136
 20
395.8355623859316
 10
463.37134807512285
 20
392.6949960418783
 10
463.36318253343796
 20
389.74683093477074
 10
463.35558579000957
 20
386.78541828907527
 10
463.3534839345056
 20
385.2158900237011
 10
463.34966723186005
 20
383.6393313227303
 10
619.3402283056053
 20
383.10878939132135
 10
619.3488837862815
 20
385.27215773881886
 10
619.3571400176834
 20
387.4965875531116
 10
619.3692374750106
 20
390.7972964693478
 10
619.3807246342833
 20
394.21356860757305
 10
619.3914442423978
 20
397.7228267310421
 10
619.4019229898947
 20
401.3120425610341
 10
619.411888437263
 20
404.9671442046731
 10
619.4193202768777
 20
408.6743330206467
 10
619.4244888089495
 20
412.419497762632
 10
619.4293682671978
 20
416.1888808823855
 10
619.433343452274
 20
419.9688284219692
 10
619.4348051768673
 20
423.7449926750102
 10
619.4315729306987
 20
427.50201211492816
 10
619.4256510542798
 20
431.225855258024
 10
619.4154920873026
 20
434.90501955475924
 10
619.403391999439
 20
438.13106418449263
 10
619.3916662655548
 20
440.5205762577149
 10
619.37730157283
 20
442.8828579036823
 10
619.3599804915603
 20
445.2173658715142
 10
619.3394821656198
 20
447.5242503558377
 10
619.3158338398508
 20
449.8038842452401
 10
619.2882877703387
 20
452.05699524840776
 10
619.2565338953693
 20
454.28543369689135
 10
619.2210870543981
 20
456.49285399039803
 10
619.1814877071852
 20
458.6852053105317
  0
CIRCLE
  5
A6
330
17
100
AcDbEntity
  8
REFERENCE
100
AcDbCircle
 10
619.0129448127168
 20
460.8948695292591
 30
0.0
 40
1.0
  0
TEXT
  5
A7
330
17
100
AcDbEntity
  8
REFERENCE
100
AcDbText
 10
617.0129448127168
 20
462.8948695292591
 30
0.0
 40
2.0
  1
F24.1
 50
90.0
 11
617.0129448127168
 21
462.8948695292591
 31
0.0
100
AcDbText
  0
CIRCLE
  5
A8
330
17
100
AcDbEntity
  8
REFERENCE
100
AcDbCircle
 10
619.3402283056053
 20
383.10878939132135
 30
0.0
 40
1.0
  0
TEXT
  5
A9
330
17
100
AcDbEntity
  8
REFERENCE
100
AcDbText
 10
617.3402283056053
 20
385.10878939132135
 30
0.0
 40
2.0
  1
F24.2
 50
90.0
 11
617.3402283056053
 21
385.10878939132135
 31
0.0
100
AcDbText
  0
CIRCLE
  5
AA
330
17
100
AcDbEntity
  8
REFERENCE
100
AcDbCircle
 10
463.05481150471337
 20
459.4653274308593
 30
0.0
 40
1.0
  0
TEXT
  5
AB
330
17
100
AcDbEntity
  8
REFERENCE
100
AcDbText
 10
461.05481150471337
 20
461.4653274308593
 30
0.0
 40
2.0
  1
F24.3
 50
90.0
 11
461.05481150471337
 21
461.4653274308593
 31
0.0
100
AcDbText
  0
CIRCLE
  5
AC
330
17
100
AcDbEntity
  8
REFERENCE
100
AcDbCircle
 10
463.34966723186005
 20
383.6393313227303
 30
0.0
 40
1.0
  0
TEXT
  5
AD
330
17
100
AcDbEntity
  8
REFERENCE
100
AcDbText
 10
461.34966723186005
 20
385.6393313227303
 30
0.0
 40
2.0
  1
F24.4
 50
90.0
 11
461.34966723186005
 21
385.6393313227303
 31
0.0
100
AcDbText
  0
TEXT
  5
AE
330
17
100
AcDbEntity
  8
LABEL
100
AcDbText
 10
463.05481150471337
 20
377.10879517506487
 30
0.0
 40
4.0
  1
F24 #1
100
AcDbText
  0
LWPOLYLINE
  5
AF
330
17
100
AcDbEntity
  8
CUT
100
AcDbPolyline
 90
52
 70
1
 10
780.8833865012937
 20
382.10879517506487
 10
629.8325326038498
 20
382.29869882553913
 10
629.8067999848623
 20
383.9489800706578
 10
629.7813527505647
 20
385.59912101444337
 10
629.7473239737915
 20
388.0782836557425
 10
629.7130929672073
 20
390.54871003543684
 10
629.682681666289
 20
393.0082351620539
 10
629.6542954371494
 20
395.4599961658284
 10
629.6279784244371
 20
397.908114804345
 10
629.6034268182389
 20
400.3566340271993
 10
629.5801409851332
 20
402.81032647896114
 10
629.560635637047
 20
405.2742196626063
 10
629.5431044186682
 20
407.7495112174056
 10
629.5267424284336
 20
410.2196488471727
 10
629.5120172797051
 20
412.674833400025
 10
629.4977747123654
 20
415.1220197348043
 10
629.4865965998258
 20
417.5680773902895
 10
629.4764389988347
 20
420.0196468620153
 10
629.4676262719878
 20
422.48268824569584
 10
629.460989756007
 20
424.95411184450984
 10
629.4550076471505
 20
427.4250815521569
 10
629.4500356856133
 20
429.887152421002
 10
629.4458085521225
 20
432.3394030102935
 10
629.4429437556013
 20
434.7868326222331
 10
629.4405298352018
 20
437.3407036336441
 10
629.4387800526719
 20
440.6137927638706
 10
629.4348051768673
 20
443.9087259512157
 10
780.4272121674801
 20
443.9087259512156
 10
780.4349883768299
 20
440.5996504047152
 10
780.4416109637846
 20
437.31216544789874
 10
780.4492845960476
 20
434.7504230332339
 10
780.4561531722386
 20
432.29266328876497
 10
780.4639179371803
 20
429.83010443630917
 10
780.4724572481476
 20
427.35738208666237
 10
780.48189253871
 20
424.8756191233135
 10
780.4911887960899
 20
422.39353185650646
 10
780.5022709372807
 20
419.9198308664142
 10
780.5149883845361
 20
417.4576206828033
 10
780.5287677180589
 20
415.00105743107207
 10
780.5442079126473
 20
412.5436717848248
 10
780.5611642326636
 20
410.07847419826123
 10
780.579485524262
 20
407.59825399150674
 10
780.6009077652604
 20
405.11264347925237
 10
780.6231258768261
 20
402.63762035670726
 10
780.6466666037248
 20
400.1724075766345
 10
780.6722990423068
 20
397.7127187275974
 10
780.6994782801476
 20
395.2543464823917
 10
780.7288250312448
 20
392.7928312878964
 10
780.7595866521733
 20
390.3236151123496
 10
780.7957962873031
 20
387.84277262935296
 10
780.8324336329651
 20
385.35311708706774
 10
780.8569216693083
 20
383.73101300330393
  0
CIRCLE
  5
B0
330
17
100
AcDbEntity
  8
REFERENCE
100
AcDbCircle
 10
780.4272121674801
 20
443.9087259512156
 30
0.0
 40
1.0
  0
TEXT
  5
B1
330
17
100
AcDbEntity
  8
REFERENCE
100
AcDbText
 10
778.4272121674801
 20
445.9087259512156
 30
0.0
 40
2.0
  1
F21.1
 50
90.0
 11
778.4272121674801
 21
445.9087259512156
 31
0.0
100
AcDbText
  0
CIRCLE
  5
B2
330
17
100
AcDbEntity
  8
REFERENCE
100
AcDbCircle
 10
780.8833865012937
 20
382.10879517506487
 30
0.0
 40
1.0
  0
TEXT
  5
B3
330
17
100
AcDbEntity
  8
REFERENCE
100
AcDbText
 10
778.8833865012937
 20
384.10879517506487
 30
0.0
 40
2.0
  1
F21.2
 50
90.0
 11
778.8833865012937
 21
384.10879517506487
 31
0.0
100
AcDbText
  0
CIRCLE
  5
B4
330
17
100
AcDbEntity
  8
REFERENCE
100
AcDbCircle
 10
629.4348051768673
 20
443.9087259512157
 30
0.0
 40
1.0
  0
TEXT
  5
B5
330
17
100
AcDbEntity
  8
REFERENCE
100
AcDbText
 10
627.4348051768673
 20
445.9087259512157
 30
0.0
 40
2.0
  1
F21.3
 50
90.0
 11
627.4348051768673
 21
445.9087259512157
 31
0.0
100
AcDbText
  0
CIRCLE
  5
B6
330
17
100
AcDbEntity
  8
REFERENCE
100
AcDbCircle
 10
629.8325326038498
 20
382.29869882553913
 30
0.0
 40
1.0
  0
TEXT
  5
B7
330
17
100
AcDbEntity
  8
REFERENCE
100
AcDbText
 10
627.8325326038498
 20
384.29869882553913
 30
0.0
 40
2.0
  1
F21.4
 50
90.0
 11
627.8325326038498
 21
384.29869882553913
 31
0.0
100
AcDbText
  0
TEXT
  5
B8
330
17
100
AcDbEntity
  8
LABEL
100
AcDbText
 10
629.4348051768673
 20
377.10879517506487
 30
0.0
 40
4.0
  1
F21 #1
100
AcDbText
  0
LWPOLYLINE
  5
B9
330
17
100
AcDbEntity
  8
CUT
100
AcDbPolyline
 90
49
 70
1
 10
790.8833865012937
 20
383.11768604134085
 10
941.8763681542971
 20
382.10879517506487
 10
941.8859173528913
 20
383.75927613044826
 10
941.8935584012568
 20
385.40962228215665
 10
941.909423074379
 20
387.88853465312206
 10
941.9235311269151
 20
390.3589698596124
 10
941.9361386325694
 20
392.8184633258218
 10
941.9486250575222
 20
395.27029695940854
 10
941.9597589009315
 20
397.7184726505758
 10
941.9697170743497
 20
400.1671407350612
 10
941.9792072512139
 20
402.62100715564713
 10
941.9875297047306
 20
405.0850771979956
 10
941.9941574266647
 20
407.56060810318803
 10
942.0000179646687
 20
410.0309781372556
 10
942.0038653339259
 20
412.48641419220564
 10
942.0066995401966
 20
414.93376215375224
 10
942.0071617300548
 20
417.380040258815
 10
942.0059251520054
 20
419.83182607952125
 10
942.0032640926868
 20
422.29504180019126
 10
941.9982939792981
 20
424.76670011162935
 10
941.9911825052479
 20
427.2378843166881
 10
941.9823819406397
 20
429.700146349186
 10
941.9711565549034
 20
432.1524046721906
 10
941.9579194864842
 20
434.5998689311834
 10
941.9403664030904
 20
437.1537537942247
 10
941.9173172982701
 20
440.42709803658056
 10
941.8875726743817
 20
443.72190456538664
 10
790.8833865012937
 20
440.04524721373775
 10
790.9072053925172
 20
436.71862630179237
 10
790.9291349859514
 20
433.40286263776665
 10
790.9403323345639
 20
431.0257171557531
 10
790.9508708643303
 20
428.5328523318375
 10
790.9591261942891
 20
426.0408790768972
 10
790.9656021656494
 20
423.6657969858325
 10
790.9709658122785
 20
420.650420161923
 10
790.9733939841159
 20
418.28878334103047
 10
790.9754613592804
 20
415.7582839069005
 10
790.975578473607
 20
413.22582729105613
 10
790.9747979628723
 20
410.8581491553202
 10
790.9707387476625
 20
407.9043917149
 10
790.9643804310983
 20
404.58185334247054
 10
790.9582039750031
 20
402.21458146291803
 10
790.9510427054367
 20
399.74366824372015
 10
790.9431311449704
 20
397.3873908187186
 10
790.9315501234988
 20
394.38443084403906
 10
790.9192348737971
 20
390.99388686198745
 10
790.9096186409099
 20
388.6143948268346
 10
790.8964366144553
 20
386.04987886516403
 10
790.8899571551316
 20
384.58378578463976
  0
CIRCLE
  5
BA
330
17
100
AcDbEntity
  8
REFERENCE
100
AcDbCircle
 10
790.8833865012937
 20
440.04524721373775
 30
0.0
 40
1.0
  0
TEXT
  5
BB
330
17
100
AcDbEntity
  8
REFERENCE
100
AcDbText
 10
788.8833865012937
 20
442.04524721373775
 30
0.0
 40
2.0
  1
F20.1
 50
90.0
 11
788.8833865012937
 21
442.04524721373775
 31
0.0
100
AcDbText
  0
CIRCLE
  5
BC
330
17
100
AcDbEntity
  8
REFERENCE
100
AcDbCircle
 10
790.8833865012937
 20
383.11768604134085
 30
0.0
 40
1.0
  0
TEXT
  5
BD
330
17
100
AcDbEntity
  8
REFERENCE
100
AcDbText
 10
788.8833865012937
 20
385.11768604134085
 30
0.0
 40
2.0
  1
F20.2
 50
90.0
 11
788.8833865012937
 21
385.11768604134085
 31
0.0
100
AcDbText
  0
CIRCLE
  5
BE
330
17
100
AcDbEntity
  8
REFERENCE
100
AcDbCircle
 10
941.8875726743817
 20
443.72190456538664
 30
0.0
 40
1.0
  0
TEXT
  5
BF
330
17
100
AcDbEntity
  8
REFERENCE
100
AcDbText
 10
939.8875726743817
 20
445.72190456538664
 30
0.0
 40
2.0
  1
F20.3
 50
90.0
 11
939.8875726743817
 21
445.72190456538664
 31
0.0
100
AcDbText
  0
CIRCLE
  5
C0
330
17
100
AcDbEntity
  8
REFERENCE
100
AcDbCircle
 10
941.8763681542971
 20
382.10879517506487
 30
0.0
 40
1.0
  0
TEXT
  5
C1
330
17
100
AcDbEntity
  8
REFERENCE
100
AcDbText
 10
939.8763681542971
 20
384.10879517506487
 30
0.0
 40
2.0
  1
F20.4
 50
90.0
 11
939.8763681542971
 21
384.10879517506487
 31
0.0
100
AcDbText
  0
TEXT
  5
C2
330
17
100
AcDbEntity
  8
LABEL
100
AcDbText
 10
790.8833865012937
 20
377.10879517506487
 30
0.0
 40
4.0
  1
F20 #1
100
AcDbText
  0
LWPOLYLINE
  5
C3
330
17
100
AcDbEntity
  8
CUT
100
AcDbPolyline
 90
13
 70
1
 10
767.3024559066032
 20
514.6746947680176
 10
918.3021406397626
 20
514.6746947680175
 10
918.3013625218327
 20
511.35214920098133
 10
918.300804112574
 20
508.0316691653974
 10
918.3002011688044
 20
504.1342022365918
 10
918.2998623852811
 20
500.2343314914742
 10
767.300179865794
 20
500.069789503788
 10
767.3000000000001
 20
502.26628596430055
 10
767.3000953997257
 20
504.46135928022073
 10
767.3002863753429
 20
506.653306587713
 10
767.3006823281806
 20
508.84040613363044
 10
767.3011956809942
 20
511.0249652959193
 10
767.3017216799559
 20
512.8473338749726
  0
CIRCLE
  5
C4
330
17
100
AcDbEntity
  8
REFERENCE
100
AcDbCircle
 10
767.300179865794
 20
500.069789503788
 30
0.0
 40
1.0
  0
TEXT
  5
C5
330
17
100
AcDbEntity
  8
REFERENCE
100
AcDbText
 10
765.300179865794
 20
502.069789503788
 30
0.0
 40
2.0
  1
F19.1
 50
90.0
 11
765.300179865794
 21
502.069789503788
 31
0.0
100
AcDbText
  0
CIRCLE
  5
C6
330
17
100
AcDbEntity
  8
REFERENCE
100
AcDbCircle
 10
767.3024559066032
 20
514.6746947680176
 30
0.0
 40
1.0
  0
TEXT
  5
C7
330
17
100
AcDbEntity
  8
REFERENCE
100
AcDbText
 10
765.3024559066032
 20
516.6746947680176
 30
0.0
 40
2.0
  1
F19.2
 50
90.0
 11
765.3024559066032
 21
516.6746947680176
 31
0.0
100
AcDbText
  0
CIRCLE
  5
C8
330
17
100
AcDbEntity
  8
REFERENCE
100
AcDbCircle
 10
918.2998623852811
 20
500.2343314914742
 30
0.0
 40
1.0
  0
TEXT
  5
C9
330
17
100
AcDbEntity
  8
REFERENCE
100
AcDbText
 10
916.2998623852811
 20
502.2343314914742
 30
0.0
 40
2.0
  1
F19.3
 50
90.0
 11
916.2998623852811
 21
502.2343314914742
 31
0.0
100
AcDbText
  0
CIRCLE
  5
CA
330
17
100
AcDbEntity
  8
REFERENCE
100
AcDbCircle
 10
918.3021406397626
 20
514.6746947680175
 30
0.0
 40
1.0
  0
TEXT
  5
CB
330
17
100
AcDbEntity
  8
REFERENCE
100
AcDbText
 10
916.3021406397626
 20
516.6746947680175
 30
0.0
 40
2.0
  1
F19.4
 50
90.0
 11
916.3021406397626
 21
516.6746947680175
 31
0.0
100
AcDbText
  0
TEXT
  5
CC
330
17
100
AcDbEntity
  8
LABEL
100
AcDbText
 10
767.3000000000001
 20
495.069789503788
 30
0.0
 40
4.0
  1
F19 #1
100
AcDbText
  0
ENDSEC
  0
SECTION
  2
OBJECTS
  0
DICTIONARY
  5
A
330
0
100
AcDbDictionary
281
1
  3
ACAD_COLOR
350
B
  3
ACAD_GROUP
350
C
  3
ACAD_LAYOUT
350
D
  3
ACAD_MATERIAL
350
E
  3
ACAD_MLEADERSTYLE
350
F
  3
ACAD_MLINESTYLE
350
10
  3
ACAD_PLOTSETTINGS
350
11
  3
ACAD_PLOTSTYLENAME
350
12
  3
ACAD_SCALELIST
350
14
  3
ACAD_TABLESTYLE
350
15
  3
ACAD_VISUALSTYLE
350
16
  3
EZDXF_META
350
2D
  0
DICTIONARY
  5
B
330
A
100
AcDbDictionary
281
1
  0
DICTIONARY
  5
C
330
A
100
AcDbDictionary
281
1
  0
DICTIONARY
  5
D
330
A
100
AcDbDictionary
281
1
  3
Model
350
1A
  3
Layout1
350
1E
  0
DICTIONARY
  5
E
330
A
100
AcDbDictionary
281
1
  3
ByBlock
350
1F
  3
ByLayer
350
20
  3
Global
350
21
  0
DICTIONARY
  5
F
330
A
100
AcDbDictionary
281
1
  3
Standard
350
2C
  0
DICTIONARY
  5
10
330
A
100
AcDbDictionary
281
1
  3
Standard
350
22
  0
DICTIONARY
  5
11
330
A
100
AcDbDictionary
281
1
  0
ACDBDICTIONARYWDFLT
  5
12
330
A
100
AcDbDictionary
281
1
  3
Normal
350
13
100
AcDbDictionaryWithDefault
340
13
  0
ACDBPLACEHOLDER
  5
13
330
12
  0
DICTIONARY
  5
14
330
A
100
AcDbDictionary
281
1
  0
DICTIONARY
  5
15
330
A
100
AcDbDictionary
281
1
  0
DICTIONARY
  5
16
330
A
100
AcDbDictionary
281
1
  0
LAYOUT
  5
1A
330
D
100
AcDbPlotSettings
  1

  4
A3
  6

 40
7.5
 41
20.0
 42
7.5
 43
20.0
 44
420.0
 45
297.0
 46
0.0
 47
0.0
 48
0.0
 49
0.0
140
0.0
141
0.0
142
1.0
143
1.0
 70
1024
 72
1
 73
0
 74
5
  7

 75
16
 76
0
 77
2
 78
300
147
1.0
148
0.0
149
0.0
100
AcDbLayout
  1
Model
 70
1
 71
0
 10
0.0
 20
0.0
 11
420.0
 21
297.0
 12
0.0
 22
0.0
 32
0.0
 14
1e+20
 24
1e+20
 34
1e+20
 15
-1e+20
 25
-1e+20
 35
-1e+20
146
0.0
 13
0.0
 23
0.0
 33
0.0
 16
1.0
 26
0.0
 36
0.0
 17
0.0
 27
1.0
 37
0.0
 76
1
330
17
  0
LAYOUT
  5
1E
330
D
100
AcDbPlotSettings
  1

  4
A3
  6

 40
7.5
 41
20.0
 42
7.5
 43
20.0
 44
420.0
 45
297.0
 46
0.0
 47
0.0
 48
0.0
 49
0.0
140
0.0
141
0.0
142
1.0
143
1.0
 70
0
 72
1
 73
0
 74
5
  7

 75
16
 76
0
 77
2
 78
300
147
1.0
148
0.0
149
0.0
100
AcDbLayout
  1
Layout1
 70
1
 71
1
 10
0.0
 20
0.0
 11
420.0
 21
297.0
 12
0.0
 22
0.0
 32
0.0
 14
1e+20
 24
1e+20
 34
1e+20
 15
-1e+20
 25
-1e+20
 35
-1e+20
146
0.0
 13
0.0
 23
0.0
 33
0.0
 16
1.0
 26
0.0
 36
0.0
 17
0.0
 27
1.0
 37
0.0
 76
1
330
1B
  0
MATERIAL
  5
1F
102
{ACAD_REACTORS
330
E
102
}
330
E
100
AcDbMaterial
  1
ByBlock
  2

 70
0
 40
1.0
 71
1
 41
1.0
 91
-1023410177
 42
1.0
 72
1
  3

 73
1
 74
1
 75
1
 44
0.5
 73
0
 45
1.0
 46
1.0
 77
1
  4

 78
1
 79
1
170
1
 48
1.0
171
1
  6

172
1
173
1
174
1
140
1.0
141
1.0
175
1
  7

176
1
177
1
178
1
143
1.0
179
1
  8

270
1
271
1
272
1
145
1.0
146
1.0
273
1
  9

274
1
275
1
276
1
 42
1.0
 72
1
  3

 73
1
 74
1
 75
1
 94
63
  0
MATERIAL
  5
20
102
{ACAD_REACTORS
330
E
102
}
330
E
100
AcDbMaterial
  1
ByLayer
  2

 70
0
 40
1.0
 71
1
 41
1.0
 91
-1023410177
 42
1.0
 72
1
  3

 73
1
 74
1
 75
1
 44
0.5
 73
0
 45
1.0
 46
1.0
 77
1
  4

 78
1
 79
1
170
1
 48
1.0
171
1
  6

172
1
173
1
174
1
140
1.0
141
1.0
175
1
  7

176
1
177
1
178
1
143
1.0
179
1
  8

270
1
271
1
272
1
145
1.0
146
1.0
273
1
  9

274
1
275
1
276
1
 42
1.0
 72
1
  3

 73
1
 74
1
 75
1
 94
63
  0
MATERIAL
  5
21
102
{ACAD_REACTORS
330
E
102
}
330
E
100
AcDbMaterial
  1
Global
  2

 70
0
 40
1.0
 71
1
 41
1.0
 91
-1023410177
 42
1.0
 72
1
  3

 73
1
 74
1
 75
1
 44
0.5
 73
0
 45
1.0
 46
1.0
 77
1
  4

 78
1
 79
1
170
1
 48
1.0
171
1
  6

172
1
173
1
174
1
140
1.0
141
1.0
175
1
  7

176
1
177
1
178
1
143
1.0
179
1
  8

270
1
271
1
272
1
145
1.0
146
1.0
273
1
  9

274
1
275
1
276
1
 42
1.0
 72
1
  3

 73
1
 74
1
 75
1
 94
63
  0
MLINESTYLE
  5
22
102
{ACAD_REACTORS
330
10
102
}
330
10
100
AcDbMlineStyle
  2
Standard
 70
0
  3

 62
256
 51
90.0
 52
90.0
 71
2
 49
0.5
 62
256
  6
BYLAYER
 49
-0.5
 62
256
  6
BYLAYER
  0
MLEADERSTYLE
  5
2C
102
{ACAD_REACTORS
330
F
102
}
330
F
100
AcDbMLeaderStyle
179
2
170
2
171
1
172
0
 90
2
 40
0.0
 41
0.0
173
1
 91
-1056964608
 92
-2
290
1
 42
2.0
291
1
 43
8.0
  3
Standard
 44
4.0
300

342
29
174
1
175
1
176
0
178
1
 93
-1056964608
 45
4.0
292
0
297
0
 46
4.0
 94
-1056964608
 47
1.0
 49
1.0
140
1.0
294
1
141
0.0
177
0
142
1.0
295
0
296
0
143
3.75
271
0
272
9
273
9
  0
DICTIONARY
  5
2D
330
A
100
AcDbDictionary
280
1
281
1
  3
CREATED_BY_EZDXF
350
2E
  3
WRITTEN_BY_EZDXF
350
CF
  0
DICTIONARYVAR
  5
2E
330
2D
100
DictionaryVariables
280
0
  1
1.4.4 @ 2026-09-19T12:13:22.272804+00:00
  0
DICTIONARYVAR
  5
CF
330
2D
100
DictionaryVariables
280
0
  1
1.4.4 @ 2026-09-19T12:13:22.376442+00:00
  0
ENDSEC
  0
EOF
