  0
SECTION
  2
HEADER
  9
$ACADVER
  1
AC1024
  9
$ACADMAINTVER
 70
6
  9
$DWGCODEPAGE
  3
ANSI_1252
  9
$LASTSAVEDBY
  1
ezdxf
  9
$INSBASE
 10
0.0
 20
0.0
 30
0.0
  9
$EXTMIN
 10
1e+20
 20
1e+20
 30
1e+20
  9
$EXTMAX
 10
-1e+20
 20
-1e+20
 30
-1e+20
  9
$LIMMIN
 10
0.0
 20
0.0
  9
$LIMMAX
 10
420.0
 20
297.0
  9
$ORTHOMODE
 70
0
  9
$REGENMODE
 70
1
  9
$FILLMODE
 70
1
  9
$QTEXTMODE
 70
0
  9
$MIRRTEXT
 70
1
  9
$LTSCALE
 40
1.0
  9
$ATTMODE
 70
1
  9
$TEXTSIZE
 40
2.5
  9
$TRACEWID
 40
1.0
  9
$TEXTSTYLE
  7
Standard
  9
$CLAYER
  8
0
  9
$CELTYPE
  6
ByLayer
  9
$CECOLOR
 62
256
  9
$CELTSCALE
 40
1.0
  9
$DISPSILH
 70
0
  9
$DIMSCALE
 40
1.0
  9
$DIMASZ
 40
2.5
  9
$DIMEXO
 40
0.625
  9
$DIMDLI
 40
3.75
  9
$DIMRND
 40
0.0
  9
$DIMDLE
 40
0.0
  9
$DIMEXE
 40
1.25
  9
$DIMTP
 40
0.0
  9
$DIMTM
 40
0.0
  9
$DIMTXT
 40
2.5
  9
$DIMCEN
 40
2.5
  9
$DIMTSZ
 40
0.0
  9
$DIMTOL
 70
0
  9
$DIMLIM
 70
0
  9
$DIMTIH
 70
0
  9
$DIMTOH
 70
0
  9
$DIMSE1
 70
0
  9
$DIMSE2
 70
0
  9
$DIMTAD
 70
1
  9
$DIMZIN
 70
8
  9
$DIMBLK
  1

  9
$DIMASO
 70
1
  9
$DIMSHO
 70
1
  9
$DIMPOST
  1

  9
$DIMAPOST
  1

  9
$DIMALT
 70
0
  9
$DIMALTD
 70
3
  9
$DIMALTF
 40
0.03937007874
  9
$DIMLFAC
 40
1.0
  9
$DIMTOFL
 70
1
  9
$DIMTVP
 40
0.0
  9
$DIMTIX
 70
0
  9
$DIMSOXD
 70
0
  9
$DIMSAH
 70
0
  9
$DIMBLK1
  1

  9
$DIMBLK2
  1

  9
$DIMSTYLE
  2
ISO-25
  9
$DIMCLRD
 70
0
  9
$DIMCLRE
 70
0
  9
$DIMCLRT
 70
0
  9
$DIMTFAC
 40
1.0
  9
$DIMGAP
 40
0.625
  9
$DIMJUST
 70
0
  9
$DIMSD1
 70
0
  9
$DIMSD2
 70
0
  9
$DIMTOLJ
 70
0
  9
$DIMTZIN
 70
8
  9
$DIMALTZ
 70
0
  9
$DIMALTTZ
 70
0
  9
$DIMUPT
 70
0
  9
$DIMDEC
 70
2
  9
$DIMTDEC
 70
2
  9
$DIMALTU
 70
2
  9
$DIMALTTD
 70
3
  9
$DIMTXSTY
  7
Standard
  9
$DIMAUNIT
 70
0
  9
$DIMADEC
 70
0
  9
$DIMALTRND
 40
0.0
  9
$DIMAZIN
 70
0
  9
$DIMDSEP
 70
44
  9
$DIMATFIT
 70
3
  9
$DIMFRAC
 70
0
  9
$DIMLDRBLK
  1

  9
$DIMLUNIT
 70
2
  9
$DIMLWD
 70
-2
  9
$DIMLWE
 70
-2
  9
$DIMTMOVE
 70
0
  9
$DIMFXL
 40
1.0
  9
$DIMFXLON
 70
0
  9
$DIMJOGANG
 40
0.785398163397
  9
$DIMTFILL
 70
0
  9
$DIMTFILLCLR
 70
0
  9
$DIMARCSYM
 70
0
  9
$DIMLTYPE
  6

  9
$DIMLTEX1
  6

  9
$DIMLTEX2
  6

  9
$DIMTXTDIRECTION
 70
0
  9
$LUNITS
 70
2
  9
$LUPREC
 70
4
  9
$SKETCHINC
 40
1.0
  9
$FILLETRAD
 40
10.0
  9
$AUNITS
 70
0
  9
$AUPREC
 70
2
  9
$MENU
  1
.
  9
$ELEVATION
 40
0.0
  9
$PELEVATION
 40
0.0
  9
$THICKNESS
 40
0.0
  9
$LIMCHECK
 70
0
  9
$CHAMFERA
 40
0.0
  9
$CHAMFERB
 40
0.0
  9
$CHAMFERC
 40
0.0
  9
$CHAMFERD
 40
0.0
  9
$SKPOLY
 70
0
  9
$TDCREATE
 40
2461303.738449074
  9
$TDUCREATE
 40
2458532.153996898
  9
$TDUPDATE
 40
2461303.738449074
  9
$TDUUPDATE
 40
2458532.1544311
  9
$TDINDWG
 40
0.0
  9
$TDUSRTIMER
 40
0.0
  9
$USRTIMER
 70
1
  9
$ANGBASE
 50
0.0
  9
$ANGDIR
 70
0
  9
$PDMODE
 70
0
  9
$PDSIZE
 40
0.0
  9
$PLINEWID
 40
0.0
  9
$SPLFRAME
 70
0
  9
$SPLINETYPE
 70
6
  9
$SPLINESEGS
 70
8
  9
$HANDSEED
  5
92
  9
$SURFTAB1
 70
6
  9
$SURFTAB2
 70
6
  9
$SURFTYPE
 70
6
  9
$SURFU
 70
6
  9
$SURFV
 70
6
  9
$UCSBASE
  2

  9
$UCSNAME
  2

  9
$UCSORG
 10
0.0
 20
0.0
 30
0.0
  9
$UCSXDIR
 10
1.0
 20
0.0
 30
0.0
  9
$UCSYDIR
 10
0.0
 20
1.0
 30
0.0
  9
$UCSORTHOREF
  2

  9
$UCSORTHOVIEW
 70
0
  9
$UCSORGTOP
 10
0.0
 20
0.0
 30
0.0
  9
$UCSORGBOTTOM
 10
0.0
 20
0.0
 30
0.0
  9
$UCSORGLEFT
 10
0.0
 20
0.0
 30
0.0
  9
$UCSORGRIGHT
 10
0.0
 20
0.0
 30
0.0
  9
$UCSORGFRONT
 10
0.0
 20
0.0
 30
0.0
  9
$UCSORGBACK
 10
0.0
 20
0.0
 30
0.0
  9
$PUCSBASE
  2

  9
$PUCSNAME
  2

  9
$PUCSORG
 10
0.0
 20
0.0
 30
0.0
  9
$PUCSXDIR
 10
1.0
 20
0.0
 30
0.0
  9
$PUCSYDIR
 10
0.0
 20
1.0
 30
0.0
  9
$PUCSORTHOREF
  2

  9
$PUCSORTHOVIEW
 70
0
  9
$PUCSORGTOP
 10
0.0
 20
0.0
 30
0.0
  9
$PUCSORGBOTTOM
 10
0.0
 20
0.0
 30
0.0
  9
$PUCSORGLEFT
 10
0.0
 20
0.0
 30
0.0
  9
$PUCSORGRIGHT
 10
0.0
 20
0.0
 30
0.0
  9
$PUCSORGFRONT
 10
0.0
 20
0.0
 30
0.0
  9
$PUCSORGBACK
 10
0.0
 20
0.0
 30
0.0
  9
$USERI1
 70
0
  9
$USERI2
 70
0
  9
$USERI3
 70
0
  9
$USERI4
 70
0
  9
$USERI5
 70
0
  9
$USERR1
 40
0.0
  9
$USERR2
 40
0.0
  9
$USERR3
 40
0.0
  9
$USERR4
 40
0.0
  9
$USERR5
 40
0.0
  9
$WORLDVIEW
 70
1
  9
$SHADEDGE
 70
3
  9
$SHADEDIF
 70
70
  9
$TILEMODE
 70
1
  9
$MAXACTVP
 70
64
  9
$PINSBASE
 10
0.0
 20
0.0
 30
0.0
  9
$PLIMCHECK
 70
0
  9
$PEXTMIN
 10
1e+20
 20
1e+20
 30
1e+20
  9
$PEXTMAX
 10
-1e+20
 20
-1e+20
 30
-1e+20
  9
$PLIMMIN
 10
0.0
 20
0.0
  9
$PLIMMAX
 10
420.0
 20
297.0
  9
$UNITMODE
 70
0
  9
$VISRETAIN
 70
1
  9
$PLINEGEN
 70
0
  9
$PSLTSCALE
 70
1
  9
$TREEDEPTH
 70
3020
  9
$CMLSTYLE
  2
Standard
  9
$CMLJUST
 70
0
  9
$CMLSCALE
 40
20.0
  9
$PROXYGRAPHICS
 70
1
  9
$MEASUREMENT
 70
1
  9
$CELWEIGHT
370
-1
  9
$ENDCAPS
280
0
  9
$JOINSTYLE
280
0
  9
$LWDISPLAY
290
0
  9
$INSUNITS
 70
4
  9
$HYPERLINKBASE
  1

  9
$STYLESHEET
  1

  9
$XEDIT
290
1
  9
$CEPSNTYPE
380
0
  9
$PSTYLEMODE
290
1
  9
$FINGERPRINTGUID
  2
{9C81C39F-3215-4DF9-BBAE-29E0FDF2657E}
  9
$VERSIONGUID
  2
{4F047F3A-BAC7-46E3-B7E4-A911B4DD53D6}
  9
$EXTNAMES
290
1
  9
$PSVPSCALE
 40
0.0
  9
$OLESTARTUP
290
0
  9
$SORTENTS
280
127
  9
$INDEXCTL
280
0
  9
$HIDETEXT
280
1
  9
$XCLIPFRAME
280
1
  9
$HALOGAP
280
0
  9
$OBSCOLOR
 70
257
  9
$OBSLTYPE
280
0
  9
$INTERSECTIONDISPLAY
280
0
  9
$INTERSECTIONCOLOR
 70
257
  9
$DIMASSOC
280
2
  9
$PROJECTNAME
  1

  9
$CAMERADISPLAY
290
0
  9
$LENSLENGTH
 40
50.0
  9
$CAMERAHEIGHT
 40
0.0
  9
$STEPSPERSEC
 40
24.0
  9
$STEPSIZE
 40
100.0
  9
$3DDWFPREC
 40
2.0
  9
$PSOLWIDTH
 40
0.005
  9
$PSOLHEIGHT
 40
0.08
  9
$LOFTANG1
 40
1.570796326795
  9
$LOFTANG2
 40
1.570796326795
  9
$LOFTMAG1
 40
0.0
  9
$LOFTMAG2
 40
0.0
  9
$LOFTPARAM
 70
7
  9
$LOFTNORMALS
280
1
  9
$LATITUDE
 40
37.795
  9
$LONGITUDE
 40
-122.394
  9
$NORTHDIRECTION
 40
0.0
  9
$TIMEZONE
 70
-8000
  9
$LIGHTGLYPHDISPLAY
280
1
  9
$TILEMODELIGHTSYNCH
280
1
  9
$CMATERIAL
347
20
  9
$SOLIDHIST
280
0
  9
$SHOWHIST
280
1
  9
$DWFFRAME
280
2
  9
$DGNFRAME
280
2
  9
$REALWORLDSCALE
290
1
  9
$INTERFERECOLOR
 62
256
  9
$CSHADOW
280
0
  9
$SHADOWPLANELOCATION
 40
0.0
  0
ENDSEC
  0
SECTION
  2
CLASSES
  0
CLASS
  1
ACDBDICTIONARYWDFLT
  2
AcDbDictionaryWithDefault
  3
ObjectDBX Classes
 90
0
 91
0
280
0
281
0
  0
CLASS
  1
SUN
  2
AcDbSun
  3
SCENEOE
 90
1153
 91
0
280
0
281
0
  0
CLASS
  1
VISUALSTYLE
  2
AcDbVisualStyle
  3
ObjectDBX Classes
 90
4095
 91
0
280
0
281
0
  0
CLASS
  1
MATERIAL
  2
AcDbMaterial
  3
ObjectDBX Classes
 90
1153
 91
0
280
0
281
0
  0
CLASS
  1
SCALE
  2
AcDbScale
  3
ObjectDBX Classes
 90
1153
 91
0
280
0
281
0
  0
CLASS
  1
TABLESTYLE
  2
AcDbTableStyle
  3
ObjectDBX Classes
 90
4095
 91
0
280
0
281
0
  0
CLASS
  1
MLEADERSTYLE
  2
AcDbMLeaderStyle
  3
ACDB_MLEADERSTYLE_CLASS
 90
4095
 91
0
280
0
281
0
  0
CLASS
  1
DICTIONARYVAR
  2
AcDbDictionaryVar
  3
ObjectDBX Classes
 90
0
 91
0
280
0
281
0
  0
CLASS
  1
CELLSTYLEMAP
  2
AcDbCellStyleMap
  3
ObjectDBX Classes
 90
1152
 91
0
280
0
281
0
  0
CLASS
  1
MENTALRAYRENDERSETTINGS
  2
AcDbMentalRayRenderSettings
  3
SCENEOE
 90
1024
 91
0
280
0
281
0
  0
CLASS
  1
ACDBDETAILVIEWSTYLE
  2
AcDbDetailViewStyle
  3
ObjectDBX Classes
 90
1025
 91
0
280
0
281
0
  0
CLASS
  1
ACDBSECTIONVIEWSTYLE
  2
AcDbSectionViewStyle
  3
ObjectDBX Classes
 90
1025
 91
0
280
0
281
0
  0
CLASS
  1
RASTERVARIABLES
  2
AcDbRasterVariables
  3
ISM
 90
0
 91
0
280
0
281
0
  0
CLASS
  1
ACDBPLACEHOLDER
  2
AcDbPlaceHolder
  3
ObjectDBX Classes
 90
0
 91
0
280
0
281
0
  0
CLASS
  1
LAYOUT
  2
AcDbLayout
  3
ObjectDBX Classes
 90
0
 91
0
280
0
281
0
  0
ENDSEC
  0
SECTION
  2
TABLES
  0
TABLE
  2
VPORT
  5
8
330
0
100
AcDbSymbolTable
 70
1
  0
VPORT
  5
23
330
8
100
AcDbSymbolTableRecord
100
AcDbViewportTableRecord
  2
*Active
 70
0
 10
0.0
 20
0.0
 11
1.0
 21
1.0
 12
0.0
 22
0.0
 13
0.0
 23
0.0
 14
0.5
 24
0.5
 15
0.5
 25
0.5
 16
0.0
 26
0.0
 36
1.0
 17
0.0
 27
0.0
 37
0.0
 40
1000.0
 41
1.34
 42
50.0
 43
0.0
 44
0.0
 50
0.0
 51
0.0
 71
0
 72
1000
 73
1
 74
3
 75
0
 76
0
 77
0
 78
0
281
0
 65
0
146
0.0
  0
ENDTAB
  0
TABLE
  2
LTYPE
  5
2
330
0
100
AcDbSymbolTable
 70
3
  0
LTYPE
  5
24
330
2
100
AcDbSymbolTableRecord
100
AcDbLinetypeTableRecord
  2
ByBlock
 70
0
  3

 72
65
 73
0
 40
0.0
  0
LTYPE
  5
25
330
2
100
AcDbSymbolTableRecord
100
AcDbLinetypeTableRecord
  2
ByLayer
 70
0
  3

 72
65
 73
0
 40
0.0
  0
LTYPE
  5
26
330
2
100
AcDbSymbolTableRecord
100
AcDbLinetypeTableRecord
  2
Continuous
 70
0
  3

 72
65
 73
0
 40
0.0
  0
ENDTAB
  0
TABLE
  2
LAYER
  5
1
330
0
100
AcDbSymbolTable
 70
6
  0
LAYER
  5
27
330
1
100
AcDbSymbolTableRecord
100
AcDbLayerTableRecord
  2
0
 70
0
 62
7
  6
Continuous
370
-3
390
13
347
21
  0
LAYER
  5
28
330
1
100
AcDbSymbolTableRecord
100
AcDbLayerTableRecord
  2
Defpoints
 70
0
 62
7
  6
Continuous
290
0
370
-3
390
13
347
21
  0
LAYER
  5
2F
330
1
100
AcDbSymbolTableRecord
100
AcDbLayerTableRecord
  2
CUT
 70
0
 62
7
  6
Continuous
370
-3
390
13
347
21
  0
LAYER
  5
30
330
1
100
AcDbSymbolTableRecord
100
AcDbLayerTableRecord
  2
REFERENCE
 70
0
 62
3
  6
Continuous
370
-3
390
13
347
21
  0
LAYER
  5
31
330
1
100
AcDbSymbolTableRecord
100
AcDbLayerTableRecord
  2
LABEL
 70
0
 62
3
  6
Continuous
370
-3
390
13
347
21
  0
LAYER
  5
32
330
1
100
AcDbSymbolTableRecord
100
AcDbLayerTableRecord
  2
SHEET_NONCUT
 70
0
 62
8
  6
Continuous
370
-3
390
13
347
21
  0
ENDTAB
  0
TABLE
  2
STYLE
  5
5
330
0
100
AcDbSymbolTable
 70
1
  0
STYLE
  5
29
330
5
100
AcDbSymbolTableRecord
100
AcDbTextStyleTableRecord
  2
Standard
 70
0
 40
0.0
 41
1.0
 50
0.0
 71
0
 42
2.5
  3
txt
  4

  0
ENDTAB
  0
TABLE
  2
VIEW
  5
7
330
0
100
AcDbSymbolTable
 70
0
  0
ENDTAB
  0
TABLE
  2
UCS
  5
6
330
0
100
AcDbSymbolTable
 70
0
  0
ENDTAB
  0
TABLE
  2
APPID
  5
3
330
0
100
AcDbSymbolTable
 70
3
  0
APPID
  5
2A
330
3
100
AcDbSymbolTableRecord
100
AcDbRegAppTableRecord
  2
ACAD
 70
0
  0
APPID
  5
8F
330
3
100
AcDbSymbolTableRecord
100
AcDbRegAppTableRecord
  2
HATCHBACKGROUNDCOLOR
 70
0
  0
APPID
  5
90
330
3
100
AcDbSymbolTableRecord
100
AcDbRegAppTableRecord
  2
EZDXF
 70
0
  0
ENDTAB
  0
TABLE
  2
DIMSTYLE
  5
4
330
0
100
AcDbSymbolTable
 70
1
100
AcDbDimStyleTable
  0
DIMSTYLE
105
2B
330
4
100
AcDbSymbolTableRecord
100
AcDbDimStyleTableRecord
  2
Standard
 70
0
 40
1.0
 41
2.5
 42
0.625
 43
3.75
 44
1.25
 45
0.0
 46
0.0
 47
0.0
 48
0.0
 49
2.5
140
2.5
141
2.5
142
0.0
143
0.03937007874
144
1.0
145
0.0
146
1.0
147
0.625
148
0.0
 69
0
 70
0
 71
0
 72
0
 73
0
 74
0
 75
0
 76
0
 77
1
 78
8
 79
3
170
0
171
3
172
1
173
0
174
0
175
0
176
0
177
0
178
0
179
2
271
2
272
2
273
2
274
3
275
0
276
0
277
2
278
44
279
0
280
0
281
0
282
0
283
0
284
8
285
0
286
0
288
0
289
3
290
0
371
-2
372
-2
  0
ENDTAB
  0
TABLE
  2
BLOCK_RECORD
  5
9
330
0
100
AcDbSymbolTable
 70
2
  0
BLOCK_RECORD
  5
17
330
9
100
AcDbSymbolTableRecord
100
AcDbBlockTableRecord
  2
*Model_Space
340
1A
 70
0
280
1
281
0
  0
BLOCK_RECORD
  5
1B
330
9
100
AcDbSymbolTableRecord
100
AcDbBlockTableRecord
  2
*Paper_Space
340
1E
 70
0
280
1
281
0
  0
ENDTAB
  0
ENDSEC
  0
SECTION
  2
BLOCKS
  0
BLOCK
  5
18
330
17
100
AcDbEntity
  8
0
100
AcDbBlockBegin
  2
*Model_Space
 70
0
 10
0.0
 20
0.0
 30
0.0
  3
*Model_Space
  1

  0
ENDBLK
  5
19
330
17
100
AcDbEntity
  8
0
100
AcDbBlockEnd
  0
BLOCK
  5
1C
330
1B
100
AcDbEntity
  8
0
100
AcDbBlockBegin
  2
*Paper_Space
 70
0
 10
0.0
 20
0.0
 30
0.0
  3
*Paper_Space
  1

  0
ENDBLK
  5
1D
330
1B
100
AcDbEntity
  8
0
100
AcDbBlockEnd
  0
ENDSEC
  0
SECTION
  2
ENTITIES
  0
LWPOLYLINE
  5
33
330
17
100
AcDbEntity
  8
SHEET_NONCUT
100
AcDbPolyline
 90
4
 70
1
 10
0.0
 20
0.0
 10
1000.0
 20
0.0
 10
1000.0
 20
600.0
 10
0.0
 20
600.0
  0
LWPOLYLINE
  5
34
330
17
100
AcDbEntity
  8
CUT
100
AcDbPolyline
 90
131
 70
1
 10
93.01830490052743
 20
187.53818052588022
 10
93.64904983266064
 20
191.17932513328276
 10
77.49325128866076
 20
193.98449746062767
 10
26.266123778716462
 20
202.89370601331143
 10
11.376360884239446
 20
117.20703881584055
 10
10.849332185793827
 20
114.19222130962753
 10
10.799499688031418
 20
113.91593963197198
 10
10.750635221298921
 20
113.63949383719654
 10
10.687933108508346
 20
113.27373681109177
 10
10.633524476718861
 20
112.95127182833907
 10
10.579858684441177
 20
112.62855295180462
 10
10.527274578247614
 20
112.3055962193317
 10
10.476406030316156
 20
111.98238917915803
 10
10.427711783384453
 20
111.6589591698743
 10
10.379951552373512
 20
111.33557925958894
 10
10.334518893339933
 20
111.01209206085979
 10
10.29148511611298
 20
110.68849089644688
 10
10.25079433250123
 20
110.36471513642742
 10
10.212846392111842
 20
110.04057447162187
 10
10.175992203774953
 20
109.69893703023972
 10
10.142988357180172
 20
109.3620888758833
 10
10.112055369460933
 20
109.01498319470062
 10
10.088523234459586
 20
108.72535231960366
 10
10.064018728662305
 20
108.37306444478136
 10
10.044976731545859
 20
108.04675715799479
 10
10.027090516154587
 20
107.68995233406349
 10
10.013229495230533
 20
107.32279465384845
 10
10.004662014922147
 20
106.95582390752732
 10
10.000587623032047
 20
106.62571934528532
 10
10.0
 20
106.32868973119922
 10
10.003010090781004
 20
106.03161063318397
 10
10.009005287747542
 20
105.73441221825013
 10
10.017850277022703
 20
105.43705964222842
 10
10.029574654297505
 20
105.13958529074425
 10
10.044372271781
 20
104.84206681243347
 10
10.062548102345403
 20
104.54462178773291
 10
10.082703384582032
 20
104.24725551281992
 10
10.105474113520245
 20
103.95013704371065
 10
10.130673622550248
 20
103.65337019132859
 10
10.158899746803812
 20
103.35707638663892
 10
10.189685142196907
 20
103.06126426739378
 10
10.222598340309489
 20
102.76589029281692
 10
10.257591987983687
 20
102.47088693856757
 10
10.295143052848204
 20
102.1762022221103
 10
10.334478962317107
 20
101.8816337000569
 10
10.375407423835213
 20
101.5871043004023
 10
10.41847164889792
 20
101.29266175343635
 10
10.463165264557844
 20
100.99829970919046
 10
10.509052404987457
 20
100.7040097718402
 10
10.555976019227288
 20
100.40983651054219
 10
10.60416497396713
 20
100.11583021725673
 10
10.653444330126547
 20
99.82208294960996
 10
10.703361085322555
 20
99.5285585852588
 10
10.753880526054388
 20
99.2352537495022
 10
10.805060382972371
 20
98.94213697581937
 10
18.539170667549186
 20
54.473969665978586
 10
26.266782228489603
 20
10.0
 10
77.49421391727594
 20
18.908028461129362
 10
93.64904983266067
 20
21.71340933584193
 10
91.85868919107764
 20
32.013183879238966
 10
91.75169714714282
 20
32.630426108201675
 10
90.61058960094917
 20
39.221785296555595
 10
90.57615806397239
 20
39.4206549971035
 10
90.43843629349061
 20
40.21609763390762
 10
86.14293604455432
 20
64.97811608321237
 10
83.75896703352493
 20
78.72333363179084
 10
81.95680610374768
 20
89.12950950525055
 10
81.89802013077107
 20
89.46848071242863
 10
81.86832971336857
 20
89.63938377035772
 10
81.44078642375948
 20
92.10050269080052
 10
80.68160437530167
 20
96.46933084835379
 10
80.59049348725284
 20
96.993850422834
 10
80.53652696354841
 20
97.30367048866941
 10
80.17692488009159
 20
99.36833452975094
 10
80.10782605484788
 20
99.7678431002219
 10
80.04250705475735
 20
100.15141015429772
 10
79.98961246205191
 20
100.46852502930695
 10
79.88086765915511
 20
101.14480070068153
 10
79.87631187155485
 20
101.17286383865904
 10
79.86903433571904
 20
101.2229146846949
 10
79.73769410854251
 20
102.13201377782566
 10
79.70329634390905
 20
102.38073840510572
 10
79.6753229769484
 20
102.6126583579901
 10
79.58645284829572
 20
103.3907929397804
 10
79.580263989036
 20
103.44884654693671
 10
79.57446577774063
 20
103.50701121440606
 10
79.57361890420071
 20
103.5158461379611
 10
79.56913390336227
 20
103.56349956377886
 10
79.49899332935193
 20
104.43857358209357
 10
79.48722527739561
 20
104.63383864003372
 10
79.48071298455642
 20
104.75138856105022
 10
79.46318731894492
 20
104.99911500998527
 10
79.46281336056391
 20
105.00660227576684
 10
79.45520480672572
 20
105.16340769440117
 10
79.45484957101075
 20
105.17089578223944
 10
79.45206005798707
 20
105.25691160249373
 10
79.44132776230128
 20
105.52385417795045
 10
79.43415596563929
 20
105.76990405062212
 10
79.4295677873479
 20
105.99499625975693
 10
79.42774433340409
 20
106.12976782865692
 10
79.43025140428506
 20
106.45340159401556
 10
79.4297820041999
 20
106.4899087961464
 10
79.4458186388063
 20
107.49199840704628
 10
79.47425370158773
 20
108.0856688491654
 10
79.47711168075377
 20
108.14317328713547
 10
79.48439501787067
 20
108.24510900128251
 10
79.54603900356648
 20
109.06894198125434
 10
79.57120675385461
 20
109.3121170812922
 10
79.62745146384682
 20
109.87885853089777
 10
79.70144308119883
 20
110.44852682983743
 10
79.75555736242987
 20
110.88592168550599
 10
79.82181597889308
 20
111.3522512941842
 10
79.90701856631486
 20
111.9016559826644
 10
79.9638531069495
 20
112.26328044761794
 10
79.9856189298962
 20
112.39234429263928
 10
80.0614191478129
 20
112.83561971566597
 10
80.23635282079528
 20
113.8640200849933
 10
80.26744342850452
 20
114.04403816431012
 10
80.47848061227472
 20
115.26143275814847
 10
80.78342833899254
 20
117.01556050539249
 10
81.36557279288927
 20
120.36400446491936
 10
83.09766874681242
 20
130.34090198691075
 10
83.42199602740386
 20
132.20955775159746
 10
83.71227723405937
 20
133.88055272194657
 10
86.01977564491736
 20
147.18430207707098
 10
90.44171879847794
 20
172.67752898053052
 10
90.5104394830395
 20
173.07523450057704
 10
90.57941680018207
 20
173.4729484089177
 10
91.14850298719394
 20
176.76929513780323
 10
91.28659191495503
 20
177.56473716698287
 10
91.85725788781896
 20
180.8606620439463
  0
CIRCLE
  5
35
330
17
100
AcDbEntity
  8
REFERENCE
100
AcDbCircle
 10
93.64904983266064
 20
191.17932513328276
 30
0.0
 40
1.0
  0
TEXT
  5
36
330
17
100
AcDbEntity
  8
REFERENCE
100
AcDbText
 10
95.64904983266064
 20
193.17932513328276
 30
0.0
 40
2.0
  1
F07.1
 11
95.64904983266064
 21
193.17932513328276
 31
0.0
100
AcDbText
  0
CIRCLE
  5
37
330
17
100
AcDbEntity
  8
REFERENCE
100
AcDbCircle
 10
93.64904983266067
 20
21.71340933584193
 30
0.0
 40
1.0
  0
TEXT
  5
38
330
17
100
AcDbEntity
  8
REFERENCE
100
AcDbText
 10
95.64904983266067
 20
23.71340933584193
 30
0.0
 40
2.0
  1
F07.2
 11
95.64904983266067
 21
23.71340933584193
 31
0.0
100
AcDbText
  0
CIRCLE
  5
39
330
17
100
AcDbEntity
  8
REFERENCE
100
AcDbCircle
 10
26.266123778716462
 20
202.89370601331143
 30
0.0
 40
1.0
  0
TEXT
  5
3A
330
17
100
AcDbEntity
  8
REFERENCE
100
AcDbText
 10
28.266123778716462
 20
204.89370601331143
 30
0.0
 40
2.0
  1
F07.3
 11
28.266123778716462
 21
204.89370601331143
 31
0.0
100
AcDbText
  0
CIRCLE
  5
3B
330
17
100
AcDbEntity
  8
REFERENCE
100
AcDbCircle
 10
26.266782228489603
 20
10.0
 30
0.0
 40
1.0
  0
TEXT
  5
3C
330
17
100
AcDbEntity
  8
REFERENCE
100
AcDbText
 10
28.266782228489603
 20
12.0
 30
0.0
 40
2.0
  1
F07.4
 11
28.266782228489603
 21
12.0
 31
0.0
100
AcDbText
  0
TEXT
  5
3D
330
17
100
AcDbEntity
  8
LABEL
100
AcDbText
 10
10.0
 20
5.0
 30
0.0
 40
4.0
  1
F07 #1
100
AcDbText
  0
LWPOLYLINE
  5
3E
330
17
100
AcDbEntity
  8
CUT
100
AcDbPolyline
 90
131
 70
1
 10
186.66744718927373
 20
187.53740477311862
 10
187.2981904065134
 20
191.1786392406578
 10
171.14249358136487
 20
193.98399145045988
 10
119.9155374199735
 20
202.89367979002665
 10
105.02550370313777
 20
117.20728743088108
 10
104.4984654911526
 20
114.19249476971785
 10
104.44862692714092
 20
113.91621540945654
 10
104.39976347571753
 20
113.63977065859486
 10
104.33706132774992
 20
113.27401524172537
 10
104.28265065395425
 20
112.95155199788086
 10
104.22898203207008
 20
112.62883490835269
 10
104.17639481169684
 20
112.305879975448
 10
104.12552209130189
 20
111.98267485441379
 10
104.07682445726849
 20
111.6592465775781
 10
104.02905923403743
 20
111.33586829516851
 10
103.9836243079103
 20
111.01238229041616
 10
103.94058771274452
 20
110.68878235629144
 10
103.89989282090215
 20
110.36500794489163
 10
103.86194014424736
 20
110.04086855446872
 10
103.82508165286919
 20
109.69923198925522
 10
103.792074441541
 20
109.36238455484623
 10
103.76113762519034
 20
109.01527958113849
 10
103.73760200662089
 20
108.72564927317887
 10
103.71309286634538
 20
108.3733620349304
 10
103.69404717701345
 20
108.04705522004933
 10
103.67615640228455
 20
107.69025088109889
 10
103.6622906798978
 20
107.32309343610758
 10
103.65371898232556
 20
106.9561228267596
 10
103.649640756349
 20
106.62601830147604
 10
103.64904983266067
 20
106.3289886640939
 10
103.65205636297166
 20
106.03190947791788
 10
103.65804768087216
 20
105.7347108539292
 10
103.66688895051492
 20
105.43735798055796
 10
103.67861034747473
 20
105.13988330533692
 10
103.69340511761871
 20
104.84236445919534
 10
103.71157671230897
 20
104.54491893011563
 10
103.7317276927163
 20
104.24755193031001
 10
103.75449424927068
 20
103.95043267565963
 10
103.77968925196915
 20
103.65366486755029
 10
103.8079119947685
 20
103.35737014656922
 10
103.83869433863256
 20
103.06155709484744
 10
103.87160435835644
 20
102.76618213081058
 10
103.90659445186385
 20
102.47117772808707
 10
103.9441422825112
 20
102.1764919494375
 10
103.98347568889734
 20
101.88192242156612
 10
104.0244016152846
 20
101.58739197690903
 10
104.06746106524042
 20
101.29294763906819
 10
104.11215214368436
 20
100.99858409453904
 10
104.15803757708561
 20
100.70429275426997
 10
104.20495889700562
 20
100.41011796933975
 10
104.25314400378531
 20
100.11610947231536
 10
104.30242109746007
 20
99.82236023088569
 10
104.35233622151011
 20
99.52883393359329
 10
104.4028560027826
 20
99.23552748094862
 10
104.45403393858328
 20
98.94240867763152
 10
112.18812604411977
 20
54.474082899163136
 10
119.91558351979418
 20
10.0
 10
171.1432205178684
 20
18.90756281934179
 10
187.29819040651347
 20
21.713040958383914
 10
185.5079484257736
 20
32.01250101868871
 10
185.4009536294775
 20
32.62972206740284
 10
184.2597557915817
 20
39.2210845763191
 10
184.22532813825995
 20
39.41995434650164
 10
184.0875844193412
 20
40.21539107489605
 10
179.79191115331113
 20
64.97736621830006
 10
177.407830898898
 20
78.72253116558534
 10
175.60568735301496
 20
89.12868632329547
 10
175.54690042129013
 20
89.4676564376279
 10
175.51721194354576
 20
89.63855995392959
 10
175.0896866491159
 20
92.09968358120565
 10
174.33053465073988
 20
96.46852017674614
 10
174.23943143412887
 20
96.99304079137427
 10
174.18546950430795
 20
97.30286155796357
 10
173.82589809476337
 20
99.36753025052468
 10
173.7568054870285
 20
99.76703968587161
 10
173.69149243739554
 20
100.15060767447524
 10
173.6386023996362
 20
100.46772317239677
 10
173.52986751564168
 20
101.14399982660724
 10
173.52531216808276
 20
101.17206303612946
 10
173.51803536494077
 20
101.22211394904787
 10
173.38670927147146
 20
102.13121497511129
 10
173.3523152963029
 20
102.37994008248754
 10
173.3243454862323
 20
102.61186042971381
 10
173.23548710588042
 20
103.3899961349068
 10
173.22929915251092
 20
103.44804984448547
 10
173.22350188177032
 20
103.50621461221073
 10
173.22265513931643
 20
103.51504955045804
 10
173.21817094482657
 20
103.56270306943783
 10
173.14804476470331
 20
104.43777774676867
 10
173.13627987065973
 20
104.63304290533694
 10
173.12976902185574
 20
104.75059288513401
 10
173.112247272421
 20
104.998319481515
 10
173.11187349554496
 20
105.00580675652279
 10
173.10426771958117
 20
105.16261232041289
 10
173.10391258994696
 20
105.17010041346666
 10
173.10112450130958
 20
105.25611625081619
 10
173.09039682728417
 20
105.52305905158612
 10
173.08322935293836
 20
105.76910907828677
 10
173.07864485203928
 20
105.99420136554953
 10
173.0768234174371
 20
106.12897296753374
 10
173.07933546946086
 20
106.45260657538108
 10
173.0788673997272
 20
106.48911380251947
 10
173.09491924104515
 20
107.49120273191134
 10
173.12336377865472
 20
108.08487244173193
 10
173.12622267425587
 20
108.14237678961624
 10
173.1335076627965
 20
108.24431234539067
 10
173.19516506482412
 20
109.0681438437185
 10
173.22033680286773
 20
109.31131841936539
 10
173.2765908016217
 20
109.87805852723825
 10
173.35059132203935
 20
110.44772525225981
 10
173.4047126390825
 20
110.88511881779941
 10
173.4709784363581
 20
111.35144683460769
 10
173.55618939494366
 20
111.90084971096776
 10
173.6130294926133
 20
112.26247295331268
 10
173.634797364523
 20
112.39153627842026
 10
173.71060396167252
 20
112.83480972130847
 10
173.88555311912145
 20
113.86320598270699
 10
173.91664622632402
 20
114.04322353022032
 10
174.12769812198763
 20
115.26061537514761
 10
174.43266932981174
 20
117.0147379130775
 10
175.0148522930633
 20
120.36316577843559
 10
176.7470197782049
 20
130.34006070906793
 10
177.07135694826377
 20
132.2087142010113
 10
177.36164682585428
 20
133.87970501369722
 10
179.6690915188354
 20
147.18349912820122
 10
184.09091478504774
 20
172.67681196502696
 10
184.15961741090933
 20
173.07451554395564
 10
184.22859463768606
 20
173.47222843706726
 10
184.79757181883627
 20
176.7685960116
 10
184.93566914489867
 20
177.56403772065565
 10
185.50630496326278
 20
180.85996503595265
  0
CIRCLE
  5
3F
330
17
100
AcDbEntity
  8
REFERENCE
100
AcDbCircle
 10
187.2981904065134
 20
191.1786392406578
 30
0.0
 40
1.0
  0
TEXT
  5
40
330
17
100
AcDbEntity
  8
REFERENCE
100
AcDbText
 10
189.2981904065134
 20
193.1786392406578
 30
0.0
 40
2.0
  1
F08.1
 11
189.2981904065134
 21
193.1786392406578
 31
0.0
100
AcDbText
  0
CIRCLE
  5
41
330
17
100
AcDbEntity
  8
REFERENCE
100
AcDbCircle
 10
187.29819040651347
 20
21.713040958383914
 30
0.0
 40
1.0
  0
TEXT
  5
42
330
17
100
AcDbEntity
  8
REFERENCE
100
AcDbText
 10
189.29819040651347
 20
23.713040958383914
 30
0.0
 40
2.0
  1
F08.2
 11
189.29819040651347
 21
23.713040958383914
 31
0.0
100
AcDbText
  0
CIRCLE
  5
43
330
17
100
AcDbEntity
  8
REFERENCE
100
AcDbCircle
 10
119.9155374199735
 20
202.89367979002665
 30
0.0
 40
1.0
  0
TEXT
  5
44
330
17
100
AcDbEntity
  8
REFERENCE
100
AcDbText
 10
121.9155374199735
 20
204.89367979002665
 30
0.0
 40
2.0
  1
F08.3
 11
121.9155374199735
 21
204.89367979002665
 31
0.0
100
AcDbText
  0
CIRCLE
  5
45
330
17
100
AcDbEntity
  8
REFERENCE
100
AcDbCircle
 10
119.91558351979418
 20
10.0
 30
0.0
 40
1.0
  0
TEXT
  5
46
330
17
100
AcDbEntity
  8
REFERENCE
100
AcDbText
 10
121.91558351979418
 20
12.0
 30
0.0
 40
2.0
  1
F08.4
 11
121.91558351979418
 21
12.0
 31
0.0
100
AcDbText
  0
TEXT
  5
47
330
17
100
AcDbEntity
  8
LABEL
100
AcDbText
 10
103.64904983266067
 20
5.0
 30
0.0
 40
4.0
  1
F08 #1
100
AcDbText
  0
LWPOLYLINE
  5
48
330
17
100
AcDbEntity
  8
CUT
100
AcDbPolyline
 90
58
 70
1
 10
202.01580109982353
 20
166.212493811417
 10
204.69819499329196
 20
166.1970169628915
 10
206.8211192870001
 20
166.18485268119815
 10
209.65980711812347
 20
166.1683381513644
 10
212.94378859184138
 20
166.15013952388117
 10
216.30918382143392
 20
166.13134431464675
 10
219.74455606503062
 20
166.1139351999879
 10
223.2380485185387
 20
166.0977592771271
 10
226.77749466590046
 20
166.08403827349088
 10
230.350519362593
 20
166.07262954193072
 10
233.94470818095155
 20
166.06224870788287
 10
237.54797601753606
 20
166.05574406730534
 10
241.14624324934405
 20
166.05065510264623
 10
244.72400769247614
 20
166.0511985819585
 10
248.27173983727465
 20
166.05339818429545
 10
251.7815292671944
 20
166.06121863648494
 10
255.2474575960235
 20
166.0726788471944
 10
258.6655783672899
 20
166.09039490819973
 10
262.0332744410499
 20
166.11425860555843
 10
265.0204142558986
 20
166.14221648734411
 10
267.6753737892416
 20
166.17263018372907
 10
269.7437223945144
 20
166.19955293157656
 10
271.8000219557246
 20
166.22863213746314
 10
273.73433544165505
 20
94.47058615496938
 10
275.5570877953529
 20
34.45637425242475
 10
276.5556653639322
 20
10.336516294461912
 10
276.56450234796085
 20
10.283390317716401
 10
276.57270085299575
 20
10.245458790331021
 10
276.58783493663634
 20
10.215289607703069
 10
274.38755946616584
 20
10.172210216133099
 10
272.1779372763466
 20
10.13679325607097
 10
269.95226294487327
 20
10.107815791745251
 10
267.70557603924914
 20
10.083222045810956
 10
265.434262672524
 20
10.06209111966626
 10
263.1359404691763
 20
10.04430471842553
 10
260.8093094077016
 20
10.029669962575309
 10
258.45409977704685
 20
10.01772032907392
 10
256.070760281524
 20
10.009154348339617
 10
253.66008820750403
 20
10.003138499368482
 10
250.40582100779608
 20
10.0
 10
246.69520723735104
 20
10.000383431951306
 10
242.94047397137035
 20
10.00544837362333
 10
239.15212273149407
 20
10.01374688096137
 10
235.3452138468568
 20
10.024894546599738
 10
231.5359662887816
 20
10.0400799176873
 10
227.7381140807123
 20
10.05619668967493
 10
223.96615006089095
 20
10.074526391190915
 10
220.2345298191078
 20
10.094266392305443
 10
216.55769246534575
 20
10.115118764105658
 10
212.9497332624813
 20
10.136829799985922
 10
209.42421358220153
 20
10.15879916765801
 10
205.9976059975829
 20
10.18336084005546
 10
202.69069657765795
 20
10.207441526799103
 10
200.46345308460056
 20
10.223804612987049
 10
198.29816452411615
 20
10.239951324733395
 10
197.29819040651347
 20
10.247146053689935
 10
198.42051573371947
 20
166.23582686641987
 10
199.42048985132215
 20
166.22863213746334
  0
LWPOLYLINE
  5
49
330
17
100
AcDbEntity
  8
REFERENCE
100
AcDbPolyline
 90
56
 70
1
 10
199.42048985132215
 20
166.22863213746334
 10
202.01580109982353
 20
166.212493811417
 10
204.69819499329196
 20
166.1970169628915
 10
206.8211192870001
 20
166.18485268119815
 10
209.65980711812347
 20
166.1683381513644
 10
212.94378859184138
 20
166.15013952388117
 10
216.30918382143392
 20
166.13134431464675
 10
219.74455606503062
 20
166.1139351999879
 10
223.2380485185387
 20
166.0977592771271
 10
226.77749466590046
 20
166.08403827349088
 10
230.350519362593
 20
166.07262954193072
 10
233.94470818095155
 20
166.06224870788287
 10
237.54797601753606
 20
166.05574406730534
 10
241.14624324934405
 20
166.05065510264623
 10
244.72400769247614
 20
166.0511985819585
 10
248.27173983727465
 20
166.05339818429545
 10
251.7815292671944
 20
166.06121863648494
 10
255.2474575960235
 20
166.0726788471944
 10
258.6655783672899
 20
166.09039490819973
 10
262.0332744410499
 20
166.11425860555843
 10
265.0204142558986
 20
166.14221648734411
 10
267.6753737892416
 20
166.17263018372907
 10
269.7437223945144
 20
166.19955293157656
 10
271.8000219557246
 20
166.22863213746314
 10
273.73433544165505
 20
94.47058615496938
 10
275.5570877953529
 20
34.45637425242475
 10
276.5556653639322
 20
10.336516294461912
 10
276.56450234796085
 20
10.283390317716401
 10
276.57270085299575
 20
10.245458790331021
 10
276.58783493663634
 20
10.215289607703069
 10
274.38755946616584
 20
10.172210216133099
 10
272.1779372763466
 20
10.13679325607097
 10
269.95226294487327
 20
10.107815791745251
 10
267.70557603924914
 20
10.083222045810956
 10
265.434262672524
 20
10.06209111966626
 10
263.1359404691763
 20
10.04430471842553
 10
260.8093094077016
 20
10.029669962575309
 10
258.45409977704685
 20
10.01772032907392
 10
256.070760281524
 20
10.009154348339617
 10
253.66008820750403
 20
10.003138499368482
 10
250.40582100779608
 20
10.0
 10
246.69520723735104
 20
10.000383431951306
 10
242.94047397137035
 20
10.00544837362333
 10
239.15212273149407
 20
10.01374688096137
 10
235.3452138468568
 20
10.024894546599738
 10
231.5359662887816
 20
10.0400799176873
 10
227.7381140807123
 20
10.05619668967493
 10
223.96615006089095
 20
10.074526391190915
 10
220.2345298191078
 20
10.094266392305443
 10
216.55769246534575
 20
10.115118764105658
 10
212.9497332624813
 20
10.136829799985922
 10
209.42421358220153
 20
10.15879916765801
 10
205.9976059975829
 20
10.18336084005546
 10
202.69069657765795
 20
10.207441526799103
 10
200.46345308460056
 20
10.223804612987049
 10
198.29816452411615
 20
10.239951324733395
  0
CIRCLE
  5
4A
330
17
100
AcDbEntity
  8
REFERENCE
100
AcDbCircle
 10
198.29816452411615
 20
10.239951324733395
 30
0.0
 40
1.0
  0
TEXT
  5
4B
330
17
100
AcDbEntity
  8
REFERENCE
100
AcDbText
 10
200.29816452411615
 20
12.239951324733395
 30
0.0
 40
2.0
  1
F23.1
 11
200.29816452411615
 21
12.239951324733395
 31
0.0
100
AcDbText
  0
CIRCLE
  5
4C
330
17
100
AcDbEntity
  8
REFERENCE
100
AcDbCircle
 10
276.58783493663634
 20
10.215289607703069
 30
0.0
 40
1.0
  0
TEXT
  5
4D
330
17
100
AcDbEntity
  8
REFERENCE
100
AcDbText
 10
278.58783493663634
 20
12.215289607703069
 30
0.0
 40
2.0
  1
F23.2
 11
278.58783493663634
 21
12.215289607703069
 31
0.0
100
AcDbText
  0
CIRCLE
  5
4E
330
17
100
AcDbEntity
  8
REFERENCE
100
AcDbCircle
 10
199.42048985132215
 20
166.22863213746334
 30
0.0
 40
1.0
  0
TEXT
  5
4F
330
17
100
AcDbEntity
  8
REFERENCE
100
AcDbText
 10
201.42048985132215
 20
168.22863213746334
 30
0.0
 40
2.0
  1
F23.3
 11
201.42048985132215
 21
168.22863213746334
 31
0.0
100
AcDbText
  0
CIRCLE
  5
50
330
17
100
AcDbEntity
  8
REFERENCE
100
AcDbCircle
 10
271.8000219557246
 20
166.22863213746314
 30
0.0
 40
1.0
  0
TEXT
  5
51
330
17
100
AcDbEntity
  8
REFERENCE
100
AcDbText
 10
273.8000219557246
 20
168.22863213746314
 30
0.0
 40
2.0
  1
F23.4
 11
273.8000219557246
 21
168.22863213746314
 31
0.0
100
AcDbText
  0
TEXT
  5
52
330
17
100
AcDbEntity
  8
LABEL
100
AcDbText
 10
197.29819040651347
 20
5.0
 30
0.0
 40
4.0
  1
F23 #1
100
AcDbText
  0
LWPOLYLINE
  5
53
330
17
100
AcDbEntity
  8
CUT
100
AcDbPolyline
 90
117
 70
1
 10
303.3610682898787
 20
159.46129806402422
 10
288.7129086970392
 20
160.2482961853077
 10
288.5619344663893
 20
157.3380818874421
 10
288.4155238400091
 20
154.42704235002492
 10
288.25936069697445
 20
151.17447416197535
 10
288.1043796326949
 20
147.920863038019
 10
287.95038619556095
 20
144.66603162979013
 10
287.8066076921759
 20
141.41075988753752
 10
287.66834984054196
 20
138.1552766751115
 10
287.53552181795715
 20
134.8988141487776
 10
287.4137729760701
 20
131.64188214933583
 10
287.29587205630077
 20
128.3848039535582
 10
287.1870967811402
 20
125.12763582321344
 10
287.08815156935384
 20
121.8700972095712
 10
286.9993361530125
 20
118.6120293680966
 10
286.9181402274641
 20
115.35316323219722
 10
286.8456779443237
 20
112.0942055388751
 10
286.78155860625606
 20
108.83457625764858
 10
286.73013793000314
 20
105.57461933474669
 10
286.68764398169793
 20
102.31449793456288
 10
286.6375627862064
 20
99.05234244638343
 10
286.60913714595176
 20
95.78914645600858
 10
286.59451066059967
 20
92.52596097096134
 10
286.58783493663634
 20
89.2622425863859
 10
286.5909155875327
 20
87.01543071992172
 10
286.60320221827044
 20
84.7683409861874
 10
286.61512858164986
 20
82.55162155507598
 10
286.6292673752133
 20
80.2764446909571
 10
286.6574891057429
 20
77.60990090502189
 10
286.68673042452
 20
75.01493739136409
 10
286.7350264164353
 20
71.98219638632978
 10
286.78206981601187
 20
68.97142828704227
 10
286.8336854650551
 20
66.5449365907613
 10
286.8841473808476
 20
63.99218933297247
 10
286.9434586272736
 20
61.334089923936666
 10
287.0095864772267
 20
58.59087885711708
 10
287.0768762562905
 20
55.78122175479159
 10
287.1542541731046
 20
52.92310779652682
 10
287.2407434206392
 20
50.03393513881963
 10
287.3266922361028
 20
47.13150531249432
 10
287.42109223652335
 20
44.23629835229771
 10
287.5188721904037
 20
41.367739825110775
 10
287.6191488976536
 20
38.54357855958692
 10
287.7172608917954
 20
35.781397644999245
 10
287.817501478816
 20
32.947262743943114
 10
287.909728731009
 20
30.226912281585705
 10
288.0474275567157
 20
26.623442645896382
 10
288.1682011432217
 20
23.27946390194909
 10
288.2850434385784
 20
19.95928387571071
 10
288.4082094698715
 20
16.639497914824474
 10
288.52644704833165
 20
13.319771248352872
 10
288.641466232398
 20
10.0
 10
300.46541603451004
 20
10.318309576686048
 10
312.29632883950933
 20
10.73827726034848
 10
324.1179741082799
 20
11.314879403158276
 10
335.9271047002112
 20
12.039008197872384
 10
341.8217292687787
 20
12.447232334032414
 10
341.6018716901827
 20
16.548733427645217
 10
341.4604226832839
 20
19.23739827148307
 10
341.22233148830685
 20
24.196570820144995
 10
341.14932701947373
 20
25.731309734605983
 10
341.0300876230517
 20
29.074523435180158
 10
340.93433816289667
 20
31.43729993559964
 10
340.83982877946784
 20
33.44792161589709
 10
340.6598228742644
 20
39.18063771940283
 10
340.54681201559134
 20
42.00694351865843
 10
340.51001011772314
 20
43.295618988697846
 10
340.4543942549594
 20
45.6285500207115
 10
340.3800966171901
 20
48.06671288570178
 10
340.2869829255006
 20
50.982702243915604
 10
340.2398244900263
 20
52.86795828769306
 10
340.1460224026149
 20
56.56070347874949
 10
340.0986664745601
 20
58.99252016030377
 10
340.0580485054102
 20
60.96612544362297
 10
339.9939766865841
 20
64.60182896279846
 10
339.94903664036974
 20
67.10687517099171
 10
339.915180024506
 20
69.52252502965229
 10
339.90492269222426
 20
69.9249862521643
 10
339.8871606564248
 20
72.13856150072137
 10
339.8426754078825
 20
77.53021690739725
 10
339.8406865867536
 20
78.39708789192301
 10
339.82990260277063
 20
80.0476063625513
 10
339.82690037580863
 20
80.60542865433625
 10
339.8177151970899
 20
82.52491299743582
 10
339.8178526820127
 20
83.20335368112843
 10
339.818129898672
 20
83.43086141557576
 10
339.81674014382344
 20
86.35636160734123
 10
339.8147647552291
 20
87.89970618742917
 10
339.8134989609628
 20
88.58643863112458
 10
339.8480149619217
 20
94.59442906982616
 10
339.8816142052721
 20
98.74022365983464
 10
339.90938623677357
 20
101.60189421659705
 10
339.96678704569746
 20
105.42330757513743
 10
340.0173632703384
 20
108.67989702252422
 10
340.0616836443454
 20
110.98088214954144
 10
340.06196032817803
 20
111.01173326019679
 10
340.06374245931255
 20
111.15444012141757
 10
340.1414705070315
 20
114.62993990374561
 10
340.1584098518103
 20
115.3418433836357
 10
340.2453310091165
 20
118.77856676696945
 10
340.2808348564885
 20
120.13464626209148
 10
340.2957444097647
 20
120.65086695439673
 10
340.34637545782925
 20
122.39532924315482
 10
340.4281732471082
 20
124.918401046644
 10
340.544188186399
 20
128.48383152366847
 10
340.7786430201823
 20
134.69627518373107
 10
340.8278323108459
 20
136.1103619673897
 10
340.858894267511
 20
136.94360741136322
 10
340.95615604760644
 20
139.25515485793164
 10
341.15386907225013
 20
143.66564003263238
 10
341.2226682903744
 20
145.13243527078507
 10
341.4241054337284
 20
149.3975814778781
 10
341.7661350919784
 20
155.7656719792424
 10
341.785758317349
 20
156.1890339037257
 10
341.8217292687786
 20
156.92820051287987
 10
331.0570832600791
 20
157.70647591946516
 10
318.01241287015984
 20
158.5822569174755
  0
CIRCLE
  5
54
330
17
100
AcDbEntity
  8
REFERENCE
100
AcDbCircle
 10
288.641466232398
 20
10.0
 30
0.0
 40
1.0
  0
TEXT
  5
55
330
17
100
AcDbEntity
  8
REFERENCE
100
AcDbText
 10
290.641466232398
 20
12.0
 30
0.0
 40
2.0
  1
F27.1
 11
290.641466232398
 21
12.0
 31
0.0
100
AcDbText
  0
CIRCLE
  5
56
330
17
100
AcDbEntity
  8
REFERENCE
100
AcDbCircle
 10
288.7129086970392
 20
160.2482961853077
 30
0.0
 40
1.0
  0
TEXT
  5
57
330
17
100
AcDbEntity
  8
REFERENCE
100
AcDbText
 10
290.7129086970392
 20
162.2482961853077
 30
0.0
 40
2.0
  1
F27.2
 11
290.7129086970392
 21
162.2482961853077
 31
0.0
100
AcDbText
  0
CIRCLE
  5
58
330
17
100
AcDbEntity
  8
REFERENCE
100
AcDbCircle
 10
341.8217292687787
 20
12.447232334032414
 30
0.0
 40
1.0
  0
TEXT
  5
59
330
17
100
AcDbEntity
  8
REFERENCE
100
AcDbText
 10
343.8217292687787
 20
14.447232334032414
 30
0.0
 40
2.0
  1
F27.3
 11
343.8217292687787
 21
14.447232334032414
 31
0.0
100
AcDbText
  0
CIRCLE
  5
5A
330
17
100
AcDbEntity
  8
REFERENCE
100
AcDbCircle
 10
341.8217292687786
 20
156.92820051287987
 30
0.0
 40
1.0
  0
TEXT
  5
5B
330
17
100
AcDbEntity
  8
REFERENCE
100
AcDbText
 10
343.8217292687786
 20
158.92820051287987
 30
0.0
 40
2.0
  1
F27.4
 11
343.8217292687786
 21
158.92820051287987
 31
0.0
100
AcDbText
  0
TEXT
  5
5C
330
17
100
AcDbEntity
  8
LABEL
100
AcDbText
 10
286.58783493663634
 20
5.0
 30
0.0
 40
4.0
  1
F27 #1
100
AcDbText
  0
LWPOLYLINE
  5
5D
330
17
100
AcDbEntity
  8
CUT
100
AcDbPolyline
 90
123
 70
1
 10
352.190434981773
 20
106.18874965189202
 10
352.2612500665232
 20
108.49237307017673
 10
352.26283647574996
 20
108.52322786926817
 10
352.2706213731336
 20
108.66593351192445
 10
352.3888673581042
 20
112.14149293671287
 10
352.4140961764829
 20
112.85336341777516
 10
352.55443091308643
 20
116.28934947204402
 10
352.6095545977108
 20
117.64538592610252
 10
352.6330141097856
 20
118.16149096823712
 10
352.709289290861
 20
119.90556551231586
 10
352.8323964678771
 20
122.42789639069007
 10
353.014599966217
 20
125.9918765442465
 10
353.37907988117433
 20
132.19548974430703
 10
353.4560281868135
 20
133.60764281475036
 10
353.5065332082357
 20
134.43960367894456
 10
353.66109551629773
 20
136.74833779517115
 10
353.96261716700064
 20
141.15353955352055
 10
354.0715413662848
 20
142.61794282354106
 10
354.3859686488036
 20
146.87831809154648
 10
354.90823856021365
 20
153.237249618007
 10
354.9429164930538
 20
153.65956499280782
 10
355.0026101766819
 20
154.39705516720812
 10
357.2662531635188
 20
154.176996167846
 10
370.28109079744456
 20
152.83435684999876
 10
383.2962692052456
 20
151.41712226866366
 10
397.64640640466814
 20
149.76037753851196
 10
407.77134211427733
 20
148.53393401391816
 10
407.33410376046584
 20
143.26253634598007
 10
407.0584469354037
 20
140.11391079673066
 10
406.8421803922841
 20
137.27930897366008
 10
406.7403070694145
 20
135.878963288502
 10
406.57884809689307
 20
133.53170240766684
 10
406.45019691137946
 20
131.64938206942463
 10
406.0803933121794
 20
125.44273333171257
 10
405.9499412810088
 20
123.18145350363376
 10
405.8887722239361
 20
121.9383773484277
 10
405.68888915169913
 20
118.00934004256388
 10
405.633281132786
 20
116.81863978888056
 10
405.6109309034721
 20
116.3237874156904
 10
405.54033118314334
 20
114.69901725719937
 10
405.4825840707208
 20
113.25380415994682
 10
405.3699739487832
 20
110.45092454932457
 10
405.25146739560626
 20
107.07682582902046
 10
405.2222090665437
 20
106.20472663148962
 10
405.2154612232189
 20
105.88110404050843
 10
405.16145551531787
 20
104.08342287950549
 10
405.15102154709047
 20
103.71284700515758
 10
405.1257549711174
 20
102.76012391190132
 10
405.0723757649181
 20
100.66158613456753
 10
404.9967537049093
 20
97.70275926677164
 10
404.8886449441889
 20
90.163579800055
 10
404.8718133965098
 20
89.21399116336742
 10
404.8629648185716
 20
88.43779215471696
 10
404.8412217885935
 20
84.96418315054385
 10
404.82782641363883
 20
78.65917477860933
 10
404.8252676356134
 20
78.04991890666093
 10
404.82473506716065
 20
77.93259443836966
 10
404.82380575947616
 20
77.64293267014826
 10
404.85268692681393
 20
72.5244483710072
 10
404.86529678318635
 20
71.85497185730969
 10
404.93273471973635
 20
66.77393108308192
 10
404.97451244839544
 20
64.86827024069862
 10
404.9727871358235
 20
64.47433853112324
 10
405.01735924921957
 20
62.45514018802589
 10
405.1310745453832
 20
57.596009433882564
 10
405.2052790935588
 20
55.27560970526485
 10
405.2499555552208
 20
53.9239641260649
 10
405.4757034437588
 20
48.67192209385541
 10
405.6704615676839
 20
44.33584227337245
 10
405.7108306742764
 20
43.15105165647311
 10
405.7905660551258
 20
41.70072923288848
 10
405.96443830041693
 20
38.46251389620587
 10
406.0983105650289
 20
36.535642872589364
 10
406.4370379867099
 20
31.009953245146853
 10
406.6067707648194
 20
28.95920290456137
 10
406.96381576026033
 20
24.880973696025563
 10
407.14846627792815
 20
22.50733969332706
 10
407.3066076931372
 20
20.899868888416364
 10
407.4878574848706
 20
19.006662582936123
 10
407.6884903818284
 20
17.04872834738183
 10
407.7501610033342
 20
16.397730589310825
 10
407.7713421142777
 20
16.069821574541614
 10
390.9106559671316
 20
13.799600064319552
 10
380.44852876727964
 20
12.54253618782441
 10
369.9677731925472
 20
11.41392265594047
 10
359.51117834574814
 20
10.415066448241287
 10
354.9530394000232
 20
10.0
 10
354.63428004846986
 20
14.094255582183909
 10
354.42350362488054
 20
16.778832329415636
 10
354.0699071935319
 20
21.73196152486252
 10
353.9521459271838
 20
23.263311923448022
 10
353.7278145845161
 20
26.600271045760845
 10
353.5690880580686
 20
28.959765780435813
 10
353.44936798160523
 20
30.96910566975945
 10
353.1179279990257
 20
36.69828080025691
 10
352.95999579326735
 20
39.52228873547408
 10
352.8919604626524
 20
40.809774927219166
 10
352.78011392625945
 20
43.141553645112204
 10
352.67330690791215
 20
45.57929710303866
 10
352.55389393182276
 20
48.49455330751561
 10
352.4722052247464
 20
50.378422055887405
 10
352.34851869674293
 20
54.069891011453485
 10
352.248870114559
 20
56.49975338955118
 10
352.21388209208203
 20
58.47312660476746
 10
352.0916759292319
 20
62.106178923762485
 10
352.0537902814995
 20
64.61135004645469
 10
351.9855461696154
 20
67.02754549134825
 10
351.97557175460616
 20
67.43061012387368
 10
351.96412627306745
 20
69.64591216516112
 10
351.8604103720822
 20
75.03209925002312
 10
351.8547647857449
 20
75.89851064624682
 10
351.8392040813053
 20
77.54812758339664
 10
351.83285643515086
 20
78.1061046603931
 10
351.82874782012004
 20
80.02407047472892
 10
351.8231255737611
 20
80.70207679352524
 10
351.8217292687787
 20
80.92944278854354
 10
351.8340055353641
 20
83.85627372436105
 10
351.8324409333164
 20
85.40037340436794
 10
351.8466324177375
 20
86.08774611946535
 10
351.88202694667626
 20
92.10333796352735
 10
351.9627521321808
 20
96.24781752983034
 10
352.0053395380542
 20
99.10901975546847
 10
352.1067285217457
 20
102.93130859478639
  0
CIRCLE
  5
5E
330
17
100
AcDbEntity
  8
REFERENCE
100
AcDbCircle
 10
354.9530394000232
 20
10.0
 30
0.0
 40
1.0
  0
TEXT
  5
5F
330
17
100
AcDbEntity
  8
REFERENCE
100
AcDbText
 10
356.9530394000232
 20
12.0
 30
0.0
 40
2.0
  1
F28.1
 11
356.9530394000232
 21
12.0
 31
0.0
100
AcDbText
  0
CIRCLE
  5
60
330
17
100
AcDbEntity
  8
REFERENCE
100
AcDbCircle
 10
355.0026101766819
 20
154.39705516720812
 30
0.0
 40
1.0
  0
TEXT
  5
61
330
17
100
AcDbEntity
  8
REFERENCE
100
AcDbText
 10
357.0026101766819
 20
156.39705516720812
 30
0.0
 40
2.0
  1
F28.2
 11
357.0026101766819
 21
156.39705516720812
 31
0.0
100
AcDbText
  0
CIRCLE
  5
62
330
17
100
AcDbEntity
  8
REFERENCE
100
AcDbCircle
 10
407.7713421142777
 20
16.069821574541614
 30
0.0
 40
1.0
  0
TEXT
  5
63
330
17
100
AcDbEntity
  8
REFERENCE
100
AcDbText
 10
409.7713421142777
 20
18.069821574541614
 30
0.0
 40
2.0
  1
F28.3
 11
409.7713421142777
 21
18.069821574541614
 31
0.0
100
AcDbText
  0
CIRCLE
  5
64
330
17
100
AcDbEntity
  8
REFERENCE
100
AcDbCircle
 10
407.77134211427733
 20
148.53393401391816
 30
0.0
 40
1.0
  0
TEXT
  5
65
330
17
100
AcDbEntity
  8
REFERENCE
100
AcDbText
 10
409.77134211427733
 20
150.53393401391816
 30
0.0
 40
2.0
  1
F28.4
 11
409.77134211427733
 21
150.53393401391816
 31
0.0
100
AcDbText
  0
TEXT
  5
66
330
17
100
AcDbEntity
  8
LABEL
100
AcDbText
 10
351.8217292687787
 20
5.0
 30
0.0
 40
4.0
  1
F28 #1
100
AcDbText
  0
LWPOLYLINE
  5
67
330
17
100
AcDbEntity
  8
CUT
100
AcDbPolyline
 90
125
 70
1
 10
417.8277227711128
 20
82.31752384509834
 10
417.77949211298056
 20
78.84040248435954
 10
417.7736223603596
 20
72.5308597720926
 10
417.7713421142777
 20
71.92074487438022
 10
417.77206111653635
 20
71.80325924952808
 10
417.77835825843533
 20
71.51326579249053
 10
417.83393593595736
 20
66.3865124568434
 10
417.84634205557217
 20
65.71647229443548
 10
417.96842525797877
 20
60.63595423110585
 10
417.999541217104
 20
58.73178057695394
 10
418.0140508244886
 20
58.33868832750829
 10
418.06416852092786
 20
56.31913232852783
 10
418.28125625284173
 20
51.462350108578065
 10
418.3519979169466
 20
49.14160149380914
 10
418.4297529214114
 20
47.79189398105926
 10
418.685306893086
 20
42.54120061996142
 10
418.96120427939354
 20
38.21048871035555
 10
419.0514494951454
 20
37.02860060371159
 10
419.14782153406327
 20
35.579081515137645
 10
419.3961757046428
 20
32.34523377675541
 10
419.5493403739483
 20
30.41978299876148
 10
420.06841233017605
 20
24.90453614205757
 10
420.26190108859714
 20
22.85584396827911
 10
420.7108979956395
 20
18.78661935049675
 10
420.9472105293389
 20
16.41717412087445
 10
421.15065777908256
 20
14.814414978689394
 10
421.38974017794675
 20
12.928233803105922
 10
421.62113697204586
 20
10.974359496869269
 10
421.7010977507711
 20
10.325834844541577
 10
421.7424209354199
 20
10.0
 10
422.52773802761203
 20
10.125492282966347
 10
433.94072653552337
 20
11.997540598755265
 10
445.34864848149374
 20
14.000804864302626
 10
456.5917214180188
 20
16.12702625351926
 10
467.8036087740074
 20
18.390933284583124
 10
474.2693330181946
 20
19.748555515857987
 10
473.823470727027
 20
22.537244969153782
 10
473.4145529474474
 20
25.339248226779823
 10
473.08758042244443
 20
27.756206929047963
 10
472.7421992081328
 20
30.501030736420464
 10
472.2593879372723
 20
35.21503195484189
 10
472.1961316726817
 20
35.91545844288803
 10
472.12275417767205
 20
36.67777495836637
 10
471.8856957984225
 20
39.12835644632495
 10
471.76846675919484
 20
40.74228420529323
 10
471.3362635752078
 20
46.83689782043467
 10
471.03337257853843
 20
51.75472918777564
 10
470.9827066193083
 20
53.46988780267321
 10
470.965155283387
 20
53.912775441449234
 10
470.8134197099908
 20
57.87301702221503
 10
470.7885945206147
 20
58.68776128114488
 10
470.71240115419045
 20
61.54888187350512
 10
470.67677790272165
 20
63.03364227735877
 10
470.66676831296604
 20
63.77976412221677
 10
470.62291152751936
 20
65.45304324683978
 10
470.60244649785903
 20
68.1757182639987
 10
470.59150113036253
 20
69.10402842261934
 10
470.5872840282917
 20
70.08073250394747
 10
470.5778786956228
 20
71.8569729825285
 10
470.57704234450426
 20
72.2616354727506
 10
470.5771027235952
 20
72.45960902849623
 10
470.57703758094385
 20
72.51598010084238
 10
470.5769877109612
 20
72.54586285707967
 10
470.6018228787828
 20
77.34916393205965
 10
470.6030257942141
 20
77.98829042096108
 10
470.60890198777287
 20
78.4923570402027
 10
470.6204102422808
 20
79.62399565946278
 10
470.66189242622227
 20
82.56376870015787
 10
470.6554174893224
 20
83.22378406019271
 10
470.6688847891409
 20
84.09383585129356
 10
470.7484000282328
 20
87.48555894541646
 10
470.84716266208653
 20
90.93458553580395
 10
470.8627644814812
 20
91.52700594938389
 10
470.9287554772114
 20
93.22787942064814
 10
470.9829611752642
 20
94.66763227610217
 10
471.0066365823589
 20
95.32997688119316
 10
471.0741855596722
 20
96.86669180698195
 10
471.11804952344414
 20
97.81882490492312
 10
471.43672265536236
 20
103.91361138420638
 10
471.4737723534462
 20
104.60384884280325
 10
471.55808320580877
 20
106.0440804505907
 10
471.5738939303691
 20
106.25809352060116
 10
471.78738364161774
 20
109.44312586114002
 10
471.8598448270872
 20
110.6213634242248
 10
472.0046583669228
 20
112.46698954494325
 10
472.27037583518575
 20
115.79812212224212
 10
472.45409427127265
 20
117.89547690316402
 10
472.7777832232178
 20
121.22559866078399
 10
472.9030321834158
 20
122.52535834586608
 10
472.978894674147
 20
123.29996346064743
 10
473.1345098203124
 20
124.66699636177502
 10
473.5339320069992
 20
128.27188797556494
 10
473.80558683133916
 20
130.4666783292862
 10
473.95778189417854
 20
131.63989459012305
 10
474.2693330181943
 20
133.88129348196856
 10
465.97240694875825
 20
135.3212325029945
 10
453.1951300520707
 20
137.4583257250016
 10
439.61334153636295
 20
139.62807113494623
 10
426.02555516731366
 20
141.72125580351837
 10
421.8378316122106
 20
142.3439411905678
 10
421.23622683406563
 20
137.09116177640394
 10
420.8739319989109
 20
133.95077098121948
 10
420.586770222682
 20
131.12197350835442
 10
420.44281246584626
 20
129.72485846563583
 10
420.2223082515259
 20
127.3828693447019
 10
420.0464785511282
 20
125.50404868238493
 10
419.5474914074403
 20
119.30668120427305
 10
419.35898138422823
 20
117.04945019248281
 10
419.26966603366
 20
115.80740147262149
 10
419.00377588365745
 20
111.88011174522502
 10
418.9232511388742
 20
110.690466852697
 10
418.8953955395084
 20
110.19592634847179
 10
418.79514227072116
 20
108.57168910734894
 10
418.7173084600582
 20
107.12650535635251
 10
418.5610085192103
 20
104.32474558737572
 10
418.3971746483329
 20
100.9553065481144
 10
418.3551355933394
 20
100.08444551784683
 10
418.3414690922617
 20
99.76138935624225
 10
418.2651656912471
 20
97.96650869902096
 10
418.2513992579168
 20
97.59624267755376
 10
418.21253088723137
 20
96.6443060234803
 10
418.13616529168775
 20
94.54720580900998
 10
418.031230000899
 20
91.58875513636139
 10
417.8602413771995
 20
84.04572826946021
 10
417.8329746045963
 20
83.09493651668113
  0
CIRCLE
  5
68
330
17
100
AcDbEntity
  8
REFERENCE
100
AcDbCircle
 10
421.7424209354199
 20
10.0
 30
0.0
 40
1.0
  0
TEXT
  5
69
330
17
100
AcDbEntity
  8
REFERENCE
100
AcDbText
 10
423.7424209354199
 20
12.0
 30
0.0
 40
2.0
  1
F29.1
 11
423.7424209354199
 21
12.0
 31
0.0
100
AcDbText
  0
CIRCLE
  5
6A
330
17
100
AcDbEntity
  8
REFERENCE
100
AcDbCircle
 10
421.8378316122106
 20
142.3439411905678
 30
0.0
 40
1.0
  0
TEXT
  5
6B
330
17
100
AcDbEntity
  8
REFERENCE
100
AcDbText
 10
423.8378316122106
 20
144.3439411905678
 30
0.0
 40
2.0
  1
F29.2
 11
423.8378316122106
 21
144.3439411905678
 31
0.0
100
AcDbText
  0
CIRCLE
  5
6C
330
17
100
AcDbEntity
  8
REFERENCE
100
AcDbCircle
 10
474.2693330181946
 20
19.748555515857987
 30
0.0
 40
1.0
  0
TEXT
  5
6D
330
17
100
AcDbEntity
  8
REFERENCE
100
AcDbText
 10
476.2693330181946
 20
21.748555515857987
 30
0.0
 40
2.0
  1
F29.3
 11
476.2693330181946
 21
21.748555515857987
 31
0.0
100
AcDbText
  0
CIRCLE
  5
6E
330
17
100
AcDbEntity
  8
REFERENCE
100
AcDbCircle
 10
474.2693330181943
 20
133.88129348196856
 30
0.0
 40
1.0
  0
TEXT
  5
6F
330
17
100
AcDbEntity
  8
REFERENCE
100
AcDbText
 10
476.2693330181943
 20
135.88129348196856
 30
0.0
 40
2.0
  1
F29.4
 11
476.2693330181943
 21
135.88129348196856
 31
0.0
100
AcDbText
  0
TEXT
  5
70
330
17
100
AcDbEntity
  8
LABEL
100
AcDbText
 10
417.7713421142777
 20
5.0
 30
0.0
 40
4.0
  1
F29 #1
100
AcDbText
  0
LWPOLYLINE
  5
71
330
17
100
AcDbEntity
  8
CUT
100
AcDbPolyline
 90
49
 70
1
 10
562.6734193892175
 20
10.00040606486104
 10
560.4935237461683
 20
10.000366562966292
 10
558.3044960206877
 20
10.000325423817458
 10
556.1000608282786
 20
10.000284470885362
 10
553.8753813226645
 20
10.000243513444474
 10
551.6269699500134
 20
10.000203407835727
 10
549.3489827492111
 20
10.000162504418512
 10
547.0448060436661
 20
10.00012408560599
 10
544.71394640054
 20
10.000093284515373
 10
542.3559636866376
 20
10.00006577112515
 10
539.9711476044467
 20
10.000041946896175
 10
536.7515205896717
 20
10.000024747748085
 10
533.0793048888963
 20
10.00001153681984
 10
529.3612848175452
 20
10.000000313498987
 10
525.6087784138841
 20
10.0
 10
521.8388330612112
 20
10.000011940336577
 10
518.0646598924918
 20
10.00003089790755
 10
514.2998072655864
 20
10.000049338450225
 10
510.5583474867676
 20
10.000074854032192
 10
506.8546597002969
 20
10.000109552040897
 10
503.20321768887106
 20
10.000151012616982
 10
499.6183702754867
 20
10.00019386393734
 10
496.1131563513534
 20
10.000234662318775
 10
492.6988424405565
 20
10.000276630613314
 10
489.3985760905521
 20
10.000316790944169
 10
486.80308560997014
 20
10.000350441666427
 10
484.2693330181946
 20
10.000406086414273
 10
484.27176494929955
 20
140.00040608031367
 10
488.9799763378934
 20
140.00032283552733
 10
492.9788480009009
 20
140.00027359231407
 10
496.35714001617146
 20
140.00023568205197
 10
499.3993121667702
 20
140.0001967767779
 10
503.54811154060553
 20
140.0001481880224
 10
508.31866123209255
 20
140.00009733532798
 10
513.1680161603762
 20
140.0000586689938
 10
518.0643414148456
 20
140.0000309180963
 10
522.9764995858009
 20
140.0000100720102
 10
527.8748616844603
 20
140.000002126525
 10
532.7265449927634
 20
140.0000109568069
 10
537.5021678897361
 20
140.00003046276223
 10
541.7216450175559
 20
140.00006017986124
 10
545.4492817939926
 20
140.0001036560199
 10
548.746493939666
 20
140.00015301808915
 10
551.6684289982885
 20
140.000204224178
 10
554.2578359744199
 20
140.00025103648736
 10
556.5618811017388
 20
140.00029363698366
 10
558.8451047626459
 20
140.0003364505072
 10
560.7612696291295
 20
140.00037177312433
 10
562.671084294129
 20
140.00040608031367
  0
CIRCLE
  5
72
330
17
100
AcDbEntity
  8
REFERENCE
100
AcDbCircle
 10
562.671084294129
 20
140.00040608031367
 30
0.0
 40
1.0
  0
TEXT
  5
73
330
17
100
AcDbEntity
  8
REFERENCE
100
AcDbText
 10
564.671084294129
 20
142.00040608031367
 30
0.0
 40
2.0
  1
F26.1
 11
564.671084294129
 21
142.00040608031367
 31
0.0
100
AcDbText
  0
CIRCLE
  5
74
330
17
100
AcDbEntity
  8
REFERENCE
100
AcDbCircle
 10
484.27176494929955
 20
140.00040608031367
 30
0.0
 40
1.0
  0
TEXT
  5
75
330
17
100
AcDbEntity
  8
REFERENCE
100
AcDbText
 10
486.27176494929955
 20
142.00040608031367
 30
0.0
 40
2.0
  1
F26.2
 11
486.27176494929955
 21
142.00040608031367
 31
0.0
100
AcDbText
  0
CIRCLE
  5
76
330
17
100
AcDbEntity
  8
REFERENCE
100
AcDbCircle
 10
562.6734193892175
 20
10.00040606486104
 30
0.0
 40
1.0
  0
TEXT
  5
77
330
17
100
AcDbEntity
  8
REFERENCE
100
AcDbText
 10
564.6734193892175
 20
12.00040606486104
 30
0.0
 40
2.0
  1
F26.3
 11
564.6734193892175
 21
12.00040606486104
 31
0.0
100
AcDbText
  0
CIRCLE
  5
78
330
17
100
AcDbEntity
  8
REFERENCE
100
AcDbCircle
 10
484.2693330181946
 20
10.000406086414273
 30
0.0
 40
1.0
  0
TEXT
  5
79
330
17
100
AcDbEntity
  8
REFERENCE
100
AcDbText
 10
486.2693330181946
 20
12.000406086414273
 30
0.0
 40
2.0
  1
F26.4
 11
486.2693330181946
 21
12.000406086414273
 31
0.0
100
AcDbText
  0
TEXT
  5
7A
330
17
100
AcDbEntity
  8
LABEL
100
AcDbText
 10
484.2693330181946
 20
5.0
 30
0.0
 40
4.0
  1
F26 #1
100
AcDbText
  0
LWPOLYLINE
  5
7B
330
17
100
AcDbEntity
  8
CUT
100
AcDbPolyline
 90
52
 70
1
 10
651.0776075021483
 20
10.000200824411174
 10
648.8977118580502
 20
10.000200034311217
 10
646.7086841311344
 20
10.00019757093165
 10
644.5042489370119
 20
10.000191770087785
 10
642.2795694296783
 20
10.000182703743693
 10
640.0311580555596
 20
10.000172286410475
 10
637.7531708534568
 20
10.000162394919283
 10
635.4489941467136
 20
10.000152441708227
 10
633.1181345041286
 20
10.0001414479591
 10
630.7601517906418
 20
10.000129750745035
 10
628.375335710086
 20
10.00011935886797
 10
625.1557086969368
 20
10.000106848105933
 10
621.483492997906
 20
10.000091142041631
 10
617.7654729296511
 20
10.000072490565344
 10
614.0129915794064
 20
10.00005016792366
 10
610.2430544363187
 20
10.000032556932737
 10
606.4690793786194
 20
10.000020108102074
 10
602.7046362178742
 20
10.000006602502301
 10
598.9636973371197
 20
10.0
 10
595.2604441470197
 20
10.000003918020647
 10
591.6090572676998
 20
10.000015124476942
 10
588.0234956545207
 20
10.000026867535318
 10
584.5172505611343
 20
10.000048159210277
 10
581.1029288109579
 20
10.000086200491701
 10
577.8026624618519
 20
10.000127529201103
 10
575.207171981225
 20
10.000156608977765
 10
572.6734193892175
 20
10.000200891721128
 10
572.6752271760191
 20
140.00020087908902
 10
575.3499229671962
 20
140.00015554933904
 10
578.012563419648
 20
140.00012636557523
 10
581.9536958470857
 20
140.00007814708772
 10
586.8136118828437
 20
140.00003581613296
 10
591.6912202500328
 20
140.00001646069595
 10
596.5978691815752
 20
140.00000417886423
 10
601.4819085610286
 20
140.00000592547377
 10
606.3435130423151
 20
140.00001970208046
 10
611.1991509648922
 20
140.00003816973467
 10
615.5229380957591
 20
140.00006106512808
 10
618.7840637142644
 20
140.00007904551578
 10
622.0567230698233
 20
140.00009430533717
 10
625.3262491064205
 20
140.00010816089045
 10
628.5833821090506
 20
140.00012044366048
 10
631.4714987513483
 20
140.00013382088508
 10
633.6395262729455
 20
140.00014444335807
 10
635.814726455935
 20
140.0001542734542
 10
638.0015711680994
 20
140.0001639473468
 10
640.1921964033897
 20
140.00017318219923
 10
642.3736913915423
 20
140.00018314550783
 10
644.5436746255039
 20
140.00019212487996
 10
646.710391023219
 20
140.00019766399777
 10
648.8842766377462
 20
140.00020007781688
 10
651.0775624363711
 20
140.0002008790893
  0
CIRCLE
  5
7C
330
17
100
AcDbEntity
  8
REFERENCE
100
AcDbCircle
 10
572.6734193892175
 20
10.000200891721128
 30
0.0
 40
1.0
  0
TEXT
  5
7D
330
17
100
AcDbEntity
  8
REFERENCE
100
AcDbText
 10
574.6734193892175
 20
12.000200891721128
 30
0.0
 40
2.0
  1
F25.1
 11
574.6734193892175
 21
12.000200891721128
 31
0.0
100
AcDbText
  0
CIRCLE
  5
7E
330
17
100
AcDbEntity
  8
REFERENCE
100
AcDbCircle
 10
651.0776075021483
 20
10.000200824411174
 30
0.0
 40
1.0
  0
TEXT
  5
7F
330
17
100
AcDbEntity
  8
REFERENCE
100
AcDbText
 10
653.0776075021483
 20
12.000200824411174
 30
0.0
 40
2.0
  1
F25.2
 11
653.0776075021483
 21
12.000200824411174
 31
0.0
100
AcDbText
  0
CIRCLE
  5
80
330
17
100
AcDbEntity
  8
REFERENCE
100
AcDbCircle
 10
572.6752271760191
 20
140.00020087908902
 30
0.0
 40
1.0
  0
TEXT
  5
81
330
17
100
AcDbEntity
  8
REFERENCE
100
AcDbText
 10
574.6752271760191
 20
142.00020087908902
 30
0.0
 40
2.0
  1
F25.3
 11
574.6752271760191
 21
142.00020087908902
 31
0.0
100
AcDbText
  0
CIRCLE
  5
82
330
17
100
AcDbEntity
  8
REFERENCE
100
AcDbCircle
 10
651.0775624363711
 20
140.0002008790893
 30
0.0
 40
1.0
  0
TEXT
  5
83
330
17
100
AcDbEntity
  8
REFERENCE
100
AcDbText
 10
653.0775624363711
 20
142.0002008790893
 30
0.0
 40
2.0
  1
F25.4
 11
653.0775624363711
 21
142.0002008790893
 31
0.0
100
AcDbText
  0
TEXT
  5
84
330
17
100
AcDbEntity
  8
LABEL
100
AcDbText
 10
572.6734193892175
 20
5.0
 30
0.0
 40
4.0
  1
F25 #1
100
AcDbText
  0
LWPOLYLINE
  5
85
330
17
100
AcDbEntity
  8
CUT
100
AcDbPolyline
 90
122
 70
1
 10
718.0476427235257
 20
112.70358382604626
 10
717.3569458368139
 20
109.18073170108713
 10
716.9461342222286
 20
107.07513074358188
 10
716.6805781300587
 20
105.6506285167592
 10
716.4219436777618
 20
104.12829700742367
 10
716.1776586067227
 20
102.6004339749322
 10
715.9548467831432
 20
101.06572600001441
 10
715.750013005937
 20
99.52407882288132
 10
715.5545314626993
 20
97.97612005053716
 10
715.3766501889144
 20
96.41977343061097
 10
715.2144461044019
 20
94.85488100382756
 10
715.0574081144607
 20
93.28193151229995
 10
714.907481676054
 20
91.70097272516077
 10
714.7666532028785
 20
90.11179105843937
 10
714.6359060181793
 20
88.51458925692877
 10
714.5178987156286
 20
86.90901946395678
 10
714.4068893181758
 20
85.29489408953667
 10
714.3052452028401
 20
83.67242356441508
 10
714.2121421050733
 20
82.04149813145257
 10
714.125018926845
 20
80.40331223955842
 10
714.0497181690536
 20
78.75781855341191
 10
713.9754407147524
 20
77.10644126193166
 10
713.9140288934368
 20
75.44936605704997
 10
713.8688347242762
 20
73.78703632646105
 10
713.832417254893
 20
72.12116575703175
 10
713.7978175967668
 20
70.4527127115576
 10
713.7695031328523
 20
68.78286826882507
 10
713.7489397688055
 20
67.11218687553068
 10
713.7303155767203
 20
64.8272622841582
 10
713.7378277199123
 20
62.53207967408902
 10
713.7448866548494
 20
61.08081448646473
 10
713.7631371417044
 20
59.35921498003498
 10
713.794820417428
 20
57.83712084213929
 10
713.8372958154077
 20
56.146921740954774
 10
713.8827134539646
 20
54.522846561480094
 10
713.9325502923404
 20
53.239777910371174
 10
713.9889176908346
 20
51.907390489052084
 10
714.0559593555852
 20
50.53460264145628
 10
714.1328247245168
 20
49.12919597111799
 10
714.2226648694804
 20
47.69918550988955
 10
714.3187491217935
 20
46.251004247520086
 10
714.4285999989241
 20
44.792054611074725
 10
714.5521563912151
 20
43.328034053090306
 10
714.6929180612229
 20
41.865204424174486
 10
714.8481425127346
 20
40.41029224634089
 10
715.0143973750937
 20
38.96873128385862
 10
715.2203689565057
 20
37.390827097807495
 10
715.4682100476372
 20
35.67525827111463
 10
715.7391135893374
 20
34.01016789142024
 10
716.0088999508639
 20
32.49664994123124
 10
716.3168482830453
 20
30.88925330654665
 10
716.6334286604
 20
29.371379938974215
 10
717.0690180131787
 20
27.460139569687936
 10
718.0476427235255
 20
23.29627979067773
 10
707.7151216515496
 20
20.482689881481015
 10
697.3460804678843
 20
17.72854600036201
 10
686.9493575077548
 20
15.076604554504568
 10
676.5298970993608
 20
12.542411950523984
 10
665.6167903739569
 20
10.0
 10
665.0992745331256
 20
12.777629846939696
 10
664.6155401076228
 20
15.56715723848438
 10
664.2255985386611
 20
17.97472367163258
 10
663.8093517298304
 20
20.710542125803528
 10
663.2053159250275
 20
25.411984188289168
 10
663.1119834981898
 20
26.108902174706394
 10
663.0351564010431
 20
26.870831217491386
 10
662.7566958340192
 20
29.315787205532473
 10
662.6061673511897
 20
30.926476839603907
 10
662.0648751111127
 20
37.01051663831539
 10
661.7413428737161
 20
41.928199188942415
 10
661.6137266090869
 20
43.63987118428451
 10
661.5904663459053
 20
44.08266202634664
 10
661.3994174295063
 20
48.043252615949264
 10
661.3712177984486
 20
48.85829765346026
 10
661.268245114096
 20
51.71917578654837
 10
661.2097705776002
 20
53.20239180897011
 10
661.1893710343846
 20
53.947385584513654
 10
661.17469125093
 20
55.62030287936939
 10
661.1130109017388
 20
58.34227722023754
 10
661.0966041776414
 20
59.272066931990224
 10
661.084270649681
 20
60.25012510594747
 10
661.0776075021483
 20
62.02653677375795
 10
661.0827277744014
 20
62.43162702626192
 10
661.0802007004394
 20
62.629953180154594
 10
661.0785318971049
 20
62.68640921789898
 10
661.0780582243402
 20
62.71634608812107
 10
661.1054561529597
 20
67.52892890994245
 10
661.1143442378285
 20
68.16840586136638
 10
661.1318365480729
 20
68.67217802310302
 10
661.1541095713021
 20
69.8035777607179
 10
661.2026197233596
 20
72.73961945377162
 10
661.21477364835
 20
73.39885999673004
 10
661.2427417865384
 20
74.26786687170717
 10
661.3440451644503
 20
77.65613165235466
 10
661.4796692966087
 20
81.09858269967793
 10
661.5083731739322
 20
81.68969162465349
 10
661.5962861452181
 20
83.38817356445732
 10
661.6670246539354
 20
84.82602664072789
 10
661.7007939365487
 20
85.48771064084985
 10
661.786279312538
 20
87.02284090302962
 10
661.845332847552
 20
87.97372360074627
 10
662.2587581758776
 20
94.06260836626389
 10
662.3096595104325
 20
94.75192832048388
 10
662.4256960340732
 20
96.1898798533238
 10
662.4413284057042
 20
96.40380777471802
 10
662.7140100741232
 20
99.58145723805289
 10
662.8170834182648
 20
100.75650670691815
 10
663.006803870593
 20
102.59755617986846
 10
663.3421473229561
 20
105.92150675179764
 10
663.5734890554306
 20
108.01389206932042
 10
663.980508083521
 20
111.33396558077531
 10
664.1408770824837
 20
112.63014230345885
 10
664.2455143928875
 20
113.40155025375783
 10
664.4470713743746
 20
114.76188784783686
 10
664.9625229323841
 20
118.35159448986809
 10
665.3085467659563
 20
120.53683815091033
 10
665.495599598817
 20
121.7053523252716
 10
665.8751282706879
 20
123.93691274472918
 10
670.3072678982326
 20
123.03602568821657
 10
681.6408937583477
 20
120.70576130232438
 10
692.9589432883363
 20
118.28673871265514
 10
705.5199873270201
 20
115.53623879887203
  0
CIRCLE
  5
86
330
17
100
AcDbEntity
  8
REFERENCE
100
AcDbCircle
 10
665.6167903739569
 20
10.0
 30
0.0
 40
1.0
  0
TEXT
  5
87
330
17
100
AcDbEntity
  8
REFERENCE
100
AcDbText
 10
667.6167903739569
 20
12.0
 30
0.0
 40
2.0
  1
F30.1
 11
667.6167903739569
 21
12.0
 31
0.0
100
AcDbText
  0
CIRCLE
  5
88
330
17
100
AcDbEntity
  8
REFERENCE
100
AcDbCircle
 10
665.8751282706879
 20
123.93691274472918
 30
0.0
 40
1.0
  0
TEXT
  5
89
330
17
100
AcDbEntity
  8
REFERENCE
100
AcDbText
 10
667.8751282706879
 20
125.93691274472918
 30
0.0
 40
2.0
  1
F30.2
 11
667.8751282706879
 21
125.93691274472918
 31
0.0
100
AcDbText
  0
CIRCLE
  5
8A
330
17
100
AcDbEntity
  8
REFERENCE
100
AcDbCircle
 10
718.0476427235255
 20
23.29627979067773
 30
0.0
 40
1.0
  0
TEXT
  5
8B
330
17
100
AcDbEntity
  8
REFERENCE
100
AcDbText
 10
720.0476427235255
 20
25.29627979067773
 30
0.0
 40
2.0
  1
F30.3
 11
720.0476427235255
 21
25.29627979067773
 31
0.0
100
AcDbText
  0
CIRCLE
  5
8C
330
17
100
AcDbEntity
  8
REFERENCE
100
AcDbCircle
 10
718.0476427235257
 20
112.70358382604626
 30
0.0
 40
1.0
  0
TEXT
  5
8D
330
17
100
AcDbEntity
  8
REFERENCE
100
AcDbText
 10
720.0476427235257
 20
114.70358382604626
 30
0.0
 40
2.0
  1
F30.4
 11
720.0476427235257
 21
114.70358382604626
 31
0.0
100
AcDbText
  0
TEXT
  5
8E
330
17
100
AcDbEntity
  8
LABEL
100
AcDbText
 10
661.0776075021483
 20
5.0
 30
0.0
 40
4.0
  1
F30 #1
100
AcDbText
  0
ENDSEC
  0
SECTION
  2
OBJECTS
  0
DICTIONARY
  5
A
330
0
100
AcDbDictionary
281
1
  3
ACAD_COLOR
350
B
  3
ACAD_GROUP
350
C
  3
ACAD_LAYOUT
350
D
  3
ACAD_MATERIAL
350
E
  3
ACAD_MLEADERSTYLE
350
F
  3
ACAD_MLINESTYLE
350
10
  3
ACAD_PLOTSETTINGS
350
11
  3
ACAD_PLOTSTYLENAME
350
12
  3
ACAD_SCALELIST
350
14
  3
ACAD_TABLESTYLE
350
15
  3
ACAD_VISUALSTYLE
350
16
  3
EZDXF_META
350
2D
  0
DICTIONARY
  5
B
330
A
100
AcDbDictionary
281
1
  0
DICTIONARY
  5
C
330
A
100
AcDbDictionary
281
1
  0
DICTIONARY
  5
D
330
A
100
AcDbDictionary
281
1
  3
Model
350
1A
  3
Layout1
350
1E
  0
DICTIONARY
  5
E
330
A
100
AcDbDictionary
281
1
  3
ByBlock
350
1F
  3
ByLayer
350
20
  3
Global
350
21
  0
DICTIONARY
  5
F
330
A
100
AcDbDictionary
281
1
  3
Standard
350
2C
  0
DICTIONARY
  5
10
330
A
100
AcDbDictionary
281
1
  3
Standard
350
22
  0
DICTIONARY
  5
11
330
A
100
AcDbDictionary
281
1
  0
ACDBDICTIONARYWDFLT
  5
12
330
A
100
AcDbDictionary
281
1
  3
Normal
350
13
100
AcDbDictionaryWithDefault
340
13
  0
ACDBPLACEHOLDER
  5
13
330
12
  0
DICTIONARY
  5
14
330
A
100
AcDbDictionary
281
1
  0
DICTIONARY
  5
15
330
A
100
AcDbDictionary
281
1
  0
DICTIONARY
  5
16
330
A
100
AcDbDictionary
281
1
  0
LAYOUT
  5
1A
330
D
100
AcDbPlotSettings
  1

  4
A3
  6

 40
7.5
 41
20.0
 42
7.5
 43
20.0
 44
420.0
 45
297.0
 46
0.0
 47
0.0
 48
0.0
 49
0.0
140
0.0
141
0.0
142
1.0
143
1.0
 70
1024
 72
1
 73
0
 74
5
  7

 75
16
 76
0
 77
2
 78
300
147
1.0
148
0.0
149
0.0
100
AcDbLayout
  1
Model
 70
1
 71
0
 10
0.0
 20
0.0
 11
420.0
 21
297.0
 12
0.0
 22
0.0
 32
0.0
 14
1e+20
 24
1e+20
 34
1e+20
 15
-1e+20
 25
-1e+20
 35
-1e+20
146
0.0
 13
0.0
 23
0.0
 33
0.0
 16
1.0
 26
0.0
 36
0.0
 17
0.0
 27
1.0
 37
0.0
 76
1
330
17
  0
LAYOUT
  5
1E
330
D
100
AcDbPlotSettings
  1

  4
A3
  6

 40
7.5
 41
20.0
 42
7.5
 43
20.0
 44
420.0
 45
297.0
 46
0.0
 47
0.0
 48
0.0
 49
0.0
140
0.0
141
0.0
142
1.0
143
1.0
 70
0
 72
1
 73
0
 74
5
  7

 75
16
 76
0
 77
2
 78
300
147
1.0
148
0.0
149
0.0
100
AcDbLayout
  1
Layout1
 70
1
 71
1
 10
0.0
 20
0.0
 11
420.0
 21
297.0
 12
0.0
 22
0.0
 32
0.0
 14
1e+20
 24
1e+20
 34
1e+20
 15
-1e+20
 25
-1e+20
 35
-1e+20
146
0.0
 13
0.0
 23
0.0
 33
0.0
 16
1.0
 26
0.0
 36
0.0
 17
0.0
 27
1.0
 37
0.0
 76
1
330
1B
  0
MATERIAL
  5
1F
102
{ACAD_REACTORS
330
E
102
}
330
E
100
AcDbMaterial
  1
ByBlock
  2

 70
0
 40
1.0
 71
1
 41
1.0
 91
-1023410177
 42
1.0
 72
1
  3

 73
1
 74
1
 75
1
 44
0.5
 73
0
 45
1.0
 46
1.0
 77
1
  4

 78
1
 79
1
170
1
 48
1.0
171
1
  6

172
1
173
1
174
1
140
1.0
141
1.0
175
1
  7

176
1
177
1
178
1
143
1.0
179
1
  8

270
1
271
1
272
1
145
1.0
146
1.0
273
1
  9

274
1
275
1
276
1
 42
1.0
 72
1
  3

 73
1
 74
1
 75
1
 94
63
  0
MATERIAL
  5
20
102
{ACAD_REACTORS
330
E
102
}
330
E
100
AcDbMaterial
  1
ByLayer
  2

 70
0
 40
1.0
 71
1
 41
1.0
 91
-1023410177
 42
1.0
 72
1
  3

 73
1
 74
1
 75
1
 44
0.5
 73
0
 45
1.0
 46
1.0
 77
1
  4

 78
1
 79
1
170
1
 48
1.0
171
1
  6

172
1
173
1
174
1
140
1.0
141
1.0
175
1
  7

176
1
177
1
178
1
143
1.0
179
1
  8

270
1
271
1
272
1
145
1.0
146
1.0
273
1
  9

274
1
275
1
276
1
 42
1.0
 72
1
  3

 73
1
 74
1
 75
1
 94
63
  0
MATERIAL
  5
21
102
{ACAD_REACTORS
330
E
102
}
330
E
100
AcDbMaterial
  1
Global
  2

 70
0
 40
1.0
 71
1
 41
1.0
 91
-1023410177
 42
1.0
 72
1
  3

 73
1
 74
1
 75
1
 44
0.5
 73
0
 45
1.0
 46
1.0
 77
1
  4

 78
1
 79
1
170
1
 48
1.0
171
1
  6

172
1
173
1
174
1
140
1.0
141
1.0
175
1
  7

176
1
177
1
178
1
143
1.0
179
1
  8

270
1
271
1
272
1
145
1.0
146
1.0
273
1
  9

274
1
275
1
276
1
 42
1.0
 72
1
  3

 73
1
 74
1
 75
1
 94
63
  0
MLINESTYLE
  5
22
102
{ACAD_REACTORS
330
10
102
}
330
10
100
AcDbMlineStyle
  2
Standard
 70
0
  3

 62
256
 51
90.0
 52
90.0
 71
2
 49
0.5
 62
256
  6
BYLAYER
 49
-0.5
 62
256
  6
BYLAYER
  0
MLEADERSTYLE
  5
2C
102
{ACAD_REACTORS
330
F
102
}
330
F
100
AcDbMLeaderStyle
179
2
170
2
171
1
172
0
 90
2
 40
0.0
 41
0.0
173
1
 91
-1056964608
 92
-2
290
1
 42
2.0
291
1
 43
8.0
  3
Standard
 44
4.0
300

342
29
174
1
175
1
176
0
178
1
 93
-1056964608
 45
4.0
292
0
297
0
 46
4.0
 94
-1056964608
 47
1.0
 49
1.0
140
1.0
294
1
141
0.0
177
0
142
1.0
295
0
296
0
143
3.75
271
0
272
9
273
9
  0
DICTIONARY
  5
2D
330
A
100
AcDbDictionary
280
1
281
1
  3
CREATED_BY_EZDXF
350
2E
  3
WRITTEN_BY_EZDXF
350
91
  0
DICTIONARYVAR
  5
2E
330
2D
100
DictionaryVariables
280
0
  1
1.4.4 @ 2026-09-19T12:13:22.398996+00:00
  0
DICTIONARYVAR
  5
91
330
2D
100
DictionaryVariables
280
0
  1
1.4.4 @ 2026-09-19T12:13:22.466604+00:00
  0
ENDSEC
  0
EOF
