  0
SECTION
  2
HEADER
  9
$ACADVER
  1
AC1024
  9
$ACADMAINTVER
 70
6
  9
$DWGCODEPAGE
  3
ANSI_1252
  9
$LASTSAVEDBY
  1
ezdxf
  9
$INSBASE
 10
0.0
 20
0.0
 30
0.0
  9
$EXTMIN
 10
1e+20
 20
1e+20
 30
1e+20
  9
$EXTMAX
 10
-1e+20
 20
-1e+20
 30
-1e+20
  9
$LIMMIN
 10
0.0
 20
0.0
  9
$LIMMAX
 10
420.0
 20
297.0
  9
$ORTHOMODE
 70
0
  9
$REGENMODE
 70
1
  9
$FILLMODE
 70
1
  9
$QTEXTMODE
 70
0
  9
$MIRRTEXT
 70
1
  9
$LTSCALE
 40
1.0
  9
$ATTMODE
 70
1
  9
$TEXTSIZE
 40
2.5
  9
$TRACEWID
 40
1.0
  9
$TEXTSTYLE
  7
Standard
  9
$CLAYER
  8
0
  9
$CELTYPE
  6
ByLayer
  9
$CECOLOR
 62
256
  9
$CELTSCALE
 40
1.0
  9
$DISPSILH
 70
0
  9
$DIMSCALE
 40
1.0
  9
$DIMASZ
 40
2.5
  9
$DIMEXO
 40
0.625
  9
$DIMDLI
 40
3.75
  9
$DIMRND
 40
0.0
  9
$DIMDLE
 40
0.0
  9
$DIMEXE
 40
1.25
  9
$DIMTP
 40
0.0
  9
$DIMTM
 40
0.0
  9
$DIMTXT
 40
2.5
  9
$DIMCEN
 40
2.5
  9
$DIMTSZ
 40
0.0
  9
$DIMTOL
 70
0
  9
$DIMLIM
 70
0
  9
$DIMTIH
 70
0
  9
$DIMTOH
 70
0
  9
$DIMSE1
 70
0
  9
$DIMSE2
 70
0
  9
$DIMTAD
 70
1
  9
$DIMZIN
 70
8
  9
$DIMBLK
  1

  9
$DIMASO
 70
1
  9
$DIMSHO
 70
1
  9
$DIMPOST
  1

  9
$DIMAPOST
  1

  9
$DIMALT
 70
0
  9
$DIMALTD
 70
3
  9
$DIMALTF
 40
0.03937007874
  9
$DIMLFAC
 40
1.0
  9
$DIMTOFL
 70
1
  9
$DIMTVP
 40
0.0
  9
$DIMTIX
 70
0
  9
$DIMSOXD
 70
0
  9
$DIMSAH
 70
0
  9
$DIMBLK1
  1

  9
$DIMBLK2
  1

  9
$DIMSTYLE
  2
ISO-25
  9
$DIMCLRD
 70
0
  9
$DIMCLRE
 70
0
  9
$DIMCLRT
 70
0
  9
$DIMTFAC
 40
1.0
  9
$DIMGAP
 40
0.625
  9
$DIMJUST
 70
0
  9
$DIMSD1
 70
0
  9
$DIMSD2
 70
0
  9
$DIMTOLJ
 70
0
  9
$DIMTZIN
 70
8
  9
$DIMALTZ
 70
0
  9
$DIMALTTZ
 70
0
  9
$DIMUPT
 70
0
  9
$DIMDEC
 70
2
  9
$DIMTDEC
 70
2
  9
$DIMALTU
 70
2
  9
$DIMALTTD
 70
3
  9
$DIMTXSTY
  7
Standard
  9
$DIMAUNIT
 70
0
  9
$DIMADEC
 70
0
  9
$DIMALTRND
 40
0.0
  9
$DIMAZIN
 70
0
  9
$DIMDSEP
 70
44
  9
$DIMATFIT
 70
3
  9
$DIMFRAC
 70
0
  9
$DIMLDRBLK
  1

  9
$DIMLUNIT
 70
2
  9
$DIMLWD
 70
-2
  9
$DIMLWE
 70
-2
  9
$DIMTMOVE
 70
0
  9
$DIMFXL
 40
1.0
  9
$DIMFXLON
 70
0
  9
$DIMJOGANG
 40
0.785398163397
  9
$DIMTFILL
 70
0
  9
$DIMTFILLCLR
 70
0
  9
$DIMARCSYM
 70
0
  9
$DIMLTYPE
  6

  9
$DIMLTEX1
  6

  9
$DIMLTEX2
  6

  9
$DIMTXTDIRECTION
 70
0
  9
$LUNITS
 70
2
  9
$LUPREC
 70
4
  9
$SKETCHINC
 40
1.0
  9
$FILLETRAD
 40
10.0
  9
$AUNITS
 70
0
  9
$AUPREC
 70
2
  9
$MENU
  1
.
  9
$ELEVATION
 40
0.0
  9
$PELEVATION
 40
0.0
  9
$THICKNESS
 40
0.0
  9
$LIMCHECK
 70
0
  9
$CHAMFERA
 40
0.0
  9
$CHAMFERB
 40
0.0
  9
$CHAMFERC
 40
0.0
  9
$CHAMFERD
 40
0.0
  9
$SKPOLY
 70
0
  9
$TDCREATE
 40
2461304.7718287036
  9
$TDUCREATE
 40
2458532.153996898
  9
$TDUPDATE
 40
2461304.7718287036
  9
$TDUUPDATE
 40
2458532.1544311
  9
$TDINDWG
 40
0.0
  9
$TDUSRTIMER
 40
0.0
  9
$USRTIMER
 70
1
  9
$ANGBASE
 50
0.0
  9
$ANGDIR
 70
0
  9
$PDMODE
 70
0
  9
$PDSIZE
 40
0.0
  9
$PLINEWID
 40
0.0
  9
$SPLFRAME
 70
0
  9
$SPLINETYPE
 70
6
  9
$SPLINESEGS
 70
8
  9
$HANDSEED
  5
8E
  9
$SURFTAB1
 70
6
  9
$SURFTAB2
 70
6
  9
$SURFTYPE
 70
6
  9
$SURFU
 70
6
  9
$SURFV
 70
6
  9
$UCSBASE
  2

  9
$UCSNAME
  2

  9
$UCSORG
 10
0.0
 20
0.0
 30
0.0
  9
$UCSXDIR
 10
1.0
 20
0.0
 30
0.0
  9
$UCSYDIR
 10
0.0
 20
1.0
 30
0.0
  9
$UCSORTHOREF
  2

  9
$UCSORTHOVIEW
 70
0
  9
$UCSORGTOP
 10
0.0
 20
0.0
 30
0.0
  9
$UCSORGBOTTOM
 10
0.0
 20
0.0
 30
0.0
  9
$UCSORGLEFT
 10
0.0
 20
0.0
 30
0.0
  9
$UCSORGRIGHT
 10
0.0
 20
0.0
 30
0.0
  9
$UCSORGFRONT
 10
0.0
 20
0.0
 30
0.0
  9
$UCSORGBACK
 10
0.0
 20
0.0
 30
0.0
  9
$PUCSBASE
  2

  9
$PUCSNAME
  2

  9
$PUCSORG
 10
0.0
 20
0.0
 30
0.0
  9
$PUCSXDIR
 10
1.0
 20
0.0
 30
0.0
  9
$PUCSYDIR
 10
0.0
 20
1.0
 30
0.0
  9
$PUCSORTHOREF
  2

  9
$PUCSORTHOVIEW
 70
0
  9
$PUCSORGTOP
 10
0.0
 20
0.0
 30
0.0
  9
$PUCSORGBOTTOM
 10
0.0
 20
0.0
 30
0.0
  9
$PUCSORGLEFT
 10
0.0
 20
0.0
 30
0.0
  9
$PUCSORGRIGHT
 10
0.0
 20
0.0
 30
0.0
  9
$PUCSORGFRONT
 10
0.0
 20
0.0
 30
0.0
  9
$PUCSORGBACK
 10
0.0
 20
0.0
 30
0.0
  9
$USERI1
 70
0
  9
$USERI2
 70
0
  9
$USERI3
 70
0
  9
$USERI4
 70
0
  9
$USERI5
 70
0
  9
$USERR1
 40
0.0
  9
$USERR2
 40
0.0
  9
$USERR3
 40
0.0
  9
$USERR4
 40
0.0
  9
$USERR5
 40
0.0
  9
$WORLDVIEW
 70
1
  9
$SHADEDGE
 70
3
  9
$SHADEDIF
 70
70
  9
$TILEMODE
 70
1
  9
$MAXACTVP
 70
64
  9
$PINSBASE
 10
0.0
 20
0.0
 30
0.0
  9
$PLIMCHECK
 70
0
  9
$PEXTMIN
 10
1e+20
 20
1e+20
 30
1e+20
  9
$PEXTMAX
 10
-1e+20
 20
-1e+20
 30
-1e+20
  9
$PLIMMIN
 10
0.0
 20
0.0
  9
$PLIMMAX
 10
420.0
 20
297.0
  9
$UNITMODE
 70
0
  9
$VISRETAIN
 70
1
  9
$PLINEGEN
 70
0
  9
$PSLTSCALE
 70
1
  9
$TREEDEPTH
 70
3020
  9
$CMLSTYLE
  2
Standard
  9
$CMLJUST
 70
0
  9
$CMLSCALE
 40
20.0
  9
$PROXYGRAPHICS
 70
1
  9
$MEASUREMENT
 70
1
  9
$CELWEIGHT
370
-1
  9
$ENDCAPS
280
0
  9
$JOINSTYLE
280
0
  9
$LWDISPLAY
290
0
  9
$INSUNITS
 70
4
  9
$HYPERLINKBASE
  1

  9
$STYLESHEET
  1

  9
$XEDIT
290
1
  9
$CEPSNTYPE
380
0
  9
$PSTYLEMODE
290
1
  9
$FINGERPRINTGUID
  2
{F2268E03-857A-4AD4-9636-7491BB53F2A4}
  9
$VERSIONGUID
  2
{B6133CB9-E6FB-40AA-8B86-8F4A05A5C57A}
  9
$EXTNAMES
290
1
  9
$PSVPSCALE
 40
0.0
  9
$OLESTARTUP
290
0
  9
$SORTENTS
280
127
  9
$INDEXCTL
280
0
  9
$HIDETEXT
280
1
  9
$XCLIPFRAME
280
1
  9
$HALOGAP
280
0
  9
$OBSCOLOR
 70
257
  9
$OBSLTYPE
280
0
  9
$INTERSECTIONDISPLAY
280
0
  9
$INTERSECTIONCOLOR
 70
257
  9
$DIMASSOC
280
2
  9
$PROJECTNAME
  1

  9
$CAMERADISPLAY
290
0
  9
$LENSLENGTH
 40
50.0
  9
$CAMERAHEIGHT
 40
0.0
  9
$STEPSPERSEC
 40
24.0
  9
$STEPSIZE
 40
100.0
  9
$3DDWFPREC
 40
2.0
  9
$PSOLWIDTH
 40
0.005
  9
$PSOLHEIGHT
 40
0.08
  9
$LOFTANG1
 40
1.570796326795
  9
$LOFTANG2
 40
1.570796326795
  9
$LOFTMAG1
 40
0.0
  9
$LOFTMAG2
 40
0.0
  9
$LOFTPARAM
 70
7
  9
$LOFTNORMALS
280
1
  9
$LATITUDE
 40
37.795
  9
$LONGITUDE
 40
-122.394
  9
$NORTHDIRECTION
 40
0.0
  9
$TIMEZONE
 70
-8000
  9
$LIGHTGLYPHDISPLAY
280
1
  9
$TILEMODELIGHTSYNCH
280
1
  9
$CMATERIAL
347
20
  9
$SOLIDHIST
280
0
  9
$SHOWHIST
280
1
  9
$DWFFRAME
280
2
  9
$DGNFRAME
280
2
  9
$REALWORLDSCALE
290
1
  9
$INTERFERECOLOR
 62
256
  9
$CSHADOW
280
0
  9
$SHADOWPLANELOCATION
 40
0.0
  0
ENDSEC
  0
SECTION
  2
CLASSES
  0
CLASS
  1
ACDBDICTIONARYWDFLT
  2
AcDbDictionaryWithDefault
  3
ObjectDBX Classes
 90
0
 91
0
280
0
281
0
  0
CLASS
  1
SUN
  2
AcDbSun
  3
SCENEOE
 90
1153
 91
0
280
0
281
0
  0
CLASS
  1
VISUALSTYLE
  2
AcDbVisualStyle
  3
ObjectDBX Classes
 90
4095
 91
0
280
0
281
0
  0
CLASS
  1
MATERIAL
  2
AcDbMaterial
  3
ObjectDBX Classes
 90
1153
 91
0
280
0
281
0
  0
CLASS
  1
SCALE
  2
AcDbScale
  3
ObjectDBX Classes
 90
1153
 91
0
280
0
281
0
  0
CLASS
  1
TABLESTYLE
  2
AcDbTableStyle
  3
ObjectDBX Classes
 90
4095
 91
0
280
0
281
0
  0
CLASS
  1
MLEADERSTYLE
  2
AcDbMLeaderStyle
  3
ACDB_MLEADERSTYLE_CLASS
 90
4095
 91
0
280
0
281
0
  0
CLASS
  1
DICTIONARYVAR
  2
AcDbDictionaryVar
  3
ObjectDBX Classes
 90
0
 91
0
280
0
281
0
  0
CLASS
  1
CELLSTYLEMAP
  2
AcDbCellStyleMap
  3
ObjectDBX Classes
 90
1152
 91
0
280
0
281
0
  0
CLASS
  1
MENTALRAYRENDERSETTINGS
  2
AcDbMentalRayRenderSettings
  3
SCENEOE
 90
1024
 91
0
280
0
281
0
  0
CLASS
  1
ACDBDETAILVIEWSTYLE
  2
AcDbDetailViewStyle
  3
ObjectDBX Classes
 90
1025
 91
0
280
0
281
0
  0
CLASS
  1
ACDBSECTIONVIEWSTYLE
  2
AcDbSectionViewStyle
  3
ObjectDBX Classes
 90
1025
 91
0
280
0
281
0
  0
CLASS
  1
RASTERVARIABLES
  2
AcDbRasterVariables
  3
ISM
 90
0
 91
0
280
0
281
0
  0
CLASS
  1
ACDBPLACEHOLDER
  2
AcDbPlaceHolder
  3
ObjectDBX Classes
 90
0
 91
0
280
0
281
0
  0
CLASS
  1
LAYOUT
  2
AcDbLayout
  3
ObjectDBX Classes
 90
0
 91
0
280
0
281
0
  0
ENDSEC
  0
SECTION
  2
TABLES
  0
TABLE
  2
VPORT
  5
8
330
0
100
AcDbSymbolTable
 70
1
  0
VPORT
  5
23
330
8
100
AcDbSymbolTableRecord
100
AcDbViewportTableRecord
  2
*Active
 70
0
 10
0.0
 20
0.0
 11
1.0
 21
1.0
 12
0.0
 22
0.0
 13
0.0
 23
0.0
 14
0.5
 24
0.5
 15
0.5
 25
0.5
 16
0.0
 26
0.0
 36
1.0
 17
0.0
 27
0.0
 37
0.0
 40
1000.0
 41
1.34
 42
50.0
 43
0.0
 44
0.0
 50
0.0
 51
0.0
 71
0
 72
1000
 73
1
 74
3
 75
0
 76
0
 77
0
 78
0
281
0
 65
0
146
0.0
  0
ENDTAB
  0
TABLE
  2
LTYPE
  5
2
330
0
100
AcDbSymbolTable
 70
3
  0
LTYPE
  5
24
330
2
100
AcDbSymbolTableRecord
100
AcDbLinetypeTableRecord
  2
ByBlock
 70
0
  3

 72
65
 73
0
 40
0.0
  0
LTYPE
  5
25
330
2
100
AcDbSymbolTableRecord
100
AcDbLinetypeTableRecord
  2
ByLayer
 70
0
  3

 72
65
 73
0
 40
0.0
  0
LTYPE
  5
26
330
2
100
AcDbSymbolTableRecord
100
AcDbLinetypeTableRecord
  2
Continuous
 70
0
  3

 72
65
 73
0
 40
0.0
  0
ENDTAB
  0
TABLE
  2
LAYER
  5
1
330
0
100
AcDbSymbolTable
 70
6
  0
LAYER
  5
27
330
1
100
AcDbSymbolTableRecord
100
AcDbLayerTableRecord
  2
0
 70
0
 62
7
  6
Continuous
370
-3
390
13
347
21
  0
LAYER
  5
28
330
1
100
AcDbSymbolTableRecord
100
AcDbLayerTableRecord
  2
Defpoints
 70
0
 62
7
  6
Continuous
290
0
370
-3
390
13
347
21
  0
LAYER
  5
2F
330
1
100
AcDbSymbolTableRecord
100
AcDbLayerTableRecord
  2
CUT
 70
0
 62
1
  6
Continuous
370
-3
390
13
347
21
  0
LAYER
  5
30
330
1
100
AcDbSymbolTableRecord
100
AcDbLayerTableRecord
  2
LABELS_NONCUT
 70
0
 62
3
  6
Continuous
370
-3
390
13
347
21
  0
LAYER
  5
31
330
1
100
AcDbSymbolTableRecord
100
AcDbLayerTableRecord
  2
SANDING_GUIDE_NONCUT
 70
0
 62
5
  6
Continuous
370
-3
390
13
347
21
  0
LAYER
  5
32
330
1
100
AcDbSymbolTableRecord
100
AcDbLayerTableRecord
  2
STOCK_NONCUT
 70
0
 62
8
  6
Continuous
370
-3
390
13
347
21
  0
ENDTAB
  0
TABLE
  2
STYLE
  5
5
330
0
100
AcDbSymbolTable
 70
1
  0
STYLE
  5
29
330
5
100
AcDbSymbolTableRecord
100
AcDbTextStyleTableRecord
  2
Standard
 70
0
 40
0.0
 41
1.0
 50
0.0
 71
0
 42
2.5
  3
txt
  4

  0
ENDTAB
  0
TABLE
  2
VIEW
  5
7
330
0
100
AcDbSymbolTable
 70
0
  0
ENDTAB
  0
TABLE
  2
UCS
  5
6
330
0
100
AcDbSymbolTable
 70
0
  0
ENDTAB
  0
TABLE
  2
APPID
  5
3
330
0
100
AcDbSymbolTable
 70
3
  0
APPID
  5
2A
330
3
100
AcDbSymbolTableRecord
100
AcDbRegAppTableRecord
  2
ACAD
 70
0
  0
APPID
  5
8B
330
3
100
AcDbSymbolTableRecord
100
AcDbRegAppTableRecord
  2
HATCHBACKGROUNDCOLOR
 70
0
  0
APPID
  5
8C
330
3
100
AcDbSymbolTableRecord
100
AcDbRegAppTableRecord
  2
EZDXF
 70
0
  0
ENDTAB
  0
TABLE
  2
DIMSTYLE
  5
4
330
0
100
AcDbSymbolTable
 70
1
100
AcDbDimStyleTable
  0
DIMSTYLE
105
2B
330
4
100
AcDbSymbolTableRecord
100
AcDbDimStyleTableRecord
  2
Standard
 70
0
 40
1.0
 41
2.5
 42
0.625
 43
3.75
 44
1.25
 45
0.0
 46
0.0
 47
0.0
 48
0.0
 49
2.5
140
2.5
141
2.5
142
0.0
143
0.03937007874
144
1.0
145
0.0
146
1.0
147
0.625
148
0.0
 69
0
 70
0
 71
0
 72
0
 73
0
 74
0
 75
0
 76
0
 77
1
 78
8
 79
3
170
0
171
3
172
1
173
0
174
0
175
0
176
0
177
0
178
0
179
2
271
2
272
2
273
2
274
3
275
0
276
0
277
2
278
44
279
0
280
0
281
0
282
0
283
0
284
8
285
0
286
0
288
0
289
3
290
0
371
-2
372
-2
  0
ENDTAB
  0
TABLE
  2
BLOCK_RECORD
  5
9
330
0
100
AcDbSymbolTable
 70
2
  0
BLOCK_RECORD
  5
17
330
9
100
AcDbSymbolTableRecord
100
AcDbBlockTableRecord
  2
*Model_Space
340
1A
 70
0
280
1
281
0
  0
BLOCK_RECORD
  5
1B
330
9
100
AcDbSymbolTableRecord
100
AcDbBlockTableRecord
  2
*Paper_Space
340
1E
 70
0
280
1
281
0
  0
ENDTAB
  0
ENDSEC
  0
SECTION
  2
BLOCKS
  0
BLOCK
  5
18
330
17
100
AcDbEntity
  8
0
100
AcDbBlockBegin
  2
*Model_Space
 70
0
 10
0.0
 20
0.0
 30
0.0
  3
*Model_Space
  1

  0
ENDBLK
  5
19
330
17
100
AcDbEntity
  8
0
100
AcDbBlockEnd
  0
BLOCK
  5
1C
330
1B
100
AcDbEntity
  8
0
100
AcDbBlockBegin
  2
*Paper_Space
 70
0
 10
0.0
 20
0.0
 30
0.0
  3
*Paper_Space
  1

  0
ENDBLK
  5
1D
330
1B
100
AcDbEntity
  8
0
100
AcDbBlockEnd
  0
ENDSEC
  0
SECTION
  2
ENTITIES
  0
LWPOLYLINE
  5
33
330
17
100
AcDbEntity
  8
STOCK_NONCUT
100
AcDbPolyline
 90
4
 70
1
 10
0.0
 20
0.0
 10
1220.0
 20
0.0
 10
1220.0
 20
2440.0
 10
0.0
 20
2440.0
  0
ARC
  5
34
330
17
100
AcDbEntity
  8
CUT
100
AcDbCircle
 10
33.6764930809299
 20
27.11098427849201
 30
1.000159954856e-07
 40
2.945167972189
100
AcDbArc
 50
-170.02888262577716
 51
-166.94217422737879
  0
SPLINE
  5
35
330
17
100
AcDbEntity
  8
CUT
100
AcDbSpline
 70
0
 71
3
 72
17
 73
13
 74
0
 40
0.0
 40
0.0
 40
0.0
 40
0.0
 40
0.0011439302000952217
 40
0.0011439302000952217
 40
0.0011439302000952217
 40
0.560906071078083
 40
0.560906071078083
 40
0.560906071078083
 40
0.9642016808012194
 40
0.9642016808012194
 40
0.9642016808012194
 40
1.0
 40
1.0
 40
1.0
 40
1.0
 10
30.775811152859898
 20
26.60102334539301
 30
1.000161091724e-07
 10
30.7728630326299
 20
26.616263560810008
 30
1.000161091724e-07
 10
30.7699149123899
 20
26.63150377622601
 30
1.000161091724e-07
 10
30.7669667921599
 20
26.64674399164101
 30
1.000161091724e-07
 10
29.3170957058599
 20
34.141807266501004
 30
1.000155975817e-07
 10
27.8587452157099
 20
41.39239448293001
 30
1.000150859909e-07
 10
26.2939146127199
 20
48.86307661127901
 30
1.000145744001e-07
 10
25.1665061474699
 20
54.24545490615901
 30
1.000141764962e-07
 10
24.0343152053399
 20
59.501488828868005
 30
1.000138354357e-07
 10
22.8678744502299
 20
64.80818577780902
 30
1.000134375317e-07
 10
22.7647581175999
 20
65.27731129946801
 30
1.000134375317e-07
 10
22.6616417849799
 20
65.746436821127
 30
1.000133806883e-07
 10
22.558525452349897
 20
66.21556234278701
 30
1.000133238449e-07
  0
ARC
  5
36
330
17
100
AcDbEntity
  8
CUT
100
AcDbCircle
 10
15.5228672962999
 20
74.67130088600001
 30
1.000129827844e-07
 40
11.0
100
AcDbArc
 50
-50.23760696728531
 51
-25.09752641098643
  0
LINE
  5
37
330
17
100
AcDbEntity
  8
CUT
100
AcDbLine
 10
25.484325526329897
 20
70.00553729024001
 30
1.000129365147e-07
 11
43.5928905488939
 21
82.011090260493
 31
1.000112312121e-07
  0
ARC
  5
38
330
17
100
AcDbEntity
  8
CUT
100
AcDbCircle
 10
50.5000042117899
 20
71.59275158065401
 30
1.000117890726e-07
 40
12.5
100
AcDbArc
 50
56.45658954516464
 51
123.54344263585725
  0
LINE
  5
39
330
17
100
AcDbEntity
  8
CUT
100
AcDbLine
 10
57.4071120230709
 20
82.011094139974
 30
1.000106627779e-07
 11
75.5157234304119
 21
70.00552505919902
 31
1.000108901516e-07
  0
ARC
  5
3A
330
17
100
AcDbEntity
  8
CUT
100
AcDbCircle
 10
85.47717593162989
 20
74.671300886001
 30
1.000101406134e-07
 40
11.0
100
AcDbArc
 50
-154.90240323912636
 51
-129.7623930327193
  0
SPLINE
  5
3B
330
17
100
AcDbEntity
  8
CUT
100
AcDbSpline
 70
0
 71
3
 72
17
 73
13
 74
0
 40
0.0
 40
0.0
 40
0.0
 40
0.0
 40
0.035798304347192465
 40
0.035798304347192465
 40
0.035798304347192465
 40
0.4390937467568295
 40
0.4390937467568295
 40
0.4390937467568295
 40
0.9988556554084648
 40
0.9988556554084648
 40
0.9988556554084648
 40
1.0
 40
1.0
 40
1.0
 40
1.0
 10
78.44151777557889
 20
66.21556234278701
 30
1.000110501082e-07
 10
78.33840144295391
 20
65.74643682112801
 30
1.000111069516e-07
 10
78.2352851103289
 20
65.277311299469
 30
1.00011163795e-07
 10
78.1321687777039
 20
64.80818577781001
 30
1.00011163795e-07
 10
76.96572802259189
 20
59.501488828868005
 30
1.000116753858e-07
 10
75.8335370804659
 20
54.24545490615901
 30
1.000121301331e-07
 10
74.7061286152159
 20
48.86307661127901
 30
1.000125848805e-07
 10
73.1412980122269
 20
41.39239448293101
 30
1.000132670015e-07
 10
71.6829475220739
 20
34.14180726650301
 30
1.000138922791e-07
 10
70.2330764357729
 20
26.64674399164101
 30
1.000145175567e-07
 10
70.2301272463539
 20
26.63149824909701
 30
1.000145175567e-07
 10
70.22717805693489
 20
26.61625250655201
 30
1.000145175567e-07
 10
70.2242288675159
 20
26.60100676400701
 30
1.000145175567e-07
  0
ARC
  5
3C
330
17
100
AcDbEntity
  8
CUT
100
AcDbCircle
 10
67.3235492882639
 20
27.11097806929601
 30
1.000146312435e-07
 40
2.945167972189
100
AcDbArc
 50
-13.05745461542989
 51
-9.971324020679615
  0
SPLINE
  5
3D
330
17
100
AcDbEntity
  8
CUT
100
AcDbSpline
 70
0
 71
3
 72
14
 73
10
 74
0
 40
0.0
 40
0.0
 40
0.0
 40
0.0
 40
0.00033227991651488026
 40
0.00033227991651488026
 40
0.00033227991651488026
 40
0.6470631689924483
 40
0.6470631689924483
 40
0.6470631689924483
 40
1.0
 40
1.0
 40
1.0
 40
1.0
 10
70.1925669981519
 20
26.44558212344201
 30
1.000145744001e-07
 10
70.1924711411719
 20
26.44516739418901
 30
1.000145744001e-07
 10
70.1923752841929
 20
26.44475266494101
 30
1.000145744001e-07
 10
70.19227942721389
 20
26.44433793569301
 30
1.000145744001e-07
 10
70.1420461537259
 20
26.22700156639801
 30
1.000145744001e-07
 10
70.06890876571589
 20
25.95197703219101
 30
1.000145744001e-07
 10
69.7918602150909
 20
25.449760888625008
 30
1.000146312435e-07
 10
69.6421227244779
 20
25.17832620718301
 30
1.000146312435e-07
 10
69.46453475182389
 20
24.910610410966008
 30
1.00014688087e-07
 10
69.2696223187739
 20
24.65564845754001
 30
1.00014688087e-07
  0
SPLINE
  5
3E
330
17
100
AcDbEntity
  8
CUT
100
AcDbSpline
 70
0
 71
3
 72
14
 73
10
 74
0
 40
0.0
 40
0.0
 40
0.0
 40
0.0
 40
0.2844252768843626
 40
0.2844252768843626
 40
0.2844252768843626
 40
0.9998060154824059
 40
0.9998060154824059
 40
0.9998060154824059
 40
1.0
 40
1.0
 40
1.0
 40
1.0
 10
69.2696223187659
 20
24.65564845754501
 30
1.00014688087e-07
 10
68.9519100526919
 20
24.243159851379012
 30
1.000148017738e-07
 10
68.5945055033479
 20
23.86845982150301
 30
1.000148017738e-07
 10
68.2659641878729
 20
23.56085740101401
 30
1.000148586172e-07
 10
67.4273022819889
 20
22.775645861186007
 30
1.000149723041e-07
 10
66.2154854524549
 20
21.87233584591001
 30
1.000150859909e-07
 10
64.45943335630591
 20
20.99847666546101
 30
1.000151996777e-07
 10
64.4587773543499
 20
20.99815022108401
 30
1.000151996777e-07
 10
64.4581213523939
 20
20.99782377670801
 30
1.000151996777e-07
 10
64.4574653504099
 20
20.99749733231701
 30
1.000151996777e-07
  0
SPLINE
  5
3F
330
17
100
AcDbEntity
  8
CUT
100
AcDbSpline
 70
0
 71
3
 72
14
 73
10
 74
0
 40
0.0
 40
0.0
 40
0.0
 40
0.0
 40
0.0001301168807415086
 40
0.0001301168807415086
 40
0.0001301168807415086
 40
0.16385950876776562
 40
0.16385950876776562
 40
0.16385950876776562
 40
1.0
 40
1.0
 40
1.0
 40
1.0
 10
64.4574653504519
 20
20.997497332338007
 30
1.000151996777e-07
 10
64.4568095280669
 20
20.997170527539012
 30
1.000151996777e-07
 10
64.45615370569689
 20
20.99684372274801
 30
1.000151996777e-07
 10
64.4554978833269
 20
20.99651691795701
 30
1.000151996777e-07
 10
63.8582238899549
 20
20.69888754211301
 30
1.000152565211e-07
 10
63.1956820809269
 20
20.40432269924201
 30
1.000153133646e-07
 10
62.4615792153069
 20
20.11997654638601
 30
1.00015370208e-07
 10
58.7158755567929
 20
18.66912207500701
 30
1.000156544251e-07
 10
54.3771066482829
 20
18.027942104767007
 30
1.000158249553e-07
 10
50.5000192939739
 20
18.000170373401012
 30
1.000159954856e-07
  0
SPLINE
  5
40
330
17
100
AcDbEntity
  8
CUT
100
AcDbSpline
 70
0
 71
3
 72
14
 73
10
 74
0
 40
0.0
 40
0.0
 40
0.0
 40
0.0
 40
0.6914404538232755
 40
0.6914404538232755
 40
0.6914404538232755
 40
0.9998819698729425
 40
0.9998819698729425
 40
0.9998819698729425
 40
1.0
 40
1.0
 40
1.0
 40
1.0
 10
50.5000192939739
 20
18.000170373401012
 30
1.000159954856e-07
 10
47.2622263688549
 20
18.023358729487008
 30
1.000161091724e-07
 10
43.7709566628739
 20
18.46455595240101
 30
1.000162797027e-07
 10
40.5933612890359
 20
19.41677562364101
 30
1.000162797027e-07
 10
39.174728277339895
 20
19.84189276446401
 30
1.000163365461e-07
 10
37.789398077389905
 20
20.37619065900701
 30
1.000163365461e-07
 10
36.5445453446099
 20
20.99651691795701
 30
1.000163365461e-07
 10
36.5438895221499
 20
20.99684372279101
 30
1.000163365461e-07
 10
36.5432336996899
 20
20.99717052762501
 30
1.000163365461e-07
 10
36.5425778772499
 20
20.99749733245301
 30
1.000163365461e-07
  0
SPLINE
  5
41
330
17
100
AcDbEntity
  8
CUT
100
AcDbSpline
 70
0
 71
3
 72
14
 73
10
 74
0
 40
0.0
 40
0.0
 40
0.0
 40
0.0
 40
0.0002523381367489908
 40
0.0002523381367489908
 40
0.0002523381367489908
 40
0.5060413885245924
 40
0.5060413885245924
 40
0.5060413885245924
 40
1.0
 40
1.0
 40
1.0
 40
1.0
 10
36.5425778772599
 20
20.99749733245001
 30
1.000163365461e-07
 10
36.541921875359904
 20
20.99782377679601
 30
1.000163365461e-07
 10
36.5412658734899
 20
20.99815022113101
 30
1.000163365461e-07
 10
36.5406098716199
 20
20.99847666546701
 30
1.000163365461e-07
 10
35.588101047499904
 20
21.47247090643301
 30
1.000163933895e-07
 10
34.7141964145699
 20
21.998972041982007
 30
1.000163365461e-07
 10
33.9534354085499
 20
22.555584799813012
 30
1.000163365461e-07
 10
33.1919482987599
 20
23.11272881335501
 30
1.000162797027e-07
 10
32.3509458971699
 20
23.850005647576012
 30
1.000162797027e-07
 10
31.7304298328299
 20
24.655636826797007
 30
1.000162228593e-07
  0
SPLINE
  5
42
330
17
100
AcDbEntity
  8
CUT
100
AcDbSpline
 70
0
 71
3
 72
14
 73
10
 74
0
 40
0.0
 40
0.0
 40
0.0
 40
0.0
 40
0.21836622619707974
 40
0.21836622619707974
 40
0.21836622619707974
 40
0.9997866809526204
 40
0.9997866809526204
 40
0.9997866809526204
 40
1.0
 40
1.0
 40
1.0
 40
1.0
 10
31.7304298328599
 20
24.65563682681901
 30
1.000162228593e-07
 10
31.6259749632699
 20
24.79227414646001
 30
1.000162228593e-07
 10
31.5278061852699
 20
24.93076036285601
 30
1.000162797027e-07
 10
31.436459941619898
 20
25.07072771224201
 30
1.000162797027e-07
 10
31.0971467136899
 20
25.59064808585201
 30
1.000162228593e-07
 10
30.8987891716899
 20
26.05051284196401
 30
1.000161660158e-07
 10
30.8077638007199
 20
26.44433793569201
 30
1.000161660158e-07
 10
30.8076689072699
 20
26.44474849621501
 30
1.000161660158e-07
 10
30.807574013809898
 20
26.44515905673801
 30
1.000161660158e-07
 10
30.8074791203599
 20
26.44556961725501
 30
1.000161660158e-07
  0
LINE
  5
43
330
17
100
AcDbEntity
  8
CUT
100
AcDbLine
 10
37.9464598081399
 20
94.950495804851
 30
1.000104354043e-07
 11
16.4422116287699
 21
79.893059126121
 31
1.000124817673e-07
  0
LINE
  5
44
330
17
100
AcDbEntity
  8
CUT
100
AcDbLine
 10
16.4422116287699
 20
79.893059126121
 30
1.000124817673e-07
 11
17.9803234291699
 21
76.392030195054
 31
1.00012709141e-07
  0
ARC
  5
45
330
17
100
AcDbEntity
  8
CUT
100
AcDbCircle
 10
15.5228672962999
 20
74.67130088600001
 30
1.000129827844e-07
 40
3.0
100
AcDbArc
 50
-55.000000000002444
 51
34.99999999998028
  0
LINE
  5
46
330
17
100
AcDbEntity
  8
CUT
100
AcDbLine
 10
17.243596605359897
 20
72.213844753133
 30
1.00013107045e-07
 11
12.567553678149899
 21
68.93964424651101
 31
1.000135049489e-07
  0
ARC
  5
47
330
17
100
AcDbEntity
  8
CUT
100
AcDbCircle
 10
13.7146892181499
 20
67.30130559513901
 30
1.00013608062e-07
 40
2.000018370845
100
AcDbArc
 50
124.99902533551136
 51
-136.4767121406471
  0
ARC
  5
48
330
17
100
AcDbEntity
  8
CUT
100
AcDbCircle
 10
91.4893881510479
 20
141.14267565374
 30
1.000145744001e-07
 40
109.2447880432
100
AcDbArc
 50
-136.4859020127939
 51
-134.4003325614816
  0
SPLINE
  5
49
330
17
100
AcDbEntity
  8
CUT
100
AcDbSpline
 70
0
 71
3
 72
11
 73
7
 74
0
 40
0.0
 40
0.0
 40
0.0
 40
0.0
 40
0.41876575882528544
 40
0.41876575882528544
 40
0.41876575882528544
 40
1.0
 40
1.0
 40
1.0
 40
1.0
 10
15.054399817419899
 20
63.090741699423006
 30
1.000138922791e-07
 10
16.2160846442299
 20
57.805681743289014
 30
1.00014290183e-07
 10
17.3425127900499
 20
52.576321208547014
 30
1.000146312435e-07
 10
18.4638417871099
 20
47.22296699737201
 30
1.000150291475e-07
 10
20.0202126101099
 20
39.792672836269006
 30
1.000155407382e-07
 10
21.4699634711899
 20
32.58489460676901
 30
1.00016052329e-07
 10
22.912574298689897
 20
25.12736301292901
 30
1.000166207632e-07
  0
ARC
  5
4A
330
17
100
AcDbEntity
  8
CUT
100
AcDbCircle
 10
33.6764940886099
 20
27.11097825625501
 30
1.000159954856e-07
 40
10.945167695346
100
AcDbArc
 50
-169.5584683253568
 51
-166.96738735652812
  0
SPLINE
  5
4B
330
17
100
AcDbEntity
  8
CUT
100
AcDbSpline
 70
0
 71
3
 72
11
 73
7
 74
0
 40
0.0
 40
0.0
 40
0.0
 40
0.0
 40
0.7792910206643884
 40
0.7792910206643884
 40
0.7792910206643884
 40
1.0
 40
1.0
 40
1.0
 40
1.0
 10
23.0132533150799
 20
24.64278130619801
 30
1.000166207632e-07
 10
23.3608626256199
 20
23.13883501243701
 30
1.000166776066e-07
 10
24.0036701964899
 20
21.82206269098701
 30
1.000167912935e-07
 10
24.736959418909898
 20
20.69846368245801
 30
1.000168481369e-07
 10
24.9446398765899
 20
20.380240600480008
 30
1.000168481369e-07
 10
25.1611252868099
 20
20.07598148918501
 30
1.000169049803e-07
 10
25.3837236038699
 20
19.78537791971501
 30
1.000169049803e-07
  0
SPLINE
  5
4C
330
17
100
AcDbEntity
  8
CUT
100
AcDbSpline
 70
0
 71
3
 72
11
 73
7
 74
0
 40
0.0
 40
0.0
 40
0.0
 40
0.0
 40
0.49466346656886023
 40
0.49466346656886023
 40
0.49466346656886023
 40
1.0
 40
1.0
 40
1.0
 40
1.0
 10
25.3837236038699
 20
19.78537791971501
 30
1.000169049803e-07
 10
26.642289820829898
 20
18.14827512736101
 30
1.000169618237e-07
 10
28.0842379086799
 20
16.93717040185801
 30
1.000170186671e-07
 10
29.2295856007099
 20
16.09917380042901
 30
1.000170186671e-07
 10
30.3996457959399
 20
15.24309623211801
 30
1.000170186671e-07
 10
31.6616068631599
 20
14.49060233862401
 30
1.000170186671e-07
 10
32.9765034952299
 20
13.83627408959801
 30
1.000170186671e-07
  0
SPLINE
  5
4D
330
17
100
AcDbEntity
  8
CUT
100
AcDbSpline
 70
0
 71
3
 72
11
 73
7
 74
0
 40
0.0
 40
0.0
 40
0.0
 40
0.0
 40
0.30743623118856683
 40
0.30743623118856683
 40
0.30743623118856683
 40
1.0
 40
1.0
 40
1.0
 40
1.0
 10
32.9765034952299
 20
13.83627408959801
 30
1.000170186671e-07
 10
34.6903275636599
 20
12.982253332870009
 30
1.000170186671e-07
 10
36.4935269040099
 20
12.29388013716901
 30
1.000170186671e-07
 10
38.2969212628699
 20
11.75346281479601
 30
1.000170186671e-07
 10
42.359440468879896
 20
10.53606089679001
 30
1.000169618237e-07
 10
46.5846552197359
 20
10.023283975637
 30
1.000168481369e-07
 10
50.5000216139649
 20
10.0
 30
1.000166776066e-07
  0
SPLINE
  5
4E
330
17
100
AcDbEntity
  8
CUT
100
AcDbSpline
 70
0
 71
3
 72
11
 73
7
 74
0
 40
0.0
 40
0.0
 40
0.0
 40
0.0
 40
0.8368077136443853
 40
0.8368077136443853
 40
0.8368077136443853
 40
1.0
 40
1.0
 40
1.0
 40
1.0
 10
50.5000216139649
 20
10.0
 30
1.000166776066e-07
 10
55.184660023477896
 20
10.027858697146
 30
1.000165070764e-07
 10
60.4402876009759
 20
10.75789319829901
 30
1.000162228593e-07
 10
65.3510989114139
 20
12.660038481910009
 30
1.000158249553e-07
 10
66.30879386635391
 20
13.030990413581009
 30
1.000157681119e-07
 10
67.1983017074259
 20
13.425047280607009
 30
1.000157112685e-07
 10
68.0235397327079
 20
13.83627408959801
 30
1.000155975817e-07
  0
SPLINE
  5
4F
330
17
100
AcDbEntity
  8
CUT
100
AcDbSpline
 70
0
 71
3
 72
11
 73
7
 74
0
 40
0.0
 40
0.0
 40
0.0
 40
0.0
 40
0.7145990767047196
 40
0.7145990767047196
 40
0.7145990767047196
 40
1.0
 40
1.0
 40
1.0
 40
1.0
 10
68.0235397327079
 20
13.83627408959801
 30
1.000155975817e-07
 10
70.4427594330979
 20
15.04014346758801
 30
1.000154838948e-07
 10
72.31113766967991
 20
16.38910765009301
 30
1.000152565211e-07
 10
73.73365998381689
 20
17.72096847373001
 30
1.000150859909e-07
 10
74.30179559313791
 20
18.25289514584501
 30
1.000150291475e-07
 10
74.96739919902589
 20
18.941282928503007
 30
1.000149154606e-07
 10
75.6163196240609
 20
19.78537791971501
 30
1.000148586172e-07
  0
SPLINE
  5
50
330
17
100
AcDbEntity
  8
CUT
100
AcDbSpline
 70
0
 71
3
 72
11
 73
7
 74
0
 40
0.0
 40
0.0
 40
0.0
 40
0.0
 40
0.3547049655236758
 40
0.3547049655236758
 40
0.3547049655236758
 40
1.0
 40
1.0
 40
1.0
 40
1.0
 10
75.6163196240609
 20
19.78537791971501
 30
1.000148586172e-07
 10
76.0273071309299
 20
20.321924817646007
 30
1.000148017738e-07
 10
76.4306259221569
 20
20.92194185761101
 30
1.00014688087e-07
 10
76.79669534777389
 20
21.58552943024601
 30
1.000146312435e-07
 10
77.46266511302889
 20
22.79275742867201
 30
1.000145175567e-07
 10
77.80021929602091
 20
23.83557569001101
 30
1.000144038699e-07
 10
77.98678991285189
 20
24.64278130619901
 30
1.000143470264e-07
  0
ARC
  5
51
330
17
100
AcDbEntity
  8
CUT
100
AcDbCircle
 10
67.3235492882639
 20
27.11097806929601
 30
1.000146312435e-07
 40
10.945167695346
100
AcDbArc
 50
-13.032611865833177
 51
-10.441530853859915
  0
SPLINE
  5
52
330
17
100
AcDbEntity
  8
CUT
100
AcDbSpline
 70
0
 71
3
 72
11
 73
7
 74
0
 40
0.0
 40
0.0
 40
0.0
 40
0.0
 40
0.5812342411745816
 40
0.5812342411745816
 40
0.5812342411745816
 40
1.0
 40
1.0
 40
1.0
 40
1.0
 10
78.08746892924589
 20
25.12736301293001
 30
1.000143470264e-07
 10
79.5300797567449
 20
32.58489460677101
 30
1.000136649054e-07
 10
80.9798306178229
 20
39.792672836270015
 30
1.000130396278e-07
 10
82.53620144082689
 20
47.22296699737201
 30
1.000124143502e-07
 10
83.6575304378799
 20
52.57632120854801
 30
1.000119027594e-07
 10
84.78395858370891
 20
57.805681743289014
 30
1.000114480121e-07
 10
85.94564341051489
 20
63.090741699423006
 30
1.000109932647e-07
  0
ARC
  5
53
330
17
100
AcDbEntity
  8
CUT
100
AcDbCircle
 10
9.5106549996299
 20
141.14267572972
 30
1.000079237201e-07
 40
109.24478815155
100
AcDbArc
 50
-45.599667437449284
 51
-43.51409798820747
  0
ARC
  5
54
330
17
100
AcDbEntity
  8
CUT
100
AcDbCircle
 10
87.28535404428689
 20
67.30130559860702
 30
1.000105953608e-07
 40
2.000018348213
100
AcDbArc
 50
-43.52328849326787
 51
55.00097541726313
  0
LINE
  5
55
330
17
100
AcDbEntity
  8
CUT
100
AcDbLine
 10
88.4324895497829
 20
68.939644246512
 30
1.000104354043e-07
 11
83.7564466225769
 21
72.21384475313401
 31
1.000103785608e-07
  0
ARC
  5
56
330
17
100
AcDbEntity
  8
CUT
100
AcDbCircle
 10
85.47717593162989
 20
74.671300886001
 30
1.000101406134e-07
 40
3.0
100
AcDbArc
 50
145.00000000000244
 51
-124.99999999999748
  0
LINE
  5
57
330
17
100
AcDbEntity
  8
CUT
100
AcDbLine
 10
83.0197197987629
 20
76.392030195054
 30
1.000100943438e-07
 11
84.5578252275449
 21
79.893063587577
 31
1.000097532832e-07
  0
LINE
  5
58
330
17
100
AcDbEntity
  8
CUT
100
AcDbLine
 10
84.5578252275449
 20
79.893063587577
 30
1.000097532832e-07
 11
63.0535834197909
 21
94.950495804851
 31
1.000094122227e-07
  0
LINE
  5
59
330
17
100
AcDbEntity
  8
CUT
100
AcDbLine
 10
63.0535834197909
 20
94.950495804851
 30
1.000094122227e-07
 11
64.48752451066889
 21
96.998375915574
 31
1.000091848491e-07
  0
LINE
  5
5A
330
17
100
AcDbEntity
  8
CUT
100
AcDbLine
 10
64.48752451066889
 20
96.998375915574
 30
1.000091848491e-07
 11
85.5832015878049
 21
82.22702380252501
 31
1.000095259096e-07
  0
LINE
  5
5B
330
17
100
AcDbEntity
  8
CUT
100
AcDbLine
 10
85.5832015878049
 20
82.22702380252501
 30
1.000095259096e-07
 11
90.99999999999989
 21
94.556732655241
 31
1.000083321978e-07
  0
LINE
  5
5C
330
17
100
AcDbEntity
  8
CUT
100
AcDbLine
 10
90.99999999999989
 20
94.556732655241
 30
1.000083321978e-07
 11
90.99999999999989
 21
101.59034147579801
 31
1.000077637636e-07
  0
LINE
  5
5D
330
17
100
AcDbEntity
  8
CUT
100
AcDbLine
 10
90.99999999999989
 20
101.59034147579801
 30
1.000077637636e-07
 11
53.0000156155479
 21
127.59034147579001
 31
1.000072521728e-07
  0
LINE
  5
5E
330
17
100
AcDbEntity
  8
CUT
100
AcDbLine
 10
53.0000156155479
 20
127.59034147579001
 30
1.000072521728e-07
 11
48.0000156155479
 21
127.59034147579001
 31
1.000074795465e-07
  0
LINE
  5
5F
330
17
100
AcDbEntity
  8
CUT
100
AcDbLine
 10
48.0000156155479
 20
127.59034147579001
 30
1.000074795465e-07
 11
10.0
 21
101.590341475797
 31
1.000110606819e-07
  0
LINE
  5
60
330
17
100
AcDbEntity
  8
CUT
100
AcDbLine
 10
10.0
 20
101.590341475797
 30
1.000110606819e-07
 11
10.0
 21
94.55673265524001
 31
1.000116291161e-07
  0
LINE
  5
61
330
17
100
AcDbEntity
  8
CUT
100
AcDbLine
 10
10.0
 20
94.55673265524001
 30
1.000116291161e-07
 11
15.4168310208799
 21
82.22701636684401
 31
1.000123680805e-07
  0
LINE
  5
62
330
17
100
AcDbEntity
  8
CUT
100
AcDbLine
 10
15.4168310208799
 20
82.22701636684401
 30
1.000123680805e-07
 11
36.512518717259894
 21
96.998375915573
 31
1.000103217174e-07
  0
LINE
  5
63
330
17
100
AcDbEntity
  8
CUT
100
AcDbLine
 10
36.512518717259894
 20
96.998375915573
 30
1.000103217174e-07
 11
37.9464598081399
 21
94.950495804851
 31
1.000104354043e-07
  0
TEXT
  5
64
330
17
100
AcDbEntity
  8
LABELS_NONCUT
100
AcDbText
 10
10.0
 20
129.5903416758115
 30
0.0
 40
2.4
  1
A18-1 2.500mm
100
AcDbText
  0
LINE
  5
65
330
17
100
AcDbEntity
  8
CUT
100
AcDbLine
 10
10.0
 20
137.5903416758115
 30
0.0
 11
30.0
 21
137.5903416758115
 31
0.0
  0
LINE
  5
66
330
17
100
AcDbEntity
  8
CUT
100
AcDbLine
 10
30.0
 20
137.5903416758115
 30
0.0
 11
30.0
 21
162.5903416758115
 31
0.0
  0
LINE
  5
67
330
17
100
AcDbEntity
  8
CUT
100
AcDbLine
 10
30.0
 20
162.5903416758115
 30
0.0
 11
10.0
 21
162.5903416758115
 31
0.0
  0
LINE
  5
68
330
17
100
AcDbEntity
  8
CUT
100
AcDbLine
 10
10.0
 20
162.5903416758115
 30
0.0
 11
10.0
 21
137.5903416758115
 31
0.0
  0
TEXT
  5
69
330
17
100
AcDbEntity
  8
LABELS_NONCUT
100
AcDbText
 10
10.0
 20
164.5903416758115
 30
0.0
 40
2.4
  1
H05B-1 2.500mm
100
AcDbText
  0
LINE
  5
6A
330
17
100
AcDbEntity
  8
CUT
100
AcDbLine
 10
10.0
 20
172.5903416758115
 30
0.0
 11
30.0
 21
172.5903416758115
 31
0.0
  0
LINE
  5
6B
330
17
100
AcDbEntity
  8
CUT
100
AcDbLine
 10
30.0
 20
172.5903416758115
 30
0.0
 11
30.0
 21
197.5903416758115
 31
0.0
  0
LINE
  5
6C
330
17
100
AcDbEntity
  8
CUT
100
AcDbLine
 10
30.0
 20
197.5903416758115
 30
0.0
 11
10.0
 21
197.5903416758115
 31
0.0
  0
LINE
  5
6D
330
17
100
AcDbEntity
  8
CUT
100
AcDbLine
 10
10.0
 20
197.5903416758115
 30
0.0
 11
10.0
 21
172.5903416758115
 31
0.0
  0
TEXT
  5
6E
330
17
100
AcDbEntity
  8
LABELS_NONCUT
100
AcDbText
 10
10.0
 20
199.5903416758115
 30
0.0
 40
2.4
  1
H05B-2 2.500mm
100
AcDbText
  0
LINE
  5
6F
330
17
100
AcDbEntity
  8
CUT
100
AcDbLine
 10
10.0
 20
207.5903416758115
 30
0.0
 11
30.0
 21
207.5903416758115
 31
0.0
  0
LINE
  5
70
330
17
100
AcDbEntity
  8
CUT
100
AcDbLine
 10
30.0
 20
207.5903416758115
 30
0.0
 11
30.0
 21
232.5903416758115
 31
0.0
  0
LINE
  5
71
330
17
100
AcDbEntity
  8
CUT
100
AcDbLine
 10
30.0
 20
232.5903416758115
 30
0.0
 11
10.0
 21
232.5903416758115
 31
0.0
  0
LINE
  5
72
330
17
100
AcDbEntity
  8
CUT
100
AcDbLine
 10
10.0
 20
232.5903416758115
 30
0.0
 11
10.0
 21
207.5903416758115
 31
0.0
  0
TEXT
  5
73
330
17
100
AcDbEntity
  8
LABELS_NONCUT
100
AcDbText
 10
10.0
 20
234.5903416758115
 30
0.0
 40
2.4
  1
H05B-3 2.500mm
100
AcDbText
  0
LINE
  5
74
330
17
100
AcDbEntity
  8
CUT
100
AcDbLine
 10
10.0
 20
242.5903416758115
 30
0.0
 11
30.0
 21
242.5903416758115
 31
0.0
  0
LINE
  5
75
330
17
100
AcDbEntity
  8
CUT
100
AcDbLine
 10
30.0
 20
242.5903416758115
 30
0.0
 11
30.0
 21
267.5903416758115
 31
0.0
  0
LINE
  5
76
330
17
100
AcDbEntity
  8
CUT
100
AcDbLine
 10
30.0
 20
267.5903416758115
 30
0.0
 11
10.0
 21
267.5903416758115
 31
0.0
  0
LINE
  5
77
330
17
100
AcDbEntity
  8
CUT
100
AcDbLine
 10
10.0
 20
267.5903416758115
 30
0.0
 11
10.0
 21
242.5903416758115
 31
0.0
  0
TEXT
  5
78
330
17
100
AcDbEntity
  8
LABELS_NONCUT
100
AcDbText
 10
10.0
 20
269.5903416758115
 30
0.0
 40
2.4
  1
H05B-4 2.500mm
100
AcDbText
  0
LINE
  5
79
330
17
100
AcDbEntity
  8
CUT
100
AcDbLine
 10
10.000000000000004
 20
349.5903416758115
 30
1.3322676295501878e-15
 11
10.0
 21
277.5903416758115
 31
1.3322676295501878e-15
  0
LINE
  5
7A
330
17
100
AcDbEntity
  8
CUT
100
AcDbLine
 10
10.0
 20
277.5903416758115
 30
1.3322676295501878e-15
 11
20.700000000000003
 21
277.5903416758115
 31
1.3322676295501878e-15
  0
LINE
  5
7B
330
17
100
AcDbEntity
  8
CUT
100
AcDbLine
 10
20.700000000000003
 20
277.5903416758115
 30
1.3322676295501878e-15
 11
20.700000000000006
 21
349.5903416758115
 31
1.3322676295501878e-15
  0
LINE
  5
7C
330
17
100
AcDbEntity
  8
CUT
100
AcDbLine
 10
20.700000000000006
 20
349.5903416758115
 30
1.3322676295501878e-15
 11
10.000000000000004
 21
349.5903416758115
 31
1.3322676295501878e-15
  0
CIRCLE
  5
7D
330
17
100
AcDbEntity
  8
CUT
100
AcDbCircle
 10
17.250000000000004
 20
342.5903416758115
 30
0.0
 40
1.1
  0
CIRCLE
  5
7E
330
17
100
AcDbEntity
  8
CUT
100
AcDbCircle
 10
17.250000000000004
 20
324.5903416758115
 30
0.0
 40
1.1
  0
CIRCLE
  5
7F
330
17
100
AcDbEntity
  8
CUT
100
AcDbCircle
 10
17.25
 20
304.5903416758115
 30
0.0
 40
1.1
  0
CIRCLE
  5
80
330
17
100
AcDbEntity
  8
CUT
100
AcDbCircle
 10
17.25
 20
286.5903416758115
 30
0.0
 40
1.1
  0
TEXT
  5
81
330
17
100
AcDbEntity
  8
LABELS_NONCUT
100
AcDbText
 10
10.0
 20
351.5903416758115
 30
0.0
 40
2.4
  1
A63-1 2.500mm
100
AcDbText
  0
LINE
  5
82
330
17
100
AcDbEntity
  8
CUT
100
AcDbLine
 10
10.000000000000004
 20
431.5903416758115
 30
1.3322676295501878e-15
 11
10.0
 21
359.5903416758115
 31
1.3322676295501878e-15
  0
LINE
  5
83
330
17
100
AcDbEntity
  8
CUT
100
AcDbLine
 10
10.0
 20
359.5903416758115
 30
1.3322676295501878e-15
 11
20.700000000000003
 21
359.5903416758115
 31
1.3322676295501878e-15
  0
LINE
  5
84
330
17
100
AcDbEntity
  8
CUT
100
AcDbLine
 10
20.700000000000003
 20
359.5903416758115
 30
1.3322676295501878e-15
 11
20.700000000000006
 21
431.5903416758115
 31
1.3322676295501878e-15
  0
LINE
  5
85
330
17
100
AcDbEntity
  8
CUT
100
AcDbLine
 10
20.700000000000006
 20
431.5903416758115
 30
1.3322676295501878e-15
 11
10.000000000000004
 21
431.5903416758115
 31
1.3322676295501878e-15
  0
CIRCLE
  5
86
330
17
100
AcDbEntity
  8
CUT
100
AcDbCircle
 10
17.250000000000004
 20
424.5903416758115
 30
0.0
 40
1.1
  0
CIRCLE
  5
87
330
17
100
AcDbEntity
  8
CUT
100
AcDbCircle
 10
17.250000000000004
 20
406.5903416758115
 30
0.0
 40
1.1
  0
CIRCLE
  5
88
330
17
100
AcDbEntity
  8
CUT
100
AcDbCircle
 10
17.25
 20
386.5903416758115
 30
0.0
 40
1.1
  0
CIRCLE
  5
89
330
17
100
AcDbEntity
  8
CUT
100
AcDbCircle
 10
17.25
 20
368.5903416758115
 30
0.0
 40
1.1
  0
TEXT
  5
8A
330
17
100
AcDbEntity
  8
LABELS_NONCUT
100
AcDbText
 10
10.0
 20
433.5903416758115
 30
0.0
 40
2.4
  1
A63-2 2.500mm
100
AcDbText
  0
ENDSEC
  0
SECTION
  2
OBJECTS
  0
DICTIONARY
  5
A
330
0
100
AcDbDictionary
281
1
  3
ACAD_COLOR
350
B
  3
ACAD_GROUP
350
C
  3
ACAD_LAYOUT
350
D
  3
ACAD_MATERIAL
350
E
  3
ACAD_MLEADERSTYLE
350
F
  3
ACAD_MLINESTYLE
350
10
  3
ACAD_PLOTSETTINGS
350
11
  3
ACAD_PLOTSTYLENAME
350
12
  3
ACAD_SCALELIST
350
14
  3
ACAD_TABLESTYLE
350
15
  3
ACAD_VISUALSTYLE
350
16
  3
EZDXF_META
350
2D
  0
DICTIONARY
  5
B
330
A
100
AcDbDictionary
281
1
  0
DICTIONARY
  5
C
330
A
100
AcDbDictionary
281
1
  0
DICTIONARY
  5
D
330
A
100
AcDbDictionary
281
1
  3
Model
350
1A
  3
Layout1
350
1E
  0
DICTIONARY
  5
E
330
A
100
AcDbDictionary
281
1
  3
ByBlock
350
1F
  3
ByLayer
350
20
  3
Global
350
21
  0
DICTIONARY
  5
F
330
A
100
AcDbDictionary
281
1
  3
Standard
350
2C
  0
DICTIONARY
  5
10
330
A
100
AcDbDictionary
281
1
  3
Standard
350
22
  0
DICTIONARY
  5
11
330
A
100
AcDbDictionary
281
1
  0
ACDBDICTIONARYWDFLT
  5
12
330
A
100
AcDbDictionary
281
1
  3
Normal
350
13
100
AcDbDictionaryWithDefault
340
13
  0
ACDBPLACEHOLDER
  5
13
330
12
  0
DICTIONARY
  5
14
330
A
100
AcDbDictionary
281
1
  0
DICTIONARY
  5
15
330
A
100
AcDbDictionary
281
1
  0
DICTIONARY
  5
16
330
A
100
AcDbDictionary
281
1
  0
LAYOUT
  5
1A
330
D
100
AcDbPlotSettings
  1

  4
A3
  6

 40
7.5
 41
20.0
 42
7.5
 43
20.0
 44
420.0
 45
297.0
 46
0.0
 47
0.0
 48
0.0
 49
0.0
140
0.0
141
0.0
142
1.0
143
1.0
 70
1024
 72
1
 73
0
 74
5
  7

 75
16
 76
0
 77
2
 78
300
147
1.0
148
0.0
149
0.0
100
AcDbLayout
  1
Model
 70
1
 71
0
 10
0.0
 20
0.0
 11
420.0
 21
297.0
 12
0.0
 22
0.0
 32
0.0
 14
1e+20
 24
1e+20
 34
1e+20
 15
-1e+20
 25
-1e+20
 35
-1e+20
146
0.0
 13
0.0
 23
0.0
 33
0.0
 16
1.0
 26
0.0
 36
0.0
 17
0.0
 27
1.0
 37
0.0
 76
1
330
17
  0
LAYOUT
  5
1E
330
D
100
AcDbPlotSettings
  1

  4
A3
  6

 40
7.5
 41
20.0
 42
7.5
 43
20.0
 44
420.0
 45
297.0
 46
0.0
 47
0.0
 48
0.0
 49
0.0
140
0.0
141
0.0
142
1.0
143
1.0
 70
0
 72
1
 73
0
 74
5
  7

 75
16
 76
0
 77
2
 78
300
147
1.0
148
0.0
149
0.0
100
AcDbLayout
  1
Layout1
 70
1
 71
1
 10
0.0
 20
0.0
 11
420.0
 21
297.0
 12
0.0
 22
0.0
 32
0.0
 14
1e+20
 24
1e+20
 34
1e+20
 15
-1e+20
 25
-1e+20
 35
-1e+20
146
0.0
 13
0.0
 23
0.0
 33
0.0
 16
1.0
 26
0.0
 36
0.0
 17
0.0
 27
1.0
 37
0.0
 76
1
330
1B
  0
MATERIAL
  5
1F
102
{ACAD_REACTORS
330
E
102
}
330
E
100
AcDbMaterial
  1
ByBlock
  2

 70
0
 40
1.0
 71
1
 41
1.0
 91
-1023410177
 42
1.0
 72
1
  3

 73
1
 74
1
 75
1
 44
0.5
 73
0
 45
1.0
 46
1.0
 77
1
  4

 78
1
 79
1
170
1
 48
1.0
171
1
  6

172
1
173
1
174
1
140
1.0
141
1.0
175
1
  7

176
1
177
1
178
1
143
1.0
179
1
  8

270
1
271
1
272
1
145
1.0
146
1.0
273
1
  9

274
1
275
1
276
1
 42
1.0
 72
1
  3

 73
1
 74
1
 75
1
 94
63
  0
MATERIAL
  5
20
102
{ACAD_REACTORS
330
E
102
}
330
E
100
AcDbMaterial
  1
ByLayer
  2

 70
0
 40
1.0
 71
1
 41
1.0
 91
-1023410177
 42
1.0
 72
1
  3

 73
1
 74
1
 75
1
 44
0.5
 73
0
 45
1.0
 46
1.0
 77
1
  4

 78
1
 79
1
170
1
 48
1.0
171
1
  6

172
1
173
1
174
1
140
1.0
141
1.0
175
1
  7

176
1
177
1
178
1
143
1.0
179
1
  8

270
1
271
1
272
1
145
1.0
146
1.0
273
1
  9

274
1
275
1
276
1
 42
1.0
 72
1
  3

 73
1
 74
1
 75
1
 94
63
  0
MATERIAL
  5
21
102
{ACAD_REACTORS
330
E
102
}
330
E
100
AcDbMaterial
  1
Global
  2

 70
0
 40
1.0
 71
1
 41
1.0
 91
-1023410177
 42
1.0
 72
1
  3

 73
1
 74
1
 75
1
 44
0.5
 73
0
 45
1.0
 46
1.0
 77
1
  4

 78
1
 79
1
170
1
 48
1.0
171
1
  6

172
1
173
1
174
1
140
1.0
141
1.0
175
1
  7

176
1
177
1
178
1
143
1.0
179
1
  8

270
1
271
1
272
1
145
1.0
146
1.0
273
1
  9

274
1
275
1
276
1
 42
1.0
 72
1
  3

 73
1
 74
1
 75
1
 94
63
  0
MLINESTYLE
  5
22
102
{ACAD_REACTORS
330
10
102
}
330
10
100
AcDbMlineStyle
  2
Standard
 70
0
  3

 62
256
 51
90.0
 52
90.0
 71
2
 49
0.5
 62
256
  6
BYLAYER
 49
-0.5
 62
256
  6
BYLAYER
  0
MLEADERSTYLE
  5
2C
102
{ACAD_REACTORS
330
F
102
}
330
F
100
AcDbMLeaderStyle
179
2
170
2
171
1
172
0
 90
2
 40
0.0
 41
0.0
173
1
 91
-1056964608
 92
-2
290
1
 42
2.0
291
1
 43
8.0
  3
Standard
 44
4.0
300

342
29
174
1
175
1
176
0
178
1
 93
-1056964608
 45
4.0
292
0
297
0
 46
4.0
 94
-1056964608
 47
1.0
 49
1.0
140
1.0
294
1
141
0.0
177
0
142
1.0
295
0
296
0
143
3.75
271
0
272
9
273
9
  0
DICTIONARY
  5
2D
330
A
100
AcDbDictionary
280
1
281
1
  3
CREATED_BY_EZDXF
350
2E
  3
WRITTEN_BY_EZDXF
350
8D
  0
DICTIONARYVAR
  5
2E
330
2D
100
DictionaryVariables
280
0
  1
1.4.4 @ 2026-09-20T13:01:26.247958+00:00
  0
DICTIONARYVAR
  5
8D
330
2D
100
DictionaryVariables
280
0
  1
1.4.4 @ 2026-09-20T13:01:26.333503+00:00
  0
ENDSEC
  0
EOF
