ISO-10303-21;
HEADER;
FILE_DESCRIPTION(('Open CASCADE Model'),'2;1');
FILE_NAME('Open CASCADE Shape Model','2026-09-20T16:15:35',('Author'),(
    'Open CASCADE'),'Open CASCADE STEP processor 7.9','Open CASCADE 7.9'
  ,'Unknown');
FILE_SCHEMA(('AUTOMOTIVE_DESIGN { 1 0 10303 214 1 1 1 1 }'));
ENDSEC;
DATA;
#1 = APPLICATION_PROTOCOL_DEFINITION('international standard',
  'automotive_design',2000,#2);
#2 = APPLICATION_CONTEXT(
  'core data for automotive mechanical design processes');
#3 = SHAPE_DEFINITION_REPRESENTATION(#4,#10);
#4 = PRODUCT_DEFINITION_SHAPE('','',#5);
#5 = PRODUCT_DEFINITION('design','',#6,#9);
#6 = PRODUCT_DEFINITION_FORMATION('','',#7);
#7 = PRODUCT('Open CASCADE STEP translator 7.9 11',
  'Open CASCADE STEP translator 7.9 11','',(#8));
#8 = PRODUCT_CONTEXT('',#2,'mechanical');
#9 = PRODUCT_DEFINITION_CONTEXT('part definition',#2,'design');
#10 = ADVANCED_BREP_SHAPE_REPRESENTATION('',(#11,#15),#1298);
#11 = AXIS2_PLACEMENT_3D('',#12,#13,#14);
#12 = CARTESIAN_POINT('',(0.,0.,0.));
#13 = DIRECTION('',(0.,0.,1.));
#14 = DIRECTION('',(1.,0.,-0.));
#15 = MANIFOLD_SOLID_BREP('',#16);
#16 = CLOSED_SHELL('',(#17,#768,#1240,#1270));
#17 = ADVANCED_FACE('',(#18),#94,.T.);
#18 = FACE_BOUND('',#19,.T.);
#19 = EDGE_LOOP('',(#20,#489,#512,#539,#540));
#20 = ORIENTED_EDGE('',*,*,#21,.F.);
#21 = EDGE_CURVE('',#22,#24,#26,.T.);
#22 = VERTEX_POINT('',#23);
#23 = CARTESIAN_POINT('',(43.5,-300.,40.513048986865));
#24 = VERTEX_POINT('',#25);
#25 = CARTESIAN_POINT('',(36.500000219191,-300.0012386832,
    54.661602323793));
#26 = SURFACE_CURVE('',#27,(#93,#167),.PCURVE_S1.);
#27 = B_SPLINE_CURVE_WITH_KNOTS('',8,(#28,#29,#30,#31,#32,#33,#34,#35,
    #36,#37,#38,#39,#40,#41,#42,#43,#44,#45,#46,#47,#48,#49,#50,#51,#52,
    #53,#54,#55,#56,#57,#58,#59,#60,#61,#62,#63,#64,#65,#66,#67,#68,#69,
    #70,#71,#72,#73,#74,#75,#76,#77,#78,#79,#80,#81,#82,#83,#84,#85,#86,
    #87,#88,#89,#90,#91,#92),.UNSPECIFIED.,.F.,.F.,(9,7,7,7,7,7,7,7,7,9)
  ,(0.,7.193268011236E-02,0.116347626952,0.237485292858,0.457372751507,
    0.641479183675,0.734762519282,0.836578337789,0.903785671808,1.),
  .UNSPECIFIED.);
#28 = CARTESIAN_POINT('',(43.5,-300.,40.513048986865));
#29 = CARTESIAN_POINT('',(43.5,-299.7891262083,40.497002779013));
#30 = CARTESIAN_POINT('',(43.485149537688,-299.5812626189,
    40.517480333304));
#31 = CARTESIAN_POINT('',(43.457242057256,-299.3856505758,
    40.570772773986));
#32 = CARTESIAN_POINT('',(43.419363684996,-299.2066145154,
    40.649548197591));
#33 = CARTESIAN_POINT('',(43.375015010245,-299.0448415574,
    40.745146700811));
#34 = CARTESIAN_POINT('',(43.327232866323,-298.8986610951,
    40.849875408361));
#35 = CARTESIAN_POINT('',(43.277712111484,-298.7653243863,
    40.959303500846));
#36 = CARTESIAN_POINT('',(43.193952864117,-298.5663127517,
    41.145720847363));
#37 = CARTESIAN_POINT('',(43.161200848839,-298.4941751434,41.21887656726
    ));
#38 = CARTESIAN_POINT('',(43.127798556372,-298.4254680052,
    41.293674398247));
#39 = CARTESIAN_POINT('',(43.093851303581,-298.3598373397,
    41.369822659738));
#40 = CARTESIAN_POINT('',(43.059442531842,-298.2969784662,
    41.447087994642));
#41 = CARTESIAN_POINT('',(43.024633807044,-298.2366360206,
    41.525295369358));
#42 = CARTESIAN_POINT('',(42.989464819588,-298.1786039552,
    41.604328073784));
#43 = CARTESIAN_POINT('',(42.857099224258,-297.970322318,41.901773890645
    ));
#44 = CARTESIAN_POINT('',(42.757864424462,-297.8340219069,
    42.124729169242));
#45 = CARTESIAN_POINT('',(42.656809257103,-297.7099858412,
    42.351255821714));
#46 = CARTESIAN_POINT('',(42.554260495433,-297.5965152179,
    42.580386176229));
#47 = CARTESIAN_POINT('',(42.450466021546,-297.4921325477,
    42.811381208347));
#48 = CARTESIAN_POINT('',(42.345559513601,-297.3958950092,
    43.043828461267));
#49 = CARTESIAN_POINT('',(42.239597757996,-297.306966579,43.277505776409
    ));
#50 = CARTESIAN_POINT('',(41.938222826504,-297.0753891088,
    43.938817844938));
#51 = CARTESIAN_POINT('',(41.740658499663,-296.9483098961,
    44.368501938723));
#52 = CARTESIAN_POINT('',(41.540147491285,-296.839829172,44.800369898318
    ));
#53 = CARTESIAN_POINT('',(41.336915024774,-296.7483372469,
    45.233701758743));
#54 = CARTESIAN_POINT('',(41.13114761821,-296.672647712,45.667934405679)
  );
#55 = CARTESIAN_POINT('',(40.922982296127,-296.6121649528,
    46.102685984786));
#56 = CARTESIAN_POINT('',(40.712512971035,-296.5665583362,
    46.537701358685));
#57 = CARTESIAN_POINT('',(40.321667674364,-296.5101697757,
    47.337216138468));
#58 = CARTESIAN_POINT('',(40.142035832138,-296.4949377287,
    47.701532203311));
#59 = CARTESIAN_POINT('',(39.960945538282,-296.4901818945,48.06567893636
    ));
#60 = CARTESIAN_POINT('',(39.778476849395,-296.4960735413,
    48.429497715945));
#61 = CARTESIAN_POINT('',(39.594732602373,-296.5129319586,
    48.792803518465));
#62 = CARTESIAN_POINT('',(39.409839971117,-296.5412232315,
    49.155384342035));
#63 = CARTESIAN_POINT('',(39.223953908584,-296.5816000387,
    49.516999779119));
#64 = CARTESIAN_POINT('',(38.942672430123,-296.662075722,50.059973298315
    ));
#65 = CARTESIAN_POINT('',(38.847879936936,-296.6924839557,
    50.242240579877));
#66 = CARTESIAN_POINT('',(38.752912110886,-296.7263598709,
    50.424142666447));
#67 = CARTESIAN_POINT('',(38.657800451785,-296.7638456837,
    50.605633537437));
#68 = CARTESIAN_POINT('',(38.562583194032,-296.8051045122,50.78665711733
    ));
#69 = CARTESIAN_POINT('',(38.467305992606,-296.8503254287,
    50.967146752292));
#70 = CARTESIAN_POINT('',(38.37202297799,-296.899732284,51.147024245332)
  );
#71 = CARTESIAN_POINT('',(38.172863316577,-297.0123871798,
    51.521761443041));
#72 = CARTESIAN_POINT('',(38.069020226122,-297.076475075,51.716444415595
    ));
#73 = CARTESIAN_POINT('',(37.965332937708,-297.1462217201,
    51.910165764831));
#74 = CARTESIAN_POINT('',(37.861901122529,-297.2220452975,
    52.102783854517));
#75 = CARTESIAN_POINT('',(37.758866219317,-297.3044488735,
    52.294090509848));
#76 = CARTESIAN_POINT('',(37.656414263476,-297.3940311684,
    52.483809141145));
#77 = CARTESIAN_POINT('',(37.554785489964,-297.4915413126,
    52.671583760968));
#78 = CARTESIAN_POINT('',(37.387972093736,-297.6683371788,
    52.979299873511));
#79 = CARTESIAN_POINT('',(37.322171001484,-297.7425203271,
    53.100549411185));
#80 = CARTESIAN_POINT('',(37.256972926311,-297.8209066727,
    53.220590284575));
#81 = CARTESIAN_POINT('',(37.192494978946,-297.903847139,53.339248331414
    ));
#82 = CARTESIAN_POINT('',(37.128902412891,-297.9917453969,
    53.456270499347));
#83 = CARTESIAN_POINT('',(37.066410959423,-298.0850644535,
    53.571322895081));
#84 = CARTESIAN_POINT('',(37.005296966252,-298.1843658179,
    53.683977171228));
#85 = CARTESIAN_POINT('',(36.860933324727,-298.4422647615,
    53.950700250846));
#86 = CARTESIAN_POINT('',(36.780256144856,-298.6066220362,
    54.100287225338));
#87 = CARTESIAN_POINT('',(36.703689535083,-298.7875364989,
    54.243124579981));
#88 = CARTESIAN_POINT('',(36.632907659896,-298.9882386722,54.37656330174
    ));
#89 = CARTESIAN_POINT('',(36.571803112415,-299.2111481536,54.49412677253
    ));
#90 = CARTESIAN_POINT('',(36.525136544926,-299.4563785236,
    54.587895464673));
#91 = CARTESIAN_POINT('',(36.499901661569,-299.7227561502,
    54.646105152644));
#92 = CARTESIAN_POINT('',(36.500000219191,-300.0012386832,
    54.661602323793));
#93 = PCURVE('',#94,#99);
#94 = CYLINDRICAL_SURFACE('',#95,3.5);
#95 = AXIS2_PLACEMENT_3D('',#96,#97,#98);
#96 = CARTESIAN_POINT('',(40.,-300.,6.));
#97 = DIRECTION('',(0.,0.,1.));
#98 = DIRECTION('',(1.,0.,-0.));
#99 = DEFINITIONAL_REPRESENTATION('',(#100),#166);
#100 = B_SPLINE_CURVE_WITH_KNOTS('',8,(#101,#102,#103,#104,#105,#106,
    #107,#108,#109,#110,#111,#112,#113,#114,#115,#116,#117,#118,#119,
    #120,#121,#122,#123,#124,#125,#126,#127,#128,#129,#130,#131,#132,
    #133,#134,#135,#136,#137,#138,#139,#140,#141,#142,#143,#144,#145,
    #146,#147,#148,#149,#150,#151,#152,#153,#154,#155,#156,#157,#158,
    #159,#160,#161,#162,#163,#164,#165),.UNSPECIFIED.,.F.,.F.,(9,7,7,7,7
    ,7,7,7,7,9),(0.,7.193268011236E-02,0.116347626952,0.237485292858,
    0.457372751507,0.641479183675,0.734762519282,0.836578337789,
    0.903785671808,1.),.UNSPECIFIED.);
#101 = CARTESIAN_POINT('',(0.,34.513048986865));
#102 = CARTESIAN_POINT('',(6.024965476886E-02,34.497002779013));
#103 = CARTESIAN_POINT('',(0.119617972946,34.517480333304));
#104 = CARTESIAN_POINT('',(0.175880653233,34.570772773986));
#105 = CARTESIAN_POINT('',(0.2279833842,34.649548197591));
#106 = CARTESIAN_POINT('',(0.275751027953,34.745146700811));
#107 = CARTESIAN_POINT('',(0.319596803795,34.849875408361));
#108 = CARTESIAN_POINT('',(0.360231471893,34.959303500846));
#109 = CARTESIAN_POINT('',(0.421922765384,35.145720847363));
#110 = CARTESIAN_POINT('',(0.444551032388,35.21887656726));
#111 = CARTESIAN_POINT('',(0.46636617334,35.293674398247));
#112 = CARTESIAN_POINT('',(0.48746373346,35.369822659738));
#113 = CARTESIAN_POINT('',(0.507925947793,35.447087994642));
#114 = CARTESIAN_POINT('',(0.527821741217,35.525295369358));
#115 = CARTESIAN_POINT('',(0.547206728433,35.604328073784));
#116 = CARTESIAN_POINT('',(0.617716181399,35.901773890645));
#117 = CARTESIAN_POINT('',(0.665791060039,36.124729169242));
#118 = CARTESIAN_POINT('',(0.711395983044,36.351255821714));
#119 = CARTESIAN_POINT('',(0.754983889152,36.580386176229));
#120 = CARTESIAN_POINT('',(0.796952510431,36.811381208347));
#121 = CARTESIAN_POINT('',(0.837559743974,37.043828461267));
#122 = CARTESIAN_POINT('',(0.877047137406,37.277505776409));
#123 = CARTESIAN_POINT('',(0.985639230937,37.938817844938));
#124 = CARTESIAN_POINT('',(1.052521088769,38.368501938723));
#125 = CARTESIAN_POINT('',(1.117354843976,38.800369898318));
#126 = CARTESIAN_POINT('',(1.18070117235,39.233701758743));
#127 = CARTESIAN_POINT('',(1.243037654723,39.667934405679));
#128 = CARTESIAN_POINT('',(1.304723370172,40.102685984786));
#129 = CARTESIAN_POINT('',(1.366102104553,40.537701358685));
#130 = CARTESIAN_POINT('',(1.478928398957,41.337216138468));
#131 = CARTESIAN_POINT('',(1.530347244267,41.701532203311));
#132 = CARTESIAN_POINT('',(1.581958416624,42.06567893636));
#133 = CARTESIAN_POINT('',(1.633938953519,42.429497715945));
#134 = CARTESIAN_POINT('',(1.686469000745,42.792803518465));
#135 = CARTESIAN_POINT('',(1.739741201299,43.155384342035));
#136 = CARTESIAN_POINT('',(1.793976041756,43.516999779119));
#137 = CARTESIAN_POINT('',(1.877566689478,44.059973298315));
#138 = CARTESIAN_POINT('',(1.905995331196,44.242240579877));
#139 = CARTESIAN_POINT('',(1.934778447701,44.424142666447));
#140 = CARTESIAN_POINT('',(1.963955757484,44.605633537437));
#141 = CARTESIAN_POINT('',(1.993570814137,44.78665711733));
#142 = CARTESIAN_POINT('',(2.023672620564,44.967146752292));
#143 = CARTESIAN_POINT('',(2.054318229718,45.147024245332));
#144 = CARTESIAN_POINT('',(2.119693564439,45.521761443041));
#145 = CARTESIAN_POINT('',(2.154533060229,45.716444415595));
#146 = CARTESIAN_POINT('',(2.190190551519,45.910165764831));
#147 = CARTESIAN_POINT('',(2.226770695986,46.102783854517));
#148 = CARTESIAN_POINT('',(2.264396318666,46.294090509848));
#149 = CARTESIAN_POINT('',(2.303212635531,46.483809141145));
#150 = CARTESIAN_POINT('',(2.343403676784,46.671583760968));
#151 = CARTESIAN_POINT('',(2.412852520069,46.979299873511));
#152 = CARTESIAN_POINT('',(2.441170833339,47.100549411185));
#153 = CARTESIAN_POINT('',(2.47027658743,47.220590284575));
#154 = CARTESIAN_POINT('',(2.500258347377,47.339248331414));
#155 = CARTESIAN_POINT('',(2.531216622764,47.456270499347));
#156 = CARTESIAN_POINT('',(2.563267041568,47.571322895081));
#157 = CARTESIAN_POINT('',(2.596552972454,47.683977171228));
#158 = CARTESIAN_POINT('',(2.680997242756,47.950700250846));
#159 = CARTESIAN_POINT('',(2.73323151446,48.100287225338));
#160 = CARTESIAN_POINT('',(2.789214300014,48.243124579981));
#161 = CARTESIAN_POINT('',(2.84975460814,48.37656330174));
#162 = CARTESIAN_POINT('',(2.915442266203,48.49412677253));
#163 = CARTESIAN_POINT('',(2.986275424175,48.587895464673));
#164 = CARTESIAN_POINT('',(3.062380120109,48.646105152644));
#165 = CARTESIAN_POINT('',(3.141946563102,48.661602323793));
#166 = ( GEOMETRIC_REPRESENTATION_CONTEXT(2) 
PARAMETRIC_REPRESENTATION_CONTEXT() REPRESENTATION_CONTEXT('2D SPACE',''
  ) );
#167 = PCURVE('',#168,#421);
#168 = B_SPLINE_SURFACE_WITH_KNOTS('',3,3,(
    (#169,#170,#171,#172,#173,#174,#175,#176,#177,#178,#179,#180,#181
      ,#182)
    ,(#183,#184,#185,#186,#187,#188,#189,#190,#191,#192,#193,#194,#195
      ,#196)
    ,(#197,#198,#199,#200,#201,#202,#203,#204,#205,#206,#207,#208,#209
      ,#210)
    ,(#211,#212,#213,#214,#215,#216,#217,#218,#219,#220,#221,#222,#223
      ,#224)
    ,(#225,#226,#227,#228,#229,#230,#231,#232,#233,#234,#235,#236,#237
      ,#238)
    ,(#239,#240,#241,#242,#243,#244,#245,#246,#247,#248,#249,#250,#251
      ,#252)
    ,(#253,#254,#255,#256,#257,#258,#259,#260,#261,#262,#263,#264,#265
      ,#266)
    ,(#267,#268,#269,#270,#271,#272,#273,#274,#275,#276,#277,#278,#279
      ,#280)
    ,(#281,#282,#283,#284,#285,#286,#287,#288,#289,#290,#291,#292,#293
      ,#294)
    ,(#295,#296,#297,#298,#299,#300,#301,#302,#303,#304,#305,#306,#307
      ,#308)
    ,(#309,#310,#311,#312,#313,#314,#315,#316,#317,#318,#319,#320,#321
      ,#322)
    ,(#323,#324,#325,#326,#327,#328,#329,#330,#331,#332,#333,#334,#335
      ,#336)
    ,(#337,#338,#339,#340,#341,#342,#343,#344,#345,#346,#347,#348,#349
      ,#350)
    ,(#351,#352,#353,#354,#355,#356,#357,#358,#359,#360,#361,#362,#363
      ,#364)
    ,(#365,#366,#367,#368,#369,#370,#371,#372,#373,#374,#375,#376,#377
      ,#378)
    ,(#379,#380,#381,#382,#383,#384,#385,#386,#387,#388,#389,#390,#391
      ,#392)
    ,(#393,#394,#395,#396,#397,#398,#399,#400,#401,#402,#403,#404,#405
      ,#406)
    ,(#407,#408,#409,#410,#411,#412,#413,#414,#415,#416,#417,#418,#419
      ,#420
    )),.UNSPECIFIED.,.F.,.F.,.F.,(4,1,2,2,2,2,1,1,1,1,1,4),(4,2,2,2,2,2,
    4),(0.,1.498979670595E-02,2.99795934119E-02,5.598413804787E-02,
    9.115457342201E-02,0.112163835383,0.334122876537,0.445102397114,
    0.556081917691,0.667061438268,0.778040958846,1.),(0.,
    3.083344037338E-02,0.158028689177,0.407445855026,0.63871290505,
    0.894986199429,1.),.UNSPECIFIED.);
#169 = CARTESIAN_POINT('',(7.031093149575,-129.971300858,46.072375479456
    ));
#170 = CARTESIAN_POINT('',(7.009543414285,-133.3243787994,
    45.842443226627));
#171 = CARTESIAN_POINT('',(7.009543414285,-136.6577121327,
    45.842443226627));
#172 = CARTESIAN_POINT('',(7.11999091475,-153.6406396424,47.020900514361
    ));
#173 = CARTESIAN_POINT('',(8.013115535791,-166.5481758473,
    56.395857625959));
#174 = CARTESIAN_POINT('',(9.152600016706,-206.2927069523,
    69.011555738026));
#175 = CARTESIAN_POINT('',(9.621607040988,-233.1513762124,
    75.651012149346));
#176 = CARTESIAN_POINT('',(10.05296081548,-284.8395365046,
    81.705731551058));
#177 = CARTESIAN_POINT('',(10.566402435986,-311.1284473112,
    86.574949623583));
#178 = CARTESIAN_POINT('',(8.952523988374,-361.3922139333,
    72.803629983245));
#179 = CARTESIAN_POINT('',(6.640916868382,-390.7719389749,
    56.194829253711));
#180 = CARTESIAN_POINT('',(3.609234765465,-417.8386752748,23.11007450738
    ));
#181 = CARTESIAN_POINT('',(2.664164367947,-424.7320432674,
    12.201167100528));
#182 = CARTESIAN_POINT('',(1.655229860656,-430.6514048358,
    -4.118212290294E-05));
#183 = CARTESIAN_POINT('',(7.06556675701,-129.971300858,46.064064451535)
  );
#184 = CARTESIAN_POINT('',(7.043921182733,-133.3243787994,
    45.834210404992));
#185 = CARTESIAN_POINT('',(7.043921182733,-136.6577121327,
    45.834210404992));
#186 = CARTESIAN_POINT('',(7.154859880723,-153.6406396424,
    47.012266866979));
#187 = CARTESIAN_POINT('',(8.051962406556,-166.5481758473,
    56.383973376097));
#188 = CARTESIAN_POINT('',(9.196497162196,-206.2927069523,
    68.995563885862));
#189 = CARTESIAN_POINT('',(9.667748581206,-233.1513762124,75.63425957252
    ));
#190 = CARTESIAN_POINT('',(10.100540091805,-284.8395365046,
    81.68587811666));
#191 = CARTESIAN_POINT('',(10.615545222794,-311.1284473112,
    86.551124792946));
#192 = CARTESIAN_POINT('',(8.993861495475,-361.3922139333,
    72.782364055563));
#193 = CARTESIAN_POINT('',(6.673470763318,-390.7719389749,56.1794859102)
  );
#194 = CARTESIAN_POINT('',(3.62588053366,-417.8386752748,23.103834362294
    ));
#195 = CARTESIAN_POINT('',(2.67564427804,-424.7320432674,12.197888999939
    ));
#196 = CARTESIAN_POINT('',(1.661002002848,-430.6514048358,
    -4.118212290294E-05));
#197 = CARTESIAN_POINT('',(7.319906359629,-129.971300858,46.003435506371
    ));
#198 = CARTESIAN_POINT('',(7.290523534817,-133.3243787994,
    45.776412718696));
#199 = CARTESIAN_POINT('',(7.290523534817,-136.6577121327,
    45.776412718696));
#200 = CARTESIAN_POINT('',(7.441117475457,-153.6406396424,
    46.939958307999));
#201 = CARTESIAN_POINT('',(8.714344820903,-166.5481758473,
    56.176276487426));
#202 = CARTESIAN_POINT('',(10.103802294637,-206.2927069523,
    68.691595042046));
#203 = CARTESIAN_POINT('',(10.002402434006,-233.1513762124,
    75.521270420839));
#204 = CARTESIAN_POINT('',(10.366222246857,-284.8395365046,
    81.567022762915));
#205 = CARTESIAN_POINT('',(11.135059627992,-311.1284473112,
    86.302619322731));
#206 = CARTESIAN_POINT('',(9.452550044113,-361.3922139333,
    72.553657187201));
#207 = CARTESIAN_POINT('',(6.791073480756,-390.7719389749,
    56.123520200742));
#208 = CARTESIAN_POINT('',(3.652321450429,-417.8386752748,
    23.095528247057));
#209 = CARTESIAN_POINT('',(2.689229459944,-424.7320432674,
    12.196969261058));
#210 = CARTESIAN_POINT('',(1.67537333226,-430.6514048358,
    -4.118212290294E-05));
#211 = CARTESIAN_POINT('',(7.850568581391,-129.971300858,45.864427445186
    ));
#212 = CARTESIAN_POINT('',(7.812973210932,-133.3243787994,45.64179376183
    ));
#213 = CARTESIAN_POINT('',(7.812973210932,-136.6577121327,45.64179376183
    ));
#214 = CARTESIAN_POINT('',(8.00565839432,-153.6406396424,46.782844151315
    ));
#215 = CARTESIAN_POINT('',(9.675744899551,-166.5481758473,
    55.811398392144));
#216 = CARTESIAN_POINT('',(11.332190274977,-206.2927069523,
    68.171198464904));
#217 = CARTESIAN_POINT('',(10.631765587435,-233.1513762124,
    75.285005361264));
#218 = CARTESIAN_POINT('',(10.976034451468,-284.8395365046,
    81.281527554211));
#219 = CARTESIAN_POINT('',(12.139198075789,-311.1284473112,
    85.745948866392));
#220 = CARTESIAN_POINT('',(10.314206425722,-361.3922139333,
    72.047890302956));
#221 = CARTESIAN_POINT('',(6.978706601026,-390.7719389749,
    56.026220690355));
#222 = CARTESIAN_POINT('',(3.678656892884,-417.8386752748,
    23.091867328209));
#223 = CARTESIAN_POINT('',(2.697791278671,-424.7320432674,
    12.203601160367));
#224 = CARTESIAN_POINT('',(1.695271621239,-430.6514048358,
    -4.118212290294E-05));
#225 = CARTESIAN_POINT('',(8.699443910973,-129.971300858,45.624707581632
    ));
#226 = CARTESIAN_POINT('',(8.659727709081,-133.3243787994,
    45.404938127872));
#227 = CARTESIAN_POINT('',(8.659727709081,-136.6577121327,
    45.404938127872));
#228 = CARTESIAN_POINT('',(8.863282656178,-153.6406396424,
    46.531308661882));
#229 = CARTESIAN_POINT('',(10.628446343684,-166.5481758473,
    55.432024830305));
#230 = CARTESIAN_POINT('',(12.375776365968,-206.2927069523,
    67.667408031619));
#231 = CARTESIAN_POINT('',(11.565334915361,-233.1513762124,
    74.909437224887));
#232 = CARTESIAN_POINT('',(12.039158691008,-284.8395365046,
    80.753373075339));
#233 = CARTESIAN_POINT('',(13.60077292968,-311.1284473112,
    84.850290566842));
#234 = CARTESIAN_POINT('',(11.532593699863,-361.3922139333,
    71.247392818739));
#235 = CARTESIAN_POINT('',(7.259461029553,-390.7719389749,
    55.872509083119));
#236 = CARTESIAN_POINT('',(3.723770428751,-417.8386752748,
    23.086937376837));
#237 = CARTESIAN_POINT('',(2.715336376273,-424.7320432674,
    12.214729772199));
#238 = CARTESIAN_POINT('',(1.726172589639,-430.6514048358,
    -4.118212290294E-05));
#239 = CARTESIAN_POINT('',(9.372826729636,-129.971300858,45.415533782132
    ));
#240 = CARTESIAN_POINT('',(9.333945961167,-133.3243787994,
    45.196807508141));
#241 = CARTESIAN_POINT('',(9.333945961167,-136.6577121327,
    45.196807508141));
#242 = CARTESIAN_POINT('',(9.533219113979,-153.6406396424,
    46.317831498609));
#243 = CARTESIAN_POINT('',(11.250035519969,-166.5481758473,
    55.17833166644));
#244 = CARTESIAN_POINT('',(12.993822511114,-206.2927069523,
    67.349617561062));
#245 = CARTESIAN_POINT('',(12.318482851038,-233.1513762124,
    74.584777713728));
#246 = CARTESIAN_POINT('',(12.888969501606,-284.8395365046,
    80.287399268342));
#247 = CARTESIAN_POINT('',(14.614294939531,-311.1284473112,
    84.122519013841));
#248 = CARTESIAN_POINT('',(12.338273536265,-361.3922139333,
    70.608453216196));
#249 = CARTESIAN_POINT('',(7.463094442951,-390.7719389749,
    55.751159048243));
#250 = CARTESIAN_POINT('',(3.762854315403,-417.8386752748,
    23.084353806563));
#251 = CARTESIAN_POINT('',(2.73333755492,-424.7320432674,12.224514508289
    ));
#252 = CARTESIAN_POINT('',(1.749837271237,-430.6514048358,
    -4.118212290294E-05));
#253 = CARTESIAN_POINT('',(10.985292004843,-129.971300858,
    44.842408382013));
#254 = CARTESIAN_POINT('',(10.9490024779,-133.3243787994,44.625246128571
    ));
#255 = CARTESIAN_POINT('',(10.9490024779,-136.6577121327,44.625246128571
    ));
#256 = CARTESIAN_POINT('',(11.134994903792,-153.6406396424,
    45.738254143066));
#257 = CARTESIAN_POINT('',(12.702936339028,-166.5481758473,
    54.555152013598));
#258 = CARTESIAN_POINT('',(14.432528829547,-206.2927069523,
    66.58091219172));
#259 = CARTESIAN_POINT('',(14.328688128994,-233.1513762124,
    73.528341622332));
#260 = CARTESIAN_POINT('',(14.87292387899,-284.8395365046,
    79.056496865003));
#261 = CARTESIAN_POINT('',(16.334999136323,-311.1284473112,
    82.751839779409));
#262 = CARTESIAN_POINT('',(13.492527872477,-361.3922139333,
    69.546560506225));
#263 = CARTESIAN_POINT('',(7.918077027859,-390.7719389749,
    55.480343335412));
#264 = CARTESIAN_POINT('',(3.911409459037,-417.8386752748,
    23.050357019281));
#265 = CARTESIAN_POINT('',(2.824297594996,-424.7320432674,
    12.224795037167));
#266 = CARTESIAN_POINT('',(1.814675079936,-430.6514048358,
    -4.118212290294E-05));
#267 = CARTESIAN_POINT('',(11.931113606036,-129.971300858,
    44.444833537087));
#268 = CARTESIAN_POINT('',(11.896737745085,-133.3243787994,
    44.227772020679));
#269 = CARTESIAN_POINT('',(11.896737745085,-136.6577121327,
    44.227772020679));
#270 = CARTESIAN_POINT('',(12.07292217925,-153.6406396424,
    45.340263734001));
#271 = CARTESIAN_POINT('',(13.531289656851,-166.5481758473,
    54.177202602826));
#272 = CARTESIAN_POINT('',(15.249297367011,-206.2927069523,
    66.125934883305));
#273 = CARTESIAN_POINT('',(15.561942715356,-233.1513762124,
    72.742584012222));
#274 = CARTESIAN_POINT('',(16.086446423201,-284.8395365046,
    78.180602647556));
#275 = CARTESIAN_POINT('',(17.324716858728,-311.1284473112,
    81.924577121032));
#276 = CARTESIAN_POINT('',(14.135949200627,-361.3922139333,
    68.956382918637));
#277 = CARTESIAN_POINT('',(8.212831081878,-390.7719389749,
    55.305699571731));
#278 = CARTESIAN_POINT('',(4.01959994804,-417.8386752748,23.021542768047
    ));
#279 = CARTESIAN_POINT('',(2.893150154358,-424.7320432674,
    12.219714753386));
#280 = CARTESIAN_POINT('',(1.859079426906,-430.6514048358,
    -4.118212290294E-05));
#281 = CARTESIAN_POINT('',(13.036114444225,-129.971300858,43.93125231309
    ));
#282 = CARTESIAN_POINT('',(12.998622808729,-133.3243787994,
    43.716703787233));
#283 = CARTESIAN_POINT('',(12.998622808729,-136.6577121327,
    43.716703787233));
#284 = CARTESIAN_POINT('',(13.19077632584,-153.6406396424,
    44.816315828424));
#285 = CARTESIAN_POINT('',(14.768986114264,-166.5481758473,
    53.577862289836));
#286 = CARTESIAN_POINT('',(16.679254347596,-206.2927069523,
    65.308565704679));
#287 = CARTESIAN_POINT('',(17.246237757416,-233.1513762124,
    71.474132984089));
#288 = CARTESIAN_POINT('',(17.750385113506,-284.8395365046,
    76.769095245534));
#289 = CARTESIAN_POINT('',(18.831369069041,-311.1284473112,
    80.581433303081));
#290 = CARTESIAN_POINT('',(15.202840961863,-361.3922139333,
    67.989132156594));
#291 = CARTESIAN_POINT('',(8.73172161988,-390.7719389749,54.995085444265
    ));
#292 = CARTESIAN_POINT('',(4.226290456399,-417.8386752748,
    22.960468911825));
#293 = CARTESIAN_POINT('',(3.027915168132,-424.7320432674,
    12.203176456323));
#294 = CARTESIAN_POINT('',(1.940739321232,-430.6514048358,
    -4.118212290294E-05));
#295 = CARTESIAN_POINT('',(13.447624120156,-129.971300858,43.73547422543
    ));
#296 = CARTESIAN_POINT('',(13.408990559065,-133.3243787994,
    43.521904245196));
#297 = CARTESIAN_POINT('',(13.408990559065,-136.6577121327,
    43.521904245196));
#298 = CARTESIAN_POINT('',(13.606996715486,-153.6406396424,
    44.616501008166));
#299 = CARTESIAN_POINT('',(15.232224564035,-166.5481758473,
    53.34765347926));
#300 = CARTESIAN_POINT('',(17.203788753542,-206.2927069523,
    64.996526764403));
#301 = CARTESIAN_POINT('',(17.81490011664,-233.1513762124,
    71.001228202014));
#302 = CARTESIAN_POINT('',(18.313957133423,-284.8395365046,
    76.242873654896));
#303 = CARTESIAN_POINT('',(19.379080798494,-311.1284473112,
    80.075618227652));
#304 = CARTESIAN_POINT('',(15.610531267641,-361.3922139333,
    67.621647676214));
#305 = CARTESIAN_POINT('',(8.936742588841,-390.7719389749,
    54.871816197658));
#306 = CARTESIAN_POINT('',(4.311239893334,-417.8386752748,
    22.934194111991));
#307 = CARTESIAN_POINT('',(3.083892907528,-424.7320432674,
    12.195057579084));
#308 = CARTESIAN_POINT('',(1.973674352828,-430.6514048358,
    -4.118212290294E-05));
#309 = CARTESIAN_POINT('',(18.181512292044,-129.971300858,
    41.419715598224));
#310 = CARTESIAN_POINT('',(18.12987680042,-133.3243787994,
    41.217746657703));
#311 = CARTESIAN_POINT('',(18.12987680042,-136.6577121327,
    41.217746657703));
#312 = CARTESIAN_POINT('',(18.394520932165,-153.6406396424,
    42.252885342795));
#313 = CARTESIAN_POINT('',(20.615658615477,-166.5481758473,
    50.578420861811));
#314 = CARTESIAN_POINT('',(23.105813911438,-206.2927069523,
    61.391248505478));
#315 = CARTESIAN_POINT('',(23.257958783817,-233.1513762124,
    66.196613353317));
#316 = CARTESIAN_POINT('',(23.747744837675,-284.8395365046,
    70.791092504566));
#317 = CARTESIAN_POINT('',(25.457820018358,-311.1284473112,
    74.294746122574));
#318 = CARTESIAN_POINT('',(20.50276668772,-361.3922139333,
    63.181787816426));
#319 = CARTESIAN_POINT('',(11.420874574478,-390.7719389749,
    53.364804209128));
#320 = CARTESIAN_POINT('',(5.374350640409,-417.8386752748,
    22.591120672134));
#321 = CARTESIAN_POINT('',(3.79081839058,-424.7320432674,12.079114326927
    ));
#322 = CARTESIAN_POINT('',(2.381271575436,-430.6514048358,
    -4.118212290294E-05));
#323 = CARTESIAN_POINT('',(24.320184195732,-129.971300858,
    37.535506864504));
#324 = CARTESIAN_POINT('',(24.254132506983,-133.3243787994,
    37.354386015675));
#325 = CARTESIAN_POINT('',(24.254132506983,-136.6577121327,
    37.354386015675));
#326 = CARTESIAN_POINT('',(24.59266306551,-153.6406396424,
    38.282673290023));
#327 = CARTESIAN_POINT('',(27.485151722808,-166.5481758473,
    45.81281817061));
#328 = CARTESIAN_POINT('',(30.518856783665,-206.2927069523,
    55.319983005781));
#329 = CARTESIAN_POINT('',(30.025463131446,-233.1513762124,
    58.814923145397));
#330 = CARTESIAN_POINT('',(30.451901703505,-284.8395365046,
    62.597941423422));
#331 = CARTESIAN_POINT('',(32.762947252319,-311.1284473112,
    65.597233491288));
#332 = CARTESIAN_POINT('',(26.810897266321,-361.3922139333,
    56.317524179323));
#333 = CARTESIAN_POINT('',(16.566906960194,-390.7719389749,
    50.086328051995));
#334 = CARTESIAN_POINT('',(8.056052596035,-417.8386752748,
    21.534291189383));
#335 = CARTESIAN_POINT('',(5.654921303417,-424.7320432674,
    11.589813570483));
#336 = CARTESIAN_POINT('',(3.326472965582,-430.6514048358,
    -4.118212290294E-05));
#337 = CARTESIAN_POINT('',(31.519171721621,-129.971300858,
    31.119861627714));
#338 = CARTESIAN_POINT('',(31.443913646302,-133.3243787994,
    30.973449056496));
#339 = CARTESIAN_POINT('',(31.443913646302,-136.6577121327,
    30.973449056496));
#340 = CARTESIAN_POINT('',(31.829629117837,-153.6406396424,
    31.723848182522));
#341 = CARTESIAN_POINT('',(35.16894657505,-166.5481758473,37.85314306167
    ));
#342 = CARTESIAN_POINT('',(38.496193840787,-206.2927069523,
    45.413627353575));
#343 = CARTESIAN_POINT('',(37.352486043932,-233.1513762124,
    47.701182482298));
#344 = CARTESIAN_POINT('',(37.658244025185,-284.8395365046,
    50.539640422972));
#345 = CARTESIAN_POINT('',(40.400836508045,-311.1284473112,
    52.894855769301));
#346 = CARTESIAN_POINT('',(33.893564946168,-361.3922139333,
    45.805269699979));
#347 = CARTESIAN_POINT('',(24.269720786211,-390.7719389749,
    42.577732035577));
#348 = CARTESIAN_POINT('',(12.503309775152,-417.8386752748,
    18.535754782573));
#349 = CARTESIAN_POINT('',(8.87901817279,-424.7320432674,10.027762652811
    ));
#350 = CARTESIAN_POINT('',(5.050528175454,-430.6514048358,
    -4.118212290294E-05));
#351 = CARTESIAN_POINT('',(36.362631716659,-129.971300858,
    25.749188961818));
#352 = CARTESIAN_POINT('',(36.286076665654,-133.3243787994,
    25.631327309554));
#353 = CARTESIAN_POINT('',(36.286076665654,-136.6577121327,
    25.631327309554));
#354 = CARTESIAN_POINT('',(36.678439444949,-153.6406396424,
    26.235396209615));
#355 = CARTESIAN_POINT('',(40.098796415853,-166.5481758473,
    31.18777898642));
#356 = CARTESIAN_POINT('',(43.413830898222,-206.2927069523,
    37.219701088933));
#357 = CARTESIAN_POINT('',(41.939271199522,-233.1513762124,
    38.826761429154));
#358 = CARTESIAN_POINT('',(42.150162669833,-284.8395365046,
    41.017737333972));
#359 = CARTESIAN_POINT('',(45.088316167219,-311.1284473112,
    42.919393084197));
#360 = CARTESIAN_POINT('',(38.412222209374,-361.3922139333,
    37.322847209156));
#361 = CARTESIAN_POINT('',(29.74277823512,-390.7719389749,
    35.413000298195));
#362 = CARTESIAN_POINT('',(15.843880632808,-417.8386752748,
    15.502698052503));
#363 = CARTESIAN_POINT('',(11.381966844101,-424.7320432674,
    8.406037032589));
#364 = CARTESIAN_POINT('',(6.498073383825,-430.6514048358,
    -4.118212290294E-05));
#365 = CARTESIAN_POINT('',(40.591574498518,-129.971300858,
    19.882407100905));
#366 = CARTESIAN_POINT('',(40.519826444743,-133.3243787994,
    19.794618239397));
#367 = CARTESIAN_POINT('',(40.519826444743,-136.6577121327,
    19.794618239397));
#368 = CARTESIAN_POINT('',(40.887552224021,-153.6406396424,
    20.24455695984));
#369 = CARTESIAN_POINT('',(44.110012800353,-166.5481758473,
    23.940800580313));
#370 = CARTESIAN_POINT('',(47.16693380184,-206.2927069523,
    28.411517055769));
#371 = CARTESIAN_POINT('',(45.562339470576,-233.1513762124,
    29.511907418128));
#372 = CARTESIAN_POINT('',(45.686411610814,-284.8395365046,
    31.107306255619));
#373 = CARTESIAN_POINT('',(48.743259164603,-311.1284473112,
    32.579715587459));
#374 = CARTESIAN_POINT('',(42.023035930718,-361.3922139333,
    28.352004135019));
#375 = CARTESIAN_POINT('',(34.275012037499,-390.7719389749,
    26.987333918077));
#376 = CARTESIAN_POINT('',(18.806079257672,-417.8386752748,
    11.824385844105));
#377 = CARTESIAN_POINT('',(13.712867241636,-424.7320432674,
    6.413793384685));
#378 = CARTESIAN_POINT('',(8.022732849292,-430.6514048358,
    -4.118212290294E-05));
#379 = CARTESIAN_POINT('',(45.345571034349,-129.971300858,
    11.492817227029));
#380 = CARTESIAN_POINT('',(45.288743293071,-133.3243787994,
    11.445703966781));
#381 = CARTESIAN_POINT('',(45.288743293071,-136.6577121327,
    11.445703966781));
#382 = CARTESIAN_POINT('',(45.579998934813,-153.6406396424,
    11.687170590992));
#383 = CARTESIAN_POINT('',(48.147393071886,-166.5481758473,
    13.671668187424));
#384 = CARTESIAN_POINT('',(50.524029362618,-206.2927069523,
    16.068428491127));
#385 = CARTESIAN_POINT('',(49.055032136131,-233.1513762124,
    16.646321182003));
#386 = CARTESIAN_POINT('',(49.086489679942,-284.8395365046,
    17.501547163968));
#387 = CARTESIAN_POINT('',(52.241466450261,-311.1284473112,
    18.398406092209));
#388 = CARTESIAN_POINT('',(45.523108480529,-361.3922139333,
    15.926829288258));
#389 = CARTESIAN_POINT('',(38.530546642592,-390.7719389749,
    14.757236794499));
#390 = CARTESIAN_POINT('',(21.909674855958,-417.8386752748,6.41899068488
    ));
#391 = CARTESIAN_POINT('',(16.347825297623,-424.7320432674,
    3.471432418572));
#392 = CARTESIAN_POINT('',(10.05524508755,-430.6514048358,
    -4.118212290294E-05));
#393 = CARTESIAN_POINT('',(47.848494297274,-129.971300858,4.673272056651
    ));
#394 = CARTESIAN_POINT('',(47.812709623803,-133.3243787994,
    4.655623106205));
#395 = CARTESIAN_POINT('',(47.812709623803,-136.6577121327,
    4.655623106205));
#396 = CARTESIAN_POINT('',(47.996114556005,-153.6406396424,
    4.746078159895));
#397 = CARTESIAN_POINT('',(49.617198551141,-166.5481758473,5.48569072266
    ));
#398 = CARTESIAN_POINT('',(51.100793564786,-206.2927069523,
    6.394766779434));
#399 = CARTESIAN_POINT('',(50.118260729305,-233.1513762124,
    6.658650306574));
#400 = CARTESIAN_POINT('',(50.118260729233,-284.8395365046,
    7.000688335316));
#401 = CARTESIAN_POINT('',(53.302962819482,-311.1284473112,
    7.398665395915));
#402 = CARTESIAN_POINT('',(46.589205914961,-361.3922139333,
    6.327375379071));
#403 = CARTESIAN_POINT('',(39.387766986981,-390.7719389749,
    5.496333352271));
#404 = CARTESIAN_POINT('',(23.050482173306,-417.8386752748,
    2.346935082341));
#405 = CARTESIAN_POINT('',(17.605135497718,-424.7320432674,
    1.259468877193));
#406 = CARTESIAN_POINT('',(11.463132020277,-430.6514048358,
    -4.118212290294E-05));
#407 = CARTESIAN_POINT('',(49.004805067526,-129.971300858,
    -4.11827296154E-05));
#408 = CARTESIAN_POINT('',(48.987250553231,-133.3243787994,
    -4.118273163589E-05));
#409 = CARTESIAN_POINT('',(48.987250553231,-136.6577121327,
    -4.118273163515E-05));
#410 = CARTESIAN_POINT('',(49.077221599262,-153.6406396424,
    -4.118272127205E-05));
#411 = CARTESIAN_POINT('',(49.872459878809,-166.5481758473,
    -4.118262292908E-05));
#412 = CARTESIAN_POINT('',(50.600251621726,-206.2927069523,
    -4.118255918415E-05));
#413 = CARTESIAN_POINT('',(50.118260729268,-233.1513762124,
    -4.118270048006E-05));
#414 = CARTESIAN_POINT('',(50.118260729267,-284.8395365046,
    -4.118273694966E-05));
#415 = CARTESIAN_POINT('',(53.26883414003,-311.1284473112,
    -2.031621684138E-02));
#416 = CARTESIAN_POINT('',(46.627024830863,-361.3922139333,
    2.242613282585E-02));
#417 = CARTESIAN_POINT('',(39.28962031468,-390.7719389749,0.210272658913
    ));
#418 = CARTESIAN_POINT('',(23.427891196293,-417.8386752748,
    0.114095189632));
#419 = CARTESIAN_POINT('',(18.164026996485,-424.7320432674,
    6.673123219956E-02));
#420 = CARTESIAN_POINT('',(12.246760696504,-430.6514048358,
    -4.118212290294E-05));
#421 = DEFINITIONAL_REPRESENTATION('',(#422),#488);
#422 = B_SPLINE_CURVE_WITH_KNOTS('',8,(#423,#424,#425,#426,#427,#428,
    #429,#430,#431,#432,#433,#434,#435,#436,#437,#438,#439,#440,#441,
    #442,#443,#444,#445,#446,#447,#448,#449,#450,#451,#452,#453,#454,
    #455,#456,#457,#458,#459,#460,#461,#462,#463,#464,#465,#466,#467,
    #468,#469,#470,#471,#472,#473,#474,#475,#476,#477,#478,#479,#480,
    #481,#482,#483,#484,#485,#486,#487),.UNSPECIFIED.,.F.,.F.,(9,7,7,7,7
    ,7,7,7,7,9),(0.,7.193268011236E-02,0.116347626952,0.237485292858,
    0.457372751507,0.641479183675,0.734762519282,0.836578337789,
    0.903785671808,1.),.UNSPECIFIED.);
#423 = CARTESIAN_POINT('',(0.567013713017,0.529610957198));
#424 = CARTESIAN_POINT('',(0.56715372905,0.52896817606));
#425 = CARTESIAN_POINT('',(0.566882190248,0.528334673847));
#426 = CARTESIAN_POINT('',(0.566242539751,0.527738603159));
#427 = CARTESIAN_POINT('',(0.56531810716,0.527193121286));
#428 = CARTESIAN_POINT('',(0.564206506555,0.526700296567));
#429 = CARTESIAN_POINT('',(0.562994034517,0.526255014745));
#430 = CARTESIAN_POINT('',(0.561730068144,0.525848885326));
#431 = CARTESIAN_POINT('',(0.559581113785,0.525242765739));
#432 = CARTESIAN_POINT('',(0.558738666395,0.525023071348));
#433 = CARTESIAN_POINT('',(0.557877982376,0.52481383449));
#434 = CARTESIAN_POINT('',(0.557002275971,0.524613975376));
#435 = CARTESIAN_POINT('',(0.55611411419,0.524422564696));
#436 = CARTESIAN_POINT('',(0.555215416819,0.524238823623));
#437 = CARTESIAN_POINT('',(0.554307456412,0.524062123807));
#438 = CARTESIAN_POINT('',(0.550890921586,0.523427955996));
#439 = CARTESIAN_POINT('',(0.548331227186,0.523012998045));
#440 = CARTESIAN_POINT('',(0.545730549871,0.522635409144));
#441 = CARTESIAN_POINT('',(0.543099438937,0.522290008472));
#442 = CARTESIAN_POINT('',(0.540445931657,0.521972290749));
#443 = CARTESIAN_POINT('',(0.537774489675,0.521679381172));
#444 = CARTESIAN_POINT('',(0.535087434775,0.52140873081));
#445 = CARTESIAN_POINT('',(0.527478365716,0.520703964032));
#446 = CARTESIAN_POINT('',(0.522529005364,0.520317258702));
#447 = CARTESIAN_POINT('',(0.517548051747,0.519987172475));
#448 = CARTESIAN_POINT('',(0.512543274977,0.519708795832));
#449 = CARTESIAN_POINT('',(0.507520805733,0.519478509719));
#450 = CARTESIAN_POINT('',(0.502484872344,0.519294496078));
#451 = CARTESIAN_POINT('',(0.497438335436,0.519155744527));
#452 = CARTESIAN_POINT('',(0.488149461352,0.518984192346));
#453 = CARTESIAN_POINT('',(0.483911506005,0.518937852609));
#454 = CARTESIAN_POINT('',(0.479670247667,0.518923384438));
#455 = CARTESIAN_POINT('',(0.475427594406,0.518941308227));
#456 = CARTESIAN_POINT('',(0.471185822076,0.518992595534));
#457 = CARTESIAN_POINT('',(0.466947588636,0.519078665392));
#458 = CARTESIAN_POINT('',(0.462715969532,0.519201505683));
#459 = CARTESIAN_POINT('',(0.456355627758,0.519446349952));
#460 = CARTESIAN_POINT('',(0.454219458915,0.519538867062));
#461 = CARTESIAN_POINT('',(0.452086511465,0.519641936174));
#462 = CARTESIAN_POINT('',(0.449957382795,0.519755990624));
#463 = CARTESIAN_POINT('',(0.447832798259,0.519881527487));
#464 = CARTESIAN_POINT('',(0.44571361988,0.520019122992));
#465 = CARTESIAN_POINT('',(0.443600860692,0.520169459432));
#466 = CARTESIAN_POINT('',(0.439197993373,0.520512259776));
#467 = CARTESIAN_POINT('',(0.436909835577,0.520707280229));
#468 = CARTESIAN_POINT('',(0.43463233933,0.520919527556));
#469 = CARTESIAN_POINT('',(0.432367344768,0.521150276588));
#470 = CARTESIAN_POINT('',(0.430117515899,0.521401061132));
#471 = CARTESIAN_POINT('',(0.427886371881,0.521673706872));
#472 = CARTESIAN_POINT('',(0.425678439435,0.521970498411));
#473 = CARTESIAN_POINT('',(0.422061554953,0.522508648974));
#474 = CARTESIAN_POINT('',(0.42063675639,0.522734464667));
#475 = CARTESIAN_POINT('',(0.419226665177,0.522973085256));
#476 = CARTESIAN_POINT('',(0.417833489119,0.523225581117));
#477 = CARTESIAN_POINT('',(0.41646039887,0.523493183734));
#478 = CARTESIAN_POINT('',(0.415111556926,0.523777305851));
#479 = CARTESIAN_POINT('',(0.413792294786,0.524079660979));
#480 = CARTESIAN_POINT('',(0.410673447082,0.524864974302));
#481 = CARTESIAN_POINT('',(0.40892833683,0.52536549384));
#482 = CARTESIAN_POINT('',(0.407267360592,0.525916489328));
#483 = CARTESIAN_POINT('',(0.405723295023,0.526527819397));
#484 = CARTESIAN_POINT('',(0.404374623748,0.527206886528));
#485 = CARTESIAN_POINT('',(0.403316915931,0.527954075281));
#486 = CARTESIAN_POINT('',(0.402691399996,0.528765867539));
#487 = CARTESIAN_POINT('',(0.402581187619,0.529614732928));
#488 = ( GEOMETRIC_REPRESENTATION_CONTEXT(2) 
PARAMETRIC_REPRESENTATION_CONTEXT() REPRESENTATION_CONTEXT('2D SPACE',''
  ) );
#489 = ORIENTED_EDGE('',*,*,#490,.F.);
#490 = EDGE_CURVE('',#491,#22,#493,.T.);
#491 = VERTEX_POINT('',#492);
#492 = CARTESIAN_POINT('',(43.5,-300.,6.));
#493 = SEAM_CURVE('',#494,(#498,#505),.PCURVE_S1.);
#494 = LINE('',#495,#496);
#495 = CARTESIAN_POINT('',(43.5,-300.,6.));
#496 = VECTOR('',#497,1.);
#497 = DIRECTION('',(0.,0.,1.));
#498 = PCURVE('',#94,#499);
#499 = DEFINITIONAL_REPRESENTATION('',(#500),#504);
#500 = LINE('',#501,#502);
#501 = CARTESIAN_POINT('',(6.28318530718,-0.));
#502 = VECTOR('',#503,1.);
#503 = DIRECTION('',(0.,1.));
#504 = ( GEOMETRIC_REPRESENTATION_CONTEXT(2) 
PARAMETRIC_REPRESENTATION_CONTEXT() REPRESENTATION_CONTEXT('2D SPACE',''
  ) );
#505 = PCURVE('',#94,#506);
#506 = DEFINITIONAL_REPRESENTATION('',(#507),#511);
#507 = LINE('',#508,#509);
#508 = CARTESIAN_POINT('',(0.,-0.));
#509 = VECTOR('',#510,1.);
#510 = DIRECTION('',(0.,1.));
#511 = ( GEOMETRIC_REPRESENTATION_CONTEXT(2) 
PARAMETRIC_REPRESENTATION_CONTEXT() REPRESENTATION_CONTEXT('2D SPACE',''
  ) );
#512 = ORIENTED_EDGE('',*,*,#513,.T.);
#513 = EDGE_CURVE('',#491,#491,#514,.T.);
#514 = SURFACE_CURVE('',#515,(#520,#527),.PCURVE_S1.);
#515 = CIRCLE('',#516,3.5);
#516 = AXIS2_PLACEMENT_3D('',#517,#518,#519);
#517 = CARTESIAN_POINT('',(40.,-300.,6.));
#518 = DIRECTION('',(0.,0.,1.));
#519 = DIRECTION('',(1.,0.,-0.));
#520 = PCURVE('',#94,#521);
#521 = DEFINITIONAL_REPRESENTATION('',(#522),#526);
#522 = LINE('',#523,#524);
#523 = CARTESIAN_POINT('',(0.,0.));
#524 = VECTOR('',#525,1.);
#525 = DIRECTION('',(1.,0.));
#526 = ( GEOMETRIC_REPRESENTATION_CONTEXT(2) 
PARAMETRIC_REPRESENTATION_CONTEXT() REPRESENTATION_CONTEXT('2D SPACE',''
  ) );
#527 = PCURVE('',#528,#533);
#528 = PLANE('',#529);
#529 = AXIS2_PLACEMENT_3D('',#530,#531,#532);
#530 = CARTESIAN_POINT('',(40.,-300.,6.));
#531 = DIRECTION('',(0.,0.,1.));
#532 = DIRECTION('',(1.,0.,-0.));
#533 = DEFINITIONAL_REPRESENTATION('',(#534),#538);
#534 = CIRCLE('',#535,3.5);
#535 = AXIS2_PLACEMENT_2D('',#536,#537);
#536 = CARTESIAN_POINT('',(0.,0.));
#537 = DIRECTION('',(1.,0.));
#538 = ( GEOMETRIC_REPRESENTATION_CONTEXT(2) 
PARAMETRIC_REPRESENTATION_CONTEXT() REPRESENTATION_CONTEXT('2D SPACE',''
  ) );
#539 = ORIENTED_EDGE('',*,*,#490,.T.);
#540 = ORIENTED_EDGE('',*,*,#541,.F.);
#541 = EDGE_CURVE('',#24,#22,#542,.T.);
#542 = SURFACE_CURVE('',#543,(#616,#692),.PCURVE_S1.);
#543 = B_SPLINE_CURVE_WITH_KNOTS('',8,(#544,#545,#546,#547,#548,#549,
    #550,#551,#552,#553,#554,#555,#556,#557,#558,#559,#560,#561,#562,
    #563,#564,#565,#566,#567,#568,#569,#570,#571,#572,#573,#574,#575,
    #576,#577,#578,#579,#580,#581,#582,#583,#584,#585,#586,#587,#588,
    #589,#590,#591,#592,#593,#594,#595,#596,#597,#598,#599,#600,#601,
    #602,#603,#604,#605,#606,#607,#608,#609,#610,#611,#612,#613,#614,
    #615),.UNSPECIFIED.,.F.,.F.,(9,7,7,7,7,7,7,7,7,7,9),(0.,
    8.273122791902E-02,0.150764872928,0.268691041454,0.383281624631,
    0.549514190655,0.704062139334,0.783062281061,0.870729085121,
    0.927529724307,1.),.UNSPECIFIED.);
#544 = CARTESIAN_POINT('',(36.500000219191,-300.0012386832,
    54.661602323793));
#545 = CARTESIAN_POINT('',(36.500085534722,-300.2423046172,
    54.675017312502));
#546 = CARTESIAN_POINT('',(36.519215512604,-300.4826624387,
    54.655767911408));
#547 = CARTESIAN_POINT('',(36.556871413905,-300.7115560953,
    54.604183724302));
#548 = CARTESIAN_POINT('',(36.609237362768,-300.9243697314,
    54.526387528213));
#549 = CARTESIAN_POINT('',(36.671818107676,-301.1197384874,
    54.429819697693));
#550 = CARTESIAN_POINT('',(36.740988490226,-301.2977825045,
    54.320576847972));
#551 = CARTESIAN_POINT('',(36.814474621427,-301.4594641343,
    54.202564696957));
#552 = CARTESIAN_POINT('',(36.953505259556,-301.7284500051,
    53.976412450854));
#553 = CARTESIAN_POINT('',(37.018537976126,-301.8409945585,
    53.869593343012));
#554 = CARTESIAN_POINT('',(37.085275014326,-301.9458658505,
    53.759055276664));
#555 = CARTESIAN_POINT('',(37.153286395055,-302.043856892,
    53.645559789853));
#556 = CARTESIAN_POINT('',(37.222247126989,-302.1356249686,
    53.529687833324));
#557 = CARTESIAN_POINT('',(37.291922599317,-302.2217545209,
    53.411865391903));
#558 = CARTESIAN_POINT('',(37.362168103769,-302.3027539533,
    53.292360700319));
#559 = CARTESIAN_POINT('',(37.555547706221,-302.51141403,52.961471250696
    ));
#560 = CARTESIAN_POINT('',(37.679482724085,-302.6295075765,
    52.747329827649));
#561 = CARTESIAN_POINT('',(37.804159161298,-302.735659674,
    52.529933272442));
#562 = CARTESIAN_POINT('',(37.929186244875,-302.8312507855,
    52.310008229624));
#563 = CARTESIAN_POINT('',(38.05427318231,-302.9174093439,
    52.088107028143));
#564 = CARTESIAN_POINT('',(38.179228081695,-302.9950014129,
    51.864602538686));
#565 = CARTESIAN_POINT('',(38.303938961145,-303.0647627759,
    51.639721644549));
#566 = CARTESIAN_POINT('',(38.549284342643,-303.1880615411,
    51.193760627496));
#567 = CARTESIAN_POINT('',(38.669870727533,-303.2419707057,
    50.972868630656));
#568 = CARTESIAN_POINT('',(38.790043720843,-303.2895617489,
    50.751041714929));
#569 = CARTESIAN_POINT('',(38.909731509168,-303.3312558345,
    50.528425712635));
#570 = CARTESIAN_POINT('',(39.028875686393,-303.3673942992,
    50.305141049332));
#571 = CARTESIAN_POINT('',(39.147429980516,-303.3982631938,
    50.08128542188));
#572 = CARTESIAN_POINT('',(39.265359381978,-303.4241056525,
    49.856935041754));
#573 = CARTESIAN_POINT('',(39.552774105728,-303.4756099078,
    49.306048555773));
#574 = CARTESIAN_POINT('',(39.721521933503,-303.495939103,
    48.979065811287));
#575 = CARTESIAN_POINT('',(39.888800686958,-303.5067263084,
    48.651380709479));
#576 = CARTESIAN_POINT('',(40.05453633278,-303.5084161384,
    48.323159569962));
#577 = CARTESIAN_POINT('',(40.218663351708,-303.5013281056,
    47.994552024161));
#578 = CARTESIAN_POINT('',(40.381124396108,-303.4856824772,
    47.665692070458));
#579 = CARTESIAN_POINT('',(40.541869527628,-303.4616050715,
    47.33669869293));
#580 = CARTESIAN_POINT('',(40.84866532632,-303.3989009536,46.70178065428
    ));
#581 = CARTESIAN_POINT('',(40.994939992925,-303.3614192221,
    46.39589035793));
#582 = CARTESIAN_POINT('',(41.139645346932,-303.3166805871,
    46.090087006943));
#583 = CARTESIAN_POINT('',(41.282738157016,-303.2646239379,
    45.784470852436));
#584 = CARTESIAN_POINT('',(41.424165335529,-303.2051041207,
    45.479162209325));
#585 = CARTESIAN_POINT('',(41.563863830596,-303.1378847335,
    45.174302585783));
#586 = CARTESIAN_POINT('',(41.70175872274,-303.0626056324,
    44.870058286822));
#587 = CARTESIAN_POINT('',(41.907275916462,-302.9358084034,
    44.411526071076));
#588 = CARTESIAN_POINT('',(41.976296160343,-302.8906651067,
    44.256641771187));
#589 = CARTESIAN_POINT('',(42.044806048198,-302.8431936395,
    44.10200314894));
#590 = CARTESIAN_POINT('',(42.112790078901,-302.7933046698,
    43.947643678303));
#591 = CARTESIAN_POINT('',(42.180229421777,-302.7408936183,
    43.793603988949));
#592 = CARTESIAN_POINT('',(42.247101567108,-302.6858362865,
    43.63993263287));
#593 = CARTESIAN_POINT('',(42.313379664643,-302.627981421,
    43.486687388925));
#594 = CARTESIAN_POINT('',(42.451885735563,-302.4996244616,
    43.164429445073));
#595 = CARTESIAN_POINT('',(42.523954610536,-302.428444522,
    42.995564268295));
#596 = CARTESIAN_POINT('',(42.595207289384,-302.353330825,
    42.827405937137));
#597 = CARTESIAN_POINT('',(42.665591607585,-302.2739698874,
    42.660065423707));
#598 = CARTESIAN_POINT('',(42.735030186016,-302.1899727518,
    42.493709488848));
#599 = CARTESIAN_POINT('',(42.803419826926,-302.1008646621,
    42.328563311799));
#600 = CARTESIAN_POINT('',(42.870624640603,-302.0060281821,
    42.164925046545));
#601 = CARTESIAN_POINT('',(42.979104680086,-301.8387710418,
    41.898433678664));
#602 = CARTESIAN_POINT('',(43.021159721988,-301.7702531963,
    41.794510649081));
#603 = CARTESIAN_POINT('',(43.062575804883,-301.6986851093,
    41.691530833335));
#604 = CARTESIAN_POINT('',(43.10328916735,-301.6237771175,
    41.589633899342));
#605 = CARTESIAN_POINT('',(43.14320600557,-301.5451953105,
    41.489029785881));
#606 = CARTESIAN_POINT('',(43.182193569794,-301.4625136276,
    41.390018446984));
#607 = CARTESIAN_POINT('',(43.220071260819,-301.3751659546,
    41.293009596327));
#608 = CARTESIAN_POINT('',(43.303209880036,-301.1640385788,
    41.078014582232));
#609 = CARTESIAN_POINT('',(43.346905822893,-301.0383100495,
    40.963482927239));
#610 = CARTESIAN_POINT('',(43.388394056995,-300.9021681603,
    40.853029422693));
#611 = CARTESIAN_POINT('',(43.426825540505,-300.7526163442,
    40.748557151145));
#612 = CARTESIAN_POINT('',(43.460179311014,-300.5873835254,
    40.654911177599));
#613 = CARTESIAN_POINT('',(43.485644108785,-300.405601707,
    40.578999385468));
#614 = CARTESIAN_POINT('',(43.5,-300.2084835579,40.528913312526));
#615 = CARTESIAN_POINT('',(43.5,-300.,40.513048986865));
#616 = PCURVE('',#94,#617);
#617 = DEFINITIONAL_REPRESENTATION('',(#618),#691);
#618 = B_SPLINE_CURVE_WITH_KNOTS('',8,(#619,#620,#621,#622,#623,#624,
    #625,#626,#627,#628,#629,#630,#631,#632,#633,#634,#635,#636,#637,
    #638,#639,#640,#641,#642,#643,#644,#645,#646,#647,#648,#649,#650,
    #651,#652,#653,#654,#655,#656,#657,#658,#659,#660,#661,#662,#663,
    #664,#665,#666,#667,#668,#669,#670,#671,#672,#673,#674,#675,#676,
    #677,#678,#679,#680,#681,#682,#683,#684,#685,#686,#687,#688,#689,
    #690),.UNSPECIFIED.,.F.,.F.,(9,7,7,7,7,7,7,7,7,7,9),(0.,
    8.273122791902E-02,0.150764872928,0.268691041454,0.383281624631,
    0.549514190655,0.704062139334,0.783062281061,0.870729085121,
    0.927529724307,1.),.UNSPECIFIED.);
#619 = CARTESIAN_POINT('',(3.141946563102,48.661602323793));
#620 = CARTESIAN_POINT('',(3.210822548541,48.675017312502));
#621 = CARTESIAN_POINT('',(3.279489083244,48.655767911408));
#622 = CARTESIAN_POINT('',(3.345416235328,48.604183724302));
#623 = CARTESIAN_POINT('',(3.407678621958,48.526387528213));
#624 = CARTESIAN_POINT('',(3.466048567545,48.429819697693));
#625 = CARTESIAN_POINT('',(3.520506969273,48.320576847972));
#626 = CARTESIAN_POINT('',(3.571171869938,48.202564696957));
#627 = CARTESIAN_POINT('',(3.657683833043,47.976412450854));
#628 = CARTESIAN_POINT('',(3.694780963703,47.869593343012));
#629 = CARTESIAN_POINT('',(3.730244499517,47.759055276664));
#630 = CARTESIAN_POINT('',(3.764273034801,47.645559789853));
#631 = CARTESIAN_POINT('',(3.797026541031,47.529687833324));
#632 = CARTESIAN_POINT('',(3.828647753984,47.411865391903));
#633 = CARTESIAN_POINT('',(3.85926425731,47.292360700319));
#634 = CARTESIAN_POINT('',(3.940547183822,46.961471250696));
#635 = CARTESIAN_POINT('',(3.989364270726,46.747329827649));
#636 = CARTESIAN_POINT('',(4.036031358512,46.529933272442));
#637 = CARTESIAN_POINT('',(4.080879015369,46.310008229624));
#638 = CARTESIAN_POINT('',(4.124175126182,46.088107028143));
#639 = CARTESIAN_POINT('',(4.16612530745,45.864602538686));
#640 = CARTESIAN_POINT('',(4.206912849987,45.639721644549));
#641 = CARTESIAN_POINT('',(4.285365717266,45.193760627496));
#642 = CARTESIAN_POINT('',(4.323066561917,44.972868630656));
#643 = CARTESIAN_POINT('',(4.359939109843,44.751041714929));
#644 = CARTESIAN_POINT('',(4.396089296171,44.528425712635));
#645 = CARTESIAN_POINT('',(4.431604742567,44.305141049332));
#646 = CARTESIAN_POINT('',(4.466561924199,44.08128542188));
#647 = CARTESIAN_POINT('',(4.501030185546,43.856935041754));
#648 = CARTESIAN_POINT('',(4.584456756824,43.306048555773));
#649 = CARTESIAN_POINT('',(4.632939140352,42.979065811287));
#650 = CARTESIAN_POINT('',(4.680710431265,42.651380709479));
#651 = CARTESIAN_POINT('',(4.727928926309,42.323159569962));
#652 = CARTESIAN_POINT('',(4.77473421321,41.994552024161));
#653 = CARTESIAN_POINT('',(4.821258094337,41.665692070458));
#654 = CARTESIAN_POINT('',(4.867632764201,41.33669869293));
#655 = CARTESIAN_POINT('',(4.957100792237,40.70178065428));
#656 = CARTESIAN_POINT('',(5.000191491258,40.39589035793));
#657 = CARTESIAN_POINT('',(5.043380229942,40.090087006943));
#658 = CARTESIAN_POINT('',(5.086779785167,39.784470852436));
#659 = CARTESIAN_POINT('',(5.13051133518,39.479162209325));
#660 = CARTESIAN_POINT('',(5.174709568781,39.174302585783));
#661 = CARTESIAN_POINT('',(5.219533430715,38.870058286822));
#662 = CARTESIAN_POINT('',(5.28852905565,38.411526071076));
#663 = CARTESIAN_POINT('',(5.312084409656,38.256641771187));
#664 = CARTESIAN_POINT('',(5.335884275554,38.10200314894));
#665 = CARTESIAN_POINT('',(5.359959240723,37.947643678303));
#666 = CARTESIAN_POINT('',(5.384343297179,37.793603988949));
#667 = CARTESIAN_POINT('',(5.409075151701,37.63993263287));
#668 = CARTESIAN_POINT('',(5.434200362231,37.486687388925));
#669 = CARTESIAN_POINT('',(5.488153812109,37.164429445073));
#670 = CARTESIAN_POINT('',(5.517080329202,36.995564268295));
#671 = CARTESIAN_POINT('',(5.546634752969,36.827405937137));
#672 = CARTESIAN_POINT('',(5.576907013603,36.660065423707));
#673 = CARTESIAN_POINT('',(5.608005645917,36.493709488848));
#674 = CARTESIAN_POINT('',(5.640061270027,36.328563311799));
#675 = CARTESIAN_POINT('',(5.673243059469,36.164925046545));
#676 = CARTESIAN_POINT('',(5.730201956175,35.898433678664));
#677 = CARTESIAN_POINT('',(5.753164173958,35.794510649081));
#678 = CARTESIAN_POINT('',(5.776776553418,35.691530833335));
#679 = CARTESIAN_POINT('',(5.801118327385,35.589633899342));
#680 = CARTESIAN_POINT('',(5.82627968732,35.489029785881));
#681 = CARTESIAN_POINT('',(5.852376130089,35.390018446984));
#682 = CARTESIAN_POINT('',(5.879562804738,35.293009596327));
#683 = CARTESIAN_POINT('',(5.944393383808,35.078014582232));
#684 = CARTESIAN_POINT('',(5.982402666421,34.963482927239));
#685 = CARTESIAN_POINT('',(6.023003383472,34.853029422693));
#686 = CARTESIAN_POINT('',(6.067015013847,34.748557151145));
#687 = CARTESIAN_POINT('',(6.115031570608,34.654911177599));
#688 = CARTESIAN_POINT('',(6.167303332647,34.578999385468));
#689 = CARTESIAN_POINT('',(6.223618576335,34.528913312526));
#690 = CARTESIAN_POINT('',(6.28318530718,34.513048986865));
#691 = ( GEOMETRIC_REPRESENTATION_CONTEXT(2) 
PARAMETRIC_REPRESENTATION_CONTEXT() REPRESENTATION_CONTEXT('2D SPACE',''
  ) );
#692 = PCURVE('',#168,#693);
#693 = DEFINITIONAL_REPRESENTATION('',(#694),#767);
#694 = B_SPLINE_CURVE_WITH_KNOTS('',8,(#695,#696,#697,#698,#699,#700,
    #701,#702,#703,#704,#705,#706,#707,#708,#709,#710,#711,#712,#713,
    #714,#715,#716,#717,#718,#719,#720,#721,#722,#723,#724,#725,#726,
    #727,#728,#729,#730,#731,#732,#733,#734,#735,#736,#737,#738,#739,
    #740,#741,#742,#743,#744,#745,#746,#747,#748,#749,#750,#751,#752,
    #753,#754,#755,#756,#757,#758,#759,#760,#761,#762,#763,#764,#765,
    #766),.UNSPECIFIED.,.F.,.F.,(9,7,7,7,7,7,7,7,7,7,9),(0.,
    8.273122791902E-02,0.150764872928,0.268691041454,0.383281624631,
    0.549514190655,0.704062139334,0.783062281061,0.870729085121,
    0.927529724307,1.),.UNSPECIFIED.);
#695 = CARTESIAN_POINT('',(0.402581187619,0.529614732928));
#696 = CARTESIAN_POINT('',(0.402485783254,0.53034954572));
#697 = CARTESIAN_POINT('',(0.402781749914,0.531082331599));
#698 = CARTESIAN_POINT('',(0.403462129554,0.53178030507));
#699 = CARTESIAN_POINT('',(0.404451755467,0.532429367127));
#700 = CARTESIAN_POINT('',(0.405660569145,0.533025321343));
#701 = CARTESIAN_POINT('',(0.40701526222,0.533568504498));
#702 = CARTESIAN_POINT('',(0.408469243507,0.534061831743));
#703 = CARTESIAN_POINT('',(0.41124228399,0.534882660843));
#704 = CARTESIAN_POINT('',(0.412547369841,0.535226136155));
#705 = CARTESIAN_POINT('',(0.413893894652,0.535546224605));
#706 = CARTESIAN_POINT('',(0.415272914041,0.535845339618));
#707 = CARTESIAN_POINT('',(0.416677627807,0.536125481875));
#708 = CARTESIAN_POINT('',(0.418103081487,0.53638843081));
#709 = CARTESIAN_POINT('',(0.419546189761,0.536635734771));
#710 = CARTESIAN_POINT('',(0.423534987057,0.537272847398));
#711 = CARTESIAN_POINT('',(0.426108882823,0.537633476037));
#712 = CARTESIAN_POINT('',(0.428715142984,0.537957673462));
#713 = CARTESIAN_POINT('',(0.431345433191,0.538249644106));
#714 = CARTESIAN_POINT('',(0.433993462164,0.538512825383));
#715 = CARTESIAN_POINT('',(0.436655024502,0.538749855939));
#716 = CARTESIAN_POINT('',(0.439327620042,0.538962977934));
#717 = CARTESIAN_POINT('',(0.444617438977,0.539339677234));
#718 = CARTESIAN_POINT('',(0.44723271798,0.53950438971));
#719 = CARTESIAN_POINT('',(0.449854375188,0.539649805673));
#720 = CARTESIAN_POINT('',(0.452480801512,0.539777208844));
#721 = CARTESIAN_POINT('',(0.45511067401,0.539887639831));
#722 = CARTESIAN_POINT('',(0.457742929553,0.539981970891));
#723 = CARTESIAN_POINT('',(0.460376750961,0.540060943587));
#724 = CARTESIAN_POINT('',(0.46683379943,0.540218339462));
#725 = CARTESIAN_POINT('',(0.470657660451,0.540280467747));
#726 = CARTESIAN_POINT('',(0.474481195189,0.54031343549));
#727 = CARTESIAN_POINT('',(0.478302634395,0.540318599995));
#728 = CARTESIAN_POINT('',(0.482120386255,0.540296937538));
#729 = CARTESIAN_POINT('',(0.485933029452,0.540249122109));
#730 = CARTESIAN_POINT('',(0.489739306103,0.540175539989));
#731 = CARTESIAN_POINT('',(0.497069901798,0.539983920141));
#732 = CARTESIAN_POINT('',(0.500594883001,0.539869380983));
#733 = CARTESIAN_POINT('',(0.504112196731,0.539732670083));
#734 = CARTESIAN_POINT('',(0.507620758627,0.539573603646));
#735 = CARTESIAN_POINT('',(0.51111924444,0.539391741848));
#736 = CARTESIAN_POINT('',(0.51460607868,0.53918636689));
#737 = CARTESIAN_POINT('',(0.518079390298,0.538956383978));
#738 = CARTESIAN_POINT('',(0.523304267438,0.538569043125));
#739 = CARTESIAN_POINT('',(0.525067439422,0.538431144345));
#740 = CARTESIAN_POINT('',(0.526826110346,0.538286139594));
#741 = CARTESIAN_POINT('',(0.528579896956,0.538133757034));
#742 = CARTESIAN_POINT('',(0.530328332712,0.537973678378));
#743 = CARTESIAN_POINT('',(0.532070858695,0.537805525573));
#744 = CARTESIAN_POINT('',(0.533806807853,0.537628838144));
#745 = CARTESIAN_POINT('',(0.537453589587,0.537236861515));
#746 = CARTESIAN_POINT('',(0.539362342359,0.537019504662));
#747 = CARTESIAN_POINT('',(0.541260888424,0.536790149737));
#748 = CARTESIAN_POINT('',(0.543147938456,0.536547842121));
#749 = CARTESIAN_POINT('',(0.54502155968,0.536291397331));
#750 = CARTESIAN_POINT('',(0.546879147134,0.536019369579));
#751 = CARTESIAN_POINT('',(0.5487172515,0.53572987846));
#752 = CARTESIAN_POINT('',(0.551706224438,0.535219368786));
#753 = CARTESIAN_POINT('',(0.55287068138,0.535010246868));
#754 = CARTESIAN_POINT('',(0.554023365124,0.534791827882));
#755 = CARTESIAN_POINT('',(0.555162657006,0.53456322956));
#756 = CARTESIAN_POINT('',(0.556286137712,0.534323434986));
#757 = CARTESIAN_POINT('',(0.557390357384,0.534071146653));
#758 = CARTESIAN_POINT('',(0.558470605731,0.533804640524));
#759 = CARTESIAN_POINT('',(0.560860443941,0.533160522585));
#760 = CARTESIAN_POINT('',(0.562130398094,0.532776979995));
#761 = CARTESIAN_POINT('',(0.563351634805,0.532361707503));
#762 = CARTESIAN_POINT('',(0.564502202628,0.531905578215));
#763 = CARTESIAN_POINT('',(0.565527133728,0.531401685206));
#764 = CARTESIAN_POINT('',(0.566348469145,0.530847403571));
#765 = CARTESIAN_POINT('',(0.566875284052,0.530246452474));
#766 = CARTESIAN_POINT('',(0.567013713017,0.529610957198));
#767 = ( GEOMETRIC_REPRESENTATION_CONTEXT(2) 
PARAMETRIC_REPRESENTATION_CONTEXT() REPRESENTATION_CONTEXT('2D SPACE',''
  ) );
#768 = ADVANCED_FACE('',(#769,#773),#168,.F.);
#769 = FACE_BOUND('',#770,.F.);
#770 = EDGE_LOOP('',(#771,#772));
#771 = ORIENTED_EDGE('',*,*,#541,.F.);
#772 = ORIENTED_EDGE('',*,*,#21,.F.);
#773 = FACE_BOUND('',#774,.F.);
#774 = EDGE_LOOP('',(#775,#949));
#775 = ORIENTED_EDGE('',*,*,#776,.T.);
#776 = EDGE_CURVE('',#777,#779,#781,.T.);
#777 = VERTEX_POINT('',#778);
#778 = CARTESIAN_POINT('',(41.1,-300.,45.986200583544));
#779 = VERTEX_POINT('',#780);
#780 = CARTESIAN_POINT('',(39.305162548972,-299.1472392383,
    49.550838981672));
#781 = SURFACE_CURVE('',#782,(#834,#889),.PCURVE_S1.);
#782 = B_SPLINE_CURVE_WITH_KNOTS('',8,(#783,#784,#785,#786,#787,#788,
    #789,#790,#791,#792,#793,#794,#795,#796,#797,#798,#799,#800,#801,
    #802,#803,#804,#805,#806,#807,#808,#809,#810,#811,#812,#813,#814,
    #815,#816,#817,#818,#819,#820,#821,#822,#823,#824,#825,#826,#827,
    #828,#829,#830,#831,#832,#833),.UNSPECIFIED.,.F.,.F.,(9,7,7,7,7,7,7,
    9),(0.,5.578830161356E-02,9.214691594431E-02,0.150875409377,
    0.339107794958,0.633894524964,0.811229016542,1.),.UNSPECIFIED.);
#783 = CARTESIAN_POINT('',(41.1,-300.,45.986200583544));
#784 = CARTESIAN_POINT('',(41.1,-299.9679235843,45.984046709415));
#785 = CARTESIAN_POINT('',(41.098931038259,-299.935656044,
    45.984135315801));
#786 = CARTESIAN_POINT('',(41.096770707812,-299.9034923885,
    45.986533964677));
#787 = CARTESIAN_POINT('',(41.093546016619,-299.8716799971,
    45.991201949478));
#788 = CARTESIAN_POINT('',(41.089319427816,-299.8404221785,
    45.998020046619));
#789 = CARTESIAN_POINT('',(41.084176846408,-299.8098818421,
    46.006816298519));
#790 = CARTESIAN_POINT('',(41.07821755243,-299.7801852819,46.01738782811
    ));
#791 = CARTESIAN_POINT('',(41.067198117497,-299.7326829857,
    46.037424663854));
#792 = CARTESIAN_POINT('',(41.062543937757,-299.7143221868,46.0459997403
    ));
#793 = CARTESIAN_POINT('',(41.057608461904,-299.6963564748,
    46.055191696566));
#794 = CARTESIAN_POINT('',(41.052415700912,-299.6787925344,
    46.06494984044));
#795 = CARTESIAN_POINT('',(41.046988288682,-299.6616317238,
    46.075226049635));
#796 = CARTESIAN_POINT('',(41.041347014587,-299.6448708615,
    46.085975816314));
#797 = CARTESIAN_POINT('',(41.035510356018,-299.6285030139,
    46.097159291607));
#798 = CARTESIAN_POINT('',(41.019776069534,-299.5866988385,
    46.127451910093));
#799 = CARTESIAN_POINT('',(41.009592923155,-299.5618878808,
    46.147196983883));
#800 = CARTESIAN_POINT('',(40.999009907262,-299.5380378371,
    46.167834942907));
#801 = CARTESIAN_POINT('',(40.988082875602,-299.5151017463,
    46.189243493939));
#802 = CARTESIAN_POINT('',(40.976858565388,-299.4930328976,
    46.211319812222));
#803 = CARTESIAN_POINT('',(40.96537496249,-299.4717844711,
    46.233979694555));
#804 = CARTESIAN_POINT('',(40.953661666617,-299.4513091769,
    46.257156712397));
#805 = CARTESIAN_POINT('',(40.903530601672,-299.3682566996,
    46.356585521804));
#806 = CARTESIAN_POINT('',(40.86328441036,-299.3125709175,46.43697249272
    ));
#807 = CARTESIAN_POINT('',(40.821682589793,-299.2627964553,
    46.520387371467));
#808 = CARTESIAN_POINT('',(40.779101171823,-299.2181939379,
    46.605974195836));
#809 = CARTESIAN_POINT('',(40.735831732348,-299.1780550887,
    46.693064201314));
#810 = CARTESIAN_POINT('',(40.692027148058,-299.1419153244,
    46.781300445526));
#811 = CARTESIAN_POINT('',(40.647759443105,-299.1093419293,
    46.870497500758));
#812 = CARTESIAN_POINT('',(40.532902678587,-299.0340604461,
    47.101923188552));
#813 = CARTESIAN_POINT('',(40.461857658268,-298.9962206385,
    47.245067823686));
#814 = CARTESIAN_POINT('',(40.39011260445,-298.9653204269,
    47.389504005091));
#815 = CARTESIAN_POINT('',(40.317838064148,-298.9407868272,
    47.534828949669));
#816 = CARTESIAN_POINT('',(40.245172106474,-298.922197992,
    47.680723727312));
#817 = CARTESIAN_POINT('',(40.172216866157,-298.9093184667,
    47.826960900186));
#818 = CARTESIAN_POINT('',(40.099049537553,-298.9020160019,
    47.973373722198));
#819 = CARTESIAN_POINT('',(39.981612614045,-298.8992690037,
    48.207973764576));
#820 = CARTESIAN_POINT('',(39.93745763562,-298.9002594148,
    48.296090749785));
#821 = CARTESIAN_POINT('',(39.893276814567,-298.9032718685,
    48.384169237926));
#822 = CARTESIAN_POINT('',(39.849090622185,-298.9083226216,
    48.472169810342));
#823 = CARTESIAN_POINT('',(39.804921814513,-298.9154429388,
    48.56005001734));
#824 = CARTESIAN_POINT('',(39.760795865246,-298.9246799441,
    48.647763648158));
#825 = CARTESIAN_POINT('',(39.716741623758,-298.9360997483,
    48.735259727059));
#826 = CARTESIAN_POINT('',(39.626008426991,-298.9643690378,
    48.915327752863));
#827 = CARTESIAN_POINT('',(39.579353987161,-298.9815178401,
    49.007842180518));
#828 = CARTESIAN_POINT('',(39.532860357127,-299.001349885,
    49.099972654122));
#829 = CARTESIAN_POINT('',(39.486574584245,-299.0240048469,
    49.191639282584));
#830 = CARTESIAN_POINT('',(39.44056237967,-299.0496615353,
    49.282729445997));
#831 = CARTESIAN_POINT('',(39.394909373885,-299.0785410085,
    49.373096155198));
#832 = CARTESIAN_POINT('',(39.349726134635,-299.1109284115,
    49.462550471073));
#833 = CARTESIAN_POINT('',(39.305162548972,-299.1472392383,
    49.550838981672));
#834 = PCURVE('',#168,#835);
#835 = DEFINITIONAL_REPRESENTATION('',(#836),#888);
#836 = B_SPLINE_CURVE_WITH_KNOTS('',8,(#837,#838,#839,#840,#841,#842,
    #843,#844,#845,#846,#847,#848,#849,#850,#851,#852,#853,#854,#855,
    #856,#857,#858,#859,#860,#861,#862,#863,#864,#865,#866,#867,#868,
    #869,#870,#871,#872,#873,#874,#875,#876,#877,#878,#879,#880,#881,
    #882,#883,#884,#885,#886,#887),.UNSPECIFIED.,.F.,.F.,(9,7,7,7,7,7,7,
    9),(0.,5.578830161356E-02,9.214691594431E-02,0.150875409377,
    0.339107794958,0.633894524964,0.811229016542,1.),.UNSPECIFIED.);
#837 = CARTESIAN_POINT('',(0.504722064896,0.529610957198));
#838 = CARTESIAN_POINT('',(0.504739759507,0.52951318253));
#839 = CARTESIAN_POINT('',(0.504731552291,0.529414827603));
#840 = CARTESIAN_POINT('',(0.504696729377,0.5293167917));
#841 = CARTESIAN_POINT('',(0.504635813191,0.529219828796));
#842 = CARTESIAN_POINT('',(0.504550220519,0.529124558443));
#843 = CARTESIAN_POINT('',(0.504441966511,0.529031476992));
#844 = CARTESIAN_POINT('',(0.504313414612,0.528940969155));
#845 = CARTESIAN_POINT('',(0.504071697616,0.528796196724));
#846 = CARTESIAN_POINT('',(0.503968684713,0.528740239417));
#847 = CARTESIAN_POINT('',(0.503858637681,0.528685486933));
#848 = CARTESIAN_POINT('',(0.503742141602,0.528631959587));
#849 = CARTESIAN_POINT('',(0.503619750813,0.528579661462));
#850 = CARTESIAN_POINT('',(0.50349197704,0.528528582807));
#851 = CARTESIAN_POINT('',(0.503359277525,0.528478702442));
#852 = CARTESIAN_POINT('',(0.503000374444,0.528351307304));
#853 = CARTESIAN_POINT('',(0.502766956693,0.528275699199));
#854 = CARTESIAN_POINT('',(0.502523420982,0.528203020662));
#855 = CARTESIAN_POINT('',(0.502271164841,0.528133128405));
#856 = CARTESIAN_POINT('',(0.502011361815,0.528065879929));
#857 = CARTESIAN_POINT('',(0.501744971017,0.528001132424));
#858 = CARTESIAN_POINT('',(0.501472746683,0.527938741666));
#859 = CARTESIAN_POINT('',(0.500305827816,0.527685673881));
#860 = CARTESIAN_POINT('',(0.499364582947,0.527516003302));
#861 = CARTESIAN_POINT('',(0.498389256746,0.527364349942));
#862 = CARTESIAN_POINT('',(0.49738953789,0.527228459086));
#863 = CARTESIAN_POINT('',(0.496372975673,0.527106171101));
#864 = CARTESIAN_POINT('',(0.495343582037,0.526996069504));
#865 = CARTESIAN_POINT('',(0.494303394569,0.52689683509));
#866 = CARTESIAN_POINT('',(0.491605415835,0.526667495204));
#867 = CARTESIAN_POINT('',(0.489937411805,0.526552223219));
#868 = CARTESIAN_POINT('',(0.488254792048,0.526458093902));
#869 = CARTESIAN_POINT('',(0.486562078901,0.526383360266));
#870 = CARTESIAN_POINT('',(0.484862870779,0.52632673615));
#871 = CARTESIAN_POINT('',(0.483159758382,0.526287503666));
#872 = CARTESIAN_POINT('',(0.481454658049,0.526265259574));
#873 = CARTESIAN_POINT('',(0.478722657434,0.526256891925));
#874 = CARTESIAN_POINT('',(0.477696529657,0.526259908825));
#875 = CARTESIAN_POINT('',(0.47667087874,0.526269085069));
#876 = CARTESIAN_POINT('',(0.475646171481,0.526284470204));
#877 = CARTESIAN_POINT('',(0.474622914725,0.526306159531));
#878 = CARTESIAN_POINT('',(0.473601664301,0.526334296707));
#879 = CARTESIAN_POINT('',(0.472583037736,0.526369083277));
#880 = CARTESIAN_POINT('',(0.470486945587,0.526455197058));
#881 = CARTESIAN_POINT('',(0.46941016598,0.5265074361));
#882 = CARTESIAN_POINT('',(0.468338034448,0.526567849532));
#883 = CARTESIAN_POINT('',(0.467271529489,0.526636863186));
#884 = CARTESIAN_POINT('',(0.466212024609,0.526715022221));
#885 = CARTESIAN_POINT('',(0.465161309591,0.526803000639));
#886 = CARTESIAN_POINT('',(0.464121686259,0.526901667864));
#887 = CARTESIAN_POINT('',(0.463096250949,0.527012290778));
#888 = ( GEOMETRIC_REPRESENTATION_CONTEXT(2) 
PARAMETRIC_REPRESENTATION_CONTEXT() REPRESENTATION_CONTEXT('2D SPACE',''
  ) );
#889 = PCURVE('',#890,#895);
#890 = CYLINDRICAL_SURFACE('',#891,1.1);
#891 = AXIS2_PLACEMENT_3D('',#892,#893,#894);
#892 = CARTESIAN_POINT('',(40.,-300.,-10.));
#893 = DIRECTION('',(0.,0.,1.));
#894 = DIRECTION('',(1.,0.,-0.));
#895 = DEFINITIONAL_REPRESENTATION('',(#896),#948);
#896 = B_SPLINE_CURVE_WITH_KNOTS('',8,(#897,#898,#899,#900,#901,#902,
    #903,#904,#905,#906,#907,#908,#909,#910,#911,#912,#913,#914,#915,
    #916,#917,#918,#919,#920,#921,#922,#923,#924,#925,#926,#927,#928,
    #929,#930,#931,#932,#933,#934,#935,#936,#937,#938,#939,#940,#941,
    #942,#943,#944,#945,#946,#947),.UNSPECIFIED.,.F.,.F.,(9,7,7,7,7,7,7,
    9),(0.,5.578830161356E-02,9.214691594431E-02,0.150875409377,
    0.339107794958,0.633894524964,0.811229016542,1.),.UNSPECIFIED.);
#897 = CARTESIAN_POINT('',(0.,55.986200583544));
#898 = CARTESIAN_POINT('',(2.916037786904E-02,55.984046709415));
#899 = CARTESIAN_POINT('',(5.849448899983E-02,55.984135315801));
#900 = CARTESIAN_POINT('',(8.777200115406E-02,55.986533964677));
#901 = CARTESIAN_POINT('',(0.116807590743,55.991201949478));
#902 = CARTESIAN_POINT('',(0.145451663139,55.998020046619));
#903 = CARTESIAN_POINT('',(0.173583403347,56.006816298519));
#904 = CARTESIAN_POINT('',(0.201106157049,56.01738782811));
#905 = CARTESIAN_POINT('',(0.245436771514,56.037424663854));
#906 = CARTESIAN_POINT('',(0.262652748084,56.0459997403));
#907 = CARTESIAN_POINT('',(0.279584823681,56.055191696566));
#908 = CARTESIAN_POINT('',(0.296229173955,56.06494984044));
#909 = CARTESIAN_POINT('',(0.312585915532,56.075226049635));
#910 = CARTESIAN_POINT('',(0.328658623307,56.085975816314));
#911 = CARTESIAN_POINT('',(0.344453847741,56.097159291607));
#912 = CARTESIAN_POINT('',(0.385060373855,56.127451910093));
#913 = CARTESIAN_POINT('',(0.409431102267,56.147196983883));
#914 = CARTESIAN_POINT('',(0.433136223687,56.167834942907));
#915 = CARTESIAN_POINT('',(0.456216310412,56.189243493939));
#916 = CARTESIAN_POINT('',(0.478710332749,56.211319812222));
#917 = CARTESIAN_POINT('',(0.500656891027,56.233979694555));
#918 = CARTESIAN_POINT('',(0.522095447609,56.257156712397));
#919 = CARTESIAN_POINT('',(0.610285876749,56.356585521804));
#920 = CARTESIAN_POINT('',(0.672533347021,56.43697249272));
#921 = CARTESIAN_POINT('',(0.731277725366,56.520387371467));
#922 = CARTESIAN_POINT('',(0.787103391891,56.605974195836));
#923 = CARTESIAN_POINT('',(0.840575375467,56.693064201314));
#924 = CARTESIAN_POINT('',(0.892064581311,56.781300445526));
#925 = CARTESIAN_POINT('',(0.941955745883,56.870497500758));
#926 = CARTESIAN_POINT('',(1.066800701192,57.101923188552));
#927 = CARTESIAN_POINT('',(1.139675619796,57.245067823686));
#928 = CARTESIAN_POINT('',(1.210297405342,57.389504005091));
#929 = CARTESIAN_POINT('',(1.279254782645,57.534828949669));
#930 = CARTESIAN_POINT('',(1.34704865882,57.680723727312));
#931 = CARTESIAN_POINT('',(1.414077929723,57.826960900186));
#932 = CARTESIAN_POINT('',(1.480730926683,57.973373722198));
#933 = CARTESIAN_POINT('',(1.587520969407,58.207973764576));
#934 = CARTESIAN_POINT('',(1.627629875171,58.296090749785));
#935 = CARTESIAN_POINT('',(1.667817452123,58.384169237926));
#936 = CARTESIAN_POINT('',(1.70816339508,58.472169810342));
#937 = CARTESIAN_POINT('',(1.748748121779,58.56005001734));
#938 = CARTESIAN_POINT('',(1.789656208393,58.647763648158));
#939 = CARTESIAN_POINT('',(1.830980823957,58.735259727059));
#940 = CARTESIAN_POINT('',(1.917376347839,58.915327752863));
#941 = CARTESIAN_POINT('',(1.962506884819,59.007842180518));
#942 = CARTESIAN_POINT('',(2.008358560168,59.099972654122));
#943 = CARTESIAN_POINT('',(2.05507660533,59.191639282584));
#944 = CARTESIAN_POINT('',(2.102827027806,59.282729445997));
#945 = CARTESIAN_POINT('',(2.151802564003,59.373096155198));
#946 = CARTESIAN_POINT('',(2.202244344383,59.462550471073));
#947 = CARTESIAN_POINT('',(2.254502360542,59.550838981672));
#948 = ( GEOMETRIC_REPRESENTATION_CONTEXT(2) 
PARAMETRIC_REPRESENTATION_CONTEXT() REPRESENTATION_CONTEXT('2D SPACE',''
  ) );
#949 = ORIENTED_EDGE('',*,*,#950,.T.);
#950 = EDGE_CURVE('',#779,#777,#951,.T.);
#951 = SURFACE_CURVE('',#952,(#1046,#1143),.PCURVE_S1.);
#952 = B_SPLINE_CURVE_WITH_KNOTS('',8,(#953,#954,#955,#956,#957,#958,
    #959,#960,#961,#962,#963,#964,#965,#966,#967,#968,#969,#970,#971,
    #972,#973,#974,#975,#976,#977,#978,#979,#980,#981,#982,#983,#984,
    #985,#986,#987,#988,#989,#990,#991,#992,#993,#994,#995,#996,#997,
    #998,#999,#1000,#1001,#1002,#1003,#1004,#1005,#1006,#1007,#1008,
    #1009,#1010,#1011,#1012,#1013,#1014,#1015,#1016,#1017,#1018,#1019,
    #1020,#1021,#1022,#1023,#1024,#1025,#1026,#1027,#1028,#1029,#1030,
    #1031,#1032,#1033,#1034,#1035,#1036,#1037,#1038,#1039,#1040,#1041,
    #1042,#1043,#1044,#1045),.UNSPECIFIED.,.F.,.F.,(9,7,7,7,7,7,7,7,7,7,
    7,7,7,9),(0.,0.111914327652,0.149481653044,0.172555764711,
    0.189126203211,0.212344235219,0.249268855333,0.291962789404,
    0.432060648269,0.60939260792,0.738553809368,0.871827802677,
    0.953222433605,1.),.UNSPECIFIED.);
#953 = CARTESIAN_POINT('',(39.305162548972,-299.1472392383,
    49.550838981672));
#954 = CARTESIAN_POINT('',(39.263253543765,-299.181387088,
    49.633868289016));
#955 = CARTESIAN_POINT('',(39.222019534655,-299.2189023339,
    49.715615067543));
#956 = CARTESIAN_POINT('',(39.181456641082,-299.2601889328,
    49.79612227413));
#957 = CARTESIAN_POINT('',(39.141707675099,-299.3057407881,
    49.87515493426));
#958 = CARTESIAN_POINT('',(39.103036927429,-299.3560714309,
    49.952248627563));
#959 = CARTESIAN_POINT('',(39.065914294605,-299.4118880354,
    50.02656519518));
#960 = CARTESIAN_POINT('',(39.030940010259,-299.47389278,50.097027574381
    ));
#961 = CARTESIAN_POINT('',(38.988492813721,-299.5669708964,
    50.183505755101));
#962 = CARTESIAN_POINT('',(38.978197560604,-299.591201337,
    50.204569550957));
#963 = CARTESIAN_POINT('',(38.968315998278,-299.616316976,
    50.224889528973));
#964 = CARTESIAN_POINT('',(38.958901385603,-299.6423571656,
    50.244368360572));
#965 = CARTESIAN_POINT('',(38.950018721898,-299.6693523455,
    50.262886115267));
#966 = CARTESIAN_POINT('',(38.941743719506,-299.6973216799,
    50.280302103578));
#967 = CARTESIAN_POINT('',(38.934161038248,-299.7262696965,
    50.296457987046));
#968 = CARTESIAN_POINT('',(38.923185631295,-299.7745542261,
    50.320225841557));
#969 = CARTESIAN_POINT('',(38.919305860699,-299.7932868627,
    50.328727626315));
#970 = CARTESIAN_POINT('',(38.915744037656,-299.8123723283,
    50.336646617774));
#971 = CARTESIAN_POINT('',(38.912523093301,-299.8317977399,
    50.343939035104));
#972 = CARTESIAN_POINT('',(38.909666225734,-299.851544021,
    50.350560214677));
#973 = CARTESIAN_POINT('',(38.907195803538,-299.8715850837,
    50.356466616284));
#974 = CARTESIAN_POINT('',(38.905132269285,-299.8918870093,
    50.361617829333));
#975 = CARTESIAN_POINT('',(38.902315849422,-299.9271436174,
    50.369110207113));
#976 = CARTESIAN_POINT('',(38.901357401507,-299.941993172,
    50.371834360944));
#977 = CARTESIAN_POINT('',(38.900624177511,-299.9569391601,
    50.374137866478));
#978 = CARTESIAN_POINT('',(38.900121581761,-299.9719636568,
    50.376009491546));
#979 = CARTESIAN_POINT('',(38.899853777922,-299.9870475474,
    50.377440258736));
#980 = CARTESIAN_POINT('',(38.899823522208,-300.0021705291,
    50.378423758228));
#981 = CARTESIAN_POINT('',(38.900031996584,-300.0173111121,
    50.378956460646));
#982 = CARTESIAN_POINT('',(38.901104468941,-300.0536540717,
    50.379152322424));
#983 = CARTESIAN_POINT('',(38.902198039792,-300.0748560616,
    50.378380909097));
#984 = CARTESIAN_POINT('',(38.903758038569,-300.0959878442,
    50.376722311528));
#985 = CARTESIAN_POINT('',(38.90577652747,-300.1169906886,
    50.374187833593));
#986 = CARTESIAN_POINT('',(38.908239970601,-300.1378117055,
    50.370799633481));
#987 = CARTESIAN_POINT('',(38.911130257716,-300.158403673,50.36658879573
    ));
#988 = CARTESIAN_POINT('',(38.914425727961,-300.1787248627,
    50.361593403275));
#989 = CARTESIAN_POINT('',(38.923949032732,-300.2305679812,
    50.346733143262));
#990 = CARTESIAN_POINT('',(38.930758949981,-300.2616170914,
    50.33573535545));
#991 = CARTESIAN_POINT('',(38.938439635491,-300.2917719294,
    50.323029385079));
#992 = CARTESIAN_POINT('',(38.946891706561,-300.320965725,
    50.308797450156));
#993 = CARTESIAN_POINT('',(38.956018285613,-300.3491678641,
    50.293219277792));
#994 = CARTESIAN_POINT('',(38.965731805113,-300.3763752272,
    50.276458833352));
#995 = CARTESIAN_POINT('',(38.975958039444,-300.4026062028,
    50.258656348659));
#996 = CARTESIAN_POINT('',(38.998985286796,-300.4571401944,
    50.218268358159));
#997 = CARTESIAN_POINT('',(39.011933849757,-300.4851146619,
    50.195379093855));
#998 = CARTESIAN_POINT('',(39.025391803585,-300.5118807393,
    50.171432262867));
#999 = CARTESIAN_POINT('',(39.039281458468,-300.5374978799,
    50.14657693838));
#1000 = CARTESIAN_POINT('',(39.053538105325,-300.5620253276,
    50.120937900054));
#1001 = CARTESIAN_POINT('',(39.068109437306,-300.5855224122,
    50.094616673827));
#1002 = CARTESIAN_POINT('',(39.082954971289,-300.6080488443,
    50.067692571742));
#1003 = CARTESIAN_POINT('',(39.147564130935,-300.7005972999,
    49.950086203971));
#1004 = CARTESIAN_POINT('',(39.199567128564,-300.7615077841,
    49.854362125607));
#1005 = CARTESIAN_POINT('',(39.253068116334,-300.81469864,
    49.755028599485));
#1006 = CARTESIAN_POINT('',(39.307536406066,-300.8611167531,
    49.653132458479));
#1007 = CARTESIAN_POINT('',(39.362558378524,-300.901717118,
    49.549509100301));
#1008 = CARTESIAN_POINT('',(39.417927404445,-300.937097797,
    49.444583955399));
#1009 = CARTESIAN_POINT('',(39.47354657441,-300.9678186779,
    49.338570386394));
#1010 = CARTESIAN_POINT('',(39.600228789073,-301.0277710058,
    49.095748334538));
#1011 = CARTESIAN_POINT('',(39.671235075744,-301.0543289411,
    48.958689745525));
#1012 = CARTESIAN_POINT('',(39.742290277065,-301.0747279959,
    48.820619786022));
#1013 = CARTESIAN_POINT('',(39.813254701515,-301.0894267335,
    48.681830293604));
#1014 = CARTESIAN_POINT('',(39.884016547224,-301.098738418,
    48.542554918113));
#1015 = CARTESIAN_POINT('',(39.954486028884,-301.1028768805,
    48.402981838735));
#1016 = CARTESIAN_POINT('',(40.024593516223,-301.1019472247,
    48.263255741253));
#1017 = CARTESIAN_POINT('',(40.145041418203,-301.0915853154,
    48.021691176932));
#1018 = CARTESIAN_POINT('',(40.195564706554,-301.0845321359,
    47.919898209455));
#1019 = CARTESIAN_POINT('',(40.245826388863,-301.0747961833,
    47.818164801747));
#1020 = CARTESIAN_POINT('',(40.295795688316,-301.0623506139,
    47.716552340098));
#1021 = CARTESIAN_POINT('',(40.345437208678,-301.0471417504,
    47.615130749763));
#1022 = CARTESIAN_POINT('',(40.394709968894,-301.0290853288,
    47.513980435508));
#1023 = CARTESIAN_POINT('',(40.44356550497,-301.0080552549,
    47.413195717857));
#1024 = CARTESIAN_POINT('',(40.541865089781,-300.9589042031,
    47.209389838324));
#1025 = CARTESIAN_POINT('',(40.591233646459,-300.9306005765,
    47.10649229188));
#1026 = CARTESIAN_POINT('',(40.640029246577,-300.8987395496,
    47.004233799045));
#1027 = CARTESIAN_POINT('',(40.688177392999,-300.8630299197,
    46.902754975907));
#1028 = CARTESIAN_POINT('',(40.735555933585,-300.8231250459,
    46.802292806341));
#1029 = CARTESIAN_POINT('',(40.781969152888,-300.7785212883,
    46.703230865867));
#1030 = CARTESIAN_POINT('',(40.827162544889,-300.7286149761,
    46.606074267838));
#1031 = CARTESIAN_POINT('',(40.897302857534,-300.6377628973,
    46.454000783104));
#1032 = CARTESIAN_POINT('',(40.923192844231,-300.6010075899,
    46.397558750928));
#1033 = CARTESIAN_POINT('',(40.948363117673,-300.5616050166,
    46.34235143747));
#1034 = CARTESIAN_POINT('',(40.972687966217,-300.5191922588,
    46.288623776811));
#1035 = CARTESIAN_POINT('',(40.995941321314,-300.4734070148,
    46.236832701743));
#1036 = CARTESIAN_POINT('',(41.017764743509,-300.4238317545,
    46.187713487765));
#1037 = CARTESIAN_POINT('',(41.037692794252,-300.3700517509,
    46.142232733015));
#1038 = CARTESIAN_POINT('',(41.064968385226,-300.2776312666,
    46.078659527745));
#1039 = CARTESIAN_POINT('',(41.074055791883,-300.2422998015,
    46.057159437556));
#1040 = CARTESIAN_POINT('',(41.082120267825,-300.2053121345,
    46.03768918949));
#1041 = CARTESIAN_POINT('',(41.088964121537,-300.1666876132,
    46.020670729437));
#1042 = CARTESIAN_POINT('',(41.094366370302,-300.126536983,
    46.006582274801));
#1043 = CARTESIAN_POINT('',(41.098104793473,-300.0850853505,
    45.995912460616));
#1044 = CARTESIAN_POINT('',(41.1,-300.0427096751,45.989068462091));
#1045 = CARTESIAN_POINT('',(41.1,-300.,45.986200583544));
#1046 = PCURVE('',#168,#1047);
#1047 = DEFINITIONAL_REPRESENTATION('',(#1048),#1142);
#1048 = B_SPLINE_CURVE_WITH_KNOTS('',8,(#1049,#1050,#1051,#1052,#1053,
    #1054,#1055,#1056,#1057,#1058,#1059,#1060,#1061,#1062,#1063,#1064,
    #1065,#1066,#1067,#1068,#1069,#1070,#1071,#1072,#1073,#1074,#1075,
    #1076,#1077,#1078,#1079,#1080,#1081,#1082,#1083,#1084,#1085,#1086,
    #1087,#1088,#1089,#1090,#1091,#1092,#1093,#1094,#1095,#1096,#1097,
    #1098,#1099,#1100,#1101,#1102,#1103,#1104,#1105,#1106,#1107,#1108,
    #1109,#1110,#1111,#1112,#1113,#1114,#1115,#1116,#1117,#1118,#1119,
    #1120,#1121,#1122,#1123,#1124,#1125,#1126,#1127,#1128,#1129,#1130,
    #1131,#1132,#1133,#1134,#1135,#1136,#1137,#1138,#1139,#1140,#1141),
  .UNSPECIFIED.,.F.,.F.,(9,7,7,7,7,7,7,7,7,7,7,7,7,9),(0.,0.111914327652
    ,0.149481653044,0.172555764711,0.189126203211,0.212344235219,
    0.249268855333,0.291962789404,0.432060648269,0.60939260792,
    0.738553809368,0.871827802677,0.953222433605,1.),.UNSPECIFIED.);
#1049 = CARTESIAN_POINT('',(0.463096250949,0.527012290778));
#1050 = CARTESIAN_POINT('',(0.462131899155,0.527116324065));
#1051 = CARTESIAN_POINT('',(0.461183016458,0.527230618755));
#1052 = CARTESIAN_POINT('',(0.460249223895,0.527356406367));
#1053 = CARTESIAN_POINT('',(0.459333420188,0.527495192787));
#1054 = CARTESIAN_POINT('',(0.458441205469,0.527648543975));
#1055 = CARTESIAN_POINT('',(0.457582628555,0.527818616673));
#1056 = CARTESIAN_POINT('',(0.456770562415,0.528007552861));
#1057 = CARTESIAN_POINT('',(0.455777849734,0.528291189318));
#1058 = CARTESIAN_POINT('',(0.455536412293,0.5283650278));
#1059 = CARTESIAN_POINT('',(0.455303908646,0.528441565085));
#1060 = CARTESIAN_POINT('',(0.455081494812,0.528520921262));
#1061 = CARTESIAN_POINT('',(0.454870590548,0.528603189286));
#1062 = CARTESIAN_POINT('',(0.454672857143,0.528688427769));
#1063 = CARTESIAN_POINT('',(0.454490159916,0.528776650732));
#1064 = CARTESIAN_POINT('',(0.454222775443,0.528923807615));
#1065 = CARTESIAN_POINT('',(0.454127488758,0.528980899865));
#1066 = CARTESIAN_POINT('',(0.454039134859,0.529039068233));
#1067 = CARTESIAN_POINT('',(0.45395822586,0.529098273507));
#1068 = CARTESIAN_POINT('',(0.453885282686,0.529158457599));
#1069 = CARTESIAN_POINT('',(0.453820811248,0.529219541046));
#1070 = CARTESIAN_POINT('',(0.453765278621,0.529281420512));
#1071 = CARTESIAN_POINT('',(0.453685918779,0.529388882897));
#1072 = CARTESIAN_POINT('',(0.453657564811,0.529434144929));
#1073 = CARTESIAN_POINT('',(0.453634178151,0.529479701391));
#1074 = CARTESIAN_POINT('',(0.453615886468,0.52952549766));
#1075 = CARTESIAN_POINT('',(0.45360279058,0.529571475482));
#1076 = CARTESIAN_POINT('',(0.453594960784,0.529617572976));
#1077 = CARTESIAN_POINT('',(0.453592433168,0.529663724642));
#1078 = CARTESIAN_POINT('',(0.45359909107,0.529774506834));
#1079 = CARTESIAN_POINT('',(0.453613383511,0.529839136681));
#1080 = CARTESIAN_POINT('',(0.453638084274,0.52990355354));
#1081 = CARTESIAN_POINT('',(0.453673045384,0.529967578367));
#1082 = CARTESIAN_POINT('',(0.453717992551,0.530031049912));
#1083 = CARTESIAN_POINT('',(0.453772547842,0.53009382419));
#1084 = CARTESIAN_POINT('',(0.453836252358,0.530155773947));
#1085 = CARTESIAN_POINT('',(0.454023628766,0.530313821599));
#1086 = CARTESIAN_POINT('',(0.454160490242,0.530408479475));
#1087 = CARTESIAN_POINT('',(0.454317188336,0.53050041323));
#1088 = CARTESIAN_POINT('',(0.454491560659,0.530589419077));
#1089 = CARTESIAN_POINT('',(0.454681483374,0.530675403447));
#1090 = CARTESIAN_POINT('',(0.454885025261,0.530758356602));
#1091 = CARTESIAN_POINT('',(0.455100539905,0.530838334401));
#1092 = CARTESIAN_POINT('',(0.455588187997,0.531004610723));
#1093 = CARTESIAN_POINT('',(0.45586379846,0.531089907995));
#1094 = CARTESIAN_POINT('',(0.456151488425,0.53117152254));
#1095 = CARTESIAN_POINT('',(0.456449517458,0.531249635375));
#1096 = CARTESIAN_POINT('',(0.456756431289,0.531324426915));
#1097 = CARTESIAN_POINT('',(0.457071049452,0.531396077867));
#1098 = CARTESIAN_POINT('',(0.457392452922,0.531464770129));
#1099 = CARTESIAN_POINT('',(0.45879470729,0.53174699261));
#1100 = CARTESIAN_POINT('',(0.459931964018,0.531932748437));
#1101 = CARTESIAN_POINT('',(0.461109021261,0.532094969754));
#1102 = CARTESIAN_POINT('',(0.462313790125,0.532236541348));
#1103 = CARTESIAN_POINT('',(0.463536688175,0.532360373216));
#1104 = CARTESIAN_POINT('',(0.464772868837,0.532468287913));
#1105 = CARTESIAN_POINT('',(0.466019961796,0.532561991829));
#1106 = CARTESIAN_POINT('',(0.468872293114,0.532744859981));
#1107 = CARTESIAN_POINT('',(0.470479389022,0.532825870432));
#1108 = CARTESIAN_POINT('',(0.472095684053,0.532888095676));
#1109 = CARTESIAN_POINT('',(0.473717876225,0.53293293335));
#1110 = CARTESIAN_POINT('',(0.475343318498,0.532961338344));
#1111 = CARTESIAN_POINT('',(0.476969878286,0.532973962576));
#1112 = CARTESIAN_POINT('',(0.478595910211,0.532971126625));
#1113 = CARTESIAN_POINT('',(0.481403107666,0.532939518194));
#1114 = CARTESIAN_POINT('',(0.482584819069,0.532918002908));
#1115 = CARTESIAN_POINT('',(0.483764631585,0.532888304118));
#1116 = CARTESIAN_POINT('',(0.484941834044,0.53285034013));
#1117 = CARTESIAN_POINT('',(0.486115611798,0.53280394748));
#1118 = CARTESIAN_POINT('',(0.487285023892,0.532748869502));
#1119 = CARTESIAN_POINT('',(0.488448961362,0.532684722061));
#1120 = CARTESIAN_POINT('',(0.490800057492,0.532534801338));
#1121 = CARTESIAN_POINT('',(0.49198570662,0.532448471033));
#1122 = CARTESIAN_POINT('',(0.493162580215,0.532351292162));
#1123 = CARTESIAN_POINT('',(0.494329003953,0.532242377429));
#1124 = CARTESIAN_POINT('',(0.495482179699,0.532120670657));
#1125 = CARTESIAN_POINT('',(0.496617588256,0.531984637317));
#1126 = CARTESIAN_POINT('',(0.497729295114,0.531832438179));
#1127 = CARTESIAN_POINT('',(0.499465837171,0.531555380669));
#1128 = CARTESIAN_POINT('',(0.500109508932,0.531443296534));
#1129 = CARTESIAN_POINT('',(0.500738172943,0.531323142924));
#1130 = CARTESIAN_POINT('',(0.501348933643,0.53119381398));
#1131 = CARTESIAN_POINT('',(0.501936452049,0.531054205955));
#1132 = CARTESIAN_POINT('',(0.502492172408,0.530903047092));
#1133 = CARTESIAN_POINT('',(0.503004881514,0.530739074495));
#1134 = CARTESIAN_POINT('',(0.503717610739,0.530457302681));
#1135 = CARTESIAN_POINT('',(0.503957721097,0.530349586655));
#1136 = CARTESIAN_POINT('',(0.504174032589,0.53023682426));
#1137 = CARTESIAN_POINT('',(0.504361690183,0.530119074962));
#1138 = CARTESIAN_POINT('',(0.50451521158,0.529996676881));
#1139 = CARTESIAN_POINT('',(0.504629019053,0.529870316725));
#1140 = CARTESIAN_POINT('',(0.504698504562,0.529741143948));
#1141 = CARTESIAN_POINT('',(0.504722064896,0.529610957198));
#1142 = ( GEOMETRIC_REPRESENTATION_CONTEXT(2) 
PARAMETRIC_REPRESENTATION_CONTEXT() REPRESENTATION_CONTEXT('2D SPACE',''
  ) );
#1143 = PCURVE('',#890,#1144);
#1144 = DEFINITIONAL_REPRESENTATION('',(#1145),#1239);
#1145 = B_SPLINE_CURVE_WITH_KNOTS('',8,(#1146,#1147,#1148,#1149,#1150,
    #1151,#1152,#1153,#1154,#1155,#1156,#1157,#1158,#1159,#1160,#1161,
    #1162,#1163,#1164,#1165,#1166,#1167,#1168,#1169,#1170,#1171,#1172,
    #1173,#1174,#1175,#1176,#1177,#1178,#1179,#1180,#1181,#1182,#1183,
    #1184,#1185,#1186,#1187,#1188,#1189,#1190,#1191,#1192,#1193,#1194,
    #1195,#1196,#1197,#1198,#1199,#1200,#1201,#1202,#1203,#1204,#1205,
    #1206,#1207,#1208,#1209,#1210,#1211,#1212,#1213,#1214,#1215,#1216,
    #1217,#1218,#1219,#1220,#1221,#1222,#1223,#1224,#1225,#1226,#1227,
    #1228,#1229,#1230,#1231,#1232,#1233,#1234,#1235,#1236,#1237,#1238),
  .UNSPECIFIED.,.F.,.F.,(9,7,7,7,7,7,7,7,7,7,7,7,7,9),(0.,0.111914327652
    ,0.149481653044,0.172555764711,0.189126203211,0.212344235219,
    0.249268855333,0.291962789404,0.432060648269,0.60939260792,
    0.738553809368,0.871827802677,0.953222433605,1.),.UNSPECIFIED.);
#1146 = CARTESIAN_POINT('',(2.254502360542,59.550838981672));
#1147 = CARTESIAN_POINT('',(2.303647451511,59.633868289016));
#1148 = CARTESIAN_POINT('',(2.354250940088,59.715615067543));
#1149 = CARTESIAN_POINT('',(2.4067254356,59.79612227413));
#1150 = CARTESIAN_POINT('',(2.461490481375,59.87515493426));
#1151 = CARTESIAN_POINT('',(2.518937791278,59.952248627563));
#1152 = CARTESIAN_POINT('',(2.579621599487,60.02656519518));
#1153 = CARTESIAN_POINT('',(2.644101016291,60.097027574381));
#1154 = CARTESIAN_POINT('',(2.737101061882,60.183505755101));
#1155 = CARTESIAN_POINT('',(2.76102646593,60.204569550957));
#1156 = CARTESIAN_POINT('',(2.785547502533,60.224889528973));
#1157 = CARTESIAN_POINT('',(2.810699872436,60.244368360572));
#1158 = CARTESIAN_POINT('',(2.83651255745,60.262886115267));
#1159 = CARTESIAN_POINT('',(2.863007260492,60.280302103578));
#1160 = CARTESIAN_POINT('',(2.890196956469,60.296457987046));
#1161 = CARTESIAN_POINT('',(2.935211695586,60.320225841557));
#1162 = CARTESIAN_POINT('',(2.952599586966,60.328727626315));
#1163 = CARTESIAN_POINT('',(2.970243759084,60.336646617774));
#1164 = CARTESIAN_POINT('',(2.988136888675,60.343939035104));
#1165 = CARTESIAN_POINT('',(3.006267099148,60.350560214677));
#1166 = CARTESIAN_POINT('',(3.024617261408,60.356466616284));
#1167 = CARTESIAN_POINT('',(3.043164294693,60.361617829333));
#1168 = CARTESIAN_POINT('',(3.075317860097,60.369110207113));
#1169 = CARTESIAN_POINT('',(3.088843974252,60.371834360944));
#1170 = CARTESIAN_POINT('',(3.102444862318,60.374137866478));
#1171 = CARTESIAN_POINT('',(3.116107799253,60.376009491546));
#1172 = CARTESIAN_POINT('',(3.129819202861,60.377440258736));
#1173 = CARTESIAN_POINT('',(3.143564554124,60.378423758228));
#1174 = CARTESIAN_POINT('',(3.157328317551,60.378956460646));
#1175 = CARTESIAN_POINT('',(3.190381754227,60.379152322424));
#1176 = CARTESIAN_POINT('',(3.209677193017,60.378380909097));
#1177 = CARTESIAN_POINT('',(3.228932354134,60.376722311528));
#1178 = CARTESIAN_POINT('',(3.248104537872,60.374187833593));
#1179 = CARTESIAN_POINT('',(3.267155689102,60.370799633481));
#1180 = CARTESIAN_POINT('',(3.286051917809,60.36658879573));
#1181 = CARTESIAN_POINT('',(3.30476301964,60.361593403275));
#1182 = CARTESIAN_POINT('',(3.352681703088,60.346733143262));
#1183 = CARTESIAN_POINT('',(3.381562126713,60.33573535545));
#1184 = CARTESIAN_POINT('',(3.40982492343,60.323029385079));
#1185 = CARTESIAN_POINT('',(3.437426552289,60.308797450156));
#1186 = CARTESIAN_POINT('',(3.464349041281,60.293219277792));
#1187 = CARTESIAN_POINT('',(3.490593765703,60.276458833352));
#1188 = CARTESIAN_POINT('',(3.516178238873,60.258656348659));
#1189 = CARTESIAN_POINT('',(3.569993121719,60.218268358159));
#1190 = CARTESIAN_POINT('',(3.598000598314,60.195379093855));
#1191 = CARTESIAN_POINT('',(3.625212597537,60.171432262867));
#1192 = CARTESIAN_POINT('',(3.651679292084,60.14657693838));
#1193 = CARTESIAN_POINT('',(3.677448497922,60.120937900054));
#1194 = CARTESIAN_POINT('',(3.702567397406,60.094616673827));
#1195 = CARTESIAN_POINT('',(3.727084262396,60.067692571742));
#1196 = CARTESIAN_POINT('',(3.829693044255,59.950086203971));
#1197 = CARTESIAN_POINT('',(3.902158798076,59.854362125607));
#1198 = CARTESIAN_POINT('',(3.970386966287,59.755028599485));
#1199 = CARTESIAN_POINT('',(4.035079808346,59.653132458479));
#1200 = CARTESIAN_POINT('',(4.096962750346,59.549509100301));
#1201 = CARTESIAN_POINT('',(4.156485945116,59.444583955399));
#1202 = CARTESIAN_POINT('',(4.214136643946,59.338570386394));
#1203 = CARTESIAN_POINT('',(4.341547819069,59.095748334538));
#1204 = CARTESIAN_POINT('',(4.410223001607,58.958689745525));
#1205 = CARTESIAN_POINT('',(4.477091392665,58.820619786022));
#1206 = CARTESIAN_POINT('',(4.542609080969,58.681830293604));
#1207 = CARTESIAN_POINT('',(4.607148366465,58.542554918113));
#1208 = CARTESIAN_POINT('',(4.671046356291,58.402981838735));
#1209 = CARTESIAN_POINT('',(4.734618013512,58.263255741253));
#1210 = CARTESIAN_POINT('',(4.844520548299,58.021691176932));
#1211 = CARTESIAN_POINT('',(4.890831556161,57.919898209455));
#1212 = CARTESIAN_POINT('',(4.937265391605,57.818164801747));
#1213 = CARTESIAN_POINT('',(4.983948871593,57.716552340098));
#1214 = CARTESIAN_POINT('',(5.031012518828,57.615130749763));
#1215 = CARTESIAN_POINT('',(5.078598616286,57.513980435508));
#1216 = CARTESIAN_POINT('',(5.126873892678,57.413195717857));
#1217 = CARTESIAN_POINT('',(5.226785565521,57.209389838324));
#1218 = CARTESIAN_POINT('',(5.27843517539,57.10649229188));
#1219 = CARTESIAN_POINT('',(5.331263112259,57.004233799045));
#1220 = CARTESIAN_POINT('',(5.3855611323,56.902754975907));
#1221 = CARTESIAN_POINT('',(5.441641157512,56.802292806341));
#1222 = CARTESIAN_POINT('',(5.499935816061,56.703230865867));
#1223 = CARTESIAN_POINT('',(5.560955212732,56.606074267838));
#1224 = CARTESIAN_POINT('',(5.665297955655,56.454000783104));
#1225 = CARTESIAN_POINT('',(5.706130015951,56.397558750928));
#1226 = CARTESIAN_POINT('',(5.748560917117,56.34235143747));
#1227 = CARTESIAN_POINT('',(5.792904429495,56.288623776811));
#1228 = CARTESIAN_POINT('',(5.839454306047,56.236832701743));
#1229 = CARTESIAN_POINT('',(5.888557181337,56.187713487765));
#1230 = CARTESIAN_POINT('',(5.940576639231,56.142232733015));
#1231 = CARTESIAN_POINT('',(6.028177838235,56.078659527745));
#1232 = CARTESIAN_POINT('',(6.061322215449,56.057159437556));
#1233 = CARTESIAN_POINT('',(6.095697035099,56.03768918949));
#1234 = CARTESIAN_POINT('',(6.131300325728,56.020670729437));
#1235 = CARTESIAN_POINT('',(6.168062398985,56.006582274801));
#1236 = CARTESIAN_POINT('',(6.205835017819,55.995912460616));
#1237 = CARTESIAN_POINT('',(6.244358329772,55.989068462091));
#1238 = CARTESIAN_POINT('',(6.28318530718,55.986200583544));
#1239 = ( GEOMETRIC_REPRESENTATION_CONTEXT(2) 
PARAMETRIC_REPRESENTATION_CONTEXT() REPRESENTATION_CONTEXT('2D SPACE',''
  ) );
#1240 = ADVANCED_FACE('',(#1241,#1244),#528,.F.);
#1241 = FACE_BOUND('',#1242,.F.);
#1242 = EDGE_LOOP('',(#1243));
#1243 = ORIENTED_EDGE('',*,*,#513,.T.);
#1244 = FACE_BOUND('',#1245,.F.);
#1245 = EDGE_LOOP('',(#1246));
#1246 = ORIENTED_EDGE('',*,*,#1247,.F.);
#1247 = EDGE_CURVE('',#1248,#1248,#1250,.T.);
#1248 = VERTEX_POINT('',#1249);
#1249 = CARTESIAN_POINT('',(41.1,-300.,6.));
#1250 = SURFACE_CURVE('',#1251,(#1256,#1263),.PCURVE_S1.);
#1251 = CIRCLE('',#1252,1.1);
#1252 = AXIS2_PLACEMENT_3D('',#1253,#1254,#1255);
#1253 = CARTESIAN_POINT('',(40.,-300.,6.));
#1254 = DIRECTION('',(0.,0.,1.));
#1255 = DIRECTION('',(1.,0.,-0.));
#1256 = PCURVE('',#528,#1257);
#1257 = DEFINITIONAL_REPRESENTATION('',(#1258),#1262);
#1258 = CIRCLE('',#1259,1.1);
#1259 = AXIS2_PLACEMENT_2D('',#1260,#1261);
#1260 = CARTESIAN_POINT('',(0.,0.));
#1261 = DIRECTION('',(1.,0.));
#1262 = ( GEOMETRIC_REPRESENTATION_CONTEXT(2) 
PARAMETRIC_REPRESENTATION_CONTEXT() REPRESENTATION_CONTEXT('2D SPACE',''
  ) );
#1263 = PCURVE('',#890,#1264);
#1264 = DEFINITIONAL_REPRESENTATION('',(#1265),#1269);
#1265 = LINE('',#1266,#1267);
#1266 = CARTESIAN_POINT('',(0.,16.));
#1267 = VECTOR('',#1268,1.);
#1268 = DIRECTION('',(1.,0.));
#1269 = ( GEOMETRIC_REPRESENTATION_CONTEXT(2) 
PARAMETRIC_REPRESENTATION_CONTEXT() REPRESENTATION_CONTEXT('2D SPACE',''
  ) );
#1270 = ADVANCED_FACE('',(#1271),#890,.F.);
#1271 = FACE_BOUND('',#1272,.F.);
#1272 = EDGE_LOOP('',(#1273,#1274,#1295,#1296,#1297));
#1273 = ORIENTED_EDGE('',*,*,#776,.F.);
#1274 = ORIENTED_EDGE('',*,*,#1275,.F.);
#1275 = EDGE_CURVE('',#1248,#777,#1276,.T.);
#1276 = SEAM_CURVE('',#1277,(#1281,#1288),.PCURVE_S1.);
#1277 = LINE('',#1278,#1279);
#1278 = CARTESIAN_POINT('',(41.1,-300.,-10.));
#1279 = VECTOR('',#1280,1.);
#1280 = DIRECTION('',(0.,0.,1.));
#1281 = PCURVE('',#890,#1282);
#1282 = DEFINITIONAL_REPRESENTATION('',(#1283),#1287);
#1283 = LINE('',#1284,#1285);
#1284 = CARTESIAN_POINT('',(6.28318530718,-0.));
#1285 = VECTOR('',#1286,1.);
#1286 = DIRECTION('',(0.,1.));
#1287 = ( GEOMETRIC_REPRESENTATION_CONTEXT(2) 
PARAMETRIC_REPRESENTATION_CONTEXT() REPRESENTATION_CONTEXT('2D SPACE',''
  ) );
#1288 = PCURVE('',#890,#1289);
#1289 = DEFINITIONAL_REPRESENTATION('',(#1290),#1294);
#1290 = LINE('',#1291,#1292);
#1291 = CARTESIAN_POINT('',(0.,-0.));
#1292 = VECTOR('',#1293,1.);
#1293 = DIRECTION('',(0.,1.));
#1294 = ( GEOMETRIC_REPRESENTATION_CONTEXT(2) 
PARAMETRIC_REPRESENTATION_CONTEXT() REPRESENTATION_CONTEXT('2D SPACE',''
  ) );
#1295 = ORIENTED_EDGE('',*,*,#1247,.T.);
#1296 = ORIENTED_EDGE('',*,*,#1275,.T.);
#1297 = ORIENTED_EDGE('',*,*,#950,.F.);
#1298 = ( GEOMETRIC_REPRESENTATION_CONTEXT(3) 
GLOBAL_UNCERTAINTY_ASSIGNED_CONTEXT((#1302)) 
GLOBAL_UNIT_ASSIGNED_CONTEXT((#1299,#1300,#1301)) REPRESENTATION_CONTEXT
('Context #1','3D Context with UNIT and UNCERTAINTY') );
#1299 = ( LENGTH_UNIT() NAMED_UNIT(*) SI_UNIT(.MILLI.,.METRE.) );
#1300 = ( NAMED_UNIT(*) PLANE_ANGLE_UNIT() SI_UNIT($,.RADIAN.) );
#1301 = ( NAMED_UNIT(*) SI_UNIT($,.STERADIAN.) SOLID_ANGLE_UNIT() );
#1302 = UNCERTAINTY_MEASURE_WITH_UNIT(LENGTH_MEASURE(2.E-05),#1299,
  'distance_accuracy_value','confusion accuracy');
#1303 = PRODUCT_RELATED_PRODUCT_CATEGORY('part',$,(#7));
ENDSEC;
END-ISO-10303-21;
