ISO-10303-21;
HEADER;
FILE_DESCRIPTION(('Open CASCADE Model'),'2;1');
FILE_NAME('Open CASCADE Shape Model','2026-09-20T18:22:31',('Author'),(
    'Open CASCADE'),'Open CASCADE STEP processor 7.9','Open CASCADE 7.9'
  ,'Unknown');
FILE_SCHEMA(('AUTOMOTIVE_DESIGN { 1 0 10303 214 1 1 1 1 }'));
ENDSEC;
DATA;
#1 = APPLICATION_PROTOCOL_DEFINITION('international standard',
  'automotive_design',2000,#2);
#2 = APPLICATION_CONTEXT(
  'core data for automotive mechanical design processes');
#3 = SHAPE_DEFINITION_REPRESENTATION(#4,#10);
#4 = PRODUCT_DEFINITION_SHAPE('','',#5);
#5 = PRODUCT_DEFINITION('design','',#6,#9);
#6 = PRODUCT_DEFINITION_FORMATION('','',#7);
#7 = PRODUCT('Open CASCADE STEP translator 7.9 7',
  'Open CASCADE STEP translator 7.9 7','',(#8));
#8 = PRODUCT_CONTEXT('',#2,'mechanical');
#9 = PRODUCT_DEFINITION_CONTEXT('part definition',#2,'design');
#10 = ADVANCED_BREP_SHAPE_REPRESENTATION('',(#11,#15),#1272);
#11 = AXIS2_PLACEMENT_3D('',#12,#13,#14);
#12 = CARTESIAN_POINT('',(0.,0.,0.));
#13 = DIRECTION('',(0.,0.,1.));
#14 = DIRECTION('',(1.,0.,-0.));
#15 = MANIFOLD_SOLID_BREP('',#16);
#16 = CLOSED_SHELL('',(#17,#724,#1214,#1244));
#17 = ADVANCED_FACE('',(#18),#32,.T.);
#18 = FACE_BOUND('',#19,.T.);
#19 = EDGE_LOOP('',(#20,#50,#77,#78,#349));
#20 = ORIENTED_EDGE('',*,*,#21,.T.);
#21 = EDGE_CURVE('',#22,#24,#26,.T.);
#22 = VERTEX_POINT('',#23);
#23 = CARTESIAN_POINT('',(43.,-170.,32.313146111531));
#24 = VERTEX_POINT('',#25);
#25 = CARTESIAN_POINT('',(43.,-170.,41.885313222643));
#26 = SEAM_CURVE('',#27,(#31,#43),.PCURVE_S1.);
#27 = LINE('',#28,#29);
#28 = CARTESIAN_POINT('',(43.,-170.,0.));
#29 = VECTOR('',#30,1.);
#30 = DIRECTION('',(0.,0.,1.));
#31 = PCURVE('',#32,#37);
#32 = CYLINDRICAL_SURFACE('',#33,3.);
#33 = AXIS2_PLACEMENT_3D('',#34,#35,#36);
#34 = CARTESIAN_POINT('',(40.,-170.,0.));
#35 = DIRECTION('',(0.,0.,1.));
#36 = DIRECTION('',(1.,0.,-0.));
#37 = DEFINITIONAL_REPRESENTATION('',(#38),#42);
#38 = LINE('',#39,#40);
#39 = CARTESIAN_POINT('',(6.28318530718,-0.));
#40 = VECTOR('',#41,1.);
#41 = DIRECTION('',(0.,1.));
#42 = ( GEOMETRIC_REPRESENTATION_CONTEXT(2) 
PARAMETRIC_REPRESENTATION_CONTEXT() REPRESENTATION_CONTEXT('2D SPACE',''
  ) );
#43 = PCURVE('',#32,#44);
#44 = DEFINITIONAL_REPRESENTATION('',(#45),#49);
#45 = LINE('',#46,#47);
#46 = CARTESIAN_POINT('',(0.,-0.));
#47 = VECTOR('',#48,1.);
#48 = DIRECTION('',(0.,1.));
#49 = ( GEOMETRIC_REPRESENTATION_CONTEXT(2) 
PARAMETRIC_REPRESENTATION_CONTEXT() REPRESENTATION_CONTEXT('2D SPACE',''
  ) );
#50 = ORIENTED_EDGE('',*,*,#51,.F.);
#51 = EDGE_CURVE('',#24,#24,#52,.T.);
#52 = SURFACE_CURVE('',#53,(#58,#65),.PCURVE_S1.);
#53 = CIRCLE('',#54,3.);
#54 = AXIS2_PLACEMENT_3D('',#55,#56,#57);
#55 = CARTESIAN_POINT('',(40.,-170.,41.885313222643));
#56 = DIRECTION('',(0.,0.,1.));
#57 = DIRECTION('',(1.,0.,-0.));
#58 = PCURVE('',#32,#59);
#59 = DEFINITIONAL_REPRESENTATION('',(#60),#64);
#60 = LINE('',#61,#62);
#61 = CARTESIAN_POINT('',(0.,41.885313222643));
#62 = VECTOR('',#63,1.);
#63 = DIRECTION('',(1.,0.));
#64 = ( GEOMETRIC_REPRESENTATION_CONTEXT(2) 
PARAMETRIC_REPRESENTATION_CONTEXT() REPRESENTATION_CONTEXT('2D SPACE',''
  ) );
#65 = PCURVE('',#66,#71);
#66 = PLANE('',#67);
#67 = AXIS2_PLACEMENT_3D('',#68,#69,#70);
#68 = CARTESIAN_POINT('',(40.,-170.,41.885313222643));
#69 = DIRECTION('',(0.,0.,1.));
#70 = DIRECTION('',(1.,0.,-0.));
#71 = DEFINITIONAL_REPRESENTATION('',(#72),#76);
#72 = CIRCLE('',#73,3.);
#73 = AXIS2_PLACEMENT_2D('',#74,#75);
#74 = CARTESIAN_POINT('',(0.,0.));
#75 = DIRECTION('',(1.,0.));
#76 = ( GEOMETRIC_REPRESENTATION_CONTEXT(2) 
PARAMETRIC_REPRESENTATION_CONTEXT() REPRESENTATION_CONTEXT('2D SPACE',''
  ) );
#77 = ORIENTED_EDGE('',*,*,#21,.F.);
#78 = ORIENTED_EDGE('',*,*,#79,.F.);
#79 = EDGE_CURVE('',#80,#22,#82,.T.);
#80 = VERTEX_POINT('',#81);
#81 = CARTESIAN_POINT('',(42.938709911985,-169.3966890907,
    32.170693253203));
#82 = SURFACE_CURVE('',#83,(#90,#100),.PCURVE_S1.);
#83 = B_SPLINE_CURVE_WITH_KNOTS('',3,(#84,#85,#86,#87,#88,#89),
  .UNSPECIFIED.,.F.,.F.,(4,1,1,4),(0.,0.475687960361,0.910408372572,1.),
  .UNSPECIFIED.);
#84 = CARTESIAN_POINT('',(42.938709911985,-169.3966890907,
    32.170693253203));
#85 = CARTESIAN_POINT('',(42.958883442672,-169.4949537726,
    32.177863271252));
#86 = CARTESIAN_POINT('',(42.987925321429,-169.6858415682,
    32.207674917042));
#87 = CARTESIAN_POINT('',(42.999163799212,-169.8837617886,
    32.268372743199));
#88 = CARTESIAN_POINT('',(43.,-169.9830791539,32.30643579538));
#89 = CARTESIAN_POINT('',(43.,-170.,32.313146111531));
#90 = PCURVE('',#32,#91);
#91 = DEFINITIONAL_REPRESENTATION('',(#92),#99);
#92 = B_SPLINE_CURVE_WITH_KNOTS('',3,(#93,#94,#95,#96,#97,#98),
  .UNSPECIFIED.,.F.,.F.,(4,1,1,4),(0.,0.475687960361,0.910408372572,1.),
  .UNSPECIFIED.);
#93 = CARTESIAN_POINT('',(0.202484444747,32.170693253203));
#94 = CARTESIAN_POINT('',(0.16904641076,32.177863271252));
#95 = CARTESIAN_POINT('',(0.104763207403,32.207674917042));
#96 = CARTESIAN_POINT('',(3.874657211705E-02,32.268372743199));
#97 = CARTESIAN_POINT('',(5.640282023733E-03,32.30643579538));
#98 = CARTESIAN_POINT('',(0.,32.313146111531));
#99 = ( GEOMETRIC_REPRESENTATION_CONTEXT(2) 
PARAMETRIC_REPRESENTATION_CONTEXT() REPRESENTATION_CONTEXT('2D SPACE',''
  ) );
#100 = PCURVE('',#101,#340);
#101 = B_SPLINE_SURFACE_WITH_KNOTS('',3,3,(
    (#102,#103,#104,#105,#106,#107,#108,#109,#110,#111,#112,#113,#114
      ,#115)
    ,(#116,#117,#118,#119,#120,#121,#122,#123,#124,#125,#126,#127,#128
      ,#129)
    ,(#130,#131,#132,#133,#134,#135,#136,#137,#138,#139,#140,#141,#142
      ,#143)
    ,(#144,#145,#146,#147,#148,#149,#150,#151,#152,#153,#154,#155,#156
      ,#157)
    ,(#158,#159,#160,#161,#162,#163,#164,#165,#166,#167,#168,#169,#170
      ,#171)
    ,(#172,#173,#174,#175,#176,#177,#178,#179,#180,#181,#182,#183,#184
      ,#185)
    ,(#186,#187,#188,#189,#190,#191,#192,#193,#194,#195,#196,#197,#198
      ,#199)
    ,(#200,#201,#202,#203,#204,#205,#206,#207,#208,#209,#210,#211,#212
      ,#213)
    ,(#214,#215,#216,#217,#218,#219,#220,#221,#222,#223,#224,#225,#226
      ,#227)
    ,(#228,#229,#230,#231,#232,#233,#234,#235,#236,#237,#238,#239,#240
      ,#241)
    ,(#242,#243,#244,#245,#246,#247,#248,#249,#250,#251,#252,#253,#254
      ,#255)
    ,(#256,#257,#258,#259,#260,#261,#262,#263,#264,#265,#266,#267,#268
      ,#269)
    ,(#270,#271,#272,#273,#274,#275,#276,#277,#278,#279,#280,#281,#282
      ,#283)
    ,(#284,#285,#286,#287,#288,#289,#290,#291,#292,#293,#294,#295,#296
      ,#297)
    ,(#298,#299,#300,#301,#302,#303,#304,#305,#306,#307,#308,#309,#310
      ,#311)
    ,(#312,#313,#314,#315,#316,#317,#318,#319,#320,#321,#322,#323,#324
      ,#325)
    ,(#326,#327,#328,#329,#330,#331,#332,#333,#334,#335,#336,#337,#338
      ,#339
    )),.UNSPECIFIED.,.F.,.F.,.F.,(4,1,1,1,2,2,2,2,2,4),(4,2,2,2,2,2,4),(
    0.,0.197025872093,0.394051744187,0.59107761628,0.788103488373,
    0.838263167788,0.851637065182,0.867865583041,0.887637054421,1.),(0.,
    3.083344037338E-02,0.158028689177,0.407445855026,0.63871290505,
    0.894986199429,1.),.UNSPECIFIED.);
#102 = CARTESIAN_POINT('',(53.118260729262,-129.971300858,
    -4.118273046805E-05));
#103 = CARTESIAN_POINT('',(53.118260729262,-133.3243787994,
    -4.118273064221E-05));
#104 = CARTESIAN_POINT('',(53.118260729262,-136.6577121327,
    -4.118273064221E-05));
#105 = CARTESIAN_POINT('',(53.118260729262,-153.6406396424,
    -4.11827297496E-05));
#106 = CARTESIAN_POINT('',(53.118260729272,-166.5481758473,
    -4.118272185969E-05));
#107 = CARTESIAN_POINT('',(53.118260729278,-206.2927069523,
    -4.118271463994E-05));
#108 = CARTESIAN_POINT('',(53.118260729268,-233.1513762124,
    -4.118271942506E-05));
#109 = CARTESIAN_POINT('',(53.118260729267,-284.8395365046,
    -4.118271942643E-05));
#110 = CARTESIAN_POINT('',(56.267669512204,-311.1284473112,
    -2.031621684142E-02));
#111 = CARTESIAN_POINT('',(49.628315386564,-361.3922139333,
    2.242613282582E-02));
#112 = CARTESIAN_POINT('',(43.598105120652,-390.7719389749,
    0.210272658913));
#113 = CARTESIAN_POINT('',(25.903216357939,-417.8386752748,
    0.114095189632));
#114 = CARTESIAN_POINT('',(19.887716540208,-424.7320432674,
    6.673123219955E-02));
#115 = CARTESIAN_POINT('',(13.000015809223,-430.6514048358,
    -4.11821229207E-05));
#116 = CARTESIAN_POINT('',(51.949594709571,-129.971300858,5.02575950702)
  );
#117 = CARTESIAN_POINT('',(51.931159300106,-133.3243787994,5.01020801638
    ));
#118 = CARTESIAN_POINT('',(51.93115489869,-136.6577121327,5.010209402978
    ));
#119 = CARTESIAN_POINT('',(52.025592598698,-153.6406396424,
    5.089929601943));
#120 = CARTESIAN_POINT('',(52.860660196524,-166.5481758473,
    5.735487141938));
#121 = CARTESIAN_POINT('',(53.624763822723,-206.2927069523,
    6.554907297511));
#122 = CARTESIAN_POINT('',(53.118215352374,-233.1513762124,
    6.864813910203));
#123 = CARTESIAN_POINT('',(53.118157307031,-284.8395365046,
    7.201553672463));
#124 = CARTESIAN_POINT('',(56.302036286146,-311.1284473112,
    7.592965047248));
#125 = CARTESIAN_POINT('',(49.590400058856,-361.3922139333,
    6.539115969839));
#126 = CARTESIAN_POINT('',(43.735495773809,-390.4308786958,
    5.903167260353));
#127 = CARTESIAN_POINT('',(25.508543718366,-417.9784324673,
    2.549027541836));
#128 = CARTESIAN_POINT('',(19.288525941291,-425.0688263349,
    1.374362798983));
#129 = CARTESIAN_POINT('',(12.14623701743,-431.2424824609,
    -4.11821229207E-05));
#130 = CARTESIAN_POINT('',(48.498750370158,-129.971300858,
    14.818148279318));
#131 = CARTESIAN_POINT('',(48.451195194543,-133.3243787994,
    14.767408316416));
#132 = CARTESIAN_POINT('',(48.451194726721,-136.6577121327,
    14.767407690731));
#133 = CARTESIAN_POINT('',(48.694921159878,-153.6406396424,
    15.02745518996));
#134 = CARTESIAN_POINT('',(50.839674266871,-166.5481758473,
    17.149074078578));
#135 = CARTESIAN_POINT('',(52.83948237868,-206.2927069523,
    19.776586304831));
#136 = CARTESIAN_POINT('',(51.658633117167,-233.1513762124,
    20.594219011714));
#137 = CARTESIAN_POINT('',(51.702062004286,-284.8395365046,
    21.604515003819));
#138 = CARTESIAN_POINT('',(54.825998836726,-311.1284473112,
    22.827714574752));
#139 = CARTESIAN_POINT('',(48.149905087072,-361.3922139333,
    19.562860614842));
#140 = CARTESIAN_POINT('',(42.634269144414,-389.7487581376,
    17.200846739467));
#141 = CARTESIAN_POINT('',(24.1071181143,-418.2579468523,7.371101463082)
  );
#142 = CARTESIAN_POINT('',(17.755906865976,-425.7423924699,
    3.961673023873));
#143 = CARTESIAN_POINT('',(10.438679433843,-432.4246377111,
    -4.11821229207E-05));
#144 = CARTESIAN_POINT('',(40.233819395708,-129.971300858,
    28.018469720232));
#145 = CARTESIAN_POINT('',(40.167024407582,-133.3243787994,
    27.911333339883));
#146 = CARTESIAN_POINT('',(40.167026598389,-136.6577121327,
    27.911333917415));
#147 = CARTESIAN_POINT('',(40.509390692522,-153.6406396424,
    28.460439617101));
#148 = CARTESIAN_POINT('',(43.48745446344,-166.5481758473,
    32.937652886244));
#149 = CARTESIAN_POINT('',(46.398514526761,-206.2927069523,
    38.493285224197));
#150 = CARTESIAN_POINT('',(45.19286485335,-233.1513762124,
    40.259469706209));
#151 = CARTESIAN_POINT('',(45.408018683887,-284.8395365046,
    42.392928050276));
#152 = CARTESIAN_POINT('',(48.06707409534,-311.1284473112,
    44.776968637113));
#153 = CARTESIAN_POINT('',(41.993691401962,-361.3922139333,
    38.22201653674));
#154 = CARTESIAN_POINT('',(37.044641557389,-388.7255773003,
    32.909326004595));
#155 = CARTESIAN_POINT('',(20.26332528027,-418.6772184297,
    14.014498130789));
#156 = CARTESIAN_POINT('',(14.508717531677,-426.7527416725,
    7.512277654253));
#157 = CARTESIAN_POINT('',(7.877343058463,-434.1978705863,
    -4.11821229207E-05));
#158 = CARTESIAN_POINT('',(29.278887220139,-129.971300858,
    39.088569154618));
#159 = CARTESIAN_POINT('',(29.215890927218,-133.3243787994,
    38.929812698014));
#160 = CARTESIAN_POINT('',(29.215890178027,-136.6577121327,
    38.929812481518));
#161 = CARTESIAN_POINT('',(29.538752920683,-153.6406396424,
    39.743474616172));
#162 = CARTESIAN_POINT('',(32.295370324541,-166.5481758473,
    46.318154935558));
#163 = CARTESIAN_POINT('',(35.194803012251,-206.2927069523,
    54.727345476364));
#164 = CARTESIAN_POINT('',(34.745940284321,-233.1513762124,
    58.108657420068));
#165 = CARTESIAN_POINT('',(35.172006922157,-284.8395365046,
    61.576034637456));
#166 = CARTESIAN_POINT('',(37.031633428469,-311.1284473112,
    64.929085019541));
#167 = CARTESIAN_POINT('',(32.110183080362,-361.3922139333,
    55.193533095923));
#168 = CARTESIAN_POINT('',(27.925062298538,-387.7023964631,
    46.474765487824));
#169 = CARTESIAN_POINT('',(14.874452774401,-419.0964900072,
    19.655927616208));
#170 = CARTESIAN_POINT('',(10.423858649678,-427.763090875,
    10.505504752367));
#171 = CARTESIAN_POINT('',(5.316006683083,-435.9711034616,
    -4.11821229207E-05));
#172 = CARTESIAN_POINT('',(20.537938526826,-129.971300858,
    44.691684096964));
#173 = CARTESIAN_POINT('',(20.490177245113,-133.3243787994,
    44.50657376895));
#174 = CARTESIAN_POINT('',(20.490174648245,-136.6577121327,
    44.506569655173));
#175 = CARTESIAN_POINT('',(20.734934137706,-153.6406396424,
    45.455259031711));
#176 = CARTESIAN_POINT('',(22.774856253522,-166.5481758473,
    53.026245690126));
#177 = CARTESIAN_POINT('',(25.12101743732,-206.2927069523,63.11257782232
    ));
#178 = CARTESIAN_POINT('',(25.449971415046,-233.1513762124,
    68.26492673447));
#179 = CARTESIAN_POINT('',(25.972149844198,-284.8395365046,
    72.806793531695));
#180 = CARTESIAN_POINT('',(27.121832231003,-311.1284473112,
    76.618651500072));
#181 = CARTESIAN_POINT('',(23.3270386816,-361.3922139333,64.893199344279
    ));
#182 = CARTESIAN_POINT('',(19.90407883126,-387.0202759049,
    53.572116801432));
#183 = CARTESIAN_POINT('',(10.448238825042,-419.3760043921,
    22.515985722759));
#184 = CARTESIAN_POINT('',(7.252180520119,-428.43665701,12.001728641933)
  );
#185 = CARTESIAN_POINT('',(3.608449099496,-437.1532587118,
    -4.11821229207E-05));
#186 = CARTESIAN_POINT('',(14.736468194967,-129.971300858,
    47.563818343004));
#187 = CARTESIAN_POINT('',(14.70100595655,-133.3243787994,47.36589070931
    ));
#188 = CARTESIAN_POINT('',(14.701006361323,-136.6577121327,
    47.365890474132));
#189 = CARTESIAN_POINT('',(14.882763180676,-153.6406396424,
    48.380314082853));
#190 = CARTESIAN_POINT('',(16.356290702203,-166.5481758473,
    56.395356169655));
#191 = CARTESIAN_POINT('',(18.220211229019,-206.2927069523,
    67.417860403604));
#192 = CARTESIAN_POINT('',(19.020918528779,-233.1513762124,
    73.947971033276));
#193 = CARTESIAN_POINT('',(19.562069181307,-284.8395365046,
    79.227642569143));
#194 = CARTESIAN_POINT('',(20.229716572808,-311.1284473112,
    83.254315101585));
#195 = CARTESIAN_POINT('',(17.249261782085,-361.3922139333,
    70.339843897469));
#196 = CARTESIAN_POINT('',(14.426468998064,-386.5923870582,
    57.28558472039));
#197 = CARTESIAN_POINT('',(7.487260027118,-419.5513415615,
    23.970959322763));
#198 = CARTESIAN_POINT('',(5.164942151031,-428.8591797346,
    12.752825002749));
#199 = CARTESIAN_POINT('',(2.537311693667,-437.8948153773,
    -4.11821229207E-05));
#200 = CARTESIAN_POINT('',(13.542839693952,-129.971300858,
    48.113571788062));
#201 = CARTESIAN_POINT('',(13.510010366991,-133.3243787994,
    47.913227773926));
#202 = CARTESIAN_POINT('',(13.510009926775,-136.6577121327,
    47.913226376942));
#203 = CARTESIAN_POINT('',(13.678263182916,-153.6406396424,
    48.940021753452));
#204 = CARTESIAN_POINT('',(15.035506972451,-166.5481758473,
    57.040911427743));
#205 = CARTESIAN_POINT('',(16.781321917378,-206.2927069523,
    68.233405113191));
#206 = CARTESIAN_POINT('',(17.604831653716,-233.1513762124,
    74.980272535718));
#207 = CARTESIAN_POINT('',(18.151640887804,-284.8395365046,
    80.417072972201));
#208 = CARTESIAN_POINT('',(18.782600080355,-311.1284473112,
    84.550338755945));
#209 = CARTESIAN_POINT('',(16.002002901516,-361.3922139333,
    71.428442115713));
#210 = CARTESIAN_POINT('',(13.292156927182,-386.5055584905,
    58.001458264626));
#211 = CARTESIAN_POINT('',(6.877011629635,-419.5869215384,
    24.248937840567));
#212 = CARTESIAN_POINT('',(4.736442986845,-428.9449193916,
    12.895734447709));
#213 = CARTESIAN_POINT('',(2.319953079632,-438.0452944178,
    -4.11821229207E-05));
#214 = CARTESIAN_POINT('',(12.012602794122,-129.971300858,
    48.766908685136));
#215 = CARTESIAN_POINT('',(11.983263907645,-133.3243787994,
    48.563762915232));
#216 = CARTESIAN_POINT('',(11.983263939508,-136.6577121327,
    48.563762136224));
#217 = CARTESIAN_POINT('',(12.133633058326,-153.6406396424,
    49.604923989524));
#218 = CARTESIAN_POINT('',(13.341373953913,-166.5481758473,
    57.80927996951));
#219 = CARTESIAN_POINT('',(14.917018531433,-206.2927069523,
    69.18745026497));
#220 = CARTESIAN_POINT('',(15.699371584919,-233.1513762124,
    76.111467709746));
#221 = CARTESIAN_POINT('',(16.25385076446,-284.8395365046,
    81.757794922611));
#222 = CARTESIAN_POINT('',(16.895098667983,-311.1284473112,
    86.122157679434));
#223 = CARTESIAN_POINT('',(14.401679739227,-361.3922139333,
    72.788306610477));
#224 = CARTESIAN_POINT('',(11.829272448381,-386.3955791299,
    58.858205362729));
#225 = CARTESIAN_POINT('',(6.09341720717,-419.6319880782,24.578118057179
    ));
#226 = CARTESIAN_POINT('',(4.188086558859,-429.0535195093,
    13.064064864057));
#227 = CARTESIAN_POINT('',(2.044640909361,-438.2358951511,
    -4.11821229207E-05));
#228 = CARTESIAN_POINT('',(11.689456123575,-129.971300858,
    48.902024946697));
#229 = CARTESIAN_POINT('',(11.660860222925,-133.3243787994,
    48.698303152358));
#230 = CARTESIAN_POINT('',(11.660860142292,-136.6577121327,
    48.698302283848));
#231 = CARTESIAN_POINT('',(11.807420037111,-153.6406396424,
    49.74241538991));
#232 = CARTESIAN_POINT('',(12.983577837168,-166.5481758473,
    57.968281861044));
#233 = CARTESIAN_POINT('',(14.522262005268,-206.2927069523,
    69.383897930274));
#234 = CARTESIAN_POINT('',(15.293316812386,-233.1513762124,
    76.34125919465));
#235 = CARTESIAN_POINT('',(15.846989063082,-284.8395365046,
    82.029356429294));
#236 = CARTESIAN_POINT('',(16.488142343399,-311.1284473112,
    86.441266469057));
#237 = CARTESIAN_POINT('',(14.056601776984,-361.3922139333,
    73.065075394989));
#238 = CARTESIAN_POINT('',(11.519230705282,-386.3724283369,
    59.035002828836));
#239 = CARTESIAN_POINT('',(5.928154449977,-419.6414746413,
    24.646469171049));
#240 = CARTESIAN_POINT('',(4.072621921974,-429.0763799699,
    13.099125581065));
#241 = CARTESIAN_POINT('',(1.986687353124,-438.2760168439,
    -4.11821229207E-05));
#242 = CARTESIAN_POINT('',(10.97198863219,-129.971300858,49.195725076449
    ));
#243 = CARTESIAN_POINT('',(10.945055893979,-133.3243787994,
    48.99076075515));
#244 = CARTESIAN_POINT('',(10.945055826124,-136.6577121327,
    48.990759740431));
#245 = CARTESIAN_POINT('',(11.083091778183,-153.6406396424,
    50.041239539405));
#246 = CARTESIAN_POINT('',(12.189048828327,-166.5481758473,
    58.314072522123));
#247 = CARTESIAN_POINT('',(13.643555422845,-206.2927069523,
    69.808782476174));
#248 = CARTESIAN_POINT('',(14.384272295667,-233.1513762124,
    76.830880430335));
#249 = CARTESIAN_POINT('',(14.931232343286,-284.8395365046,
    82.605985338794));
#250 = CARTESIAN_POINT('',(15.56759628881,-311.1284473112,
    87.120542642852));
#251 = CARTESIAN_POINT('',(13.275948297402,-361.3922139333,
    73.655856993161));
#252 = CARTESIAN_POINT('',(10.828493772038,-386.3211852798,
    59.418259500072));
#253 = CARTESIAN_POINT('',(5.561623010339,-419.6624726473,
    24.795650690754));
#254 = CARTESIAN_POINT('',(3.816920810237,-429.1269803916,
    13.175904233625));
#255 = CARTESIAN_POINT('',(1.858410218448,-438.364824091,
    -4.11821229207E-05));
#256 = CARTESIAN_POINT('',(10.575238901169,-129.971300858,
    49.348373242037));
#257 = CARTESIAN_POINT('',(10.549199182339,-133.3243787994,49.1426741325
    ));
#258 = CARTESIAN_POINT('',(10.549199192442,-136.6577121327,
    49.14267352656));
#259 = CARTESIAN_POINT('',(10.682659032348,-153.6406396424,
    50.196923683902));
#260 = CARTESIAN_POINT('',(11.751342993665,-166.5481758473,
    58.498499982552));
#261 = CARTESIAN_POINT('',(13.159415322694,-206.2927069523,
    70.037177065316));
#262 = CARTESIAN_POINT('',(13.87913678621,-233.1513762124,
    77.086695509619));
#263 = CARTESIAN_POINT('',(14.419117849697,-284.8395365046,
    82.905811396415));
#264 = CARTESIAN_POINT('',(15.049727467297,-311.1284473112,
    87.474733173506));
#265 = CARTESIAN_POINT('',(12.836705728543,-361.3922139333,
    73.964995794042));
#266 = CARTESIAN_POINT('',(10.446847321229,-386.2930930158,
    59.622950298477));
#267 = CARTESIAN_POINT('',(5.360203903299,-419.6739840903,
    24.876018619289));
#268 = CARTESIAN_POINT('',(3.676660359732,-429.1547203527,
    13.217429088239));
#269 = CARTESIAN_POINT('',(1.788086640008,-438.4135096453,
    -4.11821229207E-05));
#270 = CARTESIAN_POINT('',(9.688328212462,-129.971300858,49.668159700298
    ));
#271 = CARTESIAN_POINT('',(9.664236130269,-133.3243787994,
    49.460705203331));
#272 = CARTESIAN_POINT('',(9.66423593925,-136.6577121327,49.4607037706)
  );
#273 = CARTESIAN_POINT('',(9.787711527397,-153.6406396424,
    50.523941793336));
#274 = CARTESIAN_POINT('',(10.775914584549,-166.5481758473,
    58.89617700435));
#275 = CARTESIAN_POINT('',(12.080270468546,-206.2927069523,
    70.533768118112));
#276 = CARTESIAN_POINT('',(12.744980780299,-233.1513762124,
    77.625444447144));
#277 = CARTESIAN_POINT('',(13.263000560026,-284.8395365046,
    83.533645631933));
#278 = CARTESIAN_POINT('',(13.874693767286,-311.1284473112,
    88.218870188017));
#279 = CARTESIAN_POINT('',(11.839911601858,-361.3922139333,
    74.617129720528));
#280 = CARTESIAN_POINT('',(9.594115372666,-386.2307754823,60.06506032697
    ));
#281 = CARTESIAN_POINT('',(4.912329856665,-419.6995201144,
    25.051311166384));
#282 = CARTESIAN_POINT('',(3.365307701871,-429.2162563666,
    13.308455346461));
#283 = CARTESIAN_POINT('',(1.632086684315,-438.5215096146,
    -4.11821229207E-05));
#284 = CARTESIAN_POINT('',(9.196675766359,-129.971300858,49.83113311318)
  );
#285 = CARTESIAN_POINT('',(9.173694853224,-133.3243787994,
    49.622782246107));
#286 = CARTESIAN_POINT('',(9.173694990826,-136.6577121327,
    49.622782057736));
#287 = CARTESIAN_POINT('',(9.291479097892,-153.6406396424,
    50.690627608373));
#288 = CARTESIAN_POINT('',(10.23385758628,-166.5481758473,
    59.098975021945));
#289 = CARTESIAN_POINT('',(11.478825201038,-206.2927069523,
    70.787189183478));
#290 = CARTESIAN_POINT('',(12.11236462048,-233.1513762124,
    77.900522365625));
#291 = CARTESIAN_POINT('',(12.615147766678,-284.8395365046,
    83.854598425241));
#292 = CARTESIAN_POINT('',(13.211543377785,-311.1284473112,
    88.598868196446));
#293 = CARTESIAN_POINT('',(11.277201961989,-361.3922139333,
    74.951916740189));
#294 = CARTESIAN_POINT('',(9.121610657604,-386.1965502129,
    60.299464736951));
#295 = CARTESIAN_POINT('',(4.665615125514,-419.7135446956,
    25.145425126257));
#296 = CARTESIAN_POINT('',(3.194142679719,-429.2500524194,
    13.357581270732));
#297 = CARTESIAN_POINT('',(1.546410307061,-438.5808240296,
    -4.11821229207E-05));
#298 = CARTESIAN_POINT('',(5.885020087321,-129.971300858,50.83512787937)
  );
#299 = CARTESIAN_POINT('',(5.869694959977,-133.3243787994,
    50.621217993115));
#300 = CARTESIAN_POINT('',(5.869693747776,-136.6577121327,50.62121308629
    ));
#301 = CARTESIAN_POINT('',(5.948225652555,-153.6406396424,
    51.717499030312));
#302 = CARTESIAN_POINT('',(6.575213142616,-166.5481758473,
    60.349409575656));
#303 = CARTESIAN_POINT('',(7.409567760128,-206.2927069523,
    72.351208501034));
#304 = CARTESIAN_POINT('',(7.828917523701,-233.1513762124,
    79.597836118517));
#305 = CARTESIAN_POINT('',(8.212183170516,-284.8395365046,
    85.838519311128));
#306 = CARTESIAN_POINT('',(8.679719916053,-311.1284473112,
    90.947288443716));
#307 = CARTESIAN_POINT('',(7.430964784365,-361.3922139333,
    77.034632388319));
#308 = CARTESIAN_POINT('',(5.939303866245,-385.9678198404,
    61.813236305764));
#309 = CARTESIAN_POINT('',(3.012118310761,-419.8072721586,
    25.761882697814));
#310 = CARTESIAN_POINT('',(2.049100096201,-429.4759143014,13.68170491346
    ));
#311 = CARTESIAN_POINT('',(0.973827825041,-438.9772272864,
    -4.11821229207E-05));
#312 = CARTESIAN_POINT('',(2.942682406368,-129.971300858,51.270965150536
    ));
#313 = CARTESIAN_POINT('',(2.935015996991,-133.3243787994,
    51.054571809546));
#314 = CARTESIAN_POINT('',(2.935014531841,-136.6577121327,
    51.054563805519));
#315 = CARTESIAN_POINT('',(2.974290974684,-153.6406396424,
    52.163544644713));
#316 = CARTESIAN_POINT('',(3.287907391357,-166.5481758473,
    60.895078170717));
#317 = CARTESIAN_POINT('',(3.70528984725,-206.2927069523,73.037594564155
    ));
#318 = CARTESIAN_POINT('',(3.914966909322,-233.1513762124,80.34360347139
    ));
#319 = CARTESIAN_POINT('',(4.107097198835,-284.8395365046,
    86.719241316856));
#320 = CARTESIAN_POINT('',(4.341484797657,-311.1284473112,
    92.001158519409));
#321 = CARTESIAN_POINT('',(3.717555540587,-361.3922139333,
    77.974702066316));
#322 = CARTESIAN_POINT('',(2.97288589186,-385.7733147372,62.495831581058
    ));
#323 = CARTESIAN_POINT('',(1.507655860175,-419.8869750405,
    26.040070667687));
#324 = CARTESIAN_POINT('',(1.025474819007,-429.6679801305,
    13.828040963208));
#325 = CARTESIAN_POINT('',(0.486921720275,-439.3143161282,
    -4.11821229207E-05));
#326 = CARTESIAN_POINT('',(2.161396395838E-05,-129.971300858,
    51.270965150537));
#327 = CARTESIAN_POINT('',(2.16139640286E-05,-133.3243787994,
    51.054581239847));
#328 = CARTESIAN_POINT('',(2.161396402342E-05,-136.6577121327,
    51.054581239847));
#329 = CARTESIAN_POINT('',(2.161396361045E-05,-153.6406396424,
    52.163600063278));
#330 = CARTESIAN_POINT('',(2.161396002683E-05,-166.5481758473,
    60.894960323383));
#331 = CARTESIAN_POINT('',(2.161395727266E-05,-206.2927069523,
    73.03731891774));
#332 = CARTESIAN_POINT('',(2.161396112691E-05,-233.1513762124,
    80.343741087248));
#333 = CARTESIAN_POINT('',(2.161396190171E-05,-284.8395365046,
    86.7189759149));
#334 = CARTESIAN_POINT('',(2.161396156343E-05,-311.1284473112,
    91.997210955084));
#335 = CARTESIAN_POINT('',(2.161396162581E-05,-361.3922139333,
    77.975975847526));
#336 = CARTESIAN_POINT('',(2.507515566265E-05,-385.578809634,
    62.520947734019));
#337 = CARTESIAN_POINT('',(2.019565892453E-05,-419.9666779224,
    26.053786281103));
#338 = CARTESIAN_POINT('',(1.819617434915E-05,-429.8600459597,
    13.835924971879));
#339 = CARTESIAN_POINT('',(1.561550799556E-05,-439.6514049699,
    -4.11821229207E-05));
#340 = DEFINITIONAL_REPRESENTATION('',(#341),#348);
#341 = B_SPLINE_CURVE_WITH_KNOTS('',3,(#342,#343,#344,#345,#346,#347),
  .UNSPECIFIED.,.F.,.F.,(4,1,1,4),(0.,0.475687960361,0.910408372572,1.),
  .UNSPECIFIED.);
#342 = CARTESIAN_POINT('',(0.389545319163,0.124360129429));
#343 = CARTESIAN_POINT('',(0.38936841837,0.124674809898));
#344 = CARTESIAN_POINT('',(0.389240598306,0.125286042294));
#345 = CARTESIAN_POINT('',(0.389510305893,0.125919665641));
#346 = CARTESIAN_POINT('',(0.389747878478,0.126237586694));
#347 = CARTESIAN_POINT('',(0.389791383957,0.126291750351));
#348 = ( GEOMETRIC_REPRESENTATION_CONTEXT(2) 
PARAMETRIC_REPRESENTATION_CONTEXT() REPRESENTATION_CONTEXT('2D SPACE',''
  ) );
#349 = ORIENTED_EDGE('',*,*,#350,.F.);
#350 = EDGE_CURVE('',#22,#80,#351,.T.);
#351 = SURFACE_CURVE('',#352,(#474,#599),.PCURVE_S1.);
#352 = B_SPLINE_CURVE_WITH_KNOTS('',8,(#353,#354,#355,#356,#357,#358,
    #359,#360,#361,#362,#363,#364,#365,#366,#367,#368,#369,#370,#371,
    #372,#373,#374,#375,#376,#377,#378,#379,#380,#381,#382,#383,#384,
    #385,#386,#387,#388,#389,#390,#391,#392,#393,#394,#395,#396,#397,
    #398,#399,#400,#401,#402,#403,#404,#405,#406,#407,#408,#409,#410,
    #411,#412,#413,#414,#415,#416,#417,#418,#419,#420,#421,#422,#423,
    #424,#425,#426,#427,#428,#429,#430,#431,#432,#433,#434,#435,#436,
    #437,#438,#439,#440,#441,#442,#443,#444,#445,#446,#447,#448,#449,
    #450,#451,#452,#453,#454,#455,#456,#457,#458,#459,#460,#461,#462,
    #463,#464,#465,#466,#467,#468,#469,#470,#471,#472,#473),
  .UNSPECIFIED.,.F.,.F.,(9,7,7,7,7,7,7,7,7,7,7,7,7,7,7,7,7,9),(0.,
    4.334957610425E-02,8.018963948135E-02,0.140313643066,0.195742953721,
    0.269078201837,0.338582292055,0.384963437854,0.409648058301,
    0.442143704646,0.482682088277,0.541240447065,0.593067976599,
    0.725908131666,0.860212513405,0.919845128677,0.949901100114,1.),
  .UNSPECIFIED.);
#353 = CARTESIAN_POINT('',(43.,-170.,32.313146111531));
#354 = CARTESIAN_POINT('',(43.,-170.1551700849,32.3746820609));
#355 = CARTESIAN_POINT('',(42.990852820431,-170.3016991838,
    32.447282532132));
#356 = CARTESIAN_POINT('',(42.974282591419,-170.4398645406,
    32.528302405034));
#357 = CARTESIAN_POINT('',(42.951721310681,-170.5700667845,
    32.615604022308));
#358 = CARTESIAN_POINT('',(42.924308843523,-170.6928299299,
    32.707557189552));
#359 = CARTESIAN_POINT('',(42.892892922841,-170.8088013767,
    32.803039175255));
#360 = CARTESIAN_POINT('',(42.85802914912,-170.9187519099,
    32.901434710803));
#361 = CARTESIAN_POINT('',(42.78764626647,-171.1126588102,33.08864055827
    ));
#362 = CARTESIAN_POINT('',(42.753114282001,-171.1978111543,
    33.17642342584));
#363 = CARTESIAN_POINT('',(42.716632675636,-171.279349052,
    33.265697767947));
#364 = CARTESIAN_POINT('',(42.678413235222,-171.3575531707,
    33.356220845006));
#365 = CARTESIAN_POINT('',(42.638631897836,-171.432668526,
    33.447794003084));
#366 = CARTESIAN_POINT('',(42.597428749792,-171.5049044812,
    33.540262673904));
#367 = CARTESIAN_POINT('',(42.554908026636,-171.5744347479,
    33.633516374839));
#368 = CARTESIAN_POINT('',(42.43970440229,-171.7506822639,
    33.880854160362));
#369 = CARTESIAN_POINT('',(42.364992540501,-171.8531140444,
    34.036050567464));
#370 = CARTESIAN_POINT('',(42.287376341346,-171.9493731618,
    34.192697795542));
#371 = CARTESIAN_POINT('',(42.207125347032,-172.039925248,
    34.350503081022));
#372 = CARTESIAN_POINT('',(42.124447150328,-172.1251284892,
    34.509234816897));
#373 = CARTESIAN_POINT('',(42.039501756444,-172.2052720377,
    34.668713198215));
#374 = CARTESIAN_POINT('',(41.952403880078,-172.2805843325,
    34.82880783158));
#375 = CARTESIAN_POINT('',(41.781017347055,-172.4163981958,
    35.137514863471));
#376 = CARTESIAN_POINT('',(41.697055334123,-172.4775851213,
    35.286020757043));
#377 = CARTESIAN_POINT('',(41.611414008731,-172.5349485281,
    35.434862524494));
#378 = CARTESIAN_POINT('',(41.524149664523,-172.5885855895,
    35.583961235179));
#379 = CARTESIAN_POINT('',(41.435306785747,-172.6385623723,
    35.733245309021));
#380 = CARTESIAN_POINT('',(41.344919780265,-172.6849197276,
    35.882649609104));
#381 = CARTESIAN_POINT('',(41.2530135739,-172.7276757816,36.03211491451)
  );
#382 = CARTESIAN_POINT('',(41.036017138687,-172.8186210815,
    36.379346487449));
#383 = CARTESIAN_POINT('',(40.909811889543,-172.8640977312,
    36.577096159412));
#384 = CARTESIAN_POINT('',(40.781018353167,-172.9032480357,
    36.774720866459));
#385 = CARTESIAN_POINT('',(40.649655802083,-172.9359830186,
    36.97209060655));
#386 = CARTESIAN_POINT('',(40.515735001781,-172.962143552,
    37.169060954367));
#387 = CARTESIAN_POINT('',(40.379257490249,-172.9814978145,
    37.365471983234));
#388 = CARTESIAN_POINT('',(40.24021088211,-172.9937243241,
    37.561146453034));
#389 = CARTESIAN_POINT('',(39.964309584942,-173.0027935152,
    37.940454484563));
#390 = CARTESIAN_POINT('',(39.827773038091,-173.0004048885,
    38.12410999746));
#391 = CARTESIAN_POINT('',(39.688884553726,-172.9908451789,
    38.306739832283));
#392 = CARTESIAN_POINT('',(39.547609063293,-172.9736404589,
    38.488142417037));
#393 = CARTESIAN_POINT('',(39.403939994566,-172.9481810367,
    38.668020618218));
#394 = CARTESIAN_POINT('',(39.257900807901,-172.9137184109,
    38.845981470952));
#395 = CARTESIAN_POINT('',(39.109535428808,-172.8692996335,
    39.02152381775));
#396 = CARTESIAN_POINT('',(38.858332813884,-172.7763444285,
    39.309086122705));
#397 = CARTESIAN_POINT('',(38.756846346775,-172.7341223886,
    39.42272275861));
#398 = CARTESIAN_POINT('',(38.654380380575,-172.6864676885,
    39.534762656066));
#399 = CARTESIAN_POINT('',(38.550969043588,-172.632901727,
    39.644950314411));
#400 = CARTESIAN_POINT('',(38.446716569245,-172.5728622622,
    39.752907443779));
#401 = CARTESIAN_POINT('',(38.341799854166,-172.5057048364,
    39.85813419387));
#402 = CARTESIAN_POINT('',(38.236469819229,-172.4306631148,
    39.959995228571));
#403 = CARTESIAN_POINT('',(38.074945918792,-172.3020232701,
    40.109647056861));
#404 = CARTESIAN_POINT('',(38.018843678292,-172.2548398981,40.1604172981
    ));
#405 = CARTESIAN_POINT('',(37.962794528657,-172.2050006136,
    40.209849138286));
#406 = CARTESIAN_POINT('',(37.906878858953,-172.1523534286,
    40.257781485774));
#407 = CARTESIAN_POINT('',(37.851207275806,-172.0967498248,
    40.304019391692));
#408 = CARTESIAN_POINT('',(37.795920603398,-172.0380447533,
    40.348334049949));
#409 = CARTESIAN_POINT('',(37.741189883471,-171.976096635,
    40.390462797229));
#410 = CARTESIAN_POINT('',(37.616163873766,-171.8247657541,
    40.482300827211));
#411 = CARTESIAN_POINT('',(37.546253254303,-171.7328717317,
    40.530385593152));
#412 = CARTESIAN_POINT('',(37.478212063922,-171.6347452892,
    40.573351800586));
#413 = CARTESIAN_POINT('',(37.412800906893,-171.5303623568,
    40.610289867783));
#414 = CARTESIAN_POINT('',(37.350813444771,-171.4200147989,
    40.640392241511));
#415 = CARTESIAN_POINT('',(37.293076396394,-171.3043104141,
    40.662953397035));
#416 = CARTESIAN_POINT('',(37.240449537885,-171.1841729355,
    40.677369838118));
#417 = CARTESIAN_POINT('',(37.135662375195,-170.9069864796,
    40.690338506515));
#418 = CARTESIAN_POINT('',(37.087188658756,-170.7485282927,
    40.683804565363));
#419 = CARTESIAN_POINT('',(37.04904976331,-170.5887036005,
    40.664215044836));
#420 = CARTESIAN_POINT('',(37.021437020147,-170.4301654153,
    40.632521973669));
#421 = CARTESIAN_POINT('',(37.004087881873,-170.2749836307,
    40.589952638051));
#422 = CARTESIAN_POINT('',(36.996285922407,-170.1246450217,
    40.538009581636));
#423 = CARTESIAN_POINT('',(36.996860836983,-169.9800532442,
    40.478470605536));
#424 = CARTESIAN_POINT('',(37.01477328777,-169.6414280603,
    40.319376989046));
#425 = CARTESIAN_POINT('',(37.040018184836,-169.4535375921,
    40.212942633336));
#426 = CARTESIAN_POINT('',(37.076963982656,-169.2770980712,
    40.097287658571));
#427 = CARTESIAN_POINT('',(37.123415134322,-169.1116002565,
    39.97475492302));
#428 = CARTESIAN_POINT('',(37.177680007898,-168.9564928002,
    39.847056913448));
#429 = CARTESIAN_POINT('',(37.238441076388,-168.8110423532,
    39.715393515882));
#430 = CARTESIAN_POINT('',(37.304754986451,-168.6743460031,
    39.580458829527));
#431 = CARTESIAN_POINT('',(37.439399985861,-168.4314563887,
    39.320091248652));
#432 = CARTESIAN_POINT('',(37.503883866214,-168.3284889033,
    39.200639745373));
#433 = CARTESIAN_POINT('',(37.569145694133,-168.2342356931,
    39.083588098437));
#434 = CARTESIAN_POINT('',(37.635035945123,-168.1471998611,
    38.968494145909));
#435 = CARTESIAN_POINT('',(37.701494574796,-168.0663231184,
    38.854987876842));
#436 = CARTESIAN_POINT('',(37.768466100226,-167.990834386,
    38.742810517797));
#437 = CARTESIAN_POINT('',(37.835878993201,-167.9202066423,
    38.631823814852));
#438 = CARTESIAN_POINT('',(38.077138440926,-167.684515641,
    38.240652799477));
#439 = CARTESIAN_POINT('',(38.260012345275,-167.5372111982,
    37.955221603824));
#440 = CARTESIAN_POINT('',(38.450295702638,-167.4100105074,
    37.666827632894));
#441 = CARTESIAN_POINT('',(38.646647288404,-167.3017954547,
    37.376319697538));
#442 = CARTESIAN_POINT('',(38.847971103263,-167.2117154046,
    37.084397195062));
#443 = CARTESIAN_POINT('',(39.053437052207,-167.1392537411,
    36.791604057872));
#444 = CARTESIAN_POINT('',(39.262415865467,-167.0841161341,
    36.498347616053));
#445 = CARTESIAN_POINT('',(39.688947796937,-167.0082305694,
    35.90819857851));
#446 = CARTESIAN_POINT('',(39.906255174785,-166.9879251744,
    35.611737418636));
#447 = CARTESIAN_POINT('',(40.126083308314,-166.9854316875,
    35.31567501304));
#448 = CARTESIAN_POINT('',(40.348056036146,-167.0012174641,
    35.02042138259));
#449 = CARTESIAN_POINT('',(40.571738548872,-167.0360247396,
    34.726593651031));
#450 = CARTESIAN_POINT('',(40.796681273377,-167.0912531849,
    34.43510902218));
#451 = CARTESIAN_POINT('',(41.02239052982,-167.1686391143,
    34.147126888661));
#452 = CARTESIAN_POINT('',(41.349027004065,-167.3181486111,
    33.738873578617));
#453 = CARTESIAN_POINT('',(41.449476590135,-167.3692380594,
    33.614482731517));
#454 = CARTESIAN_POINT('',(41.549947863733,-167.4257983142,
    33.491344822874));
#455 = CARTESIAN_POINT('',(41.6503943485,-167.4882420231,33.36967242958)
  );
#456 = CARTESIAN_POINT('',(41.750716007517,-167.5570758982,
    33.249795210745));
#457 = CARTESIAN_POINT('',(41.850761576575,-167.6328991387,
    33.132160417094));
#458 = CARTESIAN_POINT('',(41.95033232011,-167.7164668575,33.01735706717
    ));
#459 = CARTESIAN_POINT('',(42.099011578015,-167.8555177171,
    32.850180267622));
#460 = CARTESIAN_POINT('',(42.14862975078,-167.9043540697,
    32.795114272949));
#461 = CARTESIAN_POINT('',(42.198014597667,-167.9555678649,
    32.741100203271));
#462 = CARTESIAN_POINT('',(42.247116312225,-168.0093109548,
    32.688274597038));
#463 = CARTESIAN_POINT('',(42.295862162674,-168.0657479546,
    32.636816028692));
#464 = CARTESIAN_POINT('',(42.3441564919,-168.1250562426,32.586945108665
    ));
#465 = CARTESIAN_POINT('',(42.391880717464,-168.1874259606,
    32.538924483382));
#466 = CARTESIAN_POINT('',(42.517256469968,-168.3624623608,
    32.416607521132));
#467 = CARTESIAN_POINT('',(42.594541633591,-168.4814252522,
    32.344944762066));
#468 = CARTESIAN_POINT('',(42.669034413674,-168.6112758368,
    32.281275866323));
#469 = CARTESIAN_POINT('',(42.739007567981,-168.7522897597,
    32.228458543974));
#470 = CARTESIAN_POINT('',(42.802721020826,-168.9036911619,
    32.189002906896));
#471 = CARTESIAN_POINT('',(42.858421863074,-169.0636526802,
    32.165071468778));
#472 = CARTESIAN_POINT('',(42.904344352138,-169.2292954471,
    32.158479145113));
#473 = CARTESIAN_POINT('',(42.938709911985,-169.3966890907,
    32.170693253203));
#474 = PCURVE('',#32,#475);
#475 = DEFINITIONAL_REPRESENTATION('',(#476),#598);
#476 = B_SPLINE_CURVE_WITH_KNOTS('',8,(#477,#478,#479,#480,#481,#482,
    #483,#484,#485,#486,#487,#488,#489,#490,#491,#492,#493,#494,#495,
    #496,#497,#498,#499,#500,#501,#502,#503,#504,#505,#506,#507,#508,
    #509,#510,#511,#512,#513,#514,#515,#516,#517,#518,#519,#520,#521,
    #522,#523,#524,#525,#526,#527,#528,#529,#530,#531,#532,#533,#534,
    #535,#536,#537,#538,#539,#540,#541,#542,#543,#544,#545,#546,#547,
    #548,#549,#550,#551,#552,#553,#554,#555,#556,#557,#558,#559,#560,
    #561,#562,#563,#564,#565,#566,#567,#568,#569,#570,#571,#572,#573,
    #574,#575,#576,#577,#578,#579,#580,#581,#582,#583,#584,#585,#586,
    #587,#588,#589,#590,#591,#592,#593,#594,#595,#596,#597),
  .UNSPECIFIED.,.F.,.F.,(9,7,7,7,7,7,7,7,7,7,7,7,7,7,7,7,7,9),(0.,
    4.334957610425E-02,8.018963948135E-02,0.140313643066,0.195742953721,
    0.269078201837,0.338582292055,0.384963437854,0.409648058301,
    0.442143704646,0.482682088277,0.541240447065,0.593067976599,
    0.725908131666,0.860212513405,0.919845128677,0.949901100114,1.),
  .UNSPECIFIED.);
#477 = CARTESIAN_POINT('',(6.28318530718,32.313146111531));
#478 = CARTESIAN_POINT('',(6.231461945538,32.3746820609));
#479 = CARTESIAN_POINT('',(6.182591137059,32.447282532132));
#480 = CARTESIAN_POINT('',(6.136327413652,32.528302405034));
#481 = CARTESIAN_POINT('',(6.092417836141,32.615604022308));
#482 = CARTESIAN_POINT('',(6.050601994271,32.707557189552));
#483 = CARTESIAN_POINT('',(6.010612006703,32.803039175255));
#484 = CARTESIAN_POINT('',(5.972172521016,32.901434710803));
#485 = CARTESIAN_POINT('',(5.903410745359,33.08864055827));
#486 = CARTESIAN_POINT('',(5.872799824814,33.17642342584));
#487 = CARTESIAN_POINT('',(5.843054782865,33.265697767947));
#488 = CARTESIAN_POINT('',(5.814075219928,33.356220845006));
#489 = CARTESIAN_POINT('',(5.785773506041,33.447794003084));
#490 = CARTESIAN_POINT('',(5.758074780865,33.540262673904));
#491 = CARTESIAN_POINT('',(5.730916953684,33.633516374839));
#492 = CARTESIAN_POINT('',(5.660730644522,33.880854160362));
#493 = CARTESIAN_POINT('',(5.618524815134,34.036050567464));
#494 = CARTESIAN_POINT('',(5.577386125752,34.192697795542));
#495 = CARTESIAN_POINT('',(5.53713949675,34.350503081022));
#496 = CARTESIAN_POINT('',(5.497643691653,34.509234816897));
#497 = CARTESIAN_POINT('',(5.458776678329,34.668713198215));
#498 = CARTESIAN_POINT('',(5.420430830307,34.82880783158));
#499 = CARTESIAN_POINT('',(5.347539168554,35.137514863471));
#500 = CARTESIAN_POINT('',(5.312936819955,35.286020757043));
#501 = CARTESIAN_POINT('',(5.278622253213,35.434862524494));
#502 = CARTESIAN_POINT('',(5.24453042461,35.583961235179));
#503 = CARTESIAN_POINT('',(5.210602682522,35.733245309021));
#504 = CARTESIAN_POINT('',(5.176783971978,35.882649609104));
#505 = CARTESIAN_POINT('',(5.143020789431,36.03211491451));
#506 = CARTESIAN_POINT('',(5.064592832075,36.379346487449));
#507 = CARTESIAN_POINT('',(5.019934623072,36.577096159412));
#508 = CARTESIAN_POINT('',(4.975160485028,36.774720866459));
#509 = CARTESIAN_POINT('',(4.930151292585,36.97209060655));
#510 = CARTESIAN_POINT('',(4.884788789947,37.169060954367));
#511 = CARTESIAN_POINT('',(4.838948552331,37.365471983234));
#512 = CARTESIAN_POINT('',(4.792490689649,37.561146453034));
#513 = CARTESIAN_POINT('',(4.700473918227,37.940454484563));
#514 = CARTESIAN_POINT('',(4.655012567218,38.12410999746));
#515 = CARTESIAN_POINT('',(4.60870889437,38.306739832283));
#516 = CARTESIAN_POINT('',(4.561403577839,38.488142417037));
#517 = CARTESIAN_POINT('',(4.51291676543,38.668020618218));
#518 = CARTESIAN_POINT('',(4.46304224465,38.845981470952));
#519 = CARTESIAN_POINT('',(4.411522299227,39.02152381775));
#520 = CARTESIAN_POINT('',(4.322239089473,39.309086122705));
#521 = CARTESIAN_POINT('',(4.285628520697,39.42272275861));
#522 = CARTESIAN_POINT('',(4.248013497319,39.534762656066));
#523 = CARTESIAN_POINT('',(4.209266262666,39.644950314411));
#524 = CARTESIAN_POINT('',(4.16924866557,39.752907443779));
#525 = CARTESIAN_POINT('',(4.127808220954,39.85813419387));
#526 = CARTESIAN_POINT('',(4.084760646854,39.959995228571));
#527 = CARTESIAN_POINT('',(4.015930598459,40.109647056861));
#528 = CARTESIAN_POINT('',(3.991502975336,40.1604172981));
#529 = CARTESIAN_POINT('',(3.966517923521,40.209849138286));
#530 = CARTESIAN_POINT('',(3.940940246669,40.257781485774));
#531 = CARTESIAN_POINT('',(3.914737403821,40.304019391692));
#532 = CARTESIAN_POINT('',(3.887879509407,40.348334049949));
#533 = CARTESIAN_POINT('',(3.860339333239,40.390462797229));
#534 = CARTESIAN_POINT('',(3.794906977475,40.482300827211));
#535 = CARTESIAN_POINT('',(3.756459722854,40.530385593152));
#536 = CARTESIAN_POINT('',(3.716722746569,40.573351800586));
#537 = CARTESIAN_POINT('',(3.675744047048,40.610289867783));
#538 = CARTESIAN_POINT('',(3.633647411235,40.640392241511));
#539 = CARTESIAN_POINT('',(3.590632414589,40.662953397035));
#540 = CARTESIAN_POINT('',(3.546974421083,40.677369838118));
#541 = CARTESIAN_POINT('',(3.448197072794,40.690338506515));
#542 = CARTESIAN_POINT('',(3.393092498298,40.683804565363));
#543 = CARTESIAN_POINT('',(3.338499604804,40.664215044836));
#544 = CARTESIAN_POINT('',(3.285034678895,40.632521973669));
#545 = CARTESIAN_POINT('',(3.233141548653,40.589952638051));
#546 = CARTESIAN_POINT('',(3.183091583661,40.538009581636));
#547 = CARTESIAN_POINT('',(3.134983694999,40.478470605536));
#548 = CARTESIAN_POINT('',(3.021950823133,40.319376989046));
#549 = CARTESIAN_POINT('',(2.95896200476,40.212942633336));
#550 = CARTESIAN_POINT('',(2.899131209863,40.097287658571));
#551 = CARTESIAN_POINT('',(2.842073572445,39.97475492302));
#552 = CARTESIAN_POINT('',(2.787496578057,39.847056913448));
#553 = CARTESIAN_POINT('',(2.735097306628,39.715393515882));
#554 = CARTESIAN_POINT('',(2.684526370859,39.580458829527));
#555 = CARTESIAN_POINT('',(2.59195529268,39.320091248652));
#556 = CARTESIAN_POINT('',(2.551515138294,39.200639745373));
#557 = CARTESIAN_POINT('',(2.513365565557,39.083588098437));
#558 = CARTESIAN_POINT('',(2.477039020387,38.968494145909));
#559 = CARTESIAN_POINT('',(2.442198900916,38.854987876842));
#560 = CARTESIAN_POINT('',(2.408597837158,38.742810517797));
#561 = CARTESIAN_POINT('',(2.376072592726,38.631823814852));
#562 = CARTESIAN_POINT('',(2.263646632304,38.240652799477));
#563 = CARTESIAN_POINT('',(2.185730163976,37.955221603824));
#564 = CARTESIAN_POINT('',(2.109924681579,37.666827632894));
#565 = CARTESIAN_POINT('',(2.035726945691,37.376319697538));
#566 = CARTESIAN_POINT('',(1.962702435588,37.084397195062));
#567 = CARTESIAN_POINT('',(1.890478341139,36.791604057872));
#568 = CARTESIAN_POINT('',(1.818676222368,36.498347616053));
#569 = CARTESIAN_POINT('',(1.674266270615,35.90819857851));
#570 = CARTESIAN_POINT('',(1.601764405164,35.611737418636));
#571 = CARTESIAN_POINT('',(1.52889468445,35.31567501304));
#572 = CARTESIAN_POINT('',(1.455220781511,35.02042138259));
#573 = CARTESIAN_POINT('',(1.380315004521,34.726593651031));
#574 = CARTESIAN_POINT('',(1.30360766958,34.43510902218));
#575 = CARTESIAN_POINT('',(1.224460919617,34.147126888661));
#576 = CARTESIAN_POINT('',(1.104718382879,33.738873578617));
#577 = CARTESIAN_POINT('',(1.067185290798,33.614482731517));
#578 = CARTESIAN_POINT('',(1.028810189258,33.491344822874));
#579 = CARTESIAN_POINT('',(0.989462682671,33.36967242958));
#580 = CARTESIAN_POINT('',(0.948994128017,33.249795210745));
#581 = CARTESIAN_POINT('',(0.907234042605,33.132160417094));
#582 = CARTESIAN_POINT('',(0.863965827922,33.01735706717));
#583 = CARTESIAN_POINT('',(0.796109228077,32.850180267622));
#584 = CARTESIAN_POINT('',(0.77290872706,32.795114272949));
#585 = CARTESIAN_POINT('',(0.749207060644,32.741100203271));
#586 = CARTESIAN_POINT('',(0.724961023144,32.688274597038));
#587 = CARTESIAN_POINT('',(0.700124617428,32.636816028692));
#588 = CARTESIAN_POINT('',(0.674649054912,32.586945108665));
#589 = CARTESIAN_POINT('',(0.648482755566,32.538924483382));
#590 = CARTESIAN_POINT('',(0.576713975036,32.416607521132));
#591 = CARTESIAN_POINT('',(0.529518395199,32.344944762066));
#592 = CARTESIAN_POINT('',(0.479749997589,32.281275866323));
#593 = CARTESIAN_POINT('',(0.427436743971,32.228458543974));
#594 = CARTESIAN_POINT('',(0.372869168681,32.189002906896));
#595 = CARTESIAN_POINT('',(0.316600378629,32.165071468778));
#596 = CARTESIAN_POINT('',(0.259446053299,32.158479145113));
#597 = CARTESIAN_POINT('',(0.202484444747,32.170693253203));
#598 = ( GEOMETRIC_REPRESENTATION_CONTEXT(2) 
PARAMETRIC_REPRESENTATION_CONTEXT() REPRESENTATION_CONTEXT('2D SPACE',''
  ) );
#599 = PCURVE('',#101,#600);
#600 = DEFINITIONAL_REPRESENTATION('',(#601),#723);
#601 = B_SPLINE_CURVE_WITH_KNOTS('',8,(#602,#603,#604,#605,#606,#607,
    #608,#609,#610,#611,#612,#613,#614,#615,#616,#617,#618,#619,#620,
    #621,#622,#623,#624,#625,#626,#627,#628,#629,#630,#631,#632,#633,
    #634,#635,#636,#637,#638,#639,#640,#641,#642,#643,#644,#645,#646,
    #647,#648,#649,#650,#651,#652,#653,#654,#655,#656,#657,#658,#659,
    #660,#661,#662,#663,#664,#665,#666,#667,#668,#669,#670,#671,#672,
    #673,#674,#675,#676,#677,#678,#679,#680,#681,#682,#683,#684,#685,
    #686,#687,#688,#689,#690,#691,#692,#693,#694,#695,#696,#697,#698,
    #699,#700,#701,#702,#703,#704,#705,#706,#707,#708,#709,#710,#711,
    #712,#713,#714,#715,#716,#717,#718,#719,#720,#721,#722),
  .UNSPECIFIED.,.F.,.F.,(9,7,7,7,7,7,7,7,7,7,7,7,7,7,7,7,7,9),(0.,
    4.334957610425E-02,8.018963948135E-02,0.140313643066,0.195742953721,
    0.269078201837,0.338582292055,0.384963437854,0.409648058301,
    0.442143704646,0.482682088277,0.541240447065,0.593067976599,
    0.725908131666,0.860212513405,0.919845128677,0.949901100114,1.),
  .UNSPECIFIED.);
#602 = CARTESIAN_POINT('',(0.389791383957,0.126291750351));
#603 = CARTESIAN_POINT('',(0.390190344436,0.12678845006));
#604 = CARTESIAN_POINT('',(0.390761686792,0.127257423652));
#605 = CARTESIAN_POINT('',(0.391468809766,0.127699570097));
#606 = CARTESIAN_POINT('',(0.392281701986,0.128116181733));
#607 = CARTESIAN_POINT('',(0.393176941969,0.128508944262));
#608 = CARTESIAN_POINT('',(0.394137698112,0.128879936752));
#609 = CARTESIAN_POINT('',(0.395153728703,0.129231631639));
#610 = CARTESIAN_POINT('',(0.397128712861,0.129851813618));
#611 = CARTESIAN_POINT('',(0.398070569738,0.130124135374));
#612 = CARTESIAN_POINT('',(0.399042311521,0.130384874966));
#613 = CARTESIAN_POINT('',(0.400039986319,0.130634932975));
#614 = CARTESIAN_POINT('',(0.401060331375,0.130875095595));
#615 = CARTESIAN_POINT('',(0.402100773064,0.131106034624));
#616 = CARTESIAN_POINT('',(0.403159426895,0.131328307474));
#617 = CARTESIAN_POINT('',(0.405990621741,0.131891692181));
#618 = CARTESIAN_POINT('',(0.407790391046,0.132219079636));
#619 = CARTESIAN_POINT('',(0.409627750049,0.132526702866));
#620 = CARTESIAN_POINT('',(0.411497793255,0.132816056782));
#621 = CARTESIAN_POINT('',(0.413396717119,0.133088291827));
#622 = CARTESIAN_POINT('',(0.415321591919,0.133344337056));
#623 = CARTESIAN_POINT('',(0.417270312886,0.133584926835));
#624 = CARTESIAN_POINT('',(0.421058750665,0.13401875873));
#625 = CARTESIAN_POINT('',(0.422894766647,0.134214192909));
#626 = CARTESIAN_POINT('',(0.424748198359,0.134397400844));
#627 = CARTESIAN_POINT('',(0.426617932342,0.134568695782));
#628 = CARTESIAN_POINT('',(0.428503040255,0.134728291313));
#629 = CARTESIAN_POINT('',(0.430402753034,0.134876320242));
#630 = CARTESIAN_POINT('',(0.432316450181,0.135012842582));
#631 = CARTESIAN_POINT('',(0.436793447259,0.135303222879));
#632 = CARTESIAN_POINT('',(0.439366604278,0.135448415223));
#633 = CARTESIAN_POINT('',(0.441962139965,0.135573401969));
#634 = CARTESIAN_POINT('',(0.444579127242,0.135677902777));
#635 = CARTESIAN_POINT('',(0.447216672873,0.135761412731));
#636 = CARTESIAN_POINT('',(0.449873924215,0.135823194206));
#637 = CARTESIAN_POINT('',(0.452550117078,0.135862222568));
#638 = CARTESIAN_POINT('',(0.457798444563,0.135891172359));
#639 = CARTESIAN_POINT('',(0.460367700361,0.135883547541));
#640 = CARTESIAN_POINT('',(0.462952651825,0.13585303222));
#641 = CARTESIAN_POINT('',(0.465552694789,0.135798113161));
#642 = CARTESIAN_POINT('',(0.468166409269,0.13571684254));
#643 = CARTESIAN_POINT('',(0.470791561485,0.135606827975));
#644 = CARTESIAN_POINT('',(0.473425168077,0.135465022234));
#645 = CARTESIAN_POINT('',(0.477824417402,0.135168239505));
#646 = CARTESIAN_POINT('',(0.479585996362,0.135033429607));
#647 = CARTESIAN_POINT('',(0.481348134497,0.13488126653));
#648 = CARTESIAN_POINT('',(0.483109177812,0.134710218896));
#649 = CARTESIAN_POINT('',(0.484866046522,0.134518487149));
#650 = CARTESIAN_POINT('',(0.486614228052,0.134304007869));
#651 = CARTESIAN_POINT('',(0.488347701361,0.134064326558));
#652 = CARTESIAN_POINT('',(0.490969262634,0.133653408795));
#653 = CARTESIAN_POINT('',(0.491873038735,0.133502682137));
#654 = CARTESIAN_POINT('',(0.492768788209,0.133343462716));
#655 = CARTESIAN_POINT('',(0.493654790318,0.133175263375));
#656 = CARTESIAN_POINT('',(0.494528809717,0.132997607764));
#657 = CARTESIAN_POINT('',(0.495388096449,0.13281003034));
#658 = CARTESIAN_POINT('',(0.496229385949,0.132612076366));
#659 = CARTESIAN_POINT('',(0.49812773304,0.132128464359));
#660 = CARTESIAN_POINT('',(0.499171756431,0.131834770974));
#661 = CARTESIAN_POINT('',(0.500167597176,0.131521127006));
#662 = CARTESIAN_POINT('',(0.501102019738,0.13118744844));
#663 = CARTESIAN_POINT('',(0.501961925087,0.13083466199));
#664 = CARTESIAN_POINT('',(0.502734350697,0.130464705108));
#665 = CARTESIAN_POINT('',(0.503406470548,0.130080525979));
#666 = CARTESIAN_POINT('',(0.504663104155,0.12919401577));
#667 = CARTESIAN_POINT('',(0.505179427874,0.128687148322));
#668 = CARTESIAN_POINT('',(0.505510609857,0.128175831915));
#669 = CARTESIAN_POINT('',(0.505659251207,0.127668555328));
#670 = CARTESIAN_POINT('',(0.505634510552,0.127171945376));
#671 = CARTESIAN_POINT('',(0.505452104047,0.126690766914));
#672 = CARTESIAN_POINT('',(0.505134305378,0.126227922835));
#673 = CARTESIAN_POINT('',(0.504096951334,0.125143856181));
#674 = CARTESIAN_POINT('',(0.503250788949,0.124542241358));
#675 = CARTESIAN_POINT('',(0.502221110502,0.123977205851));
#676 = CARTESIAN_POINT('',(0.501044605526,0.123447140799));
#677 = CARTESIAN_POINT('',(0.499749132925,0.122950297752));
#678 = CARTESIAN_POINT('',(0.498355758001,0.12248434161));
#679 = CARTESIAN_POINT('',(0.496878694759,0.122046390992));
#680 = CARTESIAN_POINT('',(0.493946409641,0.121268154377));
#681 = CARTESIAN_POINT('',(0.492567813458,0.120938211596));
#682 = CARTESIAN_POINT('',(0.491191009581,0.120636172881));
#683 = CARTESIAN_POINT('',(0.489815477031,0.12035724722));
#684 = CARTESIAN_POINT('',(0.48844001331,0.120098047174));
#685 = CARTESIAN_POINT('',(0.487063931042,0.119856104726));
#686 = CARTESIAN_POINT('',(0.485687369336,0.119629733092));
#687 = CARTESIAN_POINT('',(0.480787198832,0.118874284983));
#688 = CARTESIAN_POINT('',(0.47712120334,0.118402086433));
#689 = CARTESIAN_POINT('',(0.473341420734,0.117994300531));
#690 = CARTESIAN_POINT('',(0.469467616717,0.117647358882));
#691 = CARTESIAN_POINT('',(0.465516142638,0.11735854614));
#692 = CARTESIAN_POINT('',(0.461499610527,0.117126213763));
#693 = CARTESIAN_POINT('',(0.457427676518,0.116949423605));
#694 = CARTESIAN_POINT('',(0.449140028085,0.116706105557));
#695 = CARTESIAN_POINT('',(0.444929343018,0.116640996645));
#696 = CARTESIAN_POINT('',(0.440679766788,0.116633000882));
#697 = CARTESIAN_POINT('',(0.436398305515,0.116683617731));
#698 = CARTESIAN_POINT('',(0.432093969388,0.116795226575));
#699 = CARTESIAN_POINT('',(0.427777965801,0.116972311558));
#700 = CARTESIAN_POINT('',(0.423463719933,0.117220434151));
#701 = CARTESIAN_POINT('',(0.417258305822,0.117699775073));
#702 = CARTESIAN_POINT('',(0.415355145034,0.11786356923));
#703 = CARTESIAN_POINT('',(0.413457607653,0.118044898742));
#704 = CARTESIAN_POINT('',(0.411567654494,0.118245084927));
#705 = CARTESIAN_POINT('',(0.409688607312,0.118465750074));
#706 = CARTESIAN_POINT('',(0.407825139506,0.1187088123));
#707 = CARTESIAN_POINT('',(0.405983403811,0.118976688493));
#708 = CARTESIAN_POINT('',(0.403258354946,0.119422390725));
#709 = CARTESIAN_POINT('',(0.402353212052,0.119578922893));
#710 = CARTESIAN_POINT('',(0.401457061952,0.119743071028));
#711 = CARTESIAN_POINT('',(0.400571367751,0.119915321035));
#712 = CARTESIAN_POINT('',(0.399698124141,0.120096199517));
#713 = CARTESIAN_POINT('',(0.398839857395,0.120286273773));
#714 = CARTESIAN_POINT('',(0.397999625371,0.120486151801));
#715 = CARTESIAN_POINT('',(0.395816518169,0.121047072406));
#716 = CARTESIAN_POINT('',(0.394494245591,0.12142827974));
#717 = CARTESIAN_POINT('',(0.39325440143,0.121844343621));
#718 = CARTESIAN_POINT('',(0.392134996687,0.1222961354));
#719 = CARTESIAN_POINT('',(0.391171851714,0.122781158453));
#720 = CARTESIAN_POINT('',(0.390398596211,0.123293548184));
#721 = CARTESIAN_POINT('',(0.389846669228,0.123824072024));
#722 = CARTESIAN_POINT('',(0.389545319163,0.124360129429));
#723 = ( GEOMETRIC_REPRESENTATION_CONTEXT(2) 
PARAMETRIC_REPRESENTATION_CONTEXT() REPRESENTATION_CONTEXT('2D SPACE',''
  ) );
#724 = ADVANCED_FACE('',(#725,#729),#101,.F.);
#725 = FACE_BOUND('',#726,.F.);
#726 = EDGE_LOOP('',(#727,#728));
#727 = ORIENTED_EDGE('',*,*,#79,.F.);
#728 = ORIENTED_EDGE('',*,*,#350,.F.);
#729 = FACE_BOUND('',#730,.F.);
#730 = EDGE_LOOP('',(#731,#1136));
#731 = ORIENTED_EDGE('',*,*,#732,.T.);
#732 = EDGE_CURVE('',#733,#735,#737,.T.);
#733 = VERTEX_POINT('',#734);
#734 = CARTESIAN_POINT('',(41.1,-170.,35.189863391461));
#735 = VERTEX_POINT('',#736);
#736 = CARTESIAN_POINT('',(40.798001654002,-169.2429046558,
    35.31347754653));
#737 = SURFACE_CURVE('',#738,(#867,#999),.PCURVE_S1.);
#738 = B_SPLINE_CURVE_WITH_KNOTS('',8,(#739,#740,#741,#742,#743,#744,
    #745,#746,#747,#748,#749,#750,#751,#752,#753,#754,#755,#756,#757,
    #758,#759,#760,#761,#762,#763,#764,#765,#766,#767,#768,#769,#770,
    #771,#772,#773,#774,#775,#776,#777,#778,#779,#780,#781,#782,#783,
    #784,#785,#786,#787,#788,#789,#790,#791,#792,#793,#794,#795,#796,
    #797,#798,#799,#800,#801,#802,#803,#804,#805,#806,#807,#808,#809,
    #810,#811,#812,#813,#814,#815,#816,#817,#818,#819,#820,#821,#822,
    #823,#824,#825,#826,#827,#828,#829,#830,#831,#832,#833,#834,#835,
    #836,#837,#838,#839,#840,#841,#842,#843,#844,#845,#846,#847,#848,
    #849,#850,#851,#852,#853,#854,#855,#856,#857,#858,#859,#860,#861,
    #862,#863,#864,#865,#866),.UNSPECIFIED.,.F.,.F.,(9,7,7,7,7,7,7,7,7,7
    ,7,7,7,7,7,7,7,7,9),(0.,3.878816892196E-02,9.407292574211E-02,
    0.167746080414,0.232873275446,0.329087908638,0.427257128165,
    0.46746948307,0.492325781977,0.511633229948,0.535856808043,
    0.548357058319,0.574128880425,0.613465195181,0.651465607698,
    0.794976180667,0.928826679318,0.963499995585,1.),.UNSPECIFIED.);
#739 = CARTESIAN_POINT('',(41.1,-170.,35.189863391461));
#740 = CARTESIAN_POINT('',(41.1,-170.0399087886,35.205847542403));
#741 = CARTESIAN_POINT('',(41.098345157254,-170.0789200978,
    35.223830916239));
#742 = CARTESIAN_POINT('',(41.095166084276,-170.1169286625,
    35.243585557226));
#743 = CARTESIAN_POINT('',(41.09059876586,-170.1538706268,
    35.264891224189));
#744 = CARTESIAN_POINT('',(41.084774762533,-170.1897155205,
    35.287546646769));
#745 = CARTESIAN_POINT('',(41.077814101813,-170.2244598832,
    35.311377463807));
#746 = CARTESIAN_POINT('',(41.069820857265,-170.2581225368,
    35.336240843875));
#747 = CARTESIAN_POINT('',(41.048140033504,-170.3372333023,
    35.398779480534));
#748 = CARTESIAN_POINT('',(41.033486561785,-170.3815682542,
    35.437377319668));
#749 = CARTESIAN_POINT('',(41.017176044847,-170.4238564635,
    35.477494815045));
#750 = CARTESIAN_POINT('',(40.999415158112,-170.4641939466,
    35.518869641786));
#751 = CARTESIAN_POINT('',(40.980372844866,-170.5026719354,
    35.561291672167));
#752 = CARTESIAN_POINT('',(40.960186751515,-170.5393819768,
    35.604596029058));
#753 = CARTESIAN_POINT('',(40.938965460984,-170.5744168279,
    35.648660161118));
#754 = CARTESIAN_POINT('',(40.887230597338,-170.6524434592,
    35.753032388264));
#755 = CARTESIAN_POINT('',(40.85599647673,-170.6941731432,
    35.813823735309));
#756 = CARTESIAN_POINT('',(40.823290112336,-170.733251489,35.87555252987
    ));
#757 = CARTESIAN_POINT('',(40.789271204825,-170.7698231661,
    35.938039087166));
#758 = CARTESIAN_POINT('',(40.754066215099,-170.8040017427,
    36.00113966102));
#759 = CARTESIAN_POINT('',(40.717776533817,-170.8358816081,
    36.064739358709));
#760 = CARTESIAN_POINT('',(40.680481810998,-170.8655422987,
    36.128748798269));
#761 = CARTESIAN_POINT('',(40.608431245214,-170.9173578641,
    36.249995066184));
#762 = CARTESIAN_POINT('',(40.573889797339,-170.93997977,36.307144530547
    ));
#763 = CARTESIAN_POINT('',(40.538658611016,-170.9609508119,
    36.364500348723));
#764 = CARTESIAN_POINT('',(40.502776027081,-170.980299774,
    36.422014631522));
#765 = CARTESIAN_POINT('',(40.466274892953,-170.998045247,36.47964348591
    ));
#766 = CARTESIAN_POINT('',(40.42918323731,-171.0141965155,
    36.537346347743));
#767 = CARTESIAN_POINT('',(40.391524944782,-171.0287544461,
    36.595085314495));
#768 = CARTESIAN_POINT('',(40.296879594909,-171.0608555678,
    36.738124519461));
#769 = CARTESIAN_POINT('',(40.239258270312,-171.0765020119,
    36.823407076258));
#770 = CARTESIAN_POINT('',(40.180514777063,-171.0886340588,
    36.908568454637));
#771 = CARTESIAN_POINT('',(40.120704078267,-171.0971821423,
    36.993489740973));
#772 = CARTESIAN_POINT('',(40.059881429593,-171.1020343708,
    37.078035702548));
#773 = CARTESIAN_POINT('',(39.998104268015,-171.1030338028,
    37.162051150104));
#774 = CARTESIAN_POINT('',(39.935432339622,-171.0999634029,
    37.245354762142));
#775 = CARTESIAN_POINT('',(39.807129672604,-171.0849227198,
    37.411779428383));
#776 = CARTESIAN_POINT('',(39.741577479437,-171.072785587,
    37.494715871715));
#777 = CARTESIAN_POINT('',(39.675234402815,-171.0557990213,
    37.576451427602));
#778 = CARTESIAN_POINT('',(39.608165826814,-171.0335241244,
    37.656708987536));
#779 = CARTESIAN_POINT('',(39.540544812684,-171.005430664,
    37.735032405436));
#780 = CARTESIAN_POINT('',(39.472673653998,-170.9708350693,
    37.810737614422));
#781 = CARTESIAN_POINT('',(39.404985634434,-170.928962088,
    37.882940368195));
#782 = CARTESIAN_POINT('',(39.310703554796,-170.8579318564,
    37.977946148774));
#783 = CARTESIAN_POINT('',(39.283466482465,-170.8358814258,
    38.00472193271));
#784 = CARTESIAN_POINT('',(39.256437903841,-170.8123448259,
    38.030572758855));
#785 = CARTESIAN_POINT('',(39.229687640815,-170.7872477923,
    38.055378475786));
#786 = CARTESIAN_POINT('',(39.203307611693,-170.7605211363,
    38.078992829322));
#787 = CARTESIAN_POINT('',(39.177411532747,-170.7321051533,
    38.101245945237));
#788 = CARTESIAN_POINT('',(39.152133946503,-170.7019555396,
    38.121948221432));
#789 = CARTESIAN_POINT('',(39.112481172554,-170.650329684,
    38.152607513707));
#790 = CARTESIAN_POINT('',(39.097631414491,-170.6299412067,
    38.163646840934));
#791 = CARTESIAN_POINT('',(39.083118031905,-170.608884653,
    38.173964016389));
#792 = CARTESIAN_POINT('',(39.068984257518,-170.5871653152,
    38.183506259802));
#793 = CARTESIAN_POINT('',(39.055276579578,-170.5647960722,
    38.19221984075));
#794 = CARTESIAN_POINT('',(39.042043493977,-170.5417989503,
    38.200052313903));
#795 = CARTESIAN_POINT('',(39.02933425637,-170.5182066842,
    38.206954754258));
#796 = CARTESIAN_POINT('',(39.007770357923,-170.4753113538,
    38.217489603903));
#797 = CARTESIAN_POINT('',(38.998687994666,-170.4562254696,
    38.221508355404));
#798 = CARTESIAN_POINT('',(38.989974080626,-170.4368292459,
    38.224919742652));
#799 = CARTESIAN_POINT('',(38.981650734097,-170.4171481984,
    38.227706317038));
#800 = CARTESIAN_POINT('',(38.97373827211,-170.3972108194,
    38.229854191151));
#801 = CARTESIAN_POINT('',(38.966254826964,-170.3770486617,
    38.231353544339));
#802 = CARTESIAN_POINT('',(38.959215962769,-170.3566964209,
    38.232199128286));
#803 = CARTESIAN_POINT('',(38.944376773099,-170.3104667143,
    38.232631213995));
#804 = CARTESIAN_POINT('',(38.93683731752,-170.2844968677,
    38.231842317682));
#805 = CARTESIAN_POINT('',(38.930041763649,-170.2583589387,
    38.23002320309));
#806 = CARTESIAN_POINT('',(38.924004945072,-170.2321265461,
    38.227185906588));
#807 = CARTESIAN_POINT('',(38.918731931336,-170.2058700383,
    38.223353574812));
#808 = CARTESIAN_POINT('',(38.914219268722,-170.1796560644,
    38.218558658017));
#809 = CARTESIAN_POINT('',(38.910456221018,-170.1535471449,
    38.212841103434));
#810 = CARTESIAN_POINT('',(38.905862310976,-170.1142122095,
    38.202843517691));
#811 = CARTESIAN_POINT('',(38.904493692372,-170.1008654816,
    38.199206591557));
#812 = CARTESIAN_POINT('',(38.903317680254,-170.0875683267,
    38.195341978589));
#813 = CARTESIAN_POINT('',(38.90233152491,-170.0743274427,
    38.191255997732));
#814 = CARTESIAN_POINT('',(38.901532201136,-170.0611489565,
    38.186955078513));
#815 = CARTESIAN_POINT('',(38.900916408239,-170.0480384247,
    38.182445761033));
#816 = CARTESIAN_POINT('',(38.900480570035,-170.035000833,
    38.177734695978));
#817 = CARTESIAN_POINT('',(38.899685337662,-169.9953204195,
    38.162713816477));
#818 = CARTESIAN_POINT('',(38.899898767322,-169.9689306862,
    38.151770352744));
#819 = CARTESIAN_POINT('',(38.900828046084,-169.9429079672,
    38.140055788996));
#820 = CARTESIAN_POINT('',(38.902438200452,-169.9172807531,
    38.127626632685));
#821 = CARTESIAN_POINT('',(38.904693484318,-169.8920701584,
    38.114537239468));
#822 = CARTESIAN_POINT('',(38.907558502105,-169.8672906244,
    38.100838689531));
#823 = CARTESIAN_POINT('',(38.910999331902,-169.8429506227,
    38.086577663927));
#824 = CARTESIAN_POINT('',(38.921067558513,-169.7825782371,
    38.049232581824));
#825 = CARTESIAN_POINT('',(38.928417309157,-169.747143206,
    38.025460958101));
#826 = CARTESIAN_POINT('',(38.936921710644,-169.7127534816,
    38.00062526958));
#827 = CARTESIAN_POINT('',(38.946478591148,-169.6794049795,
    37.974853443648));
#828 = CARTESIAN_POINT('',(38.956996135238,-169.6470853041,
    37.948256567964));
#829 = CARTESIAN_POINT('',(38.968393222211,-169.6157747399,
    37.920928943183));
#830 = CARTESIAN_POINT('',(38.980599764428,-169.5854472416,
    37.892948135686));
#831 = CARTESIAN_POINT('',(39.006074284092,-169.5276932418,
    37.836772297347));
#832 = CARTESIAN_POINT('',(39.01928957061,-169.5002088768,
    37.808622403628));
#833 = CARTESIAN_POINT('',(39.033148175049,-169.4735932973,
    37.779983824849));
#834 = CARTESIAN_POINT('',(39.047601444864,-169.4478229575,
    37.750907875716));
#835 = CARTESIAN_POINT('',(39.062606349426,-169.4228754719,
    37.721439165371));
#836 = CARTESIAN_POINT('',(39.078125024328,-169.3987292874,
    37.691616052824));
#837 = CARTESIAN_POINT('',(39.094124315697,-169.3753633566,
    37.661471102386));
#838 = CARTESIAN_POINT('',(39.172703431588,-169.2673819892,
    37.516074914228));
#839 = CARTESIAN_POINT('',(39.241187612451,-169.1929574823,
    37.397076742264));
#840 = CARTESIAN_POINT('',(39.314547083291,-169.1281898304,
    37.275337592517));
#841 = CARTESIAN_POINT('',(39.391883786714,-169.0725068213,
    37.151711090159));
#842 = CARTESIAN_POINT('',(39.472465452818,-169.025426068,
    37.026885355035));
#843 = CARTESIAN_POINT('',(39.555792703858,-168.9866794793,
    36.901343695124));
#844 = CARTESIAN_POINT('',(39.6415078117,-168.9561074051,36.775434638402
    ));
#845 = CARTESIAN_POINT('',(39.81143669849,-168.912984907,36.531792806179
    ));
#846 = CARTESIAN_POINT('',(39.895186889704,-168.8994046138,
    36.414332865858));
#847 = CARTESIAN_POINT('',(39.980514643605,-168.8930670439,
    36.297173442814));
#848 = CARTESIAN_POINT('',(40.067238514355,-168.8942046961,
    36.180607178062));
#849 = CARTESIAN_POINT('',(40.15513828644,-168.9031837044,
    36.065036423738));
#850 = CARTESIAN_POINT('',(40.243946474594,-168.9206087927,
    35.951029794529));
#851 = CARTESIAN_POINT('',(40.333343599577,-168.9472381,35.839298787025)
  );
#852 = CARTESIAN_POINT('',(40.44618098479,-168.9942390811,
    35.702853227983));
#853 = CARTESIAN_POINT('',(40.469405572911,-169.0046247968,
    35.675013095048));
#854 = CARTESIAN_POINT('',(40.492630459751,-169.0157506726,
    35.647427203555));
#855 = CARTESIAN_POINT('',(40.515845199552,-169.0276433814,
    35.62012041183));
#856 = CARTESIAN_POINT('',(40.539037104437,-169.0403319774,
    35.593121733715));
#857 = CARTESIAN_POINT('',(40.562191143564,-169.0538483732,
    35.566464707716));
#858 = CARTESIAN_POINT('',(40.585289842271,-169.0682278172,
    35.540187766146));
#859 = CARTESIAN_POINT('',(40.632549454662,-169.0995959995,
    35.487119424879));
#860 = CARTESIAN_POINT('',(40.656698251921,-169.1166796444,
    35.460378302417));
#861 = CARTESIAN_POINT('',(40.680738836717,-169.1348075938,
    35.434159292736));
#862 = CARTESIAN_POINT('',(40.704642256114,-169.1540290924,
    35.408522869169));
#863 = CARTESIAN_POINT('',(40.728371055098,-169.1743953537,
    35.38354246596));
#864 = CARTESIAN_POINT('',(40.751878991134,-169.1959595733,
    35.359305021688));
#865 = CARTESIAN_POINT('',(40.775110748731,-169.2187769413,
    35.335911522699));
#866 = CARTESIAN_POINT('',(40.798001654002,-169.2429046558,
    35.31347754653));
#867 = PCURVE('',#101,#868);
#868 = DEFINITIONAL_REPRESENTATION('',(#869),#998);
#869 = B_SPLINE_CURVE_WITH_KNOTS('',8,(#870,#871,#872,#873,#874,#875,
    #876,#877,#878,#879,#880,#881,#882,#883,#884,#885,#886,#887,#888,
    #889,#890,#891,#892,#893,#894,#895,#896,#897,#898,#899,#900,#901,
    #902,#903,#904,#905,#906,#907,#908,#909,#910,#911,#912,#913,#914,
    #915,#916,#917,#918,#919,#920,#921,#922,#923,#924,#925,#926,#927,
    #928,#929,#930,#931,#932,#933,#934,#935,#936,#937,#938,#939,#940,
    #941,#942,#943,#944,#945,#946,#947,#948,#949,#950,#951,#952,#953,
    #954,#955,#956,#957,#958,#959,#960,#961,#962,#963,#964,#965,#966,
    #967,#968,#969,#970,#971,#972,#973,#974,#975,#976,#977,#978,#979,
    #980,#981,#982,#983,#984,#985,#986,#987,#988,#989,#990,#991,#992,
    #993,#994,#995,#996,#997),.UNSPECIFIED.,.F.,.F.,(9,7,7,7,7,7,7,7,7,7
    ,7,7,7,7,7,7,7,7,9),(0.,3.878816892196E-02,9.407292574211E-02,
    0.167746080414,0.232873275446,0.329087908638,0.427257128165,
    0.46746948307,0.492325781977,0.511633229948,0.535856808043,
    0.548357058319,0.574128880425,0.613465195181,0.651465607698,
    0.794976180667,0.928826679318,0.963499995585,1.),.UNSPECIFIED.);
#870 = CARTESIAN_POINT('',(0.428994465955,0.126291750351));
#871 = CARTESIAN_POINT('',(0.429091238677,0.126419498452));
#872 = CARTESIAN_POINT('',(0.429218581587,0.126544369361));
#873 = CARTESIAN_POINT('',(0.42937363417,0.126666026431));
#874 = CARTESIAN_POINT('',(0.429553523591,0.126784265624));
#875 = CARTESIAN_POINT('',(0.429755543652,0.126898989787));
#876 = CARTESIAN_POINT('',(0.429977282773,0.127010188214));
#877 = CARTESIAN_POINT('',(0.430216701001,0.12711792149));
#878 = CARTESIAN_POINT('',(0.430836255977,0.12737109882));
#879 = CARTESIAN_POINT('',(0.431232646549,0.127512977298));
#880 = CARTESIAN_POINT('',(0.431656476178,0.12764830036));
#881 = CARTESIAN_POINT('',(0.432103823903,0.127777376112));
#882 = CARTESIAN_POINT('',(0.432571512714,0.127900497245));
#883 = CARTESIAN_POINT('',(0.433056993836,0.128017957361));
#884 = CARTESIAN_POINT('',(0.433558301978,0.128130053852));
#885 = CARTESIAN_POINT('',(0.434761415825,0.128379698108));
#886 = CARTESIAN_POINT('',(0.435473929949,0.128513205221));
#887 = CARTESIAN_POINT('',(0.436207932089,0.128638224753));
#888 = CARTESIAN_POINT('',(0.43696053818,0.128755220623));
#889 = CARTESIAN_POINT('',(0.437729458949,0.128864557079));
#890 = CARTESIAN_POINT('',(0.4385128638,0.128966536887));
#891 = CARTESIAN_POINT('',(0.439309321562,0.129061415197));
#892 = CARTESIAN_POINT('',(0.440832530427,0.129227158154));
#893 = CARTESIAN_POINT('',(0.441556502209,0.129299517218));
#894 = CARTESIAN_POINT('',(0.442288919659,0.129366594238));
#895 = CARTESIAN_POINT('',(0.443029068013,0.129428481673));
#896 = CARTESIAN_POINT('',(0.443776319842,0.129485239332));
#897 = CARTESIAN_POINT('',(0.44453012337,0.129536897215));
#898 = CARTESIAN_POINT('',(0.445289990789,0.129583458359));
#899 = CARTESIAN_POINT('',(0.447186379683,0.129686127331));
#900 = CARTESIAN_POINT('',(0.448329321643,0.12973616816));
#901 = CARTESIAN_POINT('',(0.449483063754,0.129774968473));
#902 = CARTESIAN_POINT('',(0.450646314215,0.129802306338));
#903 = CARTESIAN_POINT('',(0.451817692217,0.129817824297));
#904 = CARTESIAN_POINT('',(0.452995687868,0.129821020629));
#905 = CARTESIAN_POINT('',(0.454178627958,0.129811201189));
#906 = CARTESIAN_POINT('',(0.456574760997,0.129763098736));
#907 = CARTESIAN_POINT('',(0.457785972695,0.129724282105));
#908 = CARTESIAN_POINT('',(0.458998233883,0.12966995566));
#909 = CARTESIAN_POINT('',(0.460209291841,0.129598714967));
#910 = CARTESIAN_POINT('',(0.461414683556,0.129508863045));
#911 = CARTESIAN_POINT('',(0.462607236811,0.129398211654));
#912 = CARTESIAN_POINT('',(0.463777220799,0.129264278407));
#913 = CARTESIAN_POINT('',(0.465374717356,0.129037070496));
#914 = CARTESIAN_POINT('',(0.465832342188,0.128966535365));
#915 = CARTESIAN_POINT('',(0.466282322384,0.128891244706));
#916 = CARTESIAN_POINT('',(0.466723209329,0.1288109606));
#917 = CARTESIAN_POINT('',(0.467153160726,0.128725461301));
#918 = CARTESIAN_POINT('',(0.467569958063,0.128634555335));
#919 = CARTESIAN_POINT('',(0.467971038955,0.128538100436));
#920 = CARTESIAN_POINT('',(0.468589980838,0.128372933278));
#921 = CARTESIAN_POINT('',(0.468819279195,0.128307703023));
#922 = CARTESIAN_POINT('',(0.469040728916,0.128240334071));
#923 = CARTESIAN_POINT('',(0.469253551009,0.128170843212));
#924 = CARTESIAN_POINT('',(0.469456924379,0.128099271505));
#925 = CARTESIAN_POINT('',(0.469650012225,0.12802568928));
#926 = CARTESIAN_POINT('',(0.469831988434,0.127950201139));
#927 = CARTESIAN_POINT('',(0.470134172317,0.127812945877));
#928 = CARTESIAN_POINT('',(0.470259108662,0.127751874367));
#929 = CARTESIAN_POINT('',(0.470376494017,0.127689808743));
#930 = CARTESIAN_POINT('',(0.470485982215,0.127626830593));
#931 = CARTESIAN_POINT('',(0.470587267027,0.127563031039));
#932 = CARTESIAN_POINT('',(0.470680089283,0.127498511007));
#933 = CARTESIAN_POINT('',(0.470764243993,0.12743338149));
#934 = CARTESIAN_POINT('',(0.470934115164,0.127285438343));
#935 = CARTESIAN_POINT('',(0.471014791361,0.127202328383));
#936 = CARTESIAN_POINT('',(0.471081318839,0.127118678567));
#937 = CARTESIAN_POINT('',(0.471133595786,0.127034724466));
#938 = CARTESIAN_POINT('',(0.471171691866,0.126950691217));
#939 = CARTESIAN_POINT('',(0.471195824303,0.126866792146));
#940 = CARTESIAN_POINT('',(0.471206333955,0.126783227389));
#941 = CARTESIAN_POINT('',(0.47120228226,0.126657328336));
#942 = CARTESIAN_POINT('',(0.471197391585,0.126614609056));
#943 = CARTESIAN_POINT('',(0.471189051456,0.12657204795));
#944 = CARTESIAN_POINT('',(0.471177327682,0.126529666466));
#945 = CARTESIAN_POINT('',(0.471162289793,0.126487484222));
#946 = CARTESIAN_POINT('',(0.471144011042,0.126445519013));
#947 = CARTESIAN_POINT('',(0.471122568406,0.126403786811));
#948 = CARTESIAN_POINT('',(0.471047477586,0.126276771837));
#949 = CARTESIAN_POINT('',(0.470983803885,0.126192297689));
#950 = CARTESIAN_POINT('',(0.470907711502,0.126108996471));
#951 = CARTESIAN_POINT('',(0.470819906303,0.126026959488));
#952 = CARTESIAN_POINT('',(0.470721091095,0.12594625444));
#953 = CARTESIAN_POINT('',(0.470611946707,0.12586692767));
#954 = CARTESIAN_POINT('',(0.470493113083,0.125789006408));
#955 = CARTESIAN_POINT('',(0.47016988752,0.12559572852));
#956 = CARTESIAN_POINT('',(0.469953433447,0.125482282259));
#957 = CARTESIAN_POINT('',(0.469717871232,0.125372179322));
#958 = CARTESIAN_POINT('',(0.469465058552,0.125265406992));
#959 = CARTESIAN_POINT('',(0.469196643816,0.125161925924));
#960 = CARTESIAN_POINT('',(0.468914062293,0.12506167331));
#961 = CARTESIAN_POINT('',(0.468618532251,0.124964566043));
#962 = CARTESIAN_POINT('',(0.468014012304,0.124779636194));
#963 = CARTESIAN_POINT('',(0.467705880817,0.124691628477));
#964 = CARTESIAN_POINT('',(0.467387596279,0.124606400828));
#965 = CARTESIAN_POINT('',(0.467059990657,0.124523878067));
#966 = CARTESIAN_POINT('',(0.466723795737,0.12444398871));
#967 = CARTESIAN_POINT('',(0.466379650643,0.124366663921));
#968 = CARTESIAN_POINT('',(0.466028109348,0.124291836465));
#969 = CARTESIAN_POINT('',(0.464315900608,0.123946029301));
#970 = CARTESIAN_POINT('',(0.462865345569,0.123707669138));
#971 = CARTESIAN_POINT('',(0.461341853661,0.12350022528));
#972 = CARTESIAN_POINT('',(0.45976030571,0.123321870334));
#973 = CARTESIAN_POINT('',(0.458132844581,0.123171063467));
#974 = CARTESIAN_POINT('',(0.456467875534,0.123046948875));
#975 = CARTESIAN_POINT('',(0.454771464505,0.122949017407));
#976 = CARTESIAN_POINT('',(0.451438427789,0.122810881596));
#977 = CARTESIAN_POINT('',(0.449808921511,0.122767378386));
#978 = CARTESIAN_POINT('',(0.448161374641,0.122747076265));
#979 = CARTESIAN_POINT('',(0.44649959838,0.122750720597));
#980 = CARTESIAN_POINT('',(0.444828513922,0.122779484388));
#981 = CARTESIAN_POINT('',(0.443154606909,0.122835304175));
#982 = CARTESIAN_POINT('',(0.441485853502,0.122920607263));
#983 = CARTESIAN_POINT('',(0.439404898555,0.123071162401));
#984 = CARTESIAN_POINT('',(0.438977936819,0.123104430064));
#985 = CARTESIAN_POINT('',(0.438552387388,0.123140068363));
#986 = CARTESIAN_POINT('',(0.438128520588,0.123178162673));
#987 = CARTESIAN_POINT('',(0.437706657308,0.123218805985));
#988 = CARTESIAN_POINT('',(0.43728717245,0.123262100435));
#989 = CARTESIAN_POINT('',(0.436870498393,0.123308158828));
#990 = CARTESIAN_POINT('',(0.436021980999,0.123408632182));
#991 = CARTESIAN_POINT('',(0.435590566188,0.123463351075));
#992 = CARTESIAN_POINT('',(0.435163412597,0.123521414173));
#993 = CARTESIAN_POINT('',(0.434741216534,0.123582979054));
#994 = CARTESIAN_POINT('',(0.434324848679,0.123648209574));
#995 = CARTESIAN_POINT('',(0.433915360741,0.123717275908));
#996 = CARTESIAN_POINT('',(0.433513992105,0.12379035458));
#997 = CARTESIAN_POINT('',(0.433122176488,0.123867628505));
#998 = ( GEOMETRIC_REPRESENTATION_CONTEXT(2) 
PARAMETRIC_REPRESENTATION_CONTEXT() REPRESENTATION_CONTEXT('2D SPACE',''
  ) );
#999 = PCURVE('',#1000,#1005);
#1000 = CYLINDRICAL_SURFACE('',#1001,1.1);
#1001 = AXIS2_PLACEMENT_3D('',#1002,#1003,#1004);
#1002 = CARTESIAN_POINT('',(40.,-170.,-5.));
#1003 = DIRECTION('',(0.,0.,1.));
#1004 = DIRECTION('',(1.,0.,-0.));
#1005 = DEFINITIONAL_REPRESENTATION('',(#1006),#1135);
#1006 = B_SPLINE_CURVE_WITH_KNOTS('',8,(#1007,#1008,#1009,#1010,#1011,
    #1012,#1013,#1014,#1015,#1016,#1017,#1018,#1019,#1020,#1021,#1022,
    #1023,#1024,#1025,#1026,#1027,#1028,#1029,#1030,#1031,#1032,#1033,
    #1034,#1035,#1036,#1037,#1038,#1039,#1040,#1041,#1042,#1043,#1044,
    #1045,#1046,#1047,#1048,#1049,#1050,#1051,#1052,#1053,#1054,#1055,
    #1056,#1057,#1058,#1059,#1060,#1061,#1062,#1063,#1064,#1065,#1066,
    #1067,#1068,#1069,#1070,#1071,#1072,#1073,#1074,#1075,#1076,#1077,
    #1078,#1079,#1080,#1081,#1082,#1083,#1084,#1085,#1086,#1087,#1088,
    #1089,#1090,#1091,#1092,#1093,#1094,#1095,#1096,#1097,#1098,#1099,
    #1100,#1101,#1102,#1103,#1104,#1105,#1106,#1107,#1108,#1109,#1110,
    #1111,#1112,#1113,#1114,#1115,#1116,#1117,#1118,#1119,#1120,#1121,
    #1122,#1123,#1124,#1125,#1126,#1127,#1128,#1129,#1130,#1131,#1132,
    #1133,#1134),.UNSPECIFIED.,.F.,.F.,(9,7,7,7,7,7,7,7,7,7,7,7,7,7,7,7,
    7,7,9),(0.,3.878816892196E-02,9.407292574211E-02,0.167746080414,
    0.232873275446,0.329087908638,0.427257128165,0.46746948307,
    0.492325781977,0.511633229948,0.535856808043,0.548357058319,
    0.574128880425,0.613465195181,0.651465607698,0.794976180667,
    0.928826679318,0.963499995585,1.),.UNSPECIFIED.);
#1007 = CARTESIAN_POINT('',(6.28318530718,40.189863391461));
#1008 = CARTESIAN_POINT('',(6.246904590229,40.205847542403));
#1009 = CARTESIAN_POINT('',(6.21143979988,40.223830916239));
#1010 = CARTESIAN_POINT('',(6.176813684905,40.243585557226));
#1011 = CARTESIAN_POINT('',(6.143025607719,40.264891224189));
#1012 = CARTESIAN_POINT('',(6.110057620061,40.287546646769));
#1013 = CARTESIAN_POINT('',(6.077878173726,40.311377463807));
#1014 = CARTESIAN_POINT('',(6.046443466326,40.336240843875));
#1015 = CARTESIAN_POINT('',(5.971872676079,40.398779480534));
#1016 = CARTESIAN_POINT('',(5.929480419817,40.437377319668));
#1017 = CARTESIAN_POINT('',(5.888356683912,40.477494815045));
#1018 = CARTESIAN_POINT('',(5.848372841659,40.518869641786));
#1019 = CARTESIAN_POINT('',(5.809418335883,40.561291672167));
#1020 = CARTESIAN_POINT('',(5.771389489331,40.604596029058));
#1021 = CARTESIAN_POINT('',(5.73418339862,40.648660161118));
#1022 = CARTESIAN_POINT('',(5.649074565437,40.753032388264));
#1023 = CARTESIAN_POINT('',(5.601765778483,40.813823735309));
#1024 = CARTESIAN_POINT('',(5.555551791283,40.87555252987));
#1025 = CARTESIAN_POINT('',(5.510266055722,40.938039087166));
#1026 = CARTESIAN_POINT('',(5.465772059832,41.00113966102));
#1027 = CARTESIAN_POINT('',(5.421948131937,41.064739358709));
#1028 = CARTESIAN_POINT('',(5.378679224284,41.128748798269));
#1029 = CARTESIAN_POINT('',(5.297999586185,41.249995066184));
#1030 = CARTESIAN_POINT('',(5.260498894709,41.307144530547));
#1031 = CARTESIAN_POINT('',(5.223282927897,41.364500348723));
#1032 = CARTESIAN_POINT('',(5.186288226995,41.422014631522));
#1033 = CARTESIAN_POINT('',(5.149456411149,41.47964348591));
#1034 = CARTESIAN_POINT('',(5.112732040243,41.537346347743));
#1035 = CARTESIAN_POINT('',(5.076060477725,41.595085314495));
#1036 = CARTESIAN_POINT('',(4.985204928633,41.738124519461));
#1037 = CARTESIAN_POINT('',(4.931028466864,41.823407076258));
#1038 = CARTESIAN_POINT('',(4.876671074316,41.908568454637));
#1039 = CARTESIAN_POINT('',(4.821955492553,41.993489740973));
#1040 = CARTESIAN_POINT('',(4.766705739461,42.078035702548));
#1041 = CARTESIAN_POINT('',(4.710734086593,42.162051150104));
#1042 = CARTESIAN_POINT('',(4.653821772934,42.245354762142));
#1043 = CARTESIAN_POINT('',(4.536384268852,42.411779428383));
#1044 = CARTESIAN_POINT('',(4.475911826303,42.494715871715));
#1045 = CARTESIAN_POINT('',(4.413895244619,42.576451427602));
#1046 = CARTESIAN_POINT('',(4.349971943911,42.656708987536));
#1047 = CARTESIAN_POINT('',(4.283787218333,42.735032405436));
#1048 = CARTESIAN_POINT('',(4.214910376798,42.810737614422));
#1049 = CARTESIAN_POINT('',(4.142856920515,42.882940368195));
#1050 = CARTESIAN_POINT('',(4.035544122388,42.977946148774));
#1051 = CARTESIAN_POINT('',(4.003705383523,43.00472193271));
#1052 = CARTESIAN_POINT('',(3.971158773343,43.030572758855));
#1053 = CARTESIAN_POINT('',(3.937860158877,43.055378475786));
#1054 = CARTESIAN_POINT('',(3.903773628745,43.078992829322));
#1055 = CARTESIAN_POINT('',(3.868871781436,43.101245945237));
#1056 = CARTESIAN_POINT('',(3.833137147027,43.121948221432));
#1057 = CARTESIAN_POINT('',(3.773958390985,43.152607513707));
#1058 = CARTESIAN_POINT('',(3.751035651613,43.163646840934));
#1059 = CARTESIAN_POINT('',(3.727800086064,43.173964016389));
#1060 = CARTESIAN_POINT('',(3.704259605543,43.183506259802));
#1061 = CARTESIAN_POINT('',(3.680427304226,43.19221984075));
#1062 = CARTESIAN_POINT('',(3.65632229288,43.200052313903));
#1063 = CARTESIAN_POINT('',(3.631970532489,43.206954754258));
#1064 = CARTESIAN_POINT('',(3.58832459522,43.217489603903));
#1065 = CARTESIAN_POINT('',(3.569113901002,43.221508355404));
#1066 = CARTESIAN_POINT('',(3.549791026791,43.224919742652));
#1067 = CARTESIAN_POINT('',(3.530374505092,43.227706317038));
#1068 = CARTESIAN_POINT('',(3.51088415506,43.229854191151));
#1069 = CARTESIAN_POINT('',(3.491341278214,43.231353544339));
#1070 = CARTESIAN_POINT('',(3.471768854156,43.232199128286));
#1071 = CARTESIAN_POINT('',(3.427629823991,43.232631213995));
#1072 = CARTESIAN_POINT('',(3.403055803537,43.231842317682));
#1073 = CARTESIAN_POINT('',(3.378520279378,43.23002320309));
#1074 = CARTESIAN_POINT('',(3.354068563854,43.227185906588));
#1075 = CARTESIAN_POINT('',(3.32974129714,43.223353574812));
#1076 = CARTESIAN_POINT('',(3.305575067182,43.218558658017));
#1077 = CARTESIAN_POINT('',(3.281603029646,43.212841103434));
#1078 = CARTESIAN_POINT('',(3.245600950338,43.202843517691));
#1079 = CARTESIAN_POINT('',(3.233405152379,43.199206591557));
#1080 = CARTESIAN_POINT('',(3.221271614106,43.195341978589));
#1081 = CARTESIAN_POINT('',(3.209203405334,43.191255997732));
#1082 = CARTESIAN_POINT('',(3.197203185567,43.186955078513));
#1083 = CARTESIAN_POINT('',(3.185273204006,43.182445761033));
#1084 = CARTESIAN_POINT('',(3.173415299541,43.177734695978));
#1085 = CARTESIAN_POINT('',(3.137334952893,43.162713816477));
#1086 = CARTESIAN_POINT('',(3.113353027442,43.151770352744));
#1087 = CARTESIAN_POINT('',(3.089695783042,43.140055788996));
#1088 = CARTESIAN_POINT('',(3.066369107413,43.127626632685));
#1089 = CARTESIAN_POINT('',(3.043374578062,43.114537239468));
#1090 = CARTESIAN_POINT('',(3.020709922979,43.100838689531));
#1091 = CARTESIAN_POINT('',(2.998369481339,43.086577663927));
#1092 = CARTESIAN_POINT('',(2.942727516927,43.049232581824));
#1093 = CARTESIAN_POINT('',(2.909853540986,43.025460958101));
#1094 = CARTESIAN_POINT('',(2.877686428565,43.00062526958));
#1095 = CARTESIAN_POINT('',(2.846190531831,42.974853443648));
#1096 = CARTESIAN_POINT('',(2.815329907263,42.948256567964));
#1097 = CARTESIAN_POINT('',(2.78506735998,42.920928943183));
#1098 = CARTESIAN_POINT('',(2.755363488067,42.892948135686));
#1099 = CARTESIAN_POINT('',(2.697979212526,42.836772297347));
#1100 = CARTESIAN_POINT('',(2.670270002314,42.808622403628));
#1101 = CARTESIAN_POINT('',(2.643013349944,42.779983824849));
#1102 = CARTESIAN_POINT('',(2.6161781734,42.750907875716));
#1103 = CARTESIAN_POINT('',(2.589736191063,42.721439165371));
#1104 = CARTESIAN_POINT('',(2.563661057789,42.691616052824));
#1105 = CARTESIAN_POINT('',(2.537927500995,42.661471102386));
#1106 = CARTESIAN_POINT('',(2.416521641277,42.516074914228));
#1107 = CARTESIAN_POINT('',(2.325181642504,42.397076742264));
#1108 = CARTESIAN_POINT('',(2.236987499322,42.275337592517));
#1109 = CARTESIAN_POINT('',(2.151184515413,42.151711090159));
#1110 = CARTESIAN_POINT('',(2.0670882818,42.026885355035));
#1111 = CARTESIAN_POINT('',(1.9841477535,41.901343695124));
#1112 = CARTESIAN_POINT('',(1.901782210298,41.775434638402));
#1113 = CARTESIAN_POINT('',(1.742404867077,41.531792806179));
#1114 = CARTESIAN_POINT('',(1.665570434506,41.414332865858));
#1115 = CARTESIAN_POINT('',(1.588274387176,41.297173442814));
#1116 = CARTESIAN_POINT('',(1.51003175927,41.180607178062));
#1117 = CARTESIAN_POINT('',(1.430370466273,41.065036423738));
#1118 = CARTESIAN_POINT('',(1.348705628533,40.951029794529));
#1119 = CARTESIAN_POINT('',(1.264374879296,40.839298787025));
#1120 = CARTESIAN_POINT('',(1.153252254291,40.702853227983));
#1121 = CARTESIAN_POINT('',(1.130131820286,40.675013095048));
#1122 = CARTESIAN_POINT('',(1.106734124413,40.647427203555));
#1123 = CARTESIAN_POINT('',(1.083038745433,40.62012041183));
#1124 = CARTESIAN_POINT('',(1.059024201937,40.593121733715));
#1125 = CARTESIAN_POINT('',(1.034667307887,40.566464707716));
#1126 = CARTESIAN_POINT('',(1.009942528161,40.540187766146));
#1127 = CARTESIAN_POINT('',(0.958376684626,40.487119424879));
#1128 = CARTESIAN_POINT('',(0.931497111074,40.460378302417));
#1129 = CARTESIAN_POINT('',(0.904146192626,40.434159292736));
#1130 = CARTESIAN_POINT('',(0.876289137261,40.408522869169));
#1131 = CARTESIAN_POINT('',(0.847891689715,40.38354246596));
#1132 = CARTESIAN_POINT('',(0.818919039457,40.359305021688));
#1133 = CARTESIAN_POINT('',(0.789334728668,40.335911522699));
#1134 = CARTESIAN_POINT('',(0.75909956021,40.31347754653));
#1135 = ( GEOMETRIC_REPRESENTATION_CONTEXT(2) 
PARAMETRIC_REPRESENTATION_CONTEXT() REPRESENTATION_CONTEXT('2D SPACE',''
  ) );
#1136 = ORIENTED_EDGE('',*,*,#1137,.T.);
#1137 = EDGE_CURVE('',#735,#733,#1138,.T.);
#1138 = SURFACE_CURVE('',#1139,(#1162,#1188),.PCURVE_S1.);
#1139 = B_SPLINE_CURVE_WITH_KNOTS('',6,(#1140,#1141,#1142,#1143,#1144,
    #1145,#1146,#1147,#1148,#1149,#1150,#1151,#1152,#1153,#1154,#1155,
    #1156,#1157,#1158,#1159,#1160,#1161),.UNSPECIFIED.,.F.,.F.,(7,5,5,5,
    7),(0.,0.289187967809,0.414018493047,0.652199780343,1.),
  .UNSPECIFIED.);
#1140 = CARTESIAN_POINT('',(40.798001654002,-169.2429046558,
    35.31347754653));
#1141 = CARTESIAN_POINT('',(40.822033708197,-169.2682351761,
    35.289925200097));
#1142 = CARTESIAN_POINT('',(40.845664475462,-169.2950754676,
    35.267490203645));
#1143 = CARTESIAN_POINT('',(40.868806283822,-169.3235015274,
    35.246328616712));
#1144 = CARTESIAN_POINT('',(40.891331698282,-169.3535741474,
    35.22664752892));
#1145 = CARTESIAN_POINT('',(40.9130804431,-169.3853201734,
    35.208688351695));
#1146 = CARTESIAN_POINT('',(40.942838732075,-169.4331283997,
    35.185812961674));
#1147 = CARTESIAN_POINT('',(40.951631169124,-169.4478487793,
    35.179285209144));
#1148 = CARTESIAN_POINT('',(40.960227862798,-169.4628719454,
    35.173148457972));
#1149 = CARTESIAN_POINT('',(40.968612379778,-169.4781917168,
    35.167424020665));
#1150 = CARTESIAN_POINT('',(40.976767625838,-169.4937986878,
    35.162132916658));
#1151 = CARTESIAN_POINT('',(40.999765023897,-169.5399827981,
    35.148066611729));
#1152 = CARTESIAN_POINT('',(41.013959104624,-169.5712924584,
    35.140487419004));
#1153 = CARTESIAN_POINT('',(41.027128755846,-169.6035050072,
    35.134704090039));
#1154 = CARTESIAN_POINT('',(41.039153209726,-169.6364795405,
    35.130836472353));
#1155 = CARTESIAN_POINT('',(41.0499340787,-169.6700336873,
    35.128956200294));
#1156 = CARTESIAN_POINT('',(41.073245016176,-169.753448281,35.1292224712
    ));
#1157 = CARTESIAN_POINT('',(41.084307592956,-169.8037451481,
    35.133620486549));
#1158 = CARTESIAN_POINT('',(41.092386370233,-169.8540851242,
    35.142273078738));
#1159 = CARTESIAN_POINT('',(41.097549499177,-169.9038582183,
    35.154849731078));
#1160 = CARTESIAN_POINT('',(41.1,-169.9526047669,35.170880791778));
#1161 = CARTESIAN_POINT('',(41.1,-170.,35.189863391461));
#1162 = PCURVE('',#101,#1163);
#1163 = DEFINITIONAL_REPRESENTATION('',(#1164),#1187);
#1164 = B_SPLINE_CURVE_WITH_KNOTS('',6,(#1165,#1166,#1167,#1168,#1169,
    #1170,#1171,#1172,#1173,#1174,#1175,#1176,#1177,#1178,#1179,#1180,
    #1181,#1182,#1183,#1184,#1185,#1186),.UNSPECIFIED.,.F.,.F.,(7,5,5,5,
    7),(0.,0.289187967809,0.414018493047,0.652199780343,1.),
  .UNSPECIFIED.);
#1165 = CARTESIAN_POINT('',(0.433122176488,0.123867628505));
#1166 = CARTESIAN_POINT('',(0.432710828225,0.123948754662));
#1167 = CARTESIAN_POINT('',(0.432310653692,0.124034714549));
#1168 = CARTESIAN_POINT('',(0.431923592467,0.124125751195));
#1169 = CARTESIAN_POINT('',(0.431552340656,0.124222058842));
#1170 = CARTESIAN_POINT('',(0.431200171085,0.124323722948));
#1171 = CARTESIAN_POINT('',(0.430728557479,0.124476820589));
#1172 = CARTESIAN_POINT('',(0.430590608846,0.124523959538));
#1173 = CARTESIAN_POINT('',(0.430457216346,0.124572067522));
#1174 = CARTESIAN_POINT('',(0.430328694282,0.124621124701));
#1175 = CARTESIAN_POINT('',(0.430205362493,0.12467110091));
#1176 = CARTESIAN_POINT('',(0.429862748779,0.124818988408));
#1177 = CARTESIAN_POINT('',(0.429657966041,0.124919243562));
#1178 = CARTESIAN_POINT('',(0.429475536373,0.125022387131));
#1179 = CARTESIAN_POINT('',(0.429317542535,0.125127967629));
#1180 = CARTESIAN_POINT('',(0.429185521038,0.125235400877));
#1181 = CARTESIAN_POINT('',(0.428926336278,0.125502468861));
#1182 = CARTESIAN_POINT('',(0.4288292494,0.125663497319));
#1183 = CARTESIAN_POINT('',(0.428791345402,0.125824656604));
#1184 = CARTESIAN_POINT('',(0.428809828068,0.125983993888));
#1185 = CARTESIAN_POINT('',(0.428879539748,0.126140038129));
#1186 = CARTESIAN_POINT('',(0.428994465955,0.126291750351));
#1187 = ( GEOMETRIC_REPRESENTATION_CONTEXT(2) 
PARAMETRIC_REPRESENTATION_CONTEXT() REPRESENTATION_CONTEXT('2D SPACE',''
  ) );
#1188 = PCURVE('',#1000,#1189);
#1189 = DEFINITIONAL_REPRESENTATION('',(#1190),#1213);
#1190 = B_SPLINE_CURVE_WITH_KNOTS('',6,(#1191,#1192,#1193,#1194,#1195,
    #1196,#1197,#1198,#1199,#1200,#1201,#1202,#1203,#1204,#1205,#1206,
    #1207,#1208,#1209,#1210,#1211,#1212),.UNSPECIFIED.,.F.,.F.,(7,5,5,5,
    7),(0.,0.289187967809,0.414018493047,0.652199780343,1.),
  .UNSPECIFIED.);
#1191 = CARTESIAN_POINT('',(0.75909956021,40.31347754653));
#1192 = CARTESIAN_POINT('',(0.727357119342,40.289925200097));
#1193 = CARTESIAN_POINT('',(0.694869929802,40.267490203645));
#1194 = CARTESIAN_POINT('',(0.661585756601,40.246328616712));
#1195 = CARTESIAN_POINT('',(0.627472122458,40.22664752892));
#1196 = CARTESIAN_POINT('',(0.592522813979,40.208688351695));
#1197 = CARTESIAN_POINT('',(0.541328949227,40.185812961674));
#1198 = CARTESIAN_POINT('',(0.525744017378,40.179285209144));
#1199 = CARTESIAN_POINT('',(0.510012782631,40.173148457972));
#1200 = CARTESIAN_POINT('',(0.494140665575,40.167424020665));
#1201 = CARTESIAN_POINT('',(0.478135317028,40.162132916658));
#1202 = CARTESIAN_POINT('',(0.431232460193,40.148066611729));
#1203 = CARTESIAN_POINT('',(0.400001337047,40.140487419004));
#1204 = CARTESIAN_POINT('',(0.36839859922,40.134704090039));
#1205 = CARTESIAN_POINT('',(0.336526447545,40.130836472353));
#1206 = CARTESIAN_POINT('',(0.304510561046,40.128956200294));
#1207 = CARTESIAN_POINT('',(0.225773661343,40.1292224712));
#1208 = CARTESIAN_POINT('',(0.179029792878,40.133620486549));
#1209 = CARTESIAN_POINT('',(0.132794147056,40.142273078738));
#1210 = CARTESIAN_POINT('',(8.740154745683E-02,40.154849731078));
#1211 = CARTESIAN_POINT('',(4.308657548454E-02,40.170880791778));
#1212 = CARTESIAN_POINT('',(0.,40.189863391461));
#1213 = ( GEOMETRIC_REPRESENTATION_CONTEXT(2) 
PARAMETRIC_REPRESENTATION_CONTEXT() REPRESENTATION_CONTEXT('2D SPACE',''
  ) );
#1214 = ADVANCED_FACE('',(#1215,#1218),#66,.T.);
#1215 = FACE_BOUND('',#1216,.T.);
#1216 = EDGE_LOOP('',(#1217));
#1217 = ORIENTED_EDGE('',*,*,#51,.T.);
#1218 = FACE_BOUND('',#1219,.T.);
#1219 = EDGE_LOOP('',(#1220));
#1220 = ORIENTED_EDGE('',*,*,#1221,.F.);
#1221 = EDGE_CURVE('',#1222,#1222,#1224,.T.);
#1222 = VERTEX_POINT('',#1223);
#1223 = CARTESIAN_POINT('',(41.1,-170.,41.885313222643));
#1224 = SURFACE_CURVE('',#1225,(#1230,#1237),.PCURVE_S1.);
#1225 = CIRCLE('',#1226,1.1);
#1226 = AXIS2_PLACEMENT_3D('',#1227,#1228,#1229);
#1227 = CARTESIAN_POINT('',(40.,-170.,41.885313222643));
#1228 = DIRECTION('',(0.,0.,1.));
#1229 = DIRECTION('',(1.,0.,-0.));
#1230 = PCURVE('',#66,#1231);
#1231 = DEFINITIONAL_REPRESENTATION('',(#1232),#1236);
#1232 = CIRCLE('',#1233,1.1);
#1233 = AXIS2_PLACEMENT_2D('',#1234,#1235);
#1234 = CARTESIAN_POINT('',(0.,0.));
#1235 = DIRECTION('',(1.,0.));
#1236 = ( GEOMETRIC_REPRESENTATION_CONTEXT(2) 
PARAMETRIC_REPRESENTATION_CONTEXT() REPRESENTATION_CONTEXT('2D SPACE',''
  ) );
#1237 = PCURVE('',#1000,#1238);
#1238 = DEFINITIONAL_REPRESENTATION('',(#1239),#1243);
#1239 = LINE('',#1240,#1241);
#1240 = CARTESIAN_POINT('',(0.,46.885313222643));
#1241 = VECTOR('',#1242,1.);
#1242 = DIRECTION('',(1.,0.));
#1243 = ( GEOMETRIC_REPRESENTATION_CONTEXT(2) 
PARAMETRIC_REPRESENTATION_CONTEXT() REPRESENTATION_CONTEXT('2D SPACE',''
  ) );
#1244 = ADVANCED_FACE('',(#1245),#1000,.F.);
#1245 = FACE_BOUND('',#1246,.F.);
#1246 = EDGE_LOOP('',(#1247,#1248,#1269,#1270,#1271));
#1247 = ORIENTED_EDGE('',*,*,#1221,.F.);
#1248 = ORIENTED_EDGE('',*,*,#1249,.F.);
#1249 = EDGE_CURVE('',#733,#1222,#1250,.T.);
#1250 = SEAM_CURVE('',#1251,(#1255,#1262),.PCURVE_S1.);
#1251 = LINE('',#1252,#1253);
#1252 = CARTESIAN_POINT('',(41.1,-170.,-5.));
#1253 = VECTOR('',#1254,1.);
#1254 = DIRECTION('',(0.,0.,1.));
#1255 = PCURVE('',#1000,#1256);
#1256 = DEFINITIONAL_REPRESENTATION('',(#1257),#1261);
#1257 = LINE('',#1258,#1259);
#1258 = CARTESIAN_POINT('',(6.28318530718,-0.));
#1259 = VECTOR('',#1260,1.);
#1260 = DIRECTION('',(0.,1.));
#1261 = ( GEOMETRIC_REPRESENTATION_CONTEXT(2) 
PARAMETRIC_REPRESENTATION_CONTEXT() REPRESENTATION_CONTEXT('2D SPACE',''
  ) );
#1262 = PCURVE('',#1000,#1263);
#1263 = DEFINITIONAL_REPRESENTATION('',(#1264),#1268);
#1264 = LINE('',#1265,#1266);
#1265 = CARTESIAN_POINT('',(0.,-0.));
#1266 = VECTOR('',#1267,1.);
#1267 = DIRECTION('',(0.,1.));
#1268 = ( GEOMETRIC_REPRESENTATION_CONTEXT(2) 
PARAMETRIC_REPRESENTATION_CONTEXT() REPRESENTATION_CONTEXT('2D SPACE',''
  ) );
#1269 = ORIENTED_EDGE('',*,*,#1137,.F.);
#1270 = ORIENTED_EDGE('',*,*,#732,.F.);
#1271 = ORIENTED_EDGE('',*,*,#1249,.T.);
#1272 = ( GEOMETRIC_REPRESENTATION_CONTEXT(3) 
GLOBAL_UNCERTAINTY_ASSIGNED_CONTEXT((#1276)) 
GLOBAL_UNIT_ASSIGNED_CONTEXT((#1273,#1274,#1275)) REPRESENTATION_CONTEXT
('Context #1','3D Context with UNIT and UNCERTAINTY') );
#1273 = ( LENGTH_UNIT() NAMED_UNIT(*) SI_UNIT(.MILLI.,.METRE.) );
#1274 = ( NAMED_UNIT(*) PLANE_ANGLE_UNIT() SI_UNIT($,.RADIAN.) );
#1275 = ( NAMED_UNIT(*) SI_UNIT($,.STERADIAN.) SOLID_ANGLE_UNIT() );
#1276 = UNCERTAINTY_MEASURE_WITH_UNIT(LENGTH_MEASURE(1.E-04),#1273,
  'distance_accuracy_value','confusion accuracy');
#1277 = PRODUCT_RELATED_PRODUCT_CATEGORY('part',$,(#7));
ENDSEC;
END-ISO-10303-21;
