ISO-10303-21;
HEADER;
FILE_DESCRIPTION(('Open CASCADE Model'),'2;1');
FILE_NAME('Open CASCADE Shape Model','2026-09-20T18:22:30',('Author'),(
    'Open CASCADE'),'Open CASCADE STEP processor 7.9','Open CASCADE 7.9'
  ,'Unknown');
FILE_SCHEMA(('AUTOMOTIVE_DESIGN { 1 0 10303 214 1 1 1 1 }'));
ENDSEC;
DATA;
#1 = APPLICATION_PROTOCOL_DEFINITION('international standard',
  'automotive_design',2000,#2);
#2 = APPLICATION_CONTEXT(
  'core data for automotive mechanical design processes');
#3 = SHAPE_DEFINITION_REPRESENTATION(#4,#10);
#4 = PRODUCT_DEFINITION_SHAPE('','',#5);
#5 = PRODUCT_DEFINITION('design','',#6,#9);
#6 = PRODUCT_DEFINITION_FORMATION('','',#7);
#7 = PRODUCT('Open CASCADE STEP translator 7.9 4',
  'Open CASCADE STEP translator 7.9 4','',(#8));
#8 = PRODUCT_CONTEXT('',#2,'mechanical');
#9 = PRODUCT_DEFINITION_CONTEXT('part definition',#2,'design');
#10 = ADVANCED_BREP_SHAPE_REPRESENTATION('',(#11,#15),#1251);
#11 = AXIS2_PLACEMENT_3D('',#12,#13,#14);
#12 = CARTESIAN_POINT('',(0.,0.,0.));
#13 = DIRECTION('',(0.,0.,1.));
#14 = DIRECTION('',(1.,0.,-0.));
#15 = MANIFOLD_SOLID_BREP('',#16);
#16 = CLOSED_SHELL('',(#17,#700,#1193,#1223));
#17 = ADVANCED_FACE('',(#18),#32,.T.);
#18 = FACE_BOUND('',#19,.T.);
#19 = EDGE_LOOP('',(#20,#50,#77,#78,#673));
#20 = ORIENTED_EDGE('',*,*,#21,.T.);
#21 = EDGE_CURVE('',#22,#24,#26,.T.);
#22 = VERTEX_POINT('',#23);
#23 = CARTESIAN_POINT('',(-37.,-300.,59.412389862535));
#24 = VERTEX_POINT('',#25);
#25 = CARTESIAN_POINT('',(-37.,-300.,60.614734695729));
#26 = SEAM_CURVE('',#27,(#31,#43),.PCURVE_S1.);
#27 = LINE('',#28,#29);
#28 = CARTESIAN_POINT('',(-37.,-300.,0.));
#29 = VECTOR('',#30,1.);
#30 = DIRECTION('',(0.,0.,1.));
#31 = PCURVE('',#32,#37);
#32 = CYLINDRICAL_SURFACE('',#33,3.);
#33 = AXIS2_PLACEMENT_3D('',#34,#35,#36);
#34 = CARTESIAN_POINT('',(-40.,-300.,0.));
#35 = DIRECTION('',(0.,0.,1.));
#36 = DIRECTION('',(1.,0.,-0.));
#37 = DEFINITIONAL_REPRESENTATION('',(#38),#42);
#38 = LINE('',#39,#40);
#39 = CARTESIAN_POINT('',(6.28318530718,-0.));
#40 = VECTOR('',#41,1.);
#41 = DIRECTION('',(0.,1.));
#42 = ( GEOMETRIC_REPRESENTATION_CONTEXT(2) 
PARAMETRIC_REPRESENTATION_CONTEXT() REPRESENTATION_CONTEXT('2D SPACE',''
  ) );
#43 = PCURVE('',#32,#44);
#44 = DEFINITIONAL_REPRESENTATION('',(#45),#49);
#45 = LINE('',#46,#47);
#46 = CARTESIAN_POINT('',(0.,-0.));
#47 = VECTOR('',#48,1.);
#48 = DIRECTION('',(0.,1.));
#49 = ( GEOMETRIC_REPRESENTATION_CONTEXT(2) 
PARAMETRIC_REPRESENTATION_CONTEXT() REPRESENTATION_CONTEXT('2D SPACE',''
  ) );
#50 = ORIENTED_EDGE('',*,*,#51,.F.);
#51 = EDGE_CURVE('',#24,#24,#52,.T.);
#52 = SURFACE_CURVE('',#53,(#58,#65),.PCURVE_S1.);
#53 = CIRCLE('',#54,3.);
#54 = AXIS2_PLACEMENT_3D('',#55,#56,#57);
#55 = CARTESIAN_POINT('',(-40.,-300.,60.614734695729));
#56 = DIRECTION('',(0.,0.,1.));
#57 = DIRECTION('',(1.,0.,-0.));
#58 = PCURVE('',#32,#59);
#59 = DEFINITIONAL_REPRESENTATION('',(#60),#64);
#60 = LINE('',#61,#62);
#61 = CARTESIAN_POINT('',(0.,60.614734695729));
#62 = VECTOR('',#63,1.);
#63 = DIRECTION('',(1.,0.));
#64 = ( GEOMETRIC_REPRESENTATION_CONTEXT(2) 
PARAMETRIC_REPRESENTATION_CONTEXT() REPRESENTATION_CONTEXT('2D SPACE',''
  ) );
#65 = PCURVE('',#66,#71);
#66 = PLANE('',#67);
#67 = AXIS2_PLACEMENT_3D('',#68,#69,#70);
#68 = CARTESIAN_POINT('',(-40.,-300.,60.614734695729));
#69 = DIRECTION('',(0.,0.,1.));
#70 = DIRECTION('',(1.,0.,-0.));
#71 = DEFINITIONAL_REPRESENTATION('',(#72),#76);
#72 = CIRCLE('',#73,3.);
#73 = AXIS2_PLACEMENT_2D('',#74,#75);
#74 = CARTESIAN_POINT('',(0.,0.));
#75 = DIRECTION('',(1.,0.));
#76 = ( GEOMETRIC_REPRESENTATION_CONTEXT(2) 
PARAMETRIC_REPRESENTATION_CONTEXT() REPRESENTATION_CONTEXT('2D SPACE',''
  ) );
#77 = ORIENTED_EDGE('',*,*,#21,.F.);
#78 = ORIENTED_EDGE('',*,*,#79,.F.);
#79 = EDGE_CURVE('',#80,#22,#82,.T.);
#80 = VERTEX_POINT('',#81);
#81 = CARTESIAN_POINT('',(-37.00117389353,-300.0839165251,
    59.414706273286));
#82 = SURFACE_CURVE('',#83,(#198,#316),.PCURVE_S1.);
#83 = B_SPLINE_CURVE_WITH_KNOTS('',8,(#84,#85,#86,#87,#88,#89,#90,#91,
    #92,#93,#94,#95,#96,#97,#98,#99,#100,#101,#102,#103,#104,#105,#106,
    #107,#108,#109,#110,#111,#112,#113,#114,#115,#116,#117,#118,#119,
    #120,#121,#122,#123,#124,#125,#126,#127,#128,#129,#130,#131,#132,
    #133,#134,#135,#136,#137,#138,#139,#140,#141,#142,#143,#144,#145,
    #146,#147,#148,#149,#150,#151,#152,#153,#154,#155,#156,#157,#158,
    #159,#160,#161,#162,#163,#164,#165,#166,#167,#168,#169,#170,#171,
    #172,#173,#174,#175,#176,#177,#178,#179,#180,#181,#182,#183,#184,
    #185,#186,#187,#188,#189,#190,#191,#192,#193,#194,#195,#196,#197),
  .UNSPECIFIED.,.F.,.F.,(9,7,7,7,7,7,7,7,7,7,7,7,7,7,7,7,9),(0.,
    2.203257301255E-02,4.367834653016E-02,7.450833522779E-02,
    0.157155097549,0.19820427058,0.243313487674,0.260161221112,
    0.294239585173,0.361934326008,0.41303100935,0.46099121542,
    0.622368954445,0.788872541187,0.878584911,0.924523589643,1.),
  .UNSPECIFIED.);
#84 = CARTESIAN_POINT('',(-37.00117389353,-300.0839165251,
    59.414706273286));
#85 = CARTESIAN_POINT('',(-37.00890740836,-300.3602800436,
    59.416238616289));
#86 = CARTESIAN_POINT('',(-37.04602387611,-300.6112609686,
    59.370241553093));
#87 = CARTESIAN_POINT('',(-37.10166720007,-300.8335847073,59.29349795188
    ));
#88 = CARTESIAN_POINT('',(-37.16703928055,-301.0258811862,
    59.199699626829));
#89 = CARTESIAN_POINT('',(-37.23540001484,-301.1886848508,
    59.099447338118));
#90 = CARTESIAN_POINT('',(-37.30206729724,-301.3244346657,
    59.000250791918));
#91 = CARTESIAN_POINT('',(-37.36441701904,-301.4374741148,58.9065286404)
  );
#92 = CARTESIAN_POINT('',(-37.47834025546,-301.6289327992,
    58.734214276178));
#93 = CARTESIAN_POINT('',(-37.53646521175,-301.7175910158,
    58.645662244224));
#94 = CARTESIAN_POINT('',(-37.59590748387,-301.8006128389,58.55452189129
    ));
#95 = CARTESIAN_POINT('',(-37.6563763381,-301.8785194789,58.461267089456
    ));
#96 = CARTESIAN_POINT('',(-37.7176407605,-301.9517663691,58.366276077457
    ));
#97 = CARTESIAN_POINT('',(-37.77952945696,-302.0207431651,
    58.269831460685));
#98 = CARTESIAN_POINT('',(-37.84193085318,-302.0857737454,58.17212021119
    ));
#99 = CARTESIAN_POINT('',(-37.99432753392,-302.2344860396,57.93238995903
    ));
#100 = CARTESIAN_POINT('',(-38.08353168502,-302.313204177,
    57.791152139727));
#101 = CARTESIAN_POINT('',(-38.17238326623,-302.3847078505,
    57.649626781961));
#102 = CARTESIAN_POINT('',(-38.26089803775,-302.449924735,
    57.507834402776));
#103 = CARTESIAN_POINT('',(-38.34909633607,-302.5095397348,
    57.365775357437));
#104 = CARTESIAN_POINT('',(-38.43699262066,-302.5640878754,
    57.223451455969));
#105 = CARTESIAN_POINT('',(-38.52459378098,-302.6139765754,
    57.080870609428));
#106 = CARTESIAN_POINT('',(-38.84591445657,-302.7816851717,
    56.555230510919));
#107 = CARTESIAN_POINT('',(-39.0798528086,-302.8738424104,
    56.167336819778));
#108 = CARTESIAN_POINT('',(-39.31282568044,-302.9410744723,
    55.775967876503));
#109 = CARTESIAN_POINT('',(-39.54419632879,-302.9857728302,
    55.382244311964));
#110 = CARTESIAN_POINT('',(-39.77348402165,-303.0098419646,
    54.987050039037));
#111 = CARTESIAN_POINT('',(-40.00036598065,-303.0143480019,
    54.590993614076));
#112 = CARTESIAN_POINT('',(-40.22463911911,-302.9999570638,
    54.194474898855));
#113 = CARTESIAN_POINT('',(-40.55626296345,-302.9500774185,
    53.600577875642));
#114 = CARTESIAN_POINT('',(-40.6656054629,-302.9288598029,
    53.403494390422));
#115 = CARTESIAN_POINT('',(-40.77421004515,-302.9029833326,
    53.206470465394));
#116 = CARTESIAN_POINT('',(-40.88204300809,-302.8724185178,
    53.009568708931));
#117 = CARTESIAN_POINT('',(-40.98906637177,-302.8371022817,
    52.812859308166));
#118 = CARTESIAN_POINT('',(-41.09523758366,-302.796933607,
    52.616420660803));
#119 = CARTESIAN_POINT('',(-41.20050873451,-302.7517629976,
    52.420340600021));
#120 = CARTESIAN_POINT('',(-41.41945945488,-302.6460048722,
    52.00974743235));
#121 = CARTESIAN_POINT('',(-41.53290749271,-302.5843510144,
    51.79539191395));
#122 = CARTESIAN_POINT('',(-41.6451265003,-302.5161170395,51.58172931316
    ));
#123 = CARTESIAN_POINT('',(-41.75603379452,-302.4409274896,
    51.368908312599));
#124 = CARTESIAN_POINT('',(-41.86549976621,-302.3582736408,
    51.157163019318));
#125 = CARTESIAN_POINT('',(-41.97334920214,-302.2675113423,
    50.946813618409));
#126 = CARTESIAN_POINT('',(-42.07935058645,-302.1677672819,
    50.738285642014));
#127 = CARTESIAN_POINT('',(-42.22194924547,-302.0164666801,
    50.455202390335));
#128 = CARTESIAN_POINT('',(-42.26041612024,-301.9738725154,
    50.378573330637));
#129 = CARTESIAN_POINT('',(-42.29855718321,-301.929760171,
    50.302322801579));
#130 = CARTESIAN_POINT('',(-42.33635026416,-301.8840484807,
    50.226491612659));
#131 = CARTESIAN_POINT('',(-42.37376736252,-301.8366417624,
    50.151131615419));
#132 = CARTESIAN_POINT('',(-42.41077464733,-301.7874298181,
    50.076305703446));
#133 = CARTESIAN_POINT('',(-42.4473324573,-301.7362879336,
    50.002087812376));
#134 = CARTESIAN_POINT('',(-42.55634058523,-301.5754454456,
    49.77984214015));
#135 = CARTESIAN_POINT('',(-42.62645042029,-301.460428899,49.63560267304
    ));
#136 = CARTESIAN_POINT('',(-42.69438305749,-301.3360492599,
    49.494505847897));
#137 = CARTESIAN_POINT('',(-42.75970814325,-301.1997613455,
    49.357272766295));
#138 = CARTESIAN_POINT('',(-42.82132544148,-301.0494050288,
    49.225985776925));
#139 = CARTESIAN_POINT('',(-42.8774570416,-300.8831501361,
    49.104151814391));
#140 = CARTESIAN_POINT('',(-42.925213052,-300.6984339808,48.99752760196)
  );
#141 = CARTESIAN_POINT('',(-43.0282982894,-300.0756337724,
    48.753174165024));
#142 = CARTESIAN_POINT('',(-43.02185391066,-299.7022438841,
    48.742455848849));
#143 = CARTESIAN_POINT('',(-42.96800785137,-299.3878547669,
    48.831323300054));
#144 = CARTESIAN_POINT('',(-42.89311976153,-299.1347172479,
    48.966021247832));
#145 = CARTESIAN_POINT('',(-42.8166590247,-298.9365261625,
    49.106163854068));
#146 = CARTESIAN_POINT('',(-42.74808723323,-298.7824249509,
    49.232468236063));
#147 = CARTESIAN_POINT('',(-42.68626284665,-298.6576887736,
    49.347325278135));
#148 = CARTESIAN_POINT('',(-42.57238476349,-298.4530732879,
    49.559451045742));
#149 = CARTESIAN_POINT('',(-42.52214610623,-298.3706836869,
    49.653279979648));
#150 = CARTESIAN_POINT('',(-42.47087805318,-298.293281071,
    49.749190464083));
#151 = CARTESIAN_POINT('',(-42.41876541035,-298.2203155372,
    49.846767958534));
#152 = CARTESIAN_POINT('',(-42.36595179781,-298.151323551,
    49.945687451695));
#153 = CARTESIAN_POINT('',(-42.31253964972,-298.0859279462,
    50.045713461468));
#154 = CARTESIAN_POINT('',(-42.25859021435,-298.0238379248,
    50.146700034962));
#155 = CARTESIAN_POINT('',(-42.15300023094,-297.9094811149,
    50.344227085299));
#156 = CARTESIAN_POINT('',(-42.10144816518,-297.8568296786,
    50.440604994203));
#157 = CARTESIAN_POINT('',(-42.04950921778,-297.8067049834,
    50.537625599656));
#158 = CARTESIAN_POINT('',(-41.99721943388,-297.7589391692,
    50.635203398292));
#159 = CARTESIAN_POINT('',(-41.94460904267,-297.7133862807,
    50.733266258927));
#160 = CARTESIAN_POINT('',(-41.89170245743,-297.6699222674,
    50.831755422565));
#161 = CARTESIAN_POINT('',(-41.83851827551,-297.628444984,
    50.930625502392));
#162 = CARTESIAN_POINT('',(-41.6052227134,-297.4557253611,51.36369907276
    ));
#163 = CARTESIAN_POINT('',(-41.42248207452,-297.3441670301,
    51.701303077464));
#164 = CARTESIAN_POINT('',(-41.23732204989,-297.2506561387,
    52.041416134537));
#165 = CARTESIAN_POINT('',(-41.05008715698,-297.1736222188,
    52.383219879002));
#166 = CARTESIAN_POINT('',(-40.86105758425,-297.111872883,
    52.726072657844));
#167 = CARTESIAN_POINT('',(-40.67043343749,-297.0647904893,
    53.069541343823));
#168 = CARTESIAN_POINT('',(-40.47835020836,-297.0320113087,
    53.41333912363));
#169 = CARTESIAN_POINT('',(-40.0852411732,-296.9945137506,
    54.112269997737));
#170 = CARTESIAN_POINT('',(-39.88431006896,-296.9907368034,
    54.467087395738));
#171 = CARTESIAN_POINT('',(-39.68218192129,-297.0021921631,
    54.821592187366));
#172 = CARTESIAN_POINT('',(-39.47904451342,-297.0292602953,
    55.17547254996));
#173 = CARTESIAN_POINT('',(-39.27516679914,-297.0726145711,
    55.528307804516));
#174 = CARTESIAN_POINT('',(-39.07091911896,-297.1333590295,
    55.879551091987));
#175 = CARTESIAN_POINT('',(-38.86677545317,-297.2129918975,
    56.228532146617));
#176 = CARTESIAN_POINT('',(-38.55380105669,-297.3687470758,
    56.760738183196));
#177 = CARTESIAN_POINT('',(-38.44449332123,-297.4295203865,
    56.946079583402));
#178 = CARTESIAN_POINT('',(-38.33553910046,-297.4969576282,
    57.13032563807));
#179 = CARTESIAN_POINT('',(-38.22707334734,-297.5715606153,
    57.313294279495));
#180 = CARTESIAN_POINT('',(-38.11930273456,-297.6539533255,
    57.494696407378));
#181 = CARTESIAN_POINT('',(-38.01250754906,-297.7448829367,
    57.67413635746));
#182 = CARTESIAN_POINT('',(-37.90705771555,-297.8453018971,
    57.851094075171));
#183 = CARTESIAN_POINT('',(-37.75042203341,-298.0136807207,
    58.113835196141));
#184 = CARTESIAN_POINT('',(-37.69788933471,-298.0735614159,
    58.201935464439));
#185 = CARTESIAN_POINT('',(-37.64592458213,-298.1364746327,
    58.289081850929));
#186 = CARTESIAN_POINT('',(-37.59461674257,-298.2026317226,
    58.375148411112));
#187 = CARTESIAN_POINT('',(-37.54408829961,-298.2722815135,
    58.459959251784));
#188 = CARTESIAN_POINT('',(-37.49449525357,-298.3457103098,
    58.543288531036));
#189 = CARTESIAN_POINT('',(-37.44602712142,-298.4232418923,
    58.624860458251));
#190 = CARTESIAN_POINT('',(-37.32148933383,-298.6399548346,
    58.834948000281));
#191 = CARTESIAN_POINT('',(-37.24742953594,-298.7856452095,
    58.960306637107));
#192 = CARTESIAN_POINT('',(-37.17805535815,-298.9464328277,
    59.07858366535));
#193 = CARTESIAN_POINT('',(-37.11543829692,-299.1247107878,
    59.186696103747));
#194 = CARTESIAN_POINT('',(-37.06239353023,-299.3211411019,
    59.280319529001));
#195 = CARTESIAN_POINT('',(-37.02247991759,-299.5346546964,
    59.353888075791));
#196 = CARTESIAN_POINT('',(-37.,-299.7624514111,59.400594436763));
#197 = CARTESIAN_POINT('',(-37.,-300.,59.412389862535));
#198 = PCURVE('',#32,#199);
#199 = DEFINITIONAL_REPRESENTATION('',(#200),#315);
#200 = B_SPLINE_CURVE_WITH_KNOTS('',8,(#201,#202,#203,#204,#205,#206,
    #207,#208,#209,#210,#211,#212,#213,#214,#215,#216,#217,#218,#219,
    #220,#221,#222,#223,#224,#225,#226,#227,#228,#229,#230,#231,#232,
    #233,#234,#235,#236,#237,#238,#239,#240,#241,#242,#243,#244,#245,
    #246,#247,#248,#249,#250,#251,#252,#253,#254,#255,#256,#257,#258,
    #259,#260,#261,#262,#263,#264,#265,#266,#267,#268,#269,#270,#271,
    #272,#273,#274,#275,#276,#277,#278,#279,#280,#281,#282,#283,#284,
    #285,#286,#287,#288,#289,#290,#291,#292,#293,#294,#295,#296,#297,
    #298,#299,#300,#301,#302,#303,#304,#305,#306,#307,#308,#309,#310,
    #311,#312,#313,#314),.UNSPECIFIED.,.F.,.F.,(9,7,7,7,7,7,7,7,7,7,7,7,
    7,7,7,7,9),(0.,2.203257301255E-02,4.367834653016E-02,
    7.450833522779E-02,0.157155097549,0.19820427058,0.243313487674,
    0.260161221112,0.294239585173,0.361934326008,0.41303100935,
    0.46099121542,0.622368954445,0.788872541187,0.878584911,
    0.924523589643,1.),.UNSPECIFIED.);
#201 = CARTESIAN_POINT('',(6.255209483066,59.414706273286));
#202 = CARTESIAN_POINT('',(6.163052249312,59.416238616289));
#203 = CARTESIAN_POINT('',(6.078732500556,59.370241553093));
#204 = CARTESIAN_POINT('',(6.002918782553,59.29349795188));
#205 = CARTESIAN_POINT('',(5.93587378556,59.199699626829));
#206 = CARTESIAN_POINT('',(5.877454344331,59.099447338118));
#207 = CARTESIAN_POINT('',(5.827111438123,59.000250791918));
#208 = CARTESIAN_POINT('',(5.78389019069,58.9065286404));
#209 = CARTESIAN_POINT('',(5.709627195861,58.734214276178));
#210 = CARTESIAN_POINT('',(5.674317195591,58.645662244224));
#211 = CARTESIAN_POINT('',(5.640328117999,58.55452189129));
#212 = CARTESIAN_POINT('',(5.607507732024,58.461267089456));
#213 = CARTESIAN_POINT('',(5.575723327029,58.366276077457));
#214 = CARTESIAN_POINT('',(5.544861712791,58.269831460685));
#215 = CARTESIAN_POINT('',(5.514829219509,58.17212021119));
#216 = CARTESIAN_POINT('',(5.443851840661,57.93238995903));
#217 = CARTESIAN_POINT('',(5.404244829129,57.791152139727));
#218 = CARTESIAN_POINT('',(5.366291367071,57.649626781961));
#219 = CARTESIAN_POINT('',(5.329706369708,57.507834402776));
#220 = CARTESIAN_POINT('',(5.294277124905,57.365775357437));
#221 = CARTESIAN_POINT('',(5.259835954146,57.223451455969));
#222 = CARTESIAN_POINT('',(5.226254957506,57.080870609428));
#223 = CARTESIAN_POINT('',(5.105436843602,56.555230510919));
#224 = CARTESIAN_POINT('',(5.02209283943,56.167336819778));
#225 = CARTESIAN_POINT('',(4.941842999466,55.775967876503));
#226 = CARTESIAN_POINT('',(4.863915510629,55.382244311964));
#227 = CARTESIAN_POINT('',(4.787621135621,54.987050039037));
#228 = CARTESIAN_POINT('',(4.712426245056,54.590993614076));
#229 = CARTESIAN_POINT('',(4.637786104929,54.194474898855));
#230 = CARTESIAN_POINT('',(4.526001414491,53.600577875642));
#231 = CARTESIAN_POINT('',(4.488907336429,53.403494390422));
#232 = CARTESIAN_POINT('',(4.451747872047,53.206470465394));
#233 = CARTESIAN_POINT('',(4.414454613217,53.009568708931));
#234 = CARTESIAN_POINT('',(4.376956715188,52.812859308166));
#235 = CARTESIAN_POINT('',(4.33917780038,52.616420660803));
#236 = CARTESIAN_POINT('',(4.301031463952,52.420340600021));
#237 = CARTESIAN_POINT('',(4.219979903519,52.00974743235));
#238 = CARTESIAN_POINT('',(4.176989678534,51.79539191395));
#239 = CARTESIAN_POINT('',(4.133297223663,51.58172931316));
#240 = CARTESIAN_POINT('',(4.088745793462,51.368908312599));
#241 = CARTESIAN_POINT('',(4.043147285363,51.157163019318));
#242 = CARTESIAN_POINT('',(3.996278494207,50.946813618409));
#243 = CARTESIAN_POINT('',(3.947848612627,50.738285642014));
#244 = CARTESIAN_POINT('',(3.878545534553,50.455202390335));
#245 = CARTESIAN_POINT('',(3.859418258687,50.378573330637));
#246 = CARTESIAN_POINT('',(3.839987522158,50.302322801579));
#247 = CARTESIAN_POINT('',(3.820227348172,50.226491612659));
#248 = CARTESIAN_POINT('',(3.800107307737,50.151131615419));
#249 = CARTESIAN_POINT('',(3.779592519665,50.076305703446));
#250 = CARTESIAN_POINT('',(3.758643650568,50.002087812376));
#251 = CARTESIAN_POINT('',(3.693876479627,49.77984214015));
#252 = CARTESIAN_POINT('',(3.64901925019,49.63560267304));
#253 = CARTESIAN_POINT('',(3.601891863798,49.494505847897));
#254 = CARTESIAN_POINT('',(3.55165663755,49.357272766295));
#255 = CARTESIAN_POINT('',(3.497677152338,49.225985776925));
#256 = CARTESIAN_POINT('',(3.43943595308,49.104151814391));
#257 = CARTESIAN_POINT('',(3.376084365235,48.99752760196));
#258 = CARTESIAN_POINT('',(3.165659750652,48.753174165024));
#259 = CARTESIAN_POINT('',(3.043240408838,48.742455848849));
#260 = CARTESIAN_POINT('',(2.938526661358,48.831323300054));
#261 = CARTESIAN_POINT('',(2.8513234877,48.966021247832));
#262 = CARTESIAN_POINT('',(2.780738688092,49.106163854068));
#263 = CARTESIAN_POINT('',(2.724541058618,49.232468236063));
#264 = CARTESIAN_POINT('',(2.678218641015,49.347325278135));
#265 = CARTESIAN_POINT('',(2.600161884749,49.559451045742));
#266 = CARTESIAN_POINT('',(2.568016373523,49.653279979648));
#267 = CARTESIAN_POINT('',(2.537104583551,49.749190464083));
#268 = CARTESIAN_POINT('',(2.507256847032,49.846767958534));
#269 = CARTESIAN_POINT('',(2.478329758272,49.945687451695));
#270 = CARTESIAN_POINT('',(2.450206173688,50.045713461468));
#271 = CARTESIAN_POINT('',(2.422795211806,50.146700034962));
#272 = CARTESIAN_POINT('',(2.37091209041,50.344227085299));
#273 = CARTESIAN_POINT('',(2.34635936002,50.440604994203));
#274 = CARTESIAN_POINT('',(2.322314825003,50.537625599656));
#275 = CARTESIAN_POINT('',(2.298725661493,50.635203398292));
#276 = CARTESIAN_POINT('',(2.275545458845,50.733266258927));
#277 = CARTESIAN_POINT('',(2.252734219638,50.831755422565));
#278 = CARTESIAN_POINT('',(2.230258359672,50.930625502392));
#279 = CARTESIAN_POINT('',(2.133500421474,51.36369907276));
#280 = CARTESIAN_POINT('',(2.062416903051,51.701303077464));
#281 = CARTESIAN_POINT('',(1.993633774976,52.041416134537));
#282 = CARTESIAN_POINT('',(1.926542271589,52.383219879002));
#283 = CARTESIAN_POINT('',(1.860616085974,52.726072657844));
#284 = CARTESIAN_POINT('',(1.795458630974,53.069541343823));
#285 = CARTESIAN_POINT('',(1.730682417842,53.41333912363));
#286 = CARTESIAN_POINT('',(1.599051291672,54.112269997737));
#287 = CARTESIAN_POINT('',(1.532257224201,54.467087395738));
#288 = CARTESIAN_POINT('',(1.46509377861,54.821592187366));
#289 = CARTESIAN_POINT('',(1.397179570441,55.17547254996));
#290 = CARTESIAN_POINT('',(1.328130793155,55.528307804516));
#291 = CARTESIAN_POINT('',(1.257496557665,55.879551091987));
#292 = CARTESIAN_POINT('',(1.18474920703,56.228532146617));
#293 = CARTESIAN_POINT('',(1.068219454785,56.760738183196));
#294 = CARTESIAN_POINT('',(1.026574253947,56.946079583402));
#295 = CARTESIAN_POINT('',(0.983940722943,57.13032563807));
#296 = CARTESIAN_POINT('',(0.940165077665,57.313294279495));
#297 = CARTESIAN_POINT('',(0.895065583906,57.494696407378));
#298 = CARTESIAN_POINT('',(0.848428742666,57.67413635746));
#299 = CARTESIAN_POINT('',(0.799979357671,57.851094075171));
#300 = CARTESIAN_POINT('',(0.723322716897,58.113835196141));
#301 = CARTESIAN_POINT('',(0.696778279879,58.201935464439));
#302 = CARTESIAN_POINT('',(0.66959873513,58.289081850929));
#303 = CARTESIAN_POINT('',(0.641721728839,58.375148411112));
#304 = CARTESIAN_POINT('',(0.613073250404,58.459959251784));
#305 = CARTESIAN_POINT('',(0.583567632429,58.543288531036));
#306 = CARTESIAN_POINT('',(0.553107550727,58.624860458251));
#307 = CARTESIAN_POINT('',(0.46979144592,58.834948000281));
#308 = CARTESIAN_POINT('',(0.415366565218,58.960306637107));
#309 = CARTESIAN_POINT('',(0.357194339654,59.07858366535));
#310 = CARTESIAN_POINT('',(0.294572633109,59.186696103747));
#311 = CARTESIAN_POINT('',(0.227212215898,59.280319529001));
#312 = CARTESIAN_POINT('',(0.155236764776,59.353888075791));
#313 = CARTESIAN_POINT('',(7.918286293358E-02,59.400594436763));
#314 = CARTESIAN_POINT('',(0.,59.412389862535));
#315 = ( GEOMETRIC_REPRESENTATION_CONTEXT(2) 
PARAMETRIC_REPRESENTATION_CONTEXT() REPRESENTATION_CONTEXT('2D SPACE',''
  ) );
#316 = PCURVE('',#317,#556);
#317 = B_SPLINE_SURFACE_WITH_KNOTS('',3,3,(
    (#318,#319,#320,#321,#322,#323,#324,#325,#326,#327,#328,#329,#330
      ,#331)
    ,(#332,#333,#334,#335,#336,#337,#338,#339,#340,#341,#342,#343,#344
      ,#345)
    ,(#346,#347,#348,#349,#350,#351,#352,#353,#354,#355,#356,#357,#358
      ,#359)
    ,(#360,#361,#362,#363,#364,#365,#366,#367,#368,#369,#370,#371,#372
      ,#373)
    ,(#374,#375,#376,#377,#378,#379,#380,#381,#382,#383,#384,#385,#386
      ,#387)
    ,(#388,#389,#390,#391,#392,#393,#394,#395,#396,#397,#398,#399,#400
      ,#401)
    ,(#402,#403,#404,#405,#406,#407,#408,#409,#410,#411,#412,#413,#414
      ,#415)
    ,(#416,#417,#418,#419,#420,#421,#422,#423,#424,#425,#426,#427,#428
      ,#429)
    ,(#430,#431,#432,#433,#434,#435,#436,#437,#438,#439,#440,#441,#442
      ,#443)
    ,(#444,#445,#446,#447,#448,#449,#450,#451,#452,#453,#454,#455,#456
      ,#457)
    ,(#458,#459,#460,#461,#462,#463,#464,#465,#466,#467,#468,#469,#470
      ,#471)
    ,(#472,#473,#474,#475,#476,#477,#478,#479,#480,#481,#482,#483,#484
      ,#485)
    ,(#486,#487,#488,#489,#490,#491,#492,#493,#494,#495,#496,#497,#498
      ,#499)
    ,(#500,#501,#502,#503,#504,#505,#506,#507,#508,#509,#510,#511,#512
      ,#513)
    ,(#514,#515,#516,#517,#518,#519,#520,#521,#522,#523,#524,#525,#526
      ,#527)
    ,(#528,#529,#530,#531,#532,#533,#534,#535,#536,#537,#538,#539,#540
      ,#541)
    ,(#542,#543,#544,#545,#546,#547,#548,#549,#550,#551,#552,#553,#554
      ,#555
    )),.UNSPECIFIED.,.F.,.F.,.F.,(4,2,2,2,2,2,1,1,1,4),(4,2,2,2,2,2,4),(
    0.,0.112362945579,0.132134416959,0.148362934818,0.161736832212,
    0.211896511627,0.40892238372,0.605948255813,0.802974127907,1.),(0.,
    3.083344037338E-02,0.158028689177,0.407445855026,0.63871290505,
    0.894986199429,1.),.UNSPECIFIED.);
#318 = CARTESIAN_POINT('',(2.161396395616E-05,-129.971300858,
    51.270965150537));
#319 = CARTESIAN_POINT('',(2.161396402634E-05,-133.3243787994,
    51.054581239847));
#320 = CARTESIAN_POINT('',(2.161396402116E-05,-136.6577121327,
    51.054581239847));
#321 = CARTESIAN_POINT('',(2.161396360838E-05,-153.6406396424,
    52.163600063278));
#322 = CARTESIAN_POINT('',(2.161396002672E-05,-166.5481758473,
    60.894960323383));
#323 = CARTESIAN_POINT('',(2.161395727287E-05,-206.2927069523,
    73.03731891774));
#324 = CARTESIAN_POINT('',(2.161396111883E-05,-233.1513762124,
    80.343741087248));
#325 = CARTESIAN_POINT('',(2.161396189636E-05,-284.8395365046,
    86.7189759149));
#326 = CARTESIAN_POINT('',(2.161396156874E-05,-311.1284473112,
    91.997210955085));
#327 = CARTESIAN_POINT('',(2.161396163397E-05,-361.3922139333,
    77.975975847526));
#328 = CARTESIAN_POINT('',(2.507515566168E-05,-385.578809634,
    62.520947734019));
#329 = CARTESIAN_POINT('',(2.01956589246E-05,-419.9666779224,
    26.053786281103));
#330 = CARTESIAN_POINT('',(1.819617435004E-05,-429.8600459597,
    13.835924971879));
#331 = CARTESIAN_POINT('',(1.561550799778E-05,-439.6514049699,
    -4.118212288517E-05));
#332 = CARTESIAN_POINT('',(-2.94263917844,-129.971300858,51.270965150537
    ));
#333 = CARTESIAN_POINT('',(-2.934972769063,-133.3243787994,
    51.054571809547));
#334 = CARTESIAN_POINT('',(-2.934971303436,-136.6577121327,
    51.054563801393));
#335 = CARTESIAN_POINT('',(-2.974247739869,-153.6406396424,
    52.163544588244));
#336 = CARTESIAN_POINT('',(-3.287864138086,-166.5481758473,
    60.895077977579));
#337 = CARTESIAN_POINT('',(-3.705246563326,-206.2927069523,
    73.037594133089));
#338 = CARTESIAN_POINT('',(-3.914923575497,-233.1513762124,
    80.343602731262));
#339 = CARTESIAN_POINT('',(-4.107053657762,-284.8395365046,
    86.71923967377));
#340 = CARTESIAN_POINT('',(-4.341441028515,-311.1284473112,
    92.00115592486));
#341 = CARTESIAN_POINT('',(-3.717511730584,-361.3922139333,
    77.974699287096));
#342 = CARTESIAN_POINT('',(-2.994447152206,-385.7733147372,
    62.495830200447));
#343 = CARTESIAN_POINT('',(-1.498759515216,-419.8869750405,
    26.04007022346));
#344 = CARTESIAN_POINT('',(-1.004097778975,-429.6679801305,
    13.828040963208));
#345 = CARTESIAN_POINT('',(-0.449436173507,-439.3143161282,
    -4.118212288517E-05));
#346 = CARTESIAN_POINT('',(-5.884976858605,-129.971300858,
    50.835127872921));
#347 = CARTESIAN_POINT('',(-5.869651731261,-133.3243787994,
    50.621217986666));
#348 = CARTESIAN_POINT('',(-5.869650518658,-136.6577121327,
    50.62121307725));
#349 = CARTESIAN_POINT('',(-5.948182418081,-153.6406396424,
    51.717498988508));
#350 = CARTESIAN_POINT('',(-6.575169892725,-166.5481758473,
    60.349409448656));
#351 = CARTESIAN_POINT('',(-7.409524484725,-206.2927069523,
    72.351208223916));
#352 = CARTESIAN_POINT('',(-7.828874206582,-233.1513762124,
    79.597835644414));
#353 = CARTESIAN_POINT('',(-8.212139679129,-284.8395365046,
    85.838518277674));
#354 = CARTESIAN_POINT('',(-8.679676232767,-311.1284473112,
    90.947286825317));
#355 = CARTESIAN_POINT('',(-7.43092106785,-361.3922139333,
    77.034630660196));
#356 = CARTESIAN_POINT('',(-5.982476849198,-385.9678198404,
    61.81323544755));
#357 = CARTESIAN_POINT('',(-2.99436610359,-419.8072721586,
    25.761882421787));
#358 = CARTESIAN_POINT('',(-2.006382408486,-429.4759143014,
    13.68170491346));
#359 = CARTESIAN_POINT('',(-0.898887962523,-438.9772272864,
    -4.118212288517E-05));
#360 = CARTESIAN_POINT('',(-9.196632537627,-129.971300858,
    49.831133106286));
#361 = CARTESIAN_POINT('',(-9.173651624492,-133.3243787994,
    49.622782239213));
#362 = CARTESIAN_POINT('',(-9.173651762137,-136.6577121327,
    49.622782050727));
#363 = CARTESIAN_POINT('',(-9.291435869801,-153.6406396424,
    50.690627599963));
#364 = CARTESIAN_POINT('',(-10.23381435987,-166.5481758473,
    59.098975009967));
#365 = CARTESIAN_POINT('',(-11.47878197767,-206.2927069523,
    70.787189163439));
#366 = CARTESIAN_POINT('',(-12.11232140179,-233.1513762124,
    77.900522331006));
#367 = CARTESIAN_POINT('',(-12.61510456423,-284.8395365046,
    83.854598355797));
#368 = CARTESIAN_POINT('',(-13.21150019279,-311.1284473112,
    88.598868093698));
#369 = CARTESIAN_POINT('',(-11.27715877945,-361.3922139333,
    74.951916635484));
#370 = CARTESIAN_POINT('',(-9.190198369894,-386.1965502129,
    60.299464688542));
#371 = CARTESIAN_POINT('',(-4.637448825988,-419.7135446956,
    25.145425112064));
#372 = CARTESIAN_POINT('',(-3.12632922734,-429.2500524194,
    13.357581270733));
#373 = CARTESIAN_POINT('',(-1.427425638233,-438.5808240296,
    -4.118212288517E-05));
#374 = CARTESIAN_POINT('',(-9.688284983711,-129.971300858,
    49.668159693308));
#375 = CARTESIAN_POINT('',(-9.664192901518,-133.3243787994,
    49.460705196342));
#376 = CARTESIAN_POINT('',(-9.664192710443,-136.6577121327,
    49.460703762858));
#377 = CARTESIAN_POINT('',(-9.78766829783,-153.6406396424,
    50.523941776112));
#378 = CARTESIAN_POINT('',(-10.77587135268,-166.5481758473,
    58.896176962437));
#379 = CARTESIAN_POINT('',(-12.08022723324,-206.2927069523,
    70.533768031146));
#380 = CARTESIAN_POINT('',(-12.74493753877,-233.1513762124,
    77.625444297039));
#381 = CARTESIAN_POINT('',(-13.26295728662,-284.8395365046,
    83.533645305679));
#382 = CARTESIAN_POINT('',(-13.87465045799,-311.1284473112,
    88.218869679834));
#383 = CARTESIAN_POINT('',(-11.83986828566,-361.3922139333,
    74.61712918179));
#384 = CARTESIAN_POINT('',(-9.666505832052,-386.2307754823,
    60.065060063222));
#385 = CARTESIAN_POINT('',(-4.882605253022,-419.6995201144,
    25.051311082998));
#386 = CARTESIAN_POINT('',(-3.29373913251,-429.2162563666,
    13.308455346461));
#387 = CARTESIAN_POINT('',(-1.506511524928,-438.5215096146,
    -4.118212288517E-05));
#388 = CARTESIAN_POINT('',(-10.5751956724,-129.971300858,49.348373234965
    ));
#389 = CARTESIAN_POINT('',(-10.54915595357,-133.3243787994,
    49.142674125428));
#390 = CARTESIAN_POINT('',(-10.54915596367,-136.6577121327,
    49.142673519138));
#391 = CARTESIAN_POINT('',(-10.68261580351,-153.6406396424,
    50.196923672124));
#392 = CARTESIAN_POINT('',(-11.75129976469,-166.5481758473,
    58.498499959599));
#393 = CARTESIAN_POINT('',(-13.15937209359,-206.2927069523,
    70.037177021146));
#394 = CARTESIAN_POINT('',(-13.87909355706,-233.1513762124,
    77.086695434677));
#395 = CARTESIAN_POINT('',(-14.41907462056,-284.8395365046,
    82.905811242252));
#396 = CARTESIAN_POINT('',(-15.0496842382,-311.1284473112,
    87.474732939588));
#397 = CARTESIAN_POINT('',(-12.83666249915,-361.3922139333,
    73.964995548999));
#398 = CARTESIAN_POINT('',(-10.52616198983,-386.2930930158,
    59.622950179222));
#399 = CARTESIAN_POINT('',(-5.327641974504,-419.6739840903,
    24.876018581877));
#400 = CARTESIAN_POINT('',(-3.598254455493,-429.1547203527,
    13.217429088239));
#401 = CARTESIAN_POINT('',(-1.65051148403,-438.4135096453,
    -4.118212288517E-05));
#402 = CARTESIAN_POINT('',(-10.97194540342,-129.971300858,
    49.195725069328));
#403 = CARTESIAN_POINT('',(-10.94501266521,-133.3243787994,
    48.990760748029));
#404 = CARTESIAN_POINT('',(-10.94501259736,-136.6577121327,
    48.990759732815));
#405 = CARTESIAN_POINT('',(-11.08304854944,-153.6406396424,
    50.041239525506));
#406 = CARTESIAN_POINT('',(-12.18900559934,-166.5481758473,
    58.314072491701));
#407 = CARTESIAN_POINT('',(-13.64351219409,-206.2927069523,
    69.808782414297));
#408 = CARTESIAN_POINT('',(-14.38422906549,-233.1513762124,
    76.830880320444));
#409 = CARTESIAN_POINT('',(-14.93118909441,-284.8395365046,
    82.605985093541));
#410 = CARTESIAN_POINT('',(-15.56755301772,-311.1284473112,
    87.120542258767));
#411 = CARTESIAN_POINT('',(-13.27590502118,-361.3922139333,
    73.65585658722));
#412 = CARTESIAN_POINT('',(-10.91092978344,-386.3211852799,
    59.41825930413));
#413 = CARTESIAN_POINT('',(-5.527782027254,-419.6624726473,
    24.795650629882));
#414 = CARTESIAN_POINT('',(-3.735432688099,-429.1269803916,
    13.175904233625));
#415 = CARTESIAN_POINT('',(-1.715425556436,-438.364824091,
    -4.118212288517E-05));
#416 = CARTESIAN_POINT('',(-11.6894128948,-129.971300858,48.902024939527
    ));
#417 = CARTESIAN_POINT('',(-11.66081699415,-133.3243787994,
    48.698303145188));
#418 = CARTESIAN_POINT('',(-11.66081691345,-136.6577121327,
    48.69830227614));
#419 = CARTESIAN_POINT('',(-11.80737680748,-153.6406396424,
    49.742415375537));
#420 = CARTESIAN_POINT('',(-12.9835346056,-166.5481758473,
    57.968281829716));
#421 = CARTESIAN_POINT('',(-14.52221877024,-206.2927069523,
    69.383897868367));
#422 = CARTESIAN_POINT('',(-15.29327357347,-233.1513762124,
    76.341259092838));
#423 = CARTESIAN_POINT('',(-15.84694581686,-284.8395365046,
    82.029356226218));
#424 = CARTESIAN_POINT('',(-16.48809909021,-311.1284473112,
    86.44126616298));
#425 = CARTESIAN_POINT('',(-14.05655852302,-361.3922139333,
    73.065075072948));
#426 = CARTESIAN_POINT('',(-11.60736039738,-386.3724283369,
    59.035002669055));
#427 = CARTESIAN_POINT('',(-5.891980356227,-419.6414746413,
    24.646469119737));
#428 = CARTESIAN_POINT('',(-3.985511530759,-429.0763799699,
    13.099125581065));
#429 = CARTESIAN_POINT('',(-1.833835219214,-438.2760168439,
    -4.118212288517E-05));
#430 = CARTESIAN_POINT('',(-12.01255956535,-129.971300858,48.76690867796
    ));
#431 = CARTESIAN_POINT('',(-11.98322067887,-133.3243787994,
    48.563762908056));
#432 = CARTESIAN_POINT('',(-11.98322071082,-136.6577121327,
    48.563762128771));
#433 = CARTESIAN_POINT('',(-12.13358983071,-153.6406396424,
    49.604923978413));
#434 = CARTESIAN_POINT('',(-13.34133072853,-166.5481758473,
    57.809279948282));
#435 = CARTESIAN_POINT('',(-14.91697531096,-206.2927069523,
    69.187450221959));
#436 = CARTESIAN_POINT('',(-15.69932836773,-233.1513762124,
    76.111467625504));
#437 = CARTESIAN_POINT('',(-16.25380753252,-284.8395365046,
    81.757794715685));
#438 = CARTESIAN_POINT('',(-16.89505541634,-311.1284473112,
    86.12215734746));
#439 = CARTESIAN_POINT('',(-14.40163648162,-361.3922139333,
    72.788306260288));
#440 = CARTESIAN_POINT('',(-11.91997445346,-386.3955791299,
    58.858205198787));
#441 = CARTESIAN_POINT('',(-6.056189053559,-419.6319880782,
    24.578118008219));
#442 = CARTESIAN_POINT('',(-4.098436116465,-429.0535195093,
    13.064064864057));
#443 = CARTESIAN_POINT('',(-1.887330809587,-438.2358951511,
    -4.118212288517E-05));
#444 = CARTESIAN_POINT('',(-13.54279646513,-129.971300858,
    48.113571780714));
#445 = CARTESIAN_POINT('',(-13.50996713816,-133.3243787994,
    47.913227766579));
#446 = CARTESIAN_POINT('',(-13.50996669747,-136.6577121327,
    47.913226368256));
#447 = CARTESIAN_POINT('',(-13.67821994785,-153.6406396424,
    48.940021728705));
#448 = CARTESIAN_POINT('',(-15.03546372406,-166.5481758473,
    57.040911363979));
#449 = CARTESIAN_POINT('',(-16.78127864342,-206.2927069523,
    68.233404988156));
#450 = CARTESIAN_POINT('',(-17.60478835615,-233.1513762124,
    74.980272362168));
#451 = CARTESIAN_POINT('',(-18.1515975891,-284.8395365046,
    80.417072714249));
#452 = CARTESIAN_POINT('',(-18.78255679193,-311.1284473112,
    84.550338411249));
#453 = CARTESIAN_POINT('',(-16.0019596223,-361.3922139333,
    71.428441753256));
#454 = CARTESIAN_POINT('',(-13.3950788365,-386.5055584905,
    58.001458060922));
#455 = CARTESIAN_POINT('',(-6.834776068923,-419.5869215384,
    24.248937766166));
#456 = CARTESIAN_POINT('',(-4.634725864712,-428.9449193916,
    12.895734447709));
#457 = CARTESIAN_POINT('',(-2.141465120607,-438.0452944178,
    -4.118212288517E-05));
#458 = CARTESIAN_POINT('',(-14.73642496617,-129.971300858,
    47.563818335625));
#459 = CARTESIAN_POINT('',(-14.70096272775,-133.3243787994,
    47.365890701931));
#460 = CARTESIAN_POINT('',(-14.70096313324,-136.6577121327,
    47.365890467637));
#461 = CARTESIAN_POINT('',(-14.88271996094,-153.6406396424,
    48.380314085941));
#462 = CARTESIAN_POINT('',(-16.35624750239,-166.5481758473,
    56.395356194989));
#463 = CARTESIAN_POINT('',(-18.22016805013,-206.2927069523,
    67.417860429386));
#464 = CARTESIAN_POINT('',(-19.02087534037,-233.1513762124,
    73.94797097625));
#465 = CARTESIAN_POINT('',(-19.56202597132,-284.8395365046,
    79.227642366949));
#466 = CARTESIAN_POINT('',(-20.22967335388,-311.1284473112,
    83.254314795911));
#467 = CARTESIAN_POINT('',(-17.24921857085,-361.3922139333,
    70.339843612166));
#468 = CARTESIAN_POINT('',(-14.53903858859,-386.5923870582,
    57.285584623731));
#469 = CARTESIAN_POINT('',(-7.441071166787,-419.5513415615,
    23.970959307364));
#470 = CARTESIAN_POINT('',(-5.05369840034,-428.8591797346,
    12.752825002749));
#471 = CARTESIAN_POINT('',(-2.342103841255,-437.8948153774,
    -4.118212288517E-05));
#472 = CARTESIAN_POINT('',(-20.53789529704,-129.971300858,
    44.691684087509));
#473 = CARTESIAN_POINT('',(-20.49013401533,-133.3243787994,
    44.506573759495));
#474 = CARTESIAN_POINT('',(-20.49013141439,-136.6577121327,
    44.506569638258));
#475 = CARTESIAN_POINT('',(-20.73489085634,-153.6406396424,
    45.455258928941));
#476 = CARTESIAN_POINT('',(-22.77481285803,-166.5481758473,
    53.026245378882));
#477 = CARTESIAN_POINT('',(-25.12097391697,-206.2927069523,
    63.11257732685));
#478 = CARTESIAN_POINT('',(-25.44992792638,-233.1513762124,
    68.26492639837));
#479 = CARTESIAN_POINT('',(-25.97210640469,-284.8395365046,
    72.806793271371));
#480 = CARTESIAN_POINT('',(-27.12178876849,-311.1284473112,
    76.618651100684));
#481 = CARTESIAN_POINT('',(-23.32699516588,-361.3922139333,
    64.893198745685));
#482 = CARTESIAN_POINT('',(-20.06419136099,-387.0202759049,
    53.572116290236));
#483 = CARTESIAN_POINT('',(-10.38256792987,-419.3760043921,
    22.515985484115));
#484 = CARTESIAN_POINT('',(-7.093989800034,-428.4366570101,
    12.001728641933));
#485 = CARTESIAN_POINT('',(-3.330846062019,-437.1532587118,
    -4.118212288517E-05));
#486 = CARTESIAN_POINT('',(-29.27884398851,-129.971300858,39.08856914284
    ));
#487 = CARTESIAN_POINT('',(-29.21584769558,-133.3243787994,
    38.929812686237));
#488 = CARTESIAN_POINT('',(-29.21584694489,-136.6577121327,
    38.92981246949));
#489 = CARTESIAN_POINT('',(-29.5387096703,-153.6406396424,39.74347460124
    ));
#490 = CARTESIAN_POINT('',(-32.2953270323,-166.5481758473,
    46.318154913428));
#491 = CARTESIAN_POINT('',(-35.19475968657,-206.2927069523,
    54.727345443912));
#492 = CARTESIAN_POINT('',(-34.74589700182,-233.1513762124,
    58.108657377938));
#493 = CARTESIAN_POINT('',(-35.17196367209,-284.8395365046,
    61.576034561781));
#494 = CARTESIAN_POINT('',(-37.03159016321,-311.1284473112,
    64.929084906406));
#495 = CARTESIAN_POINT('',(-32.11013978166,-361.3922139333,
    55.19353297196));
#496 = CARTESIAN_POINT('',(-28.16096616925,-387.7023964631,
    46.474765420382));
#497 = CARTESIAN_POINT('',(-14.77772480169,-419.0964900072,
    19.655927592644));
#498 = CARTESIAN_POINT('',(-10.19082724792,-427.763090875,
    10.505504752367));
#499 = CARTESIAN_POINT('',(-4.907053062253,-435.9711034616,
    -4.118212288517E-05));
#500 = CARTESIAN_POINT('',(-40.23377617182,-129.971300858,
    28.018469719839));
#501 = CARTESIAN_POINT('',(-40.16698118369,-133.3243787994,
    27.91133333949));
#502 = CARTESIAN_POINT('',(-40.16698337877,-136.6577121327,
    27.911333919011));
#503 = CARTESIAN_POINT('',(-40.5093475219,-153.6406396424,
    28.460439641019));
#504 = CARTESIAN_POINT('',(-43.4874114118,-166.5481758473,
    32.937652964558));
#505 = CARTESIAN_POINT('',(-46.39847157102,-206.2927069523,
    38.493285327864));
#506 = CARTESIAN_POINT('',(-45.19282177635,-233.1513762124,
    40.259469704664));
#507 = CARTESIAN_POINT('',(-45.40797551249,-284.8395365046,
    42.392927963441));
#508 = CARTESIAN_POINT('',(-48.06703096349,-311.1284473112,
    44.776968555474));
#509 = CARTESIAN_POINT('',(-41.99364836538,-361.3922139333,
    38.222016537674));
#510 = CARTESIAN_POINT('',(-37.39423245766,-388.7255773004,
    32.909326084477));
#511 = CARTESIAN_POINT('',(-20.12001171185,-418.6772184297,
    14.014498183382));
#512 = CARTESIAN_POINT('',(-14.16342510741,-426.7527416725,
    7.512277654253));
#513 = CARTESIAN_POINT('',(-7.271363562604,-434.1978705863,
    -4.118212288517E-05));
#514 = CARTESIAN_POINT('',(-48.49870713502,-129.971300858,
    14.818148275735));
#515 = CARTESIAN_POINT('',(-48.4511519594,-133.3243787994,
    14.767408312833));
#516 = CARTESIAN_POINT('',(-48.45115149071,-136.6577121327,
    14.767407685908));
#517 = CARTESIAN_POINT('',(-48.69487791378,-153.6406396424,
    15.027455170927));
#518 = CARTESIAN_POINT('',(-50.8396309964,-166.5481758473,
    17.149074024978));
#519 = CARTESIAN_POINT('',(-52.83943908659,-206.2927069523,
    19.776586223838));
#520 = CARTESIAN_POINT('',(-51.65858984524,-233.1513762124,
    20.594218966071));
#521 = CARTESIAN_POINT('',(-51.70201875129,-284.8395365046,
    21.60451497988));
#522 = CARTESIAN_POINT('',(-54.82595557897,-311.1284473112,
    22.827714532335));
#523 = CARTESIAN_POINT('',(-48.14986181777,-361.3922139333,
    19.562860540551));
#524 = CARTESIAN_POINT('',(-43.09754656912,-389.7487581376,
    17.200846670058));
#525 = CARTESIAN_POINT('',(-23.91721869785,-418.2579468523,
    7.371101429605));
#526 = CARTESIAN_POINT('',(-17.29835341921,-425.7423924699,
    3.961673023873));
#527 = CARTESIAN_POINT('',(-9.635674062955,-432.4246377111,
    -4.118212288517E-05));
#528 = CARTESIAN_POINT('',(-51.94955148165,-129.971300858,5.025759507031
    ));
#529 = CARTESIAN_POINT('',(-51.93111607218,-133.3243787994,
    5.010208016391));
#530 = CARTESIAN_POINT('',(-51.93111166203,-136.6577121327,
    5.010209404864));
#531 = CARTESIAN_POINT('',(-52.02554926178,-153.6406396424,
    5.089929625948));
#532 = CARTESIAN_POINT('',(-52.86061661641,-166.5481758473,
    5.735487219532));
#533 = CARTESIAN_POINT('',(-53.62472004527,-206.2927069523,
    6.554907429604));
#534 = CARTESIAN_POINT('',(-53.11817181743,-233.1513762124,
    6.864814011475));
#535 = CARTESIAN_POINT('',(-53.11811395622,-284.8395365046,
    7.201553722596));
#536 = CARTESIAN_POINT('',(-56.30199284731,-311.1284473112,
    7.592965084992));
#537 = CARTESIAN_POINT('',(-49.59035639524,-361.3922139333,
    6.539115977703));
#538 = CARTESIAN_POINT('',(-44.27456394457,-390.4308786958,
    5.903167244541));
#539 = CARTESIAN_POINT('',(-25.28758693061,-417.9784324673,
    2.549027530523));
#540 = CARTESIAN_POINT('',(-18.75613181285,-425.0688263349,
    1.374362798983));
#541 = CARTESIAN_POINT('',(-11.21188106318,-431.2424824609,
    -4.118212288517E-05));
#542 = CARTESIAN_POINT('',(-53.11821750134,-129.971300858,
    -4.118271939468E-05));
#543 = CARTESIAN_POINT('',(-53.11821750134,-133.3243787994,
    -4.118271940006E-05));
#544 = CARTESIAN_POINT('',(-53.11821750134,-136.6577121327,
    -4.11827194045E-05));
#545 = CARTESIAN_POINT('',(-53.11821750134,-153.6406396424,
    -4.118271942246E-05));
#546 = CARTESIAN_POINT('',(-53.11821750135,-166.5481758473,
    -4.118271940302E-05));
#547 = CARTESIAN_POINT('',(-53.11821750135,-206.2927069523,
    -4.118271940464E-05));
#548 = CARTESIAN_POINT('',(-53.11821750134,-233.1513762124,
    -4.118271942594E-05));
#549 = CARTESIAN_POINT('',(-53.11821750134,-284.8395365046,
    -4.118271943417E-05));
#550 = CARTESIAN_POINT('',(-56.26762628428,-311.1284473112,
    -2.031621684142E-02));
#551 = CARTESIAN_POINT('',(-49.62827215864,-361.3922139333,
    2.242613282582E-02));
#552 = CARTESIAN_POINT('',(-44.17506934154,-390.7719389749,
    0.210272658913));
#553 = CARTESIAN_POINT('',(-25.666731228,-417.8386752748,0.114095189632)
  );
#554 = CARTESIAN_POINT('',(-19.31790207093,-424.7320432674,
    6.673123219957E-02));
#555 = CARTESIAN_POINT('',(-11.9999845633,-430.6514048358,
    -4.118212288518E-05));
#556 = DEFINITIONAL_REPRESENTATION('',(#557),#672);
#557 = B_SPLINE_CURVE_WITH_KNOTS('',8,(#558,#559,#560,#561,#562,#563,
    #564,#565,#566,#567,#568,#569,#570,#571,#572,#573,#574,#575,#576,
    #577,#578,#579,#580,#581,#582,#583,#584,#585,#586,#587,#588,#589,
    #590,#591,#592,#593,#594,#595,#596,#597,#598,#599,#600,#601,#602,
    #603,#604,#605,#606,#607,#608,#609,#610,#611,#612,#613,#614,#615,
    #616,#617,#618,#619,#620,#621,#622,#623,#624,#625,#626,#627,#628,
    #629,#630,#631,#632,#633,#634,#635,#636,#637,#638,#639,#640,#641,
    #642,#643,#644,#645,#646,#647,#648,#649,#650,#651,#652,#653,#654,
    #655,#656,#657,#658,#659,#660,#661,#662,#663,#664,#665,#666,#667,
    #668,#669,#670,#671),.UNSPECIFIED.,.F.,.F.,(9,7,7,7,7,7,7,7,7,7,7,7,
    7,7,7,7,9),(0.,2.203257301255E-02,4.367834653016E-02,
    7.450833522779E-02,0.157155097549,0.19820427058,0.243313487674,
    0.260161221112,0.294239585173,0.361934326008,0.41303100935,
    0.46099121542,0.622368954445,0.788872541187,0.878584911,
    0.924523589643,1.),.UNSPECIFIED.);
#558 = CARTESIAN_POINT('',(0.438025963749,0.52986675679));
#559 = CARTESIAN_POINT('',(0.438091883619,0.530709208346));
#560 = CARTESIAN_POINT('',(0.438652300481,0.531474467503));
#561 = CARTESIAN_POINT('',(0.439528448082,0.5321524829));
#562 = CARTESIAN_POINT('',(0.440574976039,0.532739022313));
#563 = CARTESIAN_POINT('',(0.441679949832,0.533235672652));
#564 = CARTESIAN_POINT('',(0.442764850811,0.533649839961));
#565 = CARTESIAN_POINT('',(0.443784576189,0.533994749418));
#566 = CARTESIAN_POINT('',(0.445653749197,0.534578967633));
#567 = CARTESIAN_POINT('',(0.446610899517,0.534849522597));
#568 = CARTESIAN_POINT('',(0.447593027596,0.535102896783));
#569 = CARTESIAN_POINT('',(0.448595265518,0.535340676691));
#570 = CARTESIAN_POINT('',(0.449613739869,0.53556424876));
#571 = CARTESIAN_POINT('',(0.450645571737,0.535774799375));
#572 = CARTESIAN_POINT('',(0.451688876709,0.535973314864));
#573 = CARTESIAN_POINT('',(0.454243813574,0.536427304614));
#574 = CARTESIAN_POINT('',(0.455745131475,0.53666763616));
#575 = CARTESIAN_POINT('',(0.457246036881,0.536885956846));
#576 = CARTESIAN_POINT('',(0.458746599945,0.537085094444));
#577 = CARTESIAN_POINT('',(0.460247027484,0.537267136756));
#578 = CARTESIAN_POINT('',(0.461747464475,0.53743371471));
#579 = CARTESIAN_POINT('',(0.463247954239,0.537586070262));
#580 = CARTESIAN_POINT('',(0.468770313808,0.538098256357));
#581 = CARTESIAN_POINT('',(0.472827263459,0.53837974805));
#582 = CARTESIAN_POINT('',(0.476903948652,0.538585124018));
#583 = CARTESIAN_POINT('',(0.480989413865,0.538721673256));
#584 = CARTESIAN_POINT('',(0.485075133514,0.538795203282));
#585 = CARTESIAN_POINT('',(0.489155272507,0.538808968213));
#586 = CARTESIAN_POINT('',(0.493226080238,0.538765003981));
#587 = CARTESIAN_POINT('',(0.499302454093,0.538612632863));
#588 = CARTESIAN_POINT('',(0.501315461442,0.538547818586));
#589 = CARTESIAN_POINT('',(0.503324461709,0.538468774089));
#590 = CARTESIAN_POINT('',(0.505328835011,0.53837541035));
#591 = CARTESIAN_POINT('',(0.507327879013,0.53826753605));
#592 = CARTESIAN_POINT('',(0.509320802353,0.538144844302));
#593 = CARTESIAN_POINT('',(0.511306710566,0.538006880547));
#594 = CARTESIAN_POINT('',(0.515458083738,0.537683881956));
#595 = CARTESIAN_POINT('',(0.517621248216,0.537495591838));
#596 = CARTESIAN_POINT('',(0.51977327303,0.53728721708));
#597 = CARTESIAN_POINT('',(0.521912615723,0.537057615004));
#598 = CARTESIAN_POINT('',(0.524036845918,0.536805237042));
#599 = CARTESIAN_POINT('',(0.526142644962,0.536528122223));
#600 = CARTESIAN_POINT('',(0.528225597089,0.536223611593));
#601 = CARTESIAN_POINT('',(0.531046488599,0.535761751755));
#602 = CARTESIAN_POINT('',(0.531809390632,0.535631733425));
#603 = CARTESIAN_POINT('',(0.532567809118,0.535497085704));
#604 = CARTESIAN_POINT('',(0.533321319845,0.535357561421));
#605 = CARTESIAN_POINT('',(0.534069384964,0.535212869201));
#606 = CARTESIAN_POINT('',(0.534811352985,0.535062673463));
#607 = CARTESIAN_POINT('',(0.535546458783,0.534906594421));
#608 = CARTESIAN_POINT('',(0.537745083983,0.53441574487));
#609 = CARTESIAN_POINT('',(0.539168363401,0.534064774383));
#610 = CARTESIAN_POINT('',(0.540556796588,0.533685265856));
#611 = CARTESIAN_POINT('',(0.541902582536,0.533269464572));
#612 = CARTESIAN_POINT('',(0.543184374667,0.532810793858));
#613 = CARTESIAN_POINT('',(0.544366716655,0.532303687934));
#614 = CARTESIAN_POINT('',(0.545391523887,0.531740355606));
#615 = CARTESIAN_POINT('',(0.547691344149,0.529841333613));
#616 = CARTESIAN_POINT('',(0.547707900906,0.528703213345));
#617 = CARTESIAN_POINT('',(0.546741583354,0.527745226016));
#618 = CARTESIAN_POINT('',(0.545329629187,0.526974049711));
#619 = CARTESIAN_POINT('',(0.543873879987,0.526370338006));
#620 = CARTESIAN_POINT('',(0.542566058605,0.525900957494));
#621 = CARTESIAN_POINT('',(0.541380655215,0.525521053398));
#622 = CARTESIAN_POINT('',(0.539195507296,0.524897902549));
#623 = CARTESIAN_POINT('',(0.538230409459,0.524647002413));
#624 = CARTESIAN_POINT('',(0.537245012665,0.524411302011));
#625 = CARTESIAN_POINT('',(0.536243326769,0.524189123988));
#626 = CARTESIAN_POINT('',(0.535228487349,0.523979054514));
#627 = CARTESIAN_POINT('',(0.534202755704,0.523779943278));
#628 = CARTESIAN_POINT('',(0.533167518854,0.523590903491));
#629 = CARTESIAN_POINT('',(0.531143158347,0.523242744187));
#630 = CARTESIAN_POINT('',(0.530155652572,0.523082452602));
#631 = CARTESIAN_POINT('',(0.529161714441,0.522929858439));
#632 = CARTESIAN_POINT('',(0.528162157903,0.522784449806));
#633 = CARTESIAN_POINT('',(0.527157668628,0.522645781617));
#634 = CARTESIAN_POINT('',(0.526148804007,0.522513475591));
#635 = CARTESIAN_POINT('',(0.52513599315,0.522387220249));
#636 = CARTESIAN_POINT('',(0.520699338636,0.521861479901));
#637 = CARTESIAN_POINT('',(0.517239899767,0.521521940075));
#638 = CARTESIAN_POINT('',(0.513752741436,0.521237348047));
#639 = CARTESIAN_POINT('',(0.510245696751,0.521002914212));
#640 = CARTESIAN_POINT('',(0.506724963962,0.520815001931));
#641 = CARTESIAN_POINT('',(0.503194813546,0.520671726879));
#642 = CARTESIAN_POINT('',(0.499658115832,0.520571978815));
#643 = CARTESIAN_POINT('',(0.492461771568,0.520457873248));
#644 = CARTESIAN_POINT('',(0.488805174059,0.520446380564));
#645 = CARTESIAN_POINT('',(0.48514852669,0.520481238869));
#646 = CARTESIAN_POINT('',(0.481495227914,0.520563606196));
#647 = CARTESIAN_POINT('',(0.477849925894,0.520695533523));
#648 = CARTESIAN_POINT('',(0.474218766209,0.520880385011));
#649 = CARTESIAN_POINT('',(0.470609375494,0.521122727069));
#650 = CARTESIAN_POINT('',(0.465104261257,0.52159676284));
#651 = CARTESIAN_POINT('',(0.46318696688,0.521781729627));
#652 = CARTESIAN_POINT('',(0.461281057025,0.521986985228));
#653 = CARTESIAN_POINT('',(0.459388637241,0.522214059578));
#654 = CARTESIAN_POINT('',(0.457512982645,0.522464855336));
#655 = CARTESIAN_POINT('',(0.455658541976,0.522741651165));
#656 = CARTESIAN_POINT('',(0.453831158709,0.523047352111));
#657 = CARTESIAN_POINT('',(0.451121121784,0.523559979173));
#658 = CARTESIAN_POINT('',(0.450212985885,0.523742291331));
#659 = CARTESIAN_POINT('',(0.449315342701,0.523933843078));
#660 = CARTESIAN_POINT('',(0.44842959948,0.524135279171));
#661 = CARTESIAN_POINT('',(0.447557705122,0.52434735883));
#662 = CARTESIAN_POINT('',(0.446702150174,0.524570955741));
#663 = CARTESIAN_POINT('',(0.445865966835,0.524807058057));
#664 = CARTESIAN_POINT('',(0.443716593959,0.525467037922));
#665 = CARTESIAN_POINT('',(0.442437986277,0.525910756099));
#666 = CARTESIAN_POINT('',(0.441237779558,0.52640050215));
#667 = CARTESIAN_POINT('',(0.440149449759,0.526943584354));
#668 = CARTESIAN_POINT('',(0.439219075148,0.527542040044));
#669 = CARTESIAN_POINT('',(0.438505336301,0.528192635609));
#670 = CARTESIAN_POINT('',(0.438079516104,0.528886866494));
#671 = CARTESIAN_POINT('',(0.438025499749,0.529610957198));
#672 = ( GEOMETRIC_REPRESENTATION_CONTEXT(2) 
PARAMETRIC_REPRESENTATION_CONTEXT() REPRESENTATION_CONTEXT('2D SPACE',''
  ) );
#673 = ORIENTED_EDGE('',*,*,#674,.F.);
#674 = EDGE_CURVE('',#22,#80,#675,.T.);
#675 = SURFACE_CURVE('',#676,(#682,#691),.PCURVE_S1.);
#676 = B_SPLINE_CURVE_WITH_KNOTS('',3,(#677,#678,#679,#680,#681),
  .UNSPECIFIED.,.F.,.F.,(4,1,4),(0.,0.502744434881,1.),.UNSPECIFIED.);
#677 = CARTESIAN_POINT('',(-37.,-300.,59.412389862535));
#678 = CARTESIAN_POINT('',(-37.,-300.0140500827,59.413087516473));
#679 = CARTESIAN_POINT('',(-37.00019622495,-300.0420065817,
    59.414166362001));
#680 = CARTESIAN_POINT('',(-37.00078451129,-300.0700016301,
    59.414629119861));
#681 = CARTESIAN_POINT('',(-37.00117389353,-300.0839165251,
    59.414706273286));
#682 = PCURVE('',#32,#683);
#683 = DEFINITIONAL_REPRESENTATION('',(#684),#690);
#684 = B_SPLINE_CURVE_WITH_KNOTS('',3,(#685,#686,#687,#688,#689),
  .UNSPECIFIED.,.F.,.F.,(4,1,4),(0.,0.502744434881,1.),.UNSPECIFIED.);
#685 = CARTESIAN_POINT('',(6.28318530718,59.412389862535));
#686 = CARTESIAN_POINT('',(6.278501946257,59.413087516473));
#687 = CARTESIAN_POINT('',(6.269183114162,59.414166362001));
#688 = CARTESIAN_POINT('',(6.259849597065,59.414629119861));
#689 = CARTESIAN_POINT('',(6.255209483066,59.414706273286));
#690 = ( GEOMETRIC_REPRESENTATION_CONTEXT(2) 
PARAMETRIC_REPRESENTATION_CONTEXT() REPRESENTATION_CONTEXT('2D SPACE',''
  ) );
#691 = PCURVE('',#317,#692);
#692 = DEFINITIONAL_REPRESENTATION('',(#693),#699);
#693 = B_SPLINE_CURVE_WITH_KNOTS('',3,(#694,#695,#696,#697,#698),
  .UNSPECIFIED.,.F.,.F.,(4,1,4),(0.,0.502744434881,1.),.UNSPECIFIED.);
#694 = CARTESIAN_POINT('',(0.438025499749,0.529610957198));
#695 = CARTESIAN_POINT('',(0.43802230489,0.52965378437));
#696 = CARTESIAN_POINT('',(0.438019215313,0.529739001956));
#697 = CARTESIAN_POINT('',(0.438022644686,0.529824339379));
#698 = CARTESIAN_POINT('',(0.438025963749,0.52986675679));
#699 = ( GEOMETRIC_REPRESENTATION_CONTEXT(2) 
PARAMETRIC_REPRESENTATION_CONTEXT() REPRESENTATION_CONTEXT('2D SPACE',''
  ) );
#700 = ADVANCED_FACE('',(#701,#705),#317,.F.);
#701 = FACE_BOUND('',#702,.F.);
#702 = EDGE_LOOP('',(#703,#704));
#703 = ORIENTED_EDGE('',*,*,#79,.F.);
#704 = ORIENTED_EDGE('',*,*,#674,.F.);
#705 = FACE_BOUND('',#706,.F.);
#706 = EDGE_LOOP('',(#707,#1112));
#707 = ORIENTED_EDGE('',*,*,#708,.T.);
#708 = EDGE_CURVE('',#709,#711,#713,.T.);
#709 = VERTEX_POINT('',#710);
#710 = CARTESIAN_POINT('',(-38.9,-300.,56.339862024753));
#711 = VERTEX_POINT('',#712);
#712 = CARTESIAN_POINT('',(-39.39372535024,-299.0821595732,
    55.451220048573));
#713 = SURFACE_CURVE('',#714,(#843,#975),.PCURVE_S1.);
#714 = B_SPLINE_CURVE_WITH_KNOTS('',8,(#715,#716,#717,#718,#719,#720,
    #721,#722,#723,#724,#725,#726,#727,#728,#729,#730,#731,#732,#733,
    #734,#735,#736,#737,#738,#739,#740,#741,#742,#743,#744,#745,#746,
    #747,#748,#749,#750,#751,#752,#753,#754,#755,#756,#757,#758,#759,
    #760,#761,#762,#763,#764,#765,#766,#767,#768,#769,#770,#771,#772,
    #773,#774,#775,#776,#777,#778,#779,#780,#781,#782,#783,#784,#785,
    #786,#787,#788,#789,#790,#791,#792,#793,#794,#795,#796,#797,#798,
    #799,#800,#801,#802,#803,#804,#805,#806,#807,#808,#809,#810,#811,
    #812,#813,#814,#815,#816,#817,#818,#819,#820,#821,#822,#823,#824,
    #825,#826,#827,#828,#829,#830,#831,#832,#833,#834,#835,#836,#837,
    #838,#839,#840,#841,#842),.UNSPECIFIED.,.F.,.F.,(9,7,7,7,7,7,7,7,7,7
    ,7,7,7,7,7,7,7,7,9),(0.,3.268835152901E-02,5.340466257569E-02,
    8.747819908478E-02,0.15133264735,0.216471398546,0.298843584715,
    0.391588337846,0.489051325529,0.542612314969,0.557853318863,
    0.580558183655,0.598448714096,0.626245221764,0.657477811228,
    0.711710627112,0.769478365934,0.862849497867,1.),.UNSPECIFIED.);
#715 = CARTESIAN_POINT('',(-38.9,-300.,56.339862024753));
#716 = CARTESIAN_POINT('',(-38.9,-300.0390146057,56.341919611189));
#717 = CARTESIAN_POINT('',(-38.90158142887,-300.0782100139,
    56.341322562921));
#718 = CARTESIAN_POINT('',(-38.90477001833,-300.1172212931,
    56.338008741133));
#719 = CARTESIAN_POINT('',(-38.90952128444,-300.1557413374,
    56.332036366063));
#720 = CARTESIAN_POINT('',(-38.91574115671,-300.1935178331,
    56.32354921278));
#721 = CARTESIAN_POINT('',(-38.92330336128,-300.2303495337,
    56.312747369597));
#722 = CARTESIAN_POINT('',(-38.93206355792,-300.2660818446,
    56.299863559094));
#723 = CARTESIAN_POINT('',(-38.94808523052,-300.3224787572,
    56.275817118025));
#724 = CARTESIAN_POINT('',(-38.95472532343,-300.3438854604,
    56.265745117391));
#725 = CARTESIAN_POINT('',(-38.96175691138,-300.3648060517,
    56.254984234492));
#726 = CARTESIAN_POINT('',(-38.96914750914,-300.3852316482,
    56.243588189985));
#727 = CARTESIAN_POINT('',(-38.97686633892,-300.4051593712,
    56.231608168395));
#728 = CARTESIAN_POINT('',(-38.98488492464,-300.4245914591,
    56.219091775936));
#729 = CARTESIAN_POINT('',(-38.99317768632,-300.4435343801,
    56.206081998336));
#730 = CARTESIAN_POINT('',(-39.01577683164,-300.4923662369,
    56.170467969288));
#731 = CARTESIAN_POINT('',(-39.03050827841,-300.521427986,
    56.147093628613));
#732 = CARTESIAN_POINT('',(-39.04582007694,-300.5492343014,
    56.122657033275));
#733 = CARTESIAN_POINT('',(-39.0616288196,-300.575837971,56.097299926609
    ));
#734 = CARTESIAN_POINT('',(-39.07786408011,-300.6012932303,
    56.07114251619));
#735 = CARTESIAN_POINT('',(-39.09446800472,-300.6256555302,
    56.044284091382));
#736 = CARTESIAN_POINT('',(-39.11139490347,-300.6489813048,
    56.01680364089));
#737 = CARTESIAN_POINT('',(-39.16087383273,-300.713205379,
    55.936207041215));
#738 = CARTESIAN_POINT('',(-39.19412323504,-300.7516060468,
    55.881724038575));
#739 = CARTESIAN_POINT('',(-39.22812783208,-300.7869062623,
    55.825715227686));
#740 = CARTESIAN_POINT('',(-39.26271586827,-300.8193767961,
    55.768480340417));
#741 = CARTESIAN_POINT('',(-39.29775562063,-300.8492425143,
    55.710250538569));
#742 = CARTESIAN_POINT('',(-39.33314919571,-300.8766996382,
    55.651199251733));
#743 = CARTESIAN_POINT('',(-39.36883141814,-300.9019158205,
    55.591443478029));
#744 = CARTESIAN_POINT('',(-39.44142268111,-300.9486261082,
    55.469443114419));
#745 = CARTESIAN_POINT('',(-39.47832160869,-300.9700220375,
    55.407206846366));
#746 = CARTESIAN_POINT('',(-39.51540575227,-300.9893743769,
    55.344443758455));
#747 = CARTESIAN_POINT('',(-39.5526285263,-301.0068001462,
    55.281237578058));
#748 = CARTESIAN_POINT('',(-39.58995158937,-301.0223948025,
    55.21765737594));
#749 = CARTESIAN_POINT('',(-39.62734353491,-301.0362385444,
    55.153759981072));
#750 = CARTESIAN_POINT('',(-39.66477915062,-301.0483993481,
    55.089591267689));
#751 = CARTESIAN_POINT('',(-39.74960997353,-301.0722528838,
    54.943742063877));
#752 = CARTESIAN_POINT('',(-39.79701350692,-301.0829690025,
    54.86193094632));
#753 = CARTESIAN_POINT('',(-39.84440738939,-301.0911940037,
    54.779830339208));
#754 = CARTESIAN_POINT('',(-39.89175388846,-301.0970102059,
    54.697508638456));
#755 = CARTESIAN_POINT('',(-39.93901902814,-301.1004766483,
    54.615027199433));
#756 = CARTESIAN_POINT('',(-39.98617180026,-301.1016332926,
    54.532441825583));
#757 = CARTESIAN_POINT('',(-40.03318355546,-301.1005021081,
    54.449803804865));
#758 = CARTESIAN_POINT('',(-40.13277033961,-301.0932376861,
    54.274110475307));
#759 = CARTESIAN_POINT('',(-40.18529324661,-301.0864929243,
    54.18106648054));
#760 = CARTESIAN_POINT('',(-40.23756024362,-301.0768557302,
    54.088092642001));
#761 = CARTESIAN_POINT('',(-40.28952929215,-301.0642979023,
    53.995262689699));
#762 = CARTESIAN_POINT('',(-40.34115227943,-301.0487627019,
    53.902660498181));
#763 = CARTESIAN_POINT('',(-40.39237374763,-301.0301613653,
    53.810382374224));
#764 = CARTESIAN_POINT('',(-40.44312843903,-301.0083614922,
    53.718541085364));
#765 = CARTESIAN_POINT('',(-40.54610118601,-300.9566914119,
    53.531358991933));
#766 = CARTESIAN_POINT('',(-40.59819754936,-300.926498972,
    53.436195579709));
#767 = CARTESIAN_POINT('',(-40.64959892003,-300.8923492339,
    53.341824649246));
#768 = CARTESIAN_POINT('',(-40.70019974499,-300.8539160561,
    53.248424497605));
#769 = CARTESIAN_POINT('',(-40.74982492288,-300.8108178619,
    53.156297753731));
#770 = CARTESIAN_POINT('',(-40.79819458281,-300.7625140511,
    53.065932743665));
#771 = CARTESIAN_POINT('',(-40.84494611316,-300.7083753581,
    52.977969510525));
#772 = CARTESIAN_POINT('',(-40.913952916,-300.6135311273,52.847013409733
    ));
#773 = CARTESIAN_POINT('',(-40.9377015139,-300.5778350513,52.80171599528
    ));
#774 = CARTESIAN_POINT('',(-40.96066467302,-300.5398434098,
    52.757666929434));
#775 = CARTESIAN_POINT('',(-40.98270576168,-300.499322945,52.71510714743
    ));
#776 = CARTESIAN_POINT('',(-41.00360890502,-300.4560453721,
    52.674423986621));
#777 = CARTESIAN_POINT('',(-41.02308109167,-300.4097965921,
    52.636149153171));
#778 = CARTESIAN_POINT('',(-41.04074738893,-300.3603754148,
    52.600968046033));
#779 = CARTESIAN_POINT('',(-41.06050337919,-300.2925364356,
    52.56088114368));
#780 = CARTESIAN_POINT('',(-41.06469203979,-300.2772428419,
    52.552328028363));
#781 = CARTESIAN_POINT('',(-41.06868128836,-300.2616825431,
    52.544123567136));
#782 = CARTESIAN_POINT('',(-41.07245837292,-300.2458567684,
    52.536291494672));
#783 = CARTESIAN_POINT('',(-41.076009813,-300.2297690947,52.528857028164
    ));
#784 = CARTESIAN_POINT('',(-41.07932169363,-300.213425777,
    52.521846341952));
#785 = CARTESIAN_POINT('',(-41.08237995921,-300.196836078,
    52.515286042136));
#786 = CARTESIAN_POINT('',(-41.08932814768,-300.1549502841,
    52.500140062589));
#787 = CARTESIAN_POINT('',(-41.09289336433,-300.129359825,
    52.492132616659));
#788 = CARTESIAN_POINT('',(-41.09581805618,-300.1032953048,
    52.485272959171));
#789 = CARTESIAN_POINT('',(-41.09805689135,-300.0768245984,
    52.479649048522));
#790 = CARTESIAN_POINT('',(-41.09957117881,-300.0500302453,
    52.475337380257));
#791 = CARTESIAN_POINT('',(-41.10033253986,-300.0230103231,
    52.472396221585));
#792 = CARTESIAN_POINT('',(-41.10032657962,-299.9958793205,
    52.470858845901));
#793 = CARTESIAN_POINT('',(-41.09894981246,-299.9474071651,
    52.470622694618));
#794 = CARTESIAN_POINT('',(-41.09786853593,-299.9260511681,
    52.471391002967));
#795 = CARTESIAN_POINT('',(-41.09631397387,-299.9047640306,
    52.473033011652));
#796 = CARTESIAN_POINT('',(-41.09429381753,-299.883603025,
    52.475537753338));
#797 = CARTESIAN_POINT('',(-41.09182122309,-299.8626198418,
    52.478883804703));
#798 = CARTESIAN_POINT('',(-41.08891383038,-299.8418607461,
    52.483041117102));
#799 = CARTESIAN_POINT('',(-41.08559278145,-299.8213667339,
    52.487972847224));
#800 = CARTESIAN_POINT('',(-41.07611589516,-299.7697997649,
    52.502437870615));
#801 = CARTESIAN_POINT('',(-41.06940891809,-299.7391541522,
    52.513006609695));
#802 = CARTESIAN_POINT('',(-41.06184518361,-299.7093438584,
    52.525193086812));
#803 = CARTESIAN_POINT('',(-41.05351586349,-299.6804333805,
    52.53883186346));
#804 = CARTESIAN_POINT('',(-41.04451040425,-299.6524544783,
    52.553758812573));
#805 = CARTESIAN_POINT('',(-41.03491039281,-299.6254136997,
    52.569822943673));
#806 = CARTESIAN_POINT('',(-41.02478580949,-299.5992976576,
    52.586893621384));
#807 = CARTESIAN_POINT('',(-41.0022921733,-299.5457366783,
    52.625054050604));
#808 = CARTESIAN_POINT('',(-40.98980437643,-299.5185360117,
    52.646372995593));
#809 = CARTESIAN_POINT('',(-40.9768102719,-299.4924278191,
    52.668668700515));
#810 = CARTESIAN_POINT('',(-40.9633787525,-299.4673648398,
    52.691810470105));
#811 = CARTESIAN_POINT('',(-40.94956793391,-299.4432988167,
    52.71568758046));
#812 = CARTESIAN_POINT('',(-40.93542547912,-299.4201805192,
    52.740208633868));
#813 = CARTESIAN_POINT('',(-40.92098892274,-299.3979597675,
    52.765300913651));
#814 = CARTESIAN_POINT('',(-40.8807555744,-299.3394707245,
    52.835377352276));
#815 = CARTESIAN_POINT('',(-40.85444104261,-299.3049356139,
    52.881369236123));
#816 = CARTESIAN_POINT('',(-40.82749449035,-299.2727185083,
    52.928586884483));
#817 = CARTESIAN_POINT('',(-40.80003223406,-299.2426218555,
    52.976802310646));
#818 = CARTESIAN_POINT('',(-40.77214340433,-299.2144851224,
    53.025840442922));
#819 = CARTESIAN_POINT('',(-40.74389529641,-299.1881680793,
    53.075568023059));
#820 = CARTESIAN_POINT('',(-40.71533548296,-299.1635444104,
    53.125889007427));
#821 = CARTESIAN_POINT('',(-40.65576577693,-299.1159652161,
    53.230918850218));
#822 = CARTESIAN_POINT('',(-40.62473195556,-299.0932339786,
    53.285674440727));
#823 = CARTESIAN_POINT('',(-40.59343496276,-299.0721864983,
    53.340920577675));
#824 = CARTESIAN_POINT('',(-40.56191228437,-299.0527237866,
    53.396581680472));
#825 = CARTESIAN_POINT('',(-40.53019471743,-299.0347649954,
    53.452595800509));
#826 = CARTESIAN_POINT('',(-40.49830742826,-299.0182418635,
    53.508912256448));
#827 = CARTESIAN_POINT('',(-40.46627050579,-299.0030959208,
    53.565490357063));
#828 = CARTESIAN_POINT('',(-40.38209958871,-298.9669450029,
    53.71412048008));
#829 = CARTESIAN_POINT('',(-40.3297586817,-298.9480860539,
    53.806526751622));
#830 = CARTESIAN_POINT('',(-40.27714453325,-298.9324953609,
    53.899379374894));
#831 = CARTESIAN_POINT('',(-40.22431553392,-298.9200329863,
    53.992562795415));
#832 = CARTESIAN_POINT('',(-40.1713227388,-298.9106044965,
    54.085978523827));
#833 = CARTESIAN_POINT('',(-40.11821167183,-298.9041487142,
    54.179540935785));
#834 = CARTESIAN_POINT('',(-40.06502341606,-298.9006340252,
    54.27317490348));
#835 = CARTESIAN_POINT('',(-39.93360909643,-298.8992248254,
    54.504361216399));
#836 = CARTESIAN_POINT('',(-39.85539171747,-298.9047385423,
    54.641823858092));
#837 = CARTESIAN_POINT('',(-39.77722581355,-298.9165935903,
    54.779057180746));
#838 = CARTESIAN_POINT('',(-39.69924006635,-298.9349532281,
    54.915847311383));
#839 = CARTESIAN_POINT('',(-39.62161058523,-298.960098697,
    55.051908129173));
#840 = CARTESIAN_POINT('',(-39.54458237718,-298.9925019773,
    55.186850930087));
#841 = CARTESIAN_POINT('',(-39.46846589424,-299.0327901013,
    55.320190342614));
#842 = CARTESIAN_POINT('',(-39.39372535024,-299.0821595732,
    55.451220048573));
#843 = PCURVE('',#317,#844);
#844 = DEFINITIONAL_REPRESENTATION('',(#845),#974);
#845 = B_SPLINE_CURVE_WITH_KNOTS('',8,(#846,#847,#848,#849,#850,#851,
    #852,#853,#854,#855,#856,#857,#858,#859,#860,#861,#862,#863,#864,
    #865,#866,#867,#868,#869,#870,#871,#872,#873,#874,#875,#876,#877,
    #878,#879,#880,#881,#882,#883,#884,#885,#886,#887,#888,#889,#890,
    #891,#892,#893,#894,#895,#896,#897,#898,#899,#900,#901,#902,#903,
    #904,#905,#906,#907,#908,#909,#910,#911,#912,#913,#914,#915,#916,
    #917,#918,#919,#920,#921,#922,#923,#924,#925,#926,#927,#928,#929,
    #930,#931,#932,#933,#934,#935,#936,#937,#938,#939,#940,#941,#942,
    #943,#944,#945,#946,#947,#948,#949,#950,#951,#952,#953,#954,#955,
    #956,#957,#958,#959,#960,#961,#962,#963,#964,#965,#966,#967,#968,
    #969,#970,#971,#972,#973),.UNSPECIFIED.,.F.,.F.,(9,7,7,7,7,7,7,7,7,7
    ,7,7,7,7,7,7,7,7,9),(0.,3.268835152901E-02,5.340466257569E-02,
    8.747819908478E-02,0.15133264735,0.216471398546,0.298843584715,
    0.391588337846,0.489051325529,0.542612314969,0.557853318863,
    0.580558183655,0.598448714096,0.626245221764,0.657477811228,
    0.711710627112,0.769478365934,0.862849497867,1.),.UNSPECIFIED.);
#846 = CARTESIAN_POINT('',(0.470355448542,0.529610957198));
#847 = CARTESIAN_POINT('',(0.470345023234,0.529729880713));
#848 = CARTESIAN_POINT('',(0.470362247116,0.529849358784));
#849 = CARTESIAN_POINT('',(0.470407662602,0.529968279106));
#850 = CARTESIAN_POINT('',(0.470480574661,0.530085705454));
#851 = CARTESIAN_POINT('',(0.470579412415,0.530200868483));
#852 = CARTESIAN_POINT('',(0.470702032875,0.530313154419));
#853 = CARTESIAN_POINT('',(0.470845966817,0.530422091644));
#854 = CARTESIAN_POINT('',(0.471111680194,0.530594033468));
#855 = CARTESIAN_POINT('',(0.471222346152,0.530659298922));
#856 = CARTESIAN_POINT('',(0.471340024737,0.530723083354));
#857 = CARTESIAN_POINT('',(0.47146415361,0.5307853596));
#858 = CARTESIAN_POINT('',(0.471594198589,0.530846118802));
#859 = CARTESIAN_POINT('',(0.47172966424,0.530905367703));
#860 = CARTESIAN_POINT('',(0.471870104465,0.530963125952));
#861 = CARTESIAN_POINT('',(0.472253671601,0.531112019651));
#862 = CARTESIAN_POINT('',(0.472504541097,0.531200634282));
#863 = CARTESIAN_POINT('',(0.472766047835,0.531285422802));
#864 = CARTESIAN_POINT('',(0.473036729746,0.531366545886));
#865 = CARTESIAN_POINT('',(0.473315349758,0.531444168659));
#866 = CARTESIAN_POINT('',(0.473600889117,0.531518459984));
#867 = CARTESIAN_POINT('',(0.473892540712,0.531589591751));
#868 = CARTESIAN_POINT('',(0.474746588974,0.531785445842));
#869 = CARTESIAN_POINT('',(0.475322331989,0.531902554522));
#870 = CARTESIAN_POINT('',(0.475912829269,0.532010211227));
#871 = CARTESIAN_POINT('',(0.476515034645,0.53210924082));
#872 = CARTESIAN_POINT('',(0.47712660487,0.532200328369));
#873 = CARTESIAN_POINT('',(0.477745790432,0.532284071731));
#874 = CARTESIAN_POINT('',(0.478371420619,0.532360981758));
#875 = CARTESIAN_POINT('',(0.479646945398,0.532503451788));
#876 = CARTESIAN_POINT('',(0.480296717301,0.5325687124));
#877 = CARTESIAN_POINT('',(0.480951129965,0.53262774082));
#878 = CARTESIAN_POINT('',(0.481609345959,0.532680893633));
#879 = CARTESIAN_POINT('',(0.482270674943,0.532728461724));
#880 = CARTESIAN_POINT('',(0.482934550042,0.532770689495));
#881 = CARTESIAN_POINT('',(0.48360051505,0.53280778411));
#882 = CARTESIAN_POINT('',(0.485112581842,0.532880546097));
#883 = CARTESIAN_POINT('',(0.485959614475,0.532913234605));
#884 = CARTESIAN_POINT('',(0.486808551425,0.532938324435));
#885 = CARTESIAN_POINT('',(0.487658709904,0.532956066489));
#886 = CARTESIAN_POINT('',(0.48850947497,0.532966640741));
#887 = CARTESIAN_POINT('',(0.489360285128,0.532970169034));
#888 = CARTESIAN_POINT('',(0.490210621805,0.532966718386));
#889 = CARTESIAN_POINT('',(0.492016340337,0.532944558651));
#890 = CARTESIAN_POINT('',(0.492971335466,0.53292398415));
#891 = CARTESIAN_POINT('',(0.493924336095,0.532894586567));
#892 = CARTESIAN_POINT('',(0.494874584477,0.532856280077));
#893 = CARTESIAN_POINT('',(0.495821213115,0.532808891901));
#894 = CARTESIAN_POINT('',(0.496763220937,0.532752151684));
#895 = CARTESIAN_POINT('',(0.497699429627,0.53268565611));
#896 = CARTESIAN_POINT('',(0.499604671443,0.532528051914));
#897 = CARTESIAN_POINT('',(0.500571752999,0.53243596058));
#898 = CARTESIAN_POINT('',(0.501529179109,0.532331801231));
#899 = CARTESIAN_POINT('',(0.502475058896,0.532214580178));
#900 = CARTESIAN_POINT('',(0.503406219064,0.53208313491));
#901 = CARTESIAN_POINT('',(0.504317556355,0.531935818486));
#902 = CARTESIAN_POINT('',(0.505202407491,0.531770714009));
#903 = CARTESIAN_POINT('',(0.506515476472,0.531481487205));
#904 = CARTESIAN_POINT('',(0.506968799523,0.53137263497));
#905 = CARTESIAN_POINT('',(0.507408671382,0.531256785688));
#906 = CARTESIAN_POINT('',(0.507832582021,0.531133228754));
#907 = CARTESIAN_POINT('',(0.508236530779,0.531001268912));
#908 = CARTESIAN_POINT('',(0.508615051894,0.530860254359));
#909 = CARTESIAN_POINT('',(0.508961119746,0.530709572864));
#910 = CARTESIAN_POINT('',(0.509352390056,0.53050274573));
#911 = CARTESIAN_POINT('',(0.509435656095,0.530456119222));
#912 = CARTESIAN_POINT('',(0.509515292685,0.53040868014));
#913 = CARTESIAN_POINT('',(0.509591058527,0.530360432264));
#914 = CARTESIAN_POINT('',(0.509662697819,0.530311386531));
#915 = CARTESIAN_POINT('',(0.509729945688,0.530261562043));
#916 = CARTESIAN_POINT('',(0.509792533629,0.530210987071));
#917 = CARTESIAN_POINT('',(0.509936094268,0.530083296648));
#918 = CARTESIAN_POINT('',(0.510011090613,0.530005284608));
#919 = CARTESIAN_POINT('',(0.510074254436,0.529925828917));
#920 = CARTESIAN_POINT('',(0.51012470751,0.529845136581));
#921 = CARTESIAN_POINT('',(0.510161692023,0.529763459289));
#922 = CARTESIAN_POINT('',(0.510184639703,0.529681096065));
#923 = CARTESIAN_POINT('',(0.510193240933,0.52959839592));
#924 = CARTESIAN_POINT('',(0.510183001169,0.529450647084));
#925 = CARTESIAN_POINT('',(0.510169591927,0.529385552519));
#926 = CARTESIAN_POINT('',(0.510147288785,0.52932066887));
#927 = CARTESIAN_POINT('',(0.51011621798,0.529256170689));
#928 = CARTESIAN_POINT('',(0.510076610752,0.529192215502));
#929 = CARTESIAN_POINT('',(0.510028784773,0.529128944282));
#930 = CARTESIAN_POINT('',(0.509973125563,0.529066481936));
#931 = CARTESIAN_POINT('',(0.509812095264,0.528909316655));
#932 = CARTESIAN_POINT('',(0.509696267993,0.528815917457));
#933 = CARTESIAN_POINT('',(0.509564143484,0.528725066134));
#934 = CARTESIAN_POINT('',(0.509417422087,0.528636959042));
#935 = CARTESIAN_POINT('',(0.50925778249,0.528551692754));
#936 = CARTESIAN_POINT('',(0.509086763286,0.528469287015));
#937 = CARTESIAN_POINT('',(0.508905690727,0.528389700836));
#938 = CARTESIAN_POINT('',(0.508502122919,0.528226481636));
#939 = CARTESIAN_POINT('',(0.50827734575,0.528143593357));
#940 = CARTESIAN_POINT('',(0.508042848948,0.52806403573));
#941 = CARTESIAN_POINT('',(0.507799950466,0.527987664513));
#942 = CARTESIAN_POINT('',(0.507549764843,0.52791433246));
#943 = CARTESIAN_POINT('',(0.507293209651,0.527843889383));
#944 = CARTESIAN_POINT('',(0.507031011925,0.527776182225));
#945 = CARTESIAN_POINT('',(0.506299574845,0.527597967297));
#946 = CARTESIAN_POINT('',(0.505820405388,0.527492742463));
#947 = CARTESIAN_POINT('',(0.505329175435,0.527394582764));
#948 = CARTESIAN_POINT('',(0.504828154102,0.52730288572));
#949 = CARTESIAN_POINT('',(0.504319082213,0.527217161767));
#950 = CARTESIAN_POINT('',(0.50380328042,0.527136983291));
#951 = CARTESIAN_POINT('',(0.503281693643,0.527061965132));
#952 = CARTESIAN_POINT('',(0.502193711479,0.526917013109));
#953 = CARTESIAN_POINT('',(0.501626875212,0.526847762696));
#954 = CARTESIAN_POINT('',(0.501055273792,0.526783642855));
#955 = CARTESIAN_POINT('',(0.500479651463,0.526724351752));
#956 = CARTESIAN_POINT('',(0.499900618749,0.526669642873));
#957 = CARTESIAN_POINT('',(0.49931867491,0.526619308082));
#958 = CARTESIAN_POINT('',(0.498734220025,0.526573169106));
#959 = CARTESIAN_POINT('',(0.497199321254,0.526463043766));
#960 = CARTESIAN_POINT('',(0.49624550039,0.526405595407));
#961 = CARTESIAN_POINT('',(0.495287456398,0.526358103497));
#962 = CARTESIAN_POINT('',(0.494326335787,0.526320141358));
#963 = CARTESIAN_POINT('',(0.493363124986,0.526291421053));
#964 = CARTESIAN_POINT('',(0.492398689666,0.526271756043));
#965 = CARTESIAN_POINT('',(0.491433797711,0.526261049926));
#966 = CARTESIAN_POINT('',(0.489052143583,0.526256757354));
#967 = CARTESIAN_POINT('',(0.487636636384,0.526273552722));
#968 = CARTESIAN_POINT('',(0.48622412263,0.526309664418));
#969 = CARTESIAN_POINT('',(0.484816873924,0.526365590123));
#970 = CARTESIAN_POINT('',(0.483417949623,0.526442187268));
#971 = CARTESIAN_POINT('',(0.482031537925,0.526540894906));
#972 = CARTESIAN_POINT('',(0.48066288928,0.526663624996));
#973 = CARTESIAN_POINT('',(0.479319731669,0.526814025907));
#974 = ( GEOMETRIC_REPRESENTATION_CONTEXT(2) 
PARAMETRIC_REPRESENTATION_CONTEXT() REPRESENTATION_CONTEXT('2D SPACE',''
  ) );
#975 = PCURVE('',#976,#981);
#976 = CYLINDRICAL_SURFACE('',#977,1.1);
#977 = AXIS2_PLACEMENT_3D('',#978,#979,#980);
#978 = CARTESIAN_POINT('',(-40.,-300.,-5.));
#979 = DIRECTION('',(0.,0.,1.));
#980 = DIRECTION('',(1.,0.,-0.));
#981 = DEFINITIONAL_REPRESENTATION('',(#982),#1111);
#982 = B_SPLINE_CURVE_WITH_KNOTS('',8,(#983,#984,#985,#986,#987,#988,
    #989,#990,#991,#992,#993,#994,#995,#996,#997,#998,#999,#1000,#1001,
    #1002,#1003,#1004,#1005,#1006,#1007,#1008,#1009,#1010,#1011,#1012,
    #1013,#1014,#1015,#1016,#1017,#1018,#1019,#1020,#1021,#1022,#1023,
    #1024,#1025,#1026,#1027,#1028,#1029,#1030,#1031,#1032,#1033,#1034,
    #1035,#1036,#1037,#1038,#1039,#1040,#1041,#1042,#1043,#1044,#1045,
    #1046,#1047,#1048,#1049,#1050,#1051,#1052,#1053,#1054,#1055,#1056,
    #1057,#1058,#1059,#1060,#1061,#1062,#1063,#1064,#1065,#1066,#1067,
    #1068,#1069,#1070,#1071,#1072,#1073,#1074,#1075,#1076,#1077,#1078,
    #1079,#1080,#1081,#1082,#1083,#1084,#1085,#1086,#1087,#1088,#1089,
    #1090,#1091,#1092,#1093,#1094,#1095,#1096,#1097,#1098,#1099,#1100,
    #1101,#1102,#1103,#1104,#1105,#1106,#1107,#1108,#1109,#1110),
  .UNSPECIFIED.,.F.,.F.,(9,7,7,7,7,7,7,7,7,7,7,7,7,7,7,7,7,7,9),(0.,
    3.268835152901E-02,5.340466257569E-02,8.747819908478E-02,
    0.15133264735,0.216471398546,0.298843584715,0.391588337846,
    0.489051325529,0.542612314969,0.557853318863,0.580558183655,
    0.598448714096,0.626245221764,0.657477811228,0.711710627112,
    0.769478365934,0.862849497867,1.),.UNSPECIFIED.);
#983 = CARTESIAN_POINT('',(6.28318530718,61.339862024753));
#984 = CARTESIAN_POINT('',(6.247717483741,61.341919611189));
#985 = CARTESIAN_POINT('',(6.212085334397,61.341322562921));
#986 = CARTESIAN_POINT('',(6.17655244804,61.338008741133));
#987 = CARTESIAN_POINT('',(6.14132765386,61.332036366063));
#988 = CARTESIAN_POINT('',(6.106577828575,61.32354921278));
#989 = CARTESIAN_POINT('',(6.072437255941,61.312747369597));
#990 = CARTESIAN_POINT('',(6.039013538557,61.299863559094));
#991 = CARTESIAN_POINT('',(5.985714865511,61.275817118025));
#992 = CARTESIAN_POINT('',(5.965345389709,61.265745117391));
#993 = CARTESIAN_POINT('',(5.945290232177,61.254984234492));
#994 = CARTESIAN_POINT('',(5.925553506675,61.243588189985));
#995 = CARTESIAN_POINT('',(5.906135303454,61.231608168395));
#996 = CARTESIAN_POINT('',(5.887032149625,61.219091775936));
#997 = CARTESIAN_POINT('',(5.868237469531,61.206081998336));
#998 = CARTESIAN_POINT('',(5.819321353049,61.170467969288));
#999 = CARTESIAN_POINT('',(5.78971996512,61.147093628613));
#1000 = CARTESIAN_POINT('',(5.76089003457,61.122657033275));
#1001 = CARTESIAN_POINT('',(5.732786420101,61.097299926609));
#1002 = CARTESIAN_POINT('',(5.705365287134,61.07114251619));
#1003 = CARTESIAN_POINT('',(5.678582709078,61.044284091382));
#1004 = CARTESIAN_POINT('',(5.652393268598,61.01680364089));
#1005 = CARTESIAN_POINT('',(5.578690177948,60.936207041215));
#1006 = CARTESIAN_POINT('',(5.532588328596,60.881724038575));
#1007 = CARTESIAN_POINT('',(5.488131464946,60.825715227686));
#1008 = CARTESIAN_POINT('',(5.445107462766,60.768480340417));
#1009 = CARTESIAN_POINT('',(5.403344232202,60.710250538569));
#1010 = CARTESIAN_POINT('',(5.362689469202,60.651199251733));
#1011 = CARTESIAN_POINT('',(5.323006099047,60.591443478029));
#1012 = CARTESIAN_POINT('',(5.24453231845,60.469443114419));
#1013 = CARTESIAN_POINT('',(5.205797948606,60.407206846366));
#1014 = CARTESIAN_POINT('',(5.167832679329,60.344443758455));
#1015 = CARTESIAN_POINT('',(5.13053716101,60.281237578058));
#1016 = CARTESIAN_POINT('',(5.093827748004,60.21765737594));
#1017 = CARTESIAN_POINT('',(5.057630139696,60.153759981072));
#1018 = CARTESIAN_POINT('',(5.021875685618,60.089591267689));
#1019 = CARTESIAN_POINT('',(4.941765948481,59.943742063877));
#1020 = CARTESIAN_POINT('',(4.897643573369,59.86193094632));
#1021 = CARTESIAN_POINT('',(4.854006503502,59.779830339208));
#1022 = CARTESIAN_POINT('',(4.810746192632,59.697508638456));
#1023 = CARTESIAN_POINT('',(4.767765028677,59.615027199433));
#1024 = CARTESIAN_POINT('',(4.724970522336,59.532441825583));
#1025 = CARTESIAN_POINT('',(4.682270929671,59.449803804865));
#1026 = CARTESIAN_POINT('',(4.591496941866,59.274110475307));
#1027 = CARTESIAN_POINT('',(4.543429072175,59.18106648054));
#1028 = CARTESIAN_POINT('',(4.495233356862,59.088092642001));
#1029 = CARTESIAN_POINT('',(4.44677544753,58.995262689699));
#1030 = CARTESIAN_POINT('',(4.397918083902,58.902660498181));
#1031 = CARTESIAN_POINT('',(4.348512337881,58.810382374224));
#1032 = CARTESIAN_POINT('',(4.298384007867,58.718541085364));
#1033 = CARTESIAN_POINT('',(4.193648276592,58.531358991933));
#1034 = CARTESIAN_POINT('',(4.139007978026,58.436195579709));
#1035 = CARTESIAN_POINT('',(4.083084781564,58.341824649246));
#1036 = CARTESIAN_POINT('',(4.025554227044,58.248424497605));
#1037 = CARTESIAN_POINT('',(3.966080267231,58.156297753731));
#1038 = CARTESIAN_POINT('',(3.904205786256,58.065932743665));
#1039 = CARTESIAN_POINT('',(3.839402871919,57.977969510525));
#1040 = CARTESIAN_POINT('',(3.73277396042,57.847013409733));
#1041 = CARTESIAN_POINT('',(3.693831660328,57.80171599528));
#1042 = CARTESIAN_POINT('',(3.653539265051,57.757666929434));
#1043 = CARTESIAN_POINT('',(3.611696235803,57.71510714743));
#1044 = CARTESIAN_POINT('',(3.568112952598,57.674423986621));
#1045 = CARTESIAN_POINT('',(3.522605655065,57.636149153171));
#1046 = CARTESIAN_POINT('',(3.474978702784,57.600968046033));
#1047 = CARTESIAN_POINT('',(3.410744972522,57.56088114368));
#1048 = CARTESIAN_POINT('',(3.396331525768,57.552328028363));
#1049 = CARTESIAN_POINT('',(3.381731607143,57.544123567136));
#1050 = CARTESIAN_POINT('',(3.36694464357,57.536291494672));
#1051 = CARTESIAN_POINT('',(3.351971782834,57.528857028164));
#1052 = CARTESIAN_POINT('',(3.336816119242,57.521846341952));
#1053 = CARTESIAN_POINT('',(3.321482919284,57.515286042136));
#1054 = CARTESIAN_POINT('',(3.282884573762,57.500140062589));
#1055 = CARTESIAN_POINT('',(3.259403577782,57.492132616659));
#1056 = CARTESIAN_POINT('',(3.235574309676,57.485272959171));
#1057 = CARTESIAN_POINT('',(3.211442595731,57.479649048522));
#1058 = CARTESIAN_POINT('',(3.187064353616,57.475337380257));
#1059 = CARTESIAN_POINT('',(3.162507307806,57.472396221585));
#1060 = CARTESIAN_POINT('',(3.137852705002,57.470858845901));
#1061 = CARTESIAN_POINT('',(3.093769337906,57.470622694618));
#1062 = CARTESIAN_POINT('',(3.074334746957,57.471391002967));
#1063 = CARTESIAN_POINT('',(3.054939266066,57.473033011652));
#1064 = CARTESIAN_POINT('',(3.035624016654,57.475537753338));
#1065 = CARTESIAN_POINT('',(3.016425692903,57.478883804703));
#1066 = CARTESIAN_POINT('',(2.997377022456,57.483041117102));
#1067 = CARTESIAN_POINT('',(2.978507227113,57.487972847224));
#1068 = CARTESIAN_POINT('',(2.930843081316,57.502437870615));
#1069 = CARTESIAN_POINT('',(2.902340260928,57.513006609695));
#1070 = CARTESIAN_POINT('',(2.87440624593,57.525193086812));
#1071 = CARTESIAN_POINT('',(2.847082157885,57.53883186346));
#1072 = CARTESIAN_POINT('',(2.820386047998,57.553758812573));
#1073 = CARTESIAN_POINT('',(2.794318332373,57.569822943673));
#1074 = CARTESIAN_POINT('',(2.768864630866,57.586893621384));
#1075 = CARTESIAN_POINT('',(2.716053238856,57.625054050604));
#1076 = CARTESIAN_POINT('',(2.688858472282,57.646372995593));
#1077 = CARTESIAN_POINT('',(2.662368066197,57.668668700515));
#1078 = CARTESIAN_POINT('',(2.636540698614,57.691810470105));
#1079 = CARTESIAN_POINT('',(2.611336154603,57.71568758046));
#1080 = CARTESIAN_POINT('',(2.586714111682,57.740208633868));
#1081 = CARTESIAN_POINT('',(2.562632925228,57.765300913651));
#1082 = CARTESIAN_POINT('',(2.498095854878,57.835377352276));
#1083 = CARTESIAN_POINT('',(2.458671279318,57.881369236123));
#1084 = CARTESIAN_POINT('',(2.420553208621,57.928586884483));
#1085 = CARTESIAN_POINT('',(2.383580213067,57.976802310646));
#1086 = CARTESIAN_POINT('',(2.347623747813,58.025840442922));
#1087 = CARTESIAN_POINT('',(2.312570349117,58.075568023059));
#1088 = CARTESIAN_POINT('',(2.278313190751,58.125889007427));
#1089 = CARTESIAN_POINT('',(2.209005339918,58.230918850218));
#1090 = CARTESIAN_POINT('',(2.174064656553,58.285674440727));
#1091 = CARTESIAN_POINT('',(2.139822858615,58.340920577675));
#1092 = CARTESIAN_POINT('',(2.106193625534,58.396581680472));
#1093 = CARTESIAN_POINT('',(2.073104634395,58.452595800509));
#1094 = CARTESIAN_POINT('',(2.040492100779,58.508912256448));
#1095 = CARTESIAN_POINT('',(2.008297634126,58.565490357063));
#1096 = CARTESIAN_POINT('',(1.925019586715,58.71412048008));
#1097 = CARTESIAN_POINT('',(1.874532832337,58.806526751622));
#1098 = CARTESIAN_POINT('',(1.824783598646,58.899379374894));
#1099 = CARTESIAN_POINT('',(1.775593734769,58.992562795415));
#1100 = CARTESIAN_POINT('',(1.726811251418,59.085978523827));
#1101 = CARTESIAN_POINT('',(1.678296178079,59.179540935785));
#1102 = CARTESIAN_POINT('',(1.629911510775,59.27317490348));
#1103 = CARTESIAN_POINT('',(1.510437078891,59.504361216399));
#1104 = CARTESIAN_POINT('',(1.439388003976,59.641823858092));
#1105 = CARTESIAN_POINT('',(1.367901605822,59.779057180746));
#1106 = CARTESIAN_POINT('',(1.295545553321,59.915847311383));
#1107 = CARTESIAN_POINT('',(1.221886315284,60.051908129173));
#1108 = CARTESIAN_POINT('',(1.146399347756,60.186850930087));
#1109 = CARTESIAN_POINT('',(1.068474845589,60.320190342614));
#1110 = CARTESIAN_POINT('',(0.987043976107,60.451220048573));
#1111 = ( GEOMETRIC_REPRESENTATION_CONTEXT(2) 
PARAMETRIC_REPRESENTATION_CONTEXT() REPRESENTATION_CONTEXT('2D SPACE',''
  ) );
#1112 = ORIENTED_EDGE('',*,*,#1113,.T.);
#1113 = EDGE_CURVE('',#711,#709,#1114,.T.);
#1114 = SURFACE_CURVE('',#1115,(#1139,#1166),.PCURVE_S1.);
#1115 = B_SPLINE_CURVE_WITH_KNOTS('',8,(#1116,#1117,#1118,#1119,#1120,
    #1121,#1122,#1123,#1124,#1125,#1126,#1127,#1128,#1129,#1130,#1131,
    #1132,#1133,#1134,#1135,#1136,#1137,#1138),.UNSPECIFIED.,.F.,.F.,(9,
    7,7,9),(0.,0.618969755389,0.803920855345,1.),.UNSPECIFIED.);
#1116 = CARTESIAN_POINT('',(-39.39372535024,-299.0821595732,
    55.451220048573));
#1117 = CARTESIAN_POINT('',(-39.34148058676,-299.1166695759,
    55.542811782194));
#1118 = CARTESIAN_POINT('',(-39.29009905414,-299.155491966,
    55.632940315369));
#1119 = CARTESIAN_POINT('',(-39.23956112127,-299.1990841617,
    55.721675705288));
#1120 = CARTESIAN_POINT('',(-39.19005655476,-299.2480354858,
    55.808734766005));
#1121 = CARTESIAN_POINT('',(-39.14194370762,-299.3029576462,
    55.893550638022));
#1122 = CARTESIAN_POINT('',(-39.09587208945,-299.3647027686,
    55.975083256934));
#1123 = CARTESIAN_POINT('',(-39.05266252923,-299.4340763685,
    56.052011954233));
#1124 = CARTESIAN_POINT('',(-39.00213030182,-299.5363782282,
    56.14295701091));
#1125 = CARTESIAN_POINT('',(-38.99090251758,-299.5607256865,
    56.16323895637));
#1126 = CARTESIAN_POINT('',(-38.98011328296,-299.5859199735,
    56.182813815845));
#1127 = CARTESIAN_POINT('',(-38.96981418405,-299.6119903819,
    56.201597175761));
#1128 = CARTESIAN_POINT('',(-38.96006627589,-299.6389581361,
    56.219488361681));
#1129 = CARTESIAN_POINT('',(-38.95093878782,-299.6668341047,
    56.236372500131));
#1130 = CARTESIAN_POINT('',(-38.9425078288,-299.6956165117,
    56.252122580426));
#1131 = CARTESIAN_POINT('',(-38.92674191083,-299.7567460833,
    56.281951613895));
#1132 = CARTESIAN_POINT('',(-38.91950021181,-299.7892150271,
    56.295879008851));
#1133 = CARTESIAN_POINT('',(-38.91323552286,-299.8226472786,
    56.308204984625));
#1134 = CARTESIAN_POINT('',(-38.90805647491,-299.8569620722,
    56.318744043536));
#1135 = CARTESIAN_POINT('',(-38.90406815167,-299.8920411337,
    56.327314649466));
#1136 = CARTESIAN_POINT('',(-38.90136167117,-299.9277232101,
    56.333756278237));
#1137 = CARTESIAN_POINT('',(-38.9,-299.9637980738,56.337952775876));
#1138 = CARTESIAN_POINT('',(-38.9,-300.,56.339862024753));
#1139 = PCURVE('',#317,#1140);
#1140 = DEFINITIONAL_REPRESENTATION('',(#1141),#1165);
#1141 = B_SPLINE_CURVE_WITH_KNOTS('',8,(#1142,#1143,#1144,#1145,#1146,
    #1147,#1148,#1149,#1150,#1151,#1152,#1153,#1154,#1155,#1156,#1157,
    #1158,#1159,#1160,#1161,#1162,#1163,#1164),.UNSPECIFIED.,.F.,.F.,(9,
    7,7,9),(0.,0.618969755389,0.803920855345,1.),.UNSPECIFIED.);
#1142 = CARTESIAN_POINT('',(0.479319731669,0.526814025907));
#1143 = CARTESIAN_POINT('',(0.478380844314,0.526919158404));
#1144 = CARTESIAN_POINT('',(0.477457842969,0.527037430795));
#1145 = CARTESIAN_POINT('',(0.47655016276,0.527170237657));
#1146 = CARTESIAN_POINT('',(0.475660932705,0.527319375864));
#1147 = CARTESIAN_POINT('',(0.474796237369,0.527486710858));
#1148 = CARTESIAN_POINT('',(0.473967160582,0.527674841685));
#1149 = CARTESIAN_POINT('',(0.473187715172,0.52788622601));
#1150 = CARTESIAN_POINT('',(0.472271669717,0.528197963964));
#1151 = CARTESIAN_POINT('',(0.472067788609,0.528272157626));
#1152 = CARTESIAN_POINT('',(0.471871472101,0.528348933122));
#1153 = CARTESIAN_POINT('',(0.471683608397,0.528428379882));
#1154 = CARTESIAN_POINT('',(0.47150525271,0.528510562764));
#1155 = CARTESIAN_POINT('',(0.471337605144,0.528595515086));
#1156 = CARTESIAN_POINT('',(0.471181988569,0.528683231638));
#1157 = CARTESIAN_POINT('',(0.470889110907,0.528869532737));
#1158 = CARTESIAN_POINT('',(0.470753458354,0.528968488663));
#1159 = CARTESIAN_POINT('',(0.470634716709,0.529070382844));
#1160 = CARTESIAN_POINT('',(0.470534795324,0.529174969382));
#1161 = CARTESIAN_POINT('',(0.470455551388,0.529281888041));
#1162 = CARTESIAN_POINT('',(0.470398610609,0.529390647539));
#1163 = CARTESIAN_POINT('',(0.470365122258,0.529500607234));
#1164 = CARTESIAN_POINT('',(0.470355448542,0.529610957198));
#1165 = ( GEOMETRIC_REPRESENTATION_CONTEXT(2) 
PARAMETRIC_REPRESENTATION_CONTEXT() REPRESENTATION_CONTEXT('2D SPACE',''
  ) );
#1166 = PCURVE('',#976,#1167);
#1167 = DEFINITIONAL_REPRESENTATION('',(#1168),#1192);
#1168 = B_SPLINE_CURVE_WITH_KNOTS('',8,(#1169,#1170,#1171,#1172,#1173,
    #1174,#1175,#1176,#1177,#1178,#1179,#1180,#1181,#1182,#1183,#1184,
    #1185,#1186,#1187,#1188,#1189,#1190,#1191),.UNSPECIFIED.,.F.,.F.,(9,
    7,7,9),(0.,0.618969755389,0.803920855345,1.),.UNSPECIFIED.);
#1169 = CARTESIAN_POINT('',(0.987043976107,60.451220048573));
#1170 = CARTESIAN_POINT('',(0.930122574572,60.542811782194));
#1171 = CARTESIAN_POINT('',(0.871694601408,60.632940315369));
#1172 = CARTESIAN_POINT('',(0.811239736887,60.721675705288));
#1173 = CARTESIAN_POINT('',(0.748245899783,60.808734766005));
#1174 = CARTESIAN_POINT('',(0.682253735364,60.893550638022));
#1175 = CARTESIAN_POINT('',(0.612604291462,60.975083256934));
#1176 = CARTESIAN_POINT('',(0.538662427081,61.052011954233));
#1177 = CARTESIAN_POINT('',(0.434933694264,61.14295701091));
#1178 = CARTESIAN_POINT('',(0.410568142252,61.16323895637));
#1179 = CARTESIAN_POINT('',(0.385668346312,61.182813815845));
#1180 = CARTESIAN_POINT('',(0.360206715439,61.201597175761));
#1181 = CARTESIAN_POINT('',(0.334161475041,61.219488361681));
#1182 = CARTESIAN_POINT('',(0.307517412376,61.236372500131));
#1183 = CARTESIAN_POINT('',(0.280266621986,61.252122580426));
#1184 = CARTESIAN_POINT('',(0.222875772008,61.281951613895));
#1185 = CARTESIAN_POINT('',(0.192649790034,61.295879008851));
#1186 = CARTESIAN_POINT('',(0.161758182872,61.308204984625));
#1187 = CARTESIAN_POINT('',(0.130250150346,61.318744043536));
#1188 = CARTESIAN_POINT('',(9.819882450279E-02,61.327314649466));
#1189 = CARTESIAN_POINT('',(6.570612245435E-02,61.333756278237));
#1190 = CARTESIAN_POINT('',(3.291084199455E-02,61.337952775876));
#1191 = CARTESIAN_POINT('',(0.,61.339862024753));
#1192 = ( GEOMETRIC_REPRESENTATION_CONTEXT(2) 
PARAMETRIC_REPRESENTATION_CONTEXT() REPRESENTATION_CONTEXT('2D SPACE',''
  ) );
#1193 = ADVANCED_FACE('',(#1194,#1197),#66,.T.);
#1194 = FACE_BOUND('',#1195,.T.);
#1195 = EDGE_LOOP('',(#1196));
#1196 = ORIENTED_EDGE('',*,*,#51,.T.);
#1197 = FACE_BOUND('',#1198,.T.);
#1198 = EDGE_LOOP('',(#1199));
#1199 = ORIENTED_EDGE('',*,*,#1200,.F.);
#1200 = EDGE_CURVE('',#1201,#1201,#1203,.T.);
#1201 = VERTEX_POINT('',#1202);
#1202 = CARTESIAN_POINT('',(-38.9,-300.,60.614734695729));
#1203 = SURFACE_CURVE('',#1204,(#1209,#1216),.PCURVE_S1.);
#1204 = CIRCLE('',#1205,1.1);
#1205 = AXIS2_PLACEMENT_3D('',#1206,#1207,#1208);
#1206 = CARTESIAN_POINT('',(-40.,-300.,60.614734695729));
#1207 = DIRECTION('',(0.,0.,1.));
#1208 = DIRECTION('',(1.,0.,-0.));
#1209 = PCURVE('',#66,#1210);
#1210 = DEFINITIONAL_REPRESENTATION('',(#1211),#1215);
#1211 = CIRCLE('',#1212,1.1);
#1212 = AXIS2_PLACEMENT_2D('',#1213,#1214);
#1213 = CARTESIAN_POINT('',(0.,0.));
#1214 = DIRECTION('',(1.,0.));
#1215 = ( GEOMETRIC_REPRESENTATION_CONTEXT(2) 
PARAMETRIC_REPRESENTATION_CONTEXT() REPRESENTATION_CONTEXT('2D SPACE',''
  ) );
#1216 = PCURVE('',#976,#1217);
#1217 = DEFINITIONAL_REPRESENTATION('',(#1218),#1222);
#1218 = LINE('',#1219,#1220);
#1219 = CARTESIAN_POINT('',(0.,65.614734695729));
#1220 = VECTOR('',#1221,1.);
#1221 = DIRECTION('',(1.,0.));
#1222 = ( GEOMETRIC_REPRESENTATION_CONTEXT(2) 
PARAMETRIC_REPRESENTATION_CONTEXT() REPRESENTATION_CONTEXT('2D SPACE',''
  ) );
#1223 = ADVANCED_FACE('',(#1224),#976,.F.);
#1224 = FACE_BOUND('',#1225,.F.);
#1225 = EDGE_LOOP('',(#1226,#1227,#1248,#1249,#1250));
#1226 = ORIENTED_EDGE('',*,*,#1200,.F.);
#1227 = ORIENTED_EDGE('',*,*,#1228,.F.);
#1228 = EDGE_CURVE('',#709,#1201,#1229,.T.);
#1229 = SEAM_CURVE('',#1230,(#1234,#1241),.PCURVE_S1.);
#1230 = LINE('',#1231,#1232);
#1231 = CARTESIAN_POINT('',(-38.9,-300.,-5.));
#1232 = VECTOR('',#1233,1.);
#1233 = DIRECTION('',(0.,0.,1.));
#1234 = PCURVE('',#976,#1235);
#1235 = DEFINITIONAL_REPRESENTATION('',(#1236),#1240);
#1236 = LINE('',#1237,#1238);
#1237 = CARTESIAN_POINT('',(6.28318530718,-0.));
#1238 = VECTOR('',#1239,1.);
#1239 = DIRECTION('',(0.,1.));
#1240 = ( GEOMETRIC_REPRESENTATION_CONTEXT(2) 
PARAMETRIC_REPRESENTATION_CONTEXT() REPRESENTATION_CONTEXT('2D SPACE',''
  ) );
#1241 = PCURVE('',#976,#1242);
#1242 = DEFINITIONAL_REPRESENTATION('',(#1243),#1247);
#1243 = LINE('',#1244,#1245);
#1244 = CARTESIAN_POINT('',(0.,-0.));
#1245 = VECTOR('',#1246,1.);
#1246 = DIRECTION('',(0.,1.));
#1247 = ( GEOMETRIC_REPRESENTATION_CONTEXT(2) 
PARAMETRIC_REPRESENTATION_CONTEXT() REPRESENTATION_CONTEXT('2D SPACE',''
  ) );
#1248 = ORIENTED_EDGE('',*,*,#1113,.F.);
#1249 = ORIENTED_EDGE('',*,*,#708,.F.);
#1250 = ORIENTED_EDGE('',*,*,#1228,.T.);
#1251 = ( GEOMETRIC_REPRESENTATION_CONTEXT(3) 
GLOBAL_UNCERTAINTY_ASSIGNED_CONTEXT((#1255)) 
GLOBAL_UNIT_ASSIGNED_CONTEXT((#1252,#1253,#1254)) REPRESENTATION_CONTEXT
('Context #1','3D Context with UNIT and UNCERTAINTY') );
#1252 = ( LENGTH_UNIT() NAMED_UNIT(*) SI_UNIT(.MILLI.,.METRE.) );
#1253 = ( NAMED_UNIT(*) PLANE_ANGLE_UNIT() SI_UNIT($,.RADIAN.) );
#1254 = ( NAMED_UNIT(*) SI_UNIT($,.STERADIAN.) SOLID_ANGLE_UNIT() );
#1255 = UNCERTAINTY_MEASURE_WITH_UNIT(LENGTH_MEASURE(2.E-04),#1252,
  'distance_accuracy_value','confusion accuracy');
#1256 = PRODUCT_RELATED_PRODUCT_CATEGORY('part',$,(#7));
ENDSEC;
END-ISO-10303-21;
