ISO-10303-21;
HEADER;
FILE_DESCRIPTION(('Open CASCADE Model'),'2;1');
FILE_NAME('Open CASCADE Shape Model','2026-09-20T18:22:30',('Author'),(
    'Open CASCADE'),'Open CASCADE STEP processor 7.9','Open CASCADE 7.9'
  ,'Unknown');
FILE_SCHEMA(('AUTOMOTIVE_DESIGN { 1 0 10303 214 1 1 1 1 }'));
ENDSEC;
DATA;
#1 = APPLICATION_PROTOCOL_DEFINITION('international standard',
  'automotive_design',2000,#2);
#2 = APPLICATION_CONTEXT(
  'core data for automotive mechanical design processes');
#3 = SHAPE_DEFINITION_REPRESENTATION(#4,#10);
#4 = PRODUCT_DEFINITION_SHAPE('','',#5);
#5 = PRODUCT_DEFINITION('design','',#6,#9);
#6 = PRODUCT_DEFINITION_FORMATION('','',#7);
#7 = PRODUCT('Open CASCADE STEP translator 7.9 5',
  'Open CASCADE STEP translator 7.9 5','',(#8));
#8 = PRODUCT_CONTEXT('',#2,'mechanical');
#9 = PRODUCT_DEFINITION_CONTEXT('part definition',#2,'design');
#10 = ADVANCED_BREP_SHAPE_REPRESENTATION('',(#11,#15),#1251);
#11 = AXIS2_PLACEMENT_3D('',#12,#13,#14);
#12 = CARTESIAN_POINT('',(0.,0.,0.));
#13 = DIRECTION('',(0.,0.,1.));
#14 = DIRECTION('',(1.,0.,-0.));
#15 = MANIFOLD_SOLID_BREP('',#16);
#16 = CLOSED_SHELL('',(#17,#679,#1193,#1223));
#17 = ADVANCED_FACE('',(#18),#32,.T.);
#18 = FACE_BOUND('',#19,.T.);
#19 = EDGE_LOOP('',(#20,#50,#77,#78,#346));
#20 = ORIENTED_EDGE('',*,*,#21,.T.);
#21 = EDGE_CURVE('',#22,#24,#26,.T.);
#22 = VERTEX_POINT('',#23);
#23 = CARTESIAN_POINT('',(-37.,-170.,40.482814737343));
#24 = VERTEX_POINT('',#25);
#25 = CARTESIAN_POINT('',(-37.,-170.,41.88532170053));
#26 = SEAM_CURVE('',#27,(#31,#43),.PCURVE_S1.);
#27 = LINE('',#28,#29);
#28 = CARTESIAN_POINT('',(-37.,-170.,0.));
#29 = VECTOR('',#30,1.);
#30 = DIRECTION('',(0.,0.,1.));
#31 = PCURVE('',#32,#37);
#32 = CYLINDRICAL_SURFACE('',#33,3.);
#33 = AXIS2_PLACEMENT_3D('',#34,#35,#36);
#34 = CARTESIAN_POINT('',(-40.,-170.,0.));
#35 = DIRECTION('',(0.,0.,1.));
#36 = DIRECTION('',(1.,0.,-0.));
#37 = DEFINITIONAL_REPRESENTATION('',(#38),#42);
#38 = LINE('',#39,#40);
#39 = CARTESIAN_POINT('',(6.28318530718,-0.));
#40 = VECTOR('',#41,1.);
#41 = DIRECTION('',(0.,1.));
#42 = ( GEOMETRIC_REPRESENTATION_CONTEXT(2) 
PARAMETRIC_REPRESENTATION_CONTEXT() REPRESENTATION_CONTEXT('2D SPACE',''
  ) );
#43 = PCURVE('',#32,#44);
#44 = DEFINITIONAL_REPRESENTATION('',(#45),#49);
#45 = LINE('',#46,#47);
#46 = CARTESIAN_POINT('',(0.,-0.));
#47 = VECTOR('',#48,1.);
#48 = DIRECTION('',(0.,1.));
#49 = ( GEOMETRIC_REPRESENTATION_CONTEXT(2) 
PARAMETRIC_REPRESENTATION_CONTEXT() REPRESENTATION_CONTEXT('2D SPACE',''
  ) );
#50 = ORIENTED_EDGE('',*,*,#51,.F.);
#51 = EDGE_CURVE('',#24,#24,#52,.T.);
#52 = SURFACE_CURVE('',#53,(#58,#65),.PCURVE_S1.);
#53 = CIRCLE('',#54,3.);
#54 = AXIS2_PLACEMENT_3D('',#55,#56,#57);
#55 = CARTESIAN_POINT('',(-40.,-170.,41.88532170053));
#56 = DIRECTION('',(0.,0.,1.));
#57 = DIRECTION('',(1.,0.,-0.));
#58 = PCURVE('',#32,#59);
#59 = DEFINITIONAL_REPRESENTATION('',(#60),#64);
#60 = LINE('',#61,#62);
#61 = CARTESIAN_POINT('',(0.,41.88532170053));
#62 = VECTOR('',#63,1.);
#63 = DIRECTION('',(1.,0.));
#64 = ( GEOMETRIC_REPRESENTATION_CONTEXT(2) 
PARAMETRIC_REPRESENTATION_CONTEXT() REPRESENTATION_CONTEXT('2D SPACE',''
  ) );
#65 = PCURVE('',#66,#71);
#66 = PLANE('',#67);
#67 = AXIS2_PLACEMENT_3D('',#68,#69,#70);
#68 = CARTESIAN_POINT('',(-40.,-170.,41.88532170053));
#69 = DIRECTION('',(0.,0.,1.));
#70 = DIRECTION('',(1.,0.,-0.));
#71 = DEFINITIONAL_REPRESENTATION('',(#72),#76);
#72 = CIRCLE('',#73,3.);
#73 = AXIS2_PLACEMENT_2D('',#74,#75);
#74 = CARTESIAN_POINT('',(0.,0.));
#75 = DIRECTION('',(1.,0.));
#76 = ( GEOMETRIC_REPRESENTATION_CONTEXT(2) 
PARAMETRIC_REPRESENTATION_CONTEXT() REPRESENTATION_CONTEXT('2D SPACE',''
  ) );
#77 = ORIENTED_EDGE('',*,*,#21,.F.);
#78 = ORIENTED_EDGE('',*,*,#79,.F.);
#79 = EDGE_CURVE('',#80,#22,#82,.T.);
#80 = VERTEX_POINT('',#81);
#81 = CARTESIAN_POINT('',(-37.02502804192,-169.6132935885,
    40.295705974421));
#82 = SURFACE_CURVE('',#83,(#89,#98),.PCURVE_S1.);
#83 = B_SPLINE_CURVE_WITH_KNOTS('',3,(#84,#85,#86,#87,#88),
  .UNSPECIFIED.,.F.,.F.,(4,1,4),(0.,0.657505558028,1.),.UNSPECIFIED.);
#84 = CARTESIAN_POINT('',(-37.02502804192,-169.6132935885,
    40.295705974421));
#85 = CARTESIAN_POINT('',(-37.01445733549,-169.6946151137,
    40.341352615974));
#86 = CARTESIAN_POINT('',(-37.00315838652,-169.8200975014,
    40.405836391175));
#87 = CARTESIAN_POINT('',(-37.,-169.9539637342,40.464075763272));
#88 = CARTESIAN_POINT('',(-37.,-170.,40.482814737343));
#89 = PCURVE('',#32,#90);
#90 = DEFINITIONAL_REPRESENTATION('',(#91),#97);
#91 = B_SPLINE_CURVE_WITH_KNOTS('',3,(#92,#93,#94,#95,#96),
  .UNSPECIFIED.,.F.,.F.,(4,1,4),(0.,0.657505558028,1.),.UNSPECIFIED.);
#92 = CARTESIAN_POINT('',(0.129261800788,40.295705974421));
#93 = CARTESIAN_POINT('',(0.101926576655,40.341352615974));
#94 = CARTESIAN_POINT('',(5.996830277209E-02,40.405836391175));
#95 = CARTESIAN_POINT('',(1.534542193106E-02,40.464075763272));
#96 = CARTESIAN_POINT('',(0.,40.482814737343));
#97 = ( GEOMETRIC_REPRESENTATION_CONTEXT(2) 
PARAMETRIC_REPRESENTATION_CONTEXT() REPRESENTATION_CONTEXT('2D SPACE',''
  ) );
#98 = PCURVE('',#99,#338);
#99 = B_SPLINE_SURFACE_WITH_KNOTS('',3,3,(
    (#100,#101,#102,#103,#104,#105,#106,#107,#108,#109,#110,#111,#112
      ,#113)
    ,(#114,#115,#116,#117,#118,#119,#120,#121,#122,#123,#124,#125,#126
      ,#127)
    ,(#128,#129,#130,#131,#132,#133,#134,#135,#136,#137,#138,#139,#140
      ,#141)
    ,(#142,#143,#144,#145,#146,#147,#148,#149,#150,#151,#152,#153,#154
      ,#155)
    ,(#156,#157,#158,#159,#160,#161,#162,#163,#164,#165,#166,#167,#168
      ,#169)
    ,(#170,#171,#172,#173,#174,#175,#176,#177,#178,#179,#180,#181,#182
      ,#183)
    ,(#184,#185,#186,#187,#188,#189,#190,#191,#192,#193,#194,#195,#196
      ,#197)
    ,(#198,#199,#200,#201,#202,#203,#204,#205,#206,#207,#208,#209,#210
      ,#211)
    ,(#212,#213,#214,#215,#216,#217,#218,#219,#220,#221,#222,#223,#224
      ,#225)
    ,(#226,#227,#228,#229,#230,#231,#232,#233,#234,#235,#236,#237,#238
      ,#239)
    ,(#240,#241,#242,#243,#244,#245,#246,#247,#248,#249,#250,#251,#252
      ,#253)
    ,(#254,#255,#256,#257,#258,#259,#260,#261,#262,#263,#264,#265,#266
      ,#267)
    ,(#268,#269,#270,#271,#272,#273,#274,#275,#276,#277,#278,#279,#280
      ,#281)
    ,(#282,#283,#284,#285,#286,#287,#288,#289,#290,#291,#292,#293,#294
      ,#295)
    ,(#296,#297,#298,#299,#300,#301,#302,#303,#304,#305,#306,#307,#308
      ,#309)
    ,(#310,#311,#312,#313,#314,#315,#316,#317,#318,#319,#320,#321,#322
      ,#323)
    ,(#324,#325,#326,#327,#328,#329,#330,#331,#332,#333,#334,#335,#336
      ,#337
    )),.UNSPECIFIED.,.F.,.F.,.F.,(4,2,2,2,2,2,1,1,1,4),(4,2,2,2,2,2,4),(
    0.,0.112362945579,0.132134416959,0.148362934818,0.161736832212,
    0.211896511627,0.40892238372,0.605948255813,0.802974127907,1.),(0.,
    3.083344037338E-02,0.158028689177,0.407445855026,0.63871290505,
    0.894986199429,1.),.UNSPECIFIED.);
#100 = CARTESIAN_POINT('',(2.161396395616E-05,-129.971300858,
    51.270965150537));
#101 = CARTESIAN_POINT('',(2.161396402634E-05,-133.3243787994,
    51.054581239847));
#102 = CARTESIAN_POINT('',(2.161396402116E-05,-136.6577121327,
    51.054581239847));
#103 = CARTESIAN_POINT('',(2.161396360838E-05,-153.6406396424,
    52.163600063278));
#104 = CARTESIAN_POINT('',(2.161396002672E-05,-166.5481758473,
    60.894960323383));
#105 = CARTESIAN_POINT('',(2.161395727287E-05,-206.2927069523,
    73.03731891774));
#106 = CARTESIAN_POINT('',(2.161396111883E-05,-233.1513762124,
    80.343741087248));
#107 = CARTESIAN_POINT('',(2.161396189636E-05,-284.8395365046,
    86.7189759149));
#108 = CARTESIAN_POINT('',(2.161396156874E-05,-311.1284473112,
    91.997210955085));
#109 = CARTESIAN_POINT('',(2.161396163397E-05,-361.3922139333,
    77.975975847526));
#110 = CARTESIAN_POINT('',(2.507515566168E-05,-385.578809634,
    62.520947734019));
#111 = CARTESIAN_POINT('',(2.01956589246E-05,-419.9666779224,
    26.053786281103));
#112 = CARTESIAN_POINT('',(1.819617435004E-05,-429.8600459597,
    13.835924971879));
#113 = CARTESIAN_POINT('',(1.561550799778E-05,-439.6514049699,
    -4.118212288517E-05));
#114 = CARTESIAN_POINT('',(-2.94263917844,-129.971300858,51.270965150537
    ));
#115 = CARTESIAN_POINT('',(-2.934972769063,-133.3243787994,
    51.054571809547));
#116 = CARTESIAN_POINT('',(-2.934971303436,-136.6577121327,
    51.054563801393));
#117 = CARTESIAN_POINT('',(-2.974247739869,-153.6406396424,
    52.163544588244));
#118 = CARTESIAN_POINT('',(-3.287864138086,-166.5481758473,
    60.895077977579));
#119 = CARTESIAN_POINT('',(-3.705246563326,-206.2927069523,
    73.037594133089));
#120 = CARTESIAN_POINT('',(-3.914923575497,-233.1513762124,
    80.343602731262));
#121 = CARTESIAN_POINT('',(-4.107053657762,-284.8395365046,
    86.71923967377));
#122 = CARTESIAN_POINT('',(-4.341441028515,-311.1284473112,
    92.00115592486));
#123 = CARTESIAN_POINT('',(-3.717511730584,-361.3922139333,
    77.974699287096));
#124 = CARTESIAN_POINT('',(-2.994447152206,-385.7733147372,
    62.495830200447));
#125 = CARTESIAN_POINT('',(-1.498759515216,-419.8869750405,
    26.04007022346));
#126 = CARTESIAN_POINT('',(-1.004097778975,-429.6679801305,
    13.828040963208));
#127 = CARTESIAN_POINT('',(-0.449436173507,-439.3143161282,
    -4.118212288517E-05));
#128 = CARTESIAN_POINT('',(-5.884976858605,-129.971300858,
    50.835127872921));
#129 = CARTESIAN_POINT('',(-5.869651731261,-133.3243787994,
    50.621217986666));
#130 = CARTESIAN_POINT('',(-5.869650518658,-136.6577121327,
    50.62121307725));
#131 = CARTESIAN_POINT('',(-5.948182418081,-153.6406396424,
    51.717498988508));
#132 = CARTESIAN_POINT('',(-6.575169892725,-166.5481758473,
    60.349409448656));
#133 = CARTESIAN_POINT('',(-7.409524484725,-206.2927069523,
    72.351208223916));
#134 = CARTESIAN_POINT('',(-7.828874206582,-233.1513762124,
    79.597835644414));
#135 = CARTESIAN_POINT('',(-8.212139679129,-284.8395365046,
    85.838518277674));
#136 = CARTESIAN_POINT('',(-8.679676232767,-311.1284473112,
    90.947286825317));
#137 = CARTESIAN_POINT('',(-7.43092106785,-361.3922139333,
    77.034630660196));
#138 = CARTESIAN_POINT('',(-5.982476849198,-385.9678198404,
    61.81323544755));
#139 = CARTESIAN_POINT('',(-2.99436610359,-419.8072721586,
    25.761882421787));
#140 = CARTESIAN_POINT('',(-2.006382408486,-429.4759143014,
    13.68170491346));
#141 = CARTESIAN_POINT('',(-0.898887962523,-438.9772272864,
    -4.118212288517E-05));
#142 = CARTESIAN_POINT('',(-9.196632537627,-129.971300858,
    49.831133106286));
#143 = CARTESIAN_POINT('',(-9.173651624492,-133.3243787994,
    49.622782239213));
#144 = CARTESIAN_POINT('',(-9.173651762137,-136.6577121327,
    49.622782050727));
#145 = CARTESIAN_POINT('',(-9.291435869801,-153.6406396424,
    50.690627599963));
#146 = CARTESIAN_POINT('',(-10.23381435987,-166.5481758473,
    59.098975009967));
#147 = CARTESIAN_POINT('',(-11.47878197767,-206.2927069523,
    70.787189163439));
#148 = CARTESIAN_POINT('',(-12.11232140179,-233.1513762124,
    77.900522331006));
#149 = CARTESIAN_POINT('',(-12.61510456423,-284.8395365046,
    83.854598355797));
#150 = CARTESIAN_POINT('',(-13.21150019279,-311.1284473112,
    88.598868093698));
#151 = CARTESIAN_POINT('',(-11.27715877945,-361.3922139333,
    74.951916635484));
#152 = CARTESIAN_POINT('',(-9.190198369894,-386.1965502129,
    60.299464688542));
#153 = CARTESIAN_POINT('',(-4.637448825988,-419.7135446956,
    25.145425112064));
#154 = CARTESIAN_POINT('',(-3.12632922734,-429.2500524194,
    13.357581270733));
#155 = CARTESIAN_POINT('',(-1.427425638233,-438.5808240296,
    -4.118212288517E-05));
#156 = CARTESIAN_POINT('',(-9.688284983711,-129.971300858,
    49.668159693308));
#157 = CARTESIAN_POINT('',(-9.664192901518,-133.3243787994,
    49.460705196342));
#158 = CARTESIAN_POINT('',(-9.664192710443,-136.6577121327,
    49.460703762858));
#159 = CARTESIAN_POINT('',(-9.78766829783,-153.6406396424,
    50.523941776112));
#160 = CARTESIAN_POINT('',(-10.77587135268,-166.5481758473,
    58.896176962437));
#161 = CARTESIAN_POINT('',(-12.08022723324,-206.2927069523,
    70.533768031146));
#162 = CARTESIAN_POINT('',(-12.74493753877,-233.1513762124,
    77.625444297039));
#163 = CARTESIAN_POINT('',(-13.26295728662,-284.8395365046,
    83.533645305679));
#164 = CARTESIAN_POINT('',(-13.87465045799,-311.1284473112,
    88.218869679834));
#165 = CARTESIAN_POINT('',(-11.83986828566,-361.3922139333,
    74.61712918179));
#166 = CARTESIAN_POINT('',(-9.666505832052,-386.2307754823,
    60.065060063222));
#167 = CARTESIAN_POINT('',(-4.882605253022,-419.6995201144,
    25.051311082998));
#168 = CARTESIAN_POINT('',(-3.29373913251,-429.2162563666,
    13.308455346461));
#169 = CARTESIAN_POINT('',(-1.506511524928,-438.5215096146,
    -4.118212288517E-05));
#170 = CARTESIAN_POINT('',(-10.5751956724,-129.971300858,49.348373234965
    ));
#171 = CARTESIAN_POINT('',(-10.54915595357,-133.3243787994,
    49.142674125428));
#172 = CARTESIAN_POINT('',(-10.54915596367,-136.6577121327,
    49.142673519138));
#173 = CARTESIAN_POINT('',(-10.68261580351,-153.6406396424,
    50.196923672124));
#174 = CARTESIAN_POINT('',(-11.75129976469,-166.5481758473,
    58.498499959599));
#175 = CARTESIAN_POINT('',(-13.15937209359,-206.2927069523,
    70.037177021146));
#176 = CARTESIAN_POINT('',(-13.87909355706,-233.1513762124,
    77.086695434677));
#177 = CARTESIAN_POINT('',(-14.41907462056,-284.8395365046,
    82.905811242252));
#178 = CARTESIAN_POINT('',(-15.0496842382,-311.1284473112,
    87.474732939588));
#179 = CARTESIAN_POINT('',(-12.83666249915,-361.3922139333,
    73.964995548999));
#180 = CARTESIAN_POINT('',(-10.52616198983,-386.2930930158,
    59.622950179222));
#181 = CARTESIAN_POINT('',(-5.327641974504,-419.6739840903,
    24.876018581877));
#182 = CARTESIAN_POINT('',(-3.598254455493,-429.1547203527,
    13.217429088239));
#183 = CARTESIAN_POINT('',(-1.65051148403,-438.4135096453,
    -4.118212288517E-05));
#184 = CARTESIAN_POINT('',(-10.97194540342,-129.971300858,
    49.195725069328));
#185 = CARTESIAN_POINT('',(-10.94501266521,-133.3243787994,
    48.990760748029));
#186 = CARTESIAN_POINT('',(-10.94501259736,-136.6577121327,
    48.990759732815));
#187 = CARTESIAN_POINT('',(-11.08304854944,-153.6406396424,
    50.041239525506));
#188 = CARTESIAN_POINT('',(-12.18900559934,-166.5481758473,
    58.314072491701));
#189 = CARTESIAN_POINT('',(-13.64351219409,-206.2927069523,
    69.808782414297));
#190 = CARTESIAN_POINT('',(-14.38422906549,-233.1513762124,
    76.830880320444));
#191 = CARTESIAN_POINT('',(-14.93118909441,-284.8395365046,
    82.605985093541));
#192 = CARTESIAN_POINT('',(-15.56755301772,-311.1284473112,
    87.120542258767));
#193 = CARTESIAN_POINT('',(-13.27590502118,-361.3922139333,
    73.65585658722));
#194 = CARTESIAN_POINT('',(-10.91092978344,-386.3211852799,
    59.41825930413));
#195 = CARTESIAN_POINT('',(-5.527782027254,-419.6624726473,
    24.795650629882));
#196 = CARTESIAN_POINT('',(-3.735432688099,-429.1269803916,
    13.175904233625));
#197 = CARTESIAN_POINT('',(-1.715425556436,-438.364824091,
    -4.118212288517E-05));
#198 = CARTESIAN_POINT('',(-11.6894128948,-129.971300858,48.902024939527
    ));
#199 = CARTESIAN_POINT('',(-11.66081699415,-133.3243787994,
    48.698303145188));
#200 = CARTESIAN_POINT('',(-11.66081691345,-136.6577121327,
    48.69830227614));
#201 = CARTESIAN_POINT('',(-11.80737680748,-153.6406396424,
    49.742415375537));
#202 = CARTESIAN_POINT('',(-12.9835346056,-166.5481758473,
    57.968281829716));
#203 = CARTESIAN_POINT('',(-14.52221877024,-206.2927069523,
    69.383897868367));
#204 = CARTESIAN_POINT('',(-15.29327357347,-233.1513762124,
    76.341259092838));
#205 = CARTESIAN_POINT('',(-15.84694581686,-284.8395365046,
    82.029356226218));
#206 = CARTESIAN_POINT('',(-16.48809909021,-311.1284473112,
    86.44126616298));
#207 = CARTESIAN_POINT('',(-14.05655852302,-361.3922139333,
    73.065075072948));
#208 = CARTESIAN_POINT('',(-11.60736039738,-386.3724283369,
    59.035002669055));
#209 = CARTESIAN_POINT('',(-5.891980356227,-419.6414746413,
    24.646469119737));
#210 = CARTESIAN_POINT('',(-3.985511530759,-429.0763799699,
    13.099125581065));
#211 = CARTESIAN_POINT('',(-1.833835219214,-438.2760168439,
    -4.118212288517E-05));
#212 = CARTESIAN_POINT('',(-12.01255956535,-129.971300858,48.76690867796
    ));
#213 = CARTESIAN_POINT('',(-11.98322067887,-133.3243787994,
    48.563762908056));
#214 = CARTESIAN_POINT('',(-11.98322071082,-136.6577121327,
    48.563762128771));
#215 = CARTESIAN_POINT('',(-12.13358983071,-153.6406396424,
    49.604923978413));
#216 = CARTESIAN_POINT('',(-13.34133072853,-166.5481758473,
    57.809279948282));
#217 = CARTESIAN_POINT('',(-14.91697531096,-206.2927069523,
    69.187450221959));
#218 = CARTESIAN_POINT('',(-15.69932836773,-233.1513762124,
    76.111467625504));
#219 = CARTESIAN_POINT('',(-16.25380753252,-284.8395365046,
    81.757794715685));
#220 = CARTESIAN_POINT('',(-16.89505541634,-311.1284473112,
    86.12215734746));
#221 = CARTESIAN_POINT('',(-14.40163648162,-361.3922139333,
    72.788306260288));
#222 = CARTESIAN_POINT('',(-11.91997445346,-386.3955791299,
    58.858205198787));
#223 = CARTESIAN_POINT('',(-6.056189053559,-419.6319880782,
    24.578118008219));
#224 = CARTESIAN_POINT('',(-4.098436116465,-429.0535195093,
    13.064064864057));
#225 = CARTESIAN_POINT('',(-1.887330809587,-438.2358951511,
    -4.118212288517E-05));
#226 = CARTESIAN_POINT('',(-13.54279646513,-129.971300858,
    48.113571780714));
#227 = CARTESIAN_POINT('',(-13.50996713816,-133.3243787994,
    47.913227766579));
#228 = CARTESIAN_POINT('',(-13.50996669747,-136.6577121327,
    47.913226368256));
#229 = CARTESIAN_POINT('',(-13.67821994785,-153.6406396424,
    48.940021728705));
#230 = CARTESIAN_POINT('',(-15.03546372406,-166.5481758473,
    57.040911363979));
#231 = CARTESIAN_POINT('',(-16.78127864342,-206.2927069523,
    68.233404988156));
#232 = CARTESIAN_POINT('',(-17.60478835615,-233.1513762124,
    74.980272362168));
#233 = CARTESIAN_POINT('',(-18.1515975891,-284.8395365046,
    80.417072714249));
#234 = CARTESIAN_POINT('',(-18.78255679193,-311.1284473112,
    84.550338411249));
#235 = CARTESIAN_POINT('',(-16.0019596223,-361.3922139333,
    71.428441753256));
#236 = CARTESIAN_POINT('',(-13.3950788365,-386.5055584905,
    58.001458060922));
#237 = CARTESIAN_POINT('',(-6.834776068923,-419.5869215384,
    24.248937766166));
#238 = CARTESIAN_POINT('',(-4.634725864712,-428.9449193916,
    12.895734447709));
#239 = CARTESIAN_POINT('',(-2.141465120607,-438.0452944178,
    -4.118212288517E-05));
#240 = CARTESIAN_POINT('',(-14.73642496617,-129.971300858,
    47.563818335625));
#241 = CARTESIAN_POINT('',(-14.70096272775,-133.3243787994,
    47.365890701931));
#242 = CARTESIAN_POINT('',(-14.70096313324,-136.6577121327,
    47.365890467637));
#243 = CARTESIAN_POINT('',(-14.88271996094,-153.6406396424,
    48.380314085941));
#244 = CARTESIAN_POINT('',(-16.35624750239,-166.5481758473,
    56.395356194989));
#245 = CARTESIAN_POINT('',(-18.22016805013,-206.2927069523,
    67.417860429386));
#246 = CARTESIAN_POINT('',(-19.02087534037,-233.1513762124,
    73.94797097625));
#247 = CARTESIAN_POINT('',(-19.56202597132,-284.8395365046,
    79.227642366949));
#248 = CARTESIAN_POINT('',(-20.22967335388,-311.1284473112,
    83.254314795911));
#249 = CARTESIAN_POINT('',(-17.24921857085,-361.3922139333,
    70.339843612166));
#250 = CARTESIAN_POINT('',(-14.53903858859,-386.5923870582,
    57.285584623731));
#251 = CARTESIAN_POINT('',(-7.441071166787,-419.5513415615,
    23.970959307364));
#252 = CARTESIAN_POINT('',(-5.05369840034,-428.8591797346,
    12.752825002749));
#253 = CARTESIAN_POINT('',(-2.342103841255,-437.8948153774,
    -4.118212288517E-05));
#254 = CARTESIAN_POINT('',(-20.53789529704,-129.971300858,
    44.691684087509));
#255 = CARTESIAN_POINT('',(-20.49013401533,-133.3243787994,
    44.506573759495));
#256 = CARTESIAN_POINT('',(-20.49013141439,-136.6577121327,
    44.506569638258));
#257 = CARTESIAN_POINT('',(-20.73489085634,-153.6406396424,
    45.455258928941));
#258 = CARTESIAN_POINT('',(-22.77481285803,-166.5481758473,
    53.026245378882));
#259 = CARTESIAN_POINT('',(-25.12097391697,-206.2927069523,
    63.11257732685));
#260 = CARTESIAN_POINT('',(-25.44992792638,-233.1513762124,
    68.26492639837));
#261 = CARTESIAN_POINT('',(-25.97210640469,-284.8395365046,
    72.806793271371));
#262 = CARTESIAN_POINT('',(-27.12178876849,-311.1284473112,
    76.618651100684));
#263 = CARTESIAN_POINT('',(-23.32699516588,-361.3922139333,
    64.893198745685));
#264 = CARTESIAN_POINT('',(-20.06419136099,-387.0202759049,
    53.572116290236));
#265 = CARTESIAN_POINT('',(-10.38256792987,-419.3760043921,
    22.515985484115));
#266 = CARTESIAN_POINT('',(-7.093989800034,-428.4366570101,
    12.001728641933));
#267 = CARTESIAN_POINT('',(-3.330846062019,-437.1532587118,
    -4.118212288517E-05));
#268 = CARTESIAN_POINT('',(-29.27884398851,-129.971300858,39.08856914284
    ));
#269 = CARTESIAN_POINT('',(-29.21584769558,-133.3243787994,
    38.929812686237));
#270 = CARTESIAN_POINT('',(-29.21584694489,-136.6577121327,
    38.92981246949));
#271 = CARTESIAN_POINT('',(-29.5387096703,-153.6406396424,39.74347460124
    ));
#272 = CARTESIAN_POINT('',(-32.2953270323,-166.5481758473,
    46.318154913428));
#273 = CARTESIAN_POINT('',(-35.19475968657,-206.2927069523,
    54.727345443912));
#274 = CARTESIAN_POINT('',(-34.74589700182,-233.1513762124,
    58.108657377938));
#275 = CARTESIAN_POINT('',(-35.17196367209,-284.8395365046,
    61.576034561781));
#276 = CARTESIAN_POINT('',(-37.03159016321,-311.1284473112,
    64.929084906406));
#277 = CARTESIAN_POINT('',(-32.11013978166,-361.3922139333,
    55.19353297196));
#278 = CARTESIAN_POINT('',(-28.16096616925,-387.7023964631,
    46.474765420382));
#279 = CARTESIAN_POINT('',(-14.77772480169,-419.0964900072,
    19.655927592644));
#280 = CARTESIAN_POINT('',(-10.19082724792,-427.763090875,
    10.505504752367));
#281 = CARTESIAN_POINT('',(-4.907053062253,-435.9711034616,
    -4.118212288517E-05));
#282 = CARTESIAN_POINT('',(-40.23377617182,-129.971300858,
    28.018469719839));
#283 = CARTESIAN_POINT('',(-40.16698118369,-133.3243787994,
    27.91133333949));
#284 = CARTESIAN_POINT('',(-40.16698337877,-136.6577121327,
    27.911333919011));
#285 = CARTESIAN_POINT('',(-40.5093475219,-153.6406396424,
    28.460439641019));
#286 = CARTESIAN_POINT('',(-43.4874114118,-166.5481758473,
    32.937652964558));
#287 = CARTESIAN_POINT('',(-46.39847157102,-206.2927069523,
    38.493285327864));
#288 = CARTESIAN_POINT('',(-45.19282177635,-233.1513762124,
    40.259469704664));
#289 = CARTESIAN_POINT('',(-45.40797551249,-284.8395365046,
    42.392927963441));
#290 = CARTESIAN_POINT('',(-48.06703096349,-311.1284473112,
    44.776968555474));
#291 = CARTESIAN_POINT('',(-41.99364836538,-361.3922139333,
    38.222016537674));
#292 = CARTESIAN_POINT('',(-37.39423245766,-388.7255773004,
    32.909326084477));
#293 = CARTESIAN_POINT('',(-20.12001171185,-418.6772184297,
    14.014498183382));
#294 = CARTESIAN_POINT('',(-14.16342510741,-426.7527416725,
    7.512277654253));
#295 = CARTESIAN_POINT('',(-7.271363562604,-434.1978705863,
    -4.118212288517E-05));
#296 = CARTESIAN_POINT('',(-48.49870713502,-129.971300858,
    14.818148275735));
#297 = CARTESIAN_POINT('',(-48.4511519594,-133.3243787994,
    14.767408312833));
#298 = CARTESIAN_POINT('',(-48.45115149071,-136.6577121327,
    14.767407685908));
#299 = CARTESIAN_POINT('',(-48.69487791378,-153.6406396424,
    15.027455170927));
#300 = CARTESIAN_POINT('',(-50.8396309964,-166.5481758473,
    17.149074024978));
#301 = CARTESIAN_POINT('',(-52.83943908659,-206.2927069523,
    19.776586223838));
#302 = CARTESIAN_POINT('',(-51.65858984524,-233.1513762124,
    20.594218966071));
#303 = CARTESIAN_POINT('',(-51.70201875129,-284.8395365046,
    21.60451497988));
#304 = CARTESIAN_POINT('',(-54.82595557897,-311.1284473112,
    22.827714532335));
#305 = CARTESIAN_POINT('',(-48.14986181777,-361.3922139333,
    19.562860540551));
#306 = CARTESIAN_POINT('',(-43.09754656912,-389.7487581376,
    17.200846670058));
#307 = CARTESIAN_POINT('',(-23.91721869785,-418.2579468523,
    7.371101429605));
#308 = CARTESIAN_POINT('',(-17.29835341921,-425.7423924699,
    3.961673023873));
#309 = CARTESIAN_POINT('',(-9.635674062955,-432.4246377111,
    -4.118212288517E-05));
#310 = CARTESIAN_POINT('',(-51.94955148165,-129.971300858,5.025759507031
    ));
#311 = CARTESIAN_POINT('',(-51.93111607218,-133.3243787994,
    5.010208016391));
#312 = CARTESIAN_POINT('',(-51.93111166203,-136.6577121327,
    5.010209404864));
#313 = CARTESIAN_POINT('',(-52.02554926178,-153.6406396424,
    5.089929625948));
#314 = CARTESIAN_POINT('',(-52.86061661641,-166.5481758473,
    5.735487219532));
#315 = CARTESIAN_POINT('',(-53.62472004527,-206.2927069523,
    6.554907429604));
#316 = CARTESIAN_POINT('',(-53.11817181743,-233.1513762124,
    6.864814011475));
#317 = CARTESIAN_POINT('',(-53.11811395622,-284.8395365046,
    7.201553722596));
#318 = CARTESIAN_POINT('',(-56.30199284731,-311.1284473112,
    7.592965084992));
#319 = CARTESIAN_POINT('',(-49.59035639524,-361.3922139333,
    6.539115977703));
#320 = CARTESIAN_POINT('',(-44.27456394457,-390.4308786958,
    5.903167244541));
#321 = CARTESIAN_POINT('',(-25.28758693061,-417.9784324673,
    2.549027530523));
#322 = CARTESIAN_POINT('',(-18.75613181285,-425.0688263349,
    1.374362798983));
#323 = CARTESIAN_POINT('',(-11.21188106318,-431.2424824609,
    -4.118212288517E-05));
#324 = CARTESIAN_POINT('',(-53.11821750134,-129.971300858,
    -4.118271939468E-05));
#325 = CARTESIAN_POINT('',(-53.11821750134,-133.3243787994,
    -4.118271940006E-05));
#326 = CARTESIAN_POINT('',(-53.11821750134,-136.6577121327,
    -4.11827194045E-05));
#327 = CARTESIAN_POINT('',(-53.11821750134,-153.6406396424,
    -4.118271942246E-05));
#328 = CARTESIAN_POINT('',(-53.11821750135,-166.5481758473,
    -4.118271940302E-05));
#329 = CARTESIAN_POINT('',(-53.11821750135,-206.2927069523,
    -4.118271940464E-05));
#330 = CARTESIAN_POINT('',(-53.11821750134,-233.1513762124,
    -4.118271942594E-05));
#331 = CARTESIAN_POINT('',(-53.11821750134,-284.8395365046,
    -4.118271943417E-05));
#332 = CARTESIAN_POINT('',(-56.26762628428,-311.1284473112,
    -2.031621684142E-02));
#333 = CARTESIAN_POINT('',(-49.62827215864,-361.3922139333,
    2.242613282582E-02));
#334 = CARTESIAN_POINT('',(-44.17506934154,-390.7719389749,
    0.210272658913));
#335 = CARTESIAN_POINT('',(-25.666731228,-417.8386752748,0.114095189632)
  );
#336 = CARTESIAN_POINT('',(-19.31790207093,-424.7320432674,
    6.673123219957E-02));
#337 = CARTESIAN_POINT('',(-11.9999845633,-430.6514048358,
    -4.118212288518E-05));
#338 = DEFINITIONAL_REPRESENTATION('',(#339),#345);
#339 = B_SPLINE_CURVE_WITH_KNOTS('',3,(#340,#341,#342,#343,#344),
  .UNSPECIFIED.,.F.,.F.,(4,1,4),(0.,0.657505558028,1.),.UNSPECIFIED.);
#340 = CARTESIAN_POINT('',(0.496145149247,0.125053727138));
#341 = CARTESIAN_POINT('',(0.495785001056,0.125314110436));
#342 = CARTESIAN_POINT('',(0.495318224467,0.125715859458));
#343 = CARTESIAN_POINT('',(0.494977461356,0.126144388185));
#344 = CARTESIAN_POINT('',(0.494879437061,0.126291750351));
#345 = ( GEOMETRIC_REPRESENTATION_CONTEXT(2) 
PARAMETRIC_REPRESENTATION_CONTEXT() REPRESENTATION_CONTEXT('2D SPACE',''
  ) );
#346 = ORIENTED_EDGE('',*,*,#347,.F.);
#347 = EDGE_CURVE('',#22,#80,#348,.T.);
#348 = SURFACE_CURVE('',#349,(#457,#568),.PCURVE_S1.);
#349 = B_SPLINE_CURVE_WITH_KNOTS('',8,(#350,#351,#352,#353,#354,#355,
    #356,#357,#358,#359,#360,#361,#362,#363,#364,#365,#366,#367,#368,
    #369,#370,#371,#372,#373,#374,#375,#376,#377,#378,#379,#380,#381,
    #382,#383,#384,#385,#386,#387,#388,#389,#390,#391,#392,#393,#394,
    #395,#396,#397,#398,#399,#400,#401,#402,#403,#404,#405,#406,#407,
    #408,#409,#410,#411,#412,#413,#414,#415,#416,#417,#418,#419,#420,
    #421,#422,#423,#424,#425,#426,#427,#428,#429,#430,#431,#432,#433,
    #434,#435,#436,#437,#438,#439,#440,#441,#442,#443,#444,#445,#446,
    #447,#448,#449,#450,#451,#452,#453,#454,#455,#456),.UNSPECIFIED.,.F.
  ,.F.,(9,7,7,7,7,7,7,7,7,7,7,7,7,7,7,9),(0.,5.738067924706E-02,
    0.10912725724,0.177586435292,0.30396581213,0.372533471946,
    0.448374103356,0.485981177049,0.555578150879,0.60386458286,
    0.656736058833,0.718467962912,0.780328291687,0.892761247286,
    0.936134212646,1.),.UNSPECIFIED.);
#350 = CARTESIAN_POINT('',(-37.,-170.,40.482814737343));
#351 = CARTESIAN_POINT('',(-37.,-170.1861392486,40.558582363015));
#352 = CARTESIAN_POINT('',(-37.01319906805,-170.385262434,
    40.623965555068));
#353 = CARTESIAN_POINT('',(-37.04282058221,-170.5926059792,
    40.67317240905));
#354 = CARTESIAN_POINT('',(-37.09083072973,-170.803073453,
    40.701704058388));
#355 = CARTESIAN_POINT('',(-37.15757707382,-171.0113966486,
    40.706812055251));
#356 = CARTESIAN_POINT('',(-37.24161277202,-171.2120594488,
    40.687647208292));
#357 = CARTESIAN_POINT('',(-37.33911725628,-171.3997826032,
    40.646331652932));
#358 = CARTESIAN_POINT('',(-37.53734104262,-171.7226688484,
    40.537066920292));
#359 = CARTESIAN_POINT('',(-37.63764991944,-171.8625584215,
    40.471664670845));
#360 = CARTESIAN_POINT('',(-37.7421049016,-171.989350727,40.395233970286
    ));
#361 = CARTESIAN_POINT('',(-37.8489249876,-172.1037584706,40.31016539204
    ));
#362 = CARTESIAN_POINT('',(-37.95678431254,-172.2067486844,
    40.218452512275));
#363 = CARTESIAN_POINT('',(-38.06481841507,-172.2993993036,
    40.121603422628));
#364 = CARTESIAN_POINT('',(-38.17261075842,-172.3828325047,
    40.020601588322));
#365 = CARTESIAN_POINT('',(-38.42254137613,-172.5576947485,
    39.777216471977));
#366 = CARTESIAN_POINT('',(-38.56400336392,-172.6426372036,
    39.632515614386));
#367 = CARTESIAN_POINT('',(-38.70415481473,-172.7152056469,
    39.483212121805));
#368 = CARTESIAN_POINT('',(-38.84265222557,-172.7768308696,
    39.330355767138));
#369 = CARTESIAN_POINT('',(-38.97928031256,-172.8287243399,
    39.174757978362));
#370 = CARTESIAN_POINT('',(-39.11394407022,-172.8718333637,
    39.016973226602));
#371 = CARTESIAN_POINT('',(-39.24666724241,-172.9069572668,
    38.857340517685));
#372 = CARTESIAN_POINT('',(-39.61927043447,-172.9859811633,
    38.39807954428));
#373 = CARTESIAN_POINT('',(-39.85421223925,-173.012040103,
    38.095007310968));
#374 = CARTESIAN_POINT('',(-40.08269841717,-173.0169336074,
    37.788291095179));
#375 = CARTESIAN_POINT('',(-40.30471169539,-173.0027766103,
    37.479056629055));
#376 = CARTESIAN_POINT('',(-40.52027007098,-172.971210882,
    37.168203631066));
#377 = CARTESIAN_POINT('',(-40.72937789937,-172.9232188012,
    36.856379525301));
#378 = CARTESIAN_POINT('',(-40.93208025376,-172.8593919035,
    36.544019493733));
#379 = CARTESIAN_POINT('',(-41.23492381513,-172.7364537056,
    36.061677798828));
#380 = CARTESIAN_POINT('',(-41.33950743079,-172.6885646626,
    35.892019910313));
#381 = CARTESIAN_POINT('',(-41.44213917277,-172.6360420724,
    35.722430833911));
#382 = CARTESIAN_POINT('',(-41.54278375565,-172.5788613074,
    35.55299601002));
#383 = CARTESIAN_POINT('',(-41.64139005102,-172.5169609698,
    35.383811158074));
#384 = CARTESIAN_POINT('',(-41.73789001031,-172.4502383292,
    35.214983285676));
#385 = CARTESIAN_POINT('',(-41.83219504022,-172.3785372262,
    35.046632585845));
#386 = CARTESIAN_POINT('',(-42.02594250899,-172.2165619473,
    34.693365956979));
#387 = CARTESIAN_POINT('',(-42.12481755473,-172.1251668346,
    34.50868041981));
#388 = CARTESIAN_POINT('',(-42.22070944614,-172.0271061812,
    34.324938575994));
#389 = CARTESIAN_POINT('',(-42.31341492561,-171.9219497565,
    34.142354585557));
#390 = CARTESIAN_POINT('',(-42.40263824466,-171.8091771604,
    33.961256649583));
#391 = CARTESIAN_POINT('',(-42.4879552765,-171.6880907169,
    33.782114723504));
#392 = CARTESIAN_POINT('',(-42.56881474745,-171.557810227,
    33.605541366953));
#393 = CARTESIAN_POINT('',(-42.6818089396,-171.3469191012,
    33.346564790626));
#394 = CARTESIAN_POINT('',(-42.71793113052,-171.2743982258,
    33.261611695426));
#395 = CARTESIAN_POINT('',(-42.75263502311,-171.199101803,
    33.177634778286));
#396 = CARTESIAN_POINT('',(-42.78579086334,-171.1208325385,
    33.094775271484));
#397 = CARTESIAN_POINT('',(-42.81722289494,-171.039359361,
    33.013235182581));
#398 = CARTESIAN_POINT('',(-42.84670935939,-170.9544174225,
    32.93327729442));
#399 = CARTESIAN_POINT('',(-42.87398249588,-170.8657080982,
    32.855225165123));
#400 = CARTESIAN_POINT('',(-42.94452444387,-170.6011431789,
    32.639255236595));
#401 = CARTESIAN_POINT('',(-42.98294214646,-170.4102229547,
    32.502840232616));
#402 = CARTESIAN_POINT('',(-43.01052836377,-170.1985067936,
    32.375185616989));
#403 = CARTESIAN_POINT('',(-43.02154716188,-169.9663087247,
    32.265488447586));
#404 = CARTESIAN_POINT('',(-43.01055408997,-169.7167010019,
    32.183991441746));
#405 = CARTESIAN_POINT('',(-42.97169470925,-169.4555587327,
    32.142272933591));
#406 = CARTESIAN_POINT('',(-42.90120691404,-169.1929870693,
    32.149293209589));
#407 = CARTESIAN_POINT('',(-42.74605396215,-168.7785047133,
    32.227523998736));
#408 = CARTESIAN_POINT('',(-42.67345528398,-168.6202798209,
    32.277851027457));
#409 = CARTESIAN_POINT('',(-42.59423729722,-168.4747703874,
    32.342914817024));
#410 = CARTESIAN_POINT('',(-42.51060038792,-168.3417223229,
    32.419021245789));
#411 = CARTESIAN_POINT('',(-42.42424232299,-168.2203752742,
    32.503159853924));
#412 = CARTESIAN_POINT('',(-42.33628316781,-168.1096871706,
    32.593176001079));
#413 = CARTESIAN_POINT('',(-42.24725154181,-168.0083359028,
    32.687730736086));
#414 = CARTESIAN_POINT('',(-42.05816294101,-167.8127218629,
    32.894638906571));
#415 = CARTESIAN_POINT('',(-41.95829491346,-167.7204895671,
    33.007353935111));
#416 = CARTESIAN_POINT('',(-41.85773430997,-167.6368637278,
    33.123548527727));
#417 = CARTESIAN_POINT('',(-41.75675631771,-167.5609496043,
    33.24245672147));
#418 = CARTESIAN_POINT('',(-41.65556560091,-167.4920355295,
    33.363503942831));
#419 = CARTESIAN_POINT('',(-41.55429255753,-167.4295131416,
    33.48627414556));
#420 = CARTESIAN_POINT('',(-41.45298974817,-167.3728893126,
    33.610513213146));
#421 = CARTESIAN_POINT('',(-41.23328953517,-167.2620137064,
    33.882739325893));
#422 = CARTESIAN_POINT('',(-41.11499131954,-167.2098105301,
    34.031069921539));
#423 = CARTESIAN_POINT('',(-40.99681301439,-167.1644881618,
    34.180761610771));
#424 = CARTESIAN_POINT('',(-40.87883335257,-167.1255932084,
    34.331553459401));
#425 = CARTESIAN_POINT('',(-40.76112467581,-167.0927716067,
    34.48323640722));
#426 = CARTESIAN_POINT('',(-40.64374866799,-167.0657369459,
    34.63564574615));
#427 = CARTESIAN_POINT('',(-40.52675491306,-167.0442635404,
    34.788659036427));
#428 = CARTESIAN_POINT('',(-40.29336122876,-167.0120499289,
    35.096044782363));
#429 = CARTESIAN_POINT('',(-40.17698393183,-167.0013350476,
    35.250391900621));
#430 = CARTESIAN_POINT('',(-40.06109846783,-166.9958496312,
    35.405129092051));
#431 = CARTESIAN_POINT('',(-39.94576334326,-166.9954631095,
    35.560162317461));
#432 = CARTESIAN_POINT('',(-39.83104237955,-167.0000815106,
    35.715406505366));
#433 = CARTESIAN_POINT('',(-39.71700343396,-167.0096399866,
    35.870784571966));
#434 = CARTESIAN_POINT('',(-39.60371800495,-167.0240998942,
    36.026226924059));
#435 = CARTESIAN_POINT('',(-39.28686914142,-167.0786205919,
    36.464196404819));
#436 = CARTESIAN_POINT('',(-39.08531900506,-167.1299286504,
    36.746585566383));
#437 = CARTESIAN_POINT('',(-38.88697586902,-167.1972923903,
    37.028581741936));
#438 = CARTESIAN_POINT('',(-38.69239507768,-167.2809439593,
    37.30981587572));
#439 = CARTESIAN_POINT('',(-38.50229900314,-167.3813152669,
    37.589811614957));
#440 = CARTESIAN_POINT('',(-38.31762131666,-167.4991123745,
    37.867973274051));
#441 = CARTESIAN_POINT('',(-38.13950182607,-167.6352872077,
    38.143587301427));
#442 = CARTESIAN_POINT('',(-37.90394422379,-167.8518647427,
    38.520766516695));
#443 = CARTESIAN_POINT('',(-37.83959533028,-167.9151351424,
    38.625231014543));
#444 = CARTESIAN_POINT('',(-37.7765636353,-167.9814802455,38.72910719042
    ));
#445 = CARTESIAN_POINT('',(-37.71495869866,-168.0510054802,
    38.832324551933));
#446 = CARTESIAN_POINT('',(-37.65490783154,-168.1238268863,
    38.934796532611));
#447 = CARTESIAN_POINT('',(-37.59655821159,-168.2000745963,
    39.036419588882));
#448 = CARTESIAN_POINT('',(-37.54008092119,-168.2798998581,
    39.13707134017));
#449 = CARTESIAN_POINT('',(-37.40556813463,-168.4865638536,
    39.383173043756));
#450 = CARTESIAN_POINT('',(-37.33011646748,-168.617543104,
    39.527022445283));
#451 = CARTESIAN_POINT('',(-37.25976547364,-168.7572323152,
    39.668028258586));
#452 = CARTESIAN_POINT('',(-37.19528041071,-168.9063931092,
    39.805658084743));
#453 = CARTESIAN_POINT('',(-37.13782839293,-169.0658142116,
    39.93891674502));
#454 = CARTESIAN_POINT('',(-37.08890175451,-169.2362022099,
    40.066397552666));
#455 = CARTESIAN_POINT('',(-37.05038028886,-169.4182561609,
    40.18622938114));
#456 = CARTESIAN_POINT('',(-37.02502804192,-169.6132935885,
    40.295705974421));
#457 = PCURVE('',#32,#458);
#458 = DEFINITIONAL_REPRESENTATION('',(#459),#567);
#459 = B_SPLINE_CURVE_WITH_KNOTS('',8,(#460,#461,#462,#463,#464,#465,
    #466,#467,#468,#469,#470,#471,#472,#473,#474,#475,#476,#477,#478,
    #479,#480,#481,#482,#483,#484,#485,#486,#487,#488,#489,#490,#491,
    #492,#493,#494,#495,#496,#497,#498,#499,#500,#501,#502,#503,#504,
    #505,#506,#507,#508,#509,#510,#511,#512,#513,#514,#515,#516,#517,
    #518,#519,#520,#521,#522,#523,#524,#525,#526,#527,#528,#529,#530,
    #531,#532,#533,#534,#535,#536,#537,#538,#539,#540,#541,#542,#543,
    #544,#545,#546,#547,#548,#549,#550,#551,#552,#553,#554,#555,#556,
    #557,#558,#559,#560,#561,#562,#563,#564,#565,#566),.UNSPECIFIED.,.F.
  ,.F.,(9,7,7,7,7,7,7,7,7,7,7,7,7,7,7,9),(0.,5.738067924706E-02,
    0.10912725724,0.177586435292,0.30396581213,0.372533471946,
    0.448374103356,0.485981177049,0.555578150879,0.60386458286,
    0.656736058833,0.718467962912,0.780328291687,0.892761247286,
    0.936134212646,1.),.UNSPECIFIED.);
#460 = CARTESIAN_POINT('',(6.28318530718,40.482814737343));
#461 = CARTESIAN_POINT('',(6.221138890966,40.558582363015));
#462 = CARTESIAN_POINT('',(6.154764353038,40.623965555068));
#463 = CARTESIAN_POINT('',(6.08528671082,40.67317240905));
#464 = CARTESIAN_POINT('',(6.013823159009,40.701704058388));
#465 = CARTESIAN_POINT('',(5.941440526685,40.706812055251));
#466 = CARTESIAN_POINT('',(5.869336986786,40.687647208292));
#467 = CARTESIAN_POINT('',(5.799005462881,40.646331652932));
#468 = CARTESIAN_POINT('',(5.6727129467,40.537066920292));
#469 = CARTESIAN_POINT('',(5.61548081174,40.471664670845));
#470 = CARTESIAN_POINT('',(5.560918375367,40.395233970286));
#471 = CARTESIAN_POINT('',(5.508930298128,40.31016539204));
#472 = CARTESIAN_POINT('',(5.459367462073,40.218452512275));
#473 = CARTESIAN_POINT('',(5.412029083833,40.121603422628));
#474 = CARTESIAN_POINT('',(5.366645240522,40.020601588322));
#475 = CARTESIAN_POINT('',(5.264969220217,39.777216471977));
#476 = CARTESIAN_POINT('',(5.210101095086,39.632515614386));
#477 = CARTESIAN_POINT('',(5.157659922734,39.483212121805));
#478 = CARTESIAN_POINT('',(5.107298874957,39.330355767138));
#479 = CARTESIAN_POINT('',(5.058723551675,39.174757978362));
#480 = CARTESIAN_POINT('',(5.011696121759,39.016973226602));
#481 = CARTESIAN_POINT('',(4.965988571429,38.857340517685));
#482 = CARTESIAN_POINT('',(4.839024921798,38.39807954428));
#483 = CARTESIAN_POINT('',(4.760612621768,38.095007310968));
#484 = CARTESIAN_POINT('',(4.684919715143,37.788291095179));
#485 = CARTESIAN_POINT('',(4.611288331007,37.479056629055));
#486 = CARTESIAN_POINT('',(4.539140574228,37.168203631066));
#487 = CARTESIAN_POINT('',(4.468004161026,36.856379525301));
#488 = CARTESIAN_POINT('',(4.397395739534,36.544019493733));
#489 = CARTESIAN_POINT('',(4.288447217964,36.061677798828));
#490 = CARTESIAN_POINT('',(4.250141744338,35.892019910313));
#491 = CARTESIAN_POINT('',(4.21177262187,35.722430833911));
#492 = CARTESIAN_POINT('',(4.173261785203,35.55299601002));
#493 = CARTESIAN_POINT('',(4.134529007847,35.383811158074));
#494 = CARTESIAN_POINT('',(4.095488058646,35.214983285676));
#495 = CARTESIAN_POINT('',(4.056041156032,35.046632585845));
#496 = CARTESIAN_POINT('',(3.971862726075,34.693365956979));
#497 = CARTESIAN_POINT('',(3.927036558816,34.50868041981));
#498 = CARTESIAN_POINT('',(3.881416799879,34.324938575994));
#499 = CARTESIAN_POINT('',(3.834815259554,34.142354585557));
#500 = CARTESIAN_POINT('',(3.787025232219,33.961256649583));
#501 = CARTESIAN_POINT('',(3.737786193666,33.782114723504));
#502 = CARTESIAN_POINT('',(3.686778224268,33.605541366953));
#503 = CARTESIAN_POINT('',(3.607026697346,33.346564790626));
#504 = CARTESIAN_POINT('',(3.580028839513,33.261611695426));
#505 = CARTESIAN_POINT('',(3.552413640033,33.177634778286));
#506 = CARTESIAN_POINT('',(3.524111220231,33.094775271484));
#507 = CARTESIAN_POINT('',(3.495038346855,33.013235182581));
#508 = CARTESIAN_POINT('',(3.465098432077,32.93327729442));
#509 = CARTESIAN_POINT('',(3.434181533494,32.855225165123));
#510 = CARTESIAN_POINT('',(3.34291223542,32.639255236595));
#511 = CARTESIAN_POINT('',(3.278110858858,32.502840232616));
#512 = CARTESIAN_POINT('',(3.207277078888,32.375185616989));
#513 = CARTESIAN_POINT('',(3.130277942353,32.265488447586));
#514 = CARTESIAN_POINT('',(3.047804466614,32.183991441746));
#515 = CARTESIAN_POINT('',(2.960706359497,32.142272933591));
#516 = CARTESIAN_POINT('',(2.870505999328,32.149293209589));
#517 = CARTESIAN_POINT('',(2.722982719841,32.227523998736));
#518 = CARTESIAN_POINT('',(2.665104910348,32.277851027457));
#519 = CARTESIAN_POINT('',(2.610085128563,32.342914817024));
#520 = CARTESIAN_POINT('',(2.55789051043,32.419021245789));
#521 = CARTESIAN_POINT('',(2.508388638066,32.503159853924));
#522 = CARTESIAN_POINT('',(2.461360959405,32.593176001079));
#523 = CARTESIAN_POINT('',(2.416444067956,32.687730736086));
#524 = CARTESIAN_POINT('',(2.325755742393,32.894638906571));
#525 = CARTESIAN_POINT('',(2.280514202872,33.007353935111));
#526 = CARTESIAN_POINT('',(2.237013148501,33.123548527727));
#527 = CARTESIAN_POINT('',(2.194999697889,33.24245672147));
#528 = CARTESIAN_POINT('',(2.154275494784,33.363503942831));
#529 = CARTESIAN_POINT('',(2.114665401961,33.48627414556));
#530 = CARTESIAN_POINT('',(2.07601551487,33.610513213146));
#531 = CARTESIAN_POINT('',(1.993984637468,33.882739325893));
#532 = CARTESIAN_POINT('',(1.950940929627,34.031069921539));
#533 = CARTESIAN_POINT('',(1.908834933473,34.180761610771));
#534 = CARTESIAN_POINT('',(1.867518652884,34.331553459401));
#535 = CARTESIAN_POINT('',(1.826871729069,34.48323640722));
#536 = CARTESIAN_POINT('',(1.786789620706,34.63564574615));
#537 = CARTESIAN_POINT('',(1.747179304716,34.788659036427));
#538 = CARTESIAN_POINT('',(1.668643871357,35.096044782363));
#539 = CARTESIAN_POINT('',(1.629727379588,35.250391900621));
#540 = CARTESIAN_POINT('',(1.591119184749,35.405129092051));
#541 = CARTESIAN_POINT('',(1.552747601929,35.560162317461));
#542 = CARTESIAN_POINT('',(1.514548543124,35.715406505366));
#543 = CARTESIAN_POINT('',(1.476462042207,35.870784571966));
#544 = CARTESIAN_POINT('',(1.438429754122,36.026226924059));
#545 = CARTESIAN_POINT('',(1.331261294424,36.464196404819));
#546 = CARTESIAN_POINT('',(1.262150613194,36.746585566383));
#547 = CARTESIAN_POINT('',(1.192683004044,37.028581741936));
#548 = CARTESIAN_POINT('',(1.122523075702,37.30981587572));
#549 = CARTESIAN_POINT('',(1.051338976479,37.589811614957));
#550 = CARTESIAN_POINT('',(0.978752150347,37.867973274051));
#551 = CARTESIAN_POINT('',(0.904322724908,38.143587301427));
#552 = CARTESIAN_POINT('',(0.797659593371,38.520766516695));
#553 = CARTESIAN_POINT('',(0.76759522125,38.625231014543));
#554 = CARTESIAN_POINT('',(0.737120572553,38.72910719042));
#555 = CARTESIAN_POINT('',(0.706194496896,38.832324551933));
#556 = CARTESIAN_POINT('',(0.674772618059,38.934796532611));
#557 = CARTESIAN_POINT('',(0.642805428003,39.036419588882));
#558 = CARTESIAN_POINT('',(0.610235140929,39.13707134017));
#559 = CARTESIAN_POINT('',(0.528040455525,39.383173043756));
#560 = CARTESIAN_POINT('',(0.477729672982,39.527022445283));
#561 = CARTESIAN_POINT('',(0.425731675137,39.668028258586));
#562 = CARTESIAN_POINT('',(0.371760430685,39.805658084743));
#563 = CARTESIAN_POINT('',(0.315507000543,39.93891674502));
#564 = CARTESIAN_POINT('',(0.256655183072,40.066397552666));
#565 = CARTESIAN_POINT('',(0.194821217927,40.18622938114));
#566 = CARTESIAN_POINT('',(0.129261800788,40.295705974421));
#567 = ( GEOMETRIC_REPRESENTATION_CONTEXT(2) 
PARAMETRIC_REPRESENTATION_CONTEXT() REPRESENTATION_CONTEXT('2D SPACE',''
  ) );
#568 = PCURVE('',#99,#569);
#569 = DEFINITIONAL_REPRESENTATION('',(#570),#678);
#570 = B_SPLINE_CURVE_WITH_KNOTS('',8,(#571,#572,#573,#574,#575,#576,
    #577,#578,#579,#580,#581,#582,#583,#584,#585,#586,#587,#588,#589,
    #590,#591,#592,#593,#594,#595,#596,#597,#598,#599,#600,#601,#602,
    #603,#604,#605,#606,#607,#608,#609,#610,#611,#612,#613,#614,#615,
    #616,#617,#618,#619,#620,#621,#622,#623,#624,#625,#626,#627,#628,
    #629,#630,#631,#632,#633,#634,#635,#636,#637,#638,#639,#640,#641,
    #642,#643,#644,#645,#646,#647,#648,#649,#650,#651,#652,#653,#654,
    #655,#656,#657,#658,#659,#660,#661,#662,#663,#664,#665,#666,#667,
    #668,#669,#670,#671,#672,#673,#674,#675,#676,#677),.UNSPECIFIED.,.F.
  ,.F.,(9,7,7,7,7,7,7,7,7,7,7,7,7,7,7,9),(0.,5.738067924706E-02,
    0.10912725724,0.177586435292,0.30396581213,0.372533471946,
    0.448374103356,0.485981177049,0.555578150879,0.60386458286,
    0.656736058833,0.718467962912,0.780328291687,0.892761247286,
    0.936134212646,1.),.UNSPECIFIED.);
#571 = CARTESIAN_POINT('',(0.494879437061,0.126291750351));
#572 = CARTESIAN_POINT('',(0.494483093695,0.126887582406));
#573 = CARTESIAN_POINT('',(0.494291975188,0.127524881252));
#574 = CARTESIAN_POINT('',(0.494372474811,0.128188371677));
#575 = CARTESIAN_POINT('',(0.494769579729,0.128861722387));
#576 = CARTESIAN_POINT('',(0.495500740934,0.129528067585));
#577 = CARTESIAN_POINT('',(0.496553794669,0.130169771479));
#578 = CARTESIAN_POINT('',(0.497874865855,0.130769977973));
#579 = CARTESIAN_POINT('',(0.500692848719,0.13180217111));
#580 = CARTESIAN_POINT('',(0.502171778334,0.13224928566));
#581 = CARTESIAN_POINT('',(0.503755816081,0.132654473195));
#582 = CARTESIAN_POINT('',(0.505412724246,0.133020032362));
#583 = CARTESIAN_POINT('',(0.507117409205,0.133349070146));
#584 = CARTESIAN_POINT('',(0.508852432754,0.133645043444));
#585 = CARTESIAN_POINT('',(0.510608115711,0.133911547201));
#586 = CARTESIAN_POINT('',(0.514731402453,0.134470049922));
#587 = CARTESIAN_POINT('',(0.517104836501,0.134741314814));
#588 = CARTESIAN_POINT('',(0.519491129515,0.134973038709));
#589 = CARTESIAN_POINT('',(0.521881159012,0.135169802336));
#590 = CARTESIAN_POINT('',(0.524268410302,0.135335482592));
#591 = CARTESIAN_POINT('',(0.526649021019,0.135473109734));
#592 = CARTESIAN_POINT('',(0.529021590765,0.135585239821));
#593 = CARTESIAN_POINT('',(0.535754291775,0.135837509953));
#594 = CARTESIAN_POINT('',(0.540086958435,0.135920688076));
#595 = CARTESIAN_POINT('',(0.544381009777,0.135936306672));
#596 = CARTESIAN_POINT('',(0.5486306386,0.135891118823));
#597 = CARTESIAN_POINT('',(0.552831423608,0.135790361809));
#598 = CARTESIAN_POINT('',(0.556979998525,0.135637162409));
#599 = CARTESIAN_POINT('',(0.561074553478,0.135433396681));
#600 = CARTESIAN_POINT('',(0.567306228165,0.135040871352));
#601 = CARTESIAN_POINT('',(0.569480783559,0.134887960619));
#602 = CARTESIAN_POINT('',(0.571637439355,0.134720245481));
#603 = CARTESIAN_POINT('',(0.573775309042,0.134537644201));
#604 = CARTESIAN_POINT('',(0.57589325576,0.134339957261));
#605 = CARTESIAN_POINT('',(0.577989872371,0.13412685272));
#606 = CARTESIAN_POINT('',(0.580063427427,0.133897827452));
#607 = CARTESIAN_POINT('',(0.584377395109,0.133380401438));
#608 = CARTESIAN_POINT('',(0.586611035698,0.133088414941));
#609 = CARTESIAN_POINT('',(0.588810865679,0.132775101782));
#610 = CARTESIAN_POINT('',(0.590973252847,0.132439079749));
#611 = CARTESIAN_POINT('',(0.593092801574,0.132078677272));
#612 = CARTESIAN_POINT('',(0.595161751559,0.13169165424));
#613 = CARTESIAN_POINT('',(0.597169962259,0.131275185144));
#614 = CARTESIAN_POINT('',(0.600060087743,0.130600919106));
#615 = CARTESIAN_POINT('',(0.600998820988,0.130369037159));
#616 = CARTESIAN_POINT('',(0.601916771646,0.130128262906));
#617 = CARTESIAN_POINT('',(0.602811567294,0.129877963348));
#618 = CARTESIAN_POINT('',(0.603679923734,0.12961739704));
#619 = CARTESIAN_POINT('',(0.604517644989,0.129345714091));
#620 = CARTESIAN_POINT('',(0.605319623311,0.129061956163));
#621 = CARTESIAN_POINT('',(0.607486721393,0.128215603464));
#622 = CARTESIAN_POINT('',(0.608790703233,0.127604752065));
#623 = CARTESIAN_POINT('',(0.60992130345,0.12692725041));
#624 = CARTESIAN_POINT('',(0.610755390528,0.126184063161));
#625 = CARTESIAN_POINT('',(0.611164438763,0.125384979592));
#626 = CARTESIAN_POINT('',(0.61100595793,0.124548776594));
#627 = CARTESIAN_POINT('',(0.610178901664,0.123707815099));
#628 = CARTESIAN_POINT('',(0.607949788738,0.122380101149));
#629 = CARTESIAN_POINT('',(0.606817416762,0.121873192857));
#630 = CARTESIAN_POINT('',(0.605515904215,0.121406969214));
#631 = CARTESIAN_POINT('',(0.604094082799,0.120980633746));
#632 = CARTESIAN_POINT('',(0.602590700498,0.120591763302));
#633 = CARTESIAN_POINT('',(0.601032407702,0.120237027802));
#634 = CARTESIAN_POINT('',(0.599433930767,0.119912197373));
#635 = CARTESIAN_POINT('',(0.59600228655,0.119285224603));
#636 = CARTESIAN_POINT('',(0.594169120256,0.118989587128));
#637 = CARTESIAN_POINT('',(0.592307516413,0.118721522822));
#638 = CARTESIAN_POINT('',(0.590425652151,0.118478168247));
#639 = CARTESIAN_POINT('',(0.588529637376,0.118257245484));
#640 = CARTESIAN_POINT('',(0.586623702816,0.118056806933));
#641 = CARTESIAN_POINT('',(0.584710156505,0.117875273645));
#642 = CARTESIAN_POINT('',(0.580547146606,0.117519803839));
#643 = CARTESIAN_POINT('',(0.578297381079,0.117352433712));
#644 = CARTESIAN_POINT('',(0.576043384887,0.117207120657));
#645 = CARTESIAN_POINT('',(0.57378780701,0.117082412761));
#646 = CARTESIAN_POINT('',(0.571532871643,0.116977176072));
#647 = CARTESIAN_POINT('',(0.56928038617,0.116890493199));
#648 = CARTESIAN_POINT('',(0.567031745111,0.116821641156));
#649 = CARTESIAN_POINT('',(0.562539477038,0.11671835131));
#650 = CARTESIAN_POINT('',(0.560296272214,0.116683994706));
#651 = CARTESIAN_POINT('',(0.558059619265,0.116666405944));
#652 = CARTESIAN_POINT('',(0.555830813694,0.116665166567));
#653 = CARTESIAN_POINT('',(0.553611144529,0.116679975284));
#654 = CARTESIAN_POINT('',(0.551401887802,0.116710624025));
#655 = CARTESIAN_POINT('',(0.549204306778,0.116756988586));
#656 = CARTESIAN_POINT('',(0.543048997662,0.116931802925));
#657 = CARTESIAN_POINT('',(0.53912306937,0.117096314546));
#658 = CARTESIAN_POINT('',(0.535247711308,0.117312302264));
#659 = CARTESIAN_POINT('',(0.531431508865,0.117580505648));
#660 = CARTESIAN_POINT('',(0.52768546577,0.117902302751));
#661 = CARTESIAN_POINT('',(0.524023528976,0.118279947305));
#662 = CARTESIAN_POINT('',(0.520462478692,0.118716477488));
#663 = CARTESIAN_POINT('',(0.515698656237,0.119410683159));
#664 = CARTESIAN_POINT('',(0.514391163298,0.11961348022));
#665 = CARTESIAN_POINT('',(0.513103646713,0.119826125149));
#666 = CARTESIAN_POINT('',(0.511837715027,0.120048954454));
#667 = CARTESIAN_POINT('',(0.510595259871,0.120282338438));
#668 = CARTESIAN_POINT('',(0.509378482553,0.120526692306));
#669 = CARTESIAN_POINT('',(0.508189947541,0.120782498592));
#670 = CARTESIAN_POINT('',(0.505328585216,0.121444733129));
#671 = CARTESIAN_POINT('',(0.503695715387,0.121864412859));
#672 = CARTESIAN_POINT('',(0.502139581229,0.122311964305));
#673 = CARTESIAN_POINT('',(0.500671547069,0.122789817975));
#674 = CARTESIAN_POINT('',(0.499309938088,0.123300487763));
#675 = CARTESIAN_POINT('',(0.498078818183,0.123846221096));
#676 = CARTESIAN_POINT('',(0.497008910428,0.124429237021));
#677 = CARTESIAN_POINT('',(0.496145149247,0.125053727138));
#678 = ( GEOMETRIC_REPRESENTATION_CONTEXT(2) 
PARAMETRIC_REPRESENTATION_CONTEXT() REPRESENTATION_CONTEXT('2D SPACE',''
  ) );
#679 = ADVANCED_FACE('',(#680,#684),#99,.F.);
#680 = FACE_BOUND('',#681,.F.);
#681 = EDGE_LOOP('',(#682,#683));
#682 = ORIENTED_EDGE('',*,*,#79,.F.);
#683 = ORIENTED_EDGE('',*,*,#347,.F.);
#684 = FACE_BOUND('',#685,.F.);
#685 = EDGE_LOOP('',(#686,#1133));
#686 = ORIENTED_EDGE('',*,*,#687,.T.);
#687 = EDGE_CURVE('',#688,#690,#692,.T.);
#688 = VERTEX_POINT('',#689);
#689 = CARTESIAN_POINT('',(-38.9,-170.,38.164146376901));
#690 = VERTEX_POINT('',#691);
#691 = CARTESIAN_POINT('',(-39.2993745671,-169.1519882059,
    37.304371023067));
#692 = SURFACE_CURVE('',#693,(#836,#982),.PCURVE_S1.);
#693 = B_SPLINE_CURVE_WITH_KNOTS('',8,(#694,#695,#696,#697,#698,#699,
    #700,#701,#702,#703,#704,#705,#706,#707,#708,#709,#710,#711,#712,
    #713,#714,#715,#716,#717,#718,#719,#720,#721,#722,#723,#724,#725,
    #726,#727,#728,#729,#730,#731,#732,#733,#734,#735,#736,#737,#738,
    #739,#740,#741,#742,#743,#744,#745,#746,#747,#748,#749,#750,#751,
    #752,#753,#754,#755,#756,#757,#758,#759,#760,#761,#762,#763,#764,
    #765,#766,#767,#768,#769,#770,#771,#772,#773,#774,#775,#776,#777,
    #778,#779,#780,#781,#782,#783,#784,#785,#786,#787,#788,#789,#790,
    #791,#792,#793,#794,#795,#796,#797,#798,#799,#800,#801,#802,#803,
    #804,#805,#806,#807,#808,#809,#810,#811,#812,#813,#814,#815,#816,
    #817,#818,#819,#820,#821,#822,#823,#824,#825,#826,#827,#828,#829,
    #830,#831,#832,#833,#834,#835),.UNSPECIFIED.,.F.,.F.,(9,7,7,7,7,7,7,
    7,7,7,7,7,7,7,7,7,7,7,7,7,9),(0.,1.485655303893E-02,
    4.101231776949E-02,6.668165261861E-02,7.983118618713E-02,
    0.106905506939,0.147455927805,0.186746898167,0.335598546476,
    0.411545076712,0.492671028181,0.530326425744,0.572173523912,
    0.588488432841,0.616453473089,0.64006910223,0.676297123365,
    0.714180222413,0.808221993555,0.901288272769,1.),.UNSPECIFIED.);
#694 = CARTESIAN_POINT('',(-38.9,-170.,38.164146376901));
#695 = CARTESIAN_POINT('',(-38.9,-170.0144910522,38.170005013954));
#696 = CARTESIAN_POINT('',(-38.9002181754,-170.0290873936,
    38.175625940784));
#697 = CARTESIAN_POINT('',(-38.90066006379,-170.0437834541,
    38.180999765686));
#698 = CARTESIAN_POINT('',(-38.90133105031,-170.0585728206,
    38.186116934841));
#699 = CARTESIAN_POINT('',(-38.90223625198,-170.073448203,
    38.190967865822));
#700 = CARTESIAN_POINT('',(-38.90338040187,-170.0884013993,
    38.195543081087));
#701 = CARTESIAN_POINT('',(-38.90476773342,-170.1034232622,
    38.199833341479));
#702 = CARTESIAN_POINT('',(-38.9092788411,-170.1450535272,38.21086572529
    ));
#703 = CARTESIAN_POINT('',(-38.91292121709,-170.1717886292,
    38.216991926094));
#704 = CARTESIAN_POINT('',(-38.91734842416,-170.1986488768,
    38.222158469552));
#705 = CARTESIAN_POINT('',(-38.92257363371,-170.2255686734,
    38.226321007341));
#706 = CARTESIAN_POINT('',(-38.92860222141,-170.252477345,
    38.229442941583));
#707 = CARTESIAN_POINT('',(-38.93543023151,-170.2792995666,
    38.231497611025));
#708 = CARTESIAN_POINT('',(-38.94304284119,-170.3059557874,
    38.232470477221));
#709 = CARTESIAN_POINT('',(-38.95962714845,-170.358278428,
    38.232254174423));
#710 = CARTESIAN_POINT('',(-38.96857317494,-170.3839611239,
    38.231104870144));
#711 = CARTESIAN_POINT('',(-38.97822584739,-170.409332357,
    38.228912488115));
#712 = CARTESIAN_POINT('',(-38.98855267103,-170.4343228636,
    38.225689316712));
#713 = CARTESIAN_POINT('',(-38.99951504054,-170.4588720871,
    38.221459029731));
#714 = CARTESIAN_POINT('',(-39.01106956731,-170.4829277597,
    38.216254873663));
#715 = CARTESIAN_POINT('',(-39.02316940668,-170.506445485,
    38.210117854967));
#716 = CARTESIAN_POINT('',(-39.04221818219,-170.5411411597,
    38.19949731864));
#717 = CARTESIAN_POINT('',(-39.04880161009,-170.5527440807,
    38.195666858842));
#718 = CARTESIAN_POINT('',(-39.05550956856,-170.5641928123,
    38.191609771721));
#719 = CARTESIAN_POINT('',(-39.06233587401,-170.575483702,
    38.187332391657));
#720 = CARTESIAN_POINT('',(-39.06927445963,-170.5866137152,
    38.18284116364));
#721 = CARTESIAN_POINT('',(-39.0763193754,-170.5975804355,38.17814264327
    ));
#722 = CARTESIAN_POINT('',(-39.08346478805,-170.6083820645,
    38.173243496757));
#723 = CARTESIAN_POINT('',(-39.10561222544,-170.6409151626,
    38.157664242822));
#724 = CARTESIAN_POINT('',(-39.12092067856,-170.6621065438,
    38.146356375327));
#725 = CARTESIAN_POINT('',(-39.13658225339,-170.6825826605,
    38.13428426649));
#726 = CARTESIAN_POINT('',(-39.15255220328,-170.7023421813,
    38.121504258832));
#727 = CARTESIAN_POINT('',(-39.16878958845,-170.721390115,
    38.108070538588));
#728 = CARTESIAN_POINT('',(-39.18525774242,-170.7397365771,
    38.094034004955));
#729 = CARTESIAN_POINT('',(-39.20192473849,-170.7573955566,
    38.079441139344));
#730 = CARTESIAN_POINT('',(-39.24398455574,-170.799827558,
    38.041704550968));
#731 = CARTESIAN_POINT('',(-39.26958547973,-170.8237608811,
    38.017925448063));
#732 = CARTESIAN_POINT('',(-39.29547942262,-170.846244513,
    37.993131745141));
#733 = CARTESIAN_POINT('',(-39.32159208868,-170.8673404761,
    37.967444036192));
#734 = CARTESIAN_POINT('',(-39.34786170596,-170.887111079,
    37.940967311173));
#735 = CARTESIAN_POINT('',(-39.37423864021,-170.9056180408,
    37.913790937211));
#736 = CARTESIAN_POINT('',(-39.40068500885,-170.9229216152,
    37.885988639806));
#737 = CARTESIAN_POINT('',(-39.45284085356,-170.9547359628,
    37.83012947343));
#738 = CARTESIAN_POINT('',(-39.47854282192,-170.9693138736,
    37.802112585598));
#739 = CARTESIAN_POINT('',(-39.50425315447,-170.9828646759,
    37.773623934509));
#740 = CARTESIAN_POINT('',(-39.52994870643,-170.9954348873,
    37.744712840625));
#741 = CARTESIAN_POINT('',(-39.55561004192,-171.0070668426,
    37.715422245647));
#742 = CARTESIAN_POINT('',(-39.58122124196,-171.0177992221,
    37.68578912725));
#743 = CARTESIAN_POINT('',(-39.60676971262,-171.0276675798,
    37.655844913826));
#744 = CARTESIAN_POINT('',(-39.72876145931,-171.070942146,
    37.511094964528));
#745 = CARTESIAN_POINT('',(-39.82411080084,-171.0932050877,
    37.392640576326));
#746 = CARTESIAN_POINT('',(-39.91793128557,-171.1053759564,
    37.271520377416));
#747 = CARTESIAN_POINT('',(-40.00991677486,-171.1084209596,
    37.148568862519));
#748 = CARTESIAN_POINT('',(-40.09983641152,-171.1031232363,
    37.02445577599));
#749 = CARTESIAN_POINT('',(-40.18751916034,-171.0899552654,
    36.899650369106));
#750 = CARTESIAN_POINT('',(-40.27284253819,-171.0692159754,
    36.774488995577));
#751 = CARTESIAN_POINT('',(-40.39796565332,-171.026459409,
    36.585240724967));
#752 = CARTESIAN_POINT('',(-40.43956587753,-171.0100528782,
    36.521307931272));
#753 = CARTESIAN_POINT('',(-40.48046760609,-170.9916943381,
    36.457426164967));
#754 = CARTESIAN_POINT('',(-40.52063757477,-170.9713798734,
    36.393647000899));
#755 = CARTESIAN_POINT('',(-40.56003608752,-170.9490934285,
    36.33002650799));
#756 = CARTESIAN_POINT('',(-40.59861624452,-170.9248061033,
    36.26662618661));
#757 = CARTESIAN_POINT('',(-40.63632229514,-170.8984734661,
    36.203514339502));
#758 = CARTESIAN_POINT('',(-40.71235923392,-170.8396485612,
    36.073742213353));
#759 = CARTESIAN_POINT('',(-40.75054312726,-170.8068690868,
    36.007157527621));
#760 = CARTESIAN_POINT('',(-40.78757074232,-170.7716091884,
    35.941086673504));
#761 = CARTESIAN_POINT('',(-40.82333989299,-170.7337623588,
    35.875641784235));
#762 = CARTESIAN_POINT('',(-40.85771767055,-170.6932051353,
    35.810972621385));
#763 = CARTESIAN_POINT('',(-40.89053567018,-170.6497912508,
    35.747271515576));
#764 = CARTESIAN_POINT('',(-40.92157703419,-170.6033336517,
    35.684784898338));
#765 = CARTESIAN_POINT('',(-40.96400586087,-170.5304781372,
    35.595539279064));
#766 = CARTESIAN_POINT('',(-40.97700911326,-170.5066753481,
    35.567583347035));
#767 = CARTESIAN_POINT('',(-40.98953612983,-170.4821407073,
    35.539996104192));
#768 = CARTESIAN_POINT('',(-41.00155298346,-170.4568490814,
    35.512817274674));
#769 = CARTESIAN_POINT('',(-41.01302023969,-170.4307751457,
    35.486094419855));
#770 = CARTESIAN_POINT('',(-41.02389243714,-170.4038930169,
    35.459883526593));
#771 = CARTESIAN_POINT('',(-41.03411756785,-170.3761758856,
    35.434249595496));
#772 = CARTESIAN_POINT('',(-41.05421517674,-170.3158339354,
    35.381503891026));
#773 = CARTESIAN_POINT('',(-41.06391773393,-170.2830178863,
    35.354555530967));
#774 = CARTESIAN_POINT('',(-41.07266663912,-170.2491011944,
    35.328516474714));
#775 = CARTESIAN_POINT('',(-41.08036618316,-170.2140511471,
    35.30351229416));
#776 = CARTESIAN_POINT('',(-41.08690370307,-170.1778509916,
    35.279699107314));
#777 = CARTESIAN_POINT('',(-41.09215200923,-170.1405033282,
    35.257261331503));
#778 = CARTESIAN_POINT('',(-41.09597307446,-170.1020345314,
    35.236407889846));
#779 = CARTESIAN_POINT('',(-41.09910015682,-170.0470869666,
    35.209943357733));
#780 = CARTESIAN_POINT('',(-41.09973837469,-170.0315142247,
    35.202796511717));
#781 = CARTESIAN_POINT('',(-41.10012920661,-170.0157866405,
    35.195940262291));
#782 = CARTESIAN_POINT('',(-41.10026414289,-169.9999102184,
    35.189389163197));
#783 = CARTESIAN_POINT('',(-41.10013479415,-169.9838923988,
    35.183158145882));
#784 = CARTESIAN_POINT('',(-41.09973308928,-169.9677421566,
    35.177262272812));
#785 = CARTESIAN_POINT('',(-41.09905147335,-169.9514701008,
    35.171716490777));
#786 = CARTESIAN_POINT('',(-41.09642324668,-169.907009342,
    35.157654559043));
#787 = CARTESIAN_POINT('',(-41.09392035814,-169.8786003251,
    35.14984265417));
#788 = CARTESIAN_POINT('',(-41.09054009545,-169.8499333703,
    35.143176903625));
#789 = CARTESIAN_POINT('',(-41.08625554213,-169.8210902269,35.1377275042
    ));
#790 = CARTESIAN_POINT('',(-41.08105011643,-169.7921621095,
    35.13355334539));
#791 = CARTESIAN_POINT('',(-41.07492047816,-169.763249262,
    35.130697739351));
#792 = CARTESIAN_POINT('',(-41.06787943542,-169.7344605212,
    35.129184150851));
#793 = CARTESIAN_POINT('',(-41.05327015824,-169.6818052647,
    35.128866489599));
#794 = CARTESIAN_POINT('',(-41.04595239981,-169.6578628084,
    35.129677533495));
#795 = CARTESIAN_POINT('',(-41.03802400004,-169.6341547441,
    35.131445294606));
#796 = CARTESIAN_POINT('',(-41.02950972597,-169.6107426582,
    35.134157836935));
#797 = CARTESIAN_POINT('',(-41.02043958892,-169.5876808274,
    35.137792809478));
#798 = CARTESIAN_POINT('',(-41.01084774564,-169.565016554,
    35.142319202891));
#799 = CARTESIAN_POINT('',(-41.00077139938,-169.542790501,
    35.147699106157));
#800 = CARTESIAN_POINT('',(-40.97410868244,-169.4876656814,
    35.163385902544));
#801 = CARTESIAN_POINT('',(-40.95691988158,-169.4554071436,
    35.174789481273));
#802 = CARTESIAN_POINT('',(-40.93881417784,-169.424362428,
    35.187950326547));
#803 = CARTESIAN_POINT('',(-40.91992132374,-169.3945861525,
    35.202702230769));
#804 = CARTESIAN_POINT('',(-40.9003622725,-169.3660980833,
    35.218878348785));
#805 = CARTESIAN_POINT('',(-40.88024365867,-169.338892249,
    35.236322690421));
#806 = CARTESIAN_POINT('',(-40.85965443183,-169.3129436242,
    35.254897408432));
#807 = CARTESIAN_POINT('',(-40.81671593619,-169.2623512886,
    35.294969255108));
#808 = CARTESIAN_POINT('',(-40.79433391287,-169.2378269211,
    35.316556787491));
#809 = CARTESIAN_POINT('',(-40.77159675366,-169.2145907366,
    35.339116659327));
#810 = CARTESIAN_POINT('',(-40.74857172652,-169.1925924191,
    35.362532446777));
#811 = CARTESIAN_POINT('',(-40.72531534393,-169.171780603,
    35.386703034464));
#812 = CARTESIAN_POINT('',(-40.70187351962,-169.1521035963,
    35.411542528094));
#813 = CARTESIAN_POINT('',(-40.67828172523,-169.1335101062,
    35.436980167081));
#814 = CARTESIAN_POINT('',(-40.59569063375,-169.0723583075,
    35.527453688517));
#815 = CARTESIAN_POINT('',(-40.53612641169,-169.0351927568,
    35.595202783485));
#816 = CARTESIAN_POINT('',(-40.47622820193,-169.0036374961,
    35.665378229999));
#817 = CARTESIAN_POINT('',(-40.4162615885,-168.9771622759,
    35.737399878181));
#818 = CARTESIAN_POINT('',(-40.35642328529,-168.9553412909,
    35.810831137887));
#819 = CARTESIAN_POINT('',(-40.29684619061,-168.93781565,35.885353914905
    ));
#820 = CARTESIAN_POINT('',(-40.23760018133,-168.9243098246,
    35.960771581547));
#821 = CARTESIAN_POINT('',(-40.12041197858,-168.9050157003,
    36.112412828259));
#822 = CARTESIAN_POINT('',(-40.06252305863,-168.8991589685,
    36.188541839876));
#823 = CARTESIAN_POINT('',(-40.00509975538,-168.8968359918,
    36.265211783005));
#824 = CARTESIAN_POINT('',(-39.94820799474,-168.897899565,
    36.342284952151));
#825 = CARTESIAN_POINT('',(-39.8919128717,-168.9022435614,
    36.419642466985));
#826 = CARTESIAN_POINT('',(-39.83627875337,-168.9097926116,
    36.497179890238));
#827 = CARTESIAN_POINT('',(-39.78137032481,-168.9204994596,
    36.574804682067));
#828 = CARTESIAN_POINT('',(-39.66985614168,-168.9490407094,
    36.734775424228));
#829 = CARTESIAN_POINT('',(-39.61336465145,-168.9672641818,
    36.817100359456));
#830 = CARTESIAN_POINT('',(-39.55785822605,-168.9889991755,
    36.899314071238));
#831 = CARTESIAN_POINT('',(-39.50343640202,-169.0142615431,
    36.981307981096));
#832 = CARTESIAN_POINT('',(-39.45021876265,-169.043096084,
    37.062960139359));
#833 = CARTESIAN_POINT('',(-39.39834770529,-169.0755771257,
    37.144132291471));
#834 = CARTESIAN_POINT('',(-39.34799534681,-169.1118178273,
    37.224665028676));
#835 = CARTESIAN_POINT('',(-39.2993745671,-169.1519882059,
    37.304371023067));
#836 = PCURVE('',#99,#837);
#837 = DEFINITIONAL_REPRESENTATION('',(#838),#981);
#838 = B_SPLINE_CURVE_WITH_KNOTS('',8,(#839,#840,#841,#842,#843,#844,
    #845,#846,#847,#848,#849,#850,#851,#852,#853,#854,#855,#856,#857,
    #858,#859,#860,#861,#862,#863,#864,#865,#866,#867,#868,#869,#870,
    #871,#872,#873,#874,#875,#876,#877,#878,#879,#880,#881,#882,#883,
    #884,#885,#886,#887,#888,#889,#890,#891,#892,#893,#894,#895,#896,
    #897,#898,#899,#900,#901,#902,#903,#904,#905,#906,#907,#908,#909,
    #910,#911,#912,#913,#914,#915,#916,#917,#918,#919,#920,#921,#922,
    #923,#924,#925,#926,#927,#928,#929,#930,#931,#932,#933,#934,#935,
    #936,#937,#938,#939,#940,#941,#942,#943,#944,#945,#946,#947,#948,
    #949,#950,#951,#952,#953,#954,#955,#956,#957,#958,#959,#960,#961,
    #962,#963,#964,#965,#966,#967,#968,#969,#970,#971,#972,#973,#974,
    #975,#976,#977,#978,#979,#980),.UNSPECIFIED.,.F.,.F.,(9,7,7,7,7,7,7,
    7,7,7,7,7,7,7,7,7,7,7,7,7,9),(0.,1.485655303893E-02,
    4.101231776949E-02,6.668165261861E-02,7.983118618713E-02,
    0.106905506939,0.147455927805,0.186746898167,0.335598546476,
    0.411545076712,0.492671028181,0.530326425744,0.572173523912,
    0.588488432841,0.616453473089,0.64006910223,0.676297123365,
    0.714180222413,0.808221993555,0.901288272769,1.),.UNSPECIFIED.);
#839 = CARTESIAN_POINT('',(0.528948549561,0.126291750351));
#840 = CARTESIAN_POINT('',(0.528915752976,0.126338136234));
#841 = CARTESIAN_POINT('',(0.528886755689,0.126384858574));
#842 = CARTESIAN_POINT('',(0.528861671913,0.126431899523));
#843 = CARTESIAN_POINT('',(0.528840615028,0.126479238538));
#844 = CARTESIAN_POINT('',(0.52882369554,0.12652685227));
#845 = CARTESIAN_POINT('',(0.528811019038,0.126574714451));
#846 = CARTESIAN_POINT('',(0.528802684148,0.126622795791));
#847 = CARTESIAN_POINT('',(0.52879190791,0.126756042415));
#848 = CARTESIAN_POINT('',(0.52879876962,0.126841611898));
#849 = CARTESIAN_POINT('',(0.528819859693,0.126927579911));
#850 = CARTESIAN_POINT('',(0.528855570705,0.127013736463));
#851 = CARTESIAN_POINT('',(0.528906164399,0.127099855342));
#852 = CARTESIAN_POINT('',(0.528971742344,0.127185695478));
#853 = CARTESIAN_POINT('',(0.529052216587,0.127271002314));
#854 = CARTESIAN_POINT('',(0.529240576114,0.127438444421));
#855 = CARTESIAN_POINT('',(0.529347949081,0.127520631852));
#856 = CARTESIAN_POINT('',(0.529469120611,0.127601820659));
#857 = CARTESIAN_POINT('',(0.529603655419,0.127681789269));
#858 = CARTESIAN_POINT('',(0.529750986533,0.127760343999));
#859 = CARTESIAN_POINT('',(0.529910440278,0.127837317711));
#860 = CARTESIAN_POINT('',(0.530081261255,0.127912568472));
#861 = CARTESIAN_POINT('',(0.530355550166,0.128023583531));
#862 = CARTESIAN_POINT('',(0.530451241497,0.128060708756));
#863 = CARTESIAN_POINT('',(0.530549605838,0.128097340232));
#864 = CARTESIAN_POINT('',(0.530650538425,0.128133466289));
#865 = CARTESIAN_POINT('',(0.530753935209,0.128169077237));
#866 = CARTESIAN_POINT('',(0.530859692859,0.128204165361));
#867 = CARTESIAN_POINT('',(0.530967708761,0.128238724926));
#868 = CARTESIAN_POINT('',(0.531304720931,0.128342812806));
#869 = CARTESIAN_POINT('',(0.531540694554,0.128410612035));
#870 = CARTESIAN_POINT('',(0.531784942809,0.12847612153));
#871 = CARTESIAN_POINT('',(0.532036650071,0.128539337183));
#872 = CARTESIAN_POINT('',(0.532295055677,0.128600275166));
#873 = CARTESIAN_POINT('',(0.532559465421,0.128658967981));
#874 = CARTESIAN_POINT('',(0.532829263062,0.128715460509));
#875 = CARTESIAN_POINT('',(0.533515290538,0.128851201839));
#876 = CARTESIAN_POINT('',(0.53393746732,0.128927763313));
#877 = CARTESIAN_POINT('',(0.534368719143,0.128999685592));
#878 = CARTESIAN_POINT('',(0.534807544304,0.129067167433));
#879 = CARTESIAN_POINT('',(0.535252668343,0.129130408461));
#880 = CARTESIAN_POINT('',(0.535703039983,0.129189606368));
#881 = CARTESIAN_POINT('',(0.536157827053,0.129244954115));
#882 = CARTESIAN_POINT('',(0.537060754636,0.129346714959));
#883 = CARTESIAN_POINT('',(0.537508578233,0.129393342851));
#884 = CARTESIAN_POINT('',(0.537959270354,0.129436684862));
#885 = CARTESIAN_POINT('',(0.538412299312,0.129476889936));
#886 = CARTESIAN_POINT('',(0.538867210237,0.129514093613));
#887 = CARTESIAN_POINT('',(0.539323620732,0.129548419722));
#888 = CARTESIAN_POINT('',(0.53978121653,0.129579982075));
#889 = CARTESIAN_POINT('',(0.541976864791,0.129718387664));
#890 = CARTESIAN_POINT('',(0.543725060051,0.12978958777));
#891 = CARTESIAN_POINT('',(0.545473332678,0.129828511076));
#892 = CARTESIAN_POINT('',(0.547213660771,0.129838249104));
#893 = CARTESIAN_POINT('',(0.548939735395,0.129821306803));
#894 = CARTESIAN_POINT('',(0.55064700724,0.129779194402));
#895 = CARTESIAN_POINT('',(0.552332205013,0.129712866474));
#896 = CARTESIAN_POINT('',(0.55484022164,0.129576118112));
#897 = CARTESIAN_POINT('',(0.555680595582,0.129523644425));
#898 = CARTESIAN_POINT('',(0.5565134537,0.129464926643));
#899 = CARTESIAN_POINT('',(0.557338123244,0.129399951874));
#900 = CARTESIAN_POINT('',(0.55815383017,0.129328668337));
#901 = CARTESIAN_POINT('',(0.558959684647,0.129250983109));
#902 = CARTESIAN_POINT('',(0.559754654079,0.12916675351));
#903 = CARTESIAN_POINT('',(0.561373783562,0.128978586009));
#904 = CARTESIAN_POINT('',(0.562195935196,0.128873729039));
#905 = CARTESIAN_POINT('',(0.563002774766,0.128760934105));
#906 = CARTESIAN_POINT('',(0.563792479579,0.128639859603));
#907 = CARTESIAN_POINT('',(0.564562653407,0.128510109558));
#908 = CARTESIAN_POINT('',(0.565310240378,0.128371214869));
#909 = CARTESIAN_POINT('',(0.56603130736,0.128222575716));
#910 = CARTESIAN_POINT('',(0.567040680747,0.127989465964));
#911 = CARTESIAN_POINT('',(0.567353774572,0.127913304562));
#912 = CARTESIAN_POINT('',(0.567659453336,0.127834799763));
#913 = CARTESIAN_POINT('',(0.567957094083,0.12775387097));
#914 = CARTESIAN_POINT('',(0.568245964311,0.12767043696));
#915 = CARTESIAN_POINT('',(0.568525212388,0.127584414706));
#916 = CARTESIAN_POINT('',(0.568793857964,0.127495718196));
#917 = CARTESIAN_POINT('',(0.56933630698,0.12730261514));
#918 = CARTESIAN_POINT('',(0.56960724947,0.127197596074));
#919 = CARTESIAN_POINT('',(0.569862161933,0.127089051554));
#920 = CARTESIAN_POINT('',(0.570099203797,0.126976876543));
#921 = CARTESIAN_POINT('',(0.570316157857,0.126861017049));
#922 = CARTESIAN_POINT('',(0.570510470398,0.126741481001));
#923 = CARTESIAN_POINT('',(0.570679315416,0.126618352423));
#924 = CARTESIAN_POINT('',(0.570874407969,0.126442473438));
#925 = CARTESIAN_POINT('',(0.570924795735,0.12639262675));
#926 = CARTESIAN_POINT('',(0.570970666452,0.126342283757));
#927 = CARTESIAN_POINT('',(0.571011835626,0.126291463657));
#928 = CARTESIAN_POINT('',(0.571048117783,0.126240190245));
#929 = CARTESIAN_POINT('',(0.571079330191,0.126188492234));
#930 = CARTESIAN_POINT('',(0.571105296582,0.126136403566));
#931 = CARTESIAN_POINT('',(0.571161082561,0.125994077726));
#932 = CARTESIAN_POINT('',(0.571180422466,0.125903133887));
#933 = CARTESIAN_POINT('',(0.571183012462,0.125811362137));
#934 = CARTESIAN_POINT('',(0.571168120255,0.125719024126));
#935 = CARTESIAN_POINT('',(0.571135198171,0.12562641184));
#936 = CARTESIAN_POINT('',(0.57108394194,0.125533846213));
#937 = CARTESIAN_POINT('',(0.571014349485,0.125441675736));
#938 = CARTESIAN_POINT('',(0.570852829673,0.125273089967));
#939 = CARTESIAN_POINT('',(0.570766039431,0.125196432147));
#940 = CARTESIAN_POINT('',(0.570666612635,0.125120523307));
#941 = CARTESIAN_POINT('',(0.570554898518,0.125045560696));
#942 = CARTESIAN_POINT('',(0.570431368855,0.124971718176));
#943 = CARTESIAN_POINT('',(0.570296594922,0.124899147294));
#944 = CARTESIAN_POINT('',(0.570151224461,0.124827978348));
#945 = CARTESIAN_POINT('',(0.569757770053,0.124651462924));
#946 = CARTESIAN_POINT('',(0.569496298268,0.124548164907));
#947 = CARTESIAN_POINT('',(0.569213923631,0.124448751215));
#948 = CARTESIAN_POINT('',(0.568913115064,0.124353397113));
#949 = CARTESIAN_POINT('',(0.568596247621,0.124262166258));
#950 = CARTESIAN_POINT('',(0.568265470119,0.124175039855));
#951 = CARTESIAN_POINT('',(0.567922622835,0.124091938055));
#952 = CARTESIAN_POINT('',(0.567199641827,0.123929910622));
#953 = CARTESIAN_POINT('',(0.566818598831,0.12385136706));
#954 = CARTESIAN_POINT('',(0.566427760263,0.123776947726));
#955 = CARTESIAN_POINT('',(0.566028593562,0.123706491739));
#956 = CARTESIAN_POINT('',(0.565622352033,0.123639834818));
#957 = CARTESIAN_POINT('',(0.565210077252,0.123576811602));
#958 = CARTESIAN_POINT('',(0.564792601467,0.123517257978));
#959 = CARTESIAN_POINT('',(0.563322840918,0.123321390747));
#960 = CARTESIAN_POINT('',(0.562248346663,0.123202346235));
#961 = CARTESIAN_POINT('',(0.561156162795,0.123101269184));
#962 = CARTESIAN_POINT('',(0.560052840923,0.123016462596));
#963 = CARTESIAN_POINT('',(0.558943271426,0.122946563536));
#964 = CARTESIAN_POINT('',(0.557830899469,0.122890423092));
#965 = CARTESIAN_POINT('',(0.556717724954,0.122847159106));
#966 = CARTESIAN_POINT('',(0.554502896198,0.122785352829));
#967 = CARTESIAN_POINT('',(0.553402383645,0.122766591325));
#968 = CARTESIAN_POINT('',(0.552304743831,0.122759149831));
#969 = CARTESIAN_POINT('',(0.551211562561,0.122762556901));
#970 = CARTESIAN_POINT('',(0.550124296407,0.122776472546));
#971 = CARTESIAN_POINT('',(0.549044301445,0.122800655196));
#972 = CARTESIAN_POINT('',(0.547972861331,0.122834953241));
#973 = CARTESIAN_POINT('',(0.545785168085,0.122926380396));
#974 = CARTESIAN_POINT('',(0.54467043689,0.122984755775));
#975 = CARTESIAN_POINT('',(0.543568472931,0.123054378829));
#976 = CARTESIAN_POINT('',(0.542481033962,0.123135299784));
#977 = CARTESIAN_POINT('',(0.541410173253,0.123227661447));
#978 = CARTESIAN_POINT('',(0.540358286282,0.123331701042));
#979 = CARTESIAN_POINT('',(0.539328214551,0.123447779957));
#980 = CARTESIAN_POINT('',(0.538323406532,0.123576441397));
#981 = ( GEOMETRIC_REPRESENTATION_CONTEXT(2) 
PARAMETRIC_REPRESENTATION_CONTEXT() REPRESENTATION_CONTEXT('2D SPACE',''
  ) );
#982 = PCURVE('',#983,#988);
#983 = CYLINDRICAL_SURFACE('',#984,1.1);
#984 = AXIS2_PLACEMENT_3D('',#985,#986,#987);
#985 = CARTESIAN_POINT('',(-40.,-170.,-5.));
#986 = DIRECTION('',(0.,0.,1.));
#987 = DIRECTION('',(1.,0.,-0.));
#988 = DEFINITIONAL_REPRESENTATION('',(#989),#1132);
#989 = B_SPLINE_CURVE_WITH_KNOTS('',8,(#990,#991,#992,#993,#994,#995,
    #996,#997,#998,#999,#1000,#1001,#1002,#1003,#1004,#1005,#1006,#1007,
    #1008,#1009,#1010,#1011,#1012,#1013,#1014,#1015,#1016,#1017,#1018,
    #1019,#1020,#1021,#1022,#1023,#1024,#1025,#1026,#1027,#1028,#1029,
    #1030,#1031,#1032,#1033,#1034,#1035,#1036,#1037,#1038,#1039,#1040,
    #1041,#1042,#1043,#1044,#1045,#1046,#1047,#1048,#1049,#1050,#1051,
    #1052,#1053,#1054,#1055,#1056,#1057,#1058,#1059,#1060,#1061,#1062,
    #1063,#1064,#1065,#1066,#1067,#1068,#1069,#1070,#1071,#1072,#1073,
    #1074,#1075,#1076,#1077,#1078,#1079,#1080,#1081,#1082,#1083,#1084,
    #1085,#1086,#1087,#1088,#1089,#1090,#1091,#1092,#1093,#1094,#1095,
    #1096,#1097,#1098,#1099,#1100,#1101,#1102,#1103,#1104,#1105,#1106,
    #1107,#1108,#1109,#1110,#1111,#1112,#1113,#1114,#1115,#1116,#1117,
    #1118,#1119,#1120,#1121,#1122,#1123,#1124,#1125,#1126,#1127,#1128,
    #1129,#1130,#1131),.UNSPECIFIED.,.F.,.F.,(9,7,7,7,7,7,7,7,7,7,7,7,7,
    7,7,7,7,7,7,7,9),(0.,1.485655303893E-02,4.101231776949E-02,
    6.668165261861E-02,7.983118618713E-02,0.106905506939,0.147455927805,
    0.186746898167,0.335598546476,0.411545076712,0.492671028181,
    0.530326425744,0.572173523912,0.588488432841,0.616453473089,
    0.64006910223,0.676297123365,0.714180222413,0.808221993555,
    0.901288272769,1.),.UNSPECIFIED.);
#990 = CARTESIAN_POINT('',(6.28318530718,43.164146376901));
#991 = CARTESIAN_POINT('',(6.27001162333,43.170005013954));
#992 = CARTESIAN_POINT('',(6.256742219408,43.175625940784));
#993 = CARTESIAN_POINT('',(6.243378683686,43.180999765686));
#994 = CARTESIAN_POINT('',(6.229923143668,43.186116934841));
#995 = CARTESIAN_POINT('',(6.216378317144,43.190967865822));
#996 = CARTESIAN_POINT('',(6.202747563229,43.195543081087));
#997 = CARTESIAN_POINT('',(6.189034933414,43.199833341479));
#998 = CARTESIAN_POINT('',(6.150967691303,43.21086572529));
#999 = CARTESIAN_POINT('',(6.126447711898,43.216991926094));
#1000 = CARTESIAN_POINT('',(6.101716110286,43.222158469552));
#1001 = CARTESIAN_POINT('',(6.076807079216,43.226321007341));
#1002 = CARTESIAN_POINT('',(6.051758926829,43.229442941583));
#1003 = CARTESIAN_POINT('',(6.026614825197,43.231497611025));
#1004 = CARTESIAN_POINT('',(6.001423558856,43.232470477221));
#1005 = CARTESIAN_POINT('',(5.951525332103,43.232254174423));
#1006 = CARTESIAN_POINT('',(5.926811447928,43.231104870144));
#1007 = CARTESIAN_POINT('',(5.902150241219,43.228912488115));
#1008 = CARTESIAN_POINT('',(5.87758781656,43.225689316712));
#1009 = CARTESIAN_POINT('',(5.853165412193,43.221459029731));
#1010 = CARTESIAN_POINT('',(5.828920049489,43.216254873663));
#1011 = CARTESIAN_POINT('',(5.804885182425,43.210117854967));
#1012 = CARTESIAN_POINT('',(5.768902568553,43.19949731864));
#1013 = CARTESIAN_POINT('',(5.756776025653,43.195666858842));
#1014 = CARTESIAN_POINT('',(5.744715102748,43.191609771721));
#1015 = CARTESIAN_POINT('',(5.73272277823,43.187332391657));
#1016 = CARTESIAN_POINT('',(5.720801624489,43.18284116364));
#1017 = CARTESIAN_POINT('',(5.708953807919,43.17814264327));
#1018 = CARTESIAN_POINT('',(5.697181088914,43.173243496757));
#1019 = CARTESIAN_POINT('',(5.661402714017,43.157664242822));
#1020 = CARTESIAN_POINT('',(5.637646206321,43.146356375327));
#1021 = CARTESIAN_POINT('',(5.614225192158,43.13428426649));
#1022 = CARTESIAN_POINT('',(5.591144804887,43.121504258832));
#1023 = CARTESIAN_POINT('',(5.568405890988,43.108070538588));
#1024 = CARTESIAN_POINT('',(5.546005483201,43.094034004955));
#1025 = CARTESIAN_POINT('',(5.523937273661,43.079441139344));
#1026 = CARTESIAN_POINT('',(5.469623348666,43.041704550968));
#1027 = CARTESIAN_POINT('',(5.437786518139,43.017925448063));
#1028 = CARTESIAN_POINT('',(5.406645607823,42.993131745141));
#1029 = CARTESIAN_POINT('',(5.376165287799,42.967444036192));
#1030 = CARTESIAN_POINT('',(5.346310040036,42.940967311173));
#1031 = CARTESIAN_POINT('',(5.317043312565,42.913790937211));
#1032 = CARTESIAN_POINT('',(5.288326673657,42.885988639806));
#1033 = CARTESIAN_POINT('',(5.232787358029,42.83012947343));
#1034 = CARTESIAN_POINT('',(5.205938719135,42.802112585598));
#1035 = CARTESIAN_POINT('',(5.179538825064,42.773623934509));
#1036 = CARTESIAN_POINT('',(5.153556984463,42.744712840625));
#1037 = CARTESIAN_POINT('',(5.127965227383,42.715422245647));
#1038 = CARTESIAN_POINT('',(5.102737493797,42.68578912725));
#1039 = CARTESIAN_POINT('',(5.077848822113,42.655844913826));
#1040 = CARTESIAN_POINT('',(4.960176232684,42.511094964528));
#1041 = CARTESIAN_POINT('',(4.871716021359,42.392640576326));
#1042 = CARTESIAN_POINT('',(4.786406159975,42.271520377416));
#1043 = CARTESIAN_POINT('',(4.703486476445,42.148568862519));
#1044 = CARTESIAN_POINT('',(4.622270868128,42.02445577599));
#1045 = CARTESIAN_POINT('',(4.542205050513,41.899650369106));
#1046 = CARTESIAN_POINT('',(4.46270844537,41.774488995577));
#1047 = CARTESIAN_POINT('',(4.342502293539,41.585240724967));
#1048 = CARTESIAN_POINT('',(4.301892695554,41.521307931272));
#1049 = CARTESIAN_POINT('',(4.261208269252,41.457426164967));
#1050 = CARTESIAN_POINT('',(4.220374101163,41.393647000899));
#1051 = CARTESIAN_POINT('',(4.179314274976,41.33002650799));
#1052 = CARTESIAN_POINT('',(4.137948658494,41.26662618661));
#1053 = CARTESIAN_POINT('',(4.096188625161,41.203514339502));
#1054 = CARTESIAN_POINT('',(4.008792947113,41.073742213353));
#1055 = CARTESIAN_POINT('',(3.963102799669,41.007157527621));
#1056 = CARTESIAN_POINT('',(3.916725439757,40.941086673504));
#1057 = CARTESIAN_POINT('',(3.869517998287,40.875641784235));
#1058 = CARTESIAN_POINT('',(3.821330326532,40.810972621385));
#1059 = CARTESIAN_POINT('',(3.771993236237,40.747271515576));
#1060 = CARTESIAN_POINT('',(3.721295218473,40.684784898338));
#1061 = CARTESIAN_POINT('',(3.644650005311,40.595539279064));
#1062 = CARTESIAN_POINT('',(3.620002018364,40.567583347035));
#1063 = CARTESIAN_POINT('',(3.594975000717,40.539996104192));
#1064 = CARTESIAN_POINT('',(3.569540336627,40.512817274674));
#1065 = CARTESIAN_POINT('',(3.543668471135,40.486094419855));
#1066 = CARTESIAN_POINT('',(3.517327906912,40.459883526593));
#1067 = CARTESIAN_POINT('',(3.490484201116,40.434249595496));
#1068 = CARTESIAN_POINT('',(3.432665270026,40.381503891026));
#1069 = CARTESIAN_POINT('',(3.401573889221,40.354555530967));
#1070 = CARTESIAN_POINT('',(3.369764127382,40.328516474714));
#1071 = CARTESIAN_POINT('',(3.337184645146,40.30351229416));
#1072 = CARTESIAN_POINT('',(3.303792373778,40.279699107314));
#1073 = CARTESIAN_POINT('',(3.269552581521,40.257261331503));
#1074 = CARTESIAN_POINT('',(3.234440088753,40.236407889846));
#1075 = CARTESIAN_POINT('',(3.184406930132,40.209943357733));
#1076 = CARTESIAN_POINT('',(3.170239791473,40.202796511717));
#1077 = CARTESIAN_POINT('',(3.155940690728,40.195940262291));
#1078 = CARTESIAN_POINT('',(3.141510959805,40.189389163197));
#1079 = CARTESIAN_POINT('',(3.126952887597,40.183158145882));
#1080 = CARTESIAN_POINT('',(3.112269819815,40.177262272812));
#1081 = CARTESIAN_POINT('',(3.097466258824,40.171716490777));
#1082 = CARTESIAN_POINT('',(3.05697682905,40.157654559043));
#1083 = CARTESIAN_POINT('',(3.031061043774,40.14984265417));
#1084 = CARTESIAN_POINT('',(3.004838941032,40.143176903625));
#1085 = CARTESIAN_POINT('',(2.978354568152,40.1377275042));
#1086 = CARTESIAN_POINT('',(2.951658998418,40.13355334539));
#1087 = CARTESIAN_POINT('',(2.924811643061,40.130697739351));
#1088 = CARTESIAN_POINT('',(2.89788156326,40.129184150851));
#1089 = CARTESIAN_POINT('',(2.848204864548,40.128866489599));
#1090 = CARTESIAN_POINT('',(2.825452779626,40.129677533495));
#1091 = CARTESIAN_POINT('',(2.802739579707,40.131445294606));
#1092 = CARTESIAN_POINT('',(2.780107366552,40.134157836935));
#1093 = CARTESIAN_POINT('',(2.75759382262,40.137792809478));
#1094 = CARTESIAN_POINT('',(2.735232742346,40.142319202891));
#1095 = CARTESIAN_POINT('',(2.713054563411,40.147699106157));
#1096 = CARTESIAN_POINT('',(2.657386968133,40.163385902544));
#1097 = CARTESIAN_POINT('',(2.624183036246,40.174789481273));
#1098 = CARTESIAN_POINT('',(2.591551064312,40.187950326547));
#1099 = CARTESIAN_POINT('',(2.559536360073,40.202702230769));
#1100 = CARTESIAN_POINT('',(2.528161320694,40.218878348785));
#1101 = CARTESIAN_POINT('',(2.497430594357,40.236322690421));
#1102 = CARTESIAN_POINT('',(2.467333659806,40.254897408432));
#1103 = CARTESIAN_POINT('',(2.407008789797,40.294969255108));
#1104 = CARTESIAN_POINT('',(2.376844325574,40.316556787491));
#1105 = CARTESIAN_POINT('',(2.347319194818,40.339116659327));
#1106 = CARTESIAN_POINT('',(2.31840149576,40.362532446777));
#1107 = CARTESIAN_POINT('',(2.290058892889,40.386703034464));
#1108 = CARTESIAN_POINT('',(2.262257848613,40.411542528094));
#1109 = CARTESIAN_POINT('',(2.234962854926,40.436980167081));
#1110 = CARTESIAN_POINT('',(2.141539306475,40.527453688517));
#1111 = CARTESIAN_POINT('',(2.077915044924,40.595202783485));
#1112 = CARTESIAN_POINT('',(2.016633192036,40.665378229999));
#1113 = CARTESIAN_POINT('',(1.957313879168,40.737399878181));
#1114 = CARTESIAN_POINT('',(1.89965406513,40.810831137887));
#1115 = CARTESIAN_POINT('',(1.843379366919,40.885353914905));
#1116 = CARTESIAN_POINT('',(1.78824056253,40.960771581547));
#1117 = CARTESIAN_POINT('',(1.680271566007,41.112412828259));
#1118 = CARTESIAN_POINT('',(1.627479214821,41.188541839876));
#1119 = CARTESIAN_POINT('',(1.5753911311,41.265211783005));
#1120 = CARTESIAN_POINT('',(1.52384061876,41.342284952151));
#1121 = CARTESIAN_POINT('',(1.472683625014,41.419642466985));
#1122 = CARTESIAN_POINT('',(1.42178587667,41.497179890238));
#1123 = CARTESIAN_POINT('',(1.371014243609,41.574804682067));
#1124 = CARTESIAN_POINT('',(1.2663699584,41.734775424228));
#1125 = CARTESIAN_POINT('',(1.2125097297,41.817100359456));
#1126 = CARTESIAN_POINT('',(1.158488417705,41.899314071238));
#1127 = CARTESIAN_POINT('',(1.104149996989,41.981307981096));
#1128 = CARTESIAN_POINT('',(1.049339555795,42.062960139359));
#1129 = CARTESIAN_POINT('',(0.993892500302,42.144132291471));
#1130 = CARTESIAN_POINT('',(0.937619049687,42.224665028676));
#1131 = CARTESIAN_POINT('',(0.880284021979,42.304371023067));
#1132 = ( GEOMETRIC_REPRESENTATION_CONTEXT(2) 
PARAMETRIC_REPRESENTATION_CONTEXT() REPRESENTATION_CONTEXT('2D SPACE',''
  ) );
#1133 = ORIENTED_EDGE('',*,*,#1134,.T.);
#1134 = EDGE_CURVE('',#690,#688,#1135,.T.);
#1135 = SURFACE_CURVE('',#1136,(#1153,#1173),.PCURVE_S1.);
#1136 = B_SPLINE_CURVE_WITH_KNOTS('',8,(#1137,#1138,#1139,#1140,#1141,
    #1142,#1143,#1144,#1145,#1146,#1147,#1148,#1149,#1150,#1151,#1152),
  .UNSPECIFIED.,.F.,.F.,(9,7,9),(0.,0.74012192719,1.),.UNSPECIFIED.);
#1137 = CARTESIAN_POINT('',(-39.2993745671,-169.1519882059,
    37.304371023067));
#1138 = CARTESIAN_POINT('',(-39.24185252632,-169.1995127864,
    37.398669211775));
#1139 = CARTESIAN_POINT('',(-39.18692090805,-169.2524009806,
    37.491537297392));
#1140 = CARTESIAN_POINT('',(-39.13474106624,-169.3110135568,
    37.58294883798));
#1141 = CARTESIAN_POINT('',(-39.08575203637,-169.3758002237,
    37.672551283862));
#1142 = CARTESIAN_POINT('',(-39.04061180406,-169.4472000089,
    37.759709921831));
#1143 = CARTESIAN_POINT('',(-39.00032506709,-169.5257314466,
    37.843382694524));
#1144 = CARTESIAN_POINT('',(-38.96610165777,-169.6118228938,
    37.922235800961));
#1145 = CARTESIAN_POINT('',(-38.93071507051,-169.7395836097,
    38.019395530569));
#1146 = CARTESIAN_POINT('',(-38.92252020415,-169.7737904231,
    38.043759246046));
#1147 = CARTESIAN_POINT('',(-38.91541185304,-169.8090240165,
    38.067138282716));
#1148 = CARTESIAN_POINT('',(-38.90948970999,-169.8452895324,
    38.089408289534));
#1149 = CARTESIAN_POINT('',(-38.9048659954,-169.8825723535,
    38.110420632538));
#1150 = CARTESIAN_POINT('',(-38.90166154975,-169.9208344897,
    38.130005779906));
#1151 = CARTESIAN_POINT('',(-38.9,-169.9600100787,38.147978714926));
#1152 = CARTESIAN_POINT('',(-38.9,-170.,38.164146376901));
#1153 = PCURVE('',#99,#1154);
#1154 = DEFINITIONAL_REPRESENTATION('',(#1155),#1172);
#1155 = B_SPLINE_CURVE_WITH_KNOTS('',8,(#1156,#1157,#1158,#1159,#1160,
    #1161,#1162,#1163,#1164,#1165,#1166,#1167,#1168,#1169,#1170,#1171),
  .UNSPECIFIED.,.F.,.F.,(9,7,9),(0.,0.74012192719,1.),.UNSPECIFIED.);
#1156 = CARTESIAN_POINT('',(0.538323406532,0.123576441397));
#1157 = CARTESIAN_POINT('',(0.53713464304,0.123728657562));
#1158 = CARTESIAN_POINT('',(0.535984684387,0.123898047475));
#1159 = CARTESIAN_POINT('',(0.534875446211,0.124085764479));
#1160 = CARTESIAN_POINT('',(0.533813840126,0.124293246106));
#1161 = CARTESIAN_POINT('',(0.532810826539,0.124521894981));
#1162 = CARTESIAN_POINT('',(0.531883520469,0.124773366986));
#1163 = CARTESIAN_POINT('',(0.531052911898,0.125049028264));
#1164 = CARTESIAN_POINT('',(0.530107099987,0.125458078237));
#1165 = CARTESIAN_POINT('',(0.529877696921,0.125567594914));
#1166 = CARTESIAN_POINT('',(0.529666190611,0.125680395819));
#1167 = CARTESIAN_POINT('',(0.529474391319,0.125796497063));
#1168 = CARTESIAN_POINT('',(0.529304384657,0.125915851473));
#1169 = CARTESIAN_POINT('',(0.529158468252,0.12603833704));
#1170 = CARTESIAN_POINT('',(0.529039055952,0.126163742545));
#1171 = CARTESIAN_POINT('',(0.528948549561,0.126291750351));
#1172 = ( GEOMETRIC_REPRESENTATION_CONTEXT(2) 
PARAMETRIC_REPRESENTATION_CONTEXT() REPRESENTATION_CONTEXT('2D SPACE',''
  ) );
#1173 = PCURVE('',#983,#1174);
#1174 = DEFINITIONAL_REPRESENTATION('',(#1175),#1192);
#1175 = B_SPLINE_CURVE_WITH_KNOTS('',8,(#1176,#1177,#1178,#1179,#1180,
    #1181,#1182,#1183,#1184,#1185,#1186,#1187,#1188,#1189,#1190,#1191),
  .UNSPECIFIED.,.F.,.F.,(9,7,9),(0.,0.74012192719,1.),.UNSPECIFIED.);
#1176 = CARTESIAN_POINT('',(0.880284021979,42.304371023067));
#1177 = CARTESIAN_POINT('',(0.812452370122,42.398669211775));
#1178 = CARTESIAN_POINT('',(0.743329938797,42.491537297392));
#1179 = CARTESIAN_POINT('',(0.672349494957,42.58294883798));
#1180 = CARTESIAN_POINT('',(0.59899175106,42.672551283862));
#1181 = CARTESIAN_POINT('',(0.52278774371,42.759709921831));
#1182 = CARTESIAN_POINT('',(0.4431308292,42.843382694524));
#1183 = CARTESIAN_POINT('',(0.359400553931,42.922235800961));
#1184 = CARTESIAN_POINT('',(0.238881665154,43.019395530569));
#1185 = CARTESIAN_POINT('',(0.206924323359,43.043759246046));
#1186 = CARTESIAN_POINT('',(0.174284139713,43.067138282716));
#1187 = CARTESIAN_POINT('',(0.140926201854,43.089408289534));
#1188 = CARTESIAN_POINT('',(0.106825669263,43.110420632538));
#1189 = CARTESIAN_POINT('',(7.19686196102E-02,43.130005779906));
#1190 = CARTESIAN_POINT('',(3.635447384009E-02,43.147978714926));
#1191 = CARTESIAN_POINT('',(0.,43.164146376901));
#1192 = ( GEOMETRIC_REPRESENTATION_CONTEXT(2) 
PARAMETRIC_REPRESENTATION_CONTEXT() REPRESENTATION_CONTEXT('2D SPACE',''
  ) );
#1193 = ADVANCED_FACE('',(#1194,#1197),#66,.T.);
#1194 = FACE_BOUND('',#1195,.T.);
#1195 = EDGE_LOOP('',(#1196));
#1196 = ORIENTED_EDGE('',*,*,#51,.T.);
#1197 = FACE_BOUND('',#1198,.T.);
#1198 = EDGE_LOOP('',(#1199));
#1199 = ORIENTED_EDGE('',*,*,#1200,.F.);
#1200 = EDGE_CURVE('',#1201,#1201,#1203,.T.);
#1201 = VERTEX_POINT('',#1202);
#1202 = CARTESIAN_POINT('',(-38.9,-170.,41.88532170053));
#1203 = SURFACE_CURVE('',#1204,(#1209,#1216),.PCURVE_S1.);
#1204 = CIRCLE('',#1205,1.1);
#1205 = AXIS2_PLACEMENT_3D('',#1206,#1207,#1208);
#1206 = CARTESIAN_POINT('',(-40.,-170.,41.88532170053));
#1207 = DIRECTION('',(0.,0.,1.));
#1208 = DIRECTION('',(1.,0.,-0.));
#1209 = PCURVE('',#66,#1210);
#1210 = DEFINITIONAL_REPRESENTATION('',(#1211),#1215);
#1211 = CIRCLE('',#1212,1.1);
#1212 = AXIS2_PLACEMENT_2D('',#1213,#1214);
#1213 = CARTESIAN_POINT('',(0.,0.));
#1214 = DIRECTION('',(1.,0.));
#1215 = ( GEOMETRIC_REPRESENTATION_CONTEXT(2) 
PARAMETRIC_REPRESENTATION_CONTEXT() REPRESENTATION_CONTEXT('2D SPACE',''
  ) );
#1216 = PCURVE('',#983,#1217);
#1217 = DEFINITIONAL_REPRESENTATION('',(#1218),#1222);
#1218 = LINE('',#1219,#1220);
#1219 = CARTESIAN_POINT('',(0.,46.88532170053));
#1220 = VECTOR('',#1221,1.);
#1221 = DIRECTION('',(1.,0.));
#1222 = ( GEOMETRIC_REPRESENTATION_CONTEXT(2) 
PARAMETRIC_REPRESENTATION_CONTEXT() REPRESENTATION_CONTEXT('2D SPACE',''
  ) );
#1223 = ADVANCED_FACE('',(#1224),#983,.F.);
#1224 = FACE_BOUND('',#1225,.F.);
#1225 = EDGE_LOOP('',(#1226,#1227,#1248,#1249,#1250));
#1226 = ORIENTED_EDGE('',*,*,#1200,.F.);
#1227 = ORIENTED_EDGE('',*,*,#1228,.F.);
#1228 = EDGE_CURVE('',#688,#1201,#1229,.T.);
#1229 = SEAM_CURVE('',#1230,(#1234,#1241),.PCURVE_S1.);
#1230 = LINE('',#1231,#1232);
#1231 = CARTESIAN_POINT('',(-38.9,-170.,-5.));
#1232 = VECTOR('',#1233,1.);
#1233 = DIRECTION('',(0.,0.,1.));
#1234 = PCURVE('',#983,#1235);
#1235 = DEFINITIONAL_REPRESENTATION('',(#1236),#1240);
#1236 = LINE('',#1237,#1238);
#1237 = CARTESIAN_POINT('',(6.28318530718,-0.));
#1238 = VECTOR('',#1239,1.);
#1239 = DIRECTION('',(0.,1.));
#1240 = ( GEOMETRIC_REPRESENTATION_CONTEXT(2) 
PARAMETRIC_REPRESENTATION_CONTEXT() REPRESENTATION_CONTEXT('2D SPACE',''
  ) );
#1241 = PCURVE('',#983,#1242);
#1242 = DEFINITIONAL_REPRESENTATION('',(#1243),#1247);
#1243 = LINE('',#1244,#1245);
#1244 = CARTESIAN_POINT('',(0.,-0.));
#1245 = VECTOR('',#1246,1.);
#1246 = DIRECTION('',(0.,1.));
#1247 = ( GEOMETRIC_REPRESENTATION_CONTEXT(2) 
PARAMETRIC_REPRESENTATION_CONTEXT() REPRESENTATION_CONTEXT('2D SPACE',''
  ) );
#1248 = ORIENTED_EDGE('',*,*,#1134,.F.);
#1249 = ORIENTED_EDGE('',*,*,#687,.F.);
#1250 = ORIENTED_EDGE('',*,*,#1228,.T.);
#1251 = ( GEOMETRIC_REPRESENTATION_CONTEXT(3) 
GLOBAL_UNCERTAINTY_ASSIGNED_CONTEXT((#1255)) 
GLOBAL_UNIT_ASSIGNED_CONTEXT((#1252,#1253,#1254)) REPRESENTATION_CONTEXT
('Context #1','3D Context with UNIT and UNCERTAINTY') );
#1252 = ( LENGTH_UNIT() NAMED_UNIT(*) SI_UNIT(.MILLI.,.METRE.) );
#1253 = ( NAMED_UNIT(*) PLANE_ANGLE_UNIT() SI_UNIT($,.RADIAN.) );
#1254 = ( NAMED_UNIT(*) SI_UNIT($,.STERADIAN.) SOLID_ANGLE_UNIT() );
#1255 = UNCERTAINTY_MEASURE_WITH_UNIT(LENGTH_MEASURE(1.E-05),#1252,
  'distance_accuracy_value','confusion accuracy');
#1256 = PRODUCT_RELATED_PRODUCT_CATEGORY('part',$,(#7));
ENDSEC;
END-ISO-10303-21;
