ISO-10303-21;
HEADER;
FILE_DESCRIPTION(('Open CASCADE Model'),'2;1');
FILE_NAME('Open CASCADE Shape Model','2026-09-20T18:22:31',('Author'),(
    'Open CASCADE'),'Open CASCADE STEP processor 7.9','Open CASCADE 7.9'
  ,'Unknown');
FILE_SCHEMA(('AUTOMOTIVE_DESIGN { 1 0 10303 214 1 1 1 1 }'));
ENDSEC;
DATA;
#1 = APPLICATION_PROTOCOL_DEFINITION('international standard',
  'automotive_design',2000,#2);
#2 = APPLICATION_CONTEXT(
  'core data for automotive mechanical design processes');
#3 = SHAPE_DEFINITION_REPRESENTATION(#4,#10);
#4 = PRODUCT_DEFINITION_SHAPE('','',#5);
#5 = PRODUCT_DEFINITION('design','',#6,#9);
#6 = PRODUCT_DEFINITION_FORMATION('','',#7);
#7 = PRODUCT('Open CASCADE STEP translator 7.9 6',
  'Open CASCADE STEP translator 7.9 6','',(#8));
#8 = PRODUCT_CONTEXT('',#2,'mechanical');
#9 = PRODUCT_DEFINITION_CONTEXT('part definition',#2,'design');
#10 = ADVANCED_BREP_SHAPE_REPRESENTATION('',(#11,#15),#1311);
#11 = AXIS2_PLACEMENT_3D('',#12,#13,#14);
#12 = CARTESIAN_POINT('',(0.,0.,0.));
#13 = DIRECTION('',(0.,0.,1.));
#14 = DIRECTION('',(1.,0.,-0.));
#15 = MANIFOLD_SOLID_BREP('',#16);
#16 = CLOSED_SHELL('',(#17,#727,#1253,#1283));
#17 = ADVANCED_FACE('',(#18),#32,.T.);
#18 = FACE_BOUND('',#19,.T.);
#19 = EDGE_LOOP('',(#20,#50,#77,#78,#373));
#20 = ORIENTED_EDGE('',*,*,#21,.T.);
#21 = EDGE_CURVE('',#22,#24,#26,.T.);
#22 = VERTEX_POINT('',#23);
#23 = CARTESIAN_POINT('',(43.,-300.,48.805006292288));
#24 = VERTEX_POINT('',#25);
#25 = CARTESIAN_POINT('',(43.,-300.,60.614793665771));
#26 = SEAM_CURVE('',#27,(#31,#43),.PCURVE_S1.);
#27 = LINE('',#28,#29);
#28 = CARTESIAN_POINT('',(43.,-300.,0.));
#29 = VECTOR('',#30,1.);
#30 = DIRECTION('',(0.,0.,1.));
#31 = PCURVE('',#32,#37);
#32 = CYLINDRICAL_SURFACE('',#33,3.);
#33 = AXIS2_PLACEMENT_3D('',#34,#35,#36);
#34 = CARTESIAN_POINT('',(40.,-300.,0.));
#35 = DIRECTION('',(0.,0.,1.));
#36 = DIRECTION('',(1.,0.,-0.));
#37 = DEFINITIONAL_REPRESENTATION('',(#38),#42);
#38 = LINE('',#39,#40);
#39 = CARTESIAN_POINT('',(6.28318530718,-0.));
#40 = VECTOR('',#41,1.);
#41 = DIRECTION('',(0.,1.));
#42 = ( GEOMETRIC_REPRESENTATION_CONTEXT(2) 
PARAMETRIC_REPRESENTATION_CONTEXT() REPRESENTATION_CONTEXT('2D SPACE',''
  ) );
#43 = PCURVE('',#32,#44);
#44 = DEFINITIONAL_REPRESENTATION('',(#45),#49);
#45 = LINE('',#46,#47);
#46 = CARTESIAN_POINT('',(0.,-0.));
#47 = VECTOR('',#48,1.);
#48 = DIRECTION('',(0.,1.));
#49 = ( GEOMETRIC_REPRESENTATION_CONTEXT(2) 
PARAMETRIC_REPRESENTATION_CONTEXT() REPRESENTATION_CONTEXT('2D SPACE',''
  ) );
#50 = ORIENTED_EDGE('',*,*,#51,.F.);
#51 = EDGE_CURVE('',#24,#24,#52,.T.);
#52 = SURFACE_CURVE('',#53,(#58,#65),.PCURVE_S1.);
#53 = CIRCLE('',#54,3.);
#54 = AXIS2_PLACEMENT_3D('',#55,#56,#57);
#55 = CARTESIAN_POINT('',(40.,-300.,60.614793665771));
#56 = DIRECTION('',(0.,0.,1.));
#57 = DIRECTION('',(1.,0.,-0.));
#58 = PCURVE('',#32,#59);
#59 = DEFINITIONAL_REPRESENTATION('',(#60),#64);
#60 = LINE('',#61,#62);
#61 = CARTESIAN_POINT('',(0.,60.614793665771));
#62 = VECTOR('',#63,1.);
#63 = DIRECTION('',(1.,0.));
#64 = ( GEOMETRIC_REPRESENTATION_CONTEXT(2) 
PARAMETRIC_REPRESENTATION_CONTEXT() REPRESENTATION_CONTEXT('2D SPACE',''
  ) );
#65 = PCURVE('',#66,#71);
#66 = PLANE('',#67);
#67 = AXIS2_PLACEMENT_3D('',#68,#69,#70);
#68 = CARTESIAN_POINT('',(40.,-300.,60.614793665771));
#69 = DIRECTION('',(0.,0.,1.));
#70 = DIRECTION('',(1.,0.,-0.));
#71 = DEFINITIONAL_REPRESENTATION('',(#72),#76);
#72 = CIRCLE('',#73,3.);
#73 = AXIS2_PLACEMENT_2D('',#74,#75);
#74 = CARTESIAN_POINT('',(0.,0.));
#75 = DIRECTION('',(1.,0.));
#76 = ( GEOMETRIC_REPRESENTATION_CONTEXT(2) 
PARAMETRIC_REPRESENTATION_CONTEXT() REPRESENTATION_CONTEXT('2D SPACE',''
  ) );
#77 = ORIENTED_EDGE('',*,*,#21,.F.);
#78 = ORIENTED_EDGE('',*,*,#79,.F.);
#79 = EDGE_CURVE('',#80,#22,#82,.T.);
#80 = VERTEX_POINT('',#81);
#81 = CARTESIAN_POINT('',(41.950619933546,-297.7207277751,
    50.722035059309));
#82 = SURFACE_CURVE('',#83,(#98,#116),.PCURVE_S1.);
#83 = B_SPLINE_CURVE_WITH_KNOTS('',7,(#84,#85,#86,#87,#88,#89,#90,#91,
    #92,#93,#94,#95,#96,#97),.UNSPECIFIED.,.F.,.F.,(8,6,8),(0.,
    0.396864762765,1.),.UNSPECIFIED.);
#84 = CARTESIAN_POINT('',(41.950619933546,-297.7207277751,
    50.722035059309));
#85 = CARTESIAN_POINT('',(42.027719413583,-297.7867101448,
    50.578390089507));
#86 = CARTESIAN_POINT('',(42.10411711574,-297.857365269,50.435791884106)
  );
#87 = CARTESIAN_POINT('',(42.179773148058,-297.9331156273,
    50.294357636026));
#88 = CARTESIAN_POINT('',(42.254583603181,-298.0145047622,50.15433736208
    ));
#89 = CARTESIAN_POINT('',(42.328387620105,-298.1021574731,
    50.016101550377));
#90 = CARTESIAN_POINT('',(42.400951722325,-298.196912956,49.88018508769)
  );
#91 = CARTESIAN_POINT('',(42.579802849259,-298.4569963469,
    49.545568277709));
#92 = CARTESIAN_POINT('',(42.681053603009,-298.6292415343,
    49.356504628019));
#93 = CARTESIAN_POINT('',(42.780739571905,-298.8274643425,
    49.171168723295));
#94 = CARTESIAN_POINT('',(42.874194934376,-299.0624250322,
    48.999410007555));
#95 = CARTESIAN_POINT('',(42.95404225545,-299.3365421522,48.85611937066)
  );
#96 = CARTESIAN_POINT('',(43.,-299.6566898483,48.783810621277));
#97 = CARTESIAN_POINT('',(43.,-300.,48.805006292288));
#98 = PCURVE('',#32,#99);
#99 = DEFINITIONAL_REPRESENTATION('',(#100),#115);
#100 = B_SPLINE_CURVE_WITH_KNOTS('',7,(#101,#102,#103,#104,#105,#106,
    #107,#108,#109,#110,#111,#112,#113,#114),.UNSPECIFIED.,.F.,.F.,(8,6,
    8),(0.,0.396864762765,1.),.UNSPECIFIED.);
#101 = CARTESIAN_POINT('',(0.862939934217,50.722035059309));
#102 = CARTESIAN_POINT('',(0.829113575436,50.578390089507));
#103 = CARTESIAN_POINT('',(0.794451900841,50.435791884106));
#104 = CARTESIAN_POINT('',(0.758811754728,50.294357636026));
#105 = CARTESIAN_POINT('',(0.722021152782,50.15433736208));
#106 = CARTESIAN_POINT('',(0.683888845143,50.016101550377));
#107 = CARTESIAN_POINT('',(0.644157667786,49.88018508769));
#108 = CARTESIAN_POINT('',(0.538943021667,49.545568277709));
#109 = CARTESIAN_POINT('',(0.472491200631,49.356504628019));
#110 = CARTESIAN_POINT('',(0.398901016937,49.171168723295));
#111 = CARTESIAN_POINT('',(0.31504240078,48.999410007555));
#112 = CARTESIAN_POINT('',(0.22113986712,48.85611937066));
#113 = CARTESIAN_POINT('',(0.114436717222,48.783810621277));
#114 = CARTESIAN_POINT('',(0.,48.805006292288));
#115 = ( GEOMETRIC_REPRESENTATION_CONTEXT(2) 
PARAMETRIC_REPRESENTATION_CONTEXT() REPRESENTATION_CONTEXT('2D SPACE',''
  ) );
#116 = PCURVE('',#117,#356);
#117 = B_SPLINE_SURFACE_WITH_KNOTS('',3,3,(
    (#118,#119,#120,#121,#122,#123,#124,#125,#126,#127,#128,#129,#130
      ,#131)
    ,(#132,#133,#134,#135,#136,#137,#138,#139,#140,#141,#142,#143,#144
      ,#145)
    ,(#146,#147,#148,#149,#150,#151,#152,#153,#154,#155,#156,#157,#158
      ,#159)
    ,(#160,#161,#162,#163,#164,#165,#166,#167,#168,#169,#170,#171,#172
      ,#173)
    ,(#174,#175,#176,#177,#178,#179,#180,#181,#182,#183,#184,#185,#186
      ,#187)
    ,(#188,#189,#190,#191,#192,#193,#194,#195,#196,#197,#198,#199,#200
      ,#201)
    ,(#202,#203,#204,#205,#206,#207,#208,#209,#210,#211,#212,#213,#214
      ,#215)
    ,(#216,#217,#218,#219,#220,#221,#222,#223,#224,#225,#226,#227,#228
      ,#229)
    ,(#230,#231,#232,#233,#234,#235,#236,#237,#238,#239,#240,#241,#242
      ,#243)
    ,(#244,#245,#246,#247,#248,#249,#250,#251,#252,#253,#254,#255,#256
      ,#257)
    ,(#258,#259,#260,#261,#262,#263,#264,#265,#266,#267,#268,#269,#270
      ,#271)
    ,(#272,#273,#274,#275,#276,#277,#278,#279,#280,#281,#282,#283,#284
      ,#285)
    ,(#286,#287,#288,#289,#290,#291,#292,#293,#294,#295,#296,#297,#298
      ,#299)
    ,(#300,#301,#302,#303,#304,#305,#306,#307,#308,#309,#310,#311,#312
      ,#313)
    ,(#314,#315,#316,#317,#318,#319,#320,#321,#322,#323,#324,#325,#326
      ,#327)
    ,(#328,#329,#330,#331,#332,#333,#334,#335,#336,#337,#338,#339,#340
      ,#341)
    ,(#342,#343,#344,#345,#346,#347,#348,#349,#350,#351,#352,#353,#354
      ,#355
    )),.UNSPECIFIED.,.F.,.F.,.F.,(4,1,1,1,2,2,2,2,2,4),(4,2,2,2,2,2,4),(
    0.,0.197025872093,0.394051744187,0.59107761628,0.788103488373,
    0.838263167788,0.851637065182,0.867865583041,0.887637054421,1.),(0.,
    3.083344037338E-02,0.158028689177,0.407445855026,0.63871290505,
    0.894986199429,1.),.UNSPECIFIED.);
#118 = CARTESIAN_POINT('',(53.118260729262,-129.971300858,
    -4.118273046805E-05));
#119 = CARTESIAN_POINT('',(53.118260729262,-133.3243787994,
    -4.118273064221E-05));
#120 = CARTESIAN_POINT('',(53.118260729262,-136.6577121327,
    -4.118273064221E-05));
#121 = CARTESIAN_POINT('',(53.118260729262,-153.6406396424,
    -4.11827297496E-05));
#122 = CARTESIAN_POINT('',(53.118260729272,-166.5481758473,
    -4.118272185969E-05));
#123 = CARTESIAN_POINT('',(53.118260729278,-206.2927069523,
    -4.118271463994E-05));
#124 = CARTESIAN_POINT('',(53.118260729268,-233.1513762124,
    -4.118271942506E-05));
#125 = CARTESIAN_POINT('',(53.118260729267,-284.8395365046,
    -4.118271942643E-05));
#126 = CARTESIAN_POINT('',(56.267669512204,-311.1284473112,
    -2.031621684142E-02));
#127 = CARTESIAN_POINT('',(49.628315386564,-361.3922139333,
    2.242613282582E-02));
#128 = CARTESIAN_POINT('',(43.598105120652,-390.7719389749,
    0.210272658913));
#129 = CARTESIAN_POINT('',(25.903216357939,-417.8386752748,
    0.114095189632));
#130 = CARTESIAN_POINT('',(19.887716540208,-424.7320432674,
    6.673123219955E-02));
#131 = CARTESIAN_POINT('',(13.000015809223,-430.6514048358,
    -4.11821229207E-05));
#132 = CARTESIAN_POINT('',(51.949594709571,-129.971300858,5.02575950702)
  );
#133 = CARTESIAN_POINT('',(51.931159300106,-133.3243787994,5.01020801638
    ));
#134 = CARTESIAN_POINT('',(51.93115489869,-136.6577121327,5.010209402978
    ));
#135 = CARTESIAN_POINT('',(52.025592598698,-153.6406396424,
    5.089929601943));
#136 = CARTESIAN_POINT('',(52.860660196524,-166.5481758473,
    5.735487141938));
#137 = CARTESIAN_POINT('',(53.624763822723,-206.2927069523,
    6.554907297511));
#138 = CARTESIAN_POINT('',(53.118215352374,-233.1513762124,
    6.864813910203));
#139 = CARTESIAN_POINT('',(53.118157307031,-284.8395365046,
    7.201553672463));
#140 = CARTESIAN_POINT('',(56.302036286146,-311.1284473112,
    7.592965047248));
#141 = CARTESIAN_POINT('',(49.590400058856,-361.3922139333,
    6.539115969839));
#142 = CARTESIAN_POINT('',(43.735495773809,-390.4308786958,
    5.903167260353));
#143 = CARTESIAN_POINT('',(25.508543718366,-417.9784324673,
    2.549027541836));
#144 = CARTESIAN_POINT('',(19.288525941291,-425.0688263349,
    1.374362798983));
#145 = CARTESIAN_POINT('',(12.14623701743,-431.2424824609,
    -4.11821229207E-05));
#146 = CARTESIAN_POINT('',(48.498750370158,-129.971300858,
    14.818148279318));
#147 = CARTESIAN_POINT('',(48.451195194543,-133.3243787994,
    14.767408316416));
#148 = CARTESIAN_POINT('',(48.451194726721,-136.6577121327,
    14.767407690731));
#149 = CARTESIAN_POINT('',(48.694921159878,-153.6406396424,
    15.02745518996));
#150 = CARTESIAN_POINT('',(50.839674266871,-166.5481758473,
    17.149074078578));
#151 = CARTESIAN_POINT('',(52.83948237868,-206.2927069523,
    19.776586304831));
#152 = CARTESIAN_POINT('',(51.658633117167,-233.1513762124,
    20.594219011714));
#153 = CARTESIAN_POINT('',(51.702062004286,-284.8395365046,
    21.604515003819));
#154 = CARTESIAN_POINT('',(54.825998836726,-311.1284473112,
    22.827714574752));
#155 = CARTESIAN_POINT('',(48.149905087072,-361.3922139333,
    19.562860614842));
#156 = CARTESIAN_POINT('',(42.634269144414,-389.7487581376,
    17.200846739467));
#157 = CARTESIAN_POINT('',(24.1071181143,-418.2579468523,7.371101463082)
  );
#158 = CARTESIAN_POINT('',(17.755906865976,-425.7423924699,
    3.961673023873));
#159 = CARTESIAN_POINT('',(10.438679433843,-432.4246377111,
    -4.11821229207E-05));
#160 = CARTESIAN_POINT('',(40.233819395708,-129.971300858,
    28.018469720232));
#161 = CARTESIAN_POINT('',(40.167024407582,-133.3243787994,
    27.911333339883));
#162 = CARTESIAN_POINT('',(40.167026598389,-136.6577121327,
    27.911333917415));
#163 = CARTESIAN_POINT('',(40.509390692522,-153.6406396424,
    28.460439617101));
#164 = CARTESIAN_POINT('',(43.48745446344,-166.5481758473,
    32.937652886244));
#165 = CARTESIAN_POINT('',(46.398514526761,-206.2927069523,
    38.493285224197));
#166 = CARTESIAN_POINT('',(45.19286485335,-233.1513762124,
    40.259469706209));
#167 = CARTESIAN_POINT('',(45.408018683887,-284.8395365046,
    42.392928050276));
#168 = CARTESIAN_POINT('',(48.06707409534,-311.1284473112,
    44.776968637113));
#169 = CARTESIAN_POINT('',(41.993691401962,-361.3922139333,
    38.22201653674));
#170 = CARTESIAN_POINT('',(37.044641557389,-388.7255773003,
    32.909326004595));
#171 = CARTESIAN_POINT('',(20.26332528027,-418.6772184297,
    14.014498130789));
#172 = CARTESIAN_POINT('',(14.508717531677,-426.7527416725,
    7.512277654253));
#173 = CARTESIAN_POINT('',(7.877343058463,-434.1978705863,
    -4.11821229207E-05));
#174 = CARTESIAN_POINT('',(29.278887220139,-129.971300858,
    39.088569154618));
#175 = CARTESIAN_POINT('',(29.215890927218,-133.3243787994,
    38.929812698014));
#176 = CARTESIAN_POINT('',(29.215890178027,-136.6577121327,
    38.929812481518));
#177 = CARTESIAN_POINT('',(29.538752920683,-153.6406396424,
    39.743474616172));
#178 = CARTESIAN_POINT('',(32.295370324541,-166.5481758473,
    46.318154935558));
#179 = CARTESIAN_POINT('',(35.194803012251,-206.2927069523,
    54.727345476364));
#180 = CARTESIAN_POINT('',(34.745940284321,-233.1513762124,
    58.108657420068));
#181 = CARTESIAN_POINT('',(35.172006922157,-284.8395365046,
    61.576034637456));
#182 = CARTESIAN_POINT('',(37.031633428469,-311.1284473112,
    64.929085019541));
#183 = CARTESIAN_POINT('',(32.110183080362,-361.3922139333,
    55.193533095923));
#184 = CARTESIAN_POINT('',(27.925062298538,-387.7023964631,
    46.474765487824));
#185 = CARTESIAN_POINT('',(14.874452774401,-419.0964900072,
    19.655927616208));
#186 = CARTESIAN_POINT('',(10.423858649678,-427.763090875,
    10.505504752367));
#187 = CARTESIAN_POINT('',(5.316006683083,-435.9711034616,
    -4.11821229207E-05));
#188 = CARTESIAN_POINT('',(20.537938526826,-129.971300858,
    44.691684096964));
#189 = CARTESIAN_POINT('',(20.490177245113,-133.3243787994,
    44.50657376895));
#190 = CARTESIAN_POINT('',(20.490174648245,-136.6577121327,
    44.506569655173));
#191 = CARTESIAN_POINT('',(20.734934137706,-153.6406396424,
    45.455259031711));
#192 = CARTESIAN_POINT('',(22.774856253522,-166.5481758473,
    53.026245690126));
#193 = CARTESIAN_POINT('',(25.12101743732,-206.2927069523,63.11257782232
    ));
#194 = CARTESIAN_POINT('',(25.449971415046,-233.1513762124,
    68.26492673447));
#195 = CARTESIAN_POINT('',(25.972149844198,-284.8395365046,
    72.806793531695));
#196 = CARTESIAN_POINT('',(27.121832231003,-311.1284473112,
    76.618651500072));
#197 = CARTESIAN_POINT('',(23.3270386816,-361.3922139333,64.893199344279
    ));
#198 = CARTESIAN_POINT('',(19.90407883126,-387.0202759049,
    53.572116801432));
#199 = CARTESIAN_POINT('',(10.448238825042,-419.3760043921,
    22.515985722759));
#200 = CARTESIAN_POINT('',(7.252180520119,-428.43665701,12.001728641933)
  );
#201 = CARTESIAN_POINT('',(3.608449099496,-437.1532587118,
    -4.11821229207E-05));
#202 = CARTESIAN_POINT('',(14.736468194967,-129.971300858,
    47.563818343004));
#203 = CARTESIAN_POINT('',(14.70100595655,-133.3243787994,47.36589070931
    ));
#204 = CARTESIAN_POINT('',(14.701006361323,-136.6577121327,
    47.365890474132));
#205 = CARTESIAN_POINT('',(14.882763180676,-153.6406396424,
    48.380314082853));
#206 = CARTESIAN_POINT('',(16.356290702203,-166.5481758473,
    56.395356169655));
#207 = CARTESIAN_POINT('',(18.220211229019,-206.2927069523,
    67.417860403604));
#208 = CARTESIAN_POINT('',(19.020918528779,-233.1513762124,
    73.947971033276));
#209 = CARTESIAN_POINT('',(19.562069181307,-284.8395365046,
    79.227642569143));
#210 = CARTESIAN_POINT('',(20.229716572808,-311.1284473112,
    83.254315101585));
#211 = CARTESIAN_POINT('',(17.249261782085,-361.3922139333,
    70.339843897469));
#212 = CARTESIAN_POINT('',(14.426468998064,-386.5923870582,
    57.28558472039));
#213 = CARTESIAN_POINT('',(7.487260027118,-419.5513415615,
    23.970959322763));
#214 = CARTESIAN_POINT('',(5.164942151031,-428.8591797346,
    12.752825002749));
#215 = CARTESIAN_POINT('',(2.537311693667,-437.8948153773,
    -4.11821229207E-05));
#216 = CARTESIAN_POINT('',(13.542839693952,-129.971300858,
    48.113571788062));
#217 = CARTESIAN_POINT('',(13.510010366991,-133.3243787994,
    47.913227773926));
#218 = CARTESIAN_POINT('',(13.510009926775,-136.6577121327,
    47.913226376942));
#219 = CARTESIAN_POINT('',(13.678263182916,-153.6406396424,
    48.940021753452));
#220 = CARTESIAN_POINT('',(15.035506972451,-166.5481758473,
    57.040911427743));
#221 = CARTESIAN_POINT('',(16.781321917378,-206.2927069523,
    68.233405113191));
#222 = CARTESIAN_POINT('',(17.604831653716,-233.1513762124,
    74.980272535718));
#223 = CARTESIAN_POINT('',(18.151640887804,-284.8395365046,
    80.417072972201));
#224 = CARTESIAN_POINT('',(18.782600080355,-311.1284473112,
    84.550338755945));
#225 = CARTESIAN_POINT('',(16.002002901516,-361.3922139333,
    71.428442115713));
#226 = CARTESIAN_POINT('',(13.292156927182,-386.5055584905,
    58.001458264626));
#227 = CARTESIAN_POINT('',(6.877011629635,-419.5869215384,
    24.248937840567));
#228 = CARTESIAN_POINT('',(4.736442986845,-428.9449193916,
    12.895734447709));
#229 = CARTESIAN_POINT('',(2.319953079632,-438.0452944178,
    -4.11821229207E-05));
#230 = CARTESIAN_POINT('',(12.012602794122,-129.971300858,
    48.766908685136));
#231 = CARTESIAN_POINT('',(11.983263907645,-133.3243787994,
    48.563762915232));
#232 = CARTESIAN_POINT('',(11.983263939508,-136.6577121327,
    48.563762136224));
#233 = CARTESIAN_POINT('',(12.133633058326,-153.6406396424,
    49.604923989524));
#234 = CARTESIAN_POINT('',(13.341373953913,-166.5481758473,
    57.80927996951));
#235 = CARTESIAN_POINT('',(14.917018531433,-206.2927069523,
    69.18745026497));
#236 = CARTESIAN_POINT('',(15.699371584919,-233.1513762124,
    76.111467709746));
#237 = CARTESIAN_POINT('',(16.25385076446,-284.8395365046,
    81.757794922611));
#238 = CARTESIAN_POINT('',(16.895098667983,-311.1284473112,
    86.122157679434));
#239 = CARTESIAN_POINT('',(14.401679739227,-361.3922139333,
    72.788306610477));
#240 = CARTESIAN_POINT('',(11.829272448381,-386.3955791299,
    58.858205362729));
#241 = CARTESIAN_POINT('',(6.09341720717,-419.6319880782,24.578118057179
    ));
#242 = CARTESIAN_POINT('',(4.188086558859,-429.0535195093,
    13.064064864057));
#243 = CARTESIAN_POINT('',(2.044640909361,-438.2358951511,
    -4.11821229207E-05));
#244 = CARTESIAN_POINT('',(11.689456123575,-129.971300858,
    48.902024946697));
#245 = CARTESIAN_POINT('',(11.660860222925,-133.3243787994,
    48.698303152358));
#246 = CARTESIAN_POINT('',(11.660860142292,-136.6577121327,
    48.698302283848));
#247 = CARTESIAN_POINT('',(11.807420037111,-153.6406396424,
    49.74241538991));
#248 = CARTESIAN_POINT('',(12.983577837168,-166.5481758473,
    57.968281861044));
#249 = CARTESIAN_POINT('',(14.522262005268,-206.2927069523,
    69.383897930274));
#250 = CARTESIAN_POINT('',(15.293316812386,-233.1513762124,
    76.34125919465));
#251 = CARTESIAN_POINT('',(15.846989063082,-284.8395365046,
    82.029356429294));
#252 = CARTESIAN_POINT('',(16.488142343399,-311.1284473112,
    86.441266469057));
#253 = CARTESIAN_POINT('',(14.056601776984,-361.3922139333,
    73.065075394989));
#254 = CARTESIAN_POINT('',(11.519230705282,-386.3724283369,
    59.035002828836));
#255 = CARTESIAN_POINT('',(5.928154449977,-419.6414746413,
    24.646469171049));
#256 = CARTESIAN_POINT('',(4.072621921974,-429.0763799699,
    13.099125581065));
#257 = CARTESIAN_POINT('',(1.986687353124,-438.2760168439,
    -4.11821229207E-05));
#258 = CARTESIAN_POINT('',(10.97198863219,-129.971300858,49.195725076449
    ));
#259 = CARTESIAN_POINT('',(10.945055893979,-133.3243787994,
    48.99076075515));
#260 = CARTESIAN_POINT('',(10.945055826124,-136.6577121327,
    48.990759740431));
#261 = CARTESIAN_POINT('',(11.083091778183,-153.6406396424,
    50.041239539405));
#262 = CARTESIAN_POINT('',(12.189048828327,-166.5481758473,
    58.314072522123));
#263 = CARTESIAN_POINT('',(13.643555422845,-206.2927069523,
    69.808782476174));
#264 = CARTESIAN_POINT('',(14.384272295667,-233.1513762124,
    76.830880430335));
#265 = CARTESIAN_POINT('',(14.931232343286,-284.8395365046,
    82.605985338794));
#266 = CARTESIAN_POINT('',(15.56759628881,-311.1284473112,
    87.120542642852));
#267 = CARTESIAN_POINT('',(13.275948297402,-361.3922139333,
    73.655856993161));
#268 = CARTESIAN_POINT('',(10.828493772038,-386.3211852798,
    59.418259500072));
#269 = CARTESIAN_POINT('',(5.561623010339,-419.6624726473,
    24.795650690754));
#270 = CARTESIAN_POINT('',(3.816920810237,-429.1269803916,
    13.175904233625));
#271 = CARTESIAN_POINT('',(1.858410218448,-438.364824091,
    -4.11821229207E-05));
#272 = CARTESIAN_POINT('',(10.575238901169,-129.971300858,
    49.348373242037));
#273 = CARTESIAN_POINT('',(10.549199182339,-133.3243787994,49.1426741325
    ));
#274 = CARTESIAN_POINT('',(10.549199192442,-136.6577121327,
    49.14267352656));
#275 = CARTESIAN_POINT('',(10.682659032348,-153.6406396424,
    50.196923683902));
#276 = CARTESIAN_POINT('',(11.751342993665,-166.5481758473,
    58.498499982552));
#277 = CARTESIAN_POINT('',(13.159415322694,-206.2927069523,
    70.037177065316));
#278 = CARTESIAN_POINT('',(13.87913678621,-233.1513762124,
    77.086695509619));
#279 = CARTESIAN_POINT('',(14.419117849697,-284.8395365046,
    82.905811396415));
#280 = CARTESIAN_POINT('',(15.049727467297,-311.1284473112,
    87.474733173506));
#281 = CARTESIAN_POINT('',(12.836705728543,-361.3922139333,
    73.964995794042));
#282 = CARTESIAN_POINT('',(10.446847321229,-386.2930930158,
    59.622950298477));
#283 = CARTESIAN_POINT('',(5.360203903299,-419.6739840903,
    24.876018619289));
#284 = CARTESIAN_POINT('',(3.676660359732,-429.1547203527,
    13.217429088239));
#285 = CARTESIAN_POINT('',(1.788086640008,-438.4135096453,
    -4.11821229207E-05));
#286 = CARTESIAN_POINT('',(9.688328212462,-129.971300858,49.668159700298
    ));
#287 = CARTESIAN_POINT('',(9.664236130269,-133.3243787994,
    49.460705203331));
#288 = CARTESIAN_POINT('',(9.66423593925,-136.6577121327,49.4607037706)
  );
#289 = CARTESIAN_POINT('',(9.787711527397,-153.6406396424,
    50.523941793336));
#290 = CARTESIAN_POINT('',(10.775914584549,-166.5481758473,
    58.89617700435));
#291 = CARTESIAN_POINT('',(12.080270468546,-206.2927069523,
    70.533768118112));
#292 = CARTESIAN_POINT('',(12.744980780299,-233.1513762124,
    77.625444447144));
#293 = CARTESIAN_POINT('',(13.263000560026,-284.8395365046,
    83.533645631933));
#294 = CARTESIAN_POINT('',(13.874693767286,-311.1284473112,
    88.218870188017));
#295 = CARTESIAN_POINT('',(11.839911601858,-361.3922139333,
    74.617129720528));
#296 = CARTESIAN_POINT('',(9.594115372666,-386.2307754823,60.06506032697
    ));
#297 = CARTESIAN_POINT('',(4.912329856665,-419.6995201144,
    25.051311166384));
#298 = CARTESIAN_POINT('',(3.365307701871,-429.2162563666,
    13.308455346461));
#299 = CARTESIAN_POINT('',(1.632086684315,-438.5215096146,
    -4.11821229207E-05));
#300 = CARTESIAN_POINT('',(9.196675766359,-129.971300858,49.83113311318)
  );
#301 = CARTESIAN_POINT('',(9.173694853224,-133.3243787994,
    49.622782246107));
#302 = CARTESIAN_POINT('',(9.173694990826,-136.6577121327,
    49.622782057736));
#303 = CARTESIAN_POINT('',(9.291479097892,-153.6406396424,
    50.690627608373));
#304 = CARTESIAN_POINT('',(10.23385758628,-166.5481758473,
    59.098975021945));
#305 = CARTESIAN_POINT('',(11.478825201038,-206.2927069523,
    70.787189183478));
#306 = CARTESIAN_POINT('',(12.11236462048,-233.1513762124,
    77.900522365625));
#307 = CARTESIAN_POINT('',(12.615147766678,-284.8395365046,
    83.854598425241));
#308 = CARTESIAN_POINT('',(13.211543377785,-311.1284473112,
    88.598868196446));
#309 = CARTESIAN_POINT('',(11.277201961989,-361.3922139333,
    74.951916740189));
#310 = CARTESIAN_POINT('',(9.121610657604,-386.1965502129,
    60.299464736951));
#311 = CARTESIAN_POINT('',(4.665615125514,-419.7135446956,
    25.145425126257));
#312 = CARTESIAN_POINT('',(3.194142679719,-429.2500524194,
    13.357581270732));
#313 = CARTESIAN_POINT('',(1.546410307061,-438.5808240296,
    -4.11821229207E-05));
#314 = CARTESIAN_POINT('',(5.885020087321,-129.971300858,50.83512787937)
  );
#315 = CARTESIAN_POINT('',(5.869694959977,-133.3243787994,
    50.621217993115));
#316 = CARTESIAN_POINT('',(5.869693747776,-136.6577121327,50.62121308629
    ));
#317 = CARTESIAN_POINT('',(5.948225652555,-153.6406396424,
    51.717499030312));
#318 = CARTESIAN_POINT('',(6.575213142616,-166.5481758473,
    60.349409575656));
#319 = CARTESIAN_POINT('',(7.409567760128,-206.2927069523,
    72.351208501034));
#320 = CARTESIAN_POINT('',(7.828917523701,-233.1513762124,
    79.597836118517));
#321 = CARTESIAN_POINT('',(8.212183170516,-284.8395365046,
    85.838519311128));
#322 = CARTESIAN_POINT('',(8.679719916053,-311.1284473112,
    90.947288443716));
#323 = CARTESIAN_POINT('',(7.430964784365,-361.3922139333,
    77.034632388319));
#324 = CARTESIAN_POINT('',(5.939303866245,-385.9678198404,
    61.813236305764));
#325 = CARTESIAN_POINT('',(3.012118310761,-419.8072721586,
    25.761882697814));
#326 = CARTESIAN_POINT('',(2.049100096201,-429.4759143014,13.68170491346
    ));
#327 = CARTESIAN_POINT('',(0.973827825041,-438.9772272864,
    -4.11821229207E-05));
#328 = CARTESIAN_POINT('',(2.942682406368,-129.971300858,51.270965150536
    ));
#329 = CARTESIAN_POINT('',(2.935015996991,-133.3243787994,
    51.054571809546));
#330 = CARTESIAN_POINT('',(2.935014531841,-136.6577121327,
    51.054563805519));
#331 = CARTESIAN_POINT('',(2.974290974684,-153.6406396424,
    52.163544644713));
#332 = CARTESIAN_POINT('',(3.287907391357,-166.5481758473,
    60.895078170717));
#333 = CARTESIAN_POINT('',(3.70528984725,-206.2927069523,73.037594564155
    ));
#334 = CARTESIAN_POINT('',(3.914966909322,-233.1513762124,80.34360347139
    ));
#335 = CARTESIAN_POINT('',(4.107097198835,-284.8395365046,
    86.719241316856));
#336 = CARTESIAN_POINT('',(4.341484797657,-311.1284473112,
    92.001158519409));
#337 = CARTESIAN_POINT('',(3.717555540587,-361.3922139333,
    77.974702066316));
#338 = CARTESIAN_POINT('',(2.97288589186,-385.7733147372,62.495831581058
    ));
#339 = CARTESIAN_POINT('',(1.507655860175,-419.8869750405,
    26.040070667687));
#340 = CARTESIAN_POINT('',(1.025474819007,-429.6679801305,
    13.828040963208));
#341 = CARTESIAN_POINT('',(0.486921720275,-439.3143161282,
    -4.11821229207E-05));
#342 = CARTESIAN_POINT('',(2.161396395838E-05,-129.971300858,
    51.270965150537));
#343 = CARTESIAN_POINT('',(2.16139640286E-05,-133.3243787994,
    51.054581239847));
#344 = CARTESIAN_POINT('',(2.161396402342E-05,-136.6577121327,
    51.054581239847));
#345 = CARTESIAN_POINT('',(2.161396361045E-05,-153.6406396424,
    52.163600063278));
#346 = CARTESIAN_POINT('',(2.161396002683E-05,-166.5481758473,
    60.894960323383));
#347 = CARTESIAN_POINT('',(2.161395727266E-05,-206.2927069523,
    73.03731891774));
#348 = CARTESIAN_POINT('',(2.161396112691E-05,-233.1513762124,
    80.343741087248));
#349 = CARTESIAN_POINT('',(2.161396190171E-05,-284.8395365046,
    86.7189759149));
#350 = CARTESIAN_POINT('',(2.161396156343E-05,-311.1284473112,
    91.997210955084));
#351 = CARTESIAN_POINT('',(2.161396162581E-05,-361.3922139333,
    77.975975847526));
#352 = CARTESIAN_POINT('',(2.507515566265E-05,-385.578809634,
    62.520947734019));
#353 = CARTESIAN_POINT('',(2.019565892453E-05,-419.9666779224,
    26.053786281103));
#354 = CARTESIAN_POINT('',(1.819617434915E-05,-429.8600459597,
    13.835924971879));
#355 = CARTESIAN_POINT('',(1.561550799556E-05,-439.6514049699,
    -4.11821229207E-05));
#356 = DEFINITIONAL_REPRESENTATION('',(#357),#372);
#357 = B_SPLINE_CURVE_WITH_KNOTS('',7,(#358,#359,#360,#361,#362,#363,
    #364,#365,#366,#367,#368,#369,#370,#371),.UNSPECIFIED.,.F.,.F.,(8,6,
    8),(0.,0.396864762765,1.),.UNSPECIFIED.);
#358 = CARTESIAN_POINT('',(0.472727272727,0.522668133138));
#359 = CARTESIAN_POINT('',(0.471255819919,0.522868990356));
#360 = CARTESIAN_POINT('',(0.469795061473,0.523084080067));
#361 = CARTESIAN_POINT('',(0.468346055694,0.523314690439));
#362 = CARTESIAN_POINT('',(0.466911171134,0.523562478918));
#363 = CARTESIAN_POINT('',(0.465493963964,0.523829350939));
#364 = CARTESIAN_POINT('',(0.464099577766,0.524117865934));
#365 = CARTESIAN_POINT('',(0.460662860361,0.524909835269));
#366 = CARTESIAN_POINT('',(0.458717416769,0.525434381318));
#367 = CARTESIAN_POINT('',(0.456805305268,0.52603809405));
#368 = CARTESIAN_POINT('',(0.455023081462,0.526753795229));
#369 = CARTESIAN_POINT('',(0.453519876294,0.527588891156));
#370 = CARTESIAN_POINT('',(0.452717426615,0.528564486282));
#371 = CARTESIAN_POINT('',(0.452846890722,0.529610957198));
#372 = ( GEOMETRIC_REPRESENTATION_CONTEXT(2) 
PARAMETRIC_REPRESENTATION_CONTEXT() REPRESENTATION_CONTEXT('2D SPACE',''
  ) );
#373 = ORIENTED_EDGE('',*,*,#374,.F.);
#374 = EDGE_CURVE('',#22,#80,#375,.T.);
#375 = SURFACE_CURVE('',#376,(#491,#609),.PCURVE_S1.);
#376 = B_SPLINE_CURVE_WITH_KNOTS('',8,(#377,#378,#379,#380,#381,#382,
    #383,#384,#385,#386,#387,#388,#389,#390,#391,#392,#393,#394,#395,
    #396,#397,#398,#399,#400,#401,#402,#403,#404,#405,#406,#407,#408,
    #409,#410,#411,#412,#413,#414,#415,#416,#417,#418,#419,#420,#421,
    #422,#423,#424,#425,#426,#427,#428,#429,#430,#431,#432,#433,#434,
    #435,#436,#437,#438,#439,#440,#441,#442,#443,#444,#445,#446,#447,
    #448,#449,#450,#451,#452,#453,#454,#455,#456,#457,#458,#459,#460,
    #461,#462,#463,#464,#465,#466,#467,#468,#469,#470,#471,#472,#473,
    #474,#475,#476,#477,#478,#479,#480,#481,#482,#483,#484,#485,#486,
    #487,#488,#489,#490),.UNSPECIFIED.,.F.,.F.,(9,7,7,7,7,7,7,7,7,7,7,7,
    7,7,7,7,9),(0.,5.124782982495E-02,8.378516950276E-02,0.133510998229,
    0.181891130725,0.26781841745,0.374719222759,0.426575797374,
    0.483147798977,0.549031296409,0.587191511204,0.630132300225,
    0.693656595029,0.778349382672,0.863125730545,0.928663738282,1.),
  .UNSPECIFIED.);
#377 = CARTESIAN_POINT('',(43.,-300.,48.805006292288));
#378 = CARTESIAN_POINT('',(43.,-300.201219678,48.817429420692));
#379 = CARTESIAN_POINT('',(42.9840284828,-300.3922280589,48.861252950165
    ));
#380 = CARTESIAN_POINT('',(42.955939875826,-300.5703467693,
    48.928464590421));
#381 = CARTESIAN_POINT('',(42.918937234085,-300.7341133853,
    49.012451428679));
#382 = CARTESIAN_POINT('',(42.875572240163,-300.8832814319,
    49.107999929665));
#383 = CARTESIAN_POINT('',(42.827745204226,-301.0188203835,
    49.211295935608));
#384 = CARTESIAN_POINT('',(42.77670506402,-301.1429156634,
    49.319924666245));
#385 = CARTESIAN_POINT('',(42.68898329731,-301.3326508915,
    49.504580371501));
#386 = CARTESIAN_POINT('',(42.653841924147,-301.4027083111,
    49.578049224688));
#387 = CARTESIAN_POINT('',(42.617777498625,-301.469478154,
    49.652986434913));
#388 = CARTESIAN_POINT('',(42.580918307292,-301.5332583635,
    49.72914756869));
#389 = CARTESIAN_POINT('',(42.543368690001,-301.5943075764,
    49.806334602517));
#390 = CARTESIAN_POINT('',(42.505209039911,-301.6528451221,
    49.884395922871));
#391 = CARTESIAN_POINT('',(42.466495803484,-301.7090510234,
    49.963226326213));
#392 = CARTESIAN_POINT('',(42.367300855413,-301.8456154385,
    50.164326645687));
#393 = CARTESIAN_POINT('',(42.306159998989,-301.9230431173,
    50.28747160435));
#394 = CARTESIAN_POINT('',(42.244000840251,-301.9959192535,
    50.41190232112));
#395 = CARTESIAN_POINT('',(42.180947021977,-302.0646590492,
    50.537389434389));
#396 = CARTESIAN_POINT('',(42.117094015297,-302.1295844031,
    50.663756345833));
#397 = CARTESIAN_POINT('',(42.052515498972,-302.1909636789,
    50.790867928049));
#398 = CARTESIAN_POINT('',(41.987266003337,-302.2490295235,
    50.918625388791));
#399 = CARTESIAN_POINT('',(41.857276667452,-302.3574330067,
    51.171835965291));
#400 = CARTESIAN_POINT('',(41.792936936315,-302.4076328369,
    51.296544748295));
#401 = CARTESIAN_POINT('',(41.728368980594,-302.4548425959,
    51.421094807869));
#402 = CARTESIAN_POINT('',(41.663577172564,-302.4992717824,
    51.545491375588));
#403 = CARTESIAN_POINT('',(41.598564030538,-302.5410879958,
    51.669740629806));
#404 = CARTESIAN_POINT('',(41.533331745507,-302.5804290359,
    51.793847506619));
#405 = CARTESIAN_POINT('',(41.467883105609,-302.6174101333,
    51.917814439523));
#406 = CARTESIAN_POINT('',(41.285601710891,-302.7137852371,
    52.261567724988));
#407 = CARTESIAN_POINT('',(41.167715835433,-302.7686148836,
    52.482173769682));
#408 = CARTESIAN_POINT('',(41.048650546172,-302.8169800887,
    52.703302773267));
#409 = CARTESIAN_POINT('',(40.928479423239,-302.8591262247,
    52.924820023441));
#410 = CARTESIAN_POINT('',(40.807266132426,-302.8952150861,
    53.146608352215));
#411 = CARTESIAN_POINT('',(40.685066134408,-302.925346999,
    53.368565446063));
#412 = CARTESIAN_POINT('',(40.561927243487,-302.9495691509,
    53.590602598149));
#413 = CARTESIAN_POINT('',(40.283575024753,-302.9906381259,
    54.08888429141));
#414 = CARTESIAN_POINT('',(40.127895636514,-303.004238357,
    54.365084175377));
#415 = CARTESIAN_POINT('',(39.970921678595,-303.0086567237,
    54.641111518127));
#416 = CARTESIAN_POINT('',(39.812737796089,-303.0037428737,
    54.916806124622));
#417 = CARTESIAN_POINT('',(39.653444806444,-302.9892173009,
    55.191978664239));
#418 = CARTESIAN_POINT('',(39.493161147851,-302.9646721908,
    55.466409894401));
#419 = CARTESIAN_POINT('',(39.332024225868,-302.9295336879,
    55.739848159898));
#420 = CARTESIAN_POINT('',(39.091689367868,-302.8603575118,
    56.144021627387));
#421 = CARTESIAN_POINT('',(39.01294826221,-302.8350477283,
    56.275864142988));
#422 = CARTESIAN_POINT('',(38.933969080155,-302.8069133783,
    56.407525126543));
#423 = CARTESIAN_POINT('',(38.854750948021,-302.7758224205,
    56.539000259627));
#424 = CARTESIAN_POINT('',(38.775292233579,-302.7416188889,
    56.670285268787));
#425 = CARTESIAN_POINT('',(38.695590949822,-302.7041155846,
    56.801374869613));
#426 = CARTESIAN_POINT('',(38.615645493061,-302.6630818617,
    56.932260954696));
#427 = CARTESIAN_POINT('',(38.447974113137,-302.5692923593,
    57.205481108632));
#428 = CARTESIAN_POINT('',(38.360194814871,-302.5158066039,
    57.347785211543));
#429 = CARTESIAN_POINT('',(38.272128407768,-302.4573909951,
    57.489806863992));
#430 = CARTESIAN_POINT('',(38.183767868382,-302.3935846435,
    57.631535865106));
#431 = CARTESIAN_POINT('',(38.095099385993,-302.3237706138,
    57.772965488361));
#432 = CARTESIAN_POINT('',(38.006103714201,-302.247154917,
    57.914088279846));
#433 = CARTESIAN_POINT('',(37.916770546646,-302.1626488618,
    58.054867014427));
#434 = CARTESIAN_POINT('',(37.722774880586,-301.9588670769,
    58.358497766624));
#435 = CARTESIAN_POINT('',(37.62078777469,-301.8390693479,
    58.516820237379));
#436 = CARTESIAN_POINT('',(37.52059109576,-301.7068572459,
    58.671022985035));
#437 = CARTESIAN_POINT('',(37.422698800446,-301.5596858555,
    58.820191366679));
#438 = CARTESIAN_POINT('',(37.328515668756,-301.3953600358,
    58.962020114725));
#439 = CARTESIAN_POINT('',(37.240840160235,-301.2110332635,
    59.092014459246));
#440 = CARTESIAN_POINT('',(37.163164497765,-301.0050212423,
    59.204735597952));
#441 = CARTESIAN_POINT('',(37.06542942818,-300.6384778455,
    59.340984981604));
#442 = CARTESIAN_POINT('',(37.034434094589,-300.4937964191,
    59.382703382031));
#443 = CARTESIAN_POINT('',(37.01078742438,-300.3416309748,
    59.412422445561));
#444 = CARTESIAN_POINT('',(36.996134317938,-300.1848569834,
    59.427728046495));
#445 = CARTESIAN_POINT('',(36.991266966771,-300.0264654608,
    59.427537350133));
#446 = CARTESIAN_POINT('',(36.996124853517,-299.8695629673,
    59.412098812783));
#447 = CARTESIAN_POINT('',(37.009794751938,-299.7173716084,
    59.382992181752));
#448 = CARTESIAN_POINT('',(37.053821924626,-299.4110287979,
    59.298270829946));
#449 = CARTESIAN_POINT('',(37.086231661902,-299.2581094663,
    59.239469957925));
#450 = CARTESIAN_POINT('',(37.125761367873,-299.114783401,59.16980740749
    ));
#451 = CARTESIAN_POINT('',(37.170767127639,-298.9810459832,
    59.091828995742));
#452 = CARTESIAN_POINT('',(37.219939682285,-298.856575614,
    59.007544828686));
#453 = CARTESIAN_POINT('',(37.27230442888,-298.7407337142,
    58.918429301229));
#454 = CARTESIAN_POINT('',(37.327221420478,-298.6325647241,
    58.825421097182));
#455 = CARTESIAN_POINT('',(37.468950634191,-298.3802450791,
    58.586169371952));
#456 = CARTESIAN_POINT('',(37.558062808473,-298.244791654,
    58.436419377468));
#457 = CARTESIAN_POINT('',(37.650360307355,-298.1217300429,
    58.281628419681));
#458 = CARTESIAN_POINT('',(37.744981986847,-298.0096233885,
    58.12304748356));
#459 = CARTESIAN_POINT('',(37.841265301139,-297.9071912053,
    57.961637939687));
#460 = CARTESIAN_POINT('',(37.938792149593,-297.8134644954,
    57.797998800134));
#461 = CARTESIAN_POINT('',(38.037312643523,-297.727565459,
    57.632467585361));
#462 = CARTESIAN_POINT('',(38.269347268234,-297.5436897956,
    57.241934916035));
#463 = CARTESIAN_POINT('',(38.403309609712,-297.4514410423,
    57.015956119442));
#464 = CARTESIAN_POINT('',(38.538173880168,-297.3704120823,
    56.787794390877));
#465 = CARTESIAN_POINT('',(38.673594712466,-297.2995596558,
    56.55792898721));
#466 = CARTESIAN_POINT('',(38.809309227724,-297.2380821188,
    56.326729122116));
#467 = CARTESIAN_POINT('',(38.945122922276,-297.1853290907,
    56.094467703369));
#468 = CARTESIAN_POINT('',(39.080907249567,-297.1407998733,
    55.861321055534));
#469 = CARTESIAN_POINT('',(39.352404925638,-297.0673533331,
    55.393206126825));
#470 = CARTESIAN_POINT('',(39.488072671442,-297.0384641063,
    55.158314583811));
#471 = CARTESIAN_POINT('',(39.623484495133,-297.017031161,
    54.922855621818));
#472 = CARTESIAN_POINT('',(39.758547155103,-297.0027701442,
    54.686966643963));
#473 = CARTESIAN_POINT('',(39.89317989431,-296.9954796683,
    54.450772672962));
#474 = CARTESIAN_POINT('',(40.027312956636,-296.9950257484,
    54.214387392208));
#475 = CARTESIAN_POINT('',(40.16088678956,-297.0013392258,
    53.977913758592));
#476 = CARTESIAN_POINT('',(40.396643228471,-297.0245433029,53.5586367768
    ));
#477 = CARTESIAN_POINT('',(40.49906456249,-297.0387078716,
    53.375842795036));
#478 = CARTESIAN_POINT('',(40.601091815026,-297.0569211361,
    53.193107291556));
#479 = CARTESIAN_POINT('',(40.70269927076,-297.0792106112,
    53.010480860342));
#480 = CARTESIAN_POINT('',(40.803859660854,-297.1056292808,
    52.82801970971));
#481 = CARTESIAN_POINT('',(40.904544139988,-297.1362587356,
    52.64578610289));
#482 = CARTESIAN_POINT('',(41.004722198818,-297.1712162404,
    52.463849169097));
#483 = CARTESIAN_POINT('',(41.212816076739,-297.2536053869,
    52.084659820122));
#484 = CARTESIAN_POINT('',(41.32061365754,-297.3018594618,51.88751053347
    ));
#485 = CARTESIAN_POINT('',(41.427728256288,-297.355644249,
    51.690909747729));
#486 = CARTESIAN_POINT('',(41.534113063277,-297.4152347518,
    51.494972664139));
#487 = CARTESIAN_POINT('',(41.639699034617,-297.4809916404,
    51.299864589583));
#488 = CARTESIAN_POINT('',(41.744395077658,-297.5533708987,
    51.105803045906));
#489 = CARTESIAN_POINT('',(41.848085444472,-297.6329779153,
    50.913068300774));
#490 = CARTESIAN_POINT('',(41.950619933546,-297.7207277751,
    50.722035059309));
#491 = PCURVE('',#32,#492);
#492 = DEFINITIONAL_REPRESENTATION('',(#493),#608);
#493 = B_SPLINE_CURVE_WITH_KNOTS('',8,(#494,#495,#496,#497,#498,#499,
    #500,#501,#502,#503,#504,#505,#506,#507,#508,#509,#510,#511,#512,
    #513,#514,#515,#516,#517,#518,#519,#520,#521,#522,#523,#524,#525,
    #526,#527,#528,#529,#530,#531,#532,#533,#534,#535,#536,#537,#538,
    #539,#540,#541,#542,#543,#544,#545,#546,#547,#548,#549,#550,#551,
    #552,#553,#554,#555,#556,#557,#558,#559,#560,#561,#562,#563,#564,
    #565,#566,#567,#568,#569,#570,#571,#572,#573,#574,#575,#576,#577,
    #578,#579,#580,#581,#582,#583,#584,#585,#586,#587,#588,#589,#590,
    #591,#592,#593,#594,#595,#596,#597,#598,#599,#600,#601,#602,#603,
    #604,#605,#606,#607),.UNSPECIFIED.,.F.,.F.,(9,7,7,7,7,7,7,7,7,7,7,7,
    7,7,7,7,9),(0.,5.124782982495E-02,8.378516950276E-02,0.133510998229,
    0.181891130725,0.26781841745,0.374719222759,0.426575797374,
    0.483147798977,0.549031296409,0.587191511204,0.630132300225,
    0.693656595029,0.778349382672,0.863125730545,0.928663738282,1.),
  .UNSPECIFIED.);
#494 = CARTESIAN_POINT('',(6.28318530718,48.805006292288));
#495 = CARTESIAN_POINT('',(6.216112081165,48.817429420692));
#496 = CARTESIAN_POINT('',(6.152359450251,48.861252950165));
#497 = CARTESIAN_POINT('',(6.092507557488,48.928464590421));
#498 = CARTESIAN_POINT('',(6.036823040181,49.012451428679));
#499 = CARTESIAN_POINT('',(5.985259029888,49.107999929665));
#500 = CARTESIAN_POINT('',(5.937455152426,49.211295935608));
#501 = CARTESIAN_POINT('',(5.892737527863,49.319924666245));
#502 = CARTESIAN_POINT('',(5.823060044551,49.504580371501));
#503 = CARTESIAN_POINT('',(5.79694573157,49.578049224688));
#504 = CARTESIAN_POINT('',(5.771669037856,49.652986434913));
#505 = CARTESIAN_POINT('',(5.747135656561,49.72914756869));
#506 = CARTESIAN_POINT('',(5.723263767719,49.806334602517));
#507 = CARTESIAN_POINT('',(5.699984038242,49.884395922871));
#508 = CARTESIAN_POINT('',(5.677239621924,49.963226326213));
#509 = CARTESIAN_POINT('',(5.620976868113,50.164326645687));
#510 = CARTESIAN_POINT('',(5.588117603446,50.28747160435));
#511 = CARTESIAN_POINT('',(5.556226791699,50.41190232112));
#512 = CARTESIAN_POINT('',(5.525172912802,50.537389434389));
#513 = CARTESIAN_POINT('',(5.494853758646,50.663756345833));
#514 = CARTESIAN_POINT('',(5.4651828098,50.790867928049));
#515 = CARTESIAN_POINT('',(5.436082730636,50.918625388791));
#516 = CARTESIAN_POINT('',(5.379663129428,51.171835965291));
#517 = CARTESIAN_POINT('',(5.352475325837,51.296544748295));
#518 = CARTESIAN_POINT('',(5.325834692644,51.421094807869));
#519 = CARTESIAN_POINT('',(5.29967091862,51.545491375588));
#520 = CARTESIAN_POINT('',(5.273926058762,51.669740629806));
#521 = CARTESIAN_POINT('',(5.248550864487,51.793847506619));
#522 = CARTESIAN_POINT('',(5.223502646051,51.917814439523));
#523 = CARTESIAN_POINT('',(5.154772362003,52.261567724988));
#524 = CARTESIAN_POINT('',(5.111490984211,52.482173769682));
#525 = CARTESIAN_POINT('',(5.068740026408,52.703302773267));
#526 = CARTESIAN_POINT('',(5.026389646847,52.924820023441));
#527 = CARTESIAN_POINT('',(4.98432841464,53.146608352215));
#528 = CARTESIAN_POINT('',(4.942454312651,53.368565446063));
#529 = CARTESIAN_POINT('',(4.900668998057,53.590602598149));
#530 = CARTESIAN_POINT('',(4.806880454348,54.08888429141));
#531 = CARTESIAN_POINT('',(4.754881432594,54.365084175377));
#532 = CARTESIAN_POINT('',(4.702687830523,54.641111518127));
#533 = CARTESIAN_POINT('',(4.650121194263,54.916806124623));
#534 = CARTESIAN_POINT('',(4.596998467584,55.191978664239));
#535 = CARTESIAN_POINT('',(4.543122650365,55.466409894401));
#536 = CARTESIAN_POINT('',(4.488266126211,55.739848159898));
#537 = CARTESIAN_POINT('',(4.404902007025,56.144021627387));
#538 = CARTESIAN_POINT('',(4.377345404798,56.275864142988));
#539 = CARTESIAN_POINT('',(4.349421439529,56.407525126543));
#540 = CARTESIAN_POINT('',(4.321083604199,56.539000259627));
#541 = CARTESIAN_POINT('',(4.292279029598,56.670285268787));
#542 = CARTESIAN_POINT('',(4.262946288096,56.801374869613));
#543 = CARTESIAN_POINT('',(4.233011706697,56.932260954696));
#544 = CARTESIAN_POINT('',(4.168971647703,57.205481108632));
#545 = CARTESIAN_POINT('',(4.134731959258,57.347785211543));
#546 = CARTESIAN_POINT('',(4.099549057164,57.489806863992));
#547 = CARTESIAN_POINT('',(4.063279145956,57.631535865106));
#548 = CARTESIAN_POINT('',(4.025729658899,57.772965488361));
#549 = CARTESIAN_POINT('',(3.986654801699,57.914088279846));
#550 = CARTESIAN_POINT('',(3.945720776968,58.054867014427));
#551 = CARTESIAN_POINT('',(3.85193536333,58.358497766624));
#552 = CARTESIAN_POINT('',(3.799571901091,58.516820237378));
#553 = CARTESIAN_POINT('',(3.744432590898,58.671022985037));
#554 = CARTESIAN_POINT('',(3.68573986795,58.820191366676));
#555 = CARTESIAN_POINT('',(3.622941367845,58.962020114727));
#556 = CARTESIAN_POINT('',(3.555265530435,59.092014459246));
#557 = CARTESIAN_POINT('',(3.482241740264,59.204735597952));
#558 = CARTESIAN_POINT('',(3.355791835569,59.340984981604));
#559 = CARTESIAN_POINT('',(3.306606923643,59.382703382031));
#560 = CARTESIAN_POINT('',(3.255424352974,59.412422445561));
#561 = CARTESIAN_POINT('',(3.203067312305,59.427728046495));
#562 = CARTESIAN_POINT('',(3.150373082022,59.427537350133));
#563 = CARTESIAN_POINT('',(3.098193034146,59.412098812783));
#564 = CARTESIAN_POINT('',(3.047392632335,59.382992181752));
#565 = CARTESIAN_POINT('',(2.944229164728,59.298270829946));
#566 = CARTESIAN_POINT('',(2.892207381368,59.239469957925));
#567 = CARTESIAN_POINT('',(2.84279314674,59.16980740749));
#568 = CARTESIAN_POINT('',(2.795918166,59.091828995742));
#569 = CARTESIAN_POINT('',(2.751438784524,59.007544828686));
#570 = CARTESIAN_POINT('',(2.709135987908,58.918429301229));
#571 = CARTESIAN_POINT('',(2.668715401971,58.825421097182));
#572 = CARTESIAN_POINT('',(2.57224872765,58.586169371952));
#573 = CARTESIAN_POINT('',(2.518335536636,58.436419377468));
#574 = CARTESIAN_POINT('',(2.467213814288,58.28162841968));
#575 = CARTESIAN_POINT('',(2.418467166202,58.12304748356));
#576 = CARTESIAN_POINT('',(2.371731194545,57.961637939686));
#577 = CARTESIAN_POINT('',(2.326733845314,57.797998800134));
#578 = CARTESIAN_POINT('',(2.283211949423,57.632467585361));
#579 = CARTESIAN_POINT('',(2.184525956568,57.241934916035));
#580 = CARTESIAN_POINT('',(2.130430338461,57.015956119442));
#581 = CARTESIAN_POINT('',(2.078149379948,56.787794390877));
#582 = CARTESIAN_POINT('',(2.02737480665,56.55792898721));
#583 = CARTESIAN_POINT('',(1.977865731943,56.326729122115));
#584 = CARTESIAN_POINT('',(1.929416038454,56.094467703369));
#585 = CARTESIAN_POINT('',(1.88184917784,55.861321055534));
#586 = CARTESIAN_POINT('',(1.788096914239,55.393206126825));
#587 = CARTESIAN_POINT('',(1.741928687734,55.158314583811));
#588 = CARTESIAN_POINT('',(1.696335050839,54.922855621818));
#589 = CARTESIAN_POINT('',(1.651183735951,54.686966643963));
#590 = CARTESIAN_POINT('',(1.606356520543,54.450772672962));
#591 = CARTESIAN_POINT('',(1.561740999955,54.214387392208));
#592 = CARTESIAN_POINT('',(1.517224249207,53.977913758592));
#593 = CARTESIAN_POINT('',(1.438259047529,53.5586367768));
#594 = CARTESIAN_POINT('',(1.40382027358,53.375842795036));
#595 = CARTESIAN_POINT('',(1.369317935854,53.193107291556));
#596 = CARTESIAN_POINT('',(1.334697154017,53.010480860342));
#597 = CARTESIAN_POINT('',(1.299901018068,52.82801970971));
#598 = CARTESIAN_POINT('',(1.264868437053,52.64578610289));
#599 = CARTESIAN_POINT('',(1.229531101972,52.463849169097));
#600 = CARTESIAN_POINT('',(1.154927681217,52.084659820122));
#601 = CARTESIAN_POINT('',(1.115597354309,51.88751053347));
#602 = CARTESIAN_POINT('',(1.075710205229,51.690909747729));
#603 = CARTESIAN_POINT('',(1.035149564971,51.494972664139));
#604 = CARTESIAN_POINT('',(0.993779334997,51.299864589583));
#605 = CARTESIAN_POINT('',(0.951439115094,51.105803045906));
#606 = CARTESIAN_POINT('',(0.907925560751,50.913068300774));
#607 = CARTESIAN_POINT('',(0.862939934217,50.722035059309));
#608 = ( GEOMETRIC_REPRESENTATION_CONTEXT(2) 
PARAMETRIC_REPRESENTATION_CONTEXT() REPRESENTATION_CONTEXT('2D SPACE',''
  ) );
#609 = PCURVE('',#117,#610);
#610 = DEFINITIONAL_REPRESENTATION('',(#611),#726);
#611 = B_SPLINE_CURVE_WITH_KNOTS('',8,(#612,#613,#614,#615,#616,#617,
    #618,#619,#620,#621,#622,#623,#624,#625,#626,#627,#628,#629,#630,
    #631,#632,#633,#634,#635,#636,#637,#638,#639,#640,#641,#642,#643,
    #644,#645,#646,#647,#648,#649,#650,#651,#652,#653,#654,#655,#656,
    #657,#658,#659,#660,#661,#662,#663,#664,#665,#666,#667,#668,#669,
    #670,#671,#672,#673,#674,#675,#676,#677,#678,#679,#680,#681,#682,
    #683,#684,#685,#686,#687,#688,#689,#690,#691,#692,#693,#694,#695,
    #696,#697,#698,#699,#700,#701,#702,#703,#704,#705,#706,#707,#708,
    #709,#710,#711,#712,#713,#714,#715,#716,#717,#718,#719,#720,#721,
    #722,#723,#724,#725),.UNSPECIFIED.,.F.,.F.,(9,7,7,7,7,7,7,7,7,7,7,7,
    7,7,7,7,9),(0.,5.124782982495E-02,8.378516950276E-02,0.133510998229,
    0.181891130725,0.26781841745,0.374719222759,0.426575797374,
    0.483147798977,0.549031296409,0.587191511204,0.630132300225,
    0.693656595029,0.778349382672,0.863125730545,0.928663738282,1.),
  .UNSPECIFIED.);
#612 = CARTESIAN_POINT('',(0.452846890722,0.529610957198));
#613 = CARTESIAN_POINT('',(0.452922771747,0.530224310865));
#614 = CARTESIAN_POINT('',(0.453315874557,0.530806634528));
#615 = CARTESIAN_POINT('',(0.453946671659,0.531349740534));
#616 = CARTESIAN_POINT('',(0.454749360536,0.531849151269));
#617 = CARTESIAN_POINT('',(0.455671863654,0.532304099158));
#618 = CARTESIAN_POINT('',(0.456675828456,0.532717526664));
#619 = CARTESIAN_POINT('',(0.457736627362,0.533096086288));
#620 = CARTESIAN_POINT('',(0.459546022913,0.533674930271));
#621 = CARTESIAN_POINT('',(0.460267476099,0.533888674823));
#622 = CARTESIAN_POINT('',(0.461004735786,0.534092401064));
#623 = CARTESIAN_POINT('',(0.461755293466,0.534287016182));
#624 = CARTESIAN_POINT('',(0.462517113673,0.534473307712));
#625 = CARTESIAN_POINT('',(0.463288633977,0.534651943537));
#626 = CARTESIAN_POINT('',(0.46406876499,0.534823471891));
#627 = CARTESIAN_POINT('',(0.466061358452,0.535240255783));
#628 = CARTESIAN_POINT('',(0.467283760699,0.535476576664));
#629 = CARTESIAN_POINT('',(0.468520984613,0.535699020594));
#630 = CARTESIAN_POINT('',(0.469770652878,0.535908851944));
#631 = CARTESIAN_POINT('',(0.47103093531,0.536107050908));
#632 = CARTESIAN_POINT('',(0.472300427822,0.536294434661));
#633 = CARTESIAN_POINT('',(0.473578098388,0.536471711639));
#634 = CARTESIAN_POINT('',(0.476113721102,0.536802686337));
#635 = CARTESIAN_POINT('',(0.477364129777,0.536955962864));
#636 = CARTESIAN_POINT('',(0.478614476211,0.537100116292));
#637 = CARTESIAN_POINT('',(0.479864765653,0.537235784979));
#638 = CARTESIAN_POINT('',(0.481115023022,0.537363479588));
#639 = CARTESIAN_POINT('',(0.482365267909,0.537483619953));
#640 = CARTESIAN_POINT('',(0.483615499991,0.537596557119));
#641 = CARTESIAN_POINT('',(0.487086148701,0.537890887281));
#642 = CARTESIAN_POINT('',(0.489317813681,0.538058347869));
#643 = CARTESIAN_POINT('',(0.491559074205,0.538206072521));
#644 = CARTESIAN_POINT('',(0.493808553974,0.538334807492));
#645 = CARTESIAN_POINT('',(0.496065067276,0.538445044442));
#646 = CARTESIAN_POINT('',(0.498327588194,0.538537087804));
#647 = CARTESIAN_POINT('',(0.500595237691,0.538611080166));
#648 = CARTESIAN_POINT('',(0.505693911928,0.53873653679));
#649 = CARTESIAN_POINT('',(0.508526861564,0.538778083948));
#650 = CARTESIAN_POINT('',(0.511364847685,0.538791581953));
#651 = CARTESIAN_POINT('',(0.514206327146,0.53877657058));
#652 = CARTESIAN_POINT('',(0.51704947928,0.538732196212));
#653 = CARTESIAN_POINT('',(0.519892194918,0.538657214491));
#654 = CARTESIAN_POINT('',(0.522732058216,0.538549875409));
#655 = CARTESIAN_POINT('',(0.526941165388,0.538338571994));
#656 = CARTESIAN_POINT('',(0.528316012352,0.538261262945));
#657 = CARTESIAN_POINT('',(0.529690829419,0.538175328095));
#658 = CARTESIAN_POINT('',(0.531065614048,0.538080364856));
#659 = CARTESIAN_POINT('',(0.532440371333,0.537975897726));
#660 = CARTESIAN_POINT('',(0.533815105251,0.537861356004));
#661 = CARTESIAN_POINT('',(0.535189803387,0.537736036574));
#662 = CARTESIAN_POINT('',(0.538064023195,0.537449610539));
#663 = CARTESIAN_POINT('',(0.53956364714,0.537286275696));
#664 = CARTESIAN_POINT('',(0.541063034491,0.537107894202));
#665 = CARTESIAN_POINT('',(0.542562220298,0.53691306113));
#666 = CARTESIAN_POINT('',(0.544061322059,0.536699895908));
#667 = CARTESIAN_POINT('',(0.545560504692,0.536465978251));
#668 = CARTESIAN_POINT('',(0.547059711188,0.536207989635));
#669 = CARTESIAN_POINT('',(0.550302369064,0.535585920716));
#670 = CARTESIAN_POINT('',(0.551998964642,0.535220255354));
#671 = CARTESIAN_POINT('',(0.553657671166,0.534816735306));
#672 = CARTESIAN_POINT('',(0.555269559063,0.534367607448));
#673 = CARTESIAN_POINT('',(0.556810940241,0.533866190341));
#674 = CARTESIAN_POINT('',(0.558235097508,0.533303827112));
#675 = CARTESIAN_POINT('',(0.559484742545,0.532675411153));
#676 = CARTESIAN_POINT('',(0.561030938849,0.531557543174));
#677 = CARTESIAN_POINT('',(0.561514280334,0.531116343083));
#678 = CARTESIAN_POINT('',(0.561873316676,0.530652373788));
#679 = CARTESIAN_POINT('',(0.562081571145,0.530174410983));
#680 = CARTESIAN_POINT('',(0.562126636961,0.529691576703));
#681 = CARTESIAN_POINT('',(0.562010177302,0.52921333933));
#682 = CARTESIAN_POINT('',(0.561747925299,0.528749513587));
#683 = CARTESIAN_POINT('',(0.560944058069,0.527815979463));
#684 = CARTESIAN_POINT('',(0.560368436337,0.527350038324));
#685 = CARTESIAN_POINT('',(0.559675393954,0.526913375382));
#686 = CARTESIAN_POINT('',(0.558891929395,0.526505965072));
#687 = CARTESIAN_POINT('',(0.558039464495,0.526126818015));
#688 = CARTESIAN_POINT('',(0.557133844449,0.525773981018));
#689 = CARTESIAN_POINT('',(0.556185337811,0.52544453707));
#690 = CARTESIAN_POINT('',(0.553738963618,0.524676109015));
#691 = CARTESIAN_POINT('',(0.552202134255,0.52426363664));
#692 = CARTESIAN_POINT('',(0.550609778965,0.523888931292));
#693 = CARTESIAN_POINT('',(0.548975659636,0.523547607778));
#694 = CARTESIAN_POINT('',(0.547310390545,0.52323575924));
#695 = CARTESIAN_POINT('',(0.545620642552,0.522950429903));
#696 = CARTESIAN_POINT('',(0.543910294371,0.522688942851));
#697 = CARTESIAN_POINT('',(0.539873378726,0.52212922725));
#698 = CARTESIAN_POINT('',(0.537536134431,0.521848443048));
#699 = CARTESIAN_POINT('',(0.535175740691,0.521601823001));
#700 = CARTESIAN_POINT('',(0.532797642797,0.52138618597));
#701 = CARTESIAN_POINT('',(0.53040602739,0.521199087912));
#702 = CARTESIAN_POINT('',(0.528004005057,0.521038546251));
#703 = CARTESIAN_POINT('',(0.525593618557,0.520903034928));
#704 = CARTESIAN_POINT('',(0.520755945902,0.520679526206));
#705 = CARTESIAN_POINT('',(0.518329454564,0.520591614315));
#706 = CARTESIAN_POINT('',(0.515898240538,0.52052639357));
#707 = CARTESIAN_POINT('',(0.513463853412,0.520482997568));
#708 = CARTESIAN_POINT('',(0.511027678472,0.520460812868));
#709 = CARTESIAN_POINT('',(0.508590954238,0.520459431531));
#710 = CARTESIAN_POINT('',(0.50615478176,0.520478643243));
#711 = CARTESIAN_POINT('',(0.501837967348,0.520549253588));
#712 = CARTESIAN_POINT('',(0.499956828551,0.52059235675));
#713 = CARTESIAN_POINT('',(0.498077179183,0.52064778057));
#714 = CARTESIAN_POINT('',(0.496199536213,0.520715609157));
#715 = CARTESIAN_POINT('',(0.494324464367,0.520796004265));
#716 = CARTESIAN_POINT('',(0.492452579567,0.520889214858));
#717 = CARTESIAN_POINT('',(0.490584555126,0.520995598655));
#718 = CARTESIAN_POINT('',(0.486692846081,0.521246334301));
#719 = CARTESIAN_POINT('',(0.484670360954,0.521393189566));
#720 = CARTESIAN_POINT('',(0.482654340641,0.521556881107));
#721 = CARTESIAN_POINT('',(0.480645877845,0.521738247579));
#722 = CARTESIAN_POINT('',(0.478646547165,0.521938388848));
#723 = CARTESIAN_POINT('',(0.476658420442,0.522158695427));
#724 = CARTESIAN_POINT('',(0.474684155728,0.522401013408));
#725 = CARTESIAN_POINT('',(0.472727272727,0.522668133138));
#726 = ( GEOMETRIC_REPRESENTATION_CONTEXT(2) 
PARAMETRIC_REPRESENTATION_CONTEXT() REPRESENTATION_CONTEXT('2D SPACE',''
  ) );
#727 = ADVANCED_FACE('',(#728,#732),#117,.F.);
#728 = FACE_BOUND('',#729,.F.);
#729 = EDGE_LOOP('',(#730,#731));
#730 = ORIENTED_EDGE('',*,*,#79,.F.);
#731 = ORIENTED_EDGE('',*,*,#374,.F.);
#732 = FACE_BOUND('',#733,.F.);
#733 = EDGE_LOOP('',(#734,#1181));
#734 = ORIENTED_EDGE('',*,*,#735,.T.);
#735 = EDGE_CURVE('',#736,#738,#740,.T.);
#736 = VERTEX_POINT('',#737);
#737 = CARTESIAN_POINT('',(41.1,-300.,52.47177393111));
#738 = VERTEX_POINT('',#739);
#739 = CARTESIAN_POINT('',(40.843381181778,-299.2938072626,
    52.900904800251));
#740 = SURFACE_CURVE('',#741,(#884,#1030),.PCURVE_S1.);
#741 = B_SPLINE_CURVE_WITH_KNOTS('',8,(#742,#743,#744,#745,#746,#747,
    #748,#749,#750,#751,#752,#753,#754,#755,#756,#757,#758,#759,#760,
    #761,#762,#763,#764,#765,#766,#767,#768,#769,#770,#771,#772,#773,
    #774,#775,#776,#777,#778,#779,#780,#781,#782,#783,#784,#785,#786,
    #787,#788,#789,#790,#791,#792,#793,#794,#795,#796,#797,#798,#799,
    #800,#801,#802,#803,#804,#805,#806,#807,#808,#809,#810,#811,#812,
    #813,#814,#815,#816,#817,#818,#819,#820,#821,#822,#823,#824,#825,
    #826,#827,#828,#829,#830,#831,#832,#833,#834,#835,#836,#837,#838,
    #839,#840,#841,#842,#843,#844,#845,#846,#847,#848,#849,#850,#851,
    #852,#853,#854,#855,#856,#857,#858,#859,#860,#861,#862,#863,#864,
    #865,#866,#867,#868,#869,#870,#871,#872,#873,#874,#875,#876,#877,
    #878,#879,#880,#881,#882,#883),.UNSPECIFIED.,.F.,.F.,(9,7,7,7,7,7,7,
    7,7,7,7,7,7,7,7,7,7,7,7,7,9),(0.,2.166924169549E-02,
    3.994336094887E-02,6.946042572338E-02,0.120522028149,0.175982549176,
    0.262140577385,0.354670983349,0.451278965864,0.503856532116,
    0.518500360995,0.542035114863,0.559657551144,0.569180851073,
    0.588977923903,0.620796353636,0.679814156296,0.740904314125,
    0.821198363088,0.909124749541,1.),.UNSPECIFIED.);
#742 = CARTESIAN_POINT('',(41.1,-300.,52.47177393111));
#743 = CARTESIAN_POINT('',(41.1,-300.0273500757,52.473334735683));
#744 = CARTESIAN_POINT('',(41.099222826534,-300.0546149755,
    52.476318807462));
#745 = CARTESIAN_POINT('',(41.097676963011,-300.0816651346,
    52.480702973959));
#746 = CARTESIAN_POINT('',(41.095388370789,-300.1083928915,
    52.486432918776));
#747 = CARTESIAN_POINT('',(41.092394963609,-300.1347105421,
    52.493433294263));
#748 = CARTESIAN_POINT('',(41.088742006917,-300.1605484956,
    52.501616144698));
#749 = CARTESIAN_POINT('',(41.084478442054,-300.18585353,52.510887640019
    ));
#750 = CARTESIAN_POINT('',(41.075585697802,-300.231445524,
    52.529810211537));
#751 = CARTESIAN_POINT('',(41.071117588518,-300.2519017061,
    52.539176066572));
#752 = CARTESIAN_POINT('',(41.066278211742,-300.271939493,
    52.549197052251));
#753 = CARTESIAN_POINT('',(41.061095377355,-300.2915492094,
    52.559821014396));
#754 = CARTESIAN_POINT('',(41.055595713959,-300.3107269121,
    52.570998316754));
#755 = CARTESIAN_POINT('',(41.049804081979,-300.3294735944,
    52.582682880139));
#756 = CARTESIAN_POINT('',(41.043742986768,-300.3477943896,
    52.594833221592));
#757 = CARTESIAN_POINT('',(41.027238228182,-300.3946160159,
    52.627733635724));
#758 = CARTESIAN_POINT('',(41.016395987362,-300.4224360061,
    52.64916850997));
#759 = CARTESIAN_POINT('',(41.004987034253,-300.4491998677,
    52.671568611311));
#760 = CARTESIAN_POINT('',(40.993082178359,-300.4749510594,
    52.694804913287));
#761 = CARTESIAN_POINT('',(40.980741622736,-300.4997343971,
    52.718768178045));
#762 = CARTESIAN_POINT('',(40.968015313041,-300.5235960732,
    52.743368266437));
#763 = CARTESIAN_POINT('',(40.95494328659,-300.5465836773,
    52.768533448125));
#764 = CARTESIAN_POINT('',(40.918397376824,-300.6070852164,
    52.838627107916));
#765 = CARTESIAN_POINT('',(40.894312153015,-300.6429275177,
    52.884541729941));
#766 = CARTESIAN_POINT('',(40.869464521081,-300.6765203217,
    52.931661979467));
#767 = CARTESIAN_POINT('',(40.843980053425,-300.7080505497,
    52.979764840358));
#768 = CARTESIAN_POINT('',(40.817955644128,-300.737670554,
    53.028678845141));
#769 = CARTESIAN_POINT('',(40.791465690523,-300.7655140282,
    53.078273318265));
#770 = CARTESIAN_POINT('',(40.764564535922,-300.7917021197,
    53.128453896122));
#771 = CARTESIAN_POINT('',(40.707655714629,-300.8430998749,
    53.234243416674));
#772 = CARTESIAN_POINT('',(40.677594103453,-300.8680188509,
    53.289921539916));
#773 = CARTESIAN_POINT('',(40.647155976516,-300.8912245414,
    53.346102200826));
#774 = CARTESIAN_POINT('',(40.616386565545,-300.9128173479,
    53.402706893082));
#775 = CARTESIAN_POINT('',(40.58532291415,-300.9328789872,
    53.459671412115));
#776 = CARTESIAN_POINT('',(40.553995369107,-300.9514783431,
    53.516943338598));
#777 = CARTESIAN_POINT('',(40.522428346285,-300.9686743826,
    53.574480690069));
#778 = CARTESIAN_POINT('',(40.441257689574,-301.0091263362,
    53.721999181108));
#779 = CARTESIAN_POINT('',(40.391351016517,-301.0304639635,
    53.812293836371));
#780 = CARTESIAN_POINT('',(40.340994656087,-301.0487129852,
    53.903008220773));
#781 = CARTESIAN_POINT('',(40.290250456849,-301.0639986914,
    53.994035458452));
#782 = CARTESIAN_POINT('',(40.239171126766,-301.0764056626,
    54.085284025305));
#783 = CARTESIAN_POINT('',(40.187802478698,-301.0859883929,
    54.176674063167));
#784 = CARTESIAN_POINT('',(40.136184606532,-301.0927745717,
    54.268135266254));
#785 = CARTESIAN_POINT('',(40.028685758959,-301.101042318,
    54.457842752078));
#786 = CARTESIAN_POINT('',(39.972782234481,-301.1020936262,
    54.55607221135));
#787 = CARTESIAN_POINT('',(39.916683774333,-301.0999146705,
    54.654219758635));
#788 = CARTESIAN_POINT('',(39.860437757754,-301.0944633046,
    54.752200371039));
#789 = CARTESIAN_POINT('',(39.8040973802,-301.0856623642,54.849918105077
    ));
#790 = CARTESIAN_POINT('',(39.747723173059,-301.073396773,
    54.947263540747));
#791 = CARTESIAN_POINT('',(39.691385250248,-301.0575008998,
    55.044109526412));
#792 = CARTESIAN_POINT('',(39.576469888082,-301.0171004588,
    55.240740019118));
#793 = CARTESIAN_POINT('',(39.517980330105,-300.9922739161,
    55.340333885387));
#794 = CARTESIAN_POINT('',(39.459719088188,-300.9629799474,
    55.439041653499));
#795 = CARTESIAN_POINT('',(39.401792246463,-300.9288380333,
    55.536666889165));
#796 = CARTESIAN_POINT('',(39.344386167279,-300.8893991218,
    55.63287395008));
#797 = CARTESIAN_POINT('',(39.28780248306,-300.8440379249,
    55.727126185226));
#798 = CARTESIAN_POINT('',(39.232440400844,-300.7920330924,
    55.818722744649));
#799 = CARTESIAN_POINT('',(39.149817495175,-300.6993599555,
    55.954329092416));
#800 = CARTESIAN_POINT('',(39.121311619154,-300.6643969498,
    56.00089786063));
#801 = CARTESIAN_POINT('',(39.093481188784,-300.6268905845,
    56.046129588183));
#802 = CARTESIAN_POINT('',(39.066473870811,-300.5865938172,
    56.089765526566));
#803 = CARTESIAN_POINT('',(39.040519712882,-300.5432675599,
    56.131409360436));
#804 = CARTESIAN_POINT('',(39.015932832479,-300.4966879132,
    56.170525772839));
#805 = CARTESIAN_POINT('',(38.993117606798,-300.4466468506,
    56.20643036383));
#806 = CARTESIAN_POINT('',(38.966859081336,-300.3779897661,
    56.247139109525));
#807 = CARTESIAN_POINT('',(38.961318414531,-300.3627569849,
    56.255687405471));
#808 = CARTESIAN_POINT('',(38.955969171439,-300.3472474332,
    56.263896090272));
#809 = CARTESIAN_POINT('',(38.950824154085,-300.3314623013,
    56.271743874835));
#810 = CARTESIAN_POINT('',(38.945896914707,-300.3154048352,
    56.279208323187));
#811 = CARTESIAN_POINT('',(38.941201512206,-300.2990806247,
    56.286266274651));
#812 = CARTESIAN_POINT('',(38.936752268605,-300.2824978933,
    56.292894266025));
#813 = CARTESIAN_POINT('',(38.925831608677,-300.2386193679,
    56.308992571226));
#814 = CARTESIAN_POINT('',(38.919769735362,-300.2109208937,
    56.317749491321));
#815 = CARTESIAN_POINT('',(38.914441866607,-300.1826325507,
    56.325236064716));
#816 = CARTESIAN_POINT('',(38.9099081327,-300.1538303207,56.331355935554
    ));
#817 = CARTESIAN_POINT('',(38.906221519993,-300.1246074169,
    56.336025580717));
#818 = CARTESIAN_POINT('',(38.903423833252,-300.0950755874,
    56.339181087468));
#819 = CARTESIAN_POINT('',(38.901540933549,-300.0653662897,
    56.340786169462));
#820 = CARTESIAN_POINT('',(38.89985566254,-300.0133669877,
    56.340882792666));
#821 = CARTESIAN_POINT('',(38.899649245987,-299.9910810848,
    56.340055196616));
#822 = CARTESIAN_POINT('',(38.899960323549,-299.968835882,
    56.338358007229));
#823 = CARTESIAN_POINT('',(38.900784465945,-299.9466884195,
    56.335801611678));
#824 = CARTESIAN_POINT('',(38.902111424719,-299.9246909612,
    56.332405858403));
#825 = CARTESIAN_POINT('',(38.90392606388,-299.9028910351,
    56.328198505459));
#826 = CARTESIAN_POINT('',(38.906209291547,-299.8813314733,
    56.323213668869));
#827 = CARTESIAN_POINT('',(38.910414142457,-299.8485500249,
    56.31439730278));
#828 = CARTESIAN_POINT('',(38.9120198543,-299.8371300009,56.311088304915
    ));
#829 = CARTESIAN_POINT('',(38.913752648142,-299.8257956947,
    56.307569362385));
#830 = CARTESIAN_POINT('',(38.915608966056,-299.8145518425,
    56.303846661268));
#831 = CARTESIAN_POINT('',(38.917585171161,-299.803402602,
    56.299926488705));
#832 = CARTESIAN_POINT('',(38.919677547626,-299.7923515528,
    56.295815232901));
#833 = CARTESIAN_POINT('',(38.921882300664,-299.781401696,
    56.291519383126));
#834 = CARTESIAN_POINT('',(38.929004361825,-299.7480082456,
    56.277745265889));
#835 = CARTESIAN_POINT('',(38.93428198049,-299.7259106097,
    56.267675998199));
#836 = CARTESIAN_POINT('',(38.939994713103,-299.704282092,56.25689496565
    ));
#837 = CARTESIAN_POINT('',(38.946109466806,-299.6831347961,
    56.245458005211));
#838 = CARTESIAN_POINT('',(38.952594465412,-299.6624742969,
    56.233418411208));
#839 = CARTESIAN_POINT('',(38.959419959506,-299.6423005543,
    56.220825794705));
#840 = CARTESIAN_POINT('',(38.966558936546,-299.6226088266,
    56.207724942898));
#841 = CARTESIAN_POINT('',(38.985927765585,-299.5725024664,
    56.172344155914));
#842 = CARTESIAN_POINT('',(38.998612568091,-299.5428471786,
    56.149328401306));
#843 = CARTESIAN_POINT('',(39.011945251821,-299.5143821556,
    56.12526672982));
#844 = CARTESIAN_POINT('',(39.0258415333,-299.4870620918,56.100297203519
    ));
#845 = CARTESIAN_POINT('',(39.040229488609,-299.4608392426,
    56.074537174225));
#846 = CARTESIAN_POINT('',(39.05504920973,-299.4356637248,
    56.048083826358));
#847 = CARTESIAN_POINT('',(39.070252460906,-299.4114838184,
    56.021014719769));
#848 = CARTESIAN_POINT('',(39.114644719991,-299.3451445426,
    55.94214605943));
#849 = CARTESIAN_POINT('',(39.144655172063,-299.305321774,
    55.889029955682));
#850 = CARTESIAN_POINT('',(39.175590804453,-299.2684383856,
    55.834425762875));
#851 = CARTESIAN_POINT('',(39.207270604447,-299.2342480551,
    55.77862149706));
#852 = CARTESIAN_POINT('',(39.239554243697,-299.2025446895,
    55.721839978053));
#853 = CARTESIAN_POINT('',(39.272335301503,-299.1731469288,
    55.66424895361));
#854 = CARTESIAN_POINT('',(39.30554012554,-299.1458979091,
    55.605962474431));
#855 = CARTESIAN_POINT('',(39.37388623439,-299.0945318486,
    55.486063121539));
#856 = CARTESIAN_POINT('',(39.40903549592,-299.0705727256,
    55.424438782046));
#857 = CARTESIAN_POINT('',(39.444504326361,-299.0486351975,
    55.362277765744));
#858 = CARTESIAN_POINT('',(39.480238030579,-299.0286044243,
    55.299665053968));
#859 = CARTESIAN_POINT('',(39.51619169735,-299.0103866224,
    55.236670637965));
#860 = CARTESIAN_POINT('',(39.552328458809,-298.993902779,
    55.173351994024));
#861 = CARTESIAN_POINT('',(39.588618543082,-298.9790856323,
    55.109755396848));
#862 = CARTESIAN_POINT('',(39.67290862479,-298.9485229502,
    54.962008644409));
#863 = CARTESIAN_POINT('',(39.72099652794,-298.9339520889,
    54.877694207356));
#864 = CARTESIAN_POINT('',(39.7692469414,-298.9220413887,54.793059820581
    ));
#865 = CARTESIAN_POINT('',(39.81761184428,-298.9127001436,54.70818184933
    ));
#866 = CARTESIAN_POINT('',(39.866049342988,-298.9058640359,
    54.623128331185));
#867 = CARTESIAN_POINT('',(39.91452240142,-298.9014900789,
    54.537960768923));
#868 = CARTESIAN_POINT('',(39.962998041339,-298.899555357,
    54.452735348566));
#869 = CARTESIAN_POINT('',(40.064501293462,-298.9006116952,
    54.274170125272));
#870 = CARTESIAN_POINT('',(40.117515943343,-298.9040884814,
    54.180842526455));
#871 = CARTESIAN_POINT('',(40.170454239461,-298.9104870398,
    54.087585424015));
#872 = CARTESIAN_POINT('',(40.223275488796,-298.9198384149,
    53.994473210288));
#873 = CARTESIAN_POINT('',(40.275934650786,-298.9322028403,
    53.901590575203));
#874 = CARTESIAN_POINT('',(40.328381266482,-298.9476733551,
    53.809034830679));
#875 = CARTESIAN_POINT('',(40.380557694485,-298.9663877715,
    53.716920016307));
#876 = CARTESIAN_POINT('',(40.485974181288,-299.0114534603,
    53.530775592312));
#877 = CARTESIAN_POINT('',(40.539129869096,-299.0380141099,
    53.436893751201));
#878 = CARTESIAN_POINT('',(40.591848008033,-299.0684640168,
    53.343784735837));
#879 = CARTESIAN_POINT('',(40.644045710256,-299.1031204308,
    53.25162163735));
#880 = CARTESIAN_POINT('',(40.695577950984,-299.1423593638,
    53.160694841923));
#881 = CARTESIAN_POINT('',(40.746212224943,-299.1867096631,
    53.071466329887));
#882 = CARTESIAN_POINT('',(40.795642788318,-299.2367949761,
    52.984542486599));
#883 = CARTESIAN_POINT('',(40.843381181778,-299.2938072626,
    52.900904800251));
#884 = PCURVE('',#117,#885);
#885 = DEFINITIONAL_REPRESENTATION('',(#886),#1029);
#886 = B_SPLINE_CURVE_WITH_KNOTS('',8,(#887,#888,#889,#890,#891,#892,
    #893,#894,#895,#896,#897,#898,#899,#900,#901,#902,#903,#904,#905,
    #906,#907,#908,#909,#910,#911,#912,#913,#914,#915,#916,#917,#918,
    #919,#920,#921,#922,#923,#924,#925,#926,#927,#928,#929,#930,#931,
    #932,#933,#934,#935,#936,#937,#938,#939,#940,#941,#942,#943,#944,
    #945,#946,#947,#948,#949,#950,#951,#952,#953,#954,#955,#956,#957,
    #958,#959,#960,#961,#962,#963,#964,#965,#966,#967,#968,#969,#970,
    #971,#972,#973,#974,#975,#976,#977,#978,#979,#980,#981,#982,#983,
    #984,#985,#986,#987,#988,#989,#990,#991,#992,#993,#994,#995,#996,
    #997,#998,#999,#1000,#1001,#1002,#1003,#1004,#1005,#1006,#1007,#1008
    ,#1009,#1010,#1011,#1012,#1013,#1014,#1015,#1016,#1017,#1018,#1019,
    #1020,#1021,#1022,#1023,#1024,#1025,#1026,#1027,#1028),
  .UNSPECIFIED.,.F.,.F.,(9,7,7,7,7,7,7,7,7,7,7,7,7,7,7,7,7,7,7,7,9),(0.,
    2.166924169549E-02,3.994336094887E-02,6.946042572338E-02,
    0.120522028149,0.175982549176,0.262140577385,0.354670983349,
    0.451278965864,0.503856532116,0.518500360995,0.542035114863,
    0.559657551144,0.569180851073,0.588977923903,0.620796353636,
    0.679814156296,0.740904314125,0.821198363088,0.909124749541,1.),
  .UNSPECIFIED.);
#887 = CARTESIAN_POINT('',(0.489815014977,0.529610957198));
#888 = CARTESIAN_POINT('',(0.489823797727,0.529694325134));
#889 = CARTESIAN_POINT('',(0.489847119219,0.529777435127));
#890 = CARTESIAN_POINT('',(0.489884776562,0.529859892229));
#891 = CARTESIAN_POINT('',(0.489936244118,0.529941368209));
#892 = CARTESIAN_POINT('',(0.490000777059,0.530021595638));
#893 = CARTESIAN_POINT('',(0.490077497643,0.530100362278));
#894 = CARTESIAN_POINT('',(0.490165464181,0.530177505779));
#895 = CARTESIAN_POINT('',(0.490346586183,0.530316497492));
#896 = CARTESIAN_POINT('',(0.490436787003,0.530378861191));
#897 = CARTESIAN_POINT('',(0.490533783304,0.530439950305));
#898 = CARTESIAN_POINT('',(0.49063704661,0.53049973527));
#899 = CARTESIAN_POINT('',(0.490746072631,0.530558203997));
#900 = CARTESIAN_POINT('',(0.49086039205,0.53061535945));
#901 = CARTESIAN_POINT('',(0.490979581307,0.530671217215));
#902 = CARTESIAN_POINT('',(0.491303065607,0.530813972281));
#903 = CARTESIAN_POINT('',(0.491514537102,0.530898794958));
#904 = CARTESIAN_POINT('',(0.49173615556,0.530980399285));
#905 = CARTESIAN_POINT('',(0.491966596747,0.531058917538));
#906 = CARTESIAN_POINT('',(0.492204737527,0.531134486158));
#907 = CARTESIAN_POINT('',(0.492449648881,0.531207245809));
#908 = CARTESIAN_POINT('',(0.492700588933,0.531277341438));
#909 = CARTESIAN_POINT('',(0.493400554779,0.531461830594));
#910 = CARTESIAN_POINT('',(0.493860152149,0.531571129076));
#911 = CARTESIAN_POINT('',(0.494332759443,0.531673570799));
#912 = CARTESIAN_POINT('',(0.494816061055,0.531769725156));
#913 = CARTESIAN_POINT('',(0.495308274419,0.531860056244));
#914 = CARTESIAN_POINT('',(0.495808036708,0.531944971353));
#915 = CARTESIAN_POINT('',(0.496314358221,0.532024839577));
#916 = CARTESIAN_POINT('',(0.497383059567,0.532181594902));
#917 = CARTESIAN_POINT('',(0.497946247764,0.532257595712));
#918 = CARTESIAN_POINT('',(0.498515194465,0.532328372579));
#919 = CARTESIAN_POINT('',(0.499089076747,0.532394231383));
#920 = CARTESIAN_POINT('',(0.499667221694,0.532455421078));
#921 = CARTESIAN_POINT('',(0.500249079435,0.53251215152));
#922 = CARTESIAN_POINT('',(0.500834208865,0.532564602354));
#923 = CARTESIAN_POINT('',(0.502335839534,0.532687989112));
#924 = CARTESIAN_POINT('',(0.503256321899,0.532753074734));
#925 = CARTESIAN_POINT('',(0.504182383233,0.532808740272));
#926 = CARTESIAN_POINT('',(0.505112906819,0.532855367383));
#927 = CARTESIAN_POINT('',(0.506046941248,0.532893213682));
#928 = CARTESIAN_POINT('',(0.506983660473,0.532922445113));
#929 = CARTESIAN_POINT('',(0.507922341771,0.532943145948));
#930 = CARTESIAN_POINT('',(0.509871906777,0.532968366265));
#931 = CARTESIAN_POINT('',(0.510882807368,0.53297157327));
#932 = CARTESIAN_POINT('',(0.511894299704,0.532964926453));
#933 = CARTESIAN_POINT('',(0.512905525508,0.532948297257));
#934 = CARTESIAN_POINT('',(0.513915520983,0.532921450427));
#935 = CARTESIAN_POINT('',(0.514923190812,0.532884035192));
#936 = CARTESIAN_POINT('',(0.515927267108,0.532835546746));
#937 = CARTESIAN_POINT('',(0.517969262233,0.532712312502));
#938 = CARTESIAN_POINT('',(0.519005351235,0.532636584666));
#939 = CARTESIAN_POINT('',(0.520034122218,0.532547231537));
#940 = CARTESIAN_POINT('',(0.52105364236,0.532443093457));
#941 = CARTESIAN_POINT('',(0.522060552904,0.532322802044));
#942 = CARTESIAN_POINT('',(0.523049450245,0.532184452056));
#943 = CARTESIAN_POINT('',(0.524013239117,0.532025845834));
#944 = CARTESIAN_POINT('',(0.525445245125,0.531743223327));
#945 = CARTESIAN_POINT('',(0.525938041181,0.531636600247));
#946 = CARTESIAN_POINT('',(0.526417825285,0.531522223937));
#947 = CARTESIAN_POINT('',(0.526881971667,0.531399341785));
#948 = CARTESIAN_POINT('',(0.527326420629,0.531267225634));
#949 = CARTESIAN_POINT('',(0.52774565868,0.531125193865));
#950 = CARTESIAN_POINT('',(0.528132612094,0.530972613511));
#951 = CARTESIAN_POINT('',(0.528574777275,0.530763280217));
#952 = CARTESIAN_POINT('',(0.528667861222,0.530716836468));
#953 = CARTESIAN_POINT('',(0.528757500411,0.530669549408));
#954 = CARTESIAN_POINT('',(0.528843472657,0.530621422702));
#955 = CARTESIAN_POINT('',(0.52892554324,0.53057246628));
#956 = CARTESIAN_POINT('',(0.52900346922,0.530522697219));
#957 = CARTESIAN_POINT('',(0.529077003747,0.530472140623));
#958 = CARTESIAN_POINT('',(0.529256627231,0.530338367718));
#959 = CARTESIAN_POINT('',(0.529355421009,0.530253924788));
#960 = CARTESIAN_POINT('',(0.529441184693,0.530167685345));
#961 = CARTESIAN_POINT('',(0.52951289248,0.530079881155));
#962 = CARTESIAN_POINT('',(0.529569647227,0.529990796491));
#963 = CARTESIAN_POINT('',(0.529610750787,0.52990077209));
#964 = CARTESIAN_POINT('',(0.529635787231,0.529810208724));
#965 = CARTESIAN_POINT('',(0.52965140687,0.529651701859));
#966 = CARTESIAN_POINT('',(0.529649067073,0.529583769982));
#967 = CARTESIAN_POINT('',(0.529637675216,0.529515963292));
#968 = CARTESIAN_POINT('',(0.529617323056,0.529448455646));
#969 = CARTESIAN_POINT('',(0.529588202282,0.529381406326));
#970 = CARTESIAN_POINT('',(0.529550588347,0.529314960164));
#971 = CARTESIAN_POINT('',(0.529504824304,0.529249247669));
#972 = CARTESIAN_POINT('',(0.5294223822,0.529149332946));
#973 = CARTESIAN_POINT('',(0.529391191534,0.5291145261));
#974 = CARTESIAN_POINT('',(0.529357794499,0.5290799808));
#975 = CARTESIAN_POINT('',(0.529322254175,0.529045711475));
#976 = CARTESIAN_POINT('',(0.52928463486,0.529011730787));
#977 = CARTESIAN_POINT('',(0.529245002077,0.528978049639));
#978 = CARTESIAN_POINT('',(0.529203422566,0.528944677168));
#979 = CARTESIAN_POINT('',(0.52906962305,0.528842902936));
#980 = CARTESIAN_POINT('',(0.528971164683,0.528775556426));
#981 = CARTESIAN_POINT('',(0.528865179894,0.528709640706));
#982 = CARTESIAN_POINT('',(0.528752246941,0.528645192581));
#983 = CARTESIAN_POINT('',(0.528632919493,0.528582228958));
#984 = CARTESIAN_POINT('',(0.528507714485,0.528520749635));
#985 = CARTESIAN_POINT('',(0.528377099971,0.528460740086));
#986 = CARTESIAN_POINT('',(0.528023515435,0.528308045527));
#987 = CARTESIAN_POINT('',(0.527792699185,0.528217675827));
#988 = CARTESIAN_POINT('',(0.527550706873,0.528130935135));
#989 = CARTESIAN_POINT('',(0.527298990416,0.528047685123));
#990 = CARTESIAN_POINT('',(0.527038786648,0.527967780062));
#991 = CARTESIAN_POINT('',(0.526771122944,0.527891067739));
#992 = CARTESIAN_POINT('',(0.526496822856,0.527817390369));
#993 = CARTESIAN_POINT('',(0.525696582067,0.527615254491));
#994 = CARTESIAN_POINT('',(0.525156412779,0.527493918433));
#995 = CARTESIAN_POINT('',(0.524600124973,0.527381541572));
#996 = CARTESIAN_POINT('',(0.524030793961,0.527277372582));
#997 = CARTESIAN_POINT('',(0.523450803018,0.527180782885));
#998 = CARTESIAN_POINT('',(0.522861953985,0.527091219394));
#999 = CARTESIAN_POINT('',(0.522265482819,0.527008203764));
#1000 = CARTESIAN_POINT('',(0.521037587327,0.526851716761));
#1001 = CARTESIAN_POINT('',(0.520406013872,0.526778726581));
#1002 = CARTESIAN_POINT('',(0.519768531786,0.526711896211));
#1003 = CARTESIAN_POINT('',(0.51912606148,0.526650875465));
#1004 = CARTESIAN_POINT('',(0.518479360615,0.526595378374));
#1005 = CARTESIAN_POINT('',(0.517829051896,0.526545164013));
#1006 = CARTESIAN_POINT('',(0.517175637877,0.526500027298));
#1007 = CARTESIAN_POINT('',(0.515657109437,0.526406926508));
#1008 = CARTESIAN_POINT('',(0.514790141938,0.526362541015));
#1009 = CARTESIAN_POINT('',(0.513919545759,0.526326259241));
#1010 = CARTESIAN_POINT('',(0.51304614357,0.52629780463));
#1011 = CARTESIAN_POINT('',(0.512170662587,0.526276981086));
#1012 = CARTESIAN_POINT('',(0.511293754872,0.526263657557));
#1013 = CARTESIAN_POINT('',(0.510416010568,0.526257764189));
#1014 = CARTESIAN_POINT('',(0.508576454996,0.526260981907));
#1015 = CARTESIAN_POINT('',(0.507614722262,0.526271572567));
#1016 = CARTESIAN_POINT('',(0.506653437079,0.526291063266));
#1017 = CARTESIAN_POINT('',(0.5056933599,0.526319548669));
#1018 = CARTESIAN_POINT('',(0.504735347048,0.526357212437));
#1019 = CARTESIAN_POINT('',(0.503780373263,0.526404338255));
#1020 = CARTESIAN_POINT('',(0.502829570144,0.52646134632));
#1021 = CARTESIAN_POINT('',(0.500907287851,0.526598628371));
#1022 = CARTESIAN_POINT('',(0.499937303736,0.526679540245));
#1023 = CARTESIAN_POINT('',(0.498974745027,0.526772301519));
#1024 = CARTESIAN_POINT('',(0.49802129424,0.526877879446));
#1025 = CARTESIAN_POINT('',(0.497079816288,0.52699742051));
#1026 = CARTESIAN_POINT('',(0.496154882687,0.527132537289));
#1027 = CARTESIAN_POINT('',(0.495252504248,0.527285131581));
#1028 = CARTESIAN_POINT('',(0.494382354897,0.527458838056));
#1029 = ( GEOMETRIC_REPRESENTATION_CONTEXT(2) 
PARAMETRIC_REPRESENTATION_CONTEXT() REPRESENTATION_CONTEXT('2D SPACE',''
  ) );
#1030 = PCURVE('',#1031,#1036);
#1031 = CYLINDRICAL_SURFACE('',#1032,1.1);
#1032 = AXIS2_PLACEMENT_3D('',#1033,#1034,#1035);
#1033 = CARTESIAN_POINT('',(40.,-300.,-5.));
#1034 = DIRECTION('',(0.,0.,1.));
#1035 = DIRECTION('',(1.,0.,-0.));
#1036 = DEFINITIONAL_REPRESENTATION('',(#1037),#1180);
#1037 = B_SPLINE_CURVE_WITH_KNOTS('',8,(#1038,#1039,#1040,#1041,#1042,
    #1043,#1044,#1045,#1046,#1047,#1048,#1049,#1050,#1051,#1052,#1053,
    #1054,#1055,#1056,#1057,#1058,#1059,#1060,#1061,#1062,#1063,#1064,
    #1065,#1066,#1067,#1068,#1069,#1070,#1071,#1072,#1073,#1074,#1075,
    #1076,#1077,#1078,#1079,#1080,#1081,#1082,#1083,#1084,#1085,#1086,
    #1087,#1088,#1089,#1090,#1091,#1092,#1093,#1094,#1095,#1096,#1097,
    #1098,#1099,#1100,#1101,#1102,#1103,#1104,#1105,#1106,#1107,#1108,
    #1109,#1110,#1111,#1112,#1113,#1114,#1115,#1116,#1117,#1118,#1119,
    #1120,#1121,#1122,#1123,#1124,#1125,#1126,#1127,#1128,#1129,#1130,
    #1131,#1132,#1133,#1134,#1135,#1136,#1137,#1138,#1139,#1140,#1141,
    #1142,#1143,#1144,#1145,#1146,#1147,#1148,#1149,#1150,#1151,#1152,
    #1153,#1154,#1155,#1156,#1157,#1158,#1159,#1160,#1161,#1162,#1163,
    #1164,#1165,#1166,#1167,#1168,#1169,#1170,#1171,#1172,#1173,#1174,
    #1175,#1176,#1177,#1178,#1179),.UNSPECIFIED.,.F.,.F.,(9,7,7,7,7,7,7,
    7,7,7,7,7,7,7,7,7,7,7,7,7,9),(0.,2.166924169549E-02,
    3.994336094887E-02,6.946042572338E-02,0.120522028149,0.175982549176,
    0.262140577385,0.354670983349,0.451278965864,0.503856532116,
    0.518500360995,0.542035114863,0.559657551144,0.569180851073,
    0.588977923903,0.620796353636,0.679814156296,0.740904314125,
    0.821198363088,0.909124749541,1.),.UNSPECIFIED.);
#1038 = CARTESIAN_POINT('',(6.28318530718,57.47177393111));
#1039 = CARTESIAN_POINT('',(6.258321601991,57.473334735683));
#1040 = CARTESIAN_POINT('',(6.233535338699,57.476318807462));
#1041 = CARTESIAN_POINT('',(6.208920838756,57.480702973959));
#1042 = CARTESIAN_POINT('',(6.184553237993,57.486432918776));
#1043 = CARTESIAN_POINT('',(6.160491941039,57.493433294263));
#1044 = CARTESIAN_POINT('',(6.136783247953,57.501616144698));
#1045 = CARTESIAN_POINT('',(6.113462153066,57.510887640019));
#1046 = CARTESIAN_POINT('',(6.071233820421,57.529810211537));
#1047 = CARTESIAN_POINT('',(6.052203651093,57.539176066572));
#1048 = CARTESIAN_POINT('',(6.033471157634,57.549197052251));
#1049 = CARTESIAN_POINT('',(6.015040266628,57.559821014396));
#1050 = CARTESIAN_POINT('',(5.996910946496,57.570998316754));
#1051 = CARTESIAN_POINT('',(5.979079672316,57.582682880139));
#1052 = CARTESIAN_POINT('',(5.961539890658,57.594833221592));
#1053 = CARTESIAN_POINT('',(5.91640765383,57.627733635724));
#1054 = CARTESIAN_POINT('',(5.889278393399,57.64916850997));
#1055 = CARTESIAN_POINT('',(5.862850503127,57.671568611311));
#1056 = CARTESIAN_POINT('',(5.83708233948,57.694804913287));
#1057 = CARTESIAN_POINT('',(5.811933568464,57.718768178045));
#1058 = CARTESIAN_POINT('',(5.787363918723,57.743368266437));
#1059 = CARTESIAN_POINT('',(5.763331934627,57.768533448125));
#1060 = CARTESIAN_POINT('',(5.699074962504,57.838627107916));
#1061 = CARTESIAN_POINT('',(5.659863314244,57.884541729941));
#1062 = CARTESIAN_POINT('',(5.621941454505,57.931661979467));
#1063 = CARTESIAN_POINT('',(5.585150588918,57.979764840358));
#1064 = CARTESIAN_POINT('',(5.549364086718,58.028678845141));
#1065 = CARTESIAN_POINT('',(5.514470178359,58.078273318265));
#1066 = CARTESIAN_POINT('',(5.48036372283,58.128453896122));
#1067 = CARTESIAN_POINT('',(5.410651544886,58.234243416674));
#1068 = CARTESIAN_POINT('',(5.375186310074,58.289921539916));
#1069 = CARTESIAN_POINT('',(5.340438317734,58.346102200826));
#1070 = CARTESIAN_POINT('',(5.306317634306,58.402706893082));
#1071 = CARTESIAN_POINT('',(5.272749093571,58.459671412115));
#1072 = CARTESIAN_POINT('',(5.23966646761,58.516943338598));
#1073 = CARTESIAN_POINT('',(5.207009130339,58.574480690069));
#1074 = CARTESIAN_POINT('',(5.124561871658,58.721999181108));
#1075 = CARTESIAN_POINT('',(5.075303004836,58.812293836371));
#1076 = CARTESIAN_POINT('',(5.026738972698,58.903008220773));
#1077 = CARTESIAN_POINT('',(4.978704494892,58.994035458452));
#1078 = CARTESIAN_POINT('',(4.931057791793,59.085284025305));
#1079 = CARTESIAN_POINT('',(4.883668116741,59.176674063167));
#1080 = CARTESIAN_POINT('',(4.836407679908,59.268135266254));
#1081 = CARTESIAN_POINT('',(4.738392847758,59.457842752078));
#1082 = CARTESIAN_POINT('',(4.687647542815,59.55607221135));
#1083 = CARTESIAN_POINT('',(4.636752451993,59.654219758635));
#1084 = CARTESIAN_POINT('',(4.585552599817,59.752200371039));
#1085 = CARTESIAN_POINT('',(4.533892164412,59.849918105077));
#1086 = CARTESIAN_POINT('',(4.481603913096,59.947263540747));
#1087 = CARTESIAN_POINT('',(4.428493541431,60.044109526412));
#1088 = CARTESIAN_POINT('',(4.317756953928,60.240740019118));
#1089 = CARTESIAN_POINT('',(4.260108540221,60.340333885387));
#1090 = CARTESIAN_POINT('',(4.201034796666,60.439041653499));
#1091 = CARTESIAN_POINT('',(4.140184996713,60.536666889165));
#1092 = CARTESIAN_POINT('',(4.077199170292,60.63287395008));
#1093 = CARTESIAN_POINT('',(4.011593069119,60.727126185226));
#1094 = CARTESIAN_POINT('',(3.942811504751,60.818722744649));
#1095 = CARTESIAN_POINT('',(3.829941892083,60.954329092416));
#1096 = CARTESIAN_POINT('',(3.78897159079,61.00089786063));
#1097 = CARTESIAN_POINT('',(3.746589034897,61.046129588183));
#1098 = CARTESIAN_POINT('',(3.70259421688,61.089765526566));
#1099 = CARTESIAN_POINT('',(3.656806378769,61.131409360436));
#1100 = CARTESIAN_POINT('',(3.609053687535,61.170525772839));
#1101 = CARTESIAN_POINT('',(3.559153997833,61.20643036383));
#1102 = CARTESIAN_POINT('',(3.492329289319,61.247139109525));
#1103 = CARTESIAN_POINT('',(3.47759567895,61.255687405471));
#1104 = CARTESIAN_POINT('',(3.462684541663,61.263896090272));
#1105 = CARTESIAN_POINT('',(3.447595849128,61.271743874835));
#1106 = CARTESIAN_POINT('',(3.432331054891,61.279208323187));
#1107 = CARTESIAN_POINT('',(3.416893275255,61.286266274651));
#1108 = CARTESIAN_POINT('',(3.40128747016,61.292894266025));
#1109 = CARTESIAN_POINT('',(3.360181018895,61.308992571226));
#1110 = CARTESIAN_POINT('',(3.334415071122,61.317749491321));
#1111 = CARTESIAN_POINT('',(3.308265090629,61.325236064716));
#1112 = CARTESIAN_POINT('',(3.281783074004,61.331355935554));
#1113 = CARTESIAN_POINT('',(3.255031710457,61.336025580717));
#1114 = CARTESIAN_POINT('',(3.228086132816,61.339181087468));
#1115 = CARTESIAN_POINT('',(3.201036413616,61.340786169462));
#1116 = CARTESIAN_POINT('',(3.153739500694,61.340882792666));
#1117 = CARTESIAN_POINT('',(3.133484174921,61.340055196616));
#1118 = CARTESIAN_POINT('',(3.113268340261,61.338358007229));
#1119 = CARTESIAN_POINT('',(3.09313110026,61.335801611678));
#1120 = CARTESIAN_POINT('',(3.073107581978,61.332405858403));
#1121 = CARTESIAN_POINT('',(3.053229367265,61.328198505459));
#1122 = CARTESIAN_POINT('',(3.033524924041,61.323213668869));
#1123 = CARTESIAN_POINT('',(3.003479447101,61.31439730278));
#1124 = CARTESIAN_POINT('',(2.992996260761,61.311088304915));
#1125 = CARTESIAN_POINT('',(2.982573877275,61.307569362385));
#1126 = CARTESIAN_POINT('',(2.972215278393,61.303846661268));
#1127 = CARTESIAN_POINT('',(2.961923028892,61.299926488705));
#1128 = CARTESIAN_POINT('',(2.951699276577,61.295815232901));
#1129 = CARTESIAN_POINT('',(2.941545752276,61.291519383126));
#1130 = CARTESIAN_POINT('',(2.910505305674,61.277745265889));
#1131 = CARTESIAN_POINT('',(2.889857681461,61.267675998199));
#1132 = CARTESIAN_POINT('',(2.869530551986,61.25689496565));
#1133 = CARTESIAN_POINT('',(2.849528750517,61.245458005211));
#1134 = CARTESIAN_POINT('',(2.82985279105,61.233418411208));
#1135 = CARTESIAN_POINT('',(2.810499370541,61.220825794705));
#1136 = CARTESIAN_POINT('',(2.791461871147,61.207724942898));
#1137 = CARTESIAN_POINT('',(2.742625841925,61.172344155914));
#1138 = CARTESIAN_POINT('',(2.713321972212,61.149328401306));
#1139 = CARTESIAN_POINT('',(2.684773609673,61.12526672982));
#1140 = CARTESIAN_POINT('',(2.656937460481,61.100297203519));
#1141 = CARTESIAN_POINT('',(2.629771286868,61.074537174225));
#1142 = CARTESIAN_POINT('',(2.603232613357,61.048083826358));
#1143 = CARTESIAN_POINT('',(2.577277433009,61.021014719769));
#1144 = CARTESIAN_POINT('',(2.504711861731,60.94214605943));
#1145 = CARTESIAN_POINT('',(2.459451576099,60.889029955682));
#1146 = CARTESIAN_POINT('',(2.415784913881,60.834425762875));
#1147 = CARTESIAN_POINT('',(2.373510290268,60.77862149706));
#1148 = CARTESIAN_POINT('',(2.332463507313,60.721839978053));
#1149 = CARTESIAN_POINT('',(2.292498994979,60.66424895361));
#1150 = CARTESIAN_POINT('',(2.253485313836,60.605962474431));
#1151 = CARTESIAN_POINT('',(2.175761163123,60.486063121539));
#1152 = CARTESIAN_POINT('',(2.137131153272,60.424438782046));
#1153 = CARTESIAN_POINT('',(2.099279133383,60.362277765744));
#1154 = CARTESIAN_POINT('',(2.062105507978,60.299665053968));
#1155 = CARTESIAN_POINT('',(2.025526547677,60.236670637965));
#1156 = CARTESIAN_POINT('',(1.989467956327,60.173351994024));
#1157 = CARTESIAN_POINT('',(1.953861149492,60.109755396848));
#1158 = CARTESIAN_POINT('',(1.872352160943,59.962008644409));
#1159 = CARTESIAN_POINT('',(1.826738713301,59.877694207356));
#1160 = CARTESIAN_POINT('',(1.781659892116,59.793059820581));
#1161 = CARTESIAN_POINT('',(1.736995312787,59.70818184933));
#1162 = CARTESIAN_POINT('',(1.692637475916,59.623128331185));
#1163 = CARTESIAN_POINT('',(1.648484834567,59.537960768923));
#1164 = CARTESIAN_POINT('',(1.604436668244,59.452735348566));
#1165 = CARTESIAN_POINT('',(1.5121559877,59.274170125272));
#1166 = CARTESIAN_POINT('',(1.463930349293,59.180842526455));
#1167 = CARTESIAN_POINT('',(1.415576244551,59.087585424015));
#1168 = CARTESIAN_POINT('',(1.366958077466,58.994473210288));
#1169 = CARTESIAN_POINT('',(1.317937323982,58.901590575203));
#1170 = CARTESIAN_POINT('',(1.268363639179,58.809034830679));
#1171 = CARTESIAN_POINT('',(1.2180610075,58.716920016307));
#1172 = CARTESIAN_POINT('',(1.113837979033,58.530775592312));
#1173 = CARTESIAN_POINT('',(1.059912915762,58.436893751201));
#1174 = CARTESIAN_POINT('',(1.004738472745,58.343784735837));
#1175 = CARTESIAN_POINT('',(0.948004782487,58.25162163735));
#1176 = CARTESIAN_POINT('',(0.889388400844,58.160694841923));
#1177 = CARTESIAN_POINT('',(0.828454283366,58.071466329887));
#1178 = CARTESIAN_POINT('',(0.764695047286,57.984542486599));
#1179 = CARTESIAN_POINT('',(0.697095380879,57.900904800251));
#1180 = ( GEOMETRIC_REPRESENTATION_CONTEXT(2) 
PARAMETRIC_REPRESENTATION_CONTEXT() REPRESENTATION_CONTEXT('2D SPACE',''
  ) );
#1181 = ORIENTED_EDGE('',*,*,#1182,.T.);
#1182 = EDGE_CURVE('',#738,#736,#1183,.T.);
#1183 = SURFACE_CURVE('',#1184,(#1205,#1229),.PCURVE_S1.);
#1184 = B_SPLINE_CURVE_WITH_KNOTS('',7,(#1185,#1186,#1187,#1188,#1189,
    #1190,#1191,#1192,#1193,#1194,#1195,#1196,#1197,#1198,#1199,#1200,
    #1201,#1202,#1203,#1204),.UNSPECIFIED.,.F.,.F.,(8,6,6,8),(0.,
    0.573955883315,0.726162160166,1.),.UNSPECIFIED.);
#1185 = CARTESIAN_POINT('',(40.843381181778,-299.2938072626,
    52.900904800251));
#1186 = CARTESIAN_POINT('',(40.874791973089,-299.3313200674,
    52.845873080055));
#1187 = CARTESIAN_POINT('',(40.905364932105,-299.3717867702,
    52.792451318725));
#1188 = CARTESIAN_POINT('',(40.935030787548,-299.4156290482,
    52.740797969814));
#1189 = CARTESIAN_POINT('',(40.963547393305,-299.4632730583,
    52.691387338521));
#1190 = CARTESIAN_POINT('',(40.990488710822,-299.5151439826,
    52.645033647262));
#1191 = CARTESIAN_POINT('',(41.015259063107,-299.5716223768,
    52.602866648825));
#1192 = CARTESIAN_POINT('',(41.042793792519,-299.6494567446,
    52.556811032226));
#1193 = CARTESIAN_POINT('',(41.048349613132,-299.6661141963,
    52.547569867126));
#1194 = CARTESIAN_POINT('',(41.053672880569,-299.6831162843,
    52.538772595193));
#1195 = CARTESIAN_POINT('',(41.058744670942,-299.7004610709,
    52.530454220456));
#1196 = CARTESIAN_POINT('',(41.063544755235,-299.7181423381,
    52.522651915605));
#1197 = CARTESIAN_POINT('',(41.06805222549,-299.7361488026,
    52.515403817166));
#1198 = CARTESIAN_POINT('',(41.079791455561,-299.7874134221,
    52.496772863131));
#1199 = CARTESIAN_POINT('',(41.086329101673,-299.8213923067,
    52.486702843057));
#1200 = CARTESIAN_POINT('',(41.091722935382,-299.8562549994,
    52.478781626404));
#1201 = CARTESIAN_POINT('',(41.095852118875,-299.8918120317,
    52.473222511024));
#1202 = CARTESIAN_POINT('',(41.098625642354,-299.9278247367,
    52.470180565199));
#1203 = CARTESIAN_POINT('',(41.1,-299.9640022176,52.469719622235));
#1204 = CARTESIAN_POINT('',(41.1,-300.,52.47177393111));
#1205 = PCURVE('',#117,#1206);
#1206 = DEFINITIONAL_REPRESENTATION('',(#1207),#1228);
#1207 = B_SPLINE_CURVE_WITH_KNOTS('',7,(#1208,#1209,#1210,#1211,#1212,
    #1213,#1214,#1215,#1216,#1217,#1218,#1219,#1220,#1221,#1222,#1223,
    #1224,#1225,#1226,#1227),.UNSPECIFIED.,.F.,.F.,(8,6,6,8),(0.,
    0.573955883315,0.726162160166,1.),.UNSPECIFIED.);
#1208 = CARTESIAN_POINT('',(0.494382354897,0.527458838056));
#1209 = CARTESIAN_POINT('',(0.493809816157,0.527573133017));
#1210 = CARTESIAN_POINT('',(0.493253161138,0.527696431041));
#1211 = CARTESIAN_POINT('',(0.492713882392,0.527830017787));
#1212 = CARTESIAN_POINT('',(0.492196698765,0.527975192869));
#1213 = CARTESIAN_POINT('',(0.491709792608,0.52813325337));
#1214 = CARTESIAN_POINT('',(0.491264561854,0.528305360879));
#1215 = CARTESIAN_POINT('',(0.490774162789,0.52854255844));
#1216 = CARTESIAN_POINT('',(0.49067549847,0.528593322046));
#1217 = CARTESIAN_POINT('',(0.49058128082,0.52864513656));
#1218 = CARTESIAN_POINT('',(0.490491866615,0.528697996126));
#1219 = CARTESIAN_POINT('',(0.490407635812,0.528751881843));
#1220 = CARTESIAN_POINT('',(0.490328979475,0.528806759373));
#1221 = CARTESIAN_POINT('',(0.490125506269,0.528962998512));
#1222 = CARTESIAN_POINT('',(0.490013904552,0.529066558383));
#1223 = CARTESIAN_POINT('',(0.489924002778,0.52917281457));
#1224 = CARTESIAN_POINT('',(0.489858020388,0.52928118987));
#1225 = CARTESIAN_POINT('',(0.489817596548,0.529390957037));
#1226 = CARTESIAN_POINT('',(0.489803455246,0.529501229501));
#1227 = CARTESIAN_POINT('',(0.489815014977,0.529610957198));
#1228 = ( GEOMETRIC_REPRESENTATION_CONTEXT(2) 
PARAMETRIC_REPRESENTATION_CONTEXT() REPRESENTATION_CONTEXT('2D SPACE',''
  ) );
#1229 = PCURVE('',#1031,#1230);
#1230 = DEFINITIONAL_REPRESENTATION('',(#1231),#1252);
#1231 = B_SPLINE_CURVE_WITH_KNOTS('',7,(#1232,#1233,#1234,#1235,#1236,
    #1237,#1238,#1239,#1240,#1241,#1242,#1243,#1244,#1245,#1246,#1247,
    #1248,#1249,#1250,#1251),.UNSPECIFIED.,.F.,.F.,(8,6,6,8),(0.,
    0.573955883315,0.726162160166,1.),.UNSPECIFIED.);
#1232 = CARTESIAN_POINT('',(0.697095380879,57.900904800251));
#1233 = CARTESIAN_POINT('',(0.652616317797,57.845873080055));
#1234 = CARTESIAN_POINT('',(0.606567449012,57.792451318725));
#1235 = CARTESIAN_POINT('',(0.558550836316,57.740797969814));
#1236 = CARTESIAN_POINT('',(0.50822379718,57.691387338521));
#1237 = CARTESIAN_POINT('',(0.455259315198,57.645033647262));
#1238 = CARTESIAN_POINT('',(0.3993447365,57.602866648825));
#1239 = CARTESIAN_POINT('',(0.32428910895,57.556811032226));
#1240 = CARTESIAN_POINT('',(0.308328482414,57.547569867126));
#1241 = CARTESIAN_POINT('',(0.292136663036,57.538772595193));
#1242 = CARTESIAN_POINT('',(0.27571381584,57.530454220456));
#1243 = CARTESIAN_POINT('',(0.259063289707,57.522651915605));
#1244 = CARTESIAN_POINT('',(0.24219213254,57.515403817166));
#1245 = CARTESIAN_POINT('',(0.19438163605,57.496772863131));
#1246 = CARTESIAN_POINT('',(0.162944488646,57.486702843057));
#1247 = CARTESIAN_POINT('',(0.130908815843,57.478781626404));
#1248 = CARTESIAN_POINT('',(9.840995882293E-02,57.473222511024));
#1249 = CARTESIAN_POINT('',(6.561386745304E-02,57.470180565199));
#1250 = CARTESIAN_POINT('',(3.272525665287E-02,57.469719622235));
#1251 = CARTESIAN_POINT('',(0.,57.47177393111));
#1252 = ( GEOMETRIC_REPRESENTATION_CONTEXT(2) 
PARAMETRIC_REPRESENTATION_CONTEXT() REPRESENTATION_CONTEXT('2D SPACE',''
  ) );
#1253 = ADVANCED_FACE('',(#1254,#1257),#66,.T.);
#1254 = FACE_BOUND('',#1255,.T.);
#1255 = EDGE_LOOP('',(#1256));
#1256 = ORIENTED_EDGE('',*,*,#51,.T.);
#1257 = FACE_BOUND('',#1258,.T.);
#1258 = EDGE_LOOP('',(#1259));
#1259 = ORIENTED_EDGE('',*,*,#1260,.F.);
#1260 = EDGE_CURVE('',#1261,#1261,#1263,.T.);
#1261 = VERTEX_POINT('',#1262);
#1262 = CARTESIAN_POINT('',(41.1,-300.,60.614793665771));
#1263 = SURFACE_CURVE('',#1264,(#1269,#1276),.PCURVE_S1.);
#1264 = CIRCLE('',#1265,1.1);
#1265 = AXIS2_PLACEMENT_3D('',#1266,#1267,#1268);
#1266 = CARTESIAN_POINT('',(40.,-300.,60.614793665771));
#1267 = DIRECTION('',(0.,0.,1.));
#1268 = DIRECTION('',(1.,0.,-0.));
#1269 = PCURVE('',#66,#1270);
#1270 = DEFINITIONAL_REPRESENTATION('',(#1271),#1275);
#1271 = CIRCLE('',#1272,1.1);
#1272 = AXIS2_PLACEMENT_2D('',#1273,#1274);
#1273 = CARTESIAN_POINT('',(0.,0.));
#1274 = DIRECTION('',(1.,0.));
#1275 = ( GEOMETRIC_REPRESENTATION_CONTEXT(2) 
PARAMETRIC_REPRESENTATION_CONTEXT() REPRESENTATION_CONTEXT('2D SPACE',''
  ) );
#1276 = PCURVE('',#1031,#1277);
#1277 = DEFINITIONAL_REPRESENTATION('',(#1278),#1282);
#1278 = LINE('',#1279,#1280);
#1279 = CARTESIAN_POINT('',(0.,65.614793665771));
#1280 = VECTOR('',#1281,1.);
#1281 = DIRECTION('',(1.,0.));
#1282 = ( GEOMETRIC_REPRESENTATION_CONTEXT(2) 
PARAMETRIC_REPRESENTATION_CONTEXT() REPRESENTATION_CONTEXT('2D SPACE',''
  ) );
#1283 = ADVANCED_FACE('',(#1284),#1031,.F.);
#1284 = FACE_BOUND('',#1285,.F.);
#1285 = EDGE_LOOP('',(#1286,#1287,#1308,#1309,#1310));
#1286 = ORIENTED_EDGE('',*,*,#1260,.F.);
#1287 = ORIENTED_EDGE('',*,*,#1288,.F.);
#1288 = EDGE_CURVE('',#736,#1261,#1289,.T.);
#1289 = SEAM_CURVE('',#1290,(#1294,#1301),.PCURVE_S1.);
#1290 = LINE('',#1291,#1292);
#1291 = CARTESIAN_POINT('',(41.1,-300.,-5.));
#1292 = VECTOR('',#1293,1.);
#1293 = DIRECTION('',(0.,0.,1.));
#1294 = PCURVE('',#1031,#1295);
#1295 = DEFINITIONAL_REPRESENTATION('',(#1296),#1300);
#1296 = LINE('',#1297,#1298);
#1297 = CARTESIAN_POINT('',(6.28318530718,-0.));
#1298 = VECTOR('',#1299,1.);
#1299 = DIRECTION('',(0.,1.));
#1300 = ( GEOMETRIC_REPRESENTATION_CONTEXT(2) 
PARAMETRIC_REPRESENTATION_CONTEXT() REPRESENTATION_CONTEXT('2D SPACE',''
  ) );
#1301 = PCURVE('',#1031,#1302);
#1302 = DEFINITIONAL_REPRESENTATION('',(#1303),#1307);
#1303 = LINE('',#1304,#1305);
#1304 = CARTESIAN_POINT('',(0.,-0.));
#1305 = VECTOR('',#1306,1.);
#1306 = DIRECTION('',(0.,1.));
#1307 = ( GEOMETRIC_REPRESENTATION_CONTEXT(2) 
PARAMETRIC_REPRESENTATION_CONTEXT() REPRESENTATION_CONTEXT('2D SPACE',''
  ) );
#1308 = ORIENTED_EDGE('',*,*,#1182,.F.);
#1309 = ORIENTED_EDGE('',*,*,#735,.F.);
#1310 = ORIENTED_EDGE('',*,*,#1288,.T.);
#1311 = ( GEOMETRIC_REPRESENTATION_CONTEXT(3) 
GLOBAL_UNCERTAINTY_ASSIGNED_CONTEXT((#1315)) 
GLOBAL_UNIT_ASSIGNED_CONTEXT((#1312,#1313,#1314)) REPRESENTATION_CONTEXT
('Context #1','3D Context with UNIT and UNCERTAINTY') );
#1312 = ( LENGTH_UNIT() NAMED_UNIT(*) SI_UNIT(.MILLI.,.METRE.) );
#1313 = ( NAMED_UNIT(*) PLANE_ANGLE_UNIT() SI_UNIT($,.RADIAN.) );
#1314 = ( NAMED_UNIT(*) SI_UNIT($,.STERADIAN.) SOLID_ANGLE_UNIT() );
#1315 = UNCERTAINTY_MEASURE_WITH_UNIT(LENGTH_MEASURE(1.E-04),#1312,
  'distance_accuracy_value','confusion accuracy');
#1316 = PRODUCT_RELATED_PRODUCT_CATEGORY('part',$,(#7));
ENDSEC;
END-ISO-10303-21;
