ISO-10303-21;
HEADER;
FILE_DESCRIPTION(('Open CASCADE Model'),'2;1');
FILE_NAME('Open CASCADE Shape Model','2026-09-24T01:31:32',('Author'),(
    'Open CASCADE'),'Open CASCADE STEP processor 7.9','Open CASCADE 7.9'
  ,'Unknown');
FILE_SCHEMA(('AUTOMOTIVE_DESIGN { 1 0 10303 214 1 1 1 1 }'));
ENDSEC;
DATA;
#1 = APPLICATION_PROTOCOL_DEFINITION('international standard',
  'automotive_design',2000,#2);
#2 = APPLICATION_CONTEXT(
  'core data for automotive mechanical design processes');
#3 = SHAPE_DEFINITION_REPRESENTATION(#4,#10);
#4 = PRODUCT_DEFINITION_SHAPE('','',#5);
#5 = PRODUCT_DEFINITION('design','',#6,#9);
#6 = PRODUCT_DEFINITION_FORMATION('','',#7);
#7 = PRODUCT('Open CASCADE STEP translator 7.9 22',
  'Open CASCADE STEP translator 7.9 22','',(#8));
#8 = PRODUCT_CONTEXT('',#2,'mechanical');
#9 = PRODUCT_DEFINITION_CONTEXT('part definition',#2,'design');
#10 = ADVANCED_BREP_SHAPE_REPRESENTATION('',(#11,#15),#643);
#11 = AXIS2_PLACEMENT_3D('',#12,#13,#14);
#12 = CARTESIAN_POINT('',(0.,0.,0.));
#13 = DIRECTION('',(0.,0.,1.));
#14 = DIRECTION('',(1.,0.,-0.));
#15 = MANIFOLD_SOLID_BREP('',#16);
#16 = CLOSED_SHELL('',(#17,#189,#265,#366,#415,#506,#553,#580,#609,#636)
  );
#17 = ADVANCED_FACE('',(#18),#32,.F.);
#18 = FACE_BOUND('',#19,.F.);
#19 = EDGE_LOOP('',(#20,#53,#81,#109,#137,#165));
#20 = ORIENTED_EDGE('',*,*,#21,.F.);
#21 = EDGE_CURVE('',#22,#24,#26,.T.);
#22 = VERTEX_POINT('',#23);
#23 = CARTESIAN_POINT('',(53.000021831984,85.298079795315,
    23.914217617116));
#24 = VERTEX_POINT('',#25);
#25 = CARTESIAN_POINT('',(59.000021713966,85.298079795315,
    23.914217617116));
#26 = SURFACE_CURVE('',#27,(#31,#42),.PCURVE_S1.);
#27 = LINE('',#28,#29);
#28 = CARTESIAN_POINT('',(161.00611692708,85.298079795313,
    23.914217617116));
#29 = VECTOR('',#30,1.);
#30 = DIRECTION('',(1.,-1.921191993791E-14,-4.234638202291E-15));
#31 = PCURVE('',#32,#37);
#32 = PLANE('',#33);
#33 = AXIS2_PLACEMENT_3D('',#34,#35,#36);
#34 = CARTESIAN_POINT('',(269.01221214021,85.30461986037,16.039637532958
    ));
#35 = DIRECTION('',(-1.921543029944E-14,-0.999999655111,
    -8.305284514461E-04));
#36 = DIRECTION('',(1.,-1.921542367226E-14,-1.595896157047E-17));
#37 = DEFINITIONAL_REPRESENTATION('',(#38),#41);
#38 = B_SPLINE_CURVE_WITH_KNOTS('',1,(#39,#40),.UNSPECIFIED.,.F.,.F.,(2,
    2),(-108.006094977,-102.0060952131),.PIECEWISE_BEZIER_KNOTS.);
#39 = CARTESIAN_POINT('',(-216.0121901902,7.874582800014));
#40 = CARTESIAN_POINT('',(-210.0121904262,7.874582800014));
#41 = ( GEOMETRIC_REPRESENTATION_CONTEXT(2) 
PARAMETRIC_REPRESENTATION_CONTEXT() REPRESENTATION_CONTEXT('2D SPACE',''
  ) );
#42 = PCURVE('',#43,#48);
#43 = PLANE('',#44);
#44 = AXIS2_PLACEMENT_3D('',#45,#46,#47);
#45 = CARTESIAN_POINT('',(53.000021713966,87.764864205429,
    23.836233539436));
#46 = DIRECTION('',(-4.839579470377E-15,-3.159787170413E-02,
    -0.999500662583));
#47 = DIRECTION('',(1.732943139442E-15,-0.999500662583,
    3.159787170413E-02));
#48 = DEFINITIONAL_REPRESENTATION('',(#49),#52);
#49 = B_SPLINE_CURVE_WITH_KNOTS('',1,(#50,#51),.UNSPECIFIED.,.F.,.F.,(2,
    2),(-108.006094977,-102.0060952131),.PIECEWISE_BEZIER_KNOTS.);
#50 = CARTESIAN_POINT('',(2.468016783239,-2.360360156217E-07));
#51 = CARTESIAN_POINT('',(2.468016783239,-6.));
#52 = ( GEOMETRIC_REPRESENTATION_CONTEXT(2) 
PARAMETRIC_REPRESENTATION_CONTEXT() REPRESENTATION_CONTEXT('2D SPACE',''
  ) );
#53 = ORIENTED_EDGE('',*,*,#54,.T.);
#54 = EDGE_CURVE('',#22,#55,#57,.T.);
#55 = VERTEX_POINT('',#56);
#56 = CARTESIAN_POINT('',(53.000021950002,85.304751298246,
    15.881379467397));
#57 = SURFACE_CURVE('',#58,(#62,#69),.PCURVE_S1.);
#58 = LINE('',#59,#60);
#59 = CARTESIAN_POINT('',(53.000021950002,85.297866302919,
    24.171273618355));
#60 = VECTOR('',#61,1.);
#61 = DIRECTION('',(7.577732100673E-16,8.305284514461E-04,
    -0.999999655111));
#62 = PCURVE('',#32,#63);
#63 = DEFINITIONAL_REPRESENTATION('',(#64),#68);
#64 = LINE('',#65,#66);
#65 = CARTESIAN_POINT('',(-216.0121901902,8.131638889908));
#66 = VECTOR('',#67,1.);
#67 = DIRECTION('',(7.577732100673E-16,-1.));
#68 = ( GEOMETRIC_REPRESENTATION_CONTEXT(2) 
PARAMETRIC_REPRESENTATION_CONTEXT() REPRESENTATION_CONTEXT('2D SPACE',''
  ) );
#69 = PCURVE('',#70,#75);
#70 = PLANE('',#71);
#71 = AXIS2_PLACEMENT_3D('',#72,#73,#74);
#72 = CARTESIAN_POINT('',(53.000021950002,79.297868372252,
    24.166290447646));
#73 = DIRECTION('',(-1.,1.921605302447E-14,-7.418139871492E-16));
#74 = DIRECTION('',(7.577732100672E-16,8.305284514461E-04,
    -0.999999655111));
#75 = DEFINITIONAL_REPRESENTATION('',(#76),#80);
#76 = LINE('',#77,#78);
#77 = CARTESIAN_POINT('',(-3.237705242798E-13,-6.));
#78 = VECTOR('',#79,1.);
#79 = DIRECTION('',(1.,0.));
#80 = ( GEOMETRIC_REPRESENTATION_CONTEXT(2) 
PARAMETRIC_REPRESENTATION_CONTEXT() REPRESENTATION_CONTEXT('2D SPACE',''
  ) );
#81 = ORIENTED_EDGE('',*,*,#82,.T.);
#82 = EDGE_CURVE('',#55,#83,#85,.T.);
#83 = VERTEX_POINT('',#84);
#84 = CARTESIAN_POINT('',(58.000021613967,85.304751302289,
    15.881374598286));
#85 = SURFACE_CURVE('',#86,(#90,#97),.PCURVE_S1.);
#86 = LINE('',#87,#88);
#87 = CARTESIAN_POINT('',(53.000021950002,85.304751298246,
    15.881379467397));
#88 = VECTOR('',#89,1.);
#89 = DIRECTION('',(1.,8.087682150246E-10,-9.738223297609E-07));
#90 = PCURVE('',#32,#91);
#91 = DEFINITIONAL_REPRESENTATION('',(#92),#96);
#92 = LINE('',#93,#94);
#93 = CARTESIAN_POINT('',(-216.0121901902,-0.158258120142));
#94 = VECTOR('',#95,1.);
#95 = DIRECTION('',(1.,-9.738226656055E-07));
#96 = ( GEOMETRIC_REPRESENTATION_CONTEXT(2) 
PARAMETRIC_REPRESENTATION_CONTEXT() REPRESENTATION_CONTEXT('2D SPACE',''
  ) );
#97 = PCURVE('',#98,#103);
#98 = PLANE('',#99);
#99 = AXIS2_PLACEMENT_3D('',#100,#101,#102);
#100 = CARTESIAN_POINT('',(53.000021950002,79.304753367579,
    15.876396296689));
#101 = DIRECTION('',(-9.738226656057E-07,8.305284514453E-04,
    -0.999999655111));
#102 = DIRECTION('',(1.,8.087682150248E-10,-9.738223297611E-07));
#103 = DEFINITIONAL_REPRESENTATION('',(#104),#108);
#104 = LINE('',#105,#106);
#105 = CARTESIAN_POINT('',(-1.152925796096E-13,-6.));
#106 = VECTOR('',#107,1.);
#107 = DIRECTION('',(1.,2.067951531383E-25));
#108 = ( GEOMETRIC_REPRESENTATION_CONTEXT(2) 
PARAMETRIC_REPRESENTATION_CONTEXT() REPRESENTATION_CONTEXT('2D SPACE',''
  ) );
#109 = ORIENTED_EDGE('',*,*,#110,.T.);
#110 = EDGE_CURVE('',#83,#111,#113,.T.);
#111 = VERTEX_POINT('',#112);
#112 = CARTESIAN_POINT('',(58.000021613967,85.311603368421,
    7.631128918309));
#113 = SURFACE_CURVE('',#114,(#118,#125),.PCURVE_S1.);
#114 = LINE('',#115,#116);
#115 = CARTESIAN_POINT('',(58.000021613967,85.304751302289,
    15.881374598286));
#116 = VECTOR('',#117,1.);
#117 = DIRECTION('',(-7.32052281258E-15,8.305284514461E-04,
    -0.999999655111));
#118 = PCURVE('',#32,#119);
#119 = DEFINITIONAL_REPRESENTATION('',(#120),#124);
#120 = LINE('',#121,#122);
#121 = CARTESIAN_POINT('',(-211.0121905262,-0.158262989255));
#122 = VECTOR('',#123,1.);
#123 = DIRECTION('',(-7.32052281258E-15,-1.));
#124 = ( GEOMETRIC_REPRESENTATION_CONTEXT(2) 
PARAMETRIC_REPRESENTATION_CONTEXT() REPRESENTATION_CONTEXT('2D SPACE',''
  ) );
#125 = PCURVE('',#126,#131);
#126 = PLANE('',#127);
#127 = AXIS2_PLACEMENT_3D('',#128,#129,#130);
#128 = CARTESIAN_POINT('',(58.000021613967,79.304753371622,
    15.876391427577));
#129 = DIRECTION('',(-1.,1.920934376978E-14,7.336479249383E-15));
#130 = DIRECTION('',(-7.320522812579E-15,8.305284514461E-04,
    -0.999999655111));
#131 = DEFINITIONAL_REPRESENTATION('',(#132),#136);
#132 = LINE('',#133,#134);
#133 = CARTESIAN_POINT('',(-3.237705242798E-13,-6.));
#134 = VECTOR('',#135,1.);
#135 = DIRECTION('',(1.,0.));
#136 = ( GEOMETRIC_REPRESENTATION_CONTEXT(2) 
PARAMETRIC_REPRESENTATION_CONTEXT() REPRESENTATION_CONTEXT('2D SPACE',''
  ) );
#137 = ORIENTED_EDGE('',*,*,#138,.T.);
#138 = EDGE_CURVE('',#111,#139,#141,.T.);
#139 = VERTEX_POINT('',#140);
#140 = CARTESIAN_POINT('',(59.000021713966,85.311596848137,
    7.638979681149));
#141 = SURFACE_CURVE('',#142,(#146,#153),.PCURVE_S1.);
#142 = LINE('',#143,#144);
#143 = CARTESIAN_POINT('',(58.000021613967,85.311603368421,
    7.631128918309));
#144 = VECTOR('',#145,1.);
#145 = DIRECTION('',(0.999969184171,-6.520082591973E-06,
    7.850520126919E-03));
#146 = PCURVE('',#32,#147);
#147 = DEFINITIONAL_REPRESENTATION('',(#148),#152);
#148 = LINE('',#149,#150);
#149 = CARTESIAN_POINT('',(-211.0121905262,-8.408511514651));
#150 = VECTOR('',#151,1.);
#151 = DIRECTION('',(0.999969184171,7.850522834477E-03));
#152 = ( GEOMETRIC_REPRESENTATION_CONTEXT(2) 
PARAMETRIC_REPRESENTATION_CONTEXT() REPRESENTATION_CONTEXT('2D SPACE',''
  ) );
#153 = PCURVE('',#154,#159);
#154 = PLANE('',#155);
#155 = AXIS2_PLACEMENT_3D('',#156,#157,#158);
#156 = CARTESIAN_POINT('',(58.000021613967,79.311605437754,7.6261457476)
  );
#157 = DIRECTION('',(7.850522834475E-03,8.305028580225E-04,
    -0.999968839293));
#158 = DIRECTION('',(0.999969184171,-6.520082591971E-06,
    7.850520126917E-03));
#159 = DEFINITIONAL_REPRESENTATION('',(#160),#164);
#160 = LINE('',#161,#162);
#161 = CARTESIAN_POINT('',(-1.153071439871E-13,-6.));
#162 = VECTOR('',#163,1.);
#163 = DIRECTION('',(1.,8.470329472543E-22));
#164 = ( GEOMETRIC_REPRESENTATION_CONTEXT(2) 
PARAMETRIC_REPRESENTATION_CONTEXT() REPRESENTATION_CONTEXT('2D SPACE',''
  ) );
#165 = ORIENTED_EDGE('',*,*,#166,.T.);
#166 = EDGE_CURVE('',#139,#24,#167,.T.);
#167 = SURFACE_CURVE('',#168,(#172,#178),.PCURVE_S1.);
#168 = LINE('',#169,#170);
#169 = CARTESIAN_POINT('',(59.000021713966,85.305596195882,
    14.86407856256));
#170 = VECTOR('',#171,1.);
#171 = DIRECTION('',(4.893230050241E-15,-8.305284514461E-04,
    0.999999655111));
#172 = PCURVE('',#32,#173);
#173 = DEFINITIONAL_REPRESENTATION('',(#174),#177);
#174 = B_SPLINE_CURVE_WITH_KNOTS('',1,(#175,#176),.UNSPECIFIED.,.F.,.F.,
  (2,2),(-7.232952138815,9.25461180696),.PIECEWISE_BEZIER_KNOTS.);
#175 = CARTESIAN_POINT('',(-210.0121904262,-8.408511514651));
#176 = CARTESIAN_POINT('',(-210.0121904262,8.079052431125));
#177 = ( GEOMETRIC_REPRESENTATION_CONTEXT(2) 
PARAMETRIC_REPRESENTATION_CONTEXT() REPRESENTATION_CONTEXT('2D SPACE',''
  ) );
#178 = PCURVE('',#179,#184);
#179 = PLANE('',#180);
#180 = AXIS2_PLACEMENT_3D('',#181,#182,#183);
#181 = CARTESIAN_POINT('',(59.000021713966,101.82485579253,
    13.702238501109));
#182 = DIRECTION('',(1.,1.579157404884E-15,-4.891920202255E-15));
#183 = DIRECTION('',(1.579157404884E-15,-1.,-7.725112011493E-30));
#184 = DEFINITIONAL_REPRESENTATION('',(#185),#188);
#185 = B_SPLINE_CURVE_WITH_KNOTS('',1,(#186,#187),.UNSPECIFIED.,.F.,.F.,
  (2,2),(-7.232952138815,9.25461180696),.PIECEWISE_BEZIER_KNOTS.);
#186 = CARTESIAN_POINT('',(16.513252424109,6.0711095828));
#187 = CARTESIAN_POINT('',(16.526945815061,-10.41644867659));
#188 = ( GEOMETRIC_REPRESENTATION_CONTEXT(2) 
PARAMETRIC_REPRESENTATION_CONTEXT() REPRESENTATION_CONTEXT('2D SPACE',''
  ) );
#189 = ADVANCED_FACE('',(#190),#43,.F.);
#190 = FACE_BOUND('',#191,.F.);
#191 = EDGE_LOOP('',(#192,#215,#216,#239));
#192 = ORIENTED_EDGE('',*,*,#193,.F.);
#193 = EDGE_CURVE('',#22,#194,#196,.T.);
#194 = VERTEX_POINT('',#195);
#195 = CARTESIAN_POINT('',(53.000021713966,84.298053084547,
    23.945832119128));
#196 = SURFACE_CURVE('',#197,(#201,#208),.PCURVE_S1.);
#197 = LINE('',#198,#199);
#198 = CARTESIAN_POINT('',(53.000021713966,87.764864205429,
    23.836233539436));
#199 = VECTOR('',#200,1.);
#200 = DIRECTION('',(1.732943139442E-15,-0.999500662583,
    3.159787170413E-02));
#201 = PCURVE('',#43,#202);
#202 = DEFINITIONAL_REPRESENTATION('',(#203),#207);
#203 = LINE('',#204,#205);
#204 = CARTESIAN_POINT('',(0.,0.));
#205 = VECTOR('',#206,1.);
#206 = DIRECTION('',(1.,-4.930380657631E-32));
#207 = ( GEOMETRIC_REPRESENTATION_CONTEXT(2) 
PARAMETRIC_REPRESENTATION_CONTEXT() REPRESENTATION_CONTEXT('2D SPACE',''
  ) );
#208 = PCURVE('',#70,#209);
#209 = DEFINITIONAL_REPRESENTATION('',(#210),#214);
#210 = LINE('',#211,#212);
#211 = CARTESIAN_POINT('',(0.337088875315,-8.466718791352));
#212 = VECTOR('',#213,1.);
#213 = DIRECTION('',(-3.242797454389E-02,0.999474074935));
#214 = ( GEOMETRIC_REPRESENTATION_CONTEXT(2) 
PARAMETRIC_REPRESENTATION_CONTEXT() REPRESENTATION_CONTEXT('2D SPACE',''
  ) );
#215 = ORIENTED_EDGE('',*,*,#21,.T.);
#216 = ORIENTED_EDGE('',*,*,#217,.T.);
#217 = EDGE_CURVE('',#24,#218,#220,.T.);
#218 = VERTEX_POINT('',#219);
#219 = CARTESIAN_POINT('',(59.000021713966,84.298053084547,
    23.945832119128));
#220 = SURFACE_CURVE('',#221,(#225,#232),.PCURVE_S1.);
#221 = LINE('',#222,#223);
#222 = CARTESIAN_POINT('',(59.000021713966,87.764864205429,
    23.836233539436));
#223 = VECTOR('',#224,1.);
#224 = DIRECTION('',(1.732943139442E-15,-0.999500662583,
    3.159787170413E-02));
#225 = PCURVE('',#43,#226);
#226 = DEFINITIONAL_REPRESENTATION('',(#227),#231);
#227 = LINE('',#228,#229);
#228 = CARTESIAN_POINT('',(9.499593308458E-15,-6.));
#229 = VECTOR('',#230,1.);
#230 = DIRECTION('',(1.,-4.930380657631E-32));
#231 = ( GEOMETRIC_REPRESENTATION_CONTEXT(2) 
PARAMETRIC_REPRESENTATION_CONTEXT() REPRESENTATION_CONTEXT('2D SPACE',''
  ) );
#232 = PCURVE('',#179,#233);
#233 = DEFINITIONAL_REPRESENTATION('',(#234),#238);
#234 = LINE('',#235,#236);
#235 = CARTESIAN_POINT('',(14.059991587101,-10.13399503832));
#236 = VECTOR('',#237,1.);
#237 = DIRECTION('',(0.999500662583,-3.159787170413E-02));
#238 = ( GEOMETRIC_REPRESENTATION_CONTEXT(2) 
PARAMETRIC_REPRESENTATION_CONTEXT() REPRESENTATION_CONTEXT('2D SPACE',''
  ) );
#239 = ORIENTED_EDGE('',*,*,#240,.F.);
#240 = EDGE_CURVE('',#194,#218,#241,.T.);
#241 = SURFACE_CURVE('',#242,(#246,#253),.PCURVE_S1.);
#242 = LINE('',#243,#244);
#243 = CARTESIAN_POINT('',(53.000021713966,84.298053084547,
    23.945832119128));
#244 = VECTOR('',#245,1.);
#245 = DIRECTION('',(1.,1.579157404884E-15,-4.891920202255E-15));
#246 = PCURVE('',#43,#247);
#247 = DEFINITIONAL_REPRESENTATION('',(#248),#252);
#248 = LINE('',#249,#250);
#249 = CARTESIAN_POINT('',(3.468543094232,6.010787959007E-15));
#250 = VECTOR('',#251,1.);
#251 = DIRECTION('',(-1.037598609399E-28,-1.));
#252 = ( GEOMETRIC_REPRESENTATION_CONTEXT(2) 
PARAMETRIC_REPRESENTATION_CONTEXT() REPRESENTATION_CONTEXT('2D SPACE',''
  ) );
#253 = PCURVE('',#254,#259);
#254 = PLANE('',#255);
#255 = AXIS2_PLACEMENT_3D('',#256,#257,#258);
#256 = CARTESIAN_POINT('',(53.000021713966,84.298053084547,
    23.945832119128));
#257 = DIRECTION('',(-1.57509398134E-15,0.999999655111,
    8.305284514184E-04));
#258 = DIRECTION('',(-4.893230050241E-15,8.305284514184E-04,
    -0.999999655111));
#259 = DEFINITIONAL_REPRESENTATION('',(#260),#264);
#260 = LINE('',#261,#262);
#261 = CARTESIAN_POINT('',(0.,0.));
#262 = VECTOR('',#263,1.);
#263 = DIRECTION('',(-4.433398287342E-28,-1.));
#264 = ( GEOMETRIC_REPRESENTATION_CONTEXT(2) 
PARAMETRIC_REPRESENTATION_CONTEXT() REPRESENTATION_CONTEXT('2D SPACE',''
  ) );
#265 = ADVANCED_FACE('',(#266),#179,.T.);
#266 = FACE_BOUND('',#267,.T.);
#267 = EDGE_LOOP('',(#268,#269,#270,#293,#321,#347));
#268 = ORIENTED_EDGE('',*,*,#166,.T.);
#269 = ORIENTED_EDGE('',*,*,#217,.T.);
#270 = ORIENTED_EDGE('',*,*,#271,.T.);
#271 = EDGE_CURVE('',#218,#272,#274,.T.);
#272 = VERTEX_POINT('',#273);
#273 = CARTESIAN_POINT('',(59.000021713966,84.304827799186,
    15.788721678161));
#274 = SURFACE_CURVE('',#275,(#279,#286),.PCURVE_S1.);
#275 = LINE('',#276,#277);
#276 = CARTESIAN_POINT('',(59.000021713966,84.298053084547,
    23.945832119128));
#277 = VECTOR('',#278,1.);
#278 = DIRECTION('',(-4.893230050241E-15,8.305284514184E-04,
    -0.999999655111));
#279 = PCURVE('',#179,#280);
#280 = DEFINITIONAL_REPRESENTATION('',(#281),#285);
#281 = LINE('',#282,#283);
#282 = CARTESIAN_POINT('',(17.526802707983,-10.24359361801));
#283 = VECTOR('',#284,1.);
#284 = DIRECTION('',(-8.305284514184E-04,0.999999655111));
#285 = ( GEOMETRIC_REPRESENTATION_CONTEXT(2) 
PARAMETRIC_REPRESENTATION_CONTEXT() REPRESENTATION_CONTEXT('2D SPACE',''
  ) );
#286 = PCURVE('',#254,#287);
#287 = DEFINITIONAL_REPRESENTATION('',(#288),#292);
#288 = LINE('',#289,#290);
#289 = CARTESIAN_POINT('',(-2.934757778229E-14,-6.));
#290 = VECTOR('',#291,1.);
#291 = DIRECTION('',(1.,0.));
#292 = ( GEOMETRIC_REPRESENTATION_CONTEXT(2) 
PARAMETRIC_REPRESENTATION_CONTEXT() REPRESENTATION_CONTEXT('2D SPACE',''
  ) );
#293 = ORIENTED_EDGE('',*,*,#294,.T.);
#294 = EDGE_CURVE('',#272,#295,#297,.T.);
#295 = VERTEX_POINT('',#296);
#296 = CARTESIAN_POINT('',(59.000021713966,79.30482952363,
    15.784569035904));
#297 = SURFACE_CURVE('',#298,(#302,#309),.PCURVE_S1.);
#298 = LINE('',#299,#300);
#299 = CARTESIAN_POINT('',(59.000021713966,84.304827799186,
    15.788721678161));
#300 = VECTOR('',#301,1.);
#301 = DIRECTION('',(1.57509398134E-15,-0.999999655111,
    -8.305284514664E-04));
#302 = PCURVE('',#179,#303);
#303 = DEFINITIONAL_REPRESENTATION('',(#304),#308);
#304 = LINE('',#305,#306);
#305 = CARTESIAN_POINT('',(17.520027993344,-2.086483177052));
#306 = VECTOR('',#307,1.);
#307 = DIRECTION('',(0.999999655111,8.305284514664E-04));
#308 = ( GEOMETRIC_REPRESENTATION_CONTEXT(2) 
PARAMETRIC_REPRESENTATION_CONTEXT() REPRESENTATION_CONTEXT('2D SPACE',''
  ) );
#309 = PCURVE('',#310,#315);
#310 = PLANE('',#311);
#311 = AXIS2_PLACEMENT_3D('',#312,#313,#314);
#312 = CARTESIAN_POINT('',(53.000021713966,84.304827799186,
    15.788721678161));
#313 = DIRECTION('',(-4.893230050242E-15,8.305284514664E-04,
    -0.999999655111));
#314 = DIRECTION('',(1.57509398134E-15,-0.999999655111,
    -8.305284514664E-04));
#315 = DEFINITIONAL_REPRESENTATION('',(#316),#320);
#316 = LINE('',#317,#318);
#317 = CARTESIAN_POINT('',(9.475644241258E-15,-6.));
#318 = VECTOR('',#319,1.);
#319 = DIRECTION('',(1.,-5.515863360725E-31));
#320 = ( GEOMETRIC_REPRESENTATION_CONTEXT(2) 
PARAMETRIC_REPRESENTATION_CONTEXT() REPRESENTATION_CONTEXT('2D SPACE',''
  ) );
#321 = ORIENTED_EDGE('',*,*,#322,.F.);
#322 = EDGE_CURVE('',#323,#295,#325,.T.);
#323 = VERTEX_POINT('',#324);
#324 = CARTESIAN_POINT('',(59.000021713966,79.31159891747,7.63399651044)
  );
#325 = SURFACE_CURVE('',#326,(#330,#336),.PCURVE_S1.);
#326 = LINE('',#327,#328);
#327 = CARTESIAN_POINT('',(59.000021713966,79.305598265215,
    14.859095391851));
#328 = VECTOR('',#329,1.);
#329 = DIRECTION('',(4.893230050241E-15,-8.305284514461E-04,
    0.999999655111));
#330 = PCURVE('',#179,#331);
#331 = DEFINITIONAL_REPRESENTATION('',(#332),#335);
#332 = B_SPLINE_CURVE_WITH_KNOTS('',1,(#333,#334),.UNSPECIFIED.,.F.,.F.,
  (2,2),(-7.232952138815,9.259594979388),.PIECEWISE_BEZIER_KNOTS.);
#333 = CARTESIAN_POINT('',(22.513250354776,6.076092753509));
#334 = CARTESIAN_POINT('',(22.526947884394,-10.41644867659));
#335 = ( GEOMETRIC_REPRESENTATION_CONTEXT(2) 
PARAMETRIC_REPRESENTATION_CONTEXT() REPRESENTATION_CONTEXT('2D SPACE',''
  ) );
#336 = PCURVE('',#337,#342);
#337 = PLANE('',#338);
#338 = AXIS2_PLACEMENT_3D('',#339,#340,#341);
#339 = CARTESIAN_POINT('',(269.01221214021,79.304621929703,
    16.034654362249));
#340 = DIRECTION('',(-1.921543029944E-14,-0.999999655111,
    -8.305284514461E-04));
#341 = DIRECTION('',(1.,-1.921542367226E-14,-1.595896157047E-17));
#342 = DEFINITIONAL_REPRESENTATION('',(#343),#346);
#343 = B_SPLINE_CURVE_WITH_KNOTS('',1,(#344,#345),.UNSPECIFIED.,.F.,.F.,
  (2,2),(-7.232952138815,9.259594979388),.PIECEWISE_BEZIER_KNOTS.);
#344 = CARTESIAN_POINT('',(-210.0121904262,-8.408511514651));
#345 = CARTESIAN_POINT('',(-210.0121904262,8.084035603552));
#346 = ( GEOMETRIC_REPRESENTATION_CONTEXT(2) 
PARAMETRIC_REPRESENTATION_CONTEXT() REPRESENTATION_CONTEXT('2D SPACE',''
  ) );
#347 = ORIENTED_EDGE('',*,*,#348,.F.);
#348 = EDGE_CURVE('',#139,#323,#349,.T.);
#349 = SURFACE_CURVE('',#350,(#354,#360),.PCURVE_S1.);
#350 = LINE('',#351,#352);
#351 = CARTESIAN_POINT('',(59.000021713966,90.570739513373,
    7.643347550269));
#352 = VECTOR('',#353,1.);
#353 = DIRECTION('',(1.57509398134E-15,-0.999999655111,
    -8.305284514454E-04));
#354 = PCURVE('',#179,#355);
#355 = DEFINITIONAL_REPRESENTATION('',(#356),#359);
#356 = B_SPLINE_CURVE_WITH_KNOTS('',1,(#357,#358),.UNSPECIFIED.,.F.,.F.,
  (2,2),(5.259144479056,11.259144479057),.PIECEWISE_BEZIER_KNOTS.);
#357 = CARTESIAN_POINT('',(16.513258944392,6.063258819961));
#358 = CARTESIAN_POINT('',(22.51325687506,6.068241990669));
#359 = ( GEOMETRIC_REPRESENTATION_CONTEXT(2) 
PARAMETRIC_REPRESENTATION_CONTEXT() REPRESENTATION_CONTEXT('2D SPACE',''
  ) );
#360 = PCURVE('',#154,#361);
#361 = DEFINITIONAL_REPRESENTATION('',(#362),#365);
#362 = B_SPLINE_CURVE_WITH_KNOTS('',1,(#363,#364),.UNSPECIFIED.,.F.,.F.,
  (2,2),(5.259144479056,11.259144479057),.PIECEWISE_BEZIER_KNOTS.);
#363 = CARTESIAN_POINT('',(1.000030916781,-6.000000000001));
#364 = CARTESIAN_POINT('',(1.000030916781,0.));
#365 = ( GEOMETRIC_REPRESENTATION_CONTEXT(2) 
PARAMETRIC_REPRESENTATION_CONTEXT() REPRESENTATION_CONTEXT('2D SPACE',''
  ) );
#366 = ADVANCED_FACE('',(#367),#154,.T.);
#367 = FACE_BOUND('',#368,.T.);
#368 = EDGE_LOOP('',(#369,#392,#413,#414));
#369 = ORIENTED_EDGE('',*,*,#370,.F.);
#370 = EDGE_CURVE('',#371,#323,#373,.T.);
#371 = VERTEX_POINT('',#372);
#372 = CARTESIAN_POINT('',(58.000021613967,79.311605437754,7.6261457476)
  );
#373 = SURFACE_CURVE('',#374,(#378,#385),.PCURVE_S1.);
#374 = LINE('',#375,#376);
#375 = CARTESIAN_POINT('',(58.000021613967,79.311605437754,7.6261457476)
  );
#376 = VECTOR('',#377,1.);
#377 = DIRECTION('',(0.999969184171,-6.520082591973E-06,
    7.850520126919E-03));
#378 = PCURVE('',#154,#379);
#379 = DEFINITIONAL_REPRESENTATION('',(#380),#384);
#380 = LINE('',#381,#382);
#381 = CARTESIAN_POINT('',(0.,-0.));
#382 = VECTOR('',#383,1.);
#383 = DIRECTION('',(1.,8.470329472543E-22));
#384 = ( GEOMETRIC_REPRESENTATION_CONTEXT(2) 
PARAMETRIC_REPRESENTATION_CONTEXT() REPRESENTATION_CONTEXT('2D SPACE',''
  ) );
#385 = PCURVE('',#337,#386);
#386 = DEFINITIONAL_REPRESENTATION('',(#387),#391);
#387 = LINE('',#388,#389);
#388 = CARTESIAN_POINT('',(-211.0121905262,-8.408511514651));
#389 = VECTOR('',#390,1.);
#390 = DIRECTION('',(0.999969184171,7.850522834477E-03));
#391 = ( GEOMETRIC_REPRESENTATION_CONTEXT(2) 
PARAMETRIC_REPRESENTATION_CONTEXT() REPRESENTATION_CONTEXT('2D SPACE',''
  ) );
#392 = ORIENTED_EDGE('',*,*,#393,.T.);
#393 = EDGE_CURVE('',#371,#111,#394,.T.);
#394 = SURFACE_CURVE('',#395,(#399,#406),.PCURVE_S1.);
#395 = LINE('',#396,#397);
#396 = CARTESIAN_POINT('',(58.000021613967,79.311605437754,7.6261457476)
  );
#397 = VECTOR('',#398,1.);
#398 = DIRECTION('',(1.921543029944E-14,0.999999655111,
    8.305284514461E-04));
#399 = PCURVE('',#154,#400);
#400 = DEFINITIONAL_REPRESENTATION('',(#401),#405);
#401 = LINE('',#402,#403);
#402 = CARTESIAN_POINT('',(0.,-0.));
#403 = VECTOR('',#404,1.);
#404 = DIRECTION('',(2.170945443813E-18,-1.));
#405 = ( GEOMETRIC_REPRESENTATION_CONTEXT(2) 
PARAMETRIC_REPRESENTATION_CONTEXT() REPRESENTATION_CONTEXT('2D SPACE',''
  ) );
#406 = PCURVE('',#126,#407);
#407 = DEFINITIONAL_REPRESENTATION('',(#408),#412);
#408 = LINE('',#409,#410);
#409 = CARTESIAN_POINT('',(8.250248525395,-1.561997059474E-13));
#410 = VECTOR('',#411,1.);
#411 = DIRECTION('',(0.,-1.));
#412 = ( GEOMETRIC_REPRESENTATION_CONTEXT(2) 
PARAMETRIC_REPRESENTATION_CONTEXT() REPRESENTATION_CONTEXT('2D SPACE',''
  ) );
#413 = ORIENTED_EDGE('',*,*,#138,.T.);
#414 = ORIENTED_EDGE('',*,*,#348,.T.);
#415 = ADVANCED_FACE('',(#416),#126,.T.);
#416 = FACE_BOUND('',#417,.T.);
#417 = EDGE_LOOP('',(#418,#441,#462,#463,#464,#487));
#418 = ORIENTED_EDGE('',*,*,#419,.F.);
#419 = EDGE_CURVE('',#420,#422,#424,.T.);
#420 = VERTEX_POINT('',#421);
#421 = CARTESIAN_POINT('',(58.000021613967,84.304751538051,
    15.880544069744));
#422 = VERTEX_POINT('',#423);
#423 = CARTESIAN_POINT('',(58.000021613967,84.304827799186,
    15.788721678161));
#424 = SURFACE_CURVE('',#425,(#429,#435),.PCURVE_S1.);
#425 = LINE('',#426,#427);
#426 = CARTESIAN_POINT('',(58.000021613967,84.301402311299,
    19.913188094436));
#427 = VECTOR('',#428,1.);
#428 = DIRECTION('',(-7.320522812579E-15,8.305284514184E-04,
    -0.999999655111));
#429 = PCURVE('',#126,#430);
#430 = DEFINITIONAL_REPRESENTATION('',(#431),#434);
#431 = B_SPLINE_CURVE_WITH_KNOTS('',1,(#432,#433),.UNSPECIFIED.,.F.,.F.,
  (2,2),(4.032645415506,4.124467838758),.PIECEWISE_BEZIER_KNOTS.);
#432 = CARTESIAN_POINT('',(-3.241851231905E-13,-4.999999890873));
#433 = CARTESIAN_POINT('',(9.182242325115E-02,-4.999999890873));
#434 = ( GEOMETRIC_REPRESENTATION_CONTEXT(2) 
PARAMETRIC_REPRESENTATION_CONTEXT() REPRESENTATION_CONTEXT('2D SPACE',''
  ) );
#435 = PCURVE('',#254,#436);
#436 = DEFINITIONAL_REPRESENTATION('',(#437),#440);
#437 = B_SPLINE_CURVE_WITH_KNOTS('',1,(#438,#439),.UNSPECIFIED.,.F.,.F.,
  (2,2),(4.032645415506,4.124467838758),.PIECEWISE_BEZIER_KNOTS.);
#438 = CARTESIAN_POINT('',(8.065290831013,-4.999999900001));
#439 = CARTESIAN_POINT('',(8.157113254264,-4.999999900001));
#440 = ( GEOMETRIC_REPRESENTATION_CONTEXT(2) 
PARAMETRIC_REPRESENTATION_CONTEXT() REPRESENTATION_CONTEXT('2D SPACE',''
  ) );
#441 = ORIENTED_EDGE('',*,*,#442,.T.);
#442 = EDGE_CURVE('',#420,#83,#443,.T.);
#443 = SURFACE_CURVE('',#444,(#448,#455),.PCURVE_S1.);
#444 = LINE('',#445,#446);
#445 = CARTESIAN_POINT('',(58.000021613967,79.304753371622,
    15.876391427577));
#446 = VECTOR('',#447,1.);
#447 = DIRECTION('',(1.921543029944E-14,0.999999655111,
    8.305284514461E-04));
#448 = PCURVE('',#126,#449);
#449 = DEFINITIONAL_REPRESENTATION('',(#450),#454);
#450 = LINE('',#451,#452);
#451 = CARTESIAN_POINT('',(0.,-0.));
#452 = VECTOR('',#453,1.);
#453 = DIRECTION('',(0.,-1.));
#454 = ( GEOMETRIC_REPRESENTATION_CONTEXT(2) 
PARAMETRIC_REPRESENTATION_CONTEXT() REPRESENTATION_CONTEXT('2D SPACE',''
  ) );
#455 = PCURVE('',#98,#456);
#456 = DEFINITIONAL_REPRESENTATION('',(#457),#461);
#457 = LINE('',#458,#459);
#458 = CARTESIAN_POINT('',(4.999999663967,8.384262034805E-13));
#459 = VECTOR('',#460,1.);
#460 = DIRECTION('',(-1.35347427729E-22,-1.));
#461 = ( GEOMETRIC_REPRESENTATION_CONTEXT(2) 
PARAMETRIC_REPRESENTATION_CONTEXT() REPRESENTATION_CONTEXT('2D SPACE',''
  ) );
#462 = ORIENTED_EDGE('',*,*,#110,.T.);
#463 = ORIENTED_EDGE('',*,*,#393,.F.);
#464 = ORIENTED_EDGE('',*,*,#465,.F.);
#465 = EDGE_CURVE('',#466,#371,#468,.T.);
#466 = VERTEX_POINT('',#467);
#467 = CARTESIAN_POINT('',(58.000021613967,79.304829578194,
    15.784569035949));
#468 = SURFACE_CURVE('',#469,(#473,#480),.PCURVE_S1.);
#469 = LINE('',#470,#471);
#470 = CARTESIAN_POINT('',(58.000021613967,79.304753371622,
    15.876391427577));
#471 = VECTOR('',#472,1.);
#472 = DIRECTION('',(-7.32052281258E-15,8.305284514461E-04,
    -0.999999655111));
#473 = PCURVE('',#126,#474);
#474 = DEFINITIONAL_REPRESENTATION('',(#475),#479);
#475 = LINE('',#476,#477);
#476 = CARTESIAN_POINT('',(0.,-0.));
#477 = VECTOR('',#478,1.);
#478 = DIRECTION('',(1.,0.));
#479 = ( GEOMETRIC_REPRESENTATION_CONTEXT(2) 
PARAMETRIC_REPRESENTATION_CONTEXT() REPRESENTATION_CONTEXT('2D SPACE',''
  ) );
#480 = PCURVE('',#337,#481);
#481 = DEFINITIONAL_REPRESENTATION('',(#482),#486);
#482 = LINE('',#483,#484);
#483 = CARTESIAN_POINT('',(-211.0121905262,-0.158262989255));
#484 = VECTOR('',#485,1.);
#485 = DIRECTION('',(-7.32052281258E-15,-1.));
#486 = ( GEOMETRIC_REPRESENTATION_CONTEXT(2) 
PARAMETRIC_REPRESENTATION_CONTEXT() REPRESENTATION_CONTEXT('2D SPACE',''
  ) );
#487 = ORIENTED_EDGE('',*,*,#488,.F.);
#488 = EDGE_CURVE('',#422,#466,#489,.T.);
#489 = SURFACE_CURVE('',#490,(#494,#500),.PCURVE_S1.);
#490 = LINE('',#491,#492);
#491 = CARTESIAN_POINT('',(58.000021613967,81.804828715971,
    15.786645357078));
#492 = VECTOR('',#493,1.);
#493 = DIRECTION('',(-1.921543029944E-14,-0.999999655111,
    -8.305284514664E-04));
#494 = PCURVE('',#126,#495);
#495 = DEFINITIONAL_REPRESENTATION('',(#496),#499);
#496 = B_SPLINE_CURVE_WITH_KNOTS('',1,(#497,#498),.UNSPECIFIED.,.F.,.F.,
  (2,2),(-2.499999945437,2.499999945436),.PIECEWISE_BEZIER_KNOTS.);
#497 = CARTESIAN_POINT('',(9.182242325115E-02,-4.999999890873));
#498 = CARTESIAN_POINT('',(9.182242325125E-02,0.));
#499 = ( GEOMETRIC_REPRESENTATION_CONTEXT(2) 
PARAMETRIC_REPRESENTATION_CONTEXT() REPRESENTATION_CONTEXT('2D SPACE',''
  ) );
#500 = PCURVE('',#310,#501);
#501 = DEFINITIONAL_REPRESENTATION('',(#502),#505);
#502 = B_SPLINE_CURVE_WITH_KNOTS('',1,(#503,#504),.UNSPECIFIED.,.F.,.F.,
  (2,2),(-2.499999945437,2.499999945436),.PIECEWISE_BEZIER_KNOTS.);
#503 = CARTESIAN_POINT('',(0.,-4.999999900001));
#504 = CARTESIAN_POINT('',(4.999999890873,-4.999999900001));
#505 = ( GEOMETRIC_REPRESENTATION_CONTEXT(2) 
PARAMETRIC_REPRESENTATION_CONTEXT() REPRESENTATION_CONTEXT('2D SPACE',''
  ) );
#506 = ADVANCED_FACE('',(#507),#98,.T.);
#507 = FACE_BOUND('',#508,.T.);
#508 = EDGE_LOOP('',(#509,#530,#551,#552));
#509 = ORIENTED_EDGE('',*,*,#510,.F.);
#510 = EDGE_CURVE('',#511,#420,#513,.T.);
#511 = VERTEX_POINT('',#512);
#512 = CARTESIAN_POINT('',(53.000021831984,84.304751534007,
    15.880548938856));
#513 = SURFACE_CURVE('',#514,(#518,#524),.PCURVE_S1.);
#514 = LINE('',#515,#516);
#515 = CARTESIAN_POINT('',(53.000017904905,84.304751534007,
    15.88054893886));
#516 = VECTOR('',#517,1.);
#517 = DIRECTION('',(1.,8.087890055151E-10,-9.738223297439E-07));
#518 = PCURVE('',#98,#519);
#519 = DEFINITIONAL_REPRESENTATION('',(#520),#523);
#520 = B_SPLINE_CURVE_WITH_KNOTS('',1,(#521,#522),.UNSPECIFIED.,.F.,.F.,
  (2,2),(4.045097123366E-06,5.000003709065),.PIECEWISE_BEZIER_KNOTS.);
#521 = CARTESIAN_POINT('',(-1.152925792555E-13,-4.999999890872));
#522 = CARTESIAN_POINT('',(4.999999663967,-4.999999890872));
#523 = ( GEOMETRIC_REPRESENTATION_CONTEXT(2) 
PARAMETRIC_REPRESENTATION_CONTEXT() REPRESENTATION_CONTEXT('2D SPACE',''
  ) );
#524 = PCURVE('',#254,#525);
#525 = DEFINITIONAL_REPRESENTATION('',(#526),#529);
#526 = B_SPLINE_CURVE_WITH_KNOTS('',1,(#527,#528),.UNSPECIFIED.,.F.,.F.,
  (2,2),(4.045097123366E-06,5.000003709065),.PIECEWISE_BEZIER_KNOTS.);
#527 = CARTESIAN_POINT('',(8.065285961899,-2.360360216607E-07));
#528 = CARTESIAN_POINT('',(8.065290831012,-4.999999900001));
#529 = ( GEOMETRIC_REPRESENTATION_CONTEXT(2) 
PARAMETRIC_REPRESENTATION_CONTEXT() REPRESENTATION_CONTEXT('2D SPACE',''
  ) );
#530 = ORIENTED_EDGE('',*,*,#531,.T.);
#531 = EDGE_CURVE('',#511,#55,#532,.T.);
#532 = SURFACE_CURVE('',#533,(#537,#544),.PCURVE_S1.);
#533 = LINE('',#534,#535);
#534 = CARTESIAN_POINT('',(53.000021950002,79.304753367579,
    15.876396296689));
#535 = VECTOR('',#536,1.);
#536 = DIRECTION('',(1.921543029944E-14,0.999999655111,
    8.305284514461E-04));
#537 = PCURVE('',#98,#538);
#538 = DEFINITIONAL_REPRESENTATION('',(#539),#543);
#539 = LINE('',#540,#541);
#540 = CARTESIAN_POINT('',(0.,-0.));
#541 = VECTOR('',#542,1.);
#542 = DIRECTION('',(-1.35347427729E-22,-1.));
#543 = ( GEOMETRIC_REPRESENTATION_CONTEXT(2) 
PARAMETRIC_REPRESENTATION_CONTEXT() REPRESENTATION_CONTEXT('2D SPACE',''
  ) );
#544 = PCURVE('',#70,#545);
#545 = DEFINITIONAL_REPRESENTATION('',(#546),#550);
#546 = LINE('',#547,#548);
#547 = CARTESIAN_POINT('',(8.28989701005,-5.950405099209E-13));
#548 = VECTOR('',#549,1.);
#549 = DIRECTION('',(0.,-1.));
#550 = ( GEOMETRIC_REPRESENTATION_CONTEXT(2) 
PARAMETRIC_REPRESENTATION_CONTEXT() REPRESENTATION_CONTEXT('2D SPACE',''
  ) );
#551 = ORIENTED_EDGE('',*,*,#82,.T.);
#552 = ORIENTED_EDGE('',*,*,#442,.F.);
#553 = ADVANCED_FACE('',(#554),#70,.T.);
#554 = FACE_BOUND('',#555,.T.);
#555 = EDGE_LOOP('',(#556,#557,#558,#559));
#556 = ORIENTED_EDGE('',*,*,#193,.F.);
#557 = ORIENTED_EDGE('',*,*,#54,.T.);
#558 = ORIENTED_EDGE('',*,*,#531,.F.);
#559 = ORIENTED_EDGE('',*,*,#560,.F.);
#560 = EDGE_CURVE('',#194,#511,#561,.T.);
#561 = SURFACE_CURVE('',#562,(#566,#573),.PCURVE_S1.);
#562 = LINE('',#563,#564);
#563 = CARTESIAN_POINT('',(53.000021713966,84.298053084547,
    23.945832119128));
#564 = VECTOR('',#565,1.);
#565 = DIRECTION('',(-4.893230050241E-15,8.305284514184E-04,
    -0.999999655111));
#566 = PCURVE('',#70,#567);
#567 = DEFINITIONAL_REPRESENTATION('',(#568),#572);
#568 = LINE('',#569,#570);
#569 = CARTESIAN_POINT('',(0.22461104815,-4.999999890873));
#570 = VECTOR('',#571,1.);
#571 = DIRECTION('',(1.,2.769984762396E-14));
#572 = ( GEOMETRIC_REPRESENTATION_CONTEXT(2) 
PARAMETRIC_REPRESENTATION_CONTEXT() REPRESENTATION_CONTEXT('2D SPACE',''
  ) );
#573 = PCURVE('',#254,#574);
#574 = DEFINITIONAL_REPRESENTATION('',(#575),#579);
#575 = LINE('',#576,#577);
#576 = CARTESIAN_POINT('',(0.,0.));
#577 = VECTOR('',#578,1.);
#578 = DIRECTION('',(1.,0.));
#579 = ( GEOMETRIC_REPRESENTATION_CONTEXT(2) 
PARAMETRIC_REPRESENTATION_CONTEXT() REPRESENTATION_CONTEXT('2D SPACE',''
  ) );
#580 = ADVANCED_FACE('',(#581),#254,.F.);
#581 = FACE_BOUND('',#582,.F.);
#582 = EDGE_LOOP('',(#583,#584,#585,#586,#607,#608));
#583 = ORIENTED_EDGE('',*,*,#560,.F.);
#584 = ORIENTED_EDGE('',*,*,#240,.T.);
#585 = ORIENTED_EDGE('',*,*,#271,.T.);
#586 = ORIENTED_EDGE('',*,*,#587,.F.);
#587 = EDGE_CURVE('',#422,#272,#588,.T.);
#588 = SURFACE_CURVE('',#589,(#593,#600),.PCURVE_S1.);
#589 = LINE('',#590,#591);
#590 = CARTESIAN_POINT('',(53.000021713966,84.304827799186,
    15.788721678161));
#591 = VECTOR('',#592,1.);
#592 = DIRECTION('',(1.,1.579157404884E-15,-4.891920202255E-15));
#593 = PCURVE('',#254,#594);
#594 = DEFINITIONAL_REPRESENTATION('',(#595),#599);
#595 = LINE('',#596,#597);
#596 = CARTESIAN_POINT('',(8.157113254264,-3.991463169898E-14));
#597 = VECTOR('',#598,1.);
#598 = DIRECTION('',(-4.433398287342E-28,-1.));
#599 = ( GEOMETRIC_REPRESENTATION_CONTEXT(2) 
PARAMETRIC_REPRESENTATION_CONTEXT() REPRESENTATION_CONTEXT('2D SPACE',''
  ) );
#600 = PCURVE('',#310,#601);
#601 = DEFINITIONAL_REPRESENTATION('',(#602),#606);
#602 = LINE('',#603,#604);
#603 = CARTESIAN_POINT('',(0.,0.));
#604 = VECTOR('',#605,1.);
#605 = DIRECTION('',(2.928253220924E-28,-1.));
#606 = ( GEOMETRIC_REPRESENTATION_CONTEXT(2) 
PARAMETRIC_REPRESENTATION_CONTEXT() REPRESENTATION_CONTEXT('2D SPACE',''
  ) );
#607 = ORIENTED_EDGE('',*,*,#419,.F.);
#608 = ORIENTED_EDGE('',*,*,#510,.F.);
#609 = ADVANCED_FACE('',(#610),#337,.T.);
#610 = FACE_BOUND('',#611,.T.);
#611 = EDGE_LOOP('',(#612,#613,#634,#635));
#612 = ORIENTED_EDGE('',*,*,#322,.T.);
#613 = ORIENTED_EDGE('',*,*,#614,.F.);
#614 = EDGE_CURVE('',#466,#295,#615,.T.);
#615 = SURFACE_CURVE('',#616,(#620,#627),.PCURVE_S1.);
#616 = LINE('',#617,#618);
#617 = CARTESIAN_POINT('',(53.000021713966,79.30482952363,
    15.784569035904));
#618 = VECTOR('',#619,1.);
#619 = DIRECTION('',(1.,1.579157404884E-15,-4.891920202255E-15));
#620 = PCURVE('',#337,#621);
#621 = DEFINITIONAL_REPRESENTATION('',(#622),#626);
#622 = LINE('',#623,#624);
#623 = CARTESIAN_POINT('',(-216.0121904262,-0.250085412506));
#624 = VECTOR('',#625,1.);
#625 = DIRECTION('',(1.,-4.893230050241E-15));
#626 = ( GEOMETRIC_REPRESENTATION_CONTEXT(2) 
PARAMETRIC_REPRESENTATION_CONTEXT() REPRESENTATION_CONTEXT('2D SPACE',''
  ) );
#627 = PCURVE('',#310,#628);
#628 = DEFINITIONAL_REPRESENTATION('',(#629),#633);
#629 = LINE('',#630,#631);
#630 = CARTESIAN_POINT('',(5.,7.875469906702E-15));
#631 = VECTOR('',#632,1.);
#632 = DIRECTION('',(2.928253220924E-28,-1.));
#633 = ( GEOMETRIC_REPRESENTATION_CONTEXT(2) 
PARAMETRIC_REPRESENTATION_CONTEXT() REPRESENTATION_CONTEXT('2D SPACE',''
  ) );
#634 = ORIENTED_EDGE('',*,*,#465,.T.);
#635 = ORIENTED_EDGE('',*,*,#370,.T.);
#636 = ADVANCED_FACE('',(#637),#310,.F.);
#637 = FACE_BOUND('',#638,.F.);
#638 = EDGE_LOOP('',(#639,#640,#641,#642));
#639 = ORIENTED_EDGE('',*,*,#488,.F.);
#640 = ORIENTED_EDGE('',*,*,#587,.T.);
#641 = ORIENTED_EDGE('',*,*,#294,.T.);
#642 = ORIENTED_EDGE('',*,*,#614,.F.);
#643 = ( GEOMETRIC_REPRESENTATION_CONTEXT(3) 
GLOBAL_UNCERTAINTY_ASSIGNED_CONTEXT((#647)) GLOBAL_UNIT_ASSIGNED_CONTEXT
((#644,#645,#646)) REPRESENTATION_CONTEXT('Context #1',
  '3D Context with UNIT and UNCERTAINTY') );
#644 = ( LENGTH_UNIT() NAMED_UNIT(*) SI_UNIT(.MILLI.,.METRE.) );
#645 = ( NAMED_UNIT(*) PLANE_ANGLE_UNIT() SI_UNIT($,.RADIAN.) );
#646 = ( NAMED_UNIT(*) SI_UNIT($,.STERADIAN.) SOLID_ANGLE_UNIT() );
#647 = UNCERTAINTY_MEASURE_WITH_UNIT(LENGTH_MEASURE(2.E-07),#644,
  'distance_accuracy_value','confusion accuracy');
#648 = PRODUCT_RELATED_PRODUCT_CATEGORY('part',$,(#7));
ENDSEC;
END-ISO-10303-21;
