ISO-10303-21;
HEADER;
FILE_DESCRIPTION(('Open CASCADE Model'),'2;1');
FILE_NAME('Open CASCADE Shape Model','2026-09-24T01:31:32',('Author'),(
    'Open CASCADE'),'Open CASCADE STEP processor 7.9','Open CASCADE 7.9'
  ,'Unknown');
FILE_SCHEMA(('AUTOMOTIVE_DESIGN { 1 0 10303 214 1 1 1 1 }'));
ENDSEC;
DATA;
#1 = APPLICATION_PROTOCOL_DEFINITION('international standard',
  'automotive_design',2000,#2);
#2 = APPLICATION_CONTEXT(
  'core data for automotive mechanical design processes');
#3 = SHAPE_DEFINITION_REPRESENTATION(#4,#10);
#4 = PRODUCT_DEFINITION_SHAPE('','',#5);
#5 = PRODUCT_DEFINITION('design','',#6,#9);
#6 = PRODUCT_DEFINITION_FORMATION('','',#7);
#7 = PRODUCT('Open CASCADE STEP translator 7.9 21',
  'Open CASCADE STEP translator 7.9 21','',(#8));
#8 = PRODUCT_CONTEXT('',#2,'mechanical');
#9 = PRODUCT_DEFINITION_CONTEXT('part definition',#2,'design');
#10 = ADVANCED_BREP_SHAPE_REPRESENTATION('',(#11,#15),#641);
#11 = AXIS2_PLACEMENT_3D('',#12,#13,#14);
#12 = CARTESIAN_POINT('',(0.,0.,0.));
#13 = DIRECTION('',(0.,0.,1.));
#14 = DIRECTION('',(1.,0.,-0.));
#15 = MANIFOLD_SOLID_BREP('',#16);
#16 = CLOSED_SHELL('',(#17,#189,#317,#362,#453,#502,#551,#578,#607,#634)
  );
#17 = ADVANCED_FACE('',(#18),#32,.F.);
#18 = FACE_BOUND('',#19,.F.);
#19 = EDGE_LOOP('',(#20,#53,#81,#109,#137,#163));
#20 = ORIENTED_EDGE('',*,*,#21,.F.);
#21 = EDGE_CURVE('',#22,#24,#26,.T.);
#22 = VERTEX_POINT('',#23);
#23 = CARTESIAN_POINT('',(247.35002111823,85.304751298242,
    15.881379467397));
#24 = VERTEX_POINT('',#25);
#25 = CARTESIAN_POINT('',(247.35002055944,85.299252561283,
    22.502146104219));
#26 = SURFACE_CURVE('',#27,(#31,#42),.PCURVE_S1.);
#27 = LINE('',#28,#29);
#28 = CARTESIAN_POINT('',(247.35002130382,85.305414260663,
    15.083138069295));
#29 = VECTOR('',#30,1.);
#30 = DIRECTION('',(-1.003338594816E-07,-8.305284514461E-04,
    0.999999655111));
#31 = PCURVE('',#32,#37);
#32 = PLANE('',#33);
#33 = AXIS2_PLACEMENT_3D('',#34,#35,#36);
#34 = CARTESIAN_POINT('',(269.01221214021,85.30461986037,16.039637532958
    ));
#35 = DIRECTION('',(-1.921543029944E-14,-0.999999655111,
    -8.305284514461E-04));
#36 = DIRECTION('',(1.,-1.921542367226E-14,-1.595896157047E-17));
#37 = DEFINITIONAL_REPRESENTATION('',(#38),#41);
#38 = B_SPLINE_CURVE_WITH_KNOTS('',1,(#39,#40),.UNSPECIFIED.,.F.,.F.,(2,
    2),(-5.989304267485,7.573367558966),.PIECEWISE_BEZIER_KNOTS.);
#39 = CARTESIAN_POINT('',(-21.66219023545,-6.945804061033));
#40 = CARTESIAN_POINT('',(-21.66219159625,6.616867765418));
#41 = ( GEOMETRIC_REPRESENTATION_CONTEXT(2) 
PARAMETRIC_REPRESENTATION_CONTEXT() REPRESENTATION_CONTEXT('2D SPACE',''
  ) );
#42 = PCURVE('',#43,#48);
#43 = PLANE('',#44);
#44 = AXIS2_PLACEMENT_3D('',#45,#46,#47);
#45 = CARTESIAN_POINT('',(247.35002139979,104.3806766371,14.142482672899
    ));
#46 = DIRECTION('',(1.,-8.334773048466E-11,1.00333824863E-07));
#47 = DIRECTION('',(-8.334773048466E-11,-1.,-8.362596593176E-18));
#48 = DEFINITIONAL_REPRESENTATION('',(#49),#52);
#49 = B_SPLINE_CURVE_WITH_KNOTS('',1,(#50,#51),.UNSPECIFIED.,.F.,.F.,(2,
    2),(-5.989304267485,7.573367558966),.PIECEWISE_BEZIER_KNOTS.);
#50 = CARTESIAN_POINT('',(19.070288088839,5.048646805444));
#51 = CARTESIAN_POINT('',(19.081552273668,-8.514020343393));
#52 = ( GEOMETRIC_REPRESENTATION_CONTEXT(2) 
PARAMETRIC_REPRESENTATION_CONTEXT() REPRESENTATION_CONTEXT('2D SPACE',''
  ) );
#53 = ORIENTED_EDGE('',*,*,#54,.T.);
#54 = EDGE_CURVE('',#22,#55,#57,.T.);
#55 = VERTEX_POINT('',#56);
#56 = CARTESIAN_POINT('',(252.35002145561,85.304751298242,
    15.881379467397));
#57 = SURFACE_CURVE('',#58,(#62,#69),.PCURVE_S1.);
#58 = LINE('',#59,#60);
#59 = CARTESIAN_POINT('',(247.35002111823,85.304751298242,
    15.881379467397));
#60 = VECTOR('',#61,1.);
#61 = DIRECTION('',(1.,-1.921571873521E-14,3.393122598082E-16));
#62 = PCURVE('',#32,#63);
#63 = DEFINITIONAL_REPRESENTATION('',(#64),#68);
#64 = LINE('',#65,#66);
#65 = CARTESIAN_POINT('',(-21.66219102198,-0.158258120142));
#66 = VECTOR('',#67,1.);
#67 = DIRECTION('',(1.,3.552713439078E-16));
#68 = ( GEOMETRIC_REPRESENTATION_CONTEXT(2) 
PARAMETRIC_REPRESENTATION_CONTEXT() REPRESENTATION_CONTEXT('2D SPACE',''
  ) );
#69 = PCURVE('',#70,#75);
#70 = PLANE('',#71);
#71 = AXIS2_PLACEMENT_3D('',#72,#73,#74);
#72 = CARTESIAN_POINT('',(247.35002111823,79.304753367575,
    15.876396296689));
#73 = DIRECTION('',(3.552713439079E-16,8.305284514461E-04,
    -0.999999655111));
#74 = DIRECTION('',(1.,-1.921571873521E-14,3.393122598083E-16));
#75 = DEFINITIONAL_REPRESENTATION('',(#76),#80);
#76 = LINE('',#77,#78);
#77 = CARTESIAN_POINT('',(-1.152925817966E-13,-6.));
#78 = VECTOR('',#79,1.);
#79 = DIRECTION('',(1.,-1.339652795191E-29));
#80 = ( GEOMETRIC_REPRESENTATION_CONTEXT(2) 
PARAMETRIC_REPRESENTATION_CONTEXT() REPRESENTATION_CONTEXT('2D SPACE',''
  ) );
#81 = ORIENTED_EDGE('',*,*,#82,.T.);
#82 = EDGE_CURVE('',#55,#83,#85,.T.);
#83 = VERTEX_POINT('',#84);
#84 = CARTESIAN_POINT('',(252.35002179119,85.310336778754,9.15616905981)
  );
#85 = SURFACE_CURVE('',#86,(#90,#97),.PCURVE_S1.);
#86 = LINE('',#87,#88);
#87 = CARTESIAN_POINT('',(252.35002145561,85.304751298242,
    15.881379467397));
#88 = VECTOR('',#89,1.);
#89 = DIRECTION('',(4.989879086025E-08,8.305284514461E-04,
    -0.999999655111));
#90 = PCURVE('',#32,#91);
#91 = DEFINITIONAL_REPRESENTATION('',(#92),#96);
#92 = LINE('',#93,#94);
#93 = CARTESIAN_POINT('',(-16.6621906846,-0.158258120142));
#94 = VECTOR('',#95,1.);
#95 = DIRECTION('',(4.989879086025E-08,-1.));
#96 = ( GEOMETRIC_REPRESENTATION_CONTEXT(2) 
PARAMETRIC_REPRESENTATION_CONTEXT() REPRESENTATION_CONTEXT('2D SPACE',''
  ) );
#97 = PCURVE('',#98,#103);
#98 = PLANE('',#99);
#99 = AXIS2_PLACEMENT_3D('',#100,#101,#102);
#100 = CARTESIAN_POINT('',(252.35002145561,79.304753367575,
    15.876396296689));
#101 = DIRECTION('',(-1.,4.146158092585E-11,-4.989877363475E-08));
#102 = DIRECTION('',(4.989879086024E-08,8.305284514461E-04,
    -0.999999655111));
#103 = DEFINITIONAL_REPRESENTATION('',(#104),#108);
#104 = LINE('',#105,#106);
#105 = CARTESIAN_POINT('',(6.763053658765E-13,-6.));
#106 = VECTOR('',#107,1.);
#107 = DIRECTION('',(1.,-2.168404344971E-19));
#108 = ( GEOMETRIC_REPRESENTATION_CONTEXT(2) 
PARAMETRIC_REPRESENTATION_CONTEXT() REPRESENTATION_CONTEXT('2D SPACE',''
  ) );
#109 = ORIENTED_EDGE('',*,*,#110,.T.);
#110 = EDGE_CURVE('',#83,#111,#113,.T.);
#111 = VERTEX_POINT('',#112);
#112 = CARTESIAN_POINT('',(253.3500218977,85.310330248891,9.164031356417
    ));
#113 = SURFACE_CURVE('',#114,(#118,#125),.PCURVE_S1.);
#114 = LINE('',#115,#116);
#115 = CARTESIAN_POINT('',(252.35002179119,85.310336778754,9.15616905981
    ));
#116 = VECTOR('',#117,1.);
#117 = DIRECTION('',(0.999969093564,-6.529660786996E-06,
    7.862052774238E-03));
#118 = PCURVE('',#32,#119);
#119 = DEFINITIONAL_REPRESENTATION('',(#120),#124);
#120 = LINE('',#121,#122);
#121 = CARTESIAN_POINT('',(-16.66219034902,-6.88347084718));
#122 = VECTOR('',#123,1.);
#123 = DIRECTION('',(0.999969093564,7.862055485773E-03));
#124 = ( GEOMETRIC_REPRESENTATION_CONTEXT(2) 
PARAMETRIC_REPRESENTATION_CONTEXT() REPRESENTATION_CONTEXT('2D SPACE',''
  ) );
#125 = PCURVE('',#126,#131);
#126 = PLANE('',#127);
#127 = AXIS2_PLACEMENT_3D('',#128,#129,#130);
#128 = CARTESIAN_POINT('',(252.35002179119,79.310338848087,
    9.151185889101));
#129 = DIRECTION('',(7.862055485772E-03,8.305027827714E-04,
    -0.999968748686));
#130 = DIRECTION('',(0.999969093564,-6.529660786995E-06,
    7.862052774237E-03));
#131 = DEFINITIONAL_REPRESENTATION('',(#132),#136);
#132 = LINE('',#133,#134);
#133 = CARTESIAN_POINT('',(-1.152931848841E-13,-6.));
#134 = VECTOR('',#135,1.);
#135 = DIRECTION('',(1.,-2.541098841763E-21));
#136 = ( GEOMETRIC_REPRESENTATION_CONTEXT(2) 
PARAMETRIC_REPRESENTATION_CONTEXT() REPRESENTATION_CONTEXT('2D SPACE',''
  ) );
#137 = ORIENTED_EDGE('',*,*,#138,.T.);
#138 = EDGE_CURVE('',#111,#139,#141,.T.);
#139 = VERTEX_POINT('',#140);
#140 = CARTESIAN_POINT('',(253.35002056461,85.299295358043,
    22.450616569024));
#141 = SURFACE_CURVE('',#142,(#146,#152),.PCURVE_S1.);
#142 = LINE('',#143,#144);
#143 = CARTESIAN_POINT('',(253.35002130382,85.305414260163,
    15.083138671298));
#144 = VECTOR('',#145,1.);
#145 = DIRECTION('',(-1.003338594816E-07,-8.305284514461E-04,
    0.999999655111));
#146 = PCURVE('',#32,#147);
#147 = DEFINITIONAL_REPRESENTATION('',(#148),#151);
#148 = B_SPLINE_CURVE_WITH_KNOTS('',1,(#149,#150),.UNSPECIFIED.,.F.,.F.,
  (2,2),(-5.989304267485,7.573367558966),.PIECEWISE_BEZIER_KNOTS.);
#149 = CARTESIAN_POINT('',(-15.66219023545,-6.94580345903));
#150 = CARTESIAN_POINT('',(-15.66219159625,6.616868367421));
#151 = ( GEOMETRIC_REPRESENTATION_CONTEXT(2) 
PARAMETRIC_REPRESENTATION_CONTEXT() REPRESENTATION_CONTEXT('2D SPACE',''
  ) );
#152 = PCURVE('',#153,#158);
#153 = PLANE('',#154);
#154 = AXIS2_PLACEMENT_3D('',#155,#156,#157);
#155 = CARTESIAN_POINT('',(253.35002139979,104.3806766366,
    14.142483274902));
#156 = DIRECTION('',(1.,-8.334773048466E-11,1.00333824863E-07));
#157 = DIRECTION('',(-8.334773048466E-11,-1.,-8.362596593176E-18));
#158 = DEFINITIONAL_REPRESENTATION('',(#159),#162);
#159 = B_SPLINE_CURVE_WITH_KNOTS('',1,(#160,#161),.UNSPECIFIED.,.F.,.F.,
  (2,2),(-5.989304267485,7.573367558966),.PIECEWISE_BEZIER_KNOTS.);
#160 = CARTESIAN_POINT('',(19.070288088839,5.048646805444));
#161 = CARTESIAN_POINT('',(19.081552273668,-8.514020343393));
#162 = ( GEOMETRIC_REPRESENTATION_CONTEXT(2) 
PARAMETRIC_REPRESENTATION_CONTEXT() REPRESENTATION_CONTEXT('2D SPACE',''
  ) );
#163 = ORIENTED_EDGE('',*,*,#164,.T.);
#164 = EDGE_CURVE('',#139,#24,#165,.T.);
#165 = SURFACE_CURVE('',#166,(#170,#177),.PCURVE_S1.);
#166 = LINE('',#167,#168);
#167 = CARTESIAN_POINT('',(486.72450726623,85.300959970013,
    20.44633676641));
#168 = VECTOR('',#169,1.);
#169 = DIRECTION('',(-0.999963122945,-7.132530243086E-06,
    8.587939148809E-03));
#170 = PCURVE('',#32,#171);
#171 = DEFINITIONAL_REPRESENTATION('',(#172),#176);
#172 = LINE('',#173,#174);
#173 = CARTESIAN_POINT('',(217.71229512602,4.406700753274));
#174 = VECTOR('',#175,1.);
#175 = DIRECTION('',(-0.999963122945,8.587942110694E-03));
#176 = ( GEOMETRIC_REPRESENTATION_CONTEXT(2) 
PARAMETRIC_REPRESENTATION_CONTEXT() REPRESENTATION_CONTEXT('2D SPACE',''
  ) );
#177 = PCURVE('',#178,#183);
#178 = PLANE('',#179);
#179 = AXIS2_PLACEMENT_3D('',#180,#181,#182);
#180 = CARTESIAN_POINT('',(486.72450726623,79.300962039346,
    20.441353595702));
#181 = DIRECTION('',(8.587942110693E-03,-8.304978240029E-04,
    0.999962778069));
#182 = DIRECTION('',(-0.999963122945,-7.132530243086E-06,
    8.587939148808E-03));
#183 = DEFINITIONAL_REPRESENTATION('',(#184),#188);
#184 = LINE('',#185,#186);
#185 = CARTESIAN_POINT('',(1.153032950694E-13,-6.));
#186 = VECTOR('',#187,1.);
#187 = DIRECTION('',(1.,-8.470329472543E-22));
#188 = ( GEOMETRIC_REPRESENTATION_CONTEXT(2) 
PARAMETRIC_REPRESENTATION_CONTEXT() REPRESENTATION_CONTEXT('2D SPACE',''
  ) );
#189 = ADVANCED_FACE('',(#190),#43,.F.);
#190 = FACE_BOUND('',#191,.F.);
#191 = EDGE_LOOP('',(#192,#213,#241,#269,#295,#316));
#192 = ORIENTED_EDGE('',*,*,#193,.F.);
#193 = EDGE_CURVE('',#194,#24,#196,.T.);
#194 = VERTEX_POINT('',#195);
#195 = CARTESIAN_POINT('',(247.35002055944,84.299266041641,
    22.501315586677));
#196 = SURFACE_CURVE('',#197,(#201,#207),.PCURVE_S1.);
#197 = LINE('',#198,#199);
#198 = CARTESIAN_POINT('',(247.35002055944,91.836487584924,
    22.507575465773));
#199 = VECTOR('',#200,1.);
#200 = DIRECTION('',(1.760554784328E-14,0.999999655111,8.30528451446E-04
    ));
#201 = PCURVE('',#43,#202);
#202 = DEFINITIONAL_REPRESENTATION('',(#203),#206);
#203 = B_SPLINE_CURVE_WITH_KNOTS('',1,(#204,#205),.UNSPECIFIED.,.F.,.F.,
  (2,2),(-12.53723727826,-6.537237278261),.PIECEWISE_BEZIER_KNOTS.);
#204 = CARTESIAN_POINT('',(25.081422006484,-8.354680260612));
#205 = CARTESIAN_POINT('',(19.081424075817,-8.35966343132));
#206 = ( GEOMETRIC_REPRESENTATION_CONTEXT(2) 
PARAMETRIC_REPRESENTATION_CONTEXT() REPRESENTATION_CONTEXT('2D SPACE',''
  ) );
#207 = PCURVE('',#178,#208);
#208 = DEFINITIONAL_REPRESENTATION('',(#209),#212);
#209 = B_SPLINE_CURVE_WITH_KNOTS('',1,(#210,#211),.UNSPECIFIED.,.F.,.F.,
  (2,2),(-12.53723727826,-6.537237278261),.PIECEWISE_BEZIER_KNOTS.);
#210 = CARTESIAN_POINT('',(239.38331445839,0.));
#211 = CARTESIAN_POINT('',(239.38331445839,-6.));
#212 = ( GEOMETRIC_REPRESENTATION_CONTEXT(2) 
PARAMETRIC_REPRESENTATION_CONTEXT() REPRESENTATION_CONTEXT('2D SPACE',''
  ) );
#213 = ORIENTED_EDGE('',*,*,#214,.T.);
#214 = EDGE_CURVE('',#194,#215,#217,.T.);
#215 = VERTEX_POINT('',#216);
#216 = CARTESIAN_POINT('',(247.35002122373,84.304751482097,
    15.880558198755));
#217 = SURFACE_CURVE('',#218,(#222,#229),.PCURVE_S1.);
#218 = LINE('',#219,#220);
#219 = CARTESIAN_POINT('',(247.35002054698,84.29916314112,
    22.625513341265));
#220 = VECTOR('',#221,1.);
#221 = DIRECTION('',(1.003338594814E-07,8.285213082262E-04,
    -0.999999656776));
#222 = PCURVE('',#43,#223);
#223 = DEFINITIONAL_REPRESENTATION('',(#224),#228);
#224 = LINE('',#225,#226);
#225 = CARTESIAN_POINT('',(20.08151349598,-8.483030668366));
#226 = VECTOR('',#227,1.);
#227 = DIRECTION('',(-8.285213082262E-04,0.999999656776));
#228 = ( GEOMETRIC_REPRESENTATION_CONTEXT(2) 
PARAMETRIC_REPRESENTATION_CONTEXT() REPRESENTATION_CONTEXT('2D SPACE',''
  ) );
#229 = PCURVE('',#230,#235);
#230 = PLANE('',#231);
#231 = AXIS2_PLACEMENT_3D('',#232,#233,#234);
#232 = CARTESIAN_POINT('',(247.35002054698,84.29916314112,
    22.625513341265));
#233 = DIRECTION('',(2.189900429118E-13,0.999999656776,
    8.285213082262E-04));
#234 = DIRECTION('',(1.003338594814E-07,8.285213082262E-04,
    -0.999999656776));
#235 = DEFINITIONAL_REPRESENTATION('',(#236),#240);
#236 = LINE('',#237,#238);
#237 = CARTESIAN_POINT('',(0.,0.));
#238 = VECTOR('',#239,1.);
#239 = DIRECTION('',(1.,0.));
#240 = ( GEOMETRIC_REPRESENTATION_CONTEXT(2) 
PARAMETRIC_REPRESENTATION_CONTEXT() REPRESENTATION_CONTEXT('2D SPACE',''
  ) );
#241 = ORIENTED_EDGE('',*,*,#242,.T.);
#242 = EDGE_CURVE('',#215,#243,#245,.T.);
#243 = VERTEX_POINT('',#244);
#244 = CARTESIAN_POINT('',(247.35002122373,79.304753206125,
    15.876406058149));
#245 = SURFACE_CURVE('',#246,(#250,#257),.PCURVE_S1.);
#246 = LINE('',#247,#248);
#247 = CARTESIAN_POINT('',(247.35002122373,84.304751482097,
    15.880558198755));
#248 = VECTOR('',#249,1.);
#249 = DIRECTION('',(-2.767207835246E-14,-0.999999655195,
    -8.304281211374E-04));
#250 = PCURVE('',#43,#251);
#251 = DEFINITIONAL_REPRESENTATION('',(#252),#256);
#252 = LINE('',#253,#254);
#253 = CARTESIAN_POINT('',(20.075925155003,-1.738075525856));
#254 = VECTOR('',#255,1.);
#255 = DIRECTION('',(0.999999655195,8.304281211374E-04));
#256 = ( GEOMETRIC_REPRESENTATION_CONTEXT(2) 
PARAMETRIC_REPRESENTATION_CONTEXT() REPRESENTATION_CONTEXT('2D SPACE',''
  ) );
#257 = PCURVE('',#258,#263);
#258 = PLANE('',#259);
#259 = AXIS2_PLACEMENT_3D('',#260,#261,#262);
#260 = CARTESIAN_POINT('',(247.35002122373,84.304751482097,
    15.880558198755));
#261 = DIRECTION('',(1.003338594816E-07,8.304281211374E-04,
    -0.999999655195));
#262 = DIRECTION('',(-2.767207835243E-14,-0.999999655195,
    -8.304281211374E-04));
#263 = DEFINITIONAL_REPRESENTATION('',(#264),#268);
#264 = LINE('',#265,#266);
#265 = CARTESIAN_POINT('',(-0.,0.));
#266 = VECTOR('',#267,1.);
#267 = DIRECTION('',(1.,5.169878828456E-26));
#268 = ( GEOMETRIC_REPRESENTATION_CONTEXT(2) 
PARAMETRIC_REPRESENTATION_CONTEXT() REPRESENTATION_CONTEXT('2D SPACE',''
  ) );
#269 = ORIENTED_EDGE('',*,*,#270,.F.);
#270 = EDGE_CURVE('',#271,#243,#273,.T.);
#271 = VERTEX_POINT('',#272);
#272 = CARTESIAN_POINT('',(247.35002111823,79.304753367575,
    15.876396296689));
#273 = SURFACE_CURVE('',#274,(#278,#284),.PCURVE_S1.);
#274 = LINE('',#275,#276);
#275 = CARTESIAN_POINT('',(247.35002130382,79.305416329996,
    15.078154898587));
#276 = VECTOR('',#277,1.);
#277 = DIRECTION('',(-1.003338594816E-07,-8.305284514461E-04,
    0.999999655111));
#278 = PCURVE('',#43,#279);
#279 = DEFINITIONAL_REPRESENTATION('',(#280),#283);
#280 = B_SPLINE_CURVE_WITH_KNOTS('',1,(#281,#282),.UNSPECIFIED.,.F.,.F.,
  (2,2),(-5.984321095057,7.578350731394),.PIECEWISE_BEZIER_KNOTS.);
#281 = CARTESIAN_POINT('',(25.070290158172,5.048646805444));
#282 = CARTESIAN_POINT('',(25.081554343002,-8.514020343393));
#283 = ( GEOMETRIC_REPRESENTATION_CONTEXT(2) 
PARAMETRIC_REPRESENTATION_CONTEXT() REPRESENTATION_CONTEXT('2D SPACE',''
  ) );
#284 = PCURVE('',#285,#290);
#285 = PLANE('',#286);
#286 = AXIS2_PLACEMENT_3D('',#287,#288,#289);
#287 = CARTESIAN_POINT('',(269.01221214021,79.304621929703,
    16.034654362249));
#288 = DIRECTION('',(-1.921543029944E-14,-0.999999655111,
    -8.305284514461E-04));
#289 = DIRECTION('',(1.,-1.921542367226E-14,-1.595896157047E-17));
#290 = DEFINITIONAL_REPRESENTATION('',(#291),#294);
#291 = B_SPLINE_CURVE_WITH_KNOTS('',1,(#292,#293),.UNSPECIFIED.,.F.,.F.,
  (2,2),(-5.984321095057,7.578350731394),.PIECEWISE_BEZIER_KNOTS.);
#292 = CARTESIAN_POINT('',(-21.66219023596,-6.940820888606));
#293 = CARTESIAN_POINT('',(-21.66219159675,6.621850937845));
#294 = ( GEOMETRIC_REPRESENTATION_CONTEXT(2) 
PARAMETRIC_REPRESENTATION_CONTEXT() REPRESENTATION_CONTEXT('2D SPACE',''
  ) );
#295 = ORIENTED_EDGE('',*,*,#296,.T.);
#296 = EDGE_CURVE('',#271,#22,#297,.T.);
#297 = SURFACE_CURVE('',#298,(#302,#309),.PCURVE_S1.);
#298 = LINE('',#299,#300);
#299 = CARTESIAN_POINT('',(247.35002111823,79.304753367575,
    15.876396296689));
#300 = VECTOR('',#301,1.);
#301 = DIRECTION('',(1.921543029944E-14,0.999999655111,
    8.305284514461E-04));
#302 = PCURVE('',#43,#303);
#303 = DEFINITIONAL_REPRESENTATION('',(#304),#308);
#304 = LINE('',#305,#306);
#305 = CARTESIAN_POINT('',(25.075923269525,-1.73391362379));
#306 = VECTOR('',#307,1.);
#307 = DIRECTION('',(-0.999999655111,-8.305284514461E-04));
#308 = ( GEOMETRIC_REPRESENTATION_CONTEXT(2) 
PARAMETRIC_REPRESENTATION_CONTEXT() REPRESENTATION_CONTEXT('2D SPACE',''
  ) );
#309 = PCURVE('',#70,#310);
#310 = DEFINITIONAL_REPRESENTATION('',(#311),#315);
#311 = LINE('',#312,#313);
#312 = CARTESIAN_POINT('',(0.,-0.));
#313 = VECTOR('',#314,1.);
#314 = DIRECTION('',(5.699505980933E-27,-1.));
#315 = ( GEOMETRIC_REPRESENTATION_CONTEXT(2) 
PARAMETRIC_REPRESENTATION_CONTEXT() REPRESENTATION_CONTEXT('2D SPACE',''
  ) );
#316 = ORIENTED_EDGE('',*,*,#21,.T.);
#317 = ADVANCED_FACE('',(#318),#178,.T.);
#318 = FACE_BOUND('',#319,.T.);
#319 = EDGE_LOOP('',(#320,#341,#342,#343));
#320 = ORIENTED_EDGE('',*,*,#321,.T.);
#321 = EDGE_CURVE('',#322,#139,#324,.T.);
#322 = VERTEX_POINT('',#323);
#323 = CARTESIAN_POINT('',(253.35002056461,84.299308734973,
    22.449786051397));
#324 = SURFACE_CURVE('',#325,(#329,#335),.PCURVE_S1.);
#325 = LINE('',#326,#327);
#326 = CARTESIAN_POINT('',(253.35002056461,91.836530381684,
    22.456045930578));
#327 = VECTOR('',#328,1.);
#328 = DIRECTION('',(1.760554784328E-14,0.999999655111,8.30528451446E-04
    ));
#329 = PCURVE('',#178,#330);
#330 = DEFINITIONAL_REPRESENTATION('',(#331),#334);
#331 = B_SPLINE_CURVE_WITH_KNOTS('',1,(#332,#333),.UNSPECIFIED.,.F.,.F.,
  (2,2),(-12.53723727826,-6.537237278261),.PIECEWISE_BEZIER_KNOTS.);
#332 = CARTESIAN_POINT('',(233.38309318273,0.));
#333 = CARTESIAN_POINT('',(233.38309318273,-6.));
#334 = ( GEOMETRIC_REPRESENTATION_CONTEXT(2) 
PARAMETRIC_REPRESENTATION_CONTEXT() REPRESENTATION_CONTEXT('2D SPACE',''
  ) );
#335 = PCURVE('',#153,#336);
#336 = DEFINITIONAL_REPRESENTATION('',(#337),#340);
#337 = B_SPLINE_CURVE_WITH_KNOTS('',1,(#338,#339),.UNSPECIFIED.,.F.,.F.,
  (2,2),(-12.53723727826,-6.537237278261),.PIECEWISE_BEZIER_KNOTS.);
#338 = CARTESIAN_POINT('',(25.081379209224,-8.303150123414));
#339 = CARTESIAN_POINT('',(19.081381278557,-8.308133294123));
#340 = ( GEOMETRIC_REPRESENTATION_CONTEXT(2) 
PARAMETRIC_REPRESENTATION_CONTEXT() REPRESENTATION_CONTEXT('2D SPACE',''
  ) );
#341 = ORIENTED_EDGE('',*,*,#164,.T.);
#342 = ORIENTED_EDGE('',*,*,#193,.F.);
#343 = ORIENTED_EDGE('',*,*,#344,.F.);
#344 = EDGE_CURVE('',#322,#194,#345,.T.);
#345 = SURFACE_CURVE('',#346,(#350,#356),.PCURVE_S1.);
#346 = LINE('',#347,#348);
#347 = CARTESIAN_POINT('',(367.03673066761,84.300117679036,
    21.473415495706));
#348 = VECTOR('',#349,1.);
#349 = DIRECTION('',(-0.999963122945,-7.115292813555E-06,
    8.587939163124E-03));
#350 = PCURVE('',#178,#351);
#351 = DEFINITIONAL_REPRESENTATION('',(#352),#355);
#352 = B_SPLINE_CURVE_WITH_KNOTS('',1,(#353,#354),.UNSPECIFIED.,.F.,.F.,
  (2,2),(113.69090268865,119.69112396431),.PIECEWISE_BEZIER_KNOTS.);
#353 = CARTESIAN_POINT('',(233.38309318273,-5.000013032046));
#354 = CARTESIAN_POINT('',(239.38331445839,-5.000013135474));
#355 = ( GEOMETRIC_REPRESENTATION_CONTEXT(2) 
PARAMETRIC_REPRESENTATION_CONTEXT() REPRESENTATION_CONTEXT('2D SPACE',''
  ) );
#356 = PCURVE('',#230,#357);
#357 = DEFINITIONAL_REPRESENTATION('',(#358),#361);
#358 = B_SPLINE_CURVE_WITH_KNOTS('',1,(#359,#360),.UNSPECIFIED.,.F.,.F.,
  (2,2),(113.69090268865,119.69112396431),.PIECEWISE_BEZIER_KNOTS.);
#359 = CARTESIAN_POINT('',(0.175727952185,-6.000000000002));
#360 = CARTESIAN_POINT('',(0.124197797215,0.));
#361 = ( GEOMETRIC_REPRESENTATION_CONTEXT(2) 
PARAMETRIC_REPRESENTATION_CONTEXT() REPRESENTATION_CONTEXT('2D SPACE',''
  ) );
#362 = ADVANCED_FACE('',(#363),#153,.T.);
#363 = FACE_BOUND('',#364,.T.);
#364 = EDGE_LOOP('',(#365,#366,#389,#412,#433,#452));
#365 = ORIENTED_EDGE('',*,*,#321,.F.);
#366 = ORIENTED_EDGE('',*,*,#367,.T.);
#367 = EDGE_CURVE('',#322,#368,#370,.T.);
#368 = VERTEX_POINT('',#369);
#369 = CARTESIAN_POINT('',(253.35002122373,84.304751481597,
    15.880558800758));
#370 = SURFACE_CURVE('',#371,(#375,#382),.PCURVE_S1.);
#371 = LINE('',#372,#373);
#372 = CARTESIAN_POINT('',(253.35002054698,84.29916314062,
    22.625513943268));
#373 = VECTOR('',#374,1.);
#374 = DIRECTION('',(1.003338594814E-07,8.285213082262E-04,
    -0.999999656776));
#375 = PCURVE('',#153,#376);
#376 = DEFINITIONAL_REPRESENTATION('',(#377),#381);
#377 = LINE('',#378,#379);
#378 = CARTESIAN_POINT('',(20.08151349598,-8.483030668366));
#379 = VECTOR('',#380,1.);
#380 = DIRECTION('',(-8.285213082262E-04,0.999999656776));
#381 = ( GEOMETRIC_REPRESENTATION_CONTEXT(2) 
PARAMETRIC_REPRESENTATION_CONTEXT() REPRESENTATION_CONTEXT('2D SPACE',''
  ) );
#382 = PCURVE('',#230,#383);
#383 = DEFINITIONAL_REPRESENTATION('',(#384),#388);
#384 = LINE('',#385,#386);
#385 = CARTESIAN_POINT('',(-5.293140915825E-14,-6.));
#386 = VECTOR('',#387,1.);
#387 = DIRECTION('',(1.,0.));
#388 = ( GEOMETRIC_REPRESENTATION_CONTEXT(2) 
PARAMETRIC_REPRESENTATION_CONTEXT() REPRESENTATION_CONTEXT('2D SPACE',''
  ) );
#389 = ORIENTED_EDGE('',*,*,#390,.T.);
#390 = EDGE_CURVE('',#368,#391,#393,.T.);
#391 = VERTEX_POINT('',#392);
#392 = CARTESIAN_POINT('',(253.35002122373,79.304753205625,
    15.876406660152));
#393 = SURFACE_CURVE('',#394,(#398,#405),.PCURVE_S1.);
#394 = LINE('',#395,#396);
#395 = CARTESIAN_POINT('',(253.35002122373,84.304751481597,
    15.880558800758));
#396 = VECTOR('',#397,1.);
#397 = DIRECTION('',(-2.767207835246E-14,-0.999999655195,
    -8.304281211374E-04));
#398 = PCURVE('',#153,#399);
#399 = DEFINITIONAL_REPRESENTATION('',(#400),#404);
#400 = LINE('',#401,#402);
#401 = CARTESIAN_POINT('',(20.075925155003,-1.738075525856));
#402 = VECTOR('',#403,1.);
#403 = DIRECTION('',(0.999999655195,8.304281211374E-04));
#404 = ( GEOMETRIC_REPRESENTATION_CONTEXT(2) 
PARAMETRIC_REPRESENTATION_CONTEXT() REPRESENTATION_CONTEXT('2D SPACE',''
  ) );
#405 = PCURVE('',#258,#406);
#406 = DEFINITIONAL_REPRESENTATION('',(#407),#411);
#407 = LINE('',#408,#409);
#408 = CARTESIAN_POINT('',(-7.745943269247E-14,-6.));
#409 = VECTOR('',#410,1.);
#410 = DIRECTION('',(1.,5.169878828456E-26));
#411 = ( GEOMETRIC_REPRESENTATION_CONTEXT(2) 
PARAMETRIC_REPRESENTATION_CONTEXT() REPRESENTATION_CONTEXT('2D SPACE',''
  ) );
#412 = ORIENTED_EDGE('',*,*,#413,.F.);
#413 = EDGE_CURVE('',#414,#391,#416,.T.);
#414 = VERTEX_POINT('',#415);
#415 = CARTESIAN_POINT('',(253.3500218977,79.310332318224,9.159048185708
    ));
#416 = SURFACE_CURVE('',#417,(#421,#427),.PCURVE_S1.);
#417 = LINE('',#418,#419);
#418 = CARTESIAN_POINT('',(253.35002130382,79.305416329496,
    15.07815550059));
#419 = VECTOR('',#420,1.);
#420 = DIRECTION('',(-1.003338594816E-07,-8.305284514461E-04,
    0.999999655111));
#421 = PCURVE('',#153,#422);
#422 = DEFINITIONAL_REPRESENTATION('',(#423),#426);
#423 = B_SPLINE_CURVE_WITH_KNOTS('',1,(#424,#425),.UNSPECIFIED.,.F.,.F.,
  (2,2),(-5.984321095057,7.578350731394),.PIECEWISE_BEZIER_KNOTS.);
#424 = CARTESIAN_POINT('',(25.070290158172,5.048646805444));
#425 = CARTESIAN_POINT('',(25.081554343002,-8.514020343393));
#426 = ( GEOMETRIC_REPRESENTATION_CONTEXT(2) 
PARAMETRIC_REPRESENTATION_CONTEXT() REPRESENTATION_CONTEXT('2D SPACE',''
  ) );
#427 = PCURVE('',#285,#428);
#428 = DEFINITIONAL_REPRESENTATION('',(#429),#432);
#429 = B_SPLINE_CURVE_WITH_KNOTS('',1,(#430,#431),.UNSPECIFIED.,.F.,.F.,
  (2,2),(-5.984321095057,7.578350731394),.PIECEWISE_BEZIER_KNOTS.);
#430 = CARTESIAN_POINT('',(-15.66219023596,-6.940820286603));
#431 = CARTESIAN_POINT('',(-15.66219159675,6.621851539849));
#432 = ( GEOMETRIC_REPRESENTATION_CONTEXT(2) 
PARAMETRIC_REPRESENTATION_CONTEXT() REPRESENTATION_CONTEXT('2D SPACE',''
  ) );
#433 = ORIENTED_EDGE('',*,*,#434,.F.);
#434 = EDGE_CURVE('',#111,#414,#435,.T.);
#435 = SURFACE_CURVE('',#436,(#440,#446),.PCURVE_S1.);
#436 = LINE('',#437,#438);
#437 = CARTESIAN_POINT('',(253.3500218977,91.847565272532,9.16946071797)
  );
#438 = VECTOR('',#439,1.);
#439 = DIRECTION('',(-1.76055478545E-14,-0.999999655111,
    -8.305284514458E-04));
#440 = PCURVE('',#153,#441);
#441 = DEFINITIONAL_REPRESENTATION('',(#442),#445);
#442 = B_SPLINE_CURVE_WITH_KNOTS('',1,(#443,#444),.UNSPECIFIED.,.F.,.F.,
  (2,2),(6.537237278261,12.537237278262),.PIECEWISE_BEZIER_KNOTS.);
#443 = CARTESIAN_POINT('',(19.070346387709,4.978451918485));
#444 = CARTESIAN_POINT('',(25.070344318377,4.983435089194));
#445 = ( GEOMETRIC_REPRESENTATION_CONTEXT(2) 
PARAMETRIC_REPRESENTATION_CONTEXT() REPRESENTATION_CONTEXT('2D SPACE',''
  ) );
#446 = PCURVE('',#126,#447);
#447 = DEFINITIONAL_REPRESENTATION('',(#448),#451);
#448 = B_SPLINE_CURVE_WITH_KNOTS('',1,(#449,#450),.UNSPECIFIED.,.F.,.F.,
  (2,2),(6.537237278261,12.537237278262),.PIECEWISE_BEZIER_KNOTS.);
#449 = CARTESIAN_POINT('',(1.000031013912,-6.));
#450 = CARTESIAN_POINT('',(1.000031013912,3.073097332162E-13));
#451 = ( GEOMETRIC_REPRESENTATION_CONTEXT(2) 
PARAMETRIC_REPRESENTATION_CONTEXT() REPRESENTATION_CONTEXT('2D SPACE',''
  ) );
#452 = ORIENTED_EDGE('',*,*,#138,.T.);
#453 = ADVANCED_FACE('',(#454),#126,.T.);
#454 = FACE_BOUND('',#455,.T.);
#455 = EDGE_LOOP('',(#456,#479,#500,#501));
#456 = ORIENTED_EDGE('',*,*,#457,.F.);
#457 = EDGE_CURVE('',#458,#414,#460,.T.);
#458 = VERTEX_POINT('',#459);
#459 = CARTESIAN_POINT('',(252.35002179119,79.310338848087,
    9.151185889101));
#460 = SURFACE_CURVE('',#461,(#465,#472),.PCURVE_S1.);
#461 = LINE('',#462,#463);
#462 = CARTESIAN_POINT('',(252.35002179119,79.310338848087,
    9.151185889101));
#463 = VECTOR('',#464,1.);
#464 = DIRECTION('',(0.999969093564,-6.529660786996E-06,
    7.862052774238E-03));
#465 = PCURVE('',#126,#466);
#466 = DEFINITIONAL_REPRESENTATION('',(#467),#471);
#467 = LINE('',#468,#469);
#468 = CARTESIAN_POINT('',(0.,-0.));
#469 = VECTOR('',#470,1.);
#470 = DIRECTION('',(1.,-2.541098841763E-21));
#471 = ( GEOMETRIC_REPRESENTATION_CONTEXT(2) 
PARAMETRIC_REPRESENTATION_CONTEXT() REPRESENTATION_CONTEXT('2D SPACE',''
  ) );
#472 = PCURVE('',#285,#473);
#473 = DEFINITIONAL_REPRESENTATION('',(#474),#478);
#474 = LINE('',#475,#476);
#475 = CARTESIAN_POINT('',(-16.66219034902,-6.88347084718));
#476 = VECTOR('',#477,1.);
#477 = DIRECTION('',(0.999969093564,7.862055485773E-03));
#478 = ( GEOMETRIC_REPRESENTATION_CONTEXT(2) 
PARAMETRIC_REPRESENTATION_CONTEXT() REPRESENTATION_CONTEXT('2D SPACE',''
  ) );
#479 = ORIENTED_EDGE('',*,*,#480,.T.);
#480 = EDGE_CURVE('',#458,#83,#481,.T.);
#481 = SURFACE_CURVE('',#482,(#486,#493),.PCURVE_S1.);
#482 = LINE('',#483,#484);
#483 = CARTESIAN_POINT('',(252.35002179119,79.310338848087,
    9.151185889101));
#484 = VECTOR('',#485,1.);
#485 = DIRECTION('',(1.921543029944E-14,0.999999655111,
    8.305284514461E-04));
#486 = PCURVE('',#126,#487);
#487 = DEFINITIONAL_REPRESENTATION('',(#488),#492);
#488 = LINE('',#489,#490);
#489 = CARTESIAN_POINT('',(0.,-0.));
#490 = VECTOR('',#491,1.);
#491 = DIRECTION('',(1.013051404916E-18,-1.));
#492 = ( GEOMETRIC_REPRESENTATION_CONTEXT(2) 
PARAMETRIC_REPRESENTATION_CONTEXT() REPRESENTATION_CONTEXT('2D SPACE',''
  ) );
#493 = PCURVE('',#98,#494);
#494 = DEFINITIONAL_REPRESENTATION('',(#495),#499);
#495 = LINE('',#496,#497);
#496 = CARTESIAN_POINT('',(6.725212727039,-1.636685578732E-13));
#497 = VECTOR('',#498,1.);
#498 = DIRECTION('',(-2.168404344971E-19,-1.));
#499 = ( GEOMETRIC_REPRESENTATION_CONTEXT(2) 
PARAMETRIC_REPRESENTATION_CONTEXT() REPRESENTATION_CONTEXT('2D SPACE',''
  ) );
#500 = ORIENTED_EDGE('',*,*,#110,.T.);
#501 = ORIENTED_EDGE('',*,*,#434,.T.);
#502 = ADVANCED_FACE('',(#503),#98,.T.);
#503 = FACE_BOUND('',#504,.T.);
#504 = EDGE_LOOP('',(#505,#528,#529,#530));
#505 = ORIENTED_EDGE('',*,*,#506,.T.);
#506 = EDGE_CURVE('',#507,#55,#509,.T.);
#507 = VERTEX_POINT('',#508);
#508 = CARTESIAN_POINT('',(252.35002145561,79.304753367575,
    15.876396296689));
#509 = SURFACE_CURVE('',#510,(#514,#521),.PCURVE_S1.);
#510 = LINE('',#511,#512);
#511 = CARTESIAN_POINT('',(252.35002145561,79.304753367575,
    15.876396296689));
#512 = VECTOR('',#513,1.);
#513 = DIRECTION('',(1.921543029944E-14,0.999999655111,
    8.305284514461E-04));
#514 = PCURVE('',#98,#515);
#515 = DEFINITIONAL_REPRESENTATION('',(#516),#520);
#516 = LINE('',#517,#518);
#517 = CARTESIAN_POINT('',(0.,-0.));
#518 = VECTOR('',#519,1.);
#519 = DIRECTION('',(-2.168404344971E-19,-1.));
#520 = ( GEOMETRIC_REPRESENTATION_CONTEXT(2) 
PARAMETRIC_REPRESENTATION_CONTEXT() REPRESENTATION_CONTEXT('2D SPACE',''
  ) );
#521 = PCURVE('',#70,#522);
#522 = DEFINITIONAL_REPRESENTATION('',(#523),#527);
#523 = LINE('',#524,#525);
#524 = CARTESIAN_POINT('',(5.00000033738,-9.607863329499E-14));
#525 = VECTOR('',#526,1.);
#526 = DIRECTION('',(5.699505980933E-27,-1.));
#527 = ( GEOMETRIC_REPRESENTATION_CONTEXT(2) 
PARAMETRIC_REPRESENTATION_CONTEXT() REPRESENTATION_CONTEXT('2D SPACE',''
  ) );
#528 = ORIENTED_EDGE('',*,*,#82,.T.);
#529 = ORIENTED_EDGE('',*,*,#480,.F.);
#530 = ORIENTED_EDGE('',*,*,#531,.F.);
#531 = EDGE_CURVE('',#507,#458,#532,.T.);
#532 = SURFACE_CURVE('',#533,(#537,#544),.PCURVE_S1.);
#533 = LINE('',#534,#535);
#534 = CARTESIAN_POINT('',(252.35002145561,79.304753367575,
    15.876396296689));
#535 = VECTOR('',#536,1.);
#536 = DIRECTION('',(4.989879086025E-08,8.305284514461E-04,
    -0.999999655111));
#537 = PCURVE('',#98,#538);
#538 = DEFINITIONAL_REPRESENTATION('',(#539),#543);
#539 = LINE('',#540,#541);
#540 = CARTESIAN_POINT('',(0.,-0.));
#541 = VECTOR('',#542,1.);
#542 = DIRECTION('',(1.,-2.168404344971E-19));
#543 = ( GEOMETRIC_REPRESENTATION_CONTEXT(2) 
PARAMETRIC_REPRESENTATION_CONTEXT() REPRESENTATION_CONTEXT('2D SPACE',''
  ) );
#544 = PCURVE('',#285,#545);
#545 = DEFINITIONAL_REPRESENTATION('',(#546),#550);
#546 = LINE('',#547,#548);
#547 = CARTESIAN_POINT('',(-16.6621906846,-0.158258120141));
#548 = VECTOR('',#549,1.);
#549 = DIRECTION('',(4.989879086025E-08,-1.));
#550 = ( GEOMETRIC_REPRESENTATION_CONTEXT(2) 
PARAMETRIC_REPRESENTATION_CONTEXT() REPRESENTATION_CONTEXT('2D SPACE',''
  ) );
#551 = ADVANCED_FACE('',(#552),#70,.T.);
#552 = FACE_BOUND('',#553,.T.);
#553 = EDGE_LOOP('',(#554,#555,#556,#557));
#554 = ORIENTED_EDGE('',*,*,#296,.T.);
#555 = ORIENTED_EDGE('',*,*,#54,.T.);
#556 = ORIENTED_EDGE('',*,*,#506,.F.);
#557 = ORIENTED_EDGE('',*,*,#558,.F.);
#558 = EDGE_CURVE('',#271,#507,#559,.T.);
#559 = SURFACE_CURVE('',#560,(#564,#571),.PCURVE_S1.);
#560 = LINE('',#561,#562);
#561 = CARTESIAN_POINT('',(247.35002111823,79.304753367575,
    15.876396296689));
#562 = VECTOR('',#563,1.);
#563 = DIRECTION('',(1.,-1.921571873521E-14,3.393122598082E-16));
#564 = PCURVE('',#70,#565);
#565 = DEFINITIONAL_REPRESENTATION('',(#566),#570);
#566 = LINE('',#567,#568);
#567 = CARTESIAN_POINT('',(0.,-0.));
#568 = VECTOR('',#569,1.);
#569 = DIRECTION('',(1.,-1.339652795191E-29));
#570 = ( GEOMETRIC_REPRESENTATION_CONTEXT(2) 
PARAMETRIC_REPRESENTATION_CONTEXT() REPRESENTATION_CONTEXT('2D SPACE',''
  ) );
#571 = PCURVE('',#285,#572);
#572 = DEFINITIONAL_REPRESENTATION('',(#573),#577);
#573 = LINE('',#574,#575);
#574 = CARTESIAN_POINT('',(-21.66219102198,-0.158258120141));
#575 = VECTOR('',#576,1.);
#576 = DIRECTION('',(1.,3.552713439078E-16));
#577 = ( GEOMETRIC_REPRESENTATION_CONTEXT(2) 
PARAMETRIC_REPRESENTATION_CONTEXT() REPRESENTATION_CONTEXT('2D SPACE',''
  ) );
#578 = ADVANCED_FACE('',(#579),#285,.T.);
#579 = FACE_BOUND('',#580,.T.);
#580 = EDGE_LOOP('',(#581,#582,#583,#584,#585,#586));
#581 = ORIENTED_EDGE('',*,*,#270,.F.);
#582 = ORIENTED_EDGE('',*,*,#558,.T.);
#583 = ORIENTED_EDGE('',*,*,#531,.T.);
#584 = ORIENTED_EDGE('',*,*,#457,.T.);
#585 = ORIENTED_EDGE('',*,*,#413,.T.);
#586 = ORIENTED_EDGE('',*,*,#587,.F.);
#587 = EDGE_CURVE('',#243,#391,#588,.T.);
#588 = SURFACE_CURVE('',#589,(#593,#600),.PCURVE_S1.);
#589 = LINE('',#590,#591);
#590 = CARTESIAN_POINT('',(247.35002122373,79.304753206125,
    15.876406058149));
#591 = VECTOR('',#592,1.);
#592 = DIRECTION('',(1.,-8.334773048466E-11,1.00333824863E-07));
#593 = PCURVE('',#285,#594);
#594 = DEFINITIONAL_REPRESENTATION('',(#595),#599);
#595 = LINE('',#596,#597);
#596 = CARTESIAN_POINT('',(-21.66219091648,-0.158248358551));
#597 = VECTOR('',#598,1.);
#598 = DIRECTION('',(1.,1.003338594816E-07));
#599 = ( GEOMETRIC_REPRESENTATION_CONTEXT(2) 
PARAMETRIC_REPRESENTATION_CONTEXT() REPRESENTATION_CONTEXT('2D SPACE',''
  ) );
#600 = PCURVE('',#258,#601);
#601 = DEFINITIONAL_REPRESENTATION('',(#602),#606);
#602 = LINE('',#603,#604);
#603 = CARTESIAN_POINT('',(4.999999999999,-1.38360391755E-13));
#604 = VECTOR('',#605,1.);
#605 = DIRECTION('',(4.315556352054E-23,-1.));
#606 = ( GEOMETRIC_REPRESENTATION_CONTEXT(2) 
PARAMETRIC_REPRESENTATION_CONTEXT() REPRESENTATION_CONTEXT('2D SPACE',''
  ) );
#607 = ADVANCED_FACE('',(#608),#258,.F.);
#608 = FACE_BOUND('',#609,.F.);
#609 = EDGE_LOOP('',(#610,#631,#632,#633));
#610 = ORIENTED_EDGE('',*,*,#611,.T.);
#611 = EDGE_CURVE('',#215,#368,#612,.T.);
#612 = SURFACE_CURVE('',#613,(#617,#624),.PCURVE_S1.);
#613 = LINE('',#614,#615);
#614 = CARTESIAN_POINT('',(247.35002122373,84.304751482097,
    15.880558198755));
#615 = VECTOR('',#616,1.);
#616 = DIRECTION('',(1.,-8.334773048466E-11,1.00333824863E-07));
#617 = PCURVE('',#258,#618);
#618 = DEFINITIONAL_REPRESENTATION('',(#619),#623);
#619 = LINE('',#620,#621);
#620 = CARTESIAN_POINT('',(-0.,0.));
#621 = VECTOR('',#622,1.);
#622 = DIRECTION('',(4.315556352054E-23,-1.));
#623 = ( GEOMETRIC_REPRESENTATION_CONTEXT(2) 
PARAMETRIC_REPRESENTATION_CONTEXT() REPRESENTATION_CONTEXT('2D SPACE',''
  ) );
#624 = PCURVE('',#230,#625);
#625 = DEFINITIONAL_REPRESENTATION('',(#626),#630);
#626 = LINE('',#627,#628);
#627 = CARTESIAN_POINT('',(6.74495745754,-2.391615408814E-12));
#628 = VECTOR('',#629,1.);
#629 = DIRECTION('',(6.008639969585E-21,-1.));
#630 = ( GEOMETRIC_REPRESENTATION_CONTEXT(2) 
PARAMETRIC_REPRESENTATION_CONTEXT() REPRESENTATION_CONTEXT('2D SPACE',''
  ) );
#631 = ORIENTED_EDGE('',*,*,#390,.T.);
#632 = ORIENTED_EDGE('',*,*,#587,.F.);
#633 = ORIENTED_EDGE('',*,*,#242,.F.);
#634 = ADVANCED_FACE('',(#635),#230,.F.);
#635 = FACE_BOUND('',#636,.F.);
#636 = EDGE_LOOP('',(#637,#638,#639,#640));
#637 = ORIENTED_EDGE('',*,*,#214,.F.);
#638 = ORIENTED_EDGE('',*,*,#344,.F.);
#639 = ORIENTED_EDGE('',*,*,#367,.T.);
#640 = ORIENTED_EDGE('',*,*,#611,.F.);
#641 = ( GEOMETRIC_REPRESENTATION_CONTEXT(3) 
GLOBAL_UNCERTAINTY_ASSIGNED_CONTEXT((#645)) GLOBAL_UNIT_ASSIGNED_CONTEXT
((#642,#643,#644)) REPRESENTATION_CONTEXT('Context #1',
  '3D Context with UNIT and UNCERTAINTY') );
#642 = ( LENGTH_UNIT() NAMED_UNIT(*) SI_UNIT(.MILLI.,.METRE.) );
#643 = ( NAMED_UNIT(*) PLANE_ANGLE_UNIT() SI_UNIT($,.RADIAN.) );
#644 = ( NAMED_UNIT(*) SI_UNIT($,.STERADIAN.) SOLID_ANGLE_UNIT() );
#645 = UNCERTAINTY_MEASURE_WITH_UNIT(LENGTH_MEASURE(2.E-07),#642,
  'distance_accuracy_value','confusion accuracy');
#646 = PRODUCT_RELATED_PRODUCT_CATEGORY('part',$,(#7));
ENDSEC;
END-ISO-10303-21;
