ISO-10303-21;
HEADER;
FILE_DESCRIPTION(('Open CASCADE Model'),'2;1');
FILE_NAME('Open CASCADE Shape Model','2026-09-24T01:31:38',('Author'),(
    'Open CASCADE'),'Open CASCADE STEP processor 7.9','Open CASCADE 7.9'
  ,'Unknown');
FILE_SCHEMA(('AUTOMOTIVE_DESIGN { 1 0 10303 214 1 1 1 1 }'));
ENDSEC;
DATA;
#1 = APPLICATION_PROTOCOL_DEFINITION('international standard',
  'automotive_design',2000,#2);
#2 = APPLICATION_CONTEXT(
  'core data for automotive mechanical design processes');
#3 = SHAPE_DEFINITION_REPRESENTATION(#4,#10);
#4 = PRODUCT_DEFINITION_SHAPE('','',#5);
#5 = PRODUCT_DEFINITION('design','',#6,#9);
#6 = PRODUCT_DEFINITION_FORMATION('','',#7);
#7 = PRODUCT('Open CASCADE STEP translator 7.9 45',
  'Open CASCADE STEP translator 7.9 45','',(#8));
#8 = PRODUCT_CONTEXT('',#2,'mechanical');
#9 = PRODUCT_DEFINITION_CONTEXT('part definition',#2,'design');
#10 = ADVANCED_BREP_SHAPE_REPRESENTATION('',(#11,#15),#637);
#11 = AXIS2_PLACEMENT_3D('',#12,#13,#14);
#12 = CARTESIAN_POINT('',(0.,0.,0.));
#13 = DIRECTION('',(0.,0.,1.));
#14 = DIRECTION('',(1.,0.,-0.));
#15 = MANIFOLD_SOLID_BREP('',#16);
#16 = CLOSED_SHELL('',(#17,#187,#257,#360,#405,#454,#503,#574,#601,#628)
  );
#17 = ADVANCED_FACE('',(#18),#32,.T.);
#18 = FACE_BOUND('',#19,.T.);
#19 = EDGE_LOOP('',(#20,#55,#81,#109,#137,#163));
#20 = ORIENTED_EDGE('',*,*,#21,.T.);
#21 = EDGE_CURVE('',#22,#24,#26,.T.);
#22 = VERTEX_POINT('',#23);
#23 = CARTESIAN_POINT('',(253.3500218978,116.71031998211,9.189169585643)
  );
#24 = VERTEX_POINT('',#25);
#25 = CARTESIAN_POINT('',(253.35002189716,122.71031258545,9.200567140573
    ));
#26 = SURFACE_CURVE('',#27,(#31,#43),.PCURVE_S1.);
#27 = LINE('',#28,#29);
#28 = CARTESIAN_POINT('',(253.35002190131,84.042340279893,9.127113660293
    ));
#29 = VECTOR('',#30,1.);
#30 = DIRECTION('',(-1.072456910073E-10,0.999998195775,1.89959140274E-03
    ));
#31 = PCURVE('',#32,#37);
#32 = PLANE('',#33);
#33 = AXIS2_PLACEMENT_3D('',#34,#35,#36);
#34 = CARTESIAN_POINT('',(253.35002139979,104.3806766366,14.142483274902
    ));
#35 = DIRECTION('',(1.,-8.334773048466E-11,1.00333824863E-07));
#36 = DIRECTION('',(-8.334773048466E-11,-1.,-8.362596593176E-18));
#37 = DEFINITIONAL_REPRESENTATION('',(#38),#42);
#38 = LINE('',#39,#40);
#39 = CARTESIAN_POINT('',(20.338336356707,5.015369614609));
#40 = VECTOR('',#41,1.);
#41 = DIRECTION('',(-0.999998195775,-1.89959140274E-03));
#42 = ( GEOMETRIC_REPRESENTATION_CONTEXT(2) 
PARAMETRIC_REPRESENTATION_CONTEXT() REPRESENTATION_CONTEXT('2D SPACE',''
  ) );
#43 = PCURVE('',#44,#49);
#44 = PLANE('',#45);
#45 = AXIS2_PLACEMENT_3D('',#46,#47,#48);
#46 = CARTESIAN_POINT('',(247.35002190131,84.042340280393,9.12711305829)
  );
#47 = DIRECTION('',(-1.003338021648E-07,-1.89959140274E-03,
    0.999998195775));
#48 = DIRECTION('',(-1.072456910073E-10,0.999998195775,1.89959140274E-03
    ));
#49 = DEFINITIONAL_REPRESENTATION('',(#50),#54);
#50 = LINE('',#51,#52);
#51 = CARTESIAN_POINT('',(7.745894134129E-14,-6.));
#52 = VECTOR('',#53,1.);
#53 = DIRECTION('',(1.,0.));
#54 = ( GEOMETRIC_REPRESENTATION_CONTEXT(2) 
PARAMETRIC_REPRESENTATION_CONTEXT() REPRESENTATION_CONTEXT('2D SPACE',''
  ) );
#55 = ORIENTED_EDGE('',*,*,#56,.F.);
#56 = EDGE_CURVE('',#57,#24,#59,.T.);
#57 = VERTEX_POINT('',#58);
#58 = CARTESIAN_POINT('',(253.35002138749,122.70609374639,
    14.280337299696));
#59 = SURFACE_CURVE('',#60,(#64,#70),.PCURVE_S1.);
#60 = LINE('',#61,#62);
#61 = CARTESIAN_POINT('',(253.3500213848,122.70607153137,14.307017867338
    ));
#62 = VECTOR('',#63,1.);
#63 = DIRECTION('',(1.003338594816E-07,8.305284513488E-04,
    -0.999999655111));
#64 = PCURVE('',#32,#65);
#65 = DEFINITIONAL_REPRESENTATION('',(#66),#69);
#66 = B_SPLINE_CURVE_WITH_KNOTS('',1,(#67,#68),.UNSPECIFIED.,.F.,.F.,(2,
    2),(-6.498738335509,5.213183195849),.PIECEWISE_BEZIER_KNOTS.);
#67 = CARTESIAN_POINT('',(-18.31999750769,-6.663270686603));
#68 = CARTESIAN_POINT('',(-18.32972459174,5.048646805444));
#69 = ( GEOMETRIC_REPRESENTATION_CONTEXT(2) 
PARAMETRIC_REPRESENTATION_CONTEXT() REPRESENTATION_CONTEXT('2D SPACE',''
  ) );
#70 = PCURVE('',#71,#76);
#71 = PLANE('',#72);
#72 = AXIS2_PLACEMENT_3D('',#73,#74,#75);
#73 = CARTESIAN_POINT('',(205.24058669681,122.70594752522,
    14.456327762685));
#74 = DIRECTION('',(1.050342962155E-14,-0.999999655111,
    -8.305284513488E-04));
#75 = DIRECTION('',(-1.,-1.050342599904E-14,-8.723397137433E-18));
#76 = DEFINITIONAL_REPRESENTATION('',(#77),#80);
#77 = B_SPLINE_CURVE_WITH_KNOTS('',1,(#78,#79),.UNSPECIFIED.,.F.,.F.,(2,
    2),(-6.498738335509,5.213183195849),.PIECEWISE_BEZIER_KNOTS.);
#78 = CARTESIAN_POINT('',(-48.10943403595,-6.349428388667));
#79 = CARTESIAN_POINT('',(-48.10943521105,5.362493142691));
#80 = ( GEOMETRIC_REPRESENTATION_CONTEXT(2) 
PARAMETRIC_REPRESENTATION_CONTEXT() REPRESENTATION_CONTEXT('2D SPACE',''
  ) );
#81 = ORIENTED_EDGE('',*,*,#82,.T.);
#82 = EDGE_CURVE('',#57,#83,#85,.T.);
#83 = VERTEX_POINT('',#84);
#84 = CARTESIAN_POINT('',(253.35002138749,117.70609547043,
    14.276185159091));
#85 = SURFACE_CURVE('',#86,(#90,#97),.PCURVE_S1.);
#86 = LINE('',#87,#88);
#87 = CARTESIAN_POINT('',(253.35002138749,122.70609374639,
    14.280337299696));
#88 = VECTOR('',#89,1.);
#89 = DIRECTION('',(-2.767209359096E-14,-0.999999655195,
    -8.304281209855E-04));
#90 = PCURVE('',#32,#91);
#91 = DEFINITIONAL_REPRESENTATION('',(#92),#96);
#92 = LINE('',#93,#94);
#93 = CARTESIAN_POINT('',(-18.32541710979,-0.137854024794));
#94 = VECTOR('',#95,1.);
#95 = DIRECTION('',(0.999999655195,8.304281209855E-04));
#96 = ( GEOMETRIC_REPRESENTATION_CONTEXT(2) 
PARAMETRIC_REPRESENTATION_CONTEXT() REPRESENTATION_CONTEXT('2D SPACE',''
  ) );
#97 = PCURVE('',#98,#103);
#98 = PLANE('',#99);
#99 = AXIS2_PLACEMENT_3D('',#100,#101,#102);
#100 = CARTESIAN_POINT('',(247.35002138749,122.70609374689,
    14.280336697693));
#101 = DIRECTION('',(1.003338594816E-07,8.304281209855E-04,
    -0.999999655195));
#102 = DIRECTION('',(-2.767209359096E-14,-0.999999655195,
    -8.304281209855E-04));
#103 = DEFINITIONAL_REPRESENTATION('',(#104),#108);
#104 = LINE('',#105,#106);
#105 = CARTESIAN_POINT('',(-7.745943267954E-14,-6.));
#106 = VECTOR('',#107,1.);
#107 = DIRECTION('',(1.,0.));
#108 = ( GEOMETRIC_REPRESENTATION_CONTEXT(2) 
PARAMETRIC_REPRESENTATION_CONTEXT() REPRESENTATION_CONTEXT('2D SPACE',''
  ) );
#109 = ORIENTED_EDGE('',*,*,#110,.T.);
#110 = EDGE_CURVE('',#83,#111,#113,.T.);
#111 = VERTEX_POINT('',#112);
#112 = CARTESIAN_POINT('',(253.35002083763,117.70154397593,
    19.756422367675));
#113 = SURFACE_CURVE('',#114,(#118,#125),.PCURVE_S1.);
#114 = LINE('',#115,#116);
#115 = CARTESIAN_POINT('',(253.35002138749,117.70609547043,
    14.276185159091));
#116 = VECTOR('',#117,1.);
#117 = DIRECTION('',(-1.003338594816E-07,-8.305284512183E-04,
    0.999999655111));
#118 = PCURVE('',#32,#119);
#119 = DEFINITIONAL_REPRESENTATION('',(#120),#124);
#120 = LINE('',#121,#122);
#121 = CARTESIAN_POINT('',(-13.32541883383,-0.133701884189));
#122 = VECTOR('',#123,1.);
#123 = DIRECTION('',(8.305284512183E-04,-0.999999655111));
#124 = ( GEOMETRIC_REPRESENTATION_CONTEXT(2) 
PARAMETRIC_REPRESENTATION_CONTEXT() REPRESENTATION_CONTEXT('2D SPACE',''
  ) );
#125 = PCURVE('',#126,#131);
#126 = PLANE('',#127);
#127 = AXIS2_PLACEMENT_3D('',#128,#129,#130);
#128 = CARTESIAN_POINT('',(247.35002138749,117.70609547093,
    14.276184557088));
#129 = DIRECTION('',(-1.760557070144E-14,-0.999999655111,
    -8.305284512183E-04));
#130 = DIRECTION('',(-1.003338594816E-07,-8.305284512183E-04,
    0.999999655111));
#131 = DEFINITIONAL_REPRESENTATION('',(#132),#136);
#132 = LINE('',#133,#134);
#133 = CARTESIAN_POINT('',(5.115525010105E-14,-6.));
#134 = VECTOR('',#135,1.);
#135 = DIRECTION('',(1.,3.970466940255E-23));
#136 = ( GEOMETRIC_REPRESENTATION_CONTEXT(2) 
PARAMETRIC_REPRESENTATION_CONTEXT() REPRESENTATION_CONTEXT('2D SPACE',''
  ) );
#137 = ORIENTED_EDGE('',*,*,#138,.F.);
#138 = EDGE_CURVE('',#139,#111,#141,.T.);
#139 = VERTEX_POINT('',#140);
#140 = CARTESIAN_POINT('',(253.35002083763,116.70154426478,
    19.755591839177));
#141 = SURFACE_CURVE('',#142,(#146,#152),.PCURVE_S1.);
#142 = LINE('',#143,#144);
#143 = CARTESIAN_POINT('',(253.35002083763,113.53878274297,
    19.752965074843));
#144 = VECTOR('',#145,1.);
#145 = DIRECTION('',(1.760555761853E-14,0.999999655111,
    8.305284513485E-04));
#146 = PCURVE('',#32,#147);
#147 = DEFINITIONAL_REPRESENTATION('',(#148),#151);
#148 = B_SPLINE_CURVE_WITH_KNOTS('',1,(#149,#150),.UNSPECIFIED.,.F.,.F.,
  (2,2),(3.162762612601,9.162762612608),.PIECEWISE_BEZIER_KNOTS.);
#149 = CARTESIAN_POINT('',(-12.32086762817,-5.613108564275));
#150 = CARTESIAN_POINT('',(-18.32086555885,-5.618091734983));
#151 = ( GEOMETRIC_REPRESENTATION_CONTEXT(2) 
PARAMETRIC_REPRESENTATION_CONTEXT() REPRESENTATION_CONTEXT('2D SPACE',''
  ) );
#152 = PCURVE('',#153,#158);
#153 = PLANE('',#154);
#154 = AXIS2_PLACEMENT_3D('',#155,#156,#157);
#155 = CARTESIAN_POINT('',(359.99999999999,122.70200254249,
    19.206293122149));
#156 = DIRECTION('',(-5.1971373793E-03,8.305172348877E-04,
    -0.999986149906));
#157 = DIRECTION('',(-0.99998649479,-4.316370469578E-06,
    5.197135586865E-03));
#158 = DEFINITIONAL_REPRESENTATION('',(#159),#162);
#159 = B_SPLINE_CURVE_WITH_KNOTS('',1,(#160,#161),.UNSPECIFIED.,.F.,.F.,
  (2,2),(3.162762612601,9.162762612608),.PIECEWISE_BEZIER_KNOTS.);
#160 = CARTESIAN_POINT('',(106.65141951213,-6.000000000007));
#161 = CARTESIAN_POINT('',(106.65141951213,0.));
#162 = ( GEOMETRIC_REPRESENTATION_CONTEXT(2) 
PARAMETRIC_REPRESENTATION_CONTEXT() REPRESENTATION_CONTEXT('2D SPACE',''
  ) );
#163 = ORIENTED_EDGE('',*,*,#164,.T.);
#164 = EDGE_CURVE('',#139,#22,#165,.T.);
#165 = SURFACE_CURVE('',#166,(#170,#176),.PCURVE_S1.);
#166 = LINE('',#167,#168);
#167 = CARTESIAN_POINT('',(253.3500213848,116.7060736007,14.30203469663)
  );
#168 = VECTOR('',#169,1.);
#169 = DIRECTION('',(1.003338594816E-07,8.305284513488E-04,
    -0.999999655111));
#170 = PCURVE('',#32,#171);
#171 = DEFINITIONAL_REPRESENTATION('',(#172),#175);
#172 = B_SPLINE_CURVE_WITH_KNOTS('',1,(#173,#174),.UNSPECIFIED.,.F.,.F.,
  (2,2),(-6.498738335509,5.208200023422),.PIECEWISE_BEZIER_KNOTS.);
#173 = CARTESIAN_POINT('',(-12.31999957702,-6.658287515895));
#174 = CARTESIAN_POINT('',(-12.3297225224,5.048646805444));
#175 = ( GEOMETRIC_REPRESENTATION_CONTEXT(2) 
PARAMETRIC_REPRESENTATION_CONTEXT() REPRESENTATION_CONTEXT('2D SPACE',''
  ) );
#176 = PCURVE('',#177,#182);
#177 = PLANE('',#178);
#178 = AXIS2_PLACEMENT_3D('',#179,#180,#181);
#179 = CARTESIAN_POINT('',(205.24058669681,116.70594959455,
    14.451344591977));
#180 = DIRECTION('',(1.050342962155E-14,-0.999999655111,
    -8.305284513488E-04));
#181 = DIRECTION('',(-1.,-1.050342599904E-14,-8.723397137433E-18));
#182 = DEFINITIONAL_REPRESENTATION('',(#183),#186);
#183 = B_SPLINE_CURVE_WITH_KNOTS('',1,(#184,#185),.UNSPECIFIED.,.F.,.F.,
  (2,2),(-6.498738335509,5.208200023422),.PIECEWISE_BEZIER_KNOTS.);
#184 = CARTESIAN_POINT('',(-48.10943403595,-6.349428388667));
#185 = CARTESIAN_POINT('',(-48.10943521055,5.357509970264));
#186 = ( GEOMETRIC_REPRESENTATION_CONTEXT(2) 
PARAMETRIC_REPRESENTATION_CONTEXT() REPRESENTATION_CONTEXT('2D SPACE',''
  ) );
#187 = ADVANCED_FACE('',(#188),#44,.F.);
#188 = FACE_BOUND('',#189,.F.);
#189 = EDGE_LOOP('',(#190,#211,#212,#233));
#190 = ORIENTED_EDGE('',*,*,#191,.T.);
#191 = EDGE_CURVE('',#192,#22,#194,.T.);
#192 = VERTEX_POINT('',#193);
#193 = CARTESIAN_POINT('',(252.35002128198,116.7103199822,9.189169485309
    ));
#194 = SURFACE_CURVE('',#195,(#199,#205),.PCURVE_S1.);
#195 = LINE('',#196,#197);
#196 = CARTESIAN_POINT('',(226.29530456129,116.71031998437,9.18916687114
    ));
#197 = VECTOR('',#198,1.);
#198 = DIRECTION('',(1.,-8.331962153206E-11,1.003338249164E-07));
#199 = PCURVE('',#44,#200);
#200 = DEFINITIONAL_REPRESENTATION('',(#201),#204);
#201 = B_SPLINE_CURVE_WITH_KNOTS('',1,(#202,#203),.UNSPECIFIED.,.F.,.F.,
  (2,2),(21.054717336505,27.054717336511),.PIECEWISE_BEZIER_KNOTS.);
#202 = CARTESIAN_POINT('',(32.668038642728,6.306066779871E-12));
#203 = CARTESIAN_POINT('',(32.668038642728,-6.));
#204 = ( GEOMETRIC_REPRESENTATION_CONTEXT(2) 
PARAMETRIC_REPRESENTATION_CONTEXT() REPRESENTATION_CONTEXT('2D SPACE',''
  ) );
#205 = PCURVE('',#177,#206);
#206 = DEFINITIONAL_REPRESENTATION('',(#207),#210);
#207 = B_SPLINE_CURVE_WITH_KNOTS('',1,(#208,#209),.UNSPECIFIED.,.F.,.F.,
  (2,2),(21.054717336505,27.054717336511),.PIECEWISE_BEZIER_KNOTS.);
#208 = CARTESIAN_POINT('',(-42.10943520099,5.262177423203));
#209 = CARTESIAN_POINT('',(-48.10943520099,5.2621768212));
#210 = ( GEOMETRIC_REPRESENTATION_CONTEXT(2) 
PARAMETRIC_REPRESENTATION_CONTEXT() REPRESENTATION_CONTEXT('2D SPACE',''
  ) );
#211 = ORIENTED_EDGE('',*,*,#21,.T.);
#212 = ORIENTED_EDGE('',*,*,#213,.F.);
#213 = EDGE_CURVE('',#214,#24,#216,.T.);
#214 = VERTEX_POINT('',#215);
#215 = CARTESIAN_POINT('',(252.35002128198,122.71031258554,
    9.200567040239));
#216 = SURFACE_CURVE('',#217,(#221,#227),.PCURVE_S1.);
#217 = LINE('',#218,#219);
#218 = CARTESIAN_POINT('',(226.29530456065,122.71031258771,
    9.200564426069));
#219 = VECTOR('',#220,1.);
#220 = DIRECTION('',(1.,-8.331962153206E-11,1.003338249164E-07));
#221 = PCURVE('',#44,#222);
#222 = DEFINITIONAL_REPRESENTATION('',(#223),#226);
#223 = B_SPLINE_CURVE_WITH_KNOTS('',1,(#224,#225),.UNSPECIFIED.,.F.,.F.,
  (2,2),(21.054717336505,27.054717336511),.PIECEWISE_BEZIER_KNOTS.);
#224 = CARTESIAN_POINT('',(38.668042071426,6.306066779871E-12));
#225 = CARTESIAN_POINT('',(38.668042071426,-6.));
#226 = ( GEOMETRIC_REPRESENTATION_CONTEXT(2) 
PARAMETRIC_REPRESENTATION_CONTEXT() REPRESENTATION_CONTEXT('2D SPACE',''
  ) );
#227 = PCURVE('',#71,#228);
#228 = DEFINITIONAL_REPRESENTATION('',(#229),#232);
#229 = B_SPLINE_CURVE_WITH_KNOTS('',1,(#230,#231),.UNSPECIFIED.,.F.,.F.,
  (2,2),(21.054717336505,27.054717336511),.PIECEWISE_BEZIER_KNOTS.);
#230 = CARTESIAN_POINT('',(-42.10943520034,5.255763036769));
#231 = CARTESIAN_POINT('',(-48.10943520035,5.255762434766));
#232 = ( GEOMETRIC_REPRESENTATION_CONTEXT(2) 
PARAMETRIC_REPRESENTATION_CONTEXT() REPRESENTATION_CONTEXT('2D SPACE',''
  ) );
#233 = ORIENTED_EDGE('',*,*,#234,.F.);
#234 = EDGE_CURVE('',#192,#214,#235,.T.);
#235 = SURFACE_CURVE('',#236,(#240,#246),.PCURVE_S1.);
#236 = LINE('',#237,#238);
#237 = CARTESIAN_POINT('',(252.35002128198,103.37899263809,
    9.163845364809));
#238 = VECTOR('',#239,1.);
#239 = DIRECTION('',(-1.050342361938E-14,0.999998195775,
    1.89959140274E-03));
#240 = PCURVE('',#44,#241);
#241 = DEFINITIONAL_REPRESENTATION('',(#242),#245);
#242 = B_SPLINE_CURVE_WITH_KNOTS('',1,(#243,#244),.UNSPECIFIED.,.F.,.F.,
  (2,2),(13.331351396867,19.331354825565),.PIECEWISE_BEZIER_KNOTS.);
#243 = CARTESIAN_POINT('',(32.668038642729,-4.999999384174));
#244 = CARTESIAN_POINT('',(38.668042071427,-4.999999384817));
#245 = ( GEOMETRIC_REPRESENTATION_CONTEXT(2) 
PARAMETRIC_REPRESENTATION_CONTEXT() REPRESENTATION_CONTEXT('2D SPACE',''
  ) );
#246 = PCURVE('',#247,#252);
#247 = PLANE('',#248);
#248 = AXIS2_PLACEMENT_3D('',#249,#250,#251);
#249 = CARTESIAN_POINT('',(252.35002128198,122.70616996352,
    14.188500427859));
#250 = DIRECTION('',(1.,1.050342599904E-14,8.723397137436E-18));
#251 = DIRECTION('',(-5.028988270784E-30,8.305284513488E-04,
    -0.999999655111));
#252 = DEFINITIONAL_REPRESENTATION('',(#253),#256);
#253 = B_SPLINE_CURVE_WITH_KNOTS('',1,(#254,#255),.UNSPECIFIED.,.F.,.F.,
  (2,2),(13.331351396867,19.331354825565),.PIECEWISE_BEZIER_KNOTS.);
#254 = CARTESIAN_POINT('',(4.994349494337,-6.000000000003));
#255 = CARTESIAN_POINT('',(4.987935107903,7.105427357601E-15));
#256 = ( GEOMETRIC_REPRESENTATION_CONTEXT(2) 
PARAMETRIC_REPRESENTATION_CONTEXT() REPRESENTATION_CONTEXT('2D SPACE',''
  ) );
#257 = ADVANCED_FACE('',(#258),#177,.T.);
#258 = FACE_BOUND('',#259,.T.);
#259 = EDGE_LOOP('',(#260,#261,#284,#310,#338,#359));
#260 = ORIENTED_EDGE('',*,*,#164,.F.);
#261 = ORIENTED_EDGE('',*,*,#262,.T.);
#262 = EDGE_CURVE('',#139,#263,#265,.T.);
#263 = VERTEX_POINT('',#264);
#264 = CARTESIAN_POINT('',(247.3500208345,116.70151836621,
    19.786775073851));
#265 = SURFACE_CURVE('',#266,(#270,#277),.PCURVE_S1.);
#266 = LINE('',#267,#268);
#267 = CARTESIAN_POINT('',(359.99999999999,116.70200461182,
    19.201309951441));
#268 = VECTOR('',#269,1.);
#269 = DIRECTION('',(-0.99998649479,-4.316370469579E-06,
    5.197135586867E-03));
#270 = PCURVE('',#177,#271);
#271 = DEFINITIONAL_REPRESENTATION('',(#272),#276);
#272 = LINE('',#273,#274);
#273 = CARTESIAN_POINT('',(-154.7594133031,-4.749966997674));
#274 = VECTOR('',#275,1.);
#275 = DIRECTION('',(0.99998649479,-5.197137379301E-03));
#276 = ( GEOMETRIC_REPRESENTATION_CONTEXT(2) 
PARAMETRIC_REPRESENTATION_CONTEXT() REPRESENTATION_CONTEXT('2D SPACE',''
  ) );
#277 = PCURVE('',#153,#278);
#278 = DEFINITIONAL_REPRESENTATION('',(#279),#283);
#279 = LINE('',#280,#281);
#280 = CARTESIAN_POINT('',(6.301420973562E-14,-6.000000000003));
#281 = VECTOR('',#282,1.);
#282 = DIRECTION('',(1.,3.388131789017E-21));
#283 = ( GEOMETRIC_REPRESENTATION_CONTEXT(2) 
PARAMETRIC_REPRESENTATION_CONTEXT() REPRESENTATION_CONTEXT('2D SPACE',''
  ) );
#284 = ORIENTED_EDGE('',*,*,#285,.T.);
#285 = EDGE_CURVE('',#263,#286,#288,.T.);
#286 = VERTEX_POINT('',#287);
#287 = CARTESIAN_POINT('',(247.35002128198,116.70617203306,
    14.183517006325));
#288 = SURFACE_CURVE('',#289,(#293,#299),.PCURVE_S1.);
#289 = LINE('',#290,#291);
#290 = CARTESIAN_POINT('',(247.3500213848,116.7060736012,14.302034094627
    ));
#291 = VECTOR('',#292,1.);
#292 = DIRECTION('',(1.003338594816E-07,8.305284513488E-04,
    -0.999999655111));
#293 = PCURVE('',#177,#294);
#294 = DEFINITIONAL_REPRESENTATION('',(#295),#298);
#295 = B_SPLINE_CURVE_WITH_KNOTS('',1,(#296,#297),.UNSPECIFIED.,.F.,.F.,
  (2,2),(-6.498738937512,5.208200023422),.PIECEWISE_BEZIER_KNOTS.);
#296 = CARTESIAN_POINT('',(-42.10943403595,-6.349428388667));
#297 = CARTESIAN_POINT('',(-42.10943521055,5.357510572268));
#298 = ( GEOMETRIC_REPRESENTATION_CONTEXT(2) 
PARAMETRIC_REPRESENTATION_CONTEXT() REPRESENTATION_CONTEXT('2D SPACE',''
  ) );
#299 = PCURVE('',#300,#305);
#300 = PLANE('',#301);
#301 = AXIS2_PLACEMENT_3D('',#302,#303,#304);
#302 = CARTESIAN_POINT('',(247.35002139979,104.3806766371,
    14.142482672899));
#303 = DIRECTION('',(1.,-8.334773048466E-11,1.00333824863E-07));
#304 = DIRECTION('',(-8.334773048466E-11,-1.,-8.362596593176E-18));
#305 = DEFINITIONAL_REPRESENTATION('',(#306),#309);
#306 = B_SPLINE_CURVE_WITH_KNOTS('',1,(#307,#308),.UNSPECIFIED.,.F.,.F.,
  (2,2),(-6.498738937512,5.208200023422),.PIECEWISE_BEZIER_KNOTS.);
#307 = CARTESIAN_POINT('',(-12.31999957652,-6.658288117898));
#308 = CARTESIAN_POINT('',(-12.3297225224,5.048646805444));
#309 = ( GEOMETRIC_REPRESENTATION_CONTEXT(2) 
PARAMETRIC_REPRESENTATION_CONTEXT() REPRESENTATION_CONTEXT('2D SPACE',''
  ) );
#310 = ORIENTED_EDGE('',*,*,#311,.T.);
#311 = EDGE_CURVE('',#286,#312,#314,.T.);
#312 = VERTEX_POINT('',#313);
#313 = CARTESIAN_POINT('',(252.35002128198,116.70617203285,
    14.183517257151));
#314 = SURFACE_CURVE('',#315,(#319,#326),.PCURVE_S1.);
#315 = LINE('',#316,#317);
#316 = CARTESIAN_POINT('',(247.35002128198,116.70617203306,
    14.183517006325));
#317 = VECTOR('',#318,1.);
#318 = DIRECTION('',(1.,-4.165312804282E-11,5.016518945147E-08));
#319 = PCURVE('',#177,#320);
#320 = DEFINITIONAL_REPRESENTATION('',(#321),#325);
#321 = LINE('',#322,#323);
#322 = CARTESIAN_POINT('',(-42.10943458517,0.267827678023));
#323 = VECTOR('',#324,1.);
#324 = DIRECTION('',(-1.,-5.016520674417E-08));
#325 = ( GEOMETRIC_REPRESENTATION_CONTEXT(2) 
PARAMETRIC_REPRESENTATION_CONTEXT() REPRESENTATION_CONTEXT('2D SPACE',''
  ) );
#326 = PCURVE('',#327,#332);
#327 = PLANE('',#328);
#328 = AXIS2_PLACEMENT_3D('',#329,#330,#331);
#329 = CARTESIAN_POINT('',(247.35002128198,122.70616996373,
    14.188500177034));
#330 = DIRECTION('',(-5.016520674418E-08,-8.305284513488E-04,
    0.999999655111));
#331 = DIRECTION('',(1.,-4.165312804283E-11,5.016518945148E-08));
#332 = DEFINITIONAL_REPRESENTATION('',(#333),#337);
#333 = LINE('',#334,#335);
#334 = CARTESIAN_POINT('',(-6.302057770207E-14,-6.000000000003));
#335 = VECTOR('',#336,1.);
#336 = DIRECTION('',(1.,-3.231174267785E-26));
#337 = ( GEOMETRIC_REPRESENTATION_CONTEXT(2) 
PARAMETRIC_REPRESENTATION_CONTEXT() REPRESENTATION_CONTEXT('2D SPACE',''
  ) );
#338 = ORIENTED_EDGE('',*,*,#339,.T.);
#339 = EDGE_CURVE('',#312,#192,#340,.T.);
#340 = SURFACE_CURVE('',#341,(#345,#352),.PCURVE_S1.);
#341 = LINE('',#342,#343);
#342 = CARTESIAN_POINT('',(252.35002128198,116.70617203285,
    14.183517257151));
#343 = VECTOR('',#344,1.);
#344 = DIRECTION('',(3.081487911021E-33,8.305284513488E-04,
    -0.999999655111));
#345 = PCURVE('',#177,#346);
#346 = DEFINITIONAL_REPRESENTATION('',(#347),#351);
#347 = LINE('',#348,#349);
#348 = CARTESIAN_POINT('',(-47.10943458517,0.267827427197));
#349 = VECTOR('',#350,1.);
#350 = DIRECTION('',(-5.028988270784E-30,1.));
#351 = ( GEOMETRIC_REPRESENTATION_CONTEXT(2) 
PARAMETRIC_REPRESENTATION_CONTEXT() REPRESENTATION_CONTEXT('2D SPACE',''
  ) );
#352 = PCURVE('',#247,#353);
#353 = DEFINITIONAL_REPRESENTATION('',(#354),#358);
#354 = LINE('',#355,#356);
#355 = CARTESIAN_POINT('',(-9.499692699144E-14,-6.000000000003));
#356 = VECTOR('',#357,1.);
#357 = DIRECTION('',(1.,0.));
#358 = ( GEOMETRIC_REPRESENTATION_CONTEXT(2) 
PARAMETRIC_REPRESENTATION_CONTEXT() REPRESENTATION_CONTEXT('2D SPACE',''
  ) );
#359 = ORIENTED_EDGE('',*,*,#191,.T.);
#360 = ADVANCED_FACE('',(#361),#153,.F.);
#361 = FACE_BOUND('',#362,.F.);
#362 = EDGE_LOOP('',(#363,#364,#365,#386));
#363 = ORIENTED_EDGE('',*,*,#138,.F.);
#364 = ORIENTED_EDGE('',*,*,#262,.T.);
#365 = ORIENTED_EDGE('',*,*,#366,.T.);
#366 = EDGE_CURVE('',#263,#367,#369,.T.);
#367 = VERTEX_POINT('',#368);
#368 = CARTESIAN_POINT('',(247.3500208345,117.70151807736,
    19.787605602349));
#369 = SURFACE_CURVE('',#370,(#374,#380),.PCURVE_S1.);
#370 = LINE('',#371,#372);
#371 = CARTESIAN_POINT('',(247.3500208345,113.5387568444,19.784148309516
    ));
#372 = VECTOR('',#373,1.);
#373 = DIRECTION('',(1.760555761853E-14,0.999999655111,
    8.305284513485E-04));
#374 = PCURVE('',#153,#375);
#375 = DEFINITIONAL_REPRESENTATION('',(#376),#379);
#376 = B_SPLINE_CURVE_WITH_KNOTS('',1,(#377,#378),.UNSPECIFIED.,.F.,.F.,
  (2,2),(3.162762612601,9.162762612608),.PIECEWISE_BEZIER_KNOTS.);
#377 = CARTESIAN_POINT('',(112.65150054762,-6.000000000007));
#378 = CARTESIAN_POINT('',(112.65150054762,0.));
#379 = ( GEOMETRIC_REPRESENTATION_CONTEXT(2) 
PARAMETRIC_REPRESENTATION_CONTEXT() REPRESENTATION_CONTEXT('2D SPACE',''
  ) );
#380 = PCURVE('',#300,#381);
#381 = DEFINITIONAL_REPRESENTATION('',(#382),#385);
#382 = B_SPLINE_CURVE_WITH_KNOTS('',1,(#383,#384),.UNSPECIFIED.,.F.,.F.,
  (2,2),(3.162762612601,9.162762612608),.PIECEWISE_BEZIER_KNOTS.);
#383 = CARTESIAN_POINT('',(-12.3208417291,-5.644292400952));
#384 = CARTESIAN_POINT('',(-18.32083965978,-5.64927557166));
#385 = ( GEOMETRIC_REPRESENTATION_CONTEXT(2) 
PARAMETRIC_REPRESENTATION_CONTEXT() REPRESENTATION_CONTEXT('2D SPACE',''
  ) );
#386 = ORIENTED_EDGE('',*,*,#387,.T.);
#387 = EDGE_CURVE('',#367,#111,#388,.T.);
#388 = SURFACE_CURVE('',#389,(#393,#399),.PCURVE_S1.);
#389 = LINE('',#390,#391);
#390 = CARTESIAN_POINT('',(303.68933231141,117.70176126199,
    19.494798607313));
#391 = VECTOR('',#392,1.);
#392 = DIRECTION('',(0.99998649479,4.316370440793E-06,
    -5.197135586865E-03));
#393 = PCURVE('',#153,#394);
#394 = DEFINITIONAL_REPRESENTATION('',(#395),#398);
#395 = B_SPLINE_CURVE_WITH_KNOTS('',1,(#396,#397),.UNSPECIFIED.,.F.,.F.,
  (2,2),(-56.3400723614,-50.33999132591),.PIECEWISE_BEZIER_KNOTS.);
#396 = CARTESIAN_POINT('',(112.65150054762,-4.999999943957));
#397 = CARTESIAN_POINT('',(106.65141951213,-4.999999943957));
#398 = ( GEOMETRIC_REPRESENTATION_CONTEXT(2) 
PARAMETRIC_REPRESENTATION_CONTEXT() REPRESENTATION_CONTEXT('2D SPACE',''
  ) );
#399 = PCURVE('',#126,#400);
#400 = DEFINITIONAL_REPRESENTATION('',(#401),#404);
#401 = B_SPLINE_CURVE_WITH_KNOTS('',1,(#402,#403),.UNSPECIFIED.,.F.,.F.,
  (2,2),(-56.3400723614,-50.33999132591),.PIECEWISE_BEZIER_KNOTS.);
#402 = CARTESIAN_POINT('',(5.511422946089,3.296918293927E-12));
#403 = CARTESIAN_POINT('',(5.480239098657,-6.));
#404 = ( GEOMETRIC_REPRESENTATION_CONTEXT(2) 
PARAMETRIC_REPRESENTATION_CONTEXT() REPRESENTATION_CONTEXT('2D SPACE',''
  ) );
#405 = ADVANCED_FACE('',(#406),#126,.F.);
#406 = FACE_BOUND('',#407,.F.);
#407 = EDGE_LOOP('',(#408,#431,#452,#453));
#408 = ORIENTED_EDGE('',*,*,#409,.F.);
#409 = EDGE_CURVE('',#410,#367,#412,.T.);
#410 = VERTEX_POINT('',#411);
#411 = CARTESIAN_POINT('',(247.35002138749,117.70609547093,
    14.276184557088));
#412 = SURFACE_CURVE('',#413,(#417,#424),.PCURVE_S1.);
#413 = LINE('',#414,#415);
#414 = CARTESIAN_POINT('',(247.35002138749,117.70609547093,
    14.276184557088));
#415 = VECTOR('',#416,1.);
#416 = DIRECTION('',(-1.003338594816E-07,-8.305284512183E-04,
    0.999999655111));
#417 = PCURVE('',#126,#418);
#418 = DEFINITIONAL_REPRESENTATION('',(#419),#423);
#419 = LINE('',#420,#421);
#420 = CARTESIAN_POINT('',(0.,0.));
#421 = VECTOR('',#422,1.);
#422 = DIRECTION('',(1.,3.970466940255E-23));
#423 = ( GEOMETRIC_REPRESENTATION_CONTEXT(2) 
PARAMETRIC_REPRESENTATION_CONTEXT() REPRESENTATION_CONTEXT('2D SPACE',''
  ) );
#424 = PCURVE('',#300,#425);
#425 = DEFINITIONAL_REPRESENTATION('',(#426),#430);
#426 = LINE('',#427,#428);
#427 = CARTESIAN_POINT('',(-13.32541883383,-0.133701884189));
#428 = VECTOR('',#429,1.);
#429 = DIRECTION('',(8.305284512183E-04,-0.999999655111));
#430 = ( GEOMETRIC_REPRESENTATION_CONTEXT(2) 
PARAMETRIC_REPRESENTATION_CONTEXT() REPRESENTATION_CONTEXT('2D SPACE',''
  ) );
#431 = ORIENTED_EDGE('',*,*,#432,.T.);
#432 = EDGE_CURVE('',#410,#83,#433,.T.);
#433 = SURFACE_CURVE('',#434,(#438,#445),.PCURVE_S1.);
#434 = LINE('',#435,#436);
#435 = CARTESIAN_POINT('',(247.35002138749,117.70609547093,
    14.276184557088));
#436 = VECTOR('',#437,1.);
#437 = DIRECTION('',(1.,-8.334773048466E-11,1.00333824863E-07));
#438 = PCURVE('',#126,#439);
#439 = DEFINITIONAL_REPRESENTATION('',(#440),#444);
#440 = LINE('',#441,#442);
#441 = CARTESIAN_POINT('',(0.,0.));
#442 = VECTOR('',#443,1.);
#443 = DIRECTION('',(2.899764355366E-20,-1.));
#444 = ( GEOMETRIC_REPRESENTATION_CONTEXT(2) 
PARAMETRIC_REPRESENTATION_CONTEXT() REPRESENTATION_CONTEXT('2D SPACE',''
  ) );
#445 = PCURVE('',#98,#446);
#446 = DEFINITIONAL_REPRESENTATION('',(#447),#451);
#447 = LINE('',#448,#449);
#448 = CARTESIAN_POINT('',(4.999999999987,-1.383604679175E-13));
#449 = VECTOR('',#450,1.);
#450 = DIRECTION('',(4.533983732556E-23,-1.));
#451 = ( GEOMETRIC_REPRESENTATION_CONTEXT(2) 
PARAMETRIC_REPRESENTATION_CONTEXT() REPRESENTATION_CONTEXT('2D SPACE',''
  ) );
#452 = ORIENTED_EDGE('',*,*,#110,.T.);
#453 = ORIENTED_EDGE('',*,*,#387,.F.);
#454 = ADVANCED_FACE('',(#455),#98,.F.);
#455 = FACE_BOUND('',#456,.F.);
#456 = EDGE_LOOP('',(#457,#480,#481,#482));
#457 = ORIENTED_EDGE('',*,*,#458,.T.);
#458 = EDGE_CURVE('',#459,#57,#461,.T.);
#459 = VERTEX_POINT('',#460);
#460 = CARTESIAN_POINT('',(247.35002138749,122.70609374689,
    14.280336697693));
#461 = SURFACE_CURVE('',#462,(#466,#473),.PCURVE_S1.);
#462 = LINE('',#463,#464);
#463 = CARTESIAN_POINT('',(247.35002138749,122.70609374689,
    14.280336697693));
#464 = VECTOR('',#465,1.);
#465 = DIRECTION('',(1.,-8.334773048466E-11,1.00333824863E-07));
#466 = PCURVE('',#98,#467);
#467 = DEFINITIONAL_REPRESENTATION('',(#468),#472);
#468 = LINE('',#469,#470);
#469 = CARTESIAN_POINT('',(-0.,0.));
#470 = VECTOR('',#471,1.);
#471 = DIRECTION('',(4.533983732556E-23,-1.));
#472 = ( GEOMETRIC_REPRESENTATION_CONTEXT(2) 
PARAMETRIC_REPRESENTATION_CONTEXT() REPRESENTATION_CONTEXT('2D SPACE',''
  ) );
#473 = PCURVE('',#71,#474);
#474 = DEFINITIONAL_REPRESENTATION('',(#475),#479);
#475 = LINE('',#476,#477);
#476 = CARTESIAN_POINT('',(-42.10943469068,0.175991125736));
#477 = VECTOR('',#478,1.);
#478 = DIRECTION('',(-1.,-1.003338594816E-07));
#479 = ( GEOMETRIC_REPRESENTATION_CONTEXT(2) 
PARAMETRIC_REPRESENTATION_CONTEXT() REPRESENTATION_CONTEXT('2D SPACE',''
  ) );
#480 = ORIENTED_EDGE('',*,*,#82,.T.);
#481 = ORIENTED_EDGE('',*,*,#432,.F.);
#482 = ORIENTED_EDGE('',*,*,#483,.F.);
#483 = EDGE_CURVE('',#459,#410,#484,.T.);
#484 = SURFACE_CURVE('',#485,(#489,#496),.PCURVE_S1.);
#485 = LINE('',#486,#487);
#486 = CARTESIAN_POINT('',(247.35002138749,122.70609374689,
    14.280336697693));
#487 = VECTOR('',#488,1.);
#488 = DIRECTION('',(-2.767209359096E-14,-0.999999655195,
    -8.304281209855E-04));
#489 = PCURVE('',#98,#490);
#490 = DEFINITIONAL_REPRESENTATION('',(#491),#495);
#491 = LINE('',#492,#493);
#492 = CARTESIAN_POINT('',(-0.,0.));
#493 = VECTOR('',#494,1.);
#494 = DIRECTION('',(1.,0.));
#495 = ( GEOMETRIC_REPRESENTATION_CONTEXT(2) 
PARAMETRIC_REPRESENTATION_CONTEXT() REPRESENTATION_CONTEXT('2D SPACE',''
  ) );
#496 = PCURVE('',#300,#497);
#497 = DEFINITIONAL_REPRESENTATION('',(#498),#502);
#498 = LINE('',#499,#500);
#499 = CARTESIAN_POINT('',(-18.32541710979,-0.137854024794));
#500 = VECTOR('',#501,1.);
#501 = DIRECTION('',(0.999999655195,8.304281209855E-04));
#502 = ( GEOMETRIC_REPRESENTATION_CONTEXT(2) 
PARAMETRIC_REPRESENTATION_CONTEXT() REPRESENTATION_CONTEXT('2D SPACE',''
  ) );
#503 = ADVANCED_FACE('',(#504),#71,.F.);
#504 = FACE_BOUND('',#505,.F.);
#505 = EDGE_LOOP('',(#506,#507,#508,#529,#552,#573));
#506 = ORIENTED_EDGE('',*,*,#56,.F.);
#507 = ORIENTED_EDGE('',*,*,#458,.F.);
#508 = ORIENTED_EDGE('',*,*,#509,.T.);
#509 = EDGE_CURVE('',#459,#510,#512,.T.);
#510 = VERTEX_POINT('',#511);
#511 = CARTESIAN_POINT('',(247.35002128198,122.70616996373,
    14.188500177034));
#512 = SURFACE_CURVE('',#513,(#517,#523),.PCURVE_S1.);
#513 = LINE('',#514,#515);
#514 = CARTESIAN_POINT('',(247.3500213848,122.70607153187,
    14.307017265335));
#515 = VECTOR('',#516,1.);
#516 = DIRECTION('',(1.003338594816E-07,8.305284513488E-04,
    -0.999999655111));
#517 = PCURVE('',#71,#518);
#518 = DEFINITIONAL_REPRESENTATION('',(#519),#522);
#519 = B_SPLINE_CURVE_WITH_KNOTS('',1,(#520,#521),.UNSPECIFIED.,.F.,.F.,
  (2,2),(-6.498738937512,5.213183195849),.PIECEWISE_BEZIER_KNOTS.);
#520 = CARTESIAN_POINT('',(-42.10943403595,-6.349428388667));
#521 = CARTESIAN_POINT('',(-42.10943521105,5.362493744694));
#522 = ( GEOMETRIC_REPRESENTATION_CONTEXT(2) 
PARAMETRIC_REPRESENTATION_CONTEXT() REPRESENTATION_CONTEXT('2D SPACE',''
  ) );
#523 = PCURVE('',#300,#524);
#524 = DEFINITIONAL_REPRESENTATION('',(#525),#528);
#525 = B_SPLINE_CURVE_WITH_KNOTS('',1,(#526,#527),.UNSPECIFIED.,.F.,.F.,
  (2,2),(-6.498738937512,5.213183195849),.PIECEWISE_BEZIER_KNOTS.);
#526 = CARTESIAN_POINT('',(-18.31999750719,-6.663271288606));
#527 = CARTESIAN_POINT('',(-18.32972459174,5.048646805444));
#528 = ( GEOMETRIC_REPRESENTATION_CONTEXT(2) 
PARAMETRIC_REPRESENTATION_CONTEXT() REPRESENTATION_CONTEXT('2D SPACE',''
  ) );
#529 = ORIENTED_EDGE('',*,*,#530,.T.);
#530 = EDGE_CURVE('',#510,#531,#533,.T.);
#531 = VERTEX_POINT('',#532);
#532 = CARTESIAN_POINT('',(252.35002128198,122.70616996352,
    14.188500427859));
#533 = SURFACE_CURVE('',#534,(#538,#545),.PCURVE_S1.);
#534 = LINE('',#535,#536);
#535 = CARTESIAN_POINT('',(247.35002128198,122.70616996373,
    14.188500177034));
#536 = VECTOR('',#537,1.);
#537 = DIRECTION('',(1.,-4.165312804282E-11,5.016518945147E-08));
#538 = PCURVE('',#71,#539);
#539 = DEFINITIONAL_REPRESENTATION('',(#540),#544);
#540 = LINE('',#541,#542);
#541 = CARTESIAN_POINT('',(-42.10943458517,0.267827678022));
#542 = VECTOR('',#543,1.);
#543 = DIRECTION('',(-1.,-5.016520674417E-08));
#544 = ( GEOMETRIC_REPRESENTATION_CONTEXT(2) 
PARAMETRIC_REPRESENTATION_CONTEXT() REPRESENTATION_CONTEXT('2D SPACE',''
  ) );
#545 = PCURVE('',#327,#546);
#546 = DEFINITIONAL_REPRESENTATION('',(#547),#551);
#547 = LINE('',#548,#549);
#548 = CARTESIAN_POINT('',(0.,0.));
#549 = VECTOR('',#550,1.);
#550 = DIRECTION('',(1.,-3.231174267785E-26));
#551 = ( GEOMETRIC_REPRESENTATION_CONTEXT(2) 
PARAMETRIC_REPRESENTATION_CONTEXT() REPRESENTATION_CONTEXT('2D SPACE',''
  ) );
#552 = ORIENTED_EDGE('',*,*,#553,.T.);
#553 = EDGE_CURVE('',#531,#214,#554,.T.);
#554 = SURFACE_CURVE('',#555,(#559,#566),.PCURVE_S1.);
#555 = LINE('',#556,#557);
#556 = CARTESIAN_POINT('',(252.35002128198,122.70616996352,
    14.188500427859));
#557 = VECTOR('',#558,1.);
#558 = DIRECTION('',(3.081487911021E-33,8.305284513488E-04,
    -0.999999655111));
#559 = PCURVE('',#71,#560);
#560 = DEFINITIONAL_REPRESENTATION('',(#561),#565);
#561 = LINE('',#562,#563);
#562 = CARTESIAN_POINT('',(-47.10943458517,0.267827427197));
#563 = VECTOR('',#564,1.);
#564 = DIRECTION('',(-5.028988270784E-30,1.));
#565 = ( GEOMETRIC_REPRESENTATION_CONTEXT(2) 
PARAMETRIC_REPRESENTATION_CONTEXT() REPRESENTATION_CONTEXT('2D SPACE',''
  ) );
#566 = PCURVE('',#247,#567);
#567 = DEFINITIONAL_REPRESENTATION('',(#568),#572);
#568 = LINE('',#569,#570);
#569 = CARTESIAN_POINT('',(0.,0.));
#570 = VECTOR('',#571,1.);
#571 = DIRECTION('',(1.,0.));
#572 = ( GEOMETRIC_REPRESENTATION_CONTEXT(2) 
PARAMETRIC_REPRESENTATION_CONTEXT() REPRESENTATION_CONTEXT('2D SPACE',''
  ) );
#573 = ORIENTED_EDGE('',*,*,#213,.T.);
#574 = ADVANCED_FACE('',(#575),#247,.F.);
#575 = FACE_BOUND('',#576,.F.);
#576 = EDGE_LOOP('',(#577,#578,#599,#600));
#577 = ORIENTED_EDGE('',*,*,#553,.F.);
#578 = ORIENTED_EDGE('',*,*,#579,.T.);
#579 = EDGE_CURVE('',#531,#312,#580,.T.);
#580 = SURFACE_CURVE('',#581,(#585,#592),.PCURVE_S1.);
#581 = LINE('',#582,#583);
#582 = CARTESIAN_POINT('',(252.35002128198,122.70616996352,
    14.188500427859));
#583 = VECTOR('',#584,1.);
#584 = DIRECTION('',(1.050342962155E-14,-0.999999655111,
    -8.305284513488E-04));
#585 = PCURVE('',#247,#586);
#586 = DEFINITIONAL_REPRESENTATION('',(#587),#591);
#587 = LINE('',#588,#589);
#588 = CARTESIAN_POINT('',(0.,0.));
#589 = VECTOR('',#590,1.);
#590 = DIRECTION('',(0.,-1.));
#591 = ( GEOMETRIC_REPRESENTATION_CONTEXT(2) 
PARAMETRIC_REPRESENTATION_CONTEXT() REPRESENTATION_CONTEXT('2D SPACE',''
  ) );
#592 = PCURVE('',#327,#593);
#593 = DEFINITIONAL_REPRESENTATION('',(#594),#598);
#594 = LINE('',#595,#596);
#595 = CARTESIAN_POINT('',(5.,-1.742370646272E-12));
#596 = VECTOR('',#597,1.);
#597 = DIRECTION('',(-2.656025248119E-24,-1.));
#598 = ( GEOMETRIC_REPRESENTATION_CONTEXT(2) 
PARAMETRIC_REPRESENTATION_CONTEXT() REPRESENTATION_CONTEXT('2D SPACE',''
  ) );
#599 = ORIENTED_EDGE('',*,*,#339,.T.);
#600 = ORIENTED_EDGE('',*,*,#234,.T.);
#601 = ADVANCED_FACE('',(#602),#327,.F.);
#602 = FACE_BOUND('',#603,.F.);
#603 = EDGE_LOOP('',(#604,#625,#626,#627));
#604 = ORIENTED_EDGE('',*,*,#605,.T.);
#605 = EDGE_CURVE('',#510,#286,#606,.T.);
#606 = SURFACE_CURVE('',#607,(#611,#618),.PCURVE_S1.);
#607 = LINE('',#608,#609);
#608 = CARTESIAN_POINT('',(247.35002128198,122.70616996373,
    14.188500177034));
#609 = VECTOR('',#610,1.);
#610 = DIRECTION('',(1.050342962155E-14,-0.999999655111,
    -8.305284513488E-04));
#611 = PCURVE('',#327,#612);
#612 = DEFINITIONAL_REPRESENTATION('',(#613),#617);
#613 = LINE('',#614,#615);
#614 = CARTESIAN_POINT('',(0.,0.));
#615 = VECTOR('',#616,1.);
#616 = DIRECTION('',(-2.656025248119E-24,-1.));
#617 = ( GEOMETRIC_REPRESENTATION_CONTEXT(2) 
PARAMETRIC_REPRESENTATION_CONTEXT() REPRESENTATION_CONTEXT('2D SPACE',''
  ) );
#618 = PCURVE('',#300,#619);
#619 = DEFINITIONAL_REPRESENTATION('',(#620),#624);
#620 = LINE('',#621,#622);
#621 = CARTESIAN_POINT('',(-18.32549332663,-4.601750413501E-02));
#622 = VECTOR('',#623,1.);
#623 = DIRECTION('',(0.999999655111,8.305284513488E-04));
#624 = ( GEOMETRIC_REPRESENTATION_CONTEXT(2) 
PARAMETRIC_REPRESENTATION_CONTEXT() REPRESENTATION_CONTEXT('2D SPACE',''
  ) );
#625 = ORIENTED_EDGE('',*,*,#311,.T.);
#626 = ORIENTED_EDGE('',*,*,#579,.F.);
#627 = ORIENTED_EDGE('',*,*,#530,.F.);
#628 = ADVANCED_FACE('',(#629),#300,.F.);
#629 = FACE_BOUND('',#630,.F.);
#630 = EDGE_LOOP('',(#631,#632,#633,#634,#635,#636));
#631 = ORIENTED_EDGE('',*,*,#509,.F.);
#632 = ORIENTED_EDGE('',*,*,#483,.T.);
#633 = ORIENTED_EDGE('',*,*,#409,.T.);
#634 = ORIENTED_EDGE('',*,*,#366,.F.);
#635 = ORIENTED_EDGE('',*,*,#285,.T.);
#636 = ORIENTED_EDGE('',*,*,#605,.F.);
#637 = ( GEOMETRIC_REPRESENTATION_CONTEXT(3) 
GLOBAL_UNCERTAINTY_ASSIGNED_CONTEXT((#641)) GLOBAL_UNIT_ASSIGNED_CONTEXT
((#638,#639,#640)) REPRESENTATION_CONTEXT('Context #1',
  '3D Context with UNIT and UNCERTAINTY') );
#638 = ( LENGTH_UNIT() NAMED_UNIT(*) SI_UNIT(.MILLI.,.METRE.) );
#639 = ( NAMED_UNIT(*) PLANE_ANGLE_UNIT() SI_UNIT($,.RADIAN.) );
#640 = ( NAMED_UNIT(*) SI_UNIT($,.STERADIAN.) SOLID_ANGLE_UNIT() );
#641 = UNCERTAINTY_MEASURE_WITH_UNIT(LENGTH_MEASURE(2.E-07),#638,
  'distance_accuracy_value','confusion accuracy');
#642 = PRODUCT_RELATED_PRODUCT_CATEGORY('part',$,(#7));
ENDSEC;
END-ISO-10303-21;
