ISO-10303-21;
HEADER;
FILE_DESCRIPTION(('Open CASCADE Model'),'2;1');
FILE_NAME('Open CASCADE Shape Model','2026-09-24T01:31:30',('Author'),(
    'Open CASCADE'),'Open CASCADE STEP processor 7.9','Open CASCADE 7.9'
  ,'Unknown');
FILE_SCHEMA(('AUTOMOTIVE_DESIGN { 1 0 10303 214 1 1 1 1 }'));
ENDSEC;
DATA;
#1 = APPLICATION_PROTOCOL_DEFINITION('international standard',
  'automotive_design',2000,#2);
#2 = APPLICATION_CONTEXT(
  'core data for automotive mechanical design processes');
#3 = SHAPE_DEFINITION_REPRESENTATION(#4,#10);
#4 = PRODUCT_DEFINITION_SHAPE('','',#5);
#5 = PRODUCT_DEFINITION('design','',#6,#9);
#6 = PRODUCT_DEFINITION_FORMATION('','',#7);
#7 = PRODUCT('Open CASCADE STEP translator 7.9 10',
  'Open CASCADE STEP translator 7.9 10','',(#8));
#8 = PRODUCT_CONTEXT('',#2,'mechanical');
#9 = PRODUCT_DEFINITION_CONTEXT('part definition',#2,'design');
#10 = SHAPE_REPRESENTATION('',(#11,#15,#19),#23);
#11 = AXIS2_PLACEMENT_3D('',#12,#13,#14);
#12 = CARTESIAN_POINT('',(0.,0.,0.));
#13 = DIRECTION('',(0.,0.,1.));
#14 = DIRECTION('',(1.,0.,-0.));
#15 = AXIS2_PLACEMENT_3D('',#16,#17,#18);
#16 = CARTESIAN_POINT('',(0.,0.,0.));
#17 = DIRECTION('',(0.,0.,1.));
#18 = DIRECTION('',(1.,0.,-0.));
#19 = AXIS2_PLACEMENT_3D('',#20,#21,#22);
#20 = CARTESIAN_POINT('',(0.,0.,0.));
#21 = DIRECTION('',(0.,0.,1.));
#22 = DIRECTION('',(1.,0.,-0.));
#23 = ( GEOMETRIC_REPRESENTATION_CONTEXT(3) 
GLOBAL_UNCERTAINTY_ASSIGNED_CONTEXT((#27)) GLOBAL_UNIT_ASSIGNED_CONTEXT(
(#24,#25,#26)) REPRESENTATION_CONTEXT('Context #1',
  '3D Context with UNIT and UNCERTAINTY') );
#24 = ( LENGTH_UNIT() NAMED_UNIT(*) SI_UNIT(.MILLI.,.METRE.) );
#25 = ( NAMED_UNIT(*) PLANE_ANGLE_UNIT() SI_UNIT($,.RADIAN.) );
#26 = ( NAMED_UNIT(*) SI_UNIT($,.STERADIAN.) SOLID_ANGLE_UNIT() );
#27 = UNCERTAINTY_MEASURE_WITH_UNIT(LENGTH_MEASURE(1.E-07),#24,
  'distance_accuracy_value','confusion accuracy');
#28 = PRODUCT_RELATED_PRODUCT_CATEGORY('part',$,(#7));
#29 = SHAPE_DEFINITION_REPRESENTATION(#30,#36);
#30 = PRODUCT_DEFINITION_SHAPE('','',#31);
#31 = PRODUCT_DEFINITION('design','',#32,#35);
#32 = PRODUCT_DEFINITION_FORMATION('','',#33);
#33 = PRODUCT('Open CASCADE STEP translator 7.9 10.1',
  'Open CASCADE STEP translator 7.9 10.1','',(#34));
#34 = PRODUCT_CONTEXT('',#2,'mechanical');
#35 = PRODUCT_DEFINITION_CONTEXT('part definition',#2,'design');
#36 = ADVANCED_BREP_SHAPE_REPRESENTATION('',(#11,#37),#815);
#37 = MANIFOLD_SOLID_BREP('',#38);
#38 = CLOSED_SHELL('',(#39,#263,#337,#386,#435,#482,#585,#634,#727,#752,
    #781,#808));
#39 = ADVANCED_FACE('',(#40),#54,.F.);
#40 = FACE_BOUND('',#41,.F.);
#41 = EDGE_LOOP('',(#42,#77,#103,#129,#155,#181,#209,#237));
#42 = ORIENTED_EDGE('',*,*,#43,.T.);
#43 = EDGE_CURVE('',#44,#46,#48,.T.);
#44 = VERTEX_POINT('',#45);
#45 = CARTESIAN_POINT('',(-37.8241716251,390.64999750214,-5.003968731304
    ));
#46 = VERTEX_POINT('',#47);
#47 = CARTESIAN_POINT('',(-47.822208853,390.64999751265,-5.026584793092)
  );
#48 = SURFACE_CURVE('',#49,(#53,#65),.PCURVE_S1.);
#49 = LINE('',#50,#51);
#50 = CARTESIAN_POINT('',(-37.8241716251,390.64999750214,-5.003968731304
    ));
#51 = VECTOR('',#52,1.);
#52 = DIRECTION('',(-0.999997441574,1.051402878204E-09,
    -2.262044380454E-03));
#53 = PCURVE('',#54,#59);
#54 = PLANE('',#55);
#55 = AXIS2_PLACEMENT_3D('',#56,#57,#58);
#56 = CARTESIAN_POINT('',(3.891133499899E-03,390.64999746212,
    -1.922905958482));
#57 = DIRECTION('',(-1.05121369276E-09,-1.,-8.482366566955E-11));
#58 = DIRECTION('',(1.,-1.05121369276E-09,-8.916779882193E-20));
#59 = DEFINITIONAL_REPRESENTATION('',(#60),#64);
#60 = LINE('',#61,#62);
#61 = CARTESIAN_POINT('',(-37.8280627586,-3.081062772822));
#62 = VECTOR('',#63,1.);
#63 = DIRECTION('',(-0.999997441574,-2.262044380454E-03));
#64 = ( GEOMETRIC_REPRESENTATION_CONTEXT(2) 
PARAMETRIC_REPRESENTATION_CONTEXT() REPRESENTATION_CONTEXT('2D SPACE',''
  ) );
#65 = PCURVE('',#66,#71);
#66 = PLANE('',#67);
#67 = AXIS2_PLACEMENT_3D('',#68,#69,#70);
#68 = CARTESIAN_POINT('',(-37.82417163141,384.64999750214,
    -5.003968731812));
#69 = DIRECTION('',(-2.262044380454E-03,-8.244555662817E-11,
    0.999997441574));
#70 = DIRECTION('',(-0.999997441574,1.051402878204E-09,
    -2.262044380454E-03));
#71 = DEFINITIONAL_REPRESENTATION('',(#72),#76);
#72 = LINE('',#73,#74);
#73 = CARTESIAN_POINT('',(-2.72103768305E-12,-6.));
#74 = VECTOR('',#75,1.);
#75 = DIRECTION('',(1.,5.296096573292E-25));
#76 = ( GEOMETRIC_REPRESENTATION_CONTEXT(2) 
PARAMETRIC_REPRESENTATION_CONTEXT() REPRESENTATION_CONTEXT('2D SPACE',''
  ) );
#77 = ORIENTED_EDGE('',*,*,#78,.T.);
#78 = EDGE_CURVE('',#46,#79,#81,.T.);
#79 = VERTEX_POINT('',#80);
#80 = CARTESIAN_POINT('',(-47.822208853,390.64999751274,-6.000000100005)
  );
#81 = SURFACE_CURVE('',#82,(#86,#92),.PCURVE_S1.);
#82 = LINE('',#83,#84);
#83 = CARTESIAN_POINT('',(-47.822208853,390.64999751231,-0.961453029389)
  );
#84 = VECTOR('',#85,1.);
#85 = DIRECTION('',(-1.347186251444E-14,8.482366566956E-11,-1.));
#86 = PCURVE('',#54,#87);
#87 = DEFINITIONAL_REPRESENTATION('',(#88),#91);
#88 = B_SPLINE_CURVE_WITH_KNOTS('',1,(#89,#90),.UNSPECIFIED.,.F.,.F.,(2,
    2),(-0.961452929384,5.038547070616),.PIECEWISE_BEZIER_KNOTS.);
#89 = CARTESIAN_POINT('',(-47.8260999865,1.922905858477));
#90 = CARTESIAN_POINT('',(-47.8260999865,-4.077094141523));
#91 = ( GEOMETRIC_REPRESENTATION_CONTEXT(2) 
PARAMETRIC_REPRESENTATION_CONTEXT() REPRESENTATION_CONTEXT('2D SPACE',''
  ) );
#92 = PCURVE('',#93,#98);
#93 = PLANE('',#94);
#94 = AXIS2_PLACEMENT_3D('',#95,#96,#97);
#95 = CARTESIAN_POINT('',(-47.822208853,394.09237394986,
    -1.000048380588E-07));
#96 = DIRECTION('',(-1.,-8.459184696623E-18,1.347186251444E-14));
#97 = DIRECTION('',(8.459184696623E-18,-1.,-3.512815038853E-17));
#98 = DEFINITIONAL_REPRESENTATION('',(#99),#102);
#99 = B_SPLINE_CURVE_WITH_KNOTS('',1,(#100,#101),.UNSPECIFIED.,.F.,.F.,(
    2,2),(-0.961452929384,5.038547070616),.PIECEWISE_BEZIER_KNOTS.);
#100 = CARTESIAN_POINT('',(3.442376437628,0.));
#101 = CARTESIAN_POINT('',(3.442376437119,-6.));
#102 = ( GEOMETRIC_REPRESENTATION_CONTEXT(2) 
PARAMETRIC_REPRESENTATION_CONTEXT() REPRESENTATION_CONTEXT('2D SPACE',''
  ) );
#103 = ORIENTED_EDGE('',*,*,#104,.F.);
#104 = EDGE_CURVE('',#105,#79,#107,.T.);
#105 = VERTEX_POINT('',#106);
#106 = CARTESIAN_POINT('',(-32.83215877738,390.64999749698,
    -6.000000100005));
#107 = SURFACE_CURVE('',#108,(#112,#118),.PCURVE_S1.);
#108 = LINE('',#109,#110);
#109 = CARTESIAN_POINT('',(1.964178431873E-03,390.64999746246,
    -6.000000100005));
#110 = VECTOR('',#111,1.);
#111 = DIRECTION('',(-1.,1.05121369276E-09,1.347186251448E-14));
#112 = PCURVE('',#54,#113);
#113 = DEFINITIONAL_REPRESENTATION('',(#114),#117);
#114 = B_SPLINE_CURVE_WITH_KNOTS('',1,(#115,#116),.UNSPECIFIED.,.F.,.F.,
  (2,2),(-47.82027590558,47.824173031432),.PIECEWISE_BEZIER_KNOTS.);
#115 = CARTESIAN_POINT('',(47.818348950515,-4.077094141524));
#116 = CARTESIAN_POINT('',(-47.8260999865,-4.077094141522));
#117 = ( GEOMETRIC_REPRESENTATION_CONTEXT(2) 
PARAMETRIC_REPRESENTATION_CONTEXT() REPRESENTATION_CONTEXT('2D SPACE',''
  ) );
#118 = PCURVE('',#119,#124);
#119 = PLANE('',#120);
#120 = AXIS2_PLACEMENT_3D('',#121,#122,#123);
#121 = CARTESIAN_POINT('',(3.718663423058E-05,355.709745,-6.000000100005
    ));
#122 = DIRECTION('',(1.347186251444E-14,-3.512815038853E-17,1.));
#123 = DIRECTION('',(1.,4.732416124208E-31,-1.347186251444E-14));
#124 = DEFINITIONAL_REPRESENTATION('',(#125),#128);
#125 = B_SPLINE_CURVE_WITH_KNOTS('',1,(#126,#127),.UNSPECIFIED.,.F.,.F.,
  (2,2),(-47.82027590558,47.824173031432),.PIECEWISE_BEZIER_KNOTS.);
#126 = CARTESIAN_POINT('',(47.822202897381,34.940252412198));
#127 = CARTESIAN_POINT('',(-47.82224603963,34.940252512741));
#128 = ( GEOMETRIC_REPRESENTATION_CONTEXT(2) 
PARAMETRIC_REPRESENTATION_CONTEXT() REPRESENTATION_CONTEXT('2D SPACE',''
  ) );
#129 = ORIENTED_EDGE('',*,*,#130,.T.);
#130 = EDGE_CURVE('',#105,#131,#133,.T.);
#131 = VERTEX_POINT('',#132);
#132 = CARTESIAN_POINT('',(-32.83215877696,390.64999749647,
    -1.000050401236E-07));
#133 = SURFACE_CURVE('',#134,(#138,#144),.PCURVE_S1.);
#134 = LINE('',#135,#136);
#135 = CARTESIAN_POINT('',(-32.83215877703,390.64999749655,
    -0.961453028014));
#136 = VECTOR('',#137,1.);
#137 = DIRECTION('',(7.054207378208E-11,-8.48236657437E-11,1.));
#138 = PCURVE('',#54,#139);
#139 = DEFINITIONAL_REPRESENTATION('',(#140),#143);
#140 = B_SPLINE_CURVE_WITH_KNOTS('',1,(#141,#142),.UNSPECIFIED.,.F.,.F.,
  (2,2),(-5.038547071991,0.961452928009),.PIECEWISE_BEZIER_KNOTS.);
#141 = CARTESIAN_POINT('',(-32.83604991088,-4.077094141523));
#142 = CARTESIAN_POINT('',(-32.83604991046,1.922905858477));
#143 = ( GEOMETRIC_REPRESENTATION_CONTEXT(2) 
PARAMETRIC_REPRESENTATION_CONTEXT() REPRESENTATION_CONTEXT('2D SPACE',''
  ) );
#144 = PCURVE('',#145,#150);
#145 = PLANE('',#146);
#146 = AXIS2_PLACEMENT_3D('',#147,#148,#149);
#147 = CARTESIAN_POINT('',(-32.00068454822,389.64999663263,
    -1.000050513602E-07));
#148 = DIRECTION('',(0.768924125507,0.639340041928,-1.033638126973E-14)
  );
#149 = DIRECTION('',(-0.639340041928,0.768924125507,8.640112027154E-15)
  );
#150 = DEFINITIONAL_REPRESENTATION('',(#151),#154);
#151 = B_SPLINE_CURVE_WITH_KNOTS('',1,(#152,#153),.UNSPECIFIED.,.F.,.F.,
  (2,2),(-5.038547071991,0.961452928009),.PIECEWISE_BEZIER_KNOTS.);
#152 = CARTESIAN_POINT('',(1.300519558667,-6.));
#153 = CARTESIAN_POINT('',(1.300519558006,0.));
#154 = ( GEOMETRIC_REPRESENTATION_CONTEXT(2) 
PARAMETRIC_REPRESENTATION_CONTEXT() REPRESENTATION_CONTEXT('2D SPACE',''
  ) );
#155 = ORIENTED_EDGE('',*,*,#156,.T.);
#156 = EDGE_CURVE('',#131,#157,#159,.T.);
#157 = VERTEX_POINT('',#158);
#158 = CARTESIAN_POINT('',(-47.78881999704,390.64999751219,
    -1.000048386324E-07));
#159 = SURFACE_CURVE('',#160,(#164,#170),.PCURVE_S1.);
#160 = LINE('',#161,#162);
#161 = CARTESIAN_POINT('',(1.964178431953E-03,390.64999746195,
    -1.00005482387E-07));
#162 = VECTOR('',#163,1.);
#163 = DIRECTION('',(-1.,1.05121369276E-09,1.347186251448E-14));
#164 = PCURVE('',#54,#165);
#165 = DEFINITIONAL_REPRESENTATION('',(#166),#169);
#166 = B_SPLINE_CURVE_WITH_KNOTS('',1,(#167,#168),.UNSPECIFIED.,.F.,.F.,
  (2,2),(-47.82027590558,47.824173031432),.PIECEWISE_BEZIER_KNOTS.);
#167 = CARTESIAN_POINT('',(47.818348950515,1.922905858476));
#168 = CARTESIAN_POINT('',(-47.8260999865,1.922905858477));
#169 = ( GEOMETRIC_REPRESENTATION_CONTEXT(2) 
PARAMETRIC_REPRESENTATION_CONTEXT() REPRESENTATION_CONTEXT('2D SPACE',''
  ) );
#170 = PCURVE('',#171,#176);
#171 = PLANE('',#172);
#172 = AXIS2_PLACEMENT_3D('',#173,#174,#175);
#173 = CARTESIAN_POINT('',(3.718663430874E-05,355.709745,
    -1.000054836618E-07));
#174 = DIRECTION('',(1.347186251444E-14,-3.512815038853E-17,1.));
#175 = DIRECTION('',(1.,4.732416124208E-31,-1.347186251444E-14));
#176 = DEFINITIONAL_REPRESENTATION('',(#177),#180);
#177 = B_SPLINE_CURVE_WITH_KNOTS('',1,(#178,#179),.UNSPECIFIED.,.F.,.F.,
  (2,2),(-47.82027590558,47.824173031432),.PIECEWISE_BEZIER_KNOTS.);
#178 = CARTESIAN_POINT('',(47.822202897381,34.94025241169));
#179 = CARTESIAN_POINT('',(-47.82224603963,34.940252512232));
#180 = ( GEOMETRIC_REPRESENTATION_CONTEXT(2) 
PARAMETRIC_REPRESENTATION_CONTEXT() REPRESENTATION_CONTEXT('2D SPACE',''
  ) );
#181 = ORIENTED_EDGE('',*,*,#182,.T.);
#182 = EDGE_CURVE('',#157,#183,#185,.T.);
#183 = VERTEX_POINT('',#184);
#184 = CARTESIAN_POINT('',(-47.79656931288,390.64999751221,
    -2.651397764002E-02));
#185 = SURFACE_CURVE('',#186,(#190,#197),.PCURVE_S1.);
#186 = LINE('',#187,#188);
#187 = CARTESIAN_POINT('',(-47.51647729487,390.64999751183,
    0.931806169966));
#188 = VECTOR('',#189,1.);
#189 = DIRECTION('',(-0.280537156679,3.763219162548E-10,-0.959843166211)
  );
#190 = PCURVE('',#54,#191);
#191 = DEFINITIONAL_REPRESENTATION('',(#192),#196);
#192 = LINE('',#193,#194);
#193 = CARTESIAN_POINT('',(-47.52036842837,2.854712128448));
#194 = VECTOR('',#195,1.);
#195 = DIRECTION('',(-0.280537156679,-0.959843166211));
#196 = ( GEOMETRIC_REPRESENTATION_CONTEXT(2) 
PARAMETRIC_REPRESENTATION_CONTEXT() REPRESENTATION_CONTEXT('2D SPACE',''
  ) );
#197 = PCURVE('',#198,#203);
#198 = PLANE('',#199);
#199 = AXIS2_PLACEMENT_3D('',#200,#201,#202);
#200 = CARTESIAN_POINT('',(-47.51647730118,384.64999751183,
    0.931806169457));
#201 = DIRECTION('',(-0.959843166211,9.852040892376E-10,0.280537156679)
  );
#202 = DIRECTION('',(-0.280537156679,3.763219162548E-10,-0.959843166211)
  );
#203 = DEFINITIONAL_REPRESENTATION('',(#204),#208);
#204 = LINE('',#205,#206);
#205 = CARTESIAN_POINT('',(-8.163558982512E-13,-6.));
#206 = VECTOR('',#207,1.);
#207 = DIRECTION('',(1.,0.));
#208 = ( GEOMETRIC_REPRESENTATION_CONTEXT(2) 
PARAMETRIC_REPRESENTATION_CONTEXT() REPRESENTATION_CONTEXT('2D SPACE',''
  ) );
#209 = ORIENTED_EDGE('',*,*,#210,.T.);
#210 = EDGE_CURVE('',#183,#211,#213,.T.);
#211 = VERTEX_POINT('',#212);
#212 = CARTESIAN_POINT('',(-37.83548184814,390.64999750173,
    -3.981498414106E-03));
#213 = SURFACE_CURVE('',#214,(#218,#225),.PCURVE_S1.);
#214 = LINE('',#215,#216);
#215 = CARTESIAN_POINT('',(-47.79656931288,390.64999751221,
    -2.651397764002E-02));
#216 = VECTOR('',#217,1.);
#217 = DIRECTION('',(0.999997441574,-1.051402878201E-09,
    2.262044345862E-03));
#218 = PCURVE('',#54,#219);
#219 = DEFINITIONAL_REPRESENTATION('',(#220),#224);
#220 = LINE('',#221,#222);
#221 = CARTESIAN_POINT('',(-47.80046044638,1.896391980842));
#222 = VECTOR('',#223,1.);
#223 = DIRECTION('',(0.999997441574,2.262044345862E-03));
#224 = ( GEOMETRIC_REPRESENTATION_CONTEXT(2) 
PARAMETRIC_REPRESENTATION_CONTEXT() REPRESENTATION_CONTEXT('2D SPACE',''
  ) );
#225 = PCURVE('',#226,#231);
#226 = PLANE('',#227);
#227 = AXIS2_PLACEMENT_3D('',#228,#229,#230);
#228 = CARTESIAN_POINT('',(-47.79656931919,384.64999751221,
    -2.651397814896E-02));
#229 = DIRECTION('',(2.262044345862E-03,8.244555666454E-11,
    -0.999997441574));
#230 = DIRECTION('',(0.999997441574,-1.051402878201E-09,
    2.262044345862E-03));
#231 = DEFINITIONAL_REPRESENTATION('',(#232),#236);
#232 = LINE('',#233,#234);
#233 = CARTESIAN_POINT('',(2.713931583638E-12,-6.));
#234 = VECTOR('',#235,1.);
#235 = DIRECTION('',(1.,-5.55029911139E-25));
#236 = ( GEOMETRIC_REPRESENTATION_CONTEXT(2) 
PARAMETRIC_REPRESENTATION_CONTEXT() REPRESENTATION_CONTEXT('2D SPACE',''
  ) );
#237 = ORIENTED_EDGE('',*,*,#238,.T.);
#238 = EDGE_CURVE('',#211,#44,#239,.T.);
#239 = SURFACE_CURVE('',#240,(#244,#251),.PCURVE_S1.);
#240 = LINE('',#241,#242);
#241 = CARTESIAN_POINT('',(-37.83548184814,390.64999750173,
    -3.981498414106E-03));
#242 = VECTOR('',#243,1.);
#243 = DIRECTION('',(2.262044596529E-03,8.244555640095E-11,
    -0.999997441574));
#244 = PCURVE('',#54,#245);
#245 = DEFINITIONAL_REPRESENTATION('',(#246),#250);
#246 = LINE('',#247,#248);
#247 = CARTESIAN_POINT('',(-37.83937298164,1.918924460068));
#248 = VECTOR('',#249,1.);
#249 = DIRECTION('',(2.262044596529E-03,-0.999997441574));
#250 = ( GEOMETRIC_REPRESENTATION_CONTEXT(2) 
PARAMETRIC_REPRESENTATION_CONTEXT() REPRESENTATION_CONTEXT('2D SPACE',''
  ) );
#251 = PCURVE('',#252,#257);
#252 = PLANE('',#253);
#253 = AXIS2_PLACEMENT_3D('',#254,#255,#256);
#254 = CARTESIAN_POINT('',(-37.83548185445,384.64999750173,
    -3.981498923046E-03));
#255 = DIRECTION('',(-0.999997441574,1.051402878222E-09,
    -2.262044596529E-03));
#256 = DIRECTION('',(2.262044596529E-03,8.244555640095E-11,
    -0.999997441574));
#257 = DEFINITIONAL_REPRESENTATION('',(#258),#262);
#258 = LINE('',#259,#260);
#259 = CARTESIAN_POINT('',(8.148487736423E-15,-6.));
#260 = VECTOR('',#261,1.);
#261 = DIRECTION('',(1.,-3.877409121342E-26));
#262 = ( GEOMETRIC_REPRESENTATION_CONTEXT(2) 
PARAMETRIC_REPRESENTATION_CONTEXT() REPRESENTATION_CONTEXT('2D SPACE',''
  ) );
#263 = ADVANCED_FACE('',(#264),#66,.T.);
#264 = FACE_BOUND('',#265,.T.);
#265 = EDGE_LOOP('',(#266,#296,#317,#318));
#266 = ORIENTED_EDGE('',*,*,#267,.F.);
#267 = EDGE_CURVE('',#268,#270,#272,.T.);
#268 = VERTEX_POINT('',#269);
#269 = CARTESIAN_POINT('',(-37.82417163141,384.64999750214,
    -5.003968731812));
#270 = VERTEX_POINT('',#271);
#271 = CARTESIAN_POINT('',(-47.822208853,384.64999751265,-5.026584793586
    ));
#272 = SURFACE_CURVE('',#273,(#277,#284),.PCURVE_S1.);
#273 = LINE('',#274,#275);
#274 = CARTESIAN_POINT('',(-37.82417163141,384.64999750214,
    -5.003968731812));
#275 = VECTOR('',#276,1.);
#276 = DIRECTION('',(-0.999997441574,1.051402878204E-09,
    -2.262044380454E-03));
#277 = PCURVE('',#66,#278);
#278 = DEFINITIONAL_REPRESENTATION('',(#279),#283);
#279 = LINE('',#280,#281);
#280 = CARTESIAN_POINT('',(0.,-0.));
#281 = VECTOR('',#282,1.);
#282 = DIRECTION('',(1.,5.296096573292E-25));
#283 = ( GEOMETRIC_REPRESENTATION_CONTEXT(2) 
PARAMETRIC_REPRESENTATION_CONTEXT() REPRESENTATION_CONTEXT('2D SPACE',''
  ) );
#284 = PCURVE('',#285,#290);
#285 = PLANE('',#286);
#286 = AXIS2_PLACEMENT_3D('',#287,#288,#289);
#287 = CARTESIAN_POINT('',(3.891127192617E-03,384.64999746212,
    -1.922905958991));
#288 = DIRECTION('',(-1.05121369276E-09,-1.,-8.482366566955E-11));
#289 = DIRECTION('',(1.,-1.05121369276E-09,-8.916779882193E-20));
#290 = DEFINITIONAL_REPRESENTATION('',(#291),#295);
#291 = LINE('',#292,#293);
#292 = CARTESIAN_POINT('',(-37.8280627586,-3.081062772821));
#293 = VECTOR('',#294,1.);
#294 = DIRECTION('',(-0.999997441574,-2.262044380454E-03));
#295 = ( GEOMETRIC_REPRESENTATION_CONTEXT(2) 
PARAMETRIC_REPRESENTATION_CONTEXT() REPRESENTATION_CONTEXT('2D SPACE',''
  ) );
#296 = ORIENTED_EDGE('',*,*,#297,.T.);
#297 = EDGE_CURVE('',#268,#44,#298,.T.);
#298 = SURFACE_CURVE('',#299,(#303,#310),.PCURVE_S1.);
#299 = LINE('',#300,#301);
#300 = CARTESIAN_POINT('',(-37.82417163141,384.64999750214,
    -5.003968731812));
#301 = VECTOR('',#302,1.);
#302 = DIRECTION('',(1.05121369276E-09,1.,8.482366566955E-11));
#303 = PCURVE('',#66,#304);
#304 = DEFINITIONAL_REPRESENTATION('',(#305),#309);
#305 = LINE('',#306,#307);
#306 = CARTESIAN_POINT('',(0.,-0.));
#307 = VECTOR('',#308,1.);
#308 = DIRECTION('',(1.862073728814E-22,-1.));
#309 = ( GEOMETRIC_REPRESENTATION_CONTEXT(2) 
PARAMETRIC_REPRESENTATION_CONTEXT() REPRESENTATION_CONTEXT('2D SPACE',''
  ) );
#310 = PCURVE('',#252,#311);
#311 = DEFINITIONAL_REPRESENTATION('',(#312),#316);
#312 = LINE('',#313,#314);
#313 = CARTESIAN_POINT('',(5.00000002502,2.216203824499E-12));
#314 = VECTOR('',#315,1.);
#315 = DIRECTION('',(-1.32995132862E-23,-1.));
#316 = ( GEOMETRIC_REPRESENTATION_CONTEXT(2) 
PARAMETRIC_REPRESENTATION_CONTEXT() REPRESENTATION_CONTEXT('2D SPACE',''
  ) );
#317 = ORIENTED_EDGE('',*,*,#43,.T.);
#318 = ORIENTED_EDGE('',*,*,#319,.T.);
#319 = EDGE_CURVE('',#46,#270,#320,.T.);
#320 = SURFACE_CURVE('',#321,(#325,#331),.PCURVE_S1.);
#321 = LINE('',#322,#323);
#322 = CARTESIAN_POINT('',(-47.822208853,389.3711857262,-5.026584793197)
  );
#323 = VECTOR('',#324,1.);
#324 = DIRECTION('',(8.459183585925E-18,-1.,-8.24457675404E-11));
#325 = PCURVE('',#66,#326);
#326 = DEFINITIONAL_REPRESENTATION('',(#327),#330);
#327 = B_SPLINE_CURVE_WITH_KNOTS('',1,(#328,#329),.UNSPECIFIED.,.F.,.F.,
  (2,2),(-1.27881178645,4.721188213556),.PIECEWISE_BEZIER_KNOTS.);
#328 = CARTESIAN_POINT('',(9.998062807198,-6.000000000006));
#329 = CARTESIAN_POINT('',(9.998062800891,0.));
#330 = ( GEOMETRIC_REPRESENTATION_CONTEXT(2) 
PARAMETRIC_REPRESENTATION_CONTEXT() REPRESENTATION_CONTEXT('2D SPACE',''
  ) );
#331 = PCURVE('',#93,#332);
#332 = DEFINITIONAL_REPRESENTATION('',(#333),#336);
#333 = B_SPLINE_CURVE_WITH_KNOTS('',1,(#334,#335),.UNSPECIFIED.,.F.,.F.,
  (2,2),(-1.27881178645,4.721188213556),.PIECEWISE_BEZIER_KNOTS.);
#334 = CARTESIAN_POINT('',(3.442376437202,-5.026584693087));
#335 = CARTESIAN_POINT('',(9.442376437208,-5.026584693581));
#336 = ( GEOMETRIC_REPRESENTATION_CONTEXT(2) 
PARAMETRIC_REPRESENTATION_CONTEXT() REPRESENTATION_CONTEXT('2D SPACE',''
  ) );
#337 = ADVANCED_FACE('',(#338),#252,.T.);
#338 = FACE_BOUND('',#339,.T.);
#339 = EDGE_LOOP('',(#340,#363,#364,#365));
#340 = ORIENTED_EDGE('',*,*,#341,.T.);
#341 = EDGE_CURVE('',#342,#211,#344,.T.);
#342 = VERTEX_POINT('',#343);
#343 = CARTESIAN_POINT('',(-37.83548185445,384.64999750173,
    -3.981498923046E-03));
#344 = SURFACE_CURVE('',#345,(#349,#356),.PCURVE_S1.);
#345 = LINE('',#346,#347);
#346 = CARTESIAN_POINT('',(-37.83548185445,384.64999750173,
    -3.981498923046E-03));
#347 = VECTOR('',#348,1.);
#348 = DIRECTION('',(1.05121369276E-09,1.,8.482366566955E-11));
#349 = PCURVE('',#252,#350);
#350 = DEFINITIONAL_REPRESENTATION('',(#351),#355);
#351 = LINE('',#352,#353);
#352 = CARTESIAN_POINT('',(0.,-0.));
#353 = VECTOR('',#354,1.);
#354 = DIRECTION('',(-1.32995132862E-23,-1.));
#355 = ( GEOMETRIC_REPRESENTATION_CONTEXT(2) 
PARAMETRIC_REPRESENTATION_CONTEXT() REPRESENTATION_CONTEXT('2D SPACE',''
  ) );
#356 = PCURVE('',#226,#357);
#357 = DEFINITIONAL_REPRESENTATION('',(#358),#362);
#358 = LINE('',#359,#360);
#359 = CARTESIAN_POINT('',(9.961112949506,6.850936491284E-12));
#360 = VECTOR('',#361,1.);
#361 = DIRECTION('',(-1.204207657635E-22,-1.));
#362 = ( GEOMETRIC_REPRESENTATION_CONTEXT(2) 
PARAMETRIC_REPRESENTATION_CONTEXT() REPRESENTATION_CONTEXT('2D SPACE',''
  ) );
#363 = ORIENTED_EDGE('',*,*,#238,.T.);
#364 = ORIENTED_EDGE('',*,*,#297,.F.);
#365 = ORIENTED_EDGE('',*,*,#366,.F.);
#366 = EDGE_CURVE('',#342,#268,#367,.T.);
#367 = SURFACE_CURVE('',#368,(#372,#379),.PCURVE_S1.);
#368 = LINE('',#369,#370);
#369 = CARTESIAN_POINT('',(-37.83548185445,384.64999750173,
    -3.981498923046E-03));
#370 = VECTOR('',#371,1.);
#371 = DIRECTION('',(2.262044596529E-03,8.244555640095E-11,
    -0.999997441574));
#372 = PCURVE('',#252,#373);
#373 = DEFINITIONAL_REPRESENTATION('',(#374),#378);
#374 = LINE('',#375,#376);
#375 = CARTESIAN_POINT('',(0.,-0.));
#376 = VECTOR('',#377,1.);
#377 = DIRECTION('',(1.,-3.877409121342E-26));
#378 = ( GEOMETRIC_REPRESENTATION_CONTEXT(2) 
PARAMETRIC_REPRESENTATION_CONTEXT() REPRESENTATION_CONTEXT('2D SPACE',''
  ) );
#379 = PCURVE('',#285,#380);
#380 = DEFINITIONAL_REPRESENTATION('',(#381),#385);
#381 = LINE('',#382,#383);
#382 = CARTESIAN_POINT('',(-37.83937298164,1.918924460068));
#383 = VECTOR('',#384,1.);
#384 = DIRECTION('',(2.262044596529E-03,-0.999997441574));
#385 = ( GEOMETRIC_REPRESENTATION_CONTEXT(2) 
PARAMETRIC_REPRESENTATION_CONTEXT() REPRESENTATION_CONTEXT('2D SPACE',''
  ) );
#386 = ADVANCED_FACE('',(#387),#226,.T.);
#387 = FACE_BOUND('',#388,.T.);
#388 = EDGE_LOOP('',(#389,#412,#413,#414));
#389 = ORIENTED_EDGE('',*,*,#390,.T.);
#390 = EDGE_CURVE('',#391,#183,#393,.T.);
#391 = VERTEX_POINT('',#392);
#392 = CARTESIAN_POINT('',(-47.79656931919,384.64999751221,
    -2.651397814896E-02));
#393 = SURFACE_CURVE('',#394,(#398,#405),.PCURVE_S1.);
#394 = LINE('',#395,#396);
#395 = CARTESIAN_POINT('',(-47.79656931919,384.64999751221,
    -2.651397814896E-02));
#396 = VECTOR('',#397,1.);
#397 = DIRECTION('',(1.05121369276E-09,1.,8.482366566955E-11));
#398 = PCURVE('',#226,#399);
#399 = DEFINITIONAL_REPRESENTATION('',(#400),#404);
#400 = LINE('',#401,#402);
#401 = CARTESIAN_POINT('',(0.,-0.));
#402 = VECTOR('',#403,1.);
#403 = DIRECTION('',(-1.204207657635E-22,-1.));
#404 = ( GEOMETRIC_REPRESENTATION_CONTEXT(2) 
PARAMETRIC_REPRESENTATION_CONTEXT() REPRESENTATION_CONTEXT('2D SPACE',''
  ) );
#405 = PCURVE('',#198,#406);
#406 = DEFINITIONAL_REPRESENTATION('',(#407),#411);
#407 = LINE('',#408,#409);
#408 = CARTESIAN_POINT('',(0.998413263063,-4.273462714368E-12));
#409 = VECTOR('',#410,1.);
#410 = DIRECTION('',(-1.064348803808E-22,-1.));
#411 = ( GEOMETRIC_REPRESENTATION_CONTEXT(2) 
PARAMETRIC_REPRESENTATION_CONTEXT() REPRESENTATION_CONTEXT('2D SPACE',''
  ) );
#412 = ORIENTED_EDGE('',*,*,#210,.T.);
#413 = ORIENTED_EDGE('',*,*,#341,.F.);
#414 = ORIENTED_EDGE('',*,*,#415,.F.);
#415 = EDGE_CURVE('',#391,#342,#416,.T.);
#416 = SURFACE_CURVE('',#417,(#421,#428),.PCURVE_S1.);
#417 = LINE('',#418,#419);
#418 = CARTESIAN_POINT('',(-47.79656931919,384.64999751221,
    -2.651397814896E-02));
#419 = VECTOR('',#420,1.);
#420 = DIRECTION('',(0.999997441574,-1.051402878201E-09,
    2.262044345862E-03));
#421 = PCURVE('',#226,#422);
#422 = DEFINITIONAL_REPRESENTATION('',(#423),#427);
#423 = LINE('',#424,#425);
#424 = CARTESIAN_POINT('',(0.,-0.));
#425 = VECTOR('',#426,1.);
#426 = DIRECTION('',(1.,-5.55029911139E-25));
#427 = ( GEOMETRIC_REPRESENTATION_CONTEXT(2) 
PARAMETRIC_REPRESENTATION_CONTEXT() REPRESENTATION_CONTEXT('2D SPACE',''
  ) );
#428 = PCURVE('',#285,#429);
#429 = DEFINITIONAL_REPRESENTATION('',(#430),#434);
#430 = LINE('',#431,#432);
#431 = CARTESIAN_POINT('',(-47.80046044638,1.896391980842));
#432 = VECTOR('',#433,1.);
#433 = DIRECTION('',(0.999997441574,2.262044345862E-03));
#434 = ( GEOMETRIC_REPRESENTATION_CONTEXT(2) 
PARAMETRIC_REPRESENTATION_CONTEXT() REPRESENTATION_CONTEXT('2D SPACE',''
  ) );
#435 = ADVANCED_FACE('',(#436),#198,.T.);
#436 = FACE_BOUND('',#437,.T.);
#437 = EDGE_LOOP('',(#438,#461,#480,#481));
#438 = ORIENTED_EDGE('',*,*,#439,.F.);
#439 = EDGE_CURVE('',#440,#391,#442,.T.);
#440 = VERTEX_POINT('',#441);
#441 = CARTESIAN_POINT('',(-47.78882000321,384.64999751219,
    -1.000048388544E-07));
#442 = SURFACE_CURVE('',#443,(#447,#454),.PCURVE_S1.);
#443 = LINE('',#444,#445);
#444 = CARTESIAN_POINT('',(-47.51647730118,384.64999751183,
    0.931806169457));
#445 = VECTOR('',#446,1.);
#446 = DIRECTION('',(-0.280537156679,3.763219162548E-10,-0.959843166211)
  );
#447 = PCURVE('',#198,#448);
#448 = DEFINITIONAL_REPRESENTATION('',(#449),#453);
#449 = LINE('',#450,#451);
#450 = CARTESIAN_POINT('',(0.,-0.));
#451 = VECTOR('',#452,1.);
#452 = DIRECTION('',(1.,0.));
#453 = ( GEOMETRIC_REPRESENTATION_CONTEXT(2) 
PARAMETRIC_REPRESENTATION_CONTEXT() REPRESENTATION_CONTEXT('2D SPACE',''
  ) );
#454 = PCURVE('',#285,#455);
#455 = DEFINITIONAL_REPRESENTATION('',(#456),#460);
#456 = LINE('',#457,#458);
#457 = CARTESIAN_POINT('',(-47.52036842837,2.854712128448));
#458 = VECTOR('',#459,1.);
#459 = DIRECTION('',(-0.280537156679,-0.959843166211));
#460 = ( GEOMETRIC_REPRESENTATION_CONTEXT(2) 
PARAMETRIC_REPRESENTATION_CONTEXT() REPRESENTATION_CONTEXT('2D SPACE',''
  ) );
#461 = ORIENTED_EDGE('',*,*,#462,.T.);
#462 = EDGE_CURVE('',#440,#157,#463,.T.);
#463 = SURFACE_CURVE('',#464,(#468,#474),.PCURVE_S1.);
#464 = LINE('',#465,#466);
#465 = CARTESIAN_POINT('',(-47.78882001806,370.17987128058,
    -1.000048393001E-07));
#466 = VECTOR('',#467,1.);
#467 = DIRECTION('',(1.026421954934E-09,1.,3.512813656071E-17));
#468 = PCURVE('',#198,#469);
#469 = DEFINITIONAL_REPRESENTATION('',(#470),#473);
#470 = B_SPLINE_CURVE_WITH_KNOTS('',1,(#471,#472),.UNSPECIFIED.,.F.,.F.,
  (2,2),(14.470126231615,20.470126231619),.PIECEWISE_BEZIER_KNOTS.);
#471 = CARTESIAN_POINT('',(0.970790127245,0.));
#472 = CARTESIAN_POINT('',(0.970790127776,-6.000000000004));
#473 = ( GEOMETRIC_REPRESENTATION_CONTEXT(2) 
PARAMETRIC_REPRESENTATION_CONTEXT() REPRESENTATION_CONTEXT('2D SPACE',''
  ) );
#474 = PCURVE('',#171,#475);
#475 = DEFINITIONAL_REPRESENTATION('',(#476),#479);
#476 = B_SPLINE_CURVE_WITH_KNOTS('',1,(#477,#478),.UNSPECIFIED.,.F.,.F.,
  (2,2),(14.470126231615,20.470126231619),.PIECEWISE_BEZIER_KNOTS.);
#477 = CARTESIAN_POINT('',(-47.78885718984,28.940252512195));
#478 = CARTESIAN_POINT('',(-47.78885718368,34.9402525122));
#479 = ( GEOMETRIC_REPRESENTATION_CONTEXT(2) 
PARAMETRIC_REPRESENTATION_CONTEXT() REPRESENTATION_CONTEXT('2D SPACE',''
  ) );
#480 = ORIENTED_EDGE('',*,*,#182,.T.);
#481 = ORIENTED_EDGE('',*,*,#390,.F.);
#482 = ADVANCED_FACE('',(#483),#171,.T.);
#483 = FACE_BOUND('',#484,.T.);
#484 = EDGE_LOOP('',(#485,#506,#534,#562,#583,#584));
#485 = ORIENTED_EDGE('',*,*,#486,.F.);
#486 = EDGE_CURVE('',#487,#440,#489,.T.);
#487 = VERTEX_POINT('',#488);
#488 = CARTESIAN_POINT('',(-37.822208853,384.64999750172,
    -1.000049731091E-07));
#489 = SURFACE_CURVE('',#490,(#494,#500),.PCURVE_S1.);
#490 = LINE('',#491,#492);
#491 = CARTESIAN_POINT('',(1.964172124671E-03,384.64999746195,
    -1.000054826035E-07));
#492 = VECTOR('',#493,1.);
#493 = DIRECTION('',(-1.,1.05121369276E-09,1.347186251448E-14));
#494 = PCURVE('',#171,#495);
#495 = DEFINITIONAL_REPRESENTATION('',(#496),#499);
#496 = B_SPLINE_CURVE_WITH_KNOTS('',1,(#497,#498),.UNSPECIFIED.,.F.,.F.,
  (2,2),(-47.82027591189,47.824173025125),.PIECEWISE_BEZIER_KNOTS.);
#497 = CARTESIAN_POINT('',(47.822202897381,28.94025241169));
#498 = CARTESIAN_POINT('',(-47.82224603963,28.940252512232));
#499 = ( GEOMETRIC_REPRESENTATION_CONTEXT(2) 
PARAMETRIC_REPRESENTATION_CONTEXT() REPRESENTATION_CONTEXT('2D SPACE',''
  ) );
#500 = PCURVE('',#285,#501);
#501 = DEFINITIONAL_REPRESENTATION('',(#502),#505);
#502 = B_SPLINE_CURVE_WITH_KNOTS('',1,(#503,#504),.UNSPECIFIED.,.F.,.F.,
  (2,2),(-47.82027591189,47.824173025125),.PIECEWISE_BEZIER_KNOTS.);
#503 = CARTESIAN_POINT('',(47.818348956823,1.922905858985));
#504 = CARTESIAN_POINT('',(-47.82609998019,1.922905858986));
#505 = ( GEOMETRIC_REPRESENTATION_CONTEXT(2) 
PARAMETRIC_REPRESENTATION_CONTEXT() REPRESENTATION_CONTEXT('2D SPACE',''
  ) );
#506 = ORIENTED_EDGE('',*,*,#507,.T.);
#507 = EDGE_CURVE('',#487,#508,#510,.T.);
#508 = VERTEX_POINT('',#509);
#509 = CARTESIAN_POINT('',(-37.822208853,389.64999663263,
    -1.000049729334E-07));
#510 = SURFACE_CURVE('',#511,(#515,#522),.PCURVE_S1.);
#511 = LINE('',#512,#513);
#512 = CARTESIAN_POINT('',(-37.822208853,245.65,-1.000049779919E-07));
#513 = VECTOR('',#514,1.);
#514 = DIRECTION('',(1.961394056037E-15,1.,3.51281503885E-17));
#515 = PCURVE('',#171,#516);
#516 = DEFINITIONAL_REPRESENTATION('',(#517),#521);
#517 = LINE('',#518,#519);
#518 = CARTESIAN_POINT('',(-37.82224603963,-110.059745));
#519 = VECTOR('',#520,1.);
#520 = DIRECTION('',(1.961394056037E-15,1.));
#521 = ( GEOMETRIC_REPRESENTATION_CONTEXT(2) 
PARAMETRIC_REPRESENTATION_CONTEXT() REPRESENTATION_CONTEXT('2D SPACE',''
  ) );
#522 = PCURVE('',#523,#528);
#523 = PLANE('',#524);
#524 = AXIS2_PLACEMENT_3D('',#525,#526,#527);
#525 = CARTESIAN_POINT('',(-37.822208853,245.65,-1.000049779919E-07));
#526 = DIRECTION('',(1.,-1.961394056037E-15,-1.347186251444E-14));
#527 = DIRECTION('',(1.961394056037E-15,1.,3.51281503885E-17));
#528 = DEFINITIONAL_REPRESENTATION('',(#529),#533);
#529 = LINE('',#530,#531);
#530 = CARTESIAN_POINT('',(0.,0.));
#531 = VECTOR('',#532,1.);
#532 = DIRECTION('',(1.,0.));
#533 = ( GEOMETRIC_REPRESENTATION_CONTEXT(2) 
PARAMETRIC_REPRESENTATION_CONTEXT() REPRESENTATION_CONTEXT('2D SPACE',''
  ) );
#534 = ORIENTED_EDGE('',*,*,#535,.T.);
#535 = EDGE_CURVE('',#508,#536,#538,.T.);
#536 = VERTEX_POINT('',#537);
#537 = CARTESIAN_POINT('',(-32.00068454822,389.64999663263,
    -1.000050513602E-07));
#538 = SURFACE_CURVE('',#539,(#543,#550),.PCURVE_S1.);
#539 = LINE('',#540,#541);
#540 = CARTESIAN_POINT('',(-37.822208853,389.64999663263,
    -1.000049729334E-07));
#541 = VECTOR('',#542,1.);
#542 = DIRECTION('',(1.,4.732416124208E-31,-1.347186251444E-14));
#543 = PCURVE('',#171,#544);
#544 = DEFINITIONAL_REPRESENTATION('',(#545),#549);
#545 = LINE('',#546,#547);
#546 = CARTESIAN_POINT('',(-37.82224603963,33.94025163263));
#547 = VECTOR('',#548,1.);
#548 = DIRECTION('',(1.,0.));
#549 = ( GEOMETRIC_REPRESENTATION_CONTEXT(2) 
PARAMETRIC_REPRESENTATION_CONTEXT() REPRESENTATION_CONTEXT('2D SPACE',''
  ) );
#550 = PCURVE('',#551,#556);
#551 = PLANE('',#552);
#552 = AXIS2_PLACEMENT_3D('',#553,#554,#555);
#553 = CARTESIAN_POINT('',(-37.822208853,389.64999663263,
    -1.000049729334E-07));
#554 = DIRECTION('',(0.,-1.,-3.512815038853E-17));
#555 = DIRECTION('',(1.,4.732416124208E-31,-1.347186251444E-14));
#556 = DEFINITIONAL_REPRESENTATION('',(#557),#561);
#557 = LINE('',#558,#559);
#558 = CARTESIAN_POINT('',(0.,0.));
#559 = VECTOR('',#560,1.);
#560 = DIRECTION('',(1.,0.));
#561 = ( GEOMETRIC_REPRESENTATION_CONTEXT(2) 
PARAMETRIC_REPRESENTATION_CONTEXT() REPRESENTATION_CONTEXT('2D SPACE',''
  ) );
#562 = ORIENTED_EDGE('',*,*,#563,.T.);
#563 = EDGE_CURVE('',#536,#131,#564,.T.);
#564 = SURFACE_CURVE('',#565,(#569,#576),.PCURVE_S1.);
#565 = LINE('',#566,#567);
#566 = CARTESIAN_POINT('',(-32.00068454822,389.64999663263,
    -1.000050513602E-07));
#567 = VECTOR('',#568,1.);
#568 = DIRECTION('',(-0.639340041928,0.768924125507,8.640112027154E-15)
  );
#569 = PCURVE('',#171,#570);
#570 = DEFINITIONAL_REPRESENTATION('',(#571),#575);
#571 = LINE('',#572,#573);
#572 = CARTESIAN_POINT('',(-32.00072173485,33.94025163263));
#573 = VECTOR('',#574,1.);
#574 = DIRECTION('',(-0.639340041928,0.768924125507));
#575 = ( GEOMETRIC_REPRESENTATION_CONTEXT(2) 
PARAMETRIC_REPRESENTATION_CONTEXT() REPRESENTATION_CONTEXT('2D SPACE',''
  ) );
#576 = PCURVE('',#145,#577);
#577 = DEFINITIONAL_REPRESENTATION('',(#578),#582);
#578 = LINE('',#579,#580);
#579 = CARTESIAN_POINT('',(0.,0.));
#580 = VECTOR('',#581,1.);
#581 = DIRECTION('',(1.,-1.577721810442E-30));
#582 = ( GEOMETRIC_REPRESENTATION_CONTEXT(2) 
PARAMETRIC_REPRESENTATION_CONTEXT() REPRESENTATION_CONTEXT('2D SPACE',''
  ) );
#583 = ORIENTED_EDGE('',*,*,#156,.T.);
#584 = ORIENTED_EDGE('',*,*,#462,.F.);
#585 = ADVANCED_FACE('',(#586),#145,.T.);
#586 = FACE_BOUND('',#587,.T.);
#587 = EDGE_LOOP('',(#588,#589,#612,#633));
#588 = ORIENTED_EDGE('',*,*,#563,.F.);
#589 = ORIENTED_EDGE('',*,*,#590,.T.);
#590 = EDGE_CURVE('',#536,#591,#593,.T.);
#591 = VERTEX_POINT('',#592);
#592 = CARTESIAN_POINT('',(-32.00068454822,389.64999663263,
    -6.000000100005));
#593 = SURFACE_CURVE('',#594,(#598,#605),.PCURVE_S1.);
#594 = LINE('',#595,#596);
#595 = CARTESIAN_POINT('',(-32.00068454822,389.64999663263,
    -1.000050513602E-07));
#596 = VECTOR('',#597,1.);
#597 = DIRECTION('',(-1.347186251444E-14,3.512815038853E-17,-1.));
#598 = PCURVE('',#145,#599);
#599 = DEFINITIONAL_REPRESENTATION('',(#600),#604);
#600 = LINE('',#601,#602);
#601 = CARTESIAN_POINT('',(0.,0.));
#602 = VECTOR('',#603,1.);
#603 = DIRECTION('',(-2.502266791361E-27,-1.));
#604 = ( GEOMETRIC_REPRESENTATION_CONTEXT(2) 
PARAMETRIC_REPRESENTATION_CONTEXT() REPRESENTATION_CONTEXT('2D SPACE',''
  ) );
#605 = PCURVE('',#551,#606);
#606 = DEFINITIONAL_REPRESENTATION('',(#607),#611);
#607 = LINE('',#608,#609);
#608 = CARTESIAN_POINT('',(5.82152430478,-2.493015707192E-20));
#609 = VECTOR('',#610,1.);
#610 = DIRECTION('',(0.,-1.));
#611 = ( GEOMETRIC_REPRESENTATION_CONTEXT(2) 
PARAMETRIC_REPRESENTATION_CONTEXT() REPRESENTATION_CONTEXT('2D SPACE',''
  ) );
#612 = ORIENTED_EDGE('',*,*,#613,.T.);
#613 = EDGE_CURVE('',#591,#105,#614,.T.);
#614 = SURFACE_CURVE('',#615,(#619,#626),.PCURVE_S1.);
#615 = LINE('',#616,#617);
#616 = CARTESIAN_POINT('',(-32.00068454822,389.64999663263,
    -6.000000100005));
#617 = VECTOR('',#618,1.);
#618 = DIRECTION('',(-0.639340041928,0.768924125507,8.640112027154E-15)
  );
#619 = PCURVE('',#145,#620);
#620 = DEFINITIONAL_REPRESENTATION('',(#621),#625);
#621 = LINE('',#622,#623);
#622 = CARTESIAN_POINT('',(-6.374945872823E-14,-6.));
#623 = VECTOR('',#624,1.);
#624 = DIRECTION('',(1.,-1.577721810442E-30));
#625 = ( GEOMETRIC_REPRESENTATION_CONTEXT(2) 
PARAMETRIC_REPRESENTATION_CONTEXT() REPRESENTATION_CONTEXT('2D SPACE',''
  ) );
#626 = PCURVE('',#119,#627);
#627 = DEFINITIONAL_REPRESENTATION('',(#628),#632);
#628 = LINE('',#629,#630);
#629 = CARTESIAN_POINT('',(-32.00072173485,33.94025163263));
#630 = VECTOR('',#631,1.);
#631 = DIRECTION('',(-0.639340041928,0.768924125507));
#632 = ( GEOMETRIC_REPRESENTATION_CONTEXT(2) 
PARAMETRIC_REPRESENTATION_CONTEXT() REPRESENTATION_CONTEXT('2D SPACE',''
  ) );
#633 = ORIENTED_EDGE('',*,*,#130,.T.);
#634 = ADVANCED_FACE('',(#635),#119,.F.);
#635 = FACE_BOUND('',#636,.F.);
#636 = EDGE_LOOP('',(#637,#660,#683,#704,#705,#706));
#637 = ORIENTED_EDGE('',*,*,#638,.F.);
#638 = EDGE_CURVE('',#639,#641,#643,.T.);
#639 = VERTEX_POINT('',#640);
#640 = CARTESIAN_POINT('',(-37.822208853,384.64999750222,-6.000000100005
    ));
#641 = VERTEX_POINT('',#642);
#642 = CARTESIAN_POINT('',(-47.822208853,384.64999751274,-6.000000100005
    ));
#643 = SURFACE_CURVE('',#644,(#648,#654),.PCURVE_S1.);
#644 = LINE('',#645,#646);
#645 = CARTESIAN_POINT('',(1.964172124591E-03,384.64999746246,
    -6.000000100005));
#646 = VECTOR('',#647,1.);
#647 = DIRECTION('',(-1.,1.05121369276E-09,1.347186251448E-14));
#648 = PCURVE('',#119,#649);
#649 = DEFINITIONAL_REPRESENTATION('',(#650),#653);
#650 = B_SPLINE_CURVE_WITH_KNOTS('',1,(#651,#652),.UNSPECIFIED.,.F.,.F.,
  (2,2),(-47.82027591189,47.824173025125),.PIECEWISE_BEZIER_KNOTS.);
#651 = CARTESIAN_POINT('',(47.822202897381,28.940252412198));
#652 = CARTESIAN_POINT('',(-47.82224603963,28.940252512741));
#653 = ( GEOMETRIC_REPRESENTATION_CONTEXT(2) 
PARAMETRIC_REPRESENTATION_CONTEXT() REPRESENTATION_CONTEXT('2D SPACE',''
  ) );
#654 = PCURVE('',#285,#655);
#655 = DEFINITIONAL_REPRESENTATION('',(#656),#659);
#656 = B_SPLINE_CURVE_WITH_KNOTS('',1,(#657,#658),.UNSPECIFIED.,.F.,.F.,
  (2,2),(-47.82027591189,47.824173025125),.PIECEWISE_BEZIER_KNOTS.);
#657 = CARTESIAN_POINT('',(47.818348956823,-4.077094141015));
#658 = CARTESIAN_POINT('',(-47.82609998019,-4.077094141013));
#659 = ( GEOMETRIC_REPRESENTATION_CONTEXT(2) 
PARAMETRIC_REPRESENTATION_CONTEXT() REPRESENTATION_CONTEXT('2D SPACE',''
  ) );
#660 = ORIENTED_EDGE('',*,*,#661,.T.);
#661 = EDGE_CURVE('',#639,#662,#664,.T.);
#662 = VERTEX_POINT('',#663);
#663 = CARTESIAN_POINT('',(-37.822208853,389.64999663263,-6.000000100005
    ));
#664 = SURFACE_CURVE('',#665,(#669,#676),.PCURVE_S1.);
#665 = LINE('',#666,#667);
#666 = CARTESIAN_POINT('',(-37.822208853,245.65,-6.000000100005));
#667 = VECTOR('',#668,1.);
#668 = DIRECTION('',(1.961394056037E-15,1.,3.51281503885E-17));
#669 = PCURVE('',#119,#670);
#670 = DEFINITIONAL_REPRESENTATION('',(#671),#675);
#671 = LINE('',#672,#673);
#672 = CARTESIAN_POINT('',(-37.82224603963,-110.059745));
#673 = VECTOR('',#674,1.);
#674 = DIRECTION('',(1.961394056037E-15,1.));
#675 = ( GEOMETRIC_REPRESENTATION_CONTEXT(2) 
PARAMETRIC_REPRESENTATION_CONTEXT() REPRESENTATION_CONTEXT('2D SPACE',''
  ) );
#676 = PCURVE('',#523,#677);
#677 = DEFINITIONAL_REPRESENTATION('',(#678),#682);
#678 = LINE('',#679,#680);
#679 = CARTESIAN_POINT('',(-2.107689023312E-16,-6.));
#680 = VECTOR('',#681,1.);
#681 = DIRECTION('',(1.,0.));
#682 = ( GEOMETRIC_REPRESENTATION_CONTEXT(2) 
PARAMETRIC_REPRESENTATION_CONTEXT() REPRESENTATION_CONTEXT('2D SPACE',''
  ) );
#683 = ORIENTED_EDGE('',*,*,#684,.T.);
#684 = EDGE_CURVE('',#662,#591,#685,.T.);
#685 = SURFACE_CURVE('',#686,(#690,#697),.PCURVE_S1.);
#686 = LINE('',#687,#688);
#687 = CARTESIAN_POINT('',(-37.822208853,389.64999663263,-6.000000100005
    ));
#688 = VECTOR('',#689,1.);
#689 = DIRECTION('',(1.,4.732416124208E-31,-1.347186251444E-14));
#690 = PCURVE('',#119,#691);
#691 = DEFINITIONAL_REPRESENTATION('',(#692),#696);
#692 = LINE('',#693,#694);
#693 = CARTESIAN_POINT('',(-37.82224603963,33.94025163263));
#694 = VECTOR('',#695,1.);
#695 = DIRECTION('',(1.,0.));
#696 = ( GEOMETRIC_REPRESENTATION_CONTEXT(2) 
PARAMETRIC_REPRESENTATION_CONTEXT() REPRESENTATION_CONTEXT('2D SPACE',''
  ) );
#697 = PCURVE('',#551,#698);
#698 = DEFINITIONAL_REPRESENTATION('',(#699),#703);
#699 = LINE('',#700,#701);
#700 = CARTESIAN_POINT('',(8.083117508664E-14,-6.));
#701 = VECTOR('',#702,1.);
#702 = DIRECTION('',(1.,0.));
#703 = ( GEOMETRIC_REPRESENTATION_CONTEXT(2) 
PARAMETRIC_REPRESENTATION_CONTEXT() REPRESENTATION_CONTEXT('2D SPACE',''
  ) );
#704 = ORIENTED_EDGE('',*,*,#613,.T.);
#705 = ORIENTED_EDGE('',*,*,#104,.T.);
#706 = ORIENTED_EDGE('',*,*,#707,.T.);
#707 = EDGE_CURVE('',#79,#641,#708,.T.);
#708 = SURFACE_CURVE('',#709,(#713,#720),.PCURVE_S1.);
#709 = LINE('',#710,#711);
#710 = CARTESIAN_POINT('',(-47.822208853,394.09237394986,-6.000000100005
    ));
#711 = VECTOR('',#712,1.);
#712 = DIRECTION('',(8.459184696623E-18,-1.,-3.512815038853E-17));
#713 = PCURVE('',#119,#714);
#714 = DEFINITIONAL_REPRESENTATION('',(#715),#719);
#715 = LINE('',#716,#717);
#716 = CARTESIAN_POINT('',(-47.82224603963,38.38262894986));
#717 = VECTOR('',#718,1.);
#718 = DIRECTION('',(8.459184696623E-18,-1.));
#719 = ( GEOMETRIC_REPRESENTATION_CONTEXT(2) 
PARAMETRIC_REPRESENTATION_CONTEXT() REPRESENTATION_CONTEXT('2D SPACE',''
  ) );
#720 = PCURVE('',#93,#721);
#721 = DEFINITIONAL_REPRESENTATION('',(#722),#726);
#722 = LINE('',#723,#724);
#723 = CARTESIAN_POINT('',(2.107689023312E-16,-6.));
#724 = VECTOR('',#725,1.);
#725 = DIRECTION('',(1.,0.));
#726 = ( GEOMETRIC_REPRESENTATION_CONTEXT(2) 
PARAMETRIC_REPRESENTATION_CONTEXT() REPRESENTATION_CONTEXT('2D SPACE',''
  ) );
#727 = ADVANCED_FACE('',(#728),#93,.T.);
#728 = FACE_BOUND('',#729,.T.);
#729 = EDGE_LOOP('',(#730,#731,#732,#751));
#730 = ORIENTED_EDGE('',*,*,#78,.T.);
#731 = ORIENTED_EDGE('',*,*,#707,.T.);
#732 = ORIENTED_EDGE('',*,*,#733,.F.);
#733 = EDGE_CURVE('',#270,#641,#734,.T.);
#734 = SURFACE_CURVE('',#735,(#739,#745),.PCURVE_S1.);
#735 = LINE('',#736,#737);
#736 = CARTESIAN_POINT('',(-47.822208853,384.64999751231,-0.961453029898
    ));
#737 = VECTOR('',#738,1.);
#738 = DIRECTION('',(-1.347186251444E-14,8.482366566956E-11,-1.));
#739 = PCURVE('',#93,#740);
#740 = DEFINITIONAL_REPRESENTATION('',(#741),#744);
#741 = B_SPLINE_CURVE_WITH_KNOTS('',1,(#742,#743),.UNSPECIFIED.,.F.,.F.,
  (2,2),(-0.961452929893,5.038547070107),.PIECEWISE_BEZIER_KNOTS.);
#742 = CARTESIAN_POINT('',(9.442376437628,0.));
#743 = CARTESIAN_POINT('',(9.442376437119,-6.));
#744 = ( GEOMETRIC_REPRESENTATION_CONTEXT(2) 
PARAMETRIC_REPRESENTATION_CONTEXT() REPRESENTATION_CONTEXT('2D SPACE',''
  ) );
#745 = PCURVE('',#285,#746);
#746 = DEFINITIONAL_REPRESENTATION('',(#747),#750);
#747 = B_SPLINE_CURVE_WITH_KNOTS('',1,(#748,#749),.UNSPECIFIED.,.F.,.F.,
  (2,2),(-0.961452929893,5.038547070107),.PIECEWISE_BEZIER_KNOTS.);
#748 = CARTESIAN_POINT('',(-47.82609998019,1.922905858986));
#749 = CARTESIAN_POINT('',(-47.82609998019,-4.077094141014));
#750 = ( GEOMETRIC_REPRESENTATION_CONTEXT(2) 
PARAMETRIC_REPRESENTATION_CONTEXT() REPRESENTATION_CONTEXT('2D SPACE',''
  ) );
#751 = ORIENTED_EDGE('',*,*,#319,.F.);
#752 = ADVANCED_FACE('',(#753),#285,.T.);
#753 = FACE_BOUND('',#754,.T.);
#754 = EDGE_LOOP('',(#755,#756,#757,#758,#777,#778,#779,#780));
#755 = ORIENTED_EDGE('',*,*,#267,.T.);
#756 = ORIENTED_EDGE('',*,*,#733,.T.);
#757 = ORIENTED_EDGE('',*,*,#638,.F.);
#758 = ORIENTED_EDGE('',*,*,#759,.T.);
#759 = EDGE_CURVE('',#639,#487,#760,.T.);
#760 = SURFACE_CURVE('',#761,(#765,#771),.PCURVE_S1.);
#761 = LINE('',#762,#763);
#762 = CARTESIAN_POINT('',(-37.822208853,384.6499975018,-0.961453023602)
  );
#763 = VECTOR('',#764,1.);
#764 = DIRECTION('',(1.347186251427E-14,-8.482366566956E-11,1.));
#765 = PCURVE('',#285,#766);
#766 = DEFINITIONAL_REPRESENTATION('',(#767),#770);
#767 = B_SPLINE_CURVE_WITH_KNOTS('',1,(#768,#769),.UNSPECIFIED.,.F.,.F.,
  (2,2),(-5.038547076403,0.961452923598),.PIECEWISE_BEZIER_KNOTS.);
#768 = CARTESIAN_POINT('',(-37.82609998019,-4.077094141014));
#769 = CARTESIAN_POINT('',(-37.82609998019,1.922905858986));
#770 = ( GEOMETRIC_REPRESENTATION_CONTEXT(2) 
PARAMETRIC_REPRESENTATION_CONTEXT() REPRESENTATION_CONTEXT('2D SPACE',''
  ) );
#771 = PCURVE('',#523,#772);
#772 = DEFINITIONAL_REPRESENTATION('',(#773),#776);
#773 = B_SPLINE_CURVE_WITH_KNOTS('',1,(#774,#775),.UNSPECIFIED.,.F.,.F.,
  (2,2),(-5.038547076403,0.961452923598),.PIECEWISE_BEZIER_KNOTS.);
#774 = CARTESIAN_POINT('',(138.99999750222,-6.));
#775 = CARTESIAN_POINT('',(138.99999750172,0.));
#776 = ( GEOMETRIC_REPRESENTATION_CONTEXT(2) 
PARAMETRIC_REPRESENTATION_CONTEXT() REPRESENTATION_CONTEXT('2D SPACE',''
  ) );
#777 = ORIENTED_EDGE('',*,*,#486,.T.);
#778 = ORIENTED_EDGE('',*,*,#439,.T.);
#779 = ORIENTED_EDGE('',*,*,#415,.T.);
#780 = ORIENTED_EDGE('',*,*,#366,.T.);
#781 = ADVANCED_FACE('',(#782),#551,.T.);
#782 = FACE_BOUND('',#783,.T.);
#783 = EDGE_LOOP('',(#784,#805,#806,#807));
#784 = ORIENTED_EDGE('',*,*,#785,.T.);
#785 = EDGE_CURVE('',#508,#662,#786,.T.);
#786 = SURFACE_CURVE('',#787,(#791,#798),.PCURVE_S1.);
#787 = LINE('',#788,#789);
#788 = CARTESIAN_POINT('',(-37.822208853,389.64999663263,
    -1.000049729334E-07));
#789 = VECTOR('',#790,1.);
#790 = DIRECTION('',(-1.347186251444E-14,3.512815038853E-17,-1.));
#791 = PCURVE('',#551,#792);
#792 = DEFINITIONAL_REPRESENTATION('',(#793),#797);
#793 = LINE('',#794,#795);
#794 = CARTESIAN_POINT('',(0.,0.));
#795 = VECTOR('',#796,1.);
#796 = DIRECTION('',(0.,-1.));
#797 = ( GEOMETRIC_REPRESENTATION_CONTEXT(2) 
PARAMETRIC_REPRESENTATION_CONTEXT() REPRESENTATION_CONTEXT('2D SPACE',''
  ) );
#798 = PCURVE('',#523,#799);
#799 = DEFINITIONAL_REPRESENTATION('',(#800),#804);
#800 = LINE('',#801,#802);
#801 = CARTESIAN_POINT('',(143.99999663263,4.645364306726E-20));
#802 = VECTOR('',#803,1.);
#803 = DIRECTION('',(3.580688952605E-30,-1.));
#804 = ( GEOMETRIC_REPRESENTATION_CONTEXT(2) 
PARAMETRIC_REPRESENTATION_CONTEXT() REPRESENTATION_CONTEXT('2D SPACE',''
  ) );
#805 = ORIENTED_EDGE('',*,*,#684,.T.);
#806 = ORIENTED_EDGE('',*,*,#590,.F.);
#807 = ORIENTED_EDGE('',*,*,#535,.F.);
#808 = ADVANCED_FACE('',(#809),#523,.T.);
#809 = FACE_BOUND('',#810,.T.);
#810 = EDGE_LOOP('',(#811,#812,#813,#814));
#811 = ORIENTED_EDGE('',*,*,#507,.F.);
#812 = ORIENTED_EDGE('',*,*,#759,.F.);
#813 = ORIENTED_EDGE('',*,*,#661,.T.);
#814 = ORIENTED_EDGE('',*,*,#785,.F.);
#815 = ( GEOMETRIC_REPRESENTATION_CONTEXT(3) 
GLOBAL_UNCERTAINTY_ASSIGNED_CONTEXT((#819)) GLOBAL_UNIT_ASSIGNED_CONTEXT
((#816,#817,#818)) REPRESENTATION_CONTEXT('Context #1',
  '3D Context with UNIT and UNCERTAINTY') );
#816 = ( LENGTH_UNIT() NAMED_UNIT(*) SI_UNIT(.MILLI.,.METRE.) );
#817 = ( NAMED_UNIT(*) PLANE_ANGLE_UNIT() SI_UNIT($,.RADIAN.) );
#818 = ( NAMED_UNIT(*) SI_UNIT($,.STERADIAN.) SOLID_ANGLE_UNIT() );
#819 = UNCERTAINTY_MEASURE_WITH_UNIT(LENGTH_MEASURE(1.E-07),#816,
  'distance_accuracy_value','confusion accuracy');
#820 = CONTEXT_DEPENDENT_SHAPE_REPRESENTATION(#821,#823);
#821 = ( REPRESENTATION_RELATIONSHIP('','',#36,#10) 
REPRESENTATION_RELATIONSHIP_WITH_TRANSFORMATION(#822) 
SHAPE_REPRESENTATION_RELATIONSHIP() );
#822 = ITEM_DEFINED_TRANSFORMATION('','',#11,#15);
#823 = PRODUCT_DEFINITION_SHAPE('Placement','Placement of an item',#824
  );
#824 = NEXT_ASSEMBLY_USAGE_OCCURRENCE('1','','',#5,#31,$);
#825 = PRODUCT_RELATED_PRODUCT_CATEGORY('part',$,(#33));
#826 = SHAPE_DEFINITION_REPRESENTATION(#827,#833);
#827 = PRODUCT_DEFINITION_SHAPE('','',#828);
#828 = PRODUCT_DEFINITION('design','',#829,#832);
#829 = PRODUCT_DEFINITION_FORMATION('','',#830);
#830 = PRODUCT('Open CASCADE STEP translator 7.9 10.2',
  'Open CASCADE STEP translator 7.9 10.2','',(#831));
#831 = PRODUCT_CONTEXT('',#2,'mechanical');
#832 = PRODUCT_DEFINITION_CONTEXT('part definition',#2,'design');
#833 = ADVANCED_BREP_SHAPE_REPRESENTATION('',(#11,#834),#1530);
#834 = MANIFOLD_SOLID_BREP('',#835);
#835 = CLOSED_SHELL('',(#836,#1032,#1104,#1207,#1256,#1303,#1350,#1441,
    #1468,#1494,#1521));
#836 = ADVANCED_FACE('',(#837),#851,.F.);
#837 = FACE_BOUND('',#838,.F.);
#838 = EDGE_LOOP('',(#839,#872,#900,#928,#956,#982,#1008));
#839 = ORIENTED_EDGE('',*,*,#840,.T.);
#840 = EDGE_CURVE('',#841,#843,#845,.T.);
#841 = VERTEX_POINT('',#842);
#842 = CARTESIAN_POINT('',(47.822240084015,390.64999741219,
    -6.000000100006));
#843 = VERTEX_POINT('',#844);
#844 = CARTESIAN_POINT('',(47.822240084015,390.64999741217,
    -5.774798745683));
#845 = SURFACE_CURVE('',#846,(#850,#861),.PCURVE_S1.);
#846 = LINE('',#847,#848);
#847 = CARTESIAN_POINT('',(47.822240084015,390.64999741177,
    -0.961453020067));
#848 = VECTOR('',#849,1.);
#849 = DIRECTION('',(1.347186251439E-14,-8.482366566956E-11,1.));
#850 = PCURVE('',#851,#856);
#851 = PLANE('',#852);
#852 = AXIS2_PLACEMENT_3D('',#853,#854,#855);
#853 = CARTESIAN_POINT('',(3.891133499899E-03,390.64999746212,
    -1.922905958482));
#854 = DIRECTION('',(-1.05121369276E-09,-1.,-8.482366566955E-11));
#855 = DIRECTION('',(1.,-1.05121369276E-09,-8.916779882193E-20));
#856 = DEFINITIONAL_REPRESENTATION('',(#857),#860);
#857 = B_SPLINE_CURVE_WITH_KNOTS('',1,(#858,#859),.UNSPECIFIED.,.F.,.F.,
  (2,2),(-5.038547079939,0.961452920061),.PIECEWISE_BEZIER_KNOTS.);
#858 = CARTESIAN_POINT('',(47.818348950515,-4.077094141524));
#859 = CARTESIAN_POINT('',(47.818348950515,1.922905858476));
#860 = ( GEOMETRIC_REPRESENTATION_CONTEXT(2) 
PARAMETRIC_REPRESENTATION_CONTEXT() REPRESENTATION_CONTEXT('2D SPACE',''
  ) );
#861 = PCURVE('',#862,#867);
#862 = PLANE('',#863);
#863 = AXIS2_PLACEMENT_3D('',#864,#865,#866);
#864 = CARTESIAN_POINT('',(47.822240084015,174.25752781042,
    -1.0000613429E-07));
#865 = DIRECTION('',(1.,-5.817898967468E-16,-1.347186251444E-14));
#866 = DIRECTION('',(5.817898967468E-16,1.,3.512815038852E-17));
#867 = DEFINITIONAL_REPRESENTATION('',(#868),#871);
#868 = B_SPLINE_CURVE_WITH_KNOTS('',1,(#869,#870),.UNSPECIFIED.,.F.,.F.,
  (2,2),(-5.038547079939,0.961452920061),.PIECEWISE_BEZIER_KNOTS.);
#869 = CARTESIAN_POINT('',(216.39246960177,-6.));
#870 = CARTESIAN_POINT('',(216.39246960127,0.));
#871 = ( GEOMETRIC_REPRESENTATION_CONTEXT(2) 
PARAMETRIC_REPRESENTATION_CONTEXT() REPRESENTATION_CONTEXT('2D SPACE',''
  ) );
#872 = ORIENTED_EDGE('',*,*,#873,.T.);
#873 = EDGE_CURVE('',#843,#874,#876,.T.);
#874 = VERTEX_POINT('',#875);
#875 = CARTESIAN_POINT('',(47.820058197179,390.6499974121,
    -4.810237188352));
#876 = SURFACE_CURVE('',#877,(#881,#888),.PCURVE_S1.);
#877 = LINE('',#878,#879);
#878 = CARTESIAN_POINT('',(47.823121027925,390.64999741221,
    -6.164243613053));
#879 = VECTOR('',#880,1.);
#880 = DIRECTION('',(-2.262044592003E-03,-8.244555640571E-11,
    0.999997441574));
#881 = PCURVE('',#851,#882);
#882 = DEFINITIONAL_REPRESENTATION('',(#883),#887);
#883 = LINE('',#884,#885);
#884 = CARTESIAN_POINT('',(47.819229894425,-4.241337654571));
#885 = VECTOR('',#886,1.);
#886 = DIRECTION('',(-2.262044592003E-03,0.999997441574));
#887 = ( GEOMETRIC_REPRESENTATION_CONTEXT(2) 
PARAMETRIC_REPRESENTATION_CONTEXT() REPRESENTATION_CONTEXT('2D SPACE',''
  ) );
#888 = PCURVE('',#889,#894);
#889 = PLANE('',#890);
#890 = AXIS2_PLACEMENT_3D('',#891,#892,#893);
#891 = CARTESIAN_POINT('',(47.823121021618,384.64999741221,
    -6.164243613562));
#892 = DIRECTION('',(0.999997441574,-1.051402878222E-09,
    2.262044592003E-03));
#893 = DIRECTION('',(-2.262044592003E-03,-8.244555640571E-11,
    0.999997441574));
#894 = DEFINITIONAL_REPRESENTATION('',(#895),#899);
#895 = LINE('',#896,#897);
#896 = CARTESIAN_POINT('',(5.884809620954E-14,-6.));
#897 = VECTOR('',#898,1.);
#898 = DIRECTION('',(1.,-3.877409121342E-26));
#899 = ( GEOMETRIC_REPRESENTATION_CONTEXT(2) 
PARAMETRIC_REPRESENTATION_CONTEXT() REPRESENTATION_CONTEXT('2D SPACE',''
  ) );
#900 = ORIENTED_EDGE('',*,*,#901,.T.);
#901 = EDGE_CURVE('',#874,#902,#904,.T.);
#902 = VERTEX_POINT('',#903);
#903 = CARTESIAN_POINT('',(37.820083781403,390.64999742261,
    -4.832857632149));
#904 = SURFACE_CURVE('',#905,(#909,#916),.PCURVE_S1.);
#905 = LINE('',#906,#907);
#906 = CARTESIAN_POINT('',(47.820058197179,390.6499974121,
    -4.810237188352));
#907 = VECTOR('',#908,1.);
#908 = DIRECTION('',(-0.999997441574,1.051402878204E-09,
    -2.262044379695E-03));
#909 = PCURVE('',#851,#910);
#910 = DEFINITIONAL_REPRESENTATION('',(#911),#915);
#911 = LINE('',#912,#913);
#912 = CARTESIAN_POINT('',(47.816167063679,-2.88733122987));
#913 = VECTOR('',#914,1.);
#914 = DIRECTION('',(-0.999997441574,-2.262044379695E-03));
#915 = ( GEOMETRIC_REPRESENTATION_CONTEXT(2) 
PARAMETRIC_REPRESENTATION_CONTEXT() REPRESENTATION_CONTEXT('2D SPACE',''
  ) );
#916 = PCURVE('',#917,#922);
#917 = PLANE('',#918);
#918 = AXIS2_PLACEMENT_3D('',#919,#920,#921);
#919 = CARTESIAN_POINT('',(47.820058190871,384.6499974121,
    -4.810237188861));
#920 = DIRECTION('',(-2.262044379695E-03,-8.244555662897E-11,
    0.999997441574));
#921 = DIRECTION('',(-0.999997441574,1.051402878204E-09,
    -2.262044379695E-03));
#922 = DEFINITIONAL_REPRESENTATION('',(#923),#927);
#923 = LINE('',#924,#925);
#924 = CARTESIAN_POINT('',(-7.173022487261E-13,-6.));
#925 = VECTOR('',#926,1.);
#926 = DIRECTION('',(1.,-5.667681614087E-25));
#927 = ( GEOMETRIC_REPRESENTATION_CONTEXT(2) 
PARAMETRIC_REPRESENTATION_CONTEXT() REPRESENTATION_CONTEXT('2D SPACE',''
  ) );
#928 = ORIENTED_EDGE('',*,*,#929,.T.);
#929 = EDGE_CURVE('',#902,#930,#932,.T.);
#930 = VERTEX_POINT('',#931);
#931 = CARTESIAN_POINT('',(37.809151614181,390.64999742221,
    -1.000059919321E-07));
#932 = SURFACE_CURVE('',#933,(#937,#944),.PCURVE_S1.);
#933 = LINE('',#934,#935);
#934 = CARTESIAN_POINT('',(37.820083781403,390.64999742261,
    -4.832857632149));
#935 = VECTOR('',#936,1.);
#936 = DIRECTION('',(-2.262044593697E-03,-8.244555640393E-11,
    0.999997441574));
#937 = PCURVE('',#851,#938);
#938 = DEFINITIONAL_REPRESENTATION('',(#939),#943);
#939 = LINE('',#940,#941);
#940 = CARTESIAN_POINT('',(37.816192647903,-2.909951673667));
#941 = VECTOR('',#942,1.);
#942 = DIRECTION('',(-2.262044593697E-03,0.999997441574));
#943 = ( GEOMETRIC_REPRESENTATION_CONTEXT(2) 
PARAMETRIC_REPRESENTATION_CONTEXT() REPRESENTATION_CONTEXT('2D SPACE',''
  ) );
#944 = PCURVE('',#945,#950);
#945 = PLANE('',#946);
#946 = AXIS2_PLACEMENT_3D('',#947,#948,#949);
#947 = CARTESIAN_POINT('',(37.820083775096,384.64999742261,
    -4.832857632658));
#948 = DIRECTION('',(0.999997441574,-1.051402878222E-09,
    2.262044593697E-03));
#949 = DIRECTION('',(-2.262044593697E-03,-8.244555640393E-11,
    0.999997441574));
#950 = DEFINITIONAL_REPRESENTATION('',(#951),#955);
#951 = LINE('',#952,#953);
#952 = CARTESIAN_POINT('',(5.884809620509E-14,-6.));
#953 = VECTOR('',#954,1.);
#954 = DIRECTION('',(1.,-1.292469707114E-26));
#955 = ( GEOMETRIC_REPRESENTATION_CONTEXT(2) 
PARAMETRIC_REPRESENTATION_CONTEXT() REPRESENTATION_CONTEXT('2D SPACE',''
  ) );
#956 = ORIENTED_EDGE('',*,*,#957,.T.);
#957 = EDGE_CURVE('',#930,#958,#960,.T.);
#958 = VERTEX_POINT('',#959);
#959 = CARTESIAN_POINT('',(32.83098967007,390.64999742744,
    -1.000059247285E-07));
#960 = SURFACE_CURVE('',#961,(#965,#971),.PCURVE_S1.);
#961 = LINE('',#962,#963);
#962 = CARTESIAN_POINT('',(1.964178431953E-03,390.64999746195,
    -1.00005482387E-07));
#963 = VECTOR('',#964,1.);
#964 = DIRECTION('',(-1.,1.05121369276E-09,1.347186251448E-14));
#965 = PCURVE('',#851,#966);
#966 = DEFINITIONAL_REPRESENTATION('',(#967),#970);
#967 = B_SPLINE_CURVE_WITH_KNOTS('',1,(#968,#969),.UNSPECIFIED.,.F.,.F.,
  (2,2),(-47.82027590558,47.824173031432),.PIECEWISE_BEZIER_KNOTS.);
#968 = CARTESIAN_POINT('',(47.818348950515,1.922905858476));
#969 = CARTESIAN_POINT('',(-47.8260999865,1.922905858477));
#970 = ( GEOMETRIC_REPRESENTATION_CONTEXT(2) 
PARAMETRIC_REPRESENTATION_CONTEXT() REPRESENTATION_CONTEXT('2D SPACE',''
  ) );
#971 = PCURVE('',#972,#977);
#972 = PLANE('',#973);
#973 = AXIS2_PLACEMENT_3D('',#974,#975,#976);
#974 = CARTESIAN_POINT('',(3.718663430874E-05,355.709745,
    -1.000054836618E-07));
#975 = DIRECTION('',(1.347186251444E-14,-3.512815038853E-17,1.));
#976 = DIRECTION('',(1.,4.732416124208E-31,-1.347186251444E-14));
#977 = DEFINITIONAL_REPRESENTATION('',(#978),#981);
#978 = B_SPLINE_CURVE_WITH_KNOTS('',1,(#979,#980),.UNSPECIFIED.,.F.,.F.,
  (2,2),(-47.82027590558,47.824173031432),.PIECEWISE_BEZIER_KNOTS.);
#979 = CARTESIAN_POINT('',(47.822202897381,34.94025241169));
#980 = CARTESIAN_POINT('',(-47.82224603963,34.940252512232));
#981 = ( GEOMETRIC_REPRESENTATION_CONTEXT(2) 
PARAMETRIC_REPRESENTATION_CONTEXT() REPRESENTATION_CONTEXT('2D SPACE',''
  ) );
#982 = ORIENTED_EDGE('',*,*,#983,.T.);
#983 = EDGE_CURVE('',#958,#984,#986,.T.);
#984 = VERTEX_POINT('',#985);
#985 = CARTESIAN_POINT('',(32.830989670494,390.64999742795,
    -6.000000100006));
#986 = SURFACE_CURVE('',#987,(#991,#997),.PCURVE_S1.);
#987 = LINE('',#988,#989);
#988 = CARTESIAN_POINT('',(32.830989670138,390.64999742753,
    -0.961453028517));
#989 = VECTOR('',#990,1.);
#990 = DIRECTION('',(7.05320986278E-11,8.482366559541E-11,-1.));
#991 = PCURVE('',#851,#992);
#992 = DEFINITIONAL_REPRESENTATION('',(#993),#996);
#993 = B_SPLINE_CURVE_WITH_KNOTS('',1,(#994,#995),.UNSPECIFIED.,.F.,.F.,
  (2,2),(-0.961452928511,5.038547071489),.PIECEWISE_BEZIER_KNOTS.);
#994 = CARTESIAN_POINT('',(32.82709853657,1.922905858476));
#995 = CARTESIAN_POINT('',(32.827098536994,-4.077094141524));
#996 = ( GEOMETRIC_REPRESENTATION_CONTEXT(2) 
PARAMETRIC_REPRESENTATION_CONTEXT() REPRESENTATION_CONTEXT('2D SPACE',''
  ) );
#997 = PCURVE('',#998,#1003);
#998 = PLANE('',#999);
#999 = AXIS2_PLACEMENT_3D('',#1000,#1001,#1002);
#1000 = CARTESIAN_POINT('',(37.821030352586,396.64999663262,
    -1.000059917429E-07));
#1001 = DIRECTION('',(-0.768848508651,0.639430974183,1.038028343041E-14)
  );
#1002 = DIRECTION('',(-0.639430974183,-0.768848508651,8.587317945634E-15
    ));
#1003 = DEFINITIONAL_REPRESENTATION('',(#1004),#1007);
#1004 = B_SPLINE_CURVE_WITH_KNOTS('',1,(#1005,#1006),.UNSPECIFIED.,.F.,
  .F.,(2,2),(-0.961452928511,5.038547071489),.PIECEWISE_BEZIER_KNOTS.);
#1005 = CARTESIAN_POINT('',(7.803877015639,0.));
#1006 = CARTESIAN_POINT('',(7.803877014977,-6.));
#1007 = ( GEOMETRIC_REPRESENTATION_CONTEXT(2) 
PARAMETRIC_REPRESENTATION_CONTEXT() REPRESENTATION_CONTEXT('2D SPACE',''
  ) );
#1008 = ORIENTED_EDGE('',*,*,#1009,.F.);
#1009 = EDGE_CURVE('',#841,#984,#1010,.T.);
#1010 = SURFACE_CURVE('',#1011,(#1015,#1021),.PCURVE_S1.);
#1011 = LINE('',#1012,#1013);
#1012 = CARTESIAN_POINT('',(1.964178431873E-03,390.64999746246,
    -6.000000100005));
#1013 = VECTOR('',#1014,1.);
#1014 = DIRECTION('',(-1.,1.05121369276E-09,1.347186251448E-14));
#1015 = PCURVE('',#851,#1016);
#1016 = DEFINITIONAL_REPRESENTATION('',(#1017),#1020);
#1017 = B_SPLINE_CURVE_WITH_KNOTS('',1,(#1018,#1019),.UNSPECIFIED.,.F.,
  .F.,(2,2),(-47.82027590558,47.824173031432),.PIECEWISE_BEZIER_KNOTS.);
#1018 = CARTESIAN_POINT('',(47.818348950515,-4.077094141524));
#1019 = CARTESIAN_POINT('',(-47.8260999865,-4.077094141522));
#1020 = ( GEOMETRIC_REPRESENTATION_CONTEXT(2) 
PARAMETRIC_REPRESENTATION_CONTEXT() REPRESENTATION_CONTEXT('2D SPACE',''
  ) );
#1021 = PCURVE('',#1022,#1027);
#1022 = PLANE('',#1023);
#1023 = AXIS2_PLACEMENT_3D('',#1024,#1025,#1026);
#1024 = CARTESIAN_POINT('',(3.718663423058E-05,355.709745,
    -6.000000100005));
#1025 = DIRECTION('',(1.347186251444E-14,-3.512815038853E-17,1.));
#1026 = DIRECTION('',(1.,4.732416124208E-31,-1.347186251444E-14));
#1027 = DEFINITIONAL_REPRESENTATION('',(#1028),#1031);
#1028 = B_SPLINE_CURVE_WITH_KNOTS('',1,(#1029,#1030),.UNSPECIFIED.,.F.,
  .F.,(2,2),(-47.82027590558,47.824173031432),.PIECEWISE_BEZIER_KNOTS.);
#1029 = CARTESIAN_POINT('',(47.822202897381,34.940252412198));
#1030 = CARTESIAN_POINT('',(-47.82224603963,34.940252512741));
#1031 = ( GEOMETRIC_REPRESENTATION_CONTEXT(2) 
PARAMETRIC_REPRESENTATION_CONTEXT() REPRESENTATION_CONTEXT('2D SPACE',''
  ) );
#1032 = ADVANCED_FACE('',(#1033),#862,.T.);
#1033 = FACE_BOUND('',#1034,.T.);
#1034 = EDGE_LOOP('',(#1035,#1063,#1084,#1085));
#1035 = ORIENTED_EDGE('',*,*,#1036,.F.);
#1036 = EDGE_CURVE('',#1037,#1039,#1041,.T.);
#1037 = VERTEX_POINT('',#1038);
#1038 = CARTESIAN_POINT('',(47.822240084015,384.64999741219,
    -6.000000100006));
#1039 = VERTEX_POINT('',#1040);
#1040 = CARTESIAN_POINT('',(47.822240084015,384.64999741217,
    -5.774801534366));
#1041 = SURFACE_CURVE('',#1042,(#1046,#1052),.PCURVE_S1.);
#1042 = LINE('',#1043,#1044);
#1043 = CARTESIAN_POINT('',(47.822240084015,384.64999741177,
    -0.961453020576));
#1044 = VECTOR('',#1045,1.);
#1045 = DIRECTION('',(1.347186251439E-14,-8.482366566956E-11,1.));
#1046 = PCURVE('',#862,#1047);
#1047 = DEFINITIONAL_REPRESENTATION('',(#1048),#1051);
#1048 = B_SPLINE_CURVE_WITH_KNOTS('',1,(#1049,#1050),.UNSPECIFIED.,.F.,
  .F.,(2,2),(-5.03854707943,0.96145292057),.PIECEWISE_BEZIER_KNOTS.);
#1049 = CARTESIAN_POINT('',(210.39246960177,-6.));
#1050 = CARTESIAN_POINT('',(210.39246960127,0.));
#1051 = ( GEOMETRIC_REPRESENTATION_CONTEXT(2) 
PARAMETRIC_REPRESENTATION_CONTEXT() REPRESENTATION_CONTEXT('2D SPACE',''
  ) );
#1052 = PCURVE('',#1053,#1058);
#1053 = PLANE('',#1054);
#1054 = AXIS2_PLACEMENT_3D('',#1055,#1056,#1057);
#1055 = CARTESIAN_POINT('',(3.891127192617E-03,384.64999746212,
    -1.922905958991));
#1056 = DIRECTION('',(-1.05121369276E-09,-1.,-8.482366566955E-11));
#1057 = DIRECTION('',(1.,-1.05121369276E-09,-8.916779882193E-20));
#1058 = DEFINITIONAL_REPRESENTATION('',(#1059),#1062);
#1059 = B_SPLINE_CURVE_WITH_KNOTS('',1,(#1060,#1061),.UNSPECIFIED.,.F.,
  .F.,(2,2),(-5.03854707943,0.96145292057),.PIECEWISE_BEZIER_KNOTS.);
#1060 = CARTESIAN_POINT('',(47.818348956822,-4.077094141015));
#1061 = CARTESIAN_POINT('',(47.818348956823,1.922905858985));
#1062 = ( GEOMETRIC_REPRESENTATION_CONTEXT(2) 
PARAMETRIC_REPRESENTATION_CONTEXT() REPRESENTATION_CONTEXT('2D SPACE',''
  ) );
#1063 = ORIENTED_EDGE('',*,*,#1064,.T.);
#1064 = EDGE_CURVE('',#1037,#841,#1065,.T.);
#1065 = SURFACE_CURVE('',#1066,(#1070,#1077),.PCURVE_S1.);
#1066 = LINE('',#1067,#1068);
#1067 = CARTESIAN_POINT('',(47.822240084015,174.25752781042,
    -6.000000100006));
#1068 = VECTOR('',#1069,1.);
#1069 = DIRECTION('',(5.817898967468E-16,1.,3.512815038852E-17));
#1070 = PCURVE('',#862,#1071);
#1071 = DEFINITIONAL_REPRESENTATION('',(#1072),#1076);
#1072 = LINE('',#1073,#1074);
#1073 = CARTESIAN_POINT('',(-2.107689023312E-16,-6.));
#1074 = VECTOR('',#1075,1.);
#1075 = DIRECTION('',(1.,0.));
#1076 = ( GEOMETRIC_REPRESENTATION_CONTEXT(2) 
PARAMETRIC_REPRESENTATION_CONTEXT() REPRESENTATION_CONTEXT('2D SPACE',''
  ) );
#1077 = PCURVE('',#1022,#1078);
#1078 = DEFINITIONAL_REPRESENTATION('',(#1079),#1083);
#1079 = LINE('',#1080,#1081);
#1080 = CARTESIAN_POINT('',(47.822202897381,-181.4522171895));
#1081 = VECTOR('',#1082,1.);
#1082 = DIRECTION('',(5.817898967468E-16,1.));
#1083 = ( GEOMETRIC_REPRESENTATION_CONTEXT(2) 
PARAMETRIC_REPRESENTATION_CONTEXT() REPRESENTATION_CONTEXT('2D SPACE',''
  ) );
#1084 = ORIENTED_EDGE('',*,*,#840,.T.);
#1085 = ORIENTED_EDGE('',*,*,#1086,.F.);
#1086 = EDGE_CURVE('',#1039,#843,#1087,.T.);
#1087 = SURFACE_CURVE('',#1088,(#1092,#1098),.PCURVE_S1.);
#1088 = LINE('',#1089,#1090);
#1089 = CARTESIAN_POINT('',(47.822240084015,279.4537638629,
    -5.774850429843));
#1090 = VECTOR('',#1091,1.);
#1091 = DIRECTION('',(5.817961584921E-16,1.,4.648017550778E-07));
#1092 = PCURVE('',#862,#1093);
#1093 = DEFINITIONAL_REPRESENTATION('',(#1094),#1097);
#1094 = B_SPLINE_CURVE_WITH_KNOTS('',1,(#1095,#1096),.UNSPECIFIED.,.F.,
  .F.,(2,2),(105.19623354928,111.19623354929),.PIECEWISE_BEZIER_KNOTS.);
#1095 = CARTESIAN_POINT('',(210.39246960175,-5.774801434443));
#1096 = CARTESIAN_POINT('',(216.39246960176,-5.774798645632));
#1097 = ( GEOMETRIC_REPRESENTATION_CONTEXT(2) 
PARAMETRIC_REPRESENTATION_CONTEXT() REPRESENTATION_CONTEXT('2D SPACE',''
  ) );
#1098 = PCURVE('',#889,#1099);
#1099 = DEFINITIONAL_REPRESENTATION('',(#1100),#1103);
#1100 = B_SPLINE_CURVE_WITH_KNOTS('',1,(#1101,#1102),.UNSPECIFIED.,.F.,
  .F.,(2,2),(105.19623354928,111.19623354929),.PIECEWISE_BEZIER_KNOTS.);
#1101 = CARTESIAN_POINT('',(0.389443075474,-1.42108547152E-14));
#1102 = CARTESIAN_POINT('',(0.389445863783,-6.000000000002));
#1103 = ( GEOMETRIC_REPRESENTATION_CONTEXT(2) 
PARAMETRIC_REPRESENTATION_CONTEXT() REPRESENTATION_CONTEXT('2D SPACE',''
  ) );
#1104 = ADVANCED_FACE('',(#1105),#1022,.F.);
#1105 = FACE_BOUND('',#1106,.F.);
#1106 = EDGE_LOOP('',(#1107,#1108,#1131,#1159,#1187,#1206));
#1107 = ORIENTED_EDGE('',*,*,#1009,.T.);
#1108 = ORIENTED_EDGE('',*,*,#1109,.T.);
#1109 = EDGE_CURVE('',#984,#1110,#1112,.T.);
#1110 = VERTEX_POINT('',#1111);
#1111 = CARTESIAN_POINT('',(31.999315451774,389.64999663263,
    -6.000000100006));
#1112 = SURFACE_CURVE('',#1113,(#1117,#1124),.PCURVE_S1.);
#1113 = LINE('',#1114,#1115);
#1114 = CARTESIAN_POINT('',(37.821030352586,396.64999663262,
    -6.000000100006));
#1115 = VECTOR('',#1116,1.);
#1116 = DIRECTION('',(-0.639430974183,-0.768848508651,8.587317945634E-15
    ));
#1117 = PCURVE('',#1022,#1118);
#1118 = DEFINITIONAL_REPRESENTATION('',(#1119),#1123);
#1119 = LINE('',#1120,#1121);
#1120 = CARTESIAN_POINT('',(37.820993165952,40.94025163262));
#1121 = VECTOR('',#1122,1.);
#1122 = DIRECTION('',(-0.639430974183,-0.768848508651));
#1123 = ( GEOMETRIC_REPRESENTATION_CONTEXT(2) 
PARAMETRIC_REPRESENTATION_CONTEXT() REPRESENTATION_CONTEXT('2D SPACE',''
  ) );
#1124 = PCURVE('',#998,#1125);
#1125 = DEFINITIONAL_REPRESENTATION('',(#1126),#1130);
#1126 = LINE('',#1127,#1128);
#1127 = CARTESIAN_POINT('',(-6.342387313076E-14,-6.));
#1128 = VECTOR('',#1129,1.);
#1129 = DIRECTION('',(1.,0.));
#1130 = ( GEOMETRIC_REPRESENTATION_CONTEXT(2) 
PARAMETRIC_REPRESENTATION_CONTEXT() REPRESENTATION_CONTEXT('2D SPACE',''
  ) );
#1131 = ORIENTED_EDGE('',*,*,#1132,.T.);
#1132 = EDGE_CURVE('',#1110,#1133,#1135,.T.);
#1133 = VERTEX_POINT('',#1134);
#1134 = CARTESIAN_POINT('',(37.822240084015,389.64999663263,
    -6.000000100006));
#1135 = SURFACE_CURVE('',#1136,(#1140,#1147),.PCURVE_S1.);
#1136 = LINE('',#1137,#1138);
#1137 = CARTESIAN_POINT('',(31.999315451774,389.64999663263,
    -6.000000100006));
#1138 = VECTOR('',#1139,1.);
#1139 = DIRECTION('',(1.,4.732416124208E-31,-1.347186251444E-14));
#1140 = PCURVE('',#1022,#1141);
#1141 = DEFINITIONAL_REPRESENTATION('',(#1142),#1146);
#1142 = LINE('',#1143,#1144);
#1143 = CARTESIAN_POINT('',(31.99927826514,33.94025163263));
#1144 = VECTOR('',#1145,1.);
#1145 = DIRECTION('',(1.,0.));
#1146 = ( GEOMETRIC_REPRESENTATION_CONTEXT(2) 
PARAMETRIC_REPRESENTATION_CONTEXT() REPRESENTATION_CONTEXT('2D SPACE',''
  ) );
#1147 = PCURVE('',#1148,#1153);
#1148 = PLANE('',#1149);
#1149 = AXIS2_PLACEMENT_3D('',#1150,#1151,#1152);
#1150 = CARTESIAN_POINT('',(31.999315451774,389.64999663263,
    -1.000059135594E-07));
#1151 = DIRECTION('',(0.,-1.,-3.512815038853E-17));
#1152 = DIRECTION('',(1.,4.732416124208E-31,-1.347186251444E-14));
#1153 = DEFINITIONAL_REPRESENTATION('',(#1154),#1158);
#1154 = LINE('',#1155,#1156);
#1155 = CARTESIAN_POINT('',(8.083117508664E-14,-6.));
#1156 = VECTOR('',#1157,1.);
#1157 = DIRECTION('',(1.,0.));
#1158 = ( GEOMETRIC_REPRESENTATION_CONTEXT(2) 
PARAMETRIC_REPRESENTATION_CONTEXT() REPRESENTATION_CONTEXT('2D SPACE',''
  ) );
#1159 = ORIENTED_EDGE('',*,*,#1160,.T.);
#1160 = EDGE_CURVE('',#1133,#1161,#1163,.T.);
#1161 = VERTEX_POINT('',#1162);
#1162 = CARTESIAN_POINT('',(37.822240084015,384.64999742271,
    -6.000000100006));
#1163 = SURFACE_CURVE('',#1164,(#1168,#1175),.PCURVE_S1.);
#1164 = LINE('',#1165,#1166);
#1165 = CARTESIAN_POINT('',(37.822240084015,389.64999663263,
    -6.000000100006));
#1166 = VECTOR('',#1167,1.);
#1167 = DIRECTION('',(7.006741030372E-15,-1.,-3.512815038862E-17));
#1168 = PCURVE('',#1022,#1169);
#1169 = DEFINITIONAL_REPRESENTATION('',(#1170),#1174);
#1170 = LINE('',#1171,#1172);
#1171 = CARTESIAN_POINT('',(37.822202897381,33.94025163263));
#1172 = VECTOR('',#1173,1.);
#1173 = DIRECTION('',(7.006741030372E-15,-1.));
#1174 = ( GEOMETRIC_REPRESENTATION_CONTEXT(2) 
PARAMETRIC_REPRESENTATION_CONTEXT() REPRESENTATION_CONTEXT('2D SPACE',''
  ) );
#1175 = PCURVE('',#1176,#1181);
#1176 = PLANE('',#1177);
#1177 = AXIS2_PLACEMENT_3D('',#1178,#1179,#1180);
#1178 = CARTESIAN_POINT('',(37.822240084015,389.64999663263,
    -1.000059920051E-07));
#1179 = DIRECTION('',(-1.,-7.006741030372E-15,1.347186251444E-14));
#1180 = DIRECTION('',(7.006741030372E-15,-1.,-3.512815038862E-17));
#1181 = DEFINITIONAL_REPRESENTATION('',(#1182),#1186);
#1182 = LINE('',#1183,#1184);
#1183 = CARTESIAN_POINT('',(2.107689023312E-16,-6.));
#1184 = VECTOR('',#1185,1.);
#1185 = DIRECTION('',(1.,0.));
#1186 = ( GEOMETRIC_REPRESENTATION_CONTEXT(2) 
PARAMETRIC_REPRESENTATION_CONTEXT() REPRESENTATION_CONTEXT('2D SPACE',''
  ) );
#1187 = ORIENTED_EDGE('',*,*,#1188,.F.);
#1188 = EDGE_CURVE('',#1037,#1161,#1189,.T.);
#1189 = SURFACE_CURVE('',#1190,(#1194,#1200),.PCURVE_S1.);
#1190 = LINE('',#1191,#1192);
#1191 = CARTESIAN_POINT('',(1.964172124591E-03,384.64999746246,
    -6.000000100005));
#1192 = VECTOR('',#1193,1.);
#1193 = DIRECTION('',(-1.,1.05121369276E-09,1.347186251448E-14));
#1194 = PCURVE('',#1022,#1195);
#1195 = DEFINITIONAL_REPRESENTATION('',(#1196),#1199);
#1196 = B_SPLINE_CURVE_WITH_KNOTS('',1,(#1197,#1198),.UNSPECIFIED.,.F.,
  .F.,(2,2),(-47.82027591189,47.824173025125),.PIECEWISE_BEZIER_KNOTS.);
#1197 = CARTESIAN_POINT('',(47.822202897381,28.940252412198));
#1198 = CARTESIAN_POINT('',(-47.82224603963,28.940252512741));
#1199 = ( GEOMETRIC_REPRESENTATION_CONTEXT(2) 
PARAMETRIC_REPRESENTATION_CONTEXT() REPRESENTATION_CONTEXT('2D SPACE',''
  ) );
#1200 = PCURVE('',#1053,#1201);
#1201 = DEFINITIONAL_REPRESENTATION('',(#1202),#1205);
#1202 = B_SPLINE_CURVE_WITH_KNOTS('',1,(#1203,#1204),.UNSPECIFIED.,.F.,
  .F.,(2,2),(-47.82027591189,47.824173025125),.PIECEWISE_BEZIER_KNOTS.);
#1203 = CARTESIAN_POINT('',(47.818348956823,-4.077094141015));
#1204 = CARTESIAN_POINT('',(-47.82609998019,-4.077094141013));
#1205 = ( GEOMETRIC_REPRESENTATION_CONTEXT(2) 
PARAMETRIC_REPRESENTATION_CONTEXT() REPRESENTATION_CONTEXT('2D SPACE',''
  ) );
#1206 = ORIENTED_EDGE('',*,*,#1064,.T.);
#1207 = ADVANCED_FACE('',(#1208),#998,.T.);
#1208 = FACE_BOUND('',#1209,.T.);
#1209 = EDGE_LOOP('',(#1210,#1233,#1234,#1235));
#1210 = ORIENTED_EDGE('',*,*,#1211,.F.);
#1211 = EDGE_CURVE('',#958,#1212,#1214,.T.);
#1212 = VERTEX_POINT('',#1213);
#1213 = CARTESIAN_POINT('',(31.999315451774,389.64999663263,
    -1.000059135594E-07));
#1214 = SURFACE_CURVE('',#1215,(#1219,#1226),.PCURVE_S1.);
#1215 = LINE('',#1216,#1217);
#1216 = CARTESIAN_POINT('',(37.821030352586,396.64999663262,
    -1.000059917429E-07));
#1217 = VECTOR('',#1218,1.);
#1218 = DIRECTION('',(-0.639430974183,-0.768848508651,8.587317945634E-15
    ));
#1219 = PCURVE('',#998,#1220);
#1220 = DEFINITIONAL_REPRESENTATION('',(#1221),#1225);
#1221 = LINE('',#1222,#1223);
#1222 = CARTESIAN_POINT('',(0.,0.));
#1223 = VECTOR('',#1224,1.);
#1224 = DIRECTION('',(1.,0.));
#1225 = ( GEOMETRIC_REPRESENTATION_CONTEXT(2) 
PARAMETRIC_REPRESENTATION_CONTEXT() REPRESENTATION_CONTEXT('2D SPACE',''
  ) );
#1226 = PCURVE('',#972,#1227);
#1227 = DEFINITIONAL_REPRESENTATION('',(#1228),#1232);
#1228 = LINE('',#1229,#1230);
#1229 = CARTESIAN_POINT('',(37.820993165952,40.94025163262));
#1230 = VECTOR('',#1231,1.);
#1231 = DIRECTION('',(-0.639430974183,-0.768848508651));
#1232 = ( GEOMETRIC_REPRESENTATION_CONTEXT(2) 
PARAMETRIC_REPRESENTATION_CONTEXT() REPRESENTATION_CONTEXT('2D SPACE',''
  ) );
#1233 = ORIENTED_EDGE('',*,*,#983,.T.);
#1234 = ORIENTED_EDGE('',*,*,#1109,.T.);
#1235 = ORIENTED_EDGE('',*,*,#1236,.F.);
#1236 = EDGE_CURVE('',#1212,#1110,#1237,.T.);
#1237 = SURFACE_CURVE('',#1238,(#1242,#1249),.PCURVE_S1.);
#1238 = LINE('',#1239,#1240);
#1239 = CARTESIAN_POINT('',(31.999315451774,389.64999663263,
    -1.000059135594E-07));
#1240 = VECTOR('',#1241,1.);
#1241 = DIRECTION('',(-1.347186251444E-14,3.512815038853E-17,-1.));
#1242 = PCURVE('',#998,#1243);
#1243 = DEFINITIONAL_REPRESENTATION('',(#1244),#1248);
#1244 = LINE('',#1245,#1246);
#1245 = CARTESIAN_POINT('',(9.104524390994,5.430261704259E-20));
#1246 = VECTOR('',#1247,1.);
#1247 = DIRECTION('',(-2.079437346163E-27,-1.));
#1248 = ( GEOMETRIC_REPRESENTATION_CONTEXT(2) 
PARAMETRIC_REPRESENTATION_CONTEXT() REPRESENTATION_CONTEXT('2D SPACE',''
  ) );
#1249 = PCURVE('',#1148,#1250);
#1250 = DEFINITIONAL_REPRESENTATION('',(#1251),#1255);
#1251 = LINE('',#1252,#1253);
#1252 = CARTESIAN_POINT('',(0.,0.));
#1253 = VECTOR('',#1254,1.);
#1254 = DIRECTION('',(0.,-1.));
#1255 = ( GEOMETRIC_REPRESENTATION_CONTEXT(2) 
PARAMETRIC_REPRESENTATION_CONTEXT() REPRESENTATION_CONTEXT('2D SPACE',''
  ) );
#1256 = ADVANCED_FACE('',(#1257),#972,.T.);
#1257 = FACE_BOUND('',#1258,.T.);
#1258 = EDGE_LOOP('',(#1259,#1260,#1261,#1284));
#1259 = ORIENTED_EDGE('',*,*,#957,.T.);
#1260 = ORIENTED_EDGE('',*,*,#1211,.T.);
#1261 = ORIENTED_EDGE('',*,*,#1262,.T.);
#1262 = EDGE_CURVE('',#1212,#1263,#1265,.T.);
#1263 = VERTEX_POINT('',#1264);
#1264 = CARTESIAN_POINT('',(37.80915161313,389.64999663263,
    -1.000059918287E-07));
#1265 = SURFACE_CURVE('',#1266,(#1270,#1277),.PCURVE_S1.);
#1266 = LINE('',#1267,#1268);
#1267 = CARTESIAN_POINT('',(31.999315451774,389.64999663263,
    -1.000059135594E-07));
#1268 = VECTOR('',#1269,1.);
#1269 = DIRECTION('',(1.,4.732416124208E-31,-1.347186251444E-14));
#1270 = PCURVE('',#972,#1271);
#1271 = DEFINITIONAL_REPRESENTATION('',(#1272),#1276);
#1272 = LINE('',#1273,#1274);
#1273 = CARTESIAN_POINT('',(31.99927826514,33.94025163263));
#1274 = VECTOR('',#1275,1.);
#1275 = DIRECTION('',(1.,0.));
#1276 = ( GEOMETRIC_REPRESENTATION_CONTEXT(2) 
PARAMETRIC_REPRESENTATION_CONTEXT() REPRESENTATION_CONTEXT('2D SPACE',''
  ) );
#1277 = PCURVE('',#1148,#1278);
#1278 = DEFINITIONAL_REPRESENTATION('',(#1279),#1283);
#1279 = LINE('',#1280,#1281);
#1280 = CARTESIAN_POINT('',(0.,0.));
#1281 = VECTOR('',#1282,1.);
#1282 = DIRECTION('',(1.,0.));
#1283 = ( GEOMETRIC_REPRESENTATION_CONTEXT(2) 
PARAMETRIC_REPRESENTATION_CONTEXT() REPRESENTATION_CONTEXT('2D SPACE',''
  ) );
#1284 = ORIENTED_EDGE('',*,*,#1285,.F.);
#1285 = EDGE_CURVE('',#930,#1263,#1286,.T.);
#1286 = SURFACE_CURVE('',#1287,(#1291,#1297),.PCURVE_S1.);
#1287 = LINE('',#1288,#1289);
#1288 = CARTESIAN_POINT('',(37.809151592659,370.17987119143,
    -1.000059920324E-07));
#1289 = VECTOR('',#1290,1.);
#1290 = DIRECTION('',(-1.051405568086E-09,-1.,-3.512813622414E-17));
#1291 = PCURVE('',#972,#1292);
#1292 = DEFINITIONAL_REPRESENTATION('',(#1293),#1296);
#1293 = B_SPLINE_CURVE_WITH_KNOTS('',1,(#1294,#1295),.UNSPECIFIED.,.F.,
  .F.,(2,2),(-20.47012623077,-14.47012623077),.PIECEWISE_BEZIER_KNOTS.);
#1294 = CARTESIAN_POINT('',(37.809114427547,34.940252422214));
#1295 = CARTESIAN_POINT('',(37.809114421239,28.940252422212));
#1296 = ( GEOMETRIC_REPRESENTATION_CONTEXT(2) 
PARAMETRIC_REPRESENTATION_CONTEXT() REPRESENTATION_CONTEXT('2D SPACE',''
  ) );
#1297 = PCURVE('',#945,#1298);
#1298 = DEFINITIONAL_REPRESENTATION('',(#1299),#1302);
#1299 = B_SPLINE_CURVE_WITH_KNOTS('',1,(#1300,#1301),.UNSPECIFIED.,.F.,
  .F.,(2,2),(-20.47012623077,-14.47012623077),.PIECEWISE_BEZIER_KNOTS.);
#1300 = CARTESIAN_POINT('',(4.832869896684,-6.000000000002));
#1301 = CARTESIAN_POINT('',(4.832869897193,0.));
#1302 = ( GEOMETRIC_REPRESENTATION_CONTEXT(2) 
PARAMETRIC_REPRESENTATION_CONTEXT() REPRESENTATION_CONTEXT('2D SPACE',''
  ) );
#1303 = ADVANCED_FACE('',(#1304),#945,.T.);
#1304 = FACE_BOUND('',#1305,.T.);
#1305 = EDGE_LOOP('',(#1306,#1327,#1348,#1349));
#1306 = ORIENTED_EDGE('',*,*,#1307,.T.);
#1307 = EDGE_CURVE('',#1263,#1308,#1310,.T.);
#1308 = VERTEX_POINT('',#1309);
#1309 = CARTESIAN_POINT('',(37.820083780352,389.64999663263,
    -4.832857632234));
#1310 = SURFACE_CURVE('',#1311,(#1315,#1321),.PCURVE_S1.);
#1311 = LINE('',#1312,#1313);
#1312 = CARTESIAN_POINT('',(37.814602832724,389.64999663263,
    -2.409857828898));
#1313 = VECTOR('',#1314,1.);
#1314 = DIRECTION('',(2.262044593697E-03,3.512806051575E-17,
    -0.999997441574));
#1315 = PCURVE('',#945,#1316);
#1316 = DEFINITIONAL_REPRESENTATION('',(#1317),#1320);
#1317 = B_SPLINE_CURVE_WITH_KNOTS('',1,(#1318,#1319),.UNSPECIFIED.,.F.,
  .F.,(2,2),(-2.409863894351,2.423006002418),.PIECEWISE_BEZIER_KNOTS.);
#1318 = CARTESIAN_POINT('',(4.832869896769,-4.999999210418));
#1319 = CARTESIAN_POINT('',(0.,-4.99999921002));
#1320 = ( GEOMETRIC_REPRESENTATION_CONTEXT(2) 
PARAMETRIC_REPRESENTATION_CONTEXT() REPRESENTATION_CONTEXT('2D SPACE',''
  ) );
#1321 = PCURVE('',#1148,#1322);
#1322 = DEFINITIONAL_REPRESENTATION('',(#1323),#1326);
#1323 = B_SPLINE_CURVE_WITH_KNOTS('',1,(#1324,#1325),.UNSPECIFIED.,.F.,
  .F.,(2,2),(-2.409863894351,2.423006002418),.PIECEWISE_BEZIER_KNOTS.);
#1324 = CARTESIAN_POINT('',(5.809836161356,4.440892098501E-16));
#1325 = CARTESIAN_POINT('',(5.820768328578,-4.832857532228));
#1326 = ( GEOMETRIC_REPRESENTATION_CONTEXT(2) 
PARAMETRIC_REPRESENTATION_CONTEXT() REPRESENTATION_CONTEXT('2D SPACE',''
  ) );
#1327 = ORIENTED_EDGE('',*,*,#1328,.T.);
#1328 = EDGE_CURVE('',#1308,#902,#1329,.T.);
#1329 = SURFACE_CURVE('',#1330,(#1334,#1341),.PCURVE_S1.);
#1330 = LINE('',#1331,#1332);
#1331 = CARTESIAN_POINT('',(37.820083775096,384.64999742261,
    -4.832857632658));
#1332 = VECTOR('',#1333,1.);
#1333 = DIRECTION('',(1.05121369276E-09,1.,8.482366566955E-11));
#1334 = PCURVE('',#945,#1335);
#1335 = DEFINITIONAL_REPRESENTATION('',(#1336),#1340);
#1336 = LINE('',#1337,#1338);
#1337 = CARTESIAN_POINT('',(0.,-0.));
#1338 = VECTOR('',#1339,1.);
#1339 = DIRECTION('',(1.032683295984E-23,-1.));
#1340 = ( GEOMETRIC_REPRESENTATION_CONTEXT(2) 
PARAMETRIC_REPRESENTATION_CONTEXT() REPRESENTATION_CONTEXT('2D SPACE',''
  ) );
#1341 = PCURVE('',#917,#1342);
#1342 = DEFINITIONAL_REPRESENTATION('',(#1343),#1347);
#1343 = LINE('',#1344,#1345);
#1344 = CARTESIAN_POINT('',(10.000000000032,4.021695226556E-12));
#1345 = VECTOR('',#1346,1.);
#1346 = DIRECTION('',(2.497561898705E-22,-1.));
#1347 = ( GEOMETRIC_REPRESENTATION_CONTEXT(2) 
PARAMETRIC_REPRESENTATION_CONTEXT() REPRESENTATION_CONTEXT('2D SPACE',''
  ) );
#1348 = ORIENTED_EDGE('',*,*,#929,.T.);
#1349 = ORIENTED_EDGE('',*,*,#1285,.T.);
#1350 = ADVANCED_FACE('',(#1351),#917,.T.);
#1351 = FACE_BOUND('',#1352,.T.);
#1352 = EDGE_LOOP('',(#1353,#1378,#1399,#1400,#1401,#1422));
#1353 = ORIENTED_EDGE('',*,*,#1354,.F.);
#1354 = EDGE_CURVE('',#1355,#1357,#1359,.T.);
#1355 = VERTEX_POINT('',#1356);
#1356 = CARTESIAN_POINT('',(47.820058190871,384.6499974121,
    -4.810237188861));
#1357 = VERTEX_POINT('',#1358);
#1358 = CARTESIAN_POINT('',(37.822240084015,384.64999742261,
    -4.832852754979));
#1359 = SURFACE_CURVE('',#1360,(#1364,#1371),.PCURVE_S1.);
#1360 = LINE('',#1361,#1362);
#1361 = CARTESIAN_POINT('',(47.820058190871,384.6499974121,
    -4.810237188861));
#1362 = VECTOR('',#1363,1.);
#1363 = DIRECTION('',(-0.999997441574,1.051402878204E-09,
    -2.262044379695E-03));
#1364 = PCURVE('',#917,#1365);
#1365 = DEFINITIONAL_REPRESENTATION('',(#1366),#1370);
#1366 = LINE('',#1367,#1368);
#1367 = CARTESIAN_POINT('',(0.,-0.));
#1368 = VECTOR('',#1369,1.);
#1369 = DIRECTION('',(1.,-5.667681614087E-25));
#1370 = ( GEOMETRIC_REPRESENTATION_CONTEXT(2) 
PARAMETRIC_REPRESENTATION_CONTEXT() REPRESENTATION_CONTEXT('2D SPACE',''
  ) );
#1371 = PCURVE('',#1053,#1372);
#1372 = DEFINITIONAL_REPRESENTATION('',(#1373),#1377);
#1373 = LINE('',#1374,#1375);
#1374 = CARTESIAN_POINT('',(47.816167063678,-2.88733122987));
#1375 = VECTOR('',#1376,1.);
#1376 = DIRECTION('',(-0.999997441574,-2.262044379695E-03));
#1377 = ( GEOMETRIC_REPRESENTATION_CONTEXT(2) 
PARAMETRIC_REPRESENTATION_CONTEXT() REPRESENTATION_CONTEXT('2D SPACE',''
  ) );
#1378 = ORIENTED_EDGE('',*,*,#1379,.T.);
#1379 = EDGE_CURVE('',#1355,#874,#1380,.T.);
#1380 = SURFACE_CURVE('',#1381,(#1385,#1392),.PCURVE_S1.);
#1381 = LINE('',#1382,#1383);
#1382 = CARTESIAN_POINT('',(47.820058190871,384.6499974121,
    -4.810237188861));
#1383 = VECTOR('',#1384,1.);
#1384 = DIRECTION('',(1.05121369276E-09,1.,8.482366566955E-11));
#1385 = PCURVE('',#917,#1386);
#1386 = DEFINITIONAL_REPRESENTATION('',(#1387),#1391);
#1387 = LINE('',#1388,#1389);
#1388 = CARTESIAN_POINT('',(0.,-0.));
#1389 = VECTOR('',#1390,1.);
#1390 = DIRECTION('',(2.497561898705E-22,-1.));
#1391 = ( GEOMETRIC_REPRESENTATION_CONTEXT(2) 
PARAMETRIC_REPRESENTATION_CONTEXT() REPRESENTATION_CONTEXT('2D SPACE',''
  ) );
#1392 = PCURVE('',#889,#1393);
#1393 = DEFINITIONAL_REPRESENTATION('',(#1394),#1398);
#1394 = LINE('',#1395,#1396);
#1395 = CARTESIAN_POINT('',(1.354009888835,-1.640083168194E-12));
#1396 = VECTOR('',#1397,1.);
#1397 = DIRECTION('',(1.103769129875E-23,-1.));
#1398 = ( GEOMETRIC_REPRESENTATION_CONTEXT(2) 
PARAMETRIC_REPRESENTATION_CONTEXT() REPRESENTATION_CONTEXT('2D SPACE',''
  ) );
#1399 = ORIENTED_EDGE('',*,*,#901,.T.);
#1400 = ORIENTED_EDGE('',*,*,#1328,.F.);
#1401 = ORIENTED_EDGE('',*,*,#1402,.T.);
#1402 = EDGE_CURVE('',#1308,#1403,#1405,.T.);
#1403 = VERTEX_POINT('',#1404);
#1404 = CARTESIAN_POINT('',(37.822240084015,389.64999663263,
    -4.832852754567));
#1405 = SURFACE_CURVE('',#1406,(#1410,#1416),.PCURVE_S1.);
#1406 = LINE('',#1407,#1408);
#1407 = CARTESIAN_POINT('',(39.915167768431,389.64999663263,
    -4.828118447149));
#1408 = VECTOR('',#1409,1.);
#1409 = DIRECTION('',(0.999997441574,-7.946143515545E-20,
    2.262044379695E-03));
#1410 = PCURVE('',#917,#1411);
#1411 = DEFINITIONAL_REPRESENTATION('',(#1412),#1415);
#1412 = B_SPLINE_CURVE_WITH_KNOTS('',1,(#1413,#1414),.UNSPECIFIED.,.F.,
  .F.,(2,2),(-2.095089348209,-2.092933039029),.PIECEWISE_BEZIER_KNOTS.);
#1413 = CARTESIAN_POINT('',(10.000000000032,-4.999999210016));
#1414 = CARTESIAN_POINT('',(9.997843690852,-4.999999210018));
#1415 = ( GEOMETRIC_REPRESENTATION_CONTEXT(2) 
PARAMETRIC_REPRESENTATION_CONTEXT() REPRESENTATION_CONTEXT('2D SPACE',''
  ) );
#1416 = PCURVE('',#1148,#1417);
#1417 = DEFINITIONAL_REPRESENTATION('',(#1418),#1421);
#1418 = B_SPLINE_CURVE_WITH_KNOTS('',1,(#1419,#1420),.UNSPECIFIED.,.F.,
  .F.,(2,2),(-2.095089348209,-2.092933039029),.PIECEWISE_BEZIER_KNOTS.);
#1419 = CARTESIAN_POINT('',(5.820768328578,-4.832857532228));
#1420 = CARTESIAN_POINT('',(5.822924632241,-4.832852654561));
#1421 = ( GEOMETRIC_REPRESENTATION_CONTEXT(2) 
PARAMETRIC_REPRESENTATION_CONTEXT() REPRESENTATION_CONTEXT('2D SPACE',''
  ) );
#1422 = ORIENTED_EDGE('',*,*,#1423,.T.);
#1423 = EDGE_CURVE('',#1403,#1357,#1424,.T.);
#1424 = SURFACE_CURVE('',#1425,(#1429,#1435),.PCURVE_S1.);
#1425 = LINE('',#1426,#1427);
#1426 = CARTESIAN_POINT('',(37.822240084015,387.14999702256,
    -4.832852754773));
#1427 = VECTOR('',#1428,1.);
#1428 = DIRECTION('',(7.006741029261E-15,-1.,-8.244575171074E-11));
#1429 = PCURVE('',#917,#1430);
#1430 = DEFINITIONAL_REPRESENTATION('',(#1431),#1434);
#1431 = B_SPLINE_CURVE_WITH_KNOTS('',1,(#1432,#1433),.UNSPECIFIED.,.F.,
  .F.,(2,2),(-2.499999610065,2.499999599957),.PIECEWISE_BEZIER_KNOTS.);
#1432 = CARTESIAN_POINT('',(9.997843690852,-4.999999210018));
#1433 = CARTESIAN_POINT('',(9.997843685596,4.021671884402E-12));
#1434 = ( GEOMETRIC_REPRESENTATION_CONTEXT(2) 
PARAMETRIC_REPRESENTATION_CONTEXT() REPRESENTATION_CONTEXT('2D SPACE',''
  ) );
#1435 = PCURVE('',#1176,#1436);
#1436 = DEFINITIONAL_REPRESENTATION('',(#1437),#1440);
#1437 = B_SPLINE_CURVE_WITH_KNOTS('',1,(#1438,#1439),.UNSPECIFIED.,.F.,
  .F.,(2,2),(-2.499999610065,2.499999599957),.PIECEWISE_BEZIER_KNOTS.);
#1438 = CARTESIAN_POINT('',(0.,-4.832852654561));
#1439 = CARTESIAN_POINT('',(4.999999210022,-4.832852654973));
#1440 = ( GEOMETRIC_REPRESENTATION_CONTEXT(2) 
PARAMETRIC_REPRESENTATION_CONTEXT() REPRESENTATION_CONTEXT('2D SPACE',''
  ) );
#1441 = ADVANCED_FACE('',(#1442),#889,.T.);
#1442 = FACE_BOUND('',#1443,.T.);
#1443 = EDGE_LOOP('',(#1444,#1465,#1466,#1467));
#1444 = ORIENTED_EDGE('',*,*,#1445,.F.);
#1445 = EDGE_CURVE('',#1039,#1355,#1446,.T.);
#1446 = SURFACE_CURVE('',#1447,(#1451,#1458),.PCURVE_S1.);
#1447 = LINE('',#1448,#1449);
#1448 = CARTESIAN_POINT('',(47.823121021618,384.64999741221,
    -6.164243613562));
#1449 = VECTOR('',#1450,1.);
#1450 = DIRECTION('',(-2.262044592003E-03,-8.244555640571E-11,
    0.999997441574));
#1451 = PCURVE('',#889,#1452);
#1452 = DEFINITIONAL_REPRESENTATION('',(#1453),#1457);
#1453 = LINE('',#1454,#1455);
#1454 = CARTESIAN_POINT('',(0.,-0.));
#1455 = VECTOR('',#1456,1.);
#1456 = DIRECTION('',(1.,-3.877409121342E-26));
#1457 = ( GEOMETRIC_REPRESENTATION_CONTEXT(2) 
PARAMETRIC_REPRESENTATION_CONTEXT() REPRESENTATION_CONTEXT('2D SPACE',''
  ) );
#1458 = PCURVE('',#1053,#1459);
#1459 = DEFINITIONAL_REPRESENTATION('',(#1460),#1464);
#1460 = LINE('',#1461,#1462);
#1461 = CARTESIAN_POINT('',(47.819229894425,-4.241337654571));
#1462 = VECTOR('',#1463,1.);
#1463 = DIRECTION('',(-2.262044592003E-03,0.999997441574));
#1464 = ( GEOMETRIC_REPRESENTATION_CONTEXT(2) 
PARAMETRIC_REPRESENTATION_CONTEXT() REPRESENTATION_CONTEXT('2D SPACE',''
  ) );
#1465 = ORIENTED_EDGE('',*,*,#1086,.T.);
#1466 = ORIENTED_EDGE('',*,*,#873,.T.);
#1467 = ORIENTED_EDGE('',*,*,#1379,.F.);
#1468 = ADVANCED_FACE('',(#1469),#1053,.T.);
#1469 = FACE_BOUND('',#1470,.T.);
#1470 = EDGE_LOOP('',(#1471,#1472,#1473,#1474,#1493));
#1471 = ORIENTED_EDGE('',*,*,#1036,.T.);
#1472 = ORIENTED_EDGE('',*,*,#1445,.T.);
#1473 = ORIENTED_EDGE('',*,*,#1354,.T.);
#1474 = ORIENTED_EDGE('',*,*,#1475,.T.);
#1475 = EDGE_CURVE('',#1357,#1161,#1476,.T.);
#1476 = SURFACE_CURVE('',#1477,(#1481,#1487),.PCURVE_S1.);
#1477 = LINE('',#1478,#1479);
#1478 = CARTESIAN_POINT('',(37.822240084015,384.64999742228,
    -0.961453029711));
#1479 = VECTOR('',#1480,1.);
#1480 = DIRECTION('',(-1.347186251503E-14,8.482366566956E-11,-1.));
#1481 = PCURVE('',#1053,#1482);
#1482 = DEFINITIONAL_REPRESENTATION('',(#1483),#1486);
#1483 = B_SPLINE_CURVE_WITH_KNOTS('',1,(#1484,#1485),.UNSPECIFIED.,.F.,
  .F.,(2,2),(-0.961452929705,5.038547070295),.PIECEWISE_BEZIER_KNOTS.);
#1484 = CARTESIAN_POINT('',(37.818348956822,1.922905858985));
#1485 = CARTESIAN_POINT('',(37.818348956822,-4.077094141015));
#1486 = ( GEOMETRIC_REPRESENTATION_CONTEXT(2) 
PARAMETRIC_REPRESENTATION_CONTEXT() REPRESENTATION_CONTEXT('2D SPACE',''
  ) );
#1487 = PCURVE('',#1176,#1488);
#1488 = DEFINITIONAL_REPRESENTATION('',(#1489),#1492);
#1489 = B_SPLINE_CURVE_WITH_KNOTS('',1,(#1490,#1491),.UNSPECIFIED.,.F.,
  .F.,(2,2),(-0.961452929705,5.038547070295),.PIECEWISE_BEZIER_KNOTS.);
#1490 = CARTESIAN_POINT('',(4.999999210428,0.));
#1491 = CARTESIAN_POINT('',(4.999999209919,-6.));
#1492 = ( GEOMETRIC_REPRESENTATION_CONTEXT(2) 
PARAMETRIC_REPRESENTATION_CONTEXT() REPRESENTATION_CONTEXT('2D SPACE',''
  ) );
#1493 = ORIENTED_EDGE('',*,*,#1188,.F.);
#1494 = ADVANCED_FACE('',(#1495),#1176,.T.);
#1495 = FACE_BOUND('',#1496,.T.);
#1496 = EDGE_LOOP('',(#1497,#1498,#1519,#1520));
#1497 = ORIENTED_EDGE('',*,*,#1423,.F.);
#1498 = ORIENTED_EDGE('',*,*,#1499,.T.);
#1499 = EDGE_CURVE('',#1403,#1133,#1500,.T.);
#1500 = SURFACE_CURVE('',#1501,(#1505,#1512),.PCURVE_S1.);
#1501 = LINE('',#1502,#1503);
#1502 = CARTESIAN_POINT('',(37.822240084015,389.64999663263,
    -1.000059920051E-07));
#1503 = VECTOR('',#1504,1.);
#1504 = DIRECTION('',(-1.347186251444E-14,3.512815038853E-17,-1.));
#1505 = PCURVE('',#1176,#1506);
#1506 = DEFINITIONAL_REPRESENTATION('',(#1507),#1511);
#1507 = LINE('',#1508,#1509);
#1508 = CARTESIAN_POINT('',(0.,0.));
#1509 = VECTOR('',#1510,1.);
#1510 = DIRECTION('',(-4.388038785292E-30,-1.));
#1511 = ( GEOMETRIC_REPRESENTATION_CONTEXT(2) 
PARAMETRIC_REPRESENTATION_CONTEXT() REPRESENTATION_CONTEXT('2D SPACE',''
  ) );
#1512 = PCURVE('',#1148,#1513);
#1513 = DEFINITIONAL_REPRESENTATION('',(#1514),#1518);
#1514 = LINE('',#1515,#1516);
#1515 = CARTESIAN_POINT('',(5.822924632241,-5.99160980055E-20));
#1516 = VECTOR('',#1517,1.);
#1517 = DIRECTION('',(0.,-1.));
#1518 = ( GEOMETRIC_REPRESENTATION_CONTEXT(2) 
PARAMETRIC_REPRESENTATION_CONTEXT() REPRESENTATION_CONTEXT('2D SPACE',''
  ) );
#1519 = ORIENTED_EDGE('',*,*,#1160,.T.);
#1520 = ORIENTED_EDGE('',*,*,#1475,.F.);
#1521 = ADVANCED_FACE('',(#1522),#1148,.T.);
#1522 = FACE_BOUND('',#1523,.T.);
#1523 = EDGE_LOOP('',(#1524,#1525,#1526,#1527,#1528,#1529));
#1524 = ORIENTED_EDGE('',*,*,#1262,.F.);
#1525 = ORIENTED_EDGE('',*,*,#1236,.T.);
#1526 = ORIENTED_EDGE('',*,*,#1132,.T.);
#1527 = ORIENTED_EDGE('',*,*,#1499,.F.);
#1528 = ORIENTED_EDGE('',*,*,#1402,.F.);
#1529 = ORIENTED_EDGE('',*,*,#1307,.F.);
#1530 = ( GEOMETRIC_REPRESENTATION_CONTEXT(3) 
GLOBAL_UNCERTAINTY_ASSIGNED_CONTEXT((#1534)) 
GLOBAL_UNIT_ASSIGNED_CONTEXT((#1531,#1532,#1533)) REPRESENTATION_CONTEXT
('Context #1','3D Context with UNIT and UNCERTAINTY') );
#1531 = ( LENGTH_UNIT() NAMED_UNIT(*) SI_UNIT(.MILLI.,.METRE.) );
#1532 = ( NAMED_UNIT(*) PLANE_ANGLE_UNIT() SI_UNIT($,.RADIAN.) );
#1533 = ( NAMED_UNIT(*) SI_UNIT($,.STERADIAN.) SOLID_ANGLE_UNIT() );
#1534 = UNCERTAINTY_MEASURE_WITH_UNIT(LENGTH_MEASURE(1.E-07),#1531,
  'distance_accuracy_value','confusion accuracy');
#1535 = CONTEXT_DEPENDENT_SHAPE_REPRESENTATION(#1536,#1538);
#1536 = ( REPRESENTATION_RELATIONSHIP('','',#833,#10) 
REPRESENTATION_RELATIONSHIP_WITH_TRANSFORMATION(#1537) 
SHAPE_REPRESENTATION_RELATIONSHIP() );
#1537 = ITEM_DEFINED_TRANSFORMATION('','',#11,#19);
#1538 = PRODUCT_DEFINITION_SHAPE('Placement','Placement of an item',
  #1539);
#1539 = NEXT_ASSEMBLY_USAGE_OCCURRENCE('2','','',#5,#828,$);
#1540 = PRODUCT_RELATED_PRODUCT_CATEGORY('part',$,(#830));
ENDSEC;
END-ISO-10303-21;
