  0
SECTION
  2
HEADER
  9
$ACADVER
  1
AC1024
  9
$ACADMAINTVER
 70
6
  9
$DWGCODEPAGE
  3
ANSI_1252
  9
$LASTSAVEDBY
  1
ezdxf
  9
$INSBASE
 10
0.0
 20
0.0
 30
0.0
  9
$EXTMIN
 10
1e+20
 20
1e+20
 30
1e+20
  9
$EXTMAX
 10
-1e+20
 20
-1e+20
 30
-1e+20
  9
$LIMMIN
 10
0.0
 20
0.0
  9
$LIMMAX
 10
420.0
 20
297.0
  9
$ORTHOMODE
 70
0
  9
$REGENMODE
 70
1
  9
$FILLMODE
 70
1
  9
$QTEXTMODE
 70
0
  9
$MIRRTEXT
 70
1
  9
$LTSCALE
 40
1.0
  9
$ATTMODE
 70
1
  9
$TEXTSIZE
 40
2.5
  9
$TRACEWID
 40
1.0
  9
$TEXTSTYLE
  7
Standard
  9
$CLAYER
  8
0
  9
$CELTYPE
  6
ByLayer
  9
$CECOLOR
 62
256
  9
$CELTSCALE
 40
1.0
  9
$DISPSILH
 70
0
  9
$DIMSCALE
 40
1.0
  9
$DIMASZ
 40
2.5
  9
$DIMEXO
 40
0.625
  9
$DIMDLI
 40
3.75
  9
$DIMRND
 40
0.0
  9
$DIMDLE
 40
0.0
  9
$DIMEXE
 40
1.25
  9
$DIMTP
 40
0.0
  9
$DIMTM
 40
0.0
  9
$DIMTXT
 40
2.5
  9
$DIMCEN
 40
2.5
  9
$DIMTSZ
 40
0.0
  9
$DIMTOL
 70
0
  9
$DIMLIM
 70
0
  9
$DIMTIH
 70
0
  9
$DIMTOH
 70
0
  9
$DIMSE1
 70
0
  9
$DIMSE2
 70
0
  9
$DIMTAD
 70
1
  9
$DIMZIN
 70
8
  9
$DIMBLK
  1

  9
$DIMASO
 70
1
  9
$DIMSHO
 70
1
  9
$DIMPOST
  1

  9
$DIMAPOST
  1

  9
$DIMALT
 70
0
  9
$DIMALTD
 70
3
  9
$DIMALTF
 40
0.03937007874
  9
$DIMLFAC
 40
1.0
  9
$DIMTOFL
 70
1
  9
$DIMTVP
 40
0.0
  9
$DIMTIX
 70
0
  9
$DIMSOXD
 70
0
  9
$DIMSAH
 70
0
  9
$DIMBLK1
  1

  9
$DIMBLK2
  1

  9
$DIMSTYLE
  2
ISO-25
  9
$DIMCLRD
 70
0
  9
$DIMCLRE
 70
0
  9
$DIMCLRT
 70
0
  9
$DIMTFAC
 40
1.0
  9
$DIMGAP
 40
0.625
  9
$DIMJUST
 70
0
  9
$DIMSD1
 70
0
  9
$DIMSD2
 70
0
  9
$DIMTOLJ
 70
0
  9
$DIMTZIN
 70
8
  9
$DIMALTZ
 70
0
  9
$DIMALTTZ
 70
0
  9
$DIMUPT
 70
0
  9
$DIMDEC
 70
2
  9
$DIMTDEC
 70
2
  9
$DIMALTU
 70
2
  9
$DIMALTTD
 70
3
  9
$DIMTXSTY
  7
Standard
  9
$DIMAUNIT
 70
0
  9
$DIMADEC
 70
0
  9
$DIMALTRND
 40
0.0
  9
$DIMAZIN
 70
0
  9
$DIMDSEP
 70
44
  9
$DIMATFIT
 70
3
  9
$DIMFRAC
 70
0
  9
$DIMLDRBLK
  1

  9
$DIMLUNIT
 70
2
  9
$DIMLWD
 70
-2
  9
$DIMLWE
 70
-2
  9
$DIMTMOVE
 70
0
  9
$DIMFXL
 40
1.0
  9
$DIMFXLON
 70
0
  9
$DIMJOGANG
 40
0.785398163397
  9
$DIMTFILL
 70
0
  9
$DIMTFILLCLR
 70
0
  9
$DIMARCSYM
 70
0
  9
$DIMLTYPE
  6

  9
$DIMLTEX1
  6

  9
$DIMLTEX2
  6

  9
$DIMTXTDIRECTION
 70
0
  9
$LUNITS
 70
2
  9
$LUPREC
 70
4
  9
$SKETCHINC
 40
1.0
  9
$FILLETRAD
 40
10.0
  9
$AUNITS
 70
0
  9
$AUPREC
 70
2
  9
$MENU
  1
.
  9
$ELEVATION
 40
0.0
  9
$PELEVATION
 40
0.0
  9
$THICKNESS
 40
0.0
  9
$LIMCHECK
 70
0
  9
$CHAMFERA
 40
0.0
  9
$CHAMFERB
 40
0.0
  9
$CHAMFERC
 40
0.0
  9
$CHAMFERD
 40
0.0
  9
$SKPOLY
 70
0
  9
$TDCREATE
 40
2461316.723159722
  9
$TDUCREATE
 40
2458532.153996898
  9
$TDUPDATE
 40
2461316.7231828705
  9
$TDUUPDATE
 40
2458532.1544311
  9
$TDINDWG
 40
0.0
  9
$TDUSRTIMER
 40
0.0
  9
$USRTIMER
 70
1
  9
$ANGBASE
 50
0.0
  9
$ANGDIR
 70
0
  9
$PDMODE
 70
0
  9
$PDSIZE
 40
0.0
  9
$PLINEWID
 40
0.0
  9
$SPLFRAME
 70
0
  9
$SPLINETYPE
 70
6
  9
$SPLINESEGS
 70
8
  9
$HANDSEED
  5
34
  9
$SURFTAB1
 70
6
  9
$SURFTAB2
 70
6
  9
$SURFTYPE
 70
6
  9
$SURFU
 70
6
  9
$SURFV
 70
6
  9
$UCSBASE
  2

  9
$UCSNAME
  2

  9
$UCSORG
 10
0.0
 20
0.0
 30
0.0
  9
$UCSXDIR
 10
1.0
 20
0.0
 30
0.0
  9
$UCSYDIR
 10
0.0
 20
1.0
 30
0.0
  9
$UCSORTHOREF
  2

  9
$UCSORTHOVIEW
 70
0
  9
$UCSORGTOP
 10
0.0
 20
0.0
 30
0.0
  9
$UCSORGBOTTOM
 10
0.0
 20
0.0
 30
0.0
  9
$UCSORGLEFT
 10
0.0
 20
0.0
 30
0.0
  9
$UCSORGRIGHT
 10
0.0
 20
0.0
 30
0.0
  9
$UCSORGFRONT
 10
0.0
 20
0.0
 30
0.0
  9
$UCSORGBACK
 10
0.0
 20
0.0
 30
0.0
  9
$PUCSBASE
  2

  9
$PUCSNAME
  2

  9
$PUCSORG
 10
0.0
 20
0.0
 30
0.0
  9
$PUCSXDIR
 10
1.0
 20
0.0
 30
0.0
  9
$PUCSYDIR
 10
0.0
 20
1.0
 30
0.0
  9
$PUCSORTHOREF
  2

  9
$PUCSORTHOVIEW
 70
0
  9
$PUCSORGTOP
 10
0.0
 20
0.0
 30
0.0
  9
$PUCSORGBOTTOM
 10
0.0
 20
0.0
 30
0.0
  9
$PUCSORGLEFT
 10
0.0
 20
0.0
 30
0.0
  9
$PUCSORGRIGHT
 10
0.0
 20
0.0
 30
0.0
  9
$PUCSORGFRONT
 10
0.0
 20
0.0
 30
0.0
  9
$PUCSORGBACK
 10
0.0
 20
0.0
 30
0.0
  9
$USERI1
 70
0
  9
$USERI2
 70
0
  9
$USERI3
 70
0
  9
$USERI4
 70
0
  9
$USERI5
 70
0
  9
$USERR1
 40
0.0
  9
$USERR2
 40
0.0
  9
$USERR3
 40
0.0
  9
$USERR4
 40
0.0
  9
$USERR5
 40
0.0
  9
$WORLDVIEW
 70
1
  9
$SHADEDGE
 70
3
  9
$SHADEDIF
 70
70
  9
$TILEMODE
 70
1
  9
$MAXACTVP
 70
64
  9
$PINSBASE
 10
0.0
 20
0.0
 30
0.0
  9
$PLIMCHECK
 70
0
  9
$PEXTMIN
 10
1e+20
 20
1e+20
 30
1e+20
  9
$PEXTMAX
 10
-1e+20
 20
-1e+20
 30
-1e+20
  9
$PLIMMIN
 10
0.0
 20
0.0
  9
$PLIMMAX
 10
420.0
 20
297.0
  9
$UNITMODE
 70
0
  9
$VISRETAIN
 70
1
  9
$PLINEGEN
 70
0
  9
$PSLTSCALE
 70
1
  9
$TREEDEPTH
 70
3020
  9
$CMLSTYLE
  2
Standard
  9
$CMLJUST
 70
0
  9
$CMLSCALE
 40
20.0
  9
$PROXYGRAPHICS
 70
1
  9
$MEASUREMENT
 70
1
  9
$CELWEIGHT
370
-1
  9
$ENDCAPS
280
0
  9
$JOINSTYLE
280
0
  9
$LWDISPLAY
290
0
  9
$INSUNITS
 70
4
  9
$HYPERLINKBASE
  1

  9
$STYLESHEET
  1

  9
$XEDIT
290
1
  9
$CEPSNTYPE
380
0
  9
$PSTYLEMODE
290
1
  9
$FINGERPRINTGUID
  2
{0ADCC886-05EB-4D94-BC94-9F84AAEE80F8}
  9
$VERSIONGUID
  2
{4173D0DA-D068-4078-AF77-EF9CE2881B2D}
  9
$EXTNAMES
290
1
  9
$PSVPSCALE
 40
0.0
  9
$OLESTARTUP
290
0
  9
$SORTENTS
280
127
  9
$INDEXCTL
280
0
  9
$HIDETEXT
280
1
  9
$XCLIPFRAME
280
1
  9
$HALOGAP
280
0
  9
$OBSCOLOR
 70
257
  9
$OBSLTYPE
280
0
  9
$INTERSECTIONDISPLAY
280
0
  9
$INTERSECTIONCOLOR
 70
257
  9
$DIMASSOC
280
2
  9
$PROJECTNAME
  1

  9
$CAMERADISPLAY
290
0
  9
$LENSLENGTH
 40
50.0
  9
$CAMERAHEIGHT
 40
0.0
  9
$STEPSPERSEC
 40
24.0
  9
$STEPSIZE
 40
100.0
  9
$3DDWFPREC
 40
2.0
  9
$PSOLWIDTH
 40
0.005
  9
$PSOLHEIGHT
 40
0.08
  9
$LOFTANG1
 40
1.570796326795
  9
$LOFTANG2
 40
1.570796326795
  9
$LOFTMAG1
 40
0.0
  9
$LOFTMAG2
 40
0.0
  9
$LOFTPARAM
 70
7
  9
$LOFTNORMALS
280
1
  9
$LATITUDE
 40
37.795
  9
$LONGITUDE
 40
-122.394
  9
$NORTHDIRECTION
 40
0.0
  9
$TIMEZONE
 70
-8000
  9
$LIGHTGLYPHDISPLAY
280
1
  9
$TILEMODELIGHTSYNCH
280
1
  9
$CMATERIAL
347
20
  9
$SOLIDHIST
280
0
  9
$SHOWHIST
280
1
  9
$DWFFRAME
280
2
  9
$DGNFRAME
280
2
  9
$REALWORLDSCALE
290
1
  9
$INTERFERECOLOR
 62
256
  9
$CSHADOW
280
0
  9
$SHADOWPLANELOCATION
 40
0.0
  0
ENDSEC
  0
SECTION
  2
CLASSES
  0
CLASS
  1
ACDBDICTIONARYWDFLT
  2
AcDbDictionaryWithDefault
  3
ObjectDBX Classes
 90
0
 91
0
280
0
281
0
  0
CLASS
  1
SUN
  2
AcDbSun
  3
SCENEOE
 90
1153
 91
0
280
0
281
0
  0
CLASS
  1
VISUALSTYLE
  2
AcDbVisualStyle
  3
ObjectDBX Classes
 90
4095
 91
0
280
0
281
0
  0
CLASS
  1
MATERIAL
  2
AcDbMaterial
  3
ObjectDBX Classes
 90
1153
 91
0
280
0
281
0
  0
CLASS
  1
SCALE
  2
AcDbScale
  3
ObjectDBX Classes
 90
1153
 91
0
280
0
281
0
  0
CLASS
  1
TABLESTYLE
  2
AcDbTableStyle
  3
ObjectDBX Classes
 90
4095
 91
0
280
0
281
0
  0
CLASS
  1
MLEADERSTYLE
  2
AcDbMLeaderStyle
  3
ACDB_MLEADERSTYLE_CLASS
 90
4095
 91
0
280
0
281
0
  0
CLASS
  1
DICTIONARYVAR
  2
AcDbDictionaryVar
  3
ObjectDBX Classes
 90
0
 91
0
280
0
281
0
  0
CLASS
  1
CELLSTYLEMAP
  2
AcDbCellStyleMap
  3
ObjectDBX Classes
 90
1152
 91
0
280
0
281
0
  0
CLASS
  1
MENTALRAYRENDERSETTINGS
  2
AcDbMentalRayRenderSettings
  3
SCENEOE
 90
1024
 91
0
280
0
281
0
  0
CLASS
  1
ACDBDETAILVIEWSTYLE
  2
AcDbDetailViewStyle
  3
ObjectDBX Classes
 90
1025
 91
0
280
0
281
0
  0
CLASS
  1
ACDBSECTIONVIEWSTYLE
  2
AcDbSectionViewStyle
  3
ObjectDBX Classes
 90
1025
 91
0
280
0
281
0
  0
CLASS
  1
RASTERVARIABLES
  2
AcDbRasterVariables
  3
ISM
 90
0
 91
0
280
0
281
0
  0
CLASS
  1
LAYOUT
  2
AcDbLayout
  3
ObjectDBX Classes
 90
0
 91
0
280
0
281
0
  0
CLASS
  1
ACDBPLACEHOLDER
  2
AcDbPlaceHolder
  3
ObjectDBX Classes
 90
0
 91
0
280
0
281
0
  0
ENDSEC
  0
SECTION
  2
TABLES
  0
TABLE
  2
VPORT
  5
8
330
0
100
AcDbSymbolTable
 70
1
  0
VPORT
  5
23
330
8
100
AcDbSymbolTableRecord
100
AcDbViewportTableRecord
  2
*Active
 70
0
 10
0.0
 20
0.0
 11
1.0
 21
1.0
 12
0.0
 22
0.0
 13
0.0
 23
0.0
 14
0.5
 24
0.5
 15
0.5
 25
0.5
 16
0.0
 26
0.0
 36
1.0
 17
0.0
 27
0.0
 37
0.0
 40
1000.0
 41
1.34
 42
50.0
 43
0.0
 44
0.0
 50
0.0
 51
0.0
 71
0
 72
1000
 73
1
 74
3
 75
0
 76
0
 77
0
 78
0
281
0
 65
0
146
0.0
  0
ENDTAB
  0
TABLE
  2
LTYPE
  5
2
330
0
100
AcDbSymbolTable
 70
3
  0
LTYPE
  5
24
330
2
100
AcDbSymbolTableRecord
100
AcDbLinetypeTableRecord
  2
ByBlock
 70
0
  3

 72
65
 73
0
 40
0.0
  0
LTYPE
  5
25
330
2
100
AcDbSymbolTableRecord
100
AcDbLinetypeTableRecord
  2
ByLayer
 70
0
  3

 72
65
 73
0
 40
0.0
  0
LTYPE
  5
26
330
2
100
AcDbSymbolTableRecord
100
AcDbLinetypeTableRecord
  2
Continuous
 70
0
  3

 72
65
 73
0
 40
0.0
  0
ENDTAB
  0
TABLE
  2
LAYER
  5
1
330
0
100
AcDbSymbolTable
 70
3
  0
LAYER
  5
27
330
1
100
AcDbSymbolTableRecord
100
AcDbLayerTableRecord
  2
0
 70
0
 62
7
  6
Continuous
370
-3
390
13
347
21
  0
LAYER
  5
28
330
1
100
AcDbSymbolTableRecord
100
AcDbLayerTableRecord
  2
Defpoints
 70
0
 62
7
  6
Continuous
290
0
370
-3
390
13
347
21
  0
LAYER
  5
2F
330
1
100
AcDbSymbolTableRecord
100
AcDbLayerTableRecord
  2
PARING_TEMPLATE_DO_NOT_LASER
 70
0
 62
7
  6
Continuous
370
-3
390
13
347
21
  0
ENDTAB
  0
TABLE
  2
STYLE
  5
5
330
0
100
AcDbSymbolTable
 70
1
  0
STYLE
  5
29
330
5
100
AcDbSymbolTableRecord
100
AcDbTextStyleTableRecord
  2
Standard
 70
0
 40
0.0
 41
1.0
 50
0.0
 71
0
 42
2.5
  3
txt
  4

  0
ENDTAB
  0
TABLE
  2
VIEW
  5
7
330
0
100
AcDbSymbolTable
 70
0
  0
ENDTAB
  0
TABLE
  2
UCS
  5
6
330
0
100
AcDbSymbolTable
 70
0
  0
ENDTAB
  0
TABLE
  2
APPID
  5
3
330
0
100
AcDbSymbolTable
 70
3
  0
APPID
  5
2A
330
3
100
AcDbSymbolTableRecord
100
AcDbRegAppTableRecord
  2
ACAD
 70
0
  0
APPID
  5
31
330
3
100
AcDbSymbolTableRecord
100
AcDbRegAppTableRecord
  2
HATCHBACKGROUNDCOLOR
 70
0
  0
APPID
  5
32
330
3
100
AcDbSymbolTableRecord
100
AcDbRegAppTableRecord
  2
EZDXF
 70
0
  0
ENDTAB
  0
TABLE
  2
DIMSTYLE
  5
4
330
0
100
AcDbSymbolTable
 70
1
100
AcDbDimStyleTable
  0
DIMSTYLE
105
2B
330
4
100
AcDbSymbolTableRecord
100
AcDbDimStyleTableRecord
  2
Standard
 70
0
 40
1.0
 41
2.5
 42
0.625
 43
3.75
 44
1.25
 45
0.0
 46
0.0
 47
0.0
 48
0.0
 49
2.5
140
2.5
141
2.5
142
0.0
143
0.03937007874
144
1.0
145
0.0
146
1.0
147
0.625
148
0.0
 69
0
 70
0
 71
0
 72
0
 73
0
 74
0
 75
0
 76
0
 77
1
 78
8
 79
3
170
0
171
3
172
1
173
0
174
0
175
0
176
0
177
0
178
0
179
2
271
2
272
2
273
2
274
3
275
0
276
0
277
2
278
44
279
0
280
0
281
0
282
0
283
0
284
8
285
0
286
0
288
0
289
3
290
0
371
-2
372
-2
  0
ENDTAB
  0
TABLE
  2
BLOCK_RECORD
  5
9
330
0
100
AcDbSymbolTable
 70
2
  0
BLOCK_RECORD
  5
17
330
9
100
AcDbSymbolTableRecord
100
AcDbBlockTableRecord
  2
*Model_Space
340
1A
 70
0
280
1
281
0
  0
BLOCK_RECORD
  5
1B
330
9
100
AcDbSymbolTableRecord
100
AcDbBlockTableRecord
  2
*Paper_Space
340
1E
 70
0
280
1
281
0
  0
ENDTAB
  0
ENDSEC
  0
SECTION
  2
BLOCKS
  0
BLOCK
  5
18
330
17
100
AcDbEntity
  8
0
100
AcDbBlockBegin
  2
*Model_Space
 70
0
 10
0.0
 20
0.0
 30
0.0
  3
*Model_Space
  1

  0
ENDBLK
  5
19
330
17
100
AcDbEntity
  8
0
100
AcDbBlockEnd
  0
BLOCK
  5
1C
330
1B
100
AcDbEntity
  8
0
100
AcDbBlockBegin
  2
*Paper_Space
 70
0
 10
0.0
 20
0.0
 30
0.0
  3
*Paper_Space
  1

  0
ENDBLK
  5
1D
330
1B
100
AcDbEntity
  8
0
100
AcDbBlockEnd
  0
ENDSEC
  0
SECTION
  2
ENTITIES
  0
LWPOLYLINE
  5
30
330
17
100
AcDbEntity
  8
PARING_TEMPLATE_DO_NOT_LASER
100
AcDbPolyline
 90
524
 70
1
 10
102.32992141269278
 20
7.39483342504
 10
104.17807094275278
 20
7.023515675152
 10
105.64512775553277
 20
6.724157664512999
 10
109.55011653606277
 20
5.905974073478999
 10
113.39392251263277
 20
5.072620022476
 10
75.64460810914278
 20
5.005215099593
 10
70.69891392230278
 20
0.0466173730530004
 10
70.69892109724277
 20
0.03797837334700027
 10
58.94765302491277
 20
0.028218607506000026
 10
58.93743377052277
 20
12.332735020146
 10
36.13744163398478
 20
12.313798886327
 10
36.14766088848077
 20
0.009282558813000108
 10
24.97097501437878
 20
0.0
 10
19.869730464405777
 20
4.970876537452
 10
17.360502125688768
 20
5.017633352032
 10
14.745739444381769
 20
5.086900074937001
 10
11.741302461709779
 20
5.197018741043999
 10
10.507929478634772
 20
5.256968103833
 10
10.487588662117773
 20
5.240050825311
 10
10.450420610144775
 20
5.209683253104
 10
10.412988969720772
 20
5.179641185526
 10
10.375296591408777
 20
5.149926910396999
 10
10.337346345631772
 20
5.120542690574
 10
10.299141122445775
 20
5.0914907637789995
 10
10.260683831326773
 20
5.062773342429001
 10
10.221977400946777
 20
5.034392613466
 10
10.183024778950774
 20
5.0063507381929995
 10
10.143828931731775
 20
4.978649852108001
 10
10.104392844203772
 20
4.951292064739
 10
10.064719519578773
 20
4.924279459489
 10
10.024811979133773
 20
4.897614093472001
 10
9.98467326198277
 20
4.871297997358001
 10
9.944306424843774
 20
4.8453331752210005
 10
9.903714541808775
 20
4.819721604382
 10
9.862900704105776
 20
4.794465235262001
 10
9.821868019866777
 20
4.7695659912299995
 10
9.780619613889776
 20
4.745025768461
 10
9.739158627400776
 20
4.720846435786999
 10
9.69748821781377
 20
4.697029834558
 10
9.655611558492772
 20
4.673577778501
 10
9.613531838506773
 20
4.650492053581001
 10
9.571252262389777
 20
4.627774417865
 10
9.528776049894773
 20
4.605426601388
 10
9.486106435749775
 20
4.583450306024
 10
9.44324666941177
 20
4.5618472053520005
 10
9.400200014816775
 20
4.540618944533
 10
9.356969750135775
 20
4.519767140180001
 10
9.313559167518775
 20
4.499293380239999
 10
9.269971572851773
 20
4.479199223867001
 10
9.226210285497771
 20
4.459486201311
 10
9.182278638047777
 20
4.440155813794
 10
9.138179976068777
 20
4.421209533400001
 10
9.093917657841772
 20
4.402648802961
 10
9.049495054115773
 20
4.384475035949
 10
9.004915547843773
 20
4.366689616366999
 10
8.960182533926776
 20
4.349293898642999
 10
8.915299418957773
 20
4.332289207529
 10
8.870269620960777
 20
4.315676837997
 10
8.82509656912677
 20
4.299458055144001
 10
8.779783703559772
 20
4.283634094092999
 10
8.734334475010776
 20
4.2682061599
 10
8.688752344613775
 20
4.2531754274610005
 10
8.643040783623775
 20
4.238543041426
 10
8.597203273153774
 20
4.2243101161070005
 10
8.551243303907775
 20
4.210477735396999
 10
8.505164375915776
 20
4.1970469526839995
 10
8.458969998265772
 20
4.184018790774999
 10
8.412663688838776
 20
4.171394241814999
 10
8.36624897403977
 20
4.159174267212
 10
8.319729388527776
 20
4.1473597975650005
 10
8.273108474951776
 20
4.135951732591
 10
8.22638978367177
 20
4.124950941058
 10
8.179576872499773
 20
4.1143582607199995
 10
8.132673306417772
 20
4.104174498249
 10
8.085682657316774
 20
4.09440042918
 10
8.038608503713775
 20
4.085036797843999
 10
7.991454430488773
 20
4.076084317318999
 10
7.944224028608772
 20
4.067543669372
 10
7.896920894848776
 20
4.059415504404001
 10
7.8495486315277745
 20
4.051700441408
 10
7.802110846225773
 20
4.044399067916
 10
7.754611151514773
 20
4.0375119399549995
 10
7.707053164680772
 20
4.031039582007001
 10
7.659440507446774
 20
4.024982486966
 10
7.611776805701773
 20
4.019341116105
 10
7.564065689221771
 20
4.014115899035
 10
7.516310791392776
 20
4.009307233676999
 10
7.468515748934777
 20
4.004915486230001
 10
7.420684201625775
 20
4.000940991141
 10
7.372819792022774
 20
3.9973840510839995
 10
7.324926165186774
 20
3.994244936935001
 10
7.277006968401771
 20
3.9915238877480004
 10
7.229065850899772
 20
3.9892211107419993
 10
7.181106463584776
 20
3.987336781282
 10
7.133132458747774
 20
3.985871042868
 10
7.085147489795773
 20
3.9848240071210004
 10
7.037155210969772
 20
3.9841957537759995
 10
6.989159277066776
 20
3.9839863306790004
 10
6.941163343164774
 20
3.9841957537759995
 10
6.893171064338773
 20
3.9848240071210004
 10
6.84518609538577
 20
3.985871042868
 10
6.797212090548776
 20
3.987336781282
 10
6.749252703233772
 20
3.9892211107419993
 10
6.701311585732775
 20
3.9915238877480004
 10
6.653392388947772
 20
3.994244936935001
 10
6.605498762110777
 20
3.9973840510839995
 10
6.557634352507776
 20
4.000940991141
 10
6.509802805198774
 20
4.004915486230001
 10
6.462007762740775
 20
4.009307233676999
 10
6.414252864911774
 20
4.014115899035
 10
6.3665417484317715
 20
4.019341116105
 10
6.318878046687772
 20
4.024982486966
 10
6.271265389453774
 20
4.031039582007001
 10
6.223707402618771
 20
4.0375119399549995
 10
6.176207707907771
 20
4.044399067916
 10
6.128769922605777
 20
4.051700441408
 10
6.081397659284775
 20
4.059415504404001
 10
6.034094525525774
 20
4.067543669372
 10
5.9868641236447715
 20
4.076084317318999
 10
5.939710050419777
 20
4.085036797843999
 10
5.892635896817772
 20
4.09440042918
 10
5.8456452477157725
 20
4.104174498249
 10
5.798741681634773
 20
4.1143582607199995
 10
5.751928770461774
 20
4.124950941058
 10
5.705210079182777
 20
4.135951732591
 10
5.658589165605775
 20
4.1473597975650005
 10
5.612069580093774
 20
4.159174267212
 10
5.565654865294775
 20
4.171394241814999
 10
5.519348555867772
 20
4.184018790774999
 10
5.473154178217776
 20
4.1970469526839995
 10
5.427075250225776
 20
4.210477735396999
 10
5.38111528097977
 20
4.2243101161070005
 10
5.3352777705097765
 20
4.238543041426
 10
5.289566209520771
 20
4.2531754274610005
 10
5.243984079122775
 20
4.2682061599
 10
5.198534850573772
 20
4.283634094092999
 10
5.153221985006773
 20
4.299458055144001
 10
5.108048933173777
 20
4.315676837997
 10
5.063019135175772
 20
4.332289207529
 10
5.018136020206775
 20
4.349293898642999
 10
4.973403006289772
 20
4.366689616366999
 10
4.928823500017771
 20
4.384475035949
 10
4.884400896291773
 20
4.402648802961
 10
4.840138578065776
 20
4.421209533400001
 10
4.796039916085775
 20
4.440155813794
 10
4.752108268635773
 20
4.459486201311
 10
4.708346981281771
 20
4.479199223867001
 10
4.664759386614776
 20
4.499293380239999
 10
4.621348803997776
 20
4.519767140180001
 10
4.578118539316776
 20
4.540618944533
 10
4.5350718847217735
 20
4.5618472053520005
 10
4.492212118383776
 20
4.583450306024
 10
4.449542504238771
 20
4.605426601388
 10
4.407066291743774
 20
4.627774417865
 10
4.364786715626771
 20
4.650492053581001
 10
4.322706995640772
 20
4.673577778501
 10
4.280830336319774
 20
4.697029834558
 10
4.239159926732775
 20
4.720846435786999
 10
4.197698940243775
 20
4.745025768461
 10
4.156450534266774
 20
4.7695659912299995
 10
4.115417850028777
 20
4.794465235262001
 10
4.074604012325771
 20
4.819721604382
 10
4.034012129289771
 20
4.8453331752210005
 10
3.9936452921517755
 20
4.871297997358001
 10
3.9535065749997713
 20
4.897614093472001
 10
3.913599034554771
 20
4.924279459489
 10
3.8739257099297717
 20
4.951292064739
 10
3.8344896224027707
 20
4.978649852108001
 10
3.7952937751827704
 20
5.0063507381929995
 10
3.7563411531867743
 20
5.034392613466
 10
3.717634722806771
 20
5.062773342429001
 10
3.6791774316877763
 20
5.0914907637789995
 10
3.640972208501772
 20
5.120542690574
 10
3.6030219627247746
 20
5.149926910396999
 10
3.5653295844137745
 20
5.179641185526
 10
3.5278979439887763
 20
5.209683253104
 10
3.4907298920157714
 20
5.240050825311
 10
3.453828258985773
 20
5.270741589538
 10
3.417195855099777
 20
5.301753208566
 10
3.380835470057775
 20
5.33308332074
 10
3.344749872843771
 20
5.364729540149
 10
3.3089418115157727
 20
5.396689456813
 10
3.273414012996774
 20
5.428960636858999
 10
3.238169182865775
 20
5.4615406227120005
 10
3.2032100051527763
 20
5.494426933281
 10
3.168539142134776
 20
5.527617064145
 10
3.134159234131772
 20
5.561108487747999
 10
3.1000728993077757
 20
5.594898653587
 10
3.066282733467773
 20
5.628984988411
 10
3.0327913098657717
 20
5.663364896414
 10
2.999601179001772
 20
5.698035759432001
 10
2.966714868432774
 20
5.7329949371449995
 10
2.9347789316767745
 20
5.767543038888
 10
1.9128442575267712
 20
5.860508463118
 10
1.0538801438247773
 20
5.956372423105
 10
0.21079822736077602
 20
6.067152001807001
 10
-2.2737367544323206e-13
 20
6.1012453309920005
 10
-2.2737367544323206e-13
 20
9.101245330992
 10
0.27320190554177515
 20
9.233105566771
 10
1.1096380711257723
 20
9.601587931208
 10
1.4959708555357736
 20
9.756691648784
 10
1.496698133467774
 20
9.771832722681
 10
1.499419182655771
 20
9.819751919466
 10
1.5025582968047715
 20
9.867645546302
 10
1.506115236861774
 20
9.915509955905002
 10
1.5100897319497761
 20
9.963341503214
 10
1.514481479397773
 20
10.011136545671999
 10
1.5192901447557716
 20
10.058891443501
 10
1.5245153618257703
 20
10.106602559980999
 10
1.5301567326867769
 20
10.154266261726
 10
1.536213827726776
 20
10.201878918959999
 10
1.5426861856757768
 20
10.249436905795001
 10
1.5495733136367704
 20
10.296936600506001
 10
1.5568746871287757
 20
10.344374385807
 10
1.5645897501247745
 20
10.391746649127999
 10
1.572717915091772
 20
10.439049782887999
 10
1.5812585630397749
 20
10.486280184769
 10
1.5902110435647714
 20
10.533434257993001
 10
1.5995746748997703
 20
10.580508411596
 10
1.6093487439697753
 20
10.627499060698
 10
1.619532506439775
 20
10.674402626778999
 10
1.630125186778777
 20
10.721215537951998
 10
1.6411259783107752
 20
10.767934229230999
 10
1.652534043285776
 20
10.814555142808
 10
1.6643485129327757
 20
10.861074728319
 10
1.676568487535775
 20
10.907489443118
 10
1.689193036495773
 20
10.953795752545002
 10
1.7022211984047715
 20
10.999990130195002
 10
1.7156519811167712
 20
11.046069058188
 10
1.7294843618277724
 20
11.092029027433998
 10
1.7437172871467723
 20
11.137866537903001
 10
1.758349673181776
 20
11.183578098893001
 10
1.7733804056197755
 20
11.229160229289999
 10
1.7888083398137766
 20
11.27460945784
 10
1.8046323008647747
 20
11.319922323406
 10
1.820851083716775
 20
11.36509537524
 10
1.8374634532487732
 20
11.410125173238
 10
1.8544681443637714
 20
11.455008288207
 10
1.8718638620867765
 20
11.499741302122999
 10
1.8896492816697759
 20
11.544320808396002
 10
1.9078230486807755
 20
11.588743412122
 10
1.9263837791197744
 20
11.633005730348
 10
1.9453300595147738
 20
11.677104392328001
 10
1.9646604470317754
 20
11.721036039777001
 10
1.9843734695877728
 20
11.764797327131
 10
2.0044676259597765
 20
11.808384921799
 10
2.0249413859007745
 20
11.851795504415001
 10
2.045793190253775
 20
11.895025769097
 10
2.067021451072776
 20
11.938072423691
 10
2.088624551744772
 20
11.980932190029002
 10
2.1106008471087705
 20
12.023601804174
 10
2.132948663584777
 20
12.066078016669
 10
2.155666299301771
 20
12.108357592787002
 10
2.1787520242217724
 20
12.150437312773
 10
2.2022040802787757
 20
12.192313972093999
 10
2.2260206815067747
 20
12.23398438168
 10
2.250200014180777
 20
12.275445368168999
 10
2.2747402369507768
 20
12.316693774146
 10
2.2996394809817744
 20
12.357726458384999
 10
2.324895850102777
 20
12.398540296088001
 10
2.3505074209417742
 20
12.439132179123
 10
2.376472243078773
 20
12.479499016262
 10
2.4027883391917726
 20
12.519637733413
 10
2.4294537052097738
 20
12.559545273858
 10
2.456466310459774
 20
12.599218598482999
 10
2.483824097827771
 20
12.638654686011002
 10
2.511524983913773
 20
12.677850533230998
 10
2.5395668591867704
 20
12.716803155227002
 10
2.567947588149771
 20
12.755509585606
 10
2.596665009499773
 20
12.793966876725001
 10
2.625716936294772
 20
12.832172099910998
 10
2.655101156117773
 20
12.870122345689001
 10
2.6848154312467756
 20
12.907814724000001
 10
2.7148574988247773
 20
12.945246364424001
 10
2.7452250710307737
 20
12.982414416396999
 10
2.775915835258772
 20
13.019316049428
 10
2.8069274542867717
 20
13.055948453313999
 10
2.838257566459774
 20
13.092308838356
 10
2.8699037858697736
 20
13.128394435569
 10
2.901863702532772
 20
13.164202496897001
 10
2.9341348825797766
 20
13.199730295416
 10
2.966714868432774
 20
13.234975125548
 10
2.999601179001772
 20
13.269934303261
 10
3.0327913098657717
 20
13.304605166279
 10
3.066282733467773
 20
13.338985074282
 10
3.1000728993077757
 20
13.373071409106
 10
3.134159234131772
 20
13.406861574945001
 10
3.168539142134776
 20
13.440352998548
 10
3.2032100051527763
 20
13.473543129412
 10
3.238169182865775
 20
13.50642943998
 10
3.273414012996774
 20
13.539009425834
 10
3.3089418115157727
 20
13.571280605879998
 10
3.344749872843771
 20
13.603240522543999
 10
3.380835470057775
 20
13.634886741953
 10
3.417195855099777
 20
13.666216854127
 10
3.453828258985773
 20
13.697228473155
 10
3.4907298920157714
 20
13.727919237382
 10
3.5278979439887763
 20
13.758286809588999
 10
3.5653295844137745
 20
13.788328877167
 10
3.6030219627247746
 20
13.818043152296
 10
3.640972208501772
 20
13.847427372119
 10
3.6791774316877763
 20
13.876479298914
 10
3.717634722806771
 20
13.905196720264001
 10
3.7563411531867743
 20
13.933577449226998
 10
3.7952937751827704
 20
13.961619324499999
 10
3.8344896224027707
 20
13.989320210585
 10
3.8739257099297717
 20
14.016677997954002
 10
3.913599034554771
 20
14.043690603203999
 10
3.9535065749997713
 20
14.070355969221001
 10
3.9936452921517755
 20
14.096672065335
 10
4.034012129289771
 20
14.122636887472002
 10
4.074604012325771
 20
14.148248458310999
 10
4.115417850028777
 20
14.173504827431
 10
4.156450534266774
 20
14.198404071462999
 10
4.197698940243775
 20
14.222944294232
 10
4.239159926732775
 20
14.247123626906
 10
4.280830336319774
 20
14.270940228135
 10
4.322706995640772
 20
14.294392284192
 10
4.364786715626771
 20
14.317478009112001
 10
4.407066291743774
 20
14.340195644828
 10
4.449542504238771
 20
14.362543461305002
 10
4.492212118383776
 20
14.384519756669
 10
4.5350718847217735
 20
14.406122857341
 10
4.578118539316776
 20
14.42735111816
 10
4.621348803997776
 20
14.448202922513001
 10
4.664759386614776
 20
14.468676682453001
 10
4.708346981281771
 20
14.488770838825001
 10
4.752108268635773
 20
14.508483861382
 10
4.796039916085775
 20
14.527814248898999
 10
4.840138578065776
 20
14.546760529293
 10
4.884400896291773
 20
14.565321259731999
 10
4.928823500017771
 20
14.583495026744
 10
4.973403006289772
 20
14.601280446326001
 10
5.018136020206775
 20
14.618676164050001
 10
5.063019135175772
 20
14.635680855164
 10
5.108048933173777
 20
14.652293224695999
 10
5.153221985006773
 20
14.668512007549001
 10
5.198534850573772
 20
14.6843359686
 10
5.243984079122775
 20
14.699763902792998
 10
5.289566209520771
 20
14.714794635231002
 10
5.3352777705097765
 20
14.729427021267
 10
5.38111528097977
 20
14.743659946586
 10
5.427075250225776
 20
14.757492327296
 10
5.473154178217776
 20
14.770923110009
 10
5.519348555867772
 20
14.783951271918
 10
5.565654865294775
 20
14.796575820878001
 10
5.612069580093774
 20
14.808795795481
 10
5.658589165605775
 20
14.820610265128
 10
5.705210079182777
 20
14.832018330101999
 10
5.751928770461774
 20
14.843019121634999
 10
5.798741681634773
 20
14.853611801972999
 10
5.8456452477157725
 20
14.863795564444
 10
5.892635896817772
 20
14.873569633513
 10
5.939710050419777
 20
14.882933264849001
 10
5.9868641236447715
 20
14.891885745373
 10
6.034094525525774
 20
14.900426393320998
 10
6.081397659284775
 20
14.908554558289001
 10
6.128769922605777
 20
14.916269621284002
 10
6.176207707907771
 20
14.923570994776998
 10
6.223707402618771
 20
14.930458122737999
 10
6.271265389453774
 20
14.936930480686001
 10
6.318878046687772
 20
14.942987575726999
 10
6.3665417484317715
 20
14.948628946587998
 10
6.414252864911774
 20
14.953854163658
 10
6.462007762740775
 20
14.958662829016
 10
6.509802805198774
 20
14.963054576463001
 10
6.557634352507776
 20
14.967029071552002
 10
6.605498762110777
 20
14.970586011607999
 10
6.653392388947772
 20
14.973725125758001
 10
6.701311585732775
 20
14.976446174945
 10
6.749252703233772
 20
14.978748951951001
 10
6.797212090548776
 20
14.980633281410999
 10
6.84518609538577
 20
14.982099019825
 10
6.893171064338773
 20
14.983146055572
 10
6.941163343164774
 20
14.983774308916999
 10
6.989159277066776
 20
14.983983732014
 10
7.037155210969772
 20
14.983774308916999
 10
7.085147489795773
 20
14.983146055572
 10
7.133132458747774
 20
14.982099019825
 10
7.181106463584776
 20
14.980633281410999
 10
7.229065850899772
 20
14.978748951951001
 10
7.277006968401771
 20
14.976446174945
 10
7.324926165186774
 20
14.973725125758001
 10
7.372819792022774
 20
14.970586011607999
 10
7.420684201625775
 20
14.967029071552002
 10
7.468515748934777
 20
14.963054576463001
 10
7.516310791392776
 20
14.958662829016
 10
7.564065689221771
 20
14.953854163658
 10
7.611776805701773
 20
14.948628946587998
 10
7.659440507446774
 20
14.942987575726999
 10
7.707053164680772
 20
14.936930480686001
 10
7.754611151514773
 20
14.930458122737999
 10
7.802110846225773
 20
14.923570994776998
 10
7.8495486315277745
 20
14.916269621284002
 10
7.896920894848776
 20
14.908554558289001
 10
7.944224028608772
 20
14.900426393320998
 10
7.991454430488773
 20
14.891885745373
 10
8.038608503713775
 20
14.882933264849001
 10
8.085682657316774
 20
14.873569633513
 10
8.132673306417772
 20
14.863795564444
 10
8.179576872499773
 20
14.853611801972999
 10
8.22638978367177
 20
14.843019121634999
 10
8.273108474951776
 20
14.832018330101999
 10
8.319729388527776
 20
14.820610265128
 10
8.36624897403977
 20
14.808795795481
 10
8.412663688838776
 20
14.796575820878001
 10
8.458969998265772
 20
14.783951271918
 10
8.505164375915776
 20
14.770923110009
 10
8.551243303907775
 20
14.757492327296
 10
8.597203273153774
 20
14.743659946586
 10
8.643040783623775
 20
14.729427021267
 10
8.688752344613775
 20
14.714794635231002
 10
8.734334475010776
 20
14.699763902792998
 10
8.779783703559772
 20
14.6843359686
 10
8.82509656912677
 20
14.668512007549001
 10
8.870269620960777
 20
14.652293224695999
 10
8.915299418957773
 20
14.635680855164
 10
8.960182533926776
 20
14.618676164050001
 10
9.004915547843773
 20
14.601280446326001
 10
9.049495054115773
 20
14.583495026744
 10
9.093917657841772
 20
14.565321259731999
 10
9.138179976068777
 20
14.546760529293
 10
9.182278638047777
 20
14.527814248898999
 10
9.226210285497771
 20
14.508483861382
 10
9.269971572851773
 20
14.488770838825001
 10
9.313559167518775
 20
14.468676682453001
 10
9.356969750135775
 20
14.448202922513001
 10
9.400200014816775
 20
14.42735111816
 10
9.44324666941177
 20
14.406122857341
 10
9.486106435749775
 20
14.384519756669
 10
9.528776049894773
 20
14.362543461305002
 10
9.571252262389777
 20
14.340195644828
 10
9.613531838506773
 20
14.317478009112001
 10
9.655611558492772
 20
14.294392284192
 10
9.69748821781377
 20
14.270940228135
 10
9.739158627400776
 20
14.247123626906
 10
9.780619613889776
 20
14.222944294232
 10
9.821868019866777
 20
14.198404071462999
 10
9.862900704105776
 20
14.173504827431
 10
9.903714541808775
 20
14.148248458310999
 10
9.944306424843774
 20
14.122636887472002
 10
9.98467326198277
 20
14.096672065335
 10
10.024811979133773
 20
14.070355969221001
 10
10.064719519578773
 20
14.043690603203999
 10
10.104392844203772
 20
14.016677997954002
 10
10.143828931731775
 20
13.989320210585
 10
10.183024778950774
 20
13.961619324499999
 10
10.221977400946777
 20
13.933577449226998
 10
10.260683831326773
 20
13.905196720264001
 10
10.299141122445775
 20
13.876479298914
 10
10.337346345631772
 20
13.847427372119
 10
10.375296591408777
 20
13.818043152296
 10
10.412988969720772
 20
13.788328877167
 10
10.450420610144775
 20
13.758286809588999
 10
10.487588662117773
 20
13.727919237382
 10
10.524490295147771
 20
13.697228473155
 10
10.561122699033774
 20
13.666216854127
 10
10.597483084075776
 20
13.634886741953
 10
10.633568681289773
 20
13.603240522543999
 10
10.669376742617771
 20
13.571280605879998
 10
10.70490454113677
 20
13.539009425834
 10
10.740149371267776
 20
13.50642943998
 10
10.775108548981777
 20
13.473543129412
 10
10.80977941199977
 20
13.440352998548
 10
10.84415932000178
 20
13.406861574945001
 10
10.87824565482677
 20
13.373071409106
 10
10.912035820665778
 20
13.338985074282
 10
10.94552724426778
 20
13.304605166279
 10
10.97871737513178
 20
13.269934303261
 10
11.011603685700777
 20
13.234975125548
 10
11.044183671554777
 20
13.199730295416
 10
11.076454851600772
 20
13.164202496897001
 10
11.10841476826377
 20
13.128394435569
 10
11.140060987673778
 20
13.092308838356
 10
11.171391099846772
 20
13.055948453313999
 10
11.20240271887478
 20
13.019316049428
 10
11.233093483102778
 20
12.982414416396999
 10
11.263461055309776
 20
12.945246364424001
 10
11.293503122886776
 20
12.907814724000001
 10
11.323217398015771
 20
12.870122345689001
 10
11.352601617838772
 20
12.832172099910998
 10
11.381653544633778
 20
12.793966876725001
 10
11.410370965984768
 20
12.755509585606
 10
11.438751694947769
 20
12.716803155227002
 10
11.466793570219778
 20
12.677850533230998
 10
11.494494456305773
 20
12.638654686011002
 10
11.521852243674772
 20
12.599218598482999
 10
11.523379926987772
 20
12.596974895018
 10
12.42574959290478
 20
12.777284536975
 10
13.760057847592776
 20
13.023966050591
 10
15.141510844819777
 20
13.258798431750002
 10
16.56848803683077
 20
13.480191722478999
 10
17.635076119449778
 20
13.632037711936
 10
18.724523660273775
 20
13.775426319605
 10
20.552473541741776
 20
13.987588743118
 10
22.38274331307578
 20
14.165029164848
 10
24.124558525085774
 20
14.302668304150998
 10
25.835696967742777
 20
14.410201764592
 10
25.843583817394773
 20
4.914022652785
 10
30.84358209294878
 20
4.9181752950419995
 10
30.835569514911768
 20
14.592223077261998
 10
30.83957580393077
 20
14.59228719555
 10
30.83957580393077
 20
15.332735020146
 10
63.240520210172775
 20
15.332735020146
 10
63.240520210172775
 20
13.336108125722
 10
64.23668061598278
 20
13.241773340874001
 10
64.23738304856278
 20
12.396007809802999
 10
63.240520210172775
 20
12.395179886568002
 10
63.240520210172775
 20
12.332735020146
 10
63.23743515340277
 20
12.332735020146
 10
63.24365712704278
 20
4.8411536358989995
 10
69.24365505771277
 20
4.846136806606999
 10
69.23712808950278
 20
12.705067986465998
 10
72.17277213277278
 20
12.355242825626998
 10
75.02226342541277
 20
11.991610946411999
 10
77.94752580734277
 20
11.592034032704
 10
80.89620655861276
 20
11.163619382412001
 10
83.52596064045278
 20
10.762290323165999
 10
86.24896980612277
 20
10.325812747447
 10
88.96720483517277
 20
9.871157017962002
 10
91.58730394317277
 20
9.417244044031
 10
94.29492125633277
 20
8.930188304314001
 10
97.00024711163277
 20
8.427516308169
 10
99.63871403518277
 20
7.923631472974
  0
ENDSEC
  0
SECTION
  2
OBJECTS
  0
DICTIONARY
  5
A
330
0
100
AcDbDictionary
281
1
  3
ACAD_COLOR
350
B
  3
ACAD_GROUP
350
C
  3
ACAD_LAYOUT
350
D
  3
ACAD_MATERIAL
350
E
  3
ACAD_MLEADERSTYLE
350
F
  3
ACAD_MLINESTYLE
350
10
  3
ACAD_PLOTSETTINGS
350
11
  3
ACAD_PLOTSTYLENAME
350
12
  3
ACAD_SCALELIST
350
14
  3
ACAD_TABLESTYLE
350
15
  3
ACAD_VISUALSTYLE
350
16
  3
EZDXF_META
350
2D
  0
DICTIONARY
  5
B
330
A
100
AcDbDictionary
281
1
  0
DICTIONARY
  5
C
330
A
100
AcDbDictionary
281
1
  0
DICTIONARY
  5
D
330
A
100
AcDbDictionary
281
1
  3
Model
350
1A
  3
Layout1
350
1E
  0
DICTIONARY
  5
E
330
A
100
AcDbDictionary
281
1
  3
ByBlock
350
1F
  3
ByLayer
350
20
  3
Global
350
21
  0
DICTIONARY
  5
F
330
A
100
AcDbDictionary
281
1
  3
Standard
350
2C
  0
DICTIONARY
  5
10
330
A
100
AcDbDictionary
281
1
  3
Standard
350
22
  0
DICTIONARY
  5
11
330
A
100
AcDbDictionary
281
1
  0
ACDBDICTIONARYWDFLT
  5
12
330
A
100
AcDbDictionary
281
1
  3
Normal
350
13
100
AcDbDictionaryWithDefault
340
13
  0
ACDBPLACEHOLDER
  5
13
330
12
  0
DICTIONARY
  5
14
330
A
100
AcDbDictionary
281
1
  0
DICTIONARY
  5
15
330
A
100
AcDbDictionary
281
1
  0
DICTIONARY
  5
16
330
A
100
AcDbDictionary
281
1
  0
LAYOUT
  5
1A
330
D
100
AcDbPlotSettings
  1

  4
A3
  6

 40
7.5
 41
20.0
 42
7.5
 43
20.0
 44
420.0
 45
297.0
 46
0.0
 47
0.0
 48
0.0
 49
0.0
140
0.0
141
0.0
142
1.0
143
1.0
 70
1024
 72
1
 73
0
 74
5
  7

 75
16
 76
0
 77
2
 78
300
147
1.0
148
0.0
149
0.0
100
AcDbLayout
  1
Model
 70
1
 71
0
 10
0.0
 20
0.0
 11
420.0
 21
297.0
 12
0.0
 22
0.0
 32
0.0
 14
1e+20
 24
1e+20
 34
1e+20
 15
-1e+20
 25
-1e+20
 35
-1e+20
146
0.0
 13
0.0
 23
0.0
 33
0.0
 16
1.0
 26
0.0
 36
0.0
 17
0.0
 27
1.0
 37
0.0
 76
1
330
17
  0
LAYOUT
  5
1E
330
D
100
AcDbPlotSettings
  1

  4
A3
  6

 40
7.5
 41
20.0
 42
7.5
 43
20.0
 44
420.0
 45
297.0
 46
0.0
 47
0.0
 48
0.0
 49
0.0
140
0.0
141
0.0
142
1.0
143
1.0
 70
0
 72
1
 73
0
 74
5
  7

 75
16
 76
0
 77
2
 78
300
147
1.0
148
0.0
149
0.0
100
AcDbLayout
  1
Layout1
 70
1
 71
1
 10
0.0
 20
0.0
 11
420.0
 21
297.0
 12
0.0
 22
0.0
 32
0.0
 14
1e+20
 24
1e+20
 34
1e+20
 15
-1e+20
 25
-1e+20
 35
-1e+20
146
0.0
 13
0.0
 23
0.0
 33
0.0
 16
1.0
 26
0.0
 36
0.0
 17
0.0
 27
1.0
 37
0.0
 76
1
330
1B
  0
MATERIAL
  5
1F
102
{ACAD_REACTORS
330
E
102
}
330
E
100
AcDbMaterial
  1
ByBlock
  2

 70
0
 40
1.0
 71
1
 41
1.0
 91
-1023410177
 42
1.0
 72
1
  3

 73
1
 74
1
 75
1
 44
0.5
 73
0
 45
1.0
 46
1.0
 77
1
  4

 78
1
 79
1
170
1
 48
1.0
171
1
  6

172
1
173
1
174
1
140
1.0
141
1.0
175
1
  7

176
1
177
1
178
1
143
1.0
179
1
  8

270
1
271
1
272
1
145
1.0
146
1.0
273
1
  9

274
1
275
1
276
1
 42
1.0
 72
1
  3

 73
1
 74
1
 75
1
 94
63
  0
MATERIAL
  5
20
102
{ACAD_REACTORS
330
E
102
}
330
E
100
AcDbMaterial
  1
ByLayer
  2

 70
0
 40
1.0
 71
1
 41
1.0
 91
-1023410177
 42
1.0
 72
1
  3

 73
1
 74
1
 75
1
 44
0.5
 73
0
 45
1.0
 46
1.0
 77
1
  4

 78
1
 79
1
170
1
 48
1.0
171
1
  6

172
1
173
1
174
1
140
1.0
141
1.0
175
1
  7

176
1
177
1
178
1
143
1.0
179
1
  8

270
1
271
1
272
1
145
1.0
146
1.0
273
1
  9

274
1
275
1
276
1
 42
1.0
 72
1
  3

 73
1
 74
1
 75
1
 94
63
  0
MATERIAL
  5
21
102
{ACAD_REACTORS
330
E
102
}
330
E
100
AcDbMaterial
  1
Global
  2

 70
0
 40
1.0
 71
1
 41
1.0
 91
-1023410177
 42
1.0
 72
1
  3

 73
1
 74
1
 75
1
 44
0.5
 73
0
 45
1.0
 46
1.0
 77
1
  4

 78
1
 79
1
170
1
 48
1.0
171
1
  6

172
1
173
1
174
1
140
1.0
141
1.0
175
1
  7

176
1
177
1
178
1
143
1.0
179
1
  8

270
1
271
1
272
1
145
1.0
146
1.0
273
1
  9

274
1
275
1
276
1
 42
1.0
 72
1
  3

 73
1
 74
1
 75
1
 94
63
  0
MLINESTYLE
  5
22
102
{ACAD_REACTORS
330
10
102
}
330
10
100
AcDbMlineStyle
  2
Standard
 70
0
  3

 62
256
 51
90.0
 52
90.0
 71
2
 49
0.5
 62
256
  6
BYLAYER
 49
-0.5
 62
256
  6
BYLAYER
  0
MLEADERSTYLE
  5
2C
102
{ACAD_REACTORS
330
F
102
}
330
F
100
AcDbMLeaderStyle
179
2
170
2
171
1
172
0
 90
2
 40
0.0
 41
0.0
173
1
 91
-1056964608
 92
-2
290
1
 42
2.0
291
1
 43
8.0
  3
Standard
 44
4.0
300

342
29
174
1
175
1
176
0
178
1
 93
-1056964608
 45
4.0
292
0
297
0
 46
4.0
 94
-1056964608
 47
1.0
 49
1.0
140
1.0
294
1
141
0.0
177
0
142
1.0
295
0
296
0
143
3.75
271
0
272
9
273
9
  0
DICTIONARY
  5
2D
330
A
100
AcDbDictionary
280
1
281
1
  3
CREATED_BY_EZDXF
350
2E
  3
WRITTEN_BY_EZDXF
350
33
  0
DICTIONARYVAR
  5
2E
330
2D
100
DictionaryVariables
280
0
  1
1.4.4 @ 2026-10-02T11:51:21.264959+00:00
  0
DICTIONARYVAR
  5
33
330
2D
100
DictionaryVariables
280
0
  1
1.4.4 @ 2026-10-02T11:51:23.533428+00:00
  0
ENDSEC
  0
EOF
