ISO-10303-21;
HEADER;
FILE_DESCRIPTION(('Open CASCADE Model'),'2;1');
FILE_NAME('Open CASCADE Shape Model','2026-09-24T01:38:22',('Author'),(
    'Open CASCADE'),'Open CASCADE STEP processor 7.9','Open CASCADE 7.9'
  ,'Unknown');
FILE_SCHEMA(('AUTOMOTIVE_DESIGN { 1 0 10303 214 1 1 1 1 }'));
ENDSEC;
DATA;
#1 = APPLICATION_PROTOCOL_DEFINITION('international standard',
  'automotive_design',2000,#2);
#2 = APPLICATION_CONTEXT(
  'core data for automotive mechanical design processes');
#3 = SHAPE_DEFINITION_REPRESENTATION(#4,#10);
#4 = PRODUCT_DEFINITION_SHAPE('','',#5);
#5 = PRODUCT_DEFINITION('design','',#6,#9);
#6 = PRODUCT_DEFINITION_FORMATION('','',#7);
#7 = PRODUCT('Open CASCADE STEP translator 7.9 8',
  'Open CASCADE STEP translator 7.9 8','',(#8));
#8 = PRODUCT_CONTEXT('',#2,'mechanical');
#9 = PRODUCT_DEFINITION_CONTEXT('part definition',#2,'design');
#10 = ADVANCED_BREP_SHAPE_REPRESENTATION('',(#11,#15),#1203);
#11 = AXIS2_PLACEMENT_3D('',#12,#13,#14);
#12 = CARTESIAN_POINT('',(0.,0.,0.));
#13 = DIRECTION('',(0.,0.,1.));
#14 = DIRECTION('',(1.,0.,-0.));
#15 = MANIFOLD_SOLID_BREP('',#16);
#16 = CLOSED_SHELL('',(#17,#473,#521,#846,#872,#899,#926,#953,#980,#1007
    ,#1034,#1061,#1088,#1115,#1142,#1169,#1196));
#17 = ADVANCED_FACE('',(#18),#32,.F.);
#18 = FACE_BOUND('',#19,.T.);
#19 = EDGE_LOOP('',(#20,#55,#83,#111,#139,#167,#195,#223,#251,#279,#307,
    #335,#363,#391,#419,#447));
#20 = ORIENTED_EDGE('',*,*,#21,.F.);
#21 = EDGE_CURVE('',#22,#24,#26,.T.);
#22 = VERTEX_POINT('',#23);
#23 = CARTESIAN_POINT('',(-492.9681589756,166.85909000427,
    11.221131685171));
#24 = VERTEX_POINT('',#25);
#25 = CARTESIAN_POINT('',(-493.0000225228,160.59300402633,
    11.209943007228));
#26 = SURFACE_CURVE('',#27,(#31,#43),.PCURVE_S1.);
#27 = LINE('',#28,#29);
#28 = CARTESIAN_POINT('',(-493.0732666065,146.189280465,11.184223822289)
  );
#29 = VECTOR('',#30,1.);
#30 = DIRECTION('',(-5.085005945795E-03,-0.999985477127,
    -1.785566857982E-03));
#31 = PCURVE('',#32,#37);
#32 = PLANE('',#33);
#33 = AXIS2_PLACEMENT_3D('',#34,#35,#36);
#34 = CARTESIAN_POINT('',(-492.9810437332,163.23700327719,
    11.455627523057));
#35 = DIRECTION('',(-0.999723686394,5.042679038701E-03,
    2.295914306869E-02));
#36 = DIRECTION('',(5.041349775544E-03,0.999987285613,
    -1.157770615333E-04));
#37 = DEFINITIONAL_REPRESENTATION('',(#38),#42);
#38 = LINE('',#39,#40);
#39 = CARTESIAN_POINT('',(-17.04793956628,0.273449543119));
#40 = VECTOR('',#41,1.);
#41 = DIRECTION('',(-0.999998191491,1.901845041373E-03));
#42 = ( GEOMETRIC_REPRESENTATION_CONTEXT(2) 
PARAMETRIC_REPRESENTATION_CONTEXT() REPRESENTATION_CONTEXT('2D SPACE',''
  ) );
#43 = PCURVE('',#44,#49);
#44 = PLANE('',#45);
#45 = AXIS2_PLACEMENT_3D('',#46,#47,#48);
#46 = CARTESIAN_POINT('',(-487.0000225259,129.10977560128,
    11.153726163482));
#47 = DIRECTION('',(1.00333809284E-07,-1.785590453589E-03,0.999998405832
    ));
#48 = DIRECTION('',(-9.601552374681E-11,-0.999998405832,
    -1.785590453589E-03));
#49 = DEFINITIONAL_REPRESENTATION('',(#50),#54);
#50 = LINE('',#51,#52);
#51 = CARTESIAN_POINT('',(-17.07953209186,-6.073244082283));
#52 = VECTOR('',#53,1.);
#53 = DIRECTION('',(0.999987071274,-5.085005849781E-03));
#54 = ( GEOMETRIC_REPRESENTATION_CONTEXT(2) 
PARAMETRIC_REPRESENTATION_CONTEXT() REPRESENTATION_CONTEXT('2D SPACE',''
  ) );
#55 = ORIENTED_EDGE('',*,*,#56,.F.);
#56 = EDGE_CURVE('',#57,#22,#59,.T.);
#57 = VERTEX_POINT('',#58);
#58 = CARTESIAN_POINT('',(-492.9684090297,163.0152840277,12.054485736199
    ));
#59 = SURFACE_CURVE('',#60,(#64,#71),.PCURVE_S1.);
#60 = LINE('',#61,#62);
#61 = CARTESIAN_POINT('',(-492.968273069,165.10525793661,11.601370195469
    ));
#62 = VECTOR('',#63,1.);
#63 = DIRECTION('',(6.357673320565E-05,0.977295272525,-0.211881915834));
#64 = PCURVE('',#32,#65);
#65 = DEFINITIONAL_REPRESENTATION('',(#66),#70);
#66 = LINE('',#67,#68);
#67 = CARTESIAN_POINT('',(1.868278413439,-0.145997461503));
#68 = VECTOR('',#69,1.);
#69 = DIRECTION('',(0.977307698394,0.21182460353));
#70 = ( GEOMETRIC_REPRESENTATION_CONTEXT(2) 
PARAMETRIC_REPRESENTATION_CONTEXT() REPRESENTATION_CONTEXT('2D SPACE',''
  ) );
#71 = PCURVE('',#72,#77);
#72 = PLANE('',#73);
#73 = AXIS2_PLACEMENT_3D('',#74,#75,#76);
#74 = CARTESIAN_POINT('',(-487.0000225222,166.85909000477,
    11.221131086365));
#75 = DIRECTION('',(-9.803815311704E-08,-0.211881916256,-0.977295274502)
  );
#76 = DIRECTION('',(-2.134017426884E-08,0.977295274502,-0.211881916256)
  );
#77 = DEFINITIONAL_REPRESENTATION('',(#78),#82);
#78 = LINE('',#79,#80);
#79 = CARTESIAN_POINT('',(-1.794577456187,-5.968250585061));
#80 = VECTOR('',#81,1.);
#81 = DIRECTION('',(0.999999997978,6.359807337988E-05));
#82 = ( GEOMETRIC_REPRESENTATION_CONTEXT(2) 
PARAMETRIC_REPRESENTATION_CONTEXT() REPRESENTATION_CONTEXT('2D SPACE',''
  ) );
#83 = ORIENTED_EDGE('',*,*,#84,.F.);
#84 = EDGE_CURVE('',#85,#57,#87,.T.);
#85 = VERTEX_POINT('',#86);
#86 = CARTESIAN_POINT('',(-492.9693160912,159.11029524717,
    12.872669327324));
#87 = SURFACE_CURVE('',#88,(#92,#99),.PCURVE_S1.);
#88 = LINE('',#89,#90);
#89 = CARTESIAN_POINT('',(-492.9683702479,163.1822431337,12.019504022142
    ));
#90 = VECTOR('',#91,1.);
#91 = DIRECTION('',(2.273461347462E-04,0.978747338358,-0.205069734411));
#92 = PCURVE('',#32,#93);
#93 = DEFINITIONAL_REPRESENTATION('',(#94),#98);
#94 = LINE('',#95,#96);
#95 = CARTESIAN_POINT('',(-5.476083973899E-02,-0.564018835851));
#96 = VECTOR('',#97,1.);
#97 = DIRECTION('',(0.978759782688,0.205010457763));
#98 = ( GEOMETRIC_REPRESENTATION_CONTEXT(2) 
PARAMETRIC_REPRESENTATION_CONTEXT() REPRESENTATION_CONTEXT('2D SPACE',''
  ) );
#99 = PCURVE('',#100,#105);
#100 = PLANE('',#101);
#101 = AXIS2_PLACEMENT_3D('',#102,#103,#104);
#102 = CARTESIAN_POINT('',(-487.0000224383,163.0152840282,
    12.054485137368));
#103 = DIRECTION('',(-9.818441313249E-08,-0.205069739689,-0.978747363656
    ));
#104 = DIRECTION('',(-2.065680329233E-08,0.978747363656,-0.205069739689)
  );
#105 = DEFINITIONAL_REPRESENTATION('',(#106),#110);
#106 = LINE('',#107,#108);
#107 = CARTESIAN_POINT('',(0.170584475828,-5.968347806122));
#108 = VECTOR('',#109,1.);
#109 = DIRECTION('',(0.999999974152,2.27366791549E-04));
#110 = ( GEOMETRIC_REPRESENTATION_CONTEXT(2) 
PARAMETRIC_REPRESENTATION_CONTEXT() REPRESENTATION_CONTEXT('2D SPACE',''
  ) );
#111 = ORIENTED_EDGE('',*,*,#112,.F.);
#112 = EDGE_CURVE('',#113,#85,#115,.T.);
#113 = VERTEX_POINT('',#114);
#114 = CARTESIAN_POINT('',(-492.9698411296,157.64323843439,
    13.172027338016));
#115 = SURFACE_CURVE('',#116,(#120,#127),.PCURVE_S1.);
#116 = LINE('',#117,#118);
#117 = CARTESIAN_POINT('',(-492.9685571253,161.23099015618,
    12.43993420506));
#118 = VECTOR('',#119,1.);
#119 = DIRECTION('',(3.506595505697E-04,0.979809407413,-0.199933494399)
  );
#120 = PCURVE('',#32,#121);
#121 = DEFINITIONAL_REPRESENTATION('',(#122),#126);
#122 = LINE('',#123,#124);
#123 = CARTESIAN_POINT('',(-2.006038626554,-0.984333901692));
#124 = VECTOR('',#125,1.);
#125 = DIRECTION('',(0.979821865247,0.19987274047));
#126 = ( GEOMETRIC_REPRESENTATION_CONTEXT(2) 
PARAMETRIC_REPRESENTATION_CONTEXT() REPRESENTATION_CONTEXT('2D SPACE',''
  ) );
#127 = PCURVE('',#128,#133);
#128 = PLANE('',#129);
#129 = AXIS2_PLACEMENT_3D('',#130,#131,#132);
#130 = CARTESIAN_POINT('',(-487.0000223559,159.11029524767,
    12.872668728402));
#131 = DIRECTION('',(-9.829140511018E-08,-0.199933506657,-0.97980946766)
  );
#132 = DIRECTION('',(-2.014155371088E-08,0.97980946766,-0.199933506657)
  );
#133 = DEFINITIONAL_REPRESENTATION('',(#134),#138);
#134 = LINE('',#135,#136);
#135 = CARTESIAN_POINT('',(2.164395200302,-5.968534725867));
#136 = VECTOR('',#137,1.);
#137 = DIRECTION('',(0.999999938512,3.506796921222E-04));
#138 = ( GEOMETRIC_REPRESENTATION_CONTEXT(2) 
PARAMETRIC_REPRESENTATION_CONTEXT() REPRESENTATION_CONTEXT('2D SPACE',''
  ) );
#139 = ORIENTED_EDGE('',*,*,#140,.F.);
#140 = EDGE_CURVE('',#141,#113,#143,.T.);
#141 = VERTEX_POINT('',#142);
#142 = CARTESIAN_POINT('',(-492.9706358367,155.79508890433,
    13.543345087983));
#143 = SURFACE_CURVE('',#144,(#148,#155),.PCURVE_S1.);
#144 = LINE('',#145,#146);
#145 = CARTESIAN_POINT('',(-492.968613334,160.49856666258,
    12.598354030815));
#146 = VECTOR('',#147,1.);
#147 = DIRECTION('',(4.215769573478E-04,0.98040802427,-0.196976973833));
#148 = PCURVE('',#32,#149);
#149 = DEFINITIONAL_REPRESENTATION('',(#150),#154);
#150 = LINE('',#151,#152);
#151 = CARTESIAN_POINT('',(-2.738471432588,-1.142710677055));
#152 = VECTOR('',#153,1.);
#153 = DIRECTION('',(0.980420489715,0.196915371027));
#154 = ( GEOMETRIC_REPRESENTATION_CONTEXT(2) 
PARAMETRIC_REPRESENTATION_CONTEXT() REPRESENTATION_CONTEXT('2D SPACE',''
  ) );
#155 = PCURVE('',#156,#161);
#156 = PLANE('',#157);
#157 = AXIS2_PLACEMENT_3D('',#158,#159,#160);
#158 = CARTESIAN_POINT('',(-487.0000223257,157.64323843489,
    13.172026739041));
#159 = DIRECTION('',(-9.83517151279E-08,-0.196976991296,-0.980408111401)
  );
#160 = DIRECTION('',(-1.984496499961E-08,0.980408111401,-0.196976991296)
  );
#161 = DEFINITIONAL_REPRESENTATION('',(#162),#166);
#162 = LINE('',#163,#164);
#163 = CARTESIAN_POINT('',(2.912387397646,-5.968590950511));
#164 = VECTOR('',#165,1.);
#165 = DIRECTION('',(0.999999911128,4.21596802311E-04));
#166 = ( GEOMETRIC_REPRESENTATION_CONTEXT(2) 
PARAMETRIC_REPRESENTATION_CONTEXT() REPRESENTATION_CONTEXT('2D SPACE',''
  ) );
#167 = ORIENTED_EDGE('',*,*,#168,.F.);
#168 = EDGE_CURVE('',#169,#141,#171,.T.);
#169 = VERTEX_POINT('',#170);
#170 = CARTESIAN_POINT('',(-492.972066377,153.10388152682,
    14.072143136061));
#171 = SURFACE_CURVE('',#172,(#176,#183),.PCURVE_S1.);
#172 = LINE('',#173,#174);
#173 = CARTESIAN_POINT('',(-492.9686256627,159.57673360473,
    12.800285912087));
#174 = VECTOR('',#175,1.);
#175 = DIRECTION('',(5.21587148627E-04,0.981237098296,-0.192804265705));
#176 = PCURVE('',#32,#177);
#177 = DEFINITIONAL_REPRESENTATION('',(#178),#182);
#178 = LINE('',#179,#180);
#179 = CARTESIAN_POINT('',(-3.660316211128,-1.344589045504));
#180 = VECTOR('',#181,1.);
#181 = DIRECTION('',(0.981249574283,0.192741466659));
#182 = ( GEOMETRIC_REPRESENTATION_CONTEXT(2) 
PARAMETRIC_REPRESENTATION_CONTEXT() REPRESENTATION_CONTEXT('2D SPACE',''
  ) );
#183 = PCURVE('',#184,#189);
#184 = PLANE('',#185);
#185 = AXIS2_PLACEMENT_3D('',#186,#187,#188);
#186 = CARTESIAN_POINT('',(-487.0000222883,155.79508890483,
    13.543344488929));
#187 = DIRECTION('',(-9.843525086058E-08,-0.192804291881,-0.98123723178)
  );
#188 = DIRECTION('',(-1.942637105715E-08,0.98123723178,-0.192804291881)
  );
#189 = DEFINITIONAL_REPRESENTATION('',(#190),#194);
#190 = LINE('',#191,#192);
#191 = CARTESIAN_POINT('',(3.853955575598,-5.968603299541));
#192 = VECTOR('',#193,1.);
#193 = DIRECTION('',(0.999999863963,5.216065749955E-04));
#194 = ( GEOMETRIC_REPRESENTATION_CONTEXT(2) 
PARAMETRIC_REPRESENTATION_CONTEXT() REPRESENTATION_CONTEXT('2D SPACE',''
  ) );
#195 = ORIENTED_EDGE('',*,*,#196,.F.);
#196 = EDGE_CURVE('',#197,#169,#199,.T.);
#197 = VERTEX_POINT('',#198);
#198 = CARTESIAN_POINT('',(-492.9738030346,150.46541460327,
    14.57602797143));
#199 = SURFACE_CURVE('',#200,(#204,#211),.PCURVE_S1.);
#200 = LINE('',#201,#202);
#201 = CARTESIAN_POINT('',(-492.9686889703,158.23510324525,
    13.092201038717));
#202 = VECTOR('',#203,1.);
#203 = DIRECTION('',(6.465225784571E-04,0.982247942064,-0.187586146395)
  );
#204 = PCURVE('',#32,#205);
#205 = DEFINITIONAL_REPRESENTATION('',(#206),#210);
#206 = LINE('',#207,#208);
#207 = CARTESIAN_POINT('',(-5.001963628834,-1.636425769048));
#208 = VECTOR('',#209,1.);
#209 = DIRECTION('',(0.982260430903,0.187521854411));
#210 = ( GEOMETRIC_REPRESENTATION_CONTEXT(2) 
PARAMETRIC_REPRESENTATION_CONTEXT() REPRESENTATION_CONTEXT('2D SPACE',''
  ) );
#211 = PCURVE('',#212,#217);
#212 = PLANE('',#213);
#213 = AXIS2_PLACEMENT_3D('',#214,#215,#216);
#214 = CARTESIAN_POINT('',(-487.000022235,153.10388152732,
    14.072142536863));
#215 = DIRECTION('',(-9.853711371518E-08,-0.187586185537,-0.982248147362
    ));
#216 = DIRECTION('',(-1.890290255763E-08,0.982248147362,-0.187586185537)
  );
#217 = DEFINITIONAL_REPRESENTATION('',(#218),#222);
#218 = LINE('',#219,#220);
#219 = CARTESIAN_POINT('',(5.223956626657,-5.968666636569));
#220 = VECTOR('',#221,1.);
#221 = DIRECTION('',(0.999999790992,6.465414813557E-04));
#222 = ( GEOMETRIC_REPRESENTATION_CONTEXT(2) 
PARAMETRIC_REPRESENTATION_CONTEXT() REPRESENTATION_CONTEXT('2D SPACE',''
  ) );
#223 = ORIENTED_EDGE('',*,*,#224,.F.);
#224 = EDGE_CURVE('',#225,#197,#227,.T.);
#225 = VERTEX_POINT('',#226);
#226 = CARTESIAN_POINT('',(-492.9759047871,147.76008874797,
    15.078699967786));
#227 = SURFACE_CURVE('',#228,(#232,#239),.PCURVE_S1.);
#228 = LINE('',#229,#230);
#229 = CARTESIAN_POINT('',(-492.9687880694,156.92055886152,
    13.376608594761));
#230 = VECTOR('',#231,1.);
#231 = DIRECTION('',(7.638206832918E-04,0.983171851657,-0.182681489723)
  );
#232 = PCURVE('',#32,#233);
#233 = DEFINITIONAL_REPRESENTATION('',(#234),#238);
#234 = LINE('',#235,#236);
#235 = CARTESIAN_POINT('',(-6.316524726401,-1.920756079271));
#236 = VECTOR('',#237,1.);
#237 = DIRECTION('',(0.983184352243,0.182615797521));
#238 = ( GEOMETRIC_REPRESENTATION_CONTEXT(2) 
PARAMETRIC_REPRESENTATION_CONTEXT() REPRESENTATION_CONTEXT('2D SPACE',''
  ) );
#239 = PCURVE('',#240,#245);
#240 = PLANE('',#241);
#241 = AXIS2_PLACEMENT_3D('',#242,#243,#244);
#242 = CARTESIAN_POINT('',(-487.0000221843,150.46541460377,
    14.576027372058));
#243 = DIRECTION('',(-9.863022904435E-08,-0.182681542939,-0.983172138473
    ));
#244 = DIRECTION('',(-1.841087784662E-08,0.983172138473,-0.182681542939)
  );
#245 = DEFINITIONAL_REPRESENTATION('',(#246),#250);
#246 = LINE('',#247,#248);
#247 = CARTESIAN_POINT('',(6.565629766808,-5.968765764241));
#248 = VECTOR('',#249,1.);
#249 = DIRECTION('',(0.999999708275,7.638390941643E-04));
#250 = ( GEOMETRIC_REPRESENTATION_CONTEXT(2) 
PARAMETRIC_REPRESENTATION_CONTEXT() REPRESENTATION_CONTEXT('2D SPACE',''
  ) );
#251 = ORIENTED_EDGE('',*,*,#252,.F.);
#252 = EDGE_CURVE('',#253,#225,#255,.T.);
#253 = VERTEX_POINT('',#254);
#254 = CARTESIAN_POINT('',(-492.9783767328,145.05247143481,
    15.565755707751));
#255 = SURFACE_CURVE('',#256,(#260,#267),.PCURVE_S1.);
#256 = LINE('',#257,#258);
#257 = CARTESIAN_POINT('',(-492.9687707463,155.57427840768,
    13.673056006044));
#258 = VECTOR('',#259,1.);
#259 = DIRECTION('',(8.985376624276E-04,0.984202907568,-0.177041885902)
  );
#260 = PCURVE('',#32,#261);
#261 = DEFINITIONAL_REPRESENTATION('',(#262),#266);
#262 = LINE('',#263,#264);
#263 = CARTESIAN_POINT('',(-7.662822297593,-2.217125743984));
#264 = VECTOR('',#265,1.);
#265 = DIRECTION('',(0.984215421264,0.176974587289));
#266 = ( GEOMETRIC_REPRESENTATION_CONTEXT(2) 
PARAMETRIC_REPRESENTATION_CONTEXT() REPRESENTATION_CONTEXT('2D SPACE',''
  ) );
#267 = PCURVE('',#268,#273);
#268 = PLANE('',#269);
#269 = AXIS2_PLACEMENT_3D('',#270,#271,#272);
#270 = CARTESIAN_POINT('',(-487.0000221336,147.76008874847,
    15.078699368203));
#271 = DIRECTION('',(-9.87341587847E-08,-0.177041957284,-0.984203304892)
  );
#272 = DIRECTION('',(-1.784512240106E-08,0.984203304892,-0.177041957284)
  );
#273 = DEFINITIONAL_REPRESENTATION('',(#274),#278);
#274 = LINE('',#275,#276);
#275 = CARTESIAN_POINT('',(7.939609246247,-5.968748471007));
#276 = VECTOR('',#277,1.);
#277 = DIRECTION('',(0.999999596299,8.985555075428E-04));
#278 = ( GEOMETRIC_REPRESENTATION_CONTEXT(2) 
PARAMETRIC_REPRESENTATION_CONTEXT() REPRESENTATION_CONTEXT('2D SPACE',''
  ) );
#279 = ORIENTED_EDGE('',*,*,#280,.F.);
#280 = EDGE_CURVE('',#281,#253,#283,.T.);
#281 = VERTEX_POINT('',#282);
#282 = CARTESIAN_POINT('',(-492.9811683701,142.43237232681,
    16.019668681962));
#283 = SURFACE_CURVE('',#284,(#288,#295),.PCURVE_S1.);
#284 = LINE('',#285,#286);
#285 = CARTESIAN_POINT('',(-492.9685999125,154.22853386596,
    13.976070120301));
#286 = VECTOR('',#287,1.);
#287 = DIRECTION('',(1.049831685356E-03,0.985322505705,-0.170699905113)
  );
#288 = PCURVE('',#32,#289);
#289 = DEFINITIONAL_REPRESENTATION('',(#290),#294);
#290 = LINE('',#291,#292);
#291 = CARTESIAN_POINT('',(-9.008583949843,-2.520063905189));
#292 = VECTOR('',#293,1.);
#293 = DIRECTION('',(0.985335033635,0.170630804637));
#294 = ( GEOMETRIC_REPRESENTATION_CONTEXT(2) 
PARAMETRIC_REPRESENTATION_CONTEXT() REPRESENTATION_CONTEXT('2D SPACE',''
  ) );
#295 = PCURVE('',#296,#301);
#296 = PLANE('',#297);
#297 = AXIS2_PLACEMENT_3D('',#298,#299,#300);
#298 = CARTESIAN_POINT('',(-487.0000220845,145.05247143531,
    15.56575510792));
#299 = DIRECTION('',(-9.884703422854E-08,-0.170699999079,-0.985323048708
    ));
#300 = DIRECTION('',(-1.720890259833E-08,0.985323048708,-0.170699999079)
  );
#301 = DEFINITIONAL_REPRESENTATION('',(#302),#306);
#302 = LINE('',#303,#304);
#303 = CARTESIAN_POINT('',(9.312745137942,-5.968577667705));
#304 = VECTOR('',#305,1.);
#305 = DIRECTION('',(0.999999448908,1.049848894249E-03));
#306 = ( GEOMETRIC_REPRESENTATION_CONTEXT(2) 
PARAMETRIC_REPRESENTATION_CONTEXT() REPRESENTATION_CONTEXT('2D SPACE',''
  ) );
#307 = ORIENTED_EDGE('',*,*,#308,.F.);
#308 = EDGE_CURVE('',#309,#281,#311,.T.);
#309 = VERTEX_POINT('',#310);
#310 = CARTESIAN_POINT('',(-492.9844379544,139.71413729776,
    16.474324411775));
#311 = SURFACE_CURVE('',#312,(#316,#323),.PCURVE_S1.);
#312 = LINE('',#313,#314);
#313 = CARTESIAN_POINT('',(-492.9685458261,152.92637960087,
    14.264426591091));
#314 = VECTOR('',#315,1.);
#315 = DIRECTION('',(1.186352259309E-03,0.986297946741,-0.164969551197)
  );
#316 = PCURVE('',#32,#317);
#317 = DEFINITIONAL_REPRESENTATION('',(#318),#322);
#318 = LINE('',#319,#320);
#319 = CARTESIAN_POINT('',(-10.31075477123,-2.808345606265));
#320 = VECTOR('',#321,1.);
#321 = DIRECTION('',(0.986310487074,0.164898826822));
#322 = ( GEOMETRIC_REPRESENTATION_CONTEXT(2) 
PARAMETRIC_REPRESENTATION_CONTEXT() REPRESENTATION_CONTEXT('2D SPACE',''
  ) );
#323 = PCURVE('',#324,#329);
#324 = PLANE('',#325);
#325 = AXIS2_PLACEMENT_3D('',#326,#327,#328);
#326 = CARTESIAN_POINT('',(-487.0000220387,142.43237232731,
    16.019668081851));
#327 = DIRECTION('',(-9.894539553243E-08,-0.164969667173,-0.986298640835
    ));
#328 = DIRECTION('',(-1.663403761432E-08,0.986298640835,-0.164969667173)
  );
#329 = DEFINITIONAL_REPRESENTATION('',(#330),#334);
#330 = LINE('',#331,#332);
#331 = CARTESIAN_POINT('',(10.639786814653,-5.96852361035));
#332 = VECTOR('',#333,1.);
#333 = DIRECTION('',(0.999999296264,1.186368893335E-03));
#334 = ( GEOMETRIC_REPRESENTATION_CONTEXT(2) 
PARAMETRIC_REPRESENTATION_CONTEXT() REPRESENTATION_CONTEXT('2D SPACE',''
  ) );
#335 = ORIENTED_EDGE('',*,*,#336,.F.);
#336 = EDGE_CURVE('',#337,#309,#339,.T.);
#337 = VERTEX_POINT('',#338);
#338 = CARTESIAN_POINT('',(-492.9881490899,136.99112813209,
    16.910801987867));
#339 = SURFACE_CURVE('',#340,(#344,#351),.PCURVE_S1.);
#340 = LINE('',#341,#342);
#341 = CARTESIAN_POINT('',(-492.9682702155,151.57705643299,
    14.572789060815));
#342 = VECTOR('',#343,1.);
#343 = DIRECTION('',(1.345700738613E-03,0.987394662059,-0.158271824485)
  );
#344 = PCURVE('',#32,#345);
#345 = DEFINITIONAL_REPRESENTATION('',(#346),#350);
#346 = LINE('',#347,#348);
#347 = CARTESIAN_POINT('',(-11.66009509515,-3.116633118712));
#348 = VECTOR('',#349,1.);
#349 = DIRECTION('',(0.987407216337,0.158199207097));
#350 = ( GEOMETRIC_REPRESENTATION_CONTEXT(2) 
PARAMETRIC_REPRESENTATION_CONTEXT() REPRESENTATION_CONTEXT('2D SPACE',''
  ) );
#351 = PCURVE('',#352,#357);
#352 = PLANE('',#353);
#353 = AXIS2_PLACEMENT_3D('',#354,#355,#356);
#354 = CARTESIAN_POINT('',(-487.0000219929,139.71413729826,
    16.474323811336));
#355 = DIRECTION('',(-9.905601007933E-08,-0.158271967662,-0.987395556123
    ));
#356 = DIRECTION('',(-1.596212302921E-08,0.987395556123,-0.158271967662)
  );
#357 = DEFINITIONAL_REPRESENTATION('',(#358),#362);
#358 = LINE('',#359,#360);
#359 = CARTESIAN_POINT('',(12.014353378095,-5.968248030839));
#360 = VECTOR('',#361,1.);
#361 = DIRECTION('',(0.999999094523,1.345716700722E-03));
#362 = ( GEOMETRIC_REPRESENTATION_CONTEXT(2) 
PARAMETRIC_REPRESENTATION_CONTEXT() REPRESENTATION_CONTEXT('2D SPACE',''
  ) );
#363 = ORIENTED_EDGE('',*,*,#364,.F.);
#364 = EDGE_CURVE('',#365,#337,#367,.T.);
#365 = VERTEX_POINT('',#366);
#366 = CARTESIAN_POINT('',(-492.9921970429,134.36137405025,
    17.312131047519));
#367 = SURFACE_CURVE('',#368,(#372,#379),.PCURVE_S1.);
#368 = LINE('',#369,#370);
#369 = CARTESIAN_POINT('',(-492.9677757868,150.22665167854,
    14.890917217815));
#370 = VECTOR('',#371,1.);
#371 = DIRECTION('',(1.521669858954E-03,0.98855335794,-0.150863988499));
#372 = PCURVE('',#32,#373);
#373 = DEFINITIONAL_REPRESENTATION('',(#374),#378);
#374 = LINE('',#375,#376);
#375 = CARTESIAN_POINT('',(-13.01051701938,-3.434688768117));
#376 = VECTOR('',#377,1.);
#377 = DIRECTION('',(0.98856592695,0.150789283683));
#378 = ( GEOMETRIC_REPRESENTATION_CONTEXT(2) 
PARAMETRIC_REPRESENTATION_CONTEXT() REPRESENTATION_CONTEXT('2D SPACE',''
  ) );
#379 = PCURVE('',#380,#385);
#380 = PLANE('',#381);
#381 = AXIS2_PLACEMENT_3D('',#382,#383,#384);
#382 = CARTESIAN_POINT('',(-487.0000219489,136.99112813259,
    16.910801387055));
#383 = DIRECTION('',(-9.917290747539E-08,-0.150864163011,-0.988554502452
    ));
#384 = DIRECTION('',(-1.521896603952E-08,0.988554502452,-0.150864163011)
  );
#385 = DEFINITIONAL_REPRESENTATION('',(#386),#390);
#386 = LINE('',#387,#388);
#387 = CARTESIAN_POINT('',(13.388764619065,-5.967753634131));
#388 = VECTOR('',#389,1.);
#389 = DIRECTION('',(0.999998842237,1.521685077902E-03));
#390 = ( GEOMETRIC_REPRESENTATION_CONTEXT(2) 
PARAMETRIC_REPRESENTATION_CONTEXT() REPRESENTATION_CONTEXT('2D SPACE',''
  ) );
#391 = ORIENTED_EDGE('',*,*,#392,.F.);
#392 = EDGE_CURVE('',#393,#365,#395,.T.);
#393 = VERTEX_POINT('',#394);
#394 = CARTESIAN_POINT('',(-492.9972316514,131.41269329898,
    17.740545698316));
#395 = SURFACE_CURVE('',#396,(#400,#407),.PCURVE_S1.);
#396 = LINE('',#397,#398);
#397 = CARTESIAN_POINT('',(-492.9673354858,148.92234641961,
    15.196563300758));
#398 = VECTOR('',#399,1.);
#399 = DIRECTION('',(1.689667382083E-03,0.989608168886,-0.14378044755));
#400 = PCURVE('',#32,#401);
#401 = DEFINITIONAL_REPRESENTATION('',(#402),#406);
#402 = LINE('',#403,#404);
#403 = CARTESIAN_POINT('',(-14.31483886197,-3.74026439103));
#404 = VECTOR('',#405,1.);
#405 = DIRECTION('',(0.989620751307,0.143703752846));
#406 = ( GEOMETRIC_REPRESENTATION_CONTEXT(2) 
PARAMETRIC_REPRESENTATION_CONTEXT() REPRESENTATION_CONTEXT('2D SPACE',''
  ) );
#407 = PCURVE('',#408,#413);
#408 = PLANE('',#409);
#409 = AXIS2_PLACEMENT_3D('',#410,#411,#412);
#410 = CARTESIAN_POINT('',(-487.0000219084,134.36137405075,
    17.312130446301));
#411 = DIRECTION('',(-9.927935651526E-08,-0.143780652629,-0.989609581567
    ));
#412 = DIRECTION('',(-1.450833809729E-08,0.989609581567,-0.143780652629)
  );
#413 = DEFINITIONAL_REPRESENTATION('',(#414),#418);
#414 = LINE('',#415,#416);
#415 = CARTESIAN_POINT('',(14.713855484607,-5.967313363892));
#416 = VECTOR('',#417,1.);
#417 = DIRECTION('',(0.999998572487,1.689681890401E-03));
#418 = ( GEOMETRIC_REPRESENTATION_CONTEXT(2) 
PARAMETRIC_REPRESENTATION_CONTEXT() REPRESENTATION_CONTEXT('2D SPACE',''
  ) );
#419 = ORIENTED_EDGE('',*,*,#420,.F.);
#420 = EDGE_CURVE('',#421,#393,#423,.T.);
#421 = VERTEX_POINT('',#422);
#422 = CARTESIAN_POINT('',(-493.000021845,129.94963477937,
    17.940392526507));
#423 = SURFACE_CURVE('',#424,(#428,#435),.PCURVE_S1.);
#424 = LINE('',#425,#426);
#425 = CARTESIAN_POINT('',(-492.9666272281,147.46034768147,
    15.548512512161));
#426 = VECTOR('',#427,1.);
#427 = DIRECTION('',(1.889546598224E-03,0.990797653303,-0.135338242278)
  );
#428 = PCURVE('',#32,#429);
#429 = DEFINITIONAL_REPRESENTATION('',(#430),#434);
#430 = LINE('',#431,#432);
#431 = CARTESIAN_POINT('',(-15.77685618877,-4.09213708891));
#432 = VECTOR('',#433,1.);
#433 = DIRECTION('',(0.990810250848,0.135259183847));
#434 = ( GEOMETRIC_REPRESENTATION_CONTEXT(2) 
PARAMETRIC_REPRESENTATION_CONTEXT() REPRESENTATION_CONTEXT('2D SPACE',''
  ) );
#435 = PCURVE('',#436,#441);
#436 = PLANE('',#437);
#437 = AXIS2_PLACEMENT_3D('',#438,#439,#440);
#438 = CARTESIAN_POINT('',(-487.0000218652,131.41269329948,
    17.740545096593));
#439 = DIRECTION('',(-9.939943964147E-08,-0.135338483697,-0.990799422098
    ));
#440 = DIRECTION('',(-1.366140195571E-08,0.990799422098,-0.135338483697)
  );
#441 = DEFINITIONAL_REPRESENTATION('',(#442),#446);
#442 = LINE('',#443,#444);
#443 = CARTESIAN_POINT('',(16.196673135416,-5.966605141719));
#444 = VECTOR('',#445,1.);
#445 = DIRECTION('',(0.999998214779,1.889560259601E-03));
#446 = ( GEOMETRIC_REPRESENTATION_CONTEXT(2) 
PARAMETRIC_REPRESENTATION_CONTEXT() REPRESENTATION_CONTEXT('2D SPACE',''
  ) );
#447 = ORIENTED_EDGE('',*,*,#448,.T.);
#448 = EDGE_CURVE('',#421,#24,#449,.T.);
#449 = SURFACE_CURVE('',#450,(#454,#461),.PCURVE_S1.);
#450 = LINE('',#451,#452);
#451 = CARTESIAN_POINT('',(-493.0000219579,135.05385020531,
    16.81931266118));
#452 = VECTOR('',#453,1.);
#453 = DIRECTION('',(-2.160527252802E-08,0.976718595405,-0.214524556615)
  );
#454 = PCURVE('',#32,#455);
#455 = DEFINITIONAL_REPRESENTATION('',(#456),#460);
#456 = LINE('',#457,#458);
#457 = CARTESIAN_POINT('',(-28.18351140794,-5.361835527617));
#458 = VECTOR('',#459,1.);
#459 = DIRECTION('',(0.976731013941,0.214468007886));
#460 = ( GEOMETRIC_REPRESENTATION_CONTEXT(2) 
PARAMETRIC_REPRESENTATION_CONTEXT() REPRESENTATION_CONTEXT('2D SPACE',''
  ) );
#461 = PCURVE('',#462,#467);
#462 = PLANE('',#463);
#463 = AXIS2_PLACEMENT_3D('',#464,#465,#466);
#464 = CARTESIAN_POINT('',(-493.0000222152,105.12395477113,
    14.230175176201));
#465 = DIRECTION('',(-1.,-8.313972134781E-11,1.003338207795E-07));
#466 = DIRECTION('',(-8.313972134781E-11,1.,8.341725901369E-18));
#467 = DEFINITIONAL_REPRESENTATION('',(#468),#472);
#468 = LINE('',#469,#470);
#469 = CARTESIAN_POINT('',(29.929895434183,-2.589137484979));
#470 = VECTOR('',#471,1.);
#471 = DIRECTION('',(0.976718595405,0.214524556615));
#472 = ( GEOMETRIC_REPRESENTATION_CONTEXT(2) 
PARAMETRIC_REPRESENTATION_CONTEXT() REPRESENTATION_CONTEXT('2D SPACE',''
  ) );
#473 = ADVANCED_FACE('',(#474),#44,.F.);
#474 = FACE_BOUND('',#475,.T.);
#475 = EDGE_LOOP('',(#476,#477,#500));
#476 = ORIENTED_EDGE('',*,*,#21,.T.);
#477 = ORIENTED_EDGE('',*,*,#478,.T.);
#478 = EDGE_CURVE('',#24,#479,#481,.T.);
#479 = VERTEX_POINT('',#480);
#480 = CARTESIAN_POINT('',(-493.0000225222,166.85909000427,
    11.221131688368));
#481 = SURFACE_CURVE('',#482,(#486,#493),.PCURVE_S1.);
#482 = LINE('',#483,#484);
#483 = CARTESIAN_POINT('',(-493.0000225259,129.10977560078,
    11.153726765485));
#484 = VECTOR('',#485,1.);
#485 = DIRECTION('',(9.601552374681E-11,0.999998405832,
    1.785590453589E-03));
#486 = PCURVE('',#44,#487);
#487 = DEFINITIONAL_REPRESENTATION('',(#488),#492);
#488 = LINE('',#489,#490);
#489 = CARTESIAN_POINT('',(1.156386829906E-12,-6.));
#490 = VECTOR('',#491,1.);
#491 = DIRECTION('',(-1.,-5.169878828456E-26));
#492 = ( GEOMETRIC_REPRESENTATION_CONTEXT(2) 
PARAMETRIC_REPRESENTATION_CONTEXT() REPRESENTATION_CONTEXT('2D SPACE',''
  ) );
#493 = PCURVE('',#462,#494);
#494 = DEFINITIONAL_REPRESENTATION('',(#495),#499);
#495 = LINE('',#496,#497);
#496 = CARTESIAN_POINT('',(23.98582082965,3.076448410716));
#497 = VECTOR('',#498,1.);
#498 = DIRECTION('',(0.999998405832,-1.785590453589E-03));
#499 = ( GEOMETRIC_REPRESENTATION_CONTEXT(2) 
PARAMETRIC_REPRESENTATION_CONTEXT() REPRESENTATION_CONTEXT('2D SPACE',''
  ) );
#500 = ORIENTED_EDGE('',*,*,#501,.F.);
#501 = EDGE_CURVE('',#22,#479,#502,.T.);
#502 = SURFACE_CURVE('',#503,(#507,#514),.PCURVE_S1.);
#503 = LINE('',#504,#505);
#504 = CARTESIAN_POINT('',(-487.0000225222,166.85909000477,
    11.221131086365));
#505 = VECTOR('',#506,1.);
#506 = DIRECTION('',(-1.,-8.313972134781E-11,1.003338207795E-07));
#507 = PCURVE('',#44,#508);
#508 = DEFINITIONAL_REPRESENTATION('',(#509),#513);
#509 = LINE('',#510,#511);
#510 = CARTESIAN_POINT('',(-37.74937458233,-4.509684905313E-12));
#511 = VECTOR('',#512,1.);
#512 = DIRECTION('',(-5.813528742599E-23,-1.));
#513 = ( GEOMETRIC_REPRESENTATION_CONTEXT(2) 
PARAMETRIC_REPRESENTATION_CONTEXT() REPRESENTATION_CONTEXT('2D SPACE',''
  ) );
#514 = PCURVE('',#72,#515);
#515 = DEFINITIONAL_REPRESENTATION('',(#516),#520);
#516 = LINE('',#517,#518);
#517 = CARTESIAN_POINT('',(-0.,0.));
#518 = VECTOR('',#519,1.);
#519 = DIRECTION('',(-3.163138662403E-21,-1.));
#520 = ( GEOMETRIC_REPRESENTATION_CONTEXT(2) 
PARAMETRIC_REPRESENTATION_CONTEXT() REPRESENTATION_CONTEXT('2D SPACE',''
  ) );
#521 = ADVANCED_FACE('',(#522),#462,.T.);
#522 = FACE_BOUND('',#523,.F.);
#523 = EDGE_LOOP('',(#524,#547,#548,#549,#572,#595,#618,#641,#664,#687,
    #710,#733,#756,#779,#802,#825));
#524 = ORIENTED_EDGE('',*,*,#525,.T.);
#525 = EDGE_CURVE('',#526,#421,#528,.T.);
#526 = VERTEX_POINT('',#527);
#527 = CARTESIAN_POINT('',(-493.0000218652,131.41269329898,
    17.740545698595));
#528 = SURFACE_CURVE('',#529,(#533,#540),.PCURVE_S1.);
#529 = LINE('',#530,#531);
#530 = CARTESIAN_POINT('',(-493.0000218652,131.41269329898,
    17.740545698595));
#531 = VECTOR('',#532,1.);
#532 = DIRECTION('',(1.366140195571E-08,-0.990799422098,0.135338483697)
  );
#533 = PCURVE('',#462,#534);
#534 = DEFINITIONAL_REPRESENTATION('',(#535),#539);
#535 = LINE('',#536,#537);
#536 = CARTESIAN_POINT('',(26.28873852785,-3.510370522394));
#537 = VECTOR('',#538,1.);
#538 = DIRECTION('',(-0.990799422098,-0.135338483697));
#539 = ( GEOMETRIC_REPRESENTATION_CONTEXT(2) 
PARAMETRIC_REPRESENTATION_CONTEXT() REPRESENTATION_CONTEXT('2D SPACE',''
  ) );
#540 = PCURVE('',#436,#541);
#541 = DEFINITIONAL_REPRESENTATION('',(#542),#546);
#542 = LINE('',#543,#544);
#543 = CARTESIAN_POINT('',(-1.023597908069E-12,-6.));
#544 = VECTOR('',#545,1.);
#545 = DIRECTION('',(-1.,0.));
#546 = ( GEOMETRIC_REPRESENTATION_CONTEXT(2) 
PARAMETRIC_REPRESENTATION_CONTEXT() REPRESENTATION_CONTEXT('2D SPACE',''
  ) );
#547 = ORIENTED_EDGE('',*,*,#448,.T.);
#548 = ORIENTED_EDGE('',*,*,#478,.T.);
#549 = ORIENTED_EDGE('',*,*,#550,.T.);
#550 = EDGE_CURVE('',#479,#551,#553,.T.);
#551 = VERTEX_POINT('',#552);
#552 = CARTESIAN_POINT('',(-493.0000224383,163.0152840277,12.05448573937
    ));
#553 = SURFACE_CURVE('',#554,(#558,#565),.PCURVE_S1.);
#554 = LINE('',#555,#556);
#555 = CARTESIAN_POINT('',(-493.0000225222,166.85909000427,
    11.221131688368));
#556 = VECTOR('',#557,1.);
#557 = DIRECTION('',(2.134017426884E-08,-0.977295274502,0.211881916256)
  );
#558 = PCURVE('',#462,#559);
#559 = DEFINITIONAL_REPRESENTATION('',(#560),#564);
#560 = LINE('',#561,#562);
#561 = CARTESIAN_POINT('',(61.73513523314,3.009043487833));
#562 = VECTOR('',#563,1.);
#563 = DIRECTION('',(-0.977295274502,-0.211881916256));
#564 = ( GEOMETRIC_REPRESENTATION_CONTEXT(2) 
PARAMETRIC_REPRESENTATION_CONTEXT() REPRESENTATION_CONTEXT('2D SPACE',''
  ) );
#565 = PCURVE('',#72,#566);
#566 = DEFINITIONAL_REPRESENTATION('',(#567),#571);
#567 = LINE('',#568,#569);
#568 = CARTESIAN_POINT('',(-1.153763250378E-12,-6.));
#569 = VECTOR('',#570,1.);
#570 = DIRECTION('',(-1.,-6.617444900424E-24));
#571 = ( GEOMETRIC_REPRESENTATION_CONTEXT(2) 
PARAMETRIC_REPRESENTATION_CONTEXT() REPRESENTATION_CONTEXT('2D SPACE',''
  ) );
#572 = ORIENTED_EDGE('',*,*,#573,.T.);
#573 = EDGE_CURVE('',#551,#574,#576,.T.);
#574 = VERTEX_POINT('',#575);
#575 = CARTESIAN_POINT('',(-493.0000223559,159.11029524717,
    12.872669330405));
#576 = SURFACE_CURVE('',#577,(#581,#588),.PCURVE_S1.);
#577 = LINE('',#578,#579);
#578 = CARTESIAN_POINT('',(-493.0000224383,163.0152840277,12.05448573937
    ));
#579 = VECTOR('',#580,1.);
#580 = DIRECTION('',(2.065680329233E-08,-0.978747363656,0.205069739689)
  );
#581 = PCURVE('',#462,#582);
#582 = DEFINITIONAL_REPRESENTATION('',(#583),#587);
#583 = LINE('',#584,#585);
#584 = CARTESIAN_POINT('',(57.89132925657,2.175689436831));
#585 = VECTOR('',#586,1.);
#586 = DIRECTION('',(-0.978747363656,-0.205069739689));
#587 = ( GEOMETRIC_REPRESENTATION_CONTEXT(2) 
PARAMETRIC_REPRESENTATION_CONTEXT() REPRESENTATION_CONTEXT('2D SPACE',''
  ) );
#588 = PCURVE('',#100,#589);
#589 = DEFINITIONAL_REPRESENTATION('',(#590),#594);
#590 = LINE('',#591,#592);
#591 = CARTESIAN_POINT('',(-9.488248195325E-13,-6.));
#592 = VECTOR('',#593,1.);
#593 = DIRECTION('',(-1.,-9.926167350636E-24));
#594 = ( GEOMETRIC_REPRESENTATION_CONTEXT(2) 
PARAMETRIC_REPRESENTATION_CONTEXT() REPRESENTATION_CONTEXT('2D SPACE',''
  ) );
#595 = ORIENTED_EDGE('',*,*,#596,.T.);
#596 = EDGE_CURVE('',#574,#597,#599,.T.);
#597 = VERTEX_POINT('',#598);
#598 = CARTESIAN_POINT('',(-493.0000223257,157.64323843439,
    13.172027341044));
#599 = SURFACE_CURVE('',#600,(#604,#611),.PCURVE_S1.);
#600 = LINE('',#601,#602);
#601 = CARTESIAN_POINT('',(-493.0000223559,159.11029524717,
    12.872669330405));
#602 = VECTOR('',#603,1.);
#603 = DIRECTION('',(2.014155371088E-08,-0.97980946766,0.199933506657));
#604 = PCURVE('',#462,#605);
#605 = DEFINITIONAL_REPRESENTATION('',(#606),#610);
#606 = LINE('',#607,#608);
#607 = CARTESIAN_POINT('',(53.98634047604,1.357505845796));
#608 = VECTOR('',#609,1.);
#609 = DIRECTION('',(-0.97980946766,-0.199933506657));
#610 = ( GEOMETRIC_REPRESENTATION_CONTEXT(2) 
PARAMETRIC_REPRESENTATION_CONTEXT() REPRESENTATION_CONTEXT('2D SPACE',''
  ) );
#611 = PCURVE('',#128,#612);
#612 = DEFINITIONAL_REPRESENTATION('',(#613),#617);
#613 = LINE('',#614,#615);
#614 = CARTESIAN_POINT('',(-1.151213778192E-12,-6.));
#615 = VECTOR('',#616,1.);
#616 = DIRECTION('',(-1.,-1.323488980085E-23));
#617 = ( GEOMETRIC_REPRESENTATION_CONTEXT(2) 
PARAMETRIC_REPRESENTATION_CONTEXT() REPRESENTATION_CONTEXT('2D SPACE',''
  ) );
#618 = ORIENTED_EDGE('',*,*,#619,.T.);
#619 = EDGE_CURVE('',#597,#620,#622,.T.);
#620 = VERTEX_POINT('',#621);
#621 = CARTESIAN_POINT('',(-493.0000222883,155.79508890433,
    13.543345090932));
#622 = SURFACE_CURVE('',#623,(#627,#634),.PCURVE_S1.);
#623 = LINE('',#624,#625);
#624 = CARTESIAN_POINT('',(-493.0000223257,157.64323843439,
    13.172027341044));
#625 = VECTOR('',#626,1.);
#626 = DIRECTION('',(1.984496499961E-08,-0.980408111401,0.196976991296)
  );
#627 = PCURVE('',#462,#628);
#628 = DEFINITIONAL_REPRESENTATION('',(#629),#633);
#629 = LINE('',#630,#631);
#630 = CARTESIAN_POINT('',(52.51928366326,1.058147835157));
#631 = VECTOR('',#632,1.);
#632 = DIRECTION('',(-0.980408111401,-0.196976991296));
#633 = ( GEOMETRIC_REPRESENTATION_CONTEXT(2) 
PARAMETRIC_REPRESENTATION_CONTEXT() REPRESENTATION_CONTEXT('2D SPACE',''
  ) );
#634 = PCURVE('',#156,#635);
#635 = DEFINITIONAL_REPRESENTATION('',(#636),#640);
#636 = LINE('',#637,#638);
#637 = CARTESIAN_POINT('',(-1.150508568034E-12,-6.));
#638 = VECTOR('',#639,1.);
#639 = DIRECTION('',(-1.,6.617444900424E-24));
#640 = ( GEOMETRIC_REPRESENTATION_CONTEXT(2) 
PARAMETRIC_REPRESENTATION_CONTEXT() REPRESENTATION_CONTEXT('2D SPACE',''
  ) );
#641 = ORIENTED_EDGE('',*,*,#642,.T.);
#642 = EDGE_CURVE('',#620,#643,#645,.T.);
#643 = VERTEX_POINT('',#644);
#644 = CARTESIAN_POINT('',(-493.000022235,153.10388152682,
    14.072143138866));
#645 = SURFACE_CURVE('',#646,(#650,#657),.PCURVE_S1.);
#646 = LINE('',#647,#648);
#647 = CARTESIAN_POINT('',(-493.0000222883,155.79508890433,
    13.543345090932));
#648 = VECTOR('',#649,1.);
#649 = DIRECTION('',(1.942637105715E-08,-0.98123723178,0.192804291881));
#650 = PCURVE('',#462,#651);
#651 = DEFINITIONAL_REPRESENTATION('',(#652),#656);
#652 = LINE('',#653,#654);
#653 = CARTESIAN_POINT('',(50.6711341332,0.686830085269));
#654 = VECTOR('',#655,1.);
#655 = DIRECTION('',(-0.98123723178,-0.192804291881));
#656 = ( GEOMETRIC_REPRESENTATION_CONTEXT(2) 
PARAMETRIC_REPRESENTATION_CONTEXT() REPRESENTATION_CONTEXT('2D SPACE',''
  ) );
#657 = PCURVE('',#184,#658);
#658 = DEFINITIONAL_REPRESENTATION('',(#659),#663);
#659 = LINE('',#660,#661);
#660 = CARTESIAN_POINT('',(-1.178386630728E-12,-6.));
#661 = VECTOR('',#662,1.);
#662 = DIRECTION('',(-1.,3.308722450212E-24));
#663 = ( GEOMETRIC_REPRESENTATION_CONTEXT(2) 
PARAMETRIC_REPRESENTATION_CONTEXT() REPRESENTATION_CONTEXT('2D SPACE',''
  ) );
#664 = ORIENTED_EDGE('',*,*,#665,.T.);
#665 = EDGE_CURVE('',#643,#666,#668,.T.);
#666 = VERTEX_POINT('',#667);
#667 = CARTESIAN_POINT('',(-493.0000221843,150.46541460327,
    14.576027974061));
#668 = SURFACE_CURVE('',#669,(#673,#680),.PCURVE_S1.);
#669 = LINE('',#670,#671);
#670 = CARTESIAN_POINT('',(-493.000022235,153.10388152682,
    14.072143138866));
#671 = VECTOR('',#672,1.);
#672 = DIRECTION('',(1.890290255763E-08,-0.982248147362,0.187586185537)
  );
#673 = PCURVE('',#462,#674);
#674 = DEFINITIONAL_REPRESENTATION('',(#675),#679);
#675 = LINE('',#676,#677);
#676 = CARTESIAN_POINT('',(47.97992675569,0.158032037335));
#677 = VECTOR('',#678,1.);
#678 = DIRECTION('',(-0.982248147362,-0.187586185537));
#679 = ( GEOMETRIC_REPRESENTATION_CONTEXT(2) 
PARAMETRIC_REPRESENTATION_CONTEXT() REPRESENTATION_CONTEXT('2D SPACE',''
  ) );
#680 = PCURVE('',#212,#681);
#681 = DEFINITIONAL_REPRESENTATION('',(#682),#686);
#682 = LINE('',#683,#684);
#683 = CARTESIAN_POINT('',(-1.148456588288E-12,-6.));
#684 = VECTOR('',#685,1.);
#685 = DIRECTION('',(-1.,-6.617444900424E-24));
#686 = ( GEOMETRIC_REPRESENTATION_CONTEXT(2) 
PARAMETRIC_REPRESENTATION_CONTEXT() REPRESENTATION_CONTEXT('2D SPACE',''
  ) );
#687 = ORIENTED_EDGE('',*,*,#688,.T.);
#688 = EDGE_CURVE('',#666,#689,#691,.T.);
#689 = VERTEX_POINT('',#690);
#690 = CARTESIAN_POINT('',(-493.0000221336,147.76008874797,
    15.078699970205));
#691 = SURFACE_CURVE('',#692,(#696,#703),.PCURVE_S1.);
#692 = LINE('',#693,#694);
#693 = CARTESIAN_POINT('',(-493.0000221843,150.46541460327,
    14.576027974061));
#694 = VECTOR('',#695,1.);
#695 = DIRECTION('',(1.841087784662E-08,-0.983172138473,0.182681542939)
  );
#696 = PCURVE('',#462,#697);
#697 = DEFINITIONAL_REPRESENTATION('',(#698),#702);
#698 = LINE('',#699,#700);
#699 = CARTESIAN_POINT('',(45.34145983214,-0.34585279786));
#700 = VECTOR('',#701,1.);
#701 = DIRECTION('',(-0.983172138473,-0.182681542939));
#702 = ( GEOMETRIC_REPRESENTATION_CONTEXT(2) 
PARAMETRIC_REPRESENTATION_CONTEXT() REPRESENTATION_CONTEXT('2D SPACE',''
  ) );
#703 = PCURVE('',#240,#704);
#704 = DEFINITIONAL_REPRESENTATION('',(#705),#709);
#705 = LINE('',#706,#707);
#706 = CARTESIAN_POINT('',(-1.147465671019E-12,-6.));
#707 = VECTOR('',#708,1.);
#708 = DIRECTION('',(-1.,9.926167350636E-24));
#709 = ( GEOMETRIC_REPRESENTATION_CONTEXT(2) 
PARAMETRIC_REPRESENTATION_CONTEXT() REPRESENTATION_CONTEXT('2D SPACE',''
  ) );
#710 = ORIENTED_EDGE('',*,*,#711,.T.);
#711 = EDGE_CURVE('',#689,#712,#714,.T.);
#712 = VERTEX_POINT('',#713);
#713 = CARTESIAN_POINT('',(-493.0000220845,145.05247143481,
    15.565755709923));
#714 = SURFACE_CURVE('',#715,(#719,#726),.PCURVE_S1.);
#715 = LINE('',#716,#717);
#716 = CARTESIAN_POINT('',(-493.0000221336,147.76008874797,
    15.078699970205));
#717 = VECTOR('',#718,1.);
#718 = DIRECTION('',(1.784512240106E-08,-0.984203304892,0.177041957284)
  );
#719 = PCURVE('',#462,#720);
#720 = DEFINITIONAL_REPRESENTATION('',(#721),#725);
#721 = LINE('',#722,#723);
#722 = CARTESIAN_POINT('',(42.63613397684,-0.848524794004));
#723 = VECTOR('',#724,1.);
#724 = DIRECTION('',(-0.984203304892,-0.177041957284));
#725 = ( GEOMETRIC_REPRESENTATION_CONTEXT(2) 
PARAMETRIC_REPRESENTATION_CONTEXT() REPRESENTATION_CONTEXT('2D SPACE',''
  ) );
#726 = PCURVE('',#268,#727);
#727 = DEFINITIONAL_REPRESENTATION('',(#728),#732);
#728 = LINE('',#729,#730);
#729 = CARTESIAN_POINT('',(-9.726859880078E-13,-6.));
#730 = VECTOR('',#731,1.);
#731 = DIRECTION('',(-1.,-3.308722450212E-24));
#732 = ( GEOMETRIC_REPRESENTATION_CONTEXT(2) 
PARAMETRIC_REPRESENTATION_CONTEXT() REPRESENTATION_CONTEXT('2D SPACE',''
  ) );
#733 = ORIENTED_EDGE('',*,*,#734,.T.);
#734 = EDGE_CURVE('',#712,#735,#737,.T.);
#735 = VERTEX_POINT('',#736);
#736 = CARTESIAN_POINT('',(-493.0000220387,142.43237232681,
    16.019668683854));
#737 = SURFACE_CURVE('',#738,(#742,#749),.PCURVE_S1.);
#738 = LINE('',#739,#740);
#739 = CARTESIAN_POINT('',(-493.0000220845,145.05247143481,
    15.565755709923));
#740 = VECTOR('',#741,1.);
#741 = DIRECTION('',(1.720890259833E-08,-0.985323048708,0.170699999079)
  );
#742 = PCURVE('',#462,#743);
#743 = DEFINITIONAL_REPRESENTATION('',(#744),#748);
#744 = LINE('',#745,#746);
#745 = CARTESIAN_POINT('',(39.92851666368,-1.335580533722));
#746 = VECTOR('',#747,1.);
#747 = DIRECTION('',(-0.985323048708,-0.170699999079));
#748 = ( GEOMETRIC_REPRESENTATION_CONTEXT(2) 
PARAMETRIC_REPRESENTATION_CONTEXT() REPRESENTATION_CONTEXT('2D SPACE',''
  ) );
#749 = PCURVE('',#296,#750);
#750 = DEFINITIONAL_REPRESENTATION('',(#751),#755);
#751 = LINE('',#752,#753);
#752 = CARTESIAN_POINT('',(-1.144942217541E-12,-6.));
#753 = VECTOR('',#754,1.);
#754 = DIRECTION('',(-1.,-3.308722450212E-24));
#755 = ( GEOMETRIC_REPRESENTATION_CONTEXT(2) 
PARAMETRIC_REPRESENTATION_CONTEXT() REPRESENTATION_CONTEXT('2D SPACE',''
  ) );
#756 = ORIENTED_EDGE('',*,*,#757,.T.);
#757 = EDGE_CURVE('',#735,#758,#760,.T.);
#758 = VERTEX_POINT('',#759);
#759 = CARTESIAN_POINT('',(-493.0000219929,139.71413729776,
    16.474324413339));
#760 = SURFACE_CURVE('',#761,(#765,#772),.PCURVE_S1.);
#761 = LINE('',#762,#763);
#762 = CARTESIAN_POINT('',(-493.0000220387,142.43237232681,
    16.019668683854));
#763 = VECTOR('',#764,1.);
#764 = DIRECTION('',(1.663403761432E-08,-0.986298640835,0.164969667173)
  );
#765 = PCURVE('',#462,#766);
#766 = DEFINITIONAL_REPRESENTATION('',(#767),#771);
#767 = LINE('',#768,#769);
#768 = CARTESIAN_POINT('',(37.30841755568,-1.789493507653));
#769 = VECTOR('',#770,1.);
#770 = DIRECTION('',(-0.986298640835,-0.164969667173));
#771 = ( GEOMETRIC_REPRESENTATION_CONTEXT(2) 
PARAMETRIC_REPRESENTATION_CONTEXT() REPRESENTATION_CONTEXT('2D SPACE',''
  ) );
#772 = PCURVE('',#324,#773);
#773 = DEFINITIONAL_REPRESENTATION('',(#774),#778);
#774 = LINE('',#775,#776);
#775 = CARTESIAN_POINT('',(-1.144037852705E-12,-6.));
#776 = VECTOR('',#777,1.);
#777 = DIRECTION('',(-1.,0.));
#778 = ( GEOMETRIC_REPRESENTATION_CONTEXT(2) 
PARAMETRIC_REPRESENTATION_CONTEXT() REPRESENTATION_CONTEXT('2D SPACE',''
  ) );
#779 = ORIENTED_EDGE('',*,*,#780,.T.);
#780 = EDGE_CURVE('',#758,#781,#783,.T.);
#781 = VERTEX_POINT('',#782);
#782 = CARTESIAN_POINT('',(-493.0000219489,136.99112813209,
    16.910801989058));
#783 = SURFACE_CURVE('',#784,(#788,#795),.PCURVE_S1.);
#784 = LINE('',#785,#786);
#785 = CARTESIAN_POINT('',(-493.0000219929,139.71413729776,
    16.474324413339));
#786 = VECTOR('',#787,1.);
#787 = DIRECTION('',(1.596212302921E-08,-0.987395556123,0.158271967662)
  );
#788 = PCURVE('',#462,#789);
#789 = DEFINITIONAL_REPRESENTATION('',(#790),#794);
#790 = LINE('',#791,#792);
#791 = CARTESIAN_POINT('',(34.59018252663,-2.244149237138));
#792 = VECTOR('',#793,1.);
#793 = DIRECTION('',(-0.987395556123,-0.158271967662));
#794 = ( GEOMETRIC_REPRESENTATION_CONTEXT(2) 
PARAMETRIC_REPRESENTATION_CONTEXT() REPRESENTATION_CONTEXT('2D SPACE',''
  ) );
#795 = PCURVE('',#352,#796);
#796 = DEFINITIONAL_REPRESENTATION('',(#797),#801);
#797 = LINE('',#798,#799);
#798 = CARTESIAN_POINT('',(-1.142870325506E-12,-6.));
#799 = VECTOR('',#800,1.);
#800 = DIRECTION('',(-1.,0.));
#801 = ( GEOMETRIC_REPRESENTATION_CONTEXT(2) 
PARAMETRIC_REPRESENTATION_CONTEXT() REPRESENTATION_CONTEXT('2D SPACE',''
  ) );
#802 = ORIENTED_EDGE('',*,*,#803,.T.);
#803 = EDGE_CURVE('',#781,#804,#806,.T.);
#804 = VERTEX_POINT('',#805);
#805 = CARTESIAN_POINT('',(-493.0000219084,134.36137405025,
    17.312131048304));
#806 = SURFACE_CURVE('',#807,(#811,#818),.PCURVE_S1.);
#807 = LINE('',#808,#809);
#808 = CARTESIAN_POINT('',(-493.0000219489,136.99112813209,
    16.910801989058));
#809 = VECTOR('',#810,1.);
#810 = DIRECTION('',(1.521896603952E-08,-0.988554502452,0.150864163011)
  );
#811 = PCURVE('',#462,#812);
#812 = DEFINITIONAL_REPRESENTATION('',(#813),#817);
#813 = LINE('',#814,#815);
#814 = CARTESIAN_POINT('',(31.86717336096,-2.680626812857));
#815 = VECTOR('',#816,1.);
#816 = DIRECTION('',(-0.988554502452,-0.150864163011));
#817 = ( GEOMETRIC_REPRESENTATION_CONTEXT(2) 
PARAMETRIC_REPRESENTATION_CONTEXT() REPRESENTATION_CONTEXT('2D SPACE',''
  ) );
#818 = PCURVE('',#380,#819);
#819 = DEFINITIONAL_REPRESENTATION('',(#820),#824);
#820 = LINE('',#821,#822);
#821 = CARTESIAN_POINT('',(-1.141206115101E-12,-6.));
#822 = VECTOR('',#823,1.);
#823 = DIRECTION('',(-1.,1.323488980085E-23));
#824 = ( GEOMETRIC_REPRESENTATION_CONTEXT(2) 
PARAMETRIC_REPRESENTATION_CONTEXT() REPRESENTATION_CONTEXT('2D SPACE',''
  ) );
#825 = ORIENTED_EDGE('',*,*,#826,.T.);
#826 = EDGE_CURVE('',#804,#526,#827,.T.);
#827 = SURFACE_CURVE('',#828,(#832,#839),.PCURVE_S1.);
#828 = LINE('',#829,#830);
#829 = CARTESIAN_POINT('',(-493.0000219084,134.36137405025,
    17.312131048304));
#830 = VECTOR('',#831,1.);
#831 = DIRECTION('',(1.450833809729E-08,-0.989609581567,0.143780652629)
  );
#832 = PCURVE('',#462,#833);
#833 = DEFINITIONAL_REPRESENTATION('',(#834),#838);
#834 = LINE('',#835,#836);
#835 = CARTESIAN_POINT('',(29.23741927912,-3.081955872103));
#836 = VECTOR('',#837,1.);
#837 = DIRECTION('',(-0.989609581567,-0.143780652629));
#838 = ( GEOMETRIC_REPRESENTATION_CONTEXT(2) 
PARAMETRIC_REPRESENTATION_CONTEXT() REPRESENTATION_CONTEXT('2D SPACE',''
  ) );
#839 = PCURVE('',#408,#840);
#840 = DEFINITIONAL_REPRESENTATION('',(#841),#845);
#841 = LINE('',#842,#843);
#842 = CARTESIAN_POINT('',(-1.168273250859E-12,-6.));
#843 = VECTOR('',#844,1.);
#844 = DIRECTION('',(-1.,4.963083675318E-24));
#845 = ( GEOMETRIC_REPRESENTATION_CONTEXT(2) 
PARAMETRIC_REPRESENTATION_CONTEXT() REPRESENTATION_CONTEXT('2D SPACE',''
  ) );
#846 = ADVANCED_FACE('',(#847),#436,.F.);
#847 = FACE_BOUND('',#848,.T.);
#848 = EDGE_LOOP('',(#849,#850,#871));
#849 = ORIENTED_EDGE('',*,*,#420,.T.);
#850 = ORIENTED_EDGE('',*,*,#851,.T.);
#851 = EDGE_CURVE('',#393,#526,#852,.T.);
#852 = SURFACE_CURVE('',#853,(#857,#864),.PCURVE_S1.);
#853 = LINE('',#854,#855);
#854 = CARTESIAN_POINT('',(-487.0000218652,131.41269329948,
    17.740545096593));
#855 = VECTOR('',#856,1.);
#856 = DIRECTION('',(-1.,-8.313972134781E-11,1.003338207795E-07));
#857 = PCURVE('',#436,#858);
#858 = DEFINITIONAL_REPRESENTATION('',(#859),#863);
#859 = LINE('',#860,#861);
#860 = CARTESIAN_POINT('',(-0.,0.));
#861 = VECTOR('',#862,1.);
#862 = DIRECTION('',(1.112392487761E-20,-1.));
#863 = ( GEOMETRIC_REPRESENTATION_CONTEXT(2) 
PARAMETRIC_REPRESENTATION_CONTEXT() REPRESENTATION_CONTEXT('2D SPACE',''
  ) );
#864 = PCURVE('',#408,#865);
#865 = DEFINITIONAL_REPRESENTATION('',(#866),#870);
#866 = LINE('',#867,#868);
#867 = CARTESIAN_POINT('',(-2.979640462454,3.572401727359E-13));
#868 = VECTOR('',#869,1.);
#869 = DIRECTION('',(-2.243313821244E-21,-1.));
#870 = ( GEOMETRIC_REPRESENTATION_CONTEXT(2) 
PARAMETRIC_REPRESENTATION_CONTEXT() REPRESENTATION_CONTEXT('2D SPACE',''
  ) );
#871 = ORIENTED_EDGE('',*,*,#525,.T.);
#872 = ADVANCED_FACE('',(#873),#408,.F.);
#873 = FACE_BOUND('',#874,.T.);
#874 = EDGE_LOOP('',(#875,#876,#897,#898));
#875 = ORIENTED_EDGE('',*,*,#392,.T.);
#876 = ORIENTED_EDGE('',*,*,#877,.T.);
#877 = EDGE_CURVE('',#365,#804,#878,.T.);
#878 = SURFACE_CURVE('',#879,(#883,#890),.PCURVE_S1.);
#879 = LINE('',#880,#881);
#880 = CARTESIAN_POINT('',(-487.0000219084,134.36137405075,
    17.312130446301));
#881 = VECTOR('',#882,1.);
#882 = DIRECTION('',(-1.,-8.313972134781E-11,1.003338207795E-07));
#883 = PCURVE('',#408,#884);
#884 = DEFINITIONAL_REPRESENTATION('',(#885),#889);
#885 = LINE('',#886,#887);
#886 = CARTESIAN_POINT('',(-0.,0.));
#887 = VECTOR('',#888,1.);
#888 = DIRECTION('',(-2.243313821244E-21,-1.));
#889 = ( GEOMETRIC_REPRESENTATION_CONTEXT(2) 
PARAMETRIC_REPRESENTATION_CONTEXT() REPRESENTATION_CONTEXT('2D SPACE',''
  ) );
#890 = PCURVE('',#380,#891);
#891 = DEFINITIONAL_REPRESENTATION('',(#892),#896);
#892 = LINE('',#893,#894);
#893 = CARTESIAN_POINT('',(-2.660201410561,4.507076306224E-12));
#894 = VECTOR('',#895,1.);
#895 = DIRECTION('',(4.406225686947E-20,-1.));
#896 = ( GEOMETRIC_REPRESENTATION_CONTEXT(2) 
PARAMETRIC_REPRESENTATION_CONTEXT() REPRESENTATION_CONTEXT('2D SPACE',''
  ) );
#897 = ORIENTED_EDGE('',*,*,#826,.T.);
#898 = ORIENTED_EDGE('',*,*,#851,.F.);
#899 = ADVANCED_FACE('',(#900),#380,.F.);
#900 = FACE_BOUND('',#901,.T.);
#901 = EDGE_LOOP('',(#902,#903,#924,#925));
#902 = ORIENTED_EDGE('',*,*,#364,.T.);
#903 = ORIENTED_EDGE('',*,*,#904,.T.);
#904 = EDGE_CURVE('',#337,#781,#905,.T.);
#905 = SURFACE_CURVE('',#906,(#910,#917),.PCURVE_S1.);
#906 = LINE('',#907,#908);
#907 = CARTESIAN_POINT('',(-487.0000219489,136.99112813259,
    16.910801387055));
#908 = VECTOR('',#909,1.);
#909 = DIRECTION('',(-1.,-8.313972134781E-11,1.003338207795E-07));
#910 = PCURVE('',#380,#911);
#911 = DEFINITIONAL_REPRESENTATION('',(#912),#916);
#912 = LINE('',#913,#914);
#913 = CARTESIAN_POINT('',(-0.,0.));
#914 = VECTOR('',#915,1.);
#915 = DIRECTION('',(4.406225686947E-20,-1.));
#916 = ( GEOMETRIC_REPRESENTATION_CONTEXT(2) 
PARAMETRIC_REPRESENTATION_CONTEXT() REPRESENTATION_CONTEXT('2D SPACE',''
  ) );
#917 = PCURVE('',#352,#918);
#918 = DEFINITIONAL_REPRESENTATION('',(#919),#923);
#919 = LINE('',#920,#921);
#920 = CARTESIAN_POINT('',(-2.757769314215,1.452334805257E-13));
#921 = VECTOR('',#922,1.);
#922 = DIRECTION('',(-1.406537913585E-20,-1.));
#923 = ( GEOMETRIC_REPRESENTATION_CONTEXT(2) 
PARAMETRIC_REPRESENTATION_CONTEXT() REPRESENTATION_CONTEXT('2D SPACE',''
  ) );
#924 = ORIENTED_EDGE('',*,*,#803,.T.);
#925 = ORIENTED_EDGE('',*,*,#877,.F.);
#926 = ADVANCED_FACE('',(#927),#352,.F.);
#927 = FACE_BOUND('',#928,.T.);
#928 = EDGE_LOOP('',(#929,#930,#951,#952));
#929 = ORIENTED_EDGE('',*,*,#336,.T.);
#930 = ORIENTED_EDGE('',*,*,#931,.T.);
#931 = EDGE_CURVE('',#309,#758,#932,.T.);
#932 = SURFACE_CURVE('',#933,(#937,#944),.PCURVE_S1.);
#933 = LINE('',#934,#935);
#934 = CARTESIAN_POINT('',(-487.0000219929,139.71413729826,
    16.474323811336));
#935 = VECTOR('',#936,1.);
#936 = DIRECTION('',(-1.,-8.313972134781E-11,1.003338207795E-07));
#937 = PCURVE('',#352,#938);
#938 = DEFINITIONAL_REPRESENTATION('',(#939),#943);
#939 = LINE('',#940,#941);
#940 = CARTESIAN_POINT('',(-0.,0.));
#941 = VECTOR('',#942,1.);
#942 = DIRECTION('',(-1.406537913585E-20,-1.));
#943 = ( GEOMETRIC_REPRESENTATION_CONTEXT(2) 
PARAMETRIC_REPRESENTATION_CONTEXT() REPRESENTATION_CONTEXT('2D SPACE',''
  ) );
#944 = PCURVE('',#324,#945);
#945 = DEFINITIONAL_REPRESENTATION('',(#946),#950);
#946 = LINE('',#947,#948);
#947 = CARTESIAN_POINT('',(-2.755995918993,-3.328883197888E-12));
#948 = VECTOR('',#949,1.);
#949 = DIRECTION('',(-3.428829075155E-20,-1.));
#950 = ( GEOMETRIC_REPRESENTATION_CONTEXT(2) 
PARAMETRIC_REPRESENTATION_CONTEXT() REPRESENTATION_CONTEXT('2D SPACE',''
  ) );
#951 = ORIENTED_EDGE('',*,*,#780,.T.);
#952 = ORIENTED_EDGE('',*,*,#904,.F.);
#953 = ADVANCED_FACE('',(#954),#324,.F.);
#954 = FACE_BOUND('',#955,.T.);
#955 = EDGE_LOOP('',(#956,#957,#978,#979));
#956 = ORIENTED_EDGE('',*,*,#308,.T.);
#957 = ORIENTED_EDGE('',*,*,#958,.T.);
#958 = EDGE_CURVE('',#281,#735,#959,.T.);
#959 = SURFACE_CURVE('',#960,(#964,#971),.PCURVE_S1.);
#960 = LINE('',#961,#962);
#961 = CARTESIAN_POINT('',(-487.0000220387,142.43237232731,
    16.019668081851));
#962 = VECTOR('',#963,1.);
#963 = DIRECTION('',(-1.,-8.313972134781E-11,1.003338207795E-07));
#964 = PCURVE('',#324,#965);
#965 = DEFINITIONAL_REPRESENTATION('',(#966),#970);
#966 = LINE('',#967,#968);
#967 = CARTESIAN_POINT('',(-0.,0.));
#968 = VECTOR('',#969,1.);
#969 = DIRECTION('',(-3.428829075155E-20,-1.));
#970 = ( GEOMETRIC_REPRESENTATION_CONTEXT(2) 
PARAMETRIC_REPRESENTATION_CONTEXT() REPRESENTATION_CONTEXT('2D SPACE',''
  ) );
#971 = PCURVE('',#296,#972);
#972 = DEFINITIONAL_REPRESENTATION('',(#973),#977);
#973 = LINE('',#974,#975);
#974 = CARTESIAN_POINT('',(-2.659126985243,-6.819211483983E-13));
#975 = VECTOR('',#976,1.);
#976 = DIRECTION('',(-2.035195179125E-20,-1.));
#977 = ( GEOMETRIC_REPRESENTATION_CONTEXT(2) 
PARAMETRIC_REPRESENTATION_CONTEXT() REPRESENTATION_CONTEXT('2D SPACE',''
  ) );
#978 = ORIENTED_EDGE('',*,*,#757,.T.);
#979 = ORIENTED_EDGE('',*,*,#931,.F.);
#980 = ADVANCED_FACE('',(#981),#296,.F.);
#981 = FACE_BOUND('',#982,.T.);
#982 = EDGE_LOOP('',(#983,#984,#1005,#1006));
#983 = ORIENTED_EDGE('',*,*,#280,.T.);
#984 = ORIENTED_EDGE('',*,*,#985,.T.);
#985 = EDGE_CURVE('',#253,#712,#986,.T.);
#986 = SURFACE_CURVE('',#987,(#991,#998),.PCURVE_S1.);
#987 = LINE('',#988,#989);
#988 = CARTESIAN_POINT('',(-487.0000220845,145.05247143531,
    15.56575510792));
#989 = VECTOR('',#990,1.);
#990 = DIRECTION('',(-1.,-8.313972134781E-11,1.003338207795E-07));
#991 = PCURVE('',#296,#992);
#992 = DEFINITIONAL_REPRESENTATION('',(#993),#997);
#993 = LINE('',#994,#995);
#994 = CARTESIAN_POINT('',(-0.,0.));
#995 = VECTOR('',#996,1.);
#996 = DIRECTION('',(-2.035195179125E-20,-1.));
#997 = ( GEOMETRIC_REPRESENTATION_CONTEXT(2) 
PARAMETRIC_REPRESENTATION_CONTEXT() REPRESENTATION_CONTEXT('2D SPACE',''
  ) );
#998 = PCURVE('',#268,#999);
#999 = DEFINITIONAL_REPRESENTATION('',(#1000),#1004);
#1000 = LINE('',#1001,#1002);
#1001 = CARTESIAN_POINT('',(-2.751075209462,-3.240475743784E-12));
#1002 = VECTOR('',#1003,1.);
#1003 = DIRECTION('',(-5.30652906565E-20,-1.));
#1004 = ( GEOMETRIC_REPRESENTATION_CONTEXT(2) 
PARAMETRIC_REPRESENTATION_CONTEXT() REPRESENTATION_CONTEXT('2D SPACE',''
  ) );
#1005 = ORIENTED_EDGE('',*,*,#734,.T.);
#1006 = ORIENTED_EDGE('',*,*,#958,.F.);
#1007 = ADVANCED_FACE('',(#1008),#268,.F.);
#1008 = FACE_BOUND('',#1009,.T.);
#1009 = EDGE_LOOP('',(#1010,#1011,#1032,#1033));
#1010 = ORIENTED_EDGE('',*,*,#252,.T.);
#1011 = ORIENTED_EDGE('',*,*,#1012,.T.);
#1012 = EDGE_CURVE('',#225,#689,#1013,.T.);
#1013 = SURFACE_CURVE('',#1014,(#1018,#1025),.PCURVE_S1.);
#1014 = LINE('',#1015,#1016);
#1015 = CARTESIAN_POINT('',(-487.0000221336,147.76008874847,
    15.078699368203));
#1016 = VECTOR('',#1017,1.);
#1017 = DIRECTION('',(-1.,-8.313972134781E-11,1.003338207795E-07));
#1018 = PCURVE('',#268,#1019);
#1019 = DEFINITIONAL_REPRESENTATION('',(#1020),#1024);
#1020 = LINE('',#1021,#1022);
#1021 = CARTESIAN_POINT('',(-0.,0.));
#1022 = VECTOR('',#1023,1.);
#1023 = DIRECTION('',(-5.30652906565E-20,-1.));
#1024 = ( GEOMETRIC_REPRESENTATION_CONTEXT(2) 
PARAMETRIC_REPRESENTATION_CONTEXT() REPRESENTATION_CONTEXT('2D SPACE',''
  ) );
#1025 = PCURVE('',#240,#1026);
#1026 = DEFINITIONAL_REPRESENTATION('',(#1027),#1031);
#1027 = LINE('',#1028,#1029);
#1028 = CARTESIAN_POINT('',(-2.751629902269,6.974734469223E-14));
#1029 = VECTOR('',#1030,1.);
#1030 = DIRECTION('',(2.625802136488E-20,-1.));
#1031 = ( GEOMETRIC_REPRESENTATION_CONTEXT(2) 
PARAMETRIC_REPRESENTATION_CONTEXT() REPRESENTATION_CONTEXT('2D SPACE',''
  ) );
#1032 = ORIENTED_EDGE('',*,*,#711,.T.);
#1033 = ORIENTED_EDGE('',*,*,#985,.F.);
#1034 = ADVANCED_FACE('',(#1035),#240,.F.);
#1035 = FACE_BOUND('',#1036,.T.);
#1036 = EDGE_LOOP('',(#1037,#1038,#1059,#1060));
#1037 = ORIENTED_EDGE('',*,*,#224,.T.);
#1038 = ORIENTED_EDGE('',*,*,#1039,.T.);
#1039 = EDGE_CURVE('',#197,#666,#1040,.T.);
#1040 = SURFACE_CURVE('',#1041,(#1045,#1052),.PCURVE_S1.);
#1041 = LINE('',#1042,#1043);
#1042 = CARTESIAN_POINT('',(-487.0000221843,150.46541460377,
    14.576027372058));
#1043 = VECTOR('',#1044,1.);
#1044 = DIRECTION('',(-1.,-8.313972134781E-11,1.003338207795E-07));
#1045 = PCURVE('',#240,#1046);
#1046 = DEFINITIONAL_REPRESENTATION('',(#1047),#1051);
#1047 = LINE('',#1048,#1049);
#1048 = CARTESIAN_POINT('',(-0.,0.));
#1049 = VECTOR('',#1050,1.);
#1050 = DIRECTION('',(2.625802136488E-20,-1.));
#1051 = ( GEOMETRIC_REPRESENTATION_CONTEXT(2) 
PARAMETRIC_REPRESENTATION_CONTEXT() REPRESENTATION_CONTEXT('2D SPACE',''
  ) );
#1052 = PCURVE('',#212,#1053);
#1053 = DEFINITIONAL_REPRESENTATION('',(#1054),#1058);
#1054 = LINE('',#1055,#1056);
#1055 = CARTESIAN_POINT('',(-2.686151081717,3.936061595241E-12));
#1056 = VECTOR('',#1057,1.);
#1057 = DIRECTION('',(-1.546827745474E-20,-1.));
#1058 = ( GEOMETRIC_REPRESENTATION_CONTEXT(2) 
PARAMETRIC_REPRESENTATION_CONTEXT() REPRESENTATION_CONTEXT('2D SPACE',''
  ) );
#1059 = ORIENTED_EDGE('',*,*,#688,.T.);
#1060 = ORIENTED_EDGE('',*,*,#1012,.F.);
#1061 = ADVANCED_FACE('',(#1062),#212,.F.);
#1062 = FACE_BOUND('',#1063,.T.);
#1063 = EDGE_LOOP('',(#1064,#1065,#1086,#1087));
#1064 = ORIENTED_EDGE('',*,*,#196,.T.);
#1065 = ORIENTED_EDGE('',*,*,#1066,.T.);
#1066 = EDGE_CURVE('',#169,#643,#1067,.T.);
#1067 = SURFACE_CURVE('',#1068,(#1072,#1079),.PCURVE_S1.);
#1068 = LINE('',#1069,#1070);
#1069 = CARTESIAN_POINT('',(-487.000022235,153.10388152732,
    14.072142536863));
#1070 = VECTOR('',#1071,1.);
#1071 = DIRECTION('',(-1.,-8.313972134781E-11,1.003338207795E-07));
#1072 = PCURVE('',#212,#1073);
#1073 = DEFINITIONAL_REPRESENTATION('',(#1074),#1078);
#1074 = LINE('',#1075,#1076);
#1075 = CARTESIAN_POINT('',(-0.,0.));
#1076 = VECTOR('',#1077,1.);
#1077 = DIRECTION('',(-1.546827745474E-20,-1.));
#1078 = ( GEOMETRIC_REPRESENTATION_CONTEXT(2) 
PARAMETRIC_REPRESENTATION_CONTEXT() REPRESENTATION_CONTEXT('2D SPACE',''
  ) );
#1079 = PCURVE('',#184,#1080);
#1080 = DEFINITIONAL_REPRESENTATION('',(#1081),#1085);
#1081 = LINE('',#1082,#1083);
#1082 = CARTESIAN_POINT('',(-2.742667410435,-5.618220288624E-14));
#1083 = VECTOR('',#1084,1.);
#1084 = DIRECTION('',(7.047578818952E-21,-1.));
#1085 = ( GEOMETRIC_REPRESENTATION_CONTEXT(2) 
PARAMETRIC_REPRESENTATION_CONTEXT() REPRESENTATION_CONTEXT('2D SPACE',''
  ) );
#1086 = ORIENTED_EDGE('',*,*,#665,.T.);
#1087 = ORIENTED_EDGE('',*,*,#1039,.F.);
#1088 = ADVANCED_FACE('',(#1089),#184,.F.);
#1089 = FACE_BOUND('',#1090,.T.);
#1090 = EDGE_LOOP('',(#1091,#1092,#1113,#1114));
#1091 = ORIENTED_EDGE('',*,*,#168,.T.);
#1092 = ORIENTED_EDGE('',*,*,#1093,.T.);
#1093 = EDGE_CURVE('',#141,#620,#1094,.T.);
#1094 = SURFACE_CURVE('',#1095,(#1099,#1106),.PCURVE_S1.);
#1095 = LINE('',#1096,#1097);
#1096 = CARTESIAN_POINT('',(-487.0000222883,155.79508890483,
    13.543344488929));
#1097 = VECTOR('',#1098,1.);
#1098 = DIRECTION('',(-1.,-8.313972134781E-11,1.003338207795E-07));
#1099 = PCURVE('',#184,#1100);
#1100 = DEFINITIONAL_REPRESENTATION('',(#1101),#1105);
#1101 = LINE('',#1102,#1103);
#1102 = CARTESIAN_POINT('',(-0.,0.));
#1103 = VECTOR('',#1104,1.);
#1104 = DIRECTION('',(7.047578818952E-21,-1.));
#1105 = ( GEOMETRIC_REPRESENTATION_CONTEXT(2) 
PARAMETRIC_REPRESENTATION_CONTEXT() REPRESENTATION_CONTEXT('2D SPACE',''
  ) );
#1106 = PCURVE('',#156,#1107);
#1107 = DEFINITIONAL_REPRESENTATION('',(#1108),#1112);
#1108 = LINE('',#1109,#1110);
#1109 = CARTESIAN_POINT('',(-1.88508184354,5.781444861843E-13));
#1110 = VECTOR('',#1111,1.);
#1111 = DIRECTION('',(3.307068088987E-20,-1.));
#1112 = ( GEOMETRIC_REPRESENTATION_CONTEXT(2) 
PARAMETRIC_REPRESENTATION_CONTEXT() REPRESENTATION_CONTEXT('2D SPACE',''
  ) );
#1113 = ORIENTED_EDGE('',*,*,#642,.T.);
#1114 = ORIENTED_EDGE('',*,*,#1066,.F.);
#1115 = ADVANCED_FACE('',(#1116),#156,.F.);
#1116 = FACE_BOUND('',#1117,.T.);
#1117 = EDGE_LOOP('',(#1118,#1119,#1140,#1141));
#1118 = ORIENTED_EDGE('',*,*,#140,.T.);
#1119 = ORIENTED_EDGE('',*,*,#1120,.T.);
#1120 = EDGE_CURVE('',#113,#597,#1121,.T.);
#1121 = SURFACE_CURVE('',#1122,(#1126,#1133),.PCURVE_S1.);
#1122 = LINE('',#1123,#1124);
#1123 = CARTESIAN_POINT('',(-487.0000223257,157.64323843489,
    13.172026739041));
#1124 = VECTOR('',#1125,1.);
#1125 = DIRECTION('',(-1.,-8.313972134781E-11,1.003338207795E-07));
#1126 = PCURVE('',#156,#1127);
#1127 = DEFINITIONAL_REPRESENTATION('',(#1128),#1132);
#1128 = LINE('',#1129,#1130);
#1129 = CARTESIAN_POINT('',(-0.,0.));
#1130 = VECTOR('',#1131,1.);
#1131 = DIRECTION('',(3.307068088987E-20,-1.));
#1132 = ( GEOMETRIC_REPRESENTATION_CONTEXT(2) 
PARAMETRIC_REPRESENTATION_CONTEXT() REPRESENTATION_CONTEXT('2D SPACE',''
  ) );
#1133 = PCURVE('',#128,#1134);
#1134 = DEFINITIONAL_REPRESENTATION('',(#1135),#1139);
#1135 = LINE('',#1136,#1137);
#1136 = CARTESIAN_POINT('',(-1.49728785157,2.334339554402E-12));
#1137 = VECTOR('',#1138,1.);
#1138 = DIRECTION('',(2.440513679276E-20,-1.));
#1139 = ( GEOMETRIC_REPRESENTATION_CONTEXT(2) 
PARAMETRIC_REPRESENTATION_CONTEXT() REPRESENTATION_CONTEXT('2D SPACE',''
  ) );
#1140 = ORIENTED_EDGE('',*,*,#619,.T.);
#1141 = ORIENTED_EDGE('',*,*,#1093,.F.);
#1142 = ADVANCED_FACE('',(#1143),#128,.F.);
#1143 = FACE_BOUND('',#1144,.T.);
#1144 = EDGE_LOOP('',(#1145,#1146,#1167,#1168));
#1145 = ORIENTED_EDGE('',*,*,#112,.T.);
#1146 = ORIENTED_EDGE('',*,*,#1147,.T.);
#1147 = EDGE_CURVE('',#85,#574,#1148,.T.);
#1148 = SURFACE_CURVE('',#1149,(#1153,#1160),.PCURVE_S1.);
#1149 = LINE('',#1150,#1151);
#1150 = CARTESIAN_POINT('',(-487.0000223559,159.11029524767,
    12.872668728402));
#1151 = VECTOR('',#1152,1.);
#1152 = DIRECTION('',(-1.,-8.313972134781E-11,1.003338207795E-07));
#1153 = PCURVE('',#128,#1154);
#1154 = DEFINITIONAL_REPRESENTATION('',(#1155),#1159);
#1155 = LINE('',#1156,#1157);
#1156 = CARTESIAN_POINT('',(-0.,0.));
#1157 = VECTOR('',#1158,1.);
#1158 = DIRECTION('',(2.440513679276E-20,-1.));
#1159 = ( GEOMETRIC_REPRESENTATION_CONTEXT(2) 
PARAMETRIC_REPRESENTATION_CONTEXT() REPRESENTATION_CONTEXT('2D SPACE',''
  ) );
#1160 = PCURVE('',#100,#1161);
#1161 = DEFINITIONAL_REPRESENTATION('',(#1162),#1166);
#1162 = LINE('',#1163,#1164);
#1163 = CARTESIAN_POINT('',(-3.989782170082,-6.148417965762E-12));
#1164 = VECTOR('',#1165,1.);
#1165 = DIRECTION('',(-9.098986738083E-21,-1.));
#1166 = ( GEOMETRIC_REPRESENTATION_CONTEXT(2) 
PARAMETRIC_REPRESENTATION_CONTEXT() REPRESENTATION_CONTEXT('2D SPACE',''
  ) );
#1167 = ORIENTED_EDGE('',*,*,#596,.T.);
#1168 = ORIENTED_EDGE('',*,*,#1120,.F.);
#1169 = ADVANCED_FACE('',(#1170),#100,.F.);
#1170 = FACE_BOUND('',#1171,.T.);
#1171 = EDGE_LOOP('',(#1172,#1173,#1194,#1195));
#1172 = ORIENTED_EDGE('',*,*,#84,.T.);
#1173 = ORIENTED_EDGE('',*,*,#1174,.T.);
#1174 = EDGE_CURVE('',#57,#551,#1175,.T.);
#1175 = SURFACE_CURVE('',#1176,(#1180,#1187),.PCURVE_S1.);
#1176 = LINE('',#1177,#1178);
#1177 = CARTESIAN_POINT('',(-487.0000224383,163.0152840282,
    12.054485137368));
#1178 = VECTOR('',#1179,1.);
#1179 = DIRECTION('',(-1.,-8.313972134781E-11,1.003338207795E-07));
#1180 = PCURVE('',#100,#1181);
#1181 = DEFINITIONAL_REPRESENTATION('',(#1182),#1186);
#1182 = LINE('',#1183,#1184);
#1183 = CARTESIAN_POINT('',(-0.,0.));
#1184 = VECTOR('',#1185,1.);
#1185 = DIRECTION('',(-9.098986738083E-21,-1.));
#1186 = ( GEOMETRIC_REPRESENTATION_CONTEXT(2) 
PARAMETRIC_REPRESENTATION_CONTEXT() REPRESENTATION_CONTEXT('2D SPACE',''
  ) );
#1187 = PCURVE('',#72,#1188);
#1188 = DEFINITIONAL_REPRESENTATION('',(#1189),#1193);
#1189 = LINE('',#1190,#1191);
#1190 = CARTESIAN_POINT('',(-3.93310607025,6.82555377035E-12));
#1191 = VECTOR('',#1192,1.);
#1192 = DIRECTION('',(-3.163138662403E-21,-1.));
#1193 = ( GEOMETRIC_REPRESENTATION_CONTEXT(2) 
PARAMETRIC_REPRESENTATION_CONTEXT() REPRESENTATION_CONTEXT('2D SPACE',''
  ) );
#1194 = ORIENTED_EDGE('',*,*,#573,.T.);
#1195 = ORIENTED_EDGE('',*,*,#1147,.F.);
#1196 = ADVANCED_FACE('',(#1197),#72,.F.);
#1197 = FACE_BOUND('',#1198,.T.);
#1198 = EDGE_LOOP('',(#1199,#1200,#1201,#1202));
#1199 = ORIENTED_EDGE('',*,*,#56,.T.);
#1200 = ORIENTED_EDGE('',*,*,#501,.T.);
#1201 = ORIENTED_EDGE('',*,*,#550,.T.);
#1202 = ORIENTED_EDGE('',*,*,#1174,.F.);
#1203 = ( GEOMETRIC_REPRESENTATION_CONTEXT(3) 
GLOBAL_UNCERTAINTY_ASSIGNED_CONTEXT((#1207)) 
GLOBAL_UNIT_ASSIGNED_CONTEXT((#1204,#1205,#1206)) REPRESENTATION_CONTEXT
('Context #1','3D Context with UNIT and UNCERTAINTY') );
#1204 = ( LENGTH_UNIT() NAMED_UNIT(*) SI_UNIT(.MILLI.,.METRE.) );
#1205 = ( NAMED_UNIT(*) PLANE_ANGLE_UNIT() SI_UNIT($,.RADIAN.) );
#1206 = ( NAMED_UNIT(*) SI_UNIT($,.STERADIAN.) SOLID_ANGLE_UNIT() );
#1207 = UNCERTAINTY_MEASURE_WITH_UNIT(LENGTH_MEASURE(1.E-07),#1204,
  'distance_accuracy_value','confusion accuracy');
#1208 = PRODUCT_RELATED_PRODUCT_CATEGORY('part',$,(#7));
ENDSEC;
END-ISO-10303-21;
