ISO-10303-21;
HEADER;
FILE_DESCRIPTION(('Open CASCADE Model'),'2;1');
FILE_NAME('Open CASCADE Shape Model','2026-09-24T01:38:22',('Author'),(
    'Open CASCADE'),'Open CASCADE STEP processor 7.9','Open CASCADE 7.9'
  ,'Unknown');
FILE_SCHEMA(('AUTOMOTIVE_DESIGN { 1 0 10303 214 1 1 1 1 }'));
ENDSEC;
DATA;
#1 = APPLICATION_PROTOCOL_DEFINITION('international standard',
  'automotive_design',2000,#2);
#2 = APPLICATION_CONTEXT(
  'core data for automotive mechanical design processes');
#3 = SHAPE_DEFINITION_REPRESENTATION(#4,#10);
#4 = PRODUCT_DEFINITION_SHAPE('','',#5);
#5 = PRODUCT_DEFINITION('design','',#6,#9);
#6 = PRODUCT_DEFINITION_FORMATION('','',#7);
#7 = PRODUCT('Open CASCADE STEP translator 7.9 5',
  'Open CASCADE STEP translator 7.9 5','',(#8));
#8 = PRODUCT_CONTEXT('',#2,'mechanical');
#9 = PRODUCT_DEFINITION_CONTEXT('part definition',#2,'design');
#10 = ADVANCED_BREP_SHAPE_REPRESENTATION('',(#11,#15),#1171);
#11 = AXIS2_PLACEMENT_3D('',#12,#13,#14);
#12 = CARTESIAN_POINT('',(0.,0.,0.));
#13 = DIRECTION('',(0.,0.,1.));
#14 = DIRECTION('',(1.,0.,-0.));
#15 = MANIFOLD_SOLID_BREP('',#16);
#16 = CLOSED_SHELL('',(#17,#441,#489,#814,#840,#867,#894,#921,#948,#975,
    #1002,#1029,#1056,#1083,#1110,#1137,#1164));
#17 = ADVANCED_FACE('',(#18),#32,.F.);
#18 = FACE_BOUND('',#19,.F.);
#19 = EDGE_LOOP('',(#20,#53,#79,#105,#131,#157,#183,#209,#235,#261,#287,
    #313,#339,#365,#391,#417));
#20 = ORIENTED_EDGE('',*,*,#21,.F.);
#21 = EDGE_CURVE('',#22,#24,#26,.T.);
#22 = VERTEX_POINT('',#23);
#23 = CARTESIAN_POINT('',(492.96815897567,166.85909000427,
    11.221131685171));
#24 = VERTEX_POINT('',#25);
#25 = CARTESIAN_POINT('',(493.00002252287,160.59300402633,
    11.209943007228));
#26 = SURFACE_CURVE('',#27,(#31,#42),.PCURVE_S1.);
#27 = LINE('',#28,#29);
#28 = CARTESIAN_POINT('',(493.07326660654,146.189280465,11.184223822289)
  );
#29 = VECTOR('',#30,1.);
#30 = DIRECTION('',(5.085005945795E-03,-0.999985477127,
    -1.785566857982E-03));
#31 = PCURVE('',#32,#37);
#32 = PLANE('',#33);
#33 = AXIS2_PLACEMENT_3D('',#34,#35,#36);
#34 = CARTESIAN_POINT('',(492.98104373323,163.23700327719,
    11.455627523057));
#35 = DIRECTION('',(0.999723686394,5.042679038701E-03,2.295914306869E-02
    ));
#36 = DIRECTION('',(5.041349775544E-03,-0.999987285613,
    1.157770615333E-04));
#37 = DEFINITIONAL_REPRESENTATION('',(#38),#41);
#38 = B_SPLINE_CURVE_WITH_KNOTS('',1,(#39,#40),.UNSPECIFIED.,.F.,.F.,(2,
    2),(-20.67010972864,-14.40393274693),.PIECEWISE_BEZIER_KNOTS.);
#39 = CARTESIAN_POINT('',(-3.622132780281,0.234138197427));
#40 = CARTESIAN_POINT('',(2.644032868995,0.246055495048));
#41 = ( GEOMETRIC_REPRESENTATION_CONTEXT(2) 
PARAMETRIC_REPRESENTATION_CONTEXT() REPRESENTATION_CONTEXT('2D SPACE',''
  ) );
#42 = PCURVE('',#43,#48);
#43 = PLANE('',#44);
#44 = AXIS2_PLACEMENT_3D('',#45,#46,#47);
#45 = CARTESIAN_POINT('',(487.0000225259,129.10977560128,11.153726163482
    ));
#46 = DIRECTION('',(-1.00333809284E-07,-1.785590453589E-03,
    0.999998405832));
#47 = DIRECTION('',(-9.601552374681E-11,0.999998405832,
    1.785590453589E-03));
#48 = DEFINITIONAL_REPRESENTATION('',(#49),#52);
#49 = B_SPLINE_CURVE_WITH_KNOTS('',1,(#50,#51),.UNSPECIFIED.,.F.,.F.,(2,
    2),(-20.67010972864,-14.40393274693),.PIECEWISE_BEZIER_KNOTS.);
#50 = CARTESIAN_POINT('',(37.749374582331,-5.968136453397));
#51 = CARTESIAN_POINT('',(31.483278614303,-6.000000000005));
#52 = ( GEOMETRIC_REPRESENTATION_CONTEXT(2) 
PARAMETRIC_REPRESENTATION_CONTEXT() REPRESENTATION_CONTEXT('2D SPACE',''
  ) );
#53 = ORIENTED_EDGE('',*,*,#54,.F.);
#54 = EDGE_CURVE('',#55,#22,#57,.T.);
#55 = VERTEX_POINT('',#56);
#56 = CARTESIAN_POINT('',(492.9684090297,163.0152840277,12.054485736199)
  );
#57 = SURFACE_CURVE('',#58,(#62,#68),.PCURVE_S1.);
#58 = LINE('',#59,#60);
#59 = CARTESIAN_POINT('',(492.96827306904,165.10525793661,
    11.601370195469));
#60 = VECTOR('',#61,1.);
#61 = DIRECTION('',(-6.357673320565E-05,0.977295272525,-0.211881915834)
  );
#62 = PCURVE('',#32,#63);
#63 = DEFINITIONAL_REPRESENTATION('',(#64),#67);
#64 = B_SPLINE_CURVE_WITH_KNOTS('',1,(#65,#66),.UNSPECIFIED.,.F.,.F.,(2,
    2),(-2.138528618389,1.794577459817),.PIECEWISE_BEZIER_KNOTS.);
#65 = CARTESIAN_POINT('',(0.221722068547,-0.598990438231));
#66 = CARTESIAN_POINT('',(-3.622132780281,0.234138197427));
#67 = ( GEOMETRIC_REPRESENTATION_CONTEXT(2) 
PARAMETRIC_REPRESENTATION_CONTEXT() REPRESENTATION_CONTEXT('2D SPACE',''
  ) );
#68 = PCURVE('',#69,#74);
#69 = PLANE('',#70);
#70 = AXIS2_PLACEMENT_3D('',#71,#72,#73);
#71 = CARTESIAN_POINT('',(487.00002252228,166.85909000477,
    11.221131086365));
#72 = DIRECTION('',(9.803815311704E-08,-0.211881916256,-0.977295274502)
  );
#73 = DIRECTION('',(-2.134017426884E-08,-0.977295274502,0.211881916256)
  );
#74 = DEFINITIONAL_REPRESENTATION('',(#75),#78);
#75 = B_SPLINE_CURVE_WITH_KNOTS('',1,(#76,#77),.UNSPECIFIED.,.F.,.F.,(2,
    2),(-2.138528618389,1.794577459817),.PIECEWISE_BEZIER_KNOTS.);
#76 = CARTESIAN_POINT('',(3.933106070251,-5.968386591361));
#77 = CARTESIAN_POINT('',(-2.22044604925E-16,-5.968136453392));
#78 = ( GEOMETRIC_REPRESENTATION_CONTEXT(2) 
PARAMETRIC_REPRESENTATION_CONTEXT() REPRESENTATION_CONTEXT('2D SPACE',''
  ) );
#79 = ORIENTED_EDGE('',*,*,#80,.F.);
#80 = EDGE_CURVE('',#81,#55,#83,.T.);
#81 = VERTEX_POINT('',#82);
#82 = CARTESIAN_POINT('',(492.96931609128,159.11029524717,
    12.872669327324));
#83 = SURFACE_CURVE('',#84,(#88,#94),.PCURVE_S1.);
#84 = LINE('',#85,#86);
#85 = CARTESIAN_POINT('',(492.96837024798,163.1822431337,12.019504022142
    ));
#86 = VECTOR('',#87,1.);
#87 = DIRECTION('',(-2.273461347462E-04,0.978747338358,-0.205069734411)
  );
#88 = PCURVE('',#32,#89);
#89 = DEFINITIONAL_REPRESENTATION('',(#90),#93);
#90 = B_SPLINE_CURVE_WITH_KNOTS('',1,(#91,#92),.UNSPECIFIED.,.F.,.F.,(2,
    2),(-4.160366753448,-0.170584480238),.PIECEWISE_BEZIER_KNOTS.);
#91 = CARTESIAN_POINT('',(4.126760499246,-1.416937528438));
#92 = CARTESIAN_POINT('',(0.221722068546,-0.598990438232));
#93 = ( GEOMETRIC_REPRESENTATION_CONTEXT(2) 
PARAMETRIC_REPRESENTATION_CONTEXT() REPRESENTATION_CONTEXT('2D SPACE',''
  ) );
#94 = PCURVE('',#95,#100);
#95 = PLANE('',#96);
#96 = AXIS2_PLACEMENT_3D('',#97,#98,#99);
#97 = CARTESIAN_POINT('',(487.00002243834,163.0152840282,12.054485137368
    ));
#98 = DIRECTION('',(9.818441313249E-08,-0.205069739689,-0.978747363656)
  );
#99 = DIRECTION('',(-2.065680329233E-08,-0.978747363656,0.205069739689)
  );
#100 = DEFINITIONAL_REPRESENTATION('',(#101),#104);
#101 = B_SPLINE_CURVE_WITH_KNOTS('',1,(#102,#103),.UNSPECIFIED.,.F.,.F.,
  (2,2),(-4.160366753448,-0.170584480238),.PIECEWISE_BEZIER_KNOTS.);
#102 = CARTESIAN_POINT('',(3.989782170083,-5.969293735362));
#103 = CARTESIAN_POINT('',(-2.775557561563E-17,-5.968386591368));
#104 = ( GEOMETRIC_REPRESENTATION_CONTEXT(2) 
PARAMETRIC_REPRESENTATION_CONTEXT() REPRESENTATION_CONTEXT('2D SPACE',''
  ) );
#105 = ORIENTED_EDGE('',*,*,#106,.F.);
#106 = EDGE_CURVE('',#107,#81,#109,.T.);
#107 = VERTEX_POINT('',#108);
#108 = CARTESIAN_POINT('',(492.9698411296,157.64323843439,
    13.172027338016));
#109 = SURFACE_CURVE('',#110,(#114,#120),.PCURVE_S1.);
#110 = LINE('',#111,#112);
#111 = CARTESIAN_POINT('',(492.96855712539,161.23099015618,
    12.43993420506));
#112 = VECTOR('',#113,1.);
#113 = DIRECTION('',(-3.506595505697E-04,0.979809407413,-0.199933494399)
  );
#114 = PCURVE('',#32,#115);
#115 = DEFINITIONAL_REPRESENTATION('',(#116),#119);
#116 = B_SPLINE_CURVE_WITH_KNOTS('',1,(#117,#118),.UNSPECIFIED.,.F.,.F.,
  (2,2),(-3.661683277023,-2.164395333387),.PIECEWISE_BEZIER_KNOTS.);
#117 = CARTESIAN_POINT('',(5.593835964991,-1.716204573005));
#118 = CARTESIAN_POINT('',(4.126760499245,-1.416937528438));
#119 = ( GEOMETRIC_REPRESENTATION_CONTEXT(2) 
PARAMETRIC_REPRESENTATION_CONTEXT() REPRESENTATION_CONTEXT('2D SPACE',''
  ) );
#120 = PCURVE('',#121,#126);
#121 = PLANE('',#122);
#122 = AXIS2_PLACEMENT_3D('',#123,#124,#125);
#123 = CARTESIAN_POINT('',(487.00002235593,159.11029524767,
    12.872668728402));
#124 = DIRECTION('',(9.829140511018E-08,-0.199933506657,-0.97980946766)
  );
#125 = DIRECTION('',(-2.014155371088E-08,-0.97980946766,0.199933506657)
  );
#126 = DEFINITIONAL_REPRESENTATION('',(#127),#130);
#127 = B_SPLINE_CURVE_WITH_KNOTS('',1,(#128,#129),.UNSPECIFIED.,.F.,.F.,
  (2,2),(-3.661683277023,-2.164395333387),.PIECEWISE_BEZIER_KNOTS.);
#128 = CARTESIAN_POINT('',(1.497287851571,-5.969818803831));
#129 = CARTESIAN_POINT('',(-4.440892098501E-16,-5.969293735356));
#130 = ( GEOMETRIC_REPRESENTATION_CONTEXT(2) 
PARAMETRIC_REPRESENTATION_CONTEXT() REPRESENTATION_CONTEXT('2D SPACE',''
  ) );
#131 = ORIENTED_EDGE('',*,*,#132,.F.);
#132 = EDGE_CURVE('',#133,#107,#135,.T.);
#133 = VERTEX_POINT('',#134);
#134 = CARTESIAN_POINT('',(492.97063583674,155.79508890433,
    13.543345087983));
#135 = SURFACE_CURVE('',#136,(#140,#146),.PCURVE_S1.);
#136 = LINE('',#137,#138);
#137 = CARTESIAN_POINT('',(492.96861333407,160.49856666258,
    12.598354030815));
#138 = VECTOR('',#139,1.);
#139 = DIRECTION('',(-4.215769573478E-04,0.98040802427,-0.196976973833)
  );
#140 = PCURVE('',#32,#141);
#141 = DEFINITIONAL_REPRESENTATION('',(#142),#145);
#142 = B_SPLINE_CURVE_WITH_KNOTS('',1,(#143,#144),.UNSPECIFIED.,.F.,.F.,
  (2,2),(-4.797469667548,-2.912387656476),.PIECEWISE_BEZIER_KNOTS.);
#143 = CARTESIAN_POINT('',(7.442008993438,-2.087406196632));
#144 = CARTESIAN_POINT('',(5.59383596499,-1.716204573005));
#145 = ( GEOMETRIC_REPRESENTATION_CONTEXT(2) 
PARAMETRIC_REPRESENTATION_CONTEXT() REPRESENTATION_CONTEXT('2D SPACE',''
  ) );
#146 = PCURVE('',#147,#152);
#147 = PLANE('',#148);
#148 = AXIS2_PLACEMENT_3D('',#149,#150,#151);
#149 = CARTESIAN_POINT('',(487.00002232577,157.64323843489,
    13.172026739041));
#150 = DIRECTION('',(9.83517151279E-08,-0.196976991296,-0.980408111401)
  );
#151 = DIRECTION('',(-1.984496499961E-08,-0.980408111401,0.196976991296)
  );
#152 = DEFINITIONAL_REPRESENTATION('',(#153),#156);
#153 = B_SPLINE_CURVE_WITH_KNOTS('',1,(#154,#155),.UNSPECIFIED.,.F.,.F.,
  (2,2),(-4.797469667548,-2.912387656476),.PIECEWISE_BEZIER_KNOTS.);
#154 = CARTESIAN_POINT('',(1.885081843541,-5.970613548382));
#155 = CARTESIAN_POINT('',(0.,-5.969818803834));
#156 = ( GEOMETRIC_REPRESENTATION_CONTEXT(2) 
PARAMETRIC_REPRESENTATION_CONTEXT() REPRESENTATION_CONTEXT('2D SPACE',''
  ) );
#157 = ORIENTED_EDGE('',*,*,#158,.F.);
#158 = EDGE_CURVE('',#159,#133,#161,.T.);
#159 = VERTEX_POINT('',#160);
#160 = CARTESIAN_POINT('',(492.97206637701,153.10388152682,
    14.072143136061));
#161 = SURFACE_CURVE('',#162,(#166,#172),.PCURVE_S1.);
#162 = LINE('',#163,#164);
#163 = CARTESIAN_POINT('',(492.96862566276,159.57673360473,
    12.800285912087));
#164 = VECTOR('',#165,1.);
#165 = DIRECTION('',(-5.21587148627E-04,0.981237098296,-0.192804265705)
  );
#166 = PCURVE('',#32,#167);
#167 = DEFINITIONAL_REPRESENTATION('',(#168),#171);
#168 = B_SPLINE_CURVE_WITH_KNOTS('',1,(#169,#170),.UNSPECIFIED.,.F.,.F.,
  (2,2),(-6.596623883417,-3.853956099877),.PIECEWISE_BEZIER_KNOTS.);
#169 = CARTESIAN_POINT('',(10.133250588435,-2.61603200779));
#170 = CARTESIAN_POINT('',(7.442008993437,-2.087406196633));
#171 = ( GEOMETRIC_REPRESENTATION_CONTEXT(2) 
PARAMETRIC_REPRESENTATION_CONTEXT() REPRESENTATION_CONTEXT('2D SPACE',''
  ) );
#172 = PCURVE('',#173,#178);
#173 = PLANE('',#174);
#174 = AXIS2_PLACEMENT_3D('',#175,#176,#177);
#175 = CARTESIAN_POINT('',(487.00002228836,155.79508890483,
    13.543344488929));
#176 = DIRECTION('',(9.843525086058E-08,-0.192804291881,-0.98123723178)
  );
#177 = DIRECTION('',(-1.942637105715E-08,-0.98123723178,0.192804291881)
  );
#178 = DEFINITIONAL_REPRESENTATION('',(#179),#182);
#179 = B_SPLINE_CURVE_WITH_KNOTS('',1,(#180,#181),.UNSPECIFIED.,.F.,.F.,
  (2,2),(-6.596623883417,-3.853956099877),.PIECEWISE_BEZIER_KNOTS.);
#180 = CARTESIAN_POINT('',(2.742667410436,-5.972044141931));
#181 = CARTESIAN_POINT('',(8.881784197001E-16,-5.970613548382));
#182 = ( GEOMETRIC_REPRESENTATION_CONTEXT(2) 
PARAMETRIC_REPRESENTATION_CONTEXT() REPRESENTATION_CONTEXT('2D SPACE',''
  ) );
#183 = ORIENTED_EDGE('',*,*,#184,.F.);
#184 = EDGE_CURVE('',#185,#159,#187,.T.);
#185 = VERTEX_POINT('',#186);
#186 = CARTESIAN_POINT('',(492.97380303469,150.46541460327,
    14.57602797143));
#187 = SURFACE_CURVE('',#188,(#192,#198),.PCURVE_S1.);
#188 = LINE('',#189,#190);
#189 = CARTESIAN_POINT('',(492.96868897039,158.23510324525,
    13.092201038717));
#190 = VECTOR('',#191,1.);
#191 = DIRECTION('',(-6.465225784571E-04,0.982247942064,-0.187586146395)
  );
#192 = PCURVE('',#32,#193);
#193 = DEFINITIONAL_REPRESENTATION('',(#194),#197);
#194 = B_SPLINE_CURVE_WITH_KNOTS('',1,(#195,#196),.UNSPECIFIED.,.F.,.F.,
  (2,2),(-7.91010936165,-5.223957718506),.PIECEWISE_BEZIER_KNOTS.);
#195 = CARTESIAN_POINT('',(12.7717510589,-3.119744145142));
#196 = CARTESIAN_POINT('',(10.133250588434,-2.616032007789));
#197 = ( GEOMETRIC_REPRESENTATION_CONTEXT(2) 
PARAMETRIC_REPRESENTATION_CONTEXT() REPRESENTATION_CONTEXT('2D SPACE',''
  ) );
#198 = PCURVE('',#199,#204);
#199 = PLANE('',#200);
#200 = AXIS2_PLACEMENT_3D('',#201,#202,#203);
#201 = CARTESIAN_POINT('',(487.00002223508,153.10388152732,
    14.072142536863));
#202 = DIRECTION('',(9.853711371518E-08,-0.187586185537,-0.982248147362)
  );
#203 = DIRECTION('',(-1.890290255763E-08,-0.982248147362,0.187586185537)
  );
#204 = DEFINITIONAL_REPRESENTATION('',(#205),#208);
#205 = B_SPLINE_CURVE_WITH_KNOTS('',1,(#206,#207),.UNSPECIFIED.,.F.,.F.,
  (2,2),(-7.91010936165,-5.223957718506),.PIECEWISE_BEZIER_KNOTS.);
#206 = CARTESIAN_POINT('',(2.686151081718,-5.973780850394));
#207 = CARTESIAN_POINT('',(0.,-5.972044141931));
#208 = ( GEOMETRIC_REPRESENTATION_CONTEXT(2) 
PARAMETRIC_REPRESENTATION_CONTEXT() REPRESENTATION_CONTEXT('2D SPACE',''
  ) );
#209 = ORIENTED_EDGE('',*,*,#210,.F.);
#210 = EDGE_CURVE('',#211,#185,#213,.T.);
#211 = VERTEX_POINT('',#212);
#212 = CARTESIAN_POINT('',(492.97590478714,147.76008874797,
    15.078699967786));
#213 = SURFACE_CURVE('',#214,(#218,#224),.PCURVE_S1.);
#214 = LINE('',#215,#216);
#215 = CARTESIAN_POINT('',(492.96878806942,156.92055886152,
    13.376608594761));
#216 = VECTOR('',#217,1.);
#217 = DIRECTION('',(-7.638206832918E-04,0.983171851657,-0.182681489723)
  );
#218 = PCURVE('',#32,#219);
#219 = DEFINITIONAL_REPRESENTATION('',(#220),#223);
#220 = B_SPLINE_CURVE_WITH_KNOTS('',1,(#221,#222),.UNSPECIFIED.,.F.,.F.,
  (2,2),(-9.317262387158,-6.565631682167),.PIECEWISE_BEZIER_KNOTS.);
#221 = CARTESIAN_POINT('',(15.477111311197,-3.622235380817));
#222 = CARTESIAN_POINT('',(12.771751058899,-3.119744145141));
#223 = ( GEOMETRIC_REPRESENTATION_CONTEXT(2) 
PARAMETRIC_REPRESENTATION_CONTEXT() REPRESENTATION_CONTEXT('2D SPACE',''
  ) );
#224 = PCURVE('',#225,#230);
#225 = PLANE('',#226);
#226 = AXIS2_PLACEMENT_3D('',#227,#228,#229);
#227 = CARTESIAN_POINT('',(487.0000221843,150.46541460377,
    14.576027372058));
#228 = DIRECTION('',(9.863022904435E-08,-0.182681542939,-0.983172138473)
  );
#229 = DIRECTION('',(-1.841087784662E-08,-0.983172138473,0.182681542939)
  );
#230 = DEFINITIONAL_REPRESENTATION('',(#231),#234);
#231 = B_SPLINE_CURVE_WITH_KNOTS('',1,(#232,#233),.UNSPECIFIED.,.F.,.F.,
  (2,2),(-9.317262387158,-6.565631682167),.PIECEWISE_BEZIER_KNOTS.);
#232 = CARTESIAN_POINT('',(2.75162990227,-5.975882653503));
#233 = CARTESIAN_POINT('',(8.881784197001E-16,-5.973780850398));
#234 = ( GEOMETRIC_REPRESENTATION_CONTEXT(2) 
PARAMETRIC_REPRESENTATION_CONTEXT() REPRESENTATION_CONTEXT('2D SPACE',''
  ) );
#235 = ORIENTED_EDGE('',*,*,#236,.F.);
#236 = EDGE_CURVE('',#237,#211,#239,.T.);
#237 = VERTEX_POINT('',#238);
#238 = CARTESIAN_POINT('',(492.97837673282,145.05247143481,
    15.565755707751));
#239 = SURFACE_CURVE('',#240,(#244,#250),.PCURVE_S1.);
#240 = LINE('',#241,#242);
#241 = CARTESIAN_POINT('',(492.96877074633,155.57427840768,
    13.673056006044));
#242 = VECTOR('',#243,1.);
#243 = DIRECTION('',(-8.985376624276E-04,0.984202907568,-0.177041885902)
  );
#244 = PCURVE('',#32,#245);
#245 = DEFINITIONAL_REPRESENTATION('',(#246),#249);
#246 = B_SPLINE_CURVE_WITH_KNOTS('',1,(#247,#248),.UNSPECIFIED.,.F.,.F.,
  (2,2),(-10.69068877155,-7.939612451477),.PIECEWISE_BEZIER_KNOTS.);
#247 = CARTESIAN_POINT('',(18.184763050489,-4.109105977164));
#248 = CARTESIAN_POINT('',(15.477111311196,-3.622235380818));
#249 = ( GEOMETRIC_REPRESENTATION_CONTEXT(2) 
PARAMETRIC_REPRESENTATION_CONTEXT() REPRESENTATION_CONTEXT('2D SPACE',''
  ) );
#250 = PCURVE('',#251,#256);
#251 = PLANE('',#252);
#252 = AXIS2_PLACEMENT_3D('',#253,#254,#255);
#253 = CARTESIAN_POINT('',(487.00002213364,147.76008874847,
    15.078699368203));
#254 = DIRECTION('',(9.87341587847E-08,-0.177041957284,-0.984203304892)
  );
#255 = DIRECTION('',(-1.784512240106E-08,-0.984203304892,0.177041957284)
  );
#256 = DEFINITIONAL_REPRESENTATION('',(#257),#260);
#257 = B_SPLINE_CURVE_WITH_KNOTS('',1,(#258,#259),.UNSPECIFIED.,.F.,.F.,
  (2,2),(-10.69068877155,-7.939612451477),.PIECEWISE_BEZIER_KNOTS.);
#258 = CARTESIAN_POINT('',(2.751075209463,-5.978354648282));
#259 = CARTESIAN_POINT('',(0.,-5.975882653503));
#260 = ( GEOMETRIC_REPRESENTATION_CONTEXT(2) 
PARAMETRIC_REPRESENTATION_CONTEXT() REPRESENTATION_CONTEXT('2D SPACE',''
  ) );
#261 = ORIENTED_EDGE('',*,*,#262,.F.);
#262 = EDGE_CURVE('',#263,#237,#265,.T.);
#263 = VERTEX_POINT('',#264);
#264 = CARTESIAN_POINT('',(492.98116837013,142.43237232681,
    16.019668681962));
#265 = SURFACE_CURVE('',#266,(#270,#276),.PCURVE_S1.);
#266 = LINE('',#267,#268);
#267 = CARTESIAN_POINT('',(492.96859991251,154.22853386596,
    13.976070120301));
#268 = VECTOR('',#269,1.);
#269 = DIRECTION('',(-1.049831685356E-03,0.985322505705,-0.170699905113)
  );
#270 = PCURVE('',#32,#271);
#271 = DEFINITIONAL_REPRESENTATION('',(#272),#275);
#272 = B_SPLINE_CURVE_WITH_KNOTS('',1,(#273,#274),.UNSPECIFIED.,.F.,.F.,
  (2,2),(-11.97187872078,-9.31275027012),.PIECEWISE_BEZIER_KNOTS.);
#273 = CARTESIAN_POINT('',(20.804895471866,-4.562835204332));
#274 = CARTESIAN_POINT('',(18.184763050488,-4.109105977162));
#275 = ( GEOMETRIC_REPRESENTATION_CONTEXT(2) 
PARAMETRIC_REPRESENTATION_CONTEXT() REPRESENTATION_CONTEXT('2D SPACE',''
  ) );
#276 = PCURVE('',#277,#282);
#277 = PLANE('',#278);
#278 = AXIS2_PLACEMENT_3D('',#279,#280,#281);
#279 = CARTESIAN_POINT('',(487.00002208455,145.05247143531,
    15.56575510792));
#280 = DIRECTION('',(9.884703422854E-08,-0.170699999079,-0.985323048708)
  );
#281 = DIRECTION('',(-1.720890259833E-08,-0.985323048708,0.170699999079)
  );
#282 = DEFINITIONAL_REPRESENTATION('',(#283),#286);
#283 = B_SPLINE_CURVE_WITH_KNOTS('',1,(#284,#285),.UNSPECIFIED.,.F.,.F.,
  (2,2),(-11.97187872078,-9.31275027012),.PIECEWISE_BEZIER_KNOTS.);
#284 = CARTESIAN_POINT('',(2.659126985244,-5.981146331342));
#285 = CARTESIAN_POINT('',(0.,-5.978354648279));
#286 = ( GEOMETRIC_REPRESENTATION_CONTEXT(2) 
PARAMETRIC_REPRESENTATION_CONTEXT() REPRESENTATION_CONTEXT('2D SPACE',''
  ) );
#287 = ORIENTED_EDGE('',*,*,#288,.F.);
#288 = EDGE_CURVE('',#289,#263,#291,.T.);
#289 = VERTEX_POINT('',#290);
#290 = CARTESIAN_POINT('',(492.98443795441,139.71413729776,
    16.474324411775));
#291 = SURFACE_CURVE('',#292,(#296,#302),.PCURVE_S1.);
#292 = LINE('',#293,#294);
#293 = CARTESIAN_POINT('',(492.96854582612,152.92637960087,
    14.264426591091));
#294 = VECTOR('',#295,1.);
#295 = DIRECTION('',(-1.186352259309E-03,0.986297946741,-0.164969551197)
  );
#296 = PCURVE('',#32,#297);
#297 = DEFINITIONAL_REPRESENTATION('',(#298),#301);
#298 = B_SPLINE_CURVE_WITH_KNOTS('',1,(#299,#300),.UNSPECIFIED.,.F.,.F.,
  (2,2),(-13.39579216074,-10.63979430225),.PIECEWISE_BEZIER_KNOTS.);
#299 = CARTESIAN_POINT('',(23.523165062047,-5.017296017919));
#300 = CARTESIAN_POINT('',(20.804895471865,-4.562835204331));
#301 = ( GEOMETRIC_REPRESENTATION_CONTEXT(2) 
PARAMETRIC_REPRESENTATION_CONTEXT() REPRESENTATION_CONTEXT('2D SPACE',''
  ) );
#302 = PCURVE('',#303,#308);
#303 = PLANE('',#304);
#304 = AXIS2_PLACEMENT_3D('',#305,#306,#307);
#305 = CARTESIAN_POINT('',(487.00002203879,142.43237232731,
    16.019668081851));
#306 = DIRECTION('',(9.894539553243E-08,-0.164969667173,-0.986298640835)
  );
#307 = DIRECTION('',(-1.663403761432E-08,-0.986298640835,0.164969667173)
  );
#308 = DEFINITIONAL_REPRESENTATION('',(#309),#312);
#309 = B_SPLINE_CURVE_WITH_KNOTS('',1,(#310,#311),.UNSPECIFIED.,.F.,.F.,
  (2,2),(-13.39579216074,-10.63979430225),.PIECEWISE_BEZIER_KNOTS.);
#310 = CARTESIAN_POINT('',(2.755995918994,-5.984415961471));
#311 = CARTESIAN_POINT('',(0.,-5.981146331342));
#312 = ( GEOMETRIC_REPRESENTATION_CONTEXT(2) 
PARAMETRIC_REPRESENTATION_CONTEXT() REPRESENTATION_CONTEXT('2D SPACE',''
  ) );
#313 = ORIENTED_EDGE('',*,*,#314,.F.);
#314 = EDGE_CURVE('',#315,#289,#317,.T.);
#315 = VERTEX_POINT('',#316);
#316 = CARTESIAN_POINT('',(492.98814908998,136.99112813209,
    16.910801987867));
#317 = SURFACE_CURVE('',#318,(#322,#328),.PCURVE_S1.);
#318 = LINE('',#319,#320);
#319 = CARTESIAN_POINT('',(492.96827021556,151.57705643299,
    14.572789060815));
#320 = VECTOR('',#321,1.);
#321 = DIRECTION('',(-1.345700738613E-03,0.987394662059,-0.158271824485)
  );
#322 = PCURVE('',#32,#323);
#323 = DEFINITIONAL_REPRESENTATION('',(#324),#327);
#324 = B_SPLINE_CURVE_WITH_KNOTS('',1,(#325,#326),.UNSPECIFIED.,.F.,.F.,
  (2,2),(-14.77213606814,-12.01436425682),.PIECEWISE_BEZIER_KNOTS.);
#325 = CARTESIAN_POINT('',(26.24620884955,-5.453573331822));
#326 = CARTESIAN_POINT('',(23.523165062046,-5.017296017917));
#327 = ( GEOMETRIC_REPRESENTATION_CONTEXT(2) 
PARAMETRIC_REPRESENTATION_CONTEXT() REPRESENTATION_CONTEXT('2D SPACE',''
  ) );
#328 = PCURVE('',#329,#334);
#329 = PLANE('',#330);
#330 = AXIS2_PLACEMENT_3D('',#331,#332,#333);
#331 = CARTESIAN_POINT('',(487.00002199295,139.71413729826,
    16.474323811336));
#332 = DIRECTION('',(9.905601007933E-08,-0.158271967662,-0.987395556123)
  );
#333 = DIRECTION('',(-1.596212302921E-08,-0.987395556123,0.158271967662)
  );
#334 = DEFINITIONAL_REPRESENTATION('',(#335),#338);
#335 = B_SPLINE_CURVE_WITH_KNOTS('',1,(#336,#337),.UNSPECIFIED.,.F.,.F.,
  (2,2),(-14.77213606814,-12.01436425682),.PIECEWISE_BEZIER_KNOTS.);
#336 = CARTESIAN_POINT('',(2.757769314217,-5.988127141051));
#337 = CARTESIAN_POINT('',(1.7763568394E-15,-5.984415961468));
#338 = ( GEOMETRIC_REPRESENTATION_CONTEXT(2) 
PARAMETRIC_REPRESENTATION_CONTEXT() REPRESENTATION_CONTEXT('2D SPACE',''
  ) );
#339 = ORIENTED_EDGE('',*,*,#340,.F.);
#340 = EDGE_CURVE('',#341,#315,#343,.T.);
#341 = VERTEX_POINT('',#342);
#342 = CARTESIAN_POINT('',(492.99219704297,134.36137405025,
    17.312131047519));
#343 = SURFACE_CURVE('',#344,(#348,#354),.PCURVE_S1.);
#344 = LINE('',#345,#346);
#345 = CARTESIAN_POINT('',(492.96777578682,150.22665167854,
    14.890917217815));
#346 = VECTOR('',#347,1.);
#347 = DIRECTION('',(-1.521669858954E-03,0.98855335794,-0.150863988499)
  );
#348 = PCURVE('',#32,#349);
#349 = DEFINITIONAL_REPRESENTATION('',(#350),#353);
#350 = B_SPLINE_CURVE_WITH_KNOTS('',1,(#351,#352),.UNSPECIFIED.,.F.,.F.,
  (2,2),(-16.04898461055,-13.3887801201),.PIECEWISE_BEZIER_KNOTS.);
#351 = CARTESIAN_POINT('',(28.875996367526,-5.854703661388));
#352 = CARTESIAN_POINT('',(26.246208849548,-5.453573331822));
#353 = ( GEOMETRIC_REPRESENTATION_CONTEXT(2) 
PARAMETRIC_REPRESENTATION_CONTEXT() REPRESENTATION_CONTEXT('2D SPACE',''
  ) );
#354 = PCURVE('',#355,#360);
#355 = PLANE('',#356);
#356 = AXIS2_PLACEMENT_3D('',#357,#358,#359);
#357 = CARTESIAN_POINT('',(487.00002194893,136.99112813259,
    16.910801387055));
#358 = DIRECTION('',(9.917290747539E-08,-0.150864163011,-0.988554502452)
  );
#359 = DIRECTION('',(-1.521896603952E-08,-0.988554502452,0.150864163011)
  );
#360 = DEFINITIONAL_REPRESENTATION('',(#361),#364);
#361 = B_SPLINE_CURVE_WITH_KNOTS('',1,(#362,#363),.UNSPECIFIED.,.F.,.F.,
  (2,2),(-16.04898461055,-13.3887801201),.PIECEWISE_BEZIER_KNOTS.);
#362 = CARTESIAN_POINT('',(2.660201410562,-5.992175134528));
#363 = CARTESIAN_POINT('',(1.7763568394E-15,-5.988127141051));
#364 = ( GEOMETRIC_REPRESENTATION_CONTEXT(2) 
PARAMETRIC_REPRESENTATION_CONTEXT() REPRESENTATION_CONTEXT('2D SPACE',''
  ) );
#365 = ORIENTED_EDGE('',*,*,#366,.F.);
#366 = EDGE_CURVE('',#367,#341,#369,.T.);
#367 = VERTEX_POINT('',#368);
#368 = CARTESIAN_POINT('',(492.99723165146,131.41269329898,
    17.740545698316));
#369 = SURFACE_CURVE('',#370,(#374,#380),.PCURVE_S1.);
#370 = LINE('',#371,#372);
#371 = CARTESIAN_POINT('',(492.9673354858,148.92234641961,
    15.196563300758));
#372 = VECTOR('',#373,1.);
#373 = DIRECTION('',(-1.689667382083E-03,0.989608168886,-0.14378044755)
  );
#374 = PCURVE('',#32,#375);
#375 = DEFINITIONAL_REPRESENTATION('',(#376),#379);
#376 = B_SPLINE_CURVE_WITH_KNOTS('',1,(#377,#378),.UNSPECIFIED.,.F.,.F.,
  (2,2),(-17.6935212048,-14.71387648886),.PIECEWISE_BEZIER_KNOTS.);
#377 = CARTESIAN_POINT('',(31.82471460994,-6.282889789216));
#378 = CARTESIAN_POINT('',(28.875996367524,-5.854703661388));
#379 = ( GEOMETRIC_REPRESENTATION_CONTEXT(2) 
PARAMETRIC_REPRESENTATION_CONTEXT() REPRESENTATION_CONTEXT('2D SPACE',''
  ) );
#380 = PCURVE('',#381,#386);
#381 = PLANE('',#382);
#382 = AXIS2_PLACEMENT_3D('',#383,#384,#385);
#383 = CARTESIAN_POINT('',(487.00002190844,134.36137405075,
    17.312130446301));
#384 = DIRECTION('',(9.927935651526E-08,-0.143780652629,-0.989609581567)
  );
#385 = DIRECTION('',(-1.450833809729E-08,-0.989609581567,0.143780652629)
  );
#386 = DEFINITIONAL_REPRESENTATION('',(#387),#390);
#387 = B_SPLINE_CURVE_WITH_KNOTS('',1,(#388,#389),.UNSPECIFIED.,.F.,.F.,
  (2,2),(-17.6935212048,-14.71387648886),.PIECEWISE_BEZIER_KNOTS.);
#388 = CARTESIAN_POINT('',(2.979640462455,-5.997209786249));
#389 = CARTESIAN_POINT('',(1.7763568394E-15,-5.992175134533));
#390 = ( GEOMETRIC_REPRESENTATION_CONTEXT(2) 
PARAMETRIC_REPRESENTATION_CONTEXT() REPRESENTATION_CONTEXT('2D SPACE',''
  ) );
#391 = ORIENTED_EDGE('',*,*,#392,.F.);
#392 = EDGE_CURVE('',#393,#367,#395,.T.);
#393 = VERTEX_POINT('',#394);
#394 = CARTESIAN_POINT('',(493.00002184503,129.94963477937,
    17.940392526507));
#395 = SURFACE_CURVE('',#396,(#400,#406),.PCURVE_S1.);
#396 = LINE('',#397,#398);
#397 = CARTESIAN_POINT('',(492.96662722819,147.46034768147,
    15.548512512161));
#398 = VECTOR('',#399,1.);
#399 = DIRECTION('',(-1.889546598224E-03,0.990797653303,-0.135338242278)
  );
#400 = PCURVE('',#32,#401);
#401 = DEFINITIONAL_REPRESENTATION('',(#402),#405);
#402 = B_SPLINE_CURVE_WITH_KNOTS('',1,(#403,#404),.UNSPECIFIED.,.F.,.F.,
  (2,2),(-17.67334919091,-16.1967020501),.PIECEWISE_BEZIER_KNOTS.);
#403 = CARTESIAN_POINT('',(33.28779173394,-6.482619876312));
#404 = CARTESIAN_POINT('',(31.824714609939,-6.282889789216));
#405 = ( GEOMETRIC_REPRESENTATION_CONTEXT(2) 
PARAMETRIC_REPRESENTATION_CONTEXT() REPRESENTATION_CONTEXT('2D SPACE',''
  ) );
#406 = PCURVE('',#407,#412);
#407 = PLANE('',#408);
#408 = AXIS2_PLACEMENT_3D('',#409,#410,#411);
#409 = CARTESIAN_POINT('',(487.00002186521,131.41269329948,
    17.740545096593));
#410 = DIRECTION('',(9.939943964147E-08,-0.135338483697,-0.990799422098)
  );
#411 = DIRECTION('',(-1.366140195571E-08,-0.990799422098,0.135338483697)
  );
#412 = DEFINITIONAL_REPRESENTATION('',(#413),#416);
#413 = B_SPLINE_CURVE_WITH_KNOTS('',1,(#414,#415),.UNSPECIFIED.,.F.,.F.,
  (2,2),(-17.67334919091,-16.1967020501),.PIECEWISE_BEZIER_KNOTS.);
#414 = CARTESIAN_POINT('',(1.476644504671,-6.000000000004));
#415 = CARTESIAN_POINT('',(0.,-5.99720978625));
#416 = ( GEOMETRIC_REPRESENTATION_CONTEXT(2) 
PARAMETRIC_REPRESENTATION_CONTEXT() REPRESENTATION_CONTEXT('2D SPACE',''
  ) );
#417 = ORIENTED_EDGE('',*,*,#418,.T.);
#418 = EDGE_CURVE('',#393,#24,#419,.T.);
#419 = SURFACE_CURVE('',#420,(#424,#430),.PCURVE_S1.);
#420 = LINE('',#421,#422);
#421 = CARTESIAN_POINT('',(493.00002195795,135.05385020531,
    16.81931266118));
#422 = VECTOR('',#423,1.);
#423 = DIRECTION('',(2.160527252802E-08,0.976718595405,-0.214524556615)
  );
#424 = PCURVE('',#32,#425);
#425 = DEFINITIONAL_REPRESENTATION('',(#426),#429);
#426 = B_SPLINE_CURVE_WITH_KNOTS('',1,(#427,#428),.UNSPECIFIED.,.F.,.F.,
  (2,2),(-12.66135252591,32.563360571403),.PIECEWISE_BEZIER_KNOTS.);
#427 = CARTESIAN_POINT('',(40.550247098435,-8.077290580992));
#428 = CARTESIAN_POINT('',(-3.622132780277,1.621963544206));
#429 = ( GEOMETRIC_REPRESENTATION_CONTEXT(2) 
PARAMETRIC_REPRESENTATION_CONTEXT() REPRESENTATION_CONTEXT('2D SPACE',''
  ) );
#430 = PCURVE('',#431,#436);
#431 = PLANE('',#432);
#432 = AXIS2_PLACEMENT_3D('',#433,#434,#435);
#433 = CARTESIAN_POINT('',(493.00002221524,105.12395477113,
    14.230175176201));
#434 = DIRECTION('',(1.,-8.313972134781E-11,1.003338207795E-07));
#435 = DIRECTION('',(-8.313972134781E-11,-1.,-8.341725901369E-18));
#436 = DEFINITIONAL_REPRESENTATION('',(#437),#440);
#437 = B_SPLINE_CURVE_WITH_KNOTS('',1,(#438,#439),.UNSPECIFIED.,.F.,.F.,
  (2,2),(-12.66135252591,32.563360571403),.PIECEWISE_BEZIER_KNOTS.);
#438 = CARTESIAN_POINT('',(-17.56331697915,-5.305308521741));
#439 = CARTESIAN_POINT('',(-61.73513523314,4.396503003481));
#440 = ( GEOMETRIC_REPRESENTATION_CONTEXT(2) 
PARAMETRIC_REPRESENTATION_CONTEXT() REPRESENTATION_CONTEXT('2D SPACE',''
  ) );
#441 = ADVANCED_FACE('',(#442),#43,.F.);
#442 = FACE_BOUND('',#443,.F.);
#443 = EDGE_LOOP('',(#444,#445,#468));
#444 = ORIENTED_EDGE('',*,*,#21,.T.);
#445 = ORIENTED_EDGE('',*,*,#446,.T.);
#446 = EDGE_CURVE('',#24,#447,#449,.T.);
#447 = VERTEX_POINT('',#448);
#448 = CARTESIAN_POINT('',(493.00002252228,166.85909000427,
    11.221131688368));
#449 = SURFACE_CURVE('',#450,(#454,#461),.PCURVE_S1.);
#450 = LINE('',#451,#452);
#451 = CARTESIAN_POINT('',(493.0000225259,129.10977560078,
    11.153726765485));
#452 = VECTOR('',#453,1.);
#453 = DIRECTION('',(-9.601552374681E-11,0.999998405832,
    1.785590453589E-03));
#454 = PCURVE('',#43,#455);
#455 = DEFINITIONAL_REPRESENTATION('',(#456),#460);
#456 = LINE('',#457,#458);
#457 = CARTESIAN_POINT('',(-1.156386829906E-12,-6.));
#458 = VECTOR('',#459,1.);
#459 = DIRECTION('',(1.,-5.169878828456E-26));
#460 = ( GEOMETRIC_REPRESENTATION_CONTEXT(2) 
PARAMETRIC_REPRESENTATION_CONTEXT() REPRESENTATION_CONTEXT('2D SPACE',''
  ) );
#461 = PCURVE('',#431,#462);
#462 = DEFINITIONAL_REPRESENTATION('',(#463),#467);
#463 = LINE('',#464,#465);
#464 = CARTESIAN_POINT('',(-23.98582082965,3.076448410716));
#465 = VECTOR('',#466,1.);
#466 = DIRECTION('',(-0.999998405832,-1.785590453589E-03));
#467 = ( GEOMETRIC_REPRESENTATION_CONTEXT(2) 
PARAMETRIC_REPRESENTATION_CONTEXT() REPRESENTATION_CONTEXT('2D SPACE',''
  ) );
#468 = ORIENTED_EDGE('',*,*,#469,.F.);
#469 = EDGE_CURVE('',#22,#447,#470,.T.);
#470 = SURFACE_CURVE('',#471,(#475,#482),.PCURVE_S1.);
#471 = LINE('',#472,#473);
#472 = CARTESIAN_POINT('',(487.00002252228,166.85909000477,
    11.221131086365));
#473 = VECTOR('',#474,1.);
#474 = DIRECTION('',(1.,-8.313972134781E-11,1.003338207795E-07));
#475 = PCURVE('',#43,#476);
#476 = DEFINITIONAL_REPRESENTATION('',(#477),#481);
#477 = LINE('',#478,#479);
#478 = CARTESIAN_POINT('',(37.749374582331,-4.509684905313E-12));
#479 = VECTOR('',#480,1.);
#480 = DIRECTION('',(5.813528742599E-23,-1.));
#481 = ( GEOMETRIC_REPRESENTATION_CONTEXT(2) 
PARAMETRIC_REPRESENTATION_CONTEXT() REPRESENTATION_CONTEXT('2D SPACE',''
  ) );
#482 = PCURVE('',#69,#483);
#483 = DEFINITIONAL_REPRESENTATION('',(#484),#488);
#484 = LINE('',#485,#486);
#485 = CARTESIAN_POINT('',(0.,0.));
#486 = VECTOR('',#487,1.);
#487 = DIRECTION('',(3.163138662403E-21,-1.));
#488 = ( GEOMETRIC_REPRESENTATION_CONTEXT(2) 
PARAMETRIC_REPRESENTATION_CONTEXT() REPRESENTATION_CONTEXT('2D SPACE',''
  ) );
#489 = ADVANCED_FACE('',(#490),#431,.T.);
#490 = FACE_BOUND('',#491,.T.);
#491 = EDGE_LOOP('',(#492,#515,#516,#517,#540,#563,#586,#609,#632,#655,
    #678,#701,#724,#747,#770,#793));
#492 = ORIENTED_EDGE('',*,*,#493,.T.);
#493 = EDGE_CURVE('',#494,#393,#496,.T.);
#494 = VERTEX_POINT('',#495);
#495 = CARTESIAN_POINT('',(493.00002186521,131.41269329898,
    17.740545698595));
#496 = SURFACE_CURVE('',#497,(#501,#508),.PCURVE_S1.);
#497 = LINE('',#498,#499);
#498 = CARTESIAN_POINT('',(493.00002186521,131.41269329898,
    17.740545698595));
#499 = VECTOR('',#500,1.);
#500 = DIRECTION('',(-1.366140195571E-08,-0.990799422098,0.135338483697)
  );
#501 = PCURVE('',#431,#502);
#502 = DEFINITIONAL_REPRESENTATION('',(#503),#507);
#503 = LINE('',#504,#505);
#504 = CARTESIAN_POINT('',(-26.28873852785,-3.510370522394));
#505 = VECTOR('',#506,1.);
#506 = DIRECTION('',(0.990799422098,-0.135338483697));
#507 = ( GEOMETRIC_REPRESENTATION_CONTEXT(2) 
PARAMETRIC_REPRESENTATION_CONTEXT() REPRESENTATION_CONTEXT('2D SPACE',''
  ) );
#508 = PCURVE('',#407,#509);
#509 = DEFINITIONAL_REPRESENTATION('',(#510),#514);
#510 = LINE('',#511,#512);
#511 = CARTESIAN_POINT('',(1.023597908069E-12,-6.));
#512 = VECTOR('',#513,1.);
#513 = DIRECTION('',(1.,0.));
#514 = ( GEOMETRIC_REPRESENTATION_CONTEXT(2) 
PARAMETRIC_REPRESENTATION_CONTEXT() REPRESENTATION_CONTEXT('2D SPACE',''
  ) );
#515 = ORIENTED_EDGE('',*,*,#418,.T.);
#516 = ORIENTED_EDGE('',*,*,#446,.T.);
#517 = ORIENTED_EDGE('',*,*,#518,.T.);
#518 = EDGE_CURVE('',#447,#519,#521,.T.);
#519 = VERTEX_POINT('',#520);
#520 = CARTESIAN_POINT('',(493.00002243834,163.0152840277,12.05448573937
    ));
#521 = SURFACE_CURVE('',#522,(#526,#533),.PCURVE_S1.);
#522 = LINE('',#523,#524);
#523 = CARTESIAN_POINT('',(493.00002252228,166.85909000427,
    11.221131688368));
#524 = VECTOR('',#525,1.);
#525 = DIRECTION('',(-2.134017426884E-08,-0.977295274502,0.211881916256)
  );
#526 = PCURVE('',#431,#527);
#527 = DEFINITIONAL_REPRESENTATION('',(#528),#532);
#528 = LINE('',#529,#530);
#529 = CARTESIAN_POINT('',(-61.73513523314,3.009043487833));
#530 = VECTOR('',#531,1.);
#531 = DIRECTION('',(0.977295274502,-0.211881916256));
#532 = ( GEOMETRIC_REPRESENTATION_CONTEXT(2) 
PARAMETRIC_REPRESENTATION_CONTEXT() REPRESENTATION_CONTEXT('2D SPACE',''
  ) );
#533 = PCURVE('',#69,#534);
#534 = DEFINITIONAL_REPRESENTATION('',(#535),#539);
#535 = LINE('',#536,#537);
#536 = CARTESIAN_POINT('',(1.153763250378E-12,-6.));
#537 = VECTOR('',#538,1.);
#538 = DIRECTION('',(1.,-6.617444900424E-24));
#539 = ( GEOMETRIC_REPRESENTATION_CONTEXT(2) 
PARAMETRIC_REPRESENTATION_CONTEXT() REPRESENTATION_CONTEXT('2D SPACE',''
  ) );
#540 = ORIENTED_EDGE('',*,*,#541,.T.);
#541 = EDGE_CURVE('',#519,#542,#544,.T.);
#542 = VERTEX_POINT('',#543);
#543 = CARTESIAN_POINT('',(493.00002235593,159.11029524717,
    12.872669330405));
#544 = SURFACE_CURVE('',#545,(#549,#556),.PCURVE_S1.);
#545 = LINE('',#546,#547);
#546 = CARTESIAN_POINT('',(493.00002243834,163.0152840277,12.05448573937
    ));
#547 = VECTOR('',#548,1.);
#548 = DIRECTION('',(-2.065680329233E-08,-0.978747363656,0.205069739689)
  );
#549 = PCURVE('',#431,#550);
#550 = DEFINITIONAL_REPRESENTATION('',(#551),#555);
#551 = LINE('',#552,#553);
#552 = CARTESIAN_POINT('',(-57.89132925657,2.175689436831));
#553 = VECTOR('',#554,1.);
#554 = DIRECTION('',(0.978747363656,-0.205069739689));
#555 = ( GEOMETRIC_REPRESENTATION_CONTEXT(2) 
PARAMETRIC_REPRESENTATION_CONTEXT() REPRESENTATION_CONTEXT('2D SPACE',''
  ) );
#556 = PCURVE('',#95,#557);
#557 = DEFINITIONAL_REPRESENTATION('',(#558),#562);
#558 = LINE('',#559,#560);
#559 = CARTESIAN_POINT('',(9.488248195325E-13,-6.));
#560 = VECTOR('',#561,1.);
#561 = DIRECTION('',(1.,-9.926167350636E-24));
#562 = ( GEOMETRIC_REPRESENTATION_CONTEXT(2) 
PARAMETRIC_REPRESENTATION_CONTEXT() REPRESENTATION_CONTEXT('2D SPACE',''
  ) );
#563 = ORIENTED_EDGE('',*,*,#564,.T.);
#564 = EDGE_CURVE('',#542,#565,#567,.T.);
#565 = VERTEX_POINT('',#566);
#566 = CARTESIAN_POINT('',(493.00002232577,157.64323843439,
    13.172027341044));
#567 = SURFACE_CURVE('',#568,(#572,#579),.PCURVE_S1.);
#568 = LINE('',#569,#570);
#569 = CARTESIAN_POINT('',(493.00002235593,159.11029524717,
    12.872669330405));
#570 = VECTOR('',#571,1.);
#571 = DIRECTION('',(-2.014155371088E-08,-0.97980946766,0.199933506657)
  );
#572 = PCURVE('',#431,#573);
#573 = DEFINITIONAL_REPRESENTATION('',(#574),#578);
#574 = LINE('',#575,#576);
#575 = CARTESIAN_POINT('',(-53.98634047604,1.357505845796));
#576 = VECTOR('',#577,1.);
#577 = DIRECTION('',(0.97980946766,-0.199933506657));
#578 = ( GEOMETRIC_REPRESENTATION_CONTEXT(2) 
PARAMETRIC_REPRESENTATION_CONTEXT() REPRESENTATION_CONTEXT('2D SPACE',''
  ) );
#579 = PCURVE('',#121,#580);
#580 = DEFINITIONAL_REPRESENTATION('',(#581),#585);
#581 = LINE('',#582,#583);
#582 = CARTESIAN_POINT('',(1.151213778192E-12,-6.));
#583 = VECTOR('',#584,1.);
#584 = DIRECTION('',(1.,-1.323488980085E-23));
#585 = ( GEOMETRIC_REPRESENTATION_CONTEXT(2) 
PARAMETRIC_REPRESENTATION_CONTEXT() REPRESENTATION_CONTEXT('2D SPACE',''
  ) );
#586 = ORIENTED_EDGE('',*,*,#587,.T.);
#587 = EDGE_CURVE('',#565,#588,#590,.T.);
#588 = VERTEX_POINT('',#589);
#589 = CARTESIAN_POINT('',(493.00002228836,155.79508890433,
    13.543345090932));
#590 = SURFACE_CURVE('',#591,(#595,#602),.PCURVE_S1.);
#591 = LINE('',#592,#593);
#592 = CARTESIAN_POINT('',(493.00002232577,157.64323843439,
    13.172027341044));
#593 = VECTOR('',#594,1.);
#594 = DIRECTION('',(-1.984496499961E-08,-0.980408111401,0.196976991296)
  );
#595 = PCURVE('',#431,#596);
#596 = DEFINITIONAL_REPRESENTATION('',(#597),#601);
#597 = LINE('',#598,#599);
#598 = CARTESIAN_POINT('',(-52.51928366326,1.058147835157));
#599 = VECTOR('',#600,1.);
#600 = DIRECTION('',(0.980408111401,-0.196976991296));
#601 = ( GEOMETRIC_REPRESENTATION_CONTEXT(2) 
PARAMETRIC_REPRESENTATION_CONTEXT() REPRESENTATION_CONTEXT('2D SPACE',''
  ) );
#602 = PCURVE('',#147,#603);
#603 = DEFINITIONAL_REPRESENTATION('',(#604),#608);
#604 = LINE('',#605,#606);
#605 = CARTESIAN_POINT('',(1.150508568034E-12,-6.));
#606 = VECTOR('',#607,1.);
#607 = DIRECTION('',(1.,6.617444900424E-24));
#608 = ( GEOMETRIC_REPRESENTATION_CONTEXT(2) 
PARAMETRIC_REPRESENTATION_CONTEXT() REPRESENTATION_CONTEXT('2D SPACE',''
  ) );
#609 = ORIENTED_EDGE('',*,*,#610,.T.);
#610 = EDGE_CURVE('',#588,#611,#613,.T.);
#611 = VERTEX_POINT('',#612);
#612 = CARTESIAN_POINT('',(493.00002223508,153.10388152682,
    14.072143138866));
#613 = SURFACE_CURVE('',#614,(#618,#625),.PCURVE_S1.);
#614 = LINE('',#615,#616);
#615 = CARTESIAN_POINT('',(493.00002228836,155.79508890433,
    13.543345090932));
#616 = VECTOR('',#617,1.);
#617 = DIRECTION('',(-1.942637105715E-08,-0.98123723178,0.192804291881)
  );
#618 = PCURVE('',#431,#619);
#619 = DEFINITIONAL_REPRESENTATION('',(#620),#624);
#620 = LINE('',#621,#622);
#621 = CARTESIAN_POINT('',(-50.6711341332,0.686830085269));
#622 = VECTOR('',#623,1.);
#623 = DIRECTION('',(0.98123723178,-0.192804291881));
#624 = ( GEOMETRIC_REPRESENTATION_CONTEXT(2) 
PARAMETRIC_REPRESENTATION_CONTEXT() REPRESENTATION_CONTEXT('2D SPACE',''
  ) );
#625 = PCURVE('',#173,#626);
#626 = DEFINITIONAL_REPRESENTATION('',(#627),#631);
#627 = LINE('',#628,#629);
#628 = CARTESIAN_POINT('',(1.178386630728E-12,-6.));
#629 = VECTOR('',#630,1.);
#630 = DIRECTION('',(1.,3.308722450212E-24));
#631 = ( GEOMETRIC_REPRESENTATION_CONTEXT(2) 
PARAMETRIC_REPRESENTATION_CONTEXT() REPRESENTATION_CONTEXT('2D SPACE',''
  ) );
#632 = ORIENTED_EDGE('',*,*,#633,.T.);
#633 = EDGE_CURVE('',#611,#634,#636,.T.);
#634 = VERTEX_POINT('',#635);
#635 = CARTESIAN_POINT('',(493.0000221843,150.46541460327,
    14.576027974061));
#636 = SURFACE_CURVE('',#637,(#641,#648),.PCURVE_S1.);
#637 = LINE('',#638,#639);
#638 = CARTESIAN_POINT('',(493.00002223508,153.10388152682,
    14.072143138866));
#639 = VECTOR('',#640,1.);
#640 = DIRECTION('',(-1.890290255763E-08,-0.982248147362,0.187586185537)
  );
#641 = PCURVE('',#431,#642);
#642 = DEFINITIONAL_REPRESENTATION('',(#643),#647);
#643 = LINE('',#644,#645);
#644 = CARTESIAN_POINT('',(-47.97992675569,0.158032037335));
#645 = VECTOR('',#646,1.);
#646 = DIRECTION('',(0.982248147362,-0.187586185537));
#647 = ( GEOMETRIC_REPRESENTATION_CONTEXT(2) 
PARAMETRIC_REPRESENTATION_CONTEXT() REPRESENTATION_CONTEXT('2D SPACE',''
  ) );
#648 = PCURVE('',#199,#649);
#649 = DEFINITIONAL_REPRESENTATION('',(#650),#654);
#650 = LINE('',#651,#652);
#651 = CARTESIAN_POINT('',(1.148456588288E-12,-6.));
#652 = VECTOR('',#653,1.);
#653 = DIRECTION('',(1.,-6.617444900424E-24));
#654 = ( GEOMETRIC_REPRESENTATION_CONTEXT(2) 
PARAMETRIC_REPRESENTATION_CONTEXT() REPRESENTATION_CONTEXT('2D SPACE',''
  ) );
#655 = ORIENTED_EDGE('',*,*,#656,.T.);
#656 = EDGE_CURVE('',#634,#657,#659,.T.);
#657 = VERTEX_POINT('',#658);
#658 = CARTESIAN_POINT('',(493.00002213364,147.76008874797,
    15.078699970205));
#659 = SURFACE_CURVE('',#660,(#664,#671),.PCURVE_S1.);
#660 = LINE('',#661,#662);
#661 = CARTESIAN_POINT('',(493.0000221843,150.46541460327,
    14.576027974061));
#662 = VECTOR('',#663,1.);
#663 = DIRECTION('',(-1.841087784662E-08,-0.983172138473,0.182681542939)
  );
#664 = PCURVE('',#431,#665);
#665 = DEFINITIONAL_REPRESENTATION('',(#666),#670);
#666 = LINE('',#667,#668);
#667 = CARTESIAN_POINT('',(-45.34145983214,-0.34585279786));
#668 = VECTOR('',#669,1.);
#669 = DIRECTION('',(0.983172138473,-0.182681542939));
#670 = ( GEOMETRIC_REPRESENTATION_CONTEXT(2) 
PARAMETRIC_REPRESENTATION_CONTEXT() REPRESENTATION_CONTEXT('2D SPACE',''
  ) );
#671 = PCURVE('',#225,#672);
#672 = DEFINITIONAL_REPRESENTATION('',(#673),#677);
#673 = LINE('',#674,#675);
#674 = CARTESIAN_POINT('',(1.147465671019E-12,-6.));
#675 = VECTOR('',#676,1.);
#676 = DIRECTION('',(1.,9.926167350636E-24));
#677 = ( GEOMETRIC_REPRESENTATION_CONTEXT(2) 
PARAMETRIC_REPRESENTATION_CONTEXT() REPRESENTATION_CONTEXT('2D SPACE',''
  ) );
#678 = ORIENTED_EDGE('',*,*,#679,.T.);
#679 = EDGE_CURVE('',#657,#680,#682,.T.);
#680 = VERTEX_POINT('',#681);
#681 = CARTESIAN_POINT('',(493.00002208455,145.05247143481,
    15.565755709923));
#682 = SURFACE_CURVE('',#683,(#687,#694),.PCURVE_S1.);
#683 = LINE('',#684,#685);
#684 = CARTESIAN_POINT('',(493.00002213364,147.76008874797,
    15.078699970205));
#685 = VECTOR('',#686,1.);
#686 = DIRECTION('',(-1.784512240106E-08,-0.984203304892,0.177041957284)
  );
#687 = PCURVE('',#431,#688);
#688 = DEFINITIONAL_REPRESENTATION('',(#689),#693);
#689 = LINE('',#690,#691);
#690 = CARTESIAN_POINT('',(-42.63613397684,-0.848524794004));
#691 = VECTOR('',#692,1.);
#692 = DIRECTION('',(0.984203304892,-0.177041957284));
#693 = ( GEOMETRIC_REPRESENTATION_CONTEXT(2) 
PARAMETRIC_REPRESENTATION_CONTEXT() REPRESENTATION_CONTEXT('2D SPACE',''
  ) );
#694 = PCURVE('',#251,#695);
#695 = DEFINITIONAL_REPRESENTATION('',(#696),#700);
#696 = LINE('',#697,#698);
#697 = CARTESIAN_POINT('',(9.726859880078E-13,-6.));
#698 = VECTOR('',#699,1.);
#699 = DIRECTION('',(1.,-3.308722450212E-24));
#700 = ( GEOMETRIC_REPRESENTATION_CONTEXT(2) 
PARAMETRIC_REPRESENTATION_CONTEXT() REPRESENTATION_CONTEXT('2D SPACE',''
  ) );
#701 = ORIENTED_EDGE('',*,*,#702,.T.);
#702 = EDGE_CURVE('',#680,#703,#705,.T.);
#703 = VERTEX_POINT('',#704);
#704 = CARTESIAN_POINT('',(493.00002203879,142.43237232681,
    16.019668683854));
#705 = SURFACE_CURVE('',#706,(#710,#717),.PCURVE_S1.);
#706 = LINE('',#707,#708);
#707 = CARTESIAN_POINT('',(493.00002208455,145.05247143481,
    15.565755709923));
#708 = VECTOR('',#709,1.);
#709 = DIRECTION('',(-1.720890259833E-08,-0.985323048708,0.170699999079)
  );
#710 = PCURVE('',#431,#711);
#711 = DEFINITIONAL_REPRESENTATION('',(#712),#716);
#712 = LINE('',#713,#714);
#713 = CARTESIAN_POINT('',(-39.92851666368,-1.335580533722));
#714 = VECTOR('',#715,1.);
#715 = DIRECTION('',(0.985323048708,-0.170699999079));
#716 = ( GEOMETRIC_REPRESENTATION_CONTEXT(2) 
PARAMETRIC_REPRESENTATION_CONTEXT() REPRESENTATION_CONTEXT('2D SPACE',''
  ) );
#717 = PCURVE('',#277,#718);
#718 = DEFINITIONAL_REPRESENTATION('',(#719),#723);
#719 = LINE('',#720,#721);
#720 = CARTESIAN_POINT('',(1.144942217541E-12,-6.));
#721 = VECTOR('',#722,1.);
#722 = DIRECTION('',(1.,-3.308722450212E-24));
#723 = ( GEOMETRIC_REPRESENTATION_CONTEXT(2) 
PARAMETRIC_REPRESENTATION_CONTEXT() REPRESENTATION_CONTEXT('2D SPACE',''
  ) );
#724 = ORIENTED_EDGE('',*,*,#725,.T.);
#725 = EDGE_CURVE('',#703,#726,#728,.T.);
#726 = VERTEX_POINT('',#727);
#727 = CARTESIAN_POINT('',(493.00002199295,139.71413729776,
    16.474324413339));
#728 = SURFACE_CURVE('',#729,(#733,#740),.PCURVE_S1.);
#729 = LINE('',#730,#731);
#730 = CARTESIAN_POINT('',(493.00002203879,142.43237232681,
    16.019668683854));
#731 = VECTOR('',#732,1.);
#732 = DIRECTION('',(-1.663403761432E-08,-0.986298640835,0.164969667173)
  );
#733 = PCURVE('',#431,#734);
#734 = DEFINITIONAL_REPRESENTATION('',(#735),#739);
#735 = LINE('',#736,#737);
#736 = CARTESIAN_POINT('',(-37.30841755568,-1.789493507653));
#737 = VECTOR('',#738,1.);
#738 = DIRECTION('',(0.986298640835,-0.164969667173));
#739 = ( GEOMETRIC_REPRESENTATION_CONTEXT(2) 
PARAMETRIC_REPRESENTATION_CONTEXT() REPRESENTATION_CONTEXT('2D SPACE',''
  ) );
#740 = PCURVE('',#303,#741);
#741 = DEFINITIONAL_REPRESENTATION('',(#742),#746);
#742 = LINE('',#743,#744);
#743 = CARTESIAN_POINT('',(1.144037852705E-12,-6.));
#744 = VECTOR('',#745,1.);
#745 = DIRECTION('',(1.,0.));
#746 = ( GEOMETRIC_REPRESENTATION_CONTEXT(2) 
PARAMETRIC_REPRESENTATION_CONTEXT() REPRESENTATION_CONTEXT('2D SPACE',''
  ) );
#747 = ORIENTED_EDGE('',*,*,#748,.T.);
#748 = EDGE_CURVE('',#726,#749,#751,.T.);
#749 = VERTEX_POINT('',#750);
#750 = CARTESIAN_POINT('',(493.00002194893,136.99112813209,
    16.910801989058));
#751 = SURFACE_CURVE('',#752,(#756,#763),.PCURVE_S1.);
#752 = LINE('',#753,#754);
#753 = CARTESIAN_POINT('',(493.00002199295,139.71413729776,
    16.474324413339));
#754 = VECTOR('',#755,1.);
#755 = DIRECTION('',(-1.596212302921E-08,-0.987395556123,0.158271967662)
  );
#756 = PCURVE('',#431,#757);
#757 = DEFINITIONAL_REPRESENTATION('',(#758),#762);
#758 = LINE('',#759,#760);
#759 = CARTESIAN_POINT('',(-34.59018252663,-2.244149237138));
#760 = VECTOR('',#761,1.);
#761 = DIRECTION('',(0.987395556123,-0.158271967662));
#762 = ( GEOMETRIC_REPRESENTATION_CONTEXT(2) 
PARAMETRIC_REPRESENTATION_CONTEXT() REPRESENTATION_CONTEXT('2D SPACE',''
  ) );
#763 = PCURVE('',#329,#764);
#764 = DEFINITIONAL_REPRESENTATION('',(#765),#769);
#765 = LINE('',#766,#767);
#766 = CARTESIAN_POINT('',(1.142870325506E-12,-6.));
#767 = VECTOR('',#768,1.);
#768 = DIRECTION('',(1.,0.));
#769 = ( GEOMETRIC_REPRESENTATION_CONTEXT(2) 
PARAMETRIC_REPRESENTATION_CONTEXT() REPRESENTATION_CONTEXT('2D SPACE',''
  ) );
#770 = ORIENTED_EDGE('',*,*,#771,.T.);
#771 = EDGE_CURVE('',#749,#772,#774,.T.);
#772 = VERTEX_POINT('',#773);
#773 = CARTESIAN_POINT('',(493.00002190844,134.36137405025,
    17.312131048304));
#774 = SURFACE_CURVE('',#775,(#779,#786),.PCURVE_S1.);
#775 = LINE('',#776,#777);
#776 = CARTESIAN_POINT('',(493.00002194893,136.99112813209,
    16.910801989058));
#777 = VECTOR('',#778,1.);
#778 = DIRECTION('',(-1.521896603952E-08,-0.988554502452,0.150864163011)
  );
#779 = PCURVE('',#431,#780);
#780 = DEFINITIONAL_REPRESENTATION('',(#781),#785);
#781 = LINE('',#782,#783);
#782 = CARTESIAN_POINT('',(-31.86717336096,-2.680626812857));
#783 = VECTOR('',#784,1.);
#784 = DIRECTION('',(0.988554502452,-0.150864163011));
#785 = ( GEOMETRIC_REPRESENTATION_CONTEXT(2) 
PARAMETRIC_REPRESENTATION_CONTEXT() REPRESENTATION_CONTEXT('2D SPACE',''
  ) );
#786 = PCURVE('',#355,#787);
#787 = DEFINITIONAL_REPRESENTATION('',(#788),#792);
#788 = LINE('',#789,#790);
#789 = CARTESIAN_POINT('',(1.141206115101E-12,-6.));
#790 = VECTOR('',#791,1.);
#791 = DIRECTION('',(1.,1.323488980085E-23));
#792 = ( GEOMETRIC_REPRESENTATION_CONTEXT(2) 
PARAMETRIC_REPRESENTATION_CONTEXT() REPRESENTATION_CONTEXT('2D SPACE',''
  ) );
#793 = ORIENTED_EDGE('',*,*,#794,.T.);
#794 = EDGE_CURVE('',#772,#494,#795,.T.);
#795 = SURFACE_CURVE('',#796,(#800,#807),.PCURVE_S1.);
#796 = LINE('',#797,#798);
#797 = CARTESIAN_POINT('',(493.00002190844,134.36137405025,
    17.312131048304));
#798 = VECTOR('',#799,1.);
#799 = DIRECTION('',(-1.450833809729E-08,-0.989609581567,0.143780652629)
  );
#800 = PCURVE('',#431,#801);
#801 = DEFINITIONAL_REPRESENTATION('',(#802),#806);
#802 = LINE('',#803,#804);
#803 = CARTESIAN_POINT('',(-29.23741927912,-3.081955872103));
#804 = VECTOR('',#805,1.);
#805 = DIRECTION('',(0.989609581567,-0.143780652629));
#806 = ( GEOMETRIC_REPRESENTATION_CONTEXT(2) 
PARAMETRIC_REPRESENTATION_CONTEXT() REPRESENTATION_CONTEXT('2D SPACE',''
  ) );
#807 = PCURVE('',#381,#808);
#808 = DEFINITIONAL_REPRESENTATION('',(#809),#813);
#809 = LINE('',#810,#811);
#810 = CARTESIAN_POINT('',(1.168273250859E-12,-6.));
#811 = VECTOR('',#812,1.);
#812 = DIRECTION('',(1.,4.963083675318E-24));
#813 = ( GEOMETRIC_REPRESENTATION_CONTEXT(2) 
PARAMETRIC_REPRESENTATION_CONTEXT() REPRESENTATION_CONTEXT('2D SPACE',''
  ) );
#814 = ADVANCED_FACE('',(#815),#407,.F.);
#815 = FACE_BOUND('',#816,.F.);
#816 = EDGE_LOOP('',(#817,#818,#839));
#817 = ORIENTED_EDGE('',*,*,#392,.T.);
#818 = ORIENTED_EDGE('',*,*,#819,.T.);
#819 = EDGE_CURVE('',#367,#494,#820,.T.);
#820 = SURFACE_CURVE('',#821,(#825,#832),.PCURVE_S1.);
#821 = LINE('',#822,#823);
#822 = CARTESIAN_POINT('',(487.00002186521,131.41269329948,
    17.740545096593));
#823 = VECTOR('',#824,1.);
#824 = DIRECTION('',(1.,-8.313972134781E-11,1.003338207795E-07));
#825 = PCURVE('',#407,#826);
#826 = DEFINITIONAL_REPRESENTATION('',(#827),#831);
#827 = LINE('',#828,#829);
#828 = CARTESIAN_POINT('',(0.,0.));
#829 = VECTOR('',#830,1.);
#830 = DIRECTION('',(-1.112392487761E-20,-1.));
#831 = ( GEOMETRIC_REPRESENTATION_CONTEXT(2) 
PARAMETRIC_REPRESENTATION_CONTEXT() REPRESENTATION_CONTEXT('2D SPACE',''
  ) );
#832 = PCURVE('',#381,#833);
#833 = DEFINITIONAL_REPRESENTATION('',(#834),#838);
#834 = LINE('',#835,#836);
#835 = CARTESIAN_POINT('',(2.979640462454,3.572401727359E-13));
#836 = VECTOR('',#837,1.);
#837 = DIRECTION('',(2.243313821244E-21,-1.));
#838 = ( GEOMETRIC_REPRESENTATION_CONTEXT(2) 
PARAMETRIC_REPRESENTATION_CONTEXT() REPRESENTATION_CONTEXT('2D SPACE',''
  ) );
#839 = ORIENTED_EDGE('',*,*,#493,.T.);
#840 = ADVANCED_FACE('',(#841),#381,.F.);
#841 = FACE_BOUND('',#842,.F.);
#842 = EDGE_LOOP('',(#843,#844,#865,#866));
#843 = ORIENTED_EDGE('',*,*,#366,.T.);
#844 = ORIENTED_EDGE('',*,*,#845,.T.);
#845 = EDGE_CURVE('',#341,#772,#846,.T.);
#846 = SURFACE_CURVE('',#847,(#851,#858),.PCURVE_S1.);
#847 = LINE('',#848,#849);
#848 = CARTESIAN_POINT('',(487.00002190844,134.36137405075,
    17.312130446301));
#849 = VECTOR('',#850,1.);
#850 = DIRECTION('',(1.,-8.313972134781E-11,1.003338207795E-07));
#851 = PCURVE('',#381,#852);
#852 = DEFINITIONAL_REPRESENTATION('',(#853),#857);
#853 = LINE('',#854,#855);
#854 = CARTESIAN_POINT('',(0.,0.));
#855 = VECTOR('',#856,1.);
#856 = DIRECTION('',(2.243313821244E-21,-1.));
#857 = ( GEOMETRIC_REPRESENTATION_CONTEXT(2) 
PARAMETRIC_REPRESENTATION_CONTEXT() REPRESENTATION_CONTEXT('2D SPACE',''
  ) );
#858 = PCURVE('',#355,#859);
#859 = DEFINITIONAL_REPRESENTATION('',(#860),#864);
#860 = LINE('',#861,#862);
#861 = CARTESIAN_POINT('',(2.660201410561,4.507076306224E-12));
#862 = VECTOR('',#863,1.);
#863 = DIRECTION('',(-4.406225686947E-20,-1.));
#864 = ( GEOMETRIC_REPRESENTATION_CONTEXT(2) 
PARAMETRIC_REPRESENTATION_CONTEXT() REPRESENTATION_CONTEXT('2D SPACE',''
  ) );
#865 = ORIENTED_EDGE('',*,*,#794,.T.);
#866 = ORIENTED_EDGE('',*,*,#819,.F.);
#867 = ADVANCED_FACE('',(#868),#355,.F.);
#868 = FACE_BOUND('',#869,.F.);
#869 = EDGE_LOOP('',(#870,#871,#892,#893));
#870 = ORIENTED_EDGE('',*,*,#340,.T.);
#871 = ORIENTED_EDGE('',*,*,#872,.T.);
#872 = EDGE_CURVE('',#315,#749,#873,.T.);
#873 = SURFACE_CURVE('',#874,(#878,#885),.PCURVE_S1.);
#874 = LINE('',#875,#876);
#875 = CARTESIAN_POINT('',(487.00002194893,136.99112813259,
    16.910801387055));
#876 = VECTOR('',#877,1.);
#877 = DIRECTION('',(1.,-8.313972134781E-11,1.003338207795E-07));
#878 = PCURVE('',#355,#879);
#879 = DEFINITIONAL_REPRESENTATION('',(#880),#884);
#880 = LINE('',#881,#882);
#881 = CARTESIAN_POINT('',(0.,0.));
#882 = VECTOR('',#883,1.);
#883 = DIRECTION('',(-4.406225686947E-20,-1.));
#884 = ( GEOMETRIC_REPRESENTATION_CONTEXT(2) 
PARAMETRIC_REPRESENTATION_CONTEXT() REPRESENTATION_CONTEXT('2D SPACE',''
  ) );
#885 = PCURVE('',#329,#886);
#886 = DEFINITIONAL_REPRESENTATION('',(#887),#891);
#887 = LINE('',#888,#889);
#888 = CARTESIAN_POINT('',(2.757769314215,1.452334805257E-13));
#889 = VECTOR('',#890,1.);
#890 = DIRECTION('',(1.406537913585E-20,-1.));
#891 = ( GEOMETRIC_REPRESENTATION_CONTEXT(2) 
PARAMETRIC_REPRESENTATION_CONTEXT() REPRESENTATION_CONTEXT('2D SPACE',''
  ) );
#892 = ORIENTED_EDGE('',*,*,#771,.T.);
#893 = ORIENTED_EDGE('',*,*,#845,.F.);
#894 = ADVANCED_FACE('',(#895),#329,.F.);
#895 = FACE_BOUND('',#896,.F.);
#896 = EDGE_LOOP('',(#897,#898,#919,#920));
#897 = ORIENTED_EDGE('',*,*,#314,.T.);
#898 = ORIENTED_EDGE('',*,*,#899,.T.);
#899 = EDGE_CURVE('',#289,#726,#900,.T.);
#900 = SURFACE_CURVE('',#901,(#905,#912),.PCURVE_S1.);
#901 = LINE('',#902,#903);
#902 = CARTESIAN_POINT('',(487.00002199295,139.71413729826,
    16.474323811336));
#903 = VECTOR('',#904,1.);
#904 = DIRECTION('',(1.,-8.313972134781E-11,1.003338207795E-07));
#905 = PCURVE('',#329,#906);
#906 = DEFINITIONAL_REPRESENTATION('',(#907),#911);
#907 = LINE('',#908,#909);
#908 = CARTESIAN_POINT('',(0.,0.));
#909 = VECTOR('',#910,1.);
#910 = DIRECTION('',(1.406537913585E-20,-1.));
#911 = ( GEOMETRIC_REPRESENTATION_CONTEXT(2) 
PARAMETRIC_REPRESENTATION_CONTEXT() REPRESENTATION_CONTEXT('2D SPACE',''
  ) );
#912 = PCURVE('',#303,#913);
#913 = DEFINITIONAL_REPRESENTATION('',(#914),#918);
#914 = LINE('',#915,#916);
#915 = CARTESIAN_POINT('',(2.755995918993,-3.328883197888E-12));
#916 = VECTOR('',#917,1.);
#917 = DIRECTION('',(3.428829075155E-20,-1.));
#918 = ( GEOMETRIC_REPRESENTATION_CONTEXT(2) 
PARAMETRIC_REPRESENTATION_CONTEXT() REPRESENTATION_CONTEXT('2D SPACE',''
  ) );
#919 = ORIENTED_EDGE('',*,*,#748,.T.);
#920 = ORIENTED_EDGE('',*,*,#872,.F.);
#921 = ADVANCED_FACE('',(#922),#303,.F.);
#922 = FACE_BOUND('',#923,.F.);
#923 = EDGE_LOOP('',(#924,#925,#946,#947));
#924 = ORIENTED_EDGE('',*,*,#288,.T.);
#925 = ORIENTED_EDGE('',*,*,#926,.T.);
#926 = EDGE_CURVE('',#263,#703,#927,.T.);
#927 = SURFACE_CURVE('',#928,(#932,#939),.PCURVE_S1.);
#928 = LINE('',#929,#930);
#929 = CARTESIAN_POINT('',(487.00002203879,142.43237232731,
    16.019668081851));
#930 = VECTOR('',#931,1.);
#931 = DIRECTION('',(1.,-8.313972134781E-11,1.003338207795E-07));
#932 = PCURVE('',#303,#933);
#933 = DEFINITIONAL_REPRESENTATION('',(#934),#938);
#934 = LINE('',#935,#936);
#935 = CARTESIAN_POINT('',(0.,0.));
#936 = VECTOR('',#937,1.);
#937 = DIRECTION('',(3.428829075155E-20,-1.));
#938 = ( GEOMETRIC_REPRESENTATION_CONTEXT(2) 
PARAMETRIC_REPRESENTATION_CONTEXT() REPRESENTATION_CONTEXT('2D SPACE',''
  ) );
#939 = PCURVE('',#277,#940);
#940 = DEFINITIONAL_REPRESENTATION('',(#941),#945);
#941 = LINE('',#942,#943);
#942 = CARTESIAN_POINT('',(2.659126985243,-6.819211483983E-13));
#943 = VECTOR('',#944,1.);
#944 = DIRECTION('',(2.035195179125E-20,-1.));
#945 = ( GEOMETRIC_REPRESENTATION_CONTEXT(2) 
PARAMETRIC_REPRESENTATION_CONTEXT() REPRESENTATION_CONTEXT('2D SPACE',''
  ) );
#946 = ORIENTED_EDGE('',*,*,#725,.T.);
#947 = ORIENTED_EDGE('',*,*,#899,.F.);
#948 = ADVANCED_FACE('',(#949),#277,.F.);
#949 = FACE_BOUND('',#950,.F.);
#950 = EDGE_LOOP('',(#951,#952,#973,#974));
#951 = ORIENTED_EDGE('',*,*,#262,.T.);
#952 = ORIENTED_EDGE('',*,*,#953,.T.);
#953 = EDGE_CURVE('',#237,#680,#954,.T.);
#954 = SURFACE_CURVE('',#955,(#959,#966),.PCURVE_S1.);
#955 = LINE('',#956,#957);
#956 = CARTESIAN_POINT('',(487.00002208455,145.05247143531,
    15.56575510792));
#957 = VECTOR('',#958,1.);
#958 = DIRECTION('',(1.,-8.313972134781E-11,1.003338207795E-07));
#959 = PCURVE('',#277,#960);
#960 = DEFINITIONAL_REPRESENTATION('',(#961),#965);
#961 = LINE('',#962,#963);
#962 = CARTESIAN_POINT('',(0.,0.));
#963 = VECTOR('',#964,1.);
#964 = DIRECTION('',(2.035195179125E-20,-1.));
#965 = ( GEOMETRIC_REPRESENTATION_CONTEXT(2) 
PARAMETRIC_REPRESENTATION_CONTEXT() REPRESENTATION_CONTEXT('2D SPACE',''
  ) );
#966 = PCURVE('',#251,#967);
#967 = DEFINITIONAL_REPRESENTATION('',(#968),#972);
#968 = LINE('',#969,#970);
#969 = CARTESIAN_POINT('',(2.751075209462,-3.240475743784E-12));
#970 = VECTOR('',#971,1.);
#971 = DIRECTION('',(5.30652906565E-20,-1.));
#972 = ( GEOMETRIC_REPRESENTATION_CONTEXT(2) 
PARAMETRIC_REPRESENTATION_CONTEXT() REPRESENTATION_CONTEXT('2D SPACE',''
  ) );
#973 = ORIENTED_EDGE('',*,*,#702,.T.);
#974 = ORIENTED_EDGE('',*,*,#926,.F.);
#975 = ADVANCED_FACE('',(#976),#251,.F.);
#976 = FACE_BOUND('',#977,.F.);
#977 = EDGE_LOOP('',(#978,#979,#1000,#1001));
#978 = ORIENTED_EDGE('',*,*,#236,.T.);
#979 = ORIENTED_EDGE('',*,*,#980,.T.);
#980 = EDGE_CURVE('',#211,#657,#981,.T.);
#981 = SURFACE_CURVE('',#982,(#986,#993),.PCURVE_S1.);
#982 = LINE('',#983,#984);
#983 = CARTESIAN_POINT('',(487.00002213364,147.76008874847,
    15.078699368203));
#984 = VECTOR('',#985,1.);
#985 = DIRECTION('',(1.,-8.313972134781E-11,1.003338207795E-07));
#986 = PCURVE('',#251,#987);
#987 = DEFINITIONAL_REPRESENTATION('',(#988),#992);
#988 = LINE('',#989,#990);
#989 = CARTESIAN_POINT('',(0.,0.));
#990 = VECTOR('',#991,1.);
#991 = DIRECTION('',(5.30652906565E-20,-1.));
#992 = ( GEOMETRIC_REPRESENTATION_CONTEXT(2) 
PARAMETRIC_REPRESENTATION_CONTEXT() REPRESENTATION_CONTEXT('2D SPACE',''
  ) );
#993 = PCURVE('',#225,#994);
#994 = DEFINITIONAL_REPRESENTATION('',(#995),#999);
#995 = LINE('',#996,#997);
#996 = CARTESIAN_POINT('',(2.751629902269,6.974734469223E-14));
#997 = VECTOR('',#998,1.);
#998 = DIRECTION('',(-2.625802136488E-20,-1.));
#999 = ( GEOMETRIC_REPRESENTATION_CONTEXT(2) 
PARAMETRIC_REPRESENTATION_CONTEXT() REPRESENTATION_CONTEXT('2D SPACE',''
  ) );
#1000 = ORIENTED_EDGE('',*,*,#679,.T.);
#1001 = ORIENTED_EDGE('',*,*,#953,.F.);
#1002 = ADVANCED_FACE('',(#1003),#225,.F.);
#1003 = FACE_BOUND('',#1004,.F.);
#1004 = EDGE_LOOP('',(#1005,#1006,#1027,#1028));
#1005 = ORIENTED_EDGE('',*,*,#210,.T.);
#1006 = ORIENTED_EDGE('',*,*,#1007,.T.);
#1007 = EDGE_CURVE('',#185,#634,#1008,.T.);
#1008 = SURFACE_CURVE('',#1009,(#1013,#1020),.PCURVE_S1.);
#1009 = LINE('',#1010,#1011);
#1010 = CARTESIAN_POINT('',(487.0000221843,150.46541460377,
    14.576027372058));
#1011 = VECTOR('',#1012,1.);
#1012 = DIRECTION('',(1.,-8.313972134781E-11,1.003338207795E-07));
#1013 = PCURVE('',#225,#1014);
#1014 = DEFINITIONAL_REPRESENTATION('',(#1015),#1019);
#1015 = LINE('',#1016,#1017);
#1016 = CARTESIAN_POINT('',(0.,0.));
#1017 = VECTOR('',#1018,1.);
#1018 = DIRECTION('',(-2.625802136488E-20,-1.));
#1019 = ( GEOMETRIC_REPRESENTATION_CONTEXT(2) 
PARAMETRIC_REPRESENTATION_CONTEXT() REPRESENTATION_CONTEXT('2D SPACE',''
  ) );
#1020 = PCURVE('',#199,#1021);
#1021 = DEFINITIONAL_REPRESENTATION('',(#1022),#1026);
#1022 = LINE('',#1023,#1024);
#1023 = CARTESIAN_POINT('',(2.686151081717,3.936061595241E-12));
#1024 = VECTOR('',#1025,1.);
#1025 = DIRECTION('',(1.546827745474E-20,-1.));
#1026 = ( GEOMETRIC_REPRESENTATION_CONTEXT(2) 
PARAMETRIC_REPRESENTATION_CONTEXT() REPRESENTATION_CONTEXT('2D SPACE',''
  ) );
#1027 = ORIENTED_EDGE('',*,*,#656,.T.);
#1028 = ORIENTED_EDGE('',*,*,#980,.F.);
#1029 = ADVANCED_FACE('',(#1030),#199,.F.);
#1030 = FACE_BOUND('',#1031,.F.);
#1031 = EDGE_LOOP('',(#1032,#1033,#1054,#1055));
#1032 = ORIENTED_EDGE('',*,*,#184,.T.);
#1033 = ORIENTED_EDGE('',*,*,#1034,.T.);
#1034 = EDGE_CURVE('',#159,#611,#1035,.T.);
#1035 = SURFACE_CURVE('',#1036,(#1040,#1047),.PCURVE_S1.);
#1036 = LINE('',#1037,#1038);
#1037 = CARTESIAN_POINT('',(487.00002223508,153.10388152732,
    14.072142536863));
#1038 = VECTOR('',#1039,1.);
#1039 = DIRECTION('',(1.,-8.313972134781E-11,1.003338207795E-07));
#1040 = PCURVE('',#199,#1041);
#1041 = DEFINITIONAL_REPRESENTATION('',(#1042),#1046);
#1042 = LINE('',#1043,#1044);
#1043 = CARTESIAN_POINT('',(0.,0.));
#1044 = VECTOR('',#1045,1.);
#1045 = DIRECTION('',(1.546827745474E-20,-1.));
#1046 = ( GEOMETRIC_REPRESENTATION_CONTEXT(2) 
PARAMETRIC_REPRESENTATION_CONTEXT() REPRESENTATION_CONTEXT('2D SPACE',''
  ) );
#1047 = PCURVE('',#173,#1048);
#1048 = DEFINITIONAL_REPRESENTATION('',(#1049),#1053);
#1049 = LINE('',#1050,#1051);
#1050 = CARTESIAN_POINT('',(2.742667410435,-5.618220288624E-14));
#1051 = VECTOR('',#1052,1.);
#1052 = DIRECTION('',(-7.047578818952E-21,-1.));
#1053 = ( GEOMETRIC_REPRESENTATION_CONTEXT(2) 
PARAMETRIC_REPRESENTATION_CONTEXT() REPRESENTATION_CONTEXT('2D SPACE',''
  ) );
#1054 = ORIENTED_EDGE('',*,*,#633,.T.);
#1055 = ORIENTED_EDGE('',*,*,#1007,.F.);
#1056 = ADVANCED_FACE('',(#1057),#173,.F.);
#1057 = FACE_BOUND('',#1058,.F.);
#1058 = EDGE_LOOP('',(#1059,#1060,#1081,#1082));
#1059 = ORIENTED_EDGE('',*,*,#158,.T.);
#1060 = ORIENTED_EDGE('',*,*,#1061,.T.);
#1061 = EDGE_CURVE('',#133,#588,#1062,.T.);
#1062 = SURFACE_CURVE('',#1063,(#1067,#1074),.PCURVE_S1.);
#1063 = LINE('',#1064,#1065);
#1064 = CARTESIAN_POINT('',(487.00002228836,155.79508890483,
    13.543344488929));
#1065 = VECTOR('',#1066,1.);
#1066 = DIRECTION('',(1.,-8.313972134781E-11,1.003338207795E-07));
#1067 = PCURVE('',#173,#1068);
#1068 = DEFINITIONAL_REPRESENTATION('',(#1069),#1073);
#1069 = LINE('',#1070,#1071);
#1070 = CARTESIAN_POINT('',(0.,0.));
#1071 = VECTOR('',#1072,1.);
#1072 = DIRECTION('',(-7.047578818952E-21,-1.));
#1073 = ( GEOMETRIC_REPRESENTATION_CONTEXT(2) 
PARAMETRIC_REPRESENTATION_CONTEXT() REPRESENTATION_CONTEXT('2D SPACE',''
  ) );
#1074 = PCURVE('',#147,#1075);
#1075 = DEFINITIONAL_REPRESENTATION('',(#1076),#1080);
#1076 = LINE('',#1077,#1078);
#1077 = CARTESIAN_POINT('',(1.88508184354,5.781444861843E-13));
#1078 = VECTOR('',#1079,1.);
#1079 = DIRECTION('',(-3.307068088987E-20,-1.));
#1080 = ( GEOMETRIC_REPRESENTATION_CONTEXT(2) 
PARAMETRIC_REPRESENTATION_CONTEXT() REPRESENTATION_CONTEXT('2D SPACE',''
  ) );
#1081 = ORIENTED_EDGE('',*,*,#610,.T.);
#1082 = ORIENTED_EDGE('',*,*,#1034,.F.);
#1083 = ADVANCED_FACE('',(#1084),#147,.F.);
#1084 = FACE_BOUND('',#1085,.F.);
#1085 = EDGE_LOOP('',(#1086,#1087,#1108,#1109));
#1086 = ORIENTED_EDGE('',*,*,#132,.T.);
#1087 = ORIENTED_EDGE('',*,*,#1088,.T.);
#1088 = EDGE_CURVE('',#107,#565,#1089,.T.);
#1089 = SURFACE_CURVE('',#1090,(#1094,#1101),.PCURVE_S1.);
#1090 = LINE('',#1091,#1092);
#1091 = CARTESIAN_POINT('',(487.00002232577,157.64323843489,
    13.172026739041));
#1092 = VECTOR('',#1093,1.);
#1093 = DIRECTION('',(1.,-8.313972134781E-11,1.003338207795E-07));
#1094 = PCURVE('',#147,#1095);
#1095 = DEFINITIONAL_REPRESENTATION('',(#1096),#1100);
#1096 = LINE('',#1097,#1098);
#1097 = CARTESIAN_POINT('',(0.,0.));
#1098 = VECTOR('',#1099,1.);
#1099 = DIRECTION('',(-3.307068088987E-20,-1.));
#1100 = ( GEOMETRIC_REPRESENTATION_CONTEXT(2) 
PARAMETRIC_REPRESENTATION_CONTEXT() REPRESENTATION_CONTEXT('2D SPACE',''
  ) );
#1101 = PCURVE('',#121,#1102);
#1102 = DEFINITIONAL_REPRESENTATION('',(#1103),#1107);
#1103 = LINE('',#1104,#1105);
#1104 = CARTESIAN_POINT('',(1.49728785157,2.334339554402E-12));
#1105 = VECTOR('',#1106,1.);
#1106 = DIRECTION('',(-2.440513679276E-20,-1.));
#1107 = ( GEOMETRIC_REPRESENTATION_CONTEXT(2) 
PARAMETRIC_REPRESENTATION_CONTEXT() REPRESENTATION_CONTEXT('2D SPACE',''
  ) );
#1108 = ORIENTED_EDGE('',*,*,#587,.T.);
#1109 = ORIENTED_EDGE('',*,*,#1061,.F.);
#1110 = ADVANCED_FACE('',(#1111),#121,.F.);
#1111 = FACE_BOUND('',#1112,.F.);
#1112 = EDGE_LOOP('',(#1113,#1114,#1135,#1136));
#1113 = ORIENTED_EDGE('',*,*,#106,.T.);
#1114 = ORIENTED_EDGE('',*,*,#1115,.T.);
#1115 = EDGE_CURVE('',#81,#542,#1116,.T.);
#1116 = SURFACE_CURVE('',#1117,(#1121,#1128),.PCURVE_S1.);
#1117 = LINE('',#1118,#1119);
#1118 = CARTESIAN_POINT('',(487.00002235593,159.11029524767,
    12.872668728402));
#1119 = VECTOR('',#1120,1.);
#1120 = DIRECTION('',(1.,-8.313972134781E-11,1.003338207795E-07));
#1121 = PCURVE('',#121,#1122);
#1122 = DEFINITIONAL_REPRESENTATION('',(#1123),#1127);
#1123 = LINE('',#1124,#1125);
#1124 = CARTESIAN_POINT('',(0.,0.));
#1125 = VECTOR('',#1126,1.);
#1126 = DIRECTION('',(-2.440513679276E-20,-1.));
#1127 = ( GEOMETRIC_REPRESENTATION_CONTEXT(2) 
PARAMETRIC_REPRESENTATION_CONTEXT() REPRESENTATION_CONTEXT('2D SPACE',''
  ) );
#1128 = PCURVE('',#95,#1129);
#1129 = DEFINITIONAL_REPRESENTATION('',(#1130),#1134);
#1130 = LINE('',#1131,#1132);
#1131 = CARTESIAN_POINT('',(3.989782170082,-6.148417965762E-12));
#1132 = VECTOR('',#1133,1.);
#1133 = DIRECTION('',(9.098986738083E-21,-1.));
#1134 = ( GEOMETRIC_REPRESENTATION_CONTEXT(2) 
PARAMETRIC_REPRESENTATION_CONTEXT() REPRESENTATION_CONTEXT('2D SPACE',''
  ) );
#1135 = ORIENTED_EDGE('',*,*,#564,.T.);
#1136 = ORIENTED_EDGE('',*,*,#1088,.F.);
#1137 = ADVANCED_FACE('',(#1138),#95,.F.);
#1138 = FACE_BOUND('',#1139,.F.);
#1139 = EDGE_LOOP('',(#1140,#1141,#1162,#1163));
#1140 = ORIENTED_EDGE('',*,*,#80,.T.);
#1141 = ORIENTED_EDGE('',*,*,#1142,.T.);
#1142 = EDGE_CURVE('',#55,#519,#1143,.T.);
#1143 = SURFACE_CURVE('',#1144,(#1148,#1155),.PCURVE_S1.);
#1144 = LINE('',#1145,#1146);
#1145 = CARTESIAN_POINT('',(487.00002243834,163.0152840282,
    12.054485137368));
#1146 = VECTOR('',#1147,1.);
#1147 = DIRECTION('',(1.,-8.313972134781E-11,1.003338207795E-07));
#1148 = PCURVE('',#95,#1149);
#1149 = DEFINITIONAL_REPRESENTATION('',(#1150),#1154);
#1150 = LINE('',#1151,#1152);
#1151 = CARTESIAN_POINT('',(0.,0.));
#1152 = VECTOR('',#1153,1.);
#1153 = DIRECTION('',(9.098986738083E-21,-1.));
#1154 = ( GEOMETRIC_REPRESENTATION_CONTEXT(2) 
PARAMETRIC_REPRESENTATION_CONTEXT() REPRESENTATION_CONTEXT('2D SPACE',''
  ) );
#1155 = PCURVE('',#69,#1156);
#1156 = DEFINITIONAL_REPRESENTATION('',(#1157),#1161);
#1157 = LINE('',#1158,#1159);
#1158 = CARTESIAN_POINT('',(3.93310607025,6.82555377035E-12));
#1159 = VECTOR('',#1160,1.);
#1160 = DIRECTION('',(3.163138662403E-21,-1.));
#1161 = ( GEOMETRIC_REPRESENTATION_CONTEXT(2) 
PARAMETRIC_REPRESENTATION_CONTEXT() REPRESENTATION_CONTEXT('2D SPACE',''
  ) );
#1162 = ORIENTED_EDGE('',*,*,#541,.T.);
#1163 = ORIENTED_EDGE('',*,*,#1115,.F.);
#1164 = ADVANCED_FACE('',(#1165),#69,.F.);
#1165 = FACE_BOUND('',#1166,.F.);
#1166 = EDGE_LOOP('',(#1167,#1168,#1169,#1170));
#1167 = ORIENTED_EDGE('',*,*,#54,.T.);
#1168 = ORIENTED_EDGE('',*,*,#469,.T.);
#1169 = ORIENTED_EDGE('',*,*,#518,.T.);
#1170 = ORIENTED_EDGE('',*,*,#1142,.F.);
#1171 = ( GEOMETRIC_REPRESENTATION_CONTEXT(3) 
GLOBAL_UNCERTAINTY_ASSIGNED_CONTEXT((#1175)) 
GLOBAL_UNIT_ASSIGNED_CONTEXT((#1172,#1173,#1174)) REPRESENTATION_CONTEXT
('Context #1','3D Context with UNIT and UNCERTAINTY') );
#1172 = ( LENGTH_UNIT() NAMED_UNIT(*) SI_UNIT(.MILLI.,.METRE.) );
#1173 = ( NAMED_UNIT(*) PLANE_ANGLE_UNIT() SI_UNIT($,.RADIAN.) );
#1174 = ( NAMED_UNIT(*) SI_UNIT($,.STERADIAN.) SOLID_ANGLE_UNIT() );
#1175 = UNCERTAINTY_MEASURE_WITH_UNIT(LENGTH_MEASURE(1.E-07),#1172,
  'distance_accuracy_value','confusion accuracy');
#1176 = PRODUCT_RELATED_PRODUCT_CATEGORY('part',$,(#7));
ENDSEC;
END-ISO-10303-21;
