  0
SECTION
  2
HEADER
  9
$ACADVER
  1
AC1024
  9
$ACADMAINTVER
 70
6
  9
$DWGCODEPAGE
  3
ANSI_1252
  9
$LASTSAVEDBY
  1
ezdxf
  9
$INSBASE
 10
0.0
 20
0.0
 30
0.0
  9
$EXTMIN
 10
1e+20
 20
1e+20
 30
1e+20
  9
$EXTMAX
 10
-1e+20
 20
-1e+20
 30
-1e+20
  9
$LIMMIN
 10
0.0
 20
0.0
  9
$LIMMAX
 10
420.0
 20
297.0
  9
$ORTHOMODE
 70
0
  9
$REGENMODE
 70
1
  9
$FILLMODE
 70
1
  9
$QTEXTMODE
 70
0
  9
$MIRRTEXT
 70
1
  9
$LTSCALE
 40
1.0
  9
$ATTMODE
 70
1
  9
$TEXTSIZE
 40
2.5
  9
$TRACEWID
 40
1.0
  9
$TEXTSTYLE
  7
Standard
  9
$CLAYER
  8
0
  9
$CELTYPE
  6
ByLayer
  9
$CECOLOR
 62
256
  9
$CELTSCALE
 40
1.0
  9
$DISPSILH
 70
0
  9
$DIMSCALE
 40
1.0
  9
$DIMASZ
 40
2.5
  9
$DIMEXO
 40
0.625
  9
$DIMDLI
 40
3.75
  9
$DIMRND
 40
0.0
  9
$DIMDLE
 40
0.0
  9
$DIMEXE
 40
1.25
  9
$DIMTP
 40
0.0
  9
$DIMTM
 40
0.0
  9
$DIMTXT
 40
2.5
  9
$DIMCEN
 40
2.5
  9
$DIMTSZ
 40
0.0
  9
$DIMTOL
 70
0
  9
$DIMLIM
 70
0
  9
$DIMTIH
 70
0
  9
$DIMTOH
 70
0
  9
$DIMSE1
 70
0
  9
$DIMSE2
 70
0
  9
$DIMTAD
 70
1
  9
$DIMZIN
 70
8
  9
$DIMBLK
  1

  9
$DIMASO
 70
1
  9
$DIMSHO
 70
1
  9
$DIMPOST
  1

  9
$DIMAPOST
  1

  9
$DIMALT
 70
0
  9
$DIMALTD
 70
3
  9
$DIMALTF
 40
0.03937007874
  9
$DIMLFAC
 40
1.0
  9
$DIMTOFL
 70
1
  9
$DIMTVP
 40
0.0
  9
$DIMTIX
 70
0
  9
$DIMSOXD
 70
0
  9
$DIMSAH
 70
0
  9
$DIMBLK1
  1

  9
$DIMBLK2
  1

  9
$DIMSTYLE
  2
ISO-25
  9
$DIMCLRD
 70
0
  9
$DIMCLRE
 70
0
  9
$DIMCLRT
 70
0
  9
$DIMTFAC
 40
1.0
  9
$DIMGAP
 40
0.625
  9
$DIMJUST
 70
0
  9
$DIMSD1
 70
0
  9
$DIMSD2
 70
0
  9
$DIMTOLJ
 70
0
  9
$DIMTZIN
 70
8
  9
$DIMALTZ
 70
0
  9
$DIMALTTZ
 70
0
  9
$DIMUPT
 70
0
  9
$DIMDEC
 70
2
  9
$DIMTDEC
 70
2
  9
$DIMALTU
 70
2
  9
$DIMALTTD
 70
3
  9
$DIMTXSTY
  7
Standard
  9
$DIMAUNIT
 70
0
  9
$DIMADEC
 70
0
  9
$DIMALTRND
 40
0.0
  9
$DIMAZIN
 70
0
  9
$DIMDSEP
 70
44
  9
$DIMATFIT
 70
3
  9
$DIMFRAC
 70
0
  9
$DIMLDRBLK
  1

  9
$DIMLUNIT
 70
2
  9
$DIMLWD
 70
-2
  9
$DIMLWE
 70
-2
  9
$DIMTMOVE
 70
0
  9
$DIMFXL
 40
1.0
  9
$DIMFXLON
 70
0
  9
$DIMJOGANG
 40
0.785398163397
  9
$DIMTFILL
 70
0
  9
$DIMTFILLCLR
 70
0
  9
$DIMARCSYM
 70
0
  9
$DIMLTYPE
  6

  9
$DIMLTEX1
  6

  9
$DIMLTEX2
  6

  9
$DIMTXTDIRECTION
 70
0
  9
$LUNITS
 70
2
  9
$LUPREC
 70
4
  9
$SKETCHINC
 40
1.0
  9
$FILLETRAD
 40
10.0
  9
$AUNITS
 70
0
  9
$AUPREC
 70
2
  9
$MENU
  1
.
  9
$ELEVATION
 40
0.0
  9
$PELEVATION
 40
0.0
  9
$THICKNESS
 40
0.0
  9
$LIMCHECK
 70
0
  9
$CHAMFERA
 40
0.0
  9
$CHAMFERB
 40
0.0
  9
$CHAMFERC
 40
0.0
  9
$CHAMFERD
 40
0.0
  9
$SKPOLY
 70
0
  9
$TDCREATE
 40
2461316.7455671295
  9
$TDUCREATE
 40
2458532.153996898
  9
$TDUPDATE
 40
2461316.7455671295
  9
$TDUUPDATE
 40
2458532.1544311
  9
$TDINDWG
 40
0.0
  9
$TDUSRTIMER
 40
0.0
  9
$USRTIMER
 70
1
  9
$ANGBASE
 50
0.0
  9
$ANGDIR
 70
0
  9
$PDMODE
 70
0
  9
$PDSIZE
 40
0.0
  9
$PLINEWID
 40
0.0
  9
$SPLFRAME
 70
0
  9
$SPLINETYPE
 70
6
  9
$SPLINESEGS
 70
8
  9
$HANDSEED
  5
54
  9
$SURFTAB1
 70
6
  9
$SURFTAB2
 70
6
  9
$SURFTYPE
 70
6
  9
$SURFU
 70
6
  9
$SURFV
 70
6
  9
$UCSBASE
  2

  9
$UCSNAME
  2

  9
$UCSORG
 10
0.0
 20
0.0
 30
0.0
  9
$UCSXDIR
 10
1.0
 20
0.0
 30
0.0
  9
$UCSYDIR
 10
0.0
 20
1.0
 30
0.0
  9
$UCSORTHOREF
  2

  9
$UCSORTHOVIEW
 70
0
  9
$UCSORGTOP
 10
0.0
 20
0.0
 30
0.0
  9
$UCSORGBOTTOM
 10
0.0
 20
0.0
 30
0.0
  9
$UCSORGLEFT
 10
0.0
 20
0.0
 30
0.0
  9
$UCSORGRIGHT
 10
0.0
 20
0.0
 30
0.0
  9
$UCSORGFRONT
 10
0.0
 20
0.0
 30
0.0
  9
$UCSORGBACK
 10
0.0
 20
0.0
 30
0.0
  9
$PUCSBASE
  2

  9
$PUCSNAME
  2

  9
$PUCSORG
 10
0.0
 20
0.0
 30
0.0
  9
$PUCSXDIR
 10
1.0
 20
0.0
 30
0.0
  9
$PUCSYDIR
 10
0.0
 20
1.0
 30
0.0
  9
$PUCSORTHOREF
  2

  9
$PUCSORTHOVIEW
 70
0
  9
$PUCSORGTOP
 10
0.0
 20
0.0
 30
0.0
  9
$PUCSORGBOTTOM
 10
0.0
 20
0.0
 30
0.0
  9
$PUCSORGLEFT
 10
0.0
 20
0.0
 30
0.0
  9
$PUCSORGRIGHT
 10
0.0
 20
0.0
 30
0.0
  9
$PUCSORGFRONT
 10
0.0
 20
0.0
 30
0.0
  9
$PUCSORGBACK
 10
0.0
 20
0.0
 30
0.0
  9
$USERI1
 70
0
  9
$USERI2
 70
0
  9
$USERI3
 70
0
  9
$USERI4
 70
0
  9
$USERI5
 70
0
  9
$USERR1
 40
0.0
  9
$USERR2
 40
0.0
  9
$USERR3
 40
0.0
  9
$USERR4
 40
0.0
  9
$USERR5
 40
0.0
  9
$WORLDVIEW
 70
1
  9
$SHADEDGE
 70
3
  9
$SHADEDIF
 70
70
  9
$TILEMODE
 70
1
  9
$MAXACTVP
 70
64
  9
$PINSBASE
 10
0.0
 20
0.0
 30
0.0
  9
$PLIMCHECK
 70
0
  9
$PEXTMIN
 10
1e+20
 20
1e+20
 30
1e+20
  9
$PEXTMAX
 10
-1e+20
 20
-1e+20
 30
-1e+20
  9
$PLIMMIN
 10
0.0
 20
0.0
  9
$PLIMMAX
 10
420.0
 20
297.0
  9
$UNITMODE
 70
0
  9
$VISRETAIN
 70
1
  9
$PLINEGEN
 70
0
  9
$PSLTSCALE
 70
1
  9
$TREEDEPTH
 70
3020
  9
$CMLSTYLE
  2
Standard
  9
$CMLJUST
 70
0
  9
$CMLSCALE
 40
20.0
  9
$PROXYGRAPHICS
 70
1
  9
$MEASUREMENT
 70
1
  9
$CELWEIGHT
370
-1
  9
$ENDCAPS
280
0
  9
$JOINSTYLE
280
0
  9
$LWDISPLAY
290
0
  9
$INSUNITS
 70
4
  9
$HYPERLINKBASE
  1

  9
$STYLESHEET
  1

  9
$XEDIT
290
1
  9
$CEPSNTYPE
380
0
  9
$PSTYLEMODE
290
1
  9
$FINGERPRINTGUID
  2
{AD27913B-E8D6-4057-9221-60CF18038B7C}
  9
$VERSIONGUID
  2
{9C8EF50F-5F82-499B-9E91-54FBC6C61517}
  9
$EXTNAMES
290
1
  9
$PSVPSCALE
 40
0.0
  9
$OLESTARTUP
290
0
  9
$SORTENTS
280
127
  9
$INDEXCTL
280
0
  9
$HIDETEXT
280
1
  9
$XCLIPFRAME
280
1
  9
$HALOGAP
280
0
  9
$OBSCOLOR
 70
257
  9
$OBSLTYPE
280
0
  9
$INTERSECTIONDISPLAY
280
0
  9
$INTERSECTIONCOLOR
 70
257
  9
$DIMASSOC
280
2
  9
$PROJECTNAME
  1

  9
$CAMERADISPLAY
290
0
  9
$LENSLENGTH
 40
50.0
  9
$CAMERAHEIGHT
 40
0.0
  9
$STEPSPERSEC
 40
24.0
  9
$STEPSIZE
 40
100.0
  9
$3DDWFPREC
 40
2.0
  9
$PSOLWIDTH
 40
0.005
  9
$PSOLHEIGHT
 40
0.08
  9
$LOFTANG1
 40
1.570796326795
  9
$LOFTANG2
 40
1.570796326795
  9
$LOFTMAG1
 40
0.0
  9
$LOFTMAG2
 40
0.0
  9
$LOFTPARAM
 70
7
  9
$LOFTNORMALS
280
1
  9
$LATITUDE
 40
37.795
  9
$LONGITUDE
 40
-122.394
  9
$NORTHDIRECTION
 40
0.0
  9
$TIMEZONE
 70
-8000
  9
$LIGHTGLYPHDISPLAY
280
1
  9
$TILEMODELIGHTSYNCH
280
1
  9
$CMATERIAL
347
20
  9
$SOLIDHIST
280
0
  9
$SHOWHIST
280
1
  9
$DWFFRAME
280
2
  9
$DGNFRAME
280
2
  9
$REALWORLDSCALE
290
1
  9
$INTERFERECOLOR
 62
256
  9
$CSHADOW
280
0
  9
$SHADOWPLANELOCATION
 40
0.0
  0
ENDSEC
  0
SECTION
  2
CLASSES
  0
CLASS
  1
ACDBDICTIONARYWDFLT
  2
AcDbDictionaryWithDefault
  3
ObjectDBX Classes
 90
0
 91
0
280
0
281
0
  0
CLASS
  1
SUN
  2
AcDbSun
  3
SCENEOE
 90
1153
 91
0
280
0
281
0
  0
CLASS
  1
VISUALSTYLE
  2
AcDbVisualStyle
  3
ObjectDBX Classes
 90
4095
 91
0
280
0
281
0
  0
CLASS
  1
MATERIAL
  2
AcDbMaterial
  3
ObjectDBX Classes
 90
1153
 91
0
280
0
281
0
  0
CLASS
  1
SCALE
  2
AcDbScale
  3
ObjectDBX Classes
 90
1153
 91
0
280
0
281
0
  0
CLASS
  1
TABLESTYLE
  2
AcDbTableStyle
  3
ObjectDBX Classes
 90
4095
 91
0
280
0
281
0
  0
CLASS
  1
MLEADERSTYLE
  2
AcDbMLeaderStyle
  3
ACDB_MLEADERSTYLE_CLASS
 90
4095
 91
0
280
0
281
0
  0
CLASS
  1
DICTIONARYVAR
  2
AcDbDictionaryVar
  3
ObjectDBX Classes
 90
0
 91
0
280
0
281
0
  0
CLASS
  1
CELLSTYLEMAP
  2
AcDbCellStyleMap
  3
ObjectDBX Classes
 90
1152
 91
0
280
0
281
0
  0
CLASS
  1
MENTALRAYRENDERSETTINGS
  2
AcDbMentalRayRenderSettings
  3
SCENEOE
 90
1024
 91
0
280
0
281
0
  0
CLASS
  1
ACDBDETAILVIEWSTYLE
  2
AcDbDetailViewStyle
  3
ObjectDBX Classes
 90
1025
 91
0
280
0
281
0
  0
CLASS
  1
ACDBSECTIONVIEWSTYLE
  2
AcDbSectionViewStyle
  3
ObjectDBX Classes
 90
1025
 91
0
280
0
281
0
  0
CLASS
  1
RASTERVARIABLES
  2
AcDbRasterVariables
  3
ISM
 90
0
 91
0
280
0
281
0
  0
CLASS
  1
ACDBPLACEHOLDER
  2
AcDbPlaceHolder
  3
ObjectDBX Classes
 90
0
 91
0
280
0
281
0
  0
CLASS
  1
LAYOUT
  2
AcDbLayout
  3
ObjectDBX Classes
 90
0
 91
0
280
0
281
0
  0
ENDSEC
  0
SECTION
  2
TABLES
  0
TABLE
  2
VPORT
  5
8
330
0
100
AcDbSymbolTable
 70
1
  0
VPORT
  5
23
330
8
100
AcDbSymbolTableRecord
100
AcDbViewportTableRecord
  2
*Active
 70
0
 10
0.0
 20
0.0
 11
1.0
 21
1.0
 12
0.0
 22
0.0
 13
0.0
 23
0.0
 14
0.5
 24
0.5
 15
0.5
 25
0.5
 16
0.0
 26
0.0
 36
1.0
 17
0.0
 27
0.0
 37
0.0
 40
1000.0
 41
1.34
 42
50.0
 43
0.0
 44
0.0
 50
0.0
 51
0.0
 71
0
 72
1000
 73
1
 74
3
 75
0
 76
0
 77
0
 78
0
281
0
 65
0
146
0.0
  0
ENDTAB
  0
TABLE
  2
LTYPE
  5
2
330
0
100
AcDbSymbolTable
 70
3
  0
LTYPE
  5
24
330
2
100
AcDbSymbolTableRecord
100
AcDbLinetypeTableRecord
  2
ByBlock
 70
0
  3

 72
65
 73
0
 40
0.0
  0
LTYPE
  5
25
330
2
100
AcDbSymbolTableRecord
100
AcDbLinetypeTableRecord
  2
ByLayer
 70
0
  3

 72
65
 73
0
 40
0.0
  0
LTYPE
  5
26
330
2
100
AcDbSymbolTableRecord
100
AcDbLinetypeTableRecord
  2
Continuous
 70
0
  3

 72
65
 73
0
 40
0.0
  0
ENDTAB
  0
TABLE
  2
LAYER
  5
1
330
0
100
AcDbSymbolTable
 70
5
  0
LAYER
  5
27
330
1
100
AcDbSymbolTableRecord
100
AcDbLayerTableRecord
  2
0
 70
0
 62
7
  6
Continuous
370
-3
390
13
347
21
  0
LAYER
  5
28
330
1
100
AcDbSymbolTableRecord
100
AcDbLayerTableRecord
  2
Defpoints
 70
0
 62
7
  6
Continuous
290
0
370
-3
390
13
347
21
  0
LAYER
  5
2F
330
1
100
AcDbSymbolTableRecord
100
AcDbLayerTableRecord
  2
CUT
 70
0
 62
7
  6
Continuous
370
-3
390
13
347
21
  0
LAYER
  5
30
330
1
100
AcDbSymbolTableRecord
100
AcDbLayerTableRecord
  2
REFERENCE_NOT_CUT
 70
0
 62
8
  6
Continuous
370
-3
390
13
347
21
  0
LAYER
  5
31
330
1
100
AcDbSymbolTableRecord
100
AcDbLayerTableRecord
  2
LABELS_NOT_CUT
 70
0
 62
3
  6
Continuous
370
-3
390
13
347
21
  0
ENDTAB
  0
TABLE
  2
STYLE
  5
5
330
0
100
AcDbSymbolTable
 70
1
  0
STYLE
  5
29
330
5
100
AcDbSymbolTableRecord
100
AcDbTextStyleTableRecord
  2
Standard
 70
0
 40
0.0
 41
1.0
 50
0.0
 71
0
 42
2.5
  3
txt
  4

  0
ENDTAB
  0
TABLE
  2
VIEW
  5
7
330
0
100
AcDbSymbolTable
 70
0
  0
ENDTAB
  0
TABLE
  2
UCS
  5
6
330
0
100
AcDbSymbolTable
 70
0
  0
ENDTAB
  0
TABLE
  2
APPID
  5
3
330
0
100
AcDbSymbolTable
 70
3
  0
APPID
  5
2A
330
3
100
AcDbSymbolTableRecord
100
AcDbRegAppTableRecord
  2
ACAD
 70
0
  0
APPID
  5
51
330
3
100
AcDbSymbolTableRecord
100
AcDbRegAppTableRecord
  2
HATCHBACKGROUNDCOLOR
 70
0
  0
APPID
  5
52
330
3
100
AcDbSymbolTableRecord
100
AcDbRegAppTableRecord
  2
EZDXF
 70
0
  0
ENDTAB
  0
TABLE
  2
DIMSTYLE
  5
4
330
0
100
AcDbSymbolTable
 70
1
100
AcDbDimStyleTable
  0
DIMSTYLE
105
2B
330
4
100
AcDbSymbolTableRecord
100
AcDbDimStyleTableRecord
  2
Standard
 70
0
 40
1.0
 41
2.5
 42
0.625
 43
3.75
 44
1.25
 45
0.0
 46
0.0
 47
0.0
 48
0.0
 49
2.5
140
2.5
141
2.5
142
0.0
143
0.03937007874
144
1.0
145
0.0
146
1.0
147
0.625
148
0.0
 69
0
 70
0
 71
0
 72
0
 73
0
 74
0
 75
0
 76
0
 77
1
 78
8
 79
3
170
0
171
3
172
1
173
0
174
0
175
0
176
0
177
0
178
0
179
2
271
2
272
2
273
2
274
3
275
0
276
0
277
2
278
44
279
0
280
0
281
0
282
0
283
0
284
8
285
0
286
0
288
0
289
3
290
0
371
-2
372
-2
  0
ENDTAB
  0
TABLE
  2
BLOCK_RECORD
  5
9
330
0
100
AcDbSymbolTable
 70
2
  0
BLOCK_RECORD
  5
17
330
9
100
AcDbSymbolTableRecord
100
AcDbBlockTableRecord
  2
*Model_Space
340
1A
 70
0
280
1
281
0
  0
BLOCK_RECORD
  5
1B
330
9
100
AcDbSymbolTableRecord
100
AcDbBlockTableRecord
  2
*Paper_Space
340
1E
 70
0
280
1
281
0
  0
ENDTAB
  0
ENDSEC
  0
SECTION
  2
BLOCKS
  0
BLOCK
  5
18
330
17
100
AcDbEntity
  8
0
100
AcDbBlockBegin
  2
*Model_Space
 70
0
 10
0.0
 20
0.0
 30
0.0
  3
*Model_Space
  1

  0
ENDBLK
  5
19
330
17
100
AcDbEntity
  8
0
100
AcDbBlockEnd
  0
BLOCK
  5
1C
330
1B
100
AcDbEntity
  8
0
100
AcDbBlockBegin
  2
*Paper_Space
 70
0
 10
0.0
 20
0.0
 30
0.0
  3
*Paper_Space
  1

  0
ENDBLK
  5
1D
330
1B
100
AcDbEntity
  8
0
100
AcDbBlockEnd
  0
ENDSEC
  0
SECTION
  2
ENTITIES
  0
LWPOLYLINE
  5
32
330
17
100
AcDbEntity
  8
CUT
100
AcDbPolyline
 90
159
 70
1
 10
361.22560044713
 20
23.305319757609993
 10
362.65281638677004
 20
23.39450881131998
 10
364.49999990051003
 20
23.514287987179983
 10
364.49999989999003
 20
20.713923531629973
 10
370.49999989999003
 20
20.713923531629973
 10
370.49999989998
 20
23.912691093079985
 10
372.2790929349401
 20
24.03543342895
 10
375.93310964856005
 20
24.29364423024998
 10
378.79793189122006
 20
24.503180726939974
 10
382.4307233979
 20
24.776202872729982
 10
385.29878431582006
 20
24.99788493027998
 10
388.93943991588003
 20
25.28785561114998
 10
391.78755483437
 20
25.519829386969974
 10
395.4683614292301
 20
25.829547690369992
 10
398.26745178074
 20
26.06916605204998
 10
402.03776495114005
 20
26.403380674889974
 10
404.74034399405
 20
26.645981345299987
 10
408.70338898057
 20
27.015126640439973
 10
411.20737331992007
 20
27.250325884949973
 10
417.6692591939101
 20
27.88222927375
 10
424.12650167695006
 20
28.541931026529994
 10
430.58139783325
 20
29.230317870189992
 10
437.03538631247
 20
29.946682075129985
 10
439.63176249565004
 20
30.244745026069978
 10
443.48900935036
 20
30.69111561684997
 10
446.22921789051
 20
31.017158860019975
 10
449.94311880879
 20
31.46375922435999
 10
452.75469470863004
 20
31.81007275146999
 10
456.39908156385
 20
32.264835062449976
 10
459.24422453286
 20
32.627214589829975
 10
462.85917343242
 20
33.094709414769994
 10
465.71225504995004
 20
33.47007735671997
 10
469.32740001891
 20
33.95402330053
 10
472.16566672124
 20
34.33937015161999
 10
475.81140328004994
 20
34.84399585519998
 10
477.65000000549
 20
35.10135465938998
 10
477.65000000555995
 20
45.71392343163399
 10
487.65000000559996
 20
45.71392343163399
 10
487.65000000560997
 20
41.71392338263999
 10
492.65000000560997
 20
41.71392338263999
 10
492.65000000559996
 20
37.28702849430999
 10
492.65000000928
 20
29.701785444129996
 10
487.65000000560997
 20
28.960847264849974
 10
487.65000000559996
 20
28.95881231026999
 10
486.51290197317996
 20
28.79234339580998
 10
484.63317617734003
 20
28.52197262196998
 10
481.82228566913
 20
28.114952324009977
 10
480.91691012862
 20
27.987442676349986
 10
480.12066774962
 20
27.87291497839999
 10
478.34926977921
 20
27.625825975199973
 10
475.9913363221
 20
27.29374359515998
 10
474.77468045866
 20
27.127213169469997
 10
473.72457338658
 20
26.98073569009
 10
472.1381050435
 20
26.766330491439987
 10
470.15724000534
 20
26.49519852393999
 10
468.61914053603005
 20
26.290755742329992
 10
467.32473504242
 20
26.115821733589996
 10
465.95833907082
 20
25.937084433209975
 10
464.32008480733
 20
25.71932916749998
 10
462.44424473662
 20
25.47740821367998
 10
460.92126894352
 20
25.278188816479997
 10
459.79406318008
 20
25.135622973049976
 10
458.47995886270996
 20
24.966147240629994
 10
456.23751379647
 20
24.68580051914998
 10
454.51429138215997
 20
24.467852150839974
 10
453.63788690731997
 20
24.36079952519998
 10
452.636950351
 20
24.23566411554998
 10
449.96863334618
 20
23.912600960329996
 10
448.10391871435
 20
23.684826453069974
 10
447.48593782042997
 20
23.612011694289976
 10
446.79114749522
 20
23.527890821749992
 10
441.69026735780005
 20
22.929125943579976
 10
440.94263856062
 20
22.84283804582998
 10
435.09151185325004
 20
22.180516131349975
 10
429.23785571876
 20
21.540935078629985
 10
423.38175854092003
 20
20.924104544659997
 10
422.43080621299
 20
20.826110303439975
 10
417.52330874038
 20
20.330033842889975
 10
416.71763606442005
 20
20.251496938859987
 10
416.00520543747007
 20
20.179842822329988
 10
414.17533122757004
 20
20.003673279289984
 10
411.66259477336007
 20
19.758731943149996
 10
410.54680264726005
 20
19.654339856009983
 10
409.57690891248
 20
19.560964182899994
 10
407.91415781522005
 20
19.408032965799975
 10
405.79970513019
 20
19.210207471459995
 10
404.36504582939006
 20
19.081604063429978
 10
403.14603338122004
 20
18.96948562449998
 10
401.69527192530006
 20
18.842284510319985
 10
399.93472833411
 20
18.684468709949982
 10
398.16749362942005
 20
18.532972922269977
 10
396.71269563375006
 20
18.40541788887998
 10
395.4971158829501
 20
18.304055405509985
 10
394.06775293984003
 20
18.181523596699975
 10
391.9444928742
 20
18.007815944159972
 10
390.27701250480004
 20
17.86877121994999
 10
389.31020078067
 20
17.792299859679986
 10
388.19886753228
 20
17.701379725629977
 10
385.6740456767201
 20
17.504692955399975
 10
383.83910087172
 20
17.359555363699997
 10
383.12972820871005
 20
17.30648745265998
 10
382.32816072519006
 20
17.24404434637998
 10
377.39907765235
 20
16.877779567869993
 10
376.4557211598001
 20
16.809524364229986
 10
370.58163750354004
 20
16.397826339929992
 10
364.70599844863
 20
16.008956489699983
 10
358.8288927108
 20
15.642920685019988
 10
358.0675082171
 20
15.597177544929991
 10
352.95040902791004
 20
15.299724452649968
 10
352.24612611105
 20
15.261352549769981
 10
351.62020856582
 20
15.225244499689978
 10
349.7459499415901
 20
15.125133830199985
 10
347.07063615862
 20
14.979372974469982
 10
346.05763183036004
 20
14.928127936439978
 10
345.17138245007004
 20
14.880790275759978
 10
343.43972671862
 20
14.795695484519968
 10
341.18966288108004
 20
14.681871087439987
 10
339.86039051320006
 20
14.619804363889983
 10
338.7211469859001
 20
14.563821128689995
 10
337.19063862842006
 20
14.495147629769974
 10
335.30757799154003
 20
14.407223283500002
 10
333.65044173379
 20
14.336299945969984
 10
332.2696193149201
 20
14.274342814919976
 10
330.96879057344006
 20
14.221528665400001
 10
329.42447030304004
 20
14.155433709549982
 10
327.42021434017
 20
14.077455099249988
 10
325.81691660225
 20
14.01236059160999
 10
324.76183128389005
 20
13.97402668479998
 10
323.54042864408007
 20
13.92650616732999
 10
321.15336824634005
 20
13.842922134839995
 10
319.36315603431
 20
13.777879216579976
 10
318.5637636393001
 20
13.752245922439982
 10
317.65554185724
 20
13.720444113399992
 10
314.80725652356
 20
13.631789870529985
 10
312.90845481676
 20
13.5709029482
 10
311.76989879788005
 20
13.537250659059993
 10
306.45293017233007
 20
13.391435545349992
 10
305.88358833275004
 20
13.376928570329994
 10
299.9966993387201
 20
13.23948026702999
 10
148.64999999991
 20
10.0
 10
10.0
 20
10.000000000239993
 10
10.0
 20
17.500000000239993
 10
148.56974281606
 20
17.5
 10
299.83620334885006
 20
20.737762806439974
 10
305.3727624357
 20
20.867704795839984
 10
306.82794029695003
 20
20.90502875548998
 10
312.42078641769
 20
21.059964399039984
 10
317.91640781714
 20
21.234361131729997
 10
319.33001137330007
 20
21.282623540179998
 10
324.99710088971005
 20
21.486997211399995
 10
330.46931693536
 20
21.705897033769986
 10
331.79360597651
 20
21.762362939639985
 10
336.34186654455004
 20
21.96311480496999
 10
337.56302508477006
 20
22.018643791039977
 10
343.02757122076
 20
22.28244907391999
 10
344.19917904031
 20
22.34236751278999
 10
348.76280774624
 20
22.581570419089985
 10
350.11599978159006
 20
22.654613166439987
 10
355.58814568971
 20
22.964096597909986
  0
TEXT
  5
33
330
17
100
AcDbEntity
  8
LABELS_NOT_CUT
100
AcDbText
 10
447.77280255398017
 20
27.74937047679998
 30
0.0
 40
2.0
  1
A62_A
100
AcDbText
  0
LWPOLYLINE
  5
34
330
17
100
AcDbEntity
  8
CUT
100
AcDbPolyline
 90
79
 70
1
 10
209.34999984118798
 20
52.238964099104464
 10
371.522241934398
 20
53.514010671838776
 10
444.00000058579326
 20
54.10166482774133
 10
443.99999964020765
 20
63.5260558034484
 10
89.999999663958
 20
66.56701313344729
 10
89.999999663958
 20
61.18292663916708
 10
84.999999663958
 20
61.18292665080111
 10
84.99999966395801
 20
66.60995442754927
 10
10.0
 20
67.25407383619284
 10
10.0
 20
58.9641768261431
 10
14.999999663965013
 20
58.96417195702941
 10
14.999999663965
 20
50.71392343163399
 10
124.369771008848
 20
51.57255977857005
 10
124.53454394360799
 20
51.58084076816908
 10
124.698156295558
 20
51.602847968593096
 10
124.85949341799798
 20
51.63820961017393
 10
125.01744066428799
 20
51.68655392324439
 10
125.170883387728
 20
51.747509138135115
 10
125.31870694167799
 20
51.820703485179024
 10
125.459796679448
 20
51.90576519470591
 10
125.59303795437799
 20
52.0023224970484
 10
125.756792988278
 20
52.14806376405494
 10
125.903383108908
 20
52.31125186362368
 10
126.031577819678
 20
52.48955794298348
 10
126.14014662403798
 20
52.68065314936308
 10
126.227859025398
 20
52.88220862999128
 10
126.29348452717798
 20
53.09189553209694
 10
126.335792632818
 20
53.30738500290886
 10
126.371474109838
 20
53.746415836403685
 10
126.41419739685799
 20
53.96295678112426
 10
126.48046781264799
 20
54.17360966079809
 10
126.56903046301798
 20
54.37601311240974
 10
126.678630453788
 20
54.56780577294188
 10
126.80801289080799
 20
54.7466262793771
 10
126.95592287987799
 20
54.9101132686979
 10
127.12110552682799
 20
55.055905377887996
 10
127.25547195112799
 20
55.152320923367654
 10
127.397713886768
 20
55.23708404873548
 10
127.546696853018
 20
55.30982397064969
 10
127.70128636912798
 20
55.37016990576831
 10
127.860347954368
 20
55.417751070751535
 10
128.022747127988
 20
55.45219668225843
 10
128.187349409248
 20
55.47313595694516
 10
128.353020317418
 20
55.480198111472816
 10
174.387473722498
 20
55.480198111472816
 10
174.592877179288
 20
55.46912815357291
 10
174.79592101415798
 20
55.43652356167496
 10
174.994641286368
 20
55.38329225848304
 10
175.18707405516798
 20
55.31034216670042
 10
175.371255379828
 20
55.21858120903107
 10
175.545221319608
 20
55.10891730817724
 10
175.70700793375798
 20
54.98225838684397
 10
175.854651281558
 20
54.83951236773248
 10
175.95499360921798
 20
54.72252393668845
 10
176.045883706198
 20
54.59787266327862
 10
176.126929645778
 20
54.46643399111588
 10
176.19773950125798
 20
54.32908336381422
 10
176.25792134595798
 20
54.186696224985496
 10
176.307083253158
 20
54.04014801824462
 10
176.344833296168
 20
53.89031418720265
 10
176.396901741478
 20
53.585003879572525
 10
176.43495750256798
 20
53.4343787350756
 10
176.48454671546799
 20
53.28708414872335
 10
176.545269264078
 20
53.14400952725953
 10
176.61672503230798
 20
53.006044277421836
 10
176.698513904058
 20
52.87407780595305
 10
176.790235763238
 20
52.74899951959196
 10
176.891490493738
 20
52.631698825080264
 10
177.040458739048
 20
52.488734229266356
 10
177.20366207598798
 20
52.36208950893905
 10
177.379099586548
 20
52.252676541802714
 10
177.564770352758
 20
52.161407205559954
 10
177.758673456618
 20
52.08919337791423
 10
177.958807980138
 20
52.036946936568995
 10
178.163173005348
 20
52.00557975922578
 10
178.369767614238
 20
51.99600372359015
 10
204.349999507578
 20
52.199745929984545
 10
204.34999916822798
 20
58.9641768261431
 10
209.349999505608
 20
58.9641768261431
  0
TEXT
  5
35
330
17
100
AcDbEntity
  8
LABELS_NOT_CUT
100
AcDbText
 10
226.99999999330538
 20
60.07355173265509
 30
0.0
 40
2.0
  1
A05_R
100
AcDbText
  0
LWPOLYLINE
  5
36
330
17
100
AcDbEntity
  8
CUT
100
AcDbPolyline
 90
7
 70
1
 10
453.00002128199003
 20
77.97322416252115
 10
10.0
 20
81.46745379539277
 10
10.0
 20
72.25407383619284
 10
113.62955161338994
 20
72.79265812617712
 10
298.85437736986
 20
73.73610119856318
 10
381.89112310406995
 20
74.14995635785857
 10
453.00002128199014
 20
74.49516408187907
  0
TEXT
  5
37
330
17
100
AcDbEntity
  8
LABELS_NOT_CUT
100
AcDbText
 10
231.50001064099504
 20
76.23419412220011
 30
0.0
 40
2.0
  1
A07_R_O
100
AcDbText
  0
LWPOLYLINE
  5
38
330
17
100
AcDbEntity
  8
CUT
100
AcDbPolyline
 90
304
 70
1
 10
593.276995224455
 20
43.92671524320201
 10
593.294448946284
 20
44.58704729098105
 10
593.294448946284
 20
46.69023070603805
 10
593.294442947826
 20
45.69023080604501
 10
583.294442947826
 20
45.690230806045065
 10
583.294442947826
 20
51.69023080604495
 10
593.294448946284
 20
51.69023070603731
 10
593.294448946284
 20
52.25555105618702
 10
593.029908335966
 20
53.259102494702006
 10
592.735314333375
 20
54.27708281054703
 10
592.410954431808
 20
55.30810707818205
 10
592.057116124564
 20
56.350790372067024
 10
591.674086904939
 20
57.40374776666101
 10
591.26215426623
 20
58.465594336425056
 10
590.821605701734
 20
59.534945155818036
 10
590.352728704749
 20
60.61041529930105
 10
589.990111367429
 20
61.40458786320801
 10
589.612894520115
 20
62.20085799100406
 10
589.221335285275
 20
62.99878281911003
 10
588.815690785377
 20
63.797919483951034
 10
588.396218142886
 20
64.59782512194806
 10
587.963174480271
 20
65.39805686952502
 10
587.516816919997
 20
66.19817186310604
 10
587.057402584533
 20
66.99772723911303
 10
586.585188596345
 20
67.79628013396905
 10
586.100432077901
 20
68.59338768409805
 10
585.603390151666
 20
69.38860702592302
 10
585.094319940109
 20
70.18149529586606
 10
584.573478565696
 20
70.97160963035105
 10
584.041123150895
 20
71.75850716580203
 10
583.497510818172
 20
72.54174503864004
 10
582.942898689994
 20
73.320880385289
 10
582.377543888829
 20
74.09547034217303
 10
581.801703537144
 20
74.86507204571404
 10
581.215634757404
 20
75.62924263233606
 10
580.619594672079
 20
76.38753923846104
 10
580.013840403634
 20
77.13951900051302
 10
579.398629074537
 20
77.88473905491503
 10
578.774217807254
 20
78.62275653809002
 10
578.140863724253
 20
79.35312858646103
 10
577.498823948001
 20
80.07541233645105
 10
576.848355600965
 20
80.789164924484
 10
576.1897158056111
 20
81.49394348698206
 10
575.523161684407
 20
82.18930516036801
 10
574.84895035982
 20
82.87480708106602
 10
574.167338954317
 20
83.55000638549905
 10
573.478584590365
 20
84.21446021008904
 10
572.782944390431
 20
84.86772569126003
 10
571.73466025351
 20
85.81904567437607
 10
570.672869691515
 20
86.74319125413001
 10
569.598607232335
 20
87.63898229030303
 10
568.51290740386
 20
88.50523864267603
 10
567.416804733983
 20
89.34078017103002
 10
566.311333750592
 20
90.14442673514606
 10
565.197528981578
 20
90.91499819480407
 10
564.076424954832
 20
91.65131440978604
 10
562.9490561982441
 20
92.352195239872
 10
561.816457239705
 20
93.01646054484206
 10
560.679662607106
 20
93.64293018447904
 10
559.539706828335
 20
94.23042401856208
 10
558.397624431285
 20
94.77776190687302
 10
557.254449943846
 20
95.28376370919204
 10
556.111217893907
 20
95.74724928530003
 10
555.539903572967
 20
95.96267969470705
 10
554.96896280936
 20
96.16703849497804
 10
554.366331137937
 20
96.370866756807
 10
553.764511538436
 20
96.56224136308703
 10
553.163589581894
 20
96.74106620164304
 10
552.563650839349
 20
96.907245160304
 10
551.964780881835
 20
97.06068212689405
 10
551.36706528039
 20
97.20128098924204
 10
550.770589606051
 20
97.32894563517203
 10
550.175439429854
 20
97.443579952513
 10
549.581700322835
 20
97.54508782909102
 10
548.989457856031
 20
97.63337315273202
 10
548.3987976004801
 20
97.70833981126304
 10
547.809805127216
 20
97.76989169251004
 10
547.222566007277
 20
97.81793268430101
 10
546.6371658117
 20
97.85236667446105
 10
546.0536901115211
 20
97.87309755081804
 10
545.4722244777759
 20
97.88002920119703
 10
544.890758844031
 20
97.87309755081804
 10
544.307283143852
 20
97.85236667446105
 10
543.721882948275
 20
97.81793268430101
 10
543.134643828337
 20
97.76989169251101
 10
542.545651355074
 20
97.70833981126304
 10
541.954991099522
 20
97.63337315273304
 10
541.362748632719
 20
97.54508782909204
 10
540.769009525701
 20
97.44357995251403
 10
540.173859349504
 20
97.32894563517402
 10
539.577383675165
 20
97.20128098924306
 10
538.979668073721
 20
97.06068212689604
 10
538.380798116208
 20
96.90724516030502
 10
537.780859373662
 20
96.74106620164503
 10
537.179937417121
 20
96.56224136308902
 10
536.578117817621
 20
96.37086675680905
 10
535.975486146198
 20
96.16703849498003
 10
535.4045453826
 20
95.96267969470904
 10
534.83323106166
 20
95.74724928530202
 10
533.68999901172
 20
95.283763709195
 10
532.54682452428
 20
94.77776190687604
 10
531.4047421272301
 20
94.23042401856605
 10
530.26478634846
 20
93.64293018448404
 10
529.12799171586
 20
93.01646054484803
 10
527.99539275732
 20
92.352195239877
 10
526.86802400074
 20
91.65131440979201
 10
525.74691997399
 20
90.91499819481106
 10
524.63311520498
 20
90.14442673515305
 10
523.52764422159
 20
89.34078017103803
 10
522.43154155171
 20
88.50523864268507
 10
521.34584172324
 20
87.63898229031201
 10
520.27157926406
 20
86.74319125413905
 10
519.20978870206
 20
85.81904567438505
 10
518.16150456514
 20
84.86772569127004
 10
517.46586436521
 20
84.21446021009803
 10
516.77711000125
 20
83.55000638550803
 10
516.09549859575
 20
82.874807081075
 10
515.42128727116
 20
82.18930516037705
 10
514.75473314996
 20
81.49394348699104
 10
514.09609335461
 20
80.78916492449304
 10
513.44562500757
 20
80.07541233646003
 10
512.80358523132
 20
79.35312858647
 10
512.17023114832
 20
78.62275653809803
 10
511.54581988102996
 20
77.88473905492305
 10
510.93060855193005
 20
77.13951900052103
 10
510.32485428349
 20
76.387539238469
 10
509.72881419815997
 20
75.62924263234305
 10
509.14274541841996
 20
74.86507204572104
 10
508.56690506674
 20
74.09547034217906
 10
508.00155026557
 20
73.32088038529503
 10
507.44693813739
 20
72.54174503864505
 10
506.90332580467
 20
71.75850716580703
 10
506.37097038986997
 20
70.97160963035606
 10
505.85012901545997
 20
70.18149529587106
 10
505.34105880389995
 20
69.38860702592706
 10
504.84401687766
 20
68.59338768410203
 10
504.35926035922
 20
67.79628013397303
 10
503.88704637103
 20
66.99772723911701
 10
503.42763203557
 20
66.19817186311002
 10
502.98127447529
 20
65.39805686952906
 10
502.54823081268
 20
64.59782512195102
 10
502.12875817019005
 20
63.79791948395405
 10
501.72311367029
 20
62.99878281911401
 10
501.33155443545
 20
62.200857991008036
 10
500.95433758813
 20
61.40458786321204
 10
500.59172025081
 20
60.61041529930503
 10
500.12284325382996
 20
59.53494515582304
 10
499.68229468933
 20
58.46559433643205
 10
499.27036205061995
 20
57.40374776667005
 10
498.887332831
 20
56.35079037207805
 10
498.53349452376006
 20
55.308107078197054
 10
498.20913462219005
 20
54.27708281056505
 10
497.91454061959996
 20
53.25910249472406
 10
497.65000000928
 20
52.25555105621305
 10
497.65000000928
 20
51.69023070603879
 10
507.65000000927
 20
51.690230706038335
 10
507.64999951004006
 20
45.69023080604495
 10
497.65000000928
 20
45.69023080604495
 10
497.65000000928
 20
44.58704729096905
 10
497.66745373110996
 20
43.92671524318905
 10
497.71976615541996
 20
43.268227235710015
 10
497.80679119474996
 20
42.613422159172046
 10
497.92828582338996
 20
41.964128619282064
 10
498.08391075597
 20
41.32215983025202
 10
498.27323139502005
 20
40.689308551232045
 10
498.49571904457
 20
40.067342079842035
 10
498.75075238659997
 20
39.457997316852016
 10
499.11693173348
 20
38.66283901250205
 10
499.49697162997995
 20
37.87421126753202
 10
499.89075565712005
 20
37.09235566511205
 10
500.29816318562996
 20
36.31751171386202
 10
500.7190694129
 20
35.549916774522046
 10
501.15334540122
 20
34.78980598717203
 10
501.60085811726003
 20
34.03741219929202
 10
502.06147047287004
 20
33.292965894362055
 10
502.53504136699996
 20
32.556695121272014
 10
503.02142572899004
 20
31.828825424502043
 10
503.52047456297
 20
31.10957977497202
 10
504.03203499353003
 20
30.399178501782046
 10
504.55595031252005
 20
29.697839224692018
 10
505.09206002710005
 20
29.005776787482034
 10
505.64019990886004
 20
28.323203192102028
 10
506.20020204413004
 20
27.65032753379205
 10
506.77189488547003
 20
26.987355936942038
 10
507.35510330415
 20
26.33449149202204
 10
507.94964864386
 20
25.69193419333203
 10
508.55534877538
 20
25.059880877742046
 10
509.17201815244005
 20
24.438525164432008
 10
509.79946786847995
 20
23.828057395502015
 10
510.4375057146
 20
23.22866457774205
 10
511.08593623837
 20
22.640530325292048
 10
511.74456080376
 20
22.063834803422026
 10
512.41317765193
 20
21.498754673342034
 10
513.09158196309
 20
20.945463038072035
 10
513.77956591923
 20
20.404129389422053
 10
514.47691876775
 20
19.874919556062025
 10
515.18342688606
 20
19.35799565273203
 10
515.89887384699
 20
18.853516030592033
 10
516.62304048513
 20
18.361635228692023
 10
517.3557049639
 20
17.882503926622036
 10
518.09664284357
 20
17.416268898412028
 10
518.84562714999
 20
16.963072967492053
 10
519.60242844412
 20
16.52305496300204
 10
520.3668148923
 20
16.09634967723204
 10
521.13855233729
 20
15.683087824342039
 10
521.91740437001
 20
15.283396000312052
 10
522.70313240192
 20
14.897396644172034
 10
523.49549573813
 20
14.525208000482053
 10
524.29425165115
 20
14.166944083122047
 10
525.0991554552201
 20
13.822714640372027
 10
525.90996058128
 20
13.492625121262051
 10
526.72641865248
 20
13.176776643292044
 10
527.54827956031
 20
12.875265961462048
 10
528.37529154116
 20
12.58818543862202
 10
529.2072012535
 20
12.315623017172044
 10
530.04375385544
 20
12.057662192142033
 10
530.88469308283
 20
11.814381985582031
 10
531.72976132774
 20
11.58585692240203
 10
532.5786997174
 20
11.372157007492035
 10
533.43124819346
 20
11.173347704322055
 10
534.28714559171
 20
10.989489914852044
 10
535.14612972201
 20
10.820639960902042
 10
536.007937448692
 20
10.666849566882036
 10
536.872304771107
 20
10.52816584394202
 10
537.738966904516
 20
10.404631275582034
 10
538.607658361205
 20
10.296283704572033
 10
539.478113031808
 20
10.203156321422028
 10
540.350064266828
 20
10.125277654182042
 10
541.223244958323
 20
10.06267155968203
 10
542.097387621723
 20
10.015357216292045
 10
542.4722184793344
 20
10.001643090215794
 10
542.4722184793332
 20
17.476307175047168
 10
548.4722184793333
 20
17.476307175047594
 10
548.4722184793344
 20
10.0
 10
548.8470613338291
 20
10.015357216292045
 10
549.721203997229
 20
10.06267155968203
 10
550.594384688724
 20
10.125277654182042
 10
551.466335923745
 20
10.203156321422028
 10
552.336790594348
 20
10.296283704572033
 10
553.205482051037
 20
10.404631275582034
 10
554.072144184447
 20
10.52816584394202
 10
554.936511506862
 20
10.666849566882036
 10
555.798319233546
 20
10.820639960902042
 10
556.657303363852
 20
10.98948991486202
 10
557.513200762094
 20
11.173347704322055
 10
558.365749238159
 20
11.37215700750204
 10
559.214687627817
 20
11.58585692240203
 10
560.059755872733
 20
11.814381985582031
 10
560.900695100123
 20
12.057662192142033
 10
561.737247702064
 20
12.31562301718202
 10
562.569157414401
 20
12.58818543862202
 10
563.396169395253
 20
12.875265961472053
 10
564.218030303078
 20
13.176776643292044
 10
565.034488374281
 20
13.492625121262051
 10
565.845293500337
 20
13.822714640372027
 10
566.650197304408
 20
14.166944083132023
 10
567.448953217431
 20
14.525208000482053
 10
568.241316553644
 20
14.897396644172034
 10
569.027044585551
 20
15.283396000322028
 10
569.805896618269
 20
15.683087824352043
 10
570.577634063266
 20
16.096349677242046
 10
571.342020511447
 20
16.523054963012044
 10
572.0988218055741
 20
16.96307296750203
 10
572.847806111996
 20
17.416268898422032
 10
573.588743991668
 20
17.88250392663204
 10
574.3214084704371
 20
18.361635228692023
 10
575.045575108569
 20
18.853516030602037
 10
575.761022069505
 20
19.357995652742034
 10
576.467530187814
 20
19.87491955607203
 10
577.164883036335
 20
20.404129389432057
 10
577.852866992473
 20
20.94546303808204
 10
578.531271303638
 20
21.49875467335204
 10
579.199888151808
 20
22.06383480343203
 10
579.858512717191
 20
22.640530325302052
 10
580.506943240964
 20
23.228664577752056
 10
581.144981087082
 20
23.82805739551202
 10
581.772430803128
 20
24.438525164442012
 10
582.389100180183
 20
25.059880877762055
 10
582.994800311709
 20
25.691934193342036
 10
583.589345651415
 20
26.334491492032043
 10
584.172554070098
 20
26.987355936952042
 10
584.744246911434
 20
27.650327533802056
 10
585.304249046709
 20
28.323203192122037
 10
585.852388928463
 20
29.00577678749204
 10
586.388498643043
 20
29.697839224702022
 10
586.91241396204
 20
30.39917850179205
 10
587.423974392598
 20
31.109579774982024
 10
587.9230232265791
 20
31.828825424512047
 10
588.409407588566
 20
32.55669512129202
 10
588.882978482696
 20
33.29296589437206
 10
589.343590838301
 20
34.03741219931203
 10
589.791103554348
 20
34.78980598719204
 10
590.225379542666
 20
35.54991677453205
 10
590.646285769934
 20
36.31751171388203
 10
591.053693298442
 20
37.092355665132004
 10
591.4474773255811
 20
37.87421126755203
 10
591.827517222081
 20
38.662839012522056
 10
592.19369656896
 20
39.457997316872024
 10
592.448729911
 20
40.067342079862044
 10
592.671217560547
 20
40.689308551252054
 10
592.860538199595
 20
41.32215983027203
 10
593.01616313218
 20
41.96412861929605
 10
593.137657760816
 20
42.61342215918603
 10
593.224682800152
 20
43.26822723572303
  0
LWPOLYLINE
  5
39
330
17
100
AcDbEntity
  8
CUT
100
AcDbPolyline
 90
127
 70
1
 10
514.98785375676
 20
31.354574526502063
 10
514.2188497755
 20
32.16551259948204
 10
513.47222447778
 20
32.99710044583202
 10
513.47222447778
 20
65.37917312599205
 10
514.20105457277
 20
66.47264405628204
 10
514.95532431601
 20
67.56051469184303
 10
515.7338433403401
 20
68.64057515540503
 10
516.53542127857
 20
69.71061556969403
 10
517.35886776353
 20
70.76842605743803
 10
518.20299242803
 20
71.81179674136405
 10
519.06660490491
 20
72.83851774420106
 10
519.94851482697
 20
73.846379188676
 10
521.0027342777801
 20
75.00053186464703
 10
522.07730062701
 20
76.12376195031004
 10
522.68814890069
 20
76.73923768007404
 10
523.30420330956
 20
77.34348926015502
 10
524.12904283031
 20
78.12711642388501
 10
524.27772198927
 20
78.26531064670303
 10
524.87141836948
 20
78.80768601468702
 10
525.4691690399
 20
79.33872290690704
 10
526.07048219693
 20
79.85812919157706
 10
526.67486603696
 20
80.36561273691103
 10
527.28182875638
 20
80.86088141112407
 10
527.89087855157
 20
81.34364308242903
 10
528.50152361894
 20
81.81360561903904
 10
529.11327215486
 20
82.270476889169
 10
530.25095444544
 20
83.083452053065
 10
531.38759235613
 20
83.84837181665506
 10
532.52003156682
 20
84.56336683271002
 10
533.08369093465
 20
84.90155838940501
 10
533.64511775744
 20
85.22656775400606
 10
534.45875270693
 20
85.676268902792
 10
535.26558384289
 20
86.09673682930503
 10
536.064390014702
 20
86.48724923463703
 10
536.853950071732
 20
86.847083819879
 10
537.747657782052
 20
87.22241800888304
 10
538.610268827616
 20
87.55204287349903
 10
539.022894205691
 20
87.69799479503803
 10
539.597917409405
 20
87.88857933725501
 10
540.163488348179
 20
88.06124221050004
 10
540.727009846844
 20
88.21831138829305
 10
541.281031386475
 20
88.35776404763504
 10
541.83867391388
 20
88.48270887867807
 10
542.386537133207
 20
88.58993580711603
 10
542.929056509835
 20
88.68046744942001
 10
543.461790859085
 20
88.75370025363105
 10
543.994303392495
 20
88.81084199117902
 10
544.516791260051
 20
88.85071727596704
 10
544.998902843891
 20
88.87274142247702
 10
545.4722244777759
 20
88.88002920119703
 10
545.945546111679
 20
88.87274142247605
 10
546.427657695539
 20
88.85071727596505
 10
546.950145563088
 20
88.81084199117703
 10
547.482658096491
 20
88.75370025362804
 10
548.01539244574
 20
88.68046744941603
 10
548.557911822366
 20
88.58993580711206
 10
549.105775041697
 20
88.48270887867307
 10
549.6634175691061
 20
88.35776404762805
 10
550.217439108724
 20
88.21831138828907
 10
550.780960607377
 20
88.06124221049902
 10
551.346531546149
 20
87.88857933725404
 10
551.921554749862
 20
87.69799479503706
 10
552.334180127948
 20
87.552042873495
 10
553.196791173573
 20
87.22241800885206
 10
554.090498883829
 20
86.84708381987502
 10
554.880058941363
 20
86.48724923439505
 10
555.678865113695
 20
86.09673682878605
 10
556.485696250187
 20
85.676268901958
 10
557.299331200199
 20
85.22656775282303
 10
557.860758022868
 20
84.90155838825103
 10
558.424417390566
 20
84.56336683159304
 10
559.556856601004
 20
83.84837181563006
 10
560.693494511423
 20
83.08345205216102
 10
561.831176801733
 20
82.27047688840901
 10
562.442925337527
 20
81.81360561835305
 10
563.053570404762
 20
81.34364308182302
 10
563.662620199829
 20
80.86088141060407
 10
564.269582919117
 20
80.36561273648306
 10
564.873966759018
 20
79.85812919124504
 10
565.475279915922
 20
79.33872290667705
 10
566.073030586219
 20
78.80768601456401
 10
566.6667269663001
 20
78.26531064669206
 10
566.815406126675
 20
78.12711642254806
 10
567.64024564705
 20
77.34348925913605
 10
568.256300055398
 20
76.73923767955307
 10
568.86714832855
 20
76.12376195030504
 10
569.94171467778
 20
75.00053186464805
 10
570.995934128584
 20
73.84637918868202
 10
571.877844050652
 20
72.83851774420606
 10
572.741456527526
 20
71.81179674136905
 10
573.58558119203
 20
70.76842605744105
 10
574.4090276769859
 20
69.71061556969607
 10
575.210605615217
 20
68.64057515540605
 10
575.989124639543
 20
67.56051469184405
 10
576.743394382788
 20
66.47264405628204
 10
577.472224477776
 20
65.37917312599103
 10
577.47222447778
 20
32.99710044584202
 10
576.725599180059
 20
32.16551259949205
 10
575.956595198803
 20
31.35457452651201
 10
575.165783424198
 20
30.564888247952013
 10
574.353750936011
 20
29.797040008052022
 10
573.521100567764
 20
29.051599838982042
 10
572.668450459199
 20
28.329121137732045
 10
571.796433597386
 20
27.630140255222045
 10
570.905697346811
 20
26.955176098172046
 10
569.9969029687891
 20
26.304729743832013
 10
569.070725130554
 20
25.679284068052027
 10
568.127851404408
 20
25.079303386742026
 10
567.168981757281
 20
24.505233111242035
 10
566.194828031091
 20
23.957499417602037
 10
565.206113414292
 20
23.43650893024204
 10
564.203571904997
 20
22.942648420032015
 10
563.18794776607
 20
22.47628451724205
 10
527.75650118953
 20
22.47628451722204
 10
526.7408770506
 20
22.942648420012063
 10
525.7383355413
 20
23.436508930212028
 10
524.7496209245
 20
23.957499417582028
 10
523.77546719831
 20
24.505233111222026
 10
522.81659755118
 20
25.079303386722017
 10
521.87372382503
 20
25.679284068022014
 10
520.94754598679
 20
26.30472974381206
 10
520.03875160877
 20
26.955176098152037
 10
519.14801535819
 20
27.63014025521204
 10
518.27599849638
 20
28.329121137712036
 10
517.42334838781
 20
29.051599838972038
 10
516.59069801956
 20
29.797040008032013
 10
515.77866553137
 20
30.564888247942008
  0
LWPOLYLINE
  5
3A
330
17
100
AcDbEntity
  8
CUT
100
AcDbPolyline
 90
32
 70
1
 10
510.47222447778006
 20
66.56997611277706
 10
510.45300975818327
 20
66.76506643479314
 10
510.3961040102913
 20
66.95265954514213
 10
510.30369409008256
 20
67.12554634579664
 10
510.1793312589666
 20
67.27708289396355
 10
510.02779471079964
 20
67.40144572507961
 10
509.85490791014513
 20
67.4938556452883
 10
509.66731479979615
 20
67.55076139318027
 10
509.47222447778006
 20
67.56997611277706
 10
509.27713415576386
 20
67.55076139318027
 10
509.0895410454149
 20
67.4938556452883
 10
508.91665424476037
 20
67.40144572507961
 10
508.7651176965935
 20
67.27708289396355
 10
508.64075486547745
 20
67.12554634579664
 10
508.5483449452687
 20
66.95265954514213
 10
508.49143919737674
 20
66.76506643479314
 10
508.47222447778006
 20
66.56997611277706
 10
508.49143919737674
 20
66.37488579076091
 10
508.5483449452687
 20
66.18729268041193
 10
508.64075486547745
 20
66.01440587975742
 10
508.7651176965935
 20
65.8628693315905
 10
508.91665424476037
 20
65.7385065004745
 10
509.0895410454149
 20
65.64609658026575
 10
509.27713415576386
 20
65.58919083237379
 10
509.47222447778006
 20
65.56997611277706
 10
509.66731479979615
 20
65.58919083237379
 10
509.85490791014513
 20
65.64609658026575
 10
510.02779471079964
 20
65.7385065004745
 10
510.1793312589666
 20
65.8628693315905
 10
510.30369409008256
 20
66.01440587975742
 10
510.3961040102913
 20
66.18729268041193
 10
510.45300975818327
 20
66.37488579076091
  0
LWPOLYLINE
  5
3B
330
17
100
AcDbEntity
  8
CUT
100
AcDbPolyline
 90
32
 70
1
 10
546.4722244777748
 20
92.88002920119305
 10
546.453009758178
 20
93.0751195232092
 10
546.3961040102861
 20
93.26271263355812
 10
546.3036940900774
 20
93.43559943421269
 10
546.1793312589614
 20
93.5871359823796
 10
546.0277947107944
 20
93.71149881349561
 10
545.8549079101399
 20
93.80390873370436
 10
545.667314799791
 20
93.86081448159626
 10
545.4722244777748
 20
93.88002920119305
 10
545.2771341557587
 20
93.86081448159626
 10
545.0895410454098
 20
93.80390873370436
 10
544.9166542447553
 20
93.71149881349561
 10
544.7651176965883
 20
93.5871359823796
 10
544.6407548654723
 20
93.43559943421269
 10
544.5483449452636
 20
93.26271263355812
 10
544.4914391973716
 20
93.0751195232092
 10
544.4722244777748
 20
92.88002920119305
 10
544.4914391973716
 20
92.68493887917691
 10
544.5483449452636
 20
92.49734576882798
 10
544.6407548654723
 20
92.32445896817342
 10
544.7651176965883
 20
92.1729224200065
 10
544.9166542447553
 20
92.0485595888905
 10
545.0895410454098
 20
91.95614966868175
 10
545.2771341557587
 20
91.89924392078984
 10
545.4722244777748
 20
91.88002920119305
 10
545.667314799791
 20
91.89924392078984
 10
545.8549079101399
 20
91.95614966868175
 10
546.0277947107944
 20
92.0485595888905
 10
546.1793312589614
 20
92.1729224200065
 10
546.3036940900774
 20
92.32445896817347
 10
546.3961040102861
 20
92.49734576882798
 10
546.453009758178
 20
92.68493887917691
  0
LWPOLYLINE
  5
3C
330
17
100
AcDbEntity
  8
CUT
100
AcDbPolyline
 90
32
 70
1
 10
582.472224477775
 20
66.56997611277302
 10
582.4530097581783
 20
66.76506643478916
 10
582.3961040102863
 20
66.95265954513815
 10
582.3036940900776
 20
67.12554634579266
 10
582.1793312589616
 20
67.27708289395957
 10
582.0277947107946
 20
67.40144572507558
 10
581.8549079101401
 20
67.49385564528433
 10
581.6673147997911
 20
67.55076139317629
 10
581.472224477775
 20
67.56997611277302
 10
581.2771341557589
 20
67.55076139317629
 10
581.0895410454099
 20
67.49385564528433
 10
580.9166542447554
 20
67.40144572507558
 10
580.7651176965885
 20
67.27708289395957
 10
580.6407548654724
 20
67.12554634579266
 10
580.5483449452637
 20
66.95265954513815
 10
580.4914391973717
 20
66.76506643478916
 10
580.472224477775
 20
66.56997611277302
 10
580.4914391973717
 20
66.37488579075693
 10
580.5483449452637
 20
66.18729268040795
 10
580.6407548654724
 20
66.01440587975344
 10
580.7651176965885
 20
65.86286933158647
 10
580.9166542447554
 20
65.73850650047046
 10
581.0895410454099
 20
65.64609658026177
 10
581.2771341557589
 20
65.58919083236981
 10
581.472224477775
 20
65.56997611277302
 10
581.6673147997911
 20
65.58919083236981
 10
581.8549079101401
 20
65.64609658026177
 10
582.0277947107946
 20
65.73850650047052
 10
582.1793312589616
 20
65.86286933158647
 10
582.3036940900776
 20
66.01440587975344
 10
582.3961040102863
 20
66.18729268040795
 10
582.4530097581783
 20
66.37488579075693
  0
TEXT
  5
3D
330
17
100
AcDbEntity
  8
LABELS_NOT_CUT
100
AcDbText
 10
585.1774179062223
 20
53.768092652635545
 30
0.0
 40
2.0
  1
A34
100
AcDbText
  0
LWPOLYLINE
  5
3E
330
17
100
AcDbEntity
  8
CUT
100
AcDbPolyline
 90
300
 70
1
 10
53.665004076328955
 20
86.5131504864894
 10
54.53094283183498
 20
86.4755415819294
 10
54.82416165640859
 20
86.46745379539277
 10
54.824161656407796
 20
93.89386943936736
 10
60.82416165640848
 20
93.89386943921977
 10
60.824161662715596
 20
86.49358554277927
 10
61.26169331529002
 20
86.51060049034942
 10
62.12490399969295
 20
86.5577831598994
 10
62.98716070527496
 20
86.6185383679994
 10
63.84820579823895
 20
86.6928479616094
 10
64.70778200681002
 20
86.78068973773941
 10
65.56563249809699
 20
86.88203745013942
 10
66.42150095483998
 20
86.9968608171094
 10
67.27513165198798
 20
87.12512553055942
 10
68.12626953311303
 20
87.26679326626942
 10
68.97466028661495
 20
87.4218216953094
 10
69.82005042170795
 20
87.59016449671941
 10
70.662187344161
 20
87.7717713713194
 10
71.50081943177202
 20
87.96658805678942
 10
72.33569610954896
 20
88.1745563437994
 10
73.166567924579
 20
88.3956140934994
 10
73.99318662056203
 20
88.6296952560094
 10
74.81530521198897
 20
88.8767298901794
 10
75.632678057936
 20
89.13664418450941
 10
76.44506093546306
 20
89.4093604791594
 10
77.25221111258304
 20
89.69479728919941
 10
78.05388742078696
 20
89.9928693289394
 10
78.84985032710495
 20
90.30348753736939
 10
79.63986200567399
 20
90.62655910485941
 10
80.42368640880204
 20
90.96198750079941
 10
81.201089337491
 20
91.3096725024894
 10
81.97183851141597
 20
91.6695102250994
 10
82.73570363833096
 20
92.04139315264939
 10
83.49245648287206
 20
92.4252101702094
 10
84.241870934757
 20
92.8208465970194
 10
84.98372307634395
 20
93.22818422083941
 10
85.71779124953196
 20
93.6471013331994
 10
86.44385612199403
 20
94.07747276578942
 10
87.16170075271202
 20
94.51916992788941
 10
87.87111065679403
 20
94.97206084473942
 10
88.571873869559
 20
95.4360101969994
 10
89.26378100987495
 20
95.91087936118942
 10
89.94662534271606
 20
96.39652645107941
 10
90.62020284093398
 20
96.8928063601094
 10
91.28431224621795
 20
97.3995708047494
 10
91.93875512923205
 20
97.9166683687794
 10
92.58333594889996
 20
98.44394454854941
 10
93.21786211083304
 20
98.9812417991294
 10
93.84214402487498
 20
99.5283995814294
 10
94.45599516175196
 20
100.08525441007941
 10
95.05923210879996
 20
100.65163990235942
 10
95.651674624772
 20
101.2273868278794
 10
96.23314569368995
 20
101.81232315912942
 10
96.80347157773701
 20
102.4062741229094
 10
97.362481869166
 20
103.00906225252942
 10
97.91000954121898
 20
103.6205074408494
 10
98.44589099803
 20
104.2404269940794
 10
98.96996612350699
 20
104.8686356863694
 10
99.48207832917501
 20
105.5049458151694
 10
99.98207460095898
 20
106.1491672572894
 10
100.46980554490699
 20
106.8011075257094
 10
100.94512543182702
 20
107.4605718271294
 10
101.40789224082596
 20
108.1273631200994
 10
101.85796770174795
 20
108.80128217398942
 10
102.29521733648596
 20
109.48212762840942
 10
102.71951049916504
 20
110.16969605346941
 10
103.13072041517398
 20
110.86378201049939
 10
103.52872421904794
 20
111.56417811347941
 10
103.91340299117701
 20
112.2706750909594
 10
104.28490222324695
 20
112.98292954716942
 10
104.44757336234693
 20
113.3151603464994
 10
104.60039671339496
 20
113.65203454707941
 10
104.74323988964898
 20
113.99326032388942
 10
104.87597914992296
 20
114.3385420822394
 10
104.99849950577902
 20
114.68758071387941
 10
105.11069482114101
 20
115.04007385604541
 10
105.21246790423697
 20
115.39571615346739
 10
105.30373059179203
 20
115.7541995228164
 10
105.38440382540398
 20
116.11521341962941
 10
105.45441772002903
 20
116.4784451073144
 10
105.51371162452006
 20
116.84357992806741
 10
105.56223417417004
 20
117.21030157545141
 10
105.59994333520297
 20
117.57829236840541
 10
105.62680644119098
 20
117.94723352644141
 10
105.64280022135097
 20
118.31680544579442
 10
105.64726706878798
 20
118.68668695822743
 10
105.64420423804097
 20
120.0406933829284
 10
95.64422982226597
 20
120.0180729391314
 10
95.63291959924004
 20
125.01806017235842
 10
105.63289401500799
 20
125.0406806158264
 10
105.63255661616199
 20
125.18983770243841
 10
105.39088492800204
 20
126.0236859492874
 10
105.12460034746698
 20
126.8670832091384
 10
104.83387608669102
 20
127.71930573434543
 10
104.51888535780995
 20
128.57962977726442
 10
104.17980137295694
 20
129.4473315902484
 10
103.816797344267
 20
130.3216874256524
 10
103.43004648387296
 20
131.20197353583342
 10
103.01972200391106
 20
132.0874661731434
 10
102.58605362972298
 20
132.9774253450654
 10
102.12949713949206
 20
133.8710460795894
 10
101.65056482460602
 20
134.76750715983042
 10
101.149768976455
 20
135.66598736890643
 10
100.62762188643103
 20
136.5656654899334
 10
100.08463584592198
 20
137.4657203060284
 10
99.52132314632001
 20
138.36533060030638
 10
98.93819607901298
 20
139.2636751558864
 10
98.33577565749397
 20
140.15993179245243
 10
97.71461778365597
 20
141.05327447597745
 10
97.07528708149596
 20
141.94287620900138
 10
96.41834817501103
 20
142.8279099940654
 10
95.74436568819499
 20
143.7075488337104
 10
95.05390424504503
 20
144.5809657304764
 10
94.34752846955598
 20
145.44733368690538
 10
93.62580298572595
 20
146.30582570553838
 10
92.88912776868096
 20
147.1557714557394
 10
92.13724419807897
 20
147.99712727416238
 10
91.369729004708
 20
148.83000616428643
 10
90.58615891935801
 20
149.6545211295894
 10
89.78722457370895
 20
150.46971676268942
 10
88.97807220300899
 20
151.27036401276342
 10
88.16225878080604
 20
152.0527095320594
 10
87.33252863028406
 20
152.8231764285344
 10
86.48232471853703
 20
153.58756186846938
 10
85.61869723866596
 20
154.3389827957384
 10
84.75015775510303
 20
155.06932862912743
 10
83.877456091623
 20
155.77825890949043
 10
82.99926927933996
 20
156.4673031214594
 10
82.11374491941001
 20
157.1377004026944
 10
81.21889825549704
 20
157.7906173041144
 10
80.31274453126503
 20
158.42722037663742
 10
79.39496650973206
 20
159.04755374267341
 10
78.47191703131796
 20
159.6471718106044
 10
77.54884708780799
 20
160.22225553437642
 10
76.61993019901001
 20
160.7759817642384
 10
75.67994919416196
 20
161.3113451332784
 10
74.73720161217102
 20
161.8236155096344
 10
73.79908651513801
 20
162.30833543996937
 10
72.85589434828694
 20
162.76986294998642
 10
71.89840319979498
 20
163.21243524281238
 10
70.936450346544
 20
163.6309907522454
 10
69.98141473474402
 20
164.0197336807904
 10
69.03178279920303
 20
164.3792300751154
 10
68.08433141207104
 20
164.7110703962644
 10
67.141891706264
 20
165.01458091859638
 10
66.205977246972
 20
165.2891955954414
 10
65.26677706772796
 20
165.53704328268736
 10
64.31616697075299
 20
165.7597845286594
 10
63.364094364675
 20
165.95451174888342
 10
62.42201095342398
 20
166.11801899603643
 10
61.489314015742025
 20
166.2504750041864
 10
60.56306528548794
 20
166.3527023519244
 10
59.643038742190015
 20
166.42476431452639
 10
58.72968642679302
 20
166.4665343414394
 10
57.82345496936057
 20
166.47788585873042
 10
56.80736655082296
 20
166.45455623015943
 10
55.77833596641494
 20
166.39210991188338
 10
54.73305285890399
 20
166.2899409746654
 10
53.694689728920025
 20
166.15229092316542
 10
52.68362579275902
 20
165.9833352224694
 10
51.682584271515
 20
165.78213774546242
 10
50.66596212444199
 20
165.54522322139042
 10
49.642293698456
 20
165.2737500738374
 10
48.68750908730999
 20
164.9912747267074
 10
47.72897405236995
 20
164.67959088136342
 10
46.76582802223004
 20
164.33853099088742
 10
45.80065271107003
 20
163.96859769603742
 10
44.83018366211002
 20
163.5688609882094
 10
43.857329674569996
 20
163.14077051785637
 10
42.880042520610004
 20
162.6830441814464
 10
41.89900494285996
 20
162.1961093468234
 10
40.978749195430055
 20
161.71452256496542
 10
40.05859538560003
 20
161.20894989110639
 10
39.13161406551001
 20
160.6750355341244
 10
38.218593578739956
 20
160.12584686738342
 10
37.333419882079966
 20
159.57091652021342
 10
36.459025055749976
 20
158.9997432736444
 10
35.57906361026994
 20
158.4024953154094
 10
34.711033653989944
 20
157.7920523083764
 10
33.873174392219994
 20
157.18156753839042
 10
33.052845820320044
 20
156.5625773080764
 10
32.23410048769995
 20
155.9242494937314
 10
31.41864036994002
 20
155.2678952495594
 10
30.610877823570036
 20
154.59655039504037
 10
29.80841730282998
 20
153.9080061328234
 10
29.009556832139992
 20
153.20095130870442
 10
28.22217661901999
 20
152.48290995786942
 10
27.453270878199987
 20
151.76057266084638
 10
26.69670767012002
 20
151.02846099012743
 10
25.94553809518999
 20
150.28036042363442
 10
25.20267156801998
 20
149.51928106904842
 10
24.472540175000006
 20
148.74965800370444
 10
23.75580837570999
 20
147.9724015538144
 10
23.05219872299
 20
147.1875408578074
 10
22.361433769659982
 20
146.3951050541114
 10
21.683267506469974
 20
145.5950811186284
 10
21.017579675700006
 20
144.78728737715937
 10
20.364281457530012
 20
143.97149999297642
 10
19.723284032139986
 20
143.1474951293534
 10
19.095205749479987
 20
142.3161122787464
 10
18.48349363858
 20
141.4824442503384
 10
17.889546947789995
 20
140.6484235691234
 10
17.303745123780004
 20
139.7990883066064
 10
16.718687775460012
 20
138.9228405400334
 10
16.146874962539982
 20
138.03843282309742
 10
15.599791682170007
 20
137.16250016638742
 10
15.064962230570018
 20
136.2728569316024
 10
14.530535785009988
 20
135.3489573725774
 10
14.01112174796998
 20
134.41563596056642
 10
13.521520591209992
 20
133.4971745859724
 10
13.050836838380008
 20
132.5702645983544
 10
12.587538651970021
 20
131.6113045047704
 10
12.143244697680018
 20
130.6431119831104
 10
11.730412117939977
 20
129.6893029858634
 10
11.34170145874998
 20
128.7302673930934
 10
10.969013323709987
 20
127.74565387170941
 10
10.621005143180014
 20
126.75537230843639
 10
10.307668745989986
 20
125.78273674124642
 10
10.027576727979977
 20
124.82441659364045
 10
19.988664192719966
 20
124.84694907286638
 10
19.999974415759993
 20
119.84696183997741
 10
10.0
 20
119.8243413961724
 10
10.002992729380026
 20
118.22087771737142
 10
10.009726658350019
 20
117.8523774011494
 10
10.027263086189976
 20
117.48423299667141
 10
10.055586931560015
 20
117.11676110846841
 10
10.09467383594
 20
116.75027776270542
 10
10.144490184530014
 20
116.38509813540242
 10
10.204993135249993
 20
116.0215362813764
 10
10.276130655489965
 20
115.6599048641624
 10
10.357841566920001
 20
115.30051488711541
 10
10.450055598089989
 20
114.9436754259504
 10
10.55269344482997
 20
114.58969336293941
 10
10.665666838509992
 20
114.23887312297941
 10
10.788878621889978
 20
113.89151641179942
 10
10.922222832739976
 20
113.54792195650941
 10
11.065584794910023
 20
113.20838524864939
 10
11.21884121697002
 20
112.8731982901094
 10
11.382116622390015
 20
112.54278046223942
 10
11.755322974439991
 20
111.83167286858941
 10
12.14195924626
 20
111.1268494114594
 10
12.541892941959986
 20
110.4284895712394
 10
12.954991565589978
 20
109.73677282835939
 10
13.381122621259976
 20
109.0518786631894
 10
13.820153613020011
 20
108.37398655615942
 10
14.271952044980026
 20
107.70327598764942
 10
14.736385421199998
 20
107.03992643807942
 10
15.213321245759971
 20
106.38411738783941
 10
15.702627022749994
 20
105.73602831732941
 10
16.204170256249995
 20
105.0958387069594
 10
16.71781845034002
 20
104.46372803712941
 10
17.24343910908999
 20
103.8398757882394
 10
17.780899736590015
 20
103.22446144068942
 10
18.33006783691002
 20
102.6176644748794
 10
18.89081091413999
 20
102.01966437121942
 10
19.462985750450002
 20
101.4306374423494
 10
20.046406240370004
 20
100.85074732990941
 10
20.640875556519973
 20
100.28015450775942
 10
21.24619687152
 20
99.71901944977941
 10
21.862173358000007
 20
99.16750262984942
 10
22.488608188579974
 20
98.62576452183941
 10
23.12530453587999
 20
98.0939655996294
 10
23.772065572529982
 20
97.57226633708942
 10
24.428694471139977
 20
97.06082720808942
 10
25.094994404340014
 20
96.5598086865094
 10
25.770768544750013
 20
96.06937124622942
 10
26.455820064990007
 20
95.58967536111942
 10
27.149952137679975
 20
95.1208815050594
 10
27.852967935460015
 20
94.6631501519094
 10
28.56467063092998
 20
94.21664177555942
 10
29.284863396729975
 20
93.7815168498694
 10
30.01334193238995
 20
93.3579256341394
 10
30.749872045140023
 20
92.9459775292494
 10
31.49421206910995
 20
92.5457717215094
 10
32.246120338430046
 20
92.1574073972094
 10
33.005355187259966
 20
91.7809837426694
 10
33.77167494973003
 20
91.4165999441694
 10
34.54483795996998
 20
91.06435518801942
 10
35.324602552130045
 20
90.72434866052942
 10
36.11072706033997
 20
90.39667954799941
 10
36.902969818749966
 20
90.08144703670939
 10
37.70108916149002
 20
89.77875031298942
 10
38.50484342268999
 20
89.48868856311941
 10
39.31399093650998
 20
89.2113609734094
 10
40.12829003707998
 20
88.9468667301594
 10
40.94749905852996
 20
88.69530501967941
 10
41.77137633501002
 20
88.45677502824941
 10
42.59968184494994
 20
88.2313657091394
 10
43.432182144039984
 20
88.01912508338941
 10
44.268645432239964
 20
87.82009093898941
 10
45.10883990951993
 20
87.6343010639394
 10
45.95253377586005
 20
87.46179324623941
 10
46.79949523124003
 20
87.3026052738694
 10
47.649492475620036
 20
87.1567749348394
 10
48.50229370898501
 20
87.02434001712942
 10
49.357667131306016
 20
86.9053383087494
 10
50.21538094255595
 20
86.7998075976794
 10
51.07520334270998
 20
86.7077856719294
 10
51.936902531739975
 20
86.6293103194794
 10
52.800246709622
 20
86.5644193283394
  0
LWPOLYLINE
  5
3F
330
17
100
AcDbEntity
  8
CUT
100
AcDbPolyline
 90
105
 70
1
 10
78.82468407291003
 20
99.41557236023942
 10
77.99090094436997
 20
99.0023887920994
 10
37.482407657049976
 20
98.9107565337194
 10
36.66148991949001
 20
99.31495484516941
 10
35.85099692898996
 20
99.73613058582941
 10
35.05135002145994
 20
100.17406480688942
 10
34.262964894449965
 20
100.62852984765942
 10
33.48625139106002
 20
101.0992894538494
 10
32.72161328689003
 20
101.58609890042942
 10
31.96944808010005
 20
102.08870511882941
 10
31.230146784830026
 20
102.60684682850942
 10
30.50409372787999
 20
103.14025467278941
 10
29.791666348939998
 20
103.6886513588494
 10
29.093235004359997
 20
104.2517518019294
 10
28.409162774649985
 20
104.8292632734694
 10
27.73980527571001
 20
105.42088555333942
 10
27.08551047395997
 20
106.0263110858694
 10
26.44661850545998
 20
106.64522513975942
 10
25.823461498949996
 20
107.2773059715594
 10
25.82346149821001
 20
136.75106257769244
 10
26.64997376463998
 20
137.88127060775741
 10
27.501664986679998
 20
138.9955517941774
 10
28.38161227155001
 20
140.0971567356034
 10
29.292892726459968
 20
141.18933603068643
 10
30.23627104779996
 20
142.27260032573543
 10
31.20326228867998
 20
143.3365004577064
 10
32.18650023730004
 20
144.3717342782524
 10
33.19234326547996
 20
145.38454750718438
 10
34.226398572169956
 20
146.38081926253244
 10
35.27754408110002
 20
147.34941438703942
 10
36.33407134838001
 20
148.27851253000938
 10
37.39865573467
 20
149.17056684227043
 10
38.47668679198
 20
150.0305828159984
 10
39.57002703300998
 20
150.8595018072574
 10
40.677503387919955
 20
151.6560398916634
 10
41.78932749601995
 20
152.41407615915944
 10
42.89633489764003
 20
153.12798081740243
 10
44.00047202788005
 20
153.7989255305714
 10
45.10384388526995
 20
154.42839246125942
 10
46.198078827159975
 20
155.01230430919645
 10
47.275626609089954
 20
155.54671687669241
 10
48.34269922053397
 20
156.0337778392584
 10
49.40352190751594
 20
156.4753977910014
 10
50.44061070822295
 20
156.8664471272014
 10
51.439249796176
 20
157.20268290441743
 10
51.92928408386899
 20
157.3520627578714
 10
52.417505094028
 20
157.4904490231334
 10
53.39214395219494
 20
157.73626524766644
 10
54.34195768302004
 20
157.93676795373142
 10
54.79910888829602
 20
158.01845118994743
 10
55.245430433210004
 20
158.08810446936042
 10
56.117793725019055
 20
158.1943493204564
 10
56.97803962100102
 20
158.26021298231143
 10
57.403109829594996
 20
158.2778756938274
 10
57.82346038027356
 20
158.28502255326242
 10
58.24305811184797
 20
158.28151521781945
 10
58.6674159419
 20
158.2675616935794
 10
59.526115168930005
 20
158.20934209183338
 10
60.39669357569403
 20
158.11104775677842
 10
60.842345473173054
 20
158.0454617962074
 10
61.29920256188893
 20
157.96789062714538
 10
62.249883411137034
 20
157.7756517680724
 10
63.22682105738204
 20
157.5378608203414
 10
63.716470869045
 20
157.4033123396444
 10
64.20787424817001
 20
157.2577498182414
 10
65.20815333511905
 20
156.9296117944624
 10
66.24466000230404
 20
156.54775743784342
 10
67.30470965954703
 20
156.1155070634274
 10
68.37243364650499
 20
155.63726181963642
 10
69.44891329643895
 20
155.11273656221238
 10
70.53804650370603
 20
154.54094010596242
 10
71.638047413447
 20
153.9227433946354
 10
72.745709233502
 20
153.2594829042144
 10
73.85782517171003
 20
152.5524951106824
 10
74.97044216188203
 20
151.80371234994038
 10
76.07662204173096
 20
151.01745039755144
 10
77.16985795281596
 20
150.19798040874844
 10
78.24835334819898
 20
149.3470116177624
 10
79.31278300386998
 20
148.4643312830114
 10
80.36899667601506
 20
147.5446006806594
 10
81.42028932128801
 20
146.5849400234054
 10
82.45456171800197
 20
145.5974312523574
 10
83.46024412363204
 20
144.59349748020338
 10
84.44327889064493
 20
143.56696477753144
 10
85.41040440942402
 20
142.51127132485442
 10
86.35403112703204
 20
141.4359007844664
 10
87.265383477971
 20
140.35153666165343
 10
88.14526978982701
 20
139.2576163518794
 10
88.996894363455
 20
138.1507657231544
 10
89.82346149894397
 20
137.02761064420042
 10
89.82346149879004
 20
107.55388584898941
 10
89.19202334909801
 20
106.9081409365094
 10
88.54443905472101
 20
106.2757753905594
 10
87.88105415484301
 20
105.6571266298894
 10
87.20222261955905
 20
105.0525247541994
 10
86.50830666100899
 20
104.46229236803941
 10
85.79967654010704
 20
103.8867444086494
 10
85.076710368975
 20
103.32618797794942
 10
84.33979390919
 20
102.78092217861942
 10
83.58932036595002
 20
102.2512379545694
 10
82.82569017826404
 20
101.7374179356394
 10
82.049310805289
 20
101.23973628684939
 10
81.26059650891398
 20
100.75845856203941
 10
80.459968132717
 20
100.29384156224941
 10
79.64785287741404
 20
99.8461331986394
  0
LWPOLYLINE
  5
40
330
17
100
AcDbEntity
  8
CUT
100
AcDbPolyline
 90
39
 70
1
 10
39.32414542837
 20
154.85091803860644
 10
39.304720822326885
 20
155.09153495989307
 10
39.24695009129073
 20
155.32592002930863
 10
39.15232946684978
 20
155.54800279667205
 10
39.02330957347522
 20
155.75203143496338
 10
38.8632319586344
 20
155.93272170962211
 10
38.67624254846669
 20
156.08539383744687
 10
38.467184270474604
 20
156.20609369052198
 10
38.241471624244696
 20
156.29169520605348
 10
38.00495044875299
 20
156.3399813497535
 10
37.763746518205835
 20
156.34970153586374
 10
37.5241068877059
 20
156.3206040166698
 10
37.29223809780615
 20
156.2534424026345
 10
37.07414542837
 20
156.14995614428307
 10
36.87547736497697
 20
156.01282548134787
 10
36.70137930611338
 20
155.8456020259676
 10
36.55636030005428
 20
155.65261677779813
 10
36.4441762628818
 20
155.43886795339654
 10
36.36773270223091
 20
155.20989153503774
 10
36.32900946616871
 20
154.9716178916815
 10
36.32900946616871
 20
154.73021818553133
 10
36.36773270223091
 20
154.49194454217508
 10
36.4441762628818
 20
154.26296812381628
 10
36.55636030005428
 20
154.0492192994147
 10
36.70137930611338
 20
153.85623405124522
 10
36.87547736497697
 20
153.68901059586494
 10
37.07414542837
 20
153.55187993292975
 10
37.29223809780615
 20
153.44839367457826
 10
37.5241068877059
 20
153.38123206054303
 10
37.763746518205835
 20
153.35213454134907
 10
38.00495044875299
 20
153.36185472745933
 10
38.241471624244696
 20
153.41014087115934
 10
38.467184270474604
 20
153.49574238669084
 10
38.67624254846669
 20
153.61644223976595
 10
38.8632319586344
 20
153.7691143675907
 10
39.02330957347522
 20
153.94980464224943
 10
39.15232946684978
 20
154.15383328054077
 10
39.24695009129073
 20
154.37591604790418
 10
39.304720822326885
 20
154.61030111731975
  0
LWPOLYLINE
  5
41
330
17
100
AcDbEntity
  8
CUT
100
AcDbPolyline
 90
39
 70
1
 10
79.32414602441202
 20
154.8509180219914
 10
79.3047214183689
 20
155.09153494327802
 10
79.24695068733274
 20
155.3259200126936
 10
79.15233006289179
 20
155.54800278005706
 10
79.02331016951723
 20
155.75203141834834
 10
78.86323255467642
 20
155.93272169300712
 10
78.6762431445087
 20
156.08539382083188
 10
78.46718486651662
 20
156.206093673907
 10
78.24147222028671
 20
156.29169518943843
 10
78.004951044795
 20
156.3399813331385
 10
77.76374711424785
 20
156.34970151924875
 10
77.52410748374791
 20
156.3206040000548
 10
77.29223869384816
 20
156.25344238601951
 10
77.07414602441202
 20
156.14995612766808
 10
76.87547796101887
 20
156.01282546473288
 10
76.7013799021554
 20
155.8456020093526
 10
76.5563608960963
 20
155.65261676118314
 10
76.44417685892381
 20
155.43886793678155
 10
76.36773329827292
 20
155.20989151842275
 10
76.32901006221073
 20
154.9716178750665
 10
76.32901006221073
 20
154.73021816891628
 10
76.36773329827292
 20
154.4919445255601
 10
76.44417685892381
 20
154.2629681072013
 10
76.5563608960963
 20
154.0492192827997
 10
76.7013799021554
 20
153.85623403463023
 10
76.87547796101887
 20
153.68901057924995
 10
77.07414602441202
 20
153.55187991631476
 10
77.29223869384816
 20
153.44839365796327
 10
77.52410748374791
 20
153.38123204392798
 10
77.76374711424785
 20
153.35213452473408
 10
78.004951044795
 20
153.36185471084434
 10
78.24147222028671
 20
153.41014085454435
 10
78.46718486651662
 20
153.49574237007585
 10
78.6762431445087
 20
153.6164422231509
 10
78.86323255467642
 20
153.76911435097566
 10
79.02331016951723
 20
153.94980462563444
 10
79.15233006289179
 20
154.15383326392578
 10
79.24695068733274
 20
154.3759160312892
 10
79.3047214183689
 20
154.61030110070476
  0
TEXT
  5
42
330
17
100
AcDbEntity
  8
LABELS_NOT_CUT
100
AcDbText
 10
97.54941964804247
 20
126.3895291288619
 30
0.0
 40
2.0
  1
A04
100
AcDbText
  0
LWPOLYLINE
  5
43
330
17
100
AcDbEntity
  8
CUT
100
AcDbPolyline
 90
531
 70
1
 10
214.8253380115408
 20
93.49096947054477
 10
216.2923948243207
 20
93.19161145990577
 10
220.19738360485087
 20
92.37342786887177
 10
224.04118958142078
 20
91.54007381786877
 10
224.04118958142078
 20
88.54007381786877
 10
220.19738360485087
 20
89.37342786887177
 10
216.2923948243207
 20
90.19161145990577
 10
214.8253380115408
 20
90.49096947054477
 10
212.97718848148077
 20
90.86228722043278
 10
210.2859811039708
 20
91.39108526836677
 10
209.64048372819764
 20
91.51436001398025
 10
186.29187517793082
 20
91.47266889498577
 10
181.34618099109082
 20
86.51407116844577
 10
181.34618816603086
 20
86.50543216873977
 10
169.5949200937008
 20
86.49567240289878
 10
169.5847008393108
 20
98.80018881553832
 10
146.78470870277272
 20
98.78125268171976
 10
146.79492795726867
 20
86.47673635420577
 10
135.61824208316682
 20
86.46745379539277
 10
130.51699753319383
 20
91.43833033284477
 10
128.00776919447674
 20
91.48508714742476
 10
125.39300651316978
 20
91.55435387032978
 10
122.38856953049788
 20
91.66447253643678
 10
121.15519654742354
 20
91.7244218992261
 10
121.13485573090622
 20
91.707504620703
 10
121.09768767893331
 20
91.67713704849623
 10
121.06025603850901
 20
91.6470949809185
 10
121.02256366019776
 20
91.61738070578956
 10
120.9846134144201
 20
91.58799648596653
 10
120.9464081912339
 20
91.55894455917151
 10
120.90795090011522
 20
91.53022713782119
 10
120.86924446973569
 20
91.50184640885838
 10
120.83029184773943
 20
91.47380453358552
 10
120.79109600051981
 20
91.44610364749994
 10
120.75165991299207
 20
91.41874586013137
 10
120.71198658836704
 20
91.39173325488123
 10
120.67207904792224
 20
91.36506788886402
 10
120.63194033077082
 20
91.33875179275059
 10
120.59157349363215
 20
91.31278697061353
 10
120.55098161059675
 20
91.28717539977458
 10
120.51016777289385
 20
91.26191903065404
 10
120.46913508865498
 20
91.23701978662218
 10
120.42788668267815
 20
91.21247956385284
 10
120.38642569618912
 20
91.188300231179
 10
120.34475528660244
 20
91.16448362995045
 10
120.3028786272813
 20
91.14103157389359
 10
120.26079890729545
 20
91.11794584897328
 10
120.21851933117807
 20
91.09522821325685
 10
120.17604311868297
 20
91.07288039678022
 10
120.13337350453833
 20
91.05090410141614
 10
120.0905137382
 20
91.0293010007446
 10
120.04746708360528
 20
91.00807273992532
 10
120.00423681892391
 20
90.98722093557258
 10
119.96082623630753
 20
90.96674717563201
 10
119.91723864164021
 20
90.94665301925967
 10
119.87347735428614
 20
90.9269399967034
 10
119.82954570683648
 20
90.90760960918618
 10
119.7854470448566
 20
90.88866332879185
 10
119.7411847266302
 20
90.87010259835301
 10
119.69676212290426
 20
90.85192883134117
 10
119.65218261663188
 20
90.83414341175903
 10
119.60744960271529
 20
90.81674769403516
 10
119.5625664877465
 20
90.7997430029208
 10
119.51753668974845
 20
90.78313063338904
 10
119.47236363791478
 20
90.76691185053612
 10
119.42705077234825
 20
90.75108788948513
 10
119.38160154379887
 20
90.73565995529201
 10
119.33601941340146
 20
90.72062922285366
 10
119.29030785241196
 20
90.70599683681854
 10
119.24447034194225
 20
90.6917639114995
 10
119.19851037269643
 20
90.67793153078892
 10
119.15243144470412
 20
90.66450074807615
 10
119.10623706705394
 20
90.65147258616729
 10
119.05993075762706
 20
90.63884803720728
 10
119.01351604282775
 20
90.62662806260444
 10
118.96699645731621
 20
90.61481359295712
 10
118.9203755437394
 20
90.60340552798296
 10
118.87365685246016
 20
90.59240473645023
 10
118.82684394128762
 20
90.58181205611183
 10
118.77994037520637
 20
90.57162829364137
 10
118.7329497261045
 20
90.56185422457177
 10
118.68587557250169
 20
90.55249059323627
 10
118.63872149927727
 20
90.54353811271163
 10
118.59149109739644
 20
90.53499746476389
 10
118.544187963637
 20
90.52686929979649
 10
118.49681570031578
 20
90.51915423680062
 10
118.44937791501422
 20
90.51185286330822
 10
118.40187822030327
 20
90.50496573534716
 10
118.35432023346823
 20
90.49849337739889
 10
118.30670757623454
 20
90.49243628235851
 10
118.25904387448975
 20
90.48679491149728
 10
118.21133275800992
 20
90.48156969442742
 10
118.16357786018068
 20
90.47676102906945
 10
118.11578281772279
 20
90.47236928162185
 10
118.06795127041357
 20
90.4683947865332
 10
118.0200868608107
 20
90.46483784647666
 10
117.97219323397428
 20
90.46169873232702
 10
117.92427403718932
 20
90.45897768313995
 10
117.87633291968802
 20
90.45667490613391
 10
117.82837353237267
 20
90.45479057667426
 10
117.78039952753568
 20
90.45332483825999
 10
117.7324145585834
 20
90.45227780251275
 10
117.68442227975731
 20
90.45164954916838
 10
117.63642634585483
 20
90.4514401260708
 10
117.58843041195234
 20
90.45164954916838
 10
117.54043813312626
 20
90.45227780251275
 10
117.49245316417398
 20
90.45332483825999
 10
117.44447915933699
 20
90.45479057667426
 10
117.3965197720214
 20
90.45667490613391
 10
117.34857865452034
 20
90.45897768313995
 10
117.30065945773538
 20
90.46169873232702
 10
117.25276583089897
 20
90.46483784647666
 10
117.20490142129609
 20
90.4683947865332
 10
117.15706987398687
 20
90.47236928162185
 10
117.10927483152898
 20
90.47676102906945
 10
117.06151993369974
 20
90.48156969442742
 10
117.01380881721991
 20
90.48679491149728
 10
116.96614511547511
 20
90.49243628235851
 10
116.9185324582412
 20
90.49849337739889
 10
116.87097447140638
 20
90.50496573534716
 10
116.82347477669543
 20
90.51185286330822
 10
116.77603699139365
 20
90.51915423680062
 10
116.72866472807266
 20
90.52686929979649
 10
116.68136159431322
 20
90.53499746476389
 10
116.63413119243239
 20
90.54353811271163
 10
116.58697711920797
 20
90.55249059323627
 10
116.53990296560517
 20
90.56185422457177
 10
116.4929123165033
 20
90.57162829364137
 10
116.44600875042204
 20
90.58181205611183
 10
116.3991958392495
 20
90.59240473645023
 10
116.35247714797026
 20
90.60340552798296
 10
116.30585623439345
 20
90.61481359295712
 10
116.25933664888191
 20
90.62662806260444
 10
116.2129219340826
 20
90.63884803720728
 10
116.16661562465549
 20
90.65147258616729
 10
116.12042124700554
 20
90.66450074807615
 10
116.07434231901323
 20
90.67793153078892
 10
116.02838234976741
 20
90.6917639114995
 10
115.9825448392977
 20
90.70599683681854
 10
115.93683327830797
 20
90.72062922285366
 10
115.8912511479108
 20
90.73565995529201
 10
115.8458019193614
 20
90.75108788948513
 10
115.80048905379488
 20
90.76691185053612
 10
115.7553160019612
 20
90.78313063338904
 10
115.71028620396316
 20
90.7997430029208
 10
115.66540308899437
 20
90.81674769403516
 10
115.62067007507778
 20
90.83414341175903
 10
115.5760905688054
 20
90.85192883134117
 10
115.53166796507946
 20
90.87010259835301
 10
115.48740564685306
 20
90.88866332879185
 10
115.44330698487317
 20
90.90760960918618
 10
115.39937533742352
 20
90.9269399967034
 10
115.35561405006945
 20
90.94665301925967
 10
115.31202645540213
 20
90.966747175632
 10
115.26861587278574
 20
90.98722093557258
 10
115.22538560810415
 20
91.00807273992532
 10
115.18233895350966
 20
91.0293010007446
 10
115.13947918717133
 20
91.05090410141614
 10
115.09680957302669
 20
91.07288039678022
 10
115.05433336053159
 20
91.09522821325685
 10
115.0120537844142
 20
91.11794584897328
 10
114.96997406442836
 20
91.14103157389359
 10
114.928097405107
 20
91.16448362995045
 10
114.88642699552054
 20
91.188300231179
 10
114.84496600903151
 20
91.21247956385284
 10
114.80371760305468
 20
91.23701978662218
 10
114.76268491881581
 20
91.26191903065404
 10
114.72187108111291
 20
91.28717539977458
 10
114.6812791980775
 20
91.31278697061353
 10
114.64091236093861
 20
91.33875179275059
 10
114.60077364378742
 20
91.36506788886402
 10
114.56086610334262
 20
91.39173325488123
 10
114.52119277871759
 20
91.41874586013137
 10
114.48175669118984
 20
91.44610364749994
 10
114.44256084397023
 20
91.47380453358552
 10
114.40360822197397
 20
91.50184640885838
 10
114.36490179159443
 20
91.53022713782119
 10
114.32644450047576
 20
91.55894455917151
 10
114.28823927728956
 20
91.58799648596653
 10
114.2502890315119
 20
91.61738070578956
 10
114.21259665320065
 20
91.6470949809185
 10
114.17516501277635
 20
91.67713704849623
 10
114.13799696080343
 20
91.707504620703
 10
114.1010953277729
 20
91.73819538493063
 10
114.06446292388694
 20
91.7692070039586
 10
114.02810253884502
 20
91.80053711613203
 10
113.99201694163128
 20
91.8321833355416
 10
113.9562088803035
 20
91.86414325220517
 10
113.92068108178421
 20
91.89641443225133
 10
113.885436251653
 20
91.92899441810482
 10
113.85047707393994
 20
91.96188072867353
 10
113.81580621092178
 20
91.99507085953763
 10
113.78142630291893
 20
92.02856228314013
 10
113.7473399680947
 20
92.06235244897945
 10
113.71354980225544
 20
92.09643878380366
 10
113.68005837865292
 20
92.13081869180637
 10
113.6468682477888
 20
92.16548955482449
 10
113.61398193722005
 20
92.20044873253757
 10
113.58204600046372
 20
92.234996834281
 10
112.56011132631477
 20
92.32796225851077
 10
111.70114721261268
 20
92.42382621849777
 10
110.85806529614877
 20
92.53460579719977
 10
110.64726706878798
 20
92.56869912638452
 10
110.64726706878798
 20
95.56869912638452
 10
110.92046897432976
 20
95.70055936216377
 10
111.75690513991378
 20
96.06904172660077
 10
112.14323792432276
 20
96.22414544417653
 10
112.14396520225534
 20
96.23928651807392
 10
112.14668625144247
 20
96.28720571485891
 10
112.14982536559194
 20
96.3350993416954
 10
112.1533823056485
 20
96.38296375129826
 10
112.15735680073715
 20
96.4307952986074
 10
112.16174854818485
 20
96.47859034106533
 10
112.16655721354266
 20
96.52634523889446
 10
112.17178243061255
 20
96.57405635537448
 10
112.17742380147376
 20
96.62172005711913
 10
112.1834808965142
 20
96.66933271435299
 10
112.18995325446247
 20
96.71689070118788
 10
112.1968403824236
 20
96.76439039589894
 10
112.20414175591588
 20
96.81182818120055
 10
112.21185681891177
 20
96.85920044452169
 10
112.21998498387927
 20
96.90650357828108
 10
112.22852563182698
 20
96.95373398016196
 10
112.2374781123516
 20
97.00088805338638
 10
112.24684174368701
 20
97.04796220698907
 10
112.25661581275665
 20
97.09495285609098
 10
112.26679957522708
 20
97.14185642217228
 10
112.27739225556559
 20
97.18866933334479
 10
112.28839304709834
 20
97.23538802462409
 10
112.29980111207249
 20
97.28200893820096
 10
112.31161558171982
 20
97.32852852371232
 10
112.3238355563227
 20
97.37494323851165
 10
112.33646010528253
 20
97.4212495479387
 10
112.34948826719153
 20
97.46744392558873
 10
112.36291904990424
 20
97.51352285358102
 10
112.37675143061495
 20
97.55948282282682
 10
112.39098435593394
 20
97.60532033329652
 10
112.40561674196908
 20
97.65103189428623
 10
112.42064747440725
 20
97.69661402468361
 10
112.43607540860046
 20
97.74206325323294
 10
112.45189936965141
 20
97.78737611879951
 10
112.46811815250442
 20
97.83254917063317
 10
112.4847305220361
 20
97.87757896863113
 10
112.50173521315048
 20
97.92246208359992
 10
112.51913093087444
 20
97.9671950975166
 10
112.53691635045641
 20
98.01177460378892
 10
112.55509011746847
 20
98.0561972075149
 10
112.57365084790729
 20
98.10045952574129
 10
112.59259712830146
 20
98.14455818772117
 10
112.61192751581882
 20
98.18848983517071
 10
112.63164053837511
 20
98.23225112252487
 10
112.65173469474723
 20
98.27583871719219
 10
112.67220845468785
 20
98.31924929980855
 10
112.69306025904064
 20
98.36247956449004
 10
112.7142885198599
 20
98.40552621908463
 10
112.73589162053156
 20
98.4483859854229
 10
112.75786791589564
 20
98.49105559956773
 10
112.78021573237208
 20
98.53353181206278
 10
112.8029333680887
 20
98.57581138818
 10
112.826019093009
 20
98.617891108166
 10
112.84947114906583
 20
98.6597677674872
 10
112.87328775029425
 20
98.70143817707381
 10
112.89746708296809
 20
98.74289916356287
 10
112.92200730573757
 20
98.78414756953967
 10
112.94690654976932
 20
98.82518025377846
 10
112.97216291888992
 20
98.86599409148141
 10
112.99777448972884
 20
98.9065859745168
 10
113.02373931186582
 20
98.94695281165556
 10
113.05005540797936
 20
98.98709152880679
 10
113.0767207739965
 20
99.02699906925173
 10
113.10373337924682
 20
99.0666723938767
 10
113.13109116661519
 20
99.1061084814044
 10
113.15879205270096
 20
99.1453043286241
 10
113.18683392797368
 20
99.1842569506203
 10
113.21521465693661
 20
99.22296338099997
 10
113.24393207828678
 20
99.26142067211863
 10
113.27298400508187
 20
99.29962589530464
 10
113.30236822490485
 20
99.33757614108237
 10
113.33208250003383
 20
99.37526851939361
 10
113.36212456761166
 20
99.41270015981789
 10
113.39249213981827
 20
99.44986821179083
 10
113.42318290404603
 20
99.48676984482137
 10
113.45419452307385
 20
99.5234022487073
 10
113.48552463524732
 20
99.55976263374922
 10
113.51717085465691
 20
99.59584823096306
 10
113.54913077132039
 20
99.63165629229084
 10
113.58140195136673
 20
99.6671840908101
 10
113.61398193722005
 20
99.70242892094139
 10
113.6468682477888
 20
99.73738809865446
 10
113.68005837865292
 20
99.77205896167258
 10
113.71354980225544
 20
99.8064388696753
 10
113.7473399680947
 20
99.8405252044995
 10
113.78142630291893
 20
99.87431537033882
 10
113.81580621092178
 20
99.90780679394133
 10
113.85047707393994
 20
99.94099692480542
 10
113.885436251653
 20
99.97388323537415
 10
113.92068108178421
 20
100.00646322122762
 10
113.9562088803035
 20
100.0387344012738
 10
113.99201694163128
 20
100.07069431793737
 10
114.02810253884502
 20
100.10234053734693
 10
114.06446292388694
 20
100.13367064952037
 10
114.1010953277729
 20
100.16468226854832
 10
114.13799696080343
 20
100.19537303277595
 10
114.17516501277635
 20
100.22574060498273
 10
114.21259665320065
 20
100.25578267256046
 10
114.2502890315119
 20
100.2854969476894
 10
114.28823927728956
 20
100.31488116751243
 10
114.32644450047576
 20
100.34393309430746
 10
114.36490179159443
 20
100.37265051565778
 10
114.40360822197397
 20
100.40103124462057
 10
114.44256084397023
 20
100.42907311989345
 10
114.48175669118984
 20
100.45677400597903
 10
114.52119277871759
 20
100.4841317933476
 10
114.56086610334262
 20
100.51114439859772
 10
114.60077364378742
 20
100.53780976461493
 10
114.64091236093861
 20
100.56412586072838
 10
114.6812791980775
 20
100.59009068286542
 10
114.72187108111291
 20
100.61570225370437
 10
114.76268491881581
 20
100.64095862282491
 10
114.80371760305468
 20
100.66585786685678
 10
114.84496600903151
 20
100.69039808962611
 10
114.88642699552054
 20
100.71457742229995
 10
114.928097405107
 20
100.73839402352851
 10
114.96997406442836
 20
100.76184607958538
 10
115.0120537844142
 20
100.78493180450569
 10
115.05433336053159
 20
100.80764944022212
 10
115.09680957302646
 20
100.82999725669873
 10
115.13947918717133
 20
100.85197355206282
 10
115.18233895350966
 20
100.87357665273437
 10
115.22538560810415
 20
100.89480491355364
 10
115.26861587278574
 20
100.91565671790639
 10
115.31202645540213
 20
100.93613047784696
 10
115.35561405006945
 20
100.95622463421928
 10
115.39937533742352
 20
100.97593765677556
 10
115.44330698487317
 20
100.99526804429279
 10
115.48740564685306
 20
101.01421432468712
 10
115.53166796507946
 20
101.03277505512594
 10
115.5760905688054
 20
101.05094882213778
 10
115.62067007507778
 20
101.06873424171992
 10
115.66540308899437
 20
101.0861299594438
 10
115.71028620396316
 20
101.10313465055816
 10
115.7553160019612
 20
101.11974702008992
 10
115.80048905379488
 20
101.13596580294285
 10
115.8458019193614
 20
101.15178976399382
 10
115.8912511479108
 20
101.16721769818695
 10
115.93683327830797
 20
101.18224843062531
 10
115.9825448392977
 20
101.19688081666042
 10
116.02838234976741
 20
101.21111374197946
 10
116.07434231901323
 20
101.22494612269003
 10
116.12042124700554
 20
101.2383769054028
 10
116.16661562465549
 20
101.25140506731168
 10
116.2129219340826
 20
101.26402961627167
 10
116.25933664888191
 20
101.27624959087451
 10
116.30585623439345
 20
101.28806406052183
 10
116.35247714797026
 20
101.29947212549601
 10
116.3991958392495
 20
101.31047291702873
 10
116.44600875042204
 20
101.32106559736714
 10
116.4929123165033
 20
101.3312493598376
 10
116.53990296560517
 20
101.34102342890718
 10
116.58697711920797
 20
101.35038706024268
 10
116.63413119243239
 20
101.35933954076734
 10
116.68136159431322
 20
101.36788018871506
 10
116.72866472807266
 20
101.37600835368248
 10
116.77603699139365
 20
101.38372341667834
 10
116.82347477669543
 20
101.39102479017073
 10
116.87097447140638
 20
101.3979119181318
 10
116.9185324582412
 20
101.40438427608008
 10
116.96614511547511
 20
101.41044137112044
 10
117.01380881721991
 20
101.41608274198168
 10
117.06151993369974
 20
101.42130795905153
 10
117.10927483152898
 20
101.4261166244095
 10
117.15706987398687
 20
101.4305083718571
 10
117.20490142129609
 20
101.43448286694577
 10
117.25276583089897
 20
101.4380398070023
 10
117.30065945773538
 20
101.44117892115194
 10
117.34857865452034
 20
101.443899970339
 10
117.3965197720214
 20
101.44620274734505
 10
117.44447915933699
 20
101.4480870768047
 10
117.49245316417398
 20
101.44955281521896
 10
117.54043813312626
 20
101.4505998509662
 10
117.58843041195234
 20
101.45122810431057
 10
117.63642634585483
 20
101.45143752740816
 10
117.68442227975731
 20
101.45122810431057
 10
117.7324145585834
 20
101.4505998509662
 10
117.78039952753568
 20
101.44955281521896
 10
117.82837353237267
 20
101.4480870768047
 10
117.87633291968802
 20
101.44620274734505
 10
117.92427403718932
 20
101.443899970339
 10
117.97219323397428
 20
101.44117892115194
 10
118.0200868608107
 20
101.4380398070023
 10
118.06795127041357
 20
101.43448286694577
 10
118.11578281772279
 20
101.4305083718571
 10
118.16357786018068
 20
101.4261166244095
 10
118.21133275800992
 20
101.42130795905153
 10
118.25904387448975
 20
101.41608274198168
 10
118.30670757623454
 20
101.41044137112044
 10
118.35432023346823
 20
101.40438427608008
 10
118.40187822030327
 20
101.3979119181318
 10
118.44937791501422
 20
101.39102479017073
 10
118.49681570031578
 20
101.38372341667834
 10
118.544187963637
 20
101.37600835368248
 10
118.59149109739644
 20
101.36788018871506
 10
118.63872149927727
 20
101.35933954076734
 10
118.68587557250169
 20
101.35038706024268
 10
118.7329497261045
 20
101.34102342890718
 10
118.77994037520637
 20
101.3312493598376
 10
118.82684394128762
 20
101.32106559736714
 10
118.87365685246016
 20
101.31047291702873
 10
118.9203755437394
 20
101.29947212549601
 10
118.96699645731621
 20
101.28806406052183
 10
119.01351604282775
 20
101.27624959087451
 10
119.05993075762706
 20
101.26402961627167
 10
119.10623706705394
 20
101.25140506731168
 10
119.15243144470412
 20
101.2383769054028
 10
119.19851037269643
 20
101.22494612269003
 10
119.24447034194225
 20
101.21111374197946
 10
119.29030785241196
 20
101.19688081666042
 10
119.33601941340146
 20
101.18224843062531
 10
119.38160154379887
 20
101.16721769818695
 10
119.42705077234825
 20
101.15178976399382
 10
119.47236363791478
 20
101.13596580294285
 10
119.51753668974845
 20
101.11974702008992
 10
119.5625664877465
 20
101.10313465055816
 10
119.60744960271529
 20
101.0861299594438
 10
119.65218261663188
 20
101.06873424171992
 10
119.69676212290426
 20
101.05094882213778
 10
119.7411847266302
 20
101.03277505512594
 10
119.7854470448566
 20
101.01421432468712
 10
119.82954570683648
 20
100.99526804429279
 10
119.87347735428614
 20
100.97593765677556
 10
119.91723864164021
 20
100.95622463421928
 10
119.96082623630753
 20
100.93613047784696
 10
120.00423681892391
 20
100.91565671790639
 10
120.04746708360528
 20
100.89480491355364
 10
120.0905137382
 20
100.87357665273437
 10
120.13337350453833
 20
100.85197355206282
 10
120.17604311868297
 20
100.82999725669875
 10
120.21851933117807
 20
100.80764944022212
 10
120.26079890729545
 20
100.78493180450569
 10
120.3028786272813
 20
100.76184607958538
 10
120.34475528660244
 20
100.73839402352851
 10
120.38642569618912
 20
100.71457742229995
 10
120.42788668267815
 20
100.69039808962611
 10
120.46913508865498
 20
100.66585786685678
 10
120.51016777289385
 20
100.64095862282491
 10
120.55098161059675
 20
100.61570225370437
 10
120.59157349363215
 20
100.59009068286542
 10
120.63194033077082
 20
100.56412586072838
 10
120.67207904792224
 20
100.53780976461493
 10
120.71198658836704
 20
100.51114439859772
 10
120.75165991299207
 20
100.4841317933476
 10
120.79109600051981
 20
100.45677400597903
 10
120.83029184773943
 20
100.42907311989345
 10
120.86924446973569
 20
100.40103124462057
 10
120.90795090011522
 20
100.37265051565778
 10
120.9464081912339
 20
100.34393309430746
 10
120.9846134144201
 20
100.31488116751243
 10
121.02256366019776
 20
100.2854969476894
 10
121.06025603850901
 20
100.25578267256047
 10
121.09768767893331
 20
100.22574060498273
 10
121.13485573090622
 20
100.19537303277595
 10
121.17175736393676
 20
100.16468226854832
 10
121.20838976782272
 20
100.13367064952035
 10
121.24475015286464
 20
100.10234053734693
 10
121.28083575007838
 20
100.07069431793737
 10
121.31664381140615
 20
100.0387344012738
 10
121.35217160992545
 20
100.00646322122762
 10
121.38741644005665
 20
99.97388323537415
 10
121.42237561776972
 20
99.94099692480542
 10
121.45704648078788
 20
99.90780679394132
 10
121.49142638879073
 20
99.87431537033882
 10
121.52551272361495
 20
99.8405252044995
 10
121.55930288945422
 20
99.8064388696753
 10
121.59279431305674
 20
99.77205896167258
 10
121.62598444392086
 20
99.73738809865446
 10
121.65887075448939
 20
99.70242892094139
 10
121.69145074034293
 20
99.6671840908101
 10
121.72372192038904
 20
99.63165629229084
 10
121.75568183705275
 20
99.59584823096306
 10
121.78732805646234
 20
99.55976263374923
 10
121.8186581686358
 20
99.5234022487073
 10
121.84966978766363
 20
99.48676984482137
 10
121.88036055189139
 20
99.44986821179083
 10
121.910728124098
 20
99.41270015981789
 10
121.94077019167582
 20
99.37526851939361
 10
121.9704844668048
 20
99.33757614108237
 10
121.99986868662779
 20
99.29962589530466
 10
122.02892061342288
 20
99.26142067211863
 10
122.05763803477305
 20
99.22296338099997
 10
122.08601876373598
 20
99.1842569506203
 10
122.1140606390087
 20
99.1453043286241
 10
122.14176152509447
 20
99.1061084814044
 10
122.16911931246284
 20
99.0666723938767
 10
122.17064699577634
 20
99.06442869041092
 10
123.0730166616928
 20
99.24473833236777
 10
124.40732491638084
 20
99.49141984598377
 10
125.78877791360776
 20
99.72625222714277
 10
127.21575510561877
 20
99.94764551787176
 10
128.28234318823786
 20
100.09949150732876
 10
129.37179072906167
 20
100.24288011499777
 10
131.19974061052983
 20
100.45504253851077
 10
133.0300103818637
 20
100.63248296024076
 10
134.7718255938738
 20
100.77012209954377
 10
136.4829640365307
 20
100.87765555998477
 10
136.49085088618278
 20
91.38147644817778
 10
141.49084916173672
 20
91.38562909043478
 10
141.48283658369985
 20
101.05967687265476
 10
141.4868428727185
 20
101.05974099094269
 10
141.4868428727185
 20
101.80018881553832
 10
173.88778727896909
 20
101.80018881553832
 10
173.88778727896909
 20
99.80356192111454
 10
174.88394768477076
 20
99.70922713626678
 10
174.88465011735082
 20
98.86346160519577
 10
173.88778727896909
 20
98.86263368196038
 10
173.88778727896909
 20
98.80018881553832
 10
173.88470222219314
 20
98.80018881553832
 10
173.89092419583073
 20
91.30860743129178
 10
179.89092212650064
 20
91.31359060199978
 10
179.88439515829066
 20
99.17252178185876
 10
182.8200392015607
 20
98.82269662101977
 10
185.66953049420079
 20
98.45906474180477
 10
188.59479287613078
 20
98.05948782809676
 10
191.54347362740066
 20
97.63107317780478
 10
194.17322770924068
 20
97.22974411855877
 10
196.89623687491064
 20
96.79326654283977
 10
199.61447190396063
 20
96.33861081335478
 10
202.23457101196084
 20
95.88469783942378
 10
204.9421883251208
 20
95.39764209970677
 10
207.64751418042067
 20
94.89497010356177
 10
210.2859811039708
 20
94.39108526836677
 10
212.97718848148077
 20
93.86228722043276
  0
CIRCLE
  5
44
330
17
100
AcDbEntity
  8
CUT
100
AcDbCircle
 10
117.63642634585483
 20
95.95143882673948
 30
0.0
 40
2.4999987006686784
  0
TEXT
  5
45
330
17
100
AcDbEntity
  8
LABELS_NOT_CUT
100
AcDbText
 10
195.77371387884045
 20
94.12133133155332
 30
0.0
 40
2.0
  1
A44_R
100
AcDbText
  0
LWPOLYLINE
  5
46
330
17
100
AcDbEntity
  8
CUT
100
AcDbPolyline
 90
48
 70
1
 10
297.73560952653975
 20
91.46745379539277
 10
309.73560952653975
 20
91.46745379539277
 10
309.73560952653975
 20
86.46745379539277
 10
322.23560952653975
 20
86.46745379539277
 10
322.5888660260738
 20
87.15152458244273
 10
322.93155133671473
 20
87.84095171711272
 10
323.2635842649348
 20
88.53557185123276
 10
323.5848861411098
 20
89.23522040622277
 10
323.83991948314974
 20
89.84456516921273
 10
324.0624071326978
 20
90.46653164060274
 10
324.2517277717458
 20
91.09938291962277
 10
324.4073527043298
 20
91.74135170864776
 10
324.52884733296673
 20
92.39064524853876
 10
324.61587237230276
 20
93.04545032507576
 10
324.66818479660583
 20
93.70393833255577
 10
324.68563851843476
 20
94.36427038033474
 10
324.68563851843476
 20
96.46745379538874
 10
314.1856325199768
 20
96.46745379538976
 10
314.1856325199768
 20
101.46745379539061
 10
319.36341404992675
 20
101.46745379539067
 10
319.36341404992675
 20
111.46745379539175
 10
234.36337082200077
 20
111.46745379539175
 10
234.36337082200077
 20
101.46745379538595
 10
239.5411835829608
 20
101.46745379539163
 10
239.5411835829608
 20
96.46745379539175
 10
229.04118958142078
 20
96.46745379539277
 10
229.04118958143079
 20
94.36427038032173
 10
229.05864330326074
 20
93.70393833254172
 10
229.11095572757074
 20
93.04545032506275
 10
229.19798076690074
 20
92.39064524852574
 10
229.31947539554074
 20
91.74135170863576
 10
229.4751003281208
 20
91.09938291961276
 10
229.66442096717083
 20
90.46653164058273
 10
229.8869086167208
 20
89.84456516920272
 10
230.14194195875075
 20
89.23522040621276
 10
230.46324383493084
 20
88.53557185122276
 10
230.7952767631508
 20
87.84095171710277
 10
231.13796207379073
 20
87.15152458243273
 10
231.4912185733208
 20
86.46745379540272
 10
243.9912185733208
 20
86.46745379539277
 10
243.9912185733208
 20
91.46745379539277
 10
255.9912185733208
 20
91.46745379539277
 10
255.9912185733208
 20
86.46745379540272
 10
270.86340805149575
 20
86.46745379539277
 10
270.86340805149575
 20
91.46745379539277
 10
282.86340805149575
 20
91.46745379539277
 10
282.86340805149575
 20
86.46745379539277
 10
297.73560952653975
 20
86.46745379539277
  0
TEXT
  5
47
330
17
100
AcDbEntity
  8
LABELS_NOT_CUT
100
AcDbText
 10
276.8634080514688
 20
98.96745379538936
 30
0.0
 40
2.0
  1
A25
100
AcDbText
  0
LWPOLYLINE
  5
48
330
17
100
AcDbEntity
  8
CUT
100
AcDbPolyline
 90
317
 70
1
 10
329.86848399918995
 20
109.96745130762577
 10
329.9428480921798
 20
110.30518379539282
 10
330.05267809218014
 20
110.74748379539272
 10
330.17443809218014
 20
111.18759379539273
 10
330.3080780921797
 20
111.62530379539285
 10
330.4535180921797
 20
112.06038379539285
 10
330.6106980921801
 20
112.49260379539274
 10
330.77953809218025
 20
112.92175379539268
 10
330.9599380921801
 20
113.3476137953927
 10
331.15181809217995
 20
113.76996379539281
 10
331.3550780921787
 20
114.18858379539037
 10
331.56960809218015
 20
114.60327379538967
 10
331.79529809218
 20
115.01380379538975
 10
332.03204809218005
 20
115.4199837953897
 10
332.2797180921799
 20
115.82159379538982
 10
332.53819809217975
 20
116.2184337953899
 10
332.8073480921802
 20
116.61029379538962
 10
333.0870280921798
 20
116.99698379538987
 10
333.37710809218015
 20
117.37830379538966
 10
333.6774180921801
 20
117.75406379538964
 10
333.98782809218017
 20
118.12406379538959
 10
334.3081680921799
 20
118.48811379538984
 10
334.63826809218017
 20
118.84603379538962
 10
334.9779780921799
 20
119.19763379538986
 10
335.32710809217986
 20
119.5427537953899
 10
335.68548809217987
 20
119.88119379538983
 10
336.05293809217983
 20
120.2127937953899
 10
336.4292580921799
 20
120.53738379538979
 10
336.81426809218
 20
120.85479379538981
 10
337.20776809218
 20
121.16487379538978
 10
337.60955809218
 20
121.46745379538973
 10
338.0194380921798
 20
121.76237379539
 10
338.43718809218
 20
122.04950379538974
 10
338.86259809217995
 20
122.32867379538976
 10
339.29544809217987
 20
122.59976379538989
 10
339.73552809218006
 20
122.86262379538957
 10
340.18260809218
 20
123.11711379538971
 10
340.6364580921801
 20
123.36311379538964
 10
341.09684809218004
 20
123.60050379538964
 10
341.56354809218
 20
123.82914379538968
 10
342.03630809217987
 20
124.0489337953899
 10
342.5149080921799
 20
124.25975379538997
 10
342.99907809217996
 20
124.46149379538988
 10
343.48857809217225
 20
124.65406379538655
 10
343.983178092171
 20
124.8373537953897
 10
344.482598092171
 20
125.01127379538988
 10
344.98660809217097
 20
125.17573379538993
 10
345.494928092171
 20
125.33065379538965
 10
346.00731809217086
 20
125.47595379538998
 10
346.5235080921709
 20
125.6115537953898
 10
347.04322809217103
 20
125.73738379538966
 10
347.56622809217095
 20
125.85339379538974
 10
348.0922280921709
 20
125.95951379538994
 10
348.620968092171
 20
126.05568379538985
 10
349.15217809217097
 20
126.14187379538959
 10
349.685578092171
 20
126.21801379538957
 10
350.22090809217093
 20
126.28409379538962
 10
350.458318092171
 20
126.3088337953898
 10
350.458318092171
 20
111.66360379539279
 10
350.467408092171
 20
111.66360379539279
 10
350.318108092171
 20
111.58009379539277
 10
349.91182809217105
 20
111.3071237953927
 10
349.5291480921709
 20
111.00194379539292
 10
349.172618092171
 20
110.66659379539277
 10
348.84460809217114
 20
110.30330379539262
 10
348.5473080921712
 20
109.91447379539258
 10
348.28267809217107
 20
109.50271379539271
 10
348.05249809217105
 20
109.0707537953927
 10
347.858298092171
 20
108.62146379539274
 10
347.70135809217106
 20
108.15784379539272
 10
347.58272809217124
 20
107.68297379539271
 10
347.50319809217103
 20
107.20001379539278
 10
347.463308092171
 20
106.71218379539278
 10
347.463308092171
 20
106.22272379539277
 10
347.50319809217103
 20
105.73488379539279
 10
347.5827280921709
 20
105.25192379539277
 10
347.7013580921707
 20
104.77705379539273
 10
347.8582980921708
 20
104.31343379539271
 10
348.0524980921708
 20
103.86414379539272
 10
348.28267809217084
 20
103.43218379539272
 10
348.54730809217085
 20
103.0204237953927
 10
348.8446080921708
 20
102.6316037953926
 10
349.17261809217086
 20
102.26830379539271
 10
349.529148092171
 20
101.93295379539276
 10
349.91182809217105
 20
101.62777379539293
 10
350.318108092171
 20
101.35481379539274
 10
350.745278092171
 20
101.1158637953929
 10
351.19050809217083
 20
100.91253379539256
 10
351.65083809217094
 20
100.74617379539262
 10
352.12318809217095
 20
100.6178837953926
 10
352.6044280921709
 20
100.52852379539269
 10
353.09134809217096
 20
100.47868379539298
 10
353.580708092171
 20
100.4687037953928
 10
354.06924809217094
 20
100.49863379539278
 10
354.5537280921709
 20
100.56829379539286
 10
355.03092809217105
 20
100.67721379539256
 10
355.49764809217095
 20
100.82465379539269
 10
355.95080809217086
 20
101.00966379539295
 10
356.38736809217096
 20
101.2309837953928
 10
356.8044480921709
 20
101.48715379539283
 10
357.19924809217105
 20
101.77646379539266
 10
357.5691680921709
 20
102.09699379539282
 10
357.9117180921709
 20
102.44660379539289
 10
358.22463809217095
 20
102.82298379539276
 10
358.50583809217096
 20
103.22360379539273
 10
358.75343809217077
 20
103.64582379539289
 10
358.96580809217085
 20
104.08681379539283
 10
359.14152809217103
 20
104.54364379539277
 10
359.279428092171
 20
105.0132837953928
 10
359.37858809217107
 20
105.49259379539276
 10
359.4383480921708
 20
105.9783937953928
 10
359.458318092171
 20
106.46745379539277
 10
359.43834809217094
 20
106.95650379539276
 10
359.3785880921712
 20
107.4423037953928
 10
359.279428092171
 20
107.92162379539278
 10
359.14152809217103
 20
108.3912537953928
 10
358.9658080921712
 20
108.84809379539286
 10
358.7534380921711
 20
109.28908379539283
 10
358.5058380921711
 20
109.71129379539286
 10
358.2246380921707
 20
110.11192379539261
 10
357.911718092171
 20
110.48829379539276
 10
357.5691680921709
 20
110.83791379539275
 10
357.19924809217105
 20
111.1584437953928
 10
356.8044480921709
 20
111.44775379539266
 10
356.4530180921711
 20
111.66360379539299
 10
356.458318092171
 20
111.66360379539279
 10
356.458318092171
 20
126.30876379538978
 10
356.694998092171
 20
126.28409379538974
 10
357.230328092171
 20
126.21801379538991
 10
357.763738092171
 20
126.14187379538996
 10
358.294948092171
 20
126.05568379538997
 10
358.823688092171
 20
125.95951379538968
 10
359.349698092171
 20
125.85339379538993
 10
359.87269809217094
 20
125.73738379538983
 10
360.39242809217103
 20
125.61155379538985
 10
360.90861809217097
 20
125.47595379538976
 10
361.42100809217095
 20
125.33065379538957
 10
361.92933809217095
 20
125.17573379538956
 10
362.43334809217095
 20
125.01127379538963
 10
362.932788092171
 20
124.8373537953897
 10
363.427388092171
 20
124.65406379538985
 10
363.916898092171
 20
124.46149379538969
 10
364.4010780921709
 20
124.25975379538968
 10
364.87967809217093
 20
124.04893379538959
 10
365.352448092171
 20
123.82914379538997
 10
365.81914809217096
 20
123.60050379538987
 10
366.279548092171
 20
123.36311379538992
 10
366.733408092171
 20
123.11711379538988
 10
367.1804980921711
 20
122.86262379538991
 10
367.62058809217115
 20
122.59976379538998
 10
368.0534580921711
 20
122.32867379539002
 10
368.47887809217104
 20
122.04950379538985
 10
368.896638092171
 20
121.76237379538978
 10
369.3065180921708
 20
121.46745379538956
 10
369.708318092171
 20
121.16487379538981
 10
370.101828092171
 20
120.85479379538972
 10
370.486858092171
 20
120.5373837953899
 10
370.86318809217084
 20
120.21279379538962
 10
371.2306480921711
 20
119.88119379538992
 10
371.589038092171
 20
119.54275379538981
 10
371.9381880921709
 20
119.19763379538969
 10
372.27790809217095
 20
118.8460337953897
 10
372.608028092171
 20
118.48811379538984
 10
372.9283780921709
 20
118.1240637953897
 10
373.238798092171
 20
117.75406379538978
 10
373.5391280921708
 20
117.37830379538966
 10
373.8292180921711
 20
116.9969837953899
 10
374.1089080921711
 20
116.61029379538982
 10
374.3780780921711
 20
116.21843379538984
 10
374.63656809217093
 20
115.82159379538979
 10
374.8842580921711
 20
115.41998379538987
 10
375.12101809217086
 20
115.01380379538972
 10
375.3467280921709
 20
114.60327379538973
 10
375.56127809217105
 20
114.18858379538983
 10
375.7645480921701
 20
113.76996379539233
 10
375.9564380921711
 20
113.34761379539285
 10
376.136858092171
 20
112.92175379539279
 10
376.305708092171
 20
112.4926037953928
 10
376.4629080921708
 20
112.06038379539268
 10
376.6083680921711
 20
111.62530379539282
 10
376.74201809217107
 20
111.18759379539279
 10
376.863798092171
 20
110.74748379539278
 10
376.9736380921711
 20
110.30518379539282
 10
377.04801738943615
 20
109.96745130762582
 10
371.41895809256994
 20
109.96745120761977
 10
371.41895809256994
 20
103.96745120761977
 10
377.2310776660315
 20
103.96745120761977
 10
377.1573880921711
 20
103.51996379539275
 10
377.07159809217103
 20
103.07397379539276
 10
376.9737780921712
 20
102.62971379539275
 10
376.8639480921711
 20
102.18742379539276
 10
376.742188092171
 20
101.74730379539275
 10
376.6085480921712
 20
101.30959379539269
 10
376.46310809217107
 20
100.87452379539275
 10
376.30592809217114
 20
100.44229379539271
 10
376.1370880921711
 20
100.01314379539272
 10
375.9566880921708
 20
99.58728379539284
 10
375.7648080921708
 20
99.16494379539282
 10
375.5615580921709
 20
98.74631379539278
 10
375.3470180921711
 20
98.33163379539272
 10
375.12132809217087
 20
97.9210937953928
 10
374.88457809217084
 20
97.51491379539286
 10
374.636908092171
 20
97.11330379539274
 10
374.378428092171
 20
96.71647379539272
 10
374.10927809217117
 20
96.32460379539265
 10
373.82959809217107
 20
95.93791379539269
 10
373.53951809217074
 20
95.5565937953929
 10
373.2392080921709
 20
95.18084379539283
 10
372.9287980921707
 20
94.81084379539294
 10
372.6084580921711
 20
94.44679379539272
 10
372.27835809217083
 20
94.08887379539291
 10
371.938648092171
 20
93.7372637953928
 10
371.5895180921708
 20
93.39215379539291
 10
371.231138092171
 20
93.0537137953927
 10
370.86368809217095
 20
92.72210379539277
 10
370.487368092171
 20
92.39751379539277
 10
370.102358092171
 20
92.08010379539274
 10
369.7088580921711
 20
91.7700337953926
 10
369.307068092171
 20
91.4674537953928
 10
368.89718809217095
 20
91.17252379539286
 10
368.4794380921709
 20
90.88540379539288
 10
368.0540280921708
 20
90.60622379539299
 10
367.6211780921709
 20
90.33514379539287
 10
367.1810980921708
 20
90.07228379539299
 10
366.734018092171
 20
89.81778379539273
 10
366.2801680921709
 20
89.57178379539292
 10
365.81977809217096
 20
89.33440379539289
 10
365.35307809217113
 20
89.1057537953925
 10
364.8803180921709
 20
88.88597379539283
 10
364.401718092171
 20
88.67515379539259
 10
363.91754809217093
 20
88.47340379539295
 10
363.4280480921709
 20
88.28083379539294
 10
362.9334480921709
 20
88.09754379539285
 10
362.43402809217105
 20
87.92362379539264
 10
361.93001809217105
 20
87.75916379539262
 10
361.4216980921709
 20
87.6042437953929
 10
360.90930809217093
 20
87.45895379539272
 10
360.393118092171
 20
87.32335379539273
 10
359.873398092171
 20
87.19751379539261
 10
359.35039809217096
 20
87.08151379539291
 10
358.824398092171
 20
86.97539379539262
 10
358.29565809217104
 20
86.8792137953925
 10
357.76444809217094
 20
86.79303379539292
 10
357.2310480921709
 20
86.71688379539296
 10
356.695718092171
 20
86.65081379539274
 10
356.158738092171
 20
86.59484379539268
 10
355.620378092171
 20
86.5490137953928
 10
355.0809180921709
 20
86.51334379539279
 10
354.540628092171
 20
86.48785379539277
 10
353.999788092171
 20
86.47255379539277
 10
353.458678092171
 20
86.46745379539277
 10
352.917558092171
 20
86.47255379539277
 10
352.376718092171
 20
86.4878537953928
 10
351.836428092171
 20
86.51334379539279
 10
351.2969680921709
 20
86.54901379539277
 10
350.758608092171
 20
86.59484379539276
 10
350.22162809217093
 20
86.65081379539288
 10
349.686298092171
 20
86.71688379539282
 10
349.152888092171
 20
86.79303379539297
 10
348.6216780921709
 20
86.87921379539264
 10
348.09293809217104
 20
86.97539379539305
 10
347.5669280921709
 20
87.08151379539262
 10
347.043928092171
 20
87.19751379539264
 10
346.524198092171
 20
87.32335379539268
 10
346.00800809217094
 20
87.4589537953928
 10
345.49561809217096
 20
87.60424379539282
 10
344.98728809217107
 20
87.759163795393
 10
344.48327809217096
 20
87.92362379539293
 10
343.983838092171
 20
88.09754379539285
 10
343.4892380921709
 20
88.28083379539271
 10
342.99972809217877
 20
88.4734037953898
 10
342.51554809218
 20
88.67515379539293
 10
342.03694809218007
 20
88.88597379539294
 10
341.5641780921799
 20
89.10575379539264
 10
341.09747809218015
 20
89.33440379539306
 10
340.6370780921799
 20
89.57178379539263
 10
340.1832180921799
 20
89.81778379539264
 10
339.7361280921799
 20
90.07228379539276
 10
339.29603809217986
 20
90.33514379539255
 10
338.8631680921799
 20
90.60622379539271
 10
338.43774809217996
 20
90.8854037953927
 10
338.0199880921799
 20
91.17252379539272
 10
337.61010809217987
 20
91.46745379539269
 10
337.2083080921799
 20
91.77003379539272
 10
336.8147980921801
 20
92.08010379539292
 10
336.42976809217987
 20
92.39751379539265
 10
336.05343809218004
 20
92.72210379539294
 10
335.6859780921799
 20
93.05371379539267
 10
335.3275880921799
 20
93.39215379539274
 10
334.97843809218
 20
93.73726379539283
 10
334.63871809218006
 20
94.08887379539289
 10
334.30859809217986
 20
94.44679379539272
 10
333.98824809218
 20
94.81084379539283
 10
333.67782809218
 20
95.18084379539278
 10
333.37749809217996
 20
95.55659379539276
 10
333.08740809217977
 20
95.93791379539266
 10
332.8077180921799
 20
96.3246037953927
 10
332.5385580921801
 20
96.71647379539289
 10
332.28005809217984
 20
97.11330379539271
 10
332.0323680921798
 20
97.51491379539269
 10
331.79560809218003
 20
97.92109379539284
 10
331.56989809217987
 20
98.33163379539272
 10
331.35534809218007
 20
98.74631379539281
 10
331.1520780921801
 20
99.16494379539282
 10
330.96018809218003
 20
99.58728379539278
 10
330.7797680921799
 20
100.01314379539275
 10
330.6109180921799
 20
100.44229379539274
 10
330.45371809218
 20
100.87452379539278
 10
330.30825809218004
 20
101.3095937953928
 10
330.17460809217994
 20
101.74730379539275
 10
330.0528280921802
 20
102.18742379539282
 10
329.9429880921799
 20
102.62971379539275
 10
329.8451480921801
 20
103.07397379539282
 10
329.75934809217995
 20
103.51996379539278
 10
329.68563851843476
 20
103.96745120761977
 10
335.49766809256994
 20
103.96745120761977
 10
335.49766809256994
 20
109.96745120761977
  0
TEXT
  5
49
330
17
100
AcDbEntity
  8
LABELS_NOT_CUT
100
AcDbText
 10
341.4804880923705
 20
106.34508879539277
 30
0.0
 40
2.0
  1
A26
100
AcDbText
  0
LWPOLYLINE
  5
4A
330
17
100
AcDbEntity
  8
CUT
100
AcDbPolyline
 90
30
 70
1
 10
468.0964722242293
 20
102.8491694100523
 10
468.0892047389566
 20
103.05011068085929
 10
391.5519219200186
 20
103.1932515975256
 10
386.5468370855758
 20
98.20227589087585
 10
382.23740387648866
 20
98.2100342051703
 10
382.2310776660315
 20
90.56217692760674
 10
384.4091177076548
 20
90.82004805148927
 10
386.58548029902136
 20
91.0917135797888
 10
391.53518507504486
 20
86.76251980562927
 10
391.5348845118
 20
86.46745379539277
 10
394.36616696024043
 20
86.85353160880504
 10
397.30476019559137
 20
87.27835026385935
 10
400.3497734725979
 20
87.74291650617232
 10
403.50031604603475
 20
88.24823708136921
 10
406.75549717067656
 20
88.79531873507403
 10
410.1144261012779
 20
89.38516821291051
 10
413.576212092614
 20
90.01879226049954
 10
417.1399643994391
 20
90.69719762346506
 10
420.8047922765288
 20
91.42139104742733
 10
424.56980497865607
 20
92.1923792780189
 10
428.4341117605667
 20
93.01116906085622
 10
432.396821877036
 20
93.87876714155948
 10
436.4570445828381
 20
94.7961802657573
 10
440.61388913272685
 20
95.76441517907358
 10
444.8664647814792
 20
96.78447862712375
 10
449.2138807838576
 20
97.8573773555404
 10
452.3383534587615
 20
98.64775308714218
 10
455.324563903795
 20
99.41810515493216
 10
460.72206613834726
 20
100.84369892680371
 10
465.08612355575065
 20
102.02407992667713
  0
LWPOLYLINE
  5
4B
330
17
100
AcDbEntity
  8
CUT
100
AcDbPolyline
 90
32
 70
1
 10
401.54401097201844
 20
95.38438925447576
 10
401.52479625242165
 20
95.5794795764919
 10
401.4678905045297
 20
95.76707268684089
 10
401.37548058432094
 20
95.9399594874954
 10
401.2511177532049
 20
96.09149603566232
 10
401.099581205038
 20
96.21585886677832
 10
400.9266944043835
 20
96.30826878698707
 10
400.7391012940345
 20
96.36517453487903
 10
400.5440109720183
 20
96.38438925447576
 10
400.34892065000224
 20
96.36517453487903
 10
400.16132753965326
 20
96.30826878698707
 10
399.98844073899886
 20
96.21585886677832
 10
399.8369041908318
 20
96.09149603566232
 10
399.71254135971583
 20
95.9399594874954
 10
399.6201314395071
 20
95.76707268684089
 10
399.5632256916151
 20
95.5794795764919
 10
399.54401097201844
 20
95.38438925447576
 10
399.5632256916151
 20
95.18929893245968
 10
399.6201314395071
 20
95.0017058221107
 10
399.71254135971583
 20
94.82881902145618
 10
399.8369041908318
 20
94.67728247328927
 10
399.98844073899886
 20
94.55291964217326
 10
400.16132753965326
 20
94.46050972196451
 10
400.34892065000224
 20
94.40360397407255
 10
400.54401097201844
 20
94.38438925447576
 10
400.7391012940345
 20
94.40360397407255
 10
400.9266944043835
 20
94.46050972196451
 10
401.099581205038
 20
94.55291964217326
 10
401.2511177532049
 20
94.67728247328927
 10
401.37548058432094
 20
94.82881902145618
 10
401.4678905045296
 20
95.0017058221107
 10
401.52479625242165
 20
95.18929893245968
  0
TEXT
  5
4C
330
17
100
AcDbEntity
  8
LABELS_NOT_CUT
100
AcDbText
 10
419.1949879524876
 20
94.91526242178344
 30
0.0
 40
2.0
  1
A53_R
100
AcDbText
  0
LWPOLYLINE
  5
4D
330
17
100
AcDbEntity
  8
CUT
100
AcDbPolyline
 90
24
 70
1
 10
450.1645265175363
 20
65.90242983530118
 10
453.5481150831363
 20
65.7978431522252
 10
455.7763105455663
 20
65.71162591245519
 10
457.9127332185942
 20
65.61546118739722
 10
460.1327680818582
 20
65.50148890057818
 10
461.16992858583626
 20
65.44329674345721
 10
462.22149088546723
 20
65.38110743694722
 10
465.1218416827453
 20
65.19280239197622
 10
468.1497502530452
 20
64.97052023923521
 10
469.2650501528352
 20
64.88220963702719
 10
470.3643030629853
 20
64.7918682810162
 10
471.08435764440526
 20
64.7309424341662
 10
473.8603720918553
 20
64.48340607984721
 10
475.2693554154953
 20
64.35019678427221
 10
476.7035098147353
 20
64.20951629944119
 10
479.63077297907523
 20
63.9070404441112
 10
480.40176237271737
 20
63.8221468735905
 10
480.4024545448352
 20
62.98873547361819
 10
480.41260579784523
 20
50.76609638664121
 10
473.4164295446053
 20
50.75322648418921
 10
458.0046125791922
 20
50.72945942536819
 10
449.0126385177481
 20
50.71392343163399
 10
449.0126091586343
 20
50.74927333878219
 10
449.00000058579326
 20
65.93065390534218
  0
CIRCLE
  5
4E
330
17
100
AcDbEntity
  8
CUT
100
AcDbCircle
 10
464.2018073180752
 20
57.64694029122819
 30
0.0
 40
2.5
  0
TEXT
  5
4F
330
17
100
AcDbEntity
  8
LABELS_NOT_CUT
100
AcDbText
 10
473.5106909442571
 20
58.301537618318775
 30
0.0
 40
2.0
  1
A01_R
100
AcDbText
  0
LWPOLYLINE
  5
50
330
17
100
AcDbEntity
  8
REFERENCE_NOT_CUT
100
AcDbPolyline
 90
4
 70
1
 10
0.0
 20
0.0
 10
609.6
 20
0.0
 10
609.6
 20
228.6
 10
0.0
 20
228.6
  0
ENDSEC
  0
SECTION
  2
OBJECTS
  0
DICTIONARY
  5
A
330
0
100
AcDbDictionary
281
1
  3
ACAD_COLOR
350
B
  3
ACAD_GROUP
350
C
  3
ACAD_LAYOUT
350
D
  3
ACAD_MATERIAL
350
E
  3
ACAD_MLEADERSTYLE
350
F
  3
ACAD_MLINESTYLE
350
10
  3
ACAD_PLOTSETTINGS
350
11
  3
ACAD_PLOTSTYLENAME
350
12
  3
ACAD_SCALELIST
350
14
  3
ACAD_TABLESTYLE
350
15
  3
ACAD_VISUALSTYLE
350
16
  3
EZDXF_META
350
2D
  0
DICTIONARY
  5
B
330
A
100
AcDbDictionary
281
1
  0
DICTIONARY
  5
C
330
A
100
AcDbDictionary
281
1
  0
DICTIONARY
  5
D
330
A
100
AcDbDictionary
281
1
  3
Model
350
1A
  3
Layout1
350
1E
  0
DICTIONARY
  5
E
330
A
100
AcDbDictionary
281
1
  3
ByBlock
350
1F
  3
ByLayer
350
20
  3
Global
350
21
  0
DICTIONARY
  5
F
330
A
100
AcDbDictionary
281
1
  3
Standard
350
2C
  0
DICTIONARY
  5
10
330
A
100
AcDbDictionary
281
1
  3
Standard
350
22
  0
DICTIONARY
  5
11
330
A
100
AcDbDictionary
281
1
  0
ACDBDICTIONARYWDFLT
  5
12
330
A
100
AcDbDictionary
281
1
  3
Normal
350
13
100
AcDbDictionaryWithDefault
340
13
  0
ACDBPLACEHOLDER
  5
13
330
12
  0
DICTIONARY
  5
14
330
A
100
AcDbDictionary
281
1
  0
DICTIONARY
  5
15
330
A
100
AcDbDictionary
281
1
  0
DICTIONARY
  5
16
330
A
100
AcDbDictionary
281
1
  0
LAYOUT
  5
1A
330
D
100
AcDbPlotSettings
  1

  4
A3
  6

 40
7.5
 41
20.0
 42
7.5
 43
20.0
 44
420.0
 45
297.0
 46
0.0
 47
0.0
 48
0.0
 49
0.0
140
0.0
141
0.0
142
1.0
143
1.0
 70
1024
 72
1
 73
0
 74
5
  7

 75
16
 76
0
 77
2
 78
300
147
1.0
148
0.0
149
0.0
100
AcDbLayout
  1
Model
 70
1
 71
0
 10
0.0
 20
0.0
 11
420.0
 21
297.0
 12
0.0
 22
0.0
 32
0.0
 14
1e+20
 24
1e+20
 34
1e+20
 15
-1e+20
 25
-1e+20
 35
-1e+20
146
0.0
 13
0.0
 23
0.0
 33
0.0
 16
1.0
 26
0.0
 36
0.0
 17
0.0
 27
1.0
 37
0.0
 76
1
330
17
  0
LAYOUT
  5
1E
330
D
100
AcDbPlotSettings
  1

  4
A3
  6

 40
7.5
 41
20.0
 42
7.5
 43
20.0
 44
420.0
 45
297.0
 46
0.0
 47
0.0
 48
0.0
 49
0.0
140
0.0
141
0.0
142
1.0
143
1.0
 70
0
 72
1
 73
0
 74
5
  7

 75
16
 76
0
 77
2
 78
300
147
1.0
148
0.0
149
0.0
100
AcDbLayout
  1
Layout1
 70
1
 71
1
 10
0.0
 20
0.0
 11
420.0
 21
297.0
 12
0.0
 22
0.0
 32
0.0
 14
1e+20
 24
1e+20
 34
1e+20
 15
-1e+20
 25
-1e+20
 35
-1e+20
146
0.0
 13
0.0
 23
0.0
 33
0.0
 16
1.0
 26
0.0
 36
0.0
 17
0.0
 27
1.0
 37
0.0
 76
1
330
1B
  0
MATERIAL
  5
1F
102
{ACAD_REACTORS
330
E
102
}
330
E
100
AcDbMaterial
  1
ByBlock
  2

 70
0
 40
1.0
 71
1
 41
1.0
 91
-1023410177
 42
1.0
 72
1
  3

 73
1
 74
1
 75
1
 44
0.5
 73
0
 45
1.0
 46
1.0
 77
1
  4

 78
1
 79
1
170
1
 48
1.0
171
1
  6

172
1
173
1
174
1
140
1.0
141
1.0
175
1
  7

176
1
177
1
178
1
143
1.0
179
1
  8

270
1
271
1
272
1
145
1.0
146
1.0
273
1
  9

274
1
275
1
276
1
 42
1.0
 72
1
  3

 73
1
 74
1
 75
1
 94
63
  0
MATERIAL
  5
20
102
{ACAD_REACTORS
330
E
102
}
330
E
100
AcDbMaterial
  1
ByLayer
  2

 70
0
 40
1.0
 71
1
 41
1.0
 91
-1023410177
 42
1.0
 72
1
  3

 73
1
 74
1
 75
1
 44
0.5
 73
0
 45
1.0
 46
1.0
 77
1
  4

 78
1
 79
1
170
1
 48
1.0
171
1
  6

172
1
173
1
174
1
140
1.0
141
1.0
175
1
  7

176
1
177
1
178
1
143
1.0
179
1
  8

270
1
271
1
272
1
145
1.0
146
1.0
273
1
  9

274
1
275
1
276
1
 42
1.0
 72
1
  3

 73
1
 74
1
 75
1
 94
63
  0
MATERIAL
  5
21
102
{ACAD_REACTORS
330
E
102
}
330
E
100
AcDbMaterial
  1
Global
  2

 70
0
 40
1.0
 71
1
 41
1.0
 91
-1023410177
 42
1.0
 72
1
  3

 73
1
 74
1
 75
1
 44
0.5
 73
0
 45
1.0
 46
1.0
 77
1
  4

 78
1
 79
1
170
1
 48
1.0
171
1
  6

172
1
173
1
174
1
140
1.0
141
1.0
175
1
  7

176
1
177
1
178
1
143
1.0
179
1
  8

270
1
271
1
272
1
145
1.0
146
1.0
273
1
  9

274
1
275
1
276
1
 42
1.0
 72
1
  3

 73
1
 74
1
 75
1
 94
63
  0
MLINESTYLE
  5
22
102
{ACAD_REACTORS
330
10
102
}
330
10
100
AcDbMlineStyle
  2
Standard
 70
0
  3

 62
256
 51
90.0
 52
90.0
 71
2
 49
0.5
 62
256
  6
BYLAYER
 49
-0.5
 62
256
  6
BYLAYER
  0
MLEADERSTYLE
  5
2C
102
{ACAD_REACTORS
330
F
102
}
330
F
100
AcDbMLeaderStyle
179
2
170
2
171
1
172
0
 90
2
 40
0.0
 41
0.0
173
1
 91
-1056964608
 92
-2
290
1
 42
2.0
291
1
 43
8.0
  3
Standard
 44
4.0
300

342
29
174
1
175
1
176
0
178
1
 93
-1056964608
 45
4.0
292
0
297
0
 46
4.0
 94
-1056964608
 47
1.0
 49
1.0
140
1.0
294
1
141
0.0
177
0
142
1.0
295
0
296
0
143
3.75
271
0
272
9
273
9
  0
DICTIONARY
  5
2D
330
A
100
AcDbDictionary
280
1
281
1
  3
CREATED_BY_EZDXF
350
2E
  3
WRITTEN_BY_EZDXF
350
53
  0
DICTIONARYVAR
  5
2E
330
2D
100
DictionaryVariables
280
0
  1
1.4.4 @ 2026-10-02T12:23:37.261178+00:00
  0
DICTIONARYVAR
  5
53
330
2D
100
DictionaryVariables
280
0
  1
1.4.4 @ 2026-10-02T12:23:37.312142+00:00
  0
ENDSEC
  0
EOF
