  0
SECTION
  2
HEADER
  9
$ACADVER
  1
AC1024
  9
$ACADMAINTVER
 70
6
  9
$DWGCODEPAGE
  3
ANSI_1252
  9
$LASTSAVEDBY
  1
ezdxf
  9
$INSBASE
 10
0.0
 20
0.0
 30
0.0
  9
$EXTMIN
 10
1e+20
 20
1e+20
 30
1e+20
  9
$EXTMAX
 10
-1e+20
 20
-1e+20
 30
-1e+20
  9
$LIMMIN
 10
0.0
 20
0.0
  9
$LIMMAX
 10
420.0
 20
297.0
  9
$ORTHOMODE
 70
0
  9
$REGENMODE
 70
1
  9
$FILLMODE
 70
1
  9
$QTEXTMODE
 70
0
  9
$MIRRTEXT
 70
1
  9
$LTSCALE
 40
1.0
  9
$ATTMODE
 70
1
  9
$TEXTSIZE
 40
2.5
  9
$TRACEWID
 40
1.0
  9
$TEXTSTYLE
  7
Standard
  9
$CLAYER
  8
0
  9
$CELTYPE
  6
ByLayer
  9
$CECOLOR
 62
256
  9
$CELTSCALE
 40
1.0
  9
$DISPSILH
 70
0
  9
$DIMSCALE
 40
1.0
  9
$DIMASZ
 40
2.5
  9
$DIMEXO
 40
0.625
  9
$DIMDLI
 40
3.75
  9
$DIMRND
 40
0.0
  9
$DIMDLE
 40
0.0
  9
$DIMEXE
 40
1.25
  9
$DIMTP
 40
0.0
  9
$DIMTM
 40
0.0
  9
$DIMTXT
 40
2.5
  9
$DIMCEN
 40
2.5
  9
$DIMTSZ
 40
0.0
  9
$DIMTOL
 70
0
  9
$DIMLIM
 70
0
  9
$DIMTIH
 70
0
  9
$DIMTOH
 70
0
  9
$DIMSE1
 70
0
  9
$DIMSE2
 70
0
  9
$DIMTAD
 70
1
  9
$DIMZIN
 70
8
  9
$DIMBLK
  1

  9
$DIMASO
 70
1
  9
$DIMSHO
 70
1
  9
$DIMPOST
  1

  9
$DIMAPOST
  1

  9
$DIMALT
 70
0
  9
$DIMALTD
 70
3
  9
$DIMALTF
 40
0.03937007874
  9
$DIMLFAC
 40
1.0
  9
$DIMTOFL
 70
1
  9
$DIMTVP
 40
0.0
  9
$DIMTIX
 70
0
  9
$DIMSOXD
 70
0
  9
$DIMSAH
 70
0
  9
$DIMBLK1
  1

  9
$DIMBLK2
  1

  9
$DIMSTYLE
  2
ISO-25
  9
$DIMCLRD
 70
0
  9
$DIMCLRE
 70
0
  9
$DIMCLRT
 70
0
  9
$DIMTFAC
 40
1.0
  9
$DIMGAP
 40
0.625
  9
$DIMJUST
 70
0
  9
$DIMSD1
 70
0
  9
$DIMSD2
 70
0
  9
$DIMTOLJ
 70
0
  9
$DIMTZIN
 70
8
  9
$DIMALTZ
 70
0
  9
$DIMALTTZ
 70
0
  9
$DIMUPT
 70
0
  9
$DIMDEC
 70
2
  9
$DIMTDEC
 70
2
  9
$DIMALTU
 70
2
  9
$DIMALTTD
 70
3
  9
$DIMTXSTY
  7
Standard
  9
$DIMAUNIT
 70
0
  9
$DIMADEC
 70
0
  9
$DIMALTRND
 40
0.0
  9
$DIMAZIN
 70
0
  9
$DIMDSEP
 70
44
  9
$DIMATFIT
 70
3
  9
$DIMFRAC
 70
0
  9
$DIMLDRBLK
  1

  9
$DIMLUNIT
 70
2
  9
$DIMLWD
 70
-2
  9
$DIMLWE
 70
-2
  9
$DIMTMOVE
 70
0
  9
$DIMFXL
 40
1.0
  9
$DIMFXLON
 70
0
  9
$DIMJOGANG
 40
0.785398163397
  9
$DIMTFILL
 70
0
  9
$DIMTFILLCLR
 70
0
  9
$DIMARCSYM
 70
0
  9
$DIMLTYPE
  6

  9
$DIMLTEX1
  6

  9
$DIMLTEX2
  6

  9
$DIMTXTDIRECTION
 70
0
  9
$LUNITS
 70
2
  9
$LUPREC
 70
4
  9
$SKETCHINC
 40
1.0
  9
$FILLETRAD
 40
10.0
  9
$AUNITS
 70
0
  9
$AUPREC
 70
2
  9
$MENU
  1
.
  9
$ELEVATION
 40
0.0
  9
$PELEVATION
 40
0.0
  9
$THICKNESS
 40
0.0
  9
$LIMCHECK
 70
0
  9
$CHAMFERA
 40
0.0
  9
$CHAMFERB
 40
0.0
  9
$CHAMFERC
 40
0.0
  9
$CHAMFERD
 40
0.0
  9
$SKPOLY
 70
0
  9
$TDCREATE
 40
2461316.7455671295
  9
$TDUCREATE
 40
2458532.153996898
  9
$TDUPDATE
 40
2461316.7455671295
  9
$TDUUPDATE
 40
2458532.1544311
  9
$TDINDWG
 40
0.0
  9
$TDUSRTIMER
 40
0.0
  9
$USRTIMER
 70
1
  9
$ANGBASE
 50
0.0
  9
$ANGDIR
 70
0
  9
$PDMODE
 70
0
  9
$PDSIZE
 40
0.0
  9
$PLINEWID
 40
0.0
  9
$SPLFRAME
 70
0
  9
$SPLINETYPE
 70
6
  9
$SPLINESEGS
 70
8
  9
$HANDSEED
  5
4F
  9
$SURFTAB1
 70
6
  9
$SURFTAB2
 70
6
  9
$SURFTYPE
 70
6
  9
$SURFU
 70
6
  9
$SURFV
 70
6
  9
$UCSBASE
  2

  9
$UCSNAME
  2

  9
$UCSORG
 10
0.0
 20
0.0
 30
0.0
  9
$UCSXDIR
 10
1.0
 20
0.0
 30
0.0
  9
$UCSYDIR
 10
0.0
 20
1.0
 30
0.0
  9
$UCSORTHOREF
  2

  9
$UCSORTHOVIEW
 70
0
  9
$UCSORGTOP
 10
0.0
 20
0.0
 30
0.0
  9
$UCSORGBOTTOM
 10
0.0
 20
0.0
 30
0.0
  9
$UCSORGLEFT
 10
0.0
 20
0.0
 30
0.0
  9
$UCSORGRIGHT
 10
0.0
 20
0.0
 30
0.0
  9
$UCSORGFRONT
 10
0.0
 20
0.0
 30
0.0
  9
$UCSORGBACK
 10
0.0
 20
0.0
 30
0.0
  9
$PUCSBASE
  2

  9
$PUCSNAME
  2

  9
$PUCSORG
 10
0.0
 20
0.0
 30
0.0
  9
$PUCSXDIR
 10
1.0
 20
0.0
 30
0.0
  9
$PUCSYDIR
 10
0.0
 20
1.0
 30
0.0
  9
$PUCSORTHOREF
  2

  9
$PUCSORTHOVIEW
 70
0
  9
$PUCSORGTOP
 10
0.0
 20
0.0
 30
0.0
  9
$PUCSORGBOTTOM
 10
0.0
 20
0.0
 30
0.0
  9
$PUCSORGLEFT
 10
0.0
 20
0.0
 30
0.0
  9
$PUCSORGRIGHT
 10
0.0
 20
0.0
 30
0.0
  9
$PUCSORGFRONT
 10
0.0
 20
0.0
 30
0.0
  9
$PUCSORGBACK
 10
0.0
 20
0.0
 30
0.0
  9
$USERI1
 70
0
  9
$USERI2
 70
0
  9
$USERI3
 70
0
  9
$USERI4
 70
0
  9
$USERI5
 70
0
  9
$USERR1
 40
0.0
  9
$USERR2
 40
0.0
  9
$USERR3
 40
0.0
  9
$USERR4
 40
0.0
  9
$USERR5
 40
0.0
  9
$WORLDVIEW
 70
1
  9
$SHADEDGE
 70
3
  9
$SHADEDIF
 70
70
  9
$TILEMODE
 70
1
  9
$MAXACTVP
 70
64
  9
$PINSBASE
 10
0.0
 20
0.0
 30
0.0
  9
$PLIMCHECK
 70
0
  9
$PEXTMIN
 10
1e+20
 20
1e+20
 30
1e+20
  9
$PEXTMAX
 10
-1e+20
 20
-1e+20
 30
-1e+20
  9
$PLIMMIN
 10
0.0
 20
0.0
  9
$PLIMMAX
 10
420.0
 20
297.0
  9
$UNITMODE
 70
0
  9
$VISRETAIN
 70
1
  9
$PLINEGEN
 70
0
  9
$PSLTSCALE
 70
1
  9
$TREEDEPTH
 70
3020
  9
$CMLSTYLE
  2
Standard
  9
$CMLJUST
 70
0
  9
$CMLSCALE
 40
20.0
  9
$PROXYGRAPHICS
 70
1
  9
$MEASUREMENT
 70
1
  9
$CELWEIGHT
370
-1
  9
$ENDCAPS
280
0
  9
$JOINSTYLE
280
0
  9
$LWDISPLAY
290
0
  9
$INSUNITS
 70
4
  9
$HYPERLINKBASE
  1

  9
$STYLESHEET
  1

  9
$XEDIT
290
1
  9
$CEPSNTYPE
380
0
  9
$PSTYLEMODE
290
1
  9
$FINGERPRINTGUID
  2
{AEA6294A-B0CA-416B-AE9C-AC569FA17A42}
  9
$VERSIONGUID
  2
{BA2CC42A-635D-467D-8A35-97B44867CEF6}
  9
$EXTNAMES
290
1
  9
$PSVPSCALE
 40
0.0
  9
$OLESTARTUP
290
0
  9
$SORTENTS
280
127
  9
$INDEXCTL
280
0
  9
$HIDETEXT
280
1
  9
$XCLIPFRAME
280
1
  9
$HALOGAP
280
0
  9
$OBSCOLOR
 70
257
  9
$OBSLTYPE
280
0
  9
$INTERSECTIONDISPLAY
280
0
  9
$INTERSECTIONCOLOR
 70
257
  9
$DIMASSOC
280
2
  9
$PROJECTNAME
  1

  9
$CAMERADISPLAY
290
0
  9
$LENSLENGTH
 40
50.0
  9
$CAMERAHEIGHT
 40
0.0
  9
$STEPSPERSEC
 40
24.0
  9
$STEPSIZE
 40
100.0
  9
$3DDWFPREC
 40
2.0
  9
$PSOLWIDTH
 40
0.005
  9
$PSOLHEIGHT
 40
0.08
  9
$LOFTANG1
 40
1.570796326795
  9
$LOFTANG2
 40
1.570796326795
  9
$LOFTMAG1
 40
0.0
  9
$LOFTMAG2
 40
0.0
  9
$LOFTPARAM
 70
7
  9
$LOFTNORMALS
280
1
  9
$LATITUDE
 40
37.795
  9
$LONGITUDE
 40
-122.394
  9
$NORTHDIRECTION
 40
0.0
  9
$TIMEZONE
 70
-8000
  9
$LIGHTGLYPHDISPLAY
280
1
  9
$TILEMODELIGHTSYNCH
280
1
  9
$CMATERIAL
347
20
  9
$SOLIDHIST
280
0
  9
$SHOWHIST
280
1
  9
$DWFFRAME
280
2
  9
$DGNFRAME
280
2
  9
$REALWORLDSCALE
290
1
  9
$INTERFERECOLOR
 62
256
  9
$CSHADOW
280
0
  9
$SHADOWPLANELOCATION
 40
0.0
  0
ENDSEC
  0
SECTION
  2
CLASSES
  0
CLASS
  1
ACDBDICTIONARYWDFLT
  2
AcDbDictionaryWithDefault
  3
ObjectDBX Classes
 90
0
 91
0
280
0
281
0
  0
CLASS
  1
SUN
  2
AcDbSun
  3
SCENEOE
 90
1153
 91
0
280
0
281
0
  0
CLASS
  1
VISUALSTYLE
  2
AcDbVisualStyle
  3
ObjectDBX Classes
 90
4095
 91
0
280
0
281
0
  0
CLASS
  1
MATERIAL
  2
AcDbMaterial
  3
ObjectDBX Classes
 90
1153
 91
0
280
0
281
0
  0
CLASS
  1
SCALE
  2
AcDbScale
  3
ObjectDBX Classes
 90
1153
 91
0
280
0
281
0
  0
CLASS
  1
TABLESTYLE
  2
AcDbTableStyle
  3
ObjectDBX Classes
 90
4095
 91
0
280
0
281
0
  0
CLASS
  1
MLEADERSTYLE
  2
AcDbMLeaderStyle
  3
ACDB_MLEADERSTYLE_CLASS
 90
4095
 91
0
280
0
281
0
  0
CLASS
  1
DICTIONARYVAR
  2
AcDbDictionaryVar
  3
ObjectDBX Classes
 90
0
 91
0
280
0
281
0
  0
CLASS
  1
CELLSTYLEMAP
  2
AcDbCellStyleMap
  3
ObjectDBX Classes
 90
1152
 91
0
280
0
281
0
  0
CLASS
  1
MENTALRAYRENDERSETTINGS
  2
AcDbMentalRayRenderSettings
  3
SCENEOE
 90
1024
 91
0
280
0
281
0
  0
CLASS
  1
ACDBDETAILVIEWSTYLE
  2
AcDbDetailViewStyle
  3
ObjectDBX Classes
 90
1025
 91
0
280
0
281
0
  0
CLASS
  1
ACDBSECTIONVIEWSTYLE
  2
AcDbSectionViewStyle
  3
ObjectDBX Classes
 90
1025
 91
0
280
0
281
0
  0
CLASS
  1
RASTERVARIABLES
  2
AcDbRasterVariables
  3
ISM
 90
0
 91
0
280
0
281
0
  0
CLASS
  1
ACDBPLACEHOLDER
  2
AcDbPlaceHolder
  3
ObjectDBX Classes
 90
0
 91
0
280
0
281
0
  0
CLASS
  1
LAYOUT
  2
AcDbLayout
  3
ObjectDBX Classes
 90
0
 91
0
280
0
281
0
  0
ENDSEC
  0
SECTION
  2
TABLES
  0
TABLE
  2
VPORT
  5
8
330
0
100
AcDbSymbolTable
 70
1
  0
VPORT
  5
23
330
8
100
AcDbSymbolTableRecord
100
AcDbViewportTableRecord
  2
*Active
 70
0
 10
0.0
 20
0.0
 11
1.0
 21
1.0
 12
0.0
 22
0.0
 13
0.0
 23
0.0
 14
0.5
 24
0.5
 15
0.5
 25
0.5
 16
0.0
 26
0.0
 36
1.0
 17
0.0
 27
0.0
 37
0.0
 40
1000.0
 41
1.34
 42
50.0
 43
0.0
 44
0.0
 50
0.0
 51
0.0
 71
0
 72
1000
 73
1
 74
3
 75
0
 76
0
 77
0
 78
0
281
0
 65
0
146
0.0
  0
ENDTAB
  0
TABLE
  2
LTYPE
  5
2
330
0
100
AcDbSymbolTable
 70
3
  0
LTYPE
  5
24
330
2
100
AcDbSymbolTableRecord
100
AcDbLinetypeTableRecord
  2
ByBlock
 70
0
  3

 72
65
 73
0
 40
0.0
  0
LTYPE
  5
25
330
2
100
AcDbSymbolTableRecord
100
AcDbLinetypeTableRecord
  2
ByLayer
 70
0
  3

 72
65
 73
0
 40
0.0
  0
LTYPE
  5
26
330
2
100
AcDbSymbolTableRecord
100
AcDbLinetypeTableRecord
  2
Continuous
 70
0
  3

 72
65
 73
0
 40
0.0
  0
ENDTAB
  0
TABLE
  2
LAYER
  5
1
330
0
100
AcDbSymbolTable
 70
5
  0
LAYER
  5
27
330
1
100
AcDbSymbolTableRecord
100
AcDbLayerTableRecord
  2
0
 70
0
 62
7
  6
Continuous
370
-3
390
13
347
21
  0
LAYER
  5
28
330
1
100
AcDbSymbolTableRecord
100
AcDbLayerTableRecord
  2
Defpoints
 70
0
 62
7
  6
Continuous
290
0
370
-3
390
13
347
21
  0
LAYER
  5
2F
330
1
100
AcDbSymbolTableRecord
100
AcDbLayerTableRecord
  2
CUT
 70
0
 62
7
  6
Continuous
370
-3
390
13
347
21
  0
LAYER
  5
30
330
1
100
AcDbSymbolTableRecord
100
AcDbLayerTableRecord
  2
REFERENCE_NOT_CUT
 70
0
 62
8
  6
Continuous
370
-3
390
13
347
21
  0
LAYER
  5
31
330
1
100
AcDbSymbolTableRecord
100
AcDbLayerTableRecord
  2
LABELS_NOT_CUT
 70
0
 62
3
  6
Continuous
370
-3
390
13
347
21
  0
ENDTAB
  0
TABLE
  2
STYLE
  5
5
330
0
100
AcDbSymbolTable
 70
1
  0
STYLE
  5
29
330
5
100
AcDbSymbolTableRecord
100
AcDbTextStyleTableRecord
  2
Standard
 70
0
 40
0.0
 41
1.0
 50
0.0
 71
0
 42
2.5
  3
txt
  4

  0
ENDTAB
  0
TABLE
  2
VIEW
  5
7
330
0
100
AcDbSymbolTable
 70
0
  0
ENDTAB
  0
TABLE
  2
UCS
  5
6
330
0
100
AcDbSymbolTable
 70
0
  0
ENDTAB
  0
TABLE
  2
APPID
  5
3
330
0
100
AcDbSymbolTable
 70
3
  0
APPID
  5
2A
330
3
100
AcDbSymbolTableRecord
100
AcDbRegAppTableRecord
  2
ACAD
 70
0
  0
APPID
  5
4C
330
3
100
AcDbSymbolTableRecord
100
AcDbRegAppTableRecord
  2
HATCHBACKGROUNDCOLOR
 70
0
  0
APPID
  5
4D
330
3
100
AcDbSymbolTableRecord
100
AcDbRegAppTableRecord
  2
EZDXF
 70
0
  0
ENDTAB
  0
TABLE
  2
DIMSTYLE
  5
4
330
0
100
AcDbSymbolTable
 70
1
100
AcDbDimStyleTable
  0
DIMSTYLE
105
2B
330
4
100
AcDbSymbolTableRecord
100
AcDbDimStyleTableRecord
  2
Standard
 70
0
 40
1.0
 41
2.5
 42
0.625
 43
3.75
 44
1.25
 45
0.0
 46
0.0
 47
0.0
 48
0.0
 49
2.5
140
2.5
141
2.5
142
0.0
143
0.03937007874
144
1.0
145
0.0
146
1.0
147
0.625
148
0.0
 69
0
 70
0
 71
0
 72
0
 73
0
 74
0
 75
0
 76
0
 77
1
 78
8
 79
3
170
0
171
3
172
1
173
0
174
0
175
0
176
0
177
0
178
0
179
2
271
2
272
2
273
2
274
3
275
0
276
0
277
2
278
44
279
0
280
0
281
0
282
0
283
0
284
8
285
0
286
0
288
0
289
3
290
0
371
-2
372
-2
  0
ENDTAB
  0
TABLE
  2
BLOCK_RECORD
  5
9
330
0
100
AcDbSymbolTable
 70
2
  0
BLOCK_RECORD
  5
17
330
9
100
AcDbSymbolTableRecord
100
AcDbBlockTableRecord
  2
*Model_Space
340
1A
 70
0
280
1
281
0
  0
BLOCK_RECORD
  5
1B
330
9
100
AcDbSymbolTableRecord
100
AcDbBlockTableRecord
  2
*Paper_Space
340
1E
 70
0
280
1
281
0
  0
ENDTAB
  0
ENDSEC
  0
SECTION
  2
BLOCKS
  0
BLOCK
  5
18
330
17
100
AcDbEntity
  8
0
100
AcDbBlockBegin
  2
*Model_Space
 70
0
 10
0.0
 20
0.0
 30
0.0
  3
*Model_Space
  1

  0
ENDBLK
  5
19
330
17
100
AcDbEntity
  8
0
100
AcDbBlockEnd
  0
BLOCK
  5
1C
330
1B
100
AcDbEntity
  8
0
100
AcDbBlockBegin
  2
*Paper_Space
 70
0
 10
0.0
 20
0.0
 30
0.0
  3
*Paper_Space
  1

  0
ENDBLK
  5
1D
330
1B
100
AcDbEntity
  8
0
100
AcDbBlockEnd
  0
ENDSEC
  0
SECTION
  2
ENTITIES
  0
LWPOLYLINE
  5
32
330
17
100
AcDbEntity
  8
CUT
100
AcDbPolyline
 90
134
 70
1
 10
91.41686922679997
 20
17.50000000079001
 10
539.0704517017
 20
17.5
 10
539.0704517017
 20
10.0
 10
91.4168747649
 20
10.000000000789996
 10
89.97878640199997
 20
10.009519240540001
 10
88.54095007360002
 20
10.038075291490003
 10
87.10361776989998
 20
10.085663148999998
 10
85.66704139289999
 20
10.152274472979997
 10
84.23147271210001
 20
10.237897589359989
 10
82.7971633203
 20
10.34251749213
 10
81.36436458970002
 20
10.46611584595999
 10
79.93332762770001
 20
10.608670989410001
 10
78.50430323299997
 20
10.770157938769998
 10
77.07754185149997
 20
10.950548392390004
 10
75.6532935326
 20
11.149810735639988
 10
74.23180788510001
 20
11.367910046489996
 10
72.8133340338
 20
11.6048081016
 10
71.3981205755
 20
11.860463383030009
 10
69.98641553570002
 20
12.134831085489992
 10
68.57846632510001
 20
12.42786312426
 10
67.174519696
 20
12.739508143519998
 10
65.77482169929999
 20
13.069711525439999
 10
64.37961764120001
 20
13.418415399699995
 10
62.989152040600004
 20
13.78555865365
 10
61.60366858560002
 20
14.171076943019997
 10
60.22341009140001
 20
14.574902703180001
 10
58.848618457300006
 20
14.99696516102
 10
57.47953462470002
 20
15.437190347300003
 10
56.11639853439999
 20
15.895501109669993
 10
54.7594490852
 20
16.37181712614
 10
53.40892409119999
 20
16.866054919189992
 10
52.06506024089998
 20
17.378127870399993
 10
50.72809305530001
 20
17.907946235609984
 10
49.39825684670001
 20
18.45541716065
 10
48.07578467769997
 20
19.020444697649992
 10
46.760908320199974
 20
19.602929821809994
 10
45.45385821489998
 20
20.202770448769996
 10
44.15486343099997
 20
20.819861452509997
 10
42.86415162589998
 20
21.454094683769995
 10
41.58194900540002
 20
22.10535898898999
 10
40.30848028380001
 20
22.77354022982999
 10
39.04396864500001
 20
23.458521303099985
 10
37.78863570289997
 20
24.160182161379993
 10
36.542701463000014
 20
24.878399833970008
 10
35.30638428340001
 20
25.613048448499995
 10
34.07990083679999
 20
26.36399925295001
 10
32.86346607249999
 20
27.131120638249996
 10
31.65729317879999
 20
27.91427816132
 10
30.461593545399978
 20
28.713334568660002
 10
29.276576726499968
 20
29.52814982036
 10
28.1024504042
 20
30.358581114689997
 10
26.939420351699994
 20
31.20448291308
 10
25.787690397900008
 20
32.06570696569
 10
24.6474623908
 20
32.94210233730999
 10
23.518936163100022
 20
33.83351543389
 10
22.402309496300006
 20
34.73979002940999
 10
21.29777808670002
 20
35.66076729328
 10
20.205535510599987
 20
36.59628581816
 10
19.125773190699988
 20
37.54618164829
 10
18.0586803626
 20
38.51028830813999
 10
17.004444041199974
 20
39.488436831689995
 10
15.963248988399982
 20
40.48045579194999
 10
14.935277680599995
 20
41.486171331080016
 10
13.920710276299985
 20
42.50540719079601
 10
12.91972458539999
 20
43.53798474330699
 10
11.932496037000021
 20
44.583723022594
 10
10.959197649600014
 20
45.642438756133004
 10
10.00000000030002
 20
46.713946397006
 10
10.0
 20
51.71392342733901
 10
20.314997472100004
 20
51.71392342760319
 10
20.314997471799984
 20
46.713946189751994
 10
21.196406810599967
 20
45.853093440772994
 10
22.088237971699982
 20
45.00304223174899
 10
22.990358593400003
 20
44.16391872365699
 10
23.90263478669999
 20
43.33584745562899
 10
24.824931155599984
 20
42.518951326468994
 10
25.75711081679998
 20
41.713351576419996
 10
26.699035419999973
 20
40.91916776916
 10
27.650565168900016
 20
40.13651777404999
 10
28.61155884149997
 20
39.36551774867999
 10
29.5818738113
 20
38.606282121579994
 10
30.56136606809997
 20
37.85892357526001
 10
31.54989023989998
 20
37.12355302949999
 10
32.547299614300016
 20
36.40027962484001
 10
33.55344615989998
 20
35.68921070645001
 10
34.56818054870001
 20
34.99045180812999
 10
35.591352178299985
 20
34.30410663672001
 10
36.62280919389997
 20
33.63027705662
 10
37.662398510900005
 20
32.96906307475001
 10
38.709965838000016
 20
32.32056282567001
 10
39.76535569980001
 20
31.68487255702999
 10
40.82841145959998
 20
31.062086615249996
 10
41.89897534350001
 20
30.452297431570003
 10
42.97688846279999
 20
29.855595508299984
 10
44.06199083820002
 20
29.272069405410008
 10
45.15412142349999
 20
28.701805727329997
 10
46.25311812929999
 20
28.14488911017
 10
47.358817847299974
 20
27.601402209130015
 10
48.4710564742
 20
27.071425686210006
 10
49.589668936199985
 20
26.555038198269983
 10
50.714489213700006
 20
26.052316385329988
 10
51.84535036569997
 20
25.563334859219992
 10
52.98208455449998
 20
25.08816619250001
 10
54.124523071
 20
24.626880907659995
 10
55.27249635919998
 20
24.179547466710005
 10
56.42583404200002
 20
23.746232260970004
 10
57.584364945699974
 20
23.32699960123
 10
58.74791712619998
 20
22.92191170820999
 10
59.91631789410002
 20
22.531028703339985
 10
61.08939384029998
 20
22.154408599790003
 10
62.266970861900006
 20
21.792107293919997
 10
63.448874187800016
 20
21.444178556949993
 10
64.63492840509997
 20
21.110674026970003
 10
65.82495748470001
 20
20.791643201309995
 10
67.01878480749997
 20
20.487133429149992
 10
68.2162331907
 20
20.19718990454001
 10
69.41712491409999
 20
19.921855659659997
 10
70.62128174669999
 20
19.661171558440003
 10
71.82852497239998
 20
19.415176290510004
 10
73.03867541739999
 20
19.183906365430005
 10
74.25155347650002
 20
18.96739610731001
 10
75.46697913920002
 20
18.76567764967001
 10
76.6847720175
 20
18.578780930699992
 10
77.90475137160001
 20
18.406733688809993
 10
79.12673613750002
 20
18.249561458529996
 10
80.35054495330002
 20
18.10728756668999
 10
81.57599618649999
 20
17.979933128970004
 10
82.80290796100002
 20
17.86751704676999
 10
84.03109818370001
 20
17.770056004419985
 10
85.26038457189998
 20
17.687564466650002
 10
86.49058467999998
 20
17.620054676509994
 10
87.72151592720002
 20
17.56753665353
 10
88.95299562370002
 20
17.53001819219
 10
90.1848409987
 20
17.50750486083001
  0
TEXT
  5
33
330
17
100
AcDbEntity
  8
LABELS_NOT_CUT
100
AcDbText
 10
34.45904691145279
 20
30.75719202341
 30
0.0
 40
2.0
  1
A62_F
100
AcDbText
  0
LWPOLYLINE
  5
34
330
17
100
AcDbEntity
  8
CUT
100
AcDbPolyline
 90
79
 70
1
 10
371.52224193439804
 20
70.45398659195723
 10
209.34999984118792
 20
71.72903316469154
 10
209.34999950560803
 20
65.0038204376529
 10
204.349999168228
 20
65.0038204376529
 10
204.349999507578
 20
71.76825133381146
 10
178.36976761423796
 20
71.97199354020586
 10
178.16317300534797
 20
71.96241750457017
 10
177.95880798013798
 20
71.93105032722701
 10
177.758673456618
 20
71.87880388588178
 10
177.56477035275805
 20
71.80659005823605
 10
177.37909958654802
 20
71.7153207219933
 10
177.20366207598795
 20
71.60590775485696
 10
177.04045873904795
 20
71.47926303452965
 10
176.89149049373793
 20
71.33629843871574
 10
176.790235763238
 20
71.21899774420405
 10
176.69851390405802
 20
71.09391945784296
 10
176.61672503230795
 20
70.96195298637417
 10
176.545269264078
 20
70.82398773653648
 10
176.484546715468
 20
70.68091311507266
 10
176.43495750256795
 20
70.53361852872041
 10
176.39690174147802
 20
70.38299338422348
 10
176.34483329616796
 20
70.07768307659336
 10
176.307083253158
 20
69.92784924555139
 10
176.25792134595793
 20
69.78130103881051
 10
176.19773950125796
 20
69.63891389998179
 10
176.12692964577798
 20
69.50156327268007
 10
176.04588370619797
 20
69.37012460051739
 10
175.95499360921792
 20
69.24547332710756
 10
175.85465128155795
 20
69.12848489606353
 10
175.70700793375795
 20
68.98573887695204
 10
175.545221319608
 20
68.85907995561877
 10
175.37125537982797
 20
68.74941605476494
 10
175.18707405516795
 20
68.65765509709559
 10
174.99464128636794
 20
68.58470500531291
 10
174.795921014158
 20
68.53147370212105
 10
174.59287717928794
 20
68.4988691102231
 10
174.38747372249793
 20
68.48779915232319
 10
128.353020317418
 20
68.48779915232319
 10
128.187349409248
 20
68.49486130685085
 10
128.02274712798805
 20
68.51580058153758
 10
127.86034795436797
 20
68.55024619304447
 10
127.70128636912796
 20
68.5978273580277
 10
127.54669685301803
 20
68.65817329314632
 10
127.39771388676797
 20
68.73091321506053
 10
127.25547195112802
 20
68.81567634042835
 10
127.12110552682805
 20
68.91209188590801
 10
126.95592287987802
 20
69.05788399509811
 10
126.80801289080796
 20
69.22137098441891
 10
126.67863045378806
 20
69.40019149085413
 10
126.56903046301795
 20
69.59198415138627
 10
126.48046781264804
 20
69.79438760299792
 10
126.41419739685796
 20
70.00504048267175
 10
126.371474109838
 20
70.22158142739232
 10
126.33579263281797
 20
70.66061226088715
 10
126.29348452717795
 20
70.87610173169907
 10
126.22785902539806
 20
71.08578863380473
 10
126.14014662403804
 20
71.28734411443293
 10
126.03157781967798
 20
71.47843932081253
 10
125.90338310890797
 20
71.65674540017233
 10
125.756792988278
 20
71.81993349974107
 10
125.59303795437802
 20
71.96567476674761
 10
125.459796679448
 20
72.0622320690901
 10
125.31870694167799
 20
72.14729377861698
 10
125.17088338772794
 20
72.22048812566089
 10
125.01744066428796
 20
72.28144334055162
 10
124.85949341799801
 20
72.32978765362208
 10
124.69815629555796
 20
72.36514929520291
 10
124.53454394360801
 20
72.38715649562693
 10
124.36977100884803
 20
72.39543748522595
 10
14.999999663965013
 20
73.25407383216202
 10
14.999999663965013
 20
65.0038253067666
 10
10.0
 20
65.0038204376529
 10
10.0
 20
56.71392342760316
 10
84.99999966395796
 20
57.35804283624674
 10
84.99999966395796
 20
62.7850706129949
 10
89.99999966395796
 20
62.78507062462893
 10
89.99999966395796
 20
57.40098413034872
 10
443.99999964020765
 20
60.44194146034761
 10
444.00000058579326
 20
69.86633243605502
  0
TEXT
  5
35
330
17
100
AcDbEntity
  8
LABELS_NOT_CUT
100
AcDbText
 10
226.99999999330538
 20
63.89444553114092
 30
0.0
 40
2.0
  1
A05_L
100
AcDbText
  0
LWPOLYLINE
  5
36
330
17
100
AcDbEntity
  8
CUT
100
AcDbPolyline
 90
7
 70
1
 10
10.0
 20
78.25407383216205
 10
453.00002128199003
 20
81.74830346503379
 10
453.00002128199003
 20
85.22636354567581
 10
381.89112310406995
 20
85.57157126969608
 10
298.85437736986
 20
85.9854264289921
 10
113.62955161339005
 20
86.92886950137805
 10
10.0
 20
87.46745379136175
  0
TEXT
  5
37
330
17
100
AcDbEntity
  8
LABELS_NOT_CUT
100
AcDbText
 10
231.50001064099501
 20
83.4873335053548
 30
0.0
 40
2.0
  1
A07_L_O
100
AcDbText
  0
LWPOLYLINE
  5
38
330
17
100
AcDbEntity
  8
CUT
100
AcDbPolyline
 90
305
 70
1
 10
553.6444702189941
 20
91.3176216006022
 10
553.6444702189941
 20
93.42080501565918
 10
553.644464220536
 20
92.42080511566618
 10
543.644464220536
 20
92.42080511566618
 10
543.644464220536
 20
98.42080511566613
 10
553.6444702189941
 20
98.42080501565849
 10
553.6444702189941
 20
98.98612536580819
 10
553.379929608676
 20
99.98967680432318
 10
553.0853356060851
 20
101.00765712016819
 10
552.760975704518
 20
102.0386813878032
 10
552.4071373972739
 20
103.08136468168819
 10
552.024108177649
 20
104.13432207628219
 10
551.61217553894
 20
105.19616864604619
 10
551.1716269744439
 20
106.26551946543918
 10
550.7027499774591
 20
107.34098960892219
 10
550.3401326401391
 20
108.13516217282918
 10
549.9629157928251
 20
108.93143230062519
 10
549.571356557985
 20
109.72935712873118
 10
549.165712058087
 20
110.52849379357218
 10
548.746239415596
 20
111.32839943156918
 10
548.313195752981
 20
112.1286311791462
 10
547.866838192707
 20
112.92874617272719
 10
547.4074238572431
 20
113.72830154873418
 10
546.935209869055
 20
114.5268544435902
 10
546.4504533506109
 20
115.32396199371918
 10
545.953411424376
 20
116.1191813355442
 10
545.444341212819
 20
116.91206960548719
 10
544.923499838406
 20
117.70218393997219
 10
544.3911444236049
 20
118.48908147542319
 10
543.847532090882
 20
119.27231934826119
 10
543.2929199627041
 20
120.05145469491019
 10
542.727565161539
 20
120.82604465179419
 10
542.151724809854
 20
121.59564635533519
 10
541.5656560301139
 20
122.35981694195719
 10
540.9696159447891
 20
123.11811354808219
 10
540.3638616763441
 20
123.8700933101342
 10
539.748650347247
 20
124.61531336453619
 10
539.124239079964
 20
125.35333084771119
 10
538.490884996963
 20
126.08370289608219
 10
537.848845220711
 20
126.80598664607218
 10
537.1983768736751
 20
127.51973923410517
 10
536.5397370783211
 20
128.22451779660318
 10
535.8731829571171
 20
128.91987946998918
 10
535.1989716325301
 20
129.60538139068717
 10
534.5173602270271
 20
130.2805806951202
 10
533.828605863075
 20
130.9450345197102
 10
533.1329656631411
 20
131.59830000088118
 10
532.0846815262199
 20
132.5496199839972
 10
531.022890964225
 20
133.4737655637512
 10
529.9486285050451
 20
134.36955659992418
 10
528.862928676571
 20
135.23581295229718
 10
527.7668260066931
 20
136.0713544806512
 10
526.661355023302
 20
136.8750010447672
 10
525.547550254288
 20
137.6455725044252
 10
524.426446227542
 20
138.3818887194072
 10
523.2990774709541
 20
139.0827695494932
 10
522.166478512415
 20
139.7470348544632
 10
521.0296838798159
 20
140.3735044941002
 10
519.8897281010451
 20
140.9609983281832
 10
518.7476457039951
 20
141.50833621649417
 10
517.6044712165561
 20
142.0143380188132
 10
516.461239166617
 20
142.4778235949212
 10
515.889924845677
 20
142.6932540043282
 10
515.31898408207
 20
142.8976128045992
 10
514.7163524106471
 20
143.1014410664282
 10
514.114532811146
 20
143.29281567270817
 10
513.513610854604
 20
143.47164051126418
 10
512.9136721120591
 20
143.6378194699252
 10
512.314802154545
 20
143.7912564365152
 10
511.7170865531001
 20
143.93185529886318
 10
511.1206108787611
 20
144.05951994479318
 10
510.5254607025639
 20
144.17415426213418
 10
509.9317215955451
 20
144.2756621387122
 10
509.3394791287411
 20
144.36394746235317
 10
508.7488188731901
 20
144.4389141208842
 10
508.1598263999259
 20
144.5004660021312
 10
507.57258727998703
 20
144.5485069939222
 10
506.98718708441004
 20
144.5829409840822
 10
506.4037113842311
 20
144.6036718604392
 10
505.8222457504859
 20
144.61060351081818
 10
505.2407801167411
 20
144.6036718604392
 10
504.65730441656194
 20
144.5829409840822
 10
504.07190422098495
 20
144.5485069939222
 10
503.48466510104697
 20
144.50046600213219
 10
502.89567262778394
 20
144.4389141208842
 10
502.305012372232
 20
144.3639474623542
 10
501.7127699054291
 20
144.2756621387132
 10
501.119030798411
 20
144.1741542621352
 10
500.52388062221405
 20
144.0595199447952
 10
499.92740494787506
 20
143.9318552988642
 10
499.3296893464311
 20
143.7912564365172
 10
498.7308193889181
 20
143.6378194699262
 10
498.130880646372
 20
143.4716405112662
 10
497.529958689831
 20
143.2928156727102
 10
496.928139090331
 20
143.1014410664302
 10
496.32550741890793
 20
142.89761280460118
 10
495.75456665531
 20
142.69325400433019
 10
495.18325233436997
 20
142.4778235949232
 10
494.04002028442994
 20
142.01433801881618
 10
492.8968457969901
 20
141.50833621649718
 10
491.7547633999401
 20
140.9609983281872
 10
490.61480762117003
 20
140.3735044941052
 10
489.4780129885701
 20
139.74703485446918
 10
488.34541403003004
 20
139.08276954949818
 10
487.21804527345
 20
138.38188871941318
 10
486.0969412467
 20
137.6455725044322
 10
484.98313647769
 20
136.8750010447742
 10
483.8776654943
 20
136.07135448065918
 10
482.78156282442
 20
135.2358129523062
 10
481.69586299595005
 20
134.36955659993322
 10
480.6216005367701
 20
133.4737655637602
 10
479.55980997477
 20
132.5496199840062
 10
478.51152583785006
 20
131.5983000008912
 10
477.81588563792
 20
130.9450345197192
 10
477.12713127396
 20
130.28058069512917
 10
476.44551986846
 20
129.6053813906962
 10
475.7713085438701
 20
128.9198794699982
 10
475.10475442267
 20
128.2245177966122
 10
474.44611462732007
 20
127.51973923411418
 10
473.79564628028004
 20
126.80598664608118
 10
473.15360650403
 20
126.0837028960912
 10
472.52025242103
 20
125.35333084771919
 10
471.89584115374
 20
124.61531336454418
 10
471.2806298246401
 20
123.8700933101422
 10
470.67487555620005
 20
123.11811354809018
 10
470.07883547087
 20
122.35981694196418
 10
469.49276669113
 20
121.59564635534218
 10
468.91692633945
 20
120.82604465180019
 10
468.35157153828004
 20
120.05145469491619
 10
467.79695941010004
 20
119.2723193482662
 10
467.25334707738
 20
118.48908147542818
 10
466.72099166258
 20
117.70218393997719
 10
466.20015028817
 20
116.91206960549219
 10
465.69108007661
 20
116.11918133554819
 10
465.19403815037003
 20
115.32396199372319
 10
464.70928163193
 20
114.52685444359419
 10
464.23706764374003
 20
113.72830154873819
 10
463.77765330828004
 20
112.9287461727312
 10
463.331295748
 20
112.12863117915019
 10
462.89825208539
 20
111.3283994315722
 10
462.4787794429001
 20
110.5284937935752
 10
462.073134943
 20
109.72935712873519
 10
461.68157570816004
 20
108.93143230062918
 10
461.30435886084
 20
108.13516217283319
 10
460.94174152352
 20
107.34098960892618
 10
460.47286452654
 20
106.26551946544419
 10
460.03231596204
 20
105.1961686460532
 10
459.62038332333
 20
104.13432207629118
 10
459.23735410371
 20
103.08136468169918
 10
458.8835157964701
 20
102.03868138781819
 10
458.5591558949001
 20
101.0076571201862
 10
458.26456189231
 20
99.9896768043452
 10
458.00002128199003
 20
98.9861253658342
 10
458.00002128199003
 20
98.42080501565994
 10
468.00002128198
 20
98.42080501565948
 10
468.00001595002004
 20
92.4208051156661
 10
458.00002128199003
 20
92.42080511566608
 10
458.00002128199003
 20
91.3176216005902
 10
458.01747500382
 20
90.6572895528102
 10
458.06978742813
 20
89.99880154533119
 10
458.15681246746
 20
89.3439964687932
 10
458.2783070961
 20
88.69470292890318
 10
458.43393202868003
 20
88.0527341398732
 10
458.62325266773007
 20
87.41988286085319
 10
458.84574031728005
 20
86.79791638946318
 10
459.10077365931
 20
86.18857162647319
 10
459.46695300619
 20
85.3934133221232
 10
459.84699290269
 20
84.6047855771532
 10
460.2407769298301
 20
83.82292997473319
 10
460.64818445834
 20
83.0480860234832
 10
461.06909068561004
 20
82.2804910841432
 10
461.50336667393003
 20
81.52038029679319
 10
461.95087938997005
 20
80.7679865089132
 10
462.41149174558007
 20
80.02354020398319
 10
462.88506263971
 20
79.28726943089319
 10
463.37144700170006
 20
78.55939973412319
 10
463.87049583568
 20
77.8401540845932
 10
464.38205626624006
 20
77.1297528114032
 10
464.9059715852301
 20
76.4284135343132
 10
465.44208129981007
 20
75.73635109710318
 10
465.99022118157006
 20
75.05377750172319
 10
466.55022331684006
 20
74.38090184341318
 10
467.12191615818006
 20
73.71793024656318
 10
467.70512457686004
 20
73.06506580164319
 10
468.29966991657
 20
72.42250850295319
 10
468.90537004809005
 20
71.7904551873632
 10
469.52203942515007
 20
71.16909947405318
 10
470.14948914119
 20
70.55863170512319
 10
470.78752698731
 20
69.95923888736318
 10
471.43595751108
 20
69.3711046349132
 10
472.09458207647003
 20
68.79440911304319
 10
472.76319892464005
 20
68.22932898296318
 10
473.4416032358
 20
67.67603734769318
 10
474.12958719194
 20
67.13470369904319
 10
474.82694004046004
 20
66.60549386568319
 10
475.53344815877006
 20
66.08856996235319
 10
476.2488951197
 20
65.5840903402132
 10
476.97306175784
 20
65.0922095383132
 10
477.7057262366101
 20
64.61307823624318
 10
478.44666411628
 20
64.14684320803319
 10
479.19564842270006
 20
63.69364727711319
 10
479.9524497168301
 20
63.25362927262319
 10
480.71683616501
 20
62.82692398685319
 10
481.48857361
 20
62.41366213396319
 10
482.26742564272
 20
62.01397030993319
 10
483.05315367463004
 20
61.62797095379319
 10
483.84551701084
 20
61.25578231010319
 10
484.64427292386006
 20
60.897518392743194
 10
485.44917672792997
 20
60.55328894999319
 10
486.25998185399
 20
60.22319943088319
 10
487.07643992519
 20
59.90735095291319
 10
487.89830083302
 20
59.60584027108319
 10
488.72531281387
 20
59.31875974824319
 10
489.55722252621
 20
59.04619732679319
 10
490.39377512814997
 20
58.788236501763194
 10
491.23471435554006
 20
58.54495629520319
 10
492.07978260045013
 20
58.31643123202319
 10
492.92872099011004
 20
58.10273131711319
 10
493.7812694661701
 20
57.903922013943195
 10
494.63716686442
 20
57.72006422447319
 10
495.4961509947201
 20
57.55121427052319
 10
496.35795872140204
 20
57.39742387650319
 10
497.2223260438169
 20
57.25874015356319
 10
498.08898817722604
 20
57.13520558520319
 10
498.95767963391506
 20
57.02685801419319
 10
499.82813430451813
 20
56.93373063104319
 10
500.700085539538
 20
56.85585196380319
 10
501.573266231033
 20
56.79324586930319
 10
502.4474088944331
 20
56.74593152591319
 10
503.3222457504861
 20
56.71392342760319
 10
503.3222457504861
 20
64.20685882685319
 10
508.3222457504861
 20
64.20685882685319
 10
508.3222457504859
 20
56.71392342760319
 10
508.75973420712205
 20
56.72801347336319
 10
509.1970826065391
 20
56.74593152591319
 10
510.07122526993896
 20
56.79324586930319
 10
510.944405961434
 20
56.85585196380319
 10
511.816357196455
 20
56.93373063104319
 10
512.686811867058
 20
57.02685801419319
 10
513.5555033237471
 20
57.13520558520319
 10
514.4221654571571
 20
57.25874015356319
 10
515.286532779572
 20
57.39742387650319
 10
516.148340506256
 20
57.55121427052319
 10
517.007324636562
 20
57.72006422448319
 10
517.8632220348039
 20
57.903922013943195
 10
518.715770510869
 20
58.102731317123194
 10
519.5647089005271
 20
58.31643123202319
 10
520.409777145443
 20
58.54495629520319
 10
521.2507163728329
 20
58.788236501763194
 10
522.087268974774
 20
59.04619732680319
 10
522.919178687111
 20
59.31875974824319
 10
523.7461906679631
 20
59.60584027109319
 10
524.568051575788
 20
59.90735095291319
 10
525.384509646991
 20
60.22319943088319
 10
526.195314773047
 20
60.55328894999319
 10
527.0002185771181
 20
60.89751839275319
 10
527.798974490141
 20
61.25578231010319
 10
528.5913378263541
 20
61.62797095379319
 10
529.3770658582611
 20
62.01397030994319
 10
530.1559178909789
 20
62.41366213397319
 10
530.927655335976
 20
62.82692398686319
 10
531.6920417841571
 20
63.25362927263319
 10
532.4488430782841
 20
63.69364727712319
 10
533.1978273847061
 20
64.1468432080432
 10
533.938765264378
 20
64.61307823625319
 10
534.6714297431471
 20
65.0922095383132
 10
535.395596381279
 20
65.58409034022318
 10
536.1110433422151
 20
66.08856996236318
 10
536.817551460524
 20
66.60549386569319
 10
537.5149043090449
 20
67.13470369905319
 10
538.2028882651831
 20
67.67603734770319
 10
538.8812925763481
 20
68.22932898297319
 10
539.549909424518
 20
68.79440911305319
 10
540.208533989901
 20
69.37110463492319
 10
540.8569645136741
 20
69.95923888737319
 10
541.495002359792
 20
70.5586317051332
 10
542.1224520758379
 20
71.16909947406319
 10
542.7391214528931
 20
71.79045518738319
 10
543.344821584419
 20
72.42250850296318
 10
543.939366924125
 20
73.06506580165319
 10
544.522575342808
 20
73.71793024657319
 10
545.094268184144
 20
74.38090184342319
 10
545.654270319419
 20
75.05377750174318
 10
546.2024102011729
 20
75.73635109711319
 10
546.738519915753
 20
76.42841353432318
 10
547.2624352347501
 20
77.12975281141318
 10
547.773995665308
 20
77.84015408460318
 10
548.2730444992891
 20
78.5593997341332
 10
548.759428861276
 20
79.28726943091318
 10
549.232999755406
 20
80.02354020399319
 10
549.693612111011
 20
80.76798650893319
 10
550.141124827058
 20
81.52038029681319
 10
550.5754008153759
 20
82.28049108415318
 10
550.9963070426439
 20
83.04808602350319
 10
551.4037145711519
 20
83.82292997475318
 10
551.7974985982911
 20
84.60478557717319
 10
552.1775384947911
 20
85.39341332214319
 10
552.54371784167
 20
86.18857162649319
 10
552.7987511837101
 20
86.79791638948319
 10
553.0212388332571
 20
87.41988286087319
 10
553.2105594723049
 20
88.05273413989319
 10
553.3661844048901
 20
88.6947029289172
 10
553.487679033526
 20
89.34399646880718
 10
553.5747040728621
 20
89.99880154534418
 10
553.6270164971651
 20
90.65728955282319
  0
LWPOLYLINE
  5
39
330
17
100
AcDbEntity
  8
CUT
100
AcDbPolyline
 90
127
 70
1
 10
474.56887104821
 20
78.89608690910319
 10
473.82224575048997
 20
79.7276747554532
 10
473.82224575048997
 20
112.10974743561319
 10
474.55107584548
 20
113.20321836590318
 10
475.30534558872
 20
114.2910890014642
 10
476.08386461304997
 20
115.37114946502619
 10
476.88544255128
 20
116.44118987931519
 10
477.70888903623006
 20
117.49900036705918
 10
478.55301370074005
 20
118.5423710509852
 10
479.41662617761006
 20
119.56909205382219
 10
480.29853609968006
 20
120.57695349829719
 10
481.35275555049
 20
121.73110617426819
 10
482.42732189972
 20
122.85433625993119
 10
483.0381701734
 20
123.46981198969519
 10
483.65422458227
 20
124.07406356977619
 10
484.47906410302005
 20
124.85769073350619
 10
484.6277432619801
 20
124.99588495632418
 10
485.22143964219003
 20
125.53826032430818
 10
485.81919031261
 20
126.06929721652818
 10
486.42050346964004
 20
126.58870350119818
 10
487.02488730967
 20
127.09618704653218
 10
487.63185002909006
 20
127.59145572074519
 10
488.24089982428006
 20
128.07421739205017
 10
488.85154489165006
 20
128.54417992866018
 10
489.46329342756997
 20
129.0010511987902
 10
490.60097571815004
 20
129.8140263626862
 10
491.73761362884
 20
130.5789461262762
 10
492.8700528395301
 20
131.29394114233116
 10
493.4337122073599
 20
131.6321326990262
 10
493.99513903014997
 20
131.9571420636272
 10
494.80877397964
 20
132.4068432124132
 10
495.61560511560003
 20
132.82731113892618
 10
496.414411287412
 20
133.21782354425818
 10
497.20397134444204
 20
133.57765812950018
 10
498.0976790547621
 20
133.9529923185042
 10
498.960290100326
 20
134.28261718312018
 10
499.37291547840107
 20
134.42856910465918
 10
499.947938682115
 20
134.61915364687619
 10
500.51350962088907
 20
134.7918165201212
 10
501.0770311195539
 20
134.9488856979142
 10
501.631052659185
 20
135.0883383572562
 10
502.18869518659005
 20
135.2132831882992
 10
502.736558405917
 20
135.32051011673718
 10
503.27907778254496
 20
135.4110417590412
 10
503.8118121317949
 20
135.4842745632522
 10
504.34432466520514
 20
135.5414163008002
 10
504.86681253276095
 20
135.5812915855882
 10
505.3489241166011
 20
135.6033157320982
 10
505.8222457504859
 20
135.6106035108182
 10
506.2955673843891
 20
135.6033157320972
 10
506.777678968249
 20
135.5812915855862
 10
507.300166835798
 20
135.54141630079818
 10
507.83267936920095
 20
135.4842745632492
 10
508.36541371845
 20
135.41104175903718
 10
508.9079330950759
 20
135.32051011673317
 10
509.45579631440694
 20
135.2132831882942
 10
510.0134388418161
 20
135.0883383572492
 10
510.567460381434
 20
134.9488856979102
 10
511.1309818800861
 20
134.7918165201202
 10
511.696552818859
 20
134.6191536468752
 10
512.271576022572
 20
134.4285691046582
 10
512.684201400658
 20
134.2826171831162
 10
513.5468124462831
 20
133.9529923184732
 10
514.440520156539
 20
133.5776581294962
 10
515.2300802140729
 20
133.2178235440162
 10
516.0288863864051
 20
132.8273111384072
 10
516.835717522897
 20
132.4068432115792
 10
517.6493524729091
 20
131.95714206244418
 10
518.2107792955779
 20
131.63213269787218
 10
518.7744386632761
 20
131.2939411412142
 10
519.906877873714
 20
130.5789461252512
 10
521.0435157841331
 20
129.81402636178217
 10
522.1811980744429
 20
129.00105119803018
 10
522.792946610237
 20
128.5441799279742
 10
523.403591677472
 20
128.07421739144417
 10
524.012641472539
 20
127.5914557202252
 10
524.6196041918271
 20
127.09618704610419
 10
525.223988031728
 20
126.58870350086619
 10
525.825301188631
 20
126.0692972162982
 10
526.423051858928
 20
125.53826032418519
 10
527.016748239009
 20
124.99588495631319
 10
527.1654273993851
 20
124.85769073216919
 10
527.9902669197601
 20
124.0740635687572
 10
528.606321328108
 20
123.46981198917419
 10
529.21716960126
 20
122.85433625992619
 10
530.2917359504901
 20
121.73110617426919
 10
531.345955401294
 20
120.5769534983032
 10
532.2278653233619
 20
119.56909205382718
 10
533.091477800236
 20
118.54237105099018
 10
533.9356024647401
 20
117.4990003670622
 10
534.759048949696
 20
116.44118987931719
 10
535.560626887927
 20
115.37114946502719
 10
536.339145912253
 20
114.2910890014652
 10
537.093415655498
 20
113.20321836590318
 10
537.8222457504861
 20
112.10974743561219
 10
537.82224575049
 20
79.72767475546318
 10
537.0756204527689
 20
78.8960869091132
 10
536.3066164715129
 20
78.08514883613319
 10
535.515804696908
 20
77.29546255757319
 10
534.703772208721
 20
76.52761431767318
 10
533.8711218404741
 20
75.78217414860319
 10
533.018471731909
 20
75.05969544735319
 10
532.1464548700961
 20
74.36071456484319
 10
531.255718619521
 20
73.6857504077932
 10
530.3469242414991
 20
73.03530405345319
 10
529.4207464032639
 20
72.40985837767319
 10
528.477872677118
 20
71.80987769636319
 10
527.519003029991
 20
71.23580742086318
 10
526.544849303801
 20
70.68807372722318
 10
525.5561346870021
 20
70.16708323986319
 10
524.5535931777071
 20
69.67322272965319
 10
523.53796903878
 20
69.20685882686318
 10
488.10652246224004
 20
69.20685882684319
 10
487.09089832331006
 20
69.67322272963318
 10
486.08835681401
 20
70.16708323983319
 10
485.0996421972101
 20
70.68807372720319
 10
484.12548847102005
 20
71.23580742084319
 10
483.1666188238901
 20
71.8098776963432
 10
482.22374509774
 20
72.40985837764319
 10
481.29756725950006
 20
73.03530405343318
 10
480.38877288148
 20
73.68575040777318
 10
479.49803663090006
 20
74.36071456483319
 10
478.62601976909
 20
75.05969544733318
 10
477.7733696605201
 20
75.78217414859319
 10
476.94071929227005
 20
76.52761431765319
 10
476.1286868040801
 20
77.29546255756318
 10
475.33787502947007
 20
78.08514883612318
  0
TEXT
  5
3A
330
17
100
AcDbEntity
  8
LABELS_NOT_CUT
100
AcDbText
 10
545.5274391789324
 20
100.49866696225669
 30
0.0
 40
2.0
  1
A54
100
AcDbText
  0
LWPOLYLINE
  5
3B
330
17
100
AcDbEntity
  8
CUT
100
AcDbPolyline
 90
122
 70
1
 10
184.55535063255002
 20
106.78245251666067
 10
187.63793398762982
 20
107.48396866514048
 10
190.69369195113995
 20
108.19083103624502
 10
193.6631859107299
 20
108.88894101365645
 10
108.61694089098984
 20
109.0414742491065
 10
89.52272009416083
 20
109.07084971747247
 10
77.84481077612986
 20
109.09206437113448
 10
73.31596844235582
 20
109.1031134379125
 10
66.20224154733484
 20
109.12351375889546
 10
61.833210367456786
 20
109.13393244353449
 10
57.93693407841488
 20
109.13531727689394
 10
53.33597965877581
 20
109.11486250293501
 10
48.29527843635083
 20
109.06175757525051
 10
44.26080710174284
 20
108.99104930975847
 10
42.91429484138382
 20
108.96028918445234
 10
40.827247054471854
 20
108.9048614201186
 10
38.73246768032885
 20
108.83915432419019
 10
35.57434190652782
 20
108.71857002206173
 10
32.60660913184287
 20
108.57922171081299
 10
29.85034144238682
 20
108.42352409355203
 10
27.422639325037835
 20
108.26342846413752
 10
26.10527562778583
 20
108.16683993367752
 10
23.903266623469847
 20
107.9900580581484
 10
21.38075754400785
 20
107.76674233347836
 10
20.003090434879766
 20
107.63379891053734
 10
18.65381904023991
 20
107.48626215448382
 10
17.333377908153807
 20
107.31789449902271
 10
16.042201586687895
 20
107.1224583778511
 10
14.823488353156904
 20
106.89813610897318
 10
13.391596855938815
 20
106.60059064408358
 10
11.96293310434396
 20
106.27707500671505
 10
10.753903107683811
 20
105.97484222040356
 10
10.25073881386382
 20
105.82987050364653
 10
10.0
 20
105.74759417437764
 10
10.270034904507554
 20
105.49200131656318
 10
10.907130679737008
 20
104.91344262051467
 10
11.379374331056368
 20
104.50085192597595
 10
11.832465745491959
 20
104.11829526683562
 10
12.313972991769901
 20
103.7352514130036
 10
12.841489824273907
 20
103.34475671201261
 10
13.432609997385896
 20
102.93984751139755
 10
14.006904393741735
 20
102.5745343073093
 10
14.651996196336881
 20
102.19276174916757
 10
15.376172284583618
 20
101.79474836684403
 10
16.1877195378959
 20
101.38071269021162
 10
17.094924835686925
 20
100.95087324914061
 10
18.10607505736664
 20
100.505448573504
 10
19.229457082351075
 20
100.04465719317511
 10
20.473357790051807
 20
99.56871763802343
 10
20.672473832102952
 20
99.49540241210883
 10
21.345988857330724
 20
99.25230102207018
 10
22.175092368274875
 20
98.96287662744959
 10
23.069032221681937
 20
98.66220091336083
 10
24.011470830711005
 20
98.35712154793305
 10
25.66575136415267
 20
97.85051588449585
 10
27.388682923736866
 20
97.35661577640457
 10
29.12326966609578
 20
96.88953812149828
 10
30.812515747863927
 20
96.46339981761685
 10
31.91079039808585
 20
96.20167638648655
 10
32.945482837320924
 20
95.96516377841084
 10
34.936977904779724
 20
95.53605608721
 10
37.01684559914577
 20
95.1229139909122
 10
39.18340695275799
 20
94.72858217353138
 10
41.43498299795459
 20
94.35590531907877
 10
43.126346984260834
 20
94.09984911610155
 10
44.8608987600098
 20
93.85777781079435
 10
45.56422405692388
 20
93.76555628918783
 10
46.27414740673086
 20
93.67612912752679
 10
47.715479580725884
 20
93.50585996152876
 10
49.176313837426875
 20
93.34863407804386
 10
50.634536786799885
 20
93.20682988488784
 10
52.85063942708979
 20
93.01958577908982
 10
55.03470751832583
 20
92.86668685334047
 10
57.21763128763587
 20
92.74309633777204
 10
59.390648636264814
 20
92.64703772376998
 10
61.64059973758384
 20
92.57274977696721
 10
63.93469817910989
 20
92.51995352135299
 10
66.2595804478608
 20
92.48642454631141
 10
68.60188303085488
 20
92.46993844122898
 10
70.69161982652486
 20
92.46745379136178
 10
72.85741011654682
 20
92.47453877854855
 10
75.77091704476982
 20
92.49662268221965
 10
78.70362117269019
 20
92.53400681879049
 10
78.71048762310983
 20
100.8015719331658
 10
83.71048589866598
 20
100.79741929090846
 10
83.70371118402682
 20
92.64030884994173
 10
87.17052230490884
 20
92.7499074296332
 10
89.53218715739581
 20
92.84274704280267
 10
91.87409163432585
 20
92.94967845070875
 10
94.18644120499386
 20
93.07001976658995
 10
96.46770998840583
 20
93.20352342037927
 10
98.61094049980977
 20
93.34228318037287
 10
100.80798798775982
 20
93.49737418577871
 10
103.0138015376499
 20
93.66538750945284
 10
105.18333023488981
 20
93.84291422425497
 10
108.02788300027976
 20
94.09422501155126
 10
110.22161479772996
 20
94.30173392814623
 10
112.47455378881989
 20
94.52664241975992
 10
114.77361215055976
 20
94.76767806180698
 10
117.10570206001125
 20
95.02356842970147
 10
117.11182988790983
 20
102.40179343422773
 10
122.1118281634715
 20
102.3976407919705
 10
122.10619071935963
 20
95.60986349114518
 10
126.25631274158997
 20
96.13499645312356
 10
130.44803131012986
 20
96.69988008154218
 10
133.40986067544986
 20
97.12094658160049
 10
135.6831856823901
 20
97.4564071385389
 10
138.01231764660992
 20
97.81063003280997
 10
140.35101662427985
 20
98.17643157211137
 10
142.65304267158962
 20
98.5466280641499
 10
145.57365936139013
 20
99.03092985350668
 10
148.64272581941964
 20
99.55650268237645
 10
151.83273484296012
 20
100.120370315939
 10
154.98882014253007
 20
100.69490801849724
 10
159.11111770274988
 20
101.46966787013514
 10
161.5779320349494
 20
101.9458451700097
 10
164.9059617184999
 20
102.60259375784818
 10
168.19165000133955
 20
103.26620815057208
 10
171.91693685128018
 20
104.0363322523229
 10
176.3001945064599
 20
104.96521285993924
 10
179.20462517302929
 20
105.59418751542512
 10
181.5053804990904
 20
106.10038120712625
  0
LWPOLYLINE
  5
3C
330
17
100
AcDbEntity
  8
CUT
100
AcDbPolyline
 90
91
 70
1
 10
50.30899742194728
 20
104.1367136764905
 10
50.30958984247616
 20
104.01995589726454
 10
50.296575627795846
 20
103.90392417665248
 10
50.27067462527205
 20
103.7900385043124
 10
50.182934829744084
 20
103.47449864995843
 10
50.105574992711894
 20
103.15625483301949
 10
50.03867809317694
 20
102.83564841349846
 10
49.98231588721006
 20
102.51302328561246
 10
49.93654883098094
 20
102.1887255089166
 10
49.90142601591691
 20
101.86310293711449
 10
49.87698511603847
 20
101.53650484493045
 10
49.863252347550315
 20
101.20928155346849
 10
49.860242440725614
 20
100.88178405444546
 10
49.867958624101504
 20
100.55436363370251
 10
49.88639262101418
 20
100.22737149440445
 10
49.915524658483776
 20
99.90115838032347
 10
49.95532348841684
 20
99.57607419962346
 10
50.00574642112761
 20
99.25246764953164
 10
50.06673937112555
 20
98.9306858423144
 10
50.13838104117275
 20
98.61110855835148
 10
50.15921846024801
 20
98.49351611738547
 10
50.165896217991985
 20
98.37427859075149
 10
50.15831917215914
 20
98.25509483102462
 10
50.136595277723416
 20
98.1376629247273
 10
50.101034048767815
 20
98.02365599861548
 10
50.0521421486485
 20
97.91469838158565
 10
49.990616171237576
 20
97.81234246182669
 10
49.91733271610923
 20
97.7180465689641
 10
49.83333589907076
 20
97.63315419631857
 10
49.73982247598212
 20
97.558874859296
 10
49.63812479181874
 20
97.49626686266572
 10
49.52969179790895
 20
97.44622222221409
 10
49.41606840780386
 20
97.4094539556354
 10
49.298873485917824
 20
97.3864859237147
 10
49.17977678254084
 20
97.3776453665518
 10
49.06040724330987
 20
97.3824143025796
 10
48.16423024009492
 20
97.48060811024516
 10
46.76394707016888
 20
97.64602790327575
 10
45.734294266339845
 20
97.77704483864346
 10
45.390929177864734
 20
97.82250576566673
 10
43.73435173648076
 20
98.0534954953551
 10
42.056758626791975
 20
98.30728420086228
 10
40.01309811300274
 20
98.64461446349094
 10
37.949915840987615
 20
99.01759829807145
 10
35.88095294412085
 20
99.42570573779653
 10
33.81995055577289
 20
99.86840681585869
 10
31.75836969777589
 20
100.34996131918064
 10
30.10357047076843
 20
100.76625090114806
 10
28.466393339425963
 20
101.20613310758097
 10
26.850733019010818
 20
101.66977500326038
 10
25.26065918071174
 20
102.1578953300492
 10
25.10179604927265
 20
102.22379595066224
 10
24.956578329033192
 20
102.31594908439286
 10
24.829303542830985
 20
102.43162758336763
 10
24.723738216537697
 20
102.56740809821639
 10
24.64300641380015
 20
102.71927238748327
 10
24.589497283583853
 20
102.88272623207348
 10
24.564794356526363
 20
103.05293243561147
 10
24.56962868248121
 20
103.22485397475242
 10
24.603857196082714
 20
103.39340306310453
 10
24.66646695057335
 20
103.55359171741776
 10
24.75560509459814
 20
103.70067937022225
 10
24.868633704843774
 20
103.83031316054655
 10
25.002207851827706
 20
103.93865675096873
 10
25.152374588579818
 20
104.02250385885651
 10
25.314689932784887
 20
104.07937314198517
 10
25.48435357036982
 20
104.10754114896349
 10
26.272857049209847
 20
104.1683944337995
 10
27.147028041626868
 20
104.2334128830662
 10
29.21070117483481
 20
104.37405225700388
 10
31.34369719490985
 20
104.50133980489727
 10
33.52397078160982
 20
104.61541199667448
 10
35.72947661469084
 20
104.7164053022625
 10
37.93816937390983
 20
104.80445619158849
 10
40.12800373902286
 20
104.8797011345793
 10
42.27693438978682
 20
104.94227660116292
 10
44.36291600595885
 20
104.9923190612651
 10
46.81236997194884
 20
105.03855107972589
 10
49.299867386482845
 20
105.07370481413187
 10
49.416493642444806
 20
105.06813288517338
 10
49.531676571818764
 20
105.04901162076226
 10
49.6438474684378
 20
105.01660143835443
 10
49.7514786477868
 20
104.97134374062443
 10
49.853104252939005
 20
104.91385490388774
 10
49.947340218437574
 20
104.84491788351119
 10
50.03290312024498
 20
104.76547155064361
 10
50.108627655024776
 20
104.67659790548242
 10
50.17348251071164
 20
104.5795073412354
 10
50.226584412216795
 20
104.47552215946143
 10
50.26721015097968
 20
104.36605856130342
 10
50.294806434536326
 20
104.25260735987354
  0
LWPOLYLINE
  5
3D
330
17
100
AcDbEntity
  8
CUT
100
AcDbPolyline
 90
50
 70
1
 10
62.35998425375385
 20
100.95364275457746
 10
62.34027100704009
 20
101.26697583848824
 10
62.281442156575395
 20
101.57536747248963
 10
62.1844254684745
 20
101.87395413628917
 10
62.050750953863485
 20
102.15802693983176
 10
61.88252673969123
 20
102.42310588530864
 10
61.68240582230737
 20
102.66501051939917
 10
61.453544228125565
 20
102.87992586151694
 10
61.199551241201334
 20
103.06446256833254
 10
60.92443248266653
 20
103.21571038574251
 10
60.63252673969123
 20
103.33128404531539
 10
60.32843754021815
 20
103.40936088139921
 10
60.01696055257713
 20
103.44870957564814
 10
59.70300795493057
 20
103.44870957564814
 10
59.391530967289555
 20
103.40936088139921
 10
59.08744176781647
 20
103.33128404531539
 10
58.79553602484117
 20
103.21571038574251
 10
58.52041726630637
 20
103.06446256833254
 10
58.266424279382136
 20
102.87992586151694
 10
58.03756268520033
 20
102.66501051939917
 10
57.83744176781647
 20
102.42310588530864
 10
57.669217553644216
 20
102.15802693983176
 10
57.5355430390332
 20
101.87395413628917
 10
57.43852635093231
 20
101.57536747248963
 10
57.379697500467614
 20
101.26697583848824
 10
57.35998425375385
 20
100.95364275457746
 10
57.379697500467614
 20
100.64030967066674
 10
57.43852635093231
 20
100.33191803666534
 10
57.5355430390332
 20
100.0333313728658
 10
57.669217553644216
 20
99.74925856932322
 10
57.83744176781647
 20
99.48417962384627
 10
58.03756268520033
 20
99.24227498975574
 10
58.266424279382136
 20
99.02735964763798
 10
58.52041726630637
 20
98.84282294082243
 10
58.79553602484117
 20
98.6915751234124
 10
59.08744176781647
 20
98.57600146383959
 10
59.391530967289555
 20
98.49792462775576
 10
59.70300795493057
 20
98.45857593350678
 10
60.01696055257713
 20
98.45857593350678
 10
60.32843754021815
 20
98.49792462775576
 10
60.63252673969123
 20
98.57600146383959
 10
60.92443248266653
 20
98.69157512341246
 10
61.199551241201334
 20
98.84282294082243
 10
61.453544228125565
 20
99.02735964763804
 10
61.68240582230737
 20
99.24227498975574
 10
61.88252673969123
 20
99.48417962384633
 10
62.050750953863485
 20
99.74925856932322
 10
62.1844254684745
 20
100.0333313728658
 10
62.281442156575395
 20
100.33191803666534
 10
62.34027100704009
 20
100.64030967066674
  0
LWPOLYLINE
  5
3E
330
17
100
AcDbEntity
  8
CUT
100
AcDbPolyline
 90
50
 70
1
 10
102.40600972777986
 20
101.5156425173285
 10
102.38629648106604
 20
101.82897560123922
 10
102.3274676306014
 20
102.13736723524062
 10
102.23045094250045
 20
102.43595389904016
 10
102.0967764278895
 20
102.72002670258274
 10
101.92855221371724
 20
102.98510564805969
 10
101.72843129633338
 20
103.22701028215022
 10
101.49956970215158
 20
103.44192562426792
 10
101.24557671522734
 20
103.62646233108353
 10
100.97045795669248
 20
103.77771014849355
 10
100.67855221371724
 20
103.89328380806637
 10
100.37446301424416
 20
103.9713606441502
 10
100.06298602660308
 20
104.01070933839918
 10
99.74903342895652
 20
104.01070933839918
 10
99.43755644131551
 20
103.9713606441502
 10
99.13346724184248
 20
103.89328380806637
 10
98.84156149886712
 20
103.77771014849355
 10
98.56644274033238
 20
103.62646233108353
 10
98.31244975340815
 20
103.44192562426792
 10
98.08358815922634
 20
103.22701028215022
 10
97.88346724184248
 20
102.98510564805969
 10
97.71524302767017
 20
102.72002670258274
 10
97.58156851305921
 20
102.43595389904016
 10
97.48455182495826
 20
102.13736723524062
 10
97.42572297449362
 20
101.82897560123922
 10
97.40600972777986
 20
101.5156425173285
 10
97.42572297449362
 20
101.20230943341772
 10
97.48455182495826
 20
100.89391779941633
 10
97.58156851305921
 20
100.59533113561679
 10
97.71524302767017
 20
100.3112583320742
 10
97.88346724184248
 20
100.04617938659732
 10
98.08358815922634
 20
99.80427475250673
 10
98.31244975340815
 20
99.58935941038902
 10
98.56644274033238
 20
99.40482270357342
 10
98.84156149886712
 20
99.25357488616345
 10
99.13346724184248
 20
99.13800122659057
 10
99.43755644131556
 20
99.05992439050675
 10
99.74903342895652
 20
99.02057569625782
 10
100.06298602660308
 20
99.02057569625782
 10
100.37446301424416
 20
99.05992439050675
 10
100.67855221371724
 20
99.13800122659057
 10
100.97045795669248
 20
99.25357488616345
 10
101.24557671522734
 20
99.40482270357347
 10
101.49956970215158
 20
99.58935941038902
 10
101.72843129633338
 20
99.80427475250679
 10
101.92855221371724
 20
100.04617938659732
 10
102.0967764278895
 20
100.3112583320742
 10
102.23045094250045
 20
100.59533113561679
 10
102.3274676306014
 20
100.89391779941633
 10
102.38629648106604
 20
101.20230943341772
  0
TEXT
  5
3F
330
17
100
AcDbEntity
  8
LABELS_NOT_CUT
100
AcDbText
 10
138.8279023198084
 20
100.79949561203713
 30
0.0
 40
2.0
  1
A35_R
100
AcDbText
  0
LWPOLYLINE
  5
40
330
17
100
AcDbEntity
  8
CUT
100
AcDbPolyline
 90
158
 70
1
 10
344.92345991491294
 20
94.39666186391878
 10
342.3666755138529
 20
94.95422345308879
 10
340.43837667361294
 20
95.36801985230983
 10
338.0059813790729
 20
95.88186354459981
 10
334.46422603017294
 20
96.6141264009998
 10
330.9996132637929
 20
97.3116600032738
 10
327.4378379436929
 20
98.0091410096968
 10
323.8746584175429
 20
98.68528922586182
 10
320.4330017036429
 20
99.31610831029582
 10
316.8524281256129
 20
99.94918117255781
 10
313.2682469002829
 20
100.55711630177882
 10
309.81562303065294
 20
101.11659849596083
 10
305.9296021586029
 20
101.71568608886884
 10
302.07787069305294
 20
102.27522324891487
 10
299.9305179603229
 20
102.57167525579285
 10
297.7078598848729
 20
102.86730997896683
 10
295.45658946768293
 20
103.15474065294785
 10
293.23923546793293
 20
103.42595215157883
 10
293.24402927774287
 20
97.65395462159984
 10
288.2440310017829
 20
97.64980248099482
 10
288.2387604845929
 20
103.99578059178083
 10
286.0614541272929
 20
104.22527397285586
 10
283.9184301669929
 20
104.43918629153887
 10
281.8264559935329
 20
104.63605305824484
 10
279.79038266040294
 20
104.81586225736186
 10
277.6765238618429
 20
104.99020672082588
 10
275.4866210759729
 20
105.15699358927986
 10
273.28908249175294
 20
105.30962738989683
 10
271.1441850720929
 20
105.44390270619289
 10
269.2671363210619
 20
105.54922625269086
 10
267.3404593894309
 20
105.64576209411086
 10
265.35742259063494
 20
105.73289666512187
 10
263.3579981625129
 20
105.80827159817488
 10
261.18378552284395
 20
105.87631412611586
 10
259.08221934759894
 20
105.92894972138288
 10
256.9766860685399
 20
105.96942177078483
 10
254.8370986719729
 20
105.99913126517185
 10
254.8426870129499
 20
99.25417612266182
 10
249.8426887369779
 20
99.25002398205584
 10
249.8370576716099
 20
106.03012094019886
 10
248.5656268747319
 20
106.02942169959687
 10
247.3292307203829
 20
106.02440047113583
 10
246.1193769824589
 20
106.01475576889885
 10
244.9141330362629
 20
105.99988227704586
 10
243.71644722774494
 20
105.97927095859484
 10
242.76551583839995
 20
105.95834205069889
 10
241.5878740259319
 20
105.92629835547888
 10
240.6559391493309
 20
105.89575501014684
 10
239.50544582524793
 20
105.85123776199487
 10
238.5977893640689
 20
105.81046159089487
 10
237.69171410709095
 20
105.76448697546289
 10
236.77260639524292
 20
105.71219992112987
 10
235.84243118177386
 20
105.65322412923689
 10
234.90316957447493
 20
105.58723364770589
 10
233.95668342941593
 20
105.51395427593388
 10
233.00474365568192
 20
105.43317265997689
 10
232.16379161872493
 20
105.35575394514785
 10
231.25876475178092
 20
105.26596362464386
 10
230.3531336457889
 20
105.16929491314784
 10
229.4483356384539
 20
105.06582905978985
 10
228.5457959921319
 20
104.95571932945188
 10
228.0962225804529
 20
104.89829495058689
 10
227.57189152992288
 20
104.82909962834685
 10
226.66928218626794
 20
104.70488941202888
 10
225.7799589849219
 20
104.57614092545487
 10
224.83918906939294
 20
104.43293707634888
 10
223.8934572799779
 20
104.28157587935686
 10
222.96440136761788
 20
104.12550730832686
 10
222.0522471339409
 20
103.96501127393384
 10
221.15721244091088
 20
103.80037220691088
 10
220.2795014921649
 20
103.63187546106883
 10
219.41931461952294
 20
103.45981183359686
 10
218.5768378247239
 20
103.28447245852487
 10
218.16229632374092
 20
103.19566596572588
 10
217.6464798204529
 20
103.08278287139882
 10
216.7801711565429
 20
102.88683567056586
 10
215.9197958218549
 20
102.68409054250486
 10
215.5065295454819
 20
102.58376428498883
 10
215.02758352453787
 20
102.46506244595787
 10
214.5435227370869
 20
102.34239600244786
 10
214.05632922261992
 20
102.21614520697284
 10
213.32382152247789
 20
102.02092949676285
 10
212.83694599954987
 20
101.88749715636283
 10
212.47379312597087
 20
101.78601445316883
 10
212.1131213732309
 20
101.68353709227085
 10
211.6371900069629
 20
101.54568228614784
 10
211.28474565434993
 20
101.44162631016485
 10
210.82190790412693
 20
101.30237066726784
 10
210.38121103509292
 20
101.16696065606482
 10
209.98806823701392
 20
101.04378255258382
 10
209.60384299128287
 20
100.92117474487185
 10
209.2292189905159
 20
100.79946189410487
 10
208.7754003632329
 20
100.64907485336784
 10
208.4245627272859
 20
100.53054269893681
 10
208.0434801576169
 20
100.39948637976886
 10
207.6699206200489
 20
100.26852797184182
 10
207.10243509784692
 20
100.06075166049385
 10
206.53209808088587
 20
99.84432608821783
 10
206.1690447945179
 20
99.70215390483281
 10
205.8193376423909
 20
99.56169019890984
 10
205.31901523570792
 20
99.35421438154282
 10
205.0011225004319
 20
99.21806203626284
 10
204.69533708203193
 20
99.08365100697785
 10
204.4013042519589
 20
98.95099039364783
 10
204.11867007156587
 20
98.82008958601182
 10
203.8470805539389
 20
98.6909579572528
 10
203.5861817019449
 20
98.5636048779038
 10
203.3356195179079
 20
98.43803971938883
 10
203.09504001423994
 20
98.31427185791483
 10
202.86408925797292
 20
98.19231069075084
 10
202.64241276262493
 20
98.07216541396184
 10
202.43515458102394
 20
97.95694270843484
 10
202.2360352491309
 20
97.84346158863582
 10
201.98264749158392
 20
97.69488068173183
 10
201.80123704873887
 20
97.58549258201782
 10
201.6268672810329
 20
97.47787137637783
 10
201.3647002940919
 20
97.3113127906808
 10
201.1776003725679
 20
97.18873465285685
 10
200.9978822476479
 20
97.06785178103684
 10
200.8818056726039
 20
96.98806030184483
 10
200.65760342327792
 20
96.82998961777281
 10
200.4425663031799
 20
96.6733659208598
 10
200.2349599900449
 20
96.51750192934679
 10
200.0330244797829
 20
96.36170098205281
 10
199.83501306849388
 20
96.20527128641584
 10
199.6533925195469
 20
96.05811516047379
 10
199.4281000536139
 20
95.87075036162179
 10
199.17007093291994
 20
95.65038765591379
 10
199.03219900054393
 20
95.53008603951179
 10
198.89023984052193
 20
95.4042376008208
 10
198.6631859107299
 20
95.19842896499483
 10
198.8802563699029
 20
95.1322471155188
 10
199.3090270767879
 20
95.01576691294179
 10
200.32262732337193
 20
94.77332808240283
 10
201.51095538152794
 20
94.51405632577979
 10
202.70192522260692
 20
94.27551161903182
 10
203.72345081796192
 20
94.09525393811981
 10
204.81452570257892
 20
93.93763069120178
 10
205.92886898422393
 20
93.80164707124982
 10
207.0661302786969
 20
93.68234096262381
 10
208.22594499952987
 20
93.57475071903679
 10
210.2465440876279
 20
93.40130652794483
 10
212.2577538060899
 20
93.2451175966088
 10
215.23725521997693
 20
93.0496591336418
 10
216.9421408484999
 20
92.95426772236578
 10
218.78224634441193
 20
92.86382184399378
 10
220.73537043366088
 20
92.78092288343282
 10
222.76899586784992
 20
92.70767324603781
 10
226.2515543319829
 20
92.6096917365868
 10
228.50550436405092
 20
92.56259221639777
 10
230.7238099017939
 20
92.52749482610477
 10
234.89841124119886
 20
92.4835733214718
 10
238.7310149812389
 20
92.46745379136178
 10
245.8071414335729
 20
92.47675598901282
 10
254.58027581124594
 20
92.50073098219679
 10
303.56742793956295
 20
92.5937867231188
 10
352.55460277832293
 20
92.67378288999981
 10
347.5050933792129
 20
93.82325945518278
  0
LWPOLYLINE
  5
41
330
17
100
AcDbEntity
  8
CUT
100
AcDbPolyline
 90
117
 70
1
 10
263.05021109100386
 20
96.92167977889284
 10
262.8122252029079
 20
96.98129214057082
 10
262.5812283151319
 20
97.0639441486228
 10
262.3594450539789
 20
97.16883981902981
 10
262.1490113134949
 20
97.29496894914485
 10
261.9519536856349
 20
97.4411168464938
 10
261.77016994307786
 20
97.60587602693482
 10
261.60541076263695
 20
97.78765976949182
 10
261.45926286528794
 20
97.9847173973518
 10
261.3331337351729
 20
98.19515113783581
 10
261.2282380647659
 20
98.41693439898881
 10
261.1455860567139
 20
98.64793128676484
 10
261.0859736950359
 20
98.88591717486082
 10
261.04997507936395
 20
99.12860012907686
 10
261.0379368960439
 20
99.37364297990081
 10
261.04997507936395
 20
99.61868583072481
 10
261.0859736950359
 20
99.86136878494182
 10
261.1455860567139
 20
100.09935467303683
 10
261.2282380647659
 20
100.33035156081382
 10
261.3331337351729
 20
100.55213482196586
 10
261.45926286528794
 20
100.76256856244981
 10
261.60541076263786
 20
100.95962619030985
 10
261.77016994307786
 20
101.14140993286782
 10
261.9519536856349
 20
101.30616911330782
 10
262.1490113134949
 20
101.45231701065785
 10
262.3594450539789
 20
101.57844614077186
 10
262.5812283151319
 20
101.68334181117984
 10
262.8122252029079
 20
101.76599381923182
 10
263.05021109100386
 20
101.82560618090884
 10
263.29289404521995
 20
101.86160479658184
 10
263.5379368960439
 20
101.87364297990086
 10
276.5379370897529
 20
101.87364297990086
 10
276.78297994057294
 20
101.86160479658184
 10
277.0256628947929
 20
101.82560618090884
 10
277.2636487828829
 20
101.76599381923182
 10
277.4946456706629
 20
101.68334181117984
 10
277.7164289318129
 20
101.57844614077186
 10
277.9268626722929
 20
101.45231701065785
 10
278.12392030015286
 20
101.30616911330782
 10
278.3057040427129
 20
101.14140993286782
 10
278.4704632231529
 20
100.95962619030985
 10
278.6166111205029
 20
100.76256856244981
 10
278.74274025062294
 20
100.55213482196586
 10
278.8476359210229
 20
100.33035156081382
 10
278.9302879290829
 20
100.09935467303683
 10
278.9899002907529
 20
99.86136878494182
 10
279.02589890643293
 20
99.61868583072481
 10
279.0379370897529
 20
99.37364297990081
 10
279.02589890643293
 20
99.12860012907686
 10
278.9899002907529
 20
98.88591717486082
 10
278.9302879290829
 20
98.64793128676484
 10
278.8476359210229
 20
98.41693439898881
 10
278.74274025062294
 20
98.19515113783581
 10
278.6166111205029
 20
97.9847173973518
 10
278.4704632231529
 20
97.78765976949182
 10
278.3057040427129
 20
97.60587602693482
 10
278.12392030015286
 20
97.4411168464938
 10
277.9268626722929
 20
97.29496894914485
 10
277.7164289318129
 20
97.16883981902981
 10
277.4946456706629
 20
97.0639441486228
 10
277.2636487828829
 20
96.98129214057082
 10
277.0256628947929
 20
96.92167977889284
 10
276.78297994057294
 20
96.8856811632208
 10
276.5379370897529
 20
96.87364297990183
 10
272.98338340116294
 20
96.87364297990183
 10
272.9313092754129
 20
96.81118426826379
 10
272.8906649725329
 20
96.76521898853082
 10
272.8489048665229
 20
96.7202650138048
 10
272.7842277826729
 20
96.65478931243882
 10
272.73978965363295
 20
96.61248069646683
 10
272.6712192665329
 20
96.55109425938178
 10
272.5763661356029
 20
96.4732503065818
 10
272.50278180279287
 20
96.4179733800168
 10
272.4526166861029
 20
96.38264311868579
 10
272.3497613658429
 20
96.31572839288481
 10
272.2971331184629
 20
96.28418423534379
 10
272.2167790012129
 20
96.23931321477681
 10
272.10717489272287
 20
96.18414314283882
 10
271.9949957400629
 20
96.1344175443698
 10
271.93802475048295
 20
96.11163437856084
 10
271.8515628895529
 20
96.08009806219684
 10
271.7345863826129
 20
96.0430400771088
 10
271.6754513081629
 20
96.02667519803583
 10
271.5860402595429
 20
96.00486105055182
 10
271.4656918810529
 20
95.98092226967583
 10
271.3747389304129
 20
95.96685978707882
 10
271.31384267738287
 20
95.95934895064181
 10
271.25278044001294
 20
95.9533348451908
 10
271.1609563449629
 20
95.94712773513481
 10
271.0382871591529
 20
95.94411637564781
 10
270.91561797333287
 20
95.94712773513481
 10
270.82379387828286
 20
95.9533348451908
 10
270.76273164091293
 20
95.95934895064181
 10
270.67146097301287
 20
95.97117510073582
 10
270.6108824372429
 20
95.98092226967583
 10
270.49053405876094
 20
96.00486105055182
 10
270.40112301014193
 20
96.02667519803583
 10
270.34198793568993
 20
96.0430400771088
 10
270.2250114287469
 20
96.08009806219684
 10
270.1385495678159
 20
96.11163437856084
 10
270.0815785782399
 20
96.1344175443698
 10
269.9693994255769
 20
96.18414314283882
 10
269.8597953170879
 20
96.23931321477681
 10
269.7794411998389
 20
96.28418423534379
 10
269.7268129524569
 20
96.31572839288481
 10
269.62395763219394
 20
96.38264311868579
 10
269.5737925155119
 20
96.4179733800168
 10
269.5002081827009
 20
96.4732503065818
 10
269.40535505176894
 20
96.55109425938178
 10
269.33678466466387
 20
96.61248069646683
 10
269.2923465356309
 20
96.65478931243882
 10
269.2276694517739
 20
96.7202650138048
 10
269.1859093457659
 20
96.76521898853082
 10
269.14526504288693
 20
96.81118426826379
 10
269.09319091713695
 20
96.87364297990183
 10
263.5379368960439
 20
96.87364297990183
 10
263.29289404521995
 20
96.8856811632208
  0
LWPOLYLINE
  5
42
330
17
100
AcDbEntity
  8
CUT
100
AcDbPolyline
 90
50
 70
1
 10
233.49226168512695
 20
99.00611613839885
 10
233.47254843841307
 20
98.69278305448807
 10
233.4137195879485
 20
98.38439142048668
 10
233.31670289984754
 20
98.08580475668714
 10
233.18302838523658
 20
97.80173195314455
 10
233.01480417106427
 20
97.53665300766767
 10
232.81468325368047
 20
97.29474837357714
 10
232.58582165949866
 20
97.07983303145937
 10
232.33182867257443
 20
96.89529632464377
 10
232.05670991403957
 20
96.7440485072338
 10
231.76480417106427
 20
96.62847484766093
 10
231.46071497159124
 20
96.5503980115771
 10
231.14923798395017
 20
96.51104931732817
 10
230.8352853863036
 20
96.51104931732817
 10
230.5238083986626
 20
96.5503980115771
 10
230.21971919918957
 20
96.62847484766093
 10
229.9278134562142
 20
96.7440485072338
 10
229.6526946976794
 20
96.89529632464377
 10
229.39870171075518
 20
97.07983303145937
 10
229.16984011657337
 20
97.29474837357714
 10
228.96971919918957
 20
97.53665300766767
 10
228.80149498501726
 20
97.80173195314455
 10
228.6678204704063
 20
98.08580475668714
 10
228.57080378230535
 20
98.38439142048668
 10
228.5119749318407
 20
98.69278305448807
 10
228.4922616851269
 20
99.00611613839885
 10
228.5119749318407
 20
99.31944922230957
 10
228.57080378230535
 20
99.62784085631097
 10
228.6678204704063
 20
99.92642752011051
 10
228.80149498501726
 20
100.21050032365315
 10
228.96971919918957
 20
100.47557926913004
 10
229.16984011657337
 20
100.71748390322057
 10
229.39870171075518
 20
100.93239924533827
 10
229.6526946976794
 20
101.11693595215388
 10
229.9278134562142
 20
101.2681837695639
 10
230.21971919918957
 20
101.38375742913672
 10
230.5238083986626
 20
101.46183426522055
 10
230.8352853863036
 20
101.50118295946953
 10
231.14923798395017
 20
101.50118295946953
 10
231.46071497159124
 20
101.46183426522055
 10
231.76480417106427
 20
101.38375742913672
 10
232.05670991403957
 20
101.26818376956385
 10
232.33182867257443
 20
101.11693595215388
 10
232.58582165949866
 20
100.93239924533827
 10
232.81468325368047
 20
100.71748390322057
 10
233.01480417106427
 20
100.47557926912998
 10
233.18302838523658
 20
100.2105003236531
 10
233.31670289984754
 20
99.92642752011051
 10
233.4137195879485
 20
99.62784085631097
 10
233.47254843841307
 20
99.31944922230957
  0
TEXT
  5
43
330
17
100
AcDbEntity
  8
LABELS_NOT_CUT
100
AcDbText
 10
307.0617274797887
 20
99.23404300915934
 30
0.0
 40
2.0
  1
A24_L
100
AcDbText
  0
LWPOLYLINE
  5
44
330
17
100
AcDbEntity
  8
CUT
100
AcDbPolyline
 90
4
 70
1
 10
318.66318591072985
 20
125.03012094019883
 10
198.6631859107299
 20
125.03012094019883
 10
198.6631859107299
 20
111.03012094019883
 10
318.66318591072985
 20
111.03012094019883
  0
TEXT
  5
45
330
17
100
AcDbEntity
  8
LABELS_NOT_CUT
100
AcDbText
 10
258.6631859107299
 20
118.03012094019883
 30
0.0
 40
2.0
  1
A62_DR
100
AcDbText
  0
LWPOLYLINE
  5
46
330
17
100
AcDbEntity
  8
CUT
100
AcDbPolyline
 90
4
 70
1
 10
423.66318591072985
 20
117.03011887086599
 10
323.66318591072985
 20
117.03011887086599
 10
323.66318591072985
 20
111.03012094019883
 10
423.66318591072985
 20
111.03012094019883
  0
TEXT
  5
47
330
17
100
AcDbEntity
  8
LABELS_NOT_CUT
100
AcDbText
 10
373.66318591072985
 20
114.03011990553242
 30
0.0
 40
2.0
  1
A07_R_D1
100
AcDbText
  0
LWPOLYLINE
  5
48
330
17
100
AcDbEntity
  8
CUT
100
AcDbPolyline
 90
30
 70
1
 10
95.85812707292519
 20
114.27845819355804
 10
95.86539455819673
 20
114.47939946436549
 10
92.85504588971946
 20
115.30448894774128
 10
88.49098847231562
 20
116.48486994761294
 10
83.09348623776452
 20
117.91046371948943
 10
80.10727579272998
 20
118.68081578727526
 10
76.98280311782594
 20
119.4711915188766
 10
72.63538711544732
 20
120.54409024729227
 10
68.3828114666959
 20
121.56415369534591
 10
64.22596691680644
 20
122.53238860865969
 10
60.16574421100461
 20
123.44980173285836
 10
56.2030340945355
 20
124.31739981356264
 10
52.33872731262443
 20
125.13618959639814
 10
48.573714610496836
 20
125.90717782698727
 10
44.90888673340771
 20
126.63137125095278
 10
41.34513442658249
 20
127.30977661391819
 10
37.88334843524649
 20
127.94340066150704
 10
34.524419504644925
 20
128.53325013934227
 10
31.269238380003117
 20
129.08033179304715
 10
28.11869580656628
 20
129.5856523682442
 10
25.073682529559733
 20
130.0502186105574
 10
22.135089294208797
 20
130.47503726561104
 10
19.30380684576869
 20
130.8611150790258
 10
19.30410740901027
 20
130.56604906878846
 10
14.354402632989263
 20
126.23685529462978
 10
12.17804004162349
 20
126.50852082292965
 10
10.0
 20
126.7663919468099
 10
10.006326210453949
 20
119.11853466924742
 10
14.315759419544406
 20
119.12629298354176
 10
19.320844253988867
 20
114.13531727689394
  0
LWPOLYLINE
  5
49
330
17
100
AcDbEntity
  8
CUT
100
AcDbPolyline
 90
32
 70
1
 10
29.31293330598703
 20
121.94417961994196
 10
29.29371858639024
 20
121.74908929792582
 10
29.236812838498167
 20
121.56149618757684
 10
29.14440291828953
 20
121.38860938692233
 10
29.02004008717347
 20
121.23707283875541
 10
28.86850353900661
 20
121.11271000763941
 10
28.6956167383521
 20
121.02030008743066
 10
28.508023628003116
 20
120.9633943395387
 10
28.312933305986917
 20
120.94417961994196
 10
28.11784298397083
 20
120.9633943395387
 10
27.930249873621847
 20
121.02030008743066
 10
27.75736307296745
 20
121.11271000763941
 10
27.605826524800364
 20
121.23707283875541
 10
27.481463693684418
 20
121.38860938692233
 10
27.389053773475666
 20
121.56149618757684
 10
27.332148025583706
 20
121.74908929792582
 10
27.31293330598703
 20
121.94417961994196
 10
27.332148025583706
 20
122.13926994195805
 10
27.389053773475666
 20
122.32686305230703
 10
27.481463693684418
 20
122.49974985296154
 10
27.605826524800364
 20
122.65128640112846
 10
27.75736307296745
 20
122.77564923224446
 10
27.930249873621847
 20
122.86805915245321
 10
28.11784298397083
 20
122.92496490034517
 10
28.312933305986917
 20
122.94417961994196
 10
28.508023628003116
 20
122.92496490034517
 10
28.6956167383521
 20
122.86805915245321
 10
28.86850353900661
 20
122.77564923224446
 10
29.02004008717347
 20
122.65128640112846
 10
29.14440291828953
 20
122.49974985296154
 10
29.23681283849828
 20
122.32686305230703
 10
29.29371858639024
 20
122.13926994195805
  0
TEXT
  5
4A
330
17
100
AcDbEntity
  8
LABELS_NOT_CUT
100
AcDbText
 10
46.963910286455274
 20
122.41330645263429
 30
0.0
 40
2.0
  1
A53_L
100
AcDbText
  0
LWPOLYLINE
  5
4B
330
17
100
AcDbEntity
  8
REFERENCE_NOT_CUT
100
AcDbPolyline
 90
4
 70
1
 10
0.0
 20
0.0
 10
609.6
 20
0.0
 10
609.6
 20
228.6
 10
0.0
 20
228.6
  0
ENDSEC
  0
SECTION
  2
OBJECTS
  0
DICTIONARY
  5
A
330
0
100
AcDbDictionary
281
1
  3
ACAD_COLOR
350
B
  3
ACAD_GROUP
350
C
  3
ACAD_LAYOUT
350
D
  3
ACAD_MATERIAL
350
E
  3
ACAD_MLEADERSTYLE
350
F
  3
ACAD_MLINESTYLE
350
10
  3
ACAD_PLOTSETTINGS
350
11
  3
ACAD_PLOTSTYLENAME
350
12
  3
ACAD_SCALELIST
350
14
  3
ACAD_TABLESTYLE
350
15
  3
ACAD_VISUALSTYLE
350
16
  3
EZDXF_META
350
2D
  0
DICTIONARY
  5
B
330
A
100
AcDbDictionary
281
1
  0
DICTIONARY
  5
C
330
A
100
AcDbDictionary
281
1
  0
DICTIONARY
  5
D
330
A
100
AcDbDictionary
281
1
  3
Model
350
1A
  3
Layout1
350
1E
  0
DICTIONARY
  5
E
330
A
100
AcDbDictionary
281
1
  3
ByBlock
350
1F
  3
ByLayer
350
20
  3
Global
350
21
  0
DICTIONARY
  5
F
330
A
100
AcDbDictionary
281
1
  3
Standard
350
2C
  0
DICTIONARY
  5
10
330
A
100
AcDbDictionary
281
1
  3
Standard
350
22
  0
DICTIONARY
  5
11
330
A
100
AcDbDictionary
281
1
  0
ACDBDICTIONARYWDFLT
  5
12
330
A
100
AcDbDictionary
281
1
  3
Normal
350
13
100
AcDbDictionaryWithDefault
340
13
  0
ACDBPLACEHOLDER
  5
13
330
12
  0
DICTIONARY
  5
14
330
A
100
AcDbDictionary
281
1
  0
DICTIONARY
  5
15
330
A
100
AcDbDictionary
281
1
  0
DICTIONARY
  5
16
330
A
100
AcDbDictionary
281
1
  0
LAYOUT
  5
1A
330
D
100
AcDbPlotSettings
  1

  4
A3
  6

 40
7.5
 41
20.0
 42
7.5
 43
20.0
 44
420.0
 45
297.0
 46
0.0
 47
0.0
 48
0.0
 49
0.0
140
0.0
141
0.0
142
1.0
143
1.0
 70
1024
 72
1
 73
0
 74
5
  7

 75
16
 76
0
 77
2
 78
300
147
1.0
148
0.0
149
0.0
100
AcDbLayout
  1
Model
 70
1
 71
0
 10
0.0
 20
0.0
 11
420.0
 21
297.0
 12
0.0
 22
0.0
 32
0.0
 14
1e+20
 24
1e+20
 34
1e+20
 15
-1e+20
 25
-1e+20
 35
-1e+20
146
0.0
 13
0.0
 23
0.0
 33
0.0
 16
1.0
 26
0.0
 36
0.0
 17
0.0
 27
1.0
 37
0.0
 76
1
330
17
  0
LAYOUT
  5
1E
330
D
100
AcDbPlotSettings
  1

  4
A3
  6

 40
7.5
 41
20.0
 42
7.5
 43
20.0
 44
420.0
 45
297.0
 46
0.0
 47
0.0
 48
0.0
 49
0.0
140
0.0
141
0.0
142
1.0
143
1.0
 70
0
 72
1
 73
0
 74
5
  7

 75
16
 76
0
 77
2
 78
300
147
1.0
148
0.0
149
0.0
100
AcDbLayout
  1
Layout1
 70
1
 71
1
 10
0.0
 20
0.0
 11
420.0
 21
297.0
 12
0.0
 22
0.0
 32
0.0
 14
1e+20
 24
1e+20
 34
1e+20
 15
-1e+20
 25
-1e+20
 35
-1e+20
146
0.0
 13
0.0
 23
0.0
 33
0.0
 16
1.0
 26
0.0
 36
0.0
 17
0.0
 27
1.0
 37
0.0
 76
1
330
1B
  0
MATERIAL
  5
1F
102
{ACAD_REACTORS
330
E
102
}
330
E
100
AcDbMaterial
  1
ByBlock
  2

 70
0
 40
1.0
 71
1
 41
1.0
 91
-1023410177
 42
1.0
 72
1
  3

 73
1
 74
1
 75
1
 44
0.5
 73
0
 45
1.0
 46
1.0
 77
1
  4

 78
1
 79
1
170
1
 48
1.0
171
1
  6

172
1
173
1
174
1
140
1.0
141
1.0
175
1
  7

176
1
177
1
178
1
143
1.0
179
1
  8

270
1
271
1
272
1
145
1.0
146
1.0
273
1
  9

274
1
275
1
276
1
 42
1.0
 72
1
  3

 73
1
 74
1
 75
1
 94
63
  0
MATERIAL
  5
20
102
{ACAD_REACTORS
330
E
102
}
330
E
100
AcDbMaterial
  1
ByLayer
  2

 70
0
 40
1.0
 71
1
 41
1.0
 91
-1023410177
 42
1.0
 72
1
  3

 73
1
 74
1
 75
1
 44
0.5
 73
0
 45
1.0
 46
1.0
 77
1
  4

 78
1
 79
1
170
1
 48
1.0
171
1
  6

172
1
173
1
174
1
140
1.0
141
1.0
175
1
  7

176
1
177
1
178
1
143
1.0
179
1
  8

270
1
271
1
272
1
145
1.0
146
1.0
273
1
  9

274
1
275
1
276
1
 42
1.0
 72
1
  3

 73
1
 74
1
 75
1
 94
63
  0
MATERIAL
  5
21
102
{ACAD_REACTORS
330
E
102
}
330
E
100
AcDbMaterial
  1
Global
  2

 70
0
 40
1.0
 71
1
 41
1.0
 91
-1023410177
 42
1.0
 72
1
  3

 73
1
 74
1
 75
1
 44
0.5
 73
0
 45
1.0
 46
1.0
 77
1
  4

 78
1
 79
1
170
1
 48
1.0
171
1
  6

172
1
173
1
174
1
140
1.0
141
1.0
175
1
  7

176
1
177
1
178
1
143
1.0
179
1
  8

270
1
271
1
272
1
145
1.0
146
1.0
273
1
  9

274
1
275
1
276
1
 42
1.0
 72
1
  3

 73
1
 74
1
 75
1
 94
63
  0
MLINESTYLE
  5
22
102
{ACAD_REACTORS
330
10
102
}
330
10
100
AcDbMlineStyle
  2
Standard
 70
0
  3

 62
256
 51
90.0
 52
90.0
 71
2
 49
0.5
 62
256
  6
BYLAYER
 49
-0.5
 62
256
  6
BYLAYER
  0
MLEADERSTYLE
  5
2C
102
{ACAD_REACTORS
330
F
102
}
330
F
100
AcDbMLeaderStyle
179
2
170
2
171
1
172
0
 90
2
 40
0.0
 41
0.0
173
1
 91
-1056964608
 92
-2
290
1
 42
2.0
291
1
 43
8.0
  3
Standard
 44
4.0
300

342
29
174
1
175
1
176
0
178
1
 93
-1056964608
 45
4.0
292
0
297
0
 46
4.0
 94
-1056964608
 47
1.0
 49
1.0
140
1.0
294
1
141
0.0
177
0
142
1.0
295
0
296
0
143
3.75
271
0
272
9
273
9
  0
DICTIONARY
  5
2D
330
A
100
AcDbDictionary
280
1
281
1
  3
CREATED_BY_EZDXF
350
2E
  3
WRITTEN_BY_EZDXF
350
4E
  0
DICTIONARYVAR
  5
2E
330
2D
100
DictionaryVariables
280
0
  1
1.4.4 @ 2026-10-02T12:23:37.200897+00:00
  0
DICTIONARYVAR
  5
4E
330
2D
100
DictionaryVariables
280
0
  1
1.4.4 @ 2026-10-02T12:23:37.231059+00:00
  0
ENDSEC
  0
EOF
