  0
SECTION
  2
HEADER
  9
$ACADVER
  1
AC1024
  9
$ACADMAINTVER
 70
6
  9
$DWGCODEPAGE
  3
ANSI_1252
  9
$LASTSAVEDBY
  1
ezdxf
  9
$INSBASE
 10
0.0
 20
0.0
 30
0.0
  9
$EXTMIN
 10
1e+20
 20
1e+20
 30
1e+20
  9
$EXTMAX
 10
-1e+20
 20
-1e+20
 30
-1e+20
  9
$LIMMIN
 10
0.0
 20
0.0
  9
$LIMMAX
 10
420.0
 20
297.0
  9
$ORTHOMODE
 70
0
  9
$REGENMODE
 70
1
  9
$FILLMODE
 70
1
  9
$QTEXTMODE
 70
0
  9
$MIRRTEXT
 70
1
  9
$LTSCALE
 40
1.0
  9
$ATTMODE
 70
1
  9
$TEXTSIZE
 40
2.5
  9
$TRACEWID
 40
1.0
  9
$TEXTSTYLE
  7
Standard
  9
$CLAYER
  8
0
  9
$CELTYPE
  6
ByLayer
  9
$CECOLOR
 62
256
  9
$CELTSCALE
 40
1.0
  9
$DISPSILH
 70
0
  9
$DIMSCALE
 40
1.0
  9
$DIMASZ
 40
2.5
  9
$DIMEXO
 40
0.625
  9
$DIMDLI
 40
3.75
  9
$DIMRND
 40
0.0
  9
$DIMDLE
 40
0.0
  9
$DIMEXE
 40
1.25
  9
$DIMTP
 40
0.0
  9
$DIMTM
 40
0.0
  9
$DIMTXT
 40
2.5
  9
$DIMCEN
 40
2.5
  9
$DIMTSZ
 40
0.0
  9
$DIMTOL
 70
0
  9
$DIMLIM
 70
0
  9
$DIMTIH
 70
0
  9
$DIMTOH
 70
0
  9
$DIMSE1
 70
0
  9
$DIMSE2
 70
0
  9
$DIMTAD
 70
1
  9
$DIMZIN
 70
8
  9
$DIMBLK
  1

  9
$DIMASO
 70
1
  9
$DIMSHO
 70
1
  9
$DIMPOST
  1

  9
$DIMAPOST
  1

  9
$DIMALT
 70
0
  9
$DIMALTD
 70
3
  9
$DIMALTF
 40
0.03937007874
  9
$DIMLFAC
 40
1.0
  9
$DIMTOFL
 70
1
  9
$DIMTVP
 40
0.0
  9
$DIMTIX
 70
0
  9
$DIMSOXD
 70
0
  9
$DIMSAH
 70
0
  9
$DIMBLK1
  1

  9
$DIMBLK2
  1

  9
$DIMSTYLE
  2
ISO-25
  9
$DIMCLRD
 70
0
  9
$DIMCLRE
 70
0
  9
$DIMCLRT
 70
0
  9
$DIMTFAC
 40
1.0
  9
$DIMGAP
 40
0.625
  9
$DIMJUST
 70
0
  9
$DIMSD1
 70
0
  9
$DIMSD2
 70
0
  9
$DIMTOLJ
 70
0
  9
$DIMTZIN
 70
8
  9
$DIMALTZ
 70
0
  9
$DIMALTTZ
 70
0
  9
$DIMUPT
 70
0
  9
$DIMDEC
 70
2
  9
$DIMTDEC
 70
2
  9
$DIMALTU
 70
2
  9
$DIMALTTD
 70
3
  9
$DIMTXSTY
  7
Standard
  9
$DIMAUNIT
 70
0
  9
$DIMADEC
 70
0
  9
$DIMALTRND
 40
0.0
  9
$DIMAZIN
 70
0
  9
$DIMDSEP
 70
44
  9
$DIMATFIT
 70
3
  9
$DIMFRAC
 70
0
  9
$DIMLDRBLK
  1

  9
$DIMLUNIT
 70
2
  9
$DIMLWD
 70
-2
  9
$DIMLWE
 70
-2
  9
$DIMTMOVE
 70
0
  9
$DIMFXL
 40
1.0
  9
$DIMFXLON
 70
0
  9
$DIMJOGANG
 40
0.785398163397
  9
$DIMTFILL
 70
0
  9
$DIMTFILLCLR
 70
0
  9
$DIMARCSYM
 70
0
  9
$DIMLTYPE
  6

  9
$DIMLTEX1
  6

  9
$DIMLTEX2
  6

  9
$DIMTXTDIRECTION
 70
0
  9
$LUNITS
 70
2
  9
$LUPREC
 70
4
  9
$SKETCHINC
 40
1.0
  9
$FILLETRAD
 40
10.0
  9
$AUNITS
 70
0
  9
$AUPREC
 70
2
  9
$MENU
  1
.
  9
$ELEVATION
 40
0.0
  9
$PELEVATION
 40
0.0
  9
$THICKNESS
 40
0.0
  9
$LIMCHECK
 70
0
  9
$CHAMFERA
 40
0.0
  9
$CHAMFERB
 40
0.0
  9
$CHAMFERC
 40
0.0
  9
$CHAMFERD
 40
0.0
  9
$SKPOLY
 70
0
  9
$TDCREATE
 40
2461316.7455671295
  9
$TDUCREATE
 40
2458532.153996898
  9
$TDUPDATE
 40
2461316.7455671295
  9
$TDUUPDATE
 40
2458532.1544311
  9
$TDINDWG
 40
0.0
  9
$TDUSRTIMER
 40
0.0
  9
$USRTIMER
 70
1
  9
$ANGBASE
 50
0.0
  9
$ANGDIR
 70
0
  9
$PDMODE
 70
0
  9
$PDSIZE
 40
0.0
  9
$PLINEWID
 40
0.0
  9
$SPLFRAME
 70
0
  9
$SPLINETYPE
 70
6
  9
$SPLINESEGS
 70
8
  9
$HANDSEED
  5
52
  9
$SURFTAB1
 70
6
  9
$SURFTAB2
 70
6
  9
$SURFTYPE
 70
6
  9
$SURFU
 70
6
  9
$SURFV
 70
6
  9
$UCSBASE
  2

  9
$UCSNAME
  2

  9
$UCSORG
 10
0.0
 20
0.0
 30
0.0
  9
$UCSXDIR
 10
1.0
 20
0.0
 30
0.0
  9
$UCSYDIR
 10
0.0
 20
1.0
 30
0.0
  9
$UCSORTHOREF
  2

  9
$UCSORTHOVIEW
 70
0
  9
$UCSORGTOP
 10
0.0
 20
0.0
 30
0.0
  9
$UCSORGBOTTOM
 10
0.0
 20
0.0
 30
0.0
  9
$UCSORGLEFT
 10
0.0
 20
0.0
 30
0.0
  9
$UCSORGRIGHT
 10
0.0
 20
0.0
 30
0.0
  9
$UCSORGFRONT
 10
0.0
 20
0.0
 30
0.0
  9
$UCSORGBACK
 10
0.0
 20
0.0
 30
0.0
  9
$PUCSBASE
  2

  9
$PUCSNAME
  2

  9
$PUCSORG
 10
0.0
 20
0.0
 30
0.0
  9
$PUCSXDIR
 10
1.0
 20
0.0
 30
0.0
  9
$PUCSYDIR
 10
0.0
 20
1.0
 30
0.0
  9
$PUCSORTHOREF
  2

  9
$PUCSORTHOVIEW
 70
0
  9
$PUCSORGTOP
 10
0.0
 20
0.0
 30
0.0
  9
$PUCSORGBOTTOM
 10
0.0
 20
0.0
 30
0.0
  9
$PUCSORGLEFT
 10
0.0
 20
0.0
 30
0.0
  9
$PUCSORGRIGHT
 10
0.0
 20
0.0
 30
0.0
  9
$PUCSORGFRONT
 10
0.0
 20
0.0
 30
0.0
  9
$PUCSORGBACK
 10
0.0
 20
0.0
 30
0.0
  9
$USERI1
 70
0
  9
$USERI2
 70
0
  9
$USERI3
 70
0
  9
$USERI4
 70
0
  9
$USERI5
 70
0
  9
$USERR1
 40
0.0
  9
$USERR2
 40
0.0
  9
$USERR3
 40
0.0
  9
$USERR4
 40
0.0
  9
$USERR5
 40
0.0
  9
$WORLDVIEW
 70
1
  9
$SHADEDGE
 70
3
  9
$SHADEDIF
 70
70
  9
$TILEMODE
 70
1
  9
$MAXACTVP
 70
64
  9
$PINSBASE
 10
0.0
 20
0.0
 30
0.0
  9
$PLIMCHECK
 70
0
  9
$PEXTMIN
 10
1e+20
 20
1e+20
 30
1e+20
  9
$PEXTMAX
 10
-1e+20
 20
-1e+20
 30
-1e+20
  9
$PLIMMIN
 10
0.0
 20
0.0
  9
$PLIMMAX
 10
420.0
 20
297.0
  9
$UNITMODE
 70
0
  9
$VISRETAIN
 70
1
  9
$PLINEGEN
 70
0
  9
$PSLTSCALE
 70
1
  9
$TREEDEPTH
 70
3020
  9
$CMLSTYLE
  2
Standard
  9
$CMLJUST
 70
0
  9
$CMLSCALE
 40
20.0
  9
$PROXYGRAPHICS
 70
1
  9
$MEASUREMENT
 70
1
  9
$CELWEIGHT
370
-1
  9
$ENDCAPS
280
0
  9
$JOINSTYLE
280
0
  9
$LWDISPLAY
290
0
  9
$INSUNITS
 70
4
  9
$HYPERLINKBASE
  1

  9
$STYLESHEET
  1

  9
$XEDIT
290
1
  9
$CEPSNTYPE
380
0
  9
$PSTYLEMODE
290
1
  9
$FINGERPRINTGUID
  2
{0E277699-4C2B-4752-9272-F1EBC552BA59}
  9
$VERSIONGUID
  2
{581857DA-F91A-493B-A7BC-C355E91416F3}
  9
$EXTNAMES
290
1
  9
$PSVPSCALE
 40
0.0
  9
$OLESTARTUP
290
0
  9
$SORTENTS
280
127
  9
$INDEXCTL
280
0
  9
$HIDETEXT
280
1
  9
$XCLIPFRAME
280
1
  9
$HALOGAP
280
0
  9
$OBSCOLOR
 70
257
  9
$OBSLTYPE
280
0
  9
$INTERSECTIONDISPLAY
280
0
  9
$INTERSECTIONCOLOR
 70
257
  9
$DIMASSOC
280
2
  9
$PROJECTNAME
  1

  9
$CAMERADISPLAY
290
0
  9
$LENSLENGTH
 40
50.0
  9
$CAMERAHEIGHT
 40
0.0
  9
$STEPSPERSEC
 40
24.0
  9
$STEPSIZE
 40
100.0
  9
$3DDWFPREC
 40
2.0
  9
$PSOLWIDTH
 40
0.005
  9
$PSOLHEIGHT
 40
0.08
  9
$LOFTANG1
 40
1.570796326795
  9
$LOFTANG2
 40
1.570796326795
  9
$LOFTMAG1
 40
0.0
  9
$LOFTMAG2
 40
0.0
  9
$LOFTPARAM
 70
7
  9
$LOFTNORMALS
280
1
  9
$LATITUDE
 40
37.795
  9
$LONGITUDE
 40
-122.394
  9
$NORTHDIRECTION
 40
0.0
  9
$TIMEZONE
 70
-8000
  9
$LIGHTGLYPHDISPLAY
280
1
  9
$TILEMODELIGHTSYNCH
280
1
  9
$CMATERIAL
347
20
  9
$SOLIDHIST
280
0
  9
$SHOWHIST
280
1
  9
$DWFFRAME
280
2
  9
$DGNFRAME
280
2
  9
$REALWORLDSCALE
290
1
  9
$INTERFERECOLOR
 62
256
  9
$CSHADOW
280
0
  9
$SHADOWPLANELOCATION
 40
0.0
  0
ENDSEC
  0
SECTION
  2
CLASSES
  0
CLASS
  1
ACDBDICTIONARYWDFLT
  2
AcDbDictionaryWithDefault
  3
ObjectDBX Classes
 90
0
 91
0
280
0
281
0
  0
CLASS
  1
SUN
  2
AcDbSun
  3
SCENEOE
 90
1153
 91
0
280
0
281
0
  0
CLASS
  1
VISUALSTYLE
  2
AcDbVisualStyle
  3
ObjectDBX Classes
 90
4095
 91
0
280
0
281
0
  0
CLASS
  1
MATERIAL
  2
AcDbMaterial
  3
ObjectDBX Classes
 90
1153
 91
0
280
0
281
0
  0
CLASS
  1
SCALE
  2
AcDbScale
  3
ObjectDBX Classes
 90
1153
 91
0
280
0
281
0
  0
CLASS
  1
TABLESTYLE
  2
AcDbTableStyle
  3
ObjectDBX Classes
 90
4095
 91
0
280
0
281
0
  0
CLASS
  1
MLEADERSTYLE
  2
AcDbMLeaderStyle
  3
ACDB_MLEADERSTYLE_CLASS
 90
4095
 91
0
280
0
281
0
  0
CLASS
  1
DICTIONARYVAR
  2
AcDbDictionaryVar
  3
ObjectDBX Classes
 90
0
 91
0
280
0
281
0
  0
CLASS
  1
CELLSTYLEMAP
  2
AcDbCellStyleMap
  3
ObjectDBX Classes
 90
1152
 91
0
280
0
281
0
  0
CLASS
  1
MENTALRAYRENDERSETTINGS
  2
AcDbMentalRayRenderSettings
  3
SCENEOE
 90
1024
 91
0
280
0
281
0
  0
CLASS
  1
ACDBDETAILVIEWSTYLE
  2
AcDbDetailViewStyle
  3
ObjectDBX Classes
 90
1025
 91
0
280
0
281
0
  0
CLASS
  1
ACDBSECTIONVIEWSTYLE
  2
AcDbSectionViewStyle
  3
ObjectDBX Classes
 90
1025
 91
0
280
0
281
0
  0
CLASS
  1
RASTERVARIABLES
  2
AcDbRasterVariables
  3
ISM
 90
0
 91
0
280
0
281
0
  0
CLASS
  1
ACDBPLACEHOLDER
  2
AcDbPlaceHolder
  3
ObjectDBX Classes
 90
0
 91
0
280
0
281
0
  0
CLASS
  1
LAYOUT
  2
AcDbLayout
  3
ObjectDBX Classes
 90
0
 91
0
280
0
281
0
  0
ENDSEC
  0
SECTION
  2
TABLES
  0
TABLE
  2
VPORT
  5
8
330
0
100
AcDbSymbolTable
 70
1
  0
VPORT
  5
23
330
8
100
AcDbSymbolTableRecord
100
AcDbViewportTableRecord
  2
*Active
 70
0
 10
0.0
 20
0.0
 11
1.0
 21
1.0
 12
0.0
 22
0.0
 13
0.0
 23
0.0
 14
0.5
 24
0.5
 15
0.5
 25
0.5
 16
0.0
 26
0.0
 36
1.0
 17
0.0
 27
0.0
 37
0.0
 40
1000.0
 41
1.34
 42
50.0
 43
0.0
 44
0.0
 50
0.0
 51
0.0
 71
0
 72
1000
 73
1
 74
3
 75
0
 76
0
 77
0
 78
0
281
0
 65
0
146
0.0
  0
ENDTAB
  0
TABLE
  2
LTYPE
  5
2
330
0
100
AcDbSymbolTable
 70
3
  0
LTYPE
  5
24
330
2
100
AcDbSymbolTableRecord
100
AcDbLinetypeTableRecord
  2
ByBlock
 70
0
  3

 72
65
 73
0
 40
0.0
  0
LTYPE
  5
25
330
2
100
AcDbSymbolTableRecord
100
AcDbLinetypeTableRecord
  2
ByLayer
 70
0
  3

 72
65
 73
0
 40
0.0
  0
LTYPE
  5
26
330
2
100
AcDbSymbolTableRecord
100
AcDbLinetypeTableRecord
  2
Continuous
 70
0
  3

 72
65
 73
0
 40
0.0
  0
ENDTAB
  0
TABLE
  2
LAYER
  5
1
330
0
100
AcDbSymbolTable
 70
5
  0
LAYER
  5
27
330
1
100
AcDbSymbolTableRecord
100
AcDbLayerTableRecord
  2
0
 70
0
 62
7
  6
Continuous
370
-3
390
13
347
21
  0
LAYER
  5
28
330
1
100
AcDbSymbolTableRecord
100
AcDbLayerTableRecord
  2
Defpoints
 70
0
 62
7
  6
Continuous
290
0
370
-3
390
13
347
21
  0
LAYER
  5
2F
330
1
100
AcDbSymbolTableRecord
100
AcDbLayerTableRecord
  2
CUT
 70
0
 62
7
  6
Continuous
370
-3
390
13
347
21
  0
LAYER
  5
30
330
1
100
AcDbSymbolTableRecord
100
AcDbLayerTableRecord
  2
REFERENCE_NOT_CUT
 70
0
 62
8
  6
Continuous
370
-3
390
13
347
21
  0
LAYER
  5
31
330
1
100
AcDbSymbolTableRecord
100
AcDbLayerTableRecord
  2
LABELS_NOT_CUT
 70
0
 62
3
  6
Continuous
370
-3
390
13
347
21
  0
ENDTAB
  0
TABLE
  2
STYLE
  5
5
330
0
100
AcDbSymbolTable
 70
1
  0
STYLE
  5
29
330
5
100
AcDbSymbolTableRecord
100
AcDbTextStyleTableRecord
  2
Standard
 70
0
 40
0.0
 41
1.0
 50
0.0
 71
0
 42
2.5
  3
txt
  4

  0
ENDTAB
  0
TABLE
  2
VIEW
  5
7
330
0
100
AcDbSymbolTable
 70
0
  0
ENDTAB
  0
TABLE
  2
UCS
  5
6
330
0
100
AcDbSymbolTable
 70
0
  0
ENDTAB
  0
TABLE
  2
APPID
  5
3
330
0
100
AcDbSymbolTable
 70
3
  0
APPID
  5
2A
330
3
100
AcDbSymbolTableRecord
100
AcDbRegAppTableRecord
  2
ACAD
 70
0
  0
APPID
  5
4F
330
3
100
AcDbSymbolTableRecord
100
AcDbRegAppTableRecord
  2
HATCHBACKGROUNDCOLOR
 70
0
  0
APPID
  5
50
330
3
100
AcDbSymbolTableRecord
100
AcDbRegAppTableRecord
  2
EZDXF
 70
0
  0
ENDTAB
  0
TABLE
  2
DIMSTYLE
  5
4
330
0
100
AcDbSymbolTable
 70
1
100
AcDbDimStyleTable
  0
DIMSTYLE
105
2B
330
4
100
AcDbSymbolTableRecord
100
AcDbDimStyleTableRecord
  2
Standard
 70
0
 40
1.0
 41
2.5
 42
0.625
 43
3.75
 44
1.25
 45
0.0
 46
0.0
 47
0.0
 48
0.0
 49
2.5
140
2.5
141
2.5
142
0.0
143
0.03937007874
144
1.0
145
0.0
146
1.0
147
0.625
148
0.0
 69
0
 70
0
 71
0
 72
0
 73
0
 74
0
 75
0
 76
0
 77
1
 78
8
 79
3
170
0
171
3
172
1
173
0
174
0
175
0
176
0
177
0
178
0
179
2
271
2
272
2
273
2
274
3
275
0
276
0
277
2
278
44
279
0
280
0
281
0
282
0
283
0
284
8
285
0
286
0
288
0
289
3
290
0
371
-2
372
-2
  0
ENDTAB
  0
TABLE
  2
BLOCK_RECORD
  5
9
330
0
100
AcDbSymbolTable
 70
2
  0
BLOCK_RECORD
  5
17
330
9
100
AcDbSymbolTableRecord
100
AcDbBlockTableRecord
  2
*Model_Space
340
1A
 70
0
280
1
281
0
  0
BLOCK_RECORD
  5
1B
330
9
100
AcDbSymbolTableRecord
100
AcDbBlockTableRecord
  2
*Paper_Space
340
1E
 70
0
280
1
281
0
  0
ENDTAB
  0
ENDSEC
  0
SECTION
  2
BLOCKS
  0
BLOCK
  5
18
330
17
100
AcDbEntity
  8
0
100
AcDbBlockBegin
  2
*Model_Space
 70
0
 10
0.0
 20
0.0
 30
0.0
  3
*Model_Space
  1

  0
ENDBLK
  5
19
330
17
100
AcDbEntity
  8
0
100
AcDbBlockEnd
  0
BLOCK
  5
1C
330
1B
100
AcDbEntity
  8
0
100
AcDbBlockBegin
  2
*Paper_Space
 70
0
 10
0.0
 20
0.0
 30
0.0
  3
*Paper_Space
  1

  0
ENDBLK
  5
1D
330
1B
100
AcDbEntity
  8
0
100
AcDbBlockEnd
  0
ENDSEC
  0
SECTION
  2
ENTITIES
  0
LWPOLYLINE
  5
32
330
17
100
AcDbEntity
  8
CUT
100
AcDbPolyline
 90
278
 70
1
 10
332.98290942797
 20
95.16568056045503
 10
339.93404343526
 20
94.97857524636498
 10
346.77884844183995
 20
94.75675994544497
 10
348.8499999007503
 20
94.67865274959996
 10
348.8499999007502
 20
98.322240084015
 10
354.85000000077
 20
98.322240084015
 10
354.85000000077
 20
94.44324104519501
 10
359.50854712463996
 20
94.23464475728497
 10
364.12467559214
 20
94.006621181985
 10
368.7005189451
 20
93.75853836947499
 10
373.23821072534
 20
93.48976436994496
 10
376.45455620649994
 20
93.284917817885
 10
379.65243406706
 20
93.068906757805
 10
382.83234231759997
 20
92.84139419705502
 10
385.99477896868
 20
92.60204314296499
 10
389.14024203087
 20
92.35051660289503
 10
392.26922951473995
 20
92.08647758418499
 10
395.38223943084995
 20
91.80958909419496
 10
398.47976978978005
 20
91.51951414027496
 10
401.56179591487995
 20
91.21593260115503
 10
404.62817055774
 20
90.89841248697496
 10
407.67920787128
 20
90.56644900212501
 10
410.7152220084
 20
90.21953735100499
 10
413.73652712201
 20
89.85717273800503
 10
416.74343736501
 20
89.47885036752501
 10
419.73626689033006
 20
89.08406544395496
 10
422.71532985086003
 20
88.67231317171502
 10
425.67984926159
 20
88.24317243501503
 10
428.62887635346
 20
87.79599948403501
 10
431.5624676033
 20
87.329955572085
 10
434.48067948794005
 20
86.84420195245502
 10
437.38356848423007
 20
86.337899878455
 10
440.27119106898
 20
85.81021060336502
 10
443.14360371905
 20
85.26029538048499
 10
446.00086291126
 20
84.68731546313501
 10
448.84134728513004
 20
84.09068901660498
 10
451.66320132908004
 20
83.46951632742503
 10
454.46613029326
 20
82.82248183071499
 10
457.24983942785
 20
82.14826996162503
 10
459.63313328396
 20
81.544395749285
 10
462.00000000638
 20
80.91873348783497
 10
462.00000000638
 20
60.32222446846498
 10
466.00000000638
 20
60.32222446846498
 10
466.00000000638
 20
55.32222446846498
 10
462.00000000638
 20
55.32222446846498
 10
462.00000000638
 20
34.72571544918
 10
459.63313328396
 20
34.100053187726985
 10
457.24983942785
 20
33.49617897539099
 10
454.46613029326
 20
32.82196710628901
 10
451.66320132908004
 20
32.174932609585
 10
448.84134728513004
 20
31.553759920404985
 10
446.00086291126
 20
30.957133473873995
 10
443.14360371905
 20
30.384153556517987
 10
440.27119106898
 20
29.834238333646994
 10
437.38356848423007
 20
29.306549058556982
 10
434.48067948794005
 20
28.800246984549005
 10
431.5624676033
 20
28.314493364920992
 10
428.62887635346
 20
27.84844945297101
 10
425.6798492616
 20
27.401276501997984
 10
422.71532985087003
 20
26.972135765301005
 10
419.73626689033006
 20
26.560383493051006
 10
416.74343736502
 20
26.165598569487997
 10
413.73652712201
 20
25.78727619900701
 10
410.7152220084
 20
25.424911586006004
 10
407.67920787127997
 20
25.077999934882
 10
404.62817055774
 20
24.746036450031994
 10
401.56179591487995
 20
24.42851633585201
 10
398.47976978978
 20
24.124934796741
 10
395.38223943085
 20
23.834859842814012
 10
392.26922951474
 20
23.557971352823984
 10
389.14024203086996
 20
23.293932334119006
 10
385.99477896868
 20
23.042405794047
 10
382.83234231759997
 20
22.80305473995699
 10
379.65243406706
 20
22.57554217919801
 10
376.45455620649994
 20
22.359531119118003
 10
373.23821072534
 20
22.154684567066
 10
368.7005189451
 20
21.885910567531994
 10
364.12467559214
 20
21.637827755019998
 10
359.50854712464
 20
21.409804179719004
 10
354.85000000077
 20
21.20120789181601
 10
354.85000000076997
 20
17.322240084014993
 10
348.8499999007535
 20
17.322240084014993
 10
348.8499999007533
 20
20.965796187413275
 10
346.77884844184
 20
20.887688991570002
 10
339.93404343526
 20
20.665873690650017
 10
332.98290942797
 20
20.47876837655801
 10
325.91614276750994
 20
20.324943094060984
 10
318.72443980142003
 20
20.20296788792399
 10
311.99582475267005
 20
20.117667459274003
 10
305.14060568100996
 20
20.056586166204994
 10
298.14619287754
 20
20.01825619487201
 10
290.99999663338997
 20
20.001209731429014
 10
283.9999966334
 20
25.822924632240984
 10
283.9999966334
 20
20.0
 10
140.00000000076
 20
19.999999999999005
 10
133.00000000077
 20
25.82221847004999
 10
133.00000000077
 20
20.0
 10
10.000000005860016
 20
19.999999999999005
 10
10.00000001327001
 20
10.0
 10
40.00000001326998
 20
10.0
 10
40.00000001326998
 20
14.822218470048995
 10
68.60752781118998
 20
14.822218470048995
 10
68.60752781118995
 20
10.0
 10
288.44237395063
 20
10.0
 10
296.30292920307
 20
10.011785477361997
 10
303.98376411655005
 20
10.048431691703001
 10
311.50111303347995
 20
10.111873316403006
 10
318.87121029623995
 20
10.204045024842998
 10
326.10925269266
 20
10.326806908913
 10
333.22578327792996
 20
10.481716561590986
 10
340.23005579617995
 20
10.670254907893991
 10
347.13132399153994
 20
10.893902872843
 10
350.54610855437005
 20
11.019363118045987
 10
353.93812407397
 20
11.154207010864013
 10
357.30813921965995
 20
11.298673911014987
 10
360.65692266074996
 20
11.453003178220001
 10
363.98524306654
 20
11.617434172196994
 10
367.29386910636003
 20
11.792206252666006
 10
370.58356944951
 20
11.977558779345998
 10
373.85511276528996
 20
12.173731111954993
 10
377.10911892123
 20
12.380975738437002
 10
380.34602309704
 20
12.599621547676009
 10
383.56631693064
 20
12.830022500828989
 10
386.77049205995996
 20
13.072532559052007
 10
389.95904012293005
 20
13.327505683500988
 10
393.13245275747994
 20
13.595295835331996
 10
396.29122160155
 20
13.876256975700983
 10
399.43583829305
 20
14.170743065762991
 10
402.56659922666995
 20
14.479123665722994
 10
405.68367588347
 20
14.801890516757993
 10
408.78737253076997
 20
15.139580851469987
 10
411.87799343590007
 20
15.492731902460008
 10
414.95584286619
 20
15.861880902327016
 10
418.02122508894
 20
16.247565083671986
 10
421.07444437149
 20
16.650321679097004
 10
424.11580498116007
 20
17.070687921201994
 10
427.14521717915
 20
17.509217500504008
 10
430.16241279129997
 20
17.966715723660002
 10
433.16742843193003
 20
18.444097247477004
 10
436.16030071539
 20
18.942276728768007
 10
439.14106625598004
 20
19.462168824342
 10
442.10976166804005
 20
20.00468819100999
 10
445.06642356589
 20
20.57074948558099
 10
448.01108856385997
 20
21.161267364867
 10
450.94319087161
 20
21.777138645090986
 10
453.86191414607003
 20
22.419637289076007
 10
456.76691917256005
 20
23.090243673527993
 10
459.65786673638
 20
23.79043817515401
 10
462.53401470265
 20
24.521669805224008
 10
465.39442402380007
 20
25.28560629956999
 10
468.23846011608
 20
26.084056121745988
 10
469.6541398939801
 20
26.49678867563
 10
471.06548839575
 20
26.918827735305
 10
472.00000000638
 20
27.204261962890996
 10
472.30818342279997
 20
27.32120204761401
 10
472.61068501667
 20
27.45193306536399
 10
472.90702439564006
 20
27.59604243401199
 10
473.19672116736
 20
27.753117571432
 10
473.47929493948004
 20
27.922745895496007
 10
473.75426531966
 20
28.104514824077
 10
474.02115191555004
 20
28.298011775046007
 10
474.27947433479005
 20
28.502824166275985
 10
474.52875218505005
 20
28.71853941564001
 10
474.76850507397
 20
28.94474494101098
 10
474.99825260921
 20
29.181028160259984
 10
475.21751439842
 20
29.426976491261
 10
475.42581004925
 20
29.682177351885002
 10
475.6226591693501
 20
29.946218160005003
 10
475.8075813663701
 20
30.21868633349399
 10
475.98009624798
 20
30.49916929022399
 10
476.21473438359
 20
30.93389273261201
 10
476.41983617985
 20
31.383571535545002
 10
476.59486263989004
 20
31.846056107061003
 10
476.73927476684
 20
32.319196855200005
 10
476.85253356384
 20
32.800844187999985
 10
476.93410003400004
 20
33.2888485135
 10
476.98343518047
 20
33.78106023973899
 10
476.99243328151726
 20
34.0495500654001
 10
471.00000000269006
 20
34.049550066327924
 10
471.00000000561533
 20
52.94882737086533
 10
472.00000000638
 20
52.94882737071052
 10
472.00000000638
 20
62.69562157188034
 10
471.0000000071245
 20
62.69562157203518
 10
471.0000000100499
 20
81.59498952240494
 10
476.9924302624137
 20
81.59498952148613
 10
476.98343522067
 20
81.86338873273496
 10
476.93410018132
 20
82.35560055349504
 10
476.85253386496004
 20
82.84360501469496
 10
476.73927524823
 20
83.32525250653498
 10
476.59486330776997
 20
83.79839341921502
 10
476.41983702021
 20
84.26087814290497
 10
476.21473536219
 20
84.71055706781499
 10
475.98009731036007
 20
85.14528058412498
 10
475.80758244599997
 20
85.42576355606502
 10
475.62266023691006
 20
85.698231718915
 10
475.42581107933006
 20
85.96227249397498
 10
475.21751536949
 20
86.21747330253498
 10
474.99825350364006
 20
86.46342156591498
 10
474.76850587801005
 20
86.699704705405
 10
474.52875288885
 20
86.925910142335
 10
474.27947493238
 20
87.141625297985
 10
474.02115240484
 20
87.34643759367498
 10
473.75426570249
 20
87.539934450705
 10
473.47929522154004
 20
87.72170329037499
 10
473.19672135825
 20
87.89133153400496
 10
472.90702450885
 20
88.048406602885
 10
472.61068506958
 20
88.192515918335
 10
472.30818343668
 20
88.323246901635
 10
472.00000000638
 20
88.44018697412503
 10
471.06548839576
 20
88.725621201705
 10
469.6541398939801
 20
89.147660261375
 10
468.23846011609
 20
89.560392815265
 10
465.39442402380007
 20
90.35884263743498
 10
462.53401470265
 20
91.12277913178502
 10
459.65786673638
 20
91.85401076185497
 10
456.76691917256005
 20
92.55420526347501
 10
453.86191414607003
 20
93.22481164793498
 10
450.94319087161
 20
93.86731029191503
 10
448.01108856387
 20
94.48318157214499
 10
445.06642356589
 20
95.073699451425
 10
442.10976166804005
 20
95.63976074599498
 10
439.14106625598004
 20
96.18228011266501
 10
436.16030071539
 20
96.70217220823497
 10
433.16742843194004
 20
97.20035168952501
 10
430.16241279131
 20
97.677733213345
 10
427.14521717916
 20
98.13523143649502
 10
424.1158049811801
 20
98.57376101580502
 10
421.0744443715
 20
98.994127257905
 10
418.02122508894
 20
99.396883853335
 10
414.95584286618
 20
99.78256803467502
 10
411.87799343589006
 20
100.15171703454502
 10
408.78737253075
 20
100.50486808553501
 10
405.68367588343
 20
100.84255842025499
 10
402.56659922661
 20
101.16532527128498
 10
399.43583829296995
 20
101.47370587125499
 10
396.29122160148995
 20
101.76819196131498
 10
393.13245275745
 20
102.04915310167502
 10
389.95904012292004
 20
102.31694325350497
 10
386.77049205996
 20
102.571916377955
 10
383.56631693067
 20
102.81442643617504
 10
380.34602309710004
 20
103.04482738932501
 10
377.10911892133004
 20
103.26347319856501
 10
373.85511276543997
 20
103.47071782504497
 10
370.58356944959996
 20
103.66689015765502
 10
367.29386910641995
 20
103.85224268433501
 10
363.98524306657
 20
104.02701476481502
 10
360.65692266073995
 20
104.191445758785
 10
357.30813921962
 20
104.34577502599501
 10
353.9381240739
 20
104.49024192614502
 10
350.54610855425994
 20
104.62508581896498
 10
347.13132399139005
 20
104.75054606417501
 10
340.23005579612
 20
104.97419402911498
 10
333.22578327794
 20
105.16273237541498
 10
326.10925269273
 20
105.31764202809501
 10
318.8712102964
 20
105.44040391216498
 10
311.50111303354004
 20
105.53257562060503
 10
303.98376411656994
 20
105.596017245305
 10
296.30292920307
 20
105.63266345964502
 10
288.44237395063
 20
105.644448937015
 10
68.60752781118998
 20
105.644448937015
 10
68.60752781118998
 20
100.82226169797502
 10
40.00000001326998
 20
100.82226169797502
 10
40.00000001326998
 20
105.644448937015
 10
10.000000005860016
 20
105.644448937015
 10
10.0
 20
95.644448937015
 10
133.00000000077
 20
95.644448270515
 10
133.00000000077
 20
89.82221847004502
 10
140.00000000076997
 20
95.644448937015
 10
283.9999966334
 20
95.644448937015
 10
283.9999966334
 20
89.82292463223496
 10
290.99999663338997
 20
95.64323920558502
 10
296.07714267665995
 20
95.63330084186498
 10
301.21174409187995
 20
95.612194288355
 10
306.50619383141
 20
95.57764039732501
 10
311.88832869097
 20
95.52793315471502
 10
317.48452740195995
 20
95.45921132729501
 10
318.72443980142003
 20
95.44148104908504
 10
325.91614276750994
 20
95.31950584294498
  0
LWPOLYLINE
  5
33
330
17
100
AcDbEntity
  8
CUT
100
AcDbPolyline
 90
39
 70
1
 10
26.500000012300006
 20
100.64444893725499
 10
26.480575406256875
 20
100.88506585854162
 10
26.422804675220725
 20
101.11945092795719
 10
26.328184050779825
 20
101.34153369532066
 10
26.199164157405264
 20
101.54556233361194
 10
26.039086542564405
 20
101.72625260827073
 10
25.852097132396743
 20
101.87892473609548
 10
25.643038854404587
 20
101.9996245891706
 10
25.417326208174686
 20
102.08522610470209
 10
25.18080503268299
 20
102.1335122484021
 10
24.93960110213588
 20
102.14323243451236
 10
24.699961471635945
 20
102.1141349153184
 10
24.468092681736202
 20
102.04697330128312
 10
24.250000012300006
 20
101.94348704293168
 10
24.05133194890694
 20
101.80635637999649
 10
23.877233890043357
 20
101.6391329246162
 10
23.732214883984312
 20
101.44614767644669
 10
23.620030846811773
 20
101.2323988520451
 10
23.54358728616093
 20
101.0034224336863
 10
23.50486405009869
 20
100.7651487903301
 10
23.50486405009869
 20
100.52374908417988
 10
23.54358728616093
 20
100.28547544082369
 10
23.620030846811773
 20
100.05649902246489
 10
23.732214883984312
 20
99.8427501980633
 10
23.877233890043357
 20
99.64976494989378
 10
24.05133194890694
 20
99.4825414945135
 10
24.250000012300006
 20
99.3454108315783
 10
24.468092681736202
 20
99.24192457322687
 10
24.699961471635945
 20
99.17476295919158
 10
24.93960110213589
 20
99.14566543999763
 10
25.180805032682997
 20
99.15538562610789
 10
25.417326208174686
 20
99.20367176980795
 10
25.643038854404594
 20
99.28927328533939
 10
25.852097132396743
 20
99.4099731384145
 10
26.039086542564405
 20
99.56264526623926
 10
26.199164157405264
 20
99.74333554089804
 10
26.328184050779825
 20
99.94736417918932
 10
26.422804675220732
 20
100.1694469465528
 10
26.480575406256875
 20
100.40383201596836
  0
LWPOLYLINE
  5
34
330
17
100
AcDbEntity
  8
CUT
100
AcDbPolyline
 90
39
 70
1
 10
26.500000012490034
 20
15.000000002321997
 10
26.480575406446903
 20
15.240616923608627
 10
26.422804675410752
 20
15.475001993024193
 10
26.328184050969853
 20
15.69708476038764
 10
26.19916415759529
 20
15.901113398678945
 10
26.039086542754433
 20
16.081803673337703
 10
25.85209713258677
 20
16.23447580116249
 10
25.643038854594614
 20
16.35517565423757
 10
25.417326208364713
 20
16.440777169769035
 10
25.180805032873018
 20
16.489063313469075
 10
24.93960110232591
 20
16.498783499579332
 10
24.699961471825972
 20
16.469685980385407
 10
24.46809268192623
 20
16.40252436635012
 10
24.250000012490034
 20
16.299038107998655
 10
24.05133194909697
 20
16.161907445063463
 10
23.877233890233384
 20
15.994683989683182
 10
23.73221488417434
 20
15.80169874151369
 10
23.6200308470018
 20
15.587949917112098
 10
23.543587286350956
 20
15.358973498753329
 10
23.504864050288717
 20
15.120699855397078
 10
23.504864050288717
 20
14.879300149246887
 10
23.543587286350956
 20
14.641026505890665
 10
23.6200308470018
 20
14.412050087531867
 10
23.73221488417434
 20
14.198301263130276
 10
23.877233890233384
 20
14.005316014960783
 10
24.05133194909697
 20
13.838092559580502
 10
24.250000012490034
 20
13.700961896645339
 10
24.46809268192623
 20
13.597475638293872
 10
24.699961471825972
 20
13.530314024258587
 10
24.939601102325916
 20
13.501216505064633
 10
25.180805032873025
 20
13.51093669117492
 10
25.417326208364713
 20
13.55922283487493
 10
25.64303885459462
 20
13.644824350406424
 10
25.85209713258677
 20
13.765524203481505
 10
26.039086542754433
 20
13.918196331306262
 10
26.19916415759529
 20
14.09888660596502
 10
26.328184050969853
 20
14.302915244256326
 10
26.42280467541076
 20
14.524998011619772
 10
26.480575406446903
 20
14.759383081035367
  0
LWPOLYLINE
  5
35
330
17
100
AcDbEntity
  8
CUT
100
AcDbPolyline
 90
39
 70
1
 10
106.49952065106999
 20
14.723056691138993
 10
106.48009604502685
 20
14.963673612425652
 10
106.42232531399071
 20
15.198058681841218
 10
106.3277046895498
 20
15.420141449204664
 10
106.19868479617524
 20
15.624170087495969
 10
106.03860718133438
 20
15.804860362154727
 10
105.85161777116672
 20
15.957532489979485
 10
105.64255949317457
 20
16.078232343054566
 10
105.41684684694467
 20
16.16383385858606
 10
105.18032567145298
 20
16.21212000228607
 10
104.93912174090586
 20
16.221840188396357
 10
104.69948211040592
 20
16.192742669202403
 10
104.46761332050619
 20
16.125581055167117
 10
104.24952065106999
 20
16.02209479681565
 10
104.05085258767691
 20
15.884964133880487
 10
103.87675452881334
 20
15.717740678500206
 10
103.73173552275429
 20
15.524755430330714
 10
103.61955148558175
 20
15.311006605929123
 10
103.54310792493091
 20
15.082030187570325
 10
103.50438468886867
 20
14.843756544214102
 10
103.50438468886867
 20
14.602356838063912
 10
103.54310792493091
 20
14.36408319470766
 10
103.61955148558175
 20
14.135106776348891
 10
103.73173552275429
 20
13.9213579519473
 10
103.87675452881334
 20
13.728372703777808
 10
104.05085258767691
 20
13.561149248397527
 10
104.24952065106999
 20
13.424018585462335
 10
104.46761332050619
 20
13.320532327110868
 10
104.69948211040592
 20
13.253370713075583
 10
104.93912174090586
 20
13.224273193881658
 10
105.18032567145298
 20
13.233993379991915
 10
105.41684684694467
 20
13.282279523691955
 10
105.64255949317457
 20
13.36788103922342
 10
105.85161777116673
 20
13.488580892298529
 10
106.03860718133438
 20
13.641253020123287
 10
106.19868479617524
 20
13.821943294782045
 10
106.3277046895498
 20
14.02597193307335
 10
106.42232531399071
 20
14.248054700436796
 10
106.48009604502685
 20
14.482439769852363
  0
LWPOLYLINE
  5
36
330
17
100
AcDbEntity
  8
CUT
100
AcDbPolyline
 90
39
 70
1
 10
106.49952065086998
 20
100.92139224880498
 10
106.48009604482685
 20
101.16200917009166
 10
106.42232531379071
 20
101.39639423950723
 10
106.3277046893498
 20
101.61847700687065
 10
106.19868479597524
 20
101.82250564516198
 10
106.03860718113438
 20
102.00319591982071
 10
105.85161777096671
 20
102.15586804764547
 10
105.64255949297457
 20
102.27656790072058
 10
105.41684684674466
 20
102.36216941625207
 10
105.18032567125297
 20
102.41045555995208
 10
104.93912174070586
 20
102.42017574606234
 10
104.69948211020592
 20
102.39107822686839
 10
104.46761332030619
 20
102.3239166128331
 10
104.24952065086998
 20
102.22043035448166
 10
104.05085258747691
 20
102.08329969154647
 10
103.87675452861333
 20
101.91607623616619
 10
103.73173552255429
 20
101.72309098799667
 10
103.61955148538175
 20
101.50934216359508
 10
103.5431079247309
 20
101.28036574523634
 10
103.50438468866867
 20
101.04209210188009
 10
103.50438468866867
 20
100.80069239572993
 10
103.5431079247309
 20
100.56241875237367
 10
103.61955148538175
 20
100.33344233401488
 10
103.73173552255429
 20
100.11969350961328
 10
103.87675452861333
 20
99.92670826144376
 10
104.05085258747691
 20
99.75948480606348
 10
104.24952065086998
 20
99.62235414312835
 10
104.46761332030619
 20
99.51886788477685
 10
104.69948211020592
 20
99.45170627074157
 10
104.93912174070586
 20
99.42260875154761
 10
105.18032567125297
 20
99.43232893765793
 10
105.41684684674466
 20
99.48061508135794
 10
105.64255949297457
 20
99.56621659688943
 10
105.85161777096673
 20
99.68691644996454
 10
106.03860718113438
 20
99.8395885777893
 10
106.19868479597524
 20
100.02027885244803
 10
106.3277046893498
 20
100.22430749073936
 10
106.42232531379071
 20
100.44639025810278
 10
106.48009604482685
 20
100.68077532751835
  0
TEXT
  5
37
330
17
100
AcDbEntity
  8
LABELS_NOT_CUT
100
AcDbText
 10
469.00000000638
 20
57.82222446846498
 30
0.0
 40
2.0
  1
A43
100
AcDbText
  0
LWPOLYLINE
  5
38
330
17
100
AcDbEntity
  8
CUT
100
AcDbPolyline
 90
14
 70
1
 10
90.00000033196207
 20
111.0641443222492
 10
316.999978717992
 20
112.24391032800708
 10
316.9999787179921
 20
121.45729028720683
 10
209.3499999999821
 20
122.30639576698974
 10
209.3499999999821
 20
117.26170475287728
 10
204.34999999998215
 20
117.2617050037033
 10
204.34999980849207
 20
122.34583402286427
 10
15.000000001979032
 20
123.8393607684722
 10
15.000000331967044
 20
117.26170475287807
 10
10.000000000000028
 20
117.26170450205115
 10
10.0
 20
110.644448937015
 10
85.00000033196207
 20
111.03817592128775
 10
85.00000033196207
 20
115.56641001279104
 10
90.00000033196207
 20
115.56641001279104
  0
TEXT
  5
39
330
17
100
AcDbEntity
  8
LABELS_NOT_CUT
100
AcDbText
 10
163.49998935899603
 20
116.41405725742109
 30
0.0
 40
2.0
  1
A07_R_I
100
AcDbText
  0
LWPOLYLINE
  5
3A
330
17
100
AcDbEntity
  8
CUT
100
AcDbPolyline
 90
200
 70
1
 10
551.5482902443418
 20
16.753573409862955
 10
548.2519425860487
 20
18.201762308402973
 10
548.008057274119
 20
18.355270788448653
 10
547.7227559549898
 20
18.49790556904338
 10
547.4248477863883
 20
18.611889104762916
 10
547.1172017868294
 20
18.696123671824772
 10
546.8027807554662
 20
18.749798045320922
 10
546.4846127387115
 20
18.772395311678736
 10
546.1657618684919
 20
18.763697846885478
 10
545.8492988529896
 20
18.72378941226146
 10
545.538271404042
 20
18.653054347865872
 10
545.2356748860063
 20
18.55217387102014
 10
544.9444234687709
 20
18.422119515879434
 10
544.6673220626946
 20
18.264143776970148
 10
544.4070393057963
 20
18.079768047020846
 10
544.166081863311
 20
17.87076796509208
 10
543.9467702871308
 20
17.639156316237358
 10
543.7549837690389
 20
17.392017977943905
 10
540.4811156009414
 20
12.716449679336609
 10
540.3610492350556
 20
12.563201715708797
 10
540.2299325394919
 20
12.428539319727658
 10
540.0851275807479
 20
12.308718317118501
 10
539.928305320618
 20
12.205121369913183
 10
539.7612753933048
 20
12.118943924322284
 10
539.5859652233448
 20
12.051180416051192
 10
539.4043977842628
 20
12.002612795086232
 10
539.2186682546752
 20
11.973801502446111
 10
539.0309198412294
 20
11.965079003044291
 10
538.8433190472879
 20
11.976545949261183
 10
538.6580306727451
 20
12.00807001947221
 10
538.4771928335813
 20
12.059287444926031
 10
538.3028922892905
 20
12.129607207463206
 10
538.1371403629163
 20
12.2182178594751
 10
537.9818746421307
 20
12.324079903242438
 10
537.8346002018536
 20
12.449678384985585
 10
536.4124931143394
 20
13.82469461653545
 10
534.9581982649008
 20
15.283048250173561
 10
526.9775537954969
 20
17.018640802617934
 10
523.0118612133072
 20
17.865968702491845
 10
519.0165568172557
 20
18.70854667112139
 10
513.4772918978422
 20
19.857571876604872
 10
507.9771220636553
 20
20.975952078628602
 10
502.4718622937195
 20
22.07299497621669
 10
496.9191636436499
 20
23.157650921599398
 10
496.4419892628139
 20
23.256790827956266
 10
495.898880513789
 20
23.397451819671403
 10
495.3732609662185
 20
23.562758266170647
 10
494.8645740755503
 20
23.75056635403846
 10
494.3728692649805
 20
23.958577581441048
 10
493.8982143877229
 20
24.184486724095763
 10
493.4406918736471
 20
24.425979805315478
 10
493.0003948697296
 20
24.68073320903838
 10
492.57773820518173
 20
24.946216142453196
 10
492.11853557414213
 20
25.25876481569648
 10
491.68056224994757
 20
25.581686153286356
 10
491.0952094815533
 20
26.054286561665407
 10
490.54867078979294
 20
26.538221093005077
 10
490.03990000262775
 20
27.028355546999194
 10
489.56835203675894
 20
27.519135434917814
 10
489.13347745099543
 20
28.004995067141216
 10
488.73471824601245
 20
28.48036359891738
 10
488.3715037307261
 20
28.939672547111762
 10
488.04335364606777
 20
29.37722158790347
 10
487.7305603291803
 20
29.815474978798605
 10
487.4272210630039
 20
30.261932359824257
 10
487.1332710050983
 20
30.716158355238527
 10
486.8486574121712
 20
31.17769923078464
 10
486.5733272284202
 20
31.64610028604634
 10
486.30722702840785
 20
32.120905956245004
 10
486.050302975116
 20
32.60165990728571
 10
485.8026240029477
 20
33.087663352526434
 10
485.4925328330943
 20
33.729321051214896
 10
485.19772887328895
 20
34.378069418383646
 10
484.9178372055949
 20
35.03324390707681
 10
484.65266744345047
 20
35.693794013642226
 10
484.4020278099432
 20
36.358668277342694
 10
484.16572519450676
 20
37.02681443519802
 10
483.9435652182067
 20
37.69717954166793
 10
483.73539725475507
 20
38.368565076503465
 10
483.5167502329209
 20
39.127182917223976
 10
483.3142053303277
 20
39.88887735565723
 10
483.1274139295484
 20
40.65310159755579
 10
482.9560693439622
 20
41.41916085752228
 10
482.7998643329363
 20
42.18635981350454
 10
482.65849110121826
 20
42.95400267116702
 10
482.5316413032151
 20
43.72139321876241
 10
482.4190060506937
 20
44.48783487283183
 10
482.3202759226192
 20
45.25263071502976
 10
482.23514097603106
 20
46.01508352039499
 10
482.1632907569292
 20
46.7744957774111
 10
482.1044143103072
 20
47.53016970005112
 10
482.05820018848226
 20
48.28140723205339
 10
482.024336456951
 20
49.027510043460424
 10
482.0025106969857
 20
49.767779519410354
 10
481.99243328151726
 20
50.499825820919966
 10
482.0059081587809
 20
51.3786641449158
 10
482.0364576153444
 20
52.270781754480446
 10
482.08474514946204
 20
53.17351848129973
 10
482.15145317749796
 20
54.08552103620485
 10
482.2372630074726
 20
55.00543685187783
 10
482.3428548257086
 20
55.93191405618455
 10
482.46890767464004
 20
56.863601477093425
 10
482.61609942561563
 20
57.799148678586164
 10
482.7851067507072
 20
58.73720602762904
 10
482.9766050979214
 20
59.676424792770575
 10
483.19126867481555
 20
60.61545727512606
 10
483.42977044628174
 20
61.552956972519766
 10
483.6927821531581
 20
62.48757877714007
 10
483.980974359332
 20
63.417979206400005
 10
484.2950165359663
 20
64.34281666541904
 10
484.6357239300512
 20
65.26114724944713
 10
484.9159303021439
 20
65.96108170807301
 10
485.2042317031659
 20
66.63613453029836
 10
485.4999263137212
 20
67.28632584910451
 10
485.8021907782196
 20
67.9114850004049
 10
486.25644149957
 20
68.78598293409675
 10
486.7217180405843
 20
69.60944555356309
 10
487.1964661377872
 20
70.3837949618624
 10
487.6787880692759
 20
71.11028758420483
 10
488.166788101022
 20
71.79017911459971
 10
488.65857216166273
 20
72.42472403725179
 10
489.15224738764573
 20
73.01517516858512
 10
489.64610430948596
 20
73.56298598597924
 10
490.0681984443685
 20
73.99919723864909
 10
490.54818345730087
 20
74.4610131936524
 10
491.0855050852351
 20
74.9374366334202
 10
491.6807428956446
 20
75.41849957702658
 10
492.0871915543788
 20
75.71902571835412
 10
492.5178351140984
 20
76.01458396646103
 10
492.9716500426139
 20
76.30171067641645
 10
493.4489105227067
 20
76.57785948607405
 10
493.88530981732515
 20
76.8080842322543
 10
494.3055369742291
 20
77.01003340887885
 10
494.7086723449645
 20
77.18572356615225
 10
495.09395504119516
 20
77.33724503428445
 10
495.4606316596298
 20
77.46668154277434
 10
495.8079577302583
 20
77.57611024004242
 10
496.1352005849743
 20
77.66760202046189
 10
496.44058234868066
 20
77.7429600943591
 10
496.91916364955136
 20
77.84239243769036
 10
502.47186229095405
 20
78.92704825116884
 10
507.977122063656
 20
80.02409114931332
 10
513.4772918978426
 20
81.14247135133002
 10
519.0165568172563
 20
82.29149655681573
 10
523.0118612133058
 20
83.13407452545086
 10
526.9775544816306
 20
83.98140257192851
 10
534.9581563289546
 20
85.71703276845182
 10
536.4124929541543
 20
87.17534853886772
 10
537.8345454201325
 20
88.55038356417042
 10
537.9818497355626
 20
88.67594634678406
 10
538.1371403660874
 20
88.781825376317
 10
538.3028922919967
 20
88.87043602962935
 10
538.47719283608
 20
88.94075579324763
 10
538.6580306752302
 20
88.99197321953184
 10
538.843319049896
 20
89.02349729028417
 10
539.0309198440359
 20
89.03496423675028
 10
539.2186682576818
 20
89.02624173728776
 10
539.4043977874239
 20
88.99743044427646
 10
539.5859652265573
 20
88.9488628226544
 10
539.761275396387
 20
88.88109931346872
 10
539.9283053233364
 20
88.79492186672834
 10
540.0851275828298
 20
88.69132491816963
 10
540.2299325406185
 20
88.57150391407104
 10
540.3610492348628
 20
88.4368415165213
 10
540.4811156000513
 20
88.28359354986748
 10
543.7549837690378
 20
83.60802524999323
 10
543.9467702871312
 20
83.36088691169738
 10
544.166081863312
 20
83.12927526283882
 10
544.4070393057973
 20
82.92027518091328
 10
544.667322062695
 20
82.73589945096107
 10
544.9444234687735
 20
82.57792371205231
 10
545.23567488601
 20
82.4478693569111
 10
545.5382714040434
 20
82.34698888007124
 10
545.8492988529902
 20
82.27625381567147
 10
546.1657618684916
 20
82.23634538105081
 10
546.4846127387121
 20
82.22764791625106
 10
546.8027807554683
 20
82.25024518261222
 10
547.1172017868315
 20
82.30391955610531
 10
547.4248477863906
 20
82.38815412317341
 10
547.7227559549929
 20
82.50213765888785
 10
548.0080572741216
 20
82.64477243949099
 10
548.2519423738681
 20
82.79828078597652
 10
551.548294466567
 20
84.24646378811059
 10
551.6354660253006
 20
84.12196990026064
 10
551.6354660253006
 20
84.55782326749764
 10
551.6354704867576
 20
84.55782522754501
 10
566.6929027040305
 20
63.05358341979
 10
568.7407828147526
 20
64.48752451066801
 10
553.9694307017036
 20
85.583201587807
 10
566.2991395544205
 20
91.0
 10
573.3327483749775
 20
91.0
 10
599.3327483749666
 20
53.000015615548
 10
599.3327483749666
 20
48.000015615547
 10
573.3327483749765
 20
10.0
 10
566.2991395544236
 20
10.000000000010001
 10
553.9694232660265
 20
15.41683102088
 10
568.7407828147526
 20
36.51251871727
 10
566.6929027040296
 20
37.94645980815
 10
551.6354660253006
 20
16.442211628770007
 10
551.6354660253006
 20
16.878073327675384
  0
LWPOLYLINE
  5
3B
330
17
100
AcDbEntity
  8
CUT
100
AcDbPolyline
 90
145
 70
1
 10
498.3434302445726
 20
30.77581115286001
 10
503.97186800742156
 20
29.676442328140006
 10
509.50646013058156
 20
28.573550521200005
 10
515.0364807887706
 20
27.44910380489
 10
520.6054835104586
 20
26.293914612720002
 10
524.6213434024365
 20
25.447001122250008
 10
528.6064185984505
 20
24.59553164018
 10
536.5505926769886
 20
22.867874450230005
 10
537.9579692419645
 20
22.558525452350004
 10
538.3563767096746
 20
23.011486390620007
 10
538.7790162424706
 20
23.441925639800004
 10
539.2246167707426
 20
23.848548672990006
 10
539.6918381707065
 20
24.230132589500002
 10
540.1792752947696
 20
24.585529792640003
 10
540.6854621974466
 20
24.913671441140004
 10
541.2088765441256
 20
25.213570663560006
 10
541.7479441894186
 20
25.48432552634
 10
553.7534971596726
 20
43.592890548894
 10
553.9991999729825
 20
43.978637864744
 10
554.2306269029366
 20
44.373115291533
 10
554.4474681397995
 20
44.775794744882
 10
554.6494333996105
 20
45.186137160413
 10
554.8362523127826
 20
45.603593215387
 10
555.0076747860466
 20
46.027604064086
 10
555.1634713372466
 20
46.457602085928
 10
555.3034334025456
 20
46.893011645345
 10
555.4273736156335
 20
47.333249862375
 10
555.5351260585486
 20
47.777727392965
 10
555.6265464837926
 20
48.225849217921
 10
555.7015125074336
 20
48.677015439456
 10
555.7599237729415
 20
49.130622084266
 10
555.8017020855326
 20
49.58606191207
 10
555.8267915168495
 20
50.042725228519
 10
555.8351584798336
 20
50.50000070138497
 10
555.8267917736846
 20
50.95727617895
 10
555.8017025988596
 20
51.413939509491
 10
555.7599245420736
 20
51.869379360761
 10
555.7015135313405
 20
52.322986038378
 10
555.6265477611036
 20
52.774152302018
 10
555.5351275875536
 20
53.222274178322
 10
555.4273753942856
 20
53.666751769433
 10
555.3034354284646
 20
54.106990056076
 10
555.1634736077195
 20
54.542399694104006
 10
555.0076772980345
 20
54.972397803452
 10
554.8362550629225
 20
55.39640874843201
 10
554.6494363842206
 20
55.813864908336
 10
554.4474713548846
 20
56.224207437302994
 10
554.2306303441926
 20
56.626887012444996
 10
553.9992036358036
 20
57.02136456921801
 10
553.7535010391546
 20
57.407112023072
 10
541.7479319583786
 20
75.515723430412
 10
541.2088661328496
 20
75.786478156229
 10
540.6854535496666
 20
76.086377061815
 10
540.1792683401015
 20
76.414518219587
 10
539.6918328251576
 20
76.76991476512
 10
539.2246129372766
 20
77.151497865079
 10
538.7790138116436
 20
77.558119931674
 10
538.3563755603255
 20
77.988558073953
 10
537.9579692419666
 20
78.441517775579
 10
536.5505926769896
 20
78.132168777704
 10
528.6064185984505
 20
76.404511587762
 10
524.6213434024365
 20
75.553042105694
 10
520.6054835104586
 20
74.706128615216
 10
515.0364807887706
 20
73.550939423053
 10
509.5064601305826
 20
72.42649270673601
 10
503.9718680074226
 20
71.323600899799
 10
498.3434136152496
 20
70.22422914017702
 10
498.18674483487257
 20
70.192279427214
 10
498.01027753566063
 20
70.147481715499
 10
497.79628622669054
 20
70.07712555007902
 10
497.5288799600436
 20
69.964241520196
 10
497.1921677878046
 20
69.791860215091
 10
496.78893429925654
 20
69.547681870346
 10
496.3980553567246
 20
69.26962231876601
 10
496.0962322137966
 20
69.024966996053
 10
495.8113275088306
 20
68.77185414684502
 10
495.5460889636786
 20
68.516710850874
 10
495.30326430019363
 20
68.26596418787301
 10
495.0035622889686
 20
67.93364019482502
 10
494.6945176391496
 20
67.564328079917
 10
494.3778594442166
 20
67.15602299537801
 10
494.05531679764954
 20
66.706720093439
 10
493.72861879292964
 20
66.21441452633101
 10
493.3994945235346
 20
65.677101446286
 10
493.0696730829445
 20
65.092776005534
 10
492.7408835646406
 20
64.45943335630601
 10
492.51638816888953
 20
63.995206340973
 10
492.2956724227306
 20
63.50984937641002
 10
492.07744728088153
 20
62.998836998301016
 10
491.86238344556557
 20
62.46157921530701
 10
491.5997886886746
 20
61.752567302481
 10
491.35588317849556
 20
61.031200462122996
 10
491.13037941562254
 20
60.299023733495005
 10
490.9229899006466
 20
59.557582155863
 10
490.7334271341616
 20
58.808420768489015
 10
490.5614036167585
 20
58.053084610639004
 10
490.4066318490296
 20
57.29311872157601
 10
490.26882433156857
 20
56.530068140564
 10
490.14769356496663
 20
55.76547790686601
 10
490.04295204981656
 20
55.000893059747
 10
489.95431228671055
 20
54.237858638472005
 10
489.88148677624156
 20
53.477919682303
 10
489.82418801900155
 20
52.722621230505005
 10
489.7821285155836
 20
51.973508322341004
 10
489.7550207665786
 20
51.232125997076004
 10
489.74257727258055
 20
50.50001929397391
 10
489.7710487388965
 20
49.27507293996901
 10
489.80032072218853
 20
48.65576543929701
 10
489.8397985393866
 20
48.03300943986401
 10
489.8896184408545
 20
47.40763572943101
 10
489.9499166769576
 20
46.780475095764004
 10
490.0208294980566
 20
46.152358326624004
 10
490.10249315451756
 20
45.52411620977501
 10
490.1950438967026
 20
44.896579532979004
 10
490.29861797497654
 20
44.27057908400201
 10
490.4133516397005
 20
43.646945650604
 10
490.5393811412406
 20
43.02651002055101
 10
490.6768427299596
 20
42.410102981604005
 10
490.82587265621953
 20
41.798555321527004
 10
490.9866071703856
 20
41.192697828083006
 10
491.15918252282063
 20
40.59336128903601
 10
491.3236740789496
 20
40.063144304450006
 10
491.4981300136776
 20
39.53730541146001
 10
491.68227900994157
 20
39.017100563060005
 10
491.8758497506806
 20
38.503785712230005
 10
492.0785709188326
 20
37.99861681198001
 10
492.2901711973336
 20
37.50284981530001
 10
492.5103792691226
 20
37.01774067518001
 10
492.73892381713654
 20
36.54454534461001
 10
493.10587436197557
 20
35.84150621807001
 10
493.4884556879956
 20
35.17511720830001
 10
493.8865279859266
 20
34.54468091443
 10
494.2979916989925
 20
33.95343540855001
 10
494.7478780743436
 20
33.37209848445001
 10
494.9948776798976
 20
33.07903729472001
 10
495.2548350253546
 20
32.78906847865001
 10
495.52644020670357
 20
32.50570768034001
 10
495.8083833199306
 20
32.23247054387001
 10
496.09935446102554
 20
31.97287271334001
 10
496.3980437259986
 20
31.73042983286001
 10
496.81313461142156
 20
31.436459941620008
 10
497.1917209626465
 20
31.207878844370008
 10
497.54722545310256
 20
31.029003924810006
 10
497.8790870785796
 20
30.896682978440012
 10
498.18797664657757
 20
30.80747968149001
  0
TEXT
  5
3C
330
17
100
AcDbEntity
  8
LABELS_NOT_CUT
100
AcDbText
 10
577.5839526274347
 20
50.49991326115247
 30
0.0
 40
2.0
  1
A18
100
AcDbText
  0
LWPOLYLINE
  5
3D
330
17
100
AcDbEntity
  8
CUT
100
AcDbPolyline
 90
122
 70
1
 10
499.63791270562217
 20
112.29579754876897
 10
496.55532935054214
 20
112.99731369724799
 10
493.5053592170822
 20
113.67938500678099
 10
491.2046038910222
 20
114.185578698487
 10
488.3001732244521
 20
114.81455335396998
 10
483.9169155692722
 20
115.74343396158503
 10
480.19162871933213
 20
116.51355806333902
 10
476.90594043649213
 20
117.17717245606099
 10
473.5779107529421
 20
117.83392104390202
 10
471.1110964207421
 20
118.31009834377397
 10
466.98879886052214
 20
119.08485819541102
 10
463.83271356095213
 20
119.65939589796898
 10
460.6427045374121
 20
120.22326353153397
 10
457.57363807938214
 20
120.74883636040101
 10
454.65302138958214
 20
121.23313814976098
 10
452.35099534227214
 20
121.60333464179803
 10
450.0122963646021
 20
121.96913618109897
 10
447.6831644003821
 20
122.32335907536901
 10
445.4098393934421
 20
122.65881963230902
 10
442.4480100281221
 20
123.079886132367
 10
438.25629145958214
 20
123.64476976078498
 10
434.10616943735215
 20
124.16990272276598
 10
434.11180688146214
 20
117.38212542193901
 10
429.1118086059021
 20
117.37797277968201
 10
429.1056807780021
 20
124.75619778420798
 10
426.7735908685521
 20
125.01208815210299
 10
424.4745325068121
 20
125.25312379414902
 10
422.22159351572213
 20
125.47803228576203
 10
420.0278617182721
 20
125.68554120235899
 10
417.18330895288216
 20
125.936851989655
 10
415.01378025564213
 20
126.11437870445599
 10
412.8079667057521
 20
126.28239202813103
 10
410.6109192178021
 20
126.43748303353698
 10
408.4676887063981
 20
126.57624279353001
 10
406.18641992298615
 20
126.70974644731899
 10
403.87407035231814
 20
126.83008776320099
 10
401.53216587538816
 20
126.93701917110701
 10
399.17050102290114
 20
127.02985878427603
 10
395.70368990201916
 20
127.139457363968
 10
395.7104646166581
 20
118.98234692300099
 10
390.7104663411021
 20
118.97819428074399
 10
390.70359989068214
 20
127.24575939511897
 10
387.7708957627621
 20
127.28314353169003
 10
384.8573888345391
 20
127.30522743536102
 10
382.69159854451715
 20
127.312312422547
 10
380.6018617488471
 20
127.30982777268099
 10
378.25955916585315
 20
127.29334166759799
 10
375.9346768971021
 20
127.25981269255698
 10
373.64057845557613
 20
127.20701643694201
 10
371.39062735425716
 20
127.13272849013902
 10
369.2176100056281
 20
127.03666987613798
 10
367.0346862363181
 20
126.91307936056899
 10
364.85061814508214
 20
126.760180434819
 10
362.63451550479215
 20
126.57293632902201
 10
361.17629255541914
 20
126.431132135866
 10
359.7154582987181
 20
126.27390625238098
 10
358.2741261247231
 20
126.103637086383
 10
357.5642027749161
 20
126.01420992472202
 10
356.8608774780021
 20
125.921988403115
 10
355.1263257022531
 20
125.67991709780802
 10
353.4349617159471
 20
125.42386089482898
 10
351.1833856707501
 20
125.05118404037898
 10
349.0168243171381
 20
124.65685222299697
 10
346.93695662277213
 20
124.243710126699
 10
344.94546155531316
 20
123.81460243549901
 10
343.91076911607814
 20
123.57808982742301
 10
342.81249446585616
 20
123.316366396293
 10
341.12324838408813
 20
122.89022809241101
 10
339.38866164172913
 20
122.423150437505
 10
337.66573008214516
 20
121.92925032941298
 10
336.0114495487031
 20
121.42264466597697
 10
335.0690109396741
 20
121.11756530054902
 10
334.1750710862671
 20
120.81688958645998
 10
333.34596757532313
 20
120.52746519183898
 10
332.67245255009516
 20
120.28436380180102
 10
332.4733365080441
 20
120.21104857588602
 10
331.22943580034314
 20
119.73510902073502
 10
330.1060537753591
 20
119.274317640405
 10
329.09490355367916
 20
118.82889296476901
 10
328.1876982558881
 20
118.399053523698
 10
327.37615100257614
 20
117.98501784706502
 10
326.6519749143291
 20
117.587004464742
 10
326.0068831117341
 20
117.20523190659998
 10
325.43258871537813
 20
116.83991870251202
 10
324.8414685422661
 20
116.43500950189701
 10
324.31395170976214
 20
116.04451480090603
 10
323.83244446348414
 20
115.66147094707401
 10
323.37935304904914
 20
115.27891428793299
 10
322.90710939772913
 20
114.86632359339501
 10
322.27001362250013
 20
114.287764897346
 10
321.9999787179921
 20
114.03217203953199
 10
322.25071753185614
 20
113.94989571026298
 10
322.7538818256761
 20
113.80492399350601
 10
323.96291182233614
 20
113.502691207194
 10
325.39157557393116
 20
113.17917556982599
 10
326.82346707114914
 20
112.881630104936
 10
328.04218030468013
 20
112.65730783605801
 10
329.33335662614616
 20
112.46187171488702
 10
330.65379775823214
 20
112.293504059425
 10
332.0030691528721
 20
112.14596730337303
 10
333.38073626200014
 20
112.01302388043098
 10
335.90324534146214
 20
111.78970815576099
 10
338.1052543457781
 20
111.61292628023199
 10
339.4226180430301
 20
111.51633774977199
 10
341.8503201603791
 20
111.35624212035799
 10
344.60658784983514
 20
111.20054450309601
 10
347.5743206245201
 20
111.06119619184801
 10
350.73244639832114
 20
110.94061188971898
 10
352.82722577246415
 20
110.87490479379102
 10
354.9142735593761
 20
110.819477029457
 10
356.26078581973513
 20
110.78871690415099
 10
360.2952571543431
 20
110.718008638659
 10
365.33595837676813
 20
110.66490371097501
 10
369.9369127964071
 20
110.644448937015
 10
373.83318908544913
 20
110.64583377037502
 10
378.2022202653271
 20
110.656252455014
 10
385.3159471603481
 20
110.67665277599701
 10
389.8447894941221
 20
110.68770184277503
 10
401.5226988121531
 20
110.70891649643698
 10
420.61691960898213
 20
110.73829196480301
 10
505.66316462872214
 20
110.890825200253
 10
502.6936706691322
 20
111.58893517766398
  0
LWPOLYLINE
  5
3E
330
17
100
AcDbEntity
  8
CUT
100
AcDbPolyline
 90
91
 70
1
 10
362.30956856046913
 20
115.75981031664497
 10
362.3089761399391
 20
115.64305253741901
 10
362.2947851525281
 20
115.52715885403597
 10
362.26718886897214
 20
115.41370765260598
 10
362.2265631302091
 20
115.30424405444802
 10
362.1734612287041
 20
115.200258872674
 10
362.1086063730171
 20
115.10316830842697
 10
362.03288183823713
 20
115.01429466326601
 10
361.9473189364301
 20
114.93484833039798
 10
361.85308297093115
 20
114.865911310022
 10
361.7514573657791
 20
114.80842247328502
 10
361.64382618643015
 20
114.76316477555503
 10
361.5316552898111
 20
114.73075459314703
 10
361.4164723604371
 20
114.71163332873601
 10
361.29984610447514
 20
114.70606139977798
 10
358.81234868994113
 20
114.74121513418402
 10
356.3628947239511
 20
114.787447152644
 10
354.27691310777914
 20
114.83748961274699
 10
352.12798245701515
 20
114.90006507932998
 10
349.9381480919021
 20
114.97531002232103
 10
347.72945533268313
 20
115.06336091164701
 10
345.5239494996021
 20
115.16435421723497
 10
343.34367591290214
 20
115.27842640901201
 10
341.2106798928271
 20
115.40571395690603
 10
339.1470067596191
 20
115.54635333084298
 10
338.27283576720214
 20
115.61137178011
 10
337.4843322883621
 20
115.67222506494602
 10
337.3146686507771
 20
115.700393071924
 10
337.15235330657214
 20
115.757262355053
 10
337.00218656982014
 20
115.841109462941
 10
336.8686124228361
 20
115.94945305336302
 10
336.75558381259015
 20
116.07908684368698
 10
336.6664456685661
 20
116.22617449649198
 10
336.60383591407515
 20
116.38636315080498
 10
336.56960740047316
 20
116.55491223915698
 10
336.56477307451814
 20
116.72683377829799
 10
336.58947600157614
 20
116.89703998183597
 10
336.6429851317931
 20
117.06049382642601
 10
336.7237169345301
 20
117.21235811569301
 10
336.8292822608231
 20
117.348138630542
 10
336.9565570470251
 20
117.463817129517
 10
337.1017747672651
 20
117.55597026324699
 10
337.26063789870415
 20
117.62187088386003
 10
338.8507117370031
 20
118.10999121064901
 10
340.46637205741814
 20
118.573633106329
 10
342.1035491887611
 20
119.01351531275998
 10
343.7583484157681
 20
119.42980489472899
 10
345.8199292737651
 20
119.91135939805099
 10
347.88093166211314
 20
120.35406047611298
 10
349.94989455898013
 20
120.76216791583698
 10
352.01307683099515
 20
121.135151750418
 10
354.0567373447841
 20
121.47248201304802
 10
355.73433045447314
 20
121.72627071855402
 10
357.39090789585714
 20
121.95726044824198
 10
357.73427298433216
 20
122.00272137526599
 10
358.76392578816115
 20
122.13373831063399
 10
360.1642089580871
 20
122.29915810366498
 10
361.06038596130213
 20
122.39735191133002
 10
361.17975550053313
 20
122.40212084735799
 10
361.29885220391014
 20
122.39328029019498
 10
361.4160471257961
 20
122.370312258274
 10
361.5296705159011
 20
122.33354399169502
 10
361.6381035098111
 20
122.28349935124402
 10
361.73980119397413
 20
122.220891354613
 10
361.83331461706314
 20
122.146612017591
 10
361.9173114341011
 20
122.06171964494501
 10
361.9905948892301
 20
121.967423752083
 10
362.05212086664113
 20
121.86506783232403
 10
362.10101276676016
 20
121.75611021529403
 10
362.13657399571514
 20
121.64210328918199
 10
362.15829789015214
 20
121.524671382885
 10
362.1658749359841
 20
121.40548762315802
 10
362.1591971782401
 20
121.28625009652399
 10
362.13835975916516
 20
121.16865765555798
 10
362.0667180891181
 20
120.849080371595
 10
362.00572513911914
 20
120.52729856437799
 10
361.9553022064091
 20
120.20369201428599
 10
361.9155033764761
 20
119.87860783358599
 10
361.88637133900716
 20
119.552394719505
 10
361.8679373420931
 20
119.225402580207
 10
361.8602211587181
 20
118.897982159464
 10
361.8632310655431
 20
118.57048466044102
 10
361.8769638340301
 20
118.243261368979
 10
361.90140473390915
 20
117.91666327679502
 10
361.93652754897414
 20
117.59104070499302
 10
361.9822946052021
 20
117.26674292829699
 10
362.0386568111691
 20
116.944117800411
 10
362.10555371070416
 20
116.62351138089002
 10
362.1829135477361
 20
116.30526756395102
 10
362.27065334326414
 20
115.98972770959699
 10
362.29655434578814
 20
115.87584203725697
  0
LWPOLYLINE
  5
3F
330
17
100
AcDbEntity
  8
CUT
100
AcDbPolyline
 90
50
 70
1
 10
374.35996297174614
 20
118.826123459332
 10
374.3402497250323
 20
118.51279037542122
 10
374.28142087456774
 20
118.20439874141988
 10
374.18440418646674
 20
117.90581207762028
 10
374.05072967185583
 20
117.6217392740777
 10
373.8825054576835
 20
117.35666032860081
 10
373.68238454029967
 20
117.11475569451028
 10
373.45352294611786
 20
116.89984035239252
 10
373.1995299591936
 20
116.71530364557697
 10
372.9244112006588
 20
116.56405582816694
 10
372.6325054576835
 20
116.44848216859413
 10
372.3284162582105
 20
116.3704053325103
 10
372.0169392705694
 20
116.33105663826132
 10
371.70298667292286
 20
116.33105663826132
 10
371.3915096852818
 20
116.3704053325103
 10
371.08742048580876
 20
116.44848216859413
 10
370.79551474283346
 20
116.56405582816694
 10
370.52039598429866
 20
116.71530364557697
 10
370.2664029973744
 20
116.89984035239252
 10
370.0375414031926
 20
117.11475569451028
 10
369.83742048580876
 20
117.35666032860081
 10
369.66919627163645
 20
117.6217392740777
 10
369.53552175702555
 20
117.90581207762028
 10
369.43850506892454
 20
118.20439874141988
 10
369.37967621845996
 20
118.51279037542122
 10
369.35996297174614
 20
118.826123459332
 10
369.37967621845996
 20
119.13945654324277
 10
369.43850506892454
 20
119.44784817724411
 10
369.53552175702555
 20
119.74643484104371
 10
369.66919627163645
 20
120.0305076445863
 10
369.83742048580876
 20
120.29558659006318
 10
370.0375414031926
 20
120.53749122415371
 10
370.2664029973744
 20
120.75240656627147
 10
370.52039598429866
 20
120.93694327308702
 10
370.79551474283346
 20
121.08819109049705
 10
371.0874204858088
 20
121.20376475006987
 10
371.39150968528185
 20
121.28184158615375
 10
371.70298667292286
 20
121.32119028040267
 10
372.0169392705694
 20
121.32119028040267
 10
372.3284162582105
 20
121.28184158615375
 10
372.6325054576835
 20
121.20376475006987
 10
372.9244112006588
 20
121.08819109049705
 10
373.1995299591937
 20
120.93694327308702
 10
373.4535229461179
 20
120.75240656627147
 10
373.68238454029967
 20
120.53749122415371
 10
373.8825054576835
 20
120.29558659006318
 10
374.05072967185583
 20
120.0305076445863
 10
374.18440418646674
 20
119.74643484104371
 10
374.28142087456774
 20
119.44784817724411
 10
374.3402497250323
 20
119.13945654324277
  0
LWPOLYLINE
  5
40
330
17
100
AcDbEntity
  8
CUT
100
AcDbPolyline
 90
50
 70
1
 10
414.4059884457721
 20
118.26412369658101
 10
414.38627519905833
 20
117.95079061267023
 10
414.3274463485937
 20
117.64239897866884
 10
414.23042966049275
 20
117.3438123148693
 10
414.0967551458818
 20
117.05973951132671
 10
413.9285309317095
 20
116.79466056584982
 10
413.7284100143256
 20
116.5527559317593
 10
413.4995484201438
 20
116.33784058964153
 10
413.2455554332196
 20
116.15330388282598
 10
412.97043667468483
 20
116.00205606541596
 10
412.6785309317095
 20
115.88648240584314
 10
412.37444173223645
 20
115.80840556975926
 10
412.06296474459543
 20
115.76905687551033
 10
411.74901214694887
 20
115.76905687551033
 10
411.4375351593078
 20
115.80840556975926
 10
411.1334459598347
 20
115.88648240584314
 10
410.84154021685947
 20
116.00205606541596
 10
410.5664214583246
 20
116.15330388282598
 10
410.3124284714004
 20
116.33784058964153
 10
410.0835668772186
 20
116.5527559317593
 10
409.8834459598347
 20
116.79466056584982
 10
409.71522174566246
 20
117.05973951132671
 10
409.5815472310515
 20
117.3438123148693
 10
409.48453054295055
 20
117.6423989786689
 10
409.4257016924859
 20
117.95079061267023
 10
409.4059884457721
 20
118.26412369658101
 10
409.4257016924859
 20
118.57745678049179
 10
409.48453054295055
 20
118.88584841449313
 10
409.5815472310515
 20
119.18443507829272
 10
409.71522174566246
 20
119.46850788183531
 10
409.8834459598347
 20
119.7335868273122
 10
410.0835668772186
 20
119.97549146140273
 10
410.3124284714004
 20
120.19040680352049
 10
410.5664214583246
 20
120.37494351033604
 10
410.84154021685947
 20
120.52619132774606
 10
411.1334459598348
 20
120.64176498731888
 10
411.4375351593078
 20
120.7198418234027
 10
411.74901214694887
 20
120.75919051765169
 10
412.06296474459543
 20
120.75919051765169
 10
412.37444173223645
 20
120.7198418234027
 10
412.6785309317095
 20
120.64176498731888
 10
412.97043667468483
 20
120.52619132774606
 10
413.24555543321964
 20
120.37494351033604
 10
413.49954842014387
 20
120.19040680352049
 10
413.7284100143256
 20
119.97549146140273
 10
413.9285309317095
 20
119.7335868273122
 10
414.0967551458818
 20
119.46850788183531
 10
414.23042966049275
 20
119.18443507829267
 10
414.3274463485937
 20
118.88584841449313
 10
414.38627519905833
 20
118.57745678049173
  0
TEXT
  5
41
330
17
100
AcDbEntity
  8
LABELS_NOT_CUT
100
AcDbText
 10
450.8278810377967
 20
118.98027060187249
 30
0.0
 40
2.0
  1
A35_L
100
AcDbText
  0
LWPOLYLINE
  5
42
330
17
100
AcDbEntity
  8
CUT
100
AcDbPolyline
 90
531
 70
1
 10
114.17807094275281
 20
135.8628764436242
 10
115.64512775553277
 20
135.56351843298518
 10
119.55011653606277
 20
134.7453348419512
 10
123.3939225126328
 20
133.91198079094818
 10
123.3939225126328
 20
130.91198079094818
 10
119.55011653606277
 20
131.7453348419512
 10
115.64512775553277
 20
132.56351843298518
 10
114.17807094275281
 20
132.8628764436242
 10
112.32992141269278
 20
133.23419419351222
 10
109.63871403518277
 20
133.76299224144623
 10
108.99321665940965
 20
133.88626698705968
 10
85.64460810914278
 20
133.8445758680652
 10
80.69891392230278
 20
128.8859781415252
 10
80.69892109724276
 20
128.87733914181922
 10
68.94765302491277
 20
128.8675793759782
 10
68.93743377052277
 20
141.17209578861775
 10
46.13744163398479
 20
141.1531596547992
 10
46.1476608884808
 20
128.84864332728523
 10
34.97097501437878
 20
128.8393607684722
 10
29.86973046440579
 20
133.8102373059242
 10
27.360502125688754
 20
133.85699412050423
 10
24.745739444381798
 20
133.92626084340918
 10
21.74130246170978
 20
134.03637950951622
 10
20.507929478634708
 20
134.0963288723056
 10
20.487588662117673
 20
134.07941159378282
 10
20.45042061014476
 20
134.0490440215761
 10
20.412988969720516
 20
134.01900195399833
 10
20.375296591409267
 20
133.9892876788694
 10
20.337346345631545
 20
133.95990345904636
 10
20.29914112244552
 20
133.93085153225138
 10
20.2606838313269
 20
133.90213411090105
 10
20.221977400947196
 20
133.87375338193823
 10
20.183024778950994
 20
133.8457115066654
 10
20.14382893173132
 20
133.8180106205798
 10
20.10439284420363
 20
133.79065283321125
 10
20.06471951957866
 20
133.7636402279611
 10
20.024811979133744
 20
133.7369748619439
 10
19.984673261982493
 20
133.7106587658305
 10
19.944306424843774
 20
133.68469394369345
 10
19.90371454180837
 20
133.65908237285447
 10
19.862900704105414
 20
133.63382600373393
 10
19.821868019866656
 20
133.60892675970211
 10
19.780619613889826
 20
133.58438653693275
 10
19.739158627400798
 20
133.56020720425892
 10
19.69748821781417
 20
133.53639060303038
 10
19.65561155849298
 20
133.5129385469735
 10
19.613531838507015
 20
133.4898528220532
 10
19.571252262389805
 20
133.46713518633675
 10
19.52877604989476
 20
133.44478736986014
 10
19.486106435749946
 20
133.42281107449605
 10
19.44324666941168
 20
133.4012079738245
 10
19.400200014817074
 20
133.37997971300524
 10
19.35696975013559
 20
133.3591279086525
 10
19.3135591675192
 20
133.33865414871195
 10
19.269971572851944
 20
133.3185599923396
 10
19.226210285497814
 20
133.29884696978337
 10
19.182278638048274
 20
133.27951658226613
 10
19.138179976068386
 20
133.26057030187184
 10
19.093917657841985
 20
133.24200957143296
 10
19.049495054115994
 20
133.22383580442113
 10
19.004915547843666
 20
133.206050384839
 10
18.960182533927025
 20
133.18865466711515
 10
18.915299418958227
 20
133.17164997600077
 10
18.8702696209603
 20
133.15503760646902
 10
18.82509656912663
 20
133.13881882361608
 10
18.7797837035601
 20
133.12299486256512
 10
18.73433447501077
 20
133.10756692837202
 10
18.688752344613363
 20
133.09253619593363
 10
18.64304078362369
 20
133.07790380989854
 10
18.59720327315398
 20
133.0636708845795
 10
18.551243303908223
 20
133.04983850386895
 10
18.50516437591591
 20
133.03640772115614
 10
18.4589699982659
 20
133.0233795592473
 10
18.412663688838848
 20
133.0107550102873
 10
18.366248974039536
 20
132.99853503568443
 10
18.319729388528174
 20
132.98672056603715
 10
18.2731084749513
 20
132.97531250106294
 10
18.226389783672005
 20
132.96431170953025
 10
18.179576872499524
 20
132.95371902919186
 10
18.132673306418212
 20
132.94353526672137
 10
18.085682657316283
 20
132.9337611976518
 10
18.038608503713647
 20
132.92439756631632
 10
17.991454430489227
 20
132.91544508579165
 10
17.944224028608346
 20
132.90690443784393
 10
17.89692089484896
 20
132.8987762728765
 10
17.849548631527853
 20
132.89106120988066
 10
17.802110846226242
 20
132.88375983638826
 10
17.754611151515178
 20
132.8768727084272
 10
17.707053164680303
 20
132.87040035047892
 10
17.659440507446448
 20
132.86434325543854
 10
17.611776805701822
 20
132.85870188457733
 10
17.56406568922182
 20
132.85347666750744
 10
17.51631079139264
 20
132.8486680021495
 10
17.46851574893475
 20
132.84427625470187
 10
17.42068420162559
 20
132.84030175961323
 10
17.372819792022767
 20
132.8367448195567
 10
17.324926165186298
 20
132.83360570540702
 10
17.27700696840128
 20
132.83088465622
 10
17.229065850900156
 20
132.8285818792139
 10
17.181106463584626
 20
132.82669754975427
 10
17.13313245874764
 20
132.82523181134002
 10
17.085147489795474
 20
132.8241847755928
 10
17.037155210969274
 20
132.8235565222484
 10
16.989159277066904
 20
132.82334709915085
 10
16.941163343164533
 20
132.8235565222484
 10
16.893171064338333
 20
132.8241847755928
 10
16.84518609538617
 20
132.82523181134002
 10
16.79721209054918
 20
132.82669754975427
 10
16.74925270323365
 20
132.8285818792139
 10
16.70131158573247
 20
132.83088465622
 10
16.65339238894751
 20
132.83360570540702
 10
16.60549876211104
 20
132.8367448195567
 10
16.55763435250816
 20
132.84030175961323
 10
16.509802805199058
 20
132.84427625470187
 10
16.46200776274111
 20
132.8486680021495
 10
16.414252864911987
 20
132.85347666750744
 10
16.366541748431985
 20
132.85870188457733
 10
16.31887804668736
 20
132.86434325543854
 10
16.271265389453504
 20
132.87040035047892
 10
16.22370740261863
 20
132.8768727084272
 10
16.176207707907565
 20
132.88375983638826
 10
16.128769922605954
 20
132.89106120988066
 10
16.081397659284846
 20
132.8987762728765
 10
16.03409452552546
 20
132.90690443784393
 10
15.98686412364458
 20
132.91544508579165
 10
15.93971005042016
 20
132.92439756631632
 10
15.892635896817467
 20
132.9337611976518
 10
15.845645247715595
 20
132.94353526672137
 10
15.798741681634283
 20
132.95371902919186
 10
15.751928770461802
 20
132.96431170953025
 10
15.705210079182507
 20
132.97531250106294
 10
15.658589165605633
 20
132.98672056603715
 10
15.612069580094271
 20
132.99853503568443
 10
15.56565486529496
 20
133.0107550102873
 10
15.519348555867907
 20
133.0233795592473
 10
15.473154178217897
 20
133.03640772115614
 10
15.427075250225585
 20
133.04983850386895
 10
15.381115280979827
 20
133.0636708845795
 10
15.335277770510118
 20
133.07790380989854
 10
15.289566209520444
 20
133.09253619593363
 10
15.243984079123038
 20
133.10756692837202
 10
15.198534850573708
 20
133.12299486256512
 10
15.153221985007178
 20
133.13881882361608
 10
15.108048933173507
 20
133.15503760646902
 10
15.063019135175523
 20
133.17164997600077
 10
15.018136020206782
 20
133.18865466711515
 10
14.973403006290084
 20
133.206050384839
 10
14.928823500017756
 20
133.22383580442113
 10
14.884400896291822
 20
133.24200957143296
 10
14.840138578065421
 20
133.26057030187184
 10
14.796039916085533
 20
133.27951658226613
 10
14.752108268635993
 20
133.29884696978337
 10
14.708346981281863
 20
133.3185599923396
 10
14.664759386614548
 20
133.33865414871195
 10
14.621348803998217
 20
133.3591279086525
 10
14.578118539316733
 20
133.37997971300524
 10
14.535071884722129
 20
133.4012079738245
 10
14.492212118383861
 20
133.42281107449605
 10
14.449542504239048
 20
133.44478736986014
 10
14.407066291744002
 20
133.46713518633675
 10
14.364786715626792
 20
133.4898528220532
 10
14.322706995640772
 20
133.5129385469735
 10
14.280830336319582
 20
133.53639060303038
 10
14.23915992673301
 20
133.56020720425892
 10
14.197698940243981
 20
133.58438653693275
 10
14.156450534267151
 20
133.60892675970211
 10
14.115417850028393
 20
133.63382600373393
 10
14.074604012325437
 20
133.65908237285447
 10
14.034012129290033
 20
133.68469394369345
 10
13.993645292151257
 20
133.7106587658305
 10
13.953506575000063
 20
133.7369748619439
 10
13.913599034555148
 20
133.7636402279611
 10
13.873925709930177
 20
133.79065283321125
 10
13.834489622402486
 20
133.8180106205798
 10
13.795293775182756
 20
133.8457115066654
 10
13.75634115318661
 20
133.87375338193823
 10
13.717634722806906
 20
133.90213411090105
 10
13.679177431688231
 20
133.93085153225138
 10
13.640972208502262
 20
133.95990345904636
 10
13.60302196272454
 20
133.9892876788694
 10
13.565329584413291
 20
134.01900195399833
 10
13.527897943989046
 20
134.0490440215761
 10
13.490729892016134
 20
134.07941159378282
 10
13.453828258985595
 20
134.11010235801047
 10
13.417195855099635
 20
134.1411139770384
 10
13.380835470057718
 20
134.17244408921187
 10
13.34474987284392
 20
134.2040903086214
 10
13.308941811516092
 20
134.23605022528494
 10
13.273414012996852
 20
134.26832140533116
 10
13.23816918286559
 20
134.3009013911846
 10
13.203210005152528
 20
134.33378770175335
 10
13.168539142134364
 20
134.3669778326174
 10
13.134159234131687
 20
134.40046925621994
 10
13.10007289930752
 20
134.43425942205926
 10
13.066282733468142
 20
134.46834575688342
 10
13.032791309865672
 20
134.50272566488616
 10
12.999601179001615
 20
134.53739652790426
 10
12.96671486843286
 20
134.57235570561733
 10
12.93477893167676
 20
134.6069038073603
 10
11.912844257526785
 20
134.69986923159018
 10
11.053880143824756
 20
134.7957331915772
 10
10.210798227360783
 20
134.90651277027922
 10
10.0
 20
134.94060609946393
 10
10.0
 20
137.94060609946393
 10
10.273201905541782
 20
138.07246633524318
 10
11.1096380711258
 20
138.44094869968018
 10
11.495970855535802
 20
138.59605241725632
 10
11.496698133468271
 20
138.61119349115302
 10
11.499419182655288
 20
138.65911268793803
 10
11.502558296804978
 20
138.7070063147745
 10
11.50611523686149
 20
138.75487072437738
 10
11.510089731950131
 20
138.80270227168648
 10
11.514481479397716
 20
138.85049731414443
 10
11.5192901447557
 20
138.89825221197356
 10
11.524515361825593
 20
138.94596332845356
 10
11.530156732686805
 20
138.99362703019818
 10
11.536213827727181
 20
139.04123968743204
 10
11.54268618567545
 20
139.0887976742669
 10
11.549573313636529
 20
139.13629736897798
 10
11.556874687128925
 20
139.1837351542796
 10
11.564589750124753
 20
139.2311074176007
 10
11.572717915092198
 20
139.27841055136008
 10
11.58125856303991
 20
139.32564095324096
 10
11.590211043564523
 20
139.37279502646538
 10
11.599574674900055
 20
139.41986918006808
 10
11.609348743969633
 20
139.46685982916995
 10
11.619532506440123
 20
139.51376339525126
 10
11.630125186778514
 20
139.56057630642374
 10
11.641125978311209
 20
139.60729499770304
 10
11.652534043285414
 20
139.6539159112799
 10
11.66434851293269
 20
139.70043549679127
 10
11.67656848753552
 20
139.74685021159058
 10
11.689193036495567
 20
139.79315652101764
 10
11.702221198404402
 20
139.83935089866765
 10
11.715651981117162
 20
139.88542982665996
 10
11.729484361827758
 20
139.93138979590572
 10
11.743717287146808
 20
139.97722730637543
 10
11.758349673181897
 20
140.0229388673651
 10
11.77338040562023
 20
140.0685209977625
 10
11.788808339813386
 20
140.11397022631184
 10
11.804632300864341
 20
140.15928309187836
 10
11.820851083717287
 20
140.20445614371204
 10
11.837463453249029
 20
140.24948594170996
 10
11.854468144363409
 20
140.29436905667876
 10
11.871863862087253
 20
140.33910207059546
 10
11.889649281669392
 20
140.38368157686773
 10
11.907823048681223
 20
140.42810418059372
 10
11.926383779120044
 20
140.47236649882012
 10
11.94533005951439
 20
140.5164651608
 10
11.964660447031633
 20
140.56039680824955
 10
11.984373469587865
 20
140.60415809560368
 10
12.004467625960217
 20
140.647745690271
 10
12.024941385900775
 20
140.69115627288733
 10
12.045793190253505
 20
140.7343865375688
 10
12.067021451072776
 20
140.77743319216341
 10
12.088624551744317
 20
140.82029295850168
 10
12.110600847108401
 20
140.8629625726465
 10
12.132948663585012
 20
140.90543878514154
 10
12.155666299301458
 20
140.94771836125875
 10
12.178752024221751
 20
140.98979808124477
 10
12.202204080278648
 20
141.0316747405659
 10
12.22602068150718
 20
141.07334515015253
 10
12.250200014181019
 20
141.11480613664156
 10
12.274740236950322
 20
141.1560545426184
 10
12.299639480982194
 20
141.19708722685715
 10
12.324895850102735
 20
141.2379010645601
 10
12.350507420941653
 20
141.2784929475955
 10
12.376472243078751
 20
141.3188597847343
 10
12.40278833919217
 20
141.35899850188548
 10
12.429453705209369
 20
141.3989060423304
 10
12.456466310459518
 20
141.43857936695537
 10
12.483824097828062
 20
141.47801545448306
 10
12.51152498391366
 20
141.5172113017028
 10
12.539566859186493
 20
141.55616392369893
 10
12.567947588149309
 20
141.59487035407864
 10
12.596665009499588
 20
141.63332764519726
 10
12.625716936294623
 20
141.67153286838328
 10
12.655101156117667
 20
141.709483114161
 10
12.68481543124659
 20
141.74717549247225
 10
12.714857498824301
 20
141.7846071328965
 10
12.745225071031086
 20
141.8217751848694
 10
12.77591583525873
 20
141.85867681789995
 10
12.806927454286665
 20
141.8953092217859
 10
12.838257566460129
 20
141.93166960682782
 10
12.869903785869667
 20
141.96775520404162
 10
12.901863702533205
 20
142.00356326536945
 10
12.934134882579372
 20
142.0390910638887
 10
12.96671486843286
 20
142.07433589401995
 10
12.999601179001615
 20
142.10929507173302
 10
13.032791309865672
 20
142.14396593475112
 10
13.066282733468142
 20
142.17834584275386
 10
13.100072899307463
 20
142.21243217757802
 10
13.134159234131687
 20
142.2462223434174
 10
13.168539142134364
 20
142.27971376701987
 10
13.203210005152528
 20
142.31290389788393
 10
13.23816918286559
 20
142.34579020845268
 10
13.273414012996852
 20
142.37837019430617
 10
13.308941811516092
 20
142.41064137435234
 10
13.34474987284392
 20
142.44260129101588
 10
13.380835470057718
 20
142.4742475104254
 10
13.417195855099635
 20
142.50557762259888
 10
13.453828258985538
 20
142.5365892416268
 10
13.490729892016134
 20
142.56728000585446
 10
13.527897943989046
 20
142.59764757806124
 10
13.565329584413291
 20
142.62768964563895
 10
13.60302196272454
 20
142.65740392076788
 10
13.640972208502262
 20
142.68678814059092
 10
13.679177431688288
 20
142.71584006738595
 10
13.717634722806906
 20
142.74455748873623
 10
13.75634115318661
 20
142.77293821769905
 10
13.795293775182756
 20
142.80098009297188
 10
13.834489622402486
 20
142.82868097905748
 10
13.873925709930177
 20
142.85603876642602
 10
13.913599034555148
 20
142.88305137167617
 10
13.953506575000063
 20
142.90971673769337
 10
13.993645292151257
 20
142.9360328338068
 10
14.034012129290033
 20
142.96199765594383
 10
14.074604012325437
 20
142.9876092267828
 10
14.115417850028393
 20
143.01286559590335
 10
14.156450534267151
 20
143.03776483993516
 10
14.197698940243981
 20
143.06230506270452
 10
14.23915992673301
 20
143.08648439537836
 10
14.280830336319582
 20
143.1103009966069
 10
14.322706995640772
 20
143.1337530526638
 10
14.364786715626792
 20
143.15683877758408
 10
14.407066291744002
 20
143.17955641330053
 10
14.449542504239048
 20
143.20190422977714
 10
14.492212118383861
 20
143.22388052514123
 10
14.535071884722129
 20
143.24548362581277
 10
14.578118539316733
 20
143.26671188663204
 10
14.621348803998217
 20
143.28756369098477
 10
14.664759386614548
 20
143.30803745092533
 10
14.708346981281863
 20
143.32813160729768
 10
14.752108268635993
 20
143.3478446298539
 10
14.796039916085533
 20
143.36717501737115
 10
14.840138578065421
 20
143.3861212977655
 10
14.884400896291822
 20
143.40468202820432
 10
14.928823500017756
 20
143.42285579521615
 10
14.973403006290084
 20
143.4406412147983
 10
15.018136020206725
 20
143.45803693252213
 10
15.063019135175523
 20
143.4750416236365
 10
15.108048933173507
 20
143.49165399316826
 10
15.153221985007121
 20
143.5078727760212
 10
15.198534850573708
 20
143.52369673707216
 10
15.243984079123038
 20
143.5391246712653
 10
15.289566209520444
 20
143.55415540370365
 10
15.335277770510118
 20
143.56878778973874
 10
15.381115280979827
 20
143.58302071505778
 10
15.427075250225585
 20
143.59685309576838
 10
15.473154178217897
 20
143.61028387848114
 10
15.519348555867907
 20
143.62331204038998
 10
15.56565486529496
 20
143.63593658935002
 10
15.612069580094271
 20
143.64815656395285
 10
15.658589165605633
 20
143.65997103360013
 10
15.705210079182507
 20
143.67137909857433
 10
15.751928770461802
 20
143.68237989010703
 10
15.798741681634283
 20
143.69297257044542
 10
15.845645247715595
 20
143.7031563329159
 10
15.892635896817467
 20
143.7129304019855
 10
15.93971005042016
 20
143.72229403332102
 10
15.98686412364458
 20
143.73124651384563
 10
16.03409452552546
 20
143.73978716179334
 10
16.081397659284846
 20
143.7479153267608
 10
16.128769922605954
 20
143.75563038975662
 10
16.176207707907565
 20
143.76293176324901
 10
16.22370740261863
 20
143.7698188912101
 10
16.271265389453504
 20
143.77629124915836
 10
16.31887804668736
 20
143.78234834419874
 10
16.366541748431985
 20
143.78798971505995
 10
16.414252864911987
 20
143.79321493212984
 10
16.46200776274111
 20
143.79802359748783
 10
16.509802805199058
 20
143.8024153449354
 10
16.55763435250816
 20
143.80638984002405
 10
16.60549876211104
 20
143.80994678008057
 10
16.65339238894751
 20
143.81308589423026
 10
16.70131158573247
 20
143.81580694341727
 10
16.74925270323365
 20
143.81810972042337
 10
16.79721209054918
 20
143.819994049883
 10
16.84518609538617
 20
143.82145978829726
 10
16.893171064338333
 20
143.82250682404452
 10
16.941163343164533
 20
143.82313507738888
 10
16.989159277066904
 20
143.82334450048643
 10
17.037155210969274
 20
143.82313507738888
 10
17.085147489795474
 20
143.82250682404452
 10
17.13313245874764
 20
143.82145978829726
 10
17.181106463584626
 20
143.819994049883
 10
17.229065850900156
 20
143.81810972042337
 10
17.27700696840128
 20
143.81580694341727
 10
17.324926165186298
 20
143.81308589423026
 10
17.372819792022767
 20
143.80994678008057
 10
17.42068420162559
 20
143.80638984002405
 10
17.46851574893475
 20
143.8024153449354
 10
17.51631079139264
 20
143.79802359748783
 10
17.56406568922182
 20
143.79321493212984
 10
17.611776805701822
 20
143.78798971505995
 10
17.659440507446448
 20
143.78234834419874
 10
17.707053164680303
 20
143.77629124915836
 10
17.754611151515178
 20
143.7698188912101
 10
17.802110846226242
 20
143.76293176324901
 10
17.849548631527853
 20
143.75563038975662
 10
17.89692089484896
 20
143.7479153267608
 10
17.944224028608346
 20
143.73978716179334
 10
17.991454430489227
 20
143.73124651384563
 10
18.038608503713647
 20
143.72229403332102
 10
18.085682657316283
 20
143.7129304019855
 10
18.132673306418212
 20
143.7031563329159
 10
18.179576872499524
 20
143.69297257044542
 10
18.226389783672005
 20
143.68237989010703
 10
18.2731084749513
 20
143.67137909857433
 10
18.319729388528174
 20
143.65997103360013
 10
18.366248974039536
 20
143.64815656395285
 10
18.412663688838848
 20
143.63593658935002
 10
18.4589699982659
 20
143.62331204038998
 10
18.50516437591591
 20
143.61028387848114
 10
18.551243303908166
 20
143.59685309576838
 10
18.59720327315398
 20
143.58302071505778
 10
18.64304078362369
 20
143.56878778973874
 10
18.688752344613363
 20
143.55415540370365
 10
18.73433447501077
 20
143.5391246712653
 10
18.779783703560042
 20
143.52369673707216
 10
18.82509656912663
 20
143.5078727760212
 10
18.8702696209603
 20
143.49165399316826
 10
18.915299418958227
 20
143.4750416236365
 10
18.960182533927025
 20
143.45803693252213
 10
19.004915547843666
 20
143.4406412147983
 10
19.049495054115994
 20
143.42285579521615
 10
19.093917657841985
 20
143.40468202820432
 10
19.138179976068386
 20
143.3861212977655
 10
19.182278638048274
 20
143.36717501737115
 10
19.226210285497757
 20
143.3478446298539
 10
19.269971572851944
 20
143.32813160729768
 10
19.3135591675192
 20
143.30803745092533
 10
19.35696975013559
 20
143.28756369098477
 10
19.400200014817074
 20
143.26671188663204
 10
19.44324666941168
 20
143.24548362581277
 10
19.486106435749946
 20
143.22388052514123
 10
19.52877604989476
 20
143.20190422977714
 10
19.57125226238975
 20
143.17955641330053
 10
19.613531838507015
 20
143.15683877758408
 10
19.65561155849298
 20
143.1337530526638
 10
19.69748821781417
 20
143.1103009966069
 10
19.739158627400798
 20
143.08648439537836
 10
19.780619613889826
 20
143.06230506270452
 10
19.821868019866656
 20
143.03776483993516
 10
19.862900704105414
 20
143.01286559590335
 10
19.90371454180837
 20
142.9876092267828
 10
19.944306424843774
 20
142.96199765594383
 10
19.984673261982493
 20
142.9360328338068
 10
20.024811979133744
 20
142.90971673769337
 10
20.06471951957866
 20
142.88305137167617
 10
20.10439284420363
 20
142.85603876642602
 10
20.14382893173132
 20
142.82868097905748
 10
20.183024778950994
 20
142.80098009297188
 10
20.221977400947196
 20
142.77293821769905
 10
20.2606838313269
 20
142.74455748873623
 10
20.29914112244552
 20
142.71584006738595
 10
20.337346345631545
 20
142.68678814059092
 10
20.375296591409267
 20
142.65740392076788
 10
20.412988969720516
 20
142.62768964563895
 10
20.45042061014476
 20
142.59764757806124
 10
20.487588662117673
 20
142.56728000585446
 10
20.52449029514821
 20
142.5365892416268
 10
20.561122699034172
 20
142.50557762259888
 10
20.59748308407609
 20
142.4742475104254
 10
20.633568681289887
 20
142.44260129101588
 10
20.669376742617658
 20
142.41064137435234
 10
20.704904541136898
 20
142.37837019430617
 10
20.740149371268217
 20
142.34579020845268
 10
20.77510854898128
 20
142.31290389788393
 10
20.809779411999386
 20
142.27971376701987
 10
20.84415932000212
 20
142.2462223434174
 10
20.878245654826287
 20
142.21243217757802
 10
20.912035820665608
 20
142.17834584275386
 10
20.945527244268135
 20
142.14396593475112
 10
20.97871737513219
 20
142.10929507173302
 10
21.011603685700948
 20
142.07433589401995
 10
21.04418367155438
 20
142.0390910638887
 10
21.0764548516006
 20
142.00356326536945
 10
21.10841476826414
 20
141.96775520404162
 10
21.140060987673678
 20
141.93166960682782
 10
21.171391099847142
 20
141.8953092217859
 10
21.202402718875078
 20
141.85867681789995
 10
21.23309348310272
 20
141.8217751848694
 10
21.26346105530945
 20
141.7846071328965
 10
21.293503122887216
 20
141.74717549247225
 10
21.32321739801614
 20
141.709483114161
 10
21.352601617839127
 20
141.67153286838328
 10
21.381653544634162
 20
141.63332764519726
 10
21.410370965984498
 20
141.59487035407864
 10
21.438751694947314
 20
141.55616392369893
 10
21.466793570220148
 20
141.5172113017028
 10
21.494494456305745
 20
141.47801545448306
 10
21.52185224367429
 20
141.43857936695537
 10
21.52337992698739
 20
141.43633566349013
 10
22.425749592904765
 20
141.6166453054472
 10
23.760057847592748
 20
141.86332681906322
 10
25.141510844819777
 20
142.0981592002222
 10
26.568488036830786
 20
142.3195524909512
 10
27.635076119449764
 20
142.4713984804082
 10
28.724523660273803
 20
142.6147870880772
 10
30.55247354174179
 20
142.82694951159021
 10
32.382743313075764
 20
143.00438993332023
 10
34.124558525085774
 20
143.1420290726232
 10
35.83569696774276
 20
143.2495625330642
 10
35.8435838173948
 20
133.75338342125718
 10
40.84358209294879
 20
133.75753606351418
 10
40.835569514911754
 20
143.43158384573422
 10
40.839575803930416
 20
143.4316479640221
 10
40.839575803930416
 20
144.17209578861775
 10
73.2405202101811
 20
144.17209578861775
 10
73.2405202101811
 20
142.17546889419395
 10
74.23668061598278
 20
142.08113410934618
 10
74.23738304856278
 20
141.2353685782752
 10
73.2405202101811
 20
141.23454065503984
 10
73.2405202101811
 20
141.17209578861775
 10
73.23743515340516
 20
141.17209578861775
 10
73.24365712704275
 20
133.6805144043712
 10
79.24365505771277
 20
133.68549757507918
 10
79.23712808950279
 20
141.54442875493822
 10
82.17277213277276
 20
141.1946035940992
 10
85.0222634254128
 20
140.83097171488419
 10
87.9475258073428
 20
140.43139480117622
 10
90.89620655861279
 20
140.00298015088418
 10
93.52596064045281
 20
139.6016510916382
 10
96.24896980612277
 20
139.1651735159192
 10
98.96720483517277
 20
138.7105177864342
 10
101.58730394317274
 20
138.2566048125032
 10
104.29492125633277
 20
137.76954907278622
 10
107.0002471116328
 20
137.2668770766412
 10
109.63871403518277
 20
136.76299224144623
 10
112.32992141269278
 20
136.23419419351222
  0
CIRCLE
  5
43
330
17
100
AcDbEntity
  8
CUT
100
AcDbCircle
 10
16.989159277066904
 20
138.32334579981864
 30
0.0
 40
2.499998700667809
  0
TEXT
  5
44
330
17
100
AcDbEntity
  8
LABELS_NOT_CUT
100
AcDbText
 10
95.12644681005168
 20
136.4932383046331
 30
0.0
 40
2.0
  1
A44_L
100
AcDbText
  0
LWPOLYLINE
  5
45
330
17
100
AcDbEntity
  8
CUT
100
AcDbPolyline
 90
4
 70
1
 10
128.3939225126328
 20
128.8393607684722
 10
248.39392251263274
 20
128.8393607684722
 10
248.39392251263274
 20
142.8393607684722
 10
128.3939225126328
 20
142.8393607684722
  0
TEXT
  5
46
330
17
100
AcDbEntity
  8
LABELS_NOT_CUT
100
AcDbText
 10
188.39392251263277
 20
135.8393607684722
 30
0.0
 40
2.0
  1
A62_DL
100
AcDbText
  0
LWPOLYLINE
  5
47
330
17
100
AcDbEntity
  8
CUT
100
AcDbPolyline
 90
4
 70
1
 10
481.99243328151726
 20
96.0
 10
581.9924332815173
 20
96.0
 10
581.9924332815173
 20
101.99999793066718
 10
481.99243328151726
 20
101.99999793066718
  0
TEXT
  5
48
330
17
100
AcDbEntity
  8
LABELS_NOT_CUT
100
AcDbText
 10
531.9924332815173
 20
98.99999896533359
 30
0.0
 40
2.0
  1
A07_L_D1
100
AcDbText
  0
LWPOLYLINE
  5
49
330
17
100
AcDbEntity
  8
CUT
100
AcDbPolyline
 90
4
 70
1
 10
353.3939225126327
 20
138.31231035321318
 10
253.39392251263268
 20
138.31231035321318
 10
253.39392251263268
 20
132.312312422547
 10
353.3939225126327
 20
132.312312422547
  0
TEXT
  5
4A
330
17
100
AcDbEntity
  8
LABELS_NOT_CUT
100
AcDbText
 10
303.3939225126327
 20
135.31231138788007
 30
0.0
 40
2.0
  1
A07_R_D2
100
AcDbText
  0
LWPOLYLINE
  5
4B
330
17
100
AcDbEntity
  8
CUT
100
AcDbPolyline
 90
31
 70
1
 10
516.3905726547947
 20
111.73891693797552
 10
521.3557509324459
 20
107.2833469097589
 10
521.3554623045161
 20
106.99999793066718
 10
523.7138065384624
 20
107.31483697665351
 10
526.0678128973501
 20
107.64899867813125
 10
528.4147994469148
 20
108.00109341972882
 10
530.7520842528576
 20
108.36973158606025
 10
533.0769853808796
 20
108.75352356174736
 10
535.3868208966918
 20
109.15107973140863
 10
537.6789088659851
 20
109.56101047966371
 10
539.9505673544894
 20
109.98192619113664
 10
542.1991144278869
 20
110.41243725044046
 10
544.4218681518969
 20
110.85115404220358
 10
546.6161465922221
 20
111.29668695103771
 10
548.779267814562
 20
111.74764636156655
 10
550.9085498846277
 20
112.20264265841064
 10
553.0013108681301
 20
112.66028622619035
 10
557.0665418382295
 20
113.57795671302603
 10
560.9535052505154
 20
114.48954089904211
 10
564.6407456306358
 20
115.38392186119177
 10
568.1068075042166
 20
116.24998267643682
 10
571.3302353969156
 20
117.0766064217336
 10
574.289573834369
 20
117.85267617404318
 10
576.9633673422237
 20
118.56707501032486
 10
581.368497671705
 20
119.76639224263732
 10
581.3628777023957
 20
119.92177736349598
 10
521.3687396183147
 20
120.03447261866162
 10
521.3686935743723
 20
119.98927080959805
 10
516.3636068258679
 20
114.99727432861428
 10
510.6663985911414
 20
115.00639092744424
 10
510.66316462872214
 20
111.11155437579296
  0
LWPOLYLINE
  5
4C
330
17
100
AcDbEntity
  8
CUT
100
AcDbPolyline
 90
32
 70
1
 10
531.4649757926196
 20
114.29338665452454
 10
531.4457610730228
 20
114.09829633250843
 10
531.388855325131
 20
113.91070322215944
 10
531.2964454049222
 20
113.73781642150496
 10
531.1720825738062
 20
113.58627987333799
 10
531.0205460256392
 20
113.46191704222201
 10
530.8476592249847
 20
113.36950712201326
 10
530.6600661146358
 20
113.3126013741213
 10
530.4649757926196
 20
113.29338665452454
 10
530.2698854706035
 20
113.3126013741213
 10
530.0822923602545
 20
113.36950712201326
 10
529.9094055596
 20
113.46191704222201
 10
529.7578690114331
 20
113.58627987333801
 10
529.6335061803171
 20
113.73781642150493
 10
529.5410962601084
 20
113.91070322215947
 10
529.4841905122164
 20
114.09829633250843
 10
529.4649757926196
 20
114.29338665452454
 10
529.4841905122164
 20
114.48847697654068
 10
529.5410962601084
 20
114.67607008688964
 10
529.6335061803171
 20
114.84895688754415
 10
529.7578690114331
 20
115.00049343571109
 10
529.9094055596
 20
115.1248562668271
 10
530.0822923602545
 20
115.21726618703585
 10
530.2698854706035
 20
115.27417193492778
 10
530.4649757926196
 20
115.29338665452454
 10
530.6600661146358
 20
115.27417193492778
 10
530.8476592249847
 20
115.21726618703585
 10
531.0205460256392
 20
115.1248562668271
 10
531.1720825738062
 20
115.00049343571106
 10
531.2964454049222
 20
114.84895688754415
 10
531.388855325131
 20
114.67607008688964
 10
531.4457610730228
 20
114.48847697654065
  0
TEXT
  5
4D
330
17
100
AcDbEntity
  8
LABELS_NOT_CUT
100
AcDbText
 10
543.9503802415899
 20
113.51993687762402
 30
0.0
 40
2.0
  1
A10_L
100
AcDbText
  0
LWPOLYLINE
  5
4E
330
17
100
AcDbEntity
  8
REFERENCE_NOT_CUT
100
AcDbPolyline
 90
4
 70
1
 10
0.0
 20
0.0
 10
609.6
 20
0.0
 10
609.6
 20
228.6
 10
0.0
 20
228.6
  0
ENDSEC
  0
SECTION
  2
OBJECTS
  0
DICTIONARY
  5
A
330
0
100
AcDbDictionary
281
1
  3
ACAD_COLOR
350
B
  3
ACAD_GROUP
350
C
  3
ACAD_LAYOUT
350
D
  3
ACAD_MATERIAL
350
E
  3
ACAD_MLEADERSTYLE
350
F
  3
ACAD_MLINESTYLE
350
10
  3
ACAD_PLOTSETTINGS
350
11
  3
ACAD_PLOTSTYLENAME
350
12
  3
ACAD_SCALELIST
350
14
  3
ACAD_TABLESTYLE
350
15
  3
ACAD_VISUALSTYLE
350
16
  3
EZDXF_META
350
2D
  0
DICTIONARY
  5
B
330
A
100
AcDbDictionary
281
1
  0
DICTIONARY
  5
C
330
A
100
AcDbDictionary
281
1
  0
DICTIONARY
  5
D
330
A
100
AcDbDictionary
281
1
  3
Model
350
1A
  3
Layout1
350
1E
  0
DICTIONARY
  5
E
330
A
100
AcDbDictionary
281
1
  3
ByBlock
350
1F
  3
ByLayer
350
20
  3
Global
350
21
  0
DICTIONARY
  5
F
330
A
100
AcDbDictionary
281
1
  3
Standard
350
2C
  0
DICTIONARY
  5
10
330
A
100
AcDbDictionary
281
1
  3
Standard
350
22
  0
DICTIONARY
  5
11
330
A
100
AcDbDictionary
281
1
  0
ACDBDICTIONARYWDFLT
  5
12
330
A
100
AcDbDictionary
281
1
  3
Normal
350
13
100
AcDbDictionaryWithDefault
340
13
  0
ACDBPLACEHOLDER
  5
13
330
12
  0
DICTIONARY
  5
14
330
A
100
AcDbDictionary
281
1
  0
DICTIONARY
  5
15
330
A
100
AcDbDictionary
281
1
  0
DICTIONARY
  5
16
330
A
100
AcDbDictionary
281
1
  0
LAYOUT
  5
1A
330
D
100
AcDbPlotSettings
  1

  4
A3
  6

 40
7.5
 41
20.0
 42
7.5
 43
20.0
 44
420.0
 45
297.0
 46
0.0
 47
0.0
 48
0.0
 49
0.0
140
0.0
141
0.0
142
1.0
143
1.0
 70
1024
 72
1
 73
0
 74
5
  7

 75
16
 76
0
 77
2
 78
300
147
1.0
148
0.0
149
0.0
100
AcDbLayout
  1
Model
 70
1
 71
0
 10
0.0
 20
0.0
 11
420.0
 21
297.0
 12
0.0
 22
0.0
 32
0.0
 14
1e+20
 24
1e+20
 34
1e+20
 15
-1e+20
 25
-1e+20
 35
-1e+20
146
0.0
 13
0.0
 23
0.0
 33
0.0
 16
1.0
 26
0.0
 36
0.0
 17
0.0
 27
1.0
 37
0.0
 76
1
330
17
  0
LAYOUT
  5
1E
330
D
100
AcDbPlotSettings
  1

  4
A3
  6

 40
7.5
 41
20.0
 42
7.5
 43
20.0
 44
420.0
 45
297.0
 46
0.0
 47
0.0
 48
0.0
 49
0.0
140
0.0
141
0.0
142
1.0
143
1.0
 70
0
 72
1
 73
0
 74
5
  7

 75
16
 76
0
 77
2
 78
300
147
1.0
148
0.0
149
0.0
100
AcDbLayout
  1
Layout1
 70
1
 71
1
 10
0.0
 20
0.0
 11
420.0
 21
297.0
 12
0.0
 22
0.0
 32
0.0
 14
1e+20
 24
1e+20
 34
1e+20
 15
-1e+20
 25
-1e+20
 35
-1e+20
146
0.0
 13
0.0
 23
0.0
 33
0.0
 16
1.0
 26
0.0
 36
0.0
 17
0.0
 27
1.0
 37
0.0
 76
1
330
1B
  0
MATERIAL
  5
1F
102
{ACAD_REACTORS
330
E
102
}
330
E
100
AcDbMaterial
  1
ByBlock
  2

 70
0
 40
1.0
 71
1
 41
1.0
 91
-1023410177
 42
1.0
 72
1
  3

 73
1
 74
1
 75
1
 44
0.5
 73
0
 45
1.0
 46
1.0
 77
1
  4

 78
1
 79
1
170
1
 48
1.0
171
1
  6

172
1
173
1
174
1
140
1.0
141
1.0
175
1
  7

176
1
177
1
178
1
143
1.0
179
1
  8

270
1
271
1
272
1
145
1.0
146
1.0
273
1
  9

274
1
275
1
276
1
 42
1.0
 72
1
  3

 73
1
 74
1
 75
1
 94
63
  0
MATERIAL
  5
20
102
{ACAD_REACTORS
330
E
102
}
330
E
100
AcDbMaterial
  1
ByLayer
  2

 70
0
 40
1.0
 71
1
 41
1.0
 91
-1023410177
 42
1.0
 72
1
  3

 73
1
 74
1
 75
1
 44
0.5
 73
0
 45
1.0
 46
1.0
 77
1
  4

 78
1
 79
1
170
1
 48
1.0
171
1
  6

172
1
173
1
174
1
140
1.0
141
1.0
175
1
  7

176
1
177
1
178
1
143
1.0
179
1
  8

270
1
271
1
272
1
145
1.0
146
1.0
273
1
  9

274
1
275
1
276
1
 42
1.0
 72
1
  3

 73
1
 74
1
 75
1
 94
63
  0
MATERIAL
  5
21
102
{ACAD_REACTORS
330
E
102
}
330
E
100
AcDbMaterial
  1
Global
  2

 70
0
 40
1.0
 71
1
 41
1.0
 91
-1023410177
 42
1.0
 72
1
  3

 73
1
 74
1
 75
1
 44
0.5
 73
0
 45
1.0
 46
1.0
 77
1
  4

 78
1
 79
1
170
1
 48
1.0
171
1
  6

172
1
173
1
174
1
140
1.0
141
1.0
175
1
  7

176
1
177
1
178
1
143
1.0
179
1
  8

270
1
271
1
272
1
145
1.0
146
1.0
273
1
  9

274
1
275
1
276
1
 42
1.0
 72
1
  3

 73
1
 74
1
 75
1
 94
63
  0
MLINESTYLE
  5
22
102
{ACAD_REACTORS
330
10
102
}
330
10
100
AcDbMlineStyle
  2
Standard
 70
0
  3

 62
256
 51
90.0
 52
90.0
 71
2
 49
0.5
 62
256
  6
BYLAYER
 49
-0.5
 62
256
  6
BYLAYER
  0
MLEADERSTYLE
  5
2C
102
{ACAD_REACTORS
330
F
102
}
330
F
100
AcDbMLeaderStyle
179
2
170
2
171
1
172
0
 90
2
 40
0.0
 41
0.0
173
1
 91
-1056964608
 92
-2
290
1
 42
2.0
291
1
 43
8.0
  3
Standard
 44
4.0
300

342
29
174
1
175
1
176
0
178
1
 93
-1056964608
 45
4.0
292
0
297
0
 46
4.0
 94
-1056964608
 47
1.0
 49
1.0
140
1.0
294
1
141
0.0
177
0
142
1.0
295
0
296
0
143
3.75
271
0
272
9
273
9
  0
DICTIONARY
  5
2D
330
A
100
AcDbDictionary
280
1
281
1
  3
CREATED_BY_EZDXF
350
2E
  3
WRITTEN_BY_EZDXF
350
51
  0
DICTIONARYVAR
  5
2E
330
2D
100
DictionaryVariables
280
0
  1
1.4.4 @ 2026-10-02T12:23:37.130862+00:00
  0
DICTIONARYVAR
  5
51
330
2D
100
DictionaryVariables
280
0
  1
1.4.4 @ 2026-10-02T12:23:37.167792+00:00
  0
ENDSEC
  0
EOF
