  0
SECTION
  2
HEADER
  9
$ACADVER
  1
AC1024
  9
$ACADMAINTVER
 70
6
  9
$DWGCODEPAGE
  3
ANSI_1252
  9
$LASTSAVEDBY
  1
ezdxf
  9
$INSBASE
 10
0.0
 20
0.0
 30
0.0
  9
$EXTMIN
 10
1e+20
 20
1e+20
 30
1e+20
  9
$EXTMAX
 10
-1e+20
 20
-1e+20
 30
-1e+20
  9
$LIMMIN
 10
0.0
 20
0.0
  9
$LIMMAX
 10
420.0
 20
297.0
  9
$ORTHOMODE
 70
0
  9
$REGENMODE
 70
1
  9
$FILLMODE
 70
1
  9
$QTEXTMODE
 70
0
  9
$MIRRTEXT
 70
1
  9
$LTSCALE
 40
1.0
  9
$ATTMODE
 70
1
  9
$TEXTSIZE
 40
2.5
  9
$TRACEWID
 40
1.0
  9
$TEXTSTYLE
  7
Standard
  9
$CLAYER
  8
0
  9
$CELTYPE
  6
ByLayer
  9
$CECOLOR
 62
256
  9
$CELTSCALE
 40
1.0
  9
$DISPSILH
 70
0
  9
$DIMSCALE
 40
1.0
  9
$DIMASZ
 40
2.5
  9
$DIMEXO
 40
0.625
  9
$DIMDLI
 40
3.75
  9
$DIMRND
 40
0.0
  9
$DIMDLE
 40
0.0
  9
$DIMEXE
 40
1.25
  9
$DIMTP
 40
0.0
  9
$DIMTM
 40
0.0
  9
$DIMTXT
 40
2.5
  9
$DIMCEN
 40
2.5
  9
$DIMTSZ
 40
0.0
  9
$DIMTOL
 70
0
  9
$DIMLIM
 70
0
  9
$DIMTIH
 70
0
  9
$DIMTOH
 70
0
  9
$DIMSE1
 70
0
  9
$DIMSE2
 70
0
  9
$DIMTAD
 70
1
  9
$DIMZIN
 70
8
  9
$DIMBLK
  1

  9
$DIMASO
 70
1
  9
$DIMSHO
 70
1
  9
$DIMPOST
  1

  9
$DIMAPOST
  1

  9
$DIMALT
 70
0
  9
$DIMALTD
 70
3
  9
$DIMALTF
 40
0.03937007874
  9
$DIMLFAC
 40
1.0
  9
$DIMTOFL
 70
1
  9
$DIMTVP
 40
0.0
  9
$DIMTIX
 70
0
  9
$DIMSOXD
 70
0
  9
$DIMSAH
 70
0
  9
$DIMBLK1
  1

  9
$DIMBLK2
  1

  9
$DIMSTYLE
  2
ISO-25
  9
$DIMCLRD
 70
0
  9
$DIMCLRE
 70
0
  9
$DIMCLRT
 70
0
  9
$DIMTFAC
 40
1.0
  9
$DIMGAP
 40
0.625
  9
$DIMJUST
 70
0
  9
$DIMSD1
 70
0
  9
$DIMSD2
 70
0
  9
$DIMTOLJ
 70
0
  9
$DIMTZIN
 70
8
  9
$DIMALTZ
 70
0
  9
$DIMALTTZ
 70
0
  9
$DIMUPT
 70
0
  9
$DIMDEC
 70
2
  9
$DIMTDEC
 70
2
  9
$DIMALTU
 70
2
  9
$DIMALTTD
 70
3
  9
$DIMTXSTY
  7
Standard
  9
$DIMAUNIT
 70
0
  9
$DIMADEC
 70
0
  9
$DIMALTRND
 40
0.0
  9
$DIMAZIN
 70
0
  9
$DIMDSEP
 70
44
  9
$DIMATFIT
 70
3
  9
$DIMFRAC
 70
0
  9
$DIMLDRBLK
  1

  9
$DIMLUNIT
 70
2
  9
$DIMLWD
 70
-2
  9
$DIMLWE
 70
-2
  9
$DIMTMOVE
 70
0
  9
$DIMFXL
 40
1.0
  9
$DIMFXLON
 70
0
  9
$DIMJOGANG
 40
0.785398163397
  9
$DIMTFILL
 70
0
  9
$DIMTFILLCLR
 70
0
  9
$DIMARCSYM
 70
0
  9
$DIMLTYPE
  6

  9
$DIMLTEX1
  6

  9
$DIMLTEX2
  6

  9
$DIMTXTDIRECTION
 70
0
  9
$LUNITS
 70
2
  9
$LUPREC
 70
4
  9
$SKETCHINC
 40
1.0
  9
$FILLETRAD
 40
10.0
  9
$AUNITS
 70
0
  9
$AUPREC
 70
2
  9
$MENU
  1
.
  9
$ELEVATION
 40
0.0
  9
$PELEVATION
 40
0.0
  9
$THICKNESS
 40
0.0
  9
$LIMCHECK
 70
0
  9
$CHAMFERA
 40
0.0
  9
$CHAMFERB
 40
0.0
  9
$CHAMFERC
 40
0.0
  9
$CHAMFERD
 40
0.0
  9
$SKPOLY
 70
0
  9
$TDCREATE
 40
2461316.7455671295
  9
$TDUCREATE
 40
2458532.153996898
  9
$TDUPDATE
 40
2461316.7455671295
  9
$TDUUPDATE
 40
2458532.1544311
  9
$TDINDWG
 40
0.0
  9
$TDUSRTIMER
 40
0.0
  9
$USRTIMER
 70
1
  9
$ANGBASE
 50
0.0
  9
$ANGDIR
 70
0
  9
$PDMODE
 70
0
  9
$PDSIZE
 40
0.0
  9
$PLINEWID
 40
0.0
  9
$SPLFRAME
 70
0
  9
$SPLINETYPE
 70
6
  9
$SPLINESEGS
 70
8
  9
$HANDSEED
  5
59
  9
$SURFTAB1
 70
6
  9
$SURFTAB2
 70
6
  9
$SURFTYPE
 70
6
  9
$SURFU
 70
6
  9
$SURFV
 70
6
  9
$UCSBASE
  2

  9
$UCSNAME
  2

  9
$UCSORG
 10
0.0
 20
0.0
 30
0.0
  9
$UCSXDIR
 10
1.0
 20
0.0
 30
0.0
  9
$UCSYDIR
 10
0.0
 20
1.0
 30
0.0
  9
$UCSORTHOREF
  2

  9
$UCSORTHOVIEW
 70
0
  9
$UCSORGTOP
 10
0.0
 20
0.0
 30
0.0
  9
$UCSORGBOTTOM
 10
0.0
 20
0.0
 30
0.0
  9
$UCSORGLEFT
 10
0.0
 20
0.0
 30
0.0
  9
$UCSORGRIGHT
 10
0.0
 20
0.0
 30
0.0
  9
$UCSORGFRONT
 10
0.0
 20
0.0
 30
0.0
  9
$UCSORGBACK
 10
0.0
 20
0.0
 30
0.0
  9
$PUCSBASE
  2

  9
$PUCSNAME
  2

  9
$PUCSORG
 10
0.0
 20
0.0
 30
0.0
  9
$PUCSXDIR
 10
1.0
 20
0.0
 30
0.0
  9
$PUCSYDIR
 10
0.0
 20
1.0
 30
0.0
  9
$PUCSORTHOREF
  2

  9
$PUCSORTHOVIEW
 70
0
  9
$PUCSORGTOP
 10
0.0
 20
0.0
 30
0.0
  9
$PUCSORGBOTTOM
 10
0.0
 20
0.0
 30
0.0
  9
$PUCSORGLEFT
 10
0.0
 20
0.0
 30
0.0
  9
$PUCSORGRIGHT
 10
0.0
 20
0.0
 30
0.0
  9
$PUCSORGFRONT
 10
0.0
 20
0.0
 30
0.0
  9
$PUCSORGBACK
 10
0.0
 20
0.0
 30
0.0
  9
$USERI1
 70
0
  9
$USERI2
 70
0
  9
$USERI3
 70
0
  9
$USERI4
 70
0
  9
$USERI5
 70
0
  9
$USERR1
 40
0.0
  9
$USERR2
 40
0.0
  9
$USERR3
 40
0.0
  9
$USERR4
 40
0.0
  9
$USERR5
 40
0.0
  9
$WORLDVIEW
 70
1
  9
$SHADEDGE
 70
3
  9
$SHADEDIF
 70
70
  9
$TILEMODE
 70
1
  9
$MAXACTVP
 70
64
  9
$PINSBASE
 10
0.0
 20
0.0
 30
0.0
  9
$PLIMCHECK
 70
0
  9
$PEXTMIN
 10
1e+20
 20
1e+20
 30
1e+20
  9
$PEXTMAX
 10
-1e+20
 20
-1e+20
 30
-1e+20
  9
$PLIMMIN
 10
0.0
 20
0.0
  9
$PLIMMAX
 10
420.0
 20
297.0
  9
$UNITMODE
 70
0
  9
$VISRETAIN
 70
1
  9
$PLINEGEN
 70
0
  9
$PSLTSCALE
 70
1
  9
$TREEDEPTH
 70
3020
  9
$CMLSTYLE
  2
Standard
  9
$CMLJUST
 70
0
  9
$CMLSCALE
 40
20.0
  9
$PROXYGRAPHICS
 70
1
  9
$MEASUREMENT
 70
1
  9
$CELWEIGHT
370
-1
  9
$ENDCAPS
280
0
  9
$JOINSTYLE
280
0
  9
$LWDISPLAY
290
0
  9
$INSUNITS
 70
4
  9
$HYPERLINKBASE
  1

  9
$STYLESHEET
  1

  9
$XEDIT
290
1
  9
$CEPSNTYPE
380
0
  9
$PSTYLEMODE
290
1
  9
$FINGERPRINTGUID
  2
{6B252836-0A33-4BA0-BED1-7EADA5DFFC3B}
  9
$VERSIONGUID
  2
{390DAA1C-9762-4CFB-85A5-DB1D9DB78E3D}
  9
$EXTNAMES
290
1
  9
$PSVPSCALE
 40
0.0
  9
$OLESTARTUP
290
0
  9
$SORTENTS
280
127
  9
$INDEXCTL
280
0
  9
$HIDETEXT
280
1
  9
$XCLIPFRAME
280
1
  9
$HALOGAP
280
0
  9
$OBSCOLOR
 70
257
  9
$OBSLTYPE
280
0
  9
$INTERSECTIONDISPLAY
280
0
  9
$INTERSECTIONCOLOR
 70
257
  9
$DIMASSOC
280
2
  9
$PROJECTNAME
  1

  9
$CAMERADISPLAY
290
0
  9
$LENSLENGTH
 40
50.0
  9
$CAMERAHEIGHT
 40
0.0
  9
$STEPSPERSEC
 40
24.0
  9
$STEPSIZE
 40
100.0
  9
$3DDWFPREC
 40
2.0
  9
$PSOLWIDTH
 40
0.005
  9
$PSOLHEIGHT
 40
0.08
  9
$LOFTANG1
 40
1.570796326795
  9
$LOFTANG2
 40
1.570796326795
  9
$LOFTMAG1
 40
0.0
  9
$LOFTMAG2
 40
0.0
  9
$LOFTPARAM
 70
7
  9
$LOFTNORMALS
280
1
  9
$LATITUDE
 40
37.795
  9
$LONGITUDE
 40
-122.394
  9
$NORTHDIRECTION
 40
0.0
  9
$TIMEZONE
 70
-8000
  9
$LIGHTGLYPHDISPLAY
280
1
  9
$TILEMODELIGHTSYNCH
280
1
  9
$CMATERIAL
347
20
  9
$SOLIDHIST
280
0
  9
$SHOWHIST
280
1
  9
$DWFFRAME
280
2
  9
$DGNFRAME
280
2
  9
$REALWORLDSCALE
290
1
  9
$INTERFERECOLOR
 62
256
  9
$CSHADOW
280
0
  9
$SHADOWPLANELOCATION
 40
0.0
  0
ENDSEC
  0
SECTION
  2
CLASSES
  0
CLASS
  1
ACDBDICTIONARYWDFLT
  2
AcDbDictionaryWithDefault
  3
ObjectDBX Classes
 90
0
 91
0
280
0
281
0
  0
CLASS
  1
SUN
  2
AcDbSun
  3
SCENEOE
 90
1153
 91
0
280
0
281
0
  0
CLASS
  1
VISUALSTYLE
  2
AcDbVisualStyle
  3
ObjectDBX Classes
 90
4095
 91
0
280
0
281
0
  0
CLASS
  1
MATERIAL
  2
AcDbMaterial
  3
ObjectDBX Classes
 90
1153
 91
0
280
0
281
0
  0
CLASS
  1
SCALE
  2
AcDbScale
  3
ObjectDBX Classes
 90
1153
 91
0
280
0
281
0
  0
CLASS
  1
TABLESTYLE
  2
AcDbTableStyle
  3
ObjectDBX Classes
 90
4095
 91
0
280
0
281
0
  0
CLASS
  1
MLEADERSTYLE
  2
AcDbMLeaderStyle
  3
ACDB_MLEADERSTYLE_CLASS
 90
4095
 91
0
280
0
281
0
  0
CLASS
  1
DICTIONARYVAR
  2
AcDbDictionaryVar
  3
ObjectDBX Classes
 90
0
 91
0
280
0
281
0
  0
CLASS
  1
CELLSTYLEMAP
  2
AcDbCellStyleMap
  3
ObjectDBX Classes
 90
1152
 91
0
280
0
281
0
  0
CLASS
  1
MENTALRAYRENDERSETTINGS
  2
AcDbMentalRayRenderSettings
  3
SCENEOE
 90
1024
 91
0
280
0
281
0
  0
CLASS
  1
ACDBDETAILVIEWSTYLE
  2
AcDbDetailViewStyle
  3
ObjectDBX Classes
 90
1025
 91
0
280
0
281
0
  0
CLASS
  1
ACDBSECTIONVIEWSTYLE
  2
AcDbSectionViewStyle
  3
ObjectDBX Classes
 90
1025
 91
0
280
0
281
0
  0
CLASS
  1
RASTERVARIABLES
  2
AcDbRasterVariables
  3
ISM
 90
0
 91
0
280
0
281
0
  0
CLASS
  1
ACDBPLACEHOLDER
  2
AcDbPlaceHolder
  3
ObjectDBX Classes
 90
0
 91
0
280
0
281
0
  0
CLASS
  1
LAYOUT
  2
AcDbLayout
  3
ObjectDBX Classes
 90
0
 91
0
280
0
281
0
  0
ENDSEC
  0
SECTION
  2
TABLES
  0
TABLE
  2
VPORT
  5
8
330
0
100
AcDbSymbolTable
 70
1
  0
VPORT
  5
23
330
8
100
AcDbSymbolTableRecord
100
AcDbViewportTableRecord
  2
*Active
 70
0
 10
0.0
 20
0.0
 11
1.0
 21
1.0
 12
0.0
 22
0.0
 13
0.0
 23
0.0
 14
0.5
 24
0.5
 15
0.5
 25
0.5
 16
0.0
 26
0.0
 36
1.0
 17
0.0
 27
0.0
 37
0.0
 40
1000.0
 41
1.34
 42
50.0
 43
0.0
 44
0.0
 50
0.0
 51
0.0
 71
0
 72
1000
 73
1
 74
3
 75
0
 76
0
 77
0
 78
0
281
0
 65
0
146
0.0
  0
ENDTAB
  0
TABLE
  2
LTYPE
  5
2
330
0
100
AcDbSymbolTable
 70
3
  0
LTYPE
  5
24
330
2
100
AcDbSymbolTableRecord
100
AcDbLinetypeTableRecord
  2
ByBlock
 70
0
  3

 72
65
 73
0
 40
0.0
  0
LTYPE
  5
25
330
2
100
AcDbSymbolTableRecord
100
AcDbLinetypeTableRecord
  2
ByLayer
 70
0
  3

 72
65
 73
0
 40
0.0
  0
LTYPE
  5
26
330
2
100
AcDbSymbolTableRecord
100
AcDbLinetypeTableRecord
  2
Continuous
 70
0
  3

 72
65
 73
0
 40
0.0
  0
ENDTAB
  0
TABLE
  2
LAYER
  5
1
330
0
100
AcDbSymbolTable
 70
5
  0
LAYER
  5
27
330
1
100
AcDbSymbolTableRecord
100
AcDbLayerTableRecord
  2
0
 70
0
 62
7
  6
Continuous
370
-3
390
13
347
21
  0
LAYER
  5
28
330
1
100
AcDbSymbolTableRecord
100
AcDbLayerTableRecord
  2
Defpoints
 70
0
 62
7
  6
Continuous
290
0
370
-3
390
13
347
21
  0
LAYER
  5
2F
330
1
100
AcDbSymbolTableRecord
100
AcDbLayerTableRecord
  2
CUT
 70
0
 62
7
  6
Continuous
370
-3
390
13
347
21
  0
LAYER
  5
30
330
1
100
AcDbSymbolTableRecord
100
AcDbLayerTableRecord
  2
REFERENCE_NOT_CUT
 70
0
 62
8
  6
Continuous
370
-3
390
13
347
21
  0
LAYER
  5
31
330
1
100
AcDbSymbolTableRecord
100
AcDbLayerTableRecord
  2
LABELS_NOT_CUT
 70
0
 62
3
  6
Continuous
370
-3
390
13
347
21
  0
ENDTAB
  0
TABLE
  2
STYLE
  5
5
330
0
100
AcDbSymbolTable
 70
1
  0
STYLE
  5
29
330
5
100
AcDbSymbolTableRecord
100
AcDbTextStyleTableRecord
  2
Standard
 70
0
 40
0.0
 41
1.0
 50
0.0
 71
0
 42
2.5
  3
txt
  4

  0
ENDTAB
  0
TABLE
  2
VIEW
  5
7
330
0
100
AcDbSymbolTable
 70
0
  0
ENDTAB
  0
TABLE
  2
UCS
  5
6
330
0
100
AcDbSymbolTable
 70
0
  0
ENDTAB
  0
TABLE
  2
APPID
  5
3
330
0
100
AcDbSymbolTable
 70
3
  0
APPID
  5
2A
330
3
100
AcDbSymbolTableRecord
100
AcDbRegAppTableRecord
  2
ACAD
 70
0
  0
APPID
  5
56
330
3
100
AcDbSymbolTableRecord
100
AcDbRegAppTableRecord
  2
HATCHBACKGROUNDCOLOR
 70
0
  0
APPID
  5
57
330
3
100
AcDbSymbolTableRecord
100
AcDbRegAppTableRecord
  2
EZDXF
 70
0
  0
ENDTAB
  0
TABLE
  2
DIMSTYLE
  5
4
330
0
100
AcDbSymbolTable
 70
1
100
AcDbDimStyleTable
  0
DIMSTYLE
105
2B
330
4
100
AcDbSymbolTableRecord
100
AcDbDimStyleTableRecord
  2
Standard
 70
0
 40
1.0
 41
2.5
 42
0.625
 43
3.75
 44
1.25
 45
0.0
 46
0.0
 47
0.0
 48
0.0
 49
2.5
140
2.5
141
2.5
142
0.0
143
0.03937007874
144
1.0
145
0.0
146
1.0
147
0.625
148
0.0
 69
0
 70
0
 71
0
 72
0
 73
0
 74
0
 75
0
 76
0
 77
1
 78
8
 79
3
170
0
171
3
172
1
173
0
174
0
175
0
176
0
177
0
178
0
179
2
271
2
272
2
273
2
274
3
275
0
276
0
277
2
278
44
279
0
280
0
281
0
282
0
283
0
284
8
285
0
286
0
288
0
289
3
290
0
371
-2
372
-2
  0
ENDTAB
  0
TABLE
  2
BLOCK_RECORD
  5
9
330
0
100
AcDbSymbolTable
 70
2
  0
BLOCK_RECORD
  5
17
330
9
100
AcDbSymbolTableRecord
100
AcDbBlockTableRecord
  2
*Model_Space
340
1A
 70
0
280
1
281
0
  0
BLOCK_RECORD
  5
1B
330
9
100
AcDbSymbolTableRecord
100
AcDbBlockTableRecord
  2
*Paper_Space
340
1E
 70
0
280
1
281
0
  0
ENDTAB
  0
ENDSEC
  0
SECTION
  2
BLOCKS
  0
BLOCK
  5
18
330
17
100
AcDbEntity
  8
0
100
AcDbBlockBegin
  2
*Model_Space
 70
0
 10
0.0
 20
0.0
 30
0.0
  3
*Model_Space
  1

  0
ENDBLK
  5
19
330
17
100
AcDbEntity
  8
0
100
AcDbBlockEnd
  0
BLOCK
  5
1C
330
1B
100
AcDbEntity
  8
0
100
AcDbBlockBegin
  2
*Paper_Space
 70
0
 10
0.0
 20
0.0
 30
0.0
  3
*Paper_Space
  1

  0
ENDBLK
  5
1D
330
1B
100
AcDbEntity
  8
0
100
AcDbBlockEnd
  0
ENDSEC
  0
SECTION
  2
ENTITIES
  0
LWPOLYLINE
  5
32
330
17
100
AcDbEntity
  8
CUT
100
AcDbPolyline
 90
318
 70
1
 10
24.74065790100002
 20
53.310649245451
 10
23.93236083779999
 20
54.31126453798801
 10
23.541313213854323
 20
54.82222446850861
 10
15.939748189900001
 20
54.82222446850801
 10
15.939748189900001
 20
60.82222446850858
 10
23.541313213677135
 20
60.82222446849116
 10
23.93236084990002
 20
61.333184414442
 10
24.74065790100002
 20
62.333799691566
 10
25.259839587800002
 20
62.949957714568
 10
25.791641041499986
 20
63.56163750468201
 10
26.335752585699993
 20
64.16869920350601
 10
26.89186454420002
 20
64.771002952634
 10
27.459667240499982
 20
65.368408893663
 10
28.03885099820002
 20
65.96077716818701
 10
28.629106140899978
 20
66.547967917804
 10
29.230122992199995
 20
67.129841284109
 10
29.841515640900013
 20
67.70620460389401
 10
30.462916911100024
 20
68.27692808957701
 10
31.09404522950001
 20
68.84196619618601
 10
31.73461902309998
 20
69.401273378751
 10
32.38435671849999
 20
69.954804092302
 10
33.04297674259999
 20
70.502512791867
 10
34.385737484
 20
71.580281969163
 10
35.75953664679997
 20
72.633385966015
 10
37.16134969630002
 20
73.66093457476401
 10
38.589434146200006
 20
74.663020541092
 10
40.042047509999975
 20
75.63973661068601
 10
41.51706599990001
 20
76.59094696766701
 10
43.0124616576
 20
77.516637611857
 10
44.526635741999996
 20
78.41708401248201
 10
46.05798951169999
 20
79.292561638774
 10
47.6035789636
 20
80.142546033041
 10
49.16083979809997
 20
80.96658715658401
 10
50.72874282959998
 20
81.765072107114
 10
52.30625887230002
 20
82.538387982345
 10
53.89235874079998
 20
83.286921879989
 10
55.48601324919997
 20
84.011060897761
 10
57.08619321189997
 20
84.711192133373
 10
58.69186944310002
 20
85.387702684537
 10
60.3008115783
 20
86.04046977576601
 10
61.911074161700014
 20
86.66935078874701
 10
63.52205537089998
 20
87.274703056961
 10
65.1331533837
 20
87.856883913885
 10
66.74376637799998
 20
88.41625069299901
 10
68.35329253139997
 20
88.953160727781
 10
69.9611300217
 20
89.46797135170901
 10
71.56667702660002
 20
89.961039898264
 10
73.16839000390002
 20
90.43241577383799
 10
74.76487780579998
 20
90.882079436614
 10
76.3557672018
 20
91.310284797754
 10
77.94068496159997
 20
91.71728576841599
 10
79.51925785489999
 20
92.10333625976202
 10
81.09111265119998
 20
92.46869018295101
 10
82.65587612019999
 20
92.81360144914501
 10
84.2131750314
 20
93.13832396950299
 10
85.76174510430002
 20
93.442904043684
 10
87.30040586719997
 20
93.72730932377999
 10
88.82890980330001
 20
93.991675749598
 10
90.34700939620001
 20
94.236139260947
 10
91.85445712899997
 20
94.46083579763601
 10
93.35100548529999
 20
94.665901299473
 10
94.83640694820002
 20
94.851471706266
 10
96.31041400110001
 20
95.017682957825
 10
97.771516045
 20
95.164509750491
 10
99.21817079200002
 20
95.291816095673
 10
100.65008319269998
 20
95.399571905778
 10
102.06695819739997
 20
95.48774709321398
 10
103.46850214630001
 20
95.556317607692
 10
104.85443607039997
 20
95.605285438567
 10
106.22448695700001
 20
95.63465955771599
 10
107.57838179319995
 20
95.644448937016
 10
308.01019989179997
 20
95.644448937017
 10
315.0101998917
 20
89.82223046696599
 10
315.0101998917
 20
95.644448937016
 10
433.0101998916
 20
95.644448937016
 10
440.0101998916
 20
89.82223046696498
 10
440.01019989160005
 20
95.644448937016
 10
560.66019989669
 20
95.644448937015
 10
560.6601999041
 20
105.644448937016
 10
530.6601999041
 20
105.64444893701601
 10
530.6601999041
 20
100.822230466966
 10
485.604541792121
 20
100.82223046696599
 10
485.604541792121
 20
105.644448937016
 10
107.57838179329997
 20
105.64444893701601
 10
106.68648152259999
 20
105.640595065862
 10
105.4105511418
 20
105.621883852146
 10
104.12226357539998
 20
105.587600649191
 10
102.82570538160002
 20
105.537883965004
 10
101.51167360710002
 20
105.472318141771
 10
99.9639553541
 20
105.37600783845
 10
98.40427998199999
 20
105.25864414913599
 10
96.83288086800002
 20
105.12036271961199
 10
95.24999138969997
 20
104.961299195661
 10
93.65626253329998
 20
104.78159362013801
 10
92.052342173
 20
104.58122552789101
 10
90.438459018
 20
104.360089802687
 10
88.81484177789997
 20
104.11808132829199
 10
87.18171916210002
 20
103.85509498847199
 10
85.5393198799
 20
103.571025666994
 10
83.88787264079997
 20
103.26576824762401
 10
82.22760615409999
 20
102.93921761412801
 10
80.55907760529999
 20
102.59130378655101
 10
78.8829420797
 20
102.221846730572
 10
77.19957513719999
 20
101.830576248406
 10
75.50935233730002
 20
101.417222142269
 10
73.81264923970002
 20
100.98151421437899
 10
72.10984140419998
 20
100.52318226695002
 10
70.40130439029997
 20
100.041956102199
 10
68.6874137579
 20
99.53756552234199
 10
66.96891403080002
 20
99.009811359301
 10
65.24671916620002
 20
98.458390977107
 10
63.5214588728
 20
97.88287897614201
 10
61.793762859399976
 20
97.28284995678601
 10
60.06426083499997
 20
96.657878519424
 10
58.33358250829997
 20
96.007539264434
 10
56.60235758819999
 20
95.331406792201
 10
54.87121578350002
 20
94.62905570310599
 10
53.141288662600004
 20
93.900207551004
 10
51.41401868999998
 20
93.14449848697899
 10
49.69050191859998
 20
92.361375007259
 10
47.971834401699994
 20
91.550283608073
 10
46.25911219239998
 20
90.71067078564701
 10
44.55343134359998
 20
89.841983036208
 10
42.85588790859998
 20
88.94366685598601
 10
41.167577940499996
 20
88.015168741205
 10
39.49018359410002
 20
87.056198631186
 10
37.82581118209998
 20
86.066428862053
 10
36.17619299339998
 20
85.045249525244
 10
34.54306131710001
 20
83.99205071219602
 10
32.92832442079998
 20
82.90632374716401
 10
31.334054139399996
 20
81.78761953169901
 10
30.545211992100008
 20
81.21573828548401
 10
29.762228113800006
 20
80.635417523178
 10
28.985349709499985
 20
80.04659217694899
 10
28.21482398439997
 20
79.449197178975
 10
27.451012161999984
 20
78.843247444878
 10
26.694332529400015
 20
78.22877556773601
 10
25.945117886899993
 20
77.605742995896
 10
25.203701034599987
 20
76.974111177705
 10
24.470414773000016
 20
76.33384156151001
 10
23.745591902199976
 20
75.684895595658
 10
23.02956522249997
 20
75.027234728497
 10
22.32266753419998
 20
74.360820408372
 10
21.625268817000006
 20
73.685648386129
 10
20.937779876399986
 20
73.00176025765
 10
20.260594751300005
 20
72.30918623884801
 10
19.594107480899993
 20
71.607956545631
 10
18.93871210430001
 20
70.89810139390701
 10
18.29480266050001
 20
70.17965099959001
 10
17.66277318850001
 20
69.452635578587
 10
17.04301772729997
 20
68.71708534680701
 10
16.43592602960001
 20
67.973030221503
 10
15.84192467470001
 20
67.220584190769
 10
15.26146294260002
 20
66.459903576779
 10
14.694990113100005
 20
65.691144701707
 10
14.14295546599999
 20
64.91446388772701
 10
13.605808281099996
 20
64.13001745701101
 10
13.083997838400023
 20
63.33796173173501
 10
12.577973417400017
 20
62.53845303406899
 10
11.881676458400023
 20
61.380983096113994
 10
11.219110121699998
 20
60.208441128608
 10
10.591482078500007
 20
59.021847972443
 10
10.0
 20
57.82222446850798
 10
10.591482078500007
 20
56.622600964574005
 10
11.219110121699998
 20
55.436007808409
 10
11.881676458400023
 20
54.263465840904004
 10
12.577973417400017
 20
53.105995902947
 10
13.083997838400023
 20
52.306487205282004
 10
13.605808281099996
 20
51.51443148000501
 10
14.14295546599999
 20
50.729985049289006
 10
14.694990113100005
 20
49.953304235308
 10
15.26146294260002
 20
49.184545360237
 10
15.84192467470001
 20
48.423864746247006
 10
16.43592602960001
 20
47.671418715520005
 10
17.04301772729997
 20
46.92736359021
 10
17.66277318850001
 20
46.19181335844001
 10
18.29480266050001
 20
45.464797937430006
 10
18.93871210430001
 20
44.746347543119995
 10
19.594107480899993
 20
44.03649239139
 10
20.260594751300005
 20
43.33526269818
 10
20.937779876399986
 20
42.64268867938
 10
21.625268817000006
 20
41.9588005509
 10
22.32266753419998
 20
41.28362852865
 10
23.02956522249997
 20
40.61721420853
 10
23.745591902199976
 20
39.959553341370004
 10
24.470414773000016
 20
39.31060737552001
 10
25.203701034599987
 20
38.670337759320006
 10
25.945117886899993
 20
38.038705941130004
 10
26.694332529400015
 20
37.415673369290005
 10
27.451012161999984
 20
36.80120149215
 10
28.214823984299983
 20
36.195251758050006
 10
28.985349709499985
 20
35.597856760080006
 10
29.762228113800006
 20
35.00903141385
 10
30.545211992100008
 20
34.42871065154
 10
31.334054139399996
 20
33.85682940532
 10
32.92832442079998
 20
32.73812518986
 10
34.54306131710001
 20
31.65239822483
 10
36.17619299339998
 20
30.599199411790003
 10
37.82581118209998
 20
29.57802007497
 10
39.49018359410002
 20
28.588250305840006
 10
41.16757794040001
 20
27.62928019582
 10
42.85588790859998
 20
26.700782081040003
 10
44.55343134359998
 20
25.802465900819996
 10
46.25911219239998
 20
24.933778151379997
 10
47.971834401699994
 20
24.094165328949998
 10
49.69050191859998
 20
23.283073929769998
 10
51.41401868999998
 20
22.499950450039996
 10
53.141288662600004
 20
21.74424138602
 10
54.87121578350002
 20
21.015393233909997
 10
56.60235758819999
 20
20.313042144820002
 10
58.33358250829997
 20
19.63690967259
 10
60.06426083499997
 20
18.9865704176
 10
61.793762859399976
 20
18.361598980239997
 10
63.5214588728
 20
17.76156996089
 10
65.24671916620002
 20
17.18605795992
 10
66.96891403080002
 20
16.634637577729997
 10
68.68741375780002
 20
16.10688341468
 10
70.40130439029997
 20
15.602492834830002
 10
72.10984140419998
 20
15.121266670079997
 10
73.81264923970002
 20
14.66293472265
 10
75.50935233730002
 20
14.227226794750003
 10
77.19957513719999
 20
13.813872688620002
 10
78.8829420797
 20
13.422602206450001
 10
80.55907760529999
 20
13.053145150470002
 10
82.22760615409999
 20
12.70523132289
 10
83.88787264079997
 20
12.3786806894
 10
85.5393198799
 20
12.073423270029998
 10
87.18171916210002
 20
11.789353948550001
 10
88.81484177789997
 20
11.526367608729998
 10
90.438459018
 20
11.28435913434
 10
92.052342173
 20
11.063223409129996
 10
93.65626253329998
 20
10.862855316889998
 10
95.24999138969997
 20
10.683149741359998
 10
96.83288086800002
 20
10.524086217410002
 10
98.40427998199999
 20
10.385804787890002
 10
99.9639553541
 20
10.268441098579999
 10
101.51167360699998
 20
10.172130795249998
 10
102.06641500159998
 20
10.142611820980001
 10
103.19228074929998
 20
10.090983661750002
 10
104.3076735098
 20
10.05097686474
 10
105.41311200979999
 20
10.022512203769999
 10
106.50374663409997
 20
10.005587620919997
 10
107.57838179319998
 20
10.0
 10
485.604541792122
 20
10.0
 10
485.604541792121
 20
14.822187239039998
 10
530.660199904101
 20
14.822187239039998
 10
530.6601999041011
 20
10.0
 10
560.6601998966901
 20
10.0
 10
560.66019989083
 20
20.0
 10
440.01019989161
 20
20.0000006665
 10
440.0101998916
 20
25.822230466970005
 10
433.0101998916
 20
20.0
 10
315.0101998917
 20
20.00000549923
 10
315.0101998917
 20
25.822230466969998
 10
308.0101998916
 20
20.0
 10
107.57838179319998
 20
20.0
 10
106.22448695700001
 20
20.00978937931
 10
104.85443607039997
 20
20.03916349846
 10
103.46850214630001
 20
20.088131329329997
 10
102.06695819739997
 20
20.156701843809998
 10
100.65008319269998
 20
20.24487703125
 10
99.21817079200002
 20
20.35263284135
 10
97.771516045
 20
20.479939186529997
 10
96.31041400110001
 20
20.6267659792
 10
94.83640694820002
 20
20.792977230760002
 10
93.35100548529999
 20
20.97854763756
 10
91.85445712899997
 20
21.183613139389998
 10
90.34700939620001
 20
21.408309676080002
 10
88.82890980330001
 20
21.65277318743
 10
87.30040586719997
 20
21.91713961325
 10
85.76174510430002
 20
22.20154489334
 10
84.2131750314
 20
22.50612496752
 10
82.65587612019999
 20
22.83084748788
 10
81.09111265119998
 20
23.175758754069996
 10
79.51925785489999
 20
23.541112677260003
 10
77.94068496159997
 20
23.92716316861
 10
76.3557672018
 20
24.33416413927
 10
74.76487780579998
 20
24.762369500410003
 10
73.16839000390002
 20
25.21203316319
 10
71.56667702660002
 20
25.683409038759997
 10
69.9611300217
 20
26.17647758532
 10
68.35329253139997
 20
26.69128820924
 10
66.74376637799998
 20
27.228198244020007
 10
65.1331533837
 20
27.787565023140004
 10
63.52205537089998
 20
28.36974588006
 10
61.911074161700014
 20
28.975098148280004
 10
60.3008115783
 20
29.60397916126
 10
58.69186944310002
 20
30.25674625248
 10
57.08619321189997
 20
30.933256803650004
 10
55.48601324919997
 20
31.633388039259998
 10
53.89235874079998
 20
32.35752705704
 10
52.30625887230002
 20
33.106060954680004
 10
50.72874282959998
 20
33.87937682991
 10
49.16083979809997
 20
34.677861780440004
 10
47.6035789636
 20
35.50190290399
 10
46.05798951169999
 20
36.351887298250006
 10
44.526635741999996
 20
37.22736492454
 10
43.0124616576
 20
38.12781132517
 10
41.51706599990001
 20
39.05350196936
 10
40.042047509999975
 20
40.00471232633001
 10
38.589434146200006
 20
40.98142839593
 10
37.16134969630002
 20
41.98351436226001
 10
35.75953664679997
 20
43.011062971010006
 10
34.385737484
 20
44.064166967860004
 10
33.04297674259999
 20
45.14193614516
 10
32.38435671849999
 20
45.68964484472001
 10
31.73461902309998
 20
46.24317555827
 10
31.09404522950001
 20
46.802482740840006
 10
30.462916911100024
 20
47.367520847440005
 10
29.841515640900013
 20
47.938244333122
 10
29.230122992199995
 20
48.514607652908
 10
28.629106140899978
 20
49.096481019213
 10
28.03885099820002
 20
49.683671768829
 10
27.459667240499982
 20
50.276040043354
 10
26.89186454420002
 20
50.873445984382
 10
26.335752585699993
 20
51.475749733511
 10
25.791641041499986
 20
52.082811432334005
 10
25.259839587800002
 20
52.694491222449
  0
LWPOLYLINE
  5
33
330
17
100
AcDbEntity
  8
CUT
100
AcDbPolyline
 90
32
 70
1
 10
111.72413000809999
 20
15.000000000009983
 10
111.70491528850322
 20
15.195090322026111
 10
111.64800954061128
 20
15.382683432375075
 10
111.55559962040253
 20
15.555570233029584
 10
111.43123678928654
 20
15.70710678119653
 10
111.2797002411196
 20
15.831469612312528
 10
111.10681344046507
 20
15.92387953252127
 10
110.91922033011612
 20
15.980785280413215
 10
110.72413000809999
 20
16.000000000009983
 10
110.52903968608386
 20
15.980785280413215
 10
110.3414465757349
 20
15.92387953252127
 10
110.16855977508038
 20
15.831469612312528
 10
110.01702322691344
 20
15.70710678119653
 10
109.89266039579745
 20
15.555570233029584
 10
109.8002504755887
 20
15.382683432375075
 10
109.74334472769677
 20
15.195090322026111
 10
109.72413000809999
 20
15.000000000009983
 10
109.74334472769677
 20
14.804909677993855
 10
109.8002504755887
 20
14.617316567644892
 10
109.89266039579745
 20
14.444429766990382
 10
110.01702322691344
 20
14.292893218823433
 10
110.1685597750804
 20
14.168530387707438
 10
110.3414465757349
 20
14.076120467498697
 10
110.52903968608386
 20
14.019214719606751
 10
110.72413000809999
 20
14.000000000009983
 10
110.91922033011612
 20
14.019214719606754
 10
111.10681344046509
 20
14.076120467498697
 10
111.2797002411196
 20
14.168530387707442
 10
111.43123678928654
 20
14.292893218823437
 10
111.55559962040253
 20
14.444429766990382
 10
111.64800954061128
 20
14.617316567644899
 10
111.70491528850322
 20
14.804909677993859
  0
LWPOLYLINE
  5
34
330
17
100
AcDbEntity
  8
CUT
100
AcDbPolyline
 90
32
 70
1
 10
31.72413000810002
 20
75.058726962393
 10
31.704915288503244
 20
75.25381728440912
 10
31.648009540611305
 20
75.44141039475808
 10
31.55559962040256
 20
75.6142971954126
 10
31.431236789286565
 20
75.76583374357955
 10
31.27970024111962
 20
75.89019657469554
 10
31.10681344046511
 20
75.98260649490429
 10
30.919220330116147
 20
76.03951224279622
 10
30.72413000810002
 20
76.058726962393
 10
30.52903968608389
 20
76.03951224279622
 10
30.341446575734935
 20
75.98260649490429
 10
30.168559775080418
 20
75.89019657469554
 10
30.017023226913473
 20
75.76583374357955
 10
29.892660395797478
 20
75.6142971954126
 10
29.800250475588733
 20
75.44141039475808
 10
29.743344727696794
 20
75.25381728440912
 10
29.72413000810002
 20
75.058726962393
 10
29.743344727696794
 20
74.86363664037687
 10
29.800250475588733
 20
74.67604353002791
 10
29.892660395797478
 20
74.50315672937339
 10
30.017023226913473
 20
74.35162018120644
 10
30.168559775080418
 20
74.22725735009045
 10
30.341446575734935
 20
74.1348474298817
 10
30.52903968608389
 20
74.07794168198977
 10
30.72413000810002
 20
74.058726962393
 10
30.919220330116147
 20
74.07794168198977
 10
31.10681344046511
 20
74.13484742988172
 10
31.279700241119627
 20
74.22725735009045
 10
31.431236789286572
 20
74.35162018120646
 10
31.555599620402567
 20
74.5031567293734
 10
31.648009540611305
 20
74.67604353002791
 10
31.70491528850325
 20
74.86363664037687
  0
LWPOLYLINE
  5
35
330
17
100
AcDbEntity
  8
CUT
100
AcDbPolyline
 90
32
 70
1
 10
211.7241300081
 20
100.644448937016
 10
211.70491528850323
 20
100.83953925903212
 10
211.64800954061127
 20
101.02713236938108
 10
211.55559962040255
 20
101.2000191700356
 10
211.43123678928654
 20
101.35155571820255
 10
211.2797002411196
 20
101.47591854931854
 10
211.1068134404651
 20
101.56832846952729
 10
210.91922033011613
 20
101.62523421741923
 10
210.7241300081
 20
101.644448937016
 10
210.52903968608385
 20
101.62523421741923
 10
210.3414465757349
 20
101.56832846952729
 10
210.16855977508038
 20
101.47591854931854
 10
210.01702322691344
 20
101.35155571820255
 10
209.89266039579744
 20
101.2000191700356
 10
209.8002504755887
 20
101.02713236938108
 10
209.74334472769675
 20
100.83953925903212
 10
209.7241300081
 20
100.644448937016
 10
209.74334472769675
 20
100.44935861499987
 10
209.8002504755887
 20
100.2617655046509
 10
209.89266039579744
 20
100.08887870399639
 10
210.01702322691344
 20
99.93734215582944
 10
210.16855977508038
 20
99.81297932471344
 10
210.3414465757349
 20
99.7205694045047
 10
210.52903968608388
 20
99.66366365661275
 10
210.7241300081
 20
99.644448937016
 10
210.91922033011613
 20
99.66366365661275
 10
211.1068134404651
 20
99.7205694045047
 10
211.2797002411196
 20
99.81297932471345
 10
211.43123678928654
 20
99.93734215582944
 10
211.55559962040255
 20
100.0888787039964
 10
211.64800954061127
 20
100.26176550465091
 10
211.70491528850323
 20
100.44935861499987
  0
LWPOLYLINE
  5
36
330
17
100
AcDbEntity
  8
CUT
100
AcDbPolyline
 90
32
 70
1
 10
111.72413000809999
 20
100.64444893701602
 10
111.70491528850322
 20
100.83953925903215
 10
111.64800954061128
 20
101.0271323693811
 10
111.55559962040253
 20
101.20001917003563
 10
111.43123678928654
 20
101.35155571820258
 10
111.2797002411196
 20
101.47591854931856
 10
111.10681344046507
 20
101.56832846952732
 10
110.91922033011612
 20
101.62523421741925
 10
110.72413000809999
 20
101.64444893701602
 10
110.52903968608386
 20
101.62523421741925
 10
110.3414465757349
 20
101.56832846952732
 10
110.16855977508038
 20
101.47591854931856
 10
110.01702322691344
 20
101.35155571820258
 10
109.89266039579745
 20
101.20001917003563
 10
109.8002504755887
 20
101.0271323693811
 10
109.74334472769677
 20
100.83953925903215
 10
109.72413000809999
 20
100.64444893701602
 10
109.74334472769677
 20
100.4493586149999
 10
109.8002504755887
 20
100.26176550465094
 10
109.89266039579745
 20
100.08887870399641
 10
110.01702322691344
 20
99.93734215582947
 10
110.1685597750804
 20
99.81297932471348
 10
110.3414465757349
 20
99.72056940450473
 10
110.52903968608386
 20
99.6636636566128
 10
110.72413000809999
 20
99.64444893701602
 10
110.91922033011612
 20
99.6636636566128
 10
111.10681344046509
 20
99.72056940450474
 10
111.2797002411196
 20
99.81297932471348
 10
111.43123678928654
 20
99.93734215582948
 10
111.55559962040253
 20
100.08887870399643
 10
111.64800954061128
 20
100.26176550465094
 10
111.70491528850322
 20
100.4493586149999
  0
LWPOLYLINE
  5
37
330
17
100
AcDbEntity
  8
CUT
100
AcDbPolyline
 90
32
 70
1
 10
31.72413000810002
 20
40.58572197464
 10
31.704915288503244
 20
40.78081229665613
 10
31.648009540611305
 20
40.96840540700509
 10
31.55559962040256
 20
41.1412922076596
 10
31.431236789286565
 20
41.29282875582655
 10
31.27970024111962
 20
41.41719158694255
 10
31.10681344046511
 20
41.50960150715129
 10
30.919220330116147
 20
41.566507255043234
 10
30.72413000810002
 20
41.58572197464
 10
30.52903968608389
 20
41.566507255043234
 10
30.341446575734935
 20
41.50960150715129
 10
30.168559775080418
 20
41.41719158694255
 10
30.017023226913473
 20
41.29282875582655
 10
29.892660395797478
 20
41.1412922076596
 10
29.800250475588733
 20
40.96840540700509
 10
29.743344727696794
 20
40.78081229665613
 10
29.72413000810002
 20
40.58572197464
 10
29.743344727696794
 20
40.390631652623874
 10
29.800250475588733
 20
40.20303854227491
 10
29.892660395797478
 20
40.0301517416204
 10
30.017023226913473
 20
39.878615193453456
 10
30.168559775080418
 20
39.75425236233745
 10
30.341446575734935
 20
39.661842442128716
 10
30.52903968608389
 20
39.60493669423677
 10
30.72413000810002
 20
39.58572197464
 10
30.919220330116147
 20
39.60493669423677
 10
31.10681344046511
 20
39.661842442128716
 10
31.279700241119627
 20
39.75425236233746
 10
31.431236789286572
 20
39.878615193453456
 10
31.555599620402567
 20
40.0301517416204
 10
31.648009540611305
 20
40.20303854227492
 10
31.70491528850325
 20
40.39063165262388
  0
LWPOLYLINE
  5
38
330
17
100
AcDbEntity
  8
CUT
100
AcDbPolyline
 90
32
 70
1
 10
211.7241300081
 20
15.000000000010004
 10
211.70491528850323
 20
15.195090322026132
 10
211.64800954061127
 20
15.382683432375096
 10
211.55559962040255
 20
15.55557023302961
 10
211.43123678928654
 20
15.707106781196554
 10
211.2797002411196
 20
15.831469612312553
 10
211.1068134404651
 20
15.923879532521294
 10
210.91922033011613
 20
15.980785280413237
 10
210.7241300081
 20
16.000000000010008
 10
210.52903968608385
 20
15.980785280413237
 10
210.3414465757349
 20
15.923879532521294
 10
210.16855977508038
 20
15.831469612312553
 10
210.01702322691344
 20
15.707106781196554
 10
209.89266039579744
 20
15.55557023302961
 10
209.8002504755887
 20
15.382683432375096
 10
209.74334472769675
 20
15.195090322026132
 10
209.7241300081
 20
15.000000000010004
 10
209.74334472769675
 20
14.804909677993876
 10
209.8002504755887
 20
14.617316567644913
 10
209.89266039579744
 20
14.4444297669904
 10
210.01702322691344
 20
14.292893218823455
 10
210.16855977508038
 20
14.168530387707456
 10
210.3414465757349
 20
14.076120467498715
 10
210.52903968608388
 20
14.019214719606772
 10
210.7241300081
 20
14.000000000010001
 10
210.91922033011613
 20
14.019214719606772
 10
211.1068134404651
 20
14.076120467498715
 10
211.2797002411196
 20
14.16853038770746
 10
211.43123678928654
 20
14.292893218823458
 10
211.55559962040255
 20
14.444429766990403
 10
211.64800954061127
 20
14.617316567644917
 10
211.70491528850323
 20
14.80490967799388
  0
LWPOLYLINE
  5
39
330
17
100
AcDbEntity
  8
CUT
100
AcDbPolyline
 90
39
 70
1
 10
547.1601999033201
 20
100.644448939338
 10
547.140775297277
 20
100.88506586062465
 10
547.0830045662408
 20
101.11945093004022
 10
546.9883839417998
 20
101.34153369740366
 10
546.8593640484253
 20
101.54556233569497
 10
546.6992864335845
 20
101.72625261035373
 10
546.5122970234167
 20
101.87892473817848
 10
546.3032387454247
 20
101.99962459125358
 10
546.0775260991948
 20
102.08522610678506
 10
545.841004923703
 20
102.13351225048508
 10
545.5998009931559
 20
102.14323243659535
 10
545.360161362656
 20
102.1141349174014
 10
545.1282925727562
 20
102.04697330336613
 10
544.9101999033201
 20
101.94348704501466
 10
544.711531839927
 20
101.80635638207949
 10
544.5374337810634
 20
101.63913292669919
 10
544.3924147750043
 20
101.44614767852971
 10
544.2802307378319
 20
101.23239885412812
 10
544.203787177181
 20
101.00342243576934
 10
544.1650639411188
 20
100.7651487924131
 10
544.1650639411188
 20
100.52374908626291
 10
544.203787177181
 20
100.28547544290667
 10
544.2802307378319
 20
100.05649902454789
 10
544.3924147750043
 20
99.8427502001463
 10
544.5374337810634
 20
99.6497649519768
 10
544.711531839927
 20
99.48254149659653
 10
544.9101999033201
 20
99.34541083366135
 10
545.1282925727562
 20
99.24192457530988
 10
545.360161362656
 20
99.17476296127461
 10
545.5998009931559
 20
99.14566544208066
 10
545.841004923703
 20
99.15538562819093
 10
546.0775260991948
 20
99.20367177189095
 10
546.3032387454247
 20
99.28927328742243
 10
546.5122970234167
 20
99.40997314049753
 10
546.6992864335845
 20
99.56264526832229
 10
546.8593640484253
 20
99.74333554298104
 10
546.9883839417998
 20
99.94736418127236
 10
547.0830045662408
 20
100.1694469486358
 10
547.140775297277
 20
100.40383201805138
  0
LWPOLYLINE
  5
3A
330
17
100
AcDbEntity
  8
CUT
100
AcDbPolyline
 90
39
 70
1
 10
547.16019990313
 20
14.999999995249993
 10
547.1407752970869
 20
15.240616916536634
 10
547.0830045660507
 20
15.475001985952204
 10
546.9883839416098
 20
15.697084753315647
 10
546.8593640482352
 20
15.901113391606962
 10
546.6992864333944
 20
16.081803666265714
 10
546.5122970232267
 20
16.23447579409048
 10
546.3032387452346
 20
16.355175647165566
 10
546.0775260990047
 20
16.440777162697053
 10
545.841004923513
 20
16.489063306397075
 10
545.5998009929658
 20
16.49878349250735
 10
545.3601613624659
 20
16.469685973313396
 10
545.1282925725661
 20
16.402524359278118
 10
544.91019990313
 20
16.29903810092665
 10
544.711531839737
 20
16.161907437991474
 10
544.5374337808734
 20
15.994683982611186
 10
544.3924147748143
 20
15.801698734441693
 10
544.2802307376418
 20
15.587949910040106
 10
544.2037871769909
 20
15.35897349168133
 10
544.1650639409287
 20
15.120699848325081
 10
544.1650639409287
 20
14.879300142174905
 10
544.2037871769909
 20
14.641026498818654
 10
544.2802307376418
 20
14.412050080459878
 10
544.3924147748143
 20
14.19830125605829
 10
544.5374337808734
 20
14.005316007888801
 10
544.711531839737
 20
13.83809255250851
 10
544.91019990313
 20
13.700961889573335
 10
545.1282925725661
 20
13.597475631221869
 10
545.3601613624659
 20
13.53031401718659
 10
545.5998009929658
 20
13.501216497992637
 10
545.841004923513
 20
13.510936684102912
 10
546.0775260990047
 20
13.559222827802934
 10
546.3032387452346
 20
13.64482434333442
 10
546.5122970232267
 20
13.765524196409512
 10
546.6992864333944
 20
13.918196324234273
 10
546.8593640482352
 20
14.098886598893028
 10
546.9883839416098
 20
14.302915237184344
 10
547.0830045660507
 20
14.52499800454779
 10
547.1407752970869
 20
14.759383073963356
  0
LWPOLYLINE
  5
3B
330
17
100
AcDbEntity
  8
CUT
100
AcDbPolyline
 90
39
 70
1
 10
467.16067926483197
 20
100.921392275295
 10
467.14125465878885
 20
101.16200919658165
 10
467.0834839277527
 20
101.39639426599722
 10
466.9888633033118
 20
101.61847703336066
 10
466.85984340993724
 20
101.82250567165197
 10
466.69976579509637
 20
102.00319594631073
 10
466.5127763849287
 20
102.15586807413548
 10
466.30371810693657
 20
102.27656792721058
 10
466.07800546070666
 20
102.36216944274206
 10
465.84148428521496
 20
102.41045558644208
 10
465.60028035466786
 20
102.42017577255235
 10
465.3606407241679
 20
102.3910782533584
 10
465.1287719342682
 20
102.32391663932313
 10
464.91067926483197
 20
102.22043038097166
 10
464.7120112014389
 20
102.08329971803649
 10
464.5379131425753
 20
101.9160762626562
 10
464.3928941365163
 20
101.72309101448671
 10
464.2807100993437
 20
101.50934219008512
 10
464.2042665386929
 20
101.28036577172634
 10
464.1655433026307
 20
101.0420921283701
 10
464.1655433026307
 20
100.80069242221991
 10
464.2042665386929
 20
100.56241877886367
 10
464.2807100993437
 20
100.33344236050489
 10
464.3928941365163
 20
100.1196935361033
 10
464.5379131425753
 20
99.9267082879338
 10
464.7120112014389
 20
99.75948483255353
 10
464.91067926483197
 20
99.62235416961835
 10
465.1287719342682
 20
99.51886791126688
 10
465.3606407241679
 20
99.45170629723161
 10
465.60028035466786
 20
99.42260877803766
 10
465.84148428521496
 20
99.43232896414793
 10
466.07800546070666
 20
99.48061510784795
 10
466.30371810693657
 20
99.56621662337943
 10
466.5127763849287
 20
99.68691647645453
 10
466.69976579509637
 20
99.83958860427929
 10
466.85984340993724
 20
100.02027887893804
 10
466.9888633033118
 20
100.22430751722936
 10
467.0834839277527
 20
100.4463902845928
 10
467.14125465878885
 20
100.68077535400838
  0
LWPOLYLINE
  5
3C
330
17
100
AcDbEntity
  8
CUT
100
AcDbPolyline
 90
39
 70
1
 10
467.160679264636
 20
14.723056659650005
 10
467.14125465859286
 20
14.963673580936646
 10
467.0834839275567
 20
15.198058650352213
 10
466.9888633031158
 20
15.420141417715659
 10
466.85984340974125
 20
15.624170056006975
 10
466.6997657949004
 20
15.804860330665726
 10
466.5127763847327
 20
15.95753245849049
 10
466.3037181067406
 20
16.07823231156558
 10
466.07800546051067
 20
16.16383382709706
 10
465.84148428501896
 20
16.212119970797083
 10
465.60028035447186
 20
16.22184015690736
 10
465.3606407239719
 20
16.192742637713405
 10
465.1287719340722
 20
16.125581023678127
 10
464.910679264636
 20
16.022094765326663
 10
464.7120112012429
 20
15.884964102391486
 10
464.5379131423793
 20
15.717740647011198
 10
464.3928941363203
 20
15.524755398841705
 10
464.2807100991477
 20
15.311006574440118
 10
464.2042665384969
 20
15.082030156081341
 10
464.1655433024347
 20
14.843756512725093
 10
464.1655433024347
 20
14.602356806574917
 10
464.2042665384969
 20
14.364083163218666
 10
464.2807100991477
 20
14.135106744859893
 10
464.3928941363203
 20
13.921357920458302
 10
464.53791314237935
 20
13.728372672288813
 10
464.7120112012429
 20
13.561149216908525
 10
464.910679264636
 20
13.424018553973347
 10
465.1287719340722
 20
13.320532295621884
 10
465.3606407239719
 20
13.253370681586606
 10
465.60028035447186
 20
13.224273162392652
 10
465.84148428501896
 20
13.233993348502928
 10
466.07800546051067
 20
13.28227949220295
 10
466.3037181067406
 20
13.367881007734436
 10
466.5127763847327
 20
13.488580860809524
 10
466.6997657949004
 20
13.641252988634285
 10
466.85984340974125
 20
13.82194326329304
 10
466.9888633031158
 20
14.025971901584356
 10
467.0834839275567
 20
14.248054668947802
 10
467.14125465859286
 20
14.482439738363368
  0
TEXT
  5
3D
330
17
100
AcDbEntity
  8
LABELS_NOT_CUT
100
AcDbText
 10
13.117744614575003
 20
58.42203622047549
 30
0.0
 40
2.0
  1
A13
100
AcDbText
  0
LWPOLYLINE
  5
3E
330
17
100
AcDbEntity
  8
CUT
100
AcDbPolyline
 90
14
 70
1
 10
316.999978717992
 20
122.23989937748115
 10
90.00000033196201
 20
123.41966538323828
 10
90.00000033196201
 20
118.91739969269719
 10
85.00000033196201
 20
118.91739969269719
 10
85.00000033196201
 20
123.44563378420048
 10
10.0
 20
123.83936076847351
 10
10.0
 20
117.22210520343708
 10
15.000000331966987
 20
117.222104952611
 10
15.000000001978975
 20
110.64444893701602
 10
204.34999980849202
 20
112.1379756826247
 10
204.34999999998203
 20
117.22210470178493
 10
209.34999999998203
 20
117.22210495260998
 10
209.34999999998203
 20
112.17741393849849
 10
316.999978717992
 20
113.02651941828151
  0
TEXT
  5
3F
330
17
100
AcDbEntity
  8
LABELS_NOT_CUT
100
AcDbText
 10
163.499989358996
 20
118.06975244806713
 30
0.0
 40
2.0
  1
A07_L_I
100
AcDbText
  0
LWPOLYLINE
  5
40
330
17
100
AcDbEntity
  8
CUT
100
AcDbPolyline
 90
303
 70
1
 10
365.573223667034
 20
110.70712049669721
 10
366.44736633043397
 20
110.65980615330723
 10
366.8221971880614
 20
110.64609202723175
 10
366.82219718806084
 20
118.14387833455818
 10
372.82219718806107
 20
118.14387833455864
 10
372.82219718806164
 20
110.64444893701601
 10
373.19704004254004
 20
110.65980615330723
 10
374.07118270594106
 20
110.70712049669721
 10
374.94436339743504
 20
110.76972659119723
 10
375.81631463245606
 20
110.84760525843724
 10
376.686769303059
 20
110.94073264158722
 10
377.55546075974803
 20
111.04908021259722
 10
378.42212289315796
 20
111.17261478095723
 10
379.28649021557305
 20
111.31129850389722
 10
380.14829794225705
 20
111.46508889791723
 10
381.00728207256304
 20
111.63393885187723
 10
381.863179470806
 20
111.81779664133724
 10
382.71572794687006
 20
112.01660594451722
 10
383.56466633652803
 20
112.23030585941724
 10
384.409734581444
 20
112.45883092259722
 10
385.250673808835
 20
112.70211112915725
 10
386.087226410776
 20
112.96007195419723
 10
386.91913612311293
 20
113.23263437563723
 10
387.74614810396497
 20
113.51971489848724
 10
388.56800901178997
 20
113.82122558030723
 10
389.38446708299205
 20
114.13707405827724
 10
390.19527220904797
 20
114.46716357738724
 10
391.00017601312004
 20
114.81139302014724
 10
391.798931926142
 20
115.16965693749724
 10
392.59129526235495
 20
115.54184558118722
 10
393.377023294262
 20
115.92784493733724
 10
394.15587532698
 20
116.32753676136723
 10
394.927612771977
 20
116.74079861425723
 10
395.691999220158
 20
117.16750390002723
 10
396.44880051428504
 20
117.60752190451724
 10
397.19778482070694
 20
118.06071783543725
 10
397.93872270038
 20
118.52695286364722
 10
398.67138717914906
 20
119.00608416570724
 10
399.395553817281
 20
119.49796496761722
 10
400.111000778217
 20
120.00244458975722
 10
400.81750889652596
 20
120.51936849308721
 10
401.514861745047
 20
121.04857832644724
 10
402.20284570118497
 20
121.58991197509722
 10
402.88125001235005
 20
122.14320361036722
 10
403.54986686051996
 20
122.70828374044721
 10
404.20849142590305
 20
123.28497926231724
 10
404.856921949675
 20
123.87311351476724
 10
405.494959795794
 20
124.47250633252723
 10
406.12240951184003
 20
125.08297410145722
 10
406.73907888889505
 20
125.70432981477724
 10
407.344779020421
 20
126.33638313035722
 10
407.939324360127
 20
126.97894042904723
 10
408.52253277881005
 20
127.63180487396723
 10
409.09422562014595
 20
128.29477647081723
 10
409.65422775542095
 20
128.9676521291372
 10
410.20236763717503
 20
129.6502257245072
 10
410.738477351755
 20
130.34228816171725
 10
411.262392670752
 20
131.04362743880722
 10
411.77395310131
 20
131.75402871199725
 10
412.27300193529106
 20
132.47327436152722
 10
412.75938629727796
 20
133.20114405830725
 10
413.232957191408
 20
133.93741483138723
 10
413.693569547013
 20
134.6818611363272
 10
414.14108226305996
 20
135.4342549242072
 10
414.575358251378
 20
136.19436571154722
 10
414.996264478646
 20
136.96196065089725
 10
415.403672007154
 20
137.73680460214723
 10
415.7974560342931
 20
138.5186602045672
 10
416.17749593079304
 20
139.30728794953723
 10
416.543675277671
 20
140.10244625388725
 10
416.79870861971096
 20
140.7117910168772
 10
417.021196269258
 20
141.33375748826722
 10
417.210516908306
 20
141.9666087672872
 10
417.36614184089103
 20
142.60857755631122
 10
417.48763646952705
 20
143.2578710962012
 10
417.57466150886296
 20
143.9126761727382
 10
417.626973933166
 20
144.57116418021724
 10
417.644427654996
 20
145.23149622799622
 10
417.644427654996
 20
147.33467964305322
 10
407.64442765499496
 20
147.33467964305322
 10
407.64442765499496
 20
152.33467964305316
 10
417.644427654996
 20
152.33467964305254
 10
417.644427654996
 20
152.89999999320224
 10
417.37988704467796
 20
153.90355143171723
 10
417.08529304208696
 20
154.92153174756226
 10
416.76093314052
 20
155.95255601519722
 10
416.407094833276
 20
156.9952393090822
 10
416.02406561365103
 20
158.04819670367624
 10
415.612132974942
 20
159.11004327344023
 10
415.17158441044603
 20
160.1793940928332
 10
414.702707413461
 20
161.25486423631622
 10
414.340090076141
 20
162.04903680022323
 10
413.962873228827
 20
162.84530692801923
 10
413.571313993987
 20
163.6432317561252
 10
413.165669494089
 20
164.4423684209662
 10
412.74619685159803
 20
165.24227405896323
 10
412.31315318898305
 20
166.04250580654025
 10
411.86679562870904
 20
166.8426208001212
 10
411.40738129324507
 20
167.6421761761282
 10
410.935167305057
 20
168.44072907098422
 10
410.450410786612
 20
169.23783662111322
 10
409.95336886037796
 20
170.03305596293825
 10
409.444298648821
 20
170.82594423288123
 10
408.92345727440795
 20
171.61605856736622
 10
408.391101859606
 20
172.4029561028172
 10
407.847489526883
 20
173.18619397565521
 10
407.29287739870597
 20
173.96532932230423
 10
406.727522597541
 20
174.7399192791882
 10
406.151682245855
 20
175.5095209827292
 10
405.565613466116
 20
176.27369156935123
 10
404.96957338078994
 20
177.03198817547622
 10
404.363819112345
 20
177.78396793752825
 10
403.74860778324796
 20
178.5291879919302
 10
403.12419651596497
 20
179.26720547510524
 10
402.490842432964
 20
179.99757752347625
 10
401.848802656712
 20
180.71986127346622
 10
401.19833430967606
 20
181.43361386149923
 10
400.53969451432204
 20
182.13839242399723
 10
399.873140393118
 20
182.83375409738323
 10
399.198929068531
 20
183.51925601808125
 10
398.51731766302805
 20
184.19445532251422
 10
397.828563299076
 20
184.8589091471042
 10
397.132923099142
 20
185.5121746282752
 10
396.084638962221
 20
186.46349461139124
 10
395.02284840022605
 20
187.38764019114524
 10
393.94858594104596
 20
188.2834312273182
 10
392.862886112572
 20
189.1496875796912
 10
391.76678344269396
 20
189.98522910804525
 10
390.66131245930296
 20
190.78887567216123
 10
389.54750769028897
 20
191.55944713181918
 10
388.42640366354397
 20
192.2957633468012
 10
387.29903490695597
 20
192.99664417688723
 10
386.16643594841696
 20
193.66090948185723
 10
385.029641315817
 20
194.2873791214942
 10
383.88968553704706
 20
194.87487295557725
 10
382.74760313999695
 20
195.4222108438882
 10
381.604428652558
 20
195.92821264620721
 10
380.461196602619
 20
196.39169822231526
 10
379.889882281679
 20
196.60712863172222
 10
379.31894151807205
 20
196.8114874319932
 10
378.716309846649
 20
197.01531569382223
 10
378.11449024714796
 20
197.2066903001022
 10
377.51356829060603
 20
197.3855151386582
 10
376.91362954806004
 20
197.55169409731923
 10
376.31475959054706
 20
197.70513106390922
 10
375.71704398910197
 20
197.8457299262572
 10
375.120568314763
 20
197.9733945721872
 10
374.525418138565
 20
198.08802888952823
 10
373.93167903154597
 20
198.18953676610624
 10
373.339436564743
 20
198.27782208974725
 10
372.74877630919104
 20
198.35278874827821
 10
372.159783835927
 20
198.4143406295252
 10
371.572544715988
 20
198.46238162131624
 10
370.987144520411
 20
198.49681561147622
 10
370.40366882023204
 20
198.51754648783321
 10
369.82220318648683
 20
198.5244781382122
 10
369.24073755274196
 20
198.51754648783321
 10
368.657261852563
 20
198.49681561147622
 10
368.071861656986
 20
198.46238162131624
 10
367.48462253704804
 20
198.41434062952624
 10
366.895630063785
 20
198.35278874827821
 10
366.30496980823295
 20
198.2778220897482
 10
365.71272734142997
 20
198.1895367661072
 10
365.118988234412
 20
198.08802888952926
 10
364.523838058215
 20
197.97339457218925
 10
363.927362383876
 20
197.84572992625823
 10
363.32964678243195
 20
197.7051310639112
 10
362.73077682491896
 20
197.55169409732025
 10
362.130838082373
 20
197.38551513866025
 10
361.52991612583196
 20
197.20669030010424
 10
360.92809652633196
 20
197.01531569382422
 10
360.32546485491
 20
196.8114874319952
 10
359.75452409131196
 20
196.6071286317242
 10
359.18320977037195
 20
196.39169822231725
 10
358.03997772043203
 20
195.92821264621023
 10
356.89680323299206
 20
195.4222108438912
 10
355.75472083594207
 20
194.87487295558122
 10
354.614765057172
 20
194.2873791214992
 10
353.47797042457205
 20
193.6609094818632
 10
352.345371466032
 20
192.99664417689223
 10
351.218002709452
 20
192.29576334680723
 10
350.096898682702
 20
191.55944713182623
 10
348.98309391369196
 20
190.78887567216822
 10
347.877622930302
 20
189.9852291080532
 10
346.781520260422
 20
189.14968757970024
 10
345.695820431942
 20
188.28343122732724
 10
344.62155797276205
 20
187.38764019115422
 10
343.559767410772
 20
186.46349461140022
 10
342.51148327385204
 20
185.5121746282852
 10
341.815843073912
 20
184.85890914711325
 10
341.127088709962
 20
184.19445532252325
 10
340.44547730445197
 20
183.51925601809023
 10
339.77126597987206
 20
182.83375409739222
 10
339.104711858662
 20
182.1383924240062
 10
338.44607206331204
 20
181.4336138615082
 10
337.795603716272
 20
180.7198612734752
 10
337.15356394002197
 20
179.99757752348523
 10
336.520209857022
 20
179.2672054751132
 10
335.89579858974196
 20
178.52918799193822
 10
335.28058726064205
 20
177.7839679375362
 10
334.674832992192
 20
177.03198817548423
 10
334.07879290687197
 20
176.27369156935822
 10
333.49272412713196
 20
175.5095209827362
 10
332.916883775442
 20
174.73991927919423
 10
332.351528974282
 20
173.96532932231025
 10
331.796916846102
 20
173.18619397566022
 10
331.253304513382
 20
172.4029561028222
 10
330.72094909858197
 20
171.61605856737123
 10
330.20010772416197
 20
170.82594423288623
 10
329.69103751261196
 20
170.03305596294223
 10
329.193995586372
 20
169.2378366211172
 10
328.709239067932
 20
168.4407290709882
 10
328.237025079742
 20
167.64217617613224
 10
327.777610744272
 20
166.84262080012525
 10
327.331253184002
 20
166.04250580654423
 10
326.898209521392
 20
165.24227405896625
 10
326.47873687889205
 20
164.44236842096922
 10
326.073092379002
 20
163.64323175612924
 10
325.681533144162
 20
162.8453069280232
 10
325.304316296842
 20
162.0490368002272
 10
324.941698959522
 20
161.2548642363202
 10
324.47282196254196
 20
160.1793940928382
 10
324.032273398042
 20
159.11004327344722
 10
323.62034075933195
 20
158.04819670368522
 10
323.237311539712
 20
156.99523930909322
 10
322.88347323247206
 20
155.95255601521222
 10
322.55911333090205
 20
154.92153174758022
 10
322.26451932831196
 20
153.90355143173923
 10
321.999978717992
 20
152.89999999322822
 10
321.999978717992
 20
152.33467964305396
 10
331.999978717982
 20
152.3346796430535
 10
331.999978717982
 20
147.33467964305424
 10
321.999978717992
 20
147.33467964305322
 10
321.999978717992
 20
145.23149622798422
 10
322.01743243982196
 20
144.57116418020422
 10
322.06974486413196
 20
143.91267617272524
 10
322.15676990346196
 20
143.25787109618722
 10
322.27826453210196
 20
142.60857755629723
 10
322.433889464682
 20
141.96660876726725
 10
322.62321010373205
 20
141.33375748824722
 10
322.845697753282
 20
140.7117910168572
 10
323.10073109531197
 20
140.10244625386724
 10
323.466910442192
 20
139.30728794951722
 10
323.84695033869195
 20
138.51866020454725
 10
324.24073436583205
 20
137.73680460212722
 10
324.64814189434196
 20
136.96196065087724
 10
325.069048121612
 20
136.19436571153722
 10
325.503324109932
 20
135.4342549241872
 10
325.95083682597203
 20
134.68186113630725
 10
326.41144918158204
 20
133.93741483137723
 10
326.88502007571196
 20
133.20114405828724
 10
327.37140443770204
 20
132.4732743615172
 10
327.870453271682
 20
131.75402871198725
 10
328.38201370223203
 20
131.04362743879722
 10
328.90592902123205
 20
130.34228816170724
 10
329.44203873581205
 20
129.6502257244872
 10
329.99017861756204
 20
128.96765212911725
 10
330.55018075284204
 20
128.29477647080722
 10
331.12187359418203
 20
127.63180487395722
 10
331.705082012862
 20
126.97894042903722
 10
332.299627352572
 20
126.33638313033724
 10
332.905327484092
 20
125.70432981475723
 10
333.52199686115205
 20
125.08297410144722
 10
334.14944657719195
 20
124.47250633251723
 10
334.787484423312
 20
123.87311351475724
 10
335.435914947082
 20
123.28497926230723
 10
336.094539512472
 20
122.70828374043724
 10
336.76315636064203
 20
122.14320361035722
 10
337.441560671802
 20
121.58991197508722
 10
338.129544627942
 20
121.04857832643724
 10
338.826897476462
 20
120.51936849307724
 10
339.53340559477203
 20
120.00244458974721
 10
340.248852555702
 20
119.49796496760725
 10
340.973019193842
 20
119.00608416570724
 10
341.70568367260205
 20
118.52695286363722
 10
342.44662155228195
 20
118.06071783542724
 10
343.19560585870204
 20
117.60752190450724
 10
343.95240715283205
 20
117.16750390001722
 10
344.716793601012
 20
116.74079861424723
 10
345.488531046002
 20
116.32753676135722
 10
346.267383078722
 20
115.92784493732724
 10
347.053111110632
 20
115.54184558118722
 10
347.845474446842
 20
115.16965693749724
 10
348.64423035986204
 20
114.81139302013723
 10
349.44913416393206
 20
114.46716357738724
 10
350.25993928999196
 20
114.13707405827724
 10
351.076397361192
 20
113.82122558030723
 10
351.898258269022
 20
113.51971489847723
 10
352.725270249872
 20
113.23263437563723
 10
353.557179962212
 20
112.96007195418723
 10
354.39373256415195
 20
112.70211112915725
 10
355.23467179154204
 20
112.45883092259722
 10
356.079740036452
 20
112.23030585941724
 10
356.928678426112
 20
112.01660594450722
 10
357.78122690217197
 20
111.81779664133724
 10
358.637124300422
 20
111.63393885186723
 10
359.49610843072196
 20
111.46508889791723
 10
360.357916157403
 20
111.31129850389722
 10
361.222283479818
 20
111.17261478095723
 10
362.088945613227
 20
111.04908021259722
 10
362.957637069916
 20
110.94073264158722
 10
363.82809174051897
 20
110.84760525843724
 10
364.70004297553896
 20
110.76972659119723
  0
LWPOLYLINE
  5
41
330
17
100
AcDbEntity
  8
CUT
100
AcDbPolyline
 90
127
 70
1
 10
338.56882848421196
 20
132.8099615364972
 10
337.82220318649195
 20
133.64154938284724
 10
337.82220318649195
 20
166.02362206300722
 10
338.551033281482
 20
167.1170929932972
 10
339.305303024722
 20
168.20496362885825
 10
340.08382204905206
 20
169.2850240924202
 10
340.88539998728197
 20
170.35506450670925
 10
341.70884647223204
 20
171.4128749944532
 10
342.55297113674203
 20
172.45624567837922
 10
343.41658361361203
 20
173.48296668121623
 10
344.29849353568204
 20
174.49082812569122
 10
345.35271298649195
 20
175.6449808016622
 10
346.427279335722
 20
176.7682108873252
 10
347.03812760940195
 20
177.3836866170892
 10
347.65418201827197
 20
177.9879381971702
 10
348.479021539022
 20
178.77156536090024
 10
348.62770069798205
 20
178.90975958371826
 10
349.221397078192
 20
179.4521349517022
 10
349.81914774861195
 20
179.9831718439222
 10
350.420460905642
 20
180.50257812859223
 10
351.024844745672
 20
181.0100616739262
 10
351.63180746509204
 20
181.50533034813924
 10
352.24085726028204
 20
181.9880920194442
 10
352.85150232765204
 20
182.4580545560542
 10
353.46325086357206
 20
182.91492582618423
 10
354.600933154152
 20
183.72790099008023
 10
355.737571064842
 20
184.49282075367023
 10
356.87001027553197
 20
185.2078157697252
 10
357.433669643362
 20
185.54600732642024
 10
357.99509646615195
 20
185.87101669102123
 10
358.808731415642
 20
186.32071783980723
 10
359.615562551602
 20
186.7411857663202
 10
360.414368723414
 20
187.1316981716522
 10
361.203928780444
 20
187.49153275689423
 10
362.09763649076297
 20
187.8668669458982
 10
362.960247536328
 20
188.1964918105142
 10
363.37287291440305
 20
188.3424437320532
 10
363.947896118117
 20
188.53302827427024
 10
364.51346705689105
 20
188.7056911475152
 10
365.076988555556
 20
188.86276032530822
 10
365.63101009518596
 20
189.0022129846502
 10
366.188652622591
 20
189.12715781569324
 10
366.73651584191805
 20
189.2343847441312
 10
367.279035218546
 20
189.32491638643523
 10
367.811769567797
 20
189.39814919064622
 10
368.344282101206
 20
189.45529092819424
 10
368.866769968762
 20
189.4951662129822
 10
369.34888155260205
 20
189.51719035949225
 10
369.82220318648683
 20
189.52447813821226
 10
370.29552482039
 20
189.51719035949122
 10
370.77763640424996
 20
189.49516621298022
 10
371.3001242718
 20
189.4552909281922
 10
371.83263680520304
 20
189.3981491906432
 10
372.36537115445196
 20
189.3249163864312
 10
372.907890531078
 20
189.23438474412723
 10
373.45575375040903
 20
189.12715781568824
 10
374.01339627781806
 20
189.00221298464322
 10
374.56741781743597
 20
188.86276032530424
 10
375.13093931608796
 20
188.70569114751424
 10
375.69651025485996
 20
188.5330282742692
 10
376.271533458573
 20
188.34244373205223
 10
376.68415883666
 20
188.19649181051022
 10
377.546769882284
 20
187.86686694586723
 10
378.440477592541
 20
187.49153275689025
 10
379.230037650075
 20
187.13169817141022
 10
380.028843822407
 20
186.74118576580122
 10
380.83567495889804
 20
186.32071783897322
 10
381.64930990891
 20
185.8710166898382
 10
382.210736731579
 20
185.5460073252662
 10
382.77439609927706
 20
185.2078157686082
 10
383.906835309715
 20
184.49282075264523
 10
385.04347322013496
 20
183.7279009891762
 10
386.181155510445
 20
182.91492582542423
 10
386.79290404623896
 20
182.45805455536822
 10
387.403549113474
 20
181.9880920188382
 10
388.01259890854
 20
181.50533034761924
 10
388.61956162782906
 20
181.01006167349823
 10
389.223945467729
 20
180.5025781282602
 10
389.82525862463297
 20
179.98317184369222
 10
390.42300929493
 20
179.45213495157924
 10
391.01670567501094
 20
178.90975958370723
 10
391.16538483538704
 20
178.77156535956323
 10
391.99022435576205
 20
177.98793819615122
 10
392.606278764109
 20
177.38368661656824
 10
393.217127037261
 20
176.7682108873202
 10
394.29169338649206
 20
175.64498080166322
 10
395.34591283729594
 20
174.49082812569725
 10
396.227822759364
 20
173.48296668122123
 10
397.091435236238
 20
172.45624567838422
 10
397.93555990074196
 20
171.41287499445622
 10
398.75900638569794
 20
170.35506450671124
 10
399.560584323929
 20
169.28502409242122
 10
400.339103348255
 20
168.20496362885922
 10
401.0933730915
 20
167.1170929932972
 10
401.82220318648695
 20
166.0236220630062
 10
401.82220318649195
 20
133.64154938285725
 10
401.075577888771
 20
132.80996153650722
 10
400.30657390751503
 20
131.99902346352724
 10
399.51576213291
 20
131.20933718496724
 10
398.703729644723
 20
130.44148894506725
 10
397.87107927647605
 20
129.6960487759972
 10
397.01842916790997
 20
128.97357007474722
 10
396.146412306097
 20
128.27458919223722
 10
395.25567605552294
 20
127.59962503518723
 10
394.34688167750096
 20
126.94917868084723
 10
393.420703839266
 20
126.32373300506724
 10
392.47783011312004
 20
125.72375232375724
 10
391.518960465992
 20
125.14968204825722
 10
390.54480673980197
 20
124.60194835461722
 10
389.55609212300396
 20
124.08095786724722
 10
388.55355061370904
 20
123.58709735704723
 10
387.537926474781
 20
123.12073345425723
 10
352.106479898242
 20
123.12073345423723
 10
351.09085575931203
 20
123.58709735702722
 10
350.088314250012
 20
124.08095786722721
 10
349.09959963321205
 20
124.60194835459724
 10
348.125445907022
 20
125.14968204823724
 10
347.16657625989205
 20
125.72375232373723
 10
346.22370253374197
 20
126.32373300503723
 10
345.29752469550203
 20
126.94917868082722
 10
344.388730317482
 20
127.59962503516722
 10
343.49799406690204
 20
128.2745891922272
 10
342.625977205092
 20
128.9735700747272
 10
341.77332709652205
 20
129.6960487759772
 10
340.940676728272
 20
130.44148894504724
 10
340.12864424008205
 20
131.20933718495723
 10
339.33783246547205
 20
131.99902346351723
  0
TEXT
  5
42
330
17
100
AcDbEntity
  8
LABELS_NOT_CUT
100
AcDbText
 10
409.527396614934
 20
154.41254158965074
 30
0.0
 40
2.0
  1
A16
100
AcDbText
  0
LWPOLYLINE
  5
43
330
17
100
AcDbEntity
  8
CUT
100
AcDbPolyline
 90
158
 70
1
 10
566.3479172581187
 20
121.72034642412802
 10
568.9047016591798
 20
122.27790801329337
 10
571.4863351234794
 20
122.85131042203074
 10
576.5358445225892
 20
124.00078698721433
 10
527.5486696838292
 20
124.08078315409688
 10
478.5615175555122
 20
124.17383889501735
 10
469.78838317783914
 20
124.19781388820263
 10
462.7122567255051
 20
124.20711608585333
 10
458.87965298546516
 20
124.19099655574212
 10
454.70505164606016
 20
124.14707505111033
 10
452.4867461083171
 20
124.11197766081716
 10
450.23279607624914
 20
124.0648781406286
 10
446.75023761211617
 20
123.96689663117712
 10
444.7166121779272
 20
123.89364699378177
 10
442.7634880886782
 20
123.81074803322082
 10
440.92338259276613
 20
123.72030215484898
 10
439.2184969642432
 20
123.62491074357308
 10
436.2389955503561
 20
123.42945228060648
 10
434.2277858318941
 20
123.27326334927045
 10
432.2071867437962
 20
123.0998191581773
 10
431.0473720229631
 20
122.99222891459158
 10
429.91011072849017
 20
122.87292280596517
 10
428.79576744684516
 20
122.73693918601305
 10
427.70469256222805
 20
122.57931593909575
 10
426.6831669668731
 20
122.39905825818329
 10
425.49219712579406
 20
122.16051355143549
 10
424.3038690676384
 20
121.90124179481103
 10
423.29026882105416
 20
121.65880296427298
 10
422.86149811416897
 20
121.54232276169665
 10
422.644427654996
 20
121.47614091221988
 10
422.8714815847881
 20
121.27033227639402
 10
423.01344074481017
 20
121.14448383770309
 10
423.15131267718607
 20
121.02418222130098
 10
423.4093417978801
 20
120.80381951559303
 10
423.6346342638132
 20
120.61645471674115
 10
423.8162548127601
 20
120.46929859079904
 10
424.01426622404915
 20
120.31286889516207
 10
424.2162017343111
 20
120.15706794786797
 10
424.4238080474462
 20
120.00120395635514
 10
424.6388451675441
 20
119.84458025944201
 10
424.86304741687013
 20
119.68650957537011
 10
424.97912399191415
 20
119.60671809617804
 10
425.1588421168342
 20
119.48583522435814
 10
425.34594203835815
 20
119.36325708653408
 10
425.6081090252992
 20
119.19669850083716
 10
425.78247879300517
 20
119.08907729519711
 10
425.96388923585016
 20
118.97968919548305
 10
426.2172769933972
 20
118.83110828857912
 10
426.4163963252901
 20
118.71762716877998
 10
426.62365450689117
 20
118.60240446325304
 10
426.8453310022392
 20
118.48225918646415
 10
427.0762817585062
 20
118.3602980193001
 10
427.3168612621741
 20
118.236530157826
 10
427.5674234462112
 20
118.11096499931114
 10
427.82832229820514
 20
117.98361191996207
 10
428.09991181583223
 20
117.85448029120317
 10
428.3825459962252
 20
117.72357948356716
 10
428.67657882629805
 20
117.59091887023686
 10
428.98236424469815
 20
117.4565078409521
 10
429.3002569799742
 20
117.32035549567223
 10
429.80057938665715
 20
117.11287967830509
 10
430.15028653878414
 20
116.97241597238207
 10
430.5133398251521
 20
116.83024378899694
 10
431.08367684211316
 20
116.61381821672114
 10
431.6511623643151
 20
116.40604190537294
 10
432.0247219018831
 20
116.2750834974459
 10
432.4058044715522
 20
116.14402717827812
 10
432.7566421074991
 20
116.02549502384682
 10
433.2104607347821
 20
115.87510798310996
 10
433.5850847355492
 20
115.7533951323432
 10
433.96930998128016
 20
115.630787324631
 10
434.3624527793591
 20
115.50760922114995
 10
434.8031496483932
 20
115.37219920994704
 10
435.2659873986162
 20
115.23294356705009
 10
435.6184317512291
 20
115.12888759106687
 10
436.09436311749715
 20
114.99103278494403
 10
436.45503487023717
 20
114.88855542404616
 10
436.8181877438161
 20
114.78707272085188
 10
437.30506326674407
 20
114.65364038045175
 10
438.0375709668861
 20
114.45842467024193
 10
438.5247644813531
 20
114.33217387476685
 10
439.0088252688041
 20
114.20950743125684
 10
439.48777128974814
 20
114.0908055922261
 10
439.9010375661211
 20
113.99047933470985
 10
440.7614129008092
 20
113.78773420664936
 10
441.6277215647191
 20
113.59178700581577
 10
442.14353806800716
 20
113.47890391148906
 10
442.5580795689901
 20
113.39009741868972
 10
443.4005563637891
 20
113.21475804361785
 10
444.2607432364311
 20
113.04269441614565
 10
445.13845418517707
 20
112.87419767030366
 10
446.03348887820715
 20
112.70955860328093
 10
446.9456431118841
 20
112.54906256888808
 10
447.8746990242442
 20
112.39299399785835
 10
448.8204308136592
 20
112.24163280086617
 10
449.7612007291882
 20
112.09842895176024
 10
450.6505239305342
 20
111.96968046518629
 10
451.5531332741891
 20
111.84547024886797
 10
452.07746432471913
 20
111.77627492662793
 10
452.52703773639814
 20
111.71885054776305
 10
453.42957738272014
 20
111.60874081742469
 10
454.33437539005513
 20
111.50527496406687
 10
455.24000649604716
 20
111.40860625257108
 10
456.14503336299117
 20
111.31881593206708
 10
456.98598539994816
 20
111.24139721723799
 10
457.9379251736822
 20
111.16061560128105
 10
458.8844113187411
 20
111.08733622950899
 10
459.8236729260401
 20
111.02134574797805
 10
460.75384813950916
 20
110.96236995608501
 10
461.6729558513572
 20
110.91008290175205
 10
462.57903110833513
 20
110.86410828632
 10
463.4866875695142
 20
110.82333211522001
 10
464.63718089359713
 20
110.77881486706804
 10
465.56911577019815
 20
110.74827152173572
 10
466.7467575826662
 20
110.71622782651605
 10
467.6976889720112
 20
110.69529891862004
 10
468.89537478052915
 20
110.67468760016902
 10
470.1006187267252
 20
110.65981410831603
 10
471.31047246464914
 20
110.65016940607904
 10
472.54686861899813
 20
110.64514817761801
 10
473.8182994158757
 20
110.64444893701602
 10
473.82393048124413
 20
117.42454589515876
 10
478.8239287572158
 20
117.42039375455306
 10
478.81834041623915
 20
110.67543861204251
 10
480.95792781280613
 20
110.70514810643061
 10
483.0634610918652
 20
110.74562015583189
 10
485.16502726711013
 20
110.79825575109936
 10
487.33923990677914
 20
110.86629827903994
 10
489.3386643349012
 20
110.94167321209261
 10
491.32170113369716
 20
111.02880778310373
 10
493.2483780653281
 20
111.12534362452499
 10
495.1254268163592
 20
111.23066717102148
 10
497.2703242360192
 20
111.36494248731788
 10
499.46786282023913
 20
111.51757628793501
 10
501.6577656061091
 20
111.68436315639002
 10
503.77162440466924
 20
111.85870761985211
 10
505.8076977377992
 20
112.03851681896975
 10
507.899671911259
 20
112.23538358567748
 10
510.0426958715592
 20
112.44929590435856
 10
512.2200022288596
 20
112.67878928543405
 10
512.2252727460491
 20
119.02476739622
 10
517.2252710220155
 20
119.02061525561504
 10
517.220477212199
 20
113.24861772563736
 10
519.4378312119494
 20
113.51982922426521
 10
521.689101629139
 20
113.80725989824867
 10
523.9117597045891
 20
114.1028946214218
 10
526.0591124373192
 20
114.39934662829972
 10
529.9108439028688
 20
114.95888378834826
 10
533.7968647749188
 20
115.55797138125592
 10
537.2494886445493
 20
116.11745357543577
 10
540.833669869879
 20
116.72538870465792
 10
544.4142434479095
 20
117.35846156691747
 10
547.8559001618086
 20
117.98928065135613
 10
551.4190796879598
 20
118.66542886751506
 10
554.9808550080588
 20
119.36290987394284
 10
558.4454677744397
 20
120.0604434762123
 10
561.9872231233385
 20
120.79270633261825
 10
564.4196184178795
 20
121.30655002490357
  0
LWPOLYLINE
  5
44
330
17
100
AcDbEntity
  8
CUT
100
AcDbPolyline
 90
117
 70
1
 10
486.793466947174
 20
119.69327773664452
 10
487.0314528352702
 20
119.75289009832181
 10
487.27413578948614
 20
119.78888871399454
 10
487.5191786403102
 20
119.80092689731305
 10
493.07443266140376
 20
119.80092689731259
 10
493.1265067871533
 20
119.86338560895092
 10
493.1671510900313
 20
119.90935088868486
 10
493.20891119604096
 20
119.95430486340922
 10
493.2735882798965
 20
120.01978056477674
 10
493.3180264089307
 20
120.06208918074753
 10
493.38659679603495
 20
120.12347561783332
 10
493.48144992696734
 20
120.20131957063285
 10
493.55503425977815
 20
120.25659649719807
 10
493.60519937646
 20
120.29192675852931
 10
493.7080546967231
 20
120.35884148433018
 10
493.76068294410504
 20
120.39038564187126
 10
493.841037061354
 20
120.4352566624384
 10
493.9506411698434
 20
120.4904267343756
 10
494.0628203225061
 20
120.54015233284514
 10
494.11979131208216
 20
120.56293549865393
 10
494.206253173013
 20
120.59447181501844
 10
494.3232296799563
 20
120.63152980010568
 10
494.3823647544082
 20
120.64789467917893
 10
494.4717758030268
 20
120.66970882666487
 10
494.59212418150923
 20
120.69364760753825
 10
494.6527027172791
 20
120.70339477647957
 10
494.74397338517906
 20
120.71522092657335
 10
494.8050356225492
 20
120.72123503202357
 10
494.8968597175991
 20
120.72744214207995
 10
495.0195289034191
 20
120.73045350156696
 10
495.14219808922917
 20
120.72744214208058
 10
495.23402218427907
 20
120.7212350320238
 10
495.29508442164905
 20
120.7152209265721
 10
495.3559806746793
 20
120.7077100901372
 10
495.44693362531905
 20
120.69364760753882
 10
495.5672820038093
 20
120.66970882666345
 10
495.6566930524291
 20
120.64789467917893
 10
495.71582812687876
 20
120.63152980010483
 10
495.83280463381914
 20
120.59447181501793
 10
495.91926649474965
 20
120.5629354986554
 10
495.97623748432886
 20
120.54015233284446
 10
496.0884166369892
 20
120.49042673437617
 10
496.19802074547925
 20
120.43525666243829
 10
496.2783748627286
 20
120.39038564187013
 10
496.3310031101081
 20
120.35884148432848
 10
496.4338584303718
 20
120.29192675853284
 10
496.484023547059
 20
120.25659649719785
 10
496.55760787986816
 20
120.20131957063182
 10
496.6524610107974
 20
120.1234756178311
 10
496.7210313979018
 20
120.06208918075089
 10
496.7654695269364
 20
120.01978056477338
 10
496.83014661078937
 20
119.9543048634103
 10
496.87190671679986
 20
119.90935088868468
 10
496.91255101967977
 20
119.86338560895155
 10
496.9646251454292
 20
119.80092689731305
 10
500.51917883401916
 20
119.80092689731237
 10
500.7642216848393
 20
119.78888871399488
 10
501.0069046390587
 20
119.75289009832017
 10
501.2448905271496
 20
119.69327773664537
 10
501.4758874149288
 20
119.61062572859146
 10
501.6976706760779
 20
119.50573005818296
 10
501.90810441655924
 20
119.37960092807026
 10
502.1051620444201
 20
119.23345303072216
 10
502.286945786979
 20
119.06869385027994
 10
502.45170496741963
 20
118.8869101077234
 10
502.59785286477324
 20
118.68985247986546
 10
502.7239819948829
 20
118.47941873937611
 10
502.8288776652962
 20
118.25763547822856
 10
502.9115296733421
 20
118.02663859044827
 10
502.97114203502673
 20
117.7886527023552
 10
503.0071406506996
 20
117.54596974813808
 10
503.01917883401865
 20
117.30092689731407
 10
503.0071406506917
 20
117.05588404649114
 10
502.971142035026
 20
116.81320109227136
 10
502.9115296733424
 20
116.57521520418044
 10
502.82887766529507
 20
116.34421831639827
 10
502.7239819948851
 20
116.12243505525146
 10
502.5978528647687
 20
115.9120013147654
 10
502.4517049674198
 20
115.71494368690446
 10
502.28694578697764
 20
115.53315994434865
 10
502.1051620444195
 20
115.36840076390655
 10
501.90810441656
 20
115.22225286655566
 10
501.69767067607984
 20
115.0961237364416
 10
501.4758874149287
 20
114.99122806603634
 10
501.2448905271494
 20
114.90857605798209
 10
501.00690463905914
 20
114.84896369630587
 10
500.7642216848391
 20
114.81296508063338
 10
500.51917883401916
 20
114.80092689731407
 10
487.51917864031014
 20
114.8009268973135
 10
487.27413578948625
 20
114.81296508063377
 10
487.03145283527
 20
114.84896369630559
 10
486.7934669471741
 20
114.908576057983
 10
486.56247005939827
 20
114.99122806603532
 10
486.340686798245
 20
115.09612373644268
 10
486.1302530577615
 20
115.22225286655754
 10
485.93319542990105
 20
115.36840076390695
 10
485.7514116873448
 20
115.53315994434763
 10
485.58665250690365
 20
115.71494368690469
 10
485.4405046095538
 20
115.91200131476484
 10
485.3143754794393
 20
116.12243505524913
 10
485.2094798090325
 20
116.34421831640117
 10
485.1268278009794
 20
116.57521520417788
 10
485.0672154393026
 20
116.81320109227312
 10
485.0312168236297
 20
117.05588404649001
 10
485.01917864031066
 20
117.30092689731401
 10
485.0312168236299
 20
117.54596974813808
 10
485.06721543930263
 20
117.78865270235394
 10
485.1268278009801
 20
118.02663859045009
 10
485.2094798090316
 20
118.25763547822629
 10
485.3143754794395
 20
118.47941873937884
 10
485.44050460955395
 20
118.68985247986319
 10
485.58665250690353
 20
118.88691010772266
 10
485.75141168734376
 20
119.06869385028051
 10
485.9331954299013
 20
119.23345303072091
 10
486.1302530577609
 20
119.37960092807043
 10
486.34068679824543
 20
119.50573005818455
 10
486.56247005939815
 20
119.61062572859203
  0
LWPOLYLINE
  5
45
330
17
100
AcDbEntity
  8
CUT
100
AcDbPolyline
 90
50
 70
1
 10
457.4735034293932
 20
117.66845373881608
 10
457.4537901826793
 20
117.9817868227268
 10
457.39496133221473
 20
118.2901784567282
 10
457.2979446441138
 20
118.58876512052774
 10
457.1642701295028
 20
118.87283792407032
 10
456.9960459153305
 20
119.13791686954727
 10
456.7959249979467
 20
119.3798215036378
 10
456.5670634037649
 20
119.5947368457555
 10
456.3130704168407
 20
119.77927355257111
 10
456.0379516583058
 20
119.93052136998108
 10
455.7460459153305
 20
120.04609502955395
 10
455.4419567158575
 20
120.12417186563778
 10
455.1304797282164
 20
120.16352055988676
 10
454.81652713056985
 20
120.16352055988676
 10
454.50505014292884
 20
120.12417186563778
 10
454.2009609434558
 20
120.04609502955395
 10
453.90905520048045
 20
119.93052136998114
 10
453.63393644194565
 20
119.77927355257111
 10
453.3799434550214
 20
119.5947368457555
 10
453.1510818608396
 20
119.3798215036378
 10
452.9509609434558
 20
119.13791686954721
 10
452.7827367292835
 20
118.87283792407032
 10
452.64906221467254
 20
118.58876512052774
 10
452.5520455265716
 20
118.2901784567282
 10
452.49321667610695
 20
117.9817868227268
 10
452.47350342939313
 20
117.66845373881608
 10
452.49321667610695
 20
117.3551206549053
 10
452.5520455265716
 20
117.04672902090391
 10
452.64906221467254
 20
116.74814235710437
 10
452.7827367292835
 20
116.46406955356179
 10
452.9509609434558
 20
116.1989906080849
 10
453.1510818608396
 20
115.95708597399431
 10
453.3799434550214
 20
115.7421706318766
 10
453.63393644194565
 20
115.557633925061
 10
453.90905520048045
 20
115.40638610765103
 10
454.2009609434558
 20
115.29081244807816
 10
454.50505014292884
 20
115.21273561199433
 10
454.81652713056985
 20
115.1733869177454
 10
455.1304797282164
 20
115.1733869177454
 10
455.4419567158575
 20
115.21273561199433
 10
455.7460459153305
 20
115.29081244807816
 10
456.0379516583058
 20
115.40638610765103
 10
456.3130704168407
 20
115.55763392506105
 10
456.5670634037649
 20
115.7421706318766
 10
456.7959249979467
 20
115.95708597399437
 10
456.9960459153305
 20
116.1989906080849
 10
457.1642701295028
 20
116.46406955356179
 10
457.2979446441138
 20
116.74814235710437
 10
457.39496133221473
 20
117.04672902090391
 10
457.4537901826793
 20
117.3551206549053
  0
TEXT
  5
46
330
17
100
AcDbEntity
  8
LABELS_NOT_CUT
100
AcDbText
 10
531.0429692240598
 20
117.44052686805543
 30
0.0
 40
2.0
  1
A24_R
100
AcDbText
  0
LWPOLYLINE
  5
47
330
17
100
AcDbEntity
  8
CUT
100
AcDbPolyline
 90
48
 70
1
 10
103.19441994511897
 20
128.8393607684735
 10
103.54767644465664
 20
129.5234315555216
 10
103.89036175529395
 20
130.21285869019346
 10
104.22239468351404
 20
130.9074788243135
 10
104.54369655968901
 20
131.6071273793035
 10
104.79872990172896
 20
132.21647214229347
 10
105.021217551277
 20
132.83843861368348
 10
105.210538190325
 20
133.4712898927035
 10
105.36616312290903
 20
134.1132586817285
 10
105.48765775154595
 20
134.7625522216195
 10
105.57468279088198
 20
135.4173572981565
 10
105.62699521518505
 20
136.0758453056365
 10
105.64444893701398
 20
136.73617735341548
 10
105.64444893701398
 20
138.83936076846948
 10
95.14444293855604
 20
138.8393607684705
 10
95.14444293855604
 20
143.83936076847135
 10
100.32222446850596
 20
143.8393607684714
 10
100.32222446850596
 20
153.8393607684725
 10
15.322181240579994
 20
153.8393607684725
 10
15.322181240579994
 20
143.8393607684667
 10
20.499994001540017
 20
143.83936076847237
 10
20.499994001540017
 20
138.8393607684725
 10
10.0
 20
138.8393607684735
 10
10.000000000010004
 20
136.73617735340247
 10
10.017453721839956
 20
136.07584530562247
 10
10.06976614614996
 20
135.4173572981435
 10
10.15679118547996
 20
134.76255222160648
 10
10.278285814119954
 20
134.1132586817165
 10
10.433910746700008
 20
133.4712898926935
 10
10.623231385750046
 20
132.83843861366347
 10
10.845719035300021
 20
132.21647214228346
 10
11.100752377329968
 20
131.6071273792935
 10
11.422054253510055
 20
130.9074788243035
 10
11.754087181730029
 20
130.2128586901835
 10
12.09677249236995
 20
129.52343155551347
 10
12.450028991900012
 20
128.83936076848346
 10
24.950028991900012
 20
128.8393607684735
 10
24.950028991900012
 20
133.8393607684735
 10
36.95002899190001
 20
133.8393607684735
 10
36.95002899190001
 20
128.83936076848346
 10
51.82221847007497
 20
128.8393607684735
 10
51.82221847007497
 20
133.8393607684735
 10
63.82221847007497
 20
133.8393607684735
 10
63.82221847007497
 20
128.8393607684735
 10
78.69441994511897
 20
128.8393607684735
 10
78.69441994511897
 20
133.8393607684735
 10
90.69441994511897
 20
133.8393607684735
 10
90.69441994511897
 20
128.8393607684735
  0
TEXT
  5
48
330
17
100
AcDbEntity
  8
LABELS_NOT_CUT
100
AcDbText
 10
57.82221847004803
 20
141.3393607684701
 30
0.0
 40
2.0
  1
A48
100
AcDbText
  0
LWPOLYLINE
  5
49
330
17
100
AcDbEntity
  8
CUT
100
AcDbPolyline
 90
28
 70
1
 10
113.14444893701398
 20
146.5393607684735
 10
110.64444893701398
 20
146.5393607684735
 10
110.64444893701398
 20
134.83936263111352
 10
113.14444893701398
 20
134.83936263111352
 10
113.14444893701398
 20
128.83936263111352
 10
125.14444893701398
 20
128.83936263111352
 10
125.14444893701398
 20
134.83936263111352
 10
140.01663841518905
 20
134.83936263111352
 10
140.01663841518894
 20
128.8393607684735
 10
152.01663841518894
 20
128.8393607684735
 10
152.01663841518894
 20
134.83936263111352
 10
166.88883989023304
 20
134.83936263111352
 10
166.88883989023293
 20
128.8393607684735
 10
178.88883989023293
 20
128.8393607684735
 10
178.88883989023293
 20
134.83936263111352
 10
183.38883989023293
 20
134.83936263111352
 10
183.38883989023293
 20
146.5393607684735
 10
178.88883989023293
 20
146.5393607684735
 10
178.88883989023293
 20
151.5393607684735
 10
166.88883989023293
 20
151.5393607684735
 10
166.88883989023293
 20
146.5393607684735
 10
152.01663841518894
 20
146.5393607684735
 10
152.01663841518894
 20
151.5393607684735
 10
140.01663841518894
 20
151.5393607684735
 10
140.01663841518894
 20
146.5393607684735
 10
125.14444893701398
 20
146.5393607684735
 10
125.14444893701398
 20
151.53935890582352
 10
113.14444893701398
 20
151.53935890582352
  0
LWPOLYLINE
  5
4A
330
17
100
AcDbEntity
  8
CUT
100
AcDbPolyline
 90
32
 70
1
 10
169.83886288366898
 20
140.1893607684735
 10
169.8196481640722
 20
140.38445109048965
 10
169.76274241618023
 20
140.5720442008386
 10
169.67033249597148
 20
140.74493100149311
 10
169.54596966485553
 20
140.89646754966006
 10
169.39443311668856
 20
141.02083038077606
 10
169.22154631603405
 20
141.11324030098478
 10
169.03395320568507
 20
141.17014604887675
 10
168.83886288366898
 20
141.1893607684735
 10
168.6437725616529
 20
141.17014604887675
 10
168.4561794513039
 20
141.11324030098478
 10
168.2832926506494
 20
141.02083038077606
 10
168.13175610248243
 20
140.89646754966006
 10
168.00739327136648
 20
140.74493100149311
 10
167.91498335115773
 20
140.5720442008386
 10
167.85807760326577
 20
140.38445109048965
 10
167.83886288366898
 20
140.1893607684735
 10
167.85807760326577
 20
139.99427044645736
 10
167.91498335115773
 20
139.8066773361084
 10
168.00739327136648
 20
139.6337905354539
 10
168.13175610248243
 20
139.48225398728695
 10
168.2832926506494
 20
139.35789115617095
 10
168.4561794513039
 20
139.26548123596223
 10
168.6437725616529
 20
139.20857548807027
 10
168.83886288366898
 20
139.1893607684735
 10
169.03395320568507
 20
139.20857548807027
 10
169.22154631603405
 20
139.26548123596223
 10
169.39443311668856
 20
139.35789115617095
 10
169.54596966485553
 20
139.48225398728695
 10
169.67033249597148
 20
139.6337905354539
 10
169.76274241618023
 20
139.8066773361084
 10
169.8196481640722
 20
139.9942704464574
  0
LWPOLYLINE
  5
4B
330
17
100
AcDbEntity
  8
CUT
100
AcDbPolyline
 90
32
 70
1
 10
124.19441495615399
 20
140.1893607684735
 10
124.1752002365572
 20
140.38445109048965
 10
124.11829448866524
 20
140.5720442008386
 10
124.02588456845649
 20
140.74493100149311
 10
123.90152173734054
 20
140.89646754966006
 10
123.74998518917357
 20
141.02083038077606
 10
123.57709838851906
 20
141.11324030098478
 10
123.38950527817008
 20
141.17014604887675
 10
123.19441495615399
 20
141.1893607684735
 10
122.9993246341379
 20
141.17014604887675
 10
122.81173152378892
 20
141.11324030098478
 10
122.63884472313441
 20
141.02083038077606
 10
122.48730817496744
 20
140.89646754966006
 10
122.36294534385138
 20
140.74493100149311
 10
122.27053542364274
 20
140.5720442008386
 10
122.21362967575078
 20
140.38445109048965
 10
122.19441495615399
 20
140.1893607684735
 10
122.21362967575078
 20
139.99427044645736
 10
122.27053542364274
 20
139.8066773361084
 10
122.36294534385138
 20
139.6337905354539
 10
122.48730817496744
 20
139.48225398728695
 10
122.63884472313441
 20
139.35789115617095
 10
122.81173152378892
 20
139.26548123596223
 10
122.9993246341379
 20
139.20857548807027
 10
123.19441495615399
 20
139.1893607684735
 10
123.38950527817008
 20
139.20857548807027
 10
123.57709838851906
 20
139.26548123596223
 10
123.74998518917357
 20
139.35789115617095
 10
123.90152173734054
 20
139.48225398728695
 10
124.02588456845649
 20
139.6337905354539
 10
124.11829448866524
 20
139.8066773361084
 10
124.1752002365572
 20
139.9942704464574
  0
TEXT
  5
4C
330
17
100
AcDbEntity
  8
LABELS_NOT_CUT
100
AcDbText
 10
146.0166389199115
 20
140.28690592948158
 30
0.0
 40
2.0
  1
A47
100
AcDbText
  0
LWPOLYLINE
  5
4D
330
17
100
AcDbEntity
  8
CUT
100
AcDbPolyline
 90
4
 70
1
 10
188.38883989023293
 20
128.8393607684735
 10
288.38883989023293
 20
128.8393607684735
 10
288.38883989023293
 20
134.8393586991397
 10
188.38883989023293
 20
134.8393586991397
  0
TEXT
  5
4E
330
17
100
AcDbEntity
  8
LABELS_NOT_CUT
100
AcDbText
 10
238.38883989023293
 20
131.8393597338066
 30
0.0
 40
2.0
  1
A07_L_D2
100
AcDbText
  0
LWPOLYLINE
  5
4F
330
17
100
AcDbEntity
  8
CUT
100
AcDbPolyline
 90
31
 70
1
 10
433.3370139587197
 20
141.95824179475608
 10
428.37183568106855
 20
137.50267176653944
 10
422.644427654996
 20
138.130034328722
 10
422.6476616174152
 20
134.2351977770707
 10
428.34486985214176
 20
134.24431437590067
 10
433.3499566006461
 20
129.25231789491693
 10
433.3500026445886
 20
129.20711608585333
 10
493.3441407286696
 20
129.31981134101898
 10
493.3497606979788
 20
129.47519646187766
 10
488.94463036849754
 20
130.67451369419013
 10
486.2708368606428
 20
131.38891253047177
 10
483.3114984231894
 20
132.16498228278135
 10
480.08807053049054
 20
132.99160602807814
 10
476.62200865690966
 20
133.85766684332322
 10
472.9347682767892
 20
134.75204780547284
 10
469.0478048645033
 20
135.66363199148896
 10
464.9825738944039
 20
136.58130247832457
 10
462.8898129109016
 20
137.0389460461043
 10
460.7605308408358
 20
137.4939423429484
 10
458.59740961849593
 20
137.94490175347727
 10
456.4031311781707
 20
138.39043466231135
 10
454.18037745416075
 20
138.82915145407446
 10
451.93183038076324
 20
139.25966251337832
 10
449.660171892259
 20
139.68057822485122
 10
447.36808392296564
 20
140.0905089731063
 10
445.0582484071534
 20
140.4880651427676
 10
442.7333472791314
 20
140.87185711845473
 10
440.39606247318864
 20
141.24049528478616
 10
438.04907592362395
 20
141.59259002638373
 10
435.6950695647363
 20
141.92675172786147
 10
433.33672533078993
 20
142.24159077384775
  0
LWPOLYLINE
  5
50
330
17
100
AcDbEntity
  8
CUT
100
AcDbPolyline
 90
32
 70
1
 10
443.44623881889345
 20
134.9482020499904
 10
443.42702409929666
 20
135.14329237200656
 10
443.3701183514048
 20
135.33088548235554
 10
443.27770843119606
 20
135.50377228301005
 10
443.15334560008
 20
135.65530883117697
 10
443.001809051913
 20
135.77967166229297
 10
442.8289222512585
 20
135.87208158250172
 10
442.64132914090965
 20
135.92898733039368
 10
442.44623881889345
 20
135.9482020499904
 10
442.25114849687736
 20
135.92898733039368
 10
442.0635553865284
 20
135.87208158250172
 10
441.89066858587387
 20
135.77967166229297
 10
441.7391320377069
 20
135.65530883117697
 10
441.61476920659095
 20
135.50377228301005
 10
441.5223592863822
 20
135.33088548235554
 10
441.46545353849024
 20
135.14329237200656
 10
441.44623881889345
 20
134.9482020499904
 10
441.46545353849024
 20
134.75311172797427
 10
441.5223592863822
 20
134.56551861762534
 10
441.61476920659095
 20
134.39263181697083
 10
441.7391320377069
 20
134.24109526880386
 10
441.89066858587387
 20
134.11673243768786
 10
442.0635553865284
 20
134.02432251747916
 10
442.25114849687736
 20
133.9674167695872
 10
442.44623881889345
 20
133.9482020499904
 10
442.64132914090965
 20
133.9674167695872
 10
442.8289222512585
 20
134.02432251747916
 10
443.001809051913
 20
134.11673243768786
 10
443.15334560008
 20
134.24109526880386
 10
443.27770843119606
 20
134.39263181697083
 10
443.3701183514048
 20
134.56551861762534
 10
443.42702409929666
 20
134.75311172797427
  0
TEXT
  5
51
330
17
100
AcDbEntity
  8
LABELS_NOT_CUT
100
AcDbText
 10
455.9316432678637
 20
135.72165182689096
 30
0.0
 40
2.0
  1
A10_R
100
AcDbText
  0
LWPOLYLINE
  5
52
330
17
100
AcDbEntity
  8
CUT
100
AcDbPolyline
 90
24
 70
1
 10
572.436509863873
 20
24.997702480821204
 10
574.5729325369009
 20
24.90153775576323
 10
576.7929674001649
 20
24.787565468944194
 10
577.830127904143
 20
24.729373311823224
 10
578.8816902037739
 20
24.66718400531323
 10
581.782041001052
 20
24.47887896034223
 10
584.8099495713519
 20
24.256596807601227
 10
585.9252494711419
 20
24.1682862053932
 10
587.024502381292
 20
24.07794484938222
 10
587.744556962712
 20
24.01701900253221
 10
590.520571410162
 20
23.769482648213227
 10
591.929554733802
 20
23.636273352638227
 10
593.363709133042
 20
23.495592867807204
 10
596.2909722973819
 20
23.193117012477217
 10
597.0619616910241
 20
23.10822344195651
 10
597.0626538631419
 20
22.274812041984205
 10
597.0728051161519
 20
10.052172955007222
 10
590.076628862912
 20
10.039303052555226
 10
574.6648118974989
 20
10.015535993734204
 10
565.6728378360548
 20
10.0
 10
565.672808476941
 20
10.035349907148202
 10
565.6601999041
 20
25.216730473708196
 10
566.824725835843
 20
25.18850640366719
 10
570.208314401443
 20
25.08391972059121
  0
CIRCLE
  5
53
330
17
100
AcDbEntity
  8
CUT
100
AcDbCircle
 10
580.8620066363819
 20
16.933016859594204
 30
0.0
 40
2.5
  0
TEXT
  5
54
330
17
100
AcDbEntity
  8
LABELS_NOT_CUT
100
AcDbText
 10
590.1708902625637
 20
17.58761418668479
 30
0.0
 40
2.0
  1
A01_L
100
AcDbText
  0
LWPOLYLINE
  5
55
330
17
100
AcDbEntity
  8
REFERENCE_NOT_CUT
100
AcDbPolyline
 90
4
 70
1
 10
0.0
 20
0.0
 10
609.6
 20
0.0
 10
609.6
 20
228.6
 10
0.0
 20
228.6
  0
ENDSEC
  0
SECTION
  2
OBJECTS
  0
DICTIONARY
  5
A
330
0
100
AcDbDictionary
281
1
  3
ACAD_COLOR
350
B
  3
ACAD_GROUP
350
C
  3
ACAD_LAYOUT
350
D
  3
ACAD_MATERIAL
350
E
  3
ACAD_MLEADERSTYLE
350
F
  3
ACAD_MLINESTYLE
350
10
  3
ACAD_PLOTSETTINGS
350
11
  3
ACAD_PLOTSTYLENAME
350
12
  3
ACAD_SCALELIST
350
14
  3
ACAD_TABLESTYLE
350
15
  3
ACAD_VISUALSTYLE
350
16
  3
EZDXF_META
350
2D
  0
DICTIONARY
  5
B
330
A
100
AcDbDictionary
281
1
  0
DICTIONARY
  5
C
330
A
100
AcDbDictionary
281
1
  0
DICTIONARY
  5
D
330
A
100
AcDbDictionary
281
1
  3
Model
350
1A
  3
Layout1
350
1E
  0
DICTIONARY
  5
E
330
A
100
AcDbDictionary
281
1
  3
ByBlock
350
1F
  3
ByLayer
350
20
  3
Global
350
21
  0
DICTIONARY
  5
F
330
A
100
AcDbDictionary
281
1
  3
Standard
350
2C
  0
DICTIONARY
  5
10
330
A
100
AcDbDictionary
281
1
  3
Standard
350
22
  0
DICTIONARY
  5
11
330
A
100
AcDbDictionary
281
1
  0
ACDBDICTIONARYWDFLT
  5
12
330
A
100
AcDbDictionary
281
1
  3
Normal
350
13
100
AcDbDictionaryWithDefault
340
13
  0
ACDBPLACEHOLDER
  5
13
330
12
  0
DICTIONARY
  5
14
330
A
100
AcDbDictionary
281
1
  0
DICTIONARY
  5
15
330
A
100
AcDbDictionary
281
1
  0
DICTIONARY
  5
16
330
A
100
AcDbDictionary
281
1
  0
LAYOUT
  5
1A
330
D
100
AcDbPlotSettings
  1

  4
A3
  6

 40
7.5
 41
20.0
 42
7.5
 43
20.0
 44
420.0
 45
297.0
 46
0.0
 47
0.0
 48
0.0
 49
0.0
140
0.0
141
0.0
142
1.0
143
1.0
 70
1024
 72
1
 73
0
 74
5
  7

 75
16
 76
0
 77
2
 78
300
147
1.0
148
0.0
149
0.0
100
AcDbLayout
  1
Model
 70
1
 71
0
 10
0.0
 20
0.0
 11
420.0
 21
297.0
 12
0.0
 22
0.0
 32
0.0
 14
1e+20
 24
1e+20
 34
1e+20
 15
-1e+20
 25
-1e+20
 35
-1e+20
146
0.0
 13
0.0
 23
0.0
 33
0.0
 16
1.0
 26
0.0
 36
0.0
 17
0.0
 27
1.0
 37
0.0
 76
1
330
17
  0
LAYOUT
  5
1E
330
D
100
AcDbPlotSettings
  1

  4
A3
  6

 40
7.5
 41
20.0
 42
7.5
 43
20.0
 44
420.0
 45
297.0
 46
0.0
 47
0.0
 48
0.0
 49
0.0
140
0.0
141
0.0
142
1.0
143
1.0
 70
0
 72
1
 73
0
 74
5
  7

 75
16
 76
0
 77
2
 78
300
147
1.0
148
0.0
149
0.0
100
AcDbLayout
  1
Layout1
 70
1
 71
1
 10
0.0
 20
0.0
 11
420.0
 21
297.0
 12
0.0
 22
0.0
 32
0.0
 14
1e+20
 24
1e+20
 34
1e+20
 15
-1e+20
 25
-1e+20
 35
-1e+20
146
0.0
 13
0.0
 23
0.0
 33
0.0
 16
1.0
 26
0.0
 36
0.0
 17
0.0
 27
1.0
 37
0.0
 76
1
330
1B
  0
MATERIAL
  5
1F
102
{ACAD_REACTORS
330
E
102
}
330
E
100
AcDbMaterial
  1
ByBlock
  2

 70
0
 40
1.0
 71
1
 41
1.0
 91
-1023410177
 42
1.0
 72
1
  3

 73
1
 74
1
 75
1
 44
0.5
 73
0
 45
1.0
 46
1.0
 77
1
  4

 78
1
 79
1
170
1
 48
1.0
171
1
  6

172
1
173
1
174
1
140
1.0
141
1.0
175
1
  7

176
1
177
1
178
1
143
1.0
179
1
  8

270
1
271
1
272
1
145
1.0
146
1.0
273
1
  9

274
1
275
1
276
1
 42
1.0
 72
1
  3

 73
1
 74
1
 75
1
 94
63
  0
MATERIAL
  5
20
102
{ACAD_REACTORS
330
E
102
}
330
E
100
AcDbMaterial
  1
ByLayer
  2

 70
0
 40
1.0
 71
1
 41
1.0
 91
-1023410177
 42
1.0
 72
1
  3

 73
1
 74
1
 75
1
 44
0.5
 73
0
 45
1.0
 46
1.0
 77
1
  4

 78
1
 79
1
170
1
 48
1.0
171
1
  6

172
1
173
1
174
1
140
1.0
141
1.0
175
1
  7

176
1
177
1
178
1
143
1.0
179
1
  8

270
1
271
1
272
1
145
1.0
146
1.0
273
1
  9

274
1
275
1
276
1
 42
1.0
 72
1
  3

 73
1
 74
1
 75
1
 94
63
  0
MATERIAL
  5
21
102
{ACAD_REACTORS
330
E
102
}
330
E
100
AcDbMaterial
  1
Global
  2

 70
0
 40
1.0
 71
1
 41
1.0
 91
-1023410177
 42
1.0
 72
1
  3

 73
1
 74
1
 75
1
 44
0.5
 73
0
 45
1.0
 46
1.0
 77
1
  4

 78
1
 79
1
170
1
 48
1.0
171
1
  6

172
1
173
1
174
1
140
1.0
141
1.0
175
1
  7

176
1
177
1
178
1
143
1.0
179
1
  8

270
1
271
1
272
1
145
1.0
146
1.0
273
1
  9

274
1
275
1
276
1
 42
1.0
 72
1
  3

 73
1
 74
1
 75
1
 94
63
  0
MLINESTYLE
  5
22
102
{ACAD_REACTORS
330
10
102
}
330
10
100
AcDbMlineStyle
  2
Standard
 70
0
  3

 62
256
 51
90.0
 52
90.0
 71
2
 49
0.5
 62
256
  6
BYLAYER
 49
-0.5
 62
256
  6
BYLAYER
  0
MLEADERSTYLE
  5
2C
102
{ACAD_REACTORS
330
F
102
}
330
F
100
AcDbMLeaderStyle
179
2
170
2
171
1
172
0
 90
2
 40
0.0
 41
0.0
173
1
 91
-1056964608
 92
-2
290
1
 42
2.0
291
1
 43
8.0
  3
Standard
 44
4.0
300

342
29
174
1
175
1
176
0
178
1
 93
-1056964608
 45
4.0
292
0
297
0
 46
4.0
 94
-1056964608
 47
1.0
 49
1.0
140
1.0
294
1
141
0.0
177
0
142
1.0
295
0
296
0
143
3.75
271
0
272
9
273
9
  0
DICTIONARY
  5
2D
330
A
100
AcDbDictionary
280
1
281
1
  3
CREATED_BY_EZDXF
350
2E
  3
WRITTEN_BY_EZDXF
350
58
  0
DICTIONARYVAR
  5
2E
330
2D
100
DictionaryVariables
280
0
  1
1.4.4 @ 2026-10-02T12:23:37.052562+00:00
  0
DICTIONARYVAR
  5
58
330
2D
100
DictionaryVariables
280
0
  1
1.4.4 @ 2026-10-02T12:23:37.091077+00:00
  0
ENDSEC
  0
EOF
