  0
SECTION
  2
HEADER
  9
$ACADVER
  1
AC1027
  9
$ACADMAINTVER
 70
105
  9
$DWGCODEPAGE
  3
ANSI_1252
  9
$LASTSAVEDBY
  1
ezdxf
  9
$REQUIREDVERSIONS
160
0
  9
$INSBASE
 10
0.0
 20
0.0
 30
0.0
  9
$EXTMIN
 10
1e+20
 20
1e+20
 30
1e+20
  9
$EXTMAX
 10
-1e+20
 20
-1e+20
 30
-1e+20
  9
$LIMMIN
 10
0.0
 20
0.0
  9
$LIMMAX
 10
420.0
 20
297.0
  9
$ORTHOMODE
 70
0
  9
$REGENMODE
 70
1
  9
$FILLMODE
 70
1
  9
$QTEXTMODE
 70
0
  9
$MIRRTEXT
 70
1
  9
$LTSCALE
 40
1.0
  9
$ATTMODE
 70
1
  9
$TEXTSIZE
 40
2.5
  9
$TRACEWID
 40
1.0
  9
$TEXTSTYLE
  7
Standard
  9
$CLAYER
  8
0
  9
$CELTYPE
  6
ByLayer
  9
$CECOLOR
 62
256
  9
$CELTSCALE
 40
1.0
  9
$DISPSILH
 70
0
  9
$DIMSCALE
 40
1.0
  9
$DIMASZ
 40
2.5
  9
$DIMEXO
 40
0.625
  9
$DIMDLI
 40
3.75
  9
$DIMRND
 40
0.0
  9
$DIMDLE
 40
0.0
  9
$DIMEXE
 40
1.25
  9
$DIMTP
 40
0.0
  9
$DIMTM
 40
0.0
  9
$DIMTXT
 40
2.5
  9
$DIMCEN
 40
2.5
  9
$DIMTSZ
 40
0.0
  9
$DIMTOL
 70
0
  9
$DIMLIM
 70
0
  9
$DIMTIH
 70
0
  9
$DIMTOH
 70
0
  9
$DIMSE1
 70
0
  9
$DIMSE2
 70
0
  9
$DIMTAD
 70
1
  9
$DIMZIN
 70
8
  9
$DIMBLK
  1

  9
$DIMASO
 70
1
  9
$DIMSHO
 70
1
  9
$DIMPOST
  1

  9
$DIMAPOST
  1

  9
$DIMALT
 70
0
  9
$DIMALTD
 70
3
  9
$DIMALTF
 40
0.03937007874
  9
$DIMLFAC
 40
1.0
  9
$DIMTOFL
 70
1
  9
$DIMTVP
 40
0.0
  9
$DIMTIX
 70
0
  9
$DIMSOXD
 70
0
  9
$DIMSAH
 70
0
  9
$DIMBLK1
  1

  9
$DIMBLK2
  1

  9
$DIMSTYLE
  2
ISO-25
  9
$DIMCLRD
 70
0
  9
$DIMCLRE
 70
0
  9
$DIMCLRT
 70
0
  9
$DIMTFAC
 40
1.0
  9
$DIMGAP
 40
0.625
  9
$DIMJUST
 70
0
  9
$DIMSD1
 70
0
  9
$DIMSD2
 70
0
  9
$DIMTOLJ
 70
0
  9
$DIMTZIN
 70
8
  9
$DIMALTZ
 70
0
  9
$DIMALTTZ
 70
0
  9
$DIMUPT
 70
0
  9
$DIMDEC
 70
2
  9
$DIMTDEC
 70
2
  9
$DIMALTU
 70
2
  9
$DIMALTTD
 70
3
  9
$DIMTXSTY
  7
Standard
  9
$DIMAUNIT
 70
0
  9
$DIMADEC
 70
0
  9
$DIMALTRND
 40
0.0
  9
$DIMAZIN
 70
0
  9
$DIMDSEP
 70
44
  9
$DIMATFIT
 70
3
  9
$DIMFRAC
 70
0
  9
$DIMLDRBLK
  1

  9
$DIMLUNIT
 70
2
  9
$DIMLWD
 70
-2
  9
$DIMLWE
 70
-2
  9
$DIMTMOVE
 70
0
  9
$DIMFXL
 40
1.0
  9
$DIMFXLON
 70
0
  9
$DIMJOGANG
 40
0.785398163397
  9
$DIMTFILL
 70
0
  9
$DIMTFILLCLR
 70
0
  9
$DIMARCSYM
 70
0
  9
$DIMLTYPE
  6

  9
$DIMLTEX1
  6

  9
$DIMLTEX2
  6

  9
$DIMTXTDIRECTION
 70
0
  9
$LUNITS
 70
2
  9
$LUPREC
 70
4
  9
$SKETCHINC
 40
1.0
  9
$FILLETRAD
 40
10.0
  9
$AUNITS
 70
0
  9
$AUPREC
 70
2
  9
$MENU
  1
.
  9
$ELEVATION
 40
0.0
  9
$PELEVATION
 40
0.0
  9
$THICKNESS
 40
0.0
  9
$LIMCHECK
 70
0
  9
$CHAMFERA
 40
0.0
  9
$CHAMFERB
 40
0.0
  9
$CHAMFERC
 40
0.0
  9
$CHAMFERD
 40
0.0
  9
$SKPOLY
 70
0
  9
$TDCREATE
 40
2461308.063472222
  9
$TDUCREATE
 40
2458532.153996898
  9
$TDUPDATE
 40
2461308.063472222
  9
$TDUUPDATE
 40
2458532.1544311
  9
$TDINDWG
 40
0.0
  9
$TDUSRTIMER
 40
0.0
  9
$USRTIMER
 70
1
  9
$ANGBASE
 50
0.0
  9
$ANGDIR
 70
0
  9
$PDMODE
 70
0
  9
$PDSIZE
 40
0.0
  9
$PLINEWID
 40
0.0
  9
$SPLFRAME
 70
0
  9
$SPLINETYPE
 70
6
  9
$SPLINESEGS
 70
8
  9
$HANDSEED
  5
36
  9
$SURFTAB1
 70
6
  9
$SURFTAB2
 70
6
  9
$SURFTYPE
 70
6
  9
$SURFU
 70
6
  9
$SURFV
 70
6
  9
$UCSBASE
  2

  9
$UCSNAME
  2

  9
$UCSORG
 10
0.0
 20
0.0
 30
0.0
  9
$UCSXDIR
 10
1.0
 20
0.0
 30
0.0
  9
$UCSYDIR
 10
0.0
 20
1.0
 30
0.0
  9
$UCSORTHOREF
  2

  9
$UCSORTHOVIEW
 70
0
  9
$UCSORGTOP
 10
0.0
 20
0.0
 30
0.0
  9
$UCSORGBOTTOM
 10
0.0
 20
0.0
 30
0.0
  9
$UCSORGLEFT
 10
0.0
 20
0.0
 30
0.0
  9
$UCSORGRIGHT
 10
0.0
 20
0.0
 30
0.0
  9
$UCSORGFRONT
 10
0.0
 20
0.0
 30
0.0
  9
$UCSORGBACK
 10
0.0
 20
0.0
 30
0.0
  9
$PUCSBASE
  2

  9
$PUCSNAME
  2

  9
$PUCSORG
 10
0.0
 20
0.0
 30
0.0
  9
$PUCSXDIR
 10
1.0
 20
0.0
 30
0.0
  9
$PUCSYDIR
 10
0.0
 20
1.0
 30
0.0
  9
$PUCSORTHOREF
  2

  9
$PUCSORTHOVIEW
 70
0
  9
$PUCSORGTOP
 10
0.0
 20
0.0
 30
0.0
  9
$PUCSORGBOTTOM
 10
0.0
 20
0.0
 30
0.0
  9
$PUCSORGLEFT
 10
0.0
 20
0.0
 30
0.0
  9
$PUCSORGRIGHT
 10
0.0
 20
0.0
 30
0.0
  9
$PUCSORGFRONT
 10
0.0
 20
0.0
 30
0.0
  9
$PUCSORGBACK
 10
0.0
 20
0.0
 30
0.0
  9
$USERI1
 70
0
  9
$USERI2
 70
0
  9
$USERI3
 70
0
  9
$USERI4
 70
0
  9
$USERI5
 70
0
  9
$USERR1
 40
0.0
  9
$USERR2
 40
0.0
  9
$USERR3
 40
0.0
  9
$USERR4
 40
0.0
  9
$USERR5
 40
0.0
  9
$WORLDVIEW
 70
1
  9
$SHADEDGE
 70
3
  9
$SHADEDIF
 70
70
  9
$TILEMODE
 70
1
  9
$MAXACTVP
 70
64
  9
$PINSBASE
 10
0.0
 20
0.0
 30
0.0
  9
$PLIMCHECK
 70
0
  9
$PEXTMIN
 10
1e+20
 20
1e+20
 30
1e+20
  9
$PEXTMAX
 10
-1e+20
 20
-1e+20
 30
-1e+20
  9
$PLIMMIN
 10
0.0
 20
0.0
  9
$PLIMMAX
 10
420.0
 20
297.0
  9
$UNITMODE
 70
0
  9
$VISRETAIN
 70
1
  9
$PLINEGEN
 70
0
  9
$PSLTSCALE
 70
1
  9
$TREEDEPTH
 70
3020
  9
$CMLSTYLE
  2
Standard
  9
$CMLJUST
 70
0
  9
$CMLSCALE
 40
20.0
  9
$PROXYGRAPHICS
 70
1
  9
$MEASUREMENT
 70
1
  9
$CELWEIGHT
370
-1
  9
$ENDCAPS
280
0
  9
$JOINSTYLE
280
0
  9
$LWDISPLAY
290
0
  9
$INSUNITS
 70
4
  9
$HYPERLINKBASE
  1

  9
$STYLESHEET
  1

  9
$XEDIT
290
1
  9
$CEPSNTYPE
380
0
  9
$PSTYLEMODE
290
1
  9
$FINGERPRINTGUID
  2
{0CF47C17-65FE-4936-91E1-AC32E46A34CE}
  9
$VERSIONGUID
  2
{CA4FAEC8-0D82-4DFE-B81C-629A2DB81B38}
  9
$EXTNAMES
290
1
  9
$PSVPSCALE
 40
0.0
  9
$OLESTARTUP
290
0
  9
$SORTENTS
280
127
  9
$INDEXCTL
280
0
  9
$HIDETEXT
280
1
  9
$XCLIPFRAME
280
1
  9
$HALOGAP
280
0
  9
$OBSCOLOR
 70
257
  9
$OBSLTYPE
280
0
  9
$INTERSECTIONDISPLAY
280
0
  9
$INTERSECTIONCOLOR
 70
257
  9
$DIMASSOC
280
2
  9
$PROJECTNAME
  1

  9
$CAMERADISPLAY
290
0
  9
$LENSLENGTH
 40
50.0
  9
$CAMERAHEIGHT
 40
0.0
  9
$STEPSPERSEC
 40
24.0
  9
$STEPSIZE
 40
100.0
  9
$3DDWFPREC
 40
2.0
  9
$PSOLWIDTH
 40
0.005
  9
$PSOLHEIGHT
 40
0.08
  9
$LOFTANG1
 40
1.570796326795
  9
$LOFTANG2
 40
1.570796326795
  9
$LOFTMAG1
 40
0.0
  9
$LOFTMAG2
 40
0.0
  9
$LOFTPARAM
 70
7
  9
$LOFTNORMALS
280
1
  9
$LATITUDE
 40
37.795
  9
$LONGITUDE
 40
-122.394
  9
$NORTHDIRECTION
 40
0.0
  9
$TIMEZONE
 70
-8000
  9
$LIGHTGLYPHDISPLAY
280
1
  9
$TILEMODELIGHTSYNCH
280
1
  9
$CMATERIAL
347
20
  9
$SOLIDHIST
280
0
  9
$SHOWHIST
280
1
  9
$DWFFRAME
280
2
  9
$DGNFRAME
280
2
  9
$REALWORLDSCALE
290
1
  9
$INTERFERECOLOR
 62
256
  9
$CSHADOW
280
0
  9
$SHADOWPLANELOCATION
 40
0.0
  0
ENDSEC
  0
SECTION
  2
CLASSES
  0
CLASS
  1
ACDBDICTIONARYWDFLT
  2
AcDbDictionaryWithDefault
  3
ObjectDBX Classes
 90
0
 91
0
280
0
281
0
  0
CLASS
  1
SUN
  2
AcDbSun
  3
SCENEOE
 90
1153
 91
0
280
0
281
0
  0
CLASS
  1
VISUALSTYLE
  2
AcDbVisualStyle
  3
ObjectDBX Classes
 90
4095
 91
0
280
0
281
0
  0
CLASS
  1
MATERIAL
  2
AcDbMaterial
  3
ObjectDBX Classes
 90
1153
 91
0
280
0
281
0
  0
CLASS
  1
SCALE
  2
AcDbScale
  3
ObjectDBX Classes
 90
1153
 91
0
280
0
281
0
  0
CLASS
  1
TABLESTYLE
  2
AcDbTableStyle
  3
ObjectDBX Classes
 90
4095
 91
0
280
0
281
0
  0
CLASS
  1
MLEADERSTYLE
  2
AcDbMLeaderStyle
  3
ACDB_MLEADERSTYLE_CLASS
 90
4095
 91
0
280
0
281
0
  0
CLASS
  1
DICTIONARYVAR
  2
AcDbDictionaryVar
  3
ObjectDBX Classes
 90
0
 91
0
280
0
281
0
  0
CLASS
  1
CELLSTYLEMAP
  2
AcDbCellStyleMap
  3
ObjectDBX Classes
 90
1152
 91
0
280
0
281
0
  0
CLASS
  1
MENTALRAYRENDERSETTINGS
  2
AcDbMentalRayRenderSettings
  3
SCENEOE
 90
1024
 91
0
280
0
281
0
  0
CLASS
  1
ACDBDETAILVIEWSTYLE
  2
AcDbDetailViewStyle
  3
ObjectDBX Classes
 90
1025
 91
0
280
0
281
0
  0
CLASS
  1
ACDBSECTIONVIEWSTYLE
  2
AcDbSectionViewStyle
  3
ObjectDBX Classes
 90
1025
 91
0
280
0
281
0
  0
CLASS
  1
RASTERVARIABLES
  2
AcDbRasterVariables
  3
ISM
 90
0
 91
0
280
0
281
0
  0
CLASS
  1
ACDBPLACEHOLDER
  2
AcDbPlaceHolder
  3
ObjectDBX Classes
 90
0
 91
0
280
0
281
0
  0
CLASS
  1
LAYOUT
  2
AcDbLayout
  3
ObjectDBX Classes
 90
0
 91
0
280
0
281
0
  0
ENDSEC
  0
SECTION
  2
TABLES
  0
TABLE
  2
VPORT
  5
8
330
0
100
AcDbSymbolTable
 70
1
  0
VPORT
  5
23
330
8
100
AcDbSymbolTableRecord
100
AcDbViewportTableRecord
  2
*Active
 70
0
 10
0.0
 20
0.0
 11
1.0
 21
1.0
 12
0.0
 22
0.0
 13
0.0
 23
0.0
 14
0.5
 24
0.5
 15
0.5
 25
0.5
 16
0.0
 26
0.0
 36
1.0
 17
0.0
 27
0.0
 37
0.0
 40
1000.0
 41
1.34
 42
50.0
 43
0.0
 44
0.0
 50
0.0
 51
0.0
 71
0
 72
1000
 73
1
 74
3
 75
0
 76
0
 77
0
 78
0
281
0
 65
0
146
0.0
  0
ENDTAB
  0
TABLE
  2
LTYPE
  5
2
330
0
100
AcDbSymbolTable
 70
3
  0
LTYPE
  5
24
330
2
100
AcDbSymbolTableRecord
100
AcDbLinetypeTableRecord
  2
ByBlock
 70
0
  3

 72
65
 73
0
 40
0.0
  0
LTYPE
  5
25
330
2
100
AcDbSymbolTableRecord
100
AcDbLinetypeTableRecord
  2
ByLayer
 70
0
  3

 72
65
 73
0
 40
0.0
  0
LTYPE
  5
26
330
2
100
AcDbSymbolTableRecord
100
AcDbLinetypeTableRecord
  2
Continuous
 70
0
  3

 72
65
 73
0
 40
0.0
  0
ENDTAB
  0
TABLE
  2
LAYER
  5
1
330
0
100
AcDbSymbolTable
 70
2
  0
LAYER
  5
27
330
1
100
AcDbSymbolTableRecord
100
AcDbLayerTableRecord
  2
0
 70
0
 62
7
  6
Continuous
370
-3
390
13
347
21
  0
LAYER
  5
28
330
1
100
AcDbSymbolTableRecord
100
AcDbLayerTableRecord
  2
Defpoints
 70
0
 62
7
  6
Continuous
290
0
370
-3
390
13
347
21
  0
ENDTAB
  0
TABLE
  2
STYLE
  5
5
330
0
100
AcDbSymbolTable
 70
1
  0
STYLE
  5
29
330
5
100
AcDbSymbolTableRecord
100
AcDbTextStyleTableRecord
  2
Standard
 70
0
 40
0.0
 41
1.0
 50
0.0
 71
0
 42
2.5
  3
txt
  4

  0
ENDTAB
  0
TABLE
  2
VIEW
  5
7
330
0
100
AcDbSymbolTable
 70
0
  0
ENDTAB
  0
TABLE
  2
UCS
  5
6
330
0
100
AcDbSymbolTable
 70
0
  0
ENDTAB
  0
TABLE
  2
APPID
  5
3
330
0
100
AcDbSymbolTable
 70
3
  0
APPID
  5
2A
330
3
100
AcDbSymbolTableRecord
100
AcDbRegAppTableRecord
  2
ACAD
 70
0
  0
APPID
  5
33
330
3
100
AcDbSymbolTableRecord
100
AcDbRegAppTableRecord
  2
HATCHBACKGROUNDCOLOR
 70
0
  0
APPID
  5
34
330
3
100
AcDbSymbolTableRecord
100
AcDbRegAppTableRecord
  2
EZDXF
 70
0
  0
ENDTAB
  0
TABLE
  2
DIMSTYLE
  5
4
330
0
100
AcDbSymbolTable
 70
1
100
AcDbDimStyleTable
  0
DIMSTYLE
105
2B
330
4
100
AcDbSymbolTableRecord
100
AcDbDimStyleTableRecord
  2
Standard
 70
0
 40
1.0
 41
2.5
 42
0.625
 43
3.75
 44
1.25
 45
0.0
 46
0.0
 47
0.0
 48
0.0
 49
2.5
140
2.5
141
2.5
142
0.0
143
0.03937007874
144
1.0
145
0.0
146
1.0
147
0.625
148
0.0
 69
0
 70
0
 71
0
 72
0
 73
0
 74
0
 75
0
 76
0
 77
1
 78
8
 79
3
170
0
171
3
172
1
173
0
174
0
175
0
176
0
177
0
178
0
179
2
271
2
272
2
273
2
274
3
275
0
276
0
277
2
278
44
279
0
280
0
281
0
282
0
283
0
284
8
285
0
286
0
288
0
289
3
290
0
371
-2
372
-2
  0
ENDTAB
  0
TABLE
  2
BLOCK_RECORD
  5
9
330
0
100
AcDbSymbolTable
 70
2
  0
BLOCK_RECORD
  5
17
330
9
100
AcDbSymbolTableRecord
100
AcDbBlockTableRecord
  2
*Model_Space
340
1A
 70
0
280
1
281
0
  0
BLOCK_RECORD
  5
1B
330
9
100
AcDbSymbolTableRecord
100
AcDbBlockTableRecord
  2
*Paper_Space
340
1E
 70
0
280
1
281
0
  0
ENDTAB
  0
ENDSEC
  0
SECTION
  2
BLOCKS
  0
BLOCK
  5
18
330
17
100
AcDbEntity
  8
0
100
AcDbBlockBegin
  2
*Model_Space
 70
0
 10
0.0
 20
0.0
 30
0.0
  3
*Model_Space
  1

  0
ENDBLK
  5
19
330
17
100
AcDbEntity
  8
0
100
AcDbBlockEnd
  0
BLOCK
  5
1C
330
1B
100
AcDbEntity
  8
0
100
AcDbBlockBegin
  2
*Paper_Space
 70
0
 10
0.0
 20
0.0
 30
0.0
  3
*Paper_Space
  1

  0
ENDBLK
  5
1D
330
1B
100
AcDbEntity
  8
0
100
AcDbBlockEnd
  0
ENDSEC
  0
SECTION
  2
ENTITIES
  0
LWPOLYLINE
  5
2F
330
17
100
AcDbEntity
  8
0
100
AcDbPolyline
 90
300
 70
1
 10
43.66500407632899
 20
0.0456966910967509
 10
44.53094283183499
 20
0.008087786536748357
 10
44.82416165640858
 20
1.2789769243681803e-13
 10
44.824161656407746
 20
7.426415643974707
 10
50.82416165640852
 20
7.426415643827127
 10
50.824161662715596
 20
0.026131747386621385
 10
51.261693315289996
 20
0.0431466949567465
 10
52.124903999693
 20
0.09032936450675066
 10
52.987160705274995
 20
0.15108457260674868
 10
53.84820579823899
 20
0.2253941662167449
 10
54.70778200680999
 20
0.31323594234675056
 10
55.565632498096996
 20
0.41458365474674963
 10
56.42150095483999
 20
0.5294070217167501
 10
57.27513165198799
 20
0.6576717351667511
 10
58.12626953311299
 20
0.7993394708767454
 10
58.97466028661499
 20
0.9543678999167469
 10
59.82005042170799
 20
1.1227107013267457
 10
60.66218734416099
 20
1.3043175759267456
 10
61.50081943177199
 20
1.4991342613967475
 10
62.33569610954899
 20
1.7071025484067448
 10
63.166567924579
 20
1.9281602981067465
 10
63.993186620562
 20
2.162241460616748
 10
64.815305211989
 20
2.4092760947867475
 10
65.632678057936
 20
2.66919038911675
 10
66.445060935463
 20
2.941906683766746
 10
67.252211112583
 20
3.2273434938067496
 10
68.053887420787
 20
3.5254155335467487
 10
68.84985032710499
 20
3.836033741976749
 10
69.639862005674
 20
4.159105309466746
 10
70.423686408802
 20
4.494533705406745
 10
71.201089337491
 20
4.842218707096748
 10
71.971838511416
 20
5.202056429706751
 10
72.735703638331
 20
5.573939357256748
 10
73.492456482872
 20
5.957756374816746
 10
74.24187093475699
 20
6.353392801626747
 10
74.983723076344
 20
6.760730425446752
 10
75.717791249532
 20
7.179647537806751
 10
76.44385612199399
 20
7.610018970396752
 10
77.16170075271201
 20
8.05171613249675
 10
77.871110656794
 20
8.504607049346752
 10
78.571873869559
 20
8.968556401606751
 10
79.263781009875
 20
9.443425565796751
 10
79.946625342716
 20
9.929072655686753
 10
80.620202840934
 20
10.42535256471675
 10
81.28431224621798
 20
10.932117009356752
 10
81.93875512923199
 20
11.449214573386751
 10
82.58333594889999
 20
11.97649075315675
 10
83.217862110833
 20
12.51378800373675
 10
83.842144024875
 20
13.06094578603675
 10
84.45599516175199
 20
13.61780061468675
 10
85.05923210879999
 20
14.184186106966752
 10
85.651674624772
 20
14.759933032486753
 10
86.23314569369
 20
15.344869363736752
 10
86.80347157773701
 20
15.938820327516751
 10
87.362481869166
 20
16.54160845713675
 10
87.910009541219
 20
17.15305364545675
 10
88.44589099803
 20
17.772973198686753
 10
88.96996612350699
 20
18.40118189097675
 10
89.482078329175
 20
19.037492019776753
 10
89.98207460095898
 20
19.681713461896752
 10
90.46980554490699
 20
20.33365373031675
 10
90.94512543182698
 20
20.993118031736753
 10
91.40789224082599
 20
21.659909324706753
 10
91.857967701748
 20
22.333828378596753
 10
92.29521733648599
 20
23.01467383301675
 10
92.719510499165
 20
23.70224225807675
 10
93.13072041517401
 20
24.39632821510675
 10
93.528724219048
 20
25.09672431808675
 10
93.913402991177
 20
25.80322129556675
 10
94.28490222324699
 20
26.515475751776755
 10
94.44757336234699
 20
26.847706551106754
 10
94.600396713395
 20
27.18458075168675
 10
94.74323988964899
 20
27.525806528496748
 10
94.875979149923
 20
27.87108828684675
 10
94.998499505779
 20
28.220126918486752
 10
95.11069482114101
 20
28.572620060652753
 10
95.212467904237
 20
28.928262358074747
 10
95.303730591792
 20
29.28674572742375
 10
95.38440382540401
 20
29.64775962423675
 10
95.454417720029
 20
30.01099131192175
 10
95.51371162452
 20
30.376126132674752
 10
95.56223417416999
 20
30.74284778005875
 10
95.599943335203
 20
31.11083857301275
 10
95.626806441191
 20
31.47977973104875
 10
95.642800221351
 20
31.849351650401758
 10
95.647267068788
 20
32.219233162834755
 10
95.644204238041
 20
33.57323958753575
 10
85.644229822266
 20
33.55061914373875
 10
85.63291959923998
 20
38.55060637696575
 10
95.63289401500799
 20
38.57322682043375
 10
95.632556616162
 20
38.72238390704575
 10
95.390884928002
 20
39.55623215389475
 10
95.124600347467
 20
40.39962941374576
 10
94.833876086691
 20
41.251851938952754
 10
94.51888535781
 20
42.11217598187175
 10
94.179801372957
 20
42.97987779485575
 10
93.816797344267
 20
43.854233630259756
 10
93.430046483873
 20
44.73451974044075
 10
93.019722003911
 20
45.620012377750754
 10
92.58605362972301
 20
46.50997154967275
 10
92.129497139492
 20
47.40359228419675
 10
91.650564824606
 20
48.30005336443775
 10
91.14976897645501
 20
49.19853357351375
 10
90.627621886431
 20
50.09821169454075
 10
90.08463584592198
 20
50.99826651063575
 10
89.52132314631999
 20
51.89787680491375
 10
88.938196079013
 20
52.79622136049375
 10
88.335775657494
 20
53.692477997059754
 10
87.714617783656
 20
54.58582068058476
 10
87.075287081496
 20
55.475422413608754
 10
86.41834817501099
 20
56.36045619867275
 10
85.744365688195
 20
57.24009503831775
 10
85.053904245045
 20
58.11351193508375
 10
84.347528469556
 20
58.97987989151275
 10
83.62580298572598
 20
59.83837191014575
 10
82.889127768681
 20
60.688317660346755
 10
82.137244198079
 20
61.52967347876975
 10
81.369729004708
 20
62.36255236889375
 10
80.586158919358
 20
63.187067334196755
 10
79.787224573709
 20
64.00226296729674
 10
78.978072203009
 20
64.80291021737075
 10
78.162258780806
 20
65.58525573666675
 10
77.332528630284
 20
66.35572263314175
 10
76.482324718537
 20
67.12010807307675
 10
75.618697238666
 20
67.87152900034576
 10
74.750157755103
 20
68.60187483373474
 10
73.877456091623
 20
69.31080511409775
 10
72.99926927934
 20
69.99984932606675
 10
72.11374491941
 20
70.67024660730175
 10
71.218898255497
 20
71.32316350872175
 10
70.312744531265
 20
71.95976658124476
 10
69.394966509732
 20
72.58009994728074
 10
68.471917031318
 20
73.17971801521176
 10
67.548847087808
 20
73.75480173898374
 10
66.61993019900999
 20
74.30852796884574
 10
65.67994919416199
 20
74.84389133788575
 10
64.73720161217099
 20
75.35616171424175
 10
63.799086515137994
 20
75.84088164457674
 10
62.855894348286995
 20
76.30240915459375
 10
61.89840319979499
 20
76.74498144741975
 10
60.93645034654399
 20
77.16353695685275
 10
59.98141473474399
 20
77.55227988539775
 10
59.03178279920299
 20
77.91177627972274
 10
58.084331412070995
 20
78.24361660087175
 10
57.141891706264
 20
78.54712712320375
 10
56.20597724697199
 20
78.82174180004876
 10
55.26677706772799
 20
79.06958948729473
 10
54.316166970752995
 20
79.29233073326674
 10
53.36409436467499
 20
79.48705795349073
 10
52.422010953424
 20
79.65056520064374
 10
51.489314015741996
 20
79.78302120879374
 10
50.563065285487994
 20
79.88524855653175
 10
49.643038742189994
 20
79.95731051913374
 10
48.729686426792995
 20
79.99908054604674
 10
47.823454969360604
 20
80.01043206333775
 10
46.80736655082299
 20
79.98710243476675
 10
45.77833596641499
 20
79.92465611649074
 10
44.733052858903996
 20
79.82248717927274
 10
43.69468972892
 20
79.68483712777274
 10
42.683625792758995
 20
79.51588142707675
 10
41.682584271515
 20
79.31468395006976
 10
40.665962124442
 20
79.07776942599776
 10
39.642293698455994
 20
78.80629627844475
 10
38.68750908730999
 20
78.52382093131473
 10
37.72897405237
 20
78.21213708597075
 10
36.76582802223
 20
77.87107719549475
 10
35.80065271106999
 20
77.50114390064475
 10
34.830183662109995
 20
77.10140719281674
 10
33.85732967456999
 20
76.67331672246374
 10
32.88004252060999
 20
76.21559038605375
 10
31.899004942859992
 20
75.72865555143075
 10
30.978749195429998
 20
75.24706876957276
 10
30.058595385599997
 20
74.74149609571376
 10
29.131614065509996
 20
74.20758173873175
 10
28.218593578739995
 20
73.65839307199074
 10
27.333419882079998
 20
73.10346272482076
 10
26.459025055749997
 20
72.53228947825174
 10
25.579063610269998
 20
71.93504152001675
 10
24.711033653989997
 20
71.32459851298374
 10
23.873174392219997
 20
70.71411374299775
 10
23.052845820319998
 20
70.09512351268376
 10
22.234100487699997
 20
69.45679569833877
 10
21.418640369939997
 20
68.80044145416676
 10
20.610877823569997
 20
68.12909659964774
 10
19.808417302829998
 20
67.44055233743074
 10
19.009556832139996
 20
66.73349751331175
 10
18.222176619019997
 20
66.01545616247675
 10
17.453270878199998
 20
65.29311886545375
 10
16.696707670119995
 20
64.56100719473476
 10
15.945538095189995
 20
63.81290662824175
 10
15.202671568019994
 20
63.05182727365575
 10
14.472540174999999
 20
62.282204208311754
 10
13.755808375709996
 20
61.50494775842175
 10
13.05219872299
 20
60.720087062414756
 10
12.361433769659996
 20
59.927651258718754
 10
11.683267506469996
 20
59.12762732323575
 10
11.017579675699999
 20
58.319833581766744
 10
10.364281457529998
 20
57.50404619758375
 10
9.723284032139993
 20
56.68004133396075
 10
9.095205749479994
 20
55.848658483353745
 10
8.483493638579994
 20
55.014990454945746
 10
7.889546947789995
 20
54.18096977373075
 10
7.303745123779997
 20
53.33163451121375
 10
6.718687775459998
 20
52.45538674464075
 10
6.1468749625399965
 20
51.57097902770475
 10
5.599791682169993
 20
50.695046370994746
 10
5.064962230569996
 20
49.805403136209755
 10
4.530535785009995
 20
48.881503577184745
 10
4.0111217479699945
 20
47.94818216517375
 10
3.521520591209999
 20
47.02972079057976
 10
3.0508368383799933
 20
46.102810802961756
 10
2.58753865197
 20
45.14385070937775
 10
2.1432446976799966
 20
44.17565818771775
 10
1.7304121179399985
 20
43.22184919047075
 10
1.341701458749995
 20
42.26281359770075
 10
0.9690133237099943
 20
41.27820007631675
 10
0.6210051431799997
 20
40.28791851304375
 10
0.3076687459900001
 20
39.31528294585375
 10
0.027576727979997884
 20
38.35696279824779
 10
9.988664192719995
 20
38.37949527747371
 10
9.999974415759993
 20
33.37950804458475
 10
-8.205771388334821e-74
 20
33.35688760077975
 10
0.002992729379997172
 20
31.75342392197875
 10
0.009726658349997308
 20
31.384923605756754
 10
0.02726308618999695
 20
31.01677920127875
 10
0.0555869315599935
 20
30.649307313075752
 10
0.09467383594000012
 20
30.28282396731275
 10
0.1444901845299995
 20
29.91764434000975
 10
0.20499313524999963
 20
29.55408248598375
 10
0.27613065548999316
 20
29.19245106876975
 10
0.35784156691999414
 20
28.833061091722755
 10
0.45005559808999607
 20
28.47622163055775
 10
0.5526934448299983
 20
28.12223956754675
 10
0.6656668385099991
 20
27.77141932758675
 10
0.7888786218899995
 20
27.42406261640675
 10
0.9222228327399975
 20
27.08046816111675
 10
1.065584794909995
 20
26.74093145325675
 10
1.2188412169699987
 20
26.40574449471675
 10
1.3821166223899937
 20
26.07532666684675
 10
1.7553229744399985
 20
25.364219073196754
 10
2.1419592462599937
 20
24.659395616066753
 10
2.5418929419599934
 20
23.96103577584675
 10
2.9549915655899994
 20
23.26931903296675
 10
3.3811226212599976
 20
22.584424867796752
 10
3.820153613019997
 20
21.90653276076675
 10
4.271952044979997
 20
21.23582219225675
 10
4.736385421199998
 20
20.57247264268675
 10
5.21332124576
 20
19.916663592446753
 10
5.702627022749994
 20
19.268574521936753
 10
6.204170256249995
 20
18.62838491156675
 10
6.717818450339998
 20
17.996274241736753
 10
7.243439109089998
 20
17.37242199284675
 10
7.780899736589994
 20
16.757007645296753
 10
8.330067836909997
 20
16.15021067948675
 10
8.890810914139998
 20
15.552210575826752
 10
9.462985750449995
 20
14.96318364695675
 10
10.046406240369997
 20
14.383293534516753
 10
10.640875556519994
 20
13.812700712366752
 10
11.246196871519999
 20
13.251565654386752
 10
11.862173358
 20
12.700048834456751
 10
12.488608188579995
 20
12.15831072644675
 10
13.125304535879998
 20
11.626511804236753
 10
13.772065572529996
 20
11.104812541696752
 10
14.428694471139998
 20
10.593373412696753
 10
15.09499440434
 20
10.092354891116752
 10
15.770768544749998
 20
9.601917450836751
 10
16.455820064989997
 20
9.12222156572675
 10
17.149952137679996
 20
8.653427709666751
 10
17.852967935459997
 20
8.195696356516752
 10
18.564670630929996
 20
7.749187980166752
 10
19.284863396729996
 20
7.314063054476751
 10
20.013341932389995
 20
6.890471838746752
 10
20.74987204514
 20
6.4785237338567505
 10
21.494212069109995
 20
6.078317926116746
 10
22.246120338429996
 20
5.689953601816747
 10
23.005355187259998
 20
5.3135299472767485
 10
23.771674949729995
 20
4.949146148776748
 10
24.544837959969996
 20
4.596901392626748
 10
25.324602552129996
 20
4.256894865136751
 10
26.110727060339997
 20
3.9292257526067473
 10
26.902969818749998
 20
3.6139932413167486
 10
27.701089161489996
 20
3.3112965175967446
 10
28.504843422689998
 20
3.021234767726746
 10
29.313990936509995
 20
2.743907178016748
 10
30.128290037079996
 20
2.4794129347667493
 10
30.947499058529996
 20
2.227851224286745
 10
31.771376335009993
 20
1.9893212328567458
 10
32.59968184494999
 20
1.763911913746746
 10
33.43218214403999
 20
1.5516712879967471
 10
34.26864543223999
 20
1.3526371435967448
 10
35.108839909519986
 20
1.1668472685467464
 10
35.95253377586
 20
0.9943394508467449
 10
36.799495231239995
 20
0.835151478476746
 10
37.649492475619994
 20
0.6893211394467471
 10
38.50229370898499
 20
0.5568862217367467
 10
39.357667131305995
 20
0.4378845133567495
 10
40.215380942555996
 20
0.3323538022867467
 10
41.07520334271
 20
0.24033187653675014
 10
41.936902531739996
 20
0.1618565240867511
 10
42.800246709621995
 20
0.09696553294674715
  0
LWPOLYLINE
  5
30
330
17
100
AcDbEntity
  8
0
100
AcDbPolyline
 90
105
 70
1
 10
68.82468407291
 20
12.948118564846752
 10
67.99090094437
 20
12.534934996706752
 10
27.482407657049997
 20
12.44330273832675
 10
26.66148991949
 20
12.847501049776753
 10
25.850996928989996
 20
13.26867679043675
 10
25.051350021459996
 20
13.70661101149675
 10
24.262964894449997
 20
14.16107605226675
 10
23.486251391059998
 20
14.631835658456751
 10
22.721613286889998
 20
15.118645105036752
 10
21.969448080099998
 20
15.621251323436752
 10
21.230146784829998
 20
16.13939303311675
 10
20.504093727879997
 20
16.67280087739675
 10
19.791666348939998
 20
17.22119756345675
 10
19.093235004359997
 20
17.78429800653675
 10
18.409162774649996
 20
18.36180947807675
 10
17.739805275709998
 20
18.953431757946753
 10
17.085510473959996
 20
19.55885729047675
 10
16.44661850546
 20
20.17777134436675
 10
15.823461498949996
 20
20.80985217616675
 10
15.823461498209994
 20
50.28360878229975
 10
16.649973764639995
 20
51.41381681236475
 10
17.501664986679998
 20
52.528097998784745
 10
18.381612271549997
 20
53.62970294021075
 10
19.292892726459996
 20
54.721882235293755
 10
20.236271047799995
 20
55.80514653034275
 10
21.203262288679998
 20
56.86904666231375
 10
22.186500237299995
 20
57.90428048285975
 10
23.192343265479998
 20
58.91709371179175
 10
24.226398572169998
 20
59.913365467139755
 10
25.277544081099997
 20
60.88196059164675
 10
26.334071348379997
 20
61.81105873461674
 10
27.398655734669997
 20
62.70311304687775
 10
28.476686791979997
 20
63.56312902060574
 10
29.570027033009996
 20
64.39204801186476
 10
30.677503387919998
 20
65.18858609627075
 10
31.78932749602
 20
65.94662236376675
 10
32.896334897639996
 20
66.66052702200976
 10
34.000472027879994
 20
67.33147173517875
 10
35.10384388526999
 20
67.96093866586675
 10
36.198078827159996
 20
68.54485051380377
 10
37.27562660909
 20
69.07926308129976
 10
38.342699220533994
 20
69.56632404386576
 10
39.40352190751599
 20
70.00794399560876
 10
40.44061070822299
 20
70.39899333180874
 10
41.43924979617599
 20
70.73522910902474
 10
41.92928408386899
 20
70.88460896247875
 10
42.417505094027995
 20
71.02299522774075
 10
43.39214395219499
 20
71.26881145227375
 10
44.34195768302
 20
71.46931415833873
 10
44.799108888296
 20
71.55099739455474
 10
45.24543043321
 20
71.62065067396776
 10
46.117793725019
 20
71.72689552506374
 10
46.978039621000995
 20
71.79275918691876
 10
47.403109829594996
 20
71.81042189843475
 10
47.8234603802736
 20
71.81756875786975
 10
48.24305811184799
 20
71.81406142242676
 10
48.667415941899996
 20
71.80010789818675
 10
49.52611516893
 20
71.74188829644075
 10
50.396693575693995
 20
71.64359396138575
 10
50.842345473173
 20
71.57800800081475
 10
51.29920256188899
 20
71.50043683175275
 10
52.249883411137
 20
71.30819797267975
 10
53.226821057382
 20
71.07040702494874
 10
53.716470869045
 20
70.93585854425174
 10
54.20787424816999
 20
70.79029602284875
 10
55.20815333511899
 20
70.46215799906975
 10
56.244660002303995
 20
70.08030364245074
 10
57.304709659546994
 20
69.64805326803474
 10
58.372433646504994
 20
69.16980802424375
 10
59.44891329643899
 20
68.64528276681975
 10
60.53804650370599
 20
68.07348631056975
 10
61.63804741344699
 20
67.45528959924275
 10
62.74570923350199
 20
66.79202910882174
 10
63.857825171710004
 20
66.08504131528976
 10
64.970442161882
 20
65.33625855454775
 10
66.07662204173099
 20
64.54999660215876
 10
67.169857952816
 20
63.73052661335575
 10
68.248353348199
 20
62.87955782236975
 10
69.31278300387
 20
61.996877487618754
 10
70.368996676015
 20
61.07714688526675
 10
71.420289321288
 20
60.11748622801275
 10
72.454561718002
 20
59.12997745696475
 10
73.460244123632
 20
58.12604368481075
 10
74.44327889064499
 20
57.09951098213875
 10
75.410404409424
 20
56.043817529461755
 10
76.354031127032
 20
54.968446989073755
 10
77.265383477971
 20
53.88408286626075
 10
78.145269789827
 20
52.79016255648675
 10
78.996894363455
 20
51.68331192776175
 10
79.823461498944
 20
50.56015684880775
 10
79.82346149879
 20
21.086432053596752
 10
79.192023349098
 20
20.44068714111675
 10
78.544439054721
 20
19.808321595166753
 10
77.881054154843
 20
19.18967283449675
 10
77.202222619559
 20
18.58507095880675
 10
76.508306661009
 20
17.994838572646753
 10
75.799676540107
 20
17.419290613256752
 10
75.076710368975
 20
16.858734182556752
 10
74.33979390919
 20
16.313468383226752
 10
73.58932036595
 20
15.78378415917675
 10
72.825690178264
 20
15.269964140246753
 10
72.049310805289
 20
14.77228249145675
 10
71.26059650891399
 20
14.29100476664675
 10
70.459968132717
 20
13.826387766856751
 10
69.64785287741401
 20
13.37867940324675
  0
LWPOLYLINE
  5
31
330
17
100
AcDbEntity
  8
0
100
AcDbPolyline
 90
39
 70
1
 10
29.324145428369995
 20
68.38346424321375
 10
29.304720822326864
 20
68.6240811645004
 10
29.246950091290714
 20
68.85846623391596
 10
29.15232946684981
 20
69.08054900127941
 10
29.02330957347525
 20
69.28457763957071
 10
28.863231958634394
 20
69.46526791422947
 10
28.67624254846673
 20
69.61794004205423
 10
28.467184270474576
 20
69.73863989512932
 10
28.241471624244674
 20
69.8242414106608
 10
28.00495044875298
 20
69.87252755436083
 10
27.763746518205874
 20
69.8822477404711
 10
27.52410688770593
 20
69.85315022127715
 10
27.29223809780619
 20
69.78598860724188
 10
27.074145428369995
 20
69.68250234889041
 10
26.87547736497693
 20
69.54537168595523
 10
26.701379306113342
 20
69.37814823057495
 10
26.5563603000543
 20
69.18516298240546
 10
26.444176262881758
 20
68.97141415800387
 10
26.367732702230917
 20
68.74243773964508
 10
26.329009466168678
 20
68.50416409628885
 10
26.329009466168678
 20
68.26276439013866
 10
26.367732702230917
 20
68.02449074678242
 10
26.444176262881758
 20
67.79551432842364
 10
26.556360300054305
 20
67.58176550402204
 10
26.701379306113346
 20
67.38878025585255
 10
26.87547736497693
 20
67.22155680047227
 10
27.074145428369995
 20
67.0844261375371
 10
27.292238097806194
 20
66.98093987918563
 10
27.52410688770593
 20
66.91377826515036
 10
27.763746518205874
 20
66.8846807459564
 10
28.004950448752982
 20
66.89440093206667
 10
28.241471624244678
 20
66.9426870757667
 10
28.46718427047458
 20
67.02828859129818
 10
28.676242548466732
 20
67.14898844437327
 10
28.863231958634398
 20
67.30166057219803
 10
29.02330957347525
 20
67.48235084685679
 10
29.152329466849814
 20
67.68637948514811
 10
29.246950091290714
 20
67.90846225251154
 10
29.304720822326864
 20
68.14284732192712
  0
LWPOLYLINE
  5
32
330
17
100
AcDbEntity
  8
0
100
AcDbPolyline
 90
39
 70
1
 10
69.32414602441199
 20
68.38346422659875
 10
69.30472141836886
 20
68.62408114788539
 10
69.24695068733271
 20
68.85846621730096
 10
69.1523300628918
 20
69.0805489846644
 10
69.02331016951725
 20
69.28457762295571
 10
68.86323255467639
 20
69.46526789761447
 10
68.67624314450872
 20
69.61794002543922
 10
68.46718486651658
 20
69.73863987851432
 10
68.24147222028667
 20
69.8242413940458
 10
68.00495104479498
 20
69.87252753774582
 10
67.76374711424786
 20
69.8822477238561
 10
67.52410748374793
 20
69.85315020466214
 10
67.29223869384819
 20
69.78598859062687
 10
67.07414602441199
 20
69.6825023322754
 10
66.87547796101892
 20
69.54537166934023
 10
66.70137990215534
 20
69.37814821395995
 10
66.5563608960963
 20
69.18516296579045
 10
66.44417685892375
 20
68.97141414138886
 10
66.36773329827291
 20
68.74243772303008
 10
66.32901006221067
 20
68.50416407967384
 10
66.32901006221067
 20
68.26276437352365
 10
66.36773329827291
 20
68.02449073016741
 10
66.44417685892375
 20
67.79551431180863
 10
66.5563608960963
 20
67.58176548740704
 10
66.70137990215534
 20
67.38878023923755
 10
66.87547796101892
 20
67.22155678385727
 10
67.07414602441199
 20
67.08442612092209
 10
67.29223869384819
 20
66.98093986257062
 10
67.52410748374793
 20
66.91377824853535
 10
67.76374711424786
 20
66.8846807293414
 10
68.00495104479498
 20
66.89440091545167
 10
68.24147222028667
 20
66.9426870591517
 10
68.46718486651658
 20
67.02828857468317
 10
68.67624314450873
 20
67.14898842775827
 10
68.86323255467639
 20
67.30166055558303
 10
69.02331016951725
 20
67.48235083024178
 10
69.1523300628918
 20
67.6863794685331
 10
69.24695068733271
 20
67.90846223589654
 10
69.30472141836886
 20
68.14284730531212
  0
ENDSEC
  0
SECTION
  2
OBJECTS
  0
DICTIONARY
  5
A
330
0
100
AcDbDictionary
281
1
  3
ACAD_COLOR
350
B
  3
ACAD_GROUP
350
C
  3
ACAD_LAYOUT
350
D
  3
ACAD_MATERIAL
350
E
  3
ACAD_MLEADERSTYLE
350
F
  3
ACAD_MLINESTYLE
350
10
  3
ACAD_PLOTSETTINGS
350
11
  3
ACAD_PLOTSTYLENAME
350
12
  3
ACAD_SCALELIST
350
14
  3
ACAD_TABLESTYLE
350
15
  3
ACAD_VISUALSTYLE
350
16
  3
EZDXF_META
350
2D
  0
DICTIONARY
  5
B
330
A
100
AcDbDictionary
281
1
  0
DICTIONARY
  5
C
330
A
100
AcDbDictionary
281
1
  0
DICTIONARY
  5
D
330
A
100
AcDbDictionary
281
1
  3
Model
350
1A
  3
Layout1
350
1E
  0
DICTIONARY
  5
E
330
A
100
AcDbDictionary
281
1
  3
ByBlock
350
1F
  3
ByLayer
350
20
  3
Global
350
21
  0
DICTIONARY
  5
F
330
A
100
AcDbDictionary
281
1
  3
Standard
350
2C
  0
DICTIONARY
  5
10
330
A
100
AcDbDictionary
281
1
  3
Standard
350
22
  0
DICTIONARY
  5
11
330
A
100
AcDbDictionary
281
1
  0
ACDBDICTIONARYWDFLT
  5
12
330
A
100
AcDbDictionary
281
1
  3
Normal
350
13
100
AcDbDictionaryWithDefault
340
13
  0
ACDBPLACEHOLDER
  5
13
330
12
  0
DICTIONARY
  5
14
330
A
100
AcDbDictionary
281
1
  0
DICTIONARY
  5
15
330
A
100
AcDbDictionary
281
1
  0
DICTIONARY
  5
16
330
A
100
AcDbDictionary
281
1
  0
LAYOUT
  5
1A
330
D
100
AcDbPlotSettings
  1

  4
A3
  6

 40
7.5
 41
20.0
 42
7.5
 43
20.0
 44
420.0
 45
297.0
 46
0.0
 47
0.0
 48
0.0
 49
0.0
140
0.0
141
0.0
142
1.0
143
1.0
 70
1024
 72
1
 73
0
 74
5
  7

 75
16
 76
0
 77
2
 78
300
147
1.0
148
0.0
149
0.0
100
AcDbLayout
  1
Model
 70
1
 71
0
 10
0.0
 20
0.0
 11
420.0
 21
297.0
 12
0.0
 22
0.0
 32
0.0
 14
1e+20
 24
1e+20
 34
1e+20
 15
-1e+20
 25
-1e+20
 35
-1e+20
146
0.0
 13
0.0
 23
0.0
 33
0.0
 16
1.0
 26
0.0
 36
0.0
 17
0.0
 27
1.0
 37
0.0
 76
1
330
17
  0
LAYOUT
  5
1E
330
D
100
AcDbPlotSettings
  1

  4
A3
  6

 40
7.5
 41
20.0
 42
7.5
 43
20.0
 44
420.0
 45
297.0
 46
0.0
 47
0.0
 48
0.0
 49
0.0
140
0.0
141
0.0
142
1.0
143
1.0
 70
0
 72
1
 73
0
 74
5
  7

 75
16
 76
0
 77
2
 78
300
147
1.0
148
0.0
149
0.0
100
AcDbLayout
  1
Layout1
 70
1
 71
1
 10
0.0
 20
0.0
 11
420.0
 21
297.0
 12
0.0
 22
0.0
 32
0.0
 14
1e+20
 24
1e+20
 34
1e+20
 15
-1e+20
 25
-1e+20
 35
-1e+20
146
0.0
 13
0.0
 23
0.0
 33
0.0
 16
1.0
 26
0.0
 36
0.0
 17
0.0
 27
1.0
 37
0.0
 76
1
330
1B
  0
MATERIAL
  5
1F
102
{ACAD_REACTORS
330
E
102
}
330
E
100
AcDbMaterial
  1
ByBlock
  2

 70
0
 40
1.0
 71
1
 41
1.0
 91
-1023410177
 42
1.0
 72
1
  3

 73
1
 74
1
 75
1
 44
0.5
 73
0
 45
1.0
 46
1.0
 77
1
  4

 78
1
 79
1
170
1
 48
1.0
171
1
  6

172
1
173
1
174
1
140
1.0
141
1.0
175
1
  7

176
1
177
1
178
1
143
1.0
179
1
  8

270
1
271
1
272
1
145
1.0
146
1.0
273
1
  9

274
1
275
1
276
1
 42
1.0
 72
1
  3

 73
1
 74
1
 75
1
 94
63
  0
MATERIAL
  5
20
102
{ACAD_REACTORS
330
E
102
}
330
E
100
AcDbMaterial
  1
ByLayer
  2

 70
0
 40
1.0
 71
1
 41
1.0
 91
-1023410177
 42
1.0
 72
1
  3

 73
1
 74
1
 75
1
 44
0.5
 73
0
 45
1.0
 46
1.0
 77
1
  4

 78
1
 79
1
170
1
 48
1.0
171
1
  6

172
1
173
1
174
1
140
1.0
141
1.0
175
1
  7

176
1
177
1
178
1
143
1.0
179
1
  8

270
1
271
1
272
1
145
1.0
146
1.0
273
1
  9

274
1
275
1
276
1
 42
1.0
 72
1
  3

 73
1
 74
1
 75
1
 94
63
  0
MATERIAL
  5
21
102
{ACAD_REACTORS
330
E
102
}
330
E
100
AcDbMaterial
  1
Global
  2

 70
0
 40
1.0
 71
1
 41
1.0
 91
-1023410177
 42
1.0
 72
1
  3

 73
1
 74
1
 75
1
 44
0.5
 73
0
 45
1.0
 46
1.0
 77
1
  4

 78
1
 79
1
170
1
 48
1.0
171
1
  6

172
1
173
1
174
1
140
1.0
141
1.0
175
1
  7

176
1
177
1
178
1
143
1.0
179
1
  8

270
1
271
1
272
1
145
1.0
146
1.0
273
1
  9

274
1
275
1
276
1
 42
1.0
 72
1
  3

 73
1
 74
1
 75
1
 94
63
  0
MLINESTYLE
  5
22
102
{ACAD_REACTORS
330
10
102
}
330
10
100
AcDbMlineStyle
  2
Standard
 70
0
  3

 62
256
 51
90.0
 52
90.0
 71
2
 49
0.5
 62
256
  6
BYLAYER
 49
-0.5
 62
256
  6
BYLAYER
  0
MLEADERSTYLE
  5
2C
102
{ACAD_REACTORS
330
F
102
}
330
F
100
AcDbMLeaderStyle
179
2
170
2
171
1
172
0
 90
2
 40
0.0
 41
0.0
173
1
 91
-1056964608
 92
-2
290
1
 42
2.0
291
1
 43
8.0
  3
Standard
 44
4.0
300

342
29
174
1
175
1
176
0
178
1
 93
-1056964608
 45
4.0
292
0
297
0
 46
4.0
 94
-1056964608
 47
1.0
 49
1.0
140
1.0
294
1
141
0.0
177
0
142
1.0
295
0
296
0
143
3.75
271
0
272
9
273
9
  0
DICTIONARY
  5
2D
330
A
100
AcDbDictionary
280
1
281
1
  3
CREATED_BY_EZDXF
350
2E
  3
WRITTEN_BY_EZDXF
350
35
  0
DICTIONARYVAR
  5
2E
330
2D
100
DictionaryVariables
280
0
  1
1.4.4 @ 2026-09-23T20:01:24.082448+00:00
  0
DICTIONARYVAR
  5
35
330
2D
100
DictionaryVariables
280
0
  1
1.4.4 @ 2026-09-23T20:01:24.089207+00:00
  0
ENDSEC
  0
EOF
