  0
SECTION
  2
HEADER
  9
$ACADVER
  1
AC1027
  9
$ACADMAINTVER
 70
105
  9
$DWGCODEPAGE
  3
ANSI_1252
  9
$LASTSAVEDBY
  1
ezdxf
  9
$REQUIREDVERSIONS
160
0
  9
$INSBASE
 10
0.0
 20
0.0
 30
0.0
  9
$EXTMIN
 10
1e+20
 20
1e+20
 30
1e+20
  9
$EXTMAX
 10
-1e+20
 20
-1e+20
 30
-1e+20
  9
$LIMMIN
 10
0.0
 20
0.0
  9
$LIMMAX
 10
420.0
 20
297.0
  9
$ORTHOMODE
 70
0
  9
$REGENMODE
 70
1
  9
$FILLMODE
 70
1
  9
$QTEXTMODE
 70
0
  9
$MIRRTEXT
 70
1
  9
$LTSCALE
 40
1.0
  9
$ATTMODE
 70
1
  9
$TEXTSIZE
 40
2.5
  9
$TRACEWID
 40
1.0
  9
$TEXTSTYLE
  7
Standard
  9
$CLAYER
  8
0
  9
$CELTYPE
  6
ByLayer
  9
$CECOLOR
 62
256
  9
$CELTSCALE
 40
1.0
  9
$DISPSILH
 70
0
  9
$DIMSCALE
 40
1.0
  9
$DIMASZ
 40
2.5
  9
$DIMEXO
 40
0.625
  9
$DIMDLI
 40
3.75
  9
$DIMRND
 40
0.0
  9
$DIMDLE
 40
0.0
  9
$DIMEXE
 40
1.25
  9
$DIMTP
 40
0.0
  9
$DIMTM
 40
0.0
  9
$DIMTXT
 40
2.5
  9
$DIMCEN
 40
2.5
  9
$DIMTSZ
 40
0.0
  9
$DIMTOL
 70
0
  9
$DIMLIM
 70
0
  9
$DIMTIH
 70
0
  9
$DIMTOH
 70
0
  9
$DIMSE1
 70
0
  9
$DIMSE2
 70
0
  9
$DIMTAD
 70
1
  9
$DIMZIN
 70
8
  9
$DIMBLK
  1

  9
$DIMASO
 70
1
  9
$DIMSHO
 70
1
  9
$DIMPOST
  1

  9
$DIMAPOST
  1

  9
$DIMALT
 70
0
  9
$DIMALTD
 70
3
  9
$DIMALTF
 40
0.03937007874
  9
$DIMLFAC
 40
1.0
  9
$DIMTOFL
 70
1
  9
$DIMTVP
 40
0.0
  9
$DIMTIX
 70
0
  9
$DIMSOXD
 70
0
  9
$DIMSAH
 70
0
  9
$DIMBLK1
  1

  9
$DIMBLK2
  1

  9
$DIMSTYLE
  2
ISO-25
  9
$DIMCLRD
 70
0
  9
$DIMCLRE
 70
0
  9
$DIMCLRT
 70
0
  9
$DIMTFAC
 40
1.0
  9
$DIMGAP
 40
0.625
  9
$DIMJUST
 70
0
  9
$DIMSD1
 70
0
  9
$DIMSD2
 70
0
  9
$DIMTOLJ
 70
0
  9
$DIMTZIN
 70
8
  9
$DIMALTZ
 70
0
  9
$DIMALTTZ
 70
0
  9
$DIMUPT
 70
0
  9
$DIMDEC
 70
2
  9
$DIMTDEC
 70
2
  9
$DIMALTU
 70
2
  9
$DIMALTTD
 70
3
  9
$DIMTXSTY
  7
Standard
  9
$DIMAUNIT
 70
0
  9
$DIMADEC
 70
0
  9
$DIMALTRND
 40
0.0
  9
$DIMAZIN
 70
0
  9
$DIMDSEP
 70
44
  9
$DIMATFIT
 70
3
  9
$DIMFRAC
 70
0
  9
$DIMLDRBLK
  1

  9
$DIMLUNIT
 70
2
  9
$DIMLWD
 70
-2
  9
$DIMLWE
 70
-2
  9
$DIMTMOVE
 70
0
  9
$DIMFXL
 40
1.0
  9
$DIMFXLON
 70
0
  9
$DIMJOGANG
 40
0.785398163397
  9
$DIMTFILL
 70
0
  9
$DIMTFILLCLR
 70
0
  9
$DIMARCSYM
 70
0
  9
$DIMLTYPE
  6

  9
$DIMLTEX1
  6

  9
$DIMLTEX2
  6

  9
$DIMTXTDIRECTION
 70
0
  9
$LUNITS
 70
2
  9
$LUPREC
 70
4
  9
$SKETCHINC
 40
1.0
  9
$FILLETRAD
 40
10.0
  9
$AUNITS
 70
0
  9
$AUPREC
 70
2
  9
$MENU
  1
.
  9
$ELEVATION
 40
0.0
  9
$PELEVATION
 40
0.0
  9
$THICKNESS
 40
0.0
  9
$LIMCHECK
 70
0
  9
$CHAMFERA
 40
0.0
  9
$CHAMFERB
 40
0.0
  9
$CHAMFERC
 40
0.0
  9
$CHAMFERD
 40
0.0
  9
$SKPOLY
 70
0
  9
$TDCREATE
 40
2461308.063483796
  9
$TDUCREATE
 40
2458532.153996898
  9
$TDUPDATE
 40
2461308.063483796
  9
$TDUUPDATE
 40
2458532.1544311
  9
$TDINDWG
 40
0.0
  9
$TDUSRTIMER
 40
0.0
  9
$USRTIMER
 70
1
  9
$ANGBASE
 50
0.0
  9
$ANGDIR
 70
0
  9
$PDMODE
 70
0
  9
$PDSIZE
 40
0.0
  9
$PLINEWID
 40
0.0
  9
$SPLFRAME
 70
0
  9
$SPLINETYPE
 70
6
  9
$SPLINESEGS
 70
8
  9
$HANDSEED
  5
3D
  9
$SURFTAB1
 70
6
  9
$SURFTAB2
 70
6
  9
$SURFTYPE
 70
6
  9
$SURFU
 70
6
  9
$SURFV
 70
6
  9
$UCSBASE
  2

  9
$UCSNAME
  2

  9
$UCSORG
 10
0.0
 20
0.0
 30
0.0
  9
$UCSXDIR
 10
1.0
 20
0.0
 30
0.0
  9
$UCSYDIR
 10
0.0
 20
1.0
 30
0.0
  9
$UCSORTHOREF
  2

  9
$UCSORTHOVIEW
 70
0
  9
$UCSORGTOP
 10
0.0
 20
0.0
 30
0.0
  9
$UCSORGBOTTOM
 10
0.0
 20
0.0
 30
0.0
  9
$UCSORGLEFT
 10
0.0
 20
0.0
 30
0.0
  9
$UCSORGRIGHT
 10
0.0
 20
0.0
 30
0.0
  9
$UCSORGFRONT
 10
0.0
 20
0.0
 30
0.0
  9
$UCSORGBACK
 10
0.0
 20
0.0
 30
0.0
  9
$PUCSBASE
  2

  9
$PUCSNAME
  2

  9
$PUCSORG
 10
0.0
 20
0.0
 30
0.0
  9
$PUCSXDIR
 10
1.0
 20
0.0
 30
0.0
  9
$PUCSYDIR
 10
0.0
 20
1.0
 30
0.0
  9
$PUCSORTHOREF
  2

  9
$PUCSORTHOVIEW
 70
0
  9
$PUCSORGTOP
 10
0.0
 20
0.0
 30
0.0
  9
$PUCSORGBOTTOM
 10
0.0
 20
0.0
 30
0.0
  9
$PUCSORGLEFT
 10
0.0
 20
0.0
 30
0.0
  9
$PUCSORGRIGHT
 10
0.0
 20
0.0
 30
0.0
  9
$PUCSORGFRONT
 10
0.0
 20
0.0
 30
0.0
  9
$PUCSORGBACK
 10
0.0
 20
0.0
 30
0.0
  9
$USERI1
 70
0
  9
$USERI2
 70
0
  9
$USERI3
 70
0
  9
$USERI4
 70
0
  9
$USERI5
 70
0
  9
$USERR1
 40
0.0
  9
$USERR2
 40
0.0
  9
$USERR3
 40
0.0
  9
$USERR4
 40
0.0
  9
$USERR5
 40
0.0
  9
$WORLDVIEW
 70
1
  9
$SHADEDGE
 70
3
  9
$SHADEDIF
 70
70
  9
$TILEMODE
 70
1
  9
$MAXACTVP
 70
64
  9
$PINSBASE
 10
0.0
 20
0.0
 30
0.0
  9
$PLIMCHECK
 70
0
  9
$PEXTMIN
 10
1e+20
 20
1e+20
 30
1e+20
  9
$PEXTMAX
 10
-1e+20
 20
-1e+20
 30
-1e+20
  9
$PLIMMIN
 10
0.0
 20
0.0
  9
$PLIMMAX
 10
420.0
 20
297.0
  9
$UNITMODE
 70
0
  9
$VISRETAIN
 70
1
  9
$PLINEGEN
 70
0
  9
$PSLTSCALE
 70
1
  9
$TREEDEPTH
 70
3020
  9
$CMLSTYLE
  2
Standard
  9
$CMLJUST
 70
0
  9
$CMLSCALE
 40
20.0
  9
$PROXYGRAPHICS
 70
1
  9
$MEASUREMENT
 70
1
  9
$CELWEIGHT
370
-1
  9
$ENDCAPS
280
0
  9
$JOINSTYLE
280
0
  9
$LWDISPLAY
290
0
  9
$INSUNITS
 70
4
  9
$HYPERLINKBASE
  1

  9
$STYLESHEET
  1

  9
$XEDIT
290
1
  9
$CEPSNTYPE
380
0
  9
$PSTYLEMODE
290
1
  9
$FINGERPRINTGUID
  2
{A4A491D1-025E-4185-A128-1EB136D481D4}
  9
$VERSIONGUID
  2
{46ECE547-9AF0-44B2-BADE-8ED8D27957C7}
  9
$EXTNAMES
290
1
  9
$PSVPSCALE
 40
0.0
  9
$OLESTARTUP
290
0
  9
$SORTENTS
280
127
  9
$INDEXCTL
280
0
  9
$HIDETEXT
280
1
  9
$XCLIPFRAME
280
1
  9
$HALOGAP
280
0
  9
$OBSCOLOR
 70
257
  9
$OBSLTYPE
280
0
  9
$INTERSECTIONDISPLAY
280
0
  9
$INTERSECTIONCOLOR
 70
257
  9
$DIMASSOC
280
2
  9
$PROJECTNAME
  1

  9
$CAMERADISPLAY
290
0
  9
$LENSLENGTH
 40
50.0
  9
$CAMERAHEIGHT
 40
0.0
  9
$STEPSPERSEC
 40
24.0
  9
$STEPSIZE
 40
100.0
  9
$3DDWFPREC
 40
2.0
  9
$PSOLWIDTH
 40
0.005
  9
$PSOLHEIGHT
 40
0.08
  9
$LOFTANG1
 40
1.570796326795
  9
$LOFTANG2
 40
1.570796326795
  9
$LOFTMAG1
 40
0.0
  9
$LOFTMAG2
 40
0.0
  9
$LOFTPARAM
 70
7
  9
$LOFTNORMALS
280
1
  9
$LATITUDE
 40
37.795
  9
$LONGITUDE
 40
-122.394
  9
$NORTHDIRECTION
 40
0.0
  9
$TIMEZONE
 70
-8000
  9
$LIGHTGLYPHDISPLAY
280
1
  9
$TILEMODELIGHTSYNCH
280
1
  9
$CMATERIAL
347
20
  9
$SOLIDHIST
280
0
  9
$SHOWHIST
280
1
  9
$DWFFRAME
280
2
  9
$DGNFRAME
280
2
  9
$REALWORLDSCALE
290
1
  9
$INTERFERECOLOR
 62
256
  9
$CSHADOW
280
0
  9
$SHADOWPLANELOCATION
 40
0.0
  0
ENDSEC
  0
SECTION
  2
CLASSES
  0
CLASS
  1
ACDBDICTIONARYWDFLT
  2
AcDbDictionaryWithDefault
  3
ObjectDBX Classes
 90
0
 91
0
280
0
281
0
  0
CLASS
  1
SUN
  2
AcDbSun
  3
SCENEOE
 90
1153
 91
0
280
0
281
0
  0
CLASS
  1
VISUALSTYLE
  2
AcDbVisualStyle
  3
ObjectDBX Classes
 90
4095
 91
0
280
0
281
0
  0
CLASS
  1
MATERIAL
  2
AcDbMaterial
  3
ObjectDBX Classes
 90
1153
 91
0
280
0
281
0
  0
CLASS
  1
SCALE
  2
AcDbScale
  3
ObjectDBX Classes
 90
1153
 91
0
280
0
281
0
  0
CLASS
  1
TABLESTYLE
  2
AcDbTableStyle
  3
ObjectDBX Classes
 90
4095
 91
0
280
0
281
0
  0
CLASS
  1
MLEADERSTYLE
  2
AcDbMLeaderStyle
  3
ACDB_MLEADERSTYLE_CLASS
 90
4095
 91
0
280
0
281
0
  0
CLASS
  1
DICTIONARYVAR
  2
AcDbDictionaryVar
  3
ObjectDBX Classes
 90
0
 91
0
280
0
281
0
  0
CLASS
  1
CELLSTYLEMAP
  2
AcDbCellStyleMap
  3
ObjectDBX Classes
 90
1152
 91
0
280
0
281
0
  0
CLASS
  1
MENTALRAYRENDERSETTINGS
  2
AcDbMentalRayRenderSettings
  3
SCENEOE
 90
1024
 91
0
280
0
281
0
  0
CLASS
  1
ACDBDETAILVIEWSTYLE
  2
AcDbDetailViewStyle
  3
ObjectDBX Classes
 90
1025
 91
0
280
0
281
0
  0
CLASS
  1
ACDBSECTIONVIEWSTYLE
  2
AcDbSectionViewStyle
  3
ObjectDBX Classes
 90
1025
 91
0
280
0
281
0
  0
CLASS
  1
RASTERVARIABLES
  2
AcDbRasterVariables
  3
ISM
 90
0
 91
0
280
0
281
0
  0
CLASS
  1
ACDBPLACEHOLDER
  2
AcDbPlaceHolder
  3
ObjectDBX Classes
 90
0
 91
0
280
0
281
0
  0
CLASS
  1
LAYOUT
  2
AcDbLayout
  3
ObjectDBX Classes
 90
0
 91
0
280
0
281
0
  0
ENDSEC
  0
SECTION
  2
TABLES
  0
TABLE
  2
VPORT
  5
8
330
0
100
AcDbSymbolTable
 70
1
  0
VPORT
  5
23
330
8
100
AcDbSymbolTableRecord
100
AcDbViewportTableRecord
  2
*Active
 70
0
 10
0.0
 20
0.0
 11
1.0
 21
1.0
 12
0.0
 22
0.0
 13
0.0
 23
0.0
 14
0.5
 24
0.5
 15
0.5
 25
0.5
 16
0.0
 26
0.0
 36
1.0
 17
0.0
 27
0.0
 37
0.0
 40
1000.0
 41
1.34
 42
50.0
 43
0.0
 44
0.0
 50
0.0
 51
0.0
 71
0
 72
1000
 73
1
 74
3
 75
0
 76
0
 77
0
 78
0
281
0
 65
0
146
0.0
  0
ENDTAB
  0
TABLE
  2
LTYPE
  5
2
330
0
100
AcDbSymbolTable
 70
3
  0
LTYPE
  5
24
330
2
100
AcDbSymbolTableRecord
100
AcDbLinetypeTableRecord
  2
ByBlock
 70
0
  3

 72
65
 73
0
 40
0.0
  0
LTYPE
  5
25
330
2
100
AcDbSymbolTableRecord
100
AcDbLinetypeTableRecord
  2
ByLayer
 70
0
  3

 72
65
 73
0
 40
0.0
  0
LTYPE
  5
26
330
2
100
AcDbSymbolTableRecord
100
AcDbLinetypeTableRecord
  2
Continuous
 70
0
  3

 72
65
 73
0
 40
0.0
  0
ENDTAB
  0
TABLE
  2
LAYER
  5
1
330
0
100
AcDbSymbolTable
 70
2
  0
LAYER
  5
27
330
1
100
AcDbSymbolTableRecord
100
AcDbLayerTableRecord
  2
0
 70
0
 62
7
  6
Continuous
370
-3
390
13
347
21
  0
LAYER
  5
28
330
1
100
AcDbSymbolTableRecord
100
AcDbLayerTableRecord
  2
Defpoints
 70
0
 62
7
  6
Continuous
290
0
370
-3
390
13
347
21
  0
ENDTAB
  0
TABLE
  2
STYLE
  5
5
330
0
100
AcDbSymbolTable
 70
1
  0
STYLE
  5
29
330
5
100
AcDbSymbolTableRecord
100
AcDbTextStyleTableRecord
  2
Standard
 70
0
 40
0.0
 41
1.0
 50
0.0
 71
0
 42
2.5
  3
txt
  4

  0
ENDTAB
  0
TABLE
  2
VIEW
  5
7
330
0
100
AcDbSymbolTable
 70
0
  0
ENDTAB
  0
TABLE
  2
UCS
  5
6
330
0
100
AcDbSymbolTable
 70
0
  0
ENDTAB
  0
TABLE
  2
APPID
  5
3
330
0
100
AcDbSymbolTable
 70
3
  0
APPID
  5
2A
330
3
100
AcDbSymbolTableRecord
100
AcDbRegAppTableRecord
  2
ACAD
 70
0
  0
APPID
  5
3A
330
3
100
AcDbSymbolTableRecord
100
AcDbRegAppTableRecord
  2
HATCHBACKGROUNDCOLOR
 70
0
  0
APPID
  5
3B
330
3
100
AcDbSymbolTableRecord
100
AcDbRegAppTableRecord
  2
EZDXF
 70
0
  0
ENDTAB
  0
TABLE
  2
DIMSTYLE
  5
4
330
0
100
AcDbSymbolTable
 70
1
100
AcDbDimStyleTable
  0
DIMSTYLE
105
2B
330
4
100
AcDbSymbolTableRecord
100
AcDbDimStyleTableRecord
  2
Standard
 70
0
 40
1.0
 41
2.5
 42
0.625
 43
3.75
 44
1.25
 45
0.0
 46
0.0
 47
0.0
 48
0.0
 49
2.5
140
2.5
141
2.5
142
0.0
143
0.03937007874
144
1.0
145
0.0
146
1.0
147
0.625
148
0.0
 69
0
 70
0
 71
0
 72
0
 73
0
 74
0
 75
0
 76
0
 77
1
 78
8
 79
3
170
0
171
3
172
1
173
0
174
0
175
0
176
0
177
0
178
0
179
2
271
2
272
2
273
2
274
3
275
0
276
0
277
2
278
44
279
0
280
0
281
0
282
0
283
0
284
8
285
0
286
0
288
0
289
3
290
0
371
-2
372
-2
  0
ENDTAB
  0
TABLE
  2
BLOCK_RECORD
  5
9
330
0
100
AcDbSymbolTable
 70
2
  0
BLOCK_RECORD
  5
17
330
9
100
AcDbSymbolTableRecord
100
AcDbBlockTableRecord
  2
*Model_Space
340
1A
 70
0
280
1
281
0
  0
BLOCK_RECORD
  5
1B
330
9
100
AcDbSymbolTableRecord
100
AcDbBlockTableRecord
  2
*Paper_Space
340
1E
 70
0
280
1
281
0
  0
ENDTAB
  0
ENDSEC
  0
SECTION
  2
BLOCKS
  0
BLOCK
  5
18
330
17
100
AcDbEntity
  8
0
100
AcDbBlockBegin
  2
*Model_Space
 70
0
 10
0.0
 20
0.0
 30
0.0
  3
*Model_Space
  1

  0
ENDBLK
  5
19
330
17
100
AcDbEntity
  8
0
100
AcDbBlockEnd
  0
BLOCK
  5
1C
330
1B
100
AcDbEntity
  8
0
100
AcDbBlockBegin
  2
*Paper_Space
 70
0
 10
0.0
 20
0.0
 30
0.0
  3
*Paper_Space
  1

  0
ENDBLK
  5
1D
330
1B
100
AcDbEntity
  8
0
100
AcDbBlockEnd
  0
ENDSEC
  0
SECTION
  2
ENTITIES
  0
LWPOLYLINE
  5
2F
330
17
100
AcDbEntity
  8
0
100
AcDbPolyline
 90
318
 70
1
 10
14.74065790100002
 20
43.310649245451
 10
13.93236083779999
 20
44.31126453798801
 10
13.541313213854323
 20
44.8222244685086
 10
5.939748189900001
 20
44.82222446850802
 10
5.939748189900001
 20
50.82222446850857
 10
13.541313213677133
 20
50.82222446849116
 10
13.932360849900022
 20
51.333184414442
 10
14.74065790100002
 20
52.333799691566
 10
15.259839587800002
 20
52.949957714568
 10
15.791641041499986
 20
53.561637504682004
 10
16.335752585699993
 20
54.16869920350601
 10
16.89186454420002
 20
54.771002952634
 10
17.459667240499982
 20
55.368408893663
 10
18.03885099820002
 20
55.960777168187
 10
18.629106140899978
 20
56.547967917804
 10
19.230122992199995
 20
57.129841284109006
 10
19.841515640900013
 20
57.706204603894
 10
20.462916911100024
 20
58.276928089577005
 10
21.09404522950001
 20
58.841966196186
 10
21.73461902309998
 20
59.40127337875101
 10
22.384356718499987
 20
59.954804092302005
 10
23.04297674259999
 20
60.502512791867005
 10
24.385737484000003
 20
61.580281969163
 10
25.759536646799972
 20
62.633385966015
 10
27.16134969630002
 20
63.660934574764006
 10
28.589434146200006
 20
64.663020541092
 10
30.042047509999975
 20
65.63973661068601
 10
31.517065999900012
 20
66.59094696766701
 10
33.0124616576
 20
67.516637611857
 10
34.526635741999996
 20
68.41708401248201
 10
36.05798951169999
 20
69.292561638774
 10
37.6035789636
 20
70.142546033041
 10
39.16083979809997
 20
70.96658715658401
 10
40.72874282959998
 20
71.765072107114
 10
42.30625887230002
 20
72.538387982345
 10
43.89235874079998
 20
73.286921879989
 10
45.48601324919997
 20
74.011060897761
 10
47.08619321189997
 20
74.711192133373
 10
48.69186944310002
 20
75.387702684537
 10
50.3008115783
 20
76.04046977576601
 10
51.911074161700014
 20
76.66935078874701
 10
53.52205537089998
 20
77.274703056961
 10
55.133153383700005
 20
77.856883913885
 10
56.743766377999975
 20
78.41625069299901
 10
58.35329253139997
 20
78.953160727781
 10
59.9611300217
 20
79.46797135170901
 10
61.56667702660002
 20
79.961039898264
 10
63.168390003900015
 20
80.43241577383799
 10
64.76487780579998
 20
80.882079436614
 10
66.3557672018
 20
81.310284797754
 10
67.94068496159997
 20
81.71728576841599
 10
69.51925785489999
 20
82.10333625976202
 10
71.09111265119998
 20
82.46869018295101
 10
72.65587612019999
 20
82.81360144914501
 10
74.2131750314
 20
83.13832396950299
 10
75.76174510430002
 20
83.442904043684
 10
77.30040586719997
 20
83.72730932377999
 10
78.82890980330001
 20
83.991675749598
 10
80.34700939620001
 20
84.236139260947
 10
81.85445712899997
 20
84.46083579763601
 10
83.35100548529999
 20
84.665901299473
 10
84.83640694820002
 20
84.851471706266
 10
86.31041400110001
 20
85.017682957825
 10
87.771516045
 20
85.164509750491
 10
89.21817079200002
 20
85.291816095673
 10
90.65008319269998
 20
85.399571905778
 10
92.06695819739997
 20
85.48774709321398
 10
93.46850214630001
 20
85.556317607692
 10
94.85443607039997
 20
85.605285438567
 10
96.22448695700001
 20
85.63465955771599
 10
97.57838179319995
 20
85.644448937016
 10
298.01019989179997
 20
85.644448937017
 10
305.0101998917
 20
79.82223046696599
 10
305.0101998917
 20
85.644448937016
 10
423.0101998916
 20
85.644448937016
 10
430.0101998916
 20
79.82223046696498
 10
430.01019989160005
 20
85.644448937016
 10
550.66019989669
 20
85.644448937015
 10
550.6601999041
 20
95.644448937016
 10
520.6601999041
 20
95.64444893701601
 10
520.6601999041
 20
90.822230466966
 10
475.604541792121
 20
90.82223046696599
 10
475.604541792121
 20
95.644448937016
 10
97.57838179329997
 20
95.64444893701601
 10
96.68648152259999
 20
95.640595065862
 10
95.4105511418
 20
95.621883852146
 10
94.12226357539998
 20
95.587600649191
 10
92.82570538160002
 20
95.537883965004
 10
91.51167360710002
 20
95.472318141771
 10
89.9639553541
 20
95.37600783845
 10
88.40427998199999
 20
95.25864414913599
 10
86.83288086800002
 20
95.12036271961199
 10
85.24999138969997
 20
94.961299195661
 10
83.65626253329998
 20
94.78159362013801
 10
82.052342173
 20
94.58122552789101
 10
80.438459018
 20
94.360089802687
 10
78.81484177789997
 20
94.11808132829199
 10
77.18171916210002
 20
93.85509498847199
 10
75.5393198799
 20
93.571025666994
 10
73.88787264079997
 20
93.26576824762401
 10
72.22760615409999
 20
92.93921761412801
 10
70.55907760529999
 20
92.59130378655101
 10
68.8829420797
 20
92.221846730572
 10
67.19957513719999
 20
91.830576248406
 10
65.50935233730002
 20
91.417222142269
 10
63.81264923970002
 20
90.98151421437899
 10
62.10984140419998
 20
90.52318226695002
 10
60.40130439029997
 20
90.041956102199
 10
58.6874137579
 20
89.53756552234199
 10
56.96891403080002
 20
89.009811359301
 10
55.24671916620002
 20
88.458390977107
 10
53.5214588728
 20
87.88287897614201
 10
51.793762859399976
 20
87.28284995678601
 10
50.06426083499997
 20
86.657878519424
 10
48.33358250829997
 20
86.007539264434
 10
46.60235758819999
 20
85.331406792201
 10
44.87121578350002
 20
84.62905570310599
 10
43.141288662600004
 20
83.900207551004
 10
41.41401868999998
 20
83.14449848697899
 10
39.69050191859998
 20
82.361375007259
 10
37.971834401699994
 20
81.550283608073
 10
36.25911219239998
 20
80.71067078564701
 10
34.55343134359998
 20
79.841983036208
 10
32.85588790859998
 20
78.94366685598601
 10
31.167577940499996
 20
78.015168741205
 10
29.490183594100017
 20
77.056198631186
 10
27.825811182099983
 20
76.066428862053
 10
26.17619299339998
 20
75.045249525244
 10
24.543061317100012
 20
73.99205071219602
 10
22.92832442079998
 20
72.90632374716401
 10
21.334054139399996
 20
71.78761953169901
 10
20.545211992100008
 20
71.21573828548401
 10
19.762228113800006
 20
70.635417523178
 10
18.985349709499985
 20
70.04659217694899
 10
18.21482398439997
 20
69.449197178975
 10
17.451012161999984
 20
68.843247444878
 10
16.694332529400015
 20
68.22877556773601
 10
15.945117886899993
 20
67.605742995896
 10
15.203701034599987
 20
66.974111177705
 10
14.470414773000016
 20
66.33384156151001
 10
13.745591902199976
 20
65.684895595658
 10
13.029565222499969
 20
65.027234728497
 10
12.32266753419998
 20
64.360820408372
 10
11.625268817000006
 20
63.685648386129
 10
10.937779876399986
 20
63.00176025765
 10
10.260594751300005
 20
62.30918623884801
 10
9.594107480899993
 20
61.607956545631005
 10
8.93871210430001
 20
60.898101393907005
 10
8.294802660500011
 20
60.17965099959001
 10
7.662773188500012
 20
59.45263557858701
 10
7.0430177272999686
 20
58.717085346807
 10
6.435926029600012
 20
57.973030221503
 10
5.84192467470001
 20
57.220584190769
 10
5.261462942600019
 20
56.459903576779
 10
4.694990113100005
 20
55.691144701707
 10
4.142955465999989
 20
54.91446388772701
 10
3.6058082810999963
 20
54.13001745701101
 10
3.0839978384000233
 20
53.33796173173501
 10
2.577973417400017
 20
52.538453034069
 10
1.8816764584000225
 20
51.380983096114
 10
1.2191101216999982
 20
50.20844112860801
 10
0.5914820785000076
 20
49.021847972443005
 10
0.0
 20
47.82222446850798
 10
0.5914820785000074
 20
46.622600964574005
 10
1.2191101216999982
 20
45.436007808409
 10
1.8816764584000225
 20
44.263465840904004
 10
2.577973417400017
 20
43.105995902947
 10
3.0839978384000233
 20
42.306487205282004
 10
3.6058082810999963
 20
41.51443148000501
 10
4.142955465999989
 20
40.729985049289006
 10
4.694990113100005
 20
39.953304235308
 10
5.261462942600019
 20
39.184545360237
 10
5.84192467470001
 20
38.423864746247006
 10
6.435926029600012
 20
37.671418715520005
 10
7.0430177272999686
 20
36.92736359021
 10
7.662773188500012
 20
36.19181335844001
 10
8.294802660500011
 20
35.464797937430006
 10
8.93871210430001
 20
34.746347543119995
 10
9.594107480899993
 20
34.03649239139
 10
10.260594751300005
 20
33.33526269818
 10
10.937779876399986
 20
32.64268867938
 10
11.625268817000006
 20
31.9588005509
 10
12.32266753419998
 20
31.283628528650002
 10
13.029565222499969
 20
30.617214208530005
 10
13.745591902199976
 20
29.959553341370004
 10
14.470414773000016
 20
29.310607375520004
 10
15.203701034599987
 20
28.670337759320002
 10
15.945117886899993
 20
28.038705941130004
 10
16.694332529400015
 20
27.41567336929
 10
17.451012161999984
 20
26.801201492150003
 10
18.214823984299983
 20
26.195251758050002
 10
18.985349709499985
 20
25.597856760080003
 10
19.762228113800006
 20
25.009031413850003
 10
20.545211992100008
 20
24.42871065154
 10
21.334054139399996
 20
23.856829405320003
 10
22.92832442079998
 20
22.738125189860003
 10
24.543061317100012
 20
21.65239822483
 10
26.17619299339998
 20
20.599199411790003
 10
27.825811182099983
 20
19.578020074970002
 10
29.490183594100017
 20
18.588250305840003
 10
31.167577940400008
 20
17.62928019582
 10
32.85588790859998
 20
16.700782081040003
 10
34.55343134359998
 20
15.802465900819996
 10
36.25911219239998
 20
14.933778151379997
 10
37.971834401699994
 20
14.094165328949998
 10
39.69050191859998
 20
13.283073929769998
 10
41.41401868999998
 20
12.499950450039996
 10
43.141288662600004
 20
11.74424138602
 10
44.87121578350002
 20
11.015393233909997
 10
46.60235758819999
 20
10.313042144820002
 10
48.33358250829997
 20
9.63690967259
 10
50.06426083499997
 20
8.9865704176
 10
51.793762859399976
 20
8.361598980239997
 10
53.5214588728
 20
7.76156996089
 10
55.24671916620002
 20
7.186057959919999
 10
56.96891403080002
 20
6.634637577729997
 10
58.687413757800016
 20
6.106883414679999
 10
60.40130439029997
 20
5.602492834830002
 10
62.10984140419998
 20
5.121266670079997
 10
63.81264923970002
 20
4.66293472265
 10
65.50935233730002
 20
4.227226794750003
 10
67.19957513719999
 20
3.813872688620002
 10
68.8829420797
 20
3.4226022064500015
 10
70.55907760529999
 20
3.0531451504700016
 10
72.22760615409999
 20
2.7052313228900005
 10
73.88787264079997
 20
2.3786806893999994
 10
75.5393198799
 20
2.0734232700299984
 10
77.18171916210002
 20
1.7893539485500014
 10
78.81484177789997
 20
1.5263676087299984
 10
80.438459018
 20
1.2843591343400007
 10
82.052342173
 20
1.0632234091299964
 10
83.65626253329998
 20
0.8628553168899984
 10
85.24999138969997
 20
0.6831497413599976
 10
86.83288086800002
 20
0.5240862174100016
 10
88.40427998199999
 20
0.3858047878900024
 10
89.9639553541
 20
0.26844109857999854
 10
91.51167360699998
 20
0.17213079524999841
 10
92.06641500159998
 20
0.14261182098000091
 10
93.19228074929998
 20
0.09098366175000194
 10
94.3076735098
 20
0.05097686474000085
 10
95.41311200979999
 20
0.022512203769998965
 10
96.50374663409997
 20
0.005587620919996539
 10
97.57838179319998
 20
0.0
 10
475.604541792122
 20
0.0
 10
475.604541792121
 20
4.822187239039998
 10
520.660199904101
 20
4.822187239039998
 10
520.6601999041011
 20
0.0
 10
550.6601998966901
 20
0.0
 10
550.66019989083
 20
10.0
 10
430.01019989161
 20
10.0000006665
 10
430.0101998916
 20
15.822230466970003
 10
423.0101998916
 20
10.0
 10
305.0101998917
 20
10.00000549923
 10
305.0101998917
 20
15.822230466970002
 10
298.0101998916
 20
10.0
 10
97.57838179319998
 20
10.0
 10
96.22448695700001
 20
10.00978937931
 10
94.85443607039997
 20
10.039163498459999
 10
93.46850214630001
 20
10.088131329329997
 10
92.06695819739997
 20
10.156701843809998
 10
90.65008319269998
 20
10.244877031249999
 10
89.21817079200002
 20
10.352632841350001
 10
87.771516045
 20
10.479939186529997
 10
86.31041400110001
 20
10.626765979200002
 10
84.83640694820002
 20
10.792977230760002
 10
83.35100548529999
 20
10.978547637559998
 10
81.85445712899997
 20
11.183613139389998
 10
80.34700939620001
 20
11.408309676080002
 10
78.82890980330001
 20
11.65277318743
 10
77.30040586719997
 20
11.91713961325
 10
75.76174510430002
 20
12.20154489334
 10
74.2131750314
 20
12.506124967520002
 10
72.65587612019999
 20
12.83084748788
 10
71.09111265119998
 20
13.175758754069996
 10
69.51925785489999
 20
13.541112677260003
 10
67.94068496159997
 20
13.92716316861
 10
66.3557672018
 20
14.334164139270001
 10
64.76487780579998
 20
14.762369500410003
 10
63.168390003900015
 20
15.21203316319
 10
61.56667702660002
 20
15.683409038759997
 10
59.9611300217
 20
16.176477585320004
 10
58.35329253139997
 20
16.691288209240003
 10
56.743766377999975
 20
17.228198244020003
 10
55.133153383700005
 20
17.787565023140004
 10
53.52205537089998
 20
18.36974588006
 10
51.911074161700014
 20
18.975098148280004
 10
50.3008115783
 20
19.603979161260003
 10
48.69186944310002
 20
20.256746252480003
 10
47.08619321189997
 20
20.933256803650004
 10
45.48601324919997
 20
21.63338803926
 10
43.89235874079998
 20
22.357527057040002
 10
42.30625887230002
 20
23.106060954680004
 10
40.72874282959998
 20
23.879376829910004
 10
39.16083979809997
 20
24.677861780440004
 10
37.6035789636
 20
25.501902903990004
 10
36.05798951169999
 20
26.351887298250002
 10
34.526635741999996
 20
27.22736492454
 10
33.0124616576
 20
28.127811325170004
 10
31.517065999900012
 20
29.053501969360003
 10
30.042047509999975
 20
30.004712326330004
 10
28.589434146200006
 20
30.981428395930003
 10
27.16134969630002
 20
31.983514362260006
 10
25.759536646799972
 20
33.011062971010006
 10
24.385737484000003
 20
34.064166967860004
 10
23.04297674259999
 20
35.14193614516
 10
22.384356718499987
 20
35.68964484472001
 10
21.73461902309998
 20
36.24317555827
 10
21.09404522950001
 20
36.802482740840006
 10
20.462916911100024
 20
37.367520847440005
 10
19.841515640900013
 20
37.938244333122
 10
19.230122992199995
 20
38.514607652908
 10
18.629106140899978
 20
39.096481019213
 10
18.03885099820002
 20
39.683671768829
 10
17.459667240499982
 20
40.276040043354
 10
16.89186454420002
 20
40.873445984382
 10
16.335752585699993
 20
41.475749733511
 10
15.791641041499986
 20
42.082811432334005
 10
15.259839587800002
 20
42.694491222449
  0
LWPOLYLINE
  5
30
330
17
100
AcDbEntity
  8
0
100
AcDbPolyline
 90
32
 70
1
 10
101.72413000809999
 20
5.000000000009983
 10
101.70491528850322
 20
5.195090322026111
 10
101.64800954061128
 20
5.382683432375073
 10
101.55559962040253
 20
5.555570233029585
 10
101.43123678928654
 20
5.707106781196531
 10
101.2797002411196
 20
5.831469612312528
 10
101.10681344046507
 20
5.92387953252127
 10
100.91922033011612
 20
5.980785280413214
 10
100.72413000809999
 20
6.000000000009983
 10
100.52903968608386
 20
5.980785280413214
 10
100.3414465757349
 20
5.92387953252127
 10
100.16855977508038
 20
5.831469612312528
 10
100.01702322691344
 20
5.707106781196531
 10
99.89266039579745
 20
5.555570233029585
 10
99.8002504755887
 20
5.382683432375073
 10
99.74334472769677
 20
5.195090322026111
 10
99.72413000809999
 20
5.000000000009982
 10
99.74334472769677
 20
4.804909677993854
 10
99.8002504755887
 20
4.617316567644893
 10
99.89266039579745
 20
4.44442976699038
 10
100.01702322691344
 20
4.292893218823434
 10
100.1685597750804
 20
4.168530387707437
 10
100.3414465757349
 20
4.076120467498695
 10
100.52903968608386
 20
4.019214719606753
 10
100.72413000809999
 20
4.000000000009983
 10
100.91922033011612
 20
4.019214719606754
 10
101.10681344046509
 20
4.076120467498698
 10
101.2797002411196
 20
4.16853038770744
 10
101.43123678928654
 20
4.292893218823438
 10
101.55559962040253
 20
4.444429766990384
 10
101.64800954061128
 20
4.617316567644897
 10
101.70491528850322
 20
4.804909677993859
  0
LWPOLYLINE
  5
31
330
17
100
AcDbEntity
  8
0
100
AcDbPolyline
 90
32
 70
1
 10
21.72413000810002
 20
65.058726962393
 10
21.704915288503248
 20
65.25381728440912
 10
21.648009540611305
 20
65.44141039475808
 10
21.555599620402564
 20
65.6142971954126
 10
21.431236789286565
 20
65.76583374357955
 10
21.27970024111962
 20
65.89019657469554
 10
21.10681344046511
 20
65.98260649490429
 10
20.919220330116147
 20
66.03951224279622
 10
20.72413000810002
 20
66.058726962393
 10
20.52903968608389
 20
66.03951224279622
 10
20.34144657573493
 20
65.98260649490429
 10
20.168559775080418
 20
65.89019657469554
 10
20.017023226913473
 20
65.76583374357955
 10
19.892660395797474
 20
65.6142971954126
 10
19.800250475588733
 20
65.44141039475808
 10
19.74334472769679
 20
65.25381728440912
 10
19.72413000810002
 20
65.058726962393
 10
19.74334472769679
 20
64.86363664037687
 10
19.800250475588733
 20
64.67604353002791
 10
19.892660395797474
 20
64.50315672937339
 10
20.017023226913473
 20
64.35162018120644
 10
20.168559775080418
 20
64.22725735009045
 10
20.34144657573493
 20
64.1348474298817
 10
20.529039686083895
 20
64.07794168198977
 10
20.724130008100023
 20
64.058726962393
 10
20.91922033011615
 20
64.07794168198977
 10
21.10681344046511
 20
64.13484742988172
 10
21.279700241119624
 20
64.22725735009045
 10
21.43123678928657
 20
64.35162018120646
 10
21.555599620402567
 20
64.5031567293734
 10
21.648009540611305
 20
64.67604353002791
 10
21.70491528850325
 20
64.86363664037687
  0
LWPOLYLINE
  5
32
330
17
100
AcDbEntity
  8
0
100
AcDbPolyline
 90
32
 70
1
 10
201.7241300081
 20
90.644448937016
 10
201.70491528850323
 20
90.83953925903212
 10
201.64800954061127
 20
91.02713236938108
 10
201.55559962040255
 20
91.2000191700356
 10
201.43123678928654
 20
91.35155571820255
 10
201.2797002411196
 20
91.47591854931854
 10
201.1068134404651
 20
91.56832846952729
 10
200.91922033011613
 20
91.62523421741923
 10
200.7241300081
 20
91.644448937016
 10
200.52903968608385
 20
91.62523421741923
 10
200.3414465757349
 20
91.56832846952729
 10
200.16855977508038
 20
91.47591854931854
 10
200.01702322691344
 20
91.35155571820255
 10
199.89266039579744
 20
91.2000191700356
 10
199.8002504755887
 20
91.02713236938108
 10
199.74334472769675
 20
90.83953925903212
 10
199.7241300081
 20
90.644448937016
 10
199.74334472769675
 20
90.44935861499987
 10
199.8002504755887
 20
90.2617655046509
 10
199.89266039579744
 20
90.08887870399639
 10
200.01702322691344
 20
89.93734215582944
 10
200.16855977508038
 20
89.81297932471344
 10
200.3414465757349
 20
89.7205694045047
 10
200.52903968608388
 20
89.66366365661275
 10
200.7241300081
 20
89.644448937016
 10
200.91922033011613
 20
89.66366365661275
 10
201.1068134404651
 20
89.7205694045047
 10
201.2797002411196
 20
89.81297932471345
 10
201.43123678928654
 20
89.93734215582944
 10
201.55559962040255
 20
90.0888787039964
 10
201.64800954061127
 20
90.26176550465091
 10
201.70491528850323
 20
90.44935861499987
  0
LWPOLYLINE
  5
33
330
17
100
AcDbEntity
  8
0
100
AcDbPolyline
 90
32
 70
1
 10
101.72413000809999
 20
90.64444893701602
 10
101.70491528850322
 20
90.83953925903215
 10
101.64800954061128
 20
91.0271323693811
 10
101.55559962040253
 20
91.20001917003563
 10
101.43123678928654
 20
91.35155571820258
 10
101.2797002411196
 20
91.47591854931856
 10
101.10681344046507
 20
91.56832846952732
 10
100.91922033011612
 20
91.62523421741925
 10
100.72413000809999
 20
91.64444893701602
 10
100.52903968608386
 20
91.62523421741925
 10
100.3414465757349
 20
91.56832846952732
 10
100.16855977508038
 20
91.47591854931856
 10
100.01702322691344
 20
91.35155571820258
 10
99.89266039579745
 20
91.20001917003563
 10
99.8002504755887
 20
91.0271323693811
 10
99.74334472769677
 20
90.83953925903215
 10
99.72413000809999
 20
90.64444893701602
 10
99.74334472769677
 20
90.4493586149999
 10
99.8002504755887
 20
90.26176550465094
 10
99.89266039579745
 20
90.08887870399641
 10
100.01702322691344
 20
89.93734215582947
 10
100.1685597750804
 20
89.81297932471348
 10
100.3414465757349
 20
89.72056940450473
 10
100.52903968608386
 20
89.6636636566128
 10
100.72413000809999
 20
89.64444893701602
 10
100.91922033011612
 20
89.6636636566128
 10
101.10681344046509
 20
89.72056940450474
 10
101.2797002411196
 20
89.81297932471348
 10
101.43123678928654
 20
89.93734215582948
 10
101.55559962040253
 20
90.08887870399643
 10
101.64800954061128
 20
90.26176550465094
 10
101.70491528850322
 20
90.4493586149999
  0
LWPOLYLINE
  5
34
330
17
100
AcDbEntity
  8
0
100
AcDbPolyline
 90
32
 70
1
 10
21.72413000810002
 20
30.585721974640002
 10
21.704915288503248
 20
30.78081229665613
 10
21.648009540611305
 20
30.96840540700509
 10
21.555599620402564
 20
31.141292207659603
 10
21.431236789286565
 20
31.292828755826548
 10
21.27970024111962
 20
31.417191586942547
 10
21.10681344046511
 20
31.509601507151288
 10
20.919220330116147
 20
31.56650725504323
 10
20.72413000810002
 20
31.585721974640002
 10
20.52903968608389
 20
31.56650725504323
 10
20.34144657573493
 20
31.509601507151288
 10
20.168559775080418
 20
31.417191586942547
 10
20.017023226913473
 20
31.292828755826548
 10
19.892660395797474
 20
31.141292207659603
 10
19.800250475588733
 20
30.96840540700509
 10
19.74334472769679
 20
30.78081229665613
 10
19.72413000810002
 20
30.585721974640002
 10
19.74334472769679
 20
30.390631652623874
 10
19.800250475588733
 20
30.20303854227491
 10
19.892660395797474
 20
30.0301517416204
 10
20.017023226913473
 20
29.878615193453452
 10
20.168559775080418
 20
29.754252362337457
 10
20.34144657573493
 20
29.661842442128716
 10
20.529039686083895
 20
29.604936694236773
 10
20.724130008100023
 20
29.585721974640002
 10
20.91922033011615
 20
29.604936694236773
 10
21.10681344046511
 20
29.661842442128716
 10
21.279700241119624
 20
29.75425236233746
 10
21.43123678928657
 20
29.878615193453456
 10
21.555599620402567
 20
30.030151741620404
 10
21.648009540611305
 20
30.203038542274918
 10
21.70491528850325
 20
30.390631652623878
  0
LWPOLYLINE
  5
35
330
17
100
AcDbEntity
  8
0
100
AcDbPolyline
 90
32
 70
1
 10
201.7241300081
 20
5.000000000010004
 10
201.70491528850323
 20
5.195090322026133
 10
201.64800954061127
 20
5.382683432375096
 10
201.55559962040255
 20
5.555570233029608
 10
201.43123678928654
 20
5.707106781196554
 10
201.2797002411196
 20
5.831469612312552
 10
201.1068134404651
 20
5.923879532521294
 10
200.91922033011613
 20
5.9807852804132375
 10
200.7241300081
 20
6.000000000010008
 10
200.52903968608385
 20
5.9807852804132375
 10
200.3414465757349
 20
5.923879532521294
 10
200.16855977508038
 20
5.831469612312552
 10
200.01702322691344
 20
5.707106781196554
 10
199.89266039579744
 20
5.555570233029608
 10
199.8002504755887
 20
5.382683432375095
 10
199.74334472769675
 20
5.195090322026132
 10
199.7241300081
 20
5.0000000000100036
 10
199.74334472769675
 20
4.804909677993875
 10
199.8002504755887
 20
4.617316567644912
 10
199.89266039579744
 20
4.4444297669904
 10
200.01702322691344
 20
4.292893218823454
 10
200.16855977508038
 20
4.168530387707456
 10
200.3414465757349
 20
4.076120467498714
 10
200.52903968608388
 20
4.0192147196067705
 10
200.7241300081
 20
4.000000000010001
 10
200.91922033011613
 20
4.019214719606771
 10
201.1068134404651
 20
4.076120467498716
 10
201.2797002411196
 20
4.168530387707459
 10
201.43123678928654
 20
4.292893218823457
 10
201.55559962040255
 20
4.444429766990403
 10
201.64800954061127
 20
4.617316567644917
 10
201.70491528850323
 20
4.804909677993879
  0
LWPOLYLINE
  5
36
330
17
100
AcDbEntity
  8
0
100
AcDbPolyline
 90
39
 70
1
 10
537.1601999033201
 20
90.644448939338
 10
537.140775297277
 20
90.88506586062465
 10
537.0830045662408
 20
91.11945093004022
 10
536.9883839417998
 20
91.34153369740366
 10
536.8593640484253
 20
91.54556233569497
 10
536.6992864335845
 20
91.72625261035373
 10
536.5122970234167
 20
91.87892473817848
 10
536.3032387454247
 20
91.99962459125358
 10
536.0775260991948
 20
92.08522610678506
 10
535.841004923703
 20
92.13351225048508
 10
535.5998009931559
 20
92.14323243659535
 10
535.360161362656
 20
92.1141349174014
 10
535.1282925727562
 20
92.04697330336613
 10
534.9101999033201
 20
91.94348704501466
 10
534.711531839927
 20
91.80635638207949
 10
534.5374337810634
 20
91.63913292669919
 10
534.3924147750043
 20
91.44614767852971
 10
534.2802307378319
 20
91.23239885412812
 10
534.203787177181
 20
91.00342243576934
 10
534.1650639411188
 20
90.7651487924131
 10
534.1650639411188
 20
90.52374908626291
 10
534.203787177181
 20
90.28547544290667
 10
534.2802307378319
 20
90.05649902454789
 10
534.3924147750043
 20
89.8427502001463
 10
534.5374337810634
 20
89.6497649519768
 10
534.711531839927
 20
89.48254149659653
 10
534.9101999033201
 20
89.34541083366135
 10
535.1282925727562
 20
89.24192457530988
 10
535.360161362656
 20
89.17476296127461
 10
535.5998009931559
 20
89.14566544208066
 10
535.841004923703
 20
89.15538562819093
 10
536.0775260991948
 20
89.20367177189095
 10
536.3032387454247
 20
89.28927328742243
 10
536.5122970234167
 20
89.40997314049753
 10
536.6992864335845
 20
89.56264526832229
 10
536.8593640484253
 20
89.74333554298104
 10
536.9883839417998
 20
89.94736418127236
 10
537.0830045662408
 20
90.1694469486358
 10
537.140775297277
 20
90.40383201805138
  0
LWPOLYLINE
  5
37
330
17
100
AcDbEntity
  8
0
100
AcDbPolyline
 90
39
 70
1
 10
537.16019990313
 20
4.999999995249993
 10
537.1407752970869
 20
5.240616916536633
 10
537.0830045660507
 20
5.475001985952202
 10
536.9883839416098
 20
5.697084753315647
 10
536.8593640482352
 20
5.901113391606962
 10
536.6992864333944
 20
6.081803666265715
 10
536.5122970232267
 20
6.234475794090478
 10
536.3032387452346
 20
6.3551756471655665
 10
536.0775260990047
 20
6.440777162697052
 10
535.841004923513
 20
6.489063306397075
 10
535.5998009929658
 20
6.498783492507348
 10
535.3601613624659
 20
6.469685973313395
 10
535.1282925725661
 20
6.402524359278116
 10
534.91019990313
 20
6.299038100926651
 10
534.711531839737
 20
6.161907437991475
 10
534.5374337808734
 20
5.994683982611186
 10
534.3924147748143
 20
5.801698734441695
 10
534.2802307376418
 20
5.587949910040106
 10
534.2037871769909
 20
5.35897349168133
 10
534.1650639409287
 20
5.120699848325081
 10
534.1650639409287
 20
4.879300142174904
 10
534.2037871769909
 20
4.641026498818656
 10
534.2802307376418
 20
4.4120500804598795
 10
534.3924147748143
 20
4.198301256058291
 10
534.5374337808734
 20
4.0053160078887995
 10
534.711531839737
 20
3.8380925525085106
 10
534.91019990313
 20
3.7009618895733345
 10
535.1282925725661
 20
3.5974756312218705
 10
535.3601613624659
 20
3.5303140171865914
 10
535.5998009929658
 20
3.5012164979926386
 10
535.841004923513
 20
3.510936684102913
 10
536.0775260990047
 20
3.5592228278029356
 10
536.3032387452346
 20
3.644824343334421
 10
536.5122970232267
 20
3.765524196409511
 10
536.6992864333944
 20
3.918196324234274
 10
536.8593640482352
 20
4.098886598893028
 10
536.9883839416098
 20
4.302915237184345
 10
537.0830045660507
 20
4.524998004547789
 10
537.1407752970869
 20
4.759383073963358
  0
LWPOLYLINE
  5
38
330
17
100
AcDbEntity
  8
0
100
AcDbPolyline
 90
39
 70
1
 10
457.16067926483197
 20
90.921392275295
 10
457.14125465878885
 20
91.16200919658165
 10
457.0834839277527
 20
91.39639426599722
 10
456.9888633033118
 20
91.61847703336066
 10
456.85984340993724
 20
91.82250567165197
 10
456.69976579509637
 20
92.00319594631073
 10
456.5127763849287
 20
92.15586807413548
 10
456.30371810693657
 20
92.27656792721058
 10
456.07800546070666
 20
92.36216944274206
 10
455.84148428521496
 20
92.41045558644208
 10
455.60028035466786
 20
92.42017577255235
 10
455.3606407241679
 20
92.3910782533584
 10
455.1287719342682
 20
92.32391663932313
 10
454.91067926483197
 20
92.22043038097166
 10
454.7120112014389
 20
92.08329971803649
 10
454.5379131425753
 20
91.9160762626562
 10
454.3928941365163
 20
91.72309101448671
 10
454.2807100993437
 20
91.50934219008512
 10
454.2042665386929
 20
91.28036577172634
 10
454.1655433026307
 20
91.0420921283701
 10
454.1655433026307
 20
90.80069242221991
 10
454.2042665386929
 20
90.56241877886367
 10
454.2807100993437
 20
90.33344236050489
 10
454.3928941365163
 20
90.1196935361033
 10
454.5379131425753
 20
89.9267082879338
 10
454.7120112014389
 20
89.75948483255353
 10
454.91067926483197
 20
89.62235416961835
 10
455.1287719342682
 20
89.51886791126688
 10
455.3606407241679
 20
89.45170629723161
 10
455.60028035466786
 20
89.42260877803766
 10
455.84148428521496
 20
89.43232896414793
 10
456.07800546070666
 20
89.48061510784795
 10
456.30371810693657
 20
89.56621662337943
 10
456.5127763849287
 20
89.68691647645453
 10
456.69976579509637
 20
89.83958860427929
 10
456.85984340993724
 20
90.02027887893804
 10
456.9888633033118
 20
90.22430751722936
 10
457.0834839277527
 20
90.4463902845928
 10
457.14125465878885
 20
90.68077535400838
  0
LWPOLYLINE
  5
39
330
17
100
AcDbEntity
  8
0
100
AcDbPolyline
 90
39
 70
1
 10
457.160679264636
 20
4.723056659650005
 10
457.14125465859286
 20
4.9636735809366455
 10
457.0834839275567
 20
5.1980586503522135
 10
456.9888633031158
 20
5.420141417715658
 10
456.85984340974125
 20
5.624170056006973
 10
456.6997657949004
 20
5.804860330665726
 10
456.5127763847327
 20
5.957532458490489
 10
456.3037181067406
 20
6.078232311565578
 10
456.07800546051067
 20
6.163833827097062
 10
455.84148428501896
 20
6.212119970797085
 10
455.60028035447186
 20
6.2218401569073585
 10
455.3606407239719
 20
6.192742637713406
 10
455.1287719340722
 20
6.1255810236781265
 10
454.910679264636
 20
6.0220947653266625
 10
454.7120112012429
 20
5.8849641023914865
 10
454.5379131423793
 20
5.7177406470111976
 10
454.3928941363203
 20
5.524755398841707
 10
454.2807100991477
 20
5.311006574440118
 10
454.2042665384969
 20
5.082030156081341
 10
454.1655433024347
 20
4.843756512725093
 10
454.1655433024347
 20
4.6023568065749165
 10
454.2042665384969
 20
4.364083163218668
 10
454.2807100991477
 20
4.135106744859892
 10
454.3928941363203
 20
3.9213579204583033
 10
454.53791314237935
 20
3.7283726722888124
 10
454.7120112012429
 20
3.5611492169085235
 10
454.910679264636
 20
3.4240185539733474
 10
455.1287719340722
 20
3.3205322956218835
 10
455.3606407239719
 20
3.253370681586605
 10
455.60028035447186
 20
3.2242731623926524
 10
455.84148428501896
 20
3.233993348502926
 10
456.07800546051067
 20
3.2822794922029495
 10
456.3037181067406
 20
3.3678810077344346
 10
456.5127763847327
 20
3.488580860809524
 10
456.6997657949004
 20
3.641252988634287
 10
456.85984340974125
 20
3.8219432632930412
 10
456.9888633031158
 20
4.025971901584357
 10
457.0834839275567
 20
4.248054668947802
 10
457.14125465859286
 20
4.48243973836337
  0
ENDSEC
  0
SECTION
  2
OBJECTS
  0
DICTIONARY
  5
A
330
0
100
AcDbDictionary
281
1
  3
ACAD_COLOR
350
B
  3
ACAD_GROUP
350
C
  3
ACAD_LAYOUT
350
D
  3
ACAD_MATERIAL
350
E
  3
ACAD_MLEADERSTYLE
350
F
  3
ACAD_MLINESTYLE
350
10
  3
ACAD_PLOTSETTINGS
350
11
  3
ACAD_PLOTSTYLENAME
350
12
  3
ACAD_SCALELIST
350
14
  3
ACAD_TABLESTYLE
350
15
  3
ACAD_VISUALSTYLE
350
16
  3
EZDXF_META
350
2D
  0
DICTIONARY
  5
B
330
A
100
AcDbDictionary
281
1
  0
DICTIONARY
  5
C
330
A
100
AcDbDictionary
281
1
  0
DICTIONARY
  5
D
330
A
100
AcDbDictionary
281
1
  3
Model
350
1A
  3
Layout1
350
1E
  0
DICTIONARY
  5
E
330
A
100
AcDbDictionary
281
1
  3
ByBlock
350
1F
  3
ByLayer
350
20
  3
Global
350
21
  0
DICTIONARY
  5
F
330
A
100
AcDbDictionary
281
1
  3
Standard
350
2C
  0
DICTIONARY
  5
10
330
A
100
AcDbDictionary
281
1
  3
Standard
350
22
  0
DICTIONARY
  5
11
330
A
100
AcDbDictionary
281
1
  0
ACDBDICTIONARYWDFLT
  5
12
330
A
100
AcDbDictionary
281
1
  3
Normal
350
13
100
AcDbDictionaryWithDefault
340
13
  0
ACDBPLACEHOLDER
  5
13
330
12
  0
DICTIONARY
  5
14
330
A
100
AcDbDictionary
281
1
  0
DICTIONARY
  5
15
330
A
100
AcDbDictionary
281
1
  0
DICTIONARY
  5
16
330
A
100
AcDbDictionary
281
1
  0
LAYOUT
  5
1A
330
D
100
AcDbPlotSettings
  1

  4
A3
  6

 40
7.5
 41
20.0
 42
7.5
 43
20.0
 44
420.0
 45
297.0
 46
0.0
 47
0.0
 48
0.0
 49
0.0
140
0.0
141
0.0
142
1.0
143
1.0
 70
1024
 72
1
 73
0
 74
5
  7

 75
16
 76
0
 77
2
 78
300
147
1.0
148
0.0
149
0.0
100
AcDbLayout
  1
Model
 70
1
 71
0
 10
0.0
 20
0.0
 11
420.0
 21
297.0
 12
0.0
 22
0.0
 32
0.0
 14
1e+20
 24
1e+20
 34
1e+20
 15
-1e+20
 25
-1e+20
 35
-1e+20
146
0.0
 13
0.0
 23
0.0
 33
0.0
 16
1.0
 26
0.0
 36
0.0
 17
0.0
 27
1.0
 37
0.0
 76
1
330
17
  0
LAYOUT
  5
1E
330
D
100
AcDbPlotSettings
  1

  4
A3
  6

 40
7.5
 41
20.0
 42
7.5
 43
20.0
 44
420.0
 45
297.0
 46
0.0
 47
0.0
 48
0.0
 49
0.0
140
0.0
141
0.0
142
1.0
143
1.0
 70
0
 72
1
 73
0
 74
5
  7

 75
16
 76
0
 77
2
 78
300
147
1.0
148
0.0
149
0.0
100
AcDbLayout
  1
Layout1
 70
1
 71
1
 10
0.0
 20
0.0
 11
420.0
 21
297.0
 12
0.0
 22
0.0
 32
0.0
 14
1e+20
 24
1e+20
 34
1e+20
 15
-1e+20
 25
-1e+20
 35
-1e+20
146
0.0
 13
0.0
 23
0.0
 33
0.0
 16
1.0
 26
0.0
 36
0.0
 17
0.0
 27
1.0
 37
0.0
 76
1
330
1B
  0
MATERIAL
  5
1F
102
{ACAD_REACTORS
330
E
102
}
330
E
100
AcDbMaterial
  1
ByBlock
  2

 70
0
 40
1.0
 71
1
 41
1.0
 91
-1023410177
 42
1.0
 72
1
  3

 73
1
 74
1
 75
1
 44
0.5
 73
0
 45
1.0
 46
1.0
 77
1
  4

 78
1
 79
1
170
1
 48
1.0
171
1
  6

172
1
173
1
174
1
140
1.0
141
1.0
175
1
  7

176
1
177
1
178
1
143
1.0
179
1
  8

270
1
271
1
272
1
145
1.0
146
1.0
273
1
  9

274
1
275
1
276
1
 42
1.0
 72
1
  3

 73
1
 74
1
 75
1
 94
63
  0
MATERIAL
  5
20
102
{ACAD_REACTORS
330
E
102
}
330
E
100
AcDbMaterial
  1
ByLayer
  2

 70
0
 40
1.0
 71
1
 41
1.0
 91
-1023410177
 42
1.0
 72
1
  3

 73
1
 74
1
 75
1
 44
0.5
 73
0
 45
1.0
 46
1.0
 77
1
  4

 78
1
 79
1
170
1
 48
1.0
171
1
  6

172
1
173
1
174
1
140
1.0
141
1.0
175
1
  7

176
1
177
1
178
1
143
1.0
179
1
  8

270
1
271
1
272
1
145
1.0
146
1.0
273
1
  9

274
1
275
1
276
1
 42
1.0
 72
1
  3

 73
1
 74
1
 75
1
 94
63
  0
MATERIAL
  5
21
102
{ACAD_REACTORS
330
E
102
}
330
E
100
AcDbMaterial
  1
Global
  2

 70
0
 40
1.0
 71
1
 41
1.0
 91
-1023410177
 42
1.0
 72
1
  3

 73
1
 74
1
 75
1
 44
0.5
 73
0
 45
1.0
 46
1.0
 77
1
  4

 78
1
 79
1
170
1
 48
1.0
171
1
  6

172
1
173
1
174
1
140
1.0
141
1.0
175
1
  7

176
1
177
1
178
1
143
1.0
179
1
  8

270
1
271
1
272
1
145
1.0
146
1.0
273
1
  9

274
1
275
1
276
1
 42
1.0
 72
1
  3

 73
1
 74
1
 75
1
 94
63
  0
MLINESTYLE
  5
22
102
{ACAD_REACTORS
330
10
102
}
330
10
100
AcDbMlineStyle
  2
Standard
 70
0
  3

 62
256
 51
90.0
 52
90.0
 71
2
 49
0.5
 62
256
  6
BYLAYER
 49
-0.5
 62
256
  6
BYLAYER
  0
MLEADERSTYLE
  5
2C
102
{ACAD_REACTORS
330
F
102
}
330
F
100
AcDbMLeaderStyle
179
2
170
2
171
1
172
0
 90
2
 40
0.0
 41
0.0
173
1
 91
-1056964608
 92
-2
290
1
 42
2.0
291
1
 43
8.0
  3
Standard
 44
4.0
300

342
29
174
1
175
1
176
0
178
1
 93
-1056964608
 45
4.0
292
0
297
0
 46
4.0
 94
-1056964608
 47
1.0
 49
1.0
140
1.0
294
1
141
0.0
177
0
142
1.0
295
0
296
0
143
3.75
271
0
272
9
273
9
  0
DICTIONARY
  5
2D
330
A
100
AcDbDictionary
280
1
281
1
  3
CREATED_BY_EZDXF
350
2E
  3
WRITTEN_BY_EZDXF
350
3C
  0
DICTIONARYVAR
  5
2E
330
2D
100
DictionaryVariables
280
0
  1
1.4.4 @ 2026-09-23T20:01:25.291423+00:00
  0
DICTIONARYVAR
  5
3C
330
2D
100
DictionaryVariables
280
0
  1
1.4.4 @ 2026-09-23T20:01:25.302420+00:00
  0
ENDSEC
  0
EOF
