  0
SECTION
  2
HEADER
  9
$ACADVER
  1
AC1027
  9
$ACADMAINTVER
 70
105
  9
$DWGCODEPAGE
  3
ANSI_1252
  9
$LASTSAVEDBY
  1
ezdxf
  9
$REQUIREDVERSIONS
160
0
  9
$INSBASE
 10
0.0
 20
0.0
 30
0.0
  9
$EXTMIN
 10
1e+20
 20
1e+20
 30
1e+20
  9
$EXTMAX
 10
-1e+20
 20
-1e+20
 30
-1e+20
  9
$LIMMIN
 10
0.0
 20
0.0
  9
$LIMMAX
 10
420.0
 20
297.0
  9
$ORTHOMODE
 70
0
  9
$REGENMODE
 70
1
  9
$FILLMODE
 70
1
  9
$QTEXTMODE
 70
0
  9
$MIRRTEXT
 70
1
  9
$LTSCALE
 40
1.0
  9
$ATTMODE
 70
1
  9
$TEXTSIZE
 40
2.5
  9
$TRACEWID
 40
1.0
  9
$TEXTSTYLE
  7
Standard
  9
$CLAYER
  8
0
  9
$CELTYPE
  6
ByLayer
  9
$CECOLOR
 62
256
  9
$CELTSCALE
 40
1.0
  9
$DISPSILH
 70
0
  9
$DIMSCALE
 40
1.0
  9
$DIMASZ
 40
2.5
  9
$DIMEXO
 40
0.625
  9
$DIMDLI
 40
3.75
  9
$DIMRND
 40
0.0
  9
$DIMDLE
 40
0.0
  9
$DIMEXE
 40
1.25
  9
$DIMTP
 40
0.0
  9
$DIMTM
 40
0.0
  9
$DIMTXT
 40
2.5
  9
$DIMCEN
 40
2.5
  9
$DIMTSZ
 40
0.0
  9
$DIMTOL
 70
0
  9
$DIMLIM
 70
0
  9
$DIMTIH
 70
0
  9
$DIMTOH
 70
0
  9
$DIMSE1
 70
0
  9
$DIMSE2
 70
0
  9
$DIMTAD
 70
1
  9
$DIMZIN
 70
8
  9
$DIMBLK
  1

  9
$DIMASO
 70
1
  9
$DIMSHO
 70
1
  9
$DIMPOST
  1

  9
$DIMAPOST
  1

  9
$DIMALT
 70
0
  9
$DIMALTD
 70
3
  9
$DIMALTF
 40
0.03937007874
  9
$DIMLFAC
 40
1.0
  9
$DIMTOFL
 70
1
  9
$DIMTVP
 40
0.0
  9
$DIMTIX
 70
0
  9
$DIMSOXD
 70
0
  9
$DIMSAH
 70
0
  9
$DIMBLK1
  1

  9
$DIMBLK2
  1

  9
$DIMSTYLE
  2
ISO-25
  9
$DIMCLRD
 70
0
  9
$DIMCLRE
 70
0
  9
$DIMCLRT
 70
0
  9
$DIMTFAC
 40
1.0
  9
$DIMGAP
 40
0.625
  9
$DIMJUST
 70
0
  9
$DIMSD1
 70
0
  9
$DIMSD2
 70
0
  9
$DIMTOLJ
 70
0
  9
$DIMTZIN
 70
8
  9
$DIMALTZ
 70
0
  9
$DIMALTTZ
 70
0
  9
$DIMUPT
 70
0
  9
$DIMDEC
 70
2
  9
$DIMTDEC
 70
2
  9
$DIMALTU
 70
2
  9
$DIMALTTD
 70
3
  9
$DIMTXSTY
  7
Standard
  9
$DIMAUNIT
 70
0
  9
$DIMADEC
 70
0
  9
$DIMALTRND
 40
0.0
  9
$DIMAZIN
 70
0
  9
$DIMDSEP
 70
44
  9
$DIMATFIT
 70
3
  9
$DIMFRAC
 70
0
  9
$DIMLDRBLK
  1

  9
$DIMLUNIT
 70
2
  9
$DIMLWD
 70
-2
  9
$DIMLWE
 70
-2
  9
$DIMTMOVE
 70
0
  9
$DIMFXL
 40
1.0
  9
$DIMFXLON
 70
0
  9
$DIMJOGANG
 40
0.785398163397
  9
$DIMTFILL
 70
0
  9
$DIMTFILLCLR
 70
0
  9
$DIMARCSYM
 70
0
  9
$DIMLTYPE
  6

  9
$DIMLTEX1
  6

  9
$DIMLTEX2
  6

  9
$DIMTXTDIRECTION
 70
0
  9
$LUNITS
 70
2
  9
$LUPREC
 70
4
  9
$SKETCHINC
 40
1.0
  9
$FILLETRAD
 40
10.0
  9
$AUNITS
 70
0
  9
$AUPREC
 70
2
  9
$MENU
  1
.
  9
$ELEVATION
 40
0.0
  9
$PELEVATION
 40
0.0
  9
$THICKNESS
 40
0.0
  9
$LIMCHECK
 70
0
  9
$CHAMFERA
 40
0.0
  9
$CHAMFERB
 40
0.0
  9
$CHAMFERC
 40
0.0
  9
$CHAMFERD
 40
0.0
  9
$SKPOLY
 70
0
  9
$TDCREATE
 40
2461308.0634953706
  9
$TDUCREATE
 40
2458532.153996898
  9
$TDUPDATE
 40
2461308.0634953706
  9
$TDUUPDATE
 40
2458532.1544311
  9
$TDINDWG
 40
0.0
  9
$TDUSRTIMER
 40
0.0
  9
$USRTIMER
 70
1
  9
$ANGBASE
 50
0.0
  9
$ANGDIR
 70
0
  9
$PDMODE
 70
0
  9
$PDSIZE
 40
0.0
  9
$PLINEWID
 40
0.0
  9
$SPLFRAME
 70
0
  9
$SPLINETYPE
 70
6
  9
$SPLINESEGS
 70
8
  9
$HANDSEED
  5
34
  9
$SURFTAB1
 70
6
  9
$SURFTAB2
 70
6
  9
$SURFTYPE
 70
6
  9
$SURFU
 70
6
  9
$SURFV
 70
6
  9
$UCSBASE
  2

  9
$UCSNAME
  2

  9
$UCSORG
 10
0.0
 20
0.0
 30
0.0
  9
$UCSXDIR
 10
1.0
 20
0.0
 30
0.0
  9
$UCSYDIR
 10
0.0
 20
1.0
 30
0.0
  9
$UCSORTHOREF
  2

  9
$UCSORTHOVIEW
 70
0
  9
$UCSORGTOP
 10
0.0
 20
0.0
 30
0.0
  9
$UCSORGBOTTOM
 10
0.0
 20
0.0
 30
0.0
  9
$UCSORGLEFT
 10
0.0
 20
0.0
 30
0.0
  9
$UCSORGRIGHT
 10
0.0
 20
0.0
 30
0.0
  9
$UCSORGFRONT
 10
0.0
 20
0.0
 30
0.0
  9
$UCSORGBACK
 10
0.0
 20
0.0
 30
0.0
  9
$PUCSBASE
  2

  9
$PUCSNAME
  2

  9
$PUCSORG
 10
0.0
 20
0.0
 30
0.0
  9
$PUCSXDIR
 10
1.0
 20
0.0
 30
0.0
  9
$PUCSYDIR
 10
0.0
 20
1.0
 30
0.0
  9
$PUCSORTHOREF
  2

  9
$PUCSORTHOVIEW
 70
0
  9
$PUCSORGTOP
 10
0.0
 20
0.0
 30
0.0
  9
$PUCSORGBOTTOM
 10
0.0
 20
0.0
 30
0.0
  9
$PUCSORGLEFT
 10
0.0
 20
0.0
 30
0.0
  9
$PUCSORGRIGHT
 10
0.0
 20
0.0
 30
0.0
  9
$PUCSORGFRONT
 10
0.0
 20
0.0
 30
0.0
  9
$PUCSORGBACK
 10
0.0
 20
0.0
 30
0.0
  9
$USERI1
 70
0
  9
$USERI2
 70
0
  9
$USERI3
 70
0
  9
$USERI4
 70
0
  9
$USERI5
 70
0
  9
$USERR1
 40
0.0
  9
$USERR2
 40
0.0
  9
$USERR3
 40
0.0
  9
$USERR4
 40
0.0
  9
$USERR5
 40
0.0
  9
$WORLDVIEW
 70
1
  9
$SHADEDGE
 70
3
  9
$SHADEDIF
 70
70
  9
$TILEMODE
 70
1
  9
$MAXACTVP
 70
64
  9
$PINSBASE
 10
0.0
 20
0.0
 30
0.0
  9
$PLIMCHECK
 70
0
  9
$PEXTMIN
 10
1e+20
 20
1e+20
 30
1e+20
  9
$PEXTMAX
 10
-1e+20
 20
-1e+20
 30
-1e+20
  9
$PLIMMIN
 10
0.0
 20
0.0
  9
$PLIMMAX
 10
420.0
 20
297.0
  9
$UNITMODE
 70
0
  9
$VISRETAIN
 70
1
  9
$PLINEGEN
 70
0
  9
$PSLTSCALE
 70
1
  9
$TREEDEPTH
 70
3020
  9
$CMLSTYLE
  2
Standard
  9
$CMLJUST
 70
0
  9
$CMLSCALE
 40
20.0
  9
$PROXYGRAPHICS
 70
1
  9
$MEASUREMENT
 70
1
  9
$CELWEIGHT
370
-1
  9
$ENDCAPS
280
0
  9
$JOINSTYLE
280
0
  9
$LWDISPLAY
290
0
  9
$INSUNITS
 70
4
  9
$HYPERLINKBASE
  1

  9
$STYLESHEET
  1

  9
$XEDIT
290
1
  9
$CEPSNTYPE
380
0
  9
$PSTYLEMODE
290
1
  9
$FINGERPRINTGUID
  2
{5FFB6CE7-4538-40BF-BDB6-ED0645B386BF}
  9
$VERSIONGUID
  2
{075744AE-C8EB-498C-B7C1-5E7D905A7F0B}
  9
$EXTNAMES
290
1
  9
$PSVPSCALE
 40
0.0
  9
$OLESTARTUP
290
0
  9
$SORTENTS
280
127
  9
$INDEXCTL
280
0
  9
$HIDETEXT
280
1
  9
$XCLIPFRAME
280
1
  9
$HALOGAP
280
0
  9
$OBSCOLOR
 70
257
  9
$OBSLTYPE
280
0
  9
$INTERSECTIONDISPLAY
280
0
  9
$INTERSECTIONCOLOR
 70
257
  9
$DIMASSOC
280
2
  9
$PROJECTNAME
  1

  9
$CAMERADISPLAY
290
0
  9
$LENSLENGTH
 40
50.0
  9
$CAMERAHEIGHT
 40
0.0
  9
$STEPSPERSEC
 40
24.0
  9
$STEPSIZE
 40
100.0
  9
$3DDWFPREC
 40
2.0
  9
$PSOLWIDTH
 40
0.005
  9
$PSOLHEIGHT
 40
0.08
  9
$LOFTANG1
 40
1.570796326795
  9
$LOFTANG2
 40
1.570796326795
  9
$LOFTMAG1
 40
0.0
  9
$LOFTMAG2
 40
0.0
  9
$LOFTPARAM
 70
7
  9
$LOFTNORMALS
280
1
  9
$LATITUDE
 40
37.795
  9
$LONGITUDE
 40
-122.394
  9
$NORTHDIRECTION
 40
0.0
  9
$TIMEZONE
 70
-8000
  9
$LIGHTGLYPHDISPLAY
280
1
  9
$TILEMODELIGHTSYNCH
280
1
  9
$CMATERIAL
347
20
  9
$SOLIDHIST
280
0
  9
$SHOWHIST
280
1
  9
$DWFFRAME
280
2
  9
$DGNFRAME
280
2
  9
$REALWORLDSCALE
290
1
  9
$INTERFERECOLOR
 62
256
  9
$CSHADOW
280
0
  9
$SHADOWPLANELOCATION
 40
0.0
  0
ENDSEC
  0
SECTION
  2
CLASSES
  0
CLASS
  1
ACDBDICTIONARYWDFLT
  2
AcDbDictionaryWithDefault
  3
ObjectDBX Classes
 90
0
 91
0
280
0
281
0
  0
CLASS
  1
SUN
  2
AcDbSun
  3
SCENEOE
 90
1153
 91
0
280
0
281
0
  0
CLASS
  1
VISUALSTYLE
  2
AcDbVisualStyle
  3
ObjectDBX Classes
 90
4095
 91
0
280
0
281
0
  0
CLASS
  1
MATERIAL
  2
AcDbMaterial
  3
ObjectDBX Classes
 90
1153
 91
0
280
0
281
0
  0
CLASS
  1
SCALE
  2
AcDbScale
  3
ObjectDBX Classes
 90
1153
 91
0
280
0
281
0
  0
CLASS
  1
TABLESTYLE
  2
AcDbTableStyle
  3
ObjectDBX Classes
 90
4095
 91
0
280
0
281
0
  0
CLASS
  1
MLEADERSTYLE
  2
AcDbMLeaderStyle
  3
ACDB_MLEADERSTYLE_CLASS
 90
4095
 91
0
280
0
281
0
  0
CLASS
  1
DICTIONARYVAR
  2
AcDbDictionaryVar
  3
ObjectDBX Classes
 90
0
 91
0
280
0
281
0
  0
CLASS
  1
CELLSTYLEMAP
  2
AcDbCellStyleMap
  3
ObjectDBX Classes
 90
1152
 91
0
280
0
281
0
  0
CLASS
  1
MENTALRAYRENDERSETTINGS
  2
AcDbMentalRayRenderSettings
  3
SCENEOE
 90
1024
 91
0
280
0
281
0
  0
CLASS
  1
ACDBDETAILVIEWSTYLE
  2
AcDbDetailViewStyle
  3
ObjectDBX Classes
 90
1025
 91
0
280
0
281
0
  0
CLASS
  1
ACDBSECTIONVIEWSTYLE
  2
AcDbSectionViewStyle
  3
ObjectDBX Classes
 90
1025
 91
0
280
0
281
0
  0
CLASS
  1
RASTERVARIABLES
  2
AcDbRasterVariables
  3
ISM
 90
0
 91
0
280
0
281
0
  0
CLASS
  1
ACDBPLACEHOLDER
  2
AcDbPlaceHolder
  3
ObjectDBX Classes
 90
0
 91
0
280
0
281
0
  0
CLASS
  1
LAYOUT
  2
AcDbLayout
  3
ObjectDBX Classes
 90
0
 91
0
280
0
281
0
  0
ENDSEC
  0
SECTION
  2
TABLES
  0
TABLE
  2
VPORT
  5
8
330
0
100
AcDbSymbolTable
 70
1
  0
VPORT
  5
23
330
8
100
AcDbSymbolTableRecord
100
AcDbViewportTableRecord
  2
*Active
 70
0
 10
0.0
 20
0.0
 11
1.0
 21
1.0
 12
0.0
 22
0.0
 13
0.0
 23
0.0
 14
0.5
 24
0.5
 15
0.5
 25
0.5
 16
0.0
 26
0.0
 36
1.0
 17
0.0
 27
0.0
 37
0.0
 40
1000.0
 41
1.34
 42
50.0
 43
0.0
 44
0.0
 50
0.0
 51
0.0
 71
0
 72
1000
 73
1
 74
3
 75
0
 76
0
 77
0
 78
0
281
0
 65
0
146
0.0
  0
ENDTAB
  0
TABLE
  2
LTYPE
  5
2
330
0
100
AcDbSymbolTable
 70
3
  0
LTYPE
  5
24
330
2
100
AcDbSymbolTableRecord
100
AcDbLinetypeTableRecord
  2
ByBlock
 70
0
  3

 72
65
 73
0
 40
0.0
  0
LTYPE
  5
25
330
2
100
AcDbSymbolTableRecord
100
AcDbLinetypeTableRecord
  2
ByLayer
 70
0
  3

 72
65
 73
0
 40
0.0
  0
LTYPE
  5
26
330
2
100
AcDbSymbolTableRecord
100
AcDbLinetypeTableRecord
  2
Continuous
 70
0
  3

 72
65
 73
0
 40
0.0
  0
ENDTAB
  0
TABLE
  2
LAYER
  5
1
330
0
100
AcDbSymbolTable
 70
2
  0
LAYER
  5
27
330
1
100
AcDbSymbolTableRecord
100
AcDbLayerTableRecord
  2
0
 70
0
 62
7
  6
Continuous
370
-3
390
13
347
21
  0
LAYER
  5
28
330
1
100
AcDbSymbolTableRecord
100
AcDbLayerTableRecord
  2
Defpoints
 70
0
 62
7
  6
Continuous
290
0
370
-3
390
13
347
21
  0
ENDTAB
  0
TABLE
  2
STYLE
  5
5
330
0
100
AcDbSymbolTable
 70
1
  0
STYLE
  5
29
330
5
100
AcDbSymbolTableRecord
100
AcDbTextStyleTableRecord
  2
Standard
 70
0
 40
0.0
 41
1.0
 50
0.0
 71
0
 42
2.5
  3
txt
  4

  0
ENDTAB
  0
TABLE
  2
VIEW
  5
7
330
0
100
AcDbSymbolTable
 70
0
  0
ENDTAB
  0
TABLE
  2
UCS
  5
6
330
0
100
AcDbSymbolTable
 70
0
  0
ENDTAB
  0
TABLE
  2
APPID
  5
3
330
0
100
AcDbSymbolTable
 70
3
  0
APPID
  5
2A
330
3
100
AcDbSymbolTableRecord
100
AcDbRegAppTableRecord
  2
ACAD
 70
0
  0
APPID
  5
31
330
3
100
AcDbSymbolTableRecord
100
AcDbRegAppTableRecord
  2
HATCHBACKGROUNDCOLOR
 70
0
  0
APPID
  5
32
330
3
100
AcDbSymbolTableRecord
100
AcDbRegAppTableRecord
  2
EZDXF
 70
0
  0
ENDTAB
  0
TABLE
  2
DIMSTYLE
  5
4
330
0
100
AcDbSymbolTable
 70
1
100
AcDbDimStyleTable
  0
DIMSTYLE
105
2B
330
4
100
AcDbSymbolTableRecord
100
AcDbDimStyleTableRecord
  2
Standard
 70
0
 40
1.0
 41
2.5
 42
0.625
 43
3.75
 44
1.25
 45
0.0
 46
0.0
 47
0.0
 48
0.0
 49
2.5
140
2.5
141
2.5
142
0.0
143
0.03937007874
144
1.0
145
0.0
146
1.0
147
0.625
148
0.0
 69
0
 70
0
 71
0
 72
0
 73
0
 74
0
 75
0
 76
0
 77
1
 78
8
 79
3
170
0
171
3
172
1
173
0
174
0
175
0
176
0
177
0
178
0
179
2
271
2
272
2
273
2
274
3
275
0
276
0
277
2
278
44
279
0
280
0
281
0
282
0
283
0
284
8
285
0
286
0
288
0
289
3
290
0
371
-2
372
-2
  0
ENDTAB
  0
TABLE
  2
BLOCK_RECORD
  5
9
330
0
100
AcDbSymbolTable
 70
2
  0
BLOCK_RECORD
  5
17
330
9
100
AcDbSymbolTableRecord
100
AcDbBlockTableRecord
  2
*Model_Space
340
1A
 70
0
280
1
281
0
  0
BLOCK_RECORD
  5
1B
330
9
100
AcDbSymbolTableRecord
100
AcDbBlockTableRecord
  2
*Paper_Space
340
1E
 70
0
280
1
281
0
  0
ENDTAB
  0
ENDSEC
  0
SECTION
  2
BLOCKS
  0
BLOCK
  5
18
330
17
100
AcDbEntity
  8
0
100
AcDbBlockBegin
  2
*Model_Space
 70
0
 10
0.0
 20
0.0
 30
0.0
  3
*Model_Space
  1

  0
ENDBLK
  5
19
330
17
100
AcDbEntity
  8
0
100
AcDbBlockEnd
  0
BLOCK
  5
1C
330
1B
100
AcDbEntity
  8
0
100
AcDbBlockBegin
  2
*Paper_Space
 70
0
 10
0.0
 20
0.0
 30
0.0
  3
*Paper_Space
  1

  0
ENDBLK
  5
1D
330
1B
100
AcDbEntity
  8
0
100
AcDbBlockEnd
  0
ENDSEC
  0
SECTION
  2
ENTITIES
  0
LWPOLYLINE
  5
2F
330
17
100
AcDbEntity
  8
0
100
AcDbPolyline
 90
303
 70
1
 10
43.57324494904199
 20
0.0626715596812204
 10
44.44738761244199
 20
0.015357216291221222
 10
44.822218470069394
 20
0.00164309021573672
 10
44.82221847006883
 20
7.49942939754218
 10
50.82221847006905
 20
7.4994293975426345
 10
50.82221847006966
 20
0.0
 10
51.197061324547995
 20
0.015357216291221214
 10
52.071203987949
 20
0.0626715596812204
 10
52.94438467944299
 20
0.12527765418121817
 10
53.81633591446399
 20
0.20315632142121842
 10
54.686790585066994
 20
0.29628370457121633
 10
55.555482041755994
 20
0.4046312755812167
 10
56.422144175166
 20
0.5281658439412169
 10
57.286511497580996
 20
0.6668495668812184
 10
58.148319224264995
 20
0.820639960901218
 10
59.00730335457099
 20
0.9894899148612168
 10
59.863200752813995
 20
1.1733477043212233
 10
60.715749228877996
 20
1.3721570075012224
 10
61.564687618536
 20
1.58585692240122
 10
62.409755863452
 20
1.814381985581221
 10
63.25069509084299
 20
2.0576621921412226
 10
64.08724769278399
 20
2.315623017181217
 10
64.91915740512098
 20
2.588185438621217
 10
65.746169385973
 20
2.8752659614712215
 10
66.56803029379799
 20
3.1767766432912197
 10
67.384488365
 20
3.49262512126122
 10
68.195293491056
 20
3.822714640371217
 10
69.00019729512799
 20
4.16694408313122
 10
69.79895320815
 20
4.525208000481221
 10
70.591316544363
 20
4.8973966441712165
 10
71.37704457627
 20
5.283396000321218
 10
72.155896608988
 20
5.683087824351219
 10
72.927634053985
 20
6.096349677241221
 10
73.692020502166
 20
6.523054963011219
 10
74.44882179629299
 20
6.963072967501219
 10
75.19780610271499
 20
7.416268898421222
 10
75.938743982388
 20
7.882503926631223
 10
76.671408461157
 20
8.36163522869122
 10
77.395575099289
 20
8.85351603060122
 10
78.111022060225
 20
9.357995652741216
 10
78.81753017853399
 20
9.87491955607122
 10
79.51488302705499
 20
10.404129389431219
 10
80.20286698319299
 20
10.945463038081218
 10
80.88127129435802
 20
11.498754673351218
 10
81.549888142528
 20
12.06383480343122
 10
82.208512707911
 20
12.64053032530122
 10
82.856943231683
 20
13.228664577751221
 10
83.494981077802
 20
13.82805739551122
 10
84.122430793848
 20
14.43852516444122
 10
84.73910017090301
 20
15.05988087776122
 10
85.34480030242901
 20
15.691934193341218
 10
85.939345642135
 20
16.33449149203122
 10
86.522554060818
 20
16.98735593695122
 10
87.094246902154
 20
17.65032753380122
 10
87.65424903742898
 20
18.32320319212122
 10
88.202388919183
 20
19.00577678749122
 10
88.738498633763
 20
19.69783922470122
 10
89.26241395276
 20
20.39917850179122
 10
89.773974383318
 20
21.10957977498122
 10
90.273023217299
 20
21.82882542451122
 10
90.759407579286
 20
22.55669512129122
 10
91.23297847341598
 20
23.29296589437122
 10
91.693590829021
 20
24.03741219931122
 10
92.141103545068
 20
24.78980598719122
 10
92.57537953338598
 20
25.54991677453122
 10
92.99628576065399
 20
26.31751171388122
 10
93.40369328916199
 20
27.092355665131215
 10
93.79747731630101
 20
27.874211267551217
 10
94.177517212801
 20
28.66283901252122
 10
94.543696559679
 20
29.45799731687122
 10
94.79872990171901
 20
30.06734207986122
 10
95.021217551266
 20
30.689308551251216
 10
95.210538190314
 20
31.322159830271218
 10
95.366163122899
 20
31.96412861929522
 10
95.487657751535
 20
32.61342215918522
 10
95.57468279087098
 20
33.26822723572222
 10
95.62699521517399
 20
33.92671524320122
 10
95.644448937004
 20
34.58704729098022
 10
95.644448937004
 20
36.69023070603722
 10
85.644448937003
 20
36.69023070603722
 10
85.644448937003
 20
41.69023070603714
 10
95.644448937004
 20
41.690230706036516
 10
95.644448937004
 20
42.25555105618623
 10
95.379908326686
 20
43.25910249470122
 10
95.08531432409498
 20
44.277082810546226
 10
94.76095442252799
 20
45.30810707818122
 10
94.407116115284
 20
46.350790372066214
 10
94.024086895659
 20
47.40374776666022
 10
93.61215425694999
 20
48.46559433642422
 10
93.17160569245401
 20
49.534945155817226
 10
92.70272869546899
 20
50.610415299300215
 10
92.34011135814899
 20
51.40458786320722
 10
91.962894510835
 20
52.200857991003225
 10
91.571335275995
 20
52.99878281910922
 10
91.165690776097
 20
53.797919483950224
 10
90.74621813360599
 20
54.59782512194722
 10
90.31317447099102
 20
55.39805686952422
 10
89.866816910717
 20
56.19817186310522
 10
89.407402575253
 20
56.99772723911222
 10
88.93518858706499
 20
57.796280133968224
 10
88.45043206861999
 20
58.59338768409722
 10
87.953390142386
 20
59.38860702592222
 10
87.444319930829
 20
60.18149529586522
 10
86.923478556416
 20
60.971609630350216
 10
86.391123141614
 20
61.75850716580122
 10
85.84751080889099
 20
62.54174503863922
 10
85.29289868071399
 20
63.32088038528822
 10
84.72754387954899
 20
64.09547034217222
 10
84.15170352786299
 20
64.86507204571322
 10
83.565634748124
 20
65.62924263233522
 10
82.96959466279799
 20
66.38753923846022
 10
82.363840394353
 20
67.13951900051222
 10
81.748629065256
 20
67.88473905491422
 10
81.12421779797299
 20
68.62275653808922
 10
80.490863714972
 20
69.35312858646023
 10
79.84882393871999
 20
70.07541233645021
 10
79.198355591684
 20
70.78916492448323
 10
78.53971579633
 20
71.49394348698121
 10
77.873161675126
 20
72.18930516036723
 10
77.19895035053901
 20
72.87480708106523
 10
76.517338945036
 20
73.55000638549822
 10
75.828584581084
 20
74.2144602100882
 10
75.13294438115
 20
74.86772569125921
 10
74.084660244229
 20
75.81904567437522
 10
73.022869682234
 20
76.74319125412921
 10
71.948607223054
 20
77.63898229030221
 10
70.86290739457999
 20
78.50523864267521
 10
69.766804724702
 20
79.34078017102922
 10
68.661333741311
 20
80.14442673514522
 10
67.547528972297
 20
80.9149981948032
 10
66.426424945552
 20
81.65131440978521
 10
65.299056188964
 20
82.35219523987122
 10
64.166457230425
 20
83.01646054484122
 10
63.029662597824995
 20
83.64293018447822
 10
61.88970681905499
 20
84.23042401856122
 10
60.747624422004996
 20
84.77776190687221
 10
59.604449934566
 20
85.28376370919122
 10
58.461217884627
 20
85.74724928529923
 10
57.88990356368699
 20
85.96267969470621
 10
57.318962800079994
 20
86.16703849497722
 10
56.716331128656996
 20
86.37086675680622
 10
56.114511529156
 20
86.56224136308622
 10
55.513589572613995
 20
86.74106620164221
 10
54.913650830068
 20
86.90724516030323
 10
54.314780872555
 20
87.06068212689321
 10
53.717065271109995
 20
87.20128098924121
 10
53.12058959677099
 20
87.32894563517121
 10
52.525439420572994
 20
87.44357995251221
 10
51.931700313553996
 20
87.54508782909022
 10
51.339457846750996
 20
87.63337315273122
 10
50.74879759119899
 20
87.70833981126222
 10
50.159805117934994
 20
87.76989169250922
 10
49.572565997995994
 20
87.81793268430022
 10
48.987165802419
 20
87.85236667446023
 10
48.40369010224
 20
87.87309755081722
 10
47.822224468494845
 20
87.88002920119622
 10
47.24075883475
 20
87.87309755081723
 10
46.657283134570996
 20
87.85236667446023
 10
46.071882938993994
 20
87.81793268430022
 10
45.484643819056
 20
87.76989169251021
 10
44.895651345793
 20
87.70833981126222
 10
44.304991090240996
 20
87.63337315273222
 10
43.712748623437996
 20
87.54508782909123
 10
43.11900951642
 20
87.44357995251323
 10
42.523859340223
 20
87.32894563517323
 10
41.927383665883994
 20
87.20128098924222
 10
41.32966806444
 20
87.06068212689523
 10
40.730798106927
 20
86.90724516030423
 10
40.130859364380996
 20
86.74106620164423
 10
39.529937407839995
 20
86.56224136308822
 10
38.92811780833999
 20
86.37086675680821
 10
38.325486136918
 20
86.16703849497921
 10
37.75454537331999
 20
85.96267969470821
 10
37.183231052379995
 20
85.74724928530122
 10
36.03999900243999
 20
85.2837637091942
 10
34.89682451499999
 20
84.77776190687523
 10
33.75474211795
 20
84.23042401856523
 10
32.61478633918
 20
83.64293018448322
 10
31.47799170658
 20
83.0164605448472
 10
30.34539274804
 20
82.35219523987621
 10
29.218023991459997
 20
81.65131440979121
 10
28.096919964709997
 20
80.91499819481022
 10
26.983115195699998
 20
80.14442673515222
 10
25.87764421231
 20
79.34078017103722
 10
24.78154154243
 20
78.50523864268422
 10
23.69584171395
 20
77.63898229031122
 10
22.621579254769998
 20
76.74319125413822
 10
21.559788692779996
 20
75.81904567438421
 10
20.511504555859997
 20
74.86772569126923
 10
19.81586435592
 20
74.21446021009723
 10
19.12710999197
 20
73.55000638550723
 10
18.445498586459998
 20
72.87480708107422
 10
17.771287261879998
 20
72.18930516037622
 10
17.104733140669996
 20
71.49394348699022
 10
16.446093345319998
 20
70.78916492449223
 10
15.795624998279997
 20
70.07541233645922
 10
15.153585222029996
 20
69.35312858646923
 10
14.520231139029995
 20
68.62275653809722
 10
13.89581987175
 20
67.88473905492222
 10
13.28060854265
 20
67.13951900052022
 10
12.674854274200001
 20
66.38753923846824
 10
12.078814188879996
 20
65.62924263234221
 10
11.49274540914
 20
64.86507204572021
 10
10.916905057449995
 20
64.09547034217822
 10
10.351550256289997
 20
63.320880385294224
 10
9.79693812811
 20
62.54174503864422
 10
9.253325795389998
 20
61.758507165806215
 10
8.720970380589996
 20
60.971609630355225
 10
8.200129006169995
 20
60.18149529587022
 10
7.691058794619998
 20
59.38860702592622
 10
7.194016868379997
 20
58.59338768410122
 10
6.709260349939996
 20
57.79628013397222
 10
6.2370463617499965
 20
56.99772723911622
 10
5.777632026279996
 20
56.198171863109216
 10
5.331274466010001
 20
55.398056869528226
 10
4.898230803399997
 20
54.59782512195022
 10
4.4787581609
 20
53.797919483953216
 10
4.073113661009998
 20
52.99878281911322
 10
3.6815544261699955
 20
52.20085799100722
 10
3.304337578849996
 20
51.40458786321122
 10
2.9417202415299997
 20
50.61041529930422
 10
2.472843244549999
 20
49.53494515582222
 10
2.0322946800500006
 20
48.465594336431224
 10
1.6203620413399946
 20
47.40374776666922
 10
1.2373328217199955
 20
46.35079037207722
 10
0.8834945144799988
 20
45.30810707819622
 10
0.5591346129100003
 20
44.277082810564224
 10
0.2645406103199975
 20
43.25910249472322
 10
-1.7310396110538658e-100
 20
42.25555105621222
 10
-1.7310396110538658e-100
 20
41.69023070603798
 10
9.999999999989996
 20
41.69023070603751
 10
9.999999999989996
 20
36.69023070603822
 10
-1.7310396110538658e-100
 20
36.69023070603722
 10
-1.7310396110538656e-100
 20
34.58704729096822
 10
0.017453721829994606
 20
33.92671524318822
 10
0.06976614613999743
 20
33.268227235709226
 10
0.15679118546999857
 20
32.61342215917122
 10
0.2782858141099993
 20
31.96412861928122
 10
0.4339107466899961
 20
31.322159830251223
 10
0.6232313857399987
 20
30.689308551231218
 10
0.8457190352899957
 20
30.067342079841218
 10
1.1007523773199992
 20
29.45799731685122
 10
1.4669317241999948
 20
28.66283901250122
 10
1.8469716206999962
 20
27.874211267531223
 10
2.240755647839997
 20
27.09235566511122
 10
2.648163176349996
 20
26.317511713861222
 10
3.0690694036199986
 20
25.54991677452122
 10
3.5033453919399946
 20
24.78980598717122
 10
3.9508581079799967
 20
24.03741219929122
 10
4.41147046359
 20
23.29296589436122
 10
4.885041357719999
 20
22.55669512127122
 10
5.371425719709997
 20
21.82882542450122
 10
5.870474553689995
 20
21.10957977497122
 10
6.382034984240001
 20
20.39917850178122
 10
6.905950303239997
 20
19.69783922469122
 10
7.442060017819998
 20
19.00577678747122
 10
7.990199899570001
 20
18.32320319210122
 10
8.550202034849995
 20
17.65032753379122
 10
9.121894876189998
 20
16.98735593694122
 10
9.70510329487
 20
16.33449149202122
 10
10.299648634579995
 20
15.69193419332122
 10
10.905348766099998
 20
15.059880877741218
 10
11.522018143159997
 20
14.43852516443122
 10
12.149467859199994
 20
13.828057395501219
 10
12.787505705320001
 20
13.22866457774122
 10
13.435936229089997
 20
12.64053032529122
 10
14.094560794479996
 20
12.06383480342122
 10
14.76317764265
 20
11.498754673341221
 10
15.441581953810001
 20
10.945463038071221
 10
16.12956590995
 20
10.404129389421218
 10
16.826918758469997
 20
9.874919556061219
 10
17.53342687678
 20
9.35799565273122
 10
18.248873837709997
 20
8.853516030591223
 10
18.97304047585
 20
8.36163522869122
 10
19.70570495461
 20
7.882503926621219
 10
20.44664283429
 20
7.416268898411218
 10
21.19562714071
 20
6.963072967491222
 10
21.952428434839998
 20
6.523054963001222
 10
22.716814883019996
 20
6.096349677231217
 10
23.488552328009998
 20
5.6830878243412215
 10
24.267404360729998
 20
5.283396000311221
 10
25.05313239264
 20
4.8973966441712165
 10
25.845495728849997
 20
4.525208000481221
 10
26.64425164187
 20
4.166944083121223
 10
27.449155445939997
 20
3.822714640371217
 10
28.259960571999997
 20
3.49262512126122
 10
29.076418643199997
 20
3.1767766432912197
 10
29.898279551029997
 20
2.875265961461217
 10
30.725291531879996
 20
2.588185438621217
 10
31.557201244219996
 20
2.3156230171712195
 10
32.393753846159996
 20
2.0576621921412226
 10
33.23469307354999
 20
1.814381985581221
 10
34.079761318459994
 20
1.58585692240122
 10
34.92869970811999
 20
1.372157007491218
 10
35.781248184179994
 20
1.1733477043212233
 10
36.637145582429994
 20
0.9894899148512195
 10
37.496129712729996
 20
0.820639960901218
 10
38.357937439410996
 20
0.6668495668812184
 10
39.222304761825995
 20
0.5281658439412169
 10
40.088966895235
 20
0.4046312755812167
 10
40.95765835192399
 20
0.29628370457121633
 10
41.828113022527
 20
0.20315632142121842
 10
42.70006425754699
 20
0.12527765418121817
  0
LWPOLYLINE
  5
30
330
17
100
AcDbEntity
  8
0
100
AcDbPolyline
 90
127
 70
1
 10
16.568849766219998
 20
22.165512599481218
 10
15.822224468499996
 20
22.997100445831215
 10
15.822224468499996
 20
55.379173125991215
 10
16.55105456349
 20
56.47264405628122
 10
17.305324306729997
 20
57.56051469184222
 10
18.08384333106
 20
58.64057515540422
 10
18.88542126929
 20
59.710615569693225
 10
19.708867754239996
 20
60.768426057437225
 10
20.552992418749998
 20
61.81179674136322
 10
21.416604895619997
 20
62.83851774420022
 10
22.29851481769
 20
63.846379188675215
 10
23.352734268499997
 20
65.00053186464622
 10
24.427300617729998
 20
66.12376195030922
 10
25.038148891409996
 20
66.73923768007322
 10
25.65420330028
 20
67.34348926015421
 10
26.47904282103
 20
68.12711642388422
 10
26.627721979989996
 20
68.26531064670223
 10
27.221418360199998
 20
68.80768601468621
 10
27.81916903062
 20
69.33872290690623
 10
28.42048218765
 20
69.85812919157623
 10
29.024866027679998
 20
70.36561273691021
 10
29.6318287471
 20
70.86088141112322
 10
30.240878542289998
 20
71.34364308242822
 10
30.85152360966
 20
71.81360561903823
 10
31.46327214558
 20
72.27047688916822
 10
32.600954436159995
 20
73.08345205306422
 10
33.73759234684999
 20
73.84837181665422
 10
34.870031557539996
 20
74.5633668327092
 10
35.433690925369994
 20
74.90155838940422
 10
35.99511774815999
 20
75.22656775400522
 10
36.80875269764999
 20
75.67626890279122
 10
37.61558383360999
 20
76.0967368293042
 10
38.41439000542199
 20
76.48724923463621
 10
39.203950062451995
 20
76.84708381987821
 10
40.097657772771
 20
77.22241800888222
 10
40.960268818336
 20
77.55204287349822
 10
41.372894196410996
 20
77.6979947950372
 10
41.94791740012499
 20
77.88857933725421
 10
42.513488338898995
 20
78.06124221049922
 10
43.07700983756399
 20
78.21831138829222
 10
43.63103137719399
 20
78.3577640476342
 10
44.188673904599
 20
78.48270887867722
 10
44.736537123926
 20
78.58993580711521
 10
45.27905650055399
 20
78.68046744941923
 10
45.811790849805
 20
78.75370025363021
 10
46.34430338321399
 20
78.81084199117822
 10
46.86679125076999
 20
78.85071727596622
 10
47.348902834609994
 20
78.87274142247622
 10
47.822224468494845
 20
78.88002920119624
 10
48.295546102398
 20
78.87274142247523
 10
48.777657686257996
 20
78.85071727596423
 10
49.300145553807994
 20
78.8108419911762
 10
49.832658087211
 20
78.75370025362723
 10
50.36539243646
 20
78.68046744941522
 10
50.907911813085995
 20
78.5899358071112
 10
51.455775032416994
 20
78.48270887867223
 10
52.013417559825996
 20
78.35776404762721
 10
52.567439099443995
 20
78.21831138828823
 10
53.130960598095996
 20
78.06124221049822
 10
53.696531536867994
 20
77.88857933725322
 10
54.271554740580996
 20
77.69799479503624
 10
54.684180118667996
 20
77.55204287349423
 10
55.54679116429199
 20
77.22241800885124
 10
56.440498874549
 20
76.84708381987423
 10
57.230058932083
 20
76.48724923439423
 10
58.028865104415
 20
76.09673682878523
 10
58.835696240905996
 20
75.67626890195723
 10
59.649331190918
 20
75.22656775282222
 10
60.210758013587
 20
74.90155838825022
 10
60.774417381285
 20
74.56336683159222
 10
61.906856591723
 20
73.84837181562924
 10
63.043494502143
 20
73.08345205216021
 10
64.18117679245299
 20
72.27047688840823
 10
64.79292532824701
 20
71.81360561835223
 10
65.403570395482
 20
71.34364308182221
 10
66.01262019054799
 20
70.86088141060323
 10
66.61958290983699
 20
70.36561273648222
 10
67.223966749737
 20
69.85812919124423
 10
67.825279906641
 20
69.33872290667622
 10
68.423030576938
 20
68.80768601456322
 10
69.01672695701899
 20
68.26531064669122
 10
69.16540611739501
 20
68.12711642254723
 10
69.99024563777
 20
67.34348925913523
 10
70.606300046117
 20
66.73923767955222
 10
71.21714831926899
 20
66.12376195030421
 10
72.29171466849999
 20
65.00053186464721
 10
73.34593411930399
 20
63.84637918868122
 10
74.227844041372
 20
62.83851774420522
 10
75.09145651824599
 20
61.81179674136823
 10
75.93558118275
 20
60.76842605744022
 10
76.759027667706
 20
59.71061556969522
 10
77.560605605937
 20
58.64057515540522
 10
78.339124630263
 20
57.56051469184322
 10
79.093394373508
 20
56.47264405628122
 10
79.822224468495
 20
55.37917312599022
 10
79.8222244685
 20
22.99710044584122
 10
79.07559917077899
 20
22.16551259949122
 10
78.306595189523
 20
21.354574526511218
 10
77.515783414918
 20
20.56488824795122
 10
76.703750926731
 20
19.79704000805122
 10
75.87110055848399
 20
19.05159983898122
 10
75.018450449918
 20
18.32912113773122
 10
74.146433588105
 20
17.63014025522122
 10
73.25569733753099
 20
16.95517609817122
 10
72.346902959509
 20
16.30472974383122
 10
71.42072512127399
 20
15.67928406805122
 10
70.477851395128
 20
15.07930338674122
 10
69.51898174799999
 20
14.505233111241221
 10
68.54482802180999
 20
13.95749941760122
 10
67.556113405012
 20
13.43650893023122
 10
66.553571895717
 20
12.942648420031219
 10
65.537947756789
 20
12.476284517241218
 10
30.106501180249996
 20
12.47628451722122
 10
29.09087704132
 20
12.94264842001122
 10
28.088335532019997
 20
13.436508930211218
 10
27.099620915219997
 20
13.957499417581221
 10
26.125467189029997
 20
14.50523311122122
 10
25.166597541899996
 20
15.079303386721218
 10
24.22372381575
 20
15.679284068021222
 10
23.297545977509998
 20
16.30472974381122
 10
22.388751599489996
 20
16.95517609815122
 10
21.49801534891
 20
17.63014025521122
 10
20.6259984871
 20
18.32912113771122
 10
19.77334837853
 20
19.05159983896122
 10
18.94069801028
 20
19.79704000803122
 10
18.12866552209
 20
20.56488824794122
 10
17.337853747479997
 20
21.35457452650122
  0
ENDSEC
  0
SECTION
  2
OBJECTS
  0
DICTIONARY
  5
A
330
0
100
AcDbDictionary
281
1
  3
ACAD_COLOR
350
B
  3
ACAD_GROUP
350
C
  3
ACAD_LAYOUT
350
D
  3
ACAD_MATERIAL
350
E
  3
ACAD_MLEADERSTYLE
350
F
  3
ACAD_MLINESTYLE
350
10
  3
ACAD_PLOTSETTINGS
350
11
  3
ACAD_PLOTSTYLENAME
350
12
  3
ACAD_SCALELIST
350
14
  3
ACAD_TABLESTYLE
350
15
  3
ACAD_VISUALSTYLE
350
16
  3
EZDXF_META
350
2D
  0
DICTIONARY
  5
B
330
A
100
AcDbDictionary
281
1
  0
DICTIONARY
  5
C
330
A
100
AcDbDictionary
281
1
  0
DICTIONARY
  5
D
330
A
100
AcDbDictionary
281
1
  3
Model
350
1A
  3
Layout1
350
1E
  0
DICTIONARY
  5
E
330
A
100
AcDbDictionary
281
1
  3
ByBlock
350
1F
  3
ByLayer
350
20
  3
Global
350
21
  0
DICTIONARY
  5
F
330
A
100
AcDbDictionary
281
1
  3
Standard
350
2C
  0
DICTIONARY
  5
10
330
A
100
AcDbDictionary
281
1
  3
Standard
350
22
  0
DICTIONARY
  5
11
330
A
100
AcDbDictionary
281
1
  0
ACDBDICTIONARYWDFLT
  5
12
330
A
100
AcDbDictionary
281
1
  3
Normal
350
13
100
AcDbDictionaryWithDefault
340
13
  0
ACDBPLACEHOLDER
  5
13
330
12
  0
DICTIONARY
  5
14
330
A
100
AcDbDictionary
281
1
  0
DICTIONARY
  5
15
330
A
100
AcDbDictionary
281
1
  0
DICTIONARY
  5
16
330
A
100
AcDbDictionary
281
1
  0
LAYOUT
  5
1A
330
D
100
AcDbPlotSettings
  1

  4
A3
  6

 40
7.5
 41
20.0
 42
7.5
 43
20.0
 44
420.0
 45
297.0
 46
0.0
 47
0.0
 48
0.0
 49
0.0
140
0.0
141
0.0
142
1.0
143
1.0
 70
1024
 72
1
 73
0
 74
5
  7

 75
16
 76
0
 77
2
 78
300
147
1.0
148
0.0
149
0.0
100
AcDbLayout
  1
Model
 70
1
 71
0
 10
0.0
 20
0.0
 11
420.0
 21
297.0
 12
0.0
 22
0.0
 32
0.0
 14
1e+20
 24
1e+20
 34
1e+20
 15
-1e+20
 25
-1e+20
 35
-1e+20
146
0.0
 13
0.0
 23
0.0
 33
0.0
 16
1.0
 26
0.0
 36
0.0
 17
0.0
 27
1.0
 37
0.0
 76
1
330
17
  0
LAYOUT
  5
1E
330
D
100
AcDbPlotSettings
  1

  4
A3
  6

 40
7.5
 41
20.0
 42
7.5
 43
20.0
 44
420.0
 45
297.0
 46
0.0
 47
0.0
 48
0.0
 49
0.0
140
0.0
141
0.0
142
1.0
143
1.0
 70
0
 72
1
 73
0
 74
5
  7

 75
16
 76
0
 77
2
 78
300
147
1.0
148
0.0
149
0.0
100
AcDbLayout
  1
Layout1
 70
1
 71
1
 10
0.0
 20
0.0
 11
420.0
 21
297.0
 12
0.0
 22
0.0
 32
0.0
 14
1e+20
 24
1e+20
 34
1e+20
 15
-1e+20
 25
-1e+20
 35
-1e+20
146
0.0
 13
0.0
 23
0.0
 33
0.0
 16
1.0
 26
0.0
 36
0.0
 17
0.0
 27
1.0
 37
0.0
 76
1
330
1B
  0
MATERIAL
  5
1F
102
{ACAD_REACTORS
330
E
102
}
330
E
100
AcDbMaterial
  1
ByBlock
  2

 70
0
 40
1.0
 71
1
 41
1.0
 91
-1023410177
 42
1.0
 72
1
  3

 73
1
 74
1
 75
1
 44
0.5
 73
0
 45
1.0
 46
1.0
 77
1
  4

 78
1
 79
1
170
1
 48
1.0
171
1
  6

172
1
173
1
174
1
140
1.0
141
1.0
175
1
  7

176
1
177
1
178
1
143
1.0
179
1
  8

270
1
271
1
272
1
145
1.0
146
1.0
273
1
  9

274
1
275
1
276
1
 42
1.0
 72
1
  3

 73
1
 74
1
 75
1
 94
63
  0
MATERIAL
  5
20
102
{ACAD_REACTORS
330
E
102
}
330
E
100
AcDbMaterial
  1
ByLayer
  2

 70
0
 40
1.0
 71
1
 41
1.0
 91
-1023410177
 42
1.0
 72
1
  3

 73
1
 74
1
 75
1
 44
0.5
 73
0
 45
1.0
 46
1.0
 77
1
  4

 78
1
 79
1
170
1
 48
1.0
171
1
  6

172
1
173
1
174
1
140
1.0
141
1.0
175
1
  7

176
1
177
1
178
1
143
1.0
179
1
  8

270
1
271
1
272
1
145
1.0
146
1.0
273
1
  9

274
1
275
1
276
1
 42
1.0
 72
1
  3

 73
1
 74
1
 75
1
 94
63
  0
MATERIAL
  5
21
102
{ACAD_REACTORS
330
E
102
}
330
E
100
AcDbMaterial
  1
Global
  2

 70
0
 40
1.0
 71
1
 41
1.0
 91
-1023410177
 42
1.0
 72
1
  3

 73
1
 74
1
 75
1
 44
0.5
 73
0
 45
1.0
 46
1.0
 77
1
  4

 78
1
 79
1
170
1
 48
1.0
171
1
  6

172
1
173
1
174
1
140
1.0
141
1.0
175
1
  7

176
1
177
1
178
1
143
1.0
179
1
  8

270
1
271
1
272
1
145
1.0
146
1.0
273
1
  9

274
1
275
1
276
1
 42
1.0
 72
1
  3

 73
1
 74
1
 75
1
 94
63
  0
MLINESTYLE
  5
22
102
{ACAD_REACTORS
330
10
102
}
330
10
100
AcDbMlineStyle
  2
Standard
 70
0
  3

 62
256
 51
90.0
 52
90.0
 71
2
 49
0.5
 62
256
  6
BYLAYER
 49
-0.5
 62
256
  6
BYLAYER
  0
MLEADERSTYLE
  5
2C
102
{ACAD_REACTORS
330
F
102
}
330
F
100
AcDbMLeaderStyle
179
2
170
2
171
1
172
0
 90
2
 40
0.0
 41
0.0
173
1
 91
-1056964608
 92
-2
290
1
 42
2.0
291
1
 43
8.0
  3
Standard
 44
4.0
300

342
29
174
1
175
1
176
0
178
1
 93
-1056964608
 45
4.0
292
0
297
0
 46
4.0
 94
-1056964608
 47
1.0
 49
1.0
140
1.0
294
1
141
0.0
177
0
142
1.0
295
0
296
0
143
3.75
271
0
272
9
273
9
  0
DICTIONARY
  5
2D
330
A
100
AcDbDictionary
280
1
281
1
  3
CREATED_BY_EZDXF
350
2E
  3
WRITTEN_BY_EZDXF
350
33
  0
DICTIONARYVAR
  5
2E
330
2D
100
DictionaryVariables
280
0
  1
1.4.4 @ 2026-09-23T20:01:26.114387+00:00
  0
DICTIONARYVAR
  5
33
330
2D
100
DictionaryVariables
280
0
  1
1.4.4 @ 2026-09-23T20:01:26.119944+00:00
  0
ENDSEC
  0
EOF
