  0
SECTION
  2
HEADER
  9
$ACADVER
  1
AC1024
  9
$ACADMAINTVER
 70
6
  9
$DWGCODEPAGE
  3
ANSI_1252
  9
$LASTSAVEDBY
  1
ezdxf
  9
$INSBASE
 10
0.0
 20
0.0
 30
0.0
  9
$EXTMIN
 10
1e+20
 20
1e+20
 30
1e+20
  9
$EXTMAX
 10
-1e+20
 20
-1e+20
 30
-1e+20
  9
$LIMMIN
 10
0.0
 20
0.0
  9
$LIMMAX
 10
420.0
 20
297.0
  9
$ORTHOMODE
 70
0
  9
$REGENMODE
 70
1
  9
$FILLMODE
 70
1
  9
$QTEXTMODE
 70
0
  9
$MIRRTEXT
 70
1
  9
$LTSCALE
 40
1.0
  9
$ATTMODE
 70
1
  9
$TEXTSIZE
 40
2.5
  9
$TRACEWID
 40
1.0
  9
$TEXTSTYLE
  7
Standard
  9
$CLAYER
  8
0
  9
$CELTYPE
  6
ByLayer
  9
$CECOLOR
 62
256
  9
$CELTSCALE
 40
1.0
  9
$DISPSILH
 70
0
  9
$DIMSCALE
 40
1.0
  9
$DIMASZ
 40
2.5
  9
$DIMEXO
 40
0.625
  9
$DIMDLI
 40
3.75
  9
$DIMRND
 40
0.0
  9
$DIMDLE
 40
0.0
  9
$DIMEXE
 40
1.25
  9
$DIMTP
 40
0.0
  9
$DIMTM
 40
0.0
  9
$DIMTXT
 40
2.5
  9
$DIMCEN
 40
2.5
  9
$DIMTSZ
 40
0.0
  9
$DIMTOL
 70
0
  9
$DIMLIM
 70
0
  9
$DIMTIH
 70
0
  9
$DIMTOH
 70
0
  9
$DIMSE1
 70
0
  9
$DIMSE2
 70
0
  9
$DIMTAD
 70
1
  9
$DIMZIN
 70
8
  9
$DIMBLK
  1

  9
$DIMASO
 70
1
  9
$DIMSHO
 70
1
  9
$DIMPOST
  1

  9
$DIMAPOST
  1

  9
$DIMALT
 70
0
  9
$DIMALTD
 70
3
  9
$DIMALTF
 40
0.03937007874
  9
$DIMLFAC
 40
1.0
  9
$DIMTOFL
 70
1
  9
$DIMTVP
 40
0.0
  9
$DIMTIX
 70
0
  9
$DIMSOXD
 70
0
  9
$DIMSAH
 70
0
  9
$DIMBLK1
  1

  9
$DIMBLK2
  1

  9
$DIMSTYLE
  2
ISO-25
  9
$DIMCLRD
 70
0
  9
$DIMCLRE
 70
0
  9
$DIMCLRT
 70
0
  9
$DIMTFAC
 40
1.0
  9
$DIMGAP
 40
0.625
  9
$DIMJUST
 70
0
  9
$DIMSD1
 70
0
  9
$DIMSD2
 70
0
  9
$DIMTOLJ
 70
0
  9
$DIMTZIN
 70
8
  9
$DIMALTZ
 70
0
  9
$DIMALTTZ
 70
0
  9
$DIMUPT
 70
0
  9
$DIMDEC
 70
2
  9
$DIMTDEC
 70
2
  9
$DIMALTU
 70
2
  9
$DIMALTTD
 70
3
  9
$DIMTXSTY
  7
Standard
  9
$DIMAUNIT
 70
0
  9
$DIMADEC
 70
0
  9
$DIMALTRND
 40
0.0
  9
$DIMAZIN
 70
0
  9
$DIMDSEP
 70
44
  9
$DIMATFIT
 70
3
  9
$DIMFRAC
 70
0
  9
$DIMLDRBLK
  1

  9
$DIMLUNIT
 70
2
  9
$DIMLWD
 70
-2
  9
$DIMLWE
 70
-2
  9
$DIMTMOVE
 70
0
  9
$DIMFXL
 40
1.0
  9
$DIMFXLON
 70
0
  9
$DIMJOGANG
 40
0.785398163397
  9
$DIMTFILL
 70
0
  9
$DIMTFILLCLR
 70
0
  9
$DIMARCSYM
 70
0
  9
$DIMLTYPE
  6

  9
$DIMLTEX1
  6

  9
$DIMLTEX2
  6

  9
$DIMTXTDIRECTION
 70
0
  9
$LUNITS
 70
2
  9
$LUPREC
 70
4
  9
$SKETCHINC
 40
1.0
  9
$FILLETRAD
 40
10.0
  9
$AUNITS
 70
0
  9
$AUPREC
 70
2
  9
$MENU
  1
.
  9
$ELEVATION
 40
0.0
  9
$PELEVATION
 40
0.0
  9
$THICKNESS
 40
0.0
  9
$LIMCHECK
 70
0
  9
$CHAMFERA
 40
0.0
  9
$CHAMFERB
 40
0.0
  9
$CHAMFERC
 40
0.0
  9
$CHAMFERD
 40
0.0
  9
$SKPOLY
 70
0
  9
$TDCREATE
 40
2461316.7097106483
  9
$TDUCREATE
 40
2458532.153996898
  9
$TDUPDATE
 40
2461316.7097106483
  9
$TDUUPDATE
 40
2458532.1544311
  9
$TDINDWG
 40
0.0
  9
$TDUSRTIMER
 40
0.0
  9
$USRTIMER
 70
1
  9
$ANGBASE
 50
0.0
  9
$ANGDIR
 70
0
  9
$PDMODE
 70
0
  9
$PDSIZE
 40
0.0
  9
$PLINEWID
 40
0.0
  9
$SPLFRAME
 70
0
  9
$SPLINETYPE
 70
6
  9
$SPLINESEGS
 70
8
  9
$HANDSEED
  5
35
  9
$SURFTAB1
 70
6
  9
$SURFTAB2
 70
6
  9
$SURFTYPE
 70
6
  9
$SURFU
 70
6
  9
$SURFV
 70
6
  9
$UCSBASE
  2

  9
$UCSNAME
  2

  9
$UCSORG
 10
0.0
 20
0.0
 30
0.0
  9
$UCSXDIR
 10
1.0
 20
0.0
 30
0.0
  9
$UCSYDIR
 10
0.0
 20
1.0
 30
0.0
  9
$UCSORTHOREF
  2

  9
$UCSORTHOVIEW
 70
0
  9
$UCSORGTOP
 10
0.0
 20
0.0
 30
0.0
  9
$UCSORGBOTTOM
 10
0.0
 20
0.0
 30
0.0
  9
$UCSORGLEFT
 10
0.0
 20
0.0
 30
0.0
  9
$UCSORGRIGHT
 10
0.0
 20
0.0
 30
0.0
  9
$UCSORGFRONT
 10
0.0
 20
0.0
 30
0.0
  9
$UCSORGBACK
 10
0.0
 20
0.0
 30
0.0
  9
$PUCSBASE
  2

  9
$PUCSNAME
  2

  9
$PUCSORG
 10
0.0
 20
0.0
 30
0.0
  9
$PUCSXDIR
 10
1.0
 20
0.0
 30
0.0
  9
$PUCSYDIR
 10
0.0
 20
1.0
 30
0.0
  9
$PUCSORTHOREF
  2

  9
$PUCSORTHOVIEW
 70
0
  9
$PUCSORGTOP
 10
0.0
 20
0.0
 30
0.0
  9
$PUCSORGBOTTOM
 10
0.0
 20
0.0
 30
0.0
  9
$PUCSORGLEFT
 10
0.0
 20
0.0
 30
0.0
  9
$PUCSORGRIGHT
 10
0.0
 20
0.0
 30
0.0
  9
$PUCSORGFRONT
 10
0.0
 20
0.0
 30
0.0
  9
$PUCSORGBACK
 10
0.0
 20
0.0
 30
0.0
  9
$USERI1
 70
0
  9
$USERI2
 70
0
  9
$USERI3
 70
0
  9
$USERI4
 70
0
  9
$USERI5
 70
0
  9
$USERR1
 40
0.0
  9
$USERR2
 40
0.0
  9
$USERR3
 40
0.0
  9
$USERR4
 40
0.0
  9
$USERR5
 40
0.0
  9
$WORLDVIEW
 70
1
  9
$SHADEDGE
 70
3
  9
$SHADEDIF
 70
70
  9
$TILEMODE
 70
1
  9
$MAXACTVP
 70
64
  9
$PINSBASE
 10
0.0
 20
0.0
 30
0.0
  9
$PLIMCHECK
 70
0
  9
$PEXTMIN
 10
1e+20
 20
1e+20
 30
1e+20
  9
$PEXTMAX
 10
-1e+20
 20
-1e+20
 30
-1e+20
  9
$PLIMMIN
 10
0.0
 20
0.0
  9
$PLIMMAX
 10
420.0
 20
297.0
  9
$UNITMODE
 70
0
  9
$VISRETAIN
 70
1
  9
$PLINEGEN
 70
0
  9
$PSLTSCALE
 70
1
  9
$TREEDEPTH
 70
3020
  9
$CMLSTYLE
  2
Standard
  9
$CMLJUST
 70
0
  9
$CMLSCALE
 40
20.0
  9
$PROXYGRAPHICS
 70
1
  9
$MEASUREMENT
 70
1
  9
$CELWEIGHT
370
-1
  9
$ENDCAPS
280
0
  9
$JOINSTYLE
280
0
  9
$LWDISPLAY
290
0
  9
$INSUNITS
 70
4
  9
$HYPERLINKBASE
  1

  9
$STYLESHEET
  1

  9
$XEDIT
290
1
  9
$CEPSNTYPE
380
0
  9
$PSTYLEMODE
290
1
  9
$FINGERPRINTGUID
  2
{C7DB7D45-E0D8-460B-AC1F-8300BBCB36A6}
  9
$VERSIONGUID
  2
{B0C5EF26-DFFF-4E59-9606-D90BA4B8DE95}
  9
$EXTNAMES
290
1
  9
$PSVPSCALE
 40
0.0
  9
$OLESTARTUP
290
0
  9
$SORTENTS
280
127
  9
$INDEXCTL
280
0
  9
$HIDETEXT
280
1
  9
$XCLIPFRAME
280
1
  9
$HALOGAP
280
0
  9
$OBSCOLOR
 70
257
  9
$OBSLTYPE
280
0
  9
$INTERSECTIONDISPLAY
280
0
  9
$INTERSECTIONCOLOR
 70
257
  9
$DIMASSOC
280
2
  9
$PROJECTNAME
  1

  9
$CAMERADISPLAY
290
0
  9
$LENSLENGTH
 40
50.0
  9
$CAMERAHEIGHT
 40
0.0
  9
$STEPSPERSEC
 40
24.0
  9
$STEPSIZE
 40
100.0
  9
$3DDWFPREC
 40
2.0
  9
$PSOLWIDTH
 40
0.005
  9
$PSOLHEIGHT
 40
0.08
  9
$LOFTANG1
 40
1.570796326795
  9
$LOFTANG2
 40
1.570796326795
  9
$LOFTMAG1
 40
0.0
  9
$LOFTMAG2
 40
0.0
  9
$LOFTPARAM
 70
7
  9
$LOFTNORMALS
280
1
  9
$LATITUDE
 40
37.795
  9
$LONGITUDE
 40
-122.394
  9
$NORTHDIRECTION
 40
0.0
  9
$TIMEZONE
 70
-8000
  9
$LIGHTGLYPHDISPLAY
280
1
  9
$TILEMODELIGHTSYNCH
280
1
  9
$CMATERIAL
347
20
  9
$SOLIDHIST
280
0
  9
$SHOWHIST
280
1
  9
$DWFFRAME
280
2
  9
$DGNFRAME
280
2
  9
$REALWORLDSCALE
290
1
  9
$INTERFERECOLOR
 62
256
  9
$CSHADOW
280
0
  9
$SHADOWPLANELOCATION
 40
0.0
  0
ENDSEC
  0
SECTION
  2
CLASSES
  0
CLASS
  1
ACDBDICTIONARYWDFLT
  2
AcDbDictionaryWithDefault
  3
ObjectDBX Classes
 90
0
 91
0
280
0
281
0
  0
CLASS
  1
SUN
  2
AcDbSun
  3
SCENEOE
 90
1153
 91
0
280
0
281
0
  0
CLASS
  1
VISUALSTYLE
  2
AcDbVisualStyle
  3
ObjectDBX Classes
 90
4095
 91
0
280
0
281
0
  0
CLASS
  1
MATERIAL
  2
AcDbMaterial
  3
ObjectDBX Classes
 90
1153
 91
0
280
0
281
0
  0
CLASS
  1
SCALE
  2
AcDbScale
  3
ObjectDBX Classes
 90
1153
 91
0
280
0
281
0
  0
CLASS
  1
TABLESTYLE
  2
AcDbTableStyle
  3
ObjectDBX Classes
 90
4095
 91
0
280
0
281
0
  0
CLASS
  1
MLEADERSTYLE
  2
AcDbMLeaderStyle
  3
ACDB_MLEADERSTYLE_CLASS
 90
4095
 91
0
280
0
281
0
  0
CLASS
  1
DICTIONARYVAR
  2
AcDbDictionaryVar
  3
ObjectDBX Classes
 90
0
 91
0
280
0
281
0
  0
CLASS
  1
CELLSTYLEMAP
  2
AcDbCellStyleMap
  3
ObjectDBX Classes
 90
1152
 91
0
280
0
281
0
  0
CLASS
  1
MENTALRAYRENDERSETTINGS
  2
AcDbMentalRayRenderSettings
  3
SCENEOE
 90
1024
 91
0
280
0
281
0
  0
CLASS
  1
ACDBDETAILVIEWSTYLE
  2
AcDbDetailViewStyle
  3
ObjectDBX Classes
 90
1025
 91
0
280
0
281
0
  0
CLASS
  1
ACDBSECTIONVIEWSTYLE
  2
AcDbSectionViewStyle
  3
ObjectDBX Classes
 90
1025
 91
0
280
0
281
0
  0
CLASS
  1
RASTERVARIABLES
  2
AcDbRasterVariables
  3
ISM
 90
0
 91
0
280
0
281
0
  0
CLASS
  1
LAYOUT
  2
AcDbLayout
  3
ObjectDBX Classes
 90
0
 91
0
280
0
281
0
  0
CLASS
  1
ACDBPLACEHOLDER
  2
AcDbPlaceHolder
  3
ObjectDBX Classes
 90
0
 91
0
280
0
281
0
  0
ENDSEC
  0
SECTION
  2
TABLES
  0
TABLE
  2
VPORT
  5
8
330
0
100
AcDbSymbolTable
 70
1
  0
VPORT
  5
23
330
8
100
AcDbSymbolTableRecord
100
AcDbViewportTableRecord
  2
*Active
 70
0
 10
0.0
 20
0.0
 11
1.0
 21
1.0
 12
0.0
 22
0.0
 13
0.0
 23
0.0
 14
0.5
 24
0.5
 15
0.5
 25
0.5
 16
0.0
 26
0.0
 36
1.0
 17
0.0
 27
0.0
 37
0.0
 40
1000.0
 41
1.34
 42
50.0
 43
0.0
 44
0.0
 50
0.0
 51
0.0
 71
0
 72
1000
 73
1
 74
3
 75
0
 76
0
 77
0
 78
0
281
0
 65
0
146
0.0
  0
ENDTAB
  0
TABLE
  2
LTYPE
  5
2
330
0
100
AcDbSymbolTable
 70
3
  0
LTYPE
  5
24
330
2
100
AcDbSymbolTableRecord
100
AcDbLinetypeTableRecord
  2
ByBlock
 70
0
  3

 72
65
 73
0
 40
0.0
  0
LTYPE
  5
25
330
2
100
AcDbSymbolTableRecord
100
AcDbLinetypeTableRecord
  2
ByLayer
 70
0
  3

 72
65
 73
0
 40
0.0
  0
LTYPE
  5
26
330
2
100
AcDbSymbolTableRecord
100
AcDbLinetypeTableRecord
  2
Continuous
 70
0
  3

 72
65
 73
0
 40
0.0
  0
ENDTAB
  0
TABLE
  2
LAYER
  5
1
330
0
100
AcDbSymbolTable
 70
3
  0
LAYER
  5
27
330
1
100
AcDbSymbolTableRecord
100
AcDbLayerTableRecord
  2
0
 70
0
 62
7
  6
Continuous
370
-3
390
13
347
21
  0
LAYER
  5
28
330
1
100
AcDbSymbolTableRecord
100
AcDbLayerTableRecord
  2
Defpoints
 70
0
 62
7
  6
Continuous
290
0
370
-3
390
13
347
21
  0
LAYER
  5
2F
330
1
100
AcDbSymbolTableRecord
100
AcDbLayerTableRecord
  2
CUT
 70
0
 62
1
  6
Continuous
370
-3
390
13
347
21
  0
ENDTAB
  0
TABLE
  2
STYLE
  5
5
330
0
100
AcDbSymbolTable
 70
1
  0
STYLE
  5
29
330
5
100
AcDbSymbolTableRecord
100
AcDbTextStyleTableRecord
  2
Standard
 70
0
 40
0.0
 41
1.0
 50
0.0
 71
0
 42
2.5
  3
txt
  4

  0
ENDTAB
  0
TABLE
  2
VIEW
  5
7
330
0
100
AcDbSymbolTable
 70
0
  0
ENDTAB
  0
TABLE
  2
UCS
  5
6
330
0
100
AcDbSymbolTable
 70
0
  0
ENDTAB
  0
TABLE
  2
APPID
  5
3
330
0
100
AcDbSymbolTable
 70
3
  0
APPID
  5
2A
330
3
100
AcDbSymbolTableRecord
100
AcDbRegAppTableRecord
  2
ACAD
 70
0
  0
APPID
  5
32
330
3
100
AcDbSymbolTableRecord
100
AcDbRegAppTableRecord
  2
HATCHBACKGROUNDCOLOR
 70
0
  0
APPID
  5
33
330
3
100
AcDbSymbolTableRecord
100
AcDbRegAppTableRecord
  2
EZDXF
 70
0
  0
ENDTAB
  0
TABLE
  2
DIMSTYLE
  5
4
330
0
100
AcDbSymbolTable
 70
1
100
AcDbDimStyleTable
  0
DIMSTYLE
105
2B
330
4
100
AcDbSymbolTableRecord
100
AcDbDimStyleTableRecord
  2
Standard
 70
0
 40
1.0
 41
2.5
 42
0.625
 43
3.75
 44
1.25
 45
0.0
 46
0.0
 47
0.0
 48
0.0
 49
2.5
140
2.5
141
2.5
142
0.0
143
0.03937007874
144
1.0
145
0.0
146
1.0
147
0.625
148
0.0
 69
0
 70
0
 71
0
 72
0
 73
0
 74
0
 75
0
 76
0
 77
1
 78
8
 79
3
170
0
171
3
172
1
173
0
174
0
175
0
176
0
177
0
178
0
179
2
271
2
272
2
273
2
274
3
275
0
276
0
277
2
278
44
279
0
280
0
281
0
282
0
283
0
284
8
285
0
286
0
288
0
289
3
290
0
371
-2
372
-2
  0
ENDTAB
  0
TABLE
  2
BLOCK_RECORD
  5
9
330
0
100
AcDbSymbolTable
 70
2
  0
BLOCK_RECORD
  5
17
330
9
100
AcDbSymbolTableRecord
100
AcDbBlockTableRecord
  2
*Model_Space
340
1A
 70
0
280
1
281
0
  0
BLOCK_RECORD
  5
1B
330
9
100
AcDbSymbolTableRecord
100
AcDbBlockTableRecord
  2
*Paper_Space
340
1E
 70
0
280
1
281
0
  0
ENDTAB
  0
ENDSEC
  0
SECTION
  2
BLOCKS
  0
BLOCK
  5
18
330
17
100
AcDbEntity
  8
0
100
AcDbBlockBegin
  2
*Model_Space
 70
0
 10
0.0
 20
0.0
 30
0.0
  3
*Model_Space
  1

  0
ENDBLK
  5
19
330
17
100
AcDbEntity
  8
0
100
AcDbBlockEnd
  0
BLOCK
  5
1C
330
1B
100
AcDbEntity
  8
0
100
AcDbBlockBegin
  2
*Paper_Space
 70
0
 10
0.0
 20
0.0
 30
0.0
  3
*Paper_Space
  1

  0
ENDBLK
  5
1D
330
1B
100
AcDbEntity
  8
0
100
AcDbBlockEnd
  0
ENDSEC
  0
SECTION
  2
ENTITIES
  0
LWPOLYLINE
  5
30
330
17
100
AcDbEntity
  8
CUT
100
AcDbPolyline
 90
200
 70
1
 10
6.753573409862952
 20
47.78445813064603
 10
8.20176230840297
 20
51.080805788939145
 10
8.35527078844865
 20
51.32469110086896
 10
8.497905569043375
 20
51.60999241999813
 10
8.611889104762913
 20
51.90790058859956
 10
8.696123671824768
 20
52.2155465881585
 10
8.749798045320919
 20
52.52996761952165
 10
8.772395311678732
 20
52.84813563627647
 10
8.763697846885474
 20
53.16698650649599
 10
8.723789412261457
 20
53.48344952199834
 10
8.653054347865869
 20
53.79447697094584
 10
8.552173871020138
 20
54.0970734889816
 10
8.42211951587943
 20
54.38832490621696
 10
8.264143776970144
 20
54.66542631229338
 10
8.079768047020842
 20
54.925709069191655
 10
7.870767965092078
 20
55.166666511676866
 10
7.639156316237354
 20
55.3859780878571
 10
7.392017977943901
 20
55.577764605949
 10
2.7164496793366055
 20
58.851632774046536
 10
2.563201715708793
 20
58.971699139932284
 10
2.428539319727655
 20
59.10281583549599
 10
2.3087183171184975
 20
59.247620794239936
 10
2.2051213699131793
 20
59.40444305436982
 10
2.1189439243222807
 20
59.57147298168313
 10
2.0511804160511886
 20
59.74678315164303
 10
2.002612795086229
 20
59.928350590725174
 10
1.9738015024461077
 20
60.114080120312664
 10
1.9650790030442877
 20
60.30182853375851
 10
1.9765459492611797
 20
60.48942932770005
 10
2.008070019472207
 20
60.67471770224275
 10
2.059287444926028
 20
60.85555554140661
 10
2.129607207463202
 20
61.02985608569741
 10
2.2182178594750965
 20
61.1956080120716
 10
2.324079903242435
 20
61.35087373285715
 10
2.4496783849855817
 20
61.4981481731343
 10
3.824694616535446
 20
62.92025526064842
 10
5.283048250173557
 20
64.37455011008711
 10
7.018640802617931
 20
72.35519457949101
 10
7.865968702491841
 20
76.32088716168069
 10
8.708546671121383
 20
80.31619155773217
 10
9.857571876604869
 20
85.8554564771457
 10
10.975952078628595
 20
91.35562631133254
 10
12.072994976216684
 20
96.86088608126838
 10
13.157650921599394
 20
102.413584731338
 10
13.256790827956259
 20
102.890759112174
 10
13.397451819671392
 20
103.43386786119895
 10
13.562758266170636
 20
103.95948740876942
 10
13.750566354038455
 20
104.46817429943755
 10
13.958577581441041
 20
104.95987911000739
 10
14.184486724095759
 20
105.43453398726496
 10
14.425979805315475
 20
105.89205650134083
 10
14.680733209038369
 20
106.33235350525831
 10
14.946216142453192
 20
106.75501016980611
 10
15.258764815696473
 20
107.21421280084574
 10
15.581686153286348
 20
107.65218612504032
 10
16.054286561665403
 20
108.23753889343462
 10
16.53822109300507
 20
108.78407758519496
 10
17.02835554699919
 20
109.29284837236008
 10
17.519135434917803
 20
109.76439633822898
 10
18.00499506714121
 20
110.19927092399242
 10
18.48036359891737
 20
110.59803012897548
 10
18.939672547111755
 20
110.96124464426185
 10
19.377221587903463
 20
111.2893947289201
 10
19.815474978798598
 20
111.60218804580757
 10
20.261932359824254
 20
111.90552731198393
 10
20.71615835523852
 20
112.19947736988958
 10
21.177699230784633
 20
112.48409096281671
 10
21.646100286046334
 20
112.75942114656763
 10
22.120905956244997
 20
113.02552134658006
 10
22.6016599072857
 20
113.28244539987192
 10
23.087663352526427
 20
113.53012437204022
 10
23.72932105121489
 20
113.84021554189358
 10
24.378069418383642
 20
114.13501950169892
 10
25.033243907076802
 20
114.41491116939297
 10
25.69379401364222
 20
114.68008093153739
 10
26.358668277342687
 20
114.93072056504471
 10
27.026814435198016
 20
115.16702318048108
 10
27.69717954166792
 20
115.38918315678116
 10
28.368565076503458
 20
115.59735112023277
 10
29.12718291722397
 20
115.81599814206702
 10
29.888877355657222
 20
116.01854304466022
 10
30.65310159755578
 20
116.2053344454395
 10
31.41916085752227
 20
116.3766790310257
 10
32.18635981350453
 20
116.53288404205163
 10
32.95400267116701
 20
116.67425727376958
 10
33.7213932187624
 20
116.80110707177278
 10
34.487834872831826
 20
116.91374232429412
 10
35.25263071502975
 20
117.01247245236867
 10
36.01508352039498
 20
117.09760739895681
 10
36.77449577741109
 20
117.16945761805873
 10
37.53016970005111
 20
117.2283340646807
 10
38.28140723205338
 20
117.27454818650568
 10
39.02751004346042
 20
117.30841191803682
 10
39.76777951941035
 20
117.3302376780022
 10
40.49982582091996
 20
117.34031509347058
 10
41.378664144915795
 20
117.32684021620699
 10
42.27078175448044
 20
117.29629075964348
 10
43.17351848129972
 20
117.24800322552589
 10
44.085521036204845
 20
117.18129519748989
 10
45.005436851877825
 20
117.09548536751527
 10
45.93191405618454
 20
116.9898935492792
 10
46.86360147709341
 20
116.86384070034788
 10
47.79914867858616
 20
116.71664894937221
 10
48.737206027629036
 20
116.54764162428073
 10
49.676424792770575
 20
116.35614327706651
 10
50.61545727512606
 20
116.14147970017231
 10
51.55295697251976
 20
115.90297792870612
 10
52.487578777140065
 20
115.63996622182981
 10
53.4179792064
 20
115.35177401565589
 10
54.34281666541902
 20
115.03773183902156
 10
55.261147249447134
 20
114.69702444493664
 10
55.961081708072996
 20
114.41681807284401
 10
56.63613453029835
 20
114.12851667182206
 10
57.28632584910451
 20
113.83282206126675
 10
57.91148500040489
 20
113.53055759676829
 10
58.78598293409674
 20
113.07630687541794
 10
59.60944555356308
 20
112.6110303344036
 10
60.38379496186241
 20
112.13628223720065
 10
61.11028758420481
 20
111.65396030571198
 10
61.79017911459971
 20
111.1659602739659
 10
62.42472403725178
 20
110.67417621332521
 10
63.01517516858511
 20
110.18050098734213
 10
63.56298598597923
 20
109.68664406550192
 10
63.999197238649074
 20
109.26454993061944
 10
64.4610131936524
 20
108.784564917687
 10
64.9374366334202
 20
108.24724328975282
 10
65.41849957702658
 20
107.65200547934333
 10
65.71902571835412
 20
107.2455568206091
 10
66.01458396646103
 20
106.81491326088951
 10
66.30171067641645
 20
106.36109833237398
 10
66.57785948607405
 20
105.88383785228115
 10
66.8080842322543
 20
105.44743855766274
 10
67.01003340887885
 20
105.0272114007588
 10
67.18572356615225
 20
104.6240760300234
 10
67.33724503428445
 20
104.23879333379269
 10
67.46668154277434
 20
103.8721167153581
 10
67.57611024004242
 20
103.52479064472958
 10
67.66760202046189
 20
103.19754779001357
 10
67.7429600943591
 20
102.89216602630722
 10
67.84239243769036
 20
102.41358472543655
 10
68.92704825116884
 20
96.86088608403381
 10
70.02409114931332
 20
91.35562631133195
 10
71.14247135133002
 20
85.85545647714525
 10
72.29149655681573
 20
80.31619155773166
 10
73.13407452545086
 20
76.3208871616821
 10
73.98140257192851
 20
72.35519389335732
 10
75.71703276845182
 20
64.37459204603333
 10
77.17534853886772
 20
62.92025542083358
 10
78.55038356417042
 20
61.49820295485546
 10
78.67594634678406
 20
61.35089863942528
 10
78.781825376317
 20
61.195608008900564
 10
78.87043602962935
 20
61.02985608299113
 10
78.94075579324763
 20
60.85555553890786
 10
78.99197321953184
 20
60.674717699757736
 10
79.02349729028417
 20
60.48942932509191
 10
79.03496423675028
 20
60.30182853095203
 10
79.02624173728776
 20
60.11408011730612
 10
78.99743044427646
 20
59.928350587563905
 10
78.9488628226544
 20
59.74678314843065
 10
78.88109931346872
 20
59.57147297860091
 10
78.79492186672834
 20
59.404443051651455
 10
78.69132491816963
 20
59.24762079215806
 10
78.57150391407104
 20
59.10281583436942
 10
78.4368415165213
 20
58.97169914012516
 10
78.28359354986748
 20
58.851632774936554
 10
73.60802524999323
 20
55.577764605950094
 10
73.36088691169738
 20
55.38597808785668
 10
73.12927526283882
 20
55.166666511675885
 10
72.92027518091328
 20
54.92570906919063
 10
72.73589945096107
 20
54.66542631229286
 10
72.57792371205231
 20
54.38832490621437
 10
72.4478693569111
 20
54.0970734889779
 10
72.34698888007124
 20
53.794476970944565
 10
72.27625381567147
 20
53.483449521997755
 10
72.23634538105081
 20
53.16698650649626
 10
72.22764791625106
 20
52.84813563627573
 10
72.25024518261222
 20
52.52996761951958
 10
72.30391955610531
 20
52.21554658815635
 10
72.38815412317341
 20
51.90790058859728
 10
72.50213765888785
 20
51.60999241999503
 10
72.64477243949099
 20
51.324691100866325
 10
72.79828078597652
 20
51.08080600111977
 10
74.24646378811059
 20
47.784453908420886
 10
74.12196990026064
 20
47.69728234968731
 10
74.55782326749764
 20
47.69728234968731
 10
74.55782522754501
 20
47.69727788823031
 10
53.05358341979
 20
32.639845670957314
 10
54.487524510668
 20
30.591965560235312
 10
75.583201587807
 20
45.363317673284314
 10
81.0
 20
33.03360882056731
 10
81.0
 20
26.00000000001031
 10
43.000015615548
 20
2.1312729359124205e-11
 10
38.000015615547
 20
2.1312729359124205e-11
 10
0.0
 20
26.000000000011312
 10
9.99733629214461e-12
 20
33.03360882056431
 10
5.416831020879997
 20
45.36332510896131
 10
26.512518717269998
 20
30.591965560235312
 10
27.94645980815
 20
32.63984567095831
 10
6.4422116287700035
 20
47.69728234968731
 10
6.878073327675381
 20
47.69728234968731
  0
LWPOLYLINE
  5
31
330
17
100
AcDbEntity
  8
CUT
100
AcDbPolyline
 90
145
 70
1
 10
20.77581115286
 20
100.98931813041531
 10
19.67644232814
 20
95.36088036756631
 10
18.5735505212
 20
89.82628824440631
 10
17.44910380489
 20
84.29626758621731
 10
16.29391461272
 20
78.7272648645293
 10
15.44700112225
 20
74.71140497255132
 10
14.595531640179999
 20
70.72632977653731
 10
12.867874450230001
 20
62.782155697999315
 10
12.55852545235
 20
61.37477913302331
 10
13.01148639062
 20
60.97637166531331
 10
13.4419256398
 20
60.55373213251731
 10
13.848548672989999
 20
60.108131604245315
 10
14.230132589499998
 20
59.64091020428131
 10
14.58552979264
 20
59.15347308021831
 10
14.91367144114
 20
58.64728617754131
 10
15.213570663559999
 20
58.12387183086231
 10
15.484325526340001
 20
57.58480418556931
 10
33.592890548894
 20
45.57925121531531
 10
33.978637864744
 20
45.33354840200531
 10
34.373115291533
 20
45.10212147205131
 10
34.775794744882
 20
44.88528023518831
 10
35.186137160413
 20
44.683314975377314
 10
35.603593215387
 20
44.49649606220531
 10
36.027604064086
 20
44.32507358894131
 10
36.457602085928
 20
44.16927703774131
 10
36.893011645345
 20
44.02931497244231
 10
37.333249862375
 20
43.90537475935431
 10
37.777727392965
 20
43.797622316439316
 10
38.225849217921
 20
43.70620189119531
 10
38.677015439456
 20
43.63123586755431
 10
39.130622084266
 20
43.57282460204631
 10
39.58606191207
 20
43.53104628945531
 10
40.042725228519
 20
43.50595685813831
 10
40.50000070138497
 20
43.49758989515431
 10
40.95727617895
 20
43.50595660130331
 10
41.413939509491
 20
43.53104577612831
 10
41.869379360761
 20
43.57282383291431
 10
42.322986038378
 20
43.63123484364731
 10
42.774152302018
 20
43.70620061388431
 10
43.222274178322
 20
43.79762078743431
 10
43.666751769433
 20
43.90537298070231
 10
44.106990056076
 20
44.02931294652331
 10
44.542399694104
 20
44.16927476726831
 10
44.972397803452
 20
44.325071076953314
 10
45.396408748432
 20
44.49649331206531
 10
45.813864908336
 20
44.68331199076731
 10
46.224207437303
 20
44.88527702010331
 10
46.626887012444996
 20
45.10211803079531
 10
47.021364569218
 20
45.33354473918431
 10
47.407112023072
 20
45.579247335833315
 10
65.515723430412
 20
57.584816416609314
 10
65.786478156229
 20
58.12388224213831
 10
66.086377061815
 20
58.64729482532131
 10
66.414518219587
 20
59.153480034886314
 10
66.76991476512
 20
59.64091554983031
 10
67.151497865079
 20
60.10813543771131
 10
67.558119931674
 20
60.55373456334431
 10
67.988558073953
 20
60.97637281466231
 10
68.441517775579
 20
61.37477913302131
 10
68.132168777704
 20
62.78215569799831
 10
66.404511587762
 20
70.72632977653731
 10
65.553042105694
 20
74.71140497255132
 10
64.706128615216
 20
78.7272648645293
 10
63.550939423052995
 20
84.29626758621731
 10
62.426492706736
 20
89.8262882444053
 10
61.323600899799004
 20
95.36088036756531
 10
60.224229140177
 20
100.98933475973831
 10
60.192279427214004
 20
101.14600354011532
 10
60.147481715499
 20
101.32247083932731
 10
60.077125550079
 20
101.53646214829732
 10
59.964241520196
 20
101.80386841494432
 10
59.791860215091
 20
102.14058058718331
 10
59.547681870346
 20
102.5438140757313
 10
59.269622318766
 20
102.93469301826332
 10
59.024966996052996
 20
103.23651616119132
 10
58.771854146845
 20
103.52142086615731
 10
58.516710850874
 20
103.78665941130932
 10
58.265964187872996
 20
104.02948407479431
 10
57.933640194825
 20
104.3291860860193
 10
57.564328079917004
 20
104.6382307358383
 10
57.156022995377995
 20
104.95488893077132
 10
56.706720093439
 20
105.2774315773383
 10
56.214414526331
 20
105.6041295820583
 10
55.677101446286
 20
105.93325385145332
 10
55.092776005534
 20
106.26307529204331
 10
54.459433356306
 20
106.59186481034732
 10
53.995206340973
 20
106.81636020609831
 10
53.50984937641
 20
107.03707595225731
 10
52.998836998301
 20
107.25530109410631
 10
52.461579215307
 20
107.47036492942232
 10
51.752567302481
 20
107.73295968631331
 10
51.031200462122996
 20
107.97686519649231
 10
50.299023733495
 20
108.20236895936532
 10
49.557582155863
 20
108.40975847434132
 10
48.808420768489
 20
108.59932124082631
 10
48.053084610639
 20
108.77134475822932
 10
47.293118721576
 20
108.9261165259583
 10
46.530068140564
 20
109.0639240434193
 10
45.765477906865996
 20
109.18505481002131
 10
45.000893059747
 20
109.28979632517131
 10
44.237858638472
 20
109.37843608827731
 10
43.477919682302996
 20
109.45126159874631
 10
42.722621230505
 20
109.50856035598632
 10
41.973508322341
 20
109.5506198594043
 10
41.232125997076
 20
109.57772760840932
 10
40.5000192939739
 20
109.59017110240731
 10
39.275072939969
 20
109.5616996360913
 10
38.655765439297
 20
109.53242765279931
 10
38.033009439864
 20
109.49294983560131
 10
37.407635729431
 20
109.44312993413331
 10
36.780475095764
 20
109.38283169803032
 10
36.152358326624
 20
109.31191887693132
 10
35.524116209775
 20
109.23025522047031
 10
34.896579532979
 20
109.13770447828531
 10
34.270579084002
 20
109.0341304000113
 10
33.646945650603996
 20
108.91939673528731
 10
33.026510020551
 20
108.79336723374732
 10
32.410102981604
 20
108.65590564502831
 10
31.798555321526997
 20
108.50687571876831
 10
31.192697828083
 20
108.34614120460232
 10
30.593361289036
 20
108.17356585216731
 10
30.06314430445
 20
108.0090742960383
 10
29.53730541146
 20
107.8346183613103
 10
29.017100563059998
 20
107.6504693650463
 10
28.50378571223
 20
107.45689862430731
 10
27.99861681198
 20
107.25417745615532
 10
27.5028498153
 20
107.04257717765431
 10
27.01774067518
 20
106.8223691058653
 10
26.54454534461
 20
106.5938245578513
 10
25.841506218070002
 20
106.2268740130123
 10
25.1751172083
 20
105.84429268699232
 10
24.54468091443
 20
105.44622038906131
 10
23.95343540855
 20
105.03475667599531
 10
23.37209848445
 20
104.58487030064431
 10
23.07903729472
 20
104.33787069509032
 10
22.78906847865
 20
104.0779133496333
 10
22.50570768034
 20
103.80630816828432
 10
22.23247054387
 20
103.52436505505732
 10
21.97287271334
 20
103.23339391396232
 10
21.73042983286
 20
102.93470464898931
 10
21.43645994162
 20
102.51961376356631
 10
21.20787884437
 20
102.14102741234132
 10
21.02900392481
 20
101.78552292188532
 10
20.89668297844
 20
101.45366129640831
 10
20.80747968149
 20
101.1447717284103
  0
ENDSEC
  0
SECTION
  2
OBJECTS
  0
DICTIONARY
  5
A
330
0
100
AcDbDictionary
281
1
  3
ACAD_COLOR
350
B
  3
ACAD_GROUP
350
C
  3
ACAD_LAYOUT
350
D
  3
ACAD_MATERIAL
350
E
  3
ACAD_MLEADERSTYLE
350
F
  3
ACAD_MLINESTYLE
350
10
  3
ACAD_PLOTSETTINGS
350
11
  3
ACAD_PLOTSTYLENAME
350
12
  3
ACAD_SCALELIST
350
14
  3
ACAD_TABLESTYLE
350
15
  3
ACAD_VISUALSTYLE
350
16
  3
EZDXF_META
350
2D
  0
DICTIONARY
  5
B
330
A
100
AcDbDictionary
281
1
  0
DICTIONARY
  5
C
330
A
100
AcDbDictionary
281
1
  0
DICTIONARY
  5
D
330
A
100
AcDbDictionary
281
1
  3
Model
350
1A
  3
Layout1
350
1E
  0
DICTIONARY
  5
E
330
A
100
AcDbDictionary
281
1
  3
ByBlock
350
1F
  3
ByLayer
350
20
  3
Global
350
21
  0
DICTIONARY
  5
F
330
A
100
AcDbDictionary
281
1
  3
Standard
350
2C
  0
DICTIONARY
  5
10
330
A
100
AcDbDictionary
281
1
  3
Standard
350
22
  0
DICTIONARY
  5
11
330
A
100
AcDbDictionary
281
1
  0
ACDBDICTIONARYWDFLT
  5
12
330
A
100
AcDbDictionary
281
1
  3
Normal
350
13
100
AcDbDictionaryWithDefault
340
13
  0
ACDBPLACEHOLDER
  5
13
330
12
  0
DICTIONARY
  5
14
330
A
100
AcDbDictionary
281
1
  0
DICTIONARY
  5
15
330
A
100
AcDbDictionary
281
1
  0
DICTIONARY
  5
16
330
A
100
AcDbDictionary
281
1
  0
LAYOUT
  5
1A
330
D
100
AcDbPlotSettings
  1

  4
A3
  6

 40
7.5
 41
20.0
 42
7.5
 43
20.0
 44
420.0
 45
297.0
 46
0.0
 47
0.0
 48
0.0
 49
0.0
140
0.0
141
0.0
142
1.0
143
1.0
 70
1024
 72
1
 73
0
 74
5
  7

 75
16
 76
0
 77
2
 78
300
147
1.0
148
0.0
149
0.0
100
AcDbLayout
  1
Model
 70
1
 71
0
 10
0.0
 20
0.0
 11
420.0
 21
297.0
 12
0.0
 22
0.0
 32
0.0
 14
1e+20
 24
1e+20
 34
1e+20
 15
-1e+20
 25
-1e+20
 35
-1e+20
146
0.0
 13
0.0
 23
0.0
 33
0.0
 16
1.0
 26
0.0
 36
0.0
 17
0.0
 27
1.0
 37
0.0
 76
1
330
17
  0
LAYOUT
  5
1E
330
D
100
AcDbPlotSettings
  1

  4
A3
  6

 40
7.5
 41
20.0
 42
7.5
 43
20.0
 44
420.0
 45
297.0
 46
0.0
 47
0.0
 48
0.0
 49
0.0
140
0.0
141
0.0
142
1.0
143
1.0
 70
0
 72
1
 73
0
 74
5
  7

 75
16
 76
0
 77
2
 78
300
147
1.0
148
0.0
149
0.0
100
AcDbLayout
  1
Layout1
 70
1
 71
1
 10
0.0
 20
0.0
 11
420.0
 21
297.0
 12
0.0
 22
0.0
 32
0.0
 14
1e+20
 24
1e+20
 34
1e+20
 15
-1e+20
 25
-1e+20
 35
-1e+20
146
0.0
 13
0.0
 23
0.0
 33
0.0
 16
1.0
 26
0.0
 36
0.0
 17
0.0
 27
1.0
 37
0.0
 76
1
330
1B
  0
MATERIAL
  5
1F
102
{ACAD_REACTORS
330
E
102
}
330
E
100
AcDbMaterial
  1
ByBlock
  2

 70
0
 40
1.0
 71
1
 41
1.0
 91
-1023410177
 42
1.0
 72
1
  3

 73
1
 74
1
 75
1
 44
0.5
 73
0
 45
1.0
 46
1.0
 77
1
  4

 78
1
 79
1
170
1
 48
1.0
171
1
  6

172
1
173
1
174
1
140
1.0
141
1.0
175
1
  7

176
1
177
1
178
1
143
1.0
179
1
  8

270
1
271
1
272
1
145
1.0
146
1.0
273
1
  9

274
1
275
1
276
1
 42
1.0
 72
1
  3

 73
1
 74
1
 75
1
 94
63
  0
MATERIAL
  5
20
102
{ACAD_REACTORS
330
E
102
}
330
E
100
AcDbMaterial
  1
ByLayer
  2

 70
0
 40
1.0
 71
1
 41
1.0
 91
-1023410177
 42
1.0
 72
1
  3

 73
1
 74
1
 75
1
 44
0.5
 73
0
 45
1.0
 46
1.0
 77
1
  4

 78
1
 79
1
170
1
 48
1.0
171
1
  6

172
1
173
1
174
1
140
1.0
141
1.0
175
1
  7

176
1
177
1
178
1
143
1.0
179
1
  8

270
1
271
1
272
1
145
1.0
146
1.0
273
1
  9

274
1
275
1
276
1
 42
1.0
 72
1
  3

 73
1
 74
1
 75
1
 94
63
  0
MATERIAL
  5
21
102
{ACAD_REACTORS
330
E
102
}
330
E
100
AcDbMaterial
  1
Global
  2

 70
0
 40
1.0
 71
1
 41
1.0
 91
-1023410177
 42
1.0
 72
1
  3

 73
1
 74
1
 75
1
 44
0.5
 73
0
 45
1.0
 46
1.0
 77
1
  4

 78
1
 79
1
170
1
 48
1.0
171
1
  6

172
1
173
1
174
1
140
1.0
141
1.0
175
1
  7

176
1
177
1
178
1
143
1.0
179
1
  8

270
1
271
1
272
1
145
1.0
146
1.0
273
1
  9

274
1
275
1
276
1
 42
1.0
 72
1
  3

 73
1
 74
1
 75
1
 94
63
  0
MLINESTYLE
  5
22
102
{ACAD_REACTORS
330
10
102
}
330
10
100
AcDbMlineStyle
  2
Standard
 70
0
  3

 62
256
 51
90.0
 52
90.0
 71
2
 49
0.5
 62
256
  6
BYLAYER
 49
-0.5
 62
256
  6
BYLAYER
  0
MLEADERSTYLE
  5
2C
102
{ACAD_REACTORS
330
F
102
}
330
F
100
AcDbMLeaderStyle
179
2
170
2
171
1
172
0
 90
2
 40
0.0
 41
0.0
173
1
 91
-1056964608
 92
-2
290
1
 42
2.0
291
1
 43
8.0
  3
Standard
 44
4.0
300

342
29
174
1
175
1
176
0
178
1
 93
-1056964608
 45
4.0
292
0
297
0
 46
4.0
 94
-1056964608
 47
1.0
 49
1.0
140
1.0
294
1
141
0.0
177
0
142
1.0
295
0
296
0
143
3.75
271
0
272
9
273
9
  0
DICTIONARY
  5
2D
330
A
100
AcDbDictionary
280
1
281
1
  3
CREATED_BY_EZDXF
350
2E
  3
WRITTEN_BY_EZDXF
350
34
  0
DICTIONARYVAR
  5
2E
330
2D
100
DictionaryVariables
280
0
  1
1.4.4 @ 2026-10-02T11:31:59.883042+00:00
  0
DICTIONARYVAR
  5
34
330
2D
100
DictionaryVariables
280
0
  1
1.4.4 @ 2026-10-02T11:31:59.885226+00:00
  0
ENDSEC
  0
EOF
