  0
SECTION
  2
HEADER
  9
$ACADVER
  1
AC1027
  9
$ACADMAINTVER
 70
105
  9
$DWGCODEPAGE
  3
ANSI_1252
  9
$LASTSAVEDBY
  1
ezdxf
  9
$REQUIREDVERSIONS
160
0
  9
$INSBASE
 10
0.0
 20
0.0
 30
0.0
  9
$EXTMIN
 10
1e+20
 20
1e+20
 30
1e+20
  9
$EXTMAX
 10
-1e+20
 20
-1e+20
 30
-1e+20
  9
$LIMMIN
 10
0.0
 20
0.0
  9
$LIMMAX
 10
420.0
 20
297.0
  9
$ORTHOMODE
 70
0
  9
$REGENMODE
 70
1
  9
$FILLMODE
 70
1
  9
$QTEXTMODE
 70
0
  9
$MIRRTEXT
 70
1
  9
$LTSCALE
 40
1.0
  9
$ATTMODE
 70
1
  9
$TEXTSIZE
 40
2.5
  9
$TRACEWID
 40
1.0
  9
$TEXTSTYLE
  7
Standard
  9
$CLAYER
  8
0
  9
$CELTYPE
  6
ByLayer
  9
$CECOLOR
 62
256
  9
$CELTSCALE
 40
1.0
  9
$DISPSILH
 70
0
  9
$DIMSCALE
 40
1.0
  9
$DIMASZ
 40
2.5
  9
$DIMEXO
 40
0.625
  9
$DIMDLI
 40
3.75
  9
$DIMRND
 40
0.0
  9
$DIMDLE
 40
0.0
  9
$DIMEXE
 40
1.25
  9
$DIMTP
 40
0.0
  9
$DIMTM
 40
0.0
  9
$DIMTXT
 40
2.5
  9
$DIMCEN
 40
2.5
  9
$DIMTSZ
 40
0.0
  9
$DIMTOL
 70
0
  9
$DIMLIM
 70
0
  9
$DIMTIH
 70
0
  9
$DIMTOH
 70
0
  9
$DIMSE1
 70
0
  9
$DIMSE2
 70
0
  9
$DIMTAD
 70
1
  9
$DIMZIN
 70
8
  9
$DIMBLK
  1

  9
$DIMASO
 70
1
  9
$DIMSHO
 70
1
  9
$DIMPOST
  1

  9
$DIMAPOST
  1

  9
$DIMALT
 70
0
  9
$DIMALTD
 70
3
  9
$DIMALTF
 40
0.03937007874
  9
$DIMLFAC
 40
1.0
  9
$DIMTOFL
 70
1
  9
$DIMTVP
 40
0.0
  9
$DIMTIX
 70
0
  9
$DIMSOXD
 70
0
  9
$DIMSAH
 70
0
  9
$DIMBLK1
  1

  9
$DIMBLK2
  1

  9
$DIMSTYLE
  2
ISO-25
  9
$DIMCLRD
 70
0
  9
$DIMCLRE
 70
0
  9
$DIMCLRT
 70
0
  9
$DIMTFAC
 40
1.0
  9
$DIMGAP
 40
0.625
  9
$DIMJUST
 70
0
  9
$DIMSD1
 70
0
  9
$DIMSD2
 70
0
  9
$DIMTOLJ
 70
0
  9
$DIMTZIN
 70
8
  9
$DIMALTZ
 70
0
  9
$DIMALTTZ
 70
0
  9
$DIMUPT
 70
0
  9
$DIMDEC
 70
2
  9
$DIMTDEC
 70
2
  9
$DIMALTU
 70
2
  9
$DIMALTTD
 70
3
  9
$DIMTXSTY
  7
Standard
  9
$DIMAUNIT
 70
0
  9
$DIMADEC
 70
0
  9
$DIMALTRND
 40
0.0
  9
$DIMAZIN
 70
0
  9
$DIMDSEP
 70
44
  9
$DIMATFIT
 70
3
  9
$DIMFRAC
 70
0
  9
$DIMLDRBLK
  1

  9
$DIMLUNIT
 70
2
  9
$DIMLWD
 70
-2
  9
$DIMLWE
 70
-2
  9
$DIMTMOVE
 70
0
  9
$DIMFXL
 40
1.0
  9
$DIMFXLON
 70
0
  9
$DIMJOGANG
 40
0.785398163397
  9
$DIMTFILL
 70
0
  9
$DIMTFILLCLR
 70
0
  9
$DIMARCSYM
 70
0
  9
$DIMLTYPE
  6

  9
$DIMLTEX1
  6

  9
$DIMLTEX2
  6

  9
$DIMTXTDIRECTION
 70
0
  9
$LUNITS
 70
2
  9
$LUPREC
 70
4
  9
$SKETCHINC
 40
1.0
  9
$FILLETRAD
 40
10.0
  9
$AUNITS
 70
0
  9
$AUPREC
 70
2
  9
$MENU
  1
.
  9
$ELEVATION
 40
0.0
  9
$PELEVATION
 40
0.0
  9
$THICKNESS
 40
0.0
  9
$LIMCHECK
 70
0
  9
$CHAMFERA
 40
0.0
  9
$CHAMFERB
 40
0.0
  9
$CHAMFERC
 40
0.0
  9
$CHAMFERD
 40
0.0
  9
$SKPOLY
 70
0
  9
$TDCREATE
 40
2461308.0634953706
  9
$TDUCREATE
 40
2458532.153996898
  9
$TDUPDATE
 40
2461308.0634953706
  9
$TDUUPDATE
 40
2458532.1544311
  9
$TDINDWG
 40
0.0
  9
$TDUSRTIMER
 40
0.0
  9
$USRTIMER
 70
1
  9
$ANGBASE
 50
0.0
  9
$ANGDIR
 70
0
  9
$PDMODE
 70
0
  9
$PDSIZE
 40
0.0
  9
$PLINEWID
 40
0.0
  9
$SPLFRAME
 70
0
  9
$SPLINETYPE
 70
6
  9
$SPLINESEGS
 70
8
  9
$HANDSEED
  5
34
  9
$SURFTAB1
 70
6
  9
$SURFTAB2
 70
6
  9
$SURFTYPE
 70
6
  9
$SURFU
 70
6
  9
$SURFV
 70
6
  9
$UCSBASE
  2

  9
$UCSNAME
  2

  9
$UCSORG
 10
0.0
 20
0.0
 30
0.0
  9
$UCSXDIR
 10
1.0
 20
0.0
 30
0.0
  9
$UCSYDIR
 10
0.0
 20
1.0
 30
0.0
  9
$UCSORTHOREF
  2

  9
$UCSORTHOVIEW
 70
0
  9
$UCSORGTOP
 10
0.0
 20
0.0
 30
0.0
  9
$UCSORGBOTTOM
 10
0.0
 20
0.0
 30
0.0
  9
$UCSORGLEFT
 10
0.0
 20
0.0
 30
0.0
  9
$UCSORGRIGHT
 10
0.0
 20
0.0
 30
0.0
  9
$UCSORGFRONT
 10
0.0
 20
0.0
 30
0.0
  9
$UCSORGBACK
 10
0.0
 20
0.0
 30
0.0
  9
$PUCSBASE
  2

  9
$PUCSNAME
  2

  9
$PUCSORG
 10
0.0
 20
0.0
 30
0.0
  9
$PUCSXDIR
 10
1.0
 20
0.0
 30
0.0
  9
$PUCSYDIR
 10
0.0
 20
1.0
 30
0.0
  9
$PUCSORTHOREF
  2

  9
$PUCSORTHOVIEW
 70
0
  9
$PUCSORGTOP
 10
0.0
 20
0.0
 30
0.0
  9
$PUCSORGBOTTOM
 10
0.0
 20
0.0
 30
0.0
  9
$PUCSORGLEFT
 10
0.0
 20
0.0
 30
0.0
  9
$PUCSORGRIGHT
 10
0.0
 20
0.0
 30
0.0
  9
$PUCSORGFRONT
 10
0.0
 20
0.0
 30
0.0
  9
$PUCSORGBACK
 10
0.0
 20
0.0
 30
0.0
  9
$USERI1
 70
0
  9
$USERI2
 70
0
  9
$USERI3
 70
0
  9
$USERI4
 70
0
  9
$USERI5
 70
0
  9
$USERR1
 40
0.0
  9
$USERR2
 40
0.0
  9
$USERR3
 40
0.0
  9
$USERR4
 40
0.0
  9
$USERR5
 40
0.0
  9
$WORLDVIEW
 70
1
  9
$SHADEDGE
 70
3
  9
$SHADEDIF
 70
70
  9
$TILEMODE
 70
1
  9
$MAXACTVP
 70
64
  9
$PINSBASE
 10
0.0
 20
0.0
 30
0.0
  9
$PLIMCHECK
 70
0
  9
$PEXTMIN
 10
1e+20
 20
1e+20
 30
1e+20
  9
$PEXTMAX
 10
-1e+20
 20
-1e+20
 30
-1e+20
  9
$PLIMMIN
 10
0.0
 20
0.0
  9
$PLIMMAX
 10
420.0
 20
297.0
  9
$UNITMODE
 70
0
  9
$VISRETAIN
 70
1
  9
$PLINEGEN
 70
0
  9
$PSLTSCALE
 70
1
  9
$TREEDEPTH
 70
3020
  9
$CMLSTYLE
  2
Standard
  9
$CMLJUST
 70
0
  9
$CMLSCALE
 40
20.0
  9
$PROXYGRAPHICS
 70
1
  9
$MEASUREMENT
 70
1
  9
$CELWEIGHT
370
-1
  9
$ENDCAPS
280
0
  9
$JOINSTYLE
280
0
  9
$LWDISPLAY
290
0
  9
$INSUNITS
 70
4
  9
$HYPERLINKBASE
  1

  9
$STYLESHEET
  1

  9
$XEDIT
290
1
  9
$CEPSNTYPE
380
0
  9
$PSTYLEMODE
290
1
  9
$FINGERPRINTGUID
  2
{BD6376C0-43E9-4F9A-A12A-A60E7BC13E0C}
  9
$VERSIONGUID
  2
{CC15CB19-E784-4A8F-9E44-1281FFA2AECE}
  9
$EXTNAMES
290
1
  9
$PSVPSCALE
 40
0.0
  9
$OLESTARTUP
290
0
  9
$SORTENTS
280
127
  9
$INDEXCTL
280
0
  9
$HIDETEXT
280
1
  9
$XCLIPFRAME
280
1
  9
$HALOGAP
280
0
  9
$OBSCOLOR
 70
257
  9
$OBSLTYPE
280
0
  9
$INTERSECTIONDISPLAY
280
0
  9
$INTERSECTIONCOLOR
 70
257
  9
$DIMASSOC
280
2
  9
$PROJECTNAME
  1

  9
$CAMERADISPLAY
290
0
  9
$LENSLENGTH
 40
50.0
  9
$CAMERAHEIGHT
 40
0.0
  9
$STEPSPERSEC
 40
24.0
  9
$STEPSIZE
 40
100.0
  9
$3DDWFPREC
 40
2.0
  9
$PSOLWIDTH
 40
0.005
  9
$PSOLHEIGHT
 40
0.08
  9
$LOFTANG1
 40
1.570796326795
  9
$LOFTANG2
 40
1.570796326795
  9
$LOFTMAG1
 40
0.0
  9
$LOFTMAG2
 40
0.0
  9
$LOFTPARAM
 70
7
  9
$LOFTNORMALS
280
1
  9
$LATITUDE
 40
37.795
  9
$LONGITUDE
 40
-122.394
  9
$NORTHDIRECTION
 40
0.0
  9
$TIMEZONE
 70
-8000
  9
$LIGHTGLYPHDISPLAY
280
1
  9
$TILEMODELIGHTSYNCH
280
1
  9
$CMATERIAL
347
20
  9
$SOLIDHIST
280
0
  9
$SHOWHIST
280
1
  9
$DWFFRAME
280
2
  9
$DGNFRAME
280
2
  9
$REALWORLDSCALE
290
1
  9
$INTERFERECOLOR
 62
256
  9
$CSHADOW
280
0
  9
$SHADOWPLANELOCATION
 40
0.0
  0
ENDSEC
  0
SECTION
  2
CLASSES
  0
CLASS
  1
ACDBDICTIONARYWDFLT
  2
AcDbDictionaryWithDefault
  3
ObjectDBX Classes
 90
0
 91
0
280
0
281
0
  0
CLASS
  1
SUN
  2
AcDbSun
  3
SCENEOE
 90
1153
 91
0
280
0
281
0
  0
CLASS
  1
VISUALSTYLE
  2
AcDbVisualStyle
  3
ObjectDBX Classes
 90
4095
 91
0
280
0
281
0
  0
CLASS
  1
MATERIAL
  2
AcDbMaterial
  3
ObjectDBX Classes
 90
1153
 91
0
280
0
281
0
  0
CLASS
  1
SCALE
  2
AcDbScale
  3
ObjectDBX Classes
 90
1153
 91
0
280
0
281
0
  0
CLASS
  1
TABLESTYLE
  2
AcDbTableStyle
  3
ObjectDBX Classes
 90
4095
 91
0
280
0
281
0
  0
CLASS
  1
MLEADERSTYLE
  2
AcDbMLeaderStyle
  3
ACDB_MLEADERSTYLE_CLASS
 90
4095
 91
0
280
0
281
0
  0
CLASS
  1
DICTIONARYVAR
  2
AcDbDictionaryVar
  3
ObjectDBX Classes
 90
0
 91
0
280
0
281
0
  0
CLASS
  1
CELLSTYLEMAP
  2
AcDbCellStyleMap
  3
ObjectDBX Classes
 90
1152
 91
0
280
0
281
0
  0
CLASS
  1
MENTALRAYRENDERSETTINGS
  2
AcDbMentalRayRenderSettings
  3
SCENEOE
 90
1024
 91
0
280
0
281
0
  0
CLASS
  1
ACDBDETAILVIEWSTYLE
  2
AcDbDetailViewStyle
  3
ObjectDBX Classes
 90
1025
 91
0
280
0
281
0
  0
CLASS
  1
ACDBSECTIONVIEWSTYLE
  2
AcDbSectionViewStyle
  3
ObjectDBX Classes
 90
1025
 91
0
280
0
281
0
  0
CLASS
  1
RASTERVARIABLES
  2
AcDbRasterVariables
  3
ISM
 90
0
 91
0
280
0
281
0
  0
CLASS
  1
ACDBPLACEHOLDER
  2
AcDbPlaceHolder
  3
ObjectDBX Classes
 90
0
 91
0
280
0
281
0
  0
CLASS
  1
LAYOUT
  2
AcDbLayout
  3
ObjectDBX Classes
 90
0
 91
0
280
0
281
0
  0
ENDSEC
  0
SECTION
  2
TABLES
  0
TABLE
  2
VPORT
  5
8
330
0
100
AcDbSymbolTable
 70
1
  0
VPORT
  5
23
330
8
100
AcDbSymbolTableRecord
100
AcDbViewportTableRecord
  2
*Active
 70
0
 10
0.0
 20
0.0
 11
1.0
 21
1.0
 12
0.0
 22
0.0
 13
0.0
 23
0.0
 14
0.5
 24
0.5
 15
0.5
 25
0.5
 16
0.0
 26
0.0
 36
1.0
 17
0.0
 27
0.0
 37
0.0
 40
1000.0
 41
1.34
 42
50.0
 43
0.0
 44
0.0
 50
0.0
 51
0.0
 71
0
 72
1000
 73
1
 74
3
 75
0
 76
0
 77
0
 78
0
281
0
 65
0
146
0.0
  0
ENDTAB
  0
TABLE
  2
LTYPE
  5
2
330
0
100
AcDbSymbolTable
 70
3
  0
LTYPE
  5
24
330
2
100
AcDbSymbolTableRecord
100
AcDbLinetypeTableRecord
  2
ByBlock
 70
0
  3

 72
65
 73
0
 40
0.0
  0
LTYPE
  5
25
330
2
100
AcDbSymbolTableRecord
100
AcDbLinetypeTableRecord
  2
ByLayer
 70
0
  3

 72
65
 73
0
 40
0.0
  0
LTYPE
  5
26
330
2
100
AcDbSymbolTableRecord
100
AcDbLinetypeTableRecord
  2
Continuous
 70
0
  3

 72
65
 73
0
 40
0.0
  0
ENDTAB
  0
TABLE
  2
LAYER
  5
1
330
0
100
AcDbSymbolTable
 70
2
  0
LAYER
  5
27
330
1
100
AcDbSymbolTableRecord
100
AcDbLayerTableRecord
  2
0
 70
0
 62
7
  6
Continuous
370
-3
390
13
347
21
  0
LAYER
  5
28
330
1
100
AcDbSymbolTableRecord
100
AcDbLayerTableRecord
  2
Defpoints
 70
0
 62
7
  6
Continuous
290
0
370
-3
390
13
347
21
  0
ENDTAB
  0
TABLE
  2
STYLE
  5
5
330
0
100
AcDbSymbolTable
 70
1
  0
STYLE
  5
29
330
5
100
AcDbSymbolTableRecord
100
AcDbTextStyleTableRecord
  2
Standard
 70
0
 40
0.0
 41
1.0
 50
0.0
 71
0
 42
2.5
  3
txt
  4

  0
ENDTAB
  0
TABLE
  2
VIEW
  5
7
330
0
100
AcDbSymbolTable
 70
0
  0
ENDTAB
  0
TABLE
  2
UCS
  5
6
330
0
100
AcDbSymbolTable
 70
0
  0
ENDTAB
  0
TABLE
  2
APPID
  5
3
330
0
100
AcDbSymbolTable
 70
3
  0
APPID
  5
2A
330
3
100
AcDbSymbolTableRecord
100
AcDbRegAppTableRecord
  2
ACAD
 70
0
  0
APPID
  5
31
330
3
100
AcDbSymbolTableRecord
100
AcDbRegAppTableRecord
  2
HATCHBACKGROUNDCOLOR
 70
0
  0
APPID
  5
32
330
3
100
AcDbSymbolTableRecord
100
AcDbRegAppTableRecord
  2
EZDXF
 70
0
  0
ENDTAB
  0
TABLE
  2
DIMSTYLE
  5
4
330
0
100
AcDbSymbolTable
 70
1
100
AcDbDimStyleTable
  0
DIMSTYLE
105
2B
330
4
100
AcDbSymbolTableRecord
100
AcDbDimStyleTableRecord
  2
Standard
 70
0
 40
1.0
 41
2.5
 42
0.625
 43
3.75
 44
1.25
 45
0.0
 46
0.0
 47
0.0
 48
0.0
 49
2.5
140
2.5
141
2.5
142
0.0
143
0.03937007874
144
1.0
145
0.0
146
1.0
147
0.625
148
0.0
 69
0
 70
0
 71
0
 72
0
 73
0
 74
0
 75
0
 76
0
 77
1
 78
8
 79
3
170
0
171
3
172
1
173
0
174
0
175
0
176
0
177
0
178
0
179
2
271
2
272
2
273
2
274
3
275
0
276
0
277
2
278
44
279
0
280
0
281
0
282
0
283
0
284
8
285
0
286
0
288
0
289
3
290
0
371
-2
372
-2
  0
ENDTAB
  0
TABLE
  2
BLOCK_RECORD
  5
9
330
0
100
AcDbSymbolTable
 70
2
  0
BLOCK_RECORD
  5
17
330
9
100
AcDbSymbolTableRecord
100
AcDbBlockTableRecord
  2
*Model_Space
340
1A
 70
0
280
1
281
0
  0
BLOCK_RECORD
  5
1B
330
9
100
AcDbSymbolTableRecord
100
AcDbBlockTableRecord
  2
*Paper_Space
340
1E
 70
0
280
1
281
0
  0
ENDTAB
  0
ENDSEC
  0
SECTION
  2
BLOCKS
  0
BLOCK
  5
18
330
17
100
AcDbEntity
  8
0
100
AcDbBlockBegin
  2
*Model_Space
 70
0
 10
0.0
 20
0.0
 30
0.0
  3
*Model_Space
  1

  0
ENDBLK
  5
19
330
17
100
AcDbEntity
  8
0
100
AcDbBlockEnd
  0
BLOCK
  5
1C
330
1B
100
AcDbEntity
  8
0
100
AcDbBlockBegin
  2
*Paper_Space
 70
0
 10
0.0
 20
0.0
 30
0.0
  3
*Paper_Space
  1

  0
ENDBLK
  5
1D
330
1B
100
AcDbEntity
  8
0
100
AcDbBlockEnd
  0
ENDSEC
  0
SECTION
  2
ENTITIES
  0
LWPOLYLINE
  5
2F
330
17
100
AcDbEntity
  8
0
100
AcDbPolyline
 90
195
 70
1
 10
27.94645980815
 20
84.95049580485
 10
6.442211628770004
 20
69.89305912612099
 10
7.98032342917
 20
66.392030195052
 10
8.13715107236
 20
66.142871590477
 10
8.26880173366
 20
65.879540955575
 10
8.374007545260001
 20
65.604574308312
 10
8.451755317660004
 20
65.320619727814
 10
8.501296297330002
 20
65.030411851914
 10
8.522153377540002
 20
64.736745541103
 10
8.51412569322
 20
64.44244896248799
 10
8.47729055534
 20
64.150356352999
 10
8.412002706430004
 20
63.86328072414
 10
8.318890904150004
 20
63.583986771148
 10
8.198851866070003
 20
63.31516424746899
 10
8.053041633740003
 20
63.059402060958995
 10
7.8828644394100005
 20
62.819163341288
 10
7.6899591824800035
 20
62.59676171865299
 10
7.47618364604
 20
62.394339042258
 10
7.243596605359998
 20
62.213844753135
 10
2.567553678149999
 20
58.939644246511996
 10
2.398433413969997
 20
58.807142286701
 10
2.2445019471200003
 20
58.657263880561
 10
2.107535553810003
 20
58.491738534414
 10
1.9891147435400005
 20
58.31247631082599
 10
1.890606020950003
 20
58.12154578763499
 10
1.8131461172299983
 20
57.92115018780999
 10
1.757628872920002
 20
57.713601955593
 10
1.7246949235000035
 20
57.501296072284
 10
1.7147243068500022
 20
57.28668241960499
 10
1.7278320778699983
 20
57.072237509543996
 10
1.763866980810001
 20
56.8604359069
 10
1.8224131946300024
 20
56.653721674299995
 10
1.9027951313800036
 20
56.454480169193
 10
2.004085232030001
 20
56.265010518263
 10
2.125114669959999
 20
56.087499086897
 10
2.2645243606400034
 20
55.92402988027
 10
3.6465510561099994
 20
54.494672238035996
 10
5.054399817419999
 20
53.090741699423
 10
6.7742542384299975
 20
45.182464694037996
 10
7.62141773749
 20
41.217541546076
 10
8.46384178711
 20
37.222966997372
 10
9.612683035380003
 20
31.684588905970998
 10
10.73086804122
 20
26.185379042426995
 10
11.827723047890002
 20
20.681062160244004
 10
12.912574424430003
 20
15.127363035942997
 10
13.013253315080002
 20
14.642781306197994
 10
13.157044387860003
 20
14.087586943452001
 10
13.326111274790003
 20
13.550010445383
 10
13.5180549531
 20
13.030122116763001
 10
13.730476400040002
 20
12.52799226236599
 10
13.960976592860002
 20
12.043691186963988
 10
14.20715650878
 20
11.577289195330001
 10
14.466617125050002
 20
11.12885659223699
 10
14.736959418910002
 20
10.698463682457989
 10
15.054747314130003
 20
10.231563483896002
 10
15.383723603870001
 20
9.785377919714994
 10
15.86334449507
 20
9.191329731296
 10
16.35453264447
 20
8.636599057627995
 10
16.85166325989
 20
8.120566094692995
 10
17.34911154914
 20
7.6426110384750015
 10
17.84125272004
 20
7.2021140849559995
 10
18.32246198039
 20
6.798455430121001
 10
18.78711453801
 20
6.4310152699500005
 10
19.22958560071
 20
6.099173800428991
 10
19.67258992318
 20
5.782989614978993
 10
20.12375332771
 20
5.476452906499992
 10
20.5826191896
 20
5.179500182448001
 10
21.04873088416
 20
4.892067950281989
 10
21.5216317867
 20
4.6140927174559945
 10
22.00086527252
 20
4.345510991429
 10
22.48597471693
 20
4.086259279658
 10
22.97650349523
 20
3.836274089597998
 10
23.62320280658
 20
3.5237464811709938
 10
24.27723596858
 20
3.2265410071239895
 10
24.937557900130003
 20
2.944450342993994
 10
25.603123520140002
 20
2.677267164313994
 10
26.272887747520002
 20
2.424784146618995
 10
26.945805501160002
 20
2.1867939654449966
 10
27.620831699980002
 20
1.963089296325995
 10
28.29692126287
 20
1.7534628147960003
 10
29.06043483525
 20
1.5334047568779905
 10
29.82706938149
 20
1.3295462124830006
 10
30.596132698583
 20
1.1415720467709942
 10
31.366932583575
 20
0.969167124898993
 10
32.138776833478
 20
0.8120163120279997
 10
32.910973245309
 20
0.6698044733169937
 10
33.682829616088
 20
0.5422164739239932
 10
34.453653742835
 20
0.42893717900999917
 10
35.222753422569
 20
0.3296514537319908
 10
35.989436452309
 20
0.24404416325099731
 10
36.753010629075
 20
0.1718001727249927
 10
37.512783749886
 20
0.11260434731399727
 10
38.268063611761
 20
0.06614155217699391
 10
39.01815801172
 20
0.03209665247299398
 10
39.762374746781
 20
0.0101545133609946
 10
40.5000216139649
 20
-7.105427357601002e-15
 10
41.38485900975
 20
0.013566858636998802
 10
42.281737452291
 20
0.04427934399699751
 10
43.189315429722
 20
0.09282583739599914
 10
44.106251430174
 20
0.15989472014899064
 10
45.03120394178
 20
0.2461743735729911
 10
45.962831452672
 20
0.35235317898399643
 10
46.899792450982
 20
0.47911951769800254
 10
47.840745424843
 20
0.6271617710309911
 10
48.784348862386
 20
0.7971683202990008
 10
49.729261251744
 20
0.9898275468179971
 10
50.674141081049
 20
1.205827831903994
 10
51.617646838434
 20
1.4458575568739942
 10
52.558437012031
 20
1.710605103043994
 10
53.495170089972
 20
2.0007588517289943
 10
54.426504560388
 20
2.317007184246
 10
55.351098911414
 20
2.6600384819099983
 10
56.056646251551
 20
2.9424918717709883
 10
56.736990670683
 20
3.233053206759001
 10
57.392499415502996
 20
3.5311660812449954
 10
58.023539732708
 20
3.836274089597998
 10
58.905131476624
 20
4.294209632018001
 10
59.73631213262
 20
4.763847052633997
 10
60.51831200001
 20
5.243285591718992
 10
61.252361378107
 20
5.730624489545994
 10
61.939690566223
 20
6.223962986387994
 10
62.581529863672
 20
6.72140032251699
 10
63.179109569765004
 20
7.221035738206998
 10
63.733659983817
 20
7.720968473730002
 10
64.176253328017
 20
8.149238156323994
 10
64.644695498046
 20
8.636110077060996
 10
65.128284821022
 20
9.181513557628
 10
65.616319624061
 20
9.785377919714994
 10
65.922660172374
 20
10.199690313398
 10
66.223351766387
 20
10.637813421965992
 10
66.515621220165
 20
11.099756657041999
 10
66.796695347774
 20
11.58552943024599
 10
67.031386076232
 20
12.030394155049995
 10
67.237367125292
 20
12.459011057922998
 10
67.416717776393
 20
12.870545729786988
 10
67.571517310972
 20
13.264163761561994
 10
67.703845010469
 20
13.639030744168997
 10
67.81578015632199
 20
13.994312268530996
 10
67.90940202997
 20
14.329173925566996
 10
67.986789912852
 20
14.642781306194001
 10
68.087468929246
 20
15.127363012929996
 10
69.172320180047
 20
20.681062160245993
 10
70.269175186722
 20
26.185379042427996
 10
71.387360192555
 20
31.684588905972
 10
72.536201440827
 20
37.222966997372
 10
73.37862549045299
 20
41.217541546076
 10
74.225788989514
 20
45.182464694037996
 10
75.945681450668
 20
53.090702854551
 10
77.353492171824
 20
54.494672238042
 10
78.735556392256
 20
55.923994252856
 10
78.8749285629
 20
56.087499088918
 10
78.995958002728
 20
56.265010519707
 10
79.097248105032
 20
56.454480170419
 10
79.177630043147
 20
56.653721675609
 10
79.236176258011
 20
56.860435908528
 10
79.272211161628
 20
57.072237511655
 10
79.285318932954
 20
57.286682422287996
 10
79.275348316218
 20
57.50129607555299
 10
79.24241436632
 20
57.713601959384995
 10
79.186897121171
 20
57.92115019198899
 10
79.10943721628
 20
58.121545791989995
 10
79.010928492212
 20
58.312476315082996
 10
78.892507680203
 20
58.491738538233996
 10
78.755541284972
 20
58.65726388355299
 10
78.601609816075
 20
58.807142288432
 10
78.432489549783
 20
58.939644246511996
 10
73.756446622577
 20
62.213844753134
 10
73.523859581894
 20
62.394339042259
 10
73.310084045451
 20
62.596761718654
 10
73.117178788524
 20
62.819163341289
 10
72.94700159419101
 20
63.05940206096
 10
72.801191361862
 20
63.315164247470996
 10
72.681152323782
 20
63.58398677115
 10
72.588040521507
 20
63.863280724141
 10
72.522752672593
 20
64.150356353
 10
72.485917534716
 20
64.442448962489
 10
72.47788985039
 20
64.736745541105
 10
72.498746930603
 20
65.030411851916
 10
72.54828791026999
 20
65.320619727815
 10
72.626035682676
 20
65.604574308314
 10
72.731241494271
 20
65.879540955577
 10
72.86289215557899
 20
66.14287159047899
 10
73.019719798763
 20
66.39203019505399
 10
74.557825227545
 20
69.893063587578
 10
53.05358341979
 20
84.95049580485099
 10
54.487524510668
 20
86.998375915573
 10
75.583201587807
 20
72.227023802524
 10
81.0
 20
84.556732655241
 10
81.0
 20
91.590341475798
 10
43.000015615548
 20
117.590341475787
 10
38.000015615547
 20
117.590341475787
 10
5.273559366969494e-16
 20
91.590341475797
 10
9.997863648081307e-12
 20
84.55673265524399
 10
5.4168310208799975
 20
72.227016366847
 10
26.512518717269998
 20
86.998375915573
  0
LWPOLYLINE
  5
30
330
17
100
AcDbEntity
  8
0
100
AcDbPolyline
 90
145
 70
1
 10
20.80747968149
 20
16.445569747398004
 10
20.77581115286
 20
16.601023345392996
 10
19.67644232814
 20
22.229461108242
 10
18.5735505212
 20
27.764053231401995
 10
17.44910380489
 20
33.294073889591
 10
16.29391461272
 20
38.863076611279
 10
15.447001122250002
 20
42.878936503256995
 10
14.59553164018
 20
46.864011699270996
 10
12.867874450230003
 20
54.808185777808994
 10
12.558525452350002
 20
56.215562342785
 10
13.011486390620002
 20
56.613969810495
 10
13.441925639800003
 20
57.036609343291
 10
13.84854867299
 20
57.48220987156299
 10
14.2301325895
 20
57.949431271527
 10
14.585529792640001
 20
58.43686839559
 10
14.913671441140002
 20
58.943055298267
 10
15.21357066356
 20
59.466469644945995
 10
15.484325526340003
 20
60.005537290239
 10
33.592890548894
 20
72.011090260493
 10
33.978637864744
 20
72.256793073803
 10
34.373115291533
 20
72.488220003757
 10
34.775794744882
 20
72.70506124062
 10
35.186137160413
 20
72.90702650043099
 10
35.603593215387
 20
73.09384541360299
 10
36.027604064086
 20
73.26526788686701
 10
36.457602085928
 20
73.42106443806699
 10
36.893011645345
 20
73.56102650336601
 10
37.333249862375
 20
73.684966716454
 10
37.777727392965
 20
73.792719159369
 10
38.225849217921
 20
73.884139584613
 10
38.677015439456
 20
73.95910560825399
 10
39.130622084266
 20
74.01751687376199
 10
39.58606191207
 20
74.059295186353
 10
40.042725228519
 20
74.08438461767
 10
40.50000070138497
 20
74.092751580654
 10
40.95727617895
 20
74.08438487450499
 10
41.413939509491
 20
74.05929569968
 10
41.869379360761
 20
74.017517642894
 10
42.322986038378
 20
73.959106632161
 10
42.774152302018
 20
73.884140861924
 10
43.222274178322
 20
73.792720688374
 10
43.666751769433
 20
73.684968495106
 10
44.106990056076
 20
73.561028529285
 10
44.542399694104
 20
73.42106670854
 10
44.972397803452
 20
73.265270398855
 10
45.396408748432
 20
73.09384816374299
 10
45.813864908336
 20
72.907029485041
 10
46.224207437303
 20
72.705064455705
 10
46.626887012444996
 20
72.488223445013
 10
47.021364569218
 20
72.256796736624
 10
47.407112023072
 20
72.011094139975
 10
65.515723430412
 20
60.005525059198995
 10
65.786478156229
 20
59.46645923367
 10
66.086377061815
 20
58.943046650487
 10
66.414518219587
 20
58.436861440921994
 10
66.76991476511999
 20
57.949425925978
 10
67.15149786507901
 20
57.482206038097
 10
67.558119931674
 20
57.036606912464
 10
67.988558073953
 20
56.613968661146
 10
68.441517775579
 20
56.215562342786995
 10
68.132168777704
 20
54.808185777809996
 10
66.404511587762
 20
46.864011699270996
 10
65.553042105694
 20
42.878936503256995
 10
64.706128615216
 20
38.863076611279
 10
63.550939423052995
 20
33.294073889591
 10
62.426492706736
 20
27.764053231402997
 10
61.323600899799004
 20
22.229461108242994
 10
60.224229140177
 20
16.601006716069996
 10
60.192279427214004
 20
16.444337935692992
 10
60.147481715499
 20
16.267870636481
 10
60.077125550079
 20
16.05387932751099
 10
59.964241520196
 20
15.786473060863988
 10
59.791860215091
 20
15.449760888624999
 10
59.547681870346
 20
15.046527400077002
 10
59.269622318766
 20
14.65564845754499
 10
59.024966996052996
 20
14.353825314616989
 10
58.771854146845
 20
14.068920609650993
 10
58.516710850874
 20
13.803682064498991
 10
58.265964187872996
 20
13.560857401013996
 10
57.933640194825
 20
13.261155389789002
 10
57.564328079917004
 20
12.952110739970001
 10
57.156022995377995
 20
12.635452545036989
 10
56.706720093439
 20
12.312909898470002
 10
56.214414526331
 20
11.986211893750001
 10
55.677101446286
 20
11.657087624354991
 10
55.092776005534
 20
11.327266183764996
 10
54.459433356306
 20
10.99847666546099
 10
53.995206340973
 20
10.773981269709997
 10
53.50984937641
 20
10.553265523550996
 10
52.998836998301
 20
10.335040381701992
 10
52.461579215307
 20
10.11997654638599
 10
51.752567302481
 20
9.857381789495
 10
51.031200462122996
 20
9.613476279315995
 10
50.299023733495
 20
9.387972516442991
 10
49.557582155863
 20
9.18058300146699
 10
48.808420768489
 20
8.991020234981994
 10
48.053084610639
 20
8.818996717578989
 10
47.293118721576
 20
8.66422494985
 10
46.530068140564
 20
8.526417432389001
 10
45.765477906865996
 20
8.405286665786994
 10
45.000893059747
 20
8.300545150636998
 10
44.237858638472
 20
8.211905387530996
 10
43.477919682302996
 20
8.139079877061993
 10
42.722621230505
 20
8.081781119821988
 10
41.973508322341
 20
8.039721616404
 10
41.232125997076
 20
8.012613867398988
 10
40.5000192939739
 20
8.000170373400996
 10
39.275072939969
 20
8.028641839717002
 10
38.655765439297
 20
8.057913823008994
 10
38.033009439864
 20
8.097391640206999
 10
37.407635729431
 20
8.147211541674997
 10
36.780475095764
 20
8.207509777777991
 10
36.152358326624
 20
8.278422598876992
 10
35.524116209775
 20
8.360086255337995
 10
34.896579532979
 20
8.452636997522992
 10
34.270579084002
 20
8.556211075797
 10
33.646945650603996
 20
8.670944740521
 10
33.026510020551
 20
8.796974242060989
 10
32.410102981604
 20
8.934435830779995
 10
31.798555321526997
 20
9.083465757039994
 10
31.192697828083
 20
9.244200271205989
 10
30.593361289036
 20
9.416775623640993
 10
30.06314430445
 20
9.58126717977
 10
29.53730541146
 20
9.755723114498002
 10
29.017100563059998
 20
9.939872110762002
 10
28.50378571223
 20
10.133442851500993
 10
27.99861681198
 20
10.336164019652989
 10
27.5028498153
 20
10.547764298153998
 10
27.01774067518
 20
10.767972369943001
 10
26.54454534461
 20
10.996516917957
 10
25.841506218070002
 20
11.363467462796
 10
25.1751172083
 20
11.746048788815989
 10
24.54468091443
 20
12.144121086746997
 10
23.95343540855
 20
12.555584799812996
 10
23.37209848445
 20
13.005471175163995
 10
23.07903729472
 20
13.25247078071799
 10
22.78906847865
 20
13.512428126175001
 10
22.50570768034
 20
13.78403330752399
 10
22.23247054387
 20
14.06597642075099
 10
21.97287271334
 20
14.35694756184599
 10
21.73042983286
 20
14.655636826818997
 10
21.43645994162
 20
15.070727712241995
 10
21.20787884437
 20
15.449314063466991
 10
21.02900392481
 20
15.80481855392299
 10
20.89668297844
 20
16.136680179399995
  0
ENDSEC
  0
SECTION
  2
OBJECTS
  0
DICTIONARY
  5
A
330
0
100
AcDbDictionary
281
1
  3
ACAD_COLOR
350
B
  3
ACAD_GROUP
350
C
  3
ACAD_LAYOUT
350
D
  3
ACAD_MATERIAL
350
E
  3
ACAD_MLEADERSTYLE
350
F
  3
ACAD_MLINESTYLE
350
10
  3
ACAD_PLOTSETTINGS
350
11
  3
ACAD_PLOTSTYLENAME
350
12
  3
ACAD_SCALELIST
350
14
  3
ACAD_TABLESTYLE
350
15
  3
ACAD_VISUALSTYLE
350
16
  3
EZDXF_META
350
2D
  0
DICTIONARY
  5
B
330
A
100
AcDbDictionary
281
1
  0
DICTIONARY
  5
C
330
A
100
AcDbDictionary
281
1
  0
DICTIONARY
  5
D
330
A
100
AcDbDictionary
281
1
  3
Model
350
1A
  3
Layout1
350
1E
  0
DICTIONARY
  5
E
330
A
100
AcDbDictionary
281
1
  3
ByBlock
350
1F
  3
ByLayer
350
20
  3
Global
350
21
  0
DICTIONARY
  5
F
330
A
100
AcDbDictionary
281
1
  3
Standard
350
2C
  0
DICTIONARY
  5
10
330
A
100
AcDbDictionary
281
1
  3
Standard
350
22
  0
DICTIONARY
  5
11
330
A
100
AcDbDictionary
281
1
  0
ACDBDICTIONARYWDFLT
  5
12
330
A
100
AcDbDictionary
281
1
  3
Normal
350
13
100
AcDbDictionaryWithDefault
340
13
  0
ACDBPLACEHOLDER
  5
13
330
12
  0
DICTIONARY
  5
14
330
A
100
AcDbDictionary
281
1
  0
DICTIONARY
  5
15
330
A
100
AcDbDictionary
281
1
  0
DICTIONARY
  5
16
330
A
100
AcDbDictionary
281
1
  0
LAYOUT
  5
1A
330
D
100
AcDbPlotSettings
  1

  4
A3
  6

 40
7.5
 41
20.0
 42
7.5
 43
20.0
 44
420.0
 45
297.0
 46
0.0
 47
0.0
 48
0.0
 49
0.0
140
0.0
141
0.0
142
1.0
143
1.0
 70
1024
 72
1
 73
0
 74
5
  7

 75
16
 76
0
 77
2
 78
300
147
1.0
148
0.0
149
0.0
100
AcDbLayout
  1
Model
 70
1
 71
0
 10
0.0
 20
0.0
 11
420.0
 21
297.0
 12
0.0
 22
0.0
 32
0.0
 14
1e+20
 24
1e+20
 34
1e+20
 15
-1e+20
 25
-1e+20
 35
-1e+20
146
0.0
 13
0.0
 23
0.0
 33
0.0
 16
1.0
 26
0.0
 36
0.0
 17
0.0
 27
1.0
 37
0.0
 76
1
330
17
  0
LAYOUT
  5
1E
330
D
100
AcDbPlotSettings
  1

  4
A3
  6

 40
7.5
 41
20.0
 42
7.5
 43
20.0
 44
420.0
 45
297.0
 46
0.0
 47
0.0
 48
0.0
 49
0.0
140
0.0
141
0.0
142
1.0
143
1.0
 70
0
 72
1
 73
0
 74
5
  7

 75
16
 76
0
 77
2
 78
300
147
1.0
148
0.0
149
0.0
100
AcDbLayout
  1
Layout1
 70
1
 71
1
 10
0.0
 20
0.0
 11
420.0
 21
297.0
 12
0.0
 22
0.0
 32
0.0
 14
1e+20
 24
1e+20
 34
1e+20
 15
-1e+20
 25
-1e+20
 35
-1e+20
146
0.0
 13
0.0
 23
0.0
 33
0.0
 16
1.0
 26
0.0
 36
0.0
 17
0.0
 27
1.0
 37
0.0
 76
1
330
1B
  0
MATERIAL
  5
1F
102
{ACAD_REACTORS
330
E
102
}
330
E
100
AcDbMaterial
  1
ByBlock
  2

 70
0
 40
1.0
 71
1
 41
1.0
 91
-1023410177
 42
1.0
 72
1
  3

 73
1
 74
1
 75
1
 44
0.5
 73
0
 45
1.0
 46
1.0
 77
1
  4

 78
1
 79
1
170
1
 48
1.0
171
1
  6

172
1
173
1
174
1
140
1.0
141
1.0
175
1
  7

176
1
177
1
178
1
143
1.0
179
1
  8

270
1
271
1
272
1
145
1.0
146
1.0
273
1
  9

274
1
275
1
276
1
 42
1.0
 72
1
  3

 73
1
 74
1
 75
1
 94
63
  0
MATERIAL
  5
20
102
{ACAD_REACTORS
330
E
102
}
330
E
100
AcDbMaterial
  1
ByLayer
  2

 70
0
 40
1.0
 71
1
 41
1.0
 91
-1023410177
 42
1.0
 72
1
  3

 73
1
 74
1
 75
1
 44
0.5
 73
0
 45
1.0
 46
1.0
 77
1
  4

 78
1
 79
1
170
1
 48
1.0
171
1
  6

172
1
173
1
174
1
140
1.0
141
1.0
175
1
  7

176
1
177
1
178
1
143
1.0
179
1
  8

270
1
271
1
272
1
145
1.0
146
1.0
273
1
  9

274
1
275
1
276
1
 42
1.0
 72
1
  3

 73
1
 74
1
 75
1
 94
63
  0
MATERIAL
  5
21
102
{ACAD_REACTORS
330
E
102
}
330
E
100
AcDbMaterial
  1
Global
  2

 70
0
 40
1.0
 71
1
 41
1.0
 91
-1023410177
 42
1.0
 72
1
  3

 73
1
 74
1
 75
1
 44
0.5
 73
0
 45
1.0
 46
1.0
 77
1
  4

 78
1
 79
1
170
1
 48
1.0
171
1
  6

172
1
173
1
174
1
140
1.0
141
1.0
175
1
  7

176
1
177
1
178
1
143
1.0
179
1
  8

270
1
271
1
272
1
145
1.0
146
1.0
273
1
  9

274
1
275
1
276
1
 42
1.0
 72
1
  3

 73
1
 74
1
 75
1
 94
63
  0
MLINESTYLE
  5
22
102
{ACAD_REACTORS
330
10
102
}
330
10
100
AcDbMlineStyle
  2
Standard
 70
0
  3

 62
256
 51
90.0
 52
90.0
 71
2
 49
0.5
 62
256
  6
BYLAYER
 49
-0.5
 62
256
  6
BYLAYER
  0
MLEADERSTYLE
  5
2C
102
{ACAD_REACTORS
330
F
102
}
330
F
100
AcDbMLeaderStyle
179
2
170
2
171
1
172
0
 90
2
 40
0.0
 41
0.0
173
1
 91
-1056964608
 92
-2
290
1
 42
2.0
291
1
 43
8.0
  3
Standard
 44
4.0
300

342
29
174
1
175
1
176
0
178
1
 93
-1056964608
 45
4.0
292
0
297
0
 46
4.0
 94
-1056964608
 47
1.0
 49
1.0
140
1.0
294
1
141
0.0
177
0
142
1.0
295
0
296
0
143
3.75
271
0
272
9
273
9
  0
DICTIONARY
  5
2D
330
A
100
AcDbDictionary
280
1
281
1
  3
CREATED_BY_EZDXF
350
2E
  3
WRITTEN_BY_EZDXF
350
33
  0
DICTIONARYVAR
  5
2E
330
2D
100
DictionaryVariables
280
0
  1
1.4.4 @ 2026-09-23T20:01:26.903765+00:00
  0
DICTIONARYVAR
  5
33
330
2D
100
DictionaryVariables
280
0
  1
1.4.4 @ 2026-09-23T20:01:26.909196+00:00
  0
ENDSEC
  0
EOF
