  0
SECTION
  2
HEADER
  9
$ACADVER
  1
AC1027
  9
$ACADMAINTVER
 70
105
  9
$DWGCODEPAGE
  3
ANSI_1252
  9
$LASTSAVEDBY
  1
ezdxf
  9
$REQUIREDVERSIONS
160
0
  9
$INSBASE
 10
0.0
 20
0.0
 30
0.0
  9
$EXTMIN
 10
1e+20
 20
1e+20
 30
1e+20
  9
$EXTMAX
 10
-1e+20
 20
-1e+20
 30
-1e+20
  9
$LIMMIN
 10
0.0
 20
0.0
  9
$LIMMAX
 10
420.0
 20
297.0
  9
$ORTHOMODE
 70
0
  9
$REGENMODE
 70
1
  9
$FILLMODE
 70
1
  9
$QTEXTMODE
 70
0
  9
$MIRRTEXT
 70
1
  9
$LTSCALE
 40
1.0
  9
$ATTMODE
 70
1
  9
$TEXTSIZE
 40
2.5
  9
$TRACEWID
 40
1.0
  9
$TEXTSTYLE
  7
Standard
  9
$CLAYER
  8
0
  9
$CELTYPE
  6
ByLayer
  9
$CECOLOR
 62
256
  9
$CELTSCALE
 40
1.0
  9
$DISPSILH
 70
0
  9
$DIMSCALE
 40
1.0
  9
$DIMASZ
 40
2.5
  9
$DIMEXO
 40
0.625
  9
$DIMDLI
 40
3.75
  9
$DIMRND
 40
0.0
  9
$DIMDLE
 40
0.0
  9
$DIMEXE
 40
1.25
  9
$DIMTP
 40
0.0
  9
$DIMTM
 40
0.0
  9
$DIMTXT
 40
2.5
  9
$DIMCEN
 40
2.5
  9
$DIMTSZ
 40
0.0
  9
$DIMTOL
 70
0
  9
$DIMLIM
 70
0
  9
$DIMTIH
 70
0
  9
$DIMTOH
 70
0
  9
$DIMSE1
 70
0
  9
$DIMSE2
 70
0
  9
$DIMTAD
 70
1
  9
$DIMZIN
 70
8
  9
$DIMBLK
  1

  9
$DIMASO
 70
1
  9
$DIMSHO
 70
1
  9
$DIMPOST
  1

  9
$DIMAPOST
  1

  9
$DIMALT
 70
0
  9
$DIMALTD
 70
3
  9
$DIMALTF
 40
0.03937007874
  9
$DIMLFAC
 40
1.0
  9
$DIMTOFL
 70
1
  9
$DIMTVP
 40
0.0
  9
$DIMTIX
 70
0
  9
$DIMSOXD
 70
0
  9
$DIMSAH
 70
0
  9
$DIMBLK1
  1

  9
$DIMBLK2
  1

  9
$DIMSTYLE
  2
ISO-25
  9
$DIMCLRD
 70
0
  9
$DIMCLRE
 70
0
  9
$DIMCLRT
 70
0
  9
$DIMTFAC
 40
1.0
  9
$DIMGAP
 40
0.625
  9
$DIMJUST
 70
0
  9
$DIMSD1
 70
0
  9
$DIMSD2
 70
0
  9
$DIMTOLJ
 70
0
  9
$DIMTZIN
 70
8
  9
$DIMALTZ
 70
0
  9
$DIMALTTZ
 70
0
  9
$DIMUPT
 70
0
  9
$DIMDEC
 70
2
  9
$DIMTDEC
 70
2
  9
$DIMALTU
 70
2
  9
$DIMALTTD
 70
3
  9
$DIMTXSTY
  7
Standard
  9
$DIMAUNIT
 70
0
  9
$DIMADEC
 70
0
  9
$DIMALTRND
 40
0.0
  9
$DIMAZIN
 70
0
  9
$DIMDSEP
 70
44
  9
$DIMATFIT
 70
3
  9
$DIMFRAC
 70
0
  9
$DIMLDRBLK
  1

  9
$DIMLUNIT
 70
2
  9
$DIMLWD
 70
-2
  9
$DIMLWE
 70
-2
  9
$DIMTMOVE
 70
0
  9
$DIMFXL
 40
1.0
  9
$DIMFXLON
 70
0
  9
$DIMJOGANG
 40
0.785398163397
  9
$DIMTFILL
 70
0
  9
$DIMTFILLCLR
 70
0
  9
$DIMARCSYM
 70
0
  9
$DIMLTYPE
  6

  9
$DIMLTEX1
  6

  9
$DIMLTEX2
  6

  9
$DIMTXTDIRECTION
 70
0
  9
$LUNITS
 70
2
  9
$LUPREC
 70
4
  9
$SKETCHINC
 40
1.0
  9
$FILLETRAD
 40
10.0
  9
$AUNITS
 70
0
  9
$AUPREC
 70
2
  9
$MENU
  1
.
  9
$ELEVATION
 40
0.0
  9
$PELEVATION
 40
0.0
  9
$THICKNESS
 40
0.0
  9
$LIMCHECK
 70
0
  9
$CHAMFERA
 40
0.0
  9
$CHAMFERB
 40
0.0
  9
$CHAMFERC
 40
0.0
  9
$CHAMFERD
 40
0.0
  9
$SKPOLY
 70
0
  9
$TDCREATE
 40
2461308.063587963
  9
$TDUCREATE
 40
2458532.153996898
  9
$TDUPDATE
 40
2461308.063587963
  9
$TDUUPDATE
 40
2458532.1544311
  9
$TDINDWG
 40
0.0
  9
$TDUSRTIMER
 40
0.0
  9
$USRTIMER
 70
1
  9
$ANGBASE
 50
0.0
  9
$ANGDIR
 70
0
  9
$PDMODE
 70
0
  9
$PDSIZE
 40
0.0
  9
$PLINEWID
 40
0.0
  9
$SPLFRAME
 70
0
  9
$SPLINETYPE
 70
6
  9
$SPLINESEGS
 70
8
  9
$HANDSEED
  5
35
  9
$SURFTAB1
 70
6
  9
$SURFTAB2
 70
6
  9
$SURFTYPE
 70
6
  9
$SURFU
 70
6
  9
$SURFV
 70
6
  9
$UCSBASE
  2

  9
$UCSNAME
  2

  9
$UCSORG
 10
0.0
 20
0.0
 30
0.0
  9
$UCSXDIR
 10
1.0
 20
0.0
 30
0.0
  9
$UCSYDIR
 10
0.0
 20
1.0
 30
0.0
  9
$UCSORTHOREF
  2

  9
$UCSORTHOVIEW
 70
0
  9
$UCSORGTOP
 10
0.0
 20
0.0
 30
0.0
  9
$UCSORGBOTTOM
 10
0.0
 20
0.0
 30
0.0
  9
$UCSORGLEFT
 10
0.0
 20
0.0
 30
0.0
  9
$UCSORGRIGHT
 10
0.0
 20
0.0
 30
0.0
  9
$UCSORGFRONT
 10
0.0
 20
0.0
 30
0.0
  9
$UCSORGBACK
 10
0.0
 20
0.0
 30
0.0
  9
$PUCSBASE
  2

  9
$PUCSNAME
  2

  9
$PUCSORG
 10
0.0
 20
0.0
 30
0.0
  9
$PUCSXDIR
 10
1.0
 20
0.0
 30
0.0
  9
$PUCSYDIR
 10
0.0
 20
1.0
 30
0.0
  9
$PUCSORTHOREF
  2

  9
$PUCSORTHOVIEW
 70
0
  9
$PUCSORGTOP
 10
0.0
 20
0.0
 30
0.0
  9
$PUCSORGBOTTOM
 10
0.0
 20
0.0
 30
0.0
  9
$PUCSORGLEFT
 10
0.0
 20
0.0
 30
0.0
  9
$PUCSORGRIGHT
 10
0.0
 20
0.0
 30
0.0
  9
$PUCSORGFRONT
 10
0.0
 20
0.0
 30
0.0
  9
$PUCSORGBACK
 10
0.0
 20
0.0
 30
0.0
  9
$USERI1
 70
0
  9
$USERI2
 70
0
  9
$USERI3
 70
0
  9
$USERI4
 70
0
  9
$USERI5
 70
0
  9
$USERR1
 40
0.0
  9
$USERR2
 40
0.0
  9
$USERR3
 40
0.0
  9
$USERR4
 40
0.0
  9
$USERR5
 40
0.0
  9
$WORLDVIEW
 70
1
  9
$SHADEDGE
 70
3
  9
$SHADEDIF
 70
70
  9
$TILEMODE
 70
1
  9
$MAXACTVP
 70
64
  9
$PINSBASE
 10
0.0
 20
0.0
 30
0.0
  9
$PLIMCHECK
 70
0
  9
$PEXTMIN
 10
1e+20
 20
1e+20
 30
1e+20
  9
$PEXTMAX
 10
-1e+20
 20
-1e+20
 30
-1e+20
  9
$PLIMMIN
 10
0.0
 20
0.0
  9
$PLIMMAX
 10
420.0
 20
297.0
  9
$UNITMODE
 70
0
  9
$VISRETAIN
 70
1
  9
$PLINEGEN
 70
0
  9
$PSLTSCALE
 70
1
  9
$TREEDEPTH
 70
3020
  9
$CMLSTYLE
  2
Standard
  9
$CMLJUST
 70
0
  9
$CMLSCALE
 40
20.0
  9
$PROXYGRAPHICS
 70
1
  9
$MEASUREMENT
 70
1
  9
$CELWEIGHT
370
-1
  9
$ENDCAPS
280
0
  9
$JOINSTYLE
280
0
  9
$LWDISPLAY
290
0
  9
$INSUNITS
 70
4
  9
$HYPERLINKBASE
  1

  9
$STYLESHEET
  1

  9
$XEDIT
290
1
  9
$CEPSNTYPE
380
0
  9
$PSTYLEMODE
290
1
  9
$FINGERPRINTGUID
  2
{91C9446A-70E1-47F3-AC9F-84F598DF89E4}
  9
$VERSIONGUID
  2
{37AF200A-C085-4982-AF72-4E614639F1C9}
  9
$EXTNAMES
290
1
  9
$PSVPSCALE
 40
0.0
  9
$OLESTARTUP
290
0
  9
$SORTENTS
280
127
  9
$INDEXCTL
280
0
  9
$HIDETEXT
280
1
  9
$XCLIPFRAME
280
1
  9
$HALOGAP
280
0
  9
$OBSCOLOR
 70
257
  9
$OBSLTYPE
280
0
  9
$INTERSECTIONDISPLAY
280
0
  9
$INTERSECTIONCOLOR
 70
257
  9
$DIMASSOC
280
2
  9
$PROJECTNAME
  1

  9
$CAMERADISPLAY
290
0
  9
$LENSLENGTH
 40
50.0
  9
$CAMERAHEIGHT
 40
0.0
  9
$STEPSPERSEC
 40
24.0
  9
$STEPSIZE
 40
100.0
  9
$3DDWFPREC
 40
2.0
  9
$PSOLWIDTH
 40
0.005
  9
$PSOLHEIGHT
 40
0.08
  9
$LOFTANG1
 40
1.570796326795
  9
$LOFTANG2
 40
1.570796326795
  9
$LOFTMAG1
 40
0.0
  9
$LOFTMAG2
 40
0.0
  9
$LOFTPARAM
 70
7
  9
$LOFTNORMALS
280
1
  9
$LATITUDE
 40
37.795
  9
$LONGITUDE
 40
-122.394
  9
$NORTHDIRECTION
 40
0.0
  9
$TIMEZONE
 70
-8000
  9
$LIGHTGLYPHDISPLAY
280
1
  9
$TILEMODELIGHTSYNCH
280
1
  9
$CMATERIAL
347
20
  9
$SOLIDHIST
280
0
  9
$SHOWHIST
280
1
  9
$DWFFRAME
280
2
  9
$DGNFRAME
280
2
  9
$REALWORLDSCALE
290
1
  9
$INTERFERECOLOR
 62
256
  9
$CSHADOW
280
0
  9
$SHADOWPLANELOCATION
 40
0.0
  0
ENDSEC
  0
SECTION
  2
CLASSES
  0
CLASS
  1
ACDBDICTIONARYWDFLT
  2
AcDbDictionaryWithDefault
  3
ObjectDBX Classes
 90
0
 91
0
280
0
281
0
  0
CLASS
  1
SUN
  2
AcDbSun
  3
SCENEOE
 90
1153
 91
0
280
0
281
0
  0
CLASS
  1
VISUALSTYLE
  2
AcDbVisualStyle
  3
ObjectDBX Classes
 90
4095
 91
0
280
0
281
0
  0
CLASS
  1
MATERIAL
  2
AcDbMaterial
  3
ObjectDBX Classes
 90
1153
 91
0
280
0
281
0
  0
CLASS
  1
SCALE
  2
AcDbScale
  3
ObjectDBX Classes
 90
1153
 91
0
280
0
281
0
  0
CLASS
  1
TABLESTYLE
  2
AcDbTableStyle
  3
ObjectDBX Classes
 90
4095
 91
0
280
0
281
0
  0
CLASS
  1
MLEADERSTYLE
  2
AcDbMLeaderStyle
  3
ACDB_MLEADERSTYLE_CLASS
 90
4095
 91
0
280
0
281
0
  0
CLASS
  1
DICTIONARYVAR
  2
AcDbDictionaryVar
  3
ObjectDBX Classes
 90
0
 91
0
280
0
281
0
  0
CLASS
  1
CELLSTYLEMAP
  2
AcDbCellStyleMap
  3
ObjectDBX Classes
 90
1152
 91
0
280
0
281
0
  0
CLASS
  1
MENTALRAYRENDERSETTINGS
  2
AcDbMentalRayRenderSettings
  3
SCENEOE
 90
1024
 91
0
280
0
281
0
  0
CLASS
  1
ACDBDETAILVIEWSTYLE
  2
AcDbDetailViewStyle
  3
ObjectDBX Classes
 90
1025
 91
0
280
0
281
0
  0
CLASS
  1
ACDBSECTIONVIEWSTYLE
  2
AcDbSectionViewStyle
  3
ObjectDBX Classes
 90
1025
 91
0
280
0
281
0
  0
CLASS
  1
RASTERVARIABLES
  2
AcDbRasterVariables
  3
ISM
 90
0
 91
0
280
0
281
0
  0
CLASS
  1
ACDBPLACEHOLDER
  2
AcDbPlaceHolder
  3
ObjectDBX Classes
 90
0
 91
0
280
0
281
0
  0
CLASS
  1
LAYOUT
  2
AcDbLayout
  3
ObjectDBX Classes
 90
0
 91
0
280
0
281
0
  0
ENDSEC
  0
SECTION
  2
TABLES
  0
TABLE
  2
VPORT
  5
8
330
0
100
AcDbSymbolTable
 70
1
  0
VPORT
  5
23
330
8
100
AcDbSymbolTableRecord
100
AcDbViewportTableRecord
  2
*Active
 70
0
 10
0.0
 20
0.0
 11
1.0
 21
1.0
 12
0.0
 22
0.0
 13
0.0
 23
0.0
 14
0.5
 24
0.5
 15
0.5
 25
0.5
 16
0.0
 26
0.0
 36
1.0
 17
0.0
 27
0.0
 37
0.0
 40
1000.0
 41
1.34
 42
50.0
 43
0.0
 44
0.0
 50
0.0
 51
0.0
 71
0
 72
1000
 73
1
 74
3
 75
0
 76
0
 77
0
 78
0
281
0
 65
0
146
0.0
  0
ENDTAB
  0
TABLE
  2
LTYPE
  5
2
330
0
100
AcDbSymbolTable
 70
3
  0
LTYPE
  5
24
330
2
100
AcDbSymbolTableRecord
100
AcDbLinetypeTableRecord
  2
ByBlock
 70
0
  3

 72
65
 73
0
 40
0.0
  0
LTYPE
  5
25
330
2
100
AcDbSymbolTableRecord
100
AcDbLinetypeTableRecord
  2
ByLayer
 70
0
  3

 72
65
 73
0
 40
0.0
  0
LTYPE
  5
26
330
2
100
AcDbSymbolTableRecord
100
AcDbLinetypeTableRecord
  2
Continuous
 70
0
  3

 72
65
 73
0
 40
0.0
  0
ENDTAB
  0
TABLE
  2
LAYER
  5
1
330
0
100
AcDbSymbolTable
 70
2
  0
LAYER
  5
27
330
1
100
AcDbSymbolTableRecord
100
AcDbLayerTableRecord
  2
0
 70
0
 62
7
  6
Continuous
370
-3
390
13
347
21
  0
LAYER
  5
28
330
1
100
AcDbSymbolTableRecord
100
AcDbLayerTableRecord
  2
Defpoints
 70
0
 62
7
  6
Continuous
290
0
370
-3
390
13
347
21
  0
ENDTAB
  0
TABLE
  2
STYLE
  5
5
330
0
100
AcDbSymbolTable
 70
1
  0
STYLE
  5
29
330
5
100
AcDbSymbolTableRecord
100
AcDbTextStyleTableRecord
  2
Standard
 70
0
 40
0.0
 41
1.0
 50
0.0
 71
0
 42
2.5
  3
txt
  4

  0
ENDTAB
  0
TABLE
  2
VIEW
  5
7
330
0
100
AcDbSymbolTable
 70
0
  0
ENDTAB
  0
TABLE
  2
UCS
  5
6
330
0
100
AcDbSymbolTable
 70
0
  0
ENDTAB
  0
TABLE
  2
APPID
  5
3
330
0
100
AcDbSymbolTable
 70
3
  0
APPID
  5
2A
330
3
100
AcDbSymbolTableRecord
100
AcDbRegAppTableRecord
  2
ACAD
 70
0
  0
APPID
  5
32
330
3
100
AcDbSymbolTableRecord
100
AcDbRegAppTableRecord
  2
HATCHBACKGROUNDCOLOR
 70
0
  0
APPID
  5
33
330
3
100
AcDbSymbolTableRecord
100
AcDbRegAppTableRecord
  2
EZDXF
 70
0
  0
ENDTAB
  0
TABLE
  2
DIMSTYLE
  5
4
330
0
100
AcDbSymbolTable
 70
1
100
AcDbDimStyleTable
  0
DIMSTYLE
105
2B
330
4
100
AcDbSymbolTableRecord
100
AcDbDimStyleTableRecord
  2
Standard
 70
0
 40
1.0
 41
2.5
 42
0.625
 43
3.75
 44
1.25
 45
0.0
 46
0.0
 47
0.0
 48
0.0
 49
2.5
140
2.5
141
2.5
142
0.0
143
0.03937007874
144
1.0
145
0.0
146
1.0
147
0.625
148
0.0
 69
0
 70
0
 71
0
 72
0
 73
0
 74
0
 75
0
 76
0
 77
1
 78
8
 79
3
170
0
171
3
172
1
173
0
174
0
175
0
176
0
177
0
178
0
179
2
271
2
272
2
273
2
274
3
275
0
276
0
277
2
278
44
279
0
280
0
281
0
282
0
283
0
284
8
285
0
286
0
288
0
289
3
290
0
371
-2
372
-2
  0
ENDTAB
  0
TABLE
  2
BLOCK_RECORD
  5
9
330
0
100
AcDbSymbolTable
 70
2
  0
BLOCK_RECORD
  5
17
330
9
100
AcDbSymbolTableRecord
100
AcDbBlockTableRecord
  2
*Model_Space
340
1A
 70
0
280
1
281
0
  0
BLOCK_RECORD
  5
1B
330
9
100
AcDbSymbolTableRecord
100
AcDbBlockTableRecord
  2
*Paper_Space
340
1E
 70
0
280
1
281
0
  0
ENDTAB
  0
ENDSEC
  0
SECTION
  2
BLOCKS
  0
BLOCK
  5
18
330
17
100
AcDbEntity
  8
0
100
AcDbBlockBegin
  2
*Model_Space
 70
0
 10
0.0
 20
0.0
 30
0.0
  3
*Model_Space
  1

  0
ENDBLK
  5
19
330
17
100
AcDbEntity
  8
0
100
AcDbBlockEnd
  0
BLOCK
  5
1C
330
1B
100
AcDbEntity
  8
0
100
AcDbBlockBegin
  2
*Paper_Space
 70
0
 10
0.0
 20
0.0
 30
0.0
  3
*Paper_Space
  1

  0
ENDBLK
  5
1D
330
1B
100
AcDbEntity
  8
0
100
AcDbBlockEnd
  0
ENDSEC
  0
SECTION
  2
ENTITIES
  0
LWPOLYLINE
  5
2F
330
17
100
AcDbEntity
  8
0
100
AcDbPolyline
 90
158
 70
1
 10
146.26027400418317
 20
1.9292080725572518
 10
143.70348960312316
 20
2.4867696617272586
 10
141.77519076288317
 20
2.9005660609482575
 10
139.34279546834316
 20
3.414409753238264
 10
135.80104011944317
 20
4.146672609638266
 10
132.33642735306316
 20
4.844206211912269
 10
128.77465203296316
 20
5.541687218335273
 10
125.21147250681318
 20
6.21783543450028
 10
121.76981579291316
 20
6.848654518934282
 10
118.18924221488317
 20
7.481727381196283
 10
114.60506098955318
 20
8.089662510417284
 10
111.15243711992318
 20
8.649144704599287
 10
107.26641624787317
 20
9.24823229750729
 10
103.41468478232318
 20
9.807769457553295
 10
101.26733204959316
 20
10.104221464431301
 10
99.04467397414317
 20
10.399856187605298
 10
96.79340355695317
 20
10.687286861586298
 10
94.57604955720316
 20
10.958498360217298
 10
94.58084336701316
 20
5.186500830238273
 10
89.58084509105316
 20
5.182348689633272
 10
89.57557457386318
 20
11.528326800419304
 10
87.39826821656317
 20
11.757820181494306
 10
85.25524425626318
 20
11.97173250017731
 10
83.16327008280317
 20
12.168599266883302
 10
81.12719674967317
 20
12.348408466000308
 10
79.01333795111319
 20
12.52275292946431
 10
76.82343516524318
 20
12.68953979791831
 10
74.62589658102317
 20
12.842173598535311
 10
72.48099916136317
 20
12.976448914831312
 10
70.60395041033217
 20
13.081772461329312
 10
68.67727347870115
 20
13.178308302749311
 10
66.69423667990517
 20
13.265442873760314
 10
64.69481225178316
 20
13.340817806813313
 10
62.52059961211418
 20
13.408860334754316
 10
60.41903343686917
 20
13.461495930021314
 10
58.31350015781018
 20
13.501967979423313
 10
56.17391276124317
 20
13.531677473810308
 10
56.17950110222017
 20
6.7867223313002825
 10
51.17950282624818
 20
6.78257019069428
 10
51.17387176088019
 20
13.562667148837313
 10
49.90244096400218
 20
13.561967908235317
 10
48.66604480965319
 20
13.55694667977431
 10
47.456191071729165
 20
13.547301977537312
 10
46.25094712553317
 20
13.53242848568431
 10
45.05326131701517
 20
13.511817167233314
 10
44.10232992767018
 20
13.490888259337318
 10
42.92468811520217
 20
13.458844564117314
 10
41.99275323860118
 20
13.428301218785315
 10
40.842259914518166
 20
13.383783970633317
 10
39.93460345333918
 20
13.343007799533318
 10
39.02852819636118
 20
13.297033184101316
 10
38.10942048451315
 20
13.244746129768316
 10
37.17924527104415
 20
13.185770337875315
 10
36.239983663745164
 20
13.119779856344312
 10
35.293497518686166
 20
13.04650048457231
 10
34.341557744952155
 20
12.965718868615316
 10
33.50060570799516
 20
12.888300153786314
 10
32.59557884105118
 20
12.79850983328231
 10
31.689947735059178
 20
12.701841121786313
 10
30.78514972772416
 20
12.59837526842831
 10
29.882610081402163
 20
12.488265538090314
 10
29.433036669723165
 20
12.43084115922531
 10
28.90870561919317
 20
12.36164583698531
 10
28.00609627553817
 20
12.237435620667306
 10
27.116773074192167
 20
12.108687134093305
 10
26.17600315866318
 20
11.965483284987307
 10
25.23027136924817
 20
11.814122087995308
 10
24.301215456888173
 20
11.658053516965307
 10
23.389061223211172
 20
11.497557482572308
 10
22.494026530181173
 20
11.332918415549301
 10
21.616315581435174
 20
11.164421669707306
 10
20.75612870879317
 20
10.992358042235303
 10
19.91365191399416
 20
10.817018667163303
 10
19.499110413011167
 20
10.728212174364302
 10
18.98329390972316
 20
10.615329080037295
 10
18.11698524581317
 20
10.419381879204302
 10
17.256609911125167
 20
10.216636751143295
 10
16.84334363475216
 20
10.1163104936273
 10
16.364397613808165
 20
9.997608654596291
 10
15.880336826357166
 20
9.874942211086292
 10
15.39314331189017
 20
9.748691415611301
 10
14.660635611748177
 20
9.553475705401297
 10
14.17376008882016
 20
9.420043365001291
 10
13.810607215241163
 20
9.318560661807297
 10
13.449935462501173
 20
9.216083300909293
 10
12.974004096233159
 20
9.078228494786295
 10
12.621559743620168
 20
8.974172518803293
 10
12.158721993397165
 20
8.834916875906291
 10
11.718025124363166
 20
8.699506864703292
 10
11.324882326284168
 20
8.576328761222285
 10
10.940657080553166
 20
8.453720953510285
 10
10.566033079786166
 20
8.332008102743291
 10
10.112214452503167
 20
8.181621062006286
 10
9.761376816556165
 20
8.063088907575285
 10
9.38029424688716
 20
7.932032588407289
 10
9.006734709319176
 20
7.801074180480281
 10
8.43924918711717
 20
7.593297869132286
 10
7.868912170156165
 20
7.3768722968562805
 10
7.505858883788164
 20
7.2347001134712805
 10
7.1561517316611685
 20
7.09423640754828
 10
6.655829324978171
 20
6.886760590181286
 10
6.337936589702167
 20
6.750608244901279
 10
6.032151171302161
 20
6.616197215616282
 10
5.738118341229168
 20
6.483536602286279
 10
5.455484160836164
 20
6.352635794650276
 10
5.183894643209172
 20
6.223504165891278
 10
4.922995791215172
 20
6.0961510865422746
 10
4.672433607178164
 20
5.970585928027276
 10
4.431854103510176
 20
5.846818066553276
 10
4.20090334724317
 20
5.724856899389273
 10
3.979226851895163
 20
5.604711622600274
 10
3.7719686702941715
 20
5.4894889170732775
 10
3.57284933840117
 20
5.376007797274273
 10
3.319461580854167
 20
5.227426890370275
 10
3.1380511380091605
 20
5.118038790656271
 10
2.9636813703031635
 20
5.010417585016267
 10
2.7015143833621664
 20
4.84385899931927
 10
2.5144144618381716
 20
4.7212808614952735
 10
2.334696336918171
 20
4.600397989675269
 10
2.218619761874166
 20
4.520606510483269
 10
1.9944175125481678
 20
4.362535826411271
 10
1.7793803924501645
 20
4.205912129498266
 10
1.571774079315162
 20
4.050048137985268
 10
1.3698385690531723
 20
3.8942471906912672
 10
1.1718271577641701
 20
3.7378174950542657
 10
0.990206608817175
 20
3.5906613691122615
 10
0.7649141428841659
 20
3.403296570260263
 10
0.5068850221901755
 20
3.1829338645522647
 10
0.36901308981416037
 20
3.062632248150262
 10
0.227053929792163
 20
2.9367838094592607
 10
1.7053025658242404e-13
 20
2.7309751736332544
 10
0.21707045917317203
 20
2.664793324157259
 10
0.645841166058176
 20
2.5483131215802572
 10
1.6594414126421668
 20
2.305874291041256
 10
2.8477694707981698
 20
2.046602534418252
 10
4.0387393118771655
 20
1.808057827670254
 10
5.060264907232167
 20
1.6278001467582541
 10
6.151339791849168
 20
1.4701768998402525
 10
7.265683073494159
 20
1.3341932798882503
 10
8.402944367967166
 20
1.2148871712622498
 10
9.562759088800163
 20
1.1072969276752502
 10
11.583358176898173
 20
0.9338527365832494
 10
13.594567895360171
 20
0.7776638052472489
 10
16.574069309247164
 20
0.5822053422802487
 10
18.278954937770166
 20
0.48681393100424586
 10
20.119060433682165
 20
0.39636805263224595
 10
22.072184522931167
 20
0.3134690920712444
 10
24.105809957120158
 20
0.24021945467624484
 10
27.588368421253165
 20
0.14223794522524535
 10
29.84231845332117
 20
0.09513842503624481
 10
32.060623991064176
 20
0.06004103474324474
 10
36.23522533046915
 20
0.016119530110243474
 10
40.06782907050916
 20
2.433608869978343e-13
 10
47.143955522843186
 20
0.00930219765124285
 10
55.917089900516174
 20
0.03327719083524272
 10
104.90424202883318
 20
0.12633293175724525
 10
153.89141686759316
 20
0.20632909863824445
 10
148.84190746848316
 20
1.3558056638212488
  0
LWPOLYLINE
  5
30
330
17
100
AcDbEntity
  8
0
100
AcDbPolyline
 90
117
 70
1
 10
64.38702518027415
 20
4.45422598753127
 10
64.14903929217817
 20
4.513838349209269
 10
63.91804240440217
 20
4.5964903572612705
 10
63.696259143249165
 20
4.701386027668267
 10
63.48582540276519
 20
4.827515157783271
 10
63.28876777490515
 20
4.973663055132267
 10
63.10698403234815
 20
5.138422235573273
 10
62.942224851907184
 20
5.320205978130275
 10
62.796076954558174
 20
5.517263605990273
 10
62.66994782444317
 20
5.727697346474272
 10
62.56505215403618
 20
5.949480607627276
 10
62.48240014598417
 20
6.180477495403281
 10
62.422787784306166
 20
6.418463383499276
 10
62.38678916863418
 20
6.66114633771528
 10
62.374750985314165
 20
6.906189188539283
 10
62.38678916863418
 20
7.151232039363279
 10
62.422787784306166
 20
7.393914993580285
 10
62.48240014598417
 20
7.631900881675286
 10
62.56505215403618
 20
7.862897769452285
 10
62.66994782444317
 20
8.084681030604287
 10
62.796076954558174
 20
8.29511477108829
 10
62.94222485190815
 20
8.492172398948284
 10
63.10698403234815
 20
8.673956141506292
 10
63.28876777490515
 20
8.838715321946292
 10
63.48582540276519
 20
8.984863219296294
 10
63.696259143249165
 20
9.110992349410296
 10
63.91804240440217
 20
9.21588801981829
 10
64.14903929217817
 20
9.298540027870292
 10
64.38702518027415
 20
9.358152389547293
 10
64.62970813449019
 20
9.394151005220294
 10
64.87475098531417
 20
9.406189188539294
 10
77.87475117902315
 20
9.406189188539294
 10
78.11979402984318
 20
9.394151005220294
 10
78.36247698406316
 20
9.358152389547293
 10
78.60046287215317
 20
9.298540027870292
 10
78.83145975993315
 20
9.21588801981829
 10
79.05324302108315
 20
9.110992349410296
 10
79.26367676156318
 20
8.98486321929629
 10
79.46073438942315
 20
8.838715321946292
 10
79.64251813198317
 20
8.673956141506292
 10
79.80727731242317
 20
8.492172398948284
 10
79.95342520977317
 20
8.29511477108829
 10
80.07955433989318
 20
8.084681030604287
 10
80.18445001029315
 20
7.862897769452285
 10
80.26710201835317
 20
7.631900881675286
 10
80.32671438002316
 20
7.393914993580285
 10
80.36271299570316
 20
7.151232039363279
 10
80.37475117902315
 20
6.906189188539283
 10
80.36271299570316
 20
6.66114633771528
 10
80.32671438002316
 20
6.418463383499276
 10
80.26710201835317
 20
6.180477495403281
 10
80.18445001029315
 20
5.949480607627276
 10
80.07955433989318
 20
5.727697346474272
 10
79.95342520977317
 20
5.517263605990273
 10
79.80727731242317
 20
5.320205978130275
 10
79.64251813198317
 20
5.138422235573273
 10
79.46073438942315
 20
4.973663055132267
 10
79.26367676156318
 20
4.827515157783271
 10
79.05324302108315
 20
4.701386027668267
 10
78.83145975993315
 20
4.5964903572612705
 10
78.60046287215317
 20
4.513838349209269
 10
78.36247698406316
 20
4.45422598753127
 10
78.11979402984318
 20
4.41822737185927
 10
77.87475117902315
 20
4.406189188540267
 10
74.32019749043317
 20
4.406189188540271
 10
74.26812336468316
 20
4.343730476902266
 10
74.22747906180317
 20
4.297765197169266
 10
74.18571895579316
 20
4.252811222443263
 10
74.12104187194316
 20
4.187335521077266
 10
74.07660374290319
 20
4.145026905105265
 10
74.00803335580318
 20
4.083640468020263
 10
73.91318022487317
 20
4.005796515220268
 10
73.83959589206316
 20
3.9505195886552684
 10
73.78943077537318
 20
3.9151893273242635
 10
73.68657545511317
 20
3.848274601523265
 10
73.63394720773317
 20
3.816730443982266
 10
73.55359309048316
 20
3.7718594234152647
 10
73.44398898199316
 20
3.716689351477264
 10
73.33180982933317
 20
3.6669637530082646
 10
73.27483883975319
 20
3.644180587199262
 10
73.18837697882319
 20
3.612644270835265
 10
73.07140047188315
 20
3.57558628574726
 10
73.01226539743317
 20
3.559221406674265
 10
72.92285434881316
 20
3.537407259190264
 10
72.80250597032315
 20
3.5134684783142625
 10
72.71155301968318
 20
3.4994059957172645
 10
72.65065676665316
 20
3.491895159280265
 10
72.58959452928318
 20
3.4858810538292637
 10
72.49777043423316
 20
3.4796739437732604
 10
72.37510124842316
 20
3.476662584286263
 10
72.25243206260316
 20
3.4796739437732604
 10
72.16060796755315
 20
3.4858810538292637
 10
72.09954573018317
 20
3.491895159280265
 10
72.00827506228316
 20
3.50372130937426
 10
71.94769652651317
 20
3.5134684783142625
 10
71.82734814803118
 20
3.537407259190264
 10
71.73793709941216
 20
3.559221406674265
 10
71.67880202496016
 20
3.57558628574726
 10
71.56182551801717
 20
3.612644270835265
 10
71.47536365708615
 20
3.644180587199262
 10
71.41839266751018
 20
3.6669637530082646
 10
71.30621351484717
 20
3.716689351477264
 10
71.19660940635816
 20
3.7718594234152647
 10
71.11625528910915
 20
3.816730443982266
 10
71.06362704172719
 20
3.848274601523265
 10
70.96077172146417
 20
3.9151893273242635
 10
70.91060660478217
 20
3.9505195886552684
 10
70.83702227197116
 20
4.005796515220268
 10
70.74216914103917
 20
4.083640468020263
 10
70.67359875393416
 20
4.145026905105265
 10
70.62916062490117
 20
4.187335521077266
 10
70.56448354104415
 20
4.252811222443263
 10
70.52272343503617
 20
4.297765197169266
 10
70.48207913215717
 20
4.343730476902266
 10
70.43000500640719
 20
4.406189188540271
 10
64.87475098531417
 20
4.406189188540271
 10
64.62970813449019
 20
4.41822737185927
  0
LWPOLYLINE
  5
31
330
17
100
AcDbEntity
  8
0
100
AcDbPolyline
 90
50
 70
1
 10
34.82907577439718
 20
6.538662347037281
 10
34.80936252768336
 20
6.225329263126522
 10
34.750533677218755
 20
5.916937629125144
 10
34.653516989117804
 20
5.6183509653255825
 10
34.51984247450682
 20
5.33427816178299
 10
34.35161826033453
 20
5.069199216306096
 10
34.151497342950705
 20
4.827294582215558
 10
33.9226357487689
 20
4.612379240097805
 10
33.668642761844666
 20
4.4278425332822415
 10
33.393524003309864
 20
4.276594715872228
 10
33.10161826033453
 20
4.1610210562993935
 10
32.79752906086148
 20
4.082944220215559
 10
32.48605207322046
 20
4.043595525966605
 10
32.17209947557389
 20
4.043595525966605
 10
31.860622487932858
 20
4.082944220215559
 10
31.556533288459804
 20
4.1610210562993935
 10
31.264627545484487
 20
4.276594715872228
 10
30.98950878694967
 20
4.4278425332822415
 10
30.73551580002544
 20
4.612379240097805
 10
30.506654205843645
 20
4.827294582215558
 10
30.306533288459804
 20
5.069199216306096
 10
30.138309074287505
 20
5.3342781617829935
 10
30.004634559676532
 20
5.618350965325586
 10
29.907617871575596
 20
5.916937629125147
 10
29.848789021110974
 20
6.225329263126525
 10
29.829075774397168
 20
6.538662347037285
 10
29.848789021110974
 20
6.8519954309480475
 10
29.907617871575596
 20
7.160387064949418
 10
30.004634559676546
 20
7.45897372874898
 10
30.138309074287505
 20
7.743046532291572
 10
30.306533288459804
 20
8.008125477768466
 10
30.506654205843645
 20
8.250030111859004
 10
30.735515800025453
 20
8.464945453976753
 10
30.989508786949685
 20
8.64948216079232
 10
31.264627545484487
 20
8.80072997820233
 10
31.556533288459804
 20
8.916303637775165
 10
31.860622487932858
 20
8.994380473859007
 10
32.17209947557389
 20
9.033729168107964
 10
32.48605207322046
 20
9.03372916810796
 10
32.79752906086148
 20
8.994380473859003
 10
33.10161826033453
 20
8.916303637775162
 10
33.393524003309864
 20
8.800729978202327
 10
33.668642761844666
 20
8.649482160792314
 10
33.9226357487689
 20
8.464945453976746
 10
34.151497342950705
 20
8.250030111858994
 10
34.35161826033453
 20
8.008125477768456
 10
34.519842474506845
 20
7.743046532291558
 10
34.653516989117804
 20
7.4589737287489655
 10
34.750533677218755
 20
7.160387064949404
 10
34.80936252768336
 20
6.851995430948033
  0
ENDSEC
  0
SECTION
  2
OBJECTS
  0
DICTIONARY
  5
A
330
0
100
AcDbDictionary
281
1
  3
ACAD_COLOR
350
B
  3
ACAD_GROUP
350
C
  3
ACAD_LAYOUT
350
D
  3
ACAD_MATERIAL
350
E
  3
ACAD_MLEADERSTYLE
350
F
  3
ACAD_MLINESTYLE
350
10
  3
ACAD_PLOTSETTINGS
350
11
  3
ACAD_PLOTSTYLENAME
350
12
  3
ACAD_SCALELIST
350
14
  3
ACAD_TABLESTYLE
350
15
  3
ACAD_VISUALSTYLE
350
16
  3
EZDXF_META
350
2D
  0
DICTIONARY
  5
B
330
A
100
AcDbDictionary
281
1
  0
DICTIONARY
  5
C
330
A
100
AcDbDictionary
281
1
  0
DICTIONARY
  5
D
330
A
100
AcDbDictionary
281
1
  3
Model
350
1A
  3
Layout1
350
1E
  0
DICTIONARY
  5
E
330
A
100
AcDbDictionary
281
1
  3
ByBlock
350
1F
  3
ByLayer
350
20
  3
Global
350
21
  0
DICTIONARY
  5
F
330
A
100
AcDbDictionary
281
1
  3
Standard
350
2C
  0
DICTIONARY
  5
10
330
A
100
AcDbDictionary
281
1
  3
Standard
350
22
  0
DICTIONARY
  5
11
330
A
100
AcDbDictionary
281
1
  0
ACDBDICTIONARYWDFLT
  5
12
330
A
100
AcDbDictionary
281
1
  3
Normal
350
13
100
AcDbDictionaryWithDefault
340
13
  0
ACDBPLACEHOLDER
  5
13
330
12
  0
DICTIONARY
  5
14
330
A
100
AcDbDictionary
281
1
  0
DICTIONARY
  5
15
330
A
100
AcDbDictionary
281
1
  0
DICTIONARY
  5
16
330
A
100
AcDbDictionary
281
1
  0
LAYOUT
  5
1A
330
D
100
AcDbPlotSettings
  1

  4
A3
  6

 40
7.5
 41
20.0
 42
7.5
 43
20.0
 44
420.0
 45
297.0
 46
0.0
 47
0.0
 48
0.0
 49
0.0
140
0.0
141
0.0
142
1.0
143
1.0
 70
1024
 72
1
 73
0
 74
5
  7

 75
16
 76
0
 77
2
 78
300
147
1.0
148
0.0
149
0.0
100
AcDbLayout
  1
Model
 70
1
 71
0
 10
0.0
 20
0.0
 11
420.0
 21
297.0
 12
0.0
 22
0.0
 32
0.0
 14
1e+20
 24
1e+20
 34
1e+20
 15
-1e+20
 25
-1e+20
 35
-1e+20
146
0.0
 13
0.0
 23
0.0
 33
0.0
 16
1.0
 26
0.0
 36
0.0
 17
0.0
 27
1.0
 37
0.0
 76
1
330
17
  0
LAYOUT
  5
1E
330
D
100
AcDbPlotSettings
  1

  4
A3
  6

 40
7.5
 41
20.0
 42
7.5
 43
20.0
 44
420.0
 45
297.0
 46
0.0
 47
0.0
 48
0.0
 49
0.0
140
0.0
141
0.0
142
1.0
143
1.0
 70
0
 72
1
 73
0
 74
5
  7

 75
16
 76
0
 77
2
 78
300
147
1.0
148
0.0
149
0.0
100
AcDbLayout
  1
Layout1
 70
1
 71
1
 10
0.0
 20
0.0
 11
420.0
 21
297.0
 12
0.0
 22
0.0
 32
0.0
 14
1e+20
 24
1e+20
 34
1e+20
 15
-1e+20
 25
-1e+20
 35
-1e+20
146
0.0
 13
0.0
 23
0.0
 33
0.0
 16
1.0
 26
0.0
 36
0.0
 17
0.0
 27
1.0
 37
0.0
 76
1
330
1B
  0
MATERIAL
  5
1F
102
{ACAD_REACTORS
330
E
102
}
330
E
100
AcDbMaterial
  1
ByBlock
  2

 70
0
 40
1.0
 71
1
 41
1.0
 91
-1023410177
 42
1.0
 72
1
  3

 73
1
 74
1
 75
1
 44
0.5
 73
0
 45
1.0
 46
1.0
 77
1
  4

 78
1
 79
1
170
1
 48
1.0
171
1
  6

172
1
173
1
174
1
140
1.0
141
1.0
175
1
  7

176
1
177
1
178
1
143
1.0
179
1
  8

270
1
271
1
272
1
145
1.0
146
1.0
273
1
  9

274
1
275
1
276
1
 42
1.0
 72
1
  3

 73
1
 74
1
 75
1
 94
63
  0
MATERIAL
  5
20
102
{ACAD_REACTORS
330
E
102
}
330
E
100
AcDbMaterial
  1
ByLayer
  2

 70
0
 40
1.0
 71
1
 41
1.0
 91
-1023410177
 42
1.0
 72
1
  3

 73
1
 74
1
 75
1
 44
0.5
 73
0
 45
1.0
 46
1.0
 77
1
  4

 78
1
 79
1
170
1
 48
1.0
171
1
  6

172
1
173
1
174
1
140
1.0
141
1.0
175
1
  7

176
1
177
1
178
1
143
1.0
179
1
  8

270
1
271
1
272
1
145
1.0
146
1.0
273
1
  9

274
1
275
1
276
1
 42
1.0
 72
1
  3

 73
1
 74
1
 75
1
 94
63
  0
MATERIAL
  5
21
102
{ACAD_REACTORS
330
E
102
}
330
E
100
AcDbMaterial
  1
Global
  2

 70
0
 40
1.0
 71
1
 41
1.0
 91
-1023410177
 42
1.0
 72
1
  3

 73
1
 74
1
 75
1
 44
0.5
 73
0
 45
1.0
 46
1.0
 77
1
  4

 78
1
 79
1
170
1
 48
1.0
171
1
  6

172
1
173
1
174
1
140
1.0
141
1.0
175
1
  7

176
1
177
1
178
1
143
1.0
179
1
  8

270
1
271
1
272
1
145
1.0
146
1.0
273
1
  9

274
1
275
1
276
1
 42
1.0
 72
1
  3

 73
1
 74
1
 75
1
 94
63
  0
MLINESTYLE
  5
22
102
{ACAD_REACTORS
330
10
102
}
330
10
100
AcDbMlineStyle
  2
Standard
 70
0
  3

 62
256
 51
90.0
 52
90.0
 71
2
 49
0.5
 62
256
  6
BYLAYER
 49
-0.5
 62
256
  6
BYLAYER
  0
MLEADERSTYLE
  5
2C
102
{ACAD_REACTORS
330
F
102
}
330
F
100
AcDbMLeaderStyle
179
2
170
2
171
1
172
0
 90
2
 40
0.0
 41
0.0
173
1
 91
-1056964608
 92
-2
290
1
 42
2.0
291
1
 43
8.0
  3
Standard
 44
4.0
300

342
29
174
1
175
1
176
0
178
1
 93
-1056964608
 45
4.0
292
0
297
0
 46
4.0
 94
-1056964608
 47
1.0
 49
1.0
140
1.0
294
1
141
0.0
177
0
142
1.0
295
0
296
0
143
3.75
271
0
272
9
273
9
  0
DICTIONARY
  5
2D
330
A
100
AcDbDictionary
280
1
281
1
  3
CREATED_BY_EZDXF
350
2E
  3
WRITTEN_BY_EZDXF
350
34
  0
DICTIONARYVAR
  5
2E
330
2D
100
DictionaryVariables
280
0
  1
1.4.4 @ 2026-09-23T20:01:34.295375+00:00
  0
DICTIONARYVAR
  5
34
330
2D
100
DictionaryVariables
280
0
  1
1.4.4 @ 2026-09-23T20:01:34.303446+00:00
  0
ENDSEC
  0
EOF
