  0
SECTION
  2
HEADER
  9
$ACADVER
  1
AC1027
  9
$ACADMAINTVER
 70
105
  9
$DWGCODEPAGE
  3
ANSI_1252
  9
$LASTSAVEDBY
  1
ezdxf
  9
$REQUIREDVERSIONS
160
0
  9
$INSBASE
 10
0.0
 20
0.0
 30
0.0
  9
$EXTMIN
 10
1e+20
 20
1e+20
 30
1e+20
  9
$EXTMAX
 10
-1e+20
 20
-1e+20
 30
-1e+20
  9
$LIMMIN
 10
0.0
 20
0.0
  9
$LIMMAX
 10
420.0
 20
297.0
  9
$ORTHOMODE
 70
0
  9
$REGENMODE
 70
1
  9
$FILLMODE
 70
1
  9
$QTEXTMODE
 70
0
  9
$MIRRTEXT
 70
1
  9
$LTSCALE
 40
1.0
  9
$ATTMODE
 70
1
  9
$TEXTSIZE
 40
2.5
  9
$TRACEWID
 40
1.0
  9
$TEXTSTYLE
  7
Standard
  9
$CLAYER
  8
0
  9
$CELTYPE
  6
ByLayer
  9
$CECOLOR
 62
256
  9
$CELTSCALE
 40
1.0
  9
$DISPSILH
 70
0
  9
$DIMSCALE
 40
1.0
  9
$DIMASZ
 40
2.5
  9
$DIMEXO
 40
0.625
  9
$DIMDLI
 40
3.75
  9
$DIMRND
 40
0.0
  9
$DIMDLE
 40
0.0
  9
$DIMEXE
 40
1.25
  9
$DIMTP
 40
0.0
  9
$DIMTM
 40
0.0
  9
$DIMTXT
 40
2.5
  9
$DIMCEN
 40
2.5
  9
$DIMTSZ
 40
0.0
  9
$DIMTOL
 70
0
  9
$DIMLIM
 70
0
  9
$DIMTIH
 70
0
  9
$DIMTOH
 70
0
  9
$DIMSE1
 70
0
  9
$DIMSE2
 70
0
  9
$DIMTAD
 70
1
  9
$DIMZIN
 70
8
  9
$DIMBLK
  1

  9
$DIMASO
 70
1
  9
$DIMSHO
 70
1
  9
$DIMPOST
  1

  9
$DIMAPOST
  1

  9
$DIMALT
 70
0
  9
$DIMALTD
 70
3
  9
$DIMALTF
 40
0.03937007874
  9
$DIMLFAC
 40
1.0
  9
$DIMTOFL
 70
1
  9
$DIMTVP
 40
0.0
  9
$DIMTIX
 70
0
  9
$DIMSOXD
 70
0
  9
$DIMSAH
 70
0
  9
$DIMBLK1
  1

  9
$DIMBLK2
  1

  9
$DIMSTYLE
  2
ISO-25
  9
$DIMCLRD
 70
0
  9
$DIMCLRE
 70
0
  9
$DIMCLRT
 70
0
  9
$DIMTFAC
 40
1.0
  9
$DIMGAP
 40
0.625
  9
$DIMJUST
 70
0
  9
$DIMSD1
 70
0
  9
$DIMSD2
 70
0
  9
$DIMTOLJ
 70
0
  9
$DIMTZIN
 70
8
  9
$DIMALTZ
 70
0
  9
$DIMALTTZ
 70
0
  9
$DIMUPT
 70
0
  9
$DIMDEC
 70
2
  9
$DIMTDEC
 70
2
  9
$DIMALTU
 70
2
  9
$DIMALTTD
 70
3
  9
$DIMTXSTY
  7
Standard
  9
$DIMAUNIT
 70
0
  9
$DIMADEC
 70
0
  9
$DIMALTRND
 40
0.0
  9
$DIMAZIN
 70
0
  9
$DIMDSEP
 70
44
  9
$DIMATFIT
 70
3
  9
$DIMFRAC
 70
0
  9
$DIMLDRBLK
  1

  9
$DIMLUNIT
 70
2
  9
$DIMLWD
 70
-2
  9
$DIMLWE
 70
-2
  9
$DIMTMOVE
 70
0
  9
$DIMFXL
 40
1.0
  9
$DIMFXLON
 70
0
  9
$DIMJOGANG
 40
0.785398163397
  9
$DIMTFILL
 70
0
  9
$DIMTFILLCLR
 70
0
  9
$DIMARCSYM
 70
0
  9
$DIMLTYPE
  6

  9
$DIMLTEX1
  6

  9
$DIMLTEX2
  6

  9
$DIMTXTDIRECTION
 70
0
  9
$LUNITS
 70
2
  9
$LUPREC
 70
4
  9
$SKETCHINC
 40
1.0
  9
$FILLETRAD
 40
10.0
  9
$AUNITS
 70
0
  9
$AUPREC
 70
2
  9
$MENU
  1
.
  9
$ELEVATION
 40
0.0
  9
$PELEVATION
 40
0.0
  9
$THICKNESS
 40
0.0
  9
$LIMCHECK
 70
0
  9
$CHAMFERA
 40
0.0
  9
$CHAMFERB
 40
0.0
  9
$CHAMFERC
 40
0.0
  9
$CHAMFERD
 40
0.0
  9
$SKPOLY
 70
0
  9
$TDCREATE
 40
2461308.063576389
  9
$TDUCREATE
 40
2458532.153996898
  9
$TDUPDATE
 40
2461308.063576389
  9
$TDUUPDATE
 40
2458532.1544311
  9
$TDINDWG
 40
0.0
  9
$TDUSRTIMER
 40
0.0
  9
$USRTIMER
 70
1
  9
$ANGBASE
 50
0.0
  9
$ANGDIR
 70
0
  9
$PDMODE
 70
0
  9
$PDSIZE
 40
0.0
  9
$PLINEWID
 40
0.0
  9
$SPLFRAME
 70
0
  9
$SPLINETYPE
 70
6
  9
$SPLINESEGS
 70
8
  9
$HANDSEED
  5
35
  9
$SURFTAB1
 70
6
  9
$SURFTAB2
 70
6
  9
$SURFTYPE
 70
6
  9
$SURFU
 70
6
  9
$SURFV
 70
6
  9
$UCSBASE
  2

  9
$UCSNAME
  2

  9
$UCSORG
 10
0.0
 20
0.0
 30
0.0
  9
$UCSXDIR
 10
1.0
 20
0.0
 30
0.0
  9
$UCSYDIR
 10
0.0
 20
1.0
 30
0.0
  9
$UCSORTHOREF
  2

  9
$UCSORTHOVIEW
 70
0
  9
$UCSORGTOP
 10
0.0
 20
0.0
 30
0.0
  9
$UCSORGBOTTOM
 10
0.0
 20
0.0
 30
0.0
  9
$UCSORGLEFT
 10
0.0
 20
0.0
 30
0.0
  9
$UCSORGRIGHT
 10
0.0
 20
0.0
 30
0.0
  9
$UCSORGFRONT
 10
0.0
 20
0.0
 30
0.0
  9
$UCSORGBACK
 10
0.0
 20
0.0
 30
0.0
  9
$PUCSBASE
  2

  9
$PUCSNAME
  2

  9
$PUCSORG
 10
0.0
 20
0.0
 30
0.0
  9
$PUCSXDIR
 10
1.0
 20
0.0
 30
0.0
  9
$PUCSYDIR
 10
0.0
 20
1.0
 30
0.0
  9
$PUCSORTHOREF
  2

  9
$PUCSORTHOVIEW
 70
0
  9
$PUCSORGTOP
 10
0.0
 20
0.0
 30
0.0
  9
$PUCSORGBOTTOM
 10
0.0
 20
0.0
 30
0.0
  9
$PUCSORGLEFT
 10
0.0
 20
0.0
 30
0.0
  9
$PUCSORGRIGHT
 10
0.0
 20
0.0
 30
0.0
  9
$PUCSORGFRONT
 10
0.0
 20
0.0
 30
0.0
  9
$PUCSORGBACK
 10
0.0
 20
0.0
 30
0.0
  9
$USERI1
 70
0
  9
$USERI2
 70
0
  9
$USERI3
 70
0
  9
$USERI4
 70
0
  9
$USERI5
 70
0
  9
$USERR1
 40
0.0
  9
$USERR2
 40
0.0
  9
$USERR3
 40
0.0
  9
$USERR4
 40
0.0
  9
$USERR5
 40
0.0
  9
$WORLDVIEW
 70
1
  9
$SHADEDGE
 70
3
  9
$SHADEDIF
 70
70
  9
$TILEMODE
 70
1
  9
$MAXACTVP
 70
64
  9
$PINSBASE
 10
0.0
 20
0.0
 30
0.0
  9
$PLIMCHECK
 70
0
  9
$PEXTMIN
 10
1e+20
 20
1e+20
 30
1e+20
  9
$PEXTMAX
 10
-1e+20
 20
-1e+20
 30
-1e+20
  9
$PLIMMIN
 10
0.0
 20
0.0
  9
$PLIMMAX
 10
420.0
 20
297.0
  9
$UNITMODE
 70
0
  9
$VISRETAIN
 70
1
  9
$PLINEGEN
 70
0
  9
$PSLTSCALE
 70
1
  9
$TREEDEPTH
 70
3020
  9
$CMLSTYLE
  2
Standard
  9
$CMLJUST
 70
0
  9
$CMLSCALE
 40
20.0
  9
$PROXYGRAPHICS
 70
1
  9
$MEASUREMENT
 70
1
  9
$CELWEIGHT
370
-1
  9
$ENDCAPS
280
0
  9
$JOINSTYLE
280
0
  9
$LWDISPLAY
290
0
  9
$INSUNITS
 70
4
  9
$HYPERLINKBASE
  1

  9
$STYLESHEET
  1

  9
$XEDIT
290
1
  9
$CEPSNTYPE
380
0
  9
$PSTYLEMODE
290
1
  9
$FINGERPRINTGUID
  2
{D7417F33-39BE-412D-8D42-CD76A664A8A7}
  9
$VERSIONGUID
  2
{A6F88ABF-FC4E-426A-9577-7C05489E65FF}
  9
$EXTNAMES
290
1
  9
$PSVPSCALE
 40
0.0
  9
$OLESTARTUP
290
0
  9
$SORTENTS
280
127
  9
$INDEXCTL
280
0
  9
$HIDETEXT
280
1
  9
$XCLIPFRAME
280
1
  9
$HALOGAP
280
0
  9
$OBSCOLOR
 70
257
  9
$OBSLTYPE
280
0
  9
$INTERSECTIONDISPLAY
280
0
  9
$INTERSECTIONCOLOR
 70
257
  9
$DIMASSOC
280
2
  9
$PROJECTNAME
  1

  9
$CAMERADISPLAY
290
0
  9
$LENSLENGTH
 40
50.0
  9
$CAMERAHEIGHT
 40
0.0
  9
$STEPSPERSEC
 40
24.0
  9
$STEPSIZE
 40
100.0
  9
$3DDWFPREC
 40
2.0
  9
$PSOLWIDTH
 40
0.005
  9
$PSOLHEIGHT
 40
0.08
  9
$LOFTANG1
 40
1.570796326795
  9
$LOFTANG2
 40
1.570796326795
  9
$LOFTMAG1
 40
0.0
  9
$LOFTMAG2
 40
0.0
  9
$LOFTPARAM
 70
7
  9
$LOFTNORMALS
280
1
  9
$LATITUDE
 40
37.795
  9
$LONGITUDE
 40
-122.394
  9
$NORTHDIRECTION
 40
0.0
  9
$TIMEZONE
 70
-8000
  9
$LIGHTGLYPHDISPLAY
280
1
  9
$TILEMODELIGHTSYNCH
280
1
  9
$CMATERIAL
347
20
  9
$SOLIDHIST
280
0
  9
$SHOWHIST
280
1
  9
$DWFFRAME
280
2
  9
$DGNFRAME
280
2
  9
$REALWORLDSCALE
290
1
  9
$INTERFERECOLOR
 62
256
  9
$CSHADOW
280
0
  9
$SHADOWPLANELOCATION
 40
0.0
  0
ENDSEC
  0
SECTION
  2
CLASSES
  0
CLASS
  1
ACDBDICTIONARYWDFLT
  2
AcDbDictionaryWithDefault
  3
ObjectDBX Classes
 90
0
 91
0
280
0
281
0
  0
CLASS
  1
SUN
  2
AcDbSun
  3
SCENEOE
 90
1153
 91
0
280
0
281
0
  0
CLASS
  1
VISUALSTYLE
  2
AcDbVisualStyle
  3
ObjectDBX Classes
 90
4095
 91
0
280
0
281
0
  0
CLASS
  1
MATERIAL
  2
AcDbMaterial
  3
ObjectDBX Classes
 90
1153
 91
0
280
0
281
0
  0
CLASS
  1
SCALE
  2
AcDbScale
  3
ObjectDBX Classes
 90
1153
 91
0
280
0
281
0
  0
CLASS
  1
TABLESTYLE
  2
AcDbTableStyle
  3
ObjectDBX Classes
 90
4095
 91
0
280
0
281
0
  0
CLASS
  1
MLEADERSTYLE
  2
AcDbMLeaderStyle
  3
ACDB_MLEADERSTYLE_CLASS
 90
4095
 91
0
280
0
281
0
  0
CLASS
  1
DICTIONARYVAR
  2
AcDbDictionaryVar
  3
ObjectDBX Classes
 90
0
 91
0
280
0
281
0
  0
CLASS
  1
CELLSTYLEMAP
  2
AcDbCellStyleMap
  3
ObjectDBX Classes
 90
1152
 91
0
280
0
281
0
  0
CLASS
  1
MENTALRAYRENDERSETTINGS
  2
AcDbMentalRayRenderSettings
  3
SCENEOE
 90
1024
 91
0
280
0
281
0
  0
CLASS
  1
ACDBDETAILVIEWSTYLE
  2
AcDbDetailViewStyle
  3
ObjectDBX Classes
 90
1025
 91
0
280
0
281
0
  0
CLASS
  1
ACDBSECTIONVIEWSTYLE
  2
AcDbSectionViewStyle
  3
ObjectDBX Classes
 90
1025
 91
0
280
0
281
0
  0
CLASS
  1
RASTERVARIABLES
  2
AcDbRasterVariables
  3
ISM
 90
0
 91
0
280
0
281
0
  0
CLASS
  1
ACDBPLACEHOLDER
  2
AcDbPlaceHolder
  3
ObjectDBX Classes
 90
0
 91
0
280
0
281
0
  0
CLASS
  1
LAYOUT
  2
AcDbLayout
  3
ObjectDBX Classes
 90
0
 91
0
280
0
281
0
  0
ENDSEC
  0
SECTION
  2
TABLES
  0
TABLE
  2
VPORT
  5
8
330
0
100
AcDbSymbolTable
 70
1
  0
VPORT
  5
23
330
8
100
AcDbSymbolTableRecord
100
AcDbViewportTableRecord
  2
*Active
 70
0
 10
0.0
 20
0.0
 11
1.0
 21
1.0
 12
0.0
 22
0.0
 13
0.0
 23
0.0
 14
0.5
 24
0.5
 15
0.5
 25
0.5
 16
0.0
 26
0.0
 36
1.0
 17
0.0
 27
0.0
 37
0.0
 40
1000.0
 41
1.34
 42
50.0
 43
0.0
 44
0.0
 50
0.0
 51
0.0
 71
0
 72
1000
 73
1
 74
3
 75
0
 76
0
 77
0
 78
0
281
0
 65
0
146
0.0
  0
ENDTAB
  0
TABLE
  2
LTYPE
  5
2
330
0
100
AcDbSymbolTable
 70
3
  0
LTYPE
  5
24
330
2
100
AcDbSymbolTableRecord
100
AcDbLinetypeTableRecord
  2
ByBlock
 70
0
  3

 72
65
 73
0
 40
0.0
  0
LTYPE
  5
25
330
2
100
AcDbSymbolTableRecord
100
AcDbLinetypeTableRecord
  2
ByLayer
 70
0
  3

 72
65
 73
0
 40
0.0
  0
LTYPE
  5
26
330
2
100
AcDbSymbolTableRecord
100
AcDbLinetypeTableRecord
  2
Continuous
 70
0
  3

 72
65
 73
0
 40
0.0
  0
ENDTAB
  0
TABLE
  2
LAYER
  5
1
330
0
100
AcDbSymbolTable
 70
2
  0
LAYER
  5
27
330
1
100
AcDbSymbolTableRecord
100
AcDbLayerTableRecord
  2
0
 70
0
 62
7
  6
Continuous
370
-3
390
13
347
21
  0
LAYER
  5
28
330
1
100
AcDbSymbolTableRecord
100
AcDbLayerTableRecord
  2
Defpoints
 70
0
 62
7
  6
Continuous
290
0
370
-3
390
13
347
21
  0
ENDTAB
  0
TABLE
  2
STYLE
  5
5
330
0
100
AcDbSymbolTable
 70
1
  0
STYLE
  5
29
330
5
100
AcDbSymbolTableRecord
100
AcDbTextStyleTableRecord
  2
Standard
 70
0
 40
0.0
 41
1.0
 50
0.0
 71
0
 42
2.5
  3
txt
  4

  0
ENDTAB
  0
TABLE
  2
VIEW
  5
7
330
0
100
AcDbSymbolTable
 70
0
  0
ENDTAB
  0
TABLE
  2
UCS
  5
6
330
0
100
AcDbSymbolTable
 70
0
  0
ENDTAB
  0
TABLE
  2
APPID
  5
3
330
0
100
AcDbSymbolTable
 70
3
  0
APPID
  5
2A
330
3
100
AcDbSymbolTableRecord
100
AcDbRegAppTableRecord
  2
ACAD
 70
0
  0
APPID
  5
32
330
3
100
AcDbSymbolTableRecord
100
AcDbRegAppTableRecord
  2
HATCHBACKGROUNDCOLOR
 70
0
  0
APPID
  5
33
330
3
100
AcDbSymbolTableRecord
100
AcDbRegAppTableRecord
  2
EZDXF
 70
0
  0
ENDTAB
  0
TABLE
  2
DIMSTYLE
  5
4
330
0
100
AcDbSymbolTable
 70
1
100
AcDbDimStyleTable
  0
DIMSTYLE
105
2B
330
4
100
AcDbSymbolTableRecord
100
AcDbDimStyleTableRecord
  2
Standard
 70
0
 40
1.0
 41
2.5
 42
0.625
 43
3.75
 44
1.25
 45
0.0
 46
0.0
 47
0.0
 48
0.0
 49
2.5
140
2.5
141
2.5
142
0.0
143
0.03937007874
144
1.0
145
0.0
146
1.0
147
0.625
148
0.0
 69
0
 70
0
 71
0
 72
0
 73
0
 74
0
 75
0
 76
0
 77
1
 78
8
 79
3
170
0
171
3
172
1
173
0
174
0
175
0
176
0
177
0
178
0
179
2
271
2
272
2
273
2
274
3
275
0
276
0
277
2
278
44
279
0
280
0
281
0
282
0
283
0
284
8
285
0
286
0
288
0
289
3
290
0
371
-2
372
-2
  0
ENDTAB
  0
TABLE
  2
BLOCK_RECORD
  5
9
330
0
100
AcDbSymbolTable
 70
2
  0
BLOCK_RECORD
  5
17
330
9
100
AcDbSymbolTableRecord
100
AcDbBlockTableRecord
  2
*Model_Space
340
1A
 70
0
280
1
281
0
  0
BLOCK_RECORD
  5
1B
330
9
100
AcDbSymbolTableRecord
100
AcDbBlockTableRecord
  2
*Paper_Space
340
1E
 70
0
280
1
281
0
  0
ENDTAB
  0
ENDSEC
  0
SECTION
  2
BLOCKS
  0
BLOCK
  5
18
330
17
100
AcDbEntity
  8
0
100
AcDbBlockBegin
  2
*Model_Space
 70
0
 10
0.0
 20
0.0
 30
0.0
  3
*Model_Space
  1

  0
ENDBLK
  5
19
330
17
100
AcDbEntity
  8
0
100
AcDbBlockEnd
  0
BLOCK
  5
1C
330
1B
100
AcDbEntity
  8
0
100
AcDbBlockBegin
  2
*Paper_Space
 70
0
 10
0.0
 20
0.0
 30
0.0
  3
*Paper_Space
  1

  0
ENDBLK
  5
1D
330
1B
100
AcDbEntity
  8
0
100
AcDbBlockEnd
  0
ENDSEC
  0
SECTION
  2
ENTITIES
  0
LWPOLYLINE
  5
2F
330
17
100
AcDbEntity
  8
0
100
AcDbPolyline
 90
158
 70
1
 10
143.70348960312273
 20
11.075897487112009
 10
146.26027400418377
 20
11.633459076277372
 10
148.84190746848347
 20
12.206861485014736
 10
153.89141686759316
 20
13.35633805019831
 10
104.90424202883318
 20
13.43633421708086
 10
55.917089900516174
 20
13.529389958001357
 10
47.143955522843186
 20
13.553364951186634
 10
40.067829070509134
 20
13.56266714883731
 10
36.23522533046918
 20
13.546547618726098
 10
32.06062399106416
 20
13.502626114094289
 10
29.842318453321155
 20
13.467528723801125
 10
27.58836842125315
 20
13.420429203612569
 10
24.105809957120158
 20
13.322447694161125
 10
22.07218452293118
 20
13.249198056765756
 10
20.11906043368218
 20
13.166299096204817
 10
18.278954937770166
 20
13.075853217832936
 10
16.57406930924718
 20
12.980461806557049
 10
13.594567895360143
 20
12.78500334359047
 10
11.58335817689813
 20
12.62881441225442
 10
9.562759088800249
 20
12.455370221161292
 10
8.402944367967109
 20
12.347779977575582
 10
7.265683073494159
 20
12.228473868949134
 10
6.151339791849168
 20
12.092490248997017
 10
5.060264907232053
 20
11.93486700207971
 10
4.038739311877123
 20
11.754609321167251
 10
2.8477694707980845
 20
11.516064614419442
 10
1.6594414126424226
 20
11.25679285779502
 10
0.6458411660581902
 20
11.01435402725697
 10
0.2170704591730015
 20
10.897873824680616
 10
-2.842170943040401e-14
 20
10.831691975203846
 10
0.22705392979212036
 20
10.625883339378014
 10
0.36901308981416037
 20
10.50003490068704
 10
0.5068850221900902
 20
10.37973328428497
 10
0.7649141428841233
 20
10.15937057857699
 10
0.9902066088172177
 20
9.972005779725116
 10
1.171827157764156
 20
9.824849653783028
 10
1.369838569053158
 20
9.668419958146039
 10
1.5717740793151052
 20
9.512619010851967
 10
1.7793803924502356
 20
9.356755019339136
 10
1.9944175125481252
 20
9.200131322425994
 10
2.21861976187418
 20
9.04206063835406
 10
2.3346963369181566
 20
8.96226915916203
 10
2.5144144618382285
 20
8.84138628734214
 10
2.7015143833621806
 20
8.718808149518065
 10
2.963681370303206
 20
8.552249563821112
 10
3.138051138009203
 20
8.444628358181092
 10
3.3194615808541528
 20
8.335240258467014
 10
3.5728493384012125
 20
8.186659351563113
 10
3.771968670294129
 20
8.073178231763977
 10
3.979226851895163
 20
7.957955526237033
 10
4.2009033472432264
 20
7.837810249448126
 10
4.43185410351019
 20
7.715849082284089
 10
4.672433607178121
 20
7.5920812208099475
 10
4.9229957912152
 20
7.4665160622950975
 10
5.183894643209172
 20
7.339162982946065
 10
5.455484160836221
 20
7.210031354187157
 10
5.738118341229196
 20
7.0791305465511165
 10
6.03215117130209
 20
6.9464699332208655
 10
6.337936589702181
 20
6.812058903936064
 10
6.655829324978242
 20
6.675906558656216
 10
7.156151731661183
 20
6.4684307412890725
 10
7.505858883788164
 20
6.327967035366017
 10
7.868912170156136
 20
6.18579485198093
 10
8.439249187117213
 20
5.969369279705134
 10
9.006734709319119
 20
5.761592968356913
 10
9.380294246887104
 20
5.6306345604298595
 10
9.761376816556194
 20
5.4995782412621175
 10
10.112214452503096
 20
5.381046086830812
 10
10.566033079786123
 20
5.2306590460939155
 10
10.940657080553208
 20
5.108946195327162
 10
11.324882326284154
 20
4.986338387614962
 10
11.718025124363123
 20
4.863160284133906
 10
12.158721993397165
 20
4.7277502729310115
 10
12.621559743620168
 20
4.588494630034054
 10
12.97400409623313
 20
4.4844386540508605
 10
13.44993546250116
 20
4.346583847928013
 10
13.810607215241191
 20
4.244106487030146
 10
14.173760088820131
 20
4.142623783835857
 10
14.660635611748106
 20
4.009191443435753
 10
15.393143311890142
 20
3.8139757332259254
 10
15.880336826357123
 20
3.6877249377508274
 10
16.36439761380811
 20
3.56505849424083
 10
16.843343634752188
 20
3.446356655210103
 10
17.25660991112511
 20
3.3460303976937986
 10
18.11698524581324
 20
3.143285269633333
 10
18.983293909723102
 20
2.947338068799727
 10
19.499110413011167
 20
2.834454974473058
 10
19.9136519139941
 20
2.7456484816737117
 10
20.756128708793142
 20
2.57030910660181
 10
21.616315581435103
 20
2.3982454791296313
 10
22.494026530181102
 20
2.22974873328762
 10
23.389061223211158
 20
2.06510966626492
 10
24.301215456888173
 20
1.9046136318720457
 10
25.23027136924823
 20
1.748545060842341
 10
26.176003158663192
 20
1.5971838638501321
 10
27.116773074192196
 20
1.4539800147442197
 10
28.006096275538212
 20
1.3252315281702671
 10
28.908705619193157
 20
1.2010213118519264
 10
29.43303666972315
 20
1.1318259896118992
 10
29.882610081402163
 20
1.0744016107470102
 10
30.785149727724132
 20
0.9642918804086555
 10
31.689947735059164
 20
0.8608260270508392
 10
32.59557884105118
 20
0.7641573155550407
 10
33.50060570799516
 20
0.6743669950510327
 10
34.341557744952155
 20
0.5969482802219801
 10
35.293497518686166
 20
0.5161666642650218
 10
36.239983663745136
 20
0.4428872924929852
 10
37.17924527104415
 20
0.3768968109620179
 10
38.10942048451318
 20
0.3179210190689954
 10
39.02852819636118
 20
0.2656339647359989
 10
39.93460345333918
 20
0.21965934930400444
 10
40.842259914518166
 20
0.17888317820398036
 10
41.99275323860118
 20
0.13436593005200237
 10
42.92468811520217
 20
0.1038225847197154
 10
44.10232992767018
 20
0.07177888950000089
 10
45.05326131701517
 20
0.05084998160399756
 10
46.25094712553317
 20
0.03023866315299628
 10
47.456191071729194
 20
0.015365171300006253
 10
48.66604480965319
 20
0.00572046906299839
 10
49.90244096400218
 20
0.0006992406020014386
 10
51.17387176087968
 20
0.0
 10
51.179502826248154
 20
6.78009695814272
 10
56.17950110221983
 20
6.775944817537034
 10
56.1739127612432
 20
0.030989675026505736
 10
58.313500157810154
 20
0.06069916941460818
 10
60.4190334368692
 20
0.10117121881588886
 10
62.520599612114154
 20
0.15380681408335484
 10
64.69481225178316
 20
0.22184934202393158
 10
66.69423667990517
 20
0.2972242750765588
 10
68.67727347870118
 20
0.38435884608769655
 10
70.60395041033212
 20
0.4808946875089415
 10
72.4809991613632
 20
0.5862182340054698
 10
74.6258965810232
 20
0.7204935503018728
 10
76.82343516524318
 20
0.8731273509190025
 10
79.0133379511131
 20
1.0399142193739852
 10
81.12719674967326
 20
1.2142586828360837
 10
83.1632700828032
 20
1.3940678819537382
 10
85.25524425626301
 20
1.5909346486614613
 10
87.39826821656322
 20
1.8048469673425274
 10
89.5755745738636
 20
2.0343403484180094
 10
89.58084509105313
 20
8.38031845920396
 10
94.58084336701947
 20
8.376166318599036
 10
94.57604955720299
 20
2.6041687886213545
 10
96.7934035569534
 20
2.8753802872491985
 10
99.04467397414308
 20
3.16281096123263
 10
101.2673320495932
 20
3.458445684405774
 10
103.41468478232323
 20
3.7548976912837144
 10
107.26641624787283
 20
4.314434851332226
 10
111.15243711992287
 20
4.913522444239893
 10
114.60506098955324
 20
5.4730046384197255
 10
118.18924221488302
 20
6.080939767641873
 10
121.76981579291345
 20
6.714012629901419
 10
125.21147250681261
 20
7.344831714340086
 10
128.77465203296376
 20
8.020979930499053
 10
132.33642735306282
 20
8.7184609369268
 10
135.80104011944374
 20
9.415994539196248
 10
139.34279546834247
 20
10.148257395602243
 10
141.77519076288348
 20
10.66210108788755
  0
LWPOLYLINE
  5
30
330
17
100
AcDbEntity
  8
0
100
AcDbPolyline
 90
117
 70
1
 10
64.14903929217803
 20
9.048828799628515
 10
64.38702518027421
 20
9.108441161305795
 10
64.62970813449016
 20
9.144439776978539
 10
64.8747509853142
 20
9.156477960297043
 10
70.43000500640775
 20
9.156477960296556
 10
70.48207913215731
 20
9.218936671934914
 10
70.52272343503532
 20
9.264901951668818
 10
70.564483541045
 20
9.309855926393226
 10
70.62916062490052
 20
9.375331627760707
 10
70.67359875393467
 20
9.417640243731508
 10
70.74216914103897
 20
9.479026680817288
 10
70.83702227197134
 20
9.556870633616803
 10
70.91060660478217
 20
9.612147560182038
 10
70.96077172146403
 20
9.647477821513277
 10
71.0636270417271
 20
9.714392547314148
 10
71.11625528910903
 20
9.745936704855255
 10
71.196609406358
 20
9.790807725422372
 10
71.3062135148474
 20
9.84597779735956
 10
71.41839266751012
 20
9.895703395829099
 10
71.4753636570862
 20
9.918486561637899
 10
71.56182551801706
 20
9.950022878002432
 10
71.67880202496028
 20
9.98708086308967
 10
71.73793709941222
 20
10.003445742162924
 10
71.82734814803081
 20
10.025259889648833
 10
71.94769652651328
 20
10.049198670522234
 10
72.0082750622831
 20
10.058945839463565
 10
72.09954573018311
 20
10.070771989557349
 10
72.1606079675532
 20
10.076786095007561
 10
72.25243206260316
 20
10.082993205063946
 10
72.37510124842314
 20
10.086004564550912
 10
72.49777043423322
 20
10.08299320506454
 10
72.58959452928312
 20
10.076786095007753
 10
72.65065676665307
 20
10.070771989556107
 10
72.71155301968332
 20
10.063261153121168
 10
72.8025059703231
 20
10.049198670522802
 10
72.92285434881327
 20
10.025259889647408
 10
73.01226539743311
 20
10.003445742162917
 10
73.07140047188278
 20
9.98708086308881
 10
73.18837697882313
 20
9.950022878001876
 10
73.2748388397537
 20
9.918486561639378
 10
73.33180982933288
 20
9.895703395828436
 10
73.44398898199321
 20
9.845977797360124
 10
73.55359309048328
 20
9.790807725422273
 10
73.63394720773258
 20
9.745936704854074
 10
73.68657545511215
 20
9.714392547312443
 10
73.78943077537582
 20
9.647477821516835
 10
73.83959589206299
 20
9.612147560181807
 10
73.91318022487218
 20
9.556870633615826
 10
74.00803335580144
 20
9.47902668081511
 10
74.07660374290586
 20
9.417640243734882
 10
74.12104187194043
 20
9.375331627757365
 10
74.18571895579342
 20
9.309855926394278
 10
74.22747906180388
 20
9.264901951668673
 10
74.26812336468376
 20
9.218936671935545
 10
74.32019749043317
 20
9.156477960297046
 10
77.87475117902315
 20
9.156477960296364
 10
78.11979402984329
 20
9.144439776978878
 10
78.36247698406268
 20
9.108441161304167
 10
78.60046287215363
 20
9.048828799629359
 10
78.83145975993287
 20
8.966176791575421
 10
79.0532430210819
 20
8.861281121166922
 10
79.26367676156329
 20
8.735151991054215
 10
79.46073438942415
 20
8.589004093706112
 10
79.64251813198305
 20
8.424244913263928
 10
79.80727731242365
 20
8.242461170707394
 10
79.95342520977724
 20
8.04540354284946
 10
80.0795543398869
 20
7.834969802360081
 10
80.18445001030022
 20
7.613186541212563
 10
80.2671020183461
 20
7.382189653432267
 10
80.32671438003075
 20
7.14420376533916
 10
80.36271299570365
 20
6.901520811122059
 10
80.37475117902267
 20
6.656477960298056
 10
80.36271299569574
 20
6.411435109475134
 10
80.32671438002998
 20
6.168752155255321
 10
80.2671020183464
 20
5.930766267164442
 10
80.18445001029906
 20
5.69976937938225
 10
80.07955433988911
 20
5.477986118235448
 10
79.95342520977269
 20
5.267552377749379
 10
79.80727731242379
 20
5.0704947498884625
 10
79.64251813198169
 20
4.888711007332644
 10
79.46073438942352
 20
4.7239518268905485
 10
79.263676761564
 20
4.577803929539634
 10
79.05324302108383
 20
4.451674799425579
 10
78.8314597599327
 20
4.346779129020334
 10
78.6004628721534
 20
4.264127120966082
 10
78.36247698406319
 20
4.204514759289877
 10
78.11979402984312
 20
4.168516143617337
 10
77.87475117902315
 20
4.1564779602980195
 10
64.87475098531417
 20
4.156477960297508
 10
64.62970813449027
 20
4.168516143617746
 10
64.38702518027404
 20
4.20451475928955
 10
64.14903929217814
 20
4.264127120966975
 10
63.918042404402314
 20
4.3467791290193
 10
63.696259143248966
 20
4.451674799426655
 10
63.4858254027655
 20
4.57780392954149
 10
63.28876777490504
 20
4.723951826890898
 10
63.10698403234878
 20
4.88871100733159
 10
62.942224851907696
 20
5.070494749888681
 10
62.796076954557805
 20
5.267552377748805
 10
62.66994782444334
 20
5.477986118233096
 10
62.56505215403652
 20
5.69976937938516
 10
62.48240014598346
 20
5.930766267161854
 10
62.422787784306564
 20
6.16875215525709
 10
62.3867891686337
 20
6.411435109474008
 10
62.37475098531468
 20
6.656477960298008
 10
62.386789168633925
 20
6.901520811122072
 10
62.42278778430665
 20
7.144203765337918
 10
62.482400145984144
 20
7.382189653434054
 10
62.56505215403564
 20
7.6131865412102915
 10
62.66994782444354
 20
7.83496980236282
 10
62.796076954558
 20
8.045403542847172
 10
62.94222485190758
 20
8.242461170706658
 10
63.10698403234778
 20
8.424244913264465
 10
63.288767774905324
 20
8.589004093704867
 10
63.48582540276496
 20
8.735151991054414
 10
63.69625914324942
 20
8.861281121168506
 10
63.9180424044022
 20
8.966176791576
  0
LWPOLYLINE
  5
31
330
17
100
AcDbEntity
  8
0
100
AcDbPolyline
 90
50
 70
1
 10
34.82907577439718
 20
7.024004801800036
 10
34.80936252768336
 20
7.337337885710797
 10
34.750533677218755
 20
7.645729519712173
 10
34.653516989117804
 20
7.944316183511732
 10
34.51984247450682
 20
8.228388987054323
 10
34.35161826033453
 20
8.493467932531221
 10
34.151497342950705
 20
8.73537256662176
 10
33.9226357487689
 20
8.950287908739508
 10
33.668642761844666
 20
9.134824615555074
 10
33.393524003309864
 20
9.286072432965085
 10
33.10161826033453
 20
9.40164609253792
 10
32.79752906086148
 20
9.479722928621758
 10
32.48605207322046
 20
9.519071622870715
 10
32.17209947557389
 20
9.519071622870715
 10
31.860622487932858
 20
9.479722928621758
 10
31.556533288459804
 20
9.401646092537922
 10
31.264627545484487
 20
9.286072432965087
 10
30.98950878694967
 20
9.134824615555074
 10
30.73551580002544
 20
8.950287908739508
 10
30.506654205843645
 20
8.73537256662176
 10
30.306533288459804
 20
8.493467932531217
 10
30.138309074287505
 20
8.228388987054323
 10
30.004634559676532
 20
7.94431618351173
 10
29.907617871575596
 20
7.645729519712171
 10
29.848789021110974
 20
7.337337885710794
 10
29.829075774397168
 20
7.024004801800033
 10
29.848789021110974
 20
6.710671717889272
 10
29.907617871575596
 20
6.402280083887895
 10
30.004634559676546
 20
6.1036934200883355
 10
30.138309074287505
 20
5.819620616545745
 10
30.306533288459804
 20
5.554541671068849
 10
30.506654205843645
 20
5.312637036978311
 10
30.735515800025453
 20
5.09772169486056
 10
30.989508786949685
 20
4.9131849880449945
 10
31.264627545484487
 20
4.761937170634985
 10
31.556533288459804
 20
4.64636351106215
 10
31.860622487932858
 20
4.568286674978312
 10
32.17209947557389
 20
4.528937980729355
 10
32.48605207322046
 20
4.528937980729355
 10
32.79752906086148
 20
4.5682866749783155
 10
33.10161826033453
 20
4.6463635110621535
 10
33.393524003309864
 20
4.76193717063499
 10
33.668642761844666
 20
4.913184988045003
 10
33.9226357487689
 20
5.097721694860569
 10
34.151497342950705
 20
5.312637036978321
 10
34.35161826033453
 20
5.554541671068861
 10
34.519842474506845
 20
5.819620616545757
 10
34.653516989117804
 20
6.1036934200883515
 10
34.750533677218755
 20
6.402280083887909
 10
34.80936252768336
 20
6.710671717889288
  0
ENDSEC
  0
SECTION
  2
OBJECTS
  0
DICTIONARY
  5
A
330
0
100
AcDbDictionary
281
1
  3
ACAD_COLOR
350
B
  3
ACAD_GROUP
350
C
  3
ACAD_LAYOUT
350
D
  3
ACAD_MATERIAL
350
E
  3
ACAD_MLEADERSTYLE
350
F
  3
ACAD_MLINESTYLE
350
10
  3
ACAD_PLOTSETTINGS
350
11
  3
ACAD_PLOTSTYLENAME
350
12
  3
ACAD_SCALELIST
350
14
  3
ACAD_TABLESTYLE
350
15
  3
ACAD_VISUALSTYLE
350
16
  3
EZDXF_META
350
2D
  0
DICTIONARY
  5
B
330
A
100
AcDbDictionary
281
1
  0
DICTIONARY
  5
C
330
A
100
AcDbDictionary
281
1
  0
DICTIONARY
  5
D
330
A
100
AcDbDictionary
281
1
  3
Model
350
1A
  3
Layout1
350
1E
  0
DICTIONARY
  5
E
330
A
100
AcDbDictionary
281
1
  3
ByBlock
350
1F
  3
ByLayer
350
20
  3
Global
350
21
  0
DICTIONARY
  5
F
330
A
100
AcDbDictionary
281
1
  3
Standard
350
2C
  0
DICTIONARY
  5
10
330
A
100
AcDbDictionary
281
1
  3
Standard
350
22
  0
DICTIONARY
  5
11
330
A
100
AcDbDictionary
281
1
  0
ACDBDICTIONARYWDFLT
  5
12
330
A
100
AcDbDictionary
281
1
  3
Normal
350
13
100
AcDbDictionaryWithDefault
340
13
  0
ACDBPLACEHOLDER
  5
13
330
12
  0
DICTIONARY
  5
14
330
A
100
AcDbDictionary
281
1
  0
DICTIONARY
  5
15
330
A
100
AcDbDictionary
281
1
  0
DICTIONARY
  5
16
330
A
100
AcDbDictionary
281
1
  0
LAYOUT
  5
1A
330
D
100
AcDbPlotSettings
  1

  4
A3
  6

 40
7.5
 41
20.0
 42
7.5
 43
20.0
 44
420.0
 45
297.0
 46
0.0
 47
0.0
 48
0.0
 49
0.0
140
0.0
141
0.0
142
1.0
143
1.0
 70
1024
 72
1
 73
0
 74
5
  7

 75
16
 76
0
 77
2
 78
300
147
1.0
148
0.0
149
0.0
100
AcDbLayout
  1
Model
 70
1
 71
0
 10
0.0
 20
0.0
 11
420.0
 21
297.0
 12
0.0
 22
0.0
 32
0.0
 14
1e+20
 24
1e+20
 34
1e+20
 15
-1e+20
 25
-1e+20
 35
-1e+20
146
0.0
 13
0.0
 23
0.0
 33
0.0
 16
1.0
 26
0.0
 36
0.0
 17
0.0
 27
1.0
 37
0.0
 76
1
330
17
  0
LAYOUT
  5
1E
330
D
100
AcDbPlotSettings
  1

  4
A3
  6

 40
7.5
 41
20.0
 42
7.5
 43
20.0
 44
420.0
 45
297.0
 46
0.0
 47
0.0
 48
0.0
 49
0.0
140
0.0
141
0.0
142
1.0
143
1.0
 70
0
 72
1
 73
0
 74
5
  7

 75
16
 76
0
 77
2
 78
300
147
1.0
148
0.0
149
0.0
100
AcDbLayout
  1
Layout1
 70
1
 71
1
 10
0.0
 20
0.0
 11
420.0
 21
297.0
 12
0.0
 22
0.0
 32
0.0
 14
1e+20
 24
1e+20
 34
1e+20
 15
-1e+20
 25
-1e+20
 35
-1e+20
146
0.0
 13
0.0
 23
0.0
 33
0.0
 16
1.0
 26
0.0
 36
0.0
 17
0.0
 27
1.0
 37
0.0
 76
1
330
1B
  0
MATERIAL
  5
1F
102
{ACAD_REACTORS
330
E
102
}
330
E
100
AcDbMaterial
  1
ByBlock
  2

 70
0
 40
1.0
 71
1
 41
1.0
 91
-1023410177
 42
1.0
 72
1
  3

 73
1
 74
1
 75
1
 44
0.5
 73
0
 45
1.0
 46
1.0
 77
1
  4

 78
1
 79
1
170
1
 48
1.0
171
1
  6

172
1
173
1
174
1
140
1.0
141
1.0
175
1
  7

176
1
177
1
178
1
143
1.0
179
1
  8

270
1
271
1
272
1
145
1.0
146
1.0
273
1
  9

274
1
275
1
276
1
 42
1.0
 72
1
  3

 73
1
 74
1
 75
1
 94
63
  0
MATERIAL
  5
20
102
{ACAD_REACTORS
330
E
102
}
330
E
100
AcDbMaterial
  1
ByLayer
  2

 70
0
 40
1.0
 71
1
 41
1.0
 91
-1023410177
 42
1.0
 72
1
  3

 73
1
 74
1
 75
1
 44
0.5
 73
0
 45
1.0
 46
1.0
 77
1
  4

 78
1
 79
1
170
1
 48
1.0
171
1
  6

172
1
173
1
174
1
140
1.0
141
1.0
175
1
  7

176
1
177
1
178
1
143
1.0
179
1
  8

270
1
271
1
272
1
145
1.0
146
1.0
273
1
  9

274
1
275
1
276
1
 42
1.0
 72
1
  3

 73
1
 74
1
 75
1
 94
63
  0
MATERIAL
  5
21
102
{ACAD_REACTORS
330
E
102
}
330
E
100
AcDbMaterial
  1
Global
  2

 70
0
 40
1.0
 71
1
 41
1.0
 91
-1023410177
 42
1.0
 72
1
  3

 73
1
 74
1
 75
1
 44
0.5
 73
0
 45
1.0
 46
1.0
 77
1
  4

 78
1
 79
1
170
1
 48
1.0
171
1
  6

172
1
173
1
174
1
140
1.0
141
1.0
175
1
  7

176
1
177
1
178
1
143
1.0
179
1
  8

270
1
271
1
272
1
145
1.0
146
1.0
273
1
  9

274
1
275
1
276
1
 42
1.0
 72
1
  3

 73
1
 74
1
 75
1
 94
63
  0
MLINESTYLE
  5
22
102
{ACAD_REACTORS
330
10
102
}
330
10
100
AcDbMlineStyle
  2
Standard
 70
0
  3

 62
256
 51
90.0
 52
90.0
 71
2
 49
0.5
 62
256
  6
BYLAYER
 49
-0.5
 62
256
  6
BYLAYER
  0
MLEADERSTYLE
  5
2C
102
{ACAD_REACTORS
330
F
102
}
330
F
100
AcDbMLeaderStyle
179
2
170
2
171
1
172
0
 90
2
 40
0.0
 41
0.0
173
1
 91
-1056964608
 92
-2
290
1
 42
2.0
291
1
 43
8.0
  3
Standard
 44
4.0
300

342
29
174
1
175
1
176
0
178
1
 93
-1056964608
 45
4.0
292
0
297
0
 46
4.0
 94
-1056964608
 47
1.0
 49
1.0
140
1.0
294
1
141
0.0
177
0
142
1.0
295
0
296
0
143
3.75
271
0
272
9
273
9
  0
DICTIONARY
  5
2D
330
A
100
AcDbDictionary
280
1
281
1
  3
CREATED_BY_EZDXF
350
2E
  3
WRITTEN_BY_EZDXF
350
34
  0
DICTIONARYVAR
  5
2E
330
2D
100
DictionaryVariables
280
0
  1
1.4.4 @ 2026-09-23T20:01:33.459610+00:00
  0
DICTIONARYVAR
  5
34
330
2D
100
DictionaryVariables
280
0
  1
1.4.4 @ 2026-09-23T20:01:33.465149+00:00
  0
ENDSEC
  0
EOF
