  0
SECTION
  2
HEADER
  9
$ACADVER
  1
AC1024
  9
$ACADMAINTVER
 70
6
  9
$DWGCODEPAGE
  3
ANSI_1252
  9
$LASTSAVEDBY
  1
ezdxf
  9
$INSBASE
 10
0.0
 20
0.0
 30
0.0
  9
$EXTMIN
 10
1e+20
 20
1e+20
 30
1e+20
  9
$EXTMAX
 10
-1e+20
 20
-1e+20
 30
-1e+20
  9
$LIMMIN
 10
0.0
 20
0.0
  9
$LIMMAX
 10
420.0
 20
297.0
  9
$ORTHOMODE
 70
0
  9
$REGENMODE
 70
1
  9
$FILLMODE
 70
1
  9
$QTEXTMODE
 70
0
  9
$MIRRTEXT
 70
1
  9
$LTSCALE
 40
1.0
  9
$ATTMODE
 70
1
  9
$TEXTSIZE
 40
2.5
  9
$TRACEWID
 40
1.0
  9
$TEXTSTYLE
  7
Standard
  9
$CLAYER
  8
0
  9
$CELTYPE
  6
ByLayer
  9
$CECOLOR
 62
256
  9
$CELTSCALE
 40
1.0
  9
$DISPSILH
 70
0
  9
$DIMSCALE
 40
1.0
  9
$DIMASZ
 40
2.5
  9
$DIMEXO
 40
0.625
  9
$DIMDLI
 40
3.75
  9
$DIMRND
 40
0.0
  9
$DIMDLE
 40
0.0
  9
$DIMEXE
 40
1.25
  9
$DIMTP
 40
0.0
  9
$DIMTM
 40
0.0
  9
$DIMTXT
 40
2.5
  9
$DIMCEN
 40
2.5
  9
$DIMTSZ
 40
0.0
  9
$DIMTOL
 70
0
  9
$DIMLIM
 70
0
  9
$DIMTIH
 70
0
  9
$DIMTOH
 70
0
  9
$DIMSE1
 70
0
  9
$DIMSE2
 70
0
  9
$DIMTAD
 70
1
  9
$DIMZIN
 70
8
  9
$DIMBLK
  1

  9
$DIMASO
 70
1
  9
$DIMSHO
 70
1
  9
$DIMPOST
  1

  9
$DIMAPOST
  1

  9
$DIMALT
 70
0
  9
$DIMALTD
 70
3
  9
$DIMALTF
 40
0.03937007874
  9
$DIMLFAC
 40
1.0
  9
$DIMTOFL
 70
1
  9
$DIMTVP
 40
0.0
  9
$DIMTIX
 70
0
  9
$DIMSOXD
 70
0
  9
$DIMSAH
 70
0
  9
$DIMBLK1
  1

  9
$DIMBLK2
  1

  9
$DIMSTYLE
  2
ISO-25
  9
$DIMCLRD
 70
0
  9
$DIMCLRE
 70
0
  9
$DIMCLRT
 70
0
  9
$DIMTFAC
 40
1.0
  9
$DIMGAP
 40
0.625
  9
$DIMJUST
 70
0
  9
$DIMSD1
 70
0
  9
$DIMSD2
 70
0
  9
$DIMTOLJ
 70
0
  9
$DIMTZIN
 70
8
  9
$DIMALTZ
 70
0
  9
$DIMALTTZ
 70
0
  9
$DIMUPT
 70
0
  9
$DIMDEC
 70
2
  9
$DIMTDEC
 70
2
  9
$DIMALTU
 70
2
  9
$DIMALTTD
 70
3
  9
$DIMTXSTY
  7
Standard
  9
$DIMAUNIT
 70
0
  9
$DIMADEC
 70
0
  9
$DIMALTRND
 40
0.0
  9
$DIMAZIN
 70
0
  9
$DIMDSEP
 70
44
  9
$DIMATFIT
 70
3
  9
$DIMFRAC
 70
0
  9
$DIMLDRBLK
  1

  9
$DIMLUNIT
 70
2
  9
$DIMLWD
 70
-2
  9
$DIMLWE
 70
-2
  9
$DIMTMOVE
 70
0
  9
$DIMFXL
 40
1.0
  9
$DIMFXLON
 70
0
  9
$DIMJOGANG
 40
0.785398163397
  9
$DIMTFILL
 70
0
  9
$DIMTFILLCLR
 70
0
  9
$DIMARCSYM
 70
0
  9
$DIMLTYPE
  6

  9
$DIMLTEX1
  6

  9
$DIMLTEX2
  6

  9
$DIMTXTDIRECTION
 70
0
  9
$LUNITS
 70
2
  9
$LUPREC
 70
4
  9
$SKETCHINC
 40
1.0
  9
$FILLETRAD
 40
10.0
  9
$AUNITS
 70
0
  9
$AUPREC
 70
2
  9
$MENU
  1
.
  9
$ELEVATION
 40
0.0
  9
$PELEVATION
 40
0.0
  9
$THICKNESS
 40
0.0
  9
$LIMCHECK
 70
0
  9
$CHAMFERA
 40
0.0
  9
$CHAMFERB
 40
0.0
  9
$CHAMFERC
 40
0.0
  9
$CHAMFERD
 40
0.0
  9
$SKPOLY
 70
0
  9
$TDCREATE
 40
2461315.819849537
  9
$TDUCREATE
 40
2458532.153996898
  9
$TDUPDATE
 40
2461315.819849537
  9
$TDUUPDATE
 40
2458532.1544311
  9
$TDINDWG
 40
0.0
  9
$TDUSRTIMER
 40
0.0
  9
$USRTIMER
 70
1
  9
$ANGBASE
 50
0.0
  9
$ANGDIR
 70
0
  9
$PDMODE
 70
0
  9
$PDSIZE
 40
0.0
  9
$PLINEWID
 40
0.0
  9
$SPLFRAME
 70
0
  9
$SPLINETYPE
 70
6
  9
$SPLINESEGS
 70
8
  9
$HANDSEED
  5
34
  9
$SURFTAB1
 70
6
  9
$SURFTAB2
 70
6
  9
$SURFTYPE
 70
6
  9
$SURFU
 70
6
  9
$SURFV
 70
6
  9
$UCSBASE
  2

  9
$UCSNAME
  2

  9
$UCSORG
 10
0.0
 20
0.0
 30
0.0
  9
$UCSXDIR
 10
1.0
 20
0.0
 30
0.0
  9
$UCSYDIR
 10
0.0
 20
1.0
 30
0.0
  9
$UCSORTHOREF
  2

  9
$UCSORTHOVIEW
 70
0
  9
$UCSORGTOP
 10
0.0
 20
0.0
 30
0.0
  9
$UCSORGBOTTOM
 10
0.0
 20
0.0
 30
0.0
  9
$UCSORGLEFT
 10
0.0
 20
0.0
 30
0.0
  9
$UCSORGRIGHT
 10
0.0
 20
0.0
 30
0.0
  9
$UCSORGFRONT
 10
0.0
 20
0.0
 30
0.0
  9
$UCSORGBACK
 10
0.0
 20
0.0
 30
0.0
  9
$PUCSBASE
  2

  9
$PUCSNAME
  2

  9
$PUCSORG
 10
0.0
 20
0.0
 30
0.0
  9
$PUCSXDIR
 10
1.0
 20
0.0
 30
0.0
  9
$PUCSYDIR
 10
0.0
 20
1.0
 30
0.0
  9
$PUCSORTHOREF
  2

  9
$PUCSORTHOVIEW
 70
0
  9
$PUCSORGTOP
 10
0.0
 20
0.0
 30
0.0
  9
$PUCSORGBOTTOM
 10
0.0
 20
0.0
 30
0.0
  9
$PUCSORGLEFT
 10
0.0
 20
0.0
 30
0.0
  9
$PUCSORGRIGHT
 10
0.0
 20
0.0
 30
0.0
  9
$PUCSORGFRONT
 10
0.0
 20
0.0
 30
0.0
  9
$PUCSORGBACK
 10
0.0
 20
0.0
 30
0.0
  9
$USERI1
 70
0
  9
$USERI2
 70
0
  9
$USERI3
 70
0
  9
$USERI4
 70
0
  9
$USERI5
 70
0
  9
$USERR1
 40
0.0
  9
$USERR2
 40
0.0
  9
$USERR3
 40
0.0
  9
$USERR4
 40
0.0
  9
$USERR5
 40
0.0
  9
$WORLDVIEW
 70
1
  9
$SHADEDGE
 70
3
  9
$SHADEDIF
 70
70
  9
$TILEMODE
 70
1
  9
$MAXACTVP
 70
64
  9
$PINSBASE
 10
0.0
 20
0.0
 30
0.0
  9
$PLIMCHECK
 70
0
  9
$PEXTMIN
 10
1e+20
 20
1e+20
 30
1e+20
  9
$PEXTMAX
 10
-1e+20
 20
-1e+20
 30
-1e+20
  9
$PLIMMIN
 10
0.0
 20
0.0
  9
$PLIMMAX
 10
420.0
 20
297.0
  9
$UNITMODE
 70
0
  9
$VISRETAIN
 70
1
  9
$PLINEGEN
 70
0
  9
$PSLTSCALE
 70
1
  9
$TREEDEPTH
 70
3020
  9
$CMLSTYLE
  2
Standard
  9
$CMLJUST
 70
0
  9
$CMLSCALE
 40
20.0
  9
$PROXYGRAPHICS
 70
1
  9
$MEASUREMENT
 70
1
  9
$CELWEIGHT
370
-1
  9
$ENDCAPS
280
0
  9
$JOINSTYLE
280
0
  9
$LWDISPLAY
290
0
  9
$INSUNITS
 70
4
  9
$HYPERLINKBASE
  1

  9
$STYLESHEET
  1

  9
$XEDIT
290
1
  9
$CEPSNTYPE
380
0
  9
$PSTYLEMODE
290
1
  9
$FINGERPRINTGUID
  2
{E3111374-DF7E-4768-A4C7-51AF2767435A}
  9
$VERSIONGUID
  2
{FF576B48-D461-4796-A238-99700B3F3E13}
  9
$EXTNAMES
290
1
  9
$PSVPSCALE
 40
0.0
  9
$OLESTARTUP
290
0
  9
$SORTENTS
280
127
  9
$INDEXCTL
280
0
  9
$HIDETEXT
280
1
  9
$XCLIPFRAME
280
1
  9
$HALOGAP
280
0
  9
$OBSCOLOR
 70
257
  9
$OBSLTYPE
280
0
  9
$INTERSECTIONDISPLAY
280
0
  9
$INTERSECTIONCOLOR
 70
257
  9
$DIMASSOC
280
2
  9
$PROJECTNAME
  1

  9
$CAMERADISPLAY
290
0
  9
$LENSLENGTH
 40
50.0
  9
$CAMERAHEIGHT
 40
0.0
  9
$STEPSPERSEC
 40
24.0
  9
$STEPSIZE
 40
100.0
  9
$3DDWFPREC
 40
2.0
  9
$PSOLWIDTH
 40
0.005
  9
$PSOLHEIGHT
 40
0.08
  9
$LOFTANG1
 40
1.570796326795
  9
$LOFTANG2
 40
1.570796326795
  9
$LOFTMAG1
 40
0.0
  9
$LOFTMAG2
 40
0.0
  9
$LOFTPARAM
 70
7
  9
$LOFTNORMALS
280
1
  9
$LATITUDE
 40
37.795
  9
$LONGITUDE
 40
-122.394
  9
$NORTHDIRECTION
 40
0.0
  9
$TIMEZONE
 70
-8000
  9
$LIGHTGLYPHDISPLAY
280
1
  9
$TILEMODELIGHTSYNCH
280
1
  9
$CMATERIAL
347
20
  9
$SOLIDHIST
280
0
  9
$SHOWHIST
280
1
  9
$DWFFRAME
280
2
  9
$DGNFRAME
280
2
  9
$REALWORLDSCALE
290
1
  9
$INTERFERECOLOR
 62
256
  9
$CSHADOW
280
0
  9
$SHADOWPLANELOCATION
 40
0.0
  0
ENDSEC
  0
SECTION
  2
CLASSES
  0
CLASS
  1
ACDBDICTIONARYWDFLT
  2
AcDbDictionaryWithDefault
  3
ObjectDBX Classes
 90
0
 91
0
280
0
281
0
  0
CLASS
  1
SUN
  2
AcDbSun
  3
SCENEOE
 90
1153
 91
0
280
0
281
0
  0
CLASS
  1
VISUALSTYLE
  2
AcDbVisualStyle
  3
ObjectDBX Classes
 90
4095
 91
0
280
0
281
0
  0
CLASS
  1
MATERIAL
  2
AcDbMaterial
  3
ObjectDBX Classes
 90
1153
 91
0
280
0
281
0
  0
CLASS
  1
SCALE
  2
AcDbScale
  3
ObjectDBX Classes
 90
1153
 91
0
280
0
281
0
  0
CLASS
  1
TABLESTYLE
  2
AcDbTableStyle
  3
ObjectDBX Classes
 90
4095
 91
0
280
0
281
0
  0
CLASS
  1
MLEADERSTYLE
  2
AcDbMLeaderStyle
  3
ACDB_MLEADERSTYLE_CLASS
 90
4095
 91
0
280
0
281
0
  0
CLASS
  1
DICTIONARYVAR
  2
AcDbDictionaryVar
  3
ObjectDBX Classes
 90
0
 91
0
280
0
281
0
  0
CLASS
  1
CELLSTYLEMAP
  2
AcDbCellStyleMap
  3
ObjectDBX Classes
 90
1152
 91
0
280
0
281
0
  0
CLASS
  1
MENTALRAYRENDERSETTINGS
  2
AcDbMentalRayRenderSettings
  3
SCENEOE
 90
1024
 91
0
280
0
281
0
  0
CLASS
  1
ACDBDETAILVIEWSTYLE
  2
AcDbDetailViewStyle
  3
ObjectDBX Classes
 90
1025
 91
0
280
0
281
0
  0
CLASS
  1
ACDBSECTIONVIEWSTYLE
  2
AcDbSectionViewStyle
  3
ObjectDBX Classes
 90
1025
 91
0
280
0
281
0
  0
CLASS
  1
RASTERVARIABLES
  2
AcDbRasterVariables
  3
ISM
 90
0
 91
0
280
0
281
0
  0
CLASS
  1
LAYOUT
  2
AcDbLayout
  3
ObjectDBX Classes
 90
0
 91
0
280
0
281
0
  0
CLASS
  1
ACDBPLACEHOLDER
  2
AcDbPlaceHolder
  3
ObjectDBX Classes
 90
0
 91
0
280
0
281
0
  0
ENDSEC
  0
SECTION
  2
TABLES
  0
TABLE
  2
VPORT
  5
8
330
0
100
AcDbSymbolTable
 70
1
  0
VPORT
  5
23
330
8
100
AcDbSymbolTableRecord
100
AcDbViewportTableRecord
  2
*Active
 70
0
 10
0.0
 20
0.0
 11
1.0
 21
1.0
 12
0.0
 22
0.0
 13
0.0
 23
0.0
 14
0.5
 24
0.5
 15
0.5
 25
0.5
 16
0.0
 26
0.0
 36
1.0
 17
0.0
 27
0.0
 37
0.0
 40
1000.0
 41
1.34
 42
50.0
 43
0.0
 44
0.0
 50
0.0
 51
0.0
 71
0
 72
1000
 73
1
 74
3
 75
0
 76
0
 77
0
 78
0
281
0
 65
0
146
0.0
  0
ENDTAB
  0
TABLE
  2
LTYPE
  5
2
330
0
100
AcDbSymbolTable
 70
3
  0
LTYPE
  5
24
330
2
100
AcDbSymbolTableRecord
100
AcDbLinetypeTableRecord
  2
ByBlock
 70
0
  3

 72
65
 73
0
 40
0.0
  0
LTYPE
  5
25
330
2
100
AcDbSymbolTableRecord
100
AcDbLinetypeTableRecord
  2
ByLayer
 70
0
  3

 72
65
 73
0
 40
0.0
  0
LTYPE
  5
26
330
2
100
AcDbSymbolTableRecord
100
AcDbLinetypeTableRecord
  2
Continuous
 70
0
  3

 72
65
 73
0
 40
0.0
  0
ENDTAB
  0
TABLE
  2
LAYER
  5
1
330
0
100
AcDbSymbolTable
 70
3
  0
LAYER
  5
27
330
1
100
AcDbSymbolTableRecord
100
AcDbLayerTableRecord
  2
0
 70
0
 62
7
  6
Continuous
370
-3
390
13
347
21
  0
LAYER
  5
28
330
1
100
AcDbSymbolTableRecord
100
AcDbLayerTableRecord
  2
Defpoints
 70
0
 62
7
  6
Continuous
290
0
370
-3
390
13
347
21
  0
LAYER
  5
2F
330
1
100
AcDbSymbolTableRecord
100
AcDbLayerTableRecord
  2
CUT
 70
0
 62
7
  6
Continuous
370
-3
390
13
347
21
  0
ENDTAB
  0
TABLE
  2
STYLE
  5
5
330
0
100
AcDbSymbolTable
 70
1
  0
STYLE
  5
29
330
5
100
AcDbSymbolTableRecord
100
AcDbTextStyleTableRecord
  2
Standard
 70
0
 40
0.0
 41
1.0
 50
0.0
 71
0
 42
2.5
  3
txt
  4

  0
ENDTAB
  0
TABLE
  2
VIEW
  5
7
330
0
100
AcDbSymbolTable
 70
0
  0
ENDTAB
  0
TABLE
  2
UCS
  5
6
330
0
100
AcDbSymbolTable
 70
0
  0
ENDTAB
  0
TABLE
  2
APPID
  5
3
330
0
100
AcDbSymbolTable
 70
3
  0
APPID
  5
2A
330
3
100
AcDbSymbolTableRecord
100
AcDbRegAppTableRecord
  2
ACAD
 70
0
  0
APPID
  5
31
330
3
100
AcDbSymbolTableRecord
100
AcDbRegAppTableRecord
  2
HATCHBACKGROUNDCOLOR
 70
0
  0
APPID
  5
32
330
3
100
AcDbSymbolTableRecord
100
AcDbRegAppTableRecord
  2
EZDXF
 70
0
  0
ENDTAB
  0
TABLE
  2
DIMSTYLE
  5
4
330
0
100
AcDbSymbolTable
 70
1
100
AcDbDimStyleTable
  0
DIMSTYLE
105
2B
330
4
100
AcDbSymbolTableRecord
100
AcDbDimStyleTableRecord
  2
Standard
 70
0
 40
1.0
 41
2.5
 42
0.625
 43
3.75
 44
1.25
 45
0.0
 46
0.0
 47
0.0
 48
0.0
 49
2.5
140
2.5
141
2.5
142
0.0
143
0.03937007874
144
1.0
145
0.0
146
1.0
147
0.625
148
0.0
 69
0
 70
0
 71
0
 72
0
 73
0
 74
0
 75
0
 76
0
 77
1
 78
8
 79
3
170
0
171
3
172
1
173
0
174
0
175
0
176
0
177
0
178
0
179
2
271
2
272
2
273
2
274
3
275
0
276
0
277
2
278
44
279
0
280
0
281
0
282
0
283
0
284
8
285
0
286
0
288
0
289
3
290
0
371
-2
372
-2
  0
ENDTAB
  0
TABLE
  2
BLOCK_RECORD
  5
9
330
0
100
AcDbSymbolTable
 70
2
  0
BLOCK_RECORD
  5
17
330
9
100
AcDbSymbolTableRecord
100
AcDbBlockTableRecord
  2
*Model_Space
340
1A
 70
0
280
1
281
0
  0
BLOCK_RECORD
  5
1B
330
9
100
AcDbSymbolTableRecord
100
AcDbBlockTableRecord
  2
*Paper_Space
340
1E
 70
0
280
1
281
0
  0
ENDTAB
  0
ENDSEC
  0
SECTION
  2
BLOCKS
  0
BLOCK
  5
18
330
17
100
AcDbEntity
  8
0
100
AcDbBlockBegin
  2
*Model_Space
 70
0
 10
0.0
 20
0.0
 30
0.0
  3
*Model_Space
  1

  0
ENDBLK
  5
19
330
17
100
AcDbEntity
  8
0
100
AcDbBlockEnd
  0
BLOCK
  5
1C
330
1B
100
AcDbEntity
  8
0
100
AcDbBlockBegin
  2
*Paper_Space
 70
0
 10
0.0
 20
0.0
 30
0.0
  3
*Paper_Space
  1

  0
ENDBLK
  5
1D
330
1B
100
AcDbEntity
  8
0
100
AcDbBlockEnd
  0
ENDSEC
  0
SECTION
  2
ENTITIES
  0
LWPOLYLINE
  5
30
330
17
100
AcDbEntity
  8
CUT
100
AcDbPolyline
 90
317
 70
1
 10
0.18284548075520846
 20
23.499997512233
 10
0.2572095737450226
 20
23.837730000000043
 10
0.367039573745398
 20
24.280029999999954
 10
0.48879957374533234
 20
24.72013999999997
 10
0.6224395737449484
 20
25.15785000000008
 10
0.7678795737449668
 20
25.592930000000084
 10
0.925059573745326
 20
26.02514999999996
 10
1.0938995737454427
 20
26.45429999999991
 10
1.2742995737453562
 20
26.88015999999994
 10
1.4661795737451477
 20
27.30251000000003
 10
1.6694395737439969
 20
27.721129999997594
 10
1.883969573745393
 20
28.135819999996908
 10
2.109659573745283
 20
28.546349999996963
 10
2.3464095737453263
 20
28.952529999996933
 10
2.594079573745155
 20
29.354139999997038
 10
2.852559573745033
 20
29.750979999997117
 10
3.1217095737454414
 20
30.14283999999684
 10
3.401389573745078
 20
30.529529999997095
 10
3.6914695737453833
 20
30.91084999999687
 10
3.991779573745383
 20
31.286609999996863
 10
4.302189573745419
 20
31.656609999996824
 10
4.622529573745144
 20
32.02065999999706
 10
4.952629573745359
 20
32.37857999999686
 10
5.2923395737451315
 20
32.73017999999708
 10
5.641469573745091
 20
33.07529999999713
 10
5.9998495737451485
 20
33.41373999999707
 10
6.367299573745093
 20
33.74533999999713
 10
6.743619573745203
 20
34.06992999999701
 10
7.128629573745183
 20
34.38733999999703
 10
7.5221295737452
 20
34.69741999999701
 10
7.923919573745225
 20
34.99999999999697
 10
8.333799573745042
 20
35.294919999997234
 10
8.75154957374523
 20
35.58204999999697
 10
9.176959573745215
 20
35.86121999999699
 10
9.609809573745133
 20
36.13230999999712
 10
10.049889573745338
 20
36.39516999999678
 10
10.496969573745247
 20
36.649659999996935
 10
10.950819573745289
 20
36.89565999999685
 10
11.411209573745282
 20
37.13304999999686
 10
11.877909573745251
 20
37.36168999999691
 10
12.350669573745149
 20
37.58147999999713
 10
12.829269573745128
 20
37.792299999997184
 10
13.313439573745155
 20
37.99403999999713
 10
13.802939573737476
 20
38.18660999999378
 10
14.297539573736234
 20
38.36989999999693
 10
14.796959573736164
 20
38.543819999997126
 10
15.300969573736158
 20
38.70827999999716
 10
15.809289573736248
 20
38.86319999999687
 10
16.321679573736155
 20
39.0084999999972
 10
16.8378695737362
 20
39.14409999999703
 10
17.357589573736234
 20
39.26992999999689
 10
17.880589573736216
 20
39.385939999996964
 10
18.406589573736177
 20
39.49205999999717
 10
18.93532957373619
 20
39.58822999999709
 10
19.466539573736238
 20
39.674419999996815
 10
19.99993957373624
 20
39.75055999999679
 10
20.535269573736226
 20
39.81663999999685
 10
20.772679573736205
 20
39.84137999999703
 10
20.77267957373621
 20
25.196150000000003
 10
20.781769573736206
 20
25.196150000000003
 10
20.632469573736216
 20
25.11263999999999
 10
20.22618957373626
 20
24.839669999999927
 10
19.843509573736082
 20
24.53449000000016
 10
19.486979573736207
 20
24.199140000000003
 10
19.158969573736382
 20
23.835849999999844
 10
18.861669573736474
 20
23.4470199999998
 10
18.597039573736314
 20
23.035259999999937
 10
18.366859573736328
 20
22.60329999999994
 10
18.172659573736297
 20
22.154009999999964
 10
18.015719573736355
 20
21.69038999999995
 10
17.897089573736427
 20
21.215519999999948
 10
17.817559573736233
 20
20.73256
 10
17.777669573736212
 20
20.244730000000004
 10
17.77766957373621
 20
19.755270000000003
 10
17.817559573736226
 20
19.267430000000004
 10
17.89708957373618
 20
18.78447
 10
18.01571957373599
 20
18.30959999999995
 10
18.17265957373606
 20
17.84597999999995
 10
18.366859573736118
 20
17.396689999999964
 10
18.59703957373609
 20
16.96472999999994
 10
18.8616695737361
 20
16.552969999999934
 10
19.158969573736
 20
16.164149999999843
 10
19.486979573736132
 20
15.800849999999937
 10
19.843509573736206
 20
15.465500000000002
 10
20.226189573736335
 20
15.160320000000162
 10
20.632469573736195
 20
14.887359999999987
 10
21.059639573736284
 20
14.648410000000137
 10
21.504869573736116
 20
14.445079999999804
 10
21.965199573736154
 20
14.27871999999985
 10
22.43754957373616
 20
14.150429999999826
 10
22.91878957373619
 20
14.061069999999923
 10
23.405709573736228
 20
14.01123000000021
 10
23.895069573736208
 20
14.001250000000015
 10
24.38360957373621
 20
14.031180000000006
 10
24.868089573736192
 20
14.100840000000103
 10
25.345289573736256
 20
14.209759999999795
 10
25.812009573736233
 20
14.357199999999926
 10
26.265169573736138
 20
14.542210000000171
 10
26.701729573736195
 20
14.76353000000003
 10
27.118809573736176
 20
15.019700000000054
 10
27.513609573736293
 20
15.309009999999887
 10
27.883529573736176
 20
15.629540000000038
 10
28.226079573736094
 20
15.979150000000116
 10
28.538999573736227
 20
16.355529999999987
 10
28.820199573736254
 20
16.75614999999997
 10
29.067799573736004
 20
17.178370000000122
 10
29.28016957373611
 20
17.61936000000005
 10
29.455889573736236
 20
18.07618999999999
 10
29.59378957373617
 20
18.545830000000013
 10
29.692949573736275
 20
19.02513999999999
 10
29.752709573736027
 20
19.510940000000026
 10
29.772679573736188
 20
20.000000000000004
 10
29.752709573736194
 20
20.489050000000002
 10
29.692949573736385
 20
20.974850000000025
 10
29.593789573736228
 20
21.45417000000001
 10
29.455889573736258
 20
21.923800000000018
 10
29.28016957373642
 20
22.380640000000085
 10
29.067799573736302
 20
22.82163000000005
 10
28.82019957373634
 20
23.24384000000008
 10
28.538999573735992
 20
23.644469999999853
 10
28.226079573736186
 20
24.020839999999986
 10
27.883529573736187
 20
24.370459999999984
 10
27.51360957373624
 20
24.69099000000004
 10
27.118809573736122
 20
24.980299999999886
 10
26.767379573736335
 20
25.196150000000213
 10
26.77267957373621
 20
25.196150000000003
 10
26.77267957373621
 20
39.841309999997
 10
27.009359573736205
 20
39.81663999999698
 10
27.544689573736225
 20
39.75055999999715
 10
28.07809957373623
 20
39.67441999999718
 10
28.609309573736237
 20
39.58822999999719
 10
29.138049573736193
 20
39.49205999999692
 10
29.66405957373624
 20
39.385939999997156
 10
30.187059573736217
 20
39.269929999997046
 10
30.706789573736224
 20
39.144099999997074
 10
31.2229795737362
 20
39.00849999999697
 10
31.735369573736154
 20
38.86319999999681
 10
32.243699573736144
 20
38.70827999999679
 10
32.74770957373616
 20
38.54381999999685
 10
33.24714957373618
 20
38.36989999999693
 10
33.741749573736236
 20
38.186609999997074
 10
34.231259573736175
 20
37.994039999996915
 10
34.71543957373616
 20
37.7922999999969
 10
35.19403957373613
 20
37.581479999996816
 10
35.66680957373629
 20
37.36168999999718
 10
36.13350957373625
 20
37.1330499999971
 10
36.59390957373628
 20
36.89565999999715
 10
37.047769573736275
 20
36.64965999999713
 10
37.494859573736285
 20
36.395169999997144
 10
37.93494957373633
 20
36.13230999999722
 10
38.367819573736355
 20
35.861219999997246
 10
38.79323957373626
 20
35.58204999999708
 10
39.21099957373622
 20
35.29491999999702
 10
39.62087957373604
 20
34.999999999996774
 10
40.02267957373624
 20
34.697419999997045
 10
40.41618957373618
 20
34.38733999999697
 10
40.80121957373631
 20
34.06992999999713
 10
41.17754957373607
 20
33.74533999999685
 10
41.545009573736344
 20
33.413739999997155
 10
41.90339957373624
 20
33.075299999997036
 10
42.25254957373612
 20
32.73017999999691
 10
42.59226957373613
 20
32.37857999999693
 10
42.92238957373628
 20
32.020659999997065
 10
43.24273957373613
 20
31.656609999996938
 10
43.553159573736224
 20
31.28660999999701
 10
43.85348957373604
 20
30.91084999999687
 10
44.143579573736375
 20
30.52952999999713
 10
44.423269573736285
 20
30.142839999997058
 10
44.692439573736316
 20
29.750979999997078
 10
44.95092957373622
 20
29.35413999999701
 10
45.19861957373636
 20
28.952529999997097
 10
45.4353795737361
 20
28.54634999999694
 10
45.661089573736106
 20
28.135819999996947
 10
45.87563957373632
 20
27.721129999997064
 10
46.078909573735324
 20
27.30250999999957
 10
46.270799573736326
 20
26.88016000000006
 10
46.45121957373625
 20
26.45430000000002
 10
46.6200695737363
 20
26.02515000000004
 10
46.77726957373598
 20
25.592929999999917
 10
46.92272957373633
 20
25.157850000000042
 10
47.05637957373626
 20
24.72014000000002
 10
47.178159573736224
 20
24.28003000000001
 10
47.287999573736386
 20
23.83773000000005
 10
47.362378871001454
 20
23.499997512233058
 10
41.73331957413521
 20
23.499997412227003
 10
41.73331957413521
 20
17.499997412227003
 10
47.54543914759681
 20
17.499997412227003
 10
47.471749573736375
 20
17.052509999999977
 10
47.38595957373626
 20
16.606519999999996
 10
47.288139573736395
 20
16.16225999999996
 10
47.178309573736286
 20
15.719969999999986
 10
47.056549573736255
 20
15.27984999999999
 10
46.92290957373647
 20
14.842139999999922
 10
46.7774695737363
 20
14.407069999999973
 10
46.62028957373636
 20
13.974839999999947
 10
46.45144957373637
 20
13.545689999999938
 10
46.271049573736065
 20
13.119830000000064
 10
46.07916957373608
 20
12.697490000000059
 10
45.87591957373618
 20
12.27886000000002
 10
45.66137957373633
 20
11.864179999999939
 10
45.43568957373617
 20
11.453640000000025
 10
45.19893957373609
 20
11.047460000000072
 10
44.95126957373626
 20
10.645849999999971
 10
44.692789573736285
 20
10.249019999999952
 10
44.42363957373638
 20
9.857149999999884
 10
44.14395957373634
 20
9.47045999999991
 10
43.85387957373604
 20
9.089140000000137
 10
43.55356957373614
 20
8.713390000000063
 10
43.243159573735994
 20
8.34339000000018
 10
42.92281957373627
 20
7.979339999999951
 10
42.59271957373606
 20
7.621420000000143
 10
42.25300957373618
 20
7.269810000000026
 10
41.90387957373606
 20
6.924700000000147
 10
41.545499573736265
 20
6.586259999999937
 10
41.17804957373622
 20
6.254649999999996
 10
40.80172957373621
 20
5.930059999999999
 10
40.41671957373623
 20
5.612649999999974
 10
40.02321957373634
 20
5.30257999999983
 10
39.621429573736194
 20
5.000000000000028
 10
39.21154957373615
 20
4.7050700000000845
 10
38.79379957373613
 20
4.417950000000117
 10
38.36838957373606
 20
4.138770000000228
 10
37.93553957373615
 20
3.8676900000000884
 10
37.49545957373608
 20
3.60483000000022
 10
37.04837957373623
 20
3.3503299999999676
 10
36.594529573736125
 20
3.104330000000152
 10
36.13413957373615
 20
2.866950000000122
 10
35.667439573736345
 20
2.6382999999997185
 10
35.19467957373618
 20
2.418520000000056
 10
34.71607957373629
 20
2.2076999999998215
 10
34.23190957373613
 20
2.0059500000001886
 10
33.74240957373615
 20
1.813380000000162
 10
33.24780957373618
 20
1.6300900000000738
 10
32.748389573736254
 20
1.4561699999998758
 10
32.24437957373625
 20
1.2917099999998491
 10
31.73605957373617
 20
1.1367900000001327
 10
31.22366957373622
 20
0.9914999999999559
 10
30.707479573736215
 20
0.8558999999999735
 10
30.187759573736244
 20
0.7300599999998418
 10
29.66475957373618
 20
0.6140600000001264
 10
29.13875957373624
 20
0.5079399999998415
 10
28.610019573736256
 20
0.4117599999997381
 10
28.078809573736184
 20
0.32558000000014786
 10
27.54540957373618
 20
0.24943000000018856
 10
27.010079573736213
 20
0.18335999999996133
 10
26.473099573736217
 20
0.1273899999998953
 10
25.934739573736206
 20
0.0815600000000245
 10
25.395279573736207
 20
0.04589000000000709
 10
24.85498957373621
 20
0.020400000000002194
 10
24.31414957373621
 20
0.005099999999991667
 10
23.773039573736224
 20
0.0
 10
23.231919573736207
 20
0.005099999999998772
 10
22.691079573736207
 20
0.020400000000012852
 10
22.15078957373621
 20
0.04589000000000354
 10
21.611329573736207
 20
0.08155999999999963
 10
21.072969573736206
 20
0.12738999999998057
 10
20.53598957373622
 20
0.18336000000011055
 10
20.000659573736215
 20
0.24943000000004645
 10
19.467249573736233
 20
0.3255800000001905
 10
18.936039573736185
 20
0.4117599999998589
 10
18.407299573736253
 20
0.5079400000002714
 10
17.881289573736176
 20
0.6140599999998528
 10
17.35828957373618
 20
0.7300599999998774
 10
16.838559573736184
 20
0.8558999999999024
 10
16.322369573736214
 20
0.9915000000000305
 10
15.80997957373622
 20
1.136790000000051
 10
15.301649573736276
 20
1.2917100000002222
 10
14.797639573736257
 20
1.4561700000001565
 10
14.298199573736232
 20
1.6300900000000738
 10
13.80359957373618
 20
1.813379999999933
 10
13.314089573744035
 20
2.005949999997025
 10
12.829909573745274
 20
2.207700000000166
 10
12.351309573745288
 20
2.418520000000184
 10
11.87853957374514
 20
2.638299999999859
 10
11.411839573745347
 20
2.866950000000287
 10
10.951439573745134
 20
3.104329999999857
 10
10.49757957374514
 20
3.350329999999879
 10
10.050489573745201
 20
3.6048299999999944
 10
9.610399573745077
 20
3.8676899999997865
 10
9.177529573745165
 20
4.138769999999935
 10
8.752109573745157
 20
4.4179499999999265
 10
8.33434957374518
 20
4.705069999999964
 10
7.924469573745149
 20
4.999999999999922
 10
7.522669573745176
 20
5.30257999999996
 10
7.129159573745323
 20
5.61265000000015
 10
6.744129573745106
 20
5.930059999999878
 10
6.367799573745341
 20
6.25465000000016
 10
6.000339573745112
 20
6.5862599999998945
 10
5.64194957374518
 20
6.924699999999971
 10
5.2927995737452775
 20
7.269810000000074
 10
4.953079573745331
 20
7.621420000000125
 10
4.622959573745135
 20
7.979339999999938
 10
4.302609573745283
 20
8.343390000000069
 10
3.992189573745197
 20
8.713389999999993
 10
3.691859573745191
 20
9.08913999999999
 10
3.401769573745039
 20
9.470459999999877
 10
3.1220795737451255
 20
9.857149999999946
 10
2.8529195737453676
 20
10.249020000000112
 10
2.5944195737451246
 20
10.64584999999995
 10
2.3467295737450513
 20
11.047459999999909
 10
2.109969573745314
 20
11.453640000000068
 10
1.8842595737450942
 20
11.86417999999994
 10
1.669709573745287
 20
12.278860000000044
 10
1.4664395737452978
 20
12.697490000000046
 10
1.2745495737452188
 20
13.119830000000007
 10
1.0941295737451675
 20
13.545689999999986
 10
0.9252795737451152
 20
13.974839999999967
 10
0.7680795737452186
 20
14.407070000000008
 10
0.6226195737452542
 20
14.842140000000018
 10
0.4889695737451589
 20
15.279849999999987
 10
0.36718957374541006
 20
15.719970000000059
 10
0.25734957374511325
 20
16.16225999999998
 10
0.15950957374538532
 20
16.606520000000042
 10
0.07370957374523712
 20
17.05251000000001
 10
0.0
 20
17.499997412227003
 10
5.812029574135206
 20
17.499997412227003
 10
5.812029574135206
 20
23.499997412227003
  0
ENDSEC
  0
SECTION
  2
OBJECTS
  0
DICTIONARY
  5
A
330
0
100
AcDbDictionary
281
1
  3
ACAD_COLOR
350
B
  3
ACAD_GROUP
350
C
  3
ACAD_LAYOUT
350
D
  3
ACAD_MATERIAL
350
E
  3
ACAD_MLEADERSTYLE
350
F
  3
ACAD_MLINESTYLE
350
10
  3
ACAD_PLOTSETTINGS
350
11
  3
ACAD_PLOTSTYLENAME
350
12
  3
ACAD_SCALELIST
350
14
  3
ACAD_TABLESTYLE
350
15
  3
ACAD_VISUALSTYLE
350
16
  3
EZDXF_META
350
2D
  0
DICTIONARY
  5
B
330
A
100
AcDbDictionary
281
1
  0
DICTIONARY
  5
C
330
A
100
AcDbDictionary
281
1
  0
DICTIONARY
  5
D
330
A
100
AcDbDictionary
281
1
  3
Model
350
1A
  3
Layout1
350
1E
  0
DICTIONARY
  5
E
330
A
100
AcDbDictionary
281
1
  3
ByBlock
350
1F
  3
ByLayer
350
20
  3
Global
350
21
  0
DICTIONARY
  5
F
330
A
100
AcDbDictionary
281
1
  3
Standard
350
2C
  0
DICTIONARY
  5
10
330
A
100
AcDbDictionary
281
1
  3
Standard
350
22
  0
DICTIONARY
  5
11
330
A
100
AcDbDictionary
281
1
  0
ACDBDICTIONARYWDFLT
  5
12
330
A
100
AcDbDictionary
281
1
  3
Normal
350
13
100
AcDbDictionaryWithDefault
340
13
  0
ACDBPLACEHOLDER
  5
13
330
12
  0
DICTIONARY
  5
14
330
A
100
AcDbDictionary
281
1
  0
DICTIONARY
  5
15
330
A
100
AcDbDictionary
281
1
  0
DICTIONARY
  5
16
330
A
100
AcDbDictionary
281
1
  0
LAYOUT
  5
1A
330
D
100
AcDbPlotSettings
  1

  4
A3
  6

 40
7.5
 41
20.0
 42
7.5
 43
20.0
 44
420.0
 45
297.0
 46
0.0
 47
0.0
 48
0.0
 49
0.0
140
0.0
141
0.0
142
1.0
143
1.0
 70
1024
 72
1
 73
0
 74
5
  7

 75
16
 76
0
 77
2
 78
300
147
1.0
148
0.0
149
0.0
100
AcDbLayout
  1
Model
 70
1
 71
0
 10
0.0
 20
0.0
 11
420.0
 21
297.0
 12
0.0
 22
0.0
 32
0.0
 14
1e+20
 24
1e+20
 34
1e+20
 15
-1e+20
 25
-1e+20
 35
-1e+20
146
0.0
 13
0.0
 23
0.0
 33
0.0
 16
1.0
 26
0.0
 36
0.0
 17
0.0
 27
1.0
 37
0.0
 76
1
330
17
  0
LAYOUT
  5
1E
330
D
100
AcDbPlotSettings
  1

  4
A3
  6

 40
7.5
 41
20.0
 42
7.5
 43
20.0
 44
420.0
 45
297.0
 46
0.0
 47
0.0
 48
0.0
 49
0.0
140
0.0
141
0.0
142
1.0
143
1.0
 70
0
 72
1
 73
0
 74
5
  7

 75
16
 76
0
 77
2
 78
300
147
1.0
148
0.0
149
0.0
100
AcDbLayout
  1
Layout1
 70
1
 71
1
 10
0.0
 20
0.0
 11
420.0
 21
297.0
 12
0.0
 22
0.0
 32
0.0
 14
1e+20
 24
1e+20
 34
1e+20
 15
-1e+20
 25
-1e+20
 35
-1e+20
146
0.0
 13
0.0
 23
0.0
 33
0.0
 16
1.0
 26
0.0
 36
0.0
 17
0.0
 27
1.0
 37
0.0
 76
1
330
1B
  0
MATERIAL
  5
1F
102
{ACAD_REACTORS
330
E
102
}
330
E
100
AcDbMaterial
  1
ByBlock
  2

 70
0
 40
1.0
 71
1
 41
1.0
 91
-1023410177
 42
1.0
 72
1
  3

 73
1
 74
1
 75
1
 44
0.5
 73
0
 45
1.0
 46
1.0
 77
1
  4

 78
1
 79
1
170
1
 48
1.0
171
1
  6

172
1
173
1
174
1
140
1.0
141
1.0
175
1
  7

176
1
177
1
178
1
143
1.0
179
1
  8

270
1
271
1
272
1
145
1.0
146
1.0
273
1
  9

274
1
275
1
276
1
 42
1.0
 72
1
  3

 73
1
 74
1
 75
1
 94
63
  0
MATERIAL
  5
20
102
{ACAD_REACTORS
330
E
102
}
330
E
100
AcDbMaterial
  1
ByLayer
  2

 70
0
 40
1.0
 71
1
 41
1.0
 91
-1023410177
 42
1.0
 72
1
  3

 73
1
 74
1
 75
1
 44
0.5
 73
0
 45
1.0
 46
1.0
 77
1
  4

 78
1
 79
1
170
1
 48
1.0
171
1
  6

172
1
173
1
174
1
140
1.0
141
1.0
175
1
  7

176
1
177
1
178
1
143
1.0
179
1
  8

270
1
271
1
272
1
145
1.0
146
1.0
273
1
  9

274
1
275
1
276
1
 42
1.0
 72
1
  3

 73
1
 74
1
 75
1
 94
63
  0
MATERIAL
  5
21
102
{ACAD_REACTORS
330
E
102
}
330
E
100
AcDbMaterial
  1
Global
  2

 70
0
 40
1.0
 71
1
 41
1.0
 91
-1023410177
 42
1.0
 72
1
  3

 73
1
 74
1
 75
1
 44
0.5
 73
0
 45
1.0
 46
1.0
 77
1
  4

 78
1
 79
1
170
1
 48
1.0
171
1
  6

172
1
173
1
174
1
140
1.0
141
1.0
175
1
  7

176
1
177
1
178
1
143
1.0
179
1
  8

270
1
271
1
272
1
145
1.0
146
1.0
273
1
  9

274
1
275
1
276
1
 42
1.0
 72
1
  3

 73
1
 74
1
 75
1
 94
63
  0
MLINESTYLE
  5
22
102
{ACAD_REACTORS
330
10
102
}
330
10
100
AcDbMlineStyle
  2
Standard
 70
0
  3

 62
256
 51
90.0
 52
90.0
 71
2
 49
0.5
 62
256
  6
BYLAYER
 49
-0.5
 62
256
  6
BYLAYER
  0
MLEADERSTYLE
  5
2C
102
{ACAD_REACTORS
330
F
102
}
330
F
100
AcDbMLeaderStyle
179
2
170
2
171
1
172
0
 90
2
 40
0.0
 41
0.0
173
1
 91
-1056964608
 92
-2
290
1
 42
2.0
291
1
 43
8.0
  3
Standard
 44
4.0
300

342
29
174
1
175
1
176
0
178
1
 93
-1056964608
 45
4.0
292
0
297
0
 46
4.0
 94
-1056964608
 47
1.0
 49
1.0
140
1.0
294
1
141
0.0
177
0
142
1.0
295
0
296
0
143
3.75
271
0
272
9
273
9
  0
DICTIONARY
  5
2D
330
A
100
AcDbDictionary
280
1
281
1
  3
CREATED_BY_EZDXF
350
2E
  3
WRITTEN_BY_EZDXF
350
33
  0
DICTIONARYVAR
  5
2E
330
2D
100
DictionaryVariables
280
0
  1
1.4.4 @ 2026-10-01T14:10:35.862395+00:00
  0
DICTIONARYVAR
  5
33
330
2D
100
DictionaryVariables
280
0
  1
1.4.4 @ 2026-10-01T14:10:35.864140+00:00
  0
ENDSEC
  0
EOF
