  0
SECTION
  2
HEADER
  9
$ACADVER
  1
AC1027
  9
$ACADMAINTVER
 70
105
  9
$DWGCODEPAGE
  3
ANSI_1252
  9
$LASTSAVEDBY
  1
ezdxf
  9
$REQUIREDVERSIONS
160
0
  9
$INSBASE
 10
0.0
 20
0.0
 30
0.0
  9
$EXTMIN
 10
1e+20
 20
1e+20
 30
1e+20
  9
$EXTMAX
 10
-1e+20
 20
-1e+20
 30
-1e+20
  9
$LIMMIN
 10
0.0
 20
0.0
  9
$LIMMAX
 10
420.0
 20
297.0
  9
$ORTHOMODE
 70
0
  9
$REGENMODE
 70
1
  9
$FILLMODE
 70
1
  9
$QTEXTMODE
 70
0
  9
$MIRRTEXT
 70
1
  9
$LTSCALE
 40
1.0
  9
$ATTMODE
 70
1
  9
$TEXTSIZE
 40
2.5
  9
$TRACEWID
 40
1.0
  9
$TEXTSTYLE
  7
Standard
  9
$CLAYER
  8
0
  9
$CELTYPE
  6
ByLayer
  9
$CECOLOR
 62
256
  9
$CELTSCALE
 40
1.0
  9
$DISPSILH
 70
0
  9
$DIMSCALE
 40
1.0
  9
$DIMASZ
 40
2.5
  9
$DIMEXO
 40
0.625
  9
$DIMDLI
 40
3.75
  9
$DIMRND
 40
0.0
  9
$DIMDLE
 40
0.0
  9
$DIMEXE
 40
1.25
  9
$DIMTP
 40
0.0
  9
$DIMTM
 40
0.0
  9
$DIMTXT
 40
2.5
  9
$DIMCEN
 40
2.5
  9
$DIMTSZ
 40
0.0
  9
$DIMTOL
 70
0
  9
$DIMLIM
 70
0
  9
$DIMTIH
 70
0
  9
$DIMTOH
 70
0
  9
$DIMSE1
 70
0
  9
$DIMSE2
 70
0
  9
$DIMTAD
 70
1
  9
$DIMZIN
 70
8
  9
$DIMBLK
  1

  9
$DIMASO
 70
1
  9
$DIMSHO
 70
1
  9
$DIMPOST
  1

  9
$DIMAPOST
  1

  9
$DIMALT
 70
0
  9
$DIMALTD
 70
3
  9
$DIMALTF
 40
0.03937007874
  9
$DIMLFAC
 40
1.0
  9
$DIMTOFL
 70
1
  9
$DIMTVP
 40
0.0
  9
$DIMTIX
 70
0
  9
$DIMSOXD
 70
0
  9
$DIMSAH
 70
0
  9
$DIMBLK1
  1

  9
$DIMBLK2
  1

  9
$DIMSTYLE
  2
ISO-25
  9
$DIMCLRD
 70
0
  9
$DIMCLRE
 70
0
  9
$DIMCLRT
 70
0
  9
$DIMTFAC
 40
1.0
  9
$DIMGAP
 40
0.625
  9
$DIMJUST
 70
0
  9
$DIMSD1
 70
0
  9
$DIMSD2
 70
0
  9
$DIMTOLJ
 70
0
  9
$DIMTZIN
 70
8
  9
$DIMALTZ
 70
0
  9
$DIMALTTZ
 70
0
  9
$DIMUPT
 70
0
  9
$DIMDEC
 70
2
  9
$DIMTDEC
 70
2
  9
$DIMALTU
 70
2
  9
$DIMALTTD
 70
3
  9
$DIMTXSTY
  7
Standard
  9
$DIMAUNIT
 70
0
  9
$DIMADEC
 70
0
  9
$DIMALTRND
 40
0.0
  9
$DIMAZIN
 70
0
  9
$DIMDSEP
 70
44
  9
$DIMATFIT
 70
3
  9
$DIMFRAC
 70
0
  9
$DIMLDRBLK
  1

  9
$DIMLUNIT
 70
2
  9
$DIMLWD
 70
-2
  9
$DIMLWE
 70
-2
  9
$DIMTMOVE
 70
0
  9
$DIMFXL
 40
1.0
  9
$DIMFXLON
 70
0
  9
$DIMJOGANG
 40
0.785398163397
  9
$DIMTFILL
 70
0
  9
$DIMTFILLCLR
 70
0
  9
$DIMARCSYM
 70
0
  9
$DIMLTYPE
  6

  9
$DIMLTEX1
  6

  9
$DIMLTEX2
  6

  9
$DIMTXTDIRECTION
 70
0
  9
$LUNITS
 70
2
  9
$LUPREC
 70
4
  9
$SKETCHINC
 40
1.0
  9
$FILLETRAD
 40
10.0
  9
$AUNITS
 70
0
  9
$AUPREC
 70
2
  9
$MENU
  1
.
  9
$ELEVATION
 40
0.0
  9
$PELEVATION
 40
0.0
  9
$THICKNESS
 40
0.0
  9
$LIMCHECK
 70
0
  9
$CHAMFERA
 40
0.0
  9
$CHAMFERB
 40
0.0
  9
$CHAMFERC
 40
0.0
  9
$CHAMFERD
 40
0.0
  9
$SKPOLY
 70
0
  9
$TDCREATE
 40
2461308.0635185186
  9
$TDUCREATE
 40
2458532.153996898
  9
$TDUPDATE
 40
2461308.0635185186
  9
$TDUUPDATE
 40
2458532.1544311
  9
$TDINDWG
 40
0.0
  9
$TDUSRTIMER
 40
0.0
  9
$USRTIMER
 70
1
  9
$ANGBASE
 50
0.0
  9
$ANGDIR
 70
0
  9
$PDMODE
 70
0
  9
$PDSIZE
 40
0.0
  9
$PLINEWID
 40
0.0
  9
$SPLFRAME
 70
0
  9
$SPLINETYPE
 70
6
  9
$SPLINESEGS
 70
8
  9
$HANDSEED
  5
37
  9
$SURFTAB1
 70
6
  9
$SURFTAB2
 70
6
  9
$SURFTYPE
 70
6
  9
$SURFU
 70
6
  9
$SURFV
 70
6
  9
$UCSBASE
  2

  9
$UCSNAME
  2

  9
$UCSORG
 10
0.0
 20
0.0
 30
0.0
  9
$UCSXDIR
 10
1.0
 20
0.0
 30
0.0
  9
$UCSYDIR
 10
0.0
 20
1.0
 30
0.0
  9
$UCSORTHOREF
  2

  9
$UCSORTHOVIEW
 70
0
  9
$UCSORGTOP
 10
0.0
 20
0.0
 30
0.0
  9
$UCSORGBOTTOM
 10
0.0
 20
0.0
 30
0.0
  9
$UCSORGLEFT
 10
0.0
 20
0.0
 30
0.0
  9
$UCSORGRIGHT
 10
0.0
 20
0.0
 30
0.0
  9
$UCSORGFRONT
 10
0.0
 20
0.0
 30
0.0
  9
$UCSORGBACK
 10
0.0
 20
0.0
 30
0.0
  9
$PUCSBASE
  2

  9
$PUCSNAME
  2

  9
$PUCSORG
 10
0.0
 20
0.0
 30
0.0
  9
$PUCSXDIR
 10
1.0
 20
0.0
 30
0.0
  9
$PUCSYDIR
 10
0.0
 20
1.0
 30
0.0
  9
$PUCSORTHOREF
  2

  9
$PUCSORTHOVIEW
 70
0
  9
$PUCSORGTOP
 10
0.0
 20
0.0
 30
0.0
  9
$PUCSORGBOTTOM
 10
0.0
 20
0.0
 30
0.0
  9
$PUCSORGLEFT
 10
0.0
 20
0.0
 30
0.0
  9
$PUCSORGRIGHT
 10
0.0
 20
0.0
 30
0.0
  9
$PUCSORGFRONT
 10
0.0
 20
0.0
 30
0.0
  9
$PUCSORGBACK
 10
0.0
 20
0.0
 30
0.0
  9
$USERI1
 70
0
  9
$USERI2
 70
0
  9
$USERI3
 70
0
  9
$USERI4
 70
0
  9
$USERI5
 70
0
  9
$USERR1
 40
0.0
  9
$USERR2
 40
0.0
  9
$USERR3
 40
0.0
  9
$USERR4
 40
0.0
  9
$USERR5
 40
0.0
  9
$WORLDVIEW
 70
1
  9
$SHADEDGE
 70
3
  9
$SHADEDIF
 70
70
  9
$TILEMODE
 70
1
  9
$MAXACTVP
 70
64
  9
$PINSBASE
 10
0.0
 20
0.0
 30
0.0
  9
$PLIMCHECK
 70
0
  9
$PEXTMIN
 10
1e+20
 20
1e+20
 30
1e+20
  9
$PEXTMAX
 10
-1e+20
 20
-1e+20
 30
-1e+20
  9
$PLIMMIN
 10
0.0
 20
0.0
  9
$PLIMMAX
 10
420.0
 20
297.0
  9
$UNITMODE
 70
0
  9
$VISRETAIN
 70
1
  9
$PLINEGEN
 70
0
  9
$PSLTSCALE
 70
1
  9
$TREEDEPTH
 70
3020
  9
$CMLSTYLE
  2
Standard
  9
$CMLJUST
 70
0
  9
$CMLSCALE
 40
20.0
  9
$PROXYGRAPHICS
 70
1
  9
$MEASUREMENT
 70
1
  9
$CELWEIGHT
370
-1
  9
$ENDCAPS
280
0
  9
$JOINSTYLE
280
0
  9
$LWDISPLAY
290
0
  9
$INSUNITS
 70
4
  9
$HYPERLINKBASE
  1

  9
$STYLESHEET
  1

  9
$XEDIT
290
1
  9
$CEPSNTYPE
380
0
  9
$PSTYLEMODE
290
1
  9
$FINGERPRINTGUID
  2
{9FC1C4F3-1171-47E5-B867-5530E0FD5F11}
  9
$VERSIONGUID
  2
{82E98BDD-5D85-486F-9608-45A98903197C}
  9
$EXTNAMES
290
1
  9
$PSVPSCALE
 40
0.0
  9
$OLESTARTUP
290
0
  9
$SORTENTS
280
127
  9
$INDEXCTL
280
0
  9
$HIDETEXT
280
1
  9
$XCLIPFRAME
280
1
  9
$HALOGAP
280
0
  9
$OBSCOLOR
 70
257
  9
$OBSLTYPE
280
0
  9
$INTERSECTIONDISPLAY
280
0
  9
$INTERSECTIONCOLOR
 70
257
  9
$DIMASSOC
280
2
  9
$PROJECTNAME
  1

  9
$CAMERADISPLAY
290
0
  9
$LENSLENGTH
 40
50.0
  9
$CAMERAHEIGHT
 40
0.0
  9
$STEPSPERSEC
 40
24.0
  9
$STEPSIZE
 40
100.0
  9
$3DDWFPREC
 40
2.0
  9
$PSOLWIDTH
 40
0.005
  9
$PSOLHEIGHT
 40
0.08
  9
$LOFTANG1
 40
1.570796326795
  9
$LOFTANG2
 40
1.570796326795
  9
$LOFTMAG1
 40
0.0
  9
$LOFTMAG2
 40
0.0
  9
$LOFTPARAM
 70
7
  9
$LOFTNORMALS
280
1
  9
$LATITUDE
 40
37.795
  9
$LONGITUDE
 40
-122.394
  9
$NORTHDIRECTION
 40
0.0
  9
$TIMEZONE
 70
-8000
  9
$LIGHTGLYPHDISPLAY
280
1
  9
$TILEMODELIGHTSYNCH
280
1
  9
$CMATERIAL
347
20
  9
$SOLIDHIST
280
0
  9
$SHOWHIST
280
1
  9
$DWFFRAME
280
2
  9
$DGNFRAME
280
2
  9
$REALWORLDSCALE
290
1
  9
$INTERFERECOLOR
 62
256
  9
$CSHADOW
280
0
  9
$SHADOWPLANELOCATION
 40
0.0
  0
ENDSEC
  0
SECTION
  2
CLASSES
  0
CLASS
  1
ACDBDICTIONARYWDFLT
  2
AcDbDictionaryWithDefault
  3
ObjectDBX Classes
 90
0
 91
0
280
0
281
0
  0
CLASS
  1
SUN
  2
AcDbSun
  3
SCENEOE
 90
1153
 91
0
280
0
281
0
  0
CLASS
  1
VISUALSTYLE
  2
AcDbVisualStyle
  3
ObjectDBX Classes
 90
4095
 91
0
280
0
281
0
  0
CLASS
  1
MATERIAL
  2
AcDbMaterial
  3
ObjectDBX Classes
 90
1153
 91
0
280
0
281
0
  0
CLASS
  1
SCALE
  2
AcDbScale
  3
ObjectDBX Classes
 90
1153
 91
0
280
0
281
0
  0
CLASS
  1
TABLESTYLE
  2
AcDbTableStyle
  3
ObjectDBX Classes
 90
4095
 91
0
280
0
281
0
  0
CLASS
  1
MLEADERSTYLE
  2
AcDbMLeaderStyle
  3
ACDB_MLEADERSTYLE_CLASS
 90
4095
 91
0
280
0
281
0
  0
CLASS
  1
DICTIONARYVAR
  2
AcDbDictionaryVar
  3
ObjectDBX Classes
 90
0
 91
0
280
0
281
0
  0
CLASS
  1
CELLSTYLEMAP
  2
AcDbCellStyleMap
  3
ObjectDBX Classes
 90
1152
 91
0
280
0
281
0
  0
CLASS
  1
MENTALRAYRENDERSETTINGS
  2
AcDbMentalRayRenderSettings
  3
SCENEOE
 90
1024
 91
0
280
0
281
0
  0
CLASS
  1
ACDBDETAILVIEWSTYLE
  2
AcDbDetailViewStyle
  3
ObjectDBX Classes
 90
1025
 91
0
280
0
281
0
  0
CLASS
  1
ACDBSECTIONVIEWSTYLE
  2
AcDbSectionViewStyle
  3
ObjectDBX Classes
 90
1025
 91
0
280
0
281
0
  0
CLASS
  1
RASTERVARIABLES
  2
AcDbRasterVariables
  3
ISM
 90
0
 91
0
280
0
281
0
  0
CLASS
  1
ACDBPLACEHOLDER
  2
AcDbPlaceHolder
  3
ObjectDBX Classes
 90
0
 91
0
280
0
281
0
  0
CLASS
  1
LAYOUT
  2
AcDbLayout
  3
ObjectDBX Classes
 90
0
 91
0
280
0
281
0
  0
ENDSEC
  0
SECTION
  2
TABLES
  0
TABLE
  2
VPORT
  5
8
330
0
100
AcDbSymbolTable
 70
1
  0
VPORT
  5
23
330
8
100
AcDbSymbolTableRecord
100
AcDbViewportTableRecord
  2
*Active
 70
0
 10
0.0
 20
0.0
 11
1.0
 21
1.0
 12
0.0
 22
0.0
 13
0.0
 23
0.0
 14
0.5
 24
0.5
 15
0.5
 25
0.5
 16
0.0
 26
0.0
 36
1.0
 17
0.0
 27
0.0
 37
0.0
 40
1000.0
 41
1.34
 42
50.0
 43
0.0
 44
0.0
 50
0.0
 51
0.0
 71
0
 72
1000
 73
1
 74
3
 75
0
 76
0
 77
0
 78
0
281
0
 65
0
146
0.0
  0
ENDTAB
  0
TABLE
  2
LTYPE
  5
2
330
0
100
AcDbSymbolTable
 70
3
  0
LTYPE
  5
24
330
2
100
AcDbSymbolTableRecord
100
AcDbLinetypeTableRecord
  2
ByBlock
 70
0
  3

 72
65
 73
0
 40
0.0
  0
LTYPE
  5
25
330
2
100
AcDbSymbolTableRecord
100
AcDbLinetypeTableRecord
  2
ByLayer
 70
0
  3

 72
65
 73
0
 40
0.0
  0
LTYPE
  5
26
330
2
100
AcDbSymbolTableRecord
100
AcDbLinetypeTableRecord
  2
Continuous
 70
0
  3

 72
65
 73
0
 40
0.0
  0
ENDTAB
  0
TABLE
  2
LAYER
  5
1
330
0
100
AcDbSymbolTable
 70
2
  0
LAYER
  5
27
330
1
100
AcDbSymbolTableRecord
100
AcDbLayerTableRecord
  2
0
 70
0
 62
7
  6
Continuous
370
-3
390
13
347
21
  0
LAYER
  5
28
330
1
100
AcDbSymbolTableRecord
100
AcDbLayerTableRecord
  2
Defpoints
 70
0
 62
7
  6
Continuous
290
0
370
-3
390
13
347
21
  0
ENDTAB
  0
TABLE
  2
STYLE
  5
5
330
0
100
AcDbSymbolTable
 70
1
  0
STYLE
  5
29
330
5
100
AcDbSymbolTableRecord
100
AcDbTextStyleTableRecord
  2
Standard
 70
0
 40
0.0
 41
1.0
 50
0.0
 71
0
 42
2.5
  3
txt
  4

  0
ENDTAB
  0
TABLE
  2
VIEW
  5
7
330
0
100
AcDbSymbolTable
 70
0
  0
ENDTAB
  0
TABLE
  2
UCS
  5
6
330
0
100
AcDbSymbolTable
 70
0
  0
ENDTAB
  0
TABLE
  2
APPID
  5
3
330
0
100
AcDbSymbolTable
 70
3
  0
APPID
  5
2A
330
3
100
AcDbSymbolTableRecord
100
AcDbRegAppTableRecord
  2
ACAD
 70
0
  0
APPID
  5
34
330
3
100
AcDbSymbolTableRecord
100
AcDbRegAppTableRecord
  2
HATCHBACKGROUNDCOLOR
 70
0
  0
APPID
  5
35
330
3
100
AcDbSymbolTableRecord
100
AcDbRegAppTableRecord
  2
EZDXF
 70
0
  0
ENDTAB
  0
TABLE
  2
DIMSTYLE
  5
4
330
0
100
AcDbSymbolTable
 70
1
100
AcDbDimStyleTable
  0
DIMSTYLE
105
2B
330
4
100
AcDbSymbolTableRecord
100
AcDbDimStyleTableRecord
  2
Standard
 70
0
 40
1.0
 41
2.5
 42
0.625
 43
3.75
 44
1.25
 45
0.0
 46
0.0
 47
0.0
 48
0.0
 49
2.5
140
2.5
141
2.5
142
0.0
143
0.03937007874
144
1.0
145
0.0
146
1.0
147
0.625
148
0.0
 69
0
 70
0
 71
0
 72
0
 73
0
 74
0
 75
0
 76
0
 77
1
 78
8
 79
3
170
0
171
3
172
1
173
0
174
0
175
0
176
0
177
0
178
0
179
2
271
2
272
2
273
2
274
3
275
0
276
0
277
2
278
44
279
0
280
0
281
0
282
0
283
0
284
8
285
0
286
0
288
0
289
3
290
0
371
-2
372
-2
  0
ENDTAB
  0
TABLE
  2
BLOCK_RECORD
  5
9
330
0
100
AcDbSymbolTable
 70
2
  0
BLOCK_RECORD
  5
17
330
9
100
AcDbSymbolTableRecord
100
AcDbBlockTableRecord
  2
*Model_Space
340
1A
 70
0
280
1
281
0
  0
BLOCK_RECORD
  5
1B
330
9
100
AcDbSymbolTableRecord
100
AcDbBlockTableRecord
  2
*Paper_Space
340
1E
 70
0
280
1
281
0
  0
ENDTAB
  0
ENDSEC
  0
SECTION
  2
BLOCKS
  0
BLOCK
  5
18
330
17
100
AcDbEntity
  8
0
100
AcDbBlockBegin
  2
*Model_Space
 70
0
 10
0.0
 20
0.0
 30
0.0
  3
*Model_Space
  1

  0
ENDBLK
  5
19
330
17
100
AcDbEntity
  8
0
100
AcDbBlockEnd
  0
BLOCK
  5
1C
330
1B
100
AcDbEntity
  8
0
100
AcDbBlockBegin
  2
*Paper_Space
 70
0
 10
0.0
 20
0.0
 30
0.0
  3
*Paper_Space
  1

  0
ENDBLK
  5
1D
330
1B
100
AcDbEntity
  8
0
100
AcDbBlockEnd
  0
ENDSEC
  0
SECTION
  2
ENTITIES
  0
LWPOLYLINE
  5
2F
330
17
100
AcDbEntity
  8
0
100
AcDbPolyline
 90
321
 70
1
 10
27.544779451296737
 20
39.750564909324325
 10
27.009448751372037
 20
39.816638859816806
 10
26.772765053951602
 20
39.84130675571938
 10
26.772765053950515
 20
25.19614983321269
 10
26.767465090384807
 20
25.196149833215262
 10
27.118897052884655
 20
24.980298670760952
 10
27.51370386211608
 20
24.690986307038642
 10
27.883615340770742
 20
24.37045618618008
 10
28.226169788989296
 20
24.02084138325582
 10
28.539087563436354
 20
23.64446852709695
 10
28.820286247950765
 20
23.243842316964052
 10
29.067894511681605
 20
22.821628854186883
 10
29.280264562486234
 20
22.380637899699924
 10
29.45598311271514
 20
21.92380417554688
 10
29.593880784408064
 20
21.454167834789743
 10
29.693039891311408
 20
20.974854229791703
 10
29.752800545928835
 20
20.489053113512846
 10
29.772765050963677
 20
19.999997412230467
 10
29.75280054592884
 20
19.510941710948114
 10
29.693039891311415
 20
19.025140594669256
 10
29.59388078440807
 20
18.545826989671216
 10
29.455983112715145
 20
18.076190648914075
 10
29.28026456248624
 20
17.619356924761032
 10
29.067894511681615
 20
17.178365970274065
 10
28.82028624795078
 20
16.7561525074969
 10
28.539087563436365
 20
16.355526297364
 10
28.226169788989314
 20
15.979153441205126
 10
27.88361534077076
 20
15.629538638280867
 10
27.513703862116095
 20
15.309008517422301
 10
27.11889705288467
 20
15.019696153699995
 10
26.701822287253382
 20
14.76352687316134
 10
26.265255128975014
 20
14.542205440103364
 10
25.812100860459395
 20
14.357204712147604
 10
25.345375148598304
 20
14.209755838615632
 10
24.868183975999866
 20
14.100840067433452
 10
24.383702971186707
 20
14.031182215088444
 10
23.895156275312125
 20
14.001245843095228
 10
23.405795086032636
 20
14.011230173070265
 10
22.91887602132398
 20
14.061068760944869
 10
22.437639447225802
 20
14.150429939139523
 10
21.965287913740287
 20
14.278719023756896
 10
21.50496484239025
 20
14.445082272105074
 10
21.059733607267574
 20
14.648412564214297
 10
20.632557148784016
 20
14.887356770537721
 10
20.22627825579163
 20
15.160324756805279
 10
19.843600647291975
 20
15.465499966104908
 10
19.487070979632268
 20
15.800851507769087
 10
19.159061898927515
 20
16.164147672617148
 10
18.861756251492125
 20
16.552970784611677
 10
18.5971325573578
 20
16.964733290093648
 10
18.366951843549167
 20
17.396694977525108
 10
18.17274592473948
 20
17.845981213144864
 10
18.015807209276694
 20
18.309602071181878
 10
17.897180098419152
 20
18.78447223131797
 10
17.81765403601751
 20
19.267431510985496
 10
17.777758254896177
 20
19.75526589586094
 10
17.777758254896177
 20
20.244728928599972
 10
17.817654036017508
 20
20.732563313475417
 10
17.89718009841915
 20
21.215522593142943
 10
18.01580720927669
 20
21.69039275327904
 10
18.172745924739473
 20
22.154013611316053
 10
18.366951843549156
 20
22.60329984693581
 10
18.59713255735779
 20
23.03526153436727
 10
18.86175625149211
 20
23.447024039849243
 10
19.159061898927497
 20
23.83584715184377
 10
19.487070979632254
 20
24.19914331669183
 10
19.84360064729196
 20
24.534494858356013
 10
20.226278255791616
 20
24.839670067655646
 10
20.632557148784002
 20
25.112638053923206
 10
20.781856719214222
 20
25.196149836120938
 10
20.77276505302179
 20
25.19614983612535
 10
20.77276505336666
 20
39.8413817359738
 10
20.53536283203773
 20
39.81663885981865
 10
20.000034527844736
 20
39.75056490932831
 10
19.46663062045888
 20
39.674416576687214
 10
18.93542318888892
 20
39.5882327036814
 10
18.406683191759527
 20
39.49205725104881
 10
17.88068032911309
 20
39.38593927601155
 10
17.357682904820063
 20
39.26993290731034
 10
16.837957689752244
 20
39.14409731753174
 10
16.32176978567135
 20
39.00849669298876
 10
15.809382490040553
 20
38.863200200927935
 10
15.301057161700177
 20
38.70828195427899
 10
14.797053087558771
 20
38.54382097383712
 10
14.297627350341326
 20
38.36990114796019
 10
13.803034697439585
 20
38.18661118979752
 10
13.313527411008504
 20
37.994044592010056
 10
12.829355179220686
 20
37.79229957907491
 10
12.350764968959407
 20
37.58147905722774
 10
11.878000899840687
 20
37.36169056193506
 10
11.411304119660157
 20
37.13304620305616
 10
10.950912681402292
 20
36.89566260764224
 10
10.497061421839271
 20
36.64966086048775
 10
10.049981841696995
 20
36.3951664423115
 10
9.60990198762971
 20
36.13230916578693
 10
9.177046335850083
 20
35.86122310932634
 10
8.751635677642671
 20
35.58204654867258
 10
8.333887006748231
 20
35.294921886398924
 10
7.924013408679233
 20
34.99999557922749
 10
7.52222395202277
 20
34.69741806335295
 10
7.128723581809307
 20
34.38734367772731
 10
6.743713014948646
 20
34.06993058527803
 10
6.367388637882289
 20
33.74534069227393
 10
5.9999424063951565
 20
33.4137395657616
 10
5.641561747690687
 20
33.07529634902578
 10
5.292429464808855
 20
32.73018367541758
 10
4.952723643377244
 20
32.37857758021978
 10
4.6226175607382345
 20
32.020657410908015
 10
4.302279597628715
 20
31.656605735627547
 10
3.991873152243709
 20
31.286608250083503
 10
3.6915565568958186
 20
30.91085368284965
 10
3.4014829972730247
 20
30.529533699034282
 10
3.1218004342766363
 20
30.142842802598775
 10
2.8526515285685186
 20
29.75097823706743
 10
2.5941735677984212
 20
29.354139884977442
 10
2.346498396576699
 20
28.952530165882564
 10
2.1097523491963948
 20
28.546353933138448
 10
1.8840561852501132
 20
28.13581836937641
 10
1.6695250279703338
 20
27.721132880826303
 10
1.4662683055622914
 20
27.302508990553424
 10
1.2743896953272724
 20
26.88016023048162
 10
1.0939870708428607
 20
26.45430203253634
 10
0.925152451990165
 20
26.02515161875141
 10
0.7679719580390625
 20
25.59292789043878
 10
0.622525763720251
 20
25.15785131655639
 10
0.4888880583149273
 20
24.72014382124487
 10
0.3671270078437807
 20
24.280028670618528
 10
0.2573047202507439
 20
23.837730358903304
 10
0.15947721375968626
 20
23.39347449390153
 10
0.07369438828325414
 20
22.94748768193258
 10
-2.474997263701022e-75
 20
22.49999741222915
 10
5.812115707940183
 20
22.49999741222947
 10
5.812115708330001
 20
17.499997412230563
 10
9.064584563134304e-05
 20
17.499997412228836
 10
0.07380125938894011
 20
17.052507142530263
 10
0.15960025559945734
 20
16.606520330560347
 10
0.25744387007331326
 20
16.16226446555929
 10
0.3672821946706968
 20
15.719966153842659
 10
0.4890592029926708
 20
15.279851003219283
 10
0.6227127789367835
 20
14.842143507904392
 10
0.7681747484055101
 20
14.407066934021834
 10
0.925370914073941
 20
13.974843205712016
 10
1.094221093211761
 20
13.54569279192421
 10
1.2746391586033319
 20
13.119834593978435
 10
1.4665330825065759
 20
12.69748583390966
 10
1.6698049835273032
 20
12.27886194362507
 10
1.8843511766127499
 20
11.864176455085978
 10
2.110062225899057
 20
11.453640891317917
 10
2.3468230005503408
 20
11.047464658574679
 10
2.594512733481082
 20
10.64585493948517
 10
2.853005082947387
 20
10.249016587391669
 10
3.1221681970123427
 20
9.85715202186416
 10
3.4018647807767977
 20
9.47046112541703
 10
3.691952166427864
 20
9.089141141604761
 10
3.992282386015326
 20
8.713386574369935
 10
4.30270224689599
 20
8.343389088823935
 10
4.623053409912298
 20
7.979337413548587
 10
4.953172470138192
 20
7.621417244233719
 10
5.292891040228419
 20
7.269811149041866
 10
5.642035836324265
 20
6.92469847543898
 10
6.000428766418011
 20
6.5862552587002625
 10
6.3678870212083645
 20
6.254654132177569
 10
6.744223167359628
 20
5.930064239182016
 10
7.129245243093834
 20
5.612651146736333
 10
7.522756856098784
 20
5.302576761099852
 10
7.92455728371087
 20
4.999999245234672
 10
8.334441575317486
 20
4.705072938056807
 10
8.75220065687069
 20
4.417948275784516
 10
9.177621437559743
 20
4.138771715134055
 10
9.610486918471258
 20
3.8676856586755726
 10
10.05057630330947
 20
3.6048283821475344
 10
10.497665110989722
 20
3.3503339639679517
 10
10.951525290169634
 20
3.104332216809759
 10
11.411925335560277
 20
2.8669486214030293
 10
11.878630406010588
 20
2.6383042625237323
 10
12.351402444298811
 20
2.4185157672277633
 10
12.830000298550443
 20
2.20769524538553
 10
13.314179845279437
 20
2.005950232450033
 10
13.803694113860994
 20
1.8133836346564465
 10
14.298293412549954
 20
1.6300936764933347
 10
14.797725455814222
 20
1.456173850623145
 10
15.301735493037878
 20
1.2917128701800635
 10
15.810066438456893
 20
1.1367946235280897
 10
16.32245900229708
 20
0.9914981314657751
 10
16.838651823030048
 20
0.8558975069206625
 10
17.358381600689867
 20
0.7300619171458678
 10
17.881383231178063
 20
0.6140555484417831
 10
18.40738994148804
 20
0.5079375734096914
 10
18.936133425778984
 20
0.41176212077434826
 10
19.467343982233956
 20
0.3255782477731515
 10
20.00075065063202
 20
0.24942991513163548
 10
20.53608135055706
 20
0.1833559646400147
 10
21.07306302018194
 20
0.1273900993397703
 10
21.611421755553028
 20
0.08156086633789528
 10
22.150882950298993
 20
0.04589164223734344
 10
22.691171435708
 20
0.020400621219472725
 10
23.232011621083004
 20
0.00510080576087546
 10
23.773127634315188
 20
0.0
 10
24.3142434626
 20
0.005100805760427818
 10
24.855083093229
 20
0.020400621219486933
 10
25.39537065437697
 20
0.04589164223799002
 10
25.934830555816028
 20
0.08156086633815818
 10
26.47318762949503
 20
0.1273900993401611
 10
27.01016726988992
 20
0.18335596464011417
 10
27.54549557408412
 20
0.24942991513160706
 10
28.07889948147005
 20
0.3255782477731657
 10
28.61010691304096
 20
0.4117621207746964
 10
29.138846910168894
 20
0.5079375734099969
 10
29.66484977281713
 20
0.6140555484418755
 10
30.187847197106855
 20
0.7300619171470828
 10
30.70757241217799
 20
0.8558975069215151
 10
31.223760316257053
 20
0.9914981314662867
 10
31.736147611886977
 20
1.1367946235285373
 10
32.24447294022794
 20
1.2917128701806533
 10
32.74847701436992
 20
1.4561738506236992
 10
33.24790275158996
 20
1.6300936764945888
 10
33.74249540448891
 20
1.8133836346576757
 10
34.232002690928134
 20
2.005950232452143
 10
34.71617492271617
 20
2.2076952453850787
 10
35.19476513297083
 20
2.4185157672318383
 10
35.66752920209109
 20
2.638304262523288
 10
36.13422598227481
 20
2.8669486214038216
 10
36.59461742053114
 20
3.1043322168112155
 10
37.048468680098
 20
3.350333963969476
 10
37.495548260234756
 20
3.604828382149879
 10
37.935628114300954
 20
3.8676856586745387
 10
38.368483766083074
 20
4.13877171513635
 10
38.79389442429201
 20
4.417948275785447
 10
39.21164309518614
 20
4.705072938062273
 10
39.62151669325344
 20
4.999999245235212
 10
40.02330614990929
 20
5.302576761103095
 10
40.4168065201272
 20
5.612651146733221
 10
40.80181708698685
 20
5.93006423918464
 10
41.17814146405031
 20
6.254654132181125
 10
41.54558769553758
 20
6.586255258703915
 10
41.90396835423981
 20
6.924698475436653
 10
42.25310063712013
 20
7.26981114904534
 10
42.59280645855894
 20
7.621417244236518
 10
42.92291254119414
 20
7.979337413547341
 10
43.24325050430201
 20
8.343389088828454
 10
43.55365694968907
 20
8.713386574367407
 10
43.8539735450358
 20
9.08914114160862
 10
44.1440471046608
 20
9.47046112542161
 10
44.42372966765718
 20
9.857152021864344
 10
44.692878573363316
 20
10.249016587395257
 10
44.951356534131406
 20
10.645854939486831
 10
45.19903170535939
 20
11.047464658576239
 10
45.43577775273454
 20
11.45364089132072
 10
45.66147391668299
 20
11.864176455086467
 10
45.87600507395957
 20
12.27886194362819
 10
46.07926179637382
 20
12.697485833908548
 10
46.2711404066067
 20
13.119834593983594
 10
46.45154303109326
 20
13.545692791925362
 10
46.62037764994683
 20
13.974843205712528
 10
46.77755814389704
 20
14.407066934025453
 10
46.92300433821575
 20
14.842143507907544
 10
47.0566420436155
 20
15.279851003220605
 10
47.17840309408999
 20
15.719966153844469
 10
47.288225381684214
 20
16.16226446556042
 10
47.386052888175314
 20
16.606520330562407
 10
47.471835713645
 20
17.052507142532466
 10
47.545530101935
 20
17.499997412231128
 10
41.73341439321582
 20
17.499997412230805
 10
41.733414393603
 20
22.499997412229717
 10
47.545439456085646
 20
22.49999741223141
 10
47.4717288425411
 20
22.947487681931484
 10
47.38592984632938
 20
23.39347449390133
 10
47.28808623185969
 20
23.837730358902636
 10
47.1782479072623
 20
24.280028670619274
 10
47.05647089894308
 20
24.720143821243486
 10
46.92281732299652
 20
25.157851316556638
 10
46.77735535352308
 20
25.592927890438496
 10
46.62015918785805
 20
26.025151618751487
 10
46.45130900872294
 20
26.454302032537438
 10
46.27089094332587
 20
26.88016023047986
 10
46.078997019424754
 20
27.302508990552887
 10
45.87572511840881
 20
27.721132880827916
 10
45.66117892531979
 20
28.13581836937525
 10
45.43546787603806
 20
28.54635393313767
 10
45.198707101384386
 20
28.952530165886703
 10
44.95101736845486
 20
29.354139884976384
 10
44.69252501898575
 20
29.75097823706561
 10
44.42336190492085
 20
30.142842802595645
 10
44.14366532115459
 20
30.529533699035397
 10
43.85357793550082
 20
30.910853682846323
 10
43.55324771591836
 20
31.286608250086765
 10
43.24282785503557
 20
31.656605735626087
 10
42.92247669202335
 20
32.020657410910474
 10
42.59235763179278
 20
32.37857758022625
 10
42.25263906170136
 20
32.730183675416825
 10
41.90349426560698
 20
33.075296349025386
 10
41.5451013355157
 20
33.41373956575503
 10
41.177643080724415
 20
33.745340692278106
 10
40.80130693456848
 20
34.06993058527583
 10
40.416284858837614
 20
34.38734367772597
 10
40.022773245838096
 20
34.697418063357915
 10
39.620972818222725
 20
34.9999955792247
 10
39.21108852661867
 20
35.294921886398896
 10
38.79332944506037
 20
35.582046548677035
 10
38.36790866437124
 20
35.86122310932526
 10
37.935043183457864
 20
36.13230916578288
 10
37.49495379862528
 20
36.395166442306966
 10
37.04786499094443
 20
36.649660860487266
 10
36.59400481176198
 20
36.89566260764835
 10
36.13360476636991
 20
37.133046203056296
 10
35.666899695920534
 20
37.36169056193547
 10
35.19412765763753
 20
37.581479057229934
 10
34.71552980337779
 20
37.79229957907356
 10
34.23135025664928
 20
37.99404459200209
 10
33.74183598806941
 20
38.18661118980297
 10
33.247236689378624
 20
38.36990114796539
 10
32.74780464611328
 20
38.54382097383427
 10
32.24379460889033
 20
38.70828195427428
 10
31.73546366347032
 20
38.86320020092406
 10
31.223071099632214
 20
39.00849669299108
 10
30.70687827889804
 20
39.14409731753249
 10
30.187148501240145
 20
39.26993290731161
 10
29.664146870749548
 20
39.38593927601423
 10
29.138140160440873
 20
39.49205725105125
 10
28.609396676149863
 20
39.58823270368561
 10
28.078186119694767
 20
39.67441657668482
  0
LWPOLYLINE
  5
30
330
17
100
AcDbEntity
  8
0
100
AcDbPolyline
 90
40
 70
1
 10
18.655250629698003
 20
26.717511833498463
 10
18.635551974650223
 20
26.967806977562834
 10
18.57694105577025
 20
27.211939024498378
 10
18.480861068399392
 20
27.44389663308174
 10
18.349677820697917
 20
27.657968237166422
 10
18.18662147959648
 20
27.84888268339694
 10
17.99570703336596
 20
28.01193902449838
 10
17.781635429281277
 20
28.14312227219985
 10
17.549677820697916
 20
28.23920225957071
 10
17.305545773762372
 20
28.297813178450685
 10
17.055250629698
 20
28.317511833498465
 10
16.80495548563363
 20
28.297813178450685
 10
16.560823438698087
 20
28.23920225957071
 10
16.328865830114726
 20
28.143122272199854
 10
16.114794226030046
 20
28.01193902449838
 10
15.923879779799526
 20
27.84888268339694
 10
15.760823438698086
 20
27.657968237166422
 10
15.629640190996613
 20
27.44389663308174
 10
15.533560203625756
 20
27.211939024498378
 10
15.474949284745781
 20
26.967806977562834
 10
15.455250629698002
 20
26.717511833498463
 10
15.474949284745781
 20
26.467216689434093
 10
15.533560203625756
 20
26.22308464249855
 10
15.629640190996613
 20
25.991127033915188
 10
15.760823438698086
 20
25.777055429830508
 10
15.923879779799526
 20
25.586140983599986
 10
16.114794226030043
 20
25.423084642498548
 10
16.328865830114726
 20
25.291901394797076
 10
16.560823438698087
 20
25.195821407426216
 10
16.80495548563363
 20
25.13721048854624
 10
17.055250629698
 20
25.11751183349846
 10
17.305545773762372
 20
25.13721048854624
 10
17.549677820697916
 20
25.195821407426216
 10
17.781635429281277
 20
25.291901394797073
 10
17.995707033365957
 20
25.423084642498548
 10
18.18662147959648
 20
25.586140983599986
 10
18.349677820697917
 20
25.777055429830504
 10
18.48086106839939
 20
25.991127033915188
 10
18.57694105577025
 20
26.22308464249855
 10
18.635551974650223
 20
26.467216689434093
  0
LWPOLYLINE
  5
31
330
17
100
AcDbEntity
  8
0
100
AcDbPolyline
 90
40
 70
1
 10
18.655250629698003
 20
13.282482990954467
 10
18.635551974650223
 20
13.532778135018836
 10
18.57694105577025
 20
13.776910181954383
 10
18.480861068399392
 20
14.008867790537742
 10
18.349677820697917
 20
14.222939394622424
 10
18.18662147959648
 20
14.413853840852942
 10
17.99570703336596
 20
14.576910181954382
 10
17.781635429281277
 20
14.708093429655856
 10
17.549677820697916
 20
14.804173417026712
 10
17.305545773762372
 20
14.862784335906687
 10
17.055250629698
 20
14.882482990954466
 10
16.80495548563363
 20
14.862784335906687
 10
16.560823438698087
 20
14.804173417026712
 10
16.328865830114726
 20
14.708093429655856
 10
16.114794226030046
 20
14.576910181954382
 10
15.923879779799526
 20
14.413853840852942
 10
15.760823438698086
 20
14.222939394622424
 10
15.629640190996613
 20
14.008867790537742
 10
15.533560203625756
 20
13.776910181954383
 10
15.474949284745781
 20
13.532778135018836
 10
15.455250629698002
 20
13.282482990954467
 10
15.474949284745781
 20
13.032187846890098
 10
15.533560203625756
 20
12.78805579995455
 10
15.629640190996613
 20
12.556098191371191
 10
15.760823438698086
 20
12.34202658728651
 10
15.923879779799526
 20
12.151112141055991
 10
16.114794226030043
 20
11.988055799954552
 10
16.328865830114726
 20
11.856872552253078
 10
16.560823438698087
 20
11.760792564882221
 10
16.80495548563363
 20
11.702181646002247
 10
17.055250629698
 20
11.682482990954467
 10
17.305545773762372
 20
11.702181646002247
 10
17.549677820697916
 20
11.760792564882221
 10
17.781635429281277
 20
11.856872552253078
 10
17.995707033365957
 20
11.988055799954552
 10
18.18662147959648
 20
12.151112141055991
 10
18.349677820697917
 20
12.34202658728651
 10
18.48086106839939
 20
12.556098191371191
 10
18.57694105577025
 20
12.78805579995455
 10
18.635551974650223
 20
13.032187846890096
  0
LWPOLYLINE
  5
32
330
17
100
AcDbEntity
  8
0
100
AcDbPolyline
 90
40
 70
1
 10
32.090279472242
 20
26.717511833498463
 10
32.07058081719422
 20
26.967806977562834
 10
32.01196989831425
 20
27.211939024498378
 10
31.91588991094339
 20
27.44389663308174
 10
31.784706663241916
 20
27.65796823716642
 10
31.62165032214048
 20
27.84888268339694
 10
31.430735875909956
 20
28.01193902449838
 10
31.216664271825277
 20
28.14312227219985
 10
30.984706663241916
 20
28.23920225957071
 10
30.740574616306372
 20
28.297813178450685
 10
30.490279472242
 20
28.317511833498465
 10
30.23998432817763
 20
28.297813178450685
 10
29.995852281242087
 20
28.23920225957071
 10
29.763894672658726
 20
28.14312227219985
 10
29.549823068574046
 20
28.01193902449838
 10
29.358908622343524
 20
27.84888268339694
 10
29.195852281242086
 20
27.657968237166422
 10
29.064669033540614
 20
27.44389663308174
 10
28.968589046169754
 20
27.211939024498378
 10
28.909978127289783
 20
26.967806977562834
 10
28.890279472242
 20
26.717511833498463
 10
28.90997812728978
 20
26.467216689434093
 10
28.968589046169754
 20
26.22308464249855
 10
29.064669033540614
 20
25.991127033915188
 10
29.195852281242086
 20
25.777055429830508
 10
29.358908622343524
 20
25.586140983599986
 10
29.549823068574042
 20
25.423084642498548
 10
29.763894672658726
 20
25.291901394797076
 10
29.995852281242087
 20
25.195821407426216
 10
30.23998432817763
 20
25.137210488546245
 10
30.490279472242
 20
25.11751183349846
 10
30.740574616306372
 20
25.13721048854624
 10
30.984706663241916
 20
25.195821407426216
 10
31.216664271825277
 20
25.291901394797076
 10
31.430735875909956
 20
25.423084642498548
 10
31.621650322140475
 20
25.586140983599986
 10
31.784706663241916
 20
25.777055429830504
 10
31.91588991094339
 20
25.991127033915188
 10
32.01196989831425
 20
26.22308464249855
 10
32.07058081719422
 20
26.467216689434093
  0
LWPOLYLINE
  5
33
330
17
100
AcDbEntity
  8
0
100
AcDbPolyline
 90
40
 70
1
 10
32.090279472242
 20
13.282482990954467
 10
32.07058081719422
 20
13.532778135018836
 10
32.01196989831425
 20
13.776910181954383
 10
31.915889910943392
 20
14.008867790537742
 10
31.784706663241916
 20
14.222939394622424
 10
31.62165032214048
 20
14.413853840852942
 10
31.43073587590996
 20
14.576910181954382
 10
31.216664271825277
 20
14.708093429655856
 10
30.984706663241916
 20
14.804173417026712
 10
30.740574616306372
 20
14.862784335906687
 10
30.490279472242
 20
14.882482990954466
 10
30.23998432817763
 20
14.862784335906687
 10
29.995852281242087
 20
14.804173417026712
 10
29.763894672658726
 20
14.708093429655856
 10
29.549823068574046
 20
14.576910181954382
 10
29.358908622343524
 20
14.413853840852942
 10
29.195852281242086
 20
14.222939394622424
 10
29.064669033540614
 20
14.008867790537742
 10
28.968589046169754
 20
13.776910181954383
 10
28.90997812728978
 20
13.532778135018836
 10
28.890279472242
 20
13.282482990954467
 10
28.90997812728978
 20
13.032187846890098
 10
28.968589046169754
 20
12.78805579995455
 10
29.06466903354061
 20
12.556098191371191
 10
29.195852281242086
 20
12.34202658728651
 10
29.358908622343524
 20
12.151112141055991
 10
29.549823068574042
 20
11.988055799954552
 10
29.763894672658726
 20
11.856872552253078
 10
29.995852281242087
 20
11.760792564882221
 10
30.23998432817763
 20
11.702181646002247
 10
30.490279472242
 20
11.682482990954467
 10
30.740574616306372
 20
11.702181646002247
 10
30.984706663241916
 20
11.760792564882221
 10
31.216664271825277
 20
11.856872552253078
 10
31.430735875909956
 20
11.988055799954552
 10
31.62165032214048
 20
12.151112141055991
 10
31.784706663241916
 20
12.34202658728651
 10
31.91588991094339
 20
12.556098191371191
 10
32.01196989831425
 20
12.78805579995455
 10
32.07058081719422
 20
13.032187846890096
  0
ENDSEC
  0
SECTION
  2
OBJECTS
  0
DICTIONARY
  5
A
330
0
100
AcDbDictionary
281
1
  3
ACAD_COLOR
350
B
  3
ACAD_GROUP
350
C
  3
ACAD_LAYOUT
350
D
  3
ACAD_MATERIAL
350
E
  3
ACAD_MLEADERSTYLE
350
F
  3
ACAD_MLINESTYLE
350
10
  3
ACAD_PLOTSETTINGS
350
11
  3
ACAD_PLOTSTYLENAME
350
12
  3
ACAD_SCALELIST
350
14
  3
ACAD_TABLESTYLE
350
15
  3
ACAD_VISUALSTYLE
350
16
  3
EZDXF_META
350
2D
  0
DICTIONARY
  5
B
330
A
100
AcDbDictionary
281
1
  0
DICTIONARY
  5
C
330
A
100
AcDbDictionary
281
1
  0
DICTIONARY
  5
D
330
A
100
AcDbDictionary
281
1
  3
Model
350
1A
  3
Layout1
350
1E
  0
DICTIONARY
  5
E
330
A
100
AcDbDictionary
281
1
  3
ByBlock
350
1F
  3
ByLayer
350
20
  3
Global
350
21
  0
DICTIONARY
  5
F
330
A
100
AcDbDictionary
281
1
  3
Standard
350
2C
  0
DICTIONARY
  5
10
330
A
100
AcDbDictionary
281
1
  3
Standard
350
22
  0
DICTIONARY
  5
11
330
A
100
AcDbDictionary
281
1
  0
ACDBDICTIONARYWDFLT
  5
12
330
A
100
AcDbDictionary
281
1
  3
Normal
350
13
100
AcDbDictionaryWithDefault
340
13
  0
ACDBPLACEHOLDER
  5
13
330
12
  0
DICTIONARY
  5
14
330
A
100
AcDbDictionary
281
1
  0
DICTIONARY
  5
15
330
A
100
AcDbDictionary
281
1
  0
DICTIONARY
  5
16
330
A
100
AcDbDictionary
281
1
  0
LAYOUT
  5
1A
330
D
100
AcDbPlotSettings
  1

  4
A3
  6

 40
7.5
 41
20.0
 42
7.5
 43
20.0
 44
420.0
 45
297.0
 46
0.0
 47
0.0
 48
0.0
 49
0.0
140
0.0
141
0.0
142
1.0
143
1.0
 70
1024
 72
1
 73
0
 74
5
  7

 75
16
 76
0
 77
2
 78
300
147
1.0
148
0.0
149
0.0
100
AcDbLayout
  1
Model
 70
1
 71
0
 10
0.0
 20
0.0
 11
420.0
 21
297.0
 12
0.0
 22
0.0
 32
0.0
 14
1e+20
 24
1e+20
 34
1e+20
 15
-1e+20
 25
-1e+20
 35
-1e+20
146
0.0
 13
0.0
 23
0.0
 33
0.0
 16
1.0
 26
0.0
 36
0.0
 17
0.0
 27
1.0
 37
0.0
 76
1
330
17
  0
LAYOUT
  5
1E
330
D
100
AcDbPlotSettings
  1

  4
A3
  6

 40
7.5
 41
20.0
 42
7.5
 43
20.0
 44
420.0
 45
297.0
 46
0.0
 47
0.0
 48
0.0
 49
0.0
140
0.0
141
0.0
142
1.0
143
1.0
 70
0
 72
1
 73
0
 74
5
  7

 75
16
 76
0
 77
2
 78
300
147
1.0
148
0.0
149
0.0
100
AcDbLayout
  1
Layout1
 70
1
 71
1
 10
0.0
 20
0.0
 11
420.0
 21
297.0
 12
0.0
 22
0.0
 32
0.0
 14
1e+20
 24
1e+20
 34
1e+20
 15
-1e+20
 25
-1e+20
 35
-1e+20
146
0.0
 13
0.0
 23
0.0
 33
0.0
 16
1.0
 26
0.0
 36
0.0
 17
0.0
 27
1.0
 37
0.0
 76
1
330
1B
  0
MATERIAL
  5
1F
102
{ACAD_REACTORS
330
E
102
}
330
E
100
AcDbMaterial
  1
ByBlock
  2

 70
0
 40
1.0
 71
1
 41
1.0
 91
-1023410177
 42
1.0
 72
1
  3

 73
1
 74
1
 75
1
 44
0.5
 73
0
 45
1.0
 46
1.0
 77
1
  4

 78
1
 79
1
170
1
 48
1.0
171
1
  6

172
1
173
1
174
1
140
1.0
141
1.0
175
1
  7

176
1
177
1
178
1
143
1.0
179
1
  8

270
1
271
1
272
1
145
1.0
146
1.0
273
1
  9

274
1
275
1
276
1
 42
1.0
 72
1
  3

 73
1
 74
1
 75
1
 94
63
  0
MATERIAL
  5
20
102
{ACAD_REACTORS
330
E
102
}
330
E
100
AcDbMaterial
  1
ByLayer
  2

 70
0
 40
1.0
 71
1
 41
1.0
 91
-1023410177
 42
1.0
 72
1
  3

 73
1
 74
1
 75
1
 44
0.5
 73
0
 45
1.0
 46
1.0
 77
1
  4

 78
1
 79
1
170
1
 48
1.0
171
1
  6

172
1
173
1
174
1
140
1.0
141
1.0
175
1
  7

176
1
177
1
178
1
143
1.0
179
1
  8

270
1
271
1
272
1
145
1.0
146
1.0
273
1
  9

274
1
275
1
276
1
 42
1.0
 72
1
  3

 73
1
 74
1
 75
1
 94
63
  0
MATERIAL
  5
21
102
{ACAD_REACTORS
330
E
102
}
330
E
100
AcDbMaterial
  1
Global
  2

 70
0
 40
1.0
 71
1
 41
1.0
 91
-1023410177
 42
1.0
 72
1
  3

 73
1
 74
1
 75
1
 44
0.5
 73
0
 45
1.0
 46
1.0
 77
1
  4

 78
1
 79
1
170
1
 48
1.0
171
1
  6

172
1
173
1
174
1
140
1.0
141
1.0
175
1
  7

176
1
177
1
178
1
143
1.0
179
1
  8

270
1
271
1
272
1
145
1.0
146
1.0
273
1
  9

274
1
275
1
276
1
 42
1.0
 72
1
  3

 73
1
 74
1
 75
1
 94
63
  0
MLINESTYLE
  5
22
102
{ACAD_REACTORS
330
10
102
}
330
10
100
AcDbMlineStyle
  2
Standard
 70
0
  3

 62
256
 51
90.0
 52
90.0
 71
2
 49
0.5
 62
256
  6
BYLAYER
 49
-0.5
 62
256
  6
BYLAYER
  0
MLEADERSTYLE
  5
2C
102
{ACAD_REACTORS
330
F
102
}
330
F
100
AcDbMLeaderStyle
179
2
170
2
171
1
172
0
 90
2
 40
0.0
 41
0.0
173
1
 91
-1056964608
 92
-2
290
1
 42
2.0
291
1
 43
8.0
  3
Standard
 44
4.0
300

342
29
174
1
175
1
176
0
178
1
 93
-1056964608
 45
4.0
292
0
297
0
 46
4.0
 94
-1056964608
 47
1.0
 49
1.0
140
1.0
294
1
141
0.0
177
0
142
1.0
295
0
296
0
143
3.75
271
0
272
9
273
9
  0
DICTIONARY
  5
2D
330
A
100
AcDbDictionary
280
1
281
1
  3
CREATED_BY_EZDXF
350
2E
  3
WRITTEN_BY_EZDXF
350
36
  0
DICTIONARYVAR
  5
2E
330
2D
100
DictionaryVariables
280
0
  1
1.4.4 @ 2026-09-23T20:01:28.059817+00:00
  0
DICTIONARYVAR
  5
36
330
2D
100
DictionaryVariables
280
0
  1
1.4.4 @ 2026-09-23T20:01:28.066695+00:00
  0
ENDSEC
  0
EOF
