  0
SECTION
  2
HEADER
  9
$ACADVER
  1
AC1027
  9
$ACADMAINTVER
 70
105
  9
$DWGCODEPAGE
  3
ANSI_1252
  9
$LASTSAVEDBY
  1
ezdxf
  9
$REQUIREDVERSIONS
160
0
  9
$INSBASE
 10
0.0
 20
0.0
 30
0.0
  9
$EXTMIN
 10
1e+20
 20
1e+20
 30
1e+20
  9
$EXTMAX
 10
-1e+20
 20
-1e+20
 30
-1e+20
  9
$LIMMIN
 10
0.0
 20
0.0
  9
$LIMMAX
 10
420.0
 20
297.0
  9
$ORTHOMODE
 70
0
  9
$REGENMODE
 70
1
  9
$FILLMODE
 70
1
  9
$QTEXTMODE
 70
0
  9
$MIRRTEXT
 70
1
  9
$LTSCALE
 40
1.0
  9
$ATTMODE
 70
1
  9
$TEXTSIZE
 40
2.5
  9
$TRACEWID
 40
1.0
  9
$TEXTSTYLE
  7
Standard
  9
$CLAYER
  8
0
  9
$CELTYPE
  6
ByLayer
  9
$CECOLOR
 62
256
  9
$CELTSCALE
 40
1.0
  9
$DISPSILH
 70
0
  9
$DIMSCALE
 40
1.0
  9
$DIMASZ
 40
2.5
  9
$DIMEXO
 40
0.625
  9
$DIMDLI
 40
3.75
  9
$DIMRND
 40
0.0
  9
$DIMDLE
 40
0.0
  9
$DIMEXE
 40
1.25
  9
$DIMTP
 40
0.0
  9
$DIMTM
 40
0.0
  9
$DIMTXT
 40
2.5
  9
$DIMCEN
 40
2.5
  9
$DIMTSZ
 40
0.0
  9
$DIMTOL
 70
0
  9
$DIMLIM
 70
0
  9
$DIMTIH
 70
0
  9
$DIMTOH
 70
0
  9
$DIMSE1
 70
0
  9
$DIMSE2
 70
0
  9
$DIMTAD
 70
1
  9
$DIMZIN
 70
8
  9
$DIMBLK
  1

  9
$DIMASO
 70
1
  9
$DIMSHO
 70
1
  9
$DIMPOST
  1

  9
$DIMAPOST
  1

  9
$DIMALT
 70
0
  9
$DIMALTD
 70
3
  9
$DIMALTF
 40
0.03937007874
  9
$DIMLFAC
 40
1.0
  9
$DIMTOFL
 70
1
  9
$DIMTVP
 40
0.0
  9
$DIMTIX
 70
0
  9
$DIMSOXD
 70
0
  9
$DIMSAH
 70
0
  9
$DIMBLK1
  1

  9
$DIMBLK2
  1

  9
$DIMSTYLE
  2
ISO-25
  9
$DIMCLRD
 70
0
  9
$DIMCLRE
 70
0
  9
$DIMCLRT
 70
0
  9
$DIMTFAC
 40
1.0
  9
$DIMGAP
 40
0.625
  9
$DIMJUST
 70
0
  9
$DIMSD1
 70
0
  9
$DIMSD2
 70
0
  9
$DIMTOLJ
 70
0
  9
$DIMTZIN
 70
8
  9
$DIMALTZ
 70
0
  9
$DIMALTTZ
 70
0
  9
$DIMUPT
 70
0
  9
$DIMDEC
 70
2
  9
$DIMTDEC
 70
2
  9
$DIMALTU
 70
2
  9
$DIMALTTD
 70
3
  9
$DIMTXSTY
  7
Standard
  9
$DIMAUNIT
 70
0
  9
$DIMADEC
 70
0
  9
$DIMALTRND
 40
0.0
  9
$DIMAZIN
 70
0
  9
$DIMDSEP
 70
44
  9
$DIMATFIT
 70
3
  9
$DIMFRAC
 70
0
  9
$DIMLDRBLK
  1

  9
$DIMLUNIT
 70
2
  9
$DIMLWD
 70
-2
  9
$DIMLWE
 70
-2
  9
$DIMTMOVE
 70
0
  9
$DIMFXL
 40
1.0
  9
$DIMFXLON
 70
0
  9
$DIMJOGANG
 40
0.785398163397
  9
$DIMTFILL
 70
0
  9
$DIMTFILLCLR
 70
0
  9
$DIMARCSYM
 70
0
  9
$DIMLTYPE
  6

  9
$DIMLTEX1
  6

  9
$DIMLTEX2
  6

  9
$DIMTXTDIRECTION
 70
0
  9
$LUNITS
 70
2
  9
$LUPREC
 70
4
  9
$SKETCHINC
 40
1.0
  9
$FILLETRAD
 40
10.0
  9
$AUNITS
 70
0
  9
$AUPREC
 70
2
  9
$MENU
  1
.
  9
$ELEVATION
 40
0.0
  9
$PELEVATION
 40
0.0
  9
$THICKNESS
 40
0.0
  9
$LIMCHECK
 70
0
  9
$CHAMFERA
 40
0.0
  9
$CHAMFERB
 40
0.0
  9
$CHAMFERC
 40
0.0
  9
$CHAMFERD
 40
0.0
  9
$SKPOLY
 70
0
  9
$TDCREATE
 40
2461308.0635300926
  9
$TDUCREATE
 40
2458532.153996898
  9
$TDUPDATE
 40
2461308.0635300926
  9
$TDUUPDATE
 40
2458532.1544311
  9
$TDINDWG
 40
0.0
  9
$TDUSRTIMER
 40
0.0
  9
$USRTIMER
 70
1
  9
$ANGBASE
 50
0.0
  9
$ANGDIR
 70
0
  9
$PDMODE
 70
0
  9
$PDSIZE
 40
0.0
  9
$PLINEWID
 40
0.0
  9
$SPLFRAME
 70
0
  9
$SPLINETYPE
 70
6
  9
$SPLINESEGS
 70
8
  9
$HANDSEED
  5
37
  9
$SURFTAB1
 70
6
  9
$SURFTAB2
 70
6
  9
$SURFTYPE
 70
6
  9
$SURFU
 70
6
  9
$SURFV
 70
6
  9
$UCSBASE
  2

  9
$UCSNAME
  2

  9
$UCSORG
 10
0.0
 20
0.0
 30
0.0
  9
$UCSXDIR
 10
1.0
 20
0.0
 30
0.0
  9
$UCSYDIR
 10
0.0
 20
1.0
 30
0.0
  9
$UCSORTHOREF
  2

  9
$UCSORTHOVIEW
 70
0
  9
$UCSORGTOP
 10
0.0
 20
0.0
 30
0.0
  9
$UCSORGBOTTOM
 10
0.0
 20
0.0
 30
0.0
  9
$UCSORGLEFT
 10
0.0
 20
0.0
 30
0.0
  9
$UCSORGRIGHT
 10
0.0
 20
0.0
 30
0.0
  9
$UCSORGFRONT
 10
0.0
 20
0.0
 30
0.0
  9
$UCSORGBACK
 10
0.0
 20
0.0
 30
0.0
  9
$PUCSBASE
  2

  9
$PUCSNAME
  2

  9
$PUCSORG
 10
0.0
 20
0.0
 30
0.0
  9
$PUCSXDIR
 10
1.0
 20
0.0
 30
0.0
  9
$PUCSYDIR
 10
0.0
 20
1.0
 30
0.0
  9
$PUCSORTHOREF
  2

  9
$PUCSORTHOVIEW
 70
0
  9
$PUCSORGTOP
 10
0.0
 20
0.0
 30
0.0
  9
$PUCSORGBOTTOM
 10
0.0
 20
0.0
 30
0.0
  9
$PUCSORGLEFT
 10
0.0
 20
0.0
 30
0.0
  9
$PUCSORGRIGHT
 10
0.0
 20
0.0
 30
0.0
  9
$PUCSORGFRONT
 10
0.0
 20
0.0
 30
0.0
  9
$PUCSORGBACK
 10
0.0
 20
0.0
 30
0.0
  9
$USERI1
 70
0
  9
$USERI2
 70
0
  9
$USERI3
 70
0
  9
$USERI4
 70
0
  9
$USERI5
 70
0
  9
$USERR1
 40
0.0
  9
$USERR2
 40
0.0
  9
$USERR3
 40
0.0
  9
$USERR4
 40
0.0
  9
$USERR5
 40
0.0
  9
$WORLDVIEW
 70
1
  9
$SHADEDGE
 70
3
  9
$SHADEDIF
 70
70
  9
$TILEMODE
 70
1
  9
$MAXACTVP
 70
64
  9
$PINSBASE
 10
0.0
 20
0.0
 30
0.0
  9
$PLIMCHECK
 70
0
  9
$PEXTMIN
 10
1e+20
 20
1e+20
 30
1e+20
  9
$PEXTMAX
 10
-1e+20
 20
-1e+20
 30
-1e+20
  9
$PLIMMIN
 10
0.0
 20
0.0
  9
$PLIMMAX
 10
420.0
 20
297.0
  9
$UNITMODE
 70
0
  9
$VISRETAIN
 70
1
  9
$PLINEGEN
 70
0
  9
$PSLTSCALE
 70
1
  9
$TREEDEPTH
 70
3020
  9
$CMLSTYLE
  2
Standard
  9
$CMLJUST
 70
0
  9
$CMLSCALE
 40
20.0
  9
$PROXYGRAPHICS
 70
1
  9
$MEASUREMENT
 70
1
  9
$CELWEIGHT
370
-1
  9
$ENDCAPS
280
0
  9
$JOINSTYLE
280
0
  9
$LWDISPLAY
290
0
  9
$INSUNITS
 70
4
  9
$HYPERLINKBASE
  1

  9
$STYLESHEET
  1

  9
$XEDIT
290
1
  9
$CEPSNTYPE
380
0
  9
$PSTYLEMODE
290
1
  9
$FINGERPRINTGUID
  2
{3F434E02-E468-4786-BB77-D61C15AD457A}
  9
$VERSIONGUID
  2
{14A5E936-4898-4295-889C-596922CBE3C5}
  9
$EXTNAMES
290
1
  9
$PSVPSCALE
 40
0.0
  9
$OLESTARTUP
290
0
  9
$SORTENTS
280
127
  9
$INDEXCTL
280
0
  9
$HIDETEXT
280
1
  9
$XCLIPFRAME
280
1
  9
$HALOGAP
280
0
  9
$OBSCOLOR
 70
257
  9
$OBSLTYPE
280
0
  9
$INTERSECTIONDISPLAY
280
0
  9
$INTERSECTIONCOLOR
 70
257
  9
$DIMASSOC
280
2
  9
$PROJECTNAME
  1

  9
$CAMERADISPLAY
290
0
  9
$LENSLENGTH
 40
50.0
  9
$CAMERAHEIGHT
 40
0.0
  9
$STEPSPERSEC
 40
24.0
  9
$STEPSIZE
 40
100.0
  9
$3DDWFPREC
 40
2.0
  9
$PSOLWIDTH
 40
0.005
  9
$PSOLHEIGHT
 40
0.08
  9
$LOFTANG1
 40
1.570796326795
  9
$LOFTANG2
 40
1.570796326795
  9
$LOFTMAG1
 40
0.0
  9
$LOFTMAG2
 40
0.0
  9
$LOFTPARAM
 70
7
  9
$LOFTNORMALS
280
1
  9
$LATITUDE
 40
37.795
  9
$LONGITUDE
 40
-122.394
  9
$NORTHDIRECTION
 40
0.0
  9
$TIMEZONE
 70
-8000
  9
$LIGHTGLYPHDISPLAY
280
1
  9
$TILEMODELIGHTSYNCH
280
1
  9
$CMATERIAL
347
20
  9
$SOLIDHIST
280
0
  9
$SHOWHIST
280
1
  9
$DWFFRAME
280
2
  9
$DGNFRAME
280
2
  9
$REALWORLDSCALE
290
1
  9
$INTERFERECOLOR
 62
256
  9
$CSHADOW
280
0
  9
$SHADOWPLANELOCATION
 40
0.0
  0
ENDSEC
  0
SECTION
  2
CLASSES
  0
CLASS
  1
ACDBDICTIONARYWDFLT
  2
AcDbDictionaryWithDefault
  3
ObjectDBX Classes
 90
0
 91
0
280
0
281
0
  0
CLASS
  1
SUN
  2
AcDbSun
  3
SCENEOE
 90
1153
 91
0
280
0
281
0
  0
CLASS
  1
VISUALSTYLE
  2
AcDbVisualStyle
  3
ObjectDBX Classes
 90
4095
 91
0
280
0
281
0
  0
CLASS
  1
MATERIAL
  2
AcDbMaterial
  3
ObjectDBX Classes
 90
1153
 91
0
280
0
281
0
  0
CLASS
  1
SCALE
  2
AcDbScale
  3
ObjectDBX Classes
 90
1153
 91
0
280
0
281
0
  0
CLASS
  1
TABLESTYLE
  2
AcDbTableStyle
  3
ObjectDBX Classes
 90
4095
 91
0
280
0
281
0
  0
CLASS
  1
MLEADERSTYLE
  2
AcDbMLeaderStyle
  3
ACDB_MLEADERSTYLE_CLASS
 90
4095
 91
0
280
0
281
0
  0
CLASS
  1
DICTIONARYVAR
  2
AcDbDictionaryVar
  3
ObjectDBX Classes
 90
0
 91
0
280
0
281
0
  0
CLASS
  1
CELLSTYLEMAP
  2
AcDbCellStyleMap
  3
ObjectDBX Classes
 90
1152
 91
0
280
0
281
0
  0
CLASS
  1
MENTALRAYRENDERSETTINGS
  2
AcDbMentalRayRenderSettings
  3
SCENEOE
 90
1024
 91
0
280
0
281
0
  0
CLASS
  1
ACDBDETAILVIEWSTYLE
  2
AcDbDetailViewStyle
  3
ObjectDBX Classes
 90
1025
 91
0
280
0
281
0
  0
CLASS
  1
ACDBSECTIONVIEWSTYLE
  2
AcDbSectionViewStyle
  3
ObjectDBX Classes
 90
1025
 91
0
280
0
281
0
  0
CLASS
  1
RASTERVARIABLES
  2
AcDbRasterVariables
  3
ISM
 90
0
 91
0
280
0
281
0
  0
CLASS
  1
ACDBPLACEHOLDER
  2
AcDbPlaceHolder
  3
ObjectDBX Classes
 90
0
 91
0
280
0
281
0
  0
CLASS
  1
LAYOUT
  2
AcDbLayout
  3
ObjectDBX Classes
 90
0
 91
0
280
0
281
0
  0
ENDSEC
  0
SECTION
  2
TABLES
  0
TABLE
  2
VPORT
  5
8
330
0
100
AcDbSymbolTable
 70
1
  0
VPORT
  5
23
330
8
100
AcDbSymbolTableRecord
100
AcDbViewportTableRecord
  2
*Active
 70
0
 10
0.0
 20
0.0
 11
1.0
 21
1.0
 12
0.0
 22
0.0
 13
0.0
 23
0.0
 14
0.5
 24
0.5
 15
0.5
 25
0.5
 16
0.0
 26
0.0
 36
1.0
 17
0.0
 27
0.0
 37
0.0
 40
1000.0
 41
1.34
 42
50.0
 43
0.0
 44
0.0
 50
0.0
 51
0.0
 71
0
 72
1000
 73
1
 74
3
 75
0
 76
0
 77
0
 78
0
281
0
 65
0
146
0.0
  0
ENDTAB
  0
TABLE
  2
LTYPE
  5
2
330
0
100
AcDbSymbolTable
 70
3
  0
LTYPE
  5
24
330
2
100
AcDbSymbolTableRecord
100
AcDbLinetypeTableRecord
  2
ByBlock
 70
0
  3

 72
65
 73
0
 40
0.0
  0
LTYPE
  5
25
330
2
100
AcDbSymbolTableRecord
100
AcDbLinetypeTableRecord
  2
ByLayer
 70
0
  3

 72
65
 73
0
 40
0.0
  0
LTYPE
  5
26
330
2
100
AcDbSymbolTableRecord
100
AcDbLinetypeTableRecord
  2
Continuous
 70
0
  3

 72
65
 73
0
 40
0.0
  0
ENDTAB
  0
TABLE
  2
LAYER
  5
1
330
0
100
AcDbSymbolTable
 70
2
  0
LAYER
  5
27
330
1
100
AcDbSymbolTableRecord
100
AcDbLayerTableRecord
  2
0
 70
0
 62
7
  6
Continuous
370
-3
390
13
347
21
  0
LAYER
  5
28
330
1
100
AcDbSymbolTableRecord
100
AcDbLayerTableRecord
  2
Defpoints
 70
0
 62
7
  6
Continuous
290
0
370
-3
390
13
347
21
  0
ENDTAB
  0
TABLE
  2
STYLE
  5
5
330
0
100
AcDbSymbolTable
 70
1
  0
STYLE
  5
29
330
5
100
AcDbSymbolTableRecord
100
AcDbTextStyleTableRecord
  2
Standard
 70
0
 40
0.0
 41
1.0
 50
0.0
 71
0
 42
2.5
  3
txt
  4

  0
ENDTAB
  0
TABLE
  2
VIEW
  5
7
330
0
100
AcDbSymbolTable
 70
0
  0
ENDTAB
  0
TABLE
  2
UCS
  5
6
330
0
100
AcDbSymbolTable
 70
0
  0
ENDTAB
  0
TABLE
  2
APPID
  5
3
330
0
100
AcDbSymbolTable
 70
3
  0
APPID
  5
2A
330
3
100
AcDbSymbolTableRecord
100
AcDbRegAppTableRecord
  2
ACAD
 70
0
  0
APPID
  5
34
330
3
100
AcDbSymbolTableRecord
100
AcDbRegAppTableRecord
  2
HATCHBACKGROUNDCOLOR
 70
0
  0
APPID
  5
35
330
3
100
AcDbSymbolTableRecord
100
AcDbRegAppTableRecord
  2
EZDXF
 70
0
  0
ENDTAB
  0
TABLE
  2
DIMSTYLE
  5
4
330
0
100
AcDbSymbolTable
 70
1
100
AcDbDimStyleTable
  0
DIMSTYLE
105
2B
330
4
100
AcDbSymbolTableRecord
100
AcDbDimStyleTableRecord
  2
Standard
 70
0
 40
1.0
 41
2.5
 42
0.625
 43
3.75
 44
1.25
 45
0.0
 46
0.0
 47
0.0
 48
0.0
 49
2.5
140
2.5
141
2.5
142
0.0
143
0.03937007874
144
1.0
145
0.0
146
1.0
147
0.625
148
0.0
 69
0
 70
0
 71
0
 72
0
 73
0
 74
0
 75
0
 76
0
 77
1
 78
8
 79
3
170
0
171
3
172
1
173
0
174
0
175
0
176
0
177
0
178
0
179
2
271
2
272
2
273
2
274
3
275
0
276
0
277
2
278
44
279
0
280
0
281
0
282
0
283
0
284
8
285
0
286
0
288
0
289
3
290
0
371
-2
372
-2
  0
ENDTAB
  0
TABLE
  2
BLOCK_RECORD
  5
9
330
0
100
AcDbSymbolTable
 70
2
  0
BLOCK_RECORD
  5
17
330
9
100
AcDbSymbolTableRecord
100
AcDbBlockTableRecord
  2
*Model_Space
340
1A
 70
0
280
1
281
0
  0
BLOCK_RECORD
  5
1B
330
9
100
AcDbSymbolTableRecord
100
AcDbBlockTableRecord
  2
*Paper_Space
340
1E
 70
0
280
1
281
0
  0
ENDTAB
  0
ENDSEC
  0
SECTION
  2
BLOCKS
  0
BLOCK
  5
18
330
17
100
AcDbEntity
  8
0
100
AcDbBlockBegin
  2
*Model_Space
 70
0
 10
0.0
 20
0.0
 30
0.0
  3
*Model_Space
  1

  0
ENDBLK
  5
19
330
17
100
AcDbEntity
  8
0
100
AcDbBlockEnd
  0
BLOCK
  5
1C
330
1B
100
AcDbEntity
  8
0
100
AcDbBlockBegin
  2
*Paper_Space
 70
0
 10
0.0
 20
0.0
 30
0.0
  3
*Paper_Space
  1

  0
ENDBLK
  5
1D
330
1B
100
AcDbEntity
  8
0
100
AcDbBlockEnd
  0
ENDSEC
  0
SECTION
  2
ENTITIES
  0
LWPOLYLINE
  5
2F
330
17
100
AcDbEntity
  8
0
100
AcDbPolyline
 90
304
 70
1
 10
95.626995215175
 20
33.92671524320203
 10
95.644448937004
 20
34.58704729098103
 10
95.644448937004
 20
36.69023070603804
 10
95.644442938546
 20
35.69023080604503
 10
85.644442938546
 20
35.69023080604504
 10
85.644442938546
 20
41.69023080604497
 10
95.644448937004
 20
41.69023070603733
 10
95.644448937004
 20
42.25555105618704
 10
95.379908326686
 20
43.259102494702034
 10
95.08531432409498
 20
44.277082810547036
 10
94.76095442252799
 20
45.30810707818204
 10
94.407116115284
 20
46.35079037206703
 10
94.024086895659
 20
47.403747766661034
 10
93.61215425694999
 20
48.465594336425035
 10
93.17160569245401
 20
49.534945155818036
 10
92.70272869546899
 20
50.61041529930104
 10
92.34011135814899
 20
51.404587863208036
 10
91.962894510835
 20
52.200857991004035
 10
91.571335275995
 20
52.99878281911003
 10
91.165690776097
 20
53.797919483951034
 10
90.74621813360599
 20
54.597825121948034
 10
90.31317447099102
 20
55.398056869525035
 10
89.866816910717
 20
56.19817186310603
 10
89.40740257525299
 20
56.99772723911303
 10
88.935188587065
 20
57.796280133969034
 10
88.450432068621
 20
58.59338768409803
 10
87.953390142386
 20
59.38860702592304
 10
87.444319930829
 20
60.18149529586604
 10
86.923478556416
 20
60.97160963035104
 10
86.391123141615
 20
61.75850716580204
 10
85.847510808892
 20
62.54174503864004
 10
85.29289868071399
 20
63.32088038528903
 10
84.72754387954899
 20
64.09547034217304
 10
84.151703527864
 20
64.86507204571403
 10
83.565634748124
 20
65.62924263233604
 10
82.969594662799
 20
66.38753923846103
 10
82.36384039435401
 20
67.13951900051303
 10
81.748629065257
 20
67.88473905491504
 10
81.124217797974
 20
68.62275653809004
 10
80.49086371497299
 20
69.35312858646104
 10
79.848823938721
 20
70.07541233645104
 10
79.19835559168499
 20
70.78916492448403
 10
78.539715796331
 20
71.49394348698203
 10
77.873161675127
 20
72.18930516036804
 10
77.19895035054
 20
72.87480708106604
 10
76.517338945037
 20
73.55000638549905
 10
75.82858458108501
 20
74.21446021008904
 10
75.132944381151
 20
74.86772569126003
 10
74.08466024423
 20
75.81904567437604
 10
73.02286968223501
 20
76.74319125413004
 10
71.948607223055
 20
77.63898229030303
 10
70.86290739458
 20
78.50523864267603
 10
69.76680472470301
 20
79.34078017103003
 10
68.661333741312
 20
80.14442673514604
 10
67.547528972298
 20
80.91499819480404
 10
66.426424945552
 20
81.65131440978602
 10
65.29905618896402
 20
82.35219523987203
 10
64.16645723042501
 20
83.01646054484205
 10
63.029662597826004
 20
83.64293018447904
 10
61.88970681905501
 20
84.23042401856205
 10
60.747624422004996
 20
84.77776190687304
 10
59.604449934566
 20
85.28376370919203
 10
58.461217884627
 20
85.74724928530004
 10
57.889903563687
 20
85.96267969470703
 10
57.31896280008
 20
86.16703849497803
 10
56.716331128656996
 20
86.37086675680703
 10
56.114511529156
 20
86.56224136308704
 10
55.513589572614
 20
86.74106620164304
 10
54.913650830068995
 20
86.90724516030403
 10
54.314780872555005
 20
87.06068212689404
 10
53.717065271109995
 20
87.20128098924204
 10
53.120589596771
 20
87.32894563517203
 10
52.525439420573996
 20
87.44357995251303
 10
51.931700313555005
 20
87.54508782909103
 10
51.339457846751
 20
87.63337315273203
 10
50.7487975912
 20
87.70833981126304
 10
50.159805117935996
 20
87.76989169251004
 10
49.572565997997
 20
87.81793268430103
 10
48.98716580242
 20
87.85236667446104
 10
48.403690102241
 20
87.87309755081803
 10
47.82222446849584
 20
87.88002920119705
 10
47.240758834751
 20
87.87309755081804
 10
46.657283134572
 20
87.85236667446105
 10
46.071882938994996
 20
87.81793268430104
 10
45.484643819057
 20
87.76989169251104
 10
44.895651345794
 20
87.70833981126304
 10
44.304991090242
 20
87.63337315273304
 10
43.712748623439005
 20
87.54508782909204
 10
43.119009516421
 20
87.44357995251404
 10
42.52385934022399
 20
87.32894563517402
 10
41.927383665885
 20
87.20128098924305
 10
41.329668064441
 20
87.06068212689604
 10
40.730798106928
 20
86.90724516030504
 10
40.130859364382005
 20
86.74106620164505
 10
39.529937407841004
 20
86.56224136308904
 10
38.928117808341
 20
86.37086675680904
 10
38.325486136918
 20
86.16703849498003
 10
37.75454537332
 20
85.96267969470904
 10
37.183231052379995
 20
85.74724928530203
 10
36.03999900244
 20
85.28376370919503
 10
34.896824515
 20
84.77776190687604
 10
33.75474211795
 20
84.23042401856605
 10
32.61478633918
 20
83.64293018448403
 10
31.477991706580003
 20
83.01646054484803
 10
30.345392748040002
 20
82.35219523987703
 10
29.21802399146
 20
81.65131440979204
 10
28.09691996471
 20
80.91499819481105
 10
26.9831151957
 20
80.14442673515305
 10
25.877644212310003
 20
79.34078017103805
 10
24.781541542430002
 20
78.50523864268504
 10
23.69584171396
 20
77.63898229031204
 10
22.621579254780002
 20
76.74319125413903
 10
21.55978869278
 20
75.81904567438504
 10
20.51150455586
 20
74.86772569127004
 10
19.81586435593
 20
74.21446021009803
 10
19.127109991970002
 20
73.55000638550803
 10
18.445498586470002
 20
72.87480708107503
 10
17.77128726188
 20
72.18930516037705
 10
17.10473314068
 20
71.49394348699104
 10
16.446093345330002
 20
70.78916492449304
 10
15.795624998289995
 20
70.07541233646003
 10
15.15358522204
 20
69.35312858647004
 10
14.52023113904
 20
68.62275653809805
 10
13.89581987175
 20
67.88473905492303
 10
13.28060854265
 20
67.13951900052103
 10
12.674854274209999
 20
66.38753923846903
 10
12.078814188879996
 20
65.62924263234304
 10
11.49274540914
 20
64.86507204572104
 10
10.91690505746
 20
64.09547034217904
 10
10.351550256289997
 20
63.320880385295034
 10
9.79693812811
 20
62.54174503864503
 10
9.253325795389998
 20
61.75850716580704
 10
8.720970380589996
 20
60.97160963035604
 10
8.20012900618
 20
60.18149529587104
 10
7.691058794619998
 20
59.388607025927044
 10
7.194016868379997
 20
58.59338768410204
 10
6.709260349939996
 20
57.796280133973035
 10
6.2370463617499965
 20
56.99772723911703
 10
5.77763202629
 20
56.19817186311003
 10
5.331274466010001
 20
55.398056869529036
 10
4.898230803399997
 20
54.59782512195103
 10
4.478758160909997
 20
53.79791948395403
 10
4.073113661009998
 20
52.998782819114034
 10
3.6815544261699955
 20
52.200857991008036
 10
3.304337578849996
 20
51.40458786321203
 10
2.9417202415299997
 20
50.61041529930504
 10
2.472843244549999
 20
49.53494515582303
 10
2.0322946800500006
 20
48.465594336432034
 10
1.6203620413399946
 20
47.40374776667004
 10
1.2373328217199955
 20
46.35079037207804
 10
0.8834945144799988
 20
45.30810707819703
 10
0.5591346129100003
 20
44.277082810565034
 10
0.2645406103199975
 20
43.25910249472403
 10
-2.6215495393024586e-94
 20
42.25555105621304
 10
-2.6215495393024586e-94
 20
41.6902307060388
 10
9.999999999989996
 20
41.69023070603833
 10
9.999999500759998
 20
35.69023080604495
 10
-2.6215495393024586e-94
 20
35.69023080604493
 10
-2.6215495393024586e-94
 20
34.58704729096904
 10
0.0174537218299946
 20
33.92671524318904
 10
0.06976614613999742
 20
33.26822723571003
 10
0.15679118546999857
 20
32.61342215917203
 10
0.2782858141099993
 20
31.964128619282036
 10
0.4339107466899961
 20
31.322159830252033
 10
0.6232313857399987
 20
30.689308551232035
 10
0.8457190352899957
 20
30.067342079842035
 10
1.1007523773199992
 20
29.457997316852033
 10
1.4669317241999948
 20
28.662839012502033
 10
1.8469716206999962
 20
27.874211267532036
 10
2.240755647839997
 20
27.092355665112034
 10
2.648163176349996
 20
26.317511713862036
 10
3.0690694036199986
 20
25.549916774522032
 10
3.5033453919399946
 20
24.789805987172038
 10
3.9508581079799967
 20
24.03741219929204
 10
4.41147046359
 20
23.292965894362037
 10
4.885041357719999
 20
22.556695121272035
 10
5.371425719709997
 20
21.828825424502035
 10
5.870474553689995
 20
21.109579774972037
 10
6.382034984249998
 20
20.399178501782036
 10
6.905950303239997
 20
19.697839224692036
 10
7.442060017819998
 20
19.005776787482038
 10
7.9901998995799985
 20
18.32320319210204
 10
8.550202034849995
 20
17.650327533792037
 10
9.121894876189998
 20
16.987355936942038
 10
9.70510329487
 20
16.334491492022035
 10
10.299648634579995
 20
15.691934193332038
 10
10.905348766099998
 20
15.059880877742035
 10
11.522018143159997
 20
14.438525164432036
 10
12.149467859199994
 20
13.828057395502036
 10
12.787505705320001
 20
13.228664577742038
 10
13.435936229089997
 20
12.640530325292037
 10
14.094560794479996
 20
12.063834803422036
 10
14.76317764265
 20
11.498754673342038
 10
15.441581953810001
 20
10.945463038072038
 10
16.129565909950003
 20
10.404129389422035
 10
16.82691875847
 20
9.874919556062036
 10
17.533426876780002
 20
9.35799565273204
 10
18.24887383771
 20
8.85351603059204
 10
18.973040475850002
 20
8.361635228692037
 10
19.70570495462
 20
7.882503926622036
 10
20.446642834290003
 20
7.416268898412035
 10
21.195627140710002
 20
6.963072967492039
 10
21.95242843484
 20
6.523054963002039
 10
22.71681488302
 20
6.096349677232034
 10
23.48855232801
 20
5.683087824342039
 10
24.26740436073
 20
5.283396000312038
 10
25.053132392640002
 20
4.897396644172034
 10
25.84549572885
 20
4.5252080004820385
 10
26.644251641870003
 20
4.16694408312204
 10
27.44915544594
 20
3.822714640372034
 10
28.259960572
 20
3.492625121262037
 10
29.0764186432
 20
3.176776643292037
 10
29.89827955103
 20
2.875265961462034
 10
30.72529153188
 20
2.588185438622034
 10
31.557201244219996
 20
2.3156230171720367
 10
32.393753846159996
 20
2.0576621921420397
 10
33.234693073550005
 20
1.8143819855820382
 10
34.07976131846
 20
1.5858569224020371
 10
34.92869970812
 20
1.372157007492035
 10
35.78124818418
 20
1.1733477043220404
 10
36.637145582429994
 20
0.9894899148520366
 10
37.496129712729996
 20
0.8206399609020352
 10
38.357937439412
 20
0.6668495668820356
 10
39.222304761827
 20
0.528165843942034
 10
40.088966895236
 20
0.4046312755820338
 10
40.957658351925005
 20
0.29628370457203346
 10
41.828113022528
 20
0.20315632142203555
 10
42.700064257548
 20
0.1252776541820353
 10
43.573244949043
 20
0.06267155968203753
 10
44.447387612443
 20
0.015357216292038347
 10
44.822218470054395
 20
0.0016430902158006688
 10
44.82221847005317
 20
7.476307175047154
 10
50.8222184700533
 20
7.476307175047602
 10
50.822218470054395
 20
1.734723475976807e-18
 10
51.197061324549
 20
0.015357216292038345
 10
52.071203987949
 20
0.06267155968203753
 10
52.944384679444
 20
0.1252776541820353
 10
53.81633591446499
 20
0.20315632142203555
 10
54.686790585067996
 20
0.29628370457203346
 10
55.555482041756996
 20
0.4046312755820338
 10
56.422144175167
 20
0.528165843942034
 10
57.286511497582005
 20
0.6668495668820356
 10
58.148319224266004
 20
0.8206399609020352
 10
59.007303354571995
 20
0.989489914862034
 10
59.863200752813995
 20
1.1733477043220404
 10
60.715749228879005
 20
1.3721570075020395
 10
61.564687618537
 20
1.5858569224020371
 10
62.40975586345299
 20
1.8143819855820382
 10
63.250695090843
 20
2.0576621921420397
 10
64.08724769278399
 20
2.315623017182034
 10
64.91915740512101
 20
2.588185438622034
 10
65.746169385973
 20
2.8752659614720386
 10
66.568030293798
 20
3.176776643292037
 10
67.384488365001
 20
3.492625121262037
 10
68.195293491057
 20
3.822714640372034
 10
69.000197295128
 20
4.166944083132037
 10
69.798953208151
 20
4.5252080004820385
 10
70.591316544364
 20
4.897396644172034
 10
71.37704457627099
 20
5.2833960003220355
 10
72.155896608989
 20
5.683087824352036
 10
72.927634053986
 20
6.0963496772420385
 10
73.692020502167
 20
6.5230549630120365
 10
74.448821796294
 20
6.963072967502036
 10
75.197806102716
 20
7.4162688984220395
 10
75.938743982388
 20
7.88250392663204
 10
76.671408461157
 20
8.361635228692037
 10
77.395575099289
 20
8.853516030602037
 10
78.111022060225
 20
9.357995652742037
 10
78.817530178534
 20
9.874919556072037
 10
79.51488302705499
 20
10.404129389432036
 10
80.20286698319299
 20
10.945463038082035
 10
80.88127129435802
 20
11.498754673352035
 10
81.549888142528
 20
12.063834803432037
 10
82.208512707911
 20
12.640530325302038
 10
82.856943231684
 20
13.228664577752038
 10
83.494981077802
 20
13.828057395512037
 10
84.122430793848
 20
14.438525164442037
 10
84.73910017090301
 20
15.059880877762037
 10
85.34480030242901
 20
15.691934193342036
 10
85.939345642135
 20
16.334491492032036
 10
86.522554060818
 20
16.98735593695204
 10
87.094246902154
 20
17.650327533802038
 10
87.65424903742898
 20
18.323203192122037
 10
88.202388919183
 20
19.00577678749204
 10
88.738498633763
 20
19.697839224702037
 10
89.26241395276
 20
20.399178501792036
 10
89.773974383318
 20
21.109579774982038
 10
90.273023217299
 20
21.828825424512036
 10
90.759407579286
 20
22.556695121292037
 10
91.23297847341598
 20
23.29296589437204
 10
91.693590829021
 20
24.037412199312037
 10
92.141103545068
 20
24.78980598719204
 10
92.57537953338598
 20
25.549916774532033
 10
92.99628576065399
 20
26.317511713882034
 10
93.40369328916199
 20
27.092355665132033
 10
93.79747731630101
 20
27.874211267552035
 10
94.177517212801
 20
28.662839012522035
 10
94.54369655968
 20
29.457997316872035
 10
94.79872990172
 20
30.067342079862033
 10
95.021217551267
 20
30.689308551252033
 10
95.21053819031499
 20
31.32215983027203
 10
95.3661631229
 20
31.964128619296037
 10
95.487657751536
 20
32.61342215918603
 10
95.57468279087199
 20
33.26822723572304
  0
LWPOLYLINE
  5
30
330
17
100
AcDbEntity
  8
0
100
AcDbPolyline
 90
127
 70
1
 10
17.33785374748
 20
21.354574526502038
 10
16.56884976622
 20
22.165512599482035
 10
15.822224468499996
 20
22.997100445832032
 10
15.822224468499996
 20
55.37917312599203
 10
16.551054563490002
 20
56.472644056282036
 10
17.30532430673
 20
57.56051469184303
 10
18.083843331060002
 20
58.640575155405045
 10
18.885421269290003
 20
59.710615569694035
 10
19.70886775425
 20
60.768426057438035
 10
20.55299241875
 20
61.81179674136404
 10
21.41660489563
 20
62.83851774420104
 10
22.298514817690002
 20
63.846379188676025
 10
23.3527342685
 20
65.00053186464704
 10
24.42730061773
 20
66.12376195031004
 10
25.03814889141
 20
66.73923768007404
 10
25.654203300280003
 20
67.34348926015504
 10
26.479042821030003
 20
68.12711642388503
 10
26.62772197999
 20
68.26531064670303
 10
27.2214183602
 20
68.80768601468704
 10
27.819169030620003
 20
69.33872290690704
 10
28.420482187650002
 20
69.85812919157704
 10
29.02486602768
 20
70.36561273691103
 10
29.631828747100002
 20
70.86088141112404
 10
30.24087854229
 20
71.34364308242904
 10
30.851523609660003
 20
71.81360561903904
 10
31.463272145580007
 20
72.27047688916903
 10
32.60095443616
 20
73.08345205306503
 10
33.73759234685
 20
73.84837181665505
 10
34.87003155754
 20
74.56336683271003
 10
35.433690925369994
 20
74.90155838940503
 10
35.99511774816
 20
75.22656775400603
 10
36.80875269765
 20
75.67626890279203
 10
37.61558383361
 20
76.09673682930503
 10
38.414390005422
 20
76.48724923463702
 10
39.203950062451995
 20
76.84708381987903
 10
40.097657772771996
 20
77.22241800888304
 10
40.960268818336
 20
77.55204287349903
 10
41.372894196411
 20
77.69799479503803
 10
41.94791740012499
 20
77.88857933725504
 10
42.513488338898995
 20
78.06124221050004
 10
43.077009837564
 20
78.21831138829305
 10
43.631031377195
 20
78.35776404763503
 10
44.1886739046
 20
78.48270887867804
 10
44.736537123927
 20
78.58993580711603
 10
45.279056500555
 20
78.68046744942004
 10
45.811790849805
 20
78.75370025363105
 10
46.344303383215
 20
78.81084199117905
 10
46.866791250770994
 20
78.85071727596704
 10
47.348902834610996
 20
78.87274142247702
 10
47.82222446849584
 20
78.88002920119703
 10
48.295546102399
 20
78.87274142247604
 10
48.777657686259
 20
78.85071727596502
 10
49.300145553808
 20
78.81084199117703
 10
49.832658087211
 20
78.75370025362804
 10
50.365392436460006
 20
78.68046744941603
 10
50.907911813086
 20
78.58993580711203
 10
51.455775032416994
 20
78.48270887867304
 10
52.013417559826
 20
78.35776404762804
 10
52.567439099444
 20
78.21831138828904
 10
53.130960598097
 20
78.06124221049905
 10
53.696531536868996
 20
77.88857933725403
 10
54.271554740582
 20
77.69799479503705
 10
54.684180118667996
 20
77.55204287349503
 10
55.546791164293
 20
77.22241800885203
 10
56.440498874549
 20
76.84708381987504
 10
57.230058932083
 20
76.48724923439504
 10
58.028865104415
 20
76.09673682878604
 10
58.835696240907
 20
75.67626890195803
 10
59.649331190919
 20
75.22656775282303
 10
60.210758013588
 20
74.90155838825105
 10
60.774417381286
 20
74.56336683159303
 10
61.906856591723994
 20
73.84837181563005
 10
63.043494502143
 20
73.08345205216104
 10
64.18117679245302
 20
72.27047688840904
 10
64.79292532824701
 20
71.81360561835304
 10
65.403570395482
 20
71.34364308182303
 10
66.01262019054899
 20
70.86088141060404
 10
66.61958290983699
 20
70.36561273648304
 10
67.22396674973801
 20
69.85812919124504
 10
67.825279906642
 20
69.33872290667705
 10
68.423030576939
 20
68.80768601456403
 10
69.01672695702001
 20
68.26531064669204
 10
69.16540611739501
 20
68.12711642254804
 10
69.99024563777
 20
67.34348925913605
 10
70.606300046118
 20
66.73923767955304
 10
71.21714831927001
 20
66.12376195030504
 10
72.2917146685
 20
65.00053186464804
 10
73.345934119304
 20
63.846379188682036
 10
74.22784404137201
 20
62.83851774420604
 10
75.09145651824599
 20
61.81179674136904
 10
75.93558118275
 20
60.76842605744103
 10
76.759027667706
 20
59.710615569696046
 10
77.560605605937
 20
58.64057515540603
 10
78.339124630263
 20
57.560514691844034
 10
79.093394373508
 20
56.472644056282036
 10
79.82222446849599
 20
55.37917312599104
 10
79.8222244685
 20
22.997100445842037
 10
79.07559917077899
 20
22.165512599492036
 10
78.30659518952301
 20
21.354574526512035
 10
77.515783414918
 20
20.564888247952037
 10
76.703750926731
 20
19.797040008052036
 10
75.871100558484
 20
19.051599838982035
 10
75.018450449919
 20
18.329121137732038
 10
74.146433588106
 20
17.630140255222038
 10
73.255697337531
 20
16.955176098172036
 10
72.34690295950901
 20
16.304729743832038
 10
71.42072512127399
 20
15.679284068052038
 10
70.477851395128
 20
15.079303386742037
 10
69.518981748001
 20
14.505233111242038
 10
68.544828021811
 20
13.957499417602037
 10
67.556113405012
 20
13.436508930242038
 10
66.553571895717
 20
12.942648420032036
 10
65.53794775679
 20
12.476284517242036
 10
30.10650118025
 20
12.476284517222037
 10
29.090877041320002
 20
12.942648420012038
 10
28.08833553202
 20
13.436508930212035
 10
27.09962091522
 20
13.957499417582039
 10
26.12546718903
 20
14.505233111222037
 10
25.1665975419
 20
15.079303386722035
 10
24.223723815750002
 20
15.679284068022039
 10
23.29754597751
 20
16.304729743812036
 10
22.38875159949
 20
16.955176098152037
 10
21.498015348910002
 20
17.630140255212037
 10
20.625998487100002
 20
18.329121137712036
 10
19.773348378530002
 20
19.051599838972038
 10
18.940698010280002
 20
19.797040008032038
 10
18.128665522090003
 20
20.564888247942037
  0
LWPOLYLINE
  5
31
330
17
100
AcDbEntity
  8
0
100
AcDbPolyline
 90
32
 70
1
 10
12.822224468500004
 20
56.569976112777034
 10
12.803009748903234
 20
56.76506643479316
 10
12.746104001011291
 20
56.952659545142126
 10
12.653694080802548
 20
57.125546345796636
 10
12.529331249686551
 20
57.27708289396358
 10
12.377794701519607
 20
57.40144572507958
 10
12.204907900865093
 20
57.49385564528832
 10
12.017314790516131
 20
57.55076139318027
 10
11.822224468500004
 20
57.569976112777034
 10
11.627134146483876
 20
57.55076139318027
 10
11.439541036134914
 20
57.49385564528832
 10
11.266654235480402
 20
57.40144572507958
 10
11.115117687313456
 20
57.27708289396358
 10
10.990754856197459
 20
57.125546345796636
 10
10.898344935988716
 20
56.952659545142126
 10
10.841439188096773
 20
56.76506643479316
 10
10.822224468500004
 20
56.569976112777034
 10
10.841439188096773
 20
56.374885790760906
 10
10.898344935988717
 20
56.18729268041194
 10
10.990754856197459
 20
56.01440587975743
 10
11.115117687313457
 20
55.86286933159049
 10
11.266654235480402
 20
55.738506500474486
 10
11.439541036134916
 20
55.64609658026575
 10
11.627134146483877
 20
55.5891908323738
 10
11.822224468500005
 20
55.569976112777034
 10
12.017314790516135
 20
55.5891908323738
 10
12.204907900865097
 20
55.64609658026575
 10
12.377794701519608
 20
55.73850650047449
 10
12.529331249686553
 20
55.86286933159049
 10
12.653694080802552
 20
56.01440587975743
 10
12.746104001011291
 20
56.18729268041195
 10
12.803009748903236
 20
56.374885790760906
  0
LWPOLYLINE
  5
32
330
17
100
AcDbEntity
  8
0
100
AcDbPolyline
 90
32
 70
1
 10
48.82222446849484
 20
82.88002920119305
 10
48.80300974889807
 20
83.07511952320918
 10
48.746104001006124
 20
83.26271263355814
 10
48.653694080797386
 20
83.43559943421266
 10
48.529331249681384
 20
83.5871359823796
 10
48.37779470151444
 20
83.7114988134956
 10
48.20490790085993
 20
83.80390873370435
 10
48.017314790510966
 20
83.86081448159628
 10
47.82222446849484
 20
83.88002920119305
 10
47.62713414647871
 20
83.86081448159628
 10
47.43954103612975
 20
83.80390873370435
 10
47.26665423547524
 20
83.7114988134956
 10
47.11511768730829
 20
83.5871359823796
 10
46.99075485619229
 20
83.43559943421266
 10
46.89834493598355
 20
83.26271263355814
 10
46.841439188091606
 20
83.07511952320918
 10
46.82222446849484
 20
82.88002920119305
 10
46.841439188091606
 20
82.68493887917693
 10
46.89834493598355
 20
82.49734576882797
 10
46.9907548561923
 20
82.32445896817345
 10
47.11511768730829
 20
82.1729224200065
 10
47.26665423547524
 20
82.04855958889051
 10
47.43954103612975
 20
81.95614966868176
 10
47.62713414647871
 20
81.89924392078983
 10
47.82222446849484
 20
81.88002920119305
 10
48.017314790510966
 20
81.89924392078983
 10
48.20490790085993
 20
81.95614966868177
 10
48.377794701514446
 20
82.04855958889051
 10
48.52933124968139
 20
82.17292242000651
 10
48.653694080797386
 20
82.32445896817346
 10
48.746104001006124
 20
82.49734576882797
 10
48.80300974889807
 20
82.68493887917693
  0
LWPOLYLINE
  5
33
330
17
100
AcDbEntity
  8
0
100
AcDbPolyline
 90
32
 70
1
 10
84.822224468495
 20
56.569976112773034
 10
84.80300974889822
 20
56.76506643478916
 10
84.74610400100629
 20
56.952659545138125
 10
84.65369408079754
 20
57.125546345792635
 10
84.52933124968155
 20
57.27708289395958
 10
84.3777947015146
 20
57.40144572507558
 10
84.20490790086008
 20
57.49385564528432
 10
84.01731479051112
 20
57.550761393176266
 10
83.822224468495
 20
57.569976112773034
 10
83.62713414647887
 20
57.550761393176266
 10
83.43954103612991
 20
57.49385564528432
 10
83.26665423547539
 20
57.40144572507558
 10
83.11511768730844
 20
57.27708289395958
 10
82.99075485619245
 20
57.125546345792635
 10
82.8983449359837
 20
56.952659545138125
 10
82.84143918809177
 20
56.76506643478916
 10
82.822224468495
 20
56.569976112773034
 10
82.84143918809177
 20
56.374885790756906
 10
82.8983449359837
 20
56.18729268040794
 10
82.99075485619245
 20
56.01440587975343
 10
83.11511768730844
 20
55.86286933158649
 10
83.2666542354754
 20
55.738506500470486
 10
83.43954103612991
 20
55.64609658026175
 10
83.62713414647887
 20
55.5891908323698
 10
83.822224468495
 20
55.569976112773034
 10
84.01731479051112
 20
55.5891908323698
 10
84.20490790086009
 20
55.64609658026175
 10
84.3777947015146
 20
55.73850650047049
 10
84.52933124968155
 20
55.86286933158649
 10
84.65369408079754
 20
56.01440587975343
 10
84.74610400100629
 20
56.18729268040795
 10
84.80300974889822
 20
56.374885790756906
  0
ENDSEC
  0
SECTION
  2
OBJECTS
  0
DICTIONARY
  5
A
330
0
100
AcDbDictionary
281
1
  3
ACAD_COLOR
350
B
  3
ACAD_GROUP
350
C
  3
ACAD_LAYOUT
350
D
  3
ACAD_MATERIAL
350
E
  3
ACAD_MLEADERSTYLE
350
F
  3
ACAD_MLINESTYLE
350
10
  3
ACAD_PLOTSETTINGS
350
11
  3
ACAD_PLOTSTYLENAME
350
12
  3
ACAD_SCALELIST
350
14
  3
ACAD_TABLESTYLE
350
15
  3
ACAD_VISUALSTYLE
350
16
  3
EZDXF_META
350
2D
  0
DICTIONARY
  5
B
330
A
100
AcDbDictionary
281
1
  0
DICTIONARY
  5
C
330
A
100
AcDbDictionary
281
1
  0
DICTIONARY
  5
D
330
A
100
AcDbDictionary
281
1
  3
Model
350
1A
  3
Layout1
350
1E
  0
DICTIONARY
  5
E
330
A
100
AcDbDictionary
281
1
  3
ByBlock
350
1F
  3
ByLayer
350
20
  3
Global
350
21
  0
DICTIONARY
  5
F
330
A
100
AcDbDictionary
281
1
  3
Standard
350
2C
  0
DICTIONARY
  5
10
330
A
100
AcDbDictionary
281
1
  3
Standard
350
22
  0
DICTIONARY
  5
11
330
A
100
AcDbDictionary
281
1
  0
ACDBDICTIONARYWDFLT
  5
12
330
A
100
AcDbDictionary
281
1
  3
Normal
350
13
100
AcDbDictionaryWithDefault
340
13
  0
ACDBPLACEHOLDER
  5
13
330
12
  0
DICTIONARY
  5
14
330
A
100
AcDbDictionary
281
1
  0
DICTIONARY
  5
15
330
A
100
AcDbDictionary
281
1
  0
DICTIONARY
  5
16
330
A
100
AcDbDictionary
281
1
  0
LAYOUT
  5
1A
330
D
100
AcDbPlotSettings
  1

  4
A3
  6

 40
7.5
 41
20.0
 42
7.5
 43
20.0
 44
420.0
 45
297.0
 46
0.0
 47
0.0
 48
0.0
 49
0.0
140
0.0
141
0.0
142
1.0
143
1.0
 70
1024
 72
1
 73
0
 74
5
  7

 75
16
 76
0
 77
2
 78
300
147
1.0
148
0.0
149
0.0
100
AcDbLayout
  1
Model
 70
1
 71
0
 10
0.0
 20
0.0
 11
420.0
 21
297.0
 12
0.0
 22
0.0
 32
0.0
 14
1e+20
 24
1e+20
 34
1e+20
 15
-1e+20
 25
-1e+20
 35
-1e+20
146
0.0
 13
0.0
 23
0.0
 33
0.0
 16
1.0
 26
0.0
 36
0.0
 17
0.0
 27
1.0
 37
0.0
 76
1
330
17
  0
LAYOUT
  5
1E
330
D
100
AcDbPlotSettings
  1

  4
A3
  6

 40
7.5
 41
20.0
 42
7.5
 43
20.0
 44
420.0
 45
297.0
 46
0.0
 47
0.0
 48
0.0
 49
0.0
140
0.0
141
0.0
142
1.0
143
1.0
 70
0
 72
1
 73
0
 74
5
  7

 75
16
 76
0
 77
2
 78
300
147
1.0
148
0.0
149
0.0
100
AcDbLayout
  1
Layout1
 70
1
 71
1
 10
0.0
 20
0.0
 11
420.0
 21
297.0
 12
0.0
 22
0.0
 32
0.0
 14
1e+20
 24
1e+20
 34
1e+20
 15
-1e+20
 25
-1e+20
 35
-1e+20
146
0.0
 13
0.0
 23
0.0
 33
0.0
 16
1.0
 26
0.0
 36
0.0
 17
0.0
 27
1.0
 37
0.0
 76
1
330
1B
  0
MATERIAL
  5
1F
102
{ACAD_REACTORS
330
E
102
}
330
E
100
AcDbMaterial
  1
ByBlock
  2

 70
0
 40
1.0
 71
1
 41
1.0
 91
-1023410177
 42
1.0
 72
1
  3

 73
1
 74
1
 75
1
 44
0.5
 73
0
 45
1.0
 46
1.0
 77
1
  4

 78
1
 79
1
170
1
 48
1.0
171
1
  6

172
1
173
1
174
1
140
1.0
141
1.0
175
1
  7

176
1
177
1
178
1
143
1.0
179
1
  8

270
1
271
1
272
1
145
1.0
146
1.0
273
1
  9

274
1
275
1
276
1
 42
1.0
 72
1
  3

 73
1
 74
1
 75
1
 94
63
  0
MATERIAL
  5
20
102
{ACAD_REACTORS
330
E
102
}
330
E
100
AcDbMaterial
  1
ByLayer
  2

 70
0
 40
1.0
 71
1
 41
1.0
 91
-1023410177
 42
1.0
 72
1
  3

 73
1
 74
1
 75
1
 44
0.5
 73
0
 45
1.0
 46
1.0
 77
1
  4

 78
1
 79
1
170
1
 48
1.0
171
1
  6

172
1
173
1
174
1
140
1.0
141
1.0
175
1
  7

176
1
177
1
178
1
143
1.0
179
1
  8

270
1
271
1
272
1
145
1.0
146
1.0
273
1
  9

274
1
275
1
276
1
 42
1.0
 72
1
  3

 73
1
 74
1
 75
1
 94
63
  0
MATERIAL
  5
21
102
{ACAD_REACTORS
330
E
102
}
330
E
100
AcDbMaterial
  1
Global
  2

 70
0
 40
1.0
 71
1
 41
1.0
 91
-1023410177
 42
1.0
 72
1
  3

 73
1
 74
1
 75
1
 44
0.5
 73
0
 45
1.0
 46
1.0
 77
1
  4

 78
1
 79
1
170
1
 48
1.0
171
1
  6

172
1
173
1
174
1
140
1.0
141
1.0
175
1
  7

176
1
177
1
178
1
143
1.0
179
1
  8

270
1
271
1
272
1
145
1.0
146
1.0
273
1
  9

274
1
275
1
276
1
 42
1.0
 72
1
  3

 73
1
 74
1
 75
1
 94
63
  0
MLINESTYLE
  5
22
102
{ACAD_REACTORS
330
10
102
}
330
10
100
AcDbMlineStyle
  2
Standard
 70
0
  3

 62
256
 51
90.0
 52
90.0
 71
2
 49
0.5
 62
256
  6
BYLAYER
 49
-0.5
 62
256
  6
BYLAYER
  0
MLEADERSTYLE
  5
2C
102
{ACAD_REACTORS
330
F
102
}
330
F
100
AcDbMLeaderStyle
179
2
170
2
171
1
172
0
 90
2
 40
0.0
 41
0.0
173
1
 91
-1056964608
 92
-2
290
1
 42
2.0
291
1
 43
8.0
  3
Standard
 44
4.0
300

342
29
174
1
175
1
176
0
178
1
 93
-1056964608
 45
4.0
292
0
297
0
 46
4.0
 94
-1056964608
 47
1.0
 49
1.0
140
1.0
294
1
141
0.0
177
0
142
1.0
295
0
296
0
143
3.75
271
0
272
9
273
9
  0
DICTIONARY
  5
2D
330
A
100
AcDbDictionary
280
1
281
1
  3
CREATED_BY_EZDXF
350
2E
  3
WRITTEN_BY_EZDXF
350
36
  0
DICTIONARYVAR
  5
2E
330
2D
100
DictionaryVariables
280
0
  1
1.4.4 @ 2026-09-23T20:01:29.765734+00:00
  0
DICTIONARYVAR
  5
36
330
2D
100
DictionaryVariables
280
0
  1
1.4.4 @ 2026-09-23T20:01:29.769138+00:00
  0
ENDSEC
  0
EOF
