  0
SECTION
  2
HEADER
  9
$ACADVER
  1
AC1027
  9
$ACADMAINTVER
 70
105
  9
$DWGCODEPAGE
  3
ANSI_1252
  9
$LASTSAVEDBY
  1
ezdxf
  9
$REQUIREDVERSIONS
160
0
  9
$INSBASE
 10
0.0
 20
0.0
 30
0.0
  9
$EXTMIN
 10
1e+20
 20
1e+20
 30
1e+20
  9
$EXTMAX
 10
-1e+20
 20
-1e+20
 30
-1e+20
  9
$LIMMIN
 10
0.0
 20
0.0
  9
$LIMMAX
 10
420.0
 20
297.0
  9
$ORTHOMODE
 70
0
  9
$REGENMODE
 70
1
  9
$FILLMODE
 70
1
  9
$QTEXTMODE
 70
0
  9
$MIRRTEXT
 70
1
  9
$LTSCALE
 40
1.0
  9
$ATTMODE
 70
1
  9
$TEXTSIZE
 40
2.5
  9
$TRACEWID
 40
1.0
  9
$TEXTSTYLE
  7
Standard
  9
$CLAYER
  8
0
  9
$CELTYPE
  6
ByLayer
  9
$CECOLOR
 62
256
  9
$CELTSCALE
 40
1.0
  9
$DISPSILH
 70
0
  9
$DIMSCALE
 40
1.0
  9
$DIMASZ
 40
2.5
  9
$DIMEXO
 40
0.625
  9
$DIMDLI
 40
3.75
  9
$DIMRND
 40
0.0
  9
$DIMDLE
 40
0.0
  9
$DIMEXE
 40
1.25
  9
$DIMTP
 40
0.0
  9
$DIMTM
 40
0.0
  9
$DIMTXT
 40
2.5
  9
$DIMCEN
 40
2.5
  9
$DIMTSZ
 40
0.0
  9
$DIMTOL
 70
0
  9
$DIMLIM
 70
0
  9
$DIMTIH
 70
0
  9
$DIMTOH
 70
0
  9
$DIMSE1
 70
0
  9
$DIMSE2
 70
0
  9
$DIMTAD
 70
1
  9
$DIMZIN
 70
8
  9
$DIMBLK
  1

  9
$DIMASO
 70
1
  9
$DIMSHO
 70
1
  9
$DIMPOST
  1

  9
$DIMAPOST
  1

  9
$DIMALT
 70
0
  9
$DIMALTD
 70
3
  9
$DIMALTF
 40
0.03937007874
  9
$DIMLFAC
 40
1.0
  9
$DIMTOFL
 70
1
  9
$DIMTVP
 40
0.0
  9
$DIMTIX
 70
0
  9
$DIMSOXD
 70
0
  9
$DIMSAH
 70
0
  9
$DIMBLK1
  1

  9
$DIMBLK2
  1

  9
$DIMSTYLE
  2
ISO-25
  9
$DIMCLRD
 70
0
  9
$DIMCLRE
 70
0
  9
$DIMCLRT
 70
0
  9
$DIMTFAC
 40
1.0
  9
$DIMGAP
 40
0.625
  9
$DIMJUST
 70
0
  9
$DIMSD1
 70
0
  9
$DIMSD2
 70
0
  9
$DIMTOLJ
 70
0
  9
$DIMTZIN
 70
8
  9
$DIMALTZ
 70
0
  9
$DIMALTTZ
 70
0
  9
$DIMUPT
 70
0
  9
$DIMDEC
 70
2
  9
$DIMTDEC
 70
2
  9
$DIMALTU
 70
2
  9
$DIMALTTD
 70
3
  9
$DIMTXSTY
  7
Standard
  9
$DIMAUNIT
 70
0
  9
$DIMADEC
 70
0
  9
$DIMALTRND
 40
0.0
  9
$DIMAZIN
 70
0
  9
$DIMDSEP
 70
44
  9
$DIMATFIT
 70
3
  9
$DIMFRAC
 70
0
  9
$DIMLDRBLK
  1

  9
$DIMLUNIT
 70
2
  9
$DIMLWD
 70
-2
  9
$DIMLWE
 70
-2
  9
$DIMTMOVE
 70
0
  9
$DIMFXL
 40
1.0
  9
$DIMFXLON
 70
0
  9
$DIMJOGANG
 40
0.785398163397
  9
$DIMTFILL
 70
0
  9
$DIMTFILLCLR
 70
0
  9
$DIMARCSYM
 70
0
  9
$DIMLTYPE
  6

  9
$DIMLTEX1
  6

  9
$DIMLTEX2
  6

  9
$DIMTXTDIRECTION
 70
0
  9
$LUNITS
 70
2
  9
$LUPREC
 70
4
  9
$SKETCHINC
 40
1.0
  9
$FILLETRAD
 40
10.0
  9
$AUNITS
 70
0
  9
$AUPREC
 70
2
  9
$MENU
  1
.
  9
$ELEVATION
 40
0.0
  9
$PELEVATION
 40
0.0
  9
$THICKNESS
 40
0.0
  9
$LIMCHECK
 70
0
  9
$CHAMFERA
 40
0.0
  9
$CHAMFERB
 40
0.0
  9
$CHAMFERC
 40
0.0
  9
$CHAMFERD
 40
0.0
  9
$SKPOLY
 70
0
  9
$TDCREATE
 40
2461308.063599537
  9
$TDUCREATE
 40
2458532.153996898
  9
$TDUPDATE
 40
2461308.063599537
  9
$TDUUPDATE
 40
2458532.1544311
  9
$TDINDWG
 40
0.0
  9
$TDUSRTIMER
 40
0.0
  9
$USRTIMER
 70
1
  9
$ANGBASE
 50
0.0
  9
$ANGDIR
 70
0
  9
$PDMODE
 70
0
  9
$PDSIZE
 40
0.0
  9
$PLINEWID
 40
0.0
  9
$SPLFRAME
 70
0
  9
$SPLINETYPE
 70
6
  9
$SPLINESEGS
 70
8
  9
$HANDSEED
  5
36
  9
$SURFTAB1
 70
6
  9
$SURFTAB2
 70
6
  9
$SURFTYPE
 70
6
  9
$SURFU
 70
6
  9
$SURFV
 70
6
  9
$UCSBASE
  2

  9
$UCSNAME
  2

  9
$UCSORG
 10
0.0
 20
0.0
 30
0.0
  9
$UCSXDIR
 10
1.0
 20
0.0
 30
0.0
  9
$UCSYDIR
 10
0.0
 20
1.0
 30
0.0
  9
$UCSORTHOREF
  2

  9
$UCSORTHOVIEW
 70
0
  9
$UCSORGTOP
 10
0.0
 20
0.0
 30
0.0
  9
$UCSORGBOTTOM
 10
0.0
 20
0.0
 30
0.0
  9
$UCSORGLEFT
 10
0.0
 20
0.0
 30
0.0
  9
$UCSORGRIGHT
 10
0.0
 20
0.0
 30
0.0
  9
$UCSORGFRONT
 10
0.0
 20
0.0
 30
0.0
  9
$UCSORGBACK
 10
0.0
 20
0.0
 30
0.0
  9
$PUCSBASE
  2

  9
$PUCSNAME
  2

  9
$PUCSORG
 10
0.0
 20
0.0
 30
0.0
  9
$PUCSXDIR
 10
1.0
 20
0.0
 30
0.0
  9
$PUCSYDIR
 10
0.0
 20
1.0
 30
0.0
  9
$PUCSORTHOREF
  2

  9
$PUCSORTHOVIEW
 70
0
  9
$PUCSORGTOP
 10
0.0
 20
0.0
 30
0.0
  9
$PUCSORGBOTTOM
 10
0.0
 20
0.0
 30
0.0
  9
$PUCSORGLEFT
 10
0.0
 20
0.0
 30
0.0
  9
$PUCSORGRIGHT
 10
0.0
 20
0.0
 30
0.0
  9
$PUCSORGFRONT
 10
0.0
 20
0.0
 30
0.0
  9
$PUCSORGBACK
 10
0.0
 20
0.0
 30
0.0
  9
$USERI1
 70
0
  9
$USERI2
 70
0
  9
$USERI3
 70
0
  9
$USERI4
 70
0
  9
$USERI5
 70
0
  9
$USERR1
 40
0.0
  9
$USERR2
 40
0.0
  9
$USERR3
 40
0.0
  9
$USERR4
 40
0.0
  9
$USERR5
 40
0.0
  9
$WORLDVIEW
 70
1
  9
$SHADEDGE
 70
3
  9
$SHADEDIF
 70
70
  9
$TILEMODE
 70
1
  9
$MAXACTVP
 70
64
  9
$PINSBASE
 10
0.0
 20
0.0
 30
0.0
  9
$PLIMCHECK
 70
0
  9
$PEXTMIN
 10
1e+20
 20
1e+20
 30
1e+20
  9
$PEXTMAX
 10
-1e+20
 20
-1e+20
 30
-1e+20
  9
$PLIMMIN
 10
0.0
 20
0.0
  9
$PLIMMAX
 10
420.0
 20
297.0
  9
$UNITMODE
 70
0
  9
$VISRETAIN
 70
1
  9
$PLINEGEN
 70
0
  9
$PSLTSCALE
 70
1
  9
$TREEDEPTH
 70
3020
  9
$CMLSTYLE
  2
Standard
  9
$CMLJUST
 70
0
  9
$CMLSCALE
 40
20.0
  9
$PROXYGRAPHICS
 70
1
  9
$MEASUREMENT
 70
1
  9
$CELWEIGHT
370
-1
  9
$ENDCAPS
280
0
  9
$JOINSTYLE
280
0
  9
$LWDISPLAY
290
0
  9
$INSUNITS
 70
4
  9
$HYPERLINKBASE
  1

  9
$STYLESHEET
  1

  9
$XEDIT
290
1
  9
$CEPSNTYPE
380
0
  9
$PSTYLEMODE
290
1
  9
$FINGERPRINTGUID
  2
{074BA096-175B-48CF-B107-3D81F3CE5AC3}
  9
$VERSIONGUID
  2
{A2D43591-EF76-4B32-92B3-63153A5119DC}
  9
$EXTNAMES
290
1
  9
$PSVPSCALE
 40
0.0
  9
$OLESTARTUP
290
0
  9
$SORTENTS
280
127
  9
$INDEXCTL
280
0
  9
$HIDETEXT
280
1
  9
$XCLIPFRAME
280
1
  9
$HALOGAP
280
0
  9
$OBSCOLOR
 70
257
  9
$OBSLTYPE
280
0
  9
$INTERSECTIONDISPLAY
280
0
  9
$INTERSECTIONCOLOR
 70
257
  9
$DIMASSOC
280
2
  9
$PROJECTNAME
  1

  9
$CAMERADISPLAY
290
0
  9
$LENSLENGTH
 40
50.0
  9
$CAMERAHEIGHT
 40
0.0
  9
$STEPSPERSEC
 40
24.0
  9
$STEPSIZE
 40
100.0
  9
$3DDWFPREC
 40
2.0
  9
$PSOLWIDTH
 40
0.005
  9
$PSOLHEIGHT
 40
0.08
  9
$LOFTANG1
 40
1.570796326795
  9
$LOFTANG2
 40
1.570796326795
  9
$LOFTMAG1
 40
0.0
  9
$LOFTMAG2
 40
0.0
  9
$LOFTPARAM
 70
7
  9
$LOFTNORMALS
280
1
  9
$LATITUDE
 40
37.795
  9
$LONGITUDE
 40
-122.394
  9
$NORTHDIRECTION
 40
0.0
  9
$TIMEZONE
 70
-8000
  9
$LIGHTGLYPHDISPLAY
280
1
  9
$TILEMODELIGHTSYNCH
280
1
  9
$CMATERIAL
347
20
  9
$SOLIDHIST
280
0
  9
$SHOWHIST
280
1
  9
$DWFFRAME
280
2
  9
$DGNFRAME
280
2
  9
$REALWORLDSCALE
290
1
  9
$INTERFERECOLOR
 62
256
  9
$CSHADOW
280
0
  9
$SHADOWPLANELOCATION
 40
0.0
  0
ENDSEC
  0
SECTION
  2
CLASSES
  0
CLASS
  1
ACDBDICTIONARYWDFLT
  2
AcDbDictionaryWithDefault
  3
ObjectDBX Classes
 90
0
 91
0
280
0
281
0
  0
CLASS
  1
SUN
  2
AcDbSun
  3
SCENEOE
 90
1153
 91
0
280
0
281
0
  0
CLASS
  1
VISUALSTYLE
  2
AcDbVisualStyle
  3
ObjectDBX Classes
 90
4095
 91
0
280
0
281
0
  0
CLASS
  1
MATERIAL
  2
AcDbMaterial
  3
ObjectDBX Classes
 90
1153
 91
0
280
0
281
0
  0
CLASS
  1
SCALE
  2
AcDbScale
  3
ObjectDBX Classes
 90
1153
 91
0
280
0
281
0
  0
CLASS
  1
TABLESTYLE
  2
AcDbTableStyle
  3
ObjectDBX Classes
 90
4095
 91
0
280
0
281
0
  0
CLASS
  1
MLEADERSTYLE
  2
AcDbMLeaderStyle
  3
ACDB_MLEADERSTYLE_CLASS
 90
4095
 91
0
280
0
281
0
  0
CLASS
  1
DICTIONARYVAR
  2
AcDbDictionaryVar
  3
ObjectDBX Classes
 90
0
 91
0
280
0
281
0
  0
CLASS
  1
CELLSTYLEMAP
  2
AcDbCellStyleMap
  3
ObjectDBX Classes
 90
1152
 91
0
280
0
281
0
  0
CLASS
  1
MENTALRAYRENDERSETTINGS
  2
AcDbMentalRayRenderSettings
  3
SCENEOE
 90
1024
 91
0
280
0
281
0
  0
CLASS
  1
ACDBDETAILVIEWSTYLE
  2
AcDbDetailViewStyle
  3
ObjectDBX Classes
 90
1025
 91
0
280
0
281
0
  0
CLASS
  1
ACDBSECTIONVIEWSTYLE
  2
AcDbSectionViewStyle
  3
ObjectDBX Classes
 90
1025
 91
0
280
0
281
0
  0
CLASS
  1
RASTERVARIABLES
  2
AcDbRasterVariables
  3
ISM
 90
0
 91
0
280
0
281
0
  0
CLASS
  1
ACDBPLACEHOLDER
  2
AcDbPlaceHolder
  3
ObjectDBX Classes
 90
0
 91
0
280
0
281
0
  0
CLASS
  1
LAYOUT
  2
AcDbLayout
  3
ObjectDBX Classes
 90
0
 91
0
280
0
281
0
  0
ENDSEC
  0
SECTION
  2
TABLES
  0
TABLE
  2
VPORT
  5
8
330
0
100
AcDbSymbolTable
 70
1
  0
VPORT
  5
23
330
8
100
AcDbSymbolTableRecord
100
AcDbViewportTableRecord
  2
*Active
 70
0
 10
0.0
 20
0.0
 11
1.0
 21
1.0
 12
0.0
 22
0.0
 13
0.0
 23
0.0
 14
0.5
 24
0.5
 15
0.5
 25
0.5
 16
0.0
 26
0.0
 36
1.0
 17
0.0
 27
0.0
 37
0.0
 40
1000.0
 41
1.34
 42
50.0
 43
0.0
 44
0.0
 50
0.0
 51
0.0
 71
0
 72
1000
 73
1
 74
3
 75
0
 76
0
 77
0
 78
0
281
0
 65
0
146
0.0
  0
ENDTAB
  0
TABLE
  2
LTYPE
  5
2
330
0
100
AcDbSymbolTable
 70
3
  0
LTYPE
  5
24
330
2
100
AcDbSymbolTableRecord
100
AcDbLinetypeTableRecord
  2
ByBlock
 70
0
  3

 72
65
 73
0
 40
0.0
  0
LTYPE
  5
25
330
2
100
AcDbSymbolTableRecord
100
AcDbLinetypeTableRecord
  2
ByLayer
 70
0
  3

 72
65
 73
0
 40
0.0
  0
LTYPE
  5
26
330
2
100
AcDbSymbolTableRecord
100
AcDbLinetypeTableRecord
  2
Continuous
 70
0
  3

 72
65
 73
0
 40
0.0
  0
ENDTAB
  0
TABLE
  2
LAYER
  5
1
330
0
100
AcDbSymbolTable
 70
2
  0
LAYER
  5
27
330
1
100
AcDbSymbolTableRecord
100
AcDbLayerTableRecord
  2
0
 70
0
 62
7
  6
Continuous
370
-3
390
13
347
21
  0
LAYER
  5
28
330
1
100
AcDbSymbolTableRecord
100
AcDbLayerTableRecord
  2
Defpoints
 70
0
 62
7
  6
Continuous
290
0
370
-3
390
13
347
21
  0
ENDTAB
  0
TABLE
  2
STYLE
  5
5
330
0
100
AcDbSymbolTable
 70
1
  0
STYLE
  5
29
330
5
100
AcDbSymbolTableRecord
100
AcDbTextStyleTableRecord
  2
Standard
 70
0
 40
0.0
 41
1.0
 50
0.0
 71
0
 42
2.5
  3
txt
  4

  0
ENDTAB
  0
TABLE
  2
VIEW
  5
7
330
0
100
AcDbSymbolTable
 70
0
  0
ENDTAB
  0
TABLE
  2
UCS
  5
6
330
0
100
AcDbSymbolTable
 70
0
  0
ENDTAB
  0
TABLE
  2
APPID
  5
3
330
0
100
AcDbSymbolTable
 70
3
  0
APPID
  5
2A
330
3
100
AcDbSymbolTableRecord
100
AcDbRegAppTableRecord
  2
ACAD
 70
0
  0
APPID
  5
33
330
3
100
AcDbSymbolTableRecord
100
AcDbRegAppTableRecord
  2
HATCHBACKGROUNDCOLOR
 70
0
  0
APPID
  5
34
330
3
100
AcDbSymbolTableRecord
100
AcDbRegAppTableRecord
  2
EZDXF
 70
0
  0
ENDTAB
  0
TABLE
  2
DIMSTYLE
  5
4
330
0
100
AcDbSymbolTable
 70
1
100
AcDbDimStyleTable
  0
DIMSTYLE
105
2B
330
4
100
AcDbSymbolTableRecord
100
AcDbDimStyleTableRecord
  2
Standard
 70
0
 40
1.0
 41
2.5
 42
0.625
 43
3.75
 44
1.25
 45
0.0
 46
0.0
 47
0.0
 48
0.0
 49
2.5
140
2.5
141
2.5
142
0.0
143
0.03937007874
144
1.0
145
0.0
146
1.0
147
0.625
148
0.0
 69
0
 70
0
 71
0
 72
0
 73
0
 74
0
 75
0
 76
0
 77
1
 78
8
 79
3
170
0
171
3
172
1
173
0
174
0
175
0
176
0
177
0
178
0
179
2
271
2
272
2
273
2
274
3
275
0
276
0
277
2
278
44
279
0
280
0
281
0
282
0
283
0
284
8
285
0
286
0
288
0
289
3
290
0
371
-2
372
-2
  0
ENDTAB
  0
TABLE
  2
BLOCK_RECORD
  5
9
330
0
100
AcDbSymbolTable
 70
2
  0
BLOCK_RECORD
  5
17
330
9
100
AcDbSymbolTableRecord
100
AcDbBlockTableRecord
  2
*Model_Space
340
1A
 70
0
280
1
281
0
  0
BLOCK_RECORD
  5
1B
330
9
100
AcDbSymbolTableRecord
100
AcDbBlockTableRecord
  2
*Paper_Space
340
1E
 70
0
280
1
281
0
  0
ENDTAB
  0
ENDSEC
  0
SECTION
  2
BLOCKS
  0
BLOCK
  5
18
330
17
100
AcDbEntity
  8
0
100
AcDbBlockBegin
  2
*Model_Space
 70
0
 10
0.0
 20
0.0
 30
0.0
  3
*Model_Space
  1

  0
ENDBLK
  5
19
330
17
100
AcDbEntity
  8
0
100
AcDbBlockEnd
  0
BLOCK
  5
1C
330
1B
100
AcDbEntity
  8
0
100
AcDbBlockBegin
  2
*Paper_Space
 70
0
 10
0.0
 20
0.0
 30
0.0
  3
*Paper_Space
  1

  0
ENDBLK
  5
1D
330
1B
100
AcDbEntity
  8
0
100
AcDbBlockEnd
  0
ENDSEC
  0
SECTION
  2
ENTITIES
  0
LWPOLYLINE
  5
2F
330
17
100
AcDbEntity
  8
0
100
AcDbPolyline
 90
122
 70
1
 10
177.63793398763
 20
1.6513486117540008
 10
174.55535063255002
 20
2.3528647602329986
 10
171.50538049909
 20
3.0349360697659993
 10
169.20462517303002
 20
3.5411297614720016
 10
166.30019450646
 20
4.170104416955001
 10
161.91693685128
 20
5.09898502457
 10
158.19165000133998
 20
5.869109126324
 10
154.90596171849998
 20
6.532723519046
 10
151.57793203494998
 20
7.189472106887001
 10
149.11111770274997
 20
7.665649406759
 10
144.98882014253
 20
8.440409258396
 10
141.83273484295998
 20
9.014946960954001
 10
138.64272581941998
 20
9.578814594518997
 10
135.57365936138999
 20
10.104387423386003
 10
132.65304267159
 20
10.588689212745999
 10
130.35101662428
 20
10.958885704783002
 10
128.01231764660997
 20
11.324687244083998
 10
125.68318568238999
 20
11.678910138354
 10
123.40986067544998
 20
12.014370695294
 10
120.44803131012998
 20
12.435437195352003
 10
116.25631274159
 20
13.000320823769998
 10
112.10619071935997
 20
13.525453785750999
 10
112.11182816347
 20
6.737676484924
 10
107.11182988790998
 20
6.733523842666999
 10
107.10570206000997
 20
14.111748847193
 10
104.77361215055998
 20
14.367639215088
 10
102.47455378881997
 20
14.608674857134
 10
100.22161479772998
 20
14.833583348747
 10
98.02788300027999
 20
15.041092265344
 10
95.18333023488998
 20
15.29240305264
 10
93.01380153764998
 20
15.469929767441004
 10
90.80798798775996
 20
15.637943091116002
 10
88.61094049980997
 20
15.793034096522002
 10
86.46770998840597
 20
15.931793856515002
 10
84.186441204994
 20
16.065297510304
 10
81.87409163432599
 20
16.185638826186
 10
79.53218715739598
 20
16.292570234091997
 10
77.17052230490899
 20
16.385409847261002
 10
73.70371118402699
 20
16.495008426953
 10
73.71048589866598
 20
8.337897985985999
 10
68.71048762310997
 20
8.333745343729001
 10
68.70362117268999
 20
16.601310458103995
 10
65.77091704476996
 20
16.638694594675002
 10
62.85741011654696
 20
16.660778498345998
 10
60.691619826525
 20
16.667863485531996
 10
58.601883030854964
 20
16.665378835665997
 10
56.259580447861
 20
16.648892730583
 10
53.93469817910997
 20
16.615363755542
 10
51.64059973758398
 20
16.562567499927
 10
49.390648636264984
 20
16.488279553123995
 10
47.21763128763598
 20
16.392220939123
 10
45.03470751832597
 20
16.268630423554
 10
42.85063942708999
 20
16.115731497804
 10
40.63453678679997
 20
15.928487392007002
 10
39.17631383742699
 20
15.786683198851003
 10
37.71547958072597
 20
15.629457315365999
 10
36.274147406730975
 20
15.459188149367998
 10
35.56422405692396
 20
15.369760987706998
 10
34.860898760009974
 20
15.277539466099997
 10
33.12634698426098
 20
15.035468160793004
 10
31.434982997954975
 20
14.779411957814
 10
29.183406952757977
 20
14.406735103364001
 10
27.01684559914598
 20
14.012403285981998
 10
24.93697790477998
 20
13.599261189684002
 10
22.94548283732098
 20
13.170153498484
 10
21.91079039808598
 20
12.933640890408002
 10
20.812515747863984
 20
12.671917459278001
 10
19.12326966609598
 20
12.245779155396002
 10
17.38868292373698
 20
11.778701500490003
 10
15.665751364152982
 20
11.284801392398004
 10
14.011470830710977
 20
10.778195728961999
 10
13.06903222168198
 20
10.473116363533999
 10
12.175092368274974
 20
10.172440649445003
 10
11.34598885733098
 20
9.883016254824001
 10
10.67247383210298
 20
9.639914864786002
 10
10.473357790051978
 20
9.566599638870999
 10
9.229457082350976
 20
9.090660083719998
 10
8.10607505736698
 20
8.629868703389997
 10
7.094924835686982
 20
8.184444027754
 10
6.187719537895987
 20
7.754604586683
 10
5.376172284583973
 20
7.340568910050001
 10
4.651996196336981
 20
6.942555527727
 10
4.006904393741976
 20
6.560782969585
 10
3.432609997385981
 20
6.195469765497
 10
2.841489824273978
 20
5.790560564882002
 10
2.3139729917699867
 20
5.400065863891003
 10
1.832465745491973
 20
5.017022010059
 10
1.3793743310569795
 20
4.634465350918001
 10
0.90713067973698
 20
4.221874656380001
 10
0.2700349045079804
 20
3.643315960331
 10
-2.842170943040401e-14
 20
3.3877231025170023
 10
0.25073881386397545
 20
3.3054467732480024
 10
0.7539031076839819
 20
3.1604750564910002
 10
1.9629331043439748
 20
2.858242270179
 10
3.3915968559389853
 20
2.5347266328110027
 10
4.823488353156975
 20
2.2371811679209994
 10
6.04220158668798
 20
2.012858899042998
 10
7.333377908153977
 20
1.8174227778719985
 10
8.65381904023998
 20
1.649055122410001
 10
10.00309043487998
 20
1.5015183663580007
 10
11.380757544007977
 20
1.3685749434160002
 10
13.903266623469975
 20
1.1452592187460002
 10
16.10527562778597
 20
0.9684773432169997
 10
17.422639325037977
 20
0.8718888127569997
 10
19.850341442386977
 20
0.7117931833429996
 10
22.606609131842987
 20
0.5560955660809999
 10
25.574341906527977
 20
0.416747254833
 10
28.73246768032898
 20
0.29616295270399995
 10
30.827247054471982
 20
0.23045585677600045
 10
32.91429484138398
 20
0.17502809244200002
 10
34.260807101742984
 20
0.14426796713600076
 10
38.29527843635097
 20
0.07355970164399928
 10
43.33597965877598
 20
0.020454773959999173
 10
47.936934078414964
 20
0.0
 10
51.833210367456985
 20
0.0013848333600012808
 10
56.20224154733498
 20
0.01180351799900059
 10
63.31596844235597
 20
0.03220383898200119
 10
67.84481077612998
 20
0.04325290576000107
 10
79.52272009416097
 20
0.06446755942200078
 10
98.61694089098998
 20
0.09384302778799913
 10
183.66318591072996
 20
0.246376263238
 10
180.69369195114
 20
0.9444862406490007
  0
LWPOLYLINE
  5
30
330
17
100
AcDbEntity
  8
0
100
AcDbPolyline
 90
91
 70
1
 10
40.30958984247698
 20
5.11536137963
 10
40.30899742194697
 20
4.998603600403998
 10
40.294806434535985
 20
4.882709917020998
 10
40.26721015097999
 20
4.769258715591002
 10
40.226584412216965
 20
4.659795117433001
 10
40.17348251071198
 20
4.555809935659001
 10
40.108627655024975
 20
4.458719371412
 10
40.03290312024498
 20
4.369845726251002
 10
39.94734021843797
 20
4.290399393383
 10
39.85310425293898
 20
4.221462373007002
 10
39.75147864778697
 20
4.163973536270001
 10
39.64384746843797
 20
4.11871583854
 10
39.53167657181896
 20
4.086305656132
 10
39.416493642444976
 20
4.0671843917210015
 10
39.29986738648299
 20
4.061612462763
 10
36.81236997194898
 20
4.096766197168998
 10
34.362916005958965
 20
4.142998215629001
 10
32.27693438978699
 20
4.193040675732002
 10
30.128003739022972
 20
4.2556161423150005
 10
27.93816937390997
 20
4.330861085305999
 10
25.72947661469098
 20
4.418911974631998
 10
23.523970781609975
 20
4.51990528022
 10
21.34369719490998
 20
4.633977471997001
 10
19.21070117483498
 20
4.761265019891001
 10
17.14702804162698
 20
4.901904393828
 10
16.272857049209975
 20
4.966922843095
 10
15.484353570369976
 20
5.027776127931
 10
15.314689932784972
 20
5.055944134909
 10
15.152374588579974
 20
5.112813418038
 10
15.002207851827976
 20
5.196660525926001
 10
14.868633704843973
 20
5.305004116348
 10
14.755605094597982
 20
5.434637906672
 10
14.666466950573977
 20
5.581725559477002
 10
14.60385719608297
 20
5.7419142137899986
 10
14.569628682480982
 20
5.910463302142
 10
14.56479435652598
 20
6.082384841283
 10
14.589497283583981
 20
6.252591044821001
 10
14.643006413800975
 20
6.416044889410999
 10
14.723738216537981
 20
6.567909178678002
 10
14.829303542830985
 20
6.703689693526998
 10
14.956578329032979
 20
6.819368192501999
 10
15.101796049272977
 20
6.911521326232
 10
15.260659180711983
 20
6.977421946845
 10
16.850733019010974
 20
7.465542273634002
 10
18.466393339425977
 20
7.929184169314
 10
20.10357047076897
 20
8.369066375745001
 10
21.758369697775976
 20
8.785355957713998
 10
23.819950555772976
 20
9.266910461036
 10
25.880952944120978
 20
9.709611539098
 10
27.949915840987984
 20
10.117718978822
 10
30.013098113002968
 20
10.490702813402999
 10
32.056758626791975
 20
10.828033076033003
 10
33.73435173648099
 20
11.081821781539
 10
35.39092917786499
 20
11.312811511226998
 10
35.73429426633999
 20
11.358272438251001
 10
36.763947070168996
 20
11.489289373619004
 10
38.16423024009498
 20
11.654709166650003
 10
39.06040724330998
 20
11.752902974315
 10
39.17977678254098
 20
11.757671910343001
 10
39.298873485917994
 20
11.748831353180003
 10
39.41606840780398
 20
11.725863321259
 10
39.52969179790898
 20
11.689095054679997
 10
39.63812479181897
 20
11.639050414228999
 10
39.73982247598198
 20
11.576442417597997
 10
39.83333589907099
 20
11.502163080575999
 10
39.91733271610897
 20
11.417270707930003
 10
39.990616171237974
 20
11.322974815068003
 10
40.05214214864898
 20
11.220618895309004
 10
40.101034048767985
 20
11.111661278279003
 10
40.13659527772299
 20
10.997654352166998
 10
40.15831917215999
 20
10.880222445869999
 10
40.165896217991985
 20
10.761038686142998
 10
40.159218460247985
 20
10.641801159509003
 10
40.13838104117298
 20
10.524208718543003
 10
40.066739371125976
 20
10.204631434580003
 10
40.005746421126986
 20
9.882849627363003
 10
39.95532348841698
 20
9.559243077271
 10
39.915524658483974
 20
9.234158896570998
 10
39.88639262101498
 20
8.907945782489998
 10
39.867958624100964
 20
8.580953643191998
 10
39.86024244072598
 20
8.253533222449002
 10
39.86325234755097
 20
7.926035723425999
 10
39.876985116037986
 20
7.598812431964001
 10
39.901426015917
 20
7.272214339780001
 10
39.93654883098199
 20
6.946591767978001
 10
39.98231588720998
 20
6.622293991282001
 10
40.03867809317697
 20
6.299668863396002
 10
40.10557499271198
 20
5.979062443875
 10
40.18293482974397
 20
5.660818626936001
 10
40.270674625271994
 20
5.345278772582001
 10
40.29657562779599
 20
5.231393100242
  0
LWPOLYLINE
  5
31
330
17
100
AcDbEntity
  8
0
100
AcDbPolyline
 90
50
 70
1
 10
52.35998425375399
 20
8.181674522316998
 10
52.3402710070402
 20
7.8683414384062385
 10
52.281442156575565
 20
7.5599498044048605
 10
52.184425468474615
 20
7.261363140605303
 10
52.050750953863655
 20
6.97729033706271
 10
51.88252673969137
 20
6.712211391585816
 10
51.682405822307516
 20
6.470306757495274
 10
51.45354422812571
 20
6.255391415377526
 10
51.199551241201476
 20
6.070854708561962
 10
50.924432482666674
 20
5.919606891151949
 10
50.63252673969137
 20
5.804033231579114
 10
50.32843754021832
 20
5.725956395495276
 10
50.016960552577274
 20
5.686607701246318
 10
49.70300795493071
 20
5.686607701246318
 10
49.39153096728967
 20
5.725956395495276
 10
49.087441767816614
 20
5.804033231579114
 10
48.79553602484131
 20
5.919606891151949
 10
48.52041726630651
 20
6.070854708561962
 10
48.26642427938228
 20
6.255391415377526
 10
48.03756268520047
 20
6.470306757495278
 10
47.837441767816614
 20
6.712211391585816
 10
47.66921755364433
 20
6.97729033706271
 10
47.53554303903337
 20
7.261363140605306
 10
47.43852635093242
 20
7.559949804404864
 10
47.379697500467785
 20
7.8683414384062385
 10
47.35998425375399
 20
8.181674522317001
 10
47.379697500467785
 20
8.49500760622776
 10
47.43852635093242
 20
8.803399240229139
 10
47.53554303903337
 20
9.101985904028696
 10
47.66921755364433
 20
9.386058707571289
 10
47.837441767816614
 20
9.651137653048183
 10
48.03756268520047
 20
9.893042287138725
 10
48.26642427938228
 20
10.107957629256473
 10
48.52041726630651
 20
10.292494336072037
 10
48.79553602484131
 20
10.44374215348205
 10
49.08744176781664
 20
10.559315813054882
 10
49.3915309672897
 20
10.63739264913872
 10
49.70300795493071
 20
10.676741343387677
 10
50.016960552577274
 20
10.676741343387677
 10
50.32843754021832
 20
10.63739264913872
 10
50.63252673969137
 20
10.559315813054878
 10
50.924432482666674
 20
10.443742153482043
 10
51.199551241201505
 20
10.29249433607203
 10
51.453544228125736
 20
10.107957629256463
 10
51.682405822307516
 20
9.89304228713871
 10
51.88252673969137
 20
9.651137653048172
 10
52.050750953863655
 20
9.386058707571275
 10
52.184425468474615
 20
9.101985904028682
 10
52.281442156575565
 20
8.803399240229124
 10
52.3402710070402
 20
8.495007606227746
  0
LWPOLYLINE
  5
32
330
17
100
AcDbEntity
  8
0
100
AcDbPolyline
 90
50
 70
1
 10
92.40600972777997
 20
7.619674759566001
 10
92.38629648106618
 20
7.306341675655242
 10
92.32746763060155
 20
6.997950041653864
 10
92.2304509425006
 20
6.699363377854306
 10
92.09677642788964
 20
6.4152905743117135
 10
91.92855221371735
 20
6.150211628834819
 10
91.7284312963335
 20
5.908306994744281
 10
91.49956970215169
 20
5.693391652626529
 10
91.24557671522746
 20
5.508854945810965
 10
90.97045795669266
 20
5.357607128400952
 10
90.67855221371735
 20
5.242033468828117
 10
90.3744630142443
 20
5.163956632744279
 10
90.06298602660326
 20
5.124607938495322
 10
89.7490334289567
 20
5.124607938495322
 10
89.43755644131565
 20
5.163956632744279
 10
89.1334672418426
 20
5.242033468828117
 10
88.84156149886729
 20
5.357607128400952
 10
88.56644274033249
 20
5.5088549458109615
 10
88.31244975340826
 20
5.693391652626529
 10
88.08358815922645
 20
5.908306994744281
 10
87.8834672418426
 20
6.150211628834819
 10
87.71524302767031
 20
6.4152905743117135
 10
87.58156851305935
 20
6.699363377854306
 10
87.4845518249584
 20
6.997950041653867
 10
87.42572297449377
 20
7.306341675655242
 10
87.40600972777997
 20
7.619674759566005
 10
87.42572297449377
 20
7.933007843476764
 10
87.4845518249584
 20
8.241399477478142
 10
87.58156851305935
 20
8.5399861412777
 10
87.71524302767031
 20
8.824058944820292
 10
87.8834672418426
 20
9.08913789029719
 10
88.08358815922645
 20
9.331042524387728
 10
88.31244975340826
 20
9.545957866505477
 10
88.56644274033249
 20
9.73049457332104
 10
88.84156149886729
 20
9.88174239073105
 10
89.13346724184262
 20
9.997316050303889
 10
89.43755644131568
 20
10.075392886387723
 10
89.7490334289567
 20
10.11474158063668
 10
90.06298602660326
 20
10.11474158063668
 10
90.3744630142443
 20
10.07539288638772
 10
90.67855221371735
 20
9.997316050303882
 10
90.97045795669266
 20
9.881742390731047
 10
91.24557671522749
 20
9.730494573321034
 10
91.49956970215172
 20
9.54595786650547
 10
91.7284312963335
 20
9.331042524387714
 10
91.92855221371735
 20
9.089137890297176
 10
92.09677642788964
 20
8.824058944820282
 10
92.2304509425006
 20
8.539986141277685
 10
92.32746763060155
 20
8.241399477478128
 10
92.38629648106618
 20
7.93300784347675
  0
ENDSEC
  0
SECTION
  2
OBJECTS
  0
DICTIONARY
  5
A
330
0
100
AcDbDictionary
281
1
  3
ACAD_COLOR
350
B
  3
ACAD_GROUP
350
C
  3
ACAD_LAYOUT
350
D
  3
ACAD_MATERIAL
350
E
  3
ACAD_MLEADERSTYLE
350
F
  3
ACAD_MLINESTYLE
350
10
  3
ACAD_PLOTSETTINGS
350
11
  3
ACAD_PLOTSTYLENAME
350
12
  3
ACAD_SCALELIST
350
14
  3
ACAD_TABLESTYLE
350
15
  3
ACAD_VISUALSTYLE
350
16
  3
EZDXF_META
350
2D
  0
DICTIONARY
  5
B
330
A
100
AcDbDictionary
281
1
  0
DICTIONARY
  5
C
330
A
100
AcDbDictionary
281
1
  0
DICTIONARY
  5
D
330
A
100
AcDbDictionary
281
1
  3
Model
350
1A
  3
Layout1
350
1E
  0
DICTIONARY
  5
E
330
A
100
AcDbDictionary
281
1
  3
ByBlock
350
1F
  3
ByLayer
350
20
  3
Global
350
21
  0
DICTIONARY
  5
F
330
A
100
AcDbDictionary
281
1
  3
Standard
350
2C
  0
DICTIONARY
  5
10
330
A
100
AcDbDictionary
281
1
  3
Standard
350
22
  0
DICTIONARY
  5
11
330
A
100
AcDbDictionary
281
1
  0
ACDBDICTIONARYWDFLT
  5
12
330
A
100
AcDbDictionary
281
1
  3
Normal
350
13
100
AcDbDictionaryWithDefault
340
13
  0
ACDBPLACEHOLDER
  5
13
330
12
  0
DICTIONARY
  5
14
330
A
100
AcDbDictionary
281
1
  0
DICTIONARY
  5
15
330
A
100
AcDbDictionary
281
1
  0
DICTIONARY
  5
16
330
A
100
AcDbDictionary
281
1
  0
LAYOUT
  5
1A
330
D
100
AcDbPlotSettings
  1

  4
A3
  6

 40
7.5
 41
20.0
 42
7.5
 43
20.0
 44
420.0
 45
297.0
 46
0.0
 47
0.0
 48
0.0
 49
0.0
140
0.0
141
0.0
142
1.0
143
1.0
 70
1024
 72
1
 73
0
 74
5
  7

 75
16
 76
0
 77
2
 78
300
147
1.0
148
0.0
149
0.0
100
AcDbLayout
  1
Model
 70
1
 71
0
 10
0.0
 20
0.0
 11
420.0
 21
297.0
 12
0.0
 22
0.0
 32
0.0
 14
1e+20
 24
1e+20
 34
1e+20
 15
-1e+20
 25
-1e+20
 35
-1e+20
146
0.0
 13
0.0
 23
0.0
 33
0.0
 16
1.0
 26
0.0
 36
0.0
 17
0.0
 27
1.0
 37
0.0
 76
1
330
17
  0
LAYOUT
  5
1E
330
D
100
AcDbPlotSettings
  1

  4
A3
  6

 40
7.5
 41
20.0
 42
7.5
 43
20.0
 44
420.0
 45
297.0
 46
0.0
 47
0.0
 48
0.0
 49
0.0
140
0.0
141
0.0
142
1.0
143
1.0
 70
0
 72
1
 73
0
 74
5
  7

 75
16
 76
0
 77
2
 78
300
147
1.0
148
0.0
149
0.0
100
AcDbLayout
  1
Layout1
 70
1
 71
1
 10
0.0
 20
0.0
 11
420.0
 21
297.0
 12
0.0
 22
0.0
 32
0.0
 14
1e+20
 24
1e+20
 34
1e+20
 15
-1e+20
 25
-1e+20
 35
-1e+20
146
0.0
 13
0.0
 23
0.0
 33
0.0
 16
1.0
 26
0.0
 36
0.0
 17
0.0
 27
1.0
 37
0.0
 76
1
330
1B
  0
MATERIAL
  5
1F
102
{ACAD_REACTORS
330
E
102
}
330
E
100
AcDbMaterial
  1
ByBlock
  2

 70
0
 40
1.0
 71
1
 41
1.0
 91
-1023410177
 42
1.0
 72
1
  3

 73
1
 74
1
 75
1
 44
0.5
 73
0
 45
1.0
 46
1.0
 77
1
  4

 78
1
 79
1
170
1
 48
1.0
171
1
  6

172
1
173
1
174
1
140
1.0
141
1.0
175
1
  7

176
1
177
1
178
1
143
1.0
179
1
  8

270
1
271
1
272
1
145
1.0
146
1.0
273
1
  9

274
1
275
1
276
1
 42
1.0
 72
1
  3

 73
1
 74
1
 75
1
 94
63
  0
MATERIAL
  5
20
102
{ACAD_REACTORS
330
E
102
}
330
E
100
AcDbMaterial
  1
ByLayer
  2

 70
0
 40
1.0
 71
1
 41
1.0
 91
-1023410177
 42
1.0
 72
1
  3

 73
1
 74
1
 75
1
 44
0.5
 73
0
 45
1.0
 46
1.0
 77
1
  4

 78
1
 79
1
170
1
 48
1.0
171
1
  6

172
1
173
1
174
1
140
1.0
141
1.0
175
1
  7

176
1
177
1
178
1
143
1.0
179
1
  8

270
1
271
1
272
1
145
1.0
146
1.0
273
1
  9

274
1
275
1
276
1
 42
1.0
 72
1
  3

 73
1
 74
1
 75
1
 94
63
  0
MATERIAL
  5
21
102
{ACAD_REACTORS
330
E
102
}
330
E
100
AcDbMaterial
  1
Global
  2

 70
0
 40
1.0
 71
1
 41
1.0
 91
-1023410177
 42
1.0
 72
1
  3

 73
1
 74
1
 75
1
 44
0.5
 73
0
 45
1.0
 46
1.0
 77
1
  4

 78
1
 79
1
170
1
 48
1.0
171
1
  6

172
1
173
1
174
1
140
1.0
141
1.0
175
1
  7

176
1
177
1
178
1
143
1.0
179
1
  8

270
1
271
1
272
1
145
1.0
146
1.0
273
1
  9

274
1
275
1
276
1
 42
1.0
 72
1
  3

 73
1
 74
1
 75
1
 94
63
  0
MLINESTYLE
  5
22
102
{ACAD_REACTORS
330
10
102
}
330
10
100
AcDbMlineStyle
  2
Standard
 70
0
  3

 62
256
 51
90.0
 52
90.0
 71
2
 49
0.5
 62
256
  6
BYLAYER
 49
-0.5
 62
256
  6
BYLAYER
  0
MLEADERSTYLE
  5
2C
102
{ACAD_REACTORS
330
F
102
}
330
F
100
AcDbMLeaderStyle
179
2
170
2
171
1
172
0
 90
2
 40
0.0
 41
0.0
173
1
 91
-1056964608
 92
-2
290
1
 42
2.0
291
1
 43
8.0
  3
Standard
 44
4.0
300

342
29
174
1
175
1
176
0
178
1
 93
-1056964608
 45
4.0
292
0
297
0
 46
4.0
 94
-1056964608
 47
1.0
 49
1.0
140
1.0
294
1
141
0.0
177
0
142
1.0
295
0
296
0
143
3.75
271
0
272
9
273
9
  0
DICTIONARY
  5
2D
330
A
100
AcDbDictionary
280
1
281
1
  3
CREATED_BY_EZDXF
350
2E
  3
WRITTEN_BY_EZDXF
350
35
  0
DICTIONARYVAR
  5
2E
330
2D
100
DictionaryVariables
280
0
  1
1.4.4 @ 2026-09-23T20:01:35.124574+00:00
  0
DICTIONARYVAR
  5
35
330
2D
100
DictionaryVariables
280
0
  1
1.4.4 @ 2026-09-23T20:01:35.130211+00:00
  0
ENDSEC
  0
EOF
