  0
SECTION
  2
HEADER
  9
$ACADVER
  1
AC1027
  9
$ACADMAINTVER
 70
105
  9
$DWGCODEPAGE
  3
ANSI_1252
  9
$LASTSAVEDBY
  1
ezdxf
  9
$REQUIREDVERSIONS
160
0
  9
$INSBASE
 10
0.0
 20
0.0
 30
0.0
  9
$EXTMIN
 10
1e+20
 20
1e+20
 30
1e+20
  9
$EXTMAX
 10
-1e+20
 20
-1e+20
 30
-1e+20
  9
$LIMMIN
 10
0.0
 20
0.0
  9
$LIMMAX
 10
420.0
 20
297.0
  9
$ORTHOMODE
 70
0
  9
$REGENMODE
 70
1
  9
$FILLMODE
 70
1
  9
$QTEXTMODE
 70
0
  9
$MIRRTEXT
 70
1
  9
$LTSCALE
 40
1.0
  9
$ATTMODE
 70
1
  9
$TEXTSIZE
 40
2.5
  9
$TRACEWID
 40
1.0
  9
$TEXTSTYLE
  7
Standard
  9
$CLAYER
  8
0
  9
$CELTYPE
  6
ByLayer
  9
$CECOLOR
 62
256
  9
$CELTSCALE
 40
1.0
  9
$DISPSILH
 70
0
  9
$DIMSCALE
 40
1.0
  9
$DIMASZ
 40
2.5
  9
$DIMEXO
 40
0.625
  9
$DIMDLI
 40
3.75
  9
$DIMRND
 40
0.0
  9
$DIMDLE
 40
0.0
  9
$DIMEXE
 40
1.25
  9
$DIMTP
 40
0.0
  9
$DIMTM
 40
0.0
  9
$DIMTXT
 40
2.5
  9
$DIMCEN
 40
2.5
  9
$DIMTSZ
 40
0.0
  9
$DIMTOL
 70
0
  9
$DIMLIM
 70
0
  9
$DIMTIH
 70
0
  9
$DIMTOH
 70
0
  9
$DIMSE1
 70
0
  9
$DIMSE2
 70
0
  9
$DIMTAD
 70
1
  9
$DIMZIN
 70
8
  9
$DIMBLK
  1

  9
$DIMASO
 70
1
  9
$DIMSHO
 70
1
  9
$DIMPOST
  1

  9
$DIMAPOST
  1

  9
$DIMALT
 70
0
  9
$DIMALTD
 70
3
  9
$DIMALTF
 40
0.03937007874
  9
$DIMLFAC
 40
1.0
  9
$DIMTOFL
 70
1
  9
$DIMTVP
 40
0.0
  9
$DIMTIX
 70
0
  9
$DIMSOXD
 70
0
  9
$DIMSAH
 70
0
  9
$DIMBLK1
  1

  9
$DIMBLK2
  1

  9
$DIMSTYLE
  2
ISO-25
  9
$DIMCLRD
 70
0
  9
$DIMCLRE
 70
0
  9
$DIMCLRT
 70
0
  9
$DIMTFAC
 40
1.0
  9
$DIMGAP
 40
0.625
  9
$DIMJUST
 70
0
  9
$DIMSD1
 70
0
  9
$DIMSD2
 70
0
  9
$DIMTOLJ
 70
0
  9
$DIMTZIN
 70
8
  9
$DIMALTZ
 70
0
  9
$DIMALTTZ
 70
0
  9
$DIMUPT
 70
0
  9
$DIMDEC
 70
2
  9
$DIMTDEC
 70
2
  9
$DIMALTU
 70
2
  9
$DIMALTTD
 70
3
  9
$DIMTXSTY
  7
Standard
  9
$DIMAUNIT
 70
0
  9
$DIMADEC
 70
0
  9
$DIMALTRND
 40
0.0
  9
$DIMAZIN
 70
0
  9
$DIMDSEP
 70
44
  9
$DIMATFIT
 70
3
  9
$DIMFRAC
 70
0
  9
$DIMLDRBLK
  1

  9
$DIMLUNIT
 70
2
  9
$DIMLWD
 70
-2
  9
$DIMLWE
 70
-2
  9
$DIMTMOVE
 70
0
  9
$DIMFXL
 40
1.0
  9
$DIMFXLON
 70
0
  9
$DIMJOGANG
 40
0.785398163397
  9
$DIMTFILL
 70
0
  9
$DIMTFILLCLR
 70
0
  9
$DIMARCSYM
 70
0
  9
$DIMLTYPE
  6

  9
$DIMLTEX1
  6

  9
$DIMLTEX2
  6

  9
$DIMTXTDIRECTION
 70
0
  9
$LUNITS
 70
2
  9
$LUPREC
 70
4
  9
$SKETCHINC
 40
1.0
  9
$FILLETRAD
 40
10.0
  9
$AUNITS
 70
0
  9
$AUPREC
 70
2
  9
$MENU
  1
.
  9
$ELEVATION
 40
0.0
  9
$PELEVATION
 40
0.0
  9
$THICKNESS
 40
0.0
  9
$LIMCHECK
 70
0
  9
$CHAMFERA
 40
0.0
  9
$CHAMFERB
 40
0.0
  9
$CHAMFERC
 40
0.0
  9
$CHAMFERD
 40
0.0
  9
$SKPOLY
 70
0
  9
$TDCREATE
 40
2461308.063587963
  9
$TDUCREATE
 40
2458532.153996898
  9
$TDUPDATE
 40
2461308.063587963
  9
$TDUUPDATE
 40
2458532.1544311
  9
$TDINDWG
 40
0.0
  9
$TDUSRTIMER
 40
0.0
  9
$USRTIMER
 70
1
  9
$ANGBASE
 50
0.0
  9
$ANGDIR
 70
0
  9
$PDMODE
 70
0
  9
$PDSIZE
 40
0.0
  9
$PLINEWID
 40
0.0
  9
$SPLFRAME
 70
0
  9
$SPLINETYPE
 70
6
  9
$SPLINESEGS
 70
8
  9
$HANDSEED
  5
36
  9
$SURFTAB1
 70
6
  9
$SURFTAB2
 70
6
  9
$SURFTYPE
 70
6
  9
$SURFU
 70
6
  9
$SURFV
 70
6
  9
$UCSBASE
  2

  9
$UCSNAME
  2

  9
$UCSORG
 10
0.0
 20
0.0
 30
0.0
  9
$UCSXDIR
 10
1.0
 20
0.0
 30
0.0
  9
$UCSYDIR
 10
0.0
 20
1.0
 30
0.0
  9
$UCSORTHOREF
  2

  9
$UCSORTHOVIEW
 70
0
  9
$UCSORGTOP
 10
0.0
 20
0.0
 30
0.0
  9
$UCSORGBOTTOM
 10
0.0
 20
0.0
 30
0.0
  9
$UCSORGLEFT
 10
0.0
 20
0.0
 30
0.0
  9
$UCSORGRIGHT
 10
0.0
 20
0.0
 30
0.0
  9
$UCSORGFRONT
 10
0.0
 20
0.0
 30
0.0
  9
$UCSORGBACK
 10
0.0
 20
0.0
 30
0.0
  9
$PUCSBASE
  2

  9
$PUCSNAME
  2

  9
$PUCSORG
 10
0.0
 20
0.0
 30
0.0
  9
$PUCSXDIR
 10
1.0
 20
0.0
 30
0.0
  9
$PUCSYDIR
 10
0.0
 20
1.0
 30
0.0
  9
$PUCSORTHOREF
  2

  9
$PUCSORTHOVIEW
 70
0
  9
$PUCSORGTOP
 10
0.0
 20
0.0
 30
0.0
  9
$PUCSORGBOTTOM
 10
0.0
 20
0.0
 30
0.0
  9
$PUCSORGLEFT
 10
0.0
 20
0.0
 30
0.0
  9
$PUCSORGRIGHT
 10
0.0
 20
0.0
 30
0.0
  9
$PUCSORGFRONT
 10
0.0
 20
0.0
 30
0.0
  9
$PUCSORGBACK
 10
0.0
 20
0.0
 30
0.0
  9
$USERI1
 70
0
  9
$USERI2
 70
0
  9
$USERI3
 70
0
  9
$USERI4
 70
0
  9
$USERI5
 70
0
  9
$USERR1
 40
0.0
  9
$USERR2
 40
0.0
  9
$USERR3
 40
0.0
  9
$USERR4
 40
0.0
  9
$USERR5
 40
0.0
  9
$WORLDVIEW
 70
1
  9
$SHADEDGE
 70
3
  9
$SHADEDIF
 70
70
  9
$TILEMODE
 70
1
  9
$MAXACTVP
 70
64
  9
$PINSBASE
 10
0.0
 20
0.0
 30
0.0
  9
$PLIMCHECK
 70
0
  9
$PEXTMIN
 10
1e+20
 20
1e+20
 30
1e+20
  9
$PEXTMAX
 10
-1e+20
 20
-1e+20
 30
-1e+20
  9
$PLIMMIN
 10
0.0
 20
0.0
  9
$PLIMMAX
 10
420.0
 20
297.0
  9
$UNITMODE
 70
0
  9
$VISRETAIN
 70
1
  9
$PLINEGEN
 70
0
  9
$PSLTSCALE
 70
1
  9
$TREEDEPTH
 70
3020
  9
$CMLSTYLE
  2
Standard
  9
$CMLJUST
 70
0
  9
$CMLSCALE
 40
20.0
  9
$PROXYGRAPHICS
 70
1
  9
$MEASUREMENT
 70
1
  9
$CELWEIGHT
370
-1
  9
$ENDCAPS
280
0
  9
$JOINSTYLE
280
0
  9
$LWDISPLAY
290
0
  9
$INSUNITS
 70
4
  9
$HYPERLINKBASE
  1

  9
$STYLESHEET
  1

  9
$XEDIT
290
1
  9
$CEPSNTYPE
380
0
  9
$PSTYLEMODE
290
1
  9
$FINGERPRINTGUID
  2
{485174B7-42C9-4654-9147-21DAC1D96E3C}
  9
$VERSIONGUID
  2
{FB420215-2299-4D5E-BCE3-31D2F7509C59}
  9
$EXTNAMES
290
1
  9
$PSVPSCALE
 40
0.0
  9
$OLESTARTUP
290
0
  9
$SORTENTS
280
127
  9
$INDEXCTL
280
0
  9
$HIDETEXT
280
1
  9
$XCLIPFRAME
280
1
  9
$HALOGAP
280
0
  9
$OBSCOLOR
 70
257
  9
$OBSLTYPE
280
0
  9
$INTERSECTIONDISPLAY
280
0
  9
$INTERSECTIONCOLOR
 70
257
  9
$DIMASSOC
280
2
  9
$PROJECTNAME
  1

  9
$CAMERADISPLAY
290
0
  9
$LENSLENGTH
 40
50.0
  9
$CAMERAHEIGHT
 40
0.0
  9
$STEPSPERSEC
 40
24.0
  9
$STEPSIZE
 40
100.0
  9
$3DDWFPREC
 40
2.0
  9
$PSOLWIDTH
 40
0.005
  9
$PSOLHEIGHT
 40
0.08
  9
$LOFTANG1
 40
1.570796326795
  9
$LOFTANG2
 40
1.570796326795
  9
$LOFTMAG1
 40
0.0
  9
$LOFTMAG2
 40
0.0
  9
$LOFTPARAM
 70
7
  9
$LOFTNORMALS
280
1
  9
$LATITUDE
 40
37.795
  9
$LONGITUDE
 40
-122.394
  9
$NORTHDIRECTION
 40
0.0
  9
$TIMEZONE
 70
-8000
  9
$LIGHTGLYPHDISPLAY
280
1
  9
$TILEMODELIGHTSYNCH
280
1
  9
$CMATERIAL
347
20
  9
$SOLIDHIST
280
0
  9
$SHOWHIST
280
1
  9
$DWFFRAME
280
2
  9
$DGNFRAME
280
2
  9
$REALWORLDSCALE
290
1
  9
$INTERFERECOLOR
 62
256
  9
$CSHADOW
280
0
  9
$SHADOWPLANELOCATION
 40
0.0
  0
ENDSEC
  0
SECTION
  2
CLASSES
  0
CLASS
  1
ACDBDICTIONARYWDFLT
  2
AcDbDictionaryWithDefault
  3
ObjectDBX Classes
 90
0
 91
0
280
0
281
0
  0
CLASS
  1
SUN
  2
AcDbSun
  3
SCENEOE
 90
1153
 91
0
280
0
281
0
  0
CLASS
  1
VISUALSTYLE
  2
AcDbVisualStyle
  3
ObjectDBX Classes
 90
4095
 91
0
280
0
281
0
  0
CLASS
  1
MATERIAL
  2
AcDbMaterial
  3
ObjectDBX Classes
 90
1153
 91
0
280
0
281
0
  0
CLASS
  1
SCALE
  2
AcDbScale
  3
ObjectDBX Classes
 90
1153
 91
0
280
0
281
0
  0
CLASS
  1
TABLESTYLE
  2
AcDbTableStyle
  3
ObjectDBX Classes
 90
4095
 91
0
280
0
281
0
  0
CLASS
  1
MLEADERSTYLE
  2
AcDbMLeaderStyle
  3
ACDB_MLEADERSTYLE_CLASS
 90
4095
 91
0
280
0
281
0
  0
CLASS
  1
DICTIONARYVAR
  2
AcDbDictionaryVar
  3
ObjectDBX Classes
 90
0
 91
0
280
0
281
0
  0
CLASS
  1
CELLSTYLEMAP
  2
AcDbCellStyleMap
  3
ObjectDBX Classes
 90
1152
 91
0
280
0
281
0
  0
CLASS
  1
MENTALRAYRENDERSETTINGS
  2
AcDbMentalRayRenderSettings
  3
SCENEOE
 90
1024
 91
0
280
0
281
0
  0
CLASS
  1
ACDBDETAILVIEWSTYLE
  2
AcDbDetailViewStyle
  3
ObjectDBX Classes
 90
1025
 91
0
280
0
281
0
  0
CLASS
  1
ACDBSECTIONVIEWSTYLE
  2
AcDbSectionViewStyle
  3
ObjectDBX Classes
 90
1025
 91
0
280
0
281
0
  0
CLASS
  1
RASTERVARIABLES
  2
AcDbRasterVariables
  3
ISM
 90
0
 91
0
280
0
281
0
  0
CLASS
  1
ACDBPLACEHOLDER
  2
AcDbPlaceHolder
  3
ObjectDBX Classes
 90
0
 91
0
280
0
281
0
  0
CLASS
  1
LAYOUT
  2
AcDbLayout
  3
ObjectDBX Classes
 90
0
 91
0
280
0
281
0
  0
ENDSEC
  0
SECTION
  2
TABLES
  0
TABLE
  2
VPORT
  5
8
330
0
100
AcDbSymbolTable
 70
1
  0
VPORT
  5
23
330
8
100
AcDbSymbolTableRecord
100
AcDbViewportTableRecord
  2
*Active
 70
0
 10
0.0
 20
0.0
 11
1.0
 21
1.0
 12
0.0
 22
0.0
 13
0.0
 23
0.0
 14
0.5
 24
0.5
 15
0.5
 25
0.5
 16
0.0
 26
0.0
 36
1.0
 17
0.0
 27
0.0
 37
0.0
 40
1000.0
 41
1.34
 42
50.0
 43
0.0
 44
0.0
 50
0.0
 51
0.0
 71
0
 72
1000
 73
1
 74
3
 75
0
 76
0
 77
0
 78
0
281
0
 65
0
146
0.0
  0
ENDTAB
  0
TABLE
  2
LTYPE
  5
2
330
0
100
AcDbSymbolTable
 70
3
  0
LTYPE
  5
24
330
2
100
AcDbSymbolTableRecord
100
AcDbLinetypeTableRecord
  2
ByBlock
 70
0
  3

 72
65
 73
0
 40
0.0
  0
LTYPE
  5
25
330
2
100
AcDbSymbolTableRecord
100
AcDbLinetypeTableRecord
  2
ByLayer
 70
0
  3

 72
65
 73
0
 40
0.0
  0
LTYPE
  5
26
330
2
100
AcDbSymbolTableRecord
100
AcDbLinetypeTableRecord
  2
Continuous
 70
0
  3

 72
65
 73
0
 40
0.0
  0
ENDTAB
  0
TABLE
  2
LAYER
  5
1
330
0
100
AcDbSymbolTable
 70
2
  0
LAYER
  5
27
330
1
100
AcDbSymbolTableRecord
100
AcDbLayerTableRecord
  2
0
 70
0
 62
7
  6
Continuous
370
-3
390
13
347
21
  0
LAYER
  5
28
330
1
100
AcDbSymbolTableRecord
100
AcDbLayerTableRecord
  2
Defpoints
 70
0
 62
7
  6
Continuous
290
0
370
-3
390
13
347
21
  0
ENDTAB
  0
TABLE
  2
STYLE
  5
5
330
0
100
AcDbSymbolTable
 70
1
  0
STYLE
  5
29
330
5
100
AcDbSymbolTableRecord
100
AcDbTextStyleTableRecord
  2
Standard
 70
0
 40
0.0
 41
1.0
 50
0.0
 71
0
 42
2.5
  3
txt
  4

  0
ENDTAB
  0
TABLE
  2
VIEW
  5
7
330
0
100
AcDbSymbolTable
 70
0
  0
ENDTAB
  0
TABLE
  2
UCS
  5
6
330
0
100
AcDbSymbolTable
 70
0
  0
ENDTAB
  0
TABLE
  2
APPID
  5
3
330
0
100
AcDbSymbolTable
 70
3
  0
APPID
  5
2A
330
3
100
AcDbSymbolTableRecord
100
AcDbRegAppTableRecord
  2
ACAD
 70
0
  0
APPID
  5
33
330
3
100
AcDbSymbolTableRecord
100
AcDbRegAppTableRecord
  2
HATCHBACKGROUNDCOLOR
 70
0
  0
APPID
  5
34
330
3
100
AcDbSymbolTableRecord
100
AcDbRegAppTableRecord
  2
EZDXF
 70
0
  0
ENDTAB
  0
TABLE
  2
DIMSTYLE
  5
4
330
0
100
AcDbSymbolTable
 70
1
100
AcDbDimStyleTable
  0
DIMSTYLE
105
2B
330
4
100
AcDbSymbolTableRecord
100
AcDbDimStyleTableRecord
  2
Standard
 70
0
 40
1.0
 41
2.5
 42
0.625
 43
3.75
 44
1.25
 45
0.0
 46
0.0
 47
0.0
 48
0.0
 49
2.5
140
2.5
141
2.5
142
0.0
143
0.03937007874
144
1.0
145
0.0
146
1.0
147
0.625
148
0.0
 69
0
 70
0
 71
0
 72
0
 73
0
 74
0
 75
0
 76
0
 77
1
 78
8
 79
3
170
0
171
3
172
1
173
0
174
0
175
0
176
0
177
0
178
0
179
2
271
2
272
2
273
2
274
3
275
0
276
0
277
2
278
44
279
0
280
0
281
0
282
0
283
0
284
8
285
0
286
0
288
0
289
3
290
0
371
-2
372
-2
  0
ENDTAB
  0
TABLE
  2
BLOCK_RECORD
  5
9
330
0
100
AcDbSymbolTable
 70
2
  0
BLOCK_RECORD
  5
17
330
9
100
AcDbSymbolTableRecord
100
AcDbBlockTableRecord
  2
*Model_Space
340
1A
 70
0
280
1
281
0
  0
BLOCK_RECORD
  5
1B
330
9
100
AcDbSymbolTableRecord
100
AcDbBlockTableRecord
  2
*Paper_Space
340
1E
 70
0
280
1
281
0
  0
ENDTAB
  0
ENDSEC
  0
SECTION
  2
BLOCKS
  0
BLOCK
  5
18
330
17
100
AcDbEntity
  8
0
100
AcDbBlockBegin
  2
*Model_Space
 70
0
 10
0.0
 20
0.0
 30
0.0
  3
*Model_Space
  1

  0
ENDBLK
  5
19
330
17
100
AcDbEntity
  8
0
100
AcDbBlockEnd
  0
BLOCK
  5
1C
330
1B
100
AcDbEntity
  8
0
100
AcDbBlockBegin
  2
*Paper_Space
 70
0
 10
0.0
 20
0.0
 30
0.0
  3
*Paper_Space
  1

  0
ENDBLK
  5
1D
330
1B
100
AcDbEntity
  8
0
100
AcDbBlockEnd
  0
ENDSEC
  0
SECTION
  2
ENTITIES
  0
LWPOLYLINE
  5
2F
330
17
100
AcDbEntity
  8
0
100
AcDbPolyline
 90
122
 70
1
 10
174.5553506325502
 20
14.314998725298896
 10
177.63793398763
 20
15.016514873778712
 10
180.69369195114007
 20
15.723377244883254
 10
183.66318591073002
 20
16.4214872222947
 10
98.61694089098998
 20
16.57402045774471
 10
79.52272009416097
 20
16.60339592611071
 10
67.84481077612998
 20
16.624610579772703
 10
63.315968442355995
 20
16.6356596465507
 10
56.20224154733498
 20
16.656059967533707
 10
51.83321036745696
 20
16.666478652172707
 10
47.93693407841499
 20
16.667863485532195
 10
43.335979658775955
 20
16.647408711573235
 10
38.29527843635097
 20
16.594303783888734
 10
34.260807101742984
 20
16.523595518396696
 10
32.91429484138398
 20
16.492835393090544
 10
30.827247054471982
 20
16.437407628756812
 10
28.732467680328995
 20
16.37170053282841
 10
25.574341906527977
 20
16.251116230699928
 10
22.606609131843015
 20
16.11176791945119
 10
19.85034144238695
 20
15.95607030219023
 10
17.422639325037963
 20
15.795974672775728
 10
16.10527562778597
 20
15.699386142315745
 10
13.903266623469989
 20
15.522604266786605
 10
11.380757544007992
 20
15.29928854211657
 10
10.003090434879894
 20
15.166345119175581
 10
8.653819040240066
 20
15.01880836312206
 10
7.333377908153949
 20
14.850440707660931
 10
6.042201586688051
 20
14.65500458648931
 10
4.823488353157046
 20
14.430682317611423
 10
3.3915968559389427
 20
14.133136852721819
 10
1.9629331043440885
 20
13.809621215353284
 10
0.7539031076839535
 20
13.507388429041802
 10
0.25073881386396124
 20
13.362416712284737
 10
1.4210854715202004e-13
 20
13.280140383015873
 10
0.2700349045076962
 20
13.02454752520139
 10
0.9071306797371506
 20
12.445988829152896
 10
1.3793743310565105
 20
12.033398134614151
 10
1.8324657454920867
 20
11.650841475473829
 10
2.3139729917700578
 20
11.267797621641808
 10
2.841489824274049
 20
10.877302920650811
 10
3.432609997386024
 20
10.472393720035779
 10
4.006904393741877
 20
10.107080515947532
 10
4.6519961963370235
 20
9.725307957805787
 10
5.37617228458376
 20
9.327294575482266
 10
6.187719537896044
 20
8.913258898849847
 10
7.094924835687053
 20
8.483419457778863
 10
8.10607505736678
 20
8.037994782142245
 10
9.229457082351217
 20
7.57720340181332
 10
10.473357790051963
 20
7.101263846661669
 10
10.672473832103094
 20
7.0279486207470265
 10
11.345988857330866
 20
6.784847230708393
 10
12.175092368275017
 20
6.495422836087822
 10
13.069032221682093
 20
6.19474712199905
 10
14.011470830711161
 20
5.889667756571287
 10
15.665751364152811
 20
5.383062093134097
 10
17.388682923737008
 20
4.889161985042804
 10
19.123269666095936
 20
4.422084330136521
 10
20.81251574786407
 20
3.9959460262550675
 10
21.910790398085993
 20
3.7342225951247787
 10
22.945482837321066
 20
3.497709987049067
 10
24.93697790477988
 20
3.0686022958482067
 10
27.016845599145924
 20
2.655460199550415
 10
29.183406952758133
 20
2.2611283821696198
 10
31.43498299795472
 20
1.8884515277169847
 10
33.12634698426098
 20
1.6323953247397718
 10
34.860898760009945
 20
1.3903240194325406
 10
35.56422405692402
 20
1.2981024978260383
 10
36.274147406731004
 20
1.2086753361650207
 10
37.715479580726026
 20
1.038406170166974
 10
39.17631383742702
 20
0.8811802866820653
 10
40.63453678680003
 20
0.7393760935260794
 10
42.85063942708993
 20
0.552131987728048
 10
45.03470751832597
 20
0.39923306197868413
 10
47.21763128763601
 20
0.2756425464102694
 10
49.390648636264956
 20
0.17958393240820847
 10
51.64059973758398
 20
0.10529598560541231
 10
53.93469817911
 20
0.05249972999118846
 10
56.25958044786097
 20
0.0189707549496152
 10
58.60188303085499
 20
0.002484649867204425
 10
60.69161982652497
 20
0.0
 10
62.85741011654696
 20
0.0070849871868006176
 10
65.77091704476999
 20
0.02916889085788199
 10
68.70362117269033
 20
0.06655302742870361
 10
68.71048762310997
 20
8.334118141804037
 10
73.7104858986661
 20
8.329965499546704
 10
73.70371118402699
 20
0.17285505857993222
 10
77.17052230490899
 20
0.2824536382713969
 10
79.53218715739598
 20
0.3752932514408993
 10
81.87409163432596
 20
0.48222465934697034
 10
84.186441204994
 20
0.6025659752281687
 10
86.46770998840597
 20
0.7360696290175035
 10
88.61094049980994
 20
0.8748293890111078
 10
90.80798798775996
 20
1.0299203944169477
 10
93.01380153765004
 20
1.197933718091038
 10
95.18333023488992
 20
1.3754604328931936
 10
98.0278830002799
 20
1.626771220189509
 10
100.2216147977301
 20
1.834280136784475
 10
102.47455378882003
 20
2.059188628398175
 10
104.77361215055993
 20
2.300224270445213
 10
107.1057020600114
 20
2.5561146383397055
 10
107.11182988790998
 20
9.934339642865964
 10
112.11182816347161
 20
9.930187000608704
 10
112.10619071935977
 20
3.1424096997834265
 10
116.25631274159011
 20
3.6675426617618054
 10
120.44803131013003
 20
4.232426290180387
 10
123.40986067544998
 20
4.653492790238699
 10
125.68318568239025
 20
4.988953347177102
 10
128.01231764661006
 20
5.343176241448205
 10
130.35101662428002
 20
5.708977780749564
 10
132.65304267158976
 20
6.0791742727881015
 10
135.5736593613903
 20
6.563476062144904
 10
138.6427258194198
 20
7.089048891014682
 10
141.83273484296026
 20
7.652916524577204
 10
144.98882014253022
 20
8.227454227135482
 10
149.11111770275002
 20
9.002214078773378
 10
151.57793203494955
 20
9.478391378647908
 10
154.90596171850004
 20
10.135139966486383
 10
158.19165000133967
 20
10.798754359210278
 10
161.91693685128035
 20
11.568878460961116
 10
166.30019450646006
 20
12.49775906857747
 10
169.2046251730294
 20
13.126733724063342
 10
171.5053804990905
 20
13.632927415764486
  0
LWPOLYLINE
  5
30
330
17
100
AcDbEntity
  8
0
100
AcDbPolyline
 90
91
 70
1
 10
40.308997421947424
 20
11.669259885128707
 10
40.3095898424763
 20
11.552502105902782
 10
40.29657562779599
 20
11.436470385290706
 10
40.27067462527219
 20
11.32258471295064
 10
40.18293482974423
 20
11.00704485859664
 10
40.105574992712036
 20
10.68880104165769
 10
40.03867809317708
 20
10.368194622136688
 10
39.982315887210206
 20
10.045569494250675
 10
39.93654883098108
 20
9.721271717554801
 10
39.90142601591705
 20
9.3956491457527
 10
39.87698511603861
 20
9.069051053568677
 10
39.86325234755046
 20
8.741827762106709
 10
39.860242440725756
 20
8.414330263083698
 10
39.86795862410165
 20
8.086909842340742
 10
39.88639262101432
 20
7.759917703042648
 10
39.91552465848392
 20
7.433704588961698
 10
39.95532348841698
 20
7.108620408261705
 10
40.00574642112775
 20
6.785013858169851
 10
40.06673937112569
 20
6.46323205095264
 10
40.13838104117289
 20
6.1436547669896875
 10
40.159218460248155
 20
6.0260623260237125
 10
40.16589621799213
 20
5.906824799389696
 10
40.15831917215928
 20
5.787641039662834
 10
40.13659527772356
 20
5.670209133365528
 10
40.10103404876796
 20
5.556202207253712
 10
40.05214214864864
 20
5.447244590223898
 10
39.99061617123772
 20
5.344888670464906
 10
39.91733271610937
 20
5.250592777602327
 10
39.8333358990709
 20
5.165700404956814
 10
39.739822475982265
 20
5.091421067934235
 10
39.63812479181888
 20
5.028813071303945
 10
39.529691797909095
 20
4.978768430852314
 10
39.416068407804005
 20
4.942000164273621
 10
39.298873485917966
 20
4.919032132352903
 10
39.17977678254098
 20
4.910191575190021
 10
39.06040724331001
 20
4.914960511217849
 10
38.164230240095065
 20
5.013154318883398
 10
36.763947070169024
 20
5.178574111913992
 10
35.73429426633999
 20
5.309591047281705
 10
35.39092917786488
 20
5.35505197430494
 10
33.7343517364809
 20
5.586041703993313
 10
32.05675862679212
 20
5.8398304095005305
 10
30.013098113002883
 20
6.177160672129178
 10
27.94991584098777
 20
6.550144506709664
 10
25.880952944120992
 20
6.9582519464347685
 10
23.81995055577302
 20
7.400953024496898
 10
21.75836969777602
 20
7.882507527818879
 10
20.103570470768588
 20
8.298797109786266
 10
18.46639333942612
 20
8.738679316219212
 10
16.850733019010946
 20
9.202321211898589
 10
15.260659180711869
 20
9.690441538687443
 10
15.101796049272806
 20
9.756342159300438
 10
14.956578329033334
 20
9.848495293031082
 10
14.829303542831141
 20
9.96417379200583
 10
14.723738216537853
 20
10.099954306854638
 10
14.643006413800308
 20
10.251818596121481
 10
14.58949728358401
 20
10.415272440711709
 10
14.564794356526491
 20
10.58547864424969
 10
14.569628682481365
 20
10.757400183390622
 10
14.603857196082856
 20
10.925949271742752
 10
14.666466950573508
 20
11.086137926055992
 10
14.755605094598266
 20
11.233225578860447
 10
14.868633704843916
 20
11.362859369184786
 10
15.002207851827848
 20
11.471202959606941
 10
15.15237458857996
 20
11.555050067494726
 10
15.31468993278503
 20
11.611919350623396
 10
15.484353570369976
 20
11.640087357601713
 10
16.272857049209975
 20
11.700940642437724
 10
17.147028041626996
 20
11.765959091704392
 10
19.210701174834952
 20
11.906598465642096
 10
21.343697194909993
 20
12.033886013535483
 10
23.523970781609975
 20
12.147958205312689
 10
25.729476614690967
 20
12.24895151090074
 10
27.93816937390997
 20
12.337002400226696
 10
30.128003739022986
 20
12.412247343217516
 10
32.27693438978696
 20
12.474822809801113
 10
34.36291600595899
 20
12.524865269903326
 10
36.81236997194898
 20
12.571097288364129
 10
39.29986738648299
 20
12.606251022770122
 10
39.41649364244495
 20
12.600679093811628
 10
39.531676571818906
 20
12.581557829400484
 10
39.64384746843794
 20
12.549147646992667
 10
39.75147864778694
 20
12.50388994926263
 10
39.85310425293915
 20
12.446401112525942
 10
39.947340218437716
 20
12.37746409214941
 10
40.03290312024512
 20
12.29801775928182
 10
40.10862765502492
 20
12.209144114120669
 10
40.17348251071178
 20
12.112053549873604
 10
40.22658441221694
 20
12.00806836809968
 10
40.26721015097982
 20
11.898604769941663
 10
40.29480643453647
 20
11.785153568511763
  0
LWPOLYLINE
  5
31
330
17
100
AcDbEntity
  8
0
100
AcDbPolyline
 90
50
 70
1
 10
52.35998425375399
 20
8.486188963215705
 10
52.3402710070402
 20
8.799522047126466
 10
52.281442156575565
 20
9.107913681127842
 10
52.184425468474615
 20
9.4065003449274
 10
52.050750953863655
 20
9.690573148469994
 10
51.88252673969137
 20
9.955652093946888
 10
51.682405822307516
 20
10.197556728037426
 10
51.45354422812571
 20
10.412472070155179
 10
51.199551241201476
 20
10.597008776970743
 10
50.924432482666674
 20
10.748256594380754
 10
50.63252673969137
 20
10.863830253953589
 10
50.32843754021832
 20
10.941907090037427
 10
50.016960552577274
 20
10.981255784286384
 10
49.70300795493071
 20
10.981255784286384
 10
49.39153096728967
 20
10.941907090037427
 10
49.087441767816614
 20
10.863830253953589
 10
48.79553602484131
 20
10.748256594380754
 10
48.52041726630651
 20
10.597008776970743
 10
48.26642427938228
 20
10.412472070155179
 10
48.03756268520047
 20
10.197556728037426
 10
47.837441767816614
 20
9.955652093946886
 10
47.66921755364433
 20
9.690573148469992
 10
47.53554303903337
 20
9.406500344927398
 10
47.43852635093242
 20
9.10791368112784
 10
47.379697500467785
 20
8.799522047126462
 10
47.35998425375399
 20
8.486188963215703
 10
47.379697500467785
 20
8.17285587930494
 10
47.43852635093242
 20
7.864464245303564
 10
47.53554303903337
 20
7.565877581504006
 10
47.66921755364433
 20
7.281804777961413
 10
47.837441767816614
 20
7.016725832484518
 10
48.03756268520047
 20
6.77482119839398
 10
48.26642427938228
 20
6.559905856276229
 10
48.52041726630651
 20
6.3753691494606635
 10
48.79553602484131
 20
6.224121332050654
 10
49.08744176781664
 20
6.108547672477819
 10
49.3915309672897
 20
6.030470836393983
 10
49.70300795493071
 20
5.991122142145025
 10
50.016960552577274
 20
5.991122142145025
 10
50.32843754021832
 20
6.0304708363939845
 10
50.63252673969137
 20
6.108547672477824
 10
50.924432482666674
 20
6.224121332050659
 10
51.199551241201505
 20
6.375369149460672
 10
51.453544228125736
 20
6.559905856276238
 10
51.682405822307516
 20
6.77482119839399
 10
51.88252673969137
 20
7.01672583248453
 10
52.050750953863655
 20
7.281804777961426
 10
52.184425468474615
 20
7.5658775815040205
 10
52.281442156575565
 20
7.864464245303579
 10
52.3402710070402
 20
8.172855879304956
  0
LWPOLYLINE
  5
32
330
17
100
AcDbEntity
  8
0
100
AcDbPolyline
 90
50
 70
1
 10
92.40600972777997
 20
9.048188725966703
 10
92.38629648106618
 20
9.361521809877464
 10
92.32746763060155
 20
9.66991344387884
 10
92.2304509425006
 20
9.968500107678398
 10
92.09677642788964
 20
10.252572911220991
 10
91.92855221371735
 20
10.517651856697887
 10
91.7284312963335
 20
10.759556490788425
 10
91.49956970215169
 20
10.974471832906175
 10
91.24557671522746
 20
11.159008539721741
 10
90.97045795669266
 20
11.310256357131752
 10
90.67855221371735
 20
11.425830016704587
 10
90.3744630142443
 20
11.503906852788425
 10
90.06298602660326
 20
11.543255547037383
 10
89.7490334289567
 20
11.543255547037383
 10
89.43755644131565
 20
11.503906852788425
 10
89.1334672418426
 20
11.425830016704587
 10
88.84156149886729
 20
11.310256357131752
 10
88.56644274033249
 20
11.159008539721741
 10
88.31244975340826
 20
10.974471832906175
 10
88.08358815922645
 20
10.759556490788425
 10
87.8834672418426
 20
10.517651856697885
 10
87.71524302767031
 20
10.252572911220991
 10
87.58156851305935
 20
9.968500107678397
 10
87.4845518249584
 20
9.669913443878837
 10
87.42572297449377
 20
9.36152180987746
 10
87.40600972777997
 20
9.0481887259667
 10
87.42572297449377
 20
8.73485564205594
 10
87.4845518249584
 20
8.426464008054563
 10
87.58156851305935
 20
8.127877344255005
 10
87.71524302767031
 20
7.843804540712411
 10
87.8834672418426
 20
7.578725595235516
 10
88.08358815922645
 20
7.336820961144978
 10
88.31244975340826
 20
7.121905619027228
 10
88.56644274033249
 20
6.937368912211662
 10
88.84156149886729
 20
6.786121094801652
 10
89.13346724184262
 20
6.670547435228817
 10
89.43755644131568
 20
6.59247059914498
 10
89.7490334289567
 20
6.553121904896024
 10
90.06298602660326
 20
6.553121904896025
 10
90.3744630142443
 20
6.592470599144983
 10
90.67855221371735
 20
6.670547435228822
 10
90.97045795669266
 20
6.786121094801658
 10
91.24557671522749
 20
6.937368912211671
 10
91.49956970215172
 20
7.1219056190272365
 10
91.7284312963335
 20
7.336820961144989
 10
91.92855221371735
 20
7.578725595235529
 10
92.09677642788964
 20
7.843804540712425
 10
92.2304509425006
 20
8.127877344255019
 10
92.32746763060155
 20
8.426464008054577
 10
92.38629648106618
 20
8.734855642055955
  0
ENDSEC
  0
SECTION
  2
OBJECTS
  0
DICTIONARY
  5
A
330
0
100
AcDbDictionary
281
1
  3
ACAD_COLOR
350
B
  3
ACAD_GROUP
350
C
  3
ACAD_LAYOUT
350
D
  3
ACAD_MATERIAL
350
E
  3
ACAD_MLEADERSTYLE
350
F
  3
ACAD_MLINESTYLE
350
10
  3
ACAD_PLOTSETTINGS
350
11
  3
ACAD_PLOTSTYLENAME
350
12
  3
ACAD_SCALELIST
350
14
  3
ACAD_TABLESTYLE
350
15
  3
ACAD_VISUALSTYLE
350
16
  3
EZDXF_META
350
2D
  0
DICTIONARY
  5
B
330
A
100
AcDbDictionary
281
1
  0
DICTIONARY
  5
C
330
A
100
AcDbDictionary
281
1
  0
DICTIONARY
  5
D
330
A
100
AcDbDictionary
281
1
  3
Model
350
1A
  3
Layout1
350
1E
  0
DICTIONARY
  5
E
330
A
100
AcDbDictionary
281
1
  3
ByBlock
350
1F
  3
ByLayer
350
20
  3
Global
350
21
  0
DICTIONARY
  5
F
330
A
100
AcDbDictionary
281
1
  3
Standard
350
2C
  0
DICTIONARY
  5
10
330
A
100
AcDbDictionary
281
1
  3
Standard
350
22
  0
DICTIONARY
  5
11
330
A
100
AcDbDictionary
281
1
  0
ACDBDICTIONARYWDFLT
  5
12
330
A
100
AcDbDictionary
281
1
  3
Normal
350
13
100
AcDbDictionaryWithDefault
340
13
  0
ACDBPLACEHOLDER
  5
13
330
12
  0
DICTIONARY
  5
14
330
A
100
AcDbDictionary
281
1
  0
DICTIONARY
  5
15
330
A
100
AcDbDictionary
281
1
  0
DICTIONARY
  5
16
330
A
100
AcDbDictionary
281
1
  0
LAYOUT
  5
1A
330
D
100
AcDbPlotSettings
  1

  4
A3
  6

 40
7.5
 41
20.0
 42
7.5
 43
20.0
 44
420.0
 45
297.0
 46
0.0
 47
0.0
 48
0.0
 49
0.0
140
0.0
141
0.0
142
1.0
143
1.0
 70
1024
 72
1
 73
0
 74
5
  7

 75
16
 76
0
 77
2
 78
300
147
1.0
148
0.0
149
0.0
100
AcDbLayout
  1
Model
 70
1
 71
0
 10
0.0
 20
0.0
 11
420.0
 21
297.0
 12
0.0
 22
0.0
 32
0.0
 14
1e+20
 24
1e+20
 34
1e+20
 15
-1e+20
 25
-1e+20
 35
-1e+20
146
0.0
 13
0.0
 23
0.0
 33
0.0
 16
1.0
 26
0.0
 36
0.0
 17
0.0
 27
1.0
 37
0.0
 76
1
330
17
  0
LAYOUT
  5
1E
330
D
100
AcDbPlotSettings
  1

  4
A3
  6

 40
7.5
 41
20.0
 42
7.5
 43
20.0
 44
420.0
 45
297.0
 46
0.0
 47
0.0
 48
0.0
 49
0.0
140
0.0
141
0.0
142
1.0
143
1.0
 70
0
 72
1
 73
0
 74
5
  7

 75
16
 76
0
 77
2
 78
300
147
1.0
148
0.0
149
0.0
100
AcDbLayout
  1
Layout1
 70
1
 71
1
 10
0.0
 20
0.0
 11
420.0
 21
297.0
 12
0.0
 22
0.0
 32
0.0
 14
1e+20
 24
1e+20
 34
1e+20
 15
-1e+20
 25
-1e+20
 35
-1e+20
146
0.0
 13
0.0
 23
0.0
 33
0.0
 16
1.0
 26
0.0
 36
0.0
 17
0.0
 27
1.0
 37
0.0
 76
1
330
1B
  0
MATERIAL
  5
1F
102
{ACAD_REACTORS
330
E
102
}
330
E
100
AcDbMaterial
  1
ByBlock
  2

 70
0
 40
1.0
 71
1
 41
1.0
 91
-1023410177
 42
1.0
 72
1
  3

 73
1
 74
1
 75
1
 44
0.5
 73
0
 45
1.0
 46
1.0
 77
1
  4

 78
1
 79
1
170
1
 48
1.0
171
1
  6

172
1
173
1
174
1
140
1.0
141
1.0
175
1
  7

176
1
177
1
178
1
143
1.0
179
1
  8

270
1
271
1
272
1
145
1.0
146
1.0
273
1
  9

274
1
275
1
276
1
 42
1.0
 72
1
  3

 73
1
 74
1
 75
1
 94
63
  0
MATERIAL
  5
20
102
{ACAD_REACTORS
330
E
102
}
330
E
100
AcDbMaterial
  1
ByLayer
  2

 70
0
 40
1.0
 71
1
 41
1.0
 91
-1023410177
 42
1.0
 72
1
  3

 73
1
 74
1
 75
1
 44
0.5
 73
0
 45
1.0
 46
1.0
 77
1
  4

 78
1
 79
1
170
1
 48
1.0
171
1
  6

172
1
173
1
174
1
140
1.0
141
1.0
175
1
  7

176
1
177
1
178
1
143
1.0
179
1
  8

270
1
271
1
272
1
145
1.0
146
1.0
273
1
  9

274
1
275
1
276
1
 42
1.0
 72
1
  3

 73
1
 74
1
 75
1
 94
63
  0
MATERIAL
  5
21
102
{ACAD_REACTORS
330
E
102
}
330
E
100
AcDbMaterial
  1
Global
  2

 70
0
 40
1.0
 71
1
 41
1.0
 91
-1023410177
 42
1.0
 72
1
  3

 73
1
 74
1
 75
1
 44
0.5
 73
0
 45
1.0
 46
1.0
 77
1
  4

 78
1
 79
1
170
1
 48
1.0
171
1
  6

172
1
173
1
174
1
140
1.0
141
1.0
175
1
  7

176
1
177
1
178
1
143
1.0
179
1
  8

270
1
271
1
272
1
145
1.0
146
1.0
273
1
  9

274
1
275
1
276
1
 42
1.0
 72
1
  3

 73
1
 74
1
 75
1
 94
63
  0
MLINESTYLE
  5
22
102
{ACAD_REACTORS
330
10
102
}
330
10
100
AcDbMlineStyle
  2
Standard
 70
0
  3

 62
256
 51
90.0
 52
90.0
 71
2
 49
0.5
 62
256
  6
BYLAYER
 49
-0.5
 62
256
  6
BYLAYER
  0
MLEADERSTYLE
  5
2C
102
{ACAD_REACTORS
330
F
102
}
330
F
100
AcDbMLeaderStyle
179
2
170
2
171
1
172
0
 90
2
 40
0.0
 41
0.0
173
1
 91
-1056964608
 92
-2
290
1
 42
2.0
291
1
 43
8.0
  3
Standard
 44
4.0
300

342
29
174
1
175
1
176
0
178
1
 93
-1056964608
 45
4.0
292
0
297
0
 46
4.0
 94
-1056964608
 47
1.0
 49
1.0
140
1.0
294
1
141
0.0
177
0
142
1.0
295
0
296
0
143
3.75
271
0
272
9
273
9
  0
DICTIONARY
  5
2D
330
A
100
AcDbDictionary
280
1
281
1
  3
CREATED_BY_EZDXF
350
2E
  3
WRITTEN_BY_EZDXF
350
35
  0
DICTIONARYVAR
  5
2E
330
2D
100
DictionaryVariables
280
0
  1
1.4.4 @ 2026-09-23T20:01:34.691050+00:00
  0
DICTIONARYVAR
  5
35
330
2D
100
DictionaryVariables
280
0
  1
1.4.4 @ 2026-09-23T20:01:34.697650+00:00
  0
ENDSEC
  0
EOF
