  0
SECTION
  2
HEADER
  9
$ACADVER
  1
AC1027
  9
$ACADMAINTVER
 70
105
  9
$DWGCODEPAGE
  3
ANSI_1252
  9
$LASTSAVEDBY
  1
ezdxf
  9
$REQUIREDVERSIONS
160
0
  9
$INSBASE
 10
0.0
 20
0.0
 30
0.0
  9
$EXTMIN
 10
1e+20
 20
1e+20
 30
1e+20
  9
$EXTMAX
 10
-1e+20
 20
-1e+20
 30
-1e+20
  9
$LIMMIN
 10
0.0
 20
0.0
  9
$LIMMAX
 10
420.0
 20
297.0
  9
$ORTHOMODE
 70
0
  9
$REGENMODE
 70
1
  9
$FILLMODE
 70
1
  9
$QTEXTMODE
 70
0
  9
$MIRRTEXT
 70
1
  9
$LTSCALE
 40
1.0
  9
$ATTMODE
 70
1
  9
$TEXTSIZE
 40
2.5
  9
$TRACEWID
 40
1.0
  9
$TEXTSTYLE
  7
Standard
  9
$CLAYER
  8
0
  9
$CELTYPE
  6
ByLayer
  9
$CECOLOR
 62
256
  9
$CELTSCALE
 40
1.0
  9
$DISPSILH
 70
0
  9
$DIMSCALE
 40
1.0
  9
$DIMASZ
 40
2.5
  9
$DIMEXO
 40
0.625
  9
$DIMDLI
 40
3.75
  9
$DIMRND
 40
0.0
  9
$DIMDLE
 40
0.0
  9
$DIMEXE
 40
1.25
  9
$DIMTP
 40
0.0
  9
$DIMTM
 40
0.0
  9
$DIMTXT
 40
2.5
  9
$DIMCEN
 40
2.5
  9
$DIMTSZ
 40
0.0
  9
$DIMTOL
 70
0
  9
$DIMLIM
 70
0
  9
$DIMTIH
 70
0
  9
$DIMTOH
 70
0
  9
$DIMSE1
 70
0
  9
$DIMSE2
 70
0
  9
$DIMTAD
 70
1
  9
$DIMZIN
 70
8
  9
$DIMBLK
  1

  9
$DIMASO
 70
1
  9
$DIMSHO
 70
1
  9
$DIMPOST
  1

  9
$DIMAPOST
  1

  9
$DIMALT
 70
0
  9
$DIMALTD
 70
3
  9
$DIMALTF
 40
0.03937007874
  9
$DIMLFAC
 40
1.0
  9
$DIMTOFL
 70
1
  9
$DIMTVP
 40
0.0
  9
$DIMTIX
 70
0
  9
$DIMSOXD
 70
0
  9
$DIMSAH
 70
0
  9
$DIMBLK1
  1

  9
$DIMBLK2
  1

  9
$DIMSTYLE
  2
ISO-25
  9
$DIMCLRD
 70
0
  9
$DIMCLRE
 70
0
  9
$DIMCLRT
 70
0
  9
$DIMTFAC
 40
1.0
  9
$DIMGAP
 40
0.625
  9
$DIMJUST
 70
0
  9
$DIMSD1
 70
0
  9
$DIMSD2
 70
0
  9
$DIMTOLJ
 70
0
  9
$DIMTZIN
 70
8
  9
$DIMALTZ
 70
0
  9
$DIMALTTZ
 70
0
  9
$DIMUPT
 70
0
  9
$DIMDEC
 70
2
  9
$DIMTDEC
 70
2
  9
$DIMALTU
 70
2
  9
$DIMALTTD
 70
3
  9
$DIMTXSTY
  7
Standard
  9
$DIMAUNIT
 70
0
  9
$DIMADEC
 70
0
  9
$DIMALTRND
 40
0.0
  9
$DIMAZIN
 70
0
  9
$DIMDSEP
 70
44
  9
$DIMATFIT
 70
3
  9
$DIMFRAC
 70
0
  9
$DIMLDRBLK
  1

  9
$DIMLUNIT
 70
2
  9
$DIMLWD
 70
-2
  9
$DIMLWE
 70
-2
  9
$DIMTMOVE
 70
0
  9
$DIMFXL
 40
1.0
  9
$DIMFXLON
 70
0
  9
$DIMJOGANG
 40
0.785398163397
  9
$DIMTFILL
 70
0
  9
$DIMTFILLCLR
 70
0
  9
$DIMARCSYM
 70
0
  9
$DIMLTYPE
  6

  9
$DIMLTEX1
  6

  9
$DIMLTEX2
  6

  9
$DIMTXTDIRECTION
 70
0
  9
$LUNITS
 70
2
  9
$LUPREC
 70
4
  9
$SKETCHINC
 40
1.0
  9
$FILLETRAD
 40
10.0
  9
$AUNITS
 70
0
  9
$AUPREC
 70
2
  9
$MENU
  1
.
  9
$ELEVATION
 40
0.0
  9
$PELEVATION
 40
0.0
  9
$THICKNESS
 40
0.0
  9
$LIMCHECK
 70
0
  9
$CHAMFERA
 40
0.0
  9
$CHAMFERB
 40
0.0
  9
$CHAMFERC
 40
0.0
  9
$CHAMFERD
 40
0.0
  9
$SKPOLY
 70
0
  9
$TDCREATE
 40
2461308.0635416666
  9
$TDUCREATE
 40
2458532.153996898
  9
$TDUPDATE
 40
2461308.0635416666
  9
$TDUUPDATE
 40
2458532.1544311
  9
$TDINDWG
 40
0.0
  9
$TDUSRTIMER
 40
0.0
  9
$USRTIMER
 70
1
  9
$ANGBASE
 50
0.0
  9
$ANGDIR
 70
0
  9
$PDMODE
 70
0
  9
$PDSIZE
 40
0.0
  9
$PLINEWID
 40
0.0
  9
$SPLFRAME
 70
0
  9
$SPLINETYPE
 70
6
  9
$SPLINESEGS
 70
8
  9
$HANDSEED
  5
37
  9
$SURFTAB1
 70
6
  9
$SURFTAB2
 70
6
  9
$SURFTYPE
 70
6
  9
$SURFU
 70
6
  9
$SURFV
 70
6
  9
$UCSBASE
  2

  9
$UCSNAME
  2

  9
$UCSORG
 10
0.0
 20
0.0
 30
0.0
  9
$UCSXDIR
 10
1.0
 20
0.0
 30
0.0
  9
$UCSYDIR
 10
0.0
 20
1.0
 30
0.0
  9
$UCSORTHOREF
  2

  9
$UCSORTHOVIEW
 70
0
  9
$UCSORGTOP
 10
0.0
 20
0.0
 30
0.0
  9
$UCSORGBOTTOM
 10
0.0
 20
0.0
 30
0.0
  9
$UCSORGLEFT
 10
0.0
 20
0.0
 30
0.0
  9
$UCSORGRIGHT
 10
0.0
 20
0.0
 30
0.0
  9
$UCSORGFRONT
 10
0.0
 20
0.0
 30
0.0
  9
$UCSORGBACK
 10
0.0
 20
0.0
 30
0.0
  9
$PUCSBASE
  2

  9
$PUCSNAME
  2

  9
$PUCSORG
 10
0.0
 20
0.0
 30
0.0
  9
$PUCSXDIR
 10
1.0
 20
0.0
 30
0.0
  9
$PUCSYDIR
 10
0.0
 20
1.0
 30
0.0
  9
$PUCSORTHOREF
  2

  9
$PUCSORTHOVIEW
 70
0
  9
$PUCSORGTOP
 10
0.0
 20
0.0
 30
0.0
  9
$PUCSORGBOTTOM
 10
0.0
 20
0.0
 30
0.0
  9
$PUCSORGLEFT
 10
0.0
 20
0.0
 30
0.0
  9
$PUCSORGRIGHT
 10
0.0
 20
0.0
 30
0.0
  9
$PUCSORGFRONT
 10
0.0
 20
0.0
 30
0.0
  9
$PUCSORGBACK
 10
0.0
 20
0.0
 30
0.0
  9
$USERI1
 70
0
  9
$USERI2
 70
0
  9
$USERI3
 70
0
  9
$USERI4
 70
0
  9
$USERI5
 70
0
  9
$USERR1
 40
0.0
  9
$USERR2
 40
0.0
  9
$USERR3
 40
0.0
  9
$USERR4
 40
0.0
  9
$USERR5
 40
0.0
  9
$WORLDVIEW
 70
1
  9
$SHADEDGE
 70
3
  9
$SHADEDIF
 70
70
  9
$TILEMODE
 70
1
  9
$MAXACTVP
 70
64
  9
$PINSBASE
 10
0.0
 20
0.0
 30
0.0
  9
$PLIMCHECK
 70
0
  9
$PEXTMIN
 10
1e+20
 20
1e+20
 30
1e+20
  9
$PEXTMAX
 10
-1e+20
 20
-1e+20
 30
-1e+20
  9
$PLIMMIN
 10
0.0
 20
0.0
  9
$PLIMMAX
 10
420.0
 20
297.0
  9
$UNITMODE
 70
0
  9
$VISRETAIN
 70
1
  9
$PLINEGEN
 70
0
  9
$PSLTSCALE
 70
1
  9
$TREEDEPTH
 70
3020
  9
$CMLSTYLE
  2
Standard
  9
$CMLJUST
 70
0
  9
$CMLSCALE
 40
20.0
  9
$PROXYGRAPHICS
 70
1
  9
$MEASUREMENT
 70
1
  9
$CELWEIGHT
370
-1
  9
$ENDCAPS
280
0
  9
$JOINSTYLE
280
0
  9
$LWDISPLAY
290
0
  9
$INSUNITS
 70
4
  9
$HYPERLINKBASE
  1

  9
$STYLESHEET
  1

  9
$XEDIT
290
1
  9
$CEPSNTYPE
380
0
  9
$PSTYLEMODE
290
1
  9
$FINGERPRINTGUID
  2
{952DB67B-9A20-463B-B010-5D5428C1FEB9}
  9
$VERSIONGUID
  2
{67C0631E-8237-4D2A-8B92-CF42EC083516}
  9
$EXTNAMES
290
1
  9
$PSVPSCALE
 40
0.0
  9
$OLESTARTUP
290
0
  9
$SORTENTS
280
127
  9
$INDEXCTL
280
0
  9
$HIDETEXT
280
1
  9
$XCLIPFRAME
280
1
  9
$HALOGAP
280
0
  9
$OBSCOLOR
 70
257
  9
$OBSLTYPE
280
0
  9
$INTERSECTIONDISPLAY
280
0
  9
$INTERSECTIONCOLOR
 70
257
  9
$DIMASSOC
280
2
  9
$PROJECTNAME
  1

  9
$CAMERADISPLAY
290
0
  9
$LENSLENGTH
 40
50.0
  9
$CAMERAHEIGHT
 40
0.0
  9
$STEPSPERSEC
 40
24.0
  9
$STEPSIZE
 40
100.0
  9
$3DDWFPREC
 40
2.0
  9
$PSOLWIDTH
 40
0.005
  9
$PSOLHEIGHT
 40
0.08
  9
$LOFTANG1
 40
1.570796326795
  9
$LOFTANG2
 40
1.570796326795
  9
$LOFTMAG1
 40
0.0
  9
$LOFTMAG2
 40
0.0
  9
$LOFTPARAM
 70
7
  9
$LOFTNORMALS
280
1
  9
$LATITUDE
 40
37.795
  9
$LONGITUDE
 40
-122.394
  9
$NORTHDIRECTION
 40
0.0
  9
$TIMEZONE
 70
-8000
  9
$LIGHTGLYPHDISPLAY
280
1
  9
$TILEMODELIGHTSYNCH
280
1
  9
$CMATERIAL
347
20
  9
$SOLIDHIST
280
0
  9
$SHOWHIST
280
1
  9
$DWFFRAME
280
2
  9
$DGNFRAME
280
2
  9
$REALWORLDSCALE
290
1
  9
$INTERFERECOLOR
 62
256
  9
$CSHADOW
280
0
  9
$SHADOWPLANELOCATION
 40
0.0
  0
ENDSEC
  0
SECTION
  2
CLASSES
  0
CLASS
  1
ACDBDICTIONARYWDFLT
  2
AcDbDictionaryWithDefault
  3
ObjectDBX Classes
 90
0
 91
0
280
0
281
0
  0
CLASS
  1
SUN
  2
AcDbSun
  3
SCENEOE
 90
1153
 91
0
280
0
281
0
  0
CLASS
  1
VISUALSTYLE
  2
AcDbVisualStyle
  3
ObjectDBX Classes
 90
4095
 91
0
280
0
281
0
  0
CLASS
  1
MATERIAL
  2
AcDbMaterial
  3
ObjectDBX Classes
 90
1153
 91
0
280
0
281
0
  0
CLASS
  1
SCALE
  2
AcDbScale
  3
ObjectDBX Classes
 90
1153
 91
0
280
0
281
0
  0
CLASS
  1
TABLESTYLE
  2
AcDbTableStyle
  3
ObjectDBX Classes
 90
4095
 91
0
280
0
281
0
  0
CLASS
  1
MLEADERSTYLE
  2
AcDbMLeaderStyle
  3
ACDB_MLEADERSTYLE_CLASS
 90
4095
 91
0
280
0
281
0
  0
CLASS
  1
DICTIONARYVAR
  2
AcDbDictionaryVar
  3
ObjectDBX Classes
 90
0
 91
0
280
0
281
0
  0
CLASS
  1
CELLSTYLEMAP
  2
AcDbCellStyleMap
  3
ObjectDBX Classes
 90
1152
 91
0
280
0
281
0
  0
CLASS
  1
MENTALRAYRENDERSETTINGS
  2
AcDbMentalRayRenderSettings
  3
SCENEOE
 90
1024
 91
0
280
0
281
0
  0
CLASS
  1
ACDBDETAILVIEWSTYLE
  2
AcDbDetailViewStyle
  3
ObjectDBX Classes
 90
1025
 91
0
280
0
281
0
  0
CLASS
  1
ACDBSECTIONVIEWSTYLE
  2
AcDbSectionViewStyle
  3
ObjectDBX Classes
 90
1025
 91
0
280
0
281
0
  0
CLASS
  1
RASTERVARIABLES
  2
AcDbRasterVariables
  3
ISM
 90
0
 91
0
280
0
281
0
  0
CLASS
  1
ACDBPLACEHOLDER
  2
AcDbPlaceHolder
  3
ObjectDBX Classes
 90
0
 91
0
280
0
281
0
  0
CLASS
  1
LAYOUT
  2
AcDbLayout
  3
ObjectDBX Classes
 90
0
 91
0
280
0
281
0
  0
ENDSEC
  0
SECTION
  2
TABLES
  0
TABLE
  2
VPORT
  5
8
330
0
100
AcDbSymbolTable
 70
1
  0
VPORT
  5
23
330
8
100
AcDbSymbolTableRecord
100
AcDbViewportTableRecord
  2
*Active
 70
0
 10
0.0
 20
0.0
 11
1.0
 21
1.0
 12
0.0
 22
0.0
 13
0.0
 23
0.0
 14
0.5
 24
0.5
 15
0.5
 25
0.5
 16
0.0
 26
0.0
 36
1.0
 17
0.0
 27
0.0
 37
0.0
 40
1000.0
 41
1.34
 42
50.0
 43
0.0
 44
0.0
 50
0.0
 51
0.0
 71
0
 72
1000
 73
1
 74
3
 75
0
 76
0
 77
0
 78
0
281
0
 65
0
146
0.0
  0
ENDTAB
  0
TABLE
  2
LTYPE
  5
2
330
0
100
AcDbSymbolTable
 70
3
  0
LTYPE
  5
24
330
2
100
AcDbSymbolTableRecord
100
AcDbLinetypeTableRecord
  2
ByBlock
 70
0
  3

 72
65
 73
0
 40
0.0
  0
LTYPE
  5
25
330
2
100
AcDbSymbolTableRecord
100
AcDbLinetypeTableRecord
  2
ByLayer
 70
0
  3

 72
65
 73
0
 40
0.0
  0
LTYPE
  5
26
330
2
100
AcDbSymbolTableRecord
100
AcDbLinetypeTableRecord
  2
Continuous
 70
0
  3

 72
65
 73
0
 40
0.0
  0
ENDTAB
  0
TABLE
  2
LAYER
  5
1
330
0
100
AcDbSymbolTable
 70
2
  0
LAYER
  5
27
330
1
100
AcDbSymbolTableRecord
100
AcDbLayerTableRecord
  2
0
 70
0
 62
7
  6
Continuous
370
-3
390
13
347
21
  0
LAYER
  5
28
330
1
100
AcDbSymbolTableRecord
100
AcDbLayerTableRecord
  2
Defpoints
 70
0
 62
7
  6
Continuous
290
0
370
-3
390
13
347
21
  0
ENDTAB
  0
TABLE
  2
STYLE
  5
5
330
0
100
AcDbSymbolTable
 70
1
  0
STYLE
  5
29
330
5
100
AcDbSymbolTableRecord
100
AcDbTextStyleTableRecord
  2
Standard
 70
0
 40
0.0
 41
1.0
 50
0.0
 71
0
 42
2.5
  3
txt
  4

  0
ENDTAB
  0
TABLE
  2
VIEW
  5
7
330
0
100
AcDbSymbolTable
 70
0
  0
ENDTAB
  0
TABLE
  2
UCS
  5
6
330
0
100
AcDbSymbolTable
 70
0
  0
ENDTAB
  0
TABLE
  2
APPID
  5
3
330
0
100
AcDbSymbolTable
 70
3
  0
APPID
  5
2A
330
3
100
AcDbSymbolTableRecord
100
AcDbRegAppTableRecord
  2
ACAD
 70
0
  0
APPID
  5
34
330
3
100
AcDbSymbolTableRecord
100
AcDbRegAppTableRecord
  2
HATCHBACKGROUNDCOLOR
 70
0
  0
APPID
  5
35
330
3
100
AcDbSymbolTableRecord
100
AcDbRegAppTableRecord
  2
EZDXF
 70
0
  0
ENDTAB
  0
TABLE
  2
DIMSTYLE
  5
4
330
0
100
AcDbSymbolTable
 70
1
100
AcDbDimStyleTable
  0
DIMSTYLE
105
2B
330
4
100
AcDbSymbolTableRecord
100
AcDbDimStyleTableRecord
  2
Standard
 70
0
 40
1.0
 41
2.5
 42
0.625
 43
3.75
 44
1.25
 45
0.0
 46
0.0
 47
0.0
 48
0.0
 49
2.5
140
2.5
141
2.5
142
0.0
143
0.03937007874
144
1.0
145
0.0
146
1.0
147
0.625
148
0.0
 69
0
 70
0
 71
0
 72
0
 73
0
 74
0
 75
0
 76
0
 77
1
 78
8
 79
3
170
0
171
3
172
1
173
0
174
0
175
0
176
0
177
0
178
0
179
2
271
2
272
2
273
2
274
3
275
0
276
0
277
2
278
44
279
0
280
0
281
0
282
0
283
0
284
8
285
0
286
0
288
0
289
3
290
0
371
-2
372
-2
  0
ENDTAB
  0
TABLE
  2
BLOCK_RECORD
  5
9
330
0
100
AcDbSymbolTable
 70
2
  0
BLOCK_RECORD
  5
17
330
9
100
AcDbSymbolTableRecord
100
AcDbBlockTableRecord
  2
*Model_Space
340
1A
 70
0
280
1
281
0
  0
BLOCK_RECORD
  5
1B
330
9
100
AcDbSymbolTableRecord
100
AcDbBlockTableRecord
  2
*Paper_Space
340
1E
 70
0
280
1
281
0
  0
ENDTAB
  0
ENDSEC
  0
SECTION
  2
BLOCKS
  0
BLOCK
  5
18
330
17
100
AcDbEntity
  8
0
100
AcDbBlockBegin
  2
*Model_Space
 70
0
 10
0.0
 20
0.0
 30
0.0
  3
*Model_Space
  1

  0
ENDBLK
  5
19
330
17
100
AcDbEntity
  8
0
100
AcDbBlockEnd
  0
BLOCK
  5
1C
330
1B
100
AcDbEntity
  8
0
100
AcDbBlockBegin
  2
*Paper_Space
 70
0
 10
0.0
 20
0.0
 30
0.0
  3
*Paper_Space
  1

  0
ENDBLK
  5
1D
330
1B
100
AcDbEntity
  8
0
100
AcDbBlockEnd
  0
ENDSEC
  0
SECTION
  2
ENTITIES
  0
LWPOLYLINE
  5
2F
330
17
100
AcDbEntity
  8
0
100
AcDbPolyline
 90
278
 70
1
 10
322.98290942797
 20
85.165680560455
 10
329.93404343526
 20
84.978575246365
 10
336.77884844183995
 20
84.756759945445
 10
338.8499999007503
 20
84.67865274959998
 10
338.8499999007502
 20
88.322240084015
 10
344.85000000077
 20
88.32224008401501
 10
344.85000000077
 20
84.44324104519501
 10
349.50854712463996
 20
84.234644757285
 10
354.12467559214
 20
84.006621181985
 10
358.7005189451
 20
83.75853836947499
 10
363.23821072534
 20
83.489764369945
 10
366.45455620649994
 20
83.284917817885
 10
369.65243406706
 20
83.068906757805
 10
372.83234231759997
 20
82.841394197055
 10
375.99477896868
 20
82.602043142965
 10
379.14024203087
 20
82.350516602895
 10
382.26922951473995
 20
82.08647758418499
 10
385.38223943084995
 20
81.80958909419499
 10
388.47976978978005
 20
81.51951414027499
 10
391.56179591487995
 20
81.215932601155
 10
394.62817055774
 20
80.89841248697499
 10
397.67920787128
 20
80.566449002125
 10
400.7152220084
 20
80.21953735100502
 10
403.73652712201
 20
79.857172738005
 10
406.74343736501
 20
79.478850367525
 10
409.73626689033006
 20
79.08406544395498
 10
412.71532985086003
 20
78.67231317171499
 10
415.67984926159
 20
78.243172435015
 10
418.62887635346
 20
77.795999484035
 10
421.5624676033
 20
77.329955572085
 10
424.48067948794005
 20
76.844201952455
 10
427.38356848423007
 20
76.33789987845499
 10
430.27119106898
 20
75.810210603365
 10
433.14360371905
 20
75.26029538048499
 10
436.00086291126
 20
74.687315463135
 10
438.84134728513004
 20
74.090689016605
 10
441.66320132908004
 20
73.469516327425
 10
444.46613029326
 20
72.822481830715
 10
447.24983942785
 20
72.148269961625
 10
449.63313328396
 20
71.544395749285
 10
452.00000000638
 20
70.918733487835
 10
452.00000000638
 20
50.322224468464995
 10
456.00000000638
 20
50.322224468464995
 10
456.00000000638
 20
45.322224468464995
 10
452.00000000638
 20
45.322224468464995
 10
452.00000000638
 20
24.725715449179997
 10
449.63313328396
 20
24.100053187726996
 10
447.24983942785
 20
23.496178975390997
 10
444.46613029326
 20
22.821967106288998
 10
441.66320132908004
 20
22.174932609584996
 10
438.84134728513004
 20
21.553759920404996
 10
436.00086291126
 20
20.957133473873995
 10
433.14360371905
 20
20.384153556517997
 10
430.27119106898
 20
19.834238333646997
 10
427.38356848423007
 20
19.306549058556996
 10
424.48067948794005
 20
18.800246984549
 10
421.5624676033
 20
18.314493364920995
 10
418.62887635346
 20
17.848449452970996
 10
415.6798492616
 20
17.401276501997998
 10
412.71532985087003
 20
16.972135765300997
 10
409.73626689033006
 20
16.560383493050995
 10
406.74343736502
 20
16.165598569487997
 10
403.73652712201
 20
15.787276199007003
 10
400.7152220084
 20
15.424911586005997
 10
397.67920787127997
 20
15.077999934882001
 10
394.62817055774
 20
14.746036450032001
 10
391.56179591487995
 20
14.428516335852002
 10
388.47976978978
 20
14.124934796741002
 10
385.38223943085
 20
13.834859842813998
 10
382.26922951474
 20
13.557971352823998
 10
379.14024203086996
 20
13.293932334118999
 10
375.99477896868
 20
13.042405794047
 10
372.83234231759997
 20
12.803054739956998
 10
369.65243406706
 20
12.575542179198003
 10
366.45455620649994
 20
12.359531119118003
 10
363.23821072534
 20
12.154684567065999
 10
358.7005189451
 20
11.885910567532001
 10
354.12467559214
 20
11.637827755019998
 10
349.50854712464
 20
11.409804179719004
 10
344.85000000077
 20
11.201207891815997
 10
344.85000000076997
 20
7.322240084015
 10
338.8499999007535
 20
7.322240084015
 10
338.8499999007533
 20
10.965796187413282
 10
336.77884844184
 20
10.887688991570002
 10
329.93404343526
 20
10.665873690650002
 10
322.98290942797
 20
10.478768376558001
 10
315.91614276750994
 20
10.324943094060998
 10
308.72443980142003
 20
10.202967887923997
 10
301.99582475267005
 20
10.117667459274003
 10
295.14060568100996
 20
10.056586166205001
 10
288.14619287754
 20
10.018256194872002
 10
280.99999663338997
 20
10.001209731429
 10
273.9999966334
 20
15.822924632240998
 10
273.9999966334
 20
10.0
 10
130.00000000076
 20
9.999999999998998
 10
123.00000000077
 20
15.82221847005
 10
123.00000000077
 20
10.0
 10
5.860016472070129e-09
 20
9.999999999998998
 10
1.327001086792734e-08
 20
0.0
 10
30.000000013269982
 20
0.0
 10
30.000000013269982
 20
4.822218470049002
 10
58.60752781118998
 20
4.822218470049002
 10
58.607527811189954
 20
0.0
 10
278.44237395063
 20
0.0
 10
286.30292920307
 20
0.011785477361996755
 10
293.98376411655005
 20
0.048431691703001434
 10
301.50111303347995
 20
0.11187331640299901
 10
308.87121029623995
 20
0.2040450248429977
 10
316.10925269266
 20
0.32680690891299946
 10
323.22578327792996
 20
0.48171656159099996
 10
330.23005579617995
 20
0.6702549078939981
 10
337.13132399153994
 20
0.8939028728430003
 10
340.54610855437005
 20
1.0193631180460017
 10
343.93812407397
 20
1.154207010863999
 10
347.30813921965995
 20
1.2986739110150012
 10
350.65692266074996
 20
1.4530031782200012
 10
353.98524306654
 20
1.617434172197001
 10
357.29386910636003
 20
1.7922062526659985
 10
360.58356944951
 20
1.9775587793459977
 10
363.85511276528996
 20
2.173731111955
 10
367.10911892123
 20
2.3809757384370016
 10
370.34602309704
 20
2.5996215476760014
 10
373.56631693064
 20
2.8300225008290028
 10
376.77049205995996
 20
3.072532559052
 10
379.95904012293005
 20
3.327505683501002
 10
383.13245275747994
 20
3.595295835332003
 10
386.29122160155
 20
3.876256975700997
 10
389.43583829305
 20
4.1707430657629985
 10
392.56659922666995
 20
4.479123665723002
 10
395.68367588347
 20
4.801890516758
 10
398.78737253076997
 20
5.139580851470001
 10
401.87799343590007
 20
5.492731902460001
 10
404.95584286619
 20
5.861880902327002
 10
408.02122508894
 20
6.247565083672001
 10
411.07444437149
 20
6.650321679096997
 10
414.11580498116007
 20
7.070687921202001
 10
417.14521717915
 20
7.5092175005040005
 10
420.16241279129997
 20
7.966715723660002
 10
423.16742843193003
 20
8.444097247477004
 10
426.16030071539
 20
8.942276728768
 10
429.14106625598004
 20
9.462168824342001
 10
432.10976166804005
 20
10.004688191009997
 10
435.06642356589
 20
10.570749485580997
 10
438.01108856385997
 20
11.161267364867001
 10
440.94319087161
 20
11.777138645091
 10
443.86191414607003
 20
12.419637289076
 10
446.76691917256005
 20
13.090243673528
 10
449.65786673638
 20
13.790438175154001
 10
452.53401470265
 20
14.521669805224
 10
455.39442402380007
 20
15.285606299569999
 10
458.23846011608
 20
16.084056121745995
 10
459.6541398939801
 20
16.496788675629997
 10
461.06548839575
 20
16.918827735304998
 10
462.00000000638
 20
17.204261962890996
 10
462.30818342279997
 20
17.321202047613998
 10
462.61068501667
 20
17.451933065363995
 10
462.90702439564006
 20
17.596042434011995
 10
463.19672116736
 20
17.753117571431996
 10
463.47929493948004
 20
17.922745895495996
 10
463.75426531966
 20
18.104514824076997
 10
464.02115191555004
 20
18.298011775045996
 10
464.27947433479005
 20
18.502824166275996
 10
464.52875218505005
 20
18.718539415639995
 10
464.76850507397
 20
18.944744941010995
 10
464.99825260921
 20
19.181028160259995
 10
465.21751439842
 20
19.426976491260998
 10
465.42581004925
 20
19.682177351884995
 10
465.6226591693501
 20
19.946218160004996
 10
465.8075813663701
 20
20.218686333493995
 10
465.98009624798
 20
20.499169290223996
 10
466.21473438359
 20
20.933892732611998
 10
466.41983617985
 20
21.383571535544995
 10
466.59486263989004
 20
21.846056107060996
 10
466.73927476684
 20
22.319196855199998
 10
466.85253356384
 20
22.800844187999996
 10
466.93410003400004
 20
23.288848513499996
 10
466.98343518047
 20
23.781060239738995
 10
466.99243328151726
 20
24.0495500654001
 10
461.00000000269006
 20
24.04955006632791
 10
461.00000000561533
 20
42.94882737086533
 10
462.00000000638
 20
42.948827370710525
 10
462.00000000638
 20
52.695621571880345
 10
461.0000000071245
 20
52.69562157203521
 10
461.0000000100499
 20
71.59498952240493
 10
466.9924302624137
 20
71.5949895214861
 10
466.98343522067
 20
71.86338873273499
 10
466.93410018132
 20
72.35560055349501
 10
466.85253386496004
 20
72.84360501469499
 10
466.73927524823
 20
73.325252506535
 10
466.59486330776997
 20
73.798393419215
 10
466.41983702021
 20
74.26087814290499
 10
466.21473536219
 20
74.710557067815
 10
465.98009731036007
 20
75.14528058412499
 10
465.80758244599997
 20
75.425763556065
 10
465.62266023691006
 20
75.698231718915
 10
465.42581107933006
 20
75.962272493975
 10
465.21751536949
 20
76.217473302535
 10
464.99825350364006
 20
76.463421565915
 10
464.76850587801005
 20
76.699704705405
 10
464.52875288885
 20
76.925910142335
 10
464.27947493238
 20
77.14162529798499
 10
464.02115240484
 20
77.346437593675
 10
463.75426570249
 20
77.53993445070499
 10
463.47929522154004
 20
77.72170329037499
 10
463.19672135825
 20
77.89133153400499
 10
462.90702450885
 20
78.048406602885
 10
462.61068506958
 20
78.192515918335
 10
462.30818343668
 20
78.32324690163499
 10
462.00000000638
 20
78.440186974125
 10
461.06548839576
 20
78.725621201705
 10
459.6541398939801
 20
79.14766026137501
 10
458.23846011609
 20
79.56039281526499
 10
455.39442402380007
 20
80.35884263743499
 10
452.53401470265
 20
81.122779131785
 10
449.65786673638
 20
81.854010761855
 10
446.76691917256005
 20
82.554205263475
 10
443.86191414607003
 20
83.224811647935
 10
440.94319087161
 20
83.867310291915
 10
438.01108856387
 20
84.483181572145
 10
435.06642356589
 20
85.073699451425
 10
432.10976166804005
 20
85.639760745995
 10
429.14106625598004
 20
86.182280112665
 10
426.16030071539
 20
86.702172208235
 10
423.16742843194004
 20
87.200351689525
 10
420.16241279131
 20
87.677733213345
 10
417.14521717916
 20
88.13523143649499
 10
414.1158049811801
 20
88.573761015805
 10
411.0744443715
 20
88.994127257905
 10
408.02122508894
 20
89.396883853335
 10
404.95584286618
 20
89.782568034675
 10
401.87799343589006
 20
90.15171703454502
 10
398.78737253075
 20
90.504868085535
 10
395.68367588343
 20
90.842558420255
 10
392.56659922661
 20
91.16532527128498
 10
389.43583829296995
 20
91.47370587125499
 10
386.29122160148995
 20
91.768191961315
 10
383.13245275745
 20
92.049153101675
 10
379.95904012292004
 20
92.316943253505
 10
376.77049205996
 20
92.57191637795499
 10
373.56631693067
 20
92.81442643617501
 10
370.34602309710004
 20
93.04482738932501
 10
367.10911892133004
 20
93.26347319856501
 10
363.85511276543997
 20
93.470717825045
 10
360.58356944959996
 20
93.666890157655
 10
357.29386910641995
 20
93.852242684335
 10
353.98524306657
 20
94.027014764815
 10
350.65692266073995
 20
94.19144575878501
 10
347.30813921962
 20
94.345775025995
 10
343.9381240739
 20
94.49024192614502
 10
340.54610855425994
 20
94.62508581896499
 10
337.13132399139005
 20
94.750546064175
 10
330.23005579612
 20
94.97419402911501
 10
323.22578327794
 20
95.162732375415
 10
316.10925269273
 20
95.31764202809501
 10
308.8712102964
 20
95.440403912165
 10
301.50111303354004
 20
95.532575620605
 10
293.98376411656994
 20
95.59601724530499
 10
286.30292920307
 20
95.632663459645
 10
278.44237395063
 20
95.644448937015
 10
58.60752781118998
 20
95.644448937015
 10
58.60752781118998
 20
90.822261697975
 10
30.000000013269982
 20
90.822261697975
 10
30.000000013269982
 20
95.644448937015
 10
5.860016472070129e-09
 20
95.644448937015
 10
0.0
 20
85.644448937015
 10
123.00000000077
 20
85.644448270515
 10
123.00000000077
 20
79.822218470045
 10
130.00000000076997
 20
85.644448937015
 10
273.9999966334
 20
85.644448937015
 10
273.9999966334
 20
79.82292463223499
 10
280.99999663338997
 20
85.643239205585
 10
286.07714267665995
 20
85.63330084186501
 10
291.21174409187995
 20
85.612194288355
 10
296.50619383141
 20
85.577640397325
 10
301.88832869097
 20
85.52793315471502
 10
307.48452740195995
 20
85.45921132729501
 10
308.72443980142003
 20
85.44148104908501
 10
315.91614276750994
 20
85.319505842945
  0
LWPOLYLINE
  5
30
330
17
100
AcDbEntity
  8
0
100
AcDbPolyline
 90
39
 70
1
 10
16.500000012300006
 20
90.64444893725499
 10
16.480575406256875
 20
90.88506585854164
 10
16.422804675220725
 20
91.1194509279572
 10
16.32818405077982
 20
91.34153369532065
 10
16.19916415740526
 20
91.54556233361195
 10
16.039086542564405
 20
91.72625260827071
 10
15.852097132396741
 20
91.87892473609548
 10
15.643038854404589
 20
91.99962458917057
 10
15.417326208174686
 20
92.08522610470206
 10
15.180805032682992
 20
92.13351224840207
 10
14.939601102135883
 20
92.14323243451234
 10
14.699961471635941
 20
92.1141349153184
 10
14.468092681736204
 20
92.04697330128312
 10
14.250000012300006
 20
91.94348704293165
 10
14.05133194890694
 20
91.80635637999647
 10
13.877233890043355
 20
91.63913292461619
 10
13.732214883984314
 20
91.4461476764467
 10
13.620030846811769
 20
91.23239885204511
 10
13.543587286160927
 20
91.00342243368632
 10
13.504864050098691
 20
90.76514879033009
 10
13.504864050098691
 20
90.5237490841799
 10
13.543587286160928
 20
90.28547544082366
 10
13.620030846811769
 20
90.05649902246488
 10
13.732214883984314
 20
89.84275019806329
 10
13.877233890043355
 20
89.6497649498938
 10
14.051331948906942
 20
89.48254149451351
 10
14.250000012300008
 20
89.34541083157833
 10
14.468092681736204
 20
89.24192457322687
 10
14.699961471635941
 20
89.17476295919158
 10
14.939601102135887
 20
89.14566543999764
 10
15.180805032682994
 20
89.15538562610791
 10
15.41732620817469
 20
89.20367176980794
 10
15.64303885440459
 20
89.28927328533942
 10
15.852097132396743
 20
89.40997313841451
 10
16.03908654256441
 20
89.56264526623927
 10
16.19916415740526
 20
89.74333554089803
 10
16.328184050779825
 20
89.94736417918935
 10
16.42280467522073
 20
90.16944694655278
 10
16.48057540625688
 20
90.40383201596836
  0
LWPOLYLINE
  5
31
330
17
100
AcDbEntity
  8
0
100
AcDbPolyline
 90
39
 70
1
 10
16.500000012490034
 20
5.00000000232199
 10
16.480575406446903
 20
5.240616923608631
 10
16.422804675410752
 20
5.475001993024199
 10
16.32818405096985
 20
5.697084760387643
 10
16.199164157595288
 20
5.901113398678959
 10
16.039086542754433
 20
6.081803673337712
 10
15.852097132586769
 20
6.234475801162475
 10
15.643038854594616
 20
6.355175654237565
 10
15.417326208364713
 20
6.440777169769049
 10
15.18080503287302
 20
6.489063313469072
 10
14.939601102325911
 20
6.498783499579345
 10
14.699961471825969
 20
6.4696859803853926
 10
14.468092681926231
 20
6.4025243663501135
 10
14.250000012490034
 20
6.2990381079986495
 10
14.051331949096967
 20
6.161907445063473
 10
13.877233890233382
 20
5.994683989683184
 10
13.732214884174342
 20
5.801698741513692
 10
13.620030847001797
 20
5.587949917112103
 10
13.543587286350954
 20
5.358973498753326
 10
13.504864050288719
 20
5.120699855397079
 10
13.504864050288719
 20
4.8793001492469
 10
13.543587286350956
 20
4.641026505890652
 10
13.620030847001797
 20
4.412050087531876
 10
13.732214884174342
 20
4.198301263130286
 10
13.877233890233382
 20
4.005316014960795
 10
14.05133194909697
 20
3.838092559580506
 10
14.250000012490036
 20
3.70096189664533
 10
14.468092681926231
 20
3.5974756382938655
 10
14.699961471825969
 20
3.530314024258587
 10
14.939601102325915
 20
3.501216505064634
 10
15.180805032873021
 20
3.510936691174908
 10
15.417326208364717
 20
3.559222834874931
 10
15.643038854594618
 20
3.6448243504064166
 10
15.85209713258677
 20
3.7655242034815064
 10
16.039086542754436
 20
3.9181963313062695
 10
16.199164157595288
 20
4.098886605965024
 10
16.328184050969853
 20
4.30291524425634
 10
16.422804675410756
 20
4.524998011619785
 10
16.480575406446906
 20
4.759383081035354
  0
LWPOLYLINE
  5
32
330
17
100
AcDbEntity
  8
0
100
AcDbPolyline
 90
39
 70
1
 10
96.49952065106999
 20
4.723056691139
 10
96.48009604502685
 20
4.963673612425641
 10
96.42232531399071
 20
5.198058681841209
 10
96.3277046895498
 20
5.420141449204653
 10
96.19868479617524
 20
5.624170087495969
 10
96.03860718133438
 20
5.804860362154722
 10
95.85161777116672
 20
5.957532489979485
 10
95.64255949317457
 20
6.078232343054575
 10
95.41684684694467
 20
6.1638338585860595
 10
95.18032567145298
 20
6.212120002286082
 10
94.93912174090586
 20
6.221840188396356
 10
94.69948211040592
 20
6.192742669202403
 10
94.46761332050619
 20
6.125581055167124
 10
94.24952065106999
 20
6.02209479681566
 10
94.05085258767691
 20
5.884964133880484
 10
93.87675452881334
 20
5.717740678500194
 10
93.73173552275429
 20
5.5247554303307025
 10
93.61955148558175
 20
5.311006605929113
 10
93.54310792493091
 20
5.082030187570337
 10
93.50438468886867
 20
4.843756544214089
 10
93.50438468886867
 20
4.60235683806391
 10
93.54310792493091
 20
4.364083194707662
 10
93.61955148558175
 20
4.135106776348886
 10
93.73173552275429
 20
3.9213579519472965
 10
93.87675452881334
 20
3.728372703777805
 10
94.05085258767691
 20
3.5611492483975162
 10
94.24952065106999
 20
3.42401858546234
 10
94.46761332050619
 20
3.3205323271108758
 10
94.69948211040592
 20
3.253370713075597
 10
94.93912174090586
 20
3.2242731938816442
 10
95.18032567145298
 20
3.2339933799919183
 10
95.41684684694467
 20
3.2822795236919413
 10
95.64255949317457
 20
3.367881039223427
 10
95.85161777116673
 20
3.4885808922985166
 10
96.03860718133438
 20
3.64125302012328
 10
96.19868479617524
 20
3.8219432947820344
 10
96.3277046895498
 20
4.02597193307335
 10
96.42232531399071
 20
4.2480547004367955
 10
96.48009604502685
 20
4.482439769852364
  0
LWPOLYLINE
  5
33
330
17
100
AcDbEntity
  8
0
100
AcDbPolyline
 90
39
 70
1
 10
96.49952065086998
 20
90.92139224880499
 10
96.48009604482685
 20
91.16200917009164
 10
96.42232531379071
 20
91.3963942395072
 10
96.3277046893498
 20
91.61847700687065
 10
96.19868479597524
 20
91.82250564516195
 10
96.03860718113438
 20
92.00319591982071
 10
95.85161777096671
 20
92.15586804764548
 10
95.64255949297457
 20
92.27656790072056
 10
95.41684684674466
 20
92.36216941625204
 10
95.18032567125297
 20
92.41045555995207
 10
94.93912174070586
 20
92.42017574606234
 10
94.69948211020592
 20
92.39107822686839
 10
94.46761332030619
 20
92.32391661283312
 10
94.24952065086998
 20
92.22043035448165
 10
94.05085258747691
 20
92.08329969154647
 10
93.87675452861333
 20
91.91607623616619
 10
93.73173552255429
 20
91.7230909879967
 10
93.61955148538175
 20
91.50934216359511
 10
93.5431079247309
 20
91.28036574523632
 10
93.50438468866867
 20
91.04209210188009
 10
93.50438468866867
 20
90.8006923957299
 10
93.5431079247309
 20
90.56241875237366
 10
93.61955148538175
 20
90.33344233401488
 10
93.73173552255429
 20
90.11969350961328
 10
93.87675452861333
 20
89.92670826144379
 10
94.05085258747691
 20
89.75948480606351
 10
94.24952065086998
 20
89.62235414312833
 10
94.46761332030619
 20
89.51886788477687
 10
94.69948211020592
 20
89.45170627074158
 10
94.93912174070586
 20
89.42260875154764
 10
95.18032567125297
 20
89.43232893765791
 10
95.41684684674466
 20
89.48061508135794
 10
95.64255949297457
 20
89.56621659688942
 10
95.85161777096673
 20
89.68691644996451
 10
96.03860718113438
 20
89.83958857778927
 10
96.19868479597524
 20
90.02027885244803
 10
96.3277046893498
 20
90.22430749073935
 10
96.42232531379071
 20
90.44639025810278
 10
96.48009604482685
 20
90.68077532751836
  0
ENDSEC
  0
SECTION
  2
OBJECTS
  0
DICTIONARY
  5
A
330
0
100
AcDbDictionary
281
1
  3
ACAD_COLOR
350
B
  3
ACAD_GROUP
350
C
  3
ACAD_LAYOUT
350
D
  3
ACAD_MATERIAL
350
E
  3
ACAD_MLEADERSTYLE
350
F
  3
ACAD_MLINESTYLE
350
10
  3
ACAD_PLOTSETTINGS
350
11
  3
ACAD_PLOTSTYLENAME
350
12
  3
ACAD_SCALELIST
350
14
  3
ACAD_TABLESTYLE
350
15
  3
ACAD_VISUALSTYLE
350
16
  3
EZDXF_META
350
2D
  0
DICTIONARY
  5
B
330
A
100
AcDbDictionary
281
1
  0
DICTIONARY
  5
C
330
A
100
AcDbDictionary
281
1
  0
DICTIONARY
  5
D
330
A
100
AcDbDictionary
281
1
  3
Model
350
1A
  3
Layout1
350
1E
  0
DICTIONARY
  5
E
330
A
100
AcDbDictionary
281
1
  3
ByBlock
350
1F
  3
ByLayer
350
20
  3
Global
350
21
  0
DICTIONARY
  5
F
330
A
100
AcDbDictionary
281
1
  3
Standard
350
2C
  0
DICTIONARY
  5
10
330
A
100
AcDbDictionary
281
1
  3
Standard
350
22
  0
DICTIONARY
  5
11
330
A
100
AcDbDictionary
281
1
  0
ACDBDICTIONARYWDFLT
  5
12
330
A
100
AcDbDictionary
281
1
  3
Normal
350
13
100
AcDbDictionaryWithDefault
340
13
  0
ACDBPLACEHOLDER
  5
13
330
12
  0
DICTIONARY
  5
14
330
A
100
AcDbDictionary
281
1
  0
DICTIONARY
  5
15
330
A
100
AcDbDictionary
281
1
  0
DICTIONARY
  5
16
330
A
100
AcDbDictionary
281
1
  0
LAYOUT
  5
1A
330
D
100
AcDbPlotSettings
  1

  4
A3
  6

 40
7.5
 41
20.0
 42
7.5
 43
20.0
 44
420.0
 45
297.0
 46
0.0
 47
0.0
 48
0.0
 49
0.0
140
0.0
141
0.0
142
1.0
143
1.0
 70
1024
 72
1
 73
0
 74
5
  7

 75
16
 76
0
 77
2
 78
300
147
1.0
148
0.0
149
0.0
100
AcDbLayout
  1
Model
 70
1
 71
0
 10
0.0
 20
0.0
 11
420.0
 21
297.0
 12
0.0
 22
0.0
 32
0.0
 14
1e+20
 24
1e+20
 34
1e+20
 15
-1e+20
 25
-1e+20
 35
-1e+20
146
0.0
 13
0.0
 23
0.0
 33
0.0
 16
1.0
 26
0.0
 36
0.0
 17
0.0
 27
1.0
 37
0.0
 76
1
330
17
  0
LAYOUT
  5
1E
330
D
100
AcDbPlotSettings
  1

  4
A3
  6

 40
7.5
 41
20.0
 42
7.5
 43
20.0
 44
420.0
 45
297.0
 46
0.0
 47
0.0
 48
0.0
 49
0.0
140
0.0
141
0.0
142
1.0
143
1.0
 70
0
 72
1
 73
0
 74
5
  7

 75
16
 76
0
 77
2
 78
300
147
1.0
148
0.0
149
0.0
100
AcDbLayout
  1
Layout1
 70
1
 71
1
 10
0.0
 20
0.0
 11
420.0
 21
297.0
 12
0.0
 22
0.0
 32
0.0
 14
1e+20
 24
1e+20
 34
1e+20
 15
-1e+20
 25
-1e+20
 35
-1e+20
146
0.0
 13
0.0
 23
0.0
 33
0.0
 16
1.0
 26
0.0
 36
0.0
 17
0.0
 27
1.0
 37
0.0
 76
1
330
1B
  0
MATERIAL
  5
1F
102
{ACAD_REACTORS
330
E
102
}
330
E
100
AcDbMaterial
  1
ByBlock
  2

 70
0
 40
1.0
 71
1
 41
1.0
 91
-1023410177
 42
1.0
 72
1
  3

 73
1
 74
1
 75
1
 44
0.5
 73
0
 45
1.0
 46
1.0
 77
1
  4

 78
1
 79
1
170
1
 48
1.0
171
1
  6

172
1
173
1
174
1
140
1.0
141
1.0
175
1
  7

176
1
177
1
178
1
143
1.0
179
1
  8

270
1
271
1
272
1
145
1.0
146
1.0
273
1
  9

274
1
275
1
276
1
 42
1.0
 72
1
  3

 73
1
 74
1
 75
1
 94
63
  0
MATERIAL
  5
20
102
{ACAD_REACTORS
330
E
102
}
330
E
100
AcDbMaterial
  1
ByLayer
  2

 70
0
 40
1.0
 71
1
 41
1.0
 91
-1023410177
 42
1.0
 72
1
  3

 73
1
 74
1
 75
1
 44
0.5
 73
0
 45
1.0
 46
1.0
 77
1
  4

 78
1
 79
1
170
1
 48
1.0
171
1
  6

172
1
173
1
174
1
140
1.0
141
1.0
175
1
  7

176
1
177
1
178
1
143
1.0
179
1
  8

270
1
271
1
272
1
145
1.0
146
1.0
273
1
  9

274
1
275
1
276
1
 42
1.0
 72
1
  3

 73
1
 74
1
 75
1
 94
63
  0
MATERIAL
  5
21
102
{ACAD_REACTORS
330
E
102
}
330
E
100
AcDbMaterial
  1
Global
  2

 70
0
 40
1.0
 71
1
 41
1.0
 91
-1023410177
 42
1.0
 72
1
  3

 73
1
 74
1
 75
1
 44
0.5
 73
0
 45
1.0
 46
1.0
 77
1
  4

 78
1
 79
1
170
1
 48
1.0
171
1
  6

172
1
173
1
174
1
140
1.0
141
1.0
175
1
  7

176
1
177
1
178
1
143
1.0
179
1
  8

270
1
271
1
272
1
145
1.0
146
1.0
273
1
  9

274
1
275
1
276
1
 42
1.0
 72
1
  3

 73
1
 74
1
 75
1
 94
63
  0
MLINESTYLE
  5
22
102
{ACAD_REACTORS
330
10
102
}
330
10
100
AcDbMlineStyle
  2
Standard
 70
0
  3

 62
256
 51
90.0
 52
90.0
 71
2
 49
0.5
 62
256
  6
BYLAYER
 49
-0.5
 62
256
  6
BYLAYER
  0
MLEADERSTYLE
  5
2C
102
{ACAD_REACTORS
330
F
102
}
330
F
100
AcDbMLeaderStyle
179
2
170
2
171
1
172
0
 90
2
 40
0.0
 41
0.0
173
1
 91
-1056964608
 92
-2
290
1
 42
2.0
291
1
 43
8.0
  3
Standard
 44
4.0
300

342
29
174
1
175
1
176
0
178
1
 93
-1056964608
 45
4.0
292
0
297
0
 46
4.0
 94
-1056964608
 47
1.0
 49
1.0
140
1.0
294
1
141
0.0
177
0
142
1.0
295
0
296
0
143
3.75
271
0
272
9
273
9
  0
DICTIONARY
  5
2D
330
A
100
AcDbDictionary
280
1
281
1
  3
CREATED_BY_EZDXF
350
2E
  3
WRITTEN_BY_EZDXF
350
36
  0
DICTIONARYVAR
  5
2E
330
2D
100
DictionaryVariables
280
0
  1
1.4.4 @ 2026-09-23T20:01:30.209309+00:00
  0
DICTIONARYVAR
  5
36
330
2D
100
DictionaryVariables
280
0
  1
1.4.4 @ 2026-09-23T20:01:30.215412+00:00
  0
ENDSEC
  0
EOF
