  0
SECTION
  2
HEADER
  9
$ACADVER
  1
AC1024
  9
$ACADMAINTVER
 70
6
  9
$DWGCODEPAGE
  3
ANSI_1252
  9
$LASTSAVEDBY
  1
ezdxf
  9
$INSBASE
 10
0.0
 20
0.0
 30
0.0
  9
$EXTMIN
 10
1e+20
 20
1e+20
 30
1e+20
  9
$EXTMAX
 10
-1e+20
 20
-1e+20
 30
-1e+20
  9
$LIMMIN
 10
0.0
 20
0.0
  9
$LIMMAX
 10
420.0
 20
297.0
  9
$ORTHOMODE
 70
0
  9
$REGENMODE
 70
1
  9
$FILLMODE
 70
1
  9
$QTEXTMODE
 70
0
  9
$MIRRTEXT
 70
1
  9
$LTSCALE
 40
1.0
  9
$ATTMODE
 70
1
  9
$TEXTSIZE
 40
2.5
  9
$TRACEWID
 40
1.0
  9
$TEXTSTYLE
  7
Standard
  9
$CLAYER
  8
0
  9
$CELTYPE
  6
ByLayer
  9
$CECOLOR
 62
256
  9
$CELTSCALE
 40
1.0
  9
$DISPSILH
 70
0
  9
$DIMSCALE
 40
1.0
  9
$DIMASZ
 40
2.5
  9
$DIMEXO
 40
0.625
  9
$DIMDLI
 40
3.75
  9
$DIMRND
 40
0.0
  9
$DIMDLE
 40
0.0
  9
$DIMEXE
 40
1.25
  9
$DIMTP
 40
0.0
  9
$DIMTM
 40
0.0
  9
$DIMTXT
 40
2.5
  9
$DIMCEN
 40
2.5
  9
$DIMTSZ
 40
0.0
  9
$DIMTOL
 70
0
  9
$DIMLIM
 70
0
  9
$DIMTIH
 70
0
  9
$DIMTOH
 70
0
  9
$DIMSE1
 70
0
  9
$DIMSE2
 70
0
  9
$DIMTAD
 70
1
  9
$DIMZIN
 70
8
  9
$DIMBLK
  1

  9
$DIMASO
 70
1
  9
$DIMSHO
 70
1
  9
$DIMPOST
  1

  9
$DIMAPOST
  1

  9
$DIMALT
 70
0
  9
$DIMALTD
 70
3
  9
$DIMALTF
 40
0.03937007874
  9
$DIMLFAC
 40
1.0
  9
$DIMTOFL
 70
1
  9
$DIMTVP
 40
0.0
  9
$DIMTIX
 70
0
  9
$DIMSOXD
 70
0
  9
$DIMSAH
 70
0
  9
$DIMBLK1
  1

  9
$DIMBLK2
  1

  9
$DIMSTYLE
  2
ISO-25
  9
$DIMCLRD
 70
0
  9
$DIMCLRE
 70
0
  9
$DIMCLRT
 70
0
  9
$DIMTFAC
 40
1.0
  9
$DIMGAP
 40
0.625
  9
$DIMJUST
 70
0
  9
$DIMSD1
 70
0
  9
$DIMSD2
 70
0
  9
$DIMTOLJ
 70
0
  9
$DIMTZIN
 70
8
  9
$DIMALTZ
 70
0
  9
$DIMALTTZ
 70
0
  9
$DIMUPT
 70
0
  9
$DIMDEC
 70
2
  9
$DIMTDEC
 70
2
  9
$DIMALTU
 70
2
  9
$DIMALTTD
 70
3
  9
$DIMTXSTY
  7
Standard
  9
$DIMAUNIT
 70
0
  9
$DIMADEC
 70
0
  9
$DIMALTRND
 40
0.0
  9
$DIMAZIN
 70
0
  9
$DIMDSEP
 70
44
  9
$DIMATFIT
 70
3
  9
$DIMFRAC
 70
0
  9
$DIMLDRBLK
  1

  9
$DIMLUNIT
 70
2
  9
$DIMLWD
 70
-2
  9
$DIMLWE
 70
-2
  9
$DIMTMOVE
 70
0
  9
$DIMFXL
 40
1.0
  9
$DIMFXLON
 70
0
  9
$DIMJOGANG
 40
0.785398163397
  9
$DIMTFILL
 70
0
  9
$DIMTFILLCLR
 70
0
  9
$DIMARCSYM
 70
0
  9
$DIMLTYPE
  6

  9
$DIMLTEX1
  6

  9
$DIMLTEX2
  6

  9
$DIMTXTDIRECTION
 70
0
  9
$LUNITS
 70
2
  9
$LUPREC
 70
4
  9
$SKETCHINC
 40
1.0
  9
$FILLETRAD
 40
10.0
  9
$AUNITS
 70
0
  9
$AUPREC
 70
2
  9
$MENU
  1
.
  9
$ELEVATION
 40
0.0
  9
$PELEVATION
 40
0.0
  9
$THICKNESS
 40
0.0
  9
$LIMCHECK
 70
0
  9
$CHAMFERA
 40
0.0
  9
$CHAMFERB
 40
0.0
  9
$CHAMFERC
 40
0.0
  9
$CHAMFERD
 40
0.0
  9
$SKPOLY
 70
0
  9
$TDCREATE
 40
2461316.7219444443
  9
$TDUCREATE
 40
2458532.153996898
  9
$TDUPDATE
 40
2461316.7219444443
  9
$TDUUPDATE
 40
2458532.1544311
  9
$TDINDWG
 40
0.0
  9
$TDUSRTIMER
 40
0.0
  9
$USRTIMER
 70
1
  9
$ANGBASE
 50
0.0
  9
$ANGDIR
 70
0
  9
$PDMODE
 70
0
  9
$PDSIZE
 40
0.0
  9
$PLINEWID
 40
0.0
  9
$SPLFRAME
 70
0
  9
$SPLINETYPE
 70
6
  9
$SPLINESEGS
 70
8
  9
$HANDSEED
  5
35
  9
$SURFTAB1
 70
6
  9
$SURFTAB2
 70
6
  9
$SURFTYPE
 70
6
  9
$SURFU
 70
6
  9
$SURFV
 70
6
  9
$UCSBASE
  2

  9
$UCSNAME
  2

  9
$UCSORG
 10
0.0
 20
0.0
 30
0.0
  9
$UCSXDIR
 10
1.0
 20
0.0
 30
0.0
  9
$UCSYDIR
 10
0.0
 20
1.0
 30
0.0
  9
$UCSORTHOREF
  2

  9
$UCSORTHOVIEW
 70
0
  9
$UCSORGTOP
 10
0.0
 20
0.0
 30
0.0
  9
$UCSORGBOTTOM
 10
0.0
 20
0.0
 30
0.0
  9
$UCSORGLEFT
 10
0.0
 20
0.0
 30
0.0
  9
$UCSORGRIGHT
 10
0.0
 20
0.0
 30
0.0
  9
$UCSORGFRONT
 10
0.0
 20
0.0
 30
0.0
  9
$UCSORGBACK
 10
0.0
 20
0.0
 30
0.0
  9
$PUCSBASE
  2

  9
$PUCSNAME
  2

  9
$PUCSORG
 10
0.0
 20
0.0
 30
0.0
  9
$PUCSXDIR
 10
1.0
 20
0.0
 30
0.0
  9
$PUCSYDIR
 10
0.0
 20
1.0
 30
0.0
  9
$PUCSORTHOREF
  2

  9
$PUCSORTHOVIEW
 70
0
  9
$PUCSORGTOP
 10
0.0
 20
0.0
 30
0.0
  9
$PUCSORGBOTTOM
 10
0.0
 20
0.0
 30
0.0
  9
$PUCSORGLEFT
 10
0.0
 20
0.0
 30
0.0
  9
$PUCSORGRIGHT
 10
0.0
 20
0.0
 30
0.0
  9
$PUCSORGFRONT
 10
0.0
 20
0.0
 30
0.0
  9
$PUCSORGBACK
 10
0.0
 20
0.0
 30
0.0
  9
$USERI1
 70
0
  9
$USERI2
 70
0
  9
$USERI3
 70
0
  9
$USERI4
 70
0
  9
$USERI5
 70
0
  9
$USERR1
 40
0.0
  9
$USERR2
 40
0.0
  9
$USERR3
 40
0.0
  9
$USERR4
 40
0.0
  9
$USERR5
 40
0.0
  9
$WORLDVIEW
 70
1
  9
$SHADEDGE
 70
3
  9
$SHADEDIF
 70
70
  9
$TILEMODE
 70
1
  9
$MAXACTVP
 70
64
  9
$PINSBASE
 10
0.0
 20
0.0
 30
0.0
  9
$PLIMCHECK
 70
0
  9
$PEXTMIN
 10
1e+20
 20
1e+20
 30
1e+20
  9
$PEXTMAX
 10
-1e+20
 20
-1e+20
 30
-1e+20
  9
$PLIMMIN
 10
0.0
 20
0.0
  9
$PLIMMAX
 10
420.0
 20
297.0
  9
$UNITMODE
 70
0
  9
$VISRETAIN
 70
1
  9
$PLINEGEN
 70
0
  9
$PSLTSCALE
 70
1
  9
$TREEDEPTH
 70
3020
  9
$CMLSTYLE
  2
Standard
  9
$CMLJUST
 70
0
  9
$CMLSCALE
 40
20.0
  9
$PROXYGRAPHICS
 70
1
  9
$MEASUREMENT
 70
1
  9
$CELWEIGHT
370
-1
  9
$ENDCAPS
280
0
  9
$JOINSTYLE
280
0
  9
$LWDISPLAY
290
0
  9
$INSUNITS
 70
4
  9
$HYPERLINKBASE
  1

  9
$STYLESHEET
  1

  9
$XEDIT
290
1
  9
$CEPSNTYPE
380
0
  9
$PSTYLEMODE
290
1
  9
$FINGERPRINTGUID
  2
{86A4A774-FE5C-4F6E-B410-DE6D90B94542}
  9
$VERSIONGUID
  2
{10F3BDB3-DC15-4C64-9274-D4BCED5D1AF4}
  9
$EXTNAMES
290
1
  9
$PSVPSCALE
 40
0.0
  9
$OLESTARTUP
290
0
  9
$SORTENTS
280
127
  9
$INDEXCTL
280
0
  9
$HIDETEXT
280
1
  9
$XCLIPFRAME
280
1
  9
$HALOGAP
280
0
  9
$OBSCOLOR
 70
257
  9
$OBSLTYPE
280
0
  9
$INTERSECTIONDISPLAY
280
0
  9
$INTERSECTIONCOLOR
 70
257
  9
$DIMASSOC
280
2
  9
$PROJECTNAME
  1

  9
$CAMERADISPLAY
290
0
  9
$LENSLENGTH
 40
50.0
  9
$CAMERAHEIGHT
 40
0.0
  9
$STEPSPERSEC
 40
24.0
  9
$STEPSIZE
 40
100.0
  9
$3DDWFPREC
 40
2.0
  9
$PSOLWIDTH
 40
0.005
  9
$PSOLHEIGHT
 40
0.08
  9
$LOFTANG1
 40
1.570796326795
  9
$LOFTANG2
 40
1.570796326795
  9
$LOFTMAG1
 40
0.0
  9
$LOFTMAG2
 40
0.0
  9
$LOFTPARAM
 70
7
  9
$LOFTNORMALS
280
1
  9
$LATITUDE
 40
37.795
  9
$LONGITUDE
 40
-122.394
  9
$NORTHDIRECTION
 40
0.0
  9
$TIMEZONE
 70
-8000
  9
$LIGHTGLYPHDISPLAY
280
1
  9
$TILEMODELIGHTSYNCH
280
1
  9
$CMATERIAL
347
20
  9
$SOLIDHIST
280
0
  9
$SHOWHIST
280
1
  9
$DWFFRAME
280
2
  9
$DGNFRAME
280
2
  9
$REALWORLDSCALE
290
1
  9
$INTERFERECOLOR
 62
256
  9
$CSHADOW
280
0
  9
$SHADOWPLANELOCATION
 40
0.0
  0
ENDSEC
  0
SECTION
  2
CLASSES
  0
CLASS
  1
ACDBDICTIONARYWDFLT
  2
AcDbDictionaryWithDefault
  3
ObjectDBX Classes
 90
0
 91
0
280
0
281
0
  0
CLASS
  1
SUN
  2
AcDbSun
  3
SCENEOE
 90
1153
 91
0
280
0
281
0
  0
CLASS
  1
VISUALSTYLE
  2
AcDbVisualStyle
  3
ObjectDBX Classes
 90
4095
 91
0
280
0
281
0
  0
CLASS
  1
MATERIAL
  2
AcDbMaterial
  3
ObjectDBX Classes
 90
1153
 91
0
280
0
281
0
  0
CLASS
  1
SCALE
  2
AcDbScale
  3
ObjectDBX Classes
 90
1153
 91
0
280
0
281
0
  0
CLASS
  1
TABLESTYLE
  2
AcDbTableStyle
  3
ObjectDBX Classes
 90
4095
 91
0
280
0
281
0
  0
CLASS
  1
MLEADERSTYLE
  2
AcDbMLeaderStyle
  3
ACDB_MLEADERSTYLE_CLASS
 90
4095
 91
0
280
0
281
0
  0
CLASS
  1
DICTIONARYVAR
  2
AcDbDictionaryVar
  3
ObjectDBX Classes
 90
0
 91
0
280
0
281
0
  0
CLASS
  1
CELLSTYLEMAP
  2
AcDbCellStyleMap
  3
ObjectDBX Classes
 90
1152
 91
0
280
0
281
0
  0
CLASS
  1
MENTALRAYRENDERSETTINGS
  2
AcDbMentalRayRenderSettings
  3
SCENEOE
 90
1024
 91
0
280
0
281
0
  0
CLASS
  1
ACDBDETAILVIEWSTYLE
  2
AcDbDetailViewStyle
  3
ObjectDBX Classes
 90
1025
 91
0
280
0
281
0
  0
CLASS
  1
ACDBSECTIONVIEWSTYLE
  2
AcDbSectionViewStyle
  3
ObjectDBX Classes
 90
1025
 91
0
280
0
281
0
  0
CLASS
  1
RASTERVARIABLES
  2
AcDbRasterVariables
  3
ISM
 90
0
 91
0
280
0
281
0
  0
CLASS
  1
LAYOUT
  2
AcDbLayout
  3
ObjectDBX Classes
 90
0
 91
0
280
0
281
0
  0
CLASS
  1
ACDBPLACEHOLDER
  2
AcDbPlaceHolder
  3
ObjectDBX Classes
 90
0
 91
0
280
0
281
0
  0
ENDSEC
  0
SECTION
  2
TABLES
  0
TABLE
  2
VPORT
  5
8
330
0
100
AcDbSymbolTable
 70
1
  0
VPORT
  5
23
330
8
100
AcDbSymbolTableRecord
100
AcDbViewportTableRecord
  2
*Active
 70
0
 10
0.0
 20
0.0
 11
1.0
 21
1.0
 12
0.0
 22
0.0
 13
0.0
 23
0.0
 14
0.5
 24
0.5
 15
0.5
 25
0.5
 16
0.0
 26
0.0
 36
1.0
 17
0.0
 27
0.0
 37
0.0
 40
1000.0
 41
1.34
 42
50.0
 43
0.0
 44
0.0
 50
0.0
 51
0.0
 71
0
 72
1000
 73
1
 74
3
 75
0
 76
0
 77
0
 78
0
281
0
 65
0
146
0.0
  0
ENDTAB
  0
TABLE
  2
LTYPE
  5
2
330
0
100
AcDbSymbolTable
 70
3
  0
LTYPE
  5
24
330
2
100
AcDbSymbolTableRecord
100
AcDbLinetypeTableRecord
  2
ByBlock
 70
0
  3

 72
65
 73
0
 40
0.0
  0
LTYPE
  5
25
330
2
100
AcDbSymbolTableRecord
100
AcDbLinetypeTableRecord
  2
ByLayer
 70
0
  3

 72
65
 73
0
 40
0.0
  0
LTYPE
  5
26
330
2
100
AcDbSymbolTableRecord
100
AcDbLinetypeTableRecord
  2
Continuous
 70
0
  3

 72
65
 73
0
 40
0.0
  0
ENDTAB
  0
TABLE
  2
LAYER
  5
1
330
0
100
AcDbSymbolTable
 70
3
  0
LAYER
  5
27
330
1
100
AcDbSymbolTableRecord
100
AcDbLayerTableRecord
  2
0
 70
0
 62
7
  6
Continuous
370
-3
390
13
347
21
  0
LAYER
  5
28
330
1
100
AcDbSymbolTableRecord
100
AcDbLayerTableRecord
  2
Defpoints
 70
0
 62
7
  6
Continuous
290
0
370
-3
390
13
347
21
  0
LAYER
  5
2F
330
1
100
AcDbSymbolTableRecord
100
AcDbLayerTableRecord
  2
CUT
 70
0
 62
7
  6
Continuous
370
-3
390
13
347
21
  0
ENDTAB
  0
TABLE
  2
STYLE
  5
5
330
0
100
AcDbSymbolTable
 70
1
  0
STYLE
  5
29
330
5
100
AcDbSymbolTableRecord
100
AcDbTextStyleTableRecord
  2
Standard
 70
0
 40
0.0
 41
1.0
 50
0.0
 71
0
 42
2.5
  3
txt
  4

  0
ENDTAB
  0
TABLE
  2
VIEW
  5
7
330
0
100
AcDbSymbolTable
 70
0
  0
ENDTAB
  0
TABLE
  2
UCS
  5
6
330
0
100
AcDbSymbolTable
 70
0
  0
ENDTAB
  0
TABLE
  2
APPID
  5
3
330
0
100
AcDbSymbolTable
 70
3
  0
APPID
  5
2A
330
3
100
AcDbSymbolTableRecord
100
AcDbRegAppTableRecord
  2
ACAD
 70
0
  0
APPID
  5
32
330
3
100
AcDbSymbolTableRecord
100
AcDbRegAppTableRecord
  2
HATCHBACKGROUNDCOLOR
 70
0
  0
APPID
  5
33
330
3
100
AcDbSymbolTableRecord
100
AcDbRegAppTableRecord
  2
EZDXF
 70
0
  0
ENDTAB
  0
TABLE
  2
DIMSTYLE
  5
4
330
0
100
AcDbSymbolTable
 70
1
100
AcDbDimStyleTable
  0
DIMSTYLE
105
2B
330
4
100
AcDbSymbolTableRecord
100
AcDbDimStyleTableRecord
  2
Standard
 70
0
 40
1.0
 41
2.5
 42
0.625
 43
3.75
 44
1.25
 45
0.0
 46
0.0
 47
0.0
 48
0.0
 49
2.5
140
2.5
141
2.5
142
0.0
143
0.03937007874
144
1.0
145
0.0
146
1.0
147
0.625
148
0.0
 69
0
 70
0
 71
0
 72
0
 73
0
 74
0
 75
0
 76
0
 77
1
 78
8
 79
3
170
0
171
3
172
1
173
0
174
0
175
0
176
0
177
0
178
0
179
2
271
2
272
2
273
2
274
3
275
0
276
0
277
2
278
44
279
0
280
0
281
0
282
0
283
0
284
8
285
0
286
0
288
0
289
3
290
0
371
-2
372
-2
  0
ENDTAB
  0
TABLE
  2
BLOCK_RECORD
  5
9
330
0
100
AcDbSymbolTable
 70
2
  0
BLOCK_RECORD
  5
17
330
9
100
AcDbSymbolTableRecord
100
AcDbBlockTableRecord
  2
*Model_Space
340
1A
 70
0
280
1
281
0
  0
BLOCK_RECORD
  5
1B
330
9
100
AcDbSymbolTableRecord
100
AcDbBlockTableRecord
  2
*Paper_Space
340
1E
 70
0
280
1
281
0
  0
ENDTAB
  0
ENDSEC
  0
SECTION
  2
BLOCKS
  0
BLOCK
  5
18
330
17
100
AcDbEntity
  8
0
100
AcDbBlockBegin
  2
*Model_Space
 70
0
 10
0.0
 20
0.0
 30
0.0
  3
*Model_Space
  1

  0
ENDBLK
  5
19
330
17
100
AcDbEntity
  8
0
100
AcDbBlockEnd
  0
BLOCK
  5
1C
330
1B
100
AcDbEntity
  8
0
100
AcDbBlockBegin
  2
*Paper_Space
 70
0
 10
0.0
 20
0.0
 30
0.0
  3
*Paper_Space
  1

  0
ENDBLK
  5
1D
330
1B
100
AcDbEntity
  8
0
100
AcDbBlockEnd
  0
ENDSEC
  0
SECTION
  2
ENTITIES
  0
LWPOLYLINE
  5
30
330
17
100
AcDbEntity
  8
CUT
100
AcDbPolyline
 90
531
 70
1
 10
104.17807094275278
 20
7.023515675152
 10
105.64512775553277
 20
6.724157664512999
 10
109.55011653606277
 20
5.905974073478999
 10
113.39392251263277
 20
5.072620022476
 10
113.39392251263277
 20
2.0726200224760003
 10
109.55011653606277
 20
2.9059740734789994
 10
105.64512775553277
 20
3.7241576645129992
 10
104.17807094275278
 20
4.023515675152
 10
102.32992141269278
 20
4.39483342504
 10
99.63871403518277
 20
4.923631472974
 10
98.99321665940968
 20
5.046906218587486
 10
75.64460810914278
 20
5.005215099593
 10
70.69891392230278
 20
0.0466173730530004
 10
70.69892109724277
 20
0.03797837334700027
 10
58.94765302491277
 20
0.028218607506000026
 10
58.93743377052277
 20
12.332735020145549
 10
36.13744163398478
 20
12.313798886327
 10
36.14766088848077
 20
0.009282558813000108
 10
24.97097501437878
 20
0.0
 10
19.869730464405777
 20
4.970876537452
 10
17.360502125688768
 20
5.017633352032
 10
14.745739444381769
 20
5.086900074937001
 10
11.741302461709779
 20
5.197018741043999
 10
10.507929478635639
 20
5.256968103833328
 10
10.487588662118185
 20
5.240050825310238
 10
10.450420610145251
 20
5.209683253103458
 10
10.412988969720985
 20
5.179641185525723
 10
10.375296591409722
 20
5.1499269103967915
 10
10.337346345632014
 20
5.12054269057376
 10
10.299141122445995
 20
5.091490763778731
 10
10.260683831327341
 20
5.062773342428411
 10
10.221977400947651
 20
5.034392613465618
 10
10.18302477895147
 20
5.0063507381927455
 10
10.143828931731761
 20
4.9786498521071625
 10
10.104392844204057
 20
4.951292064738592
 10
10.064719519579093
 20
4.924279459488464
 10
10.02481197913415
 20
4.897614093471251
 10
9.984673261982934
 20
4.871297997357814
 10
9.944306424844157
 20
4.845333175220759
 10
9.903714541808768
 20
4.819721604381819
 10
9.862900704105812
 20
4.794465235261274
 10
9.821868019867033
 20
4.769565991229413
 10
9.780619613890224
 20
4.745025768460074
 10
9.739158627401181
 20
4.720846435786228
 10
9.697488217814552
 20
4.697029834557677
 10
9.65561155849337
 20
4.673577778500812
 10
9.613531838507363
 20
4.6504920535805
 10
9.571252262390132
 20
4.6277744178640745
 10
9.528776049895093
 20
4.605426601387448
 10
9.486106435750273
 20
4.583450306023371
 10
9.443246669411991
 20
4.5618472053518175
 10
9.4002000148174
 20
4.540618944532547
 10
9.35696975013591
 20
4.519767140179805
 10
9.313559167519543
 20
4.49929338023923
 10
9.269971572852235
 20
4.479199223866903
 10
9.226210285498084
 20
4.459486201310632
 10
9.182278638048537
 20
4.440155813793405
 10
9.138179976068649
 20
4.421209533399075
 10
9.093917657842262
 20
4.402648802960247
 10
9.049495054116278
 20
4.384475035948402
 10
9.00491554784395
 20
4.366689616366262
 10
8.960182533927288
 20
4.349293898642388
 10
8.91529941895849
 20
4.332289207528035
 10
8.870269620960535
 20
4.315676837996268
 10
8.82509656912687
 20
4.299458055143342
 10
8.779783703560298
 20
4.283634094092367
 10
8.734334475010968
 20
4.26820615989924
 10
8.68875234461359
 20
4.253175427460885
 10
8.643040783623874
 20
4.238543041425768
 10
8.597203273154179
 20
4.224310116106736
 10
8.551243303908379
 20
4.210477735396161
 10
8.505164375916088
 20
4.197046952683385
 10
8.458969998266063
 20
4.1840187907745126
 10
8.412663688839011
 20
4.1713942418145145
 10
8.366248974039685
 20
4.15917426721167
 10
8.319729388528316
 20
4.147359797564356
 10
8.27310847495145
 20
4.135951732590183
 10
8.226389783672147
 20
4.12495094105746
 10
8.179576872499638
 20
4.114358260719056
 10
8.132673306418347
 20
4.104174498248593
 10
8.085682657316426
 20
4.094400429179007
 10
8.038608503713732
 20
4.085036797843504
 10
7.991454430489327
 20
4.076084317318857
 10
7.9442240286084385
 20
4.067543669371124
 10
7.896920894849046
 20
4.0594155044037095
 10
7.8495486315279095
 20
4.051700441407849
 10
7.802110846226299
 20
4.044399067915455
 10
7.754611151515228
 20
4.03751193995439
 10
7.707053164680353
 20
4.031039582006114
 10
7.659440507446497
 20
4.02498248696574
 10
7.611776805701844
 20
4.01934111610451
 10
7.564065689221827
 20
4.014115899034653
 10
7.516310791392684
 20
4.009307233676683
 10
7.46851574893477
 20
4.004915486229082
 10
7.420684201625626
 20
4.000940991140421
 10
7.37281979202276
 20
3.997384051083891
 10
7.32492616518627
 20
3.9942449369342476
 10
7.277006968401281
 20
3.991523887747185
 10
7.229065850900149
 20
3.9892211107411377
 10
7.181106463584584
 20
3.9873367812814866
 10
7.13313245874761
 20
3.985871042867217
 10
7.085147489795439
 20
3.9848240071199843
 10
7.037155210969232
 20
3.984195753775614
 10
6.98915927706684
 20
3.9839863306780305
 10
6.94116334316444
 20
3.984195753775614
 10
6.89317106433824
 20
3.9848240071199843
 10
6.845186095386069
 20
3.985871042867217
 10
6.797212090549095
 20
3.9873367812814866
 10
6.74925270323353
 20
3.9892211107411377
 10
6.701311585732398
 20
3.991523887747185
 10
6.65339238894741
 20
3.9942449369342476
 10
6.605498762110919
 20
3.997384051083891
 10
6.557634352508053
 20
4.000940991140421
 10
6.509802805198909
 20
4.004915486229082
 10
6.4620077627409955
 20
4.009307233676683
 10
6.414252864911852
 20
4.014115899034653
 10
6.366541748431835
 20
4.01934111610451
 10
6.318878046687182
 20
4.02498248696574
 10
6.271265389453326
 20
4.031039582006114
 10
6.223707402618452
 20
4.03751193995439
 10
6.1762077079073805
 20
4.044399067915455
 10
6.12876992260577
 20
4.051700441407849
 10
6.081397659284633
 20
4.0594155044037095
 10
6.034094525525241
 20
4.067543669371124
 10
5.986864123644352
 20
4.076084317318857
 10
5.939710050419947
 20
4.085036797843504
 10
5.892635896817261
 20
4.094400429179007
 10
5.845645247715332
 20
4.104174498248593
 10
5.798741681634041
 20
4.114358260719056
 10
5.751928770461532
 20
4.12495094105746
 10
5.705210079182237
 20
4.135951732590181
 10
5.658589165605363
 20
4.147359797564356
 10
5.612069580093994
 20
4.15917426721167
 10
5.565654865294668
 20
4.1713942418145145
 10
5.519348555867623
 20
4.1840187907745126
 10
5.473154178217598
 20
4.197046952683385
 10
5.4270752502253
 20
4.210477735396161
 10
5.3811152809795
 20
4.224310116106736
 10
5.335277770509805
 20
4.238543041425768
 10
5.289566209520089
 20
4.253175427460885
 10
5.243984079122711
 20
4.26820615989924
 10
5.198534850573381
 20
4.283634094092367
 10
5.153221985006809
 20
4.299458055143344
 10
5.108048933173144
 20
4.315676837996268
 10
5.063019135175189
 20
4.332289207528035
 10
5.018136020206391
 20
4.349293898642388
 10
4.973403006289729
 20
4.366689616366262
 10
4.928823500017401
 20
4.384475035948402
 10
4.884400896291417
 20
4.402648802960247
 10
4.84013857806503
 20
4.421209533399075
 10
4.796039916085142
 20
4.440155813793405
 10
4.752108268635595
 20
4.459486201310632
 10
4.708346981281444
 20
4.479199223866903
 10
4.664759386614136
 20
4.499293380239228
 10
4.621348803997769
 20
4.519767140179805
 10
4.5781185393162716
 20
4.540618944532547
 10
4.535071884721688
 20
4.5618472053518175
 10
4.4922121183834065
 20
4.583450306023369
 10
4.449542504238593
 20
4.605426601387446
 10
4.407066291743547
 20
4.6277744178640745
 10
4.364786715626316
 20
4.6504920535805
 10
4.32270699564031
 20
4.673577778500812
 10
4.280830336319127
 20
4.697029834557677
 10
4.239159926732505
 20
4.720846435786228
 10
4.1976989402434555
 20
4.745025768460074
 10
4.1564505342666465
 20
4.769565991229413
 10
4.115417850027875
 20
4.794465235261274
 10
4.074604012324912
 20
4.819721604381819
 10
4.034012129289515
 20
4.845333175220759
 10
3.9936452921507453
 20
4.871297997357814
 10
3.9535065749995297
 20
4.897614093471251
 10
3.9135990345545864
 20
4.924279459488464
 10
3.8739257099296225
 20
4.951292064738592
 10
3.834489622401918
 20
4.978649852107164
 10
3.795293775182209
 20
5.0063507381927455
 10
3.7563411531860282
 20
5.034392613465618
 10
3.7176347228063378
 20
5.062773342428411
 10
3.679177431687684
 20
5.091490763778733
 10
3.6409722085016654
 20
5.12054269057376
 10
3.6030219627239575
 20
5.1499269103967915
 10
3.5653295844127015
 20
5.179641185525723
 10
3.527897943988428
 20
5.2096832531034565
 10
3.4907298920154943
 20
5.240050825310238
 10
3.4538282589849487
 20
5.270741589537868
 10
3.417195855099024
 20
5.301753208565827
 10
3.380835470057093
 20
5.333083320739259
 10
3.3447498728432663
 20
5.364729540148824
 10
3.3089418115154743
 20
5.396689456812389
 10
3.273414012996227
 20
5.428960636858562
 10
3.2381691828649295
 20
5.461540622712043
 10
3.2032100051518526
 20
5.494426933280767
 10
3.1685391421337314
 20
5.527617064144861
 10
3.134159234131019
 20
5.561108487747358
 10
3.1000728993068165
 20
5.594898653586686
 10
3.0662827334674887
 20
5.628984988410888
 10
3.03279130986499
 20
5.6633648964136025
 10
2.999601179000898
 20
5.698035759431722
 10
2.9667148684321774
 20
5.732994937144799
 10
2.9347789316757087
 20
5.767543038888229
 10
1.9128442575267712
 20
5.860508463118
 10
1.0538801438247773
 20
5.956372423105
 10
0.21079822736077602
 20
6.067152001807001
 10
0.0
 20
6.1012453309917465
 10
0.0
 20
9.101245330991748
 10
0.27320190554177515
 20
9.233105566771
 10
1.1096380711257723
 20
9.601587931208
 10
1.4959708555348215
 20
9.756691648783754
 10
1.4966981334673193
 20
9.771832722681152
 10
1.4994191826543783
 20
9.819751919466142
 10
1.5025582968040254
 20
9.867645546302626
 10
1.506115236860552
 20
9.915509955905495
 10
1.5100897319492148
 20
9.96334150321464
 10
1.5144814793968138
 20
10.011136545672553
 10
1.519290144754784
 20
10.058891443501697
 10
1.5245153618246405
 20
10.106602559981713
 10
1.5301567326858674
 20
10.154266261726363
 10
1.5362138277262432
 20
10.201878918960222
 10
1.542686185674519
 20
10.2494369057951
 10
1.5495733136355838
 20
10.296936600506168
 10
1.55687468712798
 20
10.344374385807779
 10
1.5645897501238437
 20
10.391746649128912
 10
1.5727179150912534
 20
10.439049782888311
 10
1.5812585630389862
 20
10.486280184769193
 10
1.5902110435636345
 20
10.533434257993601
 10
1.599574674899138
 20
10.580508411596291
 10
1.6093487439687237
 20
10.627499060698213
 10
1.6195325064391852
 20
10.674402626779507
 10
1.6301251867775903
 20
10.721215537952016
 10
1.6411259783103134
 20
10.767934229231315
 10
1.65253404328449
 20
10.814555142808185
 10
1.6643485129318023
 20
10.861074728319554
 10
1.6765684875346452
 20
10.90748944311888
 10
1.6891930364946433
 20
10.953795752545929
 10
1.7022211984035138
 20
10.999990130195954
 10
1.715651981116288
 20
11.046069058188252
 10
1.72948436182687
 20
11.092029027434048
 10
1.7437172871458984
 20
11.137866537903747
 10
1.7583496731810158
 20
11.18357809889346
 10
1.7733804056193705
 20
11.229160229290837
 10
1.7888083398124976
 20
11.274609457840171
 10
1.8046323008634744
 20
11.319922323406743
 10
1.8208510837163985
 20
11.3650953752404
 10
1.8374634532481622
 20
11.41012517323836
 10
1.8544681443625208
 20
11.45500828820716
 10
1.8718638620863928
 20
11.49974130212382
 10
1.8896492816685324
 20
11.544320808396144
 10
1.9078230486803776
 20
11.588743412122131
 10
1.926383779119206
 20
11.633005730348518
 10
1.9453300595135374
 20
11.67710439232841
 10
1.9646604470307594
 20
11.72103603977795
 10
1.9843734695870339
 20
11.764797327132104
 10
2.0044676259593572
 20
11.808384921799412
 10
2.024941385899936
 20
11.85179550441578
 10
2.045793190252681
 20
11.895025769097273
 10
2.067021451071952
 20
11.938072423691864
 10
2.0886245517435
 20
11.980932190030138
 10
2.110600847107577
 20
12.023601804174959
 10
2.1329486635842017
 20
12.066078016670001
 10
2.155666299300634
 20
12.108357592787232
 10
2.178752024220941
 20
12.150437312773239
 10
2.2022040802778093
 20
12.192313972094421
 10
2.2260206815063626
 20
12.233984381681047
 10
2.2502000141802014
 20
12.27544536817009
 10
2.2747402369495404
 20
12.316693774146906
 10
2.299639480981405
 20
12.357726458385677
 10
2.324895850101953
 20
12.398540296088637
 10
2.350507420940893
 20
12.43913217912403
 10
2.3764722430779415
 20
12.4794990162628
 10
2.402788339191382
 20
12.519637733414015
 10
2.4294537052085943
 20
12.559545273858962
 10
2.4564663104587225
 20
12.599218598483926
 10
2.483824097827295
 20
12.638654686011634
 10
2.511524983912878
 20
12.67785053323134
 10
2.539566859185747
 20
12.71680315522752
 10
2.5679475881485416
 20
12.755509585607207
 10
2.5966650094988637
 20
12.793966876725865
 10
2.625716936293891
 20
12.83217209991188
 10
2.6551011561169204
 20
12.870122345689591
 10
2.684815431245852
 20
12.90781472400085
 10
2.7148574988235907
 20
12.94524636442512
 10
2.7452250710303687
 20
12.982414416398054
 10
2.7759158352579973
 20
13.0193160494286
 10
2.8069274542859546
 20
13.055948453314528
 10
2.83825756645939
 20
13.092308838356452
 10
2.8699037858689564
 20
13.128394435570282
 10
2.9018637025325233
 20
13.164202496898074
 10
2.9341348825786966
 20
13.199730295417321
 10
2.9667148684321702
 20
13.234975125548619
 10
2.999601179000898
 20
13.269934303261696
 10
3.03279130986499
 20
13.304605166279817
 10
3.0662827334674887
 20
13.33898507428253
 10
3.1000728993068165
 20
13.373071409106732
 10
3.134159234131019
 20
13.406861574946056
 10
3.1685391421337314
 20
13.440352998548558
 10
3.2032100051518526
 20
13.47354312941265
 10
3.2381691828649295
 20
13.506429439981375
 10
3.273414012996227
 20
13.539009425834852
 10
3.3089418115154743
 20
13.571280605881029
 10
3.3447498728432663
 20
13.603240522544596
 10
3.380835470057093
 20
13.634886741954158
 10
3.417195855099024
 20
13.666216854127594
 10
3.4538282589849487
 20
13.697228473155548
 10
3.4907298920154943
 20
13.72791923738318
 10
3.527897943988428
 20
13.758286809589958
 10
3.5653295844126944
 20
13.788328877167693
 10
3.6030219627239575
 20
13.818043152296628
 10
3.6409722085016654
 20
13.847427372119657
 10
3.679177431687684
 20
13.876479298914685
 10
3.7176347228063378
 20
13.905196720265007
 10
3.7563411531860282
 20
13.933577449227798
 10
3.795293775182209
 20
13.961619324500674
 10
3.834489622401911
 20
13.989320210586254
 10
3.8739257099296225
 20
14.016677997954826
 10
3.9135990345545864
 20
14.043690603204954
 10
3.9535065749995297
 20
14.070355969222167
 10
3.9936452921507453
 20
14.096672065335603
 10
4.034012129289515
 20
14.122636887472655
 10
4.074604012324912
 20
14.148248458311599
 10
4.115417850027875
 20
14.173504827432144
 10
4.156450534266639
 20
14.198404071464005
 10
4.1976989402434555
 20
14.222944294233347
 10
4.239159926732498
 20
14.247123626907186
 10
4.280830336319127
 20
14.27094022813574
 10
4.32270699564031
 20
14.294392284192607
 10
4.364786715626316
 20
14.317478009112918
 10
4.407066291743547
 20
14.340195644829343
 10
4.449542504238586
 20
14.362543461305968
 10
4.4922121183834065
 20
14.384519756670048
 10
4.535071884721688
 20
14.4061228573416
 10
4.5781185393162716
 20
14.427351118160871
 10
4.621348803997769
 20
14.448202922513612
 10
4.664759386614136
 20
14.468676682454191
 10
4.708346981281444
 20
14.488770838826515
 10
4.752108268635595
 20
14.50848386138279
 10
4.796039916085135
 20
14.527814248900011
 10
4.84013857806503
 20
14.546760529294342
 10
4.884400896291417
 20
14.565321259733171
 10
4.928823500017401
 20
14.583495026745016
 10
4.973403006289729
 20
14.601280446327156
 10
5.018136020206384
 20
14.618676164051028
 10
5.063019135175189
 20
14.635680855165383
 10
5.108048933173144
 20
14.65229322469715
 10
5.153221985006809
 20
14.668512007550074
 10
5.198534850573381
 20
14.68433596860105
 10
5.243984079122711
 20
14.699763902794178
 10
5.289566209520089
 20
14.714794635232533
 10
5.335277770509805
 20
14.72942702126765
 10
5.3811152809795
 20
14.743659946586682
 10
5.4270752502253
 20
14.757492327297257
 10
5.473154178217598
 20
14.770923110010035
 10
5.519348555867616
 20
14.783951271918905
 10
5.565654865294668
 20
14.796575820878903
 10
5.612069580093994
 20
14.808795795481746
 10
5.658589165605363
 20
14.820610265129062
 10
5.705210079182237
 20
14.832018330103235
 10
5.751928770461532
 20
14.843019121635958
 10
5.798741681634041
 20
14.853611801974363
 10
5.845645247715332
 20
14.863795564444825
 10
5.892635896817254
 20
14.87356963351441
 10
5.939710050419947
 20
14.882933264849914
 10
5.986864123644352
 20
14.891885745374562
 10
6.034094525525241
 20
14.900426393322295
 10
6.08139765928464
 20
14.908554558289708
 10
6.12876992260577
 20
14.916269621285569
 10
6.1762077079073805
 20
14.923570994777965
 10
6.2237074026184445
 20
14.930458122739026
 10
6.271265389453326
 20
14.936930480687305
 10
6.318878046687182
 20
14.942987575727678
 10
6.366541748431835
 20
14.948628946588908
 10
6.414252864911852
 20
14.953854163658765
 10
6.4620077627409955
 20
14.958662829016735
 10
6.509802805198909
 20
14.963054576464334
 10
6.557634352508053
 20
14.967029071552997
 10
6.605498762110919
 20
14.970586011609527
 10
6.65339238894741
 20
14.97372512575917
 10
6.701311585732391
 20
14.976446174946233
 10
6.74925270323353
 20
14.97874895195228
 10
6.797212090549095
 20
14.98063328141193
 10
6.845186095386062
 20
14.982099019826201
 10
6.89317106433824
 20
14.983146055573432
 10
6.9411633431644475
 20
14.983774308917805
 10
6.98915927706684
 20
14.983983732015385
 10
7.037155210969239
 20
14.983774308917805
 10
7.085147489795439
 20
14.983146055573432
 10
7.13313245874761
 20
14.982099019826201
 10
7.181106463584591
 20
14.98063328141193
 10
7.229065850900149
 20
14.97874895195228
 10
7.277006968401281
 20
14.976446174946233
 10
7.32492616518627
 20
14.97372512575917
 10
7.37281979202276
 20
14.970586011609527
 10
7.420684201625626
 20
14.967029071552997
 10
7.46851574893477
 20
14.963054576464334
 10
7.516310791392684
 20
14.958662829016735
 10
7.564065689221827
 20
14.953854163658765
 10
7.611776805701844
 20
14.948628946588908
 10
7.659440507446497
 20
14.942987575727678
 10
7.707053164680353
 20
14.936930480687305
 10
7.754611151515228
 20
14.93045812273903
 10
7.802110846226306
 20
14.923570994777965
 10
7.8495486315279095
 20
14.916269621285569
 10
7.896920894849046
 20
14.908554558289708
 10
7.9442240286084385
 20
14.900426393322295
 10
7.991454430489327
 20
14.891885745374562
 10
8.038608503713732
 20
14.882933264849914
 10
8.085682657316418
 20
14.87356963351441
 10
8.132673306418347
 20
14.863795564444825
 10
8.17957687249963
 20
14.853611801974363
 10
8.226389783672147
 20
14.843019121635958
 10
8.27310847495145
 20
14.832018330103235
 10
8.319729388528316
 20
14.820610265129062
 10
8.366248974039685
 20
14.808795795481746
 10
8.412663688839011
 20
14.796575820878903
 10
8.458969998266056
 20
14.783951271918905
 10
8.505164375916088
 20
14.770923110010031
 10
8.551243303908379
 20
14.757492327297257
 10
8.597203273154179
 20
14.743659946586682
 10
8.643040783623881
 20
14.72942702126765
 10
8.68875234461359
 20
14.714794635232533
 10
8.734334475010968
 20
14.699763902794178
 10
8.779783703560298
 20
14.68433596860105
 10
8.82509656912687
 20
14.668512007550074
 10
8.870269620960535
 20
14.65229322469715
 10
8.91529941895849
 20
14.635680855165383
 10
8.960182533927288
 20
14.618676164051028
 10
9.00491554784395
 20
14.601280446327156
 10
9.049495054116278
 20
14.583495026745016
 10
9.093917657842262
 20
14.565321259733171
 10
9.138179976068649
 20
14.546760529294342
 10
9.182278638048537
 20
14.527814248900011
 10
9.226210285498077
 20
14.50848386138279
 10
9.269971572852235
 20
14.488770838826515
 10
9.313559167519543
 20
14.468676682454188
 10
9.35696975013591
 20
14.448202922513612
 10
9.4002000148174
 20
14.427351118160871
 10
9.443246669411998
 20
14.406122857341597
 10
9.486106435750273
 20
14.384519756670048
 10
9.528776049895093
 20
14.362543461305972
 10
9.571252262390132
 20
14.340195644829347
 10
9.613531838507363
 20
14.317478009112918
 10
9.65561155849337
 20
14.294392284192604
 10
9.697488217814552
 20
14.27094022813574
 10
9.739158627401181
 20
14.24712362690719
 10
9.780619613890217
 20
14.222944294233347
 10
9.821868019867033
 20
14.198404071464005
 10
9.862900704105812
 20
14.173504827432144
 10
9.903714541808768
 20
14.148248458311599
 10
9.944306424844157
 20
14.122636887472659
 10
9.984673261982927
 20
14.096672065335607
 10
10.02481197913415
 20
14.070355969222167
 10
10.064719519579093
 20
14.043690603204954
 10
10.104392844204057
 20
14.016677997954826
 10
10.143828931731761
 20
13.989320210586254
 10
10.18302477895147
 20
13.96161932450067
 10
10.221977400947651
 20
13.933577449227801
 10
10.260683831327341
 20
13.905196720265007
 10
10.299141122445995
 20
13.876479298914688
 10
10.337346345632014
 20
13.847427372119657
 10
10.375296591409722
 20
13.818043152296624
 10
10.412988969720978
 20
13.788328877167697
 10
10.450420610145251
 20
13.758286809589958
 10
10.487588662118185
 20
13.72791923738318
 10
10.52449029514873
 20
13.697228473155551
 10
10.561122699034655
 20
13.66621685412759
 10
10.597483084076586
 20
13.634886741954158
 10
10.633568681290413
 20
13.603240522544592
 10
10.669376742618198
 20
13.571280605881032
 10
10.704904541137452
 20
13.539009425834855
 10
10.740149371268757
 20
13.506429439981375
 10
10.77510854898182
 20
13.47354312941265
 10
10.80977941199994
 20
13.440352998548555
 10
10.84415932000266
 20
13.406861574946056
 10
10.878245654826856
 20
13.373071409106732
 10
10.91203582066619
 20
13.338985074282526
 10
10.945527244268689
 20
13.304605166279817
 10
10.978717375132774
 20
13.269934303261696
 10
11.011603685701502
 20
13.234975125548619
 10
11.04418367155499
 20
13.199730295417325
 10
11.076454851601156
 20
13.164202496898074
 10
11.108414768264723
 20
13.128394435570282
 10
11.140060987674289
 20
13.092308838356455
 10
11.171391099847725
 20
13.055948453314528
 10
11.202402718875675
 20
13.019316049428603
 10
11.233093483103303
 20
12.982414416398054
 10
11.263461055310088
 20
12.94524636442512
 10
11.293503122887827
 20
12.90781472400085
 10
11.323217398016752
 20
12.870122345689591
 10
11.352601617839781
 20
12.832172099911883
 10
11.381653544634815
 20
12.793966876725865
 10
11.410370965985138
 20
12.755509585607207
 10
11.438751694947925
 20
12.716803155227524
 10
11.466793570220801
 20
12.67785053323134
 10
11.494494456306384
 20
12.638654686011634
 10
11.521852243674957
 20
12.599218598483926
 10
11.523379926988426
 20
12.596974895018146
 10
12.42574959290478
 20
12.777284536975
 10
13.760057847592776
 20
13.023966050591
 10
15.141510844819777
 20
13.258798431750002
 10
16.56848803683077
 20
13.480191722478999
 10
17.635076119449778
 20
13.632037711936
 10
18.724523660273775
 20
13.775426319605
 10
20.552473541741776
 20
13.987588743118
 10
22.38274331307578
 20
14.165029164848
 10
24.124558525085774
 20
14.302668304150998
 10
25.835696967742777
 20
14.410201764592
 10
25.843583817394773
 20
4.914022652785
 10
30.84358209294878
 20
4.9181752950419995
 10
30.835569514911768
 20
14.592223077261998
 10
30.839575803930416
 20
14.592287195549911
 10
30.839575803930416
 20
15.332735020145549
 10
63.240520210181074
 20
15.332735020145549
 10
63.240520210181074
 20
13.336108125721765
 10
64.23668061598278
 20
13.241773340874001
 10
64.23738304856278
 20
12.396007809802999
 10
63.240520210181074
 20
12.395179886567611
 10
63.240520210181074
 20
12.332735020145549
 10
63.237435153405144
 20
12.332735020145549
 10
63.24365712704278
 20
4.8411536358989995
 10
69.24365505771277
 20
4.846136806606999
 10
69.23712808950278
 20
12.705067986465998
 10
72.17277213277278
 20
12.355242825626998
 10
75.02226342541277
 20
11.991610946411999
 10
77.94752580734277
 20
11.592034032704
 10
80.89620655861276
 20
11.163619382412001
 10
83.52596064045278
 20
10.762290323165999
 10
86.24896980612277
 20
10.325812747447
 10
88.96720483517277
 20
9.871157017962002
 10
91.58730394317277
 20
9.417244044031
 10
94.29492125633277
 20
8.930188304314001
 10
97.00024711163277
 20
8.427516308169
 10
99.63871403518277
 20
7.923631472974
 10
102.32992141269278
 20
7.39483342504
  0
CIRCLE
  5
31
330
17
100
AcDbEntity
  8
CUT
100
AcDbCircle
 10
6.98915927706684
 20
9.483985031346709
 30
0.0
 40
2.4999987006686784
  0
ENDSEC
  0
SECTION
  2
OBJECTS
  0
DICTIONARY
  5
A
330
0
100
AcDbDictionary
281
1
  3
ACAD_COLOR
350
B
  3
ACAD_GROUP
350
C
  3
ACAD_LAYOUT
350
D
  3
ACAD_MATERIAL
350
E
  3
ACAD_MLEADERSTYLE
350
F
  3
ACAD_MLINESTYLE
350
10
  3
ACAD_PLOTSETTINGS
350
11
  3
ACAD_PLOTSTYLENAME
350
12
  3
ACAD_SCALELIST
350
14
  3
ACAD_TABLESTYLE
350
15
  3
ACAD_VISUALSTYLE
350
16
  3
EZDXF_META
350
2D
  0
DICTIONARY
  5
B
330
A
100
AcDbDictionary
281
1
  0
DICTIONARY
  5
C
330
A
100
AcDbDictionary
281
1
  0
DICTIONARY
  5
D
330
A
100
AcDbDictionary
281
1
  3
Model
350
1A
  3
Layout1
350
1E
  0
DICTIONARY
  5
E
330
A
100
AcDbDictionary
281
1
  3
ByBlock
350
1F
  3
ByLayer
350
20
  3
Global
350
21
  0
DICTIONARY
  5
F
330
A
100
AcDbDictionary
281
1
  3
Standard
350
2C
  0
DICTIONARY
  5
10
330
A
100
AcDbDictionary
281
1
  3
Standard
350
22
  0
DICTIONARY
  5
11
330
A
100
AcDbDictionary
281
1
  0
ACDBDICTIONARYWDFLT
  5
12
330
A
100
AcDbDictionary
281
1
  3
Normal
350
13
100
AcDbDictionaryWithDefault
340
13
  0
ACDBPLACEHOLDER
  5
13
330
12
  0
DICTIONARY
  5
14
330
A
100
AcDbDictionary
281
1
  0
DICTIONARY
  5
15
330
A
100
AcDbDictionary
281
1
  0
DICTIONARY
  5
16
330
A
100
AcDbDictionary
281
1
  0
LAYOUT
  5
1A
330
D
100
AcDbPlotSettings
  1

  4
A3
  6

 40
7.5
 41
20.0
 42
7.5
 43
20.0
 44
420.0
 45
297.0
 46
0.0
 47
0.0
 48
0.0
 49
0.0
140
0.0
141
0.0
142
1.0
143
1.0
 70
1024
 72
1
 73
0
 74
5
  7

 75
16
 76
0
 77
2
 78
300
147
1.0
148
0.0
149
0.0
100
AcDbLayout
  1
Model
 70
1
 71
0
 10
0.0
 20
0.0
 11
420.0
 21
297.0
 12
0.0
 22
0.0
 32
0.0
 14
1e+20
 24
1e+20
 34
1e+20
 15
-1e+20
 25
-1e+20
 35
-1e+20
146
0.0
 13
0.0
 23
0.0
 33
0.0
 16
1.0
 26
0.0
 36
0.0
 17
0.0
 27
1.0
 37
0.0
 76
1
330
17
  0
LAYOUT
  5
1E
330
D
100
AcDbPlotSettings
  1

  4
A3
  6

 40
7.5
 41
20.0
 42
7.5
 43
20.0
 44
420.0
 45
297.0
 46
0.0
 47
0.0
 48
0.0
 49
0.0
140
0.0
141
0.0
142
1.0
143
1.0
 70
0
 72
1
 73
0
 74
5
  7

 75
16
 76
0
 77
2
 78
300
147
1.0
148
0.0
149
0.0
100
AcDbLayout
  1
Layout1
 70
1
 71
1
 10
0.0
 20
0.0
 11
420.0
 21
297.0
 12
0.0
 22
0.0
 32
0.0
 14
1e+20
 24
1e+20
 34
1e+20
 15
-1e+20
 25
-1e+20
 35
-1e+20
146
0.0
 13
0.0
 23
0.0
 33
0.0
 16
1.0
 26
0.0
 36
0.0
 17
0.0
 27
1.0
 37
0.0
 76
1
330
1B
  0
MATERIAL
  5
1F
102
{ACAD_REACTORS
330
E
102
}
330
E
100
AcDbMaterial
  1
ByBlock
  2

 70
0
 40
1.0
 71
1
 41
1.0
 91
-1023410177
 42
1.0
 72
1
  3

 73
1
 74
1
 75
1
 44
0.5
 73
0
 45
1.0
 46
1.0
 77
1
  4

 78
1
 79
1
170
1
 48
1.0
171
1
  6

172
1
173
1
174
1
140
1.0
141
1.0
175
1
  7

176
1
177
1
178
1
143
1.0
179
1
  8

270
1
271
1
272
1
145
1.0
146
1.0
273
1
  9

274
1
275
1
276
1
 42
1.0
 72
1
  3

 73
1
 74
1
 75
1
 94
63
  0
MATERIAL
  5
20
102
{ACAD_REACTORS
330
E
102
}
330
E
100
AcDbMaterial
  1
ByLayer
  2

 70
0
 40
1.0
 71
1
 41
1.0
 91
-1023410177
 42
1.0
 72
1
  3

 73
1
 74
1
 75
1
 44
0.5
 73
0
 45
1.0
 46
1.0
 77
1
  4

 78
1
 79
1
170
1
 48
1.0
171
1
  6

172
1
173
1
174
1
140
1.0
141
1.0
175
1
  7

176
1
177
1
178
1
143
1.0
179
1
  8

270
1
271
1
272
1
145
1.0
146
1.0
273
1
  9

274
1
275
1
276
1
 42
1.0
 72
1
  3

 73
1
 74
1
 75
1
 94
63
  0
MATERIAL
  5
21
102
{ACAD_REACTORS
330
E
102
}
330
E
100
AcDbMaterial
  1
Global
  2

 70
0
 40
1.0
 71
1
 41
1.0
 91
-1023410177
 42
1.0
 72
1
  3

 73
1
 74
1
 75
1
 44
0.5
 73
0
 45
1.0
 46
1.0
 77
1
  4

 78
1
 79
1
170
1
 48
1.0
171
1
  6

172
1
173
1
174
1
140
1.0
141
1.0
175
1
  7

176
1
177
1
178
1
143
1.0
179
1
  8

270
1
271
1
272
1
145
1.0
146
1.0
273
1
  9

274
1
275
1
276
1
 42
1.0
 72
1
  3

 73
1
 74
1
 75
1
 94
63
  0
MLINESTYLE
  5
22
102
{ACAD_REACTORS
330
10
102
}
330
10
100
AcDbMlineStyle
  2
Standard
 70
0
  3

 62
256
 51
90.0
 52
90.0
 71
2
 49
0.5
 62
256
  6
BYLAYER
 49
-0.5
 62
256
  6
BYLAYER
  0
MLEADERSTYLE
  5
2C
102
{ACAD_REACTORS
330
F
102
}
330
F
100
AcDbMLeaderStyle
179
2
170
2
171
1
172
0
 90
2
 40
0.0
 41
0.0
173
1
 91
-1056964608
 92
-2
290
1
 42
2.0
291
1
 43
8.0
  3
Standard
 44
4.0
300

342
29
174
1
175
1
176
0
178
1
 93
-1056964608
 45
4.0
292
0
297
0
 46
4.0
 94
-1056964608
 47
1.0
 49
1.0
140
1.0
294
1
141
0.0
177
0
142
1.0
295
0
296
0
143
3.75
271
0
272
9
273
9
  0
DICTIONARY
  5
2D
330
A
100
AcDbDictionary
280
1
281
1
  3
CREATED_BY_EZDXF
350
2E
  3
WRITTEN_BY_EZDXF
350
34
  0
DICTIONARYVAR
  5
2E
330
2D
100
DictionaryVariables
280
0
  1
1.4.4 @ 2026-10-02T11:49:36.213207+00:00
  0
DICTIONARYVAR
  5
34
330
2D
100
DictionaryVariables
280
0
  1
1.4.4 @ 2026-10-02T11:49:36.217639+00:00
  0
ENDSEC
  0
EOF
