  0
SECTION
  2
HEADER
  9
$ACADVER
  1
AC1027
  9
$ACADMAINTVER
 70
105
  9
$DWGCODEPAGE
  3
ANSI_1252
  9
$LASTSAVEDBY
  1
ezdxf
  9
$REQUIREDVERSIONS
160
0
  9
$INSBASE
 10
0.0
 20
0.0
 30
0.0
  9
$EXTMIN
 10
1e+20
 20
1e+20
 30
1e+20
  9
$EXTMAX
 10
-1e+20
 20
-1e+20
 30
-1e+20
  9
$LIMMIN
 10
0.0
 20
0.0
  9
$LIMMAX
 10
420.0
 20
297.0
  9
$ORTHOMODE
 70
0
  9
$REGENMODE
 70
1
  9
$FILLMODE
 70
1
  9
$QTEXTMODE
 70
0
  9
$MIRRTEXT
 70
1
  9
$LTSCALE
 40
1.0
  9
$ATTMODE
 70
1
  9
$TEXTSIZE
 40
2.5
  9
$TRACEWID
 40
1.0
  9
$TEXTSTYLE
  7
Standard
  9
$CLAYER
  8
0
  9
$CELTYPE
  6
ByLayer
  9
$CECOLOR
 62
256
  9
$CELTSCALE
 40
1.0
  9
$DISPSILH
 70
0
  9
$DIMSCALE
 40
1.0
  9
$DIMASZ
 40
2.5
  9
$DIMEXO
 40
0.625
  9
$DIMDLI
 40
3.75
  9
$DIMRND
 40
0.0
  9
$DIMDLE
 40
0.0
  9
$DIMEXE
 40
1.25
  9
$DIMTP
 40
0.0
  9
$DIMTM
 40
0.0
  9
$DIMTXT
 40
2.5
  9
$DIMCEN
 40
2.5
  9
$DIMTSZ
 40
0.0
  9
$DIMTOL
 70
0
  9
$DIMLIM
 70
0
  9
$DIMTIH
 70
0
  9
$DIMTOH
 70
0
  9
$DIMSE1
 70
0
  9
$DIMSE2
 70
0
  9
$DIMTAD
 70
1
  9
$DIMZIN
 70
8
  9
$DIMBLK
  1

  9
$DIMASO
 70
1
  9
$DIMSHO
 70
1
  9
$DIMPOST
  1

  9
$DIMAPOST
  1

  9
$DIMALT
 70
0
  9
$DIMALTD
 70
3
  9
$DIMALTF
 40
0.03937007874
  9
$DIMLFAC
 40
1.0
  9
$DIMTOFL
 70
1
  9
$DIMTVP
 40
0.0
  9
$DIMTIX
 70
0
  9
$DIMSOXD
 70
0
  9
$DIMSAH
 70
0
  9
$DIMBLK1
  1

  9
$DIMBLK2
  1

  9
$DIMSTYLE
  2
ISO-25
  9
$DIMCLRD
 70
0
  9
$DIMCLRE
 70
0
  9
$DIMCLRT
 70
0
  9
$DIMTFAC
 40
1.0
  9
$DIMGAP
 40
0.625
  9
$DIMJUST
 70
0
  9
$DIMSD1
 70
0
  9
$DIMSD2
 70
0
  9
$DIMTOLJ
 70
0
  9
$DIMTZIN
 70
8
  9
$DIMALTZ
 70
0
  9
$DIMALTTZ
 70
0
  9
$DIMUPT
 70
0
  9
$DIMDEC
 70
2
  9
$DIMTDEC
 70
2
  9
$DIMALTU
 70
2
  9
$DIMALTTD
 70
3
  9
$DIMTXSTY
  7
Standard
  9
$DIMAUNIT
 70
0
  9
$DIMADEC
 70
0
  9
$DIMALTRND
 40
0.0
  9
$DIMAZIN
 70
0
  9
$DIMDSEP
 70
44
  9
$DIMATFIT
 70
3
  9
$DIMFRAC
 70
0
  9
$DIMLDRBLK
  1

  9
$DIMLUNIT
 70
2
  9
$DIMLWD
 70
-2
  9
$DIMLWE
 70
-2
  9
$DIMTMOVE
 70
0
  9
$DIMFXL
 40
1.0
  9
$DIMFXLON
 70
0
  9
$DIMJOGANG
 40
0.785398163397
  9
$DIMTFILL
 70
0
  9
$DIMTFILLCLR
 70
0
  9
$DIMARCSYM
 70
0
  9
$DIMLTYPE
  6

  9
$DIMLTEX1
  6

  9
$DIMLTEX2
  6

  9
$DIMTXTDIRECTION
 70
0
  9
$LUNITS
 70
2
  9
$LUPREC
 70
4
  9
$SKETCHINC
 40
1.0
  9
$FILLETRAD
 40
10.0
  9
$AUNITS
 70
0
  9
$AUPREC
 70
2
  9
$MENU
  1
.
  9
$ELEVATION
 40
0.0
  9
$PELEVATION
 40
0.0
  9
$THICKNESS
 40
0.0
  9
$LIMCHECK
 70
0
  9
$CHAMFERA
 40
0.0
  9
$CHAMFERB
 40
0.0
  9
$CHAMFERC
 40
0.0
  9
$CHAMFERD
 40
0.0
  9
$SKPOLY
 70
0
  9
$TDCREATE
 40
2461308.063622685
  9
$TDUCREATE
 40
2458532.153996898
  9
$TDUPDATE
 40
2461308.063622685
  9
$TDUUPDATE
 40
2458532.1544311
  9
$TDINDWG
 40
0.0
  9
$TDUSRTIMER
 40
0.0
  9
$USRTIMER
 70
1
  9
$ANGBASE
 50
0.0
  9
$ANGDIR
 70
0
  9
$PDMODE
 70
0
  9
$PDSIZE
 40
0.0
  9
$PLINEWID
 40
0.0
  9
$SPLFRAME
 70
0
  9
$SPLINETYPE
 70
6
  9
$SPLINESEGS
 70
8
  9
$HANDSEED
  5
36
  9
$SURFTAB1
 70
6
  9
$SURFTAB2
 70
6
  9
$SURFTYPE
 70
6
  9
$SURFU
 70
6
  9
$SURFV
 70
6
  9
$UCSBASE
  2

  9
$UCSNAME
  2

  9
$UCSORG
 10
0.0
 20
0.0
 30
0.0
  9
$UCSXDIR
 10
1.0
 20
0.0
 30
0.0
  9
$UCSYDIR
 10
0.0
 20
1.0
 30
0.0
  9
$UCSORTHOREF
  2

  9
$UCSORTHOVIEW
 70
0
  9
$UCSORGTOP
 10
0.0
 20
0.0
 30
0.0
  9
$UCSORGBOTTOM
 10
0.0
 20
0.0
 30
0.0
  9
$UCSORGLEFT
 10
0.0
 20
0.0
 30
0.0
  9
$UCSORGRIGHT
 10
0.0
 20
0.0
 30
0.0
  9
$UCSORGFRONT
 10
0.0
 20
0.0
 30
0.0
  9
$UCSORGBACK
 10
0.0
 20
0.0
 30
0.0
  9
$PUCSBASE
  2

  9
$PUCSNAME
  2

  9
$PUCSORG
 10
0.0
 20
0.0
 30
0.0
  9
$PUCSXDIR
 10
1.0
 20
0.0
 30
0.0
  9
$PUCSYDIR
 10
0.0
 20
1.0
 30
0.0
  9
$PUCSORTHOREF
  2

  9
$PUCSORTHOVIEW
 70
0
  9
$PUCSORGTOP
 10
0.0
 20
0.0
 30
0.0
  9
$PUCSORGBOTTOM
 10
0.0
 20
0.0
 30
0.0
  9
$PUCSORGLEFT
 10
0.0
 20
0.0
 30
0.0
  9
$PUCSORGRIGHT
 10
0.0
 20
0.0
 30
0.0
  9
$PUCSORGFRONT
 10
0.0
 20
0.0
 30
0.0
  9
$PUCSORGBACK
 10
0.0
 20
0.0
 30
0.0
  9
$USERI1
 70
0
  9
$USERI2
 70
0
  9
$USERI3
 70
0
  9
$USERI4
 70
0
  9
$USERI5
 70
0
  9
$USERR1
 40
0.0
  9
$USERR2
 40
0.0
  9
$USERR3
 40
0.0
  9
$USERR4
 40
0.0
  9
$USERR5
 40
0.0
  9
$WORLDVIEW
 70
1
  9
$SHADEDGE
 70
3
  9
$SHADEDIF
 70
70
  9
$TILEMODE
 70
1
  9
$MAXACTVP
 70
64
  9
$PINSBASE
 10
0.0
 20
0.0
 30
0.0
  9
$PLIMCHECK
 70
0
  9
$PEXTMIN
 10
1e+20
 20
1e+20
 30
1e+20
  9
$PEXTMAX
 10
-1e+20
 20
-1e+20
 30
-1e+20
  9
$PLIMMIN
 10
0.0
 20
0.0
  9
$PLIMMAX
 10
420.0
 20
297.0
  9
$UNITMODE
 70
0
  9
$VISRETAIN
 70
1
  9
$PLINEGEN
 70
0
  9
$PSLTSCALE
 70
1
  9
$TREEDEPTH
 70
3020
  9
$CMLSTYLE
  2
Standard
  9
$CMLJUST
 70
0
  9
$CMLSCALE
 40
20.0
  9
$PROXYGRAPHICS
 70
1
  9
$MEASUREMENT
 70
1
  9
$CELWEIGHT
370
-1
  9
$ENDCAPS
280
0
  9
$JOINSTYLE
280
0
  9
$LWDISPLAY
290
0
  9
$INSUNITS
 70
4
  9
$HYPERLINKBASE
  1

  9
$STYLESHEET
  1

  9
$XEDIT
290
1
  9
$CEPSNTYPE
380
0
  9
$PSTYLEMODE
290
1
  9
$FINGERPRINTGUID
  2
{47A7EEC8-EE40-4AC7-AD97-5FA3D8B54D90}
  9
$VERSIONGUID
  2
{19585C6C-5813-4299-8DAC-6BBE26547454}
  9
$EXTNAMES
290
1
  9
$PSVPSCALE
 40
0.0
  9
$OLESTARTUP
290
0
  9
$SORTENTS
280
127
  9
$INDEXCTL
280
0
  9
$HIDETEXT
280
1
  9
$XCLIPFRAME
280
1
  9
$HALOGAP
280
0
  9
$OBSCOLOR
 70
257
  9
$OBSLTYPE
280
0
  9
$INTERSECTIONDISPLAY
280
0
  9
$INTERSECTIONCOLOR
 70
257
  9
$DIMASSOC
280
2
  9
$PROJECTNAME
  1

  9
$CAMERADISPLAY
290
0
  9
$LENSLENGTH
 40
50.0
  9
$CAMERAHEIGHT
 40
0.0
  9
$STEPSPERSEC
 40
24.0
  9
$STEPSIZE
 40
100.0
  9
$3DDWFPREC
 40
2.0
  9
$PSOLWIDTH
 40
0.005
  9
$PSOLHEIGHT
 40
0.08
  9
$LOFTANG1
 40
1.570796326795
  9
$LOFTANG2
 40
1.570796326795
  9
$LOFTMAG1
 40
0.0
  9
$LOFTMAG2
 40
0.0
  9
$LOFTPARAM
 70
7
  9
$LOFTNORMALS
280
1
  9
$LATITUDE
 40
37.795
  9
$LONGITUDE
 40
-122.394
  9
$NORTHDIRECTION
 40
0.0
  9
$TIMEZONE
 70
-8000
  9
$LIGHTGLYPHDISPLAY
280
1
  9
$TILEMODELIGHTSYNCH
280
1
  9
$CMATERIAL
347
20
  9
$SOLIDHIST
280
0
  9
$SHOWHIST
280
1
  9
$DWFFRAME
280
2
  9
$DGNFRAME
280
2
  9
$REALWORLDSCALE
290
1
  9
$INTERFERECOLOR
 62
256
  9
$CSHADOW
280
0
  9
$SHADOWPLANELOCATION
 40
0.0
  0
ENDSEC
  0
SECTION
  2
CLASSES
  0
CLASS
  1
ACDBDICTIONARYWDFLT
  2
AcDbDictionaryWithDefault
  3
ObjectDBX Classes
 90
0
 91
0
280
0
281
0
  0
CLASS
  1
SUN
  2
AcDbSun
  3
SCENEOE
 90
1153
 91
0
280
0
281
0
  0
CLASS
  1
VISUALSTYLE
  2
AcDbVisualStyle
  3
ObjectDBX Classes
 90
4095
 91
0
280
0
281
0
  0
CLASS
  1
MATERIAL
  2
AcDbMaterial
  3
ObjectDBX Classes
 90
1153
 91
0
280
0
281
0
  0
CLASS
  1
SCALE
  2
AcDbScale
  3
ObjectDBX Classes
 90
1153
 91
0
280
0
281
0
  0
CLASS
  1
TABLESTYLE
  2
AcDbTableStyle
  3
ObjectDBX Classes
 90
4095
 91
0
280
0
281
0
  0
CLASS
  1
MLEADERSTYLE
  2
AcDbMLeaderStyle
  3
ACDB_MLEADERSTYLE_CLASS
 90
4095
 91
0
280
0
281
0
  0
CLASS
  1
DICTIONARYVAR
  2
AcDbDictionaryVar
  3
ObjectDBX Classes
 90
0
 91
0
280
0
281
0
  0
CLASS
  1
CELLSTYLEMAP
  2
AcDbCellStyleMap
  3
ObjectDBX Classes
 90
1152
 91
0
280
0
281
0
  0
CLASS
  1
MENTALRAYRENDERSETTINGS
  2
AcDbMentalRayRenderSettings
  3
SCENEOE
 90
1024
 91
0
280
0
281
0
  0
CLASS
  1
ACDBDETAILVIEWSTYLE
  2
AcDbDetailViewStyle
  3
ObjectDBX Classes
 90
1025
 91
0
280
0
281
0
  0
CLASS
  1
ACDBSECTIONVIEWSTYLE
  2
AcDbSectionViewStyle
  3
ObjectDBX Classes
 90
1025
 91
0
280
0
281
0
  0
CLASS
  1
RASTERVARIABLES
  2
AcDbRasterVariables
  3
ISM
 90
0
 91
0
280
0
281
0
  0
CLASS
  1
ACDBPLACEHOLDER
  2
AcDbPlaceHolder
  3
ObjectDBX Classes
 90
0
 91
0
280
0
281
0
  0
CLASS
  1
LAYOUT
  2
AcDbLayout
  3
ObjectDBX Classes
 90
0
 91
0
280
0
281
0
  0
ENDSEC
  0
SECTION
  2
TABLES
  0
TABLE
  2
VPORT
  5
8
330
0
100
AcDbSymbolTable
 70
1
  0
VPORT
  5
23
330
8
100
AcDbSymbolTableRecord
100
AcDbViewportTableRecord
  2
*Active
 70
0
 10
0.0
 20
0.0
 11
1.0
 21
1.0
 12
0.0
 22
0.0
 13
0.0
 23
0.0
 14
0.5
 24
0.5
 15
0.5
 25
0.5
 16
0.0
 26
0.0
 36
1.0
 17
0.0
 27
0.0
 37
0.0
 40
1000.0
 41
1.34
 42
50.0
 43
0.0
 44
0.0
 50
0.0
 51
0.0
 71
0
 72
1000
 73
1
 74
3
 75
0
 76
0
 77
0
 78
0
281
0
 65
0
146
0.0
  0
ENDTAB
  0
TABLE
  2
LTYPE
  5
2
330
0
100
AcDbSymbolTable
 70
3
  0
LTYPE
  5
24
330
2
100
AcDbSymbolTableRecord
100
AcDbLinetypeTableRecord
  2
ByBlock
 70
0
  3

 72
65
 73
0
 40
0.0
  0
LTYPE
  5
25
330
2
100
AcDbSymbolTableRecord
100
AcDbLinetypeTableRecord
  2
ByLayer
 70
0
  3

 72
65
 73
0
 40
0.0
  0
LTYPE
  5
26
330
2
100
AcDbSymbolTableRecord
100
AcDbLinetypeTableRecord
  2
Continuous
 70
0
  3

 72
65
 73
0
 40
0.0
  0
ENDTAB
  0
TABLE
  2
LAYER
  5
1
330
0
100
AcDbSymbolTable
 70
2
  0
LAYER
  5
27
330
1
100
AcDbSymbolTableRecord
100
AcDbLayerTableRecord
  2
0
 70
0
 62
7
  6
Continuous
370
-3
390
13
347
21
  0
LAYER
  5
28
330
1
100
AcDbSymbolTableRecord
100
AcDbLayerTableRecord
  2
Defpoints
 70
0
 62
7
  6
Continuous
290
0
370
-3
390
13
347
21
  0
ENDTAB
  0
TABLE
  2
STYLE
  5
5
330
0
100
AcDbSymbolTable
 70
1
  0
STYLE
  5
29
330
5
100
AcDbSymbolTableRecord
100
AcDbTextStyleTableRecord
  2
Standard
 70
0
 40
0.0
 41
1.0
 50
0.0
 71
0
 42
2.5
  3
txt
  4

  0
ENDTAB
  0
TABLE
  2
VIEW
  5
7
330
0
100
AcDbSymbolTable
 70
0
  0
ENDTAB
  0
TABLE
  2
UCS
  5
6
330
0
100
AcDbSymbolTable
 70
0
  0
ENDTAB
  0
TABLE
  2
APPID
  5
3
330
0
100
AcDbSymbolTable
 70
3
  0
APPID
  5
2A
330
3
100
AcDbSymbolTableRecord
100
AcDbRegAppTableRecord
  2
ACAD
 70
0
  0
APPID
  5
33
330
3
100
AcDbSymbolTableRecord
100
AcDbRegAppTableRecord
  2
HATCHBACKGROUNDCOLOR
 70
0
  0
APPID
  5
34
330
3
100
AcDbSymbolTableRecord
100
AcDbRegAppTableRecord
  2
EZDXF
 70
0
  0
ENDTAB
  0
TABLE
  2
DIMSTYLE
  5
4
330
0
100
AcDbSymbolTable
 70
1
100
AcDbDimStyleTable
  0
DIMSTYLE
105
2B
330
4
100
AcDbSymbolTableRecord
100
AcDbDimStyleTableRecord
  2
Standard
 70
0
 40
1.0
 41
2.5
 42
0.625
 43
3.75
 44
1.25
 45
0.0
 46
0.0
 47
0.0
 48
0.0
 49
2.5
140
2.5
141
2.5
142
0.0
143
0.03937007874
144
1.0
145
0.0
146
1.0
147
0.625
148
0.0
 69
0
 70
0
 71
0
 72
0
 73
0
 74
0
 75
0
 76
0
 77
1
 78
8
 79
3
170
0
171
3
172
1
173
0
174
0
175
0
176
0
177
0
178
0
179
2
271
2
272
2
273
2
274
3
275
0
276
0
277
2
278
44
279
0
280
0
281
0
282
0
283
0
284
8
285
0
286
0
288
0
289
3
290
0
371
-2
372
-2
  0
ENDTAB
  0
TABLE
  2
BLOCK_RECORD
  5
9
330
0
100
AcDbSymbolTable
 70
2
  0
BLOCK_RECORD
  5
17
330
9
100
AcDbSymbolTableRecord
100
AcDbBlockTableRecord
  2
*Model_Space
340
1A
 70
0
280
1
281
0
  0
BLOCK_RECORD
  5
1B
330
9
100
AcDbSymbolTableRecord
100
AcDbBlockTableRecord
  2
*Paper_Space
340
1E
 70
0
280
1
281
0
  0
ENDTAB
  0
ENDSEC
  0
SECTION
  2
BLOCKS
  0
BLOCK
  5
18
330
17
100
AcDbEntity
  8
0
100
AcDbBlockBegin
  2
*Model_Space
 70
0
 10
0.0
 20
0.0
 30
0.0
  3
*Model_Space
  1

  0
ENDBLK
  5
19
330
17
100
AcDbEntity
  8
0
100
AcDbBlockEnd
  0
BLOCK
  5
1C
330
1B
100
AcDbEntity
  8
0
100
AcDbBlockBegin
  2
*Paper_Space
 70
0
 10
0.0
 20
0.0
 30
0.0
  3
*Paper_Space
  1

  0
ENDBLK
  5
1D
330
1B
100
AcDbEntity
  8
0
100
AcDbBlockEnd
  0
ENDSEC
  0
SECTION
  2
ENTITIES
  0
LWPOLYLINE
  5
2F
330
17
100
AcDbEntity
  8
0
100
AcDbPolyline
 90
218
 70
1
 10
67.86834582966826
 20
13.241773340874007
 10
64.66511714033545
 20
13.545113934885379
 10
61.574931366255484
 20
13.804036039919582
 10
58.374224332655515
 20
14.037509135889808
 10
56.7482257167956
 20
14.141536742931029
 10
55.157046233295475
 20
14.233166063984111
 10
52.26284696963555
 20
14.373980791373635
 10
49.2444883311705
 20
14.486841303972334
 10
46.94388735908052
 20
14.549715735306052
 10
44.70177384647353
 20
14.592798743371304
 10
42.41425481056153
 20
14.620223180295
 10
40.13779046181952
 20
14.63277764296345
 10
37.44808594082153
 20
14.629430788024324
 10
35.953341460714526
 20
14.616007337178317
 10
34.46723472859452
 20
14.592223077261774
 10
34.4752473066318
 20
4.9181752950419595
 10
29.47524903107752
 20
4.914022652785193
 10
29.467362181425894
 20
14.410201764592006
 10
27.756223738768536
 20
14.302668304150842
 10
26.01440852675857
 20
14.165029164848493
 10
24.184138755424453
 20
13.987588743117715
 10
22.35618887395648
 20
13.77542631960537
 10
21.266741333132412
 20
13.632037711935851
 10
20.200153250513647
 20
13.480191722479116
 10
18.773176058502653
 20
13.258798431750186
 10
17.39172306127544
 20
13.023966050591499
 10
16.057414806587484
 20
12.777284536975193
 10
14.77177026240555
 20
12.520389700854825
 10
13.43767279702227
 20
12.231424960488177
 10
11.991484115570305
 20
11.88925180503093
 10
11.594251887835572
 20
11.786640068334828
 10
11.689711609395221
 20
11.743960383411306
 10
11.772170653215728
 20
11.7030862016104
 10
11.853069356393593
 20
11.659204628375118
 10
11.95831792553756
 20
11.59612106372704
 10
12.060344354364343
 20
11.527949183481715
 10
12.134601479330723
 20
11.473579412125249
 10
12.20680708622849
 20
11.416513284009952
 10
12.276863319794561
 20
11.356828136912032
 10
12.366764499341482
 20
11.273314213812942
 10
12.431441583198204
 20
11.207838512445667
 10
12.493664862128899
 20
11.140026594578334
 10
12.553350009226495
 20
11.069970361011961
 10
12.61041613734157
 20
10.997764754114032
 10
12.664785908698267
 20
10.9235076291478
 10
12.716385639706825
 20
10.847299621658191
 10
12.780756016123487
 20
10.742833109916962
 10
12.825627036690324
 20
10.662478992667872
 10
12.880797108628204
 20
10.552874884178829
 10
12.918608505044968
 20
10.468967250756188
 10
12.953305872906196
 20
10.383724741940854
 10
12.99464432730252
 20
10.268191501599986
 10
13.02190017435868
 20
10.180286374066032
 10
13.045902008806049
 20
10.091437600361125
 10
13.06661730261813
 20
10.001765591083892
 10
13.089077421214125
 20
9.881132508937906
 10
13.102022712316728
 20
9.790013838601011
 10
13.111605406276698
 20
9.698480431464002
 10
13.117812516332474
 20
9.60665633642198
 10
13.120635630417485
 20
9.514665996316982
 10
13.120070922560185
 20
9.422634079295984
 10
13.1161191580704
 20
9.330685309847945
 10
13.10559130082498
 20
9.208431632368029
 10
13.09376515073166
 20
9.117160964464967
 10
13.072787076827677
 20
8.996261345562957
 10
13.05317375633324
 20
8.906341879901044
 10
13.030264040308356
 20
8.817205256916026
 10
13.004088976705315
 20
8.728972277304743
 10
12.97468403877684
 20
8.641762517123208
 10
12.94208907700268
 20
8.555694165722922
 10
12.893743833545937
 20
8.442913250358803
 10
12.853884628808284
 20
8.359958826467093
 10
12.810999111308018
 20
8.278527720405245
 10
12.765145400820753
 20
8.198730290119844
 10
12.699497906576017
 20
8.095061568053668
 10
12.646966871450648
 20
8.01949250696189
 10
12.591689944885648
 20
7.945908174151636
 10
12.513845992086363
 20
7.851055043218292
 10
12.452459554999987
 20
7.782484656114457
 10
12.3667644993422
 20
7.6946600873933235
 10
12.299721262937066
 20
7.631609337216467
 10
12.230402733043793
 20
7.571068986546676
 10
12.158902852271357
 20
7.513121081537183
 10
12.085318519460703
 20
7.457844154971731
 10
12.009749458368443
 20
7.405313119847094
 10
11.906080736302219
 20
7.339665625602464
 10
11.826283306017832
 20
7.293811915114444
 10
11.717364472165368
 20
7.237300986368293
 10
11.633927160831544
 20
7.198462761343947
 10
11.549116860699481
 20
7.162721949420094
 10
11.46304850930068
 20
7.130126987645578
 10
11.375838749117559
 20
7.1007220497178825
 10
11.257988024830443
 20
7.06654597299126
 10
11.168576976211558
 20
7.044731825506844
 10
11.048228597720513
 20
7.020793044631031
 10
10.957275647087538
 20
7.006730562033912
 10
10.865866726643535
 20
6.996025333922914
 10
10.774125716575515
 20
6.98869186835312
 10
10.712841933172509
 20
6.985681189132425
 10
10.620823875819529
 20
6.983987150602853
 10
10.528805818466527
 20
6.985681189132089
 10
10.467522035063507
 20
6.988691868352518
 10
10.375781024995515
 20
6.996025333922823
 10
10.314797187821608
 20
7.002788314106676
 10
10.223678517484554
 20
7.015733605208171
 10
10.133098070779429
 20
7.032023949594423
 10
10.043178605117593
 20
7.051637270089261
 10
9.95404198213257
 20
7.07454698611415
 10
9.865809002521292
 20
7.100722049717181
 10
9.778599242338554
 20
7.13012698764606
 10
9.721086284482634
 20
7.1515051535162595
 10
9.635843775666533
 20
7.186202521377991
 10
9.55193614224373
 20
7.224013917794405
 10
9.496795551682506
 20
7.250926397613924
 10
9.415364445621169
 20
7.293811915114281
 10
9.361977916505648
 20
7.324055010299183
 10
9.283329826101575
 20
7.371853237479041
 10
9.20649434886079
 20
7.422513893640374
 10
9.131575614588495
 20
7.475968321900927
 10
9.082744899367274
 20
7.513121081536635
 10
9.011245018595357
 20
7.571068986546765
 10
8.941926488701792
 20
7.631609337216272
 10
8.874883252297064
 20
7.694660087393482
 10
8.81020616844135
 20
7.760135788760792
 10
8.747982889510158
 20
7.827947706627635
 10
8.707905711763193
 20
7.874408293378691
 10
8.649957806753338
 20
7.945908174151633
 10
8.59468088018765
 20
8.019492506961313
 10
8.542149845063651
 20
8.09506156805406
 10
8.476502350819022
 20
8.198730290120285
 10
8.430648640330755
 20
8.278527720405108
 10
8.374137711584059
 20
8.387446554256735
 10
8.335299486560505
 20
8.470883865590967
 10
8.299558674636646
 20
8.555694165723029
 10
8.266963712861678
 20
8.641762517123032
 10
8.237558774933841
 20
8.728972277304747
 10
8.211383711331319
 20
8.817205256916214
 10
8.181568550722911
 20
8.936234050210828
 10
8.163060157241862
 20
9.02638743071505
 10
8.147882600907526
 20
9.117160964464983
 10
8.132862059139082
 20
9.238944299778927
 10
8.123835235307045
 20
9.361317964785021
 10
8.1210121212216
 20
9.453308304888985
 10
8.121576829078872
 20
9.545340221909981
 10
8.1255285935687
 20
9.637288991359021
 10
8.13286205913938
 20
9.729030001426997
 10
8.147882600907973
 20
9.850813336740933
 10
8.16886067481138
 20
9.97171295564301
 10
8.188473995305817
 20
10.061632421304921
 10
8.211383711330708
 20
10.150769044289941
 10
8.237558774933742
 20
10.239002023901225
 10
8.266963712862516
 20
10.326211784083654
 10
8.311125044540884
 20
10.44069573151624
 10
8.347903918093348
 20
10.525061050847068
 10
8.387763122831164
 20
10.608015474739688
 10
8.43064864033062
 20
10.68944658080094
 10
8.492435893055887
 20
10.79546135729936
 10
8.542149845063467
 20
10.872912733152031
 10
8.603548278385805
 20
10.960592705870802
 10
8.07293691256245
 20
10.800778563390256
 10
7.131616455026486
 20
10.50141859076713
 10
6.81477665276869
 20
10.394741631569513
 10
5.705672256725554
 20
9.988759868706936
 10
4.741303284808251
 20
9.601587931207666
 10
3.904867119224588
 20
9.233105566770861
 10
3.180974492001579
 20
8.883720549432875
 10
2.3839756829329106
 20
8.459320137648257
 10
1.9743612996832356
 20
8.222909173181488
 10
1.5993224816067384
 20
7.993991788518644
 10
0.9150220261922657
 20
7.543585344082377
 10
0.5889170013876113
 20
7.305708690910862
 10
0.17384915240991905
 20
6.977912348597478
 10
-2.654423379776054e-15
 20
6.833745000373607
 10
0.1753661547524148
 20
6.787493742031543
 10
0.5119711211796245
 20
6.706297779179347
 10
1.2832220483874481
 20
6.537929389821624
 10
2.173414238777622
 20
6.358252928383428
 10
3.06550795033444
 20
6.192812447999449
 10
3.8424634410434892
 20
6.067152001806692
 10
4.68554535750759
 20
5.956372423105414
 10
5.544509471209456
 20
5.860508463118341
 10
7.308821553730529
 20
5.70000894649097
 10
8.830176318981596
 20
5.577979751512837
 10
10.345568992833474
 20
5.467996033813157
 10
12.66769436429654
 20
5.328511333631167
 10
15.372967675392541
 20
5.197018741044244
 10
18.377404658064503
 20
5.086900074936709
 10
20.992167339371516
 20
5.017633352032056
 10
23.501395678088524
 20
4.9708765374517565
 10
28.602640228061556
 20
2.4125260166332763e-15
 10
39.77932610216352
 20
0.009282558813092227
 10
39.76910684766763
 20
12.313798886327
 10
62.569098984205525
 20
12.332735020145545
 10
62.57931823860413
 20
0.028218607505933163
 10
74.33058631092551
 20
0.03797837334654528
 10
74.33057913599264
 20
0.04661737305293194
 10
79.2762733228278
 20
5.005215099592685
 10
117.02558772631552
 20
5.07262002247583
 10
113.18178174974564
 20
5.905974073478514
 10
109.27679296921544
 20
6.724157664512624
 10
107.80973615643536
 20
7.023515675152195
 10
105.96158662637554
 20
7.394833425039926
 10
103.27037924886558
 20
7.923631472974283
 10
100.63191232531538
 20
8.427516308169203
 10
97.9265864700158
 20
8.930188304313507
 10
95.21896915685515
 20
9.41724404403088
 10
92.59887004885569
 20
9.871157017961984
 10
89.88063501980561
 20
10.325812747447461
 10
87.15762585413536
 20
10.762290323165985
 10
84.52787177229551
 20
11.163619382412081
 10
81.57919102102547
 20
11.592034032703532
 10
78.6539286390957
 20
11.991610946412262
 10
75.80443734645563
 20
12.355242825626739
 10
72.86879330318568
 20
12.705067986466258
 10
72.87532027140468
 20
4.846136806607023
 10
66.87532234072806
 20
4.841153635899114
 10
66.86904850700462
 20
12.395177281268259
 10
67.86904826224712
 20
12.396007809803196
  0
LWPOLYLINE
  5
30
330
17
100
AcDbEntity
  8
0
100
AcDbPolyline
 90
32
 70
1
 10
66.17420583753552
 20
6.1848964300589655
 10
66.15499111793875
 20
5.989806108042837
 10
66.09808537004682
 20
5.802212997693877
 10
66.00567544983807
 20
5.629326197039364
 10
65.88131261872208
 20
5.477789648872418
 10
65.72977607055513
 20
5.35342681775642
 10
65.55688926990061
 20
5.2610168975476785
 10
65.36929615955165
 20
5.204111149655735
 10
65.17420583753552
 20
5.184896430058966
 10
64.9791155155194
 20
5.204111149655735
 10
64.79152240517044
 20
5.2610168975476785
 10
64.61863560451592
 20
5.353426817756421
 10
64.46709905634897
 20
5.477789648872418
 10
64.34273622523298
 20
5.629326197039364
 10
64.25032630502423
 20
5.802212997693877
 10
64.1934205571323
 20
5.9898061080428375
 10
64.17420583753552
 20
6.184896430058966
 10
64.1934205571323
 20
6.379986752075095
 10
64.25032630502423
 20
6.567579862424057
 10
64.34273622523298
 20
6.740466663078569
 10
64.46709905634897
 20
6.892003211245514
 10
64.61863560451593
 20
7.016366042361512
 10
64.79152240517044
 20
7.108775962570253
 10
64.9791155155194
 20
7.165681710462197
 10
65.17420583753552
 20
7.1848964300589655
 10
65.36929615955165
 20
7.165681710462196
 10
65.55688926990062
 20
7.108775962570252
 10
65.72977607055513
 20
7.0163660423615095
 10
65.88131261872208
 20
6.892003211245511
 10
66.00567544983807
 20
6.740466663078564
 10
66.09808537004682
 20
6.5675798624240525
 10
66.15499111793875
 20
6.379986752075091
  0
LWPOLYLINE
  5
31
330
17
100
AcDbEntity
  8
0
100
AcDbPolyline
 90
32
 70
1
 10
38.17421549443553
 20
6.1616416334189665
 10
38.15500077483876
 20
5.966551311402838
 10
38.098095026946815
 20
5.778958201053877
 10
38.00568510673808
 20
5.606071400399364
 10
37.881322275622075
 20
5.454534852232419
 10
37.72978572745513
 20
5.33017202111642
 10
37.55689892680062
 20
5.237762100907679
 10
37.36930581645166
 20
5.180856353015736
 10
37.17421549443553
 20
5.1616416334189665
 10
36.9791251724194
 20
5.180856353015736
 10
36.79153206207044
 20
5.237762100907679
 10
36.61864526141593
 20
5.330172021116421
 10
36.46710871324898
 20
5.454534852232419
 10
36.34274588213298
 20
5.606071400399364
 10
36.25033596192424
 20
5.778958201053877
 10
36.1934302140323
 20
5.966551311402839
 10
36.17421549443553
 20
6.161641633418967
 10
36.1934302140323
 20
6.356731955435095
 10
36.25033596192424
 20
6.544325065784058
 10
36.34274588213299
 20
6.71721186643857
 10
36.46710871324898
 20
6.868748414605515
 10
36.61864526141593
 20
6.993111245721513
 10
36.79153206207044
 20
7.085521165930254
 10
36.9791251724194
 20
7.142426913822197
 10
37.17421549443553
 20
7.1616416334189665
 10
37.36930581645166
 20
7.142426913822196
 10
37.55689892680062
 20
7.085521165930253
 10
37.72978572745513
 20
6.9931112457215105
 10
37.88132227562208
 20
6.868748414605512
 10
38.00568510673808
 20
6.717211866438565
 10
38.098095026946815
 20
6.5443250657840535
 10
38.15500077483876
 20
6.356731955435091
  0
LWPOLYLINE
  5
32
330
17
100
AcDbEntity
  8
0
100
AcDbPolyline
 90
64
 70
1
 10
90.42945895268672
 20
6.422790624773452
 10
90.30355529964386
 20
6.499068740857198
 10
90.18573390679732
 20
6.587324194954342
 10
90.07712945857513
 20
6.6867070387765315
 10
89.9787878751841
 20
6.796260161220703
 10
89.89165623982795
 20
6.914928505830743
 10
89.81657367778435
 20
7.041569231569279
 10
89.75426327517557
 20
7.1749627190269925
 10
89.70532511523702
 20
7.313824315995493
 10
89.67023049920103
 20
7.456816709385874
 10
89.64931740741197
 20
7.602562804284465
 10
89.64278724436907
 20
7.749658986123134
 10
89.65070289910615
 20
7.89668863825894
 10
89.67298813955087
 20
8.042235784768154
 10
89.70942834664844
 20
8.184898727069783
 10
89.75967258129963
 20
8.323303543031496
 10
89.82323696403627
 20
8.45611731862662
 10
89.89950933512107
 20
8.582060984590681
 10
89.98775514992415
 20
8.699921634565003
 10
90.08712455299901
 20
8.808564206064785
 10
90.19666056267651
 20
8.906942411744868
 10
90.31530828731375
 20
8.994108815699368
 10
90.44192508445623
 20
9.069223957801798
 10
90.57529156513446
 20
9.131564438183227
 10
90.71412333722601
 20
9.180529883926617
 10
90.85708337488533
 20
9.215648731034737
 10
91.00279489478562
 20
9.236582765802291
 10
91.14985461534555
 20
9.24313038203646
 10
91.29684627106555
 20
9.235228522611513
 10
91.44235425194556
 20
9.212953286752162
 10
91.58497723658537
 20
9.176519197158406
 10
91.72334168767587
 20
9.126277134030959
 10
91.85611507992432
 20
9.062710955896506
 10
91.9820187329672
 20
8.986432839812737
 10
92.09984012581329
 20
8.898177385715968
 10
92.20844457403594
 20
8.798794541894415
 10
92.30678615742694
 20
8.68924141945026
 10
92.39391779278357
 20
8.570573074839542
 10
92.46900035482672
 20
8.443932349100681
 10
92.53131075743546
 20
8.310538861642957
 10
92.58024891737402
 20
8.171677264674448
 10
92.61534353340978
 20
8.028684871285025
 10
92.63625662519907
 20
7.882938776386486
 10
92.64278678824196
 20
7.735842594547815
 10
92.63487113350486
 20
7.588812942411009
 10
92.61258589305994
 20
7.4432657959003015
 10
92.57614568595348
 20
7.300602853603496
 10
92.52590145131141
 20
7.162198037639463
 10
92.4623370685748
 20
7.02938426204433
 10
92.38606469749
 20
6.9034405960802685
 10
92.29781888268643
 20
6.785579946105291
 10
92.19844947961202
 20
6.676937374605164
 10
92.08891346993501
 20
6.578559168925528
 10
91.9702657452968
 20
6.491392764971229
 10
91.84364894815526
 20
6.416277622868413
 10
91.71028246747618
 20
6.353937142487544
 10
91.57145069538505
 20
6.3049716967433405
 10
91.42849065772596
 20
6.269852849635271
 10
91.28277913782544
 20
6.248918814868658
 10
91.13571941726549
 20
6.242371198634486
 10
90.98872776154549
 20
6.250273058059436
 10
90.84321978066565
 20
6.27254829391876
 10
90.70059679602544
 20
6.30898238351161
 10
90.56223234493551
 20
6.359224446639866
  0
ENDSEC
  0
SECTION
  2
OBJECTS
  0
DICTIONARY
  5
A
330
0
100
AcDbDictionary
281
1
  3
ACAD_COLOR
350
B
  3
ACAD_GROUP
350
C
  3
ACAD_LAYOUT
350
D
  3
ACAD_MATERIAL
350
E
  3
ACAD_MLEADERSTYLE
350
F
  3
ACAD_MLINESTYLE
350
10
  3
ACAD_PLOTSETTINGS
350
11
  3
ACAD_PLOTSTYLENAME
350
12
  3
ACAD_SCALELIST
350
14
  3
ACAD_TABLESTYLE
350
15
  3
ACAD_VISUALSTYLE
350
16
  3
EZDXF_META
350
2D
  0
DICTIONARY
  5
B
330
A
100
AcDbDictionary
281
1
  0
DICTIONARY
  5
C
330
A
100
AcDbDictionary
281
1
  0
DICTIONARY
  5
D
330
A
100
AcDbDictionary
281
1
  3
Model
350
1A
  3
Layout1
350
1E
  0
DICTIONARY
  5
E
330
A
100
AcDbDictionary
281
1
  3
ByBlock
350
1F
  3
ByLayer
350
20
  3
Global
350
21
  0
DICTIONARY
  5
F
330
A
100
AcDbDictionary
281
1
  3
Standard
350
2C
  0
DICTIONARY
  5
10
330
A
100
AcDbDictionary
281
1
  3
Standard
350
22
  0
DICTIONARY
  5
11
330
A
100
AcDbDictionary
281
1
  0
ACDBDICTIONARYWDFLT
  5
12
330
A
100
AcDbDictionary
281
1
  3
Normal
350
13
100
AcDbDictionaryWithDefault
340
13
  0
ACDBPLACEHOLDER
  5
13
330
12
  0
DICTIONARY
  5
14
330
A
100
AcDbDictionary
281
1
  0
DICTIONARY
  5
15
330
A
100
AcDbDictionary
281
1
  0
DICTIONARY
  5
16
330
A
100
AcDbDictionary
281
1
  0
LAYOUT
  5
1A
330
D
100
AcDbPlotSettings
  1

  4
A3
  6

 40
7.5
 41
20.0
 42
7.5
 43
20.0
 44
420.0
 45
297.0
 46
0.0
 47
0.0
 48
0.0
 49
0.0
140
0.0
141
0.0
142
1.0
143
1.0
 70
1024
 72
1
 73
0
 74
5
  7

 75
16
 76
0
 77
2
 78
300
147
1.0
148
0.0
149
0.0
100
AcDbLayout
  1
Model
 70
1
 71
0
 10
0.0
 20
0.0
 11
420.0
 21
297.0
 12
0.0
 22
0.0
 32
0.0
 14
1e+20
 24
1e+20
 34
1e+20
 15
-1e+20
 25
-1e+20
 35
-1e+20
146
0.0
 13
0.0
 23
0.0
 33
0.0
 16
1.0
 26
0.0
 36
0.0
 17
0.0
 27
1.0
 37
0.0
 76
1
330
17
  0
LAYOUT
  5
1E
330
D
100
AcDbPlotSettings
  1

  4
A3
  6

 40
7.5
 41
20.0
 42
7.5
 43
20.0
 44
420.0
 45
297.0
 46
0.0
 47
0.0
 48
0.0
 49
0.0
140
0.0
141
0.0
142
1.0
143
1.0
 70
0
 72
1
 73
0
 74
5
  7

 75
16
 76
0
 77
2
 78
300
147
1.0
148
0.0
149
0.0
100
AcDbLayout
  1
Layout1
 70
1
 71
1
 10
0.0
 20
0.0
 11
420.0
 21
297.0
 12
0.0
 22
0.0
 32
0.0
 14
1e+20
 24
1e+20
 34
1e+20
 15
-1e+20
 25
-1e+20
 35
-1e+20
146
0.0
 13
0.0
 23
0.0
 33
0.0
 16
1.0
 26
0.0
 36
0.0
 17
0.0
 27
1.0
 37
0.0
 76
1
330
1B
  0
MATERIAL
  5
1F
102
{ACAD_REACTORS
330
E
102
}
330
E
100
AcDbMaterial
  1
ByBlock
  2

 70
0
 40
1.0
 71
1
 41
1.0
 91
-1023410177
 42
1.0
 72
1
  3

 73
1
 74
1
 75
1
 44
0.5
 73
0
 45
1.0
 46
1.0
 77
1
  4

 78
1
 79
1
170
1
 48
1.0
171
1
  6

172
1
173
1
174
1
140
1.0
141
1.0
175
1
  7

176
1
177
1
178
1
143
1.0
179
1
  8

270
1
271
1
272
1
145
1.0
146
1.0
273
1
  9

274
1
275
1
276
1
 42
1.0
 72
1
  3

 73
1
 74
1
 75
1
 94
63
  0
MATERIAL
  5
20
102
{ACAD_REACTORS
330
E
102
}
330
E
100
AcDbMaterial
  1
ByLayer
  2

 70
0
 40
1.0
 71
1
 41
1.0
 91
-1023410177
 42
1.0
 72
1
  3

 73
1
 74
1
 75
1
 44
0.5
 73
0
 45
1.0
 46
1.0
 77
1
  4

 78
1
 79
1
170
1
 48
1.0
171
1
  6

172
1
173
1
174
1
140
1.0
141
1.0
175
1
  7

176
1
177
1
178
1
143
1.0
179
1
  8

270
1
271
1
272
1
145
1.0
146
1.0
273
1
  9

274
1
275
1
276
1
 42
1.0
 72
1
  3

 73
1
 74
1
 75
1
 94
63
  0
MATERIAL
  5
21
102
{ACAD_REACTORS
330
E
102
}
330
E
100
AcDbMaterial
  1
Global
  2

 70
0
 40
1.0
 71
1
 41
1.0
 91
-1023410177
 42
1.0
 72
1
  3

 73
1
 74
1
 75
1
 44
0.5
 73
0
 45
1.0
 46
1.0
 77
1
  4

 78
1
 79
1
170
1
 48
1.0
171
1
  6

172
1
173
1
174
1
140
1.0
141
1.0
175
1
  7

176
1
177
1
178
1
143
1.0
179
1
  8

270
1
271
1
272
1
145
1.0
146
1.0
273
1
  9

274
1
275
1
276
1
 42
1.0
 72
1
  3

 73
1
 74
1
 75
1
 94
63
  0
MLINESTYLE
  5
22
102
{ACAD_REACTORS
330
10
102
}
330
10
100
AcDbMlineStyle
  2
Standard
 70
0
  3

 62
256
 51
90.0
 52
90.0
 71
2
 49
0.5
 62
256
  6
BYLAYER
 49
-0.5
 62
256
  6
BYLAYER
  0
MLEADERSTYLE
  5
2C
102
{ACAD_REACTORS
330
F
102
}
330
F
100
AcDbMLeaderStyle
179
2
170
2
171
1
172
0
 90
2
 40
0.0
 41
0.0
173
1
 91
-1056964608
 92
-2
290
1
 42
2.0
291
1
 43
8.0
  3
Standard
 44
4.0
300

342
29
174
1
175
1
176
0
178
1
 93
-1056964608
 45
4.0
292
0
297
0
 46
4.0
 94
-1056964608
 47
1.0
 49
1.0
140
1.0
294
1
141
0.0
177
0
142
1.0
295
0
296
0
143
3.75
271
0
272
9
273
9
  0
DICTIONARY
  5
2D
330
A
100
AcDbDictionary
280
1
281
1
  3
CREATED_BY_EZDXF
350
2E
  3
WRITTEN_BY_EZDXF
350
35
  0
DICTIONARYVAR
  5
2E
330
2D
100
DictionaryVariables
280
0
  1
1.4.4 @ 2026-09-23T20:01:37.647483+00:00
  0
DICTIONARYVAR
  5
35
330
2D
100
DictionaryVariables
280
0
  1
1.4.4 @ 2026-09-23T20:01:37.650462+00:00
  0
ENDSEC
  0
EOF
