  0
SECTION
  2
HEADER
  9
$ACADVER
  1
AC1027
  9
$ACADMAINTVER
 70
105
  9
$DWGCODEPAGE
  3
ANSI_1252
  9
$LASTSAVEDBY
  1
ezdxf
  9
$REQUIREDVERSIONS
160
0
  9
$INSBASE
 10
0.0
 20
0.0
 30
0.0
  9
$EXTMIN
 10
1e+20
 20
1e+20
 30
1e+20
  9
$EXTMAX
 10
-1e+20
 20
-1e+20
 30
-1e+20
  9
$LIMMIN
 10
0.0
 20
0.0
  9
$LIMMAX
 10
420.0
 20
297.0
  9
$ORTHOMODE
 70
0
  9
$REGENMODE
 70
1
  9
$FILLMODE
 70
1
  9
$QTEXTMODE
 70
0
  9
$MIRRTEXT
 70
1
  9
$LTSCALE
 40
1.0
  9
$ATTMODE
 70
1
  9
$TEXTSIZE
 40
2.5
  9
$TRACEWID
 40
1.0
  9
$TEXTSTYLE
  7
Standard
  9
$CLAYER
  8
0
  9
$CELTYPE
  6
ByLayer
  9
$CECOLOR
 62
256
  9
$CELTSCALE
 40
1.0
  9
$DISPSILH
 70
0
  9
$DIMSCALE
 40
1.0
  9
$DIMASZ
 40
2.5
  9
$DIMEXO
 40
0.625
  9
$DIMDLI
 40
3.75
  9
$DIMRND
 40
0.0
  9
$DIMDLE
 40
0.0
  9
$DIMEXE
 40
1.25
  9
$DIMTP
 40
0.0
  9
$DIMTM
 40
0.0
  9
$DIMTXT
 40
2.5
  9
$DIMCEN
 40
2.5
  9
$DIMTSZ
 40
0.0
  9
$DIMTOL
 70
0
  9
$DIMLIM
 70
0
  9
$DIMTIH
 70
0
  9
$DIMTOH
 70
0
  9
$DIMSE1
 70
0
  9
$DIMSE2
 70
0
  9
$DIMTAD
 70
1
  9
$DIMZIN
 70
8
  9
$DIMBLK
  1

  9
$DIMASO
 70
1
  9
$DIMSHO
 70
1
  9
$DIMPOST
  1

  9
$DIMAPOST
  1

  9
$DIMALT
 70
0
  9
$DIMALTD
 70
3
  9
$DIMALTF
 40
0.03937007874
  9
$DIMLFAC
 40
1.0
  9
$DIMTOFL
 70
1
  9
$DIMTVP
 40
0.0
  9
$DIMTIX
 70
0
  9
$DIMSOXD
 70
0
  9
$DIMSAH
 70
0
  9
$DIMBLK1
  1

  9
$DIMBLK2
  1

  9
$DIMSTYLE
  2
ISO-25
  9
$DIMCLRD
 70
0
  9
$DIMCLRE
 70
0
  9
$DIMCLRT
 70
0
  9
$DIMTFAC
 40
1.0
  9
$DIMGAP
 40
0.625
  9
$DIMJUST
 70
0
  9
$DIMSD1
 70
0
  9
$DIMSD2
 70
0
  9
$DIMTOLJ
 70
0
  9
$DIMTZIN
 70
8
  9
$DIMALTZ
 70
0
  9
$DIMALTTZ
 70
0
  9
$DIMUPT
 70
0
  9
$DIMDEC
 70
2
  9
$DIMTDEC
 70
2
  9
$DIMALTU
 70
2
  9
$DIMALTTD
 70
3
  9
$DIMTXSTY
  7
Standard
  9
$DIMAUNIT
 70
0
  9
$DIMADEC
 70
0
  9
$DIMALTRND
 40
0.0
  9
$DIMAZIN
 70
0
  9
$DIMDSEP
 70
44
  9
$DIMATFIT
 70
3
  9
$DIMFRAC
 70
0
  9
$DIMLDRBLK
  1

  9
$DIMLUNIT
 70
2
  9
$DIMLWD
 70
-2
  9
$DIMLWE
 70
-2
  9
$DIMTMOVE
 70
0
  9
$DIMFXL
 40
1.0
  9
$DIMFXLON
 70
0
  9
$DIMJOGANG
 40
0.785398163397
  9
$DIMTFILL
 70
0
  9
$DIMTFILLCLR
 70
0
  9
$DIMARCSYM
 70
0
  9
$DIMLTYPE
  6

  9
$DIMLTEX1
  6

  9
$DIMLTEX2
  6

  9
$DIMTXTDIRECTION
 70
0
  9
$LUNITS
 70
2
  9
$LUPREC
 70
4
  9
$SKETCHINC
 40
1.0
  9
$FILLETRAD
 40
10.0
  9
$AUNITS
 70
0
  9
$AUPREC
 70
2
  9
$MENU
  1
.
  9
$ELEVATION
 40
0.0
  9
$PELEVATION
 40
0.0
  9
$THICKNESS
 40
0.0
  9
$LIMCHECK
 70
0
  9
$CHAMFERA
 40
0.0
  9
$CHAMFERB
 40
0.0
  9
$CHAMFERC
 40
0.0
  9
$CHAMFERD
 40
0.0
  9
$SKPOLY
 70
0
  9
$TDCREATE
 40
2461308.063611111
  9
$TDUCREATE
 40
2458532.153996898
  9
$TDUPDATE
 40
2461308.063611111
  9
$TDUUPDATE
 40
2458532.1544311
  9
$TDINDWG
 40
0.0
  9
$TDUSRTIMER
 40
0.0
  9
$USRTIMER
 70
1
  9
$ANGBASE
 50
0.0
  9
$ANGDIR
 70
0
  9
$PDMODE
 70
0
  9
$PDSIZE
 40
0.0
  9
$PLINEWID
 40
0.0
  9
$SPLFRAME
 70
0
  9
$SPLINETYPE
 70
6
  9
$SPLINESEGS
 70
8
  9
$HANDSEED
  5
36
  9
$SURFTAB1
 70
6
  9
$SURFTAB2
 70
6
  9
$SURFTYPE
 70
6
  9
$SURFU
 70
6
  9
$SURFV
 70
6
  9
$UCSBASE
  2

  9
$UCSNAME
  2

  9
$UCSORG
 10
0.0
 20
0.0
 30
0.0
  9
$UCSXDIR
 10
1.0
 20
0.0
 30
0.0
  9
$UCSYDIR
 10
0.0
 20
1.0
 30
0.0
  9
$UCSORTHOREF
  2

  9
$UCSORTHOVIEW
 70
0
  9
$UCSORGTOP
 10
0.0
 20
0.0
 30
0.0
  9
$UCSORGBOTTOM
 10
0.0
 20
0.0
 30
0.0
  9
$UCSORGLEFT
 10
0.0
 20
0.0
 30
0.0
  9
$UCSORGRIGHT
 10
0.0
 20
0.0
 30
0.0
  9
$UCSORGFRONT
 10
0.0
 20
0.0
 30
0.0
  9
$UCSORGBACK
 10
0.0
 20
0.0
 30
0.0
  9
$PUCSBASE
  2

  9
$PUCSNAME
  2

  9
$PUCSORG
 10
0.0
 20
0.0
 30
0.0
  9
$PUCSXDIR
 10
1.0
 20
0.0
 30
0.0
  9
$PUCSYDIR
 10
0.0
 20
1.0
 30
0.0
  9
$PUCSORTHOREF
  2

  9
$PUCSORTHOVIEW
 70
0
  9
$PUCSORGTOP
 10
0.0
 20
0.0
 30
0.0
  9
$PUCSORGBOTTOM
 10
0.0
 20
0.0
 30
0.0
  9
$PUCSORGLEFT
 10
0.0
 20
0.0
 30
0.0
  9
$PUCSORGRIGHT
 10
0.0
 20
0.0
 30
0.0
  9
$PUCSORGFRONT
 10
0.0
 20
0.0
 30
0.0
  9
$PUCSORGBACK
 10
0.0
 20
0.0
 30
0.0
  9
$USERI1
 70
0
  9
$USERI2
 70
0
  9
$USERI3
 70
0
  9
$USERI4
 70
0
  9
$USERI5
 70
0
  9
$USERR1
 40
0.0
  9
$USERR2
 40
0.0
  9
$USERR3
 40
0.0
  9
$USERR4
 40
0.0
  9
$USERR5
 40
0.0
  9
$WORLDVIEW
 70
1
  9
$SHADEDGE
 70
3
  9
$SHADEDIF
 70
70
  9
$TILEMODE
 70
1
  9
$MAXACTVP
 70
64
  9
$PINSBASE
 10
0.0
 20
0.0
 30
0.0
  9
$PLIMCHECK
 70
0
  9
$PEXTMIN
 10
1e+20
 20
1e+20
 30
1e+20
  9
$PEXTMAX
 10
-1e+20
 20
-1e+20
 30
-1e+20
  9
$PLIMMIN
 10
0.0
 20
0.0
  9
$PLIMMAX
 10
420.0
 20
297.0
  9
$UNITMODE
 70
0
  9
$VISRETAIN
 70
1
  9
$PLINEGEN
 70
0
  9
$PSLTSCALE
 70
1
  9
$TREEDEPTH
 70
3020
  9
$CMLSTYLE
  2
Standard
  9
$CMLJUST
 70
0
  9
$CMLSCALE
 40
20.0
  9
$PROXYGRAPHICS
 70
1
  9
$MEASUREMENT
 70
1
  9
$CELWEIGHT
370
-1
  9
$ENDCAPS
280
0
  9
$JOINSTYLE
280
0
  9
$LWDISPLAY
290
0
  9
$INSUNITS
 70
4
  9
$HYPERLINKBASE
  1

  9
$STYLESHEET
  1

  9
$XEDIT
290
1
  9
$CEPSNTYPE
380
0
  9
$PSTYLEMODE
290
1
  9
$FINGERPRINTGUID
  2
{CFF41CC3-3052-4B76-AB51-D0580E58B9BE}
  9
$VERSIONGUID
  2
{C25A0309-0D32-44A0-B0D5-C3C33DB21FE6}
  9
$EXTNAMES
290
1
  9
$PSVPSCALE
 40
0.0
  9
$OLESTARTUP
290
0
  9
$SORTENTS
280
127
  9
$INDEXCTL
280
0
  9
$HIDETEXT
280
1
  9
$XCLIPFRAME
280
1
  9
$HALOGAP
280
0
  9
$OBSCOLOR
 70
257
  9
$OBSLTYPE
280
0
  9
$INTERSECTIONDISPLAY
280
0
  9
$INTERSECTIONCOLOR
 70
257
  9
$DIMASSOC
280
2
  9
$PROJECTNAME
  1

  9
$CAMERADISPLAY
290
0
  9
$LENSLENGTH
 40
50.0
  9
$CAMERAHEIGHT
 40
0.0
  9
$STEPSPERSEC
 40
24.0
  9
$STEPSIZE
 40
100.0
  9
$3DDWFPREC
 40
2.0
  9
$PSOLWIDTH
 40
0.005
  9
$PSOLHEIGHT
 40
0.08
  9
$LOFTANG1
 40
1.570796326795
  9
$LOFTANG2
 40
1.570796326795
  9
$LOFTMAG1
 40
0.0
  9
$LOFTMAG2
 40
0.0
  9
$LOFTPARAM
 70
7
  9
$LOFTNORMALS
280
1
  9
$LATITUDE
 40
37.795
  9
$LONGITUDE
 40
-122.394
  9
$NORTHDIRECTION
 40
0.0
  9
$TIMEZONE
 70
-8000
  9
$LIGHTGLYPHDISPLAY
280
1
  9
$TILEMODELIGHTSYNCH
280
1
  9
$CMATERIAL
347
20
  9
$SOLIDHIST
280
0
  9
$SHOWHIST
280
1
  9
$DWFFRAME
280
2
  9
$DGNFRAME
280
2
  9
$REALWORLDSCALE
290
1
  9
$INTERFERECOLOR
 62
256
  9
$CSHADOW
280
0
  9
$SHADOWPLANELOCATION
 40
0.0
  0
ENDSEC
  0
SECTION
  2
CLASSES
  0
CLASS
  1
ACDBDICTIONARYWDFLT
  2
AcDbDictionaryWithDefault
  3
ObjectDBX Classes
 90
0
 91
0
280
0
281
0
  0
CLASS
  1
SUN
  2
AcDbSun
  3
SCENEOE
 90
1153
 91
0
280
0
281
0
  0
CLASS
  1
VISUALSTYLE
  2
AcDbVisualStyle
  3
ObjectDBX Classes
 90
4095
 91
0
280
0
281
0
  0
CLASS
  1
MATERIAL
  2
AcDbMaterial
  3
ObjectDBX Classes
 90
1153
 91
0
280
0
281
0
  0
CLASS
  1
SCALE
  2
AcDbScale
  3
ObjectDBX Classes
 90
1153
 91
0
280
0
281
0
  0
CLASS
  1
TABLESTYLE
  2
AcDbTableStyle
  3
ObjectDBX Classes
 90
4095
 91
0
280
0
281
0
  0
CLASS
  1
MLEADERSTYLE
  2
AcDbMLeaderStyle
  3
ACDB_MLEADERSTYLE_CLASS
 90
4095
 91
0
280
0
281
0
  0
CLASS
  1
DICTIONARYVAR
  2
AcDbDictionaryVar
  3
ObjectDBX Classes
 90
0
 91
0
280
0
281
0
  0
CLASS
  1
CELLSTYLEMAP
  2
AcDbCellStyleMap
  3
ObjectDBX Classes
 90
1152
 91
0
280
0
281
0
  0
CLASS
  1
MENTALRAYRENDERSETTINGS
  2
AcDbMentalRayRenderSettings
  3
SCENEOE
 90
1024
 91
0
280
0
281
0
  0
CLASS
  1
ACDBDETAILVIEWSTYLE
  2
AcDbDetailViewStyle
  3
ObjectDBX Classes
 90
1025
 91
0
280
0
281
0
  0
CLASS
  1
ACDBSECTIONVIEWSTYLE
  2
AcDbSectionViewStyle
  3
ObjectDBX Classes
 90
1025
 91
0
280
0
281
0
  0
CLASS
  1
RASTERVARIABLES
  2
AcDbRasterVariables
  3
ISM
 90
0
 91
0
280
0
281
0
  0
CLASS
  1
ACDBPLACEHOLDER
  2
AcDbPlaceHolder
  3
ObjectDBX Classes
 90
0
 91
0
280
0
281
0
  0
CLASS
  1
LAYOUT
  2
AcDbLayout
  3
ObjectDBX Classes
 90
0
 91
0
280
0
281
0
  0
ENDSEC
  0
SECTION
  2
TABLES
  0
TABLE
  2
VPORT
  5
8
330
0
100
AcDbSymbolTable
 70
1
  0
VPORT
  5
23
330
8
100
AcDbSymbolTableRecord
100
AcDbViewportTableRecord
  2
*Active
 70
0
 10
0.0
 20
0.0
 11
1.0
 21
1.0
 12
0.0
 22
0.0
 13
0.0
 23
0.0
 14
0.5
 24
0.5
 15
0.5
 25
0.5
 16
0.0
 26
0.0
 36
1.0
 17
0.0
 27
0.0
 37
0.0
 40
1000.0
 41
1.34
 42
50.0
 43
0.0
 44
0.0
 50
0.0
 51
0.0
 71
0
 72
1000
 73
1
 74
3
 75
0
 76
0
 77
0
 78
0
281
0
 65
0
146
0.0
  0
ENDTAB
  0
TABLE
  2
LTYPE
  5
2
330
0
100
AcDbSymbolTable
 70
3
  0
LTYPE
  5
24
330
2
100
AcDbSymbolTableRecord
100
AcDbLinetypeTableRecord
  2
ByBlock
 70
0
  3

 72
65
 73
0
 40
0.0
  0
LTYPE
  5
25
330
2
100
AcDbSymbolTableRecord
100
AcDbLinetypeTableRecord
  2
ByLayer
 70
0
  3

 72
65
 73
0
 40
0.0
  0
LTYPE
  5
26
330
2
100
AcDbSymbolTableRecord
100
AcDbLinetypeTableRecord
  2
Continuous
 70
0
  3

 72
65
 73
0
 40
0.0
  0
ENDTAB
  0
TABLE
  2
LAYER
  5
1
330
0
100
AcDbSymbolTable
 70
2
  0
LAYER
  5
27
330
1
100
AcDbSymbolTableRecord
100
AcDbLayerTableRecord
  2
0
 70
0
 62
7
  6
Continuous
370
-3
390
13
347
21
  0
LAYER
  5
28
330
1
100
AcDbSymbolTableRecord
100
AcDbLayerTableRecord
  2
Defpoints
 70
0
 62
7
  6
Continuous
290
0
370
-3
390
13
347
21
  0
ENDTAB
  0
TABLE
  2
STYLE
  5
5
330
0
100
AcDbSymbolTable
 70
1
  0
STYLE
  5
29
330
5
100
AcDbSymbolTableRecord
100
AcDbTextStyleTableRecord
  2
Standard
 70
0
 40
0.0
 41
1.0
 50
0.0
 71
0
 42
2.5
  3
txt
  4

  0
ENDTAB
  0
TABLE
  2
VIEW
  5
7
330
0
100
AcDbSymbolTable
 70
0
  0
ENDTAB
  0
TABLE
  2
UCS
  5
6
330
0
100
AcDbSymbolTable
 70
0
  0
ENDTAB
  0
TABLE
  2
APPID
  5
3
330
0
100
AcDbSymbolTable
 70
3
  0
APPID
  5
2A
330
3
100
AcDbSymbolTableRecord
100
AcDbRegAppTableRecord
  2
ACAD
 70
0
  0
APPID
  5
33
330
3
100
AcDbSymbolTableRecord
100
AcDbRegAppTableRecord
  2
HATCHBACKGROUNDCOLOR
 70
0
  0
APPID
  5
34
330
3
100
AcDbSymbolTableRecord
100
AcDbRegAppTableRecord
  2
EZDXF
 70
0
  0
ENDTAB
  0
TABLE
  2
DIMSTYLE
  5
4
330
0
100
AcDbSymbolTable
 70
1
100
AcDbDimStyleTable
  0
DIMSTYLE
105
2B
330
4
100
AcDbSymbolTableRecord
100
AcDbDimStyleTableRecord
  2
Standard
 70
0
 40
1.0
 41
2.5
 42
0.625
 43
3.75
 44
1.25
 45
0.0
 46
0.0
 47
0.0
 48
0.0
 49
2.5
140
2.5
141
2.5
142
0.0
143
0.03937007874
144
1.0
145
0.0
146
1.0
147
0.625
148
0.0
 69
0
 70
0
 71
0
 72
0
 73
0
 74
0
 75
0
 76
0
 77
1
 78
8
 79
3
170
0
171
3
172
1
173
0
174
0
175
0
176
0
177
0
178
0
179
2
271
2
272
2
273
2
274
3
275
0
276
0
277
2
278
44
279
0
280
0
281
0
282
0
283
0
284
8
285
0
286
0
288
0
289
3
290
0
371
-2
372
-2
  0
ENDTAB
  0
TABLE
  2
BLOCK_RECORD
  5
9
330
0
100
AcDbSymbolTable
 70
2
  0
BLOCK_RECORD
  5
17
330
9
100
AcDbSymbolTableRecord
100
AcDbBlockTableRecord
  2
*Model_Space
340
1A
 70
0
280
1
281
0
  0
BLOCK_RECORD
  5
1B
330
9
100
AcDbSymbolTableRecord
100
AcDbBlockTableRecord
  2
*Paper_Space
340
1E
 70
0
280
1
281
0
  0
ENDTAB
  0
ENDSEC
  0
SECTION
  2
BLOCKS
  0
BLOCK
  5
18
330
17
100
AcDbEntity
  8
0
100
AcDbBlockBegin
  2
*Model_Space
 70
0
 10
0.0
 20
0.0
 30
0.0
  3
*Model_Space
  1

  0
ENDBLK
  5
19
330
17
100
AcDbEntity
  8
0
100
AcDbBlockEnd
  0
BLOCK
  5
1C
330
1B
100
AcDbEntity
  8
0
100
AcDbBlockBegin
  2
*Paper_Space
 70
0
 10
0.0
 20
0.0
 30
0.0
  3
*Paper_Space
  1

  0
ENDBLK
  5
1D
330
1B
100
AcDbEntity
  8
0
100
AcDbBlockEnd
  0
ENDSEC
  0
SECTION
  2
ENTITIES
  0
LWPOLYLINE
  5
2F
330
17
100
AcDbEntity
  8
0
100
AcDbPolyline
 90
218
 70
1
 10
64.66511714033547
 20
1.0876637080780718
 10
67.86834582966826
 20
1.3910043020894456
 10
67.86904826224713
 20
2.2367698331602552
 10
66.86904850700463
 20
2.2376003616951934
 10
66.87532234072806
 20
9.791624007064335
 10
72.87532027140468
 20
9.786640836356426
 10
72.86879330318568
 20
1.9277096564971927
 10
75.80443734645563
 20
2.2775348173367114
 10
78.65392863909571
 20
2.6411666965511884
 10
81.57919102102548
 20
3.04074361025992
 10
84.52787177229553
 20
3.469158260551371
 10
87.15762585413538
 20
3.8704873197974656
 10
89.88063501980562
 20
4.306964895515989
 10
92.5988700488557
 20
4.761620625001466
 10
95.21896915685517
 20
5.215533598932568
 10
97.92658647001582
 20
5.702589338649943
 10
100.6319123253154
 20
6.205261334794249
 10
103.2703792488656
 20
6.709146169989168
 10
105.96158662637555
 20
7.237944217923525
 10
107.80973615643538
 20
7.609261967811255
 10
109.27679296921545
 20
7.908619978450826
 10
113.18178174974565
 20
8.726803569484936
 10
117.02558772631554
 20
9.56015762048762
 10
79.27627332282782
 20
9.627562543370765
 10
74.33057913599265
 20
14.586160269910517
 10
74.33058631092553
 20
14.594799269616903
 10
62.57931823860413
 20
14.604559035457516
 10
62.569098984205525
 20
2.300042622817905
 10
39.76910684766763
 20
2.318978756636451
 10
39.77932610216352
 20
14.623495084150356
 10
28.60264022806156
 20
14.632777642963447
 10
23.501395678088528
 20
9.661901105511694
 10
20.99216733937152
 20
9.615144290931394
 10
18.377404658064506
 20
9.545877568026741
 10
15.372967675392545
 20
9.435758901919206
 10
12.667694364296544
 20
9.304266309332283
 10
10.345568992833478
 20
9.164781609150292
 10
8.8301763189816
 20
9.054797891450614
 10
7.308821553730532
 20
8.93276869647248
 10
5.544509471209459
 20
8.77226917984511
 10
4.685545357507593
 20
8.676405219858037
 10
3.842463441043492
 20
8.565625641156759
 10
3.0655079503344425
 20
8.439965194964001
 10
2.1734142387776245
 20
8.274524714580021
 10
1.2832220483874508
 20
8.094848253141826
 10
0.5119711211796272
 20
7.9264798637841025
 10
0.17536615475241749
 20
7.845283900931907
 10
-1.1185572445387418e-50
 20
7.799032642589843
 10
0.17384915240992171
 20
7.6548652943659725
 10
0.5889170013876139
 20
7.3270689520525885
 10
0.9150220261922684
 20
7.089192298881073
 10
1.599322481606741
 20
6.638785854444807
 10
1.9743612996832383
 20
6.409868469781962
 10
2.3839756829329133
 20
6.173457505315191
 10
3.1809744920015817
 20
5.749057093530578
 10
3.9048671192245905
 20
5.399672076192591
 10
4.741303284808254
 20
5.031189711755784
 10
5.705672256725556
 20
4.644017774256515
 10
6.814776652768693
 20
4.2380360113939375
 10
7.131616455026489
 20
4.13135905219632
 10
8.072936912562454
 20
3.831999079573194
 10
8.603548278385809
 20
3.6721849370926485
 10
8.54214984506347
 20
3.7598649098114194
 10
8.492435893055891
 20
3.837316285664091
 10
8.430648640330624
 20
3.9433310621625104
 10
8.387763122831167
 20
4.024762168223763
 10
8.347903918093351
 20
4.1077165921163825
 10
8.311125044540887
 20
4.192081911447211
 10
8.26696371286252
 20
4.306565858879797
 10
8.237558774933746
 20
4.393775619062225
 10
8.211383711330711
 20
4.482008598673509
 10
8.18847399530582
 20
4.571145221658529
 10
8.168860674811384
 20
4.66106468732044
 10
8.147882600907977
 20
4.78196430622252
 10
8.132862059139384
 20
4.903747641536453
 10
8.125528593568703
 20
4.995488651604429
 10
8.121576829078876
 20
5.087437421053469
 10
8.121012121221604
 20
5.179469338074465
 10
8.123835235307048
 20
5.271459678178429
 10
8.132862059139086
 20
5.393833343184523
 10
8.14788260090753
 20
5.515616678498468
 10
8.163060157241866
 20
5.606390212248401
 10
8.181568550722915
 20
5.696543592752622
 10
8.211383711331322
 20
5.815572386047235
 10
8.237558774933845
 20
5.903805365658702
 10
8.266963712861681
 20
5.991015125840416
 10
8.29955867463665
 20
6.07708347724042
 10
8.335299486560508
 20
6.161893777372482
 10
8.374137711584062
 20
6.245331088706715
 10
8.430648640330759
 20
6.354249922558342
 10
8.476502350819025
 20
6.434047352843164
 10
8.542149845063655
 20
6.53771607490939
 10
8.594680880187653
 20
6.613285136002135
 10
8.649957806753342
 20
6.6868694688118175
 10
8.707905711763196
 20
6.758369349584759
 10
8.747982889510162
 20
6.804829936335816
 10
8.810206168441354
 20
6.872641854202659
 10
8.874883252297067
 20
6.938117555569969
 10
8.941926488701796
 20
7.0011683057471785
 10
9.01124501859536
 20
7.061708656416686
 10
9.082744899367277
 20
7.119656561426815
 10
9.131575614588499
 20
7.156809321062523
 10
9.206494348860794
 20
7.210263749323076
 10
9.283329826101578
 20
7.26092440548441
 10
9.361977916505651
 20
7.308722632664267
 10
9.415364445621172
 20
7.338965727849169
 10
9.49679555168251
 20
7.381851245349527
 10
9.551936142243733
 20
7.408763725169045
 10
9.635843775666537
 20
7.446575121585459
 10
9.721086284482638
 20
7.481272489447191
 10
9.778599242338558
 20
7.502650655317391
 10
9.865809002521296
 20
7.53205559324627
 10
9.954041982132573
 20
7.5582306568493
 10
10.043178605117596
 20
7.58114037287419
 10
10.133098070779432
 20
7.600753693369027
 10
10.223678517484558
 20
7.61704403775528
 10
10.314797187821611
 20
7.629989328856775
 10
10.375781024995518
 20
7.636752309040627
 10
10.46752203506351
 20
7.644085774610932
 10
10.52880581846653
 20
7.647096453831361
 10
10.620823875819532
 20
7.648790492360597
 10
10.712841933172513
 20
7.6470964538310255
 10
10.774125716575519
 20
7.64408577461033
 10
10.865866726643539
 20
7.636752309040537
 10
10.957275647087542
 20
7.626047080929538
 10
11.048228597720517
 20
7.61198459833242
 10
11.168576976211561
 20
7.588045817456607
 10
11.257988024830446
 20
7.56623166997219
 10
11.375838749117563
 20
7.532055593245568
 10
11.463048509300684
 20
7.502650655317872
 10
11.549116860699485
 20
7.470055693543356
 10
11.633927160831547
 20
7.434314881619503
 10
11.717364472165372
 20
7.395476656595157
 10
11.826283306017835
 20
7.338965727849006
 10
11.906080736302222
 20
7.293112017360986
 10
12.009749458368447
 20
7.227464523116357
 10
12.085318519460706
 20
7.174933487991719
 10
12.15890285227136
 20
7.119656561426266
 10
12.230402733043796
 20
7.061708656416775
 10
12.29972126293707
 20
7.001168305746983
 10
12.366764499342203
 20
6.938117555570127
 10
12.45245955499999
 20
6.850292986848993
 10
12.513845992086367
 20
6.781722599745159
 10
12.591689944885651
 20
6.686869468811814
 10
12.646966871450651
 20
6.613285136001558
 10
12.69949790657602
 20
6.537716074909783
 10
12.765145400820757
 20
6.434047352843605
 10
12.810999111308021
 20
6.354249922558205
 10
12.853884628808288
 20
6.272818816496358
 10
12.89374383354594
 20
6.1898643926046475
 10
12.942089077002684
 20
6.077083477240526
 10
12.974684038776843
 20
5.99101512584024
 10
13.004088976705319
 20
5.903805365658705
 10
13.03026404030836
 20
5.815572386047425
 10
13.053173756333244
 20
5.7264357630624065
 10
13.07278707682768
 20
5.636516297400494
 10
13.093765150731663
 20
5.515616678498484
 10
13.105591300824983
 20
5.424346010595421
 10
13.116119158070404
 20
5.302092333115505
 10
13.120070922560188
 20
5.210143563667467
 10
13.120635630417489
 20
5.118111646646469
 10
13.117812516332478
 20
5.026121306541469
 10
13.111605406276702
 20
4.934297211499448
 10
13.102022712316732
 20
4.842763804362438
 10
13.089077421214128
 20
4.751645134025544
 10
13.066617302618134
 20
4.6310120518795586
 10
13.045902008806053
 20
4.541340042602325
 10
13.021900174358684
 20
4.452491268897418
 10
12.994644327302524
 20
4.364586141363464
 10
12.9533058729062
 20
4.249052901022598
 10
12.918608505044972
 20
4.163810392207264
 10
12.880797108628208
 20
4.079902758784623
 10
12.825627036690328
 20
3.970298650295579
 10
12.78075601612349
 20
3.8899445330464886
 10
12.716385639706829
 20
3.7854780213052592
 10
12.66478590869827
 20
3.709270013815651
 10
12.610416137341574
 20
3.6350128888494204
 10
12.553350009226499
 20
3.562807281951489
 10
12.493664862128902
 20
3.4927510483851165
 10
12.431441583198207
 20
3.4249391305177816
 10
12.366764499341485
 20
3.3594634291505088
 10
12.276863319794565
 20
3.2759495060514183
 10
12.206807086228494
 20
3.2162643589534987
 10
12.134601479330726
 20
3.1591982308382
 10
12.060344354364346
 20
3.1048284594817375
 10
11.958317925537564
 20
3.0366565792364106
 10
11.853069356393597
 20
2.9735730145883323
 10
11.772170653215731
 20
2.92969144135305
 10
11.689711609395225
 20
2.8888172595521446
 10
11.594251887835576
 20
2.8461375746286244
 10
11.991484115570309
 20
2.74352583793252
 10
13.437672797022273
 20
2.401352682475274
 10
14.771770262405553
 20
2.112387942108626
 10
16.057414806587488
 20
1.8554931059882556
 10
17.391723061275442
 20
1.6088115923719535
 10
18.773176058502656
 20
1.373979211213264
 10
20.20015325051365
 20
1.1525859204843343
 10
21.266741333132416
 20
1.0007399310275993
 10
22.356188873956484
 20
0.8573513233580812
 10
24.184138755424456
 20
0.6451888998457349
 10
26.014408526758572
 20
0.46774847811495945
 10
27.75622373876854
 20
0.3301093388126084
 10
29.467362181425898
 20
0.222575878371444
 10
29.475249031077524
 20
9.718754990178258
 10
34.4752473066318
 20
9.714602347921492
 10
34.46723472859452
 20
0.040554565701675926
 10
35.953341460714526
 20
0.016770305785133388
 10
37.44808594082153
 20
0.0033468549391280087
 10
40.13779046181952
 20
0.0
 10
42.41425481056153
 20
0.012554462668450846
 10
44.70177384647353
 20
0.03997889959214618
 10
46.94388735908052
 20
0.08306190765739883
 10
49.2444883311705
 20
0.1459363389911168
 10
52.26284696963555
 20
0.258796851589814
 10
55.157046233295475
 20
0.3996115789793393
 10
56.7482257167956
 20
0.49124090003242316
 10
58.374224332655515
 20
0.5952685070736443
 10
61.574931366255484
 20
0.8287416030438699
  0
LWPOLYLINE
  5
30
330
17
100
AcDbEntity
  8
0
100
AcDbPolyline
 90
32
 70
1
 10
66.17420583753552
 20
8.447881212904484
 10
66.15499111793875
 20
8.642971534920612
 10
66.09808537004682
 20
8.830564645269574
 10
66.00567544983807
 20
9.003451445924085
 10
65.88131261872208
 20
9.154987994091032
 10
65.72977607055513
 20
9.279350825207029
 10
65.55688926990061
 20
9.37176074541577
 10
65.36929615955165
 20
9.428666493307714
 10
65.17420583753552
 20
9.447881212904484
 10
64.9791155155194
 20
9.428666493307714
 10
64.79152240517044
 20
9.37176074541577
 10
64.61863560451592
 20
9.279350825207029
 10
64.46709905634897
 20
9.154987994091032
 10
64.34273622523298
 20
9.003451445924085
 10
64.25032630502423
 20
8.830564645269574
 10
64.1934205571323
 20
8.642971534920612
 10
64.17420583753552
 20
8.447881212904484
 10
64.1934205571323
 20
8.252790890888354
 10
64.25032630502423
 20
8.065197780539393
 10
64.34273622523298
 20
7.892310979884881
 10
64.46709905634897
 20
7.740774431717935
 10
64.61863560451593
 20
7.616411600601937
 10
64.79152240517044
 20
7.524001680393196
 10
64.9791155155194
 20
7.467095932501254
 10
65.17420583753552
 20
7.447881212904484
 10
65.36929615955165
 20
7.4670959325012545
 10
65.55688926990062
 20
7.524001680393198
 10
65.72977607055513
 20
7.616411600601941
 10
65.88131261872208
 20
7.740774431717939
 10
66.00567544983807
 20
7.8923109798848845
 10
66.09808537004682
 20
8.065197780539398
 10
66.15499111793875
 20
8.25279089088836
  0
LWPOLYLINE
  5
31
330
17
100
AcDbEntity
  8
0
100
AcDbPolyline
 90
32
 70
1
 10
38.17421549443553
 20
8.471136009544484
 10
38.15500077483876
 20
8.666226331560612
 10
38.098095026946815
 20
8.853819441909573
 10
38.00568510673808
 20
9.026706242564085
 10
37.881322275622075
 20
9.178242790731032
 10
37.72978572745513
 20
9.302605621847029
 10
37.55689892680062
 20
9.39501554205577
 10
37.36930581645166
 20
9.451921289947714
 10
37.17421549443553
 20
9.471136009544484
 10
36.9791251724194
 20
9.451921289947714
 10
36.79153206207044
 20
9.39501554205577
 10
36.61864526141593
 20
9.302605621847029
 10
36.46710871324898
 20
9.178242790731032
 10
36.34274588213298
 20
9.026706242564085
 10
36.25033596192424
 20
8.853819441909573
 10
36.1934302140323
 20
8.666226331560612
 10
36.17421549443553
 20
8.471136009544484
 10
36.1934302140323
 20
8.276045687528354
 10
36.25033596192424
 20
8.088452577179392
 10
36.34274588213299
 20
7.915565776524881
 10
36.46710871324898
 20
7.764029228357935
 10
36.61864526141593
 20
7.639666397241937
 10
36.79153206207044
 20
7.547256477033196
 10
36.9791251724194
 20
7.490350729141253
 10
37.17421549443553
 20
7.471136009544484
 10
37.36930581645166
 20
7.490350729141254
 10
37.55689892680062
 20
7.547256477033198
 10
37.72978572745514
 20
7.639666397241941
 10
37.88132227562208
 20
7.764029228357939
 10
38.00568510673808
 20
7.915565776524884
 10
38.098095026946815
 20
8.088452577179398
 10
38.15500077483876
 20
8.27604568752836
  0
LWPOLYLINE
  5
32
330
17
100
AcDbEntity
  8
0
100
AcDbPolyline
 90
64
 70
1
 10
90.30355529964388
 20
8.133708902106253
 10
90.42945895268673
 20
8.209987018189999
 10
90.56223234493552
 20
8.273553196323585
 10
90.70059679602545
 20
8.32379525945184
 10
90.84321978066566
 20
8.36022934904469
 10
90.9887277615455
 20
8.382504584904014
 10
91.1357194172655
 20
8.390406444328965
 10
91.28277913782546
 20
8.383858828094793
 10
91.42849065772597
 20
8.36292479332818
 10
91.57145069538507
 20
8.32780594622011
 10
91.71028246747619
 20
8.278840500475907
 10
91.84364894815528
 20
8.216500020095038
 10
91.97026574529681
 20
8.141384877992222
 10
92.08891346993502
 20
8.054218474037922
 10
92.19844947961204
 20
7.955840268358287
 10
92.29781888268644
 20
7.847197696858158
 10
92.38606469749001
 20
7.729337046883183
 10
92.46233706857481
 20
7.603393380919121
 10
92.52590145131143
 20
7.470579605323987
 10
92.57614568595349
 20
7.332174789359955
 10
92.61258589305996
 20
7.18951184706315
 10
92.63487113350487
 20
7.043964700552442
 10
92.64278678824198
 20
6.896935048415635
 10
92.63625662519908
 20
6.749838866576965
 10
92.6153435334098
 20
6.604092771678426
 10
92.58024891737404
 20
6.461100378289004
 10
92.53131075743548
 20
6.322238781320493
 10
92.46900035482673
 20
6.188845293862768
 10
92.39391779278358
 20
6.062204568123908
 10
92.30678615742696
 20
5.943536223513192
 10
92.20844457403595
 20
5.833983101069034
 10
92.0998401258133
 20
5.734600257247482
 10
91.98201873296722
 20
5.646344803150713
 10
91.85611507992434
 20
5.570066687066943
 10
91.72334168767588
 20
5.506500508932493
 10
91.58497723658539
 20
5.4562584458050445
 10
91.44235425194557
 20
5.41982435621129
 10
91.29684627106556
 20
5.397549120351938
 10
91.14985461534556
 20
5.3896472609269885
 10
91.00279489478564
 20
5.396194877161159
 10
90.85708337488535
 20
5.417128911928716
 10
90.71412333722603
 20
5.452247759036833
 10
90.57529156513448
 20
5.501213204780225
 10
90.44192508445624
 20
5.5635536851616525
 10
90.31530828731377
 20
5.638668827264082
 10
90.19666056267653
 20
5.725835231218582
 10
90.08712455299903
 20
5.824213436898665
 10
89.98775514992417
 20
5.932856008398449
 10
89.89950933512108
 20
6.050716658372769
 10
89.82323696403628
 20
6.176660324336831
 10
89.75967258129964
 20
6.309474099931956
 10
89.70942834664845
 20
6.447878915893666
 10
89.67298813955088
 20
6.590541858195296
 10
89.65070289910616
 20
6.73608900470451
 10
89.64278724436909
 20
6.883118656840317
 10
89.64931740741198
 20
7.030214838678987
 10
89.67023049920104
 20
7.175960933577576
 10
89.70532511523703
 20
7.318953326967957
 10
89.75426327517559
 20
7.457814923936459
 10
89.81657367778436
 20
7.591208411394172
 10
89.89165623982797
 20
7.717849137132708
 10
89.97878787518411
 20
7.836517481742748
 10
90.07712945857514
 20
7.94607060418692
 10
90.18573390679734
 20
8.045453448009109
  0
ENDSEC
  0
SECTION
  2
OBJECTS
  0
DICTIONARY
  5
A
330
0
100
AcDbDictionary
281
1
  3
ACAD_COLOR
350
B
  3
ACAD_GROUP
350
C
  3
ACAD_LAYOUT
350
D
  3
ACAD_MATERIAL
350
E
  3
ACAD_MLEADERSTYLE
350
F
  3
ACAD_MLINESTYLE
350
10
  3
ACAD_PLOTSETTINGS
350
11
  3
ACAD_PLOTSTYLENAME
350
12
  3
ACAD_SCALELIST
350
14
  3
ACAD_TABLESTYLE
350
15
  3
ACAD_VISUALSTYLE
350
16
  3
EZDXF_META
350
2D
  0
DICTIONARY
  5
B
330
A
100
AcDbDictionary
281
1
  0
DICTIONARY
  5
C
330
A
100
AcDbDictionary
281
1
  0
DICTIONARY
  5
D
330
A
100
AcDbDictionary
281
1
  3
Model
350
1A
  3
Layout1
350
1E
  0
DICTIONARY
  5
E
330
A
100
AcDbDictionary
281
1
  3
ByBlock
350
1F
  3
ByLayer
350
20
  3
Global
350
21
  0
DICTIONARY
  5
F
330
A
100
AcDbDictionary
281
1
  3
Standard
350
2C
  0
DICTIONARY
  5
10
330
A
100
AcDbDictionary
281
1
  3
Standard
350
22
  0
DICTIONARY
  5
11
330
A
100
AcDbDictionary
281
1
  0
ACDBDICTIONARYWDFLT
  5
12
330
A
100
AcDbDictionary
281
1
  3
Normal
350
13
100
AcDbDictionaryWithDefault
340
13
  0
ACDBPLACEHOLDER
  5
13
330
12
  0
DICTIONARY
  5
14
330
A
100
AcDbDictionary
281
1
  0
DICTIONARY
  5
15
330
A
100
AcDbDictionary
281
1
  0
DICTIONARY
  5
16
330
A
100
AcDbDictionary
281
1
  0
LAYOUT
  5
1A
330
D
100
AcDbPlotSettings
  1

  4
A3
  6

 40
7.5
 41
20.0
 42
7.5
 43
20.0
 44
420.0
 45
297.0
 46
0.0
 47
0.0
 48
0.0
 49
0.0
140
0.0
141
0.0
142
1.0
143
1.0
 70
1024
 72
1
 73
0
 74
5
  7

 75
16
 76
0
 77
2
 78
300
147
1.0
148
0.0
149
0.0
100
AcDbLayout
  1
Model
 70
1
 71
0
 10
0.0
 20
0.0
 11
420.0
 21
297.0
 12
0.0
 22
0.0
 32
0.0
 14
1e+20
 24
1e+20
 34
1e+20
 15
-1e+20
 25
-1e+20
 35
-1e+20
146
0.0
 13
0.0
 23
0.0
 33
0.0
 16
1.0
 26
0.0
 36
0.0
 17
0.0
 27
1.0
 37
0.0
 76
1
330
17
  0
LAYOUT
  5
1E
330
D
100
AcDbPlotSettings
  1

  4
A3
  6

 40
7.5
 41
20.0
 42
7.5
 43
20.0
 44
420.0
 45
297.0
 46
0.0
 47
0.0
 48
0.0
 49
0.0
140
0.0
141
0.0
142
1.0
143
1.0
 70
0
 72
1
 73
0
 74
5
  7

 75
16
 76
0
 77
2
 78
300
147
1.0
148
0.0
149
0.0
100
AcDbLayout
  1
Layout1
 70
1
 71
1
 10
0.0
 20
0.0
 11
420.0
 21
297.0
 12
0.0
 22
0.0
 32
0.0
 14
1e+20
 24
1e+20
 34
1e+20
 15
-1e+20
 25
-1e+20
 35
-1e+20
146
0.0
 13
0.0
 23
0.0
 33
0.0
 16
1.0
 26
0.0
 36
0.0
 17
0.0
 27
1.0
 37
0.0
 76
1
330
1B
  0
MATERIAL
  5
1F
102
{ACAD_REACTORS
330
E
102
}
330
E
100
AcDbMaterial
  1
ByBlock
  2

 70
0
 40
1.0
 71
1
 41
1.0
 91
-1023410177
 42
1.0
 72
1
  3

 73
1
 74
1
 75
1
 44
0.5
 73
0
 45
1.0
 46
1.0
 77
1
  4

 78
1
 79
1
170
1
 48
1.0
171
1
  6

172
1
173
1
174
1
140
1.0
141
1.0
175
1
  7

176
1
177
1
178
1
143
1.0
179
1
  8

270
1
271
1
272
1
145
1.0
146
1.0
273
1
  9

274
1
275
1
276
1
 42
1.0
 72
1
  3

 73
1
 74
1
 75
1
 94
63
  0
MATERIAL
  5
20
102
{ACAD_REACTORS
330
E
102
}
330
E
100
AcDbMaterial
  1
ByLayer
  2

 70
0
 40
1.0
 71
1
 41
1.0
 91
-1023410177
 42
1.0
 72
1
  3

 73
1
 74
1
 75
1
 44
0.5
 73
0
 45
1.0
 46
1.0
 77
1
  4

 78
1
 79
1
170
1
 48
1.0
171
1
  6

172
1
173
1
174
1
140
1.0
141
1.0
175
1
  7

176
1
177
1
178
1
143
1.0
179
1
  8

270
1
271
1
272
1
145
1.0
146
1.0
273
1
  9

274
1
275
1
276
1
 42
1.0
 72
1
  3

 73
1
 74
1
 75
1
 94
63
  0
MATERIAL
  5
21
102
{ACAD_REACTORS
330
E
102
}
330
E
100
AcDbMaterial
  1
Global
  2

 70
0
 40
1.0
 71
1
 41
1.0
 91
-1023410177
 42
1.0
 72
1
  3

 73
1
 74
1
 75
1
 44
0.5
 73
0
 45
1.0
 46
1.0
 77
1
  4

 78
1
 79
1
170
1
 48
1.0
171
1
  6

172
1
173
1
174
1
140
1.0
141
1.0
175
1
  7

176
1
177
1
178
1
143
1.0
179
1
  8

270
1
271
1
272
1
145
1.0
146
1.0
273
1
  9

274
1
275
1
276
1
 42
1.0
 72
1
  3

 73
1
 74
1
 75
1
 94
63
  0
MLINESTYLE
  5
22
102
{ACAD_REACTORS
330
10
102
}
330
10
100
AcDbMlineStyle
  2
Standard
 70
0
  3

 62
256
 51
90.0
 52
90.0
 71
2
 49
0.5
 62
256
  6
BYLAYER
 49
-0.5
 62
256
  6
BYLAYER
  0
MLEADERSTYLE
  5
2C
102
{ACAD_REACTORS
330
F
102
}
330
F
100
AcDbMLeaderStyle
179
2
170
2
171
1
172
0
 90
2
 40
0.0
 41
0.0
173
1
 91
-1056964608
 92
-2
290
1
 42
2.0
291
1
 43
8.0
  3
Standard
 44
4.0
300

342
29
174
1
175
1
176
0
178
1
 93
-1056964608
 45
4.0
292
0
297
0
 46
4.0
 94
-1056964608
 47
1.0
 49
1.0
140
1.0
294
1
141
0.0
177
0
142
1.0
295
0
296
0
143
3.75
271
0
272
9
273
9
  0
DICTIONARY
  5
2D
330
A
100
AcDbDictionary
280
1
281
1
  3
CREATED_BY_EZDXF
350
2E
  3
WRITTEN_BY_EZDXF
350
35
  0
DICTIONARYVAR
  5
2E
330
2D
100
DictionaryVariables
280
0
  1
1.4.4 @ 2026-09-23T20:01:36.091142+00:00
  0
DICTIONARYVAR
  5
35
330
2D
100
DictionaryVariables
280
0
  1
1.4.4 @ 2026-09-23T20:01:36.097025+00:00
  0
ENDSEC
  0
EOF
