  0
SECTION
  2
HEADER
  9
$ACADVER
  1
AC1024
  9
$ACADMAINTVER
 70
6
  9
$DWGCODEPAGE
  3
ANSI_1252
  9
$LASTSAVEDBY
  1
ezdxf
  9
$INSBASE
 10
0.0
 20
0.0
 30
0.0
  9
$EXTMIN
 10
1e+20
 20
1e+20
 30
1e+20
  9
$EXTMAX
 10
-1e+20
 20
-1e+20
 30
-1e+20
  9
$LIMMIN
 10
0.0
 20
0.0
  9
$LIMMAX
 10
420.0
 20
297.0
  9
$ORTHOMODE
 70
0
  9
$REGENMODE
 70
1
  9
$FILLMODE
 70
1
  9
$QTEXTMODE
 70
0
  9
$MIRRTEXT
 70
1
  9
$LTSCALE
 40
1.0
  9
$ATTMODE
 70
1
  9
$TEXTSIZE
 40
2.5
  9
$TRACEWID
 40
1.0
  9
$TEXTSTYLE
  7
Standard
  9
$CLAYER
  8
0
  9
$CELTYPE
  6
ByLayer
  9
$CECOLOR
 62
256
  9
$CELTSCALE
 40
1.0
  9
$DISPSILH
 70
0
  9
$DIMSCALE
 40
1.0
  9
$DIMASZ
 40
2.5
  9
$DIMEXO
 40
0.625
  9
$DIMDLI
 40
3.75
  9
$DIMRND
 40
0.0
  9
$DIMDLE
 40
0.0
  9
$DIMEXE
 40
1.25
  9
$DIMTP
 40
0.0
  9
$DIMTM
 40
0.0
  9
$DIMTXT
 40
2.5
  9
$DIMCEN
 40
2.5
  9
$DIMTSZ
 40
0.0
  9
$DIMTOL
 70
0
  9
$DIMLIM
 70
0
  9
$DIMTIH
 70
0
  9
$DIMTOH
 70
0
  9
$DIMSE1
 70
0
  9
$DIMSE2
 70
0
  9
$DIMTAD
 70
1
  9
$DIMZIN
 70
8
  9
$DIMBLK
  1

  9
$DIMASO
 70
1
  9
$DIMSHO
 70
1
  9
$DIMPOST
  1

  9
$DIMAPOST
  1

  9
$DIMALT
 70
0
  9
$DIMALTD
 70
3
  9
$DIMALTF
 40
0.03937007874
  9
$DIMLFAC
 40
1.0
  9
$DIMTOFL
 70
1
  9
$DIMTVP
 40
0.0
  9
$DIMTIX
 70
0
  9
$DIMSOXD
 70
0
  9
$DIMSAH
 70
0
  9
$DIMBLK1
  1

  9
$DIMBLK2
  1

  9
$DIMSTYLE
  2
ISO-25
  9
$DIMCLRD
 70
0
  9
$DIMCLRE
 70
0
  9
$DIMCLRT
 70
0
  9
$DIMTFAC
 40
1.0
  9
$DIMGAP
 40
0.625
  9
$DIMJUST
 70
0
  9
$DIMSD1
 70
0
  9
$DIMSD2
 70
0
  9
$DIMTOLJ
 70
0
  9
$DIMTZIN
 70
8
  9
$DIMALTZ
 70
0
  9
$DIMALTTZ
 70
0
  9
$DIMUPT
 70
0
  9
$DIMDEC
 70
2
  9
$DIMTDEC
 70
2
  9
$DIMALTU
 70
2
  9
$DIMALTTD
 70
3
  9
$DIMTXSTY
  7
Standard
  9
$DIMAUNIT
 70
0
  9
$DIMADEC
 70
0
  9
$DIMALTRND
 40
0.0
  9
$DIMAZIN
 70
0
  9
$DIMDSEP
 70
44
  9
$DIMATFIT
 70
3
  9
$DIMFRAC
 70
0
  9
$DIMLDRBLK
  1

  9
$DIMLUNIT
 70
2
  9
$DIMLWD
 70
-2
  9
$DIMLWE
 70
-2
  9
$DIMTMOVE
 70
0
  9
$DIMFXL
 40
1.0
  9
$DIMFXLON
 70
0
  9
$DIMJOGANG
 40
0.785398163397
  9
$DIMTFILL
 70
0
  9
$DIMTFILLCLR
 70
0
  9
$DIMARCSYM
 70
0
  9
$DIMLTYPE
  6

  9
$DIMLTEX1
  6

  9
$DIMLTEX2
  6

  9
$DIMTXTDIRECTION
 70
0
  9
$LUNITS
 70
2
  9
$LUPREC
 70
4
  9
$SKETCHINC
 40
1.0
  9
$FILLETRAD
 40
10.0
  9
$AUNITS
 70
0
  9
$AUPREC
 70
2
  9
$MENU
  1
.
  9
$ELEVATION
 40
0.0
  9
$PELEVATION
 40
0.0
  9
$THICKNESS
 40
0.0
  9
$LIMCHECK
 70
0
  9
$CHAMFERA
 40
0.0
  9
$CHAMFERB
 40
0.0
  9
$CHAMFERC
 40
0.0
  9
$CHAMFERD
 40
0.0
  9
$SKPOLY
 70
0
  9
$TDCREATE
 40
2461316.7218055557
  9
$TDUCREATE
 40
2458532.153996898
  9
$TDUPDATE
 40
2461316.7218055557
  9
$TDUUPDATE
 40
2458532.1544311
  9
$TDINDWG
 40
0.0
  9
$TDUSRTIMER
 40
0.0
  9
$USRTIMER
 70
1
  9
$ANGBASE
 50
0.0
  9
$ANGDIR
 70
0
  9
$PDMODE
 70
0
  9
$PDSIZE
 40
0.0
  9
$PLINEWID
 40
0.0
  9
$SPLFRAME
 70
0
  9
$SPLINETYPE
 70
6
  9
$SPLINESEGS
 70
8
  9
$HANDSEED
  5
35
  9
$SURFTAB1
 70
6
  9
$SURFTAB2
 70
6
  9
$SURFTYPE
 70
6
  9
$SURFU
 70
6
  9
$SURFV
 70
6
  9
$UCSBASE
  2

  9
$UCSNAME
  2

  9
$UCSORG
 10
0.0
 20
0.0
 30
0.0
  9
$UCSXDIR
 10
1.0
 20
0.0
 30
0.0
  9
$UCSYDIR
 10
0.0
 20
1.0
 30
0.0
  9
$UCSORTHOREF
  2

  9
$UCSORTHOVIEW
 70
0
  9
$UCSORGTOP
 10
0.0
 20
0.0
 30
0.0
  9
$UCSORGBOTTOM
 10
0.0
 20
0.0
 30
0.0
  9
$UCSORGLEFT
 10
0.0
 20
0.0
 30
0.0
  9
$UCSORGRIGHT
 10
0.0
 20
0.0
 30
0.0
  9
$UCSORGFRONT
 10
0.0
 20
0.0
 30
0.0
  9
$UCSORGBACK
 10
0.0
 20
0.0
 30
0.0
  9
$PUCSBASE
  2

  9
$PUCSNAME
  2

  9
$PUCSORG
 10
0.0
 20
0.0
 30
0.0
  9
$PUCSXDIR
 10
1.0
 20
0.0
 30
0.0
  9
$PUCSYDIR
 10
0.0
 20
1.0
 30
0.0
  9
$PUCSORTHOREF
  2

  9
$PUCSORTHOVIEW
 70
0
  9
$PUCSORGTOP
 10
0.0
 20
0.0
 30
0.0
  9
$PUCSORGBOTTOM
 10
0.0
 20
0.0
 30
0.0
  9
$PUCSORGLEFT
 10
0.0
 20
0.0
 30
0.0
  9
$PUCSORGRIGHT
 10
0.0
 20
0.0
 30
0.0
  9
$PUCSORGFRONT
 10
0.0
 20
0.0
 30
0.0
  9
$PUCSORGBACK
 10
0.0
 20
0.0
 30
0.0
  9
$USERI1
 70
0
  9
$USERI2
 70
0
  9
$USERI3
 70
0
  9
$USERI4
 70
0
  9
$USERI5
 70
0
  9
$USERR1
 40
0.0
  9
$USERR2
 40
0.0
  9
$USERR3
 40
0.0
  9
$USERR4
 40
0.0
  9
$USERR5
 40
0.0
  9
$WORLDVIEW
 70
1
  9
$SHADEDGE
 70
3
  9
$SHADEDIF
 70
70
  9
$TILEMODE
 70
1
  9
$MAXACTVP
 70
64
  9
$PINSBASE
 10
0.0
 20
0.0
 30
0.0
  9
$PLIMCHECK
 70
0
  9
$PEXTMIN
 10
1e+20
 20
1e+20
 30
1e+20
  9
$PEXTMAX
 10
-1e+20
 20
-1e+20
 30
-1e+20
  9
$PLIMMIN
 10
0.0
 20
0.0
  9
$PLIMMAX
 10
420.0
 20
297.0
  9
$UNITMODE
 70
0
  9
$VISRETAIN
 70
1
  9
$PLINEGEN
 70
0
  9
$PSLTSCALE
 70
1
  9
$TREEDEPTH
 70
3020
  9
$CMLSTYLE
  2
Standard
  9
$CMLJUST
 70
0
  9
$CMLSCALE
 40
20.0
  9
$PROXYGRAPHICS
 70
1
  9
$MEASUREMENT
 70
1
  9
$CELWEIGHT
370
-1
  9
$ENDCAPS
280
0
  9
$JOINSTYLE
280
0
  9
$LWDISPLAY
290
0
  9
$INSUNITS
 70
4
  9
$HYPERLINKBASE
  1

  9
$STYLESHEET
  1

  9
$XEDIT
290
1
  9
$CEPSNTYPE
380
0
  9
$PSTYLEMODE
290
1
  9
$FINGERPRINTGUID
  2
{3D637F40-E7C1-445F-94E6-C74C43215789}
  9
$VERSIONGUID
  2
{7756F3B7-3E1D-4A7B-BC89-0766A468D501}
  9
$EXTNAMES
290
1
  9
$PSVPSCALE
 40
0.0
  9
$OLESTARTUP
290
0
  9
$SORTENTS
280
127
  9
$INDEXCTL
280
0
  9
$HIDETEXT
280
1
  9
$XCLIPFRAME
280
1
  9
$HALOGAP
280
0
  9
$OBSCOLOR
 70
257
  9
$OBSLTYPE
280
0
  9
$INTERSECTIONDISPLAY
280
0
  9
$INTERSECTIONCOLOR
 70
257
  9
$DIMASSOC
280
2
  9
$PROJECTNAME
  1

  9
$CAMERADISPLAY
290
0
  9
$LENSLENGTH
 40
50.0
  9
$CAMERAHEIGHT
 40
0.0
  9
$STEPSPERSEC
 40
24.0
  9
$STEPSIZE
 40
100.0
  9
$3DDWFPREC
 40
2.0
  9
$PSOLWIDTH
 40
0.005
  9
$PSOLHEIGHT
 40
0.08
  9
$LOFTANG1
 40
1.570796326795
  9
$LOFTANG2
 40
1.570796326795
  9
$LOFTMAG1
 40
0.0
  9
$LOFTMAG2
 40
0.0
  9
$LOFTPARAM
 70
7
  9
$LOFTNORMALS
280
1
  9
$LATITUDE
 40
37.795
  9
$LONGITUDE
 40
-122.394
  9
$NORTHDIRECTION
 40
0.0
  9
$TIMEZONE
 70
-8000
  9
$LIGHTGLYPHDISPLAY
280
1
  9
$TILEMODELIGHTSYNCH
280
1
  9
$CMATERIAL
347
20
  9
$SOLIDHIST
280
0
  9
$SHOWHIST
280
1
  9
$DWFFRAME
280
2
  9
$DGNFRAME
280
2
  9
$REALWORLDSCALE
290
1
  9
$INTERFERECOLOR
 62
256
  9
$CSHADOW
280
0
  9
$SHADOWPLANELOCATION
 40
0.0
  0
ENDSEC
  0
SECTION
  2
CLASSES
  0
CLASS
  1
ACDBDICTIONARYWDFLT
  2
AcDbDictionaryWithDefault
  3
ObjectDBX Classes
 90
0
 91
0
280
0
281
0
  0
CLASS
  1
SUN
  2
AcDbSun
  3
SCENEOE
 90
1153
 91
0
280
0
281
0
  0
CLASS
  1
VISUALSTYLE
  2
AcDbVisualStyle
  3
ObjectDBX Classes
 90
4095
 91
0
280
0
281
0
  0
CLASS
  1
MATERIAL
  2
AcDbMaterial
  3
ObjectDBX Classes
 90
1153
 91
0
280
0
281
0
  0
CLASS
  1
SCALE
  2
AcDbScale
  3
ObjectDBX Classes
 90
1153
 91
0
280
0
281
0
  0
CLASS
  1
TABLESTYLE
  2
AcDbTableStyle
  3
ObjectDBX Classes
 90
4095
 91
0
280
0
281
0
  0
CLASS
  1
MLEADERSTYLE
  2
AcDbMLeaderStyle
  3
ACDB_MLEADERSTYLE_CLASS
 90
4095
 91
0
280
0
281
0
  0
CLASS
  1
DICTIONARYVAR
  2
AcDbDictionaryVar
  3
ObjectDBX Classes
 90
0
 91
0
280
0
281
0
  0
CLASS
  1
CELLSTYLEMAP
  2
AcDbCellStyleMap
  3
ObjectDBX Classes
 90
1152
 91
0
280
0
281
0
  0
CLASS
  1
MENTALRAYRENDERSETTINGS
  2
AcDbMentalRayRenderSettings
  3
SCENEOE
 90
1024
 91
0
280
0
281
0
  0
CLASS
  1
ACDBDETAILVIEWSTYLE
  2
AcDbDetailViewStyle
  3
ObjectDBX Classes
 90
1025
 91
0
280
0
281
0
  0
CLASS
  1
ACDBSECTIONVIEWSTYLE
  2
AcDbSectionViewStyle
  3
ObjectDBX Classes
 90
1025
 91
0
280
0
281
0
  0
CLASS
  1
RASTERVARIABLES
  2
AcDbRasterVariables
  3
ISM
 90
0
 91
0
280
0
281
0
  0
CLASS
  1
LAYOUT
  2
AcDbLayout
  3
ObjectDBX Classes
 90
0
 91
0
280
0
281
0
  0
CLASS
  1
ACDBPLACEHOLDER
  2
AcDbPlaceHolder
  3
ObjectDBX Classes
 90
0
 91
0
280
0
281
0
  0
ENDSEC
  0
SECTION
  2
TABLES
  0
TABLE
  2
VPORT
  5
8
330
0
100
AcDbSymbolTable
 70
1
  0
VPORT
  5
23
330
8
100
AcDbSymbolTableRecord
100
AcDbViewportTableRecord
  2
*Active
 70
0
 10
0.0
 20
0.0
 11
1.0
 21
1.0
 12
0.0
 22
0.0
 13
0.0
 23
0.0
 14
0.5
 24
0.5
 15
0.5
 25
0.5
 16
0.0
 26
0.0
 36
1.0
 17
0.0
 27
0.0
 37
0.0
 40
1000.0
 41
1.34
 42
50.0
 43
0.0
 44
0.0
 50
0.0
 51
0.0
 71
0
 72
1000
 73
1
 74
3
 75
0
 76
0
 77
0
 78
0
281
0
 65
0
146
0.0
  0
ENDTAB
  0
TABLE
  2
LTYPE
  5
2
330
0
100
AcDbSymbolTable
 70
3
  0
LTYPE
  5
24
330
2
100
AcDbSymbolTableRecord
100
AcDbLinetypeTableRecord
  2
ByBlock
 70
0
  3

 72
65
 73
0
 40
0.0
  0
LTYPE
  5
25
330
2
100
AcDbSymbolTableRecord
100
AcDbLinetypeTableRecord
  2
ByLayer
 70
0
  3

 72
65
 73
0
 40
0.0
  0
LTYPE
  5
26
330
2
100
AcDbSymbolTableRecord
100
AcDbLinetypeTableRecord
  2
Continuous
 70
0
  3

 72
65
 73
0
 40
0.0
  0
ENDTAB
  0
TABLE
  2
LAYER
  5
1
330
0
100
AcDbSymbolTable
 70
3
  0
LAYER
  5
27
330
1
100
AcDbSymbolTableRecord
100
AcDbLayerTableRecord
  2
0
 70
0
 62
7
  6
Continuous
370
-3
390
13
347
21
  0
LAYER
  5
28
330
1
100
AcDbSymbolTableRecord
100
AcDbLayerTableRecord
  2
Defpoints
 70
0
 62
7
  6
Continuous
290
0
370
-3
390
13
347
21
  0
LAYER
  5
2F
330
1
100
AcDbSymbolTableRecord
100
AcDbLayerTableRecord
  2
CUT
 70
0
 62
7
  6
Continuous
370
-3
390
13
347
21
  0
ENDTAB
  0
TABLE
  2
STYLE
  5
5
330
0
100
AcDbSymbolTable
 70
1
  0
STYLE
  5
29
330
5
100
AcDbSymbolTableRecord
100
AcDbTextStyleTableRecord
  2
Standard
 70
0
 40
0.0
 41
1.0
 50
0.0
 71
0
 42
2.5
  3
txt
  4

  0
ENDTAB
  0
TABLE
  2
VIEW
  5
7
330
0
100
AcDbSymbolTable
 70
0
  0
ENDTAB
  0
TABLE
  2
UCS
  5
6
330
0
100
AcDbSymbolTable
 70
0
  0
ENDTAB
  0
TABLE
  2
APPID
  5
3
330
0
100
AcDbSymbolTable
 70
3
  0
APPID
  5
2A
330
3
100
AcDbSymbolTableRecord
100
AcDbRegAppTableRecord
  2
ACAD
 70
0
  0
APPID
  5
32
330
3
100
AcDbSymbolTableRecord
100
AcDbRegAppTableRecord
  2
HATCHBACKGROUNDCOLOR
 70
0
  0
APPID
  5
33
330
3
100
AcDbSymbolTableRecord
100
AcDbRegAppTableRecord
  2
EZDXF
 70
0
  0
ENDTAB
  0
TABLE
  2
DIMSTYLE
  5
4
330
0
100
AcDbSymbolTable
 70
1
100
AcDbDimStyleTable
  0
DIMSTYLE
105
2B
330
4
100
AcDbSymbolTableRecord
100
AcDbDimStyleTableRecord
  2
Standard
 70
0
 40
1.0
 41
2.5
 42
0.625
 43
3.75
 44
1.25
 45
0.0
 46
0.0
 47
0.0
 48
0.0
 49
2.5
140
2.5
141
2.5
142
0.0
143
0.03937007874
144
1.0
145
0.0
146
1.0
147
0.625
148
0.0
 69
0
 70
0
 71
0
 72
0
 73
0
 74
0
 75
0
 76
0
 77
1
 78
8
 79
3
170
0
171
3
172
1
173
0
174
0
175
0
176
0
177
0
178
0
179
2
271
2
272
2
273
2
274
3
275
0
276
0
277
2
278
44
279
0
280
0
281
0
282
0
283
0
284
8
285
0
286
0
288
0
289
3
290
0
371
-2
372
-2
  0
ENDTAB
  0
TABLE
  2
BLOCK_RECORD
  5
9
330
0
100
AcDbSymbolTable
 70
2
  0
BLOCK_RECORD
  5
17
330
9
100
AcDbSymbolTableRecord
100
AcDbBlockTableRecord
  2
*Model_Space
340
1A
 70
0
280
1
281
0
  0
BLOCK_RECORD
  5
1B
330
9
100
AcDbSymbolTableRecord
100
AcDbBlockTableRecord
  2
*Paper_Space
340
1E
 70
0
280
1
281
0
  0
ENDTAB
  0
ENDSEC
  0
SECTION
  2
BLOCKS
  0
BLOCK
  5
18
330
17
100
AcDbEntity
  8
0
100
AcDbBlockBegin
  2
*Model_Space
 70
0
 10
0.0
 20
0.0
 30
0.0
  3
*Model_Space
  1

  0
ENDBLK
  5
19
330
17
100
AcDbEntity
  8
0
100
AcDbBlockEnd
  0
BLOCK
  5
1C
330
1B
100
AcDbEntity
  8
0
100
AcDbBlockBegin
  2
*Paper_Space
 70
0
 10
0.0
 20
0.0
 30
0.0
  3
*Paper_Space
  1

  0
ENDBLK
  5
1D
330
1B
100
AcDbEntity
  8
0
100
AcDbBlockEnd
  0
ENDSEC
  0
SECTION
  2
ENTITIES
  0
LWPOLYLINE
  5
30
330
17
100
AcDbEntity
  8
CUT
100
AcDbPolyline
 90
531
 70
1
 10
104.17807094275278
 20
7.023515675152
 10
105.64512775553277
 20
6.724157664512999
 10
109.55011653606277
 20
5.905974073478999
 10
113.39392251263277
 20
5.072620022476
 10
113.39392251263277
 20
2.0726200224760003
 10
109.55011653606277
 20
2.9059740734789994
 10
105.64512775553277
 20
3.7241576645129992
 10
104.17807094275278
 20
4.023515675152
 10
102.32992141269278
 20
4.39483342504
 10
99.63871403518277
 20
4.923631472974
 10
98.99321665940968
 20
5.046906218587486
 10
75.64460810914278
 20
5.005215099593
 10
70.69891392230278
 20
0.0466173730530004
 10
70.69892109724277
 20
0.03797837334700027
 10
58.94765302491277
 20
0.028218607506000026
 10
58.93743377052277
 20
12.332735020145549
 10
36.13744163398478
 20
12.313798886327
 10
36.14766088848077
 20
0.009282558813000108
 10
24.97097501437878
 20
0.0
 10
19.869730464405777
 20
4.970876537452
 10
17.360502125688768
 20
5.017633352032
 10
14.745739444381769
 20
5.086900074937001
 10
11.741302461709779
 20
5.197018741043999
 10
10.507929478634708
 20
5.256968103833373
 10
10.487588662117687
 20
5.2400508253106395
 10
10.45042061014476
 20
5.209683253103865
 10
10.412988969720494
 20
5.179641185526133
 10
10.375296591409246
 20
5.149926910397207
 10
10.337346345631538
 20
5.1205426905741795
 10
10.299141122445533
 20
5.091490763779156
 10
10.26068383132688
 20
5.062773342428841
 10
10.221977400947196
 20
5.034392613466052
 10
10.183024778951022
 20
5.006350738193184
 10
10.14382893173132
 20
4.978649852107605
 10
10.104392844203623
 20
4.9512920647390395
 10
10.064719519578667
 20
4.924279459488915
 10
10.024811979133723
 20
4.897614093471706
 10
9.984673261982515
 20
4.871297997358273
 10
9.944306424843752
 20
4.845333175221224
 10
9.903714541808363
 20
4.819721604382288
 10
9.862900704105414
 20
4.794465235261745
 10
9.821868019866642
 20
4.769565991229889
 10
9.78061961388984
 20
4.745025768460552
 10
9.739158627400798
 20
4.7208464357867115
 10
9.697488217814183
 20
4.697029834558165
 10
9.655611558493007
 20
4.673577778501302
 10
9.613531838507008
 20
4.650492053580994
 10
9.571252262389784
 20
4.627774417864572
 10
9.528776049894745
 20
4.605426601387949
 10
9.486106435749932
 20
4.583450306023876
 10
9.443246669411664
 20
4.561847205352326
 10
9.40020001481708
 20
4.540618944533058
 10
9.35696975013559
 20
4.5197671401803206
 10
9.31355916751923
 20
4.499293380239747
 10
9.26997157285193
 20
4.479199223867422
 10
9.226210285497785
 20
4.4594862013111545
 10
9.182278638048253
 20
4.4401558137939325
 10
9.138179976068372
 20
4.421209533399605
 10
9.093917657841985
 20
4.40264880296078
 10
9.049495054116008
 20
4.384475035948938
 10
9.004915547843687
 20
4.366689616366802
 10
8.960182533927032
 20
4.34929389864293
 10
8.915299418958242
 20
4.33228920752858
 10
8.870269620960293
 20
4.315676837996815
 10
8.825096569126636
 20
4.299458055143891
 10
8.779783703560078
 20
4.283634094092919
 10
8.734334475010748
 20
4.268206159899796
 10
8.688752344613377
 20
4.253175427461443
 10
8.643040783623675
 20
4.238543041426325
 10
8.59720327315398
 20
4.224310116107297
 10
8.551243303908194
 20
4.210477735396724
 10
8.505164375915903
 20
4.197046952683952
 10
8.458969998265886
 20
4.184018790775081
 10
8.41266368883884
 20
4.171394241815083
 10
8.366248974039529
 20
4.15917426721224
 10
8.31972938852816
 20
4.147359797564931
 10
8.2731084749513
 20
4.135951732590758
 10
8.226389783672005
 20
4.124950941058035
 10
8.179576872499503
 20
4.114358260719635
 10
8.13267330641822
 20
4.104174498249174
 10
8.085682657316305
 20
4.09440042917959
 10
8.038608503713625
 20
4.0850367978440865
 10
7.99145443048922
 20
4.076084317319442
 10
7.944224028608346
 20
4.067543669371711
 10
7.896920894848954
 20
4.059415504404297
 10
7.849548631527831
 20
4.051700441408437
 10
7.802110846226228
 20
4.044399067916046
 10
7.754611151515164
 20
4.037511939954982
 10
7.707053164680296
 20
4.031039582006706
 10
7.6594405074464476
 20
4.0249824869663335
 10
7.611776805701801
 20
4.019341116105103
 10
7.564065689221792
 20
4.01411589903525
 10
7.516310791392655
 20
4.00930723367728
 10
7.468515748934756
 20
4.004915486229677
 10
7.420684201625612
 20
4.000940991141018
 10
7.372819792022753
 20
3.997384051084488
 10
7.324926165186277
 20
3.9942449369348445
 10
7.277006968401295
 20
3.9915238877477854
 10
7.22906585090017
 20
3.9892211107417346
 10
7.181106463584612
 20
3.9873367812820852
 10
7.133132458747646
 20
3.9858710428678172
 10
7.085147489795482
 20
3.984824007120583
 10
7.037155210969281
 20
3.9841957537762127
 10
6.989159277066896
 20
3.983986330678629
 10
6.9411633431645114
 20
3.9841957537762127
 10
6.893171064338311
 20
3.984824007120583
 10
6.845186095386147
 20
3.9858710428678172
 10
6.797212090549181
 20
3.9873367812820852
 10
6.749252703233623
 20
3.9892211107417346
 10
6.701311585732498
 20
3.9915238877477854
 10
6.653392388947516
 20
3.9942449369348445
 10
6.60549876211104
 20
3.997384051084488
 10
6.557634352508181
 20
4.000940991141018
 10
6.509802805199037
 20
4.004915486229677
 10
6.462007762741138
 20
4.00930723367728
 10
6.414252864912001
 20
4.01411589903525
 10
6.366541748431992
 20
4.019341116105103
 10
6.318878046687345
 20
4.0249824869663335
 10
6.271265389453497
 20
4.031039582006706
 10
6.223707402618629
 20
4.037511939954982
 10
6.176207707907565
 20
4.044399067916046
 10
6.1287699226059615
 20
4.051700441408437
 10
6.081397659284839
 20
4.059415504404297
 10
6.034094525525447
 20
4.067543669371711
 10
5.9868641236445725
 20
4.076084317319442
 10
5.939710050420167
 20
4.0850367978440865
 10
5.892635896817488
 20
4.09440042917959
 10
5.845645247715574
 20
4.104174498249172
 10
5.79874168163429
 20
4.114358260719635
 10
5.751928770461788
 20
4.124950941058035
 10
5.705210079182493
 20
4.135951732590756
 10
5.658589165605633
 20
4.147359797564931
 10
5.612069580094271
 20
4.15917426721224
 10
5.565654865294945
 20
4.171394241815083
 10
5.519348555867907
 20
4.184018790775081
 10
5.473154178217889
 20
4.197046952683952
 10
5.427075250225599
 20
4.210477735396724
 10
5.381115280979813
 20
4.224310116107297
 10
5.3352777705101175
 20
4.238543041426325
 10
5.289566209520416
 20
4.253175427461441
 10
5.243984079123045
 20
4.268206159899796
 10
5.198534850573715
 20
4.283634094092918
 10
5.153221985007157
 20
4.299458055143893
 10
5.1080489331734995
 20
4.315676837996815
 10
5.063019135175551
 20
4.332289207528579
 10
5.018136020206761
 20
4.34929389864293
 10
4.973403006290106
 20
4.366689616366802
 10
4.928823500017785
 20
4.384475035948938
 10
4.884400896291808
 20
4.40264880296078
 10
4.840138578065421
 20
4.421209533399605
 10
4.796039916085547
 20
4.4401558137939325
 10
4.752108268636007
 20
4.4594862013111545
 10
4.7083469812818635
 20
4.479199223867422
 10
4.664759386614563
 20
4.499293380239745
 10
4.6213488039982025
 20
4.5197671401803206
 10
4.578118539316712
 20
4.540618944533058
 10
4.535071884722129
 20
4.561847205352326
 10
4.492212118383861
 20
4.583450306023874
 10
4.449542504239048
 20
4.605426601387947
 10
4.407066291744009
 20
4.627774417864572
 10
4.364786715626785
 20
4.650492053580994
 10
4.322706995640786
 20
4.673577778501302
 10
4.28083033631961
 20
4.697029834558165
 10
4.239159926732995
 20
4.7208464357867115
 10
4.197698940243953
 20
4.745025768460552
 10
4.156450534267151
 20
4.769565991229889
 10
4.115417850028386
 20
4.794465235261743
 10
4.07460401232543
 20
4.819721604382288
 10
4.034012129290041
 20
4.845333175221224
 10
3.993645292151278
 20
4.871297997358273
 10
3.9535065750000697
 20
4.897614093471706
 10
3.9135990345551335
 20
4.924279459488915
 10
3.8739257099301767
 20
4.9512920647390395
 10
3.8344896224024723
 20
4.978649852107605
 10
3.7952937751827704
 20
5.006350738193184
 10
3.7563411531865967
 20
5.034392613466052
 10
3.7176347228069133
 20
5.062773342428839
 10
3.6791774316882595
 20
5.091490763779156
 10
3.640972208502255
 20
5.1205426905741795
 10
3.6030219627245472
 20
5.149926910397207
 10
3.5653295844132984
 20
5.179641185526133
 10
3.527897943989032
 20
5.209683253103863
 10
3.4907298920161054
 20
5.2400508253106395
 10
3.453828258985567
 20
5.2707415895382645
 10
3.417195855099642
 20
5.301753208566218
 10
3.3808354700577254
 20
5.333083320739645
 10
3.3447498728438987
 20
5.364729540149206
 10
3.3089418115161138
 20
5.396689456812766
 10
3.2734140129968665
 20
5.428960636858934
 10
3.238169182865576
 20
5.461540622712409
 10
3.2032100051525134
 20
5.494426933281128
 10
3.1685391421343923
 20
5.5276170641452165
 10
3.134159234131687
 20
5.56110848774771
 10
3.1000728993074915
 20
5.59489865358703
 10
3.066282733468171
 20
5.628984988411229
 10
3.0327913098656722
 20
5.663364896413938
 10
2.999601179001587
 20
5.698035759432052
 10
2.9667148684328666
 20
5.73299493714512
 10
2.9347789316767887
 20
5.767543038888132
 10
1.9128442575267712
 20
5.860508463118
 10
1.0538801438247773
 20
5.956372423105
 10
0.21079822736077602
 20
6.067152001807001
 10
0.0
 20
6.1012453309917465
 10
0.0
 20
9.101245330991748
 10
0.27320190554177515
 20
9.233105566771
 10
1.1096380711257723
 20
9.601587931208
 10
1.4959708555357807
 20
9.756691648784138
 10
1.496698133468243
 20
9.771832722680836
 10
1.499419182655302
 20
9.81975191946582
 10
1.5025582968049491
 20
9.867645546302295
 10
1.5061152368614756
 20
9.915509955905158
 10
1.5100897319501385
 20
9.963341503214295
 10
1.5144814793977375
 20
10.011136545672201
 10
1.5192901447557077
 20
10.058891443501334
 10
1.5245153618255642
 20
10.106602559981347
 10
1.530156732686791
 20
10.154266261725986
 10
1.5362138277271669
 20
10.201878918959839
 10
1.5426861856754357
 20
10.24943690579471
 10
1.5495733136365004
 20
10.29693660050577
 10
1.5568746871288965
 20
10.34437438580737
 10
1.5645897501247532
 20
10.391746649128496
 10
1.57271791509217
 20
10.439049782887889
 10
1.5812585630398956
 20
10.486280184768766
 10
1.590211043564544
 20
10.533434257993164
 10
1.5995746749000475
 20
10.580508411595847
 10
1.6093487439696332
 20
10.627499060697762
 10
1.6195325064400947
 20
10.674402626779049
 10
1.6301251867784927
 20
10.72121553795155
 10
1.6411259783112158
 20
10.767934229230843
 10
1.6525340432853852
 20
10.814555142807702
 10
1.6643485129326976
 20
10.861074728319068
 10
1.6765684875355404
 20
10.907489443118386
 10
1.6891930364955385
 20
10.953795752545428
 10
1.702221198404409
 20
10.999990130195442
 10
1.7156519811171833
 20
11.046069058187733
 10
1.7294843618277582
 20
11.092029027433522
 10
1.7437172871467865
 20
11.137866537903214
 10
1.7583496731818968
 20
11.18357809889292
 10
1.7733804056202516
 20
11.22916022929029
 10
1.7888083398133787
 20
11.274609457839617
 10
1.8046323008643483
 20
11.319922323406182
 10
1.8208510837172724
 20
11.365095375239836
 10
1.8374634532490361
 20
11.410125173237784
 10
1.8544681443633877
 20
11.455008288206578
 10
1.8718638620872596
 20
11.499741302123233
 10
1.8896492816693922
 20
11.54432080839555
 10
1.9078230486812373
 20
11.58874341212153
 10
1.9263837791200586
 20
11.63300573034791
 10
1.94533005951439
 20
11.677104392327792
 10
1.964660447031612
 20
11.721036039777328
 10
1.9843734695878794
 20
11.764797327131472
 10
2.004467625960203
 20
11.808384921798773
 10
2.0249413859007817
 20
11.851795504415136
 10
2.0457931902535194
 20
11.895025769096623
 10
2.067021451072783
 20
11.938072423691207
 10
2.0886245517443314
 20
11.980932190029474
 10
2.110600847108408
 20
12.023601804174287
 10
2.132948663585026
 20
12.066078016669323
 10
2.1556662993014513
 20
12.108357592786547
 10
2.178752024221758
 20
12.150437312772546
 10
2.2022040802786194
 20
12.192313972093725
 10
2.2260206815071726
 20
12.233984381680344
 10
2.2502000141810115
 20
12.275445368169379
 10
2.2747402369503433
 20
12.316693774146184
 10
2.2996394809822007
 20
12.357726458384953
 10
2.3248958501027417
 20
12.398540296087905
 10
2.350507420941682
 20
12.439132179123295
 10
2.37647224307873
 20
12.479499016262057
 10
2.4027883391921634
 20
12.519637733413266
 10
2.4294537052093688
 20
12.559545273858205
 10
2.456466310459497
 20
12.599218598483162
 10
2.4838240978280623
 20
12.638654686010863
 10
2.511524983913638
 20
12.677850533230565
 10
2.5395668591865075
 20
12.716803155226742
 10
2.567947588149295
 20
12.755509585606418
 10
2.596665009499617
 20
12.793966876725072
 10
2.625716936294637
 20
12.83217209991108
 10
2.6551011561176665
 20
12.870122345688785
 10
2.684815431246591
 20
12.907814724000037
 10
2.7148574988243226
 20
12.945246364424303
 10
2.7452250710311006
 20
12.982414416397233
 10
2.775915835258722
 20
13.019316049427772
 10
2.8069274542866722
 20
13.055948453313693
 10
2.8382575664601006
 20
13.092308838355613
 10
2.86990378586966
 20
13.128394435569437
 10
2.9018637025332197
 20
13.164202496897222
 10
2.934134882579393
 20
13.199730295416465
 10
2.9667148684328666
 20
13.234975125547756
 10
2.999601179001587
 20
13.269934303260829
 10
3.0327913098656722
 20
13.304605166278943
 10
3.0662827334681637
 20
13.338985074281648
 10
3.1000728993074844
 20
13.373071409105847
 10
3.134159234131687
 20
13.406861574945168
 10
3.1685391421343923
 20
13.440352998547663
 10
3.2032100051525063
 20
13.473543129411748
 10
3.238169182865576
 20
13.506429439980469
 10
3.2734140129968665
 20
13.539009425833942
 10
3.3089418115161138
 20
13.571280605880112
 10
3.3447498728438987
 20
13.603240522543672
 10
3.3808354700577183
 20
13.634886741953231
 10
3.417195855099642
 20
13.66621685412666
 10
3.45382825898556
 20
13.697228473154613
 10
3.4907298920161054
 20
13.727919237382238
 10
3.527897943989032
 20
13.758286809589013
 10
3.5653295844132984
 20
13.788328877166744
 10
3.6030219627245543
 20
13.818043152295672
 10
3.640972208502255
 20
13.847427372118698
 10
3.6791774316882666
 20
13.876479298913722
 10
3.7176347228069133
 20
13.905196720264037
 10
3.7563411531865967
 20
13.933577449226824
 10
3.7952937751827704
 20
13.961619324499697
 10
3.8344896224024723
 20
13.989320210585273
 10
3.8739257099301696
 20
14.016677997953838
 10
3.9135990345551335
 20
14.043690603203963
 10
3.9535065750000697
 20
14.070355969221172
 10
3.993645292151278
 20
14.096672065334605
 10
4.034012129290041
 20
14.122636887471653
 10
4.07460401232543
 20
14.14824845831059
 10
4.115417850028386
 20
14.173504827431135
 10
4.156450534267151
 20
14.198404071462988
 10
4.19769894024396
 20
14.222944294232324
 10
4.239159926732988
 20
14.247123626906166
 10
4.28083033631961
 20
14.270940228134712
 10
4.322706995640793
 20
14.294392284191577
 10
4.364786715626785
 20
14.317478009111884
 10
4.407066291744009
 20
14.340195644828306
 10
4.449542504239048
 20
14.362543461304927
 10
4.492212118383861
 20
14.384519756669004
 10
4.535071884722129
 20
14.406122857340552
 10
4.578118539316712
 20
14.42735111815982
 10
4.6213488039982025
 20
14.448202922512557
 10
4.664759386614563
 20
14.468676682453133
 10
4.7083469812818635
 20
14.488770838825456
 10
4.752108268636007
 20
14.508483861381723
 10
4.79603991608554
 20
14.527814248898945
 10
4.840138578065421
 20
14.546760529293273
 10
4.884400896291808
 20
14.565321259732098
 10
4.928823500017785
 20
14.58349502674394
 10
4.973403006290106
 20
14.601280446326076
 10
5.018136020206754
 20
14.618676164049948
 10
5.063019135175551
 20
14.6356808551643
 10
5.1080489331734995
 20
14.652293224696063
 10
5.15322198500715
 20
14.668512007548987
 10
5.198534850573715
 20
14.68433596859996
 10
5.243984079123038
 20
14.699763902793084
 10
5.289566209520416
 20
14.714794635231435
 10
5.3352777705101175
 20
14.729427021266552
 10
5.381115280979813
 20
14.743659946585577
 10
5.427075250225599
 20
14.757492327296152
 10
5.473154178217889
 20
14.770923110008926
 10
5.519348555867907
 20
14.783951271917797
 10
5.5656548652949525
 20
14.796575820877795
 10
5.612069580094264
 20
14.808795795480638
 10
5.658589165605633
 20
14.820610265127947
 10
5.705210079182493
 20
14.83201833010212
 10
5.751928770461781
 20
14.843019121634843
 10
5.79874168163429
 20
14.85361180197324
 10
5.845645247715574
 20
14.863795564443702
 10
5.892635896817488
 20
14.873569633513288
 10
5.9397100504201745
 20
14.882933264848791
 10
5.986864123644565
 20
14.891885745373436
 10
6.034094525525447
 20
14.900426393321165
 10
6.081397659284839
 20
14.908554558288582
 10
6.1287699226059615
 20
14.916269621284439
 10
6.176207707907565
 20
14.923570994776831
 10
6.223707402618622
 20
14.930458122737896
 10
6.271265389453497
 20
14.936930480686172
 10
6.318878046687345
 20
14.942987575726544
 10
6.366541748431985
 20
14.948628946587775
 10
6.414252864912001
 20
14.953854163657628
 10
6.4620077627411305
 20
14.958662829015598
 10
6.509802805199037
 20
14.9630545764632
 10
6.557634352508181
 20
14.96702907155186
 10
6.60549876211104
 20
14.97058601160839
 10
6.653392388947516
 20
14.973725125758033
 10
6.701311585732498
 20
14.976446174945092
 10
6.749252703233623
 20
14.978748951951143
 10
6.797212090549181
 20
14.980633281410793
 10
6.845186095386147
 20
14.98209901982506
 10
6.893171064338311
 20
14.983146055572295
 10
6.9411633431645114
 20
14.983774308916665
 10
6.989159277066896
 20
14.983983732014249
 10
7.0371552109692885
 20
14.983774308916665
 10
7.085147489795482
 20
14.983146055572295
 10
7.133132458747646
 20
14.98209901982506
 10
7.181106463584612
 20
14.980633281410793
 10
7.22906585090017
 20
14.978748951951143
 10
7.277006968401295
 20
14.976446174945092
 10
7.324926165186277
 20
14.973725125758033
 10
7.372819792022753
 20
14.97058601160839
 10
7.420684201625619
 20
14.96702907155186
 10
7.468515748934756
 20
14.9630545764632
 10
7.516310791392655
 20
14.958662829015598
 10
7.564065689221792
 20
14.953854163657628
 10
7.611776805701801
 20
14.948628946587775
 10
7.6594405074464476
 20
14.942987575726544
 10
7.707053164680296
 20
14.936930480686172
 10
7.754611151515164
 20
14.930458122737896
 10
7.802110846226228
 20
14.923570994776831
 10
7.849548631527831
 20
14.916269621284439
 10
7.896920894848954
 20
14.908554558288582
 10
7.944224028608346
 20
14.900426393321169
 10
7.99145443048922
 20
14.891885745373436
 10
8.038608503713625
 20
14.882933264848791
 10
8.085682657316305
 20
14.873569633513288
 10
8.13267330641822
 20
14.863795564443702
 10
8.179576872499503
 20
14.853611801973244
 10
8.226389783672005
 20
14.843019121634843
 10
8.2731084749513
 20
14.83201833010212
 10
8.31972938852816
 20
14.82061026512795
 10
8.366248974039522
 20
14.808795795480638
 10
8.41266368883884
 20
14.796575820877795
 10
8.458969998265886
 20
14.783951271917797
 10
8.505164375915903
 20
14.770923110008926
 10
8.551243303908187
 20
14.757492327296156
 10
8.59720327315398
 20
14.74365994658558
 10
8.643040783623675
 20
14.729427021266552
 10
8.688752344613377
 20
14.714794635231438
 10
8.734334475010748
 20
14.699763902793084
 10
8.77978370356007
 20
14.68433596859996
 10
8.825096569126636
 20
14.668512007548987
 10
8.870269620960293
 20
14.652293224696063
 10
8.915299418958242
 20
14.6356808551643
 10
8.960182533927032
 20
14.618676164049948
 10
9.004915547843687
 20
14.601280446326076
 10
9.049495054116008
 20
14.58349502674394
 10
9.093917657841992
 20
14.565321259732098
 10
9.138179976068365
 20
14.546760529293273
 10
9.182278638048253
 20
14.527814248898945
 10
9.226210285497778
 20
14.508483861381723
 10
9.26997157285193
 20
14.488770838825456
 10
9.31355916751923
 20
14.468676682453129
 10
9.35696975013559
 20
14.448202922512557
 10
9.40020001481708
 20
14.42735111815982
 10
9.443246669411664
 20
14.406122857340552
 10
9.486106435749932
 20
14.384519756669004
 10
9.528776049894745
 20
14.362543461304927
 10
9.571252262389777
 20
14.34019564482831
 10
9.613531838507008
 20
14.317478009111884
 10
9.655611558493007
 20
14.294392284191574
 10
9.697488217814183
 20
14.270940228134716
 10
9.739158627400798
 20
14.247123626906166
 10
9.780619613889833
 20
14.222944294232327
 10
9.821868019866642
 20
14.198404071462988
 10
9.862900704105414
 20
14.173504827431131
 10
9.903714541808363
 20
14.14824845831059
 10
9.944306424843752
 20
14.122636887471653
 10
9.984673261982515
 20
14.096672065334605
 10
10.024811979133723
 20
14.070355969221172
 10
10.064719519578667
 20
14.043690603203963
 10
10.104392844203616
 20
14.016677997953838
 10
10.14382893173132
 20
13.989320210585273
 10
10.183024778951022
 20
13.961619324499694
 10
10.221977400947196
 20
13.933577449226828
 10
10.26068383132688
 20
13.905196720264037
 10
10.299141122445526
 20
13.876479298913726
 10
10.337346345631538
 20
13.847427372118698
 10
10.375296591409246
 20
13.818043152295669
 10
10.412988969720494
 20
13.788328877166744
 10
10.45042061014476
 20
13.758286809589013
 10
10.487588662117687
 20
13.727919237382238
 10
10.524490295148226
 20
13.697228473154613
 10
10.561122699034158
 20
13.66621685412666
 10
10.597483084076075
 20
13.634886741953235
 10
10.633568681289887
 20
13.603240522543672
 10
10.669376742617672
 20
13.571280605880116
 10
10.704904541136926
 20
13.539009425833942
 10
10.740149371268217
 20
13.506429439980469
 10
10.77510854898128
 20
13.473543129411752
 10
10.8097794119994
 20
13.44035299854766
 10
10.844159320002106
 20
13.406861574945168
 10
10.878245654826301
 20
13.373071409105847
 10
10.912035820665622
 20
13.338985074281648
 10
10.94552724426812
 20
13.304605166278943
 10
10.978717375132206
 20
13.269934303260825
 10
11.011603685700933
 20
13.234975125547756
 10
11.044183671554407
 20
13.199730295416465
 10
11.076454851600573
 20
13.164202496897222
 10
11.108414768264126
 20
13.128394435569437
 10
11.140060987673692
 20
13.092308838355613
 10
11.171391099847114
 20
13.055948453313693
 10
11.202402718875064
 20
13.019316049427772
 10
11.233093483102692
 20
12.982414416397233
 10
11.263461055309463
 20
12.945246364424303
 10
11.293503122887202
 20
12.90781472400004
 10
11.323217398016126
 20
12.870122345688785
 10
11.352601617839156
 20
12.832172099911084
 10
11.381653544634176
 20
12.793966876725072
 10
11.410370965984498
 20
12.755509585606418
 10
11.438751694947285
 20
12.716803155226742
 10
11.466793570220148
 20
12.677850533230565
 10
11.49449445630573
 20
12.638654686010867
 10
11.521852243674289
 20
12.599218598483162
 10
11.523379926987388
 20
12.596974895017937
 10
12.42574959290478
 20
12.777284536975
 10
13.760057847592776
 20
13.023966050591
 10
15.141510844819777
 20
13.258798431750002
 10
16.56848803683077
 20
13.480191722478999
 10
17.635076119449778
 20
13.632037711936
 10
18.724523660273775
 20
13.775426319605
 10
20.552473541741776
 20
13.987588743118
 10
22.38274331307578
 20
14.165029164848
 10
24.124558525085774
 20
14.302668304150998
 10
25.835696967742777
 20
14.410201764592
 10
25.843583817394773
 20
4.914022652785
 10
30.84358209294878
 20
4.9181752950419995
 10
30.835569514911768
 20
14.592223077261998
 10
30.839575803930416
 20
14.592287195549911
 10
30.839575803930416
 20
15.332735020145549
 10
63.240520210181074
 20
15.332735020145549
 10
63.240520210181074
 20
13.336108125721765
 10
64.23668061598278
 20
13.241773340874001
 10
64.23738304856278
 20
12.396007809802999
 10
63.240520210181074
 20
12.395179886567611
 10
63.240520210181074
 20
12.332735020145549
 10
63.237435153405144
 20
12.332735020145549
 10
63.24365712704278
 20
4.8411536358989995
 10
69.24365505771277
 20
4.846136806606999
 10
69.23712808950278
 20
12.705067986465998
 10
72.17277213277278
 20
12.355242825626998
 10
75.02226342541277
 20
11.991610946411999
 10
77.94752580734277
 20
11.592034032704
 10
80.89620655861276
 20
11.163619382412001
 10
83.52596064045278
 20
10.762290323165999
 10
86.24896980612277
 20
10.325812747447
 10
88.96720483517277
 20
9.871157017962002
 10
91.58730394317277
 20
9.417244044031
 10
94.29492125633277
 20
8.930188304314001
 10
97.00024711163277
 20
8.427516308169
 10
99.63871403518277
 20
7.923631472974
 10
102.32992141269278
 20
7.39483342504
  0
CIRCLE
  5
31
330
17
100
AcDbEntity
  8
CUT
100
AcDbCircle
 10
6.989159277066896
 20
9.483985031346439
 30
0.0
 40
2.499998700667809
  0
ENDSEC
  0
SECTION
  2
OBJECTS
  0
DICTIONARY
  5
A
330
0
100
AcDbDictionary
281
1
  3
ACAD_COLOR
350
B
  3
ACAD_GROUP
350
C
  3
ACAD_LAYOUT
350
D
  3
ACAD_MATERIAL
350
E
  3
ACAD_MLEADERSTYLE
350
F
  3
ACAD_MLINESTYLE
350
10
  3
ACAD_PLOTSETTINGS
350
11
  3
ACAD_PLOTSTYLENAME
350
12
  3
ACAD_SCALELIST
350
14
  3
ACAD_TABLESTYLE
350
15
  3
ACAD_VISUALSTYLE
350
16
  3
EZDXF_META
350
2D
  0
DICTIONARY
  5
B
330
A
100
AcDbDictionary
281
1
  0
DICTIONARY
  5
C
330
A
100
AcDbDictionary
281
1
  0
DICTIONARY
  5
D
330
A
100
AcDbDictionary
281
1
  3
Model
350
1A
  3
Layout1
350
1E
  0
DICTIONARY
  5
E
330
A
100
AcDbDictionary
281
1
  3
ByBlock
350
1F
  3
ByLayer
350
20
  3
Global
350
21
  0
DICTIONARY
  5
F
330
A
100
AcDbDictionary
281
1
  3
Standard
350
2C
  0
DICTIONARY
  5
10
330
A
100
AcDbDictionary
281
1
  3
Standard
350
22
  0
DICTIONARY
  5
11
330
A
100
AcDbDictionary
281
1
  0
ACDBDICTIONARYWDFLT
  5
12
330
A
100
AcDbDictionary
281
1
  3
Normal
350
13
100
AcDbDictionaryWithDefault
340
13
  0
ACDBPLACEHOLDER
  5
13
330
12
  0
DICTIONARY
  5
14
330
A
100
AcDbDictionary
281
1
  0
DICTIONARY
  5
15
330
A
100
AcDbDictionary
281
1
  0
DICTIONARY
  5
16
330
A
100
AcDbDictionary
281
1
  0
LAYOUT
  5
1A
330
D
100
AcDbPlotSettings
  1

  4
A3
  6

 40
7.5
 41
20.0
 42
7.5
 43
20.0
 44
420.0
 45
297.0
 46
0.0
 47
0.0
 48
0.0
 49
0.0
140
0.0
141
0.0
142
1.0
143
1.0
 70
1024
 72
1
 73
0
 74
5
  7

 75
16
 76
0
 77
2
 78
300
147
1.0
148
0.0
149
0.0
100
AcDbLayout
  1
Model
 70
1
 71
0
 10
0.0
 20
0.0
 11
420.0
 21
297.0
 12
0.0
 22
0.0
 32
0.0
 14
1e+20
 24
1e+20
 34
1e+20
 15
-1e+20
 25
-1e+20
 35
-1e+20
146
0.0
 13
0.0
 23
0.0
 33
0.0
 16
1.0
 26
0.0
 36
0.0
 17
0.0
 27
1.0
 37
0.0
 76
1
330
17
  0
LAYOUT
  5
1E
330
D
100
AcDbPlotSettings
  1

  4
A3
  6

 40
7.5
 41
20.0
 42
7.5
 43
20.0
 44
420.0
 45
297.0
 46
0.0
 47
0.0
 48
0.0
 49
0.0
140
0.0
141
0.0
142
1.0
143
1.0
 70
0
 72
1
 73
0
 74
5
  7

 75
16
 76
0
 77
2
 78
300
147
1.0
148
0.0
149
0.0
100
AcDbLayout
  1
Layout1
 70
1
 71
1
 10
0.0
 20
0.0
 11
420.0
 21
297.0
 12
0.0
 22
0.0
 32
0.0
 14
1e+20
 24
1e+20
 34
1e+20
 15
-1e+20
 25
-1e+20
 35
-1e+20
146
0.0
 13
0.0
 23
0.0
 33
0.0
 16
1.0
 26
0.0
 36
0.0
 17
0.0
 27
1.0
 37
0.0
 76
1
330
1B
  0
MATERIAL
  5
1F
102
{ACAD_REACTORS
330
E
102
}
330
E
100
AcDbMaterial
  1
ByBlock
  2

 70
0
 40
1.0
 71
1
 41
1.0
 91
-1023410177
 42
1.0
 72
1
  3

 73
1
 74
1
 75
1
 44
0.5
 73
0
 45
1.0
 46
1.0
 77
1
  4

 78
1
 79
1
170
1
 48
1.0
171
1
  6

172
1
173
1
174
1
140
1.0
141
1.0
175
1
  7

176
1
177
1
178
1
143
1.0
179
1
  8

270
1
271
1
272
1
145
1.0
146
1.0
273
1
  9

274
1
275
1
276
1
 42
1.0
 72
1
  3

 73
1
 74
1
 75
1
 94
63
  0
MATERIAL
  5
20
102
{ACAD_REACTORS
330
E
102
}
330
E
100
AcDbMaterial
  1
ByLayer
  2

 70
0
 40
1.0
 71
1
 41
1.0
 91
-1023410177
 42
1.0
 72
1
  3

 73
1
 74
1
 75
1
 44
0.5
 73
0
 45
1.0
 46
1.0
 77
1
  4

 78
1
 79
1
170
1
 48
1.0
171
1
  6

172
1
173
1
174
1
140
1.0
141
1.0
175
1
  7

176
1
177
1
178
1
143
1.0
179
1
  8

270
1
271
1
272
1
145
1.0
146
1.0
273
1
  9

274
1
275
1
276
1
 42
1.0
 72
1
  3

 73
1
 74
1
 75
1
 94
63
  0
MATERIAL
  5
21
102
{ACAD_REACTORS
330
E
102
}
330
E
100
AcDbMaterial
  1
Global
  2

 70
0
 40
1.0
 71
1
 41
1.0
 91
-1023410177
 42
1.0
 72
1
  3

 73
1
 74
1
 75
1
 44
0.5
 73
0
 45
1.0
 46
1.0
 77
1
  4

 78
1
 79
1
170
1
 48
1.0
171
1
  6

172
1
173
1
174
1
140
1.0
141
1.0
175
1
  7

176
1
177
1
178
1
143
1.0
179
1
  8

270
1
271
1
272
1
145
1.0
146
1.0
273
1
  9

274
1
275
1
276
1
 42
1.0
 72
1
  3

 73
1
 74
1
 75
1
 94
63
  0
MLINESTYLE
  5
22
102
{ACAD_REACTORS
330
10
102
}
330
10
100
AcDbMlineStyle
  2
Standard
 70
0
  3

 62
256
 51
90.0
 52
90.0
 71
2
 49
0.5
 62
256
  6
BYLAYER
 49
-0.5
 62
256
  6
BYLAYER
  0
MLEADERSTYLE
  5
2C
102
{ACAD_REACTORS
330
F
102
}
330
F
100
AcDbMLeaderStyle
179
2
170
2
171
1
172
0
 90
2
 40
0.0
 41
0.0
173
1
 91
-1056964608
 92
-2
290
1
 42
2.0
291
1
 43
8.0
  3
Standard
 44
4.0
300

342
29
174
1
175
1
176
0
178
1
 93
-1056964608
 45
4.0
292
0
297
0
 46
4.0
 94
-1056964608
 47
1.0
 49
1.0
140
1.0
294
1
141
0.0
177
0
142
1.0
295
0
296
0
143
3.75
271
0
272
9
273
9
  0
DICTIONARY
  5
2D
330
A
100
AcDbDictionary
280
1
281
1
  3
CREATED_BY_EZDXF
350
2E
  3
WRITTEN_BY_EZDXF
350
34
  0
DICTIONARYVAR
  5
2E
330
2D
100
DictionaryVariables
280
0
  1
1.4.4 @ 2026-10-02T11:49:24.132686+00:00
  0
DICTIONARYVAR
  5
34
330
2D
100
DictionaryVariables
280
0
  1
1.4.4 @ 2026-10-02T11:49:24.136832+00:00
  0
ENDSEC
  0
EOF
