  0
SECTION
  2
HEADER
  9
$ACADVER
  1
AC1027
  9
$ACADMAINTVER
 70
105
  9
$DWGCODEPAGE
  3
ANSI_1252
  9
$LASTSAVEDBY
  1
ezdxf
  9
$REQUIREDVERSIONS
160
0
  9
$INSBASE
 10
0.0
 20
0.0
 30
0.0
  9
$EXTMIN
 10
1e+20
 20
1e+20
 30
1e+20
  9
$EXTMAX
 10
-1e+20
 20
-1e+20
 30
-1e+20
  9
$LIMMIN
 10
0.0
 20
0.0
  9
$LIMMAX
 10
420.0
 20
297.0
  9
$ORTHOMODE
 70
0
  9
$REGENMODE
 70
1
  9
$FILLMODE
 70
1
  9
$QTEXTMODE
 70
0
  9
$MIRRTEXT
 70
1
  9
$LTSCALE
 40
1.0
  9
$ATTMODE
 70
1
  9
$TEXTSIZE
 40
2.5
  9
$TRACEWID
 40
1.0
  9
$TEXTSTYLE
  7
Standard
  9
$CLAYER
  8
0
  9
$CELTYPE
  6
ByLayer
  9
$CECOLOR
 62
256
  9
$CELTSCALE
 40
1.0
  9
$DISPSILH
 70
0
  9
$DIMSCALE
 40
1.0
  9
$DIMASZ
 40
2.5
  9
$DIMEXO
 40
0.625
  9
$DIMDLI
 40
3.75
  9
$DIMRND
 40
0.0
  9
$DIMDLE
 40
0.0
  9
$DIMEXE
 40
1.25
  9
$DIMTP
 40
0.0
  9
$DIMTM
 40
0.0
  9
$DIMTXT
 40
2.5
  9
$DIMCEN
 40
2.5
  9
$DIMTSZ
 40
0.0
  9
$DIMTOL
 70
0
  9
$DIMLIM
 70
0
  9
$DIMTIH
 70
0
  9
$DIMTOH
 70
0
  9
$DIMSE1
 70
0
  9
$DIMSE2
 70
0
  9
$DIMTAD
 70
1
  9
$DIMZIN
 70
8
  9
$DIMBLK
  1

  9
$DIMASO
 70
1
  9
$DIMSHO
 70
1
  9
$DIMPOST
  1

  9
$DIMAPOST
  1

  9
$DIMALT
 70
0
  9
$DIMALTD
 70
3
  9
$DIMALTF
 40
0.03937007874
  9
$DIMLFAC
 40
1.0
  9
$DIMTOFL
 70
1
  9
$DIMTVP
 40
0.0
  9
$DIMTIX
 70
0
  9
$DIMSOXD
 70
0
  9
$DIMSAH
 70
0
  9
$DIMBLK1
  1

  9
$DIMBLK2
  1

  9
$DIMSTYLE
  2
ISO-25
  9
$DIMCLRD
 70
0
  9
$DIMCLRE
 70
0
  9
$DIMCLRT
 70
0
  9
$DIMTFAC
 40
1.0
  9
$DIMGAP
 40
0.625
  9
$DIMJUST
 70
0
  9
$DIMSD1
 70
0
  9
$DIMSD2
 70
0
  9
$DIMTOLJ
 70
0
  9
$DIMTZIN
 70
8
  9
$DIMALTZ
 70
0
  9
$DIMALTTZ
 70
0
  9
$DIMUPT
 70
0
  9
$DIMDEC
 70
2
  9
$DIMTDEC
 70
2
  9
$DIMALTU
 70
2
  9
$DIMALTTD
 70
3
  9
$DIMTXSTY
  7
Standard
  9
$DIMAUNIT
 70
0
  9
$DIMADEC
 70
0
  9
$DIMALTRND
 40
0.0
  9
$DIMAZIN
 70
0
  9
$DIMDSEP
 70
44
  9
$DIMATFIT
 70
3
  9
$DIMFRAC
 70
0
  9
$DIMLDRBLK
  1

  9
$DIMLUNIT
 70
2
  9
$DIMLWD
 70
-2
  9
$DIMLWE
 70
-2
  9
$DIMTMOVE
 70
0
  9
$DIMFXL
 40
1.0
  9
$DIMFXLON
 70
0
  9
$DIMJOGANG
 40
0.785398163397
  9
$DIMTFILL
 70
0
  9
$DIMTFILLCLR
 70
0
  9
$DIMARCSYM
 70
0
  9
$DIMLTYPE
  6

  9
$DIMLTEX1
  6

  9
$DIMLTEX2
  6

  9
$DIMTXTDIRECTION
 70
0
  9
$LUNITS
 70
2
  9
$LUPREC
 70
4
  9
$SKETCHINC
 40
1.0
  9
$FILLETRAD
 40
10.0
  9
$AUNITS
 70
0
  9
$AUPREC
 70
2
  9
$MENU
  1
.
  9
$ELEVATION
 40
0.0
  9
$PELEVATION
 40
0.0
  9
$THICKNESS
 40
0.0
  9
$LIMCHECK
 70
0
  9
$CHAMFERA
 40
0.0
  9
$CHAMFERB
 40
0.0
  9
$CHAMFERC
 40
0.0
  9
$CHAMFERD
 40
0.0
  9
$SKPOLY
 70
0
  9
$TDCREATE
 40
2461308.0635532406
  9
$TDUCREATE
 40
2458532.153996898
  9
$TDUPDATE
 40
2461308.0635532406
  9
$TDUUPDATE
 40
2458532.1544311
  9
$TDINDWG
 40
0.0
  9
$TDUSRTIMER
 40
0.0
  9
$USRTIMER
 70
1
  9
$ANGBASE
 50
0.0
  9
$ANGDIR
 70
0
  9
$PDMODE
 70
0
  9
$PDSIZE
 40
0.0
  9
$PLINEWID
 40
0.0
  9
$SPLFRAME
 70
0
  9
$SPLINETYPE
 70
6
  9
$SPLINESEGS
 70
8
  9
$HANDSEED
  5
34
  9
$SURFTAB1
 70
6
  9
$SURFTAB2
 70
6
  9
$SURFTYPE
 70
6
  9
$SURFU
 70
6
  9
$SURFV
 70
6
  9
$UCSBASE
  2

  9
$UCSNAME
  2

  9
$UCSORG
 10
0.0
 20
0.0
 30
0.0
  9
$UCSXDIR
 10
1.0
 20
0.0
 30
0.0
  9
$UCSYDIR
 10
0.0
 20
1.0
 30
0.0
  9
$UCSORTHOREF
  2

  9
$UCSORTHOVIEW
 70
0
  9
$UCSORGTOP
 10
0.0
 20
0.0
 30
0.0
  9
$UCSORGBOTTOM
 10
0.0
 20
0.0
 30
0.0
  9
$UCSORGLEFT
 10
0.0
 20
0.0
 30
0.0
  9
$UCSORGRIGHT
 10
0.0
 20
0.0
 30
0.0
  9
$UCSORGFRONT
 10
0.0
 20
0.0
 30
0.0
  9
$UCSORGBACK
 10
0.0
 20
0.0
 30
0.0
  9
$PUCSBASE
  2

  9
$PUCSNAME
  2

  9
$PUCSORG
 10
0.0
 20
0.0
 30
0.0
  9
$PUCSXDIR
 10
1.0
 20
0.0
 30
0.0
  9
$PUCSYDIR
 10
0.0
 20
1.0
 30
0.0
  9
$PUCSORTHOREF
  2

  9
$PUCSORTHOVIEW
 70
0
  9
$PUCSORGTOP
 10
0.0
 20
0.0
 30
0.0
  9
$PUCSORGBOTTOM
 10
0.0
 20
0.0
 30
0.0
  9
$PUCSORGLEFT
 10
0.0
 20
0.0
 30
0.0
  9
$PUCSORGRIGHT
 10
0.0
 20
0.0
 30
0.0
  9
$PUCSORGFRONT
 10
0.0
 20
0.0
 30
0.0
  9
$PUCSORGBACK
 10
0.0
 20
0.0
 30
0.0
  9
$USERI1
 70
0
  9
$USERI2
 70
0
  9
$USERI3
 70
0
  9
$USERI4
 70
0
  9
$USERI5
 70
0
  9
$USERR1
 40
0.0
  9
$USERR2
 40
0.0
  9
$USERR3
 40
0.0
  9
$USERR4
 40
0.0
  9
$USERR5
 40
0.0
  9
$WORLDVIEW
 70
1
  9
$SHADEDGE
 70
3
  9
$SHADEDIF
 70
70
  9
$TILEMODE
 70
1
  9
$MAXACTVP
 70
64
  9
$PINSBASE
 10
0.0
 20
0.0
 30
0.0
  9
$PLIMCHECK
 70
0
  9
$PEXTMIN
 10
1e+20
 20
1e+20
 30
1e+20
  9
$PEXTMAX
 10
-1e+20
 20
-1e+20
 30
-1e+20
  9
$PLIMMIN
 10
0.0
 20
0.0
  9
$PLIMMAX
 10
420.0
 20
297.0
  9
$UNITMODE
 70
0
  9
$VISRETAIN
 70
1
  9
$PLINEGEN
 70
0
  9
$PSLTSCALE
 70
1
  9
$TREEDEPTH
 70
3020
  9
$CMLSTYLE
  2
Standard
  9
$CMLJUST
 70
0
  9
$CMLSCALE
 40
20.0
  9
$PROXYGRAPHICS
 70
1
  9
$MEASUREMENT
 70
1
  9
$CELWEIGHT
370
-1
  9
$ENDCAPS
280
0
  9
$JOINSTYLE
280
0
  9
$LWDISPLAY
290
0
  9
$INSUNITS
 70
4
  9
$HYPERLINKBASE
  1

  9
$STYLESHEET
  1

  9
$XEDIT
290
1
  9
$CEPSNTYPE
380
0
  9
$PSTYLEMODE
290
1
  9
$FINGERPRINTGUID
  2
{CF9BB0BC-0459-4997-BE51-831688592AD8}
  9
$VERSIONGUID
  2
{D18EEC85-1D54-4089-8AE7-8167108E5F6E}
  9
$EXTNAMES
290
1
  9
$PSVPSCALE
 40
0.0
  9
$OLESTARTUP
290
0
  9
$SORTENTS
280
127
  9
$INDEXCTL
280
0
  9
$HIDETEXT
280
1
  9
$XCLIPFRAME
280
1
  9
$HALOGAP
280
0
  9
$OBSCOLOR
 70
257
  9
$OBSLTYPE
280
0
  9
$INTERSECTIONDISPLAY
280
0
  9
$INTERSECTIONCOLOR
 70
257
  9
$DIMASSOC
280
2
  9
$PROJECTNAME
  1

  9
$CAMERADISPLAY
290
0
  9
$LENSLENGTH
 40
50.0
  9
$CAMERAHEIGHT
 40
0.0
  9
$STEPSPERSEC
 40
24.0
  9
$STEPSIZE
 40
100.0
  9
$3DDWFPREC
 40
2.0
  9
$PSOLWIDTH
 40
0.005
  9
$PSOLHEIGHT
 40
0.08
  9
$LOFTANG1
 40
1.570796326795
  9
$LOFTANG2
 40
1.570796326795
  9
$LOFTMAG1
 40
0.0
  9
$LOFTMAG2
 40
0.0
  9
$LOFTPARAM
 70
7
  9
$LOFTNORMALS
280
1
  9
$LATITUDE
 40
37.795
  9
$LONGITUDE
 40
-122.394
  9
$NORTHDIRECTION
 40
0.0
  9
$TIMEZONE
 70
-8000
  9
$LIGHTGLYPHDISPLAY
280
1
  9
$TILEMODELIGHTSYNCH
280
1
  9
$CMATERIAL
347
20
  9
$SOLIDHIST
280
0
  9
$SHOWHIST
280
1
  9
$DWFFRAME
280
2
  9
$DGNFRAME
280
2
  9
$REALWORLDSCALE
290
1
  9
$INTERFERECOLOR
 62
256
  9
$CSHADOW
280
0
  9
$SHADOWPLANELOCATION
 40
0.0
  0
ENDSEC
  0
SECTION
  2
CLASSES
  0
CLASS
  1
ACDBDICTIONARYWDFLT
  2
AcDbDictionaryWithDefault
  3
ObjectDBX Classes
 90
0
 91
0
280
0
281
0
  0
CLASS
  1
SUN
  2
AcDbSun
  3
SCENEOE
 90
1153
 91
0
280
0
281
0
  0
CLASS
  1
VISUALSTYLE
  2
AcDbVisualStyle
  3
ObjectDBX Classes
 90
4095
 91
0
280
0
281
0
  0
CLASS
  1
MATERIAL
  2
AcDbMaterial
  3
ObjectDBX Classes
 90
1153
 91
0
280
0
281
0
  0
CLASS
  1
SCALE
  2
AcDbScale
  3
ObjectDBX Classes
 90
1153
 91
0
280
0
281
0
  0
CLASS
  1
TABLESTYLE
  2
AcDbTableStyle
  3
ObjectDBX Classes
 90
4095
 91
0
280
0
281
0
  0
CLASS
  1
MLEADERSTYLE
  2
AcDbMLeaderStyle
  3
ACDB_MLEADERSTYLE_CLASS
 90
4095
 91
0
280
0
281
0
  0
CLASS
  1
DICTIONARYVAR
  2
AcDbDictionaryVar
  3
ObjectDBX Classes
 90
0
 91
0
280
0
281
0
  0
CLASS
  1
CELLSTYLEMAP
  2
AcDbCellStyleMap
  3
ObjectDBX Classes
 90
1152
 91
0
280
0
281
0
  0
CLASS
  1
MENTALRAYRENDERSETTINGS
  2
AcDbMentalRayRenderSettings
  3
SCENEOE
 90
1024
 91
0
280
0
281
0
  0
CLASS
  1
ACDBDETAILVIEWSTYLE
  2
AcDbDetailViewStyle
  3
ObjectDBX Classes
 90
1025
 91
0
280
0
281
0
  0
CLASS
  1
ACDBSECTIONVIEWSTYLE
  2
AcDbSectionViewStyle
  3
ObjectDBX Classes
 90
1025
 91
0
280
0
281
0
  0
CLASS
  1
RASTERVARIABLES
  2
AcDbRasterVariables
  3
ISM
 90
0
 91
0
280
0
281
0
  0
CLASS
  1
ACDBPLACEHOLDER
  2
AcDbPlaceHolder
  3
ObjectDBX Classes
 90
0
 91
0
280
0
281
0
  0
CLASS
  1
LAYOUT
  2
AcDbLayout
  3
ObjectDBX Classes
 90
0
 91
0
280
0
281
0
  0
ENDSEC
  0
SECTION
  2
TABLES
  0
TABLE
  2
VPORT
  5
8
330
0
100
AcDbSymbolTable
 70
1
  0
VPORT
  5
23
330
8
100
AcDbSymbolTableRecord
100
AcDbViewportTableRecord
  2
*Active
 70
0
 10
0.0
 20
0.0
 11
1.0
 21
1.0
 12
0.0
 22
0.0
 13
0.0
 23
0.0
 14
0.5
 24
0.5
 15
0.5
 25
0.5
 16
0.0
 26
0.0
 36
1.0
 17
0.0
 27
0.0
 37
0.0
 40
1000.0
 41
1.34
 42
50.0
 43
0.0
 44
0.0
 50
0.0
 51
0.0
 71
0
 72
1000
 73
1
 74
3
 75
0
 76
0
 77
0
 78
0
281
0
 65
0
146
0.0
  0
ENDTAB
  0
TABLE
  2
LTYPE
  5
2
330
0
100
AcDbSymbolTable
 70
3
  0
LTYPE
  5
24
330
2
100
AcDbSymbolTableRecord
100
AcDbLinetypeTableRecord
  2
ByBlock
 70
0
  3

 72
65
 73
0
 40
0.0
  0
LTYPE
  5
25
330
2
100
AcDbSymbolTableRecord
100
AcDbLinetypeTableRecord
  2
ByLayer
 70
0
  3

 72
65
 73
0
 40
0.0
  0
LTYPE
  5
26
330
2
100
AcDbSymbolTableRecord
100
AcDbLinetypeTableRecord
  2
Continuous
 70
0
  3

 72
65
 73
0
 40
0.0
  0
ENDTAB
  0
TABLE
  2
LAYER
  5
1
330
0
100
AcDbSymbolTable
 70
2
  0
LAYER
  5
27
330
1
100
AcDbSymbolTableRecord
100
AcDbLayerTableRecord
  2
0
 70
0
 62
7
  6
Continuous
370
-3
390
13
347
21
  0
LAYER
  5
28
330
1
100
AcDbSymbolTableRecord
100
AcDbLayerTableRecord
  2
Defpoints
 70
0
 62
7
  6
Continuous
290
0
370
-3
390
13
347
21
  0
ENDTAB
  0
TABLE
  2
STYLE
  5
5
330
0
100
AcDbSymbolTable
 70
1
  0
STYLE
  5
29
330
5
100
AcDbSymbolTableRecord
100
AcDbTextStyleTableRecord
  2
Standard
 70
0
 40
0.0
 41
1.0
 50
0.0
 71
0
 42
2.5
  3
txt
  4

  0
ENDTAB
  0
TABLE
  2
VIEW
  5
7
330
0
100
AcDbSymbolTable
 70
0
  0
ENDTAB
  0
TABLE
  2
UCS
  5
6
330
0
100
AcDbSymbolTable
 70
0
  0
ENDTAB
  0
TABLE
  2
APPID
  5
3
330
0
100
AcDbSymbolTable
 70
3
  0
APPID
  5
2A
330
3
100
AcDbSymbolTableRecord
100
AcDbRegAppTableRecord
  2
ACAD
 70
0
  0
APPID
  5
31
330
3
100
AcDbSymbolTableRecord
100
AcDbRegAppTableRecord
  2
HATCHBACKGROUNDCOLOR
 70
0
  0
APPID
  5
32
330
3
100
AcDbSymbolTableRecord
100
AcDbRegAppTableRecord
  2
EZDXF
 70
0
  0
ENDTAB
  0
TABLE
  2
DIMSTYLE
  5
4
330
0
100
AcDbSymbolTable
 70
1
100
AcDbDimStyleTable
  0
DIMSTYLE
105
2B
330
4
100
AcDbSymbolTableRecord
100
AcDbDimStyleTableRecord
  2
Standard
 70
0
 40
1.0
 41
2.5
 42
0.625
 43
3.75
 44
1.25
 45
0.0
 46
0.0
 47
0.0
 48
0.0
 49
2.5
140
2.5
141
2.5
142
0.0
143
0.03937007874
144
1.0
145
0.0
146
1.0
147
0.625
148
0.0
 69
0
 70
0
 71
0
 72
0
 73
0
 74
0
 75
0
 76
0
 77
1
 78
8
 79
3
170
0
171
3
172
1
173
0
174
0
175
0
176
0
177
0
178
0
179
2
271
2
272
2
273
2
274
3
275
0
276
0
277
2
278
44
279
0
280
0
281
0
282
0
283
0
284
8
285
0
286
0
288
0
289
3
290
0
371
-2
372
-2
  0
ENDTAB
  0
TABLE
  2
BLOCK_RECORD
  5
9
330
0
100
AcDbSymbolTable
 70
2
  0
BLOCK_RECORD
  5
17
330
9
100
AcDbSymbolTableRecord
100
AcDbBlockTableRecord
  2
*Model_Space
340
1A
 70
0
280
1
281
0
  0
BLOCK_RECORD
  5
1B
330
9
100
AcDbSymbolTableRecord
100
AcDbBlockTableRecord
  2
*Paper_Space
340
1E
 70
0
280
1
281
0
  0
ENDTAB
  0
ENDSEC
  0
SECTION
  2
BLOCKS
  0
BLOCK
  5
18
330
17
100
AcDbEntity
  8
0
100
AcDbBlockBegin
  2
*Model_Space
 70
0
 10
0.0
 20
0.0
 30
0.0
  3
*Model_Space
  1

  0
ENDBLK
  5
19
330
17
100
AcDbEntity
  8
0
100
AcDbBlockEnd
  0
BLOCK
  5
1C
330
1B
100
AcDbEntity
  8
0
100
AcDbBlockBegin
  2
*Paper_Space
 70
0
 10
0.0
 20
0.0
 30
0.0
  3
*Paper_Space
  1

  0
ENDBLK
  5
1D
330
1B
100
AcDbEntity
  8
0
100
AcDbBlockEnd
  0
ENDSEC
  0
SECTION
  2
ENTITIES
  0
LWPOLYLINE
  5
2F
330
17
100
AcDbEntity
  8
0
100
AcDbPolyline
 90
305
 70
1
 10
95.644448937004
 20
34.603698172999
 10
95.644448937004
 20
36.70688158805599
 10
95.644442938546
 20
35.706881688063
 10
85.64444293854595
 20
35.706881688063
 10
85.64444293854595
 20
41.70688168806294
 10
95.644448937004
 20
41.706881588055296
 10
95.644448937004
 20
42.272201938205
 10
95.379908326686
 20
43.27575337672
 10
95.08531432409498
 20
44.293733692565
 10
94.76095442252799
 20
45.324757960199996
 10
94.407116115284
 20
46.367441254084994
 10
94.024086895659
 20
47.420398648679
 10
93.61215425694999
 20
48.482245218443
 10
93.17160569245401
 20
49.55159603783599
 10
92.70272869546899
 20
50.627066181318995
 10
92.34011135814899
 20
51.421238745226
 10
91.962894510835
 20
52.217508873022
 10
91.571335275995
 20
53.015433701127996
 10
91.165690776097
 20
53.814570365969
 10
90.74621813360599
 20
54.614476003966
 10
90.31317447099102
 20
55.414707751543
 10
89.866816910717
 20
56.214822745123996
 10
89.407402575253
 20
57.014378121130996
 10
88.935188587065
 20
57.812931015987
 10
88.450432068621
 20
58.61003856611599
 10
87.953390142386
 20
59.405257907941
 10
87.444319930829
 20
60.198146177884
 10
86.923478556416
 20
60.988260512368996
 10
86.391123141615
 20
61.77515804782
 10
85.847510808892
 20
62.558395920658
 10
85.29289868071399
 20
63.337531267307
 10
84.72754387954899
 20
64.112121224191
 10
84.151703527864
 20
64.881722927732
 10
83.565634748124
 20
65.645893514354
 10
82.969594662799
 20
66.404190120479
 10
82.36384039435401
 20
67.156169882531
 10
81.748629065257
 20
67.901389936933
 10
81.124217797974
 20
68.639407420108
 10
80.49086371497299
 20
69.369779468479
 10
79.848823938721
 20
70.092063218469
 10
79.19835559168499
 20
70.80581580650198
 10
78.539715796331
 20
71.51059436899999
 10
77.873161675127
 20
72.20595604238599
 10
77.19895035054
 20
72.891457963084
 10
76.517338945037
 20
73.566657267517
 10
75.82858458108498
 20
74.231111092107
 10
75.13294438115099
 20
74.88437657327799
 10
74.08466024423
 20
75.835696556394
 10
73.02286968223498
 20
76.759842136148
 10
71.94860722305499
 20
77.65563317232099
 10
70.86290739458099
 20
78.52188952469399
 10
69.766804724703
 20
79.357431053048
 10
68.661333741312
 20
80.161077617164
 10
67.54752897229798
 20
80.931649076822
 10
66.42642494555199
 20
81.667965291804
 10
65.299056188964
 20
82.36884612189
 10
64.166457230425
 20
83.03311142686
 10
63.02966259782599
 20
83.659581066497
 10
61.88970681905499
 20
84.24707490058
 10
60.747624422004996
 20
84.794412788891
 10
59.604449934566
 20
85.30041459121
 10
58.461217884627
 20
85.76390016731801
 10
57.88990356368699
 20
85.97933057672499
 10
57.318962800079994
 20
86.183689376996
 10
56.716331128656996
 20
86.387517638825
 10
56.114511529156
 20
86.578892245105
 10
55.513589572613995
 20
86.75771708366099
 10
54.91365083006899
 20
86.923896042322
 10
54.314780872555
 20
87.07733300891199
 10
53.717065271109995
 20
87.21793187125999
 10
53.120589596771
 20
87.34559651718999
 10
52.525439420573996
 20
87.46023083453099
 10
51.931700313555
 20
87.561738711109
 10
51.339457846750996
 20
87.65002403474999
 10
50.748797591199995
 20
87.724990693281
 10
50.159805117935996
 20
87.786542574528
 10
49.572565997996996
 20
87.834583566319
 10
48.987165802419995
 20
87.86901755647901
 10
48.403690102241
 20
87.889748432836
 10
47.82222446849584
 20
87.896680083215
 10
47.240758834751
 20
87.88974843283602
 10
46.657283134572
 20
87.86901755647901
 10
46.07188293899499
 20
87.834583566319
 10
45.48464381905699
 20
87.786542574529
 10
44.89565134579399
 20
87.724990693281
 10
44.304991090242
 20
87.650024034751
 10
43.712748623439
 20
87.56173871111001
 10
43.119009516420995
 20
87.46023083453201
 10
42.52385934022399
 20
87.345596517192
 10
41.927383665884996
 20
87.217931871261
 10
41.329668064440995
 20
87.07733300891401
 10
40.73079810692799
 20
86.92389604232301
 10
40.13085936438199
 20
86.75771708366301
 10
39.529937407841004
 20
86.578892245107
 10
38.92811780834099
 20
86.38751763882699
 10
38.325486136918
 20
86.18368937699799
 10
37.75454537331999
 20
85.979330576727
 10
37.183231052379995
 20
85.76390016732
 10
36.03999900243999
 20
85.30041459121298
 10
34.89682451499999
 20
84.79441278889401
 10
33.75474211795
 20
84.24707490058401
 10
32.61478633918
 20
83.659581066502
 10
31.477991706579996
 20
83.03311142686599
 10
30.345392748039995
 20
82.36884612189499
 10
29.218023991459994
 20
81.66796529180999
 10
28.096919964709993
 20
80.931649076829
 10
26.983115195699995
 20
80.161077617171
 10
25.877644212309995
 20
79.357431053056
 10
24.781541542429995
 20
78.521889524703
 10
23.695841713959993
 20
77.65563317233001
 10
22.621579254779995
 20
76.759842136157
 10
21.559788692779993
 20
75.835696556403
 10
20.511504555859993
 20
74.88437657328801
 10
19.815864355929993
 20
74.23111109211601
 10
19.127109991969995
 20
73.566657267526
 10
18.445498586469995
 20
72.891457963093
 10
17.771287261879994
 20
72.205956042395
 10
17.104733140679993
 20
71.510594369009
 10
16.446093345329995
 20
70.80581580651099
 10
15.795624998289995
 20
70.09206321847799
 10
15.15358522204
 20
69.369779468488
 10
14.52023113904
 20
68.639407420116
 10
13.89581987175
 20
67.90138993694099
 10
13.28060854265
 20
67.156169882539
 10
12.674854274209999
 20
66.40419012048699
 10
12.078814188879996
 20
65.64589351436099
 10
11.49274540914
 20
64.88172292773899
 10
10.91690505746
 20
64.112121224197
 10
10.351550256289997
 20
63.337531267313
 10
9.79693812811
 20
62.558395920662996
 10
9.253325795389998
 20
61.775158047824995
 10
8.720970380589996
 20
60.988260512374
 10
8.20012900618
 20
60.198146177889
 10
7.691058794619998
 20
59.405257907945
 10
7.194016868379997
 20
58.61003856612
 10
6.709260349939996
 20
57.812931015991
 10
6.2370463617499965
 20
57.014378121134996
 10
5.77763202629
 20
56.214822745128
 10
5.331274466010001
 20
55.414707751547
 10
4.898230803399997
 20
54.614476003968996
 10
4.478758160909997
 20
53.814570365971996
 10
4.073113661009998
 20
53.015433701132
 10
3.6815544261699955
 20
52.217508873026
 10
3.304337578849996
 20
51.42123874522999
 10
2.9417202415299997
 20
50.627066181322995
 10
2.472843244549999
 20
49.551596037840994
 10
2.0322946800500006
 20
48.482245218450004
 10
1.6203620413399946
 20
47.42039864868799
 10
1.2373328217199955
 20
46.36744125409599
 10
0.8834945144799988
 20
45.324757960214995
 10
0.5591346129100003
 20
44.293733692583
 10
0.2645406103199975
 20
43.275753376742
 10
-3.0735799344983286e-94
 20
42.272201938231
 10
-3.0735799344983286e-94
 20
41.70688158805675
 10
9.999999999989996
 20
41.70688158805629
 10
9.999994668029998
 20
35.706881688062914
 10
-3.0735799344983286e-94
 20
35.70688168806289
 10
-3.0735799344983286e-94
 20
34.603698172987
 10
0.017453721829994606
 20
33.943366125207
 10
0.06976614613999743
 20
33.284878117728
 10
0.15679118546999857
 20
32.63007304119
 10
0.2782858141099993
 20
31.9807795013
 10
0.4339107466899961
 20
31.338810712269996
 10
0.6232313857399987
 20
30.705959433249998
 10
0.8457190352899957
 20
30.083992961859998
 10
1.1007523773199992
 20
29.474648198869996
 10
1.4669317241999948
 20
28.679489894519996
 10
1.8469716206999962
 20
27.890862149549996
 10
2.240755647839997
 20
27.109006547129994
 10
2.648163176349996
 20
26.33416259588
 10
3.0690694036199986
 20
25.566567656539995
 10
3.5033453919399946
 20
24.806456869189997
 10
3.9508581079799967
 20
24.054063081309998
 10
4.41147046359
 20
23.309616776379997
 10
4.885041357719999
 20
22.573346003289995
 10
5.371425719709997
 20
21.845476306519995
 10
5.870474553689995
 20
21.126230656989996
 10
6.382034984249998
 20
20.415829383799995
 10
6.905950303239997
 20
19.714490106709995
 10
7.442060017819998
 20
19.022427669499997
 10
7.9901998995799985
 20
18.339854074119998
 10
8.550202034849995
 20
17.666978415809997
 10
9.121894876189998
 20
17.004006818959997
 10
9.70510329487
 20
16.351142374039995
 10
10.299648634579995
 20
15.708585075349998
 10
10.905348766099998
 20
15.076531759759995
 10
11.522018143159997
 20
14.455176046449996
 10
12.149467859199994
 20
13.844708277519995
 10
12.787505705320001
 20
13.245315459759997
 10
13.435936229089997
 20
12.657181207309996
 10
14.094560794479996
 20
12.080485685439996
 10
14.76317764265
 20
11.515405555359997
 10
15.441581953810001
 20
10.962113920089998
 10
16.129565909949996
 20
10.420780271439995
 10
16.826918758469994
 20
9.891570438079995
 10
17.533426876779995
 20
9.374646534749996
 10
18.248873837709993
 20
8.870166912610003
 10
18.973040475849995
 20
8.37828611071
 10
19.705704954619993
 20
7.899154808639999
 10
20.446642834289996
 20
7.432919780429998
 10
21.195627140709995
 20
6.979723849510002
 10
21.952428434839995
 20
6.539705845020002
 10
22.716814883019993
 20
6.113000559249997
 10
23.488552328009995
 20
5.699738706360002
 10
24.267404360729994
 20
5.300046882330001
 10
25.053132392639995
 20
4.9140475261899965
 10
25.845495728849993
 20
4.5418588825000015
 10
26.644251641869996
 20
4.183594965140003
 10
27.449155445939994
 20
3.839365522389997
 10
28.259960571999994
 20
3.50927600328
 10
29.076418643199993
 20
3.1934275253099997
 10
29.898279551029994
 20
2.891916843479997
 10
30.725291531879993
 20
2.604836320639997
 10
31.557201244219993
 20
2.3322738991899996
 10
32.393753846159996
 20
2.0743130741600027
 10
33.23469307354999
 20
1.8310328676000012
 10
34.079761318459994
 20
1.60250780442
 10
34.92869970811999
 20
1.388807889509998
 10
35.781248184179994
 20
1.1899985863400033
 10
36.637145582429994
 20
1.0061407968699996
 10
37.496129712729996
 20
0.8372908429199981
 10
38.357937439412
 20
0.6835004488999985
 10
39.22230476182699
 20
0.544816725959997
 10
40.08896689523599
 20
0.42128215759999676
 10
40.95765835192499
 20
0.3129345865899964
 10
41.828113022527994
 20
0.2198072034399985
 10
42.70006425754799
 20
0.14192853619999823
 10
43.573244949042994
 20
0.07932244170000047
 10
44.447387612442995
 20
0.03200809831000129
 10
45.322224468495996
 20
0.0
 10
45.322224468495996
 20
7.492935399250001
 10
50.322224468495996
 20
7.492935399250001
 10
50.322224468495925
 20
0.0
 10
50.759712925132
 20
0.014090045759999725
 10
51.19706132454899
 20
0.03200809831000129
 10
52.07120398794899
 20
0.07932244170000047
 10
52.94438467944399
 20
0.14192853619999823
 10
53.81633591446499
 20
0.2198072034399985
 10
54.686790585067996
 20
0.3129345865899964
 10
55.555482041756996
 20
0.42128215759999676
 10
56.422144175167
 20
0.544816725959997
 10
57.286511497582
 20
0.6835004488999985
 10
58.148319224266
 20
0.8372908429199981
 10
59.007303354571995
 20
1.006140796879997
 10
59.863200752813995
 20
1.1899985863400033
 10
60.71574922887899
 20
1.3888078895200024
 10
61.564687618537
 20
1.60250780442
 10
62.40975586345299
 20
1.8310328676000012
 10
63.250695090842996
 20
2.0743130741600027
 10
64.08724769278399
 20
2.332273899199997
 10
64.91915740512098
 20
2.604836320639997
 10
65.74616938597299
 20
2.8919168434900016
 10
66.56803029379799
 20
3.1934275253099997
 10
67.38448836500099
 20
3.50927600328
 10
68.19529349105699
 20
3.839365522389997
 10
69.00019729512799
 20
4.18359496515
 10
69.79895320815099
 20
4.5418588825000015
 10
70.59131654436399
 20
4.9140475261899965
 10
71.37704457627099
 20
5.300046882339998
 10
72.155896608989
 20
5.699738706369999
 10
72.927634053986
 20
6.113000559260001
 10
73.692020502167
 20
6.539705845029999
 10
74.44882179629398
 20
6.979723849519999
 10
75.19780610271599
 20
7.4329197804400025
 10
75.938743982388
 20
7.899154808650003
 10
76.67140846115699
 20
8.37828611071
 10
77.395575099289
 20
8.87016691262
 10
78.11102206022498
 20
9.374646534759993
 10
78.81753017853399
 20
9.891570438089996
 10
79.51488302705499
 20
10.420780271449996
 10
80.20286698319299
 20
10.962113920099995
 10
80.88127129435802
 20
11.515405555369995
 10
81.549888142528
 20
12.080485685449997
 10
82.208512707911
 20
12.657181207319997
 10
82.856943231684
 20
13.245315459769998
 10
83.494981077802
 20
13.844708277529996
 10
84.122430793848
 20
14.455176046459997
 10
84.73910017090301
 20
15.076531759779996
 10
85.34480030242901
 20
15.708585075359995
 10
85.939345642135
 20
16.351142374049996
 10
86.522554060818
 20
17.004006818969998
 10
87.094246902154
 20
17.666978415819997
 10
87.65424903742898
 20
18.339854074139996
 10
88.202388919183
 20
19.022427669509998
 10
88.738498633763
 20
19.714490106719996
 10
89.26241395276
 20
20.415829383809996
 10
89.773974383318
 20
21.126230656999997
 10
90.273023217299
 20
21.845476306529996
 10
90.759407579286
 20
22.573346003309997
 10
91.23297847341598
 20
23.309616776389998
 10
91.693590829021
 20
24.054063081329996
 10
92.141103545068
 20
24.806456869209995
 10
92.57537953338598
 20
25.566567656549996
 10
92.99628576065399
 20
26.334162595899997
 10
93.40369328916199
 20
27.109006547149995
 10
93.79747731630101
 20
27.890862149569998
 10
94.177517212801
 20
28.679489894539994
 10
94.54369655968
 20
29.474648198889994
 10
94.79872990172
 20
30.083992961879996
 10
95.021217551267
 20
30.705959433269996
 10
95.21053819031499
 20
31.338810712289995
 10
95.3661631229
 20
31.980779501314
 10
95.487657751536
 20
32.63007304120399
 10
95.574682790872
 20
33.284878117740995
 10
95.626995215175
 20
33.943366125219995
  0
LWPOLYLINE
  5
30
330
17
100
AcDbEntity
  8
0
100
AcDbPolyline
 90
127
 70
1
 10
16.568849766219994
 20
22.182163481499995
 10
15.822224468499996
 20
23.013751327849995
 10
15.822224468499996
 20
55.395824008009996
 10
16.551054563489995
 20
56.48929493829999
 10
17.305324306729993
 20
57.577165573861
 10
18.083843331059995
 20
58.657226037423
 10
18.885421269289996
 20
59.727266451712
 10
19.708867754239993
 20
60.785076939456
 10
20.552992418749994
 20
61.828447623382
 10
21.416604895619994
 20
62.855168626219
 10
22.298514817689995
 20
63.863030070693995
 10
23.352734268499994
 20
65.017182746665
 10
24.427300617729994
 20
66.140412832328
 10
25.038148891409993
 20
66.755888562092
 10
25.654203300279995
 20
67.360140142173
 10
26.479042821029996
 20
68.143767305903
 10
26.627721979989992
 20
68.28196152872098
 10
27.221418360199994
 20
68.82433689670499
 10
27.819169030619996
 20
69.355373788925
 10
28.420482187649995
 20
69.87478007359499
 10
29.024866027679995
 20
70.38226361892899
 10
29.631828747099995
 20
70.877532293142
 10
30.240878542289995
 20
71.360293964447
 10
30.851523609659996
 20
71.830256501057
 10
31.463272145579992
 20
72.287127771187
 10
32.600954436159995
 20
73.100102935083
 10
33.73759234684999
 20
73.865022698673
 10
34.870031557539996
 20
74.58001771472799
 10
35.433690925369994
 20
74.918209271423
 10
35.99511774815999
 20
75.243218636024
 10
36.80875269764999
 20
75.69291978481
 10
37.61558383360999
 20
76.11338771132299
 10
38.41439000542199
 20
76.50390011665499
 10
39.203950062451995
 20
76.86373470189699
 10
40.09765777277199
 20
77.239068890901
 10
40.960268818336
 20
77.568693755517
 10
41.372894196410996
 20
77.71464567705598
 10
41.94791740012499
 20
77.905230219273
 10
42.513488338898995
 20
78.077893092518
 10
43.07700983756399
 20
78.234962270311
 10
43.631031377194994
 20
78.37441492965299
 10
44.188673904599995
 20
78.499359760696
 10
44.73653712392699
 20
78.60658668913399
 10
45.279056500554994
 20
78.697118331438
 10
45.81179084980499
 20
78.77035113564901
 10
46.34430338321499
 20
78.827492873197
 10
46.866791250770994
 20
78.867368157985
 10
47.348902834610996
 20
78.889392304495
 10
47.82222446849584
 20
78.89668008321502
 10
48.295546102399
 20
78.88939230449401
 10
48.77765768625899
 20
78.86736815798301
 10
49.300145553807994
 20
78.82749287319498
 10
49.832658087210994
 20
78.77035113564601
 10
50.36539243646
 20
78.697118331434
 10
50.907911813085995
 20
78.60658668912998
 10
51.455775032416994
 20
78.49935976069101
 10
52.013417559825996
 20
78.374414929646
 10
52.567439099443995
 20
78.23496227030701
 10
53.130960598095996
 20
78.077893092517
 10
53.69653153686899
 20
77.905230219272
 10
54.271554740582
 20
77.71464567705502
 10
54.684180118667996
 20
77.56869375551301
 10
55.54679116429299
 20
77.23906889087002
 10
56.440498874549
 20
76.86373470189301
 10
57.230058932083
 20
76.503900116413
 10
58.028865104415
 20
76.113387710804
 10
58.835696240907
 20
75.69291978397601
 10
59.649331190919
 20
75.243218634841
 10
60.210758013588
 20
74.918209270269
 10
60.77441738128599
 20
74.580017713611
 10
61.906856591723994
 20
73.865022697648
 10
63.04349450214299
 20
73.10010293417899
 10
64.18117679245299
 20
72.28712777042699
 10
64.792925328247
 20
71.83025650037101
 10
65.403570395482
 20
71.36029396384099
 10
66.01262019054899
 20
70.877532292622
 10
66.61958290983699
 20
70.382263618501
 10
67.22396674973798
 20
69.874780073263
 10
67.82527990664099
 20
69.355373788695
 10
68.42303057693799
 20
68.824336896582
 10
69.01672695701899
 20
68.28196152871
 10
69.16540611739498
 20
68.143767304566
 10
69.99024563776999
 20
67.360140141154
 10
70.606300046118
 20
66.755888561571
 10
71.21714831927
 20
66.140412832323
 10
72.29171466849999
 20
65.017182746666
 10
73.34593411930399
 20
63.8630300707
 10
74.227844041372
 20
62.85516862622399
 10
75.09145651824599
 20
61.82844762338699
 10
75.93558118275
 20
60.785076939459
 10
76.759027667706
 20
59.727266451714
 10
77.560605605937
 20
58.657226037423996
 10
78.33912463026299
 20
57.577165573862
 10
79.09339437350799
 20
56.4892949383
 10
79.82222446849599
 20
55.395824008009
 10
79.82222446849998
 20
23.013751327859996
 10
79.07559917077899
 20
22.182163481509996
 10
78.306595189523
 20
21.371225408529995
 10
77.51578341491799
 20
20.581539129969997
 10
76.70375092673099
 20
19.813690890069996
 10
75.87110055848399
 20
19.068250720999995
 10
75.01845044991899
 20
18.345772019749997
 10
74.14643358810599
 20
17.646791137239997
 10
73.25569733753099
 20
16.971826980189995
 10
72.346902959509
 20
16.321380625849997
 10
71.42072512127399
 20
15.695934950069997
 10
70.477851395128
 20
15.095954268759996
 10
69.51898174800098
 20
14.521883993259998
 10
68.544828021811
 20
13.974150299619996
 10
67.556113405012
 20
13.453159812259997
 10
66.553571895717
 20
12.959299302049995
 10
65.53794775678999
 20
12.492935399259995
 10
30.106501180249992
 20
12.492935399239997
 10
29.090877041319995
 20
12.959299302029997
 10
28.088335532019993
 20
13.453159812229995
 10
27.099620915219994
 20
13.974150299599998
 10
26.125467189029994
 20
14.521883993239996
 10
25.166597541899993
 20
15.095954268739995
 10
24.223723815749995
 20
15.695934950039998
 10
23.297545977509994
 20
16.321380625829995
 10
22.388751599489993
 20
16.971826980169997
 10
21.498015348909995
 20
17.646791137229997
 10
20.625998487099995
 20
18.345772019729996
 10
19.773348378529995
 20
19.068250720989997
 10
18.940698010279995
 20
19.813690890049998
 10
18.128665522089996
 20
20.581539129959996
 10
17.337853747479993
 20
21.371225408519997
  0
ENDSEC
  0
SECTION
  2
OBJECTS
  0
DICTIONARY
  5
A
330
0
100
AcDbDictionary
281
1
  3
ACAD_COLOR
350
B
  3
ACAD_GROUP
350
C
  3
ACAD_LAYOUT
350
D
  3
ACAD_MATERIAL
350
E
  3
ACAD_MLEADERSTYLE
350
F
  3
ACAD_MLINESTYLE
350
10
  3
ACAD_PLOTSETTINGS
350
11
  3
ACAD_PLOTSTYLENAME
350
12
  3
ACAD_SCALELIST
350
14
  3
ACAD_TABLESTYLE
350
15
  3
ACAD_VISUALSTYLE
350
16
  3
EZDXF_META
350
2D
  0
DICTIONARY
  5
B
330
A
100
AcDbDictionary
281
1
  0
DICTIONARY
  5
C
330
A
100
AcDbDictionary
281
1
  0
DICTIONARY
  5
D
330
A
100
AcDbDictionary
281
1
  3
Model
350
1A
  3
Layout1
350
1E
  0
DICTIONARY
  5
E
330
A
100
AcDbDictionary
281
1
  3
ByBlock
350
1F
  3
ByLayer
350
20
  3
Global
350
21
  0
DICTIONARY
  5
F
330
A
100
AcDbDictionary
281
1
  3
Standard
350
2C
  0
DICTIONARY
  5
10
330
A
100
AcDbDictionary
281
1
  3
Standard
350
22
  0
DICTIONARY
  5
11
330
A
100
AcDbDictionary
281
1
  0
ACDBDICTIONARYWDFLT
  5
12
330
A
100
AcDbDictionary
281
1
  3
Normal
350
13
100
AcDbDictionaryWithDefault
340
13
  0
ACDBPLACEHOLDER
  5
13
330
12
  0
DICTIONARY
  5
14
330
A
100
AcDbDictionary
281
1
  0
DICTIONARY
  5
15
330
A
100
AcDbDictionary
281
1
  0
DICTIONARY
  5
16
330
A
100
AcDbDictionary
281
1
  0
LAYOUT
  5
1A
330
D
100
AcDbPlotSettings
  1

  4
A3
  6

 40
7.5
 41
20.0
 42
7.5
 43
20.0
 44
420.0
 45
297.0
 46
0.0
 47
0.0
 48
0.0
 49
0.0
140
0.0
141
0.0
142
1.0
143
1.0
 70
1024
 72
1
 73
0
 74
5
  7

 75
16
 76
0
 77
2
 78
300
147
1.0
148
0.0
149
0.0
100
AcDbLayout
  1
Model
 70
1
 71
0
 10
0.0
 20
0.0
 11
420.0
 21
297.0
 12
0.0
 22
0.0
 32
0.0
 14
1e+20
 24
1e+20
 34
1e+20
 15
-1e+20
 25
-1e+20
 35
-1e+20
146
0.0
 13
0.0
 23
0.0
 33
0.0
 16
1.0
 26
0.0
 36
0.0
 17
0.0
 27
1.0
 37
0.0
 76
1
330
17
  0
LAYOUT
  5
1E
330
D
100
AcDbPlotSettings
  1

  4
A3
  6

 40
7.5
 41
20.0
 42
7.5
 43
20.0
 44
420.0
 45
297.0
 46
0.0
 47
0.0
 48
0.0
 49
0.0
140
0.0
141
0.0
142
1.0
143
1.0
 70
0
 72
1
 73
0
 74
5
  7

 75
16
 76
0
 77
2
 78
300
147
1.0
148
0.0
149
0.0
100
AcDbLayout
  1
Layout1
 70
1
 71
1
 10
0.0
 20
0.0
 11
420.0
 21
297.0
 12
0.0
 22
0.0
 32
0.0
 14
1e+20
 24
1e+20
 34
1e+20
 15
-1e+20
 25
-1e+20
 35
-1e+20
146
0.0
 13
0.0
 23
0.0
 33
0.0
 16
1.0
 26
0.0
 36
0.0
 17
0.0
 27
1.0
 37
0.0
 76
1
330
1B
  0
MATERIAL
  5
1F
102
{ACAD_REACTORS
330
E
102
}
330
E
100
AcDbMaterial
  1
ByBlock
  2

 70
0
 40
1.0
 71
1
 41
1.0
 91
-1023410177
 42
1.0
 72
1
  3

 73
1
 74
1
 75
1
 44
0.5
 73
0
 45
1.0
 46
1.0
 77
1
  4

 78
1
 79
1
170
1
 48
1.0
171
1
  6

172
1
173
1
174
1
140
1.0
141
1.0
175
1
  7

176
1
177
1
178
1
143
1.0
179
1
  8

270
1
271
1
272
1
145
1.0
146
1.0
273
1
  9

274
1
275
1
276
1
 42
1.0
 72
1
  3

 73
1
 74
1
 75
1
 94
63
  0
MATERIAL
  5
20
102
{ACAD_REACTORS
330
E
102
}
330
E
100
AcDbMaterial
  1
ByLayer
  2

 70
0
 40
1.0
 71
1
 41
1.0
 91
-1023410177
 42
1.0
 72
1
  3

 73
1
 74
1
 75
1
 44
0.5
 73
0
 45
1.0
 46
1.0
 77
1
  4

 78
1
 79
1
170
1
 48
1.0
171
1
  6

172
1
173
1
174
1
140
1.0
141
1.0
175
1
  7

176
1
177
1
178
1
143
1.0
179
1
  8

270
1
271
1
272
1
145
1.0
146
1.0
273
1
  9

274
1
275
1
276
1
 42
1.0
 72
1
  3

 73
1
 74
1
 75
1
 94
63
  0
MATERIAL
  5
21
102
{ACAD_REACTORS
330
E
102
}
330
E
100
AcDbMaterial
  1
Global
  2

 70
0
 40
1.0
 71
1
 41
1.0
 91
-1023410177
 42
1.0
 72
1
  3

 73
1
 74
1
 75
1
 44
0.5
 73
0
 45
1.0
 46
1.0
 77
1
  4

 78
1
 79
1
170
1
 48
1.0
171
1
  6

172
1
173
1
174
1
140
1.0
141
1.0
175
1
  7

176
1
177
1
178
1
143
1.0
179
1
  8

270
1
271
1
272
1
145
1.0
146
1.0
273
1
  9

274
1
275
1
276
1
 42
1.0
 72
1
  3

 73
1
 74
1
 75
1
 94
63
  0
MLINESTYLE
  5
22
102
{ACAD_REACTORS
330
10
102
}
330
10
100
AcDbMlineStyle
  2
Standard
 70
0
  3

 62
256
 51
90.0
 52
90.0
 71
2
 49
0.5
 62
256
  6
BYLAYER
 49
-0.5
 62
256
  6
BYLAYER
  0
MLEADERSTYLE
  5
2C
102
{ACAD_REACTORS
330
F
102
}
330
F
100
AcDbMLeaderStyle
179
2
170
2
171
1
172
0
 90
2
 40
0.0
 41
0.0
173
1
 91
-1056964608
 92
-2
290
1
 42
2.0
291
1
 43
8.0
  3
Standard
 44
4.0
300

342
29
174
1
175
1
176
0
178
1
 93
-1056964608
 45
4.0
292
0
297
0
 46
4.0
 94
-1056964608
 47
1.0
 49
1.0
140
1.0
294
1
141
0.0
177
0
142
1.0
295
0
296
0
143
3.75
271
0
272
9
273
9
  0
DICTIONARY
  5
2D
330
A
100
AcDbDictionary
280
1
281
1
  3
CREATED_BY_EZDXF
350
2E
  3
WRITTEN_BY_EZDXF
350
33
  0
DICTIONARYVAR
  5
2E
330
2D
100
DictionaryVariables
280
0
  1
1.4.4 @ 2026-09-23T20:01:31.993080+00:00
  0
DICTIONARYVAR
  5
33
330
2D
100
DictionaryVariables
280
0
  1
1.4.4 @ 2026-09-23T20:01:31.999071+00:00
  0
ENDSEC
  0
EOF
