  0
SECTION
  2
HEADER
  9
$ACADVER
  1
AC1027
  9
$ACADMAINTVER
 70
105
  9
$DWGCODEPAGE
  3
ANSI_1252
  9
$LASTSAVEDBY
  1
ezdxf
  9
$REQUIREDVERSIONS
160
0
  9
$INSBASE
 10
0.0
 20
0.0
 30
0.0
  9
$EXTMIN
 10
1e+20
 20
1e+20
 30
1e+20
  9
$EXTMAX
 10
-1e+20
 20
-1e+20
 30
-1e+20
  9
$LIMMIN
 10
0.0
 20
0.0
  9
$LIMMAX
 10
420.0
 20
297.0
  9
$ORTHOMODE
 70
0
  9
$REGENMODE
 70
1
  9
$FILLMODE
 70
1
  9
$QTEXTMODE
 70
0
  9
$MIRRTEXT
 70
1
  9
$LTSCALE
 40
1.0
  9
$ATTMODE
 70
1
  9
$TEXTSIZE
 40
2.5
  9
$TRACEWID
 40
1.0
  9
$TEXTSTYLE
  7
Standard
  9
$CLAYER
  8
0
  9
$CELTYPE
  6
ByLayer
  9
$CECOLOR
 62
256
  9
$CELTSCALE
 40
1.0
  9
$DISPSILH
 70
0
  9
$DIMSCALE
 40
1.0
  9
$DIMASZ
 40
2.5
  9
$DIMEXO
 40
0.625
  9
$DIMDLI
 40
3.75
  9
$DIMRND
 40
0.0
  9
$DIMDLE
 40
0.0
  9
$DIMEXE
 40
1.25
  9
$DIMTP
 40
0.0
  9
$DIMTM
 40
0.0
  9
$DIMTXT
 40
2.5
  9
$DIMCEN
 40
2.5
  9
$DIMTSZ
 40
0.0
  9
$DIMTOL
 70
0
  9
$DIMLIM
 70
0
  9
$DIMTIH
 70
0
  9
$DIMTOH
 70
0
  9
$DIMSE1
 70
0
  9
$DIMSE2
 70
0
  9
$DIMTAD
 70
1
  9
$DIMZIN
 70
8
  9
$DIMBLK
  1

  9
$DIMASO
 70
1
  9
$DIMSHO
 70
1
  9
$DIMPOST
  1

  9
$DIMAPOST
  1

  9
$DIMALT
 70
0
  9
$DIMALTD
 70
3
  9
$DIMALTF
 40
0.03937007874
  9
$DIMLFAC
 40
1.0
  9
$DIMTOFL
 70
1
  9
$DIMTVP
 40
0.0
  9
$DIMTIX
 70
0
  9
$DIMSOXD
 70
0
  9
$DIMSAH
 70
0
  9
$DIMBLK1
  1

  9
$DIMBLK2
  1

  9
$DIMSTYLE
  2
ISO-25
  9
$DIMCLRD
 70
0
  9
$DIMCLRE
 70
0
  9
$DIMCLRT
 70
0
  9
$DIMTFAC
 40
1.0
  9
$DIMGAP
 40
0.625
  9
$DIMJUST
 70
0
  9
$DIMSD1
 70
0
  9
$DIMSD2
 70
0
  9
$DIMTOLJ
 70
0
  9
$DIMTZIN
 70
8
  9
$DIMALTZ
 70
0
  9
$DIMALTTZ
 70
0
  9
$DIMUPT
 70
0
  9
$DIMDEC
 70
2
  9
$DIMTDEC
 70
2
  9
$DIMALTU
 70
2
  9
$DIMALTTD
 70
3
  9
$DIMTXSTY
  7
Standard
  9
$DIMAUNIT
 70
0
  9
$DIMADEC
 70
0
  9
$DIMALTRND
 40
0.0
  9
$DIMAZIN
 70
0
  9
$DIMDSEP
 70
44
  9
$DIMATFIT
 70
3
  9
$DIMFRAC
 70
0
  9
$DIMLDRBLK
  1

  9
$DIMLUNIT
 70
2
  9
$DIMLWD
 70
-2
  9
$DIMLWE
 70
-2
  9
$DIMTMOVE
 70
0
  9
$DIMFXL
 40
1.0
  9
$DIMFXLON
 70
0
  9
$DIMJOGANG
 40
0.785398163397
  9
$DIMTFILL
 70
0
  9
$DIMTFILLCLR
 70
0
  9
$DIMARCSYM
 70
0
  9
$DIMLTYPE
  6

  9
$DIMLTEX1
  6

  9
$DIMLTEX2
  6

  9
$DIMTXTDIRECTION
 70
0
  9
$LUNITS
 70
2
  9
$LUPREC
 70
4
  9
$SKETCHINC
 40
1.0
  9
$FILLETRAD
 40
10.0
  9
$AUNITS
 70
0
  9
$AUPREC
 70
2
  9
$MENU
  1
.
  9
$ELEVATION
 40
0.0
  9
$PELEVATION
 40
0.0
  9
$THICKNESS
 40
0.0
  9
$LIMCHECK
 70
0
  9
$CHAMFERA
 40
0.0
  9
$CHAMFERB
 40
0.0
  9
$CHAMFERC
 40
0.0
  9
$CHAMFERD
 40
0.0
  9
$SKPOLY
 70
0
  9
$TDCREATE
 40
2461316.7063194443
  9
$TDUCREATE
 40
2458532.153996898
  9
$TDUPDATE
 40
2461316.7063194443
  9
$TDUUPDATE
 40
2458532.1544311
  9
$TDINDWG
 40
0.0
  9
$TDUSRTIMER
 40
0.0
  9
$USRTIMER
 70
1
  9
$ANGBASE
 50
0.0
  9
$ANGDIR
 70
0
  9
$PDMODE
 70
0
  9
$PDSIZE
 40
0.0
  9
$PLINEWID
 40
0.0
  9
$SPLFRAME
 70
0
  9
$SPLINETYPE
 70
6
  9
$SPLINESEGS
 70
8
  9
$HANDSEED
  5
B9
  9
$SURFTAB1
 70
6
  9
$SURFTAB2
 70
6
  9
$SURFTYPE
 70
6
  9
$SURFU
 70
6
  9
$SURFV
 70
6
  9
$UCSBASE
  2

  9
$UCSNAME
  2

  9
$UCSORG
 10
0.0
 20
0.0
 30
0.0
  9
$UCSXDIR
 10
1.0
 20
0.0
 30
0.0
  9
$UCSYDIR
 10
0.0
 20
1.0
 30
0.0
  9
$UCSORTHOREF
  2

  9
$UCSORTHOVIEW
 70
0
  9
$UCSORGTOP
 10
0.0
 20
0.0
 30
0.0
  9
$UCSORGBOTTOM
 10
0.0
 20
0.0
 30
0.0
  9
$UCSORGLEFT
 10
0.0
 20
0.0
 30
0.0
  9
$UCSORGRIGHT
 10
0.0
 20
0.0
 30
0.0
  9
$UCSORGFRONT
 10
0.0
 20
0.0
 30
0.0
  9
$UCSORGBACK
 10
0.0
 20
0.0
 30
0.0
  9
$PUCSBASE
  2

  9
$PUCSNAME
  2

  9
$PUCSORG
 10
0.0
 20
0.0
 30
0.0
  9
$PUCSXDIR
 10
1.0
 20
0.0
 30
0.0
  9
$PUCSYDIR
 10
0.0
 20
1.0
 30
0.0
  9
$PUCSORTHOREF
  2

  9
$PUCSORTHOVIEW
 70
0
  9
$PUCSORGTOP
 10
0.0
 20
0.0
 30
0.0
  9
$PUCSORGBOTTOM
 10
0.0
 20
0.0
 30
0.0
  9
$PUCSORGLEFT
 10
0.0
 20
0.0
 30
0.0
  9
$PUCSORGRIGHT
 10
0.0
 20
0.0
 30
0.0
  9
$PUCSORGFRONT
 10
0.0
 20
0.0
 30
0.0
  9
$PUCSORGBACK
 10
0.0
 20
0.0
 30
0.0
  9
$USERI1
 70
0
  9
$USERI2
 70
0
  9
$USERI3
 70
0
  9
$USERI4
 70
0
  9
$USERI5
 70
0
  9
$USERR1
 40
0.0
  9
$USERR2
 40
0.0
  9
$USERR3
 40
0.0
  9
$USERR4
 40
0.0
  9
$USERR5
 40
0.0
  9
$WORLDVIEW
 70
1
  9
$SHADEDGE
 70
3
  9
$SHADEDIF
 70
70
  9
$TILEMODE
 70
1
  9
$MAXACTVP
 70
64
  9
$PINSBASE
 10
0.0
 20
0.0
 30
0.0
  9
$PLIMCHECK
 70
0
  9
$PEXTMIN
 10
1e+20
 20
1e+20
 30
1e+20
  9
$PEXTMAX
 10
-1e+20
 20
-1e+20
 30
-1e+20
  9
$PLIMMIN
 10
0.0
 20
0.0
  9
$PLIMMAX
 10
420.0
 20
297.0
  9
$UNITMODE
 70
0
  9
$VISRETAIN
 70
1
  9
$PLINEGEN
 70
0
  9
$PSLTSCALE
 70
1
  9
$TREEDEPTH
 70
3020
  9
$CMLSTYLE
  2
Standard
  9
$CMLJUST
 70
0
  9
$CMLSCALE
 40
20.0
  9
$PROXYGRAPHICS
 70
1
  9
$MEASUREMENT
 70
1
  9
$CELWEIGHT
370
-1
  9
$ENDCAPS
280
0
  9
$JOINSTYLE
280
0
  9
$LWDISPLAY
290
0
  9
$INSUNITS
 70
4
  9
$HYPERLINKBASE
  1

  9
$STYLESHEET
  1

  9
$XEDIT
290
1
  9
$CEPSNTYPE
380
0
  9
$PSTYLEMODE
290
1
  9
$FINGERPRINTGUID
  2
{F50B6225-5C4A-49EE-8FC4-39D181E85724}
  9
$VERSIONGUID
  2
{F905A02F-C5D0-4C70-80F5-26FB050E56D6}
  9
$EXTNAMES
290
1
  9
$PSVPSCALE
 40
0.0
  9
$OLESTARTUP
290
0
  9
$SORTENTS
280
127
  9
$INDEXCTL
280
0
  9
$HIDETEXT
280
1
  9
$XCLIPFRAME
280
1
  9
$HALOGAP
280
0
  9
$OBSCOLOR
 70
257
  9
$OBSLTYPE
280
0
  9
$INTERSECTIONDISPLAY
280
0
  9
$INTERSECTIONCOLOR
 70
257
  9
$DIMASSOC
280
2
  9
$PROJECTNAME
  1

  9
$CAMERADISPLAY
290
0
  9
$LENSLENGTH
 40
50.0
  9
$CAMERAHEIGHT
 40
0.0
  9
$STEPSPERSEC
 40
24.0
  9
$STEPSIZE
 40
100.0
  9
$3DDWFPREC
 40
2.0
  9
$PSOLWIDTH
 40
0.005
  9
$PSOLHEIGHT
 40
0.08
  9
$LOFTANG1
 40
1.570796326795
  9
$LOFTANG2
 40
1.570796326795
  9
$LOFTMAG1
 40
0.0
  9
$LOFTMAG2
 40
0.0
  9
$LOFTPARAM
 70
7
  9
$LOFTNORMALS
280
1
  9
$LATITUDE
 40
37.795
  9
$LONGITUDE
 40
-122.394
  9
$NORTHDIRECTION
 40
0.0
  9
$TIMEZONE
 70
-8000
  9
$LIGHTGLYPHDISPLAY
280
1
  9
$TILEMODELIGHTSYNCH
280
1
  9
$CMATERIAL
347
20
  9
$SOLIDHIST
280
0
  9
$SHOWHIST
280
1
  9
$DWFFRAME
280
2
  9
$DGNFRAME
280
2
  9
$REALWORLDSCALE
290
1
  9
$INTERFERECOLOR
 62
256
  9
$CSHADOW
280
0
  9
$SHADOWPLANELOCATION
 40
0.0
  0
ENDSEC
  0
SECTION
  2
CLASSES
  0
CLASS
  1
ACDBDICTIONARYWDFLT
  2
AcDbDictionaryWithDefault
  3
ObjectDBX Classes
 90
0
 91
0
280
0
281
0
  0
CLASS
  1
SUN
  2
AcDbSun
  3
SCENEOE
 90
1153
 91
0
280
0
281
0
  0
CLASS
  1
VISUALSTYLE
  2
AcDbVisualStyle
  3
ObjectDBX Classes
 90
4095
 91
0
280
0
281
0
  0
CLASS
  1
MATERIAL
  2
AcDbMaterial
  3
ObjectDBX Classes
 90
1153
 91
0
280
0
281
0
  0
CLASS
  1
SCALE
  2
AcDbScale
  3
ObjectDBX Classes
 90
1153
 91
0
280
0
281
0
  0
CLASS
  1
TABLESTYLE
  2
AcDbTableStyle
  3
ObjectDBX Classes
 90
4095
 91
0
280
0
281
0
  0
CLASS
  1
MLEADERSTYLE
  2
AcDbMLeaderStyle
  3
ACDB_MLEADERSTYLE_CLASS
 90
4095
 91
0
280
0
281
0
  0
CLASS
  1
DICTIONARYVAR
  2
AcDbDictionaryVar
  3
ObjectDBX Classes
 90
0
 91
0
280
0
281
0
  0
CLASS
  1
CELLSTYLEMAP
  2
AcDbCellStyleMap
  3
ObjectDBX Classes
 90
1152
 91
0
280
0
281
0
  0
CLASS
  1
MENTALRAYRENDERSETTINGS
  2
AcDbMentalRayRenderSettings
  3
SCENEOE
 90
1024
 91
0
280
0
281
0
  0
CLASS
  1
ACDBDETAILVIEWSTYLE
  2
AcDbDetailViewStyle
  3
ObjectDBX Classes
 90
1025
 91
0
280
0
281
0
  0
CLASS
  1
ACDBSECTIONVIEWSTYLE
  2
AcDbSectionViewStyle
  3
ObjectDBX Classes
 90
1025
 91
0
280
0
281
0
  0
CLASS
  1
RASTERVARIABLES
  2
AcDbRasterVariables
  3
ISM
 90
0
 91
0
280
0
281
0
  0
CLASS
  1
LAYOUT
  2
AcDbLayout
  3
ObjectDBX Classes
 90
0
 91
0
280
0
281
0
  0
CLASS
  1
ACDBPLACEHOLDER
  2
AcDbPlaceHolder
  3
ObjectDBX Classes
 90
0
 91
0
280
0
281
0
  0
ENDSEC
  0
SECTION
  2
TABLES
  0
TABLE
  2
VPORT
  5
8
330
0
100
AcDbSymbolTable
 70
1
  0
VPORT
  5
B5
330
8
100
AcDbSymbolTableRecord
100
AcDbViewportTableRecord
  2
*Active
 70
0
 10
0.0
 20
0.0
 11
1.0
 21
1.0
 12
264.5352258508503
 22
20.8569617138016
 13
0.0
 23
0.0
 14
0.5
 24
0.5
 15
0.5
 25
0.5
 16
0.0
 26
0.0
 36
1.0
 17
0.0
 27
0.0
 37
0.0
 40
264.53522585085
 41
1.34
 42
50.0
 43
0.0
 44
0.0
 50
0.0
 51
0.0
 71
0
 72
1000
 73
1
 74
3
 75
0
 76
0
 77
0
 78
0
281
0
 65
1
110
0.0
120
0.0
130
0.0
111
1.0
121
0.0
131
0.0
112
0.0
122
1.0
132
0.0
 79
0
146
0.0
  0
ENDTAB
  0
TABLE
  2
LTYPE
  5
2
330
0
100
AcDbSymbolTable
 70
3
  0
LTYPE
  5
24
330
2
100
AcDbSymbolTableRecord
100
AcDbLinetypeTableRecord
  2
ByBlock
 70
0
  3

 72
65
 73
0
 40
0.0
  0
LTYPE
  5
25
330
2
100
AcDbSymbolTableRecord
100
AcDbLinetypeTableRecord
  2
ByLayer
 70
0
  3

 72
65
 73
0
 40
0.0
  0
LTYPE
  5
26
330
2
100
AcDbSymbolTableRecord
100
AcDbLinetypeTableRecord
  2
Continuous
 70
0
  3

 72
65
 73
0
 40
0.0
  0
ENDTAB
  0
TABLE
  2
LAYER
  5
1
330
0
100
AcDbSymbolTable
 70
2
  0
LAYER
  5
27
330
1
100
AcDbSymbolTableRecord
100
AcDbLayerTableRecord
  2
0
 70
0
 62
7
  6
Continuous
370
-3
390
13
347
21
  0
LAYER
  5
28
330
1
100
AcDbSymbolTableRecord
100
AcDbLayerTableRecord
  2
Defpoints
 70
0
 62
7
  6
Continuous
290
0
370
-3
390
13
347
21
  0
ENDTAB
  0
TABLE
  2
STYLE
  5
5
330
0
100
AcDbSymbolTable
 70
1
  0
STYLE
  5
29
330
5
100
AcDbSymbolTableRecord
100
AcDbTextStyleTableRecord
  2
Standard
 70
0
 40
0.0
 41
1.0
 50
0.0
 71
0
 42
2.5
  3
txt
  4

  0
ENDTAB
  0
TABLE
  2
VIEW
  5
7
330
0
100
AcDbSymbolTable
 70
0
  0
ENDTAB
  0
TABLE
  2
UCS
  5
6
330
0
100
AcDbSymbolTable
 70
0
  0
ENDTAB
  0
TABLE
  2
APPID
  5
3
330
0
100
AcDbSymbolTable
 70
3
  0
APPID
  5
2A
330
3
100
AcDbSymbolTableRecord
100
AcDbRegAppTableRecord
  2
ACAD
 70
0
  0
APPID
  5
B6
330
3
100
AcDbSymbolTableRecord
100
AcDbRegAppTableRecord
  2
HATCHBACKGROUNDCOLOR
 70
0
  0
APPID
  5
B7
330
3
100
AcDbSymbolTableRecord
100
AcDbRegAppTableRecord
  2
EZDXF
 70
0
  0
ENDTAB
  0
TABLE
  2
DIMSTYLE
  5
4
330
0
100
AcDbSymbolTable
 70
1
100
AcDbDimStyleTable
  0
DIMSTYLE
105
2B
330
4
100
AcDbSymbolTableRecord
100
AcDbDimStyleTableRecord
  2
Standard
 70
0
 40
1.0
 41
2.5
 42
0.625
 43
3.75
 44
1.25
 45
0.0
 46
0.0
 47
0.0
 48
0.0
 49
2.5
140
2.5
141
2.5
142
0.0
143
0.03937007874
144
1.0
145
0.0
146
1.0
147
0.625
148
0.0
 69
0
 70
0
 71
0
 72
0
 73
0
 74
0
 75
0
 76
0
 77
1
 78
8
 79
3
170
0
171
3
172
1
173
0
174
0
175
0
176
0
177
0
178
0
179
2
271
2
272
2
273
2
274
3
275
0
276
0
277
2
278
44
279
0
280
0
281
0
282
0
283
0
284
8
285
0
286
0
288
0
289
3
290
0
371
-2
372
-2
  0
ENDTAB
  0
TABLE
  2
BLOCK_RECORD
  5
9
330
0
100
AcDbSymbolTable
 70
2
  0
BLOCK_RECORD
  5
17
330
9
100
AcDbSymbolTableRecord
100
AcDbBlockTableRecord
  2
*Model_Space
340
1A
 70
0
280
1
281
0
  0
BLOCK_RECORD
  5
1B
330
9
100
AcDbSymbolTableRecord
100
AcDbBlockTableRecord
  2
*Paper_Space
340
1E
 70
0
280
1
281
0
  0
ENDTAB
  0
ENDSEC
  0
SECTION
  2
BLOCKS
  0
BLOCK
  5
18
330
17
100
AcDbEntity
  8
0
100
AcDbBlockBegin
  2
*Model_Space
 70
0
 10
0.0
 20
0.0
 30
0.0
  3
*Model_Space
  1

  0
ENDBLK
  5
19
330
17
100
AcDbEntity
  8
0
100
AcDbBlockEnd
  0
BLOCK
  5
1C
330
1B
100
AcDbEntity
  8
0
100
AcDbBlockBegin
  2
*Paper_Space
 70
0
 10
0.0
 20
0.0
 30
0.0
  3
*Paper_Space
  1

  0
ENDBLK
  5
1D
330
1B
100
AcDbEntity
  8
0
100
AcDbBlockEnd
  0
ENDSEC
  0
SECTION
  2
ENTITIES
  0
LINE
  5
2F
330
17
100
AcDbEntity
  8
0
100
AcDbLine
 10
81.41686922680026
 20
7.500000000789996
 30
6.000089314284196e-12
 11
529.0704517017002
 21
7.5
 31
2.5000002068509275e-11
  0
LINE
  5
30
330
17
100
AcDbEntity
  8
0
100
AcDbLine
 10
529.0704517017002
 20
7.5
 30
2.5000002068509275e-11
 11
529.0704517017002
 21
0.0
 31
2.6000090969091616e-11
  0
LINE
  5
31
330
17
100
AcDbEntity
  8
0
100
AcDbLine
 10
529.0704517017002
 20
0.0
 30
2.6000090969091616e-11
 11
81.41687476490029
 21
7.899956244727946e-10
 31
7.000178214866537e-12
  0
LINE
  5
32
330
17
100
AcDbEntity
  8
0
100
AcDbLine
 10
81.41687476490029
 20
7.899956244727946e-10
 30
7.000178214866537e-12
 11
79.97878640200025
 21
0.009519240540001306
 31
7.000178214866537e-12
  0
LINE
  5
33
330
17
100
AcDbEntity
  8
0
100
AcDbLine
 10
79.97878640200025
 20
0.009519240540001306
 30
7.000178214866537e-12
 11
78.5409500736003
 21
0.03807529148999578
 31
7.000178214866537e-12
  0
LINE
  5
34
330
17
100
AcDbEntity
  8
0
100
AcDbLine
 10
78.5409500736003
 20
0.03807529148999578
 30
7.000178214866537e-12
 11
77.10361776990027
 21
0.08566314899999838
 31
7.000178214866537e-12
  0
LINE
  5
35
330
17
100
AcDbEntity
  8
0
100
AcDbLine
 10
77.10361776990027
 20
0.08566314899999838
 30
7.000178214866537e-12
 11
75.66704139290027
 21
0.15227447297999674
 31
7.000178214866537e-12
  0
LINE
  5
36
330
17
100
AcDbEntity
  8
0
100
AcDbLine
 10
75.66704139290027
 20
0.15227447297999674
 30
7.000178214866537e-12
 11
74.2314727121003
 21
0.23789758935999572
 31
6.000089314284196e-12
  0
LINE
  5
37
330
17
100
AcDbEntity
  8
0
100
AcDbLine
 10
74.2314727121003
 20
0.23789758935999572
 30
6.000089314284196e-12
 11
72.79716332030029
 21
0.3425174921299998
 31
6.000089314284196e-12
  0
LINE
  5
38
330
17
100
AcDbEntity
  8
0
100
AcDbLine
 10
72.79716332030029
 20
0.3425174921299998
 30
6.000089314284196e-12
 11
71.3643645897003
 21
0.46611584595999744
 31
6.000089314284196e-12
  0
LINE
  5
39
330
17
100
AcDbEntity
  8
0
100
AcDbLine
 10
71.3643645897003
 20
0.46611584595999744
 30
6.000089314284196e-12
 11
69.9333276277003
 21
0.6086709894100011
 31
6.000089314284196e-12
  0
LINE
  5
3A
330
17
100
AcDbEntity
  8
0
100
AcDbLine
 10
69.9333276277003
 20
0.6086709894100011
 30
6.000089314284196e-12
 11
68.50430323300026
 21
0.7701579387699979
 31
6.000089314284196e-12
  0
LINE
  5
3B
330
17
100
AcDbEntity
  8
0
100
AcDbLine
 10
68.50430323300026
 20
0.7701579387699979
 30
6.000089314284196e-12
 11
67.07754185150026
 21
0.9505483923899973
 31
6.000089314284196e-12
  0
LINE
  5
3C
330
17
100
AcDbEntity
  8
0
100
AcDbLine
 10
67.07754185150026
 20
0.9505483923899973
 30
6.000089314284196e-12
 11
65.65329353260029
 21
1.1498107356399956
 31
6.000089314284196e-12
  0
LINE
  5
3D
330
17
100
AcDbEntity
  8
0
100
AcDbLine
 10
65.65329353260029
 20
1.1498107356399956
 30
6.000089314284196e-12
 11
64.2318078851003
 21
1.367910046489996
 31
6.000089314284196e-12
  0
LINE
  5
3E
330
17
100
AcDbEntity
  8
0
100
AcDbLine
 10
64.2318078851003
 20
1.367910046489996
 30
6.000089314284196e-12
 11
62.81333403380029
 21
1.6048081015999998
 31
6.000089314284196e-12
  0
LINE
  5
3F
330
17
100
AcDbEntity
  8
0
100
AcDbLine
 10
62.81333403380029
 20
1.6048081015999998
 30
6.000089314284196e-12
 11
61.398120575500286
 21
1.8604633830300017
 31
6.000089314284196e-12
  0
LINE
  5
40
330
17
100
AcDbEntity
  8
0
100
AcDbLine
 10
61.398120575500286
 20
1.8604633830300017
 30
6.000089314284196e-12
 11
59.9864155357003
 21
2.1348310854899992
 31
6.000089314284196e-12
  0
LINE
  5
41
330
17
100
AcDbEntity
  8
0
100
AcDbLine
 10
59.9864155357003
 20
2.1348310854899992
 30
6.000089314284196e-12
 11
58.578466325100294
 21
2.42786312426
 31
6.000089314284196e-12
  0
LINE
  5
42
330
17
100
AcDbEntity
  8
0
100
AcDbLine
 10
58.578466325100294
 20
2.42786312426
 30
6.000089314284196e-12
 11
57.17451969600029
 21
2.7395081435199984
 31
6.000089314284196e-12
  0
LINE
  5
43
330
17
100
AcDbEntity
  8
0
100
AcDbLine
 10
57.17451969600029
 20
2.7395081435199984
 30
6.000089314284196e-12
 11
55.774821699300276
 21
3.069711525439999
 31
5.000000413701855e-12
  0
LINE
  5
44
330
17
100
AcDbEntity
  8
0
100
AcDbLine
 10
55.774821699300276
 20
3.069711525439999
 30
5.000000413701855e-12
 11
54.3796176412003
 21
3.4184153997000024
 31
5.000000413701855e-12
  0
LINE
  5
45
330
17
100
AcDbEntity
  8
0
100
AcDbLine
 10
54.3796176412003
 20
3.4184153997000024
 30
5.000000413701855e-12
 11
52.98915204060029
 21
3.78555865365
 31
5.000000413701855e-12
  0
LINE
  5
46
330
17
100
AcDbEntity
  8
0
100
AcDbLine
 10
52.98915204060029
 20
3.78555865365
 30
5.000000413701855e-12
 11
51.6036685856003
 21
4.171076943019997
 31
5.000000413701855e-12
  0
LINE
  5
47
330
17
100
AcDbEntity
  8
0
100
AcDbLine
 10
51.6036685856003
 20
4.171076943019997
 30
5.000000413701855e-12
 11
50.2234100914003
 21
4.574902703180001
 31
5.000000413701855e-12
  0
LINE
  5
48
330
17
100
AcDbEntity
  8
0
100
AcDbLine
 10
50.2234100914003
 20
4.574902703180001
 30
5.000000413701855e-12
 11
48.84861845730029
 21
4.99696516102
 31
5.000000413701855e-12
  0
LINE
  5
49
330
17
100
AcDbEntity
  8
0
100
AcDbLine
 10
48.84861845730029
 20
4.99696516102
 30
5.000000413701855e-12
 11
47.47953462470031
 21
5.437190347299996
 31
5.000000413701855e-12
  0
LINE
  5
4A
330
17
100
AcDbEntity
  8
0
100
AcDbLine
 10
47.47953462470031
 20
5.437190347299996
 30
5.000000413701855e-12
 11
46.116398534400275
 21
5.8955011096700005
 31
5.000000413701855e-12
  0
LINE
  5
4B
330
17
100
AcDbEntity
  8
0
100
AcDbLine
 10
46.116398534400275
 20
5.8955011096700005
 30
5.000000413701855e-12
 11
44.75944908520029
 21
6.371817126140002
 31
5.000000413701855e-12
  0
LINE
  5
4C
330
17
100
AcDbEntity
  8
0
100
AcDbLine
 10
44.75944908520029
 20
6.371817126140002
 30
5.000000413701855e-12
 11
43.40892409120028
 21
6.866054919189999
 31
5.000000413701855e-12
  0
LINE
  5
4D
330
17
100
AcDbEntity
  8
0
100
AcDbLine
 10
43.40892409120028
 20
6.866054919189999
 30
5.000000413701855e-12
 11
42.065060240900266
 21
7.3781278704
 31
5.000000413701855e-12
  0
LINE
  5
4E
330
17
100
AcDbEntity
  8
0
100
AcDbLine
 10
42.065060240900266
 20
7.3781278704
 30
5.000000413701855e-12
 11
40.72809305530029
 21
7.907946235609998
 31
3.999911513119514e-12
  0
LINE
  5
4F
330
17
100
AcDbEntity
  8
0
100
AcDbLine
 10
40.72809305530029
 20
7.907946235609998
 30
3.999911513119514e-12
 11
39.39825684670029
 21
8.45541716065
 31
3.999911513119514e-12
  0
LINE
  5
50
330
17
100
AcDbEntity
  8
0
100
AcDbLine
 10
39.39825684670029
 20
8.45541716065
 30
3.999911513119514e-12
 11
38.075784677700256
 21
9.02044469765
 31
3.999911513119514e-12
  0
LINE
  5
51
330
17
100
AcDbEntity
  8
0
100
AcDbLine
 10
38.075784677700256
 20
9.02044469765
 30
3.999911513119514e-12
 11
36.76090832020026
 21
9.602929821810001
 31
3.999911513119514e-12
  0
LINE
  5
52
330
17
100
AcDbEntity
  8
0
100
AcDbLine
 10
36.76090832020026
 20
9.602929821810001
 30
3.999911513119514e-12
 11
35.453858214900265
 21
10.20277044877
 31
3.999911513119514e-12
  0
LINE
  5
53
330
17
100
AcDbEntity
  8
0
100
AcDbLine
 10
35.453858214900265
 20
10.20277044877
 30
3.999911513119514e-12
 11
34.15486343100025
 21
10.81986145251
 31
3.999911513119514e-12
  0
LINE
  5
54
330
17
100
AcDbEntity
  8
0
100
AcDbLine
 10
34.15486343100025
 20
10.81986145251
 30
3.999911513119514e-12
 11
32.86415162590026
 21
11.454094683769998
 31
3.999911513119514e-12
  0
LINE
  5
55
330
17
100
AcDbEntity
  8
0
100
AcDbLine
 10
32.86415162590026
 20
11.454094683769998
 30
3.999911513119514e-12
 11
31.581949005400304
 21
12.105358988989998
 31
3.999911513119514e-12
  0
LINE
  5
56
330
17
100
AcDbEntity
  8
0
100
AcDbLine
 10
31.581949005400304
 20
12.105358988989998
 30
3.999911513119514e-12
 11
30.308480283800293
 21
12.773540229829997
 31
3.999911513119514e-12
  0
LINE
  5
57
330
17
100
AcDbEntity
  8
0
100
AcDbLine
 10
30.308480283800293
 20
12.773540229829997
 30
3.999911513119514e-12
 11
29.04396864500029
 21
13.4585213031
 31
3.999911513119514e-12
  0
LINE
  5
58
330
17
100
AcDbEntity
  8
0
100
AcDbLine
 10
29.04396864500029
 20
13.4585213031
 30
3.999911513119514e-12
 11
27.78863570290025
 21
14.16018216138
 31
2.999822612537173e-12
  0
LINE
  5
59
330
17
100
AcDbEntity
  8
0
100
AcDbLine
 10
27.78863570290025
 20
14.16018216138
 30
2.999822612537173e-12
 11
26.5427014630003
 21
14.87839983397
 31
2.999822612537173e-12
  0
LINE
  5
5A
330
17
100
AcDbEntity
  8
0
100
AcDbLine
 10
26.5427014630003
 20
14.87839983397
 30
2.999822612537173e-12
 11
25.30638428340029
 21
15.613048448499999
 31
2.999822612537173e-12
  0
LINE
  5
5B
330
17
100
AcDbEntity
  8
0
100
AcDbLine
 10
25.30638428340029
 20
15.613048448499999
 30
2.999822612537173e-12
 11
24.079900836800277
 21
16.36399925295
 31
2.999822612537173e-12
  0
LINE
  5
5C
330
17
100
AcDbEntity
  8
0
100
AcDbLine
 10
24.079900836800277
 20
16.36399925295
 30
2.999822612537173e-12
 11
22.863466072500273
 21
17.13112063825
 31
2.999822612537173e-12
  0
LINE
  5
5D
330
17
100
AcDbEntity
  8
0
100
AcDbLine
 10
22.863466072500273
 20
17.13112063825
 30
2.999822612537173e-12
 11
21.657293178800273
 21
17.91427816132
 31
2.999822612537173e-12
  0
LINE
  5
5E
330
17
100
AcDbEntity
  8
0
100
AcDbLine
 10
21.657293178800273
 20
17.91427816132
 30
2.999822612537173e-12
 11
20.461593545400262
 21
18.71333456866
 31
2.999822612537173e-12
  0
LINE
  5
5F
330
17
100
AcDbEntity
  8
0
100
AcDbLine
 10
20.461593545400262
 20
18.71333456866
 30
2.999822612537173e-12
 11
19.276576726500252
 21
19.52814982036
 31
2.999822612537173e-12
  0
LINE
  5
60
330
17
100
AcDbEntity
  8
0
100
AcDbLine
 10
19.276576726500252
 20
19.52814982036
 30
2.999822612537173e-12
 11
18.102450404200283
 21
20.35858111469
 31
2.999822612537173e-12
  0
LINE
  5
61
330
17
100
AcDbEntity
  8
0
100
AcDbLine
 10
18.102450404200283
 20
20.35858111469
 30
2.999822612537173e-12
 11
16.939420351700278
 21
21.20448291308
 31
2.000177801164682e-12
  0
LINE
  5
62
330
17
100
AcDbEntity
  8
0
100
AcDbLine
 10
16.939420351700278
 20
21.20448291308
 30
2.000177801164682e-12
 11
15.787690397900292
 21
22.065706965689998
 31
2.000177801164682e-12
  0
LINE
  5
63
330
17
100
AcDbEntity
  8
0
100
AcDbLine
 10
15.787690397900292
 20
22.065706965689998
 30
2.000177801164682e-12
 11
14.647462390800285
 21
22.94210233731
 31
2.000177801164682e-12
  0
LINE
  5
64
330
17
100
AcDbEntity
  8
0
100
AcDbLine
 10
14.647462390800285
 20
22.94210233731
 30
2.000177801164682e-12
 11
13.518936163100307
 21
23.83351543389
 31
2.000177801164682e-12
  0
LINE
  5
65
330
17
100
AcDbEntity
  8
0
100
AcDbLine
 10
13.518936163100307
 20
23.83351543389
 30
2.000177801164682e-12
 11
12.40230949630029
 21
24.73979002941
 31
2.000177801164682e-12
  0
LINE
  5
66
330
17
100
AcDbEntity
  8
0
100
AcDbLine
 10
12.40230949630029
 20
24.73979002941
 30
2.000177801164682e-12
 11
11.297778086700305
 21
25.66076729328
 31
2.000177801164682e-12
  0
LINE
  5
67
330
17
100
AcDbEntity
  8
0
100
AcDbLine
 10
11.297778086700305
 20
25.66076729328
 30
2.000177801164682e-12
 11
10.20553551060027
 21
26.59628581816
 31
2.000177801164682e-12
  0
LINE
  5
68
330
17
100
AcDbEntity
  8
0
100
AcDbLine
 10
10.20553551060027
 20
26.59628581816
 30
2.000177801164682e-12
 11
9.125773190700272
 21
27.54618164829
 31
2.000177801164682e-12
  0
LINE
  5
69
330
17
100
AcDbEntity
  8
0
100
AcDbLine
 10
9.125773190700272
 20
27.54618164829
 30
2.000177801164682e-12
 11
8.058680362600285
 21
28.510288308139998
 31
2.000177801164682e-12
  0
LINE
  5
6A
330
17
100
AcDbEntity
  8
0
100
AcDbLine
 10
8.058680362600285
 20
28.510288308139998
 30
2.000177801164682e-12
 11
7.004444041200259
 21
29.48843683169
 31
1.000088900582341e-12
  0
LINE
  5
6B
330
17
100
AcDbEntity
  8
0
100
AcDbLine
 10
7.004444041200259
 20
29.48843683169
 30
1.000088900582341e-12
 11
5.963248988400267
 21
30.48045579195
 31
1.000088900582341e-12
  0
LINE
  5
6C
330
17
100
AcDbEntity
  8
0
100
AcDbLine
 10
5.963248988400267
 20
30.48045579195
 30
1.000088900582341e-12
 11
4.935277680600279
 21
31.48617133108
 31
1.000088900582341e-12
  0
LINE
  5
6D
330
17
100
AcDbEntity
  8
0
100
AcDbLine
 10
4.935277680600279
 20
31.48617133108
 30
1.000088900582341e-12
 11
3.9207102763002695
 21
32.505407190796
 31
1.000088900582341e-12
  0
LINE
  5
6E
330
17
100
AcDbEntity
  8
0
100
AcDbLine
 10
3.9207102763002695
 20
32.505407190796
 30
1.000088900582341e-12
 11
2.9197245854002745
 21
33.537984743307
 31
1.000088900582341e-12
  0
LINE
  5
6F
330
17
100
AcDbEntity
  8
0
100
AcDbLine
 10
2.9197245854002745
 20
33.537984743307
 30
1.000088900582341e-12
 11
1.9324960370003055
 21
34.583723022594
 31
1.000088900582341e-12
  0
LINE
  5
70
330
17
100
AcDbEntity
  8
0
100
AcDbLine
 10
1.9324960370003055
 20
34.583723022594
 30
1.000088900582341e-12
 11
0.9591976496002985
 21
35.642438756133
 31
1.000088900582341e-12
  0
LINE
  5
71
330
17
100
AcDbEntity
  8
0
100
AcDbLine
 10
0.9591976496002985
 20
35.642438756133
 30
1.000088900582341e-12
 11
3.0030378184164874e-10
 21
36.713946397006
 31
1.000088900582341e-12
  0
LINE
  5
72
330
17
100
AcDbEntity
  8
0
100
AcDbLine
 10
3.0030378184164874e-10
 20
36.713946397006
 30
1.000088900582341e-12
 11
2.8421709430404007e-13
 21
41.713923427339026
 31
0.0
  0
LINE
  5
73
330
17
100
AcDbEntity
  8
0
100
AcDbLine
 10
2.8421709430404007e-13
 20
41.713923427339026
 30
0.0
 11
10.314997472100288
 21
41.7139234276032
 31
1.000088900582341e-12
  0
LINE
  5
74
330
17
100
AcDbEntity
  8
0
100
AcDbLine
 10
10.314997472100288
 20
41.7139234276032
 30
1.000088900582341e-12
 11
10.314997471800268
 21
36.713946189752
 31
1.000088900582341e-12
  0
LINE
  5
75
330
17
100
AcDbEntity
  8
0
100
AcDbLine
 10
10.314997471800268
 20
36.713946189752
 30
1.000088900582341e-12
 11
11.196406810600251
 21
35.853093440773
 31
1.000088900582341e-12
  0
LINE
  5
76
330
17
100
AcDbEntity
  8
0
100
AcDbLine
 10
11.196406810600251
 20
35.853093440773
 30
1.000088900582341e-12
 11
12.088237971700266
 21
35.003042231749
 31
1.000088900582341e-12
  0
LINE
  5
77
330
17
100
AcDbEntity
  8
0
100
AcDbLine
 10
12.088237971700266
 20
35.003042231749
 30
1.000088900582341e-12
 11
12.990358593400288
 21
34.163918723657
 31
1.000088900582341e-12
  0
LINE
  5
78
330
17
100
AcDbEntity
  8
0
100
AcDbLine
 10
12.990358593400288
 20
34.163918723657
 30
1.000088900582341e-12
 11
13.902634786700276
 21
33.335847455629
 31
1.000088900582341e-12
  0
LINE
  5
79
330
17
100
AcDbEntity
  8
0
100
AcDbLine
 10
13.902634786700276
 20
33.335847455629
 30
1.000088900582341e-12
 11
14.824931155600268
 21
32.518951326469
 31
2.000177801164682e-12
  0
LINE
  5
7A
330
17
100
AcDbEntity
  8
0
100
AcDbLine
 10
14.824931155600268
 20
32.518951326469
 30
2.000177801164682e-12
 11
15.757110816800264
 21
31.71335157642
 31
2.000177801164682e-12
  0
LINE
  5
7B
330
17
100
AcDbEntity
  8
0
100
AcDbLine
 10
15.757110816800264
 20
31.71335157642
 30
2.000177801164682e-12
 11
16.699035420000257
 21
30.919167769159998
 31
2.000177801164682e-12
  0
LINE
  5
7C
330
17
100
AcDbEntity
  8
0
100
AcDbLine
 10
16.699035420000257
 20
30.919167769159998
 30
2.000177801164682e-12
 11
17.6505651689003
 21
30.13651777405
 31
2.000177801164682e-12
  0
LINE
  5
7D
330
17
100
AcDbEntity
  8
0
100
AcDbLine
 10
17.6505651689003
 20
30.13651777405
 30
2.000177801164682e-12
 11
18.611558841500255
 21
29.36551774868
 31
2.000177801164682e-12
  0
LINE
  5
7E
330
17
100
AcDbEntity
  8
0
100
AcDbLine
 10
18.611558841500255
 20
29.36551774868
 30
2.000177801164682e-12
 11
19.581873811300284
 21
28.60628212158
 31
2.000177801164682e-12
  0
LINE
  5
7F
330
17
100
AcDbEntity
  8
0
100
AcDbLine
 10
19.581873811300284
 20
28.60628212158
 30
2.000177801164682e-12
 11
20.561366068100256
 21
27.85892357526
 31
2.000177801164682e-12
  0
LINE
  5
80
330
17
100
AcDbEntity
  8
0
100
AcDbLine
 10
20.561366068100256
 20
27.85892357526
 30
2.000177801164682e-12
 11
21.549890239900265
 21
27.1235530295
 31
2.000177801164682e-12
  0
LINE
  5
81
330
17
100
AcDbEntity
  8
0
100
AcDbLine
 10
21.549890239900265
 20
27.1235530295
 30
2.000177801164682e-12
 11
22.5472996143003
 21
26.40027962484
 31
2.000177801164682e-12
  0
LINE
  5
82
330
17
100
AcDbEntity
  8
0
100
AcDbLine
 10
22.5472996143003
 20
26.40027962484
 30
2.000177801164682e-12
 11
23.55344615990026
 21
25.689210706449998
 31
2.000177801164682e-12
  0
LINE
  5
83
330
17
100
AcDbEntity
  8
0
100
AcDbLine
 10
23.55344615990026
 20
25.689210706449998
 30
2.000177801164682e-12
 11
24.568180548700298
 21
24.99045180813
 31
2.000177801164682e-12
  0
LINE
  5
84
330
17
100
AcDbEntity
  8
0
100
AcDbLine
 10
24.568180548700298
 20
24.99045180813
 30
2.000177801164682e-12
 11
25.59135217830027
 21
24.30410663672
 31
2.999822612537173e-12
  0
LINE
  5
85
330
17
100
AcDbEntity
  8
0
100
AcDbLine
 10
25.59135217830027
 20
24.30410663672
 30
2.999822612537173e-12
 11
26.622809193900252
 21
23.63027705662
 31
2.999822612537173e-12
  0
LINE
  5
86
330
17
100
AcDbEntity
  8
0
100
AcDbLine
 10
26.622809193900252
 20
23.63027705662
 30
2.999822612537173e-12
 11
27.66239851090029
 21
22.96906307475
 31
2.999822612537173e-12
  0
LINE
  5
87
330
17
100
AcDbEntity
  8
0
100
AcDbLine
 10
27.66239851090029
 20
22.96906307475
 30
2.999822612537173e-12
 11
28.7099658380003
 21
22.32056282567
 31
2.999822612537173e-12
  0
LINE
  5
88
330
17
100
AcDbEntity
  8
0
100
AcDbLine
 10
28.7099658380003
 20
22.32056282567
 30
2.999822612537173e-12
 11
29.765355699800295
 21
21.684872557029998
 31
2.999822612537173e-12
  0
LINE
  5
89
330
17
100
AcDbEntity
  8
0
100
AcDbLine
 10
29.765355699800295
 20
21.684872557029998
 30
2.999822612537173e-12
 11
30.82841145960026
 21
21.06208661525
 31
2.999822612537173e-12
  0
LINE
  5
8A
330
17
100
AcDbEntity
  8
0
100
AcDbLine
 10
30.82841145960026
 20
21.06208661525
 30
2.999822612537173e-12
 11
31.898975343500297
 21
20.45229743157
 31
2.999822612537173e-12
  0
LINE
  5
8B
330
17
100
AcDbEntity
  8
0
100
AcDbLine
 10
31.898975343500297
 20
20.45229743157
 30
2.999822612537173e-12
 11
32.976888462800275
 21
19.8555955083
 31
2.999822612537173e-12
  0
LINE
  5
8C
330
17
100
AcDbEntity
  8
0
100
AcDbLine
 10
32.976888462800275
 20
19.8555955083
 30
2.999822612537173e-12
 11
34.0619908382003
 21
19.272069405409997
 31
2.999822612537173e-12
  0
LINE
  5
8D
330
17
100
AcDbEntity
  8
0
100
AcDbLine
 10
34.0619908382003
 20
19.272069405409997
 30
2.999822612537173e-12
 11
35.15412142350027
 21
18.701805727329997
 31
2.999822612537173e-12
  0
LINE
  5
8E
330
17
100
AcDbEntity
  8
0
100
AcDbLine
 10
35.15412142350027
 20
18.701805727329997
 30
2.999822612537173e-12
 11
36.253118129300276
 21
18.14488911017
 31
2.999822612537173e-12
  0
LINE
  5
8F
330
17
100
AcDbEntity
  8
0
100
AcDbLine
 10
36.253118129300276
 20
18.14488911017
 30
2.999822612537173e-12
 11
37.35881784730026
 21
17.60140220913
 31
3.999911513119514e-12
  0
LINE
  5
90
330
17
100
AcDbEntity
  8
0
100
AcDbLine
 10
37.35881784730026
 20
17.60140220913
 30
3.999911513119514e-12
 11
38.47105647420028
 21
17.07142568621
 31
3.999911513119514e-12
  0
LINE
  5
91
330
17
100
AcDbEntity
  8
0
100
AcDbLine
 10
38.47105647420028
 20
17.07142568621
 30
3.999911513119514e-12
 11
39.58966893620027
 21
16.555038198269997
 31
3.999911513119514e-12
  0
LINE
  5
92
330
17
100
AcDbEntity
  8
0
100
AcDbLine
 10
39.58966893620027
 20
16.555038198269997
 30
3.999911513119514e-12
 11
40.71448921370029
 21
16.05231638533
 31
3.999911513119514e-12
  0
LINE
  5
93
330
17
100
AcDbEntity
  8
0
100
AcDbLine
 10
40.71448921370029
 20
16.05231638533
 30
3.999911513119514e-12
 11
41.845350365700256
 21
15.56333485922
 31
3.999911513119514e-12
  0
LINE
  5
94
330
17
100
AcDbEntity
  8
0
100
AcDbLine
 10
41.845350365700256
 20
15.56333485922
 30
3.999911513119514e-12
 11
42.98208455450026
 21
15.088166192499997
 31
3.999911513119514e-12
  0
LINE
  5
95
330
17
100
AcDbEntity
  8
0
100
AcDbLine
 10
42.98208455450026
 20
15.088166192499997
 30
3.999911513119514e-12
 11
44.12452307100028
 21
14.626880907659999
 31
3.999911513119514e-12
  0
LINE
  5
96
330
17
100
AcDbEntity
  8
0
100
AcDbLine
 10
44.12452307100028
 20
14.626880907659999
 30
3.999911513119514e-12
 11
45.27249635920026
 21
14.179547466709998
 31
3.999911513119514e-12
  0
LINE
  5
97
330
17
100
AcDbEntity
  8
0
100
AcDbLine
 10
45.27249635920026
 20
14.179547466709998
 30
3.999911513119514e-12
 11
46.425834042000304
 21
13.74623226097
 31
3.999911513119514e-12
  0
LINE
  5
98
330
17
100
AcDbEntity
  8
0
100
AcDbLine
 10
46.425834042000304
 20
13.74623226097
 30
3.999911513119514e-12
 11
47.58436494570026
 21
13.32699960123
 31
3.999911513119514e-12
  0
LINE
  5
99
330
17
100
AcDbEntity
  8
0
100
AcDbLine
 10
47.58436494570026
 20
13.32699960123
 30
3.999911513119514e-12
 11
48.747917126200264
 21
12.92191170821
 31
3.999911513119514e-12
  0
LINE
  5
9A
330
17
100
AcDbEntity
  8
0
100
AcDbLine
 10
48.747917126200264
 20
12.92191170821
 30
3.999911513119514e-12
 11
49.9163178941003
 21
12.531028703339999
 31
3.999911513119514e-12
  0
LINE
  5
9B
330
17
100
AcDbEntity
  8
0
100
AcDbLine
 10
49.9163178941003
 20
12.531028703339999
 30
3.999911513119514e-12
 11
51.08939384030026
 21
12.154408599789999
 31
5.000000413701855e-12
  0
LINE
  5
9C
330
17
100
AcDbEntity
  8
0
100
AcDbLine
 10
51.08939384030026
 20
12.154408599789999
 30
5.000000413701855e-12
 11
52.26697086190029
 21
11.792107293919997
 31
5.000000413701855e-12
  0
LINE
  5
9D
330
17
100
AcDbEntity
  8
0
100
AcDbLine
 10
52.26697086190029
 20
11.792107293919997
 30
5.000000413701855e-12
 11
53.4488741878003
 21
11.44417855695
 31
5.000000413701855e-12
  0
LINE
  5
9E
330
17
100
AcDbEntity
  8
0
100
AcDbLine
 10
53.4488741878003
 20
11.44417855695
 30
5.000000413701855e-12
 11
54.634928405100254
 21
11.110674026969999
 31
5.000000413701855e-12
  0
LINE
  5
9F
330
17
100
AcDbEntity
  8
0
100
AcDbLine
 10
54.634928405100254
 20
11.110674026969999
 30
5.000000413701855e-12
 11
55.82495748470029
 21
10.791643201309999
 31
5.000000413701855e-12
  0
LINE
  5
A0
330
17
100
AcDbEntity
  8
0
100
AcDbLine
 10
55.82495748470029
 20
10.791643201309999
 30
5.000000413701855e-12
 11
57.01878480750025
 21
10.48713342915
 31
5.000000413701855e-12
  0
LINE
  5
A1
330
17
100
AcDbEntity
  8
0
100
AcDbLine
 10
57.01878480750025
 20
10.48713342915
 30
5.000000413701855e-12
 11
58.21623319070028
 21
10.19718990454
 31
5.000000413701855e-12
  0
LINE
  5
A2
330
17
100
AcDbEntity
  8
0
100
AcDbLine
 10
58.21623319070028
 20
10.19718990454
 30
5.000000413701855e-12
 11
59.41712491410027
 21
9.92185565966
 31
5.000000413701855e-12
  0
LINE
  5
A3
330
17
100
AcDbEntity
  8
0
100
AcDbLine
 10
59.41712491410027
 20
9.92185565966
 30
5.000000413701855e-12
 11
60.62128174670028
 21
9.661171558439996
 31
5.000000413701855e-12
  0
LINE
  5
A4
330
17
100
AcDbEntity
  8
0
100
AcDbLine
 10
60.62128174670028
 20
9.661171558439996
 30
5.000000413701855e-12
 11
61.82852497240026
 21
9.415176290509997
 31
5.000000413701855e-12
  0
LINE
  5
A5
330
17
100
AcDbEntity
  8
0
100
AcDbLine
 10
61.82852497240026
 20
9.415176290509997
 30
5.000000413701855e-12
 11
63.03867541740027
 21
9.183906365429998
 31
5.000000413701855e-12
  0
LINE
  5
A6
330
17
100
AcDbEntity
  8
0
100
AcDbLine
 10
63.03867541740027
 20
9.183906365429998
 30
5.000000413701855e-12
 11
64.2515534765003
 21
8.967396107310002
 31
5.000000413701855e-12
  0
LINE
  5
A7
330
17
100
AcDbEntity
  8
0
100
AcDbLine
 10
64.2515534765003
 20
8.967396107310002
 30
5.000000413701855e-12
 11
65.4669791392003
 21
8.765677649669996
 31
5.000000413701855e-12
  0
LINE
  5
A8
330
17
100
AcDbEntity
  8
0
100
AcDbLine
 10
65.4669791392003
 20
8.765677649669996
 30
5.000000413701855e-12
 11
66.68477201750028
 21
8.578780930699999
 31
5.000000413701855e-12
  0
LINE
  5
A9
330
17
100
AcDbEntity
  8
0
100
AcDbLine
 10
66.68477201750028
 20
8.578780930699999
 30
5.000000413701855e-12
 11
67.9047513716003
 21
8.40673368881
 31
6.000089314284196e-12
  0
LINE
  5
AA
330
17
100
AcDbEntity
  8
0
100
AcDbLine
 10
67.9047513716003
 20
8.40673368881
 30
6.000089314284196e-12
 11
69.1267361375003
 21
8.249561458529996
 31
6.000089314284196e-12
  0
LINE
  5
AB
330
17
100
AcDbEntity
  8
0
100
AcDbLine
 10
69.1267361375003
 20
8.249561458529996
 30
6.000089314284196e-12
 11
70.3505449533003
 21
8.107287566689998
 31
6.000089314284196e-12
  0
LINE
  5
AC
330
17
100
AcDbEntity
  8
0
100
AcDbLine
 10
70.3505449533003
 20
8.107287566689998
 30
6.000089314284196e-12
 11
71.57599618650028
 21
7.979933128969996
 31
6.000089314284196e-12
  0
LINE
  5
AD
330
17
100
AcDbEntity
  8
0
100
AcDbLine
 10
71.57599618650028
 20
7.979933128969996
 30
6.000089314284196e-12
 11
72.8029079610003
 21
7.867517046769997
 31
6.000089314284196e-12
  0
LINE
  5
AE
330
17
100
AcDbEntity
  8
0
100
AcDbLine
 10
72.8029079610003
 20
7.867517046769997
 30
6.000089314284196e-12
 11
74.0310981837003
 21
7.770056004419999
 31
6.000089314284196e-12
  0
LINE
  5
AF
330
17
100
AcDbEntity
  8
0
100
AcDbLine
 10
74.0310981837003
 20
7.770056004419999
 30
6.000089314284196e-12
 11
75.26038457190026
 21
7.687564466650002
 31
6.000089314284196e-12
  0
LINE
  5
B0
330
17
100
AcDbEntity
  8
0
100
AcDbLine
 10
75.26038457190026
 20
7.687564466650002
 30
6.000089314284196e-12
 11
76.49058468000027
 21
7.6200546765100015
 31
6.000089314284196e-12
  0
LINE
  5
B1
330
17
100
AcDbEntity
  8
0
100
AcDbLine
 10
76.49058468000027
 20
7.6200546765100015
 30
6.000089314284196e-12
 11
77.7215159272003
 21
7.567536653529999
 31
6.000089314284196e-12
  0
LINE
  5
B2
330
17
100
AcDbEntity
  8
0
100
AcDbLine
 10
77.7215159272003
 20
7.567536653529999
 30
6.000089314284196e-12
 11
78.9529956237003
 21
7.530018192189999
 31
6.000089314284196e-12
  0
LINE
  5
B3
330
17
100
AcDbEntity
  8
0
100
AcDbLine
 10
78.9529956237003
 20
7.530018192189999
 30
6.000089314284196e-12
 11
80.18484099870028
 21
7.507504860829997
 31
6.000089314284196e-12
  0
LINE
  5
B4
330
17
100
AcDbEntity
  8
0
100
AcDbLine
 10
80.18484099870028
 20
7.507504860829997
 30
6.000089314284196e-12
 11
81.41686922680026
 21
7.500000000789996
 31
6.000089314284196e-12
  0
ENDSEC
  0
SECTION
  2
OBJECTS
  0
DICTIONARY
  5
A
330
0
100
AcDbDictionary
281
1
  3
ACAD_COLOR
350
B
  3
ACAD_GROUP
350
C
  3
ACAD_LAYOUT
350
D
  3
ACAD_MATERIAL
350
E
  3
ACAD_MLEADERSTYLE
350
F
  3
ACAD_MLINESTYLE
350
10
  3
ACAD_PLOTSETTINGS
350
11
  3
ACAD_PLOTSTYLENAME
350
12
  3
ACAD_SCALELIST
350
14
  3
ACAD_TABLESTYLE
350
15
  3
ACAD_VISUALSTYLE
350
16
  3
EZDXF_META
350
2D
  0
DICTIONARY
  5
B
330
A
100
AcDbDictionary
281
1
  0
DICTIONARY
  5
C
330
A
100
AcDbDictionary
281
1
  0
DICTIONARY
  5
D
330
A
100
AcDbDictionary
281
1
  3
Model
350
1A
  3
Layout1
350
1E
  0
DICTIONARY
  5
E
330
A
100
AcDbDictionary
281
1
  3
ByBlock
350
1F
  3
ByLayer
350
20
  3
Global
350
21
  0
DICTIONARY
  5
F
330
A
100
AcDbDictionary
281
1
  3
Standard
350
2C
  0
DICTIONARY
  5
10
330
A
100
AcDbDictionary
281
1
  3
Standard
350
22
  0
DICTIONARY
  5
11
330
A
100
AcDbDictionary
281
1
  0
ACDBDICTIONARYWDFLT
  5
12
330
A
100
AcDbDictionary
281
1
  3
Normal
350
13
100
AcDbDictionaryWithDefault
340
13
  0
ACDBPLACEHOLDER
  5
13
330
12
  0
DICTIONARY
  5
14
330
A
100
AcDbDictionary
281
1
  0
DICTIONARY
  5
15
330
A
100
AcDbDictionary
281
1
  0
DICTIONARY
  5
16
330
A
100
AcDbDictionary
281
1
  0
LAYOUT
  5
1A
330
D
100
AcDbPlotSettings
  1

  4
A3
  6

 40
7.5
 41
20.0
 42
7.5
 43
20.0
 44
420.0
 45
297.0
 46
0.0
 47
0.0
 48
0.0
 49
0.0
140
0.0
141
0.0
142
1.0
143
1.0
 70
1024
 72
1
 73
0
 74
5
  7

 75
16
 76
0
 77
2
 78
300
147
1.0
148
0.0
149
0.0
100
AcDbLayout
  1
Model
 70
1
 71
0
 10
0.0
 20
0.0
 11
420.0
 21
297.0
 12
0.0
 22
0.0
 32
0.0
 14
1e+20
 24
1e+20
 34
1e+20
 15
-1e+20
 25
-1e+20
 35
-1e+20
146
0.0
 13
0.0
 23
0.0
 33
0.0
 16
1.0
 26
0.0
 36
0.0
 17
0.0
 27
1.0
 37
0.0
 76
1
330
17
  0
LAYOUT
  5
1E
330
D
100
AcDbPlotSettings
  1

  4
A3
  6

 40
7.5
 41
20.0
 42
7.5
 43
20.0
 44
420.0
 45
297.0
 46
0.0
 47
0.0
 48
0.0
 49
0.0
140
0.0
141
0.0
142
1.0
143
1.0
 70
0
 72
1
 73
0
 74
5
  7

 75
16
 76
0
 77
2
 78
300
147
1.0
148
0.0
149
0.0
100
AcDbLayout
  1
Layout1
 70
1
 71
1
 10
0.0
 20
0.0
 11
420.0
 21
297.0
 12
0.0
 22
0.0
 32
0.0
 14
1e+20
 24
1e+20
 34
1e+20
 15
-1e+20
 25
-1e+20
 35
-1e+20
146
0.0
 13
0.0
 23
0.0
 33
0.0
 16
1.0
 26
0.0
 36
0.0
 17
0.0
 27
1.0
 37
0.0
 76
1
330
1B
  0
MATERIAL
  5
1F
102
{ACAD_REACTORS
330
E
102
}
330
E
100
AcDbMaterial
  1
ByBlock
  2

 70
0
 40
1.0
 71
1
 41
1.0
 91
-1023410177
 42
1.0
 72
1
  3

 73
1
 74
1
 75
1
 44
0.5
 73
0
 45
1.0
 46
1.0
 77
1
  4

 78
1
 79
1
170
1
 48
1.0
171
1
  6

172
1
173
1
174
1
140
1.0
141
1.0
175
1
  7

176
1
177
1
178
1
143
1.0
179
1
  8

270
1
271
1
272
1
145
1.0
146
1.0
273
1
  9

274
1
275
1
276
1
 42
1.0
 72
1
  3

 73
1
 74
1
 75
1
 94
63
  0
MATERIAL
  5
20
102
{ACAD_REACTORS
330
E
102
}
330
E
100
AcDbMaterial
  1
ByLayer
  2

 70
0
 40
1.0
 71
1
 41
1.0
 91
-1023410177
 42
1.0
 72
1
  3

 73
1
 74
1
 75
1
 44
0.5
 73
0
 45
1.0
 46
1.0
 77
1
  4

 78
1
 79
1
170
1
 48
1.0
171
1
  6

172
1
173
1
174
1
140
1.0
141
1.0
175
1
  7

176
1
177
1
178
1
143
1.0
179
1
  8

270
1
271
1
272
1
145
1.0
146
1.0
273
1
  9

274
1
275
1
276
1
 42
1.0
 72
1
  3

 73
1
 74
1
 75
1
 94
63
  0
MATERIAL
  5
21
102
{ACAD_REACTORS
330
E
102
}
330
E
100
AcDbMaterial
  1
Global
  2

 70
0
 40
1.0
 71
1
 41
1.0
 91
-1023410177
 42
1.0
 72
1
  3

 73
1
 74
1
 75
1
 44
0.5
 73
0
 45
1.0
 46
1.0
 77
1
  4

 78
1
 79
1
170
1
 48
1.0
171
1
  6

172
1
173
1
174
1
140
1.0
141
1.0
175
1
  7

176
1
177
1
178
1
143
1.0
179
1
  8

270
1
271
1
272
1
145
1.0
146
1.0
273
1
  9

274
1
275
1
276
1
 42
1.0
 72
1
  3

 73
1
 74
1
 75
1
 94
63
  0
MLINESTYLE
  5
22
102
{ACAD_REACTORS
330
10
102
}
330
10
100
AcDbMlineStyle
  2
Standard
 70
0
  3

 62
256
 51
90.0
 52
90.0
 71
2
 49
0.5
 62
256
  6
BYLAYER
 49
-0.5
 62
256
  6
BYLAYER
  0
MLEADERSTYLE
  5
2C
102
{ACAD_REACTORS
330
F
102
}
330
F
100
AcDbMLeaderStyle
179
2
170
2
171
1
172
0
 90
2
 40
0.0
 41
0.0
173
1
 91
-1056964608
 92
-2
290
1
 42
2.0
291
1
 43
8.0
  3
Standard
 44
4.0
300

342
29
174
1
175
1
176
0
178
1
 93
-1056964608
 45
4.0
292
0
297
0
 46
4.0
 94
-1056964608
 47
1.0
 49
1.0
140
1.0
294
1
141
0.0
177
0
142
1.0
295
0
296
0
143
3.75
271
0
272
9
273
9
  0
DICTIONARY
  5
2D
330
A
100
AcDbDictionary
280
1
281
1
  3
CREATED_BY_EZDXF
350
2E
  3
WRITTEN_BY_EZDXF
350
B8
  0
DICTIONARYVAR
  5
2E
330
2D
100
DictionaryVariables
280
0
  1
1.4.4 @ 2026-10-02T11:27:06.654469+00:00
  0
DICTIONARYVAR
  5
B8
330
2D
100
DictionaryVariables
280
0
  1
1.4.4 @ 2026-10-02T11:27:06.670849+00:00
  0
ENDSEC
  0
EOF
