  0
SECTION
  2
HEADER
  9
$ACADVER
  1
AC1027
  9
$ACADMAINTVER
 70
105
  9
$DWGCODEPAGE
  3
ANSI_1252
  9
$LASTSAVEDBY
  1
ezdxf
  9
$REQUIREDVERSIONS
160
0
  9
$INSBASE
 10
0.0
 20
0.0
 30
0.0
  9
$EXTMIN
 10
1e+20
 20
1e+20
 30
1e+20
  9
$EXTMAX
 10
-1e+20
 20
-1e+20
 30
-1e+20
  9
$LIMMIN
 10
0.0
 20
0.0
  9
$LIMMAX
 10
420.0
 20
297.0
  9
$ORTHOMODE
 70
0
  9
$REGENMODE
 70
1
  9
$FILLMODE
 70
1
  9
$QTEXTMODE
 70
0
  9
$MIRRTEXT
 70
1
  9
$LTSCALE
 40
1.0
  9
$ATTMODE
 70
1
  9
$TEXTSIZE
 40
2.5
  9
$TRACEWID
 40
1.0
  9
$TEXTSTYLE
  7
Standard
  9
$CLAYER
  8
0
  9
$CELTYPE
  6
ByLayer
  9
$CECOLOR
 62
256
  9
$CELTSCALE
 40
1.0
  9
$DISPSILH
 70
0
  9
$DIMSCALE
 40
1.0
  9
$DIMASZ
 40
2.5
  9
$DIMEXO
 40
0.625
  9
$DIMDLI
 40
3.75
  9
$DIMRND
 40
0.0
  9
$DIMDLE
 40
0.0
  9
$DIMEXE
 40
1.25
  9
$DIMTP
 40
0.0
  9
$DIMTM
 40
0.0
  9
$DIMTXT
 40
2.5
  9
$DIMCEN
 40
2.5
  9
$DIMTSZ
 40
0.0
  9
$DIMTOL
 70
0
  9
$DIMLIM
 70
0
  9
$DIMTIH
 70
0
  9
$DIMTOH
 70
0
  9
$DIMSE1
 70
0
  9
$DIMSE2
 70
0
  9
$DIMTAD
 70
1
  9
$DIMZIN
 70
8
  9
$DIMBLK
  1

  9
$DIMASO
 70
1
  9
$DIMSHO
 70
1
  9
$DIMPOST
  1

  9
$DIMAPOST
  1

  9
$DIMALT
 70
0
  9
$DIMALTD
 70
3
  9
$DIMALTF
 40
0.03937007874
  9
$DIMLFAC
 40
1.0
  9
$DIMTOFL
 70
1
  9
$DIMTVP
 40
0.0
  9
$DIMTIX
 70
0
  9
$DIMSOXD
 70
0
  9
$DIMSAH
 70
0
  9
$DIMBLK1
  1

  9
$DIMBLK2
  1

  9
$DIMSTYLE
  2
ISO-25
  9
$DIMCLRD
 70
0
  9
$DIMCLRE
 70
0
  9
$DIMCLRT
 70
0
  9
$DIMTFAC
 40
1.0
  9
$DIMGAP
 40
0.625
  9
$DIMJUST
 70
0
  9
$DIMSD1
 70
0
  9
$DIMSD2
 70
0
  9
$DIMTOLJ
 70
0
  9
$DIMTZIN
 70
8
  9
$DIMALTZ
 70
0
  9
$DIMALTTZ
 70
0
  9
$DIMUPT
 70
0
  9
$DIMDEC
 70
2
  9
$DIMTDEC
 70
2
  9
$DIMALTU
 70
2
  9
$DIMALTTD
 70
3
  9
$DIMTXSTY
  7
Standard
  9
$DIMAUNIT
 70
0
  9
$DIMADEC
 70
0
  9
$DIMALTRND
 40
0.0
  9
$DIMAZIN
 70
0
  9
$DIMDSEP
 70
44
  9
$DIMATFIT
 70
3
  9
$DIMFRAC
 70
0
  9
$DIMLDRBLK
  1

  9
$DIMLUNIT
 70
2
  9
$DIMLWD
 70
-2
  9
$DIMLWE
 70
-2
  9
$DIMTMOVE
 70
0
  9
$DIMFXL
 40
1.0
  9
$DIMFXLON
 70
0
  9
$DIMJOGANG
 40
0.785398163397
  9
$DIMTFILL
 70
0
  9
$DIMTFILLCLR
 70
0
  9
$DIMARCSYM
 70
0
  9
$DIMLTYPE
  6

  9
$DIMLTEX1
  6

  9
$DIMLTEX2
  6

  9
$DIMTXTDIRECTION
 70
0
  9
$LUNITS
 70
2
  9
$LUPREC
 70
4
  9
$SKETCHINC
 40
1.0
  9
$FILLETRAD
 40
10.0
  9
$AUNITS
 70
0
  9
$AUPREC
 70
2
  9
$MENU
  1
.
  9
$ELEVATION
 40
0.0
  9
$PELEVATION
 40
0.0
  9
$THICKNESS
 40
0.0
  9
$LIMCHECK
 70
0
  9
$CHAMFERA
 40
0.0
  9
$CHAMFERB
 40
0.0
  9
$CHAMFERC
 40
0.0
  9
$CHAMFERD
 40
0.0
  9
$SKPOLY
 70
0
  9
$TDCREATE
 40
2461316.7063425924
  9
$TDUCREATE
 40
2458532.153996898
  9
$TDUPDATE
 40
2461316.7063425924
  9
$TDUUPDATE
 40
2458532.1544311
  9
$TDINDWG
 40
0.0
  9
$TDUSRTIMER
 40
0.0
  9
$USRTIMER
 70
1
  9
$ANGBASE
 50
0.0
  9
$ANGDIR
 70
0
  9
$PDMODE
 70
0
  9
$PDSIZE
 40
0.0
  9
$PLINEWID
 40
0.0
  9
$SPLFRAME
 70
0
  9
$SPLINETYPE
 70
6
  9
$SPLINESEGS
 70
8
  9
$HANDSEED
  5
D2
  9
$SURFTAB1
 70
6
  9
$SURFTAB2
 70
6
  9
$SURFTYPE
 70
6
  9
$SURFU
 70
6
  9
$SURFV
 70
6
  9
$UCSBASE
  2

  9
$UCSNAME
  2

  9
$UCSORG
 10
0.0
 20
0.0
 30
0.0
  9
$UCSXDIR
 10
1.0
 20
0.0
 30
0.0
  9
$UCSYDIR
 10
0.0
 20
1.0
 30
0.0
  9
$UCSORTHOREF
  2

  9
$UCSORTHOVIEW
 70
0
  9
$UCSORGTOP
 10
0.0
 20
0.0
 30
0.0
  9
$UCSORGBOTTOM
 10
0.0
 20
0.0
 30
0.0
  9
$UCSORGLEFT
 10
0.0
 20
0.0
 30
0.0
  9
$UCSORGRIGHT
 10
0.0
 20
0.0
 30
0.0
  9
$UCSORGFRONT
 10
0.0
 20
0.0
 30
0.0
  9
$UCSORGBACK
 10
0.0
 20
0.0
 30
0.0
  9
$PUCSBASE
  2

  9
$PUCSNAME
  2

  9
$PUCSORG
 10
0.0
 20
0.0
 30
0.0
  9
$PUCSXDIR
 10
1.0
 20
0.0
 30
0.0
  9
$PUCSYDIR
 10
0.0
 20
1.0
 30
0.0
  9
$PUCSORTHOREF
  2

  9
$PUCSORTHOVIEW
 70
0
  9
$PUCSORGTOP
 10
0.0
 20
0.0
 30
0.0
  9
$PUCSORGBOTTOM
 10
0.0
 20
0.0
 30
0.0
  9
$PUCSORGLEFT
 10
0.0
 20
0.0
 30
0.0
  9
$PUCSORGRIGHT
 10
0.0
 20
0.0
 30
0.0
  9
$PUCSORGFRONT
 10
0.0
 20
0.0
 30
0.0
  9
$PUCSORGBACK
 10
0.0
 20
0.0
 30
0.0
  9
$USERI1
 70
0
  9
$USERI2
 70
0
  9
$USERI3
 70
0
  9
$USERI4
 70
0
  9
$USERI5
 70
0
  9
$USERR1
 40
0.0
  9
$USERR2
 40
0.0
  9
$USERR3
 40
0.0
  9
$USERR4
 40
0.0
  9
$USERR5
 40
0.0
  9
$WORLDVIEW
 70
1
  9
$SHADEDGE
 70
3
  9
$SHADEDIF
 70
70
  9
$TILEMODE
 70
1
  9
$MAXACTVP
 70
64
  9
$PINSBASE
 10
0.0
 20
0.0
 30
0.0
  9
$PLIMCHECK
 70
0
  9
$PEXTMIN
 10
1e+20
 20
1e+20
 30
1e+20
  9
$PEXTMAX
 10
-1e+20
 20
-1e+20
 30
-1e+20
  9
$PLIMMIN
 10
0.0
 20
0.0
  9
$PLIMMAX
 10
420.0
 20
297.0
  9
$UNITMODE
 70
0
  9
$VISRETAIN
 70
1
  9
$PLINEGEN
 70
0
  9
$PSLTSCALE
 70
1
  9
$TREEDEPTH
 70
3020
  9
$CMLSTYLE
  2
Standard
  9
$CMLJUST
 70
0
  9
$CMLSCALE
 40
20.0
  9
$PROXYGRAPHICS
 70
1
  9
$MEASUREMENT
 70
1
  9
$CELWEIGHT
370
-1
  9
$ENDCAPS
280
0
  9
$JOINSTYLE
280
0
  9
$LWDISPLAY
290
0
  9
$INSUNITS
 70
4
  9
$HYPERLINKBASE
  1

  9
$STYLESHEET
  1

  9
$XEDIT
290
1
  9
$CEPSNTYPE
380
0
  9
$PSTYLEMODE
290
1
  9
$FINGERPRINTGUID
  2
{62EE7320-D7B9-4B6D-A872-9603ECBB3948}
  9
$VERSIONGUID
  2
{1B3D8F11-D5F8-4993-ACDF-75B940910C34}
  9
$EXTNAMES
290
1
  9
$PSVPSCALE
 40
0.0
  9
$OLESTARTUP
290
0
  9
$SORTENTS
280
127
  9
$INDEXCTL
280
0
  9
$HIDETEXT
280
1
  9
$XCLIPFRAME
280
1
  9
$HALOGAP
280
0
  9
$OBSCOLOR
 70
257
  9
$OBSLTYPE
280
0
  9
$INTERSECTIONDISPLAY
280
0
  9
$INTERSECTIONCOLOR
 70
257
  9
$DIMASSOC
280
2
  9
$PROJECTNAME
  1

  9
$CAMERADISPLAY
290
0
  9
$LENSLENGTH
 40
50.0
  9
$CAMERAHEIGHT
 40
0.0
  9
$STEPSPERSEC
 40
24.0
  9
$STEPSIZE
 40
100.0
  9
$3DDWFPREC
 40
2.0
  9
$PSOLWIDTH
 40
0.005
  9
$PSOLHEIGHT
 40
0.08
  9
$LOFTANG1
 40
1.570796326795
  9
$LOFTANG2
 40
1.570796326795
  9
$LOFTMAG1
 40
0.0
  9
$LOFTMAG2
 40
0.0
  9
$LOFTPARAM
 70
7
  9
$LOFTNORMALS
280
1
  9
$LATITUDE
 40
37.795
  9
$LONGITUDE
 40
-122.394
  9
$NORTHDIRECTION
 40
0.0
  9
$TIMEZONE
 70
-8000
  9
$LIGHTGLYPHDISPLAY
280
1
  9
$TILEMODELIGHTSYNCH
280
1
  9
$CMATERIAL
347
20
  9
$SOLIDHIST
280
0
  9
$SHOWHIST
280
1
  9
$DWFFRAME
280
2
  9
$DGNFRAME
280
2
  9
$REALWORLDSCALE
290
1
  9
$INTERFERECOLOR
 62
256
  9
$CSHADOW
280
0
  9
$SHADOWPLANELOCATION
 40
0.0
  0
ENDSEC
  0
SECTION
  2
CLASSES
  0
CLASS
  1
ACDBDICTIONARYWDFLT
  2
AcDbDictionaryWithDefault
  3
ObjectDBX Classes
 90
0
 91
0
280
0
281
0
  0
CLASS
  1
SUN
  2
AcDbSun
  3
SCENEOE
 90
1153
 91
0
280
0
281
0
  0
CLASS
  1
VISUALSTYLE
  2
AcDbVisualStyle
  3
ObjectDBX Classes
 90
4095
 91
0
280
0
281
0
  0
CLASS
  1
MATERIAL
  2
AcDbMaterial
  3
ObjectDBX Classes
 90
1153
 91
0
280
0
281
0
  0
CLASS
  1
SCALE
  2
AcDbScale
  3
ObjectDBX Classes
 90
1153
 91
0
280
0
281
0
  0
CLASS
  1
TABLESTYLE
  2
AcDbTableStyle
  3
ObjectDBX Classes
 90
4095
 91
0
280
0
281
0
  0
CLASS
  1
MLEADERSTYLE
  2
AcDbMLeaderStyle
  3
ACDB_MLEADERSTYLE_CLASS
 90
4095
 91
0
280
0
281
0
  0
CLASS
  1
DICTIONARYVAR
  2
AcDbDictionaryVar
  3
ObjectDBX Classes
 90
0
 91
0
280
0
281
0
  0
CLASS
  1
CELLSTYLEMAP
  2
AcDbCellStyleMap
  3
ObjectDBX Classes
 90
1152
 91
0
280
0
281
0
  0
CLASS
  1
MENTALRAYRENDERSETTINGS
  2
AcDbMentalRayRenderSettings
  3
SCENEOE
 90
1024
 91
0
280
0
281
0
  0
CLASS
  1
ACDBDETAILVIEWSTYLE
  2
AcDbDetailViewStyle
  3
ObjectDBX Classes
 90
1025
 91
0
280
0
281
0
  0
CLASS
  1
ACDBSECTIONVIEWSTYLE
  2
AcDbSectionViewStyle
  3
ObjectDBX Classes
 90
1025
 91
0
280
0
281
0
  0
CLASS
  1
RASTERVARIABLES
  2
AcDbRasterVariables
  3
ISM
 90
0
 91
0
280
0
281
0
  0
CLASS
  1
LAYOUT
  2
AcDbLayout
  3
ObjectDBX Classes
 90
0
 91
0
280
0
281
0
  0
CLASS
  1
ACDBPLACEHOLDER
  2
AcDbPlaceHolder
  3
ObjectDBX Classes
 90
0
 91
0
280
0
281
0
  0
ENDSEC
  0
SECTION
  2
TABLES
  0
TABLE
  2
VPORT
  5
8
330
0
100
AcDbSymbolTable
 70
1
  0
VPORT
  5
CE
330
8
100
AcDbSymbolTableRecord
100
AcDbViewportTableRecord
  2
*Active
 70
0
 10
0.0
 20
0.0
 11
1.0
 21
1.0
 12
241.32500000464026
 22
17.856961715820965
 13
0.0
 23
0.0
 14
0.5
 24
0.5
 15
0.5
 25
0.5
 16
0.0
 26
0.0
 36
1.0
 17
0.0
 27
0.0
 37
0.0
 40
241.32500000464
 41
1.34
 42
50.0
 43
0.0
 44
0.0
 50
0.0
 51
0.0
 71
0
 72
1000
 73
1
 74
3
 75
0
 76
0
 77
0
 78
0
281
0
 65
1
110
0.0
120
0.0
130
0.0
111
1.0
121
0.0
131
0.0
112
0.0
122
1.0
132
0.0
 79
0
146
0.0
  0
ENDTAB
  0
TABLE
  2
LTYPE
  5
2
330
0
100
AcDbSymbolTable
 70
3
  0
LTYPE
  5
24
330
2
100
AcDbSymbolTableRecord
100
AcDbLinetypeTableRecord
  2
ByBlock
 70
0
  3

 72
65
 73
0
 40
0.0
  0
LTYPE
  5
25
330
2
100
AcDbSymbolTableRecord
100
AcDbLinetypeTableRecord
  2
ByLayer
 70
0
  3

 72
65
 73
0
 40
0.0
  0
LTYPE
  5
26
330
2
100
AcDbSymbolTableRecord
100
AcDbLinetypeTableRecord
  2
Continuous
 70
0
  3

 72
65
 73
0
 40
0.0
  0
ENDTAB
  0
TABLE
  2
LAYER
  5
1
330
0
100
AcDbSymbolTable
 70
2
  0
LAYER
  5
27
330
1
100
AcDbSymbolTableRecord
100
AcDbLayerTableRecord
  2
0
 70
0
 62
7
  6
Continuous
370
-3
390
13
347
21
  0
LAYER
  5
28
330
1
100
AcDbSymbolTableRecord
100
AcDbLayerTableRecord
  2
Defpoints
 70
0
 62
7
  6
Continuous
290
0
370
-3
390
13
347
21
  0
ENDTAB
  0
TABLE
  2
STYLE
  5
5
330
0
100
AcDbSymbolTable
 70
1
  0
STYLE
  5
29
330
5
100
AcDbSymbolTableRecord
100
AcDbTextStyleTableRecord
  2
Standard
 70
0
 40
0.0
 41
1.0
 50
0.0
 71
0
 42
2.5
  3
txt
  4

  0
ENDTAB
  0
TABLE
  2
VIEW
  5
7
330
0
100
AcDbSymbolTable
 70
0
  0
ENDTAB
  0
TABLE
  2
UCS
  5
6
330
0
100
AcDbSymbolTable
 70
0
  0
ENDTAB
  0
TABLE
  2
APPID
  5
3
330
0
100
AcDbSymbolTable
 70
3
  0
APPID
  5
2A
330
3
100
AcDbSymbolTableRecord
100
AcDbRegAppTableRecord
  2
ACAD
 70
0
  0
APPID
  5
CF
330
3
100
AcDbSymbolTableRecord
100
AcDbRegAppTableRecord
  2
HATCHBACKGROUNDCOLOR
 70
0
  0
APPID
  5
D0
330
3
100
AcDbSymbolTableRecord
100
AcDbRegAppTableRecord
  2
EZDXF
 70
0
  0
ENDTAB
  0
TABLE
  2
DIMSTYLE
  5
4
330
0
100
AcDbSymbolTable
 70
1
100
AcDbDimStyleTable
  0
DIMSTYLE
105
2B
330
4
100
AcDbSymbolTableRecord
100
AcDbDimStyleTableRecord
  2
Standard
 70
0
 40
1.0
 41
2.5
 42
0.625
 43
3.75
 44
1.25
 45
0.0
 46
0.0
 47
0.0
 48
0.0
 49
2.5
140
2.5
141
2.5
142
0.0
143
0.03937007874
144
1.0
145
0.0
146
1.0
147
0.625
148
0.0
 69
0
 70
0
 71
0
 72
0
 73
0
 74
0
 75
0
 76
0
 77
1
 78
8
 79
3
170
0
171
3
172
1
173
0
174
0
175
0
176
0
177
0
178
0
179
2
271
2
272
2
273
2
274
3
275
0
276
0
277
2
278
44
279
0
280
0
281
0
282
0
283
0
284
8
285
0
286
0
288
0
289
3
290
0
371
-2
372
-2
  0
ENDTAB
  0
TABLE
  2
BLOCK_RECORD
  5
9
330
0
100
AcDbSymbolTable
 70
2
  0
BLOCK_RECORD
  5
17
330
9
100
AcDbSymbolTableRecord
100
AcDbBlockTableRecord
  2
*Model_Space
340
1A
 70
0
280
1
281
0
  0
BLOCK_RECORD
  5
1B
330
9
100
AcDbSymbolTableRecord
100
AcDbBlockTableRecord
  2
*Paper_Space
340
1E
 70
0
280
1
281
0
  0
ENDTAB
  0
ENDSEC
  0
SECTION
  2
BLOCKS
  0
BLOCK
  5
18
330
17
100
AcDbEntity
  8
0
100
AcDbBlockBegin
  2
*Model_Space
 70
0
 10
0.0
 20
0.0
 30
0.0
  3
*Model_Space
  1

  0
ENDBLK
  5
19
330
17
100
AcDbEntity
  8
0
100
AcDbBlockEnd
  0
BLOCK
  5
1C
330
1B
100
AcDbEntity
  8
0
100
AcDbBlockBegin
  2
*Paper_Space
 70
0
 10
0.0
 20
0.0
 30
0.0
  3
*Paper_Space
  1

  0
ENDBLK
  5
1D
330
1B
100
AcDbEntity
  8
0
100
AcDbBlockEnd
  0
ENDSEC
  0
SECTION
  2
ENTITIES
  0
LINE
  5
2F
330
17
100
AcDbEntity
  8
0
100
AcDbLine
 10
351.2256004471302
 20
13.305319757613965
 30
1.5000001241105565e-11
 11
352.65281638677027
 21
13.394508811323963
 31
1.5000001241105565e-11
  0
LINE
  5
30
330
17
100
AcDbEntity
  8
0
100
AcDbLine
 10
352.65281638677027
 20
13.394508811323963
 30
1.5000001241105565e-11
 11
354.49999990051026
 21
13.514287987183963
 31
1.5000001241105565e-11
  0
LINE
  5
31
330
17
100
AcDbEntity
  8
0
100
AcDbLine
 10
354.49999990051026
 20
13.514287987183963
 30
1.5000001241105565e-11
 11
354.49999989999026
 21
10.713923531633963
 31
1.5000001241105565e-11
  0
LINE
  5
32
330
17
100
AcDbEntity
  8
0
100
AcDbLine
 10
354.49999989999026
 20
10.713923531633963
 30
1.5000001241105565e-11
 11
360.49999989999026
 21
10.713923531633963
 31
1.5000001241105565e-11
  0
LINE
  5
33
330
17
100
AcDbEntity
  8
0
100
AcDbLine
 10
360.49999989999026
 20
10.713923531633963
 30
1.5000001241105565e-11
 11
360.49999989998025
 21
13.912691093083964
 31
1.5000001241105565e-11
  0
LINE
  5
34
330
17
100
AcDbEntity
  8
0
100
AcDbLine
 10
360.49999989998025
 20
13.912691093083964
 30
1.5000001241105565e-11
 11
362.2790929349403
 21
14.035433428953965
 31
1.5000001241105565e-11
  0
LINE
  5
35
330
17
100
AcDbEntity
  8
0
100
AcDbLine
 10
362.2790929349403
 20
14.035433428953965
 30
1.5000001241105565e-11
 11
365.9331096485603
 21
14.293644230253964
 31
1.5000001241105565e-11
  0
LINE
  5
36
330
17
100
AcDbEntity
  8
0
100
AcDbLine
 10
365.9331096485603
 20
14.293644230253964
 30
1.5000001241105565e-11
 11
368.7979318912203
 21
14.503180726943963
 31
1.5000001241105565e-11
  0
LINE
  5
37
330
17
100
AcDbEntity
  8
0
100
AcDbLine
 10
368.7979318912203
 20
14.503180726943963
 30
1.5000001241105565e-11
 11
372.43072339790024
 21
14.776202872733965
 31
1.6000090141687906e-11
  0
LINE
  5
38
330
17
100
AcDbEntity
  8
0
100
AcDbLine
 10
372.43072339790024
 20
14.776202872733965
 30
1.6000090141687906e-11
 11
375.2987843158203
 21
14.997884930283963
 31
1.6000090141687906e-11
  0
LINE
  5
39
330
17
100
AcDbEntity
  8
0
100
AcDbLine
 10
375.2987843158203
 20
14.997884930283963
 30
1.6000090141687906e-11
 11
378.93943991588026
 21
15.287855611153965
 31
1.6000090141687906e-11
  0
LINE
  5
3A
330
17
100
AcDbEntity
  8
0
100
AcDbLine
 10
378.93943991588026
 20
15.287855611153965
 30
1.6000090141687906e-11
 11
381.7875548343702
 21
15.519829386973964
 31
1.6000090141687906e-11
  0
LINE
  5
3B
330
17
100
AcDbEntity
  8
0
100
AcDbLine
 10
381.7875548343702
 20
15.519829386973964
 30
1.6000090141687906e-11
 11
385.4683614292303
 21
15.829547690373964
 31
1.6000090141687906e-11
  0
LINE
  5
3C
330
17
100
AcDbEntity
  8
0
100
AcDbLine
 10
385.4683614292303
 20
15.829547690373964
 30
1.6000090141687906e-11
 11
388.2674517807402
 21
16.069166052053962
 31
1.6000090141687906e-11
  0
LINE
  5
3D
330
17
100
AcDbEntity
  8
0
100
AcDbLine
 10
388.2674517807402
 20
16.069166052053962
 30
1.6000090141687906e-11
 11
392.0377649511403
 21
16.403380674893963
 31
1.6000090141687906e-11
  0
LINE
  5
3E
330
17
100
AcDbEntity
  8
0
100
AcDbLine
 10
392.0377649511403
 20
16.403380674893963
 30
1.6000090141687906e-11
 11
394.74034399405025
 21
16.645981345303962
 31
1.6000090141687906e-11
  0
LINE
  5
3F
330
17
100
AcDbEntity
  8
0
100
AcDbLine
 10
394.74034399405025
 20
16.645981345303962
 30
1.6000090141687906e-11
 11
398.70338898057025
 21
17.015126640443963
 31
1.6000090141687906e-11
  0
LINE
  5
40
330
17
100
AcDbEntity
  8
0
100
AcDbLine
 10
398.70338898057025
 20
17.015126640443963
 30
1.6000090141687906e-11
 11
401.2073733199203
 21
17.250325884953963
 31
1.7000179042270247e-11
  0
LINE
  5
41
330
17
100
AcDbEntity
  8
0
100
AcDbLine
 10
401.2073733199203
 20
17.250325884953963
 30
1.7000179042270247e-11
 11
407.6692591939103
 21
17.882229273753964
 31
1.7000179042270247e-11
  0
LINE
  5
42
330
17
100
AcDbEntity
  8
0
100
AcDbLine
 10
407.6692591939103
 20
17.882229273753964
 30
1.7000179042270247e-11
 11
414.1265016769503
 21
18.541931026533963
 31
1.7000179042270247e-11
  0
LINE
  5
43
330
17
100
AcDbEntity
  8
0
100
AcDbLine
 10
414.1265016769503
 20
18.541931026533963
 30
1.7000179042270247e-11
 11
420.5813978332502
 21
19.230317870193964
 31
1.7000179042270247e-11
  0
LINE
  5
44
330
17
100
AcDbEntity
  8
0
100
AcDbLine
 10
420.5813978332502
 20
19.230317870193964
 30
1.7000179042270247e-11
 11
427.0353863124702
 21
19.946682075133964
 31
1.7000179042270247e-11
  0
LINE
  5
45
330
17
100
AcDbEntity
  8
0
100
AcDbLine
 10
427.0353863124702
 20
19.946682075133964
 30
1.7000179042270247e-11
 11
429.63176249565026
 21
20.244745026073964
 31
1.7999823853642738e-11
  0
LINE
  5
46
330
17
100
AcDbEntity
  8
0
100
AcDbLine
 10
429.63176249565026
 20
20.244745026073964
 30
1.7999823853642738e-11
 11
433.4890093503602
 21
20.691115616853963
 31
1.7999823853642738e-11
  0
LINE
  5
47
330
17
100
AcDbEntity
  8
0
100
AcDbLine
 10
433.4890093503602
 20
20.691115616853963
 30
1.7999823853642738e-11
 11
436.2292178905102
 21
21.017158860023965
 31
1.7999823853642738e-11
  0
LINE
  5
48
330
17
100
AcDbEntity
  8
0
100
AcDbLine
 10
436.2292178905102
 20
21.017158860023965
 30
1.7999823853642738e-11
 11
439.94311880879025
 21
21.463759224363965
 31
1.7999823853642738e-11
  0
LINE
  5
49
330
17
100
AcDbEntity
  8
0
100
AcDbLine
 10
439.94311880879025
 20
21.463759224363965
 30
1.7999823853642738e-11
 11
442.75469470863027
 21
21.810072751473964
 31
1.7999823853642738e-11
  0
LINE
  5
4A
330
17
100
AcDbEntity
  8
0
100
AcDbLine
 10
442.75469470863027
 20
21.810072751473964
 30
1.7999823853642738e-11
 11
446.39908156385025
 21
22.264835062453965
 31
1.7999823853642738e-11
  0
LINE
  5
4B
330
17
100
AcDbEntity
  8
0
100
AcDbLine
 10
446.39908156385025
 20
22.264835062453965
 30
1.7999823853642738e-11
 11
449.24422453286024
 21
22.627214589833965
 31
1.7999823853642738e-11
  0
LINE
  5
4C
330
17
100
AcDbEntity
  8
0
100
AcDbLine
 10
449.24422453286024
 20
22.627214589833965
 30
1.7999823853642738e-11
 11
452.8591734324202
 21
23.094709414773963
 31
1.7999823853642738e-11
  0
LINE
  5
4D
330
17
100
AcDbEntity
  8
0
100
AcDbLine
 10
452.8591734324202
 20
23.094709414773963
 30
1.7999823853642738e-11
 11
455.7122550499503
 21
23.470077356723962
 31
1.7999823853642738e-11
  0
LINE
  5
4E
330
17
100
AcDbEntity
  8
0
100
AcDbLine
 10
455.7122550499503
 20
23.470077356723962
 30
1.7999823853642738e-11
 11
459.3274000189102
 21
23.954023300533965
 31
1.899991275422508e-11
  0
LINE
  5
4F
330
17
100
AcDbEntity
  8
0
100
AcDbLine
 10
459.3274000189102
 20
23.954023300533965
 30
1.899991275422508e-11
 11
462.1656667212402
 21
24.339370151623964
 31
1.899991275422508e-11
  0
LINE
  5
50
330
17
100
AcDbEntity
  8
0
100
AcDbLine
 10
462.1656667212402
 20
24.339370151623964
 30
1.899991275422508e-11
 11
465.8114032800502
 21
24.843995855203964
 31
1.899991275422508e-11
  0
LINE
  5
51
330
17
100
AcDbEntity
  8
0
100
AcDbLine
 10
465.8114032800502
 20
24.843995855203964
 30
1.899991275422508e-11
 11
467.65000000549026
 21
25.101354659393962
 31
1.899991275422508e-11
  0
LINE
  5
52
330
17
100
AcDbEntity
  8
0
100
AcDbLine
 10
467.65000000549026
 20
25.101354659393962
 30
1.899991275422508e-11
 11
467.6500000055602
 21
35.713923431637966
 31
1.7999823853642738e-11
  0
LINE
  5
53
330
17
100
AcDbEntity
  8
0
100
AcDbLine
 10
467.6500000055602
 20
35.713923431637966
 30
1.7999823853642738e-11
 11
477.6500000056002
 21
35.713923431637966
 31
1.7999823853642738e-11
  0
LINE
  5
54
330
17
100
AcDbEntity
  8
0
100
AcDbLine
 10
477.6500000056002
 20
35.713923431637966
 30
1.7999823853642738e-11
 11
477.6500000056102
 21
31.713923382643962
 31
1.899991275422508e-11
  0
LINE
  5
55
330
17
100
AcDbEntity
  8
0
100
AcDbLine
 10
477.6500000056102
 20
31.713923382643962
 30
1.899991275422508e-11
 11
482.6500000056102
 21
31.713923382643962
 31
1.899991275422508e-11
  0
LINE
  5
56
330
17
100
AcDbEntity
  8
0
100
AcDbLine
 10
482.6500000056102
 20
31.713923382643962
 30
1.899991275422508e-11
 11
482.6500000056002
 21
27.287028494313965
 31
1.899991275422508e-11
  0
LINE
  5
57
330
17
100
AcDbEntity
  8
0
100
AcDbLine
 10
482.6500000056002
 20
27.287028494313965
 30
1.899991275422508e-11
 11
482.65000000928023
 21
19.701785444133964
 31
2.000000165480742e-11
  0
LINE
  5
58
330
17
100
AcDbEntity
  8
0
100
AcDbLine
 10
482.65000000928023
 20
19.701785444133964
 30
2.000000165480742e-11
 11
477.6500000056102
 21
18.960847264853964
 31
2.000000165480742e-11
  0
LINE
  5
59
330
17
100
AcDbEntity
  8
0
100
AcDbLine
 10
477.6500000056102
 20
18.960847264853964
 30
2.000000165480742e-11
 11
477.6500000056002
 21
18.958812310273963
 31
2.000000165480742e-11
  0
LINE
  5
5A
330
17
100
AcDbEntity
  8
0
100
AcDbLine
 10
477.6500000056002
 20
18.958812310273963
 30
2.000000165480742e-11
 11
476.5129019731802
 21
18.792343395813965
 31
2.000000165480742e-11
  0
LINE
  5
5B
330
17
100
AcDbEntity
  8
0
100
AcDbLine
 10
476.5129019731802
 20
18.792343395813965
 30
2.000000165480742e-11
 11
474.63317617734026
 21
18.521972621973966
 31
2.000000165480742e-11
  0
LINE
  5
5C
330
17
100
AcDbEntity
  8
0
100
AcDbLine
 10
474.63317617734026
 20
18.521972621973966
 30
2.000000165480742e-11
 11
471.8222856691302
 21
18.114952324013963
 31
2.000000165480742e-11
  0
LINE
  5
5D
330
17
100
AcDbEntity
  8
0
100
AcDbLine
 10
471.8222856691302
 20
18.114952324013963
 30
2.000000165480742e-11
 11
470.9169101286202
 21
17.987442676353965
 31
1.899991275422508e-11
  0
LINE
  5
5E
330
17
100
AcDbEntity
  8
0
100
AcDbLine
 10
470.9169101286202
 20
17.987442676353965
 30
1.899991275422508e-11
 11
470.1206677496202
 21
17.872914978403966
 31
1.899991275422508e-11
  0
LINE
  5
5F
330
17
100
AcDbEntity
  8
0
100
AcDbLine
 10
470.1206677496202
 20
17.872914978403966
 30
1.899991275422508e-11
 11
468.3492697792102
 21
17.625825975203963
 31
1.899991275422508e-11
  0
LINE
  5
60
330
17
100
AcDbEntity
  8
0
100
AcDbLine
 10
468.3492697792102
 20
17.625825975203963
 30
1.899991275422508e-11
 11
465.9913363221002
 21
17.293743595163964
 31
1.899991275422508e-11
  0
LINE
  5
61
330
17
100
AcDbEntity
  8
0
100
AcDbLine
 10
465.9913363221002
 20
17.293743595163964
 30
1.899991275422508e-11
 11
464.7746804586602
 21
17.127213169473965
 31
1.899991275422508e-11
  0
LINE
  5
62
330
17
100
AcDbEntity
  8
0
100
AcDbLine
 10
464.7746804586602
 20
17.127213169473965
 30
1.899991275422508e-11
 11
463.72457338658023
 21
16.980735690093965
 31
1.899991275422508e-11
  0
LINE
  5
63
330
17
100
AcDbEntity
  8
0
100
AcDbLine
 10
463.72457338658023
 20
16.980735690093965
 30
1.899991275422508e-11
 11
462.1381050435002
 21
16.766330491443963
 31
1.899991275422508e-11
  0
LINE
  5
64
330
17
100
AcDbEntity
  8
0
100
AcDbLine
 10
462.1381050435002
 20
16.766330491443963
 30
1.899991275422508e-11
 11
460.1572400053402
 21
16.495198523943962
 31
1.899991275422508e-11
  0
LINE
  5
65
330
17
100
AcDbEntity
  8
0
100
AcDbLine
 10
460.1572400053402
 20
16.495198523943962
 30
1.899991275422508e-11
 11
458.6191405360303
 21
16.290755742333964
 31
1.899991275422508e-11
  0
LINE
  5
66
330
17
100
AcDbEntity
  8
0
100
AcDbLine
 10
458.6191405360303
 20
16.290755742333964
 30
1.899991275422508e-11
 11
457.32473504242023
 21
16.115821733593965
 31
1.899991275422508e-11
  0
LINE
  5
67
330
17
100
AcDbEntity
  8
0
100
AcDbLine
 10
457.32473504242023
 20
16.115821733593965
 30
1.899991275422508e-11
 11
455.9583390708202
 21
15.937084433213965
 31
1.899991275422508e-11
  0
LINE
  5
68
330
17
100
AcDbEntity
  8
0
100
AcDbLine
 10
455.9583390708202
 20
15.937084433213965
 30
1.899991275422508e-11
 11
454.3200848073302
 21
15.719329167503965
 31
1.899991275422508e-11
  0
LINE
  5
69
330
17
100
AcDbEntity
  8
0
100
AcDbLine
 10
454.3200848073302
 20
15.719329167503965
 30
1.899991275422508e-11
 11
452.44424473662025
 21
15.477408213683965
 31
1.899991275422508e-11
  0
LINE
  5
6A
330
17
100
AcDbEntity
  8
0
100
AcDbLine
 10
452.44424473662025
 20
15.477408213683965
 30
1.899991275422508e-11
 11
450.9212689435202
 21
15.278188816483965
 31
1.899991275422508e-11
  0
LINE
  5
6B
330
17
100
AcDbEntity
  8
0
100
AcDbLine
 10
450.9212689435202
 20
15.278188816483965
 30
1.899991275422508e-11
 11
449.79406318008023
 21
15.135622973053962
 31
1.899991275422508e-11
  0
LINE
  5
6C
330
17
100
AcDbEntity
  8
0
100
AcDbLine
 10
449.79406318008023
 20
15.135622973053962
 30
1.899991275422508e-11
 11
448.4799588627102
 21
14.966147240633966
 31
1.899991275422508e-11
  0
LINE
  5
6D
330
17
100
AcDbEntity
  8
0
100
AcDbLine
 10
448.4799588627102
 20
14.966147240633966
 30
1.899991275422508e-11
 11
446.23751379647024
 21
14.685800519153965
 31
1.899991275422508e-11
  0
LINE
  5
6E
330
17
100
AcDbEntity
  8
0
100
AcDbLine
 10
446.23751379647024
 20
14.685800519153965
 30
1.899991275422508e-11
 11
444.5142913821602
 21
14.467852150843964
 31
1.899991275422508e-11
  0
LINE
  5
6F
330
17
100
AcDbEntity
  8
0
100
AcDbLine
 10
444.5142913821602
 20
14.467852150843964
 30
1.899991275422508e-11
 11
443.6378869073202
 21
14.360799525203962
 31
1.899991275422508e-11
  0
LINE
  5
70
330
17
100
AcDbEntity
  8
0
100
AcDbLine
 10
443.6378869073202
 20
14.360799525203962
 30
1.899991275422508e-11
 11
442.6369503510002
 21
14.235664115553963
 31
1.899991275422508e-11
  0
LINE
  5
71
330
17
100
AcDbEntity
  8
0
100
AcDbLine
 10
442.6369503510002
 20
14.235664115553963
 30
1.899991275422508e-11
 11
439.96863334618024
 21
13.912600960333965
 31
1.7999823853642738e-11
  0
LINE
  5
72
330
17
100
AcDbEntity
  8
0
100
AcDbLine
 10
439.96863334618024
 20
13.912600960333965
 30
1.7999823853642738e-11
 11
438.10391871435024
 21
13.684826453073963
 31
1.7999823853642738e-11
  0
LINE
  5
73
330
17
100
AcDbEntity
  8
0
100
AcDbLine
 10
438.10391871435024
 20
13.684826453073963
 30
1.7999823853642738e-11
 11
437.4859378204302
 21
13.612011694293965
 31
1.7999823853642738e-11
  0
LINE
  5
74
330
17
100
AcDbEntity
  8
0
100
AcDbLine
 10
437.4859378204302
 20
13.612011694293965
 30
1.7999823853642738e-11
 11
436.79114749522023
 21
13.527890821753964
 31
1.7999823853642738e-11
  0
LINE
  5
75
330
17
100
AcDbEntity
  8
0
100
AcDbLine
 10
436.79114749522023
 20
13.527890821753964
 30
1.7999823853642738e-11
 11
431.6902673578003
 21
12.929125943583962
 31
1.7999823853642738e-11
  0
LINE
  5
76
330
17
100
AcDbEntity
  8
0
100
AcDbLine
 10
431.6902673578003
 20
12.929125943583962
 30
1.7999823853642738e-11
 11
430.94263856062025
 21
12.842838045833965
 31
1.7999823853642738e-11
  0
LINE
  5
77
330
17
100
AcDbEntity
  8
0
100
AcDbLine
 10
430.94263856062025
 20
12.842838045833965
 30
1.7999823853642738e-11
 11
425.09151185325027
 21
12.180516131353965
 31
1.7999823853642738e-11
  0
LINE
  5
78
330
17
100
AcDbEntity
  8
0
100
AcDbLine
 10
425.09151185325027
 20
12.180516131353965
 30
1.7999823853642738e-11
 11
419.2378557187602
 21
11.540935078633964
 31
1.7999823853642738e-11
  0
LINE
  5
79
330
17
100
AcDbEntity
  8
0
100
AcDbLine
 10
419.2378557187602
 20
11.540935078633964
 30
1.7999823853642738e-11
 11
413.38175854092026
 21
10.924104544663965
 31
1.7999823853642738e-11
  0
LINE
  5
7A
330
17
100
AcDbEntity
  8
0
100
AcDbLine
 10
413.38175854092026
 20
10.924104544663965
 30
1.7999823853642738e-11
 11
412.4308062129902
 21
10.826110303443965
 31
1.7999823853642738e-11
  0
LINE
  5
7B
330
17
100
AcDbEntity
  8
0
100
AcDbLine
 10
412.4308062129902
 20
10.826110303443965
 30
1.7999823853642738e-11
 11
407.52330874038023
 21
10.330033842893965
 31
1.7000179042270247e-11
  0
LINE
  5
7C
330
17
100
AcDbEntity
  8
0
100
AcDbLine
 10
407.52330874038023
 20
10.330033842893965
 30
1.7000179042270247e-11
 11
406.7176360644203
 21
10.251496938863962
 31
1.7000179042270247e-11
  0
LINE
  5
7D
330
17
100
AcDbEntity
  8
0
100
AcDbLine
 10
406.7176360644203
 20
10.251496938863962
 30
1.7000179042270247e-11
 11
406.0052054374703
 21
10.179842822333963
 31
1.7000179042270247e-11
  0
LINE
  5
7E
330
17
100
AcDbEntity
  8
0
100
AcDbLine
 10
406.0052054374703
 20
10.179842822333963
 30
1.7000179042270247e-11
 11
404.17533122757027
 21
10.003673279293963
 31
1.7000179042270247e-11
  0
LINE
  5
7F
330
17
100
AcDbEntity
  8
0
100
AcDbLine
 10
404.17533122757027
 20
10.003673279293963
 30
1.7000179042270247e-11
 11
401.6625947733603
 21
9.758731943153965
 31
1.7000179042270247e-11
  0
LINE
  5
80
330
17
100
AcDbEntity
  8
0
100
AcDbLine
 10
401.6625947733603
 20
9.758731943153965
 30
1.7000179042270247e-11
 11
400.5468026472603
 21
9.654339856013962
 31
1.7000179042270247e-11
  0
LINE
  5
81
330
17
100
AcDbEntity
  8
0
100
AcDbLine
 10
400.5468026472603
 20
9.654339856013962
 30
1.7000179042270247e-11
 11
399.57690891248023
 21
9.560964182903966
 31
1.7000179042270247e-11
  0
LINE
  5
82
330
17
100
AcDbEntity
  8
0
100
AcDbLine
 10
399.57690891248023
 20
9.560964182903966
 30
1.7000179042270247e-11
 11
397.9141578152203
 21
9.408032965803962
 31
1.7000179042270247e-11
  0
LINE
  5
83
330
17
100
AcDbEntity
  8
0
100
AcDbLine
 10
397.9141578152203
 20
9.408032965803962
 30
1.7000179042270247e-11
 11
395.7997051301902
 21
9.210207471463967
 31
1.7000179042270247e-11
  0
LINE
  5
84
330
17
100
AcDbEntity
  8
0
100
AcDbLine
 10
395.7997051301902
 20
9.210207471463967
 30
1.7000179042270247e-11
 11
394.3650458293903
 21
9.081604063433964
 31
1.7000179042270247e-11
  0
LINE
  5
85
330
17
100
AcDbEntity
  8
0
100
AcDbLine
 10
394.3650458293903
 20
9.081604063433964
 30
1.7000179042270247e-11
 11
393.14603338122026
 21
8.969485624503967
 31
1.7000179042270247e-11
  0
LINE
  5
86
330
17
100
AcDbEntity
  8
0
100
AcDbLine
 10
393.14603338122026
 20
8.969485624503967
 30
1.7000179042270247e-11
 11
391.6952719253003
 21
8.842284510323964
 31
1.7000179042270247e-11
  0
LINE
  5
87
330
17
100
AcDbEntity
  8
0
100
AcDbLine
 10
391.6952719253003
 20
8.842284510323964
 30
1.7000179042270247e-11
 11
389.9347283341102
 21
8.684468709953961
 31
1.7000179042270247e-11
  0
LINE
  5
88
330
17
100
AcDbEntity
  8
0
100
AcDbLine
 10
389.9347283341102
 20
8.684468709953961
 30
1.7000179042270247e-11
 11
388.1674936294203
 21
8.532972922273963
 31
1.7000179042270247e-11
  0
LINE
  5
89
330
17
100
AcDbEntity
  8
0
100
AcDbLine
 10
388.1674936294203
 20
8.532972922273963
 30
1.7000179042270247e-11
 11
386.7126956337503
 21
8.405417888883967
 31
1.7000179042270247e-11
  0
LINE
  5
8A
330
17
100
AcDbEntity
  8
0
100
AcDbLine
 10
386.7126956337503
 20
8.405417888883967
 30
1.7000179042270247e-11
 11
385.4971158829503
 21
8.304055405513964
 31
1.7000179042270247e-11
  0
LINE
  5
8B
330
17
100
AcDbEntity
  8
0
100
AcDbLine
 10
385.4971158829503
 20
8.304055405513964
 30
1.7000179042270247e-11
 11
384.06775293984026
 21
8.181523596703961
 31
1.6000090141687906e-11
  0
LINE
  5
8C
330
17
100
AcDbEntity
  8
0
100
AcDbLine
 10
384.06775293984026
 20
8.181523596703961
 30
1.6000090141687906e-11
 11
381.94449287420025
 21
8.007815944163966
 31
1.6000090141687906e-11
  0
LINE
  5
8D
330
17
100
AcDbEntity
  8
0
100
AcDbLine
 10
381.94449287420025
 20
8.007815944163966
 30
1.6000090141687906e-11
 11
380.27701250480027
 21
7.868771219953963
 31
1.6000090141687906e-11
  0
LINE
  5
8E
330
17
100
AcDbEntity
  8
0
100
AcDbLine
 10
380.27701250480027
 20
7.868771219953963
 30
1.6000090141687906e-11
 11
379.31020078067024
 21
7.792299859683965
 31
1.6000090141687906e-11
  0
LINE
  5
8F
330
17
100
AcDbEntity
  8
0
100
AcDbLine
 10
379.31020078067024
 20
7.792299859683965
 30
1.6000090141687906e-11
 11
378.19886753228025
 21
7.701379725633963
 31
1.6000090141687906e-11
  0
LINE
  5
90
330
17
100
AcDbEntity
  8
0
100
AcDbLine
 10
378.19886753228025
 20
7.701379725633963
 30
1.6000090141687906e-11
 11
375.6740456767203
 21
7.504692955403961
 31
1.6000090141687906e-11
  0
LINE
  5
91
330
17
100
AcDbEntity
  8
0
100
AcDbLine
 10
375.6740456767203
 20
7.504692955403961
 30
1.6000090141687906e-11
 11
373.83910087172023
 21
7.3595553637039615
 31
1.6000090141687906e-11
  0
LINE
  5
92
330
17
100
AcDbEntity
  8
0
100
AcDbLine
 10
373.83910087172023
 20
7.3595553637039615
 30
1.6000090141687906e-11
 11
373.1297282087103
 21
7.306487452663966
 31
1.6000090141687906e-11
  0
LINE
  5
93
330
17
100
AcDbEntity
  8
0
100
AcDbLine
 10
373.1297282087103
 20
7.306487452663966
 30
1.6000090141687906e-11
 11
372.3281607251903
 21
7.244044346383966
 31
1.6000090141687906e-11
  0
LINE
  5
94
330
17
100
AcDbEntity
  8
0
100
AcDbLine
 10
372.3281607251903
 20
7.244044346383966
 30
1.6000090141687906e-11
 11
367.39907765235023
 21
6.877779567873965
 31
1.6000090141687906e-11
  0
LINE
  5
95
330
17
100
AcDbEntity
  8
0
100
AcDbLine
 10
367.39907765235023
 20
6.877779567873965
 30
1.6000090141687906e-11
 11
366.4557211598003
 21
6.809524364233965
 31
1.6000090141687906e-11
  0
LINE
  5
96
330
17
100
AcDbEntity
  8
0
100
AcDbLine
 10
366.4557211598003
 20
6.809524364233965
 30
1.6000090141687906e-11
 11
360.58163750354026
 21
6.397826339933964
 31
1.6000090141687906e-11
  0
LINE
  5
97
330
17
100
AcDbEntity
  8
0
100
AcDbLine
 10
360.58163750354026
 20
6.397826339933964
 30
1.6000090141687906e-11
 11
354.7059984486302
 21
6.008956489703962
 31
1.5000001241105565e-11
  0
LINE
  5
98
330
17
100
AcDbEntity
  8
0
100
AcDbLine
 10
354.7059984486302
 20
6.008956489703962
 30
1.5000001241105565e-11
 11
348.82889271080023
 21
5.642920685023967
 31
1.5000001241105565e-11
  0
LINE
  5
99
330
17
100
AcDbEntity
  8
0
100
AcDbLine
 10
348.82889271080023
 20
5.642920685023967
 30
1.5000001241105565e-11
 11
348.0675082171002
 21
5.597177544933963
 31
1.5000001241105565e-11
  0
LINE
  5
9A
330
17
100
AcDbEntity
  8
0
100
AcDbLine
 10
348.0675082171002
 20
5.597177544933963
 30
1.5000001241105565e-11
 11
342.95040902791027
 21
5.299724452653962
 31
1.5000001241105565e-11
  0
LINE
  5
9B
330
17
100
AcDbEntity
  8
0
100
AcDbLine
 10
342.95040902791027
 20
5.299724452653962
 30
1.5000001241105565e-11
 11
342.2461261110502
 21
5.261352549773967
 31
1.5000001241105565e-11
  0
LINE
  5
9C
330
17
100
AcDbEntity
  8
0
100
AcDbLine
 10
342.2461261110502
 20
5.261352549773967
 30
1.5000001241105565e-11
 11
341.62020856582023
 21
5.225244499693964
 31
1.5000001241105565e-11
  0
LINE
  5
9D
330
17
100
AcDbEntity
  8
0
100
AcDbLine
 10
341.62020856582023
 20
5.225244499693964
 30
1.5000001241105565e-11
 11
339.7459499415903
 21
5.125133830203964
 31
1.5000001241105565e-11
  0
LINE
  5
9E
330
17
100
AcDbEntity
  8
0
100
AcDbLine
 10
339.7459499415903
 20
5.125133830203964
 30
1.5000001241105565e-11
 11
337.07063615862023
 21
4.979372974473961
 31
1.5000001241105565e-11
  0
LINE
  5
9F
330
17
100
AcDbEntity
  8
0
100
AcDbLine
 10
337.07063615862023
 20
4.979372974473961
 30
1.5000001241105565e-11
 11
336.05763183036026
 21
4.928127936443964
 31
1.5000001241105565e-11
  0
LINE
  5
A0
330
17
100
AcDbEntity
  8
0
100
AcDbLine
 10
336.05763183036026
 20
4.928127936443964
 30
1.5000001241105565e-11
 11
335.17138245007027
 21
4.880790275763964
 31
1.5000001241105565e-11
  0
LINE
  5
A1
330
17
100
AcDbEntity
  8
0
100
AcDbLine
 10
335.17138245007027
 20
4.880790275763964
 30
1.5000001241105565e-11
 11
333.43972671862025
 21
4.795695484523961
 31
1.5000001241105565e-11
  0
LINE
  5
A2
330
17
100
AcDbEntity
  8
0
100
AcDbLine
 10
333.43972671862025
 20
4.795695484523961
 30
1.5000001241105565e-11
 11
331.18966288108027
 21
4.681871087443966
 31
1.3999912340523224e-11
  0
LINE
  5
A3
330
17
100
AcDbEntity
  8
0
100
AcDbLine
 10
331.18966288108027
 20
4.681871087443966
 30
1.3999912340523224e-11
 11
329.8603905132003
 21
4.619804363893962
 31
1.3999912340523224e-11
  0
LINE
  5
A4
330
17
100
AcDbEntity
  8
0
100
AcDbLine
 10
329.8603905132003
 20
4.619804363893962
 30
1.3999912340523224e-11
 11
328.7211469859003
 21
4.5638211286939665
 31
1.3999912340523224e-11
  0
LINE
  5
A5
330
17
100
AcDbEntity
  8
0
100
AcDbLine
 10
328.7211469859003
 20
4.5638211286939665
 30
1.3999912340523224e-11
 11
327.1906386284203
 21
4.49514762977396
 31
1.3999912340523224e-11
  0
LINE
  5
A6
330
17
100
AcDbEntity
  8
0
100
AcDbLine
 10
327.1906386284203
 20
4.49514762977396
 30
1.3999912340523224e-11
 11
325.30757799154026
 21
4.407223283503967
 31
1.3999912340523224e-11
  0
LINE
  5
A7
330
17
100
AcDbEntity
  8
0
100
AcDbLine
 10
325.30757799154026
 20
4.407223283503967
 30
1.3999912340523224e-11
 11
323.6504417337902
 21
4.336299945973963
 31
1.3999912340523224e-11
  0
LINE
  5
A8
330
17
100
AcDbEntity
  8
0
100
AcDbLine
 10
323.6504417337902
 20
4.336299945973963
 30
1.3999912340523224e-11
 11
322.2696193149203
 21
4.274342814923962
 31
1.3999912340523224e-11
  0
LINE
  5
A9
330
17
100
AcDbEntity
  8
0
100
AcDbLine
 10
322.2696193149203
 20
4.274342814923962
 30
1.3999912340523224e-11
 11
320.9687905734403
 21
4.221528665403966
 31
1.3999912340523224e-11
  0
LINE
  5
AA
330
17
100
AcDbEntity
  8
0
100
AcDbLine
 10
320.9687905734403
 20
4.221528665403966
 30
1.3999912340523224e-11
 11
319.42447030304027
 21
4.155433709553961
 31
1.3999912340523224e-11
  0
LINE
  5
AB
330
17
100
AcDbEntity
  8
0
100
AcDbLine
 10
319.42447030304027
 20
4.155433709553961
 30
1.3999912340523224e-11
 11
317.4202143401702
 21
4.077455099253967
 31
1.3999912340523224e-11
  0
LINE
  5
AC
330
17
100
AcDbEntity
  8
0
100
AcDbLine
 10
317.4202143401702
 20
4.077455099253967
 30
1.3999912340523224e-11
 11
315.8169166022502
 21
4.012360591613962
 31
1.3999912340523224e-11
  0
LINE
  5
AD
330
17
100
AcDbEntity
  8
0
100
AcDbLine
 10
315.8169166022502
 20
4.012360591613962
 30
1.3999912340523224e-11
 11
314.7618312838903
 21
3.9740266848039667
 31
1.3999912340523224e-11
  0
LINE
  5
AE
330
17
100
AcDbEntity
  8
0
100
AcDbLine
 10
314.7618312838903
 20
3.9740266848039667
 30
1.3999912340523224e-11
 11
313.5404286440803
 21
3.9265061673339616
 31
1.3999912340523224e-11
  0
LINE
  5
AF
330
17
100
AcDbEntity
  8
0
100
AcDbLine
 10
313.5404286440803
 20
3.9265061673339616
 30
1.3999912340523224e-11
 11
311.1533682463403
 21
3.842922134843967
 31
1.3999912340523224e-11
  0
LINE
  5
B0
330
17
100
AcDbEntity
  8
0
100
AcDbLine
 10
311.1533682463403
 20
3.842922134843967
 30
1.3999912340523224e-11
 11
309.36315603431024
 21
3.777879216583962
 31
1.3999912340523224e-11
  0
LINE
  5
B1
330
17
100
AcDbEntity
  8
0
100
AcDbLine
 10
309.36315603431024
 20
3.777879216583962
 30
1.3999912340523224e-11
 11
308.5637636393003
 21
3.7522459224439615
 31
1.3999912340523224e-11
  0
LINE
  5
B2
330
17
100
AcDbEntity
  8
0
100
AcDbLine
 10
308.5637636393003
 20
3.7522459224439615
 30
1.3999912340523224e-11
 11
307.6555418572402
 21
3.720444113403964
 31
1.3999912340523224e-11
  0
LINE
  5
B3
330
17
100
AcDbEntity
  8
0
100
AcDbLine
 10
307.6555418572402
 20
3.720444113403964
 30
1.3999912340523224e-11
 11
304.8072565235602
 21
3.6317898705339644
 31
1.2999823439940883e-11
  0
LINE
  5
B4
330
17
100
AcDbEntity
  8
0
100
AcDbLine
 10
304.8072565235602
 20
3.6317898705339644
 30
1.2999823439940883e-11
 11
302.90845481676024
 21
3.5709029482039654
 31
1.2999823439940883e-11
  0
LINE
  5
B5
330
17
100
AcDbEntity
  8
0
100
AcDbLine
 10
302.90845481676024
 20
3.5709029482039654
 30
1.2999823439940883e-11
 11
301.7698987978803
 21
3.5372506590639645
 31
1.2999823439940883e-11
  0
LINE
  5
B6
330
17
100
AcDbEntity
  8
0
100
AcDbLine
 10
301.7698987978803
 20
3.5372506590639645
 30
1.2999823439940883e-11
 11
296.4529301723303
 21
3.391435545353964
 31
1.2999823439940883e-11
  0
LINE
  5
B7
330
17
100
AcDbEntity
  8
0
100
AcDbLine
 10
296.4529301723303
 20
3.391435545353964
 30
1.2999823439940883e-11
 11
295.88358833275026
 21
3.376928570333966
 31
1.2999823439940883e-11
  0
LINE
  5
B8
330
17
100
AcDbEntity
  8
0
100
AcDbLine
 10
295.88358833275026
 20
3.376928570333966
 30
1.2999823439940883e-11
 11
289.9966993387203
 21
3.2394802670339615
 31
1.2999823439940883e-11
  0
LINE
  5
B9
330
17
100
AcDbEntity
  8
0
100
AcDbLine
 10
289.9966993387203
 20
3.2394802670339615
 30
1.2999823439940883e-11
 11
138.64999999991025
 21
3.964828465541359e-12
 31
7.000178214866537e-12
  0
LINE
  5
BA
330
17
100
AcDbEntity
  8
0
100
AcDbLine
 10
138.64999999991025
 20
3.964828465541359e-12
 30
7.000178214866537e-12
 11
2.5579538487363607e-13
 21
2.439648483232304e-10
 31
1.000088900582341e-12
  0
LINE
  5
BB
330
17
100
AcDbEntity
  8
0
100
AcDbLine
 10
2.5579538487363607e-13
 20
2.439648483232304e-10
 30
1.000088900582341e-12
 11
2.5579538487363607e-13
 21
7.500000000243965
 31
0.0
  0
LINE
  5
BC
330
17
100
AcDbEntity
  8
0
100
AcDbLine
 10
2.5579538487363607e-13
 20
7.500000000243965
 30
0.0
 11
138.56974281606026
 21
7.500000000003965
 31
6.000089314284196e-12
  0
LINE
  5
BD
330
17
100
AcDbEntity
  8
0
100
AcDbLine
 10
138.56974281606026
 20
7.500000000003965
 30
6.000089314284196e-12
 11
289.8362033488503
 21
10.737762806443964
 31
1.2000178628568392e-11
  0
LINE
  5
BE
330
17
100
AcDbEntity
  8
0
100
AcDbLine
 10
289.8362033488503
 20
10.737762806443964
 30
1.2000178628568392e-11
 11
295.3727624357002
 21
10.867704795843963
 31
1.2999823439940883e-11
  0
LINE
  5
BF
330
17
100
AcDbEntity
  8
0
100
AcDbLine
 10
295.3727624357002
 20
10.867704795843963
 30
1.2999823439940883e-11
 11
296.82794029695026
 21
10.905028755493962
 31
1.2999823439940883e-11
  0
LINE
  5
C0
330
17
100
AcDbEntity
  8
0
100
AcDbLine
 10
296.82794029695026
 20
10.905028755493962
 30
1.2999823439940883e-11
 11
302.42078641769024
 21
11.059964399043963
 31
1.2999823439940883e-11
  0
LINE
  5
C1
330
17
100
AcDbEntity
  8
0
100
AcDbLine
 10
302.42078641769024
 20
11.059964399043963
 30
1.2999823439940883e-11
 11
307.9164078171402
 21
11.234361131733962
 31
1.2999823439940883e-11
  0
LINE
  5
C2
330
17
100
AcDbEntity
  8
0
100
AcDbLine
 10
307.9164078171402
 20
11.234361131733962
 30
1.2999823439940883e-11
 11
309.3300113733003
 21
11.282623540183963
 31
1.2999823439940883e-11
  0
LINE
  5
C3
330
17
100
AcDbEntity
  8
0
100
AcDbLine
 10
309.3300113733003
 20
11.282623540183963
 30
1.2999823439940883e-11
 11
314.9971008897103
 21
11.486997211403963
 31
1.2999823439940883e-11
  0
LINE
  5
C4
330
17
100
AcDbEntity
  8
0
100
AcDbLine
 10
314.9971008897103
 20
11.486997211403963
 30
1.2999823439940883e-11
 11
320.4693169353602
 21
11.705897033773965
 31
1.3999912340523224e-11
  0
LINE
  5
C5
330
17
100
AcDbEntity
  8
0
100
AcDbLine
 10
320.4693169353602
 20
11.705897033773965
 30
1.3999912340523224e-11
 11
321.7936059765102
 21
11.762362939643964
 31
1.3999912340523224e-11
  0
LINE
  5
C6
330
17
100
AcDbEntity
  8
0
100
AcDbLine
 10
321.7936059765102
 20
11.762362939643964
 30
1.3999912340523224e-11
 11
326.34186654455027
 21
11.963114804973962
 31
1.3999912340523224e-11
  0
LINE
  5
C7
330
17
100
AcDbEntity
  8
0
100
AcDbLine
 10
326.34186654455027
 20
11.963114804973962
 30
1.3999912340523224e-11
 11
327.5630250847703
 21
12.018643791043964
 31
1.3999912340523224e-11
  0
LINE
  5
C8
330
17
100
AcDbEntity
  8
0
100
AcDbLine
 10
327.5630250847703
 20
12.018643791043964
 30
1.3999912340523224e-11
 11
333.02757122076025
 21
12.282449073923964
 31
1.3999912340523224e-11
  0
LINE
  5
C9
330
17
100
AcDbEntity
  8
0
100
AcDbLine
 10
333.02757122076025
 20
12.282449073923964
 30
1.3999912340523224e-11
 11
334.19917904031024
 21
12.342367512793963
 31
1.3999912340523224e-11
  0
LINE
  5
CA
330
17
100
AcDbEntity
  8
0
100
AcDbLine
 10
334.19917904031024
 20
12.342367512793963
 30
1.3999912340523224e-11
 11
338.76280774624024
 21
12.581570419093964
 31
1.3999912340523224e-11
  0
LINE
  5
CB
330
17
100
AcDbEntity
  8
0
100
AcDbLine
 10
338.76280774624024
 20
12.581570419093964
 30
1.3999912340523224e-11
 11
340.1159997815903
 21
12.654613166443962
 31
1.3999912340523224e-11
  0
LINE
  5
CC
330
17
100
AcDbEntity
  8
0
100
AcDbLine
 10
340.1159997815903
 20
12.654613166443962
 30
1.3999912340523224e-11
 11
345.58814568971025
 21
12.964096597913965
 31
1.3999912340523224e-11
  0
LINE
  5
CD
330
17
100
AcDbEntity
  8
0
100
AcDbLine
 10
345.58814568971025
 20
12.964096597913965
 30
1.3999912340523224e-11
 11
351.2256004471302
 21
13.305319757613965
 31
1.5000001241105565e-11
  0
ENDSEC
  0
SECTION
  2
OBJECTS
  0
DICTIONARY
  5
A
330
0
100
AcDbDictionary
281
1
  3
ACAD_COLOR
350
B
  3
ACAD_GROUP
350
C
  3
ACAD_LAYOUT
350
D
  3
ACAD_MATERIAL
350
E
  3
ACAD_MLEADERSTYLE
350
F
  3
ACAD_MLINESTYLE
350
10
  3
ACAD_PLOTSETTINGS
350
11
  3
ACAD_PLOTSTYLENAME
350
12
  3
ACAD_SCALELIST
350
14
  3
ACAD_TABLESTYLE
350
15
  3
ACAD_VISUALSTYLE
350
16
  3
EZDXF_META
350
2D
  0
DICTIONARY
  5
B
330
A
100
AcDbDictionary
281
1
  0
DICTIONARY
  5
C
330
A
100
AcDbDictionary
281
1
  0
DICTIONARY
  5
D
330
A
100
AcDbDictionary
281
1
  3
Model
350
1A
  3
Layout1
350
1E
  0
DICTIONARY
  5
E
330
A
100
AcDbDictionary
281
1
  3
ByBlock
350
1F
  3
ByLayer
350
20
  3
Global
350
21
  0
DICTIONARY
  5
F
330
A
100
AcDbDictionary
281
1
  3
Standard
350
2C
  0
DICTIONARY
  5
10
330
A
100
AcDbDictionary
281
1
  3
Standard
350
22
  0
DICTIONARY
  5
11
330
A
100
AcDbDictionary
281
1
  0
ACDBDICTIONARYWDFLT
  5
12
330
A
100
AcDbDictionary
281
1
  3
Normal
350
13
100
AcDbDictionaryWithDefault
340
13
  0
ACDBPLACEHOLDER
  5
13
330
12
  0
DICTIONARY
  5
14
330
A
100
AcDbDictionary
281
1
  0
DICTIONARY
  5
15
330
A
100
AcDbDictionary
281
1
  0
DICTIONARY
  5
16
330
A
100
AcDbDictionary
281
1
  0
LAYOUT
  5
1A
330
D
100
AcDbPlotSettings
  1

  4
A3
  6

 40
7.5
 41
20.0
 42
7.5
 43
20.0
 44
420.0
 45
297.0
 46
0.0
 47
0.0
 48
0.0
 49
0.0
140
0.0
141
0.0
142
1.0
143
1.0
 70
1024
 72
1
 73
0
 74
5
  7

 75
16
 76
0
 77
2
 78
300
147
1.0
148
0.0
149
0.0
100
AcDbLayout
  1
Model
 70
1
 71
0
 10
0.0
 20
0.0
 11
420.0
 21
297.0
 12
0.0
 22
0.0
 32
0.0
 14
1e+20
 24
1e+20
 34
1e+20
 15
-1e+20
 25
-1e+20
 35
-1e+20
146
0.0
 13
0.0
 23
0.0
 33
0.0
 16
1.0
 26
0.0
 36
0.0
 17
0.0
 27
1.0
 37
0.0
 76
1
330
17
  0
LAYOUT
  5
1E
330
D
100
AcDbPlotSettings
  1

  4
A3
  6

 40
7.5
 41
20.0
 42
7.5
 43
20.0
 44
420.0
 45
297.0
 46
0.0
 47
0.0
 48
0.0
 49
0.0
140
0.0
141
0.0
142
1.0
143
1.0
 70
0
 72
1
 73
0
 74
5
  7

 75
16
 76
0
 77
2
 78
300
147
1.0
148
0.0
149
0.0
100
AcDbLayout
  1
Layout1
 70
1
 71
1
 10
0.0
 20
0.0
 11
420.0
 21
297.0
 12
0.0
 22
0.0
 32
0.0
 14
1e+20
 24
1e+20
 34
1e+20
 15
-1e+20
 25
-1e+20
 35
-1e+20
146
0.0
 13
0.0
 23
0.0
 33
0.0
 16
1.0
 26
0.0
 36
0.0
 17
0.0
 27
1.0
 37
0.0
 76
1
330
1B
  0
MATERIAL
  5
1F
102
{ACAD_REACTORS
330
E
102
}
330
E
100
AcDbMaterial
  1
ByBlock
  2

 70
0
 40
1.0
 71
1
 41
1.0
 91
-1023410177
 42
1.0
 72
1
  3

 73
1
 74
1
 75
1
 44
0.5
 73
0
 45
1.0
 46
1.0
 77
1
  4

 78
1
 79
1
170
1
 48
1.0
171
1
  6

172
1
173
1
174
1
140
1.0
141
1.0
175
1
  7

176
1
177
1
178
1
143
1.0
179
1
  8

270
1
271
1
272
1
145
1.0
146
1.0
273
1
  9

274
1
275
1
276
1
 42
1.0
 72
1
  3

 73
1
 74
1
 75
1
 94
63
  0
MATERIAL
  5
20
102
{ACAD_REACTORS
330
E
102
}
330
E
100
AcDbMaterial
  1
ByLayer
  2

 70
0
 40
1.0
 71
1
 41
1.0
 91
-1023410177
 42
1.0
 72
1
  3

 73
1
 74
1
 75
1
 44
0.5
 73
0
 45
1.0
 46
1.0
 77
1
  4

 78
1
 79
1
170
1
 48
1.0
171
1
  6

172
1
173
1
174
1
140
1.0
141
1.0
175
1
  7

176
1
177
1
178
1
143
1.0
179
1
  8

270
1
271
1
272
1
145
1.0
146
1.0
273
1
  9

274
1
275
1
276
1
 42
1.0
 72
1
  3

 73
1
 74
1
 75
1
 94
63
  0
MATERIAL
  5
21
102
{ACAD_REACTORS
330
E
102
}
330
E
100
AcDbMaterial
  1
Global
  2

 70
0
 40
1.0
 71
1
 41
1.0
 91
-1023410177
 42
1.0
 72
1
  3

 73
1
 74
1
 75
1
 44
0.5
 73
0
 45
1.0
 46
1.0
 77
1
  4

 78
1
 79
1
170
1
 48
1.0
171
1
  6

172
1
173
1
174
1
140
1.0
141
1.0
175
1
  7

176
1
177
1
178
1
143
1.0
179
1
  8

270
1
271
1
272
1
145
1.0
146
1.0
273
1
  9

274
1
275
1
276
1
 42
1.0
 72
1
  3

 73
1
 74
1
 75
1
 94
63
  0
MLINESTYLE
  5
22
102
{ACAD_REACTORS
330
10
102
}
330
10
100
AcDbMlineStyle
  2
Standard
 70
0
  3

 62
256
 51
90.0
 52
90.0
 71
2
 49
0.5
 62
256
  6
BYLAYER
 49
-0.5
 62
256
  6
BYLAYER
  0
MLEADERSTYLE
  5
2C
102
{ACAD_REACTORS
330
F
102
}
330
F
100
AcDbMLeaderStyle
179
2
170
2
171
1
172
0
 90
2
 40
0.0
 41
0.0
173
1
 91
-1056964608
 92
-2
290
1
 42
2.0
291
1
 43
8.0
  3
Standard
 44
4.0
300

342
29
174
1
175
1
176
0
178
1
 93
-1056964608
 45
4.0
292
0
297
0
 46
4.0
 94
-1056964608
 47
1.0
 49
1.0
140
1.0
294
1
141
0.0
177
0
142
1.0
295
0
296
0
143
3.75
271
0
272
9
273
9
  0
DICTIONARY
  5
2D
330
A
100
AcDbDictionary
280
1
281
1
  3
CREATED_BY_EZDXF
350
2E
  3
WRITTEN_BY_EZDXF
350
D1
  0
DICTIONARYVAR
  5
2E
330
2D
100
DictionaryVariables
280
0
  1
1.4.4 @ 2026-10-02T11:27:08.230349+00:00
  0
DICTIONARYVAR
  5
D1
330
2D
100
DictionaryVariables
280
0
  1
1.4.4 @ 2026-10-02T11:27:08.260967+00:00
  0
ENDSEC
  0
EOF
