  0
SECTION
  2
HEADER
  9
$ACADVER
  1
AC1027
  9
$ACADMAINTVER
 70
105
  9
$DWGCODEPAGE
  3
ANSI_1252
  9
$LASTSAVEDBY
  1
ezdxf
  9
$REQUIREDVERSIONS
160
0
  9
$INSBASE
 10
0.0
 20
0.0
 30
0.0
  9
$EXTMIN
 10
1e+20
 20
1e+20
 30
1e+20
  9
$EXTMAX
 10
-1e+20
 20
-1e+20
 30
-1e+20
  9
$LIMMIN
 10
0.0
 20
0.0
  9
$LIMMAX
 10
420.0
 20
297.0
  9
$ORTHOMODE
 70
0
  9
$REGENMODE
 70
1
  9
$FILLMODE
 70
1
  9
$QTEXTMODE
 70
0
  9
$MIRRTEXT
 70
1
  9
$LTSCALE
 40
1.0
  9
$ATTMODE
 70
1
  9
$TEXTSIZE
 40
2.5
  9
$TRACEWID
 40
1.0
  9
$TEXTSTYLE
  7
Standard
  9
$CLAYER
  8
0
  9
$CELTYPE
  6
ByLayer
  9
$CECOLOR
 62
256
  9
$CELTSCALE
 40
1.0
  9
$DISPSILH
 70
0
  9
$DIMSCALE
 40
1.0
  9
$DIMASZ
 40
2.5
  9
$DIMEXO
 40
0.625
  9
$DIMDLI
 40
3.75
  9
$DIMRND
 40
0.0
  9
$DIMDLE
 40
0.0
  9
$DIMEXE
 40
1.25
  9
$DIMTP
 40
0.0
  9
$DIMTM
 40
0.0
  9
$DIMTXT
 40
2.5
  9
$DIMCEN
 40
2.5
  9
$DIMTSZ
 40
0.0
  9
$DIMTOL
 70
0
  9
$DIMLIM
 70
0
  9
$DIMTIH
 70
0
  9
$DIMTOH
 70
0
  9
$DIMSE1
 70
0
  9
$DIMSE2
 70
0
  9
$DIMTAD
 70
1
  9
$DIMZIN
 70
8
  9
$DIMBLK
  1

  9
$DIMASO
 70
1
  9
$DIMSHO
 70
1
  9
$DIMPOST
  1

  9
$DIMAPOST
  1

  9
$DIMALT
 70
0
  9
$DIMALTD
 70
3
  9
$DIMALTF
 40
0.03937007874
  9
$DIMLFAC
 40
1.0
  9
$DIMTOFL
 70
1
  9
$DIMTVP
 40
0.0
  9
$DIMTIX
 70
0
  9
$DIMSOXD
 70
0
  9
$DIMSAH
 70
0
  9
$DIMBLK1
  1

  9
$DIMBLK2
  1

  9
$DIMSTYLE
  2
ISO-25
  9
$DIMCLRD
 70
0
  9
$DIMCLRE
 70
0
  9
$DIMCLRT
 70
0
  9
$DIMTFAC
 40
1.0
  9
$DIMGAP
 40
0.625
  9
$DIMJUST
 70
0
  9
$DIMSD1
 70
0
  9
$DIMSD2
 70
0
  9
$DIMTOLJ
 70
0
  9
$DIMTZIN
 70
8
  9
$DIMALTZ
 70
0
  9
$DIMALTTZ
 70
0
  9
$DIMUPT
 70
0
  9
$DIMDEC
 70
2
  9
$DIMTDEC
 70
2
  9
$DIMALTU
 70
2
  9
$DIMALTTD
 70
3
  9
$DIMTXSTY
  7
Standard
  9
$DIMAUNIT
 70
0
  9
$DIMADEC
 70
0
  9
$DIMALTRND
 40
0.0
  9
$DIMAZIN
 70
0
  9
$DIMDSEP
 70
44
  9
$DIMATFIT
 70
3
  9
$DIMFRAC
 70
0
  9
$DIMLDRBLK
  1

  9
$DIMLUNIT
 70
2
  9
$DIMLWD
 70
-2
  9
$DIMLWE
 70
-2
  9
$DIMTMOVE
 70
0
  9
$DIMFXL
 40
1.0
  9
$DIMFXLON
 70
0
  9
$DIMJOGANG
 40
0.785398163397
  9
$DIMTFILL
 70
0
  9
$DIMTFILLCLR
 70
0
  9
$DIMARCSYM
 70
0
  9
$DIMLTYPE
  6

  9
$DIMLTEX1
  6

  9
$DIMLTEX2
  6

  9
$DIMTXTDIRECTION
 70
0
  9
$LUNITS
 70
2
  9
$LUPREC
 70
4
  9
$SKETCHINC
 40
1.0
  9
$FILLETRAD
 40
10.0
  9
$AUNITS
 70
0
  9
$AUPREC
 70
2
  9
$MENU
  1
.
  9
$ELEVATION
 40
0.0
  9
$PELEVATION
 40
0.0
  9
$THICKNESS
 40
0.0
  9
$LIMCHECK
 70
0
  9
$CHAMFERA
 40
0.0
  9
$CHAMFERB
 40
0.0
  9
$CHAMFERC
 40
0.0
  9
$CHAMFERD
 40
0.0
  9
$SKPOLY
 70
0
  9
$TDCREATE
 40
2461307.8219791665
  9
$TDUCREATE
 40
2458532.153996898
  9
$TDUPDATE
 40
2461307.8219791665
  9
$TDUUPDATE
 40
2458532.1544311
  9
$TDINDWG
 40
0.0
  9
$TDUSRTIMER
 40
0.0
  9
$USRTIMER
 70
1
  9
$ANGBASE
 50
0.0
  9
$ANGDIR
 70
0
  9
$PDMODE
 70
0
  9
$PDSIZE
 40
0.0
  9
$PLINEWID
 40
0.0
  9
$SPLFRAME
 70
0
  9
$SPLINETYPE
 70
6
  9
$SPLINESEGS
 70
8
  9
$HANDSEED
  5
43
  9
$SURFTAB1
 70
6
  9
$SURFTAB2
 70
6
  9
$SURFTYPE
 70
6
  9
$SURFU
 70
6
  9
$SURFV
 70
6
  9
$UCSBASE
  2

  9
$UCSNAME
  2

  9
$UCSORG
 10
0.0
 20
0.0
 30
0.0
  9
$UCSXDIR
 10
1.0
 20
0.0
 30
0.0
  9
$UCSYDIR
 10
0.0
 20
1.0
 30
0.0
  9
$UCSORTHOREF
  2

  9
$UCSORTHOVIEW
 70
0
  9
$UCSORGTOP
 10
0.0
 20
0.0
 30
0.0
  9
$UCSORGBOTTOM
 10
0.0
 20
0.0
 30
0.0
  9
$UCSORGLEFT
 10
0.0
 20
0.0
 30
0.0
  9
$UCSORGRIGHT
 10
0.0
 20
0.0
 30
0.0
  9
$UCSORGFRONT
 10
0.0
 20
0.0
 30
0.0
  9
$UCSORGBACK
 10
0.0
 20
0.0
 30
0.0
  9
$PUCSBASE
  2

  9
$PUCSNAME
  2

  9
$PUCSORG
 10
0.0
 20
0.0
 30
0.0
  9
$PUCSXDIR
 10
1.0
 20
0.0
 30
0.0
  9
$PUCSYDIR
 10
0.0
 20
1.0
 30
0.0
  9
$PUCSORTHOREF
  2

  9
$PUCSORTHOVIEW
 70
0
  9
$PUCSORGTOP
 10
0.0
 20
0.0
 30
0.0
  9
$PUCSORGBOTTOM
 10
0.0
 20
0.0
 30
0.0
  9
$PUCSORGLEFT
 10
0.0
 20
0.0
 30
0.0
  9
$PUCSORGRIGHT
 10
0.0
 20
0.0
 30
0.0
  9
$PUCSORGFRONT
 10
0.0
 20
0.0
 30
0.0
  9
$PUCSORGBACK
 10
0.0
 20
0.0
 30
0.0
  9
$USERI1
 70
0
  9
$USERI2
 70
0
  9
$USERI3
 70
0
  9
$USERI4
 70
0
  9
$USERI5
 70
0
  9
$USERR1
 40
0.0
  9
$USERR2
 40
0.0
  9
$USERR3
 40
0.0
  9
$USERR4
 40
0.0
  9
$USERR5
 40
0.0
  9
$WORLDVIEW
 70
1
  9
$SHADEDGE
 70
3
  9
$SHADEDIF
 70
70
  9
$TILEMODE
 70
1
  9
$MAXACTVP
 70
64
  9
$PINSBASE
 10
0.0
 20
0.0
 30
0.0
  9
$PLIMCHECK
 70
0
  9
$PEXTMIN
 10
1e+20
 20
1e+20
 30
1e+20
  9
$PEXTMAX
 10
-1e+20
 20
-1e+20
 30
-1e+20
  9
$PLIMMIN
 10
0.0
 20
0.0
  9
$PLIMMAX
 10
420.0
 20
297.0
  9
$UNITMODE
 70
0
  9
$VISRETAIN
 70
1
  9
$PLINEGEN
 70
0
  9
$PSLTSCALE
 70
1
  9
$TREEDEPTH
 70
3020
  9
$CMLSTYLE
  2
Standard
  9
$CMLJUST
 70
0
  9
$CMLSCALE
 40
20.0
  9
$PROXYGRAPHICS
 70
1
  9
$MEASUREMENT
 70
1
  9
$CELWEIGHT
370
-1
  9
$ENDCAPS
280
0
  9
$JOINSTYLE
280
0
  9
$LWDISPLAY
290
0
  9
$INSUNITS
 70
4
  9
$HYPERLINKBASE
  1

  9
$STYLESHEET
  1

  9
$XEDIT
290
1
  9
$CEPSNTYPE
380
0
  9
$PSTYLEMODE
290
1
  9
$FINGERPRINTGUID
  2
{B472EF8F-8B69-4BED-BE73-181F42303603}
  9
$VERSIONGUID
  2
{36EE9D89-C426-4330-B447-B4786BEA89C7}
  9
$EXTNAMES
290
1
  9
$PSVPSCALE
 40
0.0
  9
$OLESTARTUP
290
0
  9
$SORTENTS
280
127
  9
$INDEXCTL
280
0
  9
$HIDETEXT
280
1
  9
$XCLIPFRAME
280
1
  9
$HALOGAP
280
0
  9
$OBSCOLOR
 70
257
  9
$OBSLTYPE
280
0
  9
$INTERSECTIONDISPLAY
280
0
  9
$INTERSECTIONCOLOR
 70
257
  9
$DIMASSOC
280
2
  9
$PROJECTNAME
  1

  9
$CAMERADISPLAY
290
0
  9
$LENSLENGTH
 40
50.0
  9
$CAMERAHEIGHT
 40
0.0
  9
$STEPSPERSEC
 40
24.0
  9
$STEPSIZE
 40
100.0
  9
$3DDWFPREC
 40
2.0
  9
$PSOLWIDTH
 40
0.005
  9
$PSOLHEIGHT
 40
0.08
  9
$LOFTANG1
 40
1.570796326795
  9
$LOFTANG2
 40
1.570796326795
  9
$LOFTMAG1
 40
0.0
  9
$LOFTMAG2
 40
0.0
  9
$LOFTPARAM
 70
7
  9
$LOFTNORMALS
280
1
  9
$LATITUDE
 40
37.795
  9
$LONGITUDE
 40
-122.394
  9
$NORTHDIRECTION
 40
0.0
  9
$TIMEZONE
 70
-8000
  9
$LIGHTGLYPHDISPLAY
280
1
  9
$TILEMODELIGHTSYNCH
280
1
  9
$CMATERIAL
347
20
  9
$SOLIDHIST
280
0
  9
$SHOWHIST
280
1
  9
$DWFFRAME
280
2
  9
$DGNFRAME
280
2
  9
$REALWORLDSCALE
290
1
  9
$INTERFERECOLOR
 62
256
  9
$CSHADOW
280
0
  9
$SHADOWPLANELOCATION
 40
0.0
  0
ENDSEC
  0
SECTION
  2
CLASSES
  0
CLASS
  1
ACDBDICTIONARYWDFLT
  2
AcDbDictionaryWithDefault
  3
ObjectDBX Classes
 90
0
 91
0
280
0
281
0
  0
CLASS
  1
SUN
  2
AcDbSun
  3
SCENEOE
 90
1153
 91
0
280
0
281
0
  0
CLASS
  1
VISUALSTYLE
  2
AcDbVisualStyle
  3
ObjectDBX Classes
 90
4095
 91
0
280
0
281
0
  0
CLASS
  1
MATERIAL
  2
AcDbMaterial
  3
ObjectDBX Classes
 90
1153
 91
0
280
0
281
0
  0
CLASS
  1
SCALE
  2
AcDbScale
  3
ObjectDBX Classes
 90
1153
 91
0
280
0
281
0
  0
CLASS
  1
TABLESTYLE
  2
AcDbTableStyle
  3
ObjectDBX Classes
 90
4095
 91
0
280
0
281
0
  0
CLASS
  1
MLEADERSTYLE
  2
AcDbMLeaderStyle
  3
ACDB_MLEADERSTYLE_CLASS
 90
4095
 91
0
280
0
281
0
  0
CLASS
  1
DICTIONARYVAR
  2
AcDbDictionaryVar
  3
ObjectDBX Classes
 90
0
 91
0
280
0
281
0
  0
CLASS
  1
CELLSTYLEMAP
  2
AcDbCellStyleMap
  3
ObjectDBX Classes
 90
1152
 91
0
280
0
281
0
  0
CLASS
  1
MENTALRAYRENDERSETTINGS
  2
AcDbMentalRayRenderSettings
  3
SCENEOE
 90
1024
 91
0
280
0
281
0
  0
CLASS
  1
ACDBDETAILVIEWSTYLE
  2
AcDbDetailViewStyle
  3
ObjectDBX Classes
 90
1025
 91
0
280
0
281
0
  0
CLASS
  1
ACDBSECTIONVIEWSTYLE
  2
AcDbSectionViewStyle
  3
ObjectDBX Classes
 90
1025
 91
0
280
0
281
0
  0
CLASS
  1
RASTERVARIABLES
  2
AcDbRasterVariables
  3
ISM
 90
0
 91
0
280
0
281
0
  0
CLASS
  1
LAYOUT
  2
AcDbLayout
  3
ObjectDBX Classes
 90
0
 91
0
280
0
281
0
  0
CLASS
  1
ACDBPLACEHOLDER
  2
AcDbPlaceHolder
  3
ObjectDBX Classes
 90
0
 91
0
280
0
281
0
  0
ENDSEC
  0
SECTION
  2
TABLES
  0
TABLE
  2
VPORT
  5
8
330
0
100
AcDbSymbolTable
 70
1
  0
VPORT
  5
3F
330
8
100
AcDbSymbolTableRecord
100
AcDbViewportTableRecord
  2
*Active
 70
0
 10
0.0
 20
0.0
 11
1.0
 21
1.0
 12
47.822224568507
 22
23.094899347579336
 13
0.0
 23
0.0
 14
0.5
 24
0.5
 15
0.5
 25
0.5
 16
0.0
 26
0.0
 36
1.0
 17
0.0
 27
0.0
 37
0.0
 40
47.822224468507
 41
1.34
 42
50.0
 43
0.0
 44
0.0
 50
0.0
 51
0.0
 71
0
 72
1000
 73
1
 74
3
 75
0
 76
0
 77
0
 78
0
281
0
 65
1
110
0.0
120
0.0
130
0.0
111
1.0
121
0.0
131
0.0
112
0.0
122
1.0
132
0.0
 79
0
146
0.0
  0
ENDTAB
  0
TABLE
  2
LTYPE
  5
2
330
0
100
AcDbSymbolTable
 70
3
  0
LTYPE
  5
24
330
2
100
AcDbSymbolTableRecord
100
AcDbLinetypeTableRecord
  2
ByBlock
 70
0
  3

 72
65
 73
0
 40
0.0
  0
LTYPE
  5
25
330
2
100
AcDbSymbolTableRecord
100
AcDbLinetypeTableRecord
  2
ByLayer
 70
0
  3

 72
65
 73
0
 40
0.0
  0
LTYPE
  5
26
330
2
100
AcDbSymbolTableRecord
100
AcDbLinetypeTableRecord
  2
Continuous
 70
0
  3

 72
65
 73
0
 40
0.0
  0
ENDTAB
  0
TABLE
  2
LAYER
  5
1
330
0
100
AcDbSymbolTable
 70
2
  0
LAYER
  5
27
330
1
100
AcDbSymbolTableRecord
100
AcDbLayerTableRecord
  2
0
 70
0
 62
7
  6
Continuous
370
-3
390
13
347
21
  0
LAYER
  5
28
330
1
100
AcDbSymbolTableRecord
100
AcDbLayerTableRecord
  2
Defpoints
 70
0
 62
7
  6
Continuous
290
0
370
-3
390
13
347
21
  0
ENDTAB
  0
TABLE
  2
STYLE
  5
5
330
0
100
AcDbSymbolTable
 70
1
  0
STYLE
  5
29
330
5
100
AcDbSymbolTableRecord
100
AcDbTextStyleTableRecord
  2
Standard
 70
0
 40
0.0
 41
1.0
 50
0.0
 71
0
 42
2.5
  3
txt
  4

  0
ENDTAB
  0
TABLE
  2
VIEW
  5
7
330
0
100
AcDbSymbolTable
 70
0
  0
ENDTAB
  0
TABLE
  2
UCS
  5
6
330
0
100
AcDbSymbolTable
 70
0
  0
ENDTAB
  0
TABLE
  2
APPID
  5
3
330
0
100
AcDbSymbolTable
 70
3
  0
APPID
  5
2A
330
3
100
AcDbSymbolTableRecord
100
AcDbRegAppTableRecord
  2
ACAD
 70
0
  0
APPID
  5
40
330
3
100
AcDbSymbolTableRecord
100
AcDbRegAppTableRecord
  2
HATCHBACKGROUNDCOLOR
 70
0
  0
APPID
  5
41
330
3
100
AcDbSymbolTableRecord
100
AcDbRegAppTableRecord
  2
EZDXF
 70
0
  0
ENDTAB
  0
TABLE
  2
DIMSTYLE
  5
4
330
0
100
AcDbSymbolTable
 70
1
100
AcDbDimStyleTable
  0
DIMSTYLE
105
2B
330
4
100
AcDbSymbolTableRecord
100
AcDbDimStyleTableRecord
  2
Standard
 70
0
 40
1.0
 41
2.5
 42
0.625
 43
3.75
 44
1.25
 45
0.0
 46
0.0
 47
0.0
 48
0.0
 49
2.5
140
2.5
141
2.5
142
0.0
143
0.03937007874
144
1.0
145
0.0
146
1.0
147
0.625
148
0.0
 69
0
 70
0
 71
0
 72
0
 73
0
 74
0
 75
0
 76
0
 77
1
 78
8
 79
3
170
0
171
3
172
1
173
0
174
0
175
0
176
0
177
0
178
0
179
2
271
2
272
2
273
2
274
3
275
0
276
0
277
2
278
44
279
0
280
0
281
0
282
0
283
0
284
8
285
0
286
0
288
0
289
3
290
0
371
-2
372
-2
  0
ENDTAB
  0
TABLE
  2
BLOCK_RECORD
  5
9
330
0
100
AcDbSymbolTable
 70
2
  0
BLOCK_RECORD
  5
17
330
9
100
AcDbSymbolTableRecord
100
AcDbBlockTableRecord
  2
*Model_Space
340
1A
 70
0
280
1
281
0
  0
BLOCK_RECORD
  5
1B
330
9
100
AcDbSymbolTableRecord
100
AcDbBlockTableRecord
  2
*Paper_Space
340
1E
 70
0
280
1
281
0
  0
ENDTAB
  0
ENDSEC
  0
SECTION
  2
BLOCKS
  0
BLOCK
  5
18
330
17
100
AcDbEntity
  8
0
100
AcDbBlockBegin
  2
*Model_Space
 70
0
 10
0.0
 20
0.0
 30
0.0
  3
*Model_Space
  1

  0
ENDBLK
  5
19
330
17
100
AcDbEntity
  8
0
100
AcDbBlockEnd
  0
BLOCK
  5
1C
330
1B
100
AcDbEntity
  8
0
100
AcDbBlockBegin
  2
*Paper_Space
 70
0
 10
0.0
 20
0.0
 30
0.0
  3
*Paper_Space
  1

  0
ENDBLK
  5
1D
330
1B
100
AcDbEntity
  8
0
100
AcDbBlockEnd
  0
ENDSEC
  0
SECTION
  2
ENTITIES
  0
LINE
  5
2F
330
17
100
AcDbEntity
  8
0
100
AcDbLine
 10
79.82222456850499
 20
46.189798595155004
 30
1.0000008110466752e-07
 11
85.644449037013
 21
46.189798595159665
 31
1.0000008110466752e-07
  0
LINE
  5
30
330
17
100
AcDbEntity
  8
0
100
AcDbLine
 10
85.644449037013
 20
46.189798595159665
 30
1.0000008110466752e-07
 11
86.82220295454
 21
46.18979859515707
 31
1.0000008110466752e-07
  0
LINE
  5
31
330
17
100
AcDbEntity
  8
0
100
AcDbLine
 10
86.82220295454
 20
46.18979859515707
 30
1.0000008110466752e-07
 11
92.82220295454
 21
46.1897985951571
 31
1.0000008110466752e-07
  0
LINE
  5
32
330
17
100
AcDbEntity
  8
0
100
AcDbLine
 10
92.82220295454
 20
46.1897985951571
 30
1.0000008110466752e-07
 11
95.644449037014
 21
46.1897985951591
 31
1.0000008110466752e-07
  0
LINE
  5
33
330
17
100
AcDbEntity
  8
0
100
AcDbLine
 10
95.644449037014
 20
46.1897985951591
 30
1.0000008110466752e-07
 11
95.644449037014
 21
45.624478245009
 31
1.0000008110466752e-07
  0
SPLINE
  5
34
330
17
100
AcDbEntity
  8
0
100
AcDbSpline
 70
0
 71
3
 72
14
 73
10
 74
0
 40
0.0
 40
0.0
 40
0.0
 40
0.0
 40
0.13715298641035434
 40
0.13715298641035434
 40
0.5406860922598895
 40
0.5406860922598895
 40
0.8412258704231307
 40
0.8412258704231307
 40
1.0
 40
1.0
 40
1.0
 40
1.0
 10
95.644449037014
 20
45.62447824501
 30
1.0000008110466752e-07
 10
94.979334148793
 20
42.968810623669
 30
1.0000008110466752e-07
 10
93.99058314782701
 20
40.144462438377005
 30
1.0000008199284594e-07
 10
88.913588797238
 20
28.811201620332003
 30
1.0000008288102435e-07
 10
82.588916859147
 20
19.919222951479004
 30
1.0000008376920277e-07
 10
69.579952045146
 20
7.8682299847460015
 30
1.0000008554555961e-07
 10
63.406545615936004
 20
3.833244920299002
 30
1.0000008554555961e-07
 10
54.102913920326
 20
0.5928678610840024
 30
1.0000008643373803e-07
 10
50.917862311699004
 20
9.999900640877968e-08
 30
1.0000008643373803e-07
 10
47.82222456850581
 20
1.0000000116860974e-07
 30
1.0000008643373803e-07
  0
SPLINE
  5
35
330
17
100
AcDbEntity
  8
0
100
AcDbSpline
 70
0
 71
3
 72
14
 73
10
 74
0
 40
0.0
 40
0.0
 40
0.0
 40
0.0
 40
0.15877412957674852
 40
0.15877412957674852
 40
0.45931390774010544
 40
0.45931390774010544
 40
0.8628470135900418
 40
0.8628470135900418
 40
1.0
 40
1.0
 40
1.0
 40
1.0
 10
47.82222456850581
 20
1.0000000116860974e-07
 30
1.0000008643373803e-07
 10
44.726586825315
 20
1.0000000116860974e-07
 30
1.0000008643373803e-07
 10
41.541535216689006
 20
0.5928678610830076
 30
1.0000008643373803e-07
 10
32.237903521090004
 20
3.8332449202950016
 30
1.0000008554555961e-07
 10
26.064497091880003
 20
7.868229984736004
 30
1.0000008554555961e-07
 10
13.05553227787
 20
19.919222951469003
 30
1.0000008376920277e-07
 10
6.730860339780001
 20
28.811201620331005
 30
1.0000008288102435e-07
 10
1.6538659891900025
 20
40.144462438373004
 30
1.0000008199284594e-07
 10
0.6651149882300018
 20
42.968810623653006
 30
1.0000008110466752e-07
 10
1.0001000561032924e-07
 20
45.624478244984005
 30
1.0000008110466752e-07
  0
LINE
  5
36
330
17
100
AcDbEntity
  8
0
100
AcDbLine
 10
1.0001000561032924e-07
 20
45.624478244984005
 30
1.0000008110466752e-07
 11
1.0000000116860974e-07
 21
46.18979859515819
 31
1.0000008110466752e-07
  0
LINE
  5
37
330
17
100
AcDbEntity
  8
0
100
AcDbLine
 10
1.0000000116860974e-07
 20
46.18979859515819
 30
1.0000008110466752e-07
 11
2.8222029545400034
 21
46.18979859515666
 31
1.0000008110466752e-07
  0
LINE
  5
38
330
17
100
AcDbEntity
  8
0
100
AcDbLine
 10
2.8222029545400034
 20
46.18979859515666
 30
1.0000008110466752e-07
 11
8.822202954540003
 21
46.18979859515669
 31
1.0000008110466752e-07
  0
LINE
  5
39
330
17
100
AcDbEntity
  8
0
100
AcDbLine
 10
8.822202954540003
 20
46.18979859515669
 30
1.0000008110466752e-07
 11
10.000000100000001
 21
46.18979859515864
 31
1.0000008110466752e-07
  0
LINE
  5
3A
330
17
100
AcDbEntity
  8
0
100
AcDbLine
 10
10.000000100000001
 20
46.18979859515864
 30
1.0000008110466752e-07
 11
15.822224568510002
 21
46.189798595155004
 31
1.0000008110466752e-07
  0
LINE
  5
3B
330
17
100
AcDbEntity
  8
0
100
AcDbLine
 10
15.822224568510002
 20
46.189798595155004
 30
1.0000008110466752e-07
 11
15.822224568510002
 21
32.500856175205
 31
1.0000008288102435e-07
  0
SPLINE
  5
3C
330
17
100
AcDbEntity
  8
0
100
AcDbSpline
 70
0
 71
3
 72
59
 73
55
 74
0
 40
0.0
 40
0.0
 40
0.0
 40
0.0
 40
0.22237998922490923
 40
0.22237998922490923
 40
0.22237998922490923
 40
0.287498486697234
 40
0.287498486697234
 40
0.287498486697234
 40
0.32403107432219297
 40
0.32403107432219297
 40
0.32403107432219297
 40
0.34827145563581613
 40
0.34827145563581613
 40
0.34827145563581613
 40
0.35261698416955883
 40
0.35261698416955883
 40
0.35261698416955883
 40
0.490831681029472
 40
0.490831681029472
 40
0.490831681029472
 40
0.6192109763062159
 40
0.6192109763062159
 40
0.6192109763062159
 40
0.7127867230450787
 40
0.7127867230450787
 40
0.7127867230450787
 40
0.7396563144216607
 40
0.7396563144216607
 40
0.7396563144216607
 40
0.766035362945195
 40
0.766035362945195
 40
0.766035362945195
 40
0.7761099442190864
 40
0.7761099442190864
 40
0.7761099442190864
 40
0.778804955522731
 40
0.778804955522731
 40
0.778804955522731
 40
0.814690006300038
 40
0.814690006300038
 40
0.814690006300038
 40
0.8510499790349993
 40
0.8510499790349993
 40
0.8510499790349993
 40
0.8882874842761797
 40
0.8882874842761797
 40
0.8882874842761797
 40
0.9258289788057277
 40
0.9258289788057277
 40
0.9258289788057277
 40
0.9640587268921857
 40
0.9640587268921857
 40
0.9640587268921857
 40
1.0
 40
1.0
 40
1.0
 40
1.0
 10
15.822224568510002
 20
32.500856175205
 30
1.0000008288102435e-07
 10
17.730793853300003
 20
29.579430970150003
 30
1.0000008288102435e-07
 10
19.923416636080002
 20
26.694170217953005
 30
1.0000008288102435e-07
 10
22.298514917700004
 20
24.033650112520004
 30
1.0000008376920277e-07
 10
22.994003895760002
 20
23.254582389906005
 30
1.0000008376920277e-07
 10
23.704682541770005
 20
22.494104953091004
 30
1.0000008376920277e-07
 10
24.427300717740003
 20
21.756267350888002
 30
1.0000008376920277e-07
 10
24.832701838120002
 20
21.342327872831003
 30
1.0000008376920277e-07
 10
25.241860765590005
 20
20.935513986902006
 30
1.0000008376920277e-07
 10
25.654203399570005
 20
20.536540041740004
 30
1.0000008376920277e-07
 10
25.927804130570003
 20
20.271809805158004
 30
1.0000008376920277e-07
 10
26.202806546040005
 20
20.010531239827003
 30
1.0000008376920277e-07
 10
26.479042920110004
 20
19.752912878186002
 30
1.0000008376920277e-07
 10
26.528563306360002
 20
19.706730108748005
 30
1.0000008376920277e-07
 10
26.578123347900004
 20
19.660664967691005
 30
1.0000008376920277e-07
 10
26.62772208
 20
19.614718654493004
 30
1.0000008376920277e-07
 10
28.205069548280004
 20
18.153526044773002
 30
1.000000846573812e-07
 10
29.830908684060002
 20
16.810161104161004
 30
1.000000846573812e-07
 10
31.463272245960002
 20
15.609552411751004
 30
1.000000846573812e-07
 10
32.979476300040005
 20
14.494379413967003
 30
1.000000846573812e-07
 10
34.50130686132
 20
13.502369224412007
 30
1.000000846573812e-07
 10
35.99511784879
 20
12.653461546840006
 30
1.000000846573812e-07
 10
37.083957589940006
 20
12.034692222162008
 30
1.000000846573812e-07
 10
38.157910230092
 20
11.491952026423007
 30
1.000000846573812e-07
 10
39.203950162461005
 20
11.032945481318002
 30
1.000000846573812e-07
 10
39.504312879575004
 20
10.901145108507002
 30
1.000000846573812e-07
 10
39.802250083831005
 20
10.776053577277004
 30
1.000000846573812e-07
 10
40.09765787270901
 20
10.657611292343006
 30
1.000000846573812e-07
 10
40.387672569539006
 20
10.541331340866002
 30
1.000000846573812e-07
 10
40.675249699559004
 20
10.431460159025
 30
1.000000846573812e-07
 10
40.960268918416006
 20
10.327986427672002
 30
1.000000846573812e-07
 10
41.069122324651005
 20
10.288468151821007
 30
1.000000846573812e-07
 10
41.177602376423
 20
10.249883474691003
 30
1.000000846573812e-07
 10
41.285701341961
 20
10.212233509654006
 30
1.000000846573812e-07
 10
41.314800902968
 20
10.202098376085004
 30
1.000000846573812e-07
 10
41.343865934758
 20
10.192031864033005
 30
1.000000846573812e-07
 10
41.372894296430005
 20
10.182034506156008
 30
1.0000008554555961e-07
 10
41.759417436859
 20
10.048916068200008
 30
1.0000008554555961e-07
 10
42.13956831843
 20
9.928009970017001
 30
1.0000008554555961e-07
 10
42.513488438938005
 20
9.818787090689007
 30
1.0000008554555961e-07
 10
42.892357218338006
 20
9.708118697351004
 30
1.0000008554555961e-07
 10
43.264829309874
 20
9.609444955628007
 30
1.0000008554555961e-07
 10
43.63103147722801
 20
9.522265253557002
 30
1.0000008554555961e-07
 10
44.006071778431
 20
9.432981506385005
 30
1.0000008554555961e-07
 10
44.37453600018701
 20
9.355753371109003
 30
1.0000008554555961e-07
 10
44.736537223954
 20
9.290093494078008
 30
1.0000008554555961e-07
 10
45.101493653597004
 20
9.223897601029002
 30
1.0000008554555961e-07
 10
45.459881223372
 20
9.169459823155002
 30
1.0000008554555961e-07
 10
45.811790949845005
 20
9.126329047562002
 30
1.0000008554555961e-07
 10
46.17015228737
 20
9.082407549329005
 30
1.0000008554555961e-07
 10
46.521796234448004
 20
9.050211586446004
 30
1.0000008554555961e-07
 10
46.866791350834006
 20
9.029312025227007
 30
1.0000008554555961e-07
 10
47.191134678204
 20
9.009663534845004
 30
1.0000008554555961e-07
 10
47.509601174409006
 20
9.000000100001003
 30
1.0000008554555961e-07
 10
47.8222245685057
 20
9.000000100000001
 30
1.0000008554555961e-07
  0
SPLINE
  5
3D
330
17
100
AcDbEntity
  8
0
100
AcDbSpline
 70
0
 71
3
 72
56
 73
52
 74
0
 40
0.0
 40
0.0
 40
0.0
 40
0.0
 40
0.07021285252637478
 40
0.07021285252637478
 40
0.07021285252637478
 40
0.13901098141058704
 40
0.13901098141058704
 40
0.13901098141058704
 40
0.18145051753800912
 40
0.18145051753800912
 40
0.18145051753800912
 40
0.20267028560187555
 40
0.20267028560187555
 40
0.20267028560187555
 40
0.21328016963380864
 40
0.21328016963380864
 40
0.21328016963380864
 40
0.21858511164961994
 40
0.21858511164961994
 40
0.21858511164961994
 40
0.22223117685811875
 40
0.22223117685811875
 40
0.22223117685811875
 40
0.22389005366543122
 40
0.22389005366543122
 40
0.22389005366543122
 40
0.24443973664969357
 40
0.24443973664969357
 40
0.24443973664969357
 40
0.26582650680242276
 40
0.26582650680242276
 40
0.26582650680242276
 40
0.28721327695515214
 40
0.28721327695515214
 40
0.28721327695515214
 40
0.5354547398403542
 40
0.5354547398403542
 40
0.5354547398403542
 40
0.6473830158307803
 40
0.6473830158307803
 40
0.6473830158307803
 40
0.669447694236335
 40
0.669447694236335
 40
0.669447694236335
 40
0.7593293956810389
 40
0.7593293956810389
 40
0.7593293956810389
 40
0.7776200107750223
 40
0.7776200107750223
 40
0.7776200107750223
 40
1.0
 40
1.0
 40
1.0
 40
1.0
 10
47.822224568505696
 20
9.000000100000001
 30
1.0000008554555961e-07
 10
48.432948072933
 20
9.000000099999006
 30
1.0000008554555961e-07
 10
49.06718908081
 20
9.036892740185003
 30
1.0000008554555961e-07
 10
49.72424229407601
 20
9.113374902945004
 30
1.0000008554555961e-07
 10
50.368056496515
 20
9.188316021297005
 30
1.0000008554555961e-07
 10
51.033772695675005
 20
9.301267656946003
 30
1.0000008554555961e-07
 10
51.720705042785006
 20
9.454722638893003
 30
1.0000008554555961e-07
 10
52.144453342847
 20
9.549384490253004
 30
1.0000008554555961e-07
 10
52.576274578962
 20
9.659458159272006
 30
1.0000008554555961e-07
 10
53.016003819319
 20
9.785519361480006
 30
1.0000008554555961e-07
 10
53.235868439498006
 20
9.848549962584002
 30
1.0000008554555961e-07
 10
53.457710015039005
 20
9.915577328963003
 30
1.0000008554555961e-07
 10
53.681507661051
 20
9.986672692104001
 30
1.0000008554555961e-07
 10
53.79340648405601
 20
10.022220373674003
 30
1.0000008554555961e-07
 10
53.90579432193
 20
10.058785046598004
 30
1.0000008554555961e-07
 10
54.018668547745
 20
10.096375567020004
 30
1.0000008554555961e-07
 10
54.075105660652
 20
10.115170827231005
 30
1.0000008554555961e-07
 10
54.131664370377
 20
10.134222548813007
 30
1.0000008554555961e-07
 10
54.188344347547
 20
10.153531835735002
 30
1.0000008554555961e-07
 10
54.227300266793
 20
10.1668030306
 30
1.0000008554555961e-07
 10
54.266313469824006
 20
10.180195893041002
 30
1.0000008554555961e-07
 10
54.305383849523004
 20
10.193710780909
 30
1.000000846573812e-07
 10
54.323159984353005
 20
10.199859747743005
 30
1.000000846573812e-07
 10
54.340947531628004
 20
10.206033826871007
 30
1.000000846573812e-07
 10
54.358747795054
 20
10.212233509655007
 30
1.000000846573812e-07
 10
54.57786985779801
 20
10.288551890316008
 30
1.000000846573812e-07
 10
54.799447146721
 20
10.369024106042005
 30
1.000000846573812e-07
 10
55.023014425731006
 20
10.453559377419005
 30
1.000000846573812e-07
 10
55.255688672507006
 20
10.541538175930008
 30
1.000000846573812e-07
 10
55.49051815026
 20
10.633918120736006
 30
1.000000846573812e-07
 10
55.726952623193
 20
10.730543431033006
 30
1.000000846573812e-07
 10
55.963387096126006
 20
10.827168741331008
 30
1.000000846573812e-07
 10
56.201426176491005
 20
10.928039372411007
 30
1.000000846573812e-07
 10
56.440498974559006
 20
11.032945481322002
 30
1.000000846573812e-07
 10
59.215475312951
 20
12.250616300971004
 30
1.000000846573812e-07
 10
62.186643431047
 20
14.057446869038003
 30
1.000000846573812e-07
 10
65.111298514172
 20
16.309703551879004
 30
1.000000846573812e-07
 10
66.429980725906
 20
17.325211616766005
 30
1.000000846573812e-07
 10
67.739206842612
 20
18.431274211467006
 30
1.0000008376920277e-07
 10
69.01672705703001
 20
19.614718654505005
 30
1.0000008376920277e-07
 10
69.26859934633
 20
19.848043229541005
 30
1.0000008376920277e-07
 10
69.51946313935301
 20
20.084422179818006
 30
1.0000008376920277e-07
 10
69.769194864235
 20
20.323700108728005
 30
1.0000008376920277e-07
 10
70.786491011698
 20
21.298412133673004
 30
1.0000008376920277e-07
 10
71.785003592002
 20
22.321225538936005
 30
1.0000008376920277e-07
 10
72.75636910204301
 20
23.381671352586004
 30
1.0000008376920277e-07
 10
72.95403862069
 20
23.597468404641003
 30
1.0000008376920277e-07
 10
73.150583870433
 20
23.814823997053004
 30
1.0000008376920277e-07
 10
73.345934219314
 20
24.033650112514003
 30
1.0000008376920277e-07
 10
75.721032500928
 20
26.694170217949004
 30
1.0000008288102435e-07
 10
77.913655283712
 20
29.579430970147005
 30
1.0000008288102435e-07
 10
79.822224568506
 20
32.500856175205
 30
1.0000008288102435e-07
  0
LINE
  5
3E
330
17
100
AcDbEntity
  8
0
100
AcDbLine
 10
79.822224568506
 20
32.500856175206
 30
1.0000008288102435e-07
 11
79.82222456850499
 21
46.189798595155004
 31
1.0000008110466752e-07
  0
ENDSEC
  0
SECTION
  2
OBJECTS
  0
DICTIONARY
  5
A
330
0
100
AcDbDictionary
281
1
  3
ACAD_COLOR
350
B
  3
ACAD_GROUP
350
C
  3
ACAD_LAYOUT
350
D
  3
ACAD_MATERIAL
350
E
  3
ACAD_MLEADERSTYLE
350
F
  3
ACAD_MLINESTYLE
350
10
  3
ACAD_PLOTSETTINGS
350
11
  3
ACAD_PLOTSTYLENAME
350
12
  3
ACAD_SCALELIST
350
14
  3
ACAD_TABLESTYLE
350
15
  3
ACAD_VISUALSTYLE
350
16
  3
EZDXF_META
350
2D
  0
DICTIONARY
  5
B
330
A
100
AcDbDictionary
281
1
  0
DICTIONARY
  5
C
330
A
100
AcDbDictionary
281
1
  0
DICTIONARY
  5
D
330
A
100
AcDbDictionary
281
1
  3
Model
350
1A
  3
Layout1
350
1E
  0
DICTIONARY
  5
E
330
A
100
AcDbDictionary
281
1
  3
ByBlock
350
1F
  3
ByLayer
350
20
  3
Global
350
21
  0
DICTIONARY
  5
F
330
A
100
AcDbDictionary
281
1
  3
Standard
350
2C
  0
DICTIONARY
  5
10
330
A
100
AcDbDictionary
281
1
  3
Standard
350
22
  0
DICTIONARY
  5
11
330
A
100
AcDbDictionary
281
1
  0
ACDBDICTIONARYWDFLT
  5
12
330
A
100
AcDbDictionary
281
1
  3
Normal
350
13
100
AcDbDictionaryWithDefault
340
13
  0
ACDBPLACEHOLDER
  5
13
330
12
  0
DICTIONARY
  5
14
330
A
100
AcDbDictionary
281
1
  0
DICTIONARY
  5
15
330
A
100
AcDbDictionary
281
1
  0
DICTIONARY
  5
16
330
A
100
AcDbDictionary
281
1
  0
LAYOUT
  5
1A
330
D
100
AcDbPlotSettings
  1

  4
A3
  6

 40
7.5
 41
20.0
 42
7.5
 43
20.0
 44
420.0
 45
297.0
 46
0.0
 47
0.0
 48
0.0
 49
0.0
140
0.0
141
0.0
142
1.0
143
1.0
 70
1024
 72
1
 73
0
 74
5
  7

 75
16
 76
0
 77
2
 78
300
147
1.0
148
0.0
149
0.0
100
AcDbLayout
  1
Model
 70
1
 71
0
 10
0.0
 20
0.0
 11
420.0
 21
297.0
 12
0.0
 22
0.0
 32
0.0
 14
1e+20
 24
1e+20
 34
1e+20
 15
-1e+20
 25
-1e+20
 35
-1e+20
146
0.0
 13
0.0
 23
0.0
 33
0.0
 16
1.0
 26
0.0
 36
0.0
 17
0.0
 27
1.0
 37
0.0
 76
1
330
17
  0
LAYOUT
  5
1E
330
D
100
AcDbPlotSettings
  1

  4
A3
  6

 40
7.5
 41
20.0
 42
7.5
 43
20.0
 44
420.0
 45
297.0
 46
0.0
 47
0.0
 48
0.0
 49
0.0
140
0.0
141
0.0
142
1.0
143
1.0
 70
0
 72
1
 73
0
 74
5
  7

 75
16
 76
0
 77
2
 78
300
147
1.0
148
0.0
149
0.0
100
AcDbLayout
  1
Layout1
 70
1
 71
1
 10
0.0
 20
0.0
 11
420.0
 21
297.0
 12
0.0
 22
0.0
 32
0.0
 14
1e+20
 24
1e+20
 34
1e+20
 15
-1e+20
 25
-1e+20
 35
-1e+20
146
0.0
 13
0.0
 23
0.0
 33
0.0
 16
1.0
 26
0.0
 36
0.0
 17
0.0
 27
1.0
 37
0.0
 76
1
330
1B
  0
MATERIAL
  5
1F
102
{ACAD_REACTORS
330
E
102
}
330
E
100
AcDbMaterial
  1
ByBlock
  2

 70
0
 40
1.0
 71
1
 41
1.0
 91
-1023410177
 42
1.0
 72
1
  3

 73
1
 74
1
 75
1
 44
0.5
 73
0
 45
1.0
 46
1.0
 77
1
  4

 78
1
 79
1
170
1
 48
1.0
171
1
  6

172
1
173
1
174
1
140
1.0
141
1.0
175
1
  7

176
1
177
1
178
1
143
1.0
179
1
  8

270
1
271
1
272
1
145
1.0
146
1.0
273
1
  9

274
1
275
1
276
1
 42
1.0
 72
1
  3

 73
1
 74
1
 75
1
 94
63
  0
MATERIAL
  5
20
102
{ACAD_REACTORS
330
E
102
}
330
E
100
AcDbMaterial
  1
ByLayer
  2

 70
0
 40
1.0
 71
1
 41
1.0
 91
-1023410177
 42
1.0
 72
1
  3

 73
1
 74
1
 75
1
 44
0.5
 73
0
 45
1.0
 46
1.0
 77
1
  4

 78
1
 79
1
170
1
 48
1.0
171
1
  6

172
1
173
1
174
1
140
1.0
141
1.0
175
1
  7

176
1
177
1
178
1
143
1.0
179
1
  8

270
1
271
1
272
1
145
1.0
146
1.0
273
1
  9

274
1
275
1
276
1
 42
1.0
 72
1
  3

 73
1
 74
1
 75
1
 94
63
  0
MATERIAL
  5
21
102
{ACAD_REACTORS
330
E
102
}
330
E
100
AcDbMaterial
  1
Global
  2

 70
0
 40
1.0
 71
1
 41
1.0
 91
-1023410177
 42
1.0
 72
1
  3

 73
1
 74
1
 75
1
 44
0.5
 73
0
 45
1.0
 46
1.0
 77
1
  4

 78
1
 79
1
170
1
 48
1.0
171
1
  6

172
1
173
1
174
1
140
1.0
141
1.0
175
1
  7

176
1
177
1
178
1
143
1.0
179
1
  8

270
1
271
1
272
1
145
1.0
146
1.0
273
1
  9

274
1
275
1
276
1
 42
1.0
 72
1
  3

 73
1
 74
1
 75
1
 94
63
  0
MLINESTYLE
  5
22
102
{ACAD_REACTORS
330
10
102
}
330
10
100
AcDbMlineStyle
  2
Standard
 70
0
  3

 62
256
 51
90.0
 52
90.0
 71
2
 49
0.5
 62
256
  6
BYLAYER
 49
-0.5
 62
256
  6
BYLAYER
  0
MLEADERSTYLE
  5
2C
102
{ACAD_REACTORS
330
F
102
}
330
F
100
AcDbMLeaderStyle
179
2
170
2
171
1
172
0
 90
2
 40
0.0
 41
0.0
173
1
 91
-1056964608
 92
-2
290
1
 42
2.0
291
1
 43
8.0
  3
Standard
 44
4.0
300

342
29
174
1
175
1
176
0
178
1
 93
-1056964608
 45
4.0
292
0
297
0
 46
4.0
 94
-1056964608
 47
1.0
 49
1.0
140
1.0
294
1
141
0.0
177
0
142
1.0
295
0
296
0
143
3.75
271
0
272
9
273
9
  0
DICTIONARY
  5
2D
330
A
100
AcDbDictionary
280
1
281
1
  3
CREATED_BY_EZDXF
350
2E
  3
WRITTEN_BY_EZDXF
350
42
  0
DICTIONARYVAR
  5
2E
330
2D
100
DictionaryVariables
280
0
  1
1.4.4 @ 2026-09-23T14:13:39.090184+00:00
  0
DICTIONARYVAR
  5
42
330
2D
100
DictionaryVariables
280
0
  1
1.4.4 @ 2026-09-23T14:13:39.100105+00:00
  0
ENDSEC
  0
EOF
