  0
SECTION
  2
HEADER
  9
$ACADVER
  1
AC1027
  9
$ACADMAINTVER
 70
105
  9
$DWGCODEPAGE
  3
ANSI_1252
  9
$LASTSAVEDBY
  1
ezdxf
  9
$REQUIREDVERSIONS
160
0
  9
$INSBASE
 10
0.0
 20
0.0
 30
0.0
  9
$EXTMIN
 10
1e+20
 20
1e+20
 30
1e+20
  9
$EXTMAX
 10
-1e+20
 20
-1e+20
 30
-1e+20
  9
$LIMMIN
 10
0.0
 20
0.0
  9
$LIMMAX
 10
420.0
 20
297.0
  9
$ORTHOMODE
 70
0
  9
$REGENMODE
 70
1
  9
$FILLMODE
 70
1
  9
$QTEXTMODE
 70
0
  9
$MIRRTEXT
 70
1
  9
$LTSCALE
 40
1.0
  9
$ATTMODE
 70
1
  9
$TEXTSIZE
 40
2.5
  9
$TRACEWID
 40
1.0
  9
$TEXTSTYLE
  7
Standard
  9
$CLAYER
  8
0
  9
$CELTYPE
  6
ByLayer
  9
$CECOLOR
 62
256
  9
$CELTSCALE
 40
1.0
  9
$DISPSILH
 70
0
  9
$DIMSCALE
 40
1.0
  9
$DIMASZ
 40
2.5
  9
$DIMEXO
 40
0.625
  9
$DIMDLI
 40
3.75
  9
$DIMRND
 40
0.0
  9
$DIMDLE
 40
0.0
  9
$DIMEXE
 40
1.25
  9
$DIMTP
 40
0.0
  9
$DIMTM
 40
0.0
  9
$DIMTXT
 40
2.5
  9
$DIMCEN
 40
2.5
  9
$DIMTSZ
 40
0.0
  9
$DIMTOL
 70
0
  9
$DIMLIM
 70
0
  9
$DIMTIH
 70
0
  9
$DIMTOH
 70
0
  9
$DIMSE1
 70
0
  9
$DIMSE2
 70
0
  9
$DIMTAD
 70
1
  9
$DIMZIN
 70
8
  9
$DIMBLK
  1

  9
$DIMASO
 70
1
  9
$DIMSHO
 70
1
  9
$DIMPOST
  1

  9
$DIMAPOST
  1

  9
$DIMALT
 70
0
  9
$DIMALTD
 70
3
  9
$DIMALTF
 40
0.03937007874
  9
$DIMLFAC
 40
1.0
  9
$DIMTOFL
 70
1
  9
$DIMTVP
 40
0.0
  9
$DIMTIX
 70
0
  9
$DIMSOXD
 70
0
  9
$DIMSAH
 70
0
  9
$DIMBLK1
  1

  9
$DIMBLK2
  1

  9
$DIMSTYLE
  2
ISO-25
  9
$DIMCLRD
 70
0
  9
$DIMCLRE
 70
0
  9
$DIMCLRT
 70
0
  9
$DIMTFAC
 40
1.0
  9
$DIMGAP
 40
0.625
  9
$DIMJUST
 70
0
  9
$DIMSD1
 70
0
  9
$DIMSD2
 70
0
  9
$DIMTOLJ
 70
0
  9
$DIMTZIN
 70
8
  9
$DIMALTZ
 70
0
  9
$DIMALTTZ
 70
0
  9
$DIMUPT
 70
0
  9
$DIMDEC
 70
2
  9
$DIMTDEC
 70
2
  9
$DIMALTU
 70
2
  9
$DIMALTTD
 70
3
  9
$DIMTXSTY
  7
Standard
  9
$DIMAUNIT
 70
0
  9
$DIMADEC
 70
0
  9
$DIMALTRND
 40
0.0
  9
$DIMAZIN
 70
0
  9
$DIMDSEP
 70
44
  9
$DIMATFIT
 70
3
  9
$DIMFRAC
 70
0
  9
$DIMLDRBLK
  1

  9
$DIMLUNIT
 70
2
  9
$DIMLWD
 70
-2
  9
$DIMLWE
 70
-2
  9
$DIMTMOVE
 70
0
  9
$DIMFXL
 40
1.0
  9
$DIMFXLON
 70
0
  9
$DIMJOGANG
 40
0.785398163397
  9
$DIMTFILL
 70
0
  9
$DIMTFILLCLR
 70
0
  9
$DIMARCSYM
 70
0
  9
$DIMLTYPE
  6

  9
$DIMLTEX1
  6

  9
$DIMLTEX2
  6

  9
$DIMTXTDIRECTION
 70
0
  9
$LUNITS
 70
2
  9
$LUPREC
 70
4
  9
$SKETCHINC
 40
1.0
  9
$FILLETRAD
 40
10.0
  9
$AUNITS
 70
0
  9
$AUPREC
 70
2
  9
$MENU
  1
.
  9
$ELEVATION
 40
0.0
  9
$PELEVATION
 40
0.0
  9
$THICKNESS
 40
0.0
  9
$LIMCHECK
 70
0
  9
$CHAMFERA
 40
0.0
  9
$CHAMFERB
 40
0.0
  9
$CHAMFERC
 40
0.0
  9
$CHAMFERD
 40
0.0
  9
$SKPOLY
 70
0
  9
$TDCREATE
 40
2461307.343784722
  9
$TDUCREATE
 40
2458532.153996898
  9
$TDUPDATE
 40
2461307.343784722
  9
$TDUUPDATE
 40
2458532.1544311
  9
$TDINDWG
 40
0.0
  9
$TDUSRTIMER
 40
0.0
  9
$USRTIMER
 70
1
  9
$ANGBASE
 50
0.0
  9
$ANGDIR
 70
0
  9
$PDMODE
 70
0
  9
$PDSIZE
 40
0.0
  9
$PLINEWID
 40
0.0
  9
$SPLFRAME
 70
0
  9
$SPLINETYPE
 70
6
  9
$SPLINESEGS
 70
8
  9
$HANDSEED
  5
46
  9
$SURFTAB1
 70
6
  9
$SURFTAB2
 70
6
  9
$SURFTYPE
 70
6
  9
$SURFU
 70
6
  9
$SURFV
 70
6
  9
$UCSBASE
  2

  9
$UCSNAME
  2

  9
$UCSORG
 10
0.0
 20
0.0
 30
0.0
  9
$UCSXDIR
 10
1.0
 20
0.0
 30
0.0
  9
$UCSYDIR
 10
0.0
 20
1.0
 30
0.0
  9
$UCSORTHOREF
  2

  9
$UCSORTHOVIEW
 70
0
  9
$UCSORGTOP
 10
0.0
 20
0.0
 30
0.0
  9
$UCSORGBOTTOM
 10
0.0
 20
0.0
 30
0.0
  9
$UCSORGLEFT
 10
0.0
 20
0.0
 30
0.0
  9
$UCSORGRIGHT
 10
0.0
 20
0.0
 30
0.0
  9
$UCSORGFRONT
 10
0.0
 20
0.0
 30
0.0
  9
$UCSORGBACK
 10
0.0
 20
0.0
 30
0.0
  9
$PUCSBASE
  2

  9
$PUCSNAME
  2

  9
$PUCSORG
 10
0.0
 20
0.0
 30
0.0
  9
$PUCSXDIR
 10
1.0
 20
0.0
 30
0.0
  9
$PUCSYDIR
 10
0.0
 20
1.0
 30
0.0
  9
$PUCSORTHOREF
  2

  9
$PUCSORTHOVIEW
 70
0
  9
$PUCSORGTOP
 10
0.0
 20
0.0
 30
0.0
  9
$PUCSORGBOTTOM
 10
0.0
 20
0.0
 30
0.0
  9
$PUCSORGLEFT
 10
0.0
 20
0.0
 30
0.0
  9
$PUCSORGRIGHT
 10
0.0
 20
0.0
 30
0.0
  9
$PUCSORGFRONT
 10
0.0
 20
0.0
 30
0.0
  9
$PUCSORGBACK
 10
0.0
 20
0.0
 30
0.0
  9
$USERI1
 70
0
  9
$USERI2
 70
0
  9
$USERI3
 70
0
  9
$USERI4
 70
0
  9
$USERI5
 70
0
  9
$USERR1
 40
0.0
  9
$USERR2
 40
0.0
  9
$USERR3
 40
0.0
  9
$USERR4
 40
0.0
  9
$USERR5
 40
0.0
  9
$WORLDVIEW
 70
1
  9
$SHADEDGE
 70
3
  9
$SHADEDIF
 70
70
  9
$TILEMODE
 70
1
  9
$MAXACTVP
 70
64
  9
$PINSBASE
 10
0.0
 20
0.0
 30
0.0
  9
$PLIMCHECK
 70
0
  9
$PEXTMIN
 10
1e+20
 20
1e+20
 30
1e+20
  9
$PEXTMAX
 10
-1e+20
 20
-1e+20
 30
-1e+20
  9
$PLIMMIN
 10
0.0
 20
0.0
  9
$PLIMMAX
 10
420.0
 20
297.0
  9
$UNITMODE
 70
0
  9
$VISRETAIN
 70
1
  9
$PLINEGEN
 70
0
  9
$PSLTSCALE
 70
1
  9
$TREEDEPTH
 70
3020
  9
$CMLSTYLE
  2
Standard
  9
$CMLJUST
 70
0
  9
$CMLSCALE
 40
20.0
  9
$PROXYGRAPHICS
 70
1
  9
$MEASUREMENT
 70
1
  9
$CELWEIGHT
370
-1
  9
$ENDCAPS
280
0
  9
$JOINSTYLE
280
0
  9
$LWDISPLAY
290
0
  9
$INSUNITS
 70
4
  9
$HYPERLINKBASE
  1

  9
$STYLESHEET
  1

  9
$XEDIT
290
1
  9
$CEPSNTYPE
380
0
  9
$PSTYLEMODE
290
1
  9
$FINGERPRINTGUID
  2
{33CCD183-E66E-4392-8DE5-201DC52AC691}
  9
$VERSIONGUID
  2
{A979A9B0-83D6-4670-A7CB-FED043A237E4}
  9
$EXTNAMES
290
1
  9
$PSVPSCALE
 40
0.0
  9
$OLESTARTUP
290
0
  9
$SORTENTS
280
127
  9
$INDEXCTL
280
0
  9
$HIDETEXT
280
1
  9
$XCLIPFRAME
280
1
  9
$HALOGAP
280
0
  9
$OBSCOLOR
 70
257
  9
$OBSLTYPE
280
0
  9
$INTERSECTIONDISPLAY
280
0
  9
$INTERSECTIONCOLOR
 70
257
  9
$DIMASSOC
280
2
  9
$PROJECTNAME
  1

  9
$CAMERADISPLAY
290
0
  9
$LENSLENGTH
 40
50.0
  9
$CAMERAHEIGHT
 40
0.0
  9
$STEPSPERSEC
 40
24.0
  9
$STEPSIZE
 40
100.0
  9
$3DDWFPREC
 40
2.0
  9
$PSOLWIDTH
 40
0.005
  9
$PSOLHEIGHT
 40
0.08
  9
$LOFTANG1
 40
1.570796326795
  9
$LOFTANG2
 40
1.570796326795
  9
$LOFTMAG1
 40
0.0
  9
$LOFTMAG2
 40
0.0
  9
$LOFTPARAM
 70
7
  9
$LOFTNORMALS
280
1
  9
$LATITUDE
 40
37.795
  9
$LONGITUDE
 40
-122.394
  9
$NORTHDIRECTION
 40
0.0
  9
$TIMEZONE
 70
-8000
  9
$LIGHTGLYPHDISPLAY
280
1
  9
$TILEMODELIGHTSYNCH
280
1
  9
$CMATERIAL
347
20
  9
$SOLIDHIST
280
0
  9
$SHOWHIST
280
1
  9
$DWFFRAME
280
2
  9
$DGNFRAME
280
2
  9
$REALWORLDSCALE
290
1
  9
$INTERFERECOLOR
 62
256
  9
$CSHADOW
280
0
  9
$SHADOWPLANELOCATION
 40
0.0
  0
ENDSEC
  0
SECTION
  2
CLASSES
  0
CLASS
  1
ACDBDICTIONARYWDFLT
  2
AcDbDictionaryWithDefault
  3
ObjectDBX Classes
 90
0
 91
0
280
0
281
0
  0
CLASS
  1
SUN
  2
AcDbSun
  3
SCENEOE
 90
1153
 91
0
280
0
281
0
  0
CLASS
  1
VISUALSTYLE
  2
AcDbVisualStyle
  3
ObjectDBX Classes
 90
4095
 91
0
280
0
281
0
  0
CLASS
  1
MATERIAL
  2
AcDbMaterial
  3
ObjectDBX Classes
 90
1153
 91
0
280
0
281
0
  0
CLASS
  1
SCALE
  2
AcDbScale
  3
ObjectDBX Classes
 90
1153
 91
0
280
0
281
0
  0
CLASS
  1
TABLESTYLE
  2
AcDbTableStyle
  3
ObjectDBX Classes
 90
4095
 91
0
280
0
281
0
  0
CLASS
  1
MLEADERSTYLE
  2
AcDbMLeaderStyle
  3
ACDB_MLEADERSTYLE_CLASS
 90
4095
 91
0
280
0
281
0
  0
CLASS
  1
DICTIONARYVAR
  2
AcDbDictionaryVar
  3
ObjectDBX Classes
 90
0
 91
0
280
0
281
0
  0
CLASS
  1
CELLSTYLEMAP
  2
AcDbCellStyleMap
  3
ObjectDBX Classes
 90
1152
 91
0
280
0
281
0
  0
CLASS
  1
MENTALRAYRENDERSETTINGS
  2
AcDbMentalRayRenderSettings
  3
SCENEOE
 90
1024
 91
0
280
0
281
0
  0
CLASS
  1
ACDBDETAILVIEWSTYLE
  2
AcDbDetailViewStyle
  3
ObjectDBX Classes
 90
1025
 91
0
280
0
281
0
  0
CLASS
  1
ACDBSECTIONVIEWSTYLE
  2
AcDbSectionViewStyle
  3
ObjectDBX Classes
 90
1025
 91
0
280
0
281
0
  0
CLASS
  1
RASTERVARIABLES
  2
AcDbRasterVariables
  3
ISM
 90
0
 91
0
280
0
281
0
  0
CLASS
  1
LAYOUT
  2
AcDbLayout
  3
ObjectDBX Classes
 90
0
 91
0
280
0
281
0
  0
CLASS
  1
ACDBPLACEHOLDER
  2
AcDbPlaceHolder
  3
ObjectDBX Classes
 90
0
 91
0
280
0
281
0
  0
ENDSEC
  0
SECTION
  2
TABLES
  0
TABLE
  2
VPORT
  5
8
330
0
100
AcDbSymbolTable
 70
1
  0
VPORT
  5
42
330
8
100
AcDbSymbolTableRecord
100
AcDbViewportTableRecord
  2
*Active
 70
0
 10
0.0
 20
0.0
 11
1.0
 21
1.0
 12
47.821478396687176
 22
23.021792423750895
 13
0.0
 23
0.0
 14
0.5
 24
0.5
 15
0.5
 25
0.5
 16
0.0
 26
0.0
 36
1.0
 17
0.0
 27
0.0
 37
0.0
 40
47.821478296687175
 41
1.34
 42
50.0
 43
0.0
 44
0.0
 50
0.0
 51
0.0
 71
0
 72
1000
 73
1
 74
3
 75
0
 76
0
 77
0
 78
0
281
0
 65
1
110
0.0
120
0.0
130
0.0
111
1.0
121
0.0
131
0.0
112
0.0
122
1.0
132
0.0
 79
0
146
0.0
  0
ENDTAB
  0
TABLE
  2
LTYPE
  5
2
330
0
100
AcDbSymbolTable
 70
3
  0
LTYPE
  5
24
330
2
100
AcDbSymbolTableRecord
100
AcDbLinetypeTableRecord
  2
ByBlock
 70
0
  3

 72
65
 73
0
 40
0.0
  0
LTYPE
  5
25
330
2
100
AcDbSymbolTableRecord
100
AcDbLinetypeTableRecord
  2
ByLayer
 70
0
  3

 72
65
 73
0
 40
0.0
  0
LTYPE
  5
26
330
2
100
AcDbSymbolTableRecord
100
AcDbLinetypeTableRecord
  2
Continuous
 70
0
  3

 72
65
 73
0
 40
0.0
  0
ENDTAB
  0
TABLE
  2
LAYER
  5
1
330
0
100
AcDbSymbolTable
 70
2
  0
LAYER
  5
27
330
1
100
AcDbSymbolTableRecord
100
AcDbLayerTableRecord
  2
0
 70
0
 62
7
  6
Continuous
370
-3
390
13
347
21
  0
LAYER
  5
28
330
1
100
AcDbSymbolTableRecord
100
AcDbLayerTableRecord
  2
Defpoints
 70
0
 62
7
  6
Continuous
290
0
370
-3
390
13
347
21
  0
ENDTAB
  0
TABLE
  2
STYLE
  5
5
330
0
100
AcDbSymbolTable
 70
1
  0
STYLE
  5
29
330
5
100
AcDbSymbolTableRecord
100
AcDbTextStyleTableRecord
  2
Standard
 70
0
 40
0.0
 41
1.0
 50
0.0
 71
0
 42
2.5
  3
txt
  4

  0
ENDTAB
  0
TABLE
  2
VIEW
  5
7
330
0
100
AcDbSymbolTable
 70
0
  0
ENDTAB
  0
TABLE
  2
UCS
  5
6
330
0
100
AcDbSymbolTable
 70
0
  0
ENDTAB
  0
TABLE
  2
APPID
  5
3
330
0
100
AcDbSymbolTable
 70
3
  0
APPID
  5
2A
330
3
100
AcDbSymbolTableRecord
100
AcDbRegAppTableRecord
  2
ACAD
 70
0
  0
APPID
  5
43
330
3
100
AcDbSymbolTableRecord
100
AcDbRegAppTableRecord
  2
HATCHBACKGROUNDCOLOR
 70
0
  0
APPID
  5
44
330
3
100
AcDbSymbolTableRecord
100
AcDbRegAppTableRecord
  2
EZDXF
 70
0
  0
ENDTAB
  0
TABLE
  2
DIMSTYLE
  5
4
330
0
100
AcDbSymbolTable
 70
1
100
AcDbDimStyleTable
  0
DIMSTYLE
105
2B
330
4
100
AcDbSymbolTableRecord
100
AcDbDimStyleTableRecord
  2
Standard
 70
0
 40
1.0
 41
2.5
 42
0.625
 43
3.75
 44
1.25
 45
0.0
 46
0.0
 47
0.0
 48
0.0
 49
2.5
140
2.5
141
2.5
142
0.0
143
0.03937007874
144
1.0
145
0.0
146
1.0
147
0.625
148
0.0
 69
0
 70
0
 71
0
 72
0
 73
0
 74
0
 75
0
 76
0
 77
1
 78
8
 79
3
170
0
171
3
172
1
173
0
174
0
175
0
176
0
177
0
178
0
179
2
271
2
272
2
273
2
274
3
275
0
276
0
277
2
278
44
279
0
280
0
281
0
282
0
283
0
284
8
285
0
286
0
288
0
289
3
290
0
371
-2
372
-2
  0
ENDTAB
  0
TABLE
  2
BLOCK_RECORD
  5
9
330
0
100
AcDbSymbolTable
 70
2
  0
BLOCK_RECORD
  5
17
330
9
100
AcDbSymbolTableRecord
100
AcDbBlockTableRecord
  2
*Model_Space
340
1A
 70
0
280
1
281
0
  0
BLOCK_RECORD
  5
1B
330
9
100
AcDbSymbolTableRecord
100
AcDbBlockTableRecord
  2
*Paper_Space
340
1E
 70
0
280
1
281
0
  0
ENDTAB
  0
ENDSEC
  0
SECTION
  2
BLOCKS
  0
BLOCK
  5
18
330
17
100
AcDbEntity
  8
0
100
AcDbBlockBegin
  2
*Model_Space
 70
0
 10
0.0
 20
0.0
 30
0.0
  3
*Model_Space
  1

  0
ENDBLK
  5
19
330
17
100
AcDbEntity
  8
0
100
AcDbBlockEnd
  0
BLOCK
  5
1C
330
1B
100
AcDbEntity
  8
0
100
AcDbBlockBegin
  2
*Paper_Space
 70
0
 10
0.0
 20
0.0
 30
0.0
  3
*Paper_Space
  1

  0
ENDBLK
  5
1D
330
1B
100
AcDbEntity
  8
0
100
AcDbBlockEnd
  0
ENDSEC
  0
SECTION
  2
ENTITIES
  0
LINE
  5
2F
330
17
100
AcDbEntity
  8
0
100
AcDbLine
 10
85.64340057550825
 20
46.043584547283004
 30
1.0000007932831068e-07
 11
79.82117610700031
 21
46.04358454727823
 31
1.0000007932831068e-07
  0
LINE
  5
30
330
17
100
AcDbEntity
  8
0
100
AcDbLine
 10
79.82117610700031
 20
46.04358454727823
 30
1.0000007932831068e-07
 11
79.82117610700026
 21
32.35464212732923
 31
1.0000007932831068e-07
  0
SPLINE
  5
31
330
17
100
AcDbEntity
  8
0
100
AcDbSpline
 70
0
 71
3
 72
56
 73
52
 74
0
 40
0.0
 40
0.0
 40
0.0
 40
0.0
 40
0.07021285252637478
 40
0.07021285252637478
 40
0.07021285252637478
 40
0.13901098141058704
 40
0.13901098141058704
 40
0.13901098141058704
 40
0.18145051753800912
 40
0.18145051753800912
 40
0.18145051753800912
 40
0.20267028560187555
 40
0.20267028560187555
 40
0.20267028560187555
 40
0.21328016963380864
 40
0.21328016963380864
 40
0.21328016963380864
 40
0.21858511164961994
 40
0.21858511164961994
 40
0.21858511164961994
 40
0.22223117685811875
 40
0.22223117685811875
 40
0.22223117685811875
 40
0.22389005366543122
 40
0.22389005366543122
 40
0.22389005366543122
 40
0.24443973664969357
 40
0.24443973664969357
 40
0.24443973664969357
 40
0.26582650680242276
 40
0.26582650680242276
 40
0.26582650680242276
 40
0.28721327695515214
 40
0.28721327695515214
 40
0.28721327695515214
 40
0.5354547398403542
 40
0.5354547398403542
 40
0.5354547398403542
 40
0.6473830158307803
 40
0.6473830158307803
 40
0.6473830158307803
 40
0.669447694236335
 40
0.669447694236335
 40
0.669447694236335
 40
0.7593293956810389
 40
0.7593293956810389
 40
0.7593293956810389
 40
0.7776200107750223
 40
0.7776200107750223
 40
0.7776200107750223
 40
1.0
 40
1.0
 40
1.0
 40
1.0
 10
47.82117610700048
 20
8.853786052123226
 30
1.0000007932831068e-07
 10
48.43189961142726
 20
8.853786052122231
 30
1.0000007932831068e-07
 10
49.06614061930526
 20
8.890678692308228
 30
1.0000007932831068e-07
 10
49.72319383257026
 20
8.96716085506823
 30
1.0000007932831068e-07
 10
50.367008035009256
 20
9.04210197342023
 30
1.0000007932831068e-07
 10
51.03272423416926
 20
9.155053609069228
 30
1.0000007932831068e-07
 10
51.71965658127926
 20
9.308508591016228
 30
1.0000007932831068e-07
 10
52.143404881342256
 20
9.40317044237623
 30
1.0000007932831068e-07
 10
52.57522611745726
 20
9.513244111395231
 30
1.0000007932831068e-07
 10
53.01495535781426
 20
9.63930531360323
 30
1.0000007932831068e-07
 10
53.23481997799326
 20
9.702335914707227
 30
1.0000007932831068e-07
 10
53.45666155353426
 20
9.769363281086228
 30
1.0000007932831068e-07
 10
53.68045919954526
 20
9.840458644227226
 30
1.0000007932831068e-07
 10
53.792358022551255
 20
9.876006325797228
 30
1.0000007932831068e-07
 10
53.904745860424256
 20
9.912570998721229
 30
1.0000007932831068e-07
 10
54.01762008623926
 20
9.95016151914323
 30
1.0000007932831068e-07
 10
54.07405719914726
 20
9.96895677935423
 30
1.0000007932831068e-07
 10
54.130615908871256
 20
9.988008500936232
 30
1.0000007932831068e-07
 10
54.18729588604226
 20
10.007317787858227
 30
1.0000007932831068e-07
 10
54.22625180528826
 20
10.020588982723226
 30
1.0000007932831068e-07
 10
54.26526500831926
 20
10.033981845164227
 30
1.0000007932831068e-07
 10
54.30433538801826
 20
10.047496733032226
 30
1.0000007932831068e-07
 10
54.32211152284726
 20
10.05364569986623
 30
1.0000007932831068e-07
 10
54.33989907012326
 20
10.059819778994232
 30
1.0000007932831068e-07
 10
54.357699333549256
 20
10.066019461778232
 30
1.0000007932831068e-07
 10
54.576821396293255
 20
10.142337842439233
 30
1.0000007932831068e-07
 10
54.79839868521526
 20
10.22281005816523
 30
1.0000007932831068e-07
 10
55.02196596422626
 20
10.30734532954223
 30
1.0000007932831068e-07
 10
55.25464021100126
 20
10.395324128053232
 30
1.0000007932831068e-07
 10
55.489469688754255
 20
10.48770407285923
 30
1.0000007932831068e-07
 10
55.72590416168826
 20
10.58432938315623
 30
1.0000007932831068e-07
 10
55.96233863462126
 20
10.680954693454233
 30
1.0000007932831068e-07
 10
56.20037771498626
 20
10.781825324534232
 30
1.0000007932831068e-07
 10
56.43945051305426
 20
10.886731433445227
 30
1.0000007932831068e-07
 10
59.21442685144526
 20
12.104402253094229
 30
1.0000007932831068e-07
 10
62.18559496954226
 20
13.911232821161228
 30
1.0000007932831068e-07
 10
65.11025005266626
 20
16.163489504002225
 30
1.0000007932831068e-07
 10
66.42893226440125
 20
17.178997568889226
 30
1.0000007932831068e-07
 10
67.73815838110626
 20
18.285060163590227
 30
1.0000007932831068e-07
 10
69.01567859552426
 20
19.468504606628226
 30
1.0000007932831068e-07
 10
69.26755088482525
 20
19.701829181664227
 30
1.0000007932831068e-07
 10
69.51841467784826
 20
19.938208131941227
 30
1.0000007932831068e-07
 10
69.76814640272926
 20
20.177486060851226
 30
1.0000007932831068e-07
 10
70.78544255019226
 20
21.152198085796226
 30
1.0000007932831068e-07
 10
71.78395513049726
 20
22.175011491059227
 30
1.0000007932831068e-07
 10
72.75532064053826
 20
23.235457304709225
 30
1.0000007932831068e-07
 10
72.95299015918526
 20
23.451254356764224
 30
1.0000007932831068e-07
 10
73.14953540892726
 20
23.668609949176226
 30
1.0000007932831068e-07
 10
73.34488575780927
 20
23.887436064637225
 30
1.0000007932831068e-07
 10
75.71998403942325
 20
26.547956170072226
 30
1.0000007932831068e-07
 10
77.91260682220626
 20
29.433216922270226
 30
1.0000007932831068e-07
 10
79.82117610700026
 20
32.354642127328226
 30
1.0000007932831068e-07
  0
SPLINE
  5
32
330
17
100
AcDbEntity
  8
0
100
AcDbSpline
 70
0
 71
3
 72
59
 73
55
 74
0
 40
0.0
 40
0.0
 40
0.0
 40
0.0
 40
0.22237998922490923
 40
0.22237998922490923
 40
0.22237998922490923
 40
0.287498486697234
 40
0.287498486697234
 40
0.287498486697234
 40
0.32403107432219297
 40
0.32403107432219297
 40
0.32403107432219297
 40
0.34827145563581613
 40
0.34827145563581613
 40
0.34827145563581613
 40
0.35261698416955883
 40
0.35261698416955883
 40
0.35261698416955883
 40
0.490831681029472
 40
0.490831681029472
 40
0.490831681029472
 40
0.6192109763062159
 40
0.6192109763062159
 40
0.6192109763062159
 40
0.7127867230450787
 40
0.7127867230450787
 40
0.7127867230450787
 40
0.7396563144216607
 40
0.7396563144216607
 40
0.7396563144216607
 40
0.766035362945195
 40
0.766035362945195
 40
0.766035362945195
 40
0.7761099442190864
 40
0.7761099442190864
 40
0.7761099442190864
 40
0.778804955522731
 40
0.778804955522731
 40
0.778804955522731
 40
0.814690006300038
 40
0.814690006300038
 40
0.814690006300038
 40
0.8510499790349993
 40
0.8510499790349993
 40
0.8510499790349993
 40
0.8882874842761797
 40
0.8882874842761797
 40
0.8882874842761797
 40
0.9258289788057277
 40
0.9258289788057277
 40
0.9258289788057277
 40
0.9640587268921857
 40
0.9640587268921857
 40
0.9640587268921857
 40
1.0
 40
1.0
 40
1.0
 40
1.0
 10
15.821176107005257
 20
32.354642127328226
 30
1.0000007932831068e-07
 10
17.72974539179526
 20
29.433216922273225
 30
1.0000007932831068e-07
 10
19.922368174575258
 20
26.547956170076226
 30
1.0000007932831068e-07
 10
22.29746645619526
 20
23.887436064643225
 30
1.0000007932831068e-07
 10
22.992955434255258
 20
23.108368342029227
 30
1.0000007932831068e-07
 10
23.70363408026526
 20
22.347890905214225
 30
1.0000007932831068e-07
 10
24.42625225623526
 20
21.610053303011224
 30
1.0000007932831068e-07
 10
24.831653376615257
 20
21.196113824954224
 30
1.0000007932831068e-07
 10
25.24081230408526
 20
20.789299939025227
 30
1.0000007932831068e-07
 10
25.65315493806526
 20
20.390325993863225
 30
1.0000007932831068e-07
 10
25.92675566906526
 20
20.125595757281225
 30
1.0000007932831068e-07
 10
26.20175808453526
 20
19.864317191950224
 30
1.0000007932831068e-07
 10
26.47799445860526
 20
19.606698830309224
 30
1.0000007932831068e-07
 10
26.527514844855258
 20
19.560516060871226
 30
1.0000007932831068e-07
 10
26.57707488639526
 20
19.514450919814227
 30
1.0000007932831068e-07
 10
26.626673618495257
 20
19.468504606616225
 30
1.0000007932831068e-07
 10
28.20402108677526
 20
18.007311996896224
 30
1.0000007932831068e-07
 10
29.829860222555258
 20
16.663947056284226
 30
1.0000007932831068e-07
 10
31.462223784455258
 20
15.463338363874225
 30
1.0000007932831068e-07
 10
32.97842783853526
 20
14.348165366090225
 30
1.0000007932831068e-07
 10
34.50025839980526
 20
13.356155176535232
 30
1.0000007932831068e-07
 10
35.99406938728526
 20
12.507247498963231
 30
1.0000007932831068e-07
 10
37.08290912843526
 20
11.888478174285233
 30
1.0000007932831068e-07
 10
38.15686176858626
 20
11.345737978546232
 30
1.0000007932831068e-07
 10
39.20290170095626
 20
10.886731433441227
 30
1.0000007932831068e-07
 10
39.50326441807026
 20
10.754931060630227
 30
1.0000007932831068e-07
 10
39.80120162232526
 20
10.629839529400229
 30
1.0000007932831068e-07
 10
40.096609411204255
 20
10.511397244466231
 30
1.0000007932831068e-07
 10
40.38662410803426
 20
10.395117292989227
 30
1.0000007932831068e-07
 10
40.67420123805426
 20
10.285246111148226
 30
1.0000007932831068e-07
 10
40.95922045691126
 20
10.181772379795227
 30
1.0000007932831068e-07
 10
41.06807386314526
 20
10.142254103944232
 30
1.0000007932831068e-07
 10
41.17655391491826
 20
10.103669426814228
 30
1.0000007932831068e-07
 10
41.28465288045626
 20
10.06601946177723
 30
1.0000007932831068e-07
 10
41.313752441462256
 20
10.05588432820823
 30
1.0000007932831068e-07
 10
41.34281747325226
 20
10.04581781615623
 30
1.0000007932831068e-07
 10
41.37184583492526
 20
10.035820458279233
 30
1.0000007932831068e-07
 10
41.75836897535426
 20
9.902702020323233
 30
1.0000007932831068e-07
 10
42.13851985692426
 20
9.781795922140226
 30
1.0000007932831068e-07
 10
42.51243997743226
 20
9.672573042812232
 30
1.0000007932831068e-07
 10
42.89130875683326
 20
9.56190464947423
 30
1.0000007932831068e-07
 10
43.263780848368256
 20
9.463230907751232
 30
1.0000007932831068e-07
 10
43.629983015723255
 20
9.376051205680227
 30
1.0000007932831068e-07
 10
44.00502331692526
 20
9.28676745850823
 30
1.0000007932831068e-07
 10
44.373487538682255
 20
9.209539323232228
 30
1.0000007932831068e-07
 10
44.735488762448256
 20
9.143879446201232
 30
1.0000007932831068e-07
 10
45.10044519209226
 20
9.077683553152227
 30
1.0000007932831068e-07
 10
45.45883276186626
 20
9.023245775278227
 30
1.0000007932831068e-07
 10
45.81074248834026
 20
8.980114999685227
 30
1.0000007932831068e-07
 10
46.16910382586526
 20
8.93619350145223
 30
1.0000007932831068e-07
 10
46.52074777294326
 20
8.903997538569229
 30
1.0000007932831068e-07
 10
46.86574288932926
 20
8.883097977350232
 30
1.0000007932831068e-07
 10
47.19008621669926
 20
8.863449486968229
 30
1.0000007932831068e-07
 10
47.50855271290326
 20
8.853786052124228
 30
1.0000007932831068e-07
 10
47.82117610700048
 20
8.853786052123226
 30
1.0000007932831068e-07
  0
LINE
  5
33
330
17
100
AcDbEntity
  8
0
100
AcDbLine
 10
15.821176107005257
 20
32.354642127328226
 30
1.0000007932831068e-07
 11
15.821176107005204
 21
46.04358454727823
 31
1.0000007932831068e-07
  0
LINE
  5
34
330
17
100
AcDbEntity
  8
0
100
AcDbLine
 10
15.821176107005204
 20
46.04358454727823
 30
1.0000007932831068e-07
 11
9.998951638495257
 21
46.04358454728187
 31
1.0000007932831068e-07
  0
LINE
  5
35
330
17
100
AcDbEntity
  8
0
100
AcDbLine
 10
9.998951638495257
 20
46.04358454728187
 30
1.0000007932831068e-07
 11
8.821154493035259
 21
46.04358454727991
 31
9.999999406318238e-08
  0
LINE
  5
36
330
17
100
AcDbEntity
  8
0
100
AcDbLine
 10
8.821154493035259
 20
46.04358454727991
 30
9.999999406318238e-08
 11
2.821154493035259
 21
46.043584547279885
 31
9.999999406318238e-08
  0
LINE
  5
37
330
17
100
AcDbEntity
  8
0
100
AcDbLine
 10
2.821154493035259
 20
46.043584547279885
 30
9.999999406318238e-08
 11
1.0000034933455026e-07
 21
46.043584547280304
 31
9.999999406318238e-08
  0
SPLINE
  5
38
330
17
100
AcDbEntity
  8
0
100
AcDbSpline
 70
0
 71
4
 72
10
 73
5
 74
0
 40
0.0
 40
0.0
 40
0.0
 40
0.0
 40
0.0
 40
1.0
 40
1.0
 40
1.0
 40
1.0
 40
1.0
 10
1.0000000116860974e-07
 20
46.04358454727703
 30
9.999999406318238e-08
 10
0.0011456388290582709
 20
45.90266435619972
 30
9.999999406318238e-08
 10
0.002316972106534365
 20
45.761734923298484
 30
9.999999406318238e-08
 10
0.0035140287722512653
 20
45.620796481743916
 30
9.999999406318238e-08
 10
0.004736737949365022
 20
45.4798492644948
 30
9.999999406318238e-08
  0
SPLINE
  5
39
330
17
100
AcDbEntity
  8
0
100
AcDbSpline
 70
0
 71
5
 72
16
 73
10
 74
0
 40
0.0
 40
0.0
 40
0.0
 40
0.0
 40
0.0
 40
0.0
 40
0.4899080651888021
 40
0.4899080651888021
 40
0.4899080651888021
 40
0.4899080651888021
 40
1.0
 40
1.0
 40
1.0
 40
1.0
 40
1.0
 40
1.0
 10
0.004736737949365022
 20
45.47984926449871
 30
9.999999406318238e-08
 10
0.11532514395297255
 20
45.04061905696294
 30
9.999999406318238e-08
 10
0.23203998662344816
 20
44.602655223616715
 30
9.999999406318238e-08
 10
0.354576227592311
 20
44.1660211416578
 30
9.999999406318238e-08
 10
0.4826783377921089
 20
43.73077058040013
 30
9.999999406318238e-08
 10
0.7550724462482634
 20
42.845246463776704
 30
9.999999406318238e-08
 10
0.8998135971148002
 20
42.39509416475348
 30
9.999999406318238e-08
 10
1.0501017448910943
 20
41.94653611682662
 30
9.999999406318238e-08
 10
1.2057279232610583
 20
41.499615498565106
 30
9.999999406318238e-08
 10
1.366511987355004
 20
41.05436838989941
 30
9.999999406318238e-08
  0
SPLINE
  5
3A
330
17
100
AcDbEntity
  8
0
100
AcDbSpline
 70
0
 71
8
 72
186
 73
177
 74
0
 40
0.0
 40
0.0
 40
0.0
 40
0.0
 40
0.0
 40
0.0
 40
0.0
 40
0.0
 40
0.0
 40
0.001585174852719307
 40
0.001585174852719307
 40
0.001585174852719307
 40
0.001585174852719307
 40
0.001585174852719307
 40
0.001585174852719307
 40
0.001585174852719307
 40
0.003912786591336606
 40
0.003912786591336606
 40
0.003912786591336606
 40
0.003912786591336606
 40
0.003912786591336606
 40
0.003912786591336606
 40
0.003912786591336606
 40
0.010185302978683463
 40
0.010185302978683463
 40
0.010185302978683463
 40
0.010185302978683463
 40
0.010185302978683463
 40
0.010185302978683463
 40
0.010185302978683463
 40
0.023396707659954403
 40
0.023396707659954403
 40
0.023396707659954403
 40
0.023396707659954403
 40
0.023396707659954403
 40
0.023396707659954403
 40
0.023396707659954403
 40
0.0420629455478064
 40
0.0420629455478064
 40
0.0420629455478064
 40
0.0420629455478064
 40
0.0420629455478064
 40
0.0420629455478064
 40
0.0420629455478064
 40
0.050210695303049606
 40
0.050210695303049606
 40
0.050210695303049606
 40
0.050210695303049606
 40
0.050210695303049606
 40
0.050210695303049606
 40
0.050210695303049606
 40
0.05445320460639169
 40
0.05445320460639169
 40
0.05445320460639169
 40
0.05445320460639169
 40
0.05445320460639169
 40
0.05445320460639169
 40
0.05445320460639169
 40
0.05940651563095162
 40
0.05940651563095162
 40
0.05940651563095162
 40
0.05940651563095162
 40
0.05940651563095162
 40
0.05940651563095162
 40
0.05940651563095162
 40
0.0663613570038837
 40
0.0663613570038837
 40
0.0663613570038837
 40
0.0663613570038837
 40
0.0663613570038837
 40
0.0663613570038837
 40
0.0663613570038837
 40
0.07331617777363741
 40
0.07331617777363741
 40
0.07331617777363741
 40
0.07331617777363741
 40
0.07331617777363741
 40
0.07331617777363741
 40
0.07331617777363741
 40
0.1195986734083803
 40
0.1195986734083803
 40
0.1195986734083803
 40
0.1195986734083803
 40
0.1195986734083803
 40
0.1195986734083803
 40
0.1195986734083803
 40
0.13985807292895502
 40
0.13985807292895502
 40
0.13985807292895502
 40
0.13985807292895502
 40
0.13985807292895502
 40
0.13985807292895502
 40
0.13985807292895502
 40
0.1789388114195729
 40
0.1789388114195729
 40
0.1789388114195729
 40
0.1789388114195729
 40
0.1789388114195729
 40
0.1789388114195729
 40
0.1789388114195729
 40
0.24549844776386637
 40
0.24549844776386637
 40
0.24549844776386637
 40
0.24549844776386637
 40
0.24549844776386637
 40
0.24549844776386637
 40
0.24549844776386637
 40
0.2813798108353903
 40
0.2813798108353903
 40
0.2813798108353903
 40
0.2813798108353903
 40
0.2813798108353903
 40
0.2813798108353903
 40
0.2813798108353903
 40
0.3202843499175361
 40
0.3202843499175361
 40
0.3202843499175361
 40
0.3202843499175361
 40
0.3202843499175361
 40
0.3202843499175361
 40
0.3202843499175361
 40
0.385492444464052
 40
0.385492444464052
 40
0.385492444464052
 40
0.385492444464052
 40
0.385492444464052
 40
0.385492444464052
 40
0.385492444464052
 40
0.5204871983377815
 40
0.5204871983377815
 40
0.5204871983377815
 40
0.5204871983377815
 40
0.5204871983377815
 40
0.5204871983377815
 40
0.5204871983377815
 40
0.5314615552456178
 40
0.5314615552456178
 40
0.5314615552456178
 40
0.5314615552456178
 40
0.5314615552456178
 40
0.5314615552456178
 40
0.5314615552456178
 40
0.6160987617391999
 40
0.6160987617391999
 40
0.6160987617391999
 40
0.6160987617391999
 40
0.6160987617391999
 40
0.6160987617391999
 40
0.6160987617391999
 40
0.6775127061995085
 40
0.6775127061995085
 40
0.6775127061995085
 40
0.6775127061995085
 40
0.6775127061995085
 40
0.6775127061995085
 40
0.6775127061995085
 40
0.6997048738437439
 40
0.6997048738437439
 40
0.6997048738437439
 40
0.6997048738437439
 40
0.6997048738437439
 40
0.6997048738437439
 40
0.6997048738437439
 40
0.8495428200564081
 40
0.8495428200564081
 40
0.8495428200564081
 40
0.8495428200564081
 40
0.8495428200564081
 40
0.8495428200564081
 40
0.8495428200564081
 40
0.8594314888503303
 40
0.8594314888503303
 40
0.8594314888503303
 40
0.8594314888503303
 40
0.8594314888503303
 40
0.8594314888503303
 40
0.8594314888503303
 40
1.0
 40
1.0
 40
1.0
 40
1.0
 40
1.0
 40
1.0
 40
1.0
 40
1.0
 40
1.0
 10
1.3665119873550111
 20
41.05436838989941
 30
9.999999406318238e-08
 10
1.3702565830421491
 20
41.04399837558269
 30
9.999999406318238e-08
 10
1.374000176807776
 20
41.03357254485895
 30
9.999999406318238e-08
 10
1.3777459852105025
 20
41.02311638274789
 30
9.999999406318238e-08
 10
1.381493984348019
 20
41.01263940066774
 30
9.999999406318238e-08
 10
1.3852442857308134
 20
41.00214826391135
 30
9.999999406318238e-08
 10
1.3889974984573712
 20
40.991647615004524
 30
9.999999406318238e-08
 10
1.392754189435962
 20
40.981137748320855
 30
9.999999406318238e-08
 10
1.4020386002090888
 20
40.95517191231208
 30
9.999999406318238e-08
 10
1.4075696085980027
 20
40.93971059122451
 30
9.999999406318238e-08
 10
1.413109385378398
 20
40.924239373245115
 30
9.999999406318238e-08
 10
1.4186581714602085
 20
40.90876137831035
 30
9.999999406318238e-08
 10
1.42421599407637
 20
40.893278627586874
 30
9.999999406318238e-08
 10
1.4297828772124817
 20
40.877792536059
 30
9.999999406318238e-08
 10
1.4353589102406232
 20
40.86230407122997
 30
9.999999406318238e-08
 10
1.4559955094049855
 20
40.80506934223945
 30
9.999999406318238e-08
 10
1.47111274655866
 20
40.7633138411031
 30
9.999999406318238e-08
 10
1.486295981177868
 20
40.72155993975651
 30
9.999999406318238e-08
 10
1.5015428016906398
 20
40.67981306142783
 30
9.999999406318238e-08
 10
1.5168510791021035
 20
40.63807673211332
 30
9.999999406318238e-08
 10
1.5322191913433585
 20
40.59635326771107
 30
9.999999406318238e-08
 10
1.5476455174849377
 20
40.55464305174102
 30
9.999999406318238e-08
 10
1.595740993450029
 20
40.42512167613141
 30
9.999999406318238e-08
 10
1.6286044875607928
 20
40.3373609356981
 30
9.999999406318238e-08
 10
1.661705742896956
 20
40.249669495152546
 30
9.999999406318238e-08
 10
1.6950326679158394
 20
40.162048867416516
 30
9.999999406318238e-08
 10
1.7285752612743863
 20
40.07449957730497
 30
9.999999406318238e-08
 10
1.7623251709529058
 20
39.987021509180735
 30
9.999999406318238e-08
 10
1.7962751476736614
 20
39.89961339175784
 30
9.999999406318238e-08
 10
1.8786607688269825
 20
39.68887217320956
 30
9.999999406318238e-08
 10
1.9272889082997295
 20
39.56560905822038
 30
9.999999406318238e-08
 10
1.97628548767198
 20
39.44248160451385
 30
9.999999406318238e-08
 10
2.0256355586303343
 20
39.319487334261524
 30
9.999999406318238e-08
 10
2.075326422928292
 20
39.19662391240712
 30
9.999999406318238e-08
 10
2.1253470194633053
 20
39.073889114091266
 30
9.999999406318238e-08
 10
2.17568756445192
 20
38.951280762517804
 30
9.999999406318238e-08
 10
2.248448819253028
 20
38.77533273052399
 30
9.999999406318238e-08
 10
2.2706174897327998
 20
38.72189253712857
 30
9.999999406318238e-08
 10
2.292844734561662
 20
38.66847589614872
 30
9.999999406318238e-08
 10
2.3151298626409087
 20
38.6150826521246
 30
9.999999406318238e-08
 10
2.337472213353088
 20
38.561712655063076
 30
9.999999406318238e-08
 10
2.35987115656215
 20
38.508365760437805
 30
9.999999406318238e-08
 10
2.3823260926133685
 20
38.455041829189135
 30
9.999999406318238e-08
 10
2.416557530349003
 20
38.37398700115721
 30
9.999999406318238e-08
 10
2.4283599373031493
 20
38.34608246896955
 30
9.999999406318238e-08
 10
2.440243826321833
 20
38.31802738447825
 30
9.999999406318238e-08
 10
2.4522093505311346
 20
38.28982200100033
 30
9.999999406318238e-08
 10
2.4642566630571423
 20
38.26146657185282
 30
9.999999406318238e-08
 10
2.4763859170259295
 20
38.232961350352724
 30
9.999999406318238e-08
 10
2.4885972655636124
 20
38.20430658981704
 30
9.999999406318238e-08
 10
2.515244161081405
 20
38.14187258787806
 30
9.999999406318238e-08
 10
2.529620101172469
 20
38.10825212763623
 30
9.999999406318238e-08
 10
2.5440167936631255
 20
38.07464035577454
 30
9.999999406318238e-08
 10
2.558433308507766
 20
38.041036884800874
 30
9.999999406318238e-08
 10
2.5728696740215824
 20
38.00744174679363
 30
9.999999406318238e-08
 10
2.587326876880546
 20
37.973855393401806
 30
9.999999406318238e-08
 10
2.601806862121414
 20
37.940278695844945
 30
9.999999406318238e-08
 10
2.636679645251988
 20
37.85958396953961
 30
9.999999406318238e-08
 10
2.657268001590168
 20
37.812091350114486
 30
9.999999406318238e-08
 10
2.678077761328801
 20
37.76423627163069
 30
9.999999406318238e-08
 10
2.699109083640387
 20
37.71601991908115
 30
9.999999406318238e-08
 10
2.7203621276974204
 20
37.66744347745875
 30
9.999999406318238e-08
 10
2.7418370526724374
 20
37.618508131756414
 30
9.999999406318238e-08
 10
2.763534017737939
 20
37.56921506696705
 30
9.999999406318238e-08
 10
2.80737228146112
 20
37.46991601628316
 30
9.999999406318238e-08
 10
2.829513935353077
 20
37.41990983275785
 30
9.999999406318238e-08
 10
2.8518772930701246
 20
37.36954800604609
 30
9.999999406318238e-08
 10
2.8744634602007224
 20
37.318832343453494
 30
9.999999406318238e-08
 10
2.8972728456709547
 20
37.26776415478065
 30
9.999999406318238e-08
 10
2.920304627008008
 20
37.216344004610086
 30
9.999999406318238e-08
 10
2.9435583337905484
 20
37.16457243315244
 30
9.999999406318238e-08
 10
3.1232855281537653
 20
36.765601568585595
 30
9.999999406318238e-08
 10
3.2820413667378006
 20
36.4198700878953
 30
9.999999406318238e-08
 10
3.443247649505132
 20
36.07525870629299
 30
9.999999406318238e-08
 10
3.6068490314792854
 20
35.731767785911224
 30
9.999999406318238e-08
 10
3.7727938497795392
 20
35.389397553153565
 30
9.999999406318238e-08
 10
3.941034791076845
 20
35.0481485710069
 30
9.999999406318238e-08
 10
4.11152861496641
 20
34.708021678815626
 30
9.999999406318238e-08
 10
4.359834277111943
 20
34.220623864569006
 30
9.999999406318238e-08
 10
4.435857524109174
 20
34.072445512131914
 30
9.999999406318238e-08
 10
4.512301296183743
 20
33.924482438256376
 30
9.999999406318238e-08
 10
4.5891623170287446
 20
33.77673475224584
 30
9.999999406318238e-08
 10
4.66643741209527
 20
33.62920257665709
 30
9.999999406318238e-08
 10
4.744123508592203
 20
33.48188604730033
 30
9.999999406318238e-08
 10
4.822217635486325
 20
33.334785313239095
 30
9.999999406318238e-08
 10
5.052143432641159
 20
32.90455721603608
 30
9.999999406318238e-08
 10
5.205078679746741
 20
32.62201822415164
 30
9.999999406318238e-08
 10
5.359492412552498
 20
32.340279627210215
 30
9.999999406318238e-08
 10
5.515398995975467
 20
32.05936098385598
 30
9.999999406318238e-08
 10
5.672721228292161
 20
31.779231283220625
 30
9.999999406318238e-08
 10
5.831473418246624
 20
31.499909821361435
 30
9.999999406318238e-08
 10
5.991619656225382
 20
31.22138729839758
 30
9.999999406318238e-08
 10
6.42824900281898
 20
30.47067230923186
 30
9.999999406318238e-08
 10
6.707354931400822
 20
30.00000381011792
 30
9.999999406318238e-08
 10
6.990378998567451
 20
29.531663200175345
 30
9.999999406318238e-08
 10
7.277251404016695
 20
29.06566039463371
 30
9.999999406318238e-08
 10
7.567914112356554
 20
28.602010849880127
 30
9.999999406318238e-08
 10
7.862317916528212
 20
28.140733780177012
 30
9.999999406318238e-08
 10
8.160420674625804
 20
27.681851080692027
 30
1.0000002248489182e-07
 10
8.624864547629173
 20
26.979313572779922
 30
1.0000002248489182e-07
 10
8.788608064794687
 20
26.733944228770078
 30
1.0000002248489182e-07
 10
8.953402267902625
 20
26.48927652609245
 30
1.0000002248489182e-07
 10
9.119269978094103
 20
26.24533421118309
 30
1.0000002248489182e-07
 10
9.286166716554561
 20
26.002093640055303
 30
1.0000002248489182e-07
 10
9.45409930180147
 20
25.75956821971347
 30
1.0000002248489182e-07
 10
9.623053585729437
 20
25.517755031627594
 30
1.0000002248489182e-07
 10
9.977311764523336
 20
25.01524503502157
 30
1.0000002248489182e-07
 10
10.162793742811502
 20
24.754673517390856
 30
1.0000002248489182e-07
 10
10.34945842998382
 20
24.49494480212992
 30
1.0000002248489182e-07
 10
10.537297099406857
 20
24.2360621062532
 30
1.0000002248489182e-07
 10
10.726302138794146
 20
23.978029377291598
 30
1.0000002248489182e-07
 10
10.916467050206094
 20
23.720851293292416
 30
1.0000002248489182e-07
 10
11.107786450049957
 20
23.46453326281941
 30
1.0000002248489182e-07
 10
11.622855370116142
 20
22.78091730866504
 30
1.0000002248489182e-07
 10
11.948685404235434
 20
22.35518715441962
 30
1.0000002248489182e-07
 10
12.277724683295496
 20
21.931918194810553
 30
1.0000002248489182e-07
 10
12.609960400301638
 20
21.51114575012744
 30
1.0000002248489182e-07
 10
12.945382498410659
 20
21.09290774892629
 30
1.0000002248489182e-07
 10
13.283986522610888
 20
20.677247406920323
 30
1.0000002248489182e-07
 10
13.625775633297778
 20
20.26421517133437
 30
1.0000002248489182e-07
 10
14.684927629034725
 20
19.004339891239038
 30
1.0000002248489182e-07
 10
15.41272963082838
 20
18.166310296907167
 30
1.0000002248489182e-07
 10
16.15392343356284
 20
17.339954931503506
 30
1.0000002248489182e-07
 10
16.90840367762049
 20
16.525614411901696
 30
1.0000002248489182e-07
 10
17.676167583357937
 20
15.723762986403912
 30
1.0000002248489182e-07
 10
18.457303214818236
 20
14.934998176476718
 30
1.0000002248489182e-07
 10
19.251992800346887
 20
14.16004436903545
 30
1.0000002248489182e-07
 10
20.126260982794896
 20
13.337964117986814
 30
1.0000002248489182e-07
 10
20.192082380503308
 20
13.276255213872695
 30
1.0000002248489182e-07
 10
20.257994293824787
 20
13.214642898975256
 30
1.0000002248489182e-07
 10
20.323996156403414
 20
13.153126901079027
 30
1.0000002248489182e-07
 10
20.39008784493953
 20
13.091707423712592
 30
1.0000002248489182e-07
 10
20.456269679189713
 20
13.030385146148532
 30
1.0000002248489182e-07
 10
20.52254242196684
 20
12.969161223403432
 30
1.0000002248489182e-07
 10
21.100730993974036
 20
12.436632962957312
 30
1.0000002248489182e-07
 10
21.61800764648576
 20
11.971155748913077
 30
1.0000002248489182e-07
 10
22.140697618119685
 20
11.51171412903826
 30
1.0000002248489182e-07
 10
22.668775121037946
 20
11.058443364125807
 30
1.0000002248489182e-07
 10
23.202228119068014
 20
10.61150545484395
 30
1.0000002248489182e-07
 10
23.741059192698728
 20
10.171090202996474
 30
1.0000002248489182e-07
 10
24.285287348124577
 20
9.737417370027899
 30
1.0000005090660125e-07
 10
25.233794261070113
 20
9.001136798175501
 30
1.0000005090660125e-07
 10
25.635495924137302
 20
8.695218456781923
 30
1.0000005090660125e-07
 10
26.04005728087039
 20
8.393065510427647
 30
1.0000005090660125e-07
 10
26.447482616551532
 20
8.094769021775548
 30
1.0000005090660125e-07
 10
26.857779660633366
 20
7.800431474727112
 30
1.0000005090660125e-07
 10
27.270960266957825
 20
7.510167734833232
 30
1.0000005090660125e-07
 10
27.687041093975044
 20
7.22410600970499
 30
1.0000005090660125e-07
 10
28.25745271735604
 20
6.840589203621128
 30
1.0000005090660125e-07
 10
28.409242573277226
 20
6.739356992238598
 30
1.0000005090660125e-07
 10
28.56141484469865
 20
6.638698984076292
 30
1.0000005090660125e-07
 10
28.713970574501037
 20
6.538622266846545
 30
1.0000005090660125e-07
 10
28.866910856472913
 20
6.439134207174675
 30
1.0000005090660125e-07
 10
29.020236835310627
 20
6.340242450598957
 30
1.0000005090660125e-07
 10
29.173949706618355
 20
6.241954921570631
 30
1.0000005090660125e-07
 10
30.368515950465625
 20
5.484793272497967
 30
1.0000005090660125e-07
 10
31.426342269241562
 20
4.85339914628166
 30
1.0000005090660125e-07
 10
32.5016470018831
 20
4.251386209428411
 30
1.0000005090660125e-07
 10
33.59441313906369
 20
3.6806628597073896
 30
1.0000005090660125e-07
 10
34.70449007057003
 20
3.1437586279966965
 30
1.0000005090660125e-07
 10
35.8316770502957
 20
2.644019483606506
 30
1.0000005090660125e-07
 10
36.975765867246196
 20
2.185696790863936
 30
1.0000005090660125e-07
 10
38.21364380489864
 20
1.7478440827442583
 30
1.0000005090660125e-07
 10
38.290356399083
 20
1.7209474130904283
 30
1.0000005090660125e-07
 10
38.36712951641699
 20
1.6942238239347631
 30
1.0000005090660125e-07
 10
38.44396316023858
 20
1.667676181426252
 30
1.0000005090660125e-07
 10
38.52086512020925
 20
1.641328119728577
 30
1.0000005090660125e-07
 10
38.597843661341074
 20
1.6152042481641473
 30
1.0000005090660125e-07
 10
38.674900213023896
 20
1.589310358358233
 30
1.0000005090660125e-07
 10
39.848317541165464
 20
1.1983318399110487
 30
1.0000005090660125e-07
 10
40.95834049012163
 20
0.8758399824286656
 30
1.0000007932831068e-07
 10
42.08128467497517
 20
0.5983897240722058
 30
1.0000007932831068e-07
 10
43.215769317868705
 20
0.36872304300427317
 30
1.0000007932831068e-07
 10
44.3598238245644
 20
0.18990441780593414
 30
1.0000007932831068e-07
 10
45.51090065950961
 20
0.06567110433883983
 30
1.0000007932831068e-07
 10
46.66584741168767
 20
0.00016527181821857084
 30
1.0000007932831068e-07
 10
47.82115248919845
 20
3.002188080358792e-07
 30
1.0000007932831068e-07
  0
SPLINE
  5
3B
330
17
100
AcDbEntity
  8
0
100
AcDbSpline
 70
0
 71
8
 72
228
 73
219
 74
0
 40
0.0
 40
0.0
 40
0.0
 40
0.0
 40
0.0
 40
0.0
 40
0.0
 40
0.0
 40
0.0
 40
0.0710894575207739
 40
0.0710894575207739
 40
0.0710894575207739
 40
0.0710894575207739
 40
0.0710894575207739
 40
0.0710894575207739
 40
0.0710894575207739
 40
0.11025012656728313
 40
0.11025012656728313
 40
0.11025012656728313
 40
0.11025012656728313
 40
0.11025012656728313
 40
0.11025012656728313
 40
0.11025012656728313
 40
0.1308545478008275
 40
0.1308545478008275
 40
0.1308545478008275
 40
0.1308545478008275
 40
0.1308545478008275
 40
0.1308545478008275
 40
0.1308545478008275
 40
0.1418808244697038
 40
0.1418808244697038
 40
0.1418808244697038
 40
0.1418808244697038
 40
0.1418808244697038
 40
0.1418808244697038
 40
0.1418808244697038
 40
0.15300252223245941
 40
0.15300252223245941
 40
0.15300252223245941
 40
0.15300252223245941
 40
0.15300252223245941
 40
0.15300252223245941
 40
0.15300252223245941
 40
0.16085074108841452
 40
0.16085074108841452
 40
0.16085074108841452
 40
0.16085074108841452
 40
0.16085074108841452
 40
0.16085074108841452
 40
0.16085074108841452
 40
0.2324723702608723
 40
0.2324723702608723
 40
0.2324723702608723
 40
0.2324723702608723
 40
0.2324723702608723
 40
0.2324723702608723
 40
0.2324723702608723
 40
0.2902817826422449
 40
0.2902817826422449
 40
0.2902817826422449
 40
0.2902817826422449
 40
0.2902817826422449
 40
0.2902817826422449
 40
0.2902817826422449
 40
0.31234771318732635
 40
0.31234771318732635
 40
0.31234771318732635
 40
0.31234771318732635
 40
0.31234771318732635
 40
0.31234771318732635
 40
0.31234771318732635
 40
0.39392790671286637
 40
0.39392790671286637
 40
0.39392790671286637
 40
0.39392790671286637
 40
0.39392790671286637
 40
0.39392790671286637
 40
0.39392790671286637
 40
0.4349785776213803
 40
0.4349785776213803
 40
0.4349785776213803
 40
0.4349785776213803
 40
0.4349785776213803
 40
0.4349785776213803
 40
0.4349785776213803
 40
0.4556202808126507
 40
0.4556202808126507
 40
0.4556202808126507
 40
0.4556202808126507
 40
0.4556202808126507
 40
0.4556202808126507
 40
0.4556202808126507
 40
0.4666411400958633
 40
0.4666411400958633
 40
0.4666411400958633
 40
0.4666411400958633
 40
0.4666411400958633
 40
0.4666411400958633
 40
0.4666411400958633
 40
0.477661946886492
 40
0.477661946886492
 40
0.477661946886492
 40
0.477661946886492
 40
0.477661946886492
 40
0.477661946886492
 40
0.477661946886492
 40
0.4941879944358077
 40
0.4941879944358077
 40
0.4941879944358077
 40
0.4941879944358077
 40
0.4941879944358077
 40
0.4941879944358077
 40
0.4941879944358077
 40
0.6109189638101371
 40
0.6109189638101371
 40
0.6109189638101371
 40
0.6109189638101371
 40
0.6109189638101371
 40
0.6109189638101371
 40
0.6109189638101371
 40
0.6488704674073911
 40
0.6488704674073911
 40
0.6488704674073911
 40
0.6488704674073911
 40
0.6488704674073911
 40
0.6488704674073911
 40
0.6488704674073911
 40
0.6869654841878337
 40
0.6869654841878337
 40
0.6869654841878337
 40
0.6869654841878337
 40
0.6869654841878337
 40
0.6869654841878337
 40
0.6869654841878337
 40
0.7260313592780852
 40
0.7260313592780852
 40
0.7260313592780852
 40
0.7260313592780852
 40
0.7260313592780852
 40
0.7260313592780852
 40
0.7260313592780852
 40
0.7586590165508575
 40
0.7586590165508575
 40
0.7586590165508575
 40
0.7586590165508575
 40
0.7586590165508575
 40
0.7586590165508575
 40
0.7586590165508575
 40
0.8117611902226837
 40
0.8117611902226837
 40
0.8117611902226837
 40
0.8117611902226837
 40
0.8117611902226837
 40
0.8117611902226837
 40
0.8117611902226837
 40
0.847212027127951
 40
0.847212027127951
 40
0.847212027127951
 40
0.847212027127951
 40
0.847212027127951
 40
0.847212027127951
 40
0.847212027127951
 40
0.8716395058533142
 40
0.8716395058533142
 40
0.8716395058533142
 40
0.8716395058533142
 40
0.8716395058533142
 40
0.8716395058533142
 40
0.8716395058533142
 40
0.9349591545784581
 40
0.9349591545784581
 40
0.9349591545784581
 40
0.9349591545784581
 40
0.9349591545784581
 40
0.9349591545784581
 40
0.9349591545784581
 40
0.9393316790397894
 40
0.9393316790397894
 40
0.9393316790397894
 40
0.9393316790397894
 40
0.9393316790397894
 40
0.9393316790397894
 40
0.9393316790397894
 40
0.9435600110068576
 40
0.9435600110068576
 40
0.9435600110068576
 40
0.9435600110068576
 40
0.9435600110068576
 40
0.9435600110068576
 40
0.9435600110068576
 40
0.970866418193066
 40
0.970866418193066
 40
0.970866418193066
 40
0.970866418193066
 40
0.970866418193066
 40
0.970866418193066
 40
0.970866418193066
 40
0.9896005845803171
 40
0.9896005845803171
 40
0.9896005845803171
 40
0.9896005845803171
 40
0.9896005845803171
 40
0.9896005845803171
 40
0.9896005845803171
 40
0.9960895915819674
 40
0.9960895915819674
 40
0.9960895915819674
 40
0.9960895915819674
 40
0.9960895915819674
 40
0.9960895915819674
 40
0.9960895915819674
 40
0.998375562969927
 40
0.998375562969927
 40
0.998375562969927
 40
0.998375562969927
 40
0.998375562969927
 40
0.998375562969927
 40
0.998375562969927
 40
1.0
 40
1.0
 40
1.0
 40
1.0
 40
1.0
 40
1.0
 40
1.0
 40
1.0
 40
1.0
 10
47.82115248919845
 20
3.002187867195971e-07
 30
1.0000007932831068e-07
 10
48.386195903939296
 20
-7.372245173797864e-05
 30
1.0000007932831068e-07
 10
48.951225157801616
 20
0.015491489389653168
 30
1.0000007932831068e-07
 10
49.51577230125701
 20
0.04592741796013655
 30
1.0000007932831068e-07
 10
50.07941405797027
 20
0.09059485438147163
 30
1.0000007932831068e-07
 10
50.64177450500376
 20
0.1489407396845479
 30
1.0000007932831068e-07
 10
51.20252687499894
 20
0.22047037137745917
 30
1.0000007932831068e-07
 10
51.76139448033477
 20
0.3047349755764728
 30
1.0000007932831068e-07
 10
52.624848111290746
 20
0.4545479875007814
 30
1.0000007932831068e-07
 10
52.93089672959582
 20
0.5115028821445051
 30
1.0000007932831068e-07
 10
53.23625416479185
 20
0.5721311306153254
 30
1.0000007932831068e-07
 10
53.54087992093566
 20
0.6363676736982242
 30
1.0000007932831068e-07
 10
53.84473551816612
 20
0.7041502815187286
 30
1.0000007932831068e-07
 10
54.14778455534264
 20
0.7754192440824497
 30
1.0000007932831068e-07
 10
54.449992772683714
 20
0.8501170618146006
 30
1.0000007932831068e-07
 10
54.90987597542415
 20
0.969265302038977
 30
1.0000007932831068e-07
 10
55.068182074377994
 20
1.0112762713810284
 30
1.0000007932831068e-07
 10
55.22624167168213
 20
1.0542129524952344
 30
1.0000007932831068e-07
 10
55.38405015122348
 20
1.098067379712866
 30
1.0000007932831068e-07
 10
55.54160302036068
 20
1.1428317133270127
 30
1.0000007932831068e-07
 10
55.69889590992408
 20
1.1884982395925547
 30
1.0000007932831068e-07
 10
55.855924574215756
 20
1.2350593707261908
 30
1.000001077500201e-07
 10
56.09657380999811
 20
1.3078991758133682
 30
1.000001077500201e-07
 10
56.18059495583147
 20
1.3336080443282086
 30
1.000001077500201e-07
 10
56.26474731497535
 20
1.35963540827386
 30
1.000001077500201e-07
 10
56.34902987389558
 20
1.385982425473287
 30
1.000001077500201e-07
 10
56.433441619057945
 20
1.4126502537494545
 30
1.000001077500201e-07
 10
56.517981536928204
 20
1.4396400509252985
 30
1.000001077500201e-07
 10
56.60264861397209
 20
1.466952974823755
 30
1.000001077500201e-07
 10
56.772968857546694
 20
1.5224665633506476
 30
1.000001077500201e-07
 10
56.858414929615385
 20
1.5505945925199498
 30
1.000001077500201e-07
 10
56.94376626466328
 20
1.5790085189390624
 30
1.000001077500201e-07
 10
57.02903664651573
 20
1.6076652831344873
 30
1.000001077500201e-07
 10
57.114228849745786
 20
1.6365537132923507
 30
1.000001077500201e-07
 10
57.19932703634756
 20
1.6657160548916252
 30
1.000001077500201e-07
 10
57.28432013035848
 20
1.695181834673953
 30
1.000001077500201e-07
 10
57.429192759741184
 20
1.745724551778487
 30
1.000001077500201e-07
 10
57.48918627016742
 20
1.7667741097372343
 30
1.000001077500201e-07
 10
57.54923582704165
 20
1.7879773088339448
 30
1.000001077500201e-07
 10
57.609340557299205
 20
1.8093439929680954
 30
1.000001077500201e-07
 10
57.6694995894784
 20
1.8308792739309254
 30
1.000001077500201e-07
 10
57.72971205372046
 20
1.8525835314054433
 30
1.000001077500201e-07
 10
57.789977081769585
 20
1.8744524129664626
 30
1.000001077500201e-07
 10
58.40073489490611
 20
2.0974682884125713
 30
1.000001077500201e-07
 10
58.94733737615038
 20
2.3089402763568643
 30
1.000001077500201e-07
 10
59.49009008301892
 20
2.5302607229862133
 30
1.000001077500201e-07
 10
60.028974529511004
 20
2.7608879637806325
 30
1.000001077500201e-07
 10
60.563972369574785
 20
3.0003530833923264
 30
1.000001077500201e-07
 10
61.09507074019031
 20
3.2482473158323515
 30
1.000001077500201e-07
 10
61.622265489272664
 20
3.5042145060791583
 30
1.000001077500201e-07
 10
62.56794140498181
 20
3.9808216867471273
 30
1.000001077500201e-07
 10
62.987771629739925
 20
4.198749870095867
 30
1.000001077500201e-07
 10
63.405050078702224
 20
4.421569003274811
 30
1.000001077500201e-07
 10
63.819771040535265
 20
4.649130734891983
 30
1.000001077500201e-07
 10
64.23192671171455
 20
4.881301182636477
 30
1.000001077500201e-07
 10
64.6415079316993
 20
5.117959573871424
 30
1.000001077500201e-07
 10
65.04850491810717
 20
5.358996886226997
 30
1.000001077500201e-07
 10
65.60726920348858
 20
5.697952547178623
 30
1.000001077500201e-07
 10
65.76125257503594
 20
5.792213797490916
 30
1.000001077500201e-07
 10
65.91485610475152
 20
5.887094489763598
 30
1.000001077500201e-07
 10
66.06808155228939
 20
5.982585699810414
 30
1.000001077500201e-07
 10
66.22092662391297
 20
6.078684490582866
 30
1.000001077500201e-07
 10
66.3733887723258
 20
6.175388562797302
 30
1.000001077500201e-07
 10
66.525470057619
 20
6.272689138767376
 30
1.000001077500201e-07
 10
67.23803328868793
 20
6.732478457215478
 30
1.000001077500201e-07
 10
67.79370760416174
 20
7.102407329317096
 30
1.000001077500201e-07
 10
68.34427272777388
 20
7.4799680396037616
 30
1.000001077500201e-07
 10
68.88978608555746
 20
7.8648174105959825
 30
1.000001077500201e-07
 10
69.43029046802829
 20
8.256657067998681
 30
1.000001077500201e-07
 10
69.96581780112389
 20
8.655228079055405
 30
1.000001077500201e-07
 10
70.49639147407743
 20
9.06030764927116
 30
1.000001077500201e-07
 10
71.28652402503815
 20
9.67872203928799
 30
1.000001077500201e-07
 10
71.54976911829624
 20
9.887335413386062
 30
1.000001077500201e-07
 10
71.81176367721189
 20
10.097523531475304
 30
1.0000013617172954e-07
 10
72.07250801066486
 20
10.309263580444991
 30
1.0000013617172954e-07
 10
72.33200156320342
 20
10.522534402396495
 30
1.0000013617172954e-07
 10
72.59024291504426
 20
10.73731649464328
 30
1.0000013617172954e-07
 10
72.84722978207259
 20
10.95359200971096
 30
1.0000013617172954e-07
 10
73.23154855710843
 20
11.280838399285635
 30
1.0000013617172954e-07
 10
73.35982009810044
 20
11.390705512994522
 30
1.0000013617172954e-07
 10
73.48777323322831
 20
11.500944015463809
 30
1.0000013617172954e-07
 10
73.61540749673335
 20
11.611551914154475
 30
1.0000013617172954e-07
 10
73.74272236268814
 20
11.722527304988517
 30
1.0000013617172954e-07
 10
73.86971724499654
 20
11.833868372348974
 30
1.0000013617172954e-07
 10
73.99639149739357
 20
11.945573389079904
 30
1.0000013617172954e-07
 10
74.19020578981207
 20
12.117474841323236
 30
1.0000013617172954e-07
 10
74.25758398138612
 20
12.177419711460544
 30
1.0000013617172954e-07
 10
74.32487811112821
 20
12.237474475133766
 30
1.0000013617172954e-07
 10
74.39208730199891
 20
12.297638280578376
 30
1.0000013617172954e-07
 10
74.45921067695872
 20
12.357910276029848
 30
1.0000013617172954e-07
 10
74.52624735896816
 20
12.418289609723644
 30
1.0000013617172954e-07
 10
74.59319647098776
 20
12.47877542989523
 30
1.0000013617172954e-07
 10
74.72691748250952
 20
12.599958051066551
 30
1.0000013617172954e-07
 10
74.79369074567568
 20
12.660654653736216
 30
1.0000013617172954e-07
 10
74.86037432652326
 20
12.721456404154623
 30
1.0000013617172954e-07
 10
74.92696653645459
 20
12.782362666759049
 30
1.0000013617172954e-07
 10
74.9934665972275
 20
12.843372459058614
 30
1.0000013617172954e-07
 10
75.05987464095537
 20
12.904484451634218
 30
1.0000013617172954e-07
 10
75.12619171010708
 20
12.96569696813853
 30
1.0000013617172954e-07
 10
75.29173080444066
 20
13.118945790221922
 30
1.0000013617172954e-07
 10
75.39084050615398
 20
13.211101125209339
 30
1.0000013617172954e-07
 10
75.48974323112
 20
13.30347865509738
 30
1.0000013617172954e-07
 10
75.58843521670596
 20
13.396081818182651
 30
1.0000013617172954e-07
 10
75.68692880631752
 20
13.488895612408605
 30
1.0000013617172954e-07
 10
75.78521256095436
 20
13.58193171041578
 30
1.0000013617172954e-07
 10
75.88329373743682
 20
13.675180854976574
 30
1.0000013617172954e-07
 10
76.67251849758622
 20
14.42881697608735
 30
1.0000013617172954e-07
 10
77.35367417294738
 20
15.09964086745373
 30
1.0000013617172954e-07
 10
78.02480233840731
 20
15.780591548327855
 30
1.0000013617172954e-07
 10
78.68600745933479
 20
16.471222743656767
 30
1.0000013617172954e-07
 10
79.33734103630712
 20
17.171159009553413
 30
1.0000013617172954e-07
 10
79.97880281543198
 20
17.88009441769675
 30
1.0000013617172954e-07
 10
80.61033583063963
 20
18.59779699226886
 30
1.0000013617172954e-07
 10
81.4338703076138
 20
19.560260247522766
 30
1.0000013617172954e-07
 10
81.63486181279171
 20
19.797311494070453
 30
1.0000013617172954e-07
 10
81.83478595929495
 20
20.035265602390005
 30
1.0000013617172954e-07
 10
82.03362456228287
 20
20.274129491958313
 30
1.0000013617172954e-07
 10
82.23140962345329
 20
20.51386543566659
 30
1.0000013617172954e-07
 10
82.42811459222982
 20
20.7544874787261
 30
1.0000013617172954e-07
 10
82.62375295854324
 20
20.9959742267192
 30
1.0000013617172954e-07
 10
83.01362182346311
 20
21.481584610348765
 30
1.0000013617172954e-07
 10
83.2078447812458
 20
21.72571426485053
 30
1.0000013617172954e-07
 10
83.40098758107504
 20
21.97070170096429
 30
1.0000013617172954e-07
 10
83.59304874816186
 20
22.21653902456161
 30
1.0000013617172954e-07
 10
83.78402614058325
 20
22.463218912281818
 30
1.0000013617172954e-07
 10
83.97391694928231
 20
22.710734611532036
 30
1.0000013617172954e-07
 10
84.16271769806815
 20
22.959079940487154
 30
1.0000013617172954e-07
 10
84.54291452401804
 20
23.463768761040036
 30
1.0000013617172954e-07
 10
84.73425389673707
 20
23.720154807728306
 30
1.0000013617172954e-07
 10
84.9244380037113
 20
23.977401349223857
 30
1.0000013617172954e-07
 10
85.11346135914494
 20
24.235503043220284
 30
1.0000013617172954e-07
 10
85.301317349508
 20
24.494455284035624
 30
1.0000013617172954e-07
 10
85.48799823353636
 20
24.754254202612366
 30
1.0000013617172954e-07
 10
85.67349514223181
 20
25.014896666517412
 30
1.0000013617172954e-07
 10
86.01172712913508
 20
25.4947703122032
 30
1.0000013617172954e-07
 10
86.16482306920814
 20
25.713747355272673
 30
1.0000013617172954e-07
 10
86.31708169178651
 20
25.93330866854903
 30
1.0000013617172954e-07
 10
86.46848883211923
 20
26.15345863894788
 30
1.0000013617172954e-07
 10
86.61905543968977
 20
26.374183738862374
 30
1.0000013617172954e-07
 10
86.76874378355882
 20
26.595504310825522
 30
1.0000013617172954e-07
 10
86.91757185547507
 20
26.817402309165267
 30
1.0000013617172954e-07
 10
87.30633184756579
 20
27.401964854369073
 30
1.0000013617172954e-07
 10
87.5448297017378
 20
27.765582040007477
 30
1.0000013617172954e-07
 10
87.78100473633584
 20
28.13071817505657
 30
1.0000016459343897e-07
 10
88.01483720317162
 20
28.49736146384792
 30
1.0000016459343897e-07
 10
88.2463046701454
 20
28.865501274084817
 30
1.0000016459343897e-07
 10
88.47538141335986
 20
29.23512851240154
 30
1.0000016459343897e-07
 10
88.70203780923384
 20
29.606235999922706
 30
1.0000016459343897e-07
 10
89.07591619101277
 20
30.22755393456734
 30
1.0000016459343897e-07
 10
89.2244986252324
 20
30.476946415432273
 30
1.0000016459343897e-07
 10
89.37197677078514
 20
30.72699489279703
 30
1.0000016459343897e-07
 10
89.51833939640869
 20
30.97769827419466
 30
1.0000016459343897e-07
 10
89.66357407192064
 20
31.22905590094232
 30
1.0000016459343897e-07
 10
89.80766694207037
 20
31.4810676767719
 30
1.0000016459343897e-07
 10
89.95060250039123
 20
31.733734196460695
 30
1.0000016459343897e-07
 10
90.19004400359701
 20
32.16160943422433
 30
1.0000016459343897e-07
 10
90.28716676356096
 20
32.33647360234983
 30
1.0000016459343897e-07
 10
90.38372702978438
 20
32.5116491218059
 30
1.0000016459343897e-07
 10
90.47971492797083
 20
32.68713870054709
 30
1.0000016459343897e-07
 10
90.5751275324836
 20
32.86294107827682
 30
1.0000016459343897e-07
 10
90.66996274351433
 20
33.03905443669448
 30
1.0000016459343897e-07
 10
90.76421250887832
 20
33.21548020524157
 30
1.0000016459343897e-07
 10
91.10065513087793
 20
33.85034612052746
 30
1.0000016459343897e-07
 10
91.33947569597106
 20
34.3105664411048
 30
1.0000016459343897e-07
 10
91.57424675802415
 20
34.77287556774417
 30
1.0000016459343897e-07
 10
91.804869267545
 20
35.237271077597136
 30
1.0000016459343897e-07
 10
92.03123495322887
 20
35.70374977461174
 30
1.0000016459343897e-07
 10
92.25322115703385
 20
36.17231020560923
 30
1.0000016459343897e-07
 10
92.47068851331156
 20
36.64295344245473
 30
1.0000016459343897e-07
 10
92.69818635374554
 20
37.14832063095141
 30
1.0000016459343897e-07
 10
92.71286111183304
 20
37.18097348634944
 30
1.0000016459343897e-07
 10
92.72751590604936
 20
37.213635215979345
 30
1.0000016459343897e-07
 10
92.74214983994582
 20
37.24630619376357
 30
1.0000016459343897e-07
 10
92.75676079254505
 20
37.278987339397524
 30
1.0000016459343897e-07
 10
92.77134541834101
 20
37.31168011834962
 30
1.0000016459343897e-07
 10
92.785899147299
 20
37.34438654186125
 30
1.0000016459343897e-07
 10
92.81445449487804
 20
37.408752699857644
 30
1.0000016459343897e-07
 10
92.82846600559625
 20
37.44040803702608
 30
1.0000016459343897e-07
 10
92.84245594932783
 20
37.472072812866074
 30
1.0000016459343897e-07
 10
92.85642785609289
 20
37.50374542837924
 30
1.0000016459343897e-07
 10
92.8703835536143
 20
37.53542505115483
 30
1.0000016459343897e-07
 10
92.88432316731762
 20
37.56711161536973
 30
1.0000016459343897e-07
 10
92.89824512033113
 20
37.598805821788474
 30
1.0000016459343897e-07
 10
93.00191834826435
 20
37.83524794774837
 30
1.0000016459343897e-07
 10
93.09090904224728
 20
38.04032338556605
 30
1.0000016459343897e-07
 10
93.17909441083995
 20
38.245741936454664
 30
1.0000016459343897e-07
 10
93.26644673674022
 20
38.451510362269055
 30
1.0000016459343897e-07
 10
93.3529343600028
 20
38.657635871923254
 30
1.0000016459343897e-07
 10
93.43852027910174
 20
38.86412656768602
 30
1.0000016459343897e-07
 10
93.52315938299031
 20
39.07099216732919
 30
1.0000016459343897e-07
 10
93.66417391395868
 20
39.420435406926075
 30
1.0000016459343897e-07
 10
93.72107950128515
 20
39.562804729345956
 30
1.0000016459343897e-07
 10
93.77749354921329
 20
39.7053599587177
 30
1.0000016459343897e-07
 10
93.8333951958302
 20
39.84810568524616
 30
1.0000016459343897e-07
 10
93.88875784653375
 20
39.991047338010276
 30
1.0000016459343897e-07
 10
93.94355087221038
 20
40.13418480802678
 30
1.0000016459343897e-07
 10
93.99773231233003
 20
40.27752198778258
 30
1.0000016459343897e-07
 10
94.06978748024746
 20
40.47076160090707
 30
1.0000016459343897e-07
 10
94.08824442185448
 20
40.52049615548453
 30
1.0000016459343897e-07
 10
94.1066195440147
 20
40.57025225331528
 30
1.0000016459343897e-07
 10
94.12491038460938
 20
40.620029840318445
 30
1.0000016459343897e-07
 10
94.14311460850107
 20
40.66982644477737
 30
1.0000016459343897e-07
 10
94.16122912490673
 20
40.719638286814444
 30
1.0000016459343897e-07
 10
94.17925035540287
 20
40.769459504301565
 30
1.0000016459343897e-07
 10
94.20349455438996
 20
40.836823735196276
 30
1.0000016459343897e-07
 10
94.20979872267448
 20
40.854371538294174
 30
1.0000016459343897e-07
 10
94.21609129034236
 20
40.871917733632316
 30
1.0000016459343897e-07
 10
94.22237239562241
 20
40.88946130816715
 30
1.0000016459343897e-07
 10
94.22864211689856
 20
40.90700077979288
 30
1.0000016459343897e-07
 10
94.23490056476967
 20
40.92453402323063
 30
1.0000016459343897e-07
 10
94.24114817198253
 20
40.942057719322065
 30
1.0000016459343897e-07
 10
94.25181898091355
 20
40.97200831323575
 30
1.0000016459343897e-07
 10
94.25624526289025
 20
40.98443817512101
 30
1.0000016459343897e-07
 10
94.26066715975217
 20
40.996857178390115
 30
1.0000016459343897e-07
 10
94.26508551091501
 20
41.009266566270746
 30
1.0000016459343897e-07
 10
94.2695017905464
 20
41.021659617704074
 30
1.0000016459343897e-07
 10
94.2739164528488
 20
41.03402717255332
 30
1.0000016459343897e-07
 10
94.27832945399433
 20
41.04635710112781
 30
1.0000016459343897e-07
 10
94.28274871000043
 20
41.0586080946217
 30
1.0000016459343897e-07
  0
SPLINE
  5
3C
330
17
100
AcDbEntity
  8
0
100
AcDbSpline
 70
0
 71
5
 72
16
 73
10
 74
0
 40
0.0
 40
0.0
 40
0.0
 40
0.0
 40
0.0
 40
0.0
 40
0.5101068935882767
 40
0.5101068935882767
 40
0.5101068935882767
 40
0.5101068935882767
 40
0.9985074433837348
 40
0.9985074433837348
 40
0.9985074433837348
 40
0.9985074433837348
 40
0.9985074433837348
 40
0.9985074433837348
 10
94.28274871000042
 20
41.0586080946217
 30
1.0000016459343897e-07
 10
94.44341745561617
 20
41.5040088153239
 30
1.0000016459343897e-07
 10
94.59891936727044
 20
41.95108409364773
 30
1.0000016459343897e-07
 10
94.74907364611335
 20
42.399797744495054
 30
1.0000016459343897e-07
 10
94.89367055049878
 20
42.85010642969488
 30
1.0000016459343897e-07
 10
95.16534558769501
 20
43.73459017396038
 30
1.0000016459343897e-07
 10
95.29290697640049
 20
44.16863507971923
 30
1.0000016459343897e-07
 10
95.41492647661299
 20
44.604055401542126
 30
1.0000016459343897e-07
 10
95.53115004709167
 20
45.0407976435269
 30
1.0000016459343897e-07
 10
95.64127455546216
 20
45.478798732133534
 30
1.0000016459343897e-07
  0
SPLINE
  5
3D
330
17
100
AcDbEntity
  8
0
100
AcDbSpline
 70
0
 71
5
 72
12
 73
6
 74
0
 40
0.0
 40
0.0
 40
0.0
 40
0.0
 40
0.0
 40
0.0
 40
1.0
 40
1.0
 40
1.0
 40
1.0
 40
1.0
 40
1.0
 10
95.64127455546216
 20
45.478798732133534
 30
1.0000016459343897e-07
 10
95.64161109698253
 20
45.48013726752831
 30
1.0000016459343897e-07
 10
95.6419475815426
 20
45.481475814679705
 30
1.0000016459343897e-07
 10
95.64228400913369
 20
45.48281437358591
 30
1.0000016459343897e-07
 10
95.64262037974716
 20
45.484152944245125
 30
1.0000016459343897e-07
 10
95.64295669337434
 20
45.485491526655544
 30
1.0000016459343897e-07
  0
LINE
  5
3E
330
17
100
AcDbEntity
  8
0
100
AcDbLine
 10
95.64295669337433
 20
45.48549152665556
 30
1.0000016459343897e-07
 11
95.64295669337434
 21
46.04358454728021
 31
1.0000016459343897e-07
  0
LINE
  5
3F
330
17
100
AcDbEntity
  8
0
100
AcDbLine
 10
95.64295669337434
 20
46.04358454728021
 30
1.0000016459343897e-07
 11
92.82115449303527
 21
46.043584547280325
 31
1.0000013617172954e-07
  0
LINE
  5
40
330
17
100
AcDbEntity
  8
0
100
AcDbLine
 10
92.82115449303527
 20
46.043584547280325
 30
1.0000013617172954e-07
 11
86.82115449303527
 21
46.0435845472803
 31
1.0000016459343897e-07
  0
LINE
  5
41
330
17
100
AcDbEntity
  8
0
100
AcDbLine
 10
86.82115449303527
 20
46.0435845472803
 30
1.0000016459343897e-07
 11
85.64340057550825
 21
46.043584547283004
 31
1.0000007932831068e-07
  0
ENDSEC
  0
SECTION
  2
OBJECTS
  0
DICTIONARY
  5
A
330
0
100
AcDbDictionary
281
1
  3
ACAD_COLOR
350
B
  3
ACAD_GROUP
350
C
  3
ACAD_LAYOUT
350
D
  3
ACAD_MATERIAL
350
E
  3
ACAD_MLEADERSTYLE
350
F
  3
ACAD_MLINESTYLE
350
10
  3
ACAD_PLOTSETTINGS
350
11
  3
ACAD_PLOTSTYLENAME
350
12
  3
ACAD_SCALELIST
350
14
  3
ACAD_TABLESTYLE
350
15
  3
ACAD_VISUALSTYLE
350
16
  3
EZDXF_META
350
2D
  0
DICTIONARY
  5
B
330
A
100
AcDbDictionary
281
1
  0
DICTIONARY
  5
C
330
A
100
AcDbDictionary
281
1
  0
DICTIONARY
  5
D
330
A
100
AcDbDictionary
281
1
  3
Model
350
1A
  3
Layout1
350
1E
  0
DICTIONARY
  5
E
330
A
100
AcDbDictionary
281
1
  3
ByBlock
350
1F
  3
ByLayer
350
20
  3
Global
350
21
  0
DICTIONARY
  5
F
330
A
100
AcDbDictionary
281
1
  3
Standard
350
2C
  0
DICTIONARY
  5
10
330
A
100
AcDbDictionary
281
1
  3
Standard
350
22
  0
DICTIONARY
  5
11
330
A
100
AcDbDictionary
281
1
  0
ACDBDICTIONARYWDFLT
  5
12
330
A
100
AcDbDictionary
281
1
  3
Normal
350
13
100
AcDbDictionaryWithDefault
340
13
  0
ACDBPLACEHOLDER
  5
13
330
12
  0
DICTIONARY
  5
14
330
A
100
AcDbDictionary
281
1
  0
DICTIONARY
  5
15
330
A
100
AcDbDictionary
281
1
  0
DICTIONARY
  5
16
330
A
100
AcDbDictionary
281
1
  0
LAYOUT
  5
1A
330
D
100
AcDbPlotSettings
  1

  4
A3
  6

 40
7.5
 41
20.0
 42
7.5
 43
20.0
 44
420.0
 45
297.0
 46
0.0
 47
0.0
 48
0.0
 49
0.0
140
0.0
141
0.0
142
1.0
143
1.0
 70
1024
 72
1
 73
0
 74
5
  7

 75
16
 76
0
 77
2
 78
300
147
1.0
148
0.0
149
0.0
100
AcDbLayout
  1
Model
 70
1
 71
0
 10
0.0
 20
0.0
 11
420.0
 21
297.0
 12
0.0
 22
0.0
 32
0.0
 14
1e+20
 24
1e+20
 34
1e+20
 15
-1e+20
 25
-1e+20
 35
-1e+20
146
0.0
 13
0.0
 23
0.0
 33
0.0
 16
1.0
 26
0.0
 36
0.0
 17
0.0
 27
1.0
 37
0.0
 76
1
330
17
  0
LAYOUT
  5
1E
330
D
100
AcDbPlotSettings
  1

  4
A3
  6

 40
7.5
 41
20.0
 42
7.5
 43
20.0
 44
420.0
 45
297.0
 46
0.0
 47
0.0
 48
0.0
 49
0.0
140
0.0
141
0.0
142
1.0
143
1.0
 70
0
 72
1
 73
0
 74
5
  7

 75
16
 76
0
 77
2
 78
300
147
1.0
148
0.0
149
0.0
100
AcDbLayout
  1
Layout1
 70
1
 71
1
 10
0.0
 20
0.0
 11
420.0
 21
297.0
 12
0.0
 22
0.0
 32
0.0
 14
1e+20
 24
1e+20
 34
1e+20
 15
-1e+20
 25
-1e+20
 35
-1e+20
146
0.0
 13
0.0
 23
0.0
 33
0.0
 16
1.0
 26
0.0
 36
0.0
 17
0.0
 27
1.0
 37
0.0
 76
1
330
1B
  0
MATERIAL
  5
1F
102
{ACAD_REACTORS
330
E
102
}
330
E
100
AcDbMaterial
  1
ByBlock
  2

 70
0
 40
1.0
 71
1
 41
1.0
 91
-1023410177
 42
1.0
 72
1
  3

 73
1
 74
1
 75
1
 44
0.5
 73
0
 45
1.0
 46
1.0
 77
1
  4

 78
1
 79
1
170
1
 48
1.0
171
1
  6

172
1
173
1
174
1
140
1.0
141
1.0
175
1
  7

176
1
177
1
178
1
143
1.0
179
1
  8

270
1
271
1
272
1
145
1.0
146
1.0
273
1
  9

274
1
275
1
276
1
 42
1.0
 72
1
  3

 73
1
 74
1
 75
1
 94
63
  0
MATERIAL
  5
20
102
{ACAD_REACTORS
330
E
102
}
330
E
100
AcDbMaterial
  1
ByLayer
  2

 70
0
 40
1.0
 71
1
 41
1.0
 91
-1023410177
 42
1.0
 72
1
  3

 73
1
 74
1
 75
1
 44
0.5
 73
0
 45
1.0
 46
1.0
 77
1
  4

 78
1
 79
1
170
1
 48
1.0
171
1
  6

172
1
173
1
174
1
140
1.0
141
1.0
175
1
  7

176
1
177
1
178
1
143
1.0
179
1
  8

270
1
271
1
272
1
145
1.0
146
1.0
273
1
  9

274
1
275
1
276
1
 42
1.0
 72
1
  3

 73
1
 74
1
 75
1
 94
63
  0
MATERIAL
  5
21
102
{ACAD_REACTORS
330
E
102
}
330
E
100
AcDbMaterial
  1
Global
  2

 70
0
 40
1.0
 71
1
 41
1.0
 91
-1023410177
 42
1.0
 72
1
  3

 73
1
 74
1
 75
1
 44
0.5
 73
0
 45
1.0
 46
1.0
 77
1
  4

 78
1
 79
1
170
1
 48
1.0
171
1
  6

172
1
173
1
174
1
140
1.0
141
1.0
175
1
  7

176
1
177
1
178
1
143
1.0
179
1
  8

270
1
271
1
272
1
145
1.0
146
1.0
273
1
  9

274
1
275
1
276
1
 42
1.0
 72
1
  3

 73
1
 74
1
 75
1
 94
63
  0
MLINESTYLE
  5
22
102
{ACAD_REACTORS
330
10
102
}
330
10
100
AcDbMlineStyle
  2
Standard
 70
0
  3

 62
256
 51
90.0
 52
90.0
 71
2
 49
0.5
 62
256
  6
BYLAYER
 49
-0.5
 62
256
  6
BYLAYER
  0
MLEADERSTYLE
  5
2C
102
{ACAD_REACTORS
330
F
102
}
330
F
100
AcDbMLeaderStyle
179
2
170
2
171
1
172
0
 90
2
 40
0.0
 41
0.0
173
1
 91
-1056964608
 92
-2
290
1
 42
2.0
291
1
 43
8.0
  3
Standard
 44
4.0
300

342
29
174
1
175
1
176
0
178
1
 93
-1056964608
 45
4.0
292
0
297
0
 46
4.0
 94
-1056964608
 47
1.0
 49
1.0
140
1.0
294
1
141
0.0
177
0
142
1.0
295
0
296
0
143
3.75
271
0
272
9
273
9
  0
DICTIONARY
  5
2D
330
A
100
AcDbDictionary
280
1
281
1
  3
CREATED_BY_EZDXF
350
2E
  3
WRITTEN_BY_EZDXF
350
45
  0
DICTIONARYVAR
  5
2E
330
2D
100
DictionaryVariables
280
0
  1
1.4.4 @ 2026-09-23T02:45:03.101280+00:00
  0
DICTIONARYVAR
  5
45
330
2D
100
DictionaryVariables
280
0
  1
1.4.4 @ 2026-09-23T02:45:03.132995+00:00
  0
ENDSEC
  0
EOF
