  0
SECTION
  2
HEADER
  9
$ACADVER
  1
AC1027
  9
$ACADMAINTVER
 70
105
  9
$DWGCODEPAGE
  3
ANSI_1252
  9
$LASTSAVEDBY
  1
ezdxf
  9
$REQUIREDVERSIONS
160
0
  9
$INSBASE
 10
0.0
 20
0.0
 30
0.0
  9
$EXTMIN
 10
1e+20
 20
1e+20
 30
1e+20
  9
$EXTMAX
 10
-1e+20
 20
-1e+20
 30
-1e+20
  9
$LIMMIN
 10
0.0
 20
0.0
  9
$LIMMAX
 10
420.0
 20
297.0
  9
$ORTHOMODE
 70
0
  9
$REGENMODE
 70
1
  9
$FILLMODE
 70
1
  9
$QTEXTMODE
 70
0
  9
$MIRRTEXT
 70
1
  9
$LTSCALE
 40
1.0
  9
$ATTMODE
 70
1
  9
$TEXTSIZE
 40
2.5
  9
$TRACEWID
 40
1.0
  9
$TEXTSTYLE
  7
Standard
  9
$CLAYER
  8
0
  9
$CELTYPE
  6
ByLayer
  9
$CECOLOR
 62
256
  9
$CELTSCALE
 40
1.0
  9
$DISPSILH
 70
0
  9
$DIMSCALE
 40
1.0
  9
$DIMASZ
 40
2.5
  9
$DIMEXO
 40
0.625
  9
$DIMDLI
 40
3.75
  9
$DIMRND
 40
0.0
  9
$DIMDLE
 40
0.0
  9
$DIMEXE
 40
1.25
  9
$DIMTP
 40
0.0
  9
$DIMTM
 40
0.0
  9
$DIMTXT
 40
2.5
  9
$DIMCEN
 40
2.5
  9
$DIMTSZ
 40
0.0
  9
$DIMTOL
 70
0
  9
$DIMLIM
 70
0
  9
$DIMTIH
 70
0
  9
$DIMTOH
 70
0
  9
$DIMSE1
 70
0
  9
$DIMSE2
 70
0
  9
$DIMTAD
 70
1
  9
$DIMZIN
 70
8
  9
$DIMBLK
  1

  9
$DIMASO
 70
1
  9
$DIMSHO
 70
1
  9
$DIMPOST
  1

  9
$DIMAPOST
  1

  9
$DIMALT
 70
0
  9
$DIMALTD
 70
3
  9
$DIMALTF
 40
0.03937007874
  9
$DIMLFAC
 40
1.0
  9
$DIMTOFL
 70
1
  9
$DIMTVP
 40
0.0
  9
$DIMTIX
 70
0
  9
$DIMSOXD
 70
0
  9
$DIMSAH
 70
0
  9
$DIMBLK1
  1

  9
$DIMBLK2
  1

  9
$DIMSTYLE
  2
ISO-25
  9
$DIMCLRD
 70
0
  9
$DIMCLRE
 70
0
  9
$DIMCLRT
 70
0
  9
$DIMTFAC
 40
1.0
  9
$DIMGAP
 40
0.625
  9
$DIMJUST
 70
0
  9
$DIMSD1
 70
0
  9
$DIMSD2
 70
0
  9
$DIMTOLJ
 70
0
  9
$DIMTZIN
 70
8
  9
$DIMALTZ
 70
0
  9
$DIMALTTZ
 70
0
  9
$DIMUPT
 70
0
  9
$DIMDEC
 70
2
  9
$DIMTDEC
 70
2
  9
$DIMALTU
 70
2
  9
$DIMALTTD
 70
3
  9
$DIMTXSTY
  7
Standard
  9
$DIMAUNIT
 70
0
  9
$DIMADEC
 70
0
  9
$DIMALTRND
 40
0.0
  9
$DIMAZIN
 70
0
  9
$DIMDSEP
 70
44
  9
$DIMATFIT
 70
3
  9
$DIMFRAC
 70
0
  9
$DIMLDRBLK
  1

  9
$DIMLUNIT
 70
2
  9
$DIMLWD
 70
-2
  9
$DIMLWE
 70
-2
  9
$DIMTMOVE
 70
0
  9
$DIMFXL
 40
1.0
  9
$DIMFXLON
 70
0
  9
$DIMJOGANG
 40
0.785398163397
  9
$DIMTFILL
 70
0
  9
$DIMTFILLCLR
 70
0
  9
$DIMARCSYM
 70
0
  9
$DIMLTYPE
  6

  9
$DIMLTEX1
  6

  9
$DIMLTEX2
  6

  9
$DIMTXTDIRECTION
 70
0
  9
$LUNITS
 70
2
  9
$LUPREC
 70
4
  9
$SKETCHINC
 40
1.0
  9
$FILLETRAD
 40
10.0
  9
$AUNITS
 70
0
  9
$AUPREC
 70
2
  9
$MENU
  1
.
  9
$ELEVATION
 40
0.0
  9
$PELEVATION
 40
0.0
  9
$THICKNESS
 40
0.0
  9
$LIMCHECK
 70
0
  9
$CHAMFERA
 40
0.0
  9
$CHAMFERB
 40
0.0
  9
$CHAMFERC
 40
0.0
  9
$CHAMFERD
 40
0.0
  9
$SKPOLY
 70
0
  9
$TDCREATE
 40
2461307.822037037
  9
$TDUCREATE
 40
2458532.153996898
  9
$TDUPDATE
 40
2461307.822037037
  9
$TDUUPDATE
 40
2458532.1544311
  9
$TDINDWG
 40
0.0
  9
$TDUSRTIMER
 40
0.0
  9
$USRTIMER
 70
1
  9
$ANGBASE
 50
0.0
  9
$ANGDIR
 70
0
  9
$PDMODE
 70
0
  9
$PDSIZE
 40
0.0
  9
$PLINEWID
 40
0.0
  9
$SPLFRAME
 70
0
  9
$SPLINETYPE
 70
6
  9
$SPLINESEGS
 70
8
  9
$HANDSEED
  5
46
  9
$SURFTAB1
 70
6
  9
$SURFTAB2
 70
6
  9
$SURFTYPE
 70
6
  9
$SURFU
 70
6
  9
$SURFV
 70
6
  9
$UCSBASE
  2

  9
$UCSNAME
  2

  9
$UCSORG
 10
0.0
 20
0.0
 30
0.0
  9
$UCSXDIR
 10
1.0
 20
0.0
 30
0.0
  9
$UCSYDIR
 10
0.0
 20
1.0
 30
0.0
  9
$UCSORTHOREF
  2

  9
$UCSORTHOVIEW
 70
0
  9
$UCSORGTOP
 10
0.0
 20
0.0
 30
0.0
  9
$UCSORGBOTTOM
 10
0.0
 20
0.0
 30
0.0
  9
$UCSORGLEFT
 10
0.0
 20
0.0
 30
0.0
  9
$UCSORGRIGHT
 10
0.0
 20
0.0
 30
0.0
  9
$UCSORGFRONT
 10
0.0
 20
0.0
 30
0.0
  9
$UCSORGBACK
 10
0.0
 20
0.0
 30
0.0
  9
$PUCSBASE
  2

  9
$PUCSNAME
  2

  9
$PUCSORG
 10
0.0
 20
0.0
 30
0.0
  9
$PUCSXDIR
 10
1.0
 20
0.0
 30
0.0
  9
$PUCSYDIR
 10
0.0
 20
1.0
 30
0.0
  9
$PUCSORTHOREF
  2

  9
$PUCSORTHOVIEW
 70
0
  9
$PUCSORGTOP
 10
0.0
 20
0.0
 30
0.0
  9
$PUCSORGBOTTOM
 10
0.0
 20
0.0
 30
0.0
  9
$PUCSORGLEFT
 10
0.0
 20
0.0
 30
0.0
  9
$PUCSORGRIGHT
 10
0.0
 20
0.0
 30
0.0
  9
$PUCSORGFRONT
 10
0.0
 20
0.0
 30
0.0
  9
$PUCSORGBACK
 10
0.0
 20
0.0
 30
0.0
  9
$USERI1
 70
0
  9
$USERI2
 70
0
  9
$USERI3
 70
0
  9
$USERI4
 70
0
  9
$USERI5
 70
0
  9
$USERR1
 40
0.0
  9
$USERR2
 40
0.0
  9
$USERR3
 40
0.0
  9
$USERR4
 40
0.0
  9
$USERR5
 40
0.0
  9
$WORLDVIEW
 70
1
  9
$SHADEDGE
 70
3
  9
$SHADEDIF
 70
70
  9
$TILEMODE
 70
1
  9
$MAXACTVP
 70
64
  9
$PINSBASE
 10
0.0
 20
0.0
 30
0.0
  9
$PLIMCHECK
 70
0
  9
$PEXTMIN
 10
1e+20
 20
1e+20
 30
1e+20
  9
$PEXTMAX
 10
-1e+20
 20
-1e+20
 30
-1e+20
  9
$PLIMMIN
 10
0.0
 20
0.0
  9
$PLIMMAX
 10
420.0
 20
297.0
  9
$UNITMODE
 70
0
  9
$VISRETAIN
 70
1
  9
$PLINEGEN
 70
0
  9
$PSLTSCALE
 70
1
  9
$TREEDEPTH
 70
3020
  9
$CMLSTYLE
  2
Standard
  9
$CMLJUST
 70
0
  9
$CMLSCALE
 40
20.0
  9
$PROXYGRAPHICS
 70
1
  9
$MEASUREMENT
 70
1
  9
$CELWEIGHT
370
-1
  9
$ENDCAPS
280
0
  9
$JOINSTYLE
280
0
  9
$LWDISPLAY
290
0
  9
$INSUNITS
 70
4
  9
$HYPERLINKBASE
  1

  9
$STYLESHEET
  1

  9
$XEDIT
290
1
  9
$CEPSNTYPE
380
0
  9
$PSTYLEMODE
290
1
  9
$FINGERPRINTGUID
  2
{C4BB7D1D-5523-49B5-BD2E-BFB015B5CAAC}
  9
$VERSIONGUID
  2
{F8929DB7-85A4-478F-B55E-6765666A0EA5}
  9
$EXTNAMES
290
1
  9
$PSVPSCALE
 40
0.0
  9
$OLESTARTUP
290
0
  9
$SORTENTS
280
127
  9
$INDEXCTL
280
0
  9
$HIDETEXT
280
1
  9
$XCLIPFRAME
280
1
  9
$HALOGAP
280
0
  9
$OBSCOLOR
 70
257
  9
$OBSLTYPE
280
0
  9
$INTERSECTIONDISPLAY
280
0
  9
$INTERSECTIONCOLOR
 70
257
  9
$DIMASSOC
280
2
  9
$PROJECTNAME
  1

  9
$CAMERADISPLAY
290
0
  9
$LENSLENGTH
 40
50.0
  9
$CAMERAHEIGHT
 40
0.0
  9
$STEPSPERSEC
 40
24.0
  9
$STEPSIZE
 40
100.0
  9
$3DDWFPREC
 40
2.0
  9
$PSOLWIDTH
 40
0.005
  9
$PSOLHEIGHT
 40
0.08
  9
$LOFTANG1
 40
1.570796326795
  9
$LOFTANG2
 40
1.570796326795
  9
$LOFTMAG1
 40
0.0
  9
$LOFTMAG2
 40
0.0
  9
$LOFTPARAM
 70
7
  9
$LOFTNORMALS
280
1
  9
$LATITUDE
 40
37.795
  9
$LONGITUDE
 40
-122.394
  9
$NORTHDIRECTION
 40
0.0
  9
$TIMEZONE
 70
-8000
  9
$LIGHTGLYPHDISPLAY
280
1
  9
$TILEMODELIGHTSYNCH
280
1
  9
$CMATERIAL
347
20
  9
$SOLIDHIST
280
0
  9
$SHOWHIST
280
1
  9
$DWFFRAME
280
2
  9
$DGNFRAME
280
2
  9
$REALWORLDSCALE
290
1
  9
$INTERFERECOLOR
 62
256
  9
$CSHADOW
280
0
  9
$SHADOWPLANELOCATION
 40
0.0
  0
ENDSEC
  0
SECTION
  2
CLASSES
  0
CLASS
  1
ACDBDICTIONARYWDFLT
  2
AcDbDictionaryWithDefault
  3
ObjectDBX Classes
 90
0
 91
0
280
0
281
0
  0
CLASS
  1
SUN
  2
AcDbSun
  3
SCENEOE
 90
1153
 91
0
280
0
281
0
  0
CLASS
  1
VISUALSTYLE
  2
AcDbVisualStyle
  3
ObjectDBX Classes
 90
4095
 91
0
280
0
281
0
  0
CLASS
  1
MATERIAL
  2
AcDbMaterial
  3
ObjectDBX Classes
 90
1153
 91
0
280
0
281
0
  0
CLASS
  1
SCALE
  2
AcDbScale
  3
ObjectDBX Classes
 90
1153
 91
0
280
0
281
0
  0
CLASS
  1
TABLESTYLE
  2
AcDbTableStyle
  3
ObjectDBX Classes
 90
4095
 91
0
280
0
281
0
  0
CLASS
  1
MLEADERSTYLE
  2
AcDbMLeaderStyle
  3
ACDB_MLEADERSTYLE_CLASS
 90
4095
 91
0
280
0
281
0
  0
CLASS
  1
DICTIONARYVAR
  2
AcDbDictionaryVar
  3
ObjectDBX Classes
 90
0
 91
0
280
0
281
0
  0
CLASS
  1
CELLSTYLEMAP
  2
AcDbCellStyleMap
  3
ObjectDBX Classes
 90
1152
 91
0
280
0
281
0
  0
CLASS
  1
MENTALRAYRENDERSETTINGS
  2
AcDbMentalRayRenderSettings
  3
SCENEOE
 90
1024
 91
0
280
0
281
0
  0
CLASS
  1
ACDBDETAILVIEWSTYLE
  2
AcDbDetailViewStyle
  3
ObjectDBX Classes
 90
1025
 91
0
280
0
281
0
  0
CLASS
  1
ACDBSECTIONVIEWSTYLE
  2
AcDbSectionViewStyle
  3
ObjectDBX Classes
 90
1025
 91
0
280
0
281
0
  0
CLASS
  1
RASTERVARIABLES
  2
AcDbRasterVariables
  3
ISM
 90
0
 91
0
280
0
281
0
  0
CLASS
  1
LAYOUT
  2
AcDbLayout
  3
ObjectDBX Classes
 90
0
 91
0
280
0
281
0
  0
CLASS
  1
ACDBPLACEHOLDER
  2
AcDbPlaceHolder
  3
ObjectDBX Classes
 90
0
 91
0
280
0
281
0
  0
ENDSEC
  0
SECTION
  2
TABLES
  0
TABLE
  2
VPORT
  5
8
330
0
100
AcDbSymbolTable
 70
1
  0
VPORT
  5
42
330
8
100
AcDbSymbolTableRecord
100
AcDbViewportTableRecord
  2
*Active
 70
0
 10
0.0
 20
0.0
 11
1.0
 21
1.0
 12
47.821478396684505
 22
23.021792423750675
 13
0.0
 23
0.0
 14
0.5
 24
0.5
 15
0.5
 25
0.5
 16
0.0
 26
0.0
 36
1.0
 17
0.0
 27
0.0
 37
0.0
 40
47.821478296684504
 41
1.34
 42
50.0
 43
0.0
 44
0.0
 50
0.0
 51
0.0
 71
0
 72
1000
 73
1
 74
3
 75
0
 76
0
 77
0
 78
0
281
0
 65
1
110
0.0
120
0.0
130
0.0
111
1.0
121
0.0
131
0.0
112
0.0
122
1.0
132
0.0
 79
0
146
0.0
  0
ENDTAB
  0
TABLE
  2
LTYPE
  5
2
330
0
100
AcDbSymbolTable
 70
3
  0
LTYPE
  5
24
330
2
100
AcDbSymbolTableRecord
100
AcDbLinetypeTableRecord
  2
ByBlock
 70
0
  3

 72
65
 73
0
 40
0.0
  0
LTYPE
  5
25
330
2
100
AcDbSymbolTableRecord
100
AcDbLinetypeTableRecord
  2
ByLayer
 70
0
  3

 72
65
 73
0
 40
0.0
  0
LTYPE
  5
26
330
2
100
AcDbSymbolTableRecord
100
AcDbLinetypeTableRecord
  2
Continuous
 70
0
  3

 72
65
 73
0
 40
0.0
  0
ENDTAB
  0
TABLE
  2
LAYER
  5
1
330
0
100
AcDbSymbolTable
 70
2
  0
LAYER
  5
27
330
1
100
AcDbSymbolTableRecord
100
AcDbLayerTableRecord
  2
0
 70
0
 62
7
  6
Continuous
370
-3
390
13
347
21
  0
LAYER
  5
28
330
1
100
AcDbSymbolTableRecord
100
AcDbLayerTableRecord
  2
Defpoints
 70
0
 62
7
  6
Continuous
290
0
370
-3
390
13
347
21
  0
ENDTAB
  0
TABLE
  2
STYLE
  5
5
330
0
100
AcDbSymbolTable
 70
1
  0
STYLE
  5
29
330
5
100
AcDbSymbolTableRecord
100
AcDbTextStyleTableRecord
  2
Standard
 70
0
 40
0.0
 41
1.0
 50
0.0
 71
0
 42
2.5
  3
txt
  4

  0
ENDTAB
  0
TABLE
  2
VIEW
  5
7
330
0
100
AcDbSymbolTable
 70
0
  0
ENDTAB
  0
TABLE
  2
UCS
  5
6
330
0
100
AcDbSymbolTable
 70
0
  0
ENDTAB
  0
TABLE
  2
APPID
  5
3
330
0
100
AcDbSymbolTable
 70
3
  0
APPID
  5
2A
330
3
100
AcDbSymbolTableRecord
100
AcDbRegAppTableRecord
  2
ACAD
 70
0
  0
APPID
  5
43
330
3
100
AcDbSymbolTableRecord
100
AcDbRegAppTableRecord
  2
HATCHBACKGROUNDCOLOR
 70
0
  0
APPID
  5
44
330
3
100
AcDbSymbolTableRecord
100
AcDbRegAppTableRecord
  2
EZDXF
 70
0
  0
ENDTAB
  0
TABLE
  2
DIMSTYLE
  5
4
330
0
100
AcDbSymbolTable
 70
1
100
AcDbDimStyleTable
  0
DIMSTYLE
105
2B
330
4
100
AcDbSymbolTableRecord
100
AcDbDimStyleTableRecord
  2
Standard
 70
0
 40
1.0
 41
2.5
 42
0.625
 43
3.75
 44
1.25
 45
0.0
 46
0.0
 47
0.0
 48
0.0
 49
2.5
140
2.5
141
2.5
142
0.0
143
0.03937007874
144
1.0
145
0.0
146
1.0
147
0.625
148
0.0
 69
0
 70
0
 71
0
 72
0
 73
0
 74
0
 75
0
 76
0
 77
1
 78
8
 79
3
170
0
171
3
172
1
173
0
174
0
175
0
176
0
177
0
178
0
179
2
271
2
272
2
273
2
274
3
275
0
276
0
277
2
278
44
279
0
280
0
281
0
282
0
283
0
284
8
285
0
286
0
288
0
289
3
290
0
371
-2
372
-2
  0
ENDTAB
  0
TABLE
  2
BLOCK_RECORD
  5
9
330
0
100
AcDbSymbolTable
 70
2
  0
BLOCK_RECORD
  5
17
330
9
100
AcDbSymbolTableRecord
100
AcDbBlockTableRecord
  2
*Model_Space
340
1A
 70
0
280
1
281
0
  0
BLOCK_RECORD
  5
1B
330
9
100
AcDbSymbolTableRecord
100
AcDbBlockTableRecord
  2
*Paper_Space
340
1E
 70
0
280
1
281
0
  0
ENDTAB
  0
ENDSEC
  0
SECTION
  2
BLOCKS
  0
BLOCK
  5
18
330
17
100
AcDbEntity
  8
0
100
AcDbBlockBegin
  2
*Model_Space
 70
0
 10
0.0
 20
0.0
 30
0.0
  3
*Model_Space
  1

  0
ENDBLK
  5
19
330
17
100
AcDbEntity
  8
0
100
AcDbBlockEnd
  0
BLOCK
  5
1C
330
1B
100
AcDbEntity
  8
0
100
AcDbBlockBegin
  2
*Paper_Space
 70
0
 10
0.0
 20
0.0
 30
0.0
  3
*Paper_Space
  1

  0
ENDBLK
  5
1D
330
1B
100
AcDbEntity
  8
0
100
AcDbBlockEnd
  0
ENDSEC
  0
SECTION
  2
ENTITIES
  0
LINE
  5
2F
330
17
100
AcDbEntity
  8
0
100
AcDbLine
 10
79.821176106995
 20
46.04358454727779
 30
1.0000007932831068e-07
 11
85.643400575503
 21
46.04358454728256
 31
1.0000007932831068e-07
  0
LINE
  5
30
330
17
100
AcDbEntity
  8
0
100
AcDbLine
 10
85.643400575503
 20
46.04358454728256
 30
1.0000007932831068e-07
 11
86.82115449303001
 21
46.043584547279856
 31
1.0000007932831068e-07
  0
LINE
  5
31
330
17
100
AcDbEntity
  8
0
100
AcDbLine
 10
86.82115449303001
 20
46.043584547279856
 30
1.0000007932831068e-07
 11
92.82115449303001
 21
46.043584547279885
 31
1.0000007932831068e-07
  0
LINE
  5
32
330
17
100
AcDbEntity
  8
0
100
AcDbLine
 10
92.82115449303001
 20
46.043584547279885
 30
1.0000007932831068e-07
 11
95.642956693369
 21
46.04358454727977
 31
1.0000007932831068e-07
  0
LINE
  5
33
330
17
100
AcDbEntity
  8
0
100
AcDbLine
 10
95.642956693369
 20
46.04358454727977
 30
1.0000007932831068e-07
 11
95.642956693369
 21
45.48549152665478
 31
1.0000007932831068e-07
  0
SPLINE
  5
34
330
17
100
AcDbEntity
  8
0
100
AcDbSpline
 70
0
 71
5
 72
12
 73
6
 74
0
 40
0.0
 40
0.0
 40
0.0
 40
0.0
 40
0.0
 40
0.0
 40
1.0
 40
1.0
 40
1.0
 40
1.0
 40
1.0
 40
1.0
 10
95.6412745554569
 20
45.4787987321331
 30
1.0000007932831068e-07
 10
95.64161109697726
 20
45.480137267527816
 30
1.0000007932831068e-07
 10
95.64194758153731
 20
45.48147581467914
 30
1.0000007932831068e-07
 10
95.64228400912839
 20
45.48281437358528
 30
1.0000007932831068e-07
 10
95.64262037974183
 20
45.48415294424443
 30
1.0000007932831068e-07
 10
95.642956693369
 20
45.48549152665478
 30
1.0000007932831068e-07
  0
SPLINE
  5
35
330
17
100
AcDbEntity
  8
0
100
AcDbSpline
 70
0
 71
5
 72
16
 73
10
 74
0
 40
0.0
 40
0.0
 40
0.0
 40
0.0
 40
0.0
 40
0.0
 40
0.510106893588
 40
0.510106893588
 40
0.510106893588
 40
0.510106893588
 40
0.9985074433838032
 40
0.9985074433838032
 40
0.9985074433838032
 40
0.9985074433838032
 40
0.9985074433838032
 40
0.9985074433838032
 10
94.28274870999499
 20
41.05860809462079
 30
1.0000007932831068e-07
 10
94.443417455611
 20
41.504008815323786
 30
1.0000007932831068e-07
 10
94.598919367265
 20
41.951084093647786
 30
1.0000007932831068e-07
 10
94.749073646108
 20
42.399797744494784
 30
1.0000007932831068e-07
 10
94.893670550494
 20
42.85010642969478
 30
1.0000007932831068e-07
 10
95.16534558768977
 20
43.73459017396028
 30
1.0000007932831068e-07
 10
95.29290697639506
 20
44.168635079719294
 30
1.0000007932831068e-07
 10
95.4149264766078
 20
44.604055401541764
 30
1.0000007932831068e-07
 10
95.5311500470866
 20
45.04079764352689
 30
1.0000007932831068e-07
 10
95.6412745554569
 20
45.4787987321331
 30
1.0000007932831068e-07
  0
SPLINE
  5
36
330
17
100
AcDbEntity
  8
0
100
AcDbSpline
 70
0
 71
8
 72
228
 73
219
 74
0
 40
0.0
 40
0.0
 40
0.0
 40
0.0
 40
0.0
 40
0.0
 40
0.0
 40
0.0
 40
0.0
 40
0.07108945752077
 40
0.07108945752077
 40
0.07108945752077
 40
0.07108945752077
 40
0.07108945752077
 40
0.07108945752077
 40
0.07108945752077
 40
0.110250126567
 40
0.110250126567
 40
0.110250126567
 40
0.110250126567
 40
0.110250126567
 40
0.110250126567
 40
0.110250126567
 40
0.130854547801
 40
0.130854547801
 40
0.130854547801
 40
0.130854547801
 40
0.130854547801
 40
0.130854547801
 40
0.130854547801
 40
0.14188082447
 40
0.14188082447
 40
0.14188082447
 40
0.14188082447
 40
0.14188082447
 40
0.14188082447
 40
0.14188082447
 40
0.153002522232
 40
0.153002522232
 40
0.153002522232
 40
0.153002522232
 40
0.153002522232
 40
0.153002522232
 40
0.153002522232
 40
0.160850741088
 40
0.160850741088
 40
0.160850741088
 40
0.160850741088
 40
0.160850741088
 40
0.160850741088
 40
0.160850741088
 40
0.232472370261
 40
0.232472370261
 40
0.232472370261
 40
0.232472370261
 40
0.232472370261
 40
0.232472370261
 40
0.232472370261
 40
0.290281782642
 40
0.290281782642
 40
0.290281782642
 40
0.290281782642
 40
0.290281782642
 40
0.290281782642
 40
0.290281782642
 40
0.312347713187
 40
0.312347713187
 40
0.312347713187
 40
0.312347713187
 40
0.312347713187
 40
0.312347713187
 40
0.312347713187
 40
0.393927906713
 40
0.393927906713
 40
0.393927906713
 40
0.393927906713
 40
0.393927906713
 40
0.393927906713
 40
0.393927906713
 40
0.434978577621
 40
0.434978577621
 40
0.434978577621
 40
0.434978577621
 40
0.434978577621
 40
0.434978577621
 40
0.434978577621
 40
0.455620280813
 40
0.455620280813
 40
0.455620280813
 40
0.455620280813
 40
0.455620280813
 40
0.455620280813
 40
0.455620280813
 40
0.466641140096
 40
0.466641140096
 40
0.466641140096
 40
0.466641140096
 40
0.466641140096
 40
0.466641140096
 40
0.466641140096
 40
0.477661946886
 40
0.477661946886
 40
0.477661946886
 40
0.477661946886
 40
0.477661946886
 40
0.477661946886
 40
0.477661946886
 40
0.494187994436
 40
0.494187994436
 40
0.494187994436
 40
0.494187994436
 40
0.494187994436
 40
0.494187994436
 40
0.494187994436
 40
0.61091896381
 40
0.61091896381
 40
0.61091896381
 40
0.61091896381
 40
0.61091896381
 40
0.61091896381
 40
0.61091896381
 40
0.648870467407
 40
0.648870467407
 40
0.648870467407
 40
0.648870467407
 40
0.648870467407
 40
0.648870467407
 40
0.648870467407
 40
0.686965484188
 40
0.686965484188
 40
0.686965484188
 40
0.686965484188
 40
0.686965484188
 40
0.686965484188
 40
0.686965484188
 40
0.726031359278
 40
0.726031359278
 40
0.726031359278
 40
0.726031359278
 40
0.726031359278
 40
0.726031359278
 40
0.726031359278
 40
0.758659016551
 40
0.758659016551
 40
0.758659016551
 40
0.758659016551
 40
0.758659016551
 40
0.758659016551
 40
0.758659016551
 40
0.811761190223
 40
0.811761190223
 40
0.811761190223
 40
0.811761190223
 40
0.811761190223
 40
0.811761190223
 40
0.811761190223
 40
0.847212027128
 40
0.847212027128
 40
0.847212027128
 40
0.847212027128
 40
0.847212027128
 40
0.847212027128
 40
0.847212027128
 40
0.871639505853
 40
0.871639505853
 40
0.871639505853
 40
0.871639505853
 40
0.871639505853
 40
0.871639505853
 40
0.871639505853
 40
0.934959154578
 40
0.934959154578
 40
0.934959154578
 40
0.934959154578
 40
0.934959154578
 40
0.934959154578
 40
0.934959154578
 40
0.93933167904
 40
0.93933167904
 40
0.93933167904
 40
0.93933167904
 40
0.93933167904
 40
0.93933167904
 40
0.93933167904
 40
0.943560011007
 40
0.943560011007
 40
0.943560011007
 40
0.943560011007
 40
0.943560011007
 40
0.943560011007
 40
0.943560011007
 40
0.970866418193
 40
0.970866418193
 40
0.970866418193
 40
0.970866418193
 40
0.970866418193
 40
0.970866418193
 40
0.970866418193
 40
0.98960058458
 40
0.98960058458
 40
0.98960058458
 40
0.98960058458
 40
0.98960058458
 40
0.98960058458
 40
0.98960058458
 40
0.996089591582
 40
0.996089591582
 40
0.996089591582
 40
0.996089591582
 40
0.996089591582
 40
0.996089591582
 40
0.996089591582
 40
0.99837556297
 40
0.99837556297
 40
0.99837556297
 40
0.99837556297
 40
0.99837556297
 40
0.99837556297
 40
0.99837556297
 40
1.0
 40
1.0
 40
1.0
 40
1.0
 40
1.0
 40
1.0
 40
1.0
 40
1.0
 40
1.0
 10
47.8211524891932
 20
3.002187867195971e-07
 30
1.0000007932831068e-07
 10
48.386195903934
 20
-7.372245221404228e-05
 30
1.0000007932831068e-07
 10
48.951225157796
 20
0.015491489388786306
 30
1.0000007932831068e-07
 10
49.515772301252
 20
0.045927417959788386
 30
1.0000007932831068e-07
 10
50.079414057965
 20
0.09059485438078951
 30
1.0000007932831068e-07
 10
50.641774504999
 20
0.14894073968378763
 30
1.0000007932831068e-07
 10
51.202526874994
 20
0.22047037137679126
 30
1.0000007932831068e-07
 10
51.76139448033
 20
0.30473497557579066
 30
1.0000007932831068e-07
 10
52.624848111285004
 20
0.4545479875007885
 30
1.0000007932831068e-07
 10
52.930896729591
 20
0.5115028821437875
 30
1.0000007932831068e-07
 10
53.236254164787
 20
0.5721311306147854
 30
1.0000007932831068e-07
 10
53.54087992093
 20
0.6363676736977908
 30
1.0000007932831068e-07
 10
53.844735518161
 20
0.7041502815177907
 30
1.0000007932831068e-07
 10
54.147784555337
 20
0.7754192440817889
 30
1.0000007932831068e-07
 10
54.449992772678
 20
0.8501170618137905
 30
1.0000007932831068e-07
 10
54.909875975419
 20
0.9692653020387851
 30
1.0000007932831068e-07
 10
55.068182074373
 20
1.0112762713807868
 30
1.0000007932831068e-07
 10
55.226241671677
 20
1.0542129524947867
 30
1.0000007932831068e-07
 10
55.384050151218
 20
1.0980673797127878
 30
1.0000007932831068e-07
 10
55.541603020355
 20
1.1428317133267853
 30
1.0000007932831068e-07
 10
55.698895909919
 20
1.1884982395917874
 30
1.0000007932831068e-07
 10
55.855924574211
 20
1.2350593707257858
 30
1.0000007932831068e-07
 10
56.096573809993004
 20
1.3078991758127856
 30
1.0000007932831068e-07
 10
56.180594955826
 20
1.3336080443277893
 30
1.0000007932831068e-07
 10
56.26474731497
 20
1.359635408273789
 30
1.0000007932831068e-07
 10
56.349029873890004
 20
1.3859824254727897
 30
1.0000007932831068e-07
 10
56.433441619053
 20
1.4126502537487866
 30
1.0000007932831068e-07
 10
56.517981536923
 20
1.4396400509247869
 30
1.0000007932831068e-07
 10
56.602648613967
 20
1.4669529748237906
 30
1.0000007932831068e-07
 10
56.772968857541
 20
1.5224665633497878
 30
1.0000007932831068e-07
 10
56.85841492961
 20
1.5505945925197864
 30
1.0000007932831068e-07
 10
56.943766264658
 20
1.5790085189387852
 30
1.0000007932831068e-07
 10
57.02903664651
 20
1.607665283133791
 30
1.0000007932831068e-07
 10
57.114228849741
 20
1.6365537132917893
 30
1.0000007932831068e-07
 10
57.199327036342
 20
1.6657160548907868
 30
1.0000007932831068e-07
 10
57.284320130353
 20
1.6951818346737895
 30
1.0000007932831068e-07
 10
57.429192759736
 20
1.7457245517777906
 30
1.0000007932831068e-07
 10
57.489186270162
 20
1.7667741097367866
 30
1.0000007932831068e-07
 10
57.549235827036
 20
1.7879773088337885
 30
1.0000007932831068e-07
 10
57.609340557294004
 20
1.80934399296779
 30
1.0000007932831068e-07
 10
57.669499589473
 20
1.8308792739307904
 30
1.0000007932831068e-07
 10
57.729712053715005
 20
1.8525835314047896
 30
1.0000007932831068e-07
 10
57.789977081764
 20
1.8744524129657876
 30
1.0000007932831068e-07
 10
58.400734894901
 20
2.0974682884117897
 30
1.0000007932831068e-07
 10
58.947337376145
 20
2.308940276356786
 30
1.0000007932831068e-07
 10
59.490090083014
 20
2.530260722985787
 30
1.0000007932831068e-07
 10
60.028974529506
 20
2.760887963779787
 30
1.0000007932831068e-07
 10
60.56397236957
 20
3.0003530833917864
 30
1.0000007932831068e-07
 10
61.095070740185
 20
3.24824731583179
 30
1.0000007932831068e-07
 10
61.622265489267
 20
3.504214506078789
 30
1.0000007932831068e-07
 10
62.567941404977
 20
3.9808216867467863
 30
1.0000007932831068e-07
 10
62.987771629735
 20
4.198749870095789
 30
1.0000007932831068e-07
 10
63.405050078697
 20
4.42156900327479
 30
1.0000007932831068e-07
 10
63.81977104053
 20
4.649130734891791
 30
1.0000007932831068e-07
 10
64.23192671170901
 20
4.881301182635788
 30
1.0000007932831068e-07
 10
64.64150793169401
 20
5.117959573870792
 30
1.0000007932831068e-07
 10
65.048504918102
 20
5.358996886226791
 30
1.0000007932831068e-07
 10
65.607269203483
 20
5.697952547177792
 30
1.0000007932831068e-07
 10
65.761252575031
 20
5.792213797490788
 30
1.0000007932831068e-07
 10
65.91485610474601
 20
5.887094489762788
 30
1.0000007932831068e-07
 10
66.068081552284
 20
5.982585699809789
 30
1.0000007932831068e-07
 10
66.220926623908
 20
6.078684490582788
 30
1.0000007932831068e-07
 10
66.373388772321
 20
6.17538856279679
 30
1.0000007932831068e-07
 10
66.525470057614
 20
6.272689138766786
 30
1.0000007932831068e-07
 10
67.238033288683
 20
6.732478457214789
 30
1.0000007932831068e-07
 10
67.793707604156
 20
7.10240732931679
 30
1.0000007932831068e-07
 10
68.34427272776901
 20
7.47996803960379
 30
1.0000007932831068e-07
 10
68.889786085552
 20
7.864817410595791
 30
1.0000007932831068e-07
 10
69.430290468023
 20
8.256657067997786
 30
1.0000007932831068e-07
 10
69.965817801119
 20
8.655228079054787
 30
1.0000007932831068e-07
 10
70.496391474072
 20
9.06030764927079
 30
1.0000007932831068e-07
 10
71.286524025033
 20
9.678722039287791
 30
1.0000007932831068e-07
 10
71.549769118291
 20
9.887335413385792
 30
1.0000007932831068e-07
 10
71.811763677207
 20
10.097523531474792
 30
1.0000007932831068e-07
 10
72.07250801066
 20
10.309263580444785
 30
1.0000007932831068e-07
 10
72.332001563198
 20
10.522534402395792
 30
1.0000007932831068e-07
 10
72.590242915039
 20
10.73731649464279
 30
1.0000007932831068e-07
 10
72.847229782067
 20
10.953592009710789
 30
1.0000007932831068e-07
 10
73.231548557103
 20
11.28083839928479
 30
1.0000007932831068e-07
 10
73.359820098095
 20
11.39070551299379
 30
1.0000007932831068e-07
 10
73.48777323322301
 20
11.500944015463787
 30
1.0000007932831068e-07
 10
73.615407496728
 20
11.611551914153786
 30
1.0000007932831068e-07
 10
73.742722362683
 20
11.722527304987786
 30
1.0000007932831068e-07
 10
73.869717244991
 20
11.833868372348789
 30
1.0000007932831068e-07
 10
73.996391497388
 20
11.94557338907979
 30
1.0000007932831068e-07
 10
74.190205789807
 20
12.117474841322789
 30
1.0000007932831068e-07
 10
74.257583981381
 20
12.177419711459791
 30
1.0000007932831068e-07
 10
74.324878111123
 20
12.237474475133787
 30
1.0000007932831068e-07
 10
74.392087301994
 20
12.297638280577786
 30
1.0000007932831068e-07
 10
74.459210676953
 20
12.357910276029791
 30
1.0000007932831068e-07
 10
74.526247358963
 20
12.418289609722791
 30
1.0000007932831068e-07
 10
74.593196470983
 20
12.478775429894789
 30
1.0000007932831068e-07
 10
74.726917482504
 20
12.59995805106579
 30
1.0000007932831068e-07
 10
74.79369074567
 20
12.66065465373579
 30
1.0000007932831068e-07
 10
74.860374326518
 20
12.721456404153791
 30
1.0000007932831068e-07
 10
74.926966536449
 20
12.782362666758786
 30
1.0000007932831068e-07
 10
74.993466597222
 20
12.84337245905779
 30
1.0000007932831068e-07
 10
75.05987464095
 20
12.904484451633792
 30
1.0000007932831068e-07
 10
75.126191710102
 20
12.965696968137792
 30
1.0000007932831068e-07
 10
75.291730804435
 20
13.118945790221787
 30
1.0000007932831068e-07
 10
75.390840506149
 20
13.211101125208792
 30
1.0000007932831068e-07
 10
75.489743231115
 20
13.30347865509679
 30
1.0000007932831068e-07
 10
75.588435216701
 20
13.396081818181791
 30
1.0000007932831068e-07
 10
75.686928806312
 20
13.488895612407788
 30
1.0000007932831068e-07
 10
75.785212560949
 20
13.581931710415788
 30
1.0000007932831068e-07
 10
75.883293737432
 20
13.675180854975785
 30
1.0000007932831068e-07
 10
76.672518497581
 20
14.428816976086786
 30
1.0000007932831068e-07
 10
77.353674172942
 20
15.099640867453786
 30
1.0000007932831068e-07
 10
78.024802338402
 20
15.780591548327784
 30
1.0000007932831068e-07
 10
78.68600745933
 20
16.471222743656785
 30
1.0000007932831068e-07
 10
79.337341036302
 20
17.171159009552785
 30
1.0000007932831068e-07
 10
79.978802815427
 20
17.880094417696785
 30
1.0000007932831068e-07
 10
80.610335830634
 20
18.597796992268783
 30
1.0000007932831068e-07
 10
81.433870307609
 20
19.560260247522784
 30
1.0000007932831068e-07
 10
81.634861812786
 20
19.797311494069785
 30
1.0000007932831068e-07
 10
81.83478595929
 20
20.035265602389785
 30
1.0000007932831068e-07
 10
82.03362456227799
 20
20.274129491957783
 30
1.0000007932831068e-07
 10
82.231409623448
 20
20.513865435665785
 30
1.0000007932831068e-07
 10
82.428114592225
 20
20.754487478725785
 30
1.0000007932831068e-07
 10
82.623752958538
 20
20.995974226718786
 30
1.0000007932831068e-07
 10
83.01362182345801
 20
21.481584610348786
 30
1.0000007932831068e-07
 10
83.207844781241
 20
21.725714264849785
 30
1.0000007932831068e-07
 10
83.40098758107
 20
21.970701700963787
 30
1.0000007932831068e-07
 10
83.593048748157
 20
22.216539024560785
 30
1.0000007932831068e-07
 10
83.78402614057799
 20
22.463218912281786
 30
1.0000007932831068e-07
 10
83.973916949277
 20
22.710734611531784
 30
1.0000007932831068e-07
 10
84.162717698063
 20
22.959079940486784
 30
1.0000007932831068e-07
 10
84.542914524013
 20
23.463768761039784
 30
1.0000007932831068e-07
 10
84.734253896732
 20
23.720154807727784
 30
1.0000007932831068e-07
 10
84.924438003706
 20
23.977401349223786
 30
1.0000007932831068e-07
 10
85.11346135914
 20
24.235503043219786
 30
1.0000007932831068e-07
 10
85.301317349503
 20
24.494455284034785
 30
1.0000007932831068e-07
 10
85.487998233531
 20
24.754254202611786
 30
1.0000007932831068e-07
 10
85.673495142227
 20
25.014896666516783
 30
1.0000007932831068e-07
 10
86.01172712913001
 20
25.494770312202785
 30
1.0000007932831068e-07
 10
86.16482306920301
 20
25.713747355271785
 30
1.0000007932831068e-07
 10
86.317081691781
 20
25.933308668548786
 30
1.0000007932831068e-07
 10
86.46848883211399
 20
26.153458638947786
 30
1.0000007932831068e-07
 10
86.619055439685
 20
26.374183738861785
 30
1.0000007932831068e-07
 10
86.768743783554
 20
26.595504310824786
 30
1.0000007932831068e-07
 10
86.91757185547
 20
26.817402309164784
 30
1.0000007932831068e-07
 10
87.306331847561
 20
27.401964854368785
 30
1.0000007932831068e-07
 10
87.544829701733
 20
27.765582040006784
 30
1.0000007932831068e-07
 10
87.781004736331
 20
28.130718175055787
 30
1.0000007932831068e-07
 10
88.014837203166
 20
28.497361463847785
 30
1.0000007932831068e-07
 10
88.24630467014
 20
28.865501274084785
 30
1.0000007932831068e-07
 10
88.475381413355
 20
29.235128512400784
 30
1.0000007932831068e-07
 10
88.702037809229
 20
29.606235999921786
 30
1.0000007932831068e-07
 10
89.07591619100799
 20
30.227553934566785
 30
1.0000007932831068e-07
 10
89.224498625227
 20
30.476946415431787
 30
1.0000007932831068e-07
 10
89.37197677078001
 20
30.72699489279679
 30
1.0000007932831068e-07
 10
89.51833939640301
 20
30.977698274193784
 30
1.0000007932831068e-07
 10
89.66357407191501
 20
31.229055900941788
 30
1.0000007932831068e-07
 10
89.807666942065
 20
31.481067676771787
 30
1.0000007932831068e-07
 10
89.950602500386
 20
31.733734196459785
 30
1.0000007932831068e-07
 10
90.19004400359199
 20
32.161609434223784
 30
1.0000007932831068e-07
 10
90.287166763556
 20
32.336473602349784
 30
1.0000007932831068e-07
 10
90.38372702977901
 20
32.51164912180579
 30
1.0000007932831068e-07
 10
90.479714927966
 20
32.68713870054678
 30
1.0000007932831068e-07
 10
90.575127532478
 20
32.86294107827679
 30
1.0000007932831068e-07
 10
90.669962743509
 20
33.03905443669379
 30
1.0000007932831068e-07
 10
90.764212508873
 20
33.21548020524079
 30
1.0000007932831068e-07
 10
91.10065513087301
 20
33.85034612052679
 30
1.0000007932831068e-07
 10
91.339475695966
 20
34.31056644110478
 30
1.0000007932831068e-07
 10
91.574246758019
 20
34.77287556774379
 30
1.0000007932831068e-07
 10
91.80486926754
 20
35.23727107759679
 30
1.0000007932831068e-07
 10
92.031234953224
 20
35.70374977461179
 30
1.0000007932831068e-07
 10
92.253221157029
 20
36.17231020560879
 30
1.0000007932831068e-07
 10
92.470688513306
 20
36.64295344245478
 30
1.0000007932831068e-07
 10
92.69818635374
 20
37.148320630950785
 30
1.0000007932831068e-07
 10
92.712861111828
 20
37.18097348634879
 30
1.0000007932831068e-07
 10
92.727515906044
 20
37.21363521597878
 30
1.0000007932831068e-07
 10
92.74214983994099
 20
37.246306193762784
 30
1.0000007932831068e-07
 10
92.75676079254
 20
37.278987339396785
 30
1.0000007932831068e-07
 10
92.77134541833601
 20
37.31168011834879
 30
1.0000007932831068e-07
 10
92.785899147294
 20
37.344386541860786
 30
1.0000007932831068e-07
 10
92.81445449487299
 20
37.40875269985679
 30
1.0000007932831068e-07
 10
92.828466005591
 20
37.44040803702579
 30
1.0000007932831068e-07
 10
92.84245594932301
 20
37.47207281286579
 30
1.0000007932831068e-07
 10
92.856427856088
 20
37.503745428378785
 30
1.0000007932831068e-07
 10
92.870383553609
 20
37.53542505115479
 30
1.0000007932831068e-07
 10
92.884323167312
 20
37.56711161536978
 30
1.0000007932831068e-07
 10
92.89824512032601
 20
37.598805821787785
 30
1.0000007932831068e-07
 10
93.00191834825901
 20
37.83524794774779
 30
1.0000007932831068e-07
 10
93.090909042242
 20
38.040323385565785
 30
1.0000007932831068e-07
 10
93.179094410835
 20
38.24574193645378
 30
1.0000007932831068e-07
 10
93.26644673673499
 20
38.451510362268785
 30
1.0000007932831068e-07
 10
93.352934359998
 20
38.657635871922785
 30
1.0000007932831068e-07
 10
93.438520279096
 20
38.86412656768579
 30
1.0000007932831068e-07
 10
93.523159382985
 20
39.07099216732878
 30
1.0000007932831068e-07
 10
93.664173913953
 20
39.42043540692578
 30
1.0000007932831068e-07
 10
93.72107950128
 20
39.562804729345785
 30
1.0000007932831068e-07
 10
93.777493549208
 20
39.705359958716784
 30
1.0000007932831068e-07
 10
93.833395195825
 20
39.848105685245784
 30
1.0000007932831068e-07
 10
93.888757846528
 20
39.991047338009786
 30
1.0000007932831068e-07
 10
93.94355087220501
 20
40.13418480802679
 30
1.0000007932831068e-07
 10
93.997732312325
 20
40.27752198778178
 30
1.0000007932831068e-07
 10
94.069787480242
 20
40.47076160090678
 30
1.0000007932831068e-07
 10
94.088244421849
 20
40.520496155483784
 30
1.0000007932831068e-07
 10
94.10661954400899
 20
40.570252253314784
 30
1.0000007932831068e-07
 10
94.124910384604
 20
40.620029840317784
 30
1.0000007932831068e-07
 10
94.143114608496
 20
40.66982644477679
 30
1.0000007932831068e-07
 10
94.161229124901
 20
40.71963828681378
 30
1.0000007932831068e-07
 10
94.17925035539801
 20
40.769459504300784
 30
1.0000007932831068e-07
 10
94.203494554385
 20
40.836823735195786
 30
1.0000007932831068e-07
 10
94.209798722669
 20
40.85437153829378
 30
1.0000007932831068e-07
 10
94.216091290337
 20
40.87191773363179
 30
1.0000007932831068e-07
 10
94.222372395617
 20
40.88946130816679
 30
1.0000007932831068e-07
 10
94.228642116893
 20
40.90700077979279
 30
1.0000007932831068e-07
 10
94.234900564764
 20
40.92453402322978
 30
1.0000007932831068e-07
 10
94.241148171977
 20
40.94205771932179
 30
1.0000007932831068e-07
 10
94.251818980908
 20
40.97200831323578
 30
1.0000007932831068e-07
 10
94.256245262885
 20
40.984438175120786
 30
1.0000007932831068e-07
 10
94.260667159747
 20
40.99685717838979
 30
1.0000007932831068e-07
 10
94.26508551091
 20
41.00926656627079
 30
1.0000007932831068e-07
 10
94.269501790541
 20
41.02165961770378
 30
1.0000007932831068e-07
 10
94.27391645284399
 20
41.03402717255278
 30
1.0000007932831068e-07
 10
94.278329453989
 20
41.04635710112778
 30
1.0000007932831068e-07
 10
94.28274870999499
 20
41.05860809462079
 30
1.0000007932831068e-07
  0
SPLINE
  5
37
330
17
100
AcDbEntity
  8
0
100
AcDbSpline
 70
0
 71
8
 72
186
 73
177
 74
0
 40
0.0
 40
0.0
 40
0.0
 40
0.0
 40
0.0
 40
0.0
 40
0.0
 40
0.0
 40
0.0
 40
0.001585174852719
 40
0.001585174852719
 40
0.001585174852719
 40
0.001585174852719
 40
0.001585174852719
 40
0.001585174852719
 40
0.001585174852719
 40
0.003912786591337
 40
0.003912786591337
 40
0.003912786591337
 40
0.003912786591337
 40
0.003912786591337
 40
0.003912786591337
 40
0.003912786591337
 40
0.01018530297868
 40
0.01018530297868
 40
0.01018530297868
 40
0.01018530297868
 40
0.01018530297868
 40
0.01018530297868
 40
0.01018530297868
 40
0.02339670765995
 40
0.02339670765995
 40
0.02339670765995
 40
0.02339670765995
 40
0.02339670765995
 40
0.02339670765995
 40
0.02339670765995
 40
0.04206294554781
 40
0.04206294554781
 40
0.04206294554781
 40
0.04206294554781
 40
0.04206294554781
 40
0.04206294554781
 40
0.04206294554781
 40
0.05021069530305
 40
0.05021069530305
 40
0.05021069530305
 40
0.05021069530305
 40
0.05021069530305
 40
0.05021069530305
 40
0.05021069530305
 40
0.05445320460639
 40
0.05445320460639
 40
0.05445320460639
 40
0.05445320460639
 40
0.05445320460639
 40
0.05445320460639
 40
0.05445320460639
 40
0.05940651563095
 40
0.05940651563095
 40
0.05940651563095
 40
0.05940651563095
 40
0.05940651563095
 40
0.05940651563095
 40
0.05940651563095
 40
0.06636135700388
 40
0.06636135700388
 40
0.06636135700388
 40
0.06636135700388
 40
0.06636135700388
 40
0.06636135700388
 40
0.06636135700388
 40
0.07331617777364
 40
0.07331617777364
 40
0.07331617777364
 40
0.07331617777364
 40
0.07331617777364
 40
0.07331617777364
 40
0.07331617777364
 40
0.119598673408
 40
0.119598673408
 40
0.119598673408
 40
0.119598673408
 40
0.119598673408
 40
0.119598673408
 40
0.119598673408
 40
0.139858072929
 40
0.139858072929
 40
0.139858072929
 40
0.139858072929
 40
0.139858072929
 40
0.139858072929
 40
0.139858072929
 40
0.17893881142
 40
0.17893881142
 40
0.17893881142
 40
0.17893881142
 40
0.17893881142
 40
0.17893881142
 40
0.17893881142
 40
0.245498447764
 40
0.245498447764
 40
0.245498447764
 40
0.245498447764
 40
0.245498447764
 40
0.245498447764
 40
0.245498447764
 40
0.281379810835
 40
0.281379810835
 40
0.281379810835
 40
0.281379810835
 40
0.281379810835
 40
0.281379810835
 40
0.281379810835
 40
0.320284349918
 40
0.320284349918
 40
0.320284349918
 40
0.320284349918
 40
0.320284349918
 40
0.320284349918
 40
0.320284349918
 40
0.385492444464
 40
0.385492444464
 40
0.385492444464
 40
0.385492444464
 40
0.385492444464
 40
0.385492444464
 40
0.385492444464
 40
0.520487198338
 40
0.520487198338
 40
0.520487198338
 40
0.520487198338
 40
0.520487198338
 40
0.520487198338
 40
0.520487198338
 40
0.531461555246
 40
0.531461555246
 40
0.531461555246
 40
0.531461555246
 40
0.531461555246
 40
0.531461555246
 40
0.531461555246
 40
0.616098761739
 40
0.616098761739
 40
0.616098761739
 40
0.616098761739
 40
0.616098761739
 40
0.616098761739
 40
0.616098761739
 40
0.6775127062
 40
0.6775127062
 40
0.6775127062
 40
0.6775127062
 40
0.6775127062
 40
0.6775127062
 40
0.6775127062
 40
0.699704873844
 40
0.699704873844
 40
0.699704873844
 40
0.699704873844
 40
0.699704873844
 40
0.699704873844
 40
0.699704873844
 40
0.849542820056
 40
0.849542820056
 40
0.849542820056
 40
0.849542820056
 40
0.849542820056
 40
0.849542820056
 40
0.849542820056
 40
0.85943148885
 40
0.85943148885
 40
0.85943148885
 40
0.85943148885
 40
0.85943148885
 40
0.85943148885
 40
0.85943148885
 40
1.0
 40
1.0
 40
1.0
 40
1.0
 40
1.0
 40
1.0
 40
1.0
 40
1.0
 40
1.0
 10
1.3665119873500018
 20
41.054368389898784
 30
1.0000007932831068e-07
 10
1.3702565830400033
 20
41.043998375581786
 30
1.0000007932831068e-07
 10
1.37400017681
 20
41.033572544858785
 30
1.0000007932831068e-07
 10
1.377745985209998
 20
41.02311638274779
 30
1.0000007932831068e-07
 10
1.3814939843500014
 20
41.01263940066779
 30
1.0000007932831068e-07
 10
1.3852442857300034
 20
41.00214826391078
 30
1.0000007932831068e-07
 10
1.3889974984600002
 20
40.991647615003785
 30
1.0000007932831068e-07
 10
1.392754189439998
 20
40.98113774832078
 30
1.0000007932831068e-07
 10
1.4020386002099983
 20
40.95517191231178
 30
1.0000007932831068e-07
 10
1.4075696085999994
 20
40.939710591223786
 30
1.0000007932831068e-07
 10
1.4131093853800039
 20
40.92423937324479
 30
1.0000007932831068e-07
 10
1.4186581714600024
 20
40.908761378309784
 30
1.0000007932831068e-07
 10
1.4242159940800008
 20
40.89327862758679
 30
1.0000007932831068e-07
 10
1.4297828772100019
 20
40.877792536058784
 30
1.0000007932831068e-07
 10
1.435358910239998
 20
40.86230407122979
 30
1.0000007932831068e-07
 10
1.4559955093999974
 20
40.80506934223879
 30
1.0000007932831068e-07
 10
1.471112746560003
 20
40.763313841102786
 30
1.0000007932831068e-07
 10
1.4862959811799996
 20
40.721559939755785
 30
1.0000007932831068e-07
 10
1.5015428016900003
 20
40.67981306142779
 30
1.0000007932831068e-07
 10
1.5168510791000003
 20
40.638076732112786
 30
1.0000007932831068e-07
 10
1.5322191913399976
 20
40.59635326771078
 30
1.0000007932831068e-07
 10
1.5476455174799995
 20
40.55464305174078
 30
1.0000007932831068e-07
 10
1.5957409934500006
 20
40.425121676130786
 30
1.0000007932831068e-07
 10
1.628604487560004
 20
40.33736093569779
 30
1.0000007932831068e-07
 10
1.6617057429000042
 20
40.249669495151785
 30
1.0000007932831068e-07
 10
1.6950326679200032
 20
40.162048867415784
 30
1.0000007932831068e-07
 10
1.7285752612700023
 20
40.074499577304785
 30
1.0000007932831068e-07
 10
1.7623251709499996
 20
39.987021509180785
 30
1.0000007932831068e-07
 10
1.796275147670002
 20
39.89961339175778
 30
1.0000007932831068e-07
 10
1.8786607688300023
 20
39.688872173208786
 30
1.0000007932831068e-07
 10
1.9272889082999995
 20
39.565609058219785
 30
1.0000007932831068e-07
 10
1.9762854876699976
 20
39.44248160451379
 30
1.0000007932831068e-07
 10
2.0256355586300003
 20
39.319487334260785
 30
1.0000007932831068e-07
 10
2.0753264229299972
 20
39.196623912406785
 30
1.0000007932831068e-07
 10
2.1253470194600013
 20
39.07388911409079
 30
1.0000007932831068e-07
 10
2.1756875644500013
 20
38.95128076251778
 30
1.0000007932831068e-07
 10
2.248448819250001
 20
38.775332730523786
 30
1.0000007932831068e-07
 10
2.27061748973
 20
38.721892537127786
 30
1.0000007932831068e-07
 10
2.292844734559999
 20
38.66847589614778
 30
1.0000007932831068e-07
 10
2.315129862639999
 20
38.61508265212379
 30
1.0000007932831068e-07
 10
2.337472213349997
 20
38.561712655062784
 30
1.0000007932831068e-07
 10
2.359871156560004
 20
38.50836576043778
 30
1.0000007932831068e-07
 10
2.3823260926100005
 20
38.45504182918879
 30
1.0000007932831068e-07
 10
2.4165575303499978
 20
38.373987001156785
 30
1.0000007932831068e-07
 10
2.4283599373000015
 20
38.34608246896879
 30
1.0000007932831068e-07
 10
2.4402438263199997
 20
38.31802738447779
 30
1.0000007932831068e-07
 10
2.4522093505299978
 20
38.289822000999784
 30
1.0000007932831068e-07
 10
2.4642566630599987
 20
38.261466571852786
 30
1.0000007932831068e-07
 10
2.476385917030001
 20
38.232961350351786
 30
1.0000007932831068e-07
 10
2.488597265560003
 20
38.20430658981679
 30
1.0000007932831068e-07
 10
2.5152441610799983
 20
38.141872587877785
 30
1.0000007932831068e-07
 10
2.5296201011700035
 20
38.10825212763579
 30
1.0000007932831068e-07
 10
2.544016793659999
 20
38.07464035577379
 30
1.0000007932831068e-07
 10
2.558433308510004
 20
38.04103688480079
 30
1.0000007932831068e-07
 10
2.572869674019998
 20
38.007441746792786
 30
1.0000007932831068e-07
 10
2.587326876879999
 20
37.973855393401784
 30
1.0000007932831068e-07
 10
2.60180686212
 20
37.94027869584479
 30
1.0000007932831068e-07
 10
2.6366796452499983
 20
37.85958396953879
 30
1.0000007932831068e-07
 10
2.6572680015899977
 20
37.81209135011379
 30
1.0000007932831068e-07
 10
2.6780777613300017
 20
37.764236271629784
 30
1.0000007932831068e-07
 10
2.6991090836400033
 20
37.716019919080786
 30
1.0000007932831068e-07
 10
2.7203621276999996
 20
37.66744347745879
 30
1.0000007932831068e-07
 10
2.74183705267
 20
37.61850813175579
 30
1.0000007932831068e-07
 10
2.7635340177399996
 20
37.56921506696679
 30
1.0000007932831068e-07
 10
2.8073722814599975
 20
37.46991601628279
 30
1.0000007932831068e-07
 10
2.8295139353500005
 20
37.41990983275779
 30
1.0000007932831068e-07
 10
2.851877293070004
 20
37.36954800604579
 30
1.0000007932831068e-07
 10
2.8744634601999977
 20
37.31883234345278
 30
1.0000007932831068e-07
 10
2.8972728456700025
 20
37.26776415477978
 30
1.0000007932831068e-07
 10
2.9203046270099975
 20
37.21634400460979
 30
1.0000007932831068e-07
 10
2.9435583337900013
 20
37.16457243315179
 30
1.0000007932831068e-07
 10
3.1232855281499994
 20
36.765601568584785
 30
1.0000007932831068e-07
 10
3.2820413667400032
 20
36.419870087894786
 30
1.0000007932831068e-07
 10
3.4432476495000017
 20
36.075258706292786
 30
1.0000007932831068e-07
 10
3.606849031480003
 20
35.73176778591079
 30
1.0000007932831068e-07
 10
3.772793849780001
 20
35.38939755315279
 30
1.0000007932831068e-07
 10
3.94103479108
 20
35.048148571006784
 30
1.0000007932831068e-07
 10
4.111528614969998
 20
34.70802167881479
 30
1.0000007932831068e-07
 10
4.359834277110004
 20
34.220623864568786
 30
1.0000007932831068e-07
 10
4.4358575241099985
 20
34.072445512131786
 30
1.0000007932831068e-07
 10
4.512301296179999
 20
33.92448243825579
 30
1.0000007932831068e-07
 10
4.589162317030002
 20
33.77673475224579
 30
1.0000007932831068e-07
 10
4.666437412089998
 20
33.62920257665679
 30
1.0000007932831068e-07
 10
4.74412350859
 20
33.48188604729979
 30
1.0000007932831068e-07
 10
4.822217635489999
 20
33.33478531323878
 30
1.0000007932831068e-07
 10
5.052143432640001
 20
32.90455721603578
 30
1.0000007932831068e-07
 10
5.205078679750002
 20
32.622018224150786
 30
1.0000007932831068e-07
 10
5.359492412550004
 20
32.34027962720979
 30
1.0000007932831068e-07
 10
5.515398995970003
 20
32.05936098385578
 30
1.0000007932831068e-07
 10
5.672721228290001
 20
31.779231283219787
 30
1.0000007932831068e-07
 10
5.831473418249999
 20
31.499909821360788
 30
1.0000007932831068e-07
 10
5.991619656220003
 20
31.221387298396785
 30
1.0000007932831068e-07
 10
6.428249002820003
 20
30.470672309231787
 30
1.0000007932831068e-07
 10
6.707354931399998
 20
30.000003810117786
 30
1.0000007932831068e-07
 10
6.990378998570002
 20
29.531663200174783
 30
1.0000007932831068e-07
 10
7.277251404019999
 20
29.065660394632786
 30
1.0000007932831068e-07
 10
7.5679141123600004
 20
28.602010849879786
 30
1.0000007932831068e-07
 10
7.862317916530003
 20
28.140733780176785
 30
1.0000007932831068e-07
 10
8.160420674630004
 20
27.681851080691786
 30
1.0000007932831068e-07
 10
8.624864547630004
 20
26.979313572779784
 30
1.0000007932831068e-07
 10
8.788608064789997
 20
26.733944228769786
 30
1.0000007932831068e-07
 10
8.953402267900003
 20
26.489276526091786
 30
1.0000007932831068e-07
 10
9.119269978090003
 20
26.245334211182787
 30
1.0000007932831068e-07
 10
9.28616671655
 20
26.002093640054785
 30
1.0000007932831068e-07
 10
9.4540993018
 20
25.759568219712786
 30
1.0000007932831068e-07
 10
9.623053585729998
 20
25.517755031626784
 30
1.0000007932831068e-07
 10
9.977311764520003
 20
25.015245035020786
 30
1.0000007932831068e-07
 10
10.162793742810003
 20
24.754673517390785
 30
1.0000007932831068e-07
 10
10.349458429980004
 20
24.494944802129783
 30
1.0000007932831068e-07
 10
10.537297099409997
 20
24.236062106252785
 30
1.0000007932831068e-07
 10
10.726302138790004
 20
23.978029377290785
 30
1.0000007932831068e-07
 10
10.916467050210002
 20
23.720851293291783
 30
1.0000007932831068e-07
 10
11.10778645005
 20
23.464533262818787
 30
1.0000007932831068e-07
 10
11.62285537012
 20
22.780917308664787
 30
1.0000007932831068e-07
 10
11.948685404229998
 20
22.355187154418786
 30
1.0000007932831068e-07
 10
12.277724683290003
 20
21.931918194809786
 30
1.0000007932831068e-07
 10
12.609960400300004
 20
21.511145750126786
 30
1.0000007932831068e-07
 10
12.945382498409998
 20
21.092907748925786
 30
1.0000007932831068e-07
 10
13.28398652261
 20
20.677247406919786
 30
1.0000007932831068e-07
 10
13.625775633300002
 20
20.264215171333785
 30
1.0000007932831068e-07
 10
14.68492762903
 20
19.004339891238786
 30
1.0000007932831068e-07
 10
15.41272963083
 20
18.166310296906786
 30
1.0000007932831068e-07
 10
16.15392343356
 20
17.339954931502785
 30
1.0000007932831068e-07
 10
16.90840367762
 20
16.525614411900786
 30
1.0000007932831068e-07
 10
17.67616758336
 20
15.723762986403784
 30
1.0000007932831068e-07
 10
18.45730321482
 20
14.934998176475784
 30
1.0000007932831068e-07
 10
19.25199280035
 20
14.160044369034786
 30
1.0000007932831068e-07
 10
20.12626098279
 20
13.337964117986786
 30
1.0000007932831068e-07
 10
20.1920823805
 20
13.276255213871785
 30
1.0000007932831068e-07
 10
20.25799429382
 20
13.214642898974787
 30
1.0000007932831068e-07
 10
20.3239961564
 20
13.153126901078785
 30
1.0000007932831068e-07
 10
20.390087844940002
 20
13.091707423711789
 30
1.0000007932831068e-07
 10
20.45626967919
 20
13.030385146147786
 30
1.0000007932831068e-07
 10
20.52254242197
 20
12.969161223402786
 30
1.0000007932831068e-07
 10
21.10073099397
 20
12.436632962956786
 30
1.0000007932831068e-07
 10
21.61800764649
 20
11.971155748912786
 30
1.0000007932831068e-07
 10
22.14069761812
 20
11.511714129037792
 30
1.0000007932831068e-07
 10
22.66877512104
 20
11.058443364125786
 30
1.0000007932831068e-07
 10
23.20222811907
 20
10.611505454843787
 30
1.0000007932831068e-07
 10
23.7410591927
 20
10.171090202995785
 30
1.0000007932831068e-07
 10
24.28528734812
 20
9.737417370027785
 30
1.0000007932831068e-07
 10
25.23379426107
 20
9.001136798174791
 30
1.0000007932831068e-07
 10
25.635495924140002
 20
8.695218456781788
 30
1.0000007932831068e-07
 10
26.040057280870002
 20
8.393065510426787
 30
1.0000007932831068e-07
 10
26.44748261655
 20
8.094769021774788
 30
1.0000007932831068e-07
 10
26.85777966063
 20
7.8004314747267856
 30
1.0000007932831068e-07
 10
27.27096026696
 20
7.510167734832791
 30
1.0000007932831068e-07
 10
27.687041093970002
 20
7.224106009704791
 30
1.0000007932831068e-07
 10
28.25745271736
 20
6.840589203620787
 30
1.0000007932831068e-07
 10
28.40924257328
 20
6.739356992237788
 30
1.0000007932831068e-07
 10
28.5614148447
 20
6.638698984075788
 30
1.0000007932831068e-07
 10
28.7139705745
 20
6.538622266845792
 30
1.0000007932831068e-07
 10
28.86691085647
 20
6.439134207173787
 30
1.0000007932831068e-07
 10
29.02023683531
 20
6.340242450598787
 30
1.0000007932831068e-07
 10
29.17394970662
 20
6.241954921569786
 30
1.0000007932831068e-07
 10
30.36851595046
 20
5.4847932724977895
 30
1.0000007932831068e-07
 10
31.42634226924
 20
4.853399146280786
 30
1.0000007932831068e-07
 10
32.50164700188
 20
4.2513862094277854
 30
1.0000007932831068e-07
 10
33.59441313906
 20
3.6806628597067856
 30
1.0000007932831068e-07
 10
34.70449007057
 20
3.143758627995787
 30
1.0000007932831068e-07
 10
35.83167705029
 20
2.6440194836057884
 30
1.0000007932831068e-07
 10
36.975765867250004
 20
2.185696790863787
 30
1.0000007932831068e-07
 10
38.213643804893
 20
1.7478440827437893
 30
1.0000007932831068e-07
 10
38.290356399078
 20
1.7209474130897888
 30
1.0000007932831068e-07
 10
38.367129516412
 20
1.6942238239347915
 30
1.0000007932831068e-07
 10
38.443963160233
 20
1.66767618142579
 30
1.0000007932831068e-07
 10
38.520865120204
 20
1.6413281197277882
 30
1.0000007932831068e-07
 10
38.597843661336
 20
1.615204248163785
 30
1.0000007932831068e-07
 10
38.674900213019
 20
1.5893103583577854
 30
1.0000007932831068e-07
 10
39.84831754116
 20
1.1983318399107858
 30
1.0000007932831068e-07
 10
40.958340490116
 20
0.8758399824277916
 30
1.0000007932831068e-07
 10
42.08128467497
 20
0.5983897240717866
 30
1.0000007932831068e-07
 10
43.215769317863
 20
0.36872304300379
 30
1.0000007932831068e-07
 10
44.359823824559
 20
0.18990441780579204
 30
1.0000007932831068e-07
 10
45.510900659504
 20
0.06567110433879009
 30
1.0000007932831068e-07
 10
46.665847411682
 20
0.00016527181778513977
 30
1.0000007932831068e-07
 10
47.8211524891932
 20
3.002187867195971e-07
 30
1.0000007932831068e-07
  0
SPLINE
  5
38
330
17
100
AcDbEntity
  8
0
100
AcDbSpline
 70
0
 71
5
 72
16
 73
10
 74
0
 40
0.0
 40
0.0
 40
0.0
 40
0.0
 40
0.0
 40
0.0
 40
0.489908065189
 40
0.489908065189
 40
0.489908065189
 40
0.489908065189
 40
1.0
 40
1.0
 40
1.0
 40
1.0
 40
1.0
 40
1.0
 10
0.004736737949997405
 20
45.47984926449779
 30
1.0000007932831068e-07
 10
0.11532514395000248
 20
45.04061905696278
 30
1.0000007932831068e-07
 10
0.23203998662000203
 20
44.602655223615784
 30
1.0000007932831068e-07
 10
0.35457622759000174
 20
44.16602114165779
 30
1.0000007932831068e-07
 10
0.4826783377899986
 20
43.730770580399785
 30
1.0000007932831068e-07
 10
0.7550724462500042
 20
42.84524646377579
 30
1.0000007932831068e-07
 10
0.8998135971100041
 20
42.395094164752784
 30
1.0000007932831068e-07
 10
1.05010174489
 20
41.94653611682578
 30
1.0000007932831068e-07
 10
1.2057279232599996
 20
41.499615498564786
 30
1.0000007932831068e-07
 10
1.3665119873500018
 20
41.054368389898784
 30
1.0000007932831068e-07
  0
SPLINE
  5
39
330
17
100
AcDbEntity
  8
0
100
AcDbSpline
 70
0
 71
4
 72
10
 73
5
 74
0
 40
0.0
 40
0.0
 40
0.0
 40
0.0
 40
0.0
 40
1.0
 40
1.0
 40
1.0
 40
1.0
 40
1.0
 10
1.0000000116860974e-07
 20
46.04358454727659
 30
1.0000007932831068e-07
 10
0.0011456388300032927
 20
45.902664356198784
 30
1.0000007932831068e-07
 10
0.0023169721100018137
 20
45.76173492329779
 30
1.0000007932831068e-07
 10
0.003514028769998845
 20
45.62079648174379
 30
1.0000007932831068e-07
 10
0.004736737949997405
 20
45.47984926449479
 30
1.0000007932831068e-07
  0
LINE
  5
3A
330
17
100
AcDbEntity
  8
0
100
AcDbLine
 10
1.0000000116860974e-07
 20
46.04358454727986
 30
1.0000007932831068e-07
 11
2.8211544930300008
 21
46.043584547279444
 31
1.0000007932831068e-07
  0
LINE
  5
3B
330
17
100
AcDbEntity
  8
0
100
AcDbLine
 10
2.8211544930300008
 20
46.043584547279444
 30
1.0000007932831068e-07
 11
8.82115449303
 21
46.04358454727947
 31
1.0000007932831068e-07
  0
LINE
  5
3C
330
17
100
AcDbEntity
  8
0
100
AcDbLine
 10
8.82115449303
 20
46.04358454727947
 30
1.0000007932831068e-07
 11
9.998951638489999
 21
46.04358454728143
 31
1.0000007932831068e-07
  0
LINE
  5
3D
330
17
100
AcDbEntity
  8
0
100
AcDbLine
 10
9.998951638489999
 20
46.04358454728143
 30
1.0000007932831068e-07
 11
15.821176107
 21
46.04358454727779
 31
1.0000007932831068e-07
  0
LINE
  5
3E
330
17
100
AcDbEntity
  8
0
100
AcDbLine
 10
15.821176107
 20
46.04358454727779
 30
1.0000007932831068e-07
 11
15.821176107
 21
32.354642127327786
 31
1.0000007932831068e-07
  0
SPLINE
  5
3F
330
17
100
AcDbEntity
  8
0
100
AcDbSpline
 70
0
 71
3
 72
59
 73
55
 74
0
 40
0.0
 40
0.0
 40
0.0
 40
0.0
 40
0.22237998922490923
 40
0.22237998922490923
 40
0.22237998922490923
 40
0.287498486697234
 40
0.287498486697234
 40
0.287498486697234
 40
0.32403107432219297
 40
0.32403107432219297
 40
0.32403107432219297
 40
0.34827145563581613
 40
0.34827145563581613
 40
0.34827145563581613
 40
0.35261698416955883
 40
0.35261698416955883
 40
0.35261698416955883
 40
0.490831681029472
 40
0.490831681029472
 40
0.490831681029472
 40
0.6192109763062159
 40
0.6192109763062159
 40
0.6192109763062159
 40
0.7127867230450787
 40
0.7127867230450787
 40
0.7127867230450787
 40
0.7396563144216607
 40
0.7396563144216607
 40
0.7396563144216607
 40
0.766035362945195
 40
0.766035362945195
 40
0.766035362945195
 40
0.7761099442190864
 40
0.7761099442190864
 40
0.7761099442190864
 40
0.778804955522731
 40
0.778804955522731
 40
0.778804955522731
 40
0.814690006300038
 40
0.814690006300038
 40
0.814690006300038
 40
0.8510499790349993
 40
0.8510499790349993
 40
0.8510499790349993
 40
0.8882874842761797
 40
0.8882874842761797
 40
0.8882874842761797
 40
0.9258289788057277
 40
0.9258289788057277
 40
0.9258289788057277
 40
0.9640587268921857
 40
0.9640587268921857
 40
0.9640587268921857
 40
1.0
 40
1.0
 40
1.0
 40
1.0
 10
15.821176107
 20
32.354642127327786
 30
1.0000007932831068e-07
 10
17.72974539179
 20
29.433216922272784
 30
1.0000007932831068e-07
 10
19.92236817457
 20
26.547956170075786
 30
1.0000007932831068e-07
 10
22.29746645619
 20
23.887436064642785
 30
1.0000007932831068e-07
 10
22.99295543425
 20
23.108368342028786
 30
1.0000007932831068e-07
 10
23.703634080260002
 20
22.347890905213784
 30
1.0000007932831068e-07
 10
24.42625225623
 20
21.610053303010783
 30
1.0000007932831068e-07
 10
24.83165337661
 20
21.196113824953784
 30
1.0000007932831068e-07
 10
25.240812304080002
 20
20.789299939024787
 30
1.0000007932831068e-07
 10
25.653154938060002
 20
20.390325993862785
 30
1.0000007932831068e-07
 10
25.92675566906
 20
20.125595757280784
 30
1.0000007932831068e-07
 10
26.201758084530002
 20
19.864317191949784
 30
1.0000007932831068e-07
 10
26.4779944586
 20
19.606698830308783
 30
1.0000007932831068e-07
 10
26.52751484485
 20
19.560516060870786
 30
1.0000007932831068e-07
 10
26.57707488639
 20
19.514450919813786
 30
1.0000007932831068e-07
 10
26.62667361849
 20
19.468504606615785
 30
1.0000007932831068e-07
 10
28.204021086770002
 20
18.007311996895783
 30
1.0000007932831068e-07
 10
29.82986022255
 20
16.663947056283785
 30
1.0000007932831068e-07
 10
31.46222378445
 20
15.463338363873785
 30
1.0000007932831068e-07
 10
32.97842783853
 20
14.348165366089784
 30
1.0000007932831068e-07
 10
34.5002583998
 20
13.356155176534791
 30
1.0000007932831068e-07
 10
35.99406938728
 20
12.50724749896279
 30
1.0000007932831068e-07
 10
37.08290912843
 20
11.888478174284792
 30
1.0000007932831068e-07
 10
38.156861768581
 20
11.345737978545792
 30
1.0000007932831068e-07
 10
39.202901700951
 20
10.886731433440787
 30
1.0000007932831068e-07
 10
39.503264418065
 20
10.754931060629787
 30
1.0000007932831068e-07
 10
39.80120162232
 20
10.629839529399788
 30
1.0000007932831068e-07
 10
40.096609411199
 20
10.51139724446579
 30
1.0000007932831068e-07
 10
40.386624108029004
 20
10.395117292988786
 30
1.0000007932831068e-07
 10
40.674201238049
 20
10.285246111147785
 30
1.0000007932831068e-07
 10
40.959220456906
 20
10.181772379794786
 30
1.0000007932831068e-07
 10
41.06807386314
 20
10.142254103943792
 30
1.0000007932831068e-07
 10
41.176553914913
 20
10.103669426813788
 30
1.0000007932831068e-07
 10
41.284652880451
 20
10.06601946177679
 30
1.0000007932831068e-07
 10
41.313752441457
 20
10.055884328207789
 30
1.0000007932831068e-07
 10
41.342817473247
 20
10.04581781615579
 30
1.0000007932831068e-07
 10
41.37184583492
 20
10.035820458278792
 30
1.0000007932831068e-07
 10
41.758368975349
 20
9.902702020322792
 30
1.0000007932831068e-07
 10
42.138519856919004
 20
9.781795922139786
 30
1.0000007932831068e-07
 10
42.512439977427
 20
9.672573042811791
 30
1.0000007932831068e-07
 10
42.891308756828
 20
9.561904649473789
 30
1.0000007932831068e-07
 10
43.263780848363
 20
9.463230907750791
 30
1.0000007932831068e-07
 10
43.629983015718
 20
9.376051205679786
 30
1.0000007932831068e-07
 10
44.00502331692
 20
9.28676745850779
 30
1.0000007932831068e-07
 10
44.373487538677
 20
9.209539323231787
 30
1.0000007932831068e-07
 10
44.735488762443
 20
9.143879446200792
 30
1.0000007932831068e-07
 10
45.100445192087
 20
9.077683553151786
 30
1.0000007932831068e-07
 10
45.458832761861004
 20
9.023245775277786
 30
1.0000007932831068e-07
 10
45.810742488335
 20
8.980114999684787
 30
1.0000007932831068e-07
 10
46.16910382586
 20
8.93619350145179
 30
1.0000007932831068e-07
 10
46.520747772938
 20
8.903997538568788
 30
1.0000007932831068e-07
 10
46.865742889324004
 20
8.883097977349792
 30
1.0000007932831068e-07
 10
47.190086216694
 20
8.863449486967788
 30
1.0000007932831068e-07
 10
47.508552712898
 20
8.853786052123787
 30
1.0000007932831068e-07
 10
47.82117610699523
 20
8.853786052122786
 30
1.0000007932831068e-07
  0
SPLINE
  5
40
330
17
100
AcDbEntity
  8
0
100
AcDbSpline
 70
0
 71
3
 72
56
 73
52
 74
0
 40
0.0
 40
0.0
 40
0.0
 40
0.0
 40
0.07021285252637478
 40
0.07021285252637478
 40
0.07021285252637478
 40
0.13901098141058704
 40
0.13901098141058704
 40
0.13901098141058704
 40
0.18145051753800912
 40
0.18145051753800912
 40
0.18145051753800912
 40
0.20267028560187555
 40
0.20267028560187555
 40
0.20267028560187555
 40
0.21328016963380864
 40
0.21328016963380864
 40
0.21328016963380864
 40
0.21858511164961994
 40
0.21858511164961994
 40
0.21858511164961994
 40
0.22223117685811875
 40
0.22223117685811875
 40
0.22223117685811875
 40
0.22389005366543122
 40
0.22389005366543122
 40
0.22389005366543122
 40
0.24443973664969357
 40
0.24443973664969357
 40
0.24443973664969357
 40
0.26582650680242276
 40
0.26582650680242276
 40
0.26582650680242276
 40
0.28721327695515214
 40
0.28721327695515214
 40
0.28721327695515214
 40
0.5354547398403542
 40
0.5354547398403542
 40
0.5354547398403542
 40
0.6473830158307803
 40
0.6473830158307803
 40
0.6473830158307803
 40
0.669447694236335
 40
0.669447694236335
 40
0.669447694236335
 40
0.7593293956810389
 40
0.7593293956810389
 40
0.7593293956810389
 40
0.7776200107750223
 40
0.7776200107750223
 40
0.7776200107750223
 40
1.0
 40
1.0
 40
1.0
 40
1.0
 10
47.82117610699523
 20
8.853786052122786
 30
1.0000007932831068e-07
 10
48.431899611422004
 20
8.85378605212179
 30
1.0000007932831068e-07
 10
49.0661406193
 20
8.890678692307787
 30
1.0000007932831068e-07
 10
49.723193832565
 20
8.967160855067789
 30
1.0000007932831068e-07
 10
50.367008035004
 20
9.04210197341979
 30
1.0000007932831068e-07
 10
51.032724234164
 20
9.155053609068787
 30
1.0000007932831068e-07
 10
51.719656581274
 20
9.308508591015787
 30
1.0000007932831068e-07
 10
52.143404881337
 20
9.403170442375789
 30
1.0000007932831068e-07
 10
52.575226117452004
 20
9.51324411139479
 30
1.0000007932831068e-07
 10
53.014955357809
 20
9.63930531360279
 30
1.0000007932831068e-07
 10
53.234819977988
 20
9.702335914706786
 30
1.0000007932831068e-07
 10
53.456661553529
 20
9.769363281085788
 30
1.0000007932831068e-07
 10
53.68045919954
 20
9.840458644226786
 30
1.0000007932831068e-07
 10
53.792358022546
 20
9.876006325796787
 30
1.0000007932831068e-07
 10
53.904745860419
 20
9.912570998720788
 30
1.0000007932831068e-07
 10
54.017620086234004
 20
9.950161519142789
 30
1.0000007932831068e-07
 10
54.074057199142004
 20
9.968956779353789
 30
1.0000007932831068e-07
 10
54.130615908866
 20
9.988008500935791
 30
1.0000007932831068e-07
 10
54.187295886037
 20
10.007317787857787
 30
1.0000007932831068e-07
 10
54.226251805283
 20
10.020588982722785
 30
1.0000007932831068e-07
 10
54.265265008314
 20
10.033981845163787
 30
1.0000007932831068e-07
 10
54.304335388013
 20
10.047496733031785
 30
1.0000007932831068e-07
 10
54.322111522842
 20
10.05364569986579
 30
1.0000007932831068e-07
 10
54.339899070118
 20
10.059819778993791
 30
1.0000007932831068e-07
 10
54.357699333544
 20
10.066019461777792
 30
1.0000007932831068e-07
 10
54.576821396288
 20
10.142337842438792
 30
1.0000007932831068e-07
 10
54.79839868521
 20
10.22281005816479
 30
1.0000007932831068e-07
 10
55.021965964221
 20
10.30734532954179
 30
1.0000007932831068e-07
 10
55.254640210996
 20
10.395324128052792
 30
1.0000007932831068e-07
 10
55.489469688749
 20
10.48770407285879
 30
1.0000007932831068e-07
 10
55.725904161683005
 20
10.58432938315579
 30
1.0000007932831068e-07
 10
55.962338634616
 20
10.680954693453792
 30
1.0000007932831068e-07
 10
56.200377714981
 20
10.781825324533791
 30
1.0000007932831068e-07
 10
56.439450513049
 20
10.886731433444787
 30
1.0000007932831068e-07
 10
59.21442685144
 20
12.104402253093788
 30
1.0000007932831068e-07
 10
62.185594969537
 20
13.911232821160787
 30
1.0000007932831068e-07
 10
65.110250052661
 20
16.163489504001785
 30
1.0000007932831068e-07
 10
66.428932264396
 20
17.178997568888786
 30
1.0000007932831068e-07
 10
67.738158381101
 20
18.285060163589787
 30
1.0000007932831068e-07
 10
69.015678595519
 20
19.468504606627786
 30
1.0000007932831068e-07
 10
69.26755088482
 20
19.701829181663786
 30
1.0000007932831068e-07
 10
69.518414677843
 20
19.938208131940787
 30
1.0000007932831068e-07
 10
69.768146402724
 20
20.177486060850786
 30
1.0000007932831068e-07
 10
70.785442550187
 20
21.152198085795785
 30
1.0000007932831068e-07
 10
71.783955130492
 20
22.175011491058786
 30
1.0000007932831068e-07
 10
72.755320640533
 20
23.235457304708785
 30
1.0000007932831068e-07
 10
72.95299015918
 20
23.451254356763783
 30
1.0000007932831068e-07
 10
73.149535408922
 20
23.668609949175785
 30
1.0000007932831068e-07
 10
73.34488575780401
 20
23.887436064636784
 30
1.0000007932831068e-07
 10
75.719984039418
 20
26.547956170071785
 30
1.0000007932831068e-07
 10
77.912606822201
 20
29.433216922269786
 30
1.0000007932831068e-07
 10
79.821176106995
 20
32.354642127327786
 30
1.0000007932831068e-07
  0
LINE
  5
41
330
17
100
AcDbEntity
  8
0
100
AcDbLine
 10
79.821176106995
 20
32.35464212732879
 30
1.0000007932831068e-07
 11
79.821176106995
 21
46.04358454727779
 31
1.0000007932831068e-07
  0
ENDSEC
  0
SECTION
  2
OBJECTS
  0
DICTIONARY
  5
A
330
0
100
AcDbDictionary
281
1
  3
ACAD_COLOR
350
B
  3
ACAD_GROUP
350
C
  3
ACAD_LAYOUT
350
D
  3
ACAD_MATERIAL
350
E
  3
ACAD_MLEADERSTYLE
350
F
  3
ACAD_MLINESTYLE
350
10
  3
ACAD_PLOTSETTINGS
350
11
  3
ACAD_PLOTSTYLENAME
350
12
  3
ACAD_SCALELIST
350
14
  3
ACAD_TABLESTYLE
350
15
  3
ACAD_VISUALSTYLE
350
16
  3
EZDXF_META
350
2D
  0
DICTIONARY
  5
B
330
A
100
AcDbDictionary
281
1
  0
DICTIONARY
  5
C
330
A
100
AcDbDictionary
281
1
  0
DICTIONARY
  5
D
330
A
100
AcDbDictionary
281
1
  3
Model
350
1A
  3
Layout1
350
1E
  0
DICTIONARY
  5
E
330
A
100
AcDbDictionary
281
1
  3
ByBlock
350
1F
  3
ByLayer
350
20
  3
Global
350
21
  0
DICTIONARY
  5
F
330
A
100
AcDbDictionary
281
1
  3
Standard
350
2C
  0
DICTIONARY
  5
10
330
A
100
AcDbDictionary
281
1
  3
Standard
350
22
  0
DICTIONARY
  5
11
330
A
100
AcDbDictionary
281
1
  0
ACDBDICTIONARYWDFLT
  5
12
330
A
100
AcDbDictionary
281
1
  3
Normal
350
13
100
AcDbDictionaryWithDefault
340
13
  0
ACDBPLACEHOLDER
  5
13
330
12
  0
DICTIONARY
  5
14
330
A
100
AcDbDictionary
281
1
  0
DICTIONARY
  5
15
330
A
100
AcDbDictionary
281
1
  0
DICTIONARY
  5
16
330
A
100
AcDbDictionary
281
1
  0
LAYOUT
  5
1A
330
D
100
AcDbPlotSettings
  1

  4
A3
  6

 40
7.5
 41
20.0
 42
7.5
 43
20.0
 44
420.0
 45
297.0
 46
0.0
 47
0.0
 48
0.0
 49
0.0
140
0.0
141
0.0
142
1.0
143
1.0
 70
1024
 72
1
 73
0
 74
5
  7

 75
16
 76
0
 77
2
 78
300
147
1.0
148
0.0
149
0.0
100
AcDbLayout
  1
Model
 70
1
 71
0
 10
0.0
 20
0.0
 11
420.0
 21
297.0
 12
0.0
 22
0.0
 32
0.0
 14
1e+20
 24
1e+20
 34
1e+20
 15
-1e+20
 25
-1e+20
 35
-1e+20
146
0.0
 13
0.0
 23
0.0
 33
0.0
 16
1.0
 26
0.0
 36
0.0
 17
0.0
 27
1.0
 37
0.0
 76
1
330
17
  0
LAYOUT
  5
1E
330
D
100
AcDbPlotSettings
  1

  4
A3
  6

 40
7.5
 41
20.0
 42
7.5
 43
20.0
 44
420.0
 45
297.0
 46
0.0
 47
0.0
 48
0.0
 49
0.0
140
0.0
141
0.0
142
1.0
143
1.0
 70
0
 72
1
 73
0
 74
5
  7

 75
16
 76
0
 77
2
 78
300
147
1.0
148
0.0
149
0.0
100
AcDbLayout
  1
Layout1
 70
1
 71
1
 10
0.0
 20
0.0
 11
420.0
 21
297.0
 12
0.0
 22
0.0
 32
0.0
 14
1e+20
 24
1e+20
 34
1e+20
 15
-1e+20
 25
-1e+20
 35
-1e+20
146
0.0
 13
0.0
 23
0.0
 33
0.0
 16
1.0
 26
0.0
 36
0.0
 17
0.0
 27
1.0
 37
0.0
 76
1
330
1B
  0
MATERIAL
  5
1F
102
{ACAD_REACTORS
330
E
102
}
330
E
100
AcDbMaterial
  1
ByBlock
  2

 70
0
 40
1.0
 71
1
 41
1.0
 91
-1023410177
 42
1.0
 72
1
  3

 73
1
 74
1
 75
1
 44
0.5
 73
0
 45
1.0
 46
1.0
 77
1
  4

 78
1
 79
1
170
1
 48
1.0
171
1
  6

172
1
173
1
174
1
140
1.0
141
1.0
175
1
  7

176
1
177
1
178
1
143
1.0
179
1
  8

270
1
271
1
272
1
145
1.0
146
1.0
273
1
  9

274
1
275
1
276
1
 42
1.0
 72
1
  3

 73
1
 74
1
 75
1
 94
63
  0
MATERIAL
  5
20
102
{ACAD_REACTORS
330
E
102
}
330
E
100
AcDbMaterial
  1
ByLayer
  2

 70
0
 40
1.0
 71
1
 41
1.0
 91
-1023410177
 42
1.0
 72
1
  3

 73
1
 74
1
 75
1
 44
0.5
 73
0
 45
1.0
 46
1.0
 77
1
  4

 78
1
 79
1
170
1
 48
1.0
171
1
  6

172
1
173
1
174
1
140
1.0
141
1.0
175
1
  7

176
1
177
1
178
1
143
1.0
179
1
  8

270
1
271
1
272
1
145
1.0
146
1.0
273
1
  9

274
1
275
1
276
1
 42
1.0
 72
1
  3

 73
1
 74
1
 75
1
 94
63
  0
MATERIAL
  5
21
102
{ACAD_REACTORS
330
E
102
}
330
E
100
AcDbMaterial
  1
Global
  2

 70
0
 40
1.0
 71
1
 41
1.0
 91
-1023410177
 42
1.0
 72
1
  3

 73
1
 74
1
 75
1
 44
0.5
 73
0
 45
1.0
 46
1.0
 77
1
  4

 78
1
 79
1
170
1
 48
1.0
171
1
  6

172
1
173
1
174
1
140
1.0
141
1.0
175
1
  7

176
1
177
1
178
1
143
1.0
179
1
  8

270
1
271
1
272
1
145
1.0
146
1.0
273
1
  9

274
1
275
1
276
1
 42
1.0
 72
1
  3

 73
1
 74
1
 75
1
 94
63
  0
MLINESTYLE
  5
22
102
{ACAD_REACTORS
330
10
102
}
330
10
100
AcDbMlineStyle
  2
Standard
 70
0
  3

 62
256
 51
90.0
 52
90.0
 71
2
 49
0.5
 62
256
  6
BYLAYER
 49
-0.5
 62
256
  6
BYLAYER
  0
MLEADERSTYLE
  5
2C
102
{ACAD_REACTORS
330
F
102
}
330
F
100
AcDbMLeaderStyle
179
2
170
2
171
1
172
0
 90
2
 40
0.0
 41
0.0
173
1
 91
-1056964608
 92
-2
290
1
 42
2.0
291
1
 43
8.0
  3
Standard
 44
4.0
300

342
29
174
1
175
1
176
0
178
1
 93
-1056964608
 45
4.0
292
0
297
0
 46
4.0
 94
-1056964608
 47
1.0
 49
1.0
140
1.0
294
1
141
0.0
177
0
142
1.0
295
0
296
0
143
3.75
271
0
272
9
273
9
  0
DICTIONARY
  5
2D
330
A
100
AcDbDictionary
280
1
281
1
  3
CREATED_BY_EZDXF
350
2E
  3
WRITTEN_BY_EZDXF
350
45
  0
DICTIONARYVAR
  5
2E
330
2D
100
DictionaryVariables
280
0
  1
1.4.4 @ 2026-09-23T14:13:44.175640+00:00
  0
DICTIONARYVAR
  5
45
330
2D
100
DictionaryVariables
280
0
  1
1.4.4 @ 2026-09-23T14:13:44.211854+00:00
  0
ENDSEC
  0
EOF
