  0
SECTION
  2
HEADER
  9
$ACADVER
  1
AC1027
  9
$ACADMAINTVER
 70
105
  9
$DWGCODEPAGE
  3
ANSI_1252
  9
$LASTSAVEDBY
  1
ezdxf
  9
$REQUIREDVERSIONS
160
0
  9
$INSBASE
 10
0.0
 20
0.0
 30
0.0
  9
$EXTMIN
 10
1e+20
 20
1e+20
 30
1e+20
  9
$EXTMAX
 10
-1e+20
 20
-1e+20
 30
-1e+20
  9
$LIMMIN
 10
0.0
 20
0.0
  9
$LIMMAX
 10
420.0
 20
297.0
  9
$ORTHOMODE
 70
0
  9
$REGENMODE
 70
1
  9
$FILLMODE
 70
1
  9
$QTEXTMODE
 70
0
  9
$MIRRTEXT
 70
1
  9
$LTSCALE
 40
1.0
  9
$ATTMODE
 70
1
  9
$TEXTSIZE
 40
2.5
  9
$TRACEWID
 40
1.0
  9
$TEXTSTYLE
  7
Standard
  9
$CLAYER
  8
0
  9
$CELTYPE
  6
ByLayer
  9
$CECOLOR
 62
256
  9
$CELTSCALE
 40
1.0
  9
$DISPSILH
 70
0
  9
$DIMSCALE
 40
1.0
  9
$DIMASZ
 40
2.5
  9
$DIMEXO
 40
0.625
  9
$DIMDLI
 40
3.75
  9
$DIMRND
 40
0.0
  9
$DIMDLE
 40
0.0
  9
$DIMEXE
 40
1.25
  9
$DIMTP
 40
0.0
  9
$DIMTM
 40
0.0
  9
$DIMTXT
 40
2.5
  9
$DIMCEN
 40
2.5
  9
$DIMTSZ
 40
0.0
  9
$DIMTOL
 70
0
  9
$DIMLIM
 70
0
  9
$DIMTIH
 70
0
  9
$DIMTOH
 70
0
  9
$DIMSE1
 70
0
  9
$DIMSE2
 70
0
  9
$DIMTAD
 70
1
  9
$DIMZIN
 70
8
  9
$DIMBLK
  1

  9
$DIMASO
 70
1
  9
$DIMSHO
 70
1
  9
$DIMPOST
  1

  9
$DIMAPOST
  1

  9
$DIMALT
 70
0
  9
$DIMALTD
 70
3
  9
$DIMALTF
 40
0.03937007874
  9
$DIMLFAC
 40
1.0
  9
$DIMTOFL
 70
1
  9
$DIMTVP
 40
0.0
  9
$DIMTIX
 70
0
  9
$DIMSOXD
 70
0
  9
$DIMSAH
 70
0
  9
$DIMBLK1
  1

  9
$DIMBLK2
  1

  9
$DIMSTYLE
  2
ISO-25
  9
$DIMCLRD
 70
0
  9
$DIMCLRE
 70
0
  9
$DIMCLRT
 70
0
  9
$DIMTFAC
 40
1.0
  9
$DIMGAP
 40
0.625
  9
$DIMJUST
 70
0
  9
$DIMSD1
 70
0
  9
$DIMSD2
 70
0
  9
$DIMTOLJ
 70
0
  9
$DIMTZIN
 70
8
  9
$DIMALTZ
 70
0
  9
$DIMALTTZ
 70
0
  9
$DIMUPT
 70
0
  9
$DIMDEC
 70
2
  9
$DIMTDEC
 70
2
  9
$DIMALTU
 70
2
  9
$DIMALTTD
 70
3
  9
$DIMTXSTY
  7
Standard
  9
$DIMAUNIT
 70
0
  9
$DIMADEC
 70
0
  9
$DIMALTRND
 40
0.0
  9
$DIMAZIN
 70
0
  9
$DIMDSEP
 70
44
  9
$DIMATFIT
 70
3
  9
$DIMFRAC
 70
0
  9
$DIMLDRBLK
  1

  9
$DIMLUNIT
 70
2
  9
$DIMLWD
 70
-2
  9
$DIMLWE
 70
-2
  9
$DIMTMOVE
 70
0
  9
$DIMFXL
 40
1.0
  9
$DIMFXLON
 70
0
  9
$DIMJOGANG
 40
0.785398163397
  9
$DIMTFILL
 70
0
  9
$DIMTFILLCLR
 70
0
  9
$DIMARCSYM
 70
0
  9
$DIMLTYPE
  6

  9
$DIMLTEX1
  6

  9
$DIMLTEX2
  6

  9
$DIMTXTDIRECTION
 70
0
  9
$LUNITS
 70
2
  9
$LUPREC
 70
4
  9
$SKETCHINC
 40
1.0
  9
$FILLETRAD
 40
10.0
  9
$AUNITS
 70
0
  9
$AUPREC
 70
2
  9
$MENU
  1
.
  9
$ELEVATION
 40
0.0
  9
$PELEVATION
 40
0.0
  9
$THICKNESS
 40
0.0
  9
$LIMCHECK
 70
0
  9
$CHAMFERA
 40
0.0
  9
$CHAMFERB
 40
0.0
  9
$CHAMFERC
 40
0.0
  9
$CHAMFERD
 40
0.0
  9
$SKPOLY
 70
0
  9
$TDCREATE
 40
2461307.351736111
  9
$TDUCREATE
 40
2458532.153996898
  9
$TDUPDATE
 40
2461307.351736111
  9
$TDUUPDATE
 40
2458532.1544311
  9
$TDINDWG
 40
0.0
  9
$TDUSRTIMER
 40
0.0
  9
$USRTIMER
 70
1
  9
$ANGBASE
 50
0.0
  9
$ANGDIR
 70
0
  9
$PDMODE
 70
0
  9
$PDSIZE
 40
0.0
  9
$PLINEWID
 40
0.0
  9
$SPLFRAME
 70
0
  9
$SPLINETYPE
 70
6
  9
$SPLINESEGS
 70
8
  9
$HANDSEED
  5
9B
  9
$SURFTAB1
 70
6
  9
$SURFTAB2
 70
6
  9
$SURFTYPE
 70
6
  9
$SURFU
 70
6
  9
$SURFV
 70
6
  9
$UCSBASE
  2

  9
$UCSNAME
  2

  9
$UCSORG
 10
0.0
 20
0.0
 30
0.0
  9
$UCSXDIR
 10
1.0
 20
0.0
 30
0.0
  9
$UCSYDIR
 10
0.0
 20
1.0
 30
0.0
  9
$UCSORTHOREF
  2

  9
$UCSORTHOVIEW
 70
0
  9
$UCSORGTOP
 10
0.0
 20
0.0
 30
0.0
  9
$UCSORGBOTTOM
 10
0.0
 20
0.0
 30
0.0
  9
$UCSORGLEFT
 10
0.0
 20
0.0
 30
0.0
  9
$UCSORGRIGHT
 10
0.0
 20
0.0
 30
0.0
  9
$UCSORGFRONT
 10
0.0
 20
0.0
 30
0.0
  9
$UCSORGBACK
 10
0.0
 20
0.0
 30
0.0
  9
$PUCSBASE
  2

  9
$PUCSNAME
  2

  9
$PUCSORG
 10
0.0
 20
0.0
 30
0.0
  9
$PUCSXDIR
 10
1.0
 20
0.0
 30
0.0
  9
$PUCSYDIR
 10
0.0
 20
1.0
 30
0.0
  9
$PUCSORTHOREF
  2

  9
$PUCSORTHOVIEW
 70
0
  9
$PUCSORGTOP
 10
0.0
 20
0.0
 30
0.0
  9
$PUCSORGBOTTOM
 10
0.0
 20
0.0
 30
0.0
  9
$PUCSORGLEFT
 10
0.0
 20
0.0
 30
0.0
  9
$PUCSORGRIGHT
 10
0.0
 20
0.0
 30
0.0
  9
$PUCSORGFRONT
 10
0.0
 20
0.0
 30
0.0
  9
$PUCSORGBACK
 10
0.0
 20
0.0
 30
0.0
  9
$USERI1
 70
0
  9
$USERI2
 70
0
  9
$USERI3
 70
0
  9
$USERI4
 70
0
  9
$USERI5
 70
0
  9
$USERR1
 40
0.0
  9
$USERR2
 40
0.0
  9
$USERR3
 40
0.0
  9
$USERR4
 40
0.0
  9
$USERR5
 40
0.0
  9
$WORLDVIEW
 70
1
  9
$SHADEDGE
 70
3
  9
$SHADEDIF
 70
70
  9
$TILEMODE
 70
1
  9
$MAXACTVP
 70
64
  9
$PINSBASE
 10
0.0
 20
0.0
 30
0.0
  9
$PLIMCHECK
 70
0
  9
$PEXTMIN
 10
1e+20
 20
1e+20
 30
1e+20
  9
$PEXTMAX
 10
-1e+20
 20
-1e+20
 30
-1e+20
  9
$PLIMMIN
 10
0.0
 20
0.0
  9
$PLIMMAX
 10
420.0
 20
297.0
  9
$UNITMODE
 70
0
  9
$VISRETAIN
 70
1
  9
$PLINEGEN
 70
0
  9
$PSLTSCALE
 70
1
  9
$TREEDEPTH
 70
3020
  9
$CMLSTYLE
  2
Standard
  9
$CMLJUST
 70
0
  9
$CMLSCALE
 40
20.0
  9
$PROXYGRAPHICS
 70
1
  9
$MEASUREMENT
 70
1
  9
$CELWEIGHT
370
-1
  9
$ENDCAPS
280
0
  9
$JOINSTYLE
280
0
  9
$LWDISPLAY
290
0
  9
$INSUNITS
 70
4
  9
$HYPERLINKBASE
  1

  9
$STYLESHEET
  1

  9
$XEDIT
290
1
  9
$CEPSNTYPE
380
0
  9
$PSTYLEMODE
290
1
  9
$FINGERPRINTGUID
  2
{CA613ABB-4D42-44D2-89A8-72023E8BA2A5}
  9
$VERSIONGUID
  2
{EDE0E589-A6F1-4314-84A3-B8DC586B61F0}
  9
$EXTNAMES
290
1
  9
$PSVPSCALE
 40
0.0
  9
$OLESTARTUP
290
0
  9
$SORTENTS
280
127
  9
$INDEXCTL
280
0
  9
$HIDETEXT
280
1
  9
$XCLIPFRAME
280
1
  9
$HALOGAP
280
0
  9
$OBSCOLOR
 70
257
  9
$OBSLTYPE
280
0
  9
$INTERSECTIONDISPLAY
280
0
  9
$INTERSECTIONCOLOR
 70
257
  9
$DIMASSOC
280
2
  9
$PROJECTNAME
  1

  9
$CAMERADISPLAY
290
0
  9
$LENSLENGTH
 40
50.0
  9
$CAMERAHEIGHT
 40
0.0
  9
$STEPSPERSEC
 40
24.0
  9
$STEPSIZE
 40
100.0
  9
$3DDWFPREC
 40
2.0
  9
$PSOLWIDTH
 40
0.005
  9
$PSOLHEIGHT
 40
0.08
  9
$LOFTANG1
 40
1.570796326795
  9
$LOFTANG2
 40
1.570796326795
  9
$LOFTMAG1
 40
0.0
  9
$LOFTMAG2
 40
0.0
  9
$LOFTPARAM
 70
7
  9
$LOFTNORMALS
280
1
  9
$LATITUDE
 40
37.795
  9
$LONGITUDE
 40
-122.394
  9
$NORTHDIRECTION
 40
0.0
  9
$TIMEZONE
 70
-8000
  9
$LIGHTGLYPHDISPLAY
280
1
  9
$TILEMODELIGHTSYNCH
280
1
  9
$CMATERIAL
347
20
  9
$SOLIDHIST
280
0
  9
$SHOWHIST
280
1
  9
$DWFFRAME
280
2
  9
$DGNFRAME
280
2
  9
$REALWORLDSCALE
290
1
  9
$INTERFERECOLOR
 62
256
  9
$CSHADOW
280
0
  9
$SHADOWPLANELOCATION
 40
0.0
  0
ENDSEC
  0
SECTION
  2
CLASSES
  0
CLASS
  1
ACDBDICTIONARYWDFLT
  2
AcDbDictionaryWithDefault
  3
ObjectDBX Classes
 90
0
 91
0
280
0
281
0
  0
CLASS
  1
SUN
  2
AcDbSun
  3
SCENEOE
 90
1153
 91
0
280
0
281
0
  0
CLASS
  1
VISUALSTYLE
  2
AcDbVisualStyle
  3
ObjectDBX Classes
 90
4095
 91
0
280
0
281
0
  0
CLASS
  1
MATERIAL
  2
AcDbMaterial
  3
ObjectDBX Classes
 90
1153
 91
0
280
0
281
0
  0
CLASS
  1
SCALE
  2
AcDbScale
  3
ObjectDBX Classes
 90
1153
 91
0
280
0
281
0
  0
CLASS
  1
TABLESTYLE
  2
AcDbTableStyle
  3
ObjectDBX Classes
 90
4095
 91
0
280
0
281
0
  0
CLASS
  1
MLEADERSTYLE
  2
AcDbMLeaderStyle
  3
ACDB_MLEADERSTYLE_CLASS
 90
4095
 91
0
280
0
281
0
  0
CLASS
  1
DICTIONARYVAR
  2
AcDbDictionaryVar
  3
ObjectDBX Classes
 90
0
 91
0
280
0
281
0
  0
CLASS
  1
CELLSTYLEMAP
  2
AcDbCellStyleMap
  3
ObjectDBX Classes
 90
1152
 91
0
280
0
281
0
  0
CLASS
  1
MENTALRAYRENDERSETTINGS
  2
AcDbMentalRayRenderSettings
  3
SCENEOE
 90
1024
 91
0
280
0
281
0
  0
CLASS
  1
ACDBDETAILVIEWSTYLE
  2
AcDbDetailViewStyle
  3
ObjectDBX Classes
 90
1025
 91
0
280
0
281
0
  0
CLASS
  1
ACDBSECTIONVIEWSTYLE
  2
AcDbSectionViewStyle
  3
ObjectDBX Classes
 90
1025
 91
0
280
0
281
0
  0
CLASS
  1
RASTERVARIABLES
  2
AcDbRasterVariables
  3
ISM
 90
0
 91
0
280
0
281
0
  0
CLASS
  1
LAYOUT
  2
AcDbLayout
  3
ObjectDBX Classes
 90
0
 91
0
280
0
281
0
  0
CLASS
  1
ACDBPLACEHOLDER
  2
AcDbPlaceHolder
  3
ObjectDBX Classes
 90
0
 91
0
280
0
281
0
  0
ENDSEC
  0
SECTION
  2
TABLES
  0
TABLE
  2
VPORT
  5
8
330
0
100
AcDbSymbolTable
 70
1
  0
VPORT
  5
97
330
8
100
AcDbSymbolTableRecord
100
AcDbViewportTableRecord
  2
*Active
 70
0
 10
0.0
 20
0.0
 11
1.0
 21
1.0
 12
-1.5418400991740082
 22
-10.71676526353157
 13
0.0
 23
0.0
 14
0.5
 24
0.5
 15
0.5
 25
0.5
 16
0.0
 26
0.0
 36
1.0
 17
0.0
 27
0.0
 37
0.0
 40
179.42710460736208
 41
1.34
 42
50.0
 43
0.0
 44
0.0
 50
0.0
 51
0.0
 71
0
 72
1000
 73
1
 74
3
 75
0
 76
0
 77
0
 78
0
281
0
 65
1
110
0.0
120
0.0
130
0.0
111
1.0
121
0.0
131
0.0
112
0.0
122
1.0
132
0.0
 79
0
146
0.0
  0
ENDTAB
  0
TABLE
  2
LTYPE
  5
2
330
0
100
AcDbSymbolTable
 70
3
  0
LTYPE
  5
24
330
2
100
AcDbSymbolTableRecord
100
AcDbLinetypeTableRecord
  2
ByBlock
 70
0
  3

 72
65
 73
0
 40
0.0
  0
LTYPE
  5
25
330
2
100
AcDbSymbolTableRecord
100
AcDbLinetypeTableRecord
  2
ByLayer
 70
0
  3

 72
65
 73
0
 40
0.0
  0
LTYPE
  5
26
330
2
100
AcDbSymbolTableRecord
100
AcDbLinetypeTableRecord
  2
Continuous
 70
0
  3

 72
65
 73
0
 40
0.0
  0
ENDTAB
  0
TABLE
  2
LAYER
  5
1
330
0
100
AcDbSymbolTable
 70
2
  0
LAYER
  5
27
330
1
100
AcDbSymbolTableRecord
100
AcDbLayerTableRecord
  2
0
 70
0
 62
7
  6
Continuous
370
-3
390
13
347
21
  0
LAYER
  5
28
330
1
100
AcDbSymbolTableRecord
100
AcDbLayerTableRecord
  2
Defpoints
 70
0
 62
7
  6
Continuous
290
0
370
-3
390
13
347
21
  0
ENDTAB
  0
TABLE
  2
STYLE
  5
5
330
0
100
AcDbSymbolTable
 70
1
  0
STYLE
  5
29
330
5
100
AcDbSymbolTableRecord
100
AcDbTextStyleTableRecord
  2
Standard
 70
0
 40
0.0
 41
1.0
 50
0.0
 71
0
 42
2.5
  3
txt
  4

  0
ENDTAB
  0
TABLE
  2
VIEW
  5
7
330
0
100
AcDbSymbolTable
 70
0
  0
ENDTAB
  0
TABLE
  2
UCS
  5
6
330
0
100
AcDbSymbolTable
 70
0
  0
ENDTAB
  0
TABLE
  2
APPID
  5
3
330
0
100
AcDbSymbolTable
 70
3
  0
APPID
  5
2A
330
3
100
AcDbSymbolTableRecord
100
AcDbRegAppTableRecord
  2
ACAD
 70
0
  0
APPID
  5
98
330
3
100
AcDbSymbolTableRecord
100
AcDbRegAppTableRecord
  2
HATCHBACKGROUNDCOLOR
 70
0
  0
APPID
  5
99
330
3
100
AcDbSymbolTableRecord
100
AcDbRegAppTableRecord
  2
EZDXF
 70
0
  0
ENDTAB
  0
TABLE
  2
DIMSTYLE
  5
4
330
0
100
AcDbSymbolTable
 70
1
100
AcDbDimStyleTable
  0
DIMSTYLE
105
2B
330
4
100
AcDbSymbolTableRecord
100
AcDbDimStyleTableRecord
  2
Standard
 70
0
 40
1.0
 41
2.5
 42
0.625
 43
3.75
 44
1.25
 45
0.0
 46
0.0
 47
0.0
 48
0.0
 49
2.5
140
2.5
141
2.5
142
0.0
143
0.03937007874
144
1.0
145
0.0
146
1.0
147
0.625
148
0.0
 69
0
 70
0
 71
0
 72
0
 73
0
 74
0
 75
0
 76
0
 77
1
 78
8
 79
3
170
0
171
3
172
1
173
0
174
0
175
0
176
0
177
0
178
0
179
2
271
2
272
2
273
2
274
3
275
0
276
0
277
2
278
44
279
0
280
0
281
0
282
0
283
0
284
8
285
0
286
0
288
0
289
3
290
0
371
-2
372
-2
  0
ENDTAB
  0
TABLE
  2
BLOCK_RECORD
  5
9
330
0
100
AcDbSymbolTable
 70
2
  0
BLOCK_RECORD
  5
17
330
9
100
AcDbSymbolTableRecord
100
AcDbBlockTableRecord
  2
*Model_Space
340
1A
 70
0
280
1
281
0
  0
BLOCK_RECORD
  5
1B
330
9
100
AcDbSymbolTableRecord
100
AcDbBlockTableRecord
  2
*Paper_Space
340
1E
 70
0
280
1
281
0
  0
ENDTAB
  0
ENDSEC
  0
SECTION
  2
BLOCKS
  0
BLOCK
  5
18
330
17
100
AcDbEntity
  8
0
100
AcDbBlockBegin
  2
*Model_Space
 70
0
 10
0.0
 20
0.0
 30
0.0
  3
*Model_Space
  1

  0
ENDBLK
  5
19
330
17
100
AcDbEntity
  8
0
100
AcDbBlockEnd
  0
BLOCK
  5
1C
330
1B
100
AcDbEntity
  8
0
100
AcDbBlockBegin
  2
*Paper_Space
 70
0
 10
0.0
 20
0.0
 30
0.0
  3
*Paper_Space
  1

  0
ENDBLK
  5
1D
330
1B
100
AcDbEntity
  8
0
100
AcDbBlockEnd
  0
ENDSEC
  0
SECTION
  2
ENTITIES
  0
LINE
  5
2F
330
17
100
AcDbEntity
  8
0
100
AcDbLine
 10
3.8663880881042267
 20
76.30600876122169
 30
2.1316282072803006e-14
 11
3.244616177988817
 21
78.92694046170786
 31
2.1316282072803006e-14
  0
LINE
  5
30
330
17
100
AcDbEntity
  8
0
100
AcDbLine
 10
3.244616177988817
 20
78.92694046170786
 30
2.1316282072803006e-14
 11
3.2244919789734094
 21
78.99678704014946
 31
2.1316282072803006e-14
  0
LINE
  5
31
330
17
100
AcDbEntity
  8
0
100
AcDbLine
 10
3.2244919789734094
 20
78.99678704014946
 30
2.1316282072803006e-14
 11
2.4616247888229257
 21
78.14295142334808
 31
2.1316282072803006e-14
  0
LINE
  5
32
330
17
100
AcDbEntity
  8
0
100
AcDbLine
 10
2.4616247888229257
 20
78.14295142334808
 30
2.1316282072803006e-14
 11
1.7101076749586728
 21
77.2255449218904
 31
2.1316282072803006e-14
  0
LINE
  5
33
330
17
100
AcDbEntity
  8
0
100
AcDbLine
 10
1.7101076749586728
 20
77.2255449218904
 30
2.1316282072803006e-14
 11
0.9305460225608524
 21
76.12918807630521
 31
2.1316282072803006e-14
  0
LINE
  5
34
330
17
100
AcDbEntity
  8
0
100
AcDbLine
 10
0.9305460225608524
 20
76.12918807630521
 30
2.1316282072803006e-14
 11
0.19722597197466207
 21
74.93227013956036
 31
2.1316282072803006e-14
  0
LINE
  5
35
330
17
100
AcDbEntity
  8
0
100
AcDbLine
 10
0.19722597197466207
 20
74.93227013956036
 30
2.1316282072803006e-14
 11
-0.6034474481131227
 21
73.41806007228216
 31
2.1316282072803006e-14
  0
LINE
  5
36
330
17
100
AcDbEntity
  8
0
100
AcDbLine
 10
-0.6034474481131227
 20
73.41806007228216
 30
2.1316282072803006e-14
 11
-1.4696098103017423
 21
71.51965327535554
 31
2.1316282072803006e-14
  0
LINE
  5
37
330
17
100
AcDbEntity
  8
0
100
AcDbLine
 10
-1.4696098103017423
 20
71.51965327535554
 30
2.1316282072803006e-14
 11
-2.400802580833396
 21
69.16636645308658
 31
2.1316282072803006e-14
  0
LINE
  5
38
330
17
100
AcDbEntity
  8
0
100
AcDbLine
 10
-2.400802580833396
 20
69.16636645308658
 30
2.1316282072803006e-14
 11
-2.4723057555367483
 21
68.97217174164241
 31
2.1316282072803006e-14
  0
LINE
  5
39
330
17
100
AcDbEntity
  8
0
100
AcDbLine
 10
-2.4723057555367483
 20
68.97217174164241
 30
2.1316282072803006e-14
 11
-2.5082043842023687
 21
68.87400151418726
 31
2.1316282072803006e-14
  0
LINE
  5
3A
330
17
100
AcDbEntity
  8
0
100
AcDbLine
 10
-2.5082043842023687
 20
68.87400151418726
 30
2.1316282072803006e-14
 11
-2.5754689678954357
 21
68.68885156245523
 31
2.1316282072803006e-14
  0
LINE
  5
3B
330
17
100
AcDbEntity
  8
0
100
AcDbLine
 10
-2.5754689678954357
 20
68.68885156245523
 30
2.1316282072803006e-14
 11
-2.713831395882721
 21
68.30301940430486
 31
2.1316282072803006e-14
  0
LINE
  5
3C
330
17
100
AcDbEntity
  8
0
100
AcDbLine
 10
-2.713831395882721
 20
68.30301940430486
 30
2.1316282072803006e-14
 11
-3.0015618826240527
 21
67.4787683695044
 31
2.1316282072803006e-14
  0
LINE
  5
3D
330
17
100
AcDbEntity
  8
0
100
AcDbLine
 10
-3.0015618826240527
 20
67.4787683695044
 30
2.1316282072803006e-14
 11
-3.6043194241048226
 21
65.65147710167295
 31
2.1316282072803006e-14
  0
LINE
  5
3E
330
17
100
AcDbEntity
  8
0
100
AcDbLine
 10
-3.6043194241048226
 20
65.65147710167295
 30
2.1316282072803006e-14
 11
-4.6012213892072715
 21
62.286429674744156
 31
2.1316282072803006e-14
  0
LINE
  5
3F
330
17
100
AcDbEntity
  8
0
100
AcDbLine
 10
-4.6012213892072715
 20
62.286429674744156
 30
2.1316282072803006e-14
 11
-5.491481589000184
 21
58.87392672506647
 31
2.1316282072803006e-14
  0
LINE
  5
40
330
17
100
AcDbEntity
  8
0
100
AcDbLine
 10
-5.491481589000184
 20
58.87392672506647
 30
2.1316282072803006e-14
 11
-5.987388269865971
 21
56.75093170564713
 31
2.1316282072803006e-14
  0
LINE
  5
41
330
17
100
AcDbEntity
  8
0
100
AcDbLine
 10
-5.987388269865971
 20
56.75093170564713
 30
2.1316282072803006e-14
 11
-6.827304858050887
 21
52.690847427880605
 31
2.1316282072803006e-14
  0
LINE
  5
42
330
17
100
AcDbEntity
  8
0
100
AcDbLine
 10
-6.827304858050887
 20
52.690847427880605
 30
2.1316282072803006e-14
 11
-7.592274294971407
 21
48.28445646735798
 31
2.1316282072803006e-14
  0
LINE
  5
43
330
17
100
AcDbEntity
  8
0
100
AcDbLine
 10
-7.592274294971407
 20
48.28445646735798
 30
2.1316282072803006e-14
 11
-8.089243208882205
 21
44.86650904004183
 31
2.1316282072803006e-14
  0
LINE
  5
44
330
17
100
AcDbEntity
  8
0
100
AcDbLine
 10
-8.089243208882205
 20
44.86650904004183
 30
2.1316282072803006e-14
 11
-8.135632646903499
 21
44.516130905290325
 31
2.1316282072803006e-14
  0
LINE
  5
45
330
17
100
AcDbEntity
  8
0
100
AcDbLine
 10
-8.135632646903499
 20
44.516130905290325
 30
2.1316282072803006e-14
 11
-8.180900820248244
 21
44.16746724455778
 31
2.1316282072803006e-14
  0
LINE
  5
46
330
17
100
AcDbEntity
  8
0
100
AcDbLine
 10
-8.180900820248244
 20
44.16746724455778
 30
2.1316282072803006e-14
 11
-8.270039954787602
 21
43.45983041682539
 31
2.1316282072803006e-14
  0
LINE
  5
47
330
17
100
AcDbEntity
  8
0
100
AcDbLine
 10
-8.270039954787602
 20
43.45983041682539
 30
2.1316282072803006e-14
 11
-8.43976422455344
 21
42.02311080122265
 31
2.1316282072803006e-14
  0
LINE
  5
48
330
17
100
AcDbEntity
  8
0
100
AcDbLine
 10
-8.43976422455344
 20
42.02311080122265
 30
2.1316282072803006e-14
 11
-8.737970054296934
 21
39.11209968828474
 31
2.1316282072803006e-14
  0
LINE
  5
49
330
17
100
AcDbEntity
  8
0
100
AcDbLine
 10
-8.737970054296934
 20
39.11209968828474
 30
2.1316282072803006e-14
 11
-9.077316082488121
 21
34.72223918073142
 31
2.1316282072803006e-14
  0
LINE
  5
4A
330
17
100
AcDbEntity
  8
0
100
AcDbLine
 10
-9.077316082488121
 20
34.72223918073142
 30
2.1316282072803006e-14
 11
-9.296469743847453
 21
30.37612387161004
 31
2.1316282072803006e-14
  0
LINE
  5
4B
330
17
100
AcDbEntity
  8
0
100
AcDbLine
 10
-9.296469743847453
 20
30.37612387161004
 30
2.1316282072803006e-14
 11
-9.423332152879741
 21
25.840004819810673
 31
2.1316282072803006e-14
  0
LINE
  5
4C
330
17
100
AcDbEntity
  8
0
100
AcDbLine
 10
-9.423332152879741
 20
25.840004819810673
 30
2.1316282072803006e-14
 11
-9.473289858074452
 21
21.178173941350508
 31
2.1316282072803006e-14
  0
LINE
  5
4D
330
17
100
AcDbEntity
  8
0
100
AcDbLine
 10
-9.473289858074452
 20
21.178173941350508
 30
2.1316282072803006e-14
 11
-9.475771181826023
 21
19.091234604123244
 31
2.1316282072803006e-14
  0
LINE
  5
4E
330
17
100
AcDbEntity
  8
0
100
AcDbLine
 10
-9.475771181826023
 20
19.091234604123244
 30
2.1316282072803006e-14
 11
-9.468693627507424
 21
16.927716447154452
 31
2.1316282072803006e-14
  0
LINE
  5
4F
330
17
100
AcDbEntity
  8
0
100
AcDbLine
 10
-9.468693627507424
 20
16.927716447154452
 30
2.1316282072803006e-14
 11
-9.41326372104501
 21
11.478488077022533
 31
2.1316282072803006e-14
  0
LINE
  5
50
330
17
100
AcDbEntity
  8
0
100
AcDbLine
 10
-9.41326372104501
 20
11.478488077022533
 30
2.1316282072803006e-14
 11
-8.757084782021437
 21
11.477943101556434
 31
2.1316282072803006e-14
  0
LINE
  5
51
330
17
100
AcDbEntity
  8
0
100
AcDbLine
 10
-8.757084782021437
 20
11.477943101556434
 30
2.1316282072803006e-14
 11
-8.757084782021437
 21
16.676779864458837
 31
2.1316282072803006e-14
  0
LINE
  5
52
330
17
100
AcDbEntity
  8
0
100
AcDbLine
 10
-8.757084782021437
 20
16.676779864458837
 30
2.1316282072803006e-14
 11
6.242915217978563
 21
16.676779864458837
 31
2.1316282072803006e-14
  0
LINE
  5
53
330
17
100
AcDbEntity
  8
0
100
AcDbLine
 10
6.242915217978563
 20
16.676779864458837
 30
2.1316282072803006e-14
 11
6.242915217978563
 21
-1.3232201355411632
 31
2.1316282072803006e-14
  0
LINE
  5
54
330
17
100
AcDbEntity
  8
0
100
AcDbLine
 10
6.242915217978563
 20
-1.3232201355411632
 30
2.1316282072803006e-14
 11
-8.757084782021437
 21
-1.3232201355411632
 31
2.1316282072803006e-14
  0
LINE
  5
55
330
17
100
AcDbEntity
  8
0
100
AcDbLine
 10
-8.757084782021437
 20
-1.3232201355411632
 30
2.1316282072803006e-14
 11
-8.757084782021437
 21
5.677941101200432
 31
2.1316282072803006e-14
  0
LINE
  5
56
330
17
100
AcDbEntity
  8
0
100
AcDbLine
 10
-8.757084782021437
 20
5.677941101200432
 30
2.1316282072803006e-14
 11
-9.290060759029895
 21
5.678383753065944
 31
2.1316282072803006e-14
  0
LINE
  5
57
330
17
100
AcDbEntity
  8
0
100
AcDbLine
 10
-9.290060759029895
 20
5.678383753065944
 30
2.1316282072803006e-14
 11
-9.193586583873898
 21
2.6267224610189714
 31
2.1316282072803006e-14
  0
LINE
  5
58
330
17
100
AcDbEntity
  8
0
100
AcDbLine
 10
-9.193586583873898
 20
2.6267224610189714
 30
2.1316282072803006e-14
 11
-8.994015862581346
 21
-2.0721308494821358
 31
2.1316282072803006e-14
  0
LINE
  5
59
330
17
100
AcDbEntity
  8
0
100
AcDbLine
 10
-8.994015862581346
 20
-2.0721308494821358
 30
2.1316282072803006e-14
 11
-8.740448469624742
 21
-6.660726131832249
 31
2.1316282072803006e-14
  0
LINE
  5
5A
330
17
100
AcDbEntity
  8
0
100
AcDbLine
 10
-8.740448469624742
 20
-6.660726131832249
 30
2.1316282072803006e-14
 11
-8.446916626698894
 21
-10.996293535347121
 31
2.1316282072803006e-14
  0
LINE
  5
5B
330
17
100
AcDbEntity
  8
0
100
AcDbLine
 10
-8.446916626698894
 20
-10.996293535347121
 30
2.1316282072803006e-14
 11
-8.101699684065277
 21
-15.36754463606124
 31
2.1316282072803006e-14
  0
LINE
  5
5C
330
17
100
AcDbEntity
  8
0
100
AcDbLine
 10
-8.101699684065277
 20
-15.36754463606124
 30
2.1316282072803006e-14
 11
-7.850707998537004
 21
-18.208485531765803
 31
2.1316282072803006e-14
  0
LINE
  5
5D
330
17
100
AcDbEntity
  8
0
100
AcDbLine
 10
-7.850707998537004
 20
-18.208485531765803
 30
2.1316282072803006e-14
 11
-7.4186539869084385
 21
-22.65141941024065
 31
2.1316282072803006e-14
  0
LINE
  5
5E
330
17
100
AcDbEntity
  8
0
100
AcDbLine
 10
-7.4186539869084385
 20
-22.65141941024065
 30
2.1316282072803006e-14
 11
-6.960249532199423
 21
-26.923562456613197
 31
2.1316282072803006e-14
  0
LINE
  5
5F
330
17
100
AcDbEntity
  8
0
100
AcDbLine
 10
-6.960249532199423
 20
-26.923562456613197
 30
2.1316282072803006e-14
 11
0.45889975656159443
 21
-26.92972427330966
 31
2.1316282072803006e-14
  0
LINE
  5
60
330
17
100
AcDbEntity
  8
0
100
AcDbLine
 10
0.45889975656159443
 20
-26.92972427330966
 30
2.1316282072803006e-14
 11
0.4540826915435048
 21
-32.729722272956124
 31
2.1316282072803006e-14
  0
LINE
  5
61
330
17
100
AcDbEntity
  8
0
100
AcDbLine
 10
0.4540826915435048
 20
-32.729722272956124
 30
2.1316282072803006e-14
 11
-6.277644944688287
 21
-32.72413137970018
 31
2.1316282072803006e-14
  0
LINE
  5
62
330
17
100
AcDbEntity
  8
0
100
AcDbLine
 10
-6.277644944688287
 20
-32.72413137970018
 30
2.1316282072803006e-14
 11
-5.247009861114947
 21
-40.611528369944054
 31
2.1316282072803006e-14
  0
LINE
  5
63
330
17
100
AcDbEntity
  8
0
100
AcDbLine
 10
-5.247009861114947
 20
-40.611528369944054
 30
2.1316282072803006e-14
 11
-4.826472918112621
 21
-43.56963277107282
 31
2.1316282072803006e-14
  0
LINE
  5
64
330
17
100
AcDbEntity
  8
0
100
AcDbLine
 10
-4.826472918112621
 20
-43.56963277107282
 30
2.1316282072803006e-14
 11
-4.137265697951712
 21
-48.16891171481747
 31
2.1316282072803006e-14
  0
LINE
  5
65
330
17
100
AcDbEntity
  8
0
100
AcDbLine
 10
-4.137265697951712
 20
-48.16891171481747
 30
2.1316282072803006e-14
 11
-3.401755819081803
 21
-52.80655876773808
 31
2.1316282072803006e-14
  0
LINE
  5
66
330
17
100
AcDbEntity
  8
0
100
AcDbLine
 10
-3.401755819081803
 20
-52.80655876773808
 30
2.1316282072803006e-14
 11
-2.917857038786071
 21
-55.72474508246971
 31
2.1316282072803006e-14
  0
LINE
  5
67
330
17
100
AcDbEntity
  8
0
100
AcDbLine
 10
-2.917857038786071
 20
-55.72474508246971
 30
2.1316282072803006e-14
 11
-2.392728888954867
 21
-58.79121485086431
 31
2.1316282072803006e-14
  0
LINE
  5
68
330
17
100
AcDbEntity
  8
0
100
AcDbLine
 10
-2.392728888954867
 20
-58.79121485086431
 30
2.1316282072803006e-14
 11
-1.254894693347632
 21
-65.13412532419387
 31
2.1316282072803006e-14
  0
LINE
  5
69
330
17
100
AcDbEntity
  8
0
100
AcDbLine
 10
-1.254894693347632
 20
-65.13412532419387
 30
2.1316282072803006e-14
 11
-0.4806220724993384
 21
-69.253830454909
 31
2.1316282072803006e-14
  0
LINE
  5
6A
330
17
100
AcDbEntity
  8
0
100
AcDbLine
 10
-0.4806220724993384
 20
-69.253830454909
 30
2.1316282072803006e-14
 11
-0.004872093652318554
 21
-71.71843107043817
 31
2.1316282072803006e-14
  0
LINE
  5
6B
330
17
100
AcDbEntity
  8
0
100
AcDbLine
 10
-0.004872093652318554
 20
-71.71843107043817
 30
2.1316282072803006e-14
 11
1.314975240705925
 21
-78.32956615725773
 31
2.1316282072803006e-14
  0
LINE
  5
6C
330
17
100
AcDbEntity
  8
0
100
AcDbLine
 10
1.314975240705925
 20
-78.32956615725773
 30
2.1316282072803006e-14
 11
2.084622505668344
 21
-82.05254642592739
 31
2.1316282072803006e-14
  0
LINE
  5
6D
330
17
100
AcDbEntity
  8
0
100
AcDbLine
 10
2.084622505668344
 20
-82.05254642592739
 30
2.1316282072803006e-14
 11
3.0131130874463192
 21
-86.4339636037346
 31
2.1316282072803006e-14
  0
LINE
  5
6E
330
17
100
AcDbEntity
  8
0
100
AcDbLine
 10
3.0131130874463192
 20
-86.4339636037346
 30
2.1316282072803006e-14
 11
3.6417602950936168
 21
-89.33688220693823
 31
2.1316282072803006e-14
  0
LINE
  5
6F
330
17
100
AcDbEntity
  8
0
100
AcDbLine
 10
3.6417602950936168
 20
-89.33688220693823
 30
2.1316282072803006e-14
 11
4.147582919864615
 21
-91.6359509568182
 31
2.1316282072803006e-14
  0
LINE
  5
70
330
17
100
AcDbEntity
  8
0
100
AcDbLine
 10
4.147582919864615
 20
-91.6359509568182
 30
2.1316282072803006e-14
 11
5.530619051315934
 21
-97.76606076923916
 31
2.1316282072803006e-14
  0
LINE
  5
71
330
17
100
AcDbEntity
  8
0
100
AcDbLine
 10
5.530619051315934
 20
-97.76606076923916
 30
2.1316282072803006e-14
 11
6.151872266748862
 21
-100.43031756721261
 31
2.1316282072803006e-14
  0
LINE
  5
72
330
17
100
AcDbEntity
  8
0
100
AcDbLine
 10
6.151872266748862
 20
-100.43031756721261
 30
2.1316282072803006e-14
 11
6.188651447849036
 21
-79.82112634449398
 31
2.1316282072803006e-14
  0
LINE
  5
73
330
17
100
AcDbEntity
  8
0
100
AcDbLine
 10
6.188651447849036
 20
-79.82112634449398
 30
2.1316282072803006e-14
 11
6.220098085787752
 21
-62.09714546748559
 31
2.1316282072803006e-14
  0
LINE
  5
74
330
17
100
AcDbEntity
  8
0
100
AcDbLine
 10
6.220098085787752
 20
-62.09714546748559
 30
2.1316282072803006e-14
 11
6.253718322296291
 21
-43.26626377439494
 31
2.1316282072803006e-14
  0
LINE
  5
75
330
17
100
AcDbEntity
  8
0
100
AcDbLine
 10
6.253718322296291
 20
-43.26626377439494
 30
2.1316282072803006e-14
 11
6.270957140438767
 21
-33.72067587921384
 31
2.1316282072803006e-14
  0
LINE
  5
76
330
17
100
AcDbEntity
  8
0
100
AcDbLine
 10
6.270957140438767
 20
-33.72067587921384
 30
2.1316282072803006e-14
 11
6.290275346579764
 21
-23.15080827905632
 31
2.1316282072803006e-14
  0
LINE
  5
77
330
17
100
AcDbEntity
  8
0
100
AcDbLine
 10
6.290275346579764
 20
-23.15080827905632
 30
2.1316282072803006e-14
 11
6.293700090975864
 21
-21.293145081728056
 31
2.1316282072803006e-14
  0
LINE
  5
78
330
17
100
AcDbEntity
  8
0
100
AcDbLine
 10
6.293700090975864
 20
-21.293145081728056
 30
2.1316282072803006e-14
 11
6.296116404316755
 21
-19.985633685963677
 31
2.1316282072803006e-14
  0
LINE
  5
79
330
17
100
AcDbEntity
  8
0
100
AcDbLine
 10
6.296116404316755
 20
-19.985633685963677
 30
2.1316282072803006e-14
 11
6.296790968850009
 21
-19.62108859840447
 31
2.1316282072803006e-14
  0
LINE
  5
7A
330
17
100
AcDbEntity
  8
0
100
AcDbLine
 10
6.296790968850009
 20
-19.62108859840447
 30
2.1316282072803006e-14
 11
6.29824909018888
 21
-18.833812776350584
 31
2.1316282072803006e-14
  0
LINE
  5
7B
330
17
100
AcDbEntity
  8
0
100
AcDbLine
 10
6.29824909018888
 20
-18.833812776350584
 30
2.1316282072803006e-14
 11
6.300683742903696
 21
-17.310868678996428
 31
2.1316282072803006e-14
  0
LINE
  5
7C
330
17
100
AcDbEntity
  8
0
100
AcDbLine
 10
6.300683742903696
 20
-17.310868678996428
 30
2.1316282072803006e-14
 11
6.305320617526703
 21
-14.2191506850032
 31
2.1316282072803006e-14
  0
LINE
  5
7D
330
17
100
AcDbEntity
  8
0
100
AcDbLine
 10
6.305320617526703
 20
-14.2191506850032
 30
2.1316282072803006e-14
 11
6.317260445055044
 21
-6.303487372406096
 31
2.1316282072803006e-14
  0
LINE
  5
7E
330
17
100
AcDbEntity
  8
0
100
AcDbLine
 10
6.317260445055044
 20
-6.303487372406096
 30
2.1316282072803006e-14
 11
6.327624626422111
 21
0.2604445278834362
 31
2.1316282072803006e-14
  0
LINE
  5
7F
330
17
100
AcDbEntity
  8
0
100
AcDbLine
 10
6.327624626422111
 20
0.2604445278834362
 30
2.1316282072803006e-14
 11
6.348839616450274
 21
11.938520006029677
 31
2.1316282072803006e-14
  0
LINE
  5
80
330
17
100
AcDbEntity
  8
0
100
AcDbLine
 10
6.348839616450274
 20
11.938520006029677
 30
2.1316282072803006e-14
 11
6.350620436819523
 21
12.736359502954883
 31
2.1316282072803006e-14
  0
LINE
  5
81
330
17
100
AcDbEntity
  8
0
100
AcDbLine
 10
6.350620436819523
 20
12.736359502954883
 30
2.1316282072803006e-14
 11
6.352629447738404
 21
13.59941753416608
 31
2.1316282072803006e-14
  0
LINE
  5
82
330
17
100
AcDbEntity
  8
0
100
AcDbLine
 10
6.352629447738404
 20
13.59941753416608
 30
2.1316282072803006e-14
 11
6.354001612561842
 21
14.169102635344757
 31
2.1316282072803006e-14
  0
LINE
  5
83
330
17
100
AcDbEntity
  8
0
100
AcDbLine
 10
6.354001612561842
 20
14.169102635344757
 30
2.1316282072803006e-14
 11
6.359889331598253
 21
16.467616612968214
 31
2.1316282072803006e-14
  0
LINE
  5
84
330
17
100
AcDbEntity
  8
0
100
AcDbLine
 10
6.359889331598253
 20
16.467616612968214
 30
2.1316282072803006e-14
 11
6.380289375518598
 21
23.58124689440865
 31
2.1316282072803006e-14
  0
LINE
  5
85
330
17
100
AcDbEntity
  8
0
100
AcDbLine
 10
6.380289375518598
 20
23.58124689440865
 30
2.1316282072803006e-14
 11
6.390706861957258
 21
27.949775614060037
 31
2.1316282072803006e-14
  0
LINE
  5
86
330
17
100
AcDbEntity
  8
0
100
AcDbLine
 10
6.390706861957258
 20
27.949775614060037
 30
2.1316282072803006e-14
 11
6.392090983478006
 21
31.84404911888152
 31
2.1316282072803006e-14
  0
LINE
  5
87
330
17
100
AcDbEntity
  8
0
100
AcDbLine
 10
6.392090983478006
 20
31.84404911888152
 30
2.1316282072803006e-14
 11
6.318558563316286
 21
41.48212890824798
 31
2.1316282072803006e-14
  0
LINE
  5
88
330
17
100
AcDbEntity
  8
0
100
AcDbLine
 10
6.318558563316286
 20
41.48212890824798
 30
2.1316282072803006e-14
 11
6.247903608030512
 21
45.513558469771034
 31
2.1316282072803006e-14
  0
LINE
  5
89
330
17
100
AcDbEntity
  8
0
100
AcDbLine
 10
6.247903608030512
 20
45.513558469771034
 30
2.1316282072803006e-14
 11
6.217195712484942
 21
46.857784393124696
 31
2.1316282072803006e-14
  0
LINE
  5
8A
330
17
100
AcDbEntity
  8
0
100
AcDbLine
 10
6.217195712484942
 20
46.857784393124696
 30
2.1316282072803006e-14
 11
6.096174161075318
 21
51.03569989707766
 31
2.1316282072803006e-14
  0
LINE
  5
8B
330
17
100
AcDbEntity
  8
0
100
AcDbLine
 10
6.096174161075318
 20
51.03569989707766
 30
2.1316282072803006e-14
 11
5.836511884410131
 21
57.155187392560656
 31
2.1316282072803006e-14
  0
LINE
  5
8C
330
17
100
AcDbEntity
  8
0
100
AcDbLine
 10
5.836511884410131
 20
57.155187392560656
 30
2.1316282072803006e-14
 11
5.521092983231645
 21
62.33301205289135
 31
2.1316282072803006e-14
  0
LINE
  5
8D
330
17
100
AcDbEntity
  8
0
100
AcDbLine
 10
5.521092983231645
 20
62.33301205289135
 30
2.1316282072803006e-14
 11
5.424786246189695
 21
63.64653239092361
 31
2.1316282072803006e-14
  0
LINE
  5
8E
330
17
100
AcDbEntity
  8
0
100
AcDbLine
 10
5.424786246189695
 20
63.64653239092361
 30
2.1316282072803006e-14
 11
5.248246212687537
 21
65.8455289918519
 31
2.1316282072803006e-14
  0
LINE
  5
8F
330
17
100
AcDbEntity
  8
0
100
AcDbLine
 10
5.248246212687537
 20
65.8455289918519
 30
2.1316282072803006e-14
 11
5.025325287861591
 21
68.36357852780138
 31
2.1316282072803006e-14
  0
LINE
  5
90
330
17
100
AcDbEntity
  8
0
100
AcDbLine
 10
5.025325287861591
 20
68.36357852780138
 30
2.1316282072803006e-14
 11
4.745870647881045
 21
71.08054633833439
 31
2.1316282072803006e-14
  0
LINE
  5
91
330
17
100
AcDbEntity
  8
0
100
AcDbLine
 10
4.745870647881045
 20
71.08054633833439
 30
2.1316282072803006e-14
 11
4.384603403188441
 21
73.67395493449624
 31
2.1316282072803006e-14
  0
LINE
  5
92
330
17
100
AcDbEntity
  8
0
100
AcDbLine
 10
4.384603403188441
 20
73.67395493449624
 30
2.1316282072803006e-14
 11
3.8663880881042267
 21
76.30600876122169
 31
2.1316282072803006e-14
  0
LINE
  5
93
330
17
100
AcDbEntity
  8
0
100
AcDbLine
 10
2.242915217978563
 20
-48.62322013554116
 30
1.4210854715202004e-14
 11
2.242915217978563
 21
-44.62322013554116
 31
1.4210854715202004e-14
  0
LINE
  5
94
330
17
100
AcDbEntity
  8
0
100
AcDbLine
 10
2.242915217978563
 20
-44.62322013554116
 30
1.4210854715202004e-14
 11
4.242915217978563
 21
-44.62322013554116
 31
1.4210854715202004e-14
  0
LINE
  5
95
330
17
100
AcDbEntity
  8
0
100
AcDbLine
 10
4.242915217978563
 20
-44.62322013554116
 30
1.4210854715202004e-14
 11
4.242915217978563
 21
-48.62322013554116
 31
1.4210854715202004e-14
  0
LINE
  5
96
330
17
100
AcDbEntity
  8
0
100
AcDbLine
 10
4.242915217978563
 20
-48.62322013554116
 30
1.4210854715202004e-14
 11
2.242915217978563
 21
-48.62322013554116
 31
1.4210854715202004e-14
  0
ENDSEC
  0
SECTION
  2
OBJECTS
  0
DICTIONARY
  5
A
330
0
100
AcDbDictionary
281
1
  3
ACAD_COLOR
350
B
  3
ACAD_GROUP
350
C
  3
ACAD_LAYOUT
350
D
  3
ACAD_MATERIAL
350
E
  3
ACAD_MLEADERSTYLE
350
F
  3
ACAD_MLINESTYLE
350
10
  3
ACAD_PLOTSETTINGS
350
11
  3
ACAD_PLOTSTYLENAME
350
12
  3
ACAD_SCALELIST
350
14
  3
ACAD_TABLESTYLE
350
15
  3
ACAD_VISUALSTYLE
350
16
  3
EZDXF_META
350
2D
  0
DICTIONARY
  5
B
330
A
100
AcDbDictionary
281
1
  0
DICTIONARY
  5
C
330
A
100
AcDbDictionary
281
1
  0
DICTIONARY
  5
D
330
A
100
AcDbDictionary
281
1
  3
Model
350
1A
  3
Layout1
350
1E
  0
DICTIONARY
  5
E
330
A
100
AcDbDictionary
281
1
  3
ByBlock
350
1F
  3
ByLayer
350
20
  3
Global
350
21
  0
DICTIONARY
  5
F
330
A
100
AcDbDictionary
281
1
  3
Standard
350
2C
  0
DICTIONARY
  5
10
330
A
100
AcDbDictionary
281
1
  3
Standard
350
22
  0
DICTIONARY
  5
11
330
A
100
AcDbDictionary
281
1
  0
ACDBDICTIONARYWDFLT
  5
12
330
A
100
AcDbDictionary
281
1
  3
Normal
350
13
100
AcDbDictionaryWithDefault
340
13
  0
ACDBPLACEHOLDER
  5
13
330
12
  0
DICTIONARY
  5
14
330
A
100
AcDbDictionary
281
1
  0
DICTIONARY
  5
15
330
A
100
AcDbDictionary
281
1
  0
DICTIONARY
  5
16
330
A
100
AcDbDictionary
281
1
  0
LAYOUT
  5
1A
330
D
100
AcDbPlotSettings
  1

  4
A3
  6

 40
7.5
 41
20.0
 42
7.5
 43
20.0
 44
420.0
 45
297.0
 46
0.0
 47
0.0
 48
0.0
 49
0.0
140
0.0
141
0.0
142
1.0
143
1.0
 70
1024
 72
1
 73
0
 74
5
  7

 75
16
 76
0
 77
2
 78
300
147
1.0
148
0.0
149
0.0
100
AcDbLayout
  1
Model
 70
1
 71
0
 10
0.0
 20
0.0
 11
420.0
 21
297.0
 12
0.0
 22
0.0
 32
0.0
 14
1e+20
 24
1e+20
 34
1e+20
 15
-1e+20
 25
-1e+20
 35
-1e+20
146
0.0
 13
0.0
 23
0.0
 33
0.0
 16
1.0
 26
0.0
 36
0.0
 17
0.0
 27
1.0
 37
0.0
 76
1
330
17
  0
LAYOUT
  5
1E
330
D
100
AcDbPlotSettings
  1

  4
A3
  6

 40
7.5
 41
20.0
 42
7.5
 43
20.0
 44
420.0
 45
297.0
 46
0.0
 47
0.0
 48
0.0
 49
0.0
140
0.0
141
0.0
142
1.0
143
1.0
 70
0
 72
1
 73
0
 74
5
  7

 75
16
 76
0
 77
2
 78
300
147
1.0
148
0.0
149
0.0
100
AcDbLayout
  1
Layout1
 70
1
 71
1
 10
0.0
 20
0.0
 11
420.0
 21
297.0
 12
0.0
 22
0.0
 32
0.0
 14
1e+20
 24
1e+20
 34
1e+20
 15
-1e+20
 25
-1e+20
 35
-1e+20
146
0.0
 13
0.0
 23
0.0
 33
0.0
 16
1.0
 26
0.0
 36
0.0
 17
0.0
 27
1.0
 37
0.0
 76
1
330
1B
  0
MATERIAL
  5
1F
102
{ACAD_REACTORS
330
E
102
}
330
E
100
AcDbMaterial
  1
ByBlock
  2

 70
0
 40
1.0
 71
1
 41
1.0
 91
-1023410177
 42
1.0
 72
1
  3

 73
1
 74
1
 75
1
 44
0.5
 73
0
 45
1.0
 46
1.0
 77
1
  4

 78
1
 79
1
170
1
 48
1.0
171
1
  6

172
1
173
1
174
1
140
1.0
141
1.0
175
1
  7

176
1
177
1
178
1
143
1.0
179
1
  8

270
1
271
1
272
1
145
1.0
146
1.0
273
1
  9

274
1
275
1
276
1
 42
1.0
 72
1
  3

 73
1
 74
1
 75
1
 94
63
  0
MATERIAL
  5
20
102
{ACAD_REACTORS
330
E
102
}
330
E
100
AcDbMaterial
  1
ByLayer
  2

 70
0
 40
1.0
 71
1
 41
1.0
 91
-1023410177
 42
1.0
 72
1
  3

 73
1
 74
1
 75
1
 44
0.5
 73
0
 45
1.0
 46
1.0
 77
1
  4

 78
1
 79
1
170
1
 48
1.0
171
1
  6

172
1
173
1
174
1
140
1.0
141
1.0
175
1
  7

176
1
177
1
178
1
143
1.0
179
1
  8

270
1
271
1
272
1
145
1.0
146
1.0
273
1
  9

274
1
275
1
276
1
 42
1.0
 72
1
  3

 73
1
 74
1
 75
1
 94
63
  0
MATERIAL
  5
21
102
{ACAD_REACTORS
330
E
102
}
330
E
100
AcDbMaterial
  1
Global
  2

 70
0
 40
1.0
 71
1
 41
1.0
 91
-1023410177
 42
1.0
 72
1
  3

 73
1
 74
1
 75
1
 44
0.5
 73
0
 45
1.0
 46
1.0
 77
1
  4

 78
1
 79
1
170
1
 48
1.0
171
1
  6

172
1
173
1
174
1
140
1.0
141
1.0
175
1
  7

176
1
177
1
178
1
143
1.0
179
1
  8

270
1
271
1
272
1
145
1.0
146
1.0
273
1
  9

274
1
275
1
276
1
 42
1.0
 72
1
  3

 73
1
 74
1
 75
1
 94
63
  0
MLINESTYLE
  5
22
102
{ACAD_REACTORS
330
10
102
}
330
10
100
AcDbMlineStyle
  2
Standard
 70
0
  3

 62
256
 51
90.0
 52
90.0
 71
2
 49
0.5
 62
256
  6
BYLAYER
 49
-0.5
 62
256
  6
BYLAYER
  0
MLEADERSTYLE
  5
2C
102
{ACAD_REACTORS
330
F
102
}
330
F
100
AcDbMLeaderStyle
179
2
170
2
171
1
172
0
 90
2
 40
0.0
 41
0.0
173
1
 91
-1056964608
 92
-2
290
1
 42
2.0
291
1
 43
8.0
  3
Standard
 44
4.0
300

342
29
174
1
175
1
176
0
178
1
 93
-1056964608
 45
4.0
292
0
297
0
 46
4.0
 94
-1056964608
 47
1.0
 49
1.0
140
1.0
294
1
141
0.0
177
0
142
1.0
295
0
296
0
143
3.75
271
0
272
9
273
9
  0
DICTIONARY
  5
2D
330
A
100
AcDbDictionary
280
1
281
1
  3
CREATED_BY_EZDXF
350
2E
  3
WRITTEN_BY_EZDXF
350
9A
  0
DICTIONARYVAR
  5
2E
330
2D
100
DictionaryVariables
280
0
  1
1.4.4 @ 2026-09-23T02:56:30.689821+00:00
  0
DICTIONARYVAR
  5
9A
330
2D
100
DictionaryVariables
280
0
  1
1.4.4 @ 2026-09-23T02:56:30.699323+00:00
  0
ENDSEC
  0
EOF
