  0
SECTION
  2
HEADER
  9
$ACADVER
  1
AC1027
  9
$ACADMAINTVER
 70
105
  9
$DWGCODEPAGE
  3
ANSI_1252
  9
$LASTSAVEDBY
  1
ezdxf
  9
$REQUIREDVERSIONS
160
0
  9
$INSBASE
 10
0.0
 20
0.0
 30
0.0
  9
$EXTMIN
 10
1e+20
 20
1e+20
 30
1e+20
  9
$EXTMAX
 10
-1e+20
 20
-1e+20
 30
-1e+20
  9
$LIMMIN
 10
0.0
 20
0.0
  9
$LIMMAX
 10
420.0
 20
297.0
  9
$ORTHOMODE
 70
0
  9
$REGENMODE
 70
1
  9
$FILLMODE
 70
1
  9
$QTEXTMODE
 70
0
  9
$MIRRTEXT
 70
1
  9
$LTSCALE
 40
1.0
  9
$ATTMODE
 70
1
  9
$TEXTSIZE
 40
2.5
  9
$TRACEWID
 40
1.0
  9
$TEXTSTYLE
  7
Standard
  9
$CLAYER
  8
0
  9
$CELTYPE
  6
ByLayer
  9
$CECOLOR
 62
256
  9
$CELTSCALE
 40
1.0
  9
$DISPSILH
 70
0
  9
$DIMSCALE
 40
1.0
  9
$DIMASZ
 40
2.5
  9
$DIMEXO
 40
0.625
  9
$DIMDLI
 40
3.75
  9
$DIMRND
 40
0.0
  9
$DIMDLE
 40
0.0
  9
$DIMEXE
 40
1.25
  9
$DIMTP
 40
0.0
  9
$DIMTM
 40
0.0
  9
$DIMTXT
 40
2.5
  9
$DIMCEN
 40
2.5
  9
$DIMTSZ
 40
0.0
  9
$DIMTOL
 70
0
  9
$DIMLIM
 70
0
  9
$DIMTIH
 70
0
  9
$DIMTOH
 70
0
  9
$DIMSE1
 70
0
  9
$DIMSE2
 70
0
  9
$DIMTAD
 70
1
  9
$DIMZIN
 70
8
  9
$DIMBLK
  1

  9
$DIMASO
 70
1
  9
$DIMSHO
 70
1
  9
$DIMPOST
  1

  9
$DIMAPOST
  1

  9
$DIMALT
 70
0
  9
$DIMALTD
 70
3
  9
$DIMALTF
 40
0.03937007874
  9
$DIMLFAC
 40
1.0
  9
$DIMTOFL
 70
1
  9
$DIMTVP
 40
0.0
  9
$DIMTIX
 70
0
  9
$DIMSOXD
 70
0
  9
$DIMSAH
 70
0
  9
$DIMBLK1
  1

  9
$DIMBLK2
  1

  9
$DIMSTYLE
  2
ISO-25
  9
$DIMCLRD
 70
0
  9
$DIMCLRE
 70
0
  9
$DIMCLRT
 70
0
  9
$DIMTFAC
 40
1.0
  9
$DIMGAP
 40
0.625
  9
$DIMJUST
 70
0
  9
$DIMSD1
 70
0
  9
$DIMSD2
 70
0
  9
$DIMTOLJ
 70
0
  9
$DIMTZIN
 70
8
  9
$DIMALTZ
 70
0
  9
$DIMALTTZ
 70
0
  9
$DIMUPT
 70
0
  9
$DIMDEC
 70
2
  9
$DIMTDEC
 70
2
  9
$DIMALTU
 70
2
  9
$DIMALTTD
 70
3
  9
$DIMTXSTY
  7
Standard
  9
$DIMAUNIT
 70
0
  9
$DIMADEC
 70
0
  9
$DIMALTRND
 40
0.0
  9
$DIMAZIN
 70
0
  9
$DIMDSEP
 70
44
  9
$DIMATFIT
 70
3
  9
$DIMFRAC
 70
0
  9
$DIMLDRBLK
  1

  9
$DIMLUNIT
 70
2
  9
$DIMLWD
 70
-2
  9
$DIMLWE
 70
-2
  9
$DIMTMOVE
 70
0
  9
$DIMFXL
 40
1.0
  9
$DIMFXLON
 70
0
  9
$DIMJOGANG
 40
0.785398163397
  9
$DIMTFILL
 70
0
  9
$DIMTFILLCLR
 70
0
  9
$DIMARCSYM
 70
0
  9
$DIMLTYPE
  6

  9
$DIMLTEX1
  6

  9
$DIMLTEX2
  6

  9
$DIMTXTDIRECTION
 70
0
  9
$LUNITS
 70
2
  9
$LUPREC
 70
4
  9
$SKETCHINC
 40
1.0
  9
$FILLETRAD
 40
10.0
  9
$AUNITS
 70
0
  9
$AUPREC
 70
2
  9
$MENU
  1
.
  9
$ELEVATION
 40
0.0
  9
$PELEVATION
 40
0.0
  9
$THICKNESS
 40
0.0
  9
$LIMCHECK
 70
0
  9
$CHAMFERA
 40
0.0
  9
$CHAMFERB
 40
0.0
  9
$CHAMFERC
 40
0.0
  9
$CHAMFERD
 40
0.0
  9
$SKPOLY
 70
0
  9
$TDCREATE
 40
2461307.8224537037
  9
$TDUCREATE
 40
2458532.153996898
  9
$TDUPDATE
 40
2461307.8224537037
  9
$TDUUPDATE
 40
2458532.1544311
  9
$TDINDWG
 40
0.0
  9
$TDUSRTIMER
 40
0.0
  9
$USRTIMER
 70
1
  9
$ANGBASE
 50
0.0
  9
$ANGDIR
 70
0
  9
$PDMODE
 70
0
  9
$PDSIZE
 40
0.0
  9
$PLINEWID
 40
0.0
  9
$SPLFRAME
 70
0
  9
$SPLINETYPE
 70
6
  9
$SPLINESEGS
 70
8
  9
$HANDSEED
  5
180
  9
$SURFTAB1
 70
6
  9
$SURFTAB2
 70
6
  9
$SURFTYPE
 70
6
  9
$SURFU
 70
6
  9
$SURFV
 70
6
  9
$UCSBASE
  2

  9
$UCSNAME
  2

  9
$UCSORG
 10
0.0
 20
0.0
 30
0.0
  9
$UCSXDIR
 10
1.0
 20
0.0
 30
0.0
  9
$UCSYDIR
 10
0.0
 20
1.0
 30
0.0
  9
$UCSORTHOREF
  2

  9
$UCSORTHOVIEW
 70
0
  9
$UCSORGTOP
 10
0.0
 20
0.0
 30
0.0
  9
$UCSORGBOTTOM
 10
0.0
 20
0.0
 30
0.0
  9
$UCSORGLEFT
 10
0.0
 20
0.0
 30
0.0
  9
$UCSORGRIGHT
 10
0.0
 20
0.0
 30
0.0
  9
$UCSORGFRONT
 10
0.0
 20
0.0
 30
0.0
  9
$UCSORGBACK
 10
0.0
 20
0.0
 30
0.0
  9
$PUCSBASE
  2

  9
$PUCSNAME
  2

  9
$PUCSORG
 10
0.0
 20
0.0
 30
0.0
  9
$PUCSXDIR
 10
1.0
 20
0.0
 30
0.0
  9
$PUCSYDIR
 10
0.0
 20
1.0
 30
0.0
  9
$PUCSORTHOREF
  2

  9
$PUCSORTHOVIEW
 70
0
  9
$PUCSORGTOP
 10
0.0
 20
0.0
 30
0.0
  9
$PUCSORGBOTTOM
 10
0.0
 20
0.0
 30
0.0
  9
$PUCSORGLEFT
 10
0.0
 20
0.0
 30
0.0
  9
$PUCSORGRIGHT
 10
0.0
 20
0.0
 30
0.0
  9
$PUCSORGFRONT
 10
0.0
 20
0.0
 30
0.0
  9
$PUCSORGBACK
 10
0.0
 20
0.0
 30
0.0
  9
$USERI1
 70
0
  9
$USERI2
 70
0
  9
$USERI3
 70
0
  9
$USERI4
 70
0
  9
$USERI5
 70
0
  9
$USERR1
 40
0.0
  9
$USERR2
 40
0.0
  9
$USERR3
 40
0.0
  9
$USERR4
 40
0.0
  9
$USERR5
 40
0.0
  9
$WORLDVIEW
 70
1
  9
$SHADEDGE
 70
3
  9
$SHADEDIF
 70
70
  9
$TILEMODE
 70
1
  9
$MAXACTVP
 70
64
  9
$PINSBASE
 10
0.0
 20
0.0
 30
0.0
  9
$PLIMCHECK
 70
0
  9
$PEXTMIN
 10
1e+20
 20
1e+20
 30
1e+20
  9
$PEXTMAX
 10
-1e+20
 20
-1e+20
 30
-1e+20
  9
$PLIMMIN
 10
0.0
 20
0.0
  9
$PLIMMAX
 10
420.0
 20
297.0
  9
$UNITMODE
 70
0
  9
$VISRETAIN
 70
1
  9
$PLINEGEN
 70
0
  9
$PSLTSCALE
 70
1
  9
$TREEDEPTH
 70
3020
  9
$CMLSTYLE
  2
Standard
  9
$CMLJUST
 70
0
  9
$CMLSCALE
 40
20.0
  9
$PROXYGRAPHICS
 70
1
  9
$MEASUREMENT
 70
1
  9
$CELWEIGHT
370
-1
  9
$ENDCAPS
280
0
  9
$JOINSTYLE
280
0
  9
$LWDISPLAY
290
0
  9
$INSUNITS
 70
4
  9
$HYPERLINKBASE
  1

  9
$STYLESHEET
  1

  9
$XEDIT
290
1
  9
$CEPSNTYPE
380
0
  9
$PSTYLEMODE
290
1
  9
$FINGERPRINTGUID
  2
{8FCEDA0A-AA59-4CE6-A7B5-DF68257D1AE3}
  9
$VERSIONGUID
  2
{0D06C73B-A4C4-4829-83B7-1D2AD9D6D98F}
  9
$EXTNAMES
290
1
  9
$PSVPSCALE
 40
0.0
  9
$OLESTARTUP
290
0
  9
$SORTENTS
280
127
  9
$INDEXCTL
280
0
  9
$HIDETEXT
280
1
  9
$XCLIPFRAME
280
1
  9
$HALOGAP
280
0
  9
$OBSCOLOR
 70
257
  9
$OBSLTYPE
280
0
  9
$INTERSECTIONDISPLAY
280
0
  9
$INTERSECTIONCOLOR
 70
257
  9
$DIMASSOC
280
2
  9
$PROJECTNAME
  1

  9
$CAMERADISPLAY
290
0
  9
$LENSLENGTH
 40
50.0
  9
$CAMERAHEIGHT
 40
0.0
  9
$STEPSPERSEC
 40
24.0
  9
$STEPSIZE
 40
100.0
  9
$3DDWFPREC
 40
2.0
  9
$PSOLWIDTH
 40
0.005
  9
$PSOLHEIGHT
 40
0.08
  9
$LOFTANG1
 40
1.570796326795
  9
$LOFTANG2
 40
1.570796326795
  9
$LOFTMAG1
 40
0.0
  9
$LOFTMAG2
 40
0.0
  9
$LOFTPARAM
 70
7
  9
$LOFTNORMALS
280
1
  9
$LATITUDE
 40
37.795
  9
$LONGITUDE
 40
-122.394
  9
$NORTHDIRECTION
 40
0.0
  9
$TIMEZONE
 70
-8000
  9
$LIGHTGLYPHDISPLAY
280
1
  9
$TILEMODELIGHTSYNCH
280
1
  9
$CMATERIAL
347
20
  9
$SOLIDHIST
280
0
  9
$SHOWHIST
280
1
  9
$DWFFRAME
280
2
  9
$DGNFRAME
280
2
  9
$REALWORLDSCALE
290
1
  9
$INTERFERECOLOR
 62
256
  9
$CSHADOW
280
0
  9
$SHADOWPLANELOCATION
 40
0.0
  0
ENDSEC
  0
SECTION
  2
CLASSES
  0
CLASS
  1
ACDBDICTIONARYWDFLT
  2
AcDbDictionaryWithDefault
  3
ObjectDBX Classes
 90
0
 91
0
280
0
281
0
  0
CLASS
  1
SUN
  2
AcDbSun
  3
SCENEOE
 90
1153
 91
0
280
0
281
0
  0
CLASS
  1
VISUALSTYLE
  2
AcDbVisualStyle
  3
ObjectDBX Classes
 90
4095
 91
0
280
0
281
0
  0
CLASS
  1
MATERIAL
  2
AcDbMaterial
  3
ObjectDBX Classes
 90
1153
 91
0
280
0
281
0
  0
CLASS
  1
SCALE
  2
AcDbScale
  3
ObjectDBX Classes
 90
1153
 91
0
280
0
281
0
  0
CLASS
  1
TABLESTYLE
  2
AcDbTableStyle
  3
ObjectDBX Classes
 90
4095
 91
0
280
0
281
0
  0
CLASS
  1
MLEADERSTYLE
  2
AcDbMLeaderStyle
  3
ACDB_MLEADERSTYLE_CLASS
 90
4095
 91
0
280
0
281
0
  0
CLASS
  1
DICTIONARYVAR
  2
AcDbDictionaryVar
  3
ObjectDBX Classes
 90
0
 91
0
280
0
281
0
  0
CLASS
  1
CELLSTYLEMAP
  2
AcDbCellStyleMap
  3
ObjectDBX Classes
 90
1152
 91
0
280
0
281
0
  0
CLASS
  1
MENTALRAYRENDERSETTINGS
  2
AcDbMentalRayRenderSettings
  3
SCENEOE
 90
1024
 91
0
280
0
281
0
  0
CLASS
  1
ACDBDETAILVIEWSTYLE
  2
AcDbDetailViewStyle
  3
ObjectDBX Classes
 90
1025
 91
0
280
0
281
0
  0
CLASS
  1
ACDBSECTIONVIEWSTYLE
  2
AcDbSectionViewStyle
  3
ObjectDBX Classes
 90
1025
 91
0
280
0
281
0
  0
CLASS
  1
RASTERVARIABLES
  2
AcDbRasterVariables
  3
ISM
 90
0
 91
0
280
0
281
0
  0
CLASS
  1
ACDBPLACEHOLDER
  2
AcDbPlaceHolder
  3
ObjectDBX Classes
 90
0
 91
0
280
0
281
0
  0
CLASS
  1
LAYOUT
  2
AcDbLayout
  3
ObjectDBX Classes
 90
0
 91
0
280
0
281
0
  0
ENDSEC
  0
SECTION
  2
TABLES
  0
TABLE
  2
VPORT
  5
8
330
0
100
AcDbSymbolTable
 70
1
  0
VPORT
  5
17C
330
8
100
AcDbSymbolTableRecord
100
AcDbViewportTableRecord
  2
*Active
 70
0
 10
0.0
 20
0.0
 11
1.0
 21
1.0
 12
22.380014781007503
 22
6.360733747267244
 13
0.0
 23
0.0
 14
0.5
 24
0.5
 15
0.5
 25
0.5
 16
0.0
 26
0.0
 36
1.0
 17
0.0
 27
0.0
 37
0.0
 40
22.380014781007503
 41
1.34
 42
50.0
 43
0.0
 44
0.0
 50
0.0
 51
0.0
 71
0
 72
1000
 73
1
 74
3
 75
0
 76
0
 77
0
 78
0
281
0
 65
1
110
0.0
120
0.0
130
0.0
111
1.0
121
0.0
131
0.0
112
0.0
122
1.0
132
0.0
 79
0
146
0.0
  0
ENDTAB
  0
TABLE
  2
LTYPE
  5
2
330
0
100
AcDbSymbolTable
 70
3
  0
LTYPE
  5
24
330
2
100
AcDbSymbolTableRecord
100
AcDbLinetypeTableRecord
  2
ByBlock
 70
0
  3

 72
65
 73
0
 40
0.0
  0
LTYPE
  5
25
330
2
100
AcDbSymbolTableRecord
100
AcDbLinetypeTableRecord
  2
ByLayer
 70
0
  3

 72
65
 73
0
 40
0.0
  0
LTYPE
  5
26
330
2
100
AcDbSymbolTableRecord
100
AcDbLinetypeTableRecord
  2
Continuous
 70
0
  3

 72
65
 73
0
 40
0.0
  0
ENDTAB
  0
TABLE
  2
LAYER
  5
1
330
0
100
AcDbSymbolTable
 70
2
  0
LAYER
  5
27
330
1
100
AcDbSymbolTableRecord
100
AcDbLayerTableRecord
  2
0
 70
0
 62
7
  6
Continuous
370
-3
390
13
347
21
  0
LAYER
  5
28
330
1
100
AcDbSymbolTableRecord
100
AcDbLayerTableRecord
  2
Defpoints
 70
0
 62
7
  6
Continuous
290
0
370
-3
390
13
347
21
  0
ENDTAB
  0
TABLE
  2
STYLE
  5
5
330
0
100
AcDbSymbolTable
 70
1
  0
STYLE
  5
29
330
5
100
AcDbSymbolTableRecord
100
AcDbTextStyleTableRecord
  2
Standard
 70
0
 40
0.0
 41
1.0
 50
0.0
 71
0
 42
2.5
  3
txt
  4

  0
ENDTAB
  0
TABLE
  2
VIEW
  5
7
330
0
100
AcDbSymbolTable
 70
0
  0
ENDTAB
  0
TABLE
  2
UCS
  5
6
330
0
100
AcDbSymbolTable
 70
0
  0
ENDTAB
  0
TABLE
  2
APPID
  5
3
330
0
100
AcDbSymbolTable
 70
3
  0
APPID
  5
2A
330
3
100
AcDbSymbolTableRecord
100
AcDbRegAppTableRecord
  2
ACAD
 70
0
  0
APPID
  5
17D
330
3
100
AcDbSymbolTableRecord
100
AcDbRegAppTableRecord
  2
HATCHBACKGROUNDCOLOR
 70
0
  0
APPID
  5
17E
330
3
100
AcDbSymbolTableRecord
100
AcDbRegAppTableRecord
  2
EZDXF
 70
0
  0
ENDTAB
  0
TABLE
  2
DIMSTYLE
  5
4
330
0
100
AcDbSymbolTable
 70
1
100
AcDbDimStyleTable
  0
DIMSTYLE
105
2B
330
4
100
AcDbSymbolTableRecord
100
AcDbDimStyleTableRecord
  2
Standard
 70
0
 40
1.0
 41
2.5
 42
0.625
 43
3.75
 44
1.25
 45
0.0
 46
0.0
 47
0.0
 48
0.0
 49
2.5
140
2.5
141
2.5
142
0.0
143
0.03937007874
144
1.0
145
0.0
146
1.0
147
0.625
148
0.0
 69
0
 70
0
 71
0
 72
0
 73
0
 74
0
 75
0
 76
0
 77
1
 78
8
 79
3
170
0
171
3
172
1
173
0
174
0
175
0
176
0
177
0
178
0
179
2
271
2
272
2
273
2
274
3
275
0
276
0
277
2
278
44
279
0
280
0
281
0
282
0
283
0
284
8
285
0
286
0
288
0
289
3
290
0
371
-2
372
-2
  0
ENDTAB
  0
TABLE
  2
BLOCK_RECORD
  5
9
330
0
100
AcDbSymbolTable
 70
2
  0
BLOCK_RECORD
  5
17
330
9
100
AcDbSymbolTableRecord
100
AcDbBlockTableRecord
  2
*Model_Space
340
1A
 70
0
280
1
281
0
  0
BLOCK_RECORD
  5
1B
330
9
100
AcDbSymbolTableRecord
100
AcDbBlockTableRecord
  2
*Paper_Space
340
1E
 70
0
280
1
281
0
  0
ENDTAB
  0
ENDSEC
  0
SECTION
  2
BLOCKS
  0
BLOCK
  5
18
330
17
100
AcDbEntity
  8
0
100
AcDbBlockBegin
  2
*Model_Space
 70
0
 10
0.0
 20
0.0
 30
0.0
  3
*Model_Space
  1

  0
ENDBLK
  5
19
330
17
100
AcDbEntity
  8
0
100
AcDbBlockEnd
  0
BLOCK
  5
1C
330
1B
100
AcDbEntity
  8
0
100
AcDbBlockBegin
  2
*Paper_Space
 70
0
 10
0.0
 20
0.0
 30
0.0
  3
*Paper_Space
  1

  0
ENDBLK
  5
1D
330
1B
100
AcDbEntity
  8
0
100
AcDbBlockEnd
  0
ENDSEC
  0
SECTION
  2
ENTITIES
  0
LINE
  5
2F
330
17
100
AcDbEntity
  8
0
100
AcDbLine
 10
2.1147060225249987
 20
2.038246859925245
 30
2.842170943040401e-14
 11
4.309182963824998
 21
1.6228551860952454
 31
2.842170943040401e-14
  0
LINE
  5
30
330
17
100
AcDbEntity
  8
0
100
AcDbLine
 10
4.309182963824998
 20
1.6228551860952454
 30
2.842170943040401e-14
 11
6.497028900069001
 21
1.3315877065932469
 31
2.842170943040401e-14
  0
LINE
  5
31
330
17
100
AcDbEntity
  8
0
100
AcDbLine
 10
6.497028900069001
 20
1.3315877065932469
 30
2.842170943040401e-14
 11
8.783998397678001
 21
1.1056896374082452
 31
2.842170943040401e-14
  0
LINE
  5
32
330
17
100
AcDbEntity
  8
0
100
AcDbLine
 10
8.783998397678001
 20
1.1056896374082452
 30
2.842170943040401e-14
 11
12.809239053644003
 21
0.7765935146472458
 31
2.842170943040401e-14
  0
LINE
  5
33
330
17
100
AcDbEntity
  8
0
100
AcDbLine
 10
12.809239053644003
 20
0.7765935146472458
 30
2.842170943040401e-14
 11
15.782912462145998
 21
0.5815173750342453
 31
2.842170943040401e-14
  0
LINE
  5
34
330
17
100
AcDbEntity
  8
0
100
AcDbLine
 10
15.782912462145998
 20
0.5815173750342453
 30
2.842170943040401e-14
 11
19.322638676278
 21
0.3959560851362447
 31
2.842170943040401e-14
  0
LINE
  5
35
330
17
100
AcDbEntity
  8
0
100
AcDbLine
 10
19.322638676278
 20
0.3959560851362447
 30
2.842170943040401e-14
 11
23.304542443364998
 21
0.23999728040824486
 31
2.842170943040401e-14
  0
LINE
  5
36
330
17
100
AcDbEntity
  8
0
100
AcDbLine
 10
23.304542443364998
 20
0.23999728040824486
 30
2.842170943040401e-14
 11
26.782948581319
 21
0.1421325963282456
 31
0.0
  0
LINE
  5
37
330
17
100
AcDbEntity
  8
0
100
AcDbLine
 10
26.782948581319
 20
0.1421325963282456
 30
0.0
 11
31.251078957701
 21
0.060011503998245175
 31
0.0
  0
LINE
  5
38
330
17
100
AcDbEntity
  8
0
100
AcDbLine
 10
31.251078957701
 20
0.060011503998245175
 30
0.0
 11
39.254345751900004
 21
2.4513724383723456e-13
 31
0.0
  0
LINE
  5
39
330
17
100
AcDbEntity
  8
0
100
AcDbLine
 10
39.254345751900004
 20
2.4513724383723456e-13
 30
0.0
 11
44.760029562015006
 21
0.007237711104245648
 31
0.0
  0
LINE
  5
3A
330
17
100
AcDbEntity
  8
0
100
AcDbLine
 10
44.760029562015006
 20
0.007237711104245648
 30
0.0
 11
44.760029562015006
 21
12.721467494534243
 31
2.842170943040401e-14
  0
LINE
  5
3B
330
17
100
AcDbEntity
  8
0
100
AcDbLine
 10
44.760029562015006
 20
12.721467494534243
 30
2.842170943040401e-14
 11
44.723616464133
 21
12.720841462495246
 31
2.842170943040401e-14
  0
LINE
  5
3C
330
17
100
AcDbEntity
  8
0
100
AcDbLine
 10
44.723616464133
 20
12.720841462495246
 30
2.842170943040401e-14
 11
44.48484331615501
 21
12.716489517704245
 31
0.0
  0
LINE
  5
3D
330
17
100
AcDbEntity
  8
0
100
AcDbLine
 10
44.48484331615501
 20
12.716489517704245
 30
0.0
 11
44.246466265204006
 21
12.711893653108246
 31
0.0
  0
LINE
  5
3E
330
17
100
AcDbEntity
  8
0
100
AcDbLine
 10
44.246466265204006
 20
12.711893653108246
 30
0.0
 11
44.008505322141005
 21
12.707050432805245
 31
0.0
  0
LINE
  5
3F
330
17
100
AcDbEntity
  8
0
100
AcDbLine
 10
44.008505322141005
 20
12.707050432805245
 30
0.0
 11
43.770980058464005
 21
12.701956529660245
 31
0.0
  0
LINE
  5
40
330
17
100
AcDbEntity
  8
0
100
AcDbLine
 10
43.770980058464005
 20
12.701956529660245
 30
0.0
 11
43.53390963519401
 21
12.696608729296246
 31
0.0
  0
LINE
  5
41
330
17
100
AcDbEntity
  8
0
100
AcDbLine
 10
43.53390963519401
 20
12.696608729296246
 30
0.0
 11
43.297312844984006
 21
12.691003923748246
 31
0.0
  0
LINE
  5
42
330
17
100
AcDbEntity
  8
0
100
AcDbLine
 10
43.297312844984006
 20
12.691003923748246
 30
0.0
 11
43.061207992905
 21
12.685139104299244
 31
2.842170943040401e-14
  0
LINE
  5
43
330
17
100
AcDbEntity
  8
0
100
AcDbLine
 10
43.061207992905
 20
12.685139104299244
 30
2.842170943040401e-14
 11
42.82561293319101
 21
12.679011531661244
 31
2.842170943040401e-14
  0
LINE
  5
44
330
17
100
AcDbEntity
  8
0
100
AcDbLine
 10
42.82561293319101
 20
12.679011531661244
 30
2.842170943040401e-14
 11
42.590545511336
 21
12.672618412706244
 31
0.0
  0
LINE
  5
45
330
17
100
AcDbEntity
  8
0
100
AcDbLine
 10
42.590545511336
 20
12.672618412706244
 30
0.0
 11
42.3560229408
 21
12.665957183390246
 31
0.0
  0
LINE
  5
46
330
17
100
AcDbEntity
  8
0
100
AcDbLine
 10
42.3560229408
 20
12.665957183390246
 30
0.0
 11
42.122062240967
 21
12.659025394000244
 31
2.842170943040401e-14
  0
LINE
  5
47
330
17
100
AcDbEntity
  8
0
100
AcDbLine
 10
42.122062240967
 20
12.659025394000244
 30
2.842170943040401e-14
 11
41.888680093685
 21
12.651820751016244
 31
2.842170943040401e-14
  0
LINE
  5
48
330
17
100
AcDbEntity
  8
0
100
AcDbLine
 10
41.888680093685
 20
12.651820751016244
 30
2.842170943040401e-14
 11
41.655892923652004
 21
12.644341104444242
 31
2.842170943040401e-14
  0
LINE
  5
49
330
17
100
AcDbEntity
  8
0
100
AcDbLine
 10
41.655892923652004
 20
12.644341104444242
 30
2.842170943040401e-14
 11
41.42371688217
 21
12.636584459264244
 31
2.842170943040401e-14
  0
LINE
  5
4A
330
17
100
AcDbEntity
  8
0
100
AcDbLine
 10
41.42371688217
 20
12.636584459264244
 30
2.842170943040401e-14
 11
41.192167897062006
 21
12.628548977295244
 31
0.0
  0
LINE
  5
4B
330
17
100
AcDbEntity
  8
0
100
AcDbLine
 10
41.192167897062006
 20
12.628548977295244
 30
0.0
 11
40.96126164227701
 21
12.620232980446245
 31
0.0
  0
LINE
  5
4C
330
17
100
AcDbEntity
  8
0
100
AcDbLine
 10
40.96126164227701
 20
12.620232980446245
 30
0.0
 11
40.731013657014
 21
12.611634959530248
 31
2.842170943040401e-14
  0
LINE
  5
4D
330
17
100
AcDbEntity
  8
0
100
AcDbLine
 10
40.731013657014
 20
12.611634959530248
 30
2.842170943040401e-14
 11
40.501439144255
 21
12.602753566455247
 31
2.842170943040401e-14
  0
LINE
  5
4E
330
17
100
AcDbEntity
  8
0
100
AcDbLine
 10
40.501439144255
 20
12.602753566455247
 30
2.842170943040401e-14
 11
40.272553479853
 21
12.593587645143247
 31
2.842170943040401e-14
  0
LINE
  5
4F
330
17
100
AcDbEntity
  8
0
100
AcDbLine
 10
40.272553479853
 20
12.593587645143247
 30
2.842170943040401e-14
 11
40.044371136186
 21
12.584136174761246
 31
2.842170943040401e-14
  0
LINE
  5
50
330
17
100
AcDbEntity
  8
0
100
AcDbLine
 10
40.044371136186
 20
12.584136174761246
 30
2.842170943040401e-14
 11
39.816908147684
 21
12.574398409227244
 31
0.0
  0
LINE
  5
51
330
17
100
AcDbEntity
  8
0
100
AcDbLine
 10
39.816908147684
 20
12.574398409227244
 30
0.0
 11
39.590176670613005
 21
12.564373577676244
 31
0.0
  0
LINE
  5
52
330
17
100
AcDbEntity
  8
0
100
AcDbLine
 10
39.590176670613005
 20
12.564373577676244
 30
0.0
 11
39.36419696373301
 21
12.554061554393245
 31
2.842170943040401e-14
  0
LINE
  5
53
330
17
100
AcDbEntity
  8
0
100
AcDbLine
 10
39.36419696373301
 20
12.554061554393245
 30
2.842170943040401e-14
 11
39.13897654991901
 21
12.543461669500244
 31
2.842170943040401e-14
  0
LINE
  5
54
330
17
100
AcDbEntity
  8
0
100
AcDbLine
 10
39.13897654991901
 20
12.543461669500244
 30
2.842170943040401e-14
 11
38.914282633759
 21
12.532561712312246
 31
2.842170943040401e-14
  0
LINE
  5
55
330
17
100
AcDbEntity
  8
0
100
AcDbLine
 10
38.914282633759
 20
12.532561712312246
 30
2.842170943040401e-14
 11
38.688813071263
 21
12.521293575437246
 31
0.0
  0
LINE
  5
56
330
17
100
AcDbEntity
  8
0
100
AcDbLine
 10
38.688813071263
 20
12.521293575437246
 30
0.0
 11
38.462472846189
 21
12.50964464123325
 31
2.842170943040401e-14
  0
LINE
  5
57
330
17
100
AcDbEntity
  8
0
100
AcDbLine
 10
38.462472846189
 20
12.50964464123325
 30
2.842170943040401e-14
 11
38.23527688616301
 21
12.497607644438245
 31
2.842170943040401e-14
  0
LINE
  5
58
330
17
100
AcDbEntity
  8
0
100
AcDbLine
 10
38.23527688616301
 20
12.497607644438245
 30
2.842170943040401e-14
 11
38.007269154935
 21
12.485177110855245
 31
2.842170943040401e-14
  0
LINE
  5
59
330
17
100
AcDbEntity
  8
0
100
AcDbLine
 10
38.007269154935
 20
12.485177110855245
 30
2.842170943040401e-14
 11
37.778478774343
 21
12.472346807777244
 31
2.842170943040401e-14
  0
LINE
  5
5A
330
17
100
AcDbEntity
  8
0
100
AcDbLine
 10
37.778478774343
 20
12.472346807777244
 30
2.842170943040401e-14
 11
37.548942223034004
 21
12.459111047785244
 31
2.842170943040401e-14
  0
LINE
  5
5B
330
17
100
AcDbEntity
  8
0
100
AcDbLine
 10
37.548942223034004
 20
12.459111047785244
 30
2.842170943040401e-14
 11
37.31869090635
 21
12.445464103383246
 31
2.842170943040401e-14
  0
LINE
  5
5C
330
17
100
AcDbEntity
  8
0
100
AcDbLine
 10
37.31869090635
 20
12.445464103383246
 30
2.842170943040401e-14
 11
37.08775745382201
 21
12.431400489735244
 31
2.842170943040401e-14
  0
LINE
  5
5D
330
17
100
AcDbEntity
  8
0
100
AcDbLine
 10
37.08775745382201
 20
12.431400489735244
 30
2.842170943040401e-14
 11
36.856173132492
 21
12.416914849959246
 31
2.842170943040401e-14
  0
LINE
  5
5E
330
17
100
AcDbEntity
  8
0
100
AcDbLine
 10
36.856173132492
 20
12.416914849959246
 30
2.842170943040401e-14
 11
36.623969018235
 21
12.402002018526245
 31
2.842170943040401e-14
  0
LINE
  5
5F
330
17
100
AcDbEntity
  8
0
100
AcDbLine
 10
36.623969018235
 20
12.402002018526245
 30
2.842170943040401e-14
 11
36.391175506215006
 21
12.386657005520243
 31
0.0
  0
LINE
  5
60
330
17
100
AcDbEntity
  8
0
100
AcDbLine
 10
36.391175506215006
 20
12.386657005520243
 30
0.0
 11
36.15782256495601
 21
12.370875016372244
 31
2.842170943040401e-14
  0
LINE
  5
61
330
17
100
AcDbEntity
  8
0
100
AcDbLine
 10
36.15782256495601
 20
12.370875016372244
 30
2.842170943040401e-14
 11
35.923939658687004
 21
12.354651455699246
 31
2.842170943040401e-14
  0
LINE
  5
62
330
17
100
AcDbEntity
  8
0
100
AcDbLine
 10
35.923939658687004
 20
12.354651455699246
 30
2.842170943040401e-14
 11
35.689555819232
 21
12.33798193833425
 31
2.842170943040401e-14
  0
LINE
  5
63
330
17
100
AcDbEntity
  8
0
100
AcDbLine
 10
35.689555819232
 20
12.33798193833425
 30
2.842170943040401e-14
 11
35.454699651861006
 21
12.320862297016246
 31
2.842170943040401e-14
  0
LINE
  5
64
330
17
100
AcDbEntity
  8
0
100
AcDbLine
 10
35.454699651861006
 20
12.320862297016246
 30
2.842170943040401e-14
 11
35.219399371730006
 21
12.303288591814242
 31
2.842170943040401e-14
  0
LINE
  5
65
330
17
100
AcDbEntity
  8
0
100
AcDbLine
 10
35.219399371730006
 20
12.303288591814242
 30
2.842170943040401e-14
 11
34.983682827229
 21
12.285257118189245
 31
0.0
  0
LINE
  5
66
330
17
100
AcDbEntity
  8
0
100
AcDbLine
 10
34.983682827229
 20
12.285257118189245
 30
0.0
 11
34.747577530629
 21
12.266764416893244
 31
0.0
  0
LINE
  5
67
330
17
100
AcDbEntity
  8
0
100
AcDbLine
 10
34.747577530629
 20
12.266764416893244
 30
0.0
 11
34.51111068474199
 21
12.247807280154246
 31
2.842170943040401e-14
  0
LINE
  5
68
330
17
100
AcDbEntity
  8
0
100
AcDbLine
 10
34.51111068474199
 20
12.247807280154246
 30
2.842170943040401e-14
 11
34.274309215364994
 21
12.228382765839244
 31
2.842170943040401e-14
  0
LINE
  5
69
330
17
100
AcDbEntity
  8
0
100
AcDbLine
 10
34.274309215364994
 20
12.228382765839244
 30
2.842170943040401e-14
 11
34.03719979441399
 21
12.208488193681246
 31
0.0
  0
LINE
  5
6A
330
17
100
AcDbEntity
  8
0
100
AcDbLine
 10
34.03719979441399
 20
12.208488193681246
 30
0.0
 11
33.799808883349996
 21
12.188121181384245
 31
2.842170943040401e-14
  0
LINE
  5
6B
330
17
100
AcDbEntity
  8
0
100
AcDbLine
 10
33.799808883349996
 20
12.188121181384245
 30
2.842170943040401e-14
 11
33.562162757135
 21
12.167279594358247
 31
2.842170943040401e-14
  0
LINE
  5
6C
330
17
100
AcDbEntity
  8
0
100
AcDbLine
 10
33.562162757135
 20
12.167279594358247
 30
2.842170943040401e-14
 11
33.324216814208995
 21
12.145955317270248
 31
2.842170943040401e-14
  0
LINE
  5
6D
330
17
100
AcDbEntity
  8
0
100
AcDbLine
 10
33.324216814208995
 20
12.145955317270248
 30
2.842170943040401e-14
 11
33.174296834325006
 21
12.132283933436247
 31
2.842170943040401e-14
  0
LINE
  5
6E
330
17
100
AcDbEntity
  8
0
100
AcDbLine
 10
33.174296834325006
 20
12.132283933436247
 30
2.842170943040401e-14
 11
33.024232390216
 21
12.11841607398125
 31
2.842170943040401e-14
  0
LINE
  5
6F
330
17
100
AcDbEntity
  8
0
100
AcDbLine
 10
33.024232390216
 20
12.11841607398125
 30
2.842170943040401e-14
 11
32.87410034174299
 21
12.104357919917247
 31
2.842170943040401e-14
  0
LINE
  5
70
330
17
100
AcDbEntity
  8
0
100
AcDbLine
 10
32.87410034174299
 20
12.104357919917247
 30
2.842170943040401e-14
 11
32.723907186083
 21
12.090109254015244
 31
2.842170943040401e-14
  0
LINE
  5
71
330
17
100
AcDbEntity
  8
0
100
AcDbLine
 10
32.723907186083
 20
12.090109254015244
 30
2.842170943040401e-14
 11
32.573659364712
 21
12.07566991676225
 31
2.842170943040401e-14
  0
LINE
  5
72
330
17
100
AcDbEntity
  8
0
100
AcDbLine
 10
32.573659364712
 20
12.07566991676225
 30
2.842170943040401e-14
 11
32.423363335630995
 21
12.061039799425243
 31
0.0
  0
LINE
  5
73
330
17
100
AcDbEntity
  8
0
100
AcDbLine
 10
32.423363335630995
 20
12.061039799425243
 30
0.0
 11
32.27302554474301
 21
12.046218843942244
 31
0.0
  0
LINE
  5
74
330
17
100
AcDbEntity
  8
0
100
AcDbLine
 10
32.27302554474301
 20
12.046218843942244
 30
0.0
 11
32.122652456539
 21
12.031207054464245
 31
0.0
  0
LINE
  5
75
330
17
100
AcDbEntity
  8
0
100
AcDbLine
 10
32.122652456539
 20
12.031207054464245
 30
0.0
 11
31.972250514998
 21
12.016004470035247
 31
2.842170943040401e-14
  0
LINE
  5
76
330
17
100
AcDbEntity
  8
0
100
AcDbLine
 10
31.972250514998
 20
12.016004470035247
 30
2.842170943040401e-14
 11
31.82182629654
 21
12.00061123629124
 31
2.842170943040401e-14
  0
LINE
  5
77
330
17
100
AcDbEntity
  8
0
100
AcDbLine
 10
31.82182629654
 20
12.00061123629124
 30
2.842170943040401e-14
 11
31.671386210793006
 21
11.985027400970244
 31
2.842170943040401e-14
  0
LINE
  5
78
330
17
100
AcDbEntity
  8
0
100
AcDbLine
 10
31.671386210793006
 20
11.985027400970244
 30
2.842170943040401e-14
 11
31.520936548546
 21
11.969253318468246
 31
2.842170943040401e-14
  0
LINE
  5
79
330
17
100
AcDbEntity
  8
0
100
AcDbLine
 10
31.520936548546
 20
11.969253318468246
 30
2.842170943040401e-14
 11
31.370484095539002
 21
11.953289247067245
 31
0.0
  0
LINE
  5
7A
330
17
100
AcDbEntity
  8
0
100
AcDbLine
 10
31.370484095539002
 20
11.953289247067245
 30
0.0
 11
31.220035343762998
 21
11.93713550246324
 31
2.842170943040401e-14
  0
LINE
  5
7B
330
17
100
AcDbEntity
  8
0
100
AcDbLine
 10
31.220035343762998
 20
11.93713550246324
 30
2.842170943040401e-14
 11
31.069596845541998
 21
11.920792478740244
 31
2.842170943040401e-14
  0
LINE
  5
7C
330
17
100
AcDbEntity
  8
0
100
AcDbLine
 10
31.069596845541998
 20
11.920792478740244
 30
2.842170943040401e-14
 11
30.919175186215003
 21
11.904260630663247
 31
2.842170943040401e-14
  0
LINE
  5
7D
330
17
100
AcDbEntity
  8
0
100
AcDbLine
 10
30.919175186215003
 20
11.904260630663247
 30
2.842170943040401e-14
 11
30.768777020823
 21
11.887540477661245
 31
2.842170943040401e-14
  0
LINE
  5
7E
330
17
100
AcDbEntity
  8
0
100
AcDbLine
 10
30.768777020823
 20
11.887540477661245
 30
2.842170943040401e-14
 11
30.618408956868
 21
11.870632589375246
 31
0.0
  0
LINE
  5
7F
330
17
100
AcDbEntity
  8
0
100
AcDbLine
 10
30.618408956868
 20
11.870632589375246
 30
0.0
 11
30.468077821046
 21
11.85353762151925
 31
2.842170943040401e-14
  0
LINE
  5
80
330
17
100
AcDbEntity
  8
0
100
AcDbLine
 10
30.468077821046
 20
11.85353762151925
 30
2.842170943040401e-14
 11
30.317790099178
 21
11.836256240613244
 31
2.842170943040401e-14
  0
LINE
  5
81
330
17
100
AcDbEntity
  8
0
100
AcDbLine
 10
30.317790099178
 20
11.836256240613244
 30
2.842170943040401e-14
 11
30.167553390534994
 21
11.818789295946244
 31
2.842170943040401e-14
  0
LINE
  5
82
330
17
100
AcDbEntity
  8
0
100
AcDbLine
 10
30.167553390534994
 20
11.818789295946244
 30
2.842170943040401e-14
 11
30.017373155542
 21
11.801137381811246
 31
0.0
  0
LINE
  5
83
330
17
100
AcDbEntity
  8
0
100
AcDbLine
 10
30.017373155542
 20
11.801137381811246
 30
0.0
 11
29.867258530821
 21
11.783301878974244
 31
0.0
  0
LINE
  5
84
330
17
100
AcDbEntity
  8
0
100
AcDbLine
 10
29.867258530821
 20
11.783301878974244
 30
0.0
 11
29.717210288259
 21
11.765282785212245
 31
0.0
  0
LINE
  5
85
330
17
100
AcDbEntity
  8
0
100
AcDbLine
 10
29.717210288259
 20
11.765282785212245
 30
0.0
 11
29.567250921786997
 21
11.747083210730244
 31
0.0
  0
LINE
  5
86
330
17
100
AcDbEntity
  8
0
100
AcDbLine
 10
29.567250921786997
 20
11.747083210730244
 30
0.0
 11
29.4173522434
 21
11.728699558280246
 31
2.842170943040401e-14
  0
LINE
  5
87
330
17
100
AcDbEntity
  8
0
100
AcDbLine
 10
29.4173522434
 20
11.728699558280246
 30
2.842170943040401e-14
 11
29.267600269715
 21
11.710143446187244
 31
2.842170943040401e-14
  0
LINE
  5
88
330
17
100
AcDbEntity
  8
0
100
AcDbLine
 10
29.267600269715
 20
11.710143446187244
 30
2.842170943040401e-14
 11
29.117825902569
 21
11.691392719057246
 31
2.842170943040401e-14
  0
LINE
  5
89
330
17
100
AcDbEntity
  8
0
100
AcDbLine
 10
29.117825902569
 20
11.691392719057246
 30
2.842170943040401e-14
 11
28.968429378444004
 21
11.672500790275246
 31
2.842170943040401e-14
  0
LINE
  5
8A
330
17
100
AcDbEntity
  8
0
100
AcDbLine
 10
28.968429378444004
 20
11.672500790275246
 30
2.842170943040401e-14
 11
28.818557811161003
 21
11.653354882091245
 31
2.842170943040401e-14
  0
LINE
  5
8B
330
17
100
AcDbEntity
  8
0
100
AcDbLine
 10
28.818557811161003
 20
11.653354882091245
 30
2.842170943040401e-14
 11
28.669779522876002
 21
11.634163433625245
 31
2.842170943040401e-14
  0
LINE
  5
8C
330
17
100
AcDbEntity
  8
0
100
AcDbLine
 10
28.669779522876002
 20
11.634163433625245
 30
2.842170943040401e-14
 11
28.510910917965997
 21
11.613434663207245
 31
2.842170943040401e-14
  0
LINE
  5
8D
330
17
100
AcDbEntity
  8
0
100
AcDbLine
 10
28.510910917965997
 20
11.613434663207245
 30
2.842170943040401e-14
 11
28.32868507775
 21
11.589397489340245
 31
0.0
  0
LINE
  5
8E
330
17
100
AcDbEntity
  8
0
100
AcDbLine
 10
28.32868507775
 20
11.589397489340245
 30
0.0
 11
28.147129577052997
 21
11.565189842714245
 31
2.842170943040401e-14
  0
LINE
  5
8F
330
17
100
AcDbEntity
  8
0
100
AcDbLine
 10
28.147129577052997
 20
11.565189842714245
 30
2.842170943040401e-14
 11
27.9661165995
 21
11.540796138329243
 31
2.842170943040401e-14
  0
LINE
  5
90
330
17
100
AcDbEntity
  8
0
100
AcDbLine
 10
27.9661165995
 20
11.540796138329243
 30
2.842170943040401e-14
 11
27.785617354141
 21
11.516213874855245
 31
2.842170943040401e-14
  0
LINE
  5
91
330
17
100
AcDbEntity
  8
0
100
AcDbLine
 10
27.785617354141
 20
11.516213874855245
 30
2.842170943040401e-14
 11
27.605650598076995
 21
11.491446870383244
 31
2.842170943040401e-14
  0
LINE
  5
92
330
17
100
AcDbEntity
  8
0
100
AcDbLine
 10
27.605650598076995
 20
11.491446870383244
 30
2.842170943040401e-14
 11
27.426209792618994
 21
11.466495514761244
 31
2.842170943040401e-14
  0
LINE
  5
93
330
17
100
AcDbEntity
  8
0
100
AcDbLine
 10
27.426209792618994
 20
11.466495514761244
 30
2.842170943040401e-14
 11
27.247300086636
 21
11.441362191412244
 31
2.842170943040401e-14
  0
LINE
  5
94
330
17
100
AcDbEntity
  8
0
100
AcDbLine
 10
27.247300086636
 20
11.441362191412244
 30
2.842170943040401e-14
 11
27.068921836704003
 21
11.416048092078244
 31
0.0
  0
LINE
  5
95
330
17
100
AcDbEntity
  8
0
100
AcDbLine
 10
27.068921836704003
 20
11.416048092078244
 30
0.0
 11
26.891076972243003
 21
11.390554880293246
 31
2.842170943040401e-14
  0
LINE
  5
96
330
17
100
AcDbEntity
  8
0
100
AcDbLine
 10
26.891076972243003
 20
11.390554880293246
 30
2.842170943040401e-14
 11
26.713767104201
 21
11.364884198833247
 31
2.842170943040401e-14
  0
LINE
  5
97
330
17
100
AcDbEntity
  8
0
100
AcDbLine
 10
26.713767104201
 20
11.364884198833247
 30
2.842170943040401e-14
 11
26.536993284837
 21
11.339037319358246
 31
2.842170943040401e-14
  0
LINE
  5
98
330
17
100
AcDbEntity
  8
0
100
AcDbLine
 10
26.536993284837
 20
11.339037319358246
 30
2.842170943040401e-14
 11
26.360757233947997
 21
11.313016243240247
 31
2.842170943040401e-14
  0
LINE
  5
99
330
17
100
AcDbEntity
  8
0
100
AcDbLine
 10
26.360757233947997
 20
11.313016243240247
 30
2.842170943040401e-14
 11
26.185060771699998
 21
11.286822502823243
 31
2.842170943040401e-14
  0
LINE
  5
9A
330
17
100
AcDbEntity
  8
0
100
AcDbLine
 10
26.185060771699998
 20
11.286822502823243
 30
2.842170943040401e-14
 11
26.009905277969
 21
11.260457664117245
 31
2.842170943040401e-14
  0
LINE
  5
9B
330
17
100
AcDbEntity
  8
0
100
AcDbLine
 10
26.009905277969
 20
11.260457664117245
 30
2.842170943040401e-14
 11
25.83529208487
 21
11.233923288995245
 31
2.842170943040401e-14
  0
LINE
  5
9C
330
17
100
AcDbEntity
  8
0
100
AcDbLine
 10
25.83529208487
 20
11.233923288995245
 30
2.842170943040401e-14
 11
25.661274364321006
 21
11.207229005550245
 31
2.842170943040401e-14
  0
LINE
  5
9D
330
17
100
AcDbEntity
  8
0
100
AcDbLine
 10
25.661274364321006
 20
11.207229005550245
 30
2.842170943040401e-14
 11
25.422974548091997
 21
11.170267049429244
 31
2.842170943040401e-14
  0
LINE
  5
9E
330
17
100
AcDbEntity
  8
0
100
AcDbLine
 10
25.422974548091997
 20
11.170267049429244
 30
2.842170943040401e-14
 11
25.185754227195996
 21
11.133003112981244
 31
2.842170943040401e-14
  0
LINE
  5
9F
330
17
100
AcDbEntity
  8
0
100
AcDbLine
 10
25.185754227195996
 20
11.133003112981244
 30
2.842170943040401e-14
 11
24.949565175668003
 21
11.095433525085246
 31
2.842170943040401e-14
  0
LINE
  5
A0
330
17
100
AcDbEntity
  8
0
100
AcDbLine
 10
24.949565175668003
 20
11.095433525085246
 30
2.842170943040401e-14
 11
24.714411032263005
 21
11.057562521129244
 31
2.842170943040401e-14
  0
LINE
  5
A1
330
17
100
AcDbEntity
  8
0
100
AcDbLine
 10
24.714411032263005
 20
11.057562521129244
 30
2.842170943040401e-14
 11
24.480295467205
 21
11.019394460304246
 31
2.842170943040401e-14
  0
LINE
  5
A2
330
17
100
AcDbEntity
  8
0
100
AcDbLine
 10
24.480295467205
 20
11.019394460304246
 30
2.842170943040401e-14
 11
24.247222099012003
 21
10.980933669031247
 31
2.842170943040401e-14
  0
LINE
  5
A3
330
17
100
AcDbEntity
  8
0
100
AcDbLine
 10
24.247222099012003
 20
10.980933669031247
 30
2.842170943040401e-14
 11
24.015194520387997
 21
10.942184513313245
 31
2.842170943040401e-14
  0
LINE
  5
A4
330
17
100
AcDbEntity
  8
0
100
AcDbLine
 10
24.015194520387997
 20
10.942184513313245
 30
2.842170943040401e-14
 11
23.784216360584
 21
10.903151374110246
 31
2.842170943040401e-14
  0
LINE
  5
A5
330
17
100
AcDbEntity
  8
0
100
AcDbLine
 10
23.784216360584
 20
10.903151374110246
 30
2.842170943040401e-14
 11
23.554291088082
 21
10.863838539137246
 31
2.842170943040401e-14
  0
LINE
  5
A6
330
17
100
AcDbEntity
  8
0
100
AcDbLine
 10
23.554291088082
 20
10.863838539137246
 30
2.842170943040401e-14
 11
23.325420809171003
 21
10.824249928195245
 31
2.842170943040401e-14
  0
LINE
  5
A7
330
17
100
AcDbEntity
  8
0
100
AcDbLine
 10
23.325420809171003
 20
10.824249928195245
 30
2.842170943040401e-14
 11
23.097611458063003
 21
10.784391224385244
 31
2.842170943040401e-14
  0
LINE
  5
A8
330
17
100
AcDbEntity
  8
0
100
AcDbLine
 10
23.097611458063003
 20
10.784391224385244
 30
2.842170943040401e-14
 11
22.870865389740008
 21
10.744266066411244
 31
2.842170943040401e-14
  0
LINE
  5
A9
330
17
100
AcDbEntity
  8
0
100
AcDbLine
 10
22.870865389740008
 20
10.744266066411244
 30
2.842170943040401e-14
 11
22.64518590828199
 21
10.703879029353244
 31
2.842170943040401e-14
  0
LINE
  5
AA
330
17
100
AcDbEntity
  8
0
100
AcDbLine
 10
22.64518590828199
 20
10.703879029353244
 30
2.842170943040401e-14
 11
22.420576269636005
 21
10.663234487232247
 31
2.842170943040401e-14
  0
LINE
  5
AB
330
17
100
AcDbEntity
  8
0
100
AcDbLine
 10
22.420576269636005
 20
10.663234487232247
 30
2.842170943040401e-14
 11
22.19703978251
 21
10.622336933025244
 31
2.842170943040401e-14
  0
LINE
  5
AC
330
17
100
AcDbEntity
  8
0
100
AcDbLine
 10
22.19703978251
 20
10.622336933025244
 30
2.842170943040401e-14
 11
21.974579720589002
 21
10.581190839918245
 31
0.0
  0
LINE
  5
AD
330
17
100
AcDbEntity
  8
0
100
AcDbLine
 10
21.974579720589002
 20
10.581190839918245
 30
0.0
 11
21.753199224362998
 21
10.539800670628244
 31
2.842170943040401e-14
  0
LINE
  5
AE
330
17
100
AcDbEntity
  8
0
100
AcDbLine
 10
21.753199224362998
 20
10.539800670628244
 30
2.842170943040401e-14
 11
21.532901650977
 21
10.498170989124246
 31
2.842170943040401e-14
  0
LINE
  5
AF
330
17
100
AcDbEntity
  8
0
100
AcDbLine
 10
21.532901650977
 20
10.498170989124246
 30
2.842170943040401e-14
 11
21.313689735182
 21
10.456306149901247
 31
2.842170943040401e-14
  0
LINE
  5
B0
330
17
100
AcDbEntity
  8
0
100
AcDbLine
 10
21.313689735182
 20
10.456306149901247
 30
2.842170943040401e-14
 11
21.095567750521997
 21
10.414211067674247
 31
0.0
  0
LINE
  5
B1
330
17
100
AcDbEntity
  8
0
100
AcDbLine
 10
21.095567750521997
 20
10.414211067674247
 30
0.0
 11
20.878535473019998
 21
10.371888942267246
 31
0.0
  0
LINE
  5
B2
330
17
100
AcDbEntity
  8
0
100
AcDbLine
 10
20.878535473019998
 20
10.371888942267246
 30
0.0
 11
20.662599309241
 21
10.329345947990246
 31
0.0
  0
LINE
  5
B3
330
17
100
AcDbEntity
  8
0
100
AcDbLine
 10
20.662599309241
 20
10.329345947990246
 30
0.0
 11
20.447762001235997
 21
10.286586282192244
 31
2.842170943040401e-14
  0
LINE
  5
B4
330
17
100
AcDbEntity
  8
0
100
AcDbLine
 10
20.447762001235997
 20
10.286586282192244
 30
2.842170943040401e-14
 11
20.234025857779
 21
10.243614274453245
 31
2.842170943040401e-14
  0
LINE
  5
B5
330
17
100
AcDbEntity
  8
0
100
AcDbLine
 10
20.234025857779
 20
10.243614274453245
 30
2.842170943040401e-14
 11
20.021393689116
 21
10.200434465689247
 31
2.842170943040401e-14
  0
LINE
  5
B6
330
17
100
AcDbEntity
  8
0
100
AcDbLine
 10
20.021393689116
 20
10.200434465689247
 30
2.842170943040401e-14
 11
19.809868375399997
 21
10.157051434968244
 31
2.842170943040401e-14
  0
LINE
  5
B7
330
17
100
AcDbEntity
  8
0
100
AcDbLine
 10
19.809868375399997
 20
10.157051434968244
 30
2.842170943040401e-14
 11
19.599452765162003
 21
10.113469760627245
 31
2.842170943040401e-14
  0
LINE
  5
B8
330
17
100
AcDbEntity
  8
0
100
AcDbLine
 10
19.599452765162003
 20
10.113469760627245
 30
2.842170943040401e-14
 11
19.390149623113
 21
10.069694033167247
 31
2.842170943040401e-14
  0
LINE
  5
B9
330
17
100
AcDbEntity
  8
0
100
AcDbLine
 10
19.390149623113
 20
10.069694033167247
 30
2.842170943040401e-14
 11
19.181961788048998
 21
10.025728845534244
 31
2.842170943040401e-14
  0
LINE
  5
BA
330
17
100
AcDbEntity
  8
0
100
AcDbLine
 10
19.181961788048998
 20
10.025728845534244
 30
2.842170943040401e-14
 11
18.974891811514002
 21
9.981578806932246
 31
2.842170943040401e-14
  0
LINE
  5
BB
330
17
100
AcDbEntity
  8
0
100
AcDbLine
 10
18.974891811514002
 20
9.981578806932246
 30
2.842170943040401e-14
 11
18.768942630308008
 21
9.937248485774246
 31
2.842170943040401e-14
  0
LINE
  5
BC
330
17
100
AcDbEntity
  8
0
100
AcDbLine
 10
18.768942630308008
 20
9.937248485774246
 30
2.842170943040401e-14
 11
18.56402794737301
 21
9.892723311702246
 31
2.842170943040401e-14
  0
LINE
  5
BD
330
17
100
AcDbEntity
  8
0
100
AcDbLine
 10
18.56402794737301
 20
9.892723311702246
 30
2.842170943040401e-14
 11
18.46106522925199
 21
9.870192202515247
 31
2.842170943040401e-14
  0
LINE
  5
BE
330
17
100
AcDbEntity
  8
0
100
AcDbLine
 10
18.46106522925199
 20
9.870192202515247
 30
2.842170943040401e-14
 11
18.358326537304
 21
9.847604308485247
 31
2.842170943040401e-14
  0
LINE
  5
BF
330
17
100
AcDbEntity
  8
0
100
AcDbLine
 10
18.358326537304
 20
9.847604308485247
 30
2.842170943040401e-14
 11
18.255077527202
 21
9.824792654140245
 31
0.0
  0
LINE
  5
C0
330
17
100
AcDbEntity
  8
0
100
AcDbLine
 10
18.255077527202
 20
9.824792654140245
 30
0.0
 11
18.150809897916
 21
9.801638629758246
 31
2.842170943040401e-14
  0
LINE
  5
C1
330
17
100
AcDbEntity
  8
0
100
AcDbLine
 10
18.150809897916
 20
9.801638629758246
 30
2.842170943040401e-14
 11
17.938817152162
 21
9.754200156385243
 31
2.842170943040401e-14
  0
LINE
  5
C2
330
17
100
AcDbEntity
  8
0
100
AcDbLine
 10
17.938817152162
 20
9.754200156385243
 30
2.842170943040401e-14
 11
17.722821203095993
 21
9.705363454580246
 31
2.842170943040401e-14
  0
LINE
  5
C3
330
17
100
AcDbEntity
  8
0
100
AcDbLine
 10
17.722821203095993
 20
9.705363454580246
 30
2.842170943040401e-14
 11
17.613585306584003
 21
9.680471003315246
 31
2.842170943040401e-14
  0
LINE
  5
C4
330
17
100
AcDbEntity
  8
0
100
AcDbLine
 10
17.613585306584003
 20
9.680471003315246
 30
2.842170943040401e-14
 11
17.503349056837994
 21
9.655218157923246
 31
2.842170943040401e-14
  0
LINE
  5
C5
330
17
100
AcDbEntity
  8
0
100
AcDbLine
 10
17.503349056837994
 20
9.655218157923246
 30
2.842170943040401e-14
 11
17.392259464930998
 21
9.629635011442245
 31
2.842170943040401e-14
  0
LINE
  5
C6
330
17
100
AcDbEntity
  8
0
100
AcDbLine
 10
17.392259464930998
 20
9.629635011442245
 30
2.842170943040401e-14
 11
17.280466383187
 21
9.603752852111244
 31
2.842170943040401e-14
  0
LINE
  5
C7
330
17
100
AcDbEntity
  8
0
100
AcDbLine
 10
17.280466383187
 20
9.603752852111244
 30
2.842170943040401e-14
 11
17.054225268443997
 21
9.550952728999244
 31
2.842170943040401e-14
  0
LINE
  5
C8
330
17
100
AcDbEntity
  8
0
100
AcDbLine
 10
17.054225268443997
 20
9.550952728999244
 30
2.842170943040401e-14
 11
16.825121345095003
 21
9.496906145637245
 31
0.0
  0
LINE
  5
C9
330
17
100
AcDbEntity
  8
0
100
AcDbLine
 10
16.825121345095003
 20
9.496906145637245
 30
0.0
 11
16.709758415756998
 21
9.469469459069247
 31
2.842170943040401e-14
  0
LINE
  5
CA
330
17
100
AcDbEntity
  8
0
100
AcDbLine
 10
16.709758415756998
 20
9.469469459069247
 30
2.842170943040401e-14
 11
16.593605618153997
 21
9.441694191643245
 31
2.842170943040401e-14
  0
LINE
  5
CB
330
17
100
AcDbEntity
  8
0
100
AcDbLine
 10
16.593605618153997
 20
9.441694191643245
 30
2.842170943040401e-14
 11
16.535399889318004
 21
9.427718479526247
 31
2.842170943040401e-14
  0
LINE
  5
CC
330
17
100
AcDbEntity
  8
0
100
AcDbLine
 10
16.535399889318004
 20
9.427718479526247
 30
2.842170943040401e-14
 11
16.477054200374003
 21
9.413670819262245
 31
2.842170943040401e-14
  0
LINE
  5
CD
330
17
100
AcDbEntity
  8
0
100
AcDbLine
 10
16.477054200374003
 20
9.413670819262245
 30
2.842170943040401e-14
 11
16.359778540285003
 21
9.385318766601246
 31
0.0
  0
LINE
  5
CE
330
17
100
AcDbEntity
  8
0
100
AcDbLine
 10
16.359778540285003
 20
9.385318766601246
 30
0.0
 11
16.24205244058
 21
9.356701078583244
 31
0.0
  0
LINE
  5
CF
330
17
100
AcDbEntity
  8
0
100
AcDbLine
 10
16.24205244058
 20
9.356701078583244
 30
0.0
 11
16.123847144476
 21
9.327808152691246
 31
0.0
  0
LINE
  5
D0
330
17
100
AcDbEntity
  8
0
100
AcDbLine
 10
16.123847144476
 20
9.327808152691246
 30
0.0
 11
16.005197736066993
 21
9.298646368584246
 31
2.842170943040401e-14
  0
LINE
  5
D1
330
17
100
AcDbEntity
  8
0
100
AcDbLine
 10
16.005197736066993
 20
9.298646368584246
 30
2.842170943040401e-14
 11
15.886261812801
 21
9.269252014671244
 31
2.842170943040401e-14
  0
LINE
  5
D2
330
17
100
AcDbEntity
  8
0
100
AcDbLine
 10
15.886261812801
 20
9.269252014671244
 30
2.842170943040401e-14
 11
15.646911080319999
 21
9.209604212851245
 31
0.0
  0
LINE
  5
D3
330
17
100
AcDbEntity
  8
0
100
AcDbLine
 10
15.646911080319999
 20
9.209604212851245
 30
0.0
 11
15.406418571954998
 21
9.149001356398246
 31
2.842170943040401e-14
  0
LINE
  5
D4
330
17
100
AcDbEntity
  8
0
100
AcDbLine
 10
15.406418571954998
 20
9.149001356398246
 30
2.842170943040401e-14
 11
15.164910076534003
 21
9.087459752349245
 31
2.842170943040401e-14
  0
LINE
  5
D5
330
17
100
AcDbEntity
  8
0
100
AcDbLine
 10
15.164910076534003
 20
9.087459752349245
 30
2.842170943040401e-14
 11
14.922630832363001
 21
9.025027615625246
 31
2.842170943040401e-14
  0
LINE
  5
D6
330
17
100
AcDbEntity
  8
0
100
AcDbLine
 10
14.922630832363001
 20
9.025027615625246
 30
2.842170943040401e-14
 11
14.67982159053999
 21
8.961754463649244
 31
2.842170943040401e-14
  0
LINE
  5
D7
330
17
100
AcDbEntity
  8
0
100
AcDbLine
 10
14.67982159053999
 20
8.961754463649244
 30
2.842170943040401e-14
 11
14.436718675910999
 21
8.897691104100245
 31
2.842170943040401e-14
  0
LINE
  5
D8
330
17
100
AcDbEntity
  8
0
100
AcDbLine
 10
14.436718675910999
 20
8.897691104100245
 30
2.842170943040401e-14
 11
14.193551312713002
 21
8.832888663817245
 31
2.842170943040401e-14
  0
LINE
  5
D9
330
17
100
AcDbEntity
  8
0
100
AcDbLine
 10
14.193551312713002
 20
8.832888663817245
 30
2.842170943040401e-14
 11
13.950306948976003
 21
8.767335756291244
 31
2.842170943040401e-14
  0
LINE
  5
DA
330
17
100
AcDbEntity
  8
0
100
AcDbLine
 10
13.950306948976003
 20
8.767335756291244
 30
2.842170943040401e-14
 11
13.920190948004002
 21
8.759168263500245
 31
0.0
  0
LINE
  5
DB
330
17
100
AcDbEntity
  8
0
100
AcDbLine
 10
13.920190948004002
 20
8.759168263500245
 30
0.0
 11
13.889876081409003
 21
8.750935307460244
 31
0.0
  0
LINE
  5
DC
330
17
100
AcDbEntity
  8
0
100
AcDbLine
 10
13.889876081409003
 20
8.750935307460244
 30
0.0
 11
13.829165184948
 21
8.734412824127245
 31
2.842170943040401e-14
  0
LINE
  5
DD
330
17
100
AcDbEntity
  8
0
100
AcDbLine
 10
13.829165184948
 20
8.734412824127245
 30
2.842170943040401e-14
 11
13.768467956262999
 21
8.717847844539245
 31
2.842170943040401e-14
  0
LINE
  5
DE
330
17
100
AcDbEntity
  8
0
100
AcDbLine
 10
13.768467956262999
 20
8.717847844539245
 30
2.842170943040401e-14
 11
13.753363056881998
 21
8.713718319093244
 31
0.0
  0
LINE
  5
DF
330
17
100
AcDbEntity
  8
0
100
AcDbLine
 10
13.753363056881998
 20
8.713718319093244
 30
0.0
 11
13.738225596019003
 21
8.709576997595244
 31
0.0
  0
LINE
  5
E0
330
17
100
AcDbEntity
  8
0
100
AcDbLine
 10
13.738225596019003
 20
8.709576997595244
 30
0.0
 11
13.708009301207998
 21
8.701301776156244
 31
2.842170943040401e-14
  0
LINE
  5
E1
330
17
100
AcDbEntity
  8
0
100
AcDbLine
 10
13.708009301207998
 20
8.701301776156244
 30
2.842170943040401e-14
 11
13.586797370750002
 21
8.667990077673243
 31
2.842170943040401e-14
  0
LINE
  5
E2
330
17
100
AcDbEntity
  8
0
100
AcDbLine
 10
13.586797370750002
 20
8.667990077673243
 30
2.842170943040401e-14
 11
13.465865051393
 21
8.634569608535246
 31
2.842170943040401e-14
  0
LINE
  5
E3
330
17
100
AcDbEntity
  8
0
100
AcDbLine
 10
13.465865051393
 20
8.634569608535246
 30
2.842170943040401e-14
 11
13.345134238385999
 21
8.601018578163243
 31
2.842170943040401e-14
  0
LINE
  5
E4
330
17
100
AcDbEntity
  8
0
100
AcDbLine
 10
13.345134238385999
 20
8.601018578163243
 30
2.842170943040401e-14
 11
13.224629618121998
 21
8.567343682099244
 31
2.842170943040401e-14
  0
LINE
  5
E5
330
17
100
AcDbEntity
  8
0
100
AcDbLine
 10
13.224629618121998
 20
8.567343682099244
 30
2.842170943040401e-14
 11
13.104376298593
 21
8.533551950340245
 31
2.842170943040401e-14
  0
LINE
  5
E6
330
17
100
AcDbEntity
  8
0
100
AcDbLine
 10
13.104376298593
 20
8.533551950340245
 30
2.842170943040401e-14
 11
12.984538294595001
 21
8.499689823777244
 31
2.842170943040401e-14
  0
LINE
  5
E7
330
17
100
AcDbEntity
  8
0
100
AcDbLine
 10
12.984538294595001
 20
8.499689823777244
 30
2.842170943040401e-14
 11
12.745380156109999
 21
8.431550358340244
 31
2.842170943040401e-14
  0
LINE
  5
E8
330
17
100
AcDbEntity
  8
0
100
AcDbLine
 10
12.745380156109999
 20
8.431550358340244
 30
2.842170943040401e-14
 11
12.507752938885002
 21
8.363097101263245
 31
2.842170943040401e-14
  0
LINE
  5
E9
330
17
100
AcDbEntity
  8
0
100
AcDbLine
 10
12.507752938885002
 20
8.363097101263245
 30
2.842170943040401e-14
 11
12.271700018459999
 21
8.294347644616247
 31
2.842170943040401e-14
  0
LINE
  5
EA
330
17
100
AcDbEntity
  8
0
100
AcDbLine
 10
12.271700018459999
 20
8.294347644616247
 30
2.842170943040401e-14
 11
12.037258020427
 21
8.225318528227247
 31
2.842170943040401e-14
  0
LINE
  5
EB
330
17
100
AcDbEntity
  8
0
100
AcDbLine
 10
12.037258020427
 20
8.225318528227247
 30
2.842170943040401e-14
 11
11.920954346368998
 21
8.190793537654246
 31
0.0
  0
LINE
  5
EC
330
17
100
AcDbEntity
  8
0
100
AcDbLine
 10
11.920954346368998
 20
8.190793537654246
 30
0.0
 11
11.805009590588003
 21
8.156188519947245
 31
0.0
  0
LINE
  5
ED
330
17
100
AcDbEntity
  8
0
100
AcDbLine
 10
11.805009590588003
 20
8.156188519947245
 30
0.0
 11
11.689586647643
 21
8.121553129594245
 31
2.842170943040401e-14
  0
LINE
  5
EE
330
17
100
AcDbEntity
  8
0
100
AcDbLine
 10
11.689586647643
 20
8.121553129594245
 30
2.842170943040401e-14
 11
11.574705710789
 21
8.086894787439244
 31
2.842170943040401e-14
  0
LINE
  5
EF
330
17
100
AcDbEntity
  8
0
100
AcDbLine
 10
11.574705710789
 20
8.086894787439244
 30
2.842170943040401e-14
 11
11.460386205734
 21
8.052220784220244
 31
2.842170943040401e-14
  0
LINE
  5
F0
330
17
100
AcDbEntity
  8
0
100
AcDbLine
 10
11.460386205734
 20
8.052220784220244
 30
2.842170943040401e-14
 11
11.346647537165001
 21
8.017538561321244
 31
2.842170943040401e-14
  0
LINE
  5
F1
330
17
100
AcDbEntity
  8
0
100
AcDbLine
 10
11.346647537165001
 20
8.017538561321244
 30
2.842170943040401e-14
 11
11.233508022486003
 21
7.982855307150244
 31
2.842170943040401e-14
  0
LINE
  5
F2
330
17
100
AcDbEntity
  8
0
100
AcDbLine
 10
11.233508022486003
 20
7.982855307150244
 30
2.842170943040401e-14
 11
11.120970574253999
 21
7.948173664593247
 31
2.842170943040401e-14
  0
LINE
  5
F3
330
17
100
AcDbEntity
  8
0
100
AcDbLine
 10
11.120970574253999
 20
7.948173664593247
 30
2.842170943040401e-14
 11
11.021896594191002
 21
7.917489031196245
 31
2.842170943040401e-14
  0
LINE
  5
F4
330
17
100
AcDbEntity
  8
0
100
AcDbLine
 10
11.021896594191002
 20
7.917489031196245
 30
2.842170943040401e-14
 11
10.923317027467998
 21
7.886815189118247
 31
2.842170943040401e-14
  0
LINE
  5
F5
330
17
100
AcDbEntity
  8
0
100
AcDbLine
 10
10.923317027467998
 20
7.886815189118247
 30
2.842170943040401e-14
 11
10.825260694772997
 21
7.856162498827244
 31
2.842170943040401e-14
  0
LINE
  5
F6
330
17
100
AcDbEntity
  8
0
100
AcDbLine
 10
10.825260694772997
 20
7.856162498827244
 30
2.842170943040401e-14
 11
10.727739097095
 21
7.825535966575247
 31
2.842170943040401e-14
  0
LINE
  5
F7
330
17
100
AcDbEntity
  8
0
100
AcDbLine
 10
10.727739097095
 20
7.825535966575247
 30
2.842170943040401e-14
 11
10.630763723341001
 21
7.794940688506246
 31
2.842170943040401e-14
  0
LINE
  5
F8
330
17
100
AcDbEntity
  8
0
100
AcDbLine
 10
10.630763723341001
 20
7.794940688506246
 30
2.842170943040401e-14
 11
10.534345847374002
 21
7.764381759583246
 31
2.842170943040401e-14
  0
LINE
  5
F9
330
17
100
AcDbEntity
  8
0
100
AcDbLine
 10
10.534345847374002
 20
7.764381759583246
 30
2.842170943040401e-14
 11
10.438496220880001
 21
7.733864162631244
 31
2.842170943040401e-14
  0
LINE
  5
FA
330
17
100
AcDbEntity
  8
0
100
AcDbLine
 10
10.438496220880001
 20
7.733864162631244
 30
2.842170943040401e-14
 11
10.343163568007999
 21
7.703373127961244
 31
2.842170943040401e-14
  0
LINE
  5
FB
330
17
100
AcDbEntity
  8
0
100
AcDbLine
 10
10.343163568007999
 20
7.703373127961244
 30
2.842170943040401e-14
 11
10.295810194767999
 21
7.688176161212246
 31
2.842170943040401e-14
  0
LINE
  5
FC
330
17
100
AcDbEntity
  8
0
100
AcDbLine
 10
10.295810194767999
 20
7.688176161212246
 30
2.842170943040401e-14
 11
10.248604254905
 21
7.672992323458244
 31
2.842170943040401e-14
  0
LINE
  5
FD
330
17
100
AcDbEntity
  8
0
100
AcDbLine
 10
10.248604254905
 20
7.672992323458244
 30
2.842170943040401e-14
 11
10.154367475028
 21
7.642578914936246
 31
2.842170943040401e-14
  0
LINE
  5
FE
330
17
100
AcDbEntity
  8
0
100
AcDbLine
 10
10.154367475028
 20
7.642578914936246
 30
2.842170943040401e-14
 11
10.131035048612002
 21
7.635027548829244
 31
2.842170943040401e-14
  0
LINE
  5
FF
330
17
100
AcDbEntity
  8
0
100
AcDbLine
 10
10.131035048612002
 20
7.635027548829244
 30
2.842170943040401e-14
 11
10.107646664208001
 21
7.627449605843244
 31
0.0
  0
LINE
  5
100
330
17
100
AcDbEntity
  8
0
100
AcDbLine
 10
10.107646664208001
 20
7.627449605843244
 30
0.0
 11
10.084281018774998
 21
7.6198705688192465
 31
2.842170943040401e-14
  0
LINE
  5
101
330
17
100
AcDbEntity
  8
0
100
AcDbLine
 10
10.084281018774998
 20
7.6198705688192465
 30
2.842170943040401e-14
 11
10.072635825526003
 21
7.6160900921522465
 31
2.842170943040401e-14
  0
LINE
  5
102
330
17
100
AcDbEntity
  8
0
100
AcDbLine
 10
10.072635825526003
 20
7.6160900921522465
 30
2.842170943040401e-14
 11
10.061092925111002
 21
7.612340742803246
 31
0.0
  0
LINE
  5
103
330
17
100
AcDbEntity
  8
0
100
AcDbLine
 10
10.061092925111002
 20
7.612340742803246
 30
0.0
 11
9.968131652773
 21
7.582069933818245
 31
2.842170943040401e-14
  0
LINE
  5
104
330
17
100
AcDbEntity
  8
0
100
AcDbLine
 10
9.968131652773
 20
7.582069933818245
 30
2.842170943040401e-14
 11
9.875908540393002
 21
7.551906111848245
 31
2.842170943040401e-14
  0
LINE
  5
105
330
17
100
AcDbEntity
  8
0
100
AcDbLine
 10
9.875908540393002
 20
7.551906111848245
 30
2.842170943040401e-14
 11
9.784231894270999
 21
7.521788572656247
 31
2.842170943040401e-14
  0
LINE
  5
106
330
17
100
AcDbEntity
  8
0
100
AcDbLine
 10
9.784231894270999
 20
7.521788572656247
 30
2.842170943040401e-14
 11
9.761528684325999
 21
7.514309552410245
 31
2.842170943040401e-14
  0
LINE
  5
107
330
17
100
AcDbEntity
  8
0
100
AcDbLine
 10
9.761528684325999
 20
7.514309552410245
 30
2.842170943040401e-14
 11
9.738803103200002
 21
7.506814956932244
 31
2.842170943040401e-14
  0
LINE
  5
108
330
17
100
AcDbEntity
  8
0
100
AcDbLine
 10
9.738803103200002
 20
7.506814956932244
 30
2.842170943040401e-14
 11
9.693443896602997
 21
7.491831606478245
 31
2.842170943040401e-14
  0
LINE
  5
109
330
17
100
AcDbEntity
  8
0
100
AcDbLine
 10
9.693443896602997
 20
7.491831606478245
 30
2.842170943040401e-14
 11
9.603222627375
 21
7.461931831661245
 31
2.842170943040401e-14
  0
LINE
  5
10A
330
17
100
AcDbEntity
  8
0
100
AcDbLine
 10
9.603222627375
 20
7.461931831661245
 30
2.842170943040401e-14
 11
9.424552472896
 21
7.402334881062243
 31
2.842170943040401e-14
  0
LINE
  5
10B
330
17
100
AcDbEntity
  8
0
100
AcDbLine
 10
9.424552472896
 20
7.402334881062243
 30
2.842170943040401e-14
 11
9.248548337389
 21
7.343121547162246
 31
2.842170943040401e-14
  0
LINE
  5
10C
330
17
100
AcDbEntity
  8
0
100
AcDbLine
 10
9.248548337389
 20
7.343121547162246
 30
2.842170943040401e-14
 11
9.205204097411002
 21
7.3284611666292445
 31
2.842170943040401e-14
  0
LINE
  5
10D
330
17
100
AcDbEntity
  8
0
100
AcDbLine
 10
9.205204097411002
 20
7.3284611666292445
 30
2.842170943040401e-14
 11
9.161804243949003
 21
7.313750911774244
 31
2.842170943040401e-14
  0
LINE
  5
10E
330
17
100
AcDbEntity
  8
0
100
AcDbLine
 10
9.161804243949003
 20
7.313750911774244
 30
2.842170943040401e-14
 11
9.151030902885001
 21
7.3100944924002444
 31
2.842170943040401e-14
  0
LINE
  5
10F
330
17
100
AcDbEntity
  8
0
100
AcDbLine
 10
9.151030902885001
 20
7.3100944924002444
 30
2.842170943040401e-14
 11
9.145636818064997
 21
7.308263041841245
 31
2.842170943040401e-14
  0
LINE
  5
110
330
17
100
AcDbEntity
  8
0
100
AcDbLine
 10
9.145636818064997
 20
7.308263041841245
 30
2.842170943040401e-14
 11
9.140260459104002
 21
7.306437129977246
 31
2.842170943040401e-14
  0
LINE
  5
111
330
17
100
AcDbEntity
  8
0
100
AcDbLine
 10
9.140260459104002
 20
7.306437129977246
 30
2.842170943040401e-14
 11
9.118669473009998
 21
7.299099624255247
 31
2.842170943040401e-14
  0
LINE
  5
112
330
17
100
AcDbEntity
  8
0
100
AcDbLine
 10
9.118669473009998
 20
7.299099624255247
 30
2.842170943040401e-14
 11
9.097145683685003
 21
7.291777284904244
 31
2.842170943040401e-14
  0
LINE
  5
113
330
17
100
AcDbEntity
  8
0
100
AcDbLine
 10
9.097145683685003
 20
7.291777284904244
 30
2.842170943040401e-14
 11
9.075756128950001
 21
7.284492987776245
 31
2.842170943040401e-14
  0
LINE
  5
114
330
17
100
AcDbEntity
  8
0
100
AcDbLine
 10
9.075756128950001
 20
7.284492987776245
 30
2.842170943040401e-14
 11
8.990110173826
 21
7.255250031028245
 31
2.842170943040401e-14
  0
LINE
  5
115
330
17
100
AcDbEntity
  8
0
100
AcDbLine
 10
8.990110173826
 20
7.255250031028245
 30
2.842170943040401e-14
 11
8.968944996999003
 21
7.248004485113244
 31
2.842170943040401e-14
  0
LINE
  5
116
330
17
100
AcDbEntity
  8
0
100
AcDbLine
 10
8.968944996999003
 20
7.248004485113244
 30
2.842170943040401e-14
 11
8.947763366786997
 21
7.2407457805012445
 31
2.842170943040401e-14
  0
LINE
  5
117
330
17
100
AcDbEntity
  8
0
100
AcDbLine
 10
8.947763366786997
 20
7.2407457805012445
 30
2.842170943040401e-14
 11
8.905416891353997
 21
7.226211632350244
 31
2.842170943040401e-14
  0
LINE
  5
118
330
17
100
AcDbEntity
  8
0
100
AcDbLine
 10
8.905416891353997
 20
7.226211632350244
 30
2.842170943040401e-14
 11
8.884371047901997
 21
7.218977062121246
 31
2.842170943040401e-14
  0
LINE
  5
119
330
17
100
AcDbEntity
  8
0
100
AcDbLine
 10
8.884371047901997
 20
7.218977062121246
 30
2.842170943040401e-14
 11
8.863340337264997
 21
7.211740243788244
 31
0.0
  0
LINE
  5
11A
330
17
100
AcDbEntity
  8
0
100
AcDbLine
 10
8.863340337264997
 20
7.211740243788244
 30
0.0
 11
8.842355025272003
 21
7.204511617561247
 31
2.842170943040401e-14
  0
LINE
  5
11B
330
17
100
AcDbEntity
  8
0
100
AcDbLine
 10
8.842355025272003
 20
7.204511617561247
 30
2.842170943040401e-14
 11
8.821444980492
 21
7.197301523385244
 31
2.842170943040401e-14
  0
LINE
  5
11C
330
17
100
AcDbEntity
  8
0
100
AcDbLine
 10
8.821444980492
 20
7.197301523385244
 30
2.842170943040401e-14
 11
8.779673705689003
 21
7.1828760680752435
 31
2.842170943040401e-14
  0
LINE
  5
11D
330
17
100
AcDbEntity
  8
0
100
AcDbLine
 10
8.779673705689003
 20
7.1828760680752435
 30
2.842170943040401e-14
 11
8.738064079553002
 21
7.168477061059244
 31
2.842170943040401e-14
  0
LINE
  5
11E
330
17
100
AcDbEntity
  8
0
100
AcDbLine
 10
8.738064079553002
 20
7.168477061059244
 30
2.842170943040401e-14
 11
8.732934451742
 21
7.166699910209244
 31
2.842170943040401e-14
  0
LINE
  5
11F
330
17
100
AcDbEntity
  8
0
100
AcDbLine
 10
8.732934451742
 20
7.166699910209244
 30
2.842170943040401e-14
 11
8.727755249164002
 21
7.1649051260252445
 31
2.842170943040401e-14
  0
LINE
  5
120
330
17
100
AcDbEntity
  8
0
100
AcDbLine
 10
8.727755249164002
 20
7.1649051260252445
 30
2.842170943040401e-14
 11
8.722578903751998
 21
7.1631108768222465
 31
2.842170943040401e-14
  0
LINE
  5
121
330
17
100
AcDbEntity
  8
0
100
AcDbLine
 10
8.722578903751998
 20
7.1631108768222465
 30
2.842170943040401e-14
 11
8.717412798952001
 21
7.161319721790244
 31
2.842170943040401e-14
  0
LINE
  5
122
330
17
100
AcDbEntity
  8
0
100
AcDbLine
 10
8.717412798952001
 20
7.161319721790244
 30
2.842170943040401e-14
 11
8.707067124652003
 21
7.157731381473246
 31
2.842170943040401e-14
  0
LINE
  5
123
330
17
100
AcDbEntity
  8
0
100
AcDbLine
 10
8.707067124652003
 20
7.157731381473246
 30
2.842170943040401e-14
 11
8.696755218841997
 21
7.154152938936244
 31
2.842170943040401e-14
  0
LINE
  5
124
330
17
100
AcDbEntity
  8
0
100
AcDbLine
 10
8.696755218841997
 20
7.154152938936244
 30
2.842170943040401e-14
 11
8.676122090944997
 21
7.146987389303247
 31
2.842170943040401e-14
  0
LINE
  5
125
330
17
100
AcDbEntity
  8
0
100
AcDbLine
 10
8.676122090944997
 20
7.146987389303247
 30
2.842170943040401e-14
 11
8.655550161712998
 21
7.139835859364245
 31
2.842170943040401e-14
  0
LINE
  5
126
330
17
100
AcDbEntity
  8
0
100
AcDbLine
 10
8.655550161712998
 20
7.139835859364245
 30
2.842170943040401e-14
 11
8.635009989858002
 21
7.132688155437245
 31
2.842170943040401e-14
  0
LINE
  5
127
330
17
100
AcDbEntity
  8
0
100
AcDbLine
 10
8.635009989858002
 20
7.132688155437245
 30
2.842170943040401e-14
 11
8.624779370484003
 21
7.1291253377372445
 31
2.842170943040401e-14
  0
LINE
  5
128
330
17
100
AcDbEntity
  8
0
100
AcDbLine
 10
8.624779370484003
 20
7.1291253377372445
 30
2.842170943040401e-14
 11
8.614536334098002
 21
7.125556398866246
 31
2.842170943040401e-14
  0
LINE
  5
129
330
17
100
AcDbEntity
  8
0
100
AcDbLine
 10
8.614536334098002
 20
7.125556398866246
 30
2.842170943040401e-14
 11
8.610710876928
 21
7.124223047800244
 31
2.842170943040401e-14
  0
LINE
  5
12A
330
17
100
AcDbEntity
  8
0
100
AcDbLine
 10
8.610710876928
 20
7.124223047800244
 30
2.842170943040401e-14
 11
8.606883263954
 21
7.122888693637245
 31
2.842170943040401e-14
  0
LINE
  5
12B
330
17
100
AcDbEntity
  8
0
100
AcDbLine
 10
8.606883263954
 20
7.122888693637245
 30
2.842170943040401e-14
 11
8.599212733863997
 21
7.1202138948832445
 31
2.842170943040401e-14
  0
LINE
  5
12C
330
17
100
AcDbEntity
  8
0
100
AcDbLine
 10
8.599212733863997
 20
7.1202138948832445
 30
2.842170943040401e-14
 11
8.594112529255003
 21
7.118434838001244
 31
2.842170943040401e-14
  0
LINE
  5
12D
330
17
100
AcDbEntity
  8
0
100
AcDbLine
 10
8.594112529255003
 20
7.118434838001244
 30
2.842170943040401e-14
 11
8.589011509135002
 21
7.116655049860244
 31
2.842170943040401e-14
  0
LINE
  5
12E
330
17
100
AcDbEntity
  8
0
100
AcDbLine
 10
8.589011509135002
 20
7.116655049860244
 30
2.842170943040401e-14
 11
8.583912554486997
 21
7.114875536667244
 31
2.842170943040401e-14
  0
LINE
  5
12F
330
17
100
AcDbEntity
  8
0
100
AcDbLine
 10
8.583912554486997
 20
7.114875536667244
 30
2.842170943040401e-14
 11
8.579455107341001
 21
7.113319539921244
 31
2.842170943040401e-14
  0
LINE
  5
130
330
17
100
AcDbEntity
  8
0
100
AcDbLine
 10
8.579455107341001
 20
7.113319539921244
 30
2.842170943040401e-14
 11
8.575334624583999
 21
7.111880853797244
 31
2.842170943040401e-14
  0
LINE
  5
131
330
17
100
AcDbEntity
  8
0
100
AcDbLine
 10
8.575334624583999
 20
7.111880853797244
 30
2.842170943040401e-14
 11
8.40641441571
 21
7.052551452868245
 31
2.842170943040401e-14
  0
LINE
  5
132
330
17
100
AcDbEntity
  8
0
100
AcDbLine
 10
8.40641441571
 20
7.052551452868245
 30
2.842170943040401e-14
 11
8.326633322118997
 21
7.024402015587244
 31
2.842170943040401e-14
  0
LINE
  5
133
330
17
100
AcDbEntity
  8
0
100
AcDbLine
 10
8.326633322118997
 20
7.024402015587244
 30
2.842170943040401e-14
 11
8.160349363843
 21
6.964213461449246
 31
2.842170943040401e-14
  0
LINE
  5
134
330
17
100
AcDbEntity
  8
0
100
AcDbLine
 10
8.160349363843
 20
6.964213461449246
 30
2.842170943040401e-14
 11
7.959903645233997
 21
6.890916269307246
 31
2.842170943040401e-14
  0
LINE
  5
135
330
17
100
AcDbEntity
  8
0
100
AcDbLine
 10
7.959903645233997
 20
6.890916269307246
 30
2.842170943040401e-14
 11
7.764151116586003
 21
6.818454117597247
 31
2.842170943040401e-14
  0
LINE
  5
136
330
17
100
AcDbEntity
  8
0
100
AcDbLine
 10
7.764151116586003
 20
6.818454117597247
 30
2.842170943040401e-14
 11
7.571932321712001
 21
6.7464112486712455
 31
2.842170943040401e-14
  0
LINE
  5
137
330
17
100
AcDbEntity
  8
0
100
AcDbLine
 10
7.571932321712001
 20
6.7464112486712455
 30
2.842170943040401e-14
 11
7.4772873890320035
 21
6.710605258845247
 31
2.842170943040401e-14
  0
LINE
  5
138
330
17
100
AcDbEntity
  8
0
100
AcDbLine
 10
7.4772873890320035
 20
6.710605258845247
 30
2.842170943040401e-14
 11
7.430352634510999
 21
6.6927654796332465
 31
2.842170943040401e-14
  0
LINE
  5
139
330
17
100
AcDbEntity
  8
0
100
AcDbLine
 10
7.430352634510999
 20
6.6927654796332465
 30
2.842170943040401e-14
 11
7.383830588977997
 21
6.675027170701243
 31
2.842170943040401e-14
  0
LINE
  5
13A
330
17
100
AcDbEntity
  8
0
100
AcDbLine
 10
7.383830588977997
 20
6.675027170701243
 30
2.842170943040401e-14
 11
7.198466571428003
 21
6.603794466013246
 31
2.842170943040401e-14
  0
LINE
  5
13B
330
17
100
AcDbEntity
  8
0
100
AcDbLine
 10
7.198466571428003
 20
6.603794466013246
 30
2.842170943040401e-14
 11
7.016837113627002
 21
6.533113221688245
 31
2.842170943040401e-14
  0
LINE
  5
13C
330
17
100
AcDbEntity
  8
0
100
AcDbLine
 10
7.016837113627002
 20
6.533113221688245
 30
2.842170943040401e-14
 11
6.838608488864001
 21
6.462873648453247
 31
2.842170943040401e-14
  0
LINE
  5
13D
330
17
100
AcDbEntity
  8
0
100
AcDbLine
 10
6.838608488864001
 20
6.462873648453247
 30
2.842170943040401e-14
 11
6.663733790931001
 21
6.393076249327246
 31
2.842170943040401e-14
  0
LINE
  5
13E
330
17
100
AcDbEntity
  8
0
100
AcDbLine
 10
6.663733790931001
 20
6.393076249327246
 30
2.842170943040401e-14
 11
6.492170091652003
 21
6.323722999049245
 31
2.842170943040401e-14
  0
LINE
  5
13F
330
17
100
AcDbEntity
  8
0
100
AcDbLine
 10
6.492170091652003
 20
6.323722999049245
 30
2.842170943040401e-14
 11
6.323871649348998
 21
6.254814838414244
 31
2.842170943040401e-14
  0
LINE
  5
140
330
17
100
AcDbEntity
  8
0
100
AcDbLine
 10
6.323871649348998
 20
6.254814838414244
 30
2.842170943040401e-14
 11
6.158582814132
 21
6.186265553136245
 31
2.842170943040401e-14
  0
LINE
  5
141
330
17
100
AcDbEntity
  8
0
100
AcDbLine
 10
6.158582814132
 20
6.186265553136245
 30
2.842170943040401e-14
 11
6.077443764140998
 21
6.152289038923245
 31
2.842170943040401e-14
  0
LINE
  5
142
330
17
100
AcDbEntity
  8
0
100
AcDbLine
 10
6.077443764140998
 20
6.152289038923245
 30
2.842170943040401e-14
 11
5.997097506600998
 21
6.118427039093245
 31
2.842170943040401e-14
  0
LINE
  5
143
330
17
100
AcDbEntity
  8
0
100
AcDbLine
 10
5.997097506600998
 20
6.118427039093245
 30
2.842170943040401e-14
 11
5.838117703718002
 21
6.0507730008292455
 31
2.842170943040401e-14
  0
LINE
  5
144
330
17
100
AcDbEntity
  8
0
100
AcDbLine
 10
5.838117703718002
 20
6.0507730008292455
 30
2.842170943040401e-14
 11
5.682437681928999
 21
5.983660059470246
 31
2.842170943040401e-14
  0
LINE
  5
145
330
17
100
AcDbEntity
  8
0
100
AcDbLine
 10
5.682437681928999
 20
5.983660059470246
 30
2.842170943040401e-14
 11
5.529801273825999
 21
5.916999501685247
 31
2.842170943040401e-14
  0
LINE
  5
146
330
17
100
AcDbEntity
  8
0
100
AcDbLine
 10
5.529801273825999
 20
5.916999501685247
 30
2.842170943040401e-14
 11
5.380162994793
 21
5.850792350690245
 31
2.842170943040401e-14
  0
LINE
  5
147
330
17
100
AcDbEntity
  8
0
100
AcDbLine
 10
5.380162994793
 20
5.850792350690245
 30
2.842170943040401e-14
 11
5.2334784867619994
 21
5.785040039217245
 31
2.842170943040401e-14
  0
LINE
  5
148
330
17
100
AcDbEntity
  8
0
100
AcDbLine
 10
5.2334784867619994
 20
5.785040039217245
 30
2.842170943040401e-14
 11
5.089702757034001
 21
5.719743753608245
 31
2.842170943040401e-14
  0
LINE
  5
149
330
17
100
AcDbEntity
  8
0
100
AcDbLine
 10
5.089702757034001
 20
5.719743753608245
 30
2.842170943040401e-14
 11
4.948791019578
 21
5.654904747001247
 31
2.842170943040401e-14
  0
LINE
  5
14A
330
17
100
AcDbEntity
  8
0
100
AcDbLine
 10
4.948791019578
 20
5.654904747001247
 30
2.842170943040401e-14
 11
4.810698309336001
 21
5.590524191861245
 31
2.842170943040401e-14
  0
LINE
  5
14B
330
17
100
AcDbEntity
  8
0
100
AcDbLine
 10
4.810698309336001
 20
5.590524191861245
 30
2.842170943040401e-14
 11
4.675379651777998
 21
5.5266032416482425
 31
2.842170943040401e-14
  0
LINE
  5
14C
330
17
100
AcDbEntity
  8
0
100
AcDbLine
 10
4.675379651777998
 20
5.5266032416482425
 30
2.842170943040401e-14
 11
4.542789982928003
 21
5.463142997763246
 31
2.842170943040401e-14
  0
LINE
  5
14D
330
17
100
AcDbEntity
  8
0
100
AcDbLine
 10
4.542789982928003
 20
5.463142997763246
 30
2.842170943040401e-14
 11
4.412884179306001
 21
5.400144518262245
 31
2.842170943040401e-14
  0
LINE
  5
14E
330
17
100
AcDbEntity
  8
0
100
AcDbLine
 10
4.412884179306001
 20
5.400144518262245
 30
2.842170943040401e-14
 11
4.285617044159
 21
5.337608809262244
 31
2.842170943040401e-14
  0
LINE
  5
14F
330
17
100
AcDbEntity
  8
0
100
AcDbLine
 10
4.285617044159
 20
5.337608809262244
 30
2.842170943040401e-14
 11
4.160943300423003
 21
5.275536819739244
 31
2.842170943040401e-14
  0
LINE
  5
150
330
17
100
AcDbEntity
  8
0
100
AcDbLine
 10
4.160943300423003
 20
5.275536819739244
 30
2.842170943040401e-14
 11
4.0388176090969985
 21
5.213929443424245
 31
2.842170943040401e-14
  0
LINE
  5
151
330
17
100
AcDbEntity
  8
0
100
AcDbLine
 10
4.0388176090969985
 20
5.213929443424245
 30
2.842170943040401e-14
 11
3.9191945140449995
 21
5.1527874981622475
 31
2.842170943040401e-14
  0
LINE
  5
152
330
17
100
AcDbEntity
  8
0
100
AcDbLine
 10
3.9191945140449995
 20
5.1527874981622475
 30
2.842170943040401e-14
 11
3.8020285556880005
 21
5.092111755683245
 31
2.842170943040401e-14
  0
LINE
  5
153
330
17
100
AcDbEntity
  8
0
100
AcDbLine
 10
3.8020285556880005
 20
5.092111755683245
 30
2.842170943040401e-14
 11
3.6872740129559993
 21
5.031902862758246
 31
2.842170943040401e-14
  0
LINE
  5
154
330
17
100
AcDbEntity
  8
0
100
AcDbLine
 10
3.6872740129559993
 20
5.031902862758246
 30
2.842170943040401e-14
 11
3.574885462195997
 21
4.972161494223245
 31
2.842170943040401e-14
  0
LINE
  5
155
330
17
100
AcDbEntity
  8
0
100
AcDbLine
 10
3.574885462195997
 20
4.972161494223245
 30
2.842170943040401e-14
 11
3.4648163851239993
 21
4.912887920454246
 31
2.842170943040401e-14
  0
LINE
  5
156
330
17
100
AcDbEntity
  8
0
100
AcDbLine
 10
3.4648163851239993
 20
4.912887920454246
 30
2.842170943040401e-14
 11
3.3568542740849985
 21
4.853991460215244
 31
2.842170943040401e-14
  0
LINE
  5
157
330
17
100
AcDbEntity
  8
0
100
AcDbLine
 10
3.3568542740849985
 20
4.853991460215244
 30
2.842170943040401e-14
 11
3.288247984517998
 21
4.816164979575245
 31
2.842170943040401e-14
  0
LINE
  5
158
330
17
100
AcDbEntity
  8
0
100
AcDbLine
 10
3.288247984517998
 20
4.816164979575245
 30
2.842170943040401e-14
 11
3.2204014850650005
 21
4.7784442498362445
 31
2.842170943040401e-14
  0
LINE
  5
159
330
17
100
AcDbEntity
  8
0
100
AcDbLine
 10
3.2204014850650005
 20
4.7784442498362445
 30
2.842170943040401e-14
 11
3.1534696523449988
 21
4.740921593319245
 31
2.842170943040401e-14
  0
LINE
  5
15A
330
17
100
AcDbEntity
  8
0
100
AcDbLine
 10
3.1534696523449988
 20
4.740921593319245
 30
2.842170943040401e-14
 11
3.087747047517997
 21
4.703770400782243
 31
2.842170943040401e-14
  0
LINE
  5
15B
330
17
100
AcDbEntity
  8
0
100
AcDbLine
 10
3.087747047517997
 20
4.703770400782243
 30
2.842170943040401e-14
 11
2.9580362073060016
 21
4.629539057673245
 31
2.842170943040401e-14
  0
LINE
  5
15C
330
17
100
AcDbEntity
  8
0
100
AcDbLine
 10
2.9580362073060016
 20
4.629539057673245
 30
2.842170943040401e-14
 11
2.8320953709469983
 21
4.556277940459246
 31
2.842170943040401e-14
  0
LINE
  5
15D
330
17
100
AcDbEntity
  8
0
100
AcDbLine
 10
2.8320953709469983
 20
4.556277940459246
 30
2.842170943040401e-14
 11
2.7095032314679983
 21
4.4838050760102455
 31
2.842170943040401e-14
  0
LINE
  5
15E
330
17
100
AcDbEntity
  8
0
100
AcDbLine
 10
2.7095032314679983
 20
4.4838050760102455
 30
2.842170943040401e-14
 11
2.589858391629999
 21
4.411941448067246
 31
2.842170943040401e-14
  0
LINE
  5
15F
330
17
100
AcDbEntity
  8
0
100
AcDbLine
 10
2.589858391629999
 20
4.411941448067246
 30
2.842170943040401e-14
 11
2.5316693285559992
 21
4.376575766310246
 31
2.842170943040401e-14
  0
LINE
  5
160
330
17
100
AcDbEntity
  8
0
100
AcDbLine
 10
2.5316693285559992
 20
4.376575766310246
 30
2.842170943040401e-14
 11
2.473953840128001
 21
4.341224548439245
 31
2.842170943040401e-14
  0
LINE
  5
161
330
17
100
AcDbEntity
  8
0
100
AcDbLine
 10
2.473953840128001
 20
4.341224548439245
 30
2.842170943040401e-14
 11
2.4170010098180015
 21
4.306070714932243
 31
2.842170943040401e-14
  0
LINE
  5
162
330
17
100
AcDbEntity
  8
0
100
AcDbLine
 10
2.4170010098180015
 20
4.306070714932243
 30
2.842170943040401e-14
 11
2.3611797248909987
 21
4.271351285173246
 31
2.842170943040401e-14
  0
LINE
  5
163
330
17
100
AcDbEntity
  8
0
100
AcDbLine
 10
2.3611797248909987
 20
4.271351285173246
 30
2.842170943040401e-14
 11
2.230484021697002
 21
4.189035522642245
 31
2.842170943040401e-14
  0
LINE
  5
164
330
17
100
AcDbEntity
  8
0
100
AcDbLine
 10
2.230484021697002
 20
4.189035522642245
 30
2.842170943040401e-14
 11
2.1036552946879965
 21
4.107742826022243
 31
2.842170943040401e-14
  0
LINE
  5
165
330
17
100
AcDbEntity
  8
0
100
AcDbLine
 10
2.1036552946879965
 20
4.107742826022243
 30
2.842170943040401e-14
 11
2.0421049127639996
 21
4.067768773940244
 31
2.842170943040401e-14
  0
LINE
  5
166
330
17
100
AcDbEntity
  8
0
100
AcDbLine
 10
2.0421049127639996
 20
4.067768773940244
 30
2.842170943040401e-14
 11
1.9810946321699987
 21
4.027795777966244
 31
2.842170943040401e-14
  0
LINE
  5
167
330
17
100
AcDbEntity
  8
0
100
AcDbLine
 10
1.9810946321699987
 20
4.027795777966244
 30
2.842170943040401e-14
 11
1.9209300540560008
 21
3.988029073010246
 31
2.842170943040401e-14
  0
LINE
  5
168
330
17
100
AcDbEntity
  8
0
100
AcDbLine
 10
1.9209300540560008
 20
3.988029073010246
 30
2.842170943040401e-14
 11
1.8619206367600007
 21
3.9486822442942433
 31
2.842170943040401e-14
  0
LINE
  5
169
330
17
100
AcDbEntity
  8
0
100
AcDbLine
 10
1.8619206367600007
 20
3.9486822442942433
 30
2.842170943040401e-14
 11
1.7452378773489983
 21
3.8698513000872445
 31
2.842170943040401e-14
  0
LINE
  5
16A
330
17
100
AcDbEntity
  8
0
100
AcDbLine
 10
1.7452378773489983
 20
3.8698513000872445
 30
2.842170943040401e-14
 11
1.6318024815399994
 21
3.7918753775472442
 31
2.842170943040401e-14
  0
LINE
  5
16B
330
17
100
AcDbEntity
  8
0
100
AcDbLine
 10
1.6318024815399994
 20
3.7918753775472442
 30
2.842170943040401e-14
 11
1.5210412274799978
 21
3.7144313936852456
 31
2.842170943040401e-14
  0
LINE
  5
16C
330
17
100
AcDbEntity
  8
0
100
AcDbLine
 10
1.5210412274799978
 20
3.7144313936852456
 30
2.842170943040401e-14
 11
1.4127416891569986
 21
3.637429619182246
 31
2.842170943040401e-14
  0
LINE
  5
16D
330
17
100
AcDbEntity
  8
0
100
AcDbLine
 10
1.4127416891569986
 20
3.637429619182246
 30
2.842170943040401e-14
 11
1.3066542413859992
 21
3.5607619795012457
 31
2.842170943040401e-14
  0
LINE
  5
16E
330
17
100
AcDbEntity
  8
0
100
AcDbLine
 10
1.3066542413859992
 20
3.5607619795012457
 30
2.842170943040401e-14
 11
1.2025470323910028
 21
3.4843327436582445
 31
2.842170943040401e-14
  0
LINE
  5
16F
330
17
100
AcDbEntity
  8
0
100
AcDbLine
 10
1.2025470323910028
 20
3.4843327436582445
 30
2.842170943040401e-14
 11
1.1002045010000003
 21
3.4080477118522445
 31
2.842170943040401e-14
  0
LINE
  5
170
330
17
100
AcDbEntity
  8
0
100
AcDbLine
 10
1.1002045010000003
 20
3.4080477118522445
 30
2.842170943040401e-14
 11
0.9993748436129977
 21
3.331797279717245
 31
2.842170943040401e-14
  0
LINE
  5
171
330
17
100
AcDbEntity
  8
0
100
AcDbLine
 10
0.9993748436129977
 20
3.331797279717245
 30
2.842170943040401e-14
 11
0.8998342888849997
 21
3.2554860717452456
 31
2.842170943040401e-14
  0
LINE
  5
172
330
17
100
AcDbEntity
  8
0
100
AcDbLine
 10
0.8998342888849997
 20
3.2554860717452456
 30
2.842170943040401e-14
 11
0.8013500553550017
 21
3.179013011767246
 31
2.842170943040401e-14
  0
LINE
  5
173
330
17
100
AcDbEntity
  8
0
100
AcDbLine
 10
0.8013500553550017
 20
3.179013011767246
 30
2.842170943040401e-14
 11
0.7036932254479993
 21
3.102279796930244
 31
2.842170943040401e-14
  0
LINE
  5
174
330
17
100
AcDbEntity
  8
0
100
AcDbLine
 10
0.7036932254479993
 20
3.102279796930244
 30
2.842170943040401e-14
 11
0.6068527438659999
 21
3.0253597485352444
 31
2.842170943040401e-14
  0
LINE
  5
175
330
17
100
AcDbEntity
  8
0
100
AcDbLine
 10
0.6068527438659999
 20
3.0253597485352444
 30
2.842170943040401e-14
 11
0.5241795344660005
 21
2.958863498479243
 31
2.842170943040401e-14
  0
LINE
  5
176
330
17
100
AcDbEntity
  8
0
100
AcDbLine
 10
0.5241795344660005
 20
2.958863498479243
 30
2.842170943040401e-14
 11
0.42925063249600015
 21
2.8814581573752456
 31
2.842170943040401e-14
  0
LINE
  5
177
330
17
100
AcDbEntity
  8
0
100
AcDbLine
 10
0.42925063249600015
 20
2.8814581573752456
 30
2.842170943040401e-14
 11
0.3233385829589963
 21
2.793970418829243
 31
2.842170943040401e-14
  0
LINE
  5
178
330
17
100
AcDbEntity
  8
0
100
AcDbLine
 10
0.3233385829589963
 20
2.793970418829243
 30
2.842170943040401e-14
 11
0.20789656840900506
 21
2.6973679205582446
 31
2.842170943040401e-14
  0
LINE
  5
179
330
17
100
AcDbEntity
  8
0
100
AcDbLine
 10
0.20789656840900506
 20
2.6973679205582446
 30
2.842170943040401e-14
 11
0.08433103096700023
 21
2.5925894213162444
 31
2.842170943040401e-14
  0
LINE
  5
17A
330
17
100
AcDbEntity
  8
0
100
AcDbLine
 10
0.08433103096700023
 20
2.5925894213162444
 30
2.842170943040401e-14
 11
0.0
 21
2.5200838016422455
 31
2.842170943040401e-14
  0
LINE
  5
17B
330
17
100
AcDbEntity
  8
0
100
AcDbLine
 10
0.0
 20
2.5200838016422455
 30
2.842170943040401e-14
 11
2.1147060225249987
 21
2.038246859925245
 31
2.842170943040401e-14
  0
ENDSEC
  0
SECTION
  2
OBJECTS
  0
DICTIONARY
  5
A
330
0
100
AcDbDictionary
281
1
  3
ACAD_COLOR
350
B
  3
ACAD_GROUP
350
C
  3
ACAD_LAYOUT
350
D
  3
ACAD_MATERIAL
350
E
  3
ACAD_MLEADERSTYLE
350
F
  3
ACAD_MLINESTYLE
350
10
  3
ACAD_PLOTSETTINGS
350
11
  3
ACAD_PLOTSTYLENAME
350
12
  3
ACAD_SCALELIST
350
14
  3
ACAD_TABLESTYLE
350
15
  3
ACAD_VISUALSTYLE
350
16
  3
EZDXF_META
350
2D
  0
DICTIONARY
  5
B
330
A
100
AcDbDictionary
281
1
  0
DICTIONARY
  5
C
330
A
100
AcDbDictionary
281
1
  0
DICTIONARY
  5
D
330
A
100
AcDbDictionary
281
1
  3
Model
350
1A
  3
Layout1
350
1E
  0
DICTIONARY
  5
E
330
A
100
AcDbDictionary
281
1
  3
ByBlock
350
1F
  3
ByLayer
350
20
  3
Global
350
21
  0
DICTIONARY
  5
F
330
A
100
AcDbDictionary
281
1
  3
Standard
350
2C
  0
DICTIONARY
  5
10
330
A
100
AcDbDictionary
281
1
  3
Standard
350
22
  0
DICTIONARY
  5
11
330
A
100
AcDbDictionary
281
1
  0
ACDBDICTIONARYWDFLT
  5
12
330
A
100
AcDbDictionary
281
1
  3
Normal
350
13
100
AcDbDictionaryWithDefault
340
13
  0
ACDBPLACEHOLDER
  5
13
330
12
  0
DICTIONARY
  5
14
330
A
100
AcDbDictionary
281
1
  0
DICTIONARY
  5
15
330
A
100
AcDbDictionary
281
1
  0
DICTIONARY
  5
16
330
A
100
AcDbDictionary
281
1
  0
LAYOUT
  5
1A
330
D
100
AcDbPlotSettings
  1

  4
A3
  6

 40
7.5
 41
20.0
 42
7.5
 43
20.0
 44
420.0
 45
297.0
 46
0.0
 47
0.0
 48
0.0
 49
0.0
140
0.0
141
0.0
142
1.0
143
1.0
 70
1024
 72
1
 73
0
 74
5
  7

 75
16
 76
0
 77
2
 78
300
147
1.0
148
0.0
149
0.0
100
AcDbLayout
  1
Model
 70
1
 71
0
 10
0.0
 20
0.0
 11
420.0
 21
297.0
 12
0.0
 22
0.0
 32
0.0
 14
1e+20
 24
1e+20
 34
1e+20
 15
-1e+20
 25
-1e+20
 35
-1e+20
146
0.0
 13
0.0
 23
0.0
 33
0.0
 16
1.0
 26
0.0
 36
0.0
 17
0.0
 27
1.0
 37
0.0
 76
1
330
17
  0
LAYOUT
  5
1E
330
D
100
AcDbPlotSettings
  1

  4
A3
  6

 40
7.5
 41
20.0
 42
7.5
 43
20.0
 44
420.0
 45
297.0
 46
0.0
 47
0.0
 48
0.0
 49
0.0
140
0.0
141
0.0
142
1.0
143
1.0
 70
0
 72
1
 73
0
 74
5
  7

 75
16
 76
0
 77
2
 78
300
147
1.0
148
0.0
149
0.0
100
AcDbLayout
  1
Layout1
 70
1
 71
1
 10
0.0
 20
0.0
 11
420.0
 21
297.0
 12
0.0
 22
0.0
 32
0.0
 14
1e+20
 24
1e+20
 34
1e+20
 15
-1e+20
 25
-1e+20
 35
-1e+20
146
0.0
 13
0.0
 23
0.0
 33
0.0
 16
1.0
 26
0.0
 36
0.0
 17
0.0
 27
1.0
 37
0.0
 76
1
330
1B
  0
MATERIAL
  5
1F
102
{ACAD_REACTORS
330
E
102
}
330
E
100
AcDbMaterial
  1
ByBlock
  2

 70
0
 40
1.0
 71
1
 41
1.0
 91
-1023410177
 42
1.0
 72
1
  3

 73
1
 74
1
 75
1
 44
0.5
 73
0
 45
1.0
 46
1.0
 77
1
  4

 78
1
 79
1
170
1
 48
1.0
171
1
  6

172
1
173
1
174
1
140
1.0
141
1.0
175
1
  7

176
1
177
1
178
1
143
1.0
179
1
  8

270
1
271
1
272
1
145
1.0
146
1.0
273
1
  9

274
1
275
1
276
1
 42
1.0
 72
1
  3

 73
1
 74
1
 75
1
 94
63
  0
MATERIAL
  5
20
102
{ACAD_REACTORS
330
E
102
}
330
E
100
AcDbMaterial
  1
ByLayer
  2

 70
0
 40
1.0
 71
1
 41
1.0
 91
-1023410177
 42
1.0
 72
1
  3

 73
1
 74
1
 75
1
 44
0.5
 73
0
 45
1.0
 46
1.0
 77
1
  4

 78
1
 79
1
170
1
 48
1.0
171
1
  6

172
1
173
1
174
1
140
1.0
141
1.0
175
1
  7

176
1
177
1
178
1
143
1.0
179
1
  8

270
1
271
1
272
1
145
1.0
146
1.0
273
1
  9

274
1
275
1
276
1
 42
1.0
 72
1
  3

 73
1
 74
1
 75
1
 94
63
  0
MATERIAL
  5
21
102
{ACAD_REACTORS
330
E
102
}
330
E
100
AcDbMaterial
  1
Global
  2

 70
0
 40
1.0
 71
1
 41
1.0
 91
-1023410177
 42
1.0
 72
1
  3

 73
1
 74
1
 75
1
 44
0.5
 73
0
 45
1.0
 46
1.0
 77
1
  4

 78
1
 79
1
170
1
 48
1.0
171
1
  6

172
1
173
1
174
1
140
1.0
141
1.0
175
1
  7

176
1
177
1
178
1
143
1.0
179
1
  8

270
1
271
1
272
1
145
1.0
146
1.0
273
1
  9

274
1
275
1
276
1
 42
1.0
 72
1
  3

 73
1
 74
1
 75
1
 94
63
  0
MLINESTYLE
  5
22
102
{ACAD_REACTORS
330
10
102
}
330
10
100
AcDbMlineStyle
  2
Standard
 70
0
  3

 62
256
 51
90.0
 52
90.0
 71
2
 49
0.5
 62
256
  6
BYLAYER
 49
-0.5
 62
256
  6
BYLAYER
  0
MLEADERSTYLE
  5
2C
102
{ACAD_REACTORS
330
F
102
}
330
F
100
AcDbMLeaderStyle
179
2
170
2
171
1
172
0
 90
2
 40
0.0
 41
0.0
173
1
 91
-1056964608
 92
-2
290
1
 42
2.0
291
1
 43
8.0
  3
Standard
 44
4.0
300

342
29
174
1
175
1
176
0
178
1
 93
-1056964608
 45
4.0
292
0
297
0
 46
4.0
 94
-1056964608
 47
1.0
 49
1.0
140
1.0
294
1
141
0.0
177
0
142
1.0
295
0
296
0
143
3.75
271
0
272
9
273
9
  0
DICTIONARY
  5
2D
330
A
100
AcDbDictionary
280
1
281
1
  3
CREATED_BY_EZDXF
350
2E
  3
WRITTEN_BY_EZDXF
350
17F
  0
DICTIONARYVAR
  5
2E
330
2D
100
DictionaryVariables
280
0
  1
1.4.4 @ 2026-09-23T14:14:20.348786+00:00
  0
DICTIONARYVAR
  5
17F
330
2D
100
DictionaryVariables
280
0
  1
1.4.4 @ 2026-09-23T14:14:20.421192+00:00
  0
ENDSEC
  0
EOF
