  0
SECTION
  2
HEADER
  9
$ACADVER
  1
AC1027
  9
$ACADMAINTVER
 70
105
  9
$DWGCODEPAGE
  3
ANSI_1252
  9
$LASTSAVEDBY
  1
ezdxf
  9
$REQUIREDVERSIONS
160
0
  9
$INSBASE
 10
0.0
 20
0.0
 30
0.0
  9
$EXTMIN
 10
1e+20
 20
1e+20
 30
1e+20
  9
$EXTMAX
 10
-1e+20
 20
-1e+20
 30
-1e+20
  9
$LIMMIN
 10
0.0
 20
0.0
  9
$LIMMAX
 10
420.0
 20
297.0
  9
$ORTHOMODE
 70
0
  9
$REGENMODE
 70
1
  9
$FILLMODE
 70
1
  9
$QTEXTMODE
 70
0
  9
$MIRRTEXT
 70
1
  9
$LTSCALE
 40
1.0
  9
$ATTMODE
 70
1
  9
$TEXTSIZE
 40
2.5
  9
$TRACEWID
 40
1.0
  9
$TEXTSTYLE
  7
Standard
  9
$CLAYER
  8
0
  9
$CELTYPE
  6
ByLayer
  9
$CECOLOR
 62
256
  9
$CELTSCALE
 40
1.0
  9
$DISPSILH
 70
0
  9
$DIMSCALE
 40
1.0
  9
$DIMASZ
 40
2.5
  9
$DIMEXO
 40
0.625
  9
$DIMDLI
 40
3.75
  9
$DIMRND
 40
0.0
  9
$DIMDLE
 40
0.0
  9
$DIMEXE
 40
1.25
  9
$DIMTP
 40
0.0
  9
$DIMTM
 40
0.0
  9
$DIMTXT
 40
2.5
  9
$DIMCEN
 40
2.5
  9
$DIMTSZ
 40
0.0
  9
$DIMTOL
 70
0
  9
$DIMLIM
 70
0
  9
$DIMTIH
 70
0
  9
$DIMTOH
 70
0
  9
$DIMSE1
 70
0
  9
$DIMSE2
 70
0
  9
$DIMTAD
 70
1
  9
$DIMZIN
 70
8
  9
$DIMBLK
  1

  9
$DIMASO
 70
1
  9
$DIMSHO
 70
1
  9
$DIMPOST
  1

  9
$DIMAPOST
  1

  9
$DIMALT
 70
0
  9
$DIMALTD
 70
3
  9
$DIMALTF
 40
0.03937007874
  9
$DIMLFAC
 40
1.0
  9
$DIMTOFL
 70
1
  9
$DIMTVP
 40
0.0
  9
$DIMTIX
 70
0
  9
$DIMSOXD
 70
0
  9
$DIMSAH
 70
0
  9
$DIMBLK1
  1

  9
$DIMBLK2
  1

  9
$DIMSTYLE
  2
ISO-25
  9
$DIMCLRD
 70
0
  9
$DIMCLRE
 70
0
  9
$DIMCLRT
 70
0
  9
$DIMTFAC
 40
1.0
  9
$DIMGAP
 40
0.625
  9
$DIMJUST
 70
0
  9
$DIMSD1
 70
0
  9
$DIMSD2
 70
0
  9
$DIMTOLJ
 70
0
  9
$DIMTZIN
 70
8
  9
$DIMALTZ
 70
0
  9
$DIMALTTZ
 70
0
  9
$DIMUPT
 70
0
  9
$DIMDEC
 70
2
  9
$DIMTDEC
 70
2
  9
$DIMALTU
 70
2
  9
$DIMALTTD
 70
3
  9
$DIMTXSTY
  7
Standard
  9
$DIMAUNIT
 70
0
  9
$DIMADEC
 70
0
  9
$DIMALTRND
 40
0.0
  9
$DIMAZIN
 70
0
  9
$DIMDSEP
 70
44
  9
$DIMATFIT
 70
3
  9
$DIMFRAC
 70
0
  9
$DIMLDRBLK
  1

  9
$DIMLUNIT
 70
2
  9
$DIMLWD
 70
-2
  9
$DIMLWE
 70
-2
  9
$DIMTMOVE
 70
0
  9
$DIMFXL
 40
1.0
  9
$DIMFXLON
 70
0
  9
$DIMJOGANG
 40
0.785398163397
  9
$DIMTFILL
 70
0
  9
$DIMTFILLCLR
 70
0
  9
$DIMARCSYM
 70
0
  9
$DIMLTYPE
  6

  9
$DIMLTEX1
  6

  9
$DIMLTEX2
  6

  9
$DIMTXTDIRECTION
 70
0
  9
$LUNITS
 70
2
  9
$LUPREC
 70
4
  9
$SKETCHINC
 40
1.0
  9
$FILLETRAD
 40
10.0
  9
$AUNITS
 70
0
  9
$AUPREC
 70
2
  9
$MENU
  1
.
  9
$ELEVATION
 40
0.0
  9
$PELEVATION
 40
0.0
  9
$THICKNESS
 40
0.0
  9
$LIMCHECK
 70
0
  9
$CHAMFERA
 40
0.0
  9
$CHAMFERB
 40
0.0
  9
$CHAMFERC
 40
0.0
  9
$CHAMFERD
 40
0.0
  9
$SKPOLY
 70
0
  9
$TDCREATE
 40
2461307.351736111
  9
$TDUCREATE
 40
2458532.153996898
  9
$TDUPDATE
 40
2461307.351736111
  9
$TDUUPDATE
 40
2458532.1544311
  9
$TDINDWG
 40
0.0
  9
$TDUSRTIMER
 40
0.0
  9
$USRTIMER
 70
1
  9
$ANGBASE
 50
0.0
  9
$ANGDIR
 70
0
  9
$PDMODE
 70
0
  9
$PDSIZE
 40
0.0
  9
$PLINEWID
 40
0.0
  9
$SPLFRAME
 70
0
  9
$SPLINETYPE
 70
6
  9
$SPLINESEGS
 70
8
  9
$HANDSEED
  5
180
  9
$SURFTAB1
 70
6
  9
$SURFTAB2
 70
6
  9
$SURFTYPE
 70
6
  9
$SURFU
 70
6
  9
$SURFV
 70
6
  9
$UCSBASE
  2

  9
$UCSNAME
  2

  9
$UCSORG
 10
0.0
 20
0.0
 30
0.0
  9
$UCSXDIR
 10
1.0
 20
0.0
 30
0.0
  9
$UCSYDIR
 10
0.0
 20
1.0
 30
0.0
  9
$UCSORTHOREF
  2

  9
$UCSORTHOVIEW
 70
0
  9
$UCSORGTOP
 10
0.0
 20
0.0
 30
0.0
  9
$UCSORGBOTTOM
 10
0.0
 20
0.0
 30
0.0
  9
$UCSORGLEFT
 10
0.0
 20
0.0
 30
0.0
  9
$UCSORGRIGHT
 10
0.0
 20
0.0
 30
0.0
  9
$UCSORGFRONT
 10
0.0
 20
0.0
 30
0.0
  9
$UCSORGBACK
 10
0.0
 20
0.0
 30
0.0
  9
$PUCSBASE
  2

  9
$PUCSNAME
  2

  9
$PUCSORG
 10
0.0
 20
0.0
 30
0.0
  9
$PUCSXDIR
 10
1.0
 20
0.0
 30
0.0
  9
$PUCSYDIR
 10
0.0
 20
1.0
 30
0.0
  9
$PUCSORTHOREF
  2

  9
$PUCSORTHOVIEW
 70
0
  9
$PUCSORGTOP
 10
0.0
 20
0.0
 30
0.0
  9
$PUCSORGBOTTOM
 10
0.0
 20
0.0
 30
0.0
  9
$PUCSORGLEFT
 10
0.0
 20
0.0
 30
0.0
  9
$PUCSORGRIGHT
 10
0.0
 20
0.0
 30
0.0
  9
$PUCSORGFRONT
 10
0.0
 20
0.0
 30
0.0
  9
$PUCSORGBACK
 10
0.0
 20
0.0
 30
0.0
  9
$USERI1
 70
0
  9
$USERI2
 70
0
  9
$USERI3
 70
0
  9
$USERI4
 70
0
  9
$USERI5
 70
0
  9
$USERR1
 40
0.0
  9
$USERR2
 40
0.0
  9
$USERR3
 40
0.0
  9
$USERR4
 40
0.0
  9
$USERR5
 40
0.0
  9
$WORLDVIEW
 70
1
  9
$SHADEDGE
 70
3
  9
$SHADEDIF
 70
70
  9
$TILEMODE
 70
1
  9
$MAXACTVP
 70
64
  9
$PINSBASE
 10
0.0
 20
0.0
 30
0.0
  9
$PLIMCHECK
 70
0
  9
$PEXTMIN
 10
1e+20
 20
1e+20
 30
1e+20
  9
$PEXTMAX
 10
-1e+20
 20
-1e+20
 30
-1e+20
  9
$PLIMMIN
 10
0.0
 20
0.0
  9
$PLIMMAX
 10
420.0
 20
297.0
  9
$UNITMODE
 70
0
  9
$VISRETAIN
 70
1
  9
$PLINEGEN
 70
0
  9
$PSLTSCALE
 70
1
  9
$TREEDEPTH
 70
3020
  9
$CMLSTYLE
  2
Standard
  9
$CMLJUST
 70
0
  9
$CMLSCALE
 40
20.0
  9
$PROXYGRAPHICS
 70
1
  9
$MEASUREMENT
 70
1
  9
$CELWEIGHT
370
-1
  9
$ENDCAPS
280
0
  9
$JOINSTYLE
280
0
  9
$LWDISPLAY
290
0
  9
$INSUNITS
 70
4
  9
$HYPERLINKBASE
  1

  9
$STYLESHEET
  1

  9
$XEDIT
290
1
  9
$CEPSNTYPE
380
0
  9
$PSTYLEMODE
290
1
  9
$FINGERPRINTGUID
  2
{70A688BF-5210-44A5-8A56-7F52F72CE040}
  9
$VERSIONGUID
  2
{2F900049-808E-4140-99F8-4D8AEDF3252C}
  9
$EXTNAMES
290
1
  9
$PSVPSCALE
 40
0.0
  9
$OLESTARTUP
290
0
  9
$SORTENTS
280
127
  9
$INDEXCTL
280
0
  9
$HIDETEXT
280
1
  9
$XCLIPFRAME
280
1
  9
$HALOGAP
280
0
  9
$OBSCOLOR
 70
257
  9
$OBSLTYPE
280
0
  9
$INTERSECTIONDISPLAY
280
0
  9
$INTERSECTIONCOLOR
 70
257
  9
$DIMASSOC
280
2
  9
$PROJECTNAME
  1

  9
$CAMERADISPLAY
290
0
  9
$LENSLENGTH
 40
50.0
  9
$CAMERAHEIGHT
 40
0.0
  9
$STEPSPERSEC
 40
24.0
  9
$STEPSIZE
 40
100.0
  9
$3DDWFPREC
 40
2.0
  9
$PSOLWIDTH
 40
0.005
  9
$PSOLHEIGHT
 40
0.08
  9
$LOFTANG1
 40
1.570796326795
  9
$LOFTANG2
 40
1.570796326795
  9
$LOFTMAG1
 40
0.0
  9
$LOFTMAG2
 40
0.0
  9
$LOFTPARAM
 70
7
  9
$LOFTNORMALS
280
1
  9
$LATITUDE
 40
37.795
  9
$LONGITUDE
 40
-122.394
  9
$NORTHDIRECTION
 40
0.0
  9
$TIMEZONE
 70
-8000
  9
$LIGHTGLYPHDISPLAY
280
1
  9
$TILEMODELIGHTSYNCH
280
1
  9
$CMATERIAL
347
20
  9
$SOLIDHIST
280
0
  9
$SHOWHIST
280
1
  9
$DWFFRAME
280
2
  9
$DGNFRAME
280
2
  9
$REALWORLDSCALE
290
1
  9
$INTERFERECOLOR
 62
256
  9
$CSHADOW
280
0
  9
$SHADOWPLANELOCATION
 40
0.0
  0
ENDSEC
  0
SECTION
  2
CLASSES
  0
CLASS
  1
ACDBDICTIONARYWDFLT
  2
AcDbDictionaryWithDefault
  3
ObjectDBX Classes
 90
0
 91
0
280
0
281
0
  0
CLASS
  1
SUN
  2
AcDbSun
  3
SCENEOE
 90
1153
 91
0
280
0
281
0
  0
CLASS
  1
VISUALSTYLE
  2
AcDbVisualStyle
  3
ObjectDBX Classes
 90
4095
 91
0
280
0
281
0
  0
CLASS
  1
MATERIAL
  2
AcDbMaterial
  3
ObjectDBX Classes
 90
1153
 91
0
280
0
281
0
  0
CLASS
  1
SCALE
  2
AcDbScale
  3
ObjectDBX Classes
 90
1153
 91
0
280
0
281
0
  0
CLASS
  1
TABLESTYLE
  2
AcDbTableStyle
  3
ObjectDBX Classes
 90
4095
 91
0
280
0
281
0
  0
CLASS
  1
MLEADERSTYLE
  2
AcDbMLeaderStyle
  3
ACDB_MLEADERSTYLE_CLASS
 90
4095
 91
0
280
0
281
0
  0
CLASS
  1
DICTIONARYVAR
  2
AcDbDictionaryVar
  3
ObjectDBX Classes
 90
0
 91
0
280
0
281
0
  0
CLASS
  1
CELLSTYLEMAP
  2
AcDbCellStyleMap
  3
ObjectDBX Classes
 90
1152
 91
0
280
0
281
0
  0
CLASS
  1
MENTALRAYRENDERSETTINGS
  2
AcDbMentalRayRenderSettings
  3
SCENEOE
 90
1024
 91
0
280
0
281
0
  0
CLASS
  1
ACDBDETAILVIEWSTYLE
  2
AcDbDetailViewStyle
  3
ObjectDBX Classes
 90
1025
 91
0
280
0
281
0
  0
CLASS
  1
ACDBSECTIONVIEWSTYLE
  2
AcDbSectionViewStyle
  3
ObjectDBX Classes
 90
1025
 91
0
280
0
281
0
  0
CLASS
  1
RASTERVARIABLES
  2
AcDbRasterVariables
  3
ISM
 90
0
 91
0
280
0
281
0
  0
CLASS
  1
LAYOUT
  2
AcDbLayout
  3
ObjectDBX Classes
 90
0
 91
0
280
0
281
0
  0
CLASS
  1
ACDBPLACEHOLDER
  2
AcDbPlaceHolder
  3
ObjectDBX Classes
 90
0
 91
0
280
0
281
0
  0
ENDSEC
  0
SECTION
  2
TABLES
  0
TABLE
  2
VPORT
  5
8
330
0
100
AcDbSymbolTable
 70
1
  0
VPORT
  5
17C
330
8
100
AcDbSymbolTableRecord
100
AcDbViewportTableRecord
  2
*Active
 70
0
 10
0.0
 20
0.0
 11
1.0
 21
1.0
 12
-0.8008433176188916
 22
4.470677145000707
 13
0.0
 23
0.0
 14
0.5
 24
0.5
 15
0.5
 25
0.5
 16
0.0
 26
0.0
 36
1.0
 17
0.0
 27
0.0
 37
0.0
 40
44.760029562014864
 41
1.34
 42
50.0
 43
0.0
 44
0.0
 50
0.0
 51
0.0
 71
0
 72
1000
 73
1
 74
3
 75
0
 76
0
 77
0
 78
0
281
0
 65
1
110
0.0
120
0.0
130
0.0
111
1.0
121
0.0
131
0.0
112
0.0
122
1.0
132
0.0
 79
0
146
0.0
  0
ENDTAB
  0
TABLE
  2
LTYPE
  5
2
330
0
100
AcDbSymbolTable
 70
3
  0
LTYPE
  5
24
330
2
100
AcDbSymbolTableRecord
100
AcDbLinetypeTableRecord
  2
ByBlock
 70
0
  3

 72
65
 73
0
 40
0.0
  0
LTYPE
  5
25
330
2
100
AcDbSymbolTableRecord
100
AcDbLinetypeTableRecord
  2
ByLayer
 70
0
  3

 72
65
 73
0
 40
0.0
  0
LTYPE
  5
26
330
2
100
AcDbSymbolTableRecord
100
AcDbLinetypeTableRecord
  2
Continuous
 70
0
  3

 72
65
 73
0
 40
0.0
  0
ENDTAB
  0
TABLE
  2
LAYER
  5
1
330
0
100
AcDbSymbolTable
 70
2
  0
LAYER
  5
27
330
1
100
AcDbSymbolTableRecord
100
AcDbLayerTableRecord
  2
0
 70
0
 62
7
  6
Continuous
370
-3
390
13
347
21
  0
LAYER
  5
28
330
1
100
AcDbSymbolTableRecord
100
AcDbLayerTableRecord
  2
Defpoints
 70
0
 62
7
  6
Continuous
290
0
370
-3
390
13
347
21
  0
ENDTAB
  0
TABLE
  2
STYLE
  5
5
330
0
100
AcDbSymbolTable
 70
1
  0
STYLE
  5
29
330
5
100
AcDbSymbolTableRecord
100
AcDbTextStyleTableRecord
  2
Standard
 70
0
 40
0.0
 41
1.0
 50
0.0
 71
0
 42
2.5
  3
txt
  4

  0
ENDTAB
  0
TABLE
  2
VIEW
  5
7
330
0
100
AcDbSymbolTable
 70
0
  0
ENDTAB
  0
TABLE
  2
UCS
  5
6
330
0
100
AcDbSymbolTable
 70
0
  0
ENDTAB
  0
TABLE
  2
APPID
  5
3
330
0
100
AcDbSymbolTable
 70
3
  0
APPID
  5
2A
330
3
100
AcDbSymbolTableRecord
100
AcDbRegAppTableRecord
  2
ACAD
 70
0
  0
APPID
  5
17D
330
3
100
AcDbSymbolTableRecord
100
AcDbRegAppTableRecord
  2
HATCHBACKGROUNDCOLOR
 70
0
  0
APPID
  5
17E
330
3
100
AcDbSymbolTableRecord
100
AcDbRegAppTableRecord
  2
EZDXF
 70
0
  0
ENDTAB
  0
TABLE
  2
DIMSTYLE
  5
4
330
0
100
AcDbSymbolTable
 70
1
100
AcDbDimStyleTable
  0
DIMSTYLE
105
2B
330
4
100
AcDbSymbolTableRecord
100
AcDbDimStyleTableRecord
  2
Standard
 70
0
 40
1.0
 41
2.5
 42
0.625
 43
3.75
 44
1.25
 45
0.0
 46
0.0
 47
0.0
 48
0.0
 49
2.5
140
2.5
141
2.5
142
0.0
143
0.03937007874
144
1.0
145
0.0
146
1.0
147
0.625
148
0.0
 69
0
 70
0
 71
0
 72
0
 73
0
 74
0
 75
0
 76
0
 77
1
 78
8
 79
3
170
0
171
3
172
1
173
0
174
0
175
0
176
0
177
0
178
0
179
2
271
2
272
2
273
2
274
3
275
0
276
0
277
2
278
44
279
0
280
0
281
0
282
0
283
0
284
8
285
0
286
0
288
0
289
3
290
0
371
-2
372
-2
  0
ENDTAB
  0
TABLE
  2
BLOCK_RECORD
  5
9
330
0
100
AcDbSymbolTable
 70
2
  0
BLOCK_RECORD
  5
17
330
9
100
AcDbSymbolTableRecord
100
AcDbBlockTableRecord
  2
*Model_Space
340
1A
 70
0
280
1
281
0
  0
BLOCK_RECORD
  5
1B
330
9
100
AcDbSymbolTableRecord
100
AcDbBlockTableRecord
  2
*Paper_Space
340
1E
 70
0
280
1
281
0
  0
ENDTAB
  0
ENDSEC
  0
SECTION
  2
BLOCKS
  0
BLOCK
  5
18
330
17
100
AcDbEntity
  8
0
100
AcDbBlockBegin
  2
*Model_Space
 70
0
 10
0.0
 20
0.0
 30
0.0
  3
*Model_Space
  1

  0
ENDBLK
  5
19
330
17
100
AcDbEntity
  8
0
100
AcDbBlockEnd
  0
BLOCK
  5
1C
330
1B
100
AcDbEntity
  8
0
100
AcDbBlockBegin
  2
*Paper_Space
 70
0
 10
0.0
 20
0.0
 30
0.0
  3
*Paper_Space
  1

  0
ENDBLK
  5
1D
330
1B
100
AcDbEntity
  8
0
100
AcDbBlockEnd
  0
ENDSEC
  0
SECTION
  2
ENTITIES
  0
LINE
  5
2F
330
17
100
AcDbEntity
  8
0
100
AcDbLine
 10
3.9370352435530496
 20
22.5415089621831
 30
-8.526512829121202e-14
 11
3.5216435697228903
 21
24.735985903483066
 31
-8.526512829121202e-14
  0
LINE
  5
30
330
17
100
AcDbEntity
  8
0
100
AcDbLine
 10
3.5216435697228903
 20
24.735985903483066
 30
-8.526512829121202e-14
 11
3.0398066280061844
 21
26.850691926008135
 31
-8.526512829121202e-14
  0
LINE
  5
31
330
17
100
AcDbEntity
  8
0
100
AcDbLine
 10
3.0398066280061844
 20
26.850691926008135
 30
-8.526512829121202e-14
 11
2.967301008331777
 21
26.766360895041498
 31
-8.526512829121202e-14
  0
LINE
  5
32
330
17
100
AcDbEntity
  8
0
100
AcDbLine
 10
2.967301008331777
 20
26.766360895041498
 30
-8.526512829121202e-14
 11
2.8625225090899775
 21
26.642795357599294
 31
-8.526512829121202e-14
  0
LINE
  5
33
330
17
100
AcDbEntity
  8
0
100
AcDbLine
 10
2.8625225090899775
 20
26.642795357599294
 30
-8.526512829121202e-14
 11
2.765920010819354
 21
26.527353343049537
 31
-8.526512829121202e-14
  0
LINE
  5
34
330
17
100
AcDbEntity
  8
0
100
AcDbLine
 10
2.765920010819354
 20
26.527353343049537
 30
-8.526512829121202e-14
 11
2.6784322722731844
 21
26.42144129351219
 31
-8.526512829121202e-14
  0
LINE
  5
35
330
17
100
AcDbEntity
  8
0
100
AcDbLine
 10
2.6784322722731844
 20
26.42144129351219
 30
-8.526512829121202e-14
 11
2.6010269311683736
 21
26.32651239154252
 31
-8.526512829121202e-14
  0
LINE
  5
36
330
17
100
AcDbEntity
  8
0
100
AcDbLine
 10
2.6010269311683736
 20
26.32651239154252
 30
-8.526512829121202e-14
 11
2.5345306811130435
 21
26.243839182141873
 31
-8.526512829121202e-14
  0
LINE
  5
37
330
17
100
AcDbEntity
  8
0
100
AcDbLine
 10
2.5345306811130435
 20
26.243839182141873
 30
-8.526512829121202e-14
 11
2.457610632718133
 21
26.146998700560037
 31
-8.526512829121202e-14
  0
LINE
  5
38
330
17
100
AcDbEntity
  8
0
100
AcDbLine
 10
2.457610632718133
 20
26.146998700560037
 30
-8.526512829121202e-14
 11
2.3808774178811873
 21
26.04934187065309
 31
-8.526512829121202e-14
  0
LINE
  5
39
330
17
100
AcDbEntity
  8
0
100
AcDbLine
 10
2.3808774178811873
 20
26.04934187065309
 30
-8.526512829121202e-14
 11
2.3044043579025235
 21
25.950857637122848
 31
-8.526512829121202e-14
  0
LINE
  5
3A
330
17
100
AcDbEntity
  8
0
100
AcDbLine
 10
2.3044043579025235
 20
25.950857637122848
 30
-8.526512829121202e-14
 11
2.2280931499313468
 21
25.851317082395045
 31
-8.526512829121202e-14
  0
LINE
  5
3B
330
17
100
AcDbEntity
  8
0
100
AcDbLine
 10
2.2280931499313468
 20
25.851317082395045
 30
-8.526512829121202e-14
 11
2.1518427177957093
 21
25.75048742500854
 31
-8.526512829121202e-14
  0
LINE
  5
3C
330
17
100
AcDbEntity
  8
0
100
AcDbLine
 10
2.1518427177957093
 20
25.75048742500854
 30
-8.526512829121202e-14
 11
2.0755576859900238
 21
25.64814489361774
 31
-8.526512829121202e-14
  0
LINE
  5
3D
330
17
100
AcDbEntity
  8
0
100
AcDbLine
 10
2.0755576859900238
 20
25.64814489361774
 30
-8.526512829121202e-14
 11
1.999128450146472
 21
25.544037684622555
 31
-8.526512829121202e-14
  0
LINE
  5
3E
330
17
100
AcDbEntity
  8
0
100
AcDbLine
 10
1.999128450146472
 20
25.544037684622555
 30
-8.526512829121202e-14
 11
1.9224608104660383
 21
25.437950236850913
 31
-8.526512829121202e-14
  0
LINE
  5
3F
330
17
100
AcDbEntity
  8
0
100
AcDbLine
 10
1.9224608104660383
 20
25.437950236850913
 30
-8.526512829121202e-14
 11
1.8454590359626515
 21
25.32965069852821
 31
-8.526512829121202e-14
  0
LINE
  5
40
330
17
100
AcDbEntity
  8
0
100
AcDbLine
 10
1.8454590359626515
 20
25.32965069852821
 30
-8.526512829121202e-14
 11
1.7680150521007878
 21
25.218889444467845
 31
-8.526512829121202e-14
  0
LINE
  5
41
330
17
100
AcDbEntity
  8
0
100
AcDbLine
 10
1.7680150521007878
 20
25.218889444467845
 30
-8.526512829121202e-14
 11
1.690039129561125
 21
25.105454048659215
 31
-8.526512829121202e-14
  0
LINE
  5
42
330
17
100
AcDbEntity
  8
0
100
AcDbLine
 10
1.690039129561125
 20
25.105454048659215
 30
-8.526512829121202e-14
 11
1.6112081853535187
 21
24.988771289248366
 31
-8.526512829121202e-14
  0
LINE
  5
43
330
17
100
AcDbEntity
  8
0
100
AcDbLine
 10
1.6112081853535187
 20
24.988771289248366
 30
-8.526512829121202e-14
 11
1.571861356637486
 21
24.929761871952223
 31
-8.526512829121202e-14
  0
LINE
  5
44
330
17
100
AcDbEntity
  8
0
100
AcDbLine
 10
1.571861356637486
 20
24.929761871952223
 30
-8.526512829121202e-14
 11
1.532094651681657
 21
24.869597293837927
 31
-8.526512829121202e-14
  0
LINE
  5
45
330
17
100
AcDbEntity
  8
0
100
AcDbLine
 10
1.532094651681657
 20
24.869597293837927
 30
-8.526512829121202e-14
 11
1.4921216557076526
 21
24.80858701324475
 31
-8.526512829121202e-14
  0
LINE
  5
46
330
17
100
AcDbEntity
  8
0
100
AcDbLine
 10
1.4921216557076526
 20
24.80858701324475
 30
-8.526512829121202e-14
 11
1.4521476036256704
 21
24.747036631320707
 31
-8.526512829121202e-14
  0
LINE
  5
47
330
17
100
AcDbEntity
  8
0
100
AcDbLine
 10
1.4521476036256704
 20
24.747036631320707
 30
-8.526512829121202e-14
 11
1.37085490700629
 21
24.62020790431168
 31
-8.526512829121202e-14
  0
LINE
  5
48
330
17
100
AcDbEntity
  8
0
100
AcDbLine
 10
1.37085490700629
 20
24.62020790431168
 30
-8.526512829121202e-14
 11
1.2885391444749992
 21
24.489512201117645
 31
-8.526512829121202e-14
  0
LINE
  5
49
330
17
100
AcDbEntity
  8
0
100
AcDbLine
 10
1.2885391444749992
 20
24.489512201117645
 30
-8.526512829121202e-14
 11
1.2538197147159877
 21
24.433690916190148
 31
-8.526512829121202e-14
  0
LINE
  5
4A
330
17
100
AcDbEntity
  8
0
100
AcDbLine
 10
1.2538197147159877
 20
24.433690916190148
 30
-8.526512829121202e-14
 11
1.218665881209283
 21
24.37673808588072
 31
-8.526512829121202e-14
  0
LINE
  5
4B
330
17
100
AcDbEntity
  8
0
100
AcDbLine
 10
1.218665881209283
 20
24.37673808588072
 30
-8.526512829121202e-14
 11
1.1833146633380398
 21
24.31902259745262
 31
-8.526512829121202e-14
  0
LINE
  5
4C
330
17
100
AcDbEntity
  8
0
100
AcDbLine
 10
1.1833146633380398
 20
24.31902259745262
 30
-8.526512829121202e-14
 11
1.1479489815807398
 21
24.26083353437826
 31
-8.526512829121202e-14
  0
LINE
  5
4D
330
17
100
AcDbEntity
  8
0
100
AcDbLine
 10
1.1479489815807398
 20
24.26083353437826
 30
-8.526512829121202e-14
 11
1.0760853536376445
 21
24.141188694540727
 31
-8.526512829121202e-14
  0
LINE
  5
4E
330
17
100
AcDbEntity
  8
0
100
AcDbLine
 10
1.0760853536376445
 20
24.141188694540727
 30
-8.526512829121202e-14
 11
1.0036124891890683
 21
24.018596555061425
 31
-8.526512829121202e-14
  0
LINE
  5
4F
330
17
100
AcDbEntity
  8
0
100
AcDbLine
 10
1.0036124891890683
 20
24.018596555061425
 30
-8.526512829121202e-14
 11
0.9303513719752772
 21
23.892655718702738
 31
-8.526512829121202e-14
  0
LINE
  5
50
330
17
100
AcDbEntity
  8
0
100
AcDbLine
 10
0.9303513719752772
 20
23.892655718702738
 30
-8.526512829121202e-14
 11
0.8561200288655719
 21
23.76294487849014
 31
-8.526512829121202e-14
  0
LINE
  5
51
330
17
100
AcDbEntity
  8
0
100
AcDbLine
 10
0.8561200288655719
 20
23.76294487849014
 30
-8.526512829121202e-14
 11
0.8189688363284908
 21
23.697222273663726
 31
-8.526512829121202e-14
  0
LINE
  5
52
330
17
100
AcDbEntity
  8
0
100
AcDbLine
 10
0.8189688363284908
 20
23.697222273663726
 30
-8.526512829121202e-14
 11
0.7814461798123382
 21
23.63029044094325
 31
-8.526512829121202e-14
  0
LINE
  5
53
330
17
100
AcDbEntity
  8
0
100
AcDbLine
 10
0.7814461798123382
 20
23.63029044094325
 30
-8.526512829121202e-14
 11
0.7437254500725352
 21
23.562443941490613
 31
-8.526512829121202e-14
  0
LINE
  5
54
330
17
100
AcDbEntity
  8
0
100
AcDbLine
 10
0.7437254500725352
 20
23.562443941490613
 30
-8.526512829121202e-14
 11
0.7058989694327984
 21
23.49383765192338
 31
-8.526512829121202e-14
  0
LINE
  5
55
330
17
100
AcDbEntity
  8
0
100
AcDbLine
 10
0.7058989694327984
 20
23.49383765192338
 30
-8.526512829121202e-14
 11
0.6470025091943405
 21
23.38587554088464
 31
-8.526512829121202e-14
  0
LINE
  5
56
330
17
100
AcDbEntity
  8
0
100
AcDbLine
 10
0.6470025091943405
 20
23.38587554088464
 30
-8.526512829121202e-14
 11
0.5877289354245221
 21
23.27580646381181
 31
-8.526512829121202e-14
  0
LINE
  5
57
330
17
100
AcDbEntity
  8
0
100
AcDbLine
 10
0.5877289354245221
 20
23.27580646381181
 30
-8.526512829121202e-14
 11
0.5279875668898377
 21
23.163417913051823
 31
-8.526512829121202e-14
  0
LINE
  5
58
330
17
100
AcDbEntity
  8
0
100
AcDbLine
 10
0.5279875668898377
 20
23.163417913051823
 30
-8.526512829121202e-14
 11
0.4677786739645491
 21
23.04866337032056
 31
-8.526512829121202e-14
  0
LINE
  5
59
330
17
100
AcDbEntity
  8
0
100
AcDbLine
 10
0.4677786739645491
 20
23.04866337032056
 30
-8.526512829121202e-14
 11
0.4071029314863228
 21
22.93149741196295
 31
-8.526512829121202e-14
  0
LINE
  5
5A
330
17
100
AcDbEntity
  8
0
100
AcDbLine
 10
0.4071029314863228
 20
22.93149741196295
 30
-8.526512829121202e-14
 11
0.3459609862238757
 21
22.811874316911727
 31
-8.526512829121202e-14
  0
LINE
  5
5B
330
17
100
AcDbEntity
  8
0
100
AcDbLine
 10
0.3459609862238757
 20
22.811874316911727
 30
-8.526512829121202e-14
 11
0.28435360990915015
 21
22.689748625585587
 31
-8.526512829121202e-14
  0
LINE
  5
5C
330
17
100
AcDbEntity
  8
0
100
AcDbLine
 10
0.28435360990915015
 20
22.689748625585587
 30
-8.526512829121202e-14
 11
0.2222816203856528
 21
22.565074881848908
 31
-8.526512829121202e-14
  0
LINE
  5
5D
330
17
100
AcDbEntity
  8
0
100
AcDbLine
 10
0.2222816203856528
 20
22.565074881848908
 30
-8.526512829121202e-14
 11
0.15974591138594363
 21
22.43780774670222
 31
-8.526512829121202e-14
  0
LINE
  5
5E
330
17
100
AcDbEntity
  8
0
100
AcDbLine
 10
0.15974591138594363
 20
22.43780774670222
 30
-8.526512829121202e-14
 11
0.09674743188460866
 21
22.307901943080104
 31
-8.526512829121202e-14
  0
LINE
  5
5F
330
17
100
AcDbEntity
  8
0
100
AcDbLine
 10
0.09674743188460866
 20
22.307901943080104
 30
-8.526512829121202e-14
 11
0.03328718799991215
 21
22.175312274229988
 31
-8.526512829121202e-14
  0
LINE
  5
60
330
17
100
AcDbEntity
  8
0
100
AcDbLine
 10
0.03328718799991215
 20
22.175312274229988
 30
-8.526512829121202e-14
 11
-0.030633762213012616
 21
22.039993616672746
 31
-8.526512829121202e-14
  0
LINE
  5
61
330
17
100
AcDbEntity
  8
0
100
AcDbLine
 10
-0.030633762213012616
 20
22.039993616672746
 30
-8.526512829121202e-14
 11
-0.09501431735298382
 21
21.901900906430264
 31
-8.526512829121202e-14
  0
LINE
  5
62
330
17
100
AcDbEntity
  8
0
100
AcDbLine
 10
-0.09501431735298382
 20
21.901900906430264
 30
-8.526512829121202e-14
 11
-0.1598533239598332
 21
21.760989168974433
 31
-8.526512829121202e-14
  0
LINE
  5
63
330
17
100
AcDbEntity
  8
0
100
AcDbLine
 10
-0.1598533239598332
 20
21.760989168974433
 30
-8.526512829121202e-14
 11
-0.2251496095689447
 21
21.617213439246015
 31
-8.526512829121202e-14
  0
LINE
  5
64
330
17
100
AcDbEntity
  8
0
100
AcDbLine
 10
-0.2251496095689447
 20
21.617213439246015
 30
-8.526512829121202e-14
 11
-0.29090192104218104
 21
21.470528931215576
 31
-8.526512829121202e-14
  0
LINE
  5
65
330
17
100
AcDbEntity
  8
0
100
AcDbLine
 10
-0.29090192104218104
 20
21.470528931215576
 30
-8.526512829121202e-14
 11
-0.35710907203755227
 21
21.32089065218215
 31
-8.526512829121202e-14
  0
LINE
  5
66
330
17
100
AcDbEntity
  8
0
100
AcDbLine
 10
-0.35710907203755227
 20
21.32089065218215
 30
-8.526512829121202e-14
 11
-0.42376962982200794
 21
21.16825424407957
 31
-8.526512829121202e-14
  0
LINE
  5
67
330
17
100
AcDbEntity
  8
0
100
AcDbLine
 10
-0.42376962982200794
 20
21.16825424407957
 30
-8.526512829121202e-14
 11
-0.4908825711814053
 21
21.012574222290212
 31
-8.526512829121202e-14
  0
LINE
  5
68
330
17
100
AcDbEntity
  8
0
100
AcDbLine
 10
-0.4908825711814053
 20
21.012574222290212
 30
-8.526512829121202e-14
 11
-0.5585366094455928
 21
20.853594419407642
 31
-8.526512829121202e-14
  0
LINE
  5
69
330
17
100
AcDbEntity
  8
0
100
AcDbLine
 10
-0.5585366094455928
 20
20.853594419407642
 30
-8.526512829121202e-14
 11
-0.5923986092754312
 21
20.773248161867322
 31
-8.526512829121202e-14
  0
LINE
  5
6A
330
17
100
AcDbEntity
  8
0
100
AcDbLine
 10
-0.5923986092754312
 20
20.773248161867322
 30
-8.526512829121202e-14
 11
-0.6263751234878896
 21
20.692109111876732
 31
-8.526512829121202e-14
  0
LINE
  5
6B
330
17
100
AcDbEntity
  8
0
100
AcDbLine
 10
-0.6263751234878896
 20
20.692109111876732
 30
-8.526512829121202e-14
 11
-0.6949244087661253
 21
20.526820276659436
 31
-8.526512829121202e-14
  0
LINE
  5
6C
330
17
100
AcDbEntity
  8
0
100
AcDbLine
 10
-0.6949244087661253
 20
20.526820276659436
 30
-8.526512829121202e-14
 11
-0.763832569401032
 21
20.35852183435631
 31
-8.526512829121202e-14
  0
LINE
  5
6D
330
17
100
AcDbEntity
  8
0
100
AcDbLine
 10
-0.763832569401032
 20
20.35852183435631
 30
-8.526512829121202e-14
 11
-0.8331858196791586
 21
20.18695813507746
 31
-8.526512829121202e-14
  0
LINE
  5
6E
330
17
100
AcDbEntity
  8
0
100
AcDbLine
 10
-0.8331858196791586
 20
20.18695813507746
 30
-8.526512829121202e-14
 11
-0.9029832188047049
 21
20.012083437144284
 31
-8.526512829121202e-14
  0
LINE
  5
6F
330
17
100
AcDbEntity
  8
0
100
AcDbLine
 10
-0.9029832188047049
 20
20.012083437144284
 30
-8.526512829121202e-14
 11
-0.9732227920396372
 21
19.833854812381404
 31
-8.526512829121202e-14
  0
LINE
  5
70
330
17
100
AcDbEntity
  8
0
100
AcDbLine
 10
-0.9732227920396372
 20
19.833854812381404
 30
-8.526512829121202e-14
 11
-1.0439040363651966
 21
19.652225354580494
 31
-8.526512829121202e-14
  0
LINE
  5
71
330
17
100
AcDbEntity
  8
0
100
AcDbLine
 10
-1.0439040363651966
 20
19.652225354580494
 30
-8.526512829121202e-14
 11
-1.1151367410536057
 21
19.466861337030437
 31
-8.526512829121202e-14
  0
LINE
  5
72
330
17
100
AcDbEntity
  8
0
100
AcDbLine
 10
-1.1151367410536057
 20
19.466861337030437
 30
-8.526512829121202e-14
 11
-1.1328750499847775
 21
19.420339291497093
 31
-8.526512829121202e-14
  0
LINE
  5
73
330
17
100
AcDbEntity
  8
0
100
AcDbLine
 10
-1.1328750499847775
 20
19.420339291497093
 30
-8.526512829121202e-14
 11
-1.150714829197371
 21
19.37340453697668
 31
-8.526512829121202e-14
  0
LINE
  5
74
330
17
100
AcDbEntity
  8
0
100
AcDbLine
 10
-1.150714829197371
 20
19.37340453697668
 30
-8.526512829121202e-14
 11
-1.1865208190235972
 21
19.27875960429622
 31
-8.526512829121202e-14
  0
LINE
  5
75
330
17
100
AcDbEntity
  8
0
100
AcDbLine
 10
-1.1865208190235972
 20
19.27875960429622
 30
-8.526512829121202e-14
 11
-1.2585636879487136
 21
19.086540809422083
 31
-8.526512829121202e-14
  0
LINE
  5
76
330
17
100
AcDbEntity
  8
0
100
AcDbLine
 10
-1.2585636879487136
 20
19.086540809422083
 30
-8.526512829121202e-14
 11
-1.331025839659171
 21
18.89078828077426
 31
-8.526512829121202e-14
  0
LINE
  5
77
330
17
100
AcDbEntity
  8
0
100
AcDbLine
 10
-1.331025839659171
 20
18.89078828077426
 30
-8.526512829121202e-14
 11
-1.4043230318012103
 21
18.690342562165654
 31
-8.526512829121202e-14
  0
LINE
  5
78
330
17
100
AcDbEntity
  8
0
100
AcDbLine
 10
-1.4043230318012103
 20
18.690342562165654
 30
-8.526512829121202e-14
 11
-1.4645115859393076
 21
18.524058603889323
 31
-8.526512829121202e-14
  0
LINE
  5
79
330
17
100
AcDbEntity
  8
0
100
AcDbLine
 10
-1.4645115859393076
 20
18.524058603889323
 30
-8.526512829121202e-14
 11
-1.4926610232198332
 21
18.44427751029832
 31
-8.526512829121202e-14
  0
LINE
  5
7A
330
17
100
AcDbEntity
  8
0
100
AcDbLine
 10
-1.4926610232198332
 20
18.44427751029832
 30
-8.526512829121202e-14
 11
-1.551990424148718
 21
18.275357301423888
 31
-8.526512829121202e-14
  0
LINE
  5
7B
330
17
100
AcDbEntity
  8
0
100
AcDbLine
 10
-1.551990424148718
 20
18.275357301423888
 30
-8.526512829121202e-14
 11
-1.5534291102726971
 21
18.271236818667745
 31
-8.526512829121202e-14
  0
LINE
  5
7C
330
17
100
AcDbEntity
  8
0
100
AcDbLine
 10
-1.5534291102726971
 20
18.271236818667745
 30
-8.526512829121202e-14
 11
-1.5549851070195064
 21
18.26677937152104
 31
-8.526512829121202e-14
  0
LINE
  5
7D
330
17
100
AcDbEntity
  8
0
100
AcDbLine
 10
-1.5549851070195064
 20
18.26677937152104
 30
-8.526512829121202e-14
 11
-1.5567646202122685
 21
18.26168041687353
 31
-8.526512829121202e-14
  0
LINE
  5
7E
330
17
100
AcDbEntity
  8
0
100
AcDbLine
 10
-1.5567646202122685
 20
18.26168041687353
 30
-8.526512829121202e-14
 11
-1.558544408353173
 21
18.25657939675324
 31
-8.526512829121202e-14
  0
LINE
  5
7F
330
17
100
AcDbEntity
  8
0
100
AcDbLine
 10
-1.558544408353173
 20
18.25657939675324
 30
-8.526512829121202e-14
 11
-1.5603234652348146
 21
18.251479192144487
 31
-8.526512829121202e-14
  0
LINE
  5
80
330
17
100
AcDbEntity
  8
0
100
AcDbLine
 10
-1.5603234652348146
 20
18.251479192144487
 30
-8.526512829121202e-14
 11
-1.5629982639890958
 21
18.243808662054732
 31
-8.526512829121202e-14
  0
LINE
  5
81
330
17
100
AcDbEntity
  8
0
100
AcDbLine
 10
-1.5629982639890958
 20
18.243808662054732
 30
-8.526512829121202e-14
 11
-1.564332618151779
 21
18.23998104908025
 31
-8.526512829121202e-14
  0
LINE
  5
82
330
17
100
AcDbEntity
  8
0
100
AcDbLine
 10
-1.564332618151779
 20
18.23998104908025
 30
-8.526512829121202e-14
 11
-1.5656659692177488
 21
18.23615559191019
 31
-8.526512829121202e-14
  0
LINE
  5
83
330
17
100
AcDbEntity
  8
0
100
AcDbLine
 10
-1.5656659692177488
 20
18.23615559191019
 30
-8.526512829121202e-14
 11
-1.5692349080894328
 21
18.225912555524303
 31
-8.526512829121202e-14
  0
LINE
  5
84
330
17
100
AcDbEntity
  8
0
100
AcDbLine
 10
-1.5692349080894328
 20
18.225912555524303
 30
-8.526512829121202e-14
 11
-1.572797725789103
 21
18.215681936150474
 31
-8.526512829121202e-14
  0
LINE
  5
85
330
17
100
AcDbEntity
  8
0
100
AcDbLine
 10
-1.572797725789103
 20
18.215681936150474
 30
-8.526512829121202e-14
 11
-1.5799454297166218
 21
18.1951417642957
 31
-8.526512829121202e-14
  0
LINE
  5
86
330
17
100
AcDbEntity
  8
0
100
AcDbLine
 10
-1.5799454297166218
 20
18.1951417642957
 30
-8.526512829121202e-14
 11
-1.5870969596551543
 21
18.17456983506377
 31
-8.526512829121202e-14
  0
LINE
  5
87
330
17
100
AcDbEntity
  8
0
100
AcDbLine
 10
-1.5870969596551543
 20
18.17456983506377
 30
-8.526512829121202e-14
 11
-1.594262509288166
 21
18.153936707166203
 31
-8.526512829121202e-14
  0
LINE
  5
88
330
17
100
AcDbEntity
  8
0
100
AcDbLine
 10
-1.594262509288166
 20
18.153936707166203
 30
-8.526512829121202e-14
 11
-1.5978409518248835
 21
18.14362480135612
 31
-8.526512829121202e-14
  0
LINE
  5
89
330
17
100
AcDbEntity
  8
0
100
AcDbLine
 10
-1.5978409518248835
 20
18.14362480135612
 30
-8.526512829121202e-14
 11
-1.601429292141935
 21
18.133279127056518
 31
-8.526512829121202e-14
  0
LINE
  5
8A
330
17
100
AcDbEntity
  8
0
100
AcDbLine
 10
-1.601429292141935
 20
18.133279127056518
 30
-8.526512829121202e-14
 11
-1.6032204471744702
 21
18.128113022256592
 31
-8.526512829121202e-14
  0
LINE
  5
8B
330
17
100
AcDbEntity
  8
0
100
AcDbLine
 10
-1.6032204471744702
 20
18.128113022256592
 30
-8.526512829121202e-14
 11
-1.6050146963768537
 21
18.12293667684429
 31
-8.526512829121202e-14
  0
LINE
  5
8C
330
17
100
AcDbEntity
  8
0
100
AcDbLine
 10
-1.6050146963768537
 20
18.12293667684429
 30
-8.526512829121202e-14
 11
-1.6068094805612194
 21
18.11775747426634
 31
-8.526512829121202e-14
  0
LINE
  5
8D
330
17
100
AcDbEntity
  8
0
100
AcDbLine
 10
-1.6068094805612194
 20
18.11775747426634
 30
-8.526512829121202e-14
 11
-1.6085866314109598
 21
18.112627846455652
 31
-8.526512829121202e-14
  0
LINE
  5
8E
330
17
100
AcDbEntity
  8
0
100
AcDbLine
 10
-1.6085866314109598
 20
18.112627846455652
 30
-8.526512829121202e-14
 11
-1.6229856384267993
 21
18.071018220318898
 31
-8.526512829121202e-14
  0
LINE
  5
8F
330
17
100
AcDbEntity
  8
0
100
AcDbLine
 10
-1.6229856384267993
 20
18.071018220318898
 30
-8.526512829121202e-14
 11
-1.6374110937368176
 21
18.029246945515787
 31
-8.526512829121202e-14
  0
LINE
  5
90
330
17
100
AcDbEntity
  8
0
100
AcDbLine
 10
-1.6374110937368176
 20
18.029246945515787
 30
-8.526512829121202e-14
 11
-1.6446211879131294
 21
18.008336900736396
 31
-8.526512829121202e-14
  0
LINE
  5
91
330
17
100
AcDbEntity
  8
0
100
AcDbLine
 10
-1.6446211879131294
 20
18.008336900736396
 30
-8.526512829121202e-14
 11
-1.651849814140105
 21
17.98735158874363
 31
-8.526512829121202e-14
  0
LINE
  5
92
330
17
100
AcDbEntity
  8
0
100
AcDbLine
 10
-1.651849814140105
 20
17.98735158874363
 30
-8.526512829121202e-14
 11
-1.659086632472759
 21
17.96632087810633
 31
-8.526512829121202e-14
  0
LINE
  5
93
330
17
100
AcDbEntity
  8
0
100
AcDbLine
 10
-1.659086632472759
 20
17.96632087810633
 30
-8.526512829121202e-14
 11
-1.6663212027021626
 21
17.94527503465431
 31
-8.526512829121202e-14
  0
LINE
  5
94
330
17
100
AcDbEntity
  8
0
100
AcDbLine
 10
-1.6663212027021626
 20
17.94527503465431
 30
-8.526512829121202e-14
 11
-1.6808553508532729
 21
17.902928559221593
 31
-8.526512829121202e-14
  0
LINE
  5
95
330
17
100
AcDbEntity
  8
0
100
AcDbLine
 10
-1.6808553508532729
 20
17.902928559221593
 30
-8.526512829121202e-14
 11
-1.6881140554650091
 21
17.8817469290088
 31
-8.526512829121202e-14
  0
LINE
  5
96
330
17
100
AcDbEntity
  8
0
100
AcDbLine
 10
-1.6881140554650091
 20
17.8817469290088
 30
-8.526512829121202e-14
 11
-1.6953596013798684
 21
17.860581752181822
 31
-8.526512829121202e-14
  0
LINE
  5
97
330
17
100
AcDbEntity
  8
0
100
AcDbLine
 10
-1.6953596013798684
 20
17.860581752181822
 30
-8.526512829121202e-14
 11
-1.7246025581276871
 21
17.774935797058752
 31
-8.526512829121202e-14
  0
LINE
  5
98
330
17
100
AcDbEntity
  8
0
100
AcDbLine
 10
-1.7246025581276871
 20
17.774935797058752
 30
-8.526512829121202e-14
 11
-1.731886855256553
 21
17.753546242323445
 31
-8.526512829121202e-14
  0
LINE
  5
99
330
17
100
AcDbEntity
  8
0
100
AcDbLine
 10
-1.731886855256553
 20
17.753546242323445
 30
-8.526512829121202e-14
 11
-1.7392091946067207
 21
17.73202245299815
 31
-8.526512829121202e-14
  0
LINE
  5
9A
330
17
100
AcDbEntity
  8
0
100
AcDbLine
 10
-1.7392091946067207
 20
17.73202245299815
 30
-8.526512829121202e-14
 11
-1.7465467003286985
 21
17.710431466904375
 31
-8.526512829121202e-14
  0
LINE
  5
9B
330
17
100
AcDbEntity
  8
0
100
AcDbLine
 10
-1.7465467003286985
 20
17.710431466904375
 30
-8.526512829121202e-14
 11
-1.748372612193302
 21
17.7050551079434
 31
-8.526512829121202e-14
  0
LINE
  5
9C
330
17
100
AcDbEntity
  8
0
100
AcDbLine
 10
-1.748372612193302
 20
17.7050551079434
 30
-8.526512829121202e-14
 11
-1.7502040627516546
 21
17.69966102312364
 31
-8.526512829121202e-14
  0
LINE
  5
9D
330
17
100
AcDbEntity
  8
0
100
AcDbLine
 10
-1.7502040627516546
 20
17.69966102312364
 30
-8.526512829121202e-14
 11
-1.7538604821261945
 21
17.688887682058848
 31
-8.526512829121202e-14
  0
LINE
  5
9E
330
17
100
AcDbEntity
  8
0
100
AcDbLine
 10
-1.7538604821261945
 20
17.688887682058848
 30
-8.526512829121202e-14
 11
-1.7685707369807897
 21
17.645487828597204
 31
-8.526512829121202e-14
  0
LINE
  5
9F
330
17
100
AcDbEntity
  8
0
100
AcDbLine
 10
-1.7685707369807897
 20
17.645487828597204
 30
-8.526512829121202e-14
 11
-1.7832311175142141
 21
17.602143588619604
 31
-8.526512829121202e-14
  0
LINE
  5
A0
330
17
100
AcDbEntity
  8
0
100
AcDbLine
 10
-1.7832311175142141
 20
17.602143588619604
 30
-8.526512829121202e-14
 11
-1.8424444514141864
 21
17.426139453112533
 31
-8.526512829121202e-14
  0
LINE
  5
A1
330
17
100
AcDbEntity
  8
0
100
AcDbLine
 10
-1.8424444514141864
 20
17.426139453112533
 30
-8.526512829121202e-14
 11
-1.9020414020131877
 21
17.247469298633483
 31
-8.526512829121202e-14
  0
LINE
  5
A2
330
17
100
AcDbEntity
  8
0
100
AcDbLine
 10
-1.9020414020131877
 20
17.247469298633483
 30
-8.526512829121202e-14
 11
-1.9319411768298078
 21
17.157248029405075
 31
-8.526512829121202e-14
  0
LINE
  5
A3
330
17
100
AcDbEntity
  8
0
100
AcDbLine
 10
-1.9319411768298078
 20
17.157248029405075
 30
-8.526512829121202e-14
 11
-1.9469245272836755
 21
17.11188882280787
 31
-8.526512829121202e-14
  0
LINE
  5
A4
330
17
100
AcDbEntity
  8
0
100
AcDbLine
 10
-1.9469245272836755
 20
17.11188882280787
 30
-8.526512829121202e-14
 11
-1.9544191227617898
 21
17.089163241681973
 31
-8.526512829121202e-14
  0
LINE
  5
A5
330
17
100
AcDbEntity
  8
0
100
AcDbLine
 10
-1.9544191227617898
 20
17.089163241681973
 30
-8.526512829121202e-14
 11
-1.9618981430082965
 21
17.066460031737265
 31
-8.526512829121202e-14
  0
LINE
  5
A6
330
17
100
AcDbEntity
  8
0
100
AcDbLine
 10
-1.9618981430082965
 20
17.066460031737265
 30
-8.526512829121202e-14
 11
-1.99201568219984
 21
16.974783385615645
 31
-8.526512829121202e-14
  0
LINE
  5
A7
330
17
100
AcDbEntity
  8
0
100
AcDbLine
 10
-1.99201568219984
 20
16.974783385615645
 30
-8.526512829121202e-14
 11
-2.022179504169989
 21
16.882560273235157
 31
-8.526512829121202e-14
  0
LINE
  5
A8
330
17
100
AcDbEntity
  8
0
100
AcDbLine
 10
-2.022179504169989
 20
16.882560273235157
 30
-8.526512829121202e-14
 11
-2.0524503131556155
 21
16.789599000897482
 31
-8.526512829121202e-14
  0
LINE
  5
A9
330
17
100
AcDbEntity
  8
0
100
AcDbLine
 10
-2.0524503131556155
 20
16.789599000897482
 30
-8.526512829121202e-14
 11
-2.0561996625037953
 21
16.778056100482473
 31
-8.526512829121202e-14
  0
LINE
  5
AA
330
17
100
AcDbEntity
  8
0
100
AcDbLine
 10
-2.0561996625037953
 20
16.778056100482473
 30
-8.526512829121202e-14
 11
-2.0599801391714987
 21
16.76641090723313
 31
-8.526512829121202e-14
  0
LINE
  5
AB
330
17
100
AcDbEntity
  8
0
100
AcDbLine
 10
-2.0599801391714987
 20
16.76641090723313
 30
-8.526512829121202e-14
 11
-2.0675591761956174
 21
16.74304526180014
 31
-8.526512829121202e-14
  0
LINE
  5
AC
330
17
100
AcDbEntity
  8
0
100
AcDbLine
 10
-2.0675591761956174
 20
16.74304526180014
 30
-8.526512829121202e-14
 11
-2.075137119180722
 21
16.719656877396524
 31
-8.526512829121202e-14
  0
LINE
  5
AD
330
17
100
AcDbEntity
  8
0
100
AcDbLine
 10
-2.075137119180722
 20
16.719656877396524
 30
-8.526512829121202e-14
 11
-2.082688485288303
 21
16.696324450979972
 31
-8.526512829121202e-14
  0
LINE
  5
AE
330
17
100
AcDbEntity
  8
0
100
AcDbLine
 10
-2.082688485288303
 20
16.696324450979972
 30
-8.526512829121202e-14
 11
-2.1131018938098958
 21
16.602087671103014
 31
-8.526512829121202e-14
  0
LINE
  5
AF
330
17
100
AcDbEntity
  8
0
100
AcDbLine
 10
-2.1131018938098958
 20
16.602087671103014
 30
-8.526512829121202e-14
 11
-2.1282857315641746
 21
16.55488173124035
 31
-8.526512829121202e-14
  0
LINE
  5
B0
330
17
100
AcDbEntity
  8
0
100
AcDbLine
 10
-2.1282857315641746
 20
16.55488173124035
 30
-8.526512829121202e-14
 11
-2.1434826983133295
 21
16.5075283580004
 31
-8.526512829121202e-14
  0
LINE
  5
B1
330
17
100
AcDbEntity
  8
0
100
AcDbLine
 10
-2.1434826983133295
 20
16.5075283580004
 30
-8.526512829121202e-14
 11
-2.173973732982793
 21
16.412195705127864
 31
-8.526512829121202e-14
  0
LINE
  5
B2
330
17
100
AcDbEntity
  8
0
100
AcDbLine
 10
-2.173973732982793
 20
16.412195705127864
 30
-8.526512829121202e-14
 11
-2.2044913299350046
 21
16.316346078634766
 31
-8.526512829121202e-14
  0
LINE
  5
B3
330
17
100
AcDbEntity
  8
0
100
AcDbLine
 10
-2.2044913299350046
 20
16.316346078634766
 30
-8.526512829121202e-14
 11
-2.2350502588584202
 21
16.219928202667425
 31
-8.526512829121202e-14
  0
LINE
  5
B4
330
17
100
AcDbEntity
  8
0
100
AcDbLine
 10
-2.2350502588584202
 20
16.219928202667425
 30
-8.526512829121202e-14
 11
-2.265645536927126
 21
16.12295282891315
 31
-8.526512829121202e-14
  0
LINE
  5
B5
330
17
100
AcDbEntity
  8
0
100
AcDbLine
 10
-2.265645536927126
 20
16.12295282891315
 30
-8.526512829121202e-14
 11
-2.2962720691795493
 21
16.0254312312355
 31
-8.526512829121202e-14
  0
LINE
  5
B6
330
17
100
AcDbEntity
  8
0
100
AcDbLine
 10
-2.2962720691795493
 20
16.0254312312355
 30
-8.526512829121202e-14
 11
-2.326924759470325
 21
15.927374898540272
 31
-8.526512829121202e-14
  0
LINE
  5
B7
330
17
100
AcDbEntity
  8
0
100
AcDbLine
 10
-2.326924759470325
 20
15.927374898540272
 30
-8.526512829121202e-14
 11
-2.357598601548334
 21
15.82879533181692
 31
-8.526512829121202e-14
  0
LINE
  5
B8
330
17
100
AcDbEntity
  8
0
100
AcDbLine
 10
-2.357598601548334
 20
15.82879533181692
 30
-8.526512829121202e-14
 11
-2.3882832349456233
 21
15.729721351753795
 31
-8.526512829121202e-14
  0
LINE
  5
B9
330
17
100
AcDbEntity
  8
0
100
AcDbLine
 10
-2.3882832349456233
 20
15.729721351753795
 30
-8.526512829121202e-14
 11
-2.422964877502368
 21
15.617183903522346
 31
-8.526512829121202e-14
  0
LINE
  5
BA
330
17
100
AcDbEntity
  8
0
100
AcDbLine
 10
-2.422964877502368
 20
15.617183903522346
 30
-8.526512829121202e-14
 11
-2.4576481316730234
 21
15.504044388843766
 31
-8.526512829121202e-14
  0
LINE
  5
BB
330
17
100
AcDbEntity
  8
0
100
AcDbLine
 10
-2.4576481316730234
 20
15.504044388843766
 30
-8.526512829121202e-14
 11
-2.492330354571793
 21
15.39030572027449
 31
-8.526512829121202e-14
  0
LINE
  5
BC
330
17
100
AcDbEntity
  8
0
100
AcDbLine
 10
-2.492330354571793
 20
15.39030572027449
 30
-8.526512829121202e-14
 11
-2.5270043577911405
 21
15.275986215219277
 31
-8.526512829121202e-14
  0
LINE
  5
BD
330
17
100
AcDbEntity
  8
0
100
AcDbLine
 10
-2.5270043577911405
 20
15.275986215219277
 30
-8.526512829121202e-14
 11
-2.561662699946355
 21
15.161105278365362
 31
-8.526512829121202e-14
  0
LINE
  5
BE
330
17
100
AcDbEntity
  8
0
100
AcDbLine
 10
-2.561662699946355
 20
15.161105278365362
 30
-8.526512829121202e-14
 11
-2.5962980902994577
 21
15.045682335419954
 31
-8.526512829121202e-14
  0
LINE
  5
BF
330
17
100
AcDbEntity
  8
0
100
AcDbLine
 10
-2.5962980902994577
 20
15.045682335419954
 30
-8.526512829121202e-14
 11
-2.6309031080061676
 21
14.929737579638903
 31
-8.526512829121202e-14
  0
LINE
  5
C0
330
17
100
AcDbEntity
  8
0
100
AcDbLine
 10
-2.6309031080061676
 20
14.929737579638903
 30
-8.526512829121202e-14
 11
-2.665428098579193
 21
14.813433905581626
 31
-8.526512829121202e-14
  0
LINE
  5
C1
330
17
100
AcDbEntity
  8
0
100
AcDbLine
 10
-2.665428098579193
 20
14.813433905581626
 30
-8.526512829121202e-14
 11
-2.734457214968261
 21
14.578991907548577
 31
-8.526512829121202e-14
  0
LINE
  5
C2
330
17
100
AcDbEntity
  8
0
100
AcDbLine
 10
-2.734457214968261
 20
14.578991907548577
 30
-8.526512829121202e-14
 11
-2.803206671614978
 21
14.342938987123617
 31
-8.526512829121202e-14
  0
LINE
  5
C3
330
17
100
AcDbEntity
  8
0
100
AcDbLine
 10
-2.803206671614978
 20
14.342938987123617
 30
-8.526512829121202e-14
 11
-2.8716599286917077
 21
14.105311769898634
 31
-8.526512829121202e-14
  0
LINE
  5
C4
330
17
100
AcDbEntity
  8
0
100
AcDbLine
 10
-2.8716599286917077
 20
14.105311769898634
 30
-8.526512829121202e-14
 11
-2.9397993941289915
 21
13.866153631413248
 31
-8.526512829121202e-14
  0
LINE
  5
C5
330
17
100
AcDbEntity
  8
0
100
AcDbLine
 10
-2.9397993941289915
 20
13.866153631413248
 30
-8.526512829121202e-14
 11
-2.9736615206924366
 21
13.74631562741557
 31
-8.526512829121202e-14
  0
LINE
  5
C6
330
17
100
AcDbEntity
  8
0
100
AcDbLine
 10
-2.9736615206924366
 20
13.74631562741557
 30
-8.526512829121202e-14
 11
-3.0074532524511834
 21
13.62606230788603
 31
-8.526512829121202e-14
  0
LINE
  5
C7
330
17
100
AcDbEntity
  8
0
100
AcDbLine
 10
-3.0074532524511834
 20
13.62606230788603
 30
-8.526512829121202e-14
 11
-3.041128148514657
 21
13.505557687622769
 31
-8.526512829121202e-14
  0
LINE
  5
C8
330
17
100
AcDbEntity
  8
0
100
AcDbLine
 10
-3.041128148514657
 20
13.505557687622769
 30
-8.526512829121202e-14
 11
-3.074679178887626
 21
13.384826874615449
 31
-8.526512829121202e-14
  0
LINE
  5
C9
330
17
100
AcDbEntity
  8
0
100
AcDbLine
 10
-3.074679178887626
 20
13.384826874615449
 30
-8.526512829121202e-14
 11
-3.1080996480253607
 21
13.263894555258226
 31
-8.526512829121202e-14
  0
LINE
  5
CA
330
17
100
AcDbEntity
  8
0
100
AcDbLine
 10
-3.1080996480253607
 20
13.263894555258226
 30
-8.526512829121202e-14
 11
-3.1414113465084146
 21
13.142682624800287
 31
-8.526512829121202e-14
  0
LINE
  5
CB
330
17
100
AcDbEntity
  8
0
100
AcDbLine
 10
-3.1414113465084146
 20
13.142682624800287
 30
-8.526512829121202e-14
 11
-3.149686567947205
 21
13.112466329989083
 31
-8.526512829121202e-14
  0
LINE
  5
CC
330
17
100
AcDbEntity
  8
0
100
AcDbLine
 10
-3.149686567947205
 20
13.112466329989083
 30
-8.526512829121202e-14
 11
-3.1538278894452905
 21
13.097328869126322
 31
-8.526512829121202e-14
  0
LINE
  5
CD
330
17
100
AcDbEntity
  8
0
100
AcDbLine
 10
-3.1538278894452905
 20
13.097328869126322
 30
-8.526512829121202e-14
 11
-3.1579574148911274
 21
13.082223969745392
 31
-8.526512829121202e-14
  0
LINE
  5
CE
330
17
100
AcDbEntity
  8
0
100
AcDbLine
 10
-3.1579574148911274
 20
13.082223969745392
 30
-8.526512829121202e-14
 11
-3.1745223944796113
 21
13.021526741060363
 31
-8.526512829121202e-14
  0
LINE
  5
CF
330
17
100
AcDbEntity
  8
0
100
AcDbLine
 10
-3.1745223944796113
 20
13.021526741060363
 30
-8.526512829121202e-14
 11
-3.1910448778125886
 21
12.960815844598805
 31
-8.526512829121202e-14
  0
LINE
  5
D0
330
17
100
AcDbEntity
  8
0
100
AcDbLine
 10
-3.1910448778125886
 20
12.960815844598805
 30
-8.526512829121202e-14
 11
-3.1992778338525216
 21
12.930500978004765
 31
-8.526512829121202e-14
  0
LINE
  5
D1
330
17
100
AcDbEntity
  8
0
100
AcDbLine
 10
-3.1992778338525216
 20
12.930500978004765
 30
-8.526512829121202e-14
 11
-3.207445326642633
 21
12.900384977032509
 31
-8.526512829121202e-14
  0
LINE
  5
D2
330
17
100
AcDbEntity
  8
0
100
AcDbLine
 10
-3.207445326642633
 20
12.900384977032509
 30
-8.526512829121202e-14
 11
-3.2729982341689112
 21
12.657140613295105
 31
-8.526512829121202e-14
  0
LINE
  5
D3
330
17
100
AcDbEntity
  8
0
100
AcDbLine
 10
-3.2729982341689112
 20
12.657140613295105
 30
-8.526512829121202e-14
 11
-3.3378006744521453
 21
12.41397325009762
 31
-8.526512829121202e-14
  0
LINE
  5
D4
330
17
100
AcDbEntity
  8
0
100
AcDbLine
 10
-3.3378006744521453
 20
12.41397325009762
 30
-8.526512829121202e-14
 11
-3.4018640340013437
 21
12.170870335468685
 31
-8.526512829121202e-14
  0
LINE
  5
D5
330
17
100
AcDbEntity
  8
0
100
AcDbLine
 10
-3.4018640340013437
 20
12.170870335468685
 30
-8.526512829121202e-14
 11
-3.465137185976923
 21
11.928061093645596
 31
-8.526512829121202e-14
  0
LINE
  5
D6
330
17
100
AcDbEntity
  8
0
100
AcDbLine
 10
-3.465137185976923
 20
11.928061093645596
 30
-8.526512829121202e-14
 11
-3.527569322700712
 21
11.685781849474324
 31
-8.526512829121202e-14
  0
LINE
  5
D7
330
17
100
AcDbEntity
  8
0
100
AcDbLine
 10
-3.527569322700712
 20
11.685781849474324
 30
-8.526512829121202e-14
 11
-3.5891109267496955
 21
11.444273354053713
 31
-8.526512829121202e-14
  0
LINE
  5
D8
330
17
100
AcDbEntity
  8
0
100
AcDbLine
 10
-3.5891109267496955
 20
11.444273354053713
 30
-8.526512829121202e-14
 11
-3.649713783202982
 21
11.20378084568793
 31
-8.526512829121202e-14
  0
LINE
  5
D9
330
17
100
AcDbEntity
  8
0
100
AcDbLine
 10
-3.649713783202982
 20
11.20378084568793
 30
-8.526512829121202e-14
 11
-3.709361585023574
 21
10.964430113207591
 31
-8.526512829121202e-14
  0
LINE
  5
DA
330
17
100
AcDbEntity
  8
0
100
AcDbLine
 10
-3.709361585023574
 20
10.964430113207591
 30
-8.526512829121202e-14
 11
-3.7387559389360394
 21
10.845494189941093
 31
-8.526512829121202e-14
  0
LINE
  5
DB
330
17
100
AcDbEntity
  8
0
100
AcDbLine
 10
-3.7387559389360394
 20
10.845494189941093
 30
-8.526512829121202e-14
 11
-3.767917723043345
 21
10.726844781532776
 31
-8.526512829121202e-14
  0
LINE
  5
DC
330
17
100
AcDbEntity
  8
0
100
AcDbLine
 10
-3.767917723043345
 20
10.726844781532776
 30
-8.526512829121202e-14
 11
-3.796810648934647
 21
10.6086394854282
 31
-8.526512829121202e-14
  0
LINE
  5
DD
330
17
100
AcDbEntity
  8
0
100
AcDbLine
 10
-3.796810648934647
 20
10.6086394854282
 30
-8.526512829121202e-14
 11
-3.8254283369528057
 21
10.490913385723182
 31
-8.526512829121202e-14
  0
LINE
  5
DE
330
17
100
AcDbEntity
  8
0
100
AcDbLine
 10
-3.8254283369528057
 20
10.490913385723182
 30
-8.526512829121202e-14
 11
-3.853780389613812
 21
10.373637725634502
 31
-8.526512829121202e-14
  0
LINE
  5
DF
330
17
100
AcDbEntity
  8
0
100
AcDbLine
 10
-3.853780389613812
 20
10.373637725634502
 30
-8.526512829121202e-14
 11
-3.867828049877973
 21
10.315292036690657
 31
-8.526512829121202e-14
  0
LINE
  5
E0
330
17
100
AcDbEntity
  8
0
100
AcDbLine
 10
-3.867828049877973
 20
10.315292036690657
 30
-8.526512829121202e-14
 11
-3.881803761995437
 21
10.257086307854216
 31
-8.526512829121202e-14
  0
LINE
  5
E1
330
17
100
AcDbEntity
  8
0
100
AcDbLine
 10
-3.881803761995437
 20
10.257086307854216
 30
-8.526512829121202e-14
 11
-3.9095790294211223
 21
10.140933510251443
 31
-8.526512829121202e-14
  0
LINE
  5
E2
330
17
100
AcDbEntity
  8
0
100
AcDbLine
 10
-3.9095790294211223
 20
10.140933510251443
 30
-8.526512829121202e-14
 11
-3.937015715989114
 21
10.025570580913588
 31
-8.526512829121202e-14
  0
LINE
  5
E3
330
17
100
AcDbEntity
  8
0
100
AcDbLine
 10
-3.937015715989114
 20
10.025570580913588
 30
-8.526512829121202e-14
 11
-3.9910622993514533
 21
9.796466657564174
 31
-8.526512829121202e-14
  0
LINE
  5
E4
330
17
100
AcDbEntity
  8
0
100
AcDbLine
 10
-3.9910622993514533
 20
9.796466657564174
 30
-8.526512829121202e-14
 11
-4.043862422462633
 21
9.570225542821682
 31
-8.526512829121202e-14
  0
LINE
  5
E5
330
17
100
AcDbEntity
  8
0
100
AcDbLine
 10
-4.043862422462633
 20
9.570225542821682
 30
-8.526512829121202e-14
 11
-4.0697445817944935
 21
9.45843246107777
 31
-8.526512829121202e-14
  0
LINE
  5
E6
330
17
100
AcDbEntity
  8
0
100
AcDbLine
 10
-4.0697445817944935
 20
9.45843246107777
 30
-8.526512829121202e-14
 11
-4.095327728274823
 21
9.347342869170326
 31
-8.526512829121202e-14
  0
LINE
  5
E7
330
17
100
AcDbEntity
  8
0
100
AcDbLine
 10
-4.095327728274823
 20
9.347342869170326
 30
-8.526512829121202e-14
 11
-4.120580573667274
 21
9.237106619424289
 31
-8.526512829121202e-14
  0
LINE
  5
E8
330
17
100
AcDbEntity
  8
0
100
AcDbLine
 10
-4.120580573667274
 20
9.237106619424289
 30
-8.526512829121202e-14
 11
-4.145473024932398
 21
9.127870722911972
 31
-8.526512829121202e-14
  0
LINE
  5
E9
330
17
100
AcDbEntity
  8
0
100
AcDbLine
 10
-4.145473024932398
 20
9.127870722911972
 30
-8.526512829121202e-14
 11
-4.1943097267374245
 21
8.911874773845803
 31
-8.526512829121202e-14
  0
LINE
  5
EA
330
17
100
AcDbEntity
  8
0
100
AcDbLine
 10
-4.1943097267374245
 20
8.911874773845803
 30
-8.526512829121202e-14
 11
-4.241748200109763
 21
8.699882028092723
 31
-8.526512829121202e-14
  0
LINE
  5
EB
330
17
100
AcDbEntity
  8
0
100
AcDbLine
 10
-4.241748200109763
 20
8.699882028092723
 30
-8.526512829121202e-14
 11
-4.264902224491733
 21
8.59561439880654
 31
-8.526512829121202e-14
  0
LINE
  5
EC
330
17
100
AcDbEntity
  8
0
100
AcDbLine
 10
-4.264902224491733
 20
8.59561439880654
 30
-8.526512829121202e-14
 11
-4.287713878837556
 21
8.492365388704087
 31
-8.526512829121202e-14
  0
LINE
  5
ED
330
17
100
AcDbEntity
  8
0
100
AcDbLine
 10
-4.287713878837556
 20
8.492365388704087
 30
-8.526512829121202e-14
 11
-4.310301772867495
 21
8.389626696756046
 31
-8.526512829121202e-14
  0
LINE
  5
EE
330
17
100
AcDbEntity
  8
0
100
AcDbLine
 10
-4.310301772867495
 20
8.389626696756046
 30
-8.526512829121202e-14
 11
-4.332832882054523
 21
8.286663978635438
 31
-8.526512829121202e-14
  0
LINE
  5
EF
330
17
100
AcDbEntity
  8
0
100
AcDbLine
 10
-4.332832882054523
 20
8.286663978635438
 30
-8.526512829121202e-14
 11
-4.377358056126175
 21
8.08174929570069
 31
-8.526512829121202e-14
  0
LINE
  5
F0
330
17
100
AcDbEntity
  8
0
100
AcDbLine
 10
-4.377358056126175
 20
8.08174929570069
 30
-8.526512829121202e-14
 11
-4.4216883772837665
 21
7.875800114494098
 31
-8.526512829121202e-14
  0
LINE
  5
F1
330
17
100
AcDbEntity
  8
0
100
AcDbLine
 10
-4.4216883772837665
 20
7.875800114494098
 30
-8.526512829121202e-14
 11
-4.4658384158859885
 21
7.66873013795972
 31
-8.526512829121202e-14
  0
LINE
  5
F2
330
17
100
AcDbEntity
  8
0
100
AcDbLine
 10
-4.4658384158859885
 20
7.66873013795972
 30
-8.526512829121202e-14
 11
-4.509803603519243
 21
7.460542302894858
 31
-8.526512829121202e-14
  0
LINE
  5
F3
330
17
100
AcDbEntity
  8
0
100
AcDbLine
 10
-4.509803603519243
 20
7.460542302894858
 30
-8.526512829121202e-14
 11
-4.5535793309789465
 21
7.251239160846744
 31
-8.526512829121202e-14
  0
LINE
  5
F4
330
17
100
AcDbEntity
  8
0
100
AcDbLine
 10
-4.5535793309789465
 20
7.251239160846744
 30
-8.526512829121202e-14
 11
-4.5971610053198315
 21
7.040823550608167
 31
-8.526512829121202e-14
  0
LINE
  5
F5
330
17
100
AcDbEntity
  8
0
100
AcDbLine
 10
-4.5971610053198315
 20
7.040823550608167
 30
-8.526512829121202e-14
 11
-4.640544036041318
 21
6.829298236892576
 31
-8.526512829121202e-14
  0
LINE
  5
F6
330
17
100
AcDbEntity
  8
0
100
AcDbLine
 10
-4.640544036041318
 20
6.829298236892576
 30
-8.526512829121202e-14
 11
-4.68372384480484
 21
6.616666068229286
 31
-8.526512829121202e-14
  0
LINE
  5
F7
330
17
100
AcDbEntity
  8
0
100
AcDbLine
 10
-4.68372384480484
 20
6.616666068229286
 30
-8.526512829121202e-14
 11
-4.726695852543729
 21
6.402929924772714
 31
-8.526512829121202e-14
  0
LINE
  5
F8
330
17
100
AcDbEntity
  8
0
100
AcDbLine
 10
-4.726695852543729
 20
6.402929924772714
 30
-8.526512829121202e-14
 11
-4.769455518341703
 21
6.188092616767456
 31
-8.526512829121202e-14
  0
LINE
  5
F9
330
17
100
AcDbEntity
  8
0
100
AcDbLine
 10
-4.769455518341703
 20
6.188092616767456
 30
-8.526512829121202e-14
 11
-4.811998512618933
 21
5.972156452988678
 31
-8.526512829121202e-14
  0
LINE
  5
FA
330
17
100
AcDbEntity
  8
0
100
AcDbLine
 10
-4.811998512618933
 20
5.972156452988678
 30
-8.526512829121202e-14
 11
-4.854320638026524
 21
5.755124175486337
 31
-8.526512829121202e-14
  0
LINE
  5
FB
330
17
100
AcDbEntity
  8
0
100
AcDbLine
 10
-4.854320638026524
 20
5.755124175486337
 30
-8.526512829121202e-14
 11
-4.896415720252866
 21
5.537002190826222
 31
-8.526512829121202e-14
  0
LINE
  5
FC
330
17
100
AcDbEntity
  8
0
100
AcDbLine
 10
-4.896415720252866
 20
5.537002190826222
 30
-8.526512829121202e-14
 11
-4.938280559476025
 21
5.3177902750312285
 31
-8.526512829121202e-14
  0
LINE
  5
FD
330
17
100
AcDbEntity
  8
0
100
AcDbLine
 10
-4.938280559476025
 20
5.3177902750312285
 30
-8.526512829121202e-14
 11
-4.979910240980617
 21
5.0974927016452725
 31
-8.526512829121202e-14
  0
LINE
  5
FE
330
17
100
AcDbEntity
  8
0
100
AcDbLine
 10
-4.979910240980617
 20
5.0974927016452725
 30
-8.526512829121202e-14
 11
-5.021300410270355
 21
4.876112205419595
 31
-8.526512829121202e-14
  0
LINE
  5
FF
330
17
100
AcDbEntity
  8
0
100
AcDbLine
 10
-5.021300410270355
 20
4.876112205419595
 30
-8.526512829121202e-14
 11
-5.062446503376643
 21
4.65365214349854
 31
-8.526512829121202e-14
  0
LINE
  5
100
330
17
100
AcDbEntity
  8
0
100
AcDbLine
 10
-5.062446503376643
 20
4.65365214349854
 30
-8.526512829121202e-14
 11
-5.103344057583831
 21
4.430115656372152
 31
-8.526512829121202e-14
  0
LINE
  5
101
330
17
100
AcDbEntity
  8
0
100
AcDbLine
 10
-5.103344057583831
 20
4.430115656372152
 30
-8.526512829121202e-14
 11
-5.143988599705542
 21
4.205506017725959
 31
-8.526512829121202e-14
  0
LINE
  5
102
330
17
100
AcDbEntity
  8
0
100
AcDbLine
 10
-5.143988599705542
 20
4.205506017725959
 30
-8.526512829121202e-14
 11
-5.184375636762875
 21
3.979826536268746
 31
-8.526512829121202e-14
  0
LINE
  5
103
330
17
100
AcDbEntity
  8
0
100
AcDbLine
 10
-5.184375636762875
 20
3.979826536268746
 30
-8.526512829121202e-14
 11
-5.224500794736654
 21
3.7530804679457503
 31
-8.526512829121202e-14
  0
LINE
  5
104
330
17
100
AcDbEntity
  8
0
100
AcDbLine
 10
-5.224500794736654
 20
3.7530804679457503
 30
-8.526512829121202e-14
 11
-5.264359498546687
 21
3.5252711168372954
 31
-8.526512829121202e-14
  0
LINE
  5
105
330
17
100
AcDbEntity
  8
0
100
AcDbLine
 10
-5.264359498546687
 20
3.5252711168372954
 30
-8.526512829121202e-14
 11
-5.303948109489342
 21
3.2964008379260363
 31
-8.526512829121202e-14
  0
LINE
  5
106
330
17
100
AcDbEntity
  8
0
100
AcDbLine
 10
-5.303948109489342
 20
3.2964008379260363
 30
-8.526512829121202e-14
 11
-5.343260944462491
 21
3.0664755654245823
 31
-8.526512829121202e-14
  0
LINE
  5
107
330
17
100
AcDbEntity
  8
0
100
AcDbLine
 10
-5.343260944462491
 20
3.0664755654245823
 30
-8.526512829121202e-14
 11
-5.382294083664794
 21
2.835497405620579
 31
-8.526512829121202e-14
  0
LINE
  5
108
330
17
100
AcDbEntity
  8
0
100
AcDbLine
 10
-5.382294083664794
 20
2.835497405620579
 30
-8.526512829121202e-14
 11
-5.421043239383009
 21
2.6034698269967222
 31
-8.526512829121202e-14
  0
LINE
  5
109
330
17
100
AcDbEntity
  8
0
100
AcDbLine
 10
-5.421043239383009
 20
2.6034698269967222
 30
-8.526512829121202e-14
 11
-5.459504030656623
 21
2.3703964588037323
 31
-8.526512829121202e-14
  0
LINE
  5
10A
330
17
100
AcDbEntity
  8
0
100
AcDbLine
 10
-5.459504030656623
 20
2.3703964588037323
 30
-8.526512829121202e-14
 11
-5.49767209148081
 21
2.136280893745102
 31
-8.526512829121202e-14
  0
LINE
  5
10B
330
17
100
AcDbEntity
  8
0
100
AcDbLine
 10
-5.49767209148081
 20
2.136280893745102
 30
-8.526512829121202e-14
 11
-5.535543095436699
 21
1.9011267503406941
 31
-8.526512829121202e-14
  0
LINE
  5
10C
330
17
100
AcDbEntity
  8
0
100
AcDbLine
 10
-5.535543095436699
 20
1.9011267503406941
 30
-8.526512829121202e-14
 11
-5.57311268333291
 21
1.6649376988121318
 31
-8.526512829121202e-14
  0
LINE
  5
10D
330
17
100
AcDbEntity
  8
0
100
AcDbLine
 10
-5.57311268333291
 20
1.6649376988121318
 30
-8.526512829121202e-14
 11
-5.610376619780871
 21
1.4277173779166148
 31
-8.526512829121202e-14
  0
LINE
  5
10E
330
17
100
AcDbEntity
  8
0
100
AcDbLine
 10
-5.610376619780871
 20
1.4277173779166148
 30
-8.526512829121202e-14
 11
-5.647338575902621
 21
1.189417561687172
 31
-8.526512829121202e-14
  0
LINE
  5
10F
330
17
100
AcDbEntity
  8
0
100
AcDbLine
 10
-5.647338575902621
 20
1.189417561687172
 30
-8.526512829121202e-14
 11
-5.674032859346836
 21
1.0153998411383824
 31
-8.526512829121202e-14
  0
LINE
  5
110
330
17
100
AcDbEntity
  8
0
100
AcDbLine
 10
-5.674032859346836
 20
1.0153998411383824
 30
-8.526512829121202e-14
 11
-5.70056723446921
 21
0.8407866480393693
 31
-8.526512829121202e-14
  0
LINE
  5
111
330
17
100
AcDbEntity
  8
0
100
AcDbLine
 10
-5.70056723446921
 20
0.8407866480393693
 30
-8.526512829121202e-14
 11
-5.726932073174753
 21
0.6656311543086701
 31
-8.526512829121202e-14
  0
LINE
  5
112
330
17
100
AcDbEntity
  8
0
100
AcDbLine
 10
-5.726932073174753
 20
0.6656311543086701
 30
-8.526512829121202e-14
 11
-5.753125813591966
 21
0.48993469206025253
 31
-8.526512829121202e-14
  0
LINE
  5
113
330
17
100
AcDbEntity
  8
0
100
AcDbLine
 10
-5.753125813591966
 20
0.48993469206025253
 30
-8.526512829121202e-14
 11
-5.779146889710534
 21
0.3136986411713494
 31
-8.526512829121202e-14
  0
LINE
  5
114
330
17
100
AcDbEntity
  8
0
100
AcDbLine
 10
-5.779146889710534
 20
0.3136986411713494
 30
-8.526512829121202e-14
 11
-5.804993769184888
 21
0.13692482180752563
 31
-8.526512829121202e-14
  0
LINE
  5
115
330
17
100
AcDbEntity
  8
0
100
AcDbLine
 10
-5.804993769184888
 20
0.13692482180752563
 30
-8.526512829121202e-14
 11
-5.83066445064552
 21
-0.04038504623505901
 31
-8.526512829121202e-14
  0
LINE
  5
116
330
17
100
AcDbEntity
  8
0
100
AcDbLine
 10
-5.83066445064552
 20
-0.04038504623505901
 30
-8.526512829121202e-14
 11
-5.856157662429927
 21
-0.21822991069530673
 31
-8.526512829121202e-14
  0
LINE
  5
117
330
17
100
AcDbEntity
  8
0
100
AcDbLine
 10
-5.856157662429927
 20
-0.21822991069530673
 30
-8.526512829121202e-14
 11
-5.881471761764244
 21
-0.39660816062787063
 31
-8.526512829121202e-14
  0
LINE
  5
118
330
17
100
AcDbEntity
  8
0
100
AcDbLine
 10
-5.881471761764244
 20
-0.39660816062787063
 30
-8.526512829121202e-14
 11
-5.906605085113297
 21
-0.575517866610717
 31
-8.526512829121202e-14
  0
LINE
  5
119
330
17
100
AcDbEntity
  8
0
100
AcDbLine
 10
-5.906605085113297
 20
-0.575517866610717
 30
-8.526512829121202e-14
 11
-5.93155644073463
 21
-0.7549586720683763
 31
-8.526512829121202e-14
  0
LINE
  5
11A
330
17
100
AcDbEntity
  8
0
100
AcDbLine
 10
-5.93155644073463
 20
-0.7549586720683763
 30
-8.526512829121202e-14
 11
-5.956323445207625
 21
-0.9349254281331412
 31
-8.526512829121202e-14
  0
LINE
  5
11B
330
17
100
AcDbEntity
  8
0
100
AcDbLine
 10
-5.956323445207625
 20
-0.9349254281331412
 30
-8.526512829121202e-14
 11
-5.980905708681389
 21
-1.1154246734915318
 31
-8.526512829121202e-14
  0
LINE
  5
11C
330
17
100
AcDbEntity
  8
0
100
AcDbLine
 10
-5.980905708681389
 20
-1.1154246734915318
 30
-8.526512829121202e-14
 11
-6.005299413066515
 21
-1.2964376510450606
 31
-8.526512829121202e-14
  0
LINE
  5
11D
330
17
100
AcDbEntity
  8
0
100
AcDbLine
 10
-6.005299413066515
 20
-1.2964376510450606
 30
-8.526512829121202e-14
 11
-6.029507059691992
 21
-1.4779931517421048
 31
-8.526512829121202e-14
  0
LINE
  5
11E
330
17
100
AcDbEntity
  8
0
100
AcDbLine
 10
-6.029507059691992
 20
-1.4779931517421048
 30
-8.526512829121202e-14
 11
-6.053544233558791
 21
-1.6602189919576702
 31
-8.526512829121202e-14
  0
LINE
  5
11F
330
17
100
AcDbEntity
  8
0
100
AcDbLine
 10
-6.053544233558791
 20
-1.6602189919576702
 30
-8.526512829121202e-14
 11
-6.074273003976744
 21
-1.8190875968679237
 31
-8.526512829121202e-14
  0
LINE
  5
120
330
17
100
AcDbEntity
  8
0
100
AcDbLine
 10
-6.074273003976744
 20
-1.8190875968679237
 30
-8.526512829121202e-14
 11
-6.093464452443152
 21
-1.9678658851527118
 31
-8.526512829121202e-14
  0
LINE
  5
121
330
17
100
AcDbEntity
  8
0
100
AcDbLine
 10
-6.093464452443152
 20
-1.9678658851527118
 30
-8.526512829121202e-14
 11
-6.112610360626634
 21
-2.117737452436039
 31
-8.526512829121202e-14
  0
LINE
  5
122
330
17
100
AcDbEntity
  8
0
100
AcDbLine
 10
-6.112610360626634
 20
-2.117737452436039
 30
-8.526512829121202e-14
 11
-6.1315022894091715
 21
-2.2671339765605936
 31
-8.526512829121202e-14
  0
LINE
  5
123
330
17
100
AcDbEntity
  8
0
100
AcDbLine
 10
-6.1315022894091715
 20
-2.2671339765605936
 30
-8.526512829121202e-14
 11
-6.1502530165390095
 21
-2.4169083437069574
 31
-8.526512829121202e-14
  0
LINE
  5
124
330
17
100
AcDbEntity
  8
0
100
AcDbLine
 10
-6.1502530165390095
 20
-2.4169083437069574
 30
-8.526512829121202e-14
 11
-6.168809128632221
 21
-2.5666603173918006
 31
-8.526512829121202e-14
  0
LINE
  5
125
330
17
100
AcDbEntity
  8
0
100
AcDbLine
 10
-6.168809128632221
 20
-2.5666603173918006
 30
-8.526512829121202e-14
 11
-6.187192781081686
 21
-2.7165589957792022
 31
-8.526512829121202e-14
  0
LINE
  5
126
330
17
100
AcDbEntity
  8
0
100
AcDbLine
 10
-6.187192781081686
 20
-2.7165589957792022
 30
-8.526512829121202e-14
 11
-6.205392355564383
 21
-2.866518362250325
 31
-8.526512829121202e-14
  0
LINE
  5
127
330
17
100
AcDbEntity
  8
0
100
AcDbLine
 10
-6.205392355564383
 20
-2.866518362250325
 30
-8.526512829121202e-14
 11
-6.223411449325971
 21
-3.0165666048127306
 31
-8.526512829121202e-14
  0
LINE
  5
128
330
17
100
AcDbEntity
  8
0
100
AcDbLine
 10
-6.223411449325971
 20
-3.0165666048127306
 30
-8.526512829121202e-14
 11
-6.2412469521632605
 21
-3.1666812295341984
 31
-8.526512829121202e-14
  0
LINE
  5
129
330
17
100
AcDbEntity
  8
0
100
AcDbLine
 10
-6.2412469521632605
 20
-3.1666812295341984
 30
-8.526512829121202e-14
 11
-6.258898866298496
 21
-3.316861464526262
 31
-8.526512829121202e-14
  0
LINE
  5
12A
330
17
100
AcDbEntity
  8
0
100
AcDbLine
 10
-6.258898866298496
 20
-3.316861464526262
 30
-8.526512829121202e-14
 11
-6.276365810964782
 21
-3.467098173169859
 31
-8.526512829121202e-14
  0
LINE
  5
12B
330
17
100
AcDbEntity
  8
0
100
AcDbLine
 10
-6.276365810964782
 20
-3.467098173169859
 30
-8.526512829121202e-14
 11
-6.293647191871619
 21
-3.617385895037984
 31
-8.526512829121202e-14
  0
LINE
  5
12C
330
17
100
AcDbEntity
  8
0
100
AcDbLine
 10
-6.293647191871619
 20
-3.617385895037984
 30
-8.526512829121202e-14
 11
-6.310742159726987
 21
-3.7677170308595933
 31
-8.526512829121202e-14
  0
LINE
  5
12D
330
17
100
AcDbEntity
  8
0
100
AcDbLine
 10
-6.310742159726987
 20
-3.7677170308595933
 30
-8.526512829121202e-14
 11
-6.327650048013245
 21
-3.918085094814792
 31
-8.526512829121202e-14
  0
LINE
  5
12E
330
17
100
AcDbEntity
  8
0
100
AcDbLine
 10
-6.327650048013245
 20
-3.918085094814792
 30
-8.526512829121202e-14
 11
-6.344370201014849
 21
-4.068483260206598
 31
-8.526512829121202e-14
  0
LINE
  5
12F
330
17
100
AcDbEntity
  8
0
100
AcDbLine
 10
-6.344370201014849
 20
-4.068483260206598
 30
-8.526512829121202e-14
 11
-6.360902049091999
 21
-4.218904919533323
 31
-8.526512829121202e-14
  0
LINE
  5
130
330
17
100
AcDbEntity
  8
0
100
AcDbLine
 10
-6.360902049091999
 20
-4.218904919533323
 30
-8.526512829121202e-14
 11
-6.377245072815063
 21
-4.369343417754912
 31
-8.526512829121202e-14
  0
LINE
  5
131
330
17
100
AcDbEntity
  8
0
100
AcDbLine
 10
-6.377245072815063
 20
-4.369343417754912
 30
-8.526512829121202e-14
 11
-6.393398817419447
 21
-4.519792169530916
 31
-8.526512829121202e-14
  0
LINE
  5
132
330
17
100
AcDbEntity
  8
0
100
AcDbLine
 10
-6.393398817419447
 20
-4.519792169530916
 30
-8.526512829121202e-14
 11
-6.409362888820178
 21
-4.670244622538014
 31
-8.526512829121202e-14
  0
LINE
  5
133
330
17
100
AcDbEntity
  8
0
100
AcDbLine
 10
-6.409362888820178
 20
-4.670244622538014
 30
-8.526512829121202e-14
 11
-6.425136971322205
 21
-4.820694284784629
 31
-8.526512829121202e-14
  0
LINE
  5
134
330
17
100
AcDbEntity
  8
0
100
AcDbLine
 10
-6.425136971322205
 20
-4.820694284784629
 30
-8.526512829121202e-14
 11
-6.440720806642867
 21
-4.971134370531793
 31
-8.526512829121202e-14
  0
LINE
  5
135
330
17
100
AcDbEntity
  8
0
100
AcDbLine
 10
-6.440720806642867
 20
-4.971134370531793
 30
-8.526512829121202e-14
 11
-6.456114040387186
 21
-5.121558588989444
 31
-8.526512829121202e-14
  0
LINE
  5
136
330
17
100
AcDbEntity
  8
0
100
AcDbLine
 10
-6.456114040387186
 20
-5.121558588989444
 30
-8.526512829121202e-14
 11
-6.471316624815772
 21
-5.271960530530663
 31
-8.526512829121202e-14
  0
LINE
  5
137
330
17
100
AcDbEntity
  8
0
100
AcDbLine
 10
-6.471316624815772
 20
-5.271960530530663
 30
-8.526512829121202e-14
 11
-6.486328414294308
 21
-5.422333618734797
 31
-8.526512829121202e-14
  0
LINE
  5
138
330
17
100
AcDbEntity
  8
0
100
AcDbLine
 10
-6.486328414294308
 20
-5.422333618734797
 30
-8.526512829121202e-14
 11
-6.5011493697772185
 21
-5.572671409622252
 31
-8.526512829121202e-14
  0
LINE
  5
139
330
17
100
AcDbEntity
  8
0
100
AcDbLine
 10
-6.5011493697772185
 20
-5.572671409622252
 30
-8.526512829121202e-14
 11
-6.515779487114264
 21
-5.722967438703684
 31
-8.526512829121202e-14
  0
LINE
  5
13A
330
17
100
AcDbEntity
  8
0
100
AcDbLine
 10
-6.515779487114264
 20
-5.722967438703684
 30
-8.526512829121202e-14
 11
-6.530218824366985
 21
-5.873215260075163
 31
-8.526512829121202e-14
  0
LINE
  5
13B
330
17
100
AcDbEntity
  8
0
100
AcDbLine
 10
-6.530218824366985
 20
-5.873215260075163
 30
-8.526512829121202e-14
 11
-6.544467490269122
 21
-6.02340841573443
 31
-8.526512829121202e-14
  0
LINE
  5
13C
330
17
100
AcDbEntity
  8
0
100
AcDbLine
 10
-6.544467490269122
 20
-6.02340841573443
 30
-8.526512829121202e-14
 11
-6.558525644333509
 21
-6.173540464208109
 31
-8.526512829121202e-14
  0
LINE
  5
13D
330
17
100
AcDbEntity
  8
0
100
AcDbLine
 10
-6.558525644333509
 20
-6.173540464208109
 30
-8.526512829121202e-14
 11
-6.572393503787646
 21
-6.323604908316732
 31
-8.526512829121202e-14
  0
LINE
  5
13E
330
17
100
AcDbEntity
  8
0
100
AcDbLine
 10
-6.572393503787646
 20
-6.323604908316732
 30
-8.526512829121202e-14
 11
-6.586064887622351
 21
-6.473524888200863
 31
-8.526512829121202e-14
  0
LINE
  5
13F
330
17
100
AcDbEntity
  8
0
100
AcDbLine
 10
-6.586064887622351
 20
-6.473524888200863
 30
-8.526512829121202e-14
 11
-6.607389164710236
 21
-6.711470831127038
 31
-8.526512829121202e-14
  0
LINE
  5
140
330
17
100
AcDbEntity
  8
0
100
AcDbLine
 10
-6.607389164710236
 20
-6.711470831127038
 30
-8.526512829121202e-14
 11
-6.628230751735737
 21
-6.949116957341573
 31
-8.526512829121202e-14
  0
LINE
  5
141
330
17
100
AcDbEntity
  8
0
100
AcDbLine
 10
-6.628230751735737
 20
-6.949116957341573
 30
-8.526512829121202e-14
 11
-6.648597764032802
 21
-7.186507868405755
 31
-8.526512829121202e-14
  0
LINE
  5
142
330
17
100
AcDbEntity
  8
0
100
AcDbLine
 10
-6.648597764032802
 20
-7.186507868405755
 30
-8.526512829121202e-14
 11
-6.668492336191173
 21
-7.423617289356848
 31
-8.526512829121202e-14
  0
LINE
  5
143
330
17
100
AcDbEntity
  8
0
100
AcDbLine
 10
-6.668492336191173
 20
-7.423617289356848
 30
-8.526512829121202e-14
 11
-6.687916850506086
 21
-7.660418758733265
 31
-8.526512829121202e-14
  0
LINE
  5
144
330
17
100
AcDbEntity
  8
0
100
AcDbLine
 10
-6.687916850506086
 20
-7.660418758733265
 30
-8.526512829121202e-14
 11
-6.706873987244785
 21
-7.896885604620941
 31
-8.526512829121202e-14
  0
LINE
  5
145
330
17
100
AcDbEntity
  8
0
100
AcDbLine
 10
-6.706873987244785
 20
-7.896885604620941
 30
-8.526512829121202e-14
 11
-6.72536668854138
 21
-8.13299090122046
 31
-8.526512829121202e-14
  0
LINE
  5
146
330
17
100
AcDbEntity
  8
0
100
AcDbLine
 10
-6.72536668854138
 20
-8.13299090122046
 30
-8.526512829121202e-14
 11
-6.743398162165656
 21
-8.368707445721313
 31
-8.526512829121202e-14
  0
LINE
  5
147
330
17
100
AcDbEntity
  8
0
100
AcDbLine
 10
-6.743398162165656
 20
-8.368707445721313
 30
-8.526512829121202e-14
 11
-6.760971867368388
 21
-8.604007725852654
 31
-8.526512829121202e-14
  0
LINE
  5
148
330
17
100
AcDbEntity
  8
0
100
AcDbLine
 10
-6.760971867368388
 20
-8.604007725852654
 30
-8.526512829121202e-14
 11
-6.778091508685899
 21
-8.838863893223945
 31
-8.526512829121202e-14
  0
LINE
  5
149
330
17
100
AcDbEntity
  8
0
100
AcDbLine
 10
-6.778091508685899
 20
-8.838863893223945
 30
-8.526512829121202e-14
 11
-6.794761026051399
 21
-9.073247732679036
 31
-8.526512829121202e-14
  0
LINE
  5
14A
330
17
100
AcDbEntity
  8
0
100
AcDbLine
 10
-6.794761026051399
 20
-9.073247732679036
 30
-8.526512829121202e-14
 11
-6.810984586724134
 21
-9.307130638948209
 31
-8.526512829121202e-14
  0
LINE
  5
14B
330
17
100
AcDbEntity
  8
0
100
AcDbLine
 10
-6.810984586724134
 20
-9.307130638948209
 30
-8.526512829121202e-14
 11
-6.826766575872499
 21
-9.540483580206995
 31
-8.526512829121202e-14
  0
LINE
  5
14C
330
17
100
AcDbEntity
  8
0
100
AcDbLine
 10
-6.826766575872499
 20
-9.540483580206995
 30
-8.526512829121202e-14
 11
-6.842111588878163
 21
-9.773277092226962
 31
-8.526512829121202e-14
  0
LINE
  5
14D
330
17
100
AcDbEntity
  8
0
100
AcDbLine
 10
-6.842111588878163
 20
-9.773277092226962
 30
-8.526512829121202e-14
 11
-6.857024420311307
 21
-10.005481206483296
 31
-8.526512829121202e-14
  0
LINE
  5
14E
330
17
100
AcDbEntity
  8
0
100
AcDbLine
 10
-6.857024420311307
 20
-10.005481206483296
 30
-8.526512829121202e-14
 11
-6.871510060086651
 21
-10.23706552781357
 31
-8.526512829121202e-14
  0
LINE
  5
14F
330
17
100
AcDbEntity
  8
0
100
AcDbLine
 10
-6.871510060086651
 20
-10.23706552781357
 30
-8.526512829121202e-14
 11
-6.885573673734962
 21
-10.467998980342017
 31
-8.526512829121202e-14
  0
LINE
  5
150
330
17
100
AcDbEntity
  8
0
100
AcDbLine
 10
-6.885573673734962
 20
-10.467998980342017
 30
-8.526512829121202e-14
 11
-6.89922061813707
 21
-10.698250297025282
 31
-8.526512829121202e-14
  0
LINE
  5
151
330
17
100
AcDbEntity
  8
0
100
AcDbLine
 10
-6.89922061813707
 20
-10.698250297025282
 30
-8.526512829121202e-14
 11
-6.912456378128789
 21
-10.927786848334435
 31
-8.526512829121202e-14
  0
LINE
  5
152
330
17
100
AcDbEntity
  8
0
100
AcDbLine
 10
-6.912456378128789
 20
-10.927786848334435
 30
-8.526512829121202e-14
 11
-6.92528668120749
 21
-11.15657722892648
 31
-8.526512829121202e-14
  0
LINE
  5
153
330
17
100
AcDbEntity
  8
0
100
AcDbLine
 10
-6.92528668120749
 20
-11.15657722892648
 30
-8.526512829121202e-14
 11
-6.937717214790128
 21
-11.384584960154768
 31
-8.526512829121202e-14
  0
LINE
  5
154
330
17
100
AcDbEntity
  8
0
100
AcDbLine
 10
-6.937717214790128
 20
-11.384584960154768
 30
-8.526512829121202e-14
 11
-6.9497542115853665
 21
-11.611780920180948
 31
-8.526512829121202e-14
  0
LINE
  5
155
330
17
100
AcDbEntity
  8
0
100
AcDbLine
 10
-6.9497542115853665
 20
-11.611780920180948
 30
-8.526512829121202e-14
 11
-6.961403145789186
 21
-11.838121145255002
 31
-8.526512829121202e-14
  0
LINE
  5
156
330
17
100
AcDbEntity
  8
0
100
AcDbLine
 10
-6.961403145789186
 20
-11.838121145255002
 30
-8.526512829121202e-14
 11
-6.972671282663727
 21
-12.063590707750492
 31
-8.526512829121202e-14
  0
LINE
  5
157
330
17
100
AcDbEntity
  8
0
100
AcDbLine
 10
-6.972671282663727
 20
-12.063590707750492
 30
-8.526512829121202e-14
 11
-6.98357123985207
 21
-12.28828462391094
 31
-8.526512829121202e-14
  0
LINE
  5
158
330
17
100
AcDbEntity
  8
0
100
AcDbLine
 10
-6.98357123985207
 20
-12.28828462391094
 30
-8.526512829121202e-14
 11
-6.994171124745355
 21
-12.513505037724698
 31
-8.526512829121202e-14
  0
LINE
  5
159
330
17
100
AcDbEntity
  8
0
100
AcDbLine
 10
-6.994171124745355
 20
-12.513505037724698
 30
-8.526512829121202e-14
 11
-7.00448314802806
 21
-12.739484744604923
 31
-8.526512829121202e-14
  0
LINE
  5
15A
330
17
100
AcDbEntity
  8
0
100
AcDbLine
 10
-7.00448314802806
 20
-12.739484744604923
 30
-8.526512829121202e-14
 11
-7.014507979578889
 21
-12.966216221675793
 31
-8.526512829121202e-14
  0
LINE
  5
15B
330
17
100
AcDbEntity
  8
0
100
AcDbLine
 10
-7.014507979578889
 20
-12.966216221675793
 30
-8.526512829121202e-14
 11
-7.024245745112994
 21
-13.193679210177478
 31
-8.526512829121202e-14
  0
LINE
  5
15C
330
17
100
AcDbEntity
  8
0
100
AcDbLine
 10
-7.024245745112994
 20
-13.193679210177478
 30
-8.526512829121202e-14
 11
-7.033697215495232
 21
-13.421861553844494
 31
-8.526512829121202e-14
  0
LINE
  5
15D
330
17
100
AcDbEntity
  8
0
100
AcDbLine
 10
-7.033697215495232
 20
-13.421861553844494
 30
-8.526512829121202e-14
 11
-7.042863136807176
 21
-13.65074721824665
 31
-8.526512829121202e-14
  0
LINE
  5
15E
330
17
100
AcDbEntity
  8
0
100
AcDbLine
 10
-7.042863136807176
 20
-13.65074721824665
 30
-8.526512829121202e-14
 11
-7.0517445298821375
 21
-13.880321731006063
 31
-8.526512829121202e-14
  0
LINE
  5
15F
330
17
100
AcDbEntity
  8
0
100
AcDbLine
 10
-7.0517445298821375
 20
-13.880321731006063
 30
-8.526512829121202e-14
 11
-7.0603425507977935
 21
-14.110569716268259
 31
-8.526512829121202e-14
  0
LINE
  5
160
330
17
100
AcDbEntity
  8
0
100
AcDbLine
 10
-7.0603425507977935
 20
-14.110569716268259
 30
-8.526512829121202e-14
 11
-7.068658547646949
 21
-14.341475971053839
 31
-8.526512829121202e-14
  0
LINE
  5
161
330
17
100
AcDbEntity
  8
0
100
AcDbLine
 10
-7.068658547646949
 20
-14.341475971053839
 30
-8.526512829121202e-14
 11
-7.076694029615913
 21
-14.573024956161944
 31
-8.526512829121202e-14
  0
LINE
  5
162
330
17
100
AcDbEntity
  8
0
100
AcDbLine
 10
-7.076694029615913
 20
-14.573024956161944
 30
-8.526512829121202e-14
 11
-7.084450674795695
 21
-14.805200997643738
 31
-8.526512829121202e-14
  0
LINE
  5
163
330
17
100
AcDbEntity
  8
0
100
AcDbLine
 10
-7.084450674795695
 20
-14.805200997643738
 30
-8.526512829121202e-14
 11
-7.091930321368169
 21
-15.03798816767636
 31
-8.526512829121202e-14
  0
LINE
  5
164
330
17
100
AcDbEntity
  8
0
100
AcDbLine
 10
-7.091930321368169
 20
-15.03798816767636
 30
-8.526512829121202e-14
 11
-7.099134964352368
 21
-15.271370314959157
 31
-8.526512829121202e-14
  0
LINE
  5
165
330
17
100
AcDbEntity
  8
0
100
AcDbLine
 10
-7.099134964352368
 20
-15.271370314959157
 30
-8.526512829121202e-14
 11
-7.106066753742562
 21
-15.505331014792091
 31
-8.526512829121202e-14
  0
LINE
  5
166
330
17
100
AcDbEntity
  8
0
100
AcDbLine
 10
-7.106066753742562
 20
-15.505331014792091
 30
-8.526512829121202e-14
 11
-7.112727983058464
 21
-15.739853585327268
 31
-8.526512829121202e-14
  0
LINE
  5
167
330
17
100
AcDbEntity
  8
0
100
AcDbLine
 10
-7.112727983058464
 20
-15.739853585327268
 30
-8.526512829121202e-14
 11
-7.119121102012736
 21
-15.974921007183156
 31
-8.526512829121202e-14
  0
LINE
  5
168
330
17
100
AcDbEntity
  8
0
100
AcDbLine
 10
-7.119121102012736
 20
-15.974921007183156
 30
-8.526512829121202e-14
 11
-7.125248674651127
 21
-16.210516066896986
 31
-8.526512829121202e-14
  0
LINE
  5
169
330
17
100
AcDbEntity
  8
0
100
AcDbLine
 10
-7.125248674651127
 20
-16.210516066896986
 30
-8.526512829121202e-14
 11
-7.131113494100186
 21
-16.44662091897544
 31
-8.526512829121202e-14
  0
LINE
  5
16A
330
17
100
AcDbEntity
  8
0
100
AcDbLine
 10
-7.131113494100186
 20
-16.44662091897544
 30
-8.526512829121202e-14
 11
-7.136718299647791
 21
-16.683217709185598
 31
-8.526512829121202e-14
  0
LINE
  5
16B
330
17
100
AcDbEntity
  8
0
100
AcDbLine
 10
-7.136718299647791
 20
-16.683217709185598
 30
-8.526512829121202e-14
 11
-7.142066100012288
 21
-16.920288132455497
 31
-8.526512829121202e-14
  0
LINE
  5
16C
330
17
100
AcDbEntity
  8
0
100
AcDbLine
 10
-7.142066100012288
 20
-16.920288132455497
 30
-8.526512829121202e-14
 11
-7.14716000315744
 21
-17.157813396133065
 31
-8.526512829121202e-14
  0
LINE
  5
16D
330
17
100
AcDbEntity
  8
0
100
AcDbLine
 10
-7.14716000315744
 20
-17.157813396133065
 30
-8.526512829121202e-14
 11
-7.152003223460545
 21
-17.395774339196123
 31
-8.526512829121202e-14
  0
LINE
  5
16E
330
17
100
AcDbEntity
  8
0
100
AcDbLine
 10
-7.152003223460545
 20
-17.395774339196123
 30
-8.526512829121202e-14
 11
-7.156599088055634
 21
-17.634151390146386
 31
-8.526512829121202e-14
  0
LINE
  5
16F
330
17
100
AcDbEntity
  8
0
100
AcDbLine
 10
-7.156599088055634
 20
-17.634151390146386
 30
-8.526512829121202e-14
 11
-7.160951032847601
 21
-17.872924538124593
 31
-8.526512829121202e-14
  0
LINE
  5
170
330
17
100
AcDbEntity
  8
0
100
AcDbLine
 10
-7.160951032847601
 20
-17.872924538124593
 30
-8.526512829121202e-14
 11
-7.161577064886048
 21
-17.909337636006725
 31
-8.526512829121202e-14
  0
LINE
  5
171
330
17
100
AcDbEntity
  8
0
100
AcDbLine
 10
-7.161577064886048
 20
-17.909337636006725
 30
-8.526512829121202e-14
 11
5.552652718543543
 21
-17.909337636006725
 31
-8.526512829121202e-14
  0
LINE
  5
172
330
17
100
AcDbEntity
  8
0
100
AcDbLine
 10
5.552652718543543
 20
-17.909337636006725
 30
-8.526512829121202e-14
 11
5.559890429648265
 21
-12.403653825892107
 31
-8.526512829121202e-14
  0
LINE
  5
173
330
17
100
AcDbEntity
  8
0
100
AcDbLine
 10
5.559890429648265
 20
-12.403653825892107
 30
-8.526512829121202e-14
 11
5.499878925649707
 21
-4.400387031692993
 31
-8.526512829121202e-14
  0
LINE
  5
174
330
17
100
AcDbEntity
  8
0
100
AcDbLine
 10
5.499878925649707
 20
-4.400387031692993
 30
-8.526512829121202e-14
 11
5.417757833319968
 21
0.0677433446892266
 31
-8.526512829121202e-14
  0
LINE
  5
175
330
17
100
AcDbEntity
  8
0
100
AcDbLine
 10
5.417757833319968
 20
0.0677433446892266
 30
-8.526512829121202e-14
 11
5.319893149240039
 21
3.546149482643578
 31
-8.526512829121202e-14
  0
LINE
  5
176
330
17
100
AcDbEntity
  8
0
100
AcDbLine
 10
5.319893149240039
 20
3.546149482643578
 30
-8.526512829121202e-14
 11
5.163934344512061
 21
7.528053249729787
 31
-8.526512829121202e-14
  0
LINE
  5
177
330
17
100
AcDbEntity
  8
0
100
AcDbLine
 10
5.163934344512061
 20
7.528053249729787
 30
-8.526512829121202e-14
 11
4.978373054613547
 21
11.0677794638626
 31
-8.526512829121202e-14
  0
LINE
  5
178
330
17
100
AcDbEntity
  8
0
100
AcDbLine
 10
4.978373054613547
 20
11.0677794638626
 30
-8.526512829121202e-14
 11
4.783296915000882
 21
14.041452872364488
 31
-8.526512829121202e-14
  0
LINE
  5
179
330
17
100
AcDbEntity
  8
0
100
AcDbLine
 10
4.783296915000882
 20
14.041452872364488
 30
-8.526512829121202e-14
 11
4.454200792239707
 21
18.066693528330596
 31
-8.526512829121202e-14
  0
LINE
  5
17A
330
17
100
AcDbEntity
  8
0
100
AcDbLine
 10
4.454200792239707
 20
18.066693528330596
 30
-8.526512829121202e-14
 11
4.228302723054762
 21
20.35366302593885
 31
-8.526512829121202e-14
  0
LINE
  5
17B
330
17
100
AcDbEntity
  8
0
100
AcDbLine
 10
4.228302723054762
 20
20.35366302593885
 30
-8.526512829121202e-14
 11
3.9370352435530496
 21
22.5415089621831
 31
-8.526512829121202e-14
  0
ENDSEC
  0
SECTION
  2
OBJECTS
  0
DICTIONARY
  5
A
330
0
100
AcDbDictionary
281
1
  3
ACAD_COLOR
350
B
  3
ACAD_GROUP
350
C
  3
ACAD_LAYOUT
350
D
  3
ACAD_MATERIAL
350
E
  3
ACAD_MLEADERSTYLE
350
F
  3
ACAD_MLINESTYLE
350
10
  3
ACAD_PLOTSETTINGS
350
11
  3
ACAD_PLOTSTYLENAME
350
12
  3
ACAD_SCALELIST
350
14
  3
ACAD_TABLESTYLE
350
15
  3
ACAD_VISUALSTYLE
350
16
  3
EZDXF_META
350
2D
  0
DICTIONARY
  5
B
330
A
100
AcDbDictionary
281
1
  0
DICTIONARY
  5
C
330
A
100
AcDbDictionary
281
1
  0
DICTIONARY
  5
D
330
A
100
AcDbDictionary
281
1
  3
Model
350
1A
  3
Layout1
350
1E
  0
DICTIONARY
  5
E
330
A
100
AcDbDictionary
281
1
  3
ByBlock
350
1F
  3
ByLayer
350
20
  3
Global
350
21
  0
DICTIONARY
  5
F
330
A
100
AcDbDictionary
281
1
  3
Standard
350
2C
  0
DICTIONARY
  5
10
330
A
100
AcDbDictionary
281
1
  3
Standard
350
22
  0
DICTIONARY
  5
11
330
A
100
AcDbDictionary
281
1
  0
ACDBDICTIONARYWDFLT
  5
12
330
A
100
AcDbDictionary
281
1
  3
Normal
350
13
100
AcDbDictionaryWithDefault
340
13
  0
ACDBPLACEHOLDER
  5
13
330
12
  0
DICTIONARY
  5
14
330
A
100
AcDbDictionary
281
1
  0
DICTIONARY
  5
15
330
A
100
AcDbDictionary
281
1
  0
DICTIONARY
  5
16
330
A
100
AcDbDictionary
281
1
  0
LAYOUT
  5
1A
330
D
100
AcDbPlotSettings
  1

  4
A3
  6

 40
7.5
 41
20.0
 42
7.5
 43
20.0
 44
420.0
 45
297.0
 46
0.0
 47
0.0
 48
0.0
 49
0.0
140
0.0
141
0.0
142
1.0
143
1.0
 70
1024
 72
1
 73
0
 74
5
  7

 75
16
 76
0
 77
2
 78
300
147
1.0
148
0.0
149
0.0
100
AcDbLayout
  1
Model
 70
1
 71
0
 10
0.0
 20
0.0
 11
420.0
 21
297.0
 12
0.0
 22
0.0
 32
0.0
 14
1e+20
 24
1e+20
 34
1e+20
 15
-1e+20
 25
-1e+20
 35
-1e+20
146
0.0
 13
0.0
 23
0.0
 33
0.0
 16
1.0
 26
0.0
 36
0.0
 17
0.0
 27
1.0
 37
0.0
 76
1
330
17
  0
LAYOUT
  5
1E
330
D
100
AcDbPlotSettings
  1

  4
A3
  6

 40
7.5
 41
20.0
 42
7.5
 43
20.0
 44
420.0
 45
297.0
 46
0.0
 47
0.0
 48
0.0
 49
0.0
140
0.0
141
0.0
142
1.0
143
1.0
 70
0
 72
1
 73
0
 74
5
  7

 75
16
 76
0
 77
2
 78
300
147
1.0
148
0.0
149
0.0
100
AcDbLayout
  1
Layout1
 70
1
 71
1
 10
0.0
 20
0.0
 11
420.0
 21
297.0
 12
0.0
 22
0.0
 32
0.0
 14
1e+20
 24
1e+20
 34
1e+20
 15
-1e+20
 25
-1e+20
 35
-1e+20
146
0.0
 13
0.0
 23
0.0
 33
0.0
 16
1.0
 26
0.0
 36
0.0
 17
0.0
 27
1.0
 37
0.0
 76
1
330
1B
  0
MATERIAL
  5
1F
102
{ACAD_REACTORS
330
E
102
}
330
E
100
AcDbMaterial
  1
ByBlock
  2

 70
0
 40
1.0
 71
1
 41
1.0
 91
-1023410177
 42
1.0
 72
1
  3

 73
1
 74
1
 75
1
 44
0.5
 73
0
 45
1.0
 46
1.0
 77
1
  4

 78
1
 79
1
170
1
 48
1.0
171
1
  6

172
1
173
1
174
1
140
1.0
141
1.0
175
1
  7

176
1
177
1
178
1
143
1.0
179
1
  8

270
1
271
1
272
1
145
1.0
146
1.0
273
1
  9

274
1
275
1
276
1
 42
1.0
 72
1
  3

 73
1
 74
1
 75
1
 94
63
  0
MATERIAL
  5
20
102
{ACAD_REACTORS
330
E
102
}
330
E
100
AcDbMaterial
  1
ByLayer
  2

 70
0
 40
1.0
 71
1
 41
1.0
 91
-1023410177
 42
1.0
 72
1
  3

 73
1
 74
1
 75
1
 44
0.5
 73
0
 45
1.0
 46
1.0
 77
1
  4

 78
1
 79
1
170
1
 48
1.0
171
1
  6

172
1
173
1
174
1
140
1.0
141
1.0
175
1
  7

176
1
177
1
178
1
143
1.0
179
1
  8

270
1
271
1
272
1
145
1.0
146
1.0
273
1
  9

274
1
275
1
276
1
 42
1.0
 72
1
  3

 73
1
 74
1
 75
1
 94
63
  0
MATERIAL
  5
21
102
{ACAD_REACTORS
330
E
102
}
330
E
100
AcDbMaterial
  1
Global
  2

 70
0
 40
1.0
 71
1
 41
1.0
 91
-1023410177
 42
1.0
 72
1
  3

 73
1
 74
1
 75
1
 44
0.5
 73
0
 45
1.0
 46
1.0
 77
1
  4

 78
1
 79
1
170
1
 48
1.0
171
1
  6

172
1
173
1
174
1
140
1.0
141
1.0
175
1
  7

176
1
177
1
178
1
143
1.0
179
1
  8

270
1
271
1
272
1
145
1.0
146
1.0
273
1
  9

274
1
275
1
276
1
 42
1.0
 72
1
  3

 73
1
 74
1
 75
1
 94
63
  0
MLINESTYLE
  5
22
102
{ACAD_REACTORS
330
10
102
}
330
10
100
AcDbMlineStyle
  2
Standard
 70
0
  3

 62
256
 51
90.0
 52
90.0
 71
2
 49
0.5
 62
256
  6
BYLAYER
 49
-0.5
 62
256
  6
BYLAYER
  0
MLEADERSTYLE
  5
2C
102
{ACAD_REACTORS
330
F
102
}
330
F
100
AcDbMLeaderStyle
179
2
170
2
171
1
172
0
 90
2
 40
0.0
 41
0.0
173
1
 91
-1056964608
 92
-2
290
1
 42
2.0
291
1
 43
8.0
  3
Standard
 44
4.0
300

342
29
174
1
175
1
176
0
178
1
 93
-1056964608
 45
4.0
292
0
297
0
 46
4.0
 94
-1056964608
 47
1.0
 49
1.0
140
1.0
294
1
141
0.0
177
0
142
1.0
295
0
296
0
143
3.75
271
0
272
9
273
9
  0
DICTIONARY
  5
2D
330
A
100
AcDbDictionary
280
1
281
1
  3
CREATED_BY_EZDXF
350
2E
  3
WRITTEN_BY_EZDXF
350
17F
  0
DICTIONARYVAR
  5
2E
330
2D
100
DictionaryVariables
280
0
  1
1.4.4 @ 2026-09-23T02:56:30.753016+00:00
  0
DICTIONARYVAR
  5
17F
330
2D
100
DictionaryVariables
280
0
  1
1.4.4 @ 2026-09-23T02:56:30.779714+00:00
  0
ENDSEC
  0
EOF
