  0
SECTION
  2
HEADER
  9
$ACADVER
  1
AC1027
  9
$ACADMAINTVER
 70
105
  9
$DWGCODEPAGE
  3
ANSI_1252
  9
$LASTSAVEDBY
  1
ezdxf
  9
$REQUIREDVERSIONS
160
0
  9
$INSBASE
 10
0.0
 20
0.0
 30
0.0
  9
$EXTMIN
 10
1e+20
 20
1e+20
 30
1e+20
  9
$EXTMAX
 10
-1e+20
 20
-1e+20
 30
-1e+20
  9
$LIMMIN
 10
0.0
 20
0.0
  9
$LIMMAX
 10
420.0
 20
297.0
  9
$ORTHOMODE
 70
0
  9
$REGENMODE
 70
1
  9
$FILLMODE
 70
1
  9
$QTEXTMODE
 70
0
  9
$MIRRTEXT
 70
1
  9
$LTSCALE
 40
1.0
  9
$ATTMODE
 70
1
  9
$TEXTSIZE
 40
2.5
  9
$TRACEWID
 40
1.0
  9
$TEXTSTYLE
  7
Standard
  9
$CLAYER
  8
0
  9
$CELTYPE
  6
ByLayer
  9
$CECOLOR
 62
256
  9
$CELTSCALE
 40
1.0
  9
$DISPSILH
 70
0
  9
$DIMSCALE
 40
1.0
  9
$DIMASZ
 40
2.5
  9
$DIMEXO
 40
0.625
  9
$DIMDLI
 40
3.75
  9
$DIMRND
 40
0.0
  9
$DIMDLE
 40
0.0
  9
$DIMEXE
 40
1.25
  9
$DIMTP
 40
0.0
  9
$DIMTM
 40
0.0
  9
$DIMTXT
 40
2.5
  9
$DIMCEN
 40
2.5
  9
$DIMTSZ
 40
0.0
  9
$DIMTOL
 70
0
  9
$DIMLIM
 70
0
  9
$DIMTIH
 70
0
  9
$DIMTOH
 70
0
  9
$DIMSE1
 70
0
  9
$DIMSE2
 70
0
  9
$DIMTAD
 70
1
  9
$DIMZIN
 70
8
  9
$DIMBLK
  1

  9
$DIMASO
 70
1
  9
$DIMSHO
 70
1
  9
$DIMPOST
  1

  9
$DIMAPOST
  1

  9
$DIMALT
 70
0
  9
$DIMALTD
 70
3
  9
$DIMALTF
 40
0.03937007874
  9
$DIMLFAC
 40
1.0
  9
$DIMTOFL
 70
1
  9
$DIMTVP
 40
0.0
  9
$DIMTIX
 70
0
  9
$DIMSOXD
 70
0
  9
$DIMSAH
 70
0
  9
$DIMBLK1
  1

  9
$DIMBLK2
  1

  9
$DIMSTYLE
  2
ISO-25
  9
$DIMCLRD
 70
0
  9
$DIMCLRE
 70
0
  9
$DIMCLRT
 70
0
  9
$DIMTFAC
 40
1.0
  9
$DIMGAP
 40
0.625
  9
$DIMJUST
 70
0
  9
$DIMSD1
 70
0
  9
$DIMSD2
 70
0
  9
$DIMTOLJ
 70
0
  9
$DIMTZIN
 70
8
  9
$DIMALTZ
 70
0
  9
$DIMALTTZ
 70
0
  9
$DIMUPT
 70
0
  9
$DIMDEC
 70
2
  9
$DIMTDEC
 70
2
  9
$DIMALTU
 70
2
  9
$DIMALTTD
 70
3
  9
$DIMTXSTY
  7
Standard
  9
$DIMAUNIT
 70
0
  9
$DIMADEC
 70
0
  9
$DIMALTRND
 40
0.0
  9
$DIMAZIN
 70
0
  9
$DIMDSEP
 70
44
  9
$DIMATFIT
 70
3
  9
$DIMFRAC
 70
0
  9
$DIMLDRBLK
  1

  9
$DIMLUNIT
 70
2
  9
$DIMLWD
 70
-2
  9
$DIMLWE
 70
-2
  9
$DIMTMOVE
 70
0
  9
$DIMFXL
 40
1.0
  9
$DIMFXLON
 70
0
  9
$DIMJOGANG
 40
0.785398163397
  9
$DIMTFILL
 70
0
  9
$DIMTFILLCLR
 70
0
  9
$DIMARCSYM
 70
0
  9
$DIMLTYPE
  6

  9
$DIMLTEX1
  6

  9
$DIMLTEX2
  6

  9
$DIMTXTDIRECTION
 70
0
  9
$LUNITS
 70
2
  9
$LUPREC
 70
4
  9
$SKETCHINC
 40
1.0
  9
$FILLETRAD
 40
10.0
  9
$AUNITS
 70
0
  9
$AUPREC
 70
2
  9
$MENU
  1
.
  9
$ELEVATION
 40
0.0
  9
$PELEVATION
 40
0.0
  9
$THICKNESS
 40
0.0
  9
$LIMCHECK
 70
0
  9
$CHAMFERA
 40
0.0
  9
$CHAMFERB
 40
0.0
  9
$CHAMFERC
 40
0.0
  9
$CHAMFERD
 40
0.0
  9
$SKPOLY
 70
0
  9
$TDCREATE
 40
2461307.8224421297
  9
$TDUCREATE
 40
2458532.153996898
  9
$TDUPDATE
 40
2461307.8224421297
  9
$TDUUPDATE
 40
2458532.1544311
  9
$TDINDWG
 40
0.0
  9
$TDUSRTIMER
 40
0.0
  9
$USRTIMER
 70
1
  9
$ANGBASE
 50
0.0
  9
$ANGDIR
 70
0
  9
$PDMODE
 70
0
  9
$PDSIZE
 40
0.0
  9
$PLINEWID
 40
0.0
  9
$SPLFRAME
 70
0
  9
$SPLINETYPE
 70
6
  9
$SPLINESEGS
 70
8
  9
$HANDSEED
  5
181
  9
$SURFTAB1
 70
6
  9
$SURFTAB2
 70
6
  9
$SURFTYPE
 70
6
  9
$SURFU
 70
6
  9
$SURFV
 70
6
  9
$UCSBASE
  2

  9
$UCSNAME
  2

  9
$UCSORG
 10
0.0
 20
0.0
 30
0.0
  9
$UCSXDIR
 10
1.0
 20
0.0
 30
0.0
  9
$UCSYDIR
 10
0.0
 20
1.0
 30
0.0
  9
$UCSORTHOREF
  2

  9
$UCSORTHOVIEW
 70
0
  9
$UCSORGTOP
 10
0.0
 20
0.0
 30
0.0
  9
$UCSORGBOTTOM
 10
0.0
 20
0.0
 30
0.0
  9
$UCSORGLEFT
 10
0.0
 20
0.0
 30
0.0
  9
$UCSORGRIGHT
 10
0.0
 20
0.0
 30
0.0
  9
$UCSORGFRONT
 10
0.0
 20
0.0
 30
0.0
  9
$UCSORGBACK
 10
0.0
 20
0.0
 30
0.0
  9
$PUCSBASE
  2

  9
$PUCSNAME
  2

  9
$PUCSORG
 10
0.0
 20
0.0
 30
0.0
  9
$PUCSXDIR
 10
1.0
 20
0.0
 30
0.0
  9
$PUCSYDIR
 10
0.0
 20
1.0
 30
0.0
  9
$PUCSORTHOREF
  2

  9
$PUCSORTHOVIEW
 70
0
  9
$PUCSORGTOP
 10
0.0
 20
0.0
 30
0.0
  9
$PUCSORGBOTTOM
 10
0.0
 20
0.0
 30
0.0
  9
$PUCSORGLEFT
 10
0.0
 20
0.0
 30
0.0
  9
$PUCSORGRIGHT
 10
0.0
 20
0.0
 30
0.0
  9
$PUCSORGFRONT
 10
0.0
 20
0.0
 30
0.0
  9
$PUCSORGBACK
 10
0.0
 20
0.0
 30
0.0
  9
$USERI1
 70
0
  9
$USERI2
 70
0
  9
$USERI3
 70
0
  9
$USERI4
 70
0
  9
$USERI5
 70
0
  9
$USERR1
 40
0.0
  9
$USERR2
 40
0.0
  9
$USERR3
 40
0.0
  9
$USERR4
 40
0.0
  9
$USERR5
 40
0.0
  9
$WORLDVIEW
 70
1
  9
$SHADEDGE
 70
3
  9
$SHADEDIF
 70
70
  9
$TILEMODE
 70
1
  9
$MAXACTVP
 70
64
  9
$PINSBASE
 10
0.0
 20
0.0
 30
0.0
  9
$PLIMCHECK
 70
0
  9
$PEXTMIN
 10
1e+20
 20
1e+20
 30
1e+20
  9
$PEXTMAX
 10
-1e+20
 20
-1e+20
 30
-1e+20
  9
$PLIMMIN
 10
0.0
 20
0.0
  9
$PLIMMAX
 10
420.0
 20
297.0
  9
$UNITMODE
 70
0
  9
$VISRETAIN
 70
1
  9
$PLINEGEN
 70
0
  9
$PSLTSCALE
 70
1
  9
$TREEDEPTH
 70
3020
  9
$CMLSTYLE
  2
Standard
  9
$CMLJUST
 70
0
  9
$CMLSCALE
 40
20.0
  9
$PROXYGRAPHICS
 70
1
  9
$MEASUREMENT
 70
1
  9
$CELWEIGHT
370
-1
  9
$ENDCAPS
280
0
  9
$JOINSTYLE
280
0
  9
$LWDISPLAY
290
0
  9
$INSUNITS
 70
4
  9
$HYPERLINKBASE
  1

  9
$STYLESHEET
  1

  9
$XEDIT
290
1
  9
$CEPSNTYPE
380
0
  9
$PSTYLEMODE
290
1
  9
$FINGERPRINTGUID
  2
{8A95022B-B87E-4111-BBDF-036469599718}
  9
$VERSIONGUID
  2
{F75263A5-3FD5-4850-A94A-CE515DBC2173}
  9
$EXTNAMES
290
1
  9
$PSVPSCALE
 40
0.0
  9
$OLESTARTUP
290
0
  9
$SORTENTS
280
127
  9
$INDEXCTL
280
0
  9
$HIDETEXT
280
1
  9
$XCLIPFRAME
280
1
  9
$HALOGAP
280
0
  9
$OBSCOLOR
 70
257
  9
$OBSLTYPE
280
0
  9
$INTERSECTIONDISPLAY
280
0
  9
$INTERSECTIONCOLOR
 70
257
  9
$DIMASSOC
280
2
  9
$PROJECTNAME
  1

  9
$CAMERADISPLAY
290
0
  9
$LENSLENGTH
 40
50.0
  9
$CAMERAHEIGHT
 40
0.0
  9
$STEPSPERSEC
 40
24.0
  9
$STEPSIZE
 40
100.0
  9
$3DDWFPREC
 40
2.0
  9
$PSOLWIDTH
 40
0.005
  9
$PSOLHEIGHT
 40
0.08
  9
$LOFTANG1
 40
1.570796326795
  9
$LOFTANG2
 40
1.570796326795
  9
$LOFTMAG1
 40
0.0
  9
$LOFTMAG2
 40
0.0
  9
$LOFTPARAM
 70
7
  9
$LOFTNORMALS
280
1
  9
$LATITUDE
 40
37.795
  9
$LONGITUDE
 40
-122.394
  9
$NORTHDIRECTION
 40
0.0
  9
$TIMEZONE
 70
-8000
  9
$LIGHTGLYPHDISPLAY
280
1
  9
$TILEMODELIGHTSYNCH
280
1
  9
$CMATERIAL
347
20
  9
$SOLIDHIST
280
0
  9
$SHOWHIST
280
1
  9
$DWFFRAME
280
2
  9
$DGNFRAME
280
2
  9
$REALWORLDSCALE
290
1
  9
$INTERFERECOLOR
 62
256
  9
$CSHADOW
280
0
  9
$SHADOWPLANELOCATION
 40
0.0
  0
ENDSEC
  0
SECTION
  2
CLASSES
  0
CLASS
  1
ACDBDICTIONARYWDFLT
  2
AcDbDictionaryWithDefault
  3
ObjectDBX Classes
 90
0
 91
0
280
0
281
0
  0
CLASS
  1
SUN
  2
AcDbSun
  3
SCENEOE
 90
1153
 91
0
280
0
281
0
  0
CLASS
  1
VISUALSTYLE
  2
AcDbVisualStyle
  3
ObjectDBX Classes
 90
4095
 91
0
280
0
281
0
  0
CLASS
  1
MATERIAL
  2
AcDbMaterial
  3
ObjectDBX Classes
 90
1153
 91
0
280
0
281
0
  0
CLASS
  1
SCALE
  2
AcDbScale
  3
ObjectDBX Classes
 90
1153
 91
0
280
0
281
0
  0
CLASS
  1
TABLESTYLE
  2
AcDbTableStyle
  3
ObjectDBX Classes
 90
4095
 91
0
280
0
281
0
  0
CLASS
  1
MLEADERSTYLE
  2
AcDbMLeaderStyle
  3
ACDB_MLEADERSTYLE_CLASS
 90
4095
 91
0
280
0
281
0
  0
CLASS
  1
DICTIONARYVAR
  2
AcDbDictionaryVar
  3
ObjectDBX Classes
 90
0
 91
0
280
0
281
0
  0
CLASS
  1
CELLSTYLEMAP
  2
AcDbCellStyleMap
  3
ObjectDBX Classes
 90
1152
 91
0
280
0
281
0
  0
CLASS
  1
MENTALRAYRENDERSETTINGS
  2
AcDbMentalRayRenderSettings
  3
SCENEOE
 90
1024
 91
0
280
0
281
0
  0
CLASS
  1
ACDBDETAILVIEWSTYLE
  2
AcDbDetailViewStyle
  3
ObjectDBX Classes
 90
1025
 91
0
280
0
281
0
  0
CLASS
  1
ACDBSECTIONVIEWSTYLE
  2
AcDbSectionViewStyle
  3
ObjectDBX Classes
 90
1025
 91
0
280
0
281
0
  0
CLASS
  1
RASTERVARIABLES
  2
AcDbRasterVariables
  3
ISM
 90
0
 91
0
280
0
281
0
  0
CLASS
  1
ACDBPLACEHOLDER
  2
AcDbPlaceHolder
  3
ObjectDBX Classes
 90
0
 91
0
280
0
281
0
  0
CLASS
  1
LAYOUT
  2
AcDbLayout
  3
ObjectDBX Classes
 90
0
 91
0
280
0
281
0
  0
ENDSEC
  0
SECTION
  2
TABLES
  0
TABLE
  2
VPORT
  5
8
330
0
100
AcDbSymbolTable
 70
1
  0
VPORT
  5
17D
330
8
100
AcDbSymbolTableRecord
100
AcDbViewportTableRecord
  2
*Active
 70
0
 10
0.0
 20
0.0
 11
1.0
 21
1.0
 12
22.380014781007503
 22
6.360733747266999
 13
0.0
 23
0.0
 14
0.5
 24
0.5
 15
0.5
 25
0.5
 16
0.0
 26
0.0
 36
1.0
 17
0.0
 27
0.0
 37
0.0
 40
22.380014781007503
 41
1.34
 42
50.0
 43
0.0
 44
0.0
 50
0.0
 51
0.0
 71
0
 72
1000
 73
1
 74
3
 75
0
 76
0
 77
0
 78
0
281
0
 65
1
110
0.0
120
0.0
130
0.0
111
1.0
121
0.0
131
0.0
112
0.0
122
1.0
132
0.0
 79
0
146
0.0
  0
ENDTAB
  0
TABLE
  2
LTYPE
  5
2
330
0
100
AcDbSymbolTable
 70
3
  0
LTYPE
  5
24
330
2
100
AcDbSymbolTableRecord
100
AcDbLinetypeTableRecord
  2
ByBlock
 70
0
  3

 72
65
 73
0
 40
0.0
  0
LTYPE
  5
25
330
2
100
AcDbSymbolTableRecord
100
AcDbLinetypeTableRecord
  2
ByLayer
 70
0
  3

 72
65
 73
0
 40
0.0
  0
LTYPE
  5
26
330
2
100
AcDbSymbolTableRecord
100
AcDbLinetypeTableRecord
  2
Continuous
 70
0
  3

 72
65
 73
0
 40
0.0
  0
ENDTAB
  0
TABLE
  2
LAYER
  5
1
330
0
100
AcDbSymbolTable
 70
2
  0
LAYER
  5
27
330
1
100
AcDbSymbolTableRecord
100
AcDbLayerTableRecord
  2
0
 70
0
 62
7
  6
Continuous
370
-3
390
13
347
21
  0
LAYER
  5
28
330
1
100
AcDbSymbolTableRecord
100
AcDbLayerTableRecord
  2
Defpoints
 70
0
 62
7
  6
Continuous
290
0
370
-3
390
13
347
21
  0
ENDTAB
  0
TABLE
  2
STYLE
  5
5
330
0
100
AcDbSymbolTable
 70
1
  0
STYLE
  5
29
330
5
100
AcDbSymbolTableRecord
100
AcDbTextStyleTableRecord
  2
Standard
 70
0
 40
0.0
 41
1.0
 50
0.0
 71
0
 42
2.5
  3
txt
  4

  0
ENDTAB
  0
TABLE
  2
VIEW
  5
7
330
0
100
AcDbSymbolTable
 70
0
  0
ENDTAB
  0
TABLE
  2
UCS
  5
6
330
0
100
AcDbSymbolTable
 70
0
  0
ENDTAB
  0
TABLE
  2
APPID
  5
3
330
0
100
AcDbSymbolTable
 70
3
  0
APPID
  5
2A
330
3
100
AcDbSymbolTableRecord
100
AcDbRegAppTableRecord
  2
ACAD
 70
0
  0
APPID
  5
17E
330
3
100
AcDbSymbolTableRecord
100
AcDbRegAppTableRecord
  2
HATCHBACKGROUNDCOLOR
 70
0
  0
APPID
  5
17F
330
3
100
AcDbSymbolTableRecord
100
AcDbRegAppTableRecord
  2
EZDXF
 70
0
  0
ENDTAB
  0
TABLE
  2
DIMSTYLE
  5
4
330
0
100
AcDbSymbolTable
 70
1
100
AcDbDimStyleTable
  0
DIMSTYLE
105
2B
330
4
100
AcDbSymbolTableRecord
100
AcDbDimStyleTableRecord
  2
Standard
 70
0
 40
1.0
 41
2.5
 42
0.625
 43
3.75
 44
1.25
 45
0.0
 46
0.0
 47
0.0
 48
0.0
 49
2.5
140
2.5
141
2.5
142
0.0
143
0.03937007874
144
1.0
145
0.0
146
1.0
147
0.625
148
0.0
 69
0
 70
0
 71
0
 72
0
 73
0
 74
0
 75
0
 76
0
 77
1
 78
8
 79
3
170
0
171
3
172
1
173
0
174
0
175
0
176
0
177
0
178
0
179
2
271
2
272
2
273
2
274
3
275
0
276
0
277
2
278
44
279
0
280
0
281
0
282
0
283
0
284
8
285
0
286
0
288
0
289
3
290
0
371
-2
372
-2
  0
ENDTAB
  0
TABLE
  2
BLOCK_RECORD
  5
9
330
0
100
AcDbSymbolTable
 70
2
  0
BLOCK_RECORD
  5
17
330
9
100
AcDbSymbolTableRecord
100
AcDbBlockTableRecord
  2
*Model_Space
340
1A
 70
0
280
1
281
0
  0
BLOCK_RECORD
  5
1B
330
9
100
AcDbSymbolTableRecord
100
AcDbBlockTableRecord
  2
*Paper_Space
340
1E
 70
0
280
1
281
0
  0
ENDTAB
  0
ENDSEC
  0
SECTION
  2
BLOCKS
  0
BLOCK
  5
18
330
17
100
AcDbEntity
  8
0
100
AcDbBlockBegin
  2
*Model_Space
 70
0
 10
0.0
 20
0.0
 30
0.0
  3
*Model_Space
  1

  0
ENDBLK
  5
19
330
17
100
AcDbEntity
  8
0
100
AcDbBlockEnd
  0
BLOCK
  5
1C
330
1B
100
AcDbEntity
  8
0
100
AcDbBlockBegin
  2
*Paper_Space
 70
0
 10
0.0
 20
0.0
 30
0.0
  3
*Paper_Space
  1

  0
ENDBLK
  5
1D
330
1B
100
AcDbEntity
  8
0
100
AcDbBlockEnd
  0
ENDSEC
  0
SECTION
  2
ENTITIES
  0
LINE
  5
2F
330
17
100
AcDbEntity
  8
0
100
AcDbLine
 10
4.309182963824998
 20
11.098612308438998
 30
0.0
 11
2.1147060225249987
 21
10.683220634608999
 31
0.0
  0
LINE
  5
30
330
17
100
AcDbEntity
  8
0
100
AcDbLine
 10
2.1147060225249987
 20
10.683220634608999
 30
0.0
 11
0.0
 21
10.201383692891998
 31
0.0
  0
LINE
  5
31
330
17
100
AcDbEntity
  8
0
100
AcDbLine
 10
0.0
 20
10.201383692891998
 30
0.0
 11
0.08433103096700023
 21
10.128878073217999
 31
0.0
  0
LINE
  5
32
330
17
100
AcDbEntity
  8
0
100
AcDbLine
 10
0.08433103096700023
 20
10.128878073217999
 30
0.0
 11
0.20789656840900506
 21
10.024099573975999
 31
0.0
  0
LINE
  5
33
330
17
100
AcDbEntity
  8
0
100
AcDbLine
 10
0.20789656840900506
 20
10.024099573975999
 30
0.0
 11
0.3233385829589963
 21
9.927497075705
 31
0.0
  0
LINE
  5
34
330
17
100
AcDbEntity
  8
0
100
AcDbLine
 10
0.3233385829589963
 20
9.927497075705
 30
0.0
 11
0.42925063249600015
 21
9.840009337158998
 31
0.0
  0
LINE
  5
35
330
17
100
AcDbEntity
  8
0
100
AcDbLine
 10
0.42925063249600015
 20
9.840009337158998
 30
0.0
 11
0.5241795344660005
 21
9.762603996053999
 31
0.0
  0
LINE
  5
36
330
17
100
AcDbEntity
  8
0
100
AcDbLine
 10
0.5241795344660005
 20
9.762603996053999
 30
0.0
 11
0.6068527438659999
 21
9.696107745998999
 31
0.0
  0
LINE
  5
37
330
17
100
AcDbEntity
  8
0
100
AcDbLine
 10
0.6068527438659999
 20
9.696107745998999
 30
0.0
 11
0.7036932254479993
 21
9.619187697604998
 31
0.0
  0
LINE
  5
38
330
17
100
AcDbEntity
  8
0
100
AcDbLine
 10
0.7036932254479993
 20
9.619187697604998
 30
0.0
 11
0.8013500553550017
 21
9.542454482766997
 31
0.0
  0
LINE
  5
39
330
17
100
AcDbEntity
  8
0
100
AcDbLine
 10
0.8013500553550017
 20
9.542454482766997
 30
0.0
 11
0.8998342888860051
 21
9.465981422788998
 31
0.0
  0
LINE
  5
3A
330
17
100
AcDbEntity
  8
0
100
AcDbLine
 10
0.8998342888860051
 20
9.465981422788998
 30
0.0
 11
0.9993748436129977
 21
9.389670214817999
 31
0.0
  0
LINE
  5
3B
330
17
100
AcDbEntity
  8
0
100
AcDbLine
 10
0.9993748436129977
 20
9.389670214817999
 30
0.0
 11
1.1002045010000003
 21
9.313419782681999
 31
0.0
  0
LINE
  5
3C
330
17
100
AcDbEntity
  8
0
100
AcDbLine
 10
1.1002045010000003
 20
9.313419782681999
 30
0.0
 11
1.2025470323910028
 21
9.237134750875999
 31
0.0
  0
LINE
  5
3D
330
17
100
AcDbEntity
  8
0
100
AcDbLine
 10
1.2025470323910028
 20
9.237134750875999
 30
0.0
 11
1.3066542413850009
 21
9.160705515032998
 31
0.0
  0
LINE
  5
3E
330
17
100
AcDbEntity
  8
0
100
AcDbLine
 10
1.3066542413850009
 20
9.160705515032998
 30
0.0
 11
1.412741689157997
 21
9.084037875351997
 31
0.0
  0
LINE
  5
3F
330
17
100
AcDbEntity
  8
0
100
AcDbLine
 10
1.412741689157997
 20
9.084037875351997
 30
0.0
 11
1.5210412274799978
 21
9.007036100848998
 31
0.0
  0
LINE
  5
40
330
17
100
AcDbEntity
  8
0
100
AcDbLine
 10
1.5210412274799978
 20
9.007036100848998
 30
0.0
 11
1.6318024815399994
 21
8.929592116987
 31
0.0
  0
LINE
  5
41
330
17
100
AcDbEntity
  8
0
100
AcDbLine
 10
1.6318024815399994
 20
8.929592116987
 30
0.0
 11
1.7452378773489983
 21
8.851616194446999
 31
0.0
  0
LINE
  5
42
330
17
100
AcDbEntity
  8
0
100
AcDbLine
 10
1.7452378773489983
 20
8.851616194446999
 30
0.0
 11
1.8619206367600007
 21
8.772785250238998
 31
0.0
  0
LINE
  5
43
330
17
100
AcDbEntity
  8
0
100
AcDbLine
 10
1.8619206367600007
 20
8.772785250238998
 30
0.0
 11
1.9209300540560008
 21
8.733438421523998
 31
0.0
  0
LINE
  5
44
330
17
100
AcDbEntity
  8
0
100
AcDbLine
 10
1.9209300540560008
 20
8.733438421523998
 30
0.0
 11
1.9810946321699987
 21
8.693671716568
 31
0.0
  0
LINE
  5
45
330
17
100
AcDbEntity
  8
0
100
AcDbLine
 10
1.9810946321699987
 20
8.693671716568
 30
0.0
 11
2.0421049127639996
 21
8.653698720592997
 31
0.0
  0
LINE
  5
46
330
17
100
AcDbEntity
  8
0
100
AcDbLine
 10
2.0421049127639996
 20
8.653698720592997
 30
0.0
 11
2.1036552946870017
 21
8.613724668512
 31
0.0
  0
LINE
  5
47
330
17
100
AcDbEntity
  8
0
100
AcDbLine
 10
2.1036552946870017
 20
8.613724668512
 30
0.0
 11
2.230484021697002
 21
8.532431971891999
 31
0.0
  0
LINE
  5
48
330
17
100
AcDbEntity
  8
0
100
AcDbLine
 10
2.230484021697002
 20
8.532431971891999
 30
0.0
 11
2.3611797248909987
 21
8.450116209360997
 31
0.0
  0
LINE
  5
49
330
17
100
AcDbEntity
  8
0
100
AcDbLine
 10
2.3611797248909987
 20
8.450116209360997
 30
0.0
 11
2.4170010098180015
 21
8.415396779602
 31
0.0
  0
LINE
  5
4A
330
17
100
AcDbEntity
  8
0
100
AcDbLine
 10
2.4170010098180015
 20
8.415396779602
 30
0.0
 11
2.4739538401269954
 21
8.380242946095999
 31
0.0
  0
LINE
  5
4B
330
17
100
AcDbEntity
  8
0
100
AcDbLine
 10
2.4739538401269954
 20
8.380242946095999
 30
0.0
 11
2.5316693285559992
 21
8.344891728223997
 31
0.0
  0
LINE
  5
4C
330
17
100
AcDbEntity
  8
0
100
AcDbLine
 10
2.5316693285559992
 20
8.344891728223997
 30
0.0
 11
2.589858391629999
 21
8.309526046466997
 31
0.0
  0
LINE
  5
4D
330
17
100
AcDbEntity
  8
0
100
AcDbLine
 10
2.589858391629999
 20
8.309526046466997
 30
0.0
 11
2.7095032314679983
 21
8.237662418523998
 31
0.0
  0
LINE
  5
4E
330
17
100
AcDbEntity
  8
0
100
AcDbLine
 10
2.7095032314679983
 20
8.237662418523998
 30
0.0
 11
2.8320953709469983
 21
8.165189554074997
 31
0.0
  0
LINE
  5
4F
330
17
100
AcDbEntity
  8
0
100
AcDbLine
 10
2.8320953709469983
 20
8.165189554074997
 30
0.0
 11
2.9580362073060016
 21
8.091928436860998
 31
0.0
  0
LINE
  5
50
330
17
100
AcDbEntity
  8
0
100
AcDbLine
 10
2.9580362073060016
 20
8.091928436860998
 30
0.0
 11
3.087747047517997
 21
8.017697093752
 31
0.0
  0
LINE
  5
51
330
17
100
AcDbEntity
  8
0
100
AcDbLine
 10
3.087747047517997
 20
8.017697093752
 30
0.0
 11
3.153469652343997
 21
7.980545901214999
 31
0.0
  0
LINE
  5
52
330
17
100
AcDbEntity
  8
0
100
AcDbLine
 10
3.153469652343997
 20
7.980545901214999
 30
0.0
 11
3.2204014850660023
 21
7.943023244697999
 31
0.0
  0
LINE
  5
53
330
17
100
AcDbEntity
  8
0
100
AcDbLine
 10
3.2204014850660023
 20
7.943023244697999
 30
0.0
 11
3.288247984517998
 21
7.905302514958999
 31
0.0
  0
LINE
  5
54
330
17
100
AcDbEntity
  8
0
100
AcDbLine
 10
3.288247984517998
 20
7.905302514958999
 30
0.0
 11
3.3568542740849985
 21
7.867476034318999
 31
0.0
  0
LINE
  5
55
330
17
100
AcDbEntity
  8
0
100
AcDbLine
 10
3.3568542740849985
 20
7.867476034318999
 30
0.0
 11
3.4648163851239993
 21
7.808579574079998
 31
0.0
  0
LINE
  5
56
330
17
100
AcDbEntity
  8
0
100
AcDbLine
 10
3.4648163851239993
 20
7.808579574079998
 30
0.0
 11
3.574885462195997
 21
7.749306000310998
 31
0.0
  0
LINE
  5
57
330
17
100
AcDbEntity
  8
0
100
AcDbLine
 10
3.574885462195997
 20
7.749306000310998
 30
0.0
 11
3.687274012957001
 21
7.689564631775998
 31
0.0
  0
LINE
  5
58
330
17
100
AcDbEntity
  8
0
100
AcDbLine
 10
3.687274012957001
 20
7.689564631775998
 30
0.0
 11
3.8020285556869986
 21
7.6293557388509985
 31
0.0
  0
LINE
  5
59
330
17
100
AcDbEntity
  8
0
100
AcDbLine
 10
3.8020285556869986
 20
7.6293557388509985
 30
0.0
 11
3.9191945140460014
 21
7.568679996371996
 31
0.0
  0
LINE
  5
5A
330
17
100
AcDbEntity
  8
0
100
AcDbLine
 10
3.9191945140460014
 20
7.568679996371996
 30
0.0
 11
4.0388176090969985
 21
7.507538051109998
 31
0.0
  0
LINE
  5
5B
330
17
100
AcDbEntity
  8
0
100
AcDbLine
 10
4.0388176090969985
 20
7.507538051109998
 30
0.0
 11
4.160943300422002
 21
7.445930674794999
 31
0.0
  0
LINE
  5
5C
330
17
100
AcDbEntity
  8
0
100
AcDbLine
 10
4.160943300422002
 20
7.445930674794999
 30
0.0
 11
4.285617044160002
 21
7.383858685271999
 31
0.0
  0
LINE
  5
5D
330
17
100
AcDbEntity
  8
0
100
AcDbLine
 10
4.285617044160002
 20
7.383858685271999
 30
0.0
 11
4.412884179306001
 21
7.321322976271999
 31
0.0
  0
LINE
  5
5E
330
17
100
AcDbEntity
  8
0
100
AcDbLine
 10
4.412884179306001
 20
7.321322976271999
 30
0.0
 11
4.542789982928003
 21
7.258324496770998
 31
0.0
  0
LINE
  5
5F
330
17
100
AcDbEntity
  8
0
100
AcDbLine
 10
4.542789982928003
 20
7.258324496770998
 30
0.0
 11
4.675379651777998
 21
7.194864252886001
 31
0.0
  0
LINE
  5
60
330
17
100
AcDbEntity
  8
0
100
AcDbLine
 10
4.675379651777998
 20
7.194864252886001
 30
0.0
 11
4.810698309334999
 21
7.130943302672998
 31
0.0
  0
LINE
  5
61
330
17
100
AcDbEntity
  8
0
100
AcDbLine
 10
4.810698309334999
 20
7.130943302672998
 30
0.0
 11
4.948791019578
 21
7.066562747532997
 31
0.0
  0
LINE
  5
62
330
17
100
AcDbEntity
  8
0
100
AcDbLine
 10
4.948791019578
 20
7.066562747532997
 30
0.0
 11
5.089702757034001
 21
7.001723740925998
 31
0.0
  0
LINE
  5
63
330
17
100
AcDbEntity
  8
0
100
AcDbLine
 10
5.089702757034001
 20
7.001723740925998
 30
0.0
 11
5.2334784867619994
 21
6.9364274553169984
 31
0.0
  0
LINE
  5
64
330
17
100
AcDbEntity
  8
0
100
AcDbLine
 10
5.2334784867619994
 20
6.9364274553169984
 30
0.0
 11
5.380162994793
 21
6.870675143843998
 31
0.0
  0
LINE
  5
65
330
17
100
AcDbEntity
  8
0
100
AcDbLine
 10
5.380162994793
 20
6.870675143843998
 30
0.0
 11
5.529801273825999
 21
6.804467992847998
 31
0.0
  0
LINE
  5
66
330
17
100
AcDbEntity
  8
0
100
AcDbLine
 10
5.529801273825999
 20
6.804467992847998
 30
0.0
 11
5.682437681927997
 21
6.737807435063997
 31
0.0
  0
LINE
  5
67
330
17
100
AcDbEntity
  8
0
100
AcDbLine
 10
5.682437681927997
 20
6.737807435063997
 30
0.0
 11
5.8381177037190035
 21
6.670694493704
 31
0.0
  0
LINE
  5
68
330
17
100
AcDbEntity
  8
0
100
AcDbLine
 10
5.8381177037190035
 20
6.670694493704
 30
0.0
 11
5.997097506600003
 21
6.603040455440999
 31
0.0
  0
LINE
  5
69
330
17
100
AcDbEntity
  8
0
100
AcDbLine
 10
5.997097506600003
 20
6.603040455440999
 30
0.0
 11
6.077443764140998
 21
6.569178455610999
 31
0.0
  0
LINE
  5
6A
330
17
100
AcDbEntity
  8
0
100
AcDbLine
 10
6.077443764140998
 20
6.569178455610999
 30
0.0
 11
6.158582814132
 21
6.5352019413979985
 31
0.0
  0
LINE
  5
6B
330
17
100
AcDbEntity
  8
0
100
AcDbLine
 10
6.158582814132
 20
6.5352019413979985
 30
0.0
 11
6.323871649348998
 21
6.466652656119999
 31
0.0
  0
LINE
  5
6C
330
17
100
AcDbEntity
  8
0
100
AcDbLine
 10
6.323871649348998
 20
6.466652656119999
 30
0.0
 11
6.492170091652003
 21
6.397744495484998
 31
0.0
  0
LINE
  5
6D
330
17
100
AcDbEntity
  8
0
100
AcDbLine
 10
6.492170091652003
 20
6.397744495484998
 30
0.0
 11
6.663733790931001
 21
6.328391245206998
 31
0.0
  0
LINE
  5
6E
330
17
100
AcDbEntity
  8
0
100
AcDbLine
 10
6.663733790931001
 20
6.328391245206998
 30
0.0
 11
6.838608488864001
 21
6.258593846080997
 31
0.0
  0
LINE
  5
6F
330
17
100
AcDbEntity
  8
0
100
AcDbLine
 10
6.838608488864001
 20
6.258593846080997
 30
0.0
 11
7.016837113627002
 21
6.188354272846997
 31
0.0
  0
LINE
  5
70
330
17
100
AcDbEntity
  8
0
100
AcDbLine
 10
7.016837113627002
 20
6.188354272846997
 30
0.0
 11
7.198466571428003
 21
6.117673028520997
 31
0.0
  0
LINE
  5
71
330
17
100
AcDbEntity
  8
0
100
AcDbLine
 10
7.198466571428003
 20
6.117673028520997
 30
0.0
 11
7.383830588977997
 21
6.046440323831998
 31
0.0
  0
LINE
  5
72
330
17
100
AcDbEntity
  8
0
100
AcDbLine
 10
7.383830588977997
 20
6.046440323831998
 30
0.0
 11
7.430352634509003
 21
6.028702014901999
 31
0.0
  0
LINE
  5
73
330
17
100
AcDbEntity
  8
0
100
AcDbLine
 10
7.430352634509003
 20
6.028702014901999
 30
0.0
 11
7.4772873890320035
 21
6.010862235688997
 31
0.0
  0
LINE
  5
74
330
17
100
AcDbEntity
  8
0
100
AcDbLine
 10
7.4772873890320035
 20
6.010862235688997
 30
0.0
 11
7.5719323217109995
 21
5.975056245862998
 31
0.0
  0
LINE
  5
75
330
17
100
AcDbEntity
  8
0
100
AcDbLine
 10
7.5719323217109995
 20
5.975056245862998
 30
0.0
 11
7.764151116586003
 21
5.903013376937999
 31
0.0
  0
LINE
  5
76
330
17
100
AcDbEntity
  8
0
100
AcDbLine
 10
7.764151116586003
 20
5.903013376937999
 30
0.0
 11
7.959903645233997
 21
5.830551225226998
 31
0.0
  0
LINE
  5
77
330
17
100
AcDbEntity
  8
0
100
AcDbLine
 10
7.959903645233997
 20
5.830551225226998
 30
0.0
 11
8.160349363843
 21
5.7572540330849975
 31
0.0
  0
LINE
  5
78
330
17
100
AcDbEntity
  8
0
100
AcDbLine
 10
8.160349363843
 20
5.7572540330849975
 30
0.0
 11
8.326633322118997
 21
5.697065478947
 31
0.0
  0
LINE
  5
79
330
17
100
AcDbEntity
  8
0
100
AcDbLine
 10
8.326633322118997
 20
5.697065478947
 30
0.0
 11
8.406417235453997
 21
5.668915046765999
 31
0.0
  0
LINE
  5
7A
330
17
100
AcDbEntity
  8
0
100
AcDbLine
 10
8.406417235453997
 20
5.668915046765999
 30
0.0
 11
8.574044273826
 21
5.610037027423999
 31
0.0
  0
LINE
  5
7B
330
17
100
AcDbEntity
  8
0
100
AcDbLine
 10
8.574044273826
 20
5.610037027423999
 30
0.0
 11
8.574932523285003
 21
5.609727032064999
 31
0.0
  0
LINE
  5
7C
330
17
100
AcDbEntity
  8
0
100
AcDbLine
 10
8.574932523285003
 20
5.609727032064999
 30
0.0
 11
8.578818360335998
 21
5.608370257115997
 31
0.0
  0
LINE
  5
7D
330
17
100
AcDbEntity
  8
0
100
AcDbLine
 10
8.578818360335998
 20
5.608370257115997
 30
0.0
 11
8.582635747999003
 21
5.607037628049998
 31
0.0
  0
LINE
  5
7E
330
17
100
AcDbEntity
  8
0
100
AcDbLine
 10
8.582635747999003
 20
5.607037628049998
 30
0.0
 11
8.589013358359
 21
5.604811799463999
 31
0.0
  0
LINE
  5
7F
330
17
100
AcDbEntity
  8
0
100
AcDbLine
 10
8.589013358359
 20
5.604811799463999
 30
0.0
 11
8.594112529243002
 21
5.603032656537
 31
0.0
  0
LINE
  5
80
330
17
100
AcDbEntity
  8
0
100
AcDbLine
 10
8.594112529243002
 20
5.603032656537
 30
0.0
 11
8.599216414415
 21
5.601252315798998
 31
0.0
  0
LINE
  5
81
330
17
100
AcDbEntity
  8
0
100
AcDbLine
 10
8.599216414415
 20
5.601252315798998
 30
0.0
 11
8.604323212919002
 21
5.599471406992997
 31
0.0
  0
LINE
  5
82
330
17
100
AcDbEntity
  8
0
100
AcDbLine
 10
8.604323212919002
 20
5.599471406992997
 30
0.0
 11
8.609432981553997
 21
5.597689909388997
 31
0.0
  0
LINE
  5
83
330
17
100
AcDbEntity
  8
0
100
AcDbLine
 10
8.609432981553997
 20
5.597689909388997
 30
0.0
 11
8.614538181921002
 21
5.595910451839
 31
0.0
  0
LINE
  5
84
330
17
100
AcDbEntity
  8
0
100
AcDbLine
 10
8.614538181921002
 20
5.595910451839
 30
0.0
 11
8.624779370486
 21
5.592342156795997
 31
0.0
  0
LINE
  5
85
330
17
100
AcDbEntity
  8
0
100
AcDbLine
 10
8.624779370486
 20
5.592342156795997
 30
0.0
 11
8.635009989858002
 21
5.588779339096998
 31
0.0
  0
LINE
  5
86
330
17
100
AcDbEntity
  8
0
100
AcDbLine
 10
8.635009989858002
 20
5.588779339096998
 30
0.0
 11
8.655550161712998
 21
5.581631635169
 31
0.0
  0
LINE
  5
87
330
17
100
AcDbEntity
  8
0
100
AcDbLine
 10
8.655550161712998
 20
5.581631635169
 30
0.0
 11
8.676122090951
 21
5.574480105229
 31
0.0
  0
LINE
  5
88
330
17
100
AcDbEntity
  8
0
100
AcDbLine
 10
8.676122090951
 20
5.574480105229
 30
0.0
 11
8.696755218841002
 21
5.567314555597999
 31
0.0
  0
LINE
  5
89
330
17
100
AcDbEntity
  8
0
100
AcDbLine
 10
8.696755218841002
 20
5.567314555597999
 30
0.0
 11
8.707067124644002
 21
5.5637361130639995
 31
0.0
  0
LINE
  5
8A
330
17
100
AcDbEntity
  8
0
100
AcDbLine
 10
8.707067124644002
 20
5.5637361130639995
 30
0.0
 11
8.717412798964997
 21
5.560147772739999
 31
0.0
  0
LINE
  5
8B
330
17
100
AcDbEntity
  8
0
100
AcDbLine
 10
8.717412798964997
 20
5.560147772739999
 30
0.0
 11
8.722578903738
 21
5.558356617716999
 31
0.0
  0
LINE
  5
8C
330
17
100
AcDbEntity
  8
0
100
AcDbLine
 10
8.722578903738
 20
5.558356617716999
 30
0.0
 11
8.727755249149997
 21
5.5565623685139975
 31
0.0
  0
LINE
  5
8D
330
17
100
AcDbEntity
  8
0
100
AcDbLine
 10
8.727755249149997
 20
5.5565623685139975
 30
0.0
 11
8.732934451759998
 21
5.5547675843189985
 31
0.0
  0
LINE
  5
8E
330
17
100
AcDbEntity
  8
0
100
AcDbLine
 10
8.732934451759998
 20
5.5547675843189985
 30
0.0
 11
8.738064079557002
 21
5.5529904334739975
 31
0.0
  0
LINE
  5
8F
330
17
100
AcDbEntity
  8
0
100
AcDbLine
 10
8.738064079557002
 20
5.5529904334739975
 30
0.0
 11
8.779673705685997
 21
5.538591426460997
 31
0.0
  0
LINE
  5
90
330
17
100
AcDbEntity
  8
0
100
AcDbLine
 10
8.779673705685997
 20
5.538591426460997
 30
0.0
 11
8.821444980494999
 21
5.524165971148999
 31
0.0
  0
LINE
  5
91
330
17
100
AcDbEntity
  8
0
100
AcDbLine
 10
8.821444980494999
 20
5.524165971148999
 30
0.0
 11
8.842355025268997
 21
5.516955876973999
 31
0.0
  0
LINE
  5
92
330
17
100
AcDbEntity
  8
0
100
AcDbLine
 10
8.842355025268997
 20
5.516955876973999
 30
0.0
 11
8.863340337268003
 21
5.509727250744998
 31
0.0
  0
LINE
  5
93
330
17
100
AcDbEntity
  8
0
100
AcDbLine
 10
8.863340337268003
 20
5.509727250744998
 30
0.0
 11
8.884371047896
 21
5.502490432416
 31
0.0
  0
LINE
  5
94
330
17
100
AcDbEntity
  8
0
100
AcDbLine
 10
8.884371047896
 20
5.502490432416
 30
0.0
 11
8.905416891356001
 21
5.495255862182997
 31
0.0
  0
LINE
  5
95
330
17
100
AcDbEntity
  8
0
100
AcDbLine
 10
8.905416891356001
 20
5.495255862182997
 30
0.0
 11
8.947763366786997
 21
5.480721714032999
 31
0.0
  0
LINE
  5
96
330
17
100
AcDbEntity
  8
0
100
AcDbLine
 10
8.947763366786997
 20
5.480721714032999
 30
0.0
 11
8.968944996992999
 21
5.473463009423
 31
0.0
  0
LINE
  5
97
330
17
100
AcDbEntity
  8
0
100
AcDbLine
 10
8.968944996992999
 20
5.473463009423
 30
0.0
 11
8.990110173828999
 21
5.466217463505
 31
0.0
  0
LINE
  5
98
330
17
100
AcDbEntity
  8
0
100
AcDbLine
 10
8.990110173828999
 20
5.466217463505
 30
0.0
 11
9.075756128950001
 21
5.436974506757998
 31
0.0
  0
LINE
  5
99
330
17
100
AcDbEntity
  8
0
100
AcDbLine
 10
9.075756128950001
 20
5.436974506757998
 30
0.0
 11
9.097145683685003
 21
5.4296902096299995
 31
0.0
  0
LINE
  5
9A
330
17
100
AcDbEntity
  8
0
100
AcDbLine
 10
9.097145683685003
 20
5.4296902096299995
 30
0.0
 11
9.118669473003
 21
5.422367870281999
 31
0.0
  0
LINE
  5
9B
330
17
100
AcDbEntity
  8
0
100
AcDbLine
 10
9.118669473003
 20
5.422367870281999
 30
0.0
 11
9.140260459112998
 21
5.415030364553999
 31
0.0
  0
LINE
  5
9C
330
17
100
AcDbEntity
  8
0
100
AcDbLine
 10
9.140260459112998
 20
5.415030364553999
 30
0.0
 11
9.145636818072997
 21
5.41320445269
 31
0.0
  0
LINE
  5
9D
330
17
100
AcDbEntity
  8
0
100
AcDbLine
 10
9.145636818072997
 20
5.41320445269
 30
0.0
 11
9.151030902878002
 21
5.4113730021369975
 31
0.0
  0
LINE
  5
9E
330
17
100
AcDbEntity
  8
0
100
AcDbLine
 10
9.151030902878002
 20
5.4113730021369975
 30
0.0
 11
9.161804243945003
 21
5.407716582760997
 31
0.0
  0
LINE
  5
9F
330
17
100
AcDbEntity
  8
0
100
AcDbLine
 10
9.161804243945003
 20
5.407716582760997
 30
0.0
 11
9.205204097415002
 21
5.393006327903997
 31
0.0
  0
LINE
  5
A0
330
17
100
AcDbEntity
  8
0
100
AcDbLine
 10
9.205204097415002
 20
5.393006327903997
 30
0.0
 11
9.248548337389
 21
5.378345947371997
 31
0.0
  0
LINE
  5
A1
330
17
100
AcDbEntity
  8
0
100
AcDbLine
 10
9.248548337389
 20
5.378345947371997
 30
0.0
 11
9.424552472896
 21
5.319132613472
 31
0.0
  0
LINE
  5
A2
330
17
100
AcDbEntity
  8
0
100
AcDbLine
 10
9.424552472896
 20
5.319132613472
 30
0.0
 11
9.603222627375
 21
5.259535662872999
 31
0.0
  0
LINE
  5
A3
330
17
100
AcDbEntity
  8
0
100
AcDbLine
 10
9.603222627375
 20
5.259535662872999
 30
0.0
 11
9.693443896602997
 21
5.2296358880559985
 31
0.0
  0
LINE
  5
A4
330
17
100
AcDbEntity
  8
0
100
AcDbLine
 10
9.693443896602997
 20
5.2296358880559985
 30
0.0
 11
9.738803103197998
 21
5.214652537602998
 31
0.0
  0
LINE
  5
A5
330
17
100
AcDbEntity
  8
0
100
AcDbLine
 10
9.738803103197998
 20
5.214652537602998
 30
0.0
 11
9.761528684329999
 21
5.207157942122997
 31
0.0
  0
LINE
  5
A6
330
17
100
AcDbEntity
  8
0
100
AcDbLine
 10
9.761528684329999
 20
5.207157942122997
 30
0.0
 11
9.784231894270999
 21
5.199678921877997
 31
0.0
  0
LINE
  5
A7
330
17
100
AcDbEntity
  8
0
100
AcDbLine
 10
9.784231894270999
 20
5.199678921877997
 30
0.0
 11
9.875908540393997
 21
5.169561382685998
 31
0.0
  0
LINE
  5
A8
330
17
100
AcDbEntity
  8
0
100
AcDbLine
 10
9.875908540393997
 20
5.169561382685998
 30
0.0
 11
9.968131652773
 21
5.139397560715999
 31
0.0
  0
LINE
  5
A9
330
17
100
AcDbEntity
  8
0
100
AcDbLine
 10
9.968131652773
 20
5.139397560715999
 30
0.0
 11
10.06109292511
 21
5.109126751730997
 31
0.0
  0
LINE
  5
AA
330
17
100
AcDbEntity
  8
0
100
AcDbLine
 10
10.06109292511
 20
5.109126751730997
 30
0.0
 11
10.072635825525001
 21
5.105377402382999
 31
0.0
  0
LINE
  5
AB
330
17
100
AcDbEntity
  8
0
100
AcDbLine
 10
10.072635825525001
 20
5.105377402382999
 30
0.0
 11
10.084281018773002
 21
5.101596925714997
 31
0.0
  0
LINE
  5
AC
330
17
100
AcDbEntity
  8
0
100
AcDbLine
 10
10.084281018773002
 20
5.101596925714997
 30
0.0
 11
10.107646664205998
 21
5.094017888690999
 31
0.0
  0
LINE
  5
AD
330
17
100
AcDbEntity
  8
0
100
AcDbLine
 10
10.107646664205998
 20
5.094017888690999
 30
0.0
 11
10.131035048616997
 21
5.086439945703997
 31
0.0
  0
LINE
  5
AE
330
17
100
AcDbEntity
  8
0
100
AcDbLine
 10
10.131035048616997
 20
5.086439945703997
 30
0.0
 11
10.154367475026998
 21
5.078888579597997
 31
0.0
  0
LINE
  5
AF
330
17
100
AcDbEntity
  8
0
100
AcDbLine
 10
10.154367475026998
 20
5.078888579597997
 30
0.0
 11
10.248604254905
 21
5.048475171075999
 31
0.0
  0
LINE
  5
B0
330
17
100
AcDbEntity
  8
0
100
AcDbLine
 10
10.248604254905
 20
5.048475171075999
 30
0.0
 11
10.295810194767999
 21
5.033291333321998
 31
0.0
  0
LINE
  5
B1
330
17
100
AcDbEntity
  8
0
100
AcDbLine
 10
10.295810194767999
 20
5.033291333321998
 30
0.0
 11
10.343163568006997
 21
5.018094366572999
 31
0.0
  0
LINE
  5
B2
330
17
100
AcDbEntity
  8
0
100
AcDbLine
 10
10.343163568006997
 20
5.018094366572999
 30
0.0
 11
10.438496220881998
 21
4.987603331902999
 31
0.0
  0
LINE
  5
B3
330
17
100
AcDbEntity
  8
0
100
AcDbLine
 10
10.438496220881998
 20
4.987603331902999
 30
0.0
 11
10.534345847370997
 21
4.957085734951999
 31
0.0
  0
LINE
  5
B4
330
17
100
AcDbEntity
  8
0
100
AcDbLine
 10
10.534345847370997
 20
4.957085734951999
 30
0.0
 11
10.630763723342003
 21
4.926526806026999
 31
0.0
  0
LINE
  5
B5
330
17
100
AcDbEntity
  8
0
100
AcDbLine
 10
10.630763723342003
 20
4.926526806026999
 30
0.0
 11
10.727739097097999
 21
4.895931527957998
 31
0.0
  0
LINE
  5
B6
330
17
100
AcDbEntity
  8
0
100
AcDbLine
 10
10.727739097097999
 20
4.895931527957998
 30
0.0
 11
10.825260694772997
 21
4.865304995705998
 31
0.0
  0
LINE
  5
B7
330
17
100
AcDbEntity
  8
0
100
AcDbLine
 10
10.825260694772997
 20
4.865304995705998
 30
0.0
 11
10.923317027467998
 21
4.834652305415997
 31
0.0
  0
LINE
  5
B8
330
17
100
AcDbEntity
  8
0
100
AcDbLine
 10
10.923317027467998
 20
4.834652305415997
 30
0.0
 11
11.021896594191002
 21
4.803978463337998
 31
0.0
  0
LINE
  5
B9
330
17
100
AcDbEntity
  8
0
100
AcDbLine
 10
11.021896594191002
 20
4.803978463337998
 30
0.0
 11
11.120970574252002
 21
4.773293829940997
 31
0.0
  0
LINE
  5
BA
330
17
100
AcDbEntity
  8
0
100
AcDbLine
 10
11.120970574252002
 20
4.773293829940997
 30
0.0
 11
11.233508022486998
 21
4.738612187382998
 31
0.0
  0
LINE
  5
BB
330
17
100
AcDbEntity
  8
0
100
AcDbLine
 10
11.233508022486998
 20
4.738612187382998
 30
0.0
 11
11.346647537164
 21
4.703928933213
 31
0.0
  0
LINE
  5
BC
330
17
100
AcDbEntity
  8
0
100
AcDbLine
 10
11.346647537164
 20
4.703928933213
 30
0.0
 11
11.460386205731997
 21
4.669246710314997
 31
0.0
  0
LINE
  5
BD
330
17
100
AcDbEntity
  8
0
100
AcDbLine
 10
11.460386205731997
 20
4.669246710314997
 30
0.0
 11
11.574705710792
 21
4.634572707093998
 31
0.0
  0
LINE
  5
BE
330
17
100
AcDbEntity
  8
0
100
AcDbLine
 10
11.574705710792
 20
4.634572707093998
 30
0.0
 11
11.689586647643
 21
4.599914364939998
 31
0.0
  0
LINE
  5
BF
330
17
100
AcDbEntity
  8
0
100
AcDbLine
 10
11.689586647643
 20
4.599914364939998
 30
0.0
 11
11.805009590586
 21
4.565278974586999
 31
0.0
  0
LINE
  5
C0
330
17
100
AcDbEntity
  8
0
100
AcDbLine
 10
11.805009590586
 20
4.565278974586999
 30
0.0
 11
11.920954346372003
 21
4.530673956878999
 31
0.0
  0
LINE
  5
C1
330
17
100
AcDbEntity
  8
0
100
AcDbLine
 10
11.920954346372003
 20
4.530673956878999
 30
0.0
 11
12.037258020425003
 21
4.496148966306997
 31
0.0
  0
LINE
  5
C2
330
17
100
AcDbEntity
  8
0
100
AcDbLine
 10
12.037258020425003
 20
4.496148966306997
 30
0.0
 11
12.271700018459999
 21
4.427119849917997
 31
0.0
  0
LINE
  5
C3
330
17
100
AcDbEntity
  8
0
100
AcDbLine
 10
12.271700018459999
 20
4.427119849917997
 30
0.0
 11
12.507752938884
 21
4.358370393270999
 31
0.0
  0
LINE
  5
C4
330
17
100
AcDbEntity
  8
0
100
AcDbLine
 10
12.507752938884
 20
4.358370393270999
 30
0.0
 11
12.745380156111
 21
4.289917136193999
 31
0.0
  0
LINE
  5
C5
330
17
100
AcDbEntity
  8
0
100
AcDbLine
 10
12.745380156111
 20
4.289917136193999
 30
0.0
 11
12.984538294594
 21
4.221777670757
 31
0.0
  0
LINE
  5
C6
330
17
100
AcDbEntity
  8
0
100
AcDbLine
 10
12.984538294594
 20
4.221777670757
 30
0.0
 11
13.104376298593
 21
4.187915544193999
 31
0.0
  0
LINE
  5
C7
330
17
100
AcDbEntity
  8
0
100
AcDbLine
 10
13.104376298593
 20
4.187915544193999
 30
0.0
 11
13.224629618120002
 21
4.154123812435998
 31
0.0
  0
LINE
  5
C8
330
17
100
AcDbEntity
  8
0
100
AcDbLine
 10
13.224629618120002
 20
4.154123812435998
 30
0.0
 11
13.345134238388003
 21
4.120448916371
 31
0.0
  0
LINE
  5
C9
330
17
100
AcDbEntity
  8
0
100
AcDbLine
 10
13.345134238388003
 20
4.120448916371
 30
0.0
 11
13.465865051393
 21
4.086897885998997
 31
0.0
  0
LINE
  5
CA
330
17
100
AcDbEntity
  8
0
100
AcDbLine
 10
13.465865051393
 20
4.086897885998997
 30
0.0
 11
13.586797370750002
 21
4.053477416861
 31
0.0
  0
LINE
  5
CB
330
17
100
AcDbEntity
  8
0
100
AcDbLine
 10
13.586797370750002
 20
4.053477416861
 30
0.0
 11
13.708009301207003
 21
4.020165718377999
 31
0.0
  0
LINE
  5
CC
330
17
100
AcDbEntity
  8
0
100
AcDbLine
 10
13.708009301207003
 20
4.020165718377999
 30
0.0
 11
13.738225596019003
 21
4.0118904969389995
 31
0.0
  0
LINE
  5
CD
330
17
100
AcDbEntity
  8
0
100
AcDbLine
 10
13.738225596019003
 20
4.0118904969389995
 30
0.0
 11
13.753363056902007
 21
4.0077491754349985
 31
0.0
  0
LINE
  5
CE
330
17
100
AcDbEntity
  8
0
100
AcDbLine
 10
13.753363056902007
 20
4.0077491754349985
 30
0.0
 11
13.768467956265003
 21
4.003619649994999
 31
0.0
  0
LINE
  5
CF
330
17
100
AcDbEntity
  8
0
100
AcDbLine
 10
13.768467956265003
 20
4.003619649994999
 30
0.0
 11
13.829165184943992
 21
3.987054670408
 31
0.0
  0
LINE
  5
D0
330
17
100
AcDbEntity
  8
0
100
AcDbLine
 10
13.829165184943992
 20
3.987054670408
 30
0.0
 11
13.889876081412996
 21
3.9705321870729975
 31
0.0
  0
LINE
  5
D1
330
17
100
AcDbEntity
  8
0
100
AcDbLine
 10
13.889876081412996
 20
3.9705321870729975
 30
0.0
 11
13.920190947997998
 21
3.962299231034997
 31
0.0
  0
LINE
  5
D2
330
17
100
AcDbEntity
  8
0
100
AcDbLine
 10
13.920190947997998
 20
3.962299231034997
 30
0.0
 11
13.950306948975001
 21
3.9541317382439978
 31
0.0
  0
LINE
  5
D3
330
17
100
AcDbEntity
  8
0
100
AcDbLine
 10
13.950306948975001
 20
3.9541317382439978
 30
0.0
 11
14.193551312714003
 21
3.888578830716998
 31
0.0
  0
LINE
  5
D4
330
17
100
AcDbEntity
  8
0
100
AcDbLine
 10
14.193551312714003
 20
3.888578830716998
 30
0.0
 11
14.436718675909997
 21
3.8237763904339985
 31
0.0
  0
LINE
  5
D5
330
17
100
AcDbEntity
  8
0
100
AcDbLine
 10
14.436718675909997
 20
3.8237763904339985
 30
0.0
 11
14.67982159053999
 21
3.759713030884999
 31
0.0
  0
LINE
  5
D6
330
17
100
AcDbEntity
  8
0
100
AcDbLine
 10
14.67982159053999
 20
3.759713030884999
 30
0.0
 11
14.922630832363001
 21
3.696439878908997
 31
0.0
  0
LINE
  5
D7
330
17
100
AcDbEntity
  8
0
100
AcDbLine
 10
14.922630832363001
 20
3.696439878908997
 30
0.0
 11
15.164910076534003
 21
3.6340077421849983
 31
0.0
  0
LINE
  5
D8
330
17
100
AcDbEntity
  8
0
100
AcDbLine
 10
15.164910076534003
 20
3.6340077421849983
 30
0.0
 11
15.406418571953001
 21
3.572466138136999
 31
0.0
  0
LINE
  5
D9
330
17
100
AcDbEntity
  8
0
100
AcDbLine
 10
15.406418571953001
 20
3.572466138136999
 30
0.0
 11
15.646911080321
 21
3.5118632816829987
 31
0.0
  0
LINE
  5
DA
330
17
100
AcDbEntity
  8
0
100
AcDbLine
 10
15.646911080321
 20
3.5118632816829987
 30
0.0
 11
15.886261812801
 21
3.452215479861998
 31
0.0
  0
LINE
  5
DB
330
17
100
AcDbEntity
  8
0
100
AcDbLine
 10
15.886261812801
 20
3.452215479861998
 30
0.0
 11
16.005197736068002
 21
3.422821125949998
 31
0.0
  0
LINE
  5
DC
330
17
100
AcDbEntity
  8
0
100
AcDbLine
 10
16.005197736068002
 20
3.422821125949998
 30
0.0
 11
16.123847144474002
 21
3.393659341842998
 31
0.0
  0
LINE
  5
DD
330
17
100
AcDbEntity
  8
0
100
AcDbLine
 10
16.123847144474002
 20
3.393659341842998
 30
0.0
 11
16.24205244058
 21
3.3647664159509993
 31
0.0
  0
LINE
  5
DE
330
17
100
AcDbEntity
  8
0
100
AcDbLine
 10
16.24205244058
 20
3.3647664159509993
 30
0.0
 11
16.359778540285003
 21
3.336148727932997
 31
0.0
  0
LINE
  5
DF
330
17
100
AcDbEntity
  8
0
100
AcDbLine
 10
16.359778540285003
 20
3.336148727932997
 30
0.0
 11
16.477054200374003
 21
3.307796675271998
 31
0.0
  0
LINE
  5
E0
330
17
100
AcDbEntity
  8
0
100
AcDbLine
 10
16.477054200374003
 20
3.307796675271998
 30
0.0
 11
16.535399889316995
 21
3.2937490150079967
 31
0.0
  0
LINE
  5
E1
330
17
100
AcDbEntity
  8
0
100
AcDbLine
 10
16.535399889316995
 20
3.2937490150079967
 30
0.0
 11
16.593605618153997
 21
3.279773302890998
 31
0.0
  0
LINE
  5
E2
330
17
100
AcDbEntity
  8
0
100
AcDbLine
 10
16.593605618153997
 20
3.279773302890998
 30
0.0
 11
16.709758415756998
 21
3.2519980354649967
 31
0.0
  0
LINE
  5
E3
330
17
100
AcDbEntity
  8
0
100
AcDbLine
 10
16.709758415756998
 20
3.2519980354649967
 30
0.0
 11
16.825121345095997
 21
3.224561348896998
 31
0.0
  0
LINE
  5
E4
330
17
100
AcDbEntity
  8
0
100
AcDbLine
 10
16.825121345095997
 20
3.224561348896998
 30
0.0
 11
17.054225268443002
 21
3.1705147655349997
 31
0.0
  0
LINE
  5
E5
330
17
100
AcDbEntity
  8
0
100
AcDbLine
 10
17.054225268443002
 20
3.1705147655349997
 30
0.0
 11
17.280466383186
 21
3.117714642423998
 31
0.0
  0
LINE
  5
E6
330
17
100
AcDbEntity
  8
0
100
AcDbLine
 10
17.280466383186
 20
3.117714642423998
 30
0.0
 11
17.392259464930998
 21
3.0918324830919985
 31
0.0
  0
LINE
  5
E7
330
17
100
AcDbEntity
  8
0
100
AcDbLine
 10
17.392259464930998
 20
3.0918324830919985
 30
0.0
 11
17.503349056839998
 21
3.0662493366109977
 31
0.0
  0
LINE
  5
E8
330
17
100
AcDbEntity
  8
0
100
AcDbLine
 10
17.503349056839998
 20
3.0662493366109977
 30
0.0
 11
17.613585306579996
 21
3.0409964912199996
 31
0.0
  0
LINE
  5
E9
330
17
100
AcDbEntity
  8
0
100
AcDbLine
 10
17.613585306579996
 20
3.0409964912199996
 30
0.0
 11
17.722821203097002
 21
3.016104039953998
 31
0.0
  0
LINE
  5
EA
330
17
100
AcDbEntity
  8
0
100
AcDbLine
 10
17.722821203097002
 20
3.016104039953998
 30
0.0
 11
17.938817152162
 21
2.967267338149
 31
0.0
  0
LINE
  5
EB
330
17
100
AcDbEntity
  8
0
100
AcDbLine
 10
17.938817152162
 20
2.967267338149
 30
0.0
 11
18.150809897916
 21
2.9198288647759973
 31
0.0
  0
LINE
  5
EC
330
17
100
AcDbEntity
  8
0
100
AcDbLine
 10
18.150809897916
 20
2.9198288647759973
 30
0.0
 11
18.255077527200005
 21
2.896674840394997
 31
0.0
  0
LINE
  5
ED
330
17
100
AcDbEntity
  8
0
100
AcDbLine
 10
18.255077527200005
 20
2.896674840394997
 30
0.0
 11
18.358326537306002
 21
2.8738631860479984
 31
0.0
  0
LINE
  5
EE
330
17
100
AcDbEntity
  8
0
100
AcDbLine
 10
18.358326537306002
 20
2.8738631860479984
 30
0.0
 11
18.46106522925101
 21
2.8512752920189968
 31
0.0
  0
LINE
  5
EF
330
17
100
AcDbEntity
  8
0
100
AcDbLine
 10
18.46106522925101
 20
2.8512752920189968
 30
0.0
 11
18.56402794737399
 21
2.8287441828309987
 31
0.0
  0
LINE
  5
F0
330
17
100
AcDbEntity
  8
0
100
AcDbLine
 10
18.56402794737399
 20
2.8287441828309987
 30
0.0
 11
18.768942630308
 21
2.7842190087599974
 31
0.0
  0
LINE
  5
F1
330
17
100
AcDbEntity
  8
0
100
AcDbLine
 10
18.768942630308
 20
2.7842190087599974
 30
0.0
 11
18.974891811514002
 21
2.739888687601997
 31
0.0
  0
LINE
  5
F2
330
17
100
AcDbEntity
  8
0
100
AcDbLine
 10
18.974891811514002
 20
2.739888687601997
 30
0.0
 11
19.181961788048998
 21
2.695738648999999
 31
0.0
  0
LINE
  5
F3
330
17
100
AcDbEntity
  8
0
100
AcDbLine
 10
19.181961788048998
 20
2.695738648999999
 30
0.0
 11
19.390149623113
 21
2.6517734613669965
 31
0.0
  0
LINE
  5
F4
330
17
100
AcDbEntity
  8
0
100
AcDbLine
 10
19.390149623113
 20
2.6517734613669965
 30
0.0
 11
19.599452765161
 21
2.6079977339069984
 31
0.0
  0
LINE
  5
F5
330
17
100
AcDbEntity
  8
0
100
AcDbLine
 10
19.599452765161
 20
2.6079977339069984
 30
0.0
 11
19.809868375402008
 21
2.5644160595659997
 31
0.0
  0
LINE
  5
F6
330
17
100
AcDbEntity
  8
0
100
AcDbLine
 10
19.809868375402008
 20
2.5644160595659997
 30
0.0
 11
20.02139368911401
 21
2.5210330288449967
 31
0.0
  0
LINE
  5
F7
330
17
100
AcDbEntity
  8
0
100
AcDbLine
 10
20.02139368911401
 20
2.5210330288449967
 30
0.0
 11
20.234025857779
 21
2.4778532200809984
 31
0.0
  0
LINE
  5
F8
330
17
100
AcDbEntity
  8
0
100
AcDbLine
 10
20.234025857779
 20
2.4778532200809984
 30
0.0
 11
20.447762001237
 21
2.434881212341999
 31
0.0
  0
LINE
  5
F9
330
17
100
AcDbEntity
  8
0
100
AcDbLine
 10
20.447762001237
 20
2.434881212341999
 30
0.0
 11
20.662599309239997
 21
2.392121546544999
 31
0.0
  0
LINE
  5
FA
330
17
100
AcDbEntity
  8
0
100
AcDbLine
 10
20.662599309239997
 20
2.392121546544999
 30
0.0
 11
20.878535473019998
 21
2.3495785522669976
 31
0.0
  0
LINE
  5
FB
330
17
100
AcDbEntity
  8
0
100
AcDbLine
 10
20.878535473019998
 20
2.3495785522669976
 30
0.0
 11
21.095567750521997
 21
2.307256426859997
 31
0.0
  0
LINE
  5
FC
330
17
100
AcDbEntity
  8
0
100
AcDbLine
 10
21.095567750521997
 20
2.307256426859997
 30
0.0
 11
21.313689735183008
 21
2.265161344632997
 31
0.0
  0
LINE
  5
FD
330
17
100
AcDbEntity
  8
0
100
AcDbLine
 10
21.313689735183008
 20
2.265161344632997
 30
0.0
 11
21.532901650975997
 21
2.223296505409998
 31
0.0
  0
LINE
  5
FE
330
17
100
AcDbEntity
  8
0
100
AcDbLine
 10
21.532901650975997
 20
2.223296505409998
 30
0.0
 11
21.753199224364
 21
2.1816668239049974
 31
0.0
  0
LINE
  5
FF
330
17
100
AcDbEntity
  8
0
100
AcDbLine
 10
21.753199224364
 20
2.1816668239049974
 30
0.0
 11
21.974579720589002
 21
2.140276654615999
 31
0.0
  0
LINE
  5
100
330
17
100
AcDbEntity
  8
0
100
AcDbLine
 10
21.974579720589002
 20
2.140276654615999
 30
0.0
 11
22.197039782509
 21
2.099130561509998
 31
0.0
  0
LINE
  5
101
330
17
100
AcDbEntity
  8
0
100
AcDbLine
 10
22.197039782509
 20
2.099130561509998
 30
0.0
 11
22.420576269637
 21
2.0582330073019968
 31
0.0
  0
LINE
  5
102
330
17
100
AcDbEntity
  8
0
100
AcDbLine
 10
22.420576269637
 20
2.0582330073019968
 30
0.0
 11
22.645185908283
 21
2.0175884651799976
 31
0.0
  0
LINE
  5
103
330
17
100
AcDbEntity
  8
0
100
AcDbLine
 10
22.645185908283
 20
2.0175884651799976
 30
0.0
 11
22.870865389740008
 21
1.9772014281229993
 31
0.0
  0
LINE
  5
104
330
17
100
AcDbEntity
  8
0
100
AcDbLine
 10
22.870865389740008
 20
1.9772014281229993
 30
0.0
 11
23.097611458061
 21
1.9370762701499977
 31
0.0
  0
LINE
  5
105
330
17
100
AcDbEntity
  8
0
100
AcDbLine
 10
23.097611458061
 20
1.9370762701499977
 30
0.0
 11
23.325420809173
 21
1.8972175663389983
 31
0.0
  0
LINE
  5
106
330
17
100
AcDbEntity
  8
0
100
AcDbLine
 10
23.325420809173
 20
1.8972175663389983
 30
0.0
 11
23.554291088082
 21
1.8576289553969971
 31
0.0
  0
LINE
  5
107
330
17
100
AcDbEntity
  8
0
100
AcDbLine
 10
23.554291088082
 20
1.8576289553969971
 30
0.0
 11
23.784216360584
 21
1.8183161204239973
 31
0.0
  0
LINE
  5
108
330
17
100
AcDbEntity
  8
0
100
AcDbLine
 10
23.784216360584
 20
1.8183161204239973
 30
0.0
 11
24.015194520387997
 21
1.779282981220998
 31
0.0
  0
LINE
  5
109
330
17
100
AcDbEntity
  8
0
100
AcDbLine
 10
24.015194520387997
 20
1.779282981220998
 30
0.0
 11
24.247222099011
 21
1.7405338255029967
 31
0.0
  0
LINE
  5
10A
330
17
100
AcDbEntity
  8
0
100
AcDbLine
 10
24.247222099011
 20
1.7405338255029967
 30
0.0
 11
24.480295467206002
 21
1.7020730342289987
 31
0.0
  0
LINE
  5
10B
330
17
100
AcDbEntity
  8
0
100
AcDbLine
 10
24.480295467206002
 20
1.7020730342289987
 30
0.0
 11
24.714411032263005
 21
1.6639049734049998
 31
0.0
  0
LINE
  5
10C
330
17
100
AcDbEntity
  8
0
100
AcDbLine
 10
24.714411032263005
 20
1.6639049734049998
 30
0.0
 11
24.949565175666
 21
1.626033969449999
 31
0.0
  0
LINE
  5
10D
330
17
100
AcDbEntity
  8
0
100
AcDbLine
 10
24.949565175666
 20
1.626033969449999
 30
0.0
 11
25.185754227197
 21
1.588464381552999
 31
0.0
  0
LINE
  5
10E
330
17
100
AcDbEntity
  8
0
100
AcDbLine
 10
25.185754227197
 20
1.588464381552999
 30
0.0
 11
25.422974548091997
 21
1.5512004451049997
 31
0.0
  0
LINE
  5
10F
330
17
100
AcDbEntity
  8
0
100
AcDbLine
 10
25.422974548091997
 20
1.5512004451049997
 30
0.0
 11
25.661274364323003
 21
1.514238488982997
 31
0.0
  0
LINE
  5
110
330
17
100
AcDbEntity
  8
0
100
AcDbLine
 10
25.661274364323003
 20
1.514238488982997
 30
0.0
 11
25.835292084868005
 21
1.4875442055399972
 31
0.0
  0
LINE
  5
111
330
17
100
AcDbEntity
  8
0
100
AcDbLine
 10
25.835292084868005
 20
1.4875442055399972
 30
0.0
 11
26.009905277968
 21
1.461009830416998
 31
0.0
  0
LINE
  5
112
330
17
100
AcDbEntity
  8
0
100
AcDbLine
 10
26.009905277968
 20
1.461009830416998
 30
0.0
 11
26.185060771699003
 21
1.434644991711
 31
0.0
  0
LINE
  5
113
330
17
100
AcDbEntity
  8
0
100
AcDbLine
 10
26.185060771699003
 20
1.434644991711
 30
0.0
 11
26.360757233949
 21
1.4084512512939966
 31
0.0
  0
LINE
  5
114
330
17
100
AcDbEntity
  8
0
100
AcDbLine
 10
26.360757233949
 20
1.4084512512939966
 30
0.0
 11
26.536993284837
 21
1.3824301751759975
 31
0.0
  0
LINE
  5
115
330
17
100
AcDbEntity
  8
0
100
AcDbLine
 10
26.536993284837
 20
1.3824301751759975
 30
0.0
 11
26.713767104201
 21
1.3565832957009967
 31
0.0
  0
LINE
  5
116
330
17
100
AcDbEntity
  8
0
100
AcDbLine
 10
26.713767104201
 20
1.3565832957009967
 30
0.0
 11
26.891076972243003
 21
1.3309126142409973
 31
0.0
  0
LINE
  5
117
330
17
100
AcDbEntity
  8
0
100
AcDbLine
 10
26.891076972243003
 20
1.3309126142409973
 30
0.0
 11
27.068921836704003
 21
1.3054194024559997
 31
0.0
  0
LINE
  5
118
330
17
100
AcDbEntity
  8
0
100
AcDbLine
 10
27.068921836704003
 20
1.3054194024559997
 30
0.0
 11
27.247300086636
 21
1.2801053031219993
 31
0.0
  0
LINE
  5
119
330
17
100
AcDbEntity
  8
0
100
AcDbLine
 10
27.247300086636
 20
1.2801053031219993
 30
0.0
 11
27.426209792618994
 21
1.254971979773
 31
0.0
  0
LINE
  5
11A
330
17
100
AcDbEntity
  8
0
100
AcDbLine
 10
27.426209792618994
 20
1.254971979773
 30
0.0
 11
27.605650598076995
 21
1.230020624150999
 31
0.0
  0
LINE
  5
11B
330
17
100
AcDbEntity
  8
0
100
AcDbLine
 10
27.605650598076995
 20
1.230020624150999
 30
0.0
 11
27.785617354141
 21
1.2052536196779968
 31
0.0
  0
LINE
  5
11C
330
17
100
AcDbEntity
  8
0
100
AcDbLine
 10
27.785617354141
 20
1.2052536196779968
 30
0.0
 11
27.9661165995
 21
1.180671356205
 31
0.0
  0
LINE
  5
11D
330
17
100
AcDbEntity
  8
0
100
AcDbLine
 10
27.9661165995
 20
1.180671356205
 30
0.0
 11
28.147129577052997
 21
1.1562776518199982
 31
0.0
  0
LINE
  5
11E
330
17
100
AcDbEntity
  8
0
100
AcDbLine
 10
28.147129577052997
 20
1.1562776518199982
 30
0.0
 11
28.32868507775
 21
1.1320700051939987
 31
0.0
  0
LINE
  5
11F
330
17
100
AcDbEntity
  8
0
100
AcDbLine
 10
28.32868507775
 20
1.1320700051939987
 30
0.0
 11
28.510910917965997
 21
1.108032831326998
 31
0.0
  0
LINE
  5
120
330
17
100
AcDbEntity
  8
0
100
AcDbLine
 10
28.510910917965997
 20
1.108032831326998
 30
0.0
 11
28.669779522876002
 21
1.0873040609089983
 31
0.0
  0
LINE
  5
121
330
17
100
AcDbEntity
  8
0
100
AcDbLine
 10
28.669779522876002
 20
1.0873040609089983
 30
0.0
 11
28.81855781116
 21
1.0681126124429987
 31
0.0
  0
LINE
  5
122
330
17
100
AcDbEntity
  8
0
100
AcDbLine
 10
28.81855781116
 20
1.0681126124429987
 30
0.0
 11
28.968429378446
 21
1.0489667042589979
 31
0.0
  0
LINE
  5
123
330
17
100
AcDbEntity
  8
0
100
AcDbLine
 10
28.968429378446
 20
1.0489667042589979
 30
0.0
 11
29.11782590257
 21
1.0300747754769972
 31
0.0
  0
LINE
  5
124
330
17
100
AcDbEntity
  8
0
100
AcDbLine
 10
29.11782590257
 20
1.0300747754769972
 30
0.0
 11
29.267600269713004
 21
1.0113240483469994
 31
0.0
  0
LINE
  5
125
330
17
100
AcDbEntity
  8
0
100
AcDbLine
 10
29.267600269713004
 20
1.0113240483469994
 30
0.0
 11
29.417352243401997
 21
0.9927679362539976
 31
0.0
  0
LINE
  5
126
330
17
100
AcDbEntity
  8
0
100
AcDbLine
 10
29.417352243401997
 20
0.9927679362539976
 30
0.0
 11
29.567250921786997
 21
0.9743842838049979
 31
0.0
  0
LINE
  5
127
330
17
100
AcDbEntity
  8
0
100
AcDbLine
 10
29.567250921786997
 20
0.9743842838049979
 30
0.0
 11
29.717210288256002
 21
0.9561847093219988
 31
0.0
  0
LINE
  5
128
330
17
100
AcDbEntity
  8
0
100
AcDbLine
 10
29.717210288256002
 20
0.9561847093219988
 30
0.0
 11
29.867258530822998
 21
0.9381656155599991
 31
0.0
  0
LINE
  5
129
330
17
100
AcDbEntity
  8
0
100
AcDbLine
 10
29.867258530822998
 20
0.9381656155599991
 30
0.0
 11
30.017373155541993
 21
0.920330112722997
 31
0.0
  0
LINE
  5
12A
330
17
100
AcDbEntity
  8
0
100
AcDbLine
 10
30.017373155541993
 20
0.920330112722997
 30
0.0
 11
30.167553390536003
 21
0.9026781985869974
 31
0.0
  0
LINE
  5
12B
330
17
100
AcDbEntity
  8
0
100
AcDbLine
 10
30.167553390536003
 20
0.9026781985869974
 30
0.0
 11
30.317790099177
 21
0.8852112539209998
 31
0.0
  0
LINE
  5
12C
330
17
100
AcDbEntity
  8
0
100
AcDbLine
 10
30.317790099177
 20
0.8852112539209998
 30
0.0
 11
30.468077821047
 21
0.867929873013999
 31
0.0
  0
LINE
  5
12D
330
17
100
AcDbEntity
  8
0
100
AcDbLine
 10
30.468077821047
 20
0.867929873013999
 30
0.0
 11
30.61840895686699
 21
0.8508349051589974
 31
0.0
  0
LINE
  5
12E
330
17
100
AcDbEntity
  8
0
100
AcDbLine
 10
30.61840895686699
 20
0.8508349051589974
 30
0.0
 11
30.768777020824
 21
0.8339270168729982
 31
0.0
  0
LINE
  5
12F
330
17
100
AcDbEntity
  8
0
100
AcDbLine
 10
30.768777020824
 20
0.8339270168729982
 30
0.0
 11
30.919175186215003
 21
0.8172068638709966
 31
0.0
  0
LINE
  5
130
330
17
100
AcDbEntity
  8
0
100
AcDbLine
 10
30.919175186215003
 20
0.8172068638709966
 30
0.0
 11
31.069596845539
 21
0.800675015793999
 31
0.0
  0
LINE
  5
131
330
17
100
AcDbEntity
  8
0
100
AcDbLine
 10
31.069596845539
 20
0.800675015793999
 30
0.0
 11
31.22003534376501
 21
0.784331992071003
 31
0.0
  0
LINE
  5
132
330
17
100
AcDbEntity
  8
0
100
AcDbLine
 10
31.22003534376501
 20
0.784331992071003
 30
0.0
 11
31.370484095539997
 21
0.7681782474669987
 31
0.0
  0
LINE
  5
133
330
17
100
AcDbEntity
  8
0
100
AcDbLine
 10
31.370484095539997
 20
0.7681782474669987
 30
0.0
 11
31.520936548546
 21
0.7522141760659977
 31
0.0
  0
LINE
  5
134
330
17
100
AcDbEntity
  8
0
100
AcDbLine
 10
31.520936548546
 20
0.7522141760659977
 30
0.0
 11
31.671386210793006
 21
0.7364400935639992
 31
0.0
  0
LINE
  5
135
330
17
100
AcDbEntity
  8
0
100
AcDbLine
 10
31.671386210793006
 20
0.7364400935639992
 30
0.0
 11
31.82182629654
 21
0.7208562582430034
 31
0.0
  0
LINE
  5
136
330
17
100
AcDbEntity
  8
0
100
AcDbLine
 10
31.82182629654
 20
0.7208562582430034
 30
0.0
 11
31.97225051499699
 21
0.7054630244989966
 31
0.0
  0
LINE
  5
137
330
17
100
AcDbEntity
  8
0
100
AcDbLine
 10
31.97225051499699
 20
0.7054630244989966
 30
0.0
 11
32.122652456539
 21
0.6902604400699985
 31
0.0
  0
LINE
  5
138
330
17
100
AcDbEntity
  8
0
100
AcDbLine
 10
32.122652456539
 20
0.6902604400699985
 30
0.0
 11
32.27302554474399
 21
0.6752486505919997
 31
0.0
  0
LINE
  5
139
330
17
100
AcDbEntity
  8
0
100
AcDbLine
 10
32.27302554474399
 20
0.6752486505919997
 30
0.0
 11
32.42336333563
 21
0.660427695109
 31
0.0
  0
LINE
  5
13A
330
17
100
AcDbEntity
  8
0
100
AcDbLine
 10
32.42336333563
 20
0.660427695109
 30
0.0
 11
32.573659364712
 21
0.6457975777719973
 31
0.0
  0
LINE
  5
13B
330
17
100
AcDbEntity
  8
0
100
AcDbLine
 10
32.573659364712
 20
0.6457975777719973
 30
0.0
 11
32.723907186083
 21
0.631358240518999
 31
0.0
  0
LINE
  5
13C
330
17
100
AcDbEntity
  8
0
100
AcDbLine
 10
32.723907186083
 20
0.631358240518999
 30
0.0
 11
32.874100341743
 21
0.6171095746169968
 31
0.0
  0
LINE
  5
13D
330
17
100
AcDbEntity
  8
0
100
AcDbLine
 10
32.874100341743
 20
0.6171095746169968
 30
0.0
 11
33.024232390216
 21
0.6030514205529975
 31
0.0
  0
LINE
  5
13E
330
17
100
AcDbEntity
  8
0
100
AcDbLine
 10
33.024232390216
 20
0.6030514205529975
 30
0.0
 11
33.174296834326995
 21
0.5891835610979967
 31
0.0
  0
LINE
  5
13F
330
17
100
AcDbEntity
  8
0
100
AcDbLine
 10
33.174296834326995
 20
0.5891835610979967
 30
0.0
 11
33.324216814208
 21
0.5755121772639988
 31
0.0
  0
LINE
  5
140
330
17
100
AcDbEntity
  8
0
100
AcDbLine
 10
33.324216814208
 20
0.5755121772639988
 30
0.0
 11
33.562162757135
 21
0.5541879001759966
 31
0.0
  0
LINE
  5
141
330
17
100
AcDbEntity
  8
0
100
AcDbLine
 10
33.562162757135
 20
0.5541879001759966
 30
0.0
 11
33.799808883349996
 21
0.5333463131499983
 31
0.0
  0
LINE
  5
142
330
17
100
AcDbEntity
  8
0
100
AcDbLine
 10
33.799808883349996
 20
0.5333463131499983
 30
0.0
 11
34.037199794416
 21
0.5129793008529973
 31
0.0
  0
LINE
  5
143
330
17
100
AcDbEntity
  8
0
100
AcDbLine
 10
34.037199794416
 20
0.5129793008529973
 30
0.0
 11
34.274309215364
 21
0.4930847286949991
 31
0.0
  0
LINE
  5
144
330
17
100
AcDbEntity
  8
0
100
AcDbLine
 10
34.274309215364
 20
0.4930847286949991
 30
0.0
 11
34.511110684741
 21
0.47366021437999706
 31
0.0
  0
LINE
  5
145
330
17
100
AcDbEntity
  8
0
100
AcDbLine
 10
34.511110684741
 20
0.47366021437999706
 30
0.0
 11
34.74757753063
 21
0.4547030776409997
 31
0.0
  0
LINE
  5
146
330
17
100
AcDbEntity
  8
0
100
AcDbLine
 10
34.74757753063
 20
0.4547030776409997
 30
0.0
 11
34.983682827229
 21
0.43621037634500226
 31
0.0
  0
LINE
  5
147
330
17
100
AcDbEntity
  8
0
100
AcDbLine
 10
34.983682827229
 20
0.43621037634500226
 30
0.0
 11
35.21939937173201
 21
0.41817890272000113
 31
0.0
  0
LINE
  5
148
330
17
100
AcDbEntity
  8
0
100
AcDbLine
 10
35.21939937173201
 20
0.41817890272000113
 30
0.0
 11
35.454699651857
 21
0.40060519751799717
 31
0.0
  0
LINE
  5
149
330
17
100
AcDbEntity
  8
0
100
AcDbLine
 10
35.454699651857
 20
0.40060519751799717
 30
0.0
 11
35.689555819234
 21
0.3834855561999966
 31
0.0
  0
LINE
  5
14A
330
17
100
AcDbEntity
  8
0
100
AcDbLine
 10
35.689555819234
 20
0.3834855561999966
 30
0.0
 11
35.923939658687004
 21
0.36681603883499747
 31
0.0
  0
LINE
  5
14B
330
17
100
AcDbEntity
  8
0
100
AcDbLine
 10
35.923939658687004
 20
0.36681603883499747
 30
0.0
 11
36.15782256495601
 21
0.35059247816199957
 31
0.0
  0
LINE
  5
14C
330
17
100
AcDbEntity
  8
0
100
AcDbLine
 10
36.15782256495601
 20
0.35059247816199957
 30
0.0
 11
36.391175506215006
 21
0.33481048901399646
 31
0.0
  0
LINE
  5
14D
330
17
100
AcDbEntity
  8
0
100
AcDbLine
 10
36.391175506215006
 20
0.33481048901399646
 30
0.0
 11
36.623969018235
 21
0.31946547600799846
 31
0.0
  0
LINE
  5
14E
330
17
100
AcDbEntity
  8
0
100
AcDbLine
 10
36.623969018235
 20
0.31946547600799846
 30
0.0
 11
36.856173132492
 21
0.3045526445749971
 31
0.0
  0
LINE
  5
14F
330
17
100
AcDbEntity
  8
0
100
AcDbLine
 10
36.856173132492
 20
0.3045526445749971
 30
0.0
 11
37.08775745382201
 21
0.29006700479899905
 31
0.0
  0
LINE
  5
150
330
17
100
AcDbEntity
  8
0
100
AcDbLine
 10
37.08775745382201
 20
0.29006700479899905
 30
0.0
 11
37.31869090635
 21
0.27600339115099715
 31
0.0
  0
LINE
  5
151
330
17
100
AcDbEntity
  8
0
100
AcDbLine
 10
37.31869090635
 20
0.27600339115099715
 30
0.0
 11
37.548942223034004
 21
0.26235644674899916
 31
0.0
  0
LINE
  5
152
330
17
100
AcDbEntity
  8
0
100
AcDbLine
 10
37.548942223034004
 20
0.26235644674899916
 30
0.0
 11
37.778478774343
 21
0.24912068675699928
 31
0.0
  0
LINE
  5
153
330
17
100
AcDbEntity
  8
0
100
AcDbLine
 10
37.778478774343
 20
0.24912068675699928
 30
0.0
 11
38.007269154935
 21
0.23629038367899824
 31
0.0
  0
LINE
  5
154
330
17
100
AcDbEntity
  8
0
100
AcDbLine
 10
38.007269154935
 20
0.23629038367899824
 30
0.0
 11
38.23527688616301
 21
0.22385985009599807
 31
0.0
  0
LINE
  5
155
330
17
100
AcDbEntity
  8
0
100
AcDbLine
 10
38.23527688616301
 20
0.22385985009599807
 30
0.0
 11
38.462472846189
 21
0.21182285330099404
 31
0.0
  0
LINE
  5
156
330
17
100
AcDbEntity
  8
0
100
AcDbLine
 10
38.462472846189
 20
0.21182285330099404
 30
0.0
 11
38.688813071263
 21
0.2001739190969971
 31
0.0
  0
LINE
  5
157
330
17
100
AcDbEntity
  8
0
100
AcDbLine
 10
38.688813071263
 20
0.2001739190969971
 30
0.0
 11
38.914282633759
 21
0.1889057822219975
 31
0.0
  0
LINE
  5
158
330
17
100
AcDbEntity
  8
0
100
AcDbLine
 10
38.914282633759
 20
0.1889057822219975
 30
0.0
 11
39.13897654991901
 21
0.1780058250339991
 31
0.0
  0
LINE
  5
159
330
17
100
AcDbEntity
  8
0
100
AcDbLine
 10
39.13897654991901
 20
0.1780058250339991
 30
0.0
 11
39.36419696373301
 21
0.1674059401409984
 31
0.0
  0
LINE
  5
15A
330
17
100
AcDbEntity
  8
0
100
AcDbLine
 10
39.36419696373301
 20
0.1674059401409984
 30
0.0
 11
39.590176670613005
 21
0.157093916857999
 31
0.0
  0
LINE
  5
15B
330
17
100
AcDbEntity
  8
0
100
AcDbLine
 10
39.590176670613005
 20
0.157093916857999
 30
0.0
 11
39.816908147684
 21
0.14706908530699891
 31
0.0
  0
LINE
  5
15C
330
17
100
AcDbEntity
  8
0
100
AcDbLine
 10
39.816908147684
 20
0.14706908530699891
 30
0.0
 11
40.044371136186
 21
0.13733131977299706
 31
0.0
  0
LINE
  5
15D
330
17
100
AcDbEntity
  8
0
100
AcDbLine
 10
40.044371136186
 20
0.13733131977299706
 30
0.0
 11
40.272553479853
 21
0.12787984939099672
 31
0.0
  0
LINE
  5
15E
330
17
100
AcDbEntity
  8
0
100
AcDbLine
 10
40.272553479853
 20
0.12787984939099672
 30
0.0
 11
40.501439144255
 21
0.11871392807899639
 31
0.0
  0
LINE
  5
15F
330
17
100
AcDbEntity
  8
0
100
AcDbLine
 10
40.501439144255
 20
0.11871392807899639
 30
0.0
 11
40.731013657014
 21
0.1098325350039957
 31
0.0
  0
LINE
  5
160
330
17
100
AcDbEntity
  8
0
100
AcDbLine
 10
40.731013657014
 20
0.1098325350039957
 30
0.0
 11
40.961261642276
 21
0.10123451408799866
 31
0.0
  0
LINE
  5
161
330
17
100
AcDbEntity
  8
0
100
AcDbLine
 10
40.961261642276
 20
0.10123451408799866
 30
0.0
 11
41.192167897062006
 21
0.09291851723899924
 31
0.0
  0
LINE
  5
162
330
17
100
AcDbEntity
  8
0
100
AcDbLine
 10
41.192167897062006
 20
0.09291851723899924
 30
0.0
 11
41.42371688217
 21
0.08488303526999985
 31
0.0
  0
LINE
  5
163
330
17
100
AcDbEntity
  8
0
100
AcDbLine
 10
41.42371688217
 20
0.08488303526999985
 30
0.0
 11
41.655892923652004
 21
0.077126390090001
 31
0.0
  0
LINE
  5
164
330
17
100
AcDbEntity
  8
0
100
AcDbLine
 10
41.655892923652004
 20
0.077126390090001
 30
0.0
 11
41.888680093685
 21
0.06964674351799971
 31
0.0
  0
LINE
  5
165
330
17
100
AcDbEntity
  8
0
100
AcDbLine
 10
41.888680093685
 20
0.06964674351799971
 30
0.0
 11
42.122062240967
 21
0.06244210053399968
 31
0.0
  0
LINE
  5
166
330
17
100
AcDbEntity
  8
0
100
AcDbLine
 10
42.122062240967
 20
0.06244210053399968
 30
0.0
 11
42.3560229408
 21
0.055510311143997626
 31
0.0
  0
LINE
  5
167
330
17
100
AcDbEntity
  8
0
100
AcDbLine
 10
42.3560229408
 20
0.055510311143997626
 30
0.0
 11
42.590545511336
 21
0.048849081827999186
 31
0.0
  0
LINE
  5
168
330
17
100
AcDbEntity
  8
0
100
AcDbLine
 10
42.590545511336
 20
0.048849081827999186
 30
0.0
 11
42.82561293319101
 21
0.042455962872999464
 31
0.0
  0
LINE
  5
169
330
17
100
AcDbEntity
  8
0
100
AcDbLine
 10
42.82561293319101
 20
0.042455962872999464
 30
0.0
 11
43.061207992905
 21
0.03632839023499912
 31
0.0
  0
LINE
  5
16A
330
17
100
AcDbEntity
  8
0
100
AcDbLine
 10
43.061207992905
 20
0.03632839023499912
 30
0.0
 11
43.297312844984006
 21
0.030463570785997263
 31
0.0
  0
LINE
  5
16B
330
17
100
AcDbEntity
  8
0
100
AcDbLine
 10
43.297312844984006
 20
0.030463570785997263
 30
0.0
 11
43.53390963519401
 21
0.02485876523799746
 31
0.0
  0
LINE
  5
16C
330
17
100
AcDbEntity
  8
0
100
AcDbLine
 10
43.53390963519401
 20
0.02485876523799746
 30
0.0
 11
43.770980058464005
 21
0.01951096487399795
 31
0.0
  0
LINE
  5
16D
330
17
100
AcDbEntity
  8
0
100
AcDbLine
 10
43.770980058464005
 20
0.01951096487399795
 30
0.0
 11
44.008505322141005
 21
0.014417061728998704
 31
0.0
  0
LINE
  5
16E
330
17
100
AcDbEntity
  8
0
100
AcDbLine
 10
44.008505322141005
 20
0.014417061728998704
 30
0.0
 11
44.246466265205
 21
0.009573841425996932
 31
0.0
  0
LINE
  5
16F
330
17
100
AcDbEntity
  8
0
100
AcDbLine
 10
44.246466265205
 20
0.009573841425996932
 30
0.0
 11
44.48484331615501
 21
0.004977976829998454
 31
0.0
  0
LINE
  5
170
330
17
100
AcDbEntity
  8
0
100
AcDbLine
 10
44.48484331615501
 20
0.004977976829998454
 30
0.0
 11
44.723616464133
 21
0.0006260320389976926
 31
0.0
  0
LINE
  5
171
330
17
100
AcDbEntity
  8
0
100
AcDbLine
 10
44.723616464133
 20
0.0006260320389976926
 30
0.0
 11
44.760029562015006
 21
0.0
 31
0.0
  0
LINE
  5
172
330
17
100
AcDbEntity
  8
0
100
AcDbLine
 10
44.760029562015006
 20
0.0
 30
0.0
 11
44.760029562015006
 21
12.714229783429998
 31
0.0
  0
LINE
  5
173
330
17
100
AcDbEntity
  8
0
100
AcDbLine
 10
44.760029562015006
 20
12.714229783429998
 30
0.0
 11
39.254345751900004
 21
12.721467494533998
 31
0.0
  0
LINE
  5
174
330
17
100
AcDbEntity
  8
0
100
AcDbLine
 10
39.254345751900004
 20
12.721467494533998
 30
0.0
 11
31.251078957701
 21
12.661455990535998
 31
0.0
  0
LINE
  5
175
330
17
100
AcDbEntity
  8
0
100
AcDbLine
 10
31.251078957701
 20
12.661455990535998
 30
0.0
 11
26.782948581319
 21
12.579334898205998
 31
0.0
  0
LINE
  5
176
330
17
100
AcDbEntity
  8
0
100
AcDbLine
 10
26.782948581319
 20
12.579334898205998
 30
0.0
 11
23.304542443364998
 21
12.481470214125999
 31
0.0
  0
LINE
  5
177
330
17
100
AcDbEntity
  8
0
100
AcDbLine
 10
23.304542443364998
 20
12.481470214125999
 30
0.0
 11
19.322638676279002
 21
12.325511409397999
 31
0.0
  0
LINE
  5
178
330
17
100
AcDbEntity
  8
0
100
AcDbLine
 10
19.322638676279002
 20
12.325511409397999
 30
0.0
 11
15.782912462145998
 21
12.139950119499998
 31
0.0
  0
LINE
  5
179
330
17
100
AcDbEntity
  8
0
100
AcDbLine
 10
15.782912462145998
 20
12.139950119499998
 30
0.0
 11
12.809239053644003
 21
11.944873979886998
 31
0.0
  0
LINE
  5
17A
330
17
100
AcDbEntity
  8
0
100
AcDbLine
 10
12.809239053644003
 20
11.944873979886998
 30
0.0
 11
8.783998397678001
 21
11.615777857125998
 31
0.0
  0
LINE
  5
17B
330
17
100
AcDbEntity
  8
0
100
AcDbLine
 10
8.783998397678001
 20
11.615777857125998
 30
0.0
 11
6.497028900069001
 21
11.389879787940997
 31
0.0
  0
LINE
  5
17C
330
17
100
AcDbEntity
  8
0
100
AcDbLine
 10
6.497028900069001
 20
11.389879787940997
 30
0.0
 11
4.309182963824998
 21
11.098612308438998
 31
0.0
  0
ENDSEC
  0
SECTION
  2
OBJECTS
  0
DICTIONARY
  5
A
330
0
100
AcDbDictionary
281
1
  3
ACAD_COLOR
350
B
  3
ACAD_GROUP
350
C
  3
ACAD_LAYOUT
350
D
  3
ACAD_MATERIAL
350
E
  3
ACAD_MLEADERSTYLE
350
F
  3
ACAD_MLINESTYLE
350
10
  3
ACAD_PLOTSETTINGS
350
11
  3
ACAD_PLOTSTYLENAME
350
12
  3
ACAD_SCALELIST
350
14
  3
ACAD_TABLESTYLE
350
15
  3
ACAD_VISUALSTYLE
350
16
  3
EZDXF_META
350
2D
  0
DICTIONARY
  5
B
330
A
100
AcDbDictionary
281
1
  0
DICTIONARY
  5
C
330
A
100
AcDbDictionary
281
1
  0
DICTIONARY
  5
D
330
A
100
AcDbDictionary
281
1
  3
Model
350
1A
  3
Layout1
350
1E
  0
DICTIONARY
  5
E
330
A
100
AcDbDictionary
281
1
  3
ByBlock
350
1F
  3
ByLayer
350
20
  3
Global
350
21
  0
DICTIONARY
  5
F
330
A
100
AcDbDictionary
281
1
  3
Standard
350
2C
  0
DICTIONARY
  5
10
330
A
100
AcDbDictionary
281
1
  3
Standard
350
22
  0
DICTIONARY
  5
11
330
A
100
AcDbDictionary
281
1
  0
ACDBDICTIONARYWDFLT
  5
12
330
A
100
AcDbDictionary
281
1
  3
Normal
350
13
100
AcDbDictionaryWithDefault
340
13
  0
ACDBPLACEHOLDER
  5
13
330
12
  0
DICTIONARY
  5
14
330
A
100
AcDbDictionary
281
1
  0
DICTIONARY
  5
15
330
A
100
AcDbDictionary
281
1
  0
DICTIONARY
  5
16
330
A
100
AcDbDictionary
281
1
  0
LAYOUT
  5
1A
330
D
100
AcDbPlotSettings
  1

  4
A3
  6

 40
7.5
 41
20.0
 42
7.5
 43
20.0
 44
420.0
 45
297.0
 46
0.0
 47
0.0
 48
0.0
 49
0.0
140
0.0
141
0.0
142
1.0
143
1.0
 70
1024
 72
1
 73
0
 74
5
  7

 75
16
 76
0
 77
2
 78
300
147
1.0
148
0.0
149
0.0
100
AcDbLayout
  1
Model
 70
1
 71
0
 10
0.0
 20
0.0
 11
420.0
 21
297.0
 12
0.0
 22
0.0
 32
0.0
 14
1e+20
 24
1e+20
 34
1e+20
 15
-1e+20
 25
-1e+20
 35
-1e+20
146
0.0
 13
0.0
 23
0.0
 33
0.0
 16
1.0
 26
0.0
 36
0.0
 17
0.0
 27
1.0
 37
0.0
 76
1
330
17
  0
LAYOUT
  5
1E
330
D
100
AcDbPlotSettings
  1

  4
A3
  6

 40
7.5
 41
20.0
 42
7.5
 43
20.0
 44
420.0
 45
297.0
 46
0.0
 47
0.0
 48
0.0
 49
0.0
140
0.0
141
0.0
142
1.0
143
1.0
 70
0
 72
1
 73
0
 74
5
  7

 75
16
 76
0
 77
2
 78
300
147
1.0
148
0.0
149
0.0
100
AcDbLayout
  1
Layout1
 70
1
 71
1
 10
0.0
 20
0.0
 11
420.0
 21
297.0
 12
0.0
 22
0.0
 32
0.0
 14
1e+20
 24
1e+20
 34
1e+20
 15
-1e+20
 25
-1e+20
 35
-1e+20
146
0.0
 13
0.0
 23
0.0
 33
0.0
 16
1.0
 26
0.0
 36
0.0
 17
0.0
 27
1.0
 37
0.0
 76
1
330
1B
  0
MATERIAL
  5
1F
102
{ACAD_REACTORS
330
E
102
}
330
E
100
AcDbMaterial
  1
ByBlock
  2

 70
0
 40
1.0
 71
1
 41
1.0
 91
-1023410177
 42
1.0
 72
1
  3

 73
1
 74
1
 75
1
 44
0.5
 73
0
 45
1.0
 46
1.0
 77
1
  4

 78
1
 79
1
170
1
 48
1.0
171
1
  6

172
1
173
1
174
1
140
1.0
141
1.0
175
1
  7

176
1
177
1
178
1
143
1.0
179
1
  8

270
1
271
1
272
1
145
1.0
146
1.0
273
1
  9

274
1
275
1
276
1
 42
1.0
 72
1
  3

 73
1
 74
1
 75
1
 94
63
  0
MATERIAL
  5
20
102
{ACAD_REACTORS
330
E
102
}
330
E
100
AcDbMaterial
  1
ByLayer
  2

 70
0
 40
1.0
 71
1
 41
1.0
 91
-1023410177
 42
1.0
 72
1
  3

 73
1
 74
1
 75
1
 44
0.5
 73
0
 45
1.0
 46
1.0
 77
1
  4

 78
1
 79
1
170
1
 48
1.0
171
1
  6

172
1
173
1
174
1
140
1.0
141
1.0
175
1
  7

176
1
177
1
178
1
143
1.0
179
1
  8

270
1
271
1
272
1
145
1.0
146
1.0
273
1
  9

274
1
275
1
276
1
 42
1.0
 72
1
  3

 73
1
 74
1
 75
1
 94
63
  0
MATERIAL
  5
21
102
{ACAD_REACTORS
330
E
102
}
330
E
100
AcDbMaterial
  1
Global
  2

 70
0
 40
1.0
 71
1
 41
1.0
 91
-1023410177
 42
1.0
 72
1
  3

 73
1
 74
1
 75
1
 44
0.5
 73
0
 45
1.0
 46
1.0
 77
1
  4

 78
1
 79
1
170
1
 48
1.0
171
1
  6

172
1
173
1
174
1
140
1.0
141
1.0
175
1
  7

176
1
177
1
178
1
143
1.0
179
1
  8

270
1
271
1
272
1
145
1.0
146
1.0
273
1
  9

274
1
275
1
276
1
 42
1.0
 72
1
  3

 73
1
 74
1
 75
1
 94
63
  0
MLINESTYLE
  5
22
102
{ACAD_REACTORS
330
10
102
}
330
10
100
AcDbMlineStyle
  2
Standard
 70
0
  3

 62
256
 51
90.0
 52
90.0
 71
2
 49
0.5
 62
256
  6
BYLAYER
 49
-0.5
 62
256
  6
BYLAYER
  0
MLEADERSTYLE
  5
2C
102
{ACAD_REACTORS
330
F
102
}
330
F
100
AcDbMLeaderStyle
179
2
170
2
171
1
172
0
 90
2
 40
0.0
 41
0.0
173
1
 91
-1056964608
 92
-2
290
1
 42
2.0
291
1
 43
8.0
  3
Standard
 44
4.0
300

342
29
174
1
175
1
176
0
178
1
 93
-1056964608
 45
4.0
292
0
297
0
 46
4.0
 94
-1056964608
 47
1.0
 49
1.0
140
1.0
294
1
141
0.0
177
0
142
1.0
295
0
296
0
143
3.75
271
0
272
9
273
9
  0
DICTIONARY
  5
2D
330
A
100
AcDbDictionary
280
1
281
1
  3
CREATED_BY_EZDXF
350
2E
  3
WRITTEN_BY_EZDXF
350
180
  0
DICTIONARYVAR
  5
2E
330
2D
100
DictionaryVariables
280
0
  1
1.4.4 @ 2026-09-23T14:14:19.097907+00:00
  0
DICTIONARYVAR
  5
180
330
2D
100
DictionaryVariables
280
0
  1
1.4.4 @ 2026-09-23T14:14:19.184156+00:00
  0
ENDSEC
  0
EOF
