  0
SECTION
  2
HEADER
  9
$ACADVER
  1
AC1027
  9
$ACADMAINTVER
 70
105
  9
$DWGCODEPAGE
  3
ANSI_1252
  9
$LASTSAVEDBY
  1
ezdxf
  9
$REQUIREDVERSIONS
160
0
  9
$INSBASE
 10
0.0
 20
0.0
 30
0.0
  9
$EXTMIN
 10
1e+20
 20
1e+20
 30
1e+20
  9
$EXTMAX
 10
-1e+20
 20
-1e+20
 30
-1e+20
  9
$LIMMIN
 10
0.0
 20
0.0
  9
$LIMMAX
 10
420.0
 20
297.0
  9
$ORTHOMODE
 70
0
  9
$REGENMODE
 70
1
  9
$FILLMODE
 70
1
  9
$QTEXTMODE
 70
0
  9
$MIRRTEXT
 70
1
  9
$LTSCALE
 40
1.0
  9
$ATTMODE
 70
1
  9
$TEXTSIZE
 40
2.5
  9
$TRACEWID
 40
1.0
  9
$TEXTSTYLE
  7
Standard
  9
$CLAYER
  8
0
  9
$CELTYPE
  6
ByLayer
  9
$CECOLOR
 62
256
  9
$CELTSCALE
 40
1.0
  9
$DISPSILH
 70
0
  9
$DIMSCALE
 40
1.0
  9
$DIMASZ
 40
2.5
  9
$DIMEXO
 40
0.625
  9
$DIMDLI
 40
3.75
  9
$DIMRND
 40
0.0
  9
$DIMDLE
 40
0.0
  9
$DIMEXE
 40
1.25
  9
$DIMTP
 40
0.0
  9
$DIMTM
 40
0.0
  9
$DIMTXT
 40
2.5
  9
$DIMCEN
 40
2.5
  9
$DIMTSZ
 40
0.0
  9
$DIMTOL
 70
0
  9
$DIMLIM
 70
0
  9
$DIMTIH
 70
0
  9
$DIMTOH
 70
0
  9
$DIMSE1
 70
0
  9
$DIMSE2
 70
0
  9
$DIMTAD
 70
1
  9
$DIMZIN
 70
8
  9
$DIMBLK
  1

  9
$DIMASO
 70
1
  9
$DIMSHO
 70
1
  9
$DIMPOST
  1

  9
$DIMAPOST
  1

  9
$DIMALT
 70
0
  9
$DIMALTD
 70
3
  9
$DIMALTF
 40
0.03937007874
  9
$DIMLFAC
 40
1.0
  9
$DIMTOFL
 70
1
  9
$DIMTVP
 40
0.0
  9
$DIMTIX
 70
0
  9
$DIMSOXD
 70
0
  9
$DIMSAH
 70
0
  9
$DIMBLK1
  1

  9
$DIMBLK2
  1

  9
$DIMSTYLE
  2
ISO-25
  9
$DIMCLRD
 70
0
  9
$DIMCLRE
 70
0
  9
$DIMCLRT
 70
0
  9
$DIMTFAC
 40
1.0
  9
$DIMGAP
 40
0.625
  9
$DIMJUST
 70
0
  9
$DIMSD1
 70
0
  9
$DIMSD2
 70
0
  9
$DIMTOLJ
 70
0
  9
$DIMTZIN
 70
8
  9
$DIMALTZ
 70
0
  9
$DIMALTTZ
 70
0
  9
$DIMUPT
 70
0
  9
$DIMDEC
 70
2
  9
$DIMTDEC
 70
2
  9
$DIMALTU
 70
2
  9
$DIMALTTD
 70
3
  9
$DIMTXSTY
  7
Standard
  9
$DIMAUNIT
 70
0
  9
$DIMADEC
 70
0
  9
$DIMALTRND
 40
0.0
  9
$DIMAZIN
 70
0
  9
$DIMDSEP
 70
44
  9
$DIMATFIT
 70
3
  9
$DIMFRAC
 70
0
  9
$DIMLDRBLK
  1

  9
$DIMLUNIT
 70
2
  9
$DIMLWD
 70
-2
  9
$DIMLWE
 70
-2
  9
$DIMTMOVE
 70
0
  9
$DIMFXL
 40
1.0
  9
$DIMFXLON
 70
0
  9
$DIMJOGANG
 40
0.785398163397
  9
$DIMTFILL
 70
0
  9
$DIMTFILLCLR
 70
0
  9
$DIMARCSYM
 70
0
  9
$DIMLTYPE
  6

  9
$DIMLTEX1
  6

  9
$DIMLTEX2
  6

  9
$DIMTXTDIRECTION
 70
0
  9
$LUNITS
 70
2
  9
$LUPREC
 70
4
  9
$SKETCHINC
 40
1.0
  9
$FILLETRAD
 40
10.0
  9
$AUNITS
 70
0
  9
$AUPREC
 70
2
  9
$MENU
  1
.
  9
$ELEVATION
 40
0.0
  9
$PELEVATION
 40
0.0
  9
$THICKNESS
 40
0.0
  9
$LIMCHECK
 70
0
  9
$CHAMFERA
 40
0.0
  9
$CHAMFERB
 40
0.0
  9
$CHAMFERC
 40
0.0
  9
$CHAMFERD
 40
0.0
  9
$SKPOLY
 70
0
  9
$TDCREATE
 40
2461307.351736111
  9
$TDUCREATE
 40
2458532.153996898
  9
$TDUPDATE
 40
2461307.351736111
  9
$TDUUPDATE
 40
2458532.1544311
  9
$TDINDWG
 40
0.0
  9
$TDUSRTIMER
 40
0.0
  9
$USRTIMER
 70
1
  9
$ANGBASE
 50
0.0
  9
$ANGDIR
 70
0
  9
$PDMODE
 70
0
  9
$PDSIZE
 40
0.0
  9
$PLINEWID
 40
0.0
  9
$SPLFRAME
 70
0
  9
$SPLINETYPE
 70
6
  9
$SPLINESEGS
 70
8
  9
$HANDSEED
  5
181
  9
$SURFTAB1
 70
6
  9
$SURFTAB2
 70
6
  9
$SURFTYPE
 70
6
  9
$SURFU
 70
6
  9
$SURFV
 70
6
  9
$UCSBASE
  2

  9
$UCSNAME
  2

  9
$UCSORG
 10
0.0
 20
0.0
 30
0.0
  9
$UCSXDIR
 10
1.0
 20
0.0
 30
0.0
  9
$UCSYDIR
 10
0.0
 20
1.0
 30
0.0
  9
$UCSORTHOREF
  2

  9
$UCSORTHOVIEW
 70
0
  9
$UCSORGTOP
 10
0.0
 20
0.0
 30
0.0
  9
$UCSORGBOTTOM
 10
0.0
 20
0.0
 30
0.0
  9
$UCSORGLEFT
 10
0.0
 20
0.0
 30
0.0
  9
$UCSORGRIGHT
 10
0.0
 20
0.0
 30
0.0
  9
$UCSORGFRONT
 10
0.0
 20
0.0
 30
0.0
  9
$UCSORGBACK
 10
0.0
 20
0.0
 30
0.0
  9
$PUCSBASE
  2

  9
$PUCSNAME
  2

  9
$PUCSORG
 10
0.0
 20
0.0
 30
0.0
  9
$PUCSXDIR
 10
1.0
 20
0.0
 30
0.0
  9
$PUCSYDIR
 10
0.0
 20
1.0
 30
0.0
  9
$PUCSORTHOREF
  2

  9
$PUCSORTHOVIEW
 70
0
  9
$PUCSORGTOP
 10
0.0
 20
0.0
 30
0.0
  9
$PUCSORGBOTTOM
 10
0.0
 20
0.0
 30
0.0
  9
$PUCSORGLEFT
 10
0.0
 20
0.0
 30
0.0
  9
$PUCSORGRIGHT
 10
0.0
 20
0.0
 30
0.0
  9
$PUCSORGFRONT
 10
0.0
 20
0.0
 30
0.0
  9
$PUCSORGBACK
 10
0.0
 20
0.0
 30
0.0
  9
$USERI1
 70
0
  9
$USERI2
 70
0
  9
$USERI3
 70
0
  9
$USERI4
 70
0
  9
$USERI5
 70
0
  9
$USERR1
 40
0.0
  9
$USERR2
 40
0.0
  9
$USERR3
 40
0.0
  9
$USERR4
 40
0.0
  9
$USERR5
 40
0.0
  9
$WORLDVIEW
 70
1
  9
$SHADEDGE
 70
3
  9
$SHADEDIF
 70
70
  9
$TILEMODE
 70
1
  9
$MAXACTVP
 70
64
  9
$PINSBASE
 10
0.0
 20
0.0
 30
0.0
  9
$PLIMCHECK
 70
0
  9
$PEXTMIN
 10
1e+20
 20
1e+20
 30
1e+20
  9
$PEXTMAX
 10
-1e+20
 20
-1e+20
 30
-1e+20
  9
$PLIMMIN
 10
0.0
 20
0.0
  9
$PLIMMAX
 10
420.0
 20
297.0
  9
$UNITMODE
 70
0
  9
$VISRETAIN
 70
1
  9
$PLINEGEN
 70
0
  9
$PSLTSCALE
 70
1
  9
$TREEDEPTH
 70
3020
  9
$CMLSTYLE
  2
Standard
  9
$CMLJUST
 70
0
  9
$CMLSCALE
 40
20.0
  9
$PROXYGRAPHICS
 70
1
  9
$MEASUREMENT
 70
1
  9
$CELWEIGHT
370
-1
  9
$ENDCAPS
280
0
  9
$JOINSTYLE
280
0
  9
$LWDISPLAY
290
0
  9
$INSUNITS
 70
4
  9
$HYPERLINKBASE
  1

  9
$STYLESHEET
  1

  9
$XEDIT
290
1
  9
$CEPSNTYPE
380
0
  9
$PSTYLEMODE
290
1
  9
$FINGERPRINTGUID
  2
{3B17111A-F9CF-455B-8511-7C0A4789B881}
  9
$VERSIONGUID
  2
{7ADEEC6A-7F81-4F01-A0A0-5200C273AF21}
  9
$EXTNAMES
290
1
  9
$PSVPSCALE
 40
0.0
  9
$OLESTARTUP
290
0
  9
$SORTENTS
280
127
  9
$INDEXCTL
280
0
  9
$HIDETEXT
280
1
  9
$XCLIPFRAME
280
1
  9
$HALOGAP
280
0
  9
$OBSCOLOR
 70
257
  9
$OBSLTYPE
280
0
  9
$INTERSECTIONDISPLAY
280
0
  9
$INTERSECTIONCOLOR
 70
257
  9
$DIMASSOC
280
2
  9
$PROJECTNAME
  1

  9
$CAMERADISPLAY
290
0
  9
$LENSLENGTH
 40
50.0
  9
$CAMERAHEIGHT
 40
0.0
  9
$STEPSPERSEC
 40
24.0
  9
$STEPSIZE
 40
100.0
  9
$3DDWFPREC
 40
2.0
  9
$PSOLWIDTH
 40
0.005
  9
$PSOLHEIGHT
 40
0.08
  9
$LOFTANG1
 40
1.570796326795
  9
$LOFTANG2
 40
1.570796326795
  9
$LOFTMAG1
 40
0.0
  9
$LOFTMAG2
 40
0.0
  9
$LOFTPARAM
 70
7
  9
$LOFTNORMALS
280
1
  9
$LATITUDE
 40
37.795
  9
$LONGITUDE
 40
-122.394
  9
$NORTHDIRECTION
 40
0.0
  9
$TIMEZONE
 70
-8000
  9
$LIGHTGLYPHDISPLAY
280
1
  9
$TILEMODELIGHTSYNCH
280
1
  9
$CMATERIAL
347
20
  9
$SOLIDHIST
280
0
  9
$SHOWHIST
280
1
  9
$DWFFRAME
280
2
  9
$DGNFRAME
280
2
  9
$REALWORLDSCALE
290
1
  9
$INTERFERECOLOR
 62
256
  9
$CSHADOW
280
0
  9
$SHADOWPLANELOCATION
 40
0.0
  0
ENDSEC
  0
SECTION
  2
CLASSES
  0
CLASS
  1
ACDBDICTIONARYWDFLT
  2
AcDbDictionaryWithDefault
  3
ObjectDBX Classes
 90
0
 91
0
280
0
281
0
  0
CLASS
  1
SUN
  2
AcDbSun
  3
SCENEOE
 90
1153
 91
0
280
0
281
0
  0
CLASS
  1
VISUALSTYLE
  2
AcDbVisualStyle
  3
ObjectDBX Classes
 90
4095
 91
0
280
0
281
0
  0
CLASS
  1
MATERIAL
  2
AcDbMaterial
  3
ObjectDBX Classes
 90
1153
 91
0
280
0
281
0
  0
CLASS
  1
SCALE
  2
AcDbScale
  3
ObjectDBX Classes
 90
1153
 91
0
280
0
281
0
  0
CLASS
  1
TABLESTYLE
  2
AcDbTableStyle
  3
ObjectDBX Classes
 90
4095
 91
0
280
0
281
0
  0
CLASS
  1
MLEADERSTYLE
  2
AcDbMLeaderStyle
  3
ACDB_MLEADERSTYLE_CLASS
 90
4095
 91
0
280
0
281
0
  0
CLASS
  1
DICTIONARYVAR
  2
AcDbDictionaryVar
  3
ObjectDBX Classes
 90
0
 91
0
280
0
281
0
  0
CLASS
  1
CELLSTYLEMAP
  2
AcDbCellStyleMap
  3
ObjectDBX Classes
 90
1152
 91
0
280
0
281
0
  0
CLASS
  1
MENTALRAYRENDERSETTINGS
  2
AcDbMentalRayRenderSettings
  3
SCENEOE
 90
1024
 91
0
280
0
281
0
  0
CLASS
  1
ACDBDETAILVIEWSTYLE
  2
AcDbDetailViewStyle
  3
ObjectDBX Classes
 90
1025
 91
0
280
0
281
0
  0
CLASS
  1
ACDBSECTIONVIEWSTYLE
  2
AcDbSectionViewStyle
  3
ObjectDBX Classes
 90
1025
 91
0
280
0
281
0
  0
CLASS
  1
RASTERVARIABLES
  2
AcDbRasterVariables
  3
ISM
 90
0
 91
0
280
0
281
0
  0
CLASS
  1
LAYOUT
  2
AcDbLayout
  3
ObjectDBX Classes
 90
0
 91
0
280
0
281
0
  0
CLASS
  1
ACDBPLACEHOLDER
  2
AcDbPlaceHolder
  3
ObjectDBX Classes
 90
0
 91
0
280
0
281
0
  0
ENDSEC
  0
SECTION
  2
TABLES
  0
TABLE
  2
VPORT
  5
8
330
0
100
AcDbSymbolTable
 70
1
  0
VPORT
  5
17D
330
8
100
AcDbSymbolTableRecord
100
AcDbViewportTableRecord
  2
*Active
 70
0
 10
0.0
 20
0.0
 11
1.0
 21
1.0
 12
-0.8008433167340332
 22
4.470677134412696
 13
0.0
 23
0.0
 14
0.5
 24
0.5
 15
0.5
 25
0.5
 16
0.0
 26
0.0
 36
1.0
 17
0.0
 27
0.0
 37
0.0
 40
44.760029562014864
 41
1.34
 42
50.0
 43
0.0
 44
0.0
 50
0.0
 51
0.0
 71
0
 72
1000
 73
1
 74
3
 75
0
 76
0
 77
0
 78
0
281
0
 65
1
110
0.0
120
0.0
130
0.0
111
1.0
121
0.0
131
0.0
112
0.0
122
1.0
132
0.0
 79
0
146
0.0
  0
ENDTAB
  0
TABLE
  2
LTYPE
  5
2
330
0
100
AcDbSymbolTable
 70
3
  0
LTYPE
  5
24
330
2
100
AcDbSymbolTableRecord
100
AcDbLinetypeTableRecord
  2
ByBlock
 70
0
  3

 72
65
 73
0
 40
0.0
  0
LTYPE
  5
25
330
2
100
AcDbSymbolTableRecord
100
AcDbLinetypeTableRecord
  2
ByLayer
 70
0
  3

 72
65
 73
0
 40
0.0
  0
LTYPE
  5
26
330
2
100
AcDbSymbolTableRecord
100
AcDbLinetypeTableRecord
  2
Continuous
 70
0
  3

 72
65
 73
0
 40
0.0
  0
ENDTAB
  0
TABLE
  2
LAYER
  5
1
330
0
100
AcDbSymbolTable
 70
2
  0
LAYER
  5
27
330
1
100
AcDbSymbolTableRecord
100
AcDbLayerTableRecord
  2
0
 70
0
 62
7
  6
Continuous
370
-3
390
13
347
21
  0
LAYER
  5
28
330
1
100
AcDbSymbolTableRecord
100
AcDbLayerTableRecord
  2
Defpoints
 70
0
 62
7
  6
Continuous
290
0
370
-3
390
13
347
21
  0
ENDTAB
  0
TABLE
  2
STYLE
  5
5
330
0
100
AcDbSymbolTable
 70
1
  0
STYLE
  5
29
330
5
100
AcDbSymbolTableRecord
100
AcDbTextStyleTableRecord
  2
Standard
 70
0
 40
0.0
 41
1.0
 50
0.0
 71
0
 42
2.5
  3
txt
  4

  0
ENDTAB
  0
TABLE
  2
VIEW
  5
7
330
0
100
AcDbSymbolTable
 70
0
  0
ENDTAB
  0
TABLE
  2
UCS
  5
6
330
0
100
AcDbSymbolTable
 70
0
  0
ENDTAB
  0
TABLE
  2
APPID
  5
3
330
0
100
AcDbSymbolTable
 70
3
  0
APPID
  5
2A
330
3
100
AcDbSymbolTableRecord
100
AcDbRegAppTableRecord
  2
ACAD
 70
0
  0
APPID
  5
17E
330
3
100
AcDbSymbolTableRecord
100
AcDbRegAppTableRecord
  2
HATCHBACKGROUNDCOLOR
 70
0
  0
APPID
  5
17F
330
3
100
AcDbSymbolTableRecord
100
AcDbRegAppTableRecord
  2
EZDXF
 70
0
  0
ENDTAB
  0
TABLE
  2
DIMSTYLE
  5
4
330
0
100
AcDbSymbolTable
 70
1
100
AcDbDimStyleTable
  0
DIMSTYLE
105
2B
330
4
100
AcDbSymbolTableRecord
100
AcDbDimStyleTableRecord
  2
Standard
 70
0
 40
1.0
 41
2.5
 42
0.625
 43
3.75
 44
1.25
 45
0.0
 46
0.0
 47
0.0
 48
0.0
 49
2.5
140
2.5
141
2.5
142
0.0
143
0.03937007874
144
1.0
145
0.0
146
1.0
147
0.625
148
0.0
 69
0
 70
0
 71
0
 72
0
 73
0
 74
0
 75
0
 76
0
 77
1
 78
8
 79
3
170
0
171
3
172
1
173
0
174
0
175
0
176
0
177
0
178
0
179
2
271
2
272
2
273
2
274
3
275
0
276
0
277
2
278
44
279
0
280
0
281
0
282
0
283
0
284
8
285
0
286
0
288
0
289
3
290
0
371
-2
372
-2
  0
ENDTAB
  0
TABLE
  2
BLOCK_RECORD
  5
9
330
0
100
AcDbSymbolTable
 70
2
  0
BLOCK_RECORD
  5
17
330
9
100
AcDbSymbolTableRecord
100
AcDbBlockTableRecord
  2
*Model_Space
340
1A
 70
0
280
1
281
0
  0
BLOCK_RECORD
  5
1B
330
9
100
AcDbSymbolTableRecord
100
AcDbBlockTableRecord
  2
*Paper_Space
340
1E
 70
0
280
1
281
0
  0
ENDTAB
  0
ENDSEC
  0
SECTION
  2
BLOCKS
  0
BLOCK
  5
18
330
17
100
AcDbEntity
  8
0
100
AcDbBlockBegin
  2
*Model_Space
 70
0
 10
0.0
 20
0.0
 30
0.0
  3
*Model_Space
  1

  0
ENDBLK
  5
19
330
17
100
AcDbEntity
  8
0
100
AcDbBlockEnd
  0
BLOCK
  5
1C
330
1B
100
AcDbEntity
  8
0
100
AcDbBlockBegin
  2
*Paper_Space
 70
0
 10
0.0
 20
0.0
 30
0.0
  3
*Paper_Space
  1

  0
ENDBLK
  5
1D
330
1B
100
AcDbEntity
  8
0
100
AcDbBlockEnd
  0
ENDSEC
  0
SECTION
  2
ENTITIES
  0
LINE
  5
2F
330
17
100
AcDbEntity
  8
0
100
AcDbLine
 10
3.9370352444379026
 20
22.54150895159512
 30
5.684341886080802e-14
 11
3.5216435706077274
 21
24.735985892895176
 31
5.684341886080802e-14
  0
LINE
  5
30
330
17
100
AcDbEntity
  8
0
100
AcDbLine
 10
3.5216435706077274
 20
24.735985892895176
 30
5.684341886080802e-14
 11
3.039806628891043
 21
26.85069191542013
 31
5.684341886080802e-14
  0
LINE
  5
31
330
17
100
AcDbEntity
  8
0
100
AcDbLine
 10
3.039806628891043
 20
26.85069191542013
 30
5.684341886080802e-14
 11
2.967301009216852
 21
26.766360884453743
 31
5.684341886080802e-14
  0
LINE
  5
32
330
17
100
AcDbEntity
  8
0
100
AcDbLine
 10
2.967301009216852
 20
26.766360884453743
 30
5.684341886080802e-14
 11
2.8625225099746245
 21
26.64279534701103
 31
5.684341886080802e-14
  0
LINE
  5
33
330
17
100
AcDbEntity
  8
0
100
AcDbLine
 10
2.8625225099746245
 20
26.64279534701103
 30
5.684341886080802e-14
 11
2.7659200117041554
 21
26.527353332461455
 31
5.684341886080802e-14
  0
LINE
  5
34
330
17
100
AcDbEntity
  8
0
100
AcDbLine
 10
2.7659200117041554
 20
26.527353332461455
 30
5.684341886080802e-14
 11
2.6784322731580215
 21
26.421441282924153
 31
5.684341886080802e-14
  0
LINE
  5
35
330
17
100
AcDbEntity
  8
0
100
AcDbLine
 10
2.6784322731580215
 20
26.421441282924153
 30
5.684341886080802e-14
 11
2.6010269320531503
 21
26.326512380954398
 31
5.684341886080802e-14
  0
LINE
  5
36
330
17
100
AcDbEntity
  8
0
100
AcDbLine
 10
2.6010269320531503
 20
26.326512380954398
 30
5.684341886080802e-14
 11
2.5345306819979
 21
26.243839171553855
 31
5.684341886080802e-14
  0
LINE
  5
37
330
17
100
AcDbEntity
  8
0
100
AcDbLine
 10
2.5345306819979
 20
26.243839171553855
 30
5.684341886080802e-14
 11
2.457610633603238
 21
26.146998689972335
 31
5.684341886080802e-14
  0
LINE
  5
38
330
17
100
AcDbEntity
  8
0
100
AcDbLine
 10
2.457610633603238
 20
26.146998689972335
 30
5.684341886080802e-14
 11
2.380877418765907
 21
26.0493418600649
 31
5.684341886080802e-14
  0
LINE
  5
39
330
17
100
AcDbEntity
  8
0
100
AcDbLine
 10
2.380877418765907
 20
26.0493418600649
 30
5.684341886080802e-14
 11
2.304404358787309
 21
25.950857626534745
 31
5.684341886080802e-14
  0
LINE
  5
3A
330
17
100
AcDbEntity
  8
0
100
AcDbLine
 10
2.304404358787309
 20
25.950857626534745
 30
5.684341886080802e-14
 11
2.2280931508162762
 21
25.85131707180713
 31
5.684341886080802e-14
  0
LINE
  5
3B
330
17
100
AcDbEntity
  8
0
100
AcDbLine
 10
2.2280931508162762
 20
25.85131707180713
 30
5.684341886080802e-14
 11
2.1518427186806957
 21
25.7504874144207
 31
5.684341886080802e-14
  0
LINE
  5
3C
330
17
100
AcDbEntity
  8
0
100
AcDbLine
 10
2.1518427186806957
 20
25.7504874144207
 30
5.684341886080802e-14
 11
2.0755576868746974
 21
25.648144883029477
 31
5.684341886080802e-14
  0
LINE
  5
3D
330
17
100
AcDbEntity
  8
0
100
AcDbLine
 10
2.0755576868746974
 20
25.648144883029477
 30
5.684341886080802e-14
 11
1.9991284510315008
 21
25.544037674034772
 31
5.684341886080802e-14
  0
LINE
  5
3E
330
17
100
AcDbEntity
  8
0
100
AcDbLine
 10
1.9991284510315008
 20
25.544037674034772
 30
5.684341886080802e-14
 11
1.9224608113507546
 21
25.437950226262704
 31
5.684341886080802e-14
  0
LINE
  5
3F
330
17
100
AcDbEntity
  8
0
100
AcDbLine
 10
1.9224608113507546
 20
25.437950226262704
 30
5.684341886080802e-14
 11
1.8454590368476804
 21
25.32965068794044
 31
5.684341886080802e-14
  0
LINE
  5
40
330
17
100
AcDbEntity
  8
0
100
AcDbLine
 10
1.8454590368476804
 20
25.32965068794044
 30
5.684341886080802e-14
 11
1.7680150529856178
 21
25.218889433879795
 31
5.684341886080802e-14
  0
LINE
  5
41
330
17
100
AcDbEntity
  8
0
100
AcDbLine
 10
1.7680150529856178
 20
25.218889433879795
 30
5.684341886080802e-14
 11
1.6900391304460456
 21
25.105454038071297
 31
5.684341886080802e-14
  0
LINE
  5
42
330
17
100
AcDbEntity
  8
0
100
AcDbLine
 10
1.6900391304460456
 20
25.105454038071297
 30
5.684341886080802e-14
 11
1.6112081862382102
 21
24.9887712786601
 31
5.684341886080802e-14
  0
LINE
  5
43
330
17
100
AcDbEntity
  8
0
100
AcDbLine
 10
1.6112081862382102
 20
24.9887712786601
 30
5.684341886080802e-14
 11
1.5718613575222538
 21
24.929761861364074
 31
5.684341886080802e-14
  0
LINE
  5
44
330
17
100
AcDbEntity
  8
0
100
AcDbLine
 10
1.5718613575222538
 20
24.929761861364074
 30
5.684341886080802e-14
 11
1.5320946525667125
 21
24.869597283250215
 31
5.684341886080802e-14
  0
LINE
  5
45
330
17
100
AcDbEntity
  8
0
100
AcDbLine
 10
1.5320946525667125
 20
24.869597283250215
 30
5.684341886080802e-14
 11
1.4921216565921416
 21
24.80858700265618
 31
5.684341886080802e-14
  0
LINE
  5
46
330
17
100
AcDbEntity
  8
0
100
AcDbLine
 10
1.4921216565921416
 20
24.80858700265618
 30
5.684341886080802e-14
 11
1.4521476045107793
 21
24.747036620733084
 31
5.684341886080802e-14
  0
LINE
  5
47
330
17
100
AcDbEntity
  8
0
100
AcDbLine
 10
1.4521476045107793
 20
24.747036620733084
 30
5.684341886080802e-14
 11
1.3708549078911059
 21
24.620207893723606
 31
5.684341886080802e-14
  0
LINE
  5
48
330
17
100
AcDbEntity
  8
0
100
AcDbLine
 10
1.3708549078911059
 20
24.620207893723606
 30
5.684341886080802e-14
 11
1.2885391453598434
 21
24.48951219052961
 31
5.684341886080802e-14
  0
LINE
  5
49
330
17
100
AcDbEntity
  8
0
100
AcDbLine
 10
1.2885391453598434
 20
24.48951219052961
 30
5.684341886080802e-14
 11
1.2538197156007769
 21
24.43369090560203
 31
5.684341886080802e-14
  0
LINE
  5
4A
330
17
100
AcDbEntity
  8
0
100
AcDbLine
 10
1.2538197156007769
 20
24.43369090560203
 30
5.684341886080802e-14
 11
1.21866588209447
 21
24.376738075293247
 31
5.684341886080802e-14
  0
LINE
  5
4B
330
17
100
AcDbEntity
  8
0
100
AcDbLine
 10
1.21866588209447
 20
24.376738075293247
 30
5.684341886080802e-14
 11
1.1833146642228396
 21
24.31902258686451
 31
5.684341886080802e-14
  0
LINE
  5
4C
330
17
100
AcDbEntity
  8
0
100
AcDbLine
 10
1.1833146642228396
 20
24.31902258686451
 30
5.684341886080802e-14
 11
1.147948982465385
 21
24.2608335237899
 31
5.684341886080802e-14
  0
LINE
  5
4D
330
17
100
AcDbEntity
  8
0
100
AcDbLine
 10
1.147948982465385
 20
24.2608335237899
 30
5.684341886080802e-14
 11
1.0760853545224425
 21
24.14118868395263
 31
5.684341886080802e-14
  0
LINE
  5
4E
330
17
100
AcDbEntity
  8
0
100
AcDbLine
 10
1.0760853545224425
 20
24.14118868395263
 30
5.684341886080802e-14
 11
1.0036124900740457
 21
24.018596544473628
 31
5.684341886080802e-14
  0
LINE
  5
4F
330
17
100
AcDbEntity
  8
0
100
AcDbLine
 10
1.0036124900740457
 20
24.018596544473628
 30
5.684341886080802e-14
 11
0.9303513728601427
 21
23.89265570811474
 31
5.684341886080802e-14
  0
LINE
  5
50
330
17
100
AcDbEntity
  8
0
100
AcDbLine
 10
0.9303513728601427
 20
23.89265570811474
 30
5.684341886080802e-14
 11
0.8561200297502811
 21
23.762944867901865
 31
5.684341886080802e-14
  0
LINE
  5
51
330
17
100
AcDbEntity
  8
0
100
AcDbLine
 10
0.8561200297502811
 20
23.762944867901865
 30
5.684341886080802e-14
 11
0.8189688372135979
 21
23.697222263076156
 31
5.684341886080802e-14
  0
LINE
  5
52
330
17
100
AcDbEntity
  8
0
100
AcDbLine
 10
0.8189688372135979
 20
23.697222263076156
 30
5.684341886080802e-14
 11
0.7814461806968556
 21
23.630290430354634
 31
5.684341886080802e-14
  0
LINE
  5
53
330
17
100
AcDbEntity
  8
0
100
AcDbLine
 10
0.7814461806968556
 20
23.630290430354634
 30
5.684341886080802e-14
 11
0.7437254509572906
 21
23.562443930902404
 31
5.684341886080802e-14
  0
LINE
  5
54
330
17
100
AcDbEntity
  8
0
100
AcDbLine
 10
0.7437254509572906
 20
23.562443930902404
 30
5.684341886080802e-14
 11
0.7058989703175822
 21
23.493837641335226
 31
5.684341886080802e-14
  0
LINE
  5
55
330
17
100
AcDbEntity
  8
0
100
AcDbLine
 10
0.7058989703175822
 20
23.493837641335226
 30
5.684341886080802e-14
 11
0.6470025100792256
 21
23.385875530296673
 31
5.684341886080802e-14
  0
LINE
  5
56
330
17
100
AcDbEntity
  8
0
100
AcDbLine
 10
0.6470025100792256
 20
23.385875530296673
 30
5.684341886080802e-14
 11
0.5877289363095084
 21
23.275806453224035
 31
5.684341886080802e-14
  0
LINE
  5
57
330
17
100
AcDbEntity
  8
0
100
AcDbLine
 10
0.5877289363095084
 20
23.275806453224035
 30
5.684341886080802e-14
 11
0.5279875677744226
 21
23.1634179024633
 31
5.684341886080802e-14
  0
LINE
  5
58
330
17
100
AcDbEntity
  8
0
100
AcDbLine
 10
0.5279875677744226
 20
23.1634179024633
 30
5.684341886080802e-14
 11
0.46777867484970237
 21
23.04866335973312
 31
5.684341886080802e-14
  0
LINE
  5
59
330
17
100
AcDbEntity
  8
0
100
AcDbLine
 10
0.46777867484970237
 20
23.04866335973312
 30
5.684341886080802e-14
 11
0.40710293237106754
 21
22.931497401374713
 31
5.684341886080802e-14
  0
LINE
  5
5A
330
17
100
AcDbEntity
  8
0
100
AcDbLine
 10
0.40710293237106754
 20
22.931497401374713
 30
5.684341886080802e-14
 11
0.34596098710873413
 21
22.81187430632371
 31
5.684341886080802e-14
  0
LINE
  5
5B
330
17
100
AcDbEntity
  8
0
100
AcDbLine
 10
0.34596098710873413
 20
22.81187430632371
 30
5.684341886080802e-14
 11
0.28435361079412225
 21
22.689748614997796
 31
5.684341886080802e-14
  0
LINE
  5
5C
330
17
100
AcDbEntity
  8
0
100
AcDbLine
 10
0.28435361079412225
 20
22.689748614997796
 30
5.684341886080802e-14
 11
0.22228162127039575
 21
22.565074871260656
 31
5.684341886080802e-14
  0
LINE
  5
5D
330
17
100
AcDbEntity
  8
0
100
AcDbLine
 10
0.22228162127039575
 20
22.565074871260656
 30
5.684341886080802e-14
 11
0.15974591227079848
 21
22.437807736114202
 31
5.684341886080802e-14
  0
LINE
  5
5E
330
17
100
AcDbEntity
  8
0
100
AcDbLine
 10
0.15974591227079848
 20
22.437807736114202
 30
5.684341886080802e-14
 11
0.09674743276945996
 21
22.307901932492086
 31
5.684341886080802e-14
  0
LINE
  5
5F
330
17
100
AcDbEntity
  8
0
100
AcDbLine
 10
0.09674743276945996
 20
22.307901932492086
 30
5.684341886080802e-14
 11
0.03328718888467286
 21
22.17531226364178
 31
5.684341886080802e-14
  0
LINE
  5
60
330
17
100
AcDbEntity
  8
0
100
AcDbLine
 10
0.03328718888467286
 20
22.17531226364178
 30
5.684341886080802e-14
 11
-0.030633761328042297
 21
22.039993606084977
 31
5.684341886080802e-14
  0
LINE
  5
61
330
17
100
AcDbEntity
  8
0
100
AcDbLine
 10
-0.030633761328042297
 20
22.039993606084977
 30
5.684341886080802e-14
 11
-0.095014316468097
 21
21.901900895842317
 31
5.684341886080802e-14
  0
LINE
  5
62
330
17
100
AcDbEntity
  8
0
100
AcDbLine
 10
-0.095014316468097
 20
21.901900895842317
 30
5.684341886080802e-14
 11
-0.15985332307510625
 21
21.76098915838613
 31
5.684341886080802e-14
  0
LINE
  5
63
330
17
100
AcDbEntity
  8
0
100
AcDbLine
 10
-0.15985332307510625
 20
21.76098915838613
 30
5.684341886080802e-14
 11
-0.22514960868380562
 21
21.617213428658637
 31
5.684341886080802e-14
  0
LINE
  5
64
330
17
100
AcDbEntity
  8
0
100
AcDbLine
 10
-0.22514960868380562
 20
21.617213428658637
 30
5.684341886080802e-14
 11
-0.29090192015760685
 21
21.470528920626926
 31
5.684341886080802e-14
  0
LINE
  5
65
330
17
100
AcDbEntity
  8
0
100
AcDbLine
 10
-0.29090192015760685
 20
21.470528920626926
 30
5.684341886080802e-14
 11
-0.3571090711528182
 21
21.320890641593863
 31
5.684341886080802e-14
  0
LINE
  5
66
330
17
100
AcDbEntity
  8
0
100
AcDbLine
 10
-0.3571090711528182
 20
21.320890641593863
 30
5.684341886080802e-14
 11
-0.42376962893680137
 21
21.168254233492362
 31
5.684341886080802e-14
  0
LINE
  5
67
330
17
100
AcDbEntity
  8
0
100
AcDbLine
 10
-0.42376962893680137
 20
21.168254233492362
 30
5.684341886080802e-14
 11
-0.4908825702967814
 21
21.012574211701647
 31
5.684341886080802e-14
  0
LINE
  5
68
330
17
100
AcDbEntity
  8
0
100
AcDbLine
 10
-0.4908825702967814
 20
21.012574211701647
 30
5.684341886080802e-14
 11
-0.5585366085605745
 21
20.85359440882
 31
5.684341886080802e-14
  0
LINE
  5
69
330
17
100
AcDbEntity
  8
0
100
AcDbLine
 10
-0.5585366085605745
 20
20.85359440882
 30
5.684341886080802e-14
 11
-0.5923986083904484
 21
20.77324815127959
 31
5.684341886080802e-14
  0
LINE
  5
6A
330
17
100
AcDbEntity
  8
0
100
AcDbLine
 10
-0.5923986083904484
 20
20.77324815127959
 30
5.684341886080802e-14
 11
-0.626375122603207
 21
20.692109101288302
 31
5.684341886080802e-14
  0
LINE
  5
6B
330
17
100
AcDbEntity
  8
0
100
AcDbLine
 10
-0.626375122603207
 20
20.692109101288302
 30
5.684341886080802e-14
 11
-0.6949244078813646
 21
20.526820266071176
 31
5.684341886080802e-14
  0
LINE
  5
6C
330
17
100
AcDbEntity
  8
0
100
AcDbLine
 10
-0.6949244078813646
 20
20.526820266071176
 30
5.684341886080802e-14
 11
-0.7638325685160172
 21
20.358521823768683
 31
5.684341886080802e-14
  0
LINE
  5
6D
330
17
100
AcDbEntity
  8
0
100
AcDbLine
 10
-0.7638325685160172
 20
20.358521823768683
 30
5.684341886080802e-14
 11
-0.8331858187943109
 21
20.186958124489443
 31
5.684341886080802e-14
  0
LINE
  5
6E
330
17
100
AcDbEntity
  8
0
100
AcDbLine
 10
-0.8331858187943109
 20
20.186958124489443
 30
5.684341886080802e-14
 11
-0.9029832179199015
 21
20.01208342655613
 31
5.684341886080802e-14
  0
LINE
  5
6F
330
17
100
AcDbEntity
  8
0
100
AcDbLine
 10
-0.9029832179199015
 20
20.01208342655613
 30
5.684341886080802e-14
 11
-0.9732227911547291
 21
19.83385480179352
 31
5.684341886080802e-14
  0
LINE
  5
70
330
17
100
AcDbEntity
  8
0
100
AcDbLine
 10
-0.9732227911547291
 20
19.83385480179352
 30
5.684341886080802e-14
 11
-1.0439040354804412
 21
19.652225343992214
 31
5.684341886080802e-14
  0
LINE
  5
71
330
17
100
AcDbEntity
  8
0
100
AcDbLine
 10
-1.0439040354804412
 20
19.652225343992214
 30
5.684341886080802e-14
 11
-1.115136740168861
 21
19.466861326442128
 31
5.684341886080802e-14
  0
LINE
  5
72
330
17
100
AcDbEntity
  8
0
100
AcDbLine
 10
-1.115136740168861
 20
19.466861326442128
 30
5.684341886080802e-14
 11
-1.1328750490990842
 21
19.420339280911286
 31
5.684341886080802e-14
  0
LINE
  5
73
330
17
100
AcDbEntity
  8
0
100
AcDbLine
 10
-1.1328750490990842
 20
19.420339280911286
 30
5.684341886080802e-14
 11
-1.1507148283126973
 21
19.373404526388185
 31
5.684341886080802e-14
  0
LINE
  5
74
330
17
100
AcDbEntity
  8
0
100
AcDbLine
 10
-1.1507148283126973
 20
19.373404526388185
 30
5.684341886080802e-14
 11
-1.1865208181384652
 21
19.278759593708926
 31
5.684341886080802e-14
  0
LINE
  5
75
330
17
100
AcDbEntity
  8
0
100
AcDbLine
 10
-1.1865208181384652
 20
19.278759593708926
 30
5.684341886080802e-14
 11
-1.2585636870637558
 21
19.086540798834335
 31
5.684341886080802e-14
  0
LINE
  5
76
330
17
100
AcDbEntity
  8
0
100
AcDbLine
 10
-1.2585636870637558
 20
19.086540798834335
 30
5.684341886080802e-14
 11
-1.331025838774373
 21
18.89078827018607
 31
5.684341886080802e-14
  0
LINE
  5
77
330
17
100
AcDbEntity
  8
0
100
AcDbLine
 10
-1.331025838774373
 20
18.89078827018607
 30
5.684341886080802e-14
 11
-1.4043230309166255
 21
18.690342551576897
 31
5.684341886080802e-14
  0
LINE
  5
78
330
17
100
AcDbEntity
  8
0
100
AcDbLine
 10
-1.4043230309166255
 20
18.690342551576897
 30
5.684341886080802e-14
 11
-1.4645115850544599
 21
18.52405859330129
 31
5.684341886080802e-14
  0
LINE
  5
79
330
17
100
AcDbEntity
  8
0
100
AcDbLine
 10
-1.4645115850544599
 20
18.52405859330129
 30
5.684341886080802e-14
 11
-1.492662017235002
 21
18.44427467996612
 31
5.684341886080802e-14
  0
LINE
  5
7A
330
17
100
AcDbEntity
  8
0
100
AcDbLine
 10
-1.492662017235002
 20
18.44427467996612
 30
5.684341886080802e-14
 11
-1.5515400365770269
 21
18.27664764159453
 31
5.684341886080802e-14
  0
LINE
  5
7B
330
17
100
AcDbEntity
  8
0
100
AcDbLine
 10
-1.5515400365770269
 20
18.27664764159453
 30
5.684341886080802e-14
 11
-1.551850031936464
 21
18.275759392134866
 31
5.684341886080802e-14
  0
LINE
  5
7C
330
17
100
AcDbEntity
  8
0
100
AcDbLine
 10
-1.551850031936464
 20
18.275759392134866
 30
5.684341886080802e-14
 11
-1.553206806885111
 21
18.271873555084376
 31
5.684341886080802e-14
  0
LINE
  5
7D
330
17
100
AcDbEntity
  8
0
100
AcDbLine
 10
-1.553206806885111
 20
18.271873555084376
 30
5.684341886080802e-14
 11
-1.554539435950776
 21
18.268056167421385
 31
5.684341886080802e-14
  0
LINE
  5
7E
330
17
100
AcDbEntity
  8
0
100
AcDbLine
 10
-1.554539435950776
 20
18.268056167421385
 30
5.684341886080802e-14
 11
-1.5567652645371162
 21
18.261678557061096
 31
5.684341886080802e-14
  0
LINE
  5
7F
330
17
100
AcDbEntity
  8
0
100
AcDbLine
 10
-1.5567652645371162
 20
18.261678557061096
 30
5.684341886080802e-14
 11
-1.5585444074640797
 21
18.256579386177364
 31
5.684341886080802e-14
  0
LINE
  5
80
330
17
100
AcDbEntity
  8
0
100
AcDbLine
 10
-1.5585444074640797
 20
18.256579386177364
 30
5.684341886080802e-14
 11
-1.5603247482024187
 21
18.251475501005118
 31
5.684341886080802e-14
  0
LINE
  5
81
330
17
100
AcDbEntity
  8
0
100
AcDbLine
 10
-1.5603247482024187
 20
18.251475501005118
 30
5.684341886080802e-14
 11
-1.5621056570078444
 21
18.246368702501506
 31
5.684341886080802e-14
  0
LINE
  5
82
330
17
100
AcDbEntity
  8
0
100
AcDbLine
 10
-1.5621056570078444
 20
18.246368702501506
 30
5.684341886080802e-14
 11
-1.5638871546122814
 21
18.241258933865858
 31
5.684341886080802e-14
  0
LINE
  5
83
330
17
100
AcDbEntity
  8
0
100
AcDbLine
 10
-1.5638871546122814
 20
18.241258933865858
 30
5.684341886080802e-14
 11
-1.565666612162282
 21
18.236153733499023
 31
5.684341886080802e-14
  0
LINE
  5
84
330
17
100
AcDbEntity
  8
0
100
AcDbLine
 10
-1.565666612162282
 20
18.236153733499023
 30
5.684341886080802e-14
 11
-1.5692349072052103
 21
18.225912544934467
 31
5.684341886080802e-14
  0
LINE
  5
85
330
17
100
AcDbEntity
  8
0
100
AcDbLine
 10
-1.5692349072052103
 20
18.225912544934467
 30
5.684341886080802e-14
 11
-1.5727977249044471
 21
18.21568192556188
 31
5.684341886080802e-14
  0
LINE
  5
86
330
17
100
AcDbEntity
  8
0
100
AcDbLine
 10
-1.5727977249044471
 20
18.21568192556188
 30
5.684341886080802e-14
 11
-1.5799454288320511
 21
18.19514175370687
 31
5.684341886080802e-14
  0
LINE
  5
87
330
17
100
AcDbEntity
  8
0
100
AcDbLine
 10
-1.5799454288320511
 20
18.19514175370687
 30
5.684341886080802e-14
 11
-1.5870969587724808
 21
18.174569824469465
 31
5.684341886080802e-14
  0
LINE
  5
88
330
17
100
AcDbEntity
  8
0
100
AcDbLine
 10
-1.5870969587724808
 20
18.174569824469465
 30
5.684341886080802e-14
 11
-1.5942625084030588
 21
18.15393669657891
 31
5.684341886080802e-14
  0
LINE
  5
89
330
17
100
AcDbEntity
  8
0
100
AcDbLine
 10
-1.5942625084030588
 20
18.15393669657891
 30
5.684341886080802e-14
 11
-1.5978409509373108
 21
18.143624790775924
 31
5.684341886080802e-14
  0
LINE
  5
8A
330
17
100
AcDbEntity
  8
0
100
AcDbLine
 10
-1.5978409509373108
 20
18.143624790775924
 30
5.684341886080802e-14
 11
-1.6014292912615709
 21
18.133279116455547
 31
5.684341886080802e-14
  0
LINE
  5
8B
330
17
100
AcDbEntity
  8
0
100
AcDbLine
 10
-1.6014292912615709
 20
18.133279116455547
 30
5.684341886080802e-14
 11
-1.603220446284766
 21
18.128113011682558
 31
5.684341886080802e-14
  0
LINE
  5
8C
330
17
100
AcDbEntity
  8
0
100
AcDbLine
 10
-1.603220446284766
 20
18.128113011682558
 30
5.684341886080802e-14
 11
-1.605014695487057
 21
18.12293666627052
 31
5.684341886080802e-14
  0
LINE
  5
8D
330
17
100
AcDbEntity
  8
0
100
AcDbLine
 10
-1.605014695487057
 20
18.12293666627052
 30
5.684341886080802e-14
 11
-1.6068094796824468
 21
18.11775746366076
 31
5.684341886080802e-14
  0
LINE
  5
8E
330
17
100
AcDbEntity
  8
0
100
AcDbLine
 10
-1.6068094796824468
 20
18.11775746366076
 30
5.684341886080802e-14
 11
-1.6085866305275793
 21
18.11262783586337
 31
5.684341886080802e-14
  0
LINE
  5
8F
330
17
100
AcDbEntity
  8
0
100
AcDbLine
 10
-1.6085866305275793
 20
18.11262783586337
 30
5.684341886080802e-14
 11
-1.6229856375407437
 21
18.071018209734348
 31
5.684341886080802e-14
  0
LINE
  5
90
330
17
100
AcDbEntity
  8
0
100
AcDbLine
 10
-1.6229856375407437
 20
18.071018209734348
 30
5.684341886080802e-14
 11
-1.6374110928526875
 21
18.029246934925666
 31
5.684341886080802e-14
  0
LINE
  5
91
330
17
100
AcDbEntity
  8
0
100
AcDbLine
 10
-1.6374110928526875
 20
18.029246934925666
 30
5.684341886080802e-14
 11
-1.644621187027198
 21
18.008336890151497
 31
5.684341886080802e-14
  0
LINE
  5
92
330
17
100
AcDbEntity
  8
0
100
AcDbLine
 10
-1.644621187027198
 20
18.008336890151497
 30
5.684341886080802e-14
 11
-1.6518498132563337
 21
17.987351578152463
 31
5.684341886080802e-14
  0
LINE
  5
93
330
17
100
AcDbEntity
  8
0
100
AcDbLine
 10
-1.6518498132563337
 20
17.987351578152463
 30
5.684341886080802e-14
 11
-1.6590866315857475
 21
17.96632086752458
 31
5.684341886080802e-14
  0
LINE
  5
94
330
17
100
AcDbEntity
  8
0
100
AcDbLine
 10
-1.6590866315857475
 20
17.96632086752458
 30
5.684341886080802e-14
 11
-1.6663212018180253
 21
17.945275024064195
 31
5.684341886080802e-14
  0
LINE
  5
95
330
17
100
AcDbEntity
  8
0
100
AcDbLine
 10
-1.6663212018180253
 20
17.945275024064195
 30
5.684341886080802e-14
 11
-1.6808553499684216
 21
17.90292854863356
 31
5.684341886080802e-14
  0
LINE
  5
96
330
17
100
AcDbEntity
  8
0
100
AcDbLine
 10
-1.6808553499684216
 20
17.90292854863356
 30
5.684341886080802e-14
 11
-1.6881140545778095
 21
17.881746918427616
 31
5.684341886080802e-14
  0
LINE
  5
97
330
17
100
AcDbEntity
  8
0
100
AcDbLine
 10
-1.6881140545778095
 20
17.881746918427616
 30
5.684341886080802e-14
 11
-1.6953596004959408
 21
17.86058174159109
 31
5.684341886080802e-14
  0
LINE
  5
98
330
17
100
AcDbEntity
  8
0
100
AcDbLine
 10
-1.6953596004959408
 20
17.86058174159109
 30
5.684341886080802e-14
 11
-1.7246025572428358
 21
17.77493578647072
 31
5.684341886080802e-14
  0
LINE
  5
99
330
17
100
AcDbEntity
  8
0
100
AcDbLine
 10
-1.7246025572428358
 20
17.77493578647072
 30
5.684341886080802e-14
 11
-1.7318868543717016
 21
17.753546231735413
 31
5.684341886080802e-14
  0
LINE
  5
9A
330
17
100
AcDbEntity
  8
0
100
AcDbLine
 10
-1.7318868543717016
 20
17.753546231735413
 30
5.684341886080802e-14
 11
-1.7392091937195637
 21
17.7320224424169
 31
5.684341886080802e-14
  0
LINE
  5
9B
330
17
100
AcDbEntity
  8
0
100
AcDbLine
 10
-1.7392091937195637
 20
17.7320224424169
 30
5.684341886080802e-14
 11
-1.7465466994469914
 21
17.710431456307084
 31
5.684341886080802e-14
  0
LINE
  5
9C
330
17
100
AcDbEntity
  8
0
100
AcDbLine
 10
-1.7465466994469914
 20
17.710431456307084
 30
5.684341886080802e-14
 11
-1.74837261131103
 21
17.705055097347767
 31
5.684341886080802e-14
  0
LINE
  5
9D
330
17
100
AcDbEntity
  8
0
100
AcDbLine
 10
-1.74837261131103
 20
17.705055097347767
 30
5.684341886080802e-14
 11
-1.7502040618646681
 21
17.699661012541895
 31
5.684341886080802e-14
  0
LINE
  5
9E
330
17
100
AcDbEntity
  8
0
100
AcDbLine
 10
-1.7502040618646681
 20
17.699661012541895
 30
5.684341886080802e-14
 11
-1.7538604812397836
 21
17.6888876714754
 31
5.684341886080802e-14
  0
LINE
  5
9F
330
17
100
AcDbEntity
  8
0
100
AcDbLine
 10
-1.7538604812397836
 20
17.6888876714754
 30
5.684341886080802e-14
 11
-1.7685707360971357
 21
17.645487818005627
 31
5.684341886080802e-14
  0
LINE
  5
A0
330
17
100
AcDbEntity
  8
0
100
AcDbLine
 10
-1.7685707360971357
 20
17.645487818005627
 30
5.684341886080802e-14
 11
-1.7832311166293628
 21
17.602143578031573
 31
5.684341886080802e-14
  0
LINE
  5
A1
330
17
100
AcDbEntity
  8
0
100
AcDbLine
 10
-1.7832311166293628
 20
17.602143578031573
 30
5.684341886080802e-14
 11
-1.8424444505293351
 21
17.4261394425245
 31
5.684341886080802e-14
  0
LINE
  5
A2
330
17
100
AcDbEntity
  8
0
100
AcDbLine
 10
-1.8424444505293351
 20
17.4261394425245
 30
5.684341886080802e-14
 11
-1.9020414011283293
 21
17.247469288045473
 31
5.684341886080802e-14
  0
LINE
  5
A3
330
17
100
AcDbEntity
  8
0
100
AcDbLine
 10
-1.9020414011283293
 20
17.247469288045473
 30
5.684341886080802e-14
 11
-1.9319411759449707
 21
17.157248018816993
 31
5.684341886080802e-14
  0
LINE
  5
A4
330
17
100
AcDbEntity
  8
0
100
AcDbLine
 10
-1.9319411759449707
 20
17.157248018816993
 30
5.684341886080802e-14
 11
-1.9469245263979893
 21
17.111888812222375
 31
5.684341886080802e-14
  0
LINE
  5
A5
330
17
100
AcDbEntity
  8
0
100
AcDbLine
 10
-1.9469245263979893
 20
17.111888812222375
 30
5.684341886080802e-14
 11
-1.9544191218781002
 21
17.089163231090417
 31
5.684341886080802e-14
  0
LINE
  5
A6
330
17
100
AcDbEntity
  8
0
100
AcDbLine
 10
-1.9544191218781002
 20
17.089163231090417
 30
5.684341886080802e-14
 11
-1.9618981421234452
 21
17.066460021149233
 31
5.684341886080802e-14
  0
LINE
  5
A7
330
17
100
AcDbEntity
  8
0
100
AcDbLine
 10
-1.9618981421234452
 20
17.066460021149233
 30
5.684341886080802e-14
 11
-1.9920156813152694
 21
16.974783375026753
 31
5.684341886080802e-14
  0
LINE
  5
A8
330
17
100
AcDbEntity
  8
0
100
AcDbLine
 10
-1.9920156813152694
 20
16.974783375026753
 30
5.684341886080802e-14
 11
-2.0221795032850984
 21
16.882560262647253
 31
5.684341886080802e-14
  0
LINE
  5
A9
330
17
100
AcDbEntity
  8
0
100
AcDbLine
 10
-2.0221795032850984
 20
16.882560262647253
 30
5.684341886080802e-14
 11
-2.0524503122705937
 21
16.78959899030997
 31
5.684341886080802e-14
  0
LINE
  5
AA
330
17
100
AcDbEntity
  8
0
100
AcDbLine
 10
-2.0524503122705937
 20
16.78959899030997
 30
5.684341886080802e-14
 11
-2.0561996616186846
 21
16.77805608989523
 31
5.684341886080802e-14
  0
LINE
  5
AB
330
17
100
AcDbEntity
  8
0
100
AcDbLine
 10
-2.0561996616186846
 20
16.77805608989523
 30
5.684341886080802e-14
 11
-2.0599801382859866
 21
16.76641089664713
 31
5.684341886080802e-14
  0
LINE
  5
AC
330
17
100
AcDbEntity
  8
0
100
AcDbLine
 10
-2.0599801382859866
 20
16.76641089664713
 30
5.684341886080802e-14
 11
-2.0675591753100093
 21
16.743045251214447
 31
5.684341886080802e-14
  0
LINE
  5
AD
330
17
100
AcDbEntity
  8
0
100
AcDbLine
 10
-2.0675591753100093
 20
16.743045251214447
 30
5.684341886080802e-14
 11
-2.0751371182975653
 21
16.719656866803263
 31
5.684341886080802e-14
  0
LINE
  5
AE
330
17
100
AcDbEntity
  8
0
100
AcDbLine
 10
-2.0751371182975653
 20
16.719656866803263
 30
5.684341886080802e-14
 11
-2.082688484403082
 21
16.6963244403931
 31
5.684341886080802e-14
  0
LINE
  5
AF
330
17
100
AcDbEntity
  8
0
100
AcDbLine
 10
-2.082688484403082
 20
16.6963244403931
 30
5.684341886080802e-14
 11
-2.1131018929250374
 21
16.60208766051501
 31
5.684341886080802e-14
  0
LINE
  5
B0
330
17
100
AcDbEntity
  8
0
100
AcDbLine
 10
-2.1131018929250374
 20
16.60208766051501
 30
5.684341886080802e-14
 11
-2.128285730679316
 21
16.55488172065234
 31
5.684341886080802e-14
  0
LINE
  5
B1
330
17
100
AcDbEntity
  8
0
100
AcDbLine
 10
-2.128285730679316
 20
16.55488172065234
 30
5.684341886080802e-14
 11
-2.1434826974281798
 21
16.5075283474133
 31
5.684341886080802e-14
  0
LINE
  5
B2
330
17
100
AcDbEntity
  8
0
100
AcDbLine
 10
-2.1434826974281798
 20
16.5075283474133
 30
5.684341886080802e-14
 11
-2.173973732098368
 21
16.41219569453851
 31
5.684341886080802e-14
  0
LINE
  5
B3
330
17
100
AcDbEntity
  8
0
100
AcDbLine
 10
-2.173973732098368
 20
16.41219569453851
 30
5.684341886080802e-14
 11
-2.204491329049443
 21
16.316346068048958
 31
5.684341886080802e-14
  0
LINE
  5
B4
330
17
100
AcDbEntity
  8
0
100
AcDbLine
 10
-2.204491329049443
 20
16.316346068048958
 30
5.684341886080802e-14
 11
-2.2350502579740557
 21
16.21992819207786
 31
5.684341886080802e-14
  0
LINE
  5
B5
330
17
100
AcDbEntity
  8
0
100
AcDbLine
 10
-2.2350502579740557
 20
16.21992819207786
 30
5.684341886080802e-14
 11
-2.26564553604333
 21
16.12295281832177
 31
5.684341886080802e-14
  0
LINE
  5
B6
330
17
100
AcDbEntity
  8
0
100
AcDbLine
 10
-2.26564553604333
 20
16.12295281832177
 30
5.684341886080802e-14
 11
-2.29627206829489
 21
16.025431220646873
 31
5.684341886080802e-14
  0
LINE
  5
B7
330
17
100
AcDbEntity
  8
0
100
AcDbLine
 10
-2.29627206829489
 20
16.025431220646873
 30
5.684341886080802e-14
 11
-2.3269247585854664
 21
15.927374887952283
 31
5.684341886080802e-14
  0
LINE
  5
B8
330
17
100
AcDbEntity
  8
0
100
AcDbLine
 10
-2.3269247585854664
 20
15.927374887952283
 30
5.684341886080802e-14
 11
-2.357598600663472
 21
15.828795321228924
 31
5.684341886080802e-14
  0
LINE
  5
B9
330
17
100
AcDbEntity
  8
0
100
AcDbLine
 10
-2.357598600663472
 20
15.828795321228924
 30
5.684341886080802e-14
 11
-2.388283234059884
 21
15.729721341168641
 31
5.684341886080802e-14
  0
LINE
  5
BA
330
17
100
AcDbEntity
  8
0
100
AcDbLine
 10
-2.388283234059884
 20
15.729721341168641
 30
5.684341886080802e-14
 11
-2.4229648766179217
 21
15.617183892932992
 31
5.684341886080802e-14
  0
LINE
  5
BB
330
17
100
AcDbEntity
  8
0
100
AcDbLine
 10
-2.4229648766179217
 20
15.617183892932992
 30
5.684341886080802e-14
 11
-2.4576481307878986
 21
15.50404437825663
 31
5.684341886080802e-14
  0
LINE
  5
BC
330
17
100
AcDbEntity
  8
0
100
AcDbLine
 10
-2.4576481307878986
 20
15.50404437825663
 30
5.684341886080802e-14
 11
-2.4923303536865085
 21
15.390305709687865
 31
5.684341886080802e-14
  0
LINE
  5
BD
330
17
100
AcDbEntity
  8
0
100
AcDbLine
 10
-2.4923303536865085
 20
15.390305709687865
 30
5.684341886080802e-14
 11
-2.5270043569072165
 21
15.275986204628168
 31
5.684341886080802e-14
  0
LINE
  5
BE
330
17
100
AcDbEntity
  8
0
100
AcDbLine
 10
-2.5270043569072165
 20
15.275986204628168
 30
5.684341886080802e-14
 11
-2.5616626990616425
 21
15.161105267776882
 31
5.684341886080802e-14
  0
LINE
  5
BF
330
17
100
AcDbEntity
  8
0
100
AcDbLine
 10
-2.5616626990616425
 20
15.161105267776882
 30
5.684341886080802e-14
 11
-2.5962980894138177
 21
15.045682324834551
 31
5.684341886080802e-14
  0
LINE
  5
C0
330
17
100
AcDbEntity
  8
0
100
AcDbLine
 10
-2.5962980894138177
 20
15.045682324834551
 30
5.684341886080802e-14
 11
-2.6309031071220907
 21
14.929737569048264
 31
5.684341886080802e-14
  0
LINE
  5
C1
330
17
100
AcDbEntity
  8
0
100
AcDbLine
 10
-2.6309031071220907
 20
14.929737569048264
 30
5.684341886080802e-14
 11
-2.6654280976938125
 21
14.813433894995377
 31
5.684341886080802e-14
  0
LINE
  5
C2
330
17
100
AcDbEntity
  8
0
100
AcDbLine
 10
-2.6654280976938125
 20
14.813433894995377
 30
5.684341886080802e-14
 11
-2.734457214083612
 21
14.578991896959856
 31
5.684341886080802e-14
  0
LINE
  5
C3
330
17
100
AcDbEntity
  8
0
100
AcDbLine
 10
-2.734457214083612
 20
14.578991896959856
 30
5.684341886080802e-14
 11
-2.8032066707297965
 21
14.342938976536722
 31
5.684341886080802e-14
  0
LINE
  5
C4
330
17
100
AcDbEntity
  8
0
100
AcDbLine
 10
-2.8032066707297965
 20
14.342938976536722
 30
5.684341886080802e-14
 11
-2.8716599278073502
 21
14.105311759308869
 31
5.684341886080802e-14
  0
LINE
  5
C5
330
17
100
AcDbEntity
  8
0
100
AcDbLine
 10
-2.8716599278073502
 20
14.105311759308869
 30
5.684341886080802e-14
 11
-2.9397993932438773
 21
13.866153620826154
 31
5.684341886080802e-14
  0
LINE
  5
C6
330
17
100
AcDbEntity
  8
0
100
AcDbLine
 10
-2.9397993932438773
 20
13.866153620826154
 30
5.684341886080802e-14
 11
-2.9736615198075924
 21
13.746315616827502
 31
5.684341886080802e-14
  0
LINE
  5
C7
330
17
100
AcDbEntity
  8
0
100
AcDbLine
 10
-2.9736615198075924
 20
13.746315616827502
 30
5.684341886080802e-14
 11
-3.0074532515656927
 21
13.626062297300287
 31
5.684341886080802e-14
  0
LINE
  5
C8
330
17
100
AcDbEntity
  8
0
100
AcDbLine
 10
-3.0074532515656927
 20
13.626062297300287
 30
5.684341886080802e-14
 11
-3.0411281476304346
 21
13.50555767703247
 31
5.684341886080802e-14
  0
LINE
  5
C9
330
17
100
AcDbEntity
  8
0
100
AcDbLine
 10
-3.0411281476304346
 20
13.50555767703247
 30
5.684341886080802e-14
 11
-3.0746791780027607
 21
13.384826864027467
 31
5.684341886080802e-14
  0
LINE
  5
CA
330
17
100
AcDbEntity
  8
0
100
AcDbLine
 10
-3.0746791780027607
 20
13.384826864027467
 30
5.684341886080802e-14
 11
-3.108099647140424
 21
13.263894544670478
 31
5.684341886080802e-14
  0
LINE
  5
CB
330
17
100
AcDbEntity
  8
0
100
AcDbLine
 10
-3.108099647140424
 20
13.263894544670478
 30
5.684341886080802e-14
 11
-3.141411345623215
 21
13.142682614213534
 31
5.684341886080802e-14
  0
LINE
  5
CC
330
17
100
AcDbEntity
  8
0
100
AcDbLine
 10
-3.141411345623215
 20
13.142682614213534
 30
5.684341886080802e-14
 11
-3.1496865670623464
 21
13.112466319401072
 31
5.684341886080802e-14
  0
LINE
  5
CD
330
17
100
AcDbEntity
  8
0
100
AcDbLine
 10
-3.1496865670623464
 20
13.112466319401072
 30
5.684341886080802e-14
 11
-3.1538278885660347
 21
13.097328858517805
 31
5.684341886080802e-14
  0
LINE
  5
CE
330
17
100
AcDbEntity
  8
0
100
AcDbLine
 10
-3.1538278885660347
 20
13.097328858517805
 30
5.684341886080802e-14
 11
-3.1579574140067663
 21
13.082223959155549
 31
5.684341886080802e-14
  0
LINE
  5
CF
330
17
100
AcDbEntity
  8
0
100
AcDbLine
 10
-3.1579574140067663
 20
13.082223959155549
 30
5.684341886080802e-14
 11
-3.174522393593609
 21
13.021526730476545
 31
5.684341886080802e-14
  0
LINE
  5
D0
330
17
100
AcDbEntity
  8
0
100
AcDbLine
 10
-3.174522393593609
 20
13.021526730476545
 30
5.684341886080802e-14
 11
-3.191044876928654
 21
12.960815834007398
 31
5.684341886080802e-14
  0
LINE
  5
D1
330
17
100
AcDbEntity
  8
0
100
AcDbLine
 10
-3.191044876928654
 20
12.960815834007398
 30
5.684341886080802e-14
 11
-3.199277832966274
 21
12.930500967421871
 31
5.684341886080802e-14
  0
LINE
  5
D2
330
17
100
AcDbEntity
  8
0
100
AcDbLine
 10
-3.199277832966274
 20
12.930500967421871
 30
5.684341886080802e-14
 11
-3.2074453257574795
 21
12.900384966445593
 31
5.684341886080802e-14
  0
LINE
  5
D3
330
17
100
AcDbEntity
  8
0
100
AcDbLine
 10
-3.2074453257574795
 20
12.900384966445593
 30
5.684341886080802e-14
 11
-3.2729982332843974
 21
12.65714060270583
 31
5.684341886080802e-14
  0
LINE
  5
D4
330
17
100
AcDbEntity
  8
0
100
AcDbLine
 10
-3.2729982332843974
 20
12.65714060270583
 30
5.684341886080802e-14
 11
-3.3378006735671093
 21
12.413973239510291
 31
5.684341886080802e-14
  0
LINE
  5
D5
330
17
100
AcDbEntity
  8
0
100
AcDbLine
 10
-3.3378006735671093
 20
12.413973239510291
 30
5.684341886080802e-14
 11
-3.4018640331164853
 21
12.170870324880674
 31
5.684341886080802e-14
  0
LINE
  5
D6
330
17
100
AcDbEntity
  8
0
100
AcDbLine
 10
-3.4018640331164853
 20
12.170870324880674
 30
5.684341886080802e-14
 11
-3.465137185092061
 21
11.928061083057607
 31
5.684341886080802e-14
  0
LINE
  5
D7
330
17
100
AcDbEntity
  8
0
100
AcDbLine
 10
-3.465137185092061
 20
11.928061083057607
 30
5.684341886080802e-14
 11
-3.5275693218158466
 21
11.685781838886335
 31
5.684341886080802e-14
  0
LINE
  5
D8
330
17
100
AcDbEntity
  8
0
100
AcDbLine
 10
-3.5275693218158466
 20
11.685781838886335
 30
5.684341886080802e-14
 11
-3.5891109258645244
 21
11.444273343466925
 31
5.684341886080802e-14
  0
LINE
  5
D9
330
17
100
AcDbEntity
  8
0
100
AcDbLine
 10
-3.5891109258645244
 20
11.444273343466925
 30
5.684341886080802e-14
 11
-3.6497137823182797
 21
11.203780835099273
 31
5.684341886080802e-14
  0
LINE
  5
DA
330
17
100
AcDbEntity
  8
0
100
AcDbLine
 10
-3.6497137823182797
 20
11.203780835099273
 30
5.684341886080802e-14
 11
-3.709361584138918
 21
10.96443010261877
 31
5.684341886080802e-14
  0
LINE
  5
DB
330
17
100
AcDbEntity
  8
0
100
AcDbLine
 10
-3.709361584138918
 20
10.96443010261877
 30
5.684341886080802e-14
 11
-3.7387559380515007
 21
10.845494179351796
 31
5.684341886080802e-14
  0
LINE
  5
DC
330
17
100
AcDbEntity
  8
0
100
AcDbLine
 10
-3.7387559380515007
 20
10.845494179351796
 30
5.684341886080802e-14
 11
-3.767917722158149
 21
10.726844770946151
 31
5.684341886080802e-14
  0
LINE
  5
DD
330
17
100
AcDbEntity
  8
0
100
AcDbLine
 10
-3.767917722158149
 20
10.726844770946151
 30
5.684341886080802e-14
 11
-3.796810648049796
 21
10.608639474840167
 31
5.684341886080802e-14
  0
LINE
  5
DE
330
17
100
AcDbEntity
  8
0
100
AcDbLine
 10
-3.796810648049796
 20
10.608639474840167
 30
5.684341886080802e-14
 11
-3.825428336067951
 21
10.490913375135158
 31
5.684341886080802e-14
  0
LINE
  5
DF
330
17
100
AcDbEntity
  8
0
100
AcDbLine
 10
-3.825428336067951
 20
10.490913375135158
 30
5.684341886080802e-14
 11
-3.85378038872895
 21
10.373637715046513
 31
5.684341886080802e-14
  0
LINE
  5
E0
330
17
100
AcDbEntity
  8
0
100
AcDbLine
 10
-3.85378038872895
 20
10.373637715046513
 30
5.684341886080802e-14
 11
-3.8678280489930685
 21
10.315292026102846
 31
5.684341886080802e-14
  0
LINE
  5
E1
330
17
100
AcDbEntity
  8
0
100
AcDbLine
 10
-3.8678280489930685
 20
10.315292026102846
 30
5.684341886080802e-14
 11
-3.8818037611106
 21
10.25708629726612
 31
5.684341886080802e-14
  0
LINE
  5
E2
330
17
100
AcDbEntity
  8
0
100
AcDbLine
 10
-3.8818037611106
 20
10.25708629726612
 30
5.684341886080802e-14
 11
-3.9095790285362533
 21
10.140933499663483
 31
5.684341886080802e-14
  0
LINE
  5
E3
330
17
100
AcDbEntity
  8
0
100
AcDbLine
 10
-3.9095790285362533
 20
10.140933499663483
 30
5.684341886080802e-14
 11
-3.9370157151044687
 21
10.025570570324682
 31
5.684341886080802e-14
  0
LINE
  5
E4
330
17
100
AcDbEntity
  8
0
100
AcDbLine
 10
-3.9370157151044687
 20
10.025570570324682
 30
5.684341886080802e-14
 11
-3.9910622984664386
 21
9.796466646976839
 31
5.684341886080802e-14
  0
LINE
  5
E5
330
17
100
AcDbEntity
  8
0
100
AcDbLine
 10
-3.9910622984664386
 20
9.796466646976839
 30
5.684341886080802e-14
 11
-4.043862421577739
 21
9.570225532233835
 31
5.684341886080802e-14
  0
LINE
  5
E6
330
17
100
AcDbEntity
  8
0
100
AcDbLine
 10
-4.043862421577739
 20
9.570225532233835
 30
5.684341886080802e-14
 11
-4.0697445809097275
 21
9.458432450489347
 31
5.684341886080802e-14
  0
LINE
  5
E7
330
17
100
AcDbEntity
  8
0
100
AcDbLine
 10
-4.0697445809097275
 20
9.458432450489347
 30
5.684341886080802e-14
 11
-4.095327727390522
 21
9.3473428585799
 31
5.684341886080802e-14
  0
LINE
  5
E8
330
17
100
AcDbEntity
  8
0
100
AcDbLine
 10
-4.095327727390522
 20
9.3473428585799
 30
5.684341886080802e-14
 11
-4.120580572781492
 21
9.237106608840328
 31
5.684341886080802e-14
  0
LINE
  5
E9
330
17
100
AcDbEntity
  8
0
100
AcDbLine
 10
-4.120580572781492
 20
9.237106608840328
 30
5.684341886080802e-14
 11
-4.145473024047746
 21
9.127870712323038
 31
5.684341886080802e-14
  0
LINE
  5
EA
330
17
100
AcDbEntity
  8
0
100
AcDbLine
 10
-4.145473024047746
 20
9.127870712323038
 30
5.684341886080802e-14
 11
-4.194309725852403
 21
8.911874763258517
 31
5.684341886080802e-14
  0
LINE
  5
EB
330
17
100
AcDbEntity
  8
0
100
AcDbLine
 10
-4.194309725852403
 20
8.911874763258517
 30
5.684341886080802e-14
 11
-4.241748199225103
 21
8.699882017503818
 31
5.684341886080802e-14
  0
LINE
  5
EC
330
17
100
AcDbEntity
  8
0
100
AcDbLine
 10
-4.241748199225103
 20
8.699882017503818
 30
5.684341886080802e-14
 11
-4.264902223606487
 21
8.595614388220262
 31
5.684341886080802e-14
  0
LINE
  5
ED
330
17
100
AcDbEntity
  8
0
100
AcDbLine
 10
-4.264902223606487
 20
8.595614388220262
 30
5.684341886080802e-14
 11
-4.287713877953099
 21
8.492365378114236
 31
5.684341886080802e-14
  0
LINE
  5
EE
330
17
100
AcDbEntity
  8
0
100
AcDbLine
 10
-4.287713877953099
 20
8.492365378114236
 30
5.684341886080802e-14
 11
-4.3103017719823065
 21
8.389626686169535
 31
5.684341886080802e-14
  0
LINE
  5
EF
330
17
100
AcDbEntity
  8
0
100
AcDbLine
 10
-4.3103017719823065
 20
8.389626686169535
 30
5.684341886080802e-14
 11
-4.332832881169882
 21
8.286663968046426
 31
5.684341886080802e-14
  0
LINE
  5
F0
330
17
100
AcDbEntity
  8
0
100
AcDbLine
 10
-4.332832881169882
 20
8.286663968046426
 30
5.684341886080802e-14
 11
-4.377358055241306
 21
8.081749285112714
 31
5.684341886080802e-14
  0
LINE
  5
F1
330
17
100
AcDbEntity
  8
0
100
AcDbLine
 10
-4.377358055241306
 20
8.081749285112714
 30
5.684341886080802e-14
 11
-4.421688376398908
 21
7.875800103906087
 31
5.684341886080802e-14
  0
LINE
  5
F2
330
17
100
AcDbEntity
  8
0
100
AcDbLine
 10
-4.421688376398908
 20
7.875800103906087
 30
5.684341886080802e-14
 11
-4.4658384150011265
 21
7.668730127371738
 31
5.684341886080802e-14
  0
LINE
  5
F3
330
17
100
AcDbEntity
  8
0
100
AcDbLine
 10
-4.4658384150011265
 20
7.668730127371738
 30
5.684341886080802e-14
 11
-4.509803602634392
 21
7.460542292306833
 31
5.684341886080802e-14
  0
LINE
  5
F4
330
17
100
AcDbEntity
  8
0
100
AcDbLine
 10
-4.509803602634392
 20
7.460542292306833
 30
5.684341886080802e-14
 11
-4.553579330093871
 21
7.251239150259764
 31
5.684341886080802e-14
  0
LINE
  5
F5
330
17
100
AcDbEntity
  8
0
100
AcDbLine
 10
-4.553579330093871
 20
7.251239150259764
 30
5.684341886080802e-14
 11
-4.597161004435385
 21
7.040823540018131
 31
5.684341886080802e-14
  0
LINE
  5
F6
330
17
100
AcDbEntity
  8
0
100
AcDbLine
 10
-4.597161004435385
 20
7.040823540018131
 30
5.684341886080802e-14
 11
-4.64054403515604
 21
6.829298226306612
 31
5.684341886080802e-14
  0
LINE
  5
F7
330
17
100
AcDbEntity
  8
0
100
AcDbLine
 10
-4.64054403515604
 20
6.829298226306612
 30
5.684341886080802e-14
 11
-4.683723843920049
 21
6.616666057640934
 31
5.684341886080802e-14
  0
LINE
  5
F8
330
17
100
AcDbEntity
  8
0
100
AcDbLine
 10
-4.683723843920049
 20
6.616666057640934
 30
5.684341886080802e-14
 11
-4.7266958516591515
 21
6.402929914183325
 31
5.684341886080802e-14
  0
LINE
  5
F9
330
17
100
AcDbEntity
  8
0
100
AcDbLine
 10
-4.7266958516591515
 20
6.402929914183325
 30
5.684341886080802e-14
 11
-4.769455517456706
 21
6.188092606180149
 31
5.684341886080802e-14
  0
LINE
  5
FA
330
17
100
AcDbEntity
  8
0
100
AcDbLine
 10
-4.769455517456706
 20
6.188092606180149
 30
5.684341886080802e-14
 11
-4.811998511734075
 21
5.972156442400696
 31
5.684341886080802e-14
  0
LINE
  5
FB
330
17
100
AcDbEntity
  8
0
100
AcDbLine
 10
-4.811998511734075
 20
5.972156442400696
 30
5.684341886080802e-14
 11
-4.854320637141658
 21
5.755124164898362
 31
5.684341886080802e-14
  0
LINE
  5
FC
330
17
100
AcDbEntity
  8
0
100
AcDbLine
 10
-4.854320637141658
 20
5.755124164898362
 30
5.684341886080802e-14
 11
-4.896415719368143
 21
5.537002180237515
 31
5.684341886080802e-14
  0
LINE
  5
FD
330
17
100
AcDbEntity
  8
0
100
AcDbLine
 10
-4.896415719368143
 20
5.537002180237515
 30
5.684341886080802e-14
 11
-4.938280558590904
 21
5.317790264444582
 31
5.684341886080802e-14
  0
LINE
  5
FE
330
17
100
AcDbEntity
  8
0
100
AcDbLine
 10
-4.938280558590904
 20
5.317790264444582
 30
5.684341886080802e-14
 11
-4.979910240095876
 21
5.097492691056637
 31
5.684341886080802e-14
  0
LINE
  5
FF
330
17
100
AcDbEntity
  8
0
100
AcDbLine
 10
-4.979910240095876
 20
5.097492691056637
 30
5.684341886080802e-14
 11
-5.021300409385496
 21
4.876112194831585
 31
5.684341886080802e-14
  0
LINE
  5
100
330
17
100
AcDbEntity
  8
0
100
AcDbLine
 10
-5.021300409385496
 20
4.876112194831585
 30
5.684341886080802e-14
 11
-5.062446502491575
 21
4.653652132911681
 31
5.684341886080802e-14
  0
LINE
  5
101
330
17
100
AcDbEntity
  8
0
100
AcDbLine
 10
-5.062446502491575
 20
4.653652132911681
 30
5.684341886080802e-14
 11
-5.103344056699051
 21
4.430115645783694
 31
5.684341886080802e-14
  0
LINE
  5
102
330
17
100
AcDbEntity
  8
0
100
AcDbLine
 10
-5.103344056699051
 20
4.430115645783694
 30
5.684341886080802e-14
 11
-5.143988598820798
 21
4.205506007137309
 31
5.684341886080802e-14
  0
LINE
  5
103
330
17
100
AcDbEntity
  8
0
100
AcDbLine
 10
-5.143988598820798
 20
4.205506007137309
 30
5.684341886080802e-14
 11
-5.184375635878013
 21
3.979826525680757
 31
5.684341886080802e-14
  0
LINE
  5
104
330
17
100
AcDbEntity
  8
0
100
AcDbLine
 10
-5.184375635878013
 20
3.979826525680757
 30
5.684341886080802e-14
 11
-5.224500793851476
 21
3.753080457359566
 31
5.684341886080802e-14
  0
LINE
  5
105
330
17
100
AcDbEntity
  8
0
100
AcDbLine
 10
-5.224500793851476
 20
3.753080457359566
 30
5.684341886080802e-14
 11
-5.264359497662138
 21
3.52527110624748
 31
5.684341886080802e-14
  0
LINE
  5
106
330
17
100
AcDbEntity
  8
0
100
AcDbLine
 10
-5.264359497662138
 20
3.52527110624748
 30
5.684341886080802e-14
 11
-5.303948108604477
 21
3.2964008273380685
 31
5.684341886080802e-14
  0
LINE
  5
107
330
17
100
AcDbEntity
  8
0
100
AcDbLine
 10
-5.303948108604477
 20
3.2964008273380685
 30
5.684341886080802e-14
 11
-5.343260943577636
 21
3.0664755548365434
 31
5.684341886080802e-14
  0
LINE
  5
108
330
17
100
AcDbEntity
  8
0
100
AcDbLine
 10
-5.343260943577636
 20
3.0664755548365434
 30
5.684341886080802e-14
 11
-5.382294082779936
 21
2.8354973950325686
 31
5.684341886080802e-14
  0
LINE
  5
109
330
17
100
AcDbEntity
  8
0
100
AcDbLine
 10
-5.382294082779936
 20
2.8354973950325686
 30
5.684341886080802e-14
 11
-5.421043238498047
 21
2.603469816409344
 31
5.684341886080802e-14
  0
LINE
  5
10A
330
17
100
AcDbEntity
  8
0
100
AcDbLine
 10
-5.421043238498047
 20
2.603469816409344
 30
5.684341886080802e-14
 11
-5.4595040297719635
 21
2.370396448214528
 31
5.684341886080802e-14
  0
LINE
  5
10B
330
17
100
AcDbEntity
  8
0
100
AcDbLine
 10
-5.4595040297719635
 20
2.370396448214528
 30
5.684341886080802e-14
 11
-5.497672090595852
 21
2.1362808831577027
 31
5.684341886080802e-14
  0
LINE
  5
10C
330
17
100
AcDbEntity
  8
0
100
AcDbLine
 10
-5.497672090595852
 20
2.1362808831577027
 30
5.684341886080802e-14
 11
-5.535543094551635
 21
1.9011267397539555
 31
5.684341886080802e-14
  0
LINE
  5
10D
330
17
100
AcDbEntity
  8
0
100
AcDbLine
 10
-5.535543094551635
 20
1.9011267397539555
 30
5.684341886080802e-14
 11
-5.573112682448155
 21
1.6649376882234463
 31
5.684341886080802e-14
  0
LINE
  5
10E
330
17
100
AcDbEntity
  8
0
100
AcDbLine
 10
-5.573112682448155
 20
1.6649376882234463
 30
5.684341886080802e-14
 11
-5.6103766188960975
 21
1.42771736732805
 31
5.684341886080802e-14
  0
LINE
  5
10F
330
17
100
AcDbEntity
  8
0
100
AcDbLine
 10
-5.6103766188960975
 20
1.42771736732805
 30
5.684341886080802e-14
 11
-5.647338575018079
 21
1.1894175510971223
 31
5.684341886080802e-14
  0
LINE
  5
110
330
17
100
AcDbEntity
  8
0
100
AcDbLine
 10
-5.647338575018079
 20
1.1894175510971223
 30
5.684341886080802e-14
 11
-5.674032858461718
 21
1.0153998305520844
 31
5.684341886080802e-14
  0
LINE
  5
111
330
17
100
AcDbEntity
  8
0
100
AcDbLine
 10
-5.674032858461718
 20
1.0153998305520844
 30
5.684341886080802e-14
 11
-5.700567233584238
 21
0.8407866374521333
 31
5.684341886080802e-14
  0
LINE
  5
112
330
17
100
AcDbEntity
  8
0
100
AcDbLine
 10
-5.700567233584238
 20
0.8407866374521333
 30
5.684341886080802e-14
 11
-5.726932072289777
 21
0.6656311437214342
 31
5.684341886080802e-14
  0
LINE
  5
113
330
17
100
AcDbEntity
  8
0
100
AcDbLine
 10
-5.726932072289777
 20
0.6656311437214342
 30
5.684341886080802e-14
 11
-5.753125812707214
 21
0.4899346814715031
 31
5.684341886080802e-14
  0
LINE
  5
114
330
17
100
AcDbEntity
  8
0
100
AcDbLine
 10
-5.753125812707214
 20
0.4899346814715031
 30
5.684341886080802e-14
 11
-5.779146888825672
 21
0.3136986305833531
 31
5.684341886080802e-14
  0
LINE
  5
115
330
17
100
AcDbEntity
  8
0
100
AcDbLine
 10
-5.779146888825672
 20
0.3136986305833531
 30
5.684341886080802e-14
 11
-5.804993768300033
 21
0.13692481121948674
 31
5.684341886080802e-14
  0
LINE
  5
116
330
17
100
AcDbEntity
  8
0
100
AcDbLine
 10
-5.804993768300033
 20
0.13692481121948674
 30
5.684341886080802e-14
 11
-5.830664449760661
 21
-0.040385056823069476
 31
5.684341886080802e-14
  0
LINE
  5
117
330
17
100
AcDbEntity
  8
0
100
AcDbLine
 10
-5.830664449760661
 20
-0.040385056823069476
 30
5.684341886080802e-14
 11
-5.8561576615450655
 21
-0.21822992128330299
 31
5.684341886080802e-14
  0
LINE
  5
118
330
17
100
AcDbEntity
  8
0
100
AcDbLine
 10
-5.8561576615450655
 20
-0.21822992128330299
 30
5.684341886080802e-14
 11
-5.881471760879389
 21
-0.3966081712159095
 31
5.684341886080802e-14
  0
LINE
  5
119
330
17
100
AcDbEntity
  8
0
100
AcDbLine
 10
-5.881471760879389
 20
-0.3966081712159095
 30
5.684341886080802e-14
 11
-5.906605084228438
 21
-0.5755178771987275
 31
5.684341886080802e-14
  0
LINE
  5
11A
330
17
100
AcDbEntity
  8
0
100
AcDbLine
 10
-5.906605084228438
 20
-0.5755178771987275
 30
5.684341886080802e-14
 11
-5.931556439849778
 21
-0.7549586826564365
 31
5.684341886080802e-14
  0
LINE
  5
11B
330
17
100
AcDbEntity
  8
0
100
AcDbLine
 10
-5.931556439849778
 20
-0.7549586826564365
 30
5.684341886080802e-14
 11
-5.95632344432277
 21
-0.934925438721173
 31
5.684341886080802e-14
  0
LINE
  5
11C
330
17
100
AcDbEntity
  8
0
100
AcDbLine
 10
-5.95632344432277
 20
-0.934925438721173
 30
5.684341886080802e-14
 11
-5.980905707796531
 21
-1.1154246840795423
 31
5.684341886080802e-14
  0
LINE
  5
11D
330
17
100
AcDbEntity
  8
0
100
AcDbLine
 10
-5.980905707796531
 20
-1.1154246840795423
 30
5.684341886080802e-14
 11
-6.005299412181664
 21
-1.2964376616331137
 31
5.684341886080802e-14
  0
LINE
  5
11E
330
17
100
AcDbEntity
  8
0
100
AcDbLine
 10
-6.005299412181664
 20
-1.2964376616331137
 30
5.684341886080802e-14
 11
-6.029507058807134
 21
-1.477993162330101
 31
5.684341886080802e-14
  0
LINE
  5
11F
330
17
100
AcDbEntity
  8
0
100
AcDbLine
 10
-6.029507058807134
 20
-1.477993162330101
 30
5.684341886080802e-14
 11
-6.053544232673932
 21
-1.6602190025456807
 31
5.684341886080802e-14
  0
LINE
  5
120
330
17
100
AcDbEntity
  8
0
100
AcDbLine
 10
-6.053544232673932
 20
-1.6602190025456807
 30
5.684341886080802e-14
 11
-6.074273003091882
 21
-1.8190876074559057
 31
5.684341886080802e-14
  0
LINE
  5
121
330
17
100
AcDbEntity
  8
0
100
AcDbLine
 10
-6.074273003091882
 20
-1.8190876074559057
 30
5.684341886080802e-14
 11
-6.093464451558194
 21
-1.9678658957399549
 31
5.684341886080802e-14
  0
LINE
  5
122
330
17
100
AcDbEntity
  8
0
100
AcDbLine
 10
-6.093464451558194
 20
-1.9678658957399549
 30
5.684341886080802e-14
 11
-6.112610359742046
 21
-2.1177374630261596
 31
5.684341886080802e-14
  0
LINE
  5
123
330
17
100
AcDbEntity
  8
0
100
AcDbLine
 10
-6.112610359742046
 20
-2.1177374630261596
 30
5.684341886080802e-14
 11
-6.1315022885244055
 21
-2.267133987149343
 31
5.684341886080802e-14
  0
LINE
  5
124
330
17
100
AcDbEntity
  8
0
100
AcDbLine
 10
-6.1315022885244055
 20
-2.267133987149343
 30
5.684341886080802e-14
 11
-6.150253015653899
 21
-2.4169083542929215
 31
5.684341886080802e-14
  0
LINE
  5
125
330
17
100
AcDbEntity
  8
0
100
AcDbLine
 10
-6.150253015653899
 20
-2.4169083542929215
 30
5.684341886080802e-14
 11
-6.1688091277475365
 21
-2.5666603279812463
 31
5.684341886080802e-14
  0
LINE
  5
126
330
17
100
AcDbEntity
  8
0
100
AcDbLine
 10
-6.1688091277475365
 20
-2.5666603279812463
 30
5.684341886080802e-14
 11
-6.187192780196739
 21
-2.7165590063664453
 31
5.684341886080802e-14
  0
LINE
  5
127
330
17
100
AcDbEntity
  8
0
100
AcDbLine
 10
-6.187192780196739
 20
-2.7165590063664453
 30
5.684341886080802e-14
 11
-6.205392354679184
 21
-2.866518372835479
 31
5.684341886080802e-14
  0
LINE
  5
128
330
17
100
AcDbEntity
  8
0
100
AcDbLine
 10
-6.205392354679184
 20
-2.866518372835479
 30
5.684341886080802e-14
 11
-6.223411448441357
 21
-3.0165666154027875
 31
5.684341886080802e-14
  0
LINE
  5
129
330
17
100
AcDbEntity
  8
0
100
AcDbLine
 10
-6.223411448441357
 20
-3.0165666154027875
 30
5.684341886080802e-14
 11
-6.241246951278317
 21
-3.1666812401214983
 31
5.684341886080802e-14
  0
LINE
  5
12A
330
17
100
AcDbEntity
  8
0
100
AcDbLine
 10
-6.241246951278317
 20
-3.1666812401214983
 30
5.684341886080802e-14
 11
-6.258898865413791
 21
-3.3168614751156085
 31
5.684341886080802e-14
  0
LINE
  5
12B
330
17
100
AcDbEntity
  8
0
100
AcDbLine
 10
-6.258898865413791
 20
-3.3168614751156085
 30
5.684341886080802e-14
 11
-6.276365810079774
 21
-3.467098183756569
 31
5.684341886080802e-14
  0
LINE
  5
12C
330
17
100
AcDbEntity
  8
0
100
AcDbLine
 10
-6.276365810079774
 20
-3.467098183756569
 30
5.684341886080802e-14
 11
-6.293647190986835
 21
-3.617385905626655
 31
5.684341886080802e-14
  0
LINE
  5
12D
330
17
100
AcDbEntity
  8
0
100
AcDbLine
 10
-6.293647190986835
 20
-3.617385905626655
 30
5.684341886080802e-14
 11
-6.31074215884205
 21
-3.7677170414469785
 31
5.684341886080802e-14
  0
LINE
  5
12E
330
17
100
AcDbEntity
  8
0
100
AcDbLine
 10
-6.31074215884205
 20
-3.7677170414469785
 30
5.684341886080802e-14
 11
-6.327650047128458
 21
-3.9180851054034136
 31
5.684341886080802e-14
  0
LINE
  5
12F
330
17
100
AcDbEntity
  8
0
100
AcDbLine
 10
-6.327650047128458
 20
-3.9180851054034136
 30
5.684341886080802e-14
 11
-6.344370200130054
 21
-4.06848327079517
 31
5.684341886080802e-14
  0
LINE
  5
130
330
17
100
AcDbEntity
  8
0
100
AcDbLine
 10
-6.344370200130054
 20
-4.06848327079517
 30
5.684341886080802e-14
 11
-6.360902048206828
 21
-4.218904930118491
 31
5.684341886080802e-14
  0
LINE
  5
131
330
17
100
AcDbEntity
  8
0
100
AcDbLine
 10
-6.360902048206828
 20
-4.218904930118491
 30
5.684341886080802e-14
 11
-6.377245071930378
 21
-4.369343428344571
 31
5.684341886080802e-14
  0
LINE
  5
132
330
17
100
AcDbEntity
  8
0
100
AcDbLine
 10
-6.377245071930378
 20
-4.369343428344571
 30
5.684341886080802e-14
 11
-6.393398816534656
 21
-4.519792180119559
 31
5.684341886080802e-14
  0
LINE
  5
133
330
17
100
AcDbEntity
  8
0
100
AcDbLine
 10
-6.393398816534656
 20
-4.519792180119559
 30
5.684341886080802e-14
 11
-6.40936288793532
 21
-4.670244633126025
 31
5.684341886080802e-14
  0
LINE
  5
134
330
17
100
AcDbEntity
  8
0
100
AcDbLine
 10
-6.40936288793532
 20
-4.670244633126025
 30
5.684341886080802e-14
 11
-6.425136970437347
 21
-4.82069429537264
 31
5.684341886080802e-14
  0
LINE
  5
135
330
17
100
AcDbEntity
  8
0
100
AcDbLine
 10
-6.425136970437347
 20
-4.82069429537264
 30
5.684341886080802e-14
 11
-6.4407208057580085
 21
-4.971134381119803
 31
5.684341886080802e-14
  0
LINE
  5
136
330
17
100
AcDbEntity
  8
0
100
AcDbLine
 10
-6.4407208057580085
 20
-4.971134381119803
 30
5.684341886080802e-14
 11
-6.456114039502268
 21
-5.121558599576858
 31
5.684341886080802e-14
  0
LINE
  5
137
330
17
100
AcDbEntity
  8
0
100
AcDbLine
 10
-6.456114039502268
 20
-5.121558599576858
 30
5.684341886080802e-14
 11
-6.471316623930971
 21
-5.271960541119206
 31
5.684341886080802e-14
  0
LINE
  5
138
330
17
100
AcDbEntity
  8
0
100
AcDbLine
 10
-6.471316623930971
 20
-5.271960541119206
 30
5.684341886080802e-14
 11
-6.486328413409499
 21
-5.422333629323319
 31
5.684341886080802e-14
  0
LINE
  5
139
330
17
100
AcDbEntity
  8
0
100
AcDbLine
 10
-6.486328413409499
 20
-5.422333629323319
 30
5.684341886080802e-14
 11
-6.50114936889231
 21
-5.572671420209744
 31
5.684341886080802e-14
  0
LINE
  5
13A
330
17
100
AcDbEntity
  8
0
100
AcDbLine
 10
-6.50114936889231
 20
-5.572671420209744
 30
5.684341886080802e-14
 11
-6.515779486229409
 21
-5.722967449291737
 31
5.684341886080802e-14
  0
LINE
  5
13B
330
17
100
AcDbEntity
  8
0
100
AcDbLine
 10
-6.515779486229409
 20
-5.722967449291737
 30
5.684341886080802e-14
 11
-6.530218823482127
 21
-5.8732152706631595
 31
5.684341886080802e-14
  0
LINE
  5
13C
330
17
100
AcDbEntity
  8
0
100
AcDbLine
 10
-6.530218823482127
 20
-5.8732152706631595
 30
5.684341886080802e-14
 11
-6.544467489384264
 21
-6.02340842632244
 31
5.684341886080802e-14
  0
LINE
  5
13D
330
17
100
AcDbEntity
  8
0
100
AcDbLine
 10
-6.544467489384264
 20
-6.02340842632244
 30
5.684341886080802e-14
 11
-6.55852564344865
 21
-6.17354047479612
 31
5.684341886080802e-14
  0
LINE
  5
13E
330
17
100
AcDbEntity
  8
0
100
AcDbLine
 10
-6.55852564344865
 20
-6.17354047479612
 30
5.684341886080802e-14
 11
-6.572393502903008
 21
-6.323604918907101
 31
5.684341886080802e-14
  0
LINE
  5
13F
330
17
100
AcDbEntity
  8
0
100
AcDbLine
 10
-6.572393502903008
 20
-6.323604918907101
 30
5.684341886080802e-14
 11
-6.586064886737361
 21
-6.473524898787382
 31
5.684341886080802e-14
  0
LINE
  5
140
330
17
100
AcDbEntity
  8
0
100
AcDbLine
 10
-6.586064886737361
 20
-6.473524898787382
 30
5.684341886080802e-14
 11
-6.607389163825321
 21
-6.7114708417144655
 31
5.684341886080802e-14
  0
LINE
  5
141
330
17
100
AcDbEntity
  8
0
100
AcDbLine
 10
-6.607389163825321
 20
-6.7114708417144655
 30
5.684341886080802e-14
 11
-6.628230750850914
 21
-6.949116967929932
 31
5.684341886080802e-14
  0
LINE
  5
142
330
17
100
AcDbEntity
  8
0
100
AcDbLine
 10
-6.628230750850914
 20
-6.949116967929932
 30
5.684341886080802e-14
 11
-6.648597763148075
 21
-7.186507878995357
 31
5.684341886080802e-14
  0
LINE
  5
143
330
17
100
AcDbEntity
  8
0
100
AcDbLine
 10
-6.648597763148075
 20
-7.186507878995357
 30
5.684341886080802e-14
 11
-6.668492335306183
 21
-7.423617299943267
 31
5.684341886080802e-14
  0
LINE
  5
144
330
17
100
AcDbEntity
  8
0
100
AcDbLine
 10
-6.668492335306183
 20
-7.423617299943267
 30
5.684341886080802e-14
 11
-6.6879168496212
 21
-7.660418769320962
 31
5.684341886080802e-14
  0
LINE
  5
145
330
17
100
AcDbEntity
  8
0
100
AcDbLine
 10
-6.6879168496212
 20
-7.660418769320962
 30
5.684341886080802e-14
 11
-6.706873986359952
 21
-7.89688561520925
 31
5.684341886080802e-14
  0
LINE
  5
146
330
17
100
AcDbEntity
  8
0
100
AcDbLine
 10
-6.706873986359952
 20
-7.89688561520925
 30
5.684341886080802e-14
 11
-6.725366687656521
 21
-8.132990911808427
 31
5.684341886080802e-14
  0
LINE
  5
147
330
17
100
AcDbEntity
  8
0
100
AcDbLine
 10
-6.725366687656521
 20
-8.132990911808427
 30
5.684341886080802e-14
 11
-6.743398161280947
 21
-8.368707456311242
 31
5.684341886080802e-14
  0
LINE
  5
148
330
17
100
AcDbEntity
  8
0
100
AcDbLine
 10
-6.743398161280947
 20
-8.368707456311242
 30
5.684341886080802e-14
 11
-6.760971866483274
 21
-8.604007736437211
 31
5.684341886080802e-14
  0
LINE
  5
149
330
17
100
AcDbEntity
  8
0
100
AcDbLine
 10
-6.760971866483274
 20
-8.604007736437211
 30
5.684341886080802e-14
 11
-6.77809150780114
 21
-8.838863903813419
 31
5.684341886080802e-14
  0
LINE
  5
14A
330
17
100
AcDbEntity
  8
0
100
AcDbLine
 10
-6.77809150780114
 20
-8.838863903813419
 30
5.684341886080802e-14
 11
-6.79476102516654
 21
-9.07324774326706
 31
5.684341886080802e-14
  0
LINE
  5
14B
330
17
100
AcDbEntity
  8
0
100
AcDbLine
 10
-6.79476102516654
 20
-9.07324774326706
 30
5.684341886080802e-14
 11
-6.810984585839275
 21
-9.30713064953622
 31
5.684341886080802e-14
  0
LINE
  5
14C
330
17
100
AcDbEntity
  8
0
100
AcDbLine
 10
-6.810984585839275
 20
-9.30713064953622
 30
5.684341886080802e-14
 11
-6.826766574987641
 21
-9.540483590795006
 31
5.684341886080802e-14
  0
LINE
  5
14D
330
17
100
AcDbEntity
  8
0
100
AcDbLine
 10
-6.826766574987641
 20
-9.540483590795006
 30
5.684341886080802e-14
 11
-6.842111587993305
 21
-9.773277102814944
 31
5.684341886080802e-14
  0
LINE
  5
14E
330
17
100
AcDbEntity
  8
0
100
AcDbLine
 10
-6.842111587993305
 20
-9.773277102814944
 30
5.684341886080802e-14
 11
-6.857024419426448
 21
-10.005481217071292
 31
5.684341886080802e-14
  0
LINE
  5
14F
330
17
100
AcDbEntity
  8
0
100
AcDbLine
 10
-6.857024419426448
 20
-10.005481217071292
 30
5.684341886080802e-14
 11
-6.8715100592017855
 21
-10.237065538401538
 31
5.684341886080802e-14
  0
LINE
  5
150
330
17
100
AcDbEntity
  8
0
100
AcDbLine
 10
-6.8715100592017855
 20
-10.237065538401538
 30
5.684341886080802e-14
 11
-6.885573672850104
 21
-10.467998990929985
 31
5.684341886080802e-14
  0
LINE
  5
151
330
17
100
AcDbEntity
  8
0
100
AcDbLine
 10
-6.885573672850104
 20
-10.467998990929985
 30
5.684341886080802e-14
 11
-6.899220617252215
 21
-10.698250307613336
 31
5.684341886080802e-14
  0
LINE
  5
152
330
17
100
AcDbEntity
  8
0
100
AcDbLine
 10
-6.899220617252215
 20
-10.698250307613336
 30
5.684341886080802e-14
 11
-6.912456377243938
 21
-10.927786858922474
 31
5.684341886080802e-14
  0
LINE
  5
153
330
17
100
AcDbEntity
  8
0
100
AcDbLine
 10
-6.912456377243938
 20
-10.927786858922474
 30
5.684341886080802e-14
 11
-6.925286680322632
 21
-11.15657723951449
 31
5.684341886080802e-14
  0
LINE
  5
154
330
17
100
AcDbEntity
  8
0
100
AcDbLine
 10
-6.925286680322632
 20
-11.15657723951449
 30
5.684341886080802e-14
 11
-6.93771721390527
 21
-11.384584970742779
 31
5.684341886080802e-14
  0
LINE
  5
155
330
17
100
AcDbEntity
  8
0
100
AcDbLine
 10
-6.93771721390527
 20
-11.384584970742779
 30
5.684341886080802e-14
 11
-6.949754210700508
 21
-11.611780930768958
 31
5.684341886080802e-14
  0
LINE
  5
156
330
17
100
AcDbEntity
  8
0
100
AcDbLine
 10
-6.949754210700508
 20
-11.611780930768958
 30
5.684341886080802e-14
 11
-6.961403144904327
 21
-11.838121155843012
 31
5.684341886080802e-14
  0
LINE
  5
157
330
17
100
AcDbEntity
  8
0
100
AcDbLine
 10
-6.961403144904327
 20
-11.838121155843012
 30
5.684341886080802e-14
 11
-6.97267128177889
 21
-12.063590718338943
 31
5.684341886080802e-14
  0
LINE
  5
158
330
17
100
AcDbEntity
  8
0
100
AcDbLine
 10
-6.97267128177889
 20
-12.063590718338943
 30
5.684341886080802e-14
 11
-6.983571238967183
 21
-12.288284634498424
 31
5.684341886080802e-14
  0
LINE
  5
159
330
17
100
AcDbEntity
  8
0
100
AcDbLine
 10
-6.983571238967183
 20
-12.288284634498424
 30
5.684341886080802e-14
 11
-6.994171123860497
 21
-12.513505048312751
 31
5.684341886080802e-14
  0
LINE
  5
15A
330
17
100
AcDbEntity
  8
0
100
AcDbLine
 10
-6.994171123860497
 20
-12.513505048312751
 30
5.684341886080802e-14
 11
-7.004483147143201
 21
-12.739484755192976
 31
5.684341886080802e-14
  0
LINE
  5
15B
330
17
100
AcDbEntity
  8
0
100
AcDbLine
 10
-7.004483147143201
 20
-12.739484755192976
 30
5.684341886080802e-14
 11
-7.0145079786940165
 21
-12.966216232263392
 31
5.684341886080802e-14
  0
LINE
  5
15C
330
17
100
AcDbEntity
  8
0
100
AcDbLine
 10
-7.0145079786940165
 20
-12.966216232263392
 30
5.684341886080802e-14
 11
-7.024245744228153
 21
-13.193679220765915
 31
5.684341886080802e-14
  0
LINE
  5
15D
330
17
100
AcDbEntity
  8
0
100
AcDbLine
 10
-7.024245744228153
 20
-13.193679220765915
 30
5.684341886080802e-14
 11
-7.033697214610374
 21
-13.421861564432504
 31
5.684341886080802e-14
  0
LINE
  5
15E
330
17
100
AcDbEntity
  8
0
100
AcDbLine
 10
-7.033697214610374
 20
-13.421861564432504
 30
5.684341886080802e-14
 11
-7.0428631359223175
 21
-13.650747228834675
 31
5.684341886080802e-14
  0
LINE
  5
15F
330
17
100
AcDbEntity
  8
0
100
AcDbLine
 10
-7.0428631359223175
 20
-13.650747228834675
 30
5.684341886080802e-14
 11
-7.051744528997279
 21
-13.88032174159406
 31
5.684341886080802e-14
  0
LINE
  5
160
330
17
100
AcDbEntity
  8
0
100
AcDbLine
 10
-7.051744528997279
 20
-13.88032174159406
 30
5.684341886080802e-14
 11
-7.060342549912935
 21
-14.110569726856227
 31
5.684341886080802e-14
  0
LINE
  5
161
330
17
100
AcDbEntity
  8
0
100
AcDbLine
 10
-7.060342549912935
 20
-14.110569726856227
 30
5.684341886080802e-14
 11
-7.068658546762091
 21
-14.341475981641807
 31
5.684341886080802e-14
  0
LINE
  5
162
330
17
100
AcDbEntity
  8
0
100
AcDbLine
 10
-7.068658546762091
 20
-14.341475981641807
 30
5.684341886080802e-14
 11
-7.076694028731055
 21
-14.57302496674997
 31
5.684341886080802e-14
  0
LINE
  5
163
330
17
100
AcDbEntity
  8
0
100
AcDbLine
 10
-7.076694028731055
 20
-14.57302496674997
 30
5.684341886080802e-14
 11
-7.084450673910826
 21
-14.805201008231421
 31
5.684341886080802e-14
  0
LINE
  5
164
330
17
100
AcDbEntity
  8
0
100
AcDbLine
 10
-7.084450673910826
 20
-14.805201008231421
 30
5.684341886080802e-14
 11
-7.091930320483318
 21
-15.03798817826474
 31
5.684341886080802e-14
  0
LINE
  5
165
330
17
100
AcDbEntity
  8
0
100
AcDbLine
 10
-7.091930320483318
 20
-15.03798817826474
 30
5.684341886080802e-14
 11
-7.09913496346751
 21
-15.271370325547153
 31
5.684341886080802e-14
  0
LINE
  5
166
330
17
100
AcDbEntity
  8
0
100
AcDbLine
 10
-7.09913496346751
 20
-15.271370325547153
 30
5.684341886080802e-14
 11
-7.1060667528577035
 21
-15.505331025380059
 31
5.684341886080802e-14
  0
LINE
  5
167
330
17
100
AcDbEntity
  8
0
100
AcDbLine
 10
-7.1060667528577035
 20
-15.505331025380059
 30
5.684341886080802e-14
 11
-7.112727982173606
 21
-15.739853595915235
 31
5.684341886080802e-14
  0
LINE
  5
168
330
17
100
AcDbEntity
  8
0
100
AcDbLine
 10
-7.112727982173606
 20
-15.739853595915235
 30
5.684341886080802e-14
 11
-7.119121101127877
 21
-15.974921017771209
 31
5.684341886080802e-14
  0
LINE
  5
169
330
17
100
AcDbEntity
  8
0
100
AcDbLine
 10
-7.119121101127877
 20
-15.974921017771209
 30
5.684341886080802e-14
 11
-7.125248673766269
 21
-16.210516077485025
 31
5.684341886080802e-14
  0
LINE
  5
16A
330
17
100
AcDbEntity
  8
0
100
AcDbLine
 10
-7.125248673766269
 20
-16.210516077485025
 30
5.684341886080802e-14
 11
-7.131113493215327
 21
-16.446620929563466
 31
5.684341886080802e-14
  0
LINE
  5
16B
330
17
100
AcDbEntity
  8
0
100
AcDbLine
 10
-7.131113493215327
 20
-16.446620929563466
 30
5.684341886080802e-14
 11
-7.136718298762933
 21
-16.68321771977361
 31
5.684341886080802e-14
  0
LINE
  5
16C
330
17
100
AcDbEntity
  8
0
100
AcDbLine
 10
-7.136718298762933
 20
-16.68321771977361
 30
5.684341886080802e-14
 11
-7.14206609912743
 21
-16.920288143043507
 31
5.684341886080802e-14
  0
LINE
  5
16D
330
17
100
AcDbEntity
  8
0
100
AcDbLine
 10
-7.14206609912743
 20
-16.920288143043507
 30
5.684341886080802e-14
 11
-7.1471600022725745
 21
-17.15781340672079
 31
5.684341886080802e-14
  0
LINE
  5
16E
330
17
100
AcDbEntity
  8
0
100
AcDbLine
 10
-7.1471600022725745
 20
-17.15781340672079
 30
5.684341886080802e-14
 11
-7.15200322257569
 21
-17.39577434978436
 31
5.684341886080802e-14
  0
LINE
  5
16F
330
17
100
AcDbEntity
  8
0
100
AcDbLine
 10
-7.15200322257569
 20
-17.39577434978436
 30
5.684341886080802e-14
 11
-7.156599087170786
 21
-17.63415140073461
 31
5.684341886080802e-14
  0
LINE
  5
170
330
17
100
AcDbEntity
  8
0
100
AcDbLine
 10
-7.156599087170786
 20
-17.63415140073461
 30
5.684341886080802e-14
 11
-7.1609510319627425
 21
-17.87292454871239
 31
5.684341886080802e-14
  0
LINE
  5
171
330
17
100
AcDbEntity
  8
0
100
AcDbLine
 10
-7.1609510319627425
 20
-17.87292454871239
 30
5.684341886080802e-14
 11
-7.1615770640011895
 21
-17.909337646594736
 31
5.684341886080802e-14
  0
LINE
  5
172
330
17
100
AcDbEntity
  8
0
100
AcDbLine
 10
-7.1615770640011895
 20
-17.909337646594736
 30
5.684341886080802e-14
 11
5.552652719428401
 21
-17.909337646594736
 31
5.684341886080802e-14
  0
LINE
  5
173
330
17
100
AcDbEntity
  8
0
100
AcDbLine
 10
5.552652719428401
 20
-17.909337646594736
 30
5.684341886080802e-14
 11
5.559890430533123
 21
-12.403653836480089
 31
5.684341886080802e-14
  0
LINE
  5
174
330
17
100
AcDbEntity
  8
0
100
AcDbLine
 10
5.559890430533123
 20
-12.403653836480089
 30
5.684341886080802e-14
 11
5.499878926534567
 21
-4.4003870422810465
 31
5.684341886080802e-14
  0
LINE
  5
175
330
17
100
AcDbEntity
  8
0
100
AcDbLine
 10
5.499878926534567
 20
-4.4003870422810465
 30
5.684341886080802e-14
 11
5.417757834204826
 21
0.06774333410123035
 31
5.684341886080802e-14
  0
LINE
  5
176
330
17
100
AcDbEntity
  8
0
100
AcDbLine
 10
5.417757834204826
 20
0.06774333410123035
 30
5.684341886080802e-14
 11
5.319893150124898
 21
3.5461494720555464
 31
5.684341886080802e-14
  0
LINE
  5
177
330
17
100
AcDbEntity
  8
0
100
AcDbLine
 10
5.319893150124898
 20
3.5461494720555464
 30
5.684341886080802e-14
 11
5.163934345396921
 21
7.528053239141734
 31
5.684341886080802e-14
  0
LINE
  5
178
330
17
100
AcDbEntity
  8
0
100
AcDbLine
 10
5.163934345396921
 20
7.528053239141734
 30
5.684341886080802e-14
 11
4.978373055498407
 21
11.067779453274547
 31
5.684341886080802e-14
  0
LINE
  5
179
330
17
100
AcDbEntity
  8
0
100
AcDbLine
 10
4.978373055498407
 20
11.067779453274547
 30
5.684341886080802e-14
 11
4.783296915885744
 21
14.041452861776435
 31
5.684341886080802e-14
  0
LINE
  5
17A
330
17
100
AcDbEntity
  8
0
100
AcDbLine
 10
4.783296915885744
 20
14.041452861776435
 30
5.684341886080802e-14
 11
4.454200793124567
 21
18.06669351774257
 31
5.684341886080802e-14
  0
LINE
  5
17B
330
17
100
AcDbEntity
  8
0
100
AcDbLine
 10
4.454200793124567
 20
18.06669351774257
 30
5.684341886080802e-14
 11
4.228302723939612
 21
20.353663015350918
 31
5.684341886080802e-14
  0
LINE
  5
17C
330
17
100
AcDbEntity
  8
0
100
AcDbLine
 10
4.228302723939612
 20
20.353663015350918
 30
5.684341886080802e-14
 11
3.9370352444379026
 21
22.54150895159512
 31
5.684341886080802e-14
  0
ENDSEC
  0
SECTION
  2
OBJECTS
  0
DICTIONARY
  5
A
330
0
100
AcDbDictionary
281
1
  3
ACAD_COLOR
350
B
  3
ACAD_GROUP
350
C
  3
ACAD_LAYOUT
350
D
  3
ACAD_MATERIAL
350
E
  3
ACAD_MLEADERSTYLE
350
F
  3
ACAD_MLINESTYLE
350
10
  3
ACAD_PLOTSETTINGS
350
11
  3
ACAD_PLOTSTYLENAME
350
12
  3
ACAD_SCALELIST
350
14
  3
ACAD_TABLESTYLE
350
15
  3
ACAD_VISUALSTYLE
350
16
  3
EZDXF_META
350
2D
  0
DICTIONARY
  5
B
330
A
100
AcDbDictionary
281
1
  0
DICTIONARY
  5
C
330
A
100
AcDbDictionary
281
1
  0
DICTIONARY
  5
D
330
A
100
AcDbDictionary
281
1
  3
Model
350
1A
  3
Layout1
350
1E
  0
DICTIONARY
  5
E
330
A
100
AcDbDictionary
281
1
  3
ByBlock
350
1F
  3
ByLayer
350
20
  3
Global
350
21
  0
DICTIONARY
  5
F
330
A
100
AcDbDictionary
281
1
  3
Standard
350
2C
  0
DICTIONARY
  5
10
330
A
100
AcDbDictionary
281
1
  3
Standard
350
22
  0
DICTIONARY
  5
11
330
A
100
AcDbDictionary
281
1
  0
ACDBDICTIONARYWDFLT
  5
12
330
A
100
AcDbDictionary
281
1
  3
Normal
350
13
100
AcDbDictionaryWithDefault
340
13
  0
ACDBPLACEHOLDER
  5
13
330
12
  0
DICTIONARY
  5
14
330
A
100
AcDbDictionary
281
1
  0
DICTIONARY
  5
15
330
A
100
AcDbDictionary
281
1
  0
DICTIONARY
  5
16
330
A
100
AcDbDictionary
281
1
  0
LAYOUT
  5
1A
330
D
100
AcDbPlotSettings
  1

  4
A3
  6

 40
7.5
 41
20.0
 42
7.5
 43
20.0
 44
420.0
 45
297.0
 46
0.0
 47
0.0
 48
0.0
 49
0.0
140
0.0
141
0.0
142
1.0
143
1.0
 70
1024
 72
1
 73
0
 74
5
  7

 75
16
 76
0
 77
2
 78
300
147
1.0
148
0.0
149
0.0
100
AcDbLayout
  1
Model
 70
1
 71
0
 10
0.0
 20
0.0
 11
420.0
 21
297.0
 12
0.0
 22
0.0
 32
0.0
 14
1e+20
 24
1e+20
 34
1e+20
 15
-1e+20
 25
-1e+20
 35
-1e+20
146
0.0
 13
0.0
 23
0.0
 33
0.0
 16
1.0
 26
0.0
 36
0.0
 17
0.0
 27
1.0
 37
0.0
 76
1
330
17
  0
LAYOUT
  5
1E
330
D
100
AcDbPlotSettings
  1

  4
A3
  6

 40
7.5
 41
20.0
 42
7.5
 43
20.0
 44
420.0
 45
297.0
 46
0.0
 47
0.0
 48
0.0
 49
0.0
140
0.0
141
0.0
142
1.0
143
1.0
 70
0
 72
1
 73
0
 74
5
  7

 75
16
 76
0
 77
2
 78
300
147
1.0
148
0.0
149
0.0
100
AcDbLayout
  1
Layout1
 70
1
 71
1
 10
0.0
 20
0.0
 11
420.0
 21
297.0
 12
0.0
 22
0.0
 32
0.0
 14
1e+20
 24
1e+20
 34
1e+20
 15
-1e+20
 25
-1e+20
 35
-1e+20
146
0.0
 13
0.0
 23
0.0
 33
0.0
 16
1.0
 26
0.0
 36
0.0
 17
0.0
 27
1.0
 37
0.0
 76
1
330
1B
  0
MATERIAL
  5
1F
102
{ACAD_REACTORS
330
E
102
}
330
E
100
AcDbMaterial
  1
ByBlock
  2

 70
0
 40
1.0
 71
1
 41
1.0
 91
-1023410177
 42
1.0
 72
1
  3

 73
1
 74
1
 75
1
 44
0.5
 73
0
 45
1.0
 46
1.0
 77
1
  4

 78
1
 79
1
170
1
 48
1.0
171
1
  6

172
1
173
1
174
1
140
1.0
141
1.0
175
1
  7

176
1
177
1
178
1
143
1.0
179
1
  8

270
1
271
1
272
1
145
1.0
146
1.0
273
1
  9

274
1
275
1
276
1
 42
1.0
 72
1
  3

 73
1
 74
1
 75
1
 94
63
  0
MATERIAL
  5
20
102
{ACAD_REACTORS
330
E
102
}
330
E
100
AcDbMaterial
  1
ByLayer
  2

 70
0
 40
1.0
 71
1
 41
1.0
 91
-1023410177
 42
1.0
 72
1
  3

 73
1
 74
1
 75
1
 44
0.5
 73
0
 45
1.0
 46
1.0
 77
1
  4

 78
1
 79
1
170
1
 48
1.0
171
1
  6

172
1
173
1
174
1
140
1.0
141
1.0
175
1
  7

176
1
177
1
178
1
143
1.0
179
1
  8

270
1
271
1
272
1
145
1.0
146
1.0
273
1
  9

274
1
275
1
276
1
 42
1.0
 72
1
  3

 73
1
 74
1
 75
1
 94
63
  0
MATERIAL
  5
21
102
{ACAD_REACTORS
330
E
102
}
330
E
100
AcDbMaterial
  1
Global
  2

 70
0
 40
1.0
 71
1
 41
1.0
 91
-1023410177
 42
1.0
 72
1
  3

 73
1
 74
1
 75
1
 44
0.5
 73
0
 45
1.0
 46
1.0
 77
1
  4

 78
1
 79
1
170
1
 48
1.0
171
1
  6

172
1
173
1
174
1
140
1.0
141
1.0
175
1
  7

176
1
177
1
178
1
143
1.0
179
1
  8

270
1
271
1
272
1
145
1.0
146
1.0
273
1
  9

274
1
275
1
276
1
 42
1.0
 72
1
  3

 73
1
 74
1
 75
1
 94
63
  0
MLINESTYLE
  5
22
102
{ACAD_REACTORS
330
10
102
}
330
10
100
AcDbMlineStyle
  2
Standard
 70
0
  3

 62
256
 51
90.0
 52
90.0
 71
2
 49
0.5
 62
256
  6
BYLAYER
 49
-0.5
 62
256
  6
BYLAYER
  0
MLEADERSTYLE
  5
2C
102
{ACAD_REACTORS
330
F
102
}
330
F
100
AcDbMLeaderStyle
179
2
170
2
171
1
172
0
 90
2
 40
0.0
 41
0.0
173
1
 91
-1056964608
 92
-2
290
1
 42
2.0
291
1
 43
8.0
  3
Standard
 44
4.0
300

342
29
174
1
175
1
176
0
178
1
 93
-1056964608
 45
4.0
292
0
297
0
 46
4.0
 94
-1056964608
 47
1.0
 49
1.0
140
1.0
294
1
141
0.0
177
0
142
1.0
295
0
296
0
143
3.75
271
0
272
9
273
9
  0
DICTIONARY
  5
2D
330
A
100
AcDbDictionary
280
1
281
1
  3
CREATED_BY_EZDXF
350
2E
  3
WRITTEN_BY_EZDXF
350
180
  0
DICTIONARYVAR
  5
2E
330
2D
100
DictionaryVariables
280
0
  1
1.4.4 @ 2026-09-23T02:56:30.428985+00:00
  0
DICTIONARYVAR
  5
180
330
2D
100
DictionaryVariables
280
0
  1
1.4.4 @ 2026-09-23T02:56:30.454398+00:00
  0
ENDSEC
  0
EOF
