  0
SECTION
  2
HEADER
  9
$ACADVER
  1
AC1027
  9
$ACADMAINTVER
 70
105
  9
$DWGCODEPAGE
  3
ANSI_1252
  9
$LASTSAVEDBY
  1
ezdxf
  9
$REQUIREDVERSIONS
160
0
  9
$INSBASE
 10
0.0
 20
0.0
 30
0.0
  9
$EXTMIN
 10
1e+20
 20
1e+20
 30
1e+20
  9
$EXTMAX
 10
-1e+20
 20
-1e+20
 30
-1e+20
  9
$LIMMIN
 10
0.0
 20
0.0
  9
$LIMMAX
 10
420.0
 20
297.0
  9
$ORTHOMODE
 70
0
  9
$REGENMODE
 70
1
  9
$FILLMODE
 70
1
  9
$QTEXTMODE
 70
0
  9
$MIRRTEXT
 70
1
  9
$LTSCALE
 40
1.0
  9
$ATTMODE
 70
1
  9
$TEXTSIZE
 40
2.5
  9
$TRACEWID
 40
1.0
  9
$TEXTSTYLE
  7
Standard
  9
$CLAYER
  8
0
  9
$CELTYPE
  6
ByLayer
  9
$CECOLOR
 62
256
  9
$CELTSCALE
 40
1.0
  9
$DISPSILH
 70
0
  9
$DIMSCALE
 40
1.0
  9
$DIMASZ
 40
2.5
  9
$DIMEXO
 40
0.625
  9
$DIMDLI
 40
3.75
  9
$DIMRND
 40
0.0
  9
$DIMDLE
 40
0.0
  9
$DIMEXE
 40
1.25
  9
$DIMTP
 40
0.0
  9
$DIMTM
 40
0.0
  9
$DIMTXT
 40
2.5
  9
$DIMCEN
 40
2.5
  9
$DIMTSZ
 40
0.0
  9
$DIMTOL
 70
0
  9
$DIMLIM
 70
0
  9
$DIMTIH
 70
0
  9
$DIMTOH
 70
0
  9
$DIMSE1
 70
0
  9
$DIMSE2
 70
0
  9
$DIMTAD
 70
1
  9
$DIMZIN
 70
8
  9
$DIMBLK
  1

  9
$DIMASO
 70
1
  9
$DIMSHO
 70
1
  9
$DIMPOST
  1

  9
$DIMAPOST
  1

  9
$DIMALT
 70
0
  9
$DIMALTD
 70
3
  9
$DIMALTF
 40
0.03937007874
  9
$DIMLFAC
 40
1.0
  9
$DIMTOFL
 70
1
  9
$DIMTVP
 40
0.0
  9
$DIMTIX
 70
0
  9
$DIMSOXD
 70
0
  9
$DIMSAH
 70
0
  9
$DIMBLK1
  1

  9
$DIMBLK2
  1

  9
$DIMSTYLE
  2
ISO-25
  9
$DIMCLRD
 70
0
  9
$DIMCLRE
 70
0
  9
$DIMCLRT
 70
0
  9
$DIMTFAC
 40
1.0
  9
$DIMGAP
 40
0.625
  9
$DIMJUST
 70
0
  9
$DIMSD1
 70
0
  9
$DIMSD2
 70
0
  9
$DIMTOLJ
 70
0
  9
$DIMTZIN
 70
8
  9
$DIMALTZ
 70
0
  9
$DIMALTTZ
 70
0
  9
$DIMUPT
 70
0
  9
$DIMDEC
 70
2
  9
$DIMTDEC
 70
2
  9
$DIMALTU
 70
2
  9
$DIMALTTD
 70
3
  9
$DIMTXSTY
  7
Standard
  9
$DIMAUNIT
 70
0
  9
$DIMADEC
 70
0
  9
$DIMALTRND
 40
0.0
  9
$DIMAZIN
 70
0
  9
$DIMDSEP
 70
44
  9
$DIMATFIT
 70
3
  9
$DIMFRAC
 70
0
  9
$DIMLDRBLK
  1

  9
$DIMLUNIT
 70
2
  9
$DIMLWD
 70
-2
  9
$DIMLWE
 70
-2
  9
$DIMTMOVE
 70
0
  9
$DIMFXL
 40
1.0
  9
$DIMFXLON
 70
0
  9
$DIMJOGANG
 40
0.785398163397
  9
$DIMTFILL
 70
0
  9
$DIMTFILLCLR
 70
0
  9
$DIMARCSYM
 70
0
  9
$DIMLTYPE
  6

  9
$DIMLTEX1
  6

  9
$DIMLTEX2
  6

  9
$DIMTXTDIRECTION
 70
0
  9
$LUNITS
 70
2
  9
$LUPREC
 70
4
  9
$SKETCHINC
 40
1.0
  9
$FILLETRAD
 40
10.0
  9
$AUNITS
 70
0
  9
$AUPREC
 70
2
  9
$MENU
  1
.
  9
$ELEVATION
 40
0.0
  9
$PELEVATION
 40
0.0
  9
$THICKNESS
 40
0.0
  9
$LIMCHECK
 70
0
  9
$CHAMFERA
 40
0.0
  9
$CHAMFERB
 40
0.0
  9
$CHAMFERC
 40
0.0
  9
$CHAMFERD
 40
0.0
  9
$SKPOLY
 70
0
  9
$TDCREATE
 40
2461304.771747685
  9
$TDUCREATE
 40
2458532.153996898
  9
$TDUPDATE
 40
2461304.771747685
  9
$TDUUPDATE
 40
2458532.1544311
  9
$TDINDWG
 40
0.0
  9
$TDUSRTIMER
 40
0.0
  9
$USRTIMER
 70
1
  9
$ANGBASE
 50
0.0
  9
$ANGDIR
 70
0
  9
$PDMODE
 70
0
  9
$PDSIZE
 40
0.0
  9
$PLINEWID
 40
0.0
  9
$SPLFRAME
 70
0
  9
$SPLINETYPE
 70
6
  9
$SPLINESEGS
 70
8
  9
$HANDSEED
  5
6A
  9
$SURFTAB1
 70
6
  9
$SURFTAB2
 70
6
  9
$SURFTYPE
 70
6
  9
$SURFU
 70
6
  9
$SURFV
 70
6
  9
$UCSBASE
  2

  9
$UCSNAME
  2

  9
$UCSORG
 10
0.0
 20
0.0
 30
0.0
  9
$UCSXDIR
 10
1.0
 20
0.0
 30
0.0
  9
$UCSYDIR
 10
0.0
 20
1.0
 30
0.0
  9
$UCSORTHOREF
  2

  9
$UCSORTHOVIEW
 70
0
  9
$UCSORGTOP
 10
0.0
 20
0.0
 30
0.0
  9
$UCSORGBOTTOM
 10
0.0
 20
0.0
 30
0.0
  9
$UCSORGLEFT
 10
0.0
 20
0.0
 30
0.0
  9
$UCSORGRIGHT
 10
0.0
 20
0.0
 30
0.0
  9
$UCSORGFRONT
 10
0.0
 20
0.0
 30
0.0
  9
$UCSORGBACK
 10
0.0
 20
0.0
 30
0.0
  9
$PUCSBASE
  2

  9
$PUCSNAME
  2

  9
$PUCSORG
 10
0.0
 20
0.0
 30
0.0
  9
$PUCSXDIR
 10
1.0
 20
0.0
 30
0.0
  9
$PUCSYDIR
 10
0.0
 20
1.0
 30
0.0
  9
$PUCSORTHOREF
  2

  9
$PUCSORTHOVIEW
 70
0
  9
$PUCSORGTOP
 10
0.0
 20
0.0
 30
0.0
  9
$PUCSORGBOTTOM
 10
0.0
 20
0.0
 30
0.0
  9
$PUCSORGLEFT
 10
0.0
 20
0.0
 30
0.0
  9
$PUCSORGRIGHT
 10
0.0
 20
0.0
 30
0.0
  9
$PUCSORGFRONT
 10
0.0
 20
0.0
 30
0.0
  9
$PUCSORGBACK
 10
0.0
 20
0.0
 30
0.0
  9
$USERI1
 70
0
  9
$USERI2
 70
0
  9
$USERI3
 70
0
  9
$USERI4
 70
0
  9
$USERI5
 70
0
  9
$USERR1
 40
0.0
  9
$USERR2
 40
0.0
  9
$USERR3
 40
0.0
  9
$USERR4
 40
0.0
  9
$USERR5
 40
0.0
  9
$WORLDVIEW
 70
1
  9
$SHADEDGE
 70
3
  9
$SHADEDIF
 70
70
  9
$TILEMODE
 70
1
  9
$MAXACTVP
 70
64
  9
$PINSBASE
 10
0.0
 20
0.0
 30
0.0
  9
$PLIMCHECK
 70
0
  9
$PEXTMIN
 10
1e+20
 20
1e+20
 30
1e+20
  9
$PEXTMAX
 10
-1e+20
 20
-1e+20
 30
-1e+20
  9
$PLIMMIN
 10
0.0
 20
0.0
  9
$PLIMMAX
 10
420.0
 20
297.0
  9
$UNITMODE
 70
0
  9
$VISRETAIN
 70
1
  9
$PLINEGEN
 70
0
  9
$PSLTSCALE
 70
1
  9
$TREEDEPTH
 70
3020
  9
$CMLSTYLE
  2
Standard
  9
$CMLJUST
 70
0
  9
$CMLSCALE
 40
20.0
  9
$PROXYGRAPHICS
 70
1
  9
$MEASUREMENT
 70
1
  9
$CELWEIGHT
370
-1
  9
$ENDCAPS
280
0
  9
$JOINSTYLE
280
0
  9
$LWDISPLAY
290
0
  9
$INSUNITS
 70
4
  9
$HYPERLINKBASE
  1

  9
$STYLESHEET
  1

  9
$XEDIT
290
1
  9
$CEPSNTYPE
380
0
  9
$PSTYLEMODE
290
1
  9
$FINGERPRINTGUID
  2
{1F769465-7F05-4F9A-AF96-806E26BA057B}
  9
$VERSIONGUID
  2
{F616F943-79DA-41E9-8A25-64CF5DC589D6}
  9
$EXTNAMES
290
1
  9
$PSVPSCALE
 40
0.0
  9
$OLESTARTUP
290
0
  9
$SORTENTS
280
127
  9
$INDEXCTL
280
0
  9
$HIDETEXT
280
1
  9
$XCLIPFRAME
280
1
  9
$HALOGAP
280
0
  9
$OBSCOLOR
 70
257
  9
$OBSLTYPE
280
0
  9
$INTERSECTIONDISPLAY
280
0
  9
$INTERSECTIONCOLOR
 70
257
  9
$DIMASSOC
280
2
  9
$PROJECTNAME
  1

  9
$CAMERADISPLAY
290
0
  9
$LENSLENGTH
 40
50.0
  9
$CAMERAHEIGHT
 40
0.0
  9
$STEPSPERSEC
 40
24.0
  9
$STEPSIZE
 40
100.0
  9
$3DDWFPREC
 40
2.0
  9
$PSOLWIDTH
 40
0.005
  9
$PSOLHEIGHT
 40
0.08
  9
$LOFTANG1
 40
1.570796326795
  9
$LOFTANG2
 40
1.570796326795
  9
$LOFTMAG1
 40
0.0
  9
$LOFTMAG2
 40
0.0
  9
$LOFTPARAM
 70
7
  9
$LOFTNORMALS
280
1
  9
$LATITUDE
 40
37.795
  9
$LONGITUDE
 40
-122.394
  9
$NORTHDIRECTION
 40
0.0
  9
$TIMEZONE
 70
-8000
  9
$LIGHTGLYPHDISPLAY
280
1
  9
$TILEMODELIGHTSYNCH
280
1
  9
$CMATERIAL
347
20
  9
$SOLIDHIST
280
0
  9
$SHOWHIST
280
1
  9
$DWFFRAME
280
2
  9
$DGNFRAME
280
2
  9
$REALWORLDSCALE
290
1
  9
$INTERFERECOLOR
 62
256
  9
$CSHADOW
280
0
  9
$SHADOWPLANELOCATION
 40
0.0
  0
ENDSEC
  0
SECTION
  2
CLASSES
  0
CLASS
  1
ACDBDICTIONARYWDFLT
  2
AcDbDictionaryWithDefault
  3
ObjectDBX Classes
 90
0
 91
0
280
0
281
0
  0
CLASS
  1
SUN
  2
AcDbSun
  3
SCENEOE
 90
1153
 91
0
280
0
281
0
  0
CLASS
  1
VISUALSTYLE
  2
AcDbVisualStyle
  3
ObjectDBX Classes
 90
4095
 91
0
280
0
281
0
  0
CLASS
  1
MATERIAL
  2
AcDbMaterial
  3
ObjectDBX Classes
 90
1153
 91
0
280
0
281
0
  0
CLASS
  1
SCALE
  2
AcDbScale
  3
ObjectDBX Classes
 90
1153
 91
0
280
0
281
0
  0
CLASS
  1
TABLESTYLE
  2
AcDbTableStyle
  3
ObjectDBX Classes
 90
4095
 91
0
280
0
281
0
  0
CLASS
  1
MLEADERSTYLE
  2
AcDbMLeaderStyle
  3
ACDB_MLEADERSTYLE_CLASS
 90
4095
 91
0
280
0
281
0
  0
CLASS
  1
DICTIONARYVAR
  2
AcDbDictionaryVar
  3
ObjectDBX Classes
 90
0
 91
0
280
0
281
0
  0
CLASS
  1
CELLSTYLEMAP
  2
AcDbCellStyleMap
  3
ObjectDBX Classes
 90
1152
 91
0
280
0
281
0
  0
CLASS
  1
MENTALRAYRENDERSETTINGS
  2
AcDbMentalRayRenderSettings
  3
SCENEOE
 90
1024
 91
0
280
0
281
0
  0
CLASS
  1
ACDBDETAILVIEWSTYLE
  2
AcDbDetailViewStyle
  3
ObjectDBX Classes
 90
1025
 91
0
280
0
281
0
  0
CLASS
  1
ACDBSECTIONVIEWSTYLE
  2
AcDbSectionViewStyle
  3
ObjectDBX Classes
 90
1025
 91
0
280
0
281
0
  0
CLASS
  1
RASTERVARIABLES
  2
AcDbRasterVariables
  3
ISM
 90
0
 91
0
280
0
281
0
  0
CLASS
  1
ACDBPLACEHOLDER
  2
AcDbPlaceHolder
  3
ObjectDBX Classes
 90
0
 91
0
280
0
281
0
  0
CLASS
  1
LAYOUT
  2
AcDbLayout
  3
ObjectDBX Classes
 90
0
 91
0
280
0
281
0
  0
ENDSEC
  0
SECTION
  2
TABLES
  0
TABLE
  2
VPORT
  5
8
330
0
100
AcDbSymbolTable
 70
1
  0
VPORT
  5
4B
330
8
100
AcDbSymbolTableRecord
100
AcDbViewportTableRecord
  2
*Active
 70
0
 10
0.0
 20
0.0
 11
1.0
 21
1.0
 12
58.51279384886199
 22
7.317241123536962
 13
0.0
 23
0.0
 14
0.5
 24
0.5
 15
0.5
 25
0.5
 16
0.0
 26
0.0
 36
1.0
 17
0.0
 27
0.0
 37
0.0
 40
58.512793748861995
 41
1.34
 42
50.0
 43
0.0
 44
0.0
 50
0.0
 51
0.0
 71
0
 72
1000
 73
1
 74
3
 75
0
 76
0
 77
0
 78
0
281
0
 65
1
110
0.0
120
0.0
130
0.0
111
1.0
121
0.0
131
0.0
112
0.0
122
1.0
132
0.0
 79
0
146
0.0
  0
ENDTAB
  0
TABLE
  2
LTYPE
  5
2
330
0
100
AcDbSymbolTable
 70
3
  0
LTYPE
  5
24
330
2
100
AcDbSymbolTableRecord
100
AcDbLinetypeTableRecord
  2
ByBlock
 70
0
  3

 72
65
 73
0
 40
0.0
  0
LTYPE
  5
25
330
2
100
AcDbSymbolTableRecord
100
AcDbLinetypeTableRecord
  2
ByLayer
 70
0
  3

 72
65
 73
0
 40
0.0
  0
LTYPE
  5
26
330
2
100
AcDbSymbolTableRecord
100
AcDbLinetypeTableRecord
  2
Continuous
 70
0
  3

 72
65
 73
0
 40
0.0
  0
ENDTAB
  0
TABLE
  2
LAYER
  5
1
330
0
100
AcDbSymbolTable
 70
5
  0
LAYER
  5
27
330
1
100
AcDbSymbolTableRecord
100
AcDbLayerTableRecord
  2
0
 70
0
 62
7
  6
Continuous
370
-3
390
13
347
21
  0
LAYER
  5
28
330
1
100
AcDbSymbolTableRecord
100
AcDbLayerTableRecord
  2
Defpoints
 70
0
 62
7
  6
Continuous
290
0
370
-3
390
13
347
21
  0
LAYER
  5
4F
330
1
100
AcDbSymbolTableRecord
100
AcDbLayerTableRecord
  2
CUT
 70
0
 62
1
  6
Continuous
370
-3
390
13
347
21
  0
LAYER
  5
50
330
1
100
AcDbSymbolTableRecord
100
AcDbLayerTableRecord
  2
LABELS_NONCUT
 70
0
 62
7
  6
Continuous
370
-3
390
13
347
21
  0
LAYER
  5
52
330
1
100
AcDbSymbolTableRecord
100
AcDbLayerTableRecord
  2
SANDING_GUIDE_NONCUT
 70
0
 62
5
  6
Continuous
370
-3
390
13
347
21
  0
ENDTAB
  0
TABLE
  2
STYLE
  5
5
330
0
100
AcDbSymbolTable
 70
1
  0
STYLE
  5
29
330
5
100
AcDbSymbolTableRecord
100
AcDbTextStyleTableRecord
  2
Standard
 70
0
 40
0.0
 41
1.0
 50
0.0
 71
0
 42
2.5
  3
txt
  4

  0
ENDTAB
  0
TABLE
  2
VIEW
  5
7
330
0
100
AcDbSymbolTable
 70
0
  0
ENDTAB
  0
TABLE
  2
UCS
  5
6
330
0
100
AcDbSymbolTable
 70
0
  0
ENDTAB
  0
TABLE
  2
APPID
  5
3
330
0
100
AcDbSymbolTable
 70
3
  0
APPID
  5
2A
330
3
100
AcDbSymbolTableRecord
100
AcDbRegAppTableRecord
  2
ACAD
 70
0
  0
APPID
  5
4C
330
3
100
AcDbSymbolTableRecord
100
AcDbRegAppTableRecord
  2
HATCHBACKGROUNDCOLOR
 70
0
  0
APPID
  5
4D
330
3
100
AcDbSymbolTableRecord
100
AcDbRegAppTableRecord
  2
EZDXF
 70
0
  0
ENDTAB
  0
TABLE
  2
DIMSTYLE
  5
4
330
0
100
AcDbSymbolTable
 70
1
100
AcDbDimStyleTable
  0
DIMSTYLE
105
2B
330
4
100
AcDbSymbolTableRecord
100
AcDbDimStyleTableRecord
  2
Standard
 70
0
 40
1.0
 41
2.5
 42
0.625
 43
3.75
 44
1.25
 45
0.0
 46
0.0
 47
0.0
 48
0.0
 49
2.5
140
2.5
141
2.5
142
0.0
143
0.03937007874
144
1.0
145
0.0
146
1.0
147
0.625
148
0.0
 69
0
 70
0
 71
0
 72
0
 73
0
 74
0
 75
0
 76
0
 77
1
 78
8
 79
3
170
0
171
3
172
1
173
0
174
0
175
0
176
0
177
0
178
0
179
2
271
2
272
2
273
2
274
3
275
0
276
0
277
2
278
44
279
0
280
0
281
0
282
0
283
0
284
8
285
0
286
0
288
0
289
3
290
0
371
-2
372
-2
  0
ENDTAB
  0
TABLE
  2
BLOCK_RECORD
  5
9
330
0
100
AcDbSymbolTable
 70
2
  0
BLOCK_RECORD
  5
17
330
9
100
AcDbSymbolTableRecord
100
AcDbBlockTableRecord
  2
*Model_Space
340
1A
 70
0
280
1
281
0
  0
BLOCK_RECORD
  5
1B
330
9
100
AcDbSymbolTableRecord
100
AcDbBlockTableRecord
  2
*Paper_Space
340
1E
 70
0
280
1
281
0
  0
ENDTAB
  0
ENDSEC
  0
SECTION
  2
BLOCKS
  0
BLOCK
  5
18
330
17
100
AcDbEntity
  8
0
100
AcDbBlockBegin
  2
*Model_Space
 70
0
 10
0.0
 20
0.0
 30
0.0
  3
*Model_Space
  1

  0
ENDBLK
  5
19
330
17
100
AcDbEntity
  8
0
100
AcDbBlockEnd
  0
BLOCK
  5
1C
330
1B
100
AcDbEntity
  8
0
100
AcDbBlockBegin
  2
*Paper_Space
 70
0
 10
0.0
 20
0.0
 30
0.0
  3
*Paper_Space
  1

  0
ENDBLK
  5
1D
330
1B
100
AcDbEntity
  8
0
100
AcDbBlockEnd
  0
ENDSEC
  0
SECTION
  2
ENTITIES
  0
LINE
  5
2F
330
17
100
AcDbEntity
  8
CUT
100
AcDbLine
 10
62.874197822044
 20
0.028463613392173848
 30
1.0735627736503374e-07
 11
74.33058641092401
 21
0.03797847334717375
 31
1.0735838057153159e-07
  0
LINE
  5
30
330
17
100
AcDbEntity
  8
CUT
100
AcDbLine
 10
74.33058641092401
 20
0.03797847334717375
 30
1.0735838057153159e-07
 11
74.33057923645401
 21
0.046617473054173963
 31
1.0736520178179489e-07
  0
LINE
  5
31
330
17
100
AcDbEntity
  8
CUT
100
AcDbLine
 10
74.33057923645401
 20
0.046617473054173963
 30
1.0736520178179489e-07
 11
79.276273978174
 21
5.005214645691201
 31
1.0735900584913906e-07
  0
LINE
  5
32
330
17
100
AcDbEntity
  8
CUT
100
AcDbLine
 10
79.276273978174
 20
5.005214645691201
 30
1.0735900584913906e-07
 11
117.02558759772398
 21
5.0727481427941985
 31
1.0735639105187146e-07
  0
SPLINE
  5
33
330
17
100
AcDbEntity
  8
CUT
100
AcDbSpline
 70
0
 71
3
 72
79
 73
75
 74
0
 40
0.0
 40
0.0
 40
0.0
 40
0.0
 40
0.08834766141539761
 40
0.1325214921230964
 40
0.1546084074815893
 40
0.17669532283079523
 40
0.17669532283079523
 40
0.1850745393942633
 40
0.19345375594844444
 40
0.21021218906609468
 40
0.21021218906609468
 40
0.251918080800938
 40
0.251918080800938
 40
0.2823136719078375
 40
0.3127092630240239
 40
0.3431048541309234
 40
0.3735004452378229
 40
0.40389603634472293
 40
0.4342916274516224
 40
0.4646872185585219
 40
0.49508280967470836
 40
0.5254784007816078
 40
0.5558739918885073
 40
0.5862695829954068
 40
0.6166651741023068
 40
0.6470607652092063
 40
0.6774563563161058
 40
0.7078519474322922
 40
0.7382475385391917
 40
0.7382475385391917
 40
0.738375542944118
 40
0.7385035473490448
 40
0.7387595561588974
 40
0.7392715737786031
 40
0.7402956090087274
 40
0.7413196442481382
 40
0.7423436794875495
 40
0.7443917499663721
 40
0.7464398204359073
 40
0.7505359613842656
 40
0.7525840318630878
 40
0.7546321023326233
 40
0.7628243842386259
 40
0.7669205251869837
 40
0.771016666135342
 40
0.7751128070836998
 40
0.7792089480413444
 40
0.78740122993806
 40
0.8037857937407786
 40
0.8201703575342103
 40
0.8283626394402128
 40
0.8324587803885711
 40
0.8365549213369289
 40
0.8406510622852867
 40
0.8447472032336445
 40
0.8529394851396476
 40
0.8549875556091827
 40
0.8570356260880053
 40
0.8611317670363631
 40
0.8631798375151857
 40
0.8652279079847209
 40
0.8662519432241322
 40
0.8672759784635435
 40
0.8683000137029548
 40
0.8688120313226599
 40
0.869068040132513
 40
0.8691960445374394
 40
0.8693240489423656
 40
0.8693240489423656
 40
0.8693240489423656
 40
0.9019930366998091
 40
0.9346620244665391
 40
0.9673310122332696
 40
1.0
 40
1.0
 40
1.0
 40
1.0
 10
117.02558759772398
 20
5.0727481427942
 30
1.0735641353676328e-07
 10
115.782305928044
 20
5.346201824547197
 30
1.0735647038018215e-07
 10
113.84011038417398
 20
5.767909838570205
 30
1.0599950428513694e-07
 10
111.54552428093399
 20
6.253326888477208
 30
1.0588399845801177e-07
 10
110.242888749164
 20
6.525004475201207
 30
1.0559074326010887e-07
 10
109.59735460209399
 20
6.658303132705207
 30
1.0548882301009144e-07
 10
109.155180138504
 20
6.7491413447432045
 30
1.054497147379152e-07
 10
108.911748080134
 20
6.799065940148207
 30
1.0542902373344987e-07
 10
108.42341342129399
 20
6.898884056672209
 30
1.0542481732045417e-07
 10
108.05562065127398
 20
6.973682154528213
 30
1.0538013839322957e-07
 10
107.197815805474
 20
7.147534266142205
 30
1.0526474625294213e-07
 10
106.58170487998399
 20
7.271340576929212
 30
1.0513787174204481e-07
 10
105.50963960209398
 20
7.48483618411921
 30
1.0495784863451263e-07
 10
104.608279416414
 20
7.663159975800216
 30
1.0468471600688645e-07
 10
103.26735420173398
 20
7.924845235298214
 30
1.0437213404657086e-07
 10
101.944579869124
 20
8.179248520997216
 30
1.0403738315289957e-07
 10
100.63926719865398
 20
8.426624557095217
 30
1.0360605529058375e-07
 10
99.289825887534
 20
8.679351699760218
 30
1.0343524081690703e-07
 10
97.92641821824398
 20
8.930897455891223
 30
1.0304722763976315e-07
 10
96.56402065974399
 20
9.17818890252222
 30
1.0265216587868053e-07
 10
95.211690728934
 20
9.41931863413922
 30
1.0225801361229969e-07
 10
93.90303196522399
 20
9.648001425194224
 30
1.0180144727200968e-07
 10
92.60945184042399
 20
9.869908564990226
 30
1.0164382047150866e-07
 10
91.252381565924
 20
10.099307022666224
 30
1.0128309213541797e-07
 10
89.880909563794
 20
10.32656663939223
 30
1.0120891147380462e-07
 10
88.50779089835399
 20
10.549303504348227
 30
1.0087109103551484e-07
 10
87.149201613184
 20
10.764518705669229
 30
1.0060739441541955e-07
 10
85.84115837440399
 20
10.966364211874229
 30
1.003181182568369e-07
 10
84.976234022234
 20
11.096683411945232
 30
1.000554448182811e-07
 10
84.525983692854
 20
11.163901369080232
 30
9.999712347052991e-08
 10
84.522223289724
 20
11.164462455080233
 30
1.0000377415053663e-07
 10
84.51469240361399
 20
11.16558618221023
 30
9.999712347052991e-08
 10
84.501515362774
 20
11.167552046720232
 30
9.999541816796409e-08
 10
84.47514767113398
 20
11.17148474732323
 30
1.0000223937822739e-07
 10
84.437452931764
 20
11.177103617002231
 30
9.999911299019004e-08
 10
84.39217316244398
 20
11.183847988389232
 30
1.0000957217926043e-07
 10
84.33174223405399
 20
11.192842174460232
 30
1.0000695738199283e-07
 10
84.256094650704
 20
11.204088088114233
 30
1.0002162298405892e-07
 10
84.13483937107398
 20
11.222085967097232
 30
1.0002747785620159e-07
 10
84.01326383213399
 20
11.240088781305232
 30
1.0007391892941087e-07
 10
83.89140286003399
 20
11.258090288509234
 30
1.0008017170548555e-07
 10
83.708336283194
 20
11.285089308614232
 30
1.000943257167819e-07
 10
83.49398193235399
 20
11.316573674972233
 30
1.0026116115113837e-07
 10
83.248195795784
 20
11.352490981472233
 30
1.0028526276073535e-07
 10
83.06349413051399
 20
11.379388888739232
 30
1.0032937325377134e-07
 10
82.878486723404
 20
11.406236975512233
 30
1.003685952127853e-07
 10
82.63147363197399
 20
11.441955785061232
 30
1.0041293307949672e-07
 10
82.19848977446398
 20
11.504228035293231
 30
1.0053690857603215e-07
 10
81.578918025034
 20
11.592346028686233
 30
1.0111966730619315e-07
 10
80.960711756134
 20
11.678904542092233
 30
1.0168577091462794e-07
 10
80.53006070436399
 20
11.738470282690237
 30
1.0180804110859754e-07
 10
80.28475250520398
 20
11.772189559723234
 30
1.0185158316744491e-07
 10
80.101203755554
 20
11.797313863253237
 30
1.0188767873842153e-07
 10
79.918133290154
 20
11.822266751732236
 30
1.0192655963692232e-07
 10
79.67474162683399
 20
11.855299965519237
 30
1.0195117283728905e-07
 10
79.46275374990398
 20
11.883885382278237
 30
1.020968625198293e-07
 10
79.281884976544
 20
11.908141567253235
 30
1.0211556400463451e-07
 10
79.161532054254
 20
11.924246552880234
 30
1.0212147572019603e-07
 10
79.04152567399399
 20
11.940252055141237
 30
1.021573439174972e-07
 10
78.921894770564
 20
11.956154314277235
 30
1.0216280088570784e-07
 10
78.84728404026399
 20
11.966050036875234
 30
1.0217189583272557e-07
 10
78.78769439947399
 20
11.973940210616234
 30
1.0217848966931342e-07
 10
78.74305199891398
 20
11.979844609742237
 30
1.0218457191513153e-07
 10
78.705891759324
 20
11.984753897396235
 30
1.0218030865871697e-07
 10
78.67990242572398
 20
11.988184475443237
 30
1.0218661827821052e-07
 10
78.66691297726399
 20
11.989898356036235
 30
1.021796833811095e-07
 10
78.65949269711399
 20
11.990877202046235
 30
1.0217854651273228e-07
 10
78.655781974114
 20
11.991366647992237
 30
1.0217792123512481e-07
 10
78.653928739094
 20
11.991611046412235
 30
1.021825823954714e-07
 10
78.18095038691399
 20
12.053985845287237
 30
1.0248021453662659e-07
 10
77.26349559118401
 20
12.172701416757235
 30
1.0403766736999387e-07
 10
75.806879593324
 20
12.356024379961234
 30
1.0436230013510794e-07
 10
74.335610715364
 20
12.534658617020238
 30
1.0576769682302256e-07
 10
73.35386301341399
 20
12.649482452270238
 30
1.0734999023043201e-07
 10
72.86879340318401
 20
12.705068086466238
 30
1.0735743671830278e-07
  0
LINE
  5
34
330
17
100
AcDbEntity
  8
CUT
100
AcDbLine
 10
72.86879340319399
 20
12.705068086480235
 30
1.0735741423341096e-07
 11
72.875192282514
 21
5.0005228012872
 31
1.0735047933630994e-07
  0
LINE
  5
35
330
17
100
AcDbEntity
  8
CUT
100
AcDbLine
 10
72.875192282514
 20
5.0005228012872
 30
1.0735047933630994e-07
 11
67.875183053684
 21
5.009518845395199
 31
1.0735877847546362e-07
  0
LINE
  5
36
330
17
100
AcDbEntity
  8
CUT
100
AcDbLine
 10
67.875183053684
 20
5.009518845395199
 30
1.0735877847546362e-07
 11
67.86834592956399
 21
13.241773440875242
 31
1.073528667599021e-07
  0
SPLINE
  5
37
330
17
100
AcDbEntity
  8
CUT
100
AcDbSpline
 70
0
 71
3
 72
67
 73
63
 74
0
 40
0.0
 40
0.0
 40
0.0
 40
0.0
 40
0.04774970444596512
 40
0.09549940890631951
 40
0.14324911335228463
 40
0.19099881781263903
 40
0.19099881781263903
 40
0.1913718623721026
 40
0.1913718623721026
 40
0.19174490694595625
 40
0.1924909960792735
 40
0.19398317433151793
 40
0.19547535259815244
 40
0.19696753086478694
 40
0.19995188739805594
 40
0.20293624391693565
 40
0.20890495698347286
 40
0.21188931350235257
 40
0.21487367003562158
 40
0.2268110961543075
 40
0.2327798092064554
 40
0.23874852225860332
 40
0.24471723532514134
 40
0.25068594837729
 40
0.26262337449597595
 40
0.28649822671895775
 40
0.3103730789419403
 40
0.33424793116492285
 40
0.35812278340229464
 40
0.3700602095065913
 40
0.3819976356252772
 40
0.3819976356252772
 40
0.42643607173172665
 40
0.4375456807619365
 40
0.4486552897921456
 40
0.45976489882235544
 40
0.4708745078381761
 40
0.493093725898595
 40
0.49864853041369994
 40
0.5042033349288049
 40
0.506980737186357
 40
0.5097581394439098
 40
0.5153129439590147
 40
0.5264225529748345
 40
0.5375321620050444
 40
0.5430869665201493
 40
0.5486417710352542
 40
0.5541965755503584
 40
0.5569739778079112
 40
0.5583626789366873
 40
0.5590570294938811
 40
0.5597513800654633
 40
0.5597513800654633
 40
0.6283722202796671
 40
0.6969930605082593
 40
0.7656139007224622
 40
0.8342347409510552
 40
0.8342347409510552
 40
0.8732742543503105
 40
0.9123137677639551
 40
0.9123137677639551
 40
1.0
 40
1.0
 40
1.0
 40
1.0
 10
67.86834592955401
 20
13.241773440866243
 30
1.0735288924479391e-07
 10
67.32709117484401
 20
13.295876706607242
 30
1.073562430065067e-07
 10
66.24843254798398
 20
13.400870831026243
 30
1.0719037391027086e-07
 10
64.660838175544
 20
13.546937988647244
 30
1.069678319254308e-07
 10
63.09891819264399
 20
13.682061423635243
 30
1.0689518603612669e-07
 10
62.10092791182399
 20
13.762754657219244
 30
1.0670436267901096e-07
 10
61.58296701211398
 20
13.803405674961244
 30
1.06696177226695e-07
 10
61.578949964433974
 20
13.803720885795244
 30
1.0669816674635513e-07
 10
61.57091296791398
 20
13.804351394058244
 30
1.066919708136993e-07
 10
61.558855924634
 20
13.805297024385244
 30
1.0669793937267968e-07
 10
61.53070154809399
 20
13.807503559958242
 30
1.0670163419490564e-07
 10
61.49042661131401
 20
13.810655314121242
 30
1.0670117944755475e-07
 10
61.442009114163994
 20
13.814436740482243
 30
1.0669464245438576e-07
 10
61.37733890292398
 20
13.819477377099243
 30
1.0669577932276297e-07
 10
61.29628992873401
 20
13.825775434279244
 30
1.0670441952242982e-07
 10
61.166180861213974
 20
13.835844397077242
 30
1.0670544270396931e-07
 10
61.03544262155398
 20
13.845898723246247
 30
1.0671516292859451e-07
 10
60.904130698683986
 20
13.855932514918248
 30
1.0672283679014072e-07
 10
60.70660782796401
 20
13.870960037849247
 30
1.0672704320313642e-07
 10
60.47459355324398
 20
13.888416874533245
 30
1.0677780437617912e-07
 10
60.207693063514
 20
13.908221188235245
 30
1.0678701301003457e-07
 10
60.006721001683985
 20
13.922991753761245
 30
1.0679571005312027e-07
 10
59.80504446967399
 20
13.937669963395248
 30
1.0680520290407003e-07
 10
59.53531912961401
 20
13.957105387361246
 30
1.0682765605452005e-07
 10
59.061426959833994
 20
13.990731411204248
 30
1.0686090945455362e-07
 10
58.38071478456399
 20
14.037497416145246
 30
1.07059634046891e-07
 10
57.563223166254005
 20
14.091116018746245
 30
1.0722743581936811e-07
 10
56.74991853943399
 20
14.141869002816247
 30
1.0741729283836321e-07
 10
56.07949963428399
 20
14.181541925105243
 30
1.0760351187855122e-07
 10
55.54979666687399
 20
14.211609643248245
 30
1.0766439118015114e-07
 10
55.28752041130397
 20
14.226075004448248
 30
1.0768758329504635e-07
 10
54.67134163265399
 20
14.259563817625246
 30
1.0783890047605382e-07
 10
54.089787381104
 20
14.289367057075246
 30
1.081774598787888e-07
 10
53.36737531825398
 20
14.324068695006247
 30
1.0817927886819234e-07
 10
53.002511885004
 20
14.341092732698247
 30
1.081977529793221e-07
 10
52.63428967057399
 20
14.357769011501247
 30
1.0822151352840592e-07
 10
52.139570913634
 20
14.379479149836246
 30
1.0824089713423746e-07
 10
51.702454902743995
 20
14.397732920140246
 30
1.083287202163774e-07
 10
51.325924073744005
 20
14.412773935747246
 30
1.0832917496372829e-07
 10
51.168761863073996
 20
14.418938413498246
 30
1.083307665794564e-07
 10
51.04289414390399
 20
14.423806885966247
 30
1.0833969099621754e-07
 10
50.916943144214
 20
14.428632911106245
 30
1.0833434771484463e-07
 10
50.69632909805401
 20
14.436966015107245
 30
1.0834878594323527e-07
 10
50.38072446198399
 20
14.448543273965246
 30
1.0836663477675756e-07
 10
50.06487218825899
 20
14.459670774306247
 30
1.0838931530088303e-07
 10
49.81224510206599
 20
14.468296495113247
 30
1.0839579545063316e-07
 10
49.62284562547498
 20
14.474626595972246
 30
1.0839664810191607e-07
 10
49.465114126294
 20
14.479784680925246
 30
1.0840727782124304e-07
 10
49.35477329467099
 20
14.483333671835247
 30
1.084025598174776e-07
 10
49.29962783237701
 20
14.485092522728245
 30
1.0840369668585481e-07
 10
49.26811684380098
 20
14.486093384130246
 30
1.0840665254363557e-07
 10
49.252372835942
 20
14.486591956113248
 30
1.0840801678568823e-07
 10
48.46529345070198
 20
14.511493679754246
 30
1.0839193009815062e-07
 10
46.92768434864499
 20
14.55309886432125
 30
1.0817416296049487e-07
 10
44.71848935871799
 20
14.59520846707425
 30
1.0811282891154406e-07
 10
42.40900189610798
 20
14.62286032760425
 30
1.0793928595376201e-07
 10
40.89035564588798
 20
14.63074671205625
 30
1.0774681413749931e-07
 10
39.709644031035
 20
14.63393322952125
 30
1.0765467095552594e-07
 10
38.770581872473
 20
14.63503106462625
 30
1.0763289992610225e-07
 10
37.891964422987
 20
14.632032374170251
 30
1.0759509905255982e-07
 10
36.45109556886601
 20
14.623587717905249
 30
1.0751756462923368e-07
 10
35.45270830323298
 20
14.611880759477248
 30
1.073759676728514e-07
 10
34.467234828594
 20
14.59222317726325
 30
1.0735561772889923e-07
  0
LINE
  5
38
330
17
100
AcDbEntity
  8
CUT
100
AcDbLine
 10
34.467220175215
 20
14.59222293206825
 30
1.0734559080228791e-07
 11
34.475247406632
 21
4.9181753950432
 31
1.0735076355340424e-07
  0
LINE
  5
39
330
17
100
AcDbEntity
  8
CUT
100
AcDbLine
 10
34.475247406632
 20
4.9181753950432
 30
1.0735076355340424e-07
 11
29.475249131077
 21
4.914022752786201
 31
1.0734979721528361e-07
  0
LINE
  5
3A
330
17
100
AcDbEntity
  8
CUT
100
AcDbLine
 10
29.475249131077
 20
4.914022752786201
 30
1.0734979721528361e-07
 11
29.467362281427008
 21
14.410201864593247
 31
1.0735843741495045e-07
  0
SPLINE
  5
3B
330
17
100
AcDbEntity
  8
CUT
100
AcDbSpline
 70
0
 71
3
 72
266
 73
262
 74
0
 40
0.0
 40
0.0
 40
0.0
 40
0.0
 40
0.007042020375344027
 40
0.014084040747652161
 40
0.02112606112299602
 40
0.028168081498340047
 40
0.035210101873683904
 40
0.04225212224599204
 40
0.049294142621336065
 40
0.05633616299667993
 40
0.06337818337202396
 40
0.07042020374736781
 40
0.07746222411967595
 40
0.08450424449501998
 40
0.09154626487036382
 40
0.09858828524570785
 40
0.10563030562105172
 40
0.11267232599335986
 40
0.11267232599335986
 40
0.12001754109781516
 40
0.12736275619923476
 40
0.13470797130065434
 40
0.14205318640207396
 40
0.14939840150652925
 40
0.15674361660794886
 40
0.16408883170936844
 40
0.17143404681382376
 40
0.17877926191524335
 40
0.18612447701666293
 40
0.19346969211808238
 40
0.20081490722253784
 40
0.20816012232395728
 40
0.21550533742537686
 40
0.22285055252679645
 40
0.23019576763125177
 40
0.23019576763125177
 40
0.2385027511295026
 40
0.2468097346277534
 40
0.25511671812600417
 40
0.263423701624255
 40
0.26757719337186253
 40
0.2717306851225058
 40
0.2800376686207565
 40
0.28834465211900734
 40
0.29665163561725816
 40
0.29665163561725816
 40
0.3023576586480364
 40
0.30806368167577874
 40
0.31376970470655696
 40
0.3194757277373353
 40
0.32518175076811345
 40
0.33088777379889167
 40
0.3365937968266341
 40
0.34229981985741237
 40
0.3480058428881906
 40
0.3537118659189688
 40
0.35941788894974697
 40
0.36512391197748945
 40
0.37082993500826766
 40
0.3765359580390459
 40
0.3822419810698241
 40
0.3879480041006023
 40
0.3936540271283448
 40
0.39936005015912296
 40
0.4050660731899012
 40
0.4107720962206794
 40
0.4164781192514576
 40
0.4221841422792001
 40
0.4278901653099783
 40
0.4335961883407565
 40
0.4393022113715347
 40
0.445008234402313
 40
0.4507142574300554
 40
0.4564202804608336
 40
0.4621263034916118
 40
0.4678323265223901
 40
0.4735383495531683
 40
0.47924437258394653
 40
0.47924437258394653
 40
0.48212660455728845
 40
0.4850088365306305
 40
0.49077330048035017
 40
0.4965377644300699
 40
0.5023022283797896
 40
0.5080666923295094
 40
0.513831156279229
 40
0.5167133882525711
 40
0.5195956202289488
 40
0.5253600841786685
 40
0.5311245481253525
 40
0.5368890120750722
 40
0.5426534760247919
 40
0.5484179399745117
 40
0.5541824039242315
 40
0.5599468678739511
 40
0.5657113318236708
 40
0.5714757957733906
 40
0.5772402597200745
 40
0.5830047236697943
 40
0.5887691876195139
 40
0.5945336515692338
 40
0.6002981155189534
 40
0.6060625794686731
 40
0.6118270434183929
 40
0.6175915073681126
 40
0.6233559713147965
 40
0.6291204352645162
 40
0.632002667240894
 40
0.6348848992142361
 40
0.6406493631639557
 40
0.6464138271136755
 40
0.6521782910633952
 40
0.6579427550131149
 40
0.6637072189628347
 40
0.6637072189628347
 40
0.6688107651368614
 40
0.6739143113078525
 40
0.6764660843963837
 40
0.6790178574818792
 40
0.684121403655906
 40
0.6847593469287978
 40
0.6853972902016896
 40
0.6860352334715455
 40
0.6866731767444373
 40
0.6873111200142933
 40
0.6879490632871851
 40
0.6892249498299328
 40
0.691776722918464
 40
0.6943284960039595
 40
0.6968802690917927
 40
0.6981561556352386
 40
0.6994320421787149
 40
0.6997510138145842
 40
0.7000699854504532
 40
0.7007079287221913
 40
0.7019838152656677
 40
0.7023027869015368
 40
0.7024622727194864
 40
0.7026217585374058
 40
0.7029407301732749
 40
0.7031002159912246
 40
0.703259701809144
 40
0.7035786734450131
 40
0.7038976450808822
 40
0.7045355883526203
 40
0.7096391345265257
 40
0.7147426807004007
 40
0.7172944537873533
 40
0.7179323970590915
 40
0.7185703403308297
 40
0.7198462268743061
 40
0.7204841701460443
 40
0.7211221134177824
 40
0.7217600566895206
 40
0.7223979999612284
 40
0.7230359432329666
 40
0.7236738865047048
 40
0.7249497730481811
 40
0.7255877163199193
 40
0.7262256595916574
 40
0.7268636028633956
 40
0.7275015461351337
 40
0.7278205177710029
 40
0.7279800035889525
 40
0.7281394894068719
 40
0.7287774326786101
 40
0.7300533192220864
 40
0.7306912624938245
 40
0.7307710054027843
 40
0.7308507483117439
 40
0.7310102341296937
 40
0.731169719947613
 40
0.7313292057655627
 40
0.731967149037301
 40
0.7326050923090391
 40
0.7327645781269585
 40
0.7329240639449082
 40
0.7332430355807773
 40
0.7333227784897369
 40
0.7334025213986967
 40
0.7335620072166463
 40
0.7337214930345658
 40
0.7338809788525155
 40
0.7340404646704348
 40
0.7341999504883846
 40
0.7345189221242233
 40
0.7345986650332134
 40
0.7346385364876932
 40
0.7346584722149179
 40
0.734678407942173
 40
0.7347581508511327
 40
0.7348378937600923
 40
0.7349973795780421
 40
0.7350073474416696
 40
0.7350173153052971
 40
0.7350372510325219
 40
0.7350771224870017
 40
0.7351169939414816
 40
0.7351219778733105
 40
0.7351269618051092
 40
0.7351319457369381
 40
0.7351369296687367
 40
0.7351468975323642
 40
0.7351518814641629
 40
0.7351568653959615
 40
0.7351568653959615
 40
0.7351568653959615
 40
0.7402604115698668
 40
0.7428121846568194
 40
0.7453639577437722
 40
0.7453639577437722
 40
0.7518364551957373
 40
0.7583089526477329
 40
0.7647814500997284
 40
0.771253947551724
 40
0.7744901962777067
 40
0.7777264450037196
 40
0.7841989424557151
 40
0.7906714399076803
 40
0.7971439373596758
 40
0.8036164348116713
 40
0.8100889322636668
 40
0.8165614297156626
 40
0.8230339271676278
 40
0.8295064246196233
 40
0.8359789220716188
 40
0.8424514195236144
 40
0.8489239169756099
 40
0.8489239169756099
 40
0.8531249763901758
 40
0.8573260358047721
 40
0.8615270952193682
 40
0.8657281546339645
 40
0.8699292140485607
 40
0.8741302734631266
 40
0.8783313328777228
 40
0.8825323922923191
 40
0.8825323922923191
 40
0.8875084133810982
 40
0.892484434469847
 40
0.8974604555586263
 40
0.9024364766474056
 40
0.9074124977361544
 40
0.9123885188249337
 40
0.9173645399137129
 40
0.9223405610024922
 40
0.9273165820912409
 40
0.9322926031800202
 40
0.9372686242687994
 40
0.9422446453575483
 40
0.9472206664463275
 40
0.9521966875351068
 40
0.9571727086238859
 40
0.9621487297126349
 40
0.9621487297126349
 40
0.9700512586381099
 40
0.977953787563573
 40
0.9858563164890359
 40
0.9937588454145021
 40
0.9937588454145021
 40
1.0
 40
1.0
 40
1.0
 40
1.0
 10
29.467362281427
 20
14.410201864593247
 30
1.0735840305642341e-07
 10
29.396981566307005
 20
14.406310442901248
 30
1.0735379873949569e-07
 10
29.255922420490975
 20
14.398383332391248
 30
1.1262022781011183e-07
 10
29.04361332874899
 20
14.386064423668245
 30
1.1689184020724497e-07
 10
28.830589816024002
 20
14.373307415460246
 30
1.2266963267393294e-07
 10
28.616906630479974
 20
14.360107077223244
 30
1.2774290780726005e-07
 10
28.402594455424975
 20
14.346456385961243
 30
1.3334113191376673e-07
 10
28.18771572238498
 20
14.332351465977244
 30
1.3590380376626854e-07
 10
27.972260918783974
 20
14.317782442412241
 30
1.4238992207538104e-07
 10
27.756303208687
 20
14.302747110894241
 30
1.4744932741450612e-07
 10
27.539869279079
 20
14.287239538923242
 30
1.5251140439431765e-07
 10
27.322985010106976
 20
14.271254117300238
 30
1.5905550299066817e-07
 10
27.10572237300798
 20
14.254789700019238
 30
1.616616600585985e-07
 10
26.888068714644987
 20
14.23783809401224
 30
1.6734895780246006e-07
 10
26.670082014112978
 20
14.22039775680824
 30
1.7265722362935776e-07
 10
26.451790638629987
 20
14.202464969481237
 30
1.7842609167928458e-07
 10
26.233237332206997
 20
14.184037726727237
 30
1.8335538243263727e-07
 10
26.087370216507992
 20
14.17142057003624
 30
1.8794156630974612e-07
 10
25.938305670115
 20
14.158362781523238
 30
1.9100383497061557e-07
 10
25.78601421095999
 20
14.14484764946824
 30
1.9606045498221647e-07
 10
25.55741222620199
 20
14.12403160864724
 30
2.0150088175796554e-07
 10
25.32866144210699
 20
14.102669241625236
 30
2.079565888379875e-07
 10
25.099809971984996
 20
14.080761018707236
 30
2.139674393220048e-07
 10
24.870888085926993
 20
14.058306359792237
 30
2.2046350522941793e-07
 10
24.641962407189
 20
14.035308650693235
 30
2.235151441709604e-07
 10
24.413011546476994
 20
14.011763800167234
 30
2.3119179104469367e-07
 10
24.184127655934986
 20
13.987679138952231
 30
2.372443645981548e-07
 10
23.955310962229987
 20
13.963052702722234
 30
2.4330250880666426e-07
 10
23.72664964611799
 20
13.937895069420232
 30
2.512073251637048e-07
 10
23.498089367673998
 20
13.912195603865232
 30
2.5435781481064623e-07
 10
23.269925319863987
 20
13.88599614001323
 30
2.613281253616151e-07
 10
23.04151799937999
 20
13.859209280333229
 30
2.678494865904213e-07
 10
22.81449442888099
 20
13.83205508092723
 30
2.7498384724822245e-07
 10
22.58529445094699
 20
13.804055067134229
 30
2.811135004776588e-07
 10
22.437197070417994
 20
13.785654993055225
 30
2.868097794817004e-07
 10
22.264573832539
 20
13.763858536345225
 30
2.909571321652038e-07
 10
22.081502436590995
 20
13.740495812537226
 30
2.986682829941856e-07
 10
21.80845286980899
 20
13.704918653530225
 30
3.062314135604538e-07
 10
21.536743327137998
 20
13.668788088584222
 30
3.1685891599408933e-07
 10
21.31153902108599
 20
13.63823599085222
 30
3.226522267141263e-07
 10
21.13210539605899
 20
13.613531034564222
 30
3.2403841032646596e-07
 10
20.953141889132993
 20
13.58865077667522
 30
3.2731691135268193e-07
 10
20.730307762504992
 20
13.557223165773216
 30
3.3731220128174755e-07
 10
20.464382824249995
 20
13.519000494190216
 30
3.451792736086645e-07
 10
20.288058558182996
 20
13.493182397634218
 30
3.540334887475183e-07
 10
20.139771728278987
 20
13.471268665112213
 30
3.5776713502855273e-07
 10
20.019233068313994
 20
13.453344071759219
 30
3.6155870475340635e-07
 10
19.839119279963
 20
13.426226501676219
 30
3.659628760033229e-07
 10
19.659693734702998
 20
13.398880554361217
 30
3.7105405681359116e-07
 10
19.480964124604995
 20
13.371309515688218
 30
3.7593264323732e-07
 10
19.302931934252996
 20
13.343516247701213
 30
3.809988129432895e-07
 10
19.125601388945
 20
13.315503822223214
 30
3.860729975713184e-07
 10
18.948975446728
 20
13.287275236787213
 30
3.912454076271388e-07
 10
18.77305760961599
 20
13.258833542537214
 30
3.964863708461053e-07
 10
18.597851066071996
 20
13.230181783613215
 30
4.017961714453122e-07
 10
18.423359183036
 20
13.201323030974212
 30
4.0716514604355325e-07
 10
18.249585040906993
 20
13.172260351004212
 30
4.1264365790993907e-07
 10
18.07653220383699
 20
13.142996855365212
 30
4.181318900009501e-07
 10
17.904202774908995
 20
13.113535585831212
 30
4.2393025978526566e-07
 10
17.732610451061987
 20
13.083880063387205
 30
4.2672911604313413e-07
 10
17.561736252277996
 20
13.054032634933208
 30
4.337185828262591e-07
 10
17.391600423468986
 20
13.023997029040206
 30
4.393091899146384e-07
 10
17.22220102167799
 20
12.993776152488206
 30
4.449110519999522e-07
 10
17.053537631066988
 20
12.963373226459204
 30
4.5226465772429947e-07
 10
16.885627760012994
 20
12.932791493130203
 30
4.5523029257310554e-07
 10
16.718455892620995
 20
12.902034056411203
 30
4.6172812062650337e-07
 10
16.552033409999993
 20
12.871104097400202
 30
4.6802858832961647e-07
 10
16.38636260038099
 20
12.840004838650199
 30
4.744921398014412e-07
 10
16.221446578227997
 20
12.808739480550202
 30
4.810188443116203e-07
 10
16.05728814678099
 20
12.777311244432202
 30
4.876591788161022e-07
 10
15.89389027443299
 20
12.745723363625203
 30
4.943734097651031e-07
 10
15.731255661818992
 20
12.7139790614312
 30
5.012119004277338e-07
 10
15.569387439617998
 20
12.682081618132202
 30
5.080950131741702e-07
 10
15.408287726257996
 20
12.6500342118342
 30
5.151928803570627e-07
 10
15.247960804402993
 20
12.617840277836198
 30
5.221261289989343e-07
 10
15.088406027199994
 20
12.585502700676198
 30
5.29774808910588e-07
 10
14.92963377032099
 20
12.553025637937196
 30
5.36139452833595e-07
 10
14.824296476640995
 20
12.531281928952197
 30
5.426165898825275e-07
 10
14.745238319848
 20
12.514887958383191
 30
5.448383149087022e-07
 10
14.692153753428997
 20
12.503853313796192
 30
5.463855927700934e-07
 10
14.586678828423999
 20
12.481835395309194
 30
5.484151870405185e-07
 10
14.453374989863988
 20
12.453789730525195
 30
5.566323579841992e-07
 10
14.290232513057987
 20
12.419080984555194
 30
5.637335220853856e-07
 10
14.12448012639399
 20
12.383427552643191
 30
5.725599976358353e-07
 10
13.956149770428993
 20
12.34681560691319
 30
5.799505515824421e-07
 10
13.813947309053987
 20
12.31554264652419
 30
5.884446636628127e-07
 10
13.699109950674
 20
12.29007384001519
 30
5.909988090024854e-07
 10
13.583591927325983
 20
12.264311268838185
 30
5.93483548527729e-07
 10
13.437966872272
 20
12.231565539152186
 30
6.027001973052393e-07
 10
13.261452954901984
 20
12.191427791588186
 30
6.098576363910979e-07
 10
13.083353227752994
 20
12.150476790352183
 30
6.213037408997479e-07
 10
12.903857749154994
 20
12.108739103630182
 30
6.255409061850514e-07
 10
12.723138312950994
 20
12.066247309568183
 30
6.35322635389457e-07
 10
12.541375207334994
 20
12.023030681750182
 30
6.446716156460752e-07
 10
12.358741950506996
 20
11.979120822901184
 30
6.543311883433489e-07
 10
12.175409504757994
 20
11.934549901287177
 30
6.640544256697467e-07
 10
11.99154543636699
 20
11.889350950451178
 30
6.739447826475953e-07
 10
11.807314043384991
 20
11.84355772714418
 30
6.839754291831923e-07
 10
11.622876151476987
 20
11.797204725845177
 30
6.941399988136254e-07
 10
11.438388977233984
 20
11.750327154484175
 30
7.045019287943433e-07
 10
11.254006171819995
 20
11.702960839478173
 30
7.148947815949214e-07
 10
11.069877304356993
 20
11.655142403458171
 30
7.258923346853408e-07
 10
10.886149741137984
 20
11.60690723286017
 30
7.311879812732514e-07
 10
10.702962757137996
 20
11.55829669208017
 30
7.445059395649878e-07
 10
10.520456315726989
 20
11.509345925816167
 30
7.55019641474064e-07
 10
10.338763399884996
 20
11.460094335052165
 30
7.658932190679479e-07
 10
10.18813886489599
 20
11.418833758072164
 30
7.772558774377103e-07
 10
10.068173796159996
 20
11.385712341951166
 30
7.808126838426688e-07
 10
9.948585233467995
 20
11.35252328881716
 30
7.842926379453274e-07
 10
9.79984350183399
 20
11.310924981676166
 30
7.965312533997349e-07
 10
9.622660194093996
 20
11.260862653562164
 30
8.073930644059146e-07
 10
9.446896494095
 20
11.21069797162416
 30
8.208844519685954e-07
 10
9.272660040348
 20
11.160469435704162
 30
8.317893502862717e-07
 10
9.157590428273991
 20
11.126969646009158
 30
8.425777195952833e-07
 10
9.049660606003997
 20
11.095394442768157
 30
8.486386491313169e-07
 10
8.948748528542993
 20
11.065744868000156
 30
8.562921607335738e-07
 10
8.823798313314
 20
11.028717993704152
 30
8.654375278638327e-07
 10
8.72458302933299
 20
10.999130360763154
 30
8.692371125107456e-07
 10
8.625874437407987
 20
10.969570010472154
 30
8.710194379091263e-07
 10
8.546306413023984
 20
10.945595023448153
 30
8.818105925456621e-07
 10
8.485475616186989
 20
10.92717955309315
 30
8.825579129734251e-07
 10
8.467251613597995
 20
10.921656893877149
 30
8.826953035168117e-07
 10
8.449052993354002
 20
10.91613631540815
 30
8.828828867990524e-07
 10
8.430879848912994
 20
10.91061785001915
 30
8.830608067000867e-07
 10
8.41273228801299
 20
10.90510155476715
 30
8.832287790028204e-07
 10
8.388569771331987
 20
10.897749430113151
 30
8.83373104443308e-07
 10
8.346375896687988
 20
10.88489140298815
 30
8.842565080158238e-07
 10
8.286359803731983
 20
10.866547283053151
 30
8.873410024534678e-07
 10
8.214762858591001
 20
10.844575464678151
 30
8.89832449502137e-07
 10
8.155457092646998
 20
10.826303526403152
 30
8.93164042281569e-07
 10
8.108229472136998
 20
10.811709446564151
 30
8.938936844060663e-07
 10
8.081746409053991
 20
10.80350981284015
 30
8.947432093009411e-07
 10
8.064125329706002
 20
10.79804725622915
 30
8.948366030381294e-07
 10
8.052387175248995
 20
10.794406645265152
 30
8.949122616286331e-07
 10
8.031869650577988
 20
10.788038450680151
 30
8.95065056738531e-07
 10
8.011401144483983
 20
10.78167635092315
 30
8.959083857007499e-07
 10
7.995350512657993
 20
10.77668128364715
 30
8.95978587323043e-07
 10
7.9895174195760035
 20
10.77486532601215
 30
8.960068385022169e-07
 10
7.983686660177
 20
10.773049655222149
 30
8.960151944847894e-07
 10
7.977859435217994
 20
10.771234437112149
 30
8.960735158325406e-07
 10
7.972035703644991
 20
10.769419643808149
 30
8.96081928658532e-07
 10
7.966214316194993
 20
10.76760514391415
 30
8.961003459262429e-07
 10
7.958942021671987
 20
10.76533759625515
 30
8.961735034063167e-07
 10
7.94731568281
 20
10.761710665006149
 30
8.961805519902555e-07
 10
7.892158630327998
 20
10.74449185072515
 30
8.976874141808366e-07
 10
7.794186638631004
 20
10.713776542331146
 30
9.115238412960025e-07
 10
7.680472824945994
 20
10.677856083058145
 30
9.23899222016189e-07
 10
7.6073293973709895
 20
10.654622839297144
 30
9.288242495131271e-07
 10
7.573719917057986
 20
10.643922517427143
 30
9.293934226661804e-07
 10
7.551353535594984
 20
10.636795152298141
 30
9.294702181250614e-07
 10
7.52904822678299
 20
10.629677740816142
 30
9.305879871135403e-07
 10
7.506802946738986
 20
10.622569718433144
 30
9.307765935773205e-07
 10
7.4901494992759865
 20
10.617243686673145
 30
9.310736004408682e-07
 10
7.473526498148999
 20
10.611922609806147
 30
9.313110922448686e-07
 10
7.456934055344988
 20
10.606606560660147
 30
9.315691045230778e-07
 10
7.4403722776519885
 20
10.601295606037148
 30
9.318575848737964e-07
 10
7.4183307127689915
 20
10.594221098333147
 30
9.320796721112856e-07
 10
7.396351355806985
 20
10.587157292903147
 30
9.331927230959991e-07
 10
7.374433161954997
 20
10.580103682745147
 30
9.334168566965673e-07
 10
7.358025613932
 20
10.574818858495146
 30
9.33737965169712e-07
 10
7.341649053929984
 20
10.569539372644147
 30
9.339696021015698e-07
 10
7.3280279204259955
 20
10.565144353058148
 30
9.342497264697158e-07
 10
7.31850668287899
 20
10.562070186676145
 30
9.343320925836451e-07
 10
7.313069857473991
 20
10.560314196394145
 30
9.343463602817792e-07
 10
7.304918540406987
 20
10.557680907400147
 30
9.34402805796708e-07
 10
7.2872786443790005
 20
10.551979249854146
 30
9.346622391603887e-07
 10
7.265631299892988
 20
10.544973286341147
 30
9.357811450172449e-07
 10
7.248767965746993
 20
10.539508483934146
 30
9.360442163597327e-07
 10
7.242029960113001
 20
10.537323873111145
 30
9.36075537083525e-07
 10
7.239335405006983
 20
10.536450143172146
 30
9.360781518807926e-07
 10
7.235968459242997
 20
10.535358212394147
 30
9.360988428852579e-07
 10
7.231930086395991
 20
10.534048249298145
 30
9.361177717437386e-07
 10
7.223857301368994
 20
10.531429049002146
 30
9.361556294606999e-07
 10
7.211763104186986
 20
10.527503034326148
 30
9.364327411276463e-07
 10
7.199692646214004
 20
10.523581379220147
 30
9.367002462568053e-07
 10
7.1916554699319875
 20
10.520968719519146
 30
9.367487336930935e-07
 10
7.186299978335001
 20
10.519227427187147
 30
9.367645361635368e-07
 10
7.1816174592970015
 20
10.517704470176145
 30
9.368521318720013e-07
 10
7.177606297291987
 20
10.516399513442146
 30
9.368515065943939e-07
 10
7.1749328529309935
 20
10.515529666213148
 30
9.368644668938941e-07
 10
7.171592299981995
 20
10.514442593407146
 30
9.368856126457104e-07
 10
7.167585620812986
 20
10.513138475184146
 30
9.369051099383796e-07
 10
7.163580930239988
 20
10.511834728402146
 30
9.369246640744677e-07
 10
7.159578234661993
 20
10.510531356249146
 30
9.369442750539747e-07
 10
7.154243944564001
 20
10.508794016365147
 30
9.369603617415123e-07
 10
7.14957999560599
 20
10.507274529599147
 30
9.3704829851049e-07
 10
7.145917691959994
 20
10.506081051419148
 30
9.370588145429792e-07
 10
7.144752631200987
 20
10.505701349257148
 30
9.370608609060582e-07
 10
7.144086943888993
 20
10.505484388053148
 30
9.370591556034924e-07
 10
7.143088475192002
 20
10.505158957974146
 30
9.370565976496437e-07
 10
7.141591011635995
 20
10.504670859470146
 30
9.370676821163215e-07
 10
7.138929509665985
 20
10.503803250048147
 30
9.370708653477777e-07
 10
7.136851011366986
 20
10.503125586462147
 30
9.370930911245523e-07
 10
7.135354875364996
 20
10.502637737315148
 30
9.370942279929295e-07
 10
7.135022411283984
 20
10.502529328408148
 30
9.370933753416466e-07
 10
7.134440624004995
 20
10.502339617121148
 30
9.370943985231861e-07
 10
7.133609590065987
 20
10.502068620476148
 30
9.37097297537548e-07
 10
7.132903276316
 20
10.501838281493146
 30
9.370942279929295e-07
 10
7.132487854225985
 20
10.501702803543147
 30
9.371007081426797e-07
 10
7.132363200919997
 20
10.501662149973146
 30
9.370966722599405e-07
 10
7.132238628927993
 20
10.501621526027147
 30
9.370925795337826e-07
 10
7.132072291953989
 20
10.501567271466147
 30
9.370971270072914e-07
 10
7.131906678378996
 20
10.501513282876147
 30
9.370917268824996e-07
 10
7.1317396932859936
 20
10.501458787999148
 30
9.370962743560085e-07
 10
7.131657607994995
 20
10.501432059085147
 30
9.370935458719032e-07
 10
7.131616555026
 20
10.501418690768148
 30
9.370922384732694e-07
 10
7.089578314362996
 20
10.487729534464147
 30
9.358622037325404e-07
 10
7.010283366637992
 20
10.461124291456148
 30
9.177294373330369e-07
 10
6.955969820536993
 20
10.444407347727147
 30
9.155266980087617e-07
 10
6.8546186550819925
 20
10.408706343714147
 30
9.14363113224681e-07
 10
6.713718938290995
 20
10.359320903214147
 30
9.086197678698227e-07
 10
6.521071885525998
 20
10.291165803107152
 30
8.831775062390079e-07
 10
6.238828575895994
 20
10.18894780549915
 30
8.575950687372824e-07
 10
5.967142422666996
 20
10.088279648794153
 30
8.303372283080535e-07
 10
5.747968965340988
 20
10.005174080062154
 30
8.021771691346657e-07
 10
5.577244448028992
 20
9.939310632252155
 30
7.949529958750645e-07
 10
5.409422603574001
 20
9.873813237893156
 30
7.832953770048334e-07
 10
5.205112750638989
 20
9.792666669565158
 30
7.704306312916742e-07
 10
4.968420559647001
 20
9.696447995423163
 30
7.43866337415966e-07
 10
4.739972322835001
 20
9.60139399970016
 30
7.156881451919617e-07
 10
4.519510457865991
 20
9.507504193026165
 30
6.918561439306359e-07
 10
4.306816590777004
 20
9.414794185367164
 30
6.593418788725103e-07
 10
4.1016087575330005
 20
9.323252686511168
 30
6.468542892434925e-07
 10
3.9036955237309883
 20
9.23290700645417
 30
6.195859896251932e-07
 10
3.7128124628920034
 20
9.143753288305177
 30
5.946167220827192e-07
 10
3.528725501938993
 20
9.055800636840175
 30
5.67477400181815e-07
 10
3.351184559753989
 20
8.969051323896174
 30
5.450783078231325e-07
 10
3.237041507870998
 20
8.912030863315177
 30
5.233266620052746e-07
 10
3.1445836244479892
 20
8.865345533578179
 30
5.141301926414599e-07
 10
3.0726559969549925
 20
8.828766803088179
 30
5.068462201052171e-07
 10
2.967263516304996
 20
8.774415687653178
 30
4.944917009197525e-07
 10
2.8642924874599913
 20
8.72057823516818
 30
4.891884941571334e-07
 10
2.763694469766989
 20
8.667263562366177
 30
4.784976113114681e-07
 10
2.665396144003992
 20
8.614470144882183
 30
4.678687446357799e-07
 10
2.56932436634699
 20
8.562196533865183
 30
4.626519967132481e-07
 10
2.475430181511001
 20
8.510451627325182
 30
4.5074801846567425e-07
 10
2.4142348670479947
 20
8.476305604620183
 30
4.4347711991576944e-07
 10
2.3481348614339907
 20
8.439201611392185
 30
4.369498469714017e-07
 10
2.2773781720189845
 20
8.399201948657186
 30
4.249224048180622e-07
 10
2.173842114951995
 20
8.339844338066186
 30
4.1231544400943676e-07
 10
2.0727674804529954
 20
8.281074377688189
 30
3.9735721202305285e-07
 10
1.974000917067002
 20
8.22283107821319
 30
3.836716473415436e-07
 10
1.8773972493769975
 20
8.165056948550188
 30
3.68953010365658e-07
 10
1.7827956105769829
 20
8.10768778677419
 30
3.6221473465047893e-07
 10
1.6900728779189933
 20
8.050675536586194
 30
3.452922783253598e-07
 10
1.5990612389449836
 20
7.993953027169194
 30
3.321986241644481e-07
 10
1.5096176559369923
 20
7.937463685854194
 30
3.1909826248011086e-07
 10
1.4215988187939956
 20
7.881150824506193
 30
3.023754402420309e-07
 10
1.3348373775159956
 20
7.824947473216195
 30
2.9570361448350013e-07
 10
1.2492095270009997
 20
7.768805289005201
 30
2.813977744153817e-07
 10
1.1645550348629854
 20
7.7126603485702
 30
2.6801154717759346e-07
 10
1.0807279399219851
 20
7.656454834025201
 30
2.538192234169401e-07
 10
0.9975765335509834
 20
7.600128470169199
 30
2.4123471575876465e-07
 10
0.9424982895709917
 20
7.562459680811198
 30
2.3070981569617288e-07
 10
0.8713866246559974
 20
7.513610852129204
 30
2.181545255552919e-07
 10
0.7717610618630033
 20
7.442906035320206
 30
1.9218873603676911e-07
 10
0.5926239862799889
 20
7.309455488148203
 30
1.711040908958239e-07
 10
0.39124560133799946
 20
7.153524757559204
 30
1.50755624872545e-07
 10
0.24714083577399037
 20
7.0378610400212125
 30
1.2380263569866656e-07
 10
0.11596599681999464
 20
6.9305670443892105
 30
1.1305832003927208e-07
 10
0.058171073387995875
 20
6.882710737748212
 30
1.0735158184616012e-07
 10
9.999999406318238e-08
 20
6.833745100374209
 30
1.0735345767898252e-07
  0
SPLINE
  5
3C
330
17
100
AcDbEntity
  8
CUT
100
AcDbSpline
 70
0
 71
3
 72
31
 73
27
 74
0
 40
0.0
 40
0.0
 40
0.0
 40
0.0
 40
0.011363393408746189
 40
0.011363393408746189
 40
0.029779467638018337
 40
0.029779467638018337
 40
0.16372635452804735
 40
0.16372635452804735
 40
0.3281220548856092
 40
0.3281220548856092
 40
0.38800659769838686
 40
0.40297773340151527
 40
0.41794886910464385
 40
0.4329200048077724
 40
0.44789114051090095
 40
0.47783341191715795
 40
0.5077756833236786
 40
0.5676602261361927
 40
0.6874293117614845
 40
0.8071983973870396
 40
0.8071983973870396
 40
0.8324325834750833
 40
0.845049676519237
 40
0.9081351417397414
 40
0.9081351417397414
 40
1.0
 40
1.0
 40
1.0
 40
1.0
 10
9.999999406318238e-08
 20
6.833745100374209
 30
1.0735345767898252e-07
 10
0.05388666527298369
 20
6.819077944930211
 30
1.0735737987488392e-07
 10
0.112895048729996
 20
6.803424188539211
 30
1.0735186606325442e-07
 10
0.2766101636729843
 20
6.761676339002211
 30
1.0735948308138177e-07
 10
0.38864146276699785
 20
6.73456532772121
 30
1.0735004707385087e-07
 10
1.4089939522170027
 20
6.500698320595209
 30
1.073504449777829e-07
 10
2.9352993637809845
 20
6.196826428100206
 30
1.073549356078729e-07
 10
4.955844327434988
 20
5.908000200750202
 30
1.0735789146565367e-07
 10
6.112419464196989
 20
5.797635584802201
 30
1.0735845989984227e-07
 10
7.744635960214993
 20
5.6644465554992
 30
1.0735936939454405e-07
 10
8.416421536980991
 20
5.609370376268203
 30
1.073575504051405e-07
 10
9.24259585899199
 20
5.546382428910203
 30
1.0735902833403088e-07
 10
9.643480561774993
 20
5.516797463979202
 30
1.0735732303146506e-07
 10
10.022367158312989
 20
5.489836538429202
 30
1.073607336365967e-07
 10
10.46497828274299
 20
5.459742183542204
 30
1.0736442845882266e-07
 10
10.88689605622099
 20
5.433079663193205
 30
1.0735419664342771e-07
 10
11.65195161455999
 20
5.385765662719201
 30
1.073633484338643e-07
 10
13.047865417760988
 20
5.3053628207002
 30
1.0736022204582696e-07
 10
15.321951419767998
 20
5.1931472031371975
 30
1.0736215472206823e-07
 10
17.345285643859995
 20
5.118861260718202
 30
1.0735050182120176e-07
 10
18.594862256857
 20
5.080166283784198
 30
1.0735425348684657e-07
 10
18.922714395003993
 20
5.070411404744203
 30
1.0735817568274797e-07
 10
19.795602104656
 20
5.045869231310199
 30
1.0735323030530708e-07
 10
20.45789164779299
 20
5.029553488790199
 30
1.0735112709880923e-07
 10
21.770178185485406
 20
5.00027553157765
 30
1.0735442401710316e-07
 10
22.67039035851336
 20
4.983381540044679
 30
1.073546513907786e-07
 10
23.501395778087982
 20
4.970876637452612
 30
1.0735078603829606e-07
  0
LINE
  5
3D
330
17
100
AcDbEntity
  8
CUT
100
AcDbLine
 10
23.501395778088003
 20
4.9708766374542
 30
1.0759092699809116e-07
 11
28.602640328059998
 21
1.0000017436340158e-07
 31
1.0734974037186475e-07
  0
LINE
  5
3E
330
17
100
AcDbEntity
  8
CUT
100
AcDbLine
 10
28.602640328059998
 20
1.0000017436340158e-07
 30
1.0734974037186475e-07
 11
39.474197822044
 21
0.009029240926174076
 31
1.0735178673494374e-07
  0
LINE
  5
3F
330
17
100
AcDbEntity
  8
CUT
100
AcDbLine
 10
39.474197822044
 20
0.009029240926174076
 30
1.0735178673494374e-07
 11
39.474197822044
 21
12.67148843410924
 31
1.0735468574930564e-07
  0
LINE
  5
40
330
17
100
AcDbEntity
  8
CUT
100
AcDbLine
 10
39.474197822044
 20
12.67148843410924
 30
1.0735468574930564e-07
 11
62.874197822044
 21
12.67148843410924
 31
1.07349228781095e-07
  0
LINE
  5
41
330
17
100
AcDbEntity
  8
CUT
100
AcDbLine
 10
62.874197822044
 20
12.67148843410924
 30
1.07349228781095e-07
 11
62.874197822044
 21
0.028463613392173848
 31
1.0735627736503374e-07
  0
LINE
  5
42
330
17
100
AcDbEntity
  8
CUT
100
AcDbLine
 10
63.574197822044006
 20
7.284888434109211
 30
1.0735292360332096e-07
 11
66.77419782204399
 21
7.284888434109211
 31
1.0735678895580349e-07
  0
LINE
  5
43
330
17
100
AcDbEntity
  8
CUT
100
AcDbLine
 10
66.77419782204399
 20
7.284888434109211
 30
1.0735678895580349e-07
 11
66.77419782204399
 21
5.0848884341091996
 31
1.0735241201255121e-07
  0
LINE
  5
44
330
17
100
AcDbEntity
  8
CUT
100
AcDbLine
 10
66.77419782204399
 20
5.0848884341091996
 30
1.0735241201255121e-07
 11
63.574197822044006
 21
5.0848884341091996
 31
1.0734848981664981e-07
  0
LINE
  5
45
330
17
100
AcDbEntity
  8
CUT
100
AcDbLine
 10
63.574197822044006
 20
5.0848884341091996
 30
1.0734848981664981e-07
 11
63.574197822044006
 21
7.284888434109211
 31
1.0735292360332096e-07
  0
ELLIPSE
  5
46
330
17
100
AcDbEntity
  8
CUT
100
AcDbEllipse
 10
91.14278711630399
 20
7.7427508903362146
 30
1.0734987654359429e-07
 11
-0.29956723564457804
 21
-1.4702024964162979
 31
7.686254064466662e-18
 40
0.9997254666186076
 41
2.944089416703338e-12
 42
6.2831853071825305
  0
LINE
  5
47
330
17
100
AcDbEntity
  8
CUT
100
AcDbLine
 10
35.574197822044006
 20
7.26168843410921
 30
1.0735309413357754e-07
 11
38.774197822043995
 21
7.26168843410921
 31
1.0735701632947893e-07
  0
LINE
  5
48
330
17
100
AcDbEntity
  8
CUT
100
AcDbLine
 10
38.774197822043995
 20
7.26168843410921
 30
1.0735701632947893e-07
 11
38.774197822043995
 21
5.0616884341092
 31
1.0735263938622665e-07
  0
LINE
  5
49
330
17
100
AcDbEntity
  8
CUT
100
AcDbLine
 10
38.774197822043995
 20
5.0616884341092
 30
1.0735263938622665e-07
 11
35.574197822044006
 21
5.0616884341092
 31
1.073486603469064e-07
  0
LINE
  5
4A
330
17
100
AcDbEntity
  8
CUT
100
AcDbLine
 10
35.574197822044006
 20
5.0616884341092
 30
1.073486603469064e-07
 11
35.574197822044006
 21
7.26168843410921
 31
1.0735309413357754e-07
  0
TEXT
  5
51
330
17
100
AcDbEntity
  8
LABELS_NONCUT
100
AcDbText
 10
0.0
 20
17.634178037616593
 30
0.0
 40
2.0
  1
A44 / 4.99 mm / quantity 2
100
AcDbText
  0
LWPOLYLINE
  5
53
330
17
100
AcDbEntity
  8
SANDING_GUIDE_NONCUT
100
AcDbPolyline
 90
33
 70
0
 10
66.17420593795885
 20
6.184896029394448
 10
66.15388949215111
 20
6.386430908740397
 10
66.09562098090379
 20
6.574141158229311
 10
66.00342164348064
 20
6.744005538597431
 10
65.8813127191454
 20
6.892002810580992
 10
65.73331544716183
 20
7.014111734916236
 10
65.5634510667937
 20
7.106311072339398
 10
65.37574081730477
 20
7.164579583586722
 10
65.17420593795885
 20
7.184896029394443
 10
64.97267105861289
 20
7.164579583586722
 10
64.78496080912399
 20
7.106311072339398
 10
64.61509642875586
 20
7.014111734916234
 10
64.46709915677229
 20
6.892002810580992
 10
64.34499023243706
 20
6.744005538597431
 10
64.25279089501387
 20
6.574141158229311
 10
64.19452238376655
 20
6.386430908740397
 10
64.17420593795885
 20
6.184896029394448
 10
64.19452238376655
 20
5.9833611500484984
 10
64.25279089501387
 20
5.795650900559584
 10
64.34499023243706
 20
5.625786520191465
 10
64.46709915677229
 20
5.477789248207904
 10
64.61509642875586
 20
5.35568032387266
 10
64.78496080912399
 20
5.263480986449498
 10
64.97267105861289
 20
5.205212475202174
 10
65.17420593795885
 20
5.184896029394453
 10
65.37574081730477
 20
5.205212475202174
 10
65.5634510667937
 20
5.263480986449498
 10
65.73331544716183
 20
5.35568032387266
 10
65.8813127191454
 20
5.477789248207904
 10
66.00342164348064
 20
5.625786520191465
 10
66.09562098090379
 20
5.795650900559584
 10
66.15388949215111
 20
5.9833611500485
 10
66.17420593795885
 20
6.184896029394448
  0
LWPOLYLINE
  5
54
330
17
100
AcDbEntity
  8
SANDING_GUIDE_NONCUT
100
AcDbPolyline
 90
33
 70
0
 10
38.17421559484986
 20
6.161641232754448
 10
38.15389914904214
 20
6.363176112100398
 10
38.09563063779482
 20
6.550886361589312
 10
38.00343130037165
 20
6.720750741957431
 10
37.8813223760364
 20
6.868748013940992
 10
37.733325104052845
 20
6.990856938276236
 10
37.563460723684734
 20
7.083056275699398
 10
37.375750474195804
 20
7.141324786946722
 10
37.17421559484986
 20
7.161641232754443
 10
36.97268071550392
 20
7.141324786946722
 10
36.78497046601499
 20
7.083056275699398
 10
36.615106085646865
 20
6.9908569382762344
 10
36.46710881366332
 20
6.868748013940992
 10
36.34499988932807
 20
6.720750741957431
 10
36.252800551904905
 20
6.550886361589312
 10
36.194532040657585
 20
6.363176112100398
 10
36.17421559484986
 20
6.161641232754448
 10
36.194532040657585
 20
5.960106353408499
 10
36.252800551904905
 20
5.772396103919585
 10
36.34499988932807
 20
5.602531723551467
 10
36.46710881366332
 20
5.454534451567904
 10
36.61510608564688
 20
5.332425527232662
 10
36.78497046601499
 20
5.240226189809498
 10
36.97268071550392
 20
5.181957678562174
 10
37.17421559484986
 20
5.161641232754453
 10
37.375750474195804
 20
5.181957678562174
 10
37.563460723684734
 20
5.240226189809498
 10
37.73332510405286
 20
5.332425527232662
 10
37.8813223760364
 20
5.454534451567904
 10
38.00343130037165
 20
5.602531723551467
 10
38.09563063779482
 20
5.772396103919585
 10
38.15389914904214
 20
5.9601063534085
 10
38.17421559484986
 20
6.161641232754448
  0
LWPOLYLINE
  5
55
330
17
100
AcDbEntity
  8
SANDING_GUIDE_NONCUT
100
AcDbPolyline
 90
33
 70
0
 10
90.866569853209
 20
6.387143827773233
 10
91.16887173400698
 20
6.356656444896895
 10
91.46222338470054
 20
6.3861065525698955
 10
91.73950976080647
 20
6.470786415606529
 10
91.99361581784166
 20
6.605988298821103
 10
92.21742651132288
 20
6.787004467027911
 10
92.40382679676702
 20
7.009127185041255
 10
92.54570162969094
 20
7.267648717675433
 10
92.6359359656114
 20
7.557861329744748
 10
92.6664481230763
 20
7.860242883133743
 10
92.63703697123748
 20
8.153665505302216
 10
92.55240829151785
 20
8.431012859427339
 10
92.41726786534028
 20
8.685168608686281
 10
92.23632147412769
 20
8.909016416256213
 10
92.01427489930296
 20
9.095439945314306
 10
91.75583392228901
 20
9.237322859037732
 10
91.46570432450869
 20
9.327548820603663
 10
91.16340244371071
 20
9.358036203480001
 10
90.87005079301719
 20
9.328586095807001
 10
90.59276441691125
 20
9.243906232770366
 10
90.33865835987609
 20
9.108704349555794
 10
90.11484766639484
 20
8.927688181348985
 10
89.92844738095067
 20
8.705565463335642
 10
89.78657254802681
 20
8.447043930701463
 10
89.6963382121063
 20
8.156831318632149
 10
89.6658260546414
 20
7.854449765243151
 10
89.69523720648021
 20
7.5610271430746785
 10
89.77986588619987
 20
7.283679788949556
 10
89.91500631237744
 20
7.029524039690616
 10
90.09595270359006
 20
6.805676232120682
 10
90.31799927841476
 20
6.619252703062589
 10
90.57644025542874
 20
6.477369789339162
 10
90.866569853209
 20
6.387143827773233
  0
LWPOLYLINE
  5
56
330
17
100
AcDbEntity
  8
SANDING_GUIDE_NONCUT
100
AcDbPolyline
 90
2
 70
0
 10
62.569099084388874
 20
12.332734704607446
 10
62.57931833894887
 20
0.028218206840446847
  0
LWPOLYLINE
  5
57
330
17
100
AcDbEntity
  8
SANDING_GUIDE_NONCUT
100
AcDbPolyline
 90
2
 70
0
 10
62.57931833894887
 20
0.028218206840446847
 10
74.33058641134886
 20
0.037977972681445316
  0
LWPOLYLINE
  5
58
330
17
100
AcDbEntity
  8
SANDING_GUIDE_NONCUT
100
AcDbPolyline
 90
2
 70
0
 10
74.33058641134886
 20
0.037977972681445316
 10
74.33054654724887
 20
0.0859768901324447
  0
LWPOLYLINE
  5
59
330
17
100
AcDbEntity
  8
SANDING_GUIDE_NONCUT
100
AcDbPolyline
 90
2
 70
0
 10
74.33054654724887
 20
0.0859768901324447
 10
79.27624214520887
 20
5.044571497114449
  0
LWPOLYLINE
  5
5A
330
17
100
AcDbEntity
  8
SANDING_GUIDE_NONCUT
100
AcDbPolyline
 90
2
 70
0
 10
79.27624214520887
 20
5.044571497114449
 10
116.71130144744888
 20
5.111546348908446
  0
LWPOLYLINE
  5
5B
330
17
100
AcDbEntity
  8
SANDING_GUIDE_NONCUT
100
AcDbPolyline
 90
265
 70
0
 10
116.71130144744888
 20
5.111546348908446
 10
115.77587715101598
 20
5.316304159317081
 10
114.82509013704782
 20
5.522965127783493
 10
113.86270821057511
 20
5.730583247314197
 10
112.89249917662858
 20
5.938212510915708
 10
112.40564484774626
 20
6.04173567607363
 10
111.91829415406633
 20
6.144906763881501
 10
111.43096555640136
 20
6.247607412719816
 10
110.94417751556398
 20
6.349719260969074
 10
110.7011487610772
 20
6.400517391181243
 10
110.45845279730764
 20
6.451123901526024
 10
110.21615766056246
 20
6.501523962688175
 10
109.97433138714888
 20
6.551702745352447
 10
109.73304242764306
 20
6.601645421323138
 10
109.49236088969747
 20
6.651337166882726
 10
109.25235729523354
 20
6.700763159433233
 10
109.01310216617276
 20
6.749908576376683
 10
108.92246531979416
 20
6.768494304710346
 10
108.83178267799053
 20
6.787073704565582
 10
108.74104674674871
 20
6.805648391160233
 10
108.65025003205565
 20
6.824219979712138
 10
108.55938648226325
 20
6.842789763789531
 10
108.46845581664905
 20
6.861357750062689
 10
108.37745919685597
 20
6.8799236235522905
 10
108.28639778452697
 20
6.89848706927901
 10
108.10408361894201
 20
6.9356057960669855
 10
107.9215145621128
 20
6.972713303593681
 10
107.73869024636633
 20
7.009809343566605
 10
107.55561030402967
 20
7.046893667693265
 10
107.09889454586533
 20
7.139127341769303
 10
106.64063958054297
 20
7.231271780830637
 10
106.18086245107676
 20
7.323317580822252
 10
105.71958020048092
 20
7.415255337689143
 10
105.38309394693687
 20
7.482060318353936
 10
105.04713255974804
 20
7.548540811982299
 10
104.71175040210989
 20
7.6146851198393914
 10
104.37700183721768
 20
7.680481543190375
 10
104.04295031411311
 20
7.7459165118092645
 10
103.70969562670729
 20
7.810968969214803
 10
103.3773466547566
 20
7.8756159874351255
 10
103.0460122780174
 20
7.939834638498363
 10
102.71578145302334
 20
8.003606472135703
 10
102.38666344194979
 20
8.066930949173747
 10
102.05864758375105
 20
8.129812008141483
 10
101.73172321738147
 20
8.192253587567901
 10
101.40572260752714
 20
8.254290892549681
 10
101.07984972180117
 20
8.316084194454273
 10
100.75315145354838
 20
8.377825031216815
 10
100.4246746961137
 20
8.439704940772453
 10
100.09370298562499
 20
8.501866690645295
 10
99.76046643081645
 20
8.564257966438655
 10
99.42543178320932
 20
8.626777683344326
 10
99.08906579432482
 20
8.689324756554099
 10
98.7517960496254
 20
8.751807023345219
 10
98.41389346883776
 20
8.81416800961452
 10
98.07558980562851
 20
8.876360163344174
 10
97.73711681366422
 20
8.938335932516356
 10
97.39869098184164
 20
9.00005077085693
 10
97.06046774148294
 20
9.061472154792295
 10
96.72258725914043
 20
9.122570566492929
 10
96.3851897013663
 20
9.18331648812931
 10
96.0484785408243
 20
9.243669111806081
 10
95.71291047312732
 20
9.303542469632664
 10
95.37900550000057
 20
9.36283930365207
 10
95.04728362316928
 20
9.421462355907316
 10
94.7181044366659
 20
9.479345203386814
 10
94.39118590521315
 20
9.536544762603828
 10
94.06608558583679
 20
9.593148785018162
 10
93.74236103556274
 20
9.649245022089618
 10
93.41944091645408
 20
9.704943393022255
 10
93.09623830928865
 20
9.760442488244315
 10
92.77153739988285
 20
9.815963065927674
 10
92.44412237405322
 20
9.871725884244206
 10
92.11310665466581
 20
9.927890072540492
 10
91.77892061426064
 20
9.984368244611737
 10
91.44232386243314
 20
10.041011385427169
 10
91.1040760087788
 20
10.097670479956008
 10
90.76484295732254
 20
10.154215200621191
 10
90.42491578829828
 20
10.210589969911794
 10
90.08449187636808
 20
10.266757897770411
 10
89.74376859619395
 20
10.322682094139633
 10
89.40295214563338
 20
10.378324082895396
 10
89.0622840153257
 20
10.433639043647034
 10
88.72201451910553
 20
10.488580569937223
 10
88.38239397080764
 20
10.543102255308646
 10
88.04372385513898
 20
10.597150345689151
 10
87.7065103418015
 20
10.650641696307233
 10
87.37131077136794
 20
10.703485814777238
 10
87.0386824844112
 20
10.755592208713523
 10
86.7089870541129
 20
10.806903527427117
 10
86.38180298262682
 20
10.857494987243221
 10
86.05651300472016
 20
10.907474946182486
 10
85.73249985516014
 20
10.956951762265561
 10
85.40897561700928
 20
11.006059640826997
 10
85.0844697679479
 20
11.05503617623907
 10
84.75734113395066
 20
11.104144810188544
 10
84.42594854099224
 20
11.153648984362171
 10
84.42454300965136
 20
11.15385843737053
 10
84.4231395834891
 20
11.154067534170881
 10
84.42173740479853
 20
11.154276417558258
 10
84.4203356158726
 20
11.154485230327698
 10
84.41893352293408
 20
11.154694087982314
 10
84.41753108792477
 20
11.154902996857562
 10
84.41612843671615
 20
11.155111935996981
 10
84.41472569517981
 20
11.155320884444112
 10
84.41192026082837
 20
11.15573875603279
 10
84.40911487293423
 20
11.15615659695754
 10
84.40630943577955
 20
11.156574423149433
 10
84.4035038536465
 20
11.156992250539542
 10
84.39789201186306
 20
11.15782794928251
 10
84.39227928328756
 20
11.158663703854135
 10
84.386665743913
 20
11.159499501565932
 10
84.38105146973228
 20
11.16033532972942
 10
84.36982091055154
 20
11.1620070450358
 10
84.35858766182523
 20
11.163678840156802
 10
84.34735166926049
 20
11.165350723854239
 10
84.3361128785645
 20
11.167022704889913
 10
84.32487125134088
 20
11.168694789380002
 10
84.31362681277935
 20
11.170366972858108
 10
84.30237960396605
 20
11.172039248212212
 10
84.29112966598717
 20
11.17371160833028
 10
84.27987703271458
 20
11.175384047296596
 10
84.26862170916263
 20
11.177056563980678
 10
84.2573636931314
 20
11.178729158448352
 10
84.24610298242084
 20
11.180401830765447
 10
84.22357349667186
 20
11.183747404540888
 10
84.20103337686487
 20
11.18709326248198
 10
84.17848277645885
 20
11.190439377093366
 10
84.15592184891284
 20
11.193785720879696
 10
84.13335073301909
 20
11.197132268748174
 10
84.11076950890268
 20
11.200479005216199
 10
84.08817824202202
 20
11.203825917203723
 10
84.0655769978355
 20
11.2071729916307
 10
84.02034493173988
 20
11.21386756072491
 10
83.9750742960905
 20
11.220562534068907
 10
83.92976616872363
 20
11.227257718474839
 10
83.88442162747549
 20
11.233952920754867
 10
83.86173602931595
 20
11.237300469757578
 10
83.83904167695155
 20
11.24064795997008
 10
83.81633865018873
 20
11.243995376430586
 10
83.79362702883384
 20
11.247342704177324
 10
83.77090689077775
 20
11.250689928514497
 10
83.74817830624892
 20
11.254037035810253
 10
83.72544134356019
 20
11.257384012698708
 10
83.70269607102443
 20
11.260730845813995
 10
83.61163383751924
 20
11.274116383917274
 10
83.52044764459544
 20
11.287498016527916
 10
83.42914539738084
 20
11.300874352378003
 10
83.3377350010033
 20
11.314244000199636
 10
83.29199166319091
 20
11.320925890522126
 10
83.24622392676153
 20
11.327605642493879
 10
83.20043245410659
 20
11.334283137588216
 10
83.15461790761759
 20
11.34095825727848
 10
83.10878098429407
 20
11.347630877688346
 10
83.06292252108037
 20
11.354300853322783
 10
83.01704338952919
 20
11.360968033337151
 10
82.97114446119326
 20
11.367632266886801
 10
82.92522659991045
 20
11.374293404645783
 10
82.87929063865988
 20
11.380951303362973
 10
82.83333740270581
 20
11.387605821305947
 10
82.78736771731263
 20
11.394256816742281
 10
82.74138239730866
 20
11.400904150016569
 10
82.69538221577872
 20
11.407547689781456
 10
82.64936793537171
 20
11.414187306766607
 10
82.60334031873649
 20
11.420822871701684
 10
82.51124815030545
 20
11.434081326320758
 10
82.41911192631932
 20
11.447322009378393
 10
82.3269378855403
 20
11.460543874594808
 10
82.23473226673059
 20
11.47374587569021
 10
82.05025138090087
 20
11.500086145031034
 10
81.86571983309256
 20
11.526334670323667
 10
81.68118831840081
 20
11.55248334912313
 10
81.49670753192083
 20
11.578524078984447
 10
81.31232783403448
 20
11.604448890566793
 10
81.12809824626999
 20
11.630250346945978
 10
80.94406745544222
 20
11.655921144301953
 10
80.760284148366
 20
11.681453978814684
 10
80.6685004301549
 20
11.69416639886019
 10
80.57679632618044
 20
11.706841717057085
 10
80.48517740803771
 20
11.719479148222575
 10
80.39364924732172
 20
11.732077907173874
 10
80.34792093783238
 20
11.738362540057341
 10
80.3022173813091
 20
11.744637215590277
 10
80.25653924846245
 20
11.750901840771395
 10
80.21088721000302
 20
11.757156322599407
 10
80.16526194319982
 20
11.763400567425563
 10
80.11966415155564
 20
11.769634479011255
 10
80.07409454513157
 20
11.775857960470407
 10
80.02855383398884
 20
11.782070914916947
 10
79.98304273476248
 20
11.788273244685321
 10
79.93756199038285
 20
11.794464848992064
 10
79.89211235035413
 20
11.800645626274228
 10
79.84669456418064
 20
11.806815474968868
 10
79.80130934203811
 20
11.812974299852346
 10
79.75595723678856
 20
11.819122031058232
 10
79.71063876196553
 20
11.825258605059393
 10
79.66535443110257
 20
11.831383958328704
 10
79.57489068713338
 20
11.843600684699041
 10
79.48457227036857
 20
11.855771382832451
 10
79.39440587803881
 20
11.86789516152766
 10
79.30439820737473
 20
11.879971129583403
 10
79.28192186418727
 20
11.882982548474978
 10
79.2594559010152
 20
11.88599091989305
 10
79.23700035919285
 20
11.888996240229183
 10
79.21455528005464
 20
11.891998505874941
 10
79.19212070726877
 20
11.894997712821443
 10
79.16969669383946
 20
11.89799385545805
 10
79.14728329510484
 20
11.90098692777369
 10
79.12488056640302
 20
11.90397692375728
 10
79.08010741592079
 20
11.909947651305071
 10
79.03537806245009
 20
11.915905933118115
 10
78.9906934015188
 20
11.921851652834157
 10
78.94605432865467
 20
11.927784694090949
 10
78.92375215555367
 20
11.930746425827525
 10
78.90146164301285
 20
11.93370495567508
 10
78.87918283069368
 20
11.936660280449953
 10
78.85691575825757
 20
11.9396123969685
 10
78.83466047832036
 20
11.942561300046421
 10
78.81241709531494
 20
11.945506976496887
 10
78.79018572662866
 20
11.948449411132412
 10
78.76796648964884
 20
11.951388588765514
 10
78.75686145571103
 20
11.952856951701634
 10
78.74575948959202
 20
11.954324496141226
 10
78.73466059683716
 20
11.955791221635238
 10
78.72356478299179
 20
11.957257127734614
 10
78.712472053407
 20
11.958722214006418
 10
78.70138241265701
 20
11.960186480082161
 10
78.69029586512175
 20
11.961649925609471
 10
78.67921241518118
 20
11.96311255023598
 10
78.66813207184765
 20
11.964574352932903
 10
78.65705486266316
 20
11.966035329965813
 10
78.6459808198021
 20
11.967495476923869
 10
78.63490997543894
 20
11.968954789396236
 10
78.62937575918869
 20
11.969684131840538
 10
78.62384233326918
 20
11.970413267121188
 10
78.61830968034292
 20
11.971142197798663
 10
78.61277778307266
 20
11.971870926433446
 10
78.61001211672792
 20
11.972235215154377
 10
78.60724665881969
 20
11.972599450541232
 10
78.60448143320485
 20
11.972963629130476
 10
78.60171646374027
 20
11.97332774745859
 10
78.60033407685094
 20
11.97350978376646
 10
78.5989517289334
 20
11.973691808654792
 10
78.59756938895771
 20
11.973873826635206
 10
78.59618702589387
 20
11.974055842219322
 10
78.5948046490438
 20
11.974237854056174
 10
78.59342242903699
 20
11.974419837344431
 10
78.59204057683488
 20
11.974601761420164
 10
78.59065930339887
 20
11.97478359561945
 10
78.24044389342498
 20
12.020676385039074
 10
77.89295303004303
 20
12.065809189022467
 10
77.5456189477323
 20
12.110543338567645
 10
77.19587388097219
 20
12.155240164672612
 10
76.84174767671746
 20
12.200175147334466
 10
76.4836606318242
 20
12.245280362546556
 10
76.12263065562391
 20
12.290402035301305
 10
75.75967565744813
 20
12.33538639059114
 10
75.39567819832251
 20
12.380100873950916
 10
75.0309794460496
 20
12.424497813085246
 10
74.66578522012617
 20
12.468550756241171
 10
74.30030134004889
 20
12.51223325166573
 10
73.94122427382595
 20
12.554753498911296
 10
73.58259708939406
 20
12.596823815035687
 10
73.22495057766454
 20
12.638377317996277
 10
72.86881552954887
 20
12.679347125750446
  0
LWPOLYLINE
  5
5C
330
17
100
AcDbEntity
  8
SANDING_GUIDE_NONCUT
100
AcDbPolyline
 90
2
 70
0
 10
72.86881502001887
 20
12.679347188273447
 10
72.87519228307886
 20
5.000522300620448
  0
LWPOLYLINE
  5
5D
330
17
100
AcDbEntity
  8
SANDING_GUIDE_NONCUT
100
AcDbPolyline
 90
2
 70
0
 10
72.87519228307886
 20
5.000522300620448
 10
67.87518305410887
 20
5.00951834472845
  0
LWPOLYLINE
  5
5E
330
17
100
AcDbEntity
  8
SANDING_GUIDE_NONCUT
100
AcDbPolyline
 90
2
 70
0
 10
67.87518305410887
 20
5.00951834472845
 10
67.86836803827887
 20
13.215136034699448
  0
LWPOLYLINE
  5
5F
330
17
100
AcDbEntity
  8
SANDING_GUIDE_NONCUT
100
AcDbPolyline
 90
217
 70
0
 10
67.86836800923885
 20
13.215136036414446
 10
67.46742897949073
 20
13.254863277307436
 10
67.06749082585739
 20
13.293970924362863
 10
66.66884107100279
 20
13.332431720710918
 10
66.27176723759098
 20
13.370218409481783
 10
65.87463795510178
 20
13.407482694293243
 10
65.47931674425266
 20
13.444046422820936
 10
65.0857306228616
 20
13.47991703118553
 10
64.69380660874671
 20
13.515101955507667
 10
64.30358514871529
 20
13.549599295989033
 10
63.915560405531785
 20
13.583369809155347
 10
63.5303399709499
 20
13.616364915613353
 10
63.148531436723324
 20
13.648536035969801
 10
62.77024230378078
 20
13.679878842362022
 10
62.393579714521955
 20
13.710566012655633
 10
62.01615072050459
 20
13.740814476250513
 10
61.63556237328644
 20
13.770841162546546
 10
61.63257011774625
 20
13.771075459983198
 10
61.62957721286089
 20
13.771309785543128
 10
61.62658369557355
 20
13.771544135188826
 10
61.6235896028275
 20
13.771778504882786
 10
61.62059513041185
 20
13.772012875839607
 10
61.617600420309635
 20
13.772247234757362
 10
61.61460542633106
 20
13.772481586013491
 10
61.61161010228634
 20
13.772715933985431
 10
61.60561834741586
 20
13.773184631105519
 10
61.59962512706313
 20
13.773653328732323
 10
61.59363048076964
 20
13.774122022999574
 10
61.58763444807695
 20
13.774590710041018
 10
61.57563832755911
 20
13.775528052199867
 10
61.563636811337155
 20
13.776465350370955
 10
61.55162989113766
 20
13.777402604934807
 10
61.53961755868719
 20
13.778339816271945
 10
61.52759981330903
 20
13.779276984002713
 10
61.51557668471319
 20
13.780214104706701
 10
61.50354821020631
 20
13.78115117420332
 10
61.491514427095105
 20
13.782088188311981
 10
61.47947536821693
 20
13.783025143170786
 10
61.4674310485321
 20
13.783962036192637
 10
61.45538147853161
 20
13.78489886510912
 10
61.443326668706455
 20
13.785835627651835
 10
61.419201396812106
 20
13.787708943468733
 10
61.39505543822401
 20
13.789581960507267
 10
61.370889023581704
 20
13.791454654557757
 10
61.34670238352468
 20
13.793327001410542
 10
61.322495731216186
 20
13.795198977416383
 10
61.29826921481371
 20
13.797070560788988
 10
61.274022964999794
 20
13.798941730302523
 10
61.24975711245701
 20
13.800812464731155
 10
61.201167234711484
 20
13.804552541251674
 10
61.152501186102036
 20
13.808290610028706
 10
61.10376068394738
 20
13.81202648856162
 10
61.054947445566235
 20
13.815759994349804
 10
61.03051407487232
 20
13.817625800875515
 10
61.00606309410568
 20
13.81949094824257
 10
60.98159464792116
 20
13.821355416103675
 10
60.95710888097357
 20
13.823219184111537
 10
60.93260593575844
 20
13.825082231838952
 10
60.90808594117481
 20
13.826944538916095
 10
60.88354902396129
 20
13.828806084893188
 10
60.858995310856436
 20
13.830666849320455
 10
60.76061581162681
 20
13.838101678380532
 10
60.66198239116924
 20
13.84552234097836
 10
60.56310783470844
 20
13.852927502645851
 10
60.46400492746911
 20
13.860315828914938
 10
60.414371762074275
 20
13.864003265080228
 10
60.36468584974825
 20
13.867686011928932
 10
60.31494833494832
 20
13.871363922611074
 10
60.26516036213177
 20
13.875036850276683
 10
60.21532312202577
 20
13.878704647635281
 10
60.165437995480524
 20
13.882367165263311
 10
60.11550640961776
 20
13.886024253296888
 10
60.06552979155928
 20
13.889675761872113
 10
60.015509555783744
 20
13.893321542096302
 10
59.96544706113557
 20
13.896961449330355
 10
59.91534365381461
 20
13.900595339906172
 10
59.86520068002074
 20
13.904223070155663
 10
59.81501947405122
 20
13.907844498088672
 10
59.76480132259288
 20
13.911459488426768
 10
59.71454750042995
 20
13.915067907569473
 10
59.66425928234667
 20
13.918669621916294
 10
59.56358473684961
 20
13.925852406250861
 10
59.46278778084395
 20
13.93300679477922
 10
59.3618784883656
 20
13.940131745280652
 10
59.260866933450494
 20
13.947226215534435
 10
59.05857762127133
 20
13.961319732593598
 10
58.8560018858012
 20
13.975279938722139
 10
58.653222057355656
 20
13.989099612863985
 10
58.45032046625021
 20
14.002771533963074
 10
58.247378163388454
 20
14.016288743210538
 10
58.04447107689219
 20
14.02964533112764
 10
57.84167385547091
 20
14.042835650481532
 10
57.63906114783412
 20
14.055854054039372
 10
57.436707062781544
 20
14.068695114228294
 10
57.23468355459166
 20
14.081354281791242
 10
57.03306203763099
 20
14.093827227132628
 10
56.83191392626602
 20
14.106109620656873
 10
56.63131024239079
 20
14.118197349593547
 10
56.43132043293702
 20
14.13008716877777
 10
56.232013552368535
 20
14.141776049868177
 10
56.0334586551492
 20
14.15326096452339
 10
55.93448475049744
 20
14.158926006266348
 10
55.83572456620491
 20
14.164539029597677
 10
55.73718656317404
 20
14.17009976480076
 10
55.63887920230736
 20
14.175607942158976
 10
55.54080984842006
 20
14.181063346214025
 10
55.44298147701857
 20
14.18646597881644
 10
55.345395967526095
 20
14.191815896074178
 10
55.248055199365815
 20
14.197113154095199
 10
54.889431123219374
 20
14.21629087662107
 10
54.53529068634183
 20
14.234703715088258
 10
54.18251870746267
 20
14.252536289091694
 10
53.82800000531142
 20
14.269973218226305
 10
53.73874368483103
 20
14.27429149051924
 10
53.64920286706607
 20
14.278594804822596
 10
53.559396923767316
 20
14.282881392226471
 10
53.4693452266855
 20
14.287149483820972
 10
53.37906468985492
 20
14.291397551400852
 10
53.28856239153436
 20
14.29562502981026
 10
53.197842952262015
 20
14.299831594597642
 10
53.10691099257614
 20
14.304016921311437
 10
53.01577175962564
 20
14.308180621225475
 10
52.924433011958705
 20
14.312322048289005
 10
52.832903134737926
 20
14.316440492177048
 10
52.741190513125936
 20
14.320535242564638
 10
52.64930315503016
 20
14.324605628448381
 10
52.55724755933736
 20
14.328651136111233
 10
52.465029847679126
 20
14.332671291157737
 10
52.37265614168704
 20
14.33666561919242
 10
52.18746669853676
 20
14.344574913330387
 10
52.00173552444853
 20
14.352375307005431
 10
51.81552037928814
 20
14.3600631053828
 10
51.62887902292133
 20
14.367634613627725
 10
51.582158816682075
 20
14.369508891533627
 10
51.53541624371693
 20
14.371375637594259
 10
51.48865196550903
 20
14.373234819024859
 10
51.441866643541495
 20
14.37508640304068
 10
51.39506096659317
 20
14.376930354368298
 10
51.348235732625774
 20
14.378766627779651
 10
51.30139176689675
 20
14.38059517555801
 10
51.25452989466353
 20
14.382415949986648
 10
51.23109250110884
 20
14.38332340755407
 10
51.20765093804787
 20
14.38422890551466
 10
51.18420530628607
 20
14.385132439528192
 10
51.16075570662884
 20
14.386034005254444
 10
51.13730223694197
 20
14.3869335983285
 10
51.11384498333255
 20
14.387831214286628
 10
51.09038402896807
 20
14.388726848640403
 10
51.06691945701599
 20
14.3896204969014
 10
51.01997981533288
 20
14.391401817073717
 10
50.973026835192776
 20
14.393175138308013
 10
50.92606131581929
 20
14.394940423991084
 10
50.879084056435964
 20
14.396697637509732
 10
50.78509750512604
 20
14.400187708586685
 10
50.69107352801131
 20
14.40364509356191
 10
50.59701846243197
 20
14.407069541444187
 10
50.50293864572826
 20
14.410460801242294
 10
50.408840408501824
 20
14.413818630653306
 10
50.314730049284414
 20
14.41714282230977
 10
50.22061385986894
 20
14.420433177531933
 10
50.12649813204825
 20
14.423689497640034
 10
50.07944238801645
 20
14.425304833887402
 10
50.032389004935204
 20
14.426911595454708
 10
49.98533865540808
 20
14.428509766110498
 10
49.938292012038666
 20
14.430099329623317
 10
49.89124976643638
 20
14.431680269351418
 10
49.84421268623391
 20
14.433252567011891
 10
49.79718155806976
 20
14.434816203911524
 10
49.75015716858244
 20
14.436371161357116
 10
49.7031402792985
 20
14.437917422335236
 10
49.656131551296774
 20
14.439454976551602
 10
49.60913162054411
 20
14.440983815391697
 10
49.5621411230074
 20
14.442503930241017
 10
49.53864963933933
 20
14.443260712316306
 10
49.515160925890804
 20
14.444015303198672
 10
49.49167523558565
 20
14.444767694846522
 10
49.468192821347735
 20
14.445517879218258
 10
49.45645288336484
 20
14.445892142741492
 10
49.44471362867814
 20
14.446265860903576
 10
49.43297485833606
 20
14.446639042172787
 10
49.421236373386996
 20
14.447011695017398
 10
49.4153672234545
 20
14.447197823971024
 10
49.409498356415476
 20
14.447383812259346
 10
49.403630033552965
 20
14.447569649206145
 10
49.3977625161501
 20
14.447755324135198
 10
49.391895785509114
 20
14.447940837844797
 10
49.38602870300888
 20
14.448126237031293
 10
49.380159850047455
 20
14.448311579865553
 10
49.37428780802286
 20
14.448496924518448
 10
48.795785604083655
 20
14.466107810446232
 10
48.221684013274746
 20
14.48233104316396
 10
47.65252220818521
 20
14.497209877294672
 10
47.08883936140409
 20
14.510787567461417
 10
46.530575244281984
 20
14.523115206690925
 10
45.97527202811575
 20
14.53427524151816
 10
45.41987248294611
 20
14.544357956885463
 10
44.86131937881378
 20
14.553453637735181
 10
44.29740513998946
 20
14.561633988628245
 10
43.72932080268851
 20
14.568896392670673
 10
43.159107057338026
 20
14.57521965258444
 10
42.58880459436512
 20
14.580582571091526
 10
42.0201373249572
 20
14.584978688283481
 10
41.4535620483452
 20
14.588460493692995
 10
40.889218784514675
 20
14.591095214225216
 10
40.32724755345114
 20
14.592950076785293
 10
40.00142496083439
 20
14.593676748618865
 10
39.665480438200355
 20
14.594138568452802
 10
39.32465900877296
 20
14.594296762958027
 10
38.984205695776105
 20
14.594112558805467
 10
38.64818663148046
 20
14.593552431819795
 10
38.31595238952266
 20
14.592603854450346
 10
37.98567465255713
 20
14.591259548302151
 10
37.655525103238325
 20
14.589512234980266
 10
36.8552132266938
 20
14.583483001676214
 10
36.05595386433453
 20
14.574677662025927
 10
35.25941128400033
 20
14.562853701277351
 10
34.46724975353086
 20
14.54776860467845
  0
LWPOLYLINE
  5
60
330
17
100
AcDbEntity
  8
SANDING_GUIDE_NONCUT
100
AcDbPolyline
 90
2
 70
0
 10
34.467249753131874
 20
14.547768604677444
 10
34.47524740704787
 20
4.918174894377447
  0
LWPOLYLINE
  5
61
330
17
100
AcDbEntity
  8
SANDING_GUIDE_NONCUT
100
AcDbPolyline
 90
2
 70
0
 10
34.47524740704787
 20
4.918174894377447
 10
29.47524913149187
 20
4.91402225212045
  0
LWPOLYLINE
  5
62
330
17
100
AcDbEntity
  8
SANDING_GUIDE_NONCUT
100
AcDbPolyline
 90
2
 70
0
 10
29.47524913149187
 20
4.91402225212045
 10
29.467386413745878
 20
14.356967110134448
  0
LWPOLYLINE
  5
63
330
17
100
AcDbEntity
  8
SANDING_GUIDE_NONCUT
100
AcDbPolyline
 90
985
 70
0
 10
29.467366264161846
 20
14.356965951225447
 10
29.427073987298535
 20
14.35464166706712
 10
29.38675571709235
 20
14.352301714725073
 10
29.34641149510643
 20
14.349946026014464
 10
29.306041362903862
 20
14.347574532750446
 10
29.253199278297224
 20
14.344448719296807
 10
29.20031378556923
 20
14.341295669742323
 10
29.147385732734314
 20
14.3381153030914
 10
29.09441596780686
 20
14.334907538348446
 10
29.041405276743284
 20
14.33167228989696
 10
28.988354197264236
 20
14.328409453630819
 10
28.935263205032747
 20
14.325118920822241
 10
28.882132775711845
 20
14.321800582743442
 10
28.828963466836775
 20
14.318454338784289
 10
28.775756163428476
 20
14.315080120800694
 10
28.722511832380853
 20
14.311677868766228
 10
28.669231440587843
 20
14.308247522654447
 10
28.615915769414578
 20
14.304789006966836
 10
28.562564858107358
 20
14.301302184325571
 10
28.50917856038415
 20
14.297786901880741
 10
28.455756729962864
 20
14.294243006782445
 10
28.402299433766082
 20
14.290670365962256
 10
28.34880759154087
 20
14.287068925477694
 10
28.295282336239644
 20
14.283438651167756
 10
28.241724800814858
 20
14.279779508871442
 10
28.188135998363173
 20
14.276091454812804
 10
28.134516462561855
 20
14.272374406762069
 10
28.080866607232046
 20
14.268628272875276
 10
28.02718684619486
 20
14.264852961308446
 10
27.973477591191006
 20
14.261048381052209
 10
27.919739245637352
 20
14.25721444443257
 10
27.865972210869195
 20
14.253351064610865
 10
27.812176888221863
 20
14.249458154748442
 10
27.758353797891537
 20
14.245535639515381
 10
27.704503935508235
 20
14.241583489625693
 10
27.6506284155625
 20
14.237601687302131
 10
27.59672835254485
 20
14.233590214767442
 10
27.542804642717222
 20
14.229549036072413
 10
27.48885730942336
 20
14.225478042575443
 10
27.434886157778728
 20
14.221377107462974
 10
27.38089099289885
 20
14.21724610392144
 10
27.32687180204568
 20
14.213084922287798
 10
27.27282930106248
 20
14.208893521505566
 10
27.21876438793897
 20
14.204671877668769
 10
27.16467796066484
 20
14.20041996687144
 10
27.110570840865485
 20
14.196137759595395
 10
27.056443544714732
 20
14.191825203873567
 10
27.002296512022788
 20
14.187482242126677
 10
26.94813018259986
 20
14.18310881677544
 10
26.893945033330276
 20
14.178704874660223
 10
26.839741689396227
 20
14.17427038029994
 10
26.785520813054752
 20
14.169805302633158
 10
26.73128306656286
 20
14.165309610598442
 10
26.677029039505705
 20
14.160783267895223
 10
26.622759030784614
 20
14.156226217270188
 10
26.568473266628637
 20
14.151638396230535
 10
26.514171973266862
 20
14.14701974228344
 10
26.45985554354875
 20
14.142370208843126
 10
26.40552503680474
 20
14.137689812951937
 10
26.35118167898529
 20
14.13297858755925
 10
26.29682669604086
 20
14.128236565614436
 10
26.240118120148857
 20
14.123257398804625
 10
26.183395095482858
 20
14.118244410599686
 10
26.12665904410286
 20
14.113197649768374
 10
26.069911388068853
 20
14.108117165079438
 10
26.013153353850477
 20
14.103002989476124
 10
25.956385385563358
 20
14.097855092598937
 10
25.899607731731983
 20
14.0926734282625
 10
25.842820640880852
 20
14.087457950281436
 10
25.78602444435716
 20
14.082208621378577
 10
25.72921980479436
 20
14.076925439905061
 10
25.672407467648533
 20
14.071608413120234
 10
25.61558817837585
 20
14.066257548283438
 10
25.558762636416525
 20
14.060872849945593
 10
25.501931357153985
 20
14.055454311824686
 10
25.445094809956878
 20
14.050001924930655
 10
25.38825346419386
 20
14.044515680273435
 10
25.331407882979725
 20
14.038995579091718
 10
25.274559004419736
 20
14.033441663535434
 10
25.21770786036607
 20
14.027853985983654
 10
25.16085548267086
 20
14.022232598815435
 10
25.104002676218748
 20
14.01657753512853
 10
25.047149338024234
 20
14.010888750893187
 10
24.99029513813428
 20
14.005166182799467
 10
24.93343974659586
 20
13.999409767537436
 10
24.876583126257977
 20
13.99361947125131
 10
24.819726411174862
 20
13.987795377913187
 10
24.762871028203485
 20
13.981937600950435
 10
24.706018404200854
 20
13.976046253790436
 10
24.649169728961432
 20
13.970121425889605
 10
24.59232524403098
 20
13.964163110825812
 10
24.535484953893466
 20
13.958171278206326
 10
24.478648863032852
 20
13.952145897638438
 10
24.42181720275942
 20
13.946086971075559
 10
24.36499111168711
 20
13.939994629851931
 10
24.308171955255425
 20
13.933869037648307
 10
24.251361098903864
 20
13.927710358145433
 10
24.194559540515748
 20
13.92151870031881
 10
24.13776680774898
 20
13.915293954322934
 10
24.080982060704905
 20
13.90903595560706
 10
24.024204459484856
 20
13.902744539620432
 10
23.967434065618356
 20
13.8964196771234
 10
23.9106745463476
 20
13.890061880124435
 10
23.85393047034298
 20
13.883671795942714
 10
23.79720640627486
 20
13.877250071897432
 10
23.74050451229943
 20
13.870797022037962
 10
23.68381730451248
 20
13.86431162733443
 10
23.627134888495966
 20
13.85779253548715
 10
23.57044736983186
 20
13.851238394196432
 10
23.513750699286113
 20
13.844648644045087
 10
23.457064208366724
 20
13.838025897141431
 10
23.40041307376641
 20
13.831373558476276
 10
23.343822472177855
 20
13.824695033040431
 10
23.287304202987308
 20
13.81799192441023
 10
23.230816556350483
 20
13.811258630502557
 10
23.174304445116583
 20
13.80448774781907
 10
23.117712782134852
 20
13.797671872861429
 10
23.061019465817473
 20
13.790808048589117
 10
23.004334336831597
 20
13.78391110378243
 10
22.947800221406602
 20
13.777000313678741
 10
22.891559945771853
 20
13.770094953515429
 10
22.83560665413217
 20
13.763194139972601
 10
22.779334762592605
 20
13.756216355496804
 10
22.72198900523292
 20
13.74905992397732
 10
22.662814116132857
 20
13.74162316930343
 10
22.594589449640644
 20
13.732995091247318
 10
22.52641094644148
 20
13.724327087513554
 10
22.458295332644504
 20
13.715621444912976
 10
22.390259334358852
 20
13.706880450256428
 10
22.322316329324117
 20
13.698105956769272
 10
22.254466301799233
 20
13.689298083330428
 10
22.186705887672396
 20
13.680456515233335
 10
22.119031722831856
 20
13.67158093777143
 10
22.051441324769975
 20
13.662671143999336
 10
21.98393573738685
 20
13.653727358020177
 10
21.916516886186734
 20
13.644749911697897
 10
21.84918669667386
 20
13.635739136896426
 10
21.78194676144917
 20
13.626695324072315
 10
21.71479734150561
 20
13.617618598043553
 10
21.64773836493317
 20
13.608509042220724
 10
21.580769759821855
 20
13.599366740014425
 10
21.547319293845852
 20
13.59478333376316
 10
21.51389121228886
 20
13.59019176427855
 10
21.480485324682355
 20
13.58559203407038
 10
21.44710144055785
 20
13.580984145648426
 10
21.41373938965203
 20
13.576368102548706
 10
21.38039908252373
 20
13.571743912412174
 10
21.347080449937742
 20
13.56711158390602
 10
21.31378342265885
 20
13.562471125697428
 10
21.24725421521935
 20
13.553165879695115
 10
21.180812447011355
 20
13.543828368009176
 10
21.11445941298036
 20
13.534458809096613
 10
21.048196408071853
 20
13.525057421414427
 10
20.982024414998172
 20
13.515624400061284
 10
20.91594316753511
 20
13.506159846703298
 10
20.849952087225667
 20
13.496663839648626
 10
20.78405059561286
 20
13.487136457205423
 10
20.718238476527937
 20
13.477577804106986
 10
20.652516962954486
 20
13.467988090792424
 10
20.586887650163966
 20
13.458367554126362
 10
20.52135213342786
 20
13.448716430973423
 10
20.476389603320904
 20
13.442069400115624
 10
20.431469065348985
 20
13.435407862555046
 10
20.38659083633525
 20
13.428731882615157
 10
20.34175523310285
 20
13.422041524619424
 10
20.296962504377127
 20
13.415336848112844
 10
20.252212626494234
 20
13.408617893527293
 10
20.207505507693647
 20
13.40188469651656
 10
20.16284105621485
 20
13.395137292734418
 10
20.11821921549896
 20
13.388375720369343
 10
20.07364006979524
 20
13.381600027753045
 10
20.029103738555314
 20
13.374810265751936
 10
19.984610341230855
 20
13.36800648523242
 10
19.940159981264365
 20
13.361188735967389
 10
19.895752698068485
 20
13.354357063360169
 10
19.85138851504778
 20
13.347511511720576
 10
19.807067455606862
 20
13.340652125358417
 10
19.762789550216674
 20
13.333778949125012
 10
19.718554857620354
 20
13.32689203003692
 10
19.674363443628543
 20
13.319991415651828
 10
19.630215374051865
 20
13.313077153527423
 10
19.5861107114335
 20
13.306149291029048
 10
19.542049505243234
 20
13.299207874759421
 10
19.498031801683773
 20
13.292252951127793
 10
19.454057646957857
 20
13.285284566543417
 10
19.410127088670926
 20
13.278302767554731
 10
19.366240180039362
 20
13.271307601264667
 10
19.322396975682302
 20
13.26429911491423
 10
19.278597530218853
 20
13.25727735574442
 10
19.234841897459
 20
13.250242370977872
 10
19.191130127979726
 20
13.243194207767544
 10
19.147462271548527
 20
13.236132913247651
 10
19.103838377932853
 20
13.229058534552415
 10
19.06025849736117
 20
13.22197111888476
 10
19.01672268190135
 20
13.214870713726917
 10
18.973230984082285
 20
13.207757366629824
 10
18.92978345643285
 20
13.200631125144419
 10
18.886380150743896
 20
13.193492036810731
 10
18.84302111584899
 20
13.18634014912142
 10
18.799706399843252
 20
13.179175509558604
 10
18.756436050821854
 20
13.171998165604418
 10
18.713210118127797
 20
13.164808164857618
 10
18.670028656093855
 20
13.15760555538504
 10
18.626891720299916
 20
13.150390385370901
 10
18.583799366325856
 20
13.143162702999415
 10
18.54075164598381
 20
13.135922556274696
 10
18.497748596014993
 20
13.128669992481164
 10
18.454790249392836
 20
13.12140505872351
 10
18.411876639090856
 20
13.114127802106417
 10
18.369007827980404
 20
13.10683827096901
 10
18.32618399852523
 20
13.099536518597915
 10
18.283405363087375
 20
13.092222599514571
 10
18.240672134028863
 20
13.084896568240417
 10
18.197984439444276
 20
13.077558476268525
 10
18.15534207036061
 20
13.070208362982292
 10
18.112744733536324
 20
13.062846264736368
 10
18.07019213572986
 20
13.055472217885416
 10
18.02768408485384
 20
13.048086262347429
 10
17.98522079343173
 20
13.040688452296788
 10
17.94280257514044
 20
13.03327884547046
 10
17.900429743656865
 20
13.025857499605415
 10
17.85810255544184
 20
13.018424470320024
 10
17.81582103808136
 20
13.01097980475604
 10
17.77358516194463
 20
13.00352354793549
 10
17.731394897400854
 20
12.996055744880415
 10
17.689250218758012
 20
12.988576441423351
 10
17.647151116074845
 20
12.981085686642665
 10
17.605097583348943
 20
12.97358353042685
 10
17.563089614577855
 20
12.966070022664411
 10
17.52112724998299
 20
12.958545213297164
 10
17.47921071467598
 20
12.951009152488414
 10
17.437340279991908
 20
12.943461890454415
 10
17.395516217265858
 20
12.935903477411415
 10
17.353738712669546
 20
12.928333963219508
 10
17.312007611724106
 20
12.920753396311913
 10
17.27032267478655
 20
12.913161824764568
 10
17.22868366221386
 20
12.905559296653411
 10
17.18709040372614
 20
12.89794586025413
 10
17.145543006489852
 20
12.890321564641411
 10
17.10404164703383
 20
12.882686459089694
 10
17.062586501886862
 20
12.875040592873411
 10
17.021177724129053
 20
12.867384015374629
 10
16.979815373045604
 20
12.85971677640216
 10
16.938499484473034
 20
12.852038925872819
 10
16.897230094247853
 20
12.84435051370341
 10
16.856007240337938
 20
12.836651589753302
 10
16.814830969232226
 20
12.828942203655785
 10
16.773701329551095
 20
12.821222404986333
 10
16.732618369914853
 20
12.813492243320411
 10
16.691582138141435
 20
12.805751768287017
 10
16.65059267883823
 20
12.798001029733783
 10
16.609650035809842
 20
12.790240077561862
 10
16.568754252860863
 20
12.782468961672407
 10
16.52790537422255
 20
12.774687731997204
 10
16.48710344582836
 20
12.766896438594284
 10
16.446348514038426
 20
12.759095131551923
 10
16.40564062521286
 20
12.75128386095841
 10
16.364979825020605
 20
12.743462676876987
 10
16.3243661563696
 20
12.735631629268532
 10
16.28379966147623
 20
12.72779076806777
 10
16.243280382556854
 20
12.71994014320941
 10
16.202808362937283
 20
12.712079804776565
 10
16.162383650379475
 20
12.704209803439909
 10
16.12200629375412
 20
12.69633019001775
 10
16.08167634193186
 20
12.688441015328404
 10
16.041393841172358
 20
12.680542329927732
 10
16.001158827294354
 20
12.672634183317282
 10
15.960971333504865
 20
12.66471662473614
 10
15.920831393010864
 20
12.656789703423406
 10
15.880739044601704
 20
12.648853469281548
 10
15.840694349391619
 20
12.640907974867282
 10
15.800697374077139
 20
12.632953273401078
 10
15.760748185354863
 20
12.624989418103404
 10
15.720846837206786
 20
12.617016460774575
 10
15.680993332763485
 20
12.609034447534281
 10
15.641187662442128
 20
12.601043423082047
 10
15.601429816659852
 20
12.593043432117405
 10
15.56171981426062
 20
12.585034522623268
 10
15.522057787796236
 20
12.57701675571678
 10
15.482443898245656
 20
12.568990195798857
 10
15.442878306587865
 20
12.560954907270403
 10
15.40336110525346
 20
12.55291094634875
 10
15.36389211247586
 20
12.544858336522903
 10
15.324471077940508
 20
12.53679709309906
 10
15.285097751332863
 20
12.528727231383407
 10
15.24577215335055
 20
12.520648807621765
 10
15.20649538874536
 20
12.512562041823028
 10
15.167268833281675
 20
12.504467194935732
 10
15.128093862723851
 20
12.496364527908405
 10
15.1083186252419
 20
12.492267230228435
 10
15.088548597555736
 20
12.488166209316155
 10
15.06879278748962
 20
12.484063498542497
 10
15.049060202867857
 20
12.479961131278404
 10
15.029355501009896
 20
12.475860162844484
 10
15.009665937224845
 20
12.471757736365277
 10
14.989974416317075
 20
12.467650016915385
 10
14.970263843090855
 20
12.463533169569402
 10
14.930737781909563
 20
12.455261305804122
 10
14.891054107163733
 20
12.446934237249152
 10
14.851199795346467
 20
12.438548610400808
 10
14.811161822950858
 20
12.430101071755402
 10
14.770930801823916
 20
12.421589108507575
 10
14.730511885229852
 20
12.413013570645276
 10
14.689913861787552
 20
12.404376148854794
 10
14.649145520115859
 20
12.395678533822402
 10
14.608214266380038
 20
12.386922098791025
 10
14.56712197693161
 20
12.3781069472249
 10
14.5258691456688
 20
12.369232865144525
 10
14.484456266489865
 20
12.3602996385704
 10
14.442884435338406
 20
12.351307199838725
 10
14.401157156340226
 20
12.342256066553773
 10
14.359278535666881
 20
12.333146902635882
 10
14.317252679489862
 20
12.323980372005398
 10
14.275083426903997
 20
12.31475706591582
 10
14.23277354870023
 20
12.305477284958524
 10
14.190325548592021
 20
12.296141257058416
 10
14.147741930292845
 20
12.286749210140396
 10
14.126400064705685
 20
12.282032258652912
 10
14.105025341304845
 20
12.277301435143023
 10
14.083618180896003
 20
12.272556815361568
 10
14.06217900428485
 20
12.267798475059397
 10
14.040708212398378
 20
12.263026485916132
 10
14.0192061266496
 20
12.258240903330275
 10
13.99767304857319
 20
12.253441778628726
 10
13.976109279703842
 20
12.248629163138396
 10
13.932890989924694
 20
12.238963661530335
 10
13.889554240607104
 20
12.229244791280898
 10
13.846102129248635
 20
12.219472941595463
 10
13.802537753346847
 20
12.209648501679396
 10
13.758864153280406
 20
12.199771872250192
 10
13.715084140957593
 20
12.189843500082773
 10
13.671200471168156
 20
12.179863843464162
 10
13.627215898701841
 20
12.169833360681395
 10
13.583133209338158
 20
12.159752502155786
 10
13.53895531281485
 20
12.14962168685102
 10
13.494685149859045
 20
12.139441325865441
 10
13.450325661197859
 20
12.129211830297397
 10
13.405879740457031
 20
12.118933626741676
 10
13.361350092860476
 20
12.108607203784896
 10
13.316739376530364
 20
12.098233065510861
 10
13.272050249588851
 20
12.087811716003394
 10
13.227285392064395
 20
12.07734365082419
 10
13.182447571606225
 20
12.066829331451768
 10
13.137539577769864
 20
12.05626921084291
 10
13.09256420011085
 20
12.045663741954396
 10
13.047524210725399
 20
12.035013383749316
 10
13.002422311876977
 20
12.024318619215268
 10
12.957261188369749
 20
12.013579937345781
 10
12.912043525007853
 20
12.00279782713439
 10
12.866772000005298
 20
11.991972779032658
 10
12.82144926521022
 20
11.981105289327267
 10
12.776077965880198
 20
11.970195855762189
 10
12.730660747272843
 20
11.959244976081393
 10
12.685200245889241
 20
11.948253150260939
 10
12.639699063198478
 20
11.937220887202265
 10
12.594159791912404
 20
11.926148698037405
 10
12.548585024742856
 20
11.915037093898391
 10
12.502977345974024
 20
11.903886587782686
 10
12.457339306177978
 20
11.892697700148016
 10
12.411673447498366
 20
11.881470953316782
 10
12.365982312078849
 20
11.87020686961139
 10
12.320268433108119
 20
11.858905973256828
 10
12.274534307957978
 20
11.84756879608764
 10
12.228782425044521
 20
11.836195871840577
 10
12.183015272783841
 20
11.82478773425239
 10
12.137235330286238
 20
11.81334491890128
 10
12.091445039432728
 20
11.801867968722263
 10
12.045646832797772
 20
11.79035742849181
 10
11.999843142955847
 20
11.778813842986388
 10
11.954036393286309
 20
11.767237758576403
 10
11.908228970391725
 20
11.755629728013261
 10
11.86242325167921
 20
11.743990305642683
 10
11.81662161455585
 20
11.732320045810386
 10
11.770826425903365
 20
11.720619504914762
 10
11.72504001049522
 20
11.708889247568635
 10
11.679264682578392
 20
11.697129840437135
 10
11.633502756399842
 20
11.685341850185388
 10
11.587756540527003
 20
11.673525840290448
 10
11.542028320803851
 20
11.661682361480135
 10
11.496320377394447
 20
11.649811961293448
 10
11.450634990462852
 20
11.637915187269385
 10
11.404974419306917
 20
11.62599260236226
 10
11.35934083976035
 20
11.614044831187634
 10
11.313736406791037
 20
11.602072513776385
 10
11.268163275366852
 20
11.590076290159384
 10
11.222623602230833
 20
11.578056784329569
 10
11.177119551228223
 20
11.566014556124383
 10
11.131653287980178
 20
11.553950149343692
 10
11.086226978107852
 20
11.541864107787383
 10
11.04084276923141
 20
11.529756986230133
 10
10.995502736966344
 20
11.517629383350382
 10
10.950208938926785
 20
11.505481908801382
 10
10.904963432726852
 20
11.493315172236379
 10
10.859768268154333
 20
11.481129784139739
 10
10.814625463695478
 20
11.468926358315006
 10
10.769537030009808
 20
11.45670550939646
 10
10.724504977756844
 20
11.44446785201838
 10
10.679531306497445
 20
11.432213989133334
 10
10.6346179714021
 20
11.419944476963256
 10
10.589766916542636
 20
11.407659860048739
 10
10.54498008599085
 20
11.39536068293038
 10
10.522611360790243
 20
11.38920580794652
 10
10.50025941132197
 20
11.383047518008755
 10
10.47792447122314
 20
11.3768859020788
 10
10.45560677413085
 20
11.37072104911838
 10
10.433306553963497
 20
11.364553048558285
 10
10.411024045767725
 20
11.358381991706377
 10
10.388759484870768
 20
11.352207970339972
 10
10.366513106599847
 20
11.346031076236379
 10
10.322075825688941
 20
11.333669004364033
 10
10.277714017864355
 20
11.321296347513126
 10
10.233429484397512
 20
11.308913644547598
 10
10.189224026559849
 20
11.296521434331378
 10
10.145099436397103
 20
11.284120274242081
 10
10.101057469043859
 20
11.271710795721003
 10
10.057099870409353
 20
11.259293648723112
 10
10.01322838640285
 20
11.246869483203376
 10
9.969444749525849
 20
11.234438940076267
 10
9.925750638653348
 20
11.222002624094252
 10
9.8821477192526
 20
11.209561130969298
 10
9.838637656790858
 20
11.197115056413374
 10
9.795222109388483
 20
11.184665006982826
 10
9.751902705774604
 20
11.172211632613
 10
9.70868106733186
 20
11.15975559408436
 10
9.665558815442857
 20
11.147297552177378
 10
9.622537550580638
 20
11.134838146116937
 10
9.579618789579854
 20
11.122377928910872
 10
9.536804028365573
 20
11.109917432011812
 10
9.49409476286285
 20
11.097457186872372
 10
9.45637175658559
 20
11.086426383663419
 10
9.418734098593731
 20
11.075396964506997
 10
9.381182798896432
 20
11.064369328424014
 10
9.34371886750285
 20
11.053343874435374
 10
9.306343305762681
 20
11.042321001125341
 10
9.269057080389231
 20
11.031301105336873
 10
9.231861149437094
 20
11.020284583476652
 10
9.194756470960861
 20
11.00927183195137
 10
9.176238650367843
 20
11.003766994783525
 10
9.157743999613231
 20
10.998263253899122
 10
9.139272635902437
 20
10.992760663896838
 10
9.120824676440854
 20
10.987259279375369
 10
9.10240024298431
 20
10.98175916098359
 10
9.083999475480475
 20
10.97626039357112
 10
9.065622518427084
 20
10.970763068037776
 10
9.04726951632184
 20
10.96526727528337
 10
9.010635876193362
 20
10.9542805540212
 10
8.974099317315222
 20
10.943300468522494
 10
8.937660523154648
 20
10.932327159833477
 10
8.901320177178853
 20
10.92136076900037
 10
8.896784590432567
 20
10.919990464035884
 10
8.892250555889099
 20
10.918620272358993
 10
8.887718076819759
 20
10.91725019696229
 10
8.883187156495858
 20
10.91588024083837
 10
8.87865779801949
 20
10.914510406734276
 10
8.874130003816724
 20
10.91314069642462
 10
8.869603776144764
 20
10.911771111438838
 10
8.86507911726084
 20
10.91040165330637
 10
8.860556029287551
 20
10.909032323385134
 10
8.85603451380522
 20
10.907663122346992
 10
8.851514572259958
 20
10.906294050692292
 10
8.846996206097849
 20
10.904925108921368
 10
8.842479416803002
 20
10.903556297597572
 10
8.837964206004095
 20
10.902187617540744
 10
8.833450575368566
 20
10.90081906963373
 10
8.828938526563853
 20
10.89945065475937
 10
8.824428061210817
 20
10.89808237373473
 10
8.8199191807456
 20
10.896714227114494
 10
8.815411886558508
 20
10.89534621538795
 10
8.810906180039858
 20
10.89397833904437
 10
8.806402062842515
 20
10.892610598850087
 10
8.801899537677855
 20
10.89124299667137
 10
8.797398607519447
 20
10.8898755346519
 10
8.79289927534085
 20
10.888508214935367
 10
8.783905415137788
 20
10.88577400924624
 10
8.77491797245785
 20
10.883040388070366
 10
8.76593696100992
 20
10.880307358137493
 10
8.756962394502857
 20
10.877574926177367
 10
8.739032645689477
 20
10.872111879125697
 10
8.721128808422101
 20
10.866651280917495
 10
8.703250959648848
 20
10.861193161587728
 10
8.685399176317851
 20
10.855737551171366
 10
8.667573542305462
 20
10.850284485958227
 10
8.649774169199475
 20
10.844834027260493
 10
8.632001175515185
 20
10.839386242644444
 10
8.61425467976786
 20
10.833941199676367
 10
8.59653479092929
 20
10.828498958399308
 10
8.57884157979285
 20
10.82305954875887
 10
8.561175107608413
 20
10.81762299317743
 10
8.543535435625849
 20
10.812189314077365
 10
8.534725671361798
 20
10.809473562273773
 10
8.52592264518222
 20
10.806758550351368
 10
8.51712637980846
 20
10.80404429346596
 10
8.508336897961861
 20
10.801330806773365
 10
8.499554218015852
 20
10.79861810201404
 10
8.490778340956858
 20
10.795906177278244
 10
8.482009263423357
 20
10.793195027242007
 10
8.473246982053858
 20
10.790484646581369
 10
8.47105747339345
 20
10.789807171142307
 10
8.46886839028285
 20
10.78912974418212
 10
8.466679733721996
 20
10.788452366426803
 10
8.464491504710843
 20
10.78777503860237
 10
8.462303704092271
 20
10.787097761315273
 10
8.460116332077227
 20
10.78642053470362
 10
8.45792938871999
 20
10.785743358786338
 10
8.45574287407485
 20
10.78506623358237
 10
8.451371131840752
 20
10.783712135876243
 10
8.4470011093321
 20
10.782358244156118
 10
8.44263281121107
 20
10.781004561477868
 10
8.438266242139854
 20
10.779651090897367
 10
8.42953830061331
 20
10.776944791788758
 10
8.42081727612873
 20
10.774239338965991
 10
8.412103150879716
 20
10.771534718101165
 10
8.403395907059853
 20
10.76883091486637
 10
8.40122016946814
 20
10.768155090294915
 10
8.399044861934101
 20
10.767479316674244
 10
8.396869985539446
 20
10.766803594748634
 10
8.394695541365842
 20
10.76612792526237
 10
8.393608481677049
 20
10.765790110401039
 10
8.392521530315726
 20
10.765452308834494
 10
8.391434687283457
 20
10.765114520561134
 10
8.390347952581855
 20
10.764776745579368
 10
8.389261326255365
 20
10.764438983917337
 10
8.388174808523722
 20
10.764101235718368
 10
8.387088399649151
 20
10.7637635011559
 10
8.386002099893851
 20
10.76342578040337
 10
8.38382982822958
 20
10.762750380647667
 10
8.381657992821467
 20
10.762075035963242
 10
8.379486592399296
 20
10.761399745487886
 10
8.377315625692852
 20
10.76072450835937
 10
8.376230304641929
 20
10.760386909567885
 10
8.375145091878721
 20
10.760049324016244
 10
8.374059987579578
 20
10.759711751822664
 10
8.372974991920849
 20
10.75937419310537
 10
8.371890105095595
 20
10.759036647990229
 10
8.370805327363101
 20
10.758699116637494
 10
8.369720658998972
 20
10.758361599214695
 10
8.368636100278842
 20
10.758024095889368
 10
8.366467312236985
 20
10.757349131808759
 10
8.364298962259724
 20
10.756674223784742
 10
8.362131048732017
 20
10.75599937081504
 10
8.35996357003885
 20
10.755324571897368
 10
8.35779652525946
 20
10.754649826454635
 10
8.355629916246478
 20
10.753975135610492
 10
8.353463745547181
 20
10.753300500913792
 10
8.351298015708856
 20
10.75262592391337
 10
8.346967885344789
 20
10.751276947080775
 10
8.342639528239857
 20
10.749928206927368
 10
8.338312944020167
 20
10.74857970315146
 10
8.333988132311852
 20
10.747231435451368
 10
8.299453499033731
 20
10.736453818270494
 10
8.265032660245105
 20
10.725691507519368
 10
8.230725993644846
 20
10.714944720074744
 10
8.196533876931845
 20
10.704213672813367
 10
8.162456727797597
 20
10.69349861086749
 10
8.128495123898851
 20
10.682799892400364
 10
8.0946496828846
 20
10.672117903830742
 10
8.060921022403853
 20
10.661453031577366
 10
8.044100671958354
 20
10.656127131624707
 10
8.027309712737853
 20
10.650805636459364
 10
8.010548186422099
 20
10.645488575184519
 10
7.993816134690853
 20
10.640175976903361
 10
7.989637732321604
 20
10.638848528253863
 10
7.985461177026103
 20
10.637521361820362
 10
7.981286471111723
 20
10.636194479062365
 10
7.977113616885852
 20
10.634867881439362
 10
7.972942617771871
 20
10.633541571044645
 10
7.968773481662474
 20
10.63221555250136
 10
7.964606217566775
 20
10.630889831066082
 10
7.960440834493845
 20
10.62956441199536
 10
7.952115730058985
 20
10.626914492053174
 10
7.943798153449968
 20
10.624265785125363
 10
7.93548807236364
 20
10.621618273742548
 10
7.927185454496843
 20
10.618971940435362
 10
7.923036936133627
 20
10.617649211214001
 10
7.9188902832081
 20
10.616326776638488
 10
7.914745503428193
 20
10.615004641202908
 10
7.910602604501854
 20
10.61368280940136
 10
7.906461592682668
 20
10.612361284902768
 10
7.902322468400854
 20
10.611040068066362
 10
7.89818523063154
 20
10.60971915842621
 10
7.894049878349854
 20
10.608398555516363
 10
7.889916410991276
 20
10.60707825913602
 10
7.885784829828225
 20
10.605758270146364
 10
7.881655136593494
 20
10.604438589674455
 10
7.877527333019849
 20
10.603119218847361
 10
7.873401420827847
 20
10.601800158775458
 10
7.869277401681593
 20
10.600481410508362
 10
7.865155277233718
 20
10.599162975079771
 10
7.861035049136852
 20
10.597844853523362
 10
7.856916718610478
 20
10.596527046646472
 10
7.852800285142351
 20
10.595209554355488
 10
7.848685747787478
 20
10.593892376330441
 10
7.844573105600851
 20
10.592575512251361
 10
7.840462359083439
 20
10.591258962567096
 10
7.836353514524596
 20
10.58994273079874
 10
7.832246579659632
 20
10.588626821236943
 10
7.8281415622238555
 20
10.587311238172362
 10
7.819937294876873
 20
10.584681060359614
 10
7.8117406958539775
 20
10.582052190006863
 10
7.803551732823529
 20
10.579424611425612
 10
7.795370373453856
 20
10.576798308927362
 10
7.791282537041965
 20
10.575485632369833
 10
7.787196601443476
 20
10.574173275331614
 10
7.783112574639425
 20
10.57286124223377
 10
7.779030464610848
 20
10.571549537497361
 10
7.77495027772585
 20
10.570238164690487
 10
7.770872013905354
 20
10.568927123970113
 10
7.766795671457352
 20
10.567616414640614
 10
7.76272124868985
 20
10.566306036006363
 10
7.758648744738586
 20
10.564995987806942
 10
7.754578162053228
 20
10.563686271524237
 10
7.750509503910429
 20
10.562376889076095
 10
7.746442773586857
 20
10.56106784238036
 10
7.742377973258215
 20
10.559759132785612
 10
7.73831510070098
 20
10.558450759359612
 10
7.73425415259068
 20
10.557142720601238
 10
7.73019512560284
 20
10.555835015009361
 10
7.728166331604882
 20
10.555181286741675
 10
7.726138017323599
 20
10.554527641562363
 10
7.724110183026944
 20
10.553874079643553
 10
7.722082828982842
 20
10.553220601157363
 10
7.721069332184129
 20
10.552893893276941
 10
7.720055955819099
 20
10.55256720645399
 10
7.7190427001917
 20
10.552240540844974
 10
7.718029565605853
 20
10.551913896606361
 10
7.71701655232706
 20
10.551587273875068
 10
7.716003660467727
 20
10.551260672711987
 10
7.714990890102207
 20
10.550934093159597
 10
7.713978241304851
 20
10.550607535260362
 10
7.709928863014483
 20
10.549301520889877
 10
7.705881434148104
 20
10.547995855433737
 10
7.701835957850854
 20
10.54669054067741
 10
7.697792437267843
 20
10.54538557840636
 10
7.689711266371269
 20
10.54277671378905
 10
7.681637899347976
 20
10.540169252494113
 10
7.673572304634867
 20
10.5375631807598
 10
7.665514450668859
 20
10.534958484824362
 10
7.6614884175896165
 20
10.533656648977768
 10
7.657464313784224
 20
10.532355154904863
 10
7.653442141230897
 20
10.531054003869958
 10
7.64942190190785
 20
10.529753197137364
 10
7.6489195080117085
 20
10.529590620562598
 10
7.648417144304467
 20
10.529428049363737
 10
7.647914810736921
 20
10.529265483516692
 10
7.647412507259851
 20
10.529102922997364
 10
7.646910233868027
 20
10.528940367802626
 10
7.646407990732236
 20
10.528777818017737
 10
7.645905778067245
 20
10.528615273748908
 10
7.645403596087853
 20
10.528452735102363
 10
7.644399324669521
 20
10.528127674916018
 10
7.643395176312971
 20
10.527802637383612
 10
7.642391150478112
 20
10.52747762224508
 10
7.641387246624852
 20
10.527152629240362
 10
7.640383464350343
 20
10.526827658177925
 10
7.639379803799983
 20
10.526502709130611
 10
7.638376265256056
 20
10.526177782239426
 10
7.6373728490008475
 20
10.525852877645363
 10
7.636369555314644
 20
10.525527995487813
 10
7.6353663844637225
 20
10.525203135899737
 10
7.634363336711608
 20
10.524878299012471
 10
7.633360412321842
 20
10.524553484957362
 10
7.629349950069738
 20
10.523254457949488
 10
7.625341461114225
 20
10.52195579634311
 10
7.621334940723273
 20
10.520657498123363
 10
7.617330384164852
 20
10.519359561275362
 10
7.613327786706257
 20
10.518061983795128
 10
7.609327143612852
 20
10.516764763718488
 10
7.605328450149692
 20
10.515467899092535
 10
7.601331701581849
 20
10.514171387964364
 10
7.600332817814007
 20
10.513847315205957
 10
7.599334055465349
 20
10.51352326449961
 10
7.598335414695441
 20
10.513199235925391
 10
7.597336895663851
 20
10.512875229563363
 10
7.596338498635369
 20
10.512551245544316
 10
7.5953402242964785
 20
10.512227284195987
 10
7.594342073439279
 20
10.511903345896098
 10
7.593344046855854
 20
10.511579431022362
 10
7.591348367797302
 20
10.510931672179222
 10
7.589353184048981
 20
10.510284006260989
 10
7.58735849065684
 20
10.509636430975942
 10
7.585364282666852
 20
10.508988944032364
 10
7.584865805977678
 20
10.5088270858528
 10
7.584367359511724
 20
10.508665233143361
 10
7.583868943463337
 20
10.508503385995926
 10
7.58337055802685
 20
10.508341544502361
 10
7.5828722033736184
 20
10.508179708744297
 10
7.58237387957773
 20
10.508017878756359
 10
7.581875586689897
 20
10.507856054562172
 10
7.581377324760858
 20
10.507694236185362
 10
7.580380893862234
 20
10.50737061692897
 10
7.5793845866963565
 20
10.507047020903737
 10
7.578388402959476
 20
10.506723447973066
 10
7.577392342347842
 20
10.506399898000364
 10
7.576396404618642
 20
10.506076370878066
 10
7.575400589776471
 20
10.505752866613236
 10
7.574404897886488
 20
10.505429385241221
 10
7.573409329013849
 20
10.505105926797363
 10
7.572413883231036
 20
10.504782491319098
 10
7.5714185606301
 20
10.504459078854488
 10
7.570423361310041
 20
10.504135689452564
 10
7.56942828536986
 20
10.50381232316236
 10
7.568433332848819
 20
10.503488980005894
 10
7.567438503543592
 20
10.50316565989636
 10
7.5664437971915035
 20
10.502842362719583
 10
7.565449213529853
 20
10.502519088361364
 10
7.564454752477317
 20
10.502195836788019
 10
7.563460414678097
 20
10.501872608298363
 10
7.562466200957758
 20
10.501549403272456
 10
7.56147211214185
 20
10.501226222090363
 10
7.559484310522656
 20
10.500579931866564
 10
7.5574970064253435
 20
10.499933736124486
 10
7.555510194452538
 20
10.499287632452596
 10
7.553523869206849
 20
10.498641618439361
 10
7.553027363358204
 20
10.498480128682065
 10
7.552530887770473
 20
10.498318644459488
 10
7.552034442621675
 20
10.498157165853094
 10
7.551538028089844
 20
10.497995692944361
 10
7.551289832355081
 20
10.497914958648707
 10
7.5510416443032184
 20
10.497834225790612
 10
7.550793463919177
 20
10.497753494363142
 10
7.550545291187852
 20
10.497672764359361
 10
7.5504212076875845
 20
10.497632399890705
 10
7.550297126101221
 20
10.497592035778112
 10
7.550173046433173
 20
10.497551672023643
 10
7.550048968687854
 20
10.497511308629363
 10
7.549924892870962
 20
10.497470945598096
 10
7.549800818993475
 20
10.497430582934989
 10
7.549676747067672
 20
10.497390220645567
 10
7.549552677105844
 20
10.497349858735362
 10
7.549056416965364
 20
10.49718841490941
 10
7.548560188147981
 20
10.497026977100987
 10
7.548063990355274
 20
10.496865545178004
 10
7.547567823288851
 20
10.496704119008363
 10
7.547071686751472
 20
10.496542698505174
 10
7.5465755809588515
 20
10.496381283764613
 10
7.546079506227471
 20
10.496219874926926
 10
7.545583462873843
 20
10.496058472132361
 10
7.544591470816144
 20
10.495735684906286
 10
7.5435996035722255
 20
10.495412921556735
 10
7.542607859178119
 20
10.495090181223752
 10
7.541616235669856
 20
10.494767463047364
 10
7.541554263171371
 20
10.494747293877332
 10
7.541492291143975
 20
10.494727124793364
 10
7.541430319594525
 20
10.494706955797895
 10
7.541368348529851
 20
10.49468678689336
 10
7.5413063779529
 20
10.49466661808166
 10
7.541244407854727
 20
10.494646449358736
 10
7.5411824382221155
 20
10.494626280720379
 10
7.54112046904185
 20
10.494606112162362
 10
7.540996532024572
 20
10.494565775282254
 10
7.5408725968881
 20
10.494525438750237
 10
7.540748663754506
 20
10.494485102611034
 10
7.5406247327458615
 20
10.49444476690936
 10
7.540376877288935
 20
10.494364096886457
 10
7.5401290299947235
 20
10.494283428487112
 10
7.5398811900383365
 20
10.494202761407394
 10
7.539633356594855
 20
10.49412209534336
 10
7.539385529362647
 20
10.494041430183348
 10
7.539137710132472
 20
10.493960766584738
 10
7.538889901217978
 20
10.493880105397189
 10
7.5386421049328405
 20
10.493799447470362
 10
7.5386111313217015
 20
10.493789365471596
 10
7.5385801574727225
 20
10.493779283363239
 10
7.5385491829147995
 20
10.49376920097194
 10
7.538518207176843
 20
10.493759118124363
 10
7.538487230144177
 20
10.493749034777597
 10
7.5384562531314785
 20
10.49373895141649
 10
7.538425277809473
 20
10.493728868657065
 10
7.538394305848861
 20
10.493718787115363
 10
7.53836333796751
 20
10.493708707054708
 10
7.538332371063596
 20
10.493698627332861
 10
7.538301401082819
 20
10.493688546455267
 10
7.53827042397085
 20
10.493678462927363
 10
7.538239437746995
 20
10.493668376018565
 10
7.538208448730231
 20
10.493658288058736
 10
7.538177465313524
 20
10.49364820214172
 10
7.538146495889855
 20
10.49363812136136
 10
7.538084610597558
 20
10.493617979478941
 10
7.538022750021227
 20
10.493597846620986
 10
7.537960849332464
 20
10.493577698889222
 10
7.537898843702855
 20
10.493557512385362
 10
7.53786778983838
 20
10.493547400282925
 10
7.537836736803605
 20
10.49353728846436
 10
7.5378057278699515
 20
10.49352719288105
 10
7.537774806308853
 20
10.493517129484363
 10
7.537744002577533
 20
10.493507109501206
 10
7.5377132958711
 20
10.493497125263612
 10
7.537682652570034
 20
10.493487164378394
 10
7.537652039054841
 20
10.493477214452362
 10
7.504730320429424
 20
10.48269768434644
 10
7.4703847330654725
 20
10.47137125054574
 10
7.437211234819202
 20
10.460454118569348
 10
7.407805783546841
 20
10.450902493936365
 10
7.39491994101521
 20
10.446787689562413
 10
7.381505366378477
 20
10.44247360988049
 10
7.365442326323922
 20
10.437180551367007
 10
7.344611087538844
 20
10.430128810498367
 10
7.317699829135506
 20
10.420834525389118
 10
7.2866283799261
 20
10.409997200702616
 10
7.254124481147819
 20
10.398612182740742
 10
7.222915874037845
 20
10.387674817805365
 10
7.148528292603899
 20
10.361570439415225
 10
7.07556333546048
 20
10.335840358411492
 10
7.003685578078745
 20
10.310360096512944
 10
6.9325595959298525
 20
10.285005175438368
 10
6.8619157450667885
 20
10.25967582221218
 10
6.79174750386985
 20
10.234371085071622
 10
6.722114131301161
 20
10.209114717559185
 10
6.653074886322848
 20
10.18393047321737
 10
6.584674305504365
 20
10.158836577818388
 10
6.516898035841471
 20
10.133829146053998
 10
6.449717001938026
 20
10.108898764846046
 10
6.383102128397859
 20
10.084036021116376
 10
6.317030605359214
 20
10.059233845661673
 10
6.251504685099476
 20
10.034494544778749
 10
6.186532885431177
 20
10.00982276863964
 10
6.122123724166848
 20
9.985223167416375
 10
6.09013228175224
 20
9.972951695956048
 10
6.058281615111724
 20
9.96069887431775
 10
6.026569710965269
 20
9.948464146051268
 10
5.994994556032843
 20
9.936246954706377
 10
5.9635544983127815
 20
9.924046876622704
 10
5.932249330913102
 20
9.911864019298502
 10
5.901079208220537
 20
9.899698623021486
 10
5.870044284621848
 20
9.887550928079378
 10
5.808379754567646
 20
9.86330927504752
 10
5.747252487426223
 20
9.839139340992254
 10
5.686658332190113
 20
9.815041078399302
 10
5.626593137851849
 20
9.791014439754381
 10
5.567052837508086
 20
9.76705940472657
 10
5.508033700663731
 20
9.743176061728883
 10
5.449532080928186
 20
9.719364526358447
 10
5.391544331910858
 20
9.695624914212384
 10
5.334066750735168
 20
9.67195732036104
 10
5.277095408581353
 20
9.648361757767635
 10
5.220626320144035
 20
9.624838218868604
 10
5.164655500117853
 20
9.601386696100386
 10
5.109179064307341
 20
9.578007223417497
 10
5.054193532957477
 20
9.554700000843013
 10
4.999695527423555
 20
9.531465269918467
 10
4.945681669060853
 20
9.508303272185389
 10
4.892148415238864
 20
9.485214179814873
 10
4.8390915673854735
 20
9.462197887492515
 10
4.7865067629435245
 20
9.439254220533844
 10
4.734389639355861
 20
9.416383004254392
 10
4.682736067521105
 20
9.393584163513284
 10
4.631542852166348
 20
9.370858021344768
 10
4.580807031474848
 20
9.348205000327065
 10
4.530525643629851
 20
9.325625523038392
 10
4.480695538583603
 20
9.303119931681799
 10
4.431312813363604
 20
9.280688246964894
 10
4.382373376765976
 20
9.258330409220488
 10
4.333873137586856
 20
9.236046358781394
 10
4.285808082897198
 20
9.213836069405787
 10
4.238174512868099
 20
9.191699648557773
 10
4.190968805945879
 20
9.16963723712682
 10
4.144187340576842
 20
9.147648976002397
 10
4.09782645392508
 20
9.125734988454367
 10
4.0518823180302235
 20
9.103895327267399
 10
4.006351063649674
 20
9.08213002760543
 10
3.9612288215408498
 20
9.060439124632401
 10
3.9165118009261946
 20
9.038822687067434
 10
3.872196524883101
 20
9.017280917851902
 10
3.828279594953642
 20
8.995814053480874
 10
3.7847576126798614
 20
8.974422330449405
 10
3.741626975751508
 20
8.953105898070687
 10
3.6988832664498474
 20
8.931864556924406
 10
3.6565218632041905
 20
8.910698020407626
 10
3.6145381444438485
 20
8.889606001917407
 10
3.587488781656006
 20
8.875955991265062
 10
3.5605970595608554
 20
8.862337844779157
 10
3.5338619885444444
 20
8.848751600774374
 10
3.50728257899285
 20
8.835197297565404
 10
3.4808578063582374
 20
8.821674958524204
 10
3.454586506357977
 20
8.808184547257033
 10
3.428467479775904
 20
8.794726012427798
 10
3.402499527395854
 20
8.781299302700408
 10
3.3766815249626134
 20
8.76790439880355
 10
3.351012648063225
 20
8.754541409729535
 10
3.3254921472449013
 20
8.741210476535455
 10
3.300119273054854
 20
8.727911740278408
 10
3.2748932118846454
 20
8.714645314573643
 10
3.2498128934979746
 20
8.701411203269783
 10
3.2248771835024854
 20
8.688209382773987
 10
3.20008494750585
 20
8.67503982949341
 10
3.175435051568492
 20
8.661902520030129
 10
3.1509263635589804
 20
8.64879743176516
 10
3.126557751799403
 20
8.635724542274067
 10
3.102328084611848
 20
8.622683829132413
 10
3.0782362926943136
 20
8.609675296599445
 10
3.0542815562543524
 20
8.596699055664663
 10
3.0304631178761383
 20
8.583755244001257
 10
3.0067802201438596
 20
8.570843999282411
 10
2.9832320349199932
 20
8.557965428931366
 10
2.9598174511802284
 20
8.545119519372287
 10
2.936535287178522
 20
8.532306226779772
 10
2.913384361168845
 20
8.519525507328412
 10
2.890363508438611
 20
8.50677732448068
 10
2.8674716324089715
 20
8.494061670846788
 10
2.8447076535345204
 20
8.48137854632521
 10
2.8220704922698516
 20
8.468727950814413
 10
2.795417615290006
 20
8.453784850002853
 10
2.7689337982126005
 20
8.438884741882665
 10
2.74261631044682
 20
8.424026529645603
 10
2.7164624214018502
 20
8.409209116483416
 10
2.690469500876958
 20
8.394431448531806
 10
2.6646353202317314
 20
8.379692643703041
 10
2.6389577512158056
 20
8.364991862853714
 10
2.6134346655788576
 20
8.350328266840418
 10
2.588063894335029
 20
8.335700999098137
 10
2.562843105547479
 20
8.321109133370168
 10
2.5377699265438665
 20
8.306551725977824
 10
2.5128419846518497
 20
8.29202783324242
 10
2.488056928282383
 20
8.277536520505826
 10
2.463412490184851
 20
8.26307688919667
 10
2.438906424192325
 20
8.248648049764139
 10
2.414536484137848
 20
8.234249112657421
 10
2.390300383388883
 20
8.219879171019794
 10
2.366195673454854
 20
8.20553724877017
 10
2.342219865379576
 20
8.191222352521171
 10
2.318370470206851
 20
8.176933488885421
 10
2.294645096315868
 20
8.162669706113656
 10
2.2710417414189763
 20
8.148430219003046
 10
2.247558500564267
 20
8.134214283988126
 10
2.2241934687998466
 20
8.120021157503423
 10
2.2009446259266454
 20
8.105850046690328
 10
2.1778094907667267
 20
8.091699961517673
 10
2.154785466895369
 20
8.077569862661143
 10
2.131869957887851
 20
8.063458710796425
 10
2.109060431209066
 20
8.049365493929924
 10
2.0863546098778514
 20
8.035289309391674
 10
2.06375028080263
 20
8.0212292818428
 10
2.041245230891853
 20
8.007184535944424
 10
2.0188372463506497
 20
7.993154196060301
 10
1.9965241105754714
 20
7.979137385363176
 10
1.9743036062594896
 20
7.965133226727676
 10
1.952173516095847
 20
7.951140843028426
 10
1.9301315607859735
 20
7.937159330626052
 10
1.9081752130531058
 20
7.923187679819927
 10
1.8863018836276026
 20
7.9092248543950525
 10
1.8645089832398511
 20
7.895269818136429
 10
1.842794034913318
 20
7.881321582864022
 10
1.821155010843846
 20
7.867379352542928
 10
1.7995899955203853
 20
7.853442379173586
 10
1.7780970734318586
 20
7.83950991475643
 10
1.7566742351291182
 20
7.8255811711118195
 10
1.735319095408478
 20
7.811655199345054
 10
1.7140291751292693
 20
7.797731010381726
 10
1.6928019951508517
 20
7.783807615147429
 10
1.6716351131351175
 20
7.7698840403131495
 10
1.6505262339519717
 20
7.75595937552843
 10
1.6294730992750246
 20
7.742032726188961
 10
1.6084734507778577
 20
7.728103197690432
 10
1.5875250153119325
 20
7.714169889091714
 10
1.56662546044398
 20
7.700231874102183
 10
1.5457724389182061
 20
7.686288220095527
 10
1.5249636034788452
 20
7.672337994445433
 10
1.5041966328140788
 20
7.658380275624495
 10
1.4834693093872247
 20
7.644414186507683
 10
1.4627794416051785
 20
7.630438861069997
 10
1.4421248378748501
 20
7.616453433286434
 10
1.4215032688499107
 20
7.602457020985826
 10
1.400912354161349
 20
7.588448677408561
 10
1.3803496756865385
 20
7.574427439649233
 10
1.3598128153028526
 20
7.560392344802436
 10
1.3260890622864423
 20
7.537105411355359
 10
1.2901854144233553
 20
7.511896796696563
 10
1.2522158277982598
 20
7.484841908260455
 10
1.2122942584958523
 20
7.456016153481439
 10
1.170534901071072
 20
7.425495041818316
 10
1.1270529039658541
 20
7.39335449082369
 10
1.081963654093137
 20
7.359670520074941
 10
1.0353825383658588
 20
7.324519149149442
 10
0.9874249569102602
 20
7.287976403296833
 10
0.9382063627058486
 20
7.250118330451318
 10
0.8878422219454478
 20
7.211020984219365
 10
0.8364480008218536
 20
7.170760418207443
 10
0.7841388586871147
 20
7.129412554790914
 10
0.7310287275339746
 20
7.087052791419946
 10
0.6772312325140248
 20
7.0437563943132275
 10
0.622859998778857
 20
6.999598629689448
 10
0.5797319923853976
 20
6.964299830492401
 10
0.5365937122724773
 20
6.928755715073072
 10
0.49340204709974245
 20
6.892910727558432
 10
0.4501138855268536
 20
6.856709312075447
  0
LWPOLYLINE
  5
64
330
17
100
AcDbEntity
  8
SANDING_GUIDE_NONCUT
100
AcDbPolyline
 90
325
 70
0
 10
0.4501138855268536
 20
6.856709312075447
 10
0.46135228669361794
 20
6.853669558150573
 10
0.4732561295949793
 20
6.850462594070947
 10
0.4858249970360191
 20
6.8470909029853235
 10
0.49905847182184715
 20
6.8435569680424475
 10
0.5126011754201656
 20
6.839957495045136
 10
0.5267707734375975
 20
6.836210140608449
 10
0.5415622954051642
 20
6.832319001153261
 10
0.5569707708538587
 20
6.82828817310045
 10
0.5718635350667896
 20
6.8244143051677
 10
0.5872780715950938
 20
6.820427884314199
 10
0.6032058813375301
 20
6.816333803743573
 10
0.6196384651928426
 20
6.812136956659449
 10
0.6208785269246846
 20
6.811821365974698
 10
0.6221213118530926
 20
6.811505240878198
 10
0.6233668154666248
 20
6.811188583717074
 10
0.6246150332538534
 20
6.810871396838449
 10
0.6303222443196148
 20
6.809423024172808
 10
0.636085856520971
 20
6.807963425449325
 10
0.6419058267067754
 20
6.806492675778902
 10
0.6477821117258529
 20
6.805010850272449
 10
0.6706259382858448
 20
6.799279971974558
 10
0.6942787628045934
 20
6.793394577533574
 10
0.7187355754054678
 20
6.787359241993277
 10
0.7439913662118514
 20
6.78117854039745
 10
0.768529832782832
 20
6.77522228942537
 10
0.7937657803802196
 20
6.769145369617824
 10
0.8196908191679242
 20
6.762952254767839
 10
0.8462965593098417
 20
6.756647418668448
 10
0.8735737401989212
 20
6.750235477172261
 10
0.9015092191997169
 20
6.7437216233327
 10
0.9300887834335754
 20
6.7371111967462625
 10
0.959298220021843
 20
6.73040953700945
 10
0.9592988204701456
 20
6.730409399801653
 10
0.9593003348612257
 20
6.730409053750076
 10
0.9593036771371217
 20
6.730408290010935
 10
0.959309761239858
 20
6.73040689974045
 10
0.9943512053776615
 20
6.722422369234279
 10
1.029927491042102
 20
6.7143608766205745
 10
1.0660374537831672
 20
6.706222336845311
 10
1.1026799291508596
 20
6.698006664854452
 10
1.1426780590973848
 20
6.689085445926281
 10
1.1832955100648448
 20
6.680073834024078
 10
1.2245369756160684
 20
6.670970786273312
 10
1.2664071493138565
 20
6.6617752597994535
 10
1.3137690467020064
 20
6.651427350424971
 10
1.3619293462665993
 20
6.640961161015081
 10
1.4109010943380724
 20
6.630374431168878
 10
1.4606973372468488
 20
6.619664900485459
 10
1.5217517520487363
 20
6.606607321749177
 10
1.5840504900177237
 20
6.59336396616396
 10
1.647623532137274
 20
6.579930597200491
 10
1.7125008593908504
 20
6.566302978329462
 10
1.7746097759064483
 20
6.553331438725666
 10
1.8379210001740987
 20
6.540182311925589
 10
1.9024594718573766
 20
6.526853263802199
 10
1.9682501306198432
 20
6.513341960228466
 10
2.0226307544705833
 20
6.502231117569654
 10
2.07786474518948
 20
6.4909985089574675
 10
2.133962254875051
 20
6.47964420285753
 10
2.190933435625844
 20
6.46816826773547
 10
2.241791794361724
 20
6.457970384039626
 10
2.2933377046670955
 20
6.447679639637721
 10
2.345574232506344
 20
6.437297310470441
 10
2.3985044438438408
 20
6.426824672478473
 10
2.4498192996318195
 20
6.4167174221149885
 10
2.5017707092615993
 20
6.4065310416351
 10
2.5543565380965063
 20
6.396268044466646
 10
2.607574651499853
 20
6.385930944037476
 10
2.654656784021711
 20
6.376827370362694
 10
2.702215769784978
 20
6.367671825910225
 10
2.7502460444611785
 20
6.358467125630131
 10
2.7987420437218518
 20
6.349216084472477
 10
2.8443048601917127
 20
6.340564366017352
 10
2.890258165062228
 20
6.331878222571229
 10
2.9365935278233053
 20
6.323160966108979
 10
2.9833025179648516
 20
6.314415908605479
 10
3.0282309730268224
 20
6.306045174010418
 10
3.0734809300681007
 20
6.29765602860248
 10
3.119040994507259
 20
6.289252399299544
 10
3.1648997717628546
 20
6.28083821301948
 10
3.209124083540509
 20
6.272767199806809
 10
3.2535982276976085
 20
6.264694592739605
 10
3.2983079762663294
 20
6.256624909598591
 10
3.3432391012788614
 20
6.248562668164482
 10
3.3866411583958396
 20
6.2408211587338265
 10
3.4302179026379704
 20
6.233095779951231
 10
3.473952369556798
 20
6.225391622578014
 10
3.517827594703853
 20
6.217713777375483
 10
3.560250740130499
 20
6.210340316006139
 10
3.6027694460782342
 20
6.203001683749733
 10
3.645364085034025
 20
6.195703530847702
 10
3.688015029484852
 20
6.188451507541483
 10
3.7285854695201337
 20
6.181607027217607
 10
3.7691679638713467
 20
6.174815202855482
 10
3.8097414048983183
 20
6.1680819211878575
 10
3.8502846849608474
 20
6.161413068947482
 10
3.8897117400262857
 20
6.154987317722091
 10
3.929066411686854
 20
6.148634703813105
 10
3.9683248334429138
 20
6.142361718359059
 10
4.007463138794854
 20
6.136174852498481
 10
4.044933270611303
 20
6.1303175132249965
 10
4.082245022957977
 20
6.124552460085855
 10
4.119372906452334
 20
6.118886485112277
 10
4.156291431711843
 20
6.113326380335481
 10
4.18427739297146
 20
6.109163363843747
 10
4.212113405515225
 20
6.105069345104356
 10
4.239786312026304
 20
6.1010477769272775
 10
4.267282955187845
 20
6.0971021121224815
 10
4.267297907618335
 20
6.0970999806046375
 10
4.267312859967724
 20
6.097097849113981
 10
4.2673278122359335
 20
6.097095717650324
 10
4.267342764422857
 20
6.097093586213479
 10
4.395044351718916
 20
6.0791285505903225
 10
4.5254654204003515
 20
6.061262544522979
 10
4.658701132520292
 20
6.043495706005636
 10
4.794846650131852
 20
6.02582817303248
 10
4.929003301286585
 20
6.008882363824419
 10
5.066044938530474
 20
5.99202863382823
 10
5.206061238649802
 20
5.975266151731171
 10
5.349141878430849
 20
5.958594086220485
 10
5.484568123205115
 20
5.943221756097268
 10
5.622778738585232
 20
5.9279239642382375
 10
5.763848651976154
 20
5.912697982913082
 10
5.9078527907828615
 20
5.89754108439149
 10
5.997020134278607
 20
5.888343123476927
 10
6.087321345349103
 20
5.87916836120724
 10
6.178774008126474
 20
5.870015561068678
 10
6.271395706742844
 20
5.8608834865474915
 10
6.409371747568493
 20
5.847526727959476
 10
6.5494567057839745
 20
5.834252895520617
 10
6.69162587421215
 20
5.821059915709945
 10
6.835854545675851
 20
5.807945715006493
 10
6.9825197506214
 20
5.794871950140479
 10
7.131204510011479
 20
5.781868509135368
 10
7.281882409956744
 20
5.768928603293322
 10
7.43452703656785
 20
5.756045443916493
 10
7.503340704432539
 20
5.750307006049368
 10
7.572538986311351
 20
5.744577387073745
 10
7.642119421923418
 20
5.7388556860817435
 10
7.712079550987845
 20
5.733141002165494
 10
7.712115434756235
 20
5.733138080548494
 10
7.712151318655977
 20
5.733135158930745
 10
7.712187202687154
 20
5.733132237311869
 10
7.712223086849853
 20
5.733129315691494
 10
7.767600604417076
 20
5.728619601517588
 10
7.8242707280421016
 20
5.724003502803743
 10
7.882203014433507
 20
5.719284754028525
 10
7.941367020299843
 20
5.714467089670494
 10
8.001925897828379
 20
5.709538516474774
 10
8.063658089463097
 20
5.704518457949993
 10
8.126527965961436
 20
5.699411216845963
 10
8.190499898080851
 20
5.694221095912496
 10
8.256009447009696
 20
5.688914281848199
 10
8.322559483596102
 20
5.683532688718618
 10
8.39010866120313
 20
5.678081249422728
 10
8.458615633193851
 20
5.672564896859495
 10
8.528403468076164
 20
5.666959354911821
 10
8.5990704051096
 20
5.66129875138537
 10
8.670569509633914
 20
5.65558863156048
 10
8.742853846988844
 20
5.649834540717496
 10
8.816616593086614
 20
5.643983447991136
 10
8.891079264939485
 20
5.638099403629372
 10
8.96618851584553
 20
5.632188660088669
 10
9.041890999102854
 20
5.626257469825497
 10
9.086970862235852
 20
5.622738644951621
 10
9.132227740296855
 20
5.619216268747497
 10
9.177649760082353
 20
5.615691725228622
 10
9.223225048388848
 20
5.612166398410498
 10
9.290278177767995
 20
5.607000529909888
 10
9.35756204056873
 20
5.601841987125873
 10
9.425002320646776
 20
5.596696887865921
 10
9.492524701857853
 20
5.5915713499374995
 10
9.52709912008968
 20
5.588956986914795
 10
9.561664796470474
 20
5.5863502374071246
 10
9.596211268291455
 20
5.58375196029864
 10
9.630728072843844
 20
5.5811630144735
 10
9.708896633200695
 20
5.575326595494062
 10
9.786779150621605
 20
5.569548807538499
 10
9.864295135188136
 20
5.563835878991188
 10
9.94136409698185
 20
5.5581940382365005
 10
9.962891425649211
 20
5.5566250636634695
 10
9.984375282962723
 20
5.55506232312025
 10
10.0058138240813
 20
5.553505958766905
 10
10.027205204163856
 20
5.551956112763499
 10
10.087779981555293
 20
5.547584365820953
 10
10.1478563684746
 20
5.5432739170343766
 10
10.207331043367041
 20
5.53903226380136
 10
10.266100684677859
 20
5.5348669035195
 10
10.299888117035728
 20
5.532484345133986
 10
10.3333811589211
 20
5.5301316323503755
 10
10.366558780894593
 20
5.527810288409579
 10
10.399399953516841
 20
5.525521836552503
 10
10.485795562185928
 20
5.519547723597455
 10
10.569493320797982
 20
5.513824655541127
 10
10.650372260074462
 20
5.508355421321237
 10
10.728311410736858
 20
5.503142809875502
 10
10.772845457577468
 20
5.500190322673925
 10
10.816421529624982
 20
5.497319957315879
 10
10.859147126538183
 20
5.494523612540895
 10
10.901129747975851
 20
5.491793187088504
 10
10.942976271167957
 20
5.489088388941145
 10
10.984288331396229
 20
5.486434034441629
 10
11.02518242097581
 20
5.4838213400813025
 10
11.065775032221858
 20
5.481241522351507
 10
11.106980268594228
 20
5.478635453947053
 10
11.148121766531602
 20
5.476044736586381
 10
11.189328119237352
 20
5.473459669711273
 10
11.230727919914848
 20
5.4708705527635075
 10
11.242432384487138
 20
5.470139785955304
 10
11.254165413804856
 20
5.469407699293631
 10
11.265929943572573
 20
5.468674071256897
 10
11.277728909494861
 20
5.467938680323506
 10
11.341377694249836
 20
5.463977802989101
 10
11.406013202900475
 20
5.459966927809759
 10
11.471553723032564
 20
5.4559128366737895
 10
11.53791754223186
 20
5.45182231146951
 10
11.607240238670123
 20
5.447566299906791
 10
11.677258839907978
 20
5.443286529611761
 10
11.747878155729516
 20
5.438990870386354
 10
11.819002995918844
 20
5.434687192032509
 10
11.824176926364018
 20
5.434375057994995
 10
11.829352968197476
 20
5.434062926890636
 10
11.834531084168866
 20
5.433750801793215
 10
11.83971123702785
 20
5.433438685776512
 10
12.003096433488643
 20
5.423662394897059
 10
12.168547392958224
 20
5.413896662790137
 10
12.336167567940869
 20
5.404139898590156
 10
12.506060410940854
 20
5.394390511431517
 10
12.636559391367733
 20
5.386996349878579
 10
12.768473659426604
 20
5.379604561322267
 10
12.9018494955696
 20
5.37221424926658
 10
13.036733180248852
 20
5.364824517215519
 10
13.181768416681663
 20
5.356971747451176
 10
13.328514276676849
 20
5.349123668031771
 10
13.47692447417829
 20
5.34128540788274
 10
13.626952723129854
 20
5.333462095929523
 10
13.786685173051005
 20
5.32524312752718
 10
13.948102016452104
 20
5.317052489667773
 10
14.111143693573574
 20
5.3088962042492405
 10
14.275750644655865
 20
5.300780293169524
 10
14.454676157321593
 20
5.2920933328290864
 10
14.635267025588483
 20
5.283467600260025
 10
14.817442861302318
 20
5.27491047677071
 10
15.001123276308853
 20
5.266429343669525
 10
15.180186803455491
 20
5.2583032136322885
 10
15.360505836229471
 20
5.250261553016401
 10
15.542003239056903
 20
5.242310754157822
 10
15.724601876363856
 20
5.2344572093925255
 10
15.973268270671376
 20
5.223996247307197
 10
16.22358391099798
 20
5.213732764640399
 10
16.47532339199953
 20
5.203674292854913
 10
16.72826130833186
 20
5.193828363413521
 10
17.007137866930215
 20
5.183269562413443
 10
17.28688447973098
 20
5.172984264630646
 10
17.567200230475187
 20
5.1629803587172844
 10
17.84778420290386
 20
5.153265733325517
 10
18.062112435705536
 20
5.146044284525374
 10
18.27696338001298
 20
5.1389767374673845
 10
18.49231423760512
 20
5.132063941775458
 10
18.708142210260853
 20
5.125306747073502
 10
18.708287429689996
 20
5.125302257889471
 10
18.708432649502477
 20
5.125297768770503
 10
18.70857786969841
 20
5.125293279716784
 10
18.708723090277864
 20
5.1252887907285025
 10
18.87082233428965
 20
5.120326935222128
 10
19.03328984775073
 20
5.115449676463003
 10
19.19594201557512
 20
5.110660155418129
 10
19.35859522267686
 20
5.105961513054504
 10
19.439957977188037
 20
5.103644702921553
 10
19.521292576512742
 20
5.101351293081381
 10
19.602616560231503
 20
5.099081162471524
 10
19.68394746792486
 20
5.09683419002951
 10
19.83026799735969
 20
5.092850951333919
 10
19.97652464118824
 20
5.088944059306263
 10
20.122575926165844
 20
5.085115236031482
 10
20.26828037904786
 20
5.081366203594515
 10
20.400418294141197
 20
5.078026149606062
 10
20.532049313371864
 20
5.0747545644753895
 10
20.66307127382202
 20
5.071552461749031
 10
20.793382012573865
 20
5.068420854973512
 10
20.907179244413904
 20
5.065728993729291
 10
21.020283960086736
 20
5.063092795891507
 10
21.132631271715873
 20
5.06051276382947
 10
21.244156291424865
 20
5.057989399912495
 10
21.25952756558862
 20
5.057644554656964
 10
21.274881702324485
 20
5.057300805080745
 10
21.290218537170283
 20
5.056958152245651
 10
21.30553790566386
 20
5.056616597213493
 10
21.305718081276446
 20
5.056612584299117
 10
21.305898260175233
 20
5.056608571425992
 10
21.3060784423596
 20
5.056604558594117
 10
21.30625862782886
 20
5.056600545803493
 10
21.361523792436323
 20
5.055375121125881
 10
21.41673408392736
 20
5.054161406814112
 10
21.471884787485642
 20
5.052959245993032
 10
21.52697118829486
 20
5.051768481787484
 10
21.585234835693363
 20
5.050519671778826
 10
21.64342107600961
 20
5.049283235688479
 10
21.701529758568988
 20
5.0480589460963845
 10
21.759560732696862
 20
5.046846575582478
 10
21.823933689049746
 20
5.045513514389821
 10
21.88821658593148
 20
5.044194534545227
 10
21.952415373383907
 20
5.042889296651758
 10
22.016536001448863
 20
5.041597461312476
 10
22.086888664156227
 20
5.040193459479836
 10
22.157168702636973
 20
5.038804764457854
 10
22.22739033333719
 20
5.037430932931182
 10
22.297567772702855
 20
5.03607152158448
 10
22.382339135731208
 20
5.034447300176653
 10
22.467099770061104
 20
5.032842783447107
 10
22.551882251495392
 20
5.031257301759748
 10
22.636719155836865
 20
5.029690185478483
 10
22.743425424150395
 20
5.027746502649796
 10
22.85034063734461
 20
5.025829827127984
 10
22.957533243754206
 20
5.02393939152617
 10
23.06507169171386
 20
5.022074428457481
 10
23.137059543969492
 20
5.020843768612307
 10
23.209249613590735
 20
5.019624172745852
 10
23.281659245648775
 20
5.018415653879707
 10
23.354305785214855
 20
5.017218225035469
 10
23.390617047087723
 20
5.016625410512452
 10
23.426992932453977
 20
5.016035394987091
 10
23.463435110762937
 20
5.015448203811166
 10
23.499945251463863
 20
5.01486386233646
  0
LWPOLYLINE
  5
65
330
17
100
AcDbEntity
  8
SANDING_GUIDE_NONCUT
100
AcDbPolyline
 90
2
 70
0
 10
23.499945134803873
 20
5.014856548449453
 10
28.627449369318875
 20
0.016976462158445393
  0
LWPOLYLINE
  5
66
330
17
100
AcDbEntity
  8
SANDING_GUIDE_NONCUT
100
AcDbPolyline
 90
2
 70
0
 10
28.627449369318875
 20
0.016976462158445393
 10
28.628058774889872
 20
2.07100854465736e-05
  0
LWPOLYLINE
  5
67
330
17
100
AcDbEntity
  8
SANDING_GUIDE_NONCUT
100
AcDbPolyline
 90
2
 70
0
 10
28.628058774889872
 20
2.07100854465736e-05
 10
39.77932620241587
 20
0.009282158148447017
  0
LWPOLYLINE
  5
68
330
17
100
AcDbEntity
  8
SANDING_GUIDE_NONCUT
100
AcDbPolyline
 90
2
 70
0
 10
39.77932620241587
 20
0.009282158148447017
 10
39.769106947859875
 20
12.313798655915448
  0
LWPOLYLINE
  5
69
330
17
100
AcDbEntity
  8
SANDING_GUIDE_NONCUT
100
AcDbPolyline
 90
2
 70
0
 10
39.769106947859875
 20
12.313798655915448
 10
62.569099084388874
 20
12.332734704607446
  0
ENDSEC
  0
SECTION
  2
OBJECTS
  0
DICTIONARY
  5
A
330
0
100
AcDbDictionary
281
1
  3
ACAD_COLOR
350
B
  3
ACAD_GROUP
350
C
  3
ACAD_LAYOUT
350
D
  3
ACAD_MATERIAL
350
E
  3
ACAD_MLEADERSTYLE
350
F
  3
ACAD_MLINESTYLE
350
10
  3
ACAD_PLOTSETTINGS
350
11
  3
ACAD_PLOTSTYLENAME
350
12
  3
ACAD_SCALELIST
350
14
  3
ACAD_TABLESTYLE
350
15
  3
ACAD_VISUALSTYLE
350
16
  3
EZDXF_META
350
2D
  0
DICTIONARY
  5
B
330
A
100
AcDbDictionary
281
1
  0
DICTIONARY
  5
C
330
A
100
AcDbDictionary
281
1
  0
DICTIONARY
  5
D
330
A
100
AcDbDictionary
281
1
  3
Model
350
1A
  3
Layout1
350
1E
  0
DICTIONARY
  5
E
330
A
100
AcDbDictionary
281
1
  3
ByBlock
350
1F
  3
ByLayer
350
20
  3
Global
350
21
  0
DICTIONARY
  5
F
330
A
100
AcDbDictionary
281
1
  3
Standard
350
2C
  0
DICTIONARY
  5
10
330
A
100
AcDbDictionary
281
1
  3
Standard
350
22
  0
DICTIONARY
  5
11
330
A
100
AcDbDictionary
281
1
  0
ACDBDICTIONARYWDFLT
  5
12
330
A
100
AcDbDictionary
281
1
  3
Normal
350
13
100
AcDbDictionaryWithDefault
340
13
  0
ACDBPLACEHOLDER
  5
13
330
12
  0
DICTIONARY
  5
14
330
A
100
AcDbDictionary
281
1
  0
DICTIONARY
  5
15
330
A
100
AcDbDictionary
281
1
  0
DICTIONARY
  5
16
330
A
100
AcDbDictionary
281
1
  0
LAYOUT
  5
1A
330
D
100
AcDbPlotSettings
  1

  4
A3
  6

 40
7.5
 41
20.0
 42
7.5
 43
20.0
 44
420.0
 45
297.0
 46
0.0
 47
0.0
 48
0.0
 49
0.0
140
0.0
141
0.0
142
1.0
143
1.0
 70
1024
 72
1
 73
0
 74
5
  7

 75
16
 76
0
 77
2
 78
300
147
1.0
148
0.0
149
0.0
100
AcDbLayout
  1
Model
 70
1
 71
0
 10
0.0
 20
0.0
 11
420.0
 21
297.0
 12
0.0
 22
0.0
 32
0.0
 14
1e+20
 24
1e+20
 34
1e+20
 15
-1e+20
 25
-1e+20
 35
-1e+20
146
0.0
 13
0.0
 23
0.0
 33
0.0
 16
1.0
 26
0.0
 36
0.0
 17
0.0
 27
1.0
 37
0.0
 76
1
330
17
  0
LAYOUT
  5
1E
330
D
100
AcDbPlotSettings
  1

  4
A3
  6

 40
7.5
 41
20.0
 42
7.5
 43
20.0
 44
420.0
 45
297.0
 46
0.0
 47
0.0
 48
0.0
 49
0.0
140
0.0
141
0.0
142
1.0
143
1.0
 70
0
 72
1
 73
0
 74
5
  7

 75
16
 76
0
 77
2
 78
300
147
1.0
148
0.0
149
0.0
100
AcDbLayout
  1
Layout1
 70
1
 71
1
 10
0.0
 20
0.0
 11
420.0
 21
297.0
 12
0.0
 22
0.0
 32
0.0
 14
1e+20
 24
1e+20
 34
1e+20
 15
-1e+20
 25
-1e+20
 35
-1e+20
146
0.0
 13
0.0
 23
0.0
 33
0.0
 16
1.0
 26
0.0
 36
0.0
 17
0.0
 27
1.0
 37
0.0
 76
1
330
1B
  0
MATERIAL
  5
1F
102
{ACAD_REACTORS
330
E
102
}
330
E
100
AcDbMaterial
  1
ByBlock
  2

 70
0
 40
1.0
 71
1
 41
1.0
 91
-1023410177
 42
1.0
 72
1
  3

 73
1
 74
1
 75
1
 44
0.5
 73
0
 45
1.0
 46
1.0
 77
1
  4

 78
1
 79
1
170
1
 48
1.0
171
1
  6

172
1
173
1
174
1
140
1.0
141
1.0
175
1
  7

176
1
177
1
178
1
143
1.0
179
1
  8

270
1
271
1
272
1
145
1.0
146
1.0
273
1
  9

274
1
275
1
276
1
 42
1.0
 72
1
  3

 73
1
 74
1
 75
1
 94
63
  0
MATERIAL
  5
20
102
{ACAD_REACTORS
330
E
102
}
330
E
100
AcDbMaterial
  1
ByLayer
  2

 70
0
 40
1.0
 71
1
 41
1.0
 91
-1023410177
 42
1.0
 72
1
  3

 73
1
 74
1
 75
1
 44
0.5
 73
0
 45
1.0
 46
1.0
 77
1
  4

 78
1
 79
1
170
1
 48
1.0
171
1
  6

172
1
173
1
174
1
140
1.0
141
1.0
175
1
  7

176
1
177
1
178
1
143
1.0
179
1
  8

270
1
271
1
272
1
145
1.0
146
1.0
273
1
  9

274
1
275
1
276
1
 42
1.0
 72
1
  3

 73
1
 74
1
 75
1
 94
63
  0
MATERIAL
  5
21
102
{ACAD_REACTORS
330
E
102
}
330
E
100
AcDbMaterial
  1
Global
  2

 70
0
 40
1.0
 71
1
 41
1.0
 91
-1023410177
 42
1.0
 72
1
  3

 73
1
 74
1
 75
1
 44
0.5
 73
0
 45
1.0
 46
1.0
 77
1
  4

 78
1
 79
1
170
1
 48
1.0
171
1
  6

172
1
173
1
174
1
140
1.0
141
1.0
175
1
  7

176
1
177
1
178
1
143
1.0
179
1
  8

270
1
271
1
272
1
145
1.0
146
1.0
273
1
  9

274
1
275
1
276
1
 42
1.0
 72
1
  3

 73
1
 74
1
 75
1
 94
63
  0
MLINESTYLE
  5
22
102
{ACAD_REACTORS
330
10
102
}
330
10
100
AcDbMlineStyle
  2
Standard
 70
0
  3

 62
256
 51
90.0
 52
90.0
 71
2
 49
0.5
 62
256
  6
BYLAYER
 49
-0.5
 62
256
  6
BYLAYER
  0
MLEADERSTYLE
  5
2C
102
{ACAD_REACTORS
330
F
102
}
330
F
100
AcDbMLeaderStyle
179
2
170
2
171
1
172
0
 90
2
 40
0.0
 41
0.0
173
1
 91
-1056964608
 92
-2
290
1
 42
2.0
291
1
 43
8.0
  3
Standard
 44
4.0
300

342
29
174
1
175
1
176
0
178
1
 93
-1056964608
 45
4.0
292
0
297
0
 46
4.0
 94
-1056964608
 47
1.0
 49
1.0
140
1.0
294
1
141
0.0
177
0
142
1.0
295
0
296
0
143
3.75
271
0
272
9
273
9
  0
DICTIONARY
  5
2D
330
A
100
AcDbDictionary
280
1
281
1
  3
CREATED_BY_EZDXF
350
2E
  3
WRITTEN_BY_EZDXF
350
4E
  0
DICTIONARYVAR
  5
2E
330
2D
100
DictionaryVariables
280
0
  1
1.4.4 @ 2026-09-20T13:00:38.321684+00:00
  0
DICTIONARYVAR
  5
4E
330
2D
100
DictionaryVariables
280
0
  1
1.4.4 @ 2026-09-20T13:01:19.316060+00:00
  0
ENDSEC
  0
EOF
