  0
SECTION
  2
HEADER
  9
$ACADVER
  1
AC1027
  9
$ACADMAINTVER
 70
105
  9
$DWGCODEPAGE
  3
ANSI_1252
  9
$LASTSAVEDBY
  1
ezdxf
  9
$REQUIREDVERSIONS
160
0
  9
$INSBASE
 10
0.0
 20
0.0
 30
0.0
  9
$EXTMIN
 10
1e+20
 20
1e+20
 30
1e+20
  9
$EXTMAX
 10
-1e+20
 20
-1e+20
 30
-1e+20
  9
$LIMMIN
 10
0.0
 20
0.0
  9
$LIMMAX
 10
420.0
 20
297.0
  9
$ORTHOMODE
 70
0
  9
$REGENMODE
 70
1
  9
$FILLMODE
 70
1
  9
$QTEXTMODE
 70
0
  9
$MIRRTEXT
 70
1
  9
$LTSCALE
 40
1.0
  9
$ATTMODE
 70
1
  9
$TEXTSIZE
 40
2.5
  9
$TRACEWID
 40
1.0
  9
$TEXTSTYLE
  7
Standard
  9
$CLAYER
  8
0
  9
$CELTYPE
  6
ByLayer
  9
$CECOLOR
 62
256
  9
$CELTSCALE
 40
1.0
  9
$DISPSILH
 70
0
  9
$DIMSCALE
 40
1.0
  9
$DIMASZ
 40
2.5
  9
$DIMEXO
 40
0.625
  9
$DIMDLI
 40
3.75
  9
$DIMRND
 40
0.0
  9
$DIMDLE
 40
0.0
  9
$DIMEXE
 40
1.25
  9
$DIMTP
 40
0.0
  9
$DIMTM
 40
0.0
  9
$DIMTXT
 40
2.5
  9
$DIMCEN
 40
2.5
  9
$DIMTSZ
 40
0.0
  9
$DIMTOL
 70
0
  9
$DIMLIM
 70
0
  9
$DIMTIH
 70
0
  9
$DIMTOH
 70
0
  9
$DIMSE1
 70
0
  9
$DIMSE2
 70
0
  9
$DIMTAD
 70
1
  9
$DIMZIN
 70
8
  9
$DIMBLK
  1

  9
$DIMASO
 70
1
  9
$DIMSHO
 70
1
  9
$DIMPOST
  1

  9
$DIMAPOST
  1

  9
$DIMALT
 70
0
  9
$DIMALTD
 70
3
  9
$DIMALTF
 40
0.03937007874
  9
$DIMLFAC
 40
1.0
  9
$DIMTOFL
 70
1
  9
$DIMTVP
 40
0.0
  9
$DIMTIX
 70
0
  9
$DIMSOXD
 70
0
  9
$DIMSAH
 70
0
  9
$DIMBLK1
  1

  9
$DIMBLK2
  1

  9
$DIMSTYLE
  2
ISO-25
  9
$DIMCLRD
 70
0
  9
$DIMCLRE
 70
0
  9
$DIMCLRT
 70
0
  9
$DIMTFAC
 40
1.0
  9
$DIMGAP
 40
0.625
  9
$DIMJUST
 70
0
  9
$DIMSD1
 70
0
  9
$DIMSD2
 70
0
  9
$DIMTOLJ
 70
0
  9
$DIMTZIN
 70
8
  9
$DIMALTZ
 70
0
  9
$DIMALTTZ
 70
0
  9
$DIMUPT
 70
0
  9
$DIMDEC
 70
2
  9
$DIMTDEC
 70
2
  9
$DIMALTU
 70
2
  9
$DIMALTTD
 70
3
  9
$DIMTXSTY
  7
Standard
  9
$DIMAUNIT
 70
0
  9
$DIMADEC
 70
0
  9
$DIMALTRND
 40
0.0
  9
$DIMAZIN
 70
0
  9
$DIMDSEP
 70
44
  9
$DIMATFIT
 70
3
  9
$DIMFRAC
 70
0
  9
$DIMLDRBLK
  1

  9
$DIMLUNIT
 70
2
  9
$DIMLWD
 70
-2
  9
$DIMLWE
 70
-2
  9
$DIMTMOVE
 70
0
  9
$DIMFXL
 40
1.0
  9
$DIMFXLON
 70
0
  9
$DIMJOGANG
 40
0.785398163397
  9
$DIMTFILL
 70
0
  9
$DIMTFILLCLR
 70
0
  9
$DIMARCSYM
 70
0
  9
$DIMLTYPE
  6

  9
$DIMLTEX1
  6

  9
$DIMLTEX2
  6

  9
$DIMTXTDIRECTION
 70
0
  9
$LUNITS
 70
2
  9
$LUPREC
 70
4
  9
$SKETCHINC
 40
1.0
  9
$FILLETRAD
 40
10.0
  9
$AUNITS
 70
0
  9
$AUPREC
 70
2
  9
$MENU
  1
.
  9
$ELEVATION
 40
0.0
  9
$PELEVATION
 40
0.0
  9
$THICKNESS
 40
0.0
  9
$LIMCHECK
 70
0
  9
$CHAMFERA
 40
0.0
  9
$CHAMFERB
 40
0.0
  9
$CHAMFERC
 40
0.0
  9
$CHAMFERD
 40
0.0
  9
$SKPOLY
 70
0
  9
$TDCREATE
 40
2461303.705439815
  9
$TDUCREATE
 40
2458532.153996898
  9
$TDUPDATE
 40
2461303.705439815
  9
$TDUUPDATE
 40
2458532.1544311
  9
$TDINDWG
 40
0.0
  9
$TDUSRTIMER
 40
0.0
  9
$USRTIMER
 70
1
  9
$ANGBASE
 50
0.0
  9
$ANGDIR
 70
0
  9
$PDMODE
 70
0
  9
$PDSIZE
 40
0.0
  9
$PLINEWID
 40
0.0
  9
$SPLFRAME
 70
0
  9
$SPLINETYPE
 70
6
  9
$SPLINESEGS
 70
8
  9
$HANDSEED
  5
64
  9
$SURFTAB1
 70
6
  9
$SURFTAB2
 70
6
  9
$SURFTYPE
 70
6
  9
$SURFU
 70
6
  9
$SURFV
 70
6
  9
$UCSBASE
  2

  9
$UCSNAME
  2

  9
$UCSORG
 10
0.0
 20
0.0
 30
0.0
  9
$UCSXDIR
 10
1.0
 20
0.0
 30
0.0
  9
$UCSYDIR
 10
0.0
 20
1.0
 30
0.0
  9
$UCSORTHOREF
  2

  9
$UCSORTHOVIEW
 70
0
  9
$UCSORGTOP
 10
0.0
 20
0.0
 30
0.0
  9
$UCSORGBOTTOM
 10
0.0
 20
0.0
 30
0.0
  9
$UCSORGLEFT
 10
0.0
 20
0.0
 30
0.0
  9
$UCSORGRIGHT
 10
0.0
 20
0.0
 30
0.0
  9
$UCSORGFRONT
 10
0.0
 20
0.0
 30
0.0
  9
$UCSORGBACK
 10
0.0
 20
0.0
 30
0.0
  9
$PUCSBASE
  2

  9
$PUCSNAME
  2

  9
$PUCSORG
 10
0.0
 20
0.0
 30
0.0
  9
$PUCSXDIR
 10
1.0
 20
0.0
 30
0.0
  9
$PUCSYDIR
 10
0.0
 20
1.0
 30
0.0
  9
$PUCSORTHOREF
  2

  9
$PUCSORTHOVIEW
 70
0
  9
$PUCSORGTOP
 10
0.0
 20
0.0
 30
0.0
  9
$PUCSORGBOTTOM
 10
0.0
 20
0.0
 30
0.0
  9
$PUCSORGLEFT
 10
0.0
 20
0.0
 30
0.0
  9
$PUCSORGRIGHT
 10
0.0
 20
0.0
 30
0.0
  9
$PUCSORGFRONT
 10
0.0
 20
0.0
 30
0.0
  9
$PUCSORGBACK
 10
0.0
 20
0.0
 30
0.0
  9
$USERI1
 70
0
  9
$USERI2
 70
0
  9
$USERI3
 70
0
  9
$USERI4
 70
0
  9
$USERI5
 70
0
  9
$USERR1
 40
0.0
  9
$USERR2
 40
0.0
  9
$USERR3
 40
0.0
  9
$USERR4
 40
0.0
  9
$USERR5
 40
0.0
  9
$WORLDVIEW
 70
1
  9
$SHADEDGE
 70
3
  9
$SHADEDIF
 70
70
  9
$TILEMODE
 70
1
  9
$MAXACTVP
 70
64
  9
$PINSBASE
 10
0.0
 20
0.0
 30
0.0
  9
$PLIMCHECK
 70
0
  9
$PEXTMIN
 10
1e+20
 20
1e+20
 30
1e+20
  9
$PEXTMAX
 10
-1e+20
 20
-1e+20
 30
-1e+20
  9
$PLIMMIN
 10
0.0
 20
0.0
  9
$PLIMMAX
 10
420.0
 20
297.0
  9
$UNITMODE
 70
0
  9
$VISRETAIN
 70
1
  9
$PLINEGEN
 70
0
  9
$PSLTSCALE
 70
1
  9
$TREEDEPTH
 70
3020
  9
$CMLSTYLE
  2
Standard
  9
$CMLJUST
 70
0
  9
$CMLSCALE
 40
20.0
  9
$PROXYGRAPHICS
 70
1
  9
$MEASUREMENT
 70
1
  9
$CELWEIGHT
370
-1
  9
$ENDCAPS
280
0
  9
$JOINSTYLE
280
0
  9
$LWDISPLAY
290
0
  9
$INSUNITS
 70
4
  9
$HYPERLINKBASE
  1

  9
$STYLESHEET
  1

  9
$XEDIT
290
1
  9
$CEPSNTYPE
380
0
  9
$PSTYLEMODE
290
1
  9
$FINGERPRINTGUID
  2
{0B9CFB46-2B18-44F2-B501-8DAB7FA597DB}
  9
$VERSIONGUID
  2
{271687D8-9C95-43D9-B872-AC7DA95FF300}
  9
$EXTNAMES
290
1
  9
$PSVPSCALE
 40
0.0
  9
$OLESTARTUP
290
0
  9
$SORTENTS
280
127
  9
$INDEXCTL
280
0
  9
$HIDETEXT
280
1
  9
$XCLIPFRAME
280
1
  9
$HALOGAP
280
0
  9
$OBSCOLOR
 70
257
  9
$OBSLTYPE
280
0
  9
$INTERSECTIONDISPLAY
280
0
  9
$INTERSECTIONCOLOR
 70
257
  9
$DIMASSOC
280
2
  9
$PROJECTNAME
  1

  9
$CAMERADISPLAY
290
0
  9
$LENSLENGTH
 40
50.0
  9
$CAMERAHEIGHT
 40
0.0
  9
$STEPSPERSEC
 40
24.0
  9
$STEPSIZE
 40
100.0
  9
$3DDWFPREC
 40
2.0
  9
$PSOLWIDTH
 40
0.005
  9
$PSOLHEIGHT
 40
0.08
  9
$LOFTANG1
 40
1.570796326795
  9
$LOFTANG2
 40
1.570796326795
  9
$LOFTMAG1
 40
0.0
  9
$LOFTMAG2
 40
0.0
  9
$LOFTPARAM
 70
7
  9
$LOFTNORMALS
280
1
  9
$LATITUDE
 40
37.795
  9
$LONGITUDE
 40
-122.394
  9
$NORTHDIRECTION
 40
0.0
  9
$TIMEZONE
 70
-8000
  9
$LIGHTGLYPHDISPLAY
280
1
  9
$TILEMODELIGHTSYNCH
280
1
  9
$CMATERIAL
347
20
  9
$SOLIDHIST
280
0
  9
$SHOWHIST
280
1
  9
$DWFFRAME
280
2
  9
$DGNFRAME
280
2
  9
$REALWORLDSCALE
290
1
  9
$INTERFERECOLOR
 62
256
  9
$CSHADOW
280
0
  9
$SHADOWPLANELOCATION
 40
0.0
  0
ENDSEC
  0
SECTION
  2
CLASSES
  0
CLASS
  1
ACDBDICTIONARYWDFLT
  2
AcDbDictionaryWithDefault
  3
ObjectDBX Classes
 90
0
 91
0
280
0
281
0
  0
CLASS
  1
SUN
  2
AcDbSun
  3
SCENEOE
 90
1153
 91
0
280
0
281
0
  0
CLASS
  1
VISUALSTYLE
  2
AcDbVisualStyle
  3
ObjectDBX Classes
 90
4095
 91
0
280
0
281
0
  0
CLASS
  1
MATERIAL
  2
AcDbMaterial
  3
ObjectDBX Classes
 90
1153
 91
0
280
0
281
0
  0
CLASS
  1
SCALE
  2
AcDbScale
  3
ObjectDBX Classes
 90
1153
 91
0
280
0
281
0
  0
CLASS
  1
TABLESTYLE
  2
AcDbTableStyle
  3
ObjectDBX Classes
 90
4095
 91
0
280
0
281
0
  0
CLASS
  1
MLEADERSTYLE
  2
AcDbMLeaderStyle
  3
ACDB_MLEADERSTYLE_CLASS
 90
4095
 91
0
280
0
281
0
  0
CLASS
  1
DICTIONARYVAR
  2
AcDbDictionaryVar
  3
ObjectDBX Classes
 90
0
 91
0
280
0
281
0
  0
CLASS
  1
CELLSTYLEMAP
  2
AcDbCellStyleMap
  3
ObjectDBX Classes
 90
1152
 91
0
280
0
281
0
  0
CLASS
  1
MENTALRAYRENDERSETTINGS
  2
AcDbMentalRayRenderSettings
  3
SCENEOE
 90
1024
 91
0
280
0
281
0
  0
CLASS
  1
ACDBDETAILVIEWSTYLE
  2
AcDbDetailViewStyle
  3
ObjectDBX Classes
 90
1025
 91
0
280
0
281
0
  0
CLASS
  1
ACDBSECTIONVIEWSTYLE
  2
AcDbSectionViewStyle
  3
ObjectDBX Classes
 90
1025
 91
0
280
0
281
0
  0
CLASS
  1
RASTERVARIABLES
  2
AcDbRasterVariables
  3
ISM
 90
0
 91
0
280
0
281
0
  0
CLASS
  1
ACDBPLACEHOLDER
  2
AcDbPlaceHolder
  3
ObjectDBX Classes
 90
0
 91
0
280
0
281
0
  0
CLASS
  1
LAYOUT
  2
AcDbLayout
  3
ObjectDBX Classes
 90
0
 91
0
280
0
281
0
  0
ENDSEC
  0
SECTION
  2
TABLES
  0
TABLE
  2
VPORT
  5
8
330
0
100
AcDbSymbolTable
 70
1
  0
VPORT
  5
45
330
8
100
AcDbSymbolTableRecord
100
AcDbViewportTableRecord
  2
*Active
 70
0
 10
0.0
 20
0.0
 11
1.0
 21
1.0
 12
58.51279384886499
 22
7.316936914079421
 13
0.0
 23
0.0
 14
0.5
 24
0.5
 15
0.5
 25
0.5
 16
0.0
 26
0.0
 36
1.0
 17
0.0
 27
0.0
 37
0.0
 40
58.51279374886501
 41
1.34
 42
50.0
 43
0.0
 44
0.0
 50
0.0
 51
0.0
 71
0
 72
1000
 73
1
 74
3
 75
0
 76
0
 77
0
 78
0
281
0
 65
1
110
0.0
120
0.0
130
0.0
111
1.0
121
0.0
131
0.0
112
0.0
122
1.0
132
0.0
 79
0
146
0.0
  0
ENDTAB
  0
TABLE
  2
LTYPE
  5
2
330
0
100
AcDbSymbolTable
 70
3
  0
LTYPE
  5
24
330
2
100
AcDbSymbolTableRecord
100
AcDbLinetypeTableRecord
  2
ByBlock
 70
0
  3

 72
65
 73
0
 40
0.0
  0
LTYPE
  5
25
330
2
100
AcDbSymbolTableRecord
100
AcDbLinetypeTableRecord
  2
ByLayer
 70
0
  3

 72
65
 73
0
 40
0.0
  0
LTYPE
  5
26
330
2
100
AcDbSymbolTableRecord
100
AcDbLinetypeTableRecord
  2
Continuous
 70
0
  3

 72
65
 73
0
 40
0.0
  0
ENDTAB
  0
TABLE
  2
LAYER
  5
1
330
0
100
AcDbSymbolTable
 70
5
  0
LAYER
  5
27
330
1
100
AcDbSymbolTableRecord
100
AcDbLayerTableRecord
  2
0
 70
0
 62
7
  6
Continuous
370
-3
390
13
347
21
  0
LAYER
  5
28
330
1
100
AcDbSymbolTableRecord
100
AcDbLayerTableRecord
  2
Defpoints
 70
0
 62
7
  6
Continuous
290
0
370
-3
390
13
347
21
  0
LAYER
  5
49
330
1
100
AcDbSymbolTableRecord
100
AcDbLayerTableRecord
  2
LABELS_NONCUT
 70
0
 62
3
  6
Continuous
370
-3
390
13
347
21
  0
LAYER
  5
4B
330
1
100
AcDbSymbolTableRecord
100
AcDbLayerTableRecord
  2
CUT
 70
0
 62
1
  6
Continuous
370
-3
390
13
347
21
  0
LAYER
  5
4C
330
1
100
AcDbSymbolTableRecord
100
AcDbLayerTableRecord
  2
SANDING_GUIDE_NONCUT
 70
0
 62
5
  6
Continuous
370
-3
390
13
347
21
  0
ENDTAB
  0
TABLE
  2
STYLE
  5
5
330
0
100
AcDbSymbolTable
 70
1
  0
STYLE
  5
29
330
5
100
AcDbSymbolTableRecord
100
AcDbTextStyleTableRecord
  2
Standard
 70
0
 40
0.0
 41
1.0
 50
0.0
 71
0
 42
2.5
  3
txt
  4

  0
ENDTAB
  0
TABLE
  2
VIEW
  5
7
330
0
100
AcDbSymbolTable
 70
0
  0
ENDTAB
  0
TABLE
  2
UCS
  5
6
330
0
100
AcDbSymbolTable
 70
0
  0
ENDTAB
  0
TABLE
  2
APPID
  5
3
330
0
100
AcDbSymbolTable
 70
3
  0
APPID
  5
2A
330
3
100
AcDbSymbolTableRecord
100
AcDbRegAppTableRecord
  2
ACAD
 70
0
  0
APPID
  5
46
330
3
100
AcDbSymbolTableRecord
100
AcDbRegAppTableRecord
  2
HATCHBACKGROUNDCOLOR
 70
0
  0
APPID
  5
47
330
3
100
AcDbSymbolTableRecord
100
AcDbRegAppTableRecord
  2
EZDXF
 70
0
  0
ENDTAB
  0
TABLE
  2
DIMSTYLE
  5
4
330
0
100
AcDbSymbolTable
 70
1
100
AcDbDimStyleTable
  0
DIMSTYLE
105
2B
330
4
100
AcDbSymbolTableRecord
100
AcDbDimStyleTableRecord
  2
Standard
 70
0
 40
1.0
 41
2.5
 42
0.625
 43
3.75
 44
1.25
 45
0.0
 46
0.0
 47
0.0
 48
0.0
 49
2.5
140
2.5
141
2.5
142
0.0
143
0.03937007874
144
1.0
145
0.0
146
1.0
147
0.625
148
0.0
 69
0
 70
0
 71
0
 72
0
 73
0
 74
0
 75
0
 76
0
 77
1
 78
8
 79
3
170
0
171
3
172
1
173
0
174
0
175
0
176
0
177
0
178
0
179
2
271
2
272
2
273
2
274
3
275
0
276
0
277
2
278
44
279
0
280
0
281
0
282
0
283
0
284
8
285
0
286
0
288
0
289
3
290
0
371
-2
372
-2
  0
ENDTAB
  0
TABLE
  2
BLOCK_RECORD
  5
9
330
0
100
AcDbSymbolTable
 70
2
  0
BLOCK_RECORD
  5
17
330
9
100
AcDbSymbolTableRecord
100
AcDbBlockTableRecord
  2
*Model_Space
340
1A
 70
0
280
1
281
0
  0
BLOCK_RECORD
  5
1B
330
9
100
AcDbSymbolTableRecord
100
AcDbBlockTableRecord
  2
*Paper_Space
340
1E
 70
0
280
1
281
0
  0
ENDTAB
  0
ENDSEC
  0
SECTION
  2
BLOCKS
  0
BLOCK
  5
18
330
17
100
AcDbEntity
  8
0
100
AcDbBlockBegin
  2
*Model_Space
 70
0
 10
0.0
 20
0.0
 30
0.0
  3
*Model_Space
  1

  0
ENDBLK
  5
19
330
17
100
AcDbEntity
  8
0
100
AcDbBlockEnd
  0
BLOCK
  5
1C
330
1B
100
AcDbEntity
  8
0
100
AcDbBlockBegin
  2
*Paper_Space
 70
0
 10
0.0
 20
0.0
 30
0.0
  3
*Paper_Space
  1

  0
ENDBLK
  5
1D
330
1B
100
AcDbEntity
  8
0
100
AcDbBlockEnd
  0
ENDSEC
  0
SECTION
  2
ENTITIES
  0
CIRCLE
  5
2F
330
17
100
AcDbEntity
  8
CUT
100
AcDbCircle
 10
65.174205937539
 20
8.449281507556
 30
9.296886105403e-07
 40
1.0
  0
CIRCLE
  5
30
330
17
100
AcDbEntity
  8
CUT
100
AcDbCircle
 10
37.174215594435
 20
8.472536304196
 30
9.2968394938e-07
 40
1.0
  0
ELLIPSE
  5
31
330
17
100
AcDbEntity
  8
CUT
100
AcDbEllipse
 10
91.142787116309
 20
6.89142714728
 30
9.296921348323e-07
 11
-0.2995672356445795
 21
1.4702024964162976
 31
-7.686254064466636e-18
 40
0.9997254666186076
 41
-2.9531932455029164e-12
 42
6.283185307176633
  0
LINE
  5
32
330
17
100
AcDbEntity
  8
CUT
100
AcDbLine
 10
62.579318338689
 20
14.605959330109
 30
9.296858595713e-07
 11
62.569099084279
 21
2.301443002596
 31
9.296858595713e-07
  0
LINE
  5
33
330
17
100
AcDbEntity
  8
CUT
100
AcDbLine
 10
62.569099084279
 20
2.301443002596
 30
9.296858595713e-07
 11
39.769106947748
 21
2.320379051288
 31
9.296902365146e-07
  0
LINE
  5
34
330
17
100
AcDbEntity
  8
CUT
100
AcDbLine
 10
39.769106947748
 20
2.320379051288
 30
9.296902365146e-07
 11
39.779326202163
 21
14.624895378802
 31
9.296902365146e-07
  0
LINE
  5
35
330
17
100
AcDbEntity
  8
CUT
100
AcDbLine
 10
39.779326202163
 20
14.624895378802
 30
9.296902365146e-07
 11
28.60264032806
 21
14.634177937616
 31
9.296923397211e-07
  0
LINE
  5
36
330
17
100
AcDbEntity
  8
CUT
100
AcDbLine
 10
28.60264032806
 20
14.634177937616
 30
9.296923397211e-07
 11
23.501395778088
 21
9.663301400162
 31
9.294511530949e-07
  0
SPLINE
  5
37
330
17
100
AcDbEntity
  8
CUT
100
AcDbSpline
 70
0
 71
3
 72
31
 73
27
 74
0
 40
0.0
 40
0.0
 40
0.0
 40
0.0
 40
0.01136339340874619
 40
0.01136339340874619
 40
0.02977946763801834
 40
0.02977946763801834
 40
0.16372635452804735
 40
0.16372635452804735
 40
0.32812205488560925
 40
0.32812205488560925
 40
0.38800659769838686
 40
0.4029777334015153
 40
0.41794886910464385
 40
0.43292000480777243
 40
0.447891140510901
 40
0.477833411917158
 40
0.5077756833236786
 40
0.5676602261361927
 40
0.6874293117614845
 40
0.8071983973870397
 40
0.8071983973870397
 40
0.8324325834750834
 40
0.8450496765192371
 40
0.9081351417397415
 40
0.9081351417397415
 40
1.0
 40
1.0
 40
1.0
 40
1.0
 10
9.999997985233e-08
 20
7.800432937242
 30
9.296886105403e-07
 10
0.05388666527298
 20
7.815100092686
 30
9.29684631501e-07
 10
0.11289504873
 20
7.830753849077
 30
9.296902021561e-07
 10
0.276610163673
 20
7.872501698614
 30
9.296824714511e-07
 10
0.388641462767
 20
7.899612709895
 30
9.29691964302e-07
 10
1.408993952217
 20
8.133479717021
 30
9.296915663981e-07
 10
2.935299363781
 20
8.437351609516
 30
9.296871326114e-07
 10
4.955844327435
 20
8.726177836866
 30
9.296841199102e-07
 10
6.112419464197
 20
8.836542452814
 30
9.296836083195e-07
 10
7.744635960215
 20
8.969731482117
 30
9.296826988248e-07
 10
8.416421536981
 20
9.024807661348
 30
9.296845178142e-07
 10
9.242595858992
 20
9.087795608706
 30
9.296830398853e-07
 10
9.643480561775
 20
9.117380573637
 30
9.296846883444e-07
 10
10.022367158313
 20
9.144341499187
 30
9.296812777393e-07
 10
10.464978282743
 20
9.174435854074
 30
9.296776397605e-07
 10
10.886896056221
 20
9.201098374423
 30
9.296878147325e-07
 10
11.65195161456
 20
9.248412374897
 30
9.29678662942e-07
 10
13.047865417761
 20
9.328815216916
 30
9.296817893301e-07
 10
15.321951419768
 20
9.441030834479
 30
9.296799134972e-07
 10
17.34528564386
 20
9.515316776898
 30
9.296915095547e-07
 10
18.594862256857
 20
9.554011753832
 30
9.296878715759e-07
 10
18.922714395004
 20
9.563766632872
 30
9.296837788497e-07
 10
19.795602104656
 20
9.588308806306
 30
9.296887810706e-07
 10
20.457891647793
 20
9.604624548826
 30
9.296908842771e-07
 10
21.770178185485427
 20
9.633902506038545
 30
9.296875305156902e-07
 10
22.67039035851334
 20
9.650796497571518
 30
9.296874736719168e-07
 10
23.50139577808797
 20
9.66330140016359
 30
9.296911684925823e-07
  0
SPLINE
  5
38
330
17
100
AcDbEntity
  8
CUT
100
AcDbSpline
 70
0
 71
3
 72
266
 73
262
 74
0
 40
0.0
 40
0.0
 40
0.0
 40
0.0
 40
0.007042020375344027
 40
0.014084040747652161
 40
0.02112606112299602
 40
0.028168081498340047
 40
0.035210101873683904
 40
0.04225212224599204
 40
0.049294142621336065
 40
0.05633616299667993
 40
0.06337818337202396
 40
0.07042020374736781
 40
0.07746222411967595
 40
0.08450424449501998
 40
0.09154626487036382
 40
0.09858828524570785
 40
0.10563030562105172
 40
0.11267232599335986
 40
0.11267232599335986
 40
0.12001754109781516
 40
0.12736275619923476
 40
0.13470797130065434
 40
0.14205318640207396
 40
0.14939840150652925
 40
0.15674361660794886
 40
0.16408883170936844
 40
0.17143404681382376
 40
0.17877926191524335
 40
0.18612447701666293
 40
0.19346969211808238
 40
0.20081490722253784
 40
0.20816012232395728
 40
0.21550533742537686
 40
0.22285055252679645
 40
0.23019576763125177
 40
0.23019576763125177
 40
0.2385027511295026
 40
0.2468097346277534
 40
0.25511671812600417
 40
0.263423701624255
 40
0.26757719337186253
 40
0.2717306851225058
 40
0.2800376686207565
 40
0.28834465211900734
 40
0.29665163561725816
 40
0.29665163561725816
 40
0.3023576586480364
 40
0.30806368167577874
 40
0.31376970470655696
 40
0.3194757277373353
 40
0.32518175076811345
 40
0.33088777379889167
 40
0.3365937968266341
 40
0.34229981985741237
 40
0.3480058428881906
 40
0.3537118659189688
 40
0.35941788894974697
 40
0.36512391197748945
 40
0.37082993500826766
 40
0.3765359580390459
 40
0.3822419810698241
 40
0.3879480041006023
 40
0.3936540271283448
 40
0.39936005015912296
 40
0.4050660731899012
 40
0.4107720962206794
 40
0.4164781192514576
 40
0.4221841422792001
 40
0.4278901653099783
 40
0.4335961883407565
 40
0.4393022113715347
 40
0.445008234402313
 40
0.4507142574300554
 40
0.4564202804608336
 40
0.4621263034916118
 40
0.4678323265223901
 40
0.4735383495531683
 40
0.47924437258394653
 40
0.47924437258394653
 40
0.48212660455728845
 40
0.4850088365306305
 40
0.49077330048035017
 40
0.4965377644300699
 40
0.5023022283797896
 40
0.5080666923295094
 40
0.513831156279229
 40
0.5167133882525711
 40
0.5195956202289488
 40
0.5253600841786685
 40
0.5311245481253525
 40
0.5368890120750722
 40
0.5426534760247919
 40
0.5484179399745117
 40
0.5541824039242315
 40
0.5599468678739511
 40
0.5657113318236708
 40
0.5714757957733906
 40
0.5772402597200745
 40
0.5830047236697943
 40
0.5887691876195139
 40
0.5945336515692338
 40
0.6002981155189534
 40
0.6060625794686731
 40
0.6118270434183929
 40
0.6175915073681126
 40
0.6233559713147965
 40
0.6291204352645162
 40
0.632002667240894
 40
0.6348848992142361
 40
0.6406493631639557
 40
0.6464138271136755
 40
0.6521782910633952
 40
0.6579427550131149
 40
0.6637072189628347
 40
0.6637072189628347
 40
0.6688107651368614
 40
0.6739143113078525
 40
0.6764660843963837
 40
0.6790178574818792
 40
0.684121403655906
 40
0.6847593469287978
 40
0.6853972902016896
 40
0.6860352334715455
 40
0.6866731767444373
 40
0.6873111200142933
 40
0.6879490632871851
 40
0.6892249498299328
 40
0.691776722918464
 40
0.6943284960039595
 40
0.6968802690917927
 40
0.6981561556352386
 40
0.6994320421787149
 40
0.6997510138145842
 40
0.7000699854504532
 40
0.7007079287221913
 40
0.7019838152656677
 40
0.7023027869015368
 40
0.7024622727194864
 40
0.7026217585374058
 40
0.7029407301732749
 40
0.7031002159912246
 40
0.703259701809144
 40
0.7035786734450131
 40
0.7038976450808822
 40
0.7045355883526203
 40
0.7096391345265257
 40
0.7147426807004007
 40
0.7172944537873533
 40
0.7179323970590915
 40
0.7185703403308297
 40
0.7198462268743061
 40
0.7204841701460443
 40
0.7211221134177824
 40
0.7217600566895206
 40
0.7223979999612284
 40
0.7230359432329666
 40
0.7236738865047048
 40
0.7249497730481811
 40
0.7255877163199193
 40
0.7262256595916574
 40
0.7268636028633956
 40
0.7275015461351337
 40
0.7278205177710029
 40
0.7279800035889525
 40
0.7281394894068719
 40
0.7287774326786101
 40
0.7300533192220864
 40
0.7306912624938245
 40
0.7307710054027843
 40
0.7308507483117439
 40
0.7310102341296937
 40
0.731169719947613
 40
0.7313292057655627
 40
0.731967149037301
 40
0.7326050923090391
 40
0.7327645781269585
 40
0.7329240639449082
 40
0.7332430355807773
 40
0.7333227784897369
 40
0.7334025213986967
 40
0.7335620072166463
 40
0.7337214930345658
 40
0.7338809788525155
 40
0.7340404646704348
 40
0.7341999504883846
 40
0.7345189221242233
 40
0.7345986650332134
 40
0.7346385364876932
 40
0.7346584722149179
 40
0.734678407942173
 40
0.7347581508511327
 40
0.7348378937600923
 40
0.7349973795780421
 40
0.7350073474416696
 40
0.7350173153052971
 40
0.7350372510325219
 40
0.7350771224870017
 40
0.7351169939414816
 40
0.7351219778733105
 40
0.7351269618051092
 40
0.7351319457369381
 40
0.7351369296687367
 40
0.7351468975323642
 40
0.7351518814641629
 40
0.7351568653959615
 40
0.7351568653959615
 40
0.7351568653959615
 40
0.7402604115698668
 40
0.7428121846568194
 40
0.7453639577437722
 40
0.7453639577437722
 40
0.7518364551957373
 40
0.7583089526477329
 40
0.7647814500997284
 40
0.771253947551724
 40
0.7744901962777067
 40
0.7777264450037196
 40
0.7841989424557151
 40
0.7906714399076803
 40
0.7971439373596758
 40
0.8036164348116713
 40
0.8100889322636668
 40
0.8165614297156626
 40
0.8230339271676278
 40
0.8295064246196233
 40
0.8359789220716188
 40
0.8424514195236144
 40
0.8489239169756099
 40
0.8489239169756099
 40
0.8531249763901758
 40
0.8573260358047721
 40
0.8615270952193682
 40
0.8657281546339645
 40
0.8699292140485607
 40
0.8741302734631266
 40
0.8783313328777228
 40
0.8825323922923191
 40
0.8825323922923191
 40
0.8875084133810982
 40
0.892484434469847
 40
0.8974604555586263
 40
0.9024364766474056
 40
0.9074124977361544
 40
0.9123885188249337
 40
0.9173645399137129
 40
0.9223405610024922
 40
0.9273165820912409
 40
0.9322926031800202
 40
0.9372686242687994
 40
0.9422446453575483
 40
0.9472206664463275
 40
0.9521966875351068
 40
0.9571727086238859
 40
0.9621487297126349
 40
0.9621487297126349
 40
0.9700512586381099
 40
0.977953787563573
 40
0.9858563164890359
 40
0.9937588454145021
 40
0.9937588454145021
 40
1.0
 40
1.0
 40
1.0
 40
1.0
 10
29.467362281427
 20
0.223976173023
 30
9.296836651629e-07
 10
29.396981566307
 20
0.227867594715
 30
9.296882126364e-07
 10
29.255922420491
 20
0.235794705225
 30
9.244218404092e-07
 10
29.043613328749
 20
0.248113613948
 30
9.201501711686e-07
 10
28.830589816024
 20
0.260870622156
 30
9.143724923888e-07
 10
28.61690663048
 20
0.274070960393
 30
9.09299160412e-07
 10
28.402594455425
 20
0.287721651655
 30
9.037009363055e-07
 10
28.187715722385
 20
0.301826571639
 30
9.01138264453e-07
 10
27.972260918784
 20
0.316395595204
 30
8.946520893005e-07
 10
27.756303208687
 20
0.331430926722
 30
8.895926839614e-07
 10
27.539869279079
 20
0.346938498693
 30
8.84530663825e-07
 10
27.322985010107
 20
0.362923920316
 30
8.779864515418e-07
 10
27.105722373008
 20
0.379388337597
 30
8.753804081607e-07
 10
26.888068714645
 20
0.396339943604
 30
8.696930535734e-07
 10
26.670082014113
 20
0.413780280808
 30
8.643848445899e-07
 10
26.45179063863
 20
0.431713068135
 30
8.586159196966e-07
 10
26.233237332207
 20
0.450140310889
 30
8.536866857867e-07
 10
26.087370216508
 20
0.46275746758
 30
8.491004450661e-07
 10
25.938305670115
 20
0.475815256093
 30
8.460382332487e-07
 10
25.78601421096
 20
0.489330388148
 30
8.409816132371e-07
 10
25.557412226202
 20
0.510146428969
 30
8.355410727745e-07
 10
25.328661442107
 20
0.531508795991
 30
8.290854793813e-07
 10
25.099809971985
 20
0.553417018909
 30
8.230745720539e-07
 10
24.870888085927
 20
0.575871677824
 30
8.165785061465e-07
 10
24.641962407189
 20
0.598869386923
 30
8.135268672049e-07
 10
24.413011546477
 20
0.622414237449
 30
8.058502203312e-07
 10
24.184127655935
 20
0.646498898664
 30
7.997977604646e-07
 10
23.95531096223
 20
0.671125334894
 30
7.937395594126e-07
 10
23.726649646118
 20
0.696282968196
 30
7.858346862122e-07
 10
23.498089367674
 20
0.721982433751
 30
7.826841965652e-07
 10
23.269925319864
 20
0.748181897603
 30
7.757139428577e-07
 10
23.04151799938
 20
0.774968757283
 30
7.691925816289e-07
 10
22.814494428881
 20
0.802122956689
 30
7.620581641277e-07
 10
22.585294450947
 20
0.830122970482
 30
7.559284540548e-07
 10
22.437197070418
 20
0.848523044561
 30
7.502322887376e-07
 10
22.264573832539
 20
0.870319501271
 30
7.460849360541e-07
 10
22.081502436591
 20
0.893682225079
 30
7.383737283817e-07
 10
21.808452869809
 20
0.929259384086
 30
7.308106546589e-07
 10
21.536743327138
 20
0.965389949032
 30
7.201831522252e-07
 10
21.311539021086
 20
0.995942046764
 30
7.143898415052e-07
 10
21.132105396059
 20
1.020647003052
 30
7.130036578928e-07
 10
20.953141889133
 20
1.045527260941
 30
7.097251000232e-07
 10
20.730307762505
 20
1.076954871843
 30
6.997298669376e-07
 10
20.46438282425
 20
1.115177543426
 30
6.918627377672e-07
 10
20.288058558183
 20
1.140995639982
 30
6.830085226284e-07
 10
20.139771728279
 20
1.162909372504
 30
6.792748763473e-07
 10
20.019233068314
 20
1.180833965857
 30
6.754833066225e-07
 10
19.839119279963
 20
1.20795153594
 30
6.71079192216e-07
 10
19.659693734703
 20
1.235297483255
 30
6.659879545623e-07
 10
19.480964124605
 20
1.262868521928
 30
6.61109424982e-07
 10
19.302931934253
 20
1.290661789915
 30
6.560431984326e-07
 10
19.125601388945
 20
1.318674215393
 30
6.50969070648e-07
 10
18.948975446728
 20
1.346902800829
 30
6.457967174356e-07
 10
18.773057609616
 20
1.375344495079
 30
6.405556973732e-07
 10
18.597851066072
 20
1.403996254003
 30
6.35245896774e-07
 10
18.423359183036
 20
1.432855006642
 30
6.298768653323e-07
 10
18.249585040907
 20
1.461917686612
 30
6.243984103094e-07
 10
18.076532203837
 20
1.491181182251
 30
6.189101213749e-07
 10
17.904202774909
 20
1.520642451785
 30
6.131117515906e-07
 10
17.732610451062
 20
1.550297974229
 30
6.103130090196e-07
 10
17.561736252278
 20
1.580145402683
 30
6.03323485393e-07
 10
17.391600423469
 20
1.610181008576
 30
5.977329351481e-07
 10
17.222201021678
 20
1.640401885128
 30
5.921309593759e-07
 10
17.053537631067
 20
1.670804811157
 30
5.847773536516e-07
 10
16.885627760013
 20
1.701386544486
 30
5.818118324896e-07
 10
16.718455892621
 20
1.732143981205
 30
5.753138907494e-07
 10
16.55203341
 20
1.763073940216
 30
5.690134230463e-07
 10
16.386362600381
 20
1.794173198966
 30
5.625499284179e-07
 10
16.221446578228
 20
1.825438557066
 30
5.560232239077e-07
 10
16.057288146781
 20
1.856866793184
 30
5.493828894032e-07
 10
15.893890274433
 20
1.888454673991
 30
5.426686016108e-07
 10
15.731255661819
 20
1.920198976185
 30
5.358301109482e-07
 10
15.569387439618
 20
1.952096419484
 30
5.289471118886e-07
 10
15.408287726258
 20
1.984143825782
 30
5.218491310188e-07
 10
15.247960804403
 20
2.01633775978
 30
5.14915882377e-07
 10
15.0884060272
 20
2.04867533694
 30
5.072672024653e-07
 10
14.929633770321
 20
2.081152399679
 30
5.009025585423e-07
 10
14.824296476641
 20
2.102896108664
 30
4.944254783368e-07
 10
14.745238319848
 20
2.119290079233
 30
4.922037533106e-07
 10
14.692153753429
 20
2.13032472382
 30
4.906564754492e-07
 10
14.586678828424
 20
2.152342642307
 30
4.88626767492e-07
 10
14.453374989864
 20
2.180388307091
 30
4.804097102351e-07
 10
14.290232513058
 20
2.215097053061
 30
4.733086029773e-07
 10
14.124480126394
 20
2.250750484973
 30
4.644820137401e-07
 10
13.956149770429
 20
2.287362430703
 30
4.570914597934e-07
 10
13.813947309054
 20
2.318635391092
 30
4.485973477131e-07
 10
13.699109950674
 20
2.344104197601
 30
4.460432023734e-07
 10
13.583591927326
 20
2.369866768778
 30
4.435584628482e-07
 10
13.437966872272
 20
2.402612498464
 30
4.343418709141e-07
 10
13.261452954902
 20
2.442750246028
 30
4.271843181414e-07
 10
13.083353227753
 20
2.483701247264
 30
4.157383273196e-07
 10
12.903857749155
 20
2.525438933986
 30
4.115011051908e-07
 10
12.723138312951
 20
2.567930728048
 30
4.017194328299e-07
 10
12.541375207335
 20
2.611147355866
 30
3.923704525732e-07
 10
12.358741950507
 20
2.655057214715
 30
3.827109367194e-07
 10
12.175409504758
 20
2.699628136329
 30
3.729876425496e-07
 10
11.991545436367
 20
2.744827087165
 30
3.630973424151e-07
 10
11.807314043385
 20
2.790620310472
 30
3.530665821927e-07
 10
11.622876151477
 20
2.836973311771
 30
3.429020125623e-07
 10
11.438388977234
 20
2.883850883132
 30
3.32540139425e-07
 10
11.25400617182
 20
2.931217198138
 30
3.22147229781e-07
 10
11.069877304357
 20
2.979035634158
 30
3.11149733534e-07
 10
10.886149741138
 20
3.027270804756
 30
3.058540301026e-07
 10
10.702962757138
 20
3.075881345536
 30
2.925361286543e-07
 10
10.520456315727
 20
3.1248321118
 30
2.820223699018e-07
 10
10.338763399885
 20
3.174083702564
 30
2.711488491514e-07
 10
10.188138864896
 20
3.215344279544
 30
2.597861339382e-07
 10
10.06817379616
 20
3.248465695665
 30
2.562293843766e-07
 10
9.948585233468
 20
3.281654748799
 30
2.52749430274e-07
 10
9.799843501834
 20
3.32325305594
 30
2.405107579762e-07
 10
9.622660194094
 20
3.373315384054
 30
2.296490038134e-07
 10
9.446896494095
 20
3.423480065992
 30
2.161576162507e-07
 10
9.272660040348
 20
3.473708601912
 30
2.05252717933e-07
 10
9.157590428274
 20
3.507208391607
 30
1.94464348624e-07
 10
9.049660606004
 20
3.538783594848
 30
1.88403419088e-07
 10
8.948748528543
 20
3.568433169616
 30
1.807498506423e-07
 10
8.823798313314
 20
3.605460043912
 30
1.716044835121e-07
 10
8.724583029333
 20
3.635047676853
 30
1.678048988651e-07
 10
8.625874437408
 20
3.664608027144
 30
1.660226303102e-07
 10
8.546306413024
 20
3.688583014168
 30
1.552315325171e-07
 10
8.485475616187
 20
3.706998484523
 30
1.544841552459e-07
 10
8.467251613598
 20
3.712521143739
 30
1.543467647025e-07
 10
8.449052993354
 20
3.718041722208
 30
1.541591245768e-07
 10
8.430879848913
 20
3.723560187597
 30
1.539813183626e-07
 10
8.412732288013
 20
3.729076482849
 30
1.538132892165e-07
 10
8.388569771332
 20
3.736428607503
 30
1.53668963776e-07
 10
8.346375896688
 20
3.749286634628
 30
1.527855033601e-07
 10
8.286359803732
 20
3.767630754563
 30
1.497010089224e-07
 10
8.214762858591
 20
3.789602572938
 30
1.472096755606e-07
 10
8.155457092647
 20
3.807874511213
 30
1.438779690943e-07
 10
8.108229472137
 20
3.822468591052
 30
1.431483269698e-07
 10
8.081746409054
 20
3.830668224776
 30
1.422988020749e-07
 10
8.064125329706
 20
3.836130781387
 30
1.422054083378e-07
 10
8.052387175249
 20
3.839771392351
 30
1.421297497473e-07
 10
8.031869650578
 20
3.846139586936
 30
1.419770114808e-07
 10
8.011401144484
 20
3.852501686693
 30
1.411335688317e-07
 10
7.995350512658
 20
3.857496753969
 30
1.410634808963e-07
 10
7.989517419576
 20
3.859312711604
 30
1.410351728737e-07
 10
7.983686660177
 20
3.861128382394
 30
1.410268737345e-07
 10
7.977859435218
 20
3.862943600504
 30
1.409684955433e-07
 10
7.972035703645
 20
3.864758393808
 30
1.409600827174e-07
 10
7.966214316195
 20
3.866572893702
 30
1.409416654496e-07
 10
7.958942021672
 20
3.868840441361
 30
1.40868564813e-07
 10
7.94731568281
 20
3.87246737261
 30
1.408615162291e-07
 10
7.892158630328
 20
3.889686186891
 30
1.393545403516e-07
 10
7.794186638631
 20
3.920401495285
 30
1.255182269233e-07
 10
7.680472824946
 20
3.956321954558
 30
1.131427893597e-07
 10
7.607329397371
 20
3.979555198319
 30
1.082177618628e-07
 10
7.573719917058
 20
3.990255520189
 30
1.076485887097e-07
 10
7.551353535595
 20
3.997382885318
 30
1.075718500942e-07
 10
7.529048226783
 20
4.0045002968
 30
1.064541379492e-07
 10
7.506802946739
 20
4.011608319183
 30
1.062654177986e-07
 10
7.490149499276
 20
4.016934350943
 30
1.059684677784e-07
 10
7.473526498149
 20
4.02225542781
 30
1.05730919131e-07
 10
7.456934055345
 20
4.027571476956
 30
1.054729068528e-07
 10
7.440372277652
 20
4.032882431579
 30
1.051844265021e-07
 10
7.418330712769
 20
4.039956939283
 30
1.049624529514e-07
 10
7.396351355807
 20
4.047020744713
 30
1.038493451233e-07
 10
7.374433161955
 20
4.054074354871
 30
1.036252115227e-07
 10
7.358025613932
 20
4.059359179121
 30
1.03304159893e-07
 10
7.34164905393
 20
4.064638664972
 30
1.030724661177e-07
 10
7.328027920426
 20
4.069033684558
 30
1.027922849062e-07
 10
7.318506682879
 20
4.07210785094
 30
1.027099187922e-07
 10
7.313069857474
 20
4.073863841222
 30
1.026957079375e-07
 10
7.304918540407
 20
4.076497130216
 30
1.026392055792e-07
 10
7.287278644379
 20
4.082198787762
 30
1.023798290589e-07
 10
7.265631299893
 20
4.089204751275
 30
1.012609232021e-07
 10
7.248767965747
 20
4.094669553682
 30
1.009978518596e-07
 10
7.242029960113
 20
4.096854164505
 30
1.009664742924e-07
 10
7.239335405007
 20
4.097727894444
 30
1.009639163385e-07
 10
7.235968459243
 20
4.098819825222
 30
1.009431684906e-07
 10
7.231930086396
 20
4.100129788318
 30
1.009242396321e-07
 10
7.223857301369
 20
4.102748988614
 30
1.008864387586e-07
 10
7.211763104187
 20
4.10667500329
 30
1.006093270917e-07
 10
7.199692646214
 20
4.110596658396
 30
1.003417651191e-07
 10
7.191655469932
 20
4.113209318097
 30
1.002932208394e-07
 10
7.186299978335
 20
4.114950610429
 30
1.002775320558e-07
 10
7.181617459297
 20
4.11647356744
 30
1.001899931907e-07
 10
7.177606297292
 20
4.117778524174
 30
1.001905616249e-07
 10
7.174932852931
 20
4.118648371403
 30
1.001776013254e-07
 10
7.171592299982
 20
4.119735444209
 30
1.001563987302e-07
 10
7.167585620813
 20
4.121039562432
 30
1.001369014375e-07
 10
7.16358093024
 20
4.122343309214
 30
1.001173473014e-07
 10
7.159578234662
 20
4.123646681367
 30
1.000977931653e-07
 10
7.154243944564
 20
4.125384021251
 30
1.000817064778e-07
 10
7.149579995606
 20
4.126903508017
 30
9.999376970882e-08
 10
7.14591769196
 20
4.128096986197
 30
9.998313998949e-08
 10
7.144752631201
 20
4.128476688359
 30
9.998120731325e-08
 10
7.144086943889
 20
4.128693649563
 30
9.998291261581e-08
 10
7.143088475192
 20
4.129019079642
 30
9.998547056966e-08
 10
7.141591011636
 20
4.129507178146
 30
9.997432925957e-08
 10
7.138929509666
 20
4.130374787568
 30
9.997114602811e-08
 10
7.136851011367
 20
4.131052451154
 30
9.994897709475e-08
 10
7.135354875365
 20
4.131540300301
 30
9.994778338296e-08
 10
7.135022411284
 20
4.131648709208
 30
9.994863603424e-08
 10
7.134440624005
 20
4.131838420495
 30
9.994766969612e-08
 10
7.133609590066
 20
4.13210941714
 30
9.994471383834e-08
 10
7.132903276316
 20
4.132339756123
 30
9.994778338296e-08
 10
7.132487854226
 20
4.132475234073
 30
9.994136007663e-08
 10
7.13236320092
 20
4.132515887643
 30
9.994539595937e-08
 10
7.132238628928
 20
4.132556511589
 30
9.994948868552e-08
 10
7.132072291954
 20
4.13261076615
 30
9.99448843686e-08
 10
7.131906678379
 20
4.13266475474
 30
9.995034133681e-08
 10
7.131739693286
 20
4.132719249617
 30
9.99457938633e-08
 10
7.131657607995
 20
4.132745978531
 30
9.994840866057e-08
 10
7.131616555026
 20
4.132759346848
 30
9.994977290262e-08
 10
7.089578314363
 20
4.146448503152
 30
1.011797507999e-07
 10
7.010283366638
 20
4.17305374616
 30
1.193126308863e-07
 10
6.955969820537
 20
4.189770689889
 30
1.215153702105e-07
 10
6.854618655082
 20
4.225471693902
 30
1.226788981512e-07
 10
6.713718938291
 20
4.274857134402
 30
1.284222435061e-07
 10
6.521071885526
 20
4.343012234509
 30
1.538645051369e-07
 10
6.238828575896
 20
4.445230232117
 30
1.79446999482e-07
 10
5.967142422667
 20
4.545898388822
 30
2.067047830678e-07
 10
5.747968965341
 20
4.629003957554
 30
2.348648990846e-07
 10
5.577244448029
 20
4.694867405364
 30
2.420890155008e-07
 10
5.409422603574
 20
4.760364799723
 30
2.537466912145e-07
 10
5.205112750639
 20
4.841511368051
 30
2.666114937711e-07
 10
4.968420559647
 20
4.937730042193
 30
2.931756739599e-07
 10
4.739972322835
 20
5.032784037916
 30
3.213538093405e-07
 10
4.519510457866
 20
5.12667384459
 30
3.451858674453e-07
 10
4.306816590777
 20
5.219383852249
 30
3.777001325034e-07
 10
4.101608757533
 20
5.310925351105
 30
3.901877789758e-07
 10
3.903695523731
 20
5.401271031162
 30
4.174560217507e-07
 10
3.712812462892
 20
5.490424749311
 30
4.424253461366e-07
 10
3.528725501939
 20
5.578377400776
 30
4.695646111941e-07
 10
3.351184559754
 20
5.66512671372
 30
4.919637603962e-07
 10
3.237041507871
 20
5.722147174301
 30
5.137153493706e-07
 10
3.144583624448
 20
5.768832504038
 30
5.22911761891e-07
 10
3.072655996955
 20
5.805411234528
 30
5.301959049575e-07
 10
2.967263516305
 20
5.859762349963
 30
5.425503672996e-07
 10
2.86429248746
 20
5.913599802448
 30
5.478535172188e-07
 10
2.763694469767
 20
5.96691447525
 30
5.585444569078e-07
 10
2.665396144004
 20
6.019707892734
 30
5.691732098967e-07
 10
2.569324366347
 20
6.071981503751
 30
5.743901283495e-07
 10
2.475430181511
 20
6.123726410291
 30
5.862939929102e-07
 10
2.414234867048
 20
6.157872432996
 30
5.935649483035e-07
 10
2.348134861434
 20
6.194976426224
 30
6.000922212479e-07
 10
2.277378172019
 20
6.234976088959
 30
6.121196634012e-07
 10
2.173842114952
 20
6.29433369955
 30
6.247266242099e-07
 10
2.072767480453
 20
6.353103659928
 30
6.396847993528e-07
 10
1.974000917067
 20
6.411346959403
 30
6.533704208778e-07
 10
1.877397249377
 20
6.469121089066
 30
6.680890578536e-07
 10
1.782795610577
 20
6.526490250842
 30
6.748272767254e-07
 10
1.690072877919
 20
6.58350250103
 30
6.917498467374e-07
 10
1.599061238945
 20
6.640225010447
 30
7.048433872114e-07
 10
1.509617655937
 20
6.696714351762
 30
7.179438057392e-07
 10
1.421598818794
 20
6.75302721311
 30
7.346665142904e-07
 10
1.334837377516
 20
6.8092305644
 30
7.413384537358e-07
 10
1.249209527001
 20
6.865372748611
 30
7.556442938039e-07
 10
1.164555034863
 20
6.921517689046
 30
7.690305210417e-07
 10
1.080727939922
 20
6.977723203591
 30
7.832227879589e-07
 10
0.997576533551
 20
7.034049567447
 30
7.95807409304e-07
 10
0.942498289571
 20
7.071718356805
 30
8.063321956797e-07
 10
0.871386624656
 20
7.120567185487
 30
8.188874858206e-07
 10
0.771761061863
 20
7.191272002296
 30
8.448533321825e-07
 10
0.59262398628
 20
7.324722549468
 30
8.659379773235e-07
 10
0.391245601338
 20
7.480653280057
 30
8.862863865033e-07
 10
0.247140835774
 20
7.596316997595
 30
9.132393756772e-07
 10
0.11596599682
 20
7.703610993227
 30
9.239836913366e-07
 10
0.05817107338798
 20
7.751467299868
 30
9.296904863731e-07
 10
9.999997985233e-08
 20
7.800432937242
 30
9.296886105403e-07
  0
LINE
  5
39
330
17
100
AcDbEntity
  8
CUT
100
AcDbLine
 10
29.467362281427
 20
0.223976173023
 30
9.29683642678e-07
 11
29.475249131077
 21
9.72015528483
 31
9.296922260342e-07
  0
LINE
  5
3A
330
17
100
AcDbEntity
  8
CUT
100
AcDbLine
 10
29.475249131077
 20
9.72015528483
 30
9.296922260342e-07
 11
34.475247406632
 21
9.716002642573
 31
9.296913165395e-07
  0
LINE
  5
3B
330
17
100
AcDbEntity
  8
CUT
100
AcDbLine
 10
34.475247406632
 20
9.716002642573
 30
9.296913165395e-07
 11
34.467220175215
 21
0.04195510554834
 31
9.296964324472e-07
  0
SPLINE
  5
3C
330
17
100
AcDbEntity
  8
CUT
100
AcDbSpline
 70
0
 71
3
 72
67
 73
63
 74
0
 40
0.0
 40
0.0
 40
0.0
 40
0.0
 40
0.04774970444596512
 40
0.09549940890631951
 40
0.14324911335228463
 40
0.19099881781263903
 40
0.19099881781263903
 40
0.1913718623721026
 40
0.1913718623721026
 40
0.19174490694595625
 40
0.1924909960792735
 40
0.19398317433151793
 40
0.19547535259815244
 40
0.19696753086478694
 40
0.19995188739805594
 40
0.20293624391693565
 40
0.20890495698347286
 40
0.21188931350235257
 40
0.21487367003562158
 40
0.2268110961543075
 40
0.2327798092064554
 40
0.23874852225860332
 40
0.24471723532514134
 40
0.25068594837729
 40
0.26262337449597595
 40
0.28649822671895775
 40
0.3103730789419403
 40
0.33424793116492285
 40
0.35812278340229464
 40
0.3700602095065913
 40
0.3819976356252772
 40
0.3819976356252772
 40
0.42643607173172665
 40
0.4375456807619365
 40
0.4486552897921456
 40
0.45976489882235544
 40
0.4708745078381761
 40
0.493093725898595
 40
0.49864853041369994
 40
0.5042033349288049
 40
0.506980737186357
 40
0.5097581394439098
 40
0.5153129439590147
 40
0.5264225529748345
 40
0.5375321620050444
 40
0.5430869665201493
 40
0.5486417710352542
 40
0.5541965755503584
 40
0.5569739778079112
 40
0.5583626789366873
 40
0.5590570294938811
 40
0.5597513800654633
 40
0.5597513800654633
 40
0.6283722202796671
 40
0.6969930605082593
 40
0.7656139007224622
 40
0.8342347409510552
 40
0.8342347409510552
 40
0.8732742543503105
 40
0.9123137677639551
 40
0.9123137677639551
 40
1.0
 40
1.0
 40
1.0
 40
1.0
 10
67.868345929559
 20
1.39240459675
 30
9.296891789745e-07
 10
67.327091174849
 20
1.338301331009
 30
9.296857683694e-07
 10
66.248432547989
 20
1.23330720659
 30
9.298516374656e-07
 10
64.660838175549
 20
1.087240048969
 30
9.300741794505e-07
 10
63.098918192649
 20
0.952116613981
 30
9.301468821832e-07
 10
62.100927911829
 20
0.871423380397
 30
9.303376486969e-07
 10
61.582967012119
 20
0.830772362655
 30
9.303458341492e-07
 10
61.578949964439
 20
0.830457151821
 30
9.303439583164e-07
 10
61.570912967919
 20
0.829826643558
 30
9.303500405622e-07
 10
61.558855924639
 20
0.828881013231
 30
9.303441288466e-07
 10
61.530701548099
 20
0.826674477658
 30
9.30340377181e-07
 10
61.490426611319
 20
0.823522723495
 30
9.303408319283e-07
 10
61.442009114169
 20
0.819741297134
 30
9.303473689215e-07
 10
61.377338902929
 20
0.814700660517
 30
9.303462888965e-07
 10
61.296289928739
 20
0.808402603337
 30
9.303376486969e-07
 10
61.166180861219
 20
0.798333640539
 30
9.303365686719e-07
 10
61.035442621559
 20
0.78827931437
 30
9.303269052907e-07
 10
60.904130698689
 20
0.778245522698
 30
9.303192882726e-07
 10
60.706607827969
 20
0.763217999767
 30
9.303150818596e-07
 10
60.474593553249
 20
0.745761163083
 30
9.302642638431e-07
 10
60.207693063519
 20
0.725956849381
 30
9.302549983659e-07
 10
60.006721001689
 20
0.711186283855
 30
9.302463013228e-07
 10
59.805044469679
 20
0.696508074221
 30
9.302368653152e-07
 10
59.535319129619
 20
0.677072650255
 30
9.302144121648e-07
 10
59.061426959839
 20
0.643446626412
 30
9.301811019213e-07
 10
58.380714784569
 20
0.596680621471
 30
9.29982377329e-07
 10
57.563223166259
 20
0.54306201887
 30
9.298145755565e-07
 10
56.749918539439
 20
0.4923090348
 30
9.296247753809e-07
 10
56.079499634289
 20
0.452636112511
 30
9.294384426539e-07
 10
55.549796666879
 20
0.422568394368
 30
9.293776201957e-07
 10
55.287520411309
 20
0.408103033168
 30
9.293544849243e-07
 10
54.671341632659
 20
0.374614219991
 30
9.292031677433e-07
 10
54.089787381109
 20
0.344810980541
 30
9.288645514971e-07
 10
53.367375318259
 20
0.31010934261
 30
9.288627325077e-07
 10
53.002511885009
 20
0.293085304918
 30
9.288443720834e-07
 10
52.634289670579
 20
0.276409026115
 30
9.288204978475e-07
 10
52.139570913639
 20
0.25469888778
 30
9.288011142417e-07
 10
51.702454902749
 20
0.236445117476
 30
9.287132911595e-07
 10
51.325924073749
 20
0.221404101869
 30
9.287128932556e-07
 10
51.168761863079
 20
0.215239624118
 30
9.287113584833e-07
 10
51.042894143909
 20
0.21037115165
 30
9.287023772231e-07
 10
50.916943144219
 20
0.20554512651
 30
9.28707663661e-07
 10
50.696329098059
 20
0.197212022509
 30
9.286932254327e-07
 10
50.380724461989
 20
0.185634763651
 30
9.286754334425e-07
 10
50.064872188259
 20
0.17450726331
 30
9.286527529184e-07
 10
49.812245102066
 20
0.165881542503
 30
9.286462159253e-07
 10
49.622845625475
 20
0.159551441644
 30
9.28645363274e-07
 10
49.465114126294
 20
0.154393356691
 30
9.286347903981e-07
 10
49.354773294671
 20
0.150844365781
 30
9.286394515584e-07
 10
49.299627832377
 20
0.149085514888
 30
9.286384283769e-07
 10
49.268116843801
 20
0.148084653486
 30
9.286353588323e-07
 10
49.252372835942
 20
0.147586081503
 30
9.286340514336e-07
 10
48.465293450702
 20
0.122684357862
 30
9.286500812777e-07
 10
46.927684348645
 20
0.08107917329535
 30
9.288679052588e-07
 10
44.718489358718
 20
0.03896957054234
 30
9.289291824643e-07
 10
42.409001896108
 20
0.01131771001234
 30
9.291027254221e-07
 10
40.890355645888
 20
0.003431325560342
 30
9.292951972384e-07
 10
39.709644031035
 20
0.0002448080953421
 30
9.293872835769e-07
 10
38.770581872473
 20
-0.0008530270096578
 30
9.294091682932e-07
 10
37.891964422987
 20
0.002145663446342
 30
9.294469691667e-07
 10
36.451095568866
 20
0.01059031971134
 30
9.295243899032e-07
 10
35.452708303233
 20
0.02229727813934
 30
9.29666043703e-07
 10
34.467234828594
 20
0.04195486035334
 30
9.29686393647e-07
  0
LINE
  5
3D
330
17
100
AcDbEntity
  8
CUT
100
AcDbLine
 10
67.868345929569
 20
1.392404596741
 30
9.29689213333e-07
 11
67.875183053689
 21
9.624659192221
 31
9.296833016175e-07
  0
LINE
  5
3E
330
17
100
AcDbEntity
  8
CUT
100
AcDbLine
 10
67.875183053689
 20
9.624659192221
 30
9.296833016175e-07
 11
72.875192282519
 21
9.633655236329
 31
9.296916007566e-07
  0
LINE
  5
3F
330
17
100
AcDbEntity
  8
CUT
100
AcDbLine
 10
72.875192282519
 20
9.633655236329
 30
9.296916007566e-07
 11
72.868793403199
 21
1.929109951136
 31
9.296846658595e-07
  0
SPLINE
  5
40
330
17
100
AcDbEntity
  8
CUT
100
AcDbSpline
 70
0
 71
3
 72
79
 73
75
 74
0
 40
0.0
 40
0.0
 40
0.0
 40
0.0
 40
0.08834766141539761
 40
0.1325214921230964
 40
0.1546084074815893
 40
0.17669532283079523
 40
0.17669532283079523
 40
0.1850745393942633
 40
0.19345375594844444
 40
0.21021218906609468
 40
0.21021218906609468
 40
0.251918080800938
 40
0.251918080800938
 40
0.2823136719078375
 40
0.3127092630240239
 40
0.3431048541309234
 40
0.3735004452378229
 40
0.40389603634472293
 40
0.4342916274516224
 40
0.4646872185585219
 40
0.49508280967470836
 40
0.5254784007816078
 40
0.5558739918885073
 40
0.5862695829954068
 40
0.6166651741023068
 40
0.6470607652092063
 40
0.6774563563161058
 40
0.7078519474322922
 40
0.7382475385391917
 40
0.7382475385391917
 40
0.738375542944118
 40
0.7385035473490448
 40
0.7387595561588974
 40
0.7392715737786031
 40
0.7402956090087274
 40
0.7413196442481382
 40
0.7423436794875495
 40
0.7443917499663721
 40
0.7464398204359073
 40
0.7505359613842656
 40
0.7525840318630878
 40
0.7546321023326233
 40
0.7628243842386259
 40
0.7669205251869837
 40
0.771016666135342
 40
0.7751128070836998
 40
0.7792089480413444
 40
0.78740122993806
 40
0.8037857937407786
 40
0.8201703575342103
 40
0.8283626394402128
 40
0.8324587803885711
 40
0.8365549213369289
 40
0.8406510622852867
 40
0.8447472032336445
 40
0.8529394851396476
 40
0.8549875556091827
 40
0.8570356260880053
 40
0.8611317670363631
 40
0.8631798375151857
 40
0.8652279079847209
 40
0.8662519432241322
 40
0.8672759784635435
 40
0.8683000137029548
 40
0.8688120313226599
 40
0.869068040132513
 40
0.8691960445374394
 40
0.8693240489423656
 40
0.8693240489423656
 40
0.8693240489423656
 40
0.9019930366998091
 40
0.9346620244665391
 40
0.9673310122332696
 40
1.0
 40
1.0
 40
1.0
 40
1.0
 10
117.02558759773
 20
9.561429894822
 30
9.296855409957e-07
 10
115.78230592805
 20
9.287976213069
 30
9.296855978391e-07
 10
113.84011038418
 20
8.866268199046
 30
9.310425639342e-07
 10
111.54552428094
 20
8.380851149139
 30
9.311580129179e-07
 10
110.24288874917
 20
8.109173562415
 30
9.314513249592e-07
 10
109.5973546021
 20
7.975874904911
 30
9.315532452092e-07
 10
109.15518013851
 20
7.885036692873
 30
9.31592296638e-07
 10
108.91174808014
 20
7.835112097468
 30
9.316129876424e-07
 10
108.4234134213
 20
7.735293980944
 30
9.316172508989e-07
 10
108.05562065128
 20
7.660495883088
 30
9.316618729827e-07
 10
107.19781580548
 20
7.486643771474
 30
9.317773219664e-07
 10
106.58170487999
 20
7.362837460687
 30
9.319041396338e-07
 10
105.5096396021
 20
7.149341853497
 30
9.320841627414e-07
 10
104.60827941642
 20
6.971018061816
 30
9.323573522124e-07
 10
103.26735420174
 20
6.709332802318
 30
9.326699341727e-07
 10
101.94457986913
 20
6.454929516619
 30
9.330047419098e-07
 10
100.63926719866
 20
6.207553480521
 30
9.334360697721e-07
 10
99.289825887539
 20
5.954826337856
 30
9.33606770559e-07
 10
97.926418218249
 20
5.703280581725
 30
9.339948405795e-07
 10
96.564020659749
 20
5.455989135094
 30
9.343899023406e-07
 10
95.211690728939
 20
5.214859403477
 30
9.347839977636e-07
 10
93.903031965229
 20
4.986176612422
 30
9.352405641039e-07
 10
92.609451840429
 20
4.764269472626
 30
9.353982477478e-07
 10
91.252381565929
 20
4.53487101495
 30
9.357589192405e-07
 10
89.880909563799
 20
4.307611398224
 30
9.358330999021e-07
 10
88.507790898359
 20
4.084874533268
 30
9.361709771838e-07
 10
87.149201613189
 20
3.869659331947
 30
9.364346169605e-07
 10
85.841158374409
 20
3.667813825742
 30
9.367239499625e-07
 10
84.976234022239
 20
3.537494625671
 30
9.36986623401e-07
 10
84.525983692859
 20
3.470276668536
 30
9.370448879054e-07
 10
84.522223289729
 20
3.469715582536
 30
9.370383509122e-07
 10
84.514692403619
 20
3.468591855406
 30
9.370449447488e-07
 10
84.501515362779
 20
3.466625990896
 30
9.370465363645e-07
 10
84.475147671139
 20
3.462693290293
 30
9.370398288411e-07
 10
84.437452931769
 20
3.457074420614
 30
9.370429552291e-07
 10
84.392173162449
 20
3.450330049227
 30
9.3703249604e-07
 10
84.331742234059
 20
3.441335863156
 30
9.370350539939e-07
 10
84.256094650709
 20
3.430089949502
 30
9.370203883918e-07
 10
84.134839371079
 20
3.412092070519
 30
9.370145335197e-07
 10
84.013263832139
 20
3.394089256311
 30
9.369680924465e-07
 10
83.891402860039
 20
3.376087749107
 30
9.369618396704e-07
 10
83.708336283199
 20
3.349088729002
 30
9.369476288157e-07
 10
83.493981932359
 20
3.317604362644
 30
9.367809639116e-07
 10
83.248195795789
 20
3.281687056144
 30
9.367567486152e-07
 10
83.063494130519
 20
3.254789148877
 30
9.367126381221e-07
 10
82.878486723409
 20
3.227941062104
 30
9.366734730065e-07
 10
82.631473631979
 20
3.192222252555
 30
9.366291351398e-07
 10
82.198489774469
 20
3.129950002323
 30
9.365051596433e-07
 10
81.578918025039
 20
3.04183200893
 30
9.359224009131e-07
 10
80.960711756139
 20
2.955273495524
 30
9.353562973047e-07
 10
80.530060704369
 20
2.895707754926
 30
9.352340271107e-07
 10
80.284752505209
 20
2.861988477893
 30
9.351904282084e-07
 10
80.101203755559
 20
2.836864174363
 30
9.351543326375e-07
 10
79.918133290159
 20
2.811911285884
 30
9.351155085824e-07
 10
79.674741626839
 20
2.778878072097
 30
9.350909522254e-07
 10
79.462753749909
 20
2.750292655338
 30
9.349452625429e-07
 10
79.281884976549
 20
2.726036470363
 30
9.349264473713e-07
 10
79.161532054259
 20
2.709931484736
 30
9.349205924991e-07
 10
79.041525673999
 20
2.693925982475
 30
9.348847243018e-07
 10
78.921894770569
 20
2.678023723339
 30
9.348792104902e-07
 10
78.847284040269
 20
2.668128000741
 30
9.348701723866e-07
 10
78.787694399479
 20
2.660237827
 30
9.3486357855e-07
 10
78.743051998919
 20
2.654333427874
 30
9.348574394608e-07
 10
78.705891759329
 20
2.64942414022
 30
9.34861816404e-07
 10
78.679902425729
 20
2.645993562173
 30
9.348553930977e-07
 10
78.666912977269
 20
2.64427968158
 30
9.348623848382e-07
 10
78.659492697119
 20
2.64330083557
 30
9.348635217066e-07
 10
78.655781974119
 20
2.642811389624
 30
9.348641469842e-07
 10
78.653928739099
 20
2.642566991204
 30
9.348594858238e-07
 10
78.180950386919
 20
2.580192192329
 30
9.345618536827e-07
 10
77.263495591189
 20
2.461476620859
 30
9.330043440059e-07
 10
75.806879593329
 20
2.278153657655
 30
9.326797112408e-07
 10
74.335610715369
 20
2.099519420596
 30
9.312744282397e-07
 10
73.353863013419
 20
1.984695585346
 30
9.296920779889e-07
 10
72.868793403189
 20
1.92910995115
 30
9.296845746576e-07
  0
LINE
  5
41
330
17
100
AcDbEntity
  8
CUT
100
AcDbLine
 10
117.02558759773
 20
9.561429894822
 30
9.296856321977e-07
 11
79.276273978179
 21
9.628963391925
 31
9.296830174004e-07
  0
LINE
  5
42
330
17
100
AcDbEntity
  8
CUT
100
AcDbLine
 10
79.276273978179
 20
9.628963391925
 30
9.296830174004e-07
 11
74.330579236459
 21
14.587560564562
 31
9.296768783111e-07
  0
LINE
  5
43
330
17
100
AcDbEntity
  8
CUT
100
AcDbLine
 10
74.330579236459
 20
14.587560564562
 30
9.296768783111e-07
 11
74.330586410929
 21
14.596199564269
 31
9.29683642678e-07
  0
LINE
  5
44
330
17
100
AcDbEntity
  8
CUT
100
AcDbLine
 10
74.330586410929
 20
14.596199564269
 30
9.29683642678e-07
 11
62.579318338689
 21
14.605959330109
 31
9.296858595713e-07
  0
TEXT
  5
4A
330
17
100
AcDbEntity
  8
LABELS_NONCUT
100
AcDbText
 10
0.0
 20
-6.0
 30
0.0
 40
3.0
  1
A44 PLY 4.990mm QTY 2
100
AcDbText
  0
CIRCLE
  5
4D
330
17
100
AcDbEntity
  8
SANDING_GUIDE_NONCUT
100
AcDbCircle
 10
65.17420593754383
 20
8.449281507556151
 30
9.296885536969057e-07
 40
1.0
  0
CIRCLE
  5
4E
330
17
100
AcDbEntity
  8
SANDING_GUIDE_NONCUT
100
AcDbCircle
 10
37.174215594434855
 20
8.47253630419615
 30
9.296838925365591e-07
 40
1.0
  0
ELLIPSE
  5
4F
330
17
100
AcDbEntity
  8
SANDING_GUIDE_NONCUT
100
AcDbEllipse
 10
91.16613708844386
 20
6.776831212762143
 30
9.296862231167324e-07
 11
-0.29956723564457804
 21
1.4702024964162979
 31
-7.686254064466662e-18
 40
0.9997254666186076
 41
3.5912754251872286e-12
 42
6.283185307183177
  0
LINE
  5
50
330
17
100
AcDbEntity
  8
SANDING_GUIDE_NONCUT
100
AcDbLine
 10
62.56909908397387
 20
2.301442832343123
 30
9.295058364637953e-07
 11
62.57931833853387
 21
14.605959330110183
 31
9.295058364637953e-07
  0
LINE
  5
51
330
17
100
AcDbEntity
  8
SANDING_GUIDE_NONCUT
100
AcDbLine
 10
62.57931833853387
 20
14.605959330110183
 30
9.295058364637953e-07
 11
74.33058641093386
 21
14.596199564269185
 31
9.29683585834573e-07
  0
LINE
  5
52
330
17
100
AcDbEntity
  8
SANDING_GUIDE_NONCUT
100
AcDbLine
 10
74.33058641093386
 20
14.596199564269185
 30
9.29683585834573e-07
 11
74.33054654683387
 21
14.548200646818184
 31
9.296777309624304e-07
  0
LINE
  5
53
330
17
100
AcDbEntity
  8
SANDING_GUIDE_NONCUT
100
AcDbLine
 10
74.33054654683387
 20
14.548200646818184
 30
9.296777309624304e-07
 11
79.27624214479387
 21
9.589606039836156
 31
9.296840974253428e-07
  0
LINE
  5
54
330
17
100
AcDbEntity
  8
SANDING_GUIDE_NONCUT
100
AcDbLine
 10
79.27624214479387
 20
9.589606039836156
 30
9.296840974253428e-07
 11
116.71130144703388
 21
9.522631188042158
 31
9.296865985357726e-07
  0
SPLINE
  5
55
330
17
100
AcDbEntity
  8
SANDING_GUIDE_NONCUT
100
AcDbSpline
 70
0
 71
3
 72
79
 73
75
 74
0
 40
0.0
 40
0.0
 40
0.0
 40
0.0
 40
0.39224087005
 40
0.588361305074
 40
0.686421522587
 40
0.784481740099
 40
0.784481740099
 40
0.821683304244
 40
0.85888486839
 40
0.93328799668
 40
0.93328799668
 40
1.118451418066
 40
1.118451418066
 40
1.253400016711
 40
1.388348615356
 40
1.523297214
 40
1.658245812645
 40
1.79319441129
 40
1.928143009935
 40
2.06309160858
 40
2.198040207225
 40
2.33298880587
 40
2.467937404515
 40
2.602886003159
 40
2.737834601804
 40
2.872783200449
 40
3.007731799094
 40
3.142680397739
 40
3.277628996384
 40
3.277628996384
 40
3.278197302984
 40
3.278765609584
 40
3.279902222783
 40
3.282175449183
 40
3.286721901981
 40
3.29126835478
 40
3.295814807579
 40
3.304907713176
 40
3.314000618774
 40
3.332186429969
 40
3.341279335566
 40
3.350372241164
 40
3.386743863554
 40
3.404929674749
 40
3.423115485944
 40
3.441301297139
 40
3.459487108334
 40
3.495858730724
 40
3.568601975505
 40
3.641345220285
 40
3.677716842675
 40
3.69590265387
 40
3.714088465065
 40
3.73227427626
 40
3.750460087455
 40
3.786831709845
 40
3.795924615443
 40
3.80501752104
 40
3.823203332235
 40
3.832296237833
 40
3.84138914343
 40
3.845935596229
 40
3.850482049028
 40
3.855028501827
 40
3.857301728226
 40
3.858438341426
 40
3.859006648025
 40
3.859574954625
 40
3.859574954625
 40
3.859574954625
 40
4.004616849104
 40
4.149658743582
 40
4.294700638061
 40
4.437189332558
 40
4.437189332558
 40
4.437189332558
 40
4.437189332558
 10
116.71130144703386
 20
9.522631188042158
 30
9.296866210206645e-07
 10
115.47598544349384
 20
9.251309993755157
 30
9.296912253375922e-07
 10
113.54648934808384
 20
8.832931542155155
 30
9.31053250496916e-07
 10
111.26699545306386
 20
8.351367389091152
 30
9.31176600715844e-07
 10
109.97289965436386
 20
8.081845170763149
 30
9.314667863691284e-07
 10
109.33157868449385
 20
7.94960254493915
 30
9.315750730820582e-07
 10
108.89228023686385
 20
7.859483052602148
 30
9.316165687778266e-07
 10
108.65043210455386
 20
7.809953602972147
 30
9.316269711234781e-07
 10
108.16527925402386
 20
7.710926337310148
 30
9.316408409176802e-07
 10
107.79988747453385
 20
7.636721713843147
 30
9.316852356278105e-07
 10
106.94768967217385
 20
7.464250326726146
 30
9.317896001448389e-07
 10
106.33561904027385
 20
7.341429666754147
 30
9.319256832895917e-07
 10
105.27060611252386
 20
7.129637766455144
 30
9.321071843260142e-07
 10
104.37516728729386
 20
6.952737105052143
 30
9.323837275587721e-07
 10
103.04301634468385
 20
6.693139444839142
 30
9.327064844910637e-07
 10
101.72884100154386
 20
6.440762506683142
 30
9.330353236691735e-07
 10
100.43195895094385
 20
6.19535422472614
 30
9.334747232969676e-07
 10
99.09137136692385
 20
5.944656171114138
 30
9.336498010270589e-07
 10
97.73695034648384
 20
5.6951377735051345
 30
9.340420774606173e-07
 10
96.38352812496385
 20
5.449842361165135
 30
9.344380487164017e-07
 10
95.04007536103384
 20
5.2106590750611375
 30
9.348282219434623e-07
 10
93.73987216579386
 20
4.983812424562132
 30
9.352997381029127e-07
 10
92.45460218827384
 20
4.763686316132134
 30
9.354567964692251e-07
 10
91.10645332131386
 20
4.536152226871133
 30
9.358253691971186e-07
 10
89.74404057866386
 20
4.31074711868613
 30
9.358963097838569e-07
 10
88.37999593870384
 20
4.089831955251132
 30
9.36237654514116e-07
 10
87.03033948686385
 20
3.876376749838128
 30
9.365086839352443e-07
 10
85.73074101945386
 20
3.676173015074129
 30
9.367934126203181e-07
 10
84.87137738117386
 20
3.5469148968301276
 30
9.370530165142554e-07
 10
84.42407271413384
 20
3.480248980974128
 30
9.371169653604738e-07
 10
84.42033686330385
 20
3.479692499095126
 30
9.371108262712369e-07
 10
84.41285517887385
 20
3.478577995559128
 30
9.371183864459454e-07
 10
84.39976422157386
 20
3.476628266701127
 30
9.371116789225198e-07
 10
84.37356882798386
 20
3.4727278497451266
 30
9.371181590722699e-07
 10
84.33612048461384
 20
3.467155114994128
 30
9.371058240503771e-07
 10
84.29113683378384
 20
3.4604661356921262
 30
9.371110536449123e-07
 10
84.23110128698386
 20
3.4515458400481265
 30
9.371010492031928e-07
 10
84.15594897831386
 20
3.4403923538831265
 30
9.370957059218199e-07
 10
84.03548824591385
 20
3.4225424735211263
 30
9.370847351419798e-07
 10
83.91471033439385
 20
3.404687813658125
 30
9.370432962896302e-07
 10
83.79364973451385
 20
3.386834556305125
 30
9.370319276058581e-07
 10
83.61178636155384
 20
3.360057987893125
 30
9.370202178615727e-07
 10
83.39884321691386
 20
3.3288333244391275
 30
9.368496307615715e-07
 10
83.15467767071385
 20
3.2932126291411272
 30
9.36825301778299e-07
 10
82.97119492806385
 20
3.266537010572124
 30
9.367736311105546e-07
 10
82.78740938136386
 20
3.2399109489041233
 30
9.367368534185516e-07
 10
82.54202867003386
 20
3.204487703780126
 30
9.367022357764654e-07
 10
82.11190830476386
 20
3.142731178756124
 30
9.365703022012895e-07
 10
81.49643706935385
 20
3.055343987611126
 30
9.359911814499355e-07
 10
80.88231814470385
 20
2.969504148241123
 30
9.354075132250728e-07
 10
80.45450809141386
 20
2.910433127325126
 30
9.352851293442654e-07
 10
80.21081583599386
 20
2.8769939174061214
 30
9.352498295811529e-07
 10
80.02847488599386
 20
2.852078291637124
 30
9.352147571917158e-07
 10
79.84660762147385
 20
2.827332648247122
 30
9.351667813461972e-07
 10
79.60481347411385
 20
2.794573766982122
 30
9.351398375656572e-07
 10
79.39421400503386
 20
2.7662257051311236
 30
9.349980700790184e-07
 10
79.21452726892386
 20
2.7421708756121213
 30
9.349796528113075e-07
 10
79.09496019702385
 20
2.726199566278124
 30
9.349672609459958e-07
 10
78.97573633699386
 20
2.7103268919241224
 30
9.349348033538263e-07
 10
78.85688434572384
 20
2.694556576142123
 30
9.349225251753523e-07
 10
78.78275891177384
 20
2.6847429479781226
 30
9.349217862109072e-07
 10
78.72355655736385
 20
2.6769182229661226
 30
9.349117249257688e-07
 10
78.67920414283384
 20
2.6710627967061242
 30
9.349106449008104e-07
 10
78.64228515705386
 20
2.666194224865123
 30
9.349090532850823e-07
 10
78.61646448171385
 20
2.6627920968521224
 30
9.349155334348325e-07
 10
78.60355931227386
 20
2.6610924292211244
 30
9.349139418191044e-07
 10
78.59618716979386
 20
2.660121700372123
 30
9.34905926897045e-07
 10
78.59250052129386
 20
2.659636313384123
 30
9.349069500785845e-07
 10
78.59065930298385
 20
2.659393941331121
 30
9.34912463890214e-07
 10
78.12074782950384
 20
2.5975363069261235
 30
9.34606987357256e-07
 10
77.20915054714385
 20
2.4798013924321207
 30
9.330383363703731e-07
 10
75.76209462408386
 20
2.2980148997661214
 30
9.327087582278182e-07
 10
74.30910099515387
 20
2.1219252318731208
 30
9.313002351518662e-07
 10
73.34241871047385
 20
2.0090379660491227
 30
9.297134511143668e-07
 10
72.86881552913385
 20
1.9548304112001205
 30
9.296851430917741e-07
  0
LINE
  5
56
330
17
100
AcDbEntity
  8
SANDING_GUIDE_NONCUT
100
AcDbLine
 10
72.86881501960387
 20
1.9548303486771195
 30
9.295951943182445e-07
 11
72.87519228266386
 21
9.633655236330156
 31
9.296915439132135e-07
  0
LINE
  5
57
330
17
100
AcDbEntity
  8
SANDING_GUIDE_NONCUT
100
AcDbLine
 10
72.87519228266386
 20
9.633655236330156
 30
9.296915439132135e-07
 11
67.87518305369386
 21
9.624659192222154
 31
9.296832447740599e-07
  0
LINE
  5
58
330
17
100
AcDbEntity
  8
SANDING_GUIDE_NONCUT
100
AcDbLine
 10
67.87518305369386
 20
9.624659192222154
 30
9.296832447740599e-07
 11
67.86836803786386
 21
1.4190415022511145
 31
9.296917144434701e-07
  0
SPLINE
  5
59
330
17
100
AcDbEntity
  8
SANDING_GUIDE_NONCUT
100
AcDbSpline
 70
0
 71
3
 72
68
 73
64
 74
0
 40
0.0
 40
0.0
 40
0.0
 40
0.0
 40
0.047215674129266916
 40
0.0946539198377255
 40
0.1420921655461841
 40
0.18953041125464246
 40
0.18953041125464246
 40
0.18990102254910735
 40
0.18990102254910735
 40
0.1902716338438215
 40
0.19101285643300078
 40
0.19249530161135892
 40
0.19397774678971705
 40
0.19546019196807515
 40
0.19842508232479164
 40
0.20138997268150788
 40
0.20731975339518988
 40
0.21028464375190611
 40
0.21324953410862257
 40
0.22510909553573707
 40
0.23103887624941905
 40
0.23696865696285177
 40
0.24289843767653374
 40
0.24882821838996647
 40
0.26068777981708097
 40
0.28440690267131036
 40
0.3081260255255395
 40
0.3318451483797687
 40
0.35556427123399814
 40
0.3674238326611126
 40
0.379283394087978
 40
0.379283394087978
 40
0.4234319699850055
 40
0.43446911395926247
 40
0.4455062579335192
 40
0.45654340190752696
 40
0.4675805458817837
 40
0.48965483383029745
 40
0.4951734058173013
 40
0.5006919778045544
 40
0.5034512637980562
 40
0.506210549791558
 40
0.5117291217788111
 40
0.5227662657530682
 40
0.5338034097270756
 40
0.5393219817143288
 40
0.5448405537013327
 40
0.5503591256885855
 40
0.5531184116820874
 40
0.5544980546788384
 40
0.5551878761772139
 40
0.5558776976755894
 40
0.5558776976755894
 40
0.5558776976755894
 40
0.6240509422313951
 40
0.6922241867872008
 40
0.7603974313430065
 40
0.8285706758988124
 40
0.8285706758988124
 40
0.8673555448405792
 40
0.9061404137823464
 40
0.9061404137823464
 40
1.0
 40
1.0
 40
1.0
 40
1.0
 10
67.86836800882384
 20
1.4190415005361174
 30
9.296917369283619e-07
 10
67.33324317293386
 20
1.3656708976181164
 30
9.296923622059694e-07
 10
66.26428447661385
 20
1.2618446827121161
 30
9.298561280957074e-07
 10
64.68956894141385
 20
1.1172669203181158
 30
9.300791816713172e-07
 10
63.13781278959385
 20
0.9833146595671156
 30
9.301502927883121e-07
 10
62.14618327060384
 20
0.9033205176661152
 30
9.303416845796164e-07
 10
61.63157314813384
 20
0.8630239983651133
 30
9.303558385909128e-07
 10
61.62758209329385
 20
0.8627115365641149
 30
9.303541332883469e-07
 10
61.61959711045387
 20
0.8620865274871132
 30
9.303507795266341e-07
 10
61.60761810260385
 20
0.8611491450771123
 30
9.30355724904075e-07
 10
61.579646013953834
 20
0.8589618582321155
 30
9.303539627580903e-07
 10
61.53963201300385
 20
0.8558376064221154
 30
9.30347141547827e-07
 10
61.49152848347387
 20
0.8520891897891136
 30
9.303470278609893e-07
 10
61.42727799083386
 20
0.8470925718251134
 30
9.303503816227021e-07
 10
61.34675570142383
 20
0.8408495450361126
 30
9.303472552346648e-07
 10
61.21749348358384
 20
0.830868625565115
 30
9.303450951847481e-07
 10
61.087608159183844
 20
0.8209023079531139
 30
9.303344086220022e-07
 10
60.95715468461384
 20
0.8109564323881155
 30
9.303255978920788e-07
 10
60.76092483731384
 20
0.7960606654571141
 30
9.303247452407959e-07
 10
60.530434228383854
 20
0.7787571240451125
 30
9.302694934376632e-07
 10
60.26529186342384
 20
0.7591270069471125
 30
9.302678449785162e-07
 10
60.065646072463835
 20
0.7444864969681113
 30
9.302523267251672e-07
 10
59.86530260033385
 20
0.729937656143111
 30
9.302358989771164e-07
 10
59.59736260650385
 20
0.7106736870331112
 30
9.302207786276995e-07
 10
59.126612832543856
 20
0.6773446912071108
 30
9.301876389145036e-07
 10
58.45042561989385
 20
0.6309927388021137
 30
9.299907901549886e-07
 10
57.63837004629386
 20
0.5778499814261142
 30
9.298112217948074e-07
 10
56.83046107375384
 20
0.5275482325971126
 30
9.296270491176983e-07
 10
56.16446786145386
 20
0.48822852731911226
 30
9.294366236645146e-07
 10
55.63824159482385
 20
0.4584287213571123
 30
9.2938296347711e-07
 10
55.37767889364386
 20
0.4440923123291114
 30
9.293428888668132e-07
 10
54.765516146233836
 20
0.4109021102951118
 30
9.292018603446195e-07
 10
54.18767173187385
 20
0.3813642817601117
 30
9.288501701121277e-07
 10
53.469948912773845
 20
0.34697401393010985
 30
9.288499995818711e-07
 10
53.107465390733864
 20
0.33010311552111027
 30
9.288370961257897e-07
 10
52.74165547065385
 20
0.31357721751811063
 30
9.288086175729404e-07
 10
52.250189246643856
 20
0.2920633017721119
 30
9.2878917712369e-07
 10
51.815959865133834
 20
0.27397506490011203
 30
9.287081752518134e-07
 10
51.44192099586385
 20
0.2590707867111117
 30
9.287017519454821e-07
 10
51.28579970284386
 20
0.2529624067741114
 30
9.286958970733394e-07
 10
51.16076601845384
 20
0.24813827135611177
 30
9.286914632866683e-07
 10
51.03564983614385
 20
0.24335621865811063
 30
9.286912359129929e-07
 10
50.816498589573854
 20
0.23509909898411152
 30
9.286845283895673e-07
 10
50.50298774987385
 20
0.22362756488211133
 30
9.28667475363909e-07
 10
50.18923139305383
 20
0.21260188511511124
 30
9.286451927437156e-07
 10
49.938280334926844
 20
0.20405521166211038
 30
9.286367799177242e-07
 10
49.750137100659856
 20
0.19778318053411148
 30
9.286318913837022e-07
 10
49.59345140964186
 20
0.19267246322411147
 30
9.286260365115595e-07
 10
49.48384191020887
 20
0.18915608934411132
 30
9.286241038353182e-07
 10
49.429061863429865
 20
0.18741340962811215
 30
9.286247291129257e-07
 10
49.39775967108784
 20
0.1864217522981111
 30
9.286226259064279e-07
 10
49.38211995350585
 20
0.18592776570210923
 30
9.286217164117261e-07
 10
49.37428780760786
 20
0.18568061243210998
 30
9.286263207286538e-07
 10
48.600257425863845
 20
0.1612551047781121
 30
9.286412137043953e-07
 10
47.07279101080886
 20
0.12003559788311158
 30
9.288585260947002e-07
 10
44.87788148326385
 20
0.07833256703511005
 30
9.289217928198923e-07
 10
42.583599332015865
 20
0.050977529353110285
 30
9.290964726460516e-07
 10
41.07489894150484
 20
0.04321058355510843
 30
9.292917297898384e-07
 10
39.90189650432484
 20
0.04009922897810725
 30
9.293820539824083e-07
 10
38.969237321746846
 20
0.039048519512107305
 30
9.294089977629483e-07
 10
38.09645162897084
 20
0.042063644583109294
 30
9.294490155298263e-07
 10
36.58848059923585
 20
0.05096132647910778
 30
9.295263794228958e-07
 10
35.519804752569854
 20
0.06401359523910877
 30
9.296871326114342e-07
 10
34.46724975311585
 20
0.08640893227210888
 30
9.296866210206645e-07
  0
LINE
  5
5A
330
17
100
AcDbEntity
  8
SANDING_GUIDE_NONCUT
100
AcDbLine
 10
34.46724975271687
 20
0.08640893227311164
 30
9.296865985357726e-07
 11
34.47524740663286
 21
9.716002642573159
 31
9.296912596961192e-07
  0
LINE
  5
5B
330
17
100
AcDbEntity
  8
SANDING_GUIDE_NONCUT
100
AcDbLine
 10
34.47524740663286
 20
9.716002642573159
 30
9.296912596961192e-07
 11
29.475249131076865
 21
9.720155284830156
 31
9.29692169190821e-07
  0
LINE
  5
5C
330
17
100
AcDbEntity
  8
SANDING_GUIDE_NONCUT
100
AcDbLine
 10
29.475249131076865
 20
9.720155284830156
 30
9.29692169190821e-07
 11
29.46738641333087
 21
0.27721042681611063
 31
9.332647780662228e-07
  0
SPLINE
  5
5D
330
17
100
AcDbEntity
  8
SANDING_GUIDE_NONCUT
100
AcDbSpline
 70
0
 71
3
 72
743
 73
739
 74
0
 40
0.0
 40
0.0
 40
0.0
 40
0.0
 40
0.005431157504757902
 40
0.005431157504757902
 40
0.005431157504757902
 40
0.012534982112883402
 40
0.012534982112883402
 40
0.012534982112883402
 40
0.019638806721008813
 40
0.019638806721008813
 40
0.019638806721008813
 40
0.026742631329134226
 40
0.026742631329134226
 40
0.026742631329134226
 40
0.033846455937259726
 40
0.033846455937259726
 40
0.033846455937259726
 40
0.04095028054538514
 40
0.04095028054538514
 40
0.04095028054538514
 40
0.04805410515351055
 40
0.04805410515351055
 40
0.04805410515351055
 40
0.05515792976163605
 40
0.05515792976163605
 40
0.05515792976163605
 40
0.06226175436976146
 40
0.06226175436976146
 40
0.06226175436976146
 40
0.06936557897788687
 40
0.06936557897788687
 40
0.06936557897788687
 40
0.07646940358601237
 40
0.07646940358601237
 40
0.07646940358601237
 40
0.08357322819413779
 40
0.08357322819413779
 40
0.08357322819413779
 40
0.09067705280226329
 40
0.09067705280226329
 40
0.09067705280226329
 40
0.0977808774103887
 40
0.0977808774103887
 40
0.0977808774103887
 40
0.10488470201856492
 40
0.10488470201856492
 40
0.10488470201856492
 40
0.11229438234027529
 40
0.11229438234027529
 40
0.11229438234027529
 40
0.11970406266198566
 40
0.11970406266198566
 40
0.11970406266198566
 40
0.12711374298369602
 40
0.12711374298369602
 40
0.12711374298369602
 40
0.1345234233054064
 40
0.1345234233054064
 40
0.1345234233054064
 40
0.14193310362711675
 40
0.14193310362711675
 40
0.14193310362711675
 40
0.14934278394887793
 40
0.14934278394887793
 40
0.14934278394887793
 40
0.1567524642705883
 40
0.1567524642705883
 40
0.1567524642705883
 40
0.16416214459229866
 40
0.16416214459229866
 40
0.16416214459229866
 40
0.17157182491400905
 40
0.17157182491400905
 40
0.17157182491400905
 40
0.1789815052357194
 40
0.1789815052357194
 40
0.1789815052357194
 40
0.18639118555742976
 40
0.18639118555742976
 40
0.18639118555742976
 40
0.19380086587919096
 40
0.19380086587919096
 40
0.19380086587919096
 40
0.2012105462009013
 40
0.2012105462009013
 40
0.2012105462009013
 40
0.2086202265226117
 40
0.2086202265226117
 40
0.2086202265226117
 40
0.21602990684432205
 40
0.21602990684432205
 40
0.21602990684432205
 40
0.2234395871660324
 40
0.2234395871660324
 40
0.2234395871660324
 40
0.23181947683614462
 40
0.23181947683614462
 40
0.23181947683614462
 40
0.24019936650620605
 40
0.24019936650620605
 40
0.24019936650620605
 40
0.24857925617631826
 40
0.24857925617631826
 40
0.24857925617631826
 40
0.2569591458464305
 40
0.2569591458464305
 40
0.2569591458464305
 40
0.2611490906814612
 40
0.2611490906814612
 40
0.2611490906814612
 40
0.26533903551649196
 40
0.26533903551649196
 40
0.26533903551649196
 40
0.2737189251866042
 40
0.2737189251866042
 40
0.2737189251866042
 40
0.2820988148566656
 40
0.2820988148566656
 40
0.2820988148566656
 40
0.2904787045267777
 40
0.2904787045267777
 40
0.2904787045267777
 40
0.29623480642080224
 40
0.29623480642080224
 40
0.29623480642080224
 40
0.3019909083147757
 40
0.3019909083147757
 40
0.3019909083147757
 40
0.3077470102088001
 40
0.3077470102088001
 40
0.3077470102088001
 40
0.3135031121028246
 40
0.3135031121028246
 40
0.3135031121028246
 40
0.319259213996798
 40
0.319259213996798
 40
0.319259213996798
 40
0.3250153158908224
 40
0.3250153158908224
 40
0.3250153158908224
 40
0.3307714177848469
 40
0.3307714177848469
 40
0.3307714177848469
 40
0.3365275196788713
 40
0.3365275196788713
 40
0.3365275196788713
 40
0.34228362157284475
 40
0.34228362157284475
 40
0.34228362157284475
 40
0.3480397234668693
 40
0.3480397234668693
 40
0.3480397234668693
 40
0.3537958253608936
 40
0.3537958253608936
 40
0.3537958253608936
 40
0.35955192725486707
 40
0.35955192725486707
 40
0.35955192725486707
 40
0.3653080291488916
 40
0.3653080291488916
 40
0.3653080291488916
 40
0.37106413104291597
 40
0.37106413104291597
 40
0.37106413104291597
 40
0.3768202329368894
 40
0.3768202329368894
 40
0.3768202329368894
 40
0.38257633483091374
 40
0.38257633483091374
 40
0.38257633483091374
 40
0.3883324367249383
 40
0.3883324367249383
 40
0.3883324367249383
 40
0.39408853861891174
 40
0.39408853861891174
 40
0.39408853861891174
 40
0.39984464051293606
 40
0.39984464051293606
 40
0.39984464051293606
 40
0.4056007424069606
 40
0.4056007424069606
 40
0.4056007424069606
 40
0.41135684430093405
 40
0.41135684430093405
 40
0.41135684430093405
 40
0.4171129461949584
 40
0.4171129461949584
 40
0.4171129461949584
 40
0.42286904808898296
 40
0.42286904808898296
 40
0.42286904808898296
 40
0.42862514998295637
 40
0.42862514998295637
 40
0.42862514998295637
 40
0.43438125187698073
 40
0.43438125187698073
 40
0.43438125187698073
 40
0.44013735377100527
 40
0.44013735377100527
 40
0.44013735377100527
 40
0.44589345566497873
 40
0.44589345566497873
 40
0.44589345566497873
 40
0.4516495575590031
 40
0.4516495575590031
 40
0.4516495575590031
 40
0.45740565945302764
 40
0.45740565945302764
 40
0.45740565945302764
 40
0.46316176134700104
 40
0.46316176134700104
 40
0.46316176134700104
 40
0.4689178632410254
 40
0.4689178632410254
 40
0.4689178632410254
 40
0.4746739651350498
 40
0.4746739651350498
 40
0.4746739651350498
 40
0.4775814929947747
 40
0.4775814929947747
 40
0.4775814929947747
 40
0.4804890208544485
 40
0.4804890208544485
 40
0.4804890208544485
 40
0.4863040765738473
 40
0.4863040765738473
 40
0.4863040765738473
 40
0.4921191322932968
 40
0.4921191322932968
 40
0.4921191322932968
 40
0.49793418801269534
 40
0.49793418801269534
 40
0.49793418801269534
 40
0.5037492437320942
 40
0.5037492437320942
 40
0.5037492437320942
 40
0.5095642994515436
 40
0.5095642994515436
 40
0.5095642994515436
 40
0.5124718273112177
 40
0.5124718273112177
 40
0.5124718273112177
 40
0.5153793551709424
 40
0.5153793551709424
 40
0.5153793551709424
 40
0.5211944108903411
 40
0.5211944108903411
 40
0.5211944108903411
 40
0.5270094666097906
 40
0.5270094666097906
 40
0.5270094666097906
 40
0.5328245223291892
 40
0.5328245223291892
 40
0.5328245223291892
 40
0.538639578048588
 40
0.538639578048588
 40
0.538639578048588
 40
0.5444546337679868
 40
0.5444546337679868
 40
0.5444546337679868
 40
0.5502696894874363
 40
0.5502696894874363
 40
0.5502696894874363
 40
0.5560847452068348
 40
0.5560847452068348
 40
0.5560847452068348
 40
0.5618998009262336
 40
0.5618998009262336
 40
0.5618998009262336
 40
0.5677148566456831
 40
0.5677148566456831
 40
0.5677148566456831
 40
0.5735299123650819
 40
0.5735299123650819
 40
0.5735299123650819
 40
0.5793449680844804
 40
0.5793449680844804
 40
0.5793449680844804
 40
0.58516002380393
 40
0.58516002380393
 40
0.58516002380393
 40
0.5909750795233286
 40
0.5909750795233286
 40
0.5909750795233286
 40
0.5967901352427274
 40
0.5967901352427274
 40
0.5967901352427274
 40
0.6026051909621261
 40
0.6026051909621261
 40
0.6026051909621261
 40
0.6084202466815755
 40
0.6084202466815755
 40
0.6084202466815755
 40
0.6142353024009742
 40
0.6142353024009742
 40
0.6142353024009742
 40
0.620050358120373
 40
0.620050358120373
 40
0.620050358120373
 40
0.6258654138398225
 40
0.6258654138398225
 40
0.6258654138398225
 40
0.6287729416994964
 40
0.6287729416994964
 40
0.6287729416994964
 40
0.6316804695592211
 40
0.6316804695592211
 40
0.6316804695592211
 40
0.6374955252786199
 40
0.6374955252786199
 40
0.6374955252786199
 40
0.6433105809980186
 40
0.6433105809980186
 40
0.6433105809980186
 40
0.6491256367174681
 40
0.6491256367174681
 40
0.6491256367174681
 40
0.6549406924368667
 40
0.6549406924368667
 40
0.6549406924368667
 40
0.6607557481562655
 40
0.6607557481562655
 40
0.6607557481562655
 40
0.6659040855608781
 40
0.6659040855608781
 40
0.6659040855608781
 40
0.6710524229654399
 40
0.6710524229654399
 40
0.6710524229654399
 40
0.6736265916677716
 40
0.6736265916677716
 40
0.6736265916677716
 40
0.6762007603700526
 40
0.6762007603700526
 40
0.6762007603700526
 40
0.6813490977746144
 40
0.6813490977746144
 40
0.6813490977746144
 40
0.6819926399501848
 40
0.6819926399501848
 40
0.6819926399501848
 40
0.6826361821257549
 40
0.6826361821257549
 40
0.6826361821257549
 40
0.6832797243013251
 40
0.6832797243013251
 40
0.6832797243013251
 40
0.6839232664768954
 40
0.6839232664768954
 40
0.6839232664768954
 40
0.6845668086524656
 40
0.6845668086524656
 40
0.6845668086524656
 40
0.6852103508280357
 40
0.6852103508280357
 40
0.6852103508280357
 40
0.686497435179227
 40
0.686497435179227
 40
0.686497435179227
 40
0.689071603881508
 40
0.689071603881508
 40
0.689071603881508
 40
0.691645772583789
 40
0.691645772583789
 40
0.691645772583789
 40
0.6942199412860698
 40
0.6942199412860698
 40
0.6942199412860698
 40
0.6955070256372103
 40
0.6955070256372103
 40
0.6955070256372103
 40
0.6967941099883508
 40
0.6967941099883508
 40
0.6967941099883508
 40
0.6971158810761613
 40
0.6971158810761613
 40
0.6971158810761613
 40
0.6974376521639719
 40
0.6974376521639719
 40
0.6974376521639719
 40
0.6980811943395421
 40
0.6980811943395421
 40
0.6980811943395421
 40
0.6993682786906825
 40
0.6993682786906825
 40
0.6993682786906825
 40
0.6996900497784422
 40
0.6996900497784422
 40
0.6996900497784422
 40
0.6998509353223475
 40
0.6998509353223475
 40
0.6998509353223475
 40
0.7000118208662527
 40
0.7000118208662527
 40
0.7000118208662527
 40
0.7003335919540125
 40
0.7003335919540125
 40
0.7003335919540125
 40
0.7004944774979177
 40
0.7004944774979177
 40
0.7004944774979177
 40
0.7006553630418229
 40
0.7006553630418229
 40
0.7006553630418229
 40
0.7009771341295827
 40
0.7009771341295827
 40
0.7009771341295827
 40
0.7012989052173932
 40
0.7012989052173932
 40
0.7012989052173932
 40
0.7019424473929634
 40
0.7019424473929634
 40
0.7019424473929634
 40
0.7070907847975252
 40
0.7070907847975252
 40
0.7070907847975252
 40
0.7122391222021379
 40
0.7122391222021379
 40
0.7122391222021379
 40
0.7148132909044189
 40
0.7148132909044189
 40
0.7148132909044189
 40
0.7154568330799891
 40
0.7154568330799891
 40
0.7154568330799891
 40
0.7161003752555593
 40
0.7161003752555593
 40
0.7161003752555593
 40
0.7173874596066997
 40
0.7173874596066997
 40
0.7173874596066997
 40
0.7180310017822699
 40
0.7180310017822699
 40
0.7180310017822699
 40
0.7186745439578403
 40
0.7186745439578403
 40
0.7186745439578403
 40
0.7193180861334104
 40
0.7193180861334104
 40
0.7193180861334104
 40
0.7199616283089807
 40
0.7199616283089807
 40
0.7199616283089807
 40
0.7206051704846018
 40
0.7206051704846018
 40
0.7206051704846018
 40
0.721248712660121
 40
0.721248712660121
 40
0.721248712660121
 40
0.7225357970113123
 40
0.7225357970113123
 40
0.7225357970113123
 40
0.7231793391868826
 40
0.7231793391868826
 40
0.7231793391868826
 40
0.7238228813624528
 40
0.7238228813624528
 40
0.7238228813624528
 40
0.7244664235380232
 40
0.7244664235380232
 40
0.7244664235380232
 40
0.7251099657135933
 40
0.7251099657135933
 40
0.7251099657135933
 40
0.725431736801353
 40
0.725431736801353
 40
0.725431736801353
 40
0.7255926223452583
 40
0.7255926223452583
 40
0.7255926223452583
 40
0.7257535078891636
 40
0.7257535078891636
 40
0.7257535078891636
 40
0.7263970500647338
 40
0.7263970500647338
 40
0.7263970500647338
 40
0.7276841344158741
 40
0.7276841344158741
 40
0.7276841344158741
 40
0.7283276765914445
 40
0.7283276765914445
 40
0.7283276765914445
 40
0.7284081193633718
 40
0.7284081193633718
 40
0.7284081193633718
 40
0.7284885621353497
 40
0.7284885621353497
 40
0.7284885621353497
 40
0.7286494476792549
 40
0.7286494476792549
 40
0.7286494476792549
 40
0.7288103332231094
 40
0.7288103332231094
 40
0.7288103332231094
 40
0.7289712187670148
 40
0.7289712187670148
 40
0.7289712187670148
 40
0.7296147609425849
 40
0.7296147609425849
 40
0.7296147609425849
 40
0.7302583031181551
 40
0.7302583031181551
 40
0.7302583031181551
 40
0.7304191886620605
 40
0.7304191886620605
 40
0.7304191886620605
 40
0.7305800742059657
 40
0.7305800742059657
 40
0.7305800742059657
 40
0.7309018452937254
 40
0.7309018452937254
 40
0.7309018452937254
 40
0.7309822880657034
 40
0.7309822880657034
 40
0.7309822880657034
 40
0.7310627308376307
 40
0.7310627308376307
 40
0.7310627308376307
 40
0.7312236163815359
 40
0.7312236163815359
 40
0.7312236163815359
 40
0.7313845019254412
 40
0.7313845019254412
 40
0.7313845019254412
 40
0.7315453874692956
 40
0.7315453874692956
 40
0.7315453874692956
 40
0.7317062730132009
 40
0.7317062730132009
 40
0.7317062730132009
 40
0.731867158557106
 40
0.731867158557106
 40
0.731867158557106
 40
0.7321889296448659
 40
0.7321889296448659
 40
0.7321889296448659
 40
0.7322693724168439
 40
0.7322693724168439
 40
0.7322693724168439
 40
0.7323095938028328
 40
0.7323095938028328
 40
0.7323095938028328
 40
0.7323297044957766
 40
0.7323297044957766
 40
0.7323297044957766
 40
0.7323498151887711
 40
0.7323498151887711
 40
0.7323498151887711
 40
0.7324302579607492
 40
0.7324302579607492
 40
0.7324302579607492
 40
0.7325107007326764
 40
0.7325107007326764
 40
0.7325107007326764
 40
0.7326715862765817
 40
0.7326715862765817
 40
0.7326715862765817
 40
0.7326816416230788
 40
0.7326816416230788
 40
0.7326816416230788
 40
0.7326916969695761
 40
0.7326916969695761
 40
0.7326916969695761
 40
0.7327118076625199
 40
0.7327118076625199
 40
0.7327118076625199
 40
0.7327520290485089
 40
0.7327520290485089
 40
0.7327520290485089
 40
0.7327922504344978
 40
0.7327922504344978
 40
0.7327922504344978
 40
0.7327972781077465
 40
0.7327972781077465
 40
0.7327972781077465
 40
0.7328023057809951
 40
0.7328023057809951
 40
0.7328023057809951
 40
0.7328073334542436
 40
0.7328073334542436
 40
0.7328073334542436
 40
0.7328123611274924
 40
0.7328123611274924
 40
0.7328123611274924
 40
0.7328224164739897
 40
0.7328224164739897
 40
0.7328224164739897
 40
0.7328274441472383
 40
0.7328274441472383
 40
0.7328274441472383
 40
0.7328324718204868
 40
0.7328324718204868
 40
0.7328324718204868
 40
0.7379808092250488
 40
0.7379808092250488
 40
0.7379808092250488
 40
0.7405549779273296
 40
0.7405549779273296
 40
0.7405549779273296
 40
0.7431291466296106
 40
0.7431291466296106
 40
0.7431291466296106
 40
0.7496584499018628
 40
0.7496584499018628
 40
0.7496584499018628
 40
0.7561877531740643
 40
0.7561877531740643
 40
0.7561877531740643
 40
0.7627170564463167
 40
0.7627170564463167
 40
0.7627170564463167
 40
0.7692463597185183
 40
0.7692463597185183
 40
0.7692463597185183
 40
0.7725110113546444
 40
0.7725110113546444
 40
0.7725110113546444
 40
0.7757756629907705
 40
0.7757756629907705
 40
0.7757756629907705
 40
0.7823049662629721
 40
0.7823049662629721
 40
0.7823049662629721
 40
0.7888342695352243
 40
0.7888342695352243
 40
0.7888342695352243
 40
0.7953635728074259
 40
0.7953635728074259
 40
0.7953635728074259
 40
0.8018928760796783
 40
0.8018928760796783
 40
0.8018928760796783
 40
0.8084221793518798
 40
0.8084221793518798
 40
0.8084221793518798
 40
0.814951482624132
 40
0.814951482624132
 40
0.814951482624132
 40
0.8214807858963337
 40
0.8214807858963337
 40
0.8214807858963337
 40
0.8280100891685859
 40
0.8280100891685859
 40
0.8280100891685859
 40
0.8345393924407872
 40
0.8345393924407872
 40
0.8345393924407872
 40
0.8410686957130399
 40
0.8410686957130399
 40
0.8410686957130399
 40
0.8475979989852412
 40
0.8475979989852412
 40
0.8475979989852412
 40
0.8518359289629521
 40
0.8518359289629521
 40
0.8518359289629521
 40
0.8560738589406633
 40
0.8560738589406633
 40
0.8560738589406633
 40
0.8603117889184252
 40
0.8603117889184252
 40
0.8603117889184252
 40
0.8645497188961361
 40
0.8645497188961361
 40
0.8645497188961361
 40
0.868787648873847
 40
0.868787648873847
 40
0.868787648873847
 40
0.8730255788515578
 40
0.8730255788515578
 40
0.8730255788515578
 40
0.8772635088292691
 40
0.8772635088292691
 40
0.8772635088292691
 40
0.88150143880698
 40
0.88150143880698
 40
0.88150143880698
 40
0.8865211319036163
 40
0.8865211319036163
 40
0.8865211319036163
 40
0.8915408250002019
 40
0.8915408250002019
 40
0.8915408250002019
 40
0.8965605180968382
 40
0.8965605180968382
 40
0.8965605180968382
 40
0.9015802111934239
 40
0.9015802111934239
 40
0.9015802111934239
 40
0.9065999042900096
 40
0.9065999042900096
 40
0.9065999042900096
 40
0.9116195973866459
 40
0.9116195973866459
 40
0.9116195973866459
 40
0.9166392904832316
 40
0.9166392904832316
 40
0.9166392904832316
 40
0.9216589835798679
 40
0.9216589835798679
 40
0.9216589835798679
 40
0.9266786766764535
 40
0.9266786766764535
 40
0.9266786766764535
 40
0.9316983697730902
 40
0.9316983697730902
 40
0.9316983697730902
 40
0.9367180628696755
 40
0.9367180628696755
 40
0.9367180628696755
 40
0.9417377559663122
 40
0.9417377559663122
 40
0.9417377559663122
 40
0.9467574490628975
 40
0.9467574490628975
 40
0.9467574490628975
 40
0.9517771421595341
 40
0.9517771421595341
 40
0.9517771421595341
 40
0.9567968352561198
 40
0.9567968352561198
 40
0.9567968352561198
 40
0.9618165283527561
 40
0.9618165283527561
 40
0.9618165283527561
 40
0.969788413757818
 40
0.969788413757818
 40
0.969788413757818
 40
0.97776029916288
 40
0.97776029916288
 40
0.97776029916288
 40
0.9857321845679419
 40
0.9857321845679419
 40
0.9857321845679419
 40
0.9937040699730544
 40
0.9937040699730544
 40
0.9937040699730544
 40
1.0
 40
1.0
 40
1.0
 40
1.0
 10
29.46736626374684
 20
0.2772115857251105
 30
9.236248956767668e-07
 10
29.41366057529683
 20
0.28030021611810874
 30
9.222403036801552e-07
 10
29.35988546043086
 20
0.28343044650811144
 30
9.210999678543885e-07
 10
29.306041362488855
 20
0.28660300420011176
 30
9.198037673741055e-07
 10
29.235614565322862
 20
0.29075263406910956
 30
9.181042628370051e-07
 10
29.165069751794846
 20
0.29497467755211204
 30
9.161619800579501e-07
 10
29.094415967391853
 20
0.2992699986021137
 30
9.143370789388428e-07
 10
29.023762182989856
 20
0.30356531965111344
 30
9.125121778197354e-07
 10
28.95299942771186
 20
0.30793391826511396
 30
9.108046583605756e-07
 10
28.88213277529684
 20
0.31237695420711376
 30
9.090045409720915e-07
 10
28.81126612288284
 20
0.3168199901481117
 30
9.072043667401886e-07
 10
28.74029557332983
 20
0.32133746341711245
 30
9.053217127075186e-07
 10
28.669231440172837
 20
0.32593001429611235
 30
9.039466704052757e-07
 10
28.598167307016865
 20
0.3305225651771142
 30
9.025815757013333e-07
 10
28.527009590255858
 20
0.3351901936681134
 30
9.017139745992608e-07
 10
28.455756729547858
 20
0.33993453016811337
 30
9.001940384223417e-07
 10
28.384503868838863
 20
0.3446788666681133
 30
8.986741022454225e-07
 10
28.313155864180857
 20
0.349499911177114
 30
8.96491940238775e-07
 10
28.24172480039985
 20
0.3543980280791157
 30
8.945473837229656e-07
 10
28.17029373661785
 20
0.3592961449821157
 30
8.926029408939939e-07
 10
28.098779613713845
 20
0.3642713342801134
 30
8.9090610799758e-07
 10
28.027186845779852
 20
0.3693245756421124
 30
8.891971674529486e-07
 10
27.95559407784583
 20
0.3743778170031149
 30
8.874982881934557e-07
 10
27.883922664884835
 20
0.37950911043011715
 30
8.857871307554888e-07
 10
27.812176887806856
 20
0.38471938220211754
 30
8.838339340400125e-07
 10
27.740431110730867
 20
0.38992965397611457
 30
8.818807941679552e-07
 10
27.66861096953886
 20
0.39521890409511684
 30
8.796754968898313e-07
 10
27.596728352129844
 20
0.4005873221831173
 30
8.781381097833219e-07
 10
27.52484573472185
 20
0.40595574027011594
 30
8.766007795202313e-07
 10
27.45290064109585
 20
0.4114033263261163
 30
8.757214118304546e-07
 10
27.38089099248384
 20
0.4169314330291183
 30
8.743300554669986e-07
 10
27.308881343872855
 20
0.4224595397331168
 30
8.72928751505242e-07
 10
27.236807140275857
 20
0.42806816708411866
 30
8.71015458869806e-07
 10
27.164677960249833
 20
0.4337575700791181
 30
8.691603170518647e-07
 10
27.09254878022284
 20
0.4394469730741175
 30
8.67315122832224e-07
 10
27.020364623764863
 20
0.44521715171311804
 30
8.655280794300779e-07
 10
26.948130182184855
 20
0.4510687201751171
 30
8.636591815047723e-07
 10
26.875895740604847
 20
0.456920288637118
 30
8.618002880211861e-07
 10
26.80361101390085
 20
0.46285324692211915
 30
8.598495355727209e-07
 10
26.731283066147853
 20
0.46886792635211805
 30
8.580470307606447e-07
 10
26.658955118393862
 20
0.4748826057831188
 30
8.562544735468691e-07
 10
26.58658394959184
 20
0.48097900635811897
 30
8.545900982426247e-07
 10
26.514171972851855
 20
0.4871577946671195
 30
8.526041028744658e-07
 10
26.441759996111855
 20
0.49333658297612004
 30
8.506179938194691e-07
 10
26.369307211434858
 20
0.49959775901912273
 30
8.483002034154197e-07
 10
26.296826695625853
 20
0.5059409713361216
 30
8.467906127407332e-07
 10
26.22122552564585
 20
0.5125572911441214
 30
8.452081488030672e-07
 10
26.145582033441855
 20
0.519263931389121
 30
8.426546855844208e-07
 10
26.069911387653846
 20
0.5260603718711199
 30
8.404704203712754e-07
 10
25.994240741863848
 20
0.5328568123531223
 30
8.382759801861539e-07
 10
25.918542942491854
 20
0.5397430530711222
 30
8.364406198779761e-07
 10
25.842820640465845
 20
0.5467195866691235
 30
8.344443358510034e-07
 10
25.767098338440846
 20
0.5536961202661246
 30
8.324379905388923e-07
 10
25.691351533761846
 20
0.5607629467431217
 30
8.302607739096857e-07
 10
25.615588177960845
 20
0.5679199886671213
 30
8.281625696326955e-07
 10
25.53982482215885
 20
0.5750770305911246
 30
8.260643085122865e-07
 10
25.464044915231852
 20
0.5823242879631216
 30
8.240452302743506e-07
 10
25.388253463778852
 20
0.5896618566771235
 30
8.219350888793997e-07
 10
25.312462012324858
 20
0.5969994253901252
 30
8.198350087695871e-07
 10
25.236659016342855
 20
0.6044273054461229
 30
8.176439791895973e-07
 10
25.160855482255855
 20
0.6119449381351245
 30
8.160319566741236e-07
 10
25.085051948168854
 20
0.6194625708231243
 30
8.144298817569506e-07
 10
25.009247875976854
 20
0.6270699561471247
 30
8.133968663059932e-07
 10
24.933439746180852
 20
0.6347677694131235
 30
8.115929404084454e-07
 10
24.857631616385845
 20
0.6424655826811243
 30
8.097890145108977e-07
 10
24.781819428984846
 20
0.6502538238941238
 30
8.072041168816213e-07
 10
24.706018403785848
 20
0.6581312831601256
 30
8.048981499086949e-07
 10
24.63021737858685
 20
0.6660087424271257
 30
8.025922397791874e-07
 10
24.554427515587847
 20
0.6739754197481229
 30
8.005552558643103e-07
 10
24.478648862617845
 20
0.6820316393121235
 30
7.985072443261743e-07
 10
24.40287020964786
 20
0.6900878588751276
 30
7.964692940731766e-07
 10
24.327102766708848
 20
0.698233620682128
 30
7.944302637952205e-07
 10
24.251361098488857
 20
0.7064671788051271
 30
7.920800726424204e-07
 10
24.175619430268853
 20
0.7147007369281262
 30
7.897298814896203e-07
 10
24.09990353676885
 20
0.7230220913671275
 30
7.870684726185573e-07
 10
24.02420445906985
 20
0.7314329973301277
 30
7.852061116864206e-07
 10
23.94850538137085
 20
0.739843903294128
 30
7.833436939108651e-07
 10
23.872823119472855
 20
0.7483443607811271
 30
7.822802672308171e-07
 10
23.797206405859853
 20
0.7569274650531295
 30
7.805751920386683e-07
 10
23.721589692247846
 20
0.7655105693251283
 30
7.788800644448202e-07
 10
23.646038526919853
 20
0.7741763203821268
 30
7.765332838971517e-07
 10
23.570447369416854
 20
0.7829391427541292
 30
7.742661978227261e-07
 10
23.494856211912847
 20
0.7917019651251298
 30
7.71989107306581e-07
 10
23.419225062231845
 20
0.800561858811129
 30
7.697918249505165e-07
 10
23.34382247176285
 20
0.8094825039101288
 30
7.67500580423075e-07
 10
23.268419881294847
 20
0.8184031490091286
 30
7.651993314539141e-07
 10
23.19324585003885
 20
0.8273845455191307
 30
7.62804177156795e-07
 10
23.117712781719845
 20
0.8365056640891311
 30
7.605631253682077e-07
 10
23.042179713399847
 20
0.8456267826571331
 30
7.583319643345021e-07
 10
22.966287608018845
 20
0.8548876232831315
 30
7.562648534076288e-07
 10
22.891559945356846
 20
0.8640825834351329
 30
7.538012027907826e-07
 10
22.816832282694847
 20
0.8732775435861324
 30
7.513275477322168e-07
 10
22.743269062753853
 20
0.8824066232631314
 30
7.48457352983678e-07
 10
22.66281411571785
 20
0.892554367647131
 30
7.464888085451094e-07
 10
22.571824552025845
 20
0.9040308382431341
 30
7.442627634191012e-07
 10
22.480913487490852
 20
0.9156198754751337
 30
7.403779704873159e-07
 10
22.390259333943845
 20
0.9272970866941321
 30
7.371520496235462e-07
 10
22.299605180396853
 20
0.9389742979121323
 30
7.339361900449148e-07
 10
22.209207937840844
 20
0.9507396831171366
 30
7.313891501325998e-07
 10
22.11903172241685
 20
0.9625965991791325
 30
7.283212539732631e-07
 10
22.028855506994844
 20
0.9744535152421321
 30
7.252634190990648e-07
 10
21.938900318704853
 20
0.986401962161132
 30
7.216847848212637e-07
 10
21.849186696258855
 20
0.9984384000541358
 30
7.187249480011815e-07
 10
21.759473073811847
 20
1.010474837945134
 30
7.157651680245181e-07
 10
21.670001017207852
 20
1.0225992668101345
 30
7.134241855055734e-07
 10
21.58076975940685
 20
1.0348107969361369
 30
7.12182043116627e-07
 10
21.536154130506844
 20
1.0409165620001364
 30
7.115509674804343e-07
 10
21.491598701306856
 20
1.0470441023791341
 30
7.112020057320478e-07
 10
21.447101440142845
 20
1.0531933913021359
 30
7.106153248059854e-07
 10
21.402604178978848
 20
1.059342680225134
 30
7.100185825947847e-07
 10
21.358165085848853
 20
1.0655137176921379
 30
7.091940119607898e-07
 10
21.313783422243844
 20
1.0717064112531354
 30
7.079717079250258e-07
 10
21.22502009503485
 20
1.0840917983751375
 30
7.055270430100791e-07
 10
21.13648648592185
 20
1.096563809872137
 30
7.014909897407051e-07
 10
21.048196407656846
 20
1.109120115536136
 30
6.981434808039921e-07
 10
20.95990632939285
 20
1.1216764212001404
 30
6.948060331524175e-07
 10
20.871859781975857
 20
1.1343170210321372
 30
6.921569024598284e-07
 10
20.784050595197854
 20
1.1470410797451382
 30
6.885962875458063e-07
 10
20.69624140841985
 20
1.1597651384591376
 30
6.850356726317841e-07
 10
20.60866958228185
 20
1.1725726560551415
 30
6.805634029660723e-07
 10
20.521352133012854
 20
1.18546110597714
 30
6.783292292311671e-07
 10
20.461374238923852
 20
1.1943141140641416
 30
6.767925810891029e-07
 10
20.401507478999847
 20
1.203205978221142
 30
6.748797432010178e-07
 10
20.341755232687845
 20
1.2121360123311398
 30
6.731807502546872e-07
 10
20.282002986375858
 20
1.221066046441143
 30
6.714817004649376e-07
 10
20.222365253672848
 20
1.2300342505051436
 30
6.699966093037801e-07
 10
20.162841055799845
 20
1.2390402442161434
 30
6.683952733510523e-07
 10
20.103316857926856
 20
1.2480462379281416
 30
6.66803941840044e-07
 10
20.043906194881856
 20
1.2570900212871425
 30
6.650863610957458e-07
 10
19.98461034081585
 20
1.2661710517181408
 30
6.634126066273893e-07
 10
19.925314486748846
 20
1.275252082150141
 30
6.617388521590328e-07
 10
19.86613344165785
 20
1.2843703596541438
 30
6.600887445529224e-07
 10
19.807067455191856
 20
1.293525411592146
 30
6.584124321307172e-07
 10
19.74800146872485
 20
1.3026804635301446
 30
6.567460104633938e-07
 10
19.689050540879848
 20
1.311872289901146
 30
6.550334319399553e-07
 10
19.630215373636858
 20
1.3211003834231416
 30
6.533343821502058e-07
 10
19.57138020639485
 20
1.3303284769471428
 30
6.516253847621556e-07
 10
19.512660799753846
 20
1.3395928376191417
 30
6.49910020911193e-07
 10
19.45405764654285
 20
1.348892970407146
 30
6.481882337538991e-07
 10
19.395454493331854
 20
1.3581931031951449
 30
6.464565558417235e-07
 10
19.336967593550852
 20
1.3675290080961453
 30
6.447183977797977e-07
 10
19.278597529803847
 20
1.3769001812061425
 30
6.429638119698211e-07
 10
19.220227466055846
 20
1.3862713543171452
 30
6.412191737581452e-07
 10
19.16197423834285
 20
1.3956777956361428
 30
6.394581077984185e-07
 10
19.103838377517846
 20
1.4051190023981466
 30
6.376805572472222e-07
 10
19.04570251669385
 20
1.4145602091611469
 30
6.35902949852607e-07
 10
18.987684022757847
 20
1.4240361813671445
 30
6.341189191516605e-07
 10
18.929783456017844
 20
1.4335464118061463
 30
6.323182901724067e-07
 10
18.87188288927885
 20
1.4430566422441462
 30
6.305177180365718e-07
 10
18.814100249736853
 20
1.452601130916145
 30
6.287104952207301e-07
 10
18.756436050406847
 20
1.4621793713461475
 30
6.268867309699999e-07
 10
18.698771851076856
 20
1.4717576117761482
 30
6.250530191209691e-07
 10
18.641226091960846
 20
1.4813696039661473
 30
6.232125997485127e-07
 10
18.58379936591085
 20
1.491014833951148
 30
6.213655865394685e-07
 10
18.526372639860853
 20
1.5006600639361487
 30
6.19528464085306e-07
 10
18.469064946876856
 20
1.5103385317171494
 30
6.17674857039674e-07
 10
18.41187663867585
 20
1.5200497348441466
 30
6.157744678603194e-07
 10
18.354688330474858
 20
1.5297609379731494
 30
6.13874021837546e-07
 10
18.297619407055848
 20
1.5395048764491488
 30
6.119269642113068e-07
 10
18.240672133613856
 20
1.549280968710148
 30
6.104831413722422e-07
 10
18.183724860170855
 20
1.5590570609721492
 30
6.090292004046205e-07
 10
18.126899236707857
 20
1.5688653070181484
 30
6.080886123527307e-07
 10
18.070192135314855
 20
1.5787053190651488
 30
6.064411763873068e-07
 10
18.013485033922848
 20
1.588545331113151
 30
6.047937404218828e-07
 10
17.956896454602855
 20
1.5984171091601524
 30
6.024395133863436e-07
 10
17.900429743241858
 20
1.6083200373451518
 30
6.003184580549714e-07
 10
17.84396303188285
 20
1.6182229655301512
 30
5.98207293478481e-07
 10
17.787618188484856
 20
1.6281570438501518
 30
5.96319353007857e-07
 10
17.731394896985847
 20
1.6381217920701516
 30
5.944445433669898e-07
 10
17.675171605487847
 20
1.6480865402911498
 30
5.925596155975654e-07
 10
17.619069865888846
 20
1.6580819584111541
 30
5.906778142161784e-07
 10
17.56308961416285
 20
1.6681075142861541
 30
5.884891152163618e-07
 10
17.507109362437845
 20
1.6781330701631525
 30
5.863103069714271e-07
 10
17.451250598586853
 20
1.6881887637941517
 30
5.838346055497823e-07
 10
17.39551621685085
 20
1.698274059539152
 30
5.821018476126483e-07
 10
17.339781835113854
 20
1.708359355284152
 30
5.803591420772136e-07
 10
17.28417183549385
 20
1.718474253140153
 30
5.793693844680092e-07
 10
17.228683661798854
 20
1.7286182402971537
 30
5.777725391453714e-07
 10
17.173195488104852
 20
1.7387622274541545
 30
5.761756938227336e-07
 10
17.117829140337847
 20
1.7489353039121536
 30
5.739918265135202e-07
 10
17.062586501471856
 20
1.759136944077154
 30
5.718308102586889e-07
 10
17.00734386260585
 20
1.7693385842411526
 30
5.69679798445577e-07
 10
16.952224932640846
 20
1.7795687881131563
 30
5.675616421285667e-07
 10
16.897230093832846
 20
1.789827023247156
 30
5.654063102156215e-07
 10
16.842235255025855
 20
1.800085258382154
 30
5.632609827443957e-07
 10
16.787364507375855
 20
1.810371524778155
 30
5.61078479677235e-07
 10
16.732618369499846
 20
1.8206852936301559
 30
5.588987619375985e-07
 10
16.67787223162385
 20
1.8309990624831567
 30
5.567090397562424e-07
 10
16.623250703522856
 20
1.8413403337921554
 30
5.545120416172722e-07
 10
16.568754252445856
 20
1.851708575278158
 30
5.522978199223871e-07
 10
16.51425780136985
 20
1.8620768167651551
 30
5.500835982275021e-07
 10
16.459886427317855
 20
1.8724720284281577
 30
5.47842034848145e-07
 10
16.405640624797854
 20
1.8828936759921557
 30
5.455931386677548e-07
 10
16.351394822276845
 20
1.893315323556159
 30
5.43354303772503e-07
 10
16.297274591288854
 20
1.9037634070181575
 30
5.410880703493604e-07
 10
16.243280382141847
 20
1.914237393741157
 30
5.388044996834651e-07
 10
16.189286172994855
 20
1.9247113804631582
 30
5.365308766158705e-07
 10
16.13541798569085
 20
1.9352112704441602
 30
5.342299118638039e-07
 10
16.081676341516854
 20
1.9457365216221607
 30
5.31911496182147e-07
 10
16.02793469734185
 20
1.9562617727991611
 30
5.296030849422095e-07
 10
15.974319596298855
 20
1.9668123851731618
 30
5.272872272144014e-07
 10
15.920831392595858
 20
1.9773878335271586
 30
5.24933852830145e-07
 10
15.867343188893855
 20
1.987963281881159
 30
5.225804216024699e-07
 10
15.813981882531849
 20
1.9985635662161627
 30
5.201895305617654e-07
 10
15.760748184939857
 20
2.009188118847163
 30
5.178311539566494e-07
 10
15.707514487346856
 20
2.0198126714781637
 30
5.154727773515333e-07
 10
15.654408398520857
 20
2.030461492405161
 30
5.131367402100295e-07
 10
15.601429816244845
 20
2.0411341048331604
 30
5.106831508783216e-07
 10
15.548451233968848
 20
2.05180671726116
 30
5.082295615466137e-07
 10
15.495600158241857
 20
2.0625031211911633
 30
5.056584200247016e-07
 10
15.442878306172858
 20
2.0732226296801635
 30
5.032995886722347e-07
 10
15.390156454104854
 20
2.083942138170162
 30
5.0094064363293e-07
 10
15.337563825693849
 20
2.0946847512211626
 30
4.98794179293327e-07
 10
15.285097750917856
 20
2.1054503055671603
 30
4.960899673278618e-07
 10
15.232631676140855
 20
2.116215859914165
 30
4.933757509206771e-07
 10
15.180292154997858
 20
2.1270043555561653
 30
4.90103843731049e-07
 10
15.128093862308845
 20
2.137813009042164
 30
4.886139777227072e-07
 10
15.101727409279846
 20
2.143272686740163
 30
4.878696131527249e-07
 10
15.075350828174848
 20
2.1487477153801624
 30
4.87086708744755e-07
 10
15.04906020245285
 20
2.154216405672164
 30
4.8643329364495e-07
 10
15.022769576728848
 20
2.1596850959651643
 30
4.857897693000268e-07
 10
14.996564906387846
 20
2.165147447911165
 30
4.852756205764308e-07
 10
14.970263842675848
 20
2.170644367381165
 30
4.843849410463008e-07
 10
14.917661715251853
 20
2.181638206321164
 30
4.825936343877402e-07
 10
14.86467401434085
 20
2.1927703153571656
 30
4.792761956196046e-07
 10
14.811161822535851
 20
2.2040764651951648
 30
4.76416118999623e-07
 10
14.757649630730853
 20
2.215382615033164
 30
4.7356604682136094e-07
 10
14.703612948029857
 20
2.226862805673166
 30
4.711733936346718e-07
 10
14.649145519700852
 20
2.238499003128167
 30
4.684864052251214e-07
 10
14.594678091371847
 20
2.250135200582166
 30
4.6580936441387166e-07
 10
14.539779917413853
 20
2.2619274048501676
 30
4.6283798837976065e-07
 10
14.484456266074858
 20
2.273877898380169
 30
4.6011240328880376e-07
 10
14.429132614735849
 20
2.2858283919111706
 30
4.573868181978469e-07
 10
14.373383486014845
 20
2.2979371747051687
 30
4.548970764517435e-07
 10
14.317252679074855
 20
2.310197164945169
 30
4.5193252162789577e-07
 10
14.261121872133856
 20
2.322457155186168
 30
4.4897797124576755e-07
 10
14.204609386975847
 20
2.334868352874169
 30
4.455484940990573e-07
 10
14.147741929877839
 20
2.3474283268101725
 30
4.4354396777634975e-07
 10
14.119308201328835
 20
2.3537083137781725
 30
4.42541704614996e-07
 10
14.090785729794845
 20
2.3600254948081716
 30
4.41893178049213e-07
 10
14.062179003869844
 20
2.3663790618911715
 30
4.412582370605378e-07
 10
14.033572277944842
 20
2.37273262897517
 30
4.4062335291528143e-07
 10
14.004881297627847
 20
2.3791225821111706
 30
4.3999210674883216e-07
 10
13.976109279288835
 20
2.3855483738121706
 30
4.389544301375281e-07
 10
13.918565242607855
 20
2.398399957215169
 30
4.3687907691492e-07
 10
13.860697053830847
 20
2.411394894876169
 30
4.331581067162915e-07
 10
13.80253775293184
 20
2.4245290352711724
 30
4.3009106320823776e-07
 10
13.744378452031839
 20
2.437663175668172
 30
4.27024019700184e-07
 10
13.685928039008843
 20
2.4509365187991694
 30
4.2461095972612384e-07
 10
13.627215898286835
 20
2.4643441762691722
 30
4.2148133161390433e-07
 10
13.56850375756484
 20
2.4777518337401716
 30
4.1834164221654646e-07
 10
13.509529889144844
 20
2.491293805551173
 30
4.1449550280958647e-07
 10
13.450325660782852
 20
2.5049657066531736
 30
4.118522838325589e-07
 10
13.391121432419851
 20
2.5186376077561743
 30
4.0920917854236905e-07
 10
13.331686844115836
 20
2.532439438152176
 30
4.077890025655506e-07
 10
13.272050249173844
 20
2.546365820947175
 30
4.054313080814609e-07
 10
13.212413654232847
 20
2.5602922037431757
 30
4.030636659990705e-07
 10
13.152575052653845
 20
2.5743431389391773
 30
3.9976850985112833e-07
 10
13.092564199695843
 20
2.5885137949961745
 30
3.9655526506976457e-07
 10
13.032553346736847
 20
2.6026844510531753
 30
3.933320726901002e-07
 10
12.972370242398853
 20
2.616974827970175
 30
3.901909053638519e-07
 10
12.912043524592846
 20
2.631379709816178
 30
3.8699118931617704e-07
 10
12.851716806787834
 20
2.645784591663178
 30
3.8379147326850216e-07
 10
12.791246475515834
 20
2.660303978437179
 30
3.8054321294112015e-07
 10
12.730660746857836
 20
2.6749325608691787
 30
3.7727591006841976e-07
 10
12.670075018200848
 20
2.68956114330118
 30
3.740186116374389e-07
 10
12.609373892159851
 20
2.7042989213871813
 30
3.7074227066113963e-07
 10
12.54858502432785
 20
2.7191404430521793
 30
3.674363142636139e-07
 10
12.487796156495847
 20
2.733981964717181
 30
3.6414036230780766e-07
 10
12.426919546874842
 20
2.748927229959179
 30
3.608048473324743e-07
 10
12.365982311663842
 20
2.76397066733918
 30
3.5744915294344537e-07
 10
12.305045076451847
 20
2.779014104719181
 30
3.5410346299613593e-07
 10
12.244047215651847
 20
2.7941557142361813
 30
3.507275891934114e-07
 10
12.183015272368834
 20
2.809389802698183
 30
3.4732101994450204e-07
 10
12.121983329086845
 20
2.824623891158181
 30
3.439243982938933e-07
 10
12.060917303323848
 20
2.839950458563182
 30
3.404971380405186e-07
 10
11.99984314254084
 20
2.8553636939641827
 30
3.370485615050711e-07
 10
11.938768981756851
 20
2.8707769293661833
 30
3.335898668410664e-07
 10
11.877686685953847
 20
2.8862768327651835
 30
3.301099695818266e-07
 10
11.816621614140843
 20
2.901857491140186
 30
3.266181920480449e-07
 10
11.755556542328847
 20
2.917438149516185
 30
3.231263576708443e-07
 10
11.694508694509835
 20
2.933099562867186
 30
3.196226430191018e-07
 10
11.633502755984836
 20
2.948835686765184
 30
3.160164396831533e-07
 10
11.572496817460845
 20
2.964571810664186
 30
3.124202407889243e-07
 10
11.511532788231847
 20
2.980382645108186
 30
3.087216100539081e-07
 10
11.450634990047845
 20
2.996262349681185
 30
3.0597971090173814e-07
 10
11.389737191863844
 20
3.0121420542541877
 30
3.0323792543640593e-07
 10
11.328905624723845
 20
3.0280906289561873
 30
3.014430944858759e-07
 10
11.268163274951846
 20
3.044101246791188
 30
2.983144895551959e-07
 10
11.207420925179846
 20
3.06011186462519
 30
2.9517582333937753e-07
 10
11.146767792773844
 20
3.0761845255931917
 30
2.9069337870168965e-07
 10
11.086226977692846
 20
3.092313429163191
 30
2.86686599793029e-07
 10
11.025686162611834
 20
3.108442332734187
 30
2.8266987328606774e-07
 10
10.965257664856836
 20
3.124627478907188
 30
2.791388169498532e-07
 10
10.904963432311845
 20
3.1408623647141916
 30
2.755426180556242e-07
 10
10.844669199765846
 20
3.1570972505201915
 30
2.719365284065134e-07
 10
10.78450923243085
 20
3.1733818759591905
 30
2.6828541876966483e-07
 10
10.724504977341837
 20
3.1897096849321915
 30
2.6415864340378903e-07
 10
10.664500722251844
 20
3.2060374939041925
 30
2.600319248813321e-07
 10
10.60465217940785
 20
3.222408486411192
 30
2.5543948822814855e-07
 10
10.544980085575844
 20
3.238816854020193
 30
2.5271089043599204e-07
 10
10.515144038658846
 20
3.2470210378241937
 30
2.513515369173547e-07
 10
10.485352103995837
 20
3.2552345654031924
 30
2.5045318352567847e-07
 10
10.455606773715843
 20
3.263456487832194
 30
2.495556259418663e-07
 10
10.425861443434854
 20
3.2716784102611953
 30
2.486681296431925e-07
 10
10.396162717538843
 20
3.2799087275411942
 30
2.477913767506834e-07
 10
10.36651310618484
 20
3.288146460714195
 30
2.4638546847199905e-07
 10
10.307213883477843
 20
3.304621927063197
 30
2.435635337860731e-07
 10
10.248111118943854
 20
3.3211270569921947
 30
2.3861474574005115e-07
 10
10.189224026144842
 20
3.337656102619194
 30
2.3431817908203811e-07
 10
10.130336933347849
 20
3.354185148248199
 30
2.300217261108628e-07
 10
10.071665512284852
 20
3.3707381095751963
 30
2.2636771745965234e-07
 10
10.013228385987844
 20
3.387308053747198
 30
2.2226532792046783e-07
 10
9.954791259689841
 20
3.4038779979191975
 30
2.1816305206812103e-07
 10
9.896588428157841
 20
3.4204649249361996
 30
2.136223997695197e-07
 10
9.838637656375852
 20
3.4370624805371985
 30
2.0951290480297757e-07
 10
9.780686884594843
 20
3.453660036138201
 30
2.054133574347361e-07
 10
9.72298817256285
 20
3.4702682203252007
 30
2.0173496295683435e-07
 10
9.66555881502785
 20
3.486879984773198
 30
1.971769165720616e-07
 10
9.60812945749285
 20
3.5034917492221993
 30
1.9261887018728885e-07
 10
9.550969454454844
 20
3.520107093933202
 30
1.8718111505222623e-07
 10
9.494094762447844
 20
3.536720350078202
 30
1.839333094721951e-07
 10
9.443740970780851
 20
3.5514288330492008
 30
1.810548724279215e-07
 10
9.393612081183846
 20
3.5661346892692034
 30
1.7718616618367378e-07
 10
9.343718867087844
 20
3.580833662515202
 30
1.7340681779387523e-07
 10
9.293825652991842
 20
3.5955326357622024
 30
1.696274694040767e-07
 10
9.244168114394853
 20
3.610224726036204
 30
1.6592747442700784e-07
 10
9.194756470545855
 20
3.624905704999204
 30
1.6342642084055115e-07
 10
9.170050648620844
 20
3.6322461944792046
 30
1.6217080656133476e-07
 10
9.145406300383854
 20
3.639583906133204
 30
1.6120503687488963e-07
 10
9.120824676025848
 20
3.646918257575205
 30
1.604988710823818e-07
 10
9.096243051669845
 20
3.654252609017206
 30
1.598027097315935e-07
 10
9.071724151193848
 20
3.661583600247205
 30
1.5934614339130349e-07
 10
9.047269515906834
 20
3.668910261667204
 30
1.5792926433277898e-07
 10
8.998360245331838
 20
3.6835635845052064
 30
1.5509544937231112e-07
 10
8.949708035511847
 20
3.6981995880972054
 30
1.483899154663959e-07
 10
8.901320176763846
 20
3.7128167679502067
 30
1.4711247331433697e-07
 10
8.895271694420842
 20
3.714643915431205
 30
1.4695530126118683e-07
 10
8.889227342561838
 20
3.716470768792208
 30
1.46878051054955e-07
 10
8.88318715608085
 20
3.7182972961122065
 30
1.4681080529044266e-07
 10
8.877146969599835
 20
3.7201238234342053
 30
1.4675350712423096e-07
 10
8.87111094849584
 20
3.7219500247162056
 30
1.467063270865765e-07
 10
8.865079116845834
 20
3.7237758836442065
 30
1.4664897207694594e-07
 10
8.859047285196851
 20
3.7256017425722074
 30
1.4660167835245375e-07
 10
8.853019643000835
 20
3.7274272591462054
 30
1.465343189011037e-07
 10
8.846996205682842
 20
3.7292524280292074
 30
1.4647696389147313e-07
 10
8.84097276836684
 20
3.7310775969132077
 30
1.4640966128354194e-07
 10
8.834953535926843
 20
3.732902418106205
 30
1.4635224943049252e-07
 10
8.828938526148846
 20
3.7347268821912056
 30
1.4629472389060538e-07
 10
8.82292351637085
 20
3.7365513462762063
 30
1.462372551941371e-07
 10
8.816912729252834
 20
3.7383754532542053
 30
1.4617978649766883e-07
 10
8.810906179624851
 20
3.7401991979062057
 30
1.4613232224292005e-07
 10
8.80489962999485
 20
3.742022942556206
 30
1.4608480114475242e-07
 10
8.798897317855847
 20
3.7438463248812077
 30
1.4604728448830429e-07
 10
8.792899274925844
 20
3.745669322015207
 30
1.4597958397644106e-07
 10
8.780903189065839
 20
3.749315316285209
 30
1.4584446716980892e-07
 10
8.768924180043854
 20
3.752959769799208
 30
1.4558912653228617e-07
 10
8.75696239408785
 20
3.756602610773207
 30
1.4521367575071054e-07
 10
8.733038822171835
 20
3.763888292722207
 30
1.444527129024209e-07
 10
8.709184142516847
 20
3.7711675245152065
 30
1.432110252608254e-07
 10
8.685399175902845
 20
3.778439985779208
 30
1.4216874433259363e-07
 10
8.661614209288842
 20
3.785712447044208
 30
1.41126406560943e-07
 10
8.637898955717844
 20
3.79297813777821
 30
1.4029347994437558e-07
 10
8.614254679352854
 20
3.8002363372742067
 30
1.391996988786559e-07
 10
8.590610402988844
 20
3.807494536769207
 30
1.381059746563551e-07
 10
8.567037103830842
 20
3.8147452450262076
 30
1.3676157095687813e-07
 10
8.543535435210842
 20
3.821988222873209
 30
1.3606626225737273e-07
 10
8.531784600900835
 20
3.825609711796208
 30
1.3571860790762003e-07
 10
8.52005167422584
 20
3.8292292681182083
 30
1.3553079725170392e-07
 10
8.508336897546855
 20
3.8328467301772093
 30
1.3524282849175506e-07
 10
8.496622120866846
 20
3.836464192238207
 30
1.349648641735257e-07
 10
8.484925494182846
 20
3.8400795600392073
 30
1.3458657122100703e-07
 10
8.473246981638852
 20
3.8436928903692085
 30
1.3445816193780047e-07
 10
8.470327353502853
 20
3.844596222951207
 30
1.3442848967315513e-07
 10
8.467408857499834
 20
3.845499428192209
 30
1.34408935537067e-07
 10
8.464491504295836
 20
3.8464024983482084
 30
1.3439932899927953e-07
 10
8.461574151092847
 20
3.847305568506208
 30
1.3437971801977255e-07
 10
8.458657940687843
 20
3.8482085035802065
 30
1.34359936510009e-07
 10
8.455742873659844
 20
3.8491113033682076
 30
1.343303210887825e-07
 10
8.449912739602837
 20
3.8509169029422097
 30
1.342910422863497e-07
 10
8.444087179047841
 20
3.852721961369209
 30
1.3425164979707915e-07
 10
8.438266241724847
 20
3.8545264460532067
 30
1.341422262157721e-07
 10
8.426624367080848
 20
3.8581354154232095
 30
1.3392332220973913e-07
 10
8.41500098536585
 20
3.8617420898232098
 30
1.3343418459044187e-07
 10
8.403395906644846
 20
3.865346622084207
 30
1.3329497505765175e-07
 10
8.40049463696485
 20
3.8662477551492067
 30
1.3325507097761147e-07
 10
8.397594511220845
 20
3.867148754330209
 30
1.332452939095674e-07
 10
8.394695540950835
 20
3.868049611688207
 30
1.332354599981045e-07
 10
8.393246055814842
 20
3.868500040367209
 30
1.332305146206636e-07
 10
8.391796859547838
 20
3.868950433589209
 30
1.3322562608664157e-07
 10
8.390347952166849
 20
3.869400791371209
 30
1.3322062386578182e-07
 10
8.388899044784836
 20
3.8698511491522076
 30
1.3321567848834093e-07
 10
8.387450426289845
 20
3.8703014714942086
 30
1.332107899543189e-07
 10
8.386002099478844
 20
3.8707517565472074
 30
1.3320578773345915e-07
 10
8.383105445857836
 20
3.8716523266522067
 30
1.3319595382199623e-07
 10
8.380209958973836
 20
3.8725527476012083
 30
1.3316605418367544e-07
 10
8.377315625277845
 20
3.873453028591207
 30
1.331461021436553e-07
 10
8.375868458429835
 20
3.8739031690872068
 30
1.331411567662144e-07
 10
8.374421579878842
 20
3.8743532745922096
 30
1.3313615454535466e-07
 10
8.372974991505842
 20
3.8748033438452083
 30
1.3313126601133263e-07
 10
8.371528403132842
 20
3.875253413099209
 30
1.3313626823219238e-07
 10
8.370082104938845
 20
3.875703446100207
 30
1.331313228547515e-07
 10
8.368636099863835
 20
3.8761534410612093
 30
1.331263774773106e-07
 10
8.365744089713843
 20
3.8770534309852067
 30
1.331063685938716e-07
 10
8.36285325204284
 20
3.877953268752208
 30
1.330764689555508e-07
 10
8.359963569623844
 20
3.878852965053209
 30
1.3305651691553066e-07
 10
8.357073887205843
 20
3.879752661354207
 30
1.3304651247381116e-07
 10
8.35418536003884
 20
3.8806522161892083
 30
1.3303656487551052e-07
 10
8.35129801529385
 20
3.8815516130372067
 30
1.3301649914865266e-07
 10
8.345523325802844
 20
3.883350406734209
 30
1.329565293417545e-07
 10
8.339753365999854
 20
3.885148568482208
 30
1.3279645827424247e-07
 10
8.333988131896845
 20
3.886946101499209
 30
1.3256635611469392e-07
 10
8.28786625906585
 20
3.901326365637207
 30
1.3069535498289042e-07
 10
8.242046831009844
 20
3.9156663909672087
 30
1.2412033356667962e-07
 10
8.196533876516838
 20
3.9299638641372088
 30
1.1833105872938177e-07
 10
8.151020922024841
 20
3.944261337309211
 30
1.1254172704866505e-07
 10
8.10581444109684
 20
3.958516258321211
 30
1.0753825563369901e-07
 10
8.060921021988847
 20
3.972724505373211
 30
1.0384013648945256e-07
 10
8.038474312435852
 20
3.9798286289002114
 30
1.0198101563219097e-07
 10
8.016105868336837
 20
3.9869210839362133
 30
1.0046079523817752e-07
 10
7.993816134275846
 20
3.9940015600472147
 30
9.983926929635345e-08
 10
7.988243700759853
 20
3.9957716790752134
 30
9.96864741864556e-08
 10
7.982676186620836
 20
3.9975410494192136
 30
9.959353519661818e-08
 10
7.977113616470845
 20
3.9993096555112135
 30
9.95405571302399e-08
 10
7.971551046319846
 20
4.001078261602215
 30
9.947751777872327e-08
 10
7.965993420156849
 20
4.0028461034402145
 30
9.945443935066578e-08
 10
7.960440834078838
 20
4.004613124955215
 30
9.935126854543341e-08
 10
7.9493356619248345
 20
4.0081471679852125
 30
9.913492249324918e-08
 10
7.938250650114838
 20
4.011677929725215
 30
9.856825045062578e-08
 10
7.927185454081837
 20
4.015205596515214
 30
9.832132263909443e-08
 10
7.9216528560648385
 20
4.016969429910214
 30
9.81978018899099e-08
 10
7.916125211993844
 20
4.018732489567215
 30
9.814425538934302e-08
 10
7.910602604086847
 20
4.020494727549215
 30
9.807058631849941e-08
 10
7.905079996180845
 20
4.022256965529214
 30
9.799697409107466e-08
 10
7.899562424440845
 20
4.024018381834212
 30
9.790323929337319e-08
 10
7.894049877934847
 20
4.025778981434213
 30
9.7809390808834e-08
 10
7.888537331429845
 20
4.027539581034214
 30
9.77155423242948e-08
 10
7.883029810158845
 20
4.029299363931214
 30
9.764164587977575e-08
 10
7.877527332604842
 20
4.031058318103215
 30
9.755768815011834e-08
 10
7.872024855052842
 20
4.032817272276214
 30
9.747373042046092e-08
 10
7.866527421215835
 20
4.034575397726213
 30
9.738965900396579e-08
 10
7.861035048721845
 20
4.036332683427213
 30
9.729552630233229e-08
 10
7.8555426762278415
 20
4.038089969129212
 30
9.720139360069879e-08
 10
7.850055365075846
 20
4.039846415082215
 30
9.710714721222757e-08
 10
7.8445731051858445
 20
4.041602024699214
 30
9.7022848422057e-08
 10
7.839090845294834
 20
4.043357634315212
 30
9.694849723018706e-08
 10
7.833613636665845
 20
4.045112407597214
 30
9.689415492175613e-08
 10
7.828141561808849
 20
4.046866298778214
 30
9.675972023615032e-08
 10
7.817197412093847
 20
4.050374081141213
 30
9.650068477640161e-08
 10
7.806273797460847
 20
4.053878335108214
 30
9.594134553481126e-08
 10
7.79537037303885
 20
4.057379228023214
 30
9.567173719915445e-08
 10
7.789918660827851
 20
4.059129674481214
 30
9.554696589475498e-08
 10
7.784471996169842
 20
4.060879280677215
 30
9.549199830871657e-08
 10
7.779030464195841
 20
4.062627999453214
 30
9.54069605541008e-08
 10
7.7735889322208465
 20
4.064376718229214
 30
9.532203648632276e-08
 10
7.768152532929847
 20
4.066124549586215
 30
9.521693300484912e-08
 10
7.762721248274843
 20
4.067871500944213
 30
9.512177712167613e-08
 10
7.757289963618845
 20
4.069618452302214
 30
9.502662123850314e-08
 10
7.751863793600847
 20
4.071364523663215
 30
9.495136055193143e-08
 10
7.74644277317185
 20
4.073109694570215
 30
9.485603413850185e-08
 10
7.741021752741844
 20
4.074854865476214
 30
9.476065088165342e-08
 10
7.735605881900852
 20
4.076599135929213
 30
9.464520189794712e-08
 10
7.730195125187834
 20
4.078342521941215
 30
9.45796614360006e-08
 10
7.72748974683185
 20
4.079214214947212
 30
9.454691962673678e-08
 10
7.724785647005845
 20
4.080085686843214
 30
9.45241254157736e-08
 10
7.722082828567835
 20
4.080956935793212
 30
9.451133564652991e-08
 10
7.720731419348851
 20
4.081392560269213
 30
9.449490789847914e-08
 10
7.719380330475843
 20
4.081828129009212
 30
9.449848903386737e-08
 10
7.718029565190847
 20
4.082263640344214
 30
9.44920657275361e-08
 10
7.71667879990585
 20
4.082699151679213
 30
9.447563797948533e-08
 10
7.715328358207842
 20
4.083134605612214
 30
9.446921467315406e-08
 10
7.713978240889844
 20
4.083570001690214
 30
9.446279136682278e-08
 10
7.708577771617854
 20
4.0853115860002145
 30
9.44170892580587e-08
 10
7.7031824924228545
 20
4.087052244633215
 30
9.434126013729838e-08
 10
7.697792436852836
 20
4.088791958544215
 30
9.418539548278204e-08
 10
7.687012325713852
 20
4.092271386365214
 30
9.389367505718837e-08
 10
7.676253109071837
 20
4.095747035295213
 30
9.333143680123612e-08
 10
7.665514450253852
 20
4.099219052126216
 30
9.30289161260589e-08
 10
7.660145120844845
 20
4.100955060542216
 30
9.287259672419168e-08
 10
7.654780930890837
 20
4.102690160933214
 30
9.278630841436097e-08
 10
7.649421901492843
 20
4.104424339813214
 30
9.27598762245907e-08
 10
7.648752022816836
 20
4.104641112174214
 30
9.275152024201816e-08
 10
7.648082224775834
 20
4.104857870135216
 30
9.274322110286448e-08
 10
7.647412506844844
 20
4.105074613953214
 30
9.27449264054303e-08
 10
7.646742788913855
 20
4.1052913577722165
 30
9.274663170799613e-08
 10
7.64607315109285
 20
4.105508087448214
 30
9.273833256884245e-08
 10
7.645403595672846
 20
4.105724801848215
 30
9.273998102798942e-08
 10
7.644064484833848
 20
4.106158230648216
 30
9.27333303479827e-08
 10
7.642725703599837
 20
4.106591598344217
 30
9.272673651139485e-08
 10
7.641387246209845
 20
4.1070249077102154
 30
9.272008583138813e-08
 10
7.640048788819854
 20
4.107458217074214
 30
9.271349199480028e-08
 10
7.638710655274849
 20
4.107891468107216
 30
9.270684131479356e-08
 10
7.637372848585841
 20
4.1083246593052145
 30
9.270013379136799e-08
 10
7.636035041897841
 20
4.108757850503217
 30
9.270354439649964e-08
 10
7.634697562067842
 20
4.109190981866217
 30
9.268683243135456e-08
 10
7.6333604119068355
 20
4.109624051993215
 30
9.26802385947667e-08
 10
7.628011811269843
 20
4.111356332500215
 30
9.263351330446312e-08
 10
7.62266848537584
 20
4.113087633230215
 30
9.250686616724124e-08
 10
7.617330383749845
 20
4.114817975675216
 30
9.238999609806342e-08
 10
7.61199228212385
 20
4.116548318119214
 30
9.226317843058496e-08
 10
7.606659404764841
 20
4.118277702279215
 30
9.214619467456941e-08
 10
7.601331701166842
 20
4.120006148986214
 30
9.208918072545202e-08
 10
7.599999775267847
 20
4.120438260663214
 30
9.208247320202645e-08
 10
7.598668172727841
 20
4.120870313748217
 30
9.207570883518201e-08
 10
7.597336895248844
 20
4.121302307387214
 30
9.206894446833758e-08
 10
7.596005617769848
 20
4.121734301025214
 30
9.206218010149314e-08
 10
7.594674665350851
 20
4.122166235215214
 30
9.20554157346487e-08
 10
7.593344046440848
 20
4.1225981059282155
 30
9.204865136780427e-08
 10
7.590682808620841
 20
4.123461847354214
 30
9.202506134897703e-08
 10
7.5880229048388514
 20
4.124325334869216
 30
9.198151929012965e-08
 10
7.585364282251845
 20
4.125188592918214
 30
9.196787686960306e-08
 10
7.58469962660385
 20
4.125404407430214
 30
9.195946404361166e-08
 10
7.584035051032842
 20
4.125620207600214
 30
9.196105565933976e-08
 10
7.583370557611843
 20
4.125835992448216
 30
9.196264727506787e-08
 10
7.582706064191854
 20
4.126051777295217
 30
9.195423444907647e-08
 10
7.58204165292284
 20
4.126267546818216
 30
9.195582606480457e-08
 10
7.581377324345851
 20
4.126483300765216
 30
9.195741768053267e-08
 10
7.580048667190852
 20
4.126914808655215
 30
9.195059647026937e-08
 10
7.578720340799848
 20
4.127346254231217
 30
9.194377526000608e-08
 10
7.5773923419328355
 20
4.127777638950214
 30
9.193695404974278e-08
 10
7.576064343064843
 20
4.128209023669214
 30
9.193013283947948e-08
 10
7.574736671721837
 20
4.128640347529217
 30
9.192331162921619e-08
 10
7.573409328598842
 20
4.129071610153215
 30
9.191649041895289e-08
 10
7.572081985477837
 20
4.129502872778215
 30
9.190966920868959e-08
 10
7.570754970577838
 20
4.129934074164215
 30
9.19028479984263e-08
 10
7.569428284954853
 20
4.130365213788217
 30
9.189596994474414e-08
 10
7.568101599332834
 20
4.130796353412215
 30
9.188909189106198e-08
 10
7.566775242986836
 20
4.131227431273214
 30
9.187226623907918e-08
 10
7.565449213114846
 20
4.131658448589214
 30
9.187533578369766e-08
 10
7.564123183242842
 20
4.132089465907214
 30
9.186845773001551e-08
 10
7.562797479844846
 20
4.132520422682216
 30
9.186163651975221e-08
 10
7.561472111726843
 20
4.132951314860215
 30
9.185470162265119e-08
 10
7.558821375487838
 20
4.133813099218216
 30
9.183099791698623e-08
 10
7.556171980366841
 20
4.134674625194215
 30
9.177716719932505e-08
 10
7.553523868791842
 20
4.135535918511216
 30
9.176341109196073e-08
 10
7.552861840898842
 20
4.135751241841216
 30
9.175499826596933e-08
 10
7.552199893226842
 20
4.135966550629217
 30
9.175653303827858e-08
 10
7.551538027674837
 20
4.136181844006217
 30
9.175812465400668e-08
 10
7.551207094899837
 20
4.136289490695216
 30
9.175886361845187e-08
 10
7.550876182652843
 20
4.136397133532217
 30
9.175965942631592e-08
 10
7.550545290772845
 20
4.136504772591216
 30
9.176039839076111e-08
 10
7.550379844831838
 20
4.136558592119215
 30
9.175579407383339e-08
 10
7.550214403982835
 20
4.136612410703215
 30
9.175118975690566e-08
 10
7.550048968272847
 20
4.136666228321214
 30
9.175653303827858e-08
 10
7.549883532562845
 20
4.136720045939214
 30
9.175192872135085e-08
 10
7.549718101991843
 20
4.136773862590214
 30
9.175732884614263e-08
 10
7.549552676690837
 20
4.136827678215216
 30
9.17527245292149e-08
 10
7.548890975488845
 20
4.137042940720214
 30
9.175425930152414e-08
 10
7.548229358610854
 20
4.137258186826216
 30
9.174573278869502e-08
 10
7.5475678228738445
 20
4.137473417942214
 30
9.174732440442313e-08
 10
7.546906287134846
 20
4.137688649059214
 30
9.174885917673237e-08
 10
7.5462448325378375
 20
4.137903865183215
 30
9.175039394904161e-08
 10
7.545583462458836
 20
4.138119064818216
 30
9.174192427963135e-08
 10
7.544260722299839
 20
4.138549464086214
 30
9.173504622594919e-08
 10
7.542938320214844
 20
4.138979797390217
 30
9.171805004370981e-08
 10
7.54161623525485
 20
4.139410073903214
 30
9.172111958832829e-08
 10
7.54153360494584
 20
4.139436966186214
 30
9.171378678729525e-08
 10
7.541450975874852
 20
4.139463858246216
 30
9.171651527140057e-08
 10
7.541368348114844
 20
4.139490750057217
 30
9.171918691208703e-08
 10
7.541285720353841
 20
4.139517641867215
 30
9.172191539619234e-08
 10
7.541203093904841
 20
4.139544533429216
 30
9.17145825951593e-08
 10
7.541120468626843
 20
4.139571424788215
 30
9.171731107926462e-08
 10
7.540955218070849
 20
4.1396252075072155
 30
9.172265436063753e-08
 10
7.540789972204834
 20
4.139678989417217
 30
9.171805004370981e-08
 10
7.540624732330855
 20
4.139732770041217
 30
9.171344572678208e-08
 10
7.540294252579841
 20
4.139840331289214
 30
9.171418469122727e-08
 10
7.5399637967958455
 20
4.139947887397216
 30
9.171498049909133e-08
 10
7.5396333561798485
 20
4.140055441607217
 30
9.171571946353652e-08
 10
7.539302915563837
 20
4.140162995817214
 30
9.171651527140057e-08
 10
7.538972490116834
 20
4.140270548129216
 30
9.171725423584576e-08
 10
7.538642104517834
 20
4.140378089480215
 30
9.171799320029095e-08
 10
7.53860080631884
 20
4.140391532149216
 30
9.171935744234361e-08
 10
7.538559508741841
 20
4.1404049746482166
 30
9.171071724267676e-08
 10
7.538518206761836
 20
4.140418418826215
 30
9.171208148472942e-08
 10
7.53847690478085
 20
4.140431863005215
 30
9.171333203994436e-08
 10
7.538435598397854
 20
4.140445308865214
 30
9.171469628199702e-08
 10
7.5383943054338545
 20
4.140458749835215
 30
9.171606052404968e-08
 10
7.538353012471845
 20
4.140472190806214
 30
9.171736792268348e-08
 10
7.538311732927838
 20
4.140485626888214
 30
9.171873216473614e-08
 10
7.5382704235558435
 20
4.140499074023214
 30
9.17200964067888e-08
 10
7.538229114182855
 20
4.140512521159216
 30
9.171145620712196e-08
 10
7.538187774980841
 20
4.140525979348215
 30
9.171276360575575e-08
 10
7.538146495474848
 20
4.140539415589217
 30
9.171412784780841e-08
 10
7.538063936461839
 20
4.1405662880702145
 30
9.171685633191373e-08
 10
7.53798161623385
 20
4.140593072757216
 30
9.171952797260019e-08
 10
7.537898843287849
 20
4.140620024565216
 30
9.171219517156715e-08
 10
7.537857456813839
 20
4.1406335004682155
 30
9.17135594136198e-08
 10
7.537815957161854
 20
4.140647018151217
 30
9.171492365567246e-08
 10
7.5377748058938465
 20
4.140660407466214
 30
9.171623105430626e-08
 10
7.537733654626834
 20
4.140673796782217
 30
9.171753845294006e-08
 10
7.5376928517448505
 20
4.140687057728215
 30
9.171890269499272e-08
 10
7.537652038639834
 20
4.1407003224982155
 30
9.172021009362652e-08
 10
7.495859418678847
 20
4.154283446612215
 30
9.295962399846758e-08
 10
7.443347261131834
 20
4.171874861963211
 30
1.0517027249079547e-07
 10
7.407805783131835
 20
4.183275043014213
 30
1.0998110155924223e-07
 10
7.390035044131849
 20
4.188975133540211
 30
1.1238159913773416e-07
 10
7.376506975018842
 20
4.193127415491212
 30
1.1293712987026083e-07
 10
7.3446110871238375
 20
4.204048726452211
 30
1.135102252192155e-07
 10
7.3127151992288475
 20
4.214970037412211
 30
1.1408332056817017e-07
 10
7.262451492551847
 20
4.232660377383212
 30
1.1467409422039054e-07
 10
7.2229158736228385
 20
4.246502719145212
 30
1.1630964991127257e-07
 10
7.122634937948845
 20
4.281613412270211
 30
1.204741124638531e-07
 10
7.027042132459854
 20
4.315394036948211
 30
1.3331543868844165e-07
 10
6.932559595514846
 20
4.3491723615122115
 30
1.44046737204917e-07
 10
6.838077058569837
 20
4.382950686074208
 30
1.547779788779735e-07
 10
6.744704790168839
 20
4.416726710521207
 30
1.6338913155777846e-07
 10
6.6530748859078415
 20
4.450247063733208
 30
1.7228467186214402e-07
 10
6.561444981647838
 20
4.483767416945209
 30
1.811803258533473e-07
 10
6.471557441525846
 20
4.517032098923206
 30
1.9035041987081058e-07
 10
6.383102127982852
 20
4.550141515834206
 30
2.0063509964529658e-07
 10
6.294646814439844
 20
4.583250932745205
 30
2.1090966129122535e-07
 10
6.207623727473845
 20
4.616205084590204
 30
2.222888610958762e-07
 10
6.122123723751841
 20
4.648954369534204
 30
2.2850764480608632e-07
 10
6.079373721891841
 20
4.665329012007204
 30
2.3162698425949202e-07
 10
6.037004490842847
 20
4.681652437754204
 30
2.3345126010099193e-07
 10
5.994994555617836
 20
4.697930582244203
 30
2.3583100983159966e-07
 10
5.952984620393835
 20
4.7142087267342045
 30
2.3821081640562625e-07
 10
5.9113339809928505
 20
4.730441589966203
 30
2.411560444670613e-07
 10
5.870044284206841
 20
4.7466266088712015
 30
2.4398650566581637e-07
 10
5.787464890633842
 20
4.778996646682204
 30
2.496474280633265e-07
 10
5.706329267514846
 20
4.8111753071842
 30
2.5483933541181614e-07
 10
5.626593137436842
 20
4.8431630971962
 30
2.6191213464699103e-07
 10
5.546857007360842
 20
4.875150887210198
 30
2.689749862838653e-07
 10
5.468520370324853
 20
4.906947806736197
 30
2.779287910925632e-07
 10
5.391544331495851
 20
4.938552622738197
 30
2.871433366635756e-07
 10
5.3145682926668485
 20
4.970157438740198
 30
2.963580527648446e-07
 10
5.2389528520438375
 20
5.001570151218196
 30
3.0584351407014765e-07
 10
5.164655499702846
 20
5.032790840850195
 30
3.145898404000036e-07
 10
5.090358147361854
 20
5.064011530481194
 30
3.2334617117157904e-07
 10
5.017378883301845
 20
5.095040197267194
 30
3.313732577225892e-07
 10
4.945681668645847
 20
5.125874264765194
 30
3.4085098832292715e-07
 10
4.873984453989834
 20
5.156708332262195
 30
3.503387233649846e-07
 10
4.803569288735844
 20
5.1873478004721925
 30
3.6128705005467054e-07
 10
4.734389638940854
 20
5.217794532696191
 30
3.6885614917991916e-07
 10
4.6652099891448415
 20
5.248241264920189
 30
3.7643525274688727e-07
 10
4.597265854806835
 20
5.27849526115919
 30
3.8063512874941807e-07
 10
4.530525643214844
 20
5.308552013912191
 30
3.87325258088822e-07
 10
4.463785431622853
 20
5.338608766666191
 30
3.9401538742822595e-07
 10
4.398249142777843
 20
5.368468275935188
 30
4.031959406347596e-07
 10
4.3338731371718495
 20
5.398131178169189
 30
4.119867185181647e-07
 10
4.269497131565842
 20
5.427794080404189
 30
4.2077755324498867e-07
 10
4.206281409197842
 20
5.457260375604186
 30
4.2918878762066015e-07
 10
4.144187340161835
 20
5.486528560948187
 30
4.379602387416526e-07
 10
4.082093271124847
 20
5.515796746291187
 30
4.4673163301922614e-07
 10
4.021120855419838
 20
5.5448668217751855
 30
4.558633008855395e-07
 10
3.961228821125843
 20
5.573738412318184
 30
4.642050726033631e-07
 10
3.901336786832843
 20
5.602610002862182
 30
4.72536896722886e-07
 10
3.8425251339518525
 20
5.631283108461181
 30
4.800889428224764e-07
 10
3.7847576122648547
 20
5.659755206501179
 30
4.893408345196804e-07
 10
3.726990090577843
 20
5.688227304540179
 30
4.986027306586038e-07
 10
3.670266700083843
 20
5.716498395018178
 30
5.095845949654176e-07
 10
3.6145381440288418
 20
5.744571535033177
 30
5.152165840627276e-07
 10
3.5783667933548458
 20
5.762792774985179
 30
5.188717864257342e-07
 10
3.542618456831846
 20
5.780929145999178
 30
5.22548532444489e-07
 10
3.5072825785778434
 20
5.79898023938518
 30
5.26476753748284e-07
 10
3.4719467003238407
 20
5.817031332772178
 30
5.303949137669406e-07
 10
3.437023280337854
 20
5.834997148532176
 30
5.345546583157557e-07
 10
3.402499526980847
 20
5.852878234250179
 30
5.375258069761912e-07
 10
3.36797577362384
 20
5.870759319969176
 30
5.404970124800457e-07
 10
3.3338516868978445
 20
5.888555675646176
 30
5.422797357823583e-07
 10
3.300119272639847
 20
5.906265796672178
 30
5.449738296192663e-07
 10
3.2663868583828446
 20
5.923975917698177
 30
5.476579758578737e-07
 10
3.233046116594835
 20
5.941599804074176
 30
5.512634970727959e-07
 10
3.2000849470908435
 20
5.959137707457176
 30
5.548503736463317e-07
 10
3.1671237775878467
 20
5.976675610840177
 30
5.584373070632864e-07
 10
3.13454218036685
 20
5.994127531229176
 30
5.620156002805743e-07
 10
3.1023280841968415
 20
6.0114937078181745
 30
5.64685308290791e-07
 10
3.070113988025838
 20
6.028859884406174
 30
5.673550731444266e-07
 10
3.0382673929038475
 20
6.046140317194174
 30
5.691062483492715e-07
 10
3.006780219728853
 20
6.063333537668175
 30
5.719886644328653e-07
 10
2.975293046553844
 20
6.080526758142174
 30
5.74871137359878e-07
 10
2.9441652953258455
 20
6.097632766303175
 30
5.788748467239202e-07
 10
2.913384360753838
 20
6.1146520296221745
 30
5.827199061059218e-07
 10
2.882603426181845
 20
6.131671292940173
 30
5.865550178896228e-07
 10
2.852169308265843
 20
6.148603811417174
 30
5.902313091610267e-07
 10
2.822070491854845
 20
6.165449586136174
 30
5.932490125815093e-07
 10
2.7864194023508446
 20
6.185402869816174
 30
5.968280447632424e-07
 10
2.751226420828843
 20
6.205238581497171
 30
6.029053452039079e-07
 10
2.7164624209868435
 20
6.224968420467172
 30
6.080620664761227e-07
 10
2.6816984211448442
 20
6.244698259437171
 30
6.132186740614998e-07
 10
2.6473634029828474
 20
6.264322225697171
 30
6.174648206069833e-07
 10
2.613434665163851
 20
6.283849270110171
 30
6.221011972229462e-07
 10
2.579505927346844
 20
6.30337631452217
 30
6.267375738389092e-07
 10
2.5459834698728514
 20
6.322806437086171
 30
6.317742986539088e-07
 10
2.512841984236843
 20
6.342149703708169
 30
6.36592289993132e-07
 10
2.47970049859984
 20
6.361492970331169
 30
6.414103381757741e-07
 10
2.4469399847998545
 20
6.380749381012169
 30
6.460197141677781e-07
 10
2.4145364837228414
 20
6.399928424293168
 30
6.508013257189305e-07
 10
2.3821329826448476
 20
6.419107467574169
 30
6.555829372700828e-07
 10
2.3500864942898545
 20
6.438209143454168
 30
6.605467888221028e-07
 10
2.3183704697918444
 20
6.457244048065167
 30
6.641540153395908e-07
 10
2.286654445295852
 20
6.476278952675168
 30
6.677612418570789e-07
 10
2.255268884655834
 20
6.495247086014167
 30
6.700317385366361e-07
 10
2.22419346838484
 20
6.514156379447167
 30
6.740164621987788e-07
 10
2.193118052111842
 20
6.533065672880167
 30
6.780010153306648e-07
 10
2.162352780206845
 20
6.551916126407167
 30
6.836998522885551e-07
 10
2.131869957472844
 20
6.570718826154165
 30
6.887439099045878e-07
 10
2.101387134739838
 20
6.589521525901165
 30
6.937978582755022e-07
 10
2.0711867611778416
 20
6.608276471869165
 30
6.982070885896974e-07
 10
2.0412452304768465
 20
6.6269930010061655
 30
7.026125672382477e-07
 10
2.0113036997748424
 20
6.645709530143163
 30
7.070279366416798e-07
 10
1.9816210119338393
 20
6.6643876424471635
 30
7.114295499377477e-07
 10
1.9521735156808404
 20
6.683036693922164
 30
7.164481985455495e-07
 10
1.9227260194298452
 20
6.701685745396163
 30
7.214669039967703e-07
 10
1.8935137147698526
 20
6.720305736040163
 30
7.271026447597251e-07
 10
1.8645089828248445
 20
6.738907718814161
 30
7.310366640922439e-07
 10
1.8355042508798363
 20
6.7575097015891625
 30
7.349806310230633e-07
 10
1.806707091649841
 20
6.776093676495162
 30
7.372228765234468e-07
 10
1.778097073016852
 20
6.794667622194161
 30
7.407541033899179e-07
 10
1.7494870543848435
 20
6.813241567894161
 30
7.442852734129701e-07
 10
1.721064176346843
 20
6.831805484388162
 30
7.491055384889478e-07
 10
1.692801994735845
 20
6.8503699218031615
 30
7.537658461842511e-07
 10
1.6645398131258418
 20
6.86893435921716
 30
7.584260970361356e-07
 10
1.6364383279398425
 20
6.887499317554161
 30
7.629364517924841e-07
 10
1.608473450362851
 20
6.90607433926016
 30
7.675778306293068e-07
 10
1.5805085727848507
 20
6.924649360965159
 30
7.722192094661295e-07
 10
1.5526803028168388
 20
6.943234446042158
 30
7.769916692268453e-07
 10
1.5249636030638385
 20
6.9618395425051585
 30
7.814959985807945e-07
 10
1.4972469033108382
 20
6.980444638969158
 30
7.860105029067199e-07
 10
1.4696417737738443
 20
6.999069746822157
 30
7.902368679424399e-07
 10
1.4421248374598434
 20
7.017724103664157
 30
7.950162626002566e-07
 10
1.4146079011478463
 20
7.036378460505157
 30
7.997956572580733e-07
 10
1.387179158059837
 20
7.055062066336157
 30
8.05108015811129e-07
 10
1.3598128148878459
 20
7.073785192148156
 30
8.100142849798431e-07
 10
1.3163517212458373
 20
7.103519801521156
 30
8.177940458153898e-07
 10
1.2667736917868524
 20
7.138579980617155
 30
8.308975907311833e-07
 10
1.2122942580808456
 20
7.178161383469153
 30
8.410044642914727e-07
 10
1.157814824373844
 20
7.217742786320153
 30
8.511112810083432e-07
 10
1.0984339864178452
 20
7.261845412928152
 30
8.582013037994329e-07
 10
1.035382537950852
 20
7.309658387801152
 30
8.651833240946871e-07
 10
0.9723310894838448
 20
7.3574713626731505
 30
8.721553967916407e-07
 10
0.9056090305058433
 20
7.408994685810152
 30
8.78999344422482e-07
 10
0.8364480004068469
 20
7.46341711874315
 30
8.892339451449516e-07
 10
0.7672869703068415
 20
7.517839551676149
 30
8.994586551125394e-07
 10
0.6956869690868359
 20
7.575161094404149
 30
9.130740181717556e-07
 10
0.6228599983638503
 20
7.634578907261147
 30
9.191396088681358e-07
 10
0.5653436783898371
 20
7.681505120208147
 30
9.239230962521106e-07
 10
0.5079149254048474
 20
7.728937360753148
 30
9.296873599851097e-07
 10
0.4501138851118469
 20
7.7774682248751486
 30
9.296917937717808e-07
  0
SPLINE
  5
5E
330
17
100
AcDbEntity
  8
SANDING_GUIDE_NONCUT
100
AcDbSpline
 70
0
 71
3
 72
248
 73
244
 74
0
 40
0.0
 40
0.0
 40
0.0
 40
0.0
 40
0.004519553121328
 40
0.004519553121328
 40
0.004519553121328
 40
0.008926484278218
 40
0.008926484278218
 40
0.008926484278218
 40
0.01302880579351
 40
0.01302880579351
 40
0.01302880579351
 40
0.01333341543511
 40
0.01333341543511
 40
0.01333341543511
 40
0.01471778950358
 40
0.01471778950358
 40
0.01471778950358
 40
0.01997860580847
 40
0.01997860580847
 40
0.01997860580847
 40
0.02493864819788
 40
0.02493864819788
 40
0.02493864819788
 40
0.02989869058728
 40
0.02989869058728
 40
0.02989869058728
 40
0.0298987658649
 40
0.0298987658649
 40
0.0298987658649
 40
0.03574016142836
 40
0.03574016142836
 40
0.03574016142836
 40
0.04202180850567
 40
0.04202180850567
 40
0.04202180850567
 40
0.04901535508486
 40
0.04901535508486
 40
0.04901535508486
 40
0.05743363368521
 40
0.05743363368521
 40
0.05743363368521
 40
0.06533512444324
 40
0.06533512444324
 40
0.06533512444324
 40
0.07175353437798
 40
0.07175353437798
 40
0.07175353437798
 40
0.07740101656471
 40
0.07740101656471
 40
0.07740101656471
 40
0.0828065844628
 40
0.0828065844628
 40
0.0828065844628
 40
0.08753645637363
 40
0.08753645637363
 40
0.08753645637363
 40
0.09193995923969
 40
0.09193995923969
 40
0.09193995923969
 40
0.09614352937743
 40
0.09614352937743
 40
0.09614352937743
 40
0.100172605429
 40
0.100172605429
 40
0.100172605429
 40
0.10404709125
 40
0.10404709125
 40
0.10404709125
 40
0.107783040078
 40
0.107783040078
 40
0.107783040078
 40
0.111333806751
 40
0.111333806751
 40
0.111333806751
 40
0.11479117373
 40
0.11479117373
 40
0.11479117373
 40
0.11811319677
 40
0.11811319677
 40
0.11811319677
 40
0.120645559749
 40
0.120645559749
 40
0.120645559749
 40
0.120646941479
 40
0.120646941479
 40
0.120646941479
 40
0.132325134313
 40
0.132325134313
 40
0.132325134313
 40
0.143588568901
 40
0.143588568901
 40
0.143588568901
 40
0.154027845512
 40
0.154027845512
 40
0.154027845512
 40
0.160385298145
 40
0.160385298145
 40
0.160385298145
 40
0.169723359628
 40
0.169723359628
 40
0.169723359628
 40
0.179086907772
 40
0.179086907772
 40
0.179086907772
 40
0.183269534674
 40
0.183269534674
 40
0.183269534674
 40
0.183271674231
 40
0.183271674231
 40
0.183271674231
 40
0.186534357095
 40
0.186534357095
 40
0.186534357095
 40
0.189807445779
 40
0.189807445779
 40
0.189807445779
 40
0.19310409865
 40
0.19310409865
 40
0.19310409865
 40
0.196417984791
 40
0.196417984791
 40
0.196417984791
 40
0.199765332648
 40
0.199765332648
 40
0.199765332648
 40
0.201747247093
 40
0.201747247093
 40
0.201747247093
 40
0.204652432967
 40
0.204652432967
 40
0.204652432967
 40
0.206139694903
 40
0.206139694903
 40
0.206139694903
 40
0.209514623893
 40
0.209514623893
 40
0.209514623893
 40
0.21046132778
 40
0.21046132778
 40
0.21046132778
 40
0.213154695548
 40
0.213154695548
 40
0.213154695548
 40
0.214719877994
 40
0.214719877994
 40
0.214719877994
 40
0.218922209191
 40
0.218922209191
 40
0.218922209191
 40
0.221399154152
 40
0.221399154152
 40
0.221399154152
 40
0.223906170673
 40
0.223906170673
 40
0.223906170673
 40
0.226462686727
 40
0.226462686727
 40
0.226462686727
 40
0.227182211999
 40
0.227182211999
 40
0.227182211999
 40
0.231025970976
 40
0.231025970976
 40
0.231025970976
 40
0.234996118557
 40
0.234996118557
 40
0.234996118557
 40
0.235283970204
 40
0.235283970204
 40
0.235283970204
 40
0.244305756389
 40
0.244305756389
 40
0.244305756389
 40
0.251151680631
 40
0.251151680631
 40
0.251151680631
 40
0.258427147871
 40
0.258427147871
 40
0.258427147871
 40
0.266090867822
 40
0.266090867822
 40
0.266090867822
 40
0.274342971847
 40
0.274342971847
 40
0.274342971847
 40
0.282326763721
 40
0.282326763721
 40
0.282326763721
 40
0.293128855182
 40
0.293128855182
 40
0.293128855182
 40
0.304991254257
 40
0.304991254257
 40
0.304991254257
 40
0.314040062913
 40
0.314040062913
 40
0.314040062913
 40
0.31404614487
 40
0.31404614487
 40
0.31404614487
 40
0.320824710052
 40
0.320824710052
 40
0.320824710052
 40
0.324217595444
 40
0.324217595444
 40
0.324217595444
 40
0.330320322821
 40
0.330320322821
 40
0.330320322821
 40
0.335872419566
 40
0.335872419566
 40
0.335872419566
 40
0.340749346713
 40
0.340749346713
 40
0.340749346713
 40
0.34142451631
 40
0.34142451631
 40
0.34142451631
 40
0.341432461664
 40
0.341432461664
 40
0.341432461664
 40
0.343870520713
 40
0.343870520713
 40
0.343870520713
 40
0.346452492334
 40
0.346452492334
 40
0.346452492334
 40
0.349320652306
 40
0.349320652306
 40
0.349320652306
 40
0.352471234464
 40
0.352471234464
 40
0.352471234464
 40
0.356278673766
 40
0.356278673766
 40
0.356278673766
 40
0.361061788473
 40
0.361061788473
 40
0.361061788473
 40
0.364253627678
 40
0.364253627678
 40
0.364253627678
 40
0.36584490318
 40
0.36584490318
 40
0.36584490318
 40
0.36584490318
 10
0.4501138851118469
 20
7.7774682248751486
 30
9.296917937717808e-07
 10
0.464654606757847
 20
7.781408653050148
 30
9.296883831666491e-07
 10
0.4809709522158414
 20
7.785801596701148
 30
9.299604926127358e-07
 10
0.49905847140684045
 20
7.790620568908148
 30
9.303955152972776e-07
 10
0.5166952708278529
 20
7.795319457980147
 30
9.308283779319027e-07
 10
0.5360170432838345
 20
7.800423621346148
 30
9.314222211287415e-07
 10
0.556970770438852
 20
7.805889363850146
 30
9.321022957919922e-07
 10
0.5764761638008338
 20
7.8109773110561465
 30
9.327344514531433e-07
 10
0.5973956142738359
 20
7.816378447927147
 30
9.334380024483835e-07
 10
0.6196384647778359
 20
7.822040580291147
 30
9.341480335933738e-07
 10
0.621290062950834
 20
7.822461010553147
 30
9.342003295387258e-07
 10
0.6229489350118342
 20
7.822882872172147
 30
9.342527960143343e-07
 10
0.6246150328388467
 20
7.823306140112147
 30
9.343053761767806e-07
 10
0.6321870276578352
 20
7.8252297862451465
 30
9.345390594717173e-07
 10
0.6399095405748483
 20
7.827183568828146
 30
9.347457421426952e-07
 10
0.6477821113108462
 20
7.829166686678147
 30
9.349353717880149e-07
 10
0.6776989881398379
 20
7.836702813627148
 30
9.356539862892532e-07
 10
0.7097865525298346
 20
7.8446631837411465
 30
9.360753665532684e-07
 10
0.7439913657968447
 20
7.852998996553146
 30
9.367745406052563e-07
 10
0.7762406050578363
 20
7.860858230273148
 30
9.374357432534453e-07
 10
0.8103721666188477
 20
7.869051177669147
 30
9.383406904817093e-07
 10
0.846296558894835
 20
7.877530118282148
 30
9.399743134963501e-07
 10
0.8822209511708365
 20
7.886009058894147
 30
9.415980457561091e-07
 10
0.9199387060878337
 20
7.894774004679147
 30
9.439506243325013e-07
 10
0.9592982196068363
 20
7.903767999941146
 30
9.474962894273631e-07
 10
0.9592988171058465
 20
7.903768136475146
 30
9.474962894273631e-07
 10
0.9592994146068463
 20
7.903768273009146
 30
9.474962894273631e-07
 10
0.9593097608248513
 20
7.903770637210147
 30
9.474965736444574e-07
 10
1.0056746077908372
 20
7.914365407615145
 30
9.516734280623496e-07
 10
1.053468804027844
 20
7.925165183496146
 30
9.5702097269168e-07
 10
1.1026799287358529
 20
7.936170872096144
 30
9.633392892283155e-07
 10
1.1555999740118352
 20
7.948006032184145
 30
9.701511771709193e-07
 10
1.2101590258428416
 20
7.9600794592041435
 30
9.78077139279776e-07
 10
1.2664071488988498
 20
7.972402277151143
 30
9.86898157862015e-07
 10
1.3290298756678425
 20
7.986121640916141
 30
9.967199048332986e-07
 10
1.3937468846928454
 20
8.000150390373141
 30
1.0076428225147538e-06
 10
1.460697336831842
 20
8.014512636465138
 30
1.0193193702434655e-06
 10
1.5412869993378422
 20
8.031800773116139
 30
1.0333806699236447e-06
 10
1.6251149076668412
 20
8.049573017286137
 30
1.0485508141755417e-06
 10
1.7125008589758437
 20
8.067874558621135
 30
1.0642343113431707e-06
 10
1.7945222934568505
 20
8.085052590685134
 30
1.078954710465041e-06
 10
1.879683376173844
 20
8.102697964267133
 30
1.094132187517971e-06
 10
1.9682501302048365
 20
8.120835576722131
 30
1.1092793670286483e-06
 10
2.0401932294708445
 20
8.135568825869132
 30
1.1215936410735594e-06
 10
2.11438490145585
 20
8.150626966800129
 30
1.1338806302774174e-06
 10
2.1909334352108374
 20
8.166009269215127
 30
1.1458803896857717e-06
 10
2.2582875751298417
 20
8.179543973254127
 30
1.1564540045583271e-06
 10
2.3274670099958428
 20
8.193329708351126
 30
1.1668029173961258e-06
 10
2.398504443428834
 20
8.207352864472124
 30
1.1767558021347213e-06
 10
2.4664989331908487
 20
8.220775327800123
 30
1.1862881592605845e-06
 10
2.5361965922288476
 20
8.234415507246123
 30
1.1954525120927428e-06
 10
2.607574651084846
 20
8.248246592913123
 30
1.2041061268064368e-06
 10
2.6700304525848537
 20
8.260348792872122
 30
1.2116856851207558e-06
 10
2.733772700937834
 20
8.27259708810512
 30
1.2188598361717595e-06
 10
2.798742043306845
 20
8.284961452478122
 30
1.2255358114998671e-06
 10
2.859228392772849
 20
8.296472655102122
 30
1.2317557889218733e-06
 10
2.920778526000845
 20
8.30808448963512
 30
1.2375359688121534e-06
 10
2.983302517549845
 20
8.31976162834512
 30
1.2428027957867016e-06
 10
3.042987725387846
 20
8.330908588633118
 30
1.2478361668399884e-06
 10
3.1035606573878454
 20
8.342115116203118
 30
1.2523956343102327e-06
 10
3.164899771347848
 20
8.353339323931118
 30
1.2564068470055645e-06
 10
3.223692641923847
 20
8.364097604409118
 30
1.2602612287082593e-06
 10
3.283189673425852
 20
8.374872182581118
 30
1.263607202872663e-06
 10
3.3432391008638547
 20
8.385614868786117
 30
1.2663900292864128e-06
 10
3.400984512514839
 20
8.395945372565116
 30
1.269071333354077e-06
 10
3.4592409950288356
 20
8.406246436646118
 30
1.271229677968222e-06
 10
3.517827594288846
 20
8.416463759575116
 30
1.2728097544822958e-06
 10
3.574319357837851
 20
8.426315749591115
 30
1.2743328738906712e-06
 10
3.631118289477854
 20
8.436089929283117
 30
1.2753083638017415e-06
 10
3.6880150290698452
 20
8.445726029409116
 30
1.2757098488691554e-06
 10
3.7420915317328536
 20
8.454884490823115
 30
1.276083310131071e-06
 10
3.796256466278834
 20
8.463918234293118
 30
1.2759241485582606e-06
 10
3.8502846845458407
 20
8.472764468003117
 30
1.2751862641380285e-06
 10
3.9028917395698386
 20
8.481378009564118
 30
1.2744748119075666e-06
 10
3.955369416179849
 20
8.489813827984118
 30
1.273215616492962e-06
 10
4.007463138379848
 20
8.498002684452118
 30
1.2713715022982797e-06
 10
4.057517571833841
 20
8.505870975559118
 30
1.2695952023022983e-06
 10
4.107217631721852
 20
8.513511282391118
 30
1.2672758771259396e-06
 10
4.156291431296836
 20
8.520851156615118
 30
1.2643764080166875e-06
 10
4.193700164423845
 20
8.526446309190117
 30
1.2621708833648881e-06
 10
4.230744120486847
 20
8.531866675252118
 30
1.2596278224918933e-06
 10
4.267282954772838
 20
8.537075424828117
 30
1.2567334692903387e-06
 10
4.2673028914008455
 20
8.537078266870118
 30
1.256733753507433e-06
 10
4.267322827812848
 20
8.537081108839118
 30
1.2567340377245273e-06
 10
4.26734276400785
 20
8.53708395073712
 30
1.256724317499902e-06
 10
4.435840853724841
 20
8.56110328994112
 30
1.2433783354026673e-06
 10
4.611337128327847
 20
8.584858918314119
 30
1.2445963761820167e-06
 10
4.794846649716845
 20
8.60834936391812
 30
1.2538185387711565e-06
 10
4.971838716879844
 20
8.63100553180912
 30
1.2627164096556953e-06
 10
5.156284942183845
 20
8.653413938301117
 30
1.2790600294465548e-06
 10
5.349141878015843
 20
8.675583450730116
 30
1.2969604767931742e-06
 10
5.527887258379849
 20
8.696130795395113
 30
1.313546931669407e-06
 10
5.713857820612844
 20
8.716472097408111
 30
1.3314833040567464e-06
 10
5.907852790367855
 20
8.736636452559111
 30
1.3460826266964432e-06
 10
6.025994485148843
 20
8.748916415770111
 30
1.3549644677368633e-06
 10
6.147112935776846
 20
8.76113121855811
 30
1.3626100781038986e-06
 10
6.271395706327837
 20
8.77329405040311
 30
1.3679608059646853e-06
 10
6.45394683486785
 20
8.791159267518108
 30
1.3758184991274902e-06
 10
6.642187628919842
 20
8.80879781884611
 30
1.3821838820149424e-06
 10
6.835854545260844
 20
8.826231821944107
 30
1.3866991821487318e-06
 10
7.030050042718841
 20
8.843713408205106
 30
1.3912393228565634e-06
 10
7.229701455733846
 20
8.860989360976108
 30
1.3939093150838744e-06
 10
7.4345270361528435
 20
8.878132093034107
 30
1.3943462704446574e-06
 10
7.526021090504841
 20
8.885789623188106
 30
1.3945522141511901e-06
 10
7.6185473429768535
 20
8.893421233877106
 30
1.394305627400172e-06
 10
7.712079550572838
 20
8.901036534785106
 30
1.393577463204565e-06
 10
7.712127395509839
 20
8.901040430274106
 30
1.393577861108497e-06
 10
7.712175240796853
 20
8.901044325764106
 30
1.393578315855848e-06
 10
7.712223086434847
 20
8.901048221259106
 30
1.39357871375978e-06
 10
7.785184508800853
 20
8.906988590696107
 30
1.3930107343185227e-06
 10
7.861674062764848
 20
8.913222610849107
 30
1.3928525390838331e-06
 10
7.9413670198848365
 20
8.919710447280107
 30
1.3930601880929316e-06
 10
8.02131414529984
 20
8.926218975655107
 30
1.3932698266216903e-06
 10
8.104485119644835
 20
8.932982938907108
 30
1.393865375121095e-06
 10
8.190499897665845
 20
8.939956441038106
 30
1.39480221150734e-06
 10
8.277133928182849
 20
8.946980148014108
 30
1.3957441638012824e-06
 10
8.366652850151837
 20
8.954216420228107
 30
1.3970476402391796e-06
 10
8.458615632778844
 20
8.961612640091108
 30
1.3986673366161995e-06
 10
8.551059151338848
 20
8.969047523733106
 30
1.4003110209159786e-06
 10
8.645972101395841
 20
8.976644025666108
 30
1.402271095685137e-06
 10
8.742853846573837
 20
8.984342996233107
 30
1.4045415923646942e-06
 10
8.84071384788885
 20
8.992119706575107
 30
1.4068300515646115e-06
 10
8.940582575755855
 20
9.000000961162105
 30
1.4094290463617654e-06
 10
9.041890998687848
 20
9.007920067125106
 30
1.4123120308795478e-06
 10
9.101874195933846
 20
9.012608850952105
 30
1.4140074995339091e-06
 10
9.162361094863854
 20
9.017310795701105
 30
1.4158143244458188e-06
 10
9.223225047973841
 20
9.022011138540105
 30
1.4177109619595285e-06
 10
9.312442368800845
 20
9.028901127993105
 30
1.4204796912054007e-06
 10
9.402473155136846
 20
9.035787896355105
 30
1.4234581158234505e-06
 10
9.492524701442846
 20
9.042606187013103
 30
1.4266096854953503e-06
 10
9.538625103559838
 20
9.046096698327105
 30
1.428223754373903e-06
 10
9.584730094630842
 20
9.049569197292103
 30
1.4298860264716495e-06
 10
9.630728072428838
 20
9.053014522477103
 30
1.43158553100875e-06
 10
9.735107741564846
 20
9.060832733628104
 30
1.43545861419625e-06
 10
9.838939269320846
 20
9.068511204407102
 30
1.4395576499737217e-06
 10
9.941364096566844
 20
9.075983498714102
 30
1.443845917492581e-06
 10
9.970095362429845
 20
9.078079557649101
 30
1.4450586149905575e-06
 10
9.998715624258836
 20
9.080159371598103
 30
1.4462796684711066e-06
 10
10.02720520374885
 20
9.082221424187104
 30
1.4475089642473904e-06
 10
10.108257913227845
 20
9.088087953371101
 30
1.4510242749565805e-06
 10
10.188257105593834
 20
9.093811013866102
 30
1.4546650959346152e-06
 10
10.266100684262852
 20
9.099310633431102
 30
1.4584034602194151e-06
 10
10.311337507970848
 20
9.1025065980171
 30
1.4605778346776788e-06
 10
10.355845368923838
 20
9.105627036307101
 30
1.462784609884693e-06
 10
10.399399953101835
 20
9.1086557003981
 30
1.4650321418230305e-06
 10
10.516338900574851
 20
9.1167873080761
 30
1.4710477671542321e-06
 10
10.626406165971844
 20
9.1242568998581
 30
1.4773063412576448e-06
 10
10.72831141032185
 20
9.1310347270751
 30
1.4837448816251708e-06
 10
10.78837656693085
 20
9.135029725133098
 30
1.4875406577630201e-06
 10
10.845600458334843
 20
9.138784128247098
 30
1.491392140451353e-06
 10
10.901129747560844
 20
9.142384349862098
 30
1.4952979654481169e-06
 10
10.957333194821842
 20
9.146028280272098
 30
1.4992582464401494e-06
 10
11.011800761338847
 20
9.149514271598097
 30
1.503262581081799e-06
 10
11.06577503180685
 20
9.152936014599096
 30
1.5073103440954583e-06
 10
11.120814991794845
 20
9.156425317860096
 30
1.5114349594114174e-06
 10
11.175342067413851
 20
9.159847816849096
 30
1.5155929418142478e-06
 10
11.230727919499842
 20
9.163306984187095
 30
1.519794636806182e-06
 10
11.246316133856851
 20
9.164280558483096
 30
1.5209736261567741e-06
 10
11.261972692322843
 20
9.165257061664096
 30
1.5221528997244604e-06
 10
11.277728909079855
 20
9.166238856627096
 30
1.523342689324636e-06
 10
11.361899822860835
 20
9.171483680337094
 30
1.5296659512387123e-06
 10
11.448919900134854
 20
9.176879916669094
 30
1.536044578642759e-06
 10
11.537917541816853
 20
9.182355225481093
 30
1.5424413390974223e-06
 10
11.629841560438848
 20
9.188010570720092
 30
1.5490464306822105e-06
 10
11.723875165768845
 20
9.193750258717092
 30
1.5556700532215473e-06
 10
11.819002995503837
 20
9.199490344918093
 30
1.5622539422111004e-06
 10
11.825900145282844
 20
9.19990652422409
 30
1.5627262541784148e-06
 10
11.832803024764843
 20
9.20032270390509
 30
1.5631985661457293e-06
 10
11.839711236612843
 20
9.20073885117409
 30
1.563680939398182e-06
 10
12.056226968778844
 20
9.213781651913092
 30
1.5786275753271184e-06
 10
12.277975528956844
 20
9.226792053617089
 30
1.5933613894958398e-06
 10
12.506060410525848
 20
9.239787025519085
 30
1.607334127129434e-06
 10
12.679136095096851
 20
9.249647888030086
 30
1.617927921415685e-06
 10
12.85586246548084
 20
9.259500031894085
 30
1.6280811792057648e-06
 10
13.036733179833845
 20
9.269353019735084
 30
1.6375447557948064e-06
 10
13.228952507788847
 20
9.279824226795082
 30
1.6476013797728228e-06
 10
13.425856928059844
 20
9.290296603403082
 30
1.6568783962611633e-06
 10
13.626952722714847
 20
9.30071544102108
 30
1.665070612943964e-06
 10
13.83877992261884
 20
9.311690276187083
 30
1.6737092778384977e-06
 10
14.055257664494846
 20
9.32260562163308
 30
1.681142521192669e-06
 10
14.275750644240858
 20
9.333397243781079
 30
1.6870335457497276e-06
 10
14.513172029325858
 20
9.345017395501081
 30
1.6933692563725344e-06
 10
14.755248731091854
 20
9.356493956653079
 30
1.697920822607557e-06
 10
15.001123275893846
 20
9.367748193281079
 30
1.7002504364427296e-06
 10
15.239003359193845
 20
9.37863650524008
 30
1.7024926250996941e-06
 10
15.480437152363848
 20
9.389316611638078
 30
1.7026643490680726e-06
 10
15.72460187594885
 20
9.399720327558079
 30
1.7003484913402644e-06
 10
16.054957390859855
 20
9.41379658263408
 30
1.6972182947938563e-06
 10
16.39031197607285
 20
9.42736630982808
 30
1.689557620920823e-06
 10
16.728261307916853
 20
9.440349173537083
 30
1.6763884218562453e-06
 10
17.099382942686844
 20
9.454606404281083
 30
1.6619296729913913e-06
 10
17.473627165353847
 20
9.468155329518083
 30
1.6408202441198227e-06
 10
17.847784202488853
 20
9.480911803625087
 30
1.6117912764457287e-06
 10
18.133196572677846
 20
9.49064262557609
 30
1.5896412719484942e-06
 10
18.42006363547185
 20
9.499965308545098
 30
1.5099905681381642e-06
 10
18.708142209845846
 20
9.508870789877102
 30
1.4781979871258955e-06
 10
18.708335835495845
 20
9.508876775499102
 30
1.4781686559217633e-06
 10
18.708529462167846
 20
9.5088827609481
 30
1.4781492723159317e-06
 10
18.708723089862858
 20
9.508888746222102
 30
1.4781298887101002e-06
 10
18.924528295540853
 20
9.515559555410103
 30
1.4543771271746664e-06
 10
19.141805193312848
 20
9.522013149184101
 30
1.4681327229482122e-06
 10
19.358595222261854
 20
9.5282160238961
 30
1.4945131283639057e-06
 10
19.467105460436855
 20
9.531320758074099
 30
1.5077135913088568e-06
 10
19.575493845899857
 20
9.534362768638097
 30
1.524077788417344e-06
 10
19.683947467509853
 20
9.537343346921094
 30
1.5404859254886105e-06
 10
19.879021220162855
 20
9.542704464256092
 30
1.5699999948992627e-06
 10
20.07430187318485
 20
9.54786658270309
 30
1.5996541833374067e-06
 10
20.268280378632852
 20
9.55281133335609
 30
1.611306458926265e-06
 10
20.444756790257856
 20
9.557309934114087
 30
1.6219024701058515e-06
 10
20.620153914029856
 20
9.561628654042089
 30
1.61758038075277e-06
 10
20.793382012158858
 20
9.565756681977092
 30
1.5846989640522224e-06
 10
20.945544493000853
 20
9.569382715965094
 30
1.5558054542452737e-06
 10
21.096033298400855
 20
9.5728616538541
 30
1.5048670434225642e-06
 10
21.24415629100986
 20
9.576188137038109
 30
1.4226130815586657e-06
 10
21.264662675085845
 20
9.576648660693108
 30
1.4112210351413523e-06
 10
21.28512379791985
 20
9.57710626536811
 30
1.3992386129757506e-06
 10
21.305537905248855
 20
9.577560939737111
 30
1.3866258541384013e-06
 10
21.305778137207852
 20
9.577566290317112
 30
1.386476526477054e-06
 10
21.30601837793185
 20
9.577571640787113
 30
1.38632702828545e-06
 10
21.306258627413854
 20
9.577576991147112
 30
1.386177586937265e-06
 10
21.379980000160856
 20
9.579218767350115
 30
1.3405884260464518e-06
 10
21.453567617440854
 20
9.580828897577119
 30
1.3064060908618558e-06
 10
21.52697118787985
 20
9.58240905516312
 30
1.2812707836928894e-06
 10
21.604707588832852
 20
9.584082485529123
 30
1.2546450989248115e-06
 10
21.682237972698857
 20
9.585722312326126
 30
1.2381660781102255e-06
 10
21.759560732281855
 20
9.587330961368126
 30
1.2289738720028254e-06
 10
21.845454024862846
 20
9.589117914700129
 30
1.2187803122287733e-06
 10
21.93109129207585
 20
9.590866412712128
 30
1.2175929100521898e-06
 10
22.016536001033856
 20
9.592580075638129
 30
1.2215419360472879e-06
 10
22.110394285881853
 20
9.594462479651126
 30
1.2258686297172972e-06
 10
22.204020995602846
 20
9.596302883328125
 30
1.2364010331111785e-06
 10
22.29756777228785
 20
9.598106015366124
 30
1.2479797533160308e-06
 10
22.41061788692585
 20
9.600285077978123
 30
1.261977786271018e-06
 10
22.52355252289385
 20
9.60240980908512
 30
1.2775103641615715e-06
 10
22.636719155421858
 20
9.604487351472121
 30
1.2854982287535677e-06
 10
22.778885304734857
 20
9.607097274509119
 30
1.2955318879903643e-06
 10
22.92142611150385
 20
9.609633131696121
 30
1.2936682196595939e-06
 10
23.065071691298854
 20
9.612103108493123
 30
1.261907925709238e-06
 10
23.160928391649847
 20
9.613751358485125
 30
1.240711299033137e-06
 10
23.257278084785852
 20
9.615370139258129
 30
1.2062117207278789e-06
 10
23.35430578479985
 20
9.616959311915135
 30
1.1530392498571018e-06
 10
23.40267846027885
 20
9.617751586010137
 30
1.126532765738375e-06
 10
23.451219013208856
 20
9.61853646371614
 30
1.0953855849038518e-06
 10
23.499945251048857
 20
9.619313674614144
 30
1.0589475891720213e-06
  0
LINE
  5
5F
330
17
100
AcDbEntity
  8
SANDING_GUIDE_NONCUT
100
AcDbLine
 10
23.499945134388867
 20
9.619320988501151
 30
9.64258311139565e-07
 11
28.627449368903868
 21
14.617201074792185
 31
9.296910323224438e-07
  0
LINE
  5
60
330
17
100
AcDbEntity
  8
SANDING_GUIDE_NONCUT
100
AcDbLine
 10
28.627449368903868
 20
14.617201074792185
 30
9.296910323224438e-07
 11
28.628058774474866
 21
14.634156826865183
 31
9.296923397210776e-07
  0
LINE
  5
61
330
17
100
AcDbEntity
  8
SANDING_GUIDE_NONCUT
100
AcDbLine
 10
28.628058774474866
 20
14.634156826865183
 30
9.296923397210776e-07
 11
39.77932620200086
 21
14.624895378802183
 31
9.296901796711609e-07
  0
LINE
  5
62
330
17
100
AcDbEntity
  8
SANDING_GUIDE_NONCUT
100
AcDbLine
 10
39.77932620200086
 20
14.624895378802183
 30
9.296901796711609e-07
 11
39.76910694744487
 21
2.320378881035121
 31
9.295102134070476e-07
  0
LINE
  5
63
330
17
100
AcDbEntity
  8
SANDING_GUIDE_NONCUT
100
AcDbLine
 10
39.76910694744487
 20
2.320378881035121
 30
9.295102134070476e-07
 11
62.56909908397387
 21
2.301442832343123
 31
9.295058364637953e-07
  0
ENDSEC
  0
SECTION
  2
OBJECTS
  0
DICTIONARY
  5
A
330
0
100
AcDbDictionary
281
1
  3
ACAD_COLOR
350
B
  3
ACAD_GROUP
350
C
  3
ACAD_LAYOUT
350
D
  3
ACAD_MATERIAL
350
E
  3
ACAD_MLEADERSTYLE
350
F
  3
ACAD_MLINESTYLE
350
10
  3
ACAD_PLOTSETTINGS
350
11
  3
ACAD_PLOTSTYLENAME
350
12
  3
ACAD_SCALELIST
350
14
  3
ACAD_TABLESTYLE
350
15
  3
ACAD_VISUALSTYLE
350
16
  3
EZDXF_META
350
2D
  0
DICTIONARY
  5
B
330
A
100
AcDbDictionary
281
1
  0
DICTIONARY
  5
C
330
A
100
AcDbDictionary
281
1
  0
DICTIONARY
  5
D
330
A
100
AcDbDictionary
281
1
  3
Model
350
1A
  3
Layout1
350
1E
  0
DICTIONARY
  5
E
330
A
100
AcDbDictionary
281
1
  3
ByBlock
350
1F
  3
ByLayer
350
20
  3
Global
350
21
  0
DICTIONARY
  5
F
330
A
100
AcDbDictionary
281
1
  3
Standard
350
2C
  0
DICTIONARY
  5
10
330
A
100
AcDbDictionary
281
1
  3
Standard
350
22
  0
DICTIONARY
  5
11
330
A
100
AcDbDictionary
281
1
  0
ACDBDICTIONARYWDFLT
  5
12
330
A
100
AcDbDictionary
281
1
  3
Normal
350
13
100
AcDbDictionaryWithDefault
340
13
  0
ACDBPLACEHOLDER
  5
13
330
12
  0
DICTIONARY
  5
14
330
A
100
AcDbDictionary
281
1
  0
DICTIONARY
  5
15
330
A
100
AcDbDictionary
281
1
  0
DICTIONARY
  5
16
330
A
100
AcDbDictionary
281
1
  0
LAYOUT
  5
1A
330
D
100
AcDbPlotSettings
  1

  4
A3
  6

 40
7.5
 41
20.0
 42
7.5
 43
20.0
 44
420.0
 45
297.0
 46
0.0
 47
0.0
 48
0.0
 49
0.0
140
0.0
141
0.0
142
1.0
143
1.0
 70
1024
 72
1
 73
0
 74
5
  7

 75
16
 76
0
 77
2
 78
300
147
1.0
148
0.0
149
0.0
100
AcDbLayout
  1
Model
 70
1
 71
0
 10
0.0
 20
0.0
 11
420.0
 21
297.0
 12
0.0
 22
0.0
 32
0.0
 14
1e+20
 24
1e+20
 34
1e+20
 15
-1e+20
 25
-1e+20
 35
-1e+20
146
0.0
 13
0.0
 23
0.0
 33
0.0
 16
1.0
 26
0.0
 36
0.0
 17
0.0
 27
1.0
 37
0.0
 76
1
330
17
  0
LAYOUT
  5
1E
330
D
100
AcDbPlotSettings
  1

  4
A3
  6

 40
7.5
 41
20.0
 42
7.5
 43
20.0
 44
420.0
 45
297.0
 46
0.0
 47
0.0
 48
0.0
 49
0.0
140
0.0
141
0.0
142
1.0
143
1.0
 70
0
 72
1
 73
0
 74
5
  7

 75
16
 76
0
 77
2
 78
300
147
1.0
148
0.0
149
0.0
100
AcDbLayout
  1
Layout1
 70
1
 71
1
 10
0.0
 20
0.0
 11
420.0
 21
297.0
 12
0.0
 22
0.0
 32
0.0
 14
1e+20
 24
1e+20
 34
1e+20
 15
-1e+20
 25
-1e+20
 35
-1e+20
146
0.0
 13
0.0
 23
0.0
 33
0.0
 16
1.0
 26
0.0
 36
0.0
 17
0.0
 27
1.0
 37
0.0
 76
1
330
1B
  0
MATERIAL
  5
1F
102
{ACAD_REACTORS
330
E
102
}
330
E
100
AcDbMaterial
  1
ByBlock
  2

 70
0
 40
1.0
 71
1
 41
1.0
 91
-1023410177
 42
1.0
 72
1
  3

 73
1
 74
1
 75
1
 44
0.5
 73
0
 45
1.0
 46
1.0
 77
1
  4

 78
1
 79
1
170
1
 48
1.0
171
1
  6

172
1
173
1
174
1
140
1.0
141
1.0
175
1
  7

176
1
177
1
178
1
143
1.0
179
1
  8

270
1
271
1
272
1
145
1.0
146
1.0
273
1
  9

274
1
275
1
276
1
 42
1.0
 72
1
  3

 73
1
 74
1
 75
1
 94
63
  0
MATERIAL
  5
20
102
{ACAD_REACTORS
330
E
102
}
330
E
100
AcDbMaterial
  1
ByLayer
  2

 70
0
 40
1.0
 71
1
 41
1.0
 91
-1023410177
 42
1.0
 72
1
  3

 73
1
 74
1
 75
1
 44
0.5
 73
0
 45
1.0
 46
1.0
 77
1
  4

 78
1
 79
1
170
1
 48
1.0
171
1
  6

172
1
173
1
174
1
140
1.0
141
1.0
175
1
  7

176
1
177
1
178
1
143
1.0
179
1
  8

270
1
271
1
272
1
145
1.0
146
1.0
273
1
  9

274
1
275
1
276
1
 42
1.0
 72
1
  3

 73
1
 74
1
 75
1
 94
63
  0
MATERIAL
  5
21
102
{ACAD_REACTORS
330
E
102
}
330
E
100
AcDbMaterial
  1
Global
  2

 70
0
 40
1.0
 71
1
 41
1.0
 91
-1023410177
 42
1.0
 72
1
  3

 73
1
 74
1
 75
1
 44
0.5
 73
0
 45
1.0
 46
1.0
 77
1
  4

 78
1
 79
1
170
1
 48
1.0
171
1
  6

172
1
173
1
174
1
140
1.0
141
1.0
175
1
  7

176
1
177
1
178
1
143
1.0
179
1
  8

270
1
271
1
272
1
145
1.0
146
1.0
273
1
  9

274
1
275
1
276
1
 42
1.0
 72
1
  3

 73
1
 74
1
 75
1
 94
63
  0
MLINESTYLE
  5
22
102
{ACAD_REACTORS
330
10
102
}
330
10
100
AcDbMlineStyle
  2
Standard
 70
0
  3

 62
256
 51
90.0
 52
90.0
 71
2
 49
0.5
 62
256
  6
BYLAYER
 49
-0.5
 62
256
  6
BYLAYER
  0
MLEADERSTYLE
  5
2C
102
{ACAD_REACTORS
330
F
102
}
330
F
100
AcDbMLeaderStyle
179
2
170
2
171
1
172
0
 90
2
 40
0.0
 41
0.0
173
1
 91
-1056964608
 92
-2
290
1
 42
2.0
291
1
 43
8.0
  3
Standard
 44
4.0
300

342
29
174
1
175
1
176
0
178
1
 93
-1056964608
 45
4.0
292
0
297
0
 46
4.0
 94
-1056964608
 47
1.0
 49
1.0
140
1.0
294
1
141
0.0
177
0
142
1.0
295
0
296
0
143
3.75
271
0
272
9
273
9
  0
DICTIONARY
  5
2D
330
A
100
AcDbDictionary
280
1
281
1
  3
CREATED_BY_EZDXF
350
2E
  3
WRITTEN_BY_EZDXF
350
48
  0
DICTIONARYVAR
  5
2E
330
2D
100
DictionaryVariables
280
0
  1
1.4.4 @ 2026-09-19T11:24:47.028826+00:00
  0
DICTIONARYVAR
  5
48
330
2D
100
DictionaryVariables
280
0
  1
1.4.4 @ 2026-09-19T11:25:50.642357+00:00
  0
ENDSEC
  0
EOF
