ISO-10303-21;
HEADER;
FILE_DESCRIPTION(('Open CASCADE Model'),'2;1');
FILE_NAME('Open CASCADE Shape Model','2026-09-21T14:53:21',('Author'),(
    'Open CASCADE'),'Open CASCADE STEP processor 7.9','Open CASCADE 7.9'
  ,'Unknown');
FILE_SCHEMA(('AUTOMOTIVE_DESIGN { 1 0 10303 214 1 1 1 1 }'));
ENDSEC;
DATA;
#1 = APPLICATION_PROTOCOL_DEFINITION('international standard',
  'automotive_design',2000,#2);
#2 = APPLICATION_CONTEXT(
  'core data for automotive mechanical design processes');
#3 = SHAPE_DEFINITION_REPRESENTATION(#4,#10);
#4 = PRODUCT_DEFINITION_SHAPE('','',#5);
#5 = PRODUCT_DEFINITION('design','',#6,#9);
#6 = PRODUCT_DEFINITION_FORMATION('','',#7);
#7 = PRODUCT('Open CASCADE STEP translator 7.9 4',
  'Open CASCADE STEP translator 7.9 4','',(#8));
#8 = PRODUCT_CONTEXT('',#2,'mechanical');
#9 = PRODUCT_DEFINITION_CONTEXT('part definition',#2,'design');
#10 = ADVANCED_BREP_SHAPE_REPRESENTATION('',(#11,#15),#912);
#11 = AXIS2_PLACEMENT_3D('',#12,#13,#14);
#12 = CARTESIAN_POINT('',(0.,0.,0.));
#13 = DIRECTION('',(0.,0.,1.));
#14 = DIRECTION('',(1.,0.,-0.));
#15 = MANIFOLD_SOLID_BREP('',#16);
#16 = CLOSED_SHELL('',(#17,#113,#223,#299,#378,#458,#534,#610,#686,#762,
    #833,#880,#896));
#17 = ADVANCED_FACE('',(#18),#31,.F.);
#18 = FACE_BOUND('',#19,.T.);
#19 = EDGE_LOOP('',(#20,#58,#81,#112));
#20 = ORIENTED_EDGE('',*,*,#21,.T.);
#21 = EDGE_CURVE('',#22,#22,#24,.T.);
#22 = VERTEX_POINT('',#23);
#23 = CARTESIAN_POINT('',(-773.1064460066,143.91825274688,
    14.078036438032));
#24 = SURFACE_CURVE('',#25,(#30,#42),.PCURVE_S1.);
#25 = CIRCLE('',#26,1.5);
#26 = AXIS2_PLACEMENT_3D('',#27,#28,#29);
#27 = CARTESIAN_POINT('',(-773.1140431081,142.41827259666,14.07668256131
    ));
#28 = DIRECTION('',(-0.999723686394,5.042679038667E-03,
    2.295914309529E-02));
#29 = DIRECTION('',(5.064734329236E-03,0.999986766816,9.025844812182E-04
    ));
#30 = PCURVE('',#31,#36);
#31 = CYLINDRICAL_SURFACE('',#32,1.5);
#32 = AXIS2_PLACEMENT_3D('',#33,#34,#35);
#33 = CARTESIAN_POINT('',(-773.1140431081,142.41827259666,14.07668256131
    ));
#34 = DIRECTION('',(-0.999723686394,5.042679038667E-03,
    2.295914309529E-02));
#35 = DIRECTION('',(5.064734329236E-03,0.999986766816,9.025844812182E-04
    ));
#36 = DEFINITIONAL_REPRESENTATION('',(#37),#41);
#37 = LINE('',#38,#39);
#38 = CARTESIAN_POINT('',(-6.28318530718,0.));
#39 = VECTOR('',#40,1.);
#40 = DIRECTION('',(1.,-0.));
#41 = ( GEOMETRIC_REPRESENTATION_CONTEXT(2) 
PARAMETRIC_REPRESENTATION_CONTEXT() REPRESENTATION_CONTEXT('2D SPACE',''
  ) );
#42 = PCURVE('',#43,#48);
#43 = PLANE('',#44);
#44 = AXIS2_PLACEMENT_3D('',#45,#46,#47);
#45 = CARTESIAN_POINT('',(-772.9912199371,163.41726410617,
    14.812688206661));
#46 = DIRECTION('',(0.999723686394,-5.042679038667E-03,
    -2.295914309529E-02));
#47 = DIRECTION('',(5.064734329236E-03,0.999986766816,9.025844812182E-04
    ));
#48 = DEFINITIONAL_REPRESENTATION('',(#49),#57);
#49 = ( BOUNDED_CURVE() B_SPLINE_CURVE(2,(#50,#51,#52,#53,#54,#55,#56),
.UNSPECIFIED.,.T.,.F.) B_SPLINE_CURVE_WITH_KNOTS((1,2,2,2,2,1),(
    -2.094395102393,0.,2.094395102393,4.188790204786,6.28318530718,
8.377580409573),.UNSPECIFIED.) CURVE() GEOMETRIC_REPRESENTATION_ITEM() 
RATIONAL_B_SPLINE_CURVE((1.,0.5,1.,0.5,1.,0.5,1.)) REPRESENTATION_ITEM(
  '') );
#50 = CARTESIAN_POINT('',(-19.49999999999,-0.717240725167));
#51 = CARTESIAN_POINT('',(-19.49999999999,-3.31531693652));
#52 = CARTESIAN_POINT('',(-21.74999999999,-2.016278830843));
#53 = CARTESIAN_POINT('',(-23.99999999999,-0.717240725167));
#54 = CARTESIAN_POINT('',(-21.74999999999,0.58179738051));
#55 = CARTESIAN_POINT('',(-19.49999999999,1.880835486187));
#56 = CARTESIAN_POINT('',(-19.49999999999,-0.717240725167));
#57 = ( GEOMETRIC_REPRESENTATION_CONTEXT(2) 
PARAMETRIC_REPRESENTATION_CONTEXT() REPRESENTATION_CONTEXT('2D SPACE',''
  ) );
#58 = ORIENTED_EDGE('',*,*,#59,.T.);
#59 = EDGE_CURVE('',#22,#60,#62,.T.);
#60 = VERTEX_POINT('',#61);
#61 = CARTESIAN_POINT('',(-770.1072749474,143.90312470976,
    14.009159008746));
#62 = SEAM_CURVE('',#63,(#67,#74),.PCURVE_S1.);
#63 = LINE('',#64,#65);
#64 = CARTESIAN_POINT('',(-773.1064460066,143.91825274688,
    14.078036438032));
#65 = VECTOR('',#66,1.);
#66 = DIRECTION('',(0.999723686394,-5.042679038667E-03,
    -2.295914309529E-02));
#67 = PCURVE('',#31,#68);
#68 = DEFINITIONAL_REPRESENTATION('',(#69),#73);
#69 = LINE('',#70,#71);
#70 = CARTESIAN_POINT('',(4.138911435803E-13,-0.));
#71 = VECTOR('',#72,1.);
#72 = DIRECTION('',(-0.,-1.));
#73 = ( GEOMETRIC_REPRESENTATION_CONTEXT(2) 
PARAMETRIC_REPRESENTATION_CONTEXT() REPRESENTATION_CONTEXT('2D SPACE',''
  ) );
#74 = PCURVE('',#31,#75);
#75 = DEFINITIONAL_REPRESENTATION('',(#76),#80);
#76 = LINE('',#77,#78);
#77 = CARTESIAN_POINT('',(-6.28318530718,0.));
#78 = VECTOR('',#79,1.);
#79 = DIRECTION('',(-0.,-1.));
#80 = ( GEOMETRIC_REPRESENTATION_CONTEXT(2) 
PARAMETRIC_REPRESENTATION_CONTEXT() REPRESENTATION_CONTEXT('2D SPACE',''
  ) );
#81 = ORIENTED_EDGE('',*,*,#82,.F.);
#82 = EDGE_CURVE('',#60,#60,#83,.T.);
#83 = SURFACE_CURVE('',#84,(#89,#96),.PCURVE_S1.);
#84 = CIRCLE('',#85,1.5);
#85 = AXIS2_PLACEMENT_3D('',#86,#87,#88);
#86 = CARTESIAN_POINT('',(-770.1148720489,142.40314455954,
    14.007805132024));
#87 = DIRECTION('',(-0.999723686394,5.042679038667E-03,
    2.295914309529E-02));
#88 = DIRECTION('',(5.064734329236E-03,0.999986766816,9.025844812182E-04
    ));
#89 = PCURVE('',#31,#90);
#90 = DEFINITIONAL_REPRESENTATION('',(#91),#95);
#91 = LINE('',#92,#93);
#92 = CARTESIAN_POINT('',(-6.28318530718,-2.999999999999));
#93 = VECTOR('',#94,1.);
#94 = DIRECTION('',(1.,-0.));
#95 = ( GEOMETRIC_REPRESENTATION_CONTEXT(2) 
PARAMETRIC_REPRESENTATION_CONTEXT() REPRESENTATION_CONTEXT('2D SPACE',''
  ) );
#96 = PCURVE('',#97,#102);
#97 = PLANE('',#98);
#98 = AXIS2_PLACEMENT_3D('',#99,#100,#101);
#99 = CARTESIAN_POINT('',(-769.9920488779,163.40213606905,
    14.743810777375));
#100 = DIRECTION('',(0.999723686394,-5.042679038667E-03,
    -2.295914309529E-02));
#101 = DIRECTION('',(5.064734329236E-03,0.999986766816,
    9.025844812182E-04));
#102 = DEFINITIONAL_REPRESENTATION('',(#103),#111);
#103 = ( BOUNDED_CURVE() B_SPLINE_CURVE(2,(#104,#105,#106,#107,#108,#109
,#110),.UNSPECIFIED.,.T.,.F.) B_SPLINE_CURVE_WITH_KNOTS((1,2,2,2,2,1),(
    -2.094395102393,0.,2.094395102393,4.188790204786,6.28318530718,
8.377580409573),.UNSPECIFIED.) CURVE() GEOMETRIC_REPRESENTATION_ITEM() 
RATIONAL_B_SPLINE_CURVE((1.,0.5,1.,0.5,1.,0.5,1.)) REPRESENTATION_ITEM(
  '') );
#104 = CARTESIAN_POINT('',(-19.49999999999,-0.717240725167));
#105 = CARTESIAN_POINT('',(-19.49999999999,-3.31531693652));
#106 = CARTESIAN_POINT('',(-21.74999999999,-2.016278830843));
#107 = CARTESIAN_POINT('',(-23.99999999999,-0.717240725167));
#108 = CARTESIAN_POINT('',(-21.74999999999,0.58179738051));
#109 = CARTESIAN_POINT('',(-19.49999999999,1.880835486187));
#110 = CARTESIAN_POINT('',(-19.49999999999,-0.717240725167));
#111 = ( GEOMETRIC_REPRESENTATION_CONTEXT(2) 
PARAMETRIC_REPRESENTATION_CONTEXT() REPRESENTATION_CONTEXT('2D SPACE',''
  ) );
#112 = ORIENTED_EDGE('',*,*,#59,.F.);
#113 = ADVANCED_FACE('',(#114),#128,.F.);
#114 = FACE_BOUND('',#115,.T.);
#115 = EDGE_LOOP('',(#116,#151,#174,#202));
#116 = ORIENTED_EDGE('',*,*,#117,.T.);
#117 = EDGE_CURVE('',#118,#120,#122,.T.);
#118 = VERTEX_POINT('',#119);
#119 = CARTESIAN_POINT('',(-773.2927605864,133.42429967417,
    8.270090520143));
#120 = VERTEX_POINT('',#121);
#121 = CARTESIAN_POINT('',(-770.2935895273,133.40917163705,
    8.201213090857));
#122 = SURFACE_CURVE('',#123,(#127,#139),.PCURVE_S1.);
#123 = LINE('',#124,#125);
#124 = CARTESIAN_POINT('',(-773.2927605864,133.42429967417,
    8.270090520143));
#125 = VECTOR('',#126,1.);
#126 = DIRECTION('',(0.999723686394,-5.042679038667E-03,
    -2.295914309529E-02));
#127 = PCURVE('',#128,#133);
#128 = PLANE('',#129);
#129 = AXIS2_PLACEMENT_3D('',#130,#131,#132);
#130 = CARTESIAN_POINT('',(-773.2927605864,133.42429967417,
    8.270090520143));
#131 = DIRECTION('',(5.064734329239E-03,0.999986766816,
    9.025844812181E-04));
#132 = DIRECTION('',(-2.29542878289E-02,1.01861704505E-03,
    -0.999735996696));
#133 = DEFINITIONAL_REPRESENTATION('',(#134),#138);
#134 = LINE('',#135,#136);
#135 = CARTESIAN_POINT('',(-0.,0.));
#136 = VECTOR('',#137,1.);
#137 = DIRECTION('',(-1.250735626179E-14,-1.));
#138 = ( GEOMETRIC_REPRESENTATION_CONTEXT(2) 
PARAMETRIC_REPRESENTATION_CONTEXT() REPRESENTATION_CONTEXT('2D SPACE',''
  ) );
#139 = PCURVE('',#140,#145);
#140 = PLANE('',#141);
#141 = AXIS2_PLACEMENT_3D('',#142,#143,#144);
#142 = CARTESIAN_POINT('',(-772.9877217325,193.41767496957,
    8.375810123525));
#143 = DIRECTION('',(2.294992465889E-02,-1.878410576303E-03,
    0.999734851114));
#144 = DIRECTION('',(5.084468675147E-03,0.999985521376,
    1.762162441886E-03));
#145 = DEFINITIONAL_REPRESENTATION('',(#146),#150);
#146 = LINE('',#147,#148);
#147 = CARTESIAN_POINT('',(-59.99424392949,1.338613681706E-12));
#148 = VECTOR('',#149,1.);
#149 = DIRECTION('',(-2.893383232658E-15,-1.));
#150 = ( GEOMETRIC_REPRESENTATION_CONTEXT(2) 
PARAMETRIC_REPRESENTATION_CONTEXT() REPRESENTATION_CONTEXT('2D SPACE',''
  ) );
#151 = ORIENTED_EDGE('',*,*,#152,.T.);
#152 = EDGE_CURVE('',#120,#153,#155,.T.);
#153 = VERTEX_POINT('',#154);
#154 = CARTESIAN_POINT('',(-770.2925519514,133.4091255937,8.246402989938
    ));
#155 = SURFACE_CURVE('',#156,(#160,#167),.PCURVE_S1.);
#156 = LINE('',#157,#158);
#157 = CARTESIAN_POINT('',(-770.2935895273,133.40917163705,
    8.201213090857));
#158 = VECTOR('',#159,1.);
#159 = DIRECTION('',(2.29542878289E-02,-1.01861704505E-03,0.999735996696
    ));
#160 = PCURVE('',#128,#161);
#161 = DEFINITIONAL_REPRESENTATION('',(#162),#166);
#162 = LINE('',#163,#164);
#163 = CARTESIAN_POINT('',(1.068589661202E-13,-2.999999999999));
#164 = VECTOR('',#165,1.);
#165 = DIRECTION('',(-1.,-6.938893903907E-18));
#166 = ( GEOMETRIC_REPRESENTATION_CONTEXT(2) 
PARAMETRIC_REPRESENTATION_CONTEXT() REPRESENTATION_CONTEXT('2D SPACE',''
  ) );
#167 = PCURVE('',#97,#168);
#168 = DEFINITIONAL_REPRESENTATION('',(#169),#173);
#169 = LINE('',#170,#171);
#170 = CARTESIAN_POINT('',(-30.,-6.517240725166));
#171 = VECTOR('',#172,1.);
#172 = DIRECTION('',(-1.582935171829E-16,1.));
#173 = ( GEOMETRIC_REPRESENTATION_CONTEXT(2) 
PARAMETRIC_REPRESENTATION_CONTEXT() REPRESENTATION_CONTEXT('2D SPACE',''
  ) );
#174 = ORIENTED_EDGE('',*,*,#175,.F.);
#175 = EDGE_CURVE('',#176,#153,#178,.T.);
#176 = VERTEX_POINT('',#177);
#177 = CARTESIAN_POINT('',(-773.2917230106,133.42425363082,
    8.315280419224));
#178 = SURFACE_CURVE('',#179,(#183,#190),.PCURVE_S1.);
#179 = LINE('',#180,#181);
#180 = CARTESIAN_POINT('',(-773.2917230106,133.42425363082,
    8.315280419224));
#181 = VECTOR('',#182,1.);
#182 = DIRECTION('',(0.999723686394,-5.042679038667E-03,
    -2.295914309529E-02));
#183 = PCURVE('',#128,#184);
#184 = DEFINITIONAL_REPRESENTATION('',(#185),#189);
#185 = LINE('',#186,#187);
#186 = CARTESIAN_POINT('',(-4.520183251404E-02,3.93533816645E-12));
#187 = VECTOR('',#188,1.);
#188 = DIRECTION('',(-1.250735626179E-14,-1.));
#189 = ( GEOMETRIC_REPRESENTATION_CONTEXT(2) 
PARAMETRIC_REPRESENTATION_CONTEXT() REPRESENTATION_CONTEXT('2D SPACE',''
  ) );
#190 = PCURVE('',#191,#196);
#191 = PLANE('',#192);
#192 = AXIS2_PLACEMENT_3D('',#193,#194,#195);
#193 = CARTESIAN_POINT('',(-773.2917230106,133.42425363081,
    8.315280419218));
#194 = DIRECTION('',(1.981611802017E-02,0.706171305393,0.707763667411));
#195 = DIRECTION('',(-1.264406304032E-02,0.708023063768,-0.706076106976)
  );
#196 = DEFINITIONAL_REPRESENTATION('',(#197),#201);
#197 = LINE('',#198,#199);
#198 = CARTESIAN_POINT('',(2.975692156644E-12,1.019705783116E-11));
#199 = VECTOR('',#200,1.);
#200 = DIRECTION('',(4.024558464266E-16,-1.));
#201 = ( GEOMETRIC_REPRESENTATION_CONTEXT(2) 
PARAMETRIC_REPRESENTATION_CONTEXT() REPRESENTATION_CONTEXT('2D SPACE',''
  ) );
#202 = ORIENTED_EDGE('',*,*,#203,.F.);
#203 = EDGE_CURVE('',#118,#176,#204,.T.);
#204 = SURFACE_CURVE('',#205,(#209,#216),.PCURVE_S1.);
#205 = LINE('',#206,#207);
#206 = CARTESIAN_POINT('',(-773.2927605864,133.42429967417,
    8.270090520143));
#207 = VECTOR('',#208,1.);
#208 = DIRECTION('',(2.29542878289E-02,-1.01861704505E-03,0.999735996696
    ));
#209 = PCURVE('',#128,#210);
#210 = DEFINITIONAL_REPRESENTATION('',(#211),#215);
#211 = LINE('',#212,#213);
#212 = CARTESIAN_POINT('',(-0.,0.));
#213 = VECTOR('',#214,1.);
#214 = DIRECTION('',(-1.,-6.938893903907E-18));
#215 = ( GEOMETRIC_REPRESENTATION_CONTEXT(2) 
PARAMETRIC_REPRESENTATION_CONTEXT() REPRESENTATION_CONTEXT('2D SPACE',''
  ) );
#216 = PCURVE('',#43,#217);
#217 = DEFINITIONAL_REPRESENTATION('',(#218),#222);
#218 = LINE('',#219,#220);
#219 = CARTESIAN_POINT('',(-30.,-6.517240725166));
#220 = VECTOR('',#221,1.);
#221 = DIRECTION('',(-1.582935171829E-16,1.));
#222 = ( GEOMETRIC_REPRESENTATION_CONTEXT(2) 
PARAMETRIC_REPRESENTATION_CONTEXT() REPRESENTATION_CONTEXT('2D SPACE',''
  ) );
#223 = ADVANCED_FACE('',(#224),#140,.F.);
#224 = FACE_BOUND('',#225,.T.);
#225 = EDGE_LOOP('',(#226,#256,#277,#278));
#226 = ORIENTED_EDGE('',*,*,#227,.T.);
#227 = EDGE_CURVE('',#228,#230,#232,.T.);
#228 = VERTEX_POINT('',#229);
#229 = CARTESIAN_POINT('',(-772.9877217325,193.41767496957,
    8.375810123525));
#230 = VERTEX_POINT('',#231);
#231 = CARTESIAN_POINT('',(-769.9885506733,193.40254693245,8.30693269424
    ));
#232 = SURFACE_CURVE('',#233,(#237,#244),.PCURVE_S1.);
#233 = LINE('',#234,#235);
#234 = CARTESIAN_POINT('',(-772.9877217325,193.41767496957,
    8.375810123525));
#235 = VECTOR('',#236,1.);
#236 = DIRECTION('',(0.999723686394,-5.042679038667E-03,
    -2.295914309529E-02));
#237 = PCURVE('',#140,#238);
#238 = DEFINITIONAL_REPRESENTATION('',(#239),#243);
#239 = LINE('',#240,#241);
#240 = CARTESIAN_POINT('',(-5.04634709547E-14,1.000693844451E-11));
#241 = VECTOR('',#242,1.);
#242 = DIRECTION('',(-2.893383232658E-15,-1.));
#243 = ( GEOMETRIC_REPRESENTATION_CONTEXT(2) 
PARAMETRIC_REPRESENTATION_CONTEXT() REPRESENTATION_CONTEXT('2D SPACE',''
  ) );
#244 = PCURVE('',#245,#250);
#245 = PLANE('',#246);
#246 = AXIS2_PLACEMENT_3D('',#247,#248,#249);
#247 = CARTESIAN_POINT('',(-772.9841258457,193.42329486743,
    8.531153633802));
#248 = DIRECTION('',(-4.208201366156E-03,-0.999333872746,
    3.625054238375E-02));
#249 = DIRECTION('',(2.312664923457E-02,3.614390916831E-02,
    0.999078963809));
#250 = DEFINITIONAL_REPRESENTATION('',(#251),#255);
#251 = LINE('',#252,#253);
#252 = CARTESIAN_POINT('',(-0.155486719173,5.048393127149E-12));
#253 = VECTOR('',#254,1.);
#254 = DIRECTION('',(1.873501354055E-15,-1.));
#255 = ( GEOMETRIC_REPRESENTATION_CONTEXT(2) 
PARAMETRIC_REPRESENTATION_CONTEXT() REPRESENTATION_CONTEXT('2D SPACE',''
  ) );
#256 = ORIENTED_EDGE('',*,*,#257,.T.);
#257 = EDGE_CURVE('',#230,#120,#258,.T.);
#258 = SURFACE_CURVE('',#259,(#263,#270),.PCURVE_S1.);
#259 = LINE('',#260,#261);
#260 = CARTESIAN_POINT('',(-770.1003427088,171.41590014588,8.26818809008
    ));
#261 = VECTOR('',#262,1.);
#262 = DIRECTION('',(-5.084468675147E-03,-0.999985521376,
    -1.762162441886E-03));
#263 = PCURVE('',#140,#264);
#264 = DEFINITIONAL_REPRESENTATION('',(#265),#269);
#265 = LINE('',#266,#267);
#266 = CARTESIAN_POINT('',(-21.98696512757,-2.999999999992));
#267 = VECTOR('',#268,1.);
#268 = DIRECTION('',(-1.,-2.453007415248E-18));
#269 = ( GEOMETRIC_REPRESENTATION_CONTEXT(2) 
PARAMETRIC_REPRESENTATION_CONTEXT() REPRESENTATION_CONTEXT('2D SPACE',''
  ) );
#270 = PCURVE('',#97,#271);
#271 = DEFINITIONAL_REPRESENTATION('',(#272),#276);
#272 = LINE('',#273,#274);
#273 = CARTESIAN_POINT('',(8.00726475319,-6.484561865956));
#274 = VECTOR('',#275,1.);
#275 = DIRECTION('',(-0.999999630367,-8.598052857289E-04));
#276 = ( GEOMETRIC_REPRESENTATION_CONTEXT(2) 
PARAMETRIC_REPRESENTATION_CONTEXT() REPRESENTATION_CONTEXT('2D SPACE',''
  ) );
#277 = ORIENTED_EDGE('',*,*,#117,.F.);
#278 = ORIENTED_EDGE('',*,*,#279,.F.);
#279 = EDGE_CURVE('',#228,#118,#280,.T.);
#280 = SURFACE_CURVE('',#281,(#285,#292),.PCURVE_S1.);
#281 = LINE('',#282,#283);
#282 = CARTESIAN_POINT('',(-773.099513768,171.431028183,8.337065519366)
  );
#283 = VECTOR('',#284,1.);
#284 = DIRECTION('',(-5.084468675147E-03,-0.999985521376,
    -1.762162441886E-03));
#285 = PCURVE('',#140,#286);
#286 = DEFINITIONAL_REPRESENTATION('',(#287),#291);
#287 = LINE('',#288,#289);
#288 = CARTESIAN_POINT('',(-21.98696512756,7.302411713511E-12));
#289 = VECTOR('',#290,1.);
#290 = DIRECTION('',(-1.,-2.453007415248E-18));
#291 = ( GEOMETRIC_REPRESENTATION_CONTEXT(2) 
PARAMETRIC_REPRESENTATION_CONTEXT() REPRESENTATION_CONTEXT('2D SPACE',''
  ) );
#292 = PCURVE('',#43,#293);
#293 = DEFINITIONAL_REPRESENTATION('',(#294),#298);
#294 = LINE('',#295,#296);
#295 = CARTESIAN_POINT('',(8.00726475319,-6.484561865956));
#296 = VECTOR('',#297,1.);
#297 = DIRECTION('',(-0.999999630367,-8.598052857289E-04));
#298 = ( GEOMETRIC_REPRESENTATION_CONTEXT(2) 
PARAMETRIC_REPRESENTATION_CONTEXT() REPRESENTATION_CONTEXT('2D SPACE',''
  ) );
#299 = ADVANCED_FACE('',(#300),#245,.F.);
#300 = FACE_BOUND('',#301,.T.);
#301 = EDGE_LOOP('',(#302,#335,#356,#357));
#302 = ORIENTED_EDGE('',*,*,#303,.T.);
#303 = EDGE_CURVE('',#304,#306,#308,.T.);
#304 = VERTEX_POINT('',#305);
#305 = CARTESIAN_POINT('',(-772.9841258457,193.42329486743,
    8.531153633802));
#306 = VERTEX_POINT('',#307);
#307 = CARTESIAN_POINT('',(-769.9849547865,193.40816683031,
    8.462276204517));
#308 = SURFACE_CURVE('',#309,(#313,#320),.PCURVE_S1.);
#309 = LINE('',#310,#311);
#310 = CARTESIAN_POINT('',(-772.9841258457,193.42329486743,
    8.531153633802));
#311 = VECTOR('',#312,1.);
#312 = DIRECTION('',(0.999723686394,-5.042679038667E-03,
    -2.295914309529E-02));
#313 = PCURVE('',#245,#314);
#314 = DEFINITIONAL_REPRESENTATION('',(#315),#319);
#315 = LINE('',#316,#317);
#316 = CARTESIAN_POINT('',(0.,-0.));
#317 = VECTOR('',#318,1.);
#318 = DIRECTION('',(1.873501354055E-15,-1.));
#319 = ( GEOMETRIC_REPRESENTATION_CONTEXT(2) 
PARAMETRIC_REPRESENTATION_CONTEXT() REPRESENTATION_CONTEXT('2D SPACE',''
  ) );
#320 = PCURVE('',#321,#329);
#321 = SURFACE_OF_LINEAR_EXTRUSION('',#322,#327);
#322 = B_SPLINE_CURVE_WITH_KNOTS('',3,(#323,#324,#325,#326),
  .UNSPECIFIED.,.F.,.F.,(4,4),(-7.663017220357,-5.041282201384E-02),
  .PIECEWISE_BEZIER_KNOTS.);
#323 = CARTESIAN_POINT('',(-772.9841258457,193.42329486743,
    8.531153633802));
#324 = CARTESIAN_POINT('',(-772.9716226345,183.46631500386,
    11.26251036264));
#325 = CARTESIAN_POINT('',(-772.9413010262,158.57997391306,
    18.048785444481));
#326 = CARTESIAN_POINT('',(-772.9935633475,133.4110225292,
    21.301130824304));
#327 = VECTOR('',#328,1.);
#328 = DIRECTION('',(-0.999723686394,5.042679038667E-03,
    2.295914309529E-02));
#329 = DEFINITIONAL_REPRESENTATION('',(#330),#334);
#330 = LINE('',#331,#332);
#331 = CARTESIAN_POINT('',(-7.663017220357,0.));
#332 = VECTOR('',#333,1.);
#333 = DIRECTION('',(0.,-1.));
#334 = ( GEOMETRIC_REPRESENTATION_CONTEXT(2) 
PARAMETRIC_REPRESENTATION_CONTEXT() REPRESENTATION_CONTEXT('2D SPACE',''
  ) );
#335 = ORIENTED_EDGE('',*,*,#336,.T.);
#336 = EDGE_CURVE('',#306,#230,#337,.T.);
#337 = SURFACE_CURVE('',#338,(#342,#349),.PCURVE_S1.);
#338 = LINE('',#339,#340);
#339 = CARTESIAN_POINT('',(-769.9849547865,193.40816683031,
    8.462276204517));
#340 = VECTOR('',#341,1.);
#341 = DIRECTION('',(-2.312664923457E-02,-3.614390916829E-02,
    -0.999078963809));
#342 = PCURVE('',#245,#343);
#343 = DEFINITIONAL_REPRESENTATION('',(#344),#348);
#344 = LINE('',#345,#346);
#345 = CARTESIAN_POINT('',(7.123468481751E-13,-2.999999999999));
#346 = VECTOR('',#347,1.);
#347 = DIRECTION('',(-1.,6.938893903907E-18));
#348 = ( GEOMETRIC_REPRESENTATION_CONTEXT(2) 
PARAMETRIC_REPRESENTATION_CONTEXT() REPRESENTATION_CONTEXT('2D SPACE',''
  ) );
#349 = PCURVE('',#97,#350);
#350 = DEFINITIONAL_REPRESENTATION('',(#351),#355);
#351 = LINE('',#352,#353);
#352 = CARTESIAN_POINT('',(30.000000000003,-6.310278041547));
#353 = VECTOR('',#354,1.);
#354 = DIRECTION('',(-3.716231437184E-02,-0.999309242622));
#355 = ( GEOMETRIC_REPRESENTATION_CONTEXT(2) 
PARAMETRIC_REPRESENTATION_CONTEXT() REPRESENTATION_CONTEXT('2D SPACE',''
  ) );
#356 = ORIENTED_EDGE('',*,*,#227,.F.);
#357 = ORIENTED_EDGE('',*,*,#358,.F.);
#358 = EDGE_CURVE('',#304,#228,#359,.T.);
#359 = SURFACE_CURVE('',#360,(#364,#371),.PCURVE_S1.);
#360 = LINE('',#361,#362);
#361 = CARTESIAN_POINT('',(-772.9841258457,193.42329486743,
    8.531153633802));
#362 = VECTOR('',#363,1.);
#363 = DIRECTION('',(-2.312664923457E-02,-3.614390916829E-02,
    -0.999078963809));
#364 = PCURVE('',#245,#365);
#365 = DEFINITIONAL_REPRESENTATION('',(#366),#370);
#366 = LINE('',#367,#368);
#367 = CARTESIAN_POINT('',(0.,-0.));
#368 = VECTOR('',#369,1.);
#369 = DIRECTION('',(-1.,6.938893903907E-18));
#370 = ( GEOMETRIC_REPRESENTATION_CONTEXT(2) 
PARAMETRIC_REPRESENTATION_CONTEXT() REPRESENTATION_CONTEXT('2D SPACE',''
  ) );
#371 = PCURVE('',#43,#372);
#372 = DEFINITIONAL_REPRESENTATION('',(#373),#377);
#373 = LINE('',#374,#375);
#374 = CARTESIAN_POINT('',(30.000000000003,-6.310278041548));
#375 = VECTOR('',#376,1.);
#376 = DIRECTION('',(-3.716231437184E-02,-0.999309242622));
#377 = ( GEOMETRIC_REPRESENTATION_CONTEXT(2) 
PARAMETRIC_REPRESENTATION_CONTEXT() REPRESENTATION_CONTEXT('2D SPACE',''
  ) );
#378 = ADVANCED_FACE('',(#379),#321,.F.);
#379 = FACE_BOUND('',#380,.F.);
#380 = EDGE_LOOP('',(#381,#382,#407,#435));
#381 = ORIENTED_EDGE('',*,*,#303,.T.);
#382 = ORIENTED_EDGE('',*,*,#383,.T.);
#383 = EDGE_CURVE('',#306,#384,#386,.T.);
#384 = VERTEX_POINT('',#385);
#385 = CARTESIAN_POINT('',(-769.9943922884,133.39589449208,
    21.232253395018));
#386 = SURFACE_CURVE('',#387,(#392,#399),.PCURVE_S1.);
#387 = B_SPLINE_CURVE_WITH_KNOTS('',3,(#388,#389,#390,#391),
  .UNSPECIFIED.,.F.,.F.,(4,4),(-7.663017220357,-5.041282201384E-02),
  .PIECEWISE_BEZIER_KNOTS.);
#388 = CARTESIAN_POINT('',(-769.9849547865,193.40816683031,
    8.462276204517));
#389 = CARTESIAN_POINT('',(-769.9724515754,183.45118696674,
    11.193632933354));
#390 = CARTESIAN_POINT('',(-769.942129967,158.56484587594,
    17.979908015195));
#391 = CARTESIAN_POINT('',(-769.9943922884,133.39589449208,
    21.232253395018));
#392 = PCURVE('',#321,#393);
#393 = DEFINITIONAL_REPRESENTATION('',(#394),#398);
#394 = LINE('',#395,#396);
#395 = CARTESIAN_POINT('',(0.,-2.999999999999));
#396 = VECTOR('',#397,1.);
#397 = DIRECTION('',(1.,0.));
#398 = ( GEOMETRIC_REPRESENTATION_CONTEXT(2) 
PARAMETRIC_REPRESENTATION_CONTEXT() REPRESENTATION_CONTEXT('2D SPACE',''
  ) );
#399 = PCURVE('',#97,#400);
#400 = DEFINITIONAL_REPRESENTATION('',(#401),#406);
#401 = B_SPLINE_CURVE_WITH_KNOTS('',3,(#402,#403,#404,#405),
  .UNSPECIFIED.,.F.,.F.,(4,4),(-7.663017220357,-5.041282201384E-02),
  .PIECEWISE_BEZIER_KNOTS.);
#402 = CARTESIAN_POINT('',(30.000000000003,-6.310278041547));
#403 = CARTESIAN_POINT('',(20.045680504617,-3.569213048198));
#404 = CARTESIAN_POINT('',(-4.834052503191,3.24131609675));
#405 = CARTESIAN_POINT('',(-29.99999999999,6.517240725165));
#406 = ( GEOMETRIC_REPRESENTATION_CONTEXT(2) 
PARAMETRIC_REPRESENTATION_CONTEXT() REPRESENTATION_CONTEXT('2D SPACE',''
  ) );
#407 = ORIENTED_EDGE('',*,*,#408,.F.);
#408 = EDGE_CURVE('',#409,#384,#411,.T.);
#409 = VERTEX_POINT('',#410);
#410 = CARTESIAN_POINT('',(-772.9935633475,133.4110225292,
    21.301130824304));
#411 = SURFACE_CURVE('',#412,(#416,#423),.PCURVE_S1.);
#412 = LINE('',#413,#414);
#413 = CARTESIAN_POINT('',(-772.9935633475,133.4110225292,
    21.301130824304));
#414 = VECTOR('',#415,1.);
#415 = DIRECTION('',(0.999723686394,-5.042679038667E-03,
    -2.295914309529E-02));
#416 = PCURVE('',#321,#417);
#417 = DEFINITIONAL_REPRESENTATION('',(#418),#422);
#418 = LINE('',#419,#420);
#419 = CARTESIAN_POINT('',(-5.041282201384E-02,0.));
#420 = VECTOR('',#421,1.);
#421 = DIRECTION('',(0.,-1.));
#422 = ( GEOMETRIC_REPRESENTATION_CONTEXT(2) 
PARAMETRIC_REPRESENTATION_CONTEXT() REPRESENTATION_CONTEXT('2D SPACE',''
  ) );
#423 = PCURVE('',#424,#429);
#424 = PLANE('',#425);
#425 = AXIS2_PLACEMENT_3D('',#426,#427,#428);
#426 = CARTESIAN_POINT('',(-773.0000674249,133.41131115344,
    21.017856503317));
#427 = DIRECTION('',(5.064734329239E-03,0.999986766816,
    9.025844812181E-04));
#428 = DIRECTION('',(-2.29542878289E-02,1.01861704505E-03,
    -0.999735996696));
#429 = DEFINITIONAL_REPRESENTATION('',(#430),#434);
#430 = LINE('',#431,#432);
#431 = CARTESIAN_POINT('',(-0.283349126092,6.401318711213E-12));
#432 = VECTOR('',#433,1.);
#433 = DIRECTION('',(-1.250735626179E-14,-1.));
#434 = ( GEOMETRIC_REPRESENTATION_CONTEXT(2) 
PARAMETRIC_REPRESENTATION_CONTEXT() REPRESENTATION_CONTEXT('2D SPACE',''
  ) );
#435 = ORIENTED_EDGE('',*,*,#436,.F.);
#436 = EDGE_CURVE('',#304,#409,#437,.T.);
#437 = SURFACE_CURVE('',#438,(#443,#450),.PCURVE_S1.);
#438 = B_SPLINE_CURVE_WITH_KNOTS('',3,(#439,#440,#441,#442),
  .UNSPECIFIED.,.F.,.F.,(4,4),(-7.663017220357,-5.041282201384E-02),
  .PIECEWISE_BEZIER_KNOTS.);
#439 = CARTESIAN_POINT('',(-772.9841258457,193.42329486743,
    8.531153633802));
#440 = CARTESIAN_POINT('',(-772.9716226345,183.46631500386,
    11.26251036264));
#441 = CARTESIAN_POINT('',(-772.9413010262,158.57997391306,
    18.048785444481));
#442 = CARTESIAN_POINT('',(-772.9935633475,133.4110225292,
    21.301130824304));
#443 = PCURVE('',#321,#444);
#444 = DEFINITIONAL_REPRESENTATION('',(#445),#449);
#445 = LINE('',#446,#447);
#446 = CARTESIAN_POINT('',(0.,0.));
#447 = VECTOR('',#448,1.);
#448 = DIRECTION('',(1.,0.));
#449 = ( GEOMETRIC_REPRESENTATION_CONTEXT(2) 
PARAMETRIC_REPRESENTATION_CONTEXT() REPRESENTATION_CONTEXT('2D SPACE',''
  ) );
#450 = PCURVE('',#43,#451);
#451 = DEFINITIONAL_REPRESENTATION('',(#452),#457);
#452 = B_SPLINE_CURVE_WITH_KNOTS('',3,(#453,#454,#455,#456),
  .UNSPECIFIED.,.F.,.F.,(4,4),(-7.663017220357,-5.041282201384E-02),
  .PIECEWISE_BEZIER_KNOTS.);
#453 = CARTESIAN_POINT('',(30.000000000003,-6.310278041548));
#454 = CARTESIAN_POINT('',(20.045680504617,-3.569213048198));
#455 = CARTESIAN_POINT('',(-4.834052503191,3.24131609675));
#456 = CARTESIAN_POINT('',(-29.99999999999,6.517240725165));
#457 = ( GEOMETRIC_REPRESENTATION_CONTEXT(2) 
PARAMETRIC_REPRESENTATION_CONTEXT() REPRESENTATION_CONTEXT('2D SPACE',''
  ) );
#458 = ADVANCED_FACE('',(#459),#424,.F.);
#459 = FACE_BOUND('',#460,.T.);
#460 = EDGE_LOOP('',(#461,#491,#512,#513));
#461 = ORIENTED_EDGE('',*,*,#462,.T.);
#462 = EDGE_CURVE('',#463,#465,#467,.T.);
#463 = VERTEX_POINT('',#464);
#464 = CARTESIAN_POINT('',(-773.0000674249,133.41131115345,
    21.017856503317));
#465 = VERTEX_POINT('',#466);
#466 = CARTESIAN_POINT('',(-770.0008963658,133.39618311633,
    20.948979074031));
#467 = SURFACE_CURVE('',#468,(#472,#479),.PCURVE_S1.);
#468 = LINE('',#469,#470);
#469 = CARTESIAN_POINT('',(-773.0000674249,133.41131115345,
    21.017856503317));
#470 = VECTOR('',#471,1.);
#471 = DIRECTION('',(0.999723686394,-5.042679038667E-03,
    -2.295914309529E-02));
#472 = PCURVE('',#424,#473);
#473 = DEFINITIONAL_REPRESENTATION('',(#474),#478);
#474 = LINE('',#475,#476);
#475 = CARTESIAN_POINT('',(2.403580637242E-13,1.000171929746E-11));
#476 = VECTOR('',#477,1.);
#477 = DIRECTION('',(-1.250735626179E-14,-1.));
#478 = ( GEOMETRIC_REPRESENTATION_CONTEXT(2) 
PARAMETRIC_REPRESENTATION_CONTEXT() REPRESENTATION_CONTEXT('2D SPACE',''
  ) );
#479 = PCURVE('',#480,#485);
#480 = PLANE('',#481);
#481 = AXIS2_PLACEMENT_3D('',#482,#483,#484);
#482 = CARTESIAN_POINT('',(-773.1273959958,128.44619600498,
    16.564035828569));
#483 = DIRECTION('',(-1.372098055203E-02,0.667871426342,-0.744150181461)
  );
#484 = DIRECTION('',(-1.908626616834E-02,-0.744259584597,-0.667617693879
    ));
#485 = DEFINITIONAL_REPRESENTATION('',(#486),#490);
#486 = LINE('',#487,#488);
#487 = CARTESIAN_POINT('',(-6.671214252694,2.879960159241E-12));
#488 = VECTOR('',#489,1.);
#489 = DIRECTION('',(-2.705127788438E-14,-1.));
#490 = ( GEOMETRIC_REPRESENTATION_CONTEXT(2) 
PARAMETRIC_REPRESENTATION_CONTEXT() REPRESENTATION_CONTEXT('2D SPACE',''
  ) );
#491 = ORIENTED_EDGE('',*,*,#492,.T.);
#492 = EDGE_CURVE('',#465,#384,#493,.T.);
#493 = SURFACE_CURVE('',#494,(#498,#505),.PCURVE_S1.);
#494 = LINE('',#495,#496);
#495 = CARTESIAN_POINT('',(-770.2935895273,133.40917163705,
    8.201213090857));
#496 = VECTOR('',#497,1.);
#497 = DIRECTION('',(2.29542878289E-02,-1.01861704505E-03,0.999735996696
    ));
#498 = PCURVE('',#424,#499);
#499 = DEFINITIONAL_REPRESENTATION('',(#500),#504);
#500 = LINE('',#501,#502);
#501 = CARTESIAN_POINT('',(12.751132324239,-2.999999999994));
#502 = VECTOR('',#503,1.);
#503 = DIRECTION('',(-1.,-6.938893903907E-18));
#504 = ( GEOMETRIC_REPRESENTATION_CONTEXT(2) 
PARAMETRIC_REPRESENTATION_CONTEXT() REPRESENTATION_CONTEXT('2D SPACE',''
  ) );
#505 = PCURVE('',#97,#506);
#506 = DEFINITIONAL_REPRESENTATION('',(#507),#511);
#507 = LINE('',#508,#509);
#508 = CARTESIAN_POINT('',(-30.,-6.517240725166));
#509 = VECTOR('',#510,1.);
#510 = DIRECTION('',(-1.582935171829E-16,1.));
#511 = ( GEOMETRIC_REPRESENTATION_CONTEXT(2) 
PARAMETRIC_REPRESENTATION_CONTEXT() REPRESENTATION_CONTEXT('2D SPACE',''
  ) );
#512 = ORIENTED_EDGE('',*,*,#408,.F.);
#513 = ORIENTED_EDGE('',*,*,#514,.F.);
#514 = EDGE_CURVE('',#463,#409,#515,.T.);
#515 = SURFACE_CURVE('',#516,(#520,#527),.PCURVE_S1.);
#516 = LINE('',#517,#518);
#517 = CARTESIAN_POINT('',(-773.2927605864,133.42429967417,
    8.270090520143));
#518 = VECTOR('',#519,1.);
#519 = DIRECTION('',(2.29542878289E-02,-1.01861704505E-03,0.999735996696
    ));
#520 = PCURVE('',#424,#521);
#521 = DEFINITIONAL_REPRESENTATION('',(#522),#526);
#522 = LINE('',#523,#524);
#523 = CARTESIAN_POINT('',(12.751132324238,5.056233209899E-12));
#524 = VECTOR('',#525,1.);
#525 = DIRECTION('',(-1.,-6.938893903907E-18));
#526 = ( GEOMETRIC_REPRESENTATION_CONTEXT(2) 
PARAMETRIC_REPRESENTATION_CONTEXT() REPRESENTATION_CONTEXT('2D SPACE',''
  ) );
#527 = PCURVE('',#43,#528);
#528 = DEFINITIONAL_REPRESENTATION('',(#529),#533);
#529 = LINE('',#530,#531);
#530 = CARTESIAN_POINT('',(-30.,-6.517240725166));
#531 = VECTOR('',#532,1.);
#532 = DIRECTION('',(-1.582935171829E-16,1.));
#533 = ( GEOMETRIC_REPRESENTATION_CONTEXT(2) 
PARAMETRIC_REPRESENTATION_CONTEXT() REPRESENTATION_CONTEXT('2D SPACE',''
  ) );
#534 = ADVANCED_FACE('',(#535),#480,.F.);
#535 = FACE_BOUND('',#536,.T.);
#536 = EDGE_LOOP('',(#537,#567,#588,#589));
#537 = ORIENTED_EDGE('',*,*,#538,.T.);
#538 = EDGE_CURVE('',#539,#541,#543,.T.);
#539 = VERTEX_POINT('',#540);
#540 = CARTESIAN_POINT('',(-773.1273959958,128.44619600499,
    16.564035828566));
#541 = VERTEX_POINT('',#542);
#542 = CARTESIAN_POINT('',(-770.1282249366,128.43106796787,
    16.49515839928));
#543 = SURFACE_CURVE('',#544,(#548,#555),.PCURVE_S1.);
#544 = LINE('',#545,#546);
#545 = CARTESIAN_POINT('',(-773.1273959958,128.44619600499,
    16.564035828566));
#546 = VECTOR('',#547,1.);
#547 = DIRECTION('',(0.999723686394,-5.042679038667E-03,
    -2.295914309529E-02));
#548 = PCURVE('',#480,#549);
#549 = DEFINITIONAL_REPRESENTATION('',(#550),#554);
#550 = LINE('',#551,#552);
#551 = CARTESIAN_POINT('',(-5.420462162631E-12,-1.026829077099E-14));
#552 = VECTOR('',#553,1.);
#553 = DIRECTION('',(-2.705127788438E-14,-1.));
#554 = ( GEOMETRIC_REPRESENTATION_CONTEXT(2) 
PARAMETRIC_REPRESENTATION_CONTEXT() REPRESENTATION_CONTEXT('2D SPACE',''
  ) );
#555 = PCURVE('',#556,#561);
#556 = PLANE('',#557);
#557 = AXIS2_PLACEMENT_3D('',#558,#559,#560);
#558 = CARTESIAN_POINT('',(-773.1273959958,128.44619600499,
    16.564035828565));
#559 = DIRECTION('',(2.337185528212E-02,0.10888424755,0.993779642082));
#560 = DIRECTION('',(2.511422749872E-03,0.994041645015,-0.108972018116)
  );
#561 = DEFINITIONAL_REPRESENTATION('',(#562),#566);
#562 = LINE('',#563,#564);
#563 = CARTESIAN_POINT('',(-1.365955710994E-13,1.000687553251E-11));
#564 = VECTOR('',#565,1.);
#565 = DIRECTION('',(1.547069763963E-14,-1.));
#566 = ( GEOMETRIC_REPRESENTATION_CONTEXT(2) 
PARAMETRIC_REPRESENTATION_CONTEXT() REPRESENTATION_CONTEXT('2D SPACE',''
  ) );
#567 = ORIENTED_EDGE('',*,*,#568,.T.);
#568 = EDGE_CURVE('',#541,#465,#569,.T.);
#569 = SURFACE_CURVE('',#570,(#574,#581),.PCURVE_S1.);
#570 = LINE('',#571,#572);
#571 = CARTESIAN_POINT('',(-769.8591363862,138.92404396501,
    25.907595379772));
#572 = VECTOR('',#573,1.);
#573 = DIRECTION('',(1.908626616835E-02,0.744259584596,0.667617693879));
#574 = PCURVE('',#480,#575);
#575 = DEFINITIONAL_REPRESENTATION('',(#576),#580);
#576 = LINE('',#577,#578);
#577 = CARTESIAN_POINT('',(-14.0985433232,-2.999999999996));
#578 = VECTOR('',#579,1.);
#579 = DIRECTION('',(-1.,-3.469446951954E-18));
#580 = ( GEOMETRIC_REPRESENTATION_CONTEXT(2) 
PARAMETRIC_REPRESENTATION_CONTEXT() REPRESENTATION_CONTEXT('2D SPACE',''
  ) );
#581 = PCURVE('',#97,#582);
#582 = DEFINITIONAL_REPRESENTATION('',(#583),#587);
#583 = LINE('',#584,#585);
#584 = CARTESIAN_POINT('',(-24.46701875575,11.188822039815));
#585 = VECTOR('',#586,1.);
#586 = DIRECTION('',(0.74494898391,0.66712143675));
#587 = ( GEOMETRIC_REPRESENTATION_CONTEXT(2) 
PARAMETRIC_REPRESENTATION_CONTEXT() REPRESENTATION_CONTEXT('2D SPACE',''
  ) );
#588 = ORIENTED_EDGE('',*,*,#462,.F.);
#589 = ORIENTED_EDGE('',*,*,#590,.F.);
#590 = EDGE_CURVE('',#539,#463,#591,.T.);
#591 = SURFACE_CURVE('',#592,(#596,#603),.PCURVE_S1.);
#592 = LINE('',#593,#594);
#593 = CARTESIAN_POINT('',(-772.8583074454,138.93917200213,
    25.976472809058));
#594 = VECTOR('',#595,1.);
#595 = DIRECTION('',(1.908626616835E-02,0.744259584596,0.667617693879));
#596 = PCURVE('',#480,#597);
#597 = DEFINITIONAL_REPRESENTATION('',(#598),#602);
#598 = LINE('',#599,#600);
#599 = CARTESIAN_POINT('',(-14.09854332321,2.754740879851E-12));
#600 = VECTOR('',#601,1.);
#601 = DIRECTION('',(-1.,-3.469446951954E-18));
#602 = ( GEOMETRIC_REPRESENTATION_CONTEXT(2) 
PARAMETRIC_REPRESENTATION_CONTEXT() REPRESENTATION_CONTEXT('2D SPACE',''
  ) );
#603 = PCURVE('',#43,#604);
#604 = DEFINITIONAL_REPRESENTATION('',(#605),#609);
#605 = LINE('',#606,#607);
#606 = CARTESIAN_POINT('',(-24.46701875575,11.188822039815));
#607 = VECTOR('',#608,1.);
#608 = DIRECTION('',(0.74494898391,0.66712143675));
#609 = ( GEOMETRIC_REPRESENTATION_CONTEXT(2) 
PARAMETRIC_REPRESENTATION_CONTEXT() REPRESENTATION_CONTEXT('2D SPACE',''
  ) );
#610 = ADVANCED_FACE('',(#611),#556,.T.);
#611 = FACE_BOUND('',#612,.F.);
#612 = EDGE_LOOP('',(#613,#614,#637,#665));
#613 = ORIENTED_EDGE('',*,*,#538,.T.);
#614 = ORIENTED_EDGE('',*,*,#615,.T.);
#615 = EDGE_CURVE('',#541,#616,#618,.T.);
#616 = VERTEX_POINT('',#617);
#617 = CARTESIAN_POINT('',(-770.1427332822,122.6885462373,
    17.124683515449));
#618 = SURFACE_CURVE('',#619,(#623,#630),.PCURVE_S1.);
#619 = LINE('',#620,#621);
#620 = CARTESIAN_POINT('',(-770.0780756388,148.28056980633,
    14.319152711012));
#621 = VECTOR('',#622,1.);
#622 = DIRECTION('',(-2.511422749863E-03,-0.994041645015,0.108972018116)
  );
#623 = PCURVE('',#556,#624);
#624 = DEFINITIONAL_REPRESENTATION('',(#625),#629);
#625 = LINE('',#626,#627);
#626 = CARTESIAN_POINT('',(19.968481137591,-2.99999999999));
#627 = VECTOR('',#628,1.);
#628 = DIRECTION('',(-1.,0.));
#629 = ( GEOMETRIC_REPRESENTATION_CONTEXT(2) 
PARAMETRIC_REPRESENTATION_CONTEXT() REPRESENTATION_CONTEXT('2D SPACE',''
  ) );
#630 = PCURVE('',#97,#631);
#631 = DEFINITIONAL_REPRESENTATION('',(#632),#636);
#632 = LINE('',#633,#634);
#633 = CARTESIAN_POINT('',(-15.12218514872,-0.411117553118));
#634 = VECTOR('',#635,1.);
#635 = DIRECTION('',(-0.993942853915,0.109898148986));
#636 = ( GEOMETRIC_REPRESENTATION_CONTEXT(2) 
PARAMETRIC_REPRESENTATION_CONTEXT() REPRESENTATION_CONTEXT('2D SPACE',''
  ) );
#637 = ORIENTED_EDGE('',*,*,#638,.F.);
#638 = EDGE_CURVE('',#639,#616,#641,.T.);
#639 = VERTEX_POINT('',#640);
#640 = CARTESIAN_POINT('',(-773.1419043414,122.70367427442,
    17.193560944735));
#641 = SURFACE_CURVE('',#642,(#646,#653),.PCURVE_S1.);
#642 = LINE('',#643,#644);
#643 = CARTESIAN_POINT('',(-773.1419043414,122.70367427442,
    17.193560944735));
#644 = VECTOR('',#645,1.);
#645 = DIRECTION('',(0.999723686394,-5.042679038667E-03,
    -2.295914309529E-02));
#646 = PCURVE('',#556,#647);
#647 = DEFINITIONAL_REPRESENTATION('',(#648),#652);
#648 = LINE('',#649,#650);
#649 = CARTESIAN_POINT('',(-5.776942806541,1.106454337874E-11));
#650 = VECTOR('',#651,1.);
#651 = DIRECTION('',(1.547069763963E-14,-1.));
#652 = ( GEOMETRIC_REPRESENTATION_CONTEXT(2) 
PARAMETRIC_REPRESENTATION_CONTEXT() REPRESENTATION_CONTEXT('2D SPACE',''
  ) );
#653 = PCURVE('',#654,#659);
#654 = PLANE('',#655);
#655 = AXIS2_PLACEMENT_3D('',#656,#657,#658);
#656 = CARTESIAN_POINT('',(-773.1419043414,122.70367427441,
    17.193560944735));
#657 = DIRECTION('',(-5.060411719401E-03,-0.999986940902,
    -7.143242626235E-04));
#658 = DIRECTION('',(2.295524116162E-02,-8.303096018973E-04,
    0.999736148936));
#659 = DEFINITIONAL_REPRESENTATION('',(#660),#664);
#660 = LINE('',#661,#662);
#661 = CARTESIAN_POINT('',(-7.103552583032E-15,-1.631345234565E-16));
#662 = VECTOR('',#663,1.);
#663 = DIRECTION('',(1.735417365367E-14,-1.));
#664 = ( GEOMETRIC_REPRESENTATION_CONTEXT(2) 
PARAMETRIC_REPRESENTATION_CONTEXT() REPRESENTATION_CONTEXT('2D SPACE',''
  ) );
#665 = ORIENTED_EDGE('',*,*,#666,.F.);
#666 = EDGE_CURVE('',#539,#639,#667,.T.);
#667 = SURFACE_CURVE('',#668,(#672,#679),.PCURVE_S1.);
#668 = LINE('',#669,#670);
#669 = CARTESIAN_POINT('',(-773.077246698,148.29569784345,
    14.388030140298));
#670 = VECTOR('',#671,1.);
#671 = DIRECTION('',(-2.511422749863E-03,-0.994041645015,0.108972018116)
  );
#672 = PCURVE('',#556,#673);
#673 = DEFINITIONAL_REPRESENTATION('',(#674),#678);
#674 = LINE('',#675,#676);
#675 = CARTESIAN_POINT('',(19.968481137594,9.376444065623E-12));
#676 = VECTOR('',#677,1.);
#677 = DIRECTION('',(-1.,0.));
#678 = ( GEOMETRIC_REPRESENTATION_CONTEXT(2) 
PARAMETRIC_REPRESENTATION_CONTEXT() REPRESENTATION_CONTEXT('2D SPACE',''
  ) );
#679 = PCURVE('',#43,#680);
#680 = DEFINITIONAL_REPRESENTATION('',(#681),#685);
#681 = LINE('',#682,#683);
#682 = CARTESIAN_POINT('',(-15.12218514872,-0.411117553118));
#683 = VECTOR('',#684,1.);
#684 = DIRECTION('',(-0.993942853915,0.109898148986));
#685 = ( GEOMETRIC_REPRESENTATION_CONTEXT(2) 
PARAMETRIC_REPRESENTATION_CONTEXT() REPRESENTATION_CONTEXT('2D SPACE',''
  ) );
#686 = ADVANCED_FACE('',(#687),#654,.T.);
#687 = FACE_BOUND('',#688,.F.);
#688 = EDGE_LOOP('',(#689,#690,#713,#741));
#689 = ORIENTED_EDGE('',*,*,#638,.T.);
#690 = ORIENTED_EDGE('',*,*,#691,.T.);
#691 = EDGE_CURVE('',#616,#692,#694,.T.);
#692 = VERTEX_POINT('',#693);
#693 = CARTESIAN_POINT('',(-770.2321789694,122.69178156,13.229185917579)
  );
#694 = SURFACE_CURVE('',#695,(#699,#706),.PCURVE_S1.);
#695 = LINE('',#696,#697);
#696 = CARTESIAN_POINT('',(-770.1704010912,122.68954700428,
    15.919707773533));
#697 = VECTOR('',#698,1.);
#698 = DIRECTION('',(-2.295524116162E-02,8.303096018974E-04,
    -0.999736148936));
#699 = PCURVE('',#654,#700);
#700 = DEFINITIONAL_REPRESENTATION('',(#701),#705);
#701 = LINE('',#702,#703);
#702 = CARTESIAN_POINT('',(-1.205293759957,-3.));
#703 = VECTOR('',#704,1.);
#704 = DIRECTION('',(-1.,-3.469446951954E-18));
#705 = ( GEOMETRIC_REPRESENTATION_CONTEXT(2) 
PARAMETRIC_REPRESENTATION_CONTEXT() REPRESENTATION_CONTEXT('2D SPACE',''
  ) );
#706 = PCURVE('',#97,#707);
#707 = DEFINITIONAL_REPRESENTATION('',(#708),#712);
#708 = LINE('',#709,#710);
#709 = CARTESIAN_POINT('',(-40.71189226779,1.212963144598));
#710 = VECTOR('',#711,1.);
#711 = DIRECTION('',(-1.883099170317E-04,-0.99999998227));
#712 = ( GEOMETRIC_REPRESENTATION_CONTEXT(2) 
PARAMETRIC_REPRESENTATION_CONTEXT() REPRESENTATION_CONTEXT('2D SPACE',''
  ) );
#713 = ORIENTED_EDGE('',*,*,#714,.F.);
#714 = EDGE_CURVE('',#715,#692,#717,.T.);
#715 = VERTEX_POINT('',#716);
#716 = CARTESIAN_POINT('',(-773.2313500286,122.70690959712,
    13.298063346865));
#717 = SURFACE_CURVE('',#718,(#722,#729),.PCURVE_S1.);
#718 = LINE('',#719,#720);
#719 = CARTESIAN_POINT('',(-773.2313500286,122.70690959712,
    13.298063346865));
#720 = VECTOR('',#721,1.);
#721 = DIRECTION('',(0.999723686394,-5.042679038667E-03,
    -2.295914309529E-02));
#722 = PCURVE('',#654,#723);
#723 = DEFINITIONAL_REPRESENTATION('',(#724),#728);
#724 = LINE('',#725,#726);
#725 = CARTESIAN_POINT('',(-3.896525700322,-3.311559360064E-12));
#726 = VECTOR('',#727,1.);
#727 = DIRECTION('',(1.735417365367E-14,-1.));
#728 = ( GEOMETRIC_REPRESENTATION_CONTEXT(2) 
PARAMETRIC_REPRESENTATION_CONTEXT() REPRESENTATION_CONTEXT('2D SPACE',''
  ) );
#729 = PCURVE('',#730,#735);
#730 = PLANE('',#731);
#731 = AXIS2_PLACEMENT_3D('',#732,#733,#734);
#732 = CARTESIAN_POINT('',(-773.2313500286,122.70690959712,
    13.298063346865));
#733 = DIRECTION('',(-2.295133852325E-02,1.600164656415E-03,
    -0.999735302734));
#734 = DIRECTION('',(-5.078082664636E-03,-0.999986005333,
    -1.483986275468E-03));
#735 = DEFINITIONAL_REPRESENTATION('',(#736),#740);
#736 = LINE('',#737,#738);
#737 = CARTESIAN_POINT('',(-0.,0.));
#738 = VECTOR('',#739,1.);
#739 = DIRECTION('',(-3.736770550107E-16,-1.));
#740 = ( GEOMETRIC_REPRESENTATION_CONTEXT(2) 
PARAMETRIC_REPRESENTATION_CONTEXT() REPRESENTATION_CONTEXT('2D SPACE',''
  ) );
#741 = ORIENTED_EDGE('',*,*,#742,.F.);
#742 = EDGE_CURVE('',#639,#715,#743,.T.);
#743 = SURFACE_CURVE('',#744,(#748,#755),.PCURVE_S1.);
#744 = LINE('',#745,#746);
#745 = CARTESIAN_POINT('',(-773.1695721503,122.7046750414,
    15.988585202819));
#746 = VECTOR('',#747,1.);
#747 = DIRECTION('',(-2.295524116162E-02,8.303096018974E-04,
    -0.999736148936));
#748 = PCURVE('',#654,#749);
#749 = DEFINITIONAL_REPRESENTATION('',(#750),#754);
#750 = LINE('',#751,#752);
#751 = CARTESIAN_POINT('',(-1.205293759957,-4.037638279275E-13));
#752 = VECTOR('',#753,1.);
#753 = DIRECTION('',(-1.,-3.469446951954E-18));
#754 = ( GEOMETRIC_REPRESENTATION_CONTEXT(2) 
PARAMETRIC_REPRESENTATION_CONTEXT() REPRESENTATION_CONTEXT('2D SPACE',''
  ) );
#755 = PCURVE('',#43,#756);
#756 = DEFINITIONAL_REPRESENTATION('',(#757),#761);
#757 = LINE('',#758,#759);
#758 = CARTESIAN_POINT('',(-40.71189226779,1.212963144598));
#759 = VECTOR('',#760,1.);
#760 = DIRECTION('',(-1.883099170317E-04,-0.99999998227));
#761 = ( GEOMETRIC_REPRESENTATION_CONTEXT(2) 
PARAMETRIC_REPRESENTATION_CONTEXT() REPRESENTATION_CONTEXT('2D SPACE',''
  ) );
#762 = ADVANCED_FACE('',(#763),#730,.T.);
#763 = FACE_BOUND('',#764,.F.);
#764 = EDGE_LOOP('',(#765,#766,#789,#812));
#765 = ORIENTED_EDGE('',*,*,#714,.T.);
#766 = ORIENTED_EDGE('',*,*,#767,.T.);
#767 = EDGE_CURVE('',#692,#768,#770,.T.);
#768 = VERTEX_POINT('',#769);
#769 = CARTESIAN_POINT('',(-770.2031709256,128.40410248181,
    13.237663042063));
#770 = SURFACE_CURVE('',#771,(#775,#782),.PCURVE_S1.);
#771 = LINE('',#772,#773);
#772 = CARTESIAN_POINT('',(-770.1287671024,143.05584938598,
    13.25940633767));
#773 = VECTOR('',#774,1.);
#774 = DIRECTION('',(5.078082664636E-03,0.999986005333,
    1.483986275468E-03));
#775 = PCURVE('',#730,#776);
#776 = DEFINITIONAL_REPRESENTATION('',(#777),#781);
#777 = LINE('',#778,#779);
#778 = CARTESIAN_POINT('',(-20.36435281831,-2.999999999996));
#779 = VECTOR('',#780,1.);
#780 = DIRECTION('',(-1.,1.890577538272E-18));
#781 = ( GEOMETRIC_REPRESENTATION_CONTEXT(2) 
PARAMETRIC_REPRESENTATION_CONTEXT() REPRESENTATION_CONTEXT('2D SPACE',''
  ) );
#782 = PCURVE('',#97,#783);
#783 = DEFINITIONAL_REPRESENTATION('',(#784),#788);
#784 = LINE('',#785,#786);
#785 = CARTESIAN_POINT('',(-20.34804967881,-1.466425747084));
#786 = VECTOR('',#787,1.);
#787 = DIRECTION('',(0.999999830897,5.815554794475E-04));
#788 = ( GEOMETRIC_REPRESENTATION_CONTEXT(2) 
PARAMETRIC_REPRESENTATION_CONTEXT() REPRESENTATION_CONTEXT('2D SPACE',''
  ) );
#789 = ORIENTED_EDGE('',*,*,#790,.F.);
#790 = EDGE_CURVE('',#791,#768,#793,.T.);
#791 = VERTEX_POINT('',#792);
#792 = CARTESIAN_POINT('',(-773.2023419848,128.41923051893,
    13.306540471349));
#793 = SURFACE_CURVE('',#794,(#798,#805),.PCURVE_S1.);
#794 = LINE('',#795,#796);
#795 = CARTESIAN_POINT('',(-773.2023419848,128.41923051893,
    13.306540471349));
#796 = VECTOR('',#797,1.);
#797 = DIRECTION('',(0.999723686394,-5.042679038667E-03,
    -2.295914309529E-02));
#798 = PCURVE('',#730,#799);
#799 = DEFINITIONAL_REPRESENTATION('',(#800),#804);
#800 = LINE('',#801,#802);
#801 = CARTESIAN_POINT('',(-5.71240086496,5.816723947123E-12));
#802 = VECTOR('',#803,1.);
#803 = DIRECTION('',(-3.736770550107E-16,-1.));
#804 = ( GEOMETRIC_REPRESENTATION_CONTEXT(2) 
PARAMETRIC_REPRESENTATION_CONTEXT() REPRESENTATION_CONTEXT('2D SPACE',''
  ) );
#805 = PCURVE('',#191,#806);
#806 = DEFINITIONAL_REPRESENTATION('',(#807),#811);
#807 = LINE('',#808,#809);
#808 = CARTESIAN_POINT('',(-7.069011403741,1.19843163171E-11));
#809 = VECTOR('',#810,1.);
#810 = DIRECTION('',(4.024558464266E-16,-1.));
#811 = ( GEOMETRIC_REPRESENTATION_CONTEXT(2) 
PARAMETRIC_REPRESENTATION_CONTEXT() REPRESENTATION_CONTEXT('2D SPACE',''
  ) );
#812 = ORIENTED_EDGE('',*,*,#813,.F.);
#813 = EDGE_CURVE('',#715,#791,#814,.T.);
#814 = SURFACE_CURVE('',#815,(#819,#826),.PCURVE_S1.);
#815 = LINE('',#816,#817);
#816 = CARTESIAN_POINT('',(-773.1279381615,143.0709774231,
    13.328283766956));
#817 = VECTOR('',#818,1.);
#818 = DIRECTION('',(5.078082664636E-03,0.999986005333,
    1.483986275468E-03));
#819 = PCURVE('',#730,#820);
#820 = DEFINITIONAL_REPRESENTATION('',(#821),#825);
#821 = LINE('',#822,#823);
#822 = CARTESIAN_POINT('',(-20.36435281832,3.279344677753E-12));
#823 = VECTOR('',#824,1.);
#824 = DIRECTION('',(-1.,1.890577538272E-18));
#825 = ( GEOMETRIC_REPRESENTATION_CONTEXT(2) 
PARAMETRIC_REPRESENTATION_CONTEXT() REPRESENTATION_CONTEXT('2D SPACE',''
  ) );
#826 = PCURVE('',#43,#827);
#827 = DEFINITIONAL_REPRESENTATION('',(#828),#832);
#828 = LINE('',#829,#830);
#829 = CARTESIAN_POINT('',(-20.34804967881,-1.466425747084));
#830 = VECTOR('',#831,1.);
#831 = DIRECTION('',(0.999999830897,5.815554794475E-04));
#832 = ( GEOMETRIC_REPRESENTATION_CONTEXT(2) 
PARAMETRIC_REPRESENTATION_CONTEXT() REPRESENTATION_CONTEXT('2D SPACE',''
  ) );
#833 = ADVANCED_FACE('',(#834),#191,.F.);
#834 = FACE_BOUND('',#835,.T.);
#835 = EDGE_LOOP('',(#836,#837,#858,#859));
#836 = ORIENTED_EDGE('',*,*,#175,.T.);
#837 = ORIENTED_EDGE('',*,*,#838,.T.);
#838 = EDGE_CURVE('',#153,#768,#839,.T.);
#839 = SURFACE_CURVE('',#840,(#844,#851),.PCURVE_S1.);
#840 = LINE('',#841,#842);
#841 = CARTESIAN_POINT('',(-770.3754323727,138.05013771433,
    3.618152953664));
#842 = VECTOR('',#843,1.);
#843 = DIRECTION('',(1.264406304033E-02,-0.708023063768,0.706076106976)
  );
#844 = PCURVE('',#191,#845);
#845 = DEFINITIONAL_REPRESENTATION('',(#846),#850);
#846 = LINE('',#847,#848);
#847 = CARTESIAN_POINT('',(6.554888333629,-2.999999999992));
#848 = VECTOR('',#849,1.);
#849 = DIRECTION('',(-1.,-3.469446951954E-18));
#850 = ( GEOMETRIC_REPRESENTATION_CONTEXT(2) 
PARAMETRIC_REPRESENTATION_CONTEXT() REPRESENTATION_CONTEXT('2D SPACE',''
  ) );
#851 = PCURVE('',#97,#852);
#852 = DEFINITIONAL_REPRESENTATION('',(#853),#857);
#853 = LINE('',#854,#855);
#854 = CARTESIAN_POINT('',(-25.3636464487,-11.10569693072));
#855 = VECTOR('',#856,1.);
#856 = DIRECTION('',(-0.707312362212,0.706901140374));
#857 = ( GEOMETRIC_REPRESENTATION_CONTEXT(2) 
PARAMETRIC_REPRESENTATION_CONTEXT() REPRESENTATION_CONTEXT('2D SPACE',''
  ) );
#858 = ORIENTED_EDGE('',*,*,#790,.F.);
#859 = ORIENTED_EDGE('',*,*,#860,.F.);
#860 = EDGE_CURVE('',#176,#791,#861,.T.);
#861 = SURFACE_CURVE('',#862,(#866,#873),.PCURVE_S1.);
#862 = LINE('',#863,#864);
#863 = CARTESIAN_POINT('',(-773.3746034319,138.06526575145,3.68703038295
    ));
#864 = VECTOR('',#865,1.);
#865 = DIRECTION('',(1.264406304033E-02,-0.708023063768,0.706076106976)
  );
#866 = PCURVE('',#191,#867);
#867 = DEFINITIONAL_REPRESENTATION('',(#868),#872);
#868 = LINE('',#869,#870);
#869 = CARTESIAN_POINT('',(6.554888333632,7.382469635608E-12));
#870 = VECTOR('',#871,1.);
#871 = DIRECTION('',(-1.,-3.469446951954E-18));
#872 = ( GEOMETRIC_REPRESENTATION_CONTEXT(2) 
PARAMETRIC_REPRESENTATION_CONTEXT() REPRESENTATION_CONTEXT('2D SPACE',''
  ) );
#873 = PCURVE('',#43,#874);
#874 = DEFINITIONAL_REPRESENTATION('',(#875),#879);
#875 = LINE('',#876,#877);
#876 = CARTESIAN_POINT('',(-25.3636464487,-11.10569693072));
#877 = VECTOR('',#878,1.);
#878 = DIRECTION('',(-0.707312362212,0.706901140374));
#879 = ( GEOMETRIC_REPRESENTATION_CONTEXT(2) 
PARAMETRIC_REPRESENTATION_CONTEXT() REPRESENTATION_CONTEXT('2D SPACE',''
  ) );
#880 = ADVANCED_FACE('',(#881,#884),#43,.F.);
#881 = FACE_BOUND('',#882,.F.);
#882 = EDGE_LOOP('',(#883));
#883 = ORIENTED_EDGE('',*,*,#21,.T.);
#884 = FACE_BOUND('',#885,.F.);
#885 = EDGE_LOOP('',(#886,#887,#888,#889,#890,#891,#892,#893,#894,#895)
  );
#886 = ORIENTED_EDGE('',*,*,#203,.F.);
#887 = ORIENTED_EDGE('',*,*,#279,.F.);
#888 = ORIENTED_EDGE('',*,*,#358,.F.);
#889 = ORIENTED_EDGE('',*,*,#436,.T.);
#890 = ORIENTED_EDGE('',*,*,#514,.F.);
#891 = ORIENTED_EDGE('',*,*,#590,.F.);
#892 = ORIENTED_EDGE('',*,*,#666,.T.);
#893 = ORIENTED_EDGE('',*,*,#742,.T.);
#894 = ORIENTED_EDGE('',*,*,#813,.T.);
#895 = ORIENTED_EDGE('',*,*,#860,.F.);
#896 = ADVANCED_FACE('',(#897,#900),#97,.T.);
#897 = FACE_BOUND('',#898,.T.);
#898 = EDGE_LOOP('',(#899));
#899 = ORIENTED_EDGE('',*,*,#82,.T.);
#900 = FACE_BOUND('',#901,.T.);
#901 = EDGE_LOOP('',(#902,#903,#904,#905,#906,#907,#908,#909,#910,#911)
  );
#902 = ORIENTED_EDGE('',*,*,#152,.F.);
#903 = ORIENTED_EDGE('',*,*,#257,.F.);
#904 = ORIENTED_EDGE('',*,*,#336,.F.);
#905 = ORIENTED_EDGE('',*,*,#383,.T.);
#906 = ORIENTED_EDGE('',*,*,#492,.F.);
#907 = ORIENTED_EDGE('',*,*,#568,.F.);
#908 = ORIENTED_EDGE('',*,*,#615,.T.);
#909 = ORIENTED_EDGE('',*,*,#691,.T.);
#910 = ORIENTED_EDGE('',*,*,#767,.T.);
#911 = ORIENTED_EDGE('',*,*,#838,.F.);
#912 = ( GEOMETRIC_REPRESENTATION_CONTEXT(3) 
GLOBAL_UNCERTAINTY_ASSIGNED_CONTEXT((#916)) GLOBAL_UNIT_ASSIGNED_CONTEXT
((#913,#914,#915)) REPRESENTATION_CONTEXT('Context #1',
  '3D Context with UNIT and UNCERTAINTY') );
#913 = ( LENGTH_UNIT() NAMED_UNIT(*) SI_UNIT(.MILLI.,.METRE.) );
#914 = ( NAMED_UNIT(*) PLANE_ANGLE_UNIT() SI_UNIT($,.RADIAN.) );
#915 = ( NAMED_UNIT(*) SI_UNIT($,.STERADIAN.) SOLID_ANGLE_UNIT() );
#916 = UNCERTAINTY_MEASURE_WITH_UNIT(LENGTH_MEASURE(1.E-07),#913,
  'distance_accuracy_value','confusion accuracy');
#917 = PRODUCT_RELATED_PRODUCT_CATEGORY('part',$,(#7));
ENDSEC;
END-ISO-10303-21;
