ISO-10303-21;
HEADER;
FILE_DESCRIPTION(('Open CASCADE Model'),'2;1');
FILE_NAME('Open CASCADE Shape Model','2026-09-19T16:54:47',('Author'),(
    'Open CASCADE'),'Open CASCADE STEP processor 7.9','Open CASCADE 7.9'
  ,'Unknown');
FILE_SCHEMA(('AUTOMOTIVE_DESIGN { 1 0 10303 214 1 1 1 1 }'));
ENDSEC;
DATA;
#1 = APPLICATION_PROTOCOL_DEFINITION('international standard',
  'automotive_design',2000,#2);
#2 = APPLICATION_CONTEXT(
  'core data for automotive mechanical design processes');
#3 = SHAPE_DEFINITION_REPRESENTATION(#4,#10);
#4 = PRODUCT_DEFINITION_SHAPE('','',#5);
#5 = PRODUCT_DEFINITION('design','',#6,#9);
#6 = PRODUCT_DEFINITION_FORMATION('','',#7);
#7 = PRODUCT('Open CASCADE STEP translator 7.9 45',
  'Open CASCADE STEP translator 7.9 45','',(#8));
#8 = PRODUCT_CONTEXT('',#2,'mechanical');
#9 = PRODUCT_DEFINITION_CONTEXT('part definition',#2,'design');
#10 = ADVANCED_BREP_SHAPE_REPRESENTATION('',(#11,#15),#846);
#11 = AXIS2_PLACEMENT_3D('',#12,#13,#14);
#12 = CARTESIAN_POINT('',(0.,0.,0.));
#13 = DIRECTION('',(0.,0.,1.));
#14 = DIRECTION('',(1.,0.,-0.));
#15 = MANIFOLD_SOLID_BREP('',#16);
#16 = CLOSED_SHELL('',(#17,#105,#215,#291,#367,#453,#529,#610,#698,#769,
    #816,#831));
#17 = ADVANCED_FACE('',(#18),#32,.F.);
#18 = FACE_BOUND('',#19,.T.);
#19 = EDGE_LOOP('',(#20,#50,#77,#78));
#20 = ORIENTED_EDGE('',*,*,#21,.T.);
#21 = EDGE_CURVE('',#22,#24,#26,.T.);
#22 = VERTEX_POINT('',#23);
#23 = CARTESIAN_POINT('',(493.04547382246,139.49995336769,
    13.863641512622));
#24 = VERTEX_POINT('',#25);
#25 = CARTESIAN_POINT('',(496.04464488164,139.5150814048,13.932518941828
    ));
#26 = SEAM_CURVE('',#27,(#31,#43),.PCURVE_S1.);
#27 = LINE('',#28,#29);
#28 = CARTESIAN_POINT('',(493.04547382246,139.49995336769,
    13.863641512622));
#29 = VECTOR('',#30,1.);
#30 = DIRECTION('',(0.999723686394,5.0426790387E-03,2.295914306868E-02)
  );
#31 = PCURVE('',#32,#37);
#32 = CYLINDRICAL_SURFACE('',#33,1.5);
#33 = AXIS2_PLACEMENT_3D('',#34,#35,#36);
#34 = CARTESIAN_POINT('',(493.03787672096,140.99993351791,
    13.864995389344));
#35 = DIRECTION('',(-0.999723686394,-5.0426790387E-03,
    -2.295914306868E-02));
#36 = DIRECTION('',(5.064734329242E-03,-0.999986766816,
    -9.025844812182E-04));
#37 = DEFINITIONAL_REPRESENTATION('',(#38),#42);
#38 = LINE('',#39,#40);
#39 = CARTESIAN_POINT('',(-0.,0.));
#40 = VECTOR('',#41,1.);
#41 = DIRECTION('',(-0.,-1.));
#42 = ( GEOMETRIC_REPRESENTATION_CONTEXT(2) 
PARAMETRIC_REPRESENTATION_CONTEXT() REPRESENTATION_CONTEXT('2D SPACE',''
  ) );
#43 = PCURVE('',#32,#44);
#44 = DEFINITIONAL_REPRESENTATION('',(#45),#49);
#45 = LINE('',#46,#47);
#46 = CARTESIAN_POINT('',(-6.28318530718,0.));
#47 = VECTOR('',#48,1.);
#48 = DIRECTION('',(-0.,-1.));
#49 = ( GEOMETRIC_REPRESENTATION_CONTEXT(2) 
PARAMETRIC_REPRESENTATION_CONTEXT() REPRESENTATION_CONTEXT('2D SPACE',''
  ) );
#50 = ORIENTED_EDGE('',*,*,#51,.T.);
#51 = EDGE_CURVE('',#24,#24,#52,.T.);
#52 = SURFACE_CURVE('',#53,(#58,#65),.PCURVE_S1.);
#53 = CIRCLE('',#54,1.5);
#54 = AXIS2_PLACEMENT_3D('',#55,#56,#57);
#55 = CARTESIAN_POINT('',(496.03704778014,141.01506155502,13.93387281855
    ));
#56 = DIRECTION('',(0.999723686394,5.0426790387E-03,2.295914306868E-02)
  );
#57 = DIRECTION('',(5.064734329242E-03,-0.999986766816,
    -9.025844812182E-04));
#58 = PCURVE('',#32,#59);
#59 = DEFINITIONAL_REPRESENTATION('',(#60),#64);
#60 = LINE('',#61,#62);
#61 = CARTESIAN_POINT('',(-0.,-2.999999999997));
#62 = VECTOR('',#63,1.);
#63 = DIRECTION('',(-1.,0.));
#64 = ( GEOMETRIC_REPRESENTATION_CONTEXT(2) 
PARAMETRIC_REPRESENTATION_CONTEXT() REPRESENTATION_CONTEXT('2D SPACE',''
  ) );
#65 = PCURVE('',#66,#71);
#66 = PLANE('',#67);
#67 = AXIS2_PLACEMENT_3D('',#68,#69,#70);
#68 = CARTESIAN_POINT('',(495.87586588325,170.28653117997,
    14.523212490138));
#69 = DIRECTION('',(0.999723686394,5.0426790387E-03,2.295914306868E-02)
  );
#70 = DIRECTION('',(-5.064734329242E-03,0.999986766816,
    9.025844812182E-04));
#71 = DEFINITIONAL_REPRESENTATION('',(#72),#76);
#72 = CIRCLE('',#73,1.5);
#73 = AXIS2_PLACEMENT_2D('',#74,#75);
#74 = CARTESIAN_POINT('',(-29.27243054253,-0.563067481727));
#75 = DIRECTION('',(-1.,2.275412649352E-39));
#76 = ( GEOMETRIC_REPRESENTATION_CONTEXT(2) 
PARAMETRIC_REPRESENTATION_CONTEXT() REPRESENTATION_CONTEXT('2D SPACE',''
  ) );
#77 = ORIENTED_EDGE('',*,*,#21,.F.);
#78 = ORIENTED_EDGE('',*,*,#79,.F.);
#79 = EDGE_CURVE('',#22,#22,#80,.T.);
#80 = SURFACE_CURVE('',#81,(#86,#93),.PCURVE_S1.);
#81 = CIRCLE('',#82,1.5);
#82 = AXIS2_PLACEMENT_3D('',#83,#84,#85);
#83 = CARTESIAN_POINT('',(493.03787672096,140.99993351791,
    13.864995389344));
#84 = DIRECTION('',(0.999723686394,5.0426790387E-03,2.295914306868E-02)
  );
#85 = DIRECTION('',(5.064734329242E-03,-0.999986766816,
    -9.025844812182E-04));
#86 = PCURVE('',#32,#87);
#87 = DEFINITIONAL_REPRESENTATION('',(#88),#92);
#88 = LINE('',#89,#90);
#89 = CARTESIAN_POINT('',(-0.,0.));
#90 = VECTOR('',#91,1.);
#91 = DIRECTION('',(-1.,0.));
#92 = ( GEOMETRIC_REPRESENTATION_CONTEXT(2) 
PARAMETRIC_REPRESENTATION_CONTEXT() REPRESENTATION_CONTEXT('2D SPACE',''
  ) );
#93 = PCURVE('',#94,#99);
#94 = PLANE('',#95);
#95 = AXIS2_PLACEMENT_3D('',#96,#97,#98);
#96 = CARTESIAN_POINT('',(492.87669482407,170.27140314286,
    14.454335060932));
#97 = DIRECTION('',(0.999723686394,5.0426790387E-03,2.295914306868E-02)
  );
#98 = DIRECTION('',(-5.064734329242E-03,0.999986766816,
    9.025844812182E-04));
#99 = DEFINITIONAL_REPRESENTATION('',(#100),#104);
#100 = CIRCLE('',#101,1.5);
#101 = AXIS2_PLACEMENT_2D('',#102,#103);
#102 = CARTESIAN_POINT('',(-29.27243054253,-0.563067481727));
#103 = DIRECTION('',(-1.,2.275412649352E-39));
#104 = ( GEOMETRIC_REPRESENTATION_CONTEXT(2) 
PARAMETRIC_REPRESENTATION_CONTEXT() REPRESENTATION_CONTEXT('2D SPACE',''
  ) );
#105 = ADVANCED_FACE('',(#106),#120,.F.);
#106 = FACE_BOUND('',#107,.F.);
#107 = EDGE_LOOP('',(#108,#143,#166,#194));
#108 = ORIENTED_EDGE('',*,*,#109,.T.);
#109 = EDGE_CURVE('',#110,#112,#114,.T.);
#110 = VERTEX_POINT('',#111);
#111 = CARTESIAN_POINT('',(493.17313763573,127.00297629734,
    11.049499298859));
#112 = VERTEX_POINT('',#113);
#113 = CARTESIAN_POINT('',(496.17230869491,127.01810433445,
    11.118376728065));
#114 = SURFACE_CURVE('',#115,(#119,#131),.PCURVE_S1.);
#115 = LINE('',#116,#117);
#116 = CARTESIAN_POINT('',(493.17313763573,127.00297629734,
    11.049499298859));
#117 = VECTOR('',#118,1.);
#118 = DIRECTION('',(0.999723686394,5.0426790387E-03,2.295914306868E-02)
  );
#119 = PCURVE('',#120,#125);
#120 = PLANE('',#121);
#121 = AXIS2_PLACEMENT_3D('',#122,#123,#124);
#122 = CARTESIAN_POINT('',(493.17313763573,127.00297629709,
    11.04949929861));
#123 = DIRECTION('',(-1.981740835068E-02,0.706099040911,0.707835725822)
  );
#124 = DIRECTION('',(1.264204052354E-02,0.708095131894,-0.706003868969)
  );
#125 = DEFINITIONAL_REPRESENTATION('',(#126),#130);
#126 = LINE('',#127,#128);
#127 = CARTESIAN_POINT('',(6.271499044583E-16,-6.653759706411E-12));
#128 = VECTOR('',#129,1.);
#129 = DIRECTION('',(4.8596543456E-14,-1.));
#130 = ( GEOMETRIC_REPRESENTATION_CONTEXT(2) 
PARAMETRIC_REPRESENTATION_CONTEXT() REPRESENTATION_CONTEXT('2D SPACE',''
  ) );
#131 = PCURVE('',#132,#137);
#132 = PLANE('',#133);
#133 = AXIS2_PLACEMENT_3D('',#134,#135,#136);
#134 = CARTESIAN_POINT('',(493.17313763165,127.00297629702,
    11.049499476161));
#135 = DIRECTION('',(2.295032159131E-02,1.800325073376E-03,
    -0.999734985668));
#136 = DIRECTION('',(5.082676577412E-03,-0.999985665006,
    -1.684096513444E-03));
#137 = DEFINITIONAL_REPRESENTATION('',(#138),#142);
#138 = LINE('',#139,#140);
#139 = CARTESIAN_POINT('',(-7.285918737741E-27,-6.87985863156E-12));
#140 = VECTOR('',#141,1.);
#141 = DIRECTION('',(-1.05902157703E-15,-1.));
#142 = ( GEOMETRIC_REPRESENTATION_CONTEXT(2) 
PARAMETRIC_REPRESENTATION_CONTEXT() REPRESENTATION_CONTEXT('2D SPACE',''
  ) );
#143 = ORIENTED_EDGE('',*,*,#144,.T.);
#144 = EDGE_CURVE('',#112,#145,#147,.T.);
#145 = VERTEX_POINT('',#146);
#146 = CARTESIAN_POINT('',(496.26166629385,132.02312553203,6.12813718115
    ));
#147 = SURFACE_CURVE('',#148,(#152,#159),.PCURVE_S1.);
#148 = LINE('',#149,#150);
#149 = CARTESIAN_POINT('',(496.2169874928,129.52061484473,8.623257042636
    ));
#150 = VECTOR('',#151,1.);
#151 = DIRECTION('',(1.264204052354E-02,0.708095131894,-0.706003868969)
  );
#152 = PCURVE('',#120,#153);
#153 = DEFINITIONAL_REPRESENTATION('',(#154),#158);
#154 = LINE('',#155,#156);
#155 = CARTESIAN_POINT('',(3.53414449247,-2.999999999997));
#156 = VECTOR('',#157,1.);
#157 = DIRECTION('',(1.,1.262177448354E-29));
#158 = ( GEOMETRIC_REPRESENTATION_CONTEXT(2) 
PARAMETRIC_REPRESENTATION_CONTEXT() REPRESENTATION_CONTEXT('2D SPACE',''
  ) );
#159 = PCURVE('',#66,#160);
#160 = DEFINITIONAL_REPRESENTATION('',(#161),#165);
#161 = LINE('',#162,#163);
#162 = CARTESIAN_POINT('',(-40.77242977092,-5.864703186143));
#163 = VECTOR('',#164,1.);
#164 = DIRECTION('',(0.707384504829,-0.706828948423));
#165 = ( GEOMETRIC_REPRESENTATION_CONTEXT(2) 
PARAMETRIC_REPRESENTATION_CONTEXT() REPRESENTATION_CONTEXT('2D SPACE',''
  ) );
#166 = ORIENTED_EDGE('',*,*,#167,.F.);
#167 = EDGE_CURVE('',#168,#145,#170,.T.);
#168 = VERTEX_POINT('',#169);
#169 = CARTESIAN_POINT('',(493.26249523467,132.00799749492,
    6.059259751944));
#170 = SURFACE_CURVE('',#171,(#175,#182),.PCURVE_S1.);
#171 = LINE('',#172,#173);
#172 = CARTESIAN_POINT('',(493.26249523467,132.00799749492,
    6.059259751944));
#173 = VECTOR('',#174,1.);
#174 = DIRECTION('',(0.999723686394,5.0426790387E-03,2.295914306868E-02)
  );
#175 = PCURVE('',#120,#176);
#176 = DEFINITIONAL_REPRESENTATION('',(#177),#181);
#177 = LINE('',#178,#179);
#178 = CARTESIAN_POINT('',(7.068289234624,-2.615443081462E-12));
#179 = VECTOR('',#180,1.);
#180 = DIRECTION('',(4.8596543456E-14,-1.));
#181 = ( GEOMETRIC_REPRESENTATION_CONTEXT(2) 
PARAMETRIC_REPRESENTATION_CONTEXT() REPRESENTATION_CONTEXT('2D SPACE',''
  ) );
#182 = PCURVE('',#183,#188);
#183 = PLANE('',#184);
#184 = AXIS2_PLACEMENT_3D('',#185,#186,#187);
#185 = CARTESIAN_POINT('',(493.26250277336,132.00799811065,
    6.058931355274));
#186 = DIRECTION('',(-2.294994463594E-02,-1.87447632802E-03,
    0.99973485804));
#187 = DIRECTION('',(-5.084378383081E-03,0.999985528759,
    1.758229179952E-03));
#188 = DEFINITIONAL_REPRESENTATION('',(#189),#193);
#189 = LINE('',#190,#191);
#190 = CARTESIAN_POINT('',(-5.029077042872E-26,6.535130402154E-12));
#191 = VECTOR('',#192,1.);
#192 = DIRECTION('',(7.695450179868E-15,-1.));
#193 = ( GEOMETRIC_REPRESENTATION_CONTEXT(2) 
PARAMETRIC_REPRESENTATION_CONTEXT() REPRESENTATION_CONTEXT('2D SPACE',''
  ) );
#194 = ORIENTED_EDGE('',*,*,#195,.F.);
#195 = EDGE_CURVE('',#110,#168,#196,.T.);
#196 = SURFACE_CURVE('',#197,(#201,#208),.PCURVE_S1.);
#197 = LINE('',#198,#199);
#198 = CARTESIAN_POINT('',(493.21781643362,129.50548680762,
    8.554379613431));
#199 = VECTOR('',#200,1.);
#200 = DIRECTION('',(1.264204052354E-02,0.708095131894,-0.706003868969)
  );
#201 = PCURVE('',#120,#202);
#202 = DEFINITIONAL_REPRESENTATION('',(#203),#207);
#203 = LINE('',#204,#205);
#204 = CARTESIAN_POINT('',(3.53414449247,1.194827659709E-24));
#205 = VECTOR('',#206,1.);
#206 = DIRECTION('',(1.,1.262177448354E-29));
#207 = ( GEOMETRIC_REPRESENTATION_CONTEXT(2) 
PARAMETRIC_REPRESENTATION_CONTEXT() REPRESENTATION_CONTEXT('2D SPACE',''
  ) );
#208 = PCURVE('',#94,#209);
#209 = DEFINITIONAL_REPRESENTATION('',(#210),#214);
#210 = LINE('',#211,#212);
#211 = CARTESIAN_POINT('',(-40.77242977092,-5.864703186143));
#212 = VECTOR('',#213,1.);
#213 = DIRECTION('',(0.707384504829,-0.706828948423));
#214 = ( GEOMETRIC_REPRESENTATION_CONTEXT(2) 
PARAMETRIC_REPRESENTATION_CONTEXT() REPRESENTATION_CONTEXT('2D SPACE',''
  ) );
#215 = ADVANCED_FACE('',(#216),#132,.T.);
#216 = FACE_BOUND('',#217,.T.);
#217 = EDGE_LOOP('',(#218,#219,#242,#270));
#218 = ORIENTED_EDGE('',*,*,#109,.T.);
#219 = ORIENTED_EDGE('',*,*,#220,.T.);
#220 = EDGE_CURVE('',#112,#221,#223,.T.);
#221 = VERTEX_POINT('',#222);
#222 = CARTESIAN_POINT('',(496.19421218165,122.70872590045,
    11.111119392135));
#223 = SURFACE_CURVE('',#224,(#228,#235),.PCURVE_S1.);
#224 = LINE('',#225,#226);
#225 = CARTESIAN_POINT('',(496.17258594516,126.96355623362,
    11.118285039784));
#226 = VECTOR('',#227,1.);
#227 = DIRECTION('',(5.082676577412E-03,-0.999985665006,
    -1.684096513444E-03));
#228 = PCURVE('',#132,#229);
#229 = DEFINITIONAL_REPRESENTATION('',(#230),#234);
#230 = LINE('',#231,#232);
#231 = CARTESIAN_POINT('',(5.454888246914E-02,-2.999999999997));
#232 = VECTOR('',#233,1.);
#233 = DIRECTION('',(1.,0.));
#234 = ( GEOMETRIC_REPRESENTATION_CONTEXT(2) 
PARAMETRIC_REPRESENTATION_CONTEXT() REPRESENTATION_CONTEXT('2D SPACE',''
  ) );
#235 = PCURVE('',#66,#236);
#236 = DEFINITIONAL_REPRESENTATION('',(#237),#241);
#237 = LINE('',#238,#239);
#238 = CARTESIAN_POINT('',(-43.32697768841,-3.36671001524));
#239 = VECTOR('',#240,1.);
#240 = DIRECTION('',(-0.999999694458,-7.817186843181E-04));
#241 = ( GEOMETRIC_REPRESENTATION_CONTEXT(2) 
PARAMETRIC_REPRESENTATION_CONTEXT() REPRESENTATION_CONTEXT('2D SPACE',''
  ) );
#242 = ORIENTED_EDGE('',*,*,#243,.F.);
#243 = EDGE_CURVE('',#244,#221,#246,.T.);
#244 = VERTEX_POINT('',#245);
#245 = CARTESIAN_POINT('',(493.19504112247,122.69359786334,
    11.042241962929));
#246 = SURFACE_CURVE('',#247,(#251,#258),.PCURVE_S1.);
#247 = LINE('',#248,#249);
#248 = CARTESIAN_POINT('',(493.19504112247,122.69359786334,
    11.042241962929));
#249 = VECTOR('',#250,1.);
#250 = DIRECTION('',(0.999723686394,5.0426790387E-03,2.295914306868E-02)
  );
#251 = PCURVE('',#132,#252);
#252 = DEFINITIONAL_REPRESENTATION('',(#253),#257);
#253 = LINE('',#254,#255);
#254 = CARTESIAN_POINT('',(4.30944020948,-2.621166021725E-12));
#255 = VECTOR('',#256,1.);
#256 = DIRECTION('',(-1.05902157703E-15,-1.));
#257 = ( GEOMETRIC_REPRESENTATION_CONTEXT(2) 
PARAMETRIC_REPRESENTATION_CONTEXT() REPRESENTATION_CONTEXT('2D SPACE',''
  ) );
#258 = PCURVE('',#259,#264);
#259 = PLANE('',#260);
#260 = AXIS2_PLACEMENT_3D('',#261,#262,#263);
#261 = CARTESIAN_POINT('',(493.19504112238,122.6935978798,
    11.042241962941));
#262 = DIRECTION('',(5.060411719415E-03,-0.999986940902,
    -7.143242628095E-04));
#263 = DIRECTION('',(-2.295524113496E-02,-8.303096019491E-04,
    0.999736148937));
#264 = DEFINITIONAL_REPRESENTATION('',(#265),#269);
#265 = LINE('',#266,#267);
#266 = CARTESIAN_POINT('',(1.554311698714E-15,-1.3802822871E-12));
#267 = VECTOR('',#268,1.);
#268 = DIRECTION('',(2.498695694797E-14,-1.));
#269 = ( GEOMETRIC_REPRESENTATION_CONTEXT(2) 
PARAMETRIC_REPRESENTATION_CONTEXT() REPRESENTATION_CONTEXT('2D SPACE',''
  ) );
#270 = ORIENTED_EDGE('',*,*,#271,.F.);
#271 = EDGE_CURVE('',#110,#244,#272,.T.);
#272 = SURFACE_CURVE('',#273,(#277,#284),.PCURVE_S1.);
#273 = LINE('',#274,#275);
#274 = CARTESIAN_POINT('',(493.17341488598,126.94842819651,
    11.049407610578));
#275 = VECTOR('',#276,1.);
#276 = DIRECTION('',(5.082676577412E-03,-0.999985665006,
    -1.684096513444E-03));
#277 = PCURVE('',#132,#278);
#278 = DEFINITIONAL_REPRESENTATION('',(#279),#283);
#279 = LINE('',#280,#281);
#280 = CARTESIAN_POINT('',(5.454888246914E-02,-2.441578341416E-24));
#281 = VECTOR('',#282,1.);
#282 = DIRECTION('',(1.,0.));
#283 = ( GEOMETRIC_REPRESENTATION_CONTEXT(2) 
PARAMETRIC_REPRESENTATION_CONTEXT() REPRESENTATION_CONTEXT('2D SPACE',''
  ) );
#284 = PCURVE('',#94,#285);
#285 = DEFINITIONAL_REPRESENTATION('',(#286),#290);
#286 = LINE('',#287,#288);
#287 = CARTESIAN_POINT('',(-43.32697768841,-3.36671001524));
#288 = VECTOR('',#289,1.);
#289 = DIRECTION('',(-0.999999694458,-7.817186843181E-04));
#290 = ( GEOMETRIC_REPRESENTATION_CONTEXT(2) 
PARAMETRIC_REPRESENTATION_CONTEXT() REPRESENTATION_CONTEXT('2D SPACE',''
  ) );
#291 = ADVANCED_FACE('',(#292),#259,.T.);
#292 = FACE_BOUND('',#293,.T.);
#293 = EDGE_LOOP('',(#294,#295,#318,#346));
#294 = ORIENTED_EDGE('',*,*,#243,.T.);
#295 = ORIENTED_EDGE('',*,*,#296,.T.);
#296 = EDGE_CURVE('',#221,#297,#299,.T.);
#297 = VERTEX_POINT('',#298);
#298 = CARTESIAN_POINT('',(496.0186584545,122.70237599689,
    18.756754913893));
#299 = SURFACE_CURVE('',#300,(#304,#311),.PCURVE_S1.);
#300 = LINE('',#301,#302);
#301 = CARTESIAN_POINT('',(496.02452327124,122.70258813205,
    18.501333101006));
#302 = VECTOR('',#303,1.);
#303 = DIRECTION('',(-2.295524113496E-02,-8.303096019491E-04,
    0.999736148937));
#304 = PCURVE('',#259,#305);
#305 = DEFINITIONAL_REPRESENTATION('',(#306),#310);
#306 = LINE('',#307,#308);
#307 = CARTESIAN_POINT('',(7.392164139228,-2.999999999997));
#308 = VECTOR('',#309,1.);
#309 = DIRECTION('',(1.,0.));
#310 = ( GEOMETRIC_REPRESENTATION_CONTEXT(2) 
PARAMETRIC_REPRESENTATION_CONTEXT() REPRESENTATION_CONTEXT('2D SPACE',''
  ) );
#311 = PCURVE('',#66,#312);
#312 = DEFINITIONAL_REPRESENTATION('',(#313),#317);
#313 = LINE('',#314,#315);
#314 = CARTESIAN_POINT('',(-47.5804756811,4.022127864871));
#315 = VECTOR('',#316,1.);
#316 = DIRECTION('',(1.883099168458E-04,0.99999998227));
#317 = ( GEOMETRIC_REPRESENTATION_CONTEXT(2) 
PARAMETRIC_REPRESENTATION_CONTEXT() REPRESENTATION_CONTEXT('2D SPACE',''
  ) );
#318 = ORIENTED_EDGE('',*,*,#319,.F.);
#319 = EDGE_CURVE('',#320,#297,#322,.T.);
#320 = VERTEX_POINT('',#321);
#321 = CARTESIAN_POINT('',(493.01948739532,122.68724795978,
    18.687877484687));
#322 = SURFACE_CURVE('',#323,(#327,#334),.PCURVE_S1.);
#323 = LINE('',#324,#325);
#324 = CARTESIAN_POINT('',(493.01948739532,122.68724795978,
    18.687877484687));
#325 = VECTOR('',#326,1.);
#326 = DIRECTION('',(0.999723686394,5.0426790387E-03,2.295914306868E-02)
  );
#327 = PCURVE('',#259,#328);
#328 = DEFINITIONAL_REPRESENTATION('',(#329),#333);
#329 = LINE('',#330,#331);
#330 = CARTESIAN_POINT('',(7.647653363219,-3.974518301763E-12));
#331 = VECTOR('',#332,1.);
#332 = DIRECTION('',(2.498695694797E-14,-1.));
#333 = ( GEOMETRIC_REPRESENTATION_CONTEXT(2) 
PARAMETRIC_REPRESENTATION_CONTEXT() REPRESENTATION_CONTEXT('2D SPACE',''
  ) );
#334 = PCURVE('',#335,#340);
#335 = CYLINDRICAL_SURFACE('',#336,345.54563399114);
#336 = AXIS2_PLACEMENT_3D('',#337,#338,#339);
#337 = CARTESIAN_POINT('',(501.10023495147,83.149553554314,
    -324.4929986161));
#338 = DIRECTION('',(-0.999723686394,-5.042679037835E-03,
    -2.29591430688E-02));
#339 = DIRECTION('',(5.064734328377E-03,-0.999986766816,
    -9.025844812381E-04));
#340 = DEFINITIONAL_REPRESENTATION('',(#341),#345);
#341 = LINE('',#342,#343);
#342 = CARTESIAN_POINT('',(1.686488693705,0.));
#343 = VECTOR('',#344,1.);
#344 = DIRECTION('',(0.,-1.));
#345 = ( GEOMETRIC_REPRESENTATION_CONTEXT(2) 
PARAMETRIC_REPRESENTATION_CONTEXT() REPRESENTATION_CONTEXT('2D SPACE',''
  ) );
#346 = ORIENTED_EDGE('',*,*,#347,.F.);
#347 = EDGE_CURVE('',#244,#320,#348,.T.);
#348 = SURFACE_CURVE('',#349,(#353,#360),.PCURVE_S1.);
#349 = LINE('',#350,#351);
#350 = CARTESIAN_POINT('',(493.02535221206,122.68746009494,18.4324556718
    ));
#351 = VECTOR('',#352,1.);
#352 = DIRECTION('',(-2.295524113496E-02,-8.303096019491E-04,
    0.999736148937));
#353 = PCURVE('',#259,#354);
#354 = DEFINITIONAL_REPRESENTATION('',(#355),#359);
#355 = LINE('',#356,#357);
#356 = CARTESIAN_POINT('',(7.392164139228,-3.37329544847E-25));
#357 = VECTOR('',#358,1.);
#358 = DIRECTION('',(1.,0.));
#359 = ( GEOMETRIC_REPRESENTATION_CONTEXT(2) 
PARAMETRIC_REPRESENTATION_CONTEXT() REPRESENTATION_CONTEXT('2D SPACE',''
  ) );
#360 = PCURVE('',#94,#361);
#361 = DEFINITIONAL_REPRESENTATION('',(#362),#366);
#362 = LINE('',#363,#364);
#363 = CARTESIAN_POINT('',(-47.5804756811,4.022127864871));
#364 = VECTOR('',#365,1.);
#365 = DIRECTION('',(1.883099168458E-04,0.99999998227));
#366 = ( GEOMETRIC_REPRESENTATION_CONTEXT(2) 
PARAMETRIC_REPRESENTATION_CONTEXT() REPRESENTATION_CONTEXT('2D SPACE',''
  ) );
#367 = ADVANCED_FACE('',(#368),#335,.T.);
#368 = FACE_BOUND('',#369,.T.);
#369 = EDGE_LOOP('',(#370,#371,#399,#427));
#370 = ORIENTED_EDGE('',*,*,#319,.T.);
#371 = ORIENTED_EDGE('',*,*,#372,.T.);
#372 = EDGE_CURVE('',#297,#373,#375,.T.);
#373 = VERTEX_POINT('',#374);
#374 = CARTESIAN_POINT('',(496.00885938788,127.05674705632,
    18.227060202402));
#375 = SURFACE_CURVE('',#376,(#381,#388),.PCURVE_S1.);
#376 = CIRCLE('',#377,345.54563399114);
#377 = AXIS2_PLACEMENT_3D('',#378,#379,#380);
#378 = CARTESIAN_POINT('',(504.09940601065,83.164681591431,
    -324.4241211869));
#379 = DIRECTION('',(-0.999723686394,-5.042679037835E-03,
    -2.29591430688E-02));
#380 = DIRECTION('',(5.064734328377E-03,-0.999986766816,
    -9.025844812381E-04));
#381 = PCURVE('',#335,#382);
#382 = DEFINITIONAL_REPRESENTATION('',(#383),#387);
#383 = LINE('',#384,#385);
#384 = CARTESIAN_POINT('',(0.,-2.999999999997));
#385 = VECTOR('',#386,1.);
#386 = DIRECTION('',(1.,0.));
#387 = ( GEOMETRIC_REPRESENTATION_CONTEXT(2) 
PARAMETRIC_REPRESENTATION_CONTEXT() REPRESENTATION_CONTEXT('2D SPACE',''
  ) );
#388 = PCURVE('',#66,#389);
#389 = DEFINITIONAL_REPRESENTATION('',(#390),#398);
#390 = ( BOUNDED_CURVE() B_SPLINE_CURVE(2,(#391,#392,#393,#394,#395,#396
,#397),.UNSPECIFIED.,.T.,.F.) B_SPLINE_CURVE_WITH_KNOTS((1,2,2,2,2,1),(
    -2.094395102393,0.,2.094395102393,4.188790204786,6.28318530718,
8.377580409573),.UNSPECIFIED.) CURVE() GEOMETRIC_REPRESENTATION_ITEM() 
RATIONAL_B_SPLINE_CURVE((1.,0.5,1.,0.5,1.,0.5,1.)) REPRESENTATION_ITEM(
  '') );
#391 = CARTESIAN_POINT('',(-433.0139093295,-338.9578721671));
#392 = CARTESIAN_POINT('',(-433.0139093295,259.54472223906));
#393 = CARTESIAN_POINT('',(85.304541657159,-39.70657496406));
#394 = CARTESIAN_POINT('',(603.62299264386,-338.9578721671));
#395 = CARTESIAN_POINT('',(85.304541657159,-638.2091693703));
#396 = CARTESIAN_POINT('',(-433.0139093295,-937.4604665734));
#397 = CARTESIAN_POINT('',(-433.0139093295,-338.9578721671));
#398 = ( GEOMETRIC_REPRESENTATION_CONTEXT(2) 
PARAMETRIC_REPRESENTATION_CONTEXT() REPRESENTATION_CONTEXT('2D SPACE',''
  ) );
#399 = ORIENTED_EDGE('',*,*,#400,.F.);
#400 = EDGE_CURVE('',#401,#373,#403,.T.);
#401 = VERTEX_POINT('',#402);
#402 = CARTESIAN_POINT('',(493.0096883287,127.04161901921,
    18.158182773196));
#403 = SURFACE_CURVE('',#404,(#408,#415),.PCURVE_S1.);
#404 = LINE('',#405,#406);
#405 = CARTESIAN_POINT('',(493.0096883287,127.04161901921,
    18.158182773196));
#406 = VECTOR('',#407,1.);
#407 = DIRECTION('',(0.999723686394,5.0426790387E-03,2.295914306868E-02)
  );
#408 = PCURVE('',#335,#409);
#409 = DEFINITIONAL_REPRESENTATION('',(#410),#414);
#410 = LINE('',#411,#412);
#411 = CARTESIAN_POINT('',(1.699183144635,0.));
#412 = VECTOR('',#413,1.);
#413 = DIRECTION('',(0.,-1.));
#414 = ( GEOMETRIC_REPRESENTATION_CONTEXT(2) 
PARAMETRIC_REPRESENTATION_CONTEXT() REPRESENTATION_CONTEXT('2D SPACE',''
  ) );
#415 = PCURVE('',#416,#421);
#416 = PLANE('',#417);
#417 = AXIS2_PLACEMENT_3D('',#418,#419,#420);
#418 = CARTESIAN_POINT('',(492.88533929264,131.99126086277,
    22.485662298473));
#419 = DIRECTION('',(1.396287491262E-02,0.658341371037,-0.752589979541)
  );
#420 = DIRECTION('',(1.891002344011E-02,-0.752702604333,-0.658089052062)
  );
#421 = DEFINITIONAL_REPRESENTATION('',(#422),#426);
#422 = LINE('',#423,#424);
#423 = CARTESIAN_POINT('',(6.575826647956,-4.423521375039E-12));
#424 = VECTOR('',#425,1.);
#425 = DIRECTION('',(-1.173314917446E-13,-1.));
#426 = ( GEOMETRIC_REPRESENTATION_CONTEXT(2) 
PARAMETRIC_REPRESENTATION_CONTEXT() REPRESENTATION_CONTEXT('2D SPACE',''
  ) );
#427 = ORIENTED_EDGE('',*,*,#428,.F.);
#428 = EDGE_CURVE('',#320,#401,#429,.T.);
#429 = SURFACE_CURVE('',#430,(#435,#442),.PCURVE_S1.);
#430 = CIRCLE('',#431,345.54563399114);
#431 = AXIS2_PLACEMENT_3D('',#432,#433,#434);
#432 = CARTESIAN_POINT('',(501.10023495147,83.149553554314,
    -324.4929986161));
#433 = DIRECTION('',(-0.999723686394,-5.042679037835E-03,
    -2.29591430688E-02));
#434 = DIRECTION('',(5.064734328377E-03,-0.999986766816,
    -9.025844812381E-04));
#435 = PCURVE('',#335,#436);
#436 = DEFINITIONAL_REPRESENTATION('',(#437),#441);
#437 = LINE('',#438,#439);
#438 = CARTESIAN_POINT('',(0.,0.));
#439 = VECTOR('',#440,1.);
#440 = DIRECTION('',(1.,0.));
#441 = ( GEOMETRIC_REPRESENTATION_CONTEXT(2) 
PARAMETRIC_REPRESENTATION_CONTEXT() REPRESENTATION_CONTEXT('2D SPACE',''
  ) );
#442 = PCURVE('',#94,#443);
#443 = DEFINITIONAL_REPRESENTATION('',(#444),#452);
#444 = ( BOUNDED_CURVE() B_SPLINE_CURVE(2,(#445,#446,#447,#448,#449,#450
,#451),.UNSPECIFIED.,.T.,.F.) B_SPLINE_CURVE_WITH_KNOTS((1,2,2,2,2,1),(
    -2.094395102393,0.,2.094395102393,4.188790204786,6.28318530718,
8.377580409573),.UNSPECIFIED.) CURVE() GEOMETRIC_REPRESENTATION_ITEM() 
RATIONAL_B_SPLINE_CURVE((1.,0.5,1.,0.5,1.,0.5,1.)) REPRESENTATION_ITEM(
  '') );
#445 = CARTESIAN_POINT('',(-433.0139093295,-338.9578721671));
#446 = CARTESIAN_POINT('',(-433.0139093295,259.54472223906));
#447 = CARTESIAN_POINT('',(85.304541657159,-39.70657496406));
#448 = CARTESIAN_POINT('',(603.62299264386,-338.9578721671));
#449 = CARTESIAN_POINT('',(85.304541657159,-638.2091693703));
#450 = CARTESIAN_POINT('',(-433.0139093295,-937.4604665734));
#451 = CARTESIAN_POINT('',(-433.0139093295,-338.9578721671));
#452 = ( GEOMETRIC_REPRESENTATION_CONTEXT(2) 
PARAMETRIC_REPRESENTATION_CONTEXT() REPRESENTATION_CONTEXT('2D SPACE',''
  ) );
#453 = ADVANCED_FACE('',(#454),#416,.F.);
#454 = FACE_BOUND('',#455,.F.);
#455 = EDGE_LOOP('',(#456,#486,#507,#508));
#456 = ORIENTED_EDGE('',*,*,#457,.T.);
#457 = EDGE_CURVE('',#458,#460,#462,.T.);
#458 = VERTEX_POINT('',#459);
#459 = CARTESIAN_POINT('',(492.88533929265,131.99126086277,
    22.485662298474));
#460 = VERTEX_POINT('',#461);
#461 = CARTESIAN_POINT('',(495.88451035183,132.00638889988,
    22.55453972768));
#462 = SURFACE_CURVE('',#463,(#467,#474),.PCURVE_S1.);
#463 = LINE('',#464,#465);
#464 = CARTESIAN_POINT('',(492.88533929265,131.99126086277,
    22.485662298474));
#465 = VECTOR('',#466,1.);
#466 = DIRECTION('',(0.999723686394,5.0426790387E-03,2.295914306868E-02)
  );
#467 = PCURVE('',#416,#468);
#468 = DEFINITIONAL_REPRESENTATION('',(#469),#473);
#469 = LINE('',#470,#471);
#470 = CARTESIAN_POINT('',(-6.285767535711E-25,-5.357272324974E-12));
#471 = VECTOR('',#472,1.);
#472 = DIRECTION('',(-1.173314917446E-13,-1.));
#473 = ( GEOMETRIC_REPRESENTATION_CONTEXT(2) 
PARAMETRIC_REPRESENTATION_CONTEXT() REPRESENTATION_CONTEXT('2D SPACE',''
  ) );
#474 = PCURVE('',#475,#480);
#475 = PLANE('',#476);
#476 = AXIS2_PLACEMENT_3D('',#477,#478,#479);
#477 = CARTESIAN_POINT('',(492.87856625901,131.99096030335,
    22.780650563351));
#478 = DIRECTION('',(-5.064734329242E-03,0.999986766816,
    9.025844812162E-04));
#479 = DIRECTION('',(2.295428780225E-02,1.018617044913E-03,
    -0.999735996697));
#480 = DEFINITIONAL_REPRESENTATION('',(#481),#485);
#481 = LINE('',#482,#483);
#482 = CARTESIAN_POINT('',(0.295066163319,-6.317615384959E-12));
#483 = VECTOR('',#484,1.);
#484 = DIRECTION('',(-2.078545668916E-14,-1.));
#485 = ( GEOMETRIC_REPRESENTATION_CONTEXT(2) 
PARAMETRIC_REPRESENTATION_CONTEXT() REPRESENTATION_CONTEXT('2D SPACE',''
  ) );
#486 = ORIENTED_EDGE('',*,*,#487,.T.);
#487 = EDGE_CURVE('',#460,#373,#488,.T.);
#488 = SURFACE_CURVE('',#489,(#493,#500),.PCURVE_S1.);
#489 = LINE('',#490,#491);
#490 = CARTESIAN_POINT('',(495.94668486985,129.5315679781,
    20.390799965041));
#491 = VECTOR('',#492,1.);
#492 = DIRECTION('',(1.891002344011E-02,-0.752702604333,-0.658089052062)
  );
#493 = PCURVE('',#416,#494);
#494 = DEFINITIONAL_REPRESENTATION('',(#495),#499);
#495 = LINE('',#496,#497);
#496 = CARTESIAN_POINT('',(3.287913323977,-2.999999999997));
#497 = VECTOR('',#498,1.);
#498 = DIRECTION('',(1.,0.));
#499 = ( GEOMETRIC_REPRESENTATION_CONTEXT(2) 
PARAMETRIC_REPRESENTATION_CONTEXT() REPRESENTATION_CONTEXT('2D SPACE',''
  ) );
#500 = PCURVE('',#66,#501);
#501 = DEFINITIONAL_REPRESENTATION('',(#502),#506);
#502 = LINE('',#503,#504);
#503 = CARTESIAN_POINT('',(-40.7494865699,5.905926513209));
#504 = VECTOR('',#505,1.);
#505 = DIRECTION('',(-0.753382398892,-0.657582664796));
#506 = ( GEOMETRIC_REPRESENTATION_CONTEXT(2) 
PARAMETRIC_REPRESENTATION_CONTEXT() REPRESENTATION_CONTEXT('2D SPACE',''
  ) );
#507 = ORIENTED_EDGE('',*,*,#400,.F.);
#508 = ORIENTED_EDGE('',*,*,#509,.F.);
#509 = EDGE_CURVE('',#458,#401,#510,.T.);
#510 = SURFACE_CURVE('',#511,(#515,#522),.PCURVE_S1.);
#511 = LINE('',#512,#513);
#512 = CARTESIAN_POINT('',(492.94751381067,129.51643994099,
    20.321922535835));
#513 = VECTOR('',#514,1.);
#514 = DIRECTION('',(1.891002344011E-02,-0.752702604333,-0.658089052062)
  );
#515 = PCURVE('',#416,#516);
#516 = DEFINITIONAL_REPRESENTATION('',(#517),#521);
#517 = LINE('',#518,#519);
#518 = CARTESIAN_POINT('',(3.287913323978,-5.454222164022E-24));
#519 = VECTOR('',#520,1.);
#520 = DIRECTION('',(1.,0.));
#521 = ( GEOMETRIC_REPRESENTATION_CONTEXT(2) 
PARAMETRIC_REPRESENTATION_CONTEXT() REPRESENTATION_CONTEXT('2D SPACE',''
  ) );
#522 = PCURVE('',#94,#523);
#523 = DEFINITIONAL_REPRESENTATION('',(#524),#528);
#524 = LINE('',#525,#526);
#525 = CARTESIAN_POINT('',(-40.7494865699,5.905926513209));
#526 = VECTOR('',#527,1.);
#527 = DIRECTION('',(-0.753382398892,-0.657582664796));
#528 = ( GEOMETRIC_REPRESENTATION_CONTEXT(2) 
PARAMETRIC_REPRESENTATION_CONTEXT() REPRESENTATION_CONTEXT('2D SPACE',''
  ) );
#529 = ADVANCED_FACE('',(#530),#475,.F.);
#530 = FACE_BOUND('',#531,.F.);
#531 = EDGE_LOOP('',(#532,#567,#588,#589));
#532 = ORIENTED_EDGE('',*,*,#533,.T.);
#533 = EDGE_CURVE('',#534,#536,#538,.T.);
#534 = VERTEX_POINT('',#535);
#535 = CARTESIAN_POINT('',(492.87856625901,131.99096030335,
    22.780650563351));
#536 = VERTEX_POINT('',#537);
#537 = CARTESIAN_POINT('',(495.87773731819,132.00608834046,
    22.849527992557));
#538 = SURFACE_CURVE('',#539,(#543,#550),.PCURVE_S1.);
#539 = LINE('',#540,#541);
#540 = CARTESIAN_POINT('',(492.87856625901,131.99096030335,
    22.780650563351));
#541 = VECTOR('',#542,1.);
#542 = DIRECTION('',(0.999723686394,5.0426790387E-03,2.295914306868E-02)
  );
#543 = PCURVE('',#475,#544);
#544 = DEFINITIONAL_REPRESENTATION('',(#545),#549);
#545 = LINE('',#546,#547);
#546 = CARTESIAN_POINT('',(3.505828937517E-27,1.686673999973E-13));
#547 = VECTOR('',#548,1.);
#548 = DIRECTION('',(-2.078545668916E-14,-1.));
#549 = ( GEOMETRIC_REPRESENTATION_CONTEXT(2) 
PARAMETRIC_REPRESENTATION_CONTEXT() REPRESENTATION_CONTEXT('2D SPACE',''
  ) );
#550 = PCURVE('',#551,#561);
#551 = SURFACE_OF_LINEAR_EXTRUSION('',#552,#559);
#552 = B_SPLINE_CURVE_WITH_KNOTS('',3,(#553,#554,#555,#556,#557,#558),
  .UNSPECIFIED.,.F.,.F.,(4,2,4),(-3.476062955492,-0.923591773161,0.),
  .UNSPECIFIED.);
#553 = CARTESIAN_POINT('',(492.87856625901,131.99096030335,
    22.780650563351));
#554 = CARTESIAN_POINT('',(492.84883616105,146.80319938531,
    20.821889112034));
#555 = CARTESIAN_POINT('',(492.83279659127,166.2319784744,
    17.253029464876));
#556 = CARTESIAN_POINT('',(492.8552613798,198.14980728715,9.264493178096
    ));
#557 = CARTESIAN_POINT('',(492.86497849045,205.58262613086,
    7.208852628966));
#558 = CARTESIAN_POINT('',(492.86870745056,208.55157458214,
    6.394389135385));
#559 = VECTOR('',#560,1.);
#560 = DIRECTION('',(-0.999723686394,-5.0426790387E-03,
    -2.295914306868E-02));
#561 = DEFINITIONAL_REPRESENTATION('',(#562),#566);
#562 = LINE('',#563,#564);
#563 = CARTESIAN_POINT('',(-3.476062955492,0.));
#564 = VECTOR('',#565,1.);
#565 = DIRECTION('',(0.,-1.));
#566 = ( GEOMETRIC_REPRESENTATION_CONTEXT(2) 
PARAMETRIC_REPRESENTATION_CONTEXT() REPRESENTATION_CONTEXT('2D SPACE',''
  ) );
#567 = ORIENTED_EDGE('',*,*,#568,.T.);
#568 = EDGE_CURVE('',#536,#460,#569,.T.);
#569 = SURFACE_CURVE('',#570,(#574,#581),.PCURVE_S1.);
#570 = LINE('',#571,#572);
#571 = CARTESIAN_POINT('',(495.87773731819,132.00608834046,
    22.849527992557));
#572 = VECTOR('',#573,1.);
#573 = DIRECTION('',(2.295428780225E-02,1.018617044913E-03,
    -0.999735996697));
#574 = PCURVE('',#475,#575);
#575 = DEFINITIONAL_REPRESENTATION('',(#576),#580);
#576 = LINE('',#577,#578);
#577 = CARTESIAN_POINT('',(-5.702730231396E-14,-2.999999999997));
#578 = VECTOR('',#579,1.);
#579 = DIRECTION('',(1.,0.));
#580 = ( GEOMETRIC_REPRESENTATION_CONTEXT(2) 
PARAMETRIC_REPRESENTATION_CONTEXT() REPRESENTATION_CONTEXT('2D SPACE',''
  ) );
#581 = PCURVE('',#66,#582);
#582 = DEFINITIONAL_REPRESENTATION('',(#583),#587);
#583 = LINE('',#584,#585);
#584 = CARTESIAN_POINT('',(-38.27243054253,8.363067481728));
#585 = VECTOR('',#586,1.);
#586 = DIRECTION('',(-1.999919327367E-15,-1.));
#587 = ( GEOMETRIC_REPRESENTATION_CONTEXT(2) 
PARAMETRIC_REPRESENTATION_CONTEXT() REPRESENTATION_CONTEXT('2D SPACE',''
  ) );
#588 = ORIENTED_EDGE('',*,*,#457,.F.);
#589 = ORIENTED_EDGE('',*,*,#590,.F.);
#590 = EDGE_CURVE('',#534,#458,#591,.T.);
#591 = SURFACE_CURVE('',#592,(#596,#603),.PCURVE_S1.);
#592 = LINE('',#593,#594);
#593 = CARTESIAN_POINT('',(492.87856625901,131.99096030335,
    22.780650563351));
#594 = VECTOR('',#595,1.);
#595 = DIRECTION('',(2.295428780225E-02,1.018617044913E-03,
    -0.999735996697));
#596 = PCURVE('',#475,#597);
#597 = DEFINITIONAL_REPRESENTATION('',(#598),#602);
#598 = LINE('',#599,#600);
#599 = CARTESIAN_POINT('',(5.329067753459E-15,-1.107671069831E-28));
#600 = VECTOR('',#601,1.);
#601 = DIRECTION('',(1.,0.));
#602 = ( GEOMETRIC_REPRESENTATION_CONTEXT(2) 
PARAMETRIC_REPRESENTATION_CONTEXT() REPRESENTATION_CONTEXT('2D SPACE',''
  ) );
#603 = PCURVE('',#94,#604);
#604 = DEFINITIONAL_REPRESENTATION('',(#605),#609);
#605 = LINE('',#606,#607);
#606 = CARTESIAN_POINT('',(-38.27243054253,8.363067481728));
#607 = VECTOR('',#608,1.);
#608 = DIRECTION('',(-1.999919327367E-15,-1.));
#609 = ( GEOMETRIC_REPRESENTATION_CONTEXT(2) 
PARAMETRIC_REPRESENTATION_CONTEXT() REPRESENTATION_CONTEXT('2D SPACE',''
  ) );
#610 = ADVANCED_FACE('',(#611),#551,.T.);
#611 = FACE_BOUND('',#612,.T.);
#612 = EDGE_LOOP('',(#613,#614,#643,#671));
#613 = ORIENTED_EDGE('',*,*,#533,.T.);
#614 = ORIENTED_EDGE('',*,*,#615,.T.);
#615 = EDGE_CURVE('',#536,#616,#618,.T.);
#616 = VERTEX_POINT('',#617);
#617 = CARTESIAN_POINT('',(495.86787850974,208.56670261925,
    6.463266564591));
#618 = SURFACE_CURVE('',#619,(#626,#633),.PCURVE_S1.);
#619 = B_SPLINE_CURVE_WITH_KNOTS('',3,(#620,#621,#622,#623,#624,#625),
  .UNSPECIFIED.,.F.,.F.,(4,2,4),(-3.476062955492,-0.923591773161,0.),
  .UNSPECIFIED.);
#620 = CARTESIAN_POINT('',(495.87773731819,132.00608834046,
    22.849527992557));
#621 = CARTESIAN_POINT('',(495.84800722023,146.81832742242,
    20.89076654124));
#622 = CARTESIAN_POINT('',(495.83196765045,166.24710651151,
    17.321906894082));
#623 = CARTESIAN_POINT('',(495.85443243898,198.16493532426,
    9.333370607302));
#624 = CARTESIAN_POINT('',(495.86414954963,205.59775416797,
    7.277730058172));
#625 = CARTESIAN_POINT('',(495.86787850974,208.56670261925,
    6.463266564591));
#626 = PCURVE('',#551,#627);
#627 = DEFINITIONAL_REPRESENTATION('',(#628),#632);
#628 = LINE('',#629,#630);
#629 = CARTESIAN_POINT('',(0.,-2.999999999997));
#630 = VECTOR('',#631,1.);
#631 = DIRECTION('',(1.,0.));
#632 = ( GEOMETRIC_REPRESENTATION_CONTEXT(2) 
PARAMETRIC_REPRESENTATION_CONTEXT() REPRESENTATION_CONTEXT('2D SPACE',''
  ) );
#633 = PCURVE('',#66,#634);
#634 = DEFINITIONAL_REPRESENTATION('',(#635),#642);
#635 = B_SPLINE_CURVE_WITH_KNOTS('',3,(#636,#637,#638,#639,#640,#641),
  .UNSPECIFIED.,.F.,.F.,(4,2,4),(-3.476062955492,-0.923591773161,0.),
  .UNSPECIFIED.);
#636 = CARTESIAN_POINT('',(-38.27243054253,8.363067481728));
#637 = CARTESIAN_POINT('',(-23.46200484629,6.390417583928));
#638 = CARTESIAN_POINT('',(-4.036622822987,2.803077818865));
#639 = CARTESIAN_POINT('',(27.873459508201,-5.216377175632));
#640 = CARTESIAN_POINT('',(35.30427538821,-7.279269274187));
#641 = CARTESIAN_POINT('',(38.272430542547,-8.096627563836));
#642 = ( GEOMETRIC_REPRESENTATION_CONTEXT(2) 
PARAMETRIC_REPRESENTATION_CONTEXT() REPRESENTATION_CONTEXT('2D SPACE',''
  ) );
#643 = ORIENTED_EDGE('',*,*,#644,.F.);
#644 = EDGE_CURVE('',#645,#616,#647,.T.);
#645 = VERTEX_POINT('',#646);
#646 = CARTESIAN_POINT('',(492.86870745056,208.55157458214,
    6.394389135385));
#647 = SURFACE_CURVE('',#648,(#652,#659),.PCURVE_S1.);
#648 = LINE('',#649,#650);
#649 = CARTESIAN_POINT('',(492.86870745056,208.55157458214,
    6.394389135385));
#650 = VECTOR('',#651,1.);
#651 = DIRECTION('',(0.999723686394,5.0426790387E-03,2.295914306868E-02)
  );
#652 = PCURVE('',#551,#653);
#653 = DEFINITIONAL_REPRESENTATION('',(#654),#658);
#654 = LINE('',#655,#656);
#655 = CARTESIAN_POINT('',(0.,0.));
#656 = VECTOR('',#657,1.);
#657 = DIRECTION('',(0.,-1.));
#658 = ( GEOMETRIC_REPRESENTATION_CONTEXT(2) 
PARAMETRIC_REPRESENTATION_CONTEXT() REPRESENTATION_CONTEXT('2D SPACE',''
  ) );
#659 = PCURVE('',#660,#665);
#660 = PLANE('',#661);
#661 = AXIS2_PLACEMENT_3D('',#662,#663,#664);
#662 = CARTESIAN_POINT('',(492.87335758654,208.54430718927,
    6.193501674622));
#663 = DIRECTION('',(4.208219636405E-03,-0.999333901298,
    3.624975314571E-02));
#664 = DIRECTION('',(-2.312664588433E-02,3.614311972901E-02,
    0.999078992446));
#665 = DEFINITIONAL_REPRESENTATION('',(#666),#670);
#666 = LINE('',#667,#668);
#667 = CARTESIAN_POINT('',(0.201072650193,2.074309128211E-12));
#668 = VECTOR('',#669,1.);
#669 = DIRECTION('',(-6.998533697009E-13,-1.));
#670 = ( GEOMETRIC_REPRESENTATION_CONTEXT(2) 
PARAMETRIC_REPRESENTATION_CONTEXT() REPRESENTATION_CONTEXT('2D SPACE',''
  ) );
#671 = ORIENTED_EDGE('',*,*,#672,.F.);
#672 = EDGE_CURVE('',#534,#645,#673,.T.);
#673 = SURFACE_CURVE('',#674,(#681,#688),.PCURVE_S1.);
#674 = B_SPLINE_CURVE_WITH_KNOTS('',3,(#675,#676,#677,#678,#679,#680),
  .UNSPECIFIED.,.F.,.F.,(4,2,4),(-3.476062955492,-0.923591773161,0.),
  .UNSPECIFIED.);
#675 = CARTESIAN_POINT('',(492.87856625901,131.99096030335,
    22.780650563351));
#676 = CARTESIAN_POINT('',(492.84883616105,146.80319938531,
    20.821889112034));
#677 = CARTESIAN_POINT('',(492.83279659127,166.2319784744,
    17.253029464876));
#678 = CARTESIAN_POINT('',(492.8552613798,198.14980728715,9.264493178096
    ));
#679 = CARTESIAN_POINT('',(492.86497849045,205.58262613086,
    7.208852628966));
#680 = CARTESIAN_POINT('',(492.86870745056,208.55157458214,
    6.394389135385));
#681 = PCURVE('',#551,#682);
#682 = DEFINITIONAL_REPRESENTATION('',(#683),#687);
#683 = LINE('',#684,#685);
#684 = CARTESIAN_POINT('',(0.,0.));
#685 = VECTOR('',#686,1.);
#686 = DIRECTION('',(1.,0.));
#687 = ( GEOMETRIC_REPRESENTATION_CONTEXT(2) 
PARAMETRIC_REPRESENTATION_CONTEXT() REPRESENTATION_CONTEXT('2D SPACE',''
  ) );
#688 = PCURVE('',#94,#689);
#689 = DEFINITIONAL_REPRESENTATION('',(#690),#697);
#690 = B_SPLINE_CURVE_WITH_KNOTS('',3,(#691,#692,#693,#694,#695,#696),
  .UNSPECIFIED.,.F.,.F.,(4,2,4),(-3.476062955492,-0.923591773161,0.),
  .UNSPECIFIED.);
#691 = CARTESIAN_POINT('',(-38.27243054253,8.363067481728));
#692 = CARTESIAN_POINT('',(-23.46200484629,6.390417583928));
#693 = CARTESIAN_POINT('',(-4.036622822987,2.803077818865));
#694 = CARTESIAN_POINT('',(27.873459508201,-5.216377175632));
#695 = CARTESIAN_POINT('',(35.30427538821,-7.279269274187));
#696 = CARTESIAN_POINT('',(38.272430542547,-8.096627563836));
#697 = ( GEOMETRIC_REPRESENTATION_CONTEXT(2) 
PARAMETRIC_REPRESENTATION_CONTEXT() REPRESENTATION_CONTEXT('2D SPACE',''
  ) );
#698 = ADVANCED_FACE('',(#699),#660,.F.);
#699 = FACE_BOUND('',#700,.F.);
#700 = EDGE_LOOP('',(#701,#726,#747,#748));
#701 = ORIENTED_EDGE('',*,*,#702,.T.);
#702 = EDGE_CURVE('',#703,#705,#707,.T.);
#703 = VERTEX_POINT('',#704);
#704 = CARTESIAN_POINT('',(492.87335758654,208.54430718927,
    6.193501674622));
#705 = VERTEX_POINT('',#706);
#706 = CARTESIAN_POINT('',(495.87252864572,208.55943522638,
    6.262379103828));
#707 = SURFACE_CURVE('',#708,(#712,#719),.PCURVE_S1.);
#708 = LINE('',#709,#710);
#709 = CARTESIAN_POINT('',(492.87335758654,208.54430718927,
    6.193501674622));
#710 = VECTOR('',#711,1.);
#711 = DIRECTION('',(0.999723686394,5.0426790387E-03,2.295914306868E-02)
  );
#712 = PCURVE('',#660,#713);
#713 = DEFINITIONAL_REPRESENTATION('',(#714),#718);
#714 = LINE('',#715,#716);
#715 = CARTESIAN_POINT('',(-8.875980903554E-16,1.686673999973E-13));
#716 = VECTOR('',#717,1.);
#717 = DIRECTION('',(-6.998533697009E-13,-1.));
#718 = ( GEOMETRIC_REPRESENTATION_CONTEXT(2) 
PARAMETRIC_REPRESENTATION_CONTEXT() REPRESENTATION_CONTEXT('2D SPACE',''
  ) );
#719 = PCURVE('',#183,#720);
#720 = DEFINITIONAL_REPRESENTATION('',(#721),#725);
#721 = LINE('',#722,#723);
#722 = CARTESIAN_POINT('',(76.537416670048,6.669372879033E-12));
#723 = VECTOR('',#724,1.);
#724 = DIRECTION('',(7.695450179868E-15,-1.));
#725 = ( GEOMETRIC_REPRESENTATION_CONTEXT(2) 
PARAMETRIC_REPRESENTATION_CONTEXT() REPRESENTATION_CONTEXT('2D SPACE',''
  ) );
#726 = ORIENTED_EDGE('',*,*,#727,.T.);
#727 = EDGE_CURVE('',#705,#616,#728,.T.);
#728 = SURFACE_CURVE('',#729,(#733,#740),.PCURVE_S1.);
#729 = LINE('',#730,#731);
#730 = CARTESIAN_POINT('',(495.87252864572,208.55943522638,
    6.262379103828));
#731 = VECTOR('',#732,1.);
#732 = DIRECTION('',(-2.312664588433E-02,3.614311972901E-02,
    0.999078992446));
#733 = PCURVE('',#660,#734);
#734 = DEFINITIONAL_REPRESENTATION('',(#735),#739);
#735 = LINE('',#736,#737);
#736 = CARTESIAN_POINT('',(-2.064056185482E-12,-2.999999999997));
#737 = VECTOR('',#738,1.);
#738 = DIRECTION('',(1.,2.019483917366E-28));
#739 = ( GEOMETRIC_REPRESENTATION_CONTEXT(2) 
PARAMETRIC_REPRESENTATION_CONTEXT() REPRESENTATION_CONTEXT('2D SPACE',''
  ) );
#740 = PCURVE('',#66,#741);
#741 = DEFINITIONAL_REPRESENTATION('',(#742),#746);
#742 = LINE('',#743,#744);
#743 = CARTESIAN_POINT('',(38.264958376241,-8.297561327516));
#744 = VECTOR('',#745,1.);
#745 = DIRECTION('',(3.716152495189E-02,0.999309271979));
#746 = ( GEOMETRIC_REPRESENTATION_CONTEXT(2) 
PARAMETRIC_REPRESENTATION_CONTEXT() REPRESENTATION_CONTEXT('2D SPACE',''
  ) );
#747 = ORIENTED_EDGE('',*,*,#644,.F.);
#748 = ORIENTED_EDGE('',*,*,#749,.F.);
#749 = EDGE_CURVE('',#703,#645,#750,.T.);
#750 = SURFACE_CURVE('',#751,(#755,#762),.PCURVE_S1.);
#751 = LINE('',#752,#753);
#752 = CARTESIAN_POINT('',(492.87335758654,208.54430718927,
    6.193501674622));
#753 = VECTOR('',#754,1.);
#754 = DIRECTION('',(-2.312664588433E-02,3.614311972901E-02,
    0.999078992446));
#755 = PCURVE('',#660,#756);
#756 = DEFINITIONAL_REPRESENTATION('',(#757),#761);
#757 = LINE('',#758,#759);
#758 = CARTESIAN_POINT('',(3.550392361894E-14,-2.484754058232E-26));
#759 = VECTOR('',#760,1.);
#760 = DIRECTION('',(1.,2.019483917366E-28));
#761 = ( GEOMETRIC_REPRESENTATION_CONTEXT(2) 
PARAMETRIC_REPRESENTATION_CONTEXT() REPRESENTATION_CONTEXT('2D SPACE',''
  ) );
#762 = PCURVE('',#94,#763);
#763 = DEFINITIONAL_REPRESENTATION('',(#764),#768);
#764 = LINE('',#765,#766);
#765 = CARTESIAN_POINT('',(38.264958376241,-8.297561327516));
#766 = VECTOR('',#767,1.);
#767 = DIRECTION('',(3.716152495189E-02,0.999309271979));
#768 = ( GEOMETRIC_REPRESENTATION_CONTEXT(2) 
PARAMETRIC_REPRESENTATION_CONTEXT() REPRESENTATION_CONTEXT('2D SPACE',''
  ) );
#769 = ADVANCED_FACE('',(#770),#183,.F.);
#770 = FACE_BOUND('',#771,.F.);
#771 = EDGE_LOOP('',(#772,#773,#794,#795));
#772 = ORIENTED_EDGE('',*,*,#167,.T.);
#773 = ORIENTED_EDGE('',*,*,#774,.T.);
#774 = EDGE_CURVE('',#145,#705,#775,.T.);
#775 = SURFACE_CURVE('',#776,(#780,#787),.PCURVE_S1.);
#776 = LINE('',#777,#778);
#777 = CARTESIAN_POINT('',(496.26167383397,132.02312586663,
    6.127808783986));
#778 = VECTOR('',#779,1.);
#779 = DIRECTION('',(-5.084378383081E-03,0.999985528759,
    1.758229179952E-03));
#780 = PCURVE('',#183,#781);
#781 = DEFINITIONAL_REPRESENTATION('',(#782),#786);
#782 = LINE('',#783,#784);
#783 = CARTESIAN_POINT('',(-2.811383393793E-07,-2.999999999997));
#784 = VECTOR('',#785,1.);
#785 = DIRECTION('',(1.,0.));
#786 = ( GEOMETRIC_REPRESENTATION_CONTEXT(2) 
PARAMETRIC_REPRESENTATION_CONTEXT() REPRESENTATION_CONTEXT('2D SPACE',''
  ) );
#787 = PCURVE('',#66,#788);
#788 = DEFINITIONAL_REPRESENTATION('',(#789),#793);
#789 = LINE('',#790,#791);
#790 = CARTESIAN_POINT('',(-38.27243054253,-8.363067481728));
#791 = VECTOR('',#792,1.);
#792 = DIRECTION('',(0.999999633742,8.558709820787E-04));
#793 = ( GEOMETRIC_REPRESENTATION_CONTEXT(2) 
PARAMETRIC_REPRESENTATION_CONTEXT() REPRESENTATION_CONTEXT('2D SPACE',''
  ) );
#794 = ORIENTED_EDGE('',*,*,#702,.F.);
#795 = ORIENTED_EDGE('',*,*,#796,.F.);
#796 = EDGE_CURVE('',#168,#703,#797,.T.);
#797 = SURFACE_CURVE('',#798,(#802,#809),.PCURVE_S1.);
#798 = LINE('',#799,#800);
#799 = CARTESIAN_POINT('',(493.26250277479,132.00799782952,6.05893135478
    ));
#800 = VECTOR('',#801,1.);
#801 = DIRECTION('',(-5.084378383081E-03,0.999985528759,
    1.758229179952E-03));
#802 = PCURVE('',#183,#803);
#803 = DEFINITIONAL_REPRESENTATION('',(#804),#808);
#804 = LINE('',#805,#806);
#805 = CARTESIAN_POINT('',(-2.811383624656E-07,-6.199224465834E-24));
#806 = VECTOR('',#807,1.);
#807 = DIRECTION('',(1.,0.));
#808 = ( GEOMETRIC_REPRESENTATION_CONTEXT(2) 
PARAMETRIC_REPRESENTATION_CONTEXT() REPRESENTATION_CONTEXT('2D SPACE',''
  ) );
#809 = PCURVE('',#94,#810);
#810 = DEFINITIONAL_REPRESENTATION('',(#811),#815);
#811 = LINE('',#812,#813);
#812 = CARTESIAN_POINT('',(-38.27243054253,-8.363067481728));
#813 = VECTOR('',#814,1.);
#814 = DIRECTION('',(0.999999633742,8.558709820787E-04));
#815 = ( GEOMETRIC_REPRESENTATION_CONTEXT(2) 
PARAMETRIC_REPRESENTATION_CONTEXT() REPRESENTATION_CONTEXT('2D SPACE',''
  ) );
#816 = ADVANCED_FACE('',(#817,#820),#94,.F.);
#817 = FACE_BOUND('',#818,.T.);
#818 = EDGE_LOOP('',(#819));
#819 = ORIENTED_EDGE('',*,*,#79,.T.);
#820 = FACE_BOUND('',#821,.T.);
#821 = EDGE_LOOP('',(#822,#823,#824,#825,#826,#827,#828,#829,#830));
#822 = ORIENTED_EDGE('',*,*,#195,.F.);
#823 = ORIENTED_EDGE('',*,*,#271,.T.);
#824 = ORIENTED_EDGE('',*,*,#347,.T.);
#825 = ORIENTED_EDGE('',*,*,#428,.T.);
#826 = ORIENTED_EDGE('',*,*,#509,.F.);
#827 = ORIENTED_EDGE('',*,*,#590,.F.);
#828 = ORIENTED_EDGE('',*,*,#672,.T.);
#829 = ORIENTED_EDGE('',*,*,#749,.F.);
#830 = ORIENTED_EDGE('',*,*,#796,.F.);
#831 = ADVANCED_FACE('',(#832,#835),#66,.T.);
#832 = FACE_BOUND('',#833,.F.);
#833 = EDGE_LOOP('',(#834));
#834 = ORIENTED_EDGE('',*,*,#51,.T.);
#835 = FACE_BOUND('',#836,.F.);
#836 = EDGE_LOOP('',(#837,#838,#839,#840,#841,#842,#843,#844,#845));
#837 = ORIENTED_EDGE('',*,*,#144,.F.);
#838 = ORIENTED_EDGE('',*,*,#220,.T.);
#839 = ORIENTED_EDGE('',*,*,#296,.T.);
#840 = ORIENTED_EDGE('',*,*,#372,.T.);
#841 = ORIENTED_EDGE('',*,*,#487,.F.);
#842 = ORIENTED_EDGE('',*,*,#568,.F.);
#843 = ORIENTED_EDGE('',*,*,#615,.T.);
#844 = ORIENTED_EDGE('',*,*,#727,.F.);
#845 = ORIENTED_EDGE('',*,*,#774,.F.);
#846 = ( GEOMETRIC_REPRESENTATION_CONTEXT(3) 
GLOBAL_UNCERTAINTY_ASSIGNED_CONTEXT((#850)) GLOBAL_UNIT_ASSIGNED_CONTEXT
((#847,#848,#849)) REPRESENTATION_CONTEXT('Context #1',
  '3D Context with UNIT and UNCERTAINTY') );
#847 = ( LENGTH_UNIT() NAMED_UNIT(*) SI_UNIT(.MILLI.,.METRE.) );
#848 = ( NAMED_UNIT(*) PLANE_ANGLE_UNIT() SI_UNIT($,.RADIAN.) );
#849 = ( NAMED_UNIT(*) SI_UNIT($,.STERADIAN.) SOLID_ANGLE_UNIT() );
#850 = UNCERTAINTY_MEASURE_WITH_UNIT(LENGTH_MEASURE(5.E-05),#847,
  'distance_accuracy_value','confusion accuracy');
#851 = PRODUCT_RELATED_PRODUCT_CATEGORY('part',$,(#7));
ENDSEC;
END-ISO-10303-21;
