  0
SECTION
  2
HEADER
  9
$ACADVER
  1
AC1024
  9
$ACADMAINTVER
 70
6
  9
$DWGCODEPAGE
  3
ANSI_1252
  9
$LASTSAVEDBY
  1
ezdxf
  9
$INSBASE
 10
0.0
 20
0.0
 30
0.0
  9
$EXTMIN
 10
1e+20
 20
1e+20
 30
1e+20
  9
$EXTMAX
 10
-1e+20
 20
-1e+20
 30
-1e+20
  9
$LIMMIN
 10
0.0
 20
0.0
  9
$LIMMAX
 10
420.0
 20
297.0
  9
$ORTHOMODE
 70
0
  9
$REGENMODE
 70
1
  9
$FILLMODE
 70
1
  9
$QTEXTMODE
 70
0
  9
$MIRRTEXT
 70
1
  9
$LTSCALE
 40
1.0
  9
$ATTMODE
 70
1
  9
$TEXTSIZE
 40
2.5
  9
$TRACEWID
 40
1.0
  9
$TEXTSTYLE
  7
Standard
  9
$CLAYER
  8
0
  9
$CELTYPE
  6
ByLayer
  9
$CECOLOR
 62
256
  9
$CELTSCALE
 40
1.0
  9
$DISPSILH
 70
0
  9
$DIMSCALE
 40
1.0
  9
$DIMASZ
 40
2.5
  9
$DIMEXO
 40
0.625
  9
$DIMDLI
 40
3.75
  9
$DIMRND
 40
0.0
  9
$DIMDLE
 40
0.0
  9
$DIMEXE
 40
1.25
  9
$DIMTP
 40
0.0
  9
$DIMTM
 40
0.0
  9
$DIMTXT
 40
2.5
  9
$DIMCEN
 40
2.5
  9
$DIMTSZ
 40
0.0
  9
$DIMTOL
 70
0
  9
$DIMLIM
 70
0
  9
$DIMTIH
 70
0
  9
$DIMTOH
 70
0
  9
$DIMSE1
 70
0
  9
$DIMSE2
 70
0
  9
$DIMTAD
 70
1
  9
$DIMZIN
 70
8
  9
$DIMBLK
  1

  9
$DIMASO
 70
1
  9
$DIMSHO
 70
1
  9
$DIMPOST
  1

  9
$DIMAPOST
  1

  9
$DIMALT
 70
0
  9
$DIMALTD
 70
3
  9
$DIMALTF
 40
0.03937007874
  9
$DIMLFAC
 40
1.0
  9
$DIMTOFL
 70
1
  9
$DIMTVP
 40
0.0
  9
$DIMTIX
 70
0
  9
$DIMSOXD
 70
0
  9
$DIMSAH
 70
0
  9
$DIMBLK1
  1

  9
$DIMBLK2
  1

  9
$DIMSTYLE
  2
ISO-25
  9
$DIMCLRD
 70
0
  9
$DIMCLRE
 70
0
  9
$DIMCLRT
 70
0
  9
$DIMTFAC
 40
1.0
  9
$DIMGAP
 40
0.625
  9
$DIMJUST
 70
0
  9
$DIMSD1
 70
0
  9
$DIMSD2
 70
0
  9
$DIMTOLJ
 70
0
  9
$DIMTZIN
 70
8
  9
$DIMALTZ
 70
0
  9
$DIMALTTZ
 70
0
  9
$DIMUPT
 70
0
  9
$DIMDEC
 70
2
  9
$DIMTDEC
 70
2
  9
$DIMALTU
 70
2
  9
$DIMALTTD
 70
3
  9
$DIMTXSTY
  7
Standard
  9
$DIMAUNIT
 70
0
  9
$DIMADEC
 70
0
  9
$DIMALTRND
 40
0.0
  9
$DIMAZIN
 70
0
  9
$DIMDSEP
 70
44
  9
$DIMATFIT
 70
3
  9
$DIMFRAC
 70
0
  9
$DIMLDRBLK
  1

  9
$DIMLUNIT
 70
2
  9
$DIMLWD
 70
-2
  9
$DIMLWE
 70
-2
  9
$DIMTMOVE
 70
0
  9
$DIMFXL
 40
1.0
  9
$DIMFXLON
 70
0
  9
$DIMJOGANG
 40
0.785398163397
  9
$DIMTFILL
 70
0
  9
$DIMTFILLCLR
 70
0
  9
$DIMARCSYM
 70
0
  9
$DIMLTYPE
  6

  9
$DIMLTEX1
  6

  9
$DIMLTEX2
  6

  9
$DIMTXTDIRECTION
 70
0
  9
$LUNITS
 70
2
  9
$LUPREC
 70
4
  9
$SKETCHINC
 40
1.0
  9
$FILLETRAD
 40
10.0
  9
$AUNITS
 70
0
  9
$AUPREC
 70
2
  9
$MENU
  1
.
  9
$ELEVATION
 40
0.0
  9
$PELEVATION
 40
0.0
  9
$THICKNESS
 40
0.0
  9
$LIMCHECK
 70
0
  9
$CHAMFERA
 40
0.0
  9
$CHAMFERB
 40
0.0
  9
$CHAMFERC
 40
0.0
  9
$CHAMFERD
 40
0.0
  9
$SKPOLY
 70
0
  9
$TDCREATE
 40
2461307.396689815
  9
$TDUCREATE
 40
2458532.153996898
  9
$TDUPDATE
 40
2461307.396689815
  9
$TDUUPDATE
 40
2458532.1544311
  9
$TDINDWG
 40
0.0
  9
$TDUSRTIMER
 40
0.0
  9
$USRTIMER
 70
1
  9
$ANGBASE
 50
0.0
  9
$ANGDIR
 70
0
  9
$PDMODE
 70
0
  9
$PDSIZE
 40
0.0
  9
$PLINEWID
 40
0.0
  9
$SPLFRAME
 70
0
  9
$SPLINETYPE
 70
6
  9
$SPLINESEGS
 70
8
  9
$HANDSEED
  5
6A
  9
$SURFTAB1
 70
6
  9
$SURFTAB2
 70
6
  9
$SURFTYPE
 70
6
  9
$SURFU
 70
6
  9
$SURFV
 70
6
  9
$UCSBASE
  2

  9
$UCSNAME
  2

  9
$UCSORG
 10
0.0
 20
0.0
 30
0.0
  9
$UCSXDIR
 10
1.0
 20
0.0
 30
0.0
  9
$UCSYDIR
 10
0.0
 20
1.0
 30
0.0
  9
$UCSORTHOREF
  2

  9
$UCSORTHOVIEW
 70
0
  9
$UCSORGTOP
 10
0.0
 20
0.0
 30
0.0
  9
$UCSORGBOTTOM
 10
0.0
 20
0.0
 30
0.0
  9
$UCSORGLEFT
 10
0.0
 20
0.0
 30
0.0
  9
$UCSORGRIGHT
 10
0.0
 20
0.0
 30
0.0
  9
$UCSORGFRONT
 10
0.0
 20
0.0
 30
0.0
  9
$UCSORGBACK
 10
0.0
 20
0.0
 30
0.0
  9
$PUCSBASE
  2

  9
$PUCSNAME
  2

  9
$PUCSORG
 10
0.0
 20
0.0
 30
0.0
  9
$PUCSXDIR
 10
1.0
 20
0.0
 30
0.0
  9
$PUCSYDIR
 10
0.0
 20
1.0
 30
0.0
  9
$PUCSORTHOREF
  2

  9
$PUCSORTHOVIEW
 70
0
  9
$PUCSORGTOP
 10
0.0
 20
0.0
 30
0.0
  9
$PUCSORGBOTTOM
 10
0.0
 20
0.0
 30
0.0
  9
$PUCSORGLEFT
 10
0.0
 20
0.0
 30
0.0
  9
$PUCSORGRIGHT
 10
0.0
 20
0.0
 30
0.0
  9
$PUCSORGFRONT
 10
0.0
 20
0.0
 30
0.0
  9
$PUCSORGBACK
 10
0.0
 20
0.0
 30
0.0
  9
$USERI1
 70
0
  9
$USERI2
 70
0
  9
$USERI3
 70
0
  9
$USERI4
 70
0
  9
$USERI5
 70
0
  9
$USERR1
 40
0.0
  9
$USERR2
 40
0.0
  9
$USERR3
 40
0.0
  9
$USERR4
 40
0.0
  9
$USERR5
 40
0.0
  9
$WORLDVIEW
 70
1
  9
$SHADEDGE
 70
3
  9
$SHADEDIF
 70
70
  9
$TILEMODE
 70
1
  9
$MAXACTVP
 70
64
  9
$PINSBASE
 10
0.0
 20
0.0
 30
0.0
  9
$PLIMCHECK
 70
0
  9
$PEXTMIN
 10
1e+20
 20
1e+20
 30
1e+20
  9
$PEXTMAX
 10
-1e+20
 20
-1e+20
 30
-1e+20
  9
$PLIMMIN
 10
0.0
 20
0.0
  9
$PLIMMAX
 10
420.0
 20
297.0
  9
$UNITMODE
 70
0
  9
$VISRETAIN
 70
1
  9
$PLINEGEN
 70
0
  9
$PSLTSCALE
 70
1
  9
$TREEDEPTH
 70
3020
  9
$CMLSTYLE
  2
Standard
  9
$CMLJUST
 70
0
  9
$CMLSCALE
 40
20.0
  9
$PROXYGRAPHICS
 70
1
  9
$MEASUREMENT
 70
1
  9
$CELWEIGHT
370
-1
  9
$ENDCAPS
280
0
  9
$JOINSTYLE
280
0
  9
$LWDISPLAY
290
0
  9
$INSUNITS
 70
4
  9
$HYPERLINKBASE
  1

  9
$STYLESHEET
  1

  9
$XEDIT
290
1
  9
$CEPSNTYPE
380
0
  9
$PSTYLEMODE
290
1
  9
$FINGERPRINTGUID
  2
{D5836AE9-89AD-4FB9-B7A6-19540CA9DFFF}
  9
$VERSIONGUID
  2
{8AE7C2AA-B608-417F-9936-F17C371D6F2D}
  9
$EXTNAMES
290
1
  9
$PSVPSCALE
 40
0.0
  9
$OLESTARTUP
290
0
  9
$SORTENTS
280
127
  9
$INDEXCTL
280
0
  9
$HIDETEXT
280
1
  9
$XCLIPFRAME
280
1
  9
$HALOGAP
280
0
  9
$OBSCOLOR
 70
257
  9
$OBSLTYPE
280
0
  9
$INTERSECTIONDISPLAY
280
0
  9
$INTERSECTIONCOLOR
 70
257
  9
$DIMASSOC
280
2
  9
$PROJECTNAME
  1

  9
$CAMERADISPLAY
290
0
  9
$LENSLENGTH
 40
50.0
  9
$CAMERAHEIGHT
 40
0.0
  9
$STEPSPERSEC
 40
24.0
  9
$STEPSIZE
 40
100.0
  9
$3DDWFPREC
 40
2.0
  9
$PSOLWIDTH
 40
0.005
  9
$PSOLHEIGHT
 40
0.08
  9
$LOFTANG1
 40
1.570796326795
  9
$LOFTANG2
 40
1.570796326795
  9
$LOFTMAG1
 40
0.0
  9
$LOFTMAG2
 40
0.0
  9
$LOFTPARAM
 70
7
  9
$LOFTNORMALS
280
1
  9
$LATITUDE
 40
37.795
  9
$LONGITUDE
 40
-122.394
  9
$NORTHDIRECTION
 40
0.0
  9
$TIMEZONE
 70
-8000
  9
$LIGHTGLYPHDISPLAY
280
1
  9
$TILEMODELIGHTSYNCH
280
1
  9
$CMATERIAL
347
20
  9
$SOLIDHIST
280
0
  9
$SHOWHIST
280
1
  9
$DWFFRAME
280
2
  9
$DGNFRAME
280
2
  9
$REALWORLDSCALE
290
1
  9
$INTERFERECOLOR
 62
256
  9
$CSHADOW
280
0
  9
$SHADOWPLANELOCATION
 40
0.0
  0
ENDSEC
  0
SECTION
  2
CLASSES
  0
CLASS
  1
ACDBDICTIONARYWDFLT
  2
AcDbDictionaryWithDefault
  3
ObjectDBX Classes
 90
0
 91
0
280
0
281
0
  0
CLASS
  1
SUN
  2
AcDbSun
  3
SCENEOE
 90
1153
 91
0
280
0
281
0
  0
CLASS
  1
VISUALSTYLE
  2
AcDbVisualStyle
  3
ObjectDBX Classes
 90
4095
 91
0
280
0
281
0
  0
CLASS
  1
MATERIAL
  2
AcDbMaterial
  3
ObjectDBX Classes
 90
1153
 91
0
280
0
281
0
  0
CLASS
  1
SCALE
  2
AcDbScale
  3
ObjectDBX Classes
 90
1153
 91
0
280
0
281
0
  0
CLASS
  1
TABLESTYLE
  2
AcDbTableStyle
  3
ObjectDBX Classes
 90
4095
 91
0
280
0
281
0
  0
CLASS
  1
MLEADERSTYLE
  2
AcDbMLeaderStyle
  3
ACDB_MLEADERSTYLE_CLASS
 90
4095
 91
0
280
0
281
0
  0
CLASS
  1
DICTIONARYVAR
  2
AcDbDictionaryVar
  3
ObjectDBX Classes
 90
0
 91
0
280
0
281
0
  0
CLASS
  1
CELLSTYLEMAP
  2
AcDbCellStyleMap
  3
ObjectDBX Classes
 90
1152
 91
0
280
0
281
0
  0
CLASS
  1
MENTALRAYRENDERSETTINGS
  2
AcDbMentalRayRenderSettings
  3
SCENEOE
 90
1024
 91
0
280
0
281
0
  0
CLASS
  1
ACDBDETAILVIEWSTYLE
  2
AcDbDetailViewStyle
  3
ObjectDBX Classes
 90
1025
 91
0
280
0
281
0
  0
CLASS
  1
ACDBSECTIONVIEWSTYLE
  2
AcDbSectionViewStyle
  3
ObjectDBX Classes
 90
1025
 91
0
280
0
281
0
  0
CLASS
  1
RASTERVARIABLES
  2
AcDbRasterVariables
  3
ISM
 90
0
 91
0
280
0
281
0
  0
CLASS
  1
ACDBPLACEHOLDER
  2
AcDbPlaceHolder
  3
ObjectDBX Classes
 90
0
 91
0
280
0
281
0
  0
CLASS
  1
LAYOUT
  2
AcDbLayout
  3
ObjectDBX Classes
 90
0
 91
0
280
0
281
0
  0
ENDSEC
  0
SECTION
  2
TABLES
  0
TABLE
  2
VPORT
  5
8
330
0
100
AcDbSymbolTable
 70
1
  0
VPORT
  5
23
330
8
100
AcDbSymbolTableRecord
100
AcDbViewportTableRecord
  2
*Active
 70
0
 10
0.0
 20
0.0
 11
1.0
 21
1.0
 12
0.0
 22
0.0
 13
0.0
 23
0.0
 14
0.5
 24
0.5
 15
0.5
 25
0.5
 16
0.0
 26
0.0
 36
1.0
 17
0.0
 27
0.0
 37
0.0
 40
1000.0
 41
1.34
 42
50.0
 43
0.0
 44
0.0
 50
0.0
 51
0.0
 71
0
 72
1000
 73
1
 74
3
 75
0
 76
0
 77
0
 78
0
281
0
 65
0
146
0.0
  0
ENDTAB
  0
TABLE
  2
LTYPE
  5
2
330
0
100
AcDbSymbolTable
 70
3
  0
LTYPE
  5
24
330
2
100
AcDbSymbolTableRecord
100
AcDbLinetypeTableRecord
  2
ByBlock
 70
0
  3

 72
65
 73
0
 40
0.0
  0
LTYPE
  5
25
330
2
100
AcDbSymbolTableRecord
100
AcDbLinetypeTableRecord
  2
ByLayer
 70
0
  3

 72
65
 73
0
 40
0.0
  0
LTYPE
  5
26
330
2
100
AcDbSymbolTableRecord
100
AcDbLinetypeTableRecord
  2
Continuous
 70
0
  3

 72
65
 73
0
 40
0.0
  0
ENDTAB
  0
TABLE
  2
LAYER
  5
1
330
0
100
AcDbSymbolTable
 70
6
  0
LAYER
  5
27
330
1
100
AcDbSymbolTableRecord
100
AcDbLayerTableRecord
  2
0
 70
0
 62
7
  6
Continuous
370
-3
390
13
347
21
  0
LAYER
  5
28
330
1
100
AcDbSymbolTableRecord
100
AcDbLayerTableRecord
  2
Defpoints
 70
0
 62
7
  6
Continuous
290
0
370
-3
390
13
347
21
  0
LAYER
  5
2F
330
1
100
AcDbSymbolTableRecord
100
AcDbLayerTableRecord
  2
CUT
 70
0
 62
7
  6
Continuous
370
-3
390
13
347
21
  0
LAYER
  5
30
330
1
100
AcDbSymbolTableRecord
100
AcDbLayerTableRecord
  2
MARK
 70
0
 62
3
  6
Continuous
370
-3
390
13
347
21
  0
LAYER
  5
31
330
1
100
AcDbSymbolTableRecord
100
AcDbLayerTableRecord
  2
SCORE
 70
0
 62
5
  6
Continuous
370
-3
390
13
347
21
  0
LAYER
  5
32
330
1
100
AcDbSymbolTableRecord
100
AcDbLayerTableRecord
  2
STOCK_REFERENCE_DO_NOT_CUT
 70
0
 62
8
  6
Continuous
370
-3
390
13
347
21
  0
ENDTAB
  0
TABLE
  2
STYLE
  5
5
330
0
100
AcDbSymbolTable
 70
1
  0
STYLE
  5
29
330
5
100
AcDbSymbolTableRecord
100
AcDbTextStyleTableRecord
  2
Standard
 70
0
 40
0.0
 41
1.0
 50
0.0
 71
0
 42
2.5
  3
txt
  4

  0
ENDTAB
  0
TABLE
  2
VIEW
  5
7
330
0
100
AcDbSymbolTable
 70
0
  0
ENDTAB
  0
TABLE
  2
UCS
  5
6
330
0
100
AcDbSymbolTable
 70
0
  0
ENDTAB
  0
TABLE
  2
APPID
  5
3
330
0
100
AcDbSymbolTable
 70
3
  0
APPID
  5
2A
330
3
100
AcDbSymbolTableRecord
100
AcDbRegAppTableRecord
  2
ACAD
 70
0
  0
APPID
  5
67
330
3
100
AcDbSymbolTableRecord
100
AcDbRegAppTableRecord
  2
HATCHBACKGROUNDCOLOR
 70
0
  0
APPID
  5
68
330
3
100
AcDbSymbolTableRecord
100
AcDbRegAppTableRecord
  2
EZDXF
 70
0
  0
ENDTAB
  0
TABLE
  2
DIMSTYLE
  5
4
330
0
100
AcDbSymbolTable
 70
1
100
AcDbDimStyleTable
  0
DIMSTYLE
105
2B
330
4
100
AcDbSymbolTableRecord
100
AcDbDimStyleTableRecord
  2
Standard
 70
0
 40
1.0
 41
2.5
 42
0.625
 43
3.75
 44
1.25
 45
0.0
 46
0.0
 47
0.0
 48
0.0
 49
2.5
140
2.5
141
2.5
142
0.0
143
0.03937007874
144
1.0
145
0.0
146
1.0
147
0.625
148
0.0
 69
0
 70
0
 71
0
 72
0
 73
0
 74
0
 75
0
 76
0
 77
1
 78
8
 79
3
170
0
171
3
172
1
173
0
174
0
175
0
176
0
177
0
178
0
179
2
271
2
272
2
273
2
274
3
275
0
276
0
277
2
278
44
279
0
280
0
281
0
282
0
283
0
284
8
285
0
286
0
288
0
289
3
290
0
371
-2
372
-2
  0
ENDTAB
  0
TABLE
  2
BLOCK_RECORD
  5
9
330
0
100
AcDbSymbolTable
 70
2
  0
BLOCK_RECORD
  5
17
330
9
100
AcDbSymbolTableRecord
100
AcDbBlockTableRecord
  2
*Model_Space
340
1A
 70
0
280
1
281
0
  0
BLOCK_RECORD
  5
1B
330
9
100
AcDbSymbolTableRecord
100
AcDbBlockTableRecord
  2
*Paper_Space
340
1E
 70
0
280
1
281
0
  0
ENDTAB
  0
ENDSEC
  0
SECTION
  2
BLOCKS
  0
BLOCK
  5
18
330
17
100
AcDbEntity
  8
0
100
AcDbBlockBegin
  2
*Model_Space
 70
0
 10
0.0
 20
0.0
 30
0.0
  3
*Model_Space
  1

  0
ENDBLK
  5
19
330
17
100
AcDbEntity
  8
0
100
AcDbBlockEnd
  0
BLOCK
  5
1C
330
1B
100
AcDbEntity
  8
0
100
AcDbBlockBegin
  2
*Paper_Space
 70
0
 10
0.0
 20
0.0
 30
0.0
  3
*Paper_Space
  1

  0
ENDBLK
  5
1D
330
1B
100
AcDbEntity
  8
0
100
AcDbBlockEnd
  0
ENDSEC
  0
SECTION
  2
ENTITIES
  0
LWPOLYLINE
  5
33
330
17
100
AcDbEntity
  8
STOCK_REFERENCE_DO_NOT_CUT
100
AcDbPolyline
 90
4
 70
1
 10
0.0
 20
0.0
 10
1000.0
 20
0.0
 10
1000.0
 20
100.0
 10
0.0
 20
100.0
  0
LWPOLYLINE
  5
34
330
17
100
AcDbEntity
  8
CUT
100
AcDbPolyline
 90
4
 70
1
 10
2.000004744454145
 20
21.999999994899575
 10
901.9442914678253
 20
21.999999994899444
 10
901.9442867233712
 20
2.0
 10
2.0
 20
2.0000000000001315
  0
TEXT
  5
35
330
17
100
AcDbEntity
  8
MARK
100
AcDbText
 10
451.97214573391267
 20
11.999999997449788
 30
0.0
 40
2.5
  1
LCL
100
AcDbText
  0
LWPOLYLINE
  5
36
330
17
100
AcDbEntity
  8
CUT
100
AcDbPolyline
 90
4
 70
1
 10
901.9442914678253
 20
24.999999994899703
 10
2.000004744454145
 20
24.99999999489957
 10
2.0
 20
44.999999989799015
 10
901.9442867233712
 20
44.99999998979915
  0
TEXT
  5
37
330
17
100
AcDbEntity
  8
MARK
100
AcDbText
 10
451.97214573391267
 20
34.99999999234936
 30
0.0
 40
2.5
  1
LCR
100
AcDbText
  0
LWPOLYLINE
  5
38
330
17
100
AcDbEntity
  8
CUT
100
AcDbPolyline
 90
4
 70
1
 10
2.0
 20
59.299999989799154
 10
802.63975
 20
52.89999998979915
 10
802.63975
 20
50.399999989799156
 10
2.0
 20
47.99999998979915
  0
TEXT
  5
39
330
17
100
AcDbEntity
  8
MARK
100
AcDbText
 10
202.1599375
 20
56.09999998979915
 30
0.0
 40
2.5
  1
WBL
100
AcDbText
  0
LWPOLYLINE
  5
3A
330
17
100
AcDbEntity
  8
CUT
100
AcDbPolyline
 90
4
 70
1
 10
2.0
 20
67.19999998979915
 10
802.63975
 20
73.59999998979914
 10
802.63975
 20
62.29999998979915
 10
2.0
 20
64.69999998979915
  0
TEXT
  5
3B
330
17
100
AcDbEntity
  8
MARK
100
AcDbText
 10
602.4798124999995
 20
70.39999998979914
 30
0.0
 40
2.5
  1
WBR
100
AcDbText
  0
LWPOLYLINE
  5
3C
330
17
100
AcDbEntity
  8
CUT
100
AcDbPolyline
 90
4
 70
1
 10
319.4013931155338
 20
76.59999998979914
 10
2.0
 20
76.59999998979924
 10
5.441458618936821
 20
81.51491225495165
 10
322.84285173447057
 20
81.51491225495155
  0
TEXT
  5
3D
330
17
100
AcDbEntity
  8
MARK
100
AcDbText
 10
162.42142586723529
 20
79.0574561223754
 30
0.0
 40
2.5
  1
TLS
100
AcDbText
  0
LWPOLYLINE
  5
3E
330
17
100
AcDbEntity
  8
CUT
100
AcDbPolyline
 90
4
 70
1
 10
2.0
 20
89.42982452010413
 10
319.4013931155337
 20
89.42982452010408
 10
322.8428517344705
 20
84.51491225495165
 10
5.441458618936792
 20
84.51491225495171
  0
TEXT
  5
3F
330
17
100
AcDbEntity
  8
MARK
100
AcDbText
 10
162.42142586723526
 20
86.9723683875279
 30
0.0
 40
2.5
  1
TRS
100
AcDbText
  0
LWPOLYLINE
  5
40
330
17
100
AcDbEntity
  8
CUT
100
AcDbPolyline
 90
240
 70
1
 10
892.46195
 20
94.18979998979916
 10
898.46195
 20
94.18979998979916
 10
901.2842
 20
94.18979998979916
 10
901.2842
 20
93.62447998979914
 10
901.01966
 20
92.62092998979915
 10
900.7250600000001
 20
91.60294998979916
 10
900.4007
 20
90.57191998979914
 10
900.04687
 20
89.52923998979915
 10
899.66384
 20
88.47627998979915
 10
899.2519000000001
 20
87.41442998979915
 10
898.81136
 20
86.34507998979916
 10
898.34248
 20
85.26960998979915
 10
897.6026400000001
 20
83.67916998979915
 10
896.8054400000001
 20
82.08210998979915
 10
895.9529200000001
 20
80.48196998979915
 10
895.0471500000001
 20
78.88229998979915
 10
894.09018
 20
77.28663998979914
 10
893.0840700000001
 20
75.69852998979916
 10
892.03087
 20
74.12151998979915
 10
890.9326500000001
 20
72.55914998979915
 10
889.79145
 20
71.01495998979915
 10
888.6093400000001
 20
69.49248998979915
 10
887.3883800000001
 20
67.99528998979915
 10
886.13061
 20
66.52689998979915
 10
884.83811
 20
65.09085998979916
 10
883.51291
 20
63.69071998979915
 10
882.15709
 20
62.33001998979915
 10
880.77269
 20
61.012299989799146
 10
879.72441
 20
60.06097998979915
 10
878.6626200000001
 20
59.13683998979915
 10
877.5883600000001
 20
58.24104998979915
 10
876.5026600000001
 20
57.374789989799154
 10
875.40655
 20
56.539249989799146
 10
874.3010800000001
 20
55.73559998979915
 10
873.1872800000001
 20
54.96502998979915
 10
872.06618
 20
54.22870998979915
 10
870.9388100000001
 20
53.52782998979915
 10
869.8062100000001
 20
52.86356998979915
 10
868.6694100000001
 20
52.23709998979915
 10
867.5294600000001
 20
51.64960998979915
 10
866.38737
 20
51.10226998979915
 10
865.2442000000001
 20
50.59626998979915
 10
864.1009700000001
 20
50.13277998979915
 10
862.95871
 20
49.71298998979915
 10
861.75426
 20
49.31778998979915
 10
860.5534
 20
48.97277998979915
 10
859.3568200000001
 20
48.67874998979915
 10
858.16519
 20
48.43644998979915
 10
856.9792100000001
 20
48.24665998979915
 10
855.79956
 20
48.11013998979915
 10
854.62692
 20
48.02765998979915
 10
853.4619700000001
 20
47.99999998979915
 10
852.2970300000001
 20
48.02765998979915
 10
851.1243900000001
 20
48.11013998979915
 10
849.94474
 20
48.24665998979915
 10
848.75876
 20
48.43644998979915
 10
847.56713
 20
48.67874998979915
 10
846.3705500000001
 20
48.97277998979915
 10
845.1696900000001
 20
49.31778998979915
 10
843.96524
 20
49.71298998979915
 10
842.82298
 20
50.13277998979915
 10
841.67975
 20
50.59626998979915
 10
840.5365700000001
 20
51.10226998979915
 10
839.39449
 20
51.64960998979915
 10
838.25454
 20
52.23709998979915
 10
837.11774
 20
52.86356998979915
 10
835.98514
 20
53.52782998979915
 10
834.8577700000001
 20
54.22870998979915
 10
833.73667
 20
54.96502998979915
 10
832.62287
 20
55.73559998979915
 10
831.5173900000001
 20
56.539249989799146
 10
830.42129
 20
57.374789989799154
 10
829.33559
 20
58.24104998979915
 10
828.26133
 20
59.13683998979915
 10
827.1995400000001
 20
60.06097998979915
 10
826.15125
 20
61.012299989799146
 10
824.7668600000001
 20
62.33001998979915
 10
823.4110400000001
 20
63.69071998979915
 10
822.0858400000001
 20
65.09085998979916
 10
820.7933400000001
 20
66.52689998979915
 10
819.53557
 20
67.99528998979915
 10
818.3146
 20
69.49248998979915
 10
817.1325
 20
71.01495998979915
 10
815.9913
 20
72.55914998979915
 10
814.89308
 20
74.12151998979915
 10
813.83988
 20
75.69852998979916
 10
812.8337700000001
 20
77.28663998979914
 10
811.8768
 20
78.88229998979915
 10
810.9710200000001
 20
80.48196998979915
 10
810.11851
 20
82.08210998979915
 10
809.3213000000001
 20
83.67916998979915
 10
808.5814700000001
 20
85.26960998979915
 10
808.1125900000001
 20
86.34507998979916
 10
807.67204
 20
87.41442998979915
 10
807.26011
 20
88.47627998979915
 10
806.8770800000001
 20
89.52923998979915
 10
806.5232400000001
 20
90.57191998979914
 10
806.19888
 20
91.60294998979916
 10
805.9042900000001
 20
92.62092998979915
 10
805.63975
 20
93.62447998979914
 10
805.63975
 20
94.18979998979916
 10
808.46195
 20
94.18979998979916
 10
814.46195
 20
94.18979998979916
 10
815.63975
 20
94.18979998979916
 10
821.4619700000001
 20
94.18979998979916
 10
821.4619700000001
 20
80.50085998979915
 10
822.1908000000001
 20
79.40738998979916
 10
822.9450700000001
 20
78.31950998979914
 10
823.7235900000001
 20
77.23944998979916
 10
824.52517
 20
76.16940998979915
 10
825.3486200000001
 20
75.11159998979915
 10
826.1927400000001
 20
74.06822998979915
 10
827.0563500000001
 20
73.04150998979915
 10
827.93826
 20
72.03364998979916
 10
828.4371100000001
 20
71.48090998979916
 10
828.9408500000001
 20
70.93480998979915
 10
829.44921
 20
70.39566998979915
 10
829.96195
 20
69.86381998979915
 10
829.96195
 20
62.68979998979915
 10
838.39525
 20
62.68979998979915
 10
839.2091800000001
 20
62.14184998979915
 10
840.0212
 20
61.61934998979915
 10
840.83015
 20
61.12298998979915
 10
841.6348700000001
 20
60.65345998979915
 10
842.4485000000001
 20
60.20375998979915
 10
843.2553300000001
 20
59.78328998979915
 10
844.0541400000001
 20
59.39277998979915
 10
844.8437
 20
59.03294998979915
 10
845.06852
 20
58.93534998979915
 10
845.29241
 20
58.840269989799154
 10
845.51538
 20
58.74768998979915
 10
845.7374100000001
 20
58.65760998979915
 10
845.95446
 20
58.571599989799154
 10
846.1705900000001
 20
58.48799998979915
 10
846.3857800000001
 20
58.40678998979915
 10
846.6000200000001
 20
58.32798998979915
 10
846.68159
 20
58.298519989799146
 10
846.7630200000001
 20
58.26940998979915
 10
846.8443100000001
 20
58.24064998979915
 10
846.9254500000001
 20
58.21222998979915
 10
846.94727
 20
58.20464998979915
 10
846.9690700000001
 20
58.19707998979915
 10
846.9908700000001
 20
58.18954998979915
 10
847.01264
 20
58.18202998979915
 10
847.3013400000001
 20
58.08447998979915
 10
847.58767
 20
57.99144998979915
 10
847.8716300000001
 20
57.90289998979915
 10
848.1532400000001
 20
57.81878998979915
 10
848.43619
 20
57.73802998979915
 10
848.71676
 20
57.66171998979915
 10
848.99495
 20
57.58980998979915
 10
849.2707800000001
 20
57.52226998979915
 10
849.55083
 20
57.45755998979915
 10
849.82842
 20
57.39731998979915
 10
850.10357
 20
57.34151998979915
 10
850.37629
 20
57.29008998979915
 10
850.64877
 20
57.24263998979915
 10
850.91881
 20
57.19955998979915
 10
851.1863900000001
 20
57.16079998979915
 10
851.45154
 20
57.126329989799146
 10
851.71905
 20
57.09557998979915
 10
851.98405
 20
57.06918998979915
 10
852.2465500000001
 20
57.047109989799154
 10
852.5065400000001
 20
57.02930998979915
 10
852.7487000000001
 20
57.01643998979915
 10
852.98865
 20
57.00728998979915
 10
853.2264100000001
 20
57.00181998979915
 10
853.4619700000001
 20
56.99999998979915
 10
853.92442
 20
57.00695998979915
 10
854.39561
 20
57.02800998979915
 10
854.87549
 20
57.06338998979915
 10
855.3639900000001
 20
57.11336998979915
 10
855.85095
 20
57.17674998979915
 10
856.3460500000001
 20
57.25460998979915
 10
856.84924
 20
57.34718998979915
 10
857.3604600000001
 20
57.45471998979915
 10
857.67978
 20
57.528619989799154
 10
858.00211
 20
57.60834998979915
 10
858.32744
 20
57.693959989799154
 10
858.65575
 20
57.78551998979915
 10
858.8210200000001
 20
57.83353998979915
 10
858.98703
 20
57.883069989799154
 10
859.1537800000001
 20
57.934109989799154
 10
859.32126
 20
57.986669989799154
 10
859.4052700000001
 20
58.01351998979915
 10
859.4894700000001
 20
58.04075998979915
 10
859.57385
 20
58.06836998979915
 10
859.6584200000001
 20
58.096379989799146
 10
859.70077
 20
58.11051998979915
 10
859.7431700000001
 20
58.12475998979915
 10
859.78561
 20
58.13909998979915
 10
859.8280900000001
 20
58.153529989799154
 10
859.8573200000001
 20
58.16350998979915
 10
859.88657
 20
58.17352998979915
 10
859.91584
 20
58.18359998979915
 10
859.9451300000001
 20
58.193709989799146
 10
859.95847
 20
58.19832998979915
 10
859.97181
 20
58.20294998979915
 10
859.9851500000001
 20
58.207589989799146
 10
859.9985
 20
58.21222998979915
 10
860.1632900000001
 20
58.270249989799154
 10
860.32896
 20
58.32981998979915
 10
860.4954700000001
 20
58.39091998979915
 10
860.66276
 20
58.453559989799146
 10
860.83767
 20
58.52036998979915
 10
861.01332
 20
58.58880998979915
 10
861.18969
 20
58.65886998979915
 10
861.3667
 20
58.73053998979915
 10
861.5443200000001
 20
58.80380998979915
 10
861.7224900000001
 20
58.878639989799154
 10
861.90115
 20
58.95502998979915
 10
862.0802500000001
 20
59.03294998979915
 10
862.86282
 20
59.38947998979915
 10
863.6544700000001
 20
59.77614998979915
 10
864.45402
 20
60.19225998979915
 10
865.26029
 20
60.63710998979915
 10
866.07207
 20
61.109989989799146
 10
866.88819
 20
61.61019998979915
 10
867.7074600000001
 20
62.13703998979915
 10
868.5287000000001
 20
62.68979998979915
 10
876.96195
 20
62.68979998979915
 10
876.96195
 20
69.86377998979916
 10
877.32378
 20
70.23785998979915
 10
877.68348
 20
70.61560998979915
 10
878.04096
 20
70.99691998979915
 10
878.3961200000001
 20
71.38166998979915
 10
878.54416
 20
71.54380998979914
 10
878.69177
 20
71.70651998979915
 10
878.8389500000001
 20
71.86980998979915
 10
878.98568
 20
72.03364998979916
 10
879.8675900000001
 20
73.04150998979915
 10
880.73121
 20
74.06822998979915
 10
881.57533
 20
75.11159998979915
 10
882.39878
 20
76.16940998979915
 10
883.20036
 20
77.23944998979916
 10
883.97887
 20
78.31950998979914
 10
884.73314
 20
79.40738998979916
 10
885.4619700000001
 20
80.50085998979915
 10
885.4619700000001
 20
94.18979998979916
 10
891.2842
 20
94.18979998979916
  0
LWPOLYLINE
  5
41
330
17
100
AcDbEntity
  8
CUT
100
AcDbPolyline
 90
32
 70
1
 10
854.4619700000001
 20
52.99999998979915
 10
854.4416600000001
 20
53.20152998979915
 10
854.3833900000001
 20
53.38924998979915
 10
854.29119
 20
53.559109989799154
 10
854.16908
 20
53.70710998979915
 10
854.0210800000001
 20
53.82921998979915
 10
853.85122
 20
53.92141998979915
 10
853.6635100000001
 20
53.97967998979915
 10
853.4619700000001
 20
53.99999998979915
 10
853.26044
 20
53.97967998979915
 10
853.0727300000001
 20
53.92141998979915
 10
852.90287
 20
53.82921998979915
 10
852.7548700000001
 20
53.70710998979915
 10
852.6327600000001
 20
53.559109989799154
 10
852.54056
 20
53.38924998979915
 10
852.48229
 20
53.20152998979915
 10
852.4619700000001
 20
52.99999998979915
 10
852.48229
 20
52.79846998979915
 10
852.54056
 20
52.61074998979915
 10
852.6327600000001
 20
52.440889989799146
 10
852.7548700000001
 20
52.29288998979915
 10
852.90287
 20
52.17077998979915
 10
853.0727300000001
 20
52.07858998979915
 10
853.26044
 20
52.02031998979915
 10
853.4619700000001
 20
51.99999998979915
 10
853.6635100000001
 20
52.02031998979915
 10
853.85122
 20
52.07858998979915
 10
854.0210800000001
 20
52.17077998979915
 10
854.16908
 20
52.29288998979915
 10
854.29119
 20
52.440889989799146
 10
854.3833900000001
 20
52.61074998979915
 10
854.4416600000001
 20
52.79846998979915
  0
LWPOLYLINE
  5
42
330
17
100
AcDbEntity
  8
CUT
100
AcDbPolyline
 90
32
 70
1
 10
818.4416600000001
 20
79.10851998979915
 10
818.4619700000001
 20
79.31004998979915
 10
818.4416600000001
 20
79.51158998979915
 10
818.3833900000001
 20
79.69929998979916
 10
818.29119
 20
79.86915998979916
 10
818.16908
 20
80.01715998979915
 10
818.0210800000001
 20
80.13926998979915
 10
817.85122
 20
80.23146998979915
 10
817.6635100000001
 20
80.28973998979916
 10
817.4619700000001
 20
80.31004998979915
 10
817.26044
 20
80.28973998979916
 10
817.0727300000001
 20
80.23146998979915
 10
816.90287
 20
80.13926998979915
 10
816.7548700000001
 20
80.01715998979915
 10
816.6327600000001
 20
79.86915998979916
 10
816.54056
 20
79.69929998979916
 10
816.48229
 20
79.51158998979915
 10
816.4619700000001
 20
79.31004998979915
 10
816.48229
 20
79.10851998979915
 10
816.54056
 20
78.92080998979915
 10
816.6327600000001
 20
78.75093998979915
 10
816.7548700000001
 20
78.60294998979916
 10
816.90287
 20
78.48083998979915
 10
817.0727300000001
 20
78.38863998979915
 10
817.26044
 20
78.33036998979915
 10
817.4619700000001
 20
78.31004998979915
 10
817.6635100000001
 20
78.33036998979915
 10
817.85122
 20
78.38863998979915
 10
818.0210800000001
 20
78.48083998979915
 10
818.16908
 20
78.60294998979916
 10
818.29119
 20
78.75093998979915
 10
818.3833900000001
 20
78.92080998979915
  0
LWPOLYLINE
  5
43
330
17
100
AcDbEntity
  8
CUT
100
AcDbPolyline
 90
32
 70
1
 10
890.4416600000001
 20
79.10851998979915
 10
890.4619700000001
 20
79.31004998979915
 10
890.4416600000001
 20
79.51158998979915
 10
890.3833900000001
 20
79.69929998979916
 10
890.29119
 20
79.86915998979916
 10
890.16908
 20
80.01715998979915
 10
890.0210800000001
 20
80.13926998979915
 10
889.85122
 20
80.23146998979915
 10
889.6635100000001
 20
80.28973998979916
 10
889.4619700000001
 20
80.31004998979915
 10
889.26044
 20
80.28973998979916
 10
889.0727300000001
 20
80.23146998979915
 10
888.90287
 20
80.13926998979915
 10
888.7548700000001
 20
80.01715998979915
 10
888.6327600000001
 20
79.86915998979916
 10
888.54056
 20
79.69929998979916
 10
888.48229
 20
79.51158998979915
 10
888.4619700000001
 20
79.31004998979915
 10
888.48229
 20
79.10851998979915
 10
888.54056
 20
78.92080998979915
 10
888.6327600000001
 20
78.75093998979915
 10
888.7548700000001
 20
78.60294998979916
 10
888.90287
 20
78.48083998979915
 10
889.0727300000001
 20
78.38863998979915
 10
889.26044
 20
78.33036998979915
 10
889.4619700000001
 20
78.31004998979915
 10
889.6635100000001
 20
78.33036998979915
 10
889.85122
 20
78.38863998979915
 10
890.0210800000001
 20
78.48083998979915
 10
890.16908
 20
78.60294998979916
 10
890.29119
 20
78.75093998979915
 10
890.3833900000001
 20
78.92080998979915
  0
TEXT
  5
44
330
17
100
AcDbEntity
  8
MARK
100
AcDbText
 10
822.8473900453049
 20
71.19831498979914
 30
0.0
 40
2.5
  1
FF0U
100
AcDbText
  0
LWPOLYLINE
  5
45
330
17
100
AcDbEntity
  8
CUT
100
AcDbPolyline
 90
298
 70
1
 10
997.1611914678253
 20
38.62791
 10
996.9265914678253
 20
38.07191
 10
996.6824414678254
 20
37.51355
 10
996.4287614678253
 20
36.953
 10
996.1656014678254
 20
36.39045
 10
995.7319014678254
 20
35.5005
 10
995.2753014678253
 20
34.60685
 10
994.7963214678254
 20
33.71034
 10
994.2954914678254
 20
32.81181
 10
993.7733214678253
 20
31.912100000000002
 10
993.2303514678254
 20
31.012050000000002
 10
992.0840814678254
 20
29.21424
 10
991.4818414678253
 20
28.318170000000002
 10
990.8610114678254
 20
27.42517
 10
990.2222214678254
 20
26.53614
 10
989.5661114678254
 20
25.651980000000002
 10
988.8931614678254
 20
24.77345
 10
988.2032814678254
 20
23.90065
 10
987.4962014678254
 20
23.033540000000002
 10
986.7716814678254
 20
22.17208
 10
986.4029114678253
 20
21.743570000000002
 10
986.0303014678254
 20
21.31712
 10
985.6544414678253
 20
20.89342
 10
985.2759414678254
 20
20.47314
 10
984.8951414678254
 20
20.05668
 10
984.5114514678254
 20
19.64347
 10
984.1240314678254
 20
19.23265
 10
983.7320414678254
 20
18.82338
 10
983.3349914678254
 20
18.41517
 10
982.9337614678254
 20
18.0089
 10
982.5295514678254
 20
17.60582
 10
982.1235714678254
 20
17.20717
 10
981.7166114678254
 20
16.813760000000002
 10
981.3077014678254
 20
16.42474
 10
980.8954314678253
 20
16.03882
 10
980.4784114678254
 20
15.654720000000001
 10
980.0556914678253
 20
15.2716
 10
979.6281814678254
 20
14.89034
 10
979.1972514678254
 20
14.512260000000001
 10
978.7642714678254
 20
14.138670000000001
 10
978.3303514678254
 20
13.77064
 10
977.8955914678254
 20
13.4082
 10
977.4598314678253
 20
13.05117
 10
977.0229214678254
 20
12.69931
 10
976.1449114678254
 20
12.010390000000001
 10
975.2595814678253
 20
11.34014
 10
974.3648514678254
 20
10.68731
 10
973.4586214678254
 20
10.05067
 10
973.0007514678254
 20
9.73818
 10
972.5405514678254
 20
9.43016
 10
972.0790614678253
 20
9.12733
 10
971.6173414678253
 20
8.83043
 10
971.1560914678254
 20
8.53997
 10
970.6945114678254
 20
8.255500000000001
 10
970.2314714678254
 20
7.97636
 10
969.7658014678253
 20
7.70191
 10
969.2968114678254
 20
7.43172
 10
968.8255814678254
 20
7.16643
 10
968.3536614678254
 20
6.9069
 10
967.8825914678254
 20
6.654020000000001
 10
967.4133614678253
 20
6.408380000000001
 10
966.9446914678254
 20
6.169400000000001
 10
966.4747614678254
 20
5.93624
 10
966.0017614678254
 20
5.708020000000001
 10
965.5244714678254
 20
5.484200000000001
 10
965.0441614678253
 20
5.265420000000001
 10
964.5626914678254
 20
5.052620000000001
 10
964.0819414678253
 20
4.84676
 10
963.6033714678254
 20
4.64856
 10
963.1267914678253
 20
4.457970000000001
 10
962.6515814678254
 20
4.27469
 10
962.1771514678254
 20
4.098470000000001
 10
961.7030714678253
 20
3.9290900000000004
 10
961.2297214678254
 20
3.7666400000000007
 10
960.7576414678254
 20
3.6112800000000007
 10
960.2873814678254
 20
3.463160000000002
 10
959.8191414678254
 20
3.3223699999999994
 10
959.3516814678254
 20
3.1886200000000002
 10
958.8833814678254
 20
3.0615699999999997
 10
958.4126414678253
 20
2.9408400000000015
 10
957.9384214678254
 20
2.826229999999999
 10
957.4619814678254
 20
2.7181099999999994
 10
956.9851514678254
 20
2.6169900000000013
 10
956.5097714678254
 20
2.52337
 10
956.0372914678254
 20
2.4376700000000007
 10
955.5676214678253
 20
2.359860000000001
 10
955.1003214678253
 20
2.289819999999999
 10
954.6349314678254
 20
2.227409999999999
 10
953.7087014678253
 20
2.1251800000000003
 10
952.7887214678253
 20
2.05312
 10
951.8754414678253
 20
2.01135
 10
950.9693214678254
 20
2.0
 10
950.0638914678253
 20
2.01915
 10
949.1513614678254
 20
2.068730000000002
 10
948.2321614678253
 20
2.1486100000000015
 10
947.3067514678254
 20
2.2586499999999994
 10
946.8417714678254
 20
2.3249700000000004
 10
946.3749014678253
 20
2.3989200000000004
 10
945.9056814678254
 20
2.4806500000000007
 10
945.4336814678254
 20
2.5702700000000007
 10
944.9588014678254
 20
2.667819999999999
 10
944.4824814678254
 20
2.772870000000001
 10
944.0065314678254
 20
2.884920000000001
 10
943.5327514678254
 20
3.0034300000000016
 10
943.0623714678254
 20
3.128040000000002
 10
942.5943914678254
 20
3.258960000000002
 10
942.1272214678254
 20
3.3965500000000013
 10
941.6593014678253
 20
3.5411800000000007
 10
941.1894014678254
 20
3.6931200000000004
 10
940.7177014678253
 20
3.8523000000000014
 10
940.2447514678254
 20
4.01857
 10
939.7711014678254
 20
4.191750000000001
 10
939.2970814678254
 20
4.37177
 10
938.8223114678253
 20
4.55883
 10
938.3461914678254
 20
4.7532
 10
937.8681314678254
 20
4.95515
 10
937.3879514678254
 20
5.164760000000001
 10
936.9070514678253
 20
5.38129
 10
936.4272714678253
 20
5.603810000000001
 10
935.9504214678254
 20
5.831380000000001
 10
935.4777214678254
 20
6.063360000000001
 10
935.0080414678254
 20
6.300280000000001
 10
934.5396114678254
 20
6.54298
 10
934.0707114678254
 20
6.792300000000001
 10
933.6001114678254
 20
7.04879
 10
933.1287414678254
 20
7.311870000000001
 10
932.6580614678254
 20
7.580720000000001
 10
932.1895314678254
 20
7.854480000000001
 10
931.7241814678254
 20
8.13256
 10
931.2613614678254
 20
8.41534
 10
930.7999914678254
 20
8.70343
 10
930.3390114678253
 20
8.99747
 10
929.8776914678253
 20
9.29785
 10
929.4166714678254
 20
9.6041
 10
928.9569614678254
 20
9.91552
 10
928.4995714678254
 20
10.231390000000001
 10
927.5940514678254
 20
10.87484
 10
926.6998014678254
 20
11.534500000000001
 10
925.8148514678254
 20
12.21154
 10
924.9372214678253
 20
12.90713
 10
924.5005614678254
 20
13.262250000000002
 10
924.0650814678254
 20
13.622520000000002
 10
923.6306214678253
 20
13.988130000000002
 10
923.1970514678254
 20
14.359290000000001
 10
922.7644314678254
 20
14.735970000000002
 10
922.3338714678254
 20
15.11711
 10
921.9066814678254
 20
15.50144
 10
921.4842014678254
 20
15.88765
 10
921.0673014678254
 20
16.27488
 10
920.6551014678254
 20
16.66395
 10
920.2462614678254
 20
17.056070000000002
 10
919.8394314678254
 20
17.45249
 10
919.4336914678254
 20
17.85404
 10
919.0297714678254
 20
18.25993
 10
918.6288214678253
 20
18.66899
 10
918.2319714678254
 20
19.08003
 10
917.8400514678253
 20
19.49222
 10
917.4526214678253
 20
19.90599
 10
917.0689214678254
 20
20.3221
 10
916.6881914678254
 20
20.74134
 10
916.3098814678253
 20
21.16425
 10
915.9342714678254
 20
21.59048
 10
915.5618414678254
 20
22.01948
 10
915.1930914678254
 20
22.450680000000002
 10
913.7597214678253
 20
24.191560000000003
 10
912.3950314678253
 20
25.95459
 10
911.1010914678254
 20
27.73571
 10
909.8800014678254
 20
29.53087
 10
908.7342814678254
 20
31.33548
 10
908.1910014678253
 20
32.23926
 10
907.6682414678254
 20
33.1428
 10
907.1665814678254
 20
34.04519
 10
906.6866314678254
 20
34.94552
 10
906.2289814678254
 20
35.84288
 10
905.7942214678254
 20
36.736360000000005
 10
905.5716414678254
 20
37.211560000000006
 10
905.3557714678254
 20
37.68529
 10
905.1466514678253
 20
38.15744
 10
904.9442914678253
 20
38.62791
 10
918.9693514678254
 20
38.62791
 10
918.9693514678254
 20
31.72679
 10
919.7959114678254
 20
30.596490000000003
 10
920.6475414678254
 20
29.482280000000003
 10
921.5274214678254
 20
28.380760000000002
 10
922.4387814678254
 20
27.28852
 10
922.9069614678253
 20
26.74517
 10
923.3824114678254
 20
26.204990000000002
 10
923.8637314678253
 20
25.66969
 10
924.3495314678254
 20
25.14095
 10
924.8388614678254
 20
24.619970000000002
 10
925.3325614678254
 20
24.10592
 10
925.8319214678254
 20
23.59748
 10
926.3382514678253
 20
23.09329
 10
926.8522714678254
 20
22.59259
 10
927.3725614678253
 20
22.09681
 10
927.8971014678253
 20
21.607960000000002
 10
928.4239014678254
 20
21.12802
 10
928.9514614678254
 20
20.65853
 10
929.4801814678253
 20
20.19912
 10
930.0109414678254
 20
19.74895
 10
930.5446514678254
 20
19.30721
 10
931.0820314678253
 20
18.8732
 10
931.6231614678254
 20
18.44691
 10
932.1679814678254
 20
18.02847
 10
932.7164014678253
 20
17.618000000000002
 10
933.2682114678254
 20
17.21572
 10
933.8226014678254
 20
16.82218
 10
934.3785914678253
 20
16.43799
 10
934.9352314678254
 20
16.06378
 10
936.0473714678254
 20
15.347180000000002
 10
937.1550314678254
 20
14.67437
 10
938.2549714678254
 20
14.046710000000001
 10
939.3439514678254
 20
13.46557
 10
939.8835114678254
 20
13.192820000000001
 10
940.4202014678253
 20
12.93185
 10
940.9547314678254
 20
12.68246
 10
941.4877714678254
 20
12.44445
 10
942.0194814678254
 20
12.217780000000001
 10
942.5478014678254
 20
12.00304
 10
943.0701514678253
 20
11.800980000000001
 10
943.5839514678254
 20
11.61233
 10
944.0875514678254
 20
11.43755
 10
944.5830914678254
 20
11.27589
 10
945.0736714678254
 20
11.126290000000001
 10
945.5623814678254
 20
10.9877
 10
946.0511714678254
 20
10.85938
 10
946.5374214678254
 20
10.74172
 10
947.0173714678253
 20
10.635430000000001
 10
947.4872914678253
 20
10.541220000000001
 10
947.9445314678254
 20
10.459520000000001
 10
948.3909914678254
 20
10.389850000000001
 10
948.8296914678253
 20
10.33145
 10
949.2636314678253
 20
10.283560000000001
 10
949.6951714678254
 20
10.245610000000001
 10
950.1239614678253
 20
10.21767
 10
950.5490214678254
 20
10.20001
 10
950.9693214678254
 20
10.192860000000001
 10
951.3890314678254
 20
10.19637
 10
951.8134714678254
 20
10.21033
 10
952.2415714678253
 20
10.23447
 10
952.6722114678254
 20
10.26854
 10
953.1050414678253
 20
10.31245
 10
953.5426114678254
 20
10.366810000000001
 10
953.9881914678253
 20
10.432400000000001
 10
954.4450614678253
 20
10.50999
 10
954.9152814678254
 20
10.60012
 10
955.3960614678253
 20
10.70233
 10
955.8833714678253
 20
10.81591
 10
956.3731914678253
 20
10.94016
 10
956.8627214678254
 20
11.07466
 10
957.3539114678254
 20
11.22015
 10
957.8499514678253
 20
11.37768
 10
958.3540214678254
 20
11.54827
 10
958.8682914678254
 20
11.73267
 10
959.3910414678254
 20
11.930390000000001
 10
959.9195314678254
 20
12.14062
 10
960.4510514678254
 20
12.362580000000001
 10
960.9835314678254
 20
12.595690000000001
 10
961.5175114678253
 20
12.84018
 10
962.0541914678254
 20
13.096520000000002
 10
962.5947814678253
 20
13.36515
 10
963.1400414678254
 20
13.64634
 10
963.6890014678254
 20
13.9396
 10
964.2402814678254
 20
14.244250000000001
 10
964.7924714678254
 20
14.55959
 10
965.3445214678254
 20
14.88513
 10
965.8966814678254
 20
15.22104
 10
966.4495414678254
 20
15.567680000000001
 10
967.0037014678254
 20
15.9254
 10
967.5594014678254
 20
16.294340000000002
 10
968.1154914678253
 20
16.67381
 10
968.6705014678254
 20
17.062920000000002
 10
969.2229214678254
 20
17.46075
 10
969.7715514678254
 20
17.86657
 10
970.3162314678253
 20
18.2802
 10
970.8570814678254
 20
18.70165
 10
971.3942314678254
 20
19.13089
 10
971.9279114678254
 20
19.56804
 10
972.4587914678253
 20
20.01372
 10
972.9876514678253
 20
20.46868
 10
973.5152814678254
 20
20.93366
 10
974.0420214678254
 20
21.40897
 10
974.5664014678254
 20
21.89315
 10
975.0865114678254
 20
22.38429
 10
975.6004414678254
 20
22.880470000000003
 10
976.1068014678253
 20
23.38033
 10
976.6062914678254
 20
23.88459
 10
977.1001214678254
 20
24.39451
 10
977.5895314678254
 20
24.911340000000003
 10
978.0753114678254
 20
25.435850000000002
 10
978.5565314678254
 20
25.96689
 10
979.0318514678254
 20
26.50282
 10
979.4999214678254
 20
27.04201
 10
980.4112014678254
 20
28.12632
 10
981.2911514678253
 20
29.22032
 10
982.1428414678254
 20
30.32724
 10
982.9693514678254
 20
31.45031
 10
982.9693514678254
 20
38.62791
  0
LWPOLYLINE
  5
46
330
17
100
AcDbEntity
  8
CUT
100
AcDbPolyline
 90
32
 70
1
 10
932.4700314678254
 20
13.62792
 10
932.4395614678253
 20
13.930230000000002
 10
932.3521514678254
 20
14.21179
 10
932.2138514678254
 20
14.46659
 10
932.0306914678254
 20
14.688580000000002
 10
931.8086914678254
 20
14.87175
 10
931.5539014678254
 20
15.01005
 10
931.2723314678253
 20
15.09745
 10
930.9700314678254
 20
15.12792
 10
930.6677314678254
 20
15.09745
 10
930.3861614678253
 20
15.01005
 10
930.1313714678254
 20
14.87175
 10
929.9093714678254
 20
14.688580000000002
 10
929.7262114678254
 20
14.46659
 10
929.5879114678254
 20
14.21179
 10
929.5005014678254
 20
13.930230000000002
 10
929.4700314678254
 20
13.62792
 10
929.5005014678254
 20
13.32562
 10
929.5879114678254
 20
13.044060000000002
 10
929.7262114678254
 20
12.78926
 10
929.9093714678254
 20
12.567260000000001
 10
930.1313714678254
 20
12.3841
 10
930.3861614678253
 20
12.245800000000001
 10
930.6677314678254
 20
12.1584
 10
930.9700314678254
 20
12.12792
 10
931.2723314678253
 20
12.1584
 10
931.5539014678254
 20
12.245800000000001
 10
931.8086914678254
 20
12.3841
 10
932.0306914678254
 20
12.567260000000001
 10
932.2138514678254
 20
12.78926
 10
932.3521514678254
 20
13.044060000000002
 10
932.4395614678253
 20
13.32562
  0
LWPOLYLINE
  5
47
330
17
100
AcDbEntity
  8
CUT
100
AcDbPolyline
 90
32
 70
1
 10
972.4700314678254
 20
13.62792
 10
972.4395614678253
 20
13.930230000000002
 10
972.3521514678254
 20
14.21179
 10
972.2138514678254
 20
14.46659
 10
972.0306914678254
 20
14.688580000000002
 10
971.8086914678254
 20
14.87175
 10
971.5539014678254
 20
15.01005
 10
971.2723314678253
 20
15.09745
 10
970.9700314678254
 20
15.12792
 10
970.6677314678254
 20
15.09745
 10
970.3861614678253
 20
15.01005
 10
970.1313714678254
 20
14.87175
 10
969.9093714678254
 20
14.688580000000002
 10
969.7262114678254
 20
14.46659
 10
969.5879114678254
 20
14.21179
 10
969.5005114678254
 20
13.930230000000002
 10
969.4700314678254
 20
13.62792
 10
969.5005114678254
 20
13.32562
 10
969.5879114678254
 20
13.044060000000002
 10
969.7262114678254
 20
12.78926
 10
969.9093714678254
 20
12.567260000000001
 10
970.1313714678254
 20
12.3841
 10
970.3861614678253
 20
12.245800000000001
 10
970.6677314678254
 20
12.1584
 10
970.9700314678254
 20
12.12792
 10
971.2723314678253
 20
12.1584
 10
971.5539014678254
 20
12.245800000000001
 10
971.8086914678254
 20
12.3841
 10
972.0306914678254
 20
12.567260000000001
 10
972.2138514678254
 20
12.78926
 10
972.3521514678254
 20
13.044060000000002
 10
972.4395614678253
 20
13.32562
  0
TEXT
  5
48
330
17
100
AcDbEntity
  8
MARK
100
AcDbText
 10
978.9136969659595
 20
20.26061
 30
0.0
 40
2.5
  1
FF3
100
AcDbText
  0
LWPOLYLINE
  5
49
330
17
100
AcDbEntity
  8
CUT
100
AcDbPolyline
 90
4
 70
1
 10
994.9442914678253
 20
41.62791
 10
904.9442914678253
 20
41.62791
 10
904.9442914678253
 20
47.62791
 10
994.9442914678253
 20
47.62791
  0
TEXT
  5
4A
330
17
100
AcDbEntity
  8
MARK
100
AcDbText
 10
949.9442914678253
 20
44.62791
 30
0.0
 40
2.5
  1
FES0
100
AcDbText
  0
LWPOLYLINE
  5
4B
330
17
100
AcDbEntity
  8
CUT
100
AcDbPolyline
 90
4
 70
1
 10
994.2842
 20
50.62791
 10
904.2842
 20
50.62791
 10
904.2842
 20
56.62791
 10
994.2842
 20
56.62791
  0
TEXT
  5
4C
330
17
100
AcDbEntity
  8
MARK
100
AcDbText
 10
949.2842
 20
53.62791
 30
0.0
 40
2.5
  1
FES1
100
AcDbText
  0
LWPOLYLINE
  5
4D
330
17
100
AcDbEntity
  8
CUT
100
AcDbPolyline
 90
4
 70
1
 10
2.0
 20
92.42982452010413
 10
2.0
 20
97.42982452010413
 10
92.0
 20
97.42982452010413
 10
92.0
 20
92.42982452010413
  0
TEXT
  5
4E
330
17
100
AcDbEntity
  8
MARK
100
AcDbText
 10
47.0
 20
94.92982452010413
 30
0.0
 40
2.5
  1
FTM0
100
AcDbText
  0
LWPOLYLINE
  5
4F
330
17
100
AcDbEntity
  8
CUT
100
AcDbPolyline
 90
4
 70
1
 10
95.0
 20
92.42982452010413
 10
95.0
 20
97.42982452010413
 10
185.0
 20
97.42982452010413
 10
185.0
 20
92.42982452010413
  0
TEXT
  5
50
330
17
100
AcDbEntity
  8
MARK
100
AcDbText
 10
140.0
 20
94.92982452010413
 30
0.0
 40
2.5
  1
FTM1
100
AcDbText
  0
LWPOLYLINE
  5
51
330
17
100
AcDbEntity
  8
CUT
100
AcDbPolyline
 90
35
 70
1
 10
326.6445762748355
 20
96.95507156460185
 10
334.34828811641785
 20
96.88839388120167
 10
334.3488439368784
 20
96.95507156460185
 10
412.66971953882995
 20
96.16383946930056
 10
405.9738212089787
 20
94.72355402731506
 10
404.0444930838628
 20
94.32633241129082
 10
401.60987775410075
 20
93.83317935453519
 10
394.5953086697408
 20
92.4625126558655
 10
387.4637232971694
 20
91.14916335414655
 10
380.4363394226269
 20
89.94472925021259
 10
373.39586058695033
 20
88.83692765836904
 10
365.6546086209996
 20
87.74366796412231
 10
361.28463032955585
 20
87.18864524638016
 10
357.26399429931877
 20
86.72001353878933
 10
357.31641149037637
 20
92.43827527209444
 10
351.51666308833916
 20
92.49143173235318
 10
351.4581282956266
 20
86.10646783057251
 10
347.4956587431727
 20
85.73314457938665
 10
343.36923563175526
 20
85.39126907856824
 10
339.0677647776374
 20
85.08638399780028
 10
334.72829671760184
 20
84.8359775407525
 10
330.92805831025186
 20
84.66605905587825
 10
326.9493335394056
 20
84.5369097854418
 10
325.8428517344705
 20
84.51491225495165
 10
325.8504066582288
 20
85.42122076684316
 10
326.0535405065906
 20
85.60798400479361
 10
326.233314132736
 20
85.8140126344608
 10
326.3886790673289
 20
86.03709531868108
 10
326.51856684172833
 20
86.27502088700355
 10
326.62193915296353
 20
86.5255979182133
 10
326.69772744903696
 20
86.78660524220686
 10
326.74488334396904
 20
87.05584152147316
 10
326.7623584517802
 20
87.33110541850105
 10
326.7643583822961
 20
87.3310887472215
 10
326.8445634914779
 20
96.95270446096528
  0
TEXT
  5
52
330
17
100
AcDbEntity
  8
MARK
100
AcDbText
 10
370.62455286845056
 20
90.54694630217958
 30
0.0
 40
2.5
  1
WLRM_2
100
AcDbText
  0
LWPOLYLINE
  5
53
330
17
100
AcDbEntity
  8
CUT
100
AcDbPolyline
 90
35
 70
1
 10
912.7901922024079
 20
72.0680693096502
 10
991.1110678043594
 20
71.2768372143489
 10
984.4151694745082
 20
69.8365517723634
 10
982.4858413493923
 20
69.43933015633917
 10
980.0512260196302
 20
68.94617709958354
 10
973.0366569352703
 20
67.57551040091384
 10
965.9050715626989
 20
66.2621610991949
 10
958.8776876881564
 20
65.05772699526094
 10
951.8372088524799
 20
63.94992540341738
 10
944.0959568865292
 20
62.856665709170656
 10
939.7259785950853
 20
62.30164299142851
 10
935.7053425648483
 20
61.83301128383768
 10
935.7577597559058
 20
67.55127301714279
 10
929.9580113538686
 20
67.60442947740152
 10
929.899476561156
 20
61.219465575620866
 10
925.9370070087022
 20
60.846142324435
 10
921.8105838972847
 20
60.50426682361659
 10
917.5091130431668
 20
60.19938174284862
 10
913.1696449831313
 20
59.94897528580084
 10
909.3694065757813
 20
59.77905680092659
 10
905.3906818049351
 20
59.64990753049014
 10
904.2842
 20
59.62791
 10
904.2917549237583
 20
60.53421851189151
 10
904.4948685227457
 20
60.720951917597006
 10
904.6746218995168
 20
60.92695071501926
 10
904.829966501379
 20
61.149993567342015
 10
904.9598540257092
 20
61.38788913670675
 10
905.0632259201624
 20
61.6384161696536
 10
905.1390238824628
 20
61.89938341168045
 10
905.1861994432745
 20
62.16857952562363
 10
905.2037067173097
 20
62.44410316354941
 10
905.2057066478255
 20
62.44408649226985
 10
905.2859117570074
 20
72.06570220601363
 10
905.085924540365
 20
72.0680693096502
 10
912.7896363819474
 20
72.00139162625001
  0
TEXT
  5
54
330
17
100
AcDbEntity
  8
MARK
100
AcDbText
 10
949.0659011339801
 20
65.65994404722792
 30
0.0
 40
2.5
  1
WRRM_2
100
AcDbText
  0
LWPOLYLINE
  5
55
330
17
100
AcDbEntity
  8
CUT
100
AcDbPolyline
 90
4
 70
1
 10
188.0
 20
92.42982452010413
 10
188.0
 20
97.42982452010413
 10
266.0
 20
97.42982452010413
 10
266.0
 20
92.42982452010413
  0
TEXT
  5
56
330
17
100
AcDbEntity
  8
MARK
100
AcDbText
 10
227.0
 20
94.92982452010413
 30
0.0
 40
2.5
  1
FEC0
100
AcDbText
  0
LWPOLYLINE
  5
57
330
17
100
AcDbEntity
  8
CUT
100
AcDbPolyline
 90
4
 70
1
 10
904.2842
 20
75.0680693096502
 10
904.2842
 20
80.0680693096502
 10
982.2842
 20
80.0680693096502
 10
982.2842
 20
75.0680693096502
  0
TEXT
  5
58
330
17
100
AcDbEntity
  8
MARK
100
AcDbText
 10
943.2842
 20
77.5680693096502
 30
0.0
 40
2.5
  1
FEC1
100
AcDbText
  0
LWPOLYLINE
  5
59
330
17
100
AcDbEntity
  8
CUT
100
AcDbPolyline
 90
58
 70
1
 10
915.5139963601575
 20
83.61085695486507
 10
916.6193735139414
 20
95.86561978963232
 10
926.077768674224
 20
95.0124824088766
 10
929.8163601329718
 20
92.38431711957722
 10
932.1730371292172
 20
89.55763510849646
 10
932.0626319523757
 20
89.17129863568213
 10
931.9976644755216
 20
88.77875320805471
 10
931.9776833937367
 20
88.38382417839154
 10
932.002236512025
 20
87.99032693916065
 10
932.0708526048501
 20
87.602088623296
 10
932.183098507756
 20
87.22291288279982
 10
932.3384939249753
 20
86.85663770099355
 10
932.5366065821306
 20
86.50707669018871
 10
932.7734357048603
 20
86.18248873072767
 10
933.0430956033381
 20
85.88992568444029
 10
933.3422904337888
 20
85.63137881067937
 10
933.6677433829777
 20
85.40882762833192
 10
934.0161386865111
 20
85.22426517690735
 10
934.3841913510015
 20
85.07969178598944
 10
934.7686137128265
 20
84.97707790423424
 10
935.1661108182894
 20
84.9184247513038
 10
935.5617433058575
 20
84.90552917916722
 10
935.9525855557767
 20
84.9368856151576
 10
936.3351792626147
 20
85.01120676617131
 10
936.7060968919448
 20
85.1272126291791
 10
937.0618683978684
 20
85.28359688053708
 10
937.3990553955716
 20
85.47907044698503
 10
937.7142095399311
 20
85.71234514534105
 10
938.0038824858233
 20
85.98213279242319
 10
938.2612817211933
 20
86.28286587711943
 10
938.48113162445
 20
86.60752611496517
 10
938.6622868418976
 20
86.95262159174146
 10
938.8036101999936
 20
87.31463958253264
 10
938.9039563450424
 20
87.69008817311976
 10
938.9621591126515
 20
88.07546726913125
 10
938.9770930697441
 20
88.46728317619164
 10
938.9476110824679
 20
88.86202405946351
 10
966.2536861490723
 20
86.37263905662346
 10
962.1265634040443
 20
85.87142593900533
 10
960.641003634007
 20
85.70409825257285
 10
958.769115663719
 20
85.49896675428151
 10
953.3721381220971
 20
84.94512175500083
 10
947.897134816202
 20
84.44154116270536
 10
942.5042197403467
 20
84.01213849292674
 10
937.1038195705813
 20
83.65446676047054
 10
931.1860014750422
 20
83.35292204635672
 10
925.8162726758159
 20
83.17253397369257
 10
926.5037619237696
 20
90.79445400974963
 10
920.725844238415
 20
91.30031170344137
 10
919.9833030172915
 20
83.06806930965021
 10
914.0446119154998
 20
83.06806930965021
 10
914.0369986360708
 20
83.0681472605138
 10
907.613480406744
 20
83.21181088188696
 10
904.2842
 20
83.3658844311113
 10
904.5126713701123
 20
83.62815968030384
 10
904.7017008674811
 20
83.91812547074215
 10
904.8488480430829
 20
84.23139159644428
 10
904.9516624875849
 20
84.56356874150657
  0
TEXT
  5
5A
330
17
100
AcDbEntity
  8
MARK
100
AcDbText
 10
929.2463065571405
 20
89.3644668720893
 30
0.0
 40
2.5
  1
WLRO_2
100
AcDbText
  0
LWPOLYLINE
  5
5B
330
17
100
AcDbEntity
  8
CUT
100
AcDbPolyline
 90
58
 70
1
 10
455.8458668214215
 20
88.54441308902553
 10
465.3042710519351
 20
89.39756132016882
 10
466.4096490957972
 20
77.1427885250923
 10
476.97157370561166
 20
78.09547377883332
 10
477.074398110423
 20
77.76329752384932
 10
477.22154528602476
 20
77.45003139814719
 10
477.4105838536245
 20
77.16007645809643
 10
477.63904526342753
 20
76.89780031882559
 10
474.3101650492107
 20
76.74374245211419
 10
467.8866359694963
 20
76.600087900972
 10
467.87902358014566
 20
76.59999998979914
 10
461.940332478354
 20
76.59999998979916
 10
461.1977912572304
 20
84.83224238359031
 10
455.4198726817976
 20
84.32639465020783
 10
456.1073619297513
 20
76.70447461415077
 10
450.73763313052496
 20
76.88486268681494
 10
444.8198150349858
 20
77.18640740092874
 10
439.41941575529876
 20
77.54406917307567
 10
434.02651063975276
 20
77.9734727329326
 10
428.55149648347003
 20
78.47706239545903
 10
423.1545289021573
 20
79.030908284818
 10
421.28263097156014
 20
79.23603889303106
 10
419.7970811618321
 20
79.40336746954183
 10
415.6697195388299
 20
79.90466967876127
 10
442.9760317032519
 20
82.39398551061853
 10
442.94653975566655
 20
81.99924373726839
 10
442.9614737127591
 20
81.607427830208
 10
443.0196773704465
 20
81.22203877388723
 10
443.12002351549523
 20
80.84659018330011
 10
443.2613369132819
 20
80.48457130243065
 10
443.44250209103893
 20
80.13947671573264
 10
443.6623528843739
 20
79.81480651757765
 10
443.91974215943463
 20
79.5140725428031
 10
444.20941510532685
 20
79.24428489572097
 10
444.5245692496863
 20
79.01101019736495
 10
444.8617662076988
 20
78.81553752099528
 10
445.21753860370075
 20
78.65914330932804
 10
445.5884453826432
 20
78.54314651655123
 10
445.97104993986875
 20
78.46881629530655
 10
446.361892189788
 20
78.43745985931616
 10
446.75752378727776
 20
78.450365391762
 10
447.1550208927406
 20
78.50901854469244
 10
447.5394441446439
 20
78.61162246613839
 10
447.90749591905603
 20
78.75620581736555
 10
448.25590118289875
 20
78.94076915886842
 10
448.58134417177837
 20
79.16331945113758
 10
448.8805390022291
 20
79.42186632489849
 10
449.1501989007069
 20
79.71442937118589
 10
449.3870289135149
 20
80.03900737033766
 10
449.5851406805918
 20
80.38857834145176
 10
449.74054605812046
 20
80.7548544133363
 10
449.8527828907954
 20
81.13401930344494
 10
449.92140805385145
 20
81.52226846969715
 10
449.9459512118305
 20
81.91576481884974
 10
449.92597013004564
 20
82.31069384851293
 10
449.8610035432697
 20
82.70322931583108
 10
449.7505983664283
 20
83.0895657886454
 10
452.107285322983
 20
85.91624868980445
  0
TEXT
  5
5C
330
17
100
AcDbEntity
  8
MARK
100
AcDbText
 10
452.67732894267044
 20
82.89639755223824
 30
0.0
 40
2.5
  1
WRRO_2
100
AcDbText
  0
LWPOLYLINE
  5
5D
330
17
100
AcDbEntity
  8
CUT
100
AcDbPolyline
 90
4
 70
1
 10
480.63904526342753
 20
76.59999998979914
 10
480.63904526342753
 20
91.33094998979914
 10
541.7057452634275
 20
91.33094998979914
 10
541.7057452634275
 20
76.59999998979914
  0
TEXT
  5
5E
330
17
100
AcDbEntity
  8
MARK
100
AcDbText
 10
511.1723952634275
 20
83.96547498979913
 30
0.0
 40
2.5
  1
ALP
100
AcDbText
  0
LWPOLYLINE
  5
5F
330
17
100
AcDbEntity
  8
CUT
100
AcDbPolyline
 90
4
 70
1
 10
544.7057452634275
 20
76.59999998979914
 10
544.7057452634275
 20
91.33094998979914
 10
605.7724452634275
 20
91.33094998979914
 10
605.7724452634275
 20
76.59999998979914
  0
TEXT
  5
60
330
17
100
AcDbEntity
  8
MARK
100
AcDbText
 10
575.2390952634275
 20
83.96547498979913
 30
0.0
 40
2.5
  1
ARP
100
AcDbText
  0
LWPOLYLINE
  5
61
330
17
100
AcDbEntity
  8
CUT
100
AcDbPolyline
 90
66
 70
1
 10
621.7495453178984
 20
76.59999998979914
 10
616.2847320653486
 20
80.97448237233962
 10
611.6006198034839
 20
84.724027987244
 10
610.9756955343332
 20
83.94334261026654
 10
608.7724452634275
 20
85.70700388266373
 10
610.0867734878199
 20
87.34892575381517
 10
610.5141353292964
 20
87.85473926742449
 10
610.9666964728472
 20
88.33621819505066
 10
611.4433931211921
 20
88.79249764632657
 10
611.9431567854198
 20
89.22269086793492
 10
612.4649080545425
 20
89.62594546799396
 10
613.0075799972599
 20
90.00136063708993
 10
613.5701010094382
 20
90.34807773409842
 10
614.1513807392154
 20
90.66521469733371
 10
615.762079176514
 20
91.45345215431212
 10
617.3916456302368
 20
92.18011412545229
 10
619.0384574940399
 20
92.8453338348245
 10
620.7009265230151
 20
93.449255428575
 10
622.3774363600613
 20
93.99201993762784
 10
624.0664003178813
 20
94.47375745203283
 10
625.7662004817629
 20
94.89462305881047
 10
627.4752345507012
 20
95.25475934649592
 10
629.191903338914
 20
95.55428079143141
 10
630.914609237028
 20
95.79335184510231
 10
632.641735887942
 20
95.97211353843272
 10
634.3716903551164
 20
96.09068815461865
 10
636.1028625306924
 20
96.1492245314379
 10
637.8336438644229
 20
96.14785745057186
 10
639.5624445537885
 20
96.08674511426325
 10
641.2876497992991
 20
95.96601449733967
 10
643.0076588575611
 20
95.78579413223981
 10
644.7208741192014
 20
95.54624847044904
 10
646.4256807847299
 20
95.247504486795
 10
648.1204843599958
 20
94.88969852057012
 10
649.8036684878978
 20
94.4729716026985
 10
651.4736511727704
 20
93.99747568618011
 10
653.1288098082697
 20
93.4633439950853
 10
654.767549900245
 20
92.87071286870648
 10
656.3882628984486
 20
92.21971708872506
 10
657.989344944265
 20
91.51051329977265
 10
659.5692093503969
 20
90.74323159189902
 10
661.1262257036468
 20
89.91801143841715
 10
662.6588057591063
 20
89.0349969854733
 10
664.1653409665281
 20
88.09432301474884
 10
665.6442212180538
 20
87.09613836402158
 10
667.093859826386
 20
86.04057312334135
 10
662.4655394549592
 20
80.25865327751717
 10
662.075181152763
 20
80.5711279105779
 10
658.8963663743885
 20
76.59999998979916
 10
647.4080345724014
 20
85.79619805734053
 10
646.3201656216817
 20
86.06763353597184
 10
645.2267358468072
 20
86.30893535676476
 10
644.1283449494958
 20
86.52008460280581
 10
643.0256363573661
 20
86.70105297391831
 10
641.9192175789894
 20
86.85181530394604
 10
640.8097039297911
 20
86.97234017749018
 10
639.6977372797786
 20
87.06261335047046
 10
638.5839266951346
 20
87.12259560063424
 10
637.4689062390122
 20
87.15227893314399
 10
636.3532771707407
 20
87.15163037498976
 10
635.2376766686956
 20
87.12061381914107
 10
634.1227169330801
 20
87.05922596239198
 10
633.0090351422699
 20
86.967430697712
 10
631.8972325555937
 20
86.84519505209121
 10
630.7879432362054
 20
86.69251103069206
 10
629.6817903063836
 20
86.50934096887296
  0
TEXT
  5
62
330
17
100
AcDbEntity
  8
MARK
100
AcDbText
 10
655.6465915405122
 20
86.40913816281886
 30
0.0
 40
2.5
  1
FF2L
100
AcDbText
  0
LWPOLYLINE
  5
63
330
17
100
AcDbEntity
  8
CUT
100
AcDbPolyline
 90
66
 70
1
 10
674.722176307025
 20
80.25868067624468
 10
670.093859826386
 20
86.04060363657072
 10
671.5434991450322
 20
87.09616790175559
 10
673.0223878751169
 20
88.09435780654752
 10
674.5289237155395
 20
89.0350307634896
 10
676.0615043651993
 20
89.91804418512493
 10
677.6185212737585
 20
90.7432632908545
 10
679.1983783893535
 20
91.51053768636345
 10
680.799468719267
 20
92.21974664714821
 10
682.4201743486824
 20
92.87073508727703
 10
684.0589148394523
 20
93.46336511090982
 10
685.7140816412389
 20
93.99750193744768
 10
687.3840646460832
 20
94.47299673019621
 10
689.0672490544099
 20
94.88972251541446
 10
690.7620528704513
 20
95.24752734116697
 10
692.4668597370111
 20
95.54627017761736
 10
694.1800751598468
 20
95.78581468654613
 10
695.9000765325248
 20
95.9660276449749
 10
697.6252896661354
 20
96.08676335020562
 10
699.3540903966245
 20
96.14787452316449
 10
701.0848717312746
 20
96.14924043934798
 10
702.8160360606018
 20
96.09069664834576
 10
704.5459904479841
 20
95.97212086803374
 10
706.273124785463
 20
95.79336426171758
 10
707.9958227158421
 20
95.55428579956089
 10
709.7124913024996
 20
95.25476319943958
 10
711.4215329359516
 20
94.89463201094334
 10
713.1213328166226
 20
94.4737652603312
 10
714.810288643412
 20
93.99202036014623
 10
716.486805922077
 20
93.44926097216893
 10
718.1492667378012
 20
92.8453320104675
 10
719.7960859608203
 20
92.18011744215532
 10
721.4256441186972
 20
91.45344812520517
 10
723.0363420255724
 20
90.66520958435092
 10
723.6176293487987
 20
90.34807847919666
 10
724.1801501276628
 20
90.00136100365492
 10
724.7228140108966
 20
89.62593922014517
 10
725.244572815518
 20
89.22269051822524
 10
725.7443283834007
 20
88.79249071107711
 10
726.2210325315625
 20
88.33621718825859
 10
726.673593351115
 20
87.85473795609374
 10
727.1009470453598
 20
87.34891790566549
 10
728.4152741648651
 20
85.70699515007274
 10
726.2119914797197
 20
83.94331036334395
 10
725.5870677359102
 20
84.72399616084714
 10
720.9029529508911
 20
80.97445369799043
 10
715.4381679820848
 20
76.59999998979914
 10
707.5059296618247
 20
86.5093463066607
 10
706.3997768552626
 20
86.69251711283547
 10
705.290495445477
 20
86.84520812993833
 10
704.1786929410563
 20
86.96744452371661
 10
703.0650034051594
 20
87.0592342885812
 10
701.9500515177115
 20
87.12062914484974
 10
700.8344432296803
 20
87.15164020217422
 10
699.7188219687035
 20
87.15229576029833
 10
698.603793685749
 20
87.12260692887405
 10
697.4899830607417
 20
87.06262542821901
 10
696.3780163499824
 20
86.97235300350667
 10
695.2685104265386
 20
86.85183512581725
 10
694.1620915467106
 20
86.70107354032416
 10
693.0593750259453
 20
86.52009966201224
 10
691.9609917934051
 20
86.30895740434116
 10
690.8675540492953
 20
86.06765007010488
 10
689.7796849159206
 20
85.79621532352564
 10
678.2913156981712
 20
76.59999998979914
 10
675.1125035920608
 20
80.57113004967454
  0
TEXT
  5
64
330
17
100
AcDbEntity
  8
MARK
100
AcDbText
 10
681.5411059896967
 20
86.40915185550094
 30
0.0
 40
2.5
  1
FF2R
100
AcDbText
  0
LWPOLYLINE
  5
65
330
17
100
AcDbEntity
  8
CUT
100
AcDbPolyline
 90
69
 70
1
 10
735.274125411132
 20
81.04476044520405
 10
731.415274164865
 20
86.53034523912376
 10
732.9275256183618
 20
87.4940701031264
 10
734.4654214498933
 20
88.39871051337673
 10
736.027342095361
 20
89.24423978410718
 10
737.6116852513542
 20
90.03060669246315
 10
739.2168371073371
 20
90.75777637364808
 10
740.8411977853655
 20
91.42571153739914
 10
742.4831428704081
 20
92.03435763276522
 10
744.1410806635498
 20
92.58368312304624
 10
745.8133891752256
 20
93.07364738988288
 10
747.4984603484622
 20
93.50420738944953
 10
749.1946885517528
 20
93.8753340105124
 10
750.900463302658
 20
94.18697027665411
 10
752.6141789696705
 20
94.43908707664085
 10
754.3342193167884
 20
94.63163561308427
 10
756.0589787125047
 20
94.76458677475057
 10
757.7868548534088
 20
94.83788933878512
 10
759.516225749936
 20
94.8515026868286
 10
761.2454857705792
 20
94.8053977076472
 10
762.9730326119278
 20
94.69952317838631
 10
764.697252463446
 20
94.53384423424936
 10
766.4165372681607
 20
94.30831783141075
 10
768.1292650365068
 20
94.02290335151116
 10
769.8338498231318
 20
93.6775610788215
 10
771.5286614594419
 20
93.27224464141968
 10
773.2121082465217
 20
92.80692250260562
 10
774.8825681948065
 20
92.28155404402
 10
776.5384414263518
 20
91.69610197539997
 10
778.1781035261266
 20
91.05051174579445
 10
779.7999627952156
 20
90.34475181850334
 10
781.402397244054
 20
89.57878157516734
 10
782.9838069946974
 20
88.75256372552359
 10
784.5425758111437
 20
87.86604947218375
 10
785.1030963524014
 20
87.51350030195619
 10
785.6430558178006
 20
87.13259820137674
 10
786.1614263519368
 20
86.72428291150958
 10
786.6571858529685
 20
86.28948599438984
 10
787.1293425097037
 20
85.82914809371191
 10
787.5768545341465
 20
85.34421137600621
 10
787.998716182513
 20
84.83561891043341
 10
788.3939135319908
 20
84.30430801259138
 10
789.6039970957047
 20
82.58410280828298
 10
787.2956706307351
 20
80.96030356157144
 10
786.7203143558794
 20
81.7782064635006
 10
781.8128969443044
 20
78.32606881436631
 10
779.3591882385168
 20
76.59999998979916
 10
775.9070505893826
 20
81.50741740137417
 10
768.4274190162582
 20
92.14015512645335
 10
763.5200016046832
 20
88.68801747731905
 10
765.922430498157
 20
85.27282301516873
 10
764.9969614078256
 20
85.41939976824052
 10
764.0692288761649
 20
85.5446875820868
 10
763.1396015243295
 20
85.64870123657234
 10
762.2084513015703
 20
85.73143339994118
 10
761.2761410754794
 20
85.79290703108717
 10
760.3430346162787
 20
85.8331090446916
 10
759.4094866125309
 20
85.85205664608553
 10
758.4758714389535
 20
85.8497564361048
 10
757.5425528657684
 20
85.82619532943066
 10
756.6098880070047
 20
85.781404463986
 10
755.6782545654762
 20
85.71536832898579
 10
754.7479990507167
 20
85.62809837619841
 10
753.8195040164725
 20
85.5196069600224
 10
752.8931193003739
 20
85.3898834206053
 10
751.9692135235754
 20
85.23894253781195
 10
751.0481553072317
 20
85.06679909150715
 10
739.0121006781675
 20
76.59999998979914
 10
735.6830605040386
 20
81.33242707550642
  0
TEXT
  5
66
330
17
100
AcDbEntity
  8
MARK
100
AcDbText
 10
743.8872493386228
 20
85.72340086446349
 30
0.0
 40
2.5
  1
FF0R
100
AcDbText
  0
ENDSEC
  0
SECTION
  2
OBJECTS
  0
DICTIONARY
  5
A
330
0
100
AcDbDictionary
281
1
  3
ACAD_COLOR
350
B
  3
ACAD_GROUP
350
C
  3
ACAD_LAYOUT
350
D
  3
ACAD_MATERIAL
350
E
  3
ACAD_MLEADERSTYLE
350
F
  3
ACAD_MLINESTYLE
350
10
  3
ACAD_PLOTSETTINGS
350
11
  3
ACAD_PLOTSTYLENAME
350
12
  3
ACAD_SCALELIST
350
14
  3
ACAD_TABLESTYLE
350
15
  3
ACAD_VISUALSTYLE
350
16
  3
EZDXF_META
350
2D
  0
DICTIONARY
  5
B
330
A
100
AcDbDictionary
281
1
  0
DICTIONARY
  5
C
330
A
100
AcDbDictionary
281
1
  0
DICTIONARY
  5
D
330
A
100
AcDbDictionary
281
1
  3
Model
350
1A
  3
Layout1
350
1E
  0
DICTIONARY
  5
E
330
A
100
AcDbDictionary
281
1
  3
ByBlock
350
1F
  3
ByLayer
350
20
  3
Global
350
21
  0
DICTIONARY
  5
F
330
A
100
AcDbDictionary
281
1
  3
Standard
350
2C
  0
DICTIONARY
  5
10
330
A
100
AcDbDictionary
281
1
  3
Standard
350
22
  0
DICTIONARY
  5
11
330
A
100
AcDbDictionary
281
1
  0
ACDBDICTIONARYWDFLT
  5
12
330
A
100
AcDbDictionary
281
1
  3
Normal
350
13
100
AcDbDictionaryWithDefault
340
13
  0
ACDBPLACEHOLDER
  5
13
330
12
  0
DICTIONARY
  5
14
330
A
100
AcDbDictionary
281
1
  0
DICTIONARY
  5
15
330
A
100
AcDbDictionary
281
1
  0
DICTIONARY
  5
16
330
A
100
AcDbDictionary
281
1
  0
LAYOUT
  5
1A
330
D
100
AcDbPlotSettings
  1

  4
A3
  6

 40
7.5
 41
20.0
 42
7.5
 43
20.0
 44
420.0
 45
297.0
 46
0.0
 47
0.0
 48
0.0
 49
0.0
140
0.0
141
0.0
142
1.0
143
1.0
 70
1024
 72
1
 73
0
 74
5
  7

 75
16
 76
0
 77
2
 78
300
147
1.0
148
0.0
149
0.0
100
AcDbLayout
  1
Model
 70
1
 71
0
 10
0.0
 20
0.0
 11
420.0
 21
297.0
 12
0.0
 22
0.0
 32
0.0
 14
1e+20
 24
1e+20
 34
1e+20
 15
-1e+20
 25
-1e+20
 35
-1e+20
146
0.0
 13
0.0
 23
0.0
 33
0.0
 16
1.0
 26
0.0
 36
0.0
 17
0.0
 27
1.0
 37
0.0
 76
1
330
17
  0
LAYOUT
  5
1E
330
D
100
AcDbPlotSettings
  1

  4
A3
  6

 40
7.5
 41
20.0
 42
7.5
 43
20.0
 44
420.0
 45
297.0
 46
0.0
 47
0.0
 48
0.0
 49
0.0
140
0.0
141
0.0
142
1.0
143
1.0
 70
0
 72
1
 73
0
 74
5
  7

 75
16
 76
0
 77
2
 78
300
147
1.0
148
0.0
149
0.0
100
AcDbLayout
  1
Layout1
 70
1
 71
1
 10
0.0
 20
0.0
 11
420.0
 21
297.0
 12
0.0
 22
0.0
 32
0.0
 14
1e+20
 24
1e+20
 34
1e+20
 15
-1e+20
 25
-1e+20
 35
-1e+20
146
0.0
 13
0.0
 23
0.0
 33
0.0
 16
1.0
 26
0.0
 36
0.0
 17
0.0
 27
1.0
 37
0.0
 76
1
330
1B
  0
MATERIAL
  5
1F
102
{ACAD_REACTORS
330
E
102
}
330
E
100
AcDbMaterial
  1
ByBlock
  2

 70
0
 40
1.0
 71
1
 41
1.0
 91
-1023410177
 42
1.0
 72
1
  3

 73
1
 74
1
 75
1
 44
0.5
 73
0
 45
1.0
 46
1.0
 77
1
  4

 78
1
 79
1
170
1
 48
1.0
171
1
  6

172
1
173
1
174
1
140
1.0
141
1.0
175
1
  7

176
1
177
1
178
1
143
1.0
179
1
  8

270
1
271
1
272
1
145
1.0
146
1.0
273
1
  9

274
1
275
1
276
1
 42
1.0
 72
1
  3

 73
1
 74
1
 75
1
 94
63
  0
MATERIAL
  5
20
102
{ACAD_REACTORS
330
E
102
}
330
E
100
AcDbMaterial
  1
ByLayer
  2

 70
0
 40
1.0
 71
1
 41
1.0
 91
-1023410177
 42
1.0
 72
1
  3

 73
1
 74
1
 75
1
 44
0.5
 73
0
 45
1.0
 46
1.0
 77
1
  4

 78
1
 79
1
170
1
 48
1.0
171
1
  6

172
1
173
1
174
1
140
1.0
141
1.0
175
1
  7

176
1
177
1
178
1
143
1.0
179
1
  8

270
1
271
1
272
1
145
1.0
146
1.0
273
1
  9

274
1
275
1
276
1
 42
1.0
 72
1
  3

 73
1
 74
1
 75
1
 94
63
  0
MATERIAL
  5
21
102
{ACAD_REACTORS
330
E
102
}
330
E
100
AcDbMaterial
  1
Global
  2

 70
0
 40
1.0
 71
1
 41
1.0
 91
-1023410177
 42
1.0
 72
1
  3

 73
1
 74
1
 75
1
 44
0.5
 73
0
 45
1.0
 46
1.0
 77
1
  4

 78
1
 79
1
170
1
 48
1.0
171
1
  6

172
1
173
1
174
1
140
1.0
141
1.0
175
1
  7

176
1
177
1
178
1
143
1.0
179
1
  8

270
1
271
1
272
1
145
1.0
146
1.0
273
1
  9

274
1
275
1
276
1
 42
1.0
 72
1
  3

 73
1
 74
1
 75
1
 94
63
  0
MLINESTYLE
  5
22
102
{ACAD_REACTORS
330
10
102
}
330
10
100
AcDbMlineStyle
  2
Standard
 70
0
  3

 62
256
 51
90.0
 52
90.0
 71
2
 49
0.5
 62
256
  6
BYLAYER
 49
-0.5
 62
256
  6
BYLAYER
  0
MLEADERSTYLE
  5
2C
102
{ACAD_REACTORS
330
F
102
}
330
F
100
AcDbMLeaderStyle
179
2
170
2
171
1
172
0
 90
2
 40
0.0
 41
0.0
173
1
 91
-1056964608
 92
-2
290
1
 42
2.0
291
1
 43
8.0
  3
Standard
 44
4.0
300

342
29
174
1
175
1
176
0
178
1
 93
-1056964608
 45
4.0
292
0
297
0
 46
4.0
 94
-1056964608
 47
1.0
 49
1.0
140
1.0
294
1
141
0.0
177
0
142
1.0
295
0
296
0
143
3.75
271
0
272
9
273
9
  0
DICTIONARY
  5
2D
330
A
100
AcDbDictionary
280
1
281
1
  3
CREATED_BY_EZDXF
350
2E
  3
WRITTEN_BY_EZDXF
350
69
  0
DICTIONARYVAR
  5
2E
330
2D
100
DictionaryVariables
280
0
  1
1.4.4 @ 2026-09-23T04:01:14.269452+00:00
  0
DICTIONARYVAR
  5
69
330
2D
100
DictionaryVariables
280
0
  1
1.4.4 @ 2026-09-23T04:01:14.394252+00:00
  0
ENDSEC
  0
EOF
