  0
SECTION
  2
HEADER
  9
$ACADVER
  1
AC1024
  9
$ACADMAINTVER
 70
6
  9
$DWGCODEPAGE
  3
ANSI_1252
  9
$LASTSAVEDBY
  1
ezdxf
  9
$INSBASE
 10
0.0
 20
0.0
 30
0.0
  9
$EXTMIN
 10
1e+20
 20
1e+20
 30
1e+20
  9
$EXTMAX
 10
-1e+20
 20
-1e+20
 30
-1e+20
  9
$LIMMIN
 10
0.0
 20
0.0
  9
$LIMMAX
 10
420.0
 20
297.0
  9
$ORTHOMODE
 70
0
  9
$REGENMODE
 70
1
  9
$FILLMODE
 70
1
  9
$QTEXTMODE
 70
0
  9
$MIRRTEXT
 70
1
  9
$LTSCALE
 40
1.0
  9
$ATTMODE
 70
1
  9
$TEXTSIZE
 40
2.5
  9
$TRACEWID
 40
1.0
  9
$TEXTSTYLE
  7
Standard
  9
$CLAYER
  8
0
  9
$CELTYPE
  6
ByLayer
  9
$CECOLOR
 62
256
  9
$CELTSCALE
 40
1.0
  9
$DISPSILH
 70
0
  9
$DIMSCALE
 40
1.0
  9
$DIMASZ
 40
2.5
  9
$DIMEXO
 40
0.625
  9
$DIMDLI
 40
3.75
  9
$DIMRND
 40
0.0
  9
$DIMDLE
 40
0.0
  9
$DIMEXE
 40
1.25
  9
$DIMTP
 40
0.0
  9
$DIMTM
 40
0.0
  9
$DIMTXT
 40
2.5
  9
$DIMCEN
 40
2.5
  9
$DIMTSZ
 40
0.0
  9
$DIMTOL
 70
0
  9
$DIMLIM
 70
0
  9
$DIMTIH
 70
0
  9
$DIMTOH
 70
0
  9
$DIMSE1
 70
0
  9
$DIMSE2
 70
0
  9
$DIMTAD
 70
1
  9
$DIMZIN
 70
8
  9
$DIMBLK
  1

  9
$DIMASO
 70
1
  9
$DIMSHO
 70
1
  9
$DIMPOST
  1

  9
$DIMAPOST
  1

  9
$DIMALT
 70
0
  9
$DIMALTD
 70
3
  9
$DIMALTF
 40
0.03937007874
  9
$DIMLFAC
 40
1.0
  9
$DIMTOFL
 70
1
  9
$DIMTVP
 40
0.0
  9
$DIMTIX
 70
0
  9
$DIMSOXD
 70
0
  9
$DIMSAH
 70
0
  9
$DIMBLK1
  1

  9
$DIMBLK2
  1

  9
$DIMSTYLE
  2
ISO-25
  9
$DIMCLRD
 70
0
  9
$DIMCLRE
 70
0
  9
$DIMCLRT
 70
0
  9
$DIMTFAC
 40
1.0
  9
$DIMGAP
 40
0.625
  9
$DIMJUST
 70
0
  9
$DIMSD1
 70
0
  9
$DIMSD2
 70
0
  9
$DIMTOLJ
 70
0
  9
$DIMTZIN
 70
8
  9
$DIMALTZ
 70
0
  9
$DIMALTTZ
 70
0
  9
$DIMUPT
 70
0
  9
$DIMDEC
 70
2
  9
$DIMTDEC
 70
2
  9
$DIMALTU
 70
2
  9
$DIMALTTD
 70
3
  9
$DIMTXSTY
  7
Standard
  9
$DIMAUNIT
 70
0
  9
$DIMADEC
 70
0
  9
$DIMALTRND
 40
0.0
  9
$DIMAZIN
 70
0
  9
$DIMDSEP
 70
44
  9
$DIMATFIT
 70
3
  9
$DIMFRAC
 70
0
  9
$DIMLDRBLK
  1

  9
$DIMLUNIT
 70
2
  9
$DIMLWD
 70
-2
  9
$DIMLWE
 70
-2
  9
$DIMTMOVE
 70
0
  9
$DIMFXL
 40
1.0
  9
$DIMFXLON
 70
0
  9
$DIMJOGANG
 40
0.785398163397
  9
$DIMTFILL
 70
0
  9
$DIMTFILLCLR
 70
0
  9
$DIMARCSYM
 70
0
  9
$DIMLTYPE
  6

  9
$DIMLTEX1
  6

  9
$DIMLTEX2
  6

  9
$DIMTXTDIRECTION
 70
0
  9
$LUNITS
 70
2
  9
$LUPREC
 70
4
  9
$SKETCHINC
 40
1.0
  9
$FILLETRAD
 40
10.0
  9
$AUNITS
 70
0
  9
$AUPREC
 70
2
  9
$MENU
  1
.
  9
$ELEVATION
 40
0.0
  9
$PELEVATION
 40
0.0
  9
$THICKNESS
 40
0.0
  9
$LIMCHECK
 70
0
  9
$CHAMFERA
 40
0.0
  9
$CHAMFERB
 40
0.0
  9
$CHAMFERC
 40
0.0
  9
$CHAMFERD
 40
0.0
  9
$SKPOLY
 70
0
  9
$TDCREATE
 40
2461307.8431944447
  9
$TDUCREATE
 40
2458532.153996898
  9
$TDUPDATE
 40
2461307.8431944447
  9
$TDUUPDATE
 40
2458532.1544311
  9
$TDINDWG
 40
0.0
  9
$TDUSRTIMER
 40
0.0
  9
$USRTIMER
 70
1
  9
$ANGBASE
 50
0.0
  9
$ANGDIR
 70
0
  9
$PDMODE
 70
0
  9
$PDSIZE
 40
0.0
  9
$PLINEWID
 40
0.0
  9
$SPLFRAME
 70
0
  9
$SPLINETYPE
 70
6
  9
$SPLINESEGS
 70
8
  9
$HANDSEED
  5
51
  9
$SURFTAB1
 70
6
  9
$SURFTAB2
 70
6
  9
$SURFTYPE
 70
6
  9
$SURFU
 70
6
  9
$SURFV
 70
6
  9
$UCSBASE
  2

  9
$UCSNAME
  2

  9
$UCSORG
 10
0.0
 20
0.0
 30
0.0
  9
$UCSXDIR
 10
1.0
 20
0.0
 30
0.0
  9
$UCSYDIR
 10
0.0
 20
1.0
 30
0.0
  9
$UCSORTHOREF
  2

  9
$UCSORTHOVIEW
 70
0
  9
$UCSORGTOP
 10
0.0
 20
0.0
 30
0.0
  9
$UCSORGBOTTOM
 10
0.0
 20
0.0
 30
0.0
  9
$UCSORGLEFT
 10
0.0
 20
0.0
 30
0.0
  9
$UCSORGRIGHT
 10
0.0
 20
0.0
 30
0.0
  9
$UCSORGFRONT
 10
0.0
 20
0.0
 30
0.0
  9
$UCSORGBACK
 10
0.0
 20
0.0
 30
0.0
  9
$PUCSBASE
  2

  9
$PUCSNAME
  2

  9
$PUCSORG
 10
0.0
 20
0.0
 30
0.0
  9
$PUCSXDIR
 10
1.0
 20
0.0
 30
0.0
  9
$PUCSYDIR
 10
0.0
 20
1.0
 30
0.0
  9
$PUCSORTHOREF
  2

  9
$PUCSORTHOVIEW
 70
0
  9
$PUCSORGTOP
 10
0.0
 20
0.0
 30
0.0
  9
$PUCSORGBOTTOM
 10
0.0
 20
0.0
 30
0.0
  9
$PUCSORGLEFT
 10
0.0
 20
0.0
 30
0.0
  9
$PUCSORGRIGHT
 10
0.0
 20
0.0
 30
0.0
  9
$PUCSORGFRONT
 10
0.0
 20
0.0
 30
0.0
  9
$PUCSORGBACK
 10
0.0
 20
0.0
 30
0.0
  9
$USERI1
 70
0
  9
$USERI2
 70
0
  9
$USERI3
 70
0
  9
$USERI4
 70
0
  9
$USERI5
 70
0
  9
$USERR1
 40
0.0
  9
$USERR2
 40
0.0
  9
$USERR3
 40
0.0
  9
$USERR4
 40
0.0
  9
$USERR5
 40
0.0
  9
$WORLDVIEW
 70
1
  9
$SHADEDGE
 70
3
  9
$SHADEDIF
 70
70
  9
$TILEMODE
 70
1
  9
$MAXACTVP
 70
64
  9
$PINSBASE
 10
0.0
 20
0.0
 30
0.0
  9
$PLIMCHECK
 70
0
  9
$PEXTMIN
 10
1e+20
 20
1e+20
 30
1e+20
  9
$PEXTMAX
 10
-1e+20
 20
-1e+20
 30
-1e+20
  9
$PLIMMIN
 10
0.0
 20
0.0
  9
$PLIMMAX
 10
420.0
 20
297.0
  9
$UNITMODE
 70
0
  9
$VISRETAIN
 70
1
  9
$PLINEGEN
 70
0
  9
$PSLTSCALE
 70
1
  9
$TREEDEPTH
 70
3020
  9
$CMLSTYLE
  2
Standard
  9
$CMLJUST
 70
0
  9
$CMLSCALE
 40
20.0
  9
$PROXYGRAPHICS
 70
1
  9
$MEASUREMENT
 70
1
  9
$CELWEIGHT
370
-1
  9
$ENDCAPS
280
0
  9
$JOINSTYLE
280
0
  9
$LWDISPLAY
290
0
  9
$INSUNITS
 70
4
  9
$HYPERLINKBASE
  1

  9
$STYLESHEET
  1

  9
$XEDIT
290
1
  9
$CEPSNTYPE
380
0
  9
$PSTYLEMODE
290
1
  9
$FINGERPRINTGUID
  2
{B5B2187A-4F84-413E-9CD0-79A5DB44C9C9}
  9
$VERSIONGUID
  2
{69EE64CB-18A0-46B9-8FD6-53AB0D38164C}
  9
$EXTNAMES
290
1
  9
$PSVPSCALE
 40
0.0
  9
$OLESTARTUP
290
0
  9
$SORTENTS
280
127
  9
$INDEXCTL
280
0
  9
$HIDETEXT
280
1
  9
$XCLIPFRAME
280
1
  9
$HALOGAP
280
0
  9
$OBSCOLOR
 70
257
  9
$OBSLTYPE
280
0
  9
$INTERSECTIONDISPLAY
280
0
  9
$INTERSECTIONCOLOR
 70
257
  9
$DIMASSOC
280
2
  9
$PROJECTNAME
  1

  9
$CAMERADISPLAY
290
0
  9
$LENSLENGTH
 40
50.0
  9
$CAMERAHEIGHT
 40
0.0
  9
$STEPSPERSEC
 40
24.0
  9
$STEPSIZE
 40
100.0
  9
$3DDWFPREC
 40
2.0
  9
$PSOLWIDTH
 40
0.005
  9
$PSOLHEIGHT
 40
0.08
  9
$LOFTANG1
 40
1.570796326795
  9
$LOFTANG2
 40
1.570796326795
  9
$LOFTMAG1
 40
0.0
  9
$LOFTMAG2
 40
0.0
  9
$LOFTPARAM
 70
7
  9
$LOFTNORMALS
280
1
  9
$LATITUDE
 40
37.795
  9
$LONGITUDE
 40
-122.394
  9
$NORTHDIRECTION
 40
0.0
  9
$TIMEZONE
 70
-8000
  9
$LIGHTGLYPHDISPLAY
280
1
  9
$TILEMODELIGHTSYNCH
280
1
  9
$CMATERIAL
347
20
  9
$SOLIDHIST
280
0
  9
$SHOWHIST
280
1
  9
$DWFFRAME
280
2
  9
$DGNFRAME
280
2
  9
$REALWORLDSCALE
290
1
  9
$INTERFERECOLOR
 62
256
  9
$CSHADOW
280
0
  9
$SHADOWPLANELOCATION
 40
0.0
  0
ENDSEC
  0
SECTION
  2
CLASSES
  0
CLASS
  1
ACDBDICTIONARYWDFLT
  2
AcDbDictionaryWithDefault
  3
ObjectDBX Classes
 90
0
 91
0
280
0
281
0
  0
CLASS
  1
SUN
  2
AcDbSun
  3
SCENEOE
 90
1153
 91
0
280
0
281
0
  0
CLASS
  1
VISUALSTYLE
  2
AcDbVisualStyle
  3
ObjectDBX Classes
 90
4095
 91
0
280
0
281
0
  0
CLASS
  1
MATERIAL
  2
AcDbMaterial
  3
ObjectDBX Classes
 90
1153
 91
0
280
0
281
0
  0
CLASS
  1
SCALE
  2
AcDbScale
  3
ObjectDBX Classes
 90
1153
 91
0
280
0
281
0
  0
CLASS
  1
TABLESTYLE
  2
AcDbTableStyle
  3
ObjectDBX Classes
 90
4095
 91
0
280
0
281
0
  0
CLASS
  1
MLEADERSTYLE
  2
AcDbMLeaderStyle
  3
ACDB_MLEADERSTYLE_CLASS
 90
4095
 91
0
280
0
281
0
  0
CLASS
  1
DICTIONARYVAR
  2
AcDbDictionaryVar
  3
ObjectDBX Classes
 90
0
 91
0
280
0
281
0
  0
CLASS
  1
CELLSTYLEMAP
  2
AcDbCellStyleMap
  3
ObjectDBX Classes
 90
1152
 91
0
280
0
281
0
  0
CLASS
  1
MENTALRAYRENDERSETTINGS
  2
AcDbMentalRayRenderSettings
  3
SCENEOE
 90
1024
 91
0
280
0
281
0
  0
CLASS
  1
ACDBDETAILVIEWSTYLE
  2
AcDbDetailViewStyle
  3
ObjectDBX Classes
 90
1025
 91
0
280
0
281
0
  0
CLASS
  1
ACDBSECTIONVIEWSTYLE
  2
AcDbSectionViewStyle
  3
ObjectDBX Classes
 90
1025
 91
0
280
0
281
0
  0
CLASS
  1
RASTERVARIABLES
  2
AcDbRasterVariables
  3
ISM
 90
0
 91
0
280
0
281
0
  0
CLASS
  1
ACDBPLACEHOLDER
  2
AcDbPlaceHolder
  3
ObjectDBX Classes
 90
0
 91
0
280
0
281
0
  0
CLASS
  1
LAYOUT
  2
AcDbLayout
  3
ObjectDBX Classes
 90
0
 91
0
280
0
281
0
  0
ENDSEC
  0
SECTION
  2
TABLES
  0
TABLE
  2
VPORT
  5
8
330
0
100
AcDbSymbolTable
 70
1
  0
VPORT
  5
23
330
8
100
AcDbSymbolTableRecord
100
AcDbViewportTableRecord
  2
*Active
 70
0
 10
0.0
 20
0.0
 11
1.0
 21
1.0
 12
0.0
 22
0.0
 13
0.0
 23
0.0
 14
0.5
 24
0.5
 15
0.5
 25
0.5
 16
0.0
 26
0.0
 36
1.0
 17
0.0
 27
0.0
 37
0.0
 40
1000.0
 41
1.34
 42
50.0
 43
0.0
 44
0.0
 50
0.0
 51
0.0
 71
0
 72
1000
 73
1
 74
3
 75
0
 76
0
 77
0
 78
0
281
0
 65
0
146
0.0
  0
ENDTAB
  0
TABLE
  2
LTYPE
  5
2
330
0
100
AcDbSymbolTable
 70
3
  0
LTYPE
  5
24
330
2
100
AcDbSymbolTableRecord
100
AcDbLinetypeTableRecord
  2
ByBlock
 70
0
  3

 72
65
 73
0
 40
0.0
  0
LTYPE
  5
25
330
2
100
AcDbSymbolTableRecord
100
AcDbLinetypeTableRecord
  2
ByLayer
 70
0
  3

 72
65
 73
0
 40
0.0
  0
LTYPE
  5
26
330
2
100
AcDbSymbolTableRecord
100
AcDbLinetypeTableRecord
  2
Continuous
 70
0
  3

 72
65
 73
0
 40
0.0
  0
ENDTAB
  0
TABLE
  2
LAYER
  5
1
330
0
100
AcDbSymbolTable
 70
6
  0
LAYER
  5
27
330
1
100
AcDbSymbolTableRecord
100
AcDbLayerTableRecord
  2
0
 70
0
 62
7
  6
Continuous
370
-3
390
13
347
21
  0
LAYER
  5
28
330
1
100
AcDbSymbolTableRecord
100
AcDbLayerTableRecord
  2
Defpoints
 70
0
 62
7
  6
Continuous
290
0
370
-3
390
13
347
21
  0
LAYER
  5
2F
330
1
100
AcDbSymbolTableRecord
100
AcDbLayerTableRecord
  2
CUT
 70
0
 62
7
  6
Continuous
370
-3
390
13
347
21
  0
LAYER
  5
30
330
1
100
AcDbSymbolTableRecord
100
AcDbLayerTableRecord
  2
MARK
 70
0
 62
3
  6
Continuous
370
-3
390
13
347
21
  0
LAYER
  5
31
330
1
100
AcDbSymbolTableRecord
100
AcDbLayerTableRecord
  2
BEVEL_REFERENCE_DO_NOT_CUT
 70
0
 62
30
  6
Continuous
370
-3
390
13
347
21
  0
LAYER
  5
32
330
1
100
AcDbSymbolTableRecord
100
AcDbLayerTableRecord
  2
STOCK_REFERENCE_DO_NOT_CUT
 70
0
 62
8
  6
Continuous
370
-3
390
13
347
21
  0
ENDTAB
  0
TABLE
  2
STYLE
  5
5
330
0
100
AcDbSymbolTable
 70
1
  0
STYLE
  5
29
330
5
100
AcDbSymbolTableRecord
100
AcDbTextStyleTableRecord
  2
Standard
 70
0
 40
0.0
 41
1.0
 50
0.0
 71
0
 42
2.5
  3
txt
  4

  0
ENDTAB
  0
TABLE
  2
VIEW
  5
7
330
0
100
AcDbSymbolTable
 70
0
  0
ENDTAB
  0
TABLE
  2
UCS
  5
6
330
0
100
AcDbSymbolTable
 70
0
  0
ENDTAB
  0
TABLE
  2
APPID
  5
3
330
0
100
AcDbSymbolTable
 70
3
  0
APPID
  5
2A
330
3
100
AcDbSymbolTableRecord
100
AcDbRegAppTableRecord
  2
ACAD
 70
0
  0
APPID
  5
4E
330
3
100
AcDbSymbolTableRecord
100
AcDbRegAppTableRecord
  2
HATCHBACKGROUNDCOLOR
 70
0
  0
APPID
  5
4F
330
3
100
AcDbSymbolTableRecord
100
AcDbRegAppTableRecord
  2
EZDXF
 70
0
  0
ENDTAB
  0
TABLE
  2
DIMSTYLE
  5
4
330
0
100
AcDbSymbolTable
 70
1
100
AcDbDimStyleTable
  0
DIMSTYLE
105
2B
330
4
100
AcDbSymbolTableRecord
100
AcDbDimStyleTableRecord
  2
Standard
 70
0
 40
1.0
 41
2.5
 42
0.625
 43
3.75
 44
1.25
 45
0.0
 46
0.0
 47
0.0
 48
0.0
 49
2.5
140
2.5
141
2.5
142
0.0
143
0.03937007874
144
1.0
145
0.0
146
1.0
147
0.625
148
0.0
 69
0
 70
0
 71
0
 72
0
 73
0
 74
0
 75
0
 76
0
 77
1
 78
8
 79
3
170
0
171
3
172
1
173
0
174
0
175
0
176
0
177
0
178
0
179
2
271
2
272
2
273
2
274
3
275
0
276
0
277
2
278
44
279
0
280
0
281
0
282
0
283
0
284
8
285
0
286
0
288
0
289
3
290
0
371
-2
372
-2
  0
ENDTAB
  0
TABLE
  2
BLOCK_RECORD
  5
9
330
0
100
AcDbSymbolTable
 70
2
  0
BLOCK_RECORD
  5
17
330
9
100
AcDbSymbolTableRecord
100
AcDbBlockTableRecord
  2
*Model_Space
340
1A
 70
0
280
1
281
0
  0
BLOCK_RECORD
  5
1B
330
9
100
AcDbSymbolTableRecord
100
AcDbBlockTableRecord
  2
*Paper_Space
340
1E
 70
0
280
1
281
0
  0
ENDTAB
  0
ENDSEC
  0
SECTION
  2
BLOCKS
  0
BLOCK
  5
18
330
17
100
AcDbEntity
  8
0
100
AcDbBlockBegin
  2
*Model_Space
 70
0
 10
0.0
 20
0.0
 30
0.0
  3
*Model_Space
  1

  0
ENDBLK
  5
19
330
17
100
AcDbEntity
  8
0
100
AcDbBlockEnd
  0
BLOCK
  5
1C
330
1B
100
AcDbEntity
  8
0
100
AcDbBlockBegin
  2
*Paper_Space
 70
0
 10
0.0
 20
0.0
 30
0.0
  3
*Paper_Space
  1

  0
ENDBLK
  5
1D
330
1B
100
AcDbEntity
  8
0
100
AcDbBlockEnd
  0
ENDSEC
  0
SECTION
  2
ENTITIES
  0
LWPOLYLINE
  5
33
330
17
100
AcDbEntity
  8
STOCK_REFERENCE_DO_NOT_CUT
100
AcDbPolyline
 90
4
 70
1
 10
0.0
 20
0.0
 10
1000.0
 20
0.0
 10
1000.0
 20
600.0
 10
0.0
 20
600.0
  0
LWPOLYLINE
  5
34
330
17
100
AcDbEntity
  8
CUT
100
AcDbPolyline
 90
22
 70
1
 10
605.1385
 20
468.24268
 10
605.03
 20
490.31284
 10
607.57452
 20
513.94693
 10
613.18992
 20
539.85933
 10
620.05283
 20
564.46061
 10
624.38677
 20
578.97153
 10
630.668
 20
576.95703
 10
637.0351499999999
 20
574.8517400000001
 10
643.45922
 20
572.59768
 10
649.8942
 20
570.1368
 10
656.29653
 20
567.45525
 10
662.63771
 20
564.5886
 10
656.5506799999999
 20
550.66224
 10
645.87532
 20
527.40486
 10
633.8145499999999
 20
503.95388
 10
621.8003699999999
 20
484.05241
 10
609.7696
 20
466.625
 10
609.02602
 20
467.00873
 10
608.22686
 20
467.2471
 10
607.42135
 20
467.4397
 10
606.63176
 20
467.65924
 10
605.8705299999999
 20
467.93138
  0
TEXT
  5
35
330
17
100
AcDbEntity
  8
MARK
100
AcDbText
 10
625.7236836598006
 20
520.675895
 30
0.0
 40
2.5
  1
FNG2
100
AcDbText
  0
LWPOLYLINE
  5
36
330
17
100
AcDbEntity
  8
CUT
100
AcDbPolyline
 90
22
 70
1
 10
673.1033
 20
466.99018
 10
670.08876
 20
488.0782
 10
668.638
 20
511.36684
 10
668.9081600000001
 20
537.70219
 10
670.1567200000001
 20
563.14845
 10
671.04229
 20
578.24843
 10
677.9742
 20
577.83202
 10
684.8825300000001
 20
577.36609
 10
691.7403400000001
 20
576.78579
 10
698.51266
 20
576.02301
 10
705.16484
 20
575.0525700000001
 10
711.67331
 20
573.89901
 10
708.94615
 20
558.92638
 10
703.66859
 20
533.81862
 10
696.5409500000001
 20
508.24535000000003
 10
687.88973
 20
486.20296
 10
677.9937500000001
 20
466.625
 10
677.2192600000001
 20
466.80359
 10
676.41168
 20
466.81917
 10
675.5928200000001
 20
466.79257
 10
674.76439
 20
466.80308
 10
673.93278
 20
466.87478
  0
TEXT
  5
37
330
17
100
AcDbEntity
  8
MARK
100
AcDbText
 10
684.6464662387957
 20
522.5927300000001
 30
0.0
 40
2.5
  1
FNG3
100
AcDbText
  0
LWPOLYLINE
  5
38
330
17
100
AcDbEntity
  8
CUT
100
AcDbPolyline
 90
22
 70
1
 10
555.07091
 20
467.19954
 10
554.118
 20
489.2585
 10
554.6976000000001
 20
513.04038
 10
556.9870800000001
 20
539.4739
 10
560.0257600000001
 20
564.84306
 10
561.9180100000001
 20
579.86868
 10
568.36674
 20
579.16373
 10
574.7091
 20
578.41409
 10
580.94704
 20
577.5396
 10
587.0771100000001
 20
576.45857
 10
593.0998500000001
 20
575.13729
 10
599.02988
 20
573.59622
 10
595.42917
 20
558.77527
 10
588.6943000000001
 20
533.92577
 10
580.1305400000001
 20
508.59096999999997
 10
570.3454700000001
 20
486.55696
 10
559.54191
 20
466.625
 10
558.8432
 20
466.85818
 10
558.1040700000001
 20
466.9044
 10
557.3560900000001
 20
466.89677
 10
556.5988600000001
 20
466.93169
 10
555.83668
 20
467.03951
  0
TEXT
  5
39
330
17
100
AcDbEntity
  8
MARK
100
AcDbText
 10
570.3832466767481
 20
523.4830750000001
 30
0.0
 40
2.5
  1
FNG4
100
AcDbText
  0
LWPOLYLINE
  5
3A
330
17
100
AcDbEntity
  8
CUT
100
AcDbPolyline
 90
10
 70
1
 10
975.09206
 20
379.65
 10
971.48129
 20
379.65
 10
967.87053
 20
379.65
 10
964.25976
 20
379.65
 10
960.649
 20
379.65
 10
960.649
 20
584.65
 10
964.25976
 20
584.65
 10
967.87053
 20
584.65
 10
971.48129
 20
584.65
 10
975.09206
 20
584.65
  0
TEXT
  5
3B
330
17
100
AcDbEntity
  8
MARK
100
AcDbText
 10
967.8705299999999
 20
482.15
 30
0.0
 40
2.5
  1
SKIN_F13
100
AcDbText
  0
LWPOLYLINE
  5
3C
330
17
100
AcDbEntity
  8
CUT
100
AcDbPolyline
 90
4
 70
1
 10
981.092
 20
584.65
 10
986.3701599999999
 20
584.65
 10
986.3701599999999
 20
379.65
 10
981.092
 20
379.65
  0
TEXT
  5
3D
330
17
100
AcDbEntity
  8
MARK
100
AcDbText
 10
983.73108
 20
482.15
 30
0.0
 40
2.5
  1
SKIN_F14
100
AcDbText
  0
LWPOLYLINE
  5
3E
330
17
100
AcDbEntity
  8
CUT
100
AcDbPolyline
 90
10
 70
1
 10
940.204
 20
584.65
 10
943.8153599999999
 20
584.65
 10
947.4267299999999
 20
584.65
 10
951.0380899999999
 20
584.65
 10
954.64946
 20
584.65
 10
954.64946
 20
379.65
 10
951.0380899999999
 20
379.65
 10
947.4267299999999
 20
379.65
 10
943.8153599999999
 20
379.65
 10
940.204
 20
379.65
  0
TEXT
  5
3F
330
17
100
AcDbEntity
  8
MARK
100
AcDbText
 10
947.4267299999999
 20
482.15
 30
0.0
 40
2.5
  1
SKIN_F15
100
AcDbText
  0
LWPOLYLINE
  5
40
330
17
100
AcDbEntity
  8
CUT
100
AcDbPolyline
 90
10
 70
1
 10
960.649
 20
5.0
 10
960.649
 20
373.65
 10
964.25976
 20
373.65
 10
967.87053
 20
373.65
 10
971.48129
 20
373.65
 10
975.09206
 20
373.65
 10
975.09206
 20
5.0
 10
971.48129
 20
5.0
 10
967.87053
 20
5.0
 10
964.25976
 20
5.0
  0
TEXT
  5
41
330
17
100
AcDbEntity
  8
MARK
100
AcDbText
 10
967.8705299999999
 20
189.325
 30
0.0
 40
2.5
  1
SKIN_F16
100
AcDbText
  0
LWPOLYLINE
  5
42
330
17
100
AcDbEntity
  8
CUT
100
AcDbPolyline
 90
10
 70
1
 10
940.204
 20
5.0
 10
940.204
 20
373.65
 10
943.8153599999999
 20
373.65
 10
947.4267299999999
 20
373.65
 10
951.0380899999999
 20
373.65
 10
954.64946
 20
373.65
 10
954.64946
 20
5.0
 10
951.0380899999999
 20
5.0
 10
947.4267299999999
 20
5.0
 10
943.8153599999999
 20
5.0
  0
TEXT
  5
43
330
17
100
AcDbEntity
  8
MARK
100
AcDbText
 10
947.4267299999999
 20
189.325
 30
0.0
 40
2.5
  1
SKIN_F17
100
AcDbText
  0
LWPOLYLINE
  5
44
330
17
100
AcDbEntity
  8
CUT
100
AcDbPolyline
 90
4
 70
1
 10
986.3701599999999
 20
5.0
 10
981.092
 20
5.0
 10
981.092
 20
373.65
 10
986.3701599999999
 20
373.65
  0
TEXT
  5
45
330
17
100
AcDbEntity
  8
MARK
100
AcDbText
 10
983.73108
 20
189.325
 30
0.0
 40
2.5
  1
SKIN_F18
100
AcDbText
  0
LWPOLYLINE
  5
46
330
17
100
AcDbEntity
  8
CUT
100
AcDbPolyline
 90
122
 70
1
 10
548.1180400000001
 20
569.32858
 10
547.4273400000001
 20
565.80573
 10
547.01653
 20
563.70013
 10
546.75097
 20
562.27563
 10
546.49234
 20
560.7533
 10
546.24805
 20
559.22543
 10
546.02524
 20
557.69073
 10
545.82041
 20
556.14908
 10
545.62492
 20
554.60112
 10
545.44704
 20
553.04477
 10
545.28484
 20
551.47988
 10
545.1278
 20
549.90693
 10
544.97787
 20
548.32597
 10
544.83705
 20
546.73679
 10
544.7063
 20
545.13959
 10
544.58829
 20
543.53402
 10
544.4772800000001
 20
541.91989
 10
544.37564
 20
540.29742
 10
544.2825300000001
 20
538.6665
 10
544.19541
 20
537.02831
 10
544.1201100000001
 20
535.38282
 10
544.04583
 20
533.73144
 10
543.98442
 20
532.07437
 10
543.9392300000001
 20
530.41204
 10
543.90281
 20
528.74617
 10
543.86821
 20
527.07771
 10
543.8399000000001
 20
525.40787
 10
543.81933
 20
523.73719
 10
543.80071
 20
521.45226
 10
543.80822
 20
519.15708
 10
543.81528
 20
517.70581
 10
543.83353
 20
515.98421
 10
543.86521
 20
514.46212
 10
543.90769
 20
512.77192
 10
543.95311
 20
511.14785
 10
544.0029400000001
 20
509.86478
 10
544.05931
 20
508.53239
 10
544.12635
 20
507.1596
 10
544.20322
 20
505.75419999999997
 10
544.29306
 20
504.32419
 10
544.38914
 20
502.876
 10
544.49899
 20
501.41705
 10
544.62255
 20
499.95303
 10
544.76331
 20
498.4902
 10
544.91854
 20
497.03529000000003
 10
545.08479
 20
495.59373
 10
545.29076
 20
494.01583
 10
545.5386
 20
492.30026
 10
545.80951
 20
490.63517
 10
546.07929
 20
489.12165
 10
546.38724
 20
487.51425
 10
546.7038200000001
 20
485.99638
 10
547.13941
 20
484.08514
 10
548.1180400000001
 20
479.92128
 10
537.78551
 20
477.10769
 10
527.41647
 20
474.35355
 10
517.01975
 20
471.7016
 10
506.60029000000003
 20
469.16741
 10
495.68718
 20
466.625
 10
495.16967
 20
469.40263
 10
494.68593000000004
 20
472.19216
 10
494.29599
 20
474.59972
 10
493.87974
 20
477.33554
 10
493.27571
 20
482.03697999999997
 10
493.18238
 20
482.7339
 10
493.10555000000005
 20
483.49583
 10
492.82709
 20
485.94079
 10
492.67656000000005
 20
487.55148
 10
492.13527000000005
 20
493.63552
 10
491.81174000000004
 20
498.5532
 10
491.68412
 20
500.26487
 10
491.66086
 20
500.70766
 10
491.46981000000005
 20
504.66825
 10
491.44161
 20
505.4833
 10
491.33864
 20
508.34418
 10
491.28016
 20
509.82739
 10
491.25976
 20
510.57239
 10
491.24508000000003
 20
512.2453
 10
491.1834
 20
514.96728
 10
491.16700000000003
 20
515.89707
 10
491.15466000000004
 20
516.87513
 10
491.148
 20
518.65154
 10
491.15312
 20
519.05663
 10
491.15059
 20
519.25495
 10
491.14892000000003
 20
519.31141
 10
491.14845
 20
519.34135
 10
491.17585
 20
524.15393
 10
491.18474000000003
 20
524.79341
 10
491.20223000000004
 20
525.29718
 10
491.22450000000003
 20
526.42858
 10
491.27301
 20
529.3646200000001
 10
491.28517000000005
 20
530.02386
 10
491.31313
 20
530.89287
 10
491.41444
 20
534.28113
 10
491.55006000000003
 20
537.72358
 10
491.57877
 20
538.31469
 10
491.66668000000004
 20
540.01317
 10
491.73742000000004
 20
541.45103
 10
491.77119000000005
 20
542.11271
 10
491.85667
 20
543.64784
 10
491.91573000000005
 20
544.59872
 10
492.32915
 20
550.68761
 10
492.38005000000004
 20
551.37693
 10
492.49609000000004
 20
552.81488
 10
492.51172
 20
553.02881
 10
492.7844
 20
556.20646
 10
492.88748000000004
 20
557.38151
 10
493.0772
 20
559.22256
 10
493.41254000000004
 20
562.54651
 10
493.64388
 20
564.63889
 10
494.0509
 20
567.95897
 10
494.21127
 20
569.25514
 10
494.31591000000003
 20
570.02655
 10
494.51746
 20
571.38689
 10
495.03292000000005
 20
574.97659
 10
495.37894
 20
577.16184
 10
495.56599
 20
578.33035
 10
495.94552000000004
 20
580.56191
 10
500.37766000000005
 20
579.66103
 10
511.71129
 20
577.33076
 10
523.02934
 20
574.91174
 10
535.59038
 20
572.16124
  0
TEXT
  5
47
330
17
100
AcDbEntity
  8
MARK
100
AcDbText
 10
517.4884964018884
 20
522.594725
 30
0.0
 40
2.5
  1
SKIN_F30
100
AcDbText
  0
LWPOLYLINE
  5
48
330
17
100
AcDbEntity
  8
CUT
100
AcDbPolyline
 90
139
 70
1
 10
794.5975800000001
 20
435.17826
 10
792.78398
 20
453.74491
 10
867.12018
 20
460.62468
 10
934.20363
 20
25.10729
 10
837.33884
 20
15.66317
 10
784.33235
 20
10.47555
 10
770.40939
 20
9.11112
 10
754.41304
 20
7.54594
 10
742.1078600000001
 20
6.34749
 10
738.21036
 20
5.97097
 10
732.98719
 20
5.47883
 10
732.04916
 20
5.39245
 10
731.40533
 20
5.334
 10
730.8402600000001
 20
5.28499
 10
730.3361500000001
 20
5.24363
 10
729.83676
 20
5.20481
 10
729.38734
 20
5.17115
 10
728.86838
 20
5.13412
 10
728.42361
 20
5.10451
 10
728.00874
 20
5.07859
 10
727.6365000000001
 20
5.05719
 10
727.31946
 20
5.04115
 10
727.0331100000001
 20
5.02874
 10
726.8664100000001
 20
5.02226
 10
726.6932
 20
5.0162
 10
726.5207800000001
 20
5.01058
 10
726.4142300000001
 20
5.00792
 10
726.28009
 20
5.0052
 10
726.14349
 20
5.00298
 10
726.00449
 20
5.00132
 10
725.86312
 20
5.0003
 10
725.7195800000001
 20
5.0
 10
725.57404
 20
5.00051
 10
725.4264900000001
 20
5.00166
 10
725.27677
 20
5.00339
 10
725.12438
 20
5.00551
 10
724.96891
 20
5.00855
 10
724.81005
 20
5.01324
 10
724.6474800000001
 20
5.01855
 10
724.4246800000001
 20
5.02635
 10
724.1655000000001
 20
5.03604
 10
723.8969500000001
 20
5.0468
 10
723.6179500000001
 20
5.05949
 10
723.2281
 20
5.07916
 10
722.7627
 20
5.10507
 10
722.27046
 20
5.13268
 10
721.0235700000001
 20
5.20659
 10
719.89237
 20
5.27596
 10
718.4597
 20
5.36494
 10
717.3929
 20
5.43306
 10
716.3983800000001
 20
5.49989
 10
715.0901
 20
5.59259
 10
713.72405
 20
5.69192
 10
712.22672
 20
5.80313
 10
710.41169
 20
5.93975
 10
708.26692
 20
6.10382
 10
704.9108
 20
6.36609
 10
699.22321
 20
6.81768
 10
692.86775
 20
7.33136
 10
685.66644
 20
7.92046
 10
676.82194
 20
8.65301
 10
668.5256
 20
9.34479
 10
657.43221
 20
10.27503
 10
641.30808
 20
11.62997
 10
624.6037200000001
 20
13.03694
 10
607.47042
 20
14.48331
 10
588.1146
 20
16.11864
 10
568.72137
 20
17.76163
 10
546.1493800000001
 20
19.67277
 10
521.3603800000001
 20
21.77748
 10
506.21087
 20
23.06631
 10
491.148
 20
24.34867
 10
552.18632
 20
460.62468
 10
567.4343200000001
 20
459.30605
 10
582.67487
 20
457.99974
 10
603.7242600000001
 20
456.21005
 10
621.19577
 20
454.74066
 10
637.859
 20
453.36132
 10
652.95762
 20
452.13582
 10
665.55567
 20
451.13495
 10
678.37985
 20
450.12357
 10
685.19906
 20
449.59978
 10
690.33772
 20
449.21535
 10
695.47414
 20
448.83696
 10
700.0234
 20
448.51318
 10
703.4339500000001
 20
448.27558
 10
706.84965
 20
448.04646
 10
709.89831
 20
447.84857
 10
711.9397
 20
447.71982
 10
713.30146
 20
447.63766
 10
714.32018
 20
447.5792
 10
715.22598
 20
447.52975
 10
716.2393500000001
 20
447.47745
 10
716.91789
 20
447.44354
 10
717.5773
 20
447.41265
 10
718.46938
 20
447.37343
 10
719.0113100000001
 20
447.35294
 10
719.41664
 20
447.33758
 10
719.7778800000001
 20
447.32477
 10
720.01993
 20
447.31736
 10
720.20173
 20
447.31258
 10
720.36341
 20
447.30912
 10
720.48481
 20
447.30685
 10
720.60641
 20
447.30489
 10
720.72833
 20
447.30346
 10
720.85032
 20
447.30278
 10
720.9722
 20
447.30259
 10
721.0938100000001
 20
447.30286
 10
721.21513
 20
447.30387
 10
721.3362400000001
 20
447.3056
 10
721.44218
 20
447.30778
 10
721.55966
 20
447.31103
 10
721.70542
 20
447.31574
 10
721.9954
 20
447.32666
 10
722.28346
 20
447.33893
 10
722.57133
 20
447.353
 10
722.89254
 20
447.36973
 10
723.21117
 20
447.38777
 10
723.45052
 20
447.40154
 10
723.68922
 20
447.41662
 10
723.92017
 20
447.43248
 10
724.11042
 20
447.44613
 10
724.3215700000001
 20
447.46227
 10
724.55631
 20
447.48093
 10
724.8459
 20
447.50478
 10
725.13383
 20
447.52926
 10
725.5711200000001
 20
447.56734
 10
727.32971
 20
447.72377
 10
729.0902000000001
 20
447.88256
 10
729.66302
 20
447.93474
 10
730.23612
 20
447.98783
 10
730.81163
 20
448.04112
 10
731.51085
 20
448.105
 10
733.02702
 20
448.24603
 10
734.6729300000001
 20
448.40109
 10
737.5069000000001
 20
448.66229
 10
748.37908
 20
449.66221
 10
770.13638
 20
451.65393
 10
771.91383
 20
432.97892
  0
TEXT
  5
49
330
17
100
AcDbEntity
  8
MARK
100
AcDbText
 10
711.288684152951
 20
229.043105
 30
0.0
 40
2.5
  1
SKIN_WLIN_F01
100
AcDbText
  0
LWPOLYLINE
  5
4A
330
17
100
AcDbEntity
  8
CUT
100
AcDbPolyline
 90
147
 70
1
 10
215.62526
 20
16.14368
 10
214.03229
 20
15.99474
 10
212.4393
 20
15.84583
 10
210.84631
 20
15.69694
 10
210.68326
 20
17.43939
 10
209.58916
 20
29.15248
 10
191.19486
 20
27.42768
 10
192.34643
 20
15.7212
 10
184.06092
 20
14.93975
 10
184.2282
 20
13.19771
 10
179.44891
 20
12.75231
 10
179.83901
 20
8.76725
 10
161.60853
 20
7.10285
 10
152.50886
 20
6.25776
 10
149.75203
 20
5.99893
 10
148.47642
 20
5.87841
 10
147.7866
 20
5.814
 10
147.09276
 20
5.74874
 10
146.39088
 20
5.68356
 10
145.6412
 20
5.61362
 10
144.79189
 20
5.53479
 10
143.12917
 20
5.37997
 10
141.9999
 20
5.27646
 10
141.64394
 20
5.24466
 10
141.28775
 20
5.21329
 10
140.96658
 20
5.18594
 10
140.70704
 20
5.16457
 10
140.52959
 20
5.15048
 10
140.35254
 20
5.13745
 10
140.15637
 20
5.12306
 10
139.90649
 20
5.1068
 10
139.54532
 20
5.08397
 10
139.26725
 20
5.06705
 10
139.09013
 20
5.05716
 10
138.87956
 20
5.04654
 10
138.50827
 20
5.02921
 10
138.28111
 20
5.0194
 10
138.1216
 20
5.01327
 10
138.00296
 20
5.00935
 10
137.8732
 20
5.00581
 10
137.75315
 20
5.00331
 10
137.64525
 20
5.0016
 10
137.53749
 20
5.00052
 10
137.42978
 20
5.00001
 10
137.32202
 20
5.0
 10
137.21421
 20
5.00043
 10
137.10646
 20
5.00123
 10
136.96315
 20
5.00291
 10
136.80234
 20
5.00552
 10
136.64165
 20
5.00869
 10
136.42727
 20
5.01365
 10
136.18577
 20
5.02008
 10
135.8636
 20
5.02924
 10
135.38034
 20
5.04552
 10
134.56335
 20
5.07724
 10
133.83866
 20
5.10645
 10
133.02496
 20
5.143
 10
132.21179
 20
5.18191
 10
131.12706
 20
5.2383
 10
129.90931
 20
5.30435
 10
128.69792
 20
5.37247
 10
124.67579
 20
5.61075
 10
121.05413
 20
5.83683
 10
116.97314
 20
6.09638
 10
112.91332
 20
6.36352
 10
107.52484
 20
6.72708
 10
101.47772
 20
7.14768
 10
95.42888
 20
7.57724
 10
85.84772
 20
8.26582
 10
75.20049
 20
9.04144
 10
60.96279
 20
10.09772
 10
46.71679
 20
11.14443
 10
56.78225
 20
150.74079
 10
66.23132
 20
290.18658
 10
55.00157
 20
290.78534
 10
43.78445
 20
291.49521
 10
25.42435
 20
292.67875
 10
5.0
 20
294.00057
 10
31.95103
 20
519.67685
 10
43.09685
 20
518.93163
 10
54.24283
 20
518.21231
 10
68.60267
 20
517.28742
 10
79.69438
 20
516.56392
 10
89.5513
 20
515.92161
 10
98.55745
 20
515.34464
 10
107.89222
 20
514.76897
 10
111.17625
 20
514.56409
 10
114.46077
 20
514.36705
 10
117.74452
 20
514.16664
 10
120.6634
 20
513.99184
 10
122.85248
 20
513.86249
 10
124.79875
 20
513.75245
 10
126.0964
 20
513.68405
 10
127.06944
 20
513.62896
 10
127.93398
 20
513.57801
 10
128.58278
 20
513.54511
 10
129.23172
 20
513.51432
 10
129.88083
 20
513.48365
 10
130.58166
 20
513.45265
 10
131.86368
 20
513.39978
 10
132.20576
 20
513.38603
 10
132.4338
 20
513.3773
 10
132.60486
 20
513.37115
 10
132.75696
 20
513.36608
 10
132.87104
 20
513.36288
 10
132.98515
 20
513.36029
 10
133.08658
 20
513.35787
 10
133.1626
 20
513.3561
 10
133.2386
 20
513.35447
 10
133.31463
 20
513.35306
 10
133.39072
 20
513.35204
 10
133.46684
 20
513.35145
 10
133.5431
 20
513.35111
 10
133.6196
 20
513.35114
 10
133.69627
 20
513.35149
 10
133.77408
 20
513.35208
 10
133.85292
 20
513.35322
 10
133.9316
 20
513.35474
 10
134.00998
 20
513.35651
 10
134.09678
 20
513.35882
 10
134.20391
 20
513.36221
 10
134.32301
 20
513.36675
 10
134.45534
 20
513.37221
 10
134.59827
 20
513.37867
 10
134.72897
 20
513.38513
 10
134.90318
 20
513.39437
 10
135.11232
 20
513.40618
 10
135.27054
 20
513.41567
 10
135.42863
 20
513.4255
 10
135.5866
 20
513.43549
 10
135.72837
 20
513.44453
 10
135.87015
 20
513.45429
 10
136.10789
 20
513.47098
 10
136.3256
 20
513.48677
 10
136.61571
 20
513.50826
 10
137.24082
 20
513.55441
 10
139.29768
 20
513.71345
 10
140.66902
 20
513.81912
 10
147.97953
 20
514.41453
 10
157.7256
 20
515.2299
 10
170.94031
 20
516.35334
 10
210.63329
 20
519.67685
 10
242.07398
 20
294.71006
 10
204.17264
 20
291.82004
 10
216.18875
 20
152.53734
 10
228.75926
 20
13.11546
 10
216.0141
 20
11.98456
  0
TEXT
  5
4B
330
17
100
AcDbEntity
  8
MARK
100
AcDbText
 10
135.9094044860502
 20
221.36196
 30
0.0
 40
2.5
  1
SKIN_WROUT_F03
100
AcDbText
  0
LWPOLYLINE
  5
4C
330
17
100
AcDbEntity
  8
CUT
100
AcDbPolyline
 90
147
 70
1
 10
471.76813000000004
 20
13.09048
 10
459.02273
 20
11.96235
 10
458.635
 20
16.12158
 10
457.04206
 20
15.97277
 10
455.44906000000003
 20
15.82399
 10
453.85605
 20
15.67529
 10
453.69320000000005
 20
17.41775
 10
452.60016
 20
29.13085
 10
434.20631000000003
 20
27.40782
 10
435.35482
 20
15.7003
 10
427.06798000000003
 20
14.92445
 10
427.23559
 20
13.18244
 10
422.45635000000004
 20
12.73648
 10
422.84399
 20
8.75117
 10
404.61284
 20
7.09454
 10
395.51296
 20
6.25219
 10
392.75602000000003
 20
5.9943
 10
391.48037
 20
5.87425
 10
390.79051000000004
 20
5.81011
 10
390.09665
 20
5.7451
 10
389.39475000000004
 20
5.68018
 10
388.64504
 20
5.61053
 10
387.79568
 20
5.53212
 10
386.13291000000004
 20
5.37791
 10
385.0036
 20
5.27481
 10
384.64763000000005
 20
5.24314
 10
384.29143
 20
5.2119
 10
383.97026000000005
 20
5.18466
 10
383.71071
 20
5.16339
 10
383.53325
 20
5.14936
 10
383.3562
 20
5.1364
 10
383.16002000000003
 20
5.12207
 10
382.91014
 20
5.10591
 10
382.54896
 20
5.0832
 10
382.27088000000003
 20
5.06639
 10
382.09376
 20
5.05656
 10
381.88319
 20
5.04602
 10
381.5119
 20
5.02881
 10
381.28474
 20
5.01909
 10
381.12522
 20
5.01301
 10
381.00658
 20
5.00913
 10
380.87682
 20
5.00564
 10
380.75677
 20
5.00319
 10
380.64887
 20
5.00152
 10
380.54111
 20
5.00047
 10
380.4334
 20
5.0
 10
380.32564
 20
5.00003
 10
380.21783000000005
 20
5.0005
 10
380.11008000000004
 20
5.00133
 10
379.96677999999997
 20
5.00307
 10
379.80597
 20
5.00573
 10
379.64528
 20
5.00896
 10
379.43091000000004
 20
5.01399
 10
379.18941
 20
5.02051
 10
378.86725
 20
5.02979
 10
378.384
 20
5.04624
 10
377.56703000000005
 20
5.07825
 10
376.84237
 20
5.1077
 10
376.02869
 20
5.14454
 10
375.21554000000003
 20
5.18373
 10
374.13085
 20
5.2405
 10
372.91315
 20
5.30699
 10
371.70182
 20
5.37553
 10
367.67988
 20
5.61515
 10
364.05842
 20
5.84246
 10
359.97765000000004
 20
6.10329
 10
355.91803000000004
 20
6.37172
 10
350.52981
 20
6.73695
 10
344.48303
 20
7.1595
 10
338.43452
 20
7.59096
 10
328.85388
 20
8.28224
 10
318.20713
 20
9.06097
 10
303.96999
 20
10.12144
 10
289.72445
 20
11.17109
 10
299.83422
 20
150.75962
 10
309.30543
 20
290.19124
 10
298.07571
 20
290.78641
 10
286.85859
 20
291.4954
 10
268.49842
 20
292.67777
 10
248.074
 20
293.99842
 10
275.01886
 20
519.67566
 10
286.16470000000004
 20
518.93058
 10
297.3107
 20
518.21132
 10
311.67055
 20
517.28651
 10
322.76229
 20
516.5631
 10
332.61925
 20
515.92086
 10
341.62544
 20
515.34393
 10
350.96024
 20
514.76825
 10
354.24429
 20
514.56337
 10
357.52883
 20
514.36632
 10
360.81258
 20
514.16591
 10
363.73148000000003
 20
513.99111
 10
365.92057
 20
513.86175
 10
367.86684
 20
513.75172
 10
369.16450000000003
 20
513.68331
 10
370.13755000000003
 20
513.62821
 10
371.00209
 20
513.57728
 10
371.6509
 20
513.54437
 10
372.29984
 20
513.51357
 10
372.94896
 20
513.4829
 10
373.64979000000005
 20
513.45189
 10
374.93181000000004
 20
513.39902
 10
375.27389000000005
 20
513.38528
 10
375.50193
 20
513.37654
 10
375.67299
 20
513.37039
 10
375.82509000000005
 20
513.36532
 10
375.93917
 20
513.36212
 10
376.05329
 20
513.35953
 10
376.15471
 20
513.35711
 10
376.23073
 20
513.35534
 10
376.30673
 20
513.35371
 10
376.38277000000005
 20
513.3523
 10
376.45885
 20
513.35128
 10
376.53498
 20
513.35068
 10
376.61124
 20
513.35035
 10
376.68773
 20
513.35038
 10
376.76441
 20
513.35073
 10
376.84221
 20
513.35131
 10
376.92105000000004
 20
513.35245
 10
376.99973
 20
513.35397
 10
377.07811000000004
 20
513.35574
 10
377.16492000000005
 20
513.35805
 10
377.27205000000004
 20
513.36144
 10
377.39115000000004
 20
513.36598
 10
377.52347
 20
513.37144
 10
377.66641000000004
 20
513.3779
 10
377.7971
 20
513.38436
 10
377.97131
 20
513.3936
 10
378.18046000000004
 20
513.40541
 10
378.33867
 20
513.4149
 10
378.49677
 20
513.42473
 10
378.65474
 20
513.43471
 10
378.79651
 20
513.44375
 10
378.93828
 20
513.45351
 10
379.17603
 20
513.4702
 10
379.39374
 20
513.48598
 10
379.68384000000003
 20
513.50748
 10
380.30896
 20
513.55362
 10
382.36582
 20
513.71264
 10
383.73716
 20
513.81831
 10
391.04768
 20
514.41367
 10
400.79375000000005
 20
515.22896
 10
414.00846
 20
516.35231
 10
453.70147
 20
519.67566
 10
485.14798
 20
294.70937
 10
447.24737000000005
 20
291.81466
 10
459.24181
 20
152.51794
  0
TEXT
  5
4D
330
17
100
AcDbEntity
  8
MARK
100
AcDbText
 10
378.9720139785394
 20
221.35459
 30
0.0
 40
2.5
  1
SKIN_WLOUT_F04
100
AcDbText
  0
ENDSEC
  0
SECTION
  2
OBJECTS
  0
DICTIONARY
  5
A
330
0
100
AcDbDictionary
281
1
  3
ACAD_COLOR
350
B
  3
ACAD_GROUP
350
C
  3
ACAD_LAYOUT
350
D
  3
ACAD_MATERIAL
350
E
  3
ACAD_MLEADERSTYLE
350
F
  3
ACAD_MLINESTYLE
350
10
  3
ACAD_PLOTSETTINGS
350
11
  3
ACAD_PLOTSTYLENAME
350
12
  3
ACAD_SCALELIST
350
14
  3
ACAD_TABLESTYLE
350
15
  3
ACAD_VISUALSTYLE
350
16
  3
EZDXF_META
350
2D
  0
DICTIONARY
  5
B
330
A
100
AcDbDictionary
281
1
  0
DICTIONARY
  5
C
330
A
100
AcDbDictionary
281
1
  0
DICTIONARY
  5
D
330
A
100
AcDbDictionary
281
1
  3
Model
350
1A
  3
Layout1
350
1E
  0
DICTIONARY
  5
E
330
A
100
AcDbDictionary
281
1
  3
ByBlock
350
1F
  3
ByLayer
350
20
  3
Global
350
21
  0
DICTIONARY
  5
F
330
A
100
AcDbDictionary
281
1
  3
Standard
350
2C
  0
DICTIONARY
  5
10
330
A
100
AcDbDictionary
281
1
  3
Standard
350
22
  0
DICTIONARY
  5
11
330
A
100
AcDbDictionary
281
1
  0
ACDBDICTIONARYWDFLT
  5
12
330
A
100
AcDbDictionary
281
1
  3
Normal
350
13
100
AcDbDictionaryWithDefault
340
13
  0
ACDBPLACEHOLDER
  5
13
330
12
  0
DICTIONARY
  5
14
330
A
100
AcDbDictionary
281
1
  0
DICTIONARY
  5
15
330
A
100
AcDbDictionary
281
1
  0
DICTIONARY
  5
16
330
A
100
AcDbDictionary
281
1
  0
LAYOUT
  5
1A
330
D
100
AcDbPlotSettings
  1

  4
A3
  6

 40
7.5
 41
20.0
 42
7.5
 43
20.0
 44
420.0
 45
297.0
 46
0.0
 47
0.0
 48
0.0
 49
0.0
140
0.0
141
0.0
142
1.0
143
1.0
 70
1024
 72
1
 73
0
 74
5
  7

 75
16
 76
0
 77
2
 78
300
147
1.0
148
0.0
149
0.0
100
AcDbLayout
  1
Model
 70
1
 71
0
 10
0.0
 20
0.0
 11
420.0
 21
297.0
 12
0.0
 22
0.0
 32
0.0
 14
1e+20
 24
1e+20
 34
1e+20
 15
-1e+20
 25
-1e+20
 35
-1e+20
146
0.0
 13
0.0
 23
0.0
 33
0.0
 16
1.0
 26
0.0
 36
0.0
 17
0.0
 27
1.0
 37
0.0
 76
1
330
17
  0
LAYOUT
  5
1E
330
D
100
AcDbPlotSettings
  1

  4
A3
  6

 40
7.5
 41
20.0
 42
7.5
 43
20.0
 44
420.0
 45
297.0
 46
0.0
 47
0.0
 48
0.0
 49
0.0
140
0.0
141
0.0
142
1.0
143
1.0
 70
0
 72
1
 73
0
 74
5
  7

 75
16
 76
0
 77
2
 78
300
147
1.0
148
0.0
149
0.0
100
AcDbLayout
  1
Layout1
 70
1
 71
1
 10
0.0
 20
0.0
 11
420.0
 21
297.0
 12
0.0
 22
0.0
 32
0.0
 14
1e+20
 24
1e+20
 34
1e+20
 15
-1e+20
 25
-1e+20
 35
-1e+20
146
0.0
 13
0.0
 23
0.0
 33
0.0
 16
1.0
 26
0.0
 36
0.0
 17
0.0
 27
1.0
 37
0.0
 76
1
330
1B
  0
MATERIAL
  5
1F
102
{ACAD_REACTORS
330
E
102
}
330
E
100
AcDbMaterial
  1
ByBlock
  2

 70
0
 40
1.0
 71
1
 41
1.0
 91
-1023410177
 42
1.0
 72
1
  3

 73
1
 74
1
 75
1
 44
0.5
 73
0
 45
1.0
 46
1.0
 77
1
  4

 78
1
 79
1
170
1
 48
1.0
171
1
  6

172
1
173
1
174
1
140
1.0
141
1.0
175
1
  7

176
1
177
1
178
1
143
1.0
179
1
  8

270
1
271
1
272
1
145
1.0
146
1.0
273
1
  9

274
1
275
1
276
1
 42
1.0
 72
1
  3

 73
1
 74
1
 75
1
 94
63
  0
MATERIAL
  5
20
102
{ACAD_REACTORS
330
E
102
}
330
E
100
AcDbMaterial
  1
ByLayer
  2

 70
0
 40
1.0
 71
1
 41
1.0
 91
-1023410177
 42
1.0
 72
1
  3

 73
1
 74
1
 75
1
 44
0.5
 73
0
 45
1.0
 46
1.0
 77
1
  4

 78
1
 79
1
170
1
 48
1.0
171
1
  6

172
1
173
1
174
1
140
1.0
141
1.0
175
1
  7

176
1
177
1
178
1
143
1.0
179
1
  8

270
1
271
1
272
1
145
1.0
146
1.0
273
1
  9

274
1
275
1
276
1
 42
1.0
 72
1
  3

 73
1
 74
1
 75
1
 94
63
  0
MATERIAL
  5
21
102
{ACAD_REACTORS
330
E
102
}
330
E
100
AcDbMaterial
  1
Global
  2

 70
0
 40
1.0
 71
1
 41
1.0
 91
-1023410177
 42
1.0
 72
1
  3

 73
1
 74
1
 75
1
 44
0.5
 73
0
 45
1.0
 46
1.0
 77
1
  4

 78
1
 79
1
170
1
 48
1.0
171
1
  6

172
1
173
1
174
1
140
1.0
141
1.0
175
1
  7

176
1
177
1
178
1
143
1.0
179
1
  8

270
1
271
1
272
1
145
1.0
146
1.0
273
1
  9

274
1
275
1
276
1
 42
1.0
 72
1
  3

 73
1
 74
1
 75
1
 94
63
  0
MLINESTYLE
  5
22
102
{ACAD_REACTORS
330
10
102
}
330
10
100
AcDbMlineStyle
  2
Standard
 70
0
  3

 62
256
 51
90.0
 52
90.0
 71
2
 49
0.5
 62
256
  6
BYLAYER
 49
-0.5
 62
256
  6
BYLAYER
  0
MLEADERSTYLE
  5
2C
102
{ACAD_REACTORS
330
F
102
}
330
F
100
AcDbMLeaderStyle
179
2
170
2
171
1
172
0
 90
2
 40
0.0
 41
0.0
173
1
 91
-1056964608
 92
-2
290
1
 42
2.0
291
1
 43
8.0
  3
Standard
 44
4.0
300

342
29
174
1
175
1
176
0
178
1
 93
-1056964608
 45
4.0
292
0
297
0
 46
4.0
 94
-1056964608
 47
1.0
 49
1.0
140
1.0
294
1
141
0.0
177
0
142
1.0
295
0
296
0
143
3.75
271
0
272
9
273
9
  0
DICTIONARY
  5
2D
330
A
100
AcDbDictionary
280
1
281
1
  3
CREATED_BY_EZDXF
350
2E
  3
WRITTEN_BY_EZDXF
350
50
  0
DICTIONARYVAR
  5
2E
330
2D
100
DictionaryVariables
280
0
  1
1.4.4 @ 2026-09-23T14:44:12.748850+00:00
  0
DICTIONARYVAR
  5
50
330
2D
100
DictionaryVariables
280
0
  1
1.4.4 @ 2026-09-23T14:44:12.840182+00:00
  0
ENDSEC
  0
EOF
