  0
SECTION
  2
HEADER
  9
$ACADVER
  1
AC1024
  9
$ACADMAINTVER
 70
6
  9
$DWGCODEPAGE
  3
ANSI_1252
  9
$LASTSAVEDBY
  1
ezdxf
  9
$INSBASE
 10
0.0
 20
0.0
 30
0.0
  9
$EXTMIN
 10
1e+20
 20
1e+20
 30
1e+20
  9
$EXTMAX
 10
-1e+20
 20
-1e+20
 30
-1e+20
  9
$LIMMIN
 10
0.0
 20
0.0
  9
$LIMMAX
 10
420.0
 20
297.0
  9
$ORTHOMODE
 70
0
  9
$REGENMODE
 70
1
  9
$FILLMODE
 70
1
  9
$QTEXTMODE
 70
0
  9
$MIRRTEXT
 70
1
  9
$LTSCALE
 40
1.0
  9
$ATTMODE
 70
1
  9
$TEXTSIZE
 40
2.5
  9
$TRACEWID
 40
1.0
  9
$TEXTSTYLE
  7
Standard
  9
$CLAYER
  8
0
  9
$CELTYPE
  6
ByLayer
  9
$CECOLOR
 62
256
  9
$CELTSCALE
 40
1.0
  9
$DISPSILH
 70
0
  9
$DIMSCALE
 40
1.0
  9
$DIMASZ
 40
2.5
  9
$DIMEXO
 40
0.625
  9
$DIMDLI
 40
3.75
  9
$DIMRND
 40
0.0
  9
$DIMDLE
 40
0.0
  9
$DIMEXE
 40
1.25
  9
$DIMTP
 40
0.0
  9
$DIMTM
 40
0.0
  9
$DIMTXT
 40
2.5
  9
$DIMCEN
 40
2.5
  9
$DIMTSZ
 40
0.0
  9
$DIMTOL
 70
0
  9
$DIMLIM
 70
0
  9
$DIMTIH
 70
0
  9
$DIMTOH
 70
0
  9
$DIMSE1
 70
0
  9
$DIMSE2
 70
0
  9
$DIMTAD
 70
1
  9
$DIMZIN
 70
8
  9
$DIMBLK
  1

  9
$DIMASO
 70
1
  9
$DIMSHO
 70
1
  9
$DIMPOST
  1

  9
$DIMAPOST
  1

  9
$DIMALT
 70
0
  9
$DIMALTD
 70
3
  9
$DIMALTF
 40
0.03937007874
  9
$DIMLFAC
 40
1.0
  9
$DIMTOFL
 70
1
  9
$DIMTVP
 40
0.0
  9
$DIMTIX
 70
0
  9
$DIMSOXD
 70
0
  9
$DIMSAH
 70
0
  9
$DIMBLK1
  1

  9
$DIMBLK2
  1

  9
$DIMSTYLE
  2
ISO-25
  9
$DIMCLRD
 70
0
  9
$DIMCLRE
 70
0
  9
$DIMCLRT
 70
0
  9
$DIMTFAC
 40
1.0
  9
$DIMGAP
 40
0.625
  9
$DIMJUST
 70
0
  9
$DIMSD1
 70
0
  9
$DIMSD2
 70
0
  9
$DIMTOLJ
 70
0
  9
$DIMTZIN
 70
8
  9
$DIMALTZ
 70
0
  9
$DIMALTTZ
 70
0
  9
$DIMUPT
 70
0
  9
$DIMDEC
 70
2
  9
$DIMTDEC
 70
2
  9
$DIMALTU
 70
2
  9
$DIMALTTD
 70
3
  9
$DIMTXSTY
  7
Standard
  9
$DIMAUNIT
 70
0
  9
$DIMADEC
 70
0
  9
$DIMALTRND
 40
0.0
  9
$DIMAZIN
 70
0
  9
$DIMDSEP
 70
44
  9
$DIMATFIT
 70
3
  9
$DIMFRAC
 70
0
  9
$DIMLDRBLK
  1

  9
$DIMLUNIT
 70
2
  9
$DIMLWD
 70
-2
  9
$DIMLWE
 70
-2
  9
$DIMTMOVE
 70
0
  9
$DIMFXL
 40
1.0
  9
$DIMFXLON
 70
0
  9
$DIMJOGANG
 40
0.785398163397
  9
$DIMTFILL
 70
0
  9
$DIMTFILLCLR
 70
0
  9
$DIMARCSYM
 70
0
  9
$DIMLTYPE
  6

  9
$DIMLTEX1
  6

  9
$DIMLTEX2
  6

  9
$DIMTXTDIRECTION
 70
0
  9
$LUNITS
 70
2
  9
$LUPREC
 70
4
  9
$SKETCHINC
 40
1.0
  9
$FILLETRAD
 40
10.0
  9
$AUNITS
 70
0
  9
$AUPREC
 70
2
  9
$MENU
  1
.
  9
$ELEVATION
 40
0.0
  9
$PELEVATION
 40
0.0
  9
$THICKNESS
 40
0.0
  9
$LIMCHECK
 70
0
  9
$CHAMFERA
 40
0.0
  9
$CHAMFERB
 40
0.0
  9
$CHAMFERC
 40
0.0
  9
$CHAMFERD
 40
0.0
  9
$SKPOLY
 70
0
  9
$TDCREATE
 40
2461307.8431944447
  9
$TDUCREATE
 40
2458532.153996898
  9
$TDUPDATE
 40
2461307.8431944447
  9
$TDUUPDATE
 40
2458532.1544311
  9
$TDINDWG
 40
0.0
  9
$TDUSRTIMER
 40
0.0
  9
$USRTIMER
 70
1
  9
$ANGBASE
 50
0.0
  9
$ANGDIR
 70
0
  9
$PDMODE
 70
0
  9
$PDSIZE
 40
0.0
  9
$PLINEWID
 40
0.0
  9
$SPLFRAME
 70
0
  9
$SPLINETYPE
 70
6
  9
$SPLINESEGS
 70
8
  9
$HANDSEED
  5
5B
  9
$SURFTAB1
 70
6
  9
$SURFTAB2
 70
6
  9
$SURFTYPE
 70
6
  9
$SURFU
 70
6
  9
$SURFV
 70
6
  9
$UCSBASE
  2

  9
$UCSNAME
  2

  9
$UCSORG
 10
0.0
 20
0.0
 30
0.0
  9
$UCSXDIR
 10
1.0
 20
0.0
 30
0.0
  9
$UCSYDIR
 10
0.0
 20
1.0
 30
0.0
  9
$UCSORTHOREF
  2

  9
$UCSORTHOVIEW
 70
0
  9
$UCSORGTOP
 10
0.0
 20
0.0
 30
0.0
  9
$UCSORGBOTTOM
 10
0.0
 20
0.0
 30
0.0
  9
$UCSORGLEFT
 10
0.0
 20
0.0
 30
0.0
  9
$UCSORGRIGHT
 10
0.0
 20
0.0
 30
0.0
  9
$UCSORGFRONT
 10
0.0
 20
0.0
 30
0.0
  9
$UCSORGBACK
 10
0.0
 20
0.0
 30
0.0
  9
$PUCSBASE
  2

  9
$PUCSNAME
  2

  9
$PUCSORG
 10
0.0
 20
0.0
 30
0.0
  9
$PUCSXDIR
 10
1.0
 20
0.0
 30
0.0
  9
$PUCSYDIR
 10
0.0
 20
1.0
 30
0.0
  9
$PUCSORTHOREF
  2

  9
$PUCSORTHOVIEW
 70
0
  9
$PUCSORGTOP
 10
0.0
 20
0.0
 30
0.0
  9
$PUCSORGBOTTOM
 10
0.0
 20
0.0
 30
0.0
  9
$PUCSORGLEFT
 10
0.0
 20
0.0
 30
0.0
  9
$PUCSORGRIGHT
 10
0.0
 20
0.0
 30
0.0
  9
$PUCSORGFRONT
 10
0.0
 20
0.0
 30
0.0
  9
$PUCSORGBACK
 10
0.0
 20
0.0
 30
0.0
  9
$USERI1
 70
0
  9
$USERI2
 70
0
  9
$USERI3
 70
0
  9
$USERI4
 70
0
  9
$USERI5
 70
0
  9
$USERR1
 40
0.0
  9
$USERR2
 40
0.0
  9
$USERR3
 40
0.0
  9
$USERR4
 40
0.0
  9
$USERR5
 40
0.0
  9
$WORLDVIEW
 70
1
  9
$SHADEDGE
 70
3
  9
$SHADEDIF
 70
70
  9
$TILEMODE
 70
1
  9
$MAXACTVP
 70
64
  9
$PINSBASE
 10
0.0
 20
0.0
 30
0.0
  9
$PLIMCHECK
 70
0
  9
$PEXTMIN
 10
1e+20
 20
1e+20
 30
1e+20
  9
$PEXTMAX
 10
-1e+20
 20
-1e+20
 30
-1e+20
  9
$PLIMMIN
 10
0.0
 20
0.0
  9
$PLIMMAX
 10
420.0
 20
297.0
  9
$UNITMODE
 70
0
  9
$VISRETAIN
 70
1
  9
$PLINEGEN
 70
0
  9
$PSLTSCALE
 70
1
  9
$TREEDEPTH
 70
3020
  9
$CMLSTYLE
  2
Standard
  9
$CMLJUST
 70
0
  9
$CMLSCALE
 40
20.0
  9
$PROXYGRAPHICS
 70
1
  9
$MEASUREMENT
 70
1
  9
$CELWEIGHT
370
-1
  9
$ENDCAPS
280
0
  9
$JOINSTYLE
280
0
  9
$LWDISPLAY
290
0
  9
$INSUNITS
 70
4
  9
$HYPERLINKBASE
  1

  9
$STYLESHEET
  1

  9
$XEDIT
290
1
  9
$CEPSNTYPE
380
0
  9
$PSTYLEMODE
290
1
  9
$FINGERPRINTGUID
  2
{9521C636-21C9-4223-BC9E-D18A2265D353}
  9
$VERSIONGUID
  2
{274DFD8D-A78D-4317-AEC5-A58E49FB29F2}
  9
$EXTNAMES
290
1
  9
$PSVPSCALE
 40
0.0
  9
$OLESTARTUP
290
0
  9
$SORTENTS
280
127
  9
$INDEXCTL
280
0
  9
$HIDETEXT
280
1
  9
$XCLIPFRAME
280
1
  9
$HALOGAP
280
0
  9
$OBSCOLOR
 70
257
  9
$OBSLTYPE
280
0
  9
$INTERSECTIONDISPLAY
280
0
  9
$INTERSECTIONCOLOR
 70
257
  9
$DIMASSOC
280
2
  9
$PROJECTNAME
  1

  9
$CAMERADISPLAY
290
0
  9
$LENSLENGTH
 40
50.0
  9
$CAMERAHEIGHT
 40
0.0
  9
$STEPSPERSEC
 40
24.0
  9
$STEPSIZE
 40
100.0
  9
$3DDWFPREC
 40
2.0
  9
$PSOLWIDTH
 40
0.005
  9
$PSOLHEIGHT
 40
0.08
  9
$LOFTANG1
 40
1.570796326795
  9
$LOFTANG2
 40
1.570796326795
  9
$LOFTMAG1
 40
0.0
  9
$LOFTMAG2
 40
0.0
  9
$LOFTPARAM
 70
7
  9
$LOFTNORMALS
280
1
  9
$LATITUDE
 40
37.795
  9
$LONGITUDE
 40
-122.394
  9
$NORTHDIRECTION
 40
0.0
  9
$TIMEZONE
 70
-8000
  9
$LIGHTGLYPHDISPLAY
280
1
  9
$TILEMODELIGHTSYNCH
280
1
  9
$CMATERIAL
347
20
  9
$SOLIDHIST
280
0
  9
$SHOWHIST
280
1
  9
$DWFFRAME
280
2
  9
$DGNFRAME
280
2
  9
$REALWORLDSCALE
290
1
  9
$INTERFERECOLOR
 62
256
  9
$CSHADOW
280
0
  9
$SHADOWPLANELOCATION
 40
0.0
  0
ENDSEC
  0
SECTION
  2
CLASSES
  0
CLASS
  1
ACDBDICTIONARYWDFLT
  2
AcDbDictionaryWithDefault
  3
ObjectDBX Classes
 90
0
 91
0
280
0
281
0
  0
CLASS
  1
SUN
  2
AcDbSun
  3
SCENEOE
 90
1153
 91
0
280
0
281
0
  0
CLASS
  1
VISUALSTYLE
  2
AcDbVisualStyle
  3
ObjectDBX Classes
 90
4095
 91
0
280
0
281
0
  0
CLASS
  1
MATERIAL
  2
AcDbMaterial
  3
ObjectDBX Classes
 90
1153
 91
0
280
0
281
0
  0
CLASS
  1
SCALE
  2
AcDbScale
  3
ObjectDBX Classes
 90
1153
 91
0
280
0
281
0
  0
CLASS
  1
TABLESTYLE
  2
AcDbTableStyle
  3
ObjectDBX Classes
 90
4095
 91
0
280
0
281
0
  0
CLASS
  1
MLEADERSTYLE
  2
AcDbMLeaderStyle
  3
ACDB_MLEADERSTYLE_CLASS
 90
4095
 91
0
280
0
281
0
  0
CLASS
  1
DICTIONARYVAR
  2
AcDbDictionaryVar
  3
ObjectDBX Classes
 90
0
 91
0
280
0
281
0
  0
CLASS
  1
CELLSTYLEMAP
  2
AcDbCellStyleMap
  3
ObjectDBX Classes
 90
1152
 91
0
280
0
281
0
  0
CLASS
  1
MENTALRAYRENDERSETTINGS
  2
AcDbMentalRayRenderSettings
  3
SCENEOE
 90
1024
 91
0
280
0
281
0
  0
CLASS
  1
ACDBDETAILVIEWSTYLE
  2
AcDbDetailViewStyle
  3
ObjectDBX Classes
 90
1025
 91
0
280
0
281
0
  0
CLASS
  1
ACDBSECTIONVIEWSTYLE
  2
AcDbSectionViewStyle
  3
ObjectDBX Classes
 90
1025
 91
0
280
0
281
0
  0
CLASS
  1
RASTERVARIABLES
  2
AcDbRasterVariables
  3
ISM
 90
0
 91
0
280
0
281
0
  0
CLASS
  1
ACDBPLACEHOLDER
  2
AcDbPlaceHolder
  3
ObjectDBX Classes
 90
0
 91
0
280
0
281
0
  0
CLASS
  1
LAYOUT
  2
AcDbLayout
  3
ObjectDBX Classes
 90
0
 91
0
280
0
281
0
  0
ENDSEC
  0
SECTION
  2
TABLES
  0
TABLE
  2
VPORT
  5
8
330
0
100
AcDbSymbolTable
 70
1
  0
VPORT
  5
23
330
8
100
AcDbSymbolTableRecord
100
AcDbViewportTableRecord
  2
*Active
 70
0
 10
0.0
 20
0.0
 11
1.0
 21
1.0
 12
0.0
 22
0.0
 13
0.0
 23
0.0
 14
0.5
 24
0.5
 15
0.5
 25
0.5
 16
0.0
 26
0.0
 36
1.0
 17
0.0
 27
0.0
 37
0.0
 40
1000.0
 41
1.34
 42
50.0
 43
0.0
 44
0.0
 50
0.0
 51
0.0
 71
0
 72
1000
 73
1
 74
3
 75
0
 76
0
 77
0
 78
0
281
0
 65
0
146
0.0
  0
ENDTAB
  0
TABLE
  2
LTYPE
  5
2
330
0
100
AcDbSymbolTable
 70
3
  0
LTYPE
  5
24
330
2
100
AcDbSymbolTableRecord
100
AcDbLinetypeTableRecord
  2
ByBlock
 70
0
  3

 72
65
 73
0
 40
0.0
  0
LTYPE
  5
25
330
2
100
AcDbSymbolTableRecord
100
AcDbLinetypeTableRecord
  2
ByLayer
 70
0
  3

 72
65
 73
0
 40
0.0
  0
LTYPE
  5
26
330
2
100
AcDbSymbolTableRecord
100
AcDbLinetypeTableRecord
  2
Continuous
 70
0
  3

 72
65
 73
0
 40
0.0
  0
ENDTAB
  0
TABLE
  2
LAYER
  5
1
330
0
100
AcDbSymbolTable
 70
6
  0
LAYER
  5
27
330
1
100
AcDbSymbolTableRecord
100
AcDbLayerTableRecord
  2
0
 70
0
 62
7
  6
Continuous
370
-3
390
13
347
21
  0
LAYER
  5
28
330
1
100
AcDbSymbolTableRecord
100
AcDbLayerTableRecord
  2
Defpoints
 70
0
 62
7
  6
Continuous
290
0
370
-3
390
13
347
21
  0
LAYER
  5
2F
330
1
100
AcDbSymbolTableRecord
100
AcDbLayerTableRecord
  2
CUT
 70
0
 62
7
  6
Continuous
370
-3
390
13
347
21
  0
LAYER
  5
30
330
1
100
AcDbSymbolTableRecord
100
AcDbLayerTableRecord
  2
MARK
 70
0
 62
3
  6
Continuous
370
-3
390
13
347
21
  0
LAYER
  5
31
330
1
100
AcDbSymbolTableRecord
100
AcDbLayerTableRecord
  2
BEVEL_REFERENCE_DO_NOT_CUT
 70
0
 62
30
  6
Continuous
370
-3
390
13
347
21
  0
LAYER
  5
32
330
1
100
AcDbSymbolTableRecord
100
AcDbLayerTableRecord
  2
STOCK_REFERENCE_DO_NOT_CUT
 70
0
 62
8
  6
Continuous
370
-3
390
13
347
21
  0
ENDTAB
  0
TABLE
  2
STYLE
  5
5
330
0
100
AcDbSymbolTable
 70
1
  0
STYLE
  5
29
330
5
100
AcDbSymbolTableRecord
100
AcDbTextStyleTableRecord
  2
Standard
 70
0
 40
0.0
 41
1.0
 50
0.0
 71
0
 42
2.5
  3
txt
  4

  0
ENDTAB
  0
TABLE
  2
VIEW
  5
7
330
0
100
AcDbSymbolTable
 70
0
  0
ENDTAB
  0
TABLE
  2
UCS
  5
6
330
0
100
AcDbSymbolTable
 70
0
  0
ENDTAB
  0
TABLE
  2
APPID
  5
3
330
0
100
AcDbSymbolTable
 70
3
  0
APPID
  5
2A
330
3
100
AcDbSymbolTableRecord
100
AcDbRegAppTableRecord
  2
ACAD
 70
0
  0
APPID
  5
58
330
3
100
AcDbSymbolTableRecord
100
AcDbRegAppTableRecord
  2
HATCHBACKGROUNDCOLOR
 70
0
  0
APPID
  5
59
330
3
100
AcDbSymbolTableRecord
100
AcDbRegAppTableRecord
  2
EZDXF
 70
0
  0
ENDTAB
  0
TABLE
  2
DIMSTYLE
  5
4
330
0
100
AcDbSymbolTable
 70
1
100
AcDbDimStyleTable
  0
DIMSTYLE
105
2B
330
4
100
AcDbSymbolTableRecord
100
AcDbDimStyleTableRecord
  2
Standard
 70
0
 40
1.0
 41
2.5
 42
0.625
 43
3.75
 44
1.25
 45
0.0
 46
0.0
 47
0.0
 48
0.0
 49
2.5
140
2.5
141
2.5
142
0.0
143
0.03937007874
144
1.0
145
0.0
146
1.0
147
0.625
148
0.0
 69
0
 70
0
 71
0
 72
0
 73
0
 74
0
 75
0
 76
0
 77
1
 78
8
 79
3
170
0
171
3
172
1
173
0
174
0
175
0
176
0
177
0
178
0
179
2
271
2
272
2
273
2
274
3
275
0
276
0
277
2
278
44
279
0
280
0
281
0
282
0
283
0
284
8
285
0
286
0
288
0
289
3
290
0
371
-2
372
-2
  0
ENDTAB
  0
TABLE
  2
BLOCK_RECORD
  5
9
330
0
100
AcDbSymbolTable
 70
2
  0
BLOCK_RECORD
  5
17
330
9
100
AcDbSymbolTableRecord
100
AcDbBlockTableRecord
  2
*Model_Space
340
1A
 70
0
280
1
281
0
  0
BLOCK_RECORD
  5
1B
330
9
100
AcDbSymbolTableRecord
100
AcDbBlockTableRecord
  2
*Paper_Space
340
1E
 70
0
280
1
281
0
  0
ENDTAB
  0
ENDSEC
  0
SECTION
  2
BLOCKS
  0
BLOCK
  5
18
330
17
100
AcDbEntity
  8
0
100
AcDbBlockBegin
  2
*Model_Space
 70
0
 10
0.0
 20
0.0
 30
0.0
  3
*Model_Space
  1

  0
ENDBLK
  5
19
330
17
100
AcDbEntity
  8
0
100
AcDbBlockEnd
  0
BLOCK
  5
1C
330
1B
100
AcDbEntity
  8
0
100
AcDbBlockBegin
  2
*Paper_Space
 70
0
 10
0.0
 20
0.0
 30
0.0
  3
*Paper_Space
  1

  0
ENDBLK
  5
1D
330
1B
100
AcDbEntity
  8
0
100
AcDbBlockEnd
  0
ENDSEC
  0
SECTION
  2
ENTITIES
  0
LWPOLYLINE
  5
33
330
17
100
AcDbEntity
  8
STOCK_REFERENCE_DO_NOT_CUT
100
AcDbPolyline
 90
4
 70
1
 10
0.0
 20
0.0
 10
1000.0
 20
0.0
 10
1000.0
 20
600.0
 10
0.0
 20
600.0
  0
LWPOLYLINE
  5
34
330
17
100
AcDbEntity
  8
CUT
100
AcDbPolyline
 90
22
 70
1
 10
949.04555
 20
204.88187
 10
947.123
 20
227.62385
 10
947.53285
 20
251.84051
 10
950.59987
 20
278.37421
 10
954.92192
 20
303.62203999999997
 10
957.7105700000001
 20
318.52605
 10
963.7164200000001
 20
317.38583
 10
969.74498
 20
316.17172
 10
975.8099900000001
 20
314.80233
 10
981.9080700000001
 20
313.19618
 10
988.03164
 20
311.32235000000003
 10
994.18023
 20
309.20694000000003
 10
989.7034100000001
 20
294.64885000000004
 10
981.74459
 20
270.23503
 10
972.51845
 20
245.3237
 10
963.07712
 20
223.60382
 10
953.44644
 20
203.894
 10
952.7259
 20
204.19701
 10
951.96748
 20
204.32472
 10
951.21289
 20
204.39399
 10
950.47158
 20
204.49562
 10
949.74963
 20
204.66339
  0
TEXT
  5
35
330
17
100
AcDbEntity
  8
MARK
100
AcDbText
 10
963.4671289603984
 20
261.03777
 30
0.0
 40
2.5
  1
FNG1
100
AcDbText
  0
LWPOLYLINE
  5
36
330
17
100
AcDbEntity
  8
CUT
100
AcDbPolyline
 90
32
 70
1
 10
454.055
 20
584.65
 10
458.16357
 20
584.65
 10
462.27214000000004
 20
584.65
 10
466.38071
 20
584.65
 10
470.48929
 20
584.65
 10
474.59786
 20
584.65
 10
478.70643
 20
584.65
 10
482.815
 20
584.65
 10
486.92357
 20
584.65
 10
491.03214
 20
584.65
 10
495.14071
 20
584.65
 10
499.24929000000003
 20
584.65
 10
503.35786
 20
584.65
 10
507.46643
 20
584.65
 10
511.575
 20
584.65
 10
515.68357
 20
584.65
 10
515.68357
 20
379.65
 10
511.575
 20
379.65
 10
507.46643
 20
379.65
 10
503.35786
 20
379.65
 10
499.24929000000003
 20
379.65
 10
495.14071
 20
379.65
 10
491.03214
 20
379.65
 10
486.92357
 20
379.65
 10
482.815
 20
379.65
 10
478.70643
 20
379.65
 10
474.59786
 20
379.65
 10
470.48929
 20
379.65
 10
466.38071
 20
379.65
 10
462.27214000000004
 20
379.65
 10
458.16357
 20
379.65
 10
454.055
 20
379.65
  0
TEXT
  5
37
330
17
100
AcDbEntity
  8
MARK
100
AcDbText
 10
484.869285
 20
482.15
 30
0.0
 40
2.5
  1
SKIN_F09
100
AcDbText
  0
LWPOLYLINE
  5
38
330
17
100
AcDbEntity
  8
CUT
100
AcDbPolyline
 90
32
 70
1
 10
521.683
 20
584.65
 10
525.79157
 20
584.65
 10
529.90014
 20
584.65
 10
534.00871
 20
584.65
 10
538.11729
 20
584.65
 10
542.22586
 20
584.65
 10
546.33443
 20
584.65
 10
550.443
 20
584.65
 10
554.55157
 20
584.65
 10
558.66014
 20
584.65
 10
562.7687099999999
 20
584.65
 10
566.87729
 20
584.65
 10
570.98586
 20
584.65
 10
575.09443
 20
584.65
 10
579.203
 20
584.65
 10
583.31157
 20
584.65
 10
583.31157
 20
379.65
 10
579.203
 20
379.65
 10
575.09443
 20
379.65
 10
570.98586
 20
379.65
 10
566.87729
 20
379.65
 10
562.7687099999999
 20
379.65
 10
558.66014
 20
379.65
 10
554.55157
 20
379.65
 10
550.443
 20
379.65
 10
546.33443
 20
379.65
 10
542.22586
 20
379.65
 10
538.11729
 20
379.65
 10
534.00871
 20
379.65
 10
529.90014
 20
379.65
 10
525.79157
 20
379.65
 10
521.683
 20
379.65
  0
TEXT
  5
39
330
17
100
AcDbEntity
  8
MARK
100
AcDbText
 10
552.4972849999999
 20
482.15
 30
0.0
 40
2.5
  1
SKIN_F10
100
AcDbText
  0
LWPOLYLINE
  5
3A
330
17
100
AcDbEntity
  8
CUT
100
AcDbPolyline
 90
32
 70
1
 10
454.055
 20
5.0
 10
454.055
 20
373.65
 10
458.16357
 20
373.65
 10
462.27214000000004
 20
373.65
 10
466.38071
 20
373.65
 10
470.48929
 20
373.65
 10
474.59786
 20
373.65
 10
478.70643
 20
373.65
 10
482.815
 20
373.65
 10
486.92357
 20
373.65
 10
491.03214
 20
373.65
 10
495.14071
 20
373.65
 10
499.24929000000003
 20
373.65
 10
503.35786
 20
373.65
 10
507.46643
 20
373.65
 10
511.575
 20
373.65
 10
515.68357
 20
373.65
 10
515.68357
 20
5.0
 10
511.575
 20
5.0
 10
507.46643
 20
5.0
 10
503.35786
 20
5.0
 10
499.24929000000003
 20
5.0
 10
495.14071
 20
5.0
 10
491.03214
 20
5.0
 10
486.92357
 20
5.0
 10
482.815
 20
5.0
 10
478.70643
 20
5.0
 10
474.59786
 20
5.0
 10
470.48929
 20
5.0
 10
466.38071
 20
5.0
 10
462.27214000000004
 20
5.0
 10
458.16357
 20
5.0
  0
TEXT
  5
3B
330
17
100
AcDbEntity
  8
MARK
100
AcDbText
 10
484.869285
 20
189.325
 30
0.0
 40
2.5
  1
SKIN_F11
100
AcDbText
  0
LWPOLYLINE
  5
3C
330
17
100
AcDbEntity
  8
CUT
100
AcDbPolyline
 90
32
 70
1
 10
583.31157
 20
5.0
 10
579.203
 20
5.0
 10
575.09443
 20
5.0
 10
570.98586
 20
5.0
 10
566.87729
 20
5.0
 10
562.7687099999999
 20
5.0
 10
558.66014
 20
5.0
 10
554.55157
 20
5.0
 10
550.443
 20
5.0
 10
546.33443
 20
5.0
 10
542.22586
 20
5.0
 10
538.11729
 20
5.0
 10
534.00871
 20
5.0
 10
529.90014
 20
5.0
 10
525.79157
 20
5.0
 10
521.683
 20
5.0
 10
521.683
 20
373.65
 10
525.79157
 20
373.65
 10
529.90014
 20
373.65
 10
534.00871
 20
373.65
 10
538.11729
 20
373.65
 10
542.22586
 20
373.65
 10
546.33443
 20
373.65
 10
550.443
 20
373.65
 10
554.55157
 20
373.65
 10
558.66014
 20
373.65
 10
562.7687099999999
 20
373.65
 10
566.87729
 20
373.65
 10
570.98586
 20
373.65
 10
575.09443
 20
373.65
 10
579.203
 20
373.65
 10
583.31157
 20
373.65
  0
TEXT
  5
3D
330
17
100
AcDbEntity
  8
MARK
100
AcDbText
 10
552.4972849999999
 20
189.325
 30
0.0
 40
2.5
  1
SKIN_F12
100
AcDbText
  0
LWPOLYLINE
  5
3E
330
17
100
AcDbEntity
  8
CUT
100
AcDbPolyline
 90
13
 70
1
 10
966.59191
 20
155.99968
 10
966.59191
 20
5.0
 10
963.26936
 20
5.00078
 10
959.9488799999999
 20
5.00134
 10
956.0514099999999
 20
5.00194
 10
952.15154
 20
5.00228
 10
951.987
 20
156.00196
 10
954.1835
 20
156.00214
 10
956.37857
 20
156.00205
 10
958.57052
 20
156.00185
 10
960.75762
 20
156.00146
 10
962.94218
 20
156.00094
 10
964.76454
 20
156.00042
  0
TEXT
  5
3F
330
17
100
AcDbEntity
  8
MARK
100
AcDbText
 10
959.3305906211126
 20
80.50098000000001
 30
0.0
 40
2.5
  1
SKIN_F19
100
AcDbText
  0
LWPOLYLINE
  5
40
330
17
100
AcDbEntity
  8
CUT
100
AcDbPolyline
 90
49
 70
1
 10
852.7748899999999
 20
517.39778
 10
854.24099
 20
517.3912
 10
855.7070799999999
 20
517.38473
 10
858.2715999999999
 20
517.37154
 10
860.65109
 20
517.36193
 10
864.0416399999999
 20
517.34961
 10
867.0446
 20
517.33803
 10
869.4008699999999
 20
517.33012
 10
871.8717899999999
 20
517.32296
 10
874.23906
 20
517.31678
 10
877.5616
 20
517.31042
 10
880.51535
 20
517.30636
 10
882.88303
 20
517.30558
 10
885.41549
 20
517.3057
 10
887.9459899999999
 20
517.30777
 10
890.3076199999999
 20
517.3102
 10
893.323
 20
517.31556
 10
895.69808
 20
517.32204
 10
898.1900599999999
 20
517.33029
 10
900.68292
 20
517.34083
 10
903.06007
 20
517.35203
 10
906.37583
 20
517.37396
 10
909.70245
 20
517.39778
 10
913.37911
 20
366.39359
 10
910.0843
 20
366.36384
 10
906.81096
 20
366.3408
 10
904.25707
 20
366.32324
 10
901.80961
 20
366.31001
 10
899.35735
 20
366.29878
 10
896.89509
 20
366.28998
 10
894.4239
 20
366.28287
 10
891.9522499999999
 20
366.2779
 10
889.48903
 20
366.27524
 10
887.03725
 20
366.274
 10
884.59097
 20
366.27446
 10
882.1436199999999
 20
366.2773
 10
879.68818
 20
366.28114
 10
877.21781
 20
366.287
 10
874.7422799999999
 20
366.29363
 10
872.27821
 20
366.30195
 10
869.82435
 20
366.31144
 10
867.37568
 20
366.3214
 10
864.9275
 20
366.33254
 10
862.4756699999999
 20
366.34502
 10
860.01617
 20
366.35763000000003
 10
857.5457399999999
 20
366.37174
 10
855.06683
 20
366.3876
 10
853.41648
 20
366.39524
 10
851.766
 20
366.40479
  0
TEXT
  5
41
330
17
100
AcDbEntity
  8
MARK
100
AcDbText
 10
881.9059515351323
 20
441.855185
 30
0.0
 40
2.5
  1
SKIN_F20
100
AcDbText
  0
LWPOLYLINE
  5
42
330
17
100
AcDbEntity
  8
CUT
100
AcDbPolyline
 90
52
 70
1
 10
772.688
 20
366.13
 10
772.8779
 20
517.18085
 10
774.52818
 20
517.20659
 10
776.17833
 20
517.23203
 10
778.6574899999999
 20
517.2660599999999
 10
781.12791
 20
517.30029
 10
783.58744
 20
517.3307
 10
786.0391999999999
 20
517.35909
 10
788.48732
 20
517.38541
 10
790.93584
 20
517.40996
 10
793.38953
 20
517.43325
 10
795.85342
 20
517.45275
 10
798.32872
 20
517.47028
 10
800.79885
 20
517.48664
 10
803.25404
 20
517.50137
 10
805.70122
 20
517.51561
 10
808.14728
 20
517.52679
 10
810.59885
 20
517.5369499999999
 10
813.06189
 20
517.54576
 10
815.53332
 20
517.5524
 10
818.00429
 20
517.5583799999999
 10
820.46636
 20
517.56335
 10
822.91861
 20
517.56758
 10
825.36604
 20
517.57044
 10
827.91991
 20
517.57286
 10
831.193
 20
517.57461
 10
834.48793
 20
517.57858
 10
834.48793
 20
366.58617
 10
831.17886
 20
366.5784
 10
827.8913699999999
 20
366.57178
 10
825.32963
 20
366.5641
 10
822.87187
 20
366.55723
 10
820.40931
 20
366.54947
 10
817.93659
 20
366.54093
 10
815.45482
 20
366.53149
 10
812.9727399999999
 20
366.5222
 10
810.49904
 20
366.51112
 10
808.03683
 20
366.4984
 10
805.58026
 20
366.48462
 10
803.12288
 20
366.46918
 10
800.65768
 20
366.45222
 10
798.17746
 20
366.4339
 10
795.6918499999999
 20
366.41248
 10
793.21683
 20
366.39026
 10
790.75161
 20
366.36672
 10
788.29192
 20
366.34109
 10
785.83355
 20
366.31391
 10
783.37204
 20
366.28456
 10
780.90282
 20
366.2538
 10
778.42198
 20
366.21759
 10
775.93232
 20
366.18095
 10
774.31022
 20
366.15646
  0
TEXT
  5
43
330
17
100
AcDbEntity
  8
MARK
100
AcDbText
 10
803.635583373379
 20
441.88351
 30
0.0
 40
2.5
  1
SKIN_F21
100
AcDbText
  0
LWPOLYLINE
  5
44
330
17
100
AcDbEntity
  8
CUT
100
AcDbPolyline
 90
13
 70
1
 10
987.43614
 20
5.00097
 10
985.51087
 20
5.00046
 10
983.59108
 20
5.0002
 10
981.39782
 20
5.00003
 10
979.20174
 20
5.0
 10
977.00073
 20
5.00015
 10
974.79659
 20
5.00035
 10
972.591
 20
5.00081
 10
972.80273
 20
156.00055
 10
976.70323
 20
156.00031
 10
980.60126
 20
156.00029
 10
983.92224
 20
156.00031
 10
987.24534
 20
156.00055
  0
TEXT
  5
45
330
17
100
AcDbEntity
  8
MARK
100
AcDbText
 10
980.0188025470779
 20
80.50063
 30
0.0
 40
2.5
  1
SKIN_F22
100
AcDbText
  0
LWPOLYLINE
  5
46
330
17
100
AcDbEntity
  8
CUT
100
AcDbPolyline
 90
58
 70
1
 10
777.40561
 20
360.10649
 10
780.088
 20
360.09102
 10
782.21093
 20
360.07885
 10
785.04962
 20
360.06234
 10
788.3335999999999
 20
360.04413999999997
 10
791.69899
 20
360.02534
 10
795.13437
 20
360.00794
 10
798.6278599999999
 20
359.99176
 10
802.1673
 20
359.97803999999996
 10
805.74033
 20
359.96663
 10
809.33452
 20
359.95625
 10
812.93779
 20
359.94974
 10
816.5360499999999
 20
359.94466
 10
820.11382
 20
359.9452
 10
823.66155
 20
359.9474
 10
827.17134
 20
359.95522
 10
830.63727
 20
359.96668
 10
834.05539
 20
359.98439
 10
837.42308
 20
360.00826
 10
840.41022
 20
360.03622
 10
843.0651799999999
 20
360.06663000000003
 10
845.13353
 20
360.09355
 10
847.18983
 20
360.12263
 10
849.12415
 20
288.36459
 10
850.9469
 20
228.35037
 10
851.94547
 20
204.23052
 10
851.95431
 20
204.17739
 10
851.96251
 20
204.13946
 10
851.97764
 20
204.10929000000002
 10
849.77737
 20
204.06621
 10
847.5677499999999
 20
204.03079
 10
845.34207
 20
204.00182
 10
843.09539
 20
203.97722000000002
 10
840.82407
 20
203.95609000000002
 10
838.52575
 20
203.9383
 10
836.19912
 20
203.92367000000002
 10
833.84391
 20
203.91172
 10
831.46057
 20
203.90315
 10
829.0499
 20
203.89714
 10
825.79563
 20
203.894
 10
822.08502
 20
203.89438
 10
818.33028
 20
203.89945
 10
814.54193
 20
203.90775
 10
810.73502
 20
203.91889
 10
806.92578
 20
203.93408
 10
803.12792
 20
203.9502
 10
799.35596
 20
203.96853000000002
 10
795.62434
 20
203.98827
 10
791.9475
 20
204.00912
 10
788.3395399999999
 20
204.03083
 10
784.81402
 20
204.05280000000002
 10
781.38742
 20
204.07736
 10
778.08051
 20
204.10144
 10
775.85326
 20
204.11780000000002
 10
773.68797
 20
204.13395
 10
772.688
 20
204.14115
 10
773.81033
 20
360.12982999999997
 10
774.8103
 20
360.12263
  0
TEXT
  5
47
330
17
100
AcDbEntity
  8
MARK
100
AcDbText
 10
811.5568042608794
 20
258.35748
 30
0.0
 40
2.5
  1
SKIN_F23
100
AcDbText
  0
LWPOLYLINE
  5
48
330
17
100
AcDbEntity
  8
CUT
100
AcDbPolyline
 90
62
 70
1
 10
863.86754
 20
359.97914000000003
 10
865.44409
 20
359.97532
 10
867.01362
 20
359.97321999999997
 10
869.97504
 20
359.96562
 10
872.9232
 20
359.95745999999997
 10
876.06377
 20
359.94953
 10
879.41847
 20
359.94232999999997
 10
882.7882099999999
 20
359.93635
 10
886.17263
 20
359.93010000000004
 10
889.54656
 20
359.92563
 10
892.90301
 20
359.92376
 10
896.25215
 20
359.92259
 10
899.59941
 20
359.92467
 10
902.94957
 20
359.92805
 10
906.31211
 20
359.93458
 10
909.6958
 20
359.94536
 10
913.07789
 20
359.95784000000003
 10
916.44544
 20
359.97661
 10
919.43134
 20
359.99625000000003
 10
921.67218
 20
360.01392
 10
923.91899
 20
360.03418999999997
 10
926.17561
 20
360.05803000000003
 10
928.4395
 20
360.08465
 10
930.69719
 20
360.11462
 10
932.94183
 20
360.14884
 10
935.18175
 20
360.1861
 10
937.4280699999999
 20
360.22758
 10
939.69353
 20
360.27399
 10
940.55097
 20
288.49449
 10
941.12307
 20
228.45669
 10
941.12307
 20
204.31586000000001
 10
941.11679
 20
204.26237
 10
941.11025
 20
204.22412
 10
941.09638
 20
204.19335
 10
938.91341
 20
204.14732
 10
936.72106
 20
204.10772
 10
934.51364
 20
204.07227
 10
932.2852
 20
204.04052000000001
 10
930.0320899999999
 20
204.01297
 10
927.7524599999999
 20
203.98932
 10
925.44557
 20
203.96882
 10
923.11106
 20
203.9515
 10
920.74878
 20
203.93714
 10
918.35927
 20
203.92541
 10
915.1332199999999
 20
203.91331
 10
911.45406
 20
203.90315
 10
907.73022
 20
203.89723
 10
903.9732
 20
203.894
 10
900.19703
 20
203.89546
 10
896.41709
 20
203.89944
 10
892.6477
 20
203.90432
 10
888.90254
 20
203.90948
 10
885.19535
 20
203.91692
 10
881.54025
 20
203.92688
 10
877.95103
 20
203.93736
 10
874.44177
 20
203.94808
 10
871.0255
 20
203.95957
 10
867.72479
 20
203.97167000000002
 10
865.50036
 20
203.97992
 10
863.33699
 20
203.98858
 10
862.337
 20
203.99198
 10
862.86754
 20
359.98254
  0
TEXT
  5
49
330
17
100
AcDbEntity
  8
MARK
100
AcDbText
 10
901.6796621914191
 20
258.47559
 30
0.0
 40
2.5
  1
SKIN_F24
100
AcDbText
  0
LWPOLYLINE
  5
4A
330
17
100
AcDbEntity
  8
CUT
100
AcDbPolyline
 90
117
 70
1
 10
936.15223
 20
515.7353
 10
950.80358
 20
514.85626
 10
963.84825
 20
513.98048
 10
974.61289
 20
513.2022
 10
974.57692
 20
512.46303
 10
974.5573
 20
512.03967
 10
974.21527
 20
505.67158
 10
974.01383
 20
501.40644
 10
973.94503
 20
499.93964
 10
973.7473200000001
 20
495.52914999999996
 10
973.65006
 20
493.21761000000004
 10
973.619
 20
492.38436
 10
973.56981
 20
490.97028
 10
973.3353500000001
 20
484.75783
 10
973.21934
 20
481.1924
 10
973.1375400000001
 20
478.66933
 10
973.08691
 20
476.92487
 10
973.072
 20
476.40864999999997
 10
973.0365
 20
475.05257
 10
972.94957
 20
471.61584
 10
972.93264
 20
470.90394000000003
 10
972.85491
 20
467.42844
 10
972.85313
 20
467.28573
 10
972.85285
 20
467.25488
 10
972.80853
 20
464.9539
 10
972.75795
 20
461.69731
 10
972.70055
 20
457.87589
 10
972.67278
 20
455.01422
 10
972.63918
 20
450.86843
 10
972.60466
 20
444.86044
 10
972.6059300000001
 20
444.17371
 10
972.6079100000001
 20
442.63036
 10
972.60929
 20
439.70486
 10
972.60902
 20
439.47735
 10
972.60888
 20
438.79891
 10
972.61807
 20
436.87943
 10
972.62107
 20
436.32161
 10
972.63185
 20
434.67109
 10
972.63384
 20
433.80422
 10
972.67833
 20
428.41256
 10
972.69609
 20
426.19899
 10
972.70635
 20
425.79653
 10
972.7402
 20
423.38088
 10
972.7851400000001
 20
420.87583
 10
972.84921
 20
417.24013
 10
972.8898300000001
 20
415.26652
 10
972.93719
 20
412.8347
 10
973.03099
 20
409.14196
 10
973.07815
 20
407.2567
 10
973.1712600000001
 20
404.34071
 10
973.2455600000001
 20
401.90255
 10
973.30118
 20
399.56962
 10
973.33798
 20
398.28094
 10
973.45099
 20
395.45464
 10
973.63099
 20
389.72192
 10
973.7255
 20
387.7113
 10
973.82125
 20
385.34852
 10
973.9404900000001
 20
382.00531
 10
974.0135
 20
380.47057
 10
974.2515900000001
 20
375.5114
 10
974.39304
 20
372.82273
 10
974.61289
 20
368.72123
 10
968.7182700000001
 20
368.31301
 10
956.90914
 20
367.58888
 10
945.08749
 20
367.01228
 10
933.25658
 20
366.59231
 10
921.43263
 20
366.274
 10
921.3176100000001
 20
369.59377
 10
921.19937
 20
372.9135
 10
921.0762100000001
 20
376.23328
 10
920.95937
 20
379.55346
 10
920.8385900000001
 20
382.89744
 10
920.7008900000001
 20
386.50091
 10
920.6086700000001
 20
389.22126000000003
 10
920.50843
 20
392.0554
 10
920.41031
 20
394.81758
 10
920.3100400000001
 20
397.64174
 10
920.21226
 20
400.51030000000003
 10
920.1178600000001
 20
403.40551
 10
920.03191
 20
406.30794000000003
 10
919.94542
 20
409.19711
 10
919.8680400000001
 20
412.05522
 10
919.80075
 20
414.86487999999997
 10
919.7346200000001
 20
417.60809
 10
919.67531
 20
420.26619
 10
919.62485
 20
422.81894
 10
919.57323
 20
425.24543
 10
919.52619
 20
428.25620000000004
 10
919.4779
 20
431.28894
 10
919.44865
 20
433.8839
 10
919.42043
 20
436.55044
 10
919.40629
 20
438.82562
 10
919.39437
 20
441.04233999999997
 10
919.38208
 20
443.28943
 10
919.379
 20
445.53624
 10
919.38568
 20
448.79996
 10
919.4003
 20
452.06315
 10
919.42873
 20
455.32634
 10
919.4788100000001
 20
458.5885
 10
919.5213
 20
461.84862
 10
919.57272
 20
465.10858
 10
919.63684
 20
468.36821
 10
919.7093100000001
 20
471.62716
 10
919.7905000000001
 20
474.88603
 10
919.87932
 20
478.1441
 10
919.97826
 20
481.40164
 10
920.08704
 20
484.6588
 10
920.20494
 20
487.91588
 10
920.32669
 20
491.17281
 10
920.45951
 20
494.42928
 10
920.59777
 20
497.68476
 10
920.7415500000001
 20
500.94003
 10
920.89554
 20
504.19486
 10
921.05053
 20
507.44847000000004
 10
921.20669
 20
510.70104000000003
 10
921.3531
 20
513.61208
 10
921.5040700000001
 20
516.5223
  0
TEXT
  5
4B
330
17
100
AcDbEntity
  8
MARK
100
AcDbText
 10
945.9991559351138
 20
441.83635
 30
0.0
 40
2.5
  1
SKIN_F27
100
AcDbText
  0
LWPOLYLINE
  5
4C
330
17
100
AcDbEntity
  8
CUT
100
AcDbPolyline
 90
6
 70
1
 10
845.76558
 20
517.2613699999999
 10
845.76558
 20
366.20816
 10
840.488
 20
366.13
 10
840.88962
 20
517.18875
 10
842.5149500000001
 20
517.21192
 10
844.1402800000001
 20
517.23614
  0
TEXT
  5
4D
330
17
100
AcDbEntity
  8
MARK
100
AcDbText
 10
843.2272469510111
 20
441.698455
 30
0.0
 40
2.5
  1
SKIN_F33
100
AcDbText
  0
LWPOLYLINE
  5
4E
330
17
100
AcDbEntity
  8
CUT
100
AcDbPolyline
 90
139
 70
1
 10
306.6345
 20
453.74514
 10
380.97081
 20
460.62433
 10
448.05481
 20
25.10671
 10
351.19046
 20
15.66351
 10
298.18392
 20
10.47564
 10
284.26091
 20
9.11119
 10
268.26451
 20
7.546
 10
255.95929
 20
6.34751
 10
252.06177
 20
5.971
 10
246.83859
 20
5.47884
 10
245.90055
 20
5.39245
 10
245.25672
 20
5.334
 10
244.69166
 20
5.285
 10
244.18754
 20
5.24364
 10
243.68815
 20
5.20481
 10
243.23873
 20
5.17116
 10
242.71977
 20
5.13413
 10
242.275
 20
5.10452
 10
241.86013
 20
5.07859
 10
241.48789
 20
5.0572
 10
241.17085
 20
5.04115
 10
240.8845
 20
5.02874
 10
240.71779
 20
5.02226
 10
240.54458
 20
5.0162
 10
240.37217
 20
5.01058
 10
240.26562
 20
5.00792
 10
240.13148
 20
5.0052
 10
239.99488
 20
5.00298
 10
239.85588
 20
5.00132
 10
239.71451
 20
5.0003
 10
239.57097
 20
5.0
 10
239.42543
 20
5.00051
 10
239.27787
 20
5.00166
 10
239.12816
 20
5.00339
 10
238.97577
 20
5.00551
 10
238.8203
 20
5.00855
 10
238.66144
 20
5.01324
 10
238.49887
 20
5.01855
 10
238.27607
 20
5.02635
 10
238.01688
 20
5.03604
 10
237.74834
 20
5.0468
 10
237.46934
 20
5.05948
 10
237.07949
 20
5.07915
 10
236.61409
 20
5.10507
 10
236.12185
 20
5.13267
 10
234.87497
 20
5.20659
 10
233.74376
 20
5.27595
 10
232.3111
 20
5.36492
 10
231.2443
 20
5.43303
 10
230.24979
 20
5.49987
 10
228.94152
 20
5.59257
 10
227.57547
 20
5.69189
 10
226.07815
 20
5.80308
 10
224.26313
 20
5.9397
 10
222.11837
 20
6.10377
 10
218.76228
 20
6.36602
 10
213.07473
 20
6.81757
 10
206.71931
 20
7.33122
 10
199.51802
 20
7.92029
 10
190.67355
 20
8.65279
 10
182.37726
 20
9.34452
 10
171.28394
 20
10.27465
 10
155.15991
 20
11.62932
 10
138.45555
 20
13.03611
 10
121.32224
 20
14.48241
 10
101.96637
 20
16.11785
 10
82.57315
 20
17.76111
 10
60.00118
 20
19.67266
 10
35.2123
 20
21.77776
 10
20.06284
 20
23.06668
 10
5.0
 20
24.34904
 10
66.03657
 20
460.62433
 10
81.28456
 20
459.30566
 10
96.52509
 20
457.99936
 10
117.57445
 20
456.20968
 10
135.04594
 20
454.74029
 10
151.70914
 20
453.36097
 10
166.80774
 20
452.1355
 10
179.40577
 20
451.13468
 10
192.22992
 20
450.12332
 10
199.04912
 20
449.59954
 10
204.18777
 20
449.21513
 10
209.32418
 20
448.83676
 10
213.87343
 20
448.51299
 10
217.28397
 20
448.27541
 10
220.69967
 20
448.04631
 10
223.74832
 20
447.84843
 10
225.78971
 20
447.71969
 10
227.15146
 20
447.63754
 10
228.17018
 20
447.57908
 10
229.07598
 20
447.52963
 10
230.08934
 20
447.47734
 10
230.76788
 20
447.44343
 10
231.4273
 20
447.41255
 10
232.31937
 20
447.37333
 10
232.8613
 20
447.35284
 10
233.26663
 20
447.33748
 10
233.62787
 20
447.32467
 10
233.86992
 20
447.31727
 10
234.05172
 20
447.31249
 10
234.21341
 20
447.30903
 10
234.3348
 20
447.30676
 10
234.45641
 20
447.3048
 10
234.57832
 20
447.30337
 10
234.70032
 20
447.30269
 10
234.82219
 20
447.3025
 10
234.94381
 20
447.30277
 10
235.06512
 20
447.30378
 10
235.18623
 20
447.30552
 10
235.29218
 20
447.3077
 10
235.40965
 20
447.31094
 10
235.55542
 20
447.31566
 10
235.8454
 20
447.32658
 10
236.13346
 20
447.33885
 10
236.42132
 20
447.35292
 10
236.74253
 20
447.36965
 10
237.06116
 20
447.38769
 10
237.30051
 20
447.40147
 10
237.53921
 20
447.41655
 10
237.77016
 20
447.43242
 10
237.96041
 20
447.44606
 10
238.17156
 20
447.46221
 10
238.4063
 20
447.48086
 10
238.69589
 20
447.50471
 10
238.98382
 20
447.5292
 10
239.42112
 20
447.56729
 10
241.17971
 20
447.72372
 10
242.9402
 20
447.88252
 10
243.51302
 20
447.9347
 10
244.08612
 20
447.98779
 10
244.66163
 20
448.04108
 10
245.36085
 20
448.10497
 10
246.87702
 20
448.24601
 10
248.52293
 20
448.40107
 10
251.35691
 20
448.66228
 10
262.2291
 20
449.66225
 10
283.9864
 20
451.65409
 10
285.76406
 20
432.97908
 10
308.44788
 20
435.17846
  0
TEXT
  5
4F
330
17
100
AcDbEntity
  8
MARK
100
AcDbText
 10
225.13969770095053
 20
229.04289500000002
 30
0.0
 40
2.5
  1
SKIN_WRIN_F02
100
AcDbText
  0
LWPOLYLINE
  5
50
330
17
100
AcDbEntity
  8
CUT
100
AcDbPolyline
 90
138
 70
1
 10
736.7613699999999
 20
465.77084
 10
746.32852
 20
410.36258000000004
 10
755.91177
 20
354.95312
 10
762.72558
 20
315.69608
 10
759.0844
 20
315.06556
 10
752.40681
 20
313.90492
 10
749.11085
 20
313.33446000000004
 10
748.3154
 20
313.19642
 10
745.01902
 20
312.62753000000004
 10
744.6213
 20
312.55858
 10
744.2235900000001
 20
312.48989
 10
718.73009
 20
308.06951000000004
 10
705.4262
 20
305.76283
 10
703.75518
 20
305.47265000000004
 10
701.88651
 20
305.14844
 10
691.9095
 20
303.41695000000004
 10
688.5610300000001
 20
302.83502000000004
 10
686.80688
 20
302.53018000000003
 10
685.58947
 20
302.31921
 10
685.40945
 20
302.28813
 10
684.38104
 20
302.11326
 10
683.93776
 20
302.03749
 10
683.8086900000001
 20
302.01573
 10
683.44707
 20
301.95892000000003
 10
682.89766
 20
301.87375000000003
 10
682.43132
 20
301.80752
 10
681.99393
 20
301.75343000000004
 10
681.42425
 20
301.67948
 10
680.85751
 20
301.62327
 10
680.61433
 20
301.59811
 10
679.79049
 20
301.53652
 10
679.68856
 20
301.52924
 10
679.63105
 20
301.52639
 10
679.03738
 20
301.49799
 10
678.03529
 20
301.48202000000003
 10
677.99878
 20
301.48249000000004
 10
677.67515
 20
301.48
 10
677.54038
 20
301.48183
 10
677.31529
 20
301.48643000000004
 10
677.06924
 20
301.49362
 10
676.80229
 20
301.50437
 10
676.71628
 20
301.50716
 10
676.70879
 20
301.50752
 10
676.55199
 20
301.51514000000003
 10
676.5445
 20
301.51551
 10
676.29677
 20
301.53305
 10
676.17922
 20
301.53957
 10
675.98396
 20
301.55135
 10
675.10889
 20
301.62155
 10
675.06124
 20
301.62604000000005
 10
675.0524
 20
301.62688
 10
674.99424
 20
301.63268
 10
674.93618
 20
301.63888000000003
 10
674.15806
 20
301.72779
 10
673.92614
 20
301.75578
 10
673.67741
 20
301.7902
 10
672.76832
 20
301.92159000000004
 10
672.7182700000001
 20
301.92887
 10
672.69021
 20
301.93343000000004
 10
672.01394
 20
302.04222000000004
 10
671.69683
 20
302.09513000000004
 10
671.31327
 20
302.16047000000003
 10
670.91376
 20
302.2296
 10
668.84912
 20
302.58932000000004
 10
668.5393
 20
302.64331000000004
 10
668.01479
 20
302.73445000000004
 10
663.64601
 20
303.4939
 10
661.18492
 20
303.9216
 10
661.01401
 20
303.9513
 10
660.67505
 20
304.01011
 10
650.26898
 20
305.81291000000004
 10
636.52391
 20
308.19772
 10
611.76216
 20
312.49474000000004
 10
610.96672
 20
312.63251
 10
610.7678500000001
 20
312.66696
 10
604.17657
 20
313.80847
 10
603.55933
 20
313.9155
 10
593.25966
 20
315.70649000000003
 10
600.07881
 20
354.96035
 10
609.67292
 20
410.36328000000003
 10
619.23858
 20
465.77317000000005
 10
624.00232
 20
493.47438
 10
628.74407
 20
521.1779
 10
589.312
 20
527.8851500000001
 10
600.23401
 20
591.95994
 10
635.43159
 20
585.95515
 10
670.62287
 20
579.9533200000001
 10
670.9382
 20
579.90029
 10
671.25365
 20
579.84802
 10
671.56913
 20
579.79594
 10
671.88472
 20
579.74468
 10
672.20047
 20
579.6944000000001
 10
672.51646
 20
579.64555
 10
672.83271
 20
579.59835
 10
673.14918
 20
579.5527400000001
 10
673.4658900000001
 20
579.5089
 10
673.78289
 20
579.46729
 10
674.10022
 20
579.42815
 10
674.41787
 20
579.39134
 10
674.7358
 20
579.3569
 10
675.05399
 20
579.32518
 10
675.37244
 20
579.29647
 10
675.69111
 20
579.2707800000001
 10
676.00999
 20
579.24802
 10
676.32914
 20
579.2286799999999
 10
676.6485
 20
579.21244
 10
676.96804
 20
579.19958
 10
677.28768
 20
579.19018
 10
677.60738
 20
579.18415
 10
677.92706
 20
579.18137
 10
678.24674
 20
579.18246
 10
678.5664400000001
 20
579.1868300000001
 10
678.88612
 20
579.19461
 10
679.20572
 20
579.20588
 10
679.56065
 20
579.2224
 10
679.90539
 20
579.24212
 10
680.2553800000001
 20
579.26623
 10
680.59085
 20
579.2927500000001
 10
680.96328
 20
579.32626
 10
681.3354
 20
579.36368
 10
681.70716
 20
579.40458
 10
682.0785
 20
579.44893
 10
682.41234
 20
579.4918
 10
682.74921
 20
579.53754
 10
683.08573
 20
579.58537
 10
683.42199
 20
579.63517
 10
683.79529
 20
579.69259
 10
684.16822
 20
579.75203
 10
684.50365
 20
579.80677
 10
684.83891
 20
579.86258
 10
685.11476
 20
579.9092
 10
685.39058
 20
579.9562900000001
 10
685.72061
 20
580.0122
 10
686.6847700000001
 20
580.1758600000001
 10
755.77227
 20
591.95994
 10
766.68841
 20
527.88474
 10
727.2572700000001
 20
521.17502
 10
732.0002
 20
493.47149
  0
TEXT
  5
51
330
17
100
AcDbEntity
  8
MARK
100
AcDbText
 10
678.000216723753
 20
438.06706
 30
0.0
 40
2.5
  1
SKIN_TRF_F05
100
AcDbText
  0
LWPOLYLINE
  5
52
330
17
100
AcDbEntity
  8
CUT
100
AcDbPolyline
 90
138
 70
1
 10
736.7620400000001
 20
169.291
 10
746.32885
 20
113.88286
 10
755.91315
 20
58.47409
 10
762.72798
 20
19.2174
 10
759.08672
 20
18.58683
 10
752.40923
 20
17.426
 10
749.11327
 20
16.85552
 10
748.31782
 20
16.71745
 10
745.02143
 20
16.14863
 10
744.6237100000001
 20
16.07967
 10
744.22601
 20
16.01099
 10
718.73249
 20
11.59035
 10
705.42859
 20
9.28353
 10
703.75758
 20
8.99332
 10
701.88891
 20
8.66907
 10
691.91194
 20
6.93737
 10
688.56348
 20
6.35534
 10
686.80935
 20
6.05045
 10
685.59194
 20
5.83945
 10
685.41192
 20
5.80837
 10
684.38352
 20
5.63347
 10
683.94024
 20
5.55768
 10
683.81118
 20
5.53592
 10
683.44955
 20
5.4791
 10
682.90015
 20
5.39391
 10
682.43381
 20
5.32767
 10
681.9964200000001
 20
5.27357
 10
681.42675
 20
5.19959
 10
680.86001
 20
5.14337
 10
680.61683
 20
5.1182
 10
679.793
 20
5.05659
 10
679.69106
 20
5.04931
 10
679.63356
 20
5.04645
 10
679.03988
 20
5.01803
 10
678.03779
 20
5.00203
 10
678.00129
 20
5.0025
 10
677.67765
 20
5.0
 10
677.54288
 20
5.00183
 10
677.3177900000001
 20
5.00642
 10
677.07174
 20
5.0136
 10
676.8048
 20
5.02434
 10
676.71878
 20
5.02713
 10
676.71129
 20
5.02749
 10
676.55449
 20
5.0351
 10
676.547
 20
5.03548
 10
676.29928
 20
5.05301
 10
676.18173
 20
5.05953
 10
675.98646
 20
5.0713
 10
675.11139
 20
5.14147
 10
675.06374
 20
5.14595
 10
675.0549
 20
5.1468
 10
674.99674
 20
5.1526
 10
674.93868
 20
5.15879
 10
674.1605500000001
 20
5.24769
 10
673.92863
 20
5.27567
 10
673.6799100000001
 20
5.31007
 10
672.77082
 20
5.44144
 10
672.72076
 20
5.44872
 10
672.6927000000001
 20
5.45328
 10
672.01643
 20
5.56204
 10
671.6993200000001
 20
5.61495
 10
671.31575
 20
5.68028
 10
670.91625
 20
5.74939
 10
668.85159
 20
6.10906
 10
668.54178
 20
6.16303
 10
668.01726
 20
6.25416
 10
663.64846
 20
7.01352
 10
661.18735
 20
7.44116
 10
661.01645
 20
7.47085
 10
660.6774800000001
 20
7.52966
 10
650.2714100000001
 20
9.33229
 10
636.5263600000001
 20
11.71701
 10
611.76459
 20
16.01383
 10
610.96915
 20
16.15161
 10
610.77029
 20
16.18605
 10
604.17898
 20
17.32756
 10
603.56176
 20
17.43458
 10
593.26238
 20
19.2253
 10
600.08118
 20
58.47959
 10
609.67554
 20
113.88256
 10
619.2389000000001
 20
169.29262
 10
624.00209
 20
196.99422
 10
628.7440300000001
 20
224.69804
 10
589.312
 20
231.40545
 10
600.23403
 20
295.48022
 10
635.43163
 20
289.47546
 10
670.62293
 20
283.47369
 10
670.93825
 20
283.42066
 10
671.25371
 20
283.36839
 10
671.56918
 20
283.31631
 10
671.88478
 20
283.26506
 10
672.2005300000001
 20
283.21477
 10
672.51652
 20
283.16592
 10
672.83277
 20
283.11873
 10
673.14924
 20
283.07311
 10
673.46595
 20
283.02927
 10
673.78296
 20
282.98766
 10
674.10029
 20
282.94852
 10
674.4179300000001
 20
282.91172
 10
674.73586
 20
282.87727
 10
675.05406
 20
282.84556
 10
675.3725000000001
 20
282.81684
 10
675.69117
 20
282.79116
 10
676.0100600000001
 20
282.7684
 10
676.3292
 20
282.74905
 10
676.64856
 20
282.73282
 10
676.9681
 20
282.71995
 10
677.28775
 20
282.71056
 10
677.60744
 20
282.70453
 10
677.9271200000001
 20
282.70174
 10
678.2468
 20
282.70283
 10
678.56651
 20
282.7072
 10
678.88619
 20
282.71498
 10
679.20579
 20
282.72626
 10
679.56071
 20
282.74278
 10
679.90546
 20
282.76249
 10
680.25545
 20
282.7866
 10
680.59092
 20
282.81312
 10
680.96335
 20
282.84663
 10
681.33546
 20
282.88405
 10
681.70723
 20
282.92495
 10
682.07857
 20
282.9693
 10
682.41241
 20
283.01217
 10
682.74927
 20
283.0579
 10
683.0858000000001
 20
283.10573
 10
683.42205
 20
283.15554
 10
683.7953600000001
 20
283.21295
 10
684.1682900000001
 20
283.27239
 10
684.50372
 20
283.32714
 10
684.83898
 20
283.38294
 10
685.11483
 20
283.42957
 10
685.39065
 20
283.47666
 10
685.72068
 20
283.53257
 10
686.68484
 20
283.69622
 10
755.77235
 20
295.48022
 10
766.68841
 20
231.40501
 10
727.25726
 20
224.69536
 10
732.00039
 20
196.99183
  0
TEXT
  5
53
330
17
100
AcDbEntity
  8
MARK
100
AcDbText
 10
678.0012755444797
 20
141.58693
 30
0.0
 40
2.5
  1
SKIN_TLF_F06
100
AcDbText
  0
LWPOLYLINE
  5
54
330
17
100
AcDbEntity
  8
CUT
100
AcDbPolyline
 90
131
 70
1
 10
855.7062999999999
 20
182.53818
 10
854.54526
 20
175.86066
 10
853.97459
 20
172.56474
 10
853.8365
 20
171.7693
 10
853.26742
 20
168.47295
 10
853.19844
 20
168.07523
 10
853.12972
 20
167.67753
 10
848.70778
 20
142.1843
 10
846.40028
 20
128.88055
 10
846.11
 20
127.20956
 10
845.78567
 20
125.3409
 10
844.05357
 20
115.364
 10
843.4714299999999
 20
112.01556
 10
843.16648
 20
110.26143
 10
842.95544
 20
109.04404
 10
842.92435
 20
108.86402
 10
842.74942
 20
107.83562
 10
842.67362
 20
107.39234
 10
842.65185
 20
107.26328
 10
842.59502
 20
106.90166
 10
842.50982
 20
106.35225
 10
842.4435599999999
 20
105.88592
 10
842.38944
 20
105.44853
 10
842.3154499999999
 20
104.87886
 10
842.2592099999999
 20
104.31212
 10
842.23404
 20
104.06894
 10
842.1723999999999
 20
103.24511
 10
842.16511
 20
103.14317
 10
842.16225
 20
103.08567
 10
842.13382
 20
102.492
 10
842.11778
 20
101.48991
 10
842.11825
 20
101.4534
 10
842.11574
 20
101.12977
 10
842.11757
 20
100.995
 10
842.12216
 20
100.7699
 10
842.12933
 20
100.52385
 10
842.14006
 20
100.25691
 10
842.14285
 20
100.1709
 10
842.1432
 20
100.16341
 10
842.15081
 20
100.0066
 10
842.15119
 20
99.99912
 10
842.16871
 20
99.75139
 10
842.1752299999999
 20
99.63384
 10
842.18699
 20
99.43857
 10
842.25713
 20
98.5635
 10
842.26162
 20
98.51585
 10
842.26247
 20
98.50701
 10
842.2682599999999
 20
98.44885
 10
842.27445
 20
98.39079
 10
842.3633199999999
 20
97.61266
 10
842.3913
 20
97.38074
 10
842.42569
 20
97.13201
 10
842.5570299999999
 20
96.22291
 10
842.56431
 20
96.17286
 10
842.56887
 20
96.1448
 10
842.67761
 20
95.46853
 10
842.73051
 20
95.15141
 10
842.79583
 20
94.76784
 10
842.86492
 20
94.36833
 10
843.22453
 20
92.30367
 10
843.27849
 20
91.99385
 10
843.3696
 20
91.46933
 10
844.12879
 20
87.1005
 10
844.55633
 20
84.63938
 10
844.58602
 20
84.46848
 10
844.64481
 20
84.12951
 10
846.44697
 20
73.72333
 10
848.8309399999999
 20
59.97812
 10
853.12644
 20
35.2161
 10
853.26416
 20
34.42065
 10
853.29859
 20
34.22179
 10
854.4397
 20
27.63043
 10
854.54669
 20
27.01318
 10
856.33705
 20
16.71341
 10
840.1822099999999
 20
13.90803
 10
788.95478
 20
5.0
 10
781.22717
 20
49.47397
 10
773.49306
 20
93.94214
 10
773.44188
 20
94.23525
 10
773.39136
 20
94.52856
 10
773.34144
 20
94.82208
 10
773.29216
 20
95.11583
 10
773.24398
 20
95.40984
 10
773.19705
 20
95.70401
 10
773.15117
 20
95.9983
 10
773.10647
 20
96.29266
 10
773.06341
 20
96.5871
 10
773.02248
 20
96.88163
 10
772.9831399999999
 20
97.1762
 10
772.94559
 20
97.47089
 10
772.9105999999999
 20
97.76589
 10
772.87769
 20
98.06126
 10
772.8469
 20
98.35708
 10
772.81867
 20
98.65337
 10
772.79347
 20
98.95014
 10
772.7707
 20
99.24726
 10
772.75055
 20
99.54462
 10
772.73237
 20
99.84207
 10
772.71757
 20
100.13959
 10
772.7058499999999
 20
100.43706
 10
772.69701
 20
100.73441
 10
772.69101
 20
101.03161
 10
772.688
 20
101.32869
 10
772.68859
 20
101.62572
 10
772.6926599999999
 20
101.95582
 10
772.70123
 20
102.32279
 10
772.71509
 20
102.68995
 10
772.73298
 20
103.04676
 10
772.75202
 20
103.37306
 10
772.77652
 20
103.72535
 10
772.80006
 20
104.01498
 10
772.83099
 20
104.36209
 10
772.86399
 20
104.69894
 10
772.90085
 20
105.04057
 10
772.93879
 20
105.36472
 10
772.9794899999999
 20
105.68849
 10
773.02252
 20
106.01209
 10
773.06795
 20
106.33558
 10
773.11571
 20
106.65896
 10
773.16441
 20
106.98239
 10
773.21527
 20
107.3056
 10
773.26786
 20
107.62855
 10
773.32152
 20
107.95127
 10
773.37593
 20
108.27374
 10
773.43864
 20
108.63949
 10
773.4875
 20
108.91594
 10
773.53733
 20
109.19222
 10
774.06436
 20
112.20704
 10
788.95412
 20
197.89371
 10
840.18125
 20
188.9845
 10
856.33705
 20
186.17933
  0
TEXT
  5
55
330
17
100
AcDbEntity
  8
MARK
100
AcDbText
 10
807.4029451233115
 20
101.39104499999999
 30
0.0
 40
2.5
  1
SKIN_TRF_F07
100
AcDbText
  0
LWPOLYLINE
  5
56
330
17
100
AcDbEntity
  8
CUT
100
AcDbPolyline
 90
131
 70
1
 10
945.3554
 20
182.5374
 10
944.19426
 20
175.85997
 10
943.62362
 20
172.56404
 10
943.48552
 20
171.7686
 10
942.9165399999999
 20
168.47223
 10
942.84757
 20
168.07452
 10
942.77886
 20
167.67681
 10
938.35704
 20
142.1835
 10
936.0495999999999
 20
128.87971
 10
935.75931
 20
127.20871
 10
935.43497
 20
125.34006
 10
933.7028
 20
115.36317
 10
933.12062
 20
112.01474
 10
932.81565
 20
110.26062
 10
932.6046
 20
109.04322
 10
932.5735
 20
108.86321
 10
932.39855
 20
107.83481
 10
932.32275
 20
107.39154
 10
932.30098
 20
107.26247
 10
932.24414
 20
106.90085
 10
932.1589299999999
 20
106.35145
 10
932.09266
 20
105.88512
 10
932.03854
 20
105.44773
 10
931.9645399999999
 20
104.87806
 10
931.90829
 20
104.31132
 10
931.88312
 20
104.06814
 10
931.82146
 20
103.24431
 10
931.81417
 20
103.14238
 10
931.81131
 20
103.08487
 10
931.78287
 20
102.4912
 10
931.76682
 20
101.48911
 10
931.76729
 20
101.45261
 10
931.76477
 20
101.12897
 10
931.7665999999999
 20
100.9942
 10
931.77118
 20
100.76911
 10
931.77835
 20
100.52306
 10
931.78907
 20
100.25612
 10
931.79186
 20
100.1701
 10
931.79222
 20
100.16261
 10
931.79982
 20
100.00581
 10
931.8002
 20
99.99832
 10
931.81772
 20
99.75059
 10
931.82423
 20
99.63304
 10
931.83599
 20
99.43778
 10
931.90612
 20
98.5627
 10
931.91061
 20
98.51505
 10
931.91145
 20
98.50621
 10
931.91725
 20
98.44805
 10
931.92344
 20
98.39
 10
932.0123
 20
97.61186
 10
932.04027
 20
97.37994
 10
932.07466
 20
97.13121
 10
932.2059899999999
 20
96.22211
 10
932.21326
 20
96.17206
 10
932.21782
 20
96.144
 10
932.32655
 20
95.46772
 10
932.3794399999999
 20
95.15061
 10
932.44476
 20
94.76704
 10
932.51385
 20
94.36753
 10
932.87342
 20
92.30286
 10
932.92738
 20
91.99304
 10
933.01848
 20
91.46852
 10
933.77764
 20
87.09968
 10
934.20516
 20
84.63856
 10
934.23485
 20
84.46766
 10
934.29364
 20
84.12869
 10
936.09578
 20
73.72253
 10
938.47986
 20
59.97737
 10
942.77553
 20
35.21539
 10
942.91328
 20
34.41995
 10
942.94771
 20
34.22108
 10
944.0889
 20
27.62972
 10
944.1958999999999
 20
27.0125
 10
945.98614
 20
16.71304
 10
929.8311699999999
 20
13.90756
 10
878.60353
 20
5.0
 10
870.87608
 20
49.47408
 10
863.14198
 20
93.94241
 10
863.09081
 20
94.23553
 10
863.04029
 20
94.52883
 10
862.99037
 20
94.82236
 10
862.94109
 20
95.11611
 10
862.89291
 20
95.41012
 10
862.84599
 20
95.70429
 10
862.8001
 20
95.99858
 10
862.75541
 20
96.29295
 10
862.71235
 20
96.58739
 10
862.67143
 20
96.88192
 10
862.63209
 20
97.17649
 10
862.5945399999999
 20
97.47118
 10
862.55955
 20
97.76618
 10
862.52664
 20
98.06156
 10
862.49586
 20
98.35737
 10
862.46764
 20
98.65366
 10
862.44244
 20
98.95043
 10
862.41968
 20
99.24755
 10
862.39953
 20
99.54492
 10
862.38136
 20
99.84236
 10
862.3665599999999
 20
100.13988
 10
862.35484
 20
100.43736
 10
862.346
 20
100.73471
 10
862.34001
 20
101.03191
 10
862.337
 20
101.32899
 10
862.33759
 20
101.62602
 10
862.34167
 20
101.95612
 10
862.35024
 20
102.32309
 10
862.36411
 20
102.69025
 10
862.382
 20
103.04706
 10
862.40104
 20
103.37336
 10
862.42555
 20
103.72565
 10
862.44909
 20
104.01528
 10
862.48002
 20
104.36238
 10
862.51303
 20
104.69923
 10
862.54989
 20
105.04087
 10
862.58784
 20
105.36501
 10
862.62854
 20
105.68878
 10
862.67157
 20
106.01238
 10
862.71701
 20
106.33587
 10
862.76477
 20
106.65925
 10
862.8134699999999
 20
106.98267
 10
862.86434
 20
107.30588
 10
862.91693
 20
107.62883
 10
862.9706
 20
107.95155
 10
863.02501
 20
108.27402
 10
863.08771
 20
108.63977
 10
863.13658
 20
108.91622
 10
863.18642
 20
109.19249
 10
863.71345
 20
112.20729
 10
878.60349
 20
197.89368
 10
929.83044
 20
188.98399
 10
945.98614
 20
186.17864
  0
TEXT
  5
57
330
17
100
AcDbEntity
  8
MARK
100
AcDbText
 10
897.0519657479707
 20
101.39080000000001
 30
0.0
 40
2.5
  1
SKIN_TLF_F08
100
AcDbText
  0
ENDSEC
  0
SECTION
  2
OBJECTS
  0
DICTIONARY
  5
A
330
0
100
AcDbDictionary
281
1
  3
ACAD_COLOR
350
B
  3
ACAD_GROUP
350
C
  3
ACAD_LAYOUT
350
D
  3
ACAD_MATERIAL
350
E
  3
ACAD_MLEADERSTYLE
350
F
  3
ACAD_MLINESTYLE
350
10
  3
ACAD_PLOTSETTINGS
350
11
  3
ACAD_PLOTSTYLENAME
350
12
  3
ACAD_SCALELIST
350
14
  3
ACAD_TABLESTYLE
350
15
  3
ACAD_VISUALSTYLE
350
16
  3
EZDXF_META
350
2D
  0
DICTIONARY
  5
B
330
A
100
AcDbDictionary
281
1
  0
DICTIONARY
  5
C
330
A
100
AcDbDictionary
281
1
  0
DICTIONARY
  5
D
330
A
100
AcDbDictionary
281
1
  3
Model
350
1A
  3
Layout1
350
1E
  0
DICTIONARY
  5
E
330
A
100
AcDbDictionary
281
1
  3
ByBlock
350
1F
  3
ByLayer
350
20
  3
Global
350
21
  0
DICTIONARY
  5
F
330
A
100
AcDbDictionary
281
1
  3
Standard
350
2C
  0
DICTIONARY
  5
10
330
A
100
AcDbDictionary
281
1
  3
Standard
350
22
  0
DICTIONARY
  5
11
330
A
100
AcDbDictionary
281
1
  0
ACDBDICTIONARYWDFLT
  5
12
330
A
100
AcDbDictionary
281
1
  3
Normal
350
13
100
AcDbDictionaryWithDefault
340
13
  0
ACDBPLACEHOLDER
  5
13
330
12
  0
DICTIONARY
  5
14
330
A
100
AcDbDictionary
281
1
  0
DICTIONARY
  5
15
330
A
100
AcDbDictionary
281
1
  0
DICTIONARY
  5
16
330
A
100
AcDbDictionary
281
1
  0
LAYOUT
  5
1A
330
D
100
AcDbPlotSettings
  1

  4
A3
  6

 40
7.5
 41
20.0
 42
7.5
 43
20.0
 44
420.0
 45
297.0
 46
0.0
 47
0.0
 48
0.0
 49
0.0
140
0.0
141
0.0
142
1.0
143
1.0
 70
1024
 72
1
 73
0
 74
5
  7

 75
16
 76
0
 77
2
 78
300
147
1.0
148
0.0
149
0.0
100
AcDbLayout
  1
Model
 70
1
 71
0
 10
0.0
 20
0.0
 11
420.0
 21
297.0
 12
0.0
 22
0.0
 32
0.0
 14
1e+20
 24
1e+20
 34
1e+20
 15
-1e+20
 25
-1e+20
 35
-1e+20
146
0.0
 13
0.0
 23
0.0
 33
0.0
 16
1.0
 26
0.0
 36
0.0
 17
0.0
 27
1.0
 37
0.0
 76
1
330
17
  0
LAYOUT
  5
1E
330
D
100
AcDbPlotSettings
  1

  4
A3
  6

 40
7.5
 41
20.0
 42
7.5
 43
20.0
 44
420.0
 45
297.0
 46
0.0
 47
0.0
 48
0.0
 49
0.0
140
0.0
141
0.0
142
1.0
143
1.0
 70
0
 72
1
 73
0
 74
5
  7

 75
16
 76
0
 77
2
 78
300
147
1.0
148
0.0
149
0.0
100
AcDbLayout
  1
Layout1
 70
1
 71
1
 10
0.0
 20
0.0
 11
420.0
 21
297.0
 12
0.0
 22
0.0
 32
0.0
 14
1e+20
 24
1e+20
 34
1e+20
 15
-1e+20
 25
-1e+20
 35
-1e+20
146
0.0
 13
0.0
 23
0.0
 33
0.0
 16
1.0
 26
0.0
 36
0.0
 17
0.0
 27
1.0
 37
0.0
 76
1
330
1B
  0
MATERIAL
  5
1F
102
{ACAD_REACTORS
330
E
102
}
330
E
100
AcDbMaterial
  1
ByBlock
  2

 70
0
 40
1.0
 71
1
 41
1.0
 91
-1023410177
 42
1.0
 72
1
  3

 73
1
 74
1
 75
1
 44
0.5
 73
0
 45
1.0
 46
1.0
 77
1
  4

 78
1
 79
1
170
1
 48
1.0
171
1
  6

172
1
173
1
174
1
140
1.0
141
1.0
175
1
  7

176
1
177
1
178
1
143
1.0
179
1
  8

270
1
271
1
272
1
145
1.0
146
1.0
273
1
  9

274
1
275
1
276
1
 42
1.0
 72
1
  3

 73
1
 74
1
 75
1
 94
63
  0
MATERIAL
  5
20
102
{ACAD_REACTORS
330
E
102
}
330
E
100
AcDbMaterial
  1
ByLayer
  2

 70
0
 40
1.0
 71
1
 41
1.0
 91
-1023410177
 42
1.0
 72
1
  3

 73
1
 74
1
 75
1
 44
0.5
 73
0
 45
1.0
 46
1.0
 77
1
  4

 78
1
 79
1
170
1
 48
1.0
171
1
  6

172
1
173
1
174
1
140
1.0
141
1.0
175
1
  7

176
1
177
1
178
1
143
1.0
179
1
  8

270
1
271
1
272
1
145
1.0
146
1.0
273
1
  9

274
1
275
1
276
1
 42
1.0
 72
1
  3

 73
1
 74
1
 75
1
 94
63
  0
MATERIAL
  5
21
102
{ACAD_REACTORS
330
E
102
}
330
E
100
AcDbMaterial
  1
Global
  2

 70
0
 40
1.0
 71
1
 41
1.0
 91
-1023410177
 42
1.0
 72
1
  3

 73
1
 74
1
 75
1
 44
0.5
 73
0
 45
1.0
 46
1.0
 77
1
  4

 78
1
 79
1
170
1
 48
1.0
171
1
  6

172
1
173
1
174
1
140
1.0
141
1.0
175
1
  7

176
1
177
1
178
1
143
1.0
179
1
  8

270
1
271
1
272
1
145
1.0
146
1.0
273
1
  9

274
1
275
1
276
1
 42
1.0
 72
1
  3

 73
1
 74
1
 75
1
 94
63
  0
MLINESTYLE
  5
22
102
{ACAD_REACTORS
330
10
102
}
330
10
100
AcDbMlineStyle
  2
Standard
 70
0
  3

 62
256
 51
90.0
 52
90.0
 71
2
 49
0.5
 62
256
  6
BYLAYER
 49
-0.5
 62
256
  6
BYLAYER
  0
MLEADERSTYLE
  5
2C
102
{ACAD_REACTORS
330
F
102
}
330
F
100
AcDbMLeaderStyle
179
2
170
2
171
1
172
0
 90
2
 40
0.0
 41
0.0
173
1
 91
-1056964608
 92
-2
290
1
 42
2.0
291
1
 43
8.0
  3
Standard
 44
4.0
300

342
29
174
1
175
1
176
0
178
1
 93
-1056964608
 45
4.0
292
0
297
0
 46
4.0
 94
-1056964608
 47
1.0
 49
1.0
140
1.0
294
1
141
0.0
177
0
142
1.0
295
0
296
0
143
3.75
271
0
272
9
273
9
  0
DICTIONARY
  5
2D
330
A
100
AcDbDictionary
280
1
281
1
  3
CREATED_BY_EZDXF
350
2E
  3
WRITTEN_BY_EZDXF
350
5A
  0
DICTIONARYVAR
  5
2E
330
2D
100
DictionaryVariables
280
0
  1
1.4.4 @ 2026-09-23T14:44:12.863020+00:00
  0
DICTIONARYVAR
  5
5A
330
2D
100
DictionaryVariables
280
0
  1
1.4.4 @ 2026-09-23T14:44:12.991217+00:00
  0
ENDSEC
  0
EOF
