  0
SECTION
  2
HEADER
  9
$ACADVER
  1
AC1024
  9
$ACADMAINTVER
 70
6
  9
$DWGCODEPAGE
  3
ANSI_1252
  9
$LASTSAVEDBY
  1
ezdxf
  9
$INSBASE
 10
0.0
 20
0.0
 30
0.0
  9
$EXTMIN
 10
1e+20
 20
1e+20
 30
1e+20
  9
$EXTMAX
 10
-1e+20
 20
-1e+20
 30
-1e+20
  9
$LIMMIN
 10
0.0
 20
0.0
  9
$LIMMAX
 10
420.0
 20
297.0
  9
$ORTHOMODE
 70
0
  9
$REGENMODE
 70
1
  9
$FILLMODE
 70
1
  9
$QTEXTMODE
 70
0
  9
$MIRRTEXT
 70
1
  9
$LTSCALE
 40
1.0
  9
$ATTMODE
 70
1
  9
$TEXTSIZE
 40
2.5
  9
$TRACEWID
 40
1.0
  9
$TEXTSTYLE
  7
Standard
  9
$CLAYER
  8
0
  9
$CELTYPE
  6
ByLayer
  9
$CECOLOR
 62
256
  9
$CELTSCALE
 40
1.0
  9
$DISPSILH
 70
0
  9
$DIMSCALE
 40
1.0
  9
$DIMASZ
 40
2.5
  9
$DIMEXO
 40
0.625
  9
$DIMDLI
 40
3.75
  9
$DIMRND
 40
0.0
  9
$DIMDLE
 40
0.0
  9
$DIMEXE
 40
1.25
  9
$DIMTP
 40
0.0
  9
$DIMTM
 40
0.0
  9
$DIMTXT
 40
2.5
  9
$DIMCEN
 40
2.5
  9
$DIMTSZ
 40
0.0
  9
$DIMTOL
 70
0
  9
$DIMLIM
 70
0
  9
$DIMTIH
 70
0
  9
$DIMTOH
 70
0
  9
$DIMSE1
 70
0
  9
$DIMSE2
 70
0
  9
$DIMTAD
 70
1
  9
$DIMZIN
 70
8
  9
$DIMBLK
  1

  9
$DIMASO
 70
1
  9
$DIMSHO
 70
1
  9
$DIMPOST
  1

  9
$DIMAPOST
  1

  9
$DIMALT
 70
0
  9
$DIMALTD
 70
3
  9
$DIMALTF
 40
0.03937007874
  9
$DIMLFAC
 40
1.0
  9
$DIMTOFL
 70
1
  9
$DIMTVP
 40
0.0
  9
$DIMTIX
 70
0
  9
$DIMSOXD
 70
0
  9
$DIMSAH
 70
0
  9
$DIMBLK1
  1

  9
$DIMBLK2
  1

  9
$DIMSTYLE
  2
ISO-25
  9
$DIMCLRD
 70
0
  9
$DIMCLRE
 70
0
  9
$DIMCLRT
 70
0
  9
$DIMTFAC
 40
1.0
  9
$DIMGAP
 40
0.625
  9
$DIMJUST
 70
0
  9
$DIMSD1
 70
0
  9
$DIMSD2
 70
0
  9
$DIMTOLJ
 70
0
  9
$DIMTZIN
 70
8
  9
$DIMALTZ
 70
0
  9
$DIMALTTZ
 70
0
  9
$DIMUPT
 70
0
  9
$DIMDEC
 70
2
  9
$DIMTDEC
 70
2
  9
$DIMALTU
 70
2
  9
$DIMALTTD
 70
3
  9
$DIMTXSTY
  7
Standard
  9
$DIMAUNIT
 70
0
  9
$DIMADEC
 70
0
  9
$DIMALTRND
 40
0.0
  9
$DIMAZIN
 70
0
  9
$DIMDSEP
 70
44
  9
$DIMATFIT
 70
3
  9
$DIMFRAC
 70
0
  9
$DIMLDRBLK
  1

  9
$DIMLUNIT
 70
2
  9
$DIMLWD
 70
-2
  9
$DIMLWE
 70
-2
  9
$DIMTMOVE
 70
0
  9
$DIMFXL
 40
1.0
  9
$DIMFXLON
 70
0
  9
$DIMJOGANG
 40
0.785398163397
  9
$DIMTFILL
 70
0
  9
$DIMTFILLCLR
 70
0
  9
$DIMARCSYM
 70
0
  9
$DIMLTYPE
  6

  9
$DIMLTEX1
  6

  9
$DIMLTEX2
  6

  9
$DIMTXTDIRECTION
 70
0
  9
$LUNITS
 70
2
  9
$LUPREC
 70
4
  9
$SKETCHINC
 40
1.0
  9
$FILLETRAD
 40
10.0
  9
$AUNITS
 70
0
  9
$AUPREC
 70
2
  9
$MENU
  1
.
  9
$ELEVATION
 40
0.0
  9
$PELEVATION
 40
0.0
  9
$THICKNESS
 40
0.0
  9
$LIMCHECK
 70
0
  9
$CHAMFERA
 40
0.0
  9
$CHAMFERB
 40
0.0
  9
$CHAMFERC
 40
0.0
  9
$CHAMFERD
 40
0.0
  9
$SKPOLY
 70
0
  9
$TDCREATE
 40
2461307.8432060187
  9
$TDUCREATE
 40
2458532.153996898
  9
$TDUPDATE
 40
2461307.8432060187
  9
$TDUUPDATE
 40
2458532.1544311
  9
$TDINDWG
 40
0.0
  9
$TDUSRTIMER
 40
0.0
  9
$USRTIMER
 70
1
  9
$ANGBASE
 50
0.0
  9
$ANGDIR
 70
0
  9
$PDMODE
 70
0
  9
$PDSIZE
 40
0.0
  9
$PLINEWID
 40
0.0
  9
$SPLFRAME
 70
0
  9
$SPLINETYPE
 70
6
  9
$SPLINESEGS
 70
8
  9
$HANDSEED
  5
4F
  9
$SURFTAB1
 70
6
  9
$SURFTAB2
 70
6
  9
$SURFTYPE
 70
6
  9
$SURFU
 70
6
  9
$SURFV
 70
6
  9
$UCSBASE
  2

  9
$UCSNAME
  2

  9
$UCSORG
 10
0.0
 20
0.0
 30
0.0
  9
$UCSXDIR
 10
1.0
 20
0.0
 30
0.0
  9
$UCSYDIR
 10
0.0
 20
1.0
 30
0.0
  9
$UCSORTHOREF
  2

  9
$UCSORTHOVIEW
 70
0
  9
$UCSORGTOP
 10
0.0
 20
0.0
 30
0.0
  9
$UCSORGBOTTOM
 10
0.0
 20
0.0
 30
0.0
  9
$UCSORGLEFT
 10
0.0
 20
0.0
 30
0.0
  9
$UCSORGRIGHT
 10
0.0
 20
0.0
 30
0.0
  9
$UCSORGFRONT
 10
0.0
 20
0.0
 30
0.0
  9
$UCSORGBACK
 10
0.0
 20
0.0
 30
0.0
  9
$PUCSBASE
  2

  9
$PUCSNAME
  2

  9
$PUCSORG
 10
0.0
 20
0.0
 30
0.0
  9
$PUCSXDIR
 10
1.0
 20
0.0
 30
0.0
  9
$PUCSYDIR
 10
0.0
 20
1.0
 30
0.0
  9
$PUCSORTHOREF
  2

  9
$PUCSORTHOVIEW
 70
0
  9
$PUCSORGTOP
 10
0.0
 20
0.0
 30
0.0
  9
$PUCSORGBOTTOM
 10
0.0
 20
0.0
 30
0.0
  9
$PUCSORGLEFT
 10
0.0
 20
0.0
 30
0.0
  9
$PUCSORGRIGHT
 10
0.0
 20
0.0
 30
0.0
  9
$PUCSORGFRONT
 10
0.0
 20
0.0
 30
0.0
  9
$PUCSORGBACK
 10
0.0
 20
0.0
 30
0.0
  9
$USERI1
 70
0
  9
$USERI2
 70
0
  9
$USERI3
 70
0
  9
$USERI4
 70
0
  9
$USERI5
 70
0
  9
$USERR1
 40
0.0
  9
$USERR2
 40
0.0
  9
$USERR3
 40
0.0
  9
$USERR4
 40
0.0
  9
$USERR5
 40
0.0
  9
$WORLDVIEW
 70
1
  9
$SHADEDGE
 70
3
  9
$SHADEDIF
 70
70
  9
$TILEMODE
 70
1
  9
$MAXACTVP
 70
64
  9
$PINSBASE
 10
0.0
 20
0.0
 30
0.0
  9
$PLIMCHECK
 70
0
  9
$PEXTMIN
 10
1e+20
 20
1e+20
 30
1e+20
  9
$PEXTMAX
 10
-1e+20
 20
-1e+20
 30
-1e+20
  9
$PLIMMIN
 10
0.0
 20
0.0
  9
$PLIMMAX
 10
420.0
 20
297.0
  9
$UNITMODE
 70
0
  9
$VISRETAIN
 70
1
  9
$PLINEGEN
 70
0
  9
$PSLTSCALE
 70
1
  9
$TREEDEPTH
 70
3020
  9
$CMLSTYLE
  2
Standard
  9
$CMLJUST
 70
0
  9
$CMLSCALE
 40
20.0
  9
$PROXYGRAPHICS
 70
1
  9
$MEASUREMENT
 70
1
  9
$CELWEIGHT
370
-1
  9
$ENDCAPS
280
0
  9
$JOINSTYLE
280
0
  9
$LWDISPLAY
290
0
  9
$INSUNITS
 70
4
  9
$HYPERLINKBASE
  1

  9
$STYLESHEET
  1

  9
$XEDIT
290
1
  9
$CEPSNTYPE
380
0
  9
$PSTYLEMODE
290
1
  9
$FINGERPRINTGUID
  2
{DAF579D7-61A8-4F22-800F-A55988EF6EB4}
  9
$VERSIONGUID
  2
{938519B7-9415-489C-BD64-10733717A67D}
  9
$EXTNAMES
290
1
  9
$PSVPSCALE
 40
0.0
  9
$OLESTARTUP
290
0
  9
$SORTENTS
280
127
  9
$INDEXCTL
280
0
  9
$HIDETEXT
280
1
  9
$XCLIPFRAME
280
1
  9
$HALOGAP
280
0
  9
$OBSCOLOR
 70
257
  9
$OBSLTYPE
280
0
  9
$INTERSECTIONDISPLAY
280
0
  9
$INTERSECTIONCOLOR
 70
257
  9
$DIMASSOC
280
2
  9
$PROJECTNAME
  1

  9
$CAMERADISPLAY
290
0
  9
$LENSLENGTH
 40
50.0
  9
$CAMERAHEIGHT
 40
0.0
  9
$STEPSPERSEC
 40
24.0
  9
$STEPSIZE
 40
100.0
  9
$3DDWFPREC
 40
2.0
  9
$PSOLWIDTH
 40
0.005
  9
$PSOLHEIGHT
 40
0.08
  9
$LOFTANG1
 40
1.570796326795
  9
$LOFTANG2
 40
1.570796326795
  9
$LOFTMAG1
 40
0.0
  9
$LOFTMAG2
 40
0.0
  9
$LOFTPARAM
 70
7
  9
$LOFTNORMALS
280
1
  9
$LATITUDE
 40
37.795
  9
$LONGITUDE
 40
-122.394
  9
$NORTHDIRECTION
 40
0.0
  9
$TIMEZONE
 70
-8000
  9
$LIGHTGLYPHDISPLAY
280
1
  9
$TILEMODELIGHTSYNCH
280
1
  9
$CMATERIAL
347
20
  9
$SOLIDHIST
280
0
  9
$SHOWHIST
280
1
  9
$DWFFRAME
280
2
  9
$DGNFRAME
280
2
  9
$REALWORLDSCALE
290
1
  9
$INTERFERECOLOR
 62
256
  9
$CSHADOW
280
0
  9
$SHADOWPLANELOCATION
 40
0.0
  0
ENDSEC
  0
SECTION
  2
CLASSES
  0
CLASS
  1
ACDBDICTIONARYWDFLT
  2
AcDbDictionaryWithDefault
  3
ObjectDBX Classes
 90
0
 91
0
280
0
281
0
  0
CLASS
  1
SUN
  2
AcDbSun
  3
SCENEOE
 90
1153
 91
0
280
0
281
0
  0
CLASS
  1
VISUALSTYLE
  2
AcDbVisualStyle
  3
ObjectDBX Classes
 90
4095
 91
0
280
0
281
0
  0
CLASS
  1
MATERIAL
  2
AcDbMaterial
  3
ObjectDBX Classes
 90
1153
 91
0
280
0
281
0
  0
CLASS
  1
SCALE
  2
AcDbScale
  3
ObjectDBX Classes
 90
1153
 91
0
280
0
281
0
  0
CLASS
  1
TABLESTYLE
  2
AcDbTableStyle
  3
ObjectDBX Classes
 90
4095
 91
0
280
0
281
0
  0
CLASS
  1
MLEADERSTYLE
  2
AcDbMLeaderStyle
  3
ACDB_MLEADERSTYLE_CLASS
 90
4095
 91
0
280
0
281
0
  0
CLASS
  1
DICTIONARYVAR
  2
AcDbDictionaryVar
  3
ObjectDBX Classes
 90
0
 91
0
280
0
281
0
  0
CLASS
  1
CELLSTYLEMAP
  2
AcDbCellStyleMap
  3
ObjectDBX Classes
 90
1152
 91
0
280
0
281
0
  0
CLASS
  1
MENTALRAYRENDERSETTINGS
  2
AcDbMentalRayRenderSettings
  3
SCENEOE
 90
1024
 91
0
280
0
281
0
  0
CLASS
  1
ACDBDETAILVIEWSTYLE
  2
AcDbDetailViewStyle
  3
ObjectDBX Classes
 90
1025
 91
0
280
0
281
0
  0
CLASS
  1
ACDBSECTIONVIEWSTYLE
  2
AcDbSectionViewStyle
  3
ObjectDBX Classes
 90
1025
 91
0
280
0
281
0
  0
CLASS
  1
RASTERVARIABLES
  2
AcDbRasterVariables
  3
ISM
 90
0
 91
0
280
0
281
0
  0
CLASS
  1
ACDBPLACEHOLDER
  2
AcDbPlaceHolder
  3
ObjectDBX Classes
 90
0
 91
0
280
0
281
0
  0
CLASS
  1
LAYOUT
  2
AcDbLayout
  3
ObjectDBX Classes
 90
0
 91
0
280
0
281
0
  0
ENDSEC
  0
SECTION
  2
TABLES
  0
TABLE
  2
VPORT
  5
8
330
0
100
AcDbSymbolTable
 70
1
  0
VPORT
  5
23
330
8
100
AcDbSymbolTableRecord
100
AcDbViewportTableRecord
  2
*Active
 70
0
 10
0.0
 20
0.0
 11
1.0
 21
1.0
 12
0.0
 22
0.0
 13
0.0
 23
0.0
 14
0.5
 24
0.5
 15
0.5
 25
0.5
 16
0.0
 26
0.0
 36
1.0
 17
0.0
 27
0.0
 37
0.0
 40
1000.0
 41
1.34
 42
50.0
 43
0.0
 44
0.0
 50
0.0
 51
0.0
 71
0
 72
1000
 73
1
 74
3
 75
0
 76
0
 77
0
 78
0
281
0
 65
0
146
0.0
  0
ENDTAB
  0
TABLE
  2
LTYPE
  5
2
330
0
100
AcDbSymbolTable
 70
3
  0
LTYPE
  5
24
330
2
100
AcDbSymbolTableRecord
100
AcDbLinetypeTableRecord
  2
ByBlock
 70
0
  3

 72
65
 73
0
 40
0.0
  0
LTYPE
  5
25
330
2
100
AcDbSymbolTableRecord
100
AcDbLinetypeTableRecord
  2
ByLayer
 70
0
  3

 72
65
 73
0
 40
0.0
  0
LTYPE
  5
26
330
2
100
AcDbSymbolTableRecord
100
AcDbLinetypeTableRecord
  2
Continuous
 70
0
  3

 72
65
 73
0
 40
0.0
  0
ENDTAB
  0
TABLE
  2
LAYER
  5
1
330
0
100
AcDbSymbolTable
 70
6
  0
LAYER
  5
27
330
1
100
AcDbSymbolTableRecord
100
AcDbLayerTableRecord
  2
0
 70
0
 62
7
  6
Continuous
370
-3
390
13
347
21
  0
LAYER
  5
28
330
1
100
AcDbSymbolTableRecord
100
AcDbLayerTableRecord
  2
Defpoints
 70
0
 62
7
  6
Continuous
290
0
370
-3
390
13
347
21
  0
LAYER
  5
2F
330
1
100
AcDbSymbolTableRecord
100
AcDbLayerTableRecord
  2
CUT
 70
0
 62
7
  6
Continuous
370
-3
390
13
347
21
  0
LAYER
  5
30
330
1
100
AcDbSymbolTableRecord
100
AcDbLayerTableRecord
  2
MARK
 70
0
 62
3
  6
Continuous
370
-3
390
13
347
21
  0
LAYER
  5
31
330
1
100
AcDbSymbolTableRecord
100
AcDbLayerTableRecord
  2
BEVEL_REFERENCE_DO_NOT_CUT
 70
0
 62
30
  6
Continuous
370
-3
390
13
347
21
  0
LAYER
  5
32
330
1
100
AcDbSymbolTableRecord
100
AcDbLayerTableRecord
  2
STOCK_REFERENCE_DO_NOT_CUT
 70
0
 62
8
  6
Continuous
370
-3
390
13
347
21
  0
ENDTAB
  0
TABLE
  2
STYLE
  5
5
330
0
100
AcDbSymbolTable
 70
1
  0
STYLE
  5
29
330
5
100
AcDbSymbolTableRecord
100
AcDbTextStyleTableRecord
  2
Standard
 70
0
 40
0.0
 41
1.0
 50
0.0
 71
0
 42
2.5
  3
txt
  4

  0
ENDTAB
  0
TABLE
  2
VIEW
  5
7
330
0
100
AcDbSymbolTable
 70
0
  0
ENDTAB
  0
TABLE
  2
UCS
  5
6
330
0
100
AcDbSymbolTable
 70
0
  0
ENDTAB
  0
TABLE
  2
APPID
  5
3
330
0
100
AcDbSymbolTable
 70
3
  0
APPID
  5
2A
330
3
100
AcDbSymbolTableRecord
100
AcDbRegAppTableRecord
  2
ACAD
 70
0
  0
APPID
  5
4C
330
3
100
AcDbSymbolTableRecord
100
AcDbRegAppTableRecord
  2
HATCHBACKGROUNDCOLOR
 70
0
  0
APPID
  5
4D
330
3
100
AcDbSymbolTableRecord
100
AcDbRegAppTableRecord
  2
EZDXF
 70
0
  0
ENDTAB
  0
TABLE
  2
DIMSTYLE
  5
4
330
0
100
AcDbSymbolTable
 70
1
100
AcDbDimStyleTable
  0
DIMSTYLE
105
2B
330
4
100
AcDbSymbolTableRecord
100
AcDbDimStyleTableRecord
  2
Standard
 70
0
 40
1.0
 41
2.5
 42
0.625
 43
3.75
 44
1.25
 45
0.0
 46
0.0
 47
0.0
 48
0.0
 49
2.5
140
2.5
141
2.5
142
0.0
143
0.03937007874
144
1.0
145
0.0
146
1.0
147
0.625
148
0.0
 69
0
 70
0
 71
0
 72
0
 73
0
 74
0
 75
0
 76
0
 77
1
 78
8
 79
3
170
0
171
3
172
1
173
0
174
0
175
0
176
0
177
0
178
0
179
2
271
2
272
2
273
2
274
3
275
0
276
0
277
2
278
44
279
0
280
0
281
0
282
0
283
0
284
8
285
0
286
0
288
0
289
3
290
0
371
-2
372
-2
  0
ENDTAB
  0
TABLE
  2
BLOCK_RECORD
  5
9
330
0
100
AcDbSymbolTable
 70
2
  0
BLOCK_RECORD
  5
17
330
9
100
AcDbSymbolTableRecord
100
AcDbBlockTableRecord
  2
*Model_Space
340
1A
 70
0
280
1
281
0
  0
BLOCK_RECORD
  5
1B
330
9
100
AcDbSymbolTableRecord
100
AcDbBlockTableRecord
  2
*Paper_Space
340
1E
 70
0
280
1
281
0
  0
ENDTAB
  0
ENDSEC
  0
SECTION
  2
BLOCKS
  0
BLOCK
  5
18
330
17
100
AcDbEntity
  8
0
100
AcDbBlockBegin
  2
*Model_Space
 70
0
 10
0.0
 20
0.0
 30
0.0
  3
*Model_Space
  1

  0
ENDBLK
  5
19
330
17
100
AcDbEntity
  8
0
100
AcDbBlockEnd
  0
BLOCK
  5
1C
330
1B
100
AcDbEntity
  8
0
100
AcDbBlockBegin
  2
*Paper_Space
 70
0
 10
0.0
 20
0.0
 30
0.0
  3
*Paper_Space
  1

  0
ENDBLK
  5
1D
330
1B
100
AcDbEntity
  8
0
100
AcDbBlockEnd
  0
ENDSEC
  0
SECTION
  2
ENTITIES
  0
LWPOLYLINE
  5
33
330
17
100
AcDbEntity
  8
STOCK_REFERENCE_DO_NOT_CUT
100
AcDbPolyline
 90
4
 70
1
 10
0.0
 20
0.0
 10
1000.0
 20
0.0
 10
1000.0
 20
600.0
 10
0.0
 20
600.0
  0
LWPOLYLINE
  5
34
330
17
100
AcDbEntity
  8
CUT
100
AcDbPolyline
 90
52
 70
1
 10
83.40419
 20
293.7412
 10
81.22429
 20
293.7412
 10
79.03526
 20
293.7412
 10
76.83083
 20
293.74118999999996
 10
74.60615
 20
293.74118
 10
72.35774
 20
293.74117
 10
70.07975
 20
293.74116
 10
67.77557
 20
293.74115
 10
65.44472
 20
293.74114
 10
63.08673
 20
293.74113
 10
60.70192
 20
293.74111999999997
 10
57.48229
 20
293.74111
 10
53.81007
 20
293.74109
 10
50.09205
 20
293.74107
 10
46.33957
 20
293.74105
 10
42.56964
 20
293.74102999999997
 10
38.79566
 20
293.74102
 10
35.03122
 20
293.74100999999996
 10
31.29028
 20
293.741
 10
27.58702
 20
293.741
 10
23.93564
 20
293.74102
 10
20.35008
 20
293.74102999999997
 10
16.84383
 20
293.74105
 10
13.42951
 20
293.74109
 10
10.12924
 20
293.74113
 10
7.53375
 20
293.74116
 10
5.0
 20
293.7412
 10
5.00181
 20
423.7412
 10
7.6765
 20
423.74116
 10
10.33914
 20
423.74113
 10
14.28028
 20
423.74108
 10
19.14019
 20
423.74104
 10
24.0178
 20
423.74102
 10
28.92445
 20
423.741
 10
33.80849
 20
423.74100999999996
 10
38.67009
 20
423.74102
 10
43.52573
 20
423.74104
 10
47.84952
 20
423.74105999999995
 10
51.11064
 20
423.74108
 10
54.3833
 20
423.74109
 10
57.65283
 20
423.74111
 10
60.90996
 20
423.74112
 10
63.79808
 20
423.74113
 10
65.96611
 20
423.74114
 10
68.14131
 20
423.74114999999995
 10
70.32815
 20
423.74116
 10
72.51878
 20
423.74117
 10
74.70027
 20
423.74118
 10
76.87026
 20
423.74118999999996
 10
79.03697
 20
423.7412
 10
81.21086
 20
423.7412
 10
83.40414
 20
423.7412
  0
TEXT
  5
35
330
17
100
AcDbEntity
  8
MARK
100
AcDbText
 10
44.20253499932308
 20
358.74109999999996
 30
0.0
 40
2.5
  1
SKIN_F25
100
AcDbText
  0
LWPOLYLINE
  5
36
330
17
100
AcDbEntity
  8
CUT
100
AcDbPolyline
 90
49
 70
1
 10
145.35408999999999
 20
5.00041
 10
143.17419
 20
5.00037
 10
140.98516
 20
5.00033
 10
138.78073
 20
5.00028
 10
136.55605
 20
5.00024
 10
134.30764
 20
5.0002
 10
132.02965
 20
5.00016
 10
129.72547
 20
5.00012
 10
127.39461
 20
5.00009
 10
125.03663
 20
5.00007
 10
122.65181000000001
 20
5.00004
 10
119.43219
 20
5.00002
 10
115.75997000000001
 20
5.00001
 10
112.04195
 20
5.0
 10
108.28945
 20
5.0
 10
104.5195
 20
5.00001
 10
100.74533
 20
5.00003
 10
96.98047
 20
5.00005
 10
93.23901000000001
 20
5.00007
 10
89.53533
 20
5.00011
 10
85.88388
 20
5.00015
 10
82.29904
 20
5.00019
 10
78.79382000000001
 20
5.00023
 10
75.37951000000001
 20
5.00028
 10
72.07924
 20
5.00032
 10
69.48375
 20
5.00035
 10
66.95
 20
5.00041
 10
66.95243
 20
135.00041
 10
71.66064
 20
135.00032
 10
75.65951
 20
135.00027
 10
79.03781000000001
 20
135.00024
 10
82.07998
 20
135.0002
 10
86.22878
 20
135.00015
 10
90.99933
 20
135.0001
 10
95.84868
 20
135.00006
 10
100.74501000000001
 20
135.00003
 10
105.65717000000001
 20
135.00001
 10
110.55553
 20
135.0
 10
115.40721
 20
135.00001
 10
120.18283
 20
135.00003
 10
124.40231
 20
135.00006
 10
128.12995
 20
135.0001
 10
131.42716000000001
 20
135.00015
 10
134.34910000000002
 20
135.0002
 10
136.9385
 20
135.00025
 10
139.24255
 20
135.00029
 10
141.52577000000002
 20
135.00034
 10
143.44194
 20
135.00037
 10
145.35175
 20
135.00041
  0
TEXT
  5
37
330
17
100
AcDbEntity
  8
MARK
100
AcDbText
 10
106.15206749992905
 20
70.000205
 30
0.0
 40
2.5
  1
SKIN_F26
100
AcDbText
  0
LWPOLYLINE
  5
38
330
17
100
AcDbEntity
  8
CUT
100
AcDbPolyline
 90
123
 70
1
 10
5.36871
 20
101.18875
 10
5.43952
 20
103.49237
 10
5.44111
 20
103.52323
 10
5.44889
 20
103.66593
 10
5.56714
 20
107.14149
 10
5.59237
 20
107.85336
 10
5.7327
 20
111.28935
 10
5.78783
 20
112.64539
 10
5.81128
 20
113.16149
 10
5.88756
 20
114.90557
 10
6.01067
 20
117.4279
 10
6.19287
 20
120.99188
 10
6.55735
 20
127.19549
 10
6.6343
 20
128.60764
 10
6.6848
 20
129.4396
 10
6.83937
 20
131.74834
 10
7.14089
 20
136.15354
 10
7.24981
 20
137.61794
 10
7.56424
 20
141.87832
 10
8.08651
 20
148.23725
 10
8.12119
 20
148.65956
 10
8.18088
 20
149.39706
 10
10.44452
 20
149.177
 10
23.45936
 20
147.83436
 10
36.47454
 20
146.41712
 10
50.82468
 20
144.76038
 10
60.94961
 20
143.53393
 10
60.51237
 20
138.26254
 10
60.23672
 20
135.11391
 10
60.02045
 20
132.27931
 10
59.91858
 20
130.87896
 10
59.75712
 20
128.5317
 10
59.62847
 20
126.64938
 10
59.25866
 20
120.44273
 10
59.12821
 20
118.18145
 10
59.06704
 20
116.93838
 10
58.86716
 20
113.00934
 10
58.81155
 20
111.81864
 10
58.7892
 20
111.32379
 10
58.7186
 20
109.69902
 10
58.66085
 20
108.2538
 10
58.54824
 20
105.45092
 10
58.42974
 20
102.07683
 10
58.40048
 20
101.20473
 10
58.39373
 20
100.8811
 10
58.33973
 20
99.08342
 10
58.32929
 20
98.71285
 10
58.30403
 20
97.76012
 10
58.25065
 20
95.66159
 10
58.17502
 20
92.70276
 10
58.06692
 20
85.16358
 10
58.05008
 20
84.21399
 10
58.04124
 20
83.43779
 10
58.01949
 20
79.96418
 10
58.0061
 20
73.65917
 10
58.00354
 20
73.04992
 10
58.00301
 20
72.93259
 10
58.00208
 20
72.64293
 10
58.03096
 20
67.52445
 10
58.04357
 20
66.85497
 10
58.11101
 20
61.77393
 10
58.15278
 20
59.86827
 10
58.15106
 20
59.47434
 10
58.19563
 20
57.45514
 10
58.30935
 20
52.59601
 10
58.38355
 20
50.27561
 10
58.42823
 20
48.92396
 10
58.65397
 20
43.67192
 10
58.84873
 20
39.33584
 10
58.8891
 20
38.15105
 10
58.96884
 20
36.70073
 10
59.14271
 20
33.46251
 10
59.27658
 20
31.53564
 10
59.61531
 20
26.00995
 10
59.78504
 20
23.9592
 10
60.14209
 20
19.88097
 10
60.32674
 20
17.50734
 10
60.48488
 20
15.89987
 10
60.66613
 20
14.00666
 10
60.86676
 20
12.04873
 10
60.92843
 20
11.39773
 10
60.94961
 20
11.06982
 10
44.08893
 20
8.7996
 10
33.6268
 20
7.54254
 10
23.14604
 20
6.41392
 10
12.68945
 20
5.41507
 10
8.13131
 20
5.0
 10
7.81255
 20
9.09426
 10
7.60177
 20
11.77883
 10
7.24818
 20
16.73196
 10
7.13042
 20
18.26331
 10
6.90609
 20
21.60027
 10
6.74736
 20
23.95977
 10
6.62764
 20
25.96911
 10
6.2962
 20
31.69828
 10
6.13827
 20
34.52229
 10
6.07023
 20
35.80977
 10
5.95838
 20
38.14155
 10
5.85158
 20
40.5793
 10
5.73216
 20
43.49455
 10
5.65048
 20
45.37842
 10
5.52679
 20
49.06989
 10
5.42714
 20
51.49975
 10
5.39215
 20
53.47313
 10
5.26995
 20
57.10618
 10
5.23206
 20
59.61135
 10
5.16382
 20
62.02755
 10
5.15384
 20
62.43061
 10
5.1424
 20
64.64591
 10
5.03868
 20
70.0321
 10
5.03304
 20
70.89851
 10
5.01747
 20
72.54813
 10
5.01113
 20
73.1061
 10
5.00702
 20
75.02407
 10
5.0014
 20
75.70208
 10
5.0
 20
75.92944
 10
5.01228
 20
78.85627
 10
5.01071
 20
80.40037
 10
5.0249
 20
81.08775
 10
5.0603
 20
87.10334
 10
5.14102
 20
91.24782
 10
5.18361
 20
94.10902
 10
5.285
 20
97.93131
  0
TEXT
  5
39
330
17
100
AcDbEntity
  8
MARK
100
AcDbText
 10
31.51008462829956
 20
77.392855
 30
0.0
 40
2.5
  1
SKIN_F28
100
AcDbText
  0
LWPOLYLINE
  5
3A
330
17
100
AcDbEntity
  8
CUT
100
AcDbPolyline
 90
125
 70
1
 10
5.05638
 20
227.71452
 10
5.06163
 20
228.49194
 10
5.0889
 20
229.44272999999998
 10
5.25989
 20
236.98575999999997
 10
5.36482
 20
239.94421
 10
5.44119
 20
242.04131
 10
5.48006
 20
242.99324
 10
5.49382
 20
243.36351
 10
5.57013
 20
245.15839
 10
5.58379
 20
245.48145
 10
5.62583
 20
246.35231
 10
5.78967
 20
249.72175
 10
5.94597
 20
252.52351
 10
6.0238
 20
253.96868999999998
 10
6.12405
 20
255.59293
 10
6.15191
 20
256.08747
 10
6.23243
 20
257.27711
 10
6.49832
 20
261.20439999999996
 10
6.58764
 20
262.44644999999997
 10
6.77615
 20
264.70367999999996
 10
7.27514
 20
270.90105
 10
7.45097
 20
272.77986999999996
 10
7.67147
 20
275.12185999999997
 10
7.81543
 20
276.51896999999997
 10
8.10259
 20
279.34776999999997
 10
8.46488
 20
282.48816
 10
9.06649
 20
287.74094
 10
13.25421
 20
287.11825999999996
 10
26.842
 20
285.02507
 10
40.42379
 20
282.85533
 10
53.20106
 20
280.71823
 10
61.49799
 20
279.27828999999997
 10
61.18644
 20
277.03688999999997
 10
61.03424
 20
275.86368
 10
60.76259
 20
273.66889
 10
60.36317
 20
270.06399999999996
 10
60.20755
 20
268.69696
 10
60.13169
 20
267.92236
 10
60.00644
 20
266.6226
 10
59.68275
 20
263.29248
 10
59.49903
 20
261.19512
 10
59.23332
 20
257.86399
 10
59.0885
 20
256.01836
 10
59.01604
 20
254.84013
 10
58.80255
 20
251.65508999999997
 10
58.78674
 20
251.44108
 10
58.70243
 20
250.00084999999999
 10
58.66538
 20
249.31061
 10
58.34671
 20
243.21582
 10
58.30284
 20
242.26369
 10
58.23529
 20
240.72698
 10
58.21162
 20
240.06463
 10
58.15741
 20
238.62488
 10
58.09142
 20
236.92401
 10
58.07582
 20
236.33159
 10
57.97706
 20
232.88256
 10
57.89754
 20
229.49084
 10
57.88408
 20
228.62078
 10
57.89055
 20
227.96077
 10
57.84907
 20
225.021
 10
57.83756
 20
223.88936
 10
57.83168
 20
223.38529
 10
57.83048
 20
222.74615999999997
 10
57.80565
 20
217.94286
 10
57.8057
 20
217.91298
 10
57.80576
 20
217.85661
 10
57.8057
 20
217.65864
 10
57.80654
 20
217.25396999999998
 10
57.81594
 20
215.47773
 10
57.82016
 20
214.50103
 10
57.8311
 20
213.57272
 10
57.85157
 20
210.85003999999998
 10
57.89543
 20
209.17676
 10
57.90544
 20
208.43063999999998
 10
57.94106
 20
206.94588
 10
58.01725
 20
204.08476
 10
58.04208
 20
203.27002
 10
58.19381
 20
199.30978
 10
58.21136
 20
198.86688999999998
 10
58.26203
 20
197.15173
 10
58.56492
 20
192.2339
 10
58.99712
 20
186.13927999999999
 10
59.11435
 20
184.52535999999998
 10
59.35141
 20
182.07477
 10
59.42479
 20
181.31246
 10
59.48805
 20
180.61203
 10
59.97086
 20
175.89803
 10
60.31624
 20
173.15321
 10
60.64321
 20
170.73624999999998
 10
61.05213
 20
167.93424
 10
61.49799
 20
165.14556
 10
55.03227
 20
163.78793
 10
43.82038
 20
161.52402999999998
 10
32.57731
 20
159.3978
 10
21.16938
 20
157.39453999999998
 10
9.7564
 20
155.52249
 10
8.97108
 20
155.397
 10
8.92976
 20
155.72283
 10
8.84979
 20
156.37135999999998
 10
8.6184
 20
158.32523
 10
8.37932
 20
160.21141
 10
8.17587
 20
161.81417
 10
7.93956
 20
164.18362
 10
7.49056
 20
168.25284
 10
7.29707
 20
170.30154
 10
6.778
 20
175.81678
 10
6.62483
 20
177.74223
 10
6.37648
 20
180.97608
 10
6.28011
 20
182.42559999999997
 10
6.18986
 20
183.60748999999998
 10
5.91396
 20
187.9382
 10
5.65841
 20
193.18889
 10
5.58066
 20
194.53859999999997
 10
5.50991
 20
196.85935
 10
5.29283
 20
201.71613
 10
5.24271
 20
203.73568999999998
 10
5.2282
 20
204.12878
 10
5.19708
 20
206.03295
 10
5.075
 20
211.11347
 10
5.06259
 20
211.78350999999998
 10
5.00702
 20
216.91027
 10
5.00072
 20
217.20026
 10
5.0
 20
217.31774
 10
5.00228
 20
217.92786
 10
5.00815
 20
224.23739999999998
  0
TEXT
  5
3B
330
17
100
AcDbEntity
  8
MARK
100
AcDbText
 10
31.41129664973992
 20
220.34450999999999
 30
0.0
 40
2.5
  1
SKIN_F29
100
AcDbText
  0
LWPOLYLINE
  5
3C
330
17
100
AcDbEntity
  8
CUT
100
AcDbPolyline
 90
5
 70
1
 10
200.0115
 20
33.84952
 10
200.08485
 20
72.15559999999999
 10
473.41746
 20
56.74512
 10
473.41866
 20
10.0
 10
200.0
 20
10.0
  0
LWPOLYLINE
  5
3D
330
17
100
AcDbEntity
  8
CUT
100
AcDbPolyline
 90
6
 70
1
 10
215.3299
 20
17.57461
 10
215.34488
 20
30.72639
 10
212.04802
 20
30.72639
 10
212.01866
 20
29.42539
 10
212.00368
 20
16.273609999999998
 10
215.30054
 20
16.273609999999998
  0
LWPOLYLINE
  5
3E
330
17
100
AcDbEntity
  8
BEVEL_REFERENCE_DO_NOT_CUT
100
AcDbPolyline
 90
2
 70
0
 10
200.0
 20
15.0
 10
473.4186608520973
 20
15.0
  0
TEXT
  5
3F
330
17
100
AcDbEntity
  8
MARK
100
AcDbText
 10
336.7255872895247
 20
45.29732
 30
0.0
 40
2.5
  1
AR
100
AcDbText
  0
LWPOLYLINE
  5
40
330
17
100
AcDbEntity
  8
CUT
100
AcDbPolyline
 90
5
 70
1
 10
473.40716
 20
102.00511999999999
 10
473.41866
 20
78.15559999999999
 10
200.0
 20
78.15559999999999
 10
200.0012
 20
124.90071999999999
 10
473.33381
 20
140.31119999999999
  0
LWPOLYLINE
  5
41
330
17
100
AcDbEntity
  8
CUT
100
AcDbPolyline
 90
6
 70
1
 10
458.08876
 20
85.73021
 10
458.11812
 20
84.42921
 10
461.41498
 20
84.42921
 10
461.4
 20
97.58098999999999
 10
461.37064
 20
98.88198999999999
 10
458.07378
 20
98.88198999999999
  0
LWPOLYLINE
  5
42
330
17
100
AcDbEntity
  8
BEVEL_REFERENCE_DO_NOT_CUT
100
AcDbPolyline
 90
2
 70
0
 10
200.0
 20
83.15559999999999
 10
473.4186608520973
 20
83.15559999999999
  0
TEXT
  5
43
330
17
100
AcDbEntity
  8
MARK
100
AcDbText
 10
336.69307271047535
 20
113.45291999999999
 30
0.0
 40
2.5
  1
AL
100
AcDbText
  0
LWPOLYLINE
  5
44
330
17
100
AcDbEntity
  8
CUT
100
AcDbPolyline
 90
4
 70
1
 10
200.00009
 20
146.31119999999999
 10
200.0
 20
186.34216999999998
 10
464.0358
 20
186.34216999999998
 10
464.0357
 20
146.31119999999999
  0
LWPOLYLINE
  5
45
330
17
100
AcDbEntity
  8
CUT
100
AcDbPolyline
 90
6
 70
1
 10
221.56259
 20
153.06224999999998
 10
221.19655
 20
166.35428
 10
217.551
 20
166.55906
 10
213.73032
 20
166.55906
 10
214.09636
 20
153.26702999999998
 10
217.74191
 20
153.06224999999998
  0
LWPOLYLINE
  5
46
330
17
100
AcDbEntity
  8
BEVEL_REFERENCE_DO_NOT_CUT
100
AcDbPolyline
 90
2
 70
0
 10
200.0
 20
151.31065399969847
 10
464.03579569621263
 20
151.31065399969847
  0
TEXT
  5
47
330
17
100
AcDbEntity
  8
MARK
100
AcDbText
 10
342.7062420376478
 20
159.810655
 30
0.0
 40
2.5
  1
TRC
100
AcDbText
  0
LWPOLYLINE
  5
48
330
17
100
AcDbEntity
  8
CUT
100
AcDbPolyline
 90
4
 70
1
 10
464.0357
 20
192.34216999999998
 10
200.00009
 20
192.34216999999998
 10
200.0
 20
232.37313999999998
 10
464.0358
 20
232.37313999999998
  0
LWPOLYLINE
  5
49
330
17
100
AcDbEntity
  8
CUT
100
AcDbPolyline
 90
6
 70
1
 10
442.47321
 20
199.09321999999997
 10
446.29388
 20
199.09321999999997
 10
449.93943
 20
199.29799999999997
 10
450.30547
 20
212.59002999999998
 10
446.4848
 20
212.59002999999998
 10
442.83925
 20
212.38524999999998
  0
LWPOLYLINE
  5
4A
330
17
100
AcDbEntity
  8
BEVEL_REFERENCE_DO_NOT_CUT
100
AcDbPolyline
 90
2
 70
0
 10
200.0
 20
197.34162399969847
 10
464.03579569621263
 20
197.34162399969847
  0
TEXT
  5
4B
330
17
100
AcDbEntity
  8
MARK
100
AcDbText
 10
321.3295546484786
 20
205.84162499999996
 30
0.0
 40
2.5
  1
TLC
100
AcDbText
  0
ENDSEC
  0
SECTION
  2
OBJECTS
  0
DICTIONARY
  5
A
330
0
100
AcDbDictionary
281
1
  3
ACAD_COLOR
350
B
  3
ACAD_GROUP
350
C
  3
ACAD_LAYOUT
350
D
  3
ACAD_MATERIAL
350
E
  3
ACAD_MLEADERSTYLE
350
F
  3
ACAD_MLINESTYLE
350
10
  3
ACAD_PLOTSETTINGS
350
11
  3
ACAD_PLOTSTYLENAME
350
12
  3
ACAD_SCALELIST
350
14
  3
ACAD_TABLESTYLE
350
15
  3
ACAD_VISUALSTYLE
350
16
  3
EZDXF_META
350
2D
  0
DICTIONARY
  5
B
330
A
100
AcDbDictionary
281
1
  0
DICTIONARY
  5
C
330
A
100
AcDbDictionary
281
1
  0
DICTIONARY
  5
D
330
A
100
AcDbDictionary
281
1
  3
Model
350
1A
  3
Layout1
350
1E
  0
DICTIONARY
  5
E
330
A
100
AcDbDictionary
281
1
  3
ByBlock
350
1F
  3
ByLayer
350
20
  3
Global
350
21
  0
DICTIONARY
  5
F
330
A
100
AcDbDictionary
281
1
  3
Standard
350
2C
  0
DICTIONARY
  5
10
330
A
100
AcDbDictionary
281
1
  3
Standard
350
22
  0
DICTIONARY
  5
11
330
A
100
AcDbDictionary
281
1
  0
ACDBDICTIONARYWDFLT
  5
12
330
A
100
AcDbDictionary
281
1
  3
Normal
350
13
100
AcDbDictionaryWithDefault
340
13
  0
ACDBPLACEHOLDER
  5
13
330
12
  0
DICTIONARY
  5
14
330
A
100
AcDbDictionary
281
1
  0
DICTIONARY
  5
15
330
A
100
AcDbDictionary
281
1
  0
DICTIONARY
  5
16
330
A
100
AcDbDictionary
281
1
  0
LAYOUT
  5
1A
330
D
100
AcDbPlotSettings
  1

  4
A3
  6

 40
7.5
 41
20.0
 42
7.5
 43
20.0
 44
420.0
 45
297.0
 46
0.0
 47
0.0
 48
0.0
 49
0.0
140
0.0
141
0.0
142
1.0
143
1.0
 70
1024
 72
1
 73
0
 74
5
  7

 75
16
 76
0
 77
2
 78
300
147
1.0
148
0.0
149
0.0
100
AcDbLayout
  1
Model
 70
1
 71
0
 10
0.0
 20
0.0
 11
420.0
 21
297.0
 12
0.0
 22
0.0
 32
0.0
 14
1e+20
 24
1e+20
 34
1e+20
 15
-1e+20
 25
-1e+20
 35
-1e+20
146
0.0
 13
0.0
 23
0.0
 33
0.0
 16
1.0
 26
0.0
 36
0.0
 17
0.0
 27
1.0
 37
0.0
 76
1
330
17
  0
LAYOUT
  5
1E
330
D
100
AcDbPlotSettings
  1

  4
A3
  6

 40
7.5
 41
20.0
 42
7.5
 43
20.0
 44
420.0
 45
297.0
 46
0.0
 47
0.0
 48
0.0
 49
0.0
140
0.0
141
0.0
142
1.0
143
1.0
 70
0
 72
1
 73
0
 74
5
  7

 75
16
 76
0
 77
2
 78
300
147
1.0
148
0.0
149
0.0
100
AcDbLayout
  1
Layout1
 70
1
 71
1
 10
0.0
 20
0.0
 11
420.0
 21
297.0
 12
0.0
 22
0.0
 32
0.0
 14
1e+20
 24
1e+20
 34
1e+20
 15
-1e+20
 25
-1e+20
 35
-1e+20
146
0.0
 13
0.0
 23
0.0
 33
0.0
 16
1.0
 26
0.0
 36
0.0
 17
0.0
 27
1.0
 37
0.0
 76
1
330
1B
  0
MATERIAL
  5
1F
102
{ACAD_REACTORS
330
E
102
}
330
E
100
AcDbMaterial
  1
ByBlock
  2

 70
0
 40
1.0
 71
1
 41
1.0
 91
-1023410177
 42
1.0
 72
1
  3

 73
1
 74
1
 75
1
 44
0.5
 73
0
 45
1.0
 46
1.0
 77
1
  4

 78
1
 79
1
170
1
 48
1.0
171
1
  6

172
1
173
1
174
1
140
1.0
141
1.0
175
1
  7

176
1
177
1
178
1
143
1.0
179
1
  8

270
1
271
1
272
1
145
1.0
146
1.0
273
1
  9

274
1
275
1
276
1
 42
1.0
 72
1
  3

 73
1
 74
1
 75
1
 94
63
  0
MATERIAL
  5
20
102
{ACAD_REACTORS
330
E
102
}
330
E
100
AcDbMaterial
  1
ByLayer
  2

 70
0
 40
1.0
 71
1
 41
1.0
 91
-1023410177
 42
1.0
 72
1
  3

 73
1
 74
1
 75
1
 44
0.5
 73
0
 45
1.0
 46
1.0
 77
1
  4

 78
1
 79
1
170
1
 48
1.0
171
1
  6

172
1
173
1
174
1
140
1.0
141
1.0
175
1
  7

176
1
177
1
178
1
143
1.0
179
1
  8

270
1
271
1
272
1
145
1.0
146
1.0
273
1
  9

274
1
275
1
276
1
 42
1.0
 72
1
  3

 73
1
 74
1
 75
1
 94
63
  0
MATERIAL
  5
21
102
{ACAD_REACTORS
330
E
102
}
330
E
100
AcDbMaterial
  1
Global
  2

 70
0
 40
1.0
 71
1
 41
1.0
 91
-1023410177
 42
1.0
 72
1
  3

 73
1
 74
1
 75
1
 44
0.5
 73
0
 45
1.0
 46
1.0
 77
1
  4

 78
1
 79
1
170
1
 48
1.0
171
1
  6

172
1
173
1
174
1
140
1.0
141
1.0
175
1
  7

176
1
177
1
178
1
143
1.0
179
1
  8

270
1
271
1
272
1
145
1.0
146
1.0
273
1
  9

274
1
275
1
276
1
 42
1.0
 72
1
  3

 73
1
 74
1
 75
1
 94
63
  0
MLINESTYLE
  5
22
102
{ACAD_REACTORS
330
10
102
}
330
10
100
AcDbMlineStyle
  2
Standard
 70
0
  3

 62
256
 51
90.0
 52
90.0
 71
2
 49
0.5
 62
256
  6
BYLAYER
 49
-0.5
 62
256
  6
BYLAYER
  0
MLEADERSTYLE
  5
2C
102
{ACAD_REACTORS
330
F
102
}
330
F
100
AcDbMLeaderStyle
179
2
170
2
171
1
172
0
 90
2
 40
0.0
 41
0.0
173
1
 91
-1056964608
 92
-2
290
1
 42
2.0
291
1
 43
8.0
  3
Standard
 44
4.0
300

342
29
174
1
175
1
176
0
178
1
 93
-1056964608
 45
4.0
292
0
297
0
 46
4.0
 94
-1056964608
 47
1.0
 49
1.0
140
1.0
294
1
141
0.0
177
0
142
1.0
295
0
296
0
143
3.75
271
0
272
9
273
9
  0
DICTIONARY
  5
2D
330
A
100
AcDbDictionary
280
1
281
1
  3
CREATED_BY_EZDXF
350
2E
  3
WRITTEN_BY_EZDXF
350
4E
  0
DICTIONARYVAR
  5
2E
330
2D
100
DictionaryVariables
280
0
  1
1.4.4 @ 2026-09-23T14:44:13.024221+00:00
  0
DICTIONARYVAR
  5
4E
330
2D
100
DictionaryVariables
280
0
  1
1.4.4 @ 2026-09-23T14:44:13.081998+00:00
  0
ENDSEC
  0
EOF
