  0
SECTION
  2
HEADER
  9
$ACADVER
  1
AC1024
  9
$ACADMAINTVER
 70
6
  9
$DWGCODEPAGE
  3
ANSI_1252
  9
$LASTSAVEDBY
  1
ezdxf
  9
$INSBASE
 10
0.0
 20
0.0
 30
0.0
  9
$EXTMIN
 10
1e+20
 20
1e+20
 30
1e+20
  9
$EXTMAX
 10
-1e+20
 20
-1e+20
 30
-1e+20
  9
$LIMMIN
 10
0.0
 20
0.0
  9
$LIMMAX
 10
420.0
 20
297.0
  9
$ORTHOMODE
 70
0
  9
$REGENMODE
 70
1
  9
$FILLMODE
 70
1
  9
$QTEXTMODE
 70
0
  9
$MIRRTEXT
 70
1
  9
$LTSCALE
 40
1.0
  9
$ATTMODE
 70
1
  9
$TEXTSIZE
 40
2.5
  9
$TRACEWID
 40
1.0
  9
$TEXTSTYLE
  7
Standard
  9
$CLAYER
  8
0
  9
$CELTYPE
  6
ByLayer
  9
$CECOLOR
 62
256
  9
$CELTSCALE
 40
1.0
  9
$DISPSILH
 70
0
  9
$DIMSCALE
 40
1.0
  9
$DIMASZ
 40
2.5
  9
$DIMEXO
 40
0.625
  9
$DIMDLI
 40
3.75
  9
$DIMRND
 40
0.0
  9
$DIMDLE
 40
0.0
  9
$DIMEXE
 40
1.25
  9
$DIMTP
 40
0.0
  9
$DIMTM
 40
0.0
  9
$DIMTXT
 40
2.5
  9
$DIMCEN
 40
2.5
  9
$DIMTSZ
 40
0.0
  9
$DIMTOL
 70
0
  9
$DIMLIM
 70
0
  9
$DIMTIH
 70
0
  9
$DIMTOH
 70
0
  9
$DIMSE1
 70
0
  9
$DIMSE2
 70
0
  9
$DIMTAD
 70
1
  9
$DIMZIN
 70
8
  9
$DIMBLK
  1

  9
$DIMASO
 70
1
  9
$DIMSHO
 70
1
  9
$DIMPOST
  1

  9
$DIMAPOST
  1

  9
$DIMALT
 70
0
  9
$DIMALTD
 70
3
  9
$DIMALTF
 40
0.03937007874
  9
$DIMLFAC
 40
1.0
  9
$DIMTOFL
 70
1
  9
$DIMTVP
 40
0.0
  9
$DIMTIX
 70
0
  9
$DIMSOXD
 70
0
  9
$DIMSAH
 70
0
  9
$DIMBLK1
  1

  9
$DIMBLK2
  1

  9
$DIMSTYLE
  2
ISO-25
  9
$DIMCLRD
 70
0
  9
$DIMCLRE
 70
0
  9
$DIMCLRT
 70
0
  9
$DIMTFAC
 40
1.0
  9
$DIMGAP
 40
0.625
  9
$DIMJUST
 70
0
  9
$DIMSD1
 70
0
  9
$DIMSD2
 70
0
  9
$DIMTOLJ
 70
0
  9
$DIMTZIN
 70
8
  9
$DIMALTZ
 70
0
  9
$DIMALTTZ
 70
0
  9
$DIMUPT
 70
0
  9
$DIMDEC
 70
2
  9
$DIMTDEC
 70
2
  9
$DIMALTU
 70
2
  9
$DIMALTTD
 70
3
  9
$DIMTXSTY
  7
Standard
  9
$DIMAUNIT
 70
0
  9
$DIMADEC
 70
0
  9
$DIMALTRND
 40
0.0
  9
$DIMAZIN
 70
0
  9
$DIMDSEP
 70
44
  9
$DIMATFIT
 70
3
  9
$DIMFRAC
 70
0
  9
$DIMLDRBLK
  1

  9
$DIMLUNIT
 70
2
  9
$DIMLWD
 70
-2
  9
$DIMLWE
 70
-2
  9
$DIMTMOVE
 70
0
  9
$DIMFXL
 40
1.0
  9
$DIMFXLON
 70
0
  9
$DIMJOGANG
 40
0.785398163397
  9
$DIMTFILL
 70
0
  9
$DIMTFILLCLR
 70
0
  9
$DIMARCSYM
 70
0
  9
$DIMLTYPE
  6

  9
$DIMLTEX1
  6

  9
$DIMLTEX2
  6

  9
$DIMTXTDIRECTION
 70
0
  9
$LUNITS
 70
2
  9
$LUPREC
 70
4
  9
$SKETCHINC
 40
1.0
  9
$FILLETRAD
 40
10.0
  9
$AUNITS
 70
0
  9
$AUPREC
 70
2
  9
$MENU
  1
.
  9
$ELEVATION
 40
0.0
  9
$PELEVATION
 40
0.0
  9
$THICKNESS
 40
0.0
  9
$LIMCHECK
 70
0
  9
$CHAMFERA
 40
0.0
  9
$CHAMFERB
 40
0.0
  9
$CHAMFERC
 40
0.0
  9
$CHAMFERD
 40
0.0
  9
$SKPOLY
 70
0
  9
$TDCREATE
 40
2461307.396689815
  9
$TDUCREATE
 40
2458532.153996898
  9
$TDUPDATE
 40
2461307.396701389
  9
$TDUUPDATE
 40
2458532.1544311
  9
$TDINDWG
 40
0.0
  9
$TDUSRTIMER
 40
0.0
  9
$USRTIMER
 70
1
  9
$ANGBASE
 50
0.0
  9
$ANGDIR
 70
0
  9
$PDMODE
 70
0
  9
$PDSIZE
 40
0.0
  9
$PLINEWID
 40
0.0
  9
$SPLFRAME
 70
0
  9
$SPLINETYPE
 70
6
  9
$SPLINESEGS
 70
8
  9
$HANDSEED
  5
5B
  9
$SURFTAB1
 70
6
  9
$SURFTAB2
 70
6
  9
$SURFTYPE
 70
6
  9
$SURFU
 70
6
  9
$SURFV
 70
6
  9
$UCSBASE
  2

  9
$UCSNAME
  2

  9
$UCSORG
 10
0.0
 20
0.0
 30
0.0
  9
$UCSXDIR
 10
1.0
 20
0.0
 30
0.0
  9
$UCSYDIR
 10
0.0
 20
1.0
 30
0.0
  9
$UCSORTHOREF
  2

  9
$UCSORTHOVIEW
 70
0
  9
$UCSORGTOP
 10
0.0
 20
0.0
 30
0.0
  9
$UCSORGBOTTOM
 10
0.0
 20
0.0
 30
0.0
  9
$UCSORGLEFT
 10
0.0
 20
0.0
 30
0.0
  9
$UCSORGRIGHT
 10
0.0
 20
0.0
 30
0.0
  9
$UCSORGFRONT
 10
0.0
 20
0.0
 30
0.0
  9
$UCSORGBACK
 10
0.0
 20
0.0
 30
0.0
  9
$PUCSBASE
  2

  9
$PUCSNAME
  2

  9
$PUCSORG
 10
0.0
 20
0.0
 30
0.0
  9
$PUCSXDIR
 10
1.0
 20
0.0
 30
0.0
  9
$PUCSYDIR
 10
0.0
 20
1.0
 30
0.0
  9
$PUCSORTHOREF
  2

  9
$PUCSORTHOVIEW
 70
0
  9
$PUCSORGTOP
 10
0.0
 20
0.0
 30
0.0
  9
$PUCSORGBOTTOM
 10
0.0
 20
0.0
 30
0.0
  9
$PUCSORGLEFT
 10
0.0
 20
0.0
 30
0.0
  9
$PUCSORGRIGHT
 10
0.0
 20
0.0
 30
0.0
  9
$PUCSORGFRONT
 10
0.0
 20
0.0
 30
0.0
  9
$PUCSORGBACK
 10
0.0
 20
0.0
 30
0.0
  9
$USERI1
 70
0
  9
$USERI2
 70
0
  9
$USERI3
 70
0
  9
$USERI4
 70
0
  9
$USERI5
 70
0
  9
$USERR1
 40
0.0
  9
$USERR2
 40
0.0
  9
$USERR3
 40
0.0
  9
$USERR4
 40
0.0
  9
$USERR5
 40
0.0
  9
$WORLDVIEW
 70
1
  9
$SHADEDGE
 70
3
  9
$SHADEDIF
 70
70
  9
$TILEMODE
 70
1
  9
$MAXACTVP
 70
64
  9
$PINSBASE
 10
0.0
 20
0.0
 30
0.0
  9
$PLIMCHECK
 70
0
  9
$PEXTMIN
 10
1e+20
 20
1e+20
 30
1e+20
  9
$PEXTMAX
 10
-1e+20
 20
-1e+20
 30
-1e+20
  9
$PLIMMIN
 10
0.0
 20
0.0
  9
$PLIMMAX
 10
420.0
 20
297.0
  9
$UNITMODE
 70
0
  9
$VISRETAIN
 70
1
  9
$PLINEGEN
 70
0
  9
$PSLTSCALE
 70
1
  9
$TREEDEPTH
 70
3020
  9
$CMLSTYLE
  2
Standard
  9
$CMLJUST
 70
0
  9
$CMLSCALE
 40
20.0
  9
$PROXYGRAPHICS
 70
1
  9
$MEASUREMENT
 70
1
  9
$CELWEIGHT
370
-1
  9
$ENDCAPS
280
0
  9
$JOINSTYLE
280
0
  9
$LWDISPLAY
290
0
  9
$INSUNITS
 70
4
  9
$HYPERLINKBASE
  1

  9
$STYLESHEET
  1

  9
$XEDIT
290
1
  9
$CEPSNTYPE
380
0
  9
$PSTYLEMODE
290
1
  9
$FINGERPRINTGUID
  2
{86EF91BE-BA6D-41CB-8D0E-F16BA6E16C48}
  9
$VERSIONGUID
  2
{80615EDD-89A4-4835-AC7F-9A200E4D683E}
  9
$EXTNAMES
290
1
  9
$PSVPSCALE
 40
0.0
  9
$OLESTARTUP
290
0
  9
$SORTENTS
280
127
  9
$INDEXCTL
280
0
  9
$HIDETEXT
280
1
  9
$XCLIPFRAME
280
1
  9
$HALOGAP
280
0
  9
$OBSCOLOR
 70
257
  9
$OBSLTYPE
280
0
  9
$INTERSECTIONDISPLAY
280
0
  9
$INTERSECTIONCOLOR
 70
257
  9
$DIMASSOC
280
2
  9
$PROJECTNAME
  1

  9
$CAMERADISPLAY
290
0
  9
$LENSLENGTH
 40
50.0
  9
$CAMERAHEIGHT
 40
0.0
  9
$STEPSPERSEC
 40
24.0
  9
$STEPSIZE
 40
100.0
  9
$3DDWFPREC
 40
2.0
  9
$PSOLWIDTH
 40
0.005
  9
$PSOLHEIGHT
 40
0.08
  9
$LOFTANG1
 40
1.570796326795
  9
$LOFTANG2
 40
1.570796326795
  9
$LOFTMAG1
 40
0.0
  9
$LOFTMAG2
 40
0.0
  9
$LOFTPARAM
 70
7
  9
$LOFTNORMALS
280
1
  9
$LATITUDE
 40
37.795
  9
$LONGITUDE
 40
-122.394
  9
$NORTHDIRECTION
 40
0.0
  9
$TIMEZONE
 70
-8000
  9
$LIGHTGLYPHDISPLAY
280
1
  9
$TILEMODELIGHTSYNCH
280
1
  9
$CMATERIAL
347
20
  9
$SOLIDHIST
280
0
  9
$SHOWHIST
280
1
  9
$DWFFRAME
280
2
  9
$DGNFRAME
280
2
  9
$REALWORLDSCALE
290
1
  9
$INTERFERECOLOR
 62
256
  9
$CSHADOW
280
0
  9
$SHADOWPLANELOCATION
 40
0.0
  0
ENDSEC
  0
SECTION
  2
CLASSES
  0
CLASS
  1
ACDBDICTIONARYWDFLT
  2
AcDbDictionaryWithDefault
  3
ObjectDBX Classes
 90
0
 91
0
280
0
281
0
  0
CLASS
  1
SUN
  2
AcDbSun
  3
SCENEOE
 90
1153
 91
0
280
0
281
0
  0
CLASS
  1
VISUALSTYLE
  2
AcDbVisualStyle
  3
ObjectDBX Classes
 90
4095
 91
0
280
0
281
0
  0
CLASS
  1
MATERIAL
  2
AcDbMaterial
  3
ObjectDBX Classes
 90
1153
 91
0
280
0
281
0
  0
CLASS
  1
SCALE
  2
AcDbScale
  3
ObjectDBX Classes
 90
1153
 91
0
280
0
281
0
  0
CLASS
  1
TABLESTYLE
  2
AcDbTableStyle
  3
ObjectDBX Classes
 90
4095
 91
0
280
0
281
0
  0
CLASS
  1
MLEADERSTYLE
  2
AcDbMLeaderStyle
  3
ACDB_MLEADERSTYLE_CLASS
 90
4095
 91
0
280
0
281
0
  0
CLASS
  1
DICTIONARYVAR
  2
AcDbDictionaryVar
  3
ObjectDBX Classes
 90
0
 91
0
280
0
281
0
  0
CLASS
  1
CELLSTYLEMAP
  2
AcDbCellStyleMap
  3
ObjectDBX Classes
 90
1152
 91
0
280
0
281
0
  0
CLASS
  1
MENTALRAYRENDERSETTINGS
  2
AcDbMentalRayRenderSettings
  3
SCENEOE
 90
1024
 91
0
280
0
281
0
  0
CLASS
  1
ACDBDETAILVIEWSTYLE
  2
AcDbDetailViewStyle
  3
ObjectDBX Classes
 90
1025
 91
0
280
0
281
0
  0
CLASS
  1
ACDBSECTIONVIEWSTYLE
  2
AcDbSectionViewStyle
  3
ObjectDBX Classes
 90
1025
 91
0
280
0
281
0
  0
CLASS
  1
RASTERVARIABLES
  2
AcDbRasterVariables
  3
ISM
 90
0
 91
0
280
0
281
0
  0
CLASS
  1
ACDBPLACEHOLDER
  2
AcDbPlaceHolder
  3
ObjectDBX Classes
 90
0
 91
0
280
0
281
0
  0
CLASS
  1
LAYOUT
  2
AcDbLayout
  3
ObjectDBX Classes
 90
0
 91
0
280
0
281
0
  0
ENDSEC
  0
SECTION
  2
TABLES
  0
TABLE
  2
VPORT
  5
8
330
0
100
AcDbSymbolTable
 70
1
  0
VPORT
  5
23
330
8
100
AcDbSymbolTableRecord
100
AcDbViewportTableRecord
  2
*Active
 70
0
 10
0.0
 20
0.0
 11
1.0
 21
1.0
 12
0.0
 22
0.0
 13
0.0
 23
0.0
 14
0.5
 24
0.5
 15
0.5
 25
0.5
 16
0.0
 26
0.0
 36
1.0
 17
0.0
 27
0.0
 37
0.0
 40
1000.0
 41
1.34
 42
50.0
 43
0.0
 44
0.0
 50
0.0
 51
0.0
 71
0
 72
1000
 73
1
 74
3
 75
0
 76
0
 77
0
 78
0
281
0
 65
0
146
0.0
  0
ENDTAB
  0
TABLE
  2
LTYPE
  5
2
330
0
100
AcDbSymbolTable
 70
3
  0
LTYPE
  5
24
330
2
100
AcDbSymbolTableRecord
100
AcDbLinetypeTableRecord
  2
ByBlock
 70
0
  3

 72
65
 73
0
 40
0.0
  0
LTYPE
  5
25
330
2
100
AcDbSymbolTableRecord
100
AcDbLinetypeTableRecord
  2
ByLayer
 70
0
  3

 72
65
 73
0
 40
0.0
  0
LTYPE
  5
26
330
2
100
AcDbSymbolTableRecord
100
AcDbLinetypeTableRecord
  2
Continuous
 70
0
  3

 72
65
 73
0
 40
0.0
  0
ENDTAB
  0
TABLE
  2
LAYER
  5
1
330
0
100
AcDbSymbolTable
 70
6
  0
LAYER
  5
27
330
1
100
AcDbSymbolTableRecord
100
AcDbLayerTableRecord
  2
0
 70
0
 62
7
  6
Continuous
370
-3
390
13
347
21
  0
LAYER
  5
28
330
1
100
AcDbSymbolTableRecord
100
AcDbLayerTableRecord
  2
Defpoints
 70
0
 62
7
  6
Continuous
290
0
370
-3
390
13
347
21
  0
LAYER
  5
2F
330
1
100
AcDbSymbolTableRecord
100
AcDbLayerTableRecord
  2
CUT
 70
0
 62
7
  6
Continuous
370
-3
390
13
347
21
  0
LAYER
  5
30
330
1
100
AcDbSymbolTableRecord
100
AcDbLayerTableRecord
  2
MARK
 70
0
 62
3
  6
Continuous
370
-3
390
13
347
21
  0
LAYER
  5
31
330
1
100
AcDbSymbolTableRecord
100
AcDbLayerTableRecord
  2
SCORE
 70
0
 62
5
  6
Continuous
370
-3
390
13
347
21
  0
LAYER
  5
32
330
1
100
AcDbSymbolTableRecord
100
AcDbLayerTableRecord
  2
STOCK_REFERENCE_DO_NOT_CUT
 70
0
 62
8
  6
Continuous
370
-3
390
13
347
21
  0
ENDTAB
  0
TABLE
  2
STYLE
  5
5
330
0
100
AcDbSymbolTable
 70
1
  0
STYLE
  5
29
330
5
100
AcDbSymbolTableRecord
100
AcDbTextStyleTableRecord
  2
Standard
 70
0
 40
0.0
 41
1.0
 50
0.0
 71
0
 42
2.5
  3
txt
  4

  0
ENDTAB
  0
TABLE
  2
VIEW
  5
7
330
0
100
AcDbSymbolTable
 70
0
  0
ENDTAB
  0
TABLE
  2
UCS
  5
6
330
0
100
AcDbSymbolTable
 70
0
  0
ENDTAB
  0
TABLE
  2
APPID
  5
3
330
0
100
AcDbSymbolTable
 70
3
  0
APPID
  5
2A
330
3
100
AcDbSymbolTableRecord
100
AcDbRegAppTableRecord
  2
ACAD
 70
0
  0
APPID
  5
58
330
3
100
AcDbSymbolTableRecord
100
AcDbRegAppTableRecord
  2
HATCHBACKGROUNDCOLOR
 70
0
  0
APPID
  5
59
330
3
100
AcDbSymbolTableRecord
100
AcDbRegAppTableRecord
  2
EZDXF
 70
0
  0
ENDTAB
  0
TABLE
  2
DIMSTYLE
  5
4
330
0
100
AcDbSymbolTable
 70
1
100
AcDbDimStyleTable
  0
DIMSTYLE
105
2B
330
4
100
AcDbSymbolTableRecord
100
AcDbDimStyleTableRecord
  2
Standard
 70
0
 40
1.0
 41
2.5
 42
0.625
 43
3.75
 44
1.25
 45
0.0
 46
0.0
 47
0.0
 48
0.0
 49
2.5
140
2.5
141
2.5
142
0.0
143
0.03937007874
144
1.0
145
0.0
146
1.0
147
0.625
148
0.0
 69
0
 70
0
 71
0
 72
0
 73
0
 74
0
 75
0
 76
0
 77
1
 78
8
 79
3
170
0
171
3
172
1
173
0
174
0
175
0
176
0
177
0
178
0
179
2
271
2
272
2
273
2
274
3
275
0
276
0
277
2
278
44
279
0
280
0
281
0
282
0
283
0
284
8
285
0
286
0
288
0
289
3
290
0
371
-2
372
-2
  0
ENDTAB
  0
TABLE
  2
BLOCK_RECORD
  5
9
330
0
100
AcDbSymbolTable
 70
2
  0
BLOCK_RECORD
  5
17
330
9
100
AcDbSymbolTableRecord
100
AcDbBlockTableRecord
  2
*Model_Space
340
1A
 70
0
280
1
281
0
  0
BLOCK_RECORD
  5
1B
330
9
100
AcDbSymbolTableRecord
100
AcDbBlockTableRecord
  2
*Paper_Space
340
1E
 70
0
280
1
281
0
  0
ENDTAB
  0
ENDSEC
  0
SECTION
  2
BLOCKS
  0
BLOCK
  5
18
330
17
100
AcDbEntity
  8
0
100
AcDbBlockBegin
  2
*Model_Space
 70
0
 10
0.0
 20
0.0
 30
0.0
  3
*Model_Space
  1

  0
ENDBLK
  5
19
330
17
100
AcDbEntity
  8
0
100
AcDbBlockEnd
  0
BLOCK
  5
1C
330
1B
100
AcDbEntity
  8
0
100
AcDbBlockBegin
  2
*Paper_Space
 70
0
 10
0.0
 20
0.0
 30
0.0
  3
*Paper_Space
  1

  0
ENDBLK
  5
1D
330
1B
100
AcDbEntity
  8
0
100
AcDbBlockEnd
  0
ENDSEC
  0
SECTION
  2
ENTITIES
  0
LWPOLYLINE
  5
33
330
17
100
AcDbEntity
  8
STOCK_REFERENCE_DO_NOT_CUT
100
AcDbPolyline
 90
4
 70
1
 10
0.0
 20
0.0
 10
1000.0
 20
0.0
 10
1000.0
 20
600.0
 10
0.0
 20
600.0
  0
LWPOLYLINE
  5
34
330
17
100
AcDbEntity
  8
CUT
100
AcDbPolyline
 90
139
 70
1
 10
306.6345
 20
453.74514
 10
380.97081
 20
460.62433
 10
448.05481
 20
25.10671
 10
351.19046
 20
15.66351
 10
298.18392
 20
10.47564
 10
284.26091
 20
9.11119
 10
268.26451
 20
7.546
 10
255.95929
 20
6.34751
 10
252.06177
 20
5.971
 10
246.83859
 20
5.47884
 10
245.90055
 20
5.39245
 10
245.25672
 20
5.334
 10
244.69166
 20
5.285
 10
244.18754
 20
5.24364
 10
243.68815
 20
5.20481
 10
243.23873
 20
5.17116
 10
242.71977
 20
5.13413
 10
242.275
 20
5.10452
 10
241.86013
 20
5.07859
 10
241.48789
 20
5.0572
 10
241.17085
 20
5.04115
 10
240.8845
 20
5.02874
 10
240.71779
 20
5.02226
 10
240.54458
 20
5.0162
 10
240.37217
 20
5.01058
 10
240.26562
 20
5.00792
 10
240.13148
 20
5.0052
 10
239.99488
 20
5.00298
 10
239.85588
 20
5.00132
 10
239.71451
 20
5.0003
 10
239.57097
 20
5.0
 10
239.42543
 20
5.00051
 10
239.27787
 20
5.00166
 10
239.12816
 20
5.00339
 10
238.97577
 20
5.00551
 10
238.8203
 20
5.00855
 10
238.66144
 20
5.01324
 10
238.49887
 20
5.01855
 10
238.27607
 20
5.02635
 10
238.01688
 20
5.03604
 10
237.74834
 20
5.0468
 10
237.46934
 20
5.05948
 10
237.07949
 20
5.07915
 10
236.61409
 20
5.10507
 10
236.12185
 20
5.13267
 10
234.87497
 20
5.20659
 10
233.74376
 20
5.27595
 10
232.3111
 20
5.36492
 10
231.2443
 20
5.43303
 10
230.24979
 20
5.49987
 10
228.94152
 20
5.59257
 10
227.57547
 20
5.69189
 10
226.07815
 20
5.80308
 10
224.26313
 20
5.9397
 10
222.11837
 20
6.10377
 10
218.76228
 20
6.36602
 10
213.07473
 20
6.81757
 10
206.71931
 20
7.33122
 10
199.51802
 20
7.92029
 10
190.67355
 20
8.65279
 10
182.37726
 20
9.34452
 10
171.28394
 20
10.27465
 10
155.15991
 20
11.62932
 10
138.45555
 20
13.03611
 10
121.32224
 20
14.48241
 10
101.96637
 20
16.11785
 10
82.57315
 20
17.76111
 10
60.00118
 20
19.67266
 10
35.2123
 20
21.77776
 10
20.06284
 20
23.06668
 10
5.0
 20
24.34904
 10
66.03657
 20
460.62433
 10
81.28456
 20
459.30566
 10
96.52509
 20
457.99936
 10
117.57445
 20
456.20968
 10
135.04594
 20
454.74029
 10
151.70914
 20
453.36097
 10
166.80774
 20
452.1355
 10
179.40577
 20
451.13468
 10
192.22992
 20
450.12332
 10
199.04912
 20
449.59954
 10
204.18777
 20
449.21513
 10
209.32418
 20
448.83676
 10
213.87343
 20
448.51299
 10
217.28397
 20
448.27541
 10
220.69967
 20
448.04631
 10
223.74832
 20
447.84843
 10
225.78971
 20
447.71969
 10
227.15146
 20
447.63754
 10
228.17018
 20
447.57908
 10
229.07598
 20
447.52963
 10
230.08934
 20
447.47734
 10
230.76788
 20
447.44343
 10
231.4273
 20
447.41255
 10
232.31937
 20
447.37333
 10
232.8613
 20
447.35284
 10
233.26663
 20
447.33748
 10
233.62787
 20
447.32467
 10
233.86992
 20
447.31727
 10
234.05172
 20
447.31249
 10
234.21341
 20
447.30903
 10
234.3348
 20
447.30676
 10
234.45641
 20
447.3048
 10
234.57832
 20
447.30337
 10
234.70032
 20
447.30269
 10
234.82219
 20
447.3025
 10
234.94381
 20
447.30277
 10
235.06512
 20
447.30378
 10
235.18623
 20
447.30552
 10
235.29218
 20
447.3077
 10
235.40965
 20
447.31094
 10
235.55542
 20
447.31566
 10
235.8454
 20
447.32658
 10
236.13346
 20
447.33885
 10
236.42132
 20
447.35292
 10
236.74253
 20
447.36965
 10
237.06116
 20
447.38769
 10
237.30051
 20
447.40147
 10
237.53921
 20
447.41655
 10
237.77016
 20
447.43242
 10
237.96041
 20
447.44606
 10
238.17156
 20
447.46221
 10
238.4063
 20
447.48086
 10
238.69589
 20
447.50471
 10
238.98382
 20
447.5292
 10
239.42112
 20
447.56729
 10
241.17971
 20
447.72372
 10
242.9402
 20
447.88252
 10
243.51302
 20
447.9347
 10
244.08612
 20
447.98779
 10
244.66163
 20
448.04108
 10
245.36085
 20
448.10497
 10
246.87702
 20
448.24601
 10
248.52293
 20
448.40107
 10
251.35691
 20
448.66228
 10
262.2291
 20
449.66225
 10
283.9864
 20
451.65409
 10
285.76406
 20
432.97908
 10
308.44788
 20
435.17846
  0
TEXT
  5
35
330
17
100
AcDbEntity
  8
MARK
100
AcDbText
 10
225.13969770095053
 20
229.04289500000002
 30
0.0
 40
2.5
  1
SKIN_WRIN_F02
100
AcDbText
  0
LWPOLYLINE
  5
36
330
17
100
AcDbEntity
  8
CUT
100
AcDbPolyline
 90
32
 70
1
 10
454.05481
 20
5.0
 10
454.05481
 20
373.65
 10
458.16337999999996
 20
373.65
 10
462.27194999999995
 20
373.65
 10
466.38052
 20
373.65
 10
470.48909999999995
 20
373.65
 10
474.59767
 20
373.65
 10
478.70624
 20
373.65
 10
482.81480999999997
 20
373.65
 10
486.92337999999995
 20
373.65
 10
491.03195
 20
373.65
 10
495.14052
 20
373.65
 10
499.2491
 20
373.65
 10
503.35767
 20
373.65
 10
507.46623999999997
 20
373.65
 10
511.57480999999996
 20
373.65
 10
515.6833799999999
 20
373.65
 10
515.6833799999999
 20
5.0
 10
511.57480999999996
 20
5.0
 10
507.46623999999997
 20
5.0
 10
503.35767
 20
5.0
 10
499.2491
 20
5.0
 10
495.14052
 20
5.0
 10
491.03195
 20
5.0
 10
486.92337999999995
 20
5.0
 10
482.81480999999997
 20
5.0
 10
478.70624
 20
5.0
 10
474.59767
 20
5.0
 10
470.48909999999995
 20
5.0
 10
466.38052
 20
5.0
 10
462.27194999999995
 20
5.0
 10
458.16337999999996
 20
5.0
  0
TEXT
  5
37
330
17
100
AcDbEntity
  8
MARK
100
AcDbText
 10
484.86909499999996
 20
189.325
 30
0.0
 40
2.5
  1
SKIN_F11
100
AcDbText
  0
LWPOLYLINE
  5
38
330
17
100
AcDbEntity
  8
CUT
100
AcDbPolyline
 90
32
 70
1
 10
583.3119499999999
 20
5.0
 10
579.2033799999999
 20
5.0
 10
575.0948099999999
 20
5.0
 10
570.98624
 20
5.0
 10
566.87767
 20
5.0
 10
562.7690899999999
 20
5.0
 10
558.6605199999999
 20
5.0
 10
554.5519499999999
 20
5.0
 10
550.4433799999999
 20
5.0
 10
546.33481
 20
5.0
 10
542.22624
 20
5.0
 10
538.11767
 20
5.0
 10
534.0090899999999
 20
5.0
 10
529.9005199999999
 20
5.0
 10
525.7919499999999
 20
5.0
 10
521.6833799999999
 20
5.0
 10
521.6833799999999
 20
373.65
 10
525.7919499999999
 20
373.65
 10
529.9005199999999
 20
373.65
 10
534.0090899999999
 20
373.65
 10
538.11767
 20
373.65
 10
542.22624
 20
373.65
 10
546.33481
 20
373.65
 10
550.4433799999999
 20
373.65
 10
554.5519499999999
 20
373.65
 10
558.6605199999999
 20
373.65
 10
562.7690899999999
 20
373.65
 10
566.87767
 20
373.65
 10
570.98624
 20
373.65
 10
575.0948099999999
 20
373.65
 10
579.2033799999999
 20
373.65
 10
583.3119499999999
 20
373.65
  0
TEXT
  5
39
330
17
100
AcDbEntity
  8
MARK
100
AcDbText
 10
552.4976649999999
 20
189.325
 30
0.0
 40
2.5
  1
SKIN_F12
100
AcDbText
  0
LWPOLYLINE
  5
3A
330
17
100
AcDbEntity
  8
CUT
100
AcDbPolyline
 90
138
 70
1
 10
736.76199
 20
169.291
 10
746.3287999999999
 20
113.88286
 10
755.9130999999999
 20
58.47409
 10
762.7279299999999
 20
19.2174
 10
759.0866699999999
 20
18.58683
 10
752.4091799999999
 20
17.426
 10
749.11322
 20
16.85552
 10
748.3177699999999
 20
16.71745
 10
745.0213799999999
 20
16.14863
 10
744.62366
 20
16.07967
 10
744.2259599999999
 20
16.01099
 10
718.7324399999999
 20
11.59035
 10
705.4285399999999
 20
9.28353
 10
703.7575299999999
 20
8.99332
 10
701.8888599999999
 20
8.66907
 10
691.9118899999999
 20
6.93737
 10
688.5634299999999
 20
6.35534
 10
686.8092999999999
 20
6.05045
 10
685.5918899999999
 20
5.83945
 10
685.4118699999999
 20
5.80837
 10
684.3834699999999
 20
5.63347
 10
683.9401899999999
 20
5.55768
 10
683.8111299999999
 20
5.53592
 10
683.4495
 20
5.4791
 10
682.9001
 20
5.39391
 10
682.4337599999999
 20
5.32767
 10
681.99637
 20
5.27357
 10
681.4266999999999
 20
5.19959
 10
680.8599599999999
 20
5.14337
 10
680.61678
 20
5.1182
 10
679.7929499999999
 20
5.05659
 10
679.6910099999999
 20
5.04931
 10
679.6335099999999
 20
5.04645
 10
679.0398299999999
 20
5.01803
 10
678.0377399999999
 20
5.00203
 10
678.0012399999999
 20
5.0025
 10
677.6775999999999
 20
5.0
 10
677.5428299999999
 20
5.00183
 10
677.31774
 20
5.00642
 10
677.0716899999999
 20
5.0136
 10
676.8047499999999
 20
5.02434
 10
676.7187299999999
 20
5.02713
 10
676.7112399999999
 20
5.02749
 10
676.5544399999999
 20
5.0351
 10
676.5469499999999
 20
5.03548
 10
676.2992299999999
 20
5.05301
 10
676.1816799999999
 20
5.05953
 10
675.9864099999999
 20
5.0713
 10
675.1113399999999
 20
5.14147
 10
675.06369
 20
5.14595
 10
675.0548499999999
 20
5.1468
 10
674.99669
 20
5.1526
 10
674.9386299999999
 20
5.15879
 10
674.1605
 20
5.24769
 10
673.9285799999999
 20
5.27567
 10
673.67986
 20
5.31007
 10
672.7707699999999
 20
5.44144
 10
672.7207099999999
 20
5.44872
 10
672.69265
 20
5.45328
 10
672.0163799999999
 20
5.56204
 10
671.69927
 20
5.61495
 10
671.3156999999999
 20
5.68028
 10
670.9161999999999
 20
5.74939
 10
668.8515399999999
 20
6.10906
 10
668.5417299999999
 20
6.16303
 10
668.0172099999999
 20
6.25416
 10
663.6484099999999
 20
7.01352
 10
661.1872999999999
 20
7.44116
 10
661.0163999999999
 20
7.47085
 10
660.67743
 20
7.52966
 10
650.27136
 20
9.33229
 10
636.52631
 20
11.71701
 10
611.7645399999999
 20
16.01383
 10
610.9690999999999
 20
16.15161
 10
610.77024
 20
16.18605
 10
604.1789299999999
 20
17.32756
 10
603.56171
 20
17.43458
 10
593.2623299999999
 20
19.2253
 10
600.0811299999999
 20
58.47959
 10
609.6754899999999
 20
113.88256
 10
619.23885
 20
169.29262
 10
624.0020399999999
 20
196.99422
 10
628.74398
 20
224.69804
 10
589.3119499999999
 20
231.40545
 10
600.2339799999999
 20
295.48022
 10
635.4315799999999
 20
289.47546
 10
670.6228799999999
 20
283.47369
 10
670.9381999999999
 20
283.42066
 10
671.2536599999999
 20
283.36839
 10
671.5691299999999
 20
283.31631
 10
671.8847299999999
 20
283.26506
 10
672.20048
 20
283.21477
 10
672.5164699999999
 20
283.16592
 10
672.8327199999999
 20
283.11873
 10
673.1491899999999
 20
283.07311
 10
673.4658999999999
 20
283.02927
 10
673.7829099999999
 20
282.98766
 10
674.1002399999999
 20
282.94852
 10
674.41788
 20
282.91172
 10
674.7358099999999
 20
282.87727
 10
675.05401
 20
282.84556
 10
675.37245
 20
282.81684
 10
675.69112
 20
282.79116
 10
676.01001
 20
282.7684
 10
676.3291499999999
 20
282.74905
 10
676.6485099999999
 20
282.73282
 10
676.96805
 20
282.71995
 10
677.2876999999999
 20
282.71056
 10
677.6073899999999
 20
282.70453
 10
677.92707
 20
282.70174
 10
678.2467499999999
 20
282.70283
 10
678.5664599999999
 20
282.7072
 10
678.88614
 20
282.71498
 10
679.2057399999999
 20
282.72626
 10
679.5606599999999
 20
282.74278
 10
679.9054099999998
 20
282.76249
 10
680.2553999999999
 20
282.7866
 10
680.5908699999999
 20
282.81312
 10
680.9632999999999
 20
282.84663
 10
681.3354099999999
 20
282.88405
 10
681.7071799999999
 20
282.92495
 10
682.0785199999999
 20
282.9693
 10
682.4123599999999
 20
283.01217
 10
682.7492199999999
 20
283.0579
 10
683.08575
 20
283.10573
 10
683.4219999999999
 20
283.15554
 10
683.79531
 20
283.21295
 10
684.16824
 20
283.27239
 10
684.5036699999999
 20
283.32714
 10
684.8389299999999
 20
283.38294
 10
685.1147799999999
 20
283.42957
 10
685.3906
 20
283.47666
 10
685.7206299999999
 20
283.53257
 10
686.6847899999999
 20
283.69622
 10
755.7722999999999
 20
295.48022
 10
766.6883599999999
 20
231.40501
 10
727.2572099999999
 20
224.69536
 10
732.0003399999999
 20
196.99183
  0
TEXT
  5
3B
330
17
100
AcDbEntity
  8
MARK
100
AcDbText
 10
678.0012255444796
 20
141.58693
 30
0.0
 40
2.5
  1
SKIN_TLF_F06
100
AcDbText
  0
LWPOLYLINE
  5
3C
330
17
100
AcDbEntity
  8
CUT
100
AcDbPolyline
 90
138
 70
1
 10
736.7613199999998
 20
465.77106
 10
746.3284699999999
 20
410.3628
 10
755.91172
 20
354.95333999999997
 10
762.7255299999999
 20
315.69629999999995
 10
759.0843499999999
 20
315.06577999999996
 10
752.4067599999998
 20
313.90513999999996
 10
749.1107999999999
 20
313.33468
 10
748.3153499999999
 20
313.19664
 10
745.0189699999999
 20
312.62775
 10
744.6212499999999
 20
312.55879999999996
 10
744.22354
 20
312.49010999999996
 10
718.7300399999999
 20
308.06973
 10
705.4261499999999
 20
305.76304999999996
 10
703.7551299999999
 20
305.47287
 10
701.8864599999999
 20
305.14865999999995
 10
691.9094499999999
 20
303.41717
 10
688.56098
 20
302.83524
 10
686.8068299999999
 20
302.5304
 10
685.5894199999999
 20
302.31942999999995
 10
685.4093999999999
 20
302.28835
 10
684.3809899999999
 20
302.11348
 10
683.9377099999999
 20
302.03770999999995
 10
683.80864
 20
302.01595
 10
683.44702
 20
301.95914
 10
682.8976099999999
 20
301.87397
 10
682.4312699999999
 20
301.80773999999997
 10
681.9938799999999
 20
301.75365
 10
681.4241999999999
 20
301.67969999999997
 10
680.85746
 20
301.62348999999995
 10
680.6142799999999
 20
301.59833
 10
679.7904399999999
 20
301.53673999999995
 10
679.68851
 20
301.52946
 10
679.6309999999999
 20
301.52660999999995
 10
679.0373299999999
 20
301.49821
 10
678.0352399999999
 20
301.48224
 10
677.9987299999999
 20
301.48271
 10
677.6750999999999
 20
301.48022
 10
677.5403299999999
 20
301.48204999999996
 10
677.3152399999999
 20
301.48665
 10
677.0691899999999
 20
301.49384
 10
676.8022399999999
 20
301.50458999999995
 10
676.7162299999999
 20
301.50737999999996
 10
676.7087399999999
 20
301.50773999999996
 10
676.55194
 20
301.51536
 10
676.5444499999999
 20
301.51572999999996
 10
676.2967199999999
 20
301.53326999999996
 10
676.1791699999999
 20
301.53979
 10
675.9839099999999
 20
301.55156999999997
 10
675.1088399999999
 20
301.62176999999997
 10
675.0611899999999
 20
301.62626
 10
675.0523499999999
 20
301.6271
 10
674.9941899999999
 20
301.63289999999995
 10
674.9361299999999
 20
301.6391
 10
674.1580099999999
 20
301.72801
 10
673.9260899999999
 20
301.756
 10
673.6773599999999
 20
301.79042
 10
672.7682699999999
 20
301.92181
 10
672.71822
 20
301.92909
 10
672.6901599999999
 20
301.93365
 10
672.01389
 20
302.04244
 10
671.6967799999999
 20
302.09535
 10
671.3132199999999
 20
302.16069
 10
670.9137099999999
 20
302.22981999999996
 10
668.8490699999999
 20
302.58954
 10
668.5392499999999
 20
302.64353
 10
668.0147399999998
 20
302.73467
 10
663.64596
 20
303.49411999999995
 10
661.1848699999999
 20
303.92181999999997
 10
661.0139599999999
 20
303.95151999999996
 10
660.675
 20
304.01032999999995
 10
650.26893
 20
305.81313
 10
636.5238599999999
 20
308.19793999999996
 10
611.7621099999999
 20
312.49496
 10
610.9666699999999
 20
312.63273
 10
610.7678
 20
312.66718
 10
604.1765199999999
 20
313.80868999999996
 10
603.55928
 20
313.91571999999996
 10
593.25961
 20
315.70671
 10
600.0787599999999
 20
354.96056999999996
 10
609.6728699999999
 20
410.3635
 10
619.2385299999999
 20
465.77338999999995
 10
624.00227
 20
493.4746
 10
628.7440199999999
 20
521.17812
 10
589.3119499999999
 20
527.88537
 10
600.2339599999999
 20
591.96016
 10
635.4315399999999
 20
585.9553699999999
 10
670.6228199999999
 20
579.95354
 10
670.93815
 20
579.9005099999999
 10
671.2535999999999
 20
579.84824
 10
671.5690799999999
 20
579.79616
 10
671.8846699999999
 20
579.7448999999999
 10
672.2004199999999
 20
579.69462
 10
672.51641
 20
579.64577
 10
672.8326599999999
 20
579.59857
 10
673.1491299999999
 20
579.55296
 10
673.46584
 20
579.5091199999999
 10
673.7828399999999
 20
579.46751
 10
674.1001699999999
 20
579.42837
 10
674.4178199999999
 20
579.39156
 10
674.7357499999999
 20
579.3571199999999
 10
675.0539399999999
 20
579.3254
 10
675.3723899999999
 20
579.2966899999999
 10
675.6910599999999
 20
579.271
 10
676.0099399999999
 20
579.2482399999999
 10
676.32909
 20
579.2289
 10
676.6484499999999
 20
579.2126599999999
 10
676.9679899999999
 20
579.1998
 10
677.2876299999999
 20
579.1904
 10
677.6073299999999
 20
579.18437
 10
677.9270099999999
 20
579.1815899999999
 10
678.24669
 20
579.1826799999999
 10
678.56639
 20
579.18705
 10
678.8860699999999
 20
579.1948299999999
 10
679.2056699999999
 20
579.2061
 10
679.5605999999999
 20
579.22262
 10
679.9053399999999
 20
579.24234
 10
680.25533
 20
579.26645
 10
680.5908
 20
579.29297
 10
680.96323
 20
579.32648
 10
681.33535
 20
579.3639000000001
 10
681.70711
 20
579.4048
 10
682.0784499999999
 20
579.4491499999999
 10
682.4122899999999
 20
579.4920199999999
 10
682.7491599999998
 20
579.5377599999999
 10
683.0856799999999
 20
579.5855899999999
 10
683.42194
 20
579.6353899999999
 10
683.7952399999999
 20
579.69281
 10
684.1681699999999
 20
579.75225
 10
684.5035999999999
 20
579.80699
 10
684.83886
 20
579.8628
 10
685.11471
 20
579.90942
 10
685.3905299999999
 20
579.95651
 10
685.7205599999999
 20
580.01242
 10
686.68472
 20
580.17608
 10
755.77222
 20
591.96016
 10
766.6883599999999
 20
527.88496
 10
727.25722
 20
521.17524
 10
732.0001499999998
 20
493.47171
  0
TEXT
  5
3D
330
17
100
AcDbEntity
  8
MARK
100
AcDbText
 10
678.0001667237531
 20
438.06728
 30
0.0
 40
2.5
  1
SKIN_TRF_F05
100
AcDbText
  0
LWPOLYLINE
  5
3E
330
17
100
AcDbEntity
  8
CUT
100
AcDbPolyline
 90
32
 70
1
 10
454.05481
 20
584.65
 10
458.16337999999996
 20
584.65
 10
462.27194999999995
 20
584.65
 10
466.38052
 20
584.65
 10
470.48909999999995
 20
584.65
 10
474.59767
 20
584.65
 10
478.70624
 20
584.65
 10
482.81480999999997
 20
584.65
 10
486.92337999999995
 20
584.65
 10
491.03195
 20
584.65
 10
495.14052
 20
584.65
 10
499.2491
 20
584.65
 10
503.35767
 20
584.65
 10
507.46623999999997
 20
584.65
 10
511.57480999999996
 20
584.65
 10
515.6833799999999
 20
584.65
 10
515.6833799999999
 20
379.65
 10
511.57480999999996
 20
379.65
 10
507.46623999999997
 20
379.65
 10
503.35767
 20
379.65
 10
499.2491
 20
379.65
 10
495.14052
 20
379.65
 10
491.03195
 20
379.65
 10
486.92337999999995
 20
379.65
 10
482.81480999999997
 20
379.65
 10
478.70624
 20
379.65
 10
474.59767
 20
379.65
 10
470.48909999999995
 20
379.65
 10
466.38052
 20
379.65
 10
462.27194999999995
 20
379.65
 10
458.16337999999996
 20
379.65
 10
454.05481
 20
379.65
  0
TEXT
  5
3F
330
17
100
AcDbEntity
  8
MARK
100
AcDbText
 10
484.86909499999996
 20
482.15
 30
0.0
 40
2.5
  1
SKIN_F09
100
AcDbText
  0
LWPOLYLINE
  5
40
330
17
100
AcDbEntity
  8
CUT
100
AcDbPolyline
 90
32
 70
1
 10
521.6833799999999
 20
584.65
 10
525.7919499999999
 20
584.65
 10
529.9005199999999
 20
584.65
 10
534.0090899999999
 20
584.65
 10
538.11767
 20
584.65
 10
542.22624
 20
584.65
 10
546.33481
 20
584.65
 10
550.4433799999999
 20
584.65
 10
554.5519499999999
 20
584.65
 10
558.6605199999999
 20
584.65
 10
562.7690899999999
 20
584.65
 10
566.87767
 20
584.65
 10
570.98624
 20
584.65
 10
575.0948099999999
 20
584.65
 10
579.2033799999999
 20
584.65
 10
583.3119499999999
 20
584.65
 10
583.3119499999999
 20
379.65
 10
579.2033799999999
 20
379.65
 10
575.0948099999999
 20
379.65
 10
570.98624
 20
379.65
 10
566.87767
 20
379.65
 10
562.7690899999999
 20
379.65
 10
558.6605199999999
 20
379.65
 10
554.5519499999999
 20
379.65
 10
550.4433799999999
 20
379.65
 10
546.33481
 20
379.65
 10
542.22624
 20
379.65
 10
538.11767
 20
379.65
 10
534.0090899999999
 20
379.65
 10
529.9005199999999
 20
379.65
 10
525.7919499999999
 20
379.65
 10
521.6833799999999
 20
379.65
  0
TEXT
  5
41
330
17
100
AcDbEntity
  8
MARK
100
AcDbText
 10
552.4976649999999
 20
482.15
 30
0.0
 40
2.5
  1
SKIN_F10
100
AcDbText
  0
LWPOLYLINE
  5
42
330
17
100
AcDbEntity
  8
CUT
100
AcDbPolyline
 90
131
 70
1
 10
855.7066599999998
 20
182.53818
 10
854.5456199999999
 20
175.86066
 10
853.9749499999999
 20
172.56474
 10
853.8368599999999
 20
171.7693
 10
853.2677799999999
 20
168.47295
 10
853.1987999999999
 20
168.07523
 10
853.1300799999999
 20
167.67753
 10
848.7081399999998
 20
142.1843
 10
846.4006399999998
 20
128.88055
 10
846.1103599999999
 20
127.20956
 10
845.7860299999999
 20
125.3409
 10
844.0539299999999
 20
115.364
 10
843.4717899999998
 20
112.01556
 10
843.1668399999999
 20
110.26143
 10
842.9557999999998
 20
109.04404
 10
842.9247099999999
 20
108.86402
 10
842.7497799999999
 20
107.83562
 10
842.6739799999999
 20
107.39234
 10
842.6522099999999
 20
107.26328
 10
842.5953799999999
 20
106.90166
 10
842.5101799999999
 20
106.35225
 10
842.4439199999999
 20
105.88592
 10
842.3897999999999
 20
105.44853
 10
842.3158099999998
 20
104.87886
 10
842.2595699999998
 20
104.31212
 10
842.2343999999998
 20
104.06894
 10
842.1727599999999
 20
103.24511
 10
842.1654699999999
 20
103.14317
 10
842.1626099999999
 20
103.08567
 10
842.1341799999999
 20
102.492
 10
842.1181399999998
 20
101.48991
 10
842.1186099999999
 20
101.4534
 10
842.1160999999998
 20
101.12977
 10
842.1179299999999
 20
100.995
 10
842.1225199999999
 20
100.7699
 10
842.1296899999999
 20
100.52385
 10
842.1404199999998
 20
100.25691
 10
842.1432099999998
 20
100.1709
 10
842.1435599999999
 20
100.16341
 10
842.1511699999999
 20
100.0066
 10
842.1515499999998
 20
99.99912
 10
842.1690699999999
 20
99.75139
 10
842.1755899999998
 20
99.63384
 10
842.1873499999999
 20
99.43857
 10
842.2574899999998
 20
98.5635
 10
842.2619799999999
 20
98.51585
 10
842.2628299999999
 20
98.50701
 10
842.2686199999998
 20
98.44885
 10
842.2748099999999
 20
98.39079
 10
842.3636799999999
 20
97.61266
 10
842.3916599999999
 20
97.38074
 10
842.4260499999999
 20
97.13201
 10
842.5573899999998
 20
96.22291
 10
842.5646699999999
 20
96.17286
 10
842.5692299999998
 20
96.1448
 10
842.6779699999998
 20
95.46853
 10
842.7308699999999
 20
95.15141
 10
842.7961899999999
 20
94.76784
 10
842.8652799999999
 20
94.36833
 10
843.2248899999998
 20
92.30367
 10
843.2788499999999
 20
91.99385
 10
843.3699599999999
 20
91.46933
 10
844.1291499999999
 20
87.1005
 10
844.5566899999999
 20
84.63938
 10
844.5863799999998
 20
84.46848
 10
844.6451699999999
 20
84.12951
 10
846.4473299999999
 20
73.72333
 10
848.8312999999998
 20
59.97812
 10
853.1267999999999
 20
35.2161
 10
853.2645199999998
 20
34.42065
 10
853.2989499999999
 20
34.22179
 10
854.4400599999999
 20
27.63043
 10
854.5470499999999
 20
27.01318
 10
856.3374099999999
 20
16.71341
 10
840.1825699999998
 20
13.90803
 10
788.9551399999999
 20
5.0
 10
781.2275299999999
 20
49.47397
 10
773.4934199999999
 20
93.94214
 10
773.4422399999999
 20
94.23525
 10
773.3917199999999
 20
94.52856
 10
773.3417999999999
 20
94.82208
 10
773.2925199999999
 20
95.11583
 10
773.2443399999999
 20
95.40984
 10
773.1974099999999
 20
95.70401
 10
773.1515299999999
 20
95.9983
 10
773.1068299999998
 20
96.29266
 10
773.0637699999999
 20
96.5871
 10
773.0228399999999
 20
96.88163
 10
772.9834999999998
 20
97.1762
 10
772.9459499999999
 20
97.47089
 10
772.9109599999999
 20
97.76589
 10
772.8780499999999
 20
98.06126
 10
772.8472599999999
 20
98.35708
 10
772.8190299999999
 20
98.65337
 10
772.7938299999998
 20
98.95014
 10
772.7710599999999
 20
99.24726
 10
772.7509099999999
 20
99.54462
 10
772.7327299999998
 20
99.84207
 10
772.7179299999999
 20
100.13959
 10
772.7062099999998
 20
100.43706
 10
772.6973699999999
 20
100.73441
 10
772.6913699999999
 20
101.03161
 10
772.6883599999999
 20
101.32869
 10
772.6889499999999
 20
101.62572
 10
772.6930199999998
 20
101.95582
 10
772.7015899999999
 20
102.32279
 10
772.7154499999999
 20
102.68995
 10
772.7333399999999
 20
103.04676
 10
772.7523799999999
 20
103.37306
 10
772.7768799999999
 20
103.72535
 10
772.8004199999999
 20
104.01498
 10
772.8313499999999
 20
104.36209
 10
772.8643499999998
 20
104.69894
 10
772.9012099999999
 20
105.04057
 10
772.9391499999999
 20
105.36472
 10
772.9798499999998
 20
105.68849
 10
773.0228799999999
 20
106.01209
 10
773.0683099999999
 20
106.33558
 10
773.1160699999999
 20
106.65896
 10
773.1647699999999
 20
106.98239
 10
773.2156299999999
 20
107.3056
 10
773.2682199999999
 20
107.62855
 10
773.3218799999999
 20
107.95127
 10
773.3762899999999
 20
108.27374
 10
773.4389999999999
 20
108.63949
 10
773.4878599999998
 20
108.91594
 10
773.5376899999999
 20
109.19222
 10
774.0647199999999
 20
112.20704
 10
788.9544799999999
 20
197.89371
 10
840.1816099999999
 20
188.9845
 10
856.3374099999999
 20
186.17933
  0
TEXT
  5
43
330
17
100
AcDbEntity
  8
MARK
100
AcDbText
 10
807.4033051233114
 20
101.39104499999999
 30
0.0
 40
2.5
  1
SKIN_TRF_F07
100
AcDbText
  0
LWPOLYLINE
  5
44
330
17
100
AcDbEntity
  8
CUT
100
AcDbPolyline
 90
131
 70
1
 10
945.3558099999999
 20
182.5374
 10
944.1946699999999
 20
175.85997
 10
943.6240299999998
 20
172.56404
 10
943.4859299999998
 20
171.7686
 10
942.9169499999998
 20
168.47223
 10
942.8479799999999
 20
168.07452
 10
942.7792699999999
 20
167.67681
 10
938.3574499999999
 20
142.1835
 10
936.0500099999998
 20
128.87971
 10
935.7597199999999
 20
127.20871
 10
935.4353799999999
 20
125.34006
 10
933.7032099999999
 20
115.36317
 10
933.1210299999999
 20
112.01474
 10
932.8160599999999
 20
110.26062
 10
932.6050099999999
 20
109.04322
 10
932.5739099999998
 20
108.86321
 10
932.3989599999999
 20
107.83481
 10
932.3231599999999
 20
107.39154
 10
932.3013899999999
 20
107.26247
 10
932.2445499999999
 20
106.90085
 10
932.1593399999998
 20
106.35145
 10
932.0930699999999
 20
105.88512
 10
932.0389499999999
 20
105.44773
 10
931.9649499999998
 20
104.87806
 10
931.9086999999998
 20
104.31132
 10
931.8835299999998
 20
104.06814
 10
931.8218699999999
 20
103.24431
 10
931.8145799999999
 20
103.14238
 10
931.8117199999999
 20
103.08487
 10
931.7832799999999
 20
102.4912
 10
931.7672299999999
 20
101.48911
 10
931.7676999999999
 20
101.45261
 10
931.7651799999999
 20
101.12897
 10
931.7670099999998
 20
100.9942
 10
931.7715899999998
 20
100.76911
 10
931.7787599999999
 20
100.52306
 10
931.7894799999999
 20
100.25612
 10
931.7922699999999
 20
100.1701
 10
931.7926299999999
 20
100.16261
 10
931.8002299999998
 20
100.00581
 10
931.8006099999999
 20
99.99832
 10
931.8181299999999
 20
99.75059
 10
931.8246399999998
 20
99.63304
 10
931.8363999999999
 20
99.43778
 10
931.9065299999999
 20
98.5627
 10
931.9110199999999
 20
98.51505
 10
931.9118599999998
 20
98.50621
 10
931.9176599999998
 20
98.44805
 10
931.9238499999999
 20
98.39
 10
932.0127099999999
 20
97.61186
 10
932.0406799999998
 20
97.37994
 10
932.0750699999999
 20
97.13121
 10
932.2063999999998
 20
96.22211
 10
932.2136699999999
 20
96.17206
 10
932.2182299999998
 20
96.144
 10
932.3269599999999
 20
95.46772
 10
932.3798499999998
 20
95.15061
 10
932.4451699999998
 20
94.76704
 10
932.5142599999999
 20
94.36753
 10
932.8738299999999
 20
92.30286
 10
932.9277899999998
 20
91.99304
 10
933.0188899999998
 20
91.46852
 10
933.7780499999999
 20
87.09968
 10
934.2055699999999
 20
84.63856
 10
934.2352599999999
 20
84.46766
 10
934.2940499999999
 20
84.12869
 10
936.0961899999999
 20
73.72253
 10
938.4802699999999
 20
59.97737
 10
942.7759399999999
 20
35.21539
 10
942.9136899999999
 20
34.41995
 10
942.9481199999999
 20
34.22108
 10
944.0893099999998
 20
27.62972
 10
944.1963099999998
 20
27.0125
 10
945.9865499999999
 20
16.71304
 10
929.8315799999998
 20
13.90756
 10
878.6039399999999
 20
5.0
 10
870.8764899999999
 20
49.47408
 10
863.1423899999999
 20
93.94241
 10
863.0912199999999
 20
94.23553
 10
863.0406999999999
 20
94.52883
 10
862.9907799999999
 20
94.82236
 10
862.9414999999999
 20
95.11611
 10
862.8933199999999
 20
95.41012
 10
862.8463999999999
 20
95.70429
 10
862.8005099999999
 20
95.99858
 10
862.7558199999999
 20
96.29295
 10
862.7127599999999
 20
96.58739
 10
862.6718399999999
 20
96.88192
 10
862.6324999999998
 20
97.17649
 10
862.5949499999998
 20
97.47118
 10
862.5599599999998
 20
97.76618
 10
862.5270499999999
 20
98.06156
 10
862.4962699999999
 20
98.35737
 10
862.4680499999998
 20
98.65366
 10
862.4428499999999
 20
98.95043
 10
862.4200899999998
 20
99.24755
 10
862.3999399999999
 20
99.54492
 10
862.3817699999998
 20
99.84236
 10
862.3669699999998
 20
100.13988
 10
862.3552499999998
 20
100.43736
 10
862.3464099999999
 20
100.73471
 10
862.3404199999999
 20
101.03191
 10
862.3374099999999
 20
101.32899
 10
862.3379999999999
 20
101.62602
 10
862.3420799999999
 20
101.95612
 10
862.3506499999999
 20
102.32309
 10
862.3645199999999
 20
102.69025
 10
862.3824099999998
 20
103.04706
 10
862.4014499999998
 20
103.37336
 10
862.4259599999999
 20
103.72565
 10
862.4494999999998
 20
104.01528
 10
862.4804299999998
 20
104.36238
 10
862.5134399999998
 20
104.69923
 10
862.5502999999999
 20
105.04087
 10
862.5882499999999
 20
105.36501
 10
862.6289499999999
 20
105.68878
 10
862.6719799999998
 20
106.01238
 10
862.7174199999998
 20
106.33587
 10
862.7651799999999
 20
106.65925
 10
862.8138799999998
 20
106.98267
 10
862.8647499999998
 20
107.30588
 10
862.9173399999999
 20
107.62883
 10
862.9710099999999
 20
107.95155
 10
863.0254199999998
 20
108.27402
 10
863.0881199999999
 20
108.63977
 10
863.1369899999999
 20
108.91622
 10
863.1868299999999
 20
109.19249
 10
863.7138599999998
 20
112.20729
 10
878.6038999999998
 20
197.89368
 10
929.8308499999998
 20
188.98399
 10
945.9865499999999
 20
186.17864
  0
TEXT
  5
45
330
17
100
AcDbEntity
  8
MARK
100
AcDbText
 10
897.0523757479706
 20
101.39080000000001
 30
0.0
 40
2.5
  1
SKIN_TLF_F08
100
AcDbText
  0
LWPOLYLINE
  5
46
330
17
100
AcDbEntity
  8
CUT
100
AcDbPolyline
 90
62
 70
1
 10
863.8679499999998
 20
359.97882
 10
865.4444999999998
 20
359.975
 10
867.0140299999998
 20
359.9729
 10
869.9754499999999
 20
359.96529999999996
 10
872.9236099999998
 20
359.95714
 10
876.0641799999999
 20
359.94921
 10
879.4188799999998
 20
359.94201
 10
882.7886199999998
 20
359.93602999999996
 10
886.1730399999999
 20
359.92978
 10
889.5469699999999
 20
359.92530999999997
 10
892.9034199999999
 20
359.92344
 10
896.2525599999999
 20
359.92227
 10
899.5998199999999
 20
359.92435
 10
902.9499799999999
 20
359.92773
 10
906.3125199999998
 20
359.93426
 10
909.6962099999998
 20
359.94503999999995
 10
913.0782999999999
 20
359.95752
 10
916.4458499999998
 20
359.97628999999995
 10
919.4317499999999
 20
359.99593
 10
921.6725899999999
 20
360.0136
 10
923.9193999999999
 20
360.03387
 10
926.1760199999999
 20
360.05771
 10
928.4399099999998
 20
360.08433
 10
930.6975999999999
 20
360.11429999999996
 10
932.9422399999999
 20
360.14851999999996
 10
935.1821599999998
 20
360.18578
 10
937.4284799999998
 20
360.22726
 10
939.6939399999999
 20
360.27367
 10
940.5513799999999
 20
288.49417
 10
941.1234799999999
 20
228.45637
 10
941.1234799999999
 20
204.31554
 10
941.1171999999999
 20
204.26205
 10
941.1106599999998
 20
204.22379999999998
 10
941.0967899999998
 20
204.19303
 10
938.9138199999999
 20
204.147
 10
936.7214699999998
 20
204.10739999999998
 10
934.5140499999999
 20
204.07195
 10
932.2856099999999
 20
204.0402
 10
930.0324999999998
 20
204.01264999999998
 10
927.7528699999998
 20
203.98899999999998
 10
925.4459799999998
 20
203.96849999999998
 10
923.1114699999998
 20
203.95118
 10
920.7491899999999
 20
203.93681999999998
 10
918.3596799999999
 20
203.92508999999998
 10
915.1336299999998
 20
203.91298999999998
 10
911.4544699999999
 20
203.90283
 10
907.7306299999999
 20
203.89691
 10
903.9736099999999
 20
203.89368
 10
900.1974399999999
 20
203.89514
 10
896.4174999999999
 20
203.89911999999998
 10
892.6481099999999
 20
203.904
 10
888.9029499999999
 20
203.90915999999999
 10
885.1957599999998
 20
203.9166
 10
881.5406599999999
 20
203.92656
 10
877.9514399999998
 20
203.93704
 10
874.4421799999999
 20
203.94776
 10
871.0259099999998
 20
203.95925
 10
867.7251999999999
 20
203.97135
 10
865.5007699999999
 20
203.97959999999998
 10
863.3373999999999
 20
203.98826
 10
862.3374099999999
 20
203.99166
 10
862.8679499999998
 20
359.98222
  0
TEXT
  5
47
330
17
100
AcDbEntity
  8
MARK
100
AcDbText
 10
901.680072191419
 20
258.47527
 30
0.0
 40
2.5
  1
SKIN_F24
100
AcDbText
  0
LWPOLYLINE
  5
48
330
17
100
AcDbEntity
  8
CUT
100
AcDbPolyline
 90
58
 70
1
 10
777.4059699999999
 20
360.1062
 10
780.0883599999999
 20
360.09073
 10
782.2112899999998
 20
360.07856000000004
 10
785.0499799999999
 20
360.06205
 10
788.3339599999999
 20
360.04385
 10
791.6993499999999
 20
360.02504999999996
 10
795.1347299999999
 20
360.00765
 10
798.6282199999998
 20
359.99147
 10
802.1676599999998
 20
359.97775
 10
805.7406899999999
 20
359.96634
 10
809.3348799999999
 20
359.95596
 10
812.9381499999998
 20
359.94944999999996
 10
816.5364099999999
 20
359.94437
 10
820.1141799999999
 20
359.94491
 10
823.6619099999999
 20
359.94711
 10
827.1716999999999
 20
359.95493
 10
830.6376299999998
 20
359.96639
 10
834.0557499999999
 20
359.9841
 10
837.4234399999999
 20
360.00797
 10
840.4105799999999
 20
360.03593
 10
843.0655399999998
 20
360.06633999999997
 10
845.1338899999998
 20
360.09326
 10
847.1901899999999
 20
360.12234
 10
849.1245099999999
 20
288.3643
 10
850.9472599999999
 20
228.35008
 10
851.9458299999999
 20
204.23023
 10
851.9546699999999
 20
204.1771
 10
851.9628699999998
 20
204.13917
 10
851.9779999999998
 20
204.109
 10
849.7777299999999
 20
204.06592
 10
847.5681099999999
 20
204.0305
 10
845.3424299999999
 20
204.00153
 10
843.0957499999998
 20
203.97693
 10
840.8244299999999
 20
203.9558
 10
838.5261099999999
 20
203.93801
 10
836.1994799999999
 20
203.92338
 10
833.8442699999998
 20
203.91143
 10
831.4609299999998
 20
203.90286
 10
829.0502599999999
 20
203.89685
 10
825.7959899999998
 20
203.89371
 10
822.0853799999999
 20
203.89409
 10
818.3306399999999
 20
203.89916
 10
814.5422899999999
 20
203.90746
 10
810.7353799999999
 20
203.9186
 10
806.9261399999999
 20
203.93379
 10
803.1282799999999
 20
203.94991
 10
799.3563199999999
 20
203.96824
 10
795.6246999999998
 20
203.98798
 10
791.9478599999999
 20
204.00883
 10
788.3398999999998
 20
204.03054
 10
784.8143799999999
 20
204.05251
 10
781.3877799999999
 20
204.07707
 10
778.0808699999999
 20
204.10115
 10
775.8536199999999
 20
204.11751
 10
773.6883299999998
 20
204.13366
 10
772.6883599999999
 20
204.14086
 10
773.8106899999999
 20
360.12954
 10
774.8106599999999
 20
360.12234
  0
TEXT
  5
49
330
17
100
AcDbEntity
  8
MARK
100
AcDbText
 10
811.5571642608793
 20
258.35719
 30
0.0
 40
2.5
  1
SKIN_F23
100
AcDbText
  0
LWPOLYLINE
  5
4A
330
17
100
AcDbEntity
  8
CUT
100
AcDbPolyline
 90
52
 70
1
 10
772.6883599999999
 20
366.12954
 10
772.8782599999998
 20
517.18039
 10
774.5285399999999
 20
517.20613
 10
776.1786899999998
 20
517.23157
 10
778.6578499999998
 20
517.2656
 10
781.1282699999999
 20
517.29983
 10
783.5877999999999
 20
517.33024
 10
786.0395599999998
 20
517.3586300000001
 10
788.4876799999998
 20
517.38495
 10
790.9361999999999
 20
517.4095
 10
793.3898899999999
 20
517.4327900000001
 10
795.8537799999999
 20
517.4522900000001
 10
798.3290799999999
 20
517.46982
 10
800.7992099999999
 20
517.48618
 10
803.2543999999999
 20
517.50091
 10
805.7015799999999
 20
517.5151500000001
 10
808.1476399999999
 20
517.52633
 10
810.5992099999999
 20
517.53649
 10
813.0622499999998
 20
517.5453
 10
815.5336799999999
 20
517.5519400000001
 10
818.0046499999999
 20
517.55792
 10
820.4667199999999
 20
517.56289
 10
822.9189699999998
 20
517.56712
 10
825.3663999999999
 20
517.56998
 10
827.9202699999998
 20
517.5724
 10
831.1933599999999
 20
517.57415
 10
834.4882899999999
 20
517.57812
 10
834.4882899999999
 20
366.58571
 10
831.1792199999999
 20
366.57794
 10
827.8917299999998
 20
366.57132
 10
825.3299899999998
 20
366.56364
 10
822.8722299999998
 20
366.55677000000003
 10
820.4096699999999
 20
366.54901
 10
817.9369499999999
 20
366.54047
 10
815.4551799999999
 20
366.53103000000004
 10
812.9730999999999
 20
366.52174
 10
810.4993999999999
 20
366.51066000000003
 10
808.0371899999999
 20
366.49794
 10
805.5806199999998
 20
366.48416000000003
 10
803.1232399999999
 20
366.46872
 10
800.6580399999999
 20
366.45176000000004
 10
798.1778199999999
 20
366.43344
 10
795.6922099999999
 20
366.41202000000004
 10
793.2171899999998
 20
366.38980000000004
 10
790.7519699999999
 20
366.36626
 10
788.2922799999999
 20
366.34063000000003
 10
785.8339099999998
 20
366.31345000000005
 10
783.3723999999999
 20
366.2841
 10
780.9031799999999
 20
366.25334000000004
 10
778.4223399999998
 20
366.21713
 10
775.9326799999999
 20
366.18049
 10
774.3105799999998
 20
366.156
  0
TEXT
  5
4B
330
17
100
AcDbEntity
  8
MARK
100
AcDbText
 10
803.6359433733787
 20
441.88305
 30
0.0
 40
2.5
  1
SKIN_F21
100
AcDbText
  0
LWPOLYLINE
  5
4C
330
17
100
AcDbEntity
  8
CUT
100
AcDbPolyline
 90
6
 70
1
 10
845.76587
 20
517.26091
 10
845.76587
 20
366.20770000000005
 10
840.4882899999999
 20
366.12954
 10
840.8899099999999
 20
517.18829
 10
842.51524
 20
517.21146
 10
844.1405699999999
 20
517.23568
  0
TEXT
  5
4D
330
17
100
AcDbEntity
  8
MARK
100
AcDbText
 10
843.227536951011
 20
441.69799500000005
 30
0.0
 40
2.5
  1
SKIN_F33
100
AcDbText
  0
LWPOLYLINE
  5
4E
330
17
100
AcDbEntity
  8
CUT
100
AcDbPolyline
 90
49
 70
1
 10
852.7747599999999
 20
517.3974499999999
 10
854.24086
 20
517.39087
 10
855.70695
 20
517.3843999999999
 10
858.2714699999999
 20
517.37121
 10
860.6509599999999
 20
517.3616
 10
864.0415099999999
 20
517.34928
 10
867.0444699999999
 20
517.3377
 10
869.4007399999999
 20
517.32979
 10
871.8716599999999
 20
517.32263
 10
874.23893
 20
517.31645
 10
877.56147
 20
517.31009
 10
880.51522
 20
517.30603
 10
882.8829
 20
517.30525
 10
885.41536
 20
517.30537
 10
887.9458599999999
 20
517.30744
 10
890.3074899999999
 20
517.30987
 10
893.32287
 20
517.3152299999999
 10
895.69795
 20
517.3217099999999
 10
898.18993
 20
517.32996
 10
900.68279
 20
517.3405
 10
903.05994
 20
517.3516999999999
 10
906.3756999999999
 20
517.37363
 10
909.70232
 20
517.3974499999999
 10
913.37898
 20
366.39326
 10
910.08417
 20
366.36350999999996
 10
906.8108299999999
 20
366.34047
 10
904.25694
 20
366.32291
 10
901.8094799999999
 20
366.30967999999996
 10
899.35722
 20
366.29845
 10
896.89496
 20
366.28965
 10
894.42377
 20
366.28254
 10
891.9521199999999
 20
366.27756999999997
 10
889.4889
 20
366.27491
 10
887.03712
 20
366.27367
 10
884.59084
 20
366.27412999999996
 10
882.1434899999999
 20
366.27697
 10
879.68805
 20
366.28081
 10
877.21768
 20
366.28666999999996
 10
874.7421499999999
 20
366.2933
 10
872.2780799999999
 20
366.30161999999996
 10
869.82422
 20
366.31111
 10
867.37555
 20
366.32106999999996
 10
864.92737
 20
366.33221
 10
862.4755399999999
 20
366.34468999999996
 10
860.01604
 20
366.3573
 10
857.5456099999999
 20
366.37140999999997
 10
855.0667
 20
366.38727
 10
853.41635
 20
366.39491
 10
851.76587
 20
366.40446
  0
TEXT
  5
4F
330
17
100
AcDbEntity
  8
MARK
100
AcDbText
 10
881.9058215351324
 20
441.854855
 30
0.0
 40
2.5
  1
SKIN_F20
100
AcDbText
  0
LWPOLYLINE
  5
50
330
17
100
AcDbEntity
  8
CUT
100
AcDbPolyline
 90
13
 70
1
 10
966.5914599999999
 20
155.99968
 10
966.5914599999999
 20
5.0
 10
963.2689099999999
 20
5.00078
 10
959.9484299999998
 20
5.00134
 10
956.0509599999998
 20
5.00194
 10
952.1510899999998
 20
5.00228
 10
951.9865499999999
 20
156.00196
 10
954.1830499999999
 20
156.00214
 10
956.3781199999999
 20
156.00205
 10
958.5700699999999
 20
156.00185
 10
960.7571699999999
 20
156.00146
 10
962.9417299999999
 20
156.00094
 10
964.7640899999999
 20
156.00042
  0
TEXT
  5
51
330
17
100
AcDbEntity
  8
MARK
100
AcDbText
 10
959.3301406211124
 20
80.50098000000001
 30
0.0
 40
2.5
  1
SKIN_F19
100
AcDbText
  0
LWPOLYLINE
  5
52
330
17
100
AcDbEntity
  8
CUT
100
AcDbPolyline
 90
13
 70
1
 10
987.4365999999999
 20
5.00097
 10
985.5113299999998
 20
5.00046
 10
983.5915399999999
 20
5.0002
 10
981.3982799999999
 20
5.00003
 10
979.2021999999998
 20
5.0
 10
977.0011899999998
 20
5.00015
 10
974.7970499999999
 20
5.00035
 10
972.5914599999999
 20
5.00081
 10
972.8031899999999
 20
156.00055
 10
976.7036899999998
 20
156.00031
 10
980.6017199999999
 20
156.00029
 10
983.9226999999998
 20
156.00031
 10
987.2457999999999
 20
156.00055
  0
TEXT
  5
53
330
17
100
AcDbEntity
  8
MARK
100
AcDbText
 10
980.0192625470779
 20
80.50063
 30
0.0
 40
2.5
  1
SKIN_F22
100
AcDbText
  0
LWPOLYLINE
  5
54
330
17
100
AcDbEntity
  8
CUT
100
AcDbPolyline
 90
117
 70
1
 10
936.15221
 20
515.73497
 10
950.80356
 20
514.85593
 10
963.84823
 20
513.98015
 10
974.6128699999999
 20
513.20187
 10
974.5768999999999
 20
512.4627
 10
974.55728
 20
512.03934
 10
974.21525
 20
505.67125
 10
974.0138099999999
 20
501.40611
 10
973.9450099999999
 20
499.93931
 10
973.7473
 20
495.52882
 10
973.65004
 20
493.21727999999996
 10
973.61898
 20
492.38402999999994
 10
973.56979
 20
490.96995
 10
973.33533
 20
484.7575
 10
973.2193199999999
 20
481.19207
 10
973.13752
 20
478.669
 10
973.0868899999999
 20
476.92454
 10
973.0719799999999
 20
476.40832
 10
973.03648
 20
475.05224
 10
972.9495499999999
 20
471.61551
 10
972.9326199999999
 20
470.90360999999996
 10
972.85489
 20
467.42810999999995
 10
972.85311
 20
467.2854
 10
972.8528299999999
 20
467.25455
 10
972.80851
 20
464.95357
 10
972.75793
 20
461.69698
 10
972.70053
 20
457.87555999999995
 10
972.6727599999999
 20
455.01388999999995
 10
972.63916
 20
450.86809999999997
 10
972.6046399999999
 20
444.86010999999996
 10
972.60591
 20
444.17337999999995
 10
972.60789
 20
442.63003
 10
972.6092699999999
 20
439.70453
 10
972.6089999999999
 20
439.47702
 10
972.6088599999999
 20
438.79858
 10
972.6180499999999
 20
436.8791
 10
972.62105
 20
436.32128
 10
972.6318299999999
 20
434.67076
 10
972.63382
 20
433.80388999999997
 10
972.67831
 20
428.41222999999997
 10
972.69607
 20
426.19865999999996
 10
972.70633
 20
425.7962
 10
972.74018
 20
423.38054999999997
 10
972.78512
 20
420.8755
 10
972.8491899999999
 20
417.2398
 10
972.8898099999999
 20
415.26619
 10
972.9371699999999
 20
412.83437
 10
973.0309699999999
 20
409.14162999999996
 10
973.07813
 20
407.25637
 10
973.1712399999999
 20
404.34038
 10
973.24554
 20
401.90222
 10
973.30116
 20
399.56928999999997
 10
973.33796
 20
398.28060999999997
 10
973.45097
 20
395.45430999999996
 10
973.6309699999999
 20
389.72159
 10
973.72548
 20
387.71097
 10
973.82123
 20
385.34819
 10
973.94047
 20
382.00498
 10
974.01348
 20
380.47024
 10
974.2515699999999
 20
375.51106999999996
 10
974.39302
 20
372.82239999999996
 10
974.6128699999999
 20
368.7209
 10
968.7182499999999
 20
368.31268
 10
956.9091199999999
 20
367.58855
 10
945.0874699999999
 20
367.01194999999996
 10
933.2565599999999
 20
366.59198
 10
921.43261
 20
366.27367
 10
921.31759
 20
369.59344
 10
921.19935
 20
372.91317
 10
921.07619
 20
376.23294999999996
 10
920.95935
 20
379.55313
 10
920.83857
 20
382.89711
 10
920.70087
 20
386.50057999999996
 10
920.60865
 20
389.22092999999995
 10
920.5084099999999
 20
392.05507
 10
920.4102899999999
 20
394.81725
 10
920.31002
 20
397.64140999999995
 10
920.21224
 20
400.50996999999995
 10
920.11784
 20
403.40518
 10
920.03189
 20
406.30760999999995
 10
919.9454
 20
409.19678
 10
919.86802
 20
412.05489
 10
919.8007299999999
 20
414.86455
 10
919.7346
 20
417.60776
 10
919.6752899999999
 20
420.26586
 10
919.62483
 20
422.81861
 10
919.5732099999999
 20
425.2451
 10
919.52617
 20
428.25586999999996
 10
919.4778799999999
 20
431.28860999999995
 10
919.44863
 20
433.88356999999996
 10
919.42041
 20
436.55010999999996
 10
919.40627
 20
438.82529
 10
919.3943499999999
 20
441.04201
 10
919.3820599999999
 20
443.28909999999996
 10
919.37898
 20
445.53591
 10
919.3856599999999
 20
448.79963
 10
919.40028
 20
452.06282
 10
919.4287099999999
 20
455.32601
 10
919.47879
 20
458.58817
 10
919.5212799999999
 20
461.84828999999996
 10
919.5726999999999
 20
465.10825
 10
919.63682
 20
468.36788
 10
919.70929
 20
471.62683
 10
919.79048
 20
474.8857
 10
919.8793
 20
478.14376999999996
 10
919.9782399999999
 20
481.40130999999997
 10
920.0870199999999
 20
484.65846999999997
 10
920.2049199999999
 20
487.91555
 10
920.3266699999999
 20
491.17247999999995
 10
920.45949
 20
494.42895
 10
920.5977499999999
 20
497.68443
 10
920.74153
 20
500.9397
 10
920.8955199999999
 20
504.19453
 10
921.0505099999999
 20
507.44813999999997
 10
921.2066699999999
 20
510.70070999999996
 10
921.35308
 20
513.61175
 10
921.50405
 20
516.52197
  0
TEXT
  5
55
330
17
100
AcDbEntity
  8
MARK
100
AcDbText
 10
945.9991359351136
 20
441.83601999999996
 30
0.0
 40
2.5
  1
SKIN_F27
100
AcDbText
  0
LWPOLYLINE
  5
56
330
17
100
AcDbEntity
  8
CUT
100
AcDbPolyline
 90
22
 70
1
 10
949.0460299999999
 20
204.88154999999998
 10
947.1234799999999
 20
227.62353
 10
947.5333299999999
 20
251.84019
 10
950.6003499999998
 20
278.37388999999996
 10
954.9223999999998
 20
303.62172
 10
957.7110499999999
 20
318.52573
 10
963.7168999999999
 20
317.38550999999995
 10
969.7454599999999
 20
316.1714
 10
975.8104699999999
 20
314.80201
 10
981.9085499999999
 20
313.19586
 10
988.0321199999998
 20
311.32203
 10
994.1807099999999
 20
309.20662
 10
989.7038899999999
 20
294.64853
 10
981.7450699999998
 20
270.23471
 10
972.5189299999998
 20
245.32338
 10
963.0775999999998
 20
223.6035
 10
953.4469199999999
 20
203.89368
 10
952.7263799999998
 20
204.19669
 10
951.9679599999998
 20
204.3244
 10
951.2133699999998
 20
204.39367
 10
950.4720599999998
 20
204.4953
 10
949.7501099999998
 20
204.66306999999998
  0
TEXT
  5
57
330
17
100
AcDbEntity
  8
MARK
100
AcDbText
 10
963.4676089603983
 20
261.03745000000004
 30
0.0
 40
2.5
  1
FNG1
100
AcDbText
  0
ENDSEC
  0
SECTION
  2
OBJECTS
  0
DICTIONARY
  5
A
330
0
100
AcDbDictionary
281
1
  3
ACAD_COLOR
350
B
  3
ACAD_GROUP
350
C
  3
ACAD_LAYOUT
350
D
  3
ACAD_MATERIAL
350
E
  3
ACAD_MLEADERSTYLE
350
F
  3
ACAD_MLINESTYLE
350
10
  3
ACAD_PLOTSETTINGS
350
11
  3
ACAD_PLOTSTYLENAME
350
12
  3
ACAD_SCALELIST
350
14
  3
ACAD_TABLESTYLE
350
15
  3
ACAD_VISUALSTYLE
350
16
  3
EZDXF_META
350
2D
  0
DICTIONARY
  5
B
330
A
100
AcDbDictionary
281
1
  0
DICTIONARY
  5
C
330
A
100
AcDbDictionary
281
1
  0
DICTIONARY
  5
D
330
A
100
AcDbDictionary
281
1
  3
Model
350
1A
  3
Layout1
350
1E
  0
DICTIONARY
  5
E
330
A
100
AcDbDictionary
281
1
  3
ByBlock
350
1F
  3
ByLayer
350
20
  3
Global
350
21
  0
DICTIONARY
  5
F
330
A
100
AcDbDictionary
281
1
  3
Standard
350
2C
  0
DICTIONARY
  5
10
330
A
100
AcDbDictionary
281
1
  3
Standard
350
22
  0
DICTIONARY
  5
11
330
A
100
AcDbDictionary
281
1
  0
ACDBDICTIONARYWDFLT
  5
12
330
A
100
AcDbDictionary
281
1
  3
Normal
350
13
100
AcDbDictionaryWithDefault
340
13
  0
ACDBPLACEHOLDER
  5
13
330
12
  0
DICTIONARY
  5
14
330
A
100
AcDbDictionary
281
1
  0
DICTIONARY
  5
15
330
A
100
AcDbDictionary
281
1
  0
DICTIONARY
  5
16
330
A
100
AcDbDictionary
281
1
  0
LAYOUT
  5
1A
330
D
100
AcDbPlotSettings
  1

  4
A3
  6

 40
7.5
 41
20.0
 42
7.5
 43
20.0
 44
420.0
 45
297.0
 46
0.0
 47
0.0
 48
0.0
 49
0.0
140
0.0
141
0.0
142
1.0
143
1.0
 70
1024
 72
1
 73
0
 74
5
  7

 75
16
 76
0
 77
2
 78
300
147
1.0
148
0.0
149
0.0
100
AcDbLayout
  1
Model
 70
1
 71
0
 10
0.0
 20
0.0
 11
420.0
 21
297.0
 12
0.0
 22
0.0
 32
0.0
 14
1e+20
 24
1e+20
 34
1e+20
 15
-1e+20
 25
-1e+20
 35
-1e+20
146
0.0
 13
0.0
 23
0.0
 33
0.0
 16
1.0
 26
0.0
 36
0.0
 17
0.0
 27
1.0
 37
0.0
 76
1
330
17
  0
LAYOUT
  5
1E
330
D
100
AcDbPlotSettings
  1

  4
A3
  6

 40
7.5
 41
20.0
 42
7.5
 43
20.0
 44
420.0
 45
297.0
 46
0.0
 47
0.0
 48
0.0
 49
0.0
140
0.0
141
0.0
142
1.0
143
1.0
 70
0
 72
1
 73
0
 74
5
  7

 75
16
 76
0
 77
2
 78
300
147
1.0
148
0.0
149
0.0
100
AcDbLayout
  1
Layout1
 70
1
 71
1
 10
0.0
 20
0.0
 11
420.0
 21
297.0
 12
0.0
 22
0.0
 32
0.0
 14
1e+20
 24
1e+20
 34
1e+20
 15
-1e+20
 25
-1e+20
 35
-1e+20
146
0.0
 13
0.0
 23
0.0
 33
0.0
 16
1.0
 26
0.0
 36
0.0
 17
0.0
 27
1.0
 37
0.0
 76
1
330
1B
  0
MATERIAL
  5
1F
102
{ACAD_REACTORS
330
E
102
}
330
E
100
AcDbMaterial
  1
ByBlock
  2

 70
0
 40
1.0
 71
1
 41
1.0
 91
-1023410177
 42
1.0
 72
1
  3

 73
1
 74
1
 75
1
 44
0.5
 73
0
 45
1.0
 46
1.0
 77
1
  4

 78
1
 79
1
170
1
 48
1.0
171
1
  6

172
1
173
1
174
1
140
1.0
141
1.0
175
1
  7

176
1
177
1
178
1
143
1.0
179
1
  8

270
1
271
1
272
1
145
1.0
146
1.0
273
1
  9

274
1
275
1
276
1
 42
1.0
 72
1
  3

 73
1
 74
1
 75
1
 94
63
  0
MATERIAL
  5
20
102
{ACAD_REACTORS
330
E
102
}
330
E
100
AcDbMaterial
  1
ByLayer
  2

 70
0
 40
1.0
 71
1
 41
1.0
 91
-1023410177
 42
1.0
 72
1
  3

 73
1
 74
1
 75
1
 44
0.5
 73
0
 45
1.0
 46
1.0
 77
1
  4

 78
1
 79
1
170
1
 48
1.0
171
1
  6

172
1
173
1
174
1
140
1.0
141
1.0
175
1
  7

176
1
177
1
178
1
143
1.0
179
1
  8

270
1
271
1
272
1
145
1.0
146
1.0
273
1
  9

274
1
275
1
276
1
 42
1.0
 72
1
  3

 73
1
 74
1
 75
1
 94
63
  0
MATERIAL
  5
21
102
{ACAD_REACTORS
330
E
102
}
330
E
100
AcDbMaterial
  1
Global
  2

 70
0
 40
1.0
 71
1
 41
1.0
 91
-1023410177
 42
1.0
 72
1
  3

 73
1
 74
1
 75
1
 44
0.5
 73
0
 45
1.0
 46
1.0
 77
1
  4

 78
1
 79
1
170
1
 48
1.0
171
1
  6

172
1
173
1
174
1
140
1.0
141
1.0
175
1
  7

176
1
177
1
178
1
143
1.0
179
1
  8

270
1
271
1
272
1
145
1.0
146
1.0
273
1
  9

274
1
275
1
276
1
 42
1.0
 72
1
  3

 73
1
 74
1
 75
1
 94
63
  0
MLINESTYLE
  5
22
102
{ACAD_REACTORS
330
10
102
}
330
10
100
AcDbMlineStyle
  2
Standard
 70
0
  3

 62
256
 51
90.0
 52
90.0
 71
2
 49
0.5
 62
256
  6
BYLAYER
 49
-0.5
 62
256
  6
BYLAYER
  0
MLEADERSTYLE
  5
2C
102
{ACAD_REACTORS
330
F
102
}
330
F
100
AcDbMLeaderStyle
179
2
170
2
171
1
172
0
 90
2
 40
0.0
 41
0.0
173
1
 91
-1056964608
 92
-2
290
1
 42
2.0
291
1
 43
8.0
  3
Standard
 44
4.0
300

342
29
174
1
175
1
176
0
178
1
 93
-1056964608
 45
4.0
292
0
297
0
 46
4.0
 94
-1056964608
 47
1.0
 49
1.0
140
1.0
294
1
141
0.0
177
0
142
1.0
295
0
296
0
143
3.75
271
0
272
9
273
9
  0
DICTIONARY
  5
2D
330
A
100
AcDbDictionary
280
1
281
1
  3
CREATED_BY_EZDXF
350
2E
  3
WRITTEN_BY_EZDXF
350
5A
  0
DICTIONARYVAR
  5
2E
330
2D
100
DictionaryVariables
280
0
  1
1.4.4 @ 2026-09-23T04:01:14.943534+00:00
  0
DICTIONARYVAR
  5
5A
330
2D
100
DictionaryVariables
280
0
  1
1.4.4 @ 2026-09-23T04:01:15.055226+00:00
  0
ENDSEC
  0
EOF
