  0
SECTION
  2
HEADER
  9
$ACADVER
  1
AC1024
  9
$ACADMAINTVER
 70
6
  9
$DWGCODEPAGE
  3
ANSI_1252
  9
$LASTSAVEDBY
  1
ezdxf
  9
$INSBASE
 10
0.0
 20
0.0
 30
0.0
  9
$EXTMIN
 10
1e+20
 20
1e+20
 30
1e+20
  9
$EXTMAX
 10
-1e+20
 20
-1e+20
 30
-1e+20
  9
$LIMMIN
 10
0.0
 20
0.0
  9
$LIMMAX
 10
420.0
 20
297.0
  9
$ORTHOMODE
 70
0
  9
$REGENMODE
 70
1
  9
$FILLMODE
 70
1
  9
$QTEXTMODE
 70
0
  9
$MIRRTEXT
 70
1
  9
$LTSCALE
 40
1.0
  9
$ATTMODE
 70
1
  9
$TEXTSIZE
 40
2.5
  9
$TRACEWID
 40
1.0
  9
$TEXTSTYLE
  7
Standard
  9
$CLAYER
  8
0
  9
$CELTYPE
  6
ByLayer
  9
$CECOLOR
 62
256
  9
$CELTSCALE
 40
1.0
  9
$DISPSILH
 70
0
  9
$DIMSCALE
 40
1.0
  9
$DIMASZ
 40
2.5
  9
$DIMEXO
 40
0.625
  9
$DIMDLI
 40
3.75
  9
$DIMRND
 40
0.0
  9
$DIMDLE
 40
0.0
  9
$DIMEXE
 40
1.25
  9
$DIMTP
 40
0.0
  9
$DIMTM
 40
0.0
  9
$DIMTXT
 40
2.5
  9
$DIMCEN
 40
2.5
  9
$DIMTSZ
 40
0.0
  9
$DIMTOL
 70
0
  9
$DIMLIM
 70
0
  9
$DIMTIH
 70
0
  9
$DIMTOH
 70
0
  9
$DIMSE1
 70
0
  9
$DIMSE2
 70
0
  9
$DIMTAD
 70
1
  9
$DIMZIN
 70
8
  9
$DIMBLK
  1

  9
$DIMASO
 70
1
  9
$DIMSHO
 70
1
  9
$DIMPOST
  1

  9
$DIMAPOST
  1

  9
$DIMALT
 70
0
  9
$DIMALTD
 70
3
  9
$DIMALTF
 40
0.03937007874
  9
$DIMLFAC
 40
1.0
  9
$DIMTOFL
 70
1
  9
$DIMTVP
 40
0.0
  9
$DIMTIX
 70
0
  9
$DIMSOXD
 70
0
  9
$DIMSAH
 70
0
  9
$DIMBLK1
  1

  9
$DIMBLK2
  1

  9
$DIMSTYLE
  2
ISO-25
  9
$DIMCLRD
 70
0
  9
$DIMCLRE
 70
0
  9
$DIMCLRT
 70
0
  9
$DIMTFAC
 40
1.0
  9
$DIMGAP
 40
0.625
  9
$DIMJUST
 70
0
  9
$DIMSD1
 70
0
  9
$DIMSD2
 70
0
  9
$DIMTOLJ
 70
0
  9
$DIMTZIN
 70
8
  9
$DIMALTZ
 70
0
  9
$DIMALTTZ
 70
0
  9
$DIMUPT
 70
0
  9
$DIMDEC
 70
2
  9
$DIMTDEC
 70
2
  9
$DIMALTU
 70
2
  9
$DIMALTTD
 70
3
  9
$DIMTXSTY
  7
Standard
  9
$DIMAUNIT
 70
0
  9
$DIMADEC
 70
0
  9
$DIMALTRND
 40
0.0
  9
$DIMAZIN
 70
0
  9
$DIMDSEP
 70
44
  9
$DIMATFIT
 70
3
  9
$DIMFRAC
 70
0
  9
$DIMLDRBLK
  1

  9
$DIMLUNIT
 70
2
  9
$DIMLWD
 70
-2
  9
$DIMLWE
 70
-2
  9
$DIMTMOVE
 70
0
  9
$DIMFXL
 40
1.0
  9
$DIMFXLON
 70
0
  9
$DIMJOGANG
 40
0.785398163397
  9
$DIMTFILL
 70
0
  9
$DIMTFILLCLR
 70
0
  9
$DIMARCSYM
 70
0
  9
$DIMLTYPE
  6

  9
$DIMLTEX1
  6

  9
$DIMLTEX2
  6

  9
$DIMTXTDIRECTION
 70
0
  9
$LUNITS
 70
2
  9
$LUPREC
 70
4
  9
$SKETCHINC
 40
1.0
  9
$FILLETRAD
 40
10.0
  9
$AUNITS
 70
0
  9
$AUPREC
 70
2
  9
$MENU
  1
.
  9
$ELEVATION
 40
0.0
  9
$PELEVATION
 40
0.0
  9
$THICKNESS
 40
0.0
  9
$LIMCHECK
 70
0
  9
$CHAMFERA
 40
0.0
  9
$CHAMFERB
 40
0.0
  9
$CHAMFERC
 40
0.0
  9
$CHAMFERD
 40
0.0
  9
$SKPOLY
 70
0
  9
$TDCREATE
 40
2461307.396689815
  9
$TDUCREATE
 40
2458532.153996898
  9
$TDUPDATE
 40
2461307.396689815
  9
$TDUUPDATE
 40
2458532.1544311
  9
$TDINDWG
 40
0.0
  9
$TDUSRTIMER
 40
0.0
  9
$USRTIMER
 70
1
  9
$ANGBASE
 50
0.0
  9
$ANGDIR
 70
0
  9
$PDMODE
 70
0
  9
$PDSIZE
 40
0.0
  9
$PLINEWID
 40
0.0
  9
$SPLFRAME
 70
0
  9
$SPLINETYPE
 70
6
  9
$SPLINESEGS
 70
8
  9
$HANDSEED
  5
51
  9
$SURFTAB1
 70
6
  9
$SURFTAB2
 70
6
  9
$SURFTYPE
 70
6
  9
$SURFU
 70
6
  9
$SURFV
 70
6
  9
$UCSBASE
  2

  9
$UCSNAME
  2

  9
$UCSORG
 10
0.0
 20
0.0
 30
0.0
  9
$UCSXDIR
 10
1.0
 20
0.0
 30
0.0
  9
$UCSYDIR
 10
0.0
 20
1.0
 30
0.0
  9
$UCSORTHOREF
  2

  9
$UCSORTHOVIEW
 70
0
  9
$UCSORGTOP
 10
0.0
 20
0.0
 30
0.0
  9
$UCSORGBOTTOM
 10
0.0
 20
0.0
 30
0.0
  9
$UCSORGLEFT
 10
0.0
 20
0.0
 30
0.0
  9
$UCSORGRIGHT
 10
0.0
 20
0.0
 30
0.0
  9
$UCSORGFRONT
 10
0.0
 20
0.0
 30
0.0
  9
$UCSORGBACK
 10
0.0
 20
0.0
 30
0.0
  9
$PUCSBASE
  2

  9
$PUCSNAME
  2

  9
$PUCSORG
 10
0.0
 20
0.0
 30
0.0
  9
$PUCSXDIR
 10
1.0
 20
0.0
 30
0.0
  9
$PUCSYDIR
 10
0.0
 20
1.0
 30
0.0
  9
$PUCSORTHOREF
  2

  9
$PUCSORTHOVIEW
 70
0
  9
$PUCSORGTOP
 10
0.0
 20
0.0
 30
0.0
  9
$PUCSORGBOTTOM
 10
0.0
 20
0.0
 30
0.0
  9
$PUCSORGLEFT
 10
0.0
 20
0.0
 30
0.0
  9
$PUCSORGRIGHT
 10
0.0
 20
0.0
 30
0.0
  9
$PUCSORGFRONT
 10
0.0
 20
0.0
 30
0.0
  9
$PUCSORGBACK
 10
0.0
 20
0.0
 30
0.0
  9
$USERI1
 70
0
  9
$USERI2
 70
0
  9
$USERI3
 70
0
  9
$USERI4
 70
0
  9
$USERI5
 70
0
  9
$USERR1
 40
0.0
  9
$USERR2
 40
0.0
  9
$USERR3
 40
0.0
  9
$USERR4
 40
0.0
  9
$USERR5
 40
0.0
  9
$WORLDVIEW
 70
1
  9
$SHADEDGE
 70
3
  9
$SHADEDIF
 70
70
  9
$TILEMODE
 70
1
  9
$MAXACTVP
 70
64
  9
$PINSBASE
 10
0.0
 20
0.0
 30
0.0
  9
$PLIMCHECK
 70
0
  9
$PEXTMIN
 10
1e+20
 20
1e+20
 30
1e+20
  9
$PEXTMAX
 10
-1e+20
 20
-1e+20
 30
-1e+20
  9
$PLIMMIN
 10
0.0
 20
0.0
  9
$PLIMMAX
 10
420.0
 20
297.0
  9
$UNITMODE
 70
0
  9
$VISRETAIN
 70
1
  9
$PLINEGEN
 70
0
  9
$PSLTSCALE
 70
1
  9
$TREEDEPTH
 70
3020
  9
$CMLSTYLE
  2
Standard
  9
$CMLJUST
 70
0
  9
$CMLSCALE
 40
20.0
  9
$PROXYGRAPHICS
 70
1
  9
$MEASUREMENT
 70
1
  9
$CELWEIGHT
370
-1
  9
$ENDCAPS
280
0
  9
$JOINSTYLE
280
0
  9
$LWDISPLAY
290
0
  9
$INSUNITS
 70
4
  9
$HYPERLINKBASE
  1

  9
$STYLESHEET
  1

  9
$XEDIT
290
1
  9
$CEPSNTYPE
380
0
  9
$PSTYLEMODE
290
1
  9
$FINGERPRINTGUID
  2
{E8D65F6A-14F5-44F8-B5C0-AB4F5D20E466}
  9
$VERSIONGUID
  2
{97BB55C2-2FA9-468A-8178-DFB4A5E03637}
  9
$EXTNAMES
290
1
  9
$PSVPSCALE
 40
0.0
  9
$OLESTARTUP
290
0
  9
$SORTENTS
280
127
  9
$INDEXCTL
280
0
  9
$HIDETEXT
280
1
  9
$XCLIPFRAME
280
1
  9
$HALOGAP
280
0
  9
$OBSCOLOR
 70
257
  9
$OBSLTYPE
280
0
  9
$INTERSECTIONDISPLAY
280
0
  9
$INTERSECTIONCOLOR
 70
257
  9
$DIMASSOC
280
2
  9
$PROJECTNAME
  1

  9
$CAMERADISPLAY
290
0
  9
$LENSLENGTH
 40
50.0
  9
$CAMERAHEIGHT
 40
0.0
  9
$STEPSPERSEC
 40
24.0
  9
$STEPSIZE
 40
100.0
  9
$3DDWFPREC
 40
2.0
  9
$PSOLWIDTH
 40
0.005
  9
$PSOLHEIGHT
 40
0.08
  9
$LOFTANG1
 40
1.570796326795
  9
$LOFTANG2
 40
1.570796326795
  9
$LOFTMAG1
 40
0.0
  9
$LOFTMAG2
 40
0.0
  9
$LOFTPARAM
 70
7
  9
$LOFTNORMALS
280
1
  9
$LATITUDE
 40
37.795
  9
$LONGITUDE
 40
-122.394
  9
$NORTHDIRECTION
 40
0.0
  9
$TIMEZONE
 70
-8000
  9
$LIGHTGLYPHDISPLAY
280
1
  9
$TILEMODELIGHTSYNCH
280
1
  9
$CMATERIAL
347
20
  9
$SOLIDHIST
280
0
  9
$SHOWHIST
280
1
  9
$DWFFRAME
280
2
  9
$DGNFRAME
280
2
  9
$REALWORLDSCALE
290
1
  9
$INTERFERECOLOR
 62
256
  9
$CSHADOW
280
0
  9
$SHADOWPLANELOCATION
 40
0.0
  0
ENDSEC
  0
SECTION
  2
CLASSES
  0
CLASS
  1
ACDBDICTIONARYWDFLT
  2
AcDbDictionaryWithDefault
  3
ObjectDBX Classes
 90
0
 91
0
280
0
281
0
  0
CLASS
  1
SUN
  2
AcDbSun
  3
SCENEOE
 90
1153
 91
0
280
0
281
0
  0
CLASS
  1
VISUALSTYLE
  2
AcDbVisualStyle
  3
ObjectDBX Classes
 90
4095
 91
0
280
0
281
0
  0
CLASS
  1
MATERIAL
  2
AcDbMaterial
  3
ObjectDBX Classes
 90
1153
 91
0
280
0
281
0
  0
CLASS
  1
SCALE
  2
AcDbScale
  3
ObjectDBX Classes
 90
1153
 91
0
280
0
281
0
  0
CLASS
  1
TABLESTYLE
  2
AcDbTableStyle
  3
ObjectDBX Classes
 90
4095
 91
0
280
0
281
0
  0
CLASS
  1
MLEADERSTYLE
  2
AcDbMLeaderStyle
  3
ACDB_MLEADERSTYLE_CLASS
 90
4095
 91
0
280
0
281
0
  0
CLASS
  1
DICTIONARYVAR
  2
AcDbDictionaryVar
  3
ObjectDBX Classes
 90
0
 91
0
280
0
281
0
  0
CLASS
  1
CELLSTYLEMAP
  2
AcDbCellStyleMap
  3
ObjectDBX Classes
 90
1152
 91
0
280
0
281
0
  0
CLASS
  1
MENTALRAYRENDERSETTINGS
  2
AcDbMentalRayRenderSettings
  3
SCENEOE
 90
1024
 91
0
280
0
281
0
  0
CLASS
  1
ACDBDETAILVIEWSTYLE
  2
AcDbDetailViewStyle
  3
ObjectDBX Classes
 90
1025
 91
0
280
0
281
0
  0
CLASS
  1
ACDBSECTIONVIEWSTYLE
  2
AcDbSectionViewStyle
  3
ObjectDBX Classes
 90
1025
 91
0
280
0
281
0
  0
CLASS
  1
RASTERVARIABLES
  2
AcDbRasterVariables
  3
ISM
 90
0
 91
0
280
0
281
0
  0
CLASS
  1
ACDBPLACEHOLDER
  2
AcDbPlaceHolder
  3
ObjectDBX Classes
 90
0
 91
0
280
0
281
0
  0
CLASS
  1
LAYOUT
  2
AcDbLayout
  3
ObjectDBX Classes
 90
0
 91
0
280
0
281
0
  0
ENDSEC
  0
SECTION
  2
TABLES
  0
TABLE
  2
VPORT
  5
8
330
0
100
AcDbSymbolTable
 70
1
  0
VPORT
  5
23
330
8
100
AcDbSymbolTableRecord
100
AcDbViewportTableRecord
  2
*Active
 70
0
 10
0.0
 20
0.0
 11
1.0
 21
1.0
 12
0.0
 22
0.0
 13
0.0
 23
0.0
 14
0.5
 24
0.5
 15
0.5
 25
0.5
 16
0.0
 26
0.0
 36
1.0
 17
0.0
 27
0.0
 37
0.0
 40
1000.0
 41
1.34
 42
50.0
 43
0.0
 44
0.0
 50
0.0
 51
0.0
 71
0
 72
1000
 73
1
 74
3
 75
0
 76
0
 77
0
 78
0
281
0
 65
0
146
0.0
  0
ENDTAB
  0
TABLE
  2
LTYPE
  5
2
330
0
100
AcDbSymbolTable
 70
3
  0
LTYPE
  5
24
330
2
100
AcDbSymbolTableRecord
100
AcDbLinetypeTableRecord
  2
ByBlock
 70
0
  3

 72
65
 73
0
 40
0.0
  0
LTYPE
  5
25
330
2
100
AcDbSymbolTableRecord
100
AcDbLinetypeTableRecord
  2
ByLayer
 70
0
  3

 72
65
 73
0
 40
0.0
  0
LTYPE
  5
26
330
2
100
AcDbSymbolTableRecord
100
AcDbLinetypeTableRecord
  2
Continuous
 70
0
  3

 72
65
 73
0
 40
0.0
  0
ENDTAB
  0
TABLE
  2
LAYER
  5
1
330
0
100
AcDbSymbolTable
 70
6
  0
LAYER
  5
27
330
1
100
AcDbSymbolTableRecord
100
AcDbLayerTableRecord
  2
0
 70
0
 62
7
  6
Continuous
370
-3
390
13
347
21
  0
LAYER
  5
28
330
1
100
AcDbSymbolTableRecord
100
AcDbLayerTableRecord
  2
Defpoints
 70
0
 62
7
  6
Continuous
290
0
370
-3
390
13
347
21
  0
LAYER
  5
2F
330
1
100
AcDbSymbolTableRecord
100
AcDbLayerTableRecord
  2
CUT
 70
0
 62
7
  6
Continuous
370
-3
390
13
347
21
  0
LAYER
  5
30
330
1
100
AcDbSymbolTableRecord
100
AcDbLayerTableRecord
  2
MARK
 70
0
 62
3
  6
Continuous
370
-3
390
13
347
21
  0
LAYER
  5
31
330
1
100
AcDbSymbolTableRecord
100
AcDbLayerTableRecord
  2
SCORE
 70
0
 62
5
  6
Continuous
370
-3
390
13
347
21
  0
LAYER
  5
32
330
1
100
AcDbSymbolTableRecord
100
AcDbLayerTableRecord
  2
STOCK_REFERENCE_DO_NOT_CUT
 70
0
 62
8
  6
Continuous
370
-3
390
13
347
21
  0
ENDTAB
  0
TABLE
  2
STYLE
  5
5
330
0
100
AcDbSymbolTable
 70
1
  0
STYLE
  5
29
330
5
100
AcDbSymbolTableRecord
100
AcDbTextStyleTableRecord
  2
Standard
 70
0
 40
0.0
 41
1.0
 50
0.0
 71
0
 42
2.5
  3
txt
  4

  0
ENDTAB
  0
TABLE
  2
VIEW
  5
7
330
0
100
AcDbSymbolTable
 70
0
  0
ENDTAB
  0
TABLE
  2
UCS
  5
6
330
0
100
AcDbSymbolTable
 70
0
  0
ENDTAB
  0
TABLE
  2
APPID
  5
3
330
0
100
AcDbSymbolTable
 70
3
  0
APPID
  5
2A
330
3
100
AcDbSymbolTableRecord
100
AcDbRegAppTableRecord
  2
ACAD
 70
0
  0
APPID
  5
4E
330
3
100
AcDbSymbolTableRecord
100
AcDbRegAppTableRecord
  2
HATCHBACKGROUNDCOLOR
 70
0
  0
APPID
  5
4F
330
3
100
AcDbSymbolTableRecord
100
AcDbRegAppTableRecord
  2
EZDXF
 70
0
  0
ENDTAB
  0
TABLE
  2
DIMSTYLE
  5
4
330
0
100
AcDbSymbolTable
 70
1
100
AcDbDimStyleTable
  0
DIMSTYLE
105
2B
330
4
100
AcDbSymbolTableRecord
100
AcDbDimStyleTableRecord
  2
Standard
 70
0
 40
1.0
 41
2.5
 42
0.625
 43
3.75
 44
1.25
 45
0.0
 46
0.0
 47
0.0
 48
0.0
 49
2.5
140
2.5
141
2.5
142
0.0
143
0.03937007874
144
1.0
145
0.0
146
1.0
147
0.625
148
0.0
 69
0
 70
0
 71
0
 72
0
 73
0
 74
0
 75
0
 76
0
 77
1
 78
8
 79
3
170
0
171
3
172
1
173
0
174
0
175
0
176
0
177
0
178
0
179
2
271
2
272
2
273
2
274
3
275
0
276
0
277
2
278
44
279
0
280
0
281
0
282
0
283
0
284
8
285
0
286
0
288
0
289
3
290
0
371
-2
372
-2
  0
ENDTAB
  0
TABLE
  2
BLOCK_RECORD
  5
9
330
0
100
AcDbSymbolTable
 70
2
  0
BLOCK_RECORD
  5
17
330
9
100
AcDbSymbolTableRecord
100
AcDbBlockTableRecord
  2
*Model_Space
340
1A
 70
0
280
1
281
0
  0
BLOCK_RECORD
  5
1B
330
9
100
AcDbSymbolTableRecord
100
AcDbBlockTableRecord
  2
*Paper_Space
340
1E
 70
0
280
1
281
0
  0
ENDTAB
  0
ENDSEC
  0
SECTION
  2
BLOCKS
  0
BLOCK
  5
18
330
17
100
AcDbEntity
  8
0
100
AcDbBlockBegin
  2
*Model_Space
 70
0
 10
0.0
 20
0.0
 30
0.0
  3
*Model_Space
  1

  0
ENDBLK
  5
19
330
17
100
AcDbEntity
  8
0
100
AcDbBlockEnd
  0
BLOCK
  5
1C
330
1B
100
AcDbEntity
  8
0
100
AcDbBlockBegin
  2
*Paper_Space
 70
0
 10
0.0
 20
0.0
 30
0.0
  3
*Paper_Space
  1

  0
ENDBLK
  5
1D
330
1B
100
AcDbEntity
  8
0
100
AcDbBlockEnd
  0
ENDSEC
  0
SECTION
  2
ENTITIES
  0
LWPOLYLINE
  5
33
330
17
100
AcDbEntity
  8
STOCK_REFERENCE_DO_NOT_CUT
100
AcDbPolyline
 90
4
 70
1
 10
0.0
 20
0.0
 10
1000.0
 20
0.0
 10
1000.0
 20
600.0
 10
0.0
 20
600.0
  0
LWPOLYLINE
  5
34
330
17
100
AcDbEntity
  8
CUT
100
AcDbPolyline
 90
147
 70
1
 10
215.62526
 20
16.14368
 10
214.03229
 20
15.99474
 10
212.4393
 20
15.84583
 10
210.84631
 20
15.69694
 10
210.68326
 20
17.43939
 10
209.58916
 20
29.15248
 10
191.19486
 20
27.42768
 10
192.34643
 20
15.7212
 10
184.06092
 20
14.93975
 10
184.2282
 20
13.19771
 10
179.44891
 20
12.75231
 10
179.83901
 20
8.76725
 10
161.60853
 20
7.10285
 10
152.50886
 20
6.25776
 10
149.75203
 20
5.99893
 10
148.47642
 20
5.87841
 10
147.7866
 20
5.814
 10
147.09276
 20
5.74874
 10
146.39088
 20
5.68356
 10
145.6412
 20
5.61362
 10
144.79189
 20
5.53479
 10
143.12917
 20
5.37997
 10
141.9999
 20
5.27646
 10
141.64394
 20
5.24466
 10
141.28775
 20
5.21329
 10
140.96658
 20
5.18594
 10
140.70704
 20
5.16457
 10
140.52959
 20
5.15048
 10
140.35254
 20
5.13745
 10
140.15637
 20
5.12306
 10
139.90649
 20
5.1068
 10
139.54532
 20
5.08397
 10
139.26725
 20
5.06705
 10
139.09013
 20
5.05716
 10
138.87956
 20
5.04654
 10
138.50827
 20
5.02921
 10
138.28111
 20
5.0194
 10
138.1216
 20
5.01327
 10
138.00296
 20
5.00935
 10
137.8732
 20
5.00581
 10
137.75315
 20
5.00331
 10
137.64525
 20
5.0016
 10
137.53749
 20
5.00052
 10
137.42978
 20
5.00001
 10
137.32202
 20
5.0
 10
137.21421
 20
5.00043
 10
137.10646
 20
5.00123
 10
136.96315
 20
5.00291
 10
136.80234
 20
5.00552
 10
136.64165
 20
5.00869
 10
136.42727
 20
5.01365
 10
136.18577
 20
5.02008
 10
135.8636
 20
5.02924
 10
135.38034
 20
5.04552
 10
134.56335
 20
5.07724
 10
133.83866
 20
5.10645
 10
133.02496
 20
5.143
 10
132.21179
 20
5.18191
 10
131.12706
 20
5.2383
 10
129.90931
 20
5.30435
 10
128.69792
 20
5.37247
 10
124.67579
 20
5.61075
 10
121.05413
 20
5.83683
 10
116.97314
 20
6.09638
 10
112.91332
 20
6.36352
 10
107.52484
 20
6.72708
 10
101.47772
 20
7.14768
 10
95.42888
 20
7.57724
 10
85.84772
 20
8.26582
 10
75.20049
 20
9.04144
 10
60.96279
 20
10.09772
 10
46.71679
 20
11.14443
 10
56.78225
 20
150.74079
 10
66.23132
 20
290.18658
 10
55.00157
 20
290.78534
 10
43.78445
 20
291.49521
 10
25.42435
 20
292.67875
 10
5.0
 20
294.00057
 10
31.95103
 20
519.67685
 10
43.09685
 20
518.93163
 10
54.24283
 20
518.21231
 10
68.60267
 20
517.28742
 10
79.69438
 20
516.56392
 10
89.5513
 20
515.92161
 10
98.55745
 20
515.34464
 10
107.89222
 20
514.76897
 10
111.17625
 20
514.56409
 10
114.46077
 20
514.36705
 10
117.74452
 20
514.16664
 10
120.6634
 20
513.99184
 10
122.85248
 20
513.86249
 10
124.79875
 20
513.75245
 10
126.0964
 20
513.68405
 10
127.06944
 20
513.62896
 10
127.93398
 20
513.57801
 10
128.58278
 20
513.54511
 10
129.23172
 20
513.51432
 10
129.88083
 20
513.48365
 10
130.58166
 20
513.45265
 10
131.86368
 20
513.39978
 10
132.20576
 20
513.38603
 10
132.4338
 20
513.3773
 10
132.60486
 20
513.37115
 10
132.75696
 20
513.36608
 10
132.87104
 20
513.36288
 10
132.98515
 20
513.36029
 10
133.08658
 20
513.35787
 10
133.1626
 20
513.3561
 10
133.2386
 20
513.35447
 10
133.31463
 20
513.35306
 10
133.39072
 20
513.35204
 10
133.46684
 20
513.35145
 10
133.5431
 20
513.35111
 10
133.6196
 20
513.35114
 10
133.69627
 20
513.35149
 10
133.77408
 20
513.35208
 10
133.85292
 20
513.35322
 10
133.9316
 20
513.35474
 10
134.00998
 20
513.35651
 10
134.09678
 20
513.35882
 10
134.20391
 20
513.36221
 10
134.32301
 20
513.36675
 10
134.45534
 20
513.37221
 10
134.59827
 20
513.37867
 10
134.72897
 20
513.38513
 10
134.90318
 20
513.39437
 10
135.11232
 20
513.40618
 10
135.27054
 20
513.41567
 10
135.42863
 20
513.4255
 10
135.5866
 20
513.43549
 10
135.72837
 20
513.44453
 10
135.87015
 20
513.45429
 10
136.10789
 20
513.47098
 10
136.3256
 20
513.48677
 10
136.61571
 20
513.50826
 10
137.24082
 20
513.55441
 10
139.29768
 20
513.71345
 10
140.66902
 20
513.81912
 10
147.97953
 20
514.41453
 10
157.7256
 20
515.2299
 10
170.94031
 20
516.35334
 10
210.63329
 20
519.67685
 10
242.07398
 20
294.71006
 10
204.17264
 20
291.82004
 10
216.18875
 20
152.53734
 10
228.75926
 20
13.11546
 10
216.0141
 20
11.98456
  0
TEXT
  5
35
330
17
100
AcDbEntity
  8
MARK
100
AcDbText
 10
135.9094044860502
 20
221.36196
 30
0.0
 40
2.5
  1
SKIN_WROUT_F03
100
AcDbText
  0
LWPOLYLINE
  5
36
330
17
100
AcDbEntity
  8
CUT
100
AcDbPolyline
 90
147
 70
1
 10
471.76811
 20
13.09048
 10
459.02271
 20
11.96235
 10
458.63498000000004
 20
16.12158
 10
457.04204000000004
 20
15.97277
 10
455.44903999999997
 20
15.82399
 10
453.85603000000003
 20
15.67529
 10
453.69318
 20
17.41775
 10
452.60014
 20
29.13085
 10
434.20628999999997
 20
27.40782
 10
435.3548
 20
15.7003
 10
427.06795999999997
 20
14.92445
 10
427.23557
 20
13.18244
 10
422.45633
 20
12.73648
 10
422.84397
 20
8.75117
 10
404.61282
 20
7.09454
 10
395.51294
 20
6.25219
 10
392.756
 20
5.9943
 10
391.48035000000004
 20
5.87425
 10
390.79049
 20
5.81011
 10
390.09663
 20
5.7451
 10
389.39473
 20
5.68018
 10
388.64502000000005
 20
5.61053
 10
387.79566
 20
5.53212
 10
386.13289
 20
5.37791
 10
385.00358
 20
5.27481
 10
384.64761
 20
5.24314
 10
384.29141000000004
 20
5.2119
 10
383.97024
 20
5.18466
 10
383.71069
 20
5.16339
 10
383.53323
 20
5.14936
 10
383.35618
 20
5.1364
 10
383.15999999999997
 20
5.12207
 10
382.91012
 20
5.10591
 10
382.54894
 20
5.0832
 10
382.27085999999997
 20
5.06639
 10
382.09374
 20
5.05656
 10
381.88317
 20
5.04602
 10
381.51188
 20
5.02881
 10
381.28472
 20
5.01909
 10
381.1252
 20
5.01301
 10
381.00656000000004
 20
5.00913
 10
380.8768
 20
5.00564
 10
380.75675
 20
5.00319
 10
380.64885000000004
 20
5.00152
 10
380.54109
 20
5.00047
 10
380.43338
 20
5.0
 10
380.32562
 20
5.00003
 10
380.21781
 20
5.0005
 10
380.11006
 20
5.00133
 10
379.96676
 20
5.00307
 10
379.80595
 20
5.00573
 10
379.64526
 20
5.00896
 10
379.43089
 20
5.01399
 10
379.18939
 20
5.02051
 10
378.86723
 20
5.02979
 10
378.38398
 20
5.04624
 10
377.56701
 20
5.07825
 10
376.84235
 20
5.1077
 10
376.02867000000003
 20
5.14454
 10
375.21551999999997
 20
5.18373
 10
374.13083
 20
5.2405
 10
372.91313
 20
5.30699
 10
371.70180000000005
 20
5.37553
 10
367.67986
 20
5.61515
 10
364.0584
 20
5.84246
 10
359.97763
 20
6.10329
 10
355.91801
 20
6.37172
 10
350.52979
 20
6.73695
 10
344.48301000000004
 20
7.1595
 10
338.4345
 20
7.59096
 10
328.85386
 20
8.28224
 10
318.20711
 20
9.06097
 10
303.96997
 20
10.12144
 10
289.72443
 20
11.17109
 10
299.8342
 20
150.75962
 10
309.30541
 20
290.19124
 10
298.07569
 20
290.78641
 10
286.85857
 20
291.4954
 10
268.4984
 20
292.67777
 10
248.07398
 20
293.99842
 10
275.01884
 20
519.67566
 10
286.16468
 20
518.93058
 10
297.31068
 20
518.21132
 10
311.67053
 20
517.28651
 10
322.76227
 20
516.5631
 10
332.61923
 20
515.92086
 10
341.62542
 20
515.34393
 10
350.96022
 20
514.76825
 10
354.24427000000003
 20
514.56337
 10
357.52881
 20
514.36632
 10
360.81256
 20
514.16591
 10
363.73146
 20
513.99111
 10
365.92055
 20
513.86175
 10
367.86682
 20
513.75172
 10
369.16448
 20
513.68331
 10
370.13753
 20
513.62821
 10
371.00207
 20
513.57728
 10
371.65088000000003
 20
513.54437
 10
372.29982
 20
513.51357
 10
372.94894
 20
513.4829
 10
373.64977
 20
513.45189
 10
374.93179
 20
513.39902
 10
375.27387
 20
513.38528
 10
375.50191
 20
513.37654
 10
375.67296999999996
 20
513.37039
 10
375.82507
 20
513.36532
 10
375.93915000000004
 20
513.36212
 10
376.05327
 20
513.35953
 10
376.15469
 20
513.35711
 10
376.23071000000004
 20
513.35534
 10
376.30671
 20
513.35371
 10
376.38275
 20
513.3523
 10
376.45883000000003
 20
513.35128
 10
376.53496
 20
513.35068
 10
376.61122
 20
513.35035
 10
376.68771000000004
 20
513.35038
 10
376.76439000000005
 20
513.35073
 10
376.84219
 20
513.35131
 10
376.92103
 20
513.35245
 10
376.99971
 20
513.35397
 10
377.07809
 20
513.35574
 10
377.1649
 20
513.35805
 10
377.27203
 20
513.36144
 10
377.39113
 20
513.36598
 10
377.52345
 20
513.37144
 10
377.66639
 20
513.3779
 10
377.79708
 20
513.38436
 10
377.97129
 20
513.3936
 10
378.18044
 20
513.40541
 10
378.33865000000003
 20
513.4149
 10
378.49675
 20
513.42473
 10
378.65472
 20
513.43471
 10
378.79649
 20
513.44375
 10
378.93826
 20
513.45351
 10
379.17601
 20
513.4702
 10
379.39372000000003
 20
513.48598
 10
379.68381999999997
 20
513.50748
 10
380.30894
 20
513.55362
 10
382.36580000000004
 20
513.71264
 10
383.73714
 20
513.81831
 10
391.04766
 20
514.41367
 10
400.79373
 20
515.22896
 10
414.00844
 20
516.35231
 10
453.70145
 20
519.67566
 10
485.14796
 20
294.70937
 10
447.24735
 20
291.81466
 10
459.24179000000004
 20
152.51794
  0
TEXT
  5
37
330
17
100
AcDbEntity
  8
MARK
100
AcDbText
 10
378.9719939785394
 20
221.35459
 30
0.0
 40
2.5
  1
SKIN_WLOUT_F04
100
AcDbText
  0
LWPOLYLINE
  5
38
330
17
100
AcDbEntity
  8
CUT
100
AcDbPolyline
 90
139
 70
1
 10
794.59754
 20
435.17826
 10
792.78394
 20
453.74491
 10
867.12014
 20
460.62468
 10
934.2035900000001
 20
25.10729
 10
837.3388
 20
15.66317
 10
784.33231
 20
10.47555
 10
770.40935
 20
9.11112
 10
754.413
 20
7.54594
 10
742.10782
 20
6.34749
 10
738.21032
 20
5.97097
 10
732.98715
 20
5.47883
 10
732.04912
 20
5.39245
 10
731.40529
 20
5.334
 10
730.84022
 20
5.28499
 10
730.33611
 20
5.24363
 10
729.83672
 20
5.20481
 10
729.3873
 20
5.17115
 10
728.86834
 20
5.13412
 10
728.42357
 20
5.10451
 10
728.0087
 20
5.07859
 10
727.6364599999999
 20
5.05719
 10
727.31942
 20
5.04115
 10
727.03307
 20
5.02874
 10
726.86637
 20
5.02226
 10
726.69316
 20
5.0162
 10
726.52074
 20
5.01058
 10
726.41419
 20
5.00792
 10
726.2800500000001
 20
5.0052
 10
726.14345
 20
5.00298
 10
726.00445
 20
5.00132
 10
725.8630800000001
 20
5.0003
 10
725.71954
 20
5.0
 10
725.5740000000001
 20
5.00051
 10
725.42645
 20
5.00166
 10
725.27673
 20
5.00339
 10
725.1243400000001
 20
5.00551
 10
724.96887
 20
5.00855
 10
724.81001
 20
5.01324
 10
724.64744
 20
5.01855
 10
724.42464
 20
5.02635
 10
724.16546
 20
5.03604
 10
723.89691
 20
5.0468
 10
723.61791
 20
5.05949
 10
723.22806
 20
5.07916
 10
722.76266
 20
5.10507
 10
722.2704200000001
 20
5.13268
 10
721.02353
 20
5.20659
 10
719.89233
 20
5.27596
 10
718.45966
 20
5.36494
 10
717.39286
 20
5.43306
 10
716.39834
 20
5.49989
 10
715.09006
 20
5.59259
 10
713.72401
 20
5.69192
 10
712.22668
 20
5.80313
 10
710.41165
 20
5.93975
 10
708.26688
 20
6.10382
 10
704.91076
 20
6.36609
 10
699.22317
 20
6.81768
 10
692.86771
 20
7.33136
 10
685.6664000000001
 20
7.92046
 10
676.8219
 20
8.65301
 10
668.52556
 20
9.34479
 10
657.43217
 20
10.27503
 10
641.30804
 20
11.62997
 10
624.60368
 20
13.03694
 10
607.47038
 20
14.48331
 10
588.11456
 20
16.11864
 10
568.72133
 20
17.76163
 10
546.14934
 20
19.67277
 10
521.3603400000001
 20
21.77748
 10
506.21083
 20
23.06631
 10
491.14796
 20
24.34867
 10
552.18628
 20
460.62468
 10
567.4342800000001
 20
459.30605
 10
582.67483
 20
457.99974
 10
603.7242200000001
 20
456.21005
 10
621.19573
 20
454.74066
 10
637.85896
 20
453.36132
 10
652.95758
 20
452.13582
 10
665.5556300000001
 20
451.13495
 10
678.37981
 20
450.12357
 10
685.19902
 20
449.59978
 10
690.33768
 20
449.21535
 10
695.4741
 20
448.83696
 10
700.02336
 20
448.51318
 10
703.43391
 20
448.27558
 10
706.84961
 20
448.04646
 10
709.89827
 20
447.84857
 10
711.93966
 20
447.71982
 10
713.30142
 20
447.63766
 10
714.32014
 20
447.5792
 10
715.22594
 20
447.52975
 10
716.23931
 20
447.47745
 10
716.91785
 20
447.44354
 10
717.57726
 20
447.41265
 10
718.46934
 20
447.37343
 10
719.01127
 20
447.35294
 10
719.4166
 20
447.33758
 10
719.77784
 20
447.32477
 10
720.01989
 20
447.31736
 10
720.20169
 20
447.31258
 10
720.36337
 20
447.30912
 10
720.48477
 20
447.30685
 10
720.60637
 20
447.30489
 10
720.72829
 20
447.30346
 10
720.85028
 20
447.30278
 10
720.97216
 20
447.30259
 10
721.09377
 20
447.30286
 10
721.21509
 20
447.30387
 10
721.3362
 20
447.3056
 10
721.44214
 20
447.30778
 10
721.55962
 20
447.31103
 10
721.70538
 20
447.31574
 10
721.99536
 20
447.32666
 10
722.28342
 20
447.33893
 10
722.57129
 20
447.353
 10
722.8925
 20
447.36973
 10
723.21113
 20
447.38777
 10
723.45048
 20
447.40154
 10
723.6891800000001
 20
447.41662
 10
723.92013
 20
447.43248
 10
724.1103800000001
 20
447.44613
 10
724.32153
 20
447.46227
 10
724.55627
 20
447.48093
 10
724.84586
 20
447.50478
 10
725.13379
 20
447.52926
 10
725.57108
 20
447.56734
 10
727.3296700000001
 20
447.72377
 10
729.09016
 20
447.88256
 10
729.6629800000001
 20
447.93474
 10
730.23608
 20
447.98783
 10
730.81159
 20
448.04112
 10
731.51081
 20
448.105
 10
733.02698
 20
448.24603
 10
734.67289
 20
448.40109
 10
737.50686
 20
448.66229
 10
748.37904
 20
449.66221
 10
770.13634
 20
451.65393
 10
771.9137900000001
 20
432.97892
  0
TEXT
  5
39
330
17
100
AcDbEntity
  8
MARK
100
AcDbText
 10
711.2886441529511
 20
229.043105
 30
0.0
 40
2.5
  1
SKIN_WLIN_F01
100
AcDbText
  0
LWPOLYLINE
  5
3A
330
17
100
AcDbEntity
  8
CUT
100
AcDbPolyline
 90
10
 70
1
 10
940.2035900000001
 20
5.0
 10
940.2035900000001
 20
373.65
 10
943.8149500000001
 20
373.65
 10
947.42632
 20
373.65
 10
951.03768
 20
373.65
 10
954.6490500000001
 20
373.65
 10
954.6490500000001
 20
5.0
 10
951.03768
 20
5.0
 10
947.42632
 20
5.0
 10
943.8149500000001
 20
5.0
  0
TEXT
  5
3B
330
17
100
AcDbEntity
  8
MARK
100
AcDbText
 10
947.42632
 20
189.325
 30
0.0
 40
2.5
  1
SKIN_F17
100
AcDbText
  0
LWPOLYLINE
  5
3C
330
17
100
AcDbEntity
  8
CUT
100
AcDbPolyline
 90
10
 70
1
 10
960.6490500000001
 20
5.0
 10
960.6490500000001
 20
373.65
 10
964.2598100000001
 20
373.65
 10
967.8705800000001
 20
373.65
 10
971.48134
 20
373.65
 10
975.09211
 20
373.65
 10
975.09211
 20
5.0
 10
971.48134
 20
5.0
 10
967.8705800000001
 20
5.0
 10
964.2598100000001
 20
5.0
  0
TEXT
  5
3D
330
17
100
AcDbEntity
  8
MARK
100
AcDbText
 10
967.87058
 20
189.325
 30
0.0
 40
2.5
  1
SKIN_F16
100
AcDbText
  0
LWPOLYLINE
  5
3E
330
17
100
AcDbEntity
  8
CUT
100
AcDbPolyline
 90
4
 70
1
 10
986.37027
 20
5.0
 10
981.09211
 20
5.0
 10
981.09211
 20
373.65
 10
986.37027
 20
373.65
  0
TEXT
  5
3F
330
17
100
AcDbEntity
  8
MARK
100
AcDbText
 10
983.73119
 20
189.325
 30
0.0
 40
2.5
  1
SKIN_F18
100
AcDbText
  0
LWPOLYLINE
  5
40
330
17
100
AcDbEntity
  8
CUT
100
AcDbPolyline
 90
10
 70
1
 10
940.2035900000001
 20
584.65
 10
943.8149500000001
 20
584.65
 10
947.42632
 20
584.65
 10
951.03768
 20
584.65
 10
954.6490500000001
 20
584.65
 10
954.6490500000001
 20
379.65
 10
951.03768
 20
379.65
 10
947.42632
 20
379.65
 10
943.8149500000001
 20
379.65
 10
940.2035900000001
 20
379.65
  0
TEXT
  5
41
330
17
100
AcDbEntity
  8
MARK
100
AcDbText
 10
947.42632
 20
482.15
 30
0.0
 40
2.5
  1
SKIN_F15
100
AcDbText
  0
LWPOLYLINE
  5
42
330
17
100
AcDbEntity
  8
CUT
100
AcDbPolyline
 90
10
 70
1
 10
975.09211
 20
379.65
 10
971.48134
 20
379.65
 10
967.8705800000001
 20
379.65
 10
964.2598100000001
 20
379.65
 10
960.6490500000001
 20
379.65
 10
960.6490500000001
 20
584.65
 10
964.2598100000001
 20
584.65
 10
967.8705800000001
 20
584.65
 10
971.48134
 20
584.65
 10
975.09211
 20
584.65
  0
TEXT
  5
43
330
17
100
AcDbEntity
  8
MARK
100
AcDbText
 10
967.87058
 20
482.15
 30
0.0
 40
2.5
  1
SKIN_F13
100
AcDbText
  0
LWPOLYLINE
  5
44
330
17
100
AcDbEntity
  8
CUT
100
AcDbPolyline
 90
4
 70
1
 10
981.09211
 20
584.65
 10
986.37027
 20
584.65
 10
986.37027
 20
379.65
 10
981.09211
 20
379.65
  0
TEXT
  5
45
330
17
100
AcDbEntity
  8
MARK
100
AcDbText
 10
983.73119
 20
482.15
 30
0.0
 40
2.5
  1
SKIN_F14
100
AcDbText
  0
LWPOLYLINE
  5
46
330
17
100
AcDbEntity
  8
CUT
100
AcDbPolyline
 90
122
 70
1
 10
548.118
 20
569.32826
 10
547.4273000000001
 20
565.80541
 10
547.01649
 20
563.6998100000001
 10
546.75093
 20
562.27531
 10
546.4923
 20
560.75298
 10
546.24801
 20
559.22511
 10
546.0252
 20
557.69041
 10
545.82037
 20
556.14876
 10
545.62488
 20
554.6008
 10
545.447
 20
553.04445
 10
545.2848
 20
551.47956
 10
545.12776
 20
549.90661
 10
544.97783
 20
548.32565
 10
544.83701
 20
546.73647
 10
544.70626
 20
545.13927
 10
544.58825
 20
543.5337
 10
544.47724
 20
541.91957
 10
544.3756
 20
540.2971
 10
544.28249
 20
538.66618
 10
544.19537
 20
537.02799
 10
544.12007
 20
535.3825
 10
544.04579
 20
533.73112
 10
543.98438
 20
532.07405
 10
543.93919
 20
530.4117200000001
 10
543.90277
 20
528.74585
 10
543.86817
 20
527.07739
 10
543.83986
 20
525.40755
 10
543.81929
 20
523.73687
 10
543.80067
 20
521.45194
 10
543.80818
 20
519.15676
 10
543.81524
 20
517.70549
 10
543.83349
 20
515.98389
 10
543.86517
 20
514.4618
 10
543.90765
 20
512.7716
 10
543.95307
 20
511.14753
 10
544.0029
 20
509.86446
 10
544.05927
 20
508.53207000000003
 10
544.12631
 20
507.15928
 10
544.20318
 20
505.75388
 10
544.2930200000001
 20
504.32387
 10
544.3891
 20
502.87568
 10
544.49895
 20
501.41673000000003
 10
544.62251
 20
499.95271
 10
544.76327
 20
498.48988
 10
544.9185
 20
497.03497000000004
 10
545.08475
 20
495.59341
 10
545.29072
 20
494.01551
 10
545.53856
 20
492.29994
 10
545.80947
 20
490.63485000000003
 10
546.07925
 20
489.12133
 10
546.3872
 20
487.51393
 10
546.70378
 20
485.99606
 10
547.13937
 20
484.08482000000004
 10
548.118
 20
479.92096000000004
 10
537.78547
 20
477.10737
 10
527.41643
 20
474.35323
 10
517.01971
 20
471.70128
 10
506.60025
 20
469.16709000000003
 10
495.68714
 20
466.62468
 10
495.16963
 20
469.40231
 10
494.68589000000003
 20
472.19184
 10
494.29595
 20
474.5994
 10
493.8797
 20
477.33522
 10
493.27567
 20
482.03666
 10
493.18234
 20
482.73358
 10
493.10551000000004
 20
483.49551
 10
492.82705
 20
485.94047
 10
492.67652000000004
 20
487.55116000000004
 10
492.13523000000004
 20
493.6352
 10
491.81170000000003
 20
498.55288
 10
491.68408
 20
500.26455
 10
491.66082
 20
500.70734
 10
491.46977000000004
 20
504.66793
 10
491.44157
 20
505.48298
 10
491.3386
 20
508.34386
 10
491.28012
 20
509.82707
 10
491.25972
 20
510.57207
 10
491.24504
 20
512.24498
 10
491.18336
 20
514.96696
 10
491.16696
 20
515.89675
 10
491.15462
 20
516.87481
 10
491.14796
 20
518.65122
 10
491.15308
 20
519.05631
 10
491.15055
 20
519.25463
 10
491.14888
 20
519.31109
 10
491.14841
 20
519.34103
 10
491.17581
 20
524.1536100000001
 10
491.1847
 20
524.79309
 10
491.20219000000003
 20
525.29686
 10
491.22446
 20
526.42826
 10
491.27297
 20
529.3643
 10
491.28513000000004
 20
530.02354
 10
491.31309
 20
530.89255
 10
491.4144
 20
534.28081
 10
491.55002
 20
537.72326
 10
491.57873
 20
538.31437
 10
491.66664000000003
 20
540.0128500000001
 10
491.73738000000003
 20
541.4507100000001
 10
491.77115000000003
 20
542.11239
 10
491.85663
 20
543.64752
 10
491.91569000000004
 20
544.5984
 10
492.32911
 20
550.6872900000001
 10
492.38001
 20
551.37661
 10
492.49605
 20
552.81456
 10
492.51168
 20
553.02849
 10
492.78436
 20
556.20614
 10
492.88744
 20
557.3811900000001
 10
493.07716
 20
559.22224
 10
493.4125
 20
562.54619
 10
493.64384
 20
564.6385700000001
 10
494.05086
 20
567.95865
 10
494.21123
 20
569.25482
 10
494.31587
 20
570.02623
 10
494.51742
 20
571.38657
 10
495.03288000000003
 20
574.97627
 10
495.3789
 20
577.16152
 10
495.56595
 20
578.33003
 10
495.94548000000003
 20
580.56159
 10
500.37762000000004
 20
579.66071
 10
511.71125
 20
577.33044
 10
523.0293
 20
574.91142
 10
535.59034
 20
572.16092
  0
TEXT
  5
47
330
17
100
AcDbEntity
  8
MARK
100
AcDbText
 10
517.4884564018884
 20
522.594405
 30
0.0
 40
2.5
  1
SKIN_F30
100
AcDbText
  0
LWPOLYLINE
  5
48
330
17
100
AcDbEntity
  8
CUT
100
AcDbPolyline
 90
22
 70
1
 10
555.07091
 20
467.19922
 10
554.118
 20
489.25818000000004
 10
554.6976000000001
 20
513.04006
 10
556.9870800000001
 20
539.47358
 10
560.0257600000001
 20
564.84274
 10
561.9180100000001
 20
579.86836
 10
568.36674
 20
579.16341
 10
574.7091
 20
578.41377
 10
580.94704
 20
577.53928
 10
587.0771100000001
 20
576.45825
 10
593.0998500000001
 20
575.13697
 10
599.02988
 20
573.5959
 10
595.42917
 20
558.77495
 10
588.6943000000001
 20
533.92545
 10
580.1305400000001
 20
508.59065
 10
570.3454700000001
 20
486.55664
 10
559.54191
 20
466.62468
 10
558.8432
 20
466.85786
 10
558.1040700000001
 20
466.90408
 10
557.3560900000001
 20
466.89645
 10
556.5988600000001
 20
466.93137
 10
555.83668
 20
467.03919
  0
TEXT
  5
49
330
17
100
AcDbEntity
  8
MARK
100
AcDbText
 10
570.3832466767481
 20
523.482755
 30
0.0
 40
2.5
  1
FNG4
100
AcDbText
  0
LWPOLYLINE
  5
4A
330
17
100
AcDbEntity
  8
CUT
100
AcDbPolyline
 90
22
 70
1
 10
605.1383800000001
 20
468.24236
 10
605.02988
 20
490.31252
 10
607.5744000000001
 20
513.94661
 10
613.1898000000001
 20
539.85901
 10
620.05271
 20
564.46029
 10
624.38665
 20
578.97121
 10
630.6678800000001
 20
576.95671
 10
637.03503
 20
574.85142
 10
643.4591
 20
572.59736
 10
649.89408
 20
570.13648
 10
656.29641
 20
567.45493
 10
662.63759
 20
564.58828
 10
656.55056
 20
550.66192
 10
645.8752000000001
 20
527.40454
 10
633.81443
 20
503.95356000000004
 10
621.80025
 20
484.05209
 10
609.76948
 20
466.62468
 10
609.0259000000001
 20
467.00841
 10
608.2267400000001
 20
467.24678
 10
607.42123
 20
467.43938
 10
606.6316400000001
 20
467.65892
 10
605.87041
 20
467.93106
  0
TEXT
  5
4B
330
17
100
AcDbEntity
  8
MARK
100
AcDbText
 10
625.7235636598007
 20
520.675575
 30
0.0
 40
2.5
  1
FNG2
100
AcDbText
  0
LWPOLYLINE
  5
4C
330
17
100
AcDbEntity
  8
CUT
100
AcDbPolyline
 90
22
 70
1
 10
673.10289
 20
466.98986
 10
670.08835
 20
488.07788
 10
668.63759
 20
511.36652000000004
 10
668.9077500000001
 20
537.70187
 10
670.1563100000001
 20
563.14813
 10
671.04188
 20
578.24811
 10
677.97379
 20
577.8317
 10
684.8821200000001
 20
577.36577
 10
691.7399300000001
 20
576.78547
 10
698.51225
 20
576.02269
 10
705.16443
 20
575.05225
 10
711.6729
 20
573.89869
 10
708.94574
 20
558.92606
 10
703.66818
 20
533.8183
 10
696.5405400000001
 20
508.24503000000004
 10
687.88932
 20
486.20264000000003
 10
677.99334
 20
466.62468
 10
677.2188500000001
 20
466.80327
 10
676.4112700000001
 20
466.81885
 10
675.5924100000001
 20
466.79225
 10
674.7639800000001
 20
466.80276000000003
 10
673.93237
 20
466.87446
  0
TEXT
  5
4D
330
17
100
AcDbEntity
  8
MARK
100
AcDbText
 10
684.6460562387958
 20
522.59241
 30
0.0
 40
2.5
  1
FNG3
100
AcDbText
  0
ENDSEC
  0
SECTION
  2
OBJECTS
  0
DICTIONARY
  5
A
330
0
100
AcDbDictionary
281
1
  3
ACAD_COLOR
350
B
  3
ACAD_GROUP
350
C
  3
ACAD_LAYOUT
350
D
  3
ACAD_MATERIAL
350
E
  3
ACAD_MLEADERSTYLE
350
F
  3
ACAD_MLINESTYLE
350
10
  3
ACAD_PLOTSETTINGS
350
11
  3
ACAD_PLOTSTYLENAME
350
12
  3
ACAD_SCALELIST
350
14
  3
ACAD_TABLESTYLE
350
15
  3
ACAD_VISUALSTYLE
350
16
  3
EZDXF_META
350
2D
  0
DICTIONARY
  5
B
330
A
100
AcDbDictionary
281
1
  0
DICTIONARY
  5
C
330
A
100
AcDbDictionary
281
1
  0
DICTIONARY
  5
D
330
A
100
AcDbDictionary
281
1
  3
Model
350
1A
  3
Layout1
350
1E
  0
DICTIONARY
  5
E
330
A
100
AcDbDictionary
281
1
  3
ByBlock
350
1F
  3
ByLayer
350
20
  3
Global
350
21
  0
DICTIONARY
  5
F
330
A
100
AcDbDictionary
281
1
  3
Standard
350
2C
  0
DICTIONARY
  5
10
330
A
100
AcDbDictionary
281
1
  3
Standard
350
22
  0
DICTIONARY
  5
11
330
A
100
AcDbDictionary
281
1
  0
ACDBDICTIONARYWDFLT
  5
12
330
A
100
AcDbDictionary
281
1
  3
Normal
350
13
100
AcDbDictionaryWithDefault
340
13
  0
ACDBPLACEHOLDER
  5
13
330
12
  0
DICTIONARY
  5
14
330
A
100
AcDbDictionary
281
1
  0
DICTIONARY
  5
15
330
A
100
AcDbDictionary
281
1
  0
DICTIONARY
  5
16
330
A
100
AcDbDictionary
281
1
  0
LAYOUT
  5
1A
330
D
100
AcDbPlotSettings
  1

  4
A3
  6

 40
7.5
 41
20.0
 42
7.5
 43
20.0
 44
420.0
 45
297.0
 46
0.0
 47
0.0
 48
0.0
 49
0.0
140
0.0
141
0.0
142
1.0
143
1.0
 70
1024
 72
1
 73
0
 74
5
  7

 75
16
 76
0
 77
2
 78
300
147
1.0
148
0.0
149
0.0
100
AcDbLayout
  1
Model
 70
1
 71
0
 10
0.0
 20
0.0
 11
420.0
 21
297.0
 12
0.0
 22
0.0
 32
0.0
 14
1e+20
 24
1e+20
 34
1e+20
 15
-1e+20
 25
-1e+20
 35
-1e+20
146
0.0
 13
0.0
 23
0.0
 33
0.0
 16
1.0
 26
0.0
 36
0.0
 17
0.0
 27
1.0
 37
0.0
 76
1
330
17
  0
LAYOUT
  5
1E
330
D
100
AcDbPlotSettings
  1

  4
A3
  6

 40
7.5
 41
20.0
 42
7.5
 43
20.0
 44
420.0
 45
297.0
 46
0.0
 47
0.0
 48
0.0
 49
0.0
140
0.0
141
0.0
142
1.0
143
1.0
 70
0
 72
1
 73
0
 74
5
  7

 75
16
 76
0
 77
2
 78
300
147
1.0
148
0.0
149
0.0
100
AcDbLayout
  1
Layout1
 70
1
 71
1
 10
0.0
 20
0.0
 11
420.0
 21
297.0
 12
0.0
 22
0.0
 32
0.0
 14
1e+20
 24
1e+20
 34
1e+20
 15
-1e+20
 25
-1e+20
 35
-1e+20
146
0.0
 13
0.0
 23
0.0
 33
0.0
 16
1.0
 26
0.0
 36
0.0
 17
0.0
 27
1.0
 37
0.0
 76
1
330
1B
  0
MATERIAL
  5
1F
102
{ACAD_REACTORS
330
E
102
}
330
E
100
AcDbMaterial
  1
ByBlock
  2

 70
0
 40
1.0
 71
1
 41
1.0
 91
-1023410177
 42
1.0
 72
1
  3

 73
1
 74
1
 75
1
 44
0.5
 73
0
 45
1.0
 46
1.0
 77
1
  4

 78
1
 79
1
170
1
 48
1.0
171
1
  6

172
1
173
1
174
1
140
1.0
141
1.0
175
1
  7

176
1
177
1
178
1
143
1.0
179
1
  8

270
1
271
1
272
1
145
1.0
146
1.0
273
1
  9

274
1
275
1
276
1
 42
1.0
 72
1
  3

 73
1
 74
1
 75
1
 94
63
  0
MATERIAL
  5
20
102
{ACAD_REACTORS
330
E
102
}
330
E
100
AcDbMaterial
  1
ByLayer
  2

 70
0
 40
1.0
 71
1
 41
1.0
 91
-1023410177
 42
1.0
 72
1
  3

 73
1
 74
1
 75
1
 44
0.5
 73
0
 45
1.0
 46
1.0
 77
1
  4

 78
1
 79
1
170
1
 48
1.0
171
1
  6

172
1
173
1
174
1
140
1.0
141
1.0
175
1
  7

176
1
177
1
178
1
143
1.0
179
1
  8

270
1
271
1
272
1
145
1.0
146
1.0
273
1
  9

274
1
275
1
276
1
 42
1.0
 72
1
  3

 73
1
 74
1
 75
1
 94
63
  0
MATERIAL
  5
21
102
{ACAD_REACTORS
330
E
102
}
330
E
100
AcDbMaterial
  1
Global
  2

 70
0
 40
1.0
 71
1
 41
1.0
 91
-1023410177
 42
1.0
 72
1
  3

 73
1
 74
1
 75
1
 44
0.5
 73
0
 45
1.0
 46
1.0
 77
1
  4

 78
1
 79
1
170
1
 48
1.0
171
1
  6

172
1
173
1
174
1
140
1.0
141
1.0
175
1
  7

176
1
177
1
178
1
143
1.0
179
1
  8

270
1
271
1
272
1
145
1.0
146
1.0
273
1
  9

274
1
275
1
276
1
 42
1.0
 72
1
  3

 73
1
 74
1
 75
1
 94
63
  0
MLINESTYLE
  5
22
102
{ACAD_REACTORS
330
10
102
}
330
10
100
AcDbMlineStyle
  2
Standard
 70
0
  3

 62
256
 51
90.0
 52
90.0
 71
2
 49
0.5
 62
256
  6
BYLAYER
 49
-0.5
 62
256
  6
BYLAYER
  0
MLEADERSTYLE
  5
2C
102
{ACAD_REACTORS
330
F
102
}
330
F
100
AcDbMLeaderStyle
179
2
170
2
171
1
172
0
 90
2
 40
0.0
 41
0.0
173
1
 91
-1056964608
 92
-2
290
1
 42
2.0
291
1
 43
8.0
  3
Standard
 44
4.0
300

342
29
174
1
175
1
176
0
178
1
 93
-1056964608
 45
4.0
292
0
297
0
 46
4.0
 94
-1056964608
 47
1.0
 49
1.0
140
1.0
294
1
141
0.0
177
0
142
1.0
295
0
296
0
143
3.75
271
0
272
9
273
9
  0
DICTIONARY
  5
2D
330
A
100
AcDbDictionary
280
1
281
1
  3
CREATED_BY_EZDXF
350
2E
  3
WRITTEN_BY_EZDXF
350
50
  0
DICTIONARYVAR
  5
2E
330
2D
100
DictionaryVariables
280
0
  1
1.4.4 @ 2026-09-23T04:01:14.786140+00:00
  0
DICTIONARYVAR
  5
50
330
2D
100
DictionaryVariables
280
0
  1
1.4.4 @ 2026-09-23T04:01:14.853361+00:00
  0
ENDSEC
  0
EOF
