  0
SECTION
  2
HEADER
  9
$ACADVER
  1
AC1027
  9
$ACADMAINTVER
 70
105
  9
$DWGCODEPAGE
  3
ANSI_1252
  9
$LASTSAVEDBY
  1
ezdxf
  9
$REQUIREDVERSIONS
160
0
  9
$INSBASE
 10
0.0
 20
0.0
 30
0.0
  9
$EXTMIN
 10
1e+20
 20
1e+20
 30
1e+20
  9
$EXTMAX
 10
-1e+20
 20
-1e+20
 30
-1e+20
  9
$LIMMIN
 10
0.0
 20
0.0
  9
$LIMMAX
 10
420.0
 20
297.0
  9
$ORTHOMODE
 70
0
  9
$REGENMODE
 70
1
  9
$FILLMODE
 70
1
  9
$QTEXTMODE
 70
0
  9
$MIRRTEXT
 70
1
  9
$LTSCALE
 40
1.0
  9
$ATTMODE
 70
1
  9
$TEXTSIZE
 40
2.5
  9
$TRACEWID
 40
1.0
  9
$TEXTSTYLE
  7
Standard
  9
$CLAYER
  8
0
  9
$CELTYPE
  6
ByLayer
  9
$CECOLOR
 62
256
  9
$CELTSCALE
 40
1.0
  9
$DISPSILH
 70
0
  9
$DIMSCALE
 40
1.0
  9
$DIMASZ
 40
2.5
  9
$DIMEXO
 40
0.625
  9
$DIMDLI
 40
3.75
  9
$DIMRND
 40
0.0
  9
$DIMDLE
 40
0.0
  9
$DIMEXE
 40
1.25
  9
$DIMTP
 40
0.0
  9
$DIMTM
 40
0.0
  9
$DIMTXT
 40
2.5
  9
$DIMCEN
 40
2.5
  9
$DIMTSZ
 40
0.0
  9
$DIMTOL
 70
0
  9
$DIMLIM
 70
0
  9
$DIMTIH
 70
0
  9
$DIMTOH
 70
0
  9
$DIMSE1
 70
0
  9
$DIMSE2
 70
0
  9
$DIMTAD
 70
1
  9
$DIMZIN
 70
8
  9
$DIMBLK
  1

  9
$DIMASO
 70
1
  9
$DIMSHO
 70
1
  9
$DIMPOST
  1

  9
$DIMAPOST
  1

  9
$DIMALT
 70
0
  9
$DIMALTD
 70
3
  9
$DIMALTF
 40
0.03937007874
  9
$DIMLFAC
 40
1.0
  9
$DIMTOFL
 70
1
  9
$DIMTVP
 40
0.0
  9
$DIMTIX
 70
0
  9
$DIMSOXD
 70
0
  9
$DIMSAH
 70
0
  9
$DIMBLK1
  1

  9
$DIMBLK2
  1

  9
$DIMSTYLE
  2
ISO-25
  9
$DIMCLRD
 70
0
  9
$DIMCLRE
 70
0
  9
$DIMCLRT
 70
0
  9
$DIMTFAC
 40
1.0
  9
$DIMGAP
 40
0.625
  9
$DIMJUST
 70
0
  9
$DIMSD1
 70
0
  9
$DIMSD2
 70
0
  9
$DIMTOLJ
 70
0
  9
$DIMTZIN
 70
8
  9
$DIMALTZ
 70
0
  9
$DIMALTTZ
 70
0
  9
$DIMUPT
 70
0
  9
$DIMDEC
 70
2
  9
$DIMTDEC
 70
2
  9
$DIMALTU
 70
2
  9
$DIMALTTD
 70
3
  9
$DIMTXSTY
  7
Standard
  9
$DIMAUNIT
 70
0
  9
$DIMADEC
 70
0
  9
$DIMALTRND
 40
0.0
  9
$DIMAZIN
 70
0
  9
$DIMDSEP
 70
44
  9
$DIMATFIT
 70
3
  9
$DIMFRAC
 70
0
  9
$DIMLDRBLK
  1

  9
$DIMLUNIT
 70
2
  9
$DIMLWD
 70
-2
  9
$DIMLWE
 70
-2
  9
$DIMTMOVE
 70
0
  9
$DIMFXL
 40
1.0
  9
$DIMFXLON
 70
0
  9
$DIMJOGANG
 40
0.785398163397
  9
$DIMTFILL
 70
0
  9
$DIMTFILLCLR
 70
0
  9
$DIMARCSYM
 70
0
  9
$DIMLTYPE
  6

  9
$DIMLTEX1
  6

  9
$DIMLTEX2
  6

  9
$DIMTXTDIRECTION
 70
0
  9
$LUNITS
 70
2
  9
$LUPREC
 70
4
  9
$SKETCHINC
 40
1.0
  9
$FILLETRAD
 40
10.0
  9
$AUNITS
 70
0
  9
$AUPREC
 70
2
  9
$MENU
  1
.
  9
$ELEVATION
 40
0.0
  9
$PELEVATION
 40
0.0
  9
$THICKNESS
 40
0.0
  9
$LIMCHECK
 70
0
  9
$CHAMFERA
 40
0.0
  9
$CHAMFERB
 40
0.0
  9
$CHAMFERC
 40
0.0
  9
$CHAMFERD
 40
0.0
  9
$SKPOLY
 70
0
  9
$TDCREATE
 40
2461303.705428241
  9
$TDUCREATE
 40
2458532.153996898
  9
$TDUPDATE
 40
2461303.705428241
  9
$TDUUPDATE
 40
2458532.1544311
  9
$TDINDWG
 40
0.0
  9
$TDUSRTIMER
 40
0.0
  9
$USRTIMER
 70
1
  9
$ANGBASE
 50
0.0
  9
$ANGDIR
 70
0
  9
$PDMODE
 70
0
  9
$PDSIZE
 40
0.0
  9
$PLINEWID
 40
0.0
  9
$SPLFRAME
 70
0
  9
$SPLINETYPE
 70
6
  9
$SPLINESEGS
 70
8
  9
$HANDSEED
  5
3F
  9
$SURFTAB1
 70
6
  9
$SURFTAB2
 70
6
  9
$SURFTYPE
 70
6
  9
$SURFU
 70
6
  9
$SURFV
 70
6
  9
$UCSBASE
  2

  9
$UCSNAME
  2

  9
$UCSORG
 10
0.0
 20
0.0
 30
0.0
  9
$UCSXDIR
 10
1.0
 20
0.0
 30
0.0
  9
$UCSYDIR
 10
0.0
 20
1.0
 30
0.0
  9
$UCSORTHOREF
  2

  9
$UCSORTHOVIEW
 70
0
  9
$UCSORGTOP
 10
0.0
 20
0.0
 30
0.0
  9
$UCSORGBOTTOM
 10
0.0
 20
0.0
 30
0.0
  9
$UCSORGLEFT
 10
0.0
 20
0.0
 30
0.0
  9
$UCSORGRIGHT
 10
0.0
 20
0.0
 30
0.0
  9
$UCSORGFRONT
 10
0.0
 20
0.0
 30
0.0
  9
$UCSORGBACK
 10
0.0
 20
0.0
 30
0.0
  9
$PUCSBASE
  2

  9
$PUCSNAME
  2

  9
$PUCSORG
 10
0.0
 20
0.0
 30
0.0
  9
$PUCSXDIR
 10
1.0
 20
0.0
 30
0.0
  9
$PUCSYDIR
 10
0.0
 20
1.0
 30
0.0
  9
$PUCSORTHOREF
  2

  9
$PUCSORTHOVIEW
 70
0
  9
$PUCSORGTOP
 10
0.0
 20
0.0
 30
0.0
  9
$PUCSORGBOTTOM
 10
0.0
 20
0.0
 30
0.0
  9
$PUCSORGLEFT
 10
0.0
 20
0.0
 30
0.0
  9
$PUCSORGRIGHT
 10
0.0
 20
0.0
 30
0.0
  9
$PUCSORGFRONT
 10
0.0
 20
0.0
 30
0.0
  9
$PUCSORGBACK
 10
0.0
 20
0.0
 30
0.0
  9
$USERI1
 70
0
  9
$USERI2
 70
0
  9
$USERI3
 70
0
  9
$USERI4
 70
0
  9
$USERI5
 70
0
  9
$USERR1
 40
0.0
  9
$USERR2
 40
0.0
  9
$USERR3
 40
0.0
  9
$USERR4
 40
0.0
  9
$USERR5
 40
0.0
  9
$WORLDVIEW
 70
1
  9
$SHADEDGE
 70
3
  9
$SHADEDIF
 70
70
  9
$TILEMODE
 70
1
  9
$MAXACTVP
 70
64
  9
$PINSBASE
 10
0.0
 20
0.0
 30
0.0
  9
$PLIMCHECK
 70
0
  9
$PEXTMIN
 10
1e+20
 20
1e+20
 30
1e+20
  9
$PEXTMAX
 10
-1e+20
 20
-1e+20
 30
-1e+20
  9
$PLIMMIN
 10
0.0
 20
0.0
  9
$PLIMMAX
 10
420.0
 20
297.0
  9
$UNITMODE
 70
0
  9
$VISRETAIN
 70
1
  9
$PLINEGEN
 70
0
  9
$PSLTSCALE
 70
1
  9
$TREEDEPTH
 70
3020
  9
$CMLSTYLE
  2
Standard
  9
$CMLJUST
 70
0
  9
$CMLSCALE
 40
20.0
  9
$PROXYGRAPHICS
 70
1
  9
$MEASUREMENT
 70
1
  9
$CELWEIGHT
370
-1
  9
$ENDCAPS
280
0
  9
$JOINSTYLE
280
0
  9
$LWDISPLAY
290
0
  9
$INSUNITS
 70
4
  9
$HYPERLINKBASE
  1

  9
$STYLESHEET
  1

  9
$XEDIT
290
1
  9
$CEPSNTYPE
380
0
  9
$PSTYLEMODE
290
1
  9
$FINGERPRINTGUID
  2
{BB10E9C8-7B69-42E3-AB08-6971CAAE405F}
  9
$VERSIONGUID
  2
{CF10D556-6A98-4B26-8F8E-DBE7A75CB66A}
  9
$EXTNAMES
290
1
  9
$PSVPSCALE
 40
0.0
  9
$OLESTARTUP
290
0
  9
$SORTENTS
280
127
  9
$INDEXCTL
280
0
  9
$HIDETEXT
280
1
  9
$XCLIPFRAME
280
1
  9
$HALOGAP
280
0
  9
$OBSCOLOR
 70
257
  9
$OBSLTYPE
280
0
  9
$INTERSECTIONDISPLAY
280
0
  9
$INTERSECTIONCOLOR
 70
257
  9
$DIMASSOC
280
2
  9
$PROJECTNAME
  1

  9
$CAMERADISPLAY
290
0
  9
$LENSLENGTH
 40
50.0
  9
$CAMERAHEIGHT
 40
0.0
  9
$STEPSPERSEC
 40
24.0
  9
$STEPSIZE
 40
100.0
  9
$3DDWFPREC
 40
2.0
  9
$PSOLWIDTH
 40
0.005
  9
$PSOLHEIGHT
 40
0.08
  9
$LOFTANG1
 40
1.570796326795
  9
$LOFTANG2
 40
1.570796326795
  9
$LOFTMAG1
 40
0.0
  9
$LOFTMAG2
 40
0.0
  9
$LOFTPARAM
 70
7
  9
$LOFTNORMALS
280
1
  9
$LATITUDE
 40
37.795
  9
$LONGITUDE
 40
-122.394
  9
$NORTHDIRECTION
 40
0.0
  9
$TIMEZONE
 70
-8000
  9
$LIGHTGLYPHDISPLAY
280
1
  9
$TILEMODELIGHTSYNCH
280
1
  9
$CMATERIAL
347
20
  9
$SOLIDHIST
280
0
  9
$SHOWHIST
280
1
  9
$DWFFRAME
280
2
  9
$DGNFRAME
280
2
  9
$REALWORLDSCALE
290
1
  9
$INTERFERECOLOR
 62
256
  9
$CSHADOW
280
0
  9
$SHADOWPLANELOCATION
 40
0.0
  0
ENDSEC
  0
SECTION
  2
CLASSES
  0
CLASS
  1
ACDBDICTIONARYWDFLT
  2
AcDbDictionaryWithDefault
  3
ObjectDBX Classes
 90
0
 91
0
280
0
281
0
  0
CLASS
  1
SUN
  2
AcDbSun
  3
SCENEOE
 90
1153
 91
0
280
0
281
0
  0
CLASS
  1
VISUALSTYLE
  2
AcDbVisualStyle
  3
ObjectDBX Classes
 90
4095
 91
0
280
0
281
0
  0
CLASS
  1
MATERIAL
  2
AcDbMaterial
  3
ObjectDBX Classes
 90
1153
 91
0
280
0
281
0
  0
CLASS
  1
SCALE
  2
AcDbScale
  3
ObjectDBX Classes
 90
1153
 91
0
280
0
281
0
  0
CLASS
  1
TABLESTYLE
  2
AcDbTableStyle
  3
ObjectDBX Classes
 90
4095
 91
0
280
0
281
0
  0
CLASS
  1
MLEADERSTYLE
  2
AcDbMLeaderStyle
  3
ACDB_MLEADERSTYLE_CLASS
 90
4095
 91
0
280
0
281
0
  0
CLASS
  1
DICTIONARYVAR
  2
AcDbDictionaryVar
  3
ObjectDBX Classes
 90
0
 91
0
280
0
281
0
  0
CLASS
  1
CELLSTYLEMAP
  2
AcDbCellStyleMap
  3
ObjectDBX Classes
 90
1152
 91
0
280
0
281
0
  0
CLASS
  1
MENTALRAYRENDERSETTINGS
  2
AcDbMentalRayRenderSettings
  3
SCENEOE
 90
1024
 91
0
280
0
281
0
  0
CLASS
  1
ACDBDETAILVIEWSTYLE
  2
AcDbDetailViewStyle
  3
ObjectDBX Classes
 90
1025
 91
0
280
0
281
0
  0
CLASS
  1
ACDBSECTIONVIEWSTYLE
  2
AcDbSectionViewStyle
  3
ObjectDBX Classes
 90
1025
 91
0
280
0
281
0
  0
CLASS
  1
RASTERVARIABLES
  2
AcDbRasterVariables
  3
ISM
 90
0
 91
0
280
0
281
0
  0
CLASS
  1
ACDBPLACEHOLDER
  2
AcDbPlaceHolder
  3
ObjectDBX Classes
 90
0
 91
0
280
0
281
0
  0
CLASS
  1
LAYOUT
  2
AcDbLayout
  3
ObjectDBX Classes
 90
0
 91
0
280
0
281
0
  0
ENDSEC
  0
SECTION
  2
TABLES
  0
TABLE
  2
VPORT
  5
8
330
0
100
AcDbSymbolTable
 70
1
  0
VPORT
  5
38
330
8
100
AcDbSymbolTableRecord
100
AcDbViewportTableRecord
  2
*Active
 70
0
 10
0.0
 20
0.0
 11
1.0
 21
1.0
 12
21.699718521274953
 22
7.658437706558001
 13
0.0
 23
0.0
 14
0.5
 24
0.5
 15
0.5
 25
0.5
 16
0.0
 26
0.0
 36
1.0
 17
0.0
 27
0.0
 37
0.0
 40
21.699718421275048
 41
1.34
 42
50.0
 43
0.0
 44
0.0
 50
0.0
 51
0.0
 71
0
 72
1000
 73
1
 74
3
 75
0
 76
0
 77
0
 78
0
281
0
 65
1
110
0.0
120
0.0
130
0.0
111
1.0
121
0.0
131
0.0
112
0.0
122
1.0
132
0.0
 79
0
146
0.0
  0
ENDTAB
  0
TABLE
  2
LTYPE
  5
2
330
0
100
AcDbSymbolTable
 70
3
  0
LTYPE
  5
24
330
2
100
AcDbSymbolTableRecord
100
AcDbLinetypeTableRecord
  2
ByBlock
 70
0
  3

 72
65
 73
0
 40
0.0
  0
LTYPE
  5
25
330
2
100
AcDbSymbolTableRecord
100
AcDbLinetypeTableRecord
  2
ByLayer
 70
0
  3

 72
65
 73
0
 40
0.0
  0
LTYPE
  5
26
330
2
100
AcDbSymbolTableRecord
100
AcDbLinetypeTableRecord
  2
Continuous
 70
0
  3

 72
65
 73
0
 40
0.0
  0
ENDTAB
  0
TABLE
  2
LAYER
  5
1
330
0
100
AcDbSymbolTable
 70
4
  0
LAYER
  5
27
330
1
100
AcDbSymbolTableRecord
100
AcDbLayerTableRecord
  2
0
 70
0
 62
7
  6
Continuous
370
-3
390
13
347
21
  0
LAYER
  5
28
330
1
100
AcDbSymbolTableRecord
100
AcDbLayerTableRecord
  2
Defpoints
 70
0
 62
7
  6
Continuous
290
0
370
-3
390
13
347
21
  0
LAYER
  5
3C
330
1
100
AcDbSymbolTableRecord
100
AcDbLayerTableRecord
  2
LABELS_NONCUT
 70
0
 62
3
  6
Continuous
370
-3
390
13
347
21
  0
LAYER
  5
3E
330
1
100
AcDbSymbolTableRecord
100
AcDbLayerTableRecord
  2
CUT
 70
0
 62
1
  6
Continuous
370
-3
390
13
347
21
  0
ENDTAB
  0
TABLE
  2
STYLE
  5
5
330
0
100
AcDbSymbolTable
 70
1
  0
STYLE
  5
29
330
5
100
AcDbSymbolTableRecord
100
AcDbTextStyleTableRecord
  2
Standard
 70
0
 40
0.0
 41
1.0
 50
0.0
 71
0
 42
2.5
  3
txt
  4

  0
ENDTAB
  0
TABLE
  2
VIEW
  5
7
330
0
100
AcDbSymbolTable
 70
0
  0
ENDTAB
  0
TABLE
  2
UCS
  5
6
330
0
100
AcDbSymbolTable
 70
0
  0
ENDTAB
  0
TABLE
  2
APPID
  5
3
330
0
100
AcDbSymbolTable
 70
3
  0
APPID
  5
2A
330
3
100
AcDbSymbolTableRecord
100
AcDbRegAppTableRecord
  2
ACAD
 70
0
  0
APPID
  5
39
330
3
100
AcDbSymbolTableRecord
100
AcDbRegAppTableRecord
  2
HATCHBACKGROUNDCOLOR
 70
0
  0
APPID
  5
3A
330
3
100
AcDbSymbolTableRecord
100
AcDbRegAppTableRecord
  2
EZDXF
 70
0
  0
ENDTAB
  0
TABLE
  2
DIMSTYLE
  5
4
330
0
100
AcDbSymbolTable
 70
1
100
AcDbDimStyleTable
  0
DIMSTYLE
105
2B
330
4
100
AcDbSymbolTableRecord
100
AcDbDimStyleTableRecord
  2
Standard
 70
0
 40
1.0
 41
2.5
 42
0.625
 43
3.75
 44
1.25
 45
0.0
 46
0.0
 47
0.0
 48
0.0
 49
2.5
140
2.5
141
2.5
142
0.0
143
0.03937007874
144
1.0
145
0.0
146
1.0
147
0.625
148
0.0
 69
0
 70
0
 71
0
 72
0
 73
0
 74
0
 75
0
 76
0
 77
1
 78
8
 79
3
170
0
171
3
172
1
173
0
174
0
175
0
176
0
177
0
178
0
179
2
271
2
272
2
273
2
274
3
275
0
276
0
277
2
278
44
279
0
280
0
281
0
282
0
283
0
284
8
285
0
286
0
288
0
289
3
290
0
371
-2
372
-2
  0
ENDTAB
  0
TABLE
  2
BLOCK_RECORD
  5
9
330
0
100
AcDbSymbolTable
 70
2
  0
BLOCK_RECORD
  5
17
330
9
100
AcDbSymbolTableRecord
100
AcDbBlockTableRecord
  2
*Model_Space
340
1A
 70
0
280
1
281
0
  0
BLOCK_RECORD
  5
1B
330
9
100
AcDbSymbolTableRecord
100
AcDbBlockTableRecord
  2
*Paper_Space
340
1E
 70
0
280
1
281
0
  0
ENDTAB
  0
ENDSEC
  0
SECTION
  2
BLOCKS
  0
BLOCK
  5
18
330
17
100
AcDbEntity
  8
0
100
AcDbBlockBegin
  2
*Model_Space
 70
0
 10
0.0
 20
0.0
 30
0.0
  3
*Model_Space
  1

  0
ENDBLK
  5
19
330
17
100
AcDbEntity
  8
0
100
AcDbBlockEnd
  0
BLOCK
  5
1C
330
1B
100
AcDbEntity
  8
0
100
AcDbBlockBegin
  2
*Paper_Space
 70
0
 10
0.0
 20
0.0
 30
0.0
  3
*Paper_Space
  1

  0
ENDBLK
  5
1D
330
1B
100
AcDbEntity
  8
0
100
AcDbBlockEnd
  0
ENDSEC
  0
SECTION
  2
ENTITIES
  0
SPLINE
  5
2F
330
17
100
AcDbEntity
  8
CUT
100
AcDbSpline
 70
0
 71
3
 72
101
 73
97
 74
0
 40
0.0
 40
0.0
 40
0.0
 40
0.0
 40
0.012993044792050788
 40
0.012993044792050788
 40
0.012993044792050788
 40
0.025750470533057065
 40
0.025750470533057065
 40
0.025750470533057065
 40
0.039021376254865764
 40
0.039021376254865764
 40
0.039021376254865764
 40
0.06528216555954192
 40
0.06528216555954192
 40
0.06528216555954192
 40
0.11862459338280006
 40
0.11862459338280006
 40
0.11862459338280006
 40
0.17264230074042822
 40
0.17264230074042822
 40
0.17264230074042822
 40
0.1997641376027091
 40
0.1997641376027091
 40
0.1997641376027091
 40
0.21331620489080075
 40
0.21331620489080075
 40
0.21331620489080075
 40
0.2200879806093351
 40
0.2200879806093351
 40
0.2200879806093351
 40
0.22347210082399985
 40
0.22347210082399985
 40
0.22347210082399985
 40
0.2268556542799655
 40
0.2268556542799655
 40
0.2268556542799655
 40
0.2816035710462519
 40
0.2816035710462519
 40
0.2816035710462519
 40
0.28339758531582426
 40
0.28339758531582426
 40
0.28339758531582426
 40
0.2851972086412243
 40
0.2851972086412243
 40
0.2851972086412243
 40
0.28881435521579174
 40
0.28881435521579174
 40
0.28881435521579174
 40
0.29611780255589576
 40
0.29611780255589576
 40
0.29611780255589576
 40
0.3109844852037371
 40
0.3109844852037371
 40
0.3109844852037371
 40
0.3185377338820929
 40
0.3185377338820929
 40
0.3185377338820929
 40
0.3261644914996935
 40
0.3261644914996935
 40
0.3261644914996935
 40
0.3338599138945239
 40
0.3338599138945239
 40
0.3338599138945239
 40
0.3416199137794675
 40
0.3416199137794675
 40
0.3416199137794675
 40
0.4705755576044303
 40
0.4705755576044303
 40
0.4705755576044303
 40
0.4946727208789806
 40
0.4946727208789806
 40
0.4946727208789806
 40
0.5188421419550394
 40
0.5188421419550394
 40
0.5188421419550394
 40
0.6251730164656912
 40
0.6251730164656912
 40
0.6251730164656912
 40
0.6829522838378935
 40
0.6829522838378935
 40
0.6829522838378935
 40
0.7759169023209395
 40
0.7759169023209395
 40
0.7759169023209395
 40
0.8233782533195958
 40
0.8233782533195958
 40
0.8233782533195958
 40
0.8732668046801259
 40
0.8732668046801259
 40
0.8732668046801259
 40
0.926075566559369
 40
0.926075566559369
 40
0.926075566559369
 40
0.9817579565115221
 40
0.9817579565115221
 40
0.9817579565115221
 40
1.0
 40
1.0
 40
1.0
 40
1.0
 10
43.39555455109
 20
12.422652442418
 30
1.000000224849e-07
 10
43.14002395072
 20
12.453627698777
 30
1.000000224849e-07
 10
42.88543641274
 20
12.484276579789
 30
1.000000224849e-07
 10
42.6317892958
 20
12.514601880753
 30
1.000000224849e-07
 10
42.38274187769
 20
12.544377255294
 30
1.000000224849e-07
 10
42.13460739802
 20
12.573893487964
 30
1.000000224849e-07
 10
41.88737890362
 20
12.60311728598
 30
1.000000224849e-07
 10
41.63019958646
 20
12.633517327195
 30
1.000000224849e-07
 10
41.37399974225
 20
12.663593003872
 30
1.000000224849e-07
 10
41.11877714801
 20
12.693352806815
 30
1.000000224849e-07
 10
40.61373650392
 20
12.752242224855
 30
1.000000224849e-07
 10
40.11252015615
 20
12.809874712271
 30
1.000000224849e-07
 10
39.61510507592
 20
12.866264526411
 30
1.000000224849e-07
 10
38.60472691451
 20
12.980806764873
 30
1.000000224849e-07
 10
37.61004266
 20
13.090311875796
 30
1.000000224849e-07
 10
36.63085639754
 20
13.194859871198
 30
1.000000224849e-07
 10
35.63927429054
 20
13.300731374444
 30
1.000000224849e-07
 10
34.66358183181
 20
13.401486303094
 30
1.000000224849e-07
 10
33.7035932332
 20
13.497335726527
 30
1.000000224849e-07
 10
33.22159102623
 20
13.545460916449
 30
1.000000224849e-07
 10
32.74354782332
 20
13.592350638296
 30
1.000000224849e-07
 10
32.26943883396
 20
13.638016211358
 30
1.000000224849e-07
 10
32.03253906355
 20
13.660834095045
 30
1.000000224849e-07
 10
31.79662152831
 20
13.683345903291
 30
1.000000224849e-07
 10
31.56168347378
 20
13.705556388254
 30
1.000000224849e-07
 10
31.44428826172
 20
13.71665465242
 30
1.000000224849e-07
 10
31.32713761464
 20
13.727677707336
 30
1.000000224849e-07
 10
31.21023118407
 20
13.738626098401
 30
1.000000224849e-07
 10
31.15180848502
 20
13.744097436062
 30
1.000000224849e-07
 10
31.09344677546
 20
13.749550118499
 30
1.000000224849e-07
 10
31.03514596136
 20
13.754983662231
 30
1.000000224849e-07
 10
30.97685491124
 20
13.760416295977
 30
1.000000224849e-07
 10
30.91862473813
 20
13.76582981589
 30
1.000000224849e-07
 10
30.86045551032
 20
13.771225506933
 30
1.000000224849e-07
 10
29.91924264525
 20
13.858531012211
 30
1.000000224849e-07
 10
28.99396497682
 20
13.940939302848
 30
1.000000224849e-07
 10
28.08444106287
 20
14.018761861252
 30
1.000000224849e-07
 10
28.05463720956
 20
14.021311999934
 30
1.000000224849e-07
 10
28.02485029106
 20
14.023857436992
 30
1.000000224849e-07
 10
27.99508026409
 20
14.02639774676
 30
1.000000224849e-07
 10
27.96521715996
 20
14.028945998905
 30
1.000000224849e-07
 10
27.93537105297
 20
14.031489088983
 30
1.000000224849e-07
 10
27.90554195526
 20
14.034027248056
 30
1.000000224849e-07
 10
27.84558706522
 20
14.03912881196
 30
1.000000224849e-07
 10
27.78570089102
 20
14.044210460041
 30
1.000000224849e-07
 10
27.72588336329
 20
14.049272079336
 30
1.000000224849e-07
 10
27.60510469016
 20
14.059492088178
 30
1.000000224849e-07
 10
27.48460587791
 20
14.069630445302
 30
1.000000224849e-07
 10
27.36438648145
 20
14.079687708102
 30
1.000000224849e-07
 10
27.11967141308
 20
14.100159976524
 30
1.000000224849e-07
 10
26.87611413146
 20
14.120296412001
 30
1.000000224849e-07
 10
26.63371078539
 20
14.140100440639
 30
1.000000224849e-07
 10
26.51055400611
 20
14.150162184518
 30
1.000000224849e-07
 10
26.38769508985
 20
14.16013808166
 30
1.000000224849e-07
 10
26.2651335713
 20
14.170029064113
 30
1.000000224849e-07
 10
26.14137927231
 20
14.180016306554
 30
1.000000224849e-07
 10
26.01792818705
 20
14.189916969799
 30
1.000000224849e-07
 10
25.89477972721
 20
14.199730620662
 30
1.000000224849e-07
 10
25.77052254437
 20
14.209632625211
 30
1.000000224849e-07
 10
25.64657346268
 20
14.219446053383
 30
1.000000224849e-07
 10
25.52293218388
 20
14.229174380188
 30
1.000000224849e-07
 10
25.39825334755
 20
14.238984343958
 30
1.000000224849e-07
 10
25.27388749737
 20
14.248707751832
 30
1.000000224849e-07
 10
25.14983367151
 20
14.258339666321
 30
1.000000224849e-07
 10
23.08830774111
 20
14.418402778776
 30
1.000000224849e-07
 10
21.11302320366
 20
14.554166561937
 30
1.000000224849e-07
 10
19.221574303932
 20
14.668926864033
 30
1.000000224849e-07
 10
18.86813065765
 20
14.690371429428
 30
1.000000224849e-07
 10
18.517614588323
 20
14.711084547366
 30
1.000000224849e-07
 10
18.170012004301
 20
14.731116170543
 30
1.000000224849e-07
 10
17.821367098481
 20
14.751207860584
 30
1.000000224849e-07
 10
17.475652729011
 20
14.77060715745
 30
1.000000224849e-07
 10
17.132851500323
 20
14.789308327664
 30
1.000000224849e-07
 10
15.624732860866
 20
14.871582196658
 30
1.000000224849e-07
 10
14.173029683172
 20
14.940914886228
 30
1.000000224849e-07
 10
12.776393964031
 20
14.999445339541
 30
1.000000224849e-07
 10
12.01747432748
 20
15.031250276038
 30
1.000000224849e-07
 10
11.274811896432
 20
15.059790883562
 30
1.000000224849e-07
 10
10.548198501601
 20
15.085662579311
 30
1.000000224849e-07
 10
9.379105501512
 20
15.127289142509
 30
1.000000224849e-07
 10
8.251543665521
 20
15.161577871902
 30
1.000000224849e-07
 10
7.164609936001
 20
15.190249262387
 30
1.000000224849e-07
 10
6.609696205478
 20
15.204886905714
 30
1.000000224849e-07
 10
6.065370221994
 20
15.218007730659
 30
1.000000224849e-07
 10
5.531511085927
 20
15.22982991497
 30
1.000000224849e-07
 10
4.970350091381
 20
15.242256692481
 30
1.000000224849e-07
 10
4.420754333878
 20
15.253274146476
 30
1.000000224849e-07
 10
3.882581313671
 20
15.263055060957
 30
1.000000224849e-07
 10
3.312906506547
 20
15.273408498162
 30
1.000000224849e-07
 10
2.756030910106
 20
15.282378564459
 30
1.000000224849e-07
 10
2.211786740776
 20
15.290204152069
 30
1.000000224849e-07
 10
1.637927119996
 20
15.298455574851
 30
1.000000224849e-07
 10
1.078110948949
 20
15.305433182957
 30
1.000000224849e-07
 10
0.532141651378
 20
15.311369492243
 30
1.000000224849e-07
 10
0.353277280107
 20
15.313314279674
 30
1.000000224849e-07
 10
0.175899055444
 20
15.315146844122
 30
1.000000224849e-07
 10
9.999990879805e-08
 20
15.316875313116
 30
1.000000224849e-07
  0
LINE
  5
30
330
17
100
AcDbEntity
  8
CUT
100
AcDbLine
 10
9.999990524534e-08
 20
15.316875313116
 30
1.000000211865e-07
 11
0.004449631709914
 21
9.959406622608
 31
1.000000211865e-07
  0
LINE
  5
31
330
17
100
AcDbEntity
  8
CUT
100
AcDbLine
 10
0.004449631709914
 20
9.959406622608
 30
1.000000211865e-07
 11
4.995767238991
 21
9.963552055321
 31
1.000000211865e-07
  0
LINE
  5
32
330
17
100
AcDbEntity
  8
CUT
100
AcDbLine
 10
4.995767238991
 20
9.963552055321
 30
1.000000211865e-07
 11
5.004042255221
 21
1.000000020568e-07
 31
1.000000211865e-07
  0
SPLINE
  5
33
330
17
100
AcDbEntity
  8
CUT
100
AcDbSpline
 70
0
 71
3
 72
80
 73
76
 74
0
 40
0.0
 40
0.0
 40
0.0
 40
0.0
 40
0.06718966926505077
 40
0.06718966926505077
 40
0.06718966926505077
 40
0.11430150728655401
 40
0.11430150728655401
 40
0.11430150728655401
 40
0.25935974676854506
 40
0.25935974676854506
 40
0.25935974676854506
 40
0.2971936749420552
 40
0.2971936749420552
 40
0.2971936749420552
 40
0.33476908287079005
 40
0.33476908287079005
 40
0.33476908287079005
 40
0.3443837694051306
 40
0.3443837694051306
 40
0.3443837694051306
 40
0.3544104102979851
 40
0.3544104102979851
 40
0.3544104102979851
 40
0.3754854950630891
 40
0.3754854950630891
 40
0.3754854950630891
 40
0.4699115725236103
 40
0.4699115725236103
 40
0.4699115725236103
 40
0.5200699024593111
 40
0.5200699024593111
 40
0.5200699024593111
 40
0.6163499347276329
 40
0.6163499347276329
 40
0.6163499347276329
 40
0.700436779027294
 40
0.700436779027294
 40
0.700436779027294
 40
0.7445718568130734
 40
0.7445718568130734
 40
0.7445718568130734
 40
0.7654450804546191
 40
0.7654450804546191
 40
0.7654450804546191
 40
0.7785855744597322
 40
0.7785855744597322
 40
0.7785855744597322
 40
0.7908122757496504
 40
0.7908122757496504
 40
0.7908122757496504
 40
0.8214235035512131
 40
0.8214235035512131
 40
0.8214235035512131
 40
0.8622693578427655
 40
0.8622693578427655
 40
0.8622693578427655
 40
0.8860364000725305
 40
0.8860364000725305
 40
0.8860364000725305
 40
0.8987096636594661
 40
0.8987096636594661
 40
0.8987096636594661
 40
0.9052330144407034
 40
0.9052330144407034
 40
0.9052330144407034
 40
0.908540566072138
 40
0.908540566072138
 40
0.908540566072138
 40
0.9118783606292364
 40
0.9118783606292364
 40
0.9118783606292364
 40
0.9691725663785934
 40
0.9691725663785934
 40
0.9691725663785934
 40
1.0
 40
1.0
 40
1.0
 40
1.0
 10
5.004042255221
 20
1.00000002945e-07
 30
1.000000224849e-07
 10
5.722872213114
 20
0.001372153585002
 30
1.000000224849e-07
 10
6.452072188188
 20
0.002719665857002
 30
1.000000224849e-07
 10
7.189948102021
 20
0.004051371079003
 30
1.000000224849e-07
 10
7.707329582135
 20
0.004985131901003
 30
1.000000224849e-07
 10
8.228976578834
 20
0.005910912618003
 30
1.000000224849e-07
 10
8.754305091814
 20
0.006830184841002
 30
1.000000224849e-07
 10
10.371801509748
 20
0.009660641386002
 30
1.000000224849e-07
 10
12.02420001289
 20
0.012431728748
 30
1.000000224849e-07
 10
13.694453583603
 20
0.015156637393
 30
1.000000224849e-07
 10
14.130087256338
 20
0.015867345025
 30
1.000000224849e-07
 10
14.566935547234
 20
0.01657461279
 30
1.000000224849e-07
 10
15.004695997657
 20
0.017278852454
 30
1.000000224849e-07
 10
15.439465219196
 20
0.017978280028
 30
1.000000224849e-07
 10
15.875134177536
 20
0.018674561291
 30
1.000000224849e-07
 10
16.311406573047
 20
0.0193674734
 30
1.000000224849e-07
 10
16.423038689836
 20
0.019544773744
 30
1.000000224849e-07
 10
16.534710315521
 20
0.019721854834
 30
1.000000224849e-07
 10
16.64641648627
 20
0.019898660082
 30
1.000000224849e-07
 10
16.762908860269
 20
0.020083040792
 30
1.000000224849e-07
 10
16.879438802994
 20
0.020267130472
 30
1.000000224849e-07
 10
16.996000684632
 20
0.020450978538
 30
1.000000224849e-07
 10
17.241003129835
 20
0.020837410407
 30
1.000000224849e-07
 10
17.48614668184
 20
0.021222759969
 30
1.000000224849e-07
 10
17.731379061703
 20
0.021606904256
 30
1.000000224849e-07
 10
18.830132967301
 20
0.023328047425
 30
1.000000224849e-07
 10
19.93067004625
 20
0.025026941458
 30
1.000000224849e-07
 10
21.02828814507
 20
0.0267053073
 30
1.000000224849e-07
 10
21.61133355186
 20
0.027596840972
 30
1.000000224849e-07
 10
22.19355532688
 20
0.028482272278
 30
1.000000224849e-07
 10
22.77424869559
 20
0.02936189334
 30
1.000000224849e-07
 10
23.88890255964
 20
0.031050345574
 30
1.000000224849e-07
 10
24.99792491061
 20
0.032717028029
 30
1.000000224849e-07
 10
26.09633115075
 20
0.034367060516
 30
1.000000224849e-07
 10
27.05563197686
 20
0.035808128009
 30
1.000000224849e-07
 10
28.00683534612
 20
0.037231117754
 30
1.000000224849e-07
 10
28.94662068464
 20
0.038675700885
 30
1.000000224849e-07
 10
29.43989046261
 20
0.039433926376
 30
1.000000224849e-07
 10
29.93001473917
 20
0.040139108606
 30
1.000000224849e-07
 10
30.41651296307
 20
0.041045911275
 30
1.000000224849e-07
 10
30.64659721211
 20
0.041474774117
 30
1.000000224849e-07
 10
30.87587049402
 20
0.041899893668
 30
1.000000224849e-07
 10
31.10428201414
 20
0.042323314467
 30
1.000000224849e-07
 10
31.24807581725
 20
0.042589874082
 30
1.000000224849e-07
 10
31.39152808853
 20
0.042855580491
 30
1.000000224849e-07
 10
31.53462615556
 20
0.043120483657
 30
1.000000224849e-07
 10
31.66777315294
 20
0.043366965402
 30
1.000000224849e-07
 10
31.80061349612
 20
0.043612716278
 30
1.000000224849e-07
 10
31.93313697698
 20
0.043857701102
 30
1.000000224849e-07
 10
32.26492773273
 20
0.044471054291
 30
1.000000224849e-07
 10
32.59473233149
 20
0.045079787133
 30
1.000000224849e-07
 10
32.92239057282
 20
0.045683942247
 30
1.000000224849e-07
 10
33.3595988047
 20
0.046490091936
 30
1.000000224849e-07
 10
33.7929855133
 20
0.047288073593
 30
1.000000224849e-07
 10
34.22217010256
 20
0.048077359926
 30
1.000000224849e-07
 10
34.47190042242
 20
0.048536623221
 30
1.000000224849e-07
 10
34.72020801164
 20
0.048992936184
 30
1.000000224849e-07
 10
34.96701789016
 20
0.049446199729
 30
1.000000224849e-07
 10
35.0986239443
 20
0.049687892756
 30
1.000000224849e-07
 10
35.22980415045
 20
0.049928718562
 30
1.000000224849e-07
 10
35.36054714059
 20
0.050168656777
 30
1.000000224849e-07
 10
35.42784491128
 20
0.050292160965
 30
1.000000224849e-07
 10
35.49502684143
 20
0.050415429973
 30
1.000000224849e-07
 10
35.56209138067
 20
0.050538462081
 30
1.000000224849e-07
 10
35.59609528965
 20
0.050600843373
 30
1.000000224849e-07
 10
35.63006901953
 20
0.050663163761
 30
1.000000224849e-07
 10
35.66401236822
 20
0.050725422818
 30
1.000000224849e-07
 10
35.69826608128
 20
0.050788251148
 30
1.000000224849e-07
 10
35.73248885503
 20
0.050851017021
 30
1.000000224849e-07
 10
35.76668048179
 20
0.050913720132
 30
1.000000224849e-07
 10
36.35358961136
 20
0.051990037111
 30
1.000000224849e-07
 10
36.93132136867
 20
0.053047880648
 30
1.000000224849e-07
 10
37.49882535958
 20
0.054085554878
 30
1.000000224849e-07
 10
37.8041737169
 20
0.054643880681
 30
1.000000224849e-07
 10
38.10656110336
 20
0.055196364255
 30
1.000000224849e-07
 10
38.40582390046
 20
0.055742746904
 30
1.000000224849e-07
  0
LINE
  5
34
330
17
100
AcDbEntity
  8
CUT
100
AcDbLine
 10
38.40582390046
 20
0.055742746904
 30
1.000000211865e-07
 11
38.399438667
 21
7.74389750671
 31
1.000000211865e-07
  0
LINE
  5
35
330
17
100
AcDbEntity
  8
CUT
100
AcDbLine
 10
38.399438667
 20
7.74389750671
 30
1.000000211865e-07
 11
43.39943694255
 21
7.748050148967
 31
1.000000211865e-07
  0
LINE
  5
36
330
17
100
AcDbEntity
  8
CUT
100
AcDbLine
 10
43.39943694255
 20
7.748050148967
 30
1.000000211865e-07
 11
43.39555455101
 21
12.422652442428
 31
1.000000211865e-07
  0
CIRCLE
  5
37
330
17
100
AcDbEntity
  8
CUT
100
AcDbCircle
 10
21.201890736540022
 20
6.934759718313002
 30
0.0
 40
4.1
  0
TEXT
  5
3D
330
17
100
AcDbEntity
  8
LABELS_NONCUT
100
AcDbText
 10
0.0
 20
-6.0
 30
0.0
 40
3.0
  1
A01 PLY 5.000mm QTY 2
100
AcDbText
  0
ENDSEC
  0
SECTION
  2
OBJECTS
  0
DICTIONARY
  5
A
330
0
100
AcDbDictionary
281
1
  3
ACAD_COLOR
350
B
  3
ACAD_GROUP
350
C
  3
ACAD_LAYOUT
350
D
  3
ACAD_MATERIAL
350
E
  3
ACAD_MLEADERSTYLE
350
F
  3
ACAD_MLINESTYLE
350
10
  3
ACAD_PLOTSETTINGS
350
11
  3
ACAD_PLOTSTYLENAME
350
12
  3
ACAD_SCALELIST
350
14
  3
ACAD_TABLESTYLE
350
15
  3
ACAD_VISUALSTYLE
350
16
  3
EZDXF_META
350
2D
  0
DICTIONARY
  5
B
330
A
100
AcDbDictionary
281
1
  0
DICTIONARY
  5
C
330
A
100
AcDbDictionary
281
1
  0
DICTIONARY
  5
D
330
A
100
AcDbDictionary
281
1
  3
Model
350
1A
  3
Layout1
350
1E
  0
DICTIONARY
  5
E
330
A
100
AcDbDictionary
281
1
  3
ByBlock
350
1F
  3
ByLayer
350
20
  3
Global
350
21
  0
DICTIONARY
  5
F
330
A
100
AcDbDictionary
281
1
  3
Standard
350
2C
  0
DICTIONARY
  5
10
330
A
100
AcDbDictionary
281
1
  3
Standard
350
22
  0
DICTIONARY
  5
11
330
A
100
AcDbDictionary
281
1
  0
ACDBDICTIONARYWDFLT
  5
12
330
A
100
AcDbDictionary
281
1
  3
Normal
350
13
100
AcDbDictionaryWithDefault
340
13
  0
ACDBPLACEHOLDER
  5
13
330
12
  0
DICTIONARY
  5
14
330
A
100
AcDbDictionary
281
1
  0
DICTIONARY
  5
15
330
A
100
AcDbDictionary
281
1
  0
DICTIONARY
  5
16
330
A
100
AcDbDictionary
281
1
  0
LAYOUT
  5
1A
330
D
100
AcDbPlotSettings
  1

  4
A3
  6

 40
7.5
 41
20.0
 42
7.5
 43
20.0
 44
420.0
 45
297.0
 46
0.0
 47
0.0
 48
0.0
 49
0.0
140
0.0
141
0.0
142
1.0
143
1.0
 70
1024
 72
1
 73
0
 74
5
  7

 75
16
 76
0
 77
2
 78
300
147
1.0
148
0.0
149
0.0
100
AcDbLayout
  1
Model
 70
1
 71
0
 10
0.0
 20
0.0
 11
420.0
 21
297.0
 12
0.0
 22
0.0
 32
0.0
 14
1e+20
 24
1e+20
 34
1e+20
 15
-1e+20
 25
-1e+20
 35
-1e+20
146
0.0
 13
0.0
 23
0.0
 33
0.0
 16
1.0
 26
0.0
 36
0.0
 17
0.0
 27
1.0
 37
0.0
 76
1
330
17
  0
LAYOUT
  5
1E
330
D
100
AcDbPlotSettings
  1

  4
A3
  6

 40
7.5
 41
20.0
 42
7.5
 43
20.0
 44
420.0
 45
297.0
 46
0.0
 47
0.0
 48
0.0
 49
0.0
140
0.0
141
0.0
142
1.0
143
1.0
 70
0
 72
1
 73
0
 74
5
  7

 75
16
 76
0
 77
2
 78
300
147
1.0
148
0.0
149
0.0
100
AcDbLayout
  1
Layout1
 70
1
 71
1
 10
0.0
 20
0.0
 11
420.0
 21
297.0
 12
0.0
 22
0.0
 32
0.0
 14
1e+20
 24
1e+20
 34
1e+20
 15
-1e+20
 25
-1e+20
 35
-1e+20
146
0.0
 13
0.0
 23
0.0
 33
0.0
 16
1.0
 26
0.0
 36
0.0
 17
0.0
 27
1.0
 37
0.0
 76
1
330
1B
  0
MATERIAL
  5
1F
102
{ACAD_REACTORS
330
E
102
}
330
E
100
AcDbMaterial
  1
ByBlock
  2

 70
0
 40
1.0
 71
1
 41
1.0
 91
-1023410177
 42
1.0
 72
1
  3

 73
1
 74
1
 75
1
 44
0.5
 73
0
 45
1.0
 46
1.0
 77
1
  4

 78
1
 79
1
170
1
 48
1.0
171
1
  6

172
1
173
1
174
1
140
1.0
141
1.0
175
1
  7

176
1
177
1
178
1
143
1.0
179
1
  8

270
1
271
1
272
1
145
1.0
146
1.0
273
1
  9

274
1
275
1
276
1
 42
1.0
 72
1
  3

 73
1
 74
1
 75
1
 94
63
  0
MATERIAL
  5
20
102
{ACAD_REACTORS
330
E
102
}
330
E
100
AcDbMaterial
  1
ByLayer
  2

 70
0
 40
1.0
 71
1
 41
1.0
 91
-1023410177
 42
1.0
 72
1
  3

 73
1
 74
1
 75
1
 44
0.5
 73
0
 45
1.0
 46
1.0
 77
1
  4

 78
1
 79
1
170
1
 48
1.0
171
1
  6

172
1
173
1
174
1
140
1.0
141
1.0
175
1
  7

176
1
177
1
178
1
143
1.0
179
1
  8

270
1
271
1
272
1
145
1.0
146
1.0
273
1
  9

274
1
275
1
276
1
 42
1.0
 72
1
  3

 73
1
 74
1
 75
1
 94
63
  0
MATERIAL
  5
21
102
{ACAD_REACTORS
330
E
102
}
330
E
100
AcDbMaterial
  1
Global
  2

 70
0
 40
1.0
 71
1
 41
1.0
 91
-1023410177
 42
1.0
 72
1
  3

 73
1
 74
1
 75
1
 44
0.5
 73
0
 45
1.0
 46
1.0
 77
1
  4

 78
1
 79
1
170
1
 48
1.0
171
1
  6

172
1
173
1
174
1
140
1.0
141
1.0
175
1
  7

176
1
177
1
178
1
143
1.0
179
1
  8

270
1
271
1
272
1
145
1.0
146
1.0
273
1
  9

274
1
275
1
276
1
 42
1.0
 72
1
  3

 73
1
 74
1
 75
1
 94
63
  0
MLINESTYLE
  5
22
102
{ACAD_REACTORS
330
10
102
}
330
10
100
AcDbMlineStyle
  2
Standard
 70
0
  3

 62
256
 51
90.0
 52
90.0
 71
2
 49
0.5
 62
256
  6
BYLAYER
 49
-0.5
 62
256
  6
BYLAYER
  0
MLEADERSTYLE
  5
2C
102
{ACAD_REACTORS
330
F
102
}
330
F
100
AcDbMLeaderStyle
179
2
170
2
171
1
172
0
 90
2
 40
0.0
 41
0.0
173
1
 91
-1056964608
 92
-2
290
1
 42
2.0
291
1
 43
8.0
  3
Standard
 44
4.0
300

342
29
174
1
175
1
176
0
178
1
 93
-1056964608
 45
4.0
292
0
297
0
 46
4.0
 94
-1056964608
 47
1.0
 49
1.0
140
1.0
294
1
141
0.0
177
0
142
1.0
295
0
296
0
143
3.75
271
0
272
9
273
9
  0
DICTIONARY
  5
2D
330
A
100
AcDbDictionary
280
1
281
1
  3
CREATED_BY_EZDXF
350
2E
  3
WRITTEN_BY_EZDXF
350
3B
  0
DICTIONARYVAR
  5
2E
330
2D
100
DictionaryVariables
280
0
  1
1.4.4 @ 2026-09-19T11:24:44.821418+00:00
  0
DICTIONARYVAR
  5
3B
330
2D
100
DictionaryVariables
280
0
  1
1.4.4 @ 2026-09-19T11:25:49.835299+00:00
  0
ENDSEC
  0
EOF
