  0
SECTION
  2
HEADER
  9
$ACADVER
  1
AC1027
  9
$ACADMAINTVER
 70
105
  9
$DWGCODEPAGE
  3
ANSI_1252
  9
$LASTSAVEDBY
  1
ezdxf
  9
$REQUIREDVERSIONS
160
0
  9
$INSBASE
 10
0.0
 20
0.0
 30
0.0
  9
$EXTMIN
 10
1e+20
 20
1e+20
 30
1e+20
  9
$EXTMAX
 10
-1e+20
 20
-1e+20
 30
-1e+20
  9
$LIMMIN
 10
0.0
 20
0.0
  9
$LIMMAX
 10
420.0
 20
297.0
  9
$ORTHOMODE
 70
0
  9
$REGENMODE
 70
1
  9
$FILLMODE
 70
1
  9
$QTEXTMODE
 70
0
  9
$MIRRTEXT
 70
1
  9
$LTSCALE
 40
1.0
  9
$ATTMODE
 70
1
  9
$TEXTSIZE
 40
2.5
  9
$TRACEWID
 40
1.0
  9
$TEXTSTYLE
  7
Standard
  9
$CLAYER
  8
0
  9
$CELTYPE
  6
ByLayer
  9
$CECOLOR
 62
256
  9
$CELTSCALE
 40
1.0
  9
$DISPSILH
 70
0
  9
$DIMSCALE
 40
1.0
  9
$DIMASZ
 40
2.5
  9
$DIMEXO
 40
0.625
  9
$DIMDLI
 40
3.75
  9
$DIMRND
 40
0.0
  9
$DIMDLE
 40
0.0
  9
$DIMEXE
 40
1.25
  9
$DIMTP
 40
0.0
  9
$DIMTM
 40
0.0
  9
$DIMTXT
 40
2.5
  9
$DIMCEN
 40
2.5
  9
$DIMTSZ
 40
0.0
  9
$DIMTOL
 70
0
  9
$DIMLIM
 70
0
  9
$DIMTIH
 70
0
  9
$DIMTOH
 70
0
  9
$DIMSE1
 70
0
  9
$DIMSE2
 70
0
  9
$DIMTAD
 70
1
  9
$DIMZIN
 70
8
  9
$DIMBLK
  1

  9
$DIMASO
 70
1
  9
$DIMSHO
 70
1
  9
$DIMPOST
  1

  9
$DIMAPOST
  1

  9
$DIMALT
 70
0
  9
$DIMALTD
 70
3
  9
$DIMALTF
 40
0.03937007874
  9
$DIMLFAC
 40
1.0
  9
$DIMTOFL
 70
1
  9
$DIMTVP
 40
0.0
  9
$DIMTIX
 70
0
  9
$DIMSOXD
 70
0
  9
$DIMSAH
 70
0
  9
$DIMBLK1
  1

  9
$DIMBLK2
  1

  9
$DIMSTYLE
  2
ISO-25
  9
$DIMCLRD
 70
0
  9
$DIMCLRE
 70
0
  9
$DIMCLRT
 70
0
  9
$DIMTFAC
 40
1.0
  9
$DIMGAP
 40
0.625
  9
$DIMJUST
 70
0
  9
$DIMSD1
 70
0
  9
$DIMSD2
 70
0
  9
$DIMTOLJ
 70
0
  9
$DIMTZIN
 70
8
  9
$DIMALTZ
 70
0
  9
$DIMALTTZ
 70
0
  9
$DIMUPT
 70
0
  9
$DIMDEC
 70
2
  9
$DIMTDEC
 70
2
  9
$DIMALTU
 70
2
  9
$DIMALTTD
 70
3
  9
$DIMTXSTY
  7
Standard
  9
$DIMAUNIT
 70
0
  9
$DIMADEC
 70
0
  9
$DIMALTRND
 40
0.0
  9
$DIMAZIN
 70
0
  9
$DIMDSEP
 70
44
  9
$DIMATFIT
 70
3
  9
$DIMFRAC
 70
0
  9
$DIMLDRBLK
  1

  9
$DIMLUNIT
 70
2
  9
$DIMLWD
 70
-2
  9
$DIMLWE
 70
-2
  9
$DIMTMOVE
 70
0
  9
$DIMFXL
 40
1.0
  9
$DIMFXLON
 70
0
  9
$DIMJOGANG
 40
0.785398163397
  9
$DIMTFILL
 70
0
  9
$DIMTFILLCLR
 70
0
  9
$DIMARCSYM
 70
0
  9
$DIMLTYPE
  6

  9
$DIMLTEX1
  6

  9
$DIMLTEX2
  6

  9
$DIMTXTDIRECTION
 70
0
  9
$LUNITS
 70
2
  9
$LUPREC
 70
4
  9
$SKETCHINC
 40
1.0
  9
$FILLETRAD
 40
10.0
  9
$AUNITS
 70
0
  9
$AUPREC
 70
2
  9
$MENU
  1
.
  9
$ELEVATION
 40
0.0
  9
$PELEVATION
 40
0.0
  9
$THICKNESS
 40
0.0
  9
$LIMCHECK
 70
0
  9
$CHAMFERA
 40
0.0
  9
$CHAMFERB
 40
0.0
  9
$CHAMFERC
 40
0.0
  9
$CHAMFERD
 40
0.0
  9
$SKPOLY
 70
0
  9
$TDCREATE
 40
2461303.717175926
  9
$TDUCREATE
 40
2458532.153996898
  9
$TDUPDATE
 40
2461303.717175926
  9
$TDUUPDATE
 40
2458532.1544311
  9
$TDINDWG
 40
0.0
  9
$TDUSRTIMER
 40
0.0
  9
$USRTIMER
 70
1
  9
$ANGBASE
 50
0.0
  9
$ANGDIR
 70
0
  9
$PDMODE
 70
0
  9
$PDSIZE
 40
0.0
  9
$PLINEWID
 40
0.0
  9
$SPLFRAME
 70
0
  9
$SPLINETYPE
 70
6
  9
$SPLINESEGS
 70
8
  9
$HANDSEED
  5
51
  9
$SURFTAB1
 70
6
  9
$SURFTAB2
 70
6
  9
$SURFTYPE
 70
6
  9
$SURFU
 70
6
  9
$SURFV
 70
6
  9
$UCSBASE
  2

  9
$UCSNAME
  2

  9
$UCSORG
 10
0.0
 20
0.0
 30
0.0
  9
$UCSXDIR
 10
1.0
 20
0.0
 30
0.0
  9
$UCSYDIR
 10
0.0
 20
1.0
 30
0.0
  9
$UCSORTHOREF
  2

  9
$UCSORTHOVIEW
 70
0
  9
$UCSORGTOP
 10
0.0
 20
0.0
 30
0.0
  9
$UCSORGBOTTOM
 10
0.0
 20
0.0
 30
0.0
  9
$UCSORGLEFT
 10
0.0
 20
0.0
 30
0.0
  9
$UCSORGRIGHT
 10
0.0
 20
0.0
 30
0.0
  9
$UCSORGFRONT
 10
0.0
 20
0.0
 30
0.0
  9
$UCSORGBACK
 10
0.0
 20
0.0
 30
0.0
  9
$PUCSBASE
  2

  9
$PUCSNAME
  2

  9
$PUCSORG
 10
0.0
 20
0.0
 30
0.0
  9
$PUCSXDIR
 10
1.0
 20
0.0
 30
0.0
  9
$PUCSYDIR
 10
0.0
 20
1.0
 30
0.0
  9
$PUCSORTHOREF
  2

  9
$PUCSORTHOVIEW
 70
0
  9
$PUCSORGTOP
 10
0.0
 20
0.0
 30
0.0
  9
$PUCSORGBOTTOM
 10
0.0
 20
0.0
 30
0.0
  9
$PUCSORGLEFT
 10
0.0
 20
0.0
 30
0.0
  9
$PUCSORGRIGHT
 10
0.0
 20
0.0
 30
0.0
  9
$PUCSORGFRONT
 10
0.0
 20
0.0
 30
0.0
  9
$PUCSORGBACK
 10
0.0
 20
0.0
 30
0.0
  9
$USERI1
 70
0
  9
$USERI2
 70
0
  9
$USERI3
 70
0
  9
$USERI4
 70
0
  9
$USERI5
 70
0
  9
$USERR1
 40
0.0
  9
$USERR2
 40
0.0
  9
$USERR3
 40
0.0
  9
$USERR4
 40
0.0
  9
$USERR5
 40
0.0
  9
$WORLDVIEW
 70
1
  9
$SHADEDGE
 70
3
  9
$SHADEDIF
 70
70
  9
$TILEMODE
 70
1
  9
$MAXACTVP
 70
64
  9
$PINSBASE
 10
0.0
 20
0.0
 30
0.0
  9
$PLIMCHECK
 70
0
  9
$PEXTMIN
 10
1e+20
 20
1e+20
 30
1e+20
  9
$PEXTMAX
 10
-1e+20
 20
-1e+20
 30
-1e+20
  9
$PLIMMIN
 10
0.0
 20
0.0
  9
$PLIMMAX
 10
420.0
 20
297.0
  9
$UNITMODE
 70
0
  9
$VISRETAIN
 70
1
  9
$PLINEGEN
 70
0
  9
$PSLTSCALE
 70
1
  9
$TREEDEPTH
 70
3020
  9
$CMLSTYLE
  2
Standard
  9
$CMLJUST
 70
0
  9
$CMLSCALE
 40
20.0
  9
$PROXYGRAPHICS
 70
1
  9
$MEASUREMENT
 70
1
  9
$CELWEIGHT
370
-1
  9
$ENDCAPS
280
0
  9
$JOINSTYLE
280
0
  9
$LWDISPLAY
290
0
  9
$INSUNITS
 70
4
  9
$HYPERLINKBASE
  1

  9
$STYLESHEET
  1

  9
$XEDIT
290
1
  9
$CEPSNTYPE
380
0
  9
$PSTYLEMODE
290
1
  9
$FINGERPRINTGUID
  2
{F95F95AD-93F9-4303-A27D-54ABDB66161A}
  9
$VERSIONGUID
  2
{6151BF8B-807D-43D0-B6A9-7FD941CDB6D9}
  9
$EXTNAMES
290
1
  9
$PSVPSCALE
 40
0.0
  9
$OLESTARTUP
290
0
  9
$SORTENTS
280
127
  9
$INDEXCTL
280
0
  9
$HIDETEXT
280
1
  9
$XCLIPFRAME
280
1
  9
$HALOGAP
280
0
  9
$OBSCOLOR
 70
257
  9
$OBSLTYPE
280
0
  9
$INTERSECTIONDISPLAY
280
0
  9
$INTERSECTIONCOLOR
 70
257
  9
$DIMASSOC
280
2
  9
$PROJECTNAME
  1

  9
$CAMERADISPLAY
290
0
  9
$LENSLENGTH
 40
50.0
  9
$CAMERAHEIGHT
 40
0.0
  9
$STEPSPERSEC
 40
24.0
  9
$STEPSIZE
 40
100.0
  9
$3DDWFPREC
 40
2.0
  9
$PSOLWIDTH
 40
0.005
  9
$PSOLHEIGHT
 40
0.08
  9
$LOFTANG1
 40
1.570796326795
  9
$LOFTANG2
 40
1.570796326795
  9
$LOFTMAG1
 40
0.0
  9
$LOFTMAG2
 40
0.0
  9
$LOFTPARAM
 70
7
  9
$LOFTNORMALS
280
1
  9
$LATITUDE
 40
37.795
  9
$LONGITUDE
 40
-122.394
  9
$NORTHDIRECTION
 40
0.0
  9
$TIMEZONE
 70
-8000
  9
$LIGHTGLYPHDISPLAY
280
1
  9
$TILEMODELIGHTSYNCH
280
1
  9
$CMATERIAL
347
20
  9
$SOLIDHIST
280
0
  9
$SHOWHIST
280
1
  9
$DWFFRAME
280
2
  9
$DGNFRAME
280
2
  9
$REALWORLDSCALE
290
1
  9
$INTERFERECOLOR
 62
256
  9
$CSHADOW
280
0
  9
$SHADOWPLANELOCATION
 40
0.0
  0
ENDSEC
  0
SECTION
  2
CLASSES
  0
CLASS
  1
ACDBDICTIONARYWDFLT
  2
AcDbDictionaryWithDefault
  3
ObjectDBX Classes
 90
0
 91
0
280
0
281
0
  0
CLASS
  1
SUN
  2
AcDbSun
  3
SCENEOE
 90
1153
 91
0
280
0
281
0
  0
CLASS
  1
VISUALSTYLE
  2
AcDbVisualStyle
  3
ObjectDBX Classes
 90
4095
 91
0
280
0
281
0
  0
CLASS
  1
MATERIAL
  2
AcDbMaterial
  3
ObjectDBX Classes
 90
1153
 91
0
280
0
281
0
  0
CLASS
  1
SCALE
  2
AcDbScale
  3
ObjectDBX Classes
 90
1153
 91
0
280
0
281
0
  0
CLASS
  1
TABLESTYLE
  2
AcDbTableStyle
  3
ObjectDBX Classes
 90
4095
 91
0
280
0
281
0
  0
CLASS
  1
MLEADERSTYLE
  2
AcDbMLeaderStyle
  3
ACDB_MLEADERSTYLE_CLASS
 90
4095
 91
0
280
0
281
0
  0
CLASS
  1
DICTIONARYVAR
  2
AcDbDictionaryVar
  3
ObjectDBX Classes
 90
0
 91
0
280
0
281
0
  0
CLASS
  1
CELLSTYLEMAP
  2
AcDbCellStyleMap
  3
ObjectDBX Classes
 90
1152
 91
0
280
0
281
0
  0
CLASS
  1
MENTALRAYRENDERSETTINGS
  2
AcDbMentalRayRenderSettings
  3
SCENEOE
 90
1024
 91
0
280
0
281
0
  0
CLASS
  1
ACDBDETAILVIEWSTYLE
  2
AcDbDetailViewStyle
  3
ObjectDBX Classes
 90
1025
 91
0
280
0
281
0
  0
CLASS
  1
ACDBSECTIONVIEWSTYLE
  2
AcDbSectionViewStyle
  3
ObjectDBX Classes
 90
1025
 91
0
280
0
281
0
  0
CLASS
  1
RASTERVARIABLES
  2
AcDbRasterVariables
  3
ISM
 90
0
 91
0
280
0
281
0
  0
CLASS
  1
ACDBPLACEHOLDER
  2
AcDbPlaceHolder
  3
ObjectDBX Classes
 90
0
 91
0
280
0
281
0
  0
CLASS
  1
LAYOUT
  2
AcDbLayout
  3
ObjectDBX Classes
 90
0
 91
0
280
0
281
0
  0
ENDSEC
  0
SECTION
  2
TABLES
  0
TABLE
  2
VPORT
  5
8
330
0
100
AcDbSymbolTable
 70
1
  0
VPORT
  5
4A
330
8
100
AcDbSymbolTableRecord
100
AcDbViewportTableRecord
  2
*Active
 70
0
 10
0.0
 20
0.0
 11
1.0
 21
1.0
 12
47.82484831334505
 22
40.01757265710226
 13
0.0
 23
0.0
 14
0.5
 24
0.5
 15
0.5
 25
0.5
 16
0.0
 26
0.0
 36
1.0
 17
0.0
 27
0.0
 37
0.0
 40
80.0277655406095
 41
1.34
 42
50.0
 43
0.0
 44
0.0
 50
0.0
 51
0.0
 71
0
 72
1000
 73
1
 74
3
 75
0
 76
0
 77
0
 78
0
281
0
 65
1
110
0.0
120
0.0
130
0.0
111
1.0
121
0.0
131
0.0
112
0.0
122
1.0
132
0.0
 79
0
146
0.0
  0
ENDTAB
  0
TABLE
  2
LTYPE
  5
2
330
0
100
AcDbSymbolTable
 70
3
  0
LTYPE
  5
24
330
2
100
AcDbSymbolTableRecord
100
AcDbLinetypeTableRecord
  2
ByBlock
 70
0
  3

 72
65
 73
0
 40
0.0
  0
LTYPE
  5
25
330
2
100
AcDbSymbolTableRecord
100
AcDbLinetypeTableRecord
  2
ByLayer
 70
0
  3

 72
65
 73
0
 40
0.0
  0
LTYPE
  5
26
330
2
100
AcDbSymbolTableRecord
100
AcDbLinetypeTableRecord
  2
Continuous
 70
0
  3

 72
65
 73
0
 40
0.0
  0
ENDTAB
  0
TABLE
  2
LAYER
  5
1
330
0
100
AcDbSymbolTable
 70
4
  0
LAYER
  5
27
330
1
100
AcDbSymbolTableRecord
100
AcDbLayerTableRecord
  2
0
 70
0
 62
7
  6
Continuous
370
-3
390
13
347
21
  0
LAYER
  5
28
330
1
100
AcDbSymbolTableRecord
100
AcDbLayerTableRecord
  2
Defpoints
 70
0
 62
7
  6
Continuous
290
0
370
-3
390
13
347
21
  0
LAYER
  5
4E
330
1
100
AcDbSymbolTableRecord
100
AcDbLayerTableRecord
  2
CUT
 70
0
 62
1
  6
Continuous
370
-3
390
13
347
21
  0
LAYER
  5
4F
330
1
100
AcDbSymbolTableRecord
100
AcDbLayerTableRecord
  2
LABELS_NONCUT
 70
0
 62
3
  6
Continuous
370
-3
390
13
347
21
  0
ENDTAB
  0
TABLE
  2
STYLE
  5
5
330
0
100
AcDbSymbolTable
 70
1
  0
STYLE
  5
29
330
5
100
AcDbSymbolTableRecord
100
AcDbTextStyleTableRecord
  2
Standard
 70
0
 40
0.0
 41
1.0
 50
0.0
 71
0
 42
2.5
  3
txt
  4

  0
ENDTAB
  0
TABLE
  2
VIEW
  5
7
330
0
100
AcDbSymbolTable
 70
0
  0
ENDTAB
  0
TABLE
  2
UCS
  5
6
330
0
100
AcDbSymbolTable
 70
0
  0
ENDTAB
  0
TABLE
  2
APPID
  5
3
330
0
100
AcDbSymbolTable
 70
3
  0
APPID
  5
2A
330
3
100
AcDbSymbolTableRecord
100
AcDbRegAppTableRecord
  2
ACAD
 70
0
  0
APPID
  5
4B
330
3
100
AcDbSymbolTableRecord
100
AcDbRegAppTableRecord
  2
HATCHBACKGROUNDCOLOR
 70
0
  0
APPID
  5
4C
330
3
100
AcDbSymbolTableRecord
100
AcDbRegAppTableRecord
  2
EZDXF
 70
0
  0
ENDTAB
  0
TABLE
  2
DIMSTYLE
  5
4
330
0
100
AcDbSymbolTable
 70
1
100
AcDbDimStyleTable
  0
DIMSTYLE
105
2B
330
4
100
AcDbSymbolTableRecord
100
AcDbDimStyleTableRecord
  2
Standard
 70
0
 40
1.0
 41
2.5
 42
0.625
 43
3.75
 44
1.25
 45
0.0
 46
0.0
 47
0.0
 48
0.0
 49
2.5
140
2.5
141
2.5
142
0.0
143
0.03937007874
144
1.0
145
0.0
146
1.0
147
0.625
148
0.0
 69
0
 70
0
 71
0
 72
0
 73
0
 74
0
 75
0
 76
0
 77
1
 78
8
 79
3
170
0
171
3
172
1
173
0
174
0
175
0
176
0
177
0
178
0
179
2
271
2
272
2
273
2
274
3
275
0
276
0
277
2
278
44
279
0
280
0
281
0
282
0
283
0
284
8
285
0
286
0
288
0
289
3
290
0
371
-2
372
-2
  0
ENDTAB
  0
TABLE
  2
BLOCK_RECORD
  5
9
330
0
100
AcDbSymbolTable
 70
2
  0
BLOCK_RECORD
  5
17
330
9
100
AcDbSymbolTableRecord
100
AcDbBlockTableRecord
  2
*Model_Space
340
1A
 70
0
280
1
281
0
  0
BLOCK_RECORD
  5
1B
330
9
100
AcDbSymbolTableRecord
100
AcDbBlockTableRecord
  2
*Paper_Space
340
1E
 70
0
280
1
281
0
  0
ENDTAB
  0
ENDSEC
  0
SECTION
  2
BLOCKS
  0
BLOCK
  5
18
330
17
100
AcDbEntity
  8
0
100
AcDbBlockBegin
  2
*Model_Space
 70
0
 10
0.0
 20
0.0
 30
0.0
  3
*Model_Space
  1

  0
ENDBLK
  5
19
330
17
100
AcDbEntity
  8
0
100
AcDbBlockEnd
  0
BLOCK
  5
1C
330
1B
100
AcDbEntity
  8
0
100
AcDbBlockBegin
  2
*Paper_Space
 70
0
 10
0.0
 20
0.0
 30
0.0
  3
*Paper_Space
  1

  0
ENDBLK
  5
1D
330
1B
100
AcDbEntity
  8
0
100
AcDbBlockEnd
  0
ENDSEC
  0
SECTION
  2
ENTITIES
  0
ELLIPSE
  5
2F
330
17
100
AcDbEntity
  8
CUT
100
AcDbEllipse
 10
48.932098453776
 20
45.531142125568
 30
1.460636553929e-07
 11
-50.001397553572204
 21
-1.2612207380891107
 31
5.266920037274908e-08
 40
0.9102685391727615
 41
1.577677007295918
 42
2.683438204544953
  0
ELLIPSE
  5
30
330
17
100
AcDbEntity
  8
CUT
100
AcDbEllipse
 10
83.079577406116
 20
32.223735483825
 30
1.478461513216e-07
 11
-0.1764855867029542
 21
12.567099682186795
 31
-7.295095167285142e-19
 40
0.9999999808206954
 41
4.228310036044309
 42
4.699247292027929
  0
LINE
  5
31
330
17
100
AcDbEntity
  8
CUT
100
AcDbLine
 10
95.64758904426
 20
32.235057383667
 30
1.22563499497e-07
 11
95.644204338052
 21
33.589063080105
 31
9.797224068995e-08
  0
LINE
  5
32
330
17
100
AcDbEntity
  8
CUT
100
AcDbLine
 10
95.644204338052
 20
33.589063080105
 30
9.797224068995e-08
 11
85.644229922281
 21
33.566442636472
 31
1.085162969847e-07
  0
LINE
  5
33
330
17
100
AcDbEntity
  8
CUT
100
AcDbLine
 10
85.644229922281
 20
33.566442636472
 30
1.085162969847e-07
 11
85.632919699251
 21
38.566429869535
 31
1.081040685111e-07
  0
LINE
  5
34
330
17
100
AcDbEntity
  8
CUT
100
AcDbLine
 10
85.632919699251
 20
38.566429869535
 30
1.081040685111e-07
 11
95.632894115022
 21
38.589050313167
 31
9.756001221637e-08
  0
LINE
  5
35
330
17
100
AcDbEntity
  8
CUT
100
AcDbLine
 10
95.632894115022
 20
38.589050313167
 30
9.756001221637e-08
 11
95.632556714828
 21
38.738207404635
 31
9.75576816362e-08
  0
SPLINE
  5
36
330
17
100
AcDbEntity
  8
CUT
100
AcDbSpline
 70
0
 71
3
 72
27
 73
23
 74
0
 40
0.0
 40
0.0
 40
0.0
 40
0.0
 40
0.125
 40
0.25
 40
0.375
 40
0.4375
 40
0.46875
 40
0.5
 40
0.53125
 40
0.5625
 40
0.625
 40
0.65625
 40
0.6875
 40
0.71875
 40
0.75
 40
0.78125
 40
0.8125
 40
0.84375
 40
0.875
 40
0.90625
 40
0.9375
 40
1.0
 40
1.0
 40
1.0
 40
1.0
 10
95.632556716172
 20
38.738207399779
 30
1.478376816522e-07
 10
95.021070037253
 20
40.948427376135
 30
1.47843081777e-07
 10
93.269326449888
 20
45.588019555978
 30
1.47840921727e-07
 10
89.144084993039
 20
52.834305712778
 30
1.478427975599e-07
 10
84.676939708921
 20
58.761573212354
 30
1.478459239479e-07
 10
81.13595564834
 20
62.666978274909
 30
1.478369995311e-07
 10
78.980710895628
 20
64.832630939909
 30
1.478389322074e-07
 10
77.348445775445
 20
66.373487059832
 30
1.478440481151e-07
 10
75.620678384359
 20
67.902697576011
 30
1.478405806665e-07
 10
73.301140164113
 20
69.818884267462
 30
1.478463786952e-07
 10
70.938779613371
 20
71.576563105695
 30
1.478406375099e-07
 10
68.470084529399
 20
73.213063720101
 30
1.478369995311e-07
 10
66.629558827999
 20
74.33530590797
 30
1.478465492255e-07
 10
64.731261952728
 20
75.391821417495
 30
1.478424564993e-07
 10
62.868603634176
 20
76.329319663898
 30
1.478410354139e-07
 10
60.929690200354
 20
77.200295810873
 30
1.478453555137e-07
 10
59.031338243734
 20
77.945659790128
 30
1.478376816522e-07
 10
57.135654219988
 20
78.582663663354
 30
1.478363742535e-07
 10
55.277395713961
 20
79.101389252077
 30
1.478458102611e-07
 10
53.355425930601
 20
79.524257208505
 30
1.478403532928e-07
 10
50.862147825459
 20
79.917075052164
 30
1.478380227127e-07
 10
49.026810122671
 20
80.031455427407
 30
1.478376816522e-07
 10
47.823460480252
 20
80.026255579452
 30
1.47843081777e-07
  0
SPLINE
  5
37
330
17
100
AcDbEntity
  8
CUT
100
AcDbSpline
 70
0
 71
3
 72
41
 73
37
 74
0
 40
0.0
 40
0.0
 40
0.0
 40
0.0
 40
0.03125
 40
0.0625
 40
0.09375
 40
0.109375
 40
0.125
 40
0.140625
 40
0.15625
 40
0.1875
 40
0.21875
 40
0.234375
 40
0.25
 40
0.265625
 40
0.28125
 40
0.3125
 40
0.34375
 40
0.375
 40
0.40625
 40
0.4375
 40
0.46875
 40
0.5
 40
0.53125
 40
0.5625
 40
0.625
 40
0.6875
 40
0.71875
 40
0.75
 40
0.78125
 40
0.8125
 40
0.84375
 40
0.875
 40
0.90625
 40
0.9375
 40
0.96875
 40
1.0
 40
1.0
 40
1.0
 40
1.0
 10
47.823455069371
 20
80.026255556071
 30
1.47843081777e-07
 10
47.148169940814
 20
80.0233374141
 30
1.478431954638e-07
 10
45.793584891471
 20
79.967769260836
 30
1.478418880652e-07
 10
43.670214367182
 20
79.72067912127
 30
1.478449576098e-07
 10
42.023116239017
 20
79.414678167812
 30
1.478423996559e-07
 10
40.672101010908
 20
79.100965802093
 30
1.478391595811e-07
 10
39.622006871092
 20
78.821444227633
 30
1.478367721575e-07
 10
38.69363429552
 20
78.545975914445
 30
1.47836033193e-07
 10
37.40680332916
 20
78.128032907015
 30
1.478442186453e-07
 10
35.80521084561
 20
77.537232945205
 30
1.478379090258e-07
 10
34.18082818939
 20
76.845105224259
 30
1.478442186453e-07
 10
32.88545641369
 20
76.238784652885
 30
1.478373974351e-07
 10
31.8814448235
 20
75.739819579769
 30
1.4784512814e-07
 10
30.98279454952
 20
75.268811293023
 30
1.478397280152e-07
 10
29.75223215155
 20
74.593447998292
 30
1.478406375099e-07
 10
28.19487017258
 20
73.674705376958
 30
1.478456397308e-07
 10
26.46837683482
 20
72.569281357951
 30
1.478443891756e-07
 10
24.68577342267
 20
71.336847017148
 30
1.478427975599e-07
 10
23.0547319985
 20
70.125862607757
 30
1.478401259192e-07
 10
21.41237410529
 20
68.825384584328
 30
1.478368858443e-07
 10
19.80761439999
 20
67.470188736332
 30
1.478387616771e-07
 10
18.20767271178
 20
66.03211545133
 30
1.478426270296e-07
 10
16.69475506705
 20
64.58902738961
 30
1.478454692005e-07
 10
14.69315316534
 20
62.567336356848
 30
1.478410354139e-07
 10
12.32792119702
 20
59.963597336146
 30
1.478382500864e-07
 10
10.13025259194
 20
57.259245391973
 30
1.478378521824e-07
 10
8.46981349155
 20
55.028233307302
 30
1.478425701862e-07
 10
7.30656564845
 20
53.37045808606
 30
1.478460376347e-07
 10
6.12639525735
 20
51.574682372141
 30
1.478389890508e-07
 10
5.06910369741
 20
49.851627548007
 30
1.478466060689e-07
 10
3.98696393645
 20
47.94616720949
 30
1.478457534176e-07
 10
3.04977164466
 20
46.147737561477
 30
1.478434796809e-07
 10
2.11897111525
 20
44.174688318771
 30
1.478393301113e-07
 10
1.33381268046
 20
42.302399246145
 30
1.478435365243e-07
 10
0.59598751546
 20
40.287537239251
 30
1.478400690758e-07
 10
0.20417498302
 20
39.009114967426
 30
1.478402964494e-07
 10
0.02757682804039
 20
38.372786290628
 30
1.478399553889e-07
  0
LINE
  5
38
330
17
100
AcDbEntity
  8
CUT
100
AcDbLine
 10
0.02757682799039
 20
38.37278629086
 30
1.983800010183e-07
 11
9.98866429274
 21
38.395318770207
 31
1.876368222273e-07
  0
LINE
  5
39
330
17
100
AcDbEntity
  8
CUT
100
AcDbLine
 10
9.98866429274
 20
38.395318770207
 30
1.876368222273e-07
 11
9.99997451577
 21
33.395331537145
 31
1.880490507009e-07
  0
LINE
  5
3A
330
17
100
AcDbEntity
  8
CUT
100
AcDbLine
 10
9.99997451577
 20
33.395331537145
 30
1.880490507009e-07
 11
1.000003919671e-07
 21
33.372711093513
 31
1.985330803453e-07
  0
LINE
  5
3B
330
17
100
AcDbEntity
  8
CUT
100
AcDbLine
 10
1.000003919671e-07
 20
33.372711093513
 30
1.985330803453e-07
 11
0.003310019920391
 21
31.769248559277
 31
1.735856406757e-07
  0
ELLIPSE
  5
3C
330
17
100
AcDbEntity
  8
CUT
100
AcDbEllipse
 10
12.57075836767
 20
31.814597515731
 30
1.478406375099e-07
 11
0.18292352651971752
 21
-12.56651629543855
 31
-1.3836812135606739e-18
 40
0.999999982387358
 41
4.701442015747238
 42
5.170671190326807
  0
SPLINE
  5
3D
330
17
100
AcDbEntity
  8
CUT
100
AcDbSpline
 70
0
 71
3
 72
11
 73
7
 74
0
 40
0.0
 40
0.0
 40
0.0
 40
0.0
 40
0.25
 40
0.5
 40
0.75
 40
0.9968709096044015
 40
0.9968709096044015
 40
0.9968709096044015
 40
0.9968709096044015
 10
1.3821167224
 20
26.09115015958
 30
1.478378521824e-07
 10
3.33650193223
 20
22.28213770564
 30
1.478364310969e-07
 10
8.40259849203
 20
15.1850434532
 30
1.478429112467e-07
 10
18.93101846443
 20
6.83734576667
 30
1.47843365994e-07
 10
31.52972508885437
 20
1.4673907272484146
 30
1.4784132816867306e-07
 10
40.657313378838914
 20
0.10796637522620108
 30
1.478456981498025e-07
 10
45.22416176268075
 20
0.003689886797515961
 30
1.4784120932781247e-07
  0
LINE
  5
3E
330
17
100
AcDbEntity
  8
CUT
100
AcDbLine
 10
45.224161762680765
 20
0.003689886797507722
 30
7.392060466390623e-08
 11
45.22416176268039
 21
7.499300269130025
 31
0.0
  0
LINE
  5
3F
330
17
100
AcDbEntity
  8
CUT
100
AcDbLine
 10
45.22416176268039
 20
7.499300269130025
 30
0.0
 11
50.42416176268039
 21
7.499300269130025
 31
0.0
  0
LINE
  5
40
330
17
100
AcDbEntity
  8
CUT
100
AcDbLine
 10
50.42416176268039
 20
7.499300269130025
 30
0.0
 11
50.42416176268118
 21
0.02619842068563827
 31
7.417753594385577e-08
  0
CIRCLE
  5
41
330
17
100
AcDbEntity
  8
CUT
100
AcDbCircle
 10
27.82414552838
 20
68.399287735947
 30
1.478428544033e-07
 40
1.5
  0
ELLIPSE
  5
42
330
17
100
AcDbEntity
  8
CUT
100
AcDbEllipse
 10
46.714811684966
 20
45.521560458051
 30
1.483952587478e-07
 11
-41.00425924799272
 21
-1.0342795336452664
 31
4.319202350132872e-08
 40
0.910268539172758
 41
0.6949710161458819
 42
1.0597829135130636
  0
LINE
  5
43
330
17
100
AcDbEntity
  8
CUT
100
AcDbLine
 10
15.82346159896
 20
20.8256756689
 30
1.829634973891e-07
 11
15.82346159871
 21
50.299432275719
 31
1.803934358921e-07
  0
SPLINE
  5
44
330
17
100
AcDbEntity
  8
CUT
100
AcDbSpline
 70
0
 71
3
 72
22
 73
18
 74
0
 40
0.0
 40
0.0
 40
0.0
 40
0.0
 40
0.125
 40
0.1875
 40
0.25
 40
0.3125
 40
0.375
 40
0.4375
 40
0.5
 40
0.5625
 40
0.625
 40
0.6875
 40
0.75
 40
0.8125
 40
0.875
 40
0.9375
 40
1.0
 40
1.0
 40
1.0
 40
1.0
 10
15.82346159822
 20
50.299432275033
 30
1.478434796809e-07
 10
16.91005958625
 20
51.818438921393
 30
1.478423428125e-07
 10
18.6283639619
 20
54.020239121756
 30
1.478392732679e-07
 10
21.1947186808
 20
56.906572340689
 30
1.478366584706e-07
 10
23.17074696729
 20
58.941109141035
 30
1.478368290009e-07
 10
25.27635364298
 20
60.926494322324
 30
1.478450712966e-07
 10
27.38910354745
 20
62.739618075947
 30
1.47840239606e-07
 10
29.55916717529
 20
64.428652611555
 30
1.478458102611e-07
 10
31.79439054949
 20
65.993000505423
 30
1.478434228375e-07
 10
33.99923620292
 20
67.374020505755
 30
1.4783847746e-07
 10
36.21149740613
 20
68.59468883903
 30
1.478394437981e-07
 10
38.343247735553
 20
69.611268177345
 30
1.478422291257e-07
 10
40.471707574925
 20
70.453123671186
 30
1.47843365994e-07
 10
42.413586814149
 20
71.065138085163
 30
1.478401259192e-07
 10
44.37897633271
 20
71.519236311008
 30
1.478455828874e-07
 10
46.122254553191
 20
71.768742577237
 30
1.478418312217e-07
 10
47.266597120867
 20
71.830985850298
 30
1.478436502111e-07
 10
47.823455069371
 20
71.833392227223
 30
1.478380227127e-07
  0
SPLINE
  5
45
330
17
100
AcDbEntity
  8
CUT
100
AcDbSpline
 70
0
 71
3
 72
21
 73
17
 74
0
 40
0.0
 40
0.0
 40
0.0
 40
0.0
 40
0.0625
 40
0.125
 40
0.1875
 40
0.25
 40
0.3125
 40
0.375
 40
0.5
 40
0.5625
 40
0.625
 40
0.6875
 40
0.75
 40
0.8125
 40
0.875
 40
1.0
 40
1.0
 40
1.0
 40
1.0
 10
47.823460480284
 20
71.833392250603
 30
1.478380227127e-07
 10
48.379273309119
 20
71.83579393067
 30
1.478435365243e-07
 10
49.522015130013
 20
71.783516266377
 30
1.478466629123e-07
 10
51.260728694919
 20
71.55027290672
 30
1.478387048337e-07
 10
53.230286061709
 20
71.11295405366
 30
1.478454123571e-07
 10
55.179054002597
 20
70.51529398473
 30
1.478375679653e-07
 10
57.30241853868
 20
69.693758958238
 30
1.4784512814e-07
 10
60.151901020474
 20
68.359321343156
 30
1.478428544033e-07
 10
63.113979459357
 20
66.642989879588
 30
1.478446733927e-07
 10
66.086036506167
 20
64.587531799002
 30
1.478447302361e-07
 10
68.258593104719
 20
62.915668013903
 30
1.478427407164e-07
 10
70.369711764216
 20
61.122084036002
 30
1.478456965742e-07
 10
72.476540494567
 20
59.153818110087
 30
1.478379090258e-07
 10
74.451497165591
 20
57.13744922184
 30
1.478428544033e-07
 10
77.019027327473
 20
54.272039395103
 30
1.478368858443e-07
 10
78.736652909247
 20
52.085889695229
 30
1.47836715314e-07
 10
79.823461599723
 20
50.57598034083
 30
1.478422859691e-07
  0
LINE
  5
46
330
17
100
AcDbEntity
  8
CUT
100
AcDbLine
 10
79.82346159921
 20
50.575980341541
 30
1.131623369819e-07
 11
79.823461598954
 21
21.10225554618
 31
1.156623673868e-07
  0
ELLIPSE
  5
47
330
17
100
AcDbEntity
  8
CUT
100
AcDbEllipse
 10
48.932098453776
 20
45.531142125568
 30
1.460636553929e-07
 11
-41.004259248007735
 21
-1.0342795330502697
 31
4.3192023665352564e-08
 40
0.910268539172758
 41
2.0311110449058267
 42
2.400709489531561
  0
LINE
  5
48
330
17
100
AcDbEntity
  8
CUT
100
AcDbLine
 10
67.99090104438
 20
12.55075848943
 30
1.288262800134e-07
 11
27.48240775977
 21
12.45912623673
 31
1.71417177933e-07
  0
CIRCLE
  5
49
330
17
100
AcDbEntity
  8
CUT
100
AcDbCircle
 10
67.824146124422
 20
68.399287719332
 30
1.478442754888e-07
 40
1.5
  0
TEXT
  5
50
330
17
100
AcDbEntity
  8
LABELS_NONCUT
100
AcDbText
 10
0.0
 20
-6.0
 30
0.0
 40
2.5
  1
A04|5mm|QTY1|SPINE SLOT5.2
100
AcDbText
  0
ENDSEC
  0
SECTION
  2
OBJECTS
  0
DICTIONARY
  5
A
330
0
100
AcDbDictionary
281
1
  3
ACAD_COLOR
350
B
  3
ACAD_GROUP
350
C
  3
ACAD_LAYOUT
350
D
  3
ACAD_MATERIAL
350
E
  3
ACAD_MLEADERSTYLE
350
F
  3
ACAD_MLINESTYLE
350
10
  3
ACAD_PLOTSETTINGS
350
11
  3
ACAD_PLOTSTYLENAME
350
12
  3
ACAD_SCALELIST
350
14
  3
ACAD_TABLESTYLE
350
15
  3
ACAD_VISUALSTYLE
350
16
  3
EZDXF_META
350
2D
  0
DICTIONARY
  5
B
330
A
100
AcDbDictionary
281
1
  0
DICTIONARY
  5
C
330
A
100
AcDbDictionary
281
1
  0
DICTIONARY
  5
D
330
A
100
AcDbDictionary
281
1
  3
Model
350
1A
  3
Layout1
350
1E
  0
DICTIONARY
  5
E
330
A
100
AcDbDictionary
281
1
  3
ByBlock
350
1F
  3
ByLayer
350
20
  3
Global
350
21
  0
DICTIONARY
  5
F
330
A
100
AcDbDictionary
281
1
  3
Standard
350
2C
  0
DICTIONARY
  5
10
330
A
100
AcDbDictionary
281
1
  3
Standard
350
22
  0
DICTIONARY
  5
11
330
A
100
AcDbDictionary
281
1
  0
ACDBDICTIONARYWDFLT
  5
12
330
A
100
AcDbDictionary
281
1
  3
Normal
350
13
100
AcDbDictionaryWithDefault
340
13
  0
ACDBPLACEHOLDER
  5
13
330
12
  0
DICTIONARY
  5
14
330
A
100
AcDbDictionary
281
1
  0
DICTIONARY
  5
15
330
A
100
AcDbDictionary
281
1
  0
DICTIONARY
  5
16
330
A
100
AcDbDictionary
281
1
  0
LAYOUT
  5
1A
330
D
100
AcDbPlotSettings
  1

  4
A3
  6

 40
7.5
 41
20.0
 42
7.5
 43
20.0
 44
420.0
 45
297.0
 46
0.0
 47
0.0
 48
0.0
 49
0.0
140
0.0
141
0.0
142
1.0
143
1.0
 70
1024
 72
1
 73
0
 74
5
  7

 75
16
 76
0
 77
2
 78
300
147
1.0
148
0.0
149
0.0
100
AcDbLayout
  1
Model
 70
1
 71
0
 10
0.0
 20
0.0
 11
420.0
 21
297.0
 12
0.0
 22
0.0
 32
0.0
 14
1e+20
 24
1e+20
 34
1e+20
 15
-1e+20
 25
-1e+20
 35
-1e+20
146
0.0
 13
0.0
 23
0.0
 33
0.0
 16
1.0
 26
0.0
 36
0.0
 17
0.0
 27
1.0
 37
0.0
 76
1
330
17
  0
LAYOUT
  5
1E
330
D
100
AcDbPlotSettings
  1

  4
A3
  6

 40
7.5
 41
20.0
 42
7.5
 43
20.0
 44
420.0
 45
297.0
 46
0.0
 47
0.0
 48
0.0
 49
0.0
140
0.0
141
0.0
142
1.0
143
1.0
 70
0
 72
1
 73
0
 74
5
  7

 75
16
 76
0
 77
2
 78
300
147
1.0
148
0.0
149
0.0
100
AcDbLayout
  1
Layout1
 70
1
 71
1
 10
0.0
 20
0.0
 11
420.0
 21
297.0
 12
0.0
 22
0.0
 32
0.0
 14
1e+20
 24
1e+20
 34
1e+20
 15
-1e+20
 25
-1e+20
 35
-1e+20
146
0.0
 13
0.0
 23
0.0
 33
0.0
 16
1.0
 26
0.0
 36
0.0
 17
0.0
 27
1.0
 37
0.0
 76
1
330
1B
  0
MATERIAL
  5
1F
102
{ACAD_REACTORS
330
E
102
}
330
E
100
AcDbMaterial
  1
ByBlock
  2

 70
0
 40
1.0
 71
1
 41
1.0
 91
-1023410177
 42
1.0
 72
1
  3

 73
1
 74
1
 75
1
 44
0.5
 73
0
 45
1.0
 46
1.0
 77
1
  4

 78
1
 79
1
170
1
 48
1.0
171
1
  6

172
1
173
1
174
1
140
1.0
141
1.0
175
1
  7

176
1
177
1
178
1
143
1.0
179
1
  8

270
1
271
1
272
1
145
1.0
146
1.0
273
1
  9

274
1
275
1
276
1
 42
1.0
 72
1
  3

 73
1
 74
1
 75
1
 94
63
  0
MATERIAL
  5
20
102
{ACAD_REACTORS
330
E
102
}
330
E
100
AcDbMaterial
  1
ByLayer
  2

 70
0
 40
1.0
 71
1
 41
1.0
 91
-1023410177
 42
1.0
 72
1
  3

 73
1
 74
1
 75
1
 44
0.5
 73
0
 45
1.0
 46
1.0
 77
1
  4

 78
1
 79
1
170
1
 48
1.0
171
1
  6

172
1
173
1
174
1
140
1.0
141
1.0
175
1
  7

176
1
177
1
178
1
143
1.0
179
1
  8

270
1
271
1
272
1
145
1.0
146
1.0
273
1
  9

274
1
275
1
276
1
 42
1.0
 72
1
  3

 73
1
 74
1
 75
1
 94
63
  0
MATERIAL
  5
21
102
{ACAD_REACTORS
330
E
102
}
330
E
100
AcDbMaterial
  1
Global
  2

 70
0
 40
1.0
 71
1
 41
1.0
 91
-1023410177
 42
1.0
 72
1
  3

 73
1
 74
1
 75
1
 44
0.5
 73
0
 45
1.0
 46
1.0
 77
1
  4

 78
1
 79
1
170
1
 48
1.0
171
1
  6

172
1
173
1
174
1
140
1.0
141
1.0
175
1
  7

176
1
177
1
178
1
143
1.0
179
1
  8

270
1
271
1
272
1
145
1.0
146
1.0
273
1
  9

274
1
275
1
276
1
 42
1.0
 72
1
  3

 73
1
 74
1
 75
1
 94
63
  0
MLINESTYLE
  5
22
102
{ACAD_REACTORS
330
10
102
}
330
10
100
AcDbMlineStyle
  2
Standard
 70
0
  3

 62
256
 51
90.0
 52
90.0
 71
2
 49
0.5
 62
256
  6
BYLAYER
 49
-0.5
 62
256
  6
BYLAYER
  0
MLEADERSTYLE
  5
2C
102
{ACAD_REACTORS
330
F
102
}
330
F
100
AcDbMLeaderStyle
179
2
170
2
171
1
172
0
 90
2
 40
0.0
 41
0.0
173
1
 91
-1056964608
 92
-2
290
1
 42
2.0
291
1
 43
8.0
  3
Standard
 44
4.0
300

342
29
174
1
175
1
176
0
178
1
 93
-1056964608
 45
4.0
292
0
297
0
 46
4.0
 94
-1056964608
 47
1.0
 49
1.0
140
1.0
294
1
141
0.0
177
0
142
1.0
295
0
296
0
143
3.75
271
0
272
9
273
9
  0
DICTIONARY
  5
2D
330
A
100
AcDbDictionary
280
1
281
1
  3
CREATED_BY_EZDXF
350
2E
  3
WRITTEN_BY_EZDXF
350
4D
  0
DICTIONARYVAR
  5
2E
330
2D
100
DictionaryVariables
280
0
  1
1.4.4 @ 2026-09-19T11:42:44.608968+00:00
  0
DICTIONARYVAR
  5
4D
330
2D
100
DictionaryVariables
280
0
  1
1.4.4 @ 2026-09-19T11:42:44.630537+00:00
  0
ENDSEC
  0
EOF
