  0
SECTION
  2
HEADER
  9
$ACADVER
  1
AC1027
  9
$ACADMAINTVER
 70
105
  9
$DWGCODEPAGE
  3
ANSI_1252
  9
$LASTSAVEDBY
  1
ezdxf
  9
$REQUIREDVERSIONS
160
0
  9
$INSBASE
 10
0.0
 20
0.0
 30
0.0
  9
$EXTMIN
 10
1e+20
 20
1e+20
 30
1e+20
  9
$EXTMAX
 10
-1e+20
 20
-1e+20
 30
-1e+20
  9
$LIMMIN
 10
0.0
 20
0.0
  9
$LIMMAX
 10
420.0
 20
297.0
  9
$ORTHOMODE
 70
0
  9
$REGENMODE
 70
1
  9
$FILLMODE
 70
1
  9
$QTEXTMODE
 70
0
  9
$MIRRTEXT
 70
1
  9
$LTSCALE
 40
1.0
  9
$ATTMODE
 70
1
  9
$TEXTSIZE
 40
2.5
  9
$TRACEWID
 40
1.0
  9
$TEXTSTYLE
  7
Standard
  9
$CLAYER
  8
0
  9
$CELTYPE
  6
ByLayer
  9
$CECOLOR
 62
256
  9
$CELTSCALE
 40
1.0
  9
$DISPSILH
 70
0
  9
$DIMSCALE
 40
1.0
  9
$DIMASZ
 40
2.5
  9
$DIMEXO
 40
0.625
  9
$DIMDLI
 40
3.75
  9
$DIMRND
 40
0.0
  9
$DIMDLE
 40
0.0
  9
$DIMEXE
 40
1.25
  9
$DIMTP
 40
0.0
  9
$DIMTM
 40
0.0
  9
$DIMTXT
 40
2.5
  9
$DIMCEN
 40
2.5
  9
$DIMTSZ
 40
0.0
  9
$DIMTOL
 70
0
  9
$DIMLIM
 70
0
  9
$DIMTIH
 70
0
  9
$DIMTOH
 70
0
  9
$DIMSE1
 70
0
  9
$DIMSE2
 70
0
  9
$DIMTAD
 70
1
  9
$DIMZIN
 70
8
  9
$DIMBLK
  1

  9
$DIMASO
 70
1
  9
$DIMSHO
 70
1
  9
$DIMPOST
  1

  9
$DIMAPOST
  1

  9
$DIMALT
 70
0
  9
$DIMALTD
 70
3
  9
$DIMALTF
 40
0.03937007874
  9
$DIMLFAC
 40
1.0
  9
$DIMTOFL
 70
1
  9
$DIMTVP
 40
0.0
  9
$DIMTIX
 70
0
  9
$DIMSOXD
 70
0
  9
$DIMSAH
 70
0
  9
$DIMBLK1
  1

  9
$DIMBLK2
  1

  9
$DIMSTYLE
  2
ISO-25
  9
$DIMCLRD
 70
0
  9
$DIMCLRE
 70
0
  9
$DIMCLRT
 70
0
  9
$DIMTFAC
 40
1.0
  9
$DIMGAP
 40
0.625
  9
$DIMJUST
 70
0
  9
$DIMSD1
 70
0
  9
$DIMSD2
 70
0
  9
$DIMTOLJ
 70
0
  9
$DIMTZIN
 70
8
  9
$DIMALTZ
 70
0
  9
$DIMALTTZ
 70
0
  9
$DIMUPT
 70
0
  9
$DIMDEC
 70
2
  9
$DIMTDEC
 70
2
  9
$DIMALTU
 70
2
  9
$DIMALTTD
 70
3
  9
$DIMTXSTY
  7
Standard
  9
$DIMAUNIT
 70
0
  9
$DIMADEC
 70
0
  9
$DIMALTRND
 40
0.0
  9
$DIMAZIN
 70
0
  9
$DIMDSEP
 70
44
  9
$DIMATFIT
 70
3
  9
$DIMFRAC
 70
0
  9
$DIMLDRBLK
  1

  9
$DIMLUNIT
 70
2
  9
$DIMLWD
 70
-2
  9
$DIMLWE
 70
-2
  9
$DIMTMOVE
 70
0
  9
$DIMFXL
 40
1.0
  9
$DIMFXLON
 70
0
  9
$DIMJOGANG
 40
0.785398163397
  9
$DIMTFILL
 70
0
  9
$DIMTFILLCLR
 70
0
  9
$DIMARCSYM
 70
0
  9
$DIMLTYPE
  6

  9
$DIMLTEX1
  6

  9
$DIMLTEX2
  6

  9
$DIMTXTDIRECTION
 70
0
  9
$LUNITS
 70
2
  9
$LUPREC
 70
4
  9
$SKETCHINC
 40
1.0
  9
$FILLETRAD
 40
10.0
  9
$AUNITS
 70
0
  9
$AUPREC
 70
2
  9
$MENU
  1
.
  9
$ELEVATION
 40
0.0
  9
$PELEVATION
 40
0.0
  9
$THICKNESS
 40
0.0
  9
$LIMCHECK
 70
0
  9
$CHAMFERA
 40
0.0
  9
$CHAMFERB
 40
0.0
  9
$CHAMFERC
 40
0.0
  9
$CHAMFERD
 40
0.0
  9
$SKPOLY
 70
0
  9
$TDCREATE
 40
2461303.705428241
  9
$TDUCREATE
 40
2458532.153996898
  9
$TDUPDATE
 40
2461303.705428241
  9
$TDUUPDATE
 40
2458532.1544311
  9
$TDINDWG
 40
0.0
  9
$TDUSRTIMER
 40
0.0
  9
$USRTIMER
 70
1
  9
$ANGBASE
 50
0.0
  9
$ANGDIR
 70
0
  9
$PDMODE
 70
0
  9
$PDSIZE
 40
0.0
  9
$PLINEWID
 40
0.0
  9
$SPLFRAME
 70
0
  9
$SPLINETYPE
 70
6
  9
$SPLINESEGS
 70
8
  9
$HANDSEED
  5
4C
  9
$SURFTAB1
 70
6
  9
$SURFTAB2
 70
6
  9
$SURFTYPE
 70
6
  9
$SURFU
 70
6
  9
$SURFV
 70
6
  9
$UCSBASE
  2

  9
$UCSNAME
  2

  9
$UCSORG
 10
0.0
 20
0.0
 30
0.0
  9
$UCSXDIR
 10
1.0
 20
0.0
 30
0.0
  9
$UCSYDIR
 10
0.0
 20
1.0
 30
0.0
  9
$UCSORTHOREF
  2

  9
$UCSORTHOVIEW
 70
0
  9
$UCSORGTOP
 10
0.0
 20
0.0
 30
0.0
  9
$UCSORGBOTTOM
 10
0.0
 20
0.0
 30
0.0
  9
$UCSORGLEFT
 10
0.0
 20
0.0
 30
0.0
  9
$UCSORGRIGHT
 10
0.0
 20
0.0
 30
0.0
  9
$UCSORGFRONT
 10
0.0
 20
0.0
 30
0.0
  9
$UCSORGBACK
 10
0.0
 20
0.0
 30
0.0
  9
$PUCSBASE
  2

  9
$PUCSNAME
  2

  9
$PUCSORG
 10
0.0
 20
0.0
 30
0.0
  9
$PUCSXDIR
 10
1.0
 20
0.0
 30
0.0
  9
$PUCSYDIR
 10
0.0
 20
1.0
 30
0.0
  9
$PUCSORTHOREF
  2

  9
$PUCSORTHOVIEW
 70
0
  9
$PUCSORGTOP
 10
0.0
 20
0.0
 30
0.0
  9
$PUCSORGBOTTOM
 10
0.0
 20
0.0
 30
0.0
  9
$PUCSORGLEFT
 10
0.0
 20
0.0
 30
0.0
  9
$PUCSORGRIGHT
 10
0.0
 20
0.0
 30
0.0
  9
$PUCSORGFRONT
 10
0.0
 20
0.0
 30
0.0
  9
$PUCSORGBACK
 10
0.0
 20
0.0
 30
0.0
  9
$USERI1
 70
0
  9
$USERI2
 70
0
  9
$USERI3
 70
0
  9
$USERI4
 70
0
  9
$USERI5
 70
0
  9
$USERR1
 40
0.0
  9
$USERR2
 40
0.0
  9
$USERR3
 40
0.0
  9
$USERR4
 40
0.0
  9
$USERR5
 40
0.0
  9
$WORLDVIEW
 70
1
  9
$SHADEDGE
 70
3
  9
$SHADEDIF
 70
70
  9
$TILEMODE
 70
1
  9
$MAXACTVP
 70
64
  9
$PINSBASE
 10
0.0
 20
0.0
 30
0.0
  9
$PLIMCHECK
 70
0
  9
$PEXTMIN
 10
1e+20
 20
1e+20
 30
1e+20
  9
$PEXTMAX
 10
-1e+20
 20
-1e+20
 30
-1e+20
  9
$PLIMMIN
 10
0.0
 20
0.0
  9
$PLIMMAX
 10
420.0
 20
297.0
  9
$UNITMODE
 70
0
  9
$VISRETAIN
 70
1
  9
$PLINEGEN
 70
0
  9
$PSLTSCALE
 70
1
  9
$TREEDEPTH
 70
3020
  9
$CMLSTYLE
  2
Standard
  9
$CMLJUST
 70
0
  9
$CMLSCALE
 40
20.0
  9
$PROXYGRAPHICS
 70
1
  9
$MEASUREMENT
 70
1
  9
$CELWEIGHT
370
-1
  9
$ENDCAPS
280
0
  9
$JOINSTYLE
280
0
  9
$LWDISPLAY
290
0
  9
$INSUNITS
 70
4
  9
$HYPERLINKBASE
  1

  9
$STYLESHEET
  1

  9
$XEDIT
290
1
  9
$CEPSNTYPE
380
0
  9
$PSTYLEMODE
290
1
  9
$FINGERPRINTGUID
  2
{D5A9B80C-C566-4C51-88D7-F8B4B3733727}
  9
$VERSIONGUID
  2
{8C8B672B-E586-4302-A2FA-D6BE7AC88EB5}
  9
$EXTNAMES
290
1
  9
$PSVPSCALE
 40
0.0
  9
$OLESTARTUP
290
0
  9
$SORTENTS
280
127
  9
$INDEXCTL
280
0
  9
$HIDETEXT
280
1
  9
$XCLIPFRAME
280
1
  9
$HALOGAP
280
0
  9
$OBSCOLOR
 70
257
  9
$OBSLTYPE
280
0
  9
$INTERSECTIONDISPLAY
280
0
  9
$INTERSECTIONCOLOR
 70
257
  9
$DIMASSOC
280
2
  9
$PROJECTNAME
  1

  9
$CAMERADISPLAY
290
0
  9
$LENSLENGTH
 40
50.0
  9
$CAMERAHEIGHT
 40
0.0
  9
$STEPSPERSEC
 40
24.0
  9
$STEPSIZE
 40
100.0
  9
$3DDWFPREC
 40
2.0
  9
$PSOLWIDTH
 40
0.005
  9
$PSOLHEIGHT
 40
0.08
  9
$LOFTANG1
 40
1.570796326795
  9
$LOFTANG2
 40
1.570796326795
  9
$LOFTMAG1
 40
0.0
  9
$LOFTMAG2
 40
0.0
  9
$LOFTPARAM
 70
7
  9
$LOFTNORMALS
280
1
  9
$LATITUDE
 40
37.795
  9
$LONGITUDE
 40
-122.394
  9
$NORTHDIRECTION
 40
0.0
  9
$TIMEZONE
 70
-8000
  9
$LIGHTGLYPHDISPLAY
280
1
  9
$TILEMODELIGHTSYNCH
280
1
  9
$CMATERIAL
347
20
  9
$SOLIDHIST
280
0
  9
$SHOWHIST
280
1
  9
$DWFFRAME
280
2
  9
$DGNFRAME
280
2
  9
$REALWORLDSCALE
290
1
  9
$INTERFERECOLOR
 62
256
  9
$CSHADOW
280
0
  9
$SHADOWPLANELOCATION
 40
0.0
  0
ENDSEC
  0
SECTION
  2
CLASSES
  0
CLASS
  1
ACDBDICTIONARYWDFLT
  2
AcDbDictionaryWithDefault
  3
ObjectDBX Classes
 90
0
 91
0
280
0
281
0
  0
CLASS
  1
SUN
  2
AcDbSun
  3
SCENEOE
 90
1153
 91
0
280
0
281
0
  0
CLASS
  1
VISUALSTYLE
  2
AcDbVisualStyle
  3
ObjectDBX Classes
 90
4095
 91
0
280
0
281
0
  0
CLASS
  1
MATERIAL
  2
AcDbMaterial
  3
ObjectDBX Classes
 90
1153
 91
0
280
0
281
0
  0
CLASS
  1
SCALE
  2
AcDbScale
  3
ObjectDBX Classes
 90
1153
 91
0
280
0
281
0
  0
CLASS
  1
TABLESTYLE
  2
AcDbTableStyle
  3
ObjectDBX Classes
 90
4095
 91
0
280
0
281
0
  0
CLASS
  1
MLEADERSTYLE
  2
AcDbMLeaderStyle
  3
ACDB_MLEADERSTYLE_CLASS
 90
4095
 91
0
280
0
281
0
  0
CLASS
  1
DICTIONARYVAR
  2
AcDbDictionaryVar
  3
ObjectDBX Classes
 90
0
 91
0
280
0
281
0
  0
CLASS
  1
CELLSTYLEMAP
  2
AcDbCellStyleMap
  3
ObjectDBX Classes
 90
1152
 91
0
280
0
281
0
  0
CLASS
  1
MENTALRAYRENDERSETTINGS
  2
AcDbMentalRayRenderSettings
  3
SCENEOE
 90
1024
 91
0
280
0
281
0
  0
CLASS
  1
ACDBDETAILVIEWSTYLE
  2
AcDbDetailViewStyle
  3
ObjectDBX Classes
 90
1025
 91
0
280
0
281
0
  0
CLASS
  1
ACDBSECTIONVIEWSTYLE
  2
AcDbSectionViewStyle
  3
ObjectDBX Classes
 90
1025
 91
0
280
0
281
0
  0
CLASS
  1
RASTERVARIABLES
  2
AcDbRasterVariables
  3
ISM
 90
0
 91
0
280
0
281
0
  0
CLASS
  1
ACDBPLACEHOLDER
  2
AcDbPlaceHolder
  3
ObjectDBX Classes
 90
0
 91
0
280
0
281
0
  0
CLASS
  1
LAYOUT
  2
AcDbLayout
  3
ObjectDBX Classes
 90
0
 91
0
280
0
281
0
  0
ENDSEC
  0
SECTION
  2
TABLES
  0
TABLE
  2
VPORT
  5
8
330
0
100
AcDbSymbolTable
 70
1
  0
VPORT
  5
45
330
8
100
AcDbSymbolTableRecord
100
AcDbViewportTableRecord
  2
*Active
 70
0
 10
0.0
 20
0.0
 11
1.0
 21
1.0
 12
219.99999992561004
 22
8.27007530228
 13
0.0
 23
0.0
 14
0.5
 24
0.5
 15
0.5
 25
0.5
 16
0.0
 26
0.0
 36
1.0
 17
0.0
 27
0.0
 37
0.0
 40
219.99999982561
 41
1.34
 42
50.0
 43
0.0
 44
0.0
 50
0.0
 51
0.0
 71
0
 72
1000
 73
1
 74
3
 75
0
 76
0
 77
0
 78
0
281
0
 65
1
110
0.0
120
0.0
130
0.0
111
1.0
121
0.0
131
0.0
112
0.0
122
1.0
132
0.0
 79
0
146
0.0
  0
ENDTAB
  0
TABLE
  2
LTYPE
  5
2
330
0
100
AcDbSymbolTable
 70
3
  0
LTYPE
  5
24
330
2
100
AcDbSymbolTableRecord
100
AcDbLinetypeTableRecord
  2
ByBlock
 70
0
  3

 72
65
 73
0
 40
0.0
  0
LTYPE
  5
25
330
2
100
AcDbSymbolTableRecord
100
AcDbLinetypeTableRecord
  2
ByLayer
 70
0
  3

 72
65
 73
0
 40
0.0
  0
LTYPE
  5
26
330
2
100
AcDbSymbolTableRecord
100
AcDbLinetypeTableRecord
  2
Continuous
 70
0
  3

 72
65
 73
0
 40
0.0
  0
ENDTAB
  0
TABLE
  2
LAYER
  5
1
330
0
100
AcDbSymbolTable
 70
4
  0
LAYER
  5
27
330
1
100
AcDbSymbolTableRecord
100
AcDbLayerTableRecord
  2
0
 70
0
 62
7
  6
Continuous
370
-3
390
13
347
21
  0
LAYER
  5
28
330
1
100
AcDbSymbolTableRecord
100
AcDbLayerTableRecord
  2
Defpoints
 70
0
 62
7
  6
Continuous
290
0
370
-3
390
13
347
21
  0
LAYER
  5
49
330
1
100
AcDbSymbolTableRecord
100
AcDbLayerTableRecord
  2
LABELS_NONCUT
 70
0
 62
3
  6
Continuous
370
-3
390
13
347
21
  0
LAYER
  5
4B
330
1
100
AcDbSymbolTableRecord
100
AcDbLayerTableRecord
  2
CUT
 70
0
 62
1
  6
Continuous
370
-3
390
13
347
21
  0
ENDTAB
  0
TABLE
  2
STYLE
  5
5
330
0
100
AcDbSymbolTable
 70
1
  0
STYLE
  5
29
330
5
100
AcDbSymbolTableRecord
100
AcDbTextStyleTableRecord
  2
Standard
 70
0
 40
0.0
 41
1.0
 50
0.0
 71
0
 42
2.5
  3
txt
  4

  0
ENDTAB
  0
TABLE
  2
VIEW
  5
7
330
0
100
AcDbSymbolTable
 70
0
  0
ENDTAB
  0
TABLE
  2
UCS
  5
6
330
0
100
AcDbSymbolTable
 70
0
  0
ENDTAB
  0
TABLE
  2
APPID
  5
3
330
0
100
AcDbSymbolTable
 70
3
  0
APPID
  5
2A
330
3
100
AcDbSymbolTableRecord
100
AcDbRegAppTableRecord
  2
ACAD
 70
0
  0
APPID
  5
46
330
3
100
AcDbSymbolTableRecord
100
AcDbRegAppTableRecord
  2
HATCHBACKGROUNDCOLOR
 70
0
  0
APPID
  5
47
330
3
100
AcDbSymbolTableRecord
100
AcDbRegAppTableRecord
  2
EZDXF
 70
0
  0
ENDTAB
  0
TABLE
  2
DIMSTYLE
  5
4
330
0
100
AcDbSymbolTable
 70
1
100
AcDbDimStyleTable
  0
DIMSTYLE
105
2B
330
4
100
AcDbSymbolTableRecord
100
AcDbDimStyleTableRecord
  2
Standard
 70
0
 40
1.0
 41
2.5
 42
0.625
 43
3.75
 44
1.25
 45
0.0
 46
0.0
 47
0.0
 48
0.0
 49
2.5
140
2.5
141
2.5
142
0.0
143
0.03937007874
144
1.0
145
0.0
146
1.0
147
0.625
148
0.0
 69
0
 70
0
 71
0
 72
0
 73
0
 74
0
 75
0
 76
0
 77
1
 78
8
 79
3
170
0
171
3
172
1
173
0
174
0
175
0
176
0
177
0
178
0
179
2
271
2
272
2
273
2
274
3
275
0
276
0
277
2
278
44
279
0
280
0
281
0
282
0
283
0
284
8
285
0
286
0
288
0
289
3
290
0
371
-2
372
-2
  0
ENDTAB
  0
TABLE
  2
BLOCK_RECORD
  5
9
330
0
100
AcDbSymbolTable
 70
2
  0
BLOCK_RECORD
  5
17
330
9
100
AcDbSymbolTableRecord
100
AcDbBlockTableRecord
  2
*Model_Space
340
1A
 70
0
280
1
281
0
  0
BLOCK_RECORD
  5
1B
330
9
100
AcDbSymbolTableRecord
100
AcDbBlockTableRecord
  2
*Paper_Space
340
1E
 70
0
280
1
281
0
  0
ENDTAB
  0
ENDSEC
  0
SECTION
  2
BLOCKS
  0
BLOCK
  5
18
330
17
100
AcDbEntity
  8
0
100
AcDbBlockBegin
  2
*Model_Space
 70
0
 10
0.0
 20
0.0
 30
0.0
  3
*Model_Space
  1

  0
ENDBLK
  5
19
330
17
100
AcDbEntity
  8
0
100
AcDbBlockEnd
  0
BLOCK
  5
1C
330
1B
100
AcDbEntity
  8
0
100
AcDbBlockBegin
  2
*Paper_Space
 70
0
 10
0.0
 20
0.0
 30
0.0
  3
*Paper_Space
  1

  0
ENDBLK
  5
1D
330
1B
100
AcDbEntity
  8
0
100
AcDbBlockEnd
  0
ENDSEC
  0
SECTION
  2
ENTITIES
  0
SPLINE
  5
2F
330
17
100
AcDbEntity
  8
CUT
100
AcDbSpline
 70
0
 71
3
 72
11
 73
7
 74
0
 40
0.0
 40
0.0
 40
0.0
 40
0.0
 40
0.166086329792
 40
0.166086329792
 40
0.166086329792
 40
0.290651075958
 40
0.290651075958
 40
0.290651075958
 40
0.290651075958
 10
168.36976771424
 20
1.282080391956
 30
1.092506067835e-07
 10
167.81765457271
 20
1.277751073422
 30
1.092708146189e-07
 10
167.26798053199
 20
1.51558729525
 30
1.092908092915e-07
 10
166.89149059374
 20
1.917775493448
 30
1.093053896284e-07
 10
166.60912314272
 20
2.219416639243
 30
1.093146977382e-07
 10
166.4241717475
 20
2.613505769997
 30
1.093222010695e-07
 10
166.37077964829
 20
3.024146843843
 30
1.093230252991e-07
  0
LINE
  5
30
330
17
100
AcDbEntity
  8
CUT
100
AcDbLine
 10
168.36976771424
 20
1.282080391957
 30
1.092505985094e-07
 11
194.3499999469
 21
1.485822598352
 31
1.092499305993e-07
  0
LINE
  5
31
330
17
100
AcDbEntity
  8
CUT
100
AcDbLine
 10
194.3499999469
 20
1.485822598352
 30
1.092499305993e-07
 11
194.34999926823
 21
8.250258375305
 31
1.092501863946e-07
  0
LINE
  5
32
330
17
100
AcDbEntity
  8
CUT
100
AcDbLine
 10
194.34999926823
 20
8.250258375305
 30
1.092501863946e-07
 11
199.34999960561
 21
8.25025349451
 31
1.09250740618e-07
  0
LINE
  5
33
330
17
100
AcDbEntity
  8
CUT
100
AcDbLine
 10
199.34999960561
 20
8.25025349451
 30
1.09250740618e-07
 11
199.34999994239
 21
1.52504076748
 31
1.092495469062e-07
  0
SPLINE
  5
34
330
17
100
AcDbEntity
  8
CUT
100
AcDbSpline
 70
0
 71
3
 72
88
 73
84
 74
0
 40
0.0
 40
0.0
 40
0.0
 40
0.0
 40
0.0625
 40
0.125
 40
0.1875
 40
0.25
 40
0.28125
 40
0.3125
 40
0.34375
 40
0.375
 40
0.390625
 40
0.39453125
 40
0.3984375
 40
0.400390625
 40
0.40234375
 40
0.40625
 40
0.4140625
 40
0.421875
 40
0.4375
 40
0.453125
 40
0.46875
 40
0.5
 40
0.53125
 40
0.5625
 40
0.578125
 40
0.59375
 40
0.609375
 40
0.6171875
 40
0.625
 40
0.6328125
 40
0.63671875
 40
0.638671875
 40
0.6396484375
 40
0.64013671875
 40
0.640625
 40
0.642578125
 40
0.64453125
 40
0.6484375
 40
0.65234375
 40
0.65625
 40
0.6640625
 40
0.671875
 40
0.6875
 40
0.703125
 40
0.71875
 40
0.734375
 40
0.75
 40
0.765625
 40
0.7734375
 40
0.78125
 40
0.7890625
 40
0.796875
 40
0.80078125
 40
0.8046875
 40
0.80859375
 40
0.8125
 40
0.814453125
 40
0.81640625
 40
0.818359375
 40
0.8193359375
 40
0.81982421875
 40
0.819946289062
 40
0.820068359375
 40
0.8203125
 40
0.82080078125
 40
0.8212890625
 40
0.822265625
 40
0.8232421875
 40
0.82421875
 40
0.826171875
 40
0.828125
 40
0.83203125
 40
0.8359375
 40
0.83984375
 40
0.84375
 40
0.8515625
 40
0.859375
 40
0.8671875
 40
0.875
 40
0.90625
 40
0.9375
 40
0.96875
 40
1.0
 40
1.0
 40
1.0
 40
1.0
 10
199.34999994119
 20
1.525040767472
 30
1.092515589107e-07
 10
202.79452235507
 20
1.552059376135
 30
1.092502799338e-07
 10
209.56047841828
 20
1.605136046825
 30
1.092500383493e-07
 10
219.34014591214
 20
1.681869410545
 30
1.092511041634e-07
 10
228.75054772685
 20
1.755721139188
 30
1.092511041634e-07
 10
236.28482502321
 20
1.814862861698
 30
1.092507346812e-07
 10
242.12761862971
 20
1.860735458382
 30
1.09250947844e-07
 10
246.41738366464
 20
1.894419389087
 30
1.0925104732e-07
 10
250.61488390053
 20
1.927383316627
 30
1.092512746936e-07
 10
254.03570890705
 20
1.954251646582
 30
1.092507204703e-07
 10
256.22203514637
 20
1.971425701373
 30
1.092505783618e-07
 10
257.22358804233
 20
1.979293482005
 30
1.092508910006e-07
 10
257.64017626624
 20
1.982566088079
 30
1.09251431013e-07
 10
257.97161273866
 20
1.985169800385
 30
1.092512604828e-07
 10
258.38761440902
 20
1.988437878044
 30
1.092507773137e-07
 10
259.07530512446
 20
1.993840417429
 30
1.092511041634e-07
 10
260.07612237846
 20
2.001703150649
 30
1.092504220424e-07
 10
261.66115533777
 20
2.014156220902
 30
1.092512462719e-07
 10
263.63750249724
 20
2.029684746999
 30
1.092504788858e-07
 10
265.99318712008
 20
2.048195463862
 30
1.092504220424e-07
 10
269.11570603703
 20
2.072734112776
 30
1.092502799338e-07
 10
272.98305452391
 20
2.103130294976
 30
1.092510757417e-07
 10
277.56700302492
 20
2.13916553268
 30
1.092508199463e-07
 10
281.33948002322
 20
2.16882738335
 30
1.09250848368e-07
 10
284.32898112414
 20
2.192336414675
 30
1.092514025913e-07
 10
286.5568858354
 20
2.209858114142
 30
1.092514168022e-07
 10
288.401548873
 20
2.224367225346
 30
1.09251729441e-07
 10
289.87029110621
 20
2.235920439997
 30
1.092512320611e-07
 10
290.96792924002
 20
2.244554974403
 30
1.092507346812e-07
 10
291.88080253459
 20
2.251736437912
 30
1.092509336331e-07
 10
292.51601669918
 20
2.256733785725
 30
1.092513741696e-07
 10
292.83629447625
 20
2.259253521738
 30
1.09250947844e-07
 10
292.99202593543
 20
2.260478725394
 30
1.092514452239e-07
 10
293.08793911178
 20
2.261233320133
 30
1.0925104732e-07
 10
293.30319616702
 20
2.262926835106
 30
1.092516583867e-07
 10
293.59617776068
 20
2.265231776533
 30
1.092512178502e-07
 10
294.13931841363
 20
2.269504598367
 30
1.092500951927e-07
 10
294.81059853931
 20
2.274785145213
 30
1.092507062594e-07
 10
295.61940729349
 20
2.281147023821
 30
1.092504930966e-07
 10
296.6966759205
 20
2.289619835988
 30
1.092509194223e-07
 10
298.0436530969
 20
2.300212618469
 30
1.092516583867e-07
 10
300.19859785557
 20
2.317156550675
 30
1.09250848368e-07
 10
302.89235390747
 20
2.338331808774
 30
1.092504646749e-07
 10
306.12482905465
 20
2.363733468968
 30
1.092509052114e-07
 10
309.35731289213
 20
2.389126800672
 30
1.092503936206e-07
 10
312.58979447913
 20
2.414511717811
 30
1.092513883805e-07
 10
315.82227677335
 20
2.439888243651
 30
1.092506209943e-07
 10
318.51601186618
 20
2.461028349939
 30
1.09250848368e-07
 10
320.67100015026
 20
2.477936238186
 30
1.092515446999e-07
 10
322.28724097365
 20
2.490615052102
 30
1.092508199463e-07
 10
323.90348334974
 20
2.503291778973
 30
1.092514736456e-07
 10
325.25034722793
 20
2.513853931313
 30
1.092504078315e-07
 10
326.3278490481
 20
2.522302687577
 30
1.09250947844e-07
 10
327.13594615859
 20
2.528638500688
 30
1.092518715495e-07
 10
327.94415495357
 20
2.534974664325
 30
1.092506778377e-07
 10
328.61731440054
 20
2.540251636819
 30
1.092508767897e-07
 10
329.15662104545
 20
2.544479058524
 30
1.092508625788e-07
 10
329.55897250573
 20
2.54763281126
 30
1.092514594347e-07
 10
329.90103585272
 20
2.550313892843
 30
1.092499388733e-07
 10
330.12719345413
 20
2.552086457457
 30
1.092515873324e-07
 10
330.24905143091
 20
2.553041531613
 30
1.092513173262e-07
 10
330.28703039049
 20
2.553339194455
 30
1.09250848368e-07
 10
330.35759383087
 20
2.553892237437
 30
1.092499246624e-07
 10
330.53149988906
 20
2.555255304198
 30
1.092501946687e-07
 10
330.75365323287
 20
2.556996729773
 30
1.092507062594e-07
 10
331.12384100934
 20
2.559898964603
 30
1.092511041634e-07
 10
331.58160967895
 20
2.563488600843
 30
1.092510615308e-07
 10
332.13321542925
 20
2.567815284196
 30
1.092504220424e-07
 10
332.86810160751
 20
2.573581217302
 30
1.092509194223e-07
 10
333.78727860175
 20
2.58079615492
 30
1.09250947844e-07
 10
335.25848112199
 20
2.59235065233
 30
1.092510757417e-07
 10
337.09877810468
 20
2.606816152636
 30
1.092504646749e-07
 10
339.30910416096
 20
2.624209771341
 30
1.092512036394e-07
 10
341.52142679957
 20
2.641638619259
 30
1.092510899525e-07
 10
344.47384287238
 20
2.664923980542
 30
1.092510046874e-07
 10
348.16934090337
 20
2.694118649248
 30
1.092509194223e-07
 10
352.6119018637
 20
2.729292988231
 30
1.0925054994e-07
 10
357.06242651687
 20
2.764608066648
 30
1.092510757417e-07
 10
365.97940301289
 20
2.835519700817
 30
1.092501946687e-07
 10
379.41459488548
 20
2.942942693378
 30
1.092502799338e-07
 10
397.45560187758
 20
3.088425171228
 30
1.092509052114e-07
 10
415.62402671057
 20
3.236159470275
 30
1.092509336331e-07
 10
427.82125515759
 20
3.336150217088
 30
1.092505783618e-07
 10
433.94110568755
 20
3.386520894023
 30
1.092501520361e-07
  0
LINE
  5
35
330
17
100
AcDbEntity
  8
CUT
100
AcDbLine
 10
433.94110568754
 20
3.386520894024
 30
1.092501437621e-07
 11
439.99999975122
 21
3.436389856342
 31
1.092499732318e-07
  0
LINE
  5
36
330
17
100
AcDbEntity
  8
CUT
100
AcDbLine
 10
439.99999975122
 20
3.436389856342
 30
1.092499732318e-07
 11
439.99999881725
 21
12.745060192029
 31
1.092510674676e-07
  0
LINE
  5
37
330
17
100
AcDbEntity
  8
CUT
100
AcDbLine
 10
439.99999881725
 20
12.745060192029
 30
1.092510674676e-07
 11
433.72448541623
 21
12.815212367927
 31
1.092511811545e-07
  0
LINE
  5
38
330
17
100
AcDbEntity
  8
CUT
100
AcDbLine
 10
433.72448541623
 20
12.815212367927
 30
1.092511811545e-07
 11
79.999999763958
 21
15.853089801815
 31
1.09251124311e-07
  0
LINE
  5
39
330
17
100
AcDbEntity
  8
CUT
100
AcDbLine
 10
79.999999763958
 20
15.853089801815
 30
1.09251124311e-07
 11
79.999999763958
 21
10.469003319169
 31
1.092509964134e-07
  0
LINE
  5
3A
330
17
100
AcDbEntity
  8
CUT
100
AcDbLine
 10
79.999999763958
 20
10.469003319169
 30
1.092509964134e-07
 11
74.999999763958
 21
10.469003319168
 31
1.092510958893e-07
  0
LINE
  5
3B
330
17
100
AcDbEntity
  8
CUT
100
AcDbLine
 10
74.999999763958
 20
10.469003319168
 30
1.092510958893e-07
 11
74.999999763958
 21
15.896031095917
 31
1.09250740618e-07
  0
LINE
  5
3C
330
17
100
AcDbEntity
  8
CUT
100
AcDbLine
 10
74.999999763958
 20
15.896031095917
 30
1.09250740618e-07
 11
1.000000509066e-07
 21
16.54015050456
 31
1.092501437621e-07
  0
LINE
  5
3D
330
17
100
AcDbEntity
  8
CUT
100
AcDbLine
 10
1.000000509066e-07
 20
16.54015050456
 30
1.092501437621e-07
 11
1.000000509066e-07
 21
8.250248625359
 31
1.092505132443e-07
  0
LINE
  5
3E
330
17
100
AcDbEntity
  8
CUT
100
AcDbLine
 10
1.000000509066e-07
 20
8.250248625359
 30
1.092505132443e-07
 11
4.999999763965
 21
8.250248625397
 31
1.092514085281e-07
  0
LINE
  5
3F
330
17
100
AcDbEntity
  8
CUT
100
AcDbLine
 10
4.999999763965
 20
8.250248625397
 30
1.092514085281e-07
 11
4.999999763965
 21
9.999999939225e-08
 31
1.092502574489e-07
  0
LINE
  5
40
330
17
100
AcDbEntity
  8
CUT
100
AcDbLine
 10
4.999999763965
 20
9.999999939225e-08
 30
1.092502574489e-07
 11
114.36977110885
 21
0.858636446937
 31
1.092505700877e-07
  0
SPLINE
  5
41
330
17
100
AcDbEntity
  8
CUT
100
AcDbSpline
 70
0
 71
3
 72
11
 73
7
 74
0
 40
0.0
 40
0.0
 40
0.0
 40
0.0
 40
0.5714285698054935
 40
0.5714285698054935
 40
0.5714285698054935
 40
1.0
 40
1.0
 40
1.0
 40
1.0
 10
116.35355294575
 20
2.812424858023
 30
1.092510188982e-07
 10
116.34001667631
 20
2.225961496803
 30
1.092512604828e-07
 10
116.05151092109
 20
1.651710009331
 30
1.092628707511e-07
 10
115.59303805438
 20
1.288399165416
 30
1.092794832402e-07
 10
115.24918340207
 20
1.015916030675
 30
1.09292415118e-07
 10
114.80972224829
 20
0.862087009506
 30
1.093071801961e-07
 10
114.36977110885
 20
0.858636446937
 30
1.093235511007e-07
  0
SPLINE
  5
42
330
17
100
AcDbEntity
  8
CUT
100
AcDbSpline
 70
0
 71
3
 72
11
 73
7
 74
0
 40
0.0
 40
0.0
 40
0.0
 40
0.0
 40
0.133074198785
 40
0.133074198785
 40
0.133074198785
 40
0.310506463831
 40
0.310506463831
 40
0.310506463831
 40
0.310506463831
 10
118.35302041742
 20
4.76627477984
 30
1.092510615308e-07
 10
117.91081492043
 20
4.766274779839
 30
1.092200676567e-07
 10
117.46790698251
 20
4.614297142492
 30
1.084788721073e-07
 10
117.12110562683
 20
4.341982046255
 30
1.071850590506e-07
 10
116.65870381927
 20
3.978895251273
 30
1.054596339145e-07
 10
116.36715815792
 20
3.401875196041
 30
1.027485865279e-07
 10
116.35355294575
 20
2.812424858023
 30
1.000000224849e-07
  0
LINE
  5
43
330
17
100
AcDbEntity
  8
CUT
100
AcDbLine
 10
118.35302041742
 20
4.76627477984
 30
1.137570452807e-07
 11
164.3874738225
 21
4.766274779839
 31
1.139851721315e-07
  0
SPLINE
  5
44
330
17
100
AcDbEntity
  8
CUT
100
AcDbSpline
 70
0
 71
3
 72
11
 73
7
 74
0
 40
0.0
 40
0.0
 40
0.0
 40
0.0
 40
0.123896956741
 40
0.123896956741
 40
0.123896956741
 40
0.289092899061
 40
0.289092899061
 40
0.289092899061
 40
0.289092899061
 10
166.37077964829
 20
3.024146843842
 30
1.092510331091e-07
 10
166.31767640979
 20
3.432566277266
 30
1.111894505357e-07
 10
166.13448551697
 20
3.824615181904
 30
1.131337938887e-07
 10
165.85465138156
 20
4.1255890361
 30
1.147177499661e-07
 10
165.48153920102
 20
4.526887508362
 30
1.168280192587e-07
 10
164.93661681142
 20
4.766274779839
 30
1.182941673505e-07
 10
164.3874738225
 20
4.76627477984
 30
1.186471791925e-07
  0
TEXT
  5
4A
330
17
100
AcDbEntity
  8
LABELS_NONCUT
100
AcDbText
 10
0.0
 20
-6.0
 30
0.0
 40
3.0
  1
A05 PLY 5.000mm QTY 2
100
AcDbText
  0
ENDSEC
  0
SECTION
  2
OBJECTS
  0
DICTIONARY
  5
A
330
0
100
AcDbDictionary
281
1
  3
ACAD_COLOR
350
B
  3
ACAD_GROUP
350
C
  3
ACAD_LAYOUT
350
D
  3
ACAD_MATERIAL
350
E
  3
ACAD_MLEADERSTYLE
350
F
  3
ACAD_MLINESTYLE
350
10
  3
ACAD_PLOTSETTINGS
350
11
  3
ACAD_PLOTSTYLENAME
350
12
  3
ACAD_SCALELIST
350
14
  3
ACAD_TABLESTYLE
350
15
  3
ACAD_VISUALSTYLE
350
16
  3
EZDXF_META
350
2D
  0
DICTIONARY
  5
B
330
A
100
AcDbDictionary
281
1
  0
DICTIONARY
  5
C
330
A
100
AcDbDictionary
281
1
  0
DICTIONARY
  5
D
330
A
100
AcDbDictionary
281
1
  3
Model
350
1A
  3
Layout1
350
1E
  0
DICTIONARY
  5
E
330
A
100
AcDbDictionary
281
1
  3
ByBlock
350
1F
  3
ByLayer
350
20
  3
Global
350
21
  0
DICTIONARY
  5
F
330
A
100
AcDbDictionary
281
1
  3
Standard
350
2C
  0
DICTIONARY
  5
10
330
A
100
AcDbDictionary
281
1
  3
Standard
350
22
  0
DICTIONARY
  5
11
330
A
100
AcDbDictionary
281
1
  0
ACDBDICTIONARYWDFLT
  5
12
330
A
100
AcDbDictionary
281
1
  3
Normal
350
13
100
AcDbDictionaryWithDefault
340
13
  0
ACDBPLACEHOLDER
  5
13
330
12
  0
DICTIONARY
  5
14
330
A
100
AcDbDictionary
281
1
  0
DICTIONARY
  5
15
330
A
100
AcDbDictionary
281
1
  0
DICTIONARY
  5
16
330
A
100
AcDbDictionary
281
1
  0
LAYOUT
  5
1A
330
D
100
AcDbPlotSettings
  1

  4
A3
  6

 40
7.5
 41
20.0
 42
7.5
 43
20.0
 44
420.0
 45
297.0
 46
0.0
 47
0.0
 48
0.0
 49
0.0
140
0.0
141
0.0
142
1.0
143
1.0
 70
1024
 72
1
 73
0
 74
5
  7

 75
16
 76
0
 77
2
 78
300
147
1.0
148
0.0
149
0.0
100
AcDbLayout
  1
Model
 70
1
 71
0
 10
0.0
 20
0.0
 11
420.0
 21
297.0
 12
0.0
 22
0.0
 32
0.0
 14
1e+20
 24
1e+20
 34
1e+20
 15
-1e+20
 25
-1e+20
 35
-1e+20
146
0.0
 13
0.0
 23
0.0
 33
0.0
 16
1.0
 26
0.0
 36
0.0
 17
0.0
 27
1.0
 37
0.0
 76
1
330
17
  0
LAYOUT
  5
1E
330
D
100
AcDbPlotSettings
  1

  4
A3
  6

 40
7.5
 41
20.0
 42
7.5
 43
20.0
 44
420.0
 45
297.0
 46
0.0
 47
0.0
 48
0.0
 49
0.0
140
0.0
141
0.0
142
1.0
143
1.0
 70
0
 72
1
 73
0
 74
5
  7

 75
16
 76
0
 77
2
 78
300
147
1.0
148
0.0
149
0.0
100
AcDbLayout
  1
Layout1
 70
1
 71
1
 10
0.0
 20
0.0
 11
420.0
 21
297.0
 12
0.0
 22
0.0
 32
0.0
 14
1e+20
 24
1e+20
 34
1e+20
 15
-1e+20
 25
-1e+20
 35
-1e+20
146
0.0
 13
0.0
 23
0.0
 33
0.0
 16
1.0
 26
0.0
 36
0.0
 17
0.0
 27
1.0
 37
0.0
 76
1
330
1B
  0
MATERIAL
  5
1F
102
{ACAD_REACTORS
330
E
102
}
330
E
100
AcDbMaterial
  1
ByBlock
  2

 70
0
 40
1.0
 71
1
 41
1.0
 91
-1023410177
 42
1.0
 72
1
  3

 73
1
 74
1
 75
1
 44
0.5
 73
0
 45
1.0
 46
1.0
 77
1
  4

 78
1
 79
1
170
1
 48
1.0
171
1
  6

172
1
173
1
174
1
140
1.0
141
1.0
175
1
  7

176
1
177
1
178
1
143
1.0
179
1
  8

270
1
271
1
272
1
145
1.0
146
1.0
273
1
  9

274
1
275
1
276
1
 42
1.0
 72
1
  3

 73
1
 74
1
 75
1
 94
63
  0
MATERIAL
  5
20
102
{ACAD_REACTORS
330
E
102
}
330
E
100
AcDbMaterial
  1
ByLayer
  2

 70
0
 40
1.0
 71
1
 41
1.0
 91
-1023410177
 42
1.0
 72
1
  3

 73
1
 74
1
 75
1
 44
0.5
 73
0
 45
1.0
 46
1.0
 77
1
  4

 78
1
 79
1
170
1
 48
1.0
171
1
  6

172
1
173
1
174
1
140
1.0
141
1.0
175
1
  7

176
1
177
1
178
1
143
1.0
179
1
  8

270
1
271
1
272
1
145
1.0
146
1.0
273
1
  9

274
1
275
1
276
1
 42
1.0
 72
1
  3

 73
1
 74
1
 75
1
 94
63
  0
MATERIAL
  5
21
102
{ACAD_REACTORS
330
E
102
}
330
E
100
AcDbMaterial
  1
Global
  2

 70
0
 40
1.0
 71
1
 41
1.0
 91
-1023410177
 42
1.0
 72
1
  3

 73
1
 74
1
 75
1
 44
0.5
 73
0
 45
1.0
 46
1.0
 77
1
  4

 78
1
 79
1
170
1
 48
1.0
171
1
  6

172
1
173
1
174
1
140
1.0
141
1.0
175
1
  7

176
1
177
1
178
1
143
1.0
179
1
  8

270
1
271
1
272
1
145
1.0
146
1.0
273
1
  9

274
1
275
1
276
1
 42
1.0
 72
1
  3

 73
1
 74
1
 75
1
 94
63
  0
MLINESTYLE
  5
22
102
{ACAD_REACTORS
330
10
102
}
330
10
100
AcDbMlineStyle
  2
Standard
 70
0
  3

 62
256
 51
90.0
 52
90.0
 71
2
 49
0.5
 62
256
  6
BYLAYER
 49
-0.5
 62
256
  6
BYLAYER
  0
MLEADERSTYLE
  5
2C
102
{ACAD_REACTORS
330
F
102
}
330
F
100
AcDbMLeaderStyle
179
2
170
2
171
1
172
0
 90
2
 40
0.0
 41
0.0
173
1
 91
-1056964608
 92
-2
290
1
 42
2.0
291
1
 43
8.0
  3
Standard
 44
4.0
300

342
29
174
1
175
1
176
0
178
1
 93
-1056964608
 45
4.0
292
0
297
0
 46
4.0
 94
-1056964608
 47
1.0
 49
1.0
140
1.0
294
1
141
0.0
177
0
142
1.0
295
0
296
0
143
3.75
271
0
272
9
273
9
  0
DICTIONARY
  5
2D
330
A
100
AcDbDictionary
280
1
281
1
  3
CREATED_BY_EZDXF
350
2E
  3
WRITTEN_BY_EZDXF
350
48
  0
DICTIONARYVAR
  5
2E
330
2D
100
DictionaryVariables
280
0
  1
1.4.4 @ 2026-09-19T11:24:44.989027+00:00
  0
DICTIONARYVAR
  5
48
330
2D
100
DictionaryVariables
280
0
  1
1.4.4 @ 2026-09-19T11:25:49.879944+00:00
  0
ENDSEC
  0
EOF
