  0
SECTION
  2
HEADER
  9
$ACADVER
  1
AC1027
  9
$ACADMAINTVER
 70
105
  9
$DWGCODEPAGE
  3
ANSI_1252
  9
$LASTSAVEDBY
  1
ezdxf
  9
$REQUIREDVERSIONS
160
0
  9
$INSBASE
 10
0.0
 20
0.0
 30
0.0
  9
$EXTMIN
 10
1e+20
 20
1e+20
 30
1e+20
  9
$EXTMAX
 10
-1e+20
 20
-1e+20
 30
-1e+20
  9
$LIMMIN
 10
0.0
 20
0.0
  9
$LIMMAX
 10
420.0
 20
297.0
  9
$ORTHOMODE
 70
0
  9
$REGENMODE
 70
1
  9
$FILLMODE
 70
1
  9
$QTEXTMODE
 70
0
  9
$MIRRTEXT
 70
1
  9
$LTSCALE
 40
1.0
  9
$ATTMODE
 70
1
  9
$TEXTSIZE
 40
2.5
  9
$TRACEWID
 40
1.0
  9
$TEXTSTYLE
  7
Standard
  9
$CLAYER
  8
0
  9
$CELTYPE
  6
ByLayer
  9
$CECOLOR
 62
256
  9
$CELTSCALE
 40
1.0
  9
$DISPSILH
 70
0
  9
$DIMSCALE
 40
1.0
  9
$DIMASZ
 40
2.5
  9
$DIMEXO
 40
0.625
  9
$DIMDLI
 40
3.75
  9
$DIMRND
 40
0.0
  9
$DIMDLE
 40
0.0
  9
$DIMEXE
 40
1.25
  9
$DIMTP
 40
0.0
  9
$DIMTM
 40
0.0
  9
$DIMTXT
 40
2.5
  9
$DIMCEN
 40
2.5
  9
$DIMTSZ
 40
0.0
  9
$DIMTOL
 70
0
  9
$DIMLIM
 70
0
  9
$DIMTIH
 70
0
  9
$DIMTOH
 70
0
  9
$DIMSE1
 70
0
  9
$DIMSE2
 70
0
  9
$DIMTAD
 70
1
  9
$DIMZIN
 70
8
  9
$DIMBLK
  1

  9
$DIMASO
 70
1
  9
$DIMSHO
 70
1
  9
$DIMPOST
  1

  9
$DIMAPOST
  1

  9
$DIMALT
 70
0
  9
$DIMALTD
 70
3
  9
$DIMALTF
 40
0.03937007874
  9
$DIMLFAC
 40
1.0
  9
$DIMTOFL
 70
1
  9
$DIMTVP
 40
0.0
  9
$DIMTIX
 70
0
  9
$DIMSOXD
 70
0
  9
$DIMSAH
 70
0
  9
$DIMBLK1
  1

  9
$DIMBLK2
  1

  9
$DIMSTYLE
  2
ISO-25
  9
$DIMCLRD
 70
0
  9
$DIMCLRE
 70
0
  9
$DIMCLRT
 70
0
  9
$DIMTFAC
 40
1.0
  9
$DIMGAP
 40
0.625
  9
$DIMJUST
 70
0
  9
$DIMSD1
 70
0
  9
$DIMSD2
 70
0
  9
$DIMTOLJ
 70
0
  9
$DIMTZIN
 70
8
  9
$DIMALTZ
 70
0
  9
$DIMALTTZ
 70
0
  9
$DIMUPT
 70
0
  9
$DIMDEC
 70
2
  9
$DIMTDEC
 70
2
  9
$DIMALTU
 70
2
  9
$DIMALTTD
 70
3
  9
$DIMTXSTY
  7
Standard
  9
$DIMAUNIT
 70
0
  9
$DIMADEC
 70
0
  9
$DIMALTRND
 40
0.0
  9
$DIMAZIN
 70
0
  9
$DIMDSEP
 70
44
  9
$DIMATFIT
 70
3
  9
$DIMFRAC
 70
0
  9
$DIMLDRBLK
  1

  9
$DIMLUNIT
 70
2
  9
$DIMLWD
 70
-2
  9
$DIMLWE
 70
-2
  9
$DIMTMOVE
 70
0
  9
$DIMFXL
 40
1.0
  9
$DIMFXLON
 70
0
  9
$DIMJOGANG
 40
0.785398163397
  9
$DIMTFILL
 70
0
  9
$DIMTFILLCLR
 70
0
  9
$DIMARCSYM
 70
0
  9
$DIMLTYPE
  6

  9
$DIMLTEX1
  6

  9
$DIMLTEX2
  6

  9
$DIMTXTDIRECTION
 70
0
  9
$LUNITS
 70
2
  9
$LUPREC
 70
4
  9
$SKETCHINC
 40
1.0
  9
$FILLETRAD
 40
10.0
  9
$AUNITS
 70
0
  9
$AUPREC
 70
2
  9
$MENU
  1
.
  9
$ELEVATION
 40
0.0
  9
$PELEVATION
 40
0.0
  9
$THICKNESS
 40
0.0
  9
$LIMCHECK
 70
0
  9
$CHAMFERA
 40
0.0
  9
$CHAMFERB
 40
0.0
  9
$CHAMFERC
 40
0.0
  9
$CHAMFERD
 40
0.0
  9
$SKPOLY
 70
0
  9
$TDCREATE
 40
2461303.705428241
  9
$TDUCREATE
 40
2458532.153996898
  9
$TDUPDATE
 40
2461303.705428241
  9
$TDUUPDATE
 40
2458532.1544311
  9
$TDINDWG
 40
0.0
  9
$TDUSRTIMER
 40
0.0
  9
$USRTIMER
 70
1
  9
$ANGBASE
 50
0.0
  9
$ANGDIR
 70
0
  9
$PDMODE
 70
0
  9
$PDSIZE
 40
0.0
  9
$PLINEWID
 40
0.0
  9
$SPLFRAME
 70
0
  9
$SPLINETYPE
 70
6
  9
$SPLINESEGS
 70
8
  9
$HANDSEED
  5
5D
  9
$SURFTAB1
 70
6
  9
$SURFTAB2
 70
6
  9
$SURFTYPE
 70
6
  9
$SURFU
 70
6
  9
$SURFV
 70
6
  9
$UCSBASE
  2

  9
$UCSNAME
  2

  9
$UCSORG
 10
0.0
 20
0.0
 30
0.0
  9
$UCSXDIR
 10
1.0
 20
0.0
 30
0.0
  9
$UCSYDIR
 10
0.0
 20
1.0
 30
0.0
  9
$UCSORTHOREF
  2

  9
$UCSORTHOVIEW
 70
0
  9
$UCSORGTOP
 10
0.0
 20
0.0
 30
0.0
  9
$UCSORGBOTTOM
 10
0.0
 20
0.0
 30
0.0
  9
$UCSORGLEFT
 10
0.0
 20
0.0
 30
0.0
  9
$UCSORGRIGHT
 10
0.0
 20
0.0
 30
0.0
  9
$UCSORGFRONT
 10
0.0
 20
0.0
 30
0.0
  9
$UCSORGBACK
 10
0.0
 20
0.0
 30
0.0
  9
$PUCSBASE
  2

  9
$PUCSNAME
  2

  9
$PUCSORG
 10
0.0
 20
0.0
 30
0.0
  9
$PUCSXDIR
 10
1.0
 20
0.0
 30
0.0
  9
$PUCSYDIR
 10
0.0
 20
1.0
 30
0.0
  9
$PUCSORTHOREF
  2

  9
$PUCSORTHOVIEW
 70
0
  9
$PUCSORGTOP
 10
0.0
 20
0.0
 30
0.0
  9
$PUCSORGBOTTOM
 10
0.0
 20
0.0
 30
0.0
  9
$PUCSORGLEFT
 10
0.0
 20
0.0
 30
0.0
  9
$PUCSORGRIGHT
 10
0.0
 20
0.0
 30
0.0
  9
$PUCSORGFRONT
 10
0.0
 20
0.0
 30
0.0
  9
$PUCSORGBACK
 10
0.0
 20
0.0
 30
0.0
  9
$USERI1
 70
0
  9
$USERI2
 70
0
  9
$USERI3
 70
0
  9
$USERI4
 70
0
  9
$USERI5
 70
0
  9
$USERR1
 40
0.0
  9
$USERR2
 40
0.0
  9
$USERR3
 40
0.0
  9
$USERR4
 40
0.0
  9
$USERR5
 40
0.0
  9
$WORLDVIEW
 70
1
  9
$SHADEDGE
 70
3
  9
$SHADEDIF
 70
70
  9
$TILEMODE
 70
1
  9
$MAXACTVP
 70
64
  9
$PINSBASE
 10
0.0
 20
0.0
 30
0.0
  9
$PLIMCHECK
 70
0
  9
$PEXTMIN
 10
1e+20
 20
1e+20
 30
1e+20
  9
$PEXTMAX
 10
-1e+20
 20
-1e+20
 30
-1e+20
  9
$PLIMMIN
 10
0.0
 20
0.0
  9
$PLIMMAX
 10
420.0
 20
297.0
  9
$UNITMODE
 70
0
  9
$VISRETAIN
 70
1
  9
$PLINEGEN
 70
0
  9
$PSLTSCALE
 70
1
  9
$TREEDEPTH
 70
3020
  9
$CMLSTYLE
  2
Standard
  9
$CMLJUST
 70
0
  9
$CMLSCALE
 40
20.0
  9
$PROXYGRAPHICS
 70
1
  9
$MEASUREMENT
 70
1
  9
$CELWEIGHT
370
-1
  9
$ENDCAPS
280
0
  9
$JOINSTYLE
280
0
  9
$LWDISPLAY
290
0
  9
$INSUNITS
 70
4
  9
$HYPERLINKBASE
  1

  9
$STYLESHEET
  1

  9
$XEDIT
290
1
  9
$CEPSNTYPE
380
0
  9
$PSTYLEMODE
290
1
  9
$FINGERPRINTGUID
  2
{8F1FF2A8-5FC3-4C83-B023-83284330DFB0}
  9
$VERSIONGUID
  2
{F4EA71B5-6131-4499-8AB3-ED71E0B9FEB4}
  9
$EXTNAMES
290
1
  9
$PSVPSCALE
 40
0.0
  9
$OLESTARTUP
290
0
  9
$SORTENTS
280
127
  9
$INDEXCTL
280
0
  9
$HIDETEXT
280
1
  9
$XCLIPFRAME
280
1
  9
$HALOGAP
280
0
  9
$OBSCOLOR
 70
257
  9
$OBSLTYPE
280
0
  9
$INTERSECTIONDISPLAY
280
0
  9
$INTERSECTIONCOLOR
 70
257
  9
$DIMASSOC
280
2
  9
$PROJECTNAME
  1

  9
$CAMERADISPLAY
290
0
  9
$LENSLENGTH
 40
50.0
  9
$CAMERAHEIGHT
 40
0.0
  9
$STEPSPERSEC
 40
24.0
  9
$STEPSIZE
 40
100.0
  9
$3DDWFPREC
 40
2.0
  9
$PSOLWIDTH
 40
0.005
  9
$PSOLHEIGHT
 40
0.08
  9
$LOFTANG1
 40
1.570796326795
  9
$LOFTANG2
 40
1.570796326795
  9
$LOFTMAG1
 40
0.0
  9
$LOFTMAG2
 40
0.0
  9
$LOFTPARAM
 70
7
  9
$LOFTNORMALS
280
1
  9
$LATITUDE
 40
37.795
  9
$LONGITUDE
 40
-122.394
  9
$NORTHDIRECTION
 40
0.0
  9
$TIMEZONE
 70
-8000
  9
$LIGHTGLYPHDISPLAY
280
1
  9
$TILEMODELIGHTSYNCH
280
1
  9
$CMATERIAL
347
20
  9
$SOLIDHIST
280
0
  9
$SHOWHIST
280
1
  9
$DWFFRAME
280
2
  9
$DGNFRAME
280
2
  9
$REALWORLDSCALE
290
1
  9
$INTERFERECOLOR
 62
256
  9
$CSHADOW
280
0
  9
$SHADOWPLANELOCATION
 40
0.0
  0
ENDSEC
  0
SECTION
  2
CLASSES
  0
CLASS
  1
ACDBDICTIONARYWDFLT
  2
AcDbDictionaryWithDefault
  3
ObjectDBX Classes
 90
0
 91
0
280
0
281
0
  0
CLASS
  1
SUN
  2
AcDbSun
  3
SCENEOE
 90
1153
 91
0
280
0
281
0
  0
CLASS
  1
VISUALSTYLE
  2
AcDbVisualStyle
  3
ObjectDBX Classes
 90
4095
 91
0
280
0
281
0
  0
CLASS
  1
MATERIAL
  2
AcDbMaterial
  3
ObjectDBX Classes
 90
1153
 91
0
280
0
281
0
  0
CLASS
  1
SCALE
  2
AcDbScale
  3
ObjectDBX Classes
 90
1153
 91
0
280
0
281
0
  0
CLASS
  1
TABLESTYLE
  2
AcDbTableStyle
  3
ObjectDBX Classes
 90
4095
 91
0
280
0
281
0
  0
CLASS
  1
MLEADERSTYLE
  2
AcDbMLeaderStyle
  3
ACDB_MLEADERSTYLE_CLASS
 90
4095
 91
0
280
0
281
0
  0
CLASS
  1
DICTIONARYVAR
  2
AcDbDictionaryVar
  3
ObjectDBX Classes
 90
0
 91
0
280
0
281
0
  0
CLASS
  1
CELLSTYLEMAP
  2
AcDbCellStyleMap
  3
ObjectDBX Classes
 90
1152
 91
0
280
0
281
0
  0
CLASS
  1
MENTALRAYRENDERSETTINGS
  2
AcDbMentalRayRenderSettings
  3
SCENEOE
 90
1024
 91
0
280
0
281
0
  0
CLASS
  1
ACDBDETAILVIEWSTYLE
  2
AcDbDetailViewStyle
  3
ObjectDBX Classes
 90
1025
 91
0
280
0
281
0
  0
CLASS
  1
ACDBSECTIONVIEWSTYLE
  2
AcDbSectionViewStyle
  3
ObjectDBX Classes
 90
1025
 91
0
280
0
281
0
  0
CLASS
  1
RASTERVARIABLES
  2
AcDbRasterVariables
  3
ISM
 90
0
 91
0
280
0
281
0
  0
CLASS
  1
ACDBPLACEHOLDER
  2
AcDbPlaceHolder
  3
ObjectDBX Classes
 90
0
 91
0
280
0
281
0
  0
CLASS
  1
LAYOUT
  2
AcDbLayout
  3
ObjectDBX Classes
 90
0
 91
0
280
0
281
0
  0
ENDSEC
  0
SECTION
  2
TABLES
  0
TABLE
  2
VPORT
  5
8
330
0
100
AcDbSymbolTable
 70
1
  0
VPORT
  5
56
330
8
100
AcDbSymbolTableRecord
100
AcDbViewportTableRecord
  2
*Active
 70
0
 10
0.0
 20
0.0
 11
1.0
 21
1.0
 12
47.82222456850801
 22
275.33010005205
 13
0.0
 23
0.0
 14
0.5
 24
0.5
 15
0.5
 25
0.5
 16
0.0
 26
0.0
 36
1.0
 17
0.0
 27
0.0
 37
0.0
 40
550.6601999041
 41
1.34
 42
50.0
 43
0.0
 44
0.0
 50
0.0
 51
0.0
 71
0
 72
1000
 73
1
 74
3
 75
0
 76
0
 77
0
 78
0
281
0
 65
1
110
0.0
120
0.0
130
0.0
111
1.0
121
0.0
131
0.0
112
0.0
122
1.0
132
0.0
 79
0
146
0.0
  0
ENDTAB
  0
TABLE
  2
LTYPE
  5
2
330
0
100
AcDbSymbolTable
 70
3
  0
LTYPE
  5
24
330
2
100
AcDbSymbolTableRecord
100
AcDbLinetypeTableRecord
  2
ByBlock
 70
0
  3

 72
65
 73
0
 40
0.0
  0
LTYPE
  5
25
330
2
100
AcDbSymbolTableRecord
100
AcDbLinetypeTableRecord
  2
ByLayer
 70
0
  3

 72
65
 73
0
 40
0.0
  0
LTYPE
  5
26
330
2
100
AcDbSymbolTableRecord
100
AcDbLinetypeTableRecord
  2
Continuous
 70
0
  3

 72
65
 73
0
 40
0.0
  0
ENDTAB
  0
TABLE
  2
LAYER
  5
1
330
0
100
AcDbSymbolTable
 70
4
  0
LAYER
  5
27
330
1
100
AcDbSymbolTableRecord
100
AcDbLayerTableRecord
  2
0
 70
0
 62
7
  6
Continuous
370
-3
390
13
347
21
  0
LAYER
  5
28
330
1
100
AcDbSymbolTableRecord
100
AcDbLayerTableRecord
  2
Defpoints
 70
0
 62
7
  6
Continuous
290
0
370
-3
390
13
347
21
  0
LAYER
  5
5A
330
1
100
AcDbSymbolTableRecord
100
AcDbLayerTableRecord
  2
LABELS_NONCUT
 70
0
 62
3
  6
Continuous
370
-3
390
13
347
21
  0
LAYER
  5
5C
330
1
100
AcDbSymbolTableRecord
100
AcDbLayerTableRecord
  2
CUT
 70
0
 62
1
  6
Continuous
370
-3
390
13
347
21
  0
ENDTAB
  0
TABLE
  2
STYLE
  5
5
330
0
100
AcDbSymbolTable
 70
1
  0
STYLE
  5
29
330
5
100
AcDbSymbolTableRecord
100
AcDbTextStyleTableRecord
  2
Standard
 70
0
 40
0.0
 41
1.0
 50
0.0
 71
0
 42
2.5
  3
txt
  4

  0
ENDTAB
  0
TABLE
  2
VIEW
  5
7
330
0
100
AcDbSymbolTable
 70
0
  0
ENDTAB
  0
TABLE
  2
UCS
  5
6
330
0
100
AcDbSymbolTable
 70
0
  0
ENDTAB
  0
TABLE
  2
APPID
  5
3
330
0
100
AcDbSymbolTable
 70
3
  0
APPID
  5
2A
330
3
100
AcDbSymbolTableRecord
100
AcDbRegAppTableRecord
  2
ACAD
 70
0
  0
APPID
  5
57
330
3
100
AcDbSymbolTableRecord
100
AcDbRegAppTableRecord
  2
HATCHBACKGROUNDCOLOR
 70
0
  0
APPID
  5
58
330
3
100
AcDbSymbolTableRecord
100
AcDbRegAppTableRecord
  2
EZDXF
 70
0
  0
ENDTAB
  0
TABLE
  2
DIMSTYLE
  5
4
330
0
100
AcDbSymbolTable
 70
1
100
AcDbDimStyleTable
  0
DIMSTYLE
105
2B
330
4
100
AcDbSymbolTableRecord
100
AcDbDimStyleTableRecord
  2
Standard
 70
0
 40
1.0
 41
2.5
 42
0.625
 43
3.75
 44
1.25
 45
0.0
 46
0.0
 47
0.0
 48
0.0
 49
2.5
140
2.5
141
2.5
142
0.0
143
0.03937007874
144
1.0
145
0.0
146
1.0
147
0.625
148
0.0
 69
0
 70
0
 71
0
 72
0
 73
0
 74
0
 75
0
 76
0
 77
1
 78
8
 79
3
170
0
171
3
172
1
173
0
174
0
175
0
176
0
177
0
178
0
179
2
271
2
272
2
273
2
274
3
275
0
276
0
277
2
278
44
279
0
280
0
281
0
282
0
283
0
284
8
285
0
286
0
288
0
289
3
290
0
371
-2
372
-2
  0
ENDTAB
  0
TABLE
  2
BLOCK_RECORD
  5
9
330
0
100
AcDbSymbolTable
 70
2
  0
BLOCK_RECORD
  5
17
330
9
100
AcDbSymbolTableRecord
100
AcDbBlockTableRecord
  2
*Model_Space
340
1A
 70
0
280
1
281
0
  0
BLOCK_RECORD
  5
1B
330
9
100
AcDbSymbolTableRecord
100
AcDbBlockTableRecord
  2
*Paper_Space
340
1E
 70
0
280
1
281
0
  0
ENDTAB
  0
ENDSEC
  0
SECTION
  2
BLOCKS
  0
BLOCK
  5
18
330
17
100
AcDbEntity
  8
0
100
AcDbBlockBegin
  2
*Model_Space
 70
0
 10
0.0
 20
0.0
 30
0.0
  3
*Model_Space
  1

  0
ENDBLK
  5
19
330
17
100
AcDbEntity
  8
0
100
AcDbBlockEnd
  0
BLOCK
  5
1C
330
1B
100
AcDbEntity
  8
0
100
AcDbBlockBegin
  2
*Paper_Space
 70
0
 10
0.0
 20
0.0
 30
0.0
  3
*Paper_Space
  1

  0
ENDBLK
  5
1D
330
1B
100
AcDbEntity
  8
0
100
AcDbBlockEnd
  0
ENDSEC
  0
SECTION
  2
ENTITIES
  0
CIRCLE
  5
2F
330
17
100
AcDbEntity
  8
CUT
100
AcDbCircle
 10
5.00000010001
 20
449.936069996
 30
1.000000002804e-07
 40
1.0
  0
CIRCLE
  5
30
330
17
100
AcDbEntity
  8
CUT
100
AcDbCircle
 10
65.058727062393
 20
529.936069996
 30
1.000011300434e-07
 40
1.0
  0
CIRCLE
  5
31
330
17
100
AcDbEntity
  8
CUT
100
AcDbCircle
 10
90.644449037016
 20
349.936069996
 30
1.000011948804e-07
 40
1.0
  0
CIRCLE
  5
32
330
17
100
AcDbEntity
  8
CUT
100
AcDbCircle
 10
90.644449037016
 20
449.936069996
 30
1.000011904395e-07
 40
1.0
  0
CIRCLE
  5
33
330
17
100
AcDbEntity
  8
CUT
100
AcDbCircle
 10
30.58572207464
 20
529.936069996
 30
1.000000535711e-07
 40
1.0
  0
CIRCLE
  5
34
330
17
100
AcDbEntity
  8
CUT
100
AcDbCircle
 10
5.00000010001
 20
349.936069996
 30
1.000020040109e-07
 40
1.0
  0
CIRCLE
  5
35
330
17
100
AcDbEntity
  8
CUT
100
AcDbCircle
 10
90.644449039338
 20
15.00000010078
 30
1.000042084698e-07
 40
1.5
  0
CIRCLE
  5
36
330
17
100
AcDbEntity
  8
CUT
100
AcDbCircle
 10
5.00000009525
 20
15.00000010097
 30
1.000040183996e-07
 40
1.5
  0
CIRCLE
  5
37
330
17
100
AcDbEntity
  8
CUT
100
AcDbCircle
 10
90.921392375295
 20
94.999520739268
 30
1.000042058052e-07
 40
1.5
  0
CIRCLE
  5
38
330
17
100
AcDbEntity
  8
CUT
100
AcDbCircle
 10
4.72305675965
 20
94.999520739464
 30
1.000040139587e-07
 40
1.5
  0
SPLINE
  5
39
330
17
100
AcDbEntity
  8
CUT
100
AcDbSpline
 70
0
 71
3
 72
107
 73
103
 74
0
 40
0.0
 40
0.0
 40
0.0
 40
0.0
 40
0.39734714377148667
 40
0.39734714377148667
 40
0.39734714377148667
 40
0.4470155367428641
 40
0.4470155367428641
 40
0.4470155367428641
 40
0.4687454586679585
 40
0.4687454586679585
 40
0.4687454586679585
 40
0.4783986120574134
 40
0.4783986120574134
 40
0.4783986120574134
 40
0.5065029672302447
 40
0.5065029672302447
 40
0.5065029672302447
 40
0.6505986273865622
 40
0.6505986273865622
 40
0.6505986273865622
 40
0.7226464574646743
 40
0.7226464574646743
 40
0.7226464574646743
 40
0.7586703725037537
 40
0.7586703725037537
 40
0.7586703725037537
 40
0.7766823300232699
 40
0.7766823300232699
 40
0.7766823300232699
 40
0.7856883087830516
 40
0.7856883087830516
 40
0.7856883087830516
 40
0.7901912981629657
 40
0.7901912981629657
 40
0.7901912981629657
 40
0.7924427928528993
 40
0.7924427928528993
 40
0.7924427928528993
 40
0.7935685401978428
 40
0.7935685401978428
 40
0.7935685401978428
 40
0.7941314138703379
 40
0.7941314138703379
 40
0.7941314138703379
 40
0.7944876839696778
 40
0.7944876839696778
 40
0.7944876839696778
 40
0.7946339743762518
 40
0.7946339743762518
 40
0.7946339743762518
 40
0.794694287542833
 40
0.794694287542833
 40
0.794694287542833
 40
0.7970267959036951
 40
0.7970267959036951
 40
0.7970267959036951
 40
0.7993546089832514
 40
0.7993546089832514
 40
0.7993546089832514
 40
0.8016888159233337
 40
0.8016888159233337
 40
0.8016888159233337
 40
0.804032924634783
 40
0.804032924634783
 40
0.804032924634783
 40
0.8064024030625638
 40
0.8064024030625638
 40
0.8064024030625638
 40
0.8075757997601051
 40
0.8075757997601051
 40
0.8075757997601051
 40
0.8206519614598821
 40
0.8206519614598821
 40
0.8206519614598821
 40
0.8468042848594362
 40
0.8468042848594362
 40
0.8468042848594362
 40
0.8729566082589901
 40
0.8729566082589901
 40
0.8729566082589901
 40
0.8991089316585442
 40
0.8991089316585442
 40
0.8991089316585442
 40
0.9252612550580982
 40
0.9252612550580982
 40
0.9252612550580982
 40
0.9383374167578752
 40
0.9383374167578752
 40
0.9383374167578752
 40
0.9514135784576521
 40
0.9514135784576521
 40
0.9514135784576521
 40
0.9644897401574292
 40
0.9644897401574292
 40
0.9644897401574292
 40
0.9775659018572063
 40
0.9775659018572063
 40
0.9775659018572063
 40
0.9906420635569831
 40
0.9906420635569831
 40
0.9906420635569831
 40
1.0
 40
1.0
 40
1.0
 40
1.0
 10
1.000000258156e-07
 20
75.055658211978
 30
1.000040050769e-07
 10
1.000000258156e-07
 20
137.10978764979
 30
1.000050025013e-07
 10
1.000000258156e-07
 20
199.94046495289
 30
1.000049998368e-07
 10
1.000000258156e-07
 20
263.1167609717
 30
1.000049971722e-07
 10
1.000000258156e-07
 20
271.0137979741
 30
1.000039961951e-07
 10
1.000000258156e-07
 20
278.9162352688
 30
1.00004996284e-07
 10
1.000000258156e-07
 20
286.8232311976
 30
1.00004996284e-07
 10
1.000000258156e-07
 20
290.2825419164
 30
1.00003995307e-07
 10
1.000000258156e-07
 20
293.7427251862
 30
1.00003995307e-07
 10
1.000000258156e-07
 20
297.2037105264
 30
1.000049953959e-07
 10
1.000000258156e-07
 20
298.7411952207
 30
1.000049953959e-07
 10
1.000000258156e-07
 20
300.2788407183
 30
1.000049953959e-07
 10
1.000000258156e-07
 20
301.8166327319
 30
1.00003995307e-07
 10
1.000000258156e-07
 20
306.293786589
 30
1.00003995307e-07
 10
1.000000258156e-07
 20
310.7721281682
 30
1.00003995307e-07
 10
1.000000258156e-07
 20
315.2514174658
 30
1.000039944188e-07
 10
1.000000258156e-07
 20
338.2174718156
 30
1.000049936195e-07
 10
1.000000258156e-07
 20
361.2083956324
 30
1.000039926424e-07
 10
1.000000258156e-07
 20
384.1911248775
 30
1.000039917542e-07
 10
1.000100231518e-07
 20
395.6824895
 30
1.000039917542e-07
 10
1.000100231518e-07
 20
407.171805644
 30
1.000039908661e-07
 10
1.000100231518e-07
 20
418.6549493448
 30
1.000039908661e-07
 10
1.000000258156e-07
 20
424.3965211952
 30
1.000039899779e-07
 10
1.000100231518e-07
 20
430.1365500943
 30
1.000039899779e-07
 10
1.000100231518e-07
 20
435.8745217539
 30
1.000039899779e-07
 10
1.000100231518e-07
 20
438.7435075837
 30
1.000039899779e-07
 10
1.000000258156e-07
 20
441.6119791182
 30
1.000039890897e-07
 10
1.000100231518e-07
 20
444.4798721669
 30
1.000039890897e-07
 10
1.000100231518e-07
 20
445.9138186912
 30
1.000039890897e-07
 10
1.000100231518e-07
 20
447.3476205951
 30
1.000039890897e-07
 10
1.000100231518e-07
 20
448.7812698615
 30
1.000039890897e-07
 10
1.000000258156e-07
 20
449.4980944946
 30
1.000039890897e-07
 10
1.000100231518e-07
 20
450.2148809684
 30
1.000039890897e-07
 10
1.000000258156e-07
 20
450.9316282812
 30
1.000039890897e-07
 10
1.000100231518e-07
 20
451.2900019376
 30
1.000039890897e-07
 10
1.000100231518e-07
 20
451.6483658037
 30
1.000039890897e-07
 10
1.000000258156e-07
 20
452.0067197544
 30
1.000039890897e-07
 10
1.000100231518e-07
 20
452.1858967297
 30
1.000039890897e-07
 10
1.000100231518e-07
 20
452.3650712262
 30
1.000039890897e-07
 10
1.000100231518e-07
 20
452.5442432282
 30
1.000039890897e-07
 10
1.000100231518e-07
 20
452.6338292292
 30
1.000039890897e-07
 10
1.000100231518e-07
 20
452.7234146065
 30
1.000039890897e-07
 10
1.000000258156e-07
 20
452.8129993583
 30
1.000039890897e-07
 10
1.000000258156e-07
 20
452.8697019009
 30
1.000039890897e-07
 10
1.000100231518e-07
 20
452.9264041929
 30
1.000039890897e-07
 10
1.000100231518e-07
 20
452.9831062338
 30
1.000039890897e-07
 10
1.000100231518e-07
 20
453.0063890314
 30
1.000039890897e-07
 10
1.000100231518e-07
 20
453.0296805667
 30
1.000039890897e-07
 10
1.000100231518e-07
 20
453.0529862584
 30
1.000039890897e-07
 10
1.000100231518e-07
 20
453.0625948178
 30
1.000039890897e-07
 10
1.000000258156e-07
 20
453.0722054751
 30
1.000039890897e-07
 10
1.000000258156e-07
 20
453.0818182109
 30
1.000039890897e-07
 10
1.000100231518e-07
 20
453.436295415
 30
1.000029890008e-07
 10
0.001841647760027
 20
453.794854332
 30
1.000039890897e-07
 10
0.005587720920022
 20
454.15645337
 30
1.000039890897e-07
 10
0.009326253340024
 20
454.5173245182
 30
1.000029890008e-07
 10
0.01496168536002
 20
454.881223544
 30
1.000039890897e-07
 10
0.02251230377002
 20
455.2470879943
 30
1.000039890897e-07
 10
0.03008366165003
 20
455.6139573734
 30
1.000039890897e-07
 10
0.03958076541003
 20
455.9828029648
 30
1.000029890008e-07
 10
0.05097696474003
 20
456.3525264943
 30
1.000039890897e-07
 10
0.06242150707002
 20
456.7238184013
 30
1.000039890897e-07
 10
0.07578128137002
 20
457.0959956653
 30
1.000049891786e-07
 10
0.09098376175003
 20
457.4679192548
 30
1.000039890897e-07
 10
0.10635077485
 20
457.8438680826
 30
1.000039890897e-07
 10
0.12360058887
 20
458.2195576695
 30
1.000039890897e-07
 10
0.14261192098
 20
458.5937850025
 30
1.000049891786e-07
 10
0.15202658121
 20
458.7791072707
 30
1.000039890897e-07
 10
0.16187251802
 20
458.9640705377
 30
1.000029890008e-07
 10
0.17213089525
 20
459.1485263971
 30
1.000049891786e-07
 10
0.28644875534
 20
461.2040755982
 30
1.000029890008e-07
 10
0.45727070015
 20
463.2921327904
 30
1.000039899779e-07
 10
0.68314984136
 20
465.4102086144
 30
1.000039899779e-07
 10
1.13490812377
 20
469.6463602623
 30
1.000039908661e-07
 10
1.80594534475
 20
473.9936608528
 30
1.000039917542e-07
 10
2.70523142289
 20
478.43259385
 30
1.000039935306e-07
 10
3.60451750103
 20
482.8715268472
 30
1.000039961951e-07
 10
4.73071590578
 20
487.395606899
 30
1.000039979715e-07
 10
6.10688351468
 20
491.9727862463
 30
1.000050007249e-07
 10
7.48305112358
 20
496.5499655937
 30
1.000040041887e-07
 10
9.10712080752
 20
501.1732766366
 30
1.000050069422e-07
 10
11.01539333391
 20
505.7889842206
 30
1.000050113831e-07
 10
12.92366586031
 20
510.4046918046
 30
1.000040157351e-07
 10
15.11255074031
 20
515.0037477071
 30
1.00004020176e-07
 10
17.62928029582
 20
519.4926220637
 30
1.00004025505e-07
 10
18.88764507357
 20
521.737059242
 30
1.000040281696e-07
 10
20.2265158528
 20
523.9513906999
 30
1.000040308341e-07
 10
21.65239832483
 20
526.117138687
 30
1.000030342979e-07
 10
23.07828079685
 20
528.2828866741
 30
1.000030369624e-07
 10
24.59071448971
 20
530.3993307295
 30
1.000030405152e-07
 10
26.19525185805
 20
532.4453760198
 30
1.000040441568e-07
 10
27.79978922638
 20
534.49142131
 30
1.000040477095e-07
 10
29.49481823623
 20
536.4649397788
 30
1.000040512622e-07
 10
31.28362862865
 20
538.3375324699
 30
1.000040548149e-07
 10
33.07243902107
 20
540.210125161
 30
1.000050593447e-07
 10
34.95454351635
 20
541.981216652
 30
1.000040628085e-07
 10
36.92736369021
 20
543.6171822768
 30
1.000040672494e-07
 10
38.900183864071
 20
545.2531479016
 30
1.000050717792e-07
 10
40.964174465699
 20
546.75427552
 30
1.000040761312e-07
 10
43.105996002947
 20
548.0822265867
 30
1.000040805721e-07
 10
44.638787526795
 20
549.0325728709
 30
1.000050842137e-07
 10
46.214493371812
 20
549.8961912853
 30
1.000050877664e-07
 10
47.822224568508
 20
550.6602000041
 30
1.000040912302e-07
  0
LINE
  5
3A
330
17
100
AcDbEntity
  8
CUT
100
AcDbLine
 10
1.000000224849e-07
 20
75.055658211978
 30
1.000040048e-07
 11
4.82218733904
 21
75.055658211979
 31
1.000040154581e-07
  0
LINE
  5
3B
330
17
100
AcDbEntity
  8
CUT
100
AcDbLine
 10
4.82218733904
 20
75.055658211979
 30
1.000040154581e-07
 11
4.82218733904
 21
30.0000001
 31
1.000040172345e-07
  0
LINE
  5
3C
330
17
100
AcDbEntity
  8
CUT
100
AcDbLine
 10
4.82218733904
 20
30.0000001
 30
1.000040172345e-07
 11
1.000000224849e-07
 21
30.000000099999
 31
1.000040065763e-07
  0
LINE
  5
3D
330
17
100
AcDbEntity
  8
CUT
100
AcDbLine
 10
1.000000224849e-07
 20
30.000000099999
 30
1.000040065763e-07
 11
1.000000224849e-07
 21
1.148100068349e-07
 31
1.000040083527e-07
  0
LINE
  5
3E
330
17
100
AcDbEntity
  8
CUT
100
AcDbLine
 10
1.000000224849e-07
 20
1.148100068349e-07
 30
1.000040083527e-07
 11
10.0000001
 21
1.132700049311e-07
 31
1.000080300246e-07
  0
LINE
  5
3F
330
17
100
AcDbEntity
  8
CUT
100
AcDbLine
 10
10.0000001
 20
1.132700049311e-07
 30
1.000080300246e-07
 11
10.0000007665
 21
120.6500001125
 31
1.000180246963e-07
  0
LINE
  5
40
330
17
100
AcDbEntity
  8
CUT
100
AcDbLine
 10
10.0000007665
 20
120.6500001125
 30
1.000180246963e-07
 11
15.82223056697
 21
120.6500001125
 31
1.000030384618e-07
  0
LINE
  5
41
330
17
100
AcDbEntity
  8
CUT
100
AcDbLine
 10
15.82223056697
 20
120.6500001125
 30
1.000030384618e-07
 11
10.0000001
 21
127.6500001125
 31
1.000030251392e-07
  0
LINE
  5
42
330
17
100
AcDbEntity
  8
CUT
100
AcDbLine
 10
10.0000001
 20
127.6500001125
 30
1.000030251392e-07
 11
10.00000559923
 21
245.6500001124
 31
1.000070201657e-07
  0
LINE
  5
43
330
17
100
AcDbEntity
  8
CUT
100
AcDbLine
 10
10.00000559923
 20
245.6500001124
 30
1.000070201657e-07
 11
15.82223056697
 21
245.6500001124
 31
1.000040332217e-07
  0
LINE
  5
44
330
17
100
AcDbEntity
  8
CUT
100
AcDbLine
 10
15.82223056697
 20
245.6500001124
 30
1.000040332217e-07
 11
10.0000001
 21
252.6500001125
 31
1.00004019899e-07
  0
SPLINE
  5
45
330
17
100
AcDbEntity
  8
CUT
100
AcDbSpline
 70
0
 71
3
 72
50
 73
46
 74
0
 40
0.0
 40
0.0
 40
0.0
 40
0.0
 40
0.008660251523987634
 40
0.008660251523987634
 40
0.008660251523987634
 40
0.030187292475507402
 40
0.030187292475507402
 40
0.030187292475507402
 40
0.05171433342722566
 40
0.05171433342722566
 40
0.05171433342722566
 40
0.07324137437894364
 40
0.07324137437894364
 40
0.07324137437894364
 40
0.0947684153304634
 40
0.0947684153304634
 40
0.0947684153304634
 40
0.13782249723389994
 40
0.13782249723389994
 40
0.13782249723389994
 40
0.18087657913713795
 40
0.18087657913713795
 40
0.18087657913713795
 40
0.22393066104037598
 40
0.22393066104037598
 40
0.22393066104037598
 40
0.26698474294381236
 40
0.26698474294381236
 40
0.26698474294381236
 40
0.2885117838953321
 40
0.2885117838953321
 40
0.2885117838953321
 40
0.3100388248470504
 40
0.3100388248470504
 40
0.3100388248470504
 40
0.655019412423426
 40
0.655019412423426
 40
0.655019412423426
 40
0.8275097062118123
 40
0.8275097062118123
 40
0.8275097062118123
 40
0.8419723300825094
 40
0.8419723300825094
 40
0.8419723300825094
 40
1.0
 40
1.0
 40
1.0
 40
1.0
 10
45.322224568508
 20
537.5015465651
 30
1.000040859012e-07
 10
44.64507118201
 20
536.9975728818
 30
1.00004085013e-07
 10
43.974009881306
 20
536.4696353391
 30
1.000040832366e-07
 10
43.310649345451
 20
535.9195421031
 30
1.000040814603e-07
 10
41.661714625512
 20
534.552159229
 30
1.000050779965e-07
 10
40.059055900055
 20
533.0468622925
 30
1.000040743548e-07
 10
38.514607752908
 20
531.4300770119
 30
1.000040716903e-07
 10
36.97015960576
 20
529.8132917314
 30
1.000050682265e-07
 10
35.48538387603
 20
528.0867443741
 30
1.000040645849e-07
 10
34.06416706786
 20
526.2744625201
 30
1.000050620092e-07
 10
32.64295025968
 20
524.462180666
 30
1.000040583676e-07
 10
31.29012847494
 20
522.5705484835
 30
1.00005055792e-07
 10
30.00471242633
 20
520.6181524941
 30
1.000040530386e-07
 10
28.71929637773
 20
518.6657565046
 30
1.000050504629e-07
 10
27.50266748118
 20
516.6547580906
 30
1.000040477095e-07
 10
26.35188739825
 20
514.6022104924
 30
1.00004045045e-07
 10
24.05032723238
 20
510.4971152961
 30
1.000050398048e-07
 10
22.02962432985
 20
506.2565473709
 30
1.000050362521e-07
 10
20.25674635248
 20
501.968330561
 30
1.000040317223e-07
 10
18.48386837512
 20
497.6801137511
 30
1.000050282585e-07
 10
16.96958678949
 20
493.3713927238
 30
1.00004025505e-07
 10
15.68340913876
 20
489.0935229775
 30
1.000040219523e-07
 10
14.39723148802
 20
484.8156532312
 30
1.000040192878e-07
 10
13.3453591595
 20
480.5895375655
 30
1.000040175114e-07
 10
12.50612506752
 20
476.4470249727
 30
1.00005015824e-07
 10
11.66689097554
 20
472.3045123798
 30
1.000050140476e-07
 10
11.04430471176
 20
468.2650589162
 30
1.000040130705e-07
 10
10.6267660792
 20
464.349786003
 30
1.000050122713e-07
 10
10.41799676291
 20
462.3921495465
 30
1.000050122713e-07
 10
10.26120173968
 20
460.4722524159
 30
1.000040112942e-07
 10
10.15670194381
 20
458.5932418067
 30
1.000040112942e-07
 10
10.05220214793
 20
456.7142311976
 30
1.000040112942e-07
 10
10.00000010001
 20
454.8761192865
 30
1.000040112942e-07
 10
10.0000001
 20
453.0818182109
 30
1.000050113831e-07
 10
10.00000010001
 20
419.6682320286
 30
1.000050122713e-07
 10
10.00000010001
 20
386.2096601619
 30
1.000050140476e-07
 10
10.0000001
 20
352.77940367
 30
1.00005015824e-07
 10
10.0000001
 20
336.0642754241
 30
1.000040157351e-07
 10
10.0000001
 20
319.3562260218
 30
1.000050167121e-07
 10
10.0000001
 20
302.6644180957
 30
1.000040175114e-07
 10
10.0000001
 20
301.2648765072
 30
1.000040175114e-07
 10
10.0000001
 20
299.8654492177
 30
1.000050176003e-07
 10
10.0000001
 20
298.4661552124
 30
1.000050176003e-07
 10
10.0000001
 20
283.1765941234
 30
1.000050184885e-07
 10
10.0000001
 20
267.902517253
 30
1.000050193767e-07
 10
10.0000001
 20
252.6500001125
 30
1.000050193767e-07
  0
LINE
  5
46
330
17
100
AcDbEntity
  8
CUT
100
AcDbLine
 10
45.322224568508
 20
537.5015465651
 30
1.000030864235e-07
 11
45.322224568508
 21
544.7204518142
 31
9.947208629072e-08
  0
LINE
  5
47
330
17
100
AcDbEntity
  8
CUT
100
AcDbLine
 10
45.322224568508
 20
544.7204518142
 30
9.947208629072e-08
 11
50.322224568508
 21
544.7204518142
 31
9.947109685997e-08
  0
LINE
  5
48
330
17
100
AcDbEntity
  8
CUT
100
AcDbLine
 10
50.322224568508
 20
544.7204518142
 30
9.947109685997e-08
 11
50.322224578884
 21
537.5015465485
 31
1.000040980587e-07
  0
SPLINE
  5
49
330
17
100
AcDbEntity
  8
CUT
100
AcDbSpline
 70
0
 71
3
 72
41
 73
37
 74
0
 40
0.0
 40
0.0
 40
0.0
 40
0.0
 40
0.6899575910453092
 40
0.6899575910453092
 40
0.6899575910453092
 40
0.711484880862995
 40
0.711484880862995
 40
0.711484880862995
 40
0.7330121706804142
 40
0.7330121706804142
 40
0.7330121706804142
 40
0.7760667503155192
 40
0.7760667503155192
 40
0.7760667503155192
 40
0.8191213299506243
 40
0.8191213299506243
 40
0.8191213299506243
 40
0.8621759095857293
 40
0.8621759095857293
 40
0.8621759095857293
 40
0.9052304892208344
 40
0.9052304892208344
 40
0.9052304892208344
 40
0.9267577790385201
 40
0.9267577790385201
 40
0.9267577790385201
 40
0.9482850688559393
 40
0.9482850688559393
 40
0.9482850688559393
 40
0.9698123586736251
 40
0.9698123586736251
 40
0.9698123586736251
 40
0.9913396484910443
 40
0.9913396484910443
 40
0.9913396484910443
 40
1.0
 40
1.0
 40
1.0
 40
1.0
 10
85.644449037016
 20
252.6500001124
 30
1.000031879528e-07
 10
85.644449037016
 20
319.2488749824
 30
1.000031852882e-07
 10
85.644449037016
 20
386.2557655405
 30
1.000031817355e-07
 10
85.644449037016
 20
453.0818182109
 30
1.00003179071e-07
 10
85.644449037016
 20
454.8761192865
 30
1.00003179071e-07
 10
85.592246989086
 20
456.7142311976
 30
1.00003179071e-07
 10
85.487747193214
 20
458.5932418067
 30
1.00003179071e-07
 10
85.383247397342
 20
460.4722524159
 30
1.000041782717e-07
 10
85.226452374106
 20
462.3921495465
 30
1.000041782717e-07
 10
85.017683057825
 20
464.349786003
 30
1.000031772946e-07
 10
84.600144425263
 20
468.2650589162
 30
1.000031764065e-07
 10
83.977558161486
 20
472.3045123798
 30
1.000031746301e-07
 10
83.138324069503
 20
476.4470249727
 30
1.000031728537e-07
 10
82.299089977519
 20
480.5895375655
 30
1.000031710774e-07
 10
81.247217649001
 20
484.8156532312
 30
1.000041685018e-07
 10
79.961039998264
 20
489.0935229775
 30
1.000031648601e-07
 10
78.674862347526
 20
493.3713927238
 30
1.000031621956e-07
 10
77.160580761901
 20
497.6801137511
 30
1.000031586429e-07
 10
75.387702784537
 20
501.968330561
 30
1.00003154202e-07
 10
73.614824807173
 20
506.2565473709
 30
1.000031506493e-07
 10
71.594121904643
 20
510.4971152961
 30
1.000031453202e-07
 10
69.292561738774
 20
514.6022104924
 30
1.000031408793e-07
 10
68.141781655839
 20
516.6547580906
 30
1.000031382148e-07
 10
66.925152759292
 20
518.6657565046
 30
1.000031346621e-07
 10
65.639736710686
 20
520.6181524941
 30
1.000041320864e-07
 10
64.354320662081
 20
522.5705484835
 30
1.00003129333e-07
 10
63.00149887734
 20
524.462180666
 30
1.000031257803e-07
 10
61.580282069163
 20
526.2744625201
 30
1.000031231158e-07
 10
60.159065260987
 20
528.0867443741
 30
1.00003119563e-07
 10
58.674289531257
 20
529.8132917314
 30
1.000031160103e-07
 10
57.129841384109
 20
531.4300770119
 30
1.000031124576e-07
 10
55.585393236962
 20
533.0468622925
 30
1.000031089049e-07
 10
53.982734511504
 20
534.552159229
 30
1.000031053522e-07
 10
52.333799791566
 20
535.9195421031
 30
1.000031017995e-07
 10
51.670439265875
 20
536.4696353307
 30
1.000031000231e-07
 10
50.999377975572
 20
536.9975728657
 30
1.000040992238e-07
 10
50.322224599636
 20
537.5015465419
 30
1.000030973586e-07
  0
LINE
  5
4A
330
17
100
AcDbEntity
  8
CUT
100
AcDbLine
 10
85.644449037016
 20
252.6500001124
 30
1.000041877647e-07
 11
79.822230566966
 21
245.6500001124
 31
1.000041753302e-07
  0
LINE
  5
4B
330
17
100
AcDbEntity
  8
CUT
100
AcDbLine
 10
79.822230566966
 20
245.6500001124
 30
1.000041753302e-07
 11
85.644449703511
 21
245.6500001124
 31
1.000051887418e-07
  0
LINE
  5
4C
330
17
100
AcDbEntity
  8
CUT
100
AcDbLine
 10
85.644449703511
 20
245.6500001124
 30
1.000051887418e-07
 11
85.644449037016
 21
127.6500001125
 31
1.000041930938e-07
  0
LINE
  5
4D
330
17
100
AcDbEntity
  8
CUT
100
AcDbLine
 10
85.644449037016
 20
127.6500001125
 30
1.000041930938e-07
 11
79.822230566965
 21
120.6500001125
 31
1.000041806593e-07
  0
LINE
  5
4E
330
17
100
AcDbEntity
  8
CUT
100
AcDbLine
 10
79.822230566965
 20
120.6500001125
 30
1.000041806593e-07
 11
85.644454536244
 21
120.6500001125
 31
1.000071933605e-07
  0
LINE
  5
4F
330
17
100
AcDbEntity
  8
CUT
100
AcDbLine
 10
85.644454536244
 20
120.6500001125
 30
1.000071933605e-07
 11
85.644449037015
 21
1.015500288304e-07
 31
1.000041984229e-07
  0
LINE
  5
50
330
17
100
AcDbEntity
  8
CUT
100
AcDbLine
 10
85.644449037015
 20
1.015500288304e-07
 30
1.000041984229e-07
 11
95.644449037015
 21
1.000000224849e-07
 31
1.000042206273e-07
  0
LINE
  5
51
330
17
100
AcDbEntity
  8
CUT
100
AcDbLine
 10
95.644449037015
 20
1.000000224849e-07
 30
1.000042206273e-07
 11
95.644449037016
 21
29.999999932937
 31
-6.666178037292e-08
  0
LINE
  5
52
330
17
100
AcDbEntity
  8
CUT
100
AcDbLine
 10
95.644449037016
 20
29.999999932937
 30
-6.666178037292e-08
 11
90.822230566966
 21
30.0000001
 31
1.00004209081e-07
  0
LINE
  5
53
330
17
100
AcDbEntity
  8
CUT
100
AcDbLine
 10
90.822230566966
 20
30.0000001
 30
1.00004209081e-07
 11
90.822230566966
 21
75.055658211979
 31
1.000042073046e-07
  0
LINE
  5
54
330
17
100
AcDbEntity
  8
CUT
100
AcDbLine
 10
90.822230566966
 20
75.055658211979
 30
1.000042073046e-07
 11
95.644449037016
 21
75.055658211979
 31
1.000042179628e-07
  0
SPLINE
  5
55
330
17
100
AcDbEntity
  8
CUT
100
AcDbSpline
 70
0
 71
3
 72
101
 73
97
 74
0
 40
0.0
 40
0.0
 40
0.0
 40
0.0
 40
0.009357996999763123
 40
0.009357996999763123
 40
0.009357996999763123
 40
0.022434243317399485
 40
0.022434243317399485
 40
0.022434243317399485
 40
0.03551048963521809
 40
0.03551048963521809
 40
0.03551048963521809
 40
0.048586735952854454
 40
0.048586735952854454
 40
0.048586735952854454
 40
0.06166298227067293
 40
0.06166298227067293
 40
0.06166298227067293
 40
0.0747392285883093
 40
0.0747392285883093
 40
0.0747392285883093
 40
0.10089172122394638
 40
0.10089172122394638
 40
0.10089172122394638
 40
0.1270442138594012
 40
0.1270442138594012
 40
0.1270442138594012
 40
0.15319670649485606
 40
0.15319670649485606
 40
0.15319670649485606
 40
0.17934919913031103
 40
0.17934919913031103
 40
0.17934919913031103
 40
0.19242544544794737
 40
0.19242544544794737
 40
0.19242544544794737
 40
0.19521931466433148
 40
0.19521931466433148
 40
0.19521931466433148
 40
0.19798327480312747
 40
0.19798327480312747
 40
0.19798327480312747
 40
0.20072588722484652
 40
0.20072588722484652
 40
0.20072588722484652
 40
0.2034284568036172
 40
0.2034284568036172
 40
0.2034284568036172
 40
0.2053045521836466
 40
0.2053045521836466
 40
0.2053045521836466
 40
0.20547240900282443
 40
0.20547240900282443
 40
0.20547240900282443
 40
0.2055896661377466
 40
0.2055896661377466
 40
0.2055896661377466
 40
0.24317263633984504
 40
0.24317263633984504
 40
0.24317263633984504
 40
0.28299162990947263
 40
0.28299162990947263
 40
0.28299162990947263
 40
0.3258934195123053
 40
0.3258934195123053
 40
0.3258934195123053
 40
0.3743480564384791
 40
0.3743480564384791
 40
0.3743480564384791
 40
0.4459474189760478
 40
0.4459474189760478
 40
0.4459474189760478
 40
0.5006353794680705
 40
0.5006353794680705
 40
0.5006353794680705
 40
0.5464833604249908
 40
0.5464833604249908
 40
0.5464833604249908
 40
0.588366640020545
 40
0.588366640020545
 40
0.588366640020545
 40
0.6276736273013133
 40
0.6276736273013133
 40
0.6276736273013133
 40
0.6393088264480562
 40
0.6393088264480562
 40
0.6393088264480562
 40
0.6449446260348934
 40
0.6449446260348934
 40
0.6449446260348934
 40
0.6458971205685404
 40
0.6458971205685404
 40
0.6458971205685404
 40
0.6590828108098825
 40
0.6590828108098825
 40
0.6590828108098825
 40
1.0
 40
1.0
 40
1.0
 40
1.0
 10
47.822224568509
 20
550.6602000041
 30
1.000040912302e-07
 10
49.429955765204
 20
549.8961912853
 30
1.00003094694e-07
 10
51.005661610222
 20
549.0325728709
 30
1.00001098069e-07
 10
52.538453134069
 20
548.0822265867
 30
1.000011016217e-07
 10
54.680274671317
 20
546.75427552
 30
1.000011060626e-07
 10
56.744265272946
 20
545.2531479016
 30
1.000041116583e-07
 10
58.717085446807
 20
543.6171822768
 30
1.000041160992e-07
 10
60.689905620667
 20
541.981216652
 30
1.000031204512e-07
 10
62.572010115954
 20
540.210125161
 30
1.00004124981e-07
 10
64.360820508372
 20
538.3375324699
 30
1.000041285337e-07
 10
66.149630900791
 20
536.4649397788
 30
1.000031328857e-07
 10
67.84465991064
 20
534.49142131
 30
1.000041365273e-07
 10
69.449197278974
 20
532.4453760198
 30
1.000031399911e-07
 10
71.053734647308
 20
530.3993307295
 30
1.000031435439e-07
 10
72.566168340166
 20
528.2828866741
 30
1.000041471855e-07
 10
73.992050812196
 20
526.117138687
 30
1.000031506493e-07
 10
75.417933284225
 20
523.9513906999
 30
1.000031533138e-07
 10
76.75680406345
 20
521.737059242
 30
1.000041569554e-07
 10
78.015168841205
 20
519.4926220637
 30
1.0000415962e-07
 10
80.531898396715
 20
515.0037477071
 30
1.000031657483e-07
 10
82.720783276709
 20
510.4046918046
 30
1.000031701892e-07
 10
84.629055803106
 20
505.7889842206
 30
1.00004174719e-07
 10
86.537328329503
 20
501.1732766366
 30
1.000041791599e-07
 10
88.161398013444
 20
496.5499655937
 30
1.000041836008e-07
 10
89.537565622342
 20
491.9727862463
 30
1.000041862653e-07
 10
90.913733231241
 20
487.395606899
 30
1.000031897291e-07
 10
92.039931635987
 20
482.8715268472
 30
1.000041924826e-07
 10
92.939217714128
 20
478.43259385
 30
1.0000319417e-07
 10
93.838503792269
 20
473.9936608528
 30
1.000041969235e-07
 10
94.509541013247
 20
469.6463602623
 30
1.000041986998e-07
 10
94.961299295661
 20
465.4102086144
 30
1.00004199588e-07
 10
95.187178436867
 20
463.2921327904
 30
1.000032003873e-07
 10
95.358000381685
 20
461.2040755982
 30
1.000042004762e-07
 10
95.472318241771
 20
459.1485263971
 30
1.000042013644e-07
 10
95.496743382015
 20
458.7093380019
 30
1.000042013644e-07
 10
95.518592780236
 20
458.2716316252
 30
1.000032012755e-07
 10
95.537884065004
 20
457.8344946225
 30
1.000032012755e-07
 10
95.556968831683
 20
457.4020372821
 30
1.000032012755e-07
 10
95.573549950172
 20
456.9701371532
 30
1.000032012755e-07
 10
95.587600749191
 20
456.5379364288
 30
1.000032012755e-07
 10
95.601543025486
 20
456.1090738491
 30
1.000042013644e-07
 10
95.61299395608
 20
455.6799152336
 30
1.000032012755e-07
 10
95.621883952146
 20
455.2496488623
 30
1.000042013644e-07
 10
95.630644151996
 20
454.8256644902
 30
1.000042013644e-07
 10
95.636917665131
 20
454.4006044247
 30
1.000042013644e-07
 10
95.640595165862
 20
453.9737184815
 30
1.000042013644e-07
 10
95.643148048194
 20
453.6773787491
 30
1.000042013644e-07
 10
95.644449037016
 20
453.3801596714
 30
1.000042013644e-07
 10
95.644449037016
 20
453.0818182109
 30
1.000032012755e-07
 10
95.644449037016
 20
453.0538240496
 30
1.000032012755e-07
 10
95.644449037016
 20
453.0258138377
 30
1.000042013644e-07
 10
95.644449037016
 20
452.9977873664
 30
1.000042013644e-07
 10
95.644449037016
 20
452.978209349
 30
1.000032012755e-07
 10
95.644449037016
 20
452.958624971
 30
1.000032012755e-07
 10
95.644449037016
 20
452.9390436815
 30
1.000042013644e-07
 10
95.644449037016
 20
446.6628966644
 30
1.000032021636e-07
 10
95.644449037016
 20
440.4343478815
 30
1.000022020747e-07
 10
95.644449037016
 20
434.247595013
 30
1.000022020747e-07
 10
95.644449037016
 20
427.6927572404
 30
1.00001202874e-07
 10
95.644449037016
 20
421.1848363149
 30
1.00001202874e-07
 10
95.644449037016
 20
414.716872542
 30
1.00001202874e-07
 10
95.644449037016
 20
407.7481574625
 30
1.000002027851e-07
 10
95.644449037016
 20
400.825825535
 30
1.000012037622e-07
 10
95.644449037016
 20
393.9411123052
 30
1.000002036733e-07
 10
95.644449037016
 20
386.1652996181
 30
1.000002045615e-07
 10
95.644449037016
 20
378.4374732523
 30
1.000002045615e-07
 10
95.644449037016
 20
370.7449410022
 30
1.000002045615e-07
 10
95.644449037016
 20
359.378012255
 30
1.000012055385e-07
 10
95.644449037016
 20
348.0881452035
 30
1.000012055385e-07
 10
95.644449037016
 20
336.8342609062
 30
1.000012064267e-07
 10
95.644449037016
 20
328.2384863347
 30
1.000022065156e-07
 10
95.644449037016
 20
319.6636988458
 30
1.000022074038e-07
 10
95.644449037016
 20
311.091606178
 30
1.000022074038e-07
 10
95.644449037016
 20
303.9051406771
 30
1.000022074038e-07
 10
95.644449037016
 20
296.7205683625
 30
1.000032083809e-07
 10
95.644449037016
 20
289.5271488787
 30
1.000032083809e-07
 10
95.644449037016
 20
282.9557799067
 30
1.000032083809e-07
 10
95.644449037016
 20
276.3770272321
 30
1.00004209358e-07
 10
95.644449037016
 20
269.7827459705
 30
1.00004209358e-07
 10
95.644449037016
 20
263.5940871029
 30
1.00004209358e-07
 10
95.644449037016
 20
257.3917509053
 30
1.000042102461e-07
 10
95.644449037016
 20
251.1690505822
 30
1.000032101572e-07
 10
95.644449037016
 20
249.3270788998
 30
1.000032101572e-07
 10
95.644449037016
 20
247.4833232315
 30
1.000032101572e-07
 10
95.644449037016
 20
245.6376110481
 30
1.000032101572e-07
 10
95.644449037016
 20
244.7435942092
 30
1.000042102461e-07
 10
95.644449037016
 20
243.8491183411
 30
1.000032101572e-07
 10
95.644449037016
 20
242.9541638754
 30
1.000042102461e-07
 10
95.644449037016
 20
242.8029095195
 30
1.000042102461e-07
 10
95.644449037016
 20
242.6516392135
 30
1.000042102461e-07
 10
95.644449037016
 20
242.50037617
 30
1.000042102461e-07
 10
95.644449037016
 20
240.4063928808
 30
1.000042102461e-07
 10
95.644449037016
 20
238.3128518621
 30
1.000042102461e-07
 10
95.644449037016
 20
236.2197720424
 30
1.000042102461e-07
 10
95.644449037016
 20
182.10300789795
 30
1.000042129107e-07
 10
95.644449037016
 20
128.29375508246
 30
1.000042155752e-07
 10
95.644449037016
 20
75.055658211979
 30
1.000042173516e-07
  0
TEXT
  5
5B
330
17
100
AcDbEntity
  8
LABELS_NONCUT
100
AcDbText
 10
0.0
 20
-6.0
 30
0.0
 40
3.0
  1
A13 PLY 5.000mm QTY 1
100
AcDbText
  0
ENDSEC
  0
SECTION
  2
OBJECTS
  0
DICTIONARY
  5
A
330
0
100
AcDbDictionary
281
1
  3
ACAD_COLOR
350
B
  3
ACAD_GROUP
350
C
  3
ACAD_LAYOUT
350
D
  3
ACAD_MATERIAL
350
E
  3
ACAD_MLEADERSTYLE
350
F
  3
ACAD_MLINESTYLE
350
10
  3
ACAD_PLOTSETTINGS
350
11
  3
ACAD_PLOTSTYLENAME
350
12
  3
ACAD_SCALELIST
350
14
  3
ACAD_TABLESTYLE
350
15
  3
ACAD_VISUALSTYLE
350
16
  3
EZDXF_META
350
2D
  0
DICTIONARY
  5
B
330
A
100
AcDbDictionary
281
1
  0
DICTIONARY
  5
C
330
A
100
AcDbDictionary
281
1
  0
DICTIONARY
  5
D
330
A
100
AcDbDictionary
281
1
  3
Model
350
1A
  3
Layout1
350
1E
  0
DICTIONARY
  5
E
330
A
100
AcDbDictionary
281
1
  3
ByBlock
350
1F
  3
ByLayer
350
20
  3
Global
350
21
  0
DICTIONARY
  5
F
330
A
100
AcDbDictionary
281
1
  3
Standard
350
2C
  0
DICTIONARY
  5
10
330
A
100
AcDbDictionary
281
1
  3
Standard
350
22
  0
DICTIONARY
  5
11
330
A
100
AcDbDictionary
281
1
  0
ACDBDICTIONARYWDFLT
  5
12
330
A
100
AcDbDictionary
281
1
  3
Normal
350
13
100
AcDbDictionaryWithDefault
340
13
  0
ACDBPLACEHOLDER
  5
13
330
12
  0
DICTIONARY
  5
14
330
A
100
AcDbDictionary
281
1
  0
DICTIONARY
  5
15
330
A
100
AcDbDictionary
281
1
  0
DICTIONARY
  5
16
330
A
100
AcDbDictionary
281
1
  0
LAYOUT
  5
1A
330
D
100
AcDbPlotSettings
  1

  4
A3
  6

 40
7.5
 41
20.0
 42
7.5
 43
20.0
 44
420.0
 45
297.0
 46
0.0
 47
0.0
 48
0.0
 49
0.0
140
0.0
141
0.0
142
1.0
143
1.0
 70
1024
 72
1
 73
0
 74
5
  7

 75
16
 76
0
 77
2
 78
300
147
1.0
148
0.0
149
0.0
100
AcDbLayout
  1
Model
 70
1
 71
0
 10
0.0
 20
0.0
 11
420.0
 21
297.0
 12
0.0
 22
0.0
 32
0.0
 14
1e+20
 24
1e+20
 34
1e+20
 15
-1e+20
 25
-1e+20
 35
-1e+20
146
0.0
 13
0.0
 23
0.0
 33
0.0
 16
1.0
 26
0.0
 36
0.0
 17
0.0
 27
1.0
 37
0.0
 76
1
330
17
  0
LAYOUT
  5
1E
330
D
100
AcDbPlotSettings
  1

  4
A3
  6

 40
7.5
 41
20.0
 42
7.5
 43
20.0
 44
420.0
 45
297.0
 46
0.0
 47
0.0
 48
0.0
 49
0.0
140
0.0
141
0.0
142
1.0
143
1.0
 70
0
 72
1
 73
0
 74
5
  7

 75
16
 76
0
 77
2
 78
300
147
1.0
148
0.0
149
0.0
100
AcDbLayout
  1
Layout1
 70
1
 71
1
 10
0.0
 20
0.0
 11
420.0
 21
297.0
 12
0.0
 22
0.0
 32
0.0
 14
1e+20
 24
1e+20
 34
1e+20
 15
-1e+20
 25
-1e+20
 35
-1e+20
146
0.0
 13
0.0
 23
0.0
 33
0.0
 16
1.0
 26
0.0
 36
0.0
 17
0.0
 27
1.0
 37
0.0
 76
1
330
1B
  0
MATERIAL
  5
1F
102
{ACAD_REACTORS
330
E
102
}
330
E
100
AcDbMaterial
  1
ByBlock
  2

 70
0
 40
1.0
 71
1
 41
1.0
 91
-1023410177
 42
1.0
 72
1
  3

 73
1
 74
1
 75
1
 44
0.5
 73
0
 45
1.0
 46
1.0
 77
1
  4

 78
1
 79
1
170
1
 48
1.0
171
1
  6

172
1
173
1
174
1
140
1.0
141
1.0
175
1
  7

176
1
177
1
178
1
143
1.0
179
1
  8

270
1
271
1
272
1
145
1.0
146
1.0
273
1
  9

274
1
275
1
276
1
 42
1.0
 72
1
  3

 73
1
 74
1
 75
1
 94
63
  0
MATERIAL
  5
20
102
{ACAD_REACTORS
330
E
102
}
330
E
100
AcDbMaterial
  1
ByLayer
  2

 70
0
 40
1.0
 71
1
 41
1.0
 91
-1023410177
 42
1.0
 72
1
  3

 73
1
 74
1
 75
1
 44
0.5
 73
0
 45
1.0
 46
1.0
 77
1
  4

 78
1
 79
1
170
1
 48
1.0
171
1
  6

172
1
173
1
174
1
140
1.0
141
1.0
175
1
  7

176
1
177
1
178
1
143
1.0
179
1
  8

270
1
271
1
272
1
145
1.0
146
1.0
273
1
  9

274
1
275
1
276
1
 42
1.0
 72
1
  3

 73
1
 74
1
 75
1
 94
63
  0
MATERIAL
  5
21
102
{ACAD_REACTORS
330
E
102
}
330
E
100
AcDbMaterial
  1
Global
  2

 70
0
 40
1.0
 71
1
 41
1.0
 91
-1023410177
 42
1.0
 72
1
  3

 73
1
 74
1
 75
1
 44
0.5
 73
0
 45
1.0
 46
1.0
 77
1
  4

 78
1
 79
1
170
1
 48
1.0
171
1
  6

172
1
173
1
174
1
140
1.0
141
1.0
175
1
  7

176
1
177
1
178
1
143
1.0
179
1
  8

270
1
271
1
272
1
145
1.0
146
1.0
273
1
  9

274
1
275
1
276
1
 42
1.0
 72
1
  3

 73
1
 74
1
 75
1
 94
63
  0
MLINESTYLE
  5
22
102
{ACAD_REACTORS
330
10
102
}
330
10
100
AcDbMlineStyle
  2
Standard
 70
0
  3

 62
256
 51
90.0
 52
90.0
 71
2
 49
0.5
 62
256
  6
BYLAYER
 49
-0.5
 62
256
  6
BYLAYER
  0
MLEADERSTYLE
  5
2C
102
{ACAD_REACTORS
330
F
102
}
330
F
100
AcDbMLeaderStyle
179
2
170
2
171
1
172
0
 90
2
 40
0.0
 41
0.0
173
1
 91
-1056964608
 92
-2
290
1
 42
2.0
291
1
 43
8.0
  3
Standard
 44
4.0
300

342
29
174
1
175
1
176
0
178
1
 93
-1056964608
 45
4.0
292
0
297
0
 46
4.0
 94
-1056964608
 47
1.0
 49
1.0
140
1.0
294
1
141
0.0
177
0
142
1.0
295
0
296
0
143
3.75
271
0
272
9
273
9
  0
DICTIONARY
  5
2D
330
A
100
AcDbDictionary
280
1
281
1
  3
CREATED_BY_EZDXF
350
2E
  3
WRITTEN_BY_EZDXF
350
59
  0
DICTIONARYVAR
  5
2E
330
2D
100
DictionaryVariables
280
0
  1
1.4.4 @ 2026-09-19T11:24:45.199692+00:00
  0
DICTIONARYVAR
  5
59
330
2D
100
DictionaryVariables
280
0
  1
1.4.4 @ 2026-09-19T11:25:49.942307+00:00
  0
ENDSEC
  0
EOF
