  0
SECTION
  2
HEADER
  9
$ACADVER
  1
AC1027
  9
$ACADMAINTVER
 70
105
  9
$DWGCODEPAGE
  3
ANSI_1252
  9
$LASTSAVEDBY
  1
ezdxf
  9
$REQUIREDVERSIONS
160
0
  9
$INSBASE
 10
0.0
 20
0.0
 30
0.0
  9
$EXTMIN
 10
1e+20
 20
1e+20
 30
1e+20
  9
$EXTMAX
 10
-1e+20
 20
-1e+20
 30
-1e+20
  9
$LIMMIN
 10
0.0
 20
0.0
  9
$LIMMAX
 10
420.0
 20
297.0
  9
$ORTHOMODE
 70
0
  9
$REGENMODE
 70
1
  9
$FILLMODE
 70
1
  9
$QTEXTMODE
 70
0
  9
$MIRRTEXT
 70
1
  9
$LTSCALE
 40
1.0
  9
$ATTMODE
 70
1
  9
$TEXTSIZE
 40
2.5
  9
$TRACEWID
 40
1.0
  9
$TEXTSTYLE
  7
Standard
  9
$CLAYER
  8
0
  9
$CELTYPE
  6
ByLayer
  9
$CECOLOR
 62
256
  9
$CELTSCALE
 40
1.0
  9
$DISPSILH
 70
0
  9
$DIMSCALE
 40
1.0
  9
$DIMASZ
 40
2.5
  9
$DIMEXO
 40
0.625
  9
$DIMDLI
 40
3.75
  9
$DIMRND
 40
0.0
  9
$DIMDLE
 40
0.0
  9
$DIMEXE
 40
1.25
  9
$DIMTP
 40
0.0
  9
$DIMTM
 40
0.0
  9
$DIMTXT
 40
2.5
  9
$DIMCEN
 40
2.5
  9
$DIMTSZ
 40
0.0
  9
$DIMTOL
 70
0
  9
$DIMLIM
 70
0
  9
$DIMTIH
 70
0
  9
$DIMTOH
 70
0
  9
$DIMSE1
 70
0
  9
$DIMSE2
 70
0
  9
$DIMTAD
 70
1
  9
$DIMZIN
 70
8
  9
$DIMBLK
  1

  9
$DIMASO
 70
1
  9
$DIMSHO
 70
1
  9
$DIMPOST
  1

  9
$DIMAPOST
  1

  9
$DIMALT
 70
0
  9
$DIMALTD
 70
3
  9
$DIMALTF
 40
0.03937007874
  9
$DIMLFAC
 40
1.0
  9
$DIMTOFL
 70
1
  9
$DIMTVP
 40
0.0
  9
$DIMTIX
 70
0
  9
$DIMSOXD
 70
0
  9
$DIMSAH
 70
0
  9
$DIMBLK1
  1

  9
$DIMBLK2
  1

  9
$DIMSTYLE
  2
ISO-25
  9
$DIMCLRD
 70
0
  9
$DIMCLRE
 70
0
  9
$DIMCLRT
 70
0
  9
$DIMTFAC
 40
1.0
  9
$DIMGAP
 40
0.625
  9
$DIMJUST
 70
0
  9
$DIMSD1
 70
0
  9
$DIMSD2
 70
0
  9
$DIMTOLJ
 70
0
  9
$DIMTZIN
 70
8
  9
$DIMALTZ
 70
0
  9
$DIMALTTZ
 70
0
  9
$DIMUPT
 70
0
  9
$DIMDEC
 70
2
  9
$DIMTDEC
 70
2
  9
$DIMALTU
 70
2
  9
$DIMALTTD
 70
3
  9
$DIMTXSTY
  7
Standard
  9
$DIMAUNIT
 70
0
  9
$DIMADEC
 70
0
  9
$DIMALTRND
 40
0.0
  9
$DIMAZIN
 70
0
  9
$DIMDSEP
 70
44
  9
$DIMATFIT
 70
3
  9
$DIMFRAC
 70
0
  9
$DIMLDRBLK
  1

  9
$DIMLUNIT
 70
2
  9
$DIMLWD
 70
-2
  9
$DIMLWE
 70
-2
  9
$DIMTMOVE
 70
0
  9
$DIMFXL
 40
1.0
  9
$DIMFXLON
 70
0
  9
$DIMJOGANG
 40
0.785398163397
  9
$DIMTFILL
 70
0
  9
$DIMTFILLCLR
 70
0
  9
$DIMARCSYM
 70
0
  9
$DIMLTYPE
  6

  9
$DIMLTEX1
  6

  9
$DIMLTEX2
  6

  9
$DIMTXTDIRECTION
 70
0
  9
$LUNITS
 70
2
  9
$LUPREC
 70
4
  9
$SKETCHINC
 40
1.0
  9
$FILLETRAD
 40
10.0
  9
$AUNITS
 70
0
  9
$AUPREC
 70
2
  9
$MENU
  1
.
  9
$ELEVATION
 40
0.0
  9
$PELEVATION
 40
0.0
  9
$THICKNESS
 40
0.0
  9
$LIMCHECK
 70
0
  9
$CHAMFERA
 40
0.0
  9
$CHAMFERB
 40
0.0
  9
$CHAMFERC
 40
0.0
  9
$CHAMFERD
 40
0.0
  9
$SKPOLY
 70
0
  9
$TDCREATE
 40
2461304.7712847223
  9
$TDUCREATE
 40
2458532.153996898
  9
$TDUPDATE
 40
2461304.7712847223
  9
$TDUUPDATE
 40
2458532.1544311
  9
$TDINDWG
 40
0.0
  9
$TDUSRTIMER
 40
0.0
  9
$USRTIMER
 70
1
  9
$ANGBASE
 50
0.0
  9
$ANGDIR
 70
0
  9
$PDMODE
 70
0
  9
$PDSIZE
 40
0.0
  9
$PLINEWID
 40
0.0
  9
$SPLFRAME
 70
0
  9
$SPLINETYPE
 70
6
  9
$SPLINESEGS
 70
8
  9
$HANDSEED
  5
75
  9
$SURFTAB1
 70
6
  9
$SURFTAB2
 70
6
  9
$SURFTYPE
 70
6
  9
$SURFU
 70
6
  9
$SURFV
 70
6
  9
$UCSBASE
  2

  9
$UCSNAME
  2

  9
$UCSORG
 10
0.0
 20
0.0
 30
0.0
  9
$UCSXDIR
 10
1.0
 20
0.0
 30
0.0
  9
$UCSYDIR
 10
0.0
 20
1.0
 30
0.0
  9
$UCSORTHOREF
  2

  9
$UCSORTHOVIEW
 70
0
  9
$UCSORGTOP
 10
0.0
 20
0.0
 30
0.0
  9
$UCSORGBOTTOM
 10
0.0
 20
0.0
 30
0.0
  9
$UCSORGLEFT
 10
0.0
 20
0.0
 30
0.0
  9
$UCSORGRIGHT
 10
0.0
 20
0.0
 30
0.0
  9
$UCSORGFRONT
 10
0.0
 20
0.0
 30
0.0
  9
$UCSORGBACK
 10
0.0
 20
0.0
 30
0.0
  9
$PUCSBASE
  2

  9
$PUCSNAME
  2

  9
$PUCSORG
 10
0.0
 20
0.0
 30
0.0
  9
$PUCSXDIR
 10
1.0
 20
0.0
 30
0.0
  9
$PUCSYDIR
 10
0.0
 20
1.0
 30
0.0
  9
$PUCSORTHOREF
  2

  9
$PUCSORTHOVIEW
 70
0
  9
$PUCSORGTOP
 10
0.0
 20
0.0
 30
0.0
  9
$PUCSORGBOTTOM
 10
0.0
 20
0.0
 30
0.0
  9
$PUCSORGLEFT
 10
0.0
 20
0.0
 30
0.0
  9
$PUCSORGRIGHT
 10
0.0
 20
0.0
 30
0.0
  9
$PUCSORGFRONT
 10
0.0
 20
0.0
 30
0.0
  9
$PUCSORGBACK
 10
0.0
 20
0.0
 30
0.0
  9
$USERI1
 70
0
  9
$USERI2
 70
0
  9
$USERI3
 70
0
  9
$USERI4
 70
0
  9
$USERI5
 70
0
  9
$USERR1
 40
0.0
  9
$USERR2
 40
0.0
  9
$USERR3
 40
0.0
  9
$USERR4
 40
0.0
  9
$USERR5
 40
0.0
  9
$WORLDVIEW
 70
1
  9
$SHADEDGE
 70
3
  9
$SHADEDIF
 70
70
  9
$TILEMODE
 70
1
  9
$MAXACTVP
 70
64
  9
$PINSBASE
 10
0.0
 20
0.0
 30
0.0
  9
$PLIMCHECK
 70
0
  9
$PEXTMIN
 10
1e+20
 20
1e+20
 30
1e+20
  9
$PEXTMAX
 10
-1e+20
 20
-1e+20
 30
-1e+20
  9
$PLIMMIN
 10
0.0
 20
0.0
  9
$PLIMMAX
 10
420.0
 20
297.0
  9
$UNITMODE
 70
0
  9
$VISRETAIN
 70
1
  9
$PLINEGEN
 70
0
  9
$PSLTSCALE
 70
1
  9
$TREEDEPTH
 70
3020
  9
$CMLSTYLE
  2
Standard
  9
$CMLJUST
 70
0
  9
$CMLSCALE
 40
20.0
  9
$PROXYGRAPHICS
 70
1
  9
$MEASUREMENT
 70
1
  9
$CELWEIGHT
370
-1
  9
$ENDCAPS
280
0
  9
$JOINSTYLE
280
0
  9
$LWDISPLAY
290
0
  9
$INSUNITS
 70
4
  9
$HYPERLINKBASE
  1

  9
$STYLESHEET
  1

  9
$XEDIT
290
1
  9
$CEPSNTYPE
380
0
  9
$PSTYLEMODE
290
1
  9
$FINGERPRINTGUID
  2
{F8C833DE-997E-4A48-8B57-AA5D35088229}
  9
$VERSIONGUID
  2
{7C741F16-B8CA-40A1-AA94-AF764A22831F}
  9
$EXTNAMES
290
1
  9
$PSVPSCALE
 40
0.0
  9
$OLESTARTUP
290
0
  9
$SORTENTS
280
127
  9
$INDEXCTL
280
0
  9
$HIDETEXT
280
1
  9
$XCLIPFRAME
280
1
  9
$HALOGAP
280
0
  9
$OBSCOLOR
 70
257
  9
$OBSLTYPE
280
0
  9
$INTERSECTIONDISPLAY
280
0
  9
$INTERSECTIONCOLOR
 70
257
  9
$DIMASSOC
280
2
  9
$PROJECTNAME
  1

  9
$CAMERADISPLAY
290
0
  9
$LENSLENGTH
 40
50.0
  9
$CAMERAHEIGHT
 40
0.0
  9
$STEPSPERSEC
 40
24.0
  9
$STEPSIZE
 40
100.0
  9
$3DDWFPREC
 40
2.0
  9
$PSOLWIDTH
 40
0.005
  9
$PSOLHEIGHT
 40
0.08
  9
$LOFTANG1
 40
1.570796326795
  9
$LOFTANG2
 40
1.570796326795
  9
$LOFTMAG1
 40
0.0
  9
$LOFTMAG2
 40
0.0
  9
$LOFTPARAM
 70
7
  9
$LOFTNORMALS
280
1
  9
$LATITUDE
 40
37.795
  9
$LONGITUDE
 40
-122.394
  9
$NORTHDIRECTION
 40
0.0
  9
$TIMEZONE
 70
-8000
  9
$LIGHTGLYPHDISPLAY
280
1
  9
$TILEMODELIGHTSYNCH
280
1
  9
$CMATERIAL
347
20
  9
$SOLIDHIST
280
0
  9
$SHOWHIST
280
1
  9
$DWFFRAME
280
2
  9
$DGNFRAME
280
2
  9
$REALWORLDSCALE
290
1
  9
$INTERFERECOLOR
 62
256
  9
$CSHADOW
280
0
  9
$SHADOWPLANELOCATION
 40
0.0
  0
ENDSEC
  0
SECTION
  2
CLASSES
  0
CLASS
  1
ACDBDICTIONARYWDFLT
  2
AcDbDictionaryWithDefault
  3
ObjectDBX Classes
 90
0
 91
0
280
0
281
0
  0
CLASS
  1
SUN
  2
AcDbSun
  3
SCENEOE
 90
1153
 91
0
280
0
281
0
  0
CLASS
  1
VISUALSTYLE
  2
AcDbVisualStyle
  3
ObjectDBX Classes
 90
4095
 91
0
280
0
281
0
  0
CLASS
  1
MATERIAL
  2
AcDbMaterial
  3
ObjectDBX Classes
 90
1153
 91
0
280
0
281
0
  0
CLASS
  1
SCALE
  2
AcDbScale
  3
ObjectDBX Classes
 90
1153
 91
0
280
0
281
0
  0
CLASS
  1
TABLESTYLE
  2
AcDbTableStyle
  3
ObjectDBX Classes
 90
4095
 91
0
280
0
281
0
  0
CLASS
  1
MLEADERSTYLE
  2
AcDbMLeaderStyle
  3
ACDB_MLEADERSTYLE_CLASS
 90
4095
 91
0
280
0
281
0
  0
CLASS
  1
DICTIONARYVAR
  2
AcDbDictionaryVar
  3
ObjectDBX Classes
 90
0
 91
0
280
0
281
0
  0
CLASS
  1
CELLSTYLEMAP
  2
AcDbCellStyleMap
  3
ObjectDBX Classes
 90
1152
 91
0
280
0
281
0
  0
CLASS
  1
MENTALRAYRENDERSETTINGS
  2
AcDbMentalRayRenderSettings
  3
SCENEOE
 90
1024
 91
0
280
0
281
0
  0
CLASS
  1
ACDBDETAILVIEWSTYLE
  2
AcDbDetailViewStyle
  3
ObjectDBX Classes
 90
1025
 91
0
280
0
281
0
  0
CLASS
  1
ACDBSECTIONVIEWSTYLE
  2
AcDbSectionViewStyle
  3
ObjectDBX Classes
 90
1025
 91
0
280
0
281
0
  0
CLASS
  1
RASTERVARIABLES
  2
AcDbRasterVariables
  3
ISM
 90
0
 91
0
280
0
281
0
  0
CLASS
  1
ACDBPLACEHOLDER
  2
AcDbPlaceHolder
  3
ObjectDBX Classes
 90
0
 91
0
280
0
281
0
  0
CLASS
  1
LAYOUT
  2
AcDbLayout
  3
ObjectDBX Classes
 90
0
 91
0
280
0
281
0
  0
ENDSEC
  0
SECTION
  2
TABLES
  0
TABLE
  2
VPORT
  5
8
330
0
100
AcDbSymbolTable
 70
1
  0
VPORT
  5
6E
330
8
100
AcDbSymbolTableRecord
100
AcDbViewportTableRecord
  2
*Active
 70
0
 10
0.0
 20
0.0
 11
1.0
 21
1.0
 12
275.33010005205006
 22
47.82222456850804
 13
0.0
 23
0.0
 14
0.5
 24
0.5
 15
0.5
 25
0.5
 16
0.0
 26
0.0
 36
1.0
 17
0.0
 27
0.0
 37
0.0
 40
275.33009995205
 41
1.34
 42
50.0
 43
0.0
 44
0.0
 50
0.0
 51
0.0
 71
0
 72
1000
 73
1
 74
3
 75
0
 76
0
 77
0
 78
0
281
0
 65
1
110
0.0
120
0.0
130
0.0
111
1.0
121
0.0
131
0.0
112
0.0
122
1.0
132
0.0
 79
0
146
0.0
  0
ENDTAB
  0
TABLE
  2
LTYPE
  5
2
330
0
100
AcDbSymbolTable
 70
3
  0
LTYPE
  5
24
330
2
100
AcDbSymbolTableRecord
100
AcDbLinetypeTableRecord
  2
ByBlock
 70
0
  3

 72
65
 73
0
 40
0.0
  0
LTYPE
  5
25
330
2
100
AcDbSymbolTableRecord
100
AcDbLinetypeTableRecord
  2
ByLayer
 70
0
  3

 72
65
 73
0
 40
0.0
  0
LTYPE
  5
26
330
2
100
AcDbSymbolTableRecord
100
AcDbLinetypeTableRecord
  2
Continuous
 70
0
  3

 72
65
 73
0
 40
0.0
  0
ENDTAB
  0
TABLE
  2
LAYER
  5
1
330
0
100
AcDbSymbolTable
 70
4
  0
LAYER
  5
27
330
1
100
AcDbSymbolTableRecord
100
AcDbLayerTableRecord
  2
0
 70
0
 62
7
  6
Continuous
370
-3
390
13
347
21
  0
LAYER
  5
28
330
1
100
AcDbSymbolTableRecord
100
AcDbLayerTableRecord
  2
Defpoints
 70
0
 62
7
  6
Continuous
290
0
370
-3
390
13
347
21
  0
LAYER
  5
72
330
1
100
AcDbSymbolTableRecord
100
AcDbLayerTableRecord
  2
CUT
 70
0
 62
1
  6
Continuous
370
-3
390
13
347
21
  0
LAYER
  5
73
330
1
100
AcDbSymbolTableRecord
100
AcDbLayerTableRecord
  2
LABELS_NONCUT
 70
0
 62
7
  6
Continuous
370
-3
390
13
347
21
  0
ENDTAB
  0
TABLE
  2
STYLE
  5
5
330
0
100
AcDbSymbolTable
 70
1
  0
STYLE
  5
29
330
5
100
AcDbSymbolTableRecord
100
AcDbTextStyleTableRecord
  2
Standard
 70
0
 40
0.0
 41
1.0
 50
0.0
 71
0
 42
2.5
  3
txt
  4

  0
ENDTAB
  0
TABLE
  2
VIEW
  5
7
330
0
100
AcDbSymbolTable
 70
0
  0
ENDTAB
  0
TABLE
  2
UCS
  5
6
330
0
100
AcDbSymbolTable
 70
0
  0
ENDTAB
  0
TABLE
  2
APPID
  5
3
330
0
100
AcDbSymbolTable
 70
3
  0
APPID
  5
2A
330
3
100
AcDbSymbolTableRecord
100
AcDbRegAppTableRecord
  2
ACAD
 70
0
  0
APPID
  5
6F
330
3
100
AcDbSymbolTableRecord
100
AcDbRegAppTableRecord
  2
HATCHBACKGROUNDCOLOR
 70
0
  0
APPID
  5
70
330
3
100
AcDbSymbolTableRecord
100
AcDbRegAppTableRecord
  2
EZDXF
 70
0
  0
ENDTAB
  0
TABLE
  2
DIMSTYLE
  5
4
330
0
100
AcDbSymbolTable
 70
1
100
AcDbDimStyleTable
  0
DIMSTYLE
105
2B
330
4
100
AcDbSymbolTableRecord
100
AcDbDimStyleTableRecord
  2
Standard
 70
0
 40
1.0
 41
2.5
 42
0.625
 43
3.75
 44
1.25
 45
0.0
 46
0.0
 47
0.0
 48
0.0
 49
2.5
140
2.5
141
2.5
142
0.0
143
0.03937007874
144
1.0
145
0.0
146
1.0
147
0.625
148
0.0
 69
0
 70
0
 71
0
 72
0
 73
0
 74
0
 75
0
 76
0
 77
1
 78
8
 79
3
170
0
171
3
172
1
173
0
174
0
175
0
176
0
177
0
178
0
179
2
271
2
272
2
273
2
274
3
275
0
276
0
277
2
278
44
279
0
280
0
281
0
282
0
283
0
284
8
285
0
286
0
288
0
289
3
290
0
371
-2
372
-2
  0
ENDTAB
  0
TABLE
  2
BLOCK_RECORD
  5
9
330
0
100
AcDbSymbolTable
 70
2
  0
BLOCK_RECORD
  5
17
330
9
100
AcDbSymbolTableRecord
100
AcDbBlockTableRecord
  2
*Model_Space
340
1A
 70
0
280
1
281
0
  0
BLOCK_RECORD
  5
1B
330
9
100
AcDbSymbolTableRecord
100
AcDbBlockTableRecord
  2
*Paper_Space
340
1E
 70
0
280
1
281
0
  0
ENDTAB
  0
ENDSEC
  0
SECTION
  2
BLOCKS
  0
BLOCK
  5
18
330
17
100
AcDbEntity
  8
0
100
AcDbBlockBegin
  2
*Model_Space
 70
0
 10
0.0
 20
0.0
 30
0.0
  3
*Model_Space
  1

  0
ENDBLK
  5
19
330
17
100
AcDbEntity
  8
0
100
AcDbBlockEnd
  0
BLOCK
  5
1C
330
1B
100
AcDbEntity
  8
0
100
AcDbBlockBegin
  2
*Paper_Space
 70
0
 10
0.0
 20
0.0
 30
0.0
  3
*Paper_Space
  1

  0
ENDBLK
  5
1D
330
1B
100
AcDbEntity
  8
0
100
AcDbBlockEnd
  0
ENDSEC
  0
SECTION
  2
ENTITIES
  0
SPLINE
  5
2F
330
17
100
AcDbEntity
  8
CUT
100
AcDbSpline
 70
0
 71
3
 72
107
 73
103
 74
0
 40
0.0
 40
0.0
 40
0.0
 40
0.0
 40
0.39734714377148667
 40
0.39734714377148667
 40
0.39734714377148667
 40
0.4470155367428641
 40
0.4470155367428641
 40
0.4470155367428641
 40
0.4687454586679585
 40
0.4687454586679585
 40
0.4687454586679585
 40
0.4783986120574134
 40
0.4783986120574134
 40
0.4783986120574134
 40
0.5065029672302447
 40
0.5065029672302447
 40
0.5065029672302447
 40
0.6505986273865622
 40
0.6505986273865622
 40
0.6505986273865622
 40
0.7226464574646743
 40
0.7226464574646743
 40
0.7226464574646743
 40
0.7586703725037537
 40
0.7586703725037537
 40
0.7586703725037537
 40
0.7766823300232699
 40
0.7766823300232699
 40
0.7766823300232699
 40
0.7856883087830516
 40
0.7856883087830516
 40
0.7856883087830516
 40
0.7901912981629657
 40
0.7901912981629657
 40
0.7901912981629657
 40
0.7924427928528993
 40
0.7924427928528993
 40
0.7924427928528993
 40
0.7935685401978428
 40
0.7935685401978428
 40
0.7935685401978428
 40
0.7941314138703379
 40
0.7941314138703379
 40
0.7941314138703379
 40
0.7944876839696778
 40
0.7944876839696778
 40
0.7944876839696778
 40
0.7946339743762518
 40
0.7946339743762518
 40
0.7946339743762518
 40
0.794694287542833
 40
0.794694287542833
 40
0.794694287542833
 40
0.7970267959036951
 40
0.7970267959036951
 40
0.7970267959036951
 40
0.7993546089832514
 40
0.7993546089832514
 40
0.7993546089832514
 40
0.8016888159233337
 40
0.8016888159233337
 40
0.8016888159233337
 40
0.804032924634783
 40
0.804032924634783
 40
0.804032924634783
 40
0.8064024030625638
 40
0.8064024030625638
 40
0.8064024030625638
 40
0.8075757997601051
 40
0.8075757997601051
 40
0.8075757997601051
 40
0.8206519614598821
 40
0.8206519614598821
 40
0.8206519614598821
 40
0.8468042848594362
 40
0.8468042848594362
 40
0.8468042848594362
 40
0.8729566082589901
 40
0.8729566082589901
 40
0.8729566082589901
 40
0.8991089316585442
 40
0.8991089316585442
 40
0.8991089316585442
 40
0.9252612550580982
 40
0.9252612550580982
 40
0.9252612550580982
 40
0.9383374167578752
 40
0.9383374167578752
 40
0.9383374167578752
 40
0.9514135784576521
 40
0.9514135784576521
 40
0.9514135784576521
 40
0.9644897401574292
 40
0.9644897401574292
 40
0.9644897401574292
 40
0.9775659018572063
 40
0.9775659018572063
 40
0.9775659018572063
 40
0.9906420635569831
 40
0.9906420635569831
 40
0.9906420635569831
 40
1.0
 40
1.0
 40
1.0
 40
1.0
 10
475.60454189212203
 20
95.64444903701603
 30
1.0001213073995471e-07
 10
413.55041245431005
 20
95.64444903701603
 30
1.0001113331555471e-07
 10
350.71973515121005
 20
95.64444903701603
 30
1.000111359800547e-07
 10
287.54343913240007
 20
95.64444903701603
 30
1.000111386446547e-07
 10
279.64640213000007
 20
95.64444903701603
 30
1.0001213962175473e-07
 10
271.74396483530006
 20
95.64444903701603
 30
1.0001113953285471e-07
 10
263.83696890650003
 20
95.64444903701603
 30
1.0001113953285473e-07
 10
260.37765818770004
 20
95.64444903701603
 30
1.000121405098547e-07
 10
256.91747491790005
 20
95.64444903701603
 30
1.0001214050985471e-07
 10
253.45648957770004
 20
95.64444903701603
 30
1.000111404209547e-07
 10
251.91900488340005
 20
95.64444903701603
 30
1.000111404209547e-07
 10
250.38135938580004
 20
95.64444903701603
 30
1.0001114042095471e-07
 10
248.84356737220006
 20
95.64444903701603
 30
1.000121405098547e-07
 10
244.36641351510005
 20
95.64444903701603
 30
1.000121405098547e-07
 10
239.88807193590006
 20
95.64444903701603
 30
1.0001214050985471e-07
 10
235.40878263830004
 20
95.64444903701603
 30
1.0001214139805471e-07
 10
212.44272828850004
 20
95.64444903701603
 30
1.0001114219735471e-07
 10
189.45180447170006
 20
95.64444903701603
 30
1.0001214317445472e-07
 10
166.46907522660004
 20
95.64444903701603
 30
1.0001214406265472e-07
 10
154.97771060410005
 20
95.64444903700604
 30
1.0001214406265471e-07
 10
143.48839446010007
 20
95.64444903700604
 30
1.000121449507547e-07
 10
132.00525075930003
 20
95.64444903700604
 30
1.000121449507547e-07
 10
126.26367890890006
 20
95.64444903701603
 30
1.0001214583895471e-07
 10
120.52365000980004
 20
95.64444903700604
 30
1.0001214583895471e-07
 10
114.78567835020007
 20
95.64444903700604
 30
1.0001214583895471e-07
 10
111.91669252040006
 20
95.64444903700604
 30
1.0001214583895471e-07
 10
109.04822098590003
 20
95.64444903701603
 30
1.0001214672715471e-07
 10
106.18032793720002
 20
95.64444903700604
 30
1.0001214672715471e-07
 10
104.74638141290004
 20
95.64444903700604
 30
1.0001214672715471e-07
 10
103.31257950900007
 20
95.64444903700604
 30
1.0001214672715471e-07
 10
101.87893024260003
 20
95.64444903700604
 30
1.0001214672715471e-07
 10
101.16210560950006
 20
95.64444903701603
 30
1.0001214672715471e-07
 10
100.44531913570003
 20
95.64444903700604
 30
1.0001214672715473e-07
 10
99.72857182290002
 20
95.64444903701603
 30
1.0001214672715471e-07
 10
99.37019816650005
 20
95.64444903700604
 30
1.0001214672715471e-07
 10
99.01183430040007
 20
95.64444903700604
 30
1.0001214672715473e-07
 10
98.65348034970006
 20
95.64444903701603
 30
1.0001214672715471e-07
 10
98.47430337440002
 20
95.64444903700604
 30
1.0001214672715471e-07
 10
98.29512887790005
 20
95.64444903700604
 30
1.0001214672715473e-07
 10
98.11595687590003
 20
95.64444903700604
 30
1.0001214672715471e-07
 10
98.02637087490004
 20
95.64444903700604
 30
1.0001214672715473e-07
 10
97.93678549760003
 20
95.64444903700604
 30
1.0001214672715471e-07
 10
97.84720074580005
 20
95.64444903701603
 30
1.0001214672715473e-07
 10
97.79049820320003
 20
95.64444903701603
 30
1.0001214672715471e-07
 10
97.73379591120002
 20
95.64444903700604
 30
1.0001214672715471e-07
 10
97.67709387030007
 20
95.64444903700604
 30
1.0001214672715473e-07
 10
97.65381107270005
 20
95.64444903700604
 30
1.0001214672715473e-07
 10
97.63051953740003
 20
95.64444903700604
 30
1.0001214672715473e-07
 10
97.60721384570004
 20
95.64444903700604
 30
1.0001214672715471e-07
 10
97.59760528630002
 20
95.64444903700604
 30
1.0001214672715471e-07
 10
97.58799462900006
 20
95.64444903701603
 30
1.0001214672715471e-07
 10
97.57838189320003
 20
95.64444903701603
 30
1.0001214672715471e-07
 10
97.22390468910007
 20
95.64444903700604
 30
1.0001314681605471e-07
 10
96.86534577210003
 20
95.64260748925604
 30
1.0001214672715473e-07
 10
96.50374673410002
 20
95.63886141609605
 30
1.0001214672715471e-07
 10
96.14287558590004
 20
95.63512288367603
 30
1.0001314681605471e-07
 10
95.77897656010006
 20
95.62948745165603
 30
1.0001214672715471e-07
 10
95.41311210980004
 20
95.62193683324604
 30
1.0001214672715471e-07
 10
95.04624273070007
 20
95.61436547536603
 30
1.0001214672715473e-07
 10
94.67739713930004
 20
95.60486837160603
 30
1.0001314681605471e-07
 10
94.30767360980005
 20
95.59347217227604
 30
1.0001214672715471e-07
 10
93.93638170280005
 20
95.58202762994604
 30
1.0001214672715471e-07
 10
93.56420443880003
 20
95.56866785564604
 30
1.0001114663825471e-07
 10
93.19228084930003
 20
95.55346537526604
 30
1.0001214672715471e-07
 10
92.81633202150007
 20
95.53809836216604
 30
1.0001214672715471e-07
 10
92.44064243460005
 20
95.52084854814605
 30
1.0001214672715471e-07
 10
92.06641510160003
 20
95.50183721603604
 30
1.0001114663825473e-07
 10
91.88109283340006
 20
95.49242255580604
 30
1.0001214672715473e-07
 10
91.69612956640006
 20
95.48257661899605
 30
1.0001314681605471e-07
 10
91.51167370700003
 20
95.47231824176605
 30
1.0001114663825471e-07
 10
89.45612450590002
 20
95.35800038167604
 30
1.0001314681605471e-07
 10
87.36806731370004
 20
95.18717843686603
 30
1.0001214583895471e-07
 10
85.24999148970002
 20
94.96129929565605
 30
1.0001214583895472e-07
 10
81.01383984180003
 20
94.50954101324604
 30
1.000121449507547e-07
 10
76.66653925130007
 20
93.83850379226604
 30
1.0001214406265471e-07
 10
72.22760625410004
 20
92.93921771412603
 30
1.0001214228625473e-07
 10
67.78867325690007
 20
92.03993163598604
 30
1.0001213962175473e-07
 10
63.264593205100056
 20
90.91373323123604
 30
1.0001213784535471e-07
 10
58.68741385780007
 20
89.53756562233603
 30
1.0001113509195473e-07
 10
54.11023451040003
 20
88.16139801343604
 30
1.000121316281547e-07
 10
49.48692346750002
 20
86.53732832949605
 30
1.0001112887465471e-07
 10
44.87121588350007
 20
84.62905580310604
 30
1.0001112443375473e-07
 10
40.255508299500065
 20
82.72078327670603
 30
1.000121200817547e-07
 10
35.65645239700004
 20
80.53189839670604
 30
1.000121156408547e-07
 10
31.16757804040006
 20
78.01516884119604
 30
1.0001211031185471e-07
 10
28.92314086210004
 20
76.75680406344604
 30
1.0001210764725472e-07
 10
26.708809404200025
 20
75.41793328421603
 30
1.000121049827547e-07
 10
24.543061417100063
 20
73.99205081218604
 30
1.0001310151895473e-07
 10
22.377313430000044
 20
72.56616834016604
 30
1.0001309885445471e-07
 10
20.26086937460005
 20
71.05373464730604
 30
1.000130953016547e-07
 10
18.214824084300034
 20
69.44919727896604
 30
1.0001209166005472e-07
 10
16.168778794100064
 20
67.84465991063604
 30
1.0001208810735471e-07
 10
14.19526032530004
 20
66.14963090078604
 30
1.000120845546547e-07
 10
12.32266763420003
 20
64.36082050836605
 30
1.0001208100195471e-07
 10
10.45007494310002
 20
62.57201011594604
 30
1.0001107647215471e-07
 10
8.678983452100027
 20
60.68990562066604
 30
1.000120730083547e-07
 10
7.0430178273000195
 20
58.71708544680604
 30
1.000120685674547e-07
 10
5.4070522025000685
 20
56.74426527294504
 30
1.0001106403765472e-07
 10
3.905924584100063
 20
54.68027467131704
 30
1.000120596856547e-07
 10
2.5779735174000677
 20
52.53845313406904
 30
1.0001205524475472e-07
 10
1.6276272332000588
 20
51.00566161022104
 30
1.0001105160315471e-07
 10
0.764008818800022
 20
49.42995576520404
 30
1.000110480504547e-07
 10
1.0000005090660125e-07
 20
47.82222456850808
 30
1.0001204458665472e-07
  0
SPLINE
  5
30
330
17
100
AcDbEntity
  8
CUT
100
AcDbSpline
 70
0
 71
3
 72
101
 73
97
 74
0
 40
0.0
 40
0.0
 40
0.0
 40
0.0
 40
0.009357996999763123
 40
0.009357996999763123
 40
0.009357996999763123
 40
0.022434243317399485
 40
0.022434243317399485
 40
0.022434243317399485
 40
0.03551048963521809
 40
0.03551048963521809
 40
0.03551048963521809
 40
0.048586735952854454
 40
0.048586735952854454
 40
0.048586735952854454
 40
0.06166298227067293
 40
0.06166298227067293
 40
0.06166298227067293
 40
0.0747392285883093
 40
0.0747392285883093
 40
0.0747392285883093
 40
0.10089172122394638
 40
0.10089172122394638
 40
0.10089172122394638
 40
0.1270442138594012
 40
0.1270442138594012
 40
0.1270442138594012
 40
0.15319670649485606
 40
0.15319670649485606
 40
0.15319670649485606
 40
0.17934919913031103
 40
0.17934919913031103
 40
0.17934919913031103
 40
0.19242544544794737
 40
0.19242544544794737
 40
0.19242544544794737
 40
0.19521931466433148
 40
0.19521931466433148
 40
0.19521931466433148
 40
0.19798327480312747
 40
0.19798327480312747
 40
0.19798327480312747
 40
0.20072588722484652
 40
0.20072588722484652
 40
0.20072588722484652
 40
0.2034284568036172
 40
0.2034284568036172
 40
0.2034284568036172
 40
0.2053045521836466
 40
0.2053045521836466
 40
0.2053045521836466
 40
0.20547240900282443
 40
0.20547240900282443
 40
0.20547240900282443
 40
0.2055896661377466
 40
0.2055896661377466
 40
0.2055896661377466
 40
0.24317263633984504
 40
0.24317263633984504
 40
0.24317263633984504
 40
0.28299162990947263
 40
0.28299162990947263
 40
0.28299162990947263
 40
0.3258934195123053
 40
0.3258934195123053
 40
0.3258934195123053
 40
0.3743480564384791
 40
0.3743480564384791
 40
0.3743480564384791
 40
0.4459474189760478
 40
0.4459474189760478
 40
0.4459474189760478
 40
0.5006353794680705
 40
0.5006353794680705
 40
0.5006353794680705
 40
0.5464833604249908
 40
0.5464833604249908
 40
0.5464833604249908
 40
0.588366640020545
 40
0.588366640020545
 40
0.588366640020545
 40
0.6276736273013133
 40
0.6276736273013133
 40
0.6276736273013133
 40
0.6393088264480562
 40
0.6393088264480562
 40
0.6393088264480562
 40
0.6449446260348934
 40
0.6449446260348934
 40
0.6449446260348934
 40
0.6458971205685404
 40
0.6458971205685404
 40
0.6458971205685404
 40
0.6590828108098825
 40
0.6590828108098825
 40
0.6590828108098825
 40
1.0
 40
1.0
 40
1.0
 40
1.0
 10
1.0000005090660125e-07
 20
47.822224568507075
 30
1.0001204458665472e-07
 10
0.764008818800022
 20
46.21449337181204
 30
1.000130411228547e-07
 10
1.6276272332000588
 20
44.63878752679404
 30
1.0001503774785471e-07
 10
2.5779735174000677
 20
43.10599600294704
 30
1.0001503419515473e-07
 10
3.905924584100063
 20
40.96417446569904
 30
1.0001502975425473e-07
 10
5.4070522025000685
 20
38.90018386407004
 30
1.0001202415855472e-07
 10
7.0430178273000195
 20
36.927363690209035
 30
1.0001201971765472e-07
 10
8.678983452100027
 20
34.95454351634904
 30
1.0001301536565473e-07
 10
10.45007494310002
 20
33.07243902106204
 30
1.0001201083585471e-07
 10
12.32266763420003
 20
31.28362862864404
 30
1.000120072831547e-07
 10
14.19526032530004
 20
29.49481823622504
 30
1.000130029311547e-07
 10
16.168778794100064
 20
27.79978922637604
 30
1.0001199928955471e-07
 10
18.214824084300034
 20
26.195251858042038
 30
1.0001299582575472e-07
 10
20.26086937460005
 20
24.590714489708038
 30
1.0001299227295471e-07
 10
22.377313430000044
 20
23.078280796850038
 30
1.0001198863135473e-07
 10
24.543061417100063
 20
21.652398324820037
 30
1.000129851675547e-07
 10
26.708809404200025
 20
20.22651585279104
 30
1.000129825030547e-07
 10
28.92314086210004
 20
18.887645073566038
 30
1.0001197886145472e-07
 10
31.16757804040006
 20
17.62928029581104
 30
1.0001197619685471e-07
 10
35.65645239700004
 20
15.112550740301039
 30
1.0001297006855471e-07
 10
40.255508299500065
 20
12.92366586030704
 30
1.0001296562765473e-07
 10
44.87121588350007
 20
11.01539333391004
 30
1.0001196109785471e-07
 10
49.48692346750002
 20
9.107120807513041
 30
1.0001195665695471e-07
 10
54.11023451040003
 20
7.483051123572039
 30
1.0001195221605473e-07
 10
58.68741385780007
 20
6.106883514674038
 30
1.0001194955155471e-07
 10
63.264593205100056
 20
4.730715905775035
 30
1.000129460877547e-07
 10
67.78867325690007
 20
3.604517501029036
 30
1.0001194333425473e-07
 10
72.22760625410004
 20
2.70523142288804
 30
1.000129416468547e-07
 10
76.66653925130007
 20
1.805945344747037
 30
1.0001193889335471e-07
 10
81.01383984180003
 20
1.1349081237690366
 30
1.000119371170547e-07
 10
85.24999148970002
 20
0.6831498413550388
 30
1.0001193622885473e-07
 10
87.36806731370004
 20
0.45727070014903815
 30
1.000129354295547e-07
 10
89.45612450590002
 20
0.2864487553310364
 30
1.0001193534065472e-07
 10
91.51167370700003
 20
0.17213089524503955
 30
1.0001193445245471e-07
 10
91.95086210220003
 20
0.147705755001041
 30
1.0001193445245471e-07
 10
92.38856847890005
 20
0.12585635678004037
 30
1.0001293454135471e-07
 10
92.82570548160007
 20
0.10656507201203835
 30
1.0001293454135471e-07
 10
93.25816282200006
 20
0.08748030533303774
 30
1.0001293454135471e-07
 10
93.69006295090006
 20
0.0708991868440374
 30
1.0001293454135471e-07
 10
94.12226367530005
 20
0.056848387825041424
 30
1.0001293454135471e-07
 10
94.55112625500007
 20
0.04290611153003665
 30
1.0001193445245471e-07
 10
94.98028487050007
 20
0.03145518093603483
 30
1.0001293454135471e-07
 10
95.41055124180005
 20
0.022565184870039
 30
1.0001193445245471e-07
 10
95.83453561390004
 20
0.01380498502003702
 30
1.0001193445245471e-07
 10
96.25959567940006
 20
0.007531471885037444
 30
1.0001193445245471e-07
 10
96.68648162260004
 20
0.0038539711540361843
 30
1.0001193445245471e-07
 10
96.98282135500003
 20
0.0013010888220388317
 30
1.0001193445245471e-07
 10
97.28004043270002
 20
1.0000003625165732e-07
 30
1.0001193445245471e-07
 10
97.57838189320003
 20
1.0000003625165732e-07
 30
1.0001293454135471e-07
 10
97.60637605450003
 20
1.0000003625165732e-07
 30
1.0001293454135471e-07
 10
97.63438626640007
 20
1.0000003625165732e-07
 30
1.0001193445245471e-07
 10
97.66241273770007
 20
1.0000003625165732e-07
 30
1.0001193445245471e-07
 10
97.68199075510003
 20
1.0000003625165732e-07
 30
1.0001293454135471e-07
 10
97.70157513310002
 20
1.0000003625165732e-07
 30
1.0001293454135471e-07
 10
97.72115642260005
 20
1.0000003625165732e-07
 30
1.0001193445245471e-07
 10
103.99730343970006
 20
1.0000003625165732e-07
 30
1.0001293365325471e-07
 10
110.22585222260003
 20
1.0000003625165732e-07
 30
1.0001393374215471e-07
 10
116.41260509110006
 20
1.0000003625165732e-07
 30
1.0001393374215471e-07
 10
122.96744286370003
 20
1.0000003625165732e-07
 30
1.000149329428547e-07
 10
129.47536378920003
 20
1.0000003625165732e-07
 30
1.000149329428547e-07
 10
135.94332756210005
 20
1.0000003625165732e-07
 30
1.000149329428547e-07
 10
142.91204264160004
 20
1.0000003625165732e-07
 30
1.0001593303175472e-07
 10
149.83437456910005
 20
1.0000003625165732e-07
 30
1.0001493205465473e-07
 10
156.71908779890006
 20
1.0000003625165732e-07
 30
1.0001593214355473e-07
 10
164.49490048600003
 20
1.0000003625165732e-07
 30
1.000159312553547e-07
 10
172.22272685180005
 20
1.0000003625165732e-07
 30
1.000159312553547e-07
 10
179.91525910190003
 20
1.0000003625165732e-07
 30
1.000159312553547e-07
 10
191.28218784910004
 20
1.0000003625165732e-07
 30
1.000149302783547e-07
 10
202.57205490060005
 20
1.0000003625165732e-07
 30
1.000149302783547e-07
 10
213.82593919790006
 20
1.0000003625165732e-07
 30
1.0001492939015471e-07
 10
222.42171376940004
 20
1.0000003625165732e-07
 30
1.0001392930125471e-07
 10
230.99650125830004
 20
1.0000003625165732e-07
 30
1.000139284130547e-07
 10
239.56859392610005
 20
1.0000003625165732e-07
 30
1.0001392841305472e-07
 10
246.75505942700005
 20
1.0000003625165732e-07
 30
1.000139284130547e-07
 10
253.93963174160004
 20
1.0000003625165732e-07
 30
1.0001292743595471e-07
 10
261.13305122540004
 20
1.0000003625165732e-07
 30
1.0001292743595473e-07
 10
267.70442019740005
 20
1.0000003625165732e-07
 30
1.0001292743595473e-07
 10
274.283172872
 20
1.0000003625165732e-07
 30
1.0001192645885471e-07
 10
280.87745413360005
 20
1.0000003625165732e-07
 30
1.0001192645885471e-07
 10
287.06611300120005
 20
1.0000003625165732e-07
 30
1.0001192645885471e-07
 10
293.26844919880006
 20
1.0000003625165732e-07
 30
1.000119255707547e-07
 10
299.49114952190007
 20
1.0000003625165732e-07
 30
1.000129256596547e-07
 10
301.3331212043
 20
1.0000003625165732e-07
 30
1.000129256596547e-07
 10
303.1768768726
 20
1.0000003625165732e-07
 30
1.000129256596547e-07
 10
305.022589056
 20
1.0000003625165732e-07
 30
1.000129256596547e-07
 10
305.91660589490004
 20
1.0000003625165732e-07
 30
1.0001192557075472e-07
 10
306.81108176300006
 20
1.0000003625165732e-07
 30
1.000129256596547e-07
 10
307.70603622870004
 20
1.0000003625165732e-07
 30
1.000119255707547e-07
 10
307.85729058460004
 20
1.0000003625165732e-07
 30
1.0001192557075472e-07
 10
308.00856089060005
 20
1.0000003625165732e-07
 30
1.0001192557075472e-07
 10
308.1598239341
 20
1.0000003625165732e-07
 30
1.0001192557075472e-07
 10
310.25380722330004
 20
1.0000003625165732e-07
 30
1.0001192557075472e-07
 10
312.34734824200007
 20
1.0000003625165732e-07
 30
1.0001192557075472e-07
 10
314.4404280617
 20
1.0000003625165732e-07
 30
1.000119255707547e-07
 10
368.55719220615003
 20
1.0000003625165732e-07
 30
1.0001192290615473e-07
 10
422.36644502164006
 20
1.0000003625165732e-07
 30
1.0001192024165471e-07
 10
475.604541892121
 20
1.0000003625165732e-07
 30
1.0001191846525471e-07
  0
LINE
  5
31
330
17
100
AcDbEntity
  8
CUT
100
AcDbLine
 10
475.60454189212106
 20
1.0000003669574653e-07
 30
1.0001191792588237e-07
 11
475.60454189212106
 21
4.82221857005004
 31
1.0001192865008876e-07
  0
LINE
  5
32
330
17
100
AcDbEntity
  8
CUT
100
AcDbLine
 10
475.60454189212106
 20
4.82221857005004
 30
1.0001192865008876e-07
 11
520.6602000041
 21
4.82221857005004
 31
1.0001192678404005e-07
  0
LINE
  5
33
330
17
100
AcDbEntity
  8
CUT
100
AcDbLine
 10
520.6602000041
 20
4.82221857005004
 30
1.0001192678404005e-07
 11
520.6602001711631
 21
1.0000003669574653e-07
 31
2.6667791617184865e-07
  0
LINE
  5
34
330
17
100
AcDbEntity
  8
CUT
100
AcDbLine
 10
520.6602001711631
 20
1.0000003669574653e-07
 30
2.6667791617184865e-07
 11
550.6602000041
 21
1.0000103856100395e-07
 31
1.0001191481733799e-07
  0
LINE
  5
35
330
17
100
AcDbEntity
  8
CUT
100
AcDbLine
 10
550.6602000041
 20
1.0000103856100395e-07
 30
1.0001191481733799e-07
 11
550.66020000255
 21
10.000000100001039
 31
1.0001193705649295e-07
  0
LINE
  5
36
330
17
100
AcDbEntity
  8
CUT
100
AcDbLine
 10
550.66020000255
 20
10.000000100001039
 30
1.0001193705649295e-07
 11
430.0101999916001
 21
9.999994600772041
 31
1.0000894178668248e-07
  0
LINE
  5
37
330
17
100
AcDbEntity
  8
CUT
100
AcDbLine
 10
430.0101999916001
 20
9.999994600772041
 30
1.0000894178668248e-07
 11
430.0101999916001
 21
15.822218570051042
 31
1.0001195500151832e-07
  0
LINE
  5
38
330
17
100
AcDbEntity
  8
CUT
100
AcDbLine
 10
430.0101999916001
 20
15.822218570051042
 30
1.0001195500151832e-07
 11
423.0101999916001
 21
10.000000100000037
 31
1.0001194234331211e-07
  0
LINE
  5
39
330
17
100
AcDbEntity
  8
CUT
100
AcDbLine
 10
423.0101999916001
 20
10.000000100000037
 30
1.0001194234331211e-07
 11
305.0101999917
 21
9.999999433505039
 31
1.0001094714155976e-07
  0
LINE
  5
3A
330
17
100
AcDbEntity
  8
CUT
100
AcDbLine
 10
305.0101999917
 20
9.999999433505039
 30
1.0001094714155976e-07
 11
305.0101999917
 21
15.82221857005004
 31
1.000119601785837e-07
  0
LINE
  5
3B
330
17
100
AcDbEntity
  8
CUT
100
AcDbLine
 10
305.0101999917
 20
15.82221857005004
 30
1.000119601785837e-07
 11
298.0101999917
 21
10.000000100000037
 31
1.0001194752037749e-07
  0
SPLINE
  5
3C
330
17
100
AcDbEntity
  8
CUT
100
AcDbSpline
 70
0
 71
3
 72
41
 73
37
 74
0
 40
0.0
 40
0.0
 40
0.0
 40
0.0
 40
0.6899575910453092
 40
0.6899575910453092
 40
0.6899575910453092
 40
0.711484880862995
 40
0.711484880862995
 40
0.711484880862995
 40
0.7330121706804142
 40
0.7330121706804142
 40
0.7330121706804142
 40
0.7760667503155192
 40
0.7760667503155192
 40
0.7760667503155192
 40
0.8191213299506243
 40
0.8191213299506243
 40
0.8191213299506243
 40
0.8621759095857293
 40
0.8621759095857293
 40
0.8621759095857293
 40
0.9052304892208344
 40
0.9052304892208344
 40
0.9052304892208344
 40
0.9267577790385201
 40
0.9267577790385201
 40
0.9267577790385201
 40
0.9482850688559393
 40
0.9482850688559393
 40
0.9482850688559393
 40
0.9698123586736251
 40
0.9698123586736251
 40
0.9698123586736251
 40
0.9913396484910443
 40
0.9913396484910443
 40
0.9913396484910443
 40
1.0
 40
1.0
 40
1.0
 40
1.0
 10
298.0101999917
 20
10.000000100000037
 30
1.0001294786405471e-07
 10
231.41132512170006
 20
10.000000100000037
 30
1.000129505286547e-07
 10
164.40443456360006
 20
10.000000100000037
 30
1.0001295408135471e-07
 10
97.57838189320003
 20
10.000000100000037
 30
1.0001295674585471e-07
 10
95.78408081760003
 20
10.000000100000037
 30
1.0001295674585471e-07
 10
93.94596890650004
 20
10.05220214793004
 30
1.0001295674585471e-07
 10
92.06695829740002
 20
10.156701943802041
 30
1.0001295674585471e-07
 10
90.18794768820007
 20
10.261201739674036
 30
1.000119575451547e-07
 10
88.26805055760005
 20
10.417996762910036
 30
1.0001195754515472e-07
 10
86.31041410110006
 20
10.626766079191036
 30
1.0001295852225471e-07
 10
82.39514118790007
 20
11.044304711753036
 30
1.0001295941035473e-07
 10
78.35568772430005
 20
11.666890975530038
 30
1.0001296118675473e-07
 10
74.21317513140005
 20
12.50612506751304
 30
1.0001296296315471e-07
 10
70.07066253860003
 20
13.345359159497036
 30
1.0001296473945472e-07
 10
65.84454687290005
 20
14.397231488015038
 30
1.0001196731505471e-07
 10
61.56667712660007
 20
15.68340913875204
 30
1.000129709567547e-07
 10
57.28880738030003
 20
16.969586789490037
 30
1.0001297362125472e-07
 10
52.98008635300002
 20
18.483868375115037
 30
1.0001297717395471e-07
 10
48.69186954310007
 20
20.256746352479038
 30
1.0001298161485473e-07
 10
44.40365273320006
 20
22.02962432984304
 30
1.000129851675547e-07
 10
40.163084808000036
 20
24.05032723237304
 30
1.0001299049665471e-07
 10
36.05798961170004
 20
26.351887398242038
 30
1.0001299493755472e-07
 10
34.00544201350007
 20
27.50266748117704
 30
1.0001299760205471e-07
 10
31.994443599500045
 20
28.71929637772404
 30
1.0001300115475471e-07
 10
30.042047610000026
 20
30.004712426330038
 30
1.0001200373045471e-07
 10
28.08965162060005
 20
31.290128474935038
 30
1.0001300648385471e-07
 10
26.198019438100033
 20
32.64295025967604
 30
1.000130100365547e-07
 10
24.385737584000054
 20
34.064167067853035
 30
1.0001301270105471e-07
 10
22.573455730000063
 20
35.48538387602904
 30
1.000130162538547e-07
 10
20.846908372700028
 20
36.97015960575904
 30
1.0001301980655471e-07
 10
19.230123092200046
 20
38.51460775290704
 30
1.000130233592547e-07
 10
17.61333781160002
 20
40.05905590005404
 30
1.0001302691195471e-07
 10
16.108040875100045
 20
41.66171462551204
 30
1.000130304646547e-07
 10
14.740658001000071
 20
43.31064934545004
 30
1.0001303401735471e-07
 10
14.190564773400041
 20
43.974009871141035
 30
1.0001303579375471e-07
 10
13.662627238400063
 20
44.64507116144404
 30
1.000120365930547e-07
 10
13.158653562200044
 20
45.32222453738004
 30
1.0001303845825471e-07
  0
LINE
  5
3D
330
17
100
AcDbEntity
  8
CUT
100
AcDbLine
 10
13.158653555600068
 20
45.322224558132035
 30
1.0001203787158044e-07
 11
5.939748289900024
 21
45.32222456850804
 31
1.0054503848111655e-07
  0
LINE
  5
3E
330
17
100
AcDbEntity
  8
CUT
100
AcDbLine
 10
5.939748289900024
 20
45.32222456850804
 30
1.0054503848111655e-07
 11
5.939748289900024
 21
50.32222456850804
 31
1.0054404951179344e-07
  0
LINE
  5
3F
330
17
100
AcDbEntity
  8
CUT
100
AcDbLine
 10
5.939748289900024
 20
50.32222456850804
 30
1.0054404951179344e-07
 11
13.158653539000028
 21
50.32222456850804
 31
1.0001304908005853e-07
  0
SPLINE
  5
40
330
17
100
AcDbEntity
  8
CUT
100
AcDbSpline
 70
0
 71
3
 72
50
 73
46
 74
0
 40
0.0
 40
0.0
 40
0.0
 40
0.0
 40
0.008660251523987634
 40
0.008660251523987634
 40
0.008660251523987634
 40
0.030187292475507402
 40
0.030187292475507402
 40
0.030187292475507402
 40
0.05171433342722566
 40
0.05171433342722566
 40
0.05171433342722566
 40
0.07324137437894364
 40
0.07324137437894364
 40
0.07324137437894364
 40
0.0947684153304634
 40
0.0947684153304634
 40
0.0947684153304634
 40
0.13782249723389994
 40
0.13782249723389994
 40
0.13782249723389994
 40
0.18087657913713795
 40
0.18087657913713795
 40
0.18087657913713795
 40
0.22393066104037598
 40
0.22393066104037598
 40
0.22393066104037598
 40
0.26698474294381236
 40
0.26698474294381236
 40
0.26698474294381236
 40
0.2885117838953321
 40
0.2885117838953321
 40
0.2885117838953321
 40
0.3100388248470504
 40
0.3100388248470504
 40
0.3100388248470504
 40
0.655019412423426
 40
0.655019412423426
 40
0.655019412423426
 40
0.8275097062118123
 40
0.8275097062118123
 40
0.8275097062118123
 40
0.8419723300825094
 40
0.8419723300825094
 40
0.8419723300825094
 40
1.0
 40
1.0
 40
1.0
 40
1.0
 10
13.158653539000028
 20
50.32222456850804
 30
1.0001204991565471e-07
 10
13.662627222300074
 20
50.99937795500604
 30
1.0001205080385471e-07
 10
14.190564765000062
 20
51.670439255710036
 30
1.000120525802547e-07
 10
14.740658001000071
 20
52.33379979156504
 30
1.0001205435655471e-07
 10
16.108040875100045
 20
53.98273451150404
 30
1.0001105782035471e-07
 10
17.61333781160002
 20
55.58539323696104
 30
1.000120614620547e-07
 10
19.230123092200046
 20
57.12984138410804
 30
1.000120641265547e-07
 10
20.846908372700028
 20
58.674289531256036
 30
1.0001106759035471e-07
 10
22.573455730000063
 20
60.15906526098604
 30
1.0001207123195471e-07
 10
24.385737584000054
 20
61.58028206915604
 30
1.0001107380765471e-07
 10
26.198019438100033
 20
63.00149887733604
 30
1.000120774492547e-07
 10
28.08965162060005
 20
64.35432066207603
 30
1.000110800248547e-07
 10
30.042047610000026
 20
65.63973671068604
 30
1.0001208277825471e-07
 10
31.994443599500045
 20
66.92515275928604
 30
1.0001108535395471e-07
 10
34.00544201350007
 20
68.14178165583604
 30
1.0001208810735471e-07
 10
36.05798961170004
 20
69.29256173876604
 30
1.0001209077185471e-07
 10
40.163084808000036
 20
71.59412190463604
 30
1.0001109601205471e-07
 10
44.40365273320006
 20
73.61482480716604
 30
1.0001109956475471e-07
 10
48.69186954310007
 20
75.38770278453605
 30
1.0001210409455473e-07
 10
52.98008635300002
 20
77.16058076189604
 30
1.0001110755835471e-07
 10
57.28880738030003
 20
78.67486234752603
 30
1.0001211031185471e-07
 10
61.56667712660007
 20
79.96103999825604
 30
1.000121138645547e-07
 10
65.84454687290005
 20
81.24721764899604
 30
1.0001211652905471e-07
 10
70.07066253860003
 20
82.29908997751603
 30
1.0001211830545472e-07
 10
74.21317513140005
 20
83.13832406949604
 30
1.000111199928547e-07
 10
78.35568772430005
 20
83.97755816147604
 30
1.0001112176925471e-07
 10
82.39514118790007
 20
84.60014442525603
 30
1.000121227463547e-07
 10
86.31041410110006
 20
85.01768305781603
 30
1.0001112354555472e-07
 10
88.26805055760005
 20
85.22645237410605
 30
1.0001112354555472e-07
 10
90.18794768820007
 20
85.38324739733604
 30
1.0001212452265473e-07
 10
92.06695829740002
 20
85.48774719320603
 30
1.0001212452265471e-07
 10
93.94596890650004
 20
85.59224698908604
 30
1.0001212452265471e-07
 10
95.78408081760003
 20
85.64444903700604
 30
1.0001212452265473e-07
 10
97.57838189320003
 20
85.64444903701603
 30
1.0001112443375471e-07
 10
130.99196807550007
 20
85.64444903700604
 30
1.0001112354555471e-07
 10
164.45053994220004
 20
85.64444903700604
 30
1.0001112176925471e-07
 10
197.88079643410003
 20
85.64444903701603
 30
1.000111199928547e-07
 10
214.59592468000005
 20
85.64444903701603
 30
1.000121200817547e-07
 10
231.30397408230004
 20
85.64444903701603
 30
1.0001111910475471e-07
 10
247.99578200840006
 20
85.64444903701603
 30
1.000121183054547e-07
 10
249.39532359690006
 20
85.64444903701603
 30
1.0001211830545472e-07
 10
250.79475088640004
 20
85.64444903701603
 30
1.000111182165547e-07
 10
252.19404489170006
 20
85.64444903701603
 30
1.000111182165547e-07
 10
267.4836059807001
 20
85.64444903701603
 30
1.0001111732835471e-07
 10
282.75768285110007
 20
85.64444903701603
 30
1.0001111644015471e-07
 10
298.0101999916001
 20
85.64444903701603
 30
1.0001111644015471e-07
  0
LINE
  5
41
330
17
100
AcDbEntity
  8
CUT
100
AcDbLine
 10
298.0101999916001
 20
85.64444903701605
 30
1.0001211574723967e-07
 11
305.0101999917
 21
79.82221857004603
 31
1.0001210250917546e-07
  0
LINE
  5
42
330
17
100
AcDbEntity
  8
CUT
100
AcDbLine
 10
305.0101999917
 20
79.82221857004603
 30
1.0001210250917546e-07
 11
305.0101999917
 21
85.64444353778603
 31
1.0000911519061003e-07
  0
LINE
  5
43
330
17
100
AcDbEntity
  8
CUT
100
AcDbLine
 10
305.0101999917
 20
85.64444353778603
 30
1.0000911519061003e-07
 11
423.0101999916001
 21
85.64444903701605
 31
1.0001311065907488e-07
  0
LINE
  5
44
330
17
100
AcDbEntity
  8
CUT
100
AcDbLine
 10
423.0101999916001
 20
85.64444903701605
 30
1.0001311065907488e-07
 11
430.0101999916001
 21
79.82221857004603
 31
1.0001309742101066e-07
  0
LINE
  5
45
330
17
100
AcDbEntity
  8
CUT
100
AcDbLine
 10
430.0101999916001
 20
79.82221857004603
 30
1.0001309742101066e-07
 11
430.0101999916001
 21
85.64444837051605
 31
9.999811081200584e-08
  0
LINE
  5
46
330
17
100
AcDbEntity
  8
CUT
100
AcDbLine
 10
430.0101999916001
 20
85.64444837051605
 30
9.999811081200584e-08
 11
550.66019999083
 21
85.64444903701605
 31
1.0000810581593124e-07
  0
LINE
  5
47
330
17
100
AcDbEntity
  8
CUT
100
AcDbLine
 10
550.66019999083
 20
85.64444903701605
 30
1.0000810581593124e-07
 11
550.66019998929
 21
95.64444903701605
 31
1.0001212752251011e-07
  0
LINE
  5
48
330
17
100
AcDbEntity
  8
CUT
100
AcDbLine
 10
550.66019998929
 20
95.64444903701605
 30
1.0001212752251011e-07
 11
520.6602000041011
 21
95.64444903701605
 31
1.000121287650058e-07
  0
LINE
  5
49
330
17
100
AcDbEntity
  8
CUT
100
AcDbLine
 10
520.6602000041011
 20
95.64444903701605
 30
1.000121287650058e-07
 11
520.6602000041
 21
90.82226179797604
 31
1.0001211804086886e-07
  0
LINE
  5
4A
330
17
100
AcDbEntity
  8
CUT
100
AcDbLine
 10
520.6602000041
 20
90.82226179797604
 30
1.0001211804086886e-07
 11
475.60454189212106
 21
90.82226179797604
 31
1.0001211990691757e-07
  0
LINE
  5
4B
330
17
100
AcDbEntity
  8
CUT
100
AcDbLine
 10
475.60454189212106
 20
90.82226179797604
 30
1.0001211990691757e-07
 11
475.60454189212203
 21
95.64444903701605
 31
1.0001213063105449e-07
  0
CIRCLE
  5
4C
330
17
100
AcDbEntity
  8
CUT
100
AcDbCircle
 10
535.6602000031301
 20
90.64444904176604
 30
1.0001211741725471e-07
 40
1.5
  0
CIRCLE
  5
4D
330
17
100
AcDbEntity
  8
CUT
100
AcDbCircle
 10
500.0101999916001
 20
87.82224018401604
 30
1.000120216301267e-07
 40
1.1
  0
CIRCLE
  5
4E
330
17
100
AcDbEntity
  8
CUT
100
AcDbCircle
 10
455.66067936463605
 20
90.92139237736605
 30
1.0001212185815473e-07
 40
1.5
  0
CIRCLE
  5
4F
330
17
100
AcDbEntity
  8
CUT
100
AcDbCircle
 10
320.0101999916001
 20
87.82224018401604
 30
1.0001202197967348e-07
 40
1.1
  0
CIRCLE
  5
50
330
17
100
AcDbEntity
  8
CUT
100
AcDbCircle
 10
292.0101999916001
 20
87.82224018401604
 30
1.0001202313933613e-07
 40
1.1
  0
CIRCLE
  5
51
330
17
100
AcDbEntity
  8
CUT
100
AcDbCircle
 10
272.0101999916001
 20
87.82224018401604
 30
1.0001202219130975e-07
 40
1.1
  0
CIRCLE
  5
52
330
17
100
AcDbEntity
  8
CUT
100
AcDbCircle
 10
265.0101999916001
 20
87.82224018401604
 30
1.0001202248122541e-07
 40
1.1
  0
CIRCLE
  5
53
330
17
100
AcDbEntity
  8
CUT
100
AcDbCircle
 10
200.72413010810004
 20
90.64444903700604
 30
1.000141318059547e-07
 40
1.0
  0
CIRCLE
  5
54
330
17
100
AcDbEntity
  8
CUT
100
AcDbCircle
 10
154.21019999160004
 20
90.22224018401603
 30
1.000120217494323e-07
 40
1.1
  0
CIRCLE
  5
55
330
17
100
AcDbEntity
  8
CUT
100
AcDbCircle
 10
115.81019999160006
 20
90.22224018401603
 30
1.0001202156346995e-07
 40
1.1
  0
CIRCLE
  5
56
330
17
100
AcDbEntity
  8
CUT
100
AcDbCircle
 10
135.01019999160005
 20
87.82224018401604
 30
1.0001202253630288e-07
 40
1.1
  0
CIRCLE
  5
57
330
17
100
AcDbEntity
  8
CUT
100
AcDbCircle
 10
100.72413010810007
 20
90.64444903700604
 30
1.0001613553645471e-07
 40
1.0
  0
CIRCLE
  5
58
330
17
100
AcDbEntity
  8
CUT
100
AcDbCircle
 10
79.69019999160005
 20
89.22224018401603
 30
1.000120226118761e-07
 40
1.1
  0
CIRCLE
  5
59
330
17
100
AcDbEntity
  8
CUT
100
AcDbCircle
 10
64.33019999160004
 20
85.92224018401605
 30
1.0001202301454011e-07
 40
1.1
  0
CIRCLE
  5
5A
330
17
100
AcDbEntity
  8
CUT
100
AcDbCircle
 10
37.37019999160006
 20
75.62224018401604
 30
1.0001202254108204e-07
 40
1.1
  0
CIRCLE
  5
5B
330
17
100
AcDbEntity
  8
CUT
100
AcDbCircle
 10
20.72413010810007
 20
65.05872706237604
 30
1.0001608224575472e-07
 40
1.0
  0
CIRCLE
  5
5C
330
17
100
AcDbEntity
  8
CUT
100
AcDbCircle
 10
6.650199991600033
 20
54.32224018401604
 30
1.0001202262927537e-07
 40
1.1
  0
CIRCLE
  5
5D
330
17
100
AcDbEntity
  8
CUT
100
AcDbCircle
 10
535.66020000332
 20
5.00000009767804
 30
1.0001192734705471e-07
 40
1.5
  0
CIRCLE
  5
5E
330
17
100
AcDbEntity
  8
CUT
100
AcDbCircle
 10
500.0101999916001
 20
7.822240184016039
 30
1.0001202312892778e-07
 40
1.1
  0
CIRCLE
  5
5F
330
17
100
AcDbEntity
  8
CUT
100
AcDbCircle
 10
455.66067936483205
 20
4.72305676172104
 30
1.0001193001165472e-07
 40
1.5
  0
CIRCLE
  5
60
330
17
100
AcDbEntity
  8
CUT
100
AcDbCircle
 10
320.0101999916001
 20
7.822240184016039
 30
1.0001202170211773e-07
 40
1.1
  0
CIRCLE
  5
61
330
17
100
AcDbEntity
  8
CUT
100
AcDbCircle
 10
292.0101999916001
 20
7.822240184016039
 30
1.0001202286178037e-07
 40
1.1
  0
CIRCLE
  5
62
330
17
100
AcDbEntity
  8
CUT
100
AcDbCircle
 10
272.0101999916001
 20
7.822240184016039
 30
1.0001202191375399e-07
 40
1.1
  0
CIRCLE
  5
63
330
17
100
AcDbEntity
  8
CUT
100
AcDbCircle
 10
6.650199991600033
 20
41.32224018401604
 30
1.0001202214008335e-07
 40
1.1
  0
CIRCLE
  5
64
330
17
100
AcDbEntity
  8
CUT
100
AcDbCircle
 10
20.72413010810007
 20
30.58572207462304
 30
1.000150057734547e-07
 40
1.0
  0
CIRCLE
  5
65
330
17
100
AcDbEntity
  8
CUT
100
AcDbCircle
 10
265.0101999916001
 20
7.822240184016039
 30
1.0001202220366965e-07
 40
1.1
  0
CIRCLE
  5
66
330
17
100
AcDbEntity
  8
CUT
100
AcDbCircle
 10
200.72413010810004
 20
5.000000100000037
 30
1.0001494093645471e-07
 40
1.0
  0
CIRCLE
  5
67
330
17
100
AcDbEntity
  8
CUT
100
AcDbCircle
 10
154.21019999160004
 20
5.42224018401604
 30
1.0001202323158004e-07
 40
1.1
  0
CIRCLE
  5
68
330
17
100
AcDbEntity
  8
CUT
100
AcDbCircle
 10
37.37019999160006
 20
20.022240184016038
 30
1.0001202323635921e-07
 40
1.1
  0
CIRCLE
  5
69
330
17
100
AcDbEntity
  8
CUT
100
AcDbCircle
 10
135.01019999160005
 20
7.822240184016039
 30
1.0001202225874712e-07
 40
1.1
  0
CIRCLE
  5
6A
330
17
100
AcDbEntity
  8
CUT
100
AcDbCircle
 10
115.81019999160006
 20
5.42224018401604
 30
1.0001202304561769e-07
 40
1.1
  0
CIRCLE
  5
6B
330
17
100
AcDbEntity
  8
CUT
100
AcDbCircle
 10
79.69019999160005
 20
6.42224018401604
 30
1.0001202321278431e-07
 40
1.1
  0
CIRCLE
  5
6C
330
17
100
AcDbEntity
  8
CUT
100
AcDbCircle
 10
100.72413010810007
 20
5.000000100000037
 30
1.0001494537735471e-07
 40
1.0
  0
CIRCLE
  5
6D
330
17
100
AcDbEntity
  8
CUT
100
AcDbCircle
 10
64.33019999160004
 20
9.722240184016037
 30
1.0001202230607904e-07
 40
1.1
  0
TEXT
  5
74
330
17
100
AcDbEntity
  8
LABELS_NONCUT
100
AcDbText
 10
0.0
 20
98.64444913701607
 30
0.0
 40
2.0
  1
A13 / 5 mm / quantity 1
100
AcDbText
  0
ENDSEC
  0
SECTION
  2
OBJECTS
  0
DICTIONARY
  5
A
330
0
100
AcDbDictionary
281
1
  3
ACAD_COLOR
350
B
  3
ACAD_GROUP
350
C
  3
ACAD_LAYOUT
350
D
  3
ACAD_MATERIAL
350
E
  3
ACAD_MLEADERSTYLE
350
F
  3
ACAD_MLINESTYLE
350
10
  3
ACAD_PLOTSETTINGS
350
11
  3
ACAD_PLOTSTYLENAME
350
12
  3
ACAD_SCALELIST
350
14
  3
ACAD_TABLESTYLE
350
15
  3
ACAD_VISUALSTYLE
350
16
  3
EZDXF_META
350
2D
  0
DICTIONARY
  5
B
330
A
100
AcDbDictionary
281
1
  0
DICTIONARY
  5
C
330
A
100
AcDbDictionary
281
1
  0
DICTIONARY
  5
D
330
A
100
AcDbDictionary
281
1
  3
Model
350
1A
  3
Layout1
350
1E
  0
DICTIONARY
  5
E
330
A
100
AcDbDictionary
281
1
  3
ByBlock
350
1F
  3
ByLayer
350
20
  3
Global
350
21
  0
DICTIONARY
  5
F
330
A
100
AcDbDictionary
281
1
  3
Standard
350
2C
  0
DICTIONARY
  5
10
330
A
100
AcDbDictionary
281
1
  3
Standard
350
22
  0
DICTIONARY
  5
11
330
A
100
AcDbDictionary
281
1
  0
ACDBDICTIONARYWDFLT
  5
12
330
A
100
AcDbDictionary
281
1
  3
Normal
350
13
100
AcDbDictionaryWithDefault
340
13
  0
ACDBPLACEHOLDER
  5
13
330
12
  0
DICTIONARY
  5
14
330
A
100
AcDbDictionary
281
1
  0
DICTIONARY
  5
15
330
A
100
AcDbDictionary
281
1
  0
DICTIONARY
  5
16
330
A
100
AcDbDictionary
281
1
  0
LAYOUT
  5
1A
330
D
100
AcDbPlotSettings
  1

  4
A3
  6

 40
7.5
 41
20.0
 42
7.5
 43
20.0
 44
420.0
 45
297.0
 46
0.0
 47
0.0
 48
0.0
 49
0.0
140
0.0
141
0.0
142
1.0
143
1.0
 70
1024
 72
1
 73
0
 74
5
  7

 75
16
 76
0
 77
2
 78
300
147
1.0
148
0.0
149
0.0
100
AcDbLayout
  1
Model
 70
1
 71
0
 10
0.0
 20
0.0
 11
420.0
 21
297.0
 12
0.0
 22
0.0
 32
0.0
 14
1e+20
 24
1e+20
 34
1e+20
 15
-1e+20
 25
-1e+20
 35
-1e+20
146
0.0
 13
0.0
 23
0.0
 33
0.0
 16
1.0
 26
0.0
 36
0.0
 17
0.0
 27
1.0
 37
0.0
 76
1
330
17
  0
LAYOUT
  5
1E
330
D
100
AcDbPlotSettings
  1

  4
A3
  6

 40
7.5
 41
20.0
 42
7.5
 43
20.0
 44
420.0
 45
297.0
 46
0.0
 47
0.0
 48
0.0
 49
0.0
140
0.0
141
0.0
142
1.0
143
1.0
 70
0
 72
1
 73
0
 74
5
  7

 75
16
 76
0
 77
2
 78
300
147
1.0
148
0.0
149
0.0
100
AcDbLayout
  1
Layout1
 70
1
 71
1
 10
0.0
 20
0.0
 11
420.0
 21
297.0
 12
0.0
 22
0.0
 32
0.0
 14
1e+20
 24
1e+20
 34
1e+20
 15
-1e+20
 25
-1e+20
 35
-1e+20
146
0.0
 13
0.0
 23
0.0
 33
0.0
 16
1.0
 26
0.0
 36
0.0
 17
0.0
 27
1.0
 37
0.0
 76
1
330
1B
  0
MATERIAL
  5
1F
102
{ACAD_REACTORS
330
E
102
}
330
E
100
AcDbMaterial
  1
ByBlock
  2

 70
0
 40
1.0
 71
1
 41
1.0
 91
-1023410177
 42
1.0
 72
1
  3

 73
1
 74
1
 75
1
 44
0.5
 73
0
 45
1.0
 46
1.0
 77
1
  4

 78
1
 79
1
170
1
 48
1.0
171
1
  6

172
1
173
1
174
1
140
1.0
141
1.0
175
1
  7

176
1
177
1
178
1
143
1.0
179
1
  8

270
1
271
1
272
1
145
1.0
146
1.0
273
1
  9

274
1
275
1
276
1
 42
1.0
 72
1
  3

 73
1
 74
1
 75
1
 94
63
  0
MATERIAL
  5
20
102
{ACAD_REACTORS
330
E
102
}
330
E
100
AcDbMaterial
  1
ByLayer
  2

 70
0
 40
1.0
 71
1
 41
1.0
 91
-1023410177
 42
1.0
 72
1
  3

 73
1
 74
1
 75
1
 44
0.5
 73
0
 45
1.0
 46
1.0
 77
1
  4

 78
1
 79
1
170
1
 48
1.0
171
1
  6

172
1
173
1
174
1
140
1.0
141
1.0
175
1
  7

176
1
177
1
178
1
143
1.0
179
1
  8

270
1
271
1
272
1
145
1.0
146
1.0
273
1
  9

274
1
275
1
276
1
 42
1.0
 72
1
  3

 73
1
 74
1
 75
1
 94
63
  0
MATERIAL
  5
21
102
{ACAD_REACTORS
330
E
102
}
330
E
100
AcDbMaterial
  1
Global
  2

 70
0
 40
1.0
 71
1
 41
1.0
 91
-1023410177
 42
1.0
 72
1
  3

 73
1
 74
1
 75
1
 44
0.5
 73
0
 45
1.0
 46
1.0
 77
1
  4

 78
1
 79
1
170
1
 48
1.0
171
1
  6

172
1
173
1
174
1
140
1.0
141
1.0
175
1
  7

176
1
177
1
178
1
143
1.0
179
1
  8

270
1
271
1
272
1
145
1.0
146
1.0
273
1
  9

274
1
275
1
276
1
 42
1.0
 72
1
  3

 73
1
 74
1
 75
1
 94
63
  0
MLINESTYLE
  5
22
102
{ACAD_REACTORS
330
10
102
}
330
10
100
AcDbMlineStyle
  2
Standard
 70
0
  3

 62
256
 51
90.0
 52
90.0
 71
2
 49
0.5
 62
256
  6
BYLAYER
 49
-0.5
 62
256
  6
BYLAYER
  0
MLEADERSTYLE
  5
2C
102
{ACAD_REACTORS
330
F
102
}
330
F
100
AcDbMLeaderStyle
179
2
170
2
171
1
172
0
 90
2
 40
0.0
 41
0.0
173
1
 91
-1056964608
 92
-2
290
1
 42
2.0
291
1
 43
8.0
  3
Standard
 44
4.0
300

342
29
174
1
175
1
176
0
178
1
 93
-1056964608
 45
4.0
292
0
297
0
 46
4.0
 94
-1056964608
 47
1.0
 49
1.0
140
1.0
294
1
141
0.0
177
0
142
1.0
295
0
296
0
143
3.75
271
0
272
9
273
9
  0
DICTIONARY
  5
2D
330
A
100
AcDbDictionary
280
1
281
1
  3
CREATED_BY_EZDXF
350
2E
  3
WRITTEN_BY_EZDXF
350
71
  0
DICTIONARYVAR
  5
2E
330
2D
100
DictionaryVariables
280
0
  1
1.4.4 @ 2026-09-20T13:00:39.266067+00:00
  0
DICTIONARYVAR
  5
71
330
2D
100
DictionaryVariables
280
0
  1
1.4.4 @ 2026-09-20T13:00:39.296878+00:00
  0
ENDSEC
  0
EOF
