  0
SECTION
  2
HEADER
  9
$ACADVER
  1
AC1027
  9
$ACADMAINTVER
 70
105
  9
$DWGCODEPAGE
  3
ANSI_1252
  9
$LASTSAVEDBY
  1
ezdxf
  9
$REQUIREDVERSIONS
160
0
  9
$INSBASE
 10
0.0
 20
0.0
 30
0.0
  9
$EXTMIN
 10
1e+20
 20
1e+20
 30
1e+20
  9
$EXTMAX
 10
-1e+20
 20
-1e+20
 30
-1e+20
  9
$LIMMIN
 10
0.0
 20
0.0
  9
$LIMMAX
 10
420.0
 20
297.0
  9
$ORTHOMODE
 70
0
  9
$REGENMODE
 70
1
  9
$FILLMODE
 70
1
  9
$QTEXTMODE
 70
0
  9
$MIRRTEXT
 70
1
  9
$LTSCALE
 40
1.0
  9
$ATTMODE
 70
1
  9
$TEXTSIZE
 40
2.5
  9
$TRACEWID
 40
1.0
  9
$TEXTSTYLE
  7
Standard
  9
$CLAYER
  8
0
  9
$CELTYPE
  6
ByLayer
  9
$CECOLOR
 62
256
  9
$CELTSCALE
 40
1.0
  9
$DISPSILH
 70
0
  9
$DIMSCALE
 40
1.0
  9
$DIMASZ
 40
2.5
  9
$DIMEXO
 40
0.625
  9
$DIMDLI
 40
3.75
  9
$DIMRND
 40
0.0
  9
$DIMDLE
 40
0.0
  9
$DIMEXE
 40
1.25
  9
$DIMTP
 40
0.0
  9
$DIMTM
 40
0.0
  9
$DIMTXT
 40
2.5
  9
$DIMCEN
 40
2.5
  9
$DIMTSZ
 40
0.0
  9
$DIMTOL
 70
0
  9
$DIMLIM
 70
0
  9
$DIMTIH
 70
0
  9
$DIMTOH
 70
0
  9
$DIMSE1
 70
0
  9
$DIMSE2
 70
0
  9
$DIMTAD
 70
1
  9
$DIMZIN
 70
8
  9
$DIMBLK
  1

  9
$DIMASO
 70
1
  9
$DIMSHO
 70
1
  9
$DIMPOST
  1

  9
$DIMAPOST
  1

  9
$DIMALT
 70
0
  9
$DIMALTD
 70
3
  9
$DIMALTF
 40
0.03937007874
  9
$DIMLFAC
 40
1.0
  9
$DIMTOFL
 70
1
  9
$DIMTVP
 40
0.0
  9
$DIMTIX
 70
0
  9
$DIMSOXD
 70
0
  9
$DIMSAH
 70
0
  9
$DIMBLK1
  1

  9
$DIMBLK2
  1

  9
$DIMSTYLE
  2
ISO-25
  9
$DIMCLRD
 70
0
  9
$DIMCLRE
 70
0
  9
$DIMCLRT
 70
0
  9
$DIMTFAC
 40
1.0
  9
$DIMGAP
 40
0.625
  9
$DIMJUST
 70
0
  9
$DIMSD1
 70
0
  9
$DIMSD2
 70
0
  9
$DIMTOLJ
 70
0
  9
$DIMTZIN
 70
8
  9
$DIMALTZ
 70
0
  9
$DIMALTTZ
 70
0
  9
$DIMUPT
 70
0
  9
$DIMDEC
 70
2
  9
$DIMTDEC
 70
2
  9
$DIMALTU
 70
2
  9
$DIMALTTD
 70
3
  9
$DIMTXSTY
  7
Standard
  9
$DIMAUNIT
 70
0
  9
$DIMADEC
 70
0
  9
$DIMALTRND
 40
0.0
  9
$DIMAZIN
 70
0
  9
$DIMDSEP
 70
44
  9
$DIMATFIT
 70
3
  9
$DIMFRAC
 70
0
  9
$DIMLDRBLK
  1

  9
$DIMLUNIT
 70
2
  9
$DIMLWD
 70
-2
  9
$DIMLWE
 70
-2
  9
$DIMTMOVE
 70
0
  9
$DIMFXL
 40
1.0
  9
$DIMFXLON
 70
0
  9
$DIMJOGANG
 40
0.785398163397
  9
$DIMTFILL
 70
0
  9
$DIMTFILLCLR
 70
0
  9
$DIMARCSYM
 70
0
  9
$DIMLTYPE
  6

  9
$DIMLTEX1
  6

  9
$DIMLTEX2
  6

  9
$DIMTXTDIRECTION
 70
0
  9
$LUNITS
 70
2
  9
$LUPREC
 70
4
  9
$SKETCHINC
 40
1.0
  9
$FILLETRAD
 40
10.0
  9
$AUNITS
 70
0
  9
$AUPREC
 70
2
  9
$MENU
  1
.
  9
$ELEVATION
 40
0.0
  9
$PELEVATION
 40
0.0
  9
$THICKNESS
 40
0.0
  9
$LIMCHECK
 70
0
  9
$CHAMFERA
 40
0.0
  9
$CHAMFERB
 40
0.0
  9
$CHAMFERC
 40
0.0
  9
$CHAMFERD
 40
0.0
  9
$SKPOLY
 70
0
  9
$TDCREATE
 40
2461303.705439815
  9
$TDUCREATE
 40
2458532.153996898
  9
$TDUPDATE
 40
2461303.705439815
  9
$TDUUPDATE
 40
2458532.1544311
  9
$TDINDWG
 40
0.0
  9
$TDUSRTIMER
 40
0.0
  9
$USRTIMER
 70
1
  9
$ANGBASE
 50
0.0
  9
$ANGDIR
 70
0
  9
$PDMODE
 70
0
  9
$PDSIZE
 40
0.0
  9
$PLINEWID
 40
0.0
  9
$SPLFRAME
 70
0
  9
$SPLINETYPE
 70
6
  9
$SPLINESEGS
 70
8
  9
$HANDSEED
  5
53
  9
$SURFTAB1
 70
6
  9
$SURFTAB2
 70
6
  9
$SURFTYPE
 70
6
  9
$SURFU
 70
6
  9
$SURFV
 70
6
  9
$UCSBASE
  2

  9
$UCSNAME
  2

  9
$UCSORG
 10
0.0
 20
0.0
 30
0.0
  9
$UCSXDIR
 10
1.0
 20
0.0
 30
0.0
  9
$UCSYDIR
 10
0.0
 20
1.0
 30
0.0
  9
$UCSORTHOREF
  2

  9
$UCSORTHOVIEW
 70
0
  9
$UCSORGTOP
 10
0.0
 20
0.0
 30
0.0
  9
$UCSORGBOTTOM
 10
0.0
 20
0.0
 30
0.0
  9
$UCSORGLEFT
 10
0.0
 20
0.0
 30
0.0
  9
$UCSORGRIGHT
 10
0.0
 20
0.0
 30
0.0
  9
$UCSORGFRONT
 10
0.0
 20
0.0
 30
0.0
  9
$UCSORGBACK
 10
0.0
 20
0.0
 30
0.0
  9
$PUCSBASE
  2

  9
$PUCSNAME
  2

  9
$PUCSORG
 10
0.0
 20
0.0
 30
0.0
  9
$PUCSXDIR
 10
1.0
 20
0.0
 30
0.0
  9
$PUCSYDIR
 10
0.0
 20
1.0
 30
0.0
  9
$PUCSORTHOREF
  2

  9
$PUCSORTHOVIEW
 70
0
  9
$PUCSORGTOP
 10
0.0
 20
0.0
 30
0.0
  9
$PUCSORGBOTTOM
 10
0.0
 20
0.0
 30
0.0
  9
$PUCSORGLEFT
 10
0.0
 20
0.0
 30
0.0
  9
$PUCSORGRIGHT
 10
0.0
 20
0.0
 30
0.0
  9
$PUCSORGFRONT
 10
0.0
 20
0.0
 30
0.0
  9
$PUCSORGBACK
 10
0.0
 20
0.0
 30
0.0
  9
$USERI1
 70
0
  9
$USERI2
 70
0
  9
$USERI3
 70
0
  9
$USERI4
 70
0
  9
$USERI5
 70
0
  9
$USERR1
 40
0.0
  9
$USERR2
 40
0.0
  9
$USERR3
 40
0.0
  9
$USERR4
 40
0.0
  9
$USERR5
 40
0.0
  9
$WORLDVIEW
 70
1
  9
$SHADEDGE
 70
3
  9
$SHADEDIF
 70
70
  9
$TILEMODE
 70
1
  9
$MAXACTVP
 70
64
  9
$PINSBASE
 10
0.0
 20
0.0
 30
0.0
  9
$PLIMCHECK
 70
0
  9
$PEXTMIN
 10
1e+20
 20
1e+20
 30
1e+20
  9
$PEXTMAX
 10
-1e+20
 20
-1e+20
 30
-1e+20
  9
$PLIMMIN
 10
0.0
 20
0.0
  9
$PLIMMAX
 10
420.0
 20
297.0
  9
$UNITMODE
 70
0
  9
$VISRETAIN
 70
1
  9
$PLINEGEN
 70
0
  9
$PSLTSCALE
 70
1
  9
$TREEDEPTH
 70
3020
  9
$CMLSTYLE
  2
Standard
  9
$CMLJUST
 70
0
  9
$CMLSCALE
 40
20.0
  9
$PROXYGRAPHICS
 70
1
  9
$MEASUREMENT
 70
1
  9
$CELWEIGHT
370
-1
  9
$ENDCAPS
280
0
  9
$JOINSTYLE
280
0
  9
$LWDISPLAY
290
0
  9
$INSUNITS
 70
4
  9
$HYPERLINKBASE
  1

  9
$STYLESHEET
  1

  9
$XEDIT
290
1
  9
$CEPSNTYPE
380
0
  9
$PSTYLEMODE
290
1
  9
$FINGERPRINTGUID
  2
{67CC6AEC-442C-49DB-80F1-FAF6815812E1}
  9
$VERSIONGUID
  2
{EB16895F-A441-4368-BBF1-A420ABA474CD}
  9
$EXTNAMES
290
1
  9
$PSVPSCALE
 40
0.0
  9
$OLESTARTUP
290
0
  9
$SORTENTS
280
127
  9
$INDEXCTL
280
0
  9
$HIDETEXT
280
1
  9
$XCLIPFRAME
280
1
  9
$HALOGAP
280
0
  9
$OBSCOLOR
 70
257
  9
$OBSLTYPE
280
0
  9
$INTERSECTIONDISPLAY
280
0
  9
$INTERSECTIONCOLOR
 70
257
  9
$DIMASSOC
280
2
  9
$PROJECTNAME
  1

  9
$CAMERADISPLAY
290
0
  9
$LENSLENGTH
 40
50.0
  9
$CAMERAHEIGHT
 40
0.0
  9
$STEPSPERSEC
 40
24.0
  9
$STEPSIZE
 40
100.0
  9
$3DDWFPREC
 40
2.0
  9
$PSOLWIDTH
 40
0.005
  9
$PSOLHEIGHT
 40
0.08
  9
$LOFTANG1
 40
1.570796326795
  9
$LOFTANG2
 40
1.570796326795
  9
$LOFTMAG1
 40
0.0
  9
$LOFTMAG2
 40
0.0
  9
$LOFTPARAM
 70
7
  9
$LOFTNORMALS
280
1
  9
$LATITUDE
 40
37.795
  9
$LONGITUDE
 40
-122.394
  9
$NORTHDIRECTION
 40
0.0
  9
$TIMEZONE
 70
-8000
  9
$LIGHTGLYPHDISPLAY
280
1
  9
$TILEMODELIGHTSYNCH
280
1
  9
$CMATERIAL
347
20
  9
$SOLIDHIST
280
0
  9
$SHOWHIST
280
1
  9
$DWFFRAME
280
2
  9
$DGNFRAME
280
2
  9
$REALWORLDSCALE
290
1
  9
$INTERFERECOLOR
 62
256
  9
$CSHADOW
280
0
  9
$SHADOWPLANELOCATION
 40
0.0
  0
ENDSEC
  0
SECTION
  2
CLASSES
  0
CLASS
  1
ACDBDICTIONARYWDFLT
  2
AcDbDictionaryWithDefault
  3
ObjectDBX Classes
 90
0
 91
0
280
0
281
0
  0
CLASS
  1
SUN
  2
AcDbSun
  3
SCENEOE
 90
1153
 91
0
280
0
281
0
  0
CLASS
  1
VISUALSTYLE
  2
AcDbVisualStyle
  3
ObjectDBX Classes
 90
4095
 91
0
280
0
281
0
  0
CLASS
  1
MATERIAL
  2
AcDbMaterial
  3
ObjectDBX Classes
 90
1153
 91
0
280
0
281
0
  0
CLASS
  1
SCALE
  2
AcDbScale
  3
ObjectDBX Classes
 90
1153
 91
0
280
0
281
0
  0
CLASS
  1
TABLESTYLE
  2
AcDbTableStyle
  3
ObjectDBX Classes
 90
4095
 91
0
280
0
281
0
  0
CLASS
  1
MLEADERSTYLE
  2
AcDbMLeaderStyle
  3
ACDB_MLEADERSTYLE_CLASS
 90
4095
 91
0
280
0
281
0
  0
CLASS
  1
DICTIONARYVAR
  2
AcDbDictionaryVar
  3
ObjectDBX Classes
 90
0
 91
0
280
0
281
0
  0
CLASS
  1
CELLSTYLEMAP
  2
AcDbCellStyleMap
  3
ObjectDBX Classes
 90
1152
 91
0
280
0
281
0
  0
CLASS
  1
MENTALRAYRENDERSETTINGS
  2
AcDbMentalRayRenderSettings
  3
SCENEOE
 90
1024
 91
0
280
0
281
0
  0
CLASS
  1
ACDBDETAILVIEWSTYLE
  2
AcDbDetailViewStyle
  3
ObjectDBX Classes
 90
1025
 91
0
280
0
281
0
  0
CLASS
  1
ACDBSECTIONVIEWSTYLE
  2
AcDbSectionViewStyle
  3
ObjectDBX Classes
 90
1025
 91
0
280
0
281
0
  0
CLASS
  1
RASTERVARIABLES
  2
AcDbRasterVariables
  3
ISM
 90
0
 91
0
280
0
281
0
  0
CLASS
  1
ACDBPLACEHOLDER
  2
AcDbPlaceHolder
  3
ObjectDBX Classes
 90
0
 91
0
280
0
281
0
  0
CLASS
  1
LAYOUT
  2
AcDbLayout
  3
ObjectDBX Classes
 90
0
 91
0
280
0
281
0
  0
ENDSEC
  0
SECTION
  2
TABLES
  0
TABLE
  2
VPORT
  5
8
330
0
100
AcDbSymbolTable
 70
1
  0
VPORT
  5
4C
330
8
100
AcDbSymbolTableRecord
100
AcDbViewportTableRecord
  2
*Active
 70
0
 10
0.0
 20
0.0
 11
1.0
 21
1.0
 12
47.82222456850193
 22
43.94834014161315
 13
0.0
 23
0.0
 14
0.5
 24
0.5
 15
0.5
 25
0.5
 16
0.0
 26
0.0
 36
1.0
 17
0.0
 27
0.0
 37
0.0
 40
87.89668008322569
 41
1.34
 42
50.0
 43
0.0
 44
0.0
 50
0.0
 51
0.0
 71
0
 72
1000
 73
1
 74
3
 75
0
 76
0
 77
0
 78
0
281
0
 65
1
110
0.0
120
0.0
130
0.0
111
1.0
121
0.0
131
0.0
112
0.0
122
1.0
132
0.0
 79
0
146
0.0
  0
ENDTAB
  0
TABLE
  2
LTYPE
  5
2
330
0
100
AcDbSymbolTable
 70
3
  0
LTYPE
  5
24
330
2
100
AcDbSymbolTableRecord
100
AcDbLinetypeTableRecord
  2
ByBlock
 70
0
  3

 72
65
 73
0
 40
0.0
  0
LTYPE
  5
25
330
2
100
AcDbSymbolTableRecord
100
AcDbLinetypeTableRecord
  2
ByLayer
 70
0
  3

 72
65
 73
0
 40
0.0
  0
LTYPE
  5
26
330
2
100
AcDbSymbolTableRecord
100
AcDbLinetypeTableRecord
  2
Continuous
 70
0
  3

 72
65
 73
0
 40
0.0
  0
ENDTAB
  0
TABLE
  2
LAYER
  5
1
330
0
100
AcDbSymbolTable
 70
4
  0
LAYER
  5
27
330
1
100
AcDbSymbolTableRecord
100
AcDbLayerTableRecord
  2
0
 70
0
 62
7
  6
Continuous
370
-3
390
13
347
21
  0
LAYER
  5
28
330
1
100
AcDbSymbolTableRecord
100
AcDbLayerTableRecord
  2
Defpoints
 70
0
 62
7
  6
Continuous
290
0
370
-3
390
13
347
21
  0
LAYER
  5
50
330
1
100
AcDbSymbolTableRecord
100
AcDbLayerTableRecord
  2
LABELS_NONCUT
 70
0
 62
3
  6
Continuous
370
-3
390
13
347
21
  0
LAYER
  5
52
330
1
100
AcDbSymbolTableRecord
100
AcDbLayerTableRecord
  2
CUT
 70
0
 62
1
  6
Continuous
370
-3
390
13
347
21
  0
ENDTAB
  0
TABLE
  2
STYLE
  5
5
330
0
100
AcDbSymbolTable
 70
1
  0
STYLE
  5
29
330
5
100
AcDbSymbolTableRecord
100
AcDbTextStyleTableRecord
  2
Standard
 70
0
 40
0.0
 41
1.0
 50
0.0
 71
0
 42
2.5
  3
txt
  4

  0
ENDTAB
  0
TABLE
  2
VIEW
  5
7
330
0
100
AcDbSymbolTable
 70
0
  0
ENDTAB
  0
TABLE
  2
UCS
  5
6
330
0
100
AcDbSymbolTable
 70
0
  0
ENDTAB
  0
TABLE
  2
APPID
  5
3
330
0
100
AcDbSymbolTable
 70
3
  0
APPID
  5
2A
330
3
100
AcDbSymbolTableRecord
100
AcDbRegAppTableRecord
  2
ACAD
 70
0
  0
APPID
  5
4D
330
3
100
AcDbSymbolTableRecord
100
AcDbRegAppTableRecord
  2
HATCHBACKGROUNDCOLOR
 70
0
  0
APPID
  5
4E
330
3
100
AcDbSymbolTableRecord
100
AcDbRegAppTableRecord
  2
EZDXF
 70
0
  0
ENDTAB
  0
TABLE
  2
DIMSTYLE
  5
4
330
0
100
AcDbSymbolTable
 70
1
100
AcDbDimStyleTable
  0
DIMSTYLE
105
2B
330
4
100
AcDbSymbolTableRecord
100
AcDbDimStyleTableRecord
  2
Standard
 70
0
 40
1.0
 41
2.5
 42
0.625
 43
3.75
 44
1.25
 45
0.0
 46
0.0
 47
0.0
 48
0.0
 49
2.5
140
2.5
141
2.5
142
0.0
143
0.03937007874
144
1.0
145
0.0
146
1.0
147
0.625
148
0.0
 69
0
 70
0
 71
0
 72
0
 73
0
 74
0
 75
0
 76
0
 77
1
 78
8
 79
3
170
0
171
3
172
1
173
0
174
0
175
0
176
0
177
0
178
0
179
2
271
2
272
2
273
2
274
3
275
0
276
0
277
2
278
44
279
0
280
0
281
0
282
0
283
0
284
8
285
0
286
0
288
0
289
3
290
0
371
-2
372
-2
  0
ENDTAB
  0
TABLE
  2
BLOCK_RECORD
  5
9
330
0
100
AcDbSymbolTable
 70
2
  0
BLOCK_RECORD
  5
17
330
9
100
AcDbSymbolTableRecord
100
AcDbBlockTableRecord
  2
*Model_Space
340
1A
 70
0
280
1
281
0
  0
BLOCK_RECORD
  5
1B
330
9
100
AcDbSymbolTableRecord
100
AcDbBlockTableRecord
  2
*Paper_Space
340
1E
 70
0
280
1
281
0
  0
ENDTAB
  0
ENDSEC
  0
SECTION
  2
BLOCKS
  0
BLOCK
  5
18
330
17
100
AcDbEntity
  8
0
100
AcDbBlockBegin
  2
*Model_Space
 70
0
 10
0.0
 20
0.0
 30
0.0
  3
*Model_Space
  1

  0
ENDBLK
  5
19
330
17
100
AcDbEntity
  8
0
100
AcDbBlockEnd
  0
BLOCK
  5
1C
330
1B
100
AcDbEntity
  8
0
100
AcDbBlockBegin
  2
*Paper_Space
 70
0
 10
0.0
 20
0.0
 30
0.0
  3
*Paper_Space
  1

  0
ENDBLK
  5
1D
330
1B
100
AcDbEntity
  8
0
100
AcDbBlockEnd
  0
ENDSEC
  0
SECTION
  2
ENTITIES
  0
SPLINE
  5
2F
330
17
100
AcDbEntity
  8
CUT
100
AcDbSpline
 70
0
 71
3
 72
59
 73
55
 74
0
 40
0.0
 40
0.0
 40
0.0
 40
0.0
 40
0.2223799892245825
 40
0.2223799892245825
 40
0.2223799892245825
 40
0.2874984866966506
 40
0.2874984866966506
 40
0.2874984866966506
 40
0.3240310743427055
 40
0.3240310743427055
 40
0.3240310743427055
 40
0.3482714556623096
 40
0.3482714556623096
 40
0.3482714556623096
 40
0.35261698416871873
 40
0.35261698416871873
 40
0.35261698416871873
 40
0.4908316810178228
 40
0.4908316810178228
 40
0.4908316810178228
 40
0.6192109762888212
 40
0.6192109762888212
 40
0.6192109762888212
 40
0.7127867230455123
 40
0.7127867230455123
 40
0.7127867230455123
 40
0.7396563144231902
 40
0.7396563144231902
 40
0.7396563144231902
 40
0.7660353629430159
 40
0.7660353629430159
 40
0.7660353629430159
 40
0.7761099442186788
 40
0.7761099442186788
 40
0.7761099442186788
 40
0.7788049555230365
 40
0.7788049555230365
 40
0.7788049555230365
 40
0.8146900062996882
 40
0.8146900062996882
 40
0.8146900062996882
 40
0.8510499790339819
 40
0.8510499790339819
 40
0.8510499790339819
 40
0.8882874842758866
 40
0.8882874842758866
 40
0.8882874842758866
 40
0.9258289788038487
 40
0.9258289788038487
 40
0.9258289788038487
 40
0.9640587268904879
 40
0.9640587268904879
 40
0.9640587268904879
 40
1.0
 40
1.0
 40
1.0
 40
1.0
 10
15.8222245685
 20
55.39582410802
 30
1.000999247935e-07
 10
17.73079385329
 20
58.317249313076
 30
1.000999247935e-07
 10
19.92341663608
 20
61.202510065273
 30
1.000999247935e-07
 10
22.29851491769
 20
63.863030170704
 30
1.000999247935e-07
 10
22.99400389575
 20
64.642097893319
 30
1.000999247935e-07
 10
23.70468254176
 20
65.402575330134
 30
1.000999247935e-07
 10
24.42730071773
 20
66.140412932338
 30
1.000999247935e-07
 10
24.83270183835
 20
66.554352410635
 30
1.000999247935e-07
 10
25.24186076605
 20
66.961166296797
 30
1.000999532152e-07
 10
25.65420340028
 20
67.360140242183
 30
1.000999532152e-07
 10
25.92780413135
 20
67.624870478826
 30
1.000999532152e-07
 10
26.20280654689
 20
67.886149044216
 30
1.000999532152e-07
 10
26.47904292103
 20
68.143767405913
 30
1.000999532152e-07
 10
26.52856330697
 20
68.189950175058
 30
1.000999532152e-07
 10
26.5781233482
 20
68.236015315824
 30
1.000999532152e-07
 10
26.62772207999
 20
68.281961628731
 30
1.000999532152e-07
 10
28.20506954815
 20
69.743154238339
 30
9.999996564147e-08
 10
29.8309086838
 20
71.086519178856
 30
1.000999532152e-07
 10
31.46327224558
 20
72.287127871197
 30
9.999996564147e-08
 10
32.97947629957
 20
73.40230086894
 30
9.999996564147e-08
 10
34.50130686076
 20
74.394311058469
 30
1.000999532152e-07
 10
35.99511784816
 20
75.243218736034
 30
1.000999532152e-07
 10
37.08395758953
 20
75.861988060859
 30
1.000999532152e-07
 10
38.157910229885
 20
76.404728256715
 30
1.000999532152e-07
 10
39.203950162452
 20
76.863734801907
 30
1.000999532152e-07
 10
39.50431287959
 20
76.995535174728
 30
1.000999532152e-07
 10
39.80225008387
 20
77.120626705969
 30
1.000999532152e-07
 10
40.097657872772
 20
77.239068990911
 30
1.000999532152e-07
 10
40.387672569553
 20
77.355348942368
 30
1.000999532152e-07
 10
40.675249699526
 20
77.46522012419
 30
1.000999532152e-07
 10
40.960268918336
 20
77.568693855527
 30
1.000999532152e-07
 10
41.069122324594
 20
77.608212131387
 30
9.999996564147e-08
 10
41.17760237639
 20
77.646796808526
 30
1.000999532152e-07
 10
41.285701341951
 20
77.684446773571
 30
1.000999532152e-07
 10
41.314800902955
 20
77.69458190714
 30
1.000999532152e-07
 10
41.343865934742
 20
77.704648419191
 30
9.999996564147e-08
 10
41.372894296411
 20
77.714645777066
 30
9.999996564147e-08
 10
41.759417436834
 20
77.847764215021
 30
1.000999532152e-07
 10
42.139568318397
 20
77.968670313202
 30
1.00099981637e-07
 10
42.513488438899
 20
78.077893192528
 30
1.00099981637e-07
 10
42.892357218302
 20
78.188561585867
 30
1.00099981637e-07
 10
43.264829309839
 20
78.287235327591
 30
1.00099981637e-07
 10
43.631031477195
 20
78.374415029663
 30
9.999999406318e-08
 10
44.0060717784
 20
78.463698776835
 30
1.00099981637e-07
 10
44.374536000159
 20
78.540926912112
 30
9.999999406318e-08
 10
44.736537223927
 20
78.606586789144
 30
1.00099981637e-07
 10
45.101493653566
 20
78.672782682193
 30
1.00099981637e-07
 10
45.459881223336
 20
78.727220460067
 30
1.00099981637e-07
 10
45.811790949805
 20
78.770351235659
 30
1.00099981637e-07
 10
46.170152287322
 20
78.814272733892
 30
1.00099981637e-07
 10
46.521796234392
 20
78.846468696775
 30
1.00099981637e-07
 10
46.866791350771
 20
78.867368257995
 30
1.00099981637e-07
 10
47.191134678159
 20
78.88701674838
 30
1.00099981637e-07
 10
47.509601174382
 20
78.896680183225
 30
1.00099981637e-07
 10
47.822224568496
 20
78.896680183225
 30
1.00099981637e-07
  0
SPLINE
  5
30
330
17
100
AcDbEntity
  8
CUT
100
AcDbSpline
 70
0
 71
3
 72
59
 73
55
 74
0
 40
0.0
 40
0.0
 40
0.0
 40
0.0
 40
0.2223799892245825
 40
0.2223799892245825
 40
0.2223799892245825
 40
0.2874984866966506
 40
0.2874984866966506
 40
0.2874984866966506
 40
0.324031074312288
 40
0.324031074312288
 40
0.324031074312288
 40
0.34827145562068573
 40
0.34827145562068573
 40
0.34827145562068573
 40
0.35261698416871873
 40
0.35261698416871873
 40
0.35261698416871873
 40
0.4908316809890062
 40
0.4908316809890062
 40
0.4908316809890062
 40
0.6192109762279863
 40
0.6192109762279863
 40
0.6192109762279863
 40
0.7127867230439114
 40
0.7127867230439114
 40
0.7127867230439114
 40
0.7396563144215893
 40
0.7396563144215893
 40
0.7396563144215893
 40
0.7660353629430159
 40
0.7660353629430159
 40
0.7660353629430159
 40
0.7761099442186788
 40
0.7761099442186788
 40
0.7761099442186788
 40
0.7788049555230365
 40
0.7788049555230365
 40
0.7788049555230365
 40
0.8146900062980872
 40
0.8146900062980872
 40
0.8146900062980872
 40
0.8510499790323809
 40
0.8510499790323809
 40
0.8510499790323809
 40
0.8882874842742857
 40
0.8882874842742857
 40
0.8882874842742857
 40
0.9258289788038487
 40
0.9258289788038487
 40
0.9258289788038487
 40
0.964058726888887
 40
0.964058726888887
 40
0.964058726888887
 40
1.0
 40
1.0
 40
1.0
 40
1.0
 10
79.822224568495
 20
55.395824108019
 30
1.001000384804e-07
 10
77.913655283701
 20
58.317249313077
 30
1.000000509066e-07
 10
75.721032500917
 20
61.202510065277
 30
1.000000509066e-07
 10
73.345934219304
 20
63.86303017071
 30
1.001000100587e-07
 10
72.650445241245
 20
64.642097893321
 30
1.001000100587e-07
 10
71.939766595232
 20
65.402575330133
 30
1.001000100587e-07
 10
71.21714841927
 20
66.140412932333
 30
1.001000100587e-07
 10
70.811747298996
 20
66.55435241028
 30
1.001000100587e-07
 10
70.402588371638
 20
66.961166296104
 30
1.001000100587e-07
 10
69.99024573777
 20
67.360140241164
 30
1.001000100587e-07
 10
69.716645006824
 20
67.624870477698
 30
1.001000100587e-07
 10
69.441642591411
 20
67.886149042981
 30
1.001000100587e-07
 10
69.165406217395
 20
68.143767404576
 30
1.001000100587e-07
 10
69.115885830981
 20
68.189950174166
 30
1.001000100587e-07
 10
69.066325789283
 20
68.236015315372
 30
1.001000100587e-07
 10
69.01672705702
 20
68.28196162872
 30
1.001000100587e-07
 10
67.43937958919
 20
69.743154238024
 30
1.000000224849e-07
 10
65.813540453885
 20
71.086519178286
 30
1.000000224849e-07
 10
64.181176892453
 20
72.287127870437
 30
1.001000100587e-07
 10
62.664972838819
 20
73.402300867971
 30
1.001000100587e-07
 10
61.143142277987
 20
74.394311057354
 30
1.000000224849e-07
 10
59.649331290919
 20
75.243218734851
 30
1.001000100587e-07
 10
58.560491548839
 20
75.861988060165
 30
1.00099981637e-07
 10
57.48653890778
 20
76.40472825642
 30
1.00099981637e-07
 10
56.440498974549
 20
76.863734801903
 30
1.00099981637e-07
 10
56.140136257433
 20
76.995535174715
 30
1.00099981637e-07
 10
55.842199053174
 20
77.120626705946
 30
9.999999406318e-08
 10
55.546791264293
 20
77.23906899088
 30
9.999999406318e-08
 10
55.256776567491
 20
77.355348942348
 30
9.999999406318e-08
 10
54.969199437499
 20
77.465220124178
 30
1.00099981637e-07
 10
54.684180218668
 20
77.568693855523
 30
1.00099981637e-07
 10
54.575326812407
 20
77.608212131385
 30
1.00099981637e-07
 10
54.466846760609
 20
77.646796808524
 30
1.00099981637e-07
 10
54.358747795044
 20
77.68444677357
 30
1.00099981637e-07
 10
54.32964823404
 20
77.694581907138
 30
1.00099981637e-07
 10
54.300583202252
 20
77.70464841919
 30
1.00099981637e-07
 10
54.271554840582
 20
77.714645777065
 30
1.00099981637e-07
 10
53.88503170016
 20
77.847764215019
 30
1.00099981637e-07
 10
53.504880818598
 20
77.968670313201
 30
1.00099981637e-07
 10
53.130960698097
 20
78.077893192527
 30
1.00099981637e-07
 10
52.752091918703
 20
78.188561585863
 30
9.999999406318e-08
 10
52.379619827174
 20
78.287235327586
 30
1.00099981637e-07
 10
52.013417659826
 20
78.374415029656
 30
9.999999406318e-08
 10
51.638377358619
 20
78.463698776829
 30
1.00099981637e-07
 10
51.269913136857
 20
78.540926912108
 30
1.00099981637e-07
 10
50.907911913086
 20
78.60658678914
 30
1.00099981637e-07
 10
50.542955483448
 20
78.672782682189
 30
1.00099981637e-07
 10
50.184567913679
 20
78.727220460063
 30
1.00099981637e-07
 10
49.832658187211
 20
78.770351235656
 30
1.00099981637e-07
 10
49.474296849699
 20
78.81427273389
 30
1.00099981637e-07
 10
49.122652902633
 20
78.846468696773
 30
1.00099981637e-07
 10
48.777657786259
 20
78.867368257993
 30
1.00099981637e-07
 10
48.453314458857
 20
78.88701674838
 30
1.00099981637e-07
 10
48.134847962622
 20
78.896680183225
 30
1.00099981637e-07
 10
47.822224568496
 20
78.896680183225
 30
1.00099981637e-07
  0
LINE
  5
31
330
17
100
AcDbEntity
  8
CUT
100
AcDbLine
 10
79.822224568496
 20
55.395824108019
 30
1.001000444255e-07
 11
79.822224568495
 21
23.01375142787
 31
1.000000568517e-07
  0
ARC
  5
32
330
17
100
AcDbEntity
  8
CUT
100
AcDbCircle
 10
48.930928372554
 20
49.997947357421
 30
9.999999406318e-08
 40
41.017301357236
100
AcDbArc
 50
293.88350749610845
 51
318.86210463797715
  0
LINE
  5
33
330
17
100
AcDbEntity
  8
CUT
100
AcDbLine
 10
65.53794785679
 20
12.49293549927
 30
1.001000160037e-07
 11
30.10650128025
 21
12.49293549925
 31
1.000999591603e-07
  0
ARC
  5
34
330
17
100
AcDbEntity
  8
CUT
100
AcDbCircle
 10
46.713520764437
 20
49.99794735742
 30
9.999999406318e-08
 40
41.017301357236
100
AcDbArc
 50
221.137895362036
 51
246.11649250396488
  0
LINE
  5
35
330
17
100
AcDbEntity
  8
CUT
100
AcDbLine
 10
15.8222245685
 20
23.01375142786
 30
1.000999307386e-07
 11
15.8222245685
 21
55.395824108019
 31
1.000999307386e-07
  0
CIRCLE
  5
36
330
17
100
AcDbEntity
  8
CUT
100
AcDbCircle
 10
11.8222245685
 20
56.586627094805
 30
1.000999247935e-07
 40
1.0
  0
CIRCLE
  5
37
330
17
100
AcDbEntity
  8
CUT
100
AcDbCircle
 10
47.822224568495
 20
82.896680183221
 30
9.999999406318e-08
 40
1.0
  0
CIRCLE
  5
38
330
17
100
AcDbEntity
  8
CUT
100
AcDbCircle
 10
83.822224568495
 20
56.586627094801
 30
1.001000384804e-07
 40
1.0
  0
LINE
  5
39
330
17
100
AcDbEntity
  8
CUT
100
AcDbLine
 10
50.322224568496
 20
7.49293549926
 30
1.00099987582e-07
 11
50.322224568496
 21
1.000097071824e-07
 31
1.000000000083e-07
  0
ARC
  5
3A
330
17
100
AcDbEntity
  8
CUT
100
AcDbCircle
 10
48.930928372554
 20
49.997947357421
 30
9.999999406318e-08
 40
50.017301357236
100
AcDbArc
 50
271.59396211742705
 51
335.7748105319897
  0
ARC
  5
3B
330
17
100
AcDbEntity
  8
CUT
100
AcDbCircle
 10
83.144449037004
 20
34.603698273009
 30
1.000000509066e-07
 40
12.5
100
AcDbArc
 50
-24.22518946799559
 51
2.842170943040401e-14
  0
LINE
  5
3C
330
17
100
AcDbEntity
  8
CUT
100
AcDbLine
 10
95.644449037004
 20
34.603698273009
 30
1.000000852734e-07
 11
95.644449037004
 21
36.706881688065
 31
1.000000852734e-07
  0
LINE
  5
3D
330
17
100
AcDbEntity
  8
CUT
100
AcDbLine
 10
95.644449037004
 20
36.706881688065
 30
1.000000852734e-07
 11
85.644449037003
 21
36.706881688066
 31
1.000000568517e-07
  0
LINE
  5
3E
330
17
100
AcDbEntity
  8
CUT
100
AcDbLine
 10
85.644449037003
 20
36.706881688066
 30
1.000000568517e-07
 11
85.644449037003
 21
41.706881688066
 31
1.001000444255e-07
  0
LINE
  5
3F
330
17
100
AcDbEntity
  8
CUT
100
AcDbLine
 10
85.644449037003
 20
41.706881688066
 30
1.001000444255e-07
 11
95.644449037004
 21
41.706881688065
 31
1.000000852734e-07
  0
LINE
  5
40
330
17
100
AcDbEntity
  8
CUT
100
AcDbLine
 10
95.644449037004
 20
41.706881688065
 30
1.000000852734e-07
 11
95.644449037004
 21
42.272202038215
 31
1.000000852734e-07
  0
SPLINE
  5
41
330
17
100
AcDbEntity
  8
CUT
100
AcDbSpline
 70
0
 71
3
 72
14
 73
10
 74
0
 40
0.0
 40
0.0
 40
0.0
 40
0.0
 40
0.1371529864101902
 40
0.1371529864101902
 40
0.5406860922600973
 40
0.5406860922600973
 40
0.8412258704226744
 40
0.8412258704226744
 40
1.0
 40
1.0
 40
1.0
 40
1.0
 10
95.644449037004
 20
42.272202038215
 30
1.000000793283e-07
 10
94.979334148783
 20
44.927869659556
 30
1.000000793283e-07
 10
93.990583147817
 20
47.752217844848
 30
1.000000793283e-07
 10
88.913588797228
 20
59.085478662894
 30
1.000000509066e-07
 10
82.588916859137
 20
67.977457331746
 30
1.001000384804e-07
 10
69.579952045136
 20
80.028450298479
 30
1.000000224849e-07
 10
63.406545615926
 20
84.063435362926
 30
1.001000100587e-07
 10
54.102913920316
 20
87.303812422141
 30
1.00099981637e-07
 10
50.917862311689
 20
87.896680183225
 30
1.00099981637e-07
 10
47.822224568496
 20
87.896680183225
 30
1.00099981637e-07
  0
SPLINE
  5
42
330
17
100
AcDbEntity
  8
CUT
100
AcDbSpline
 70
0
 71
3
 72
14
 73
10
 74
0
 40
0.0
 40
0.0
 40
0.0
 40
0.0
 40
0.1371529864101902
 40
0.1371529864101902
 40
0.5406860922600973
 40
0.5406860922600973
 40
0.8412258704226744
 40
0.8412258704226744
 40
1.0
 40
1.0
 40
1.0
 40
1.0
 10
1.00000155337e-07
 20
42.272202038241
 30
1.000998963718e-07
 10
0.66511498822
 20
44.927869659572
 30
1.000998963718e-07
 10
1.65386598918
 20
47.752217844853
 30
1.000998963718e-07
 10
6.73086033977
 20
59.085478662895
 30
1.000998963718e-07
 10
13.05553227787
 20
67.977457331756
 30
1.000999247935e-07
 10
26.06449709187
 20
80.028450298488
 30
1.000999532152e-07
 10
32.23790352108
 20
84.06343536293
 30
1.000999532152e-07
 10
41.541535216679
 20
87.303812422142
 30
1.000999532152e-07
 10
44.726586825305
 20
87.896680183226
 30
1.00099981637e-07
 10
47.822224568496
 20
87.896680183225
 30
1.00099981637e-07
  0
LINE
  5
43
330
17
100
AcDbEntity
  8
CUT
100
AcDbLine
 10
1.00000157488e-07
 20
42.272202038241
 30
1.000999023169e-07
 11
1.00000157488e-07
 21
41.706881688066
 31
1.000999023169e-07
  0
LINE
  5
44
330
17
100
AcDbEntity
  8
CUT
100
AcDbLine
 10
1.00000157488e-07
 20
41.706881688066
 30
1.000999023169e-07
 11
10.00000009999
 21
41.706881688066
 31
1.000999307386e-07
  0
LINE
  5
45
330
17
100
AcDbEntity
  8
CUT
100
AcDbLine
 10
10.00000009999
 20
41.706881688066
 30
1.000999307386e-07
 11
10.00000009999
 21
36.706881688067
 31
1.000999307386e-07
  0
LINE
  5
46
330
17
100
AcDbEntity
  8
CUT
100
AcDbLine
 10
10.00000009999
 20
36.706881688067
 30
1.000999307386e-07
 11
1.00000157488e-07
 21
36.706881688066
 31
1.000999023169e-07
  0
LINE
  5
47
330
17
100
AcDbEntity
  8
CUT
100
AcDbLine
 10
1.00000157488e-07
 20
36.706881688066
 30
1.000999023169e-07
 11
1.00000157488e-07
 21
34.603698272997
 31
1.000999023169e-07
  0
ARC
  5
48
330
17
100
AcDbEntity
  8
CUT
100
AcDbCircle
 10
12.5000001
 20
34.603698272996
 30
1.000999247935e-07
 40
12.5
100
AcDbArc
 50
-180.0000000000046
 51
-155.77481053198636
  0
ARC
  5
49
330
17
100
AcDbEntity
  8
CUT
100
AcDbCircle
 10
46.713520764437
 20
49.99794735742
 30
9.999999406318e-08
 40
50.017301357236
100
AcDbArc
 50
204.22518946803342
 51
268.406037882574
  0
LINE
  5
4A
330
17
100
AcDbEntity
  8
CUT
100
AcDbLine
 10
45.322224568496
 20
1.000097071824e-07
 30
1.00099987582e-07
 11
45.322224568496
 21
7.49293549926
 31
1.00099987582e-07
  0
LINE
  5
4B
330
17
100
AcDbEntity
  8
CUT
100
AcDbLine
 10
45.322224568496
 20
7.49293549926
 30
1.00099987582e-07
 11
50.322224568496
 21
7.49293549926
 31
1.00099987582e-07
  0
TEXT
  5
51
330
17
100
AcDbEntity
  8
LABELS_NONCUT
100
AcDbText
 10
0.0
 20
-6.0
 30
0.0
 40
3.0
  1
A34 PLY 5.000mm QTY 1
100
AcDbText
  0
ENDSEC
  0
SECTION
  2
OBJECTS
  0
DICTIONARY
  5
A
330
0
100
AcDbDictionary
281
1
  3
ACAD_COLOR
350
B
  3
ACAD_GROUP
350
C
  3
ACAD_LAYOUT
350
D
  3
ACAD_MATERIAL
350
E
  3
ACAD_MLEADERSTYLE
350
F
  3
ACAD_MLINESTYLE
350
10
  3
ACAD_PLOTSETTINGS
350
11
  3
ACAD_PLOTSTYLENAME
350
12
  3
ACAD_SCALELIST
350
14
  3
ACAD_TABLESTYLE
350
15
  3
ACAD_VISUALSTYLE
350
16
  3
EZDXF_META
350
2D
  0
DICTIONARY
  5
B
330
A
100
AcDbDictionary
281
1
  0
DICTIONARY
  5
C
330
A
100
AcDbDictionary
281
1
  0
DICTIONARY
  5
D
330
A
100
AcDbDictionary
281
1
  3
Model
350
1A
  3
Layout1
350
1E
  0
DICTIONARY
  5
E
330
A
100
AcDbDictionary
281
1
  3
ByBlock
350
1F
  3
ByLayer
350
20
  3
Global
350
21
  0
DICTIONARY
  5
F
330
A
100
AcDbDictionary
281
1
  3
Standard
350
2C
  0
DICTIONARY
  5
10
330
A
100
AcDbDictionary
281
1
  3
Standard
350
22
  0
DICTIONARY
  5
11
330
A
100
AcDbDictionary
281
1
  0
ACDBDICTIONARYWDFLT
  5
12
330
A
100
AcDbDictionary
281
1
  3
Normal
350
13
100
AcDbDictionaryWithDefault
340
13
  0
ACDBPLACEHOLDER
  5
13
330
12
  0
DICTIONARY
  5
14
330
A
100
AcDbDictionary
281
1
  0
DICTIONARY
  5
15
330
A
100
AcDbDictionary
281
1
  0
DICTIONARY
  5
16
330
A
100
AcDbDictionary
281
1
  0
LAYOUT
  5
1A
330
D
100
AcDbPlotSettings
  1

  4
A3
  6

 40
7.5
 41
20.0
 42
7.5
 43
20.0
 44
420.0
 45
297.0
 46
0.0
 47
0.0
 48
0.0
 49
0.0
140
0.0
141
0.0
142
1.0
143
1.0
 70
1024
 72
1
 73
0
 74
5
  7

 75
16
 76
0
 77
2
 78
300
147
1.0
148
0.0
149
0.0
100
AcDbLayout
  1
Model
 70
1
 71
0
 10
0.0
 20
0.0
 11
420.0
 21
297.0
 12
0.0
 22
0.0
 32
0.0
 14
1e+20
 24
1e+20
 34
1e+20
 15
-1e+20
 25
-1e+20
 35
-1e+20
146
0.0
 13
0.0
 23
0.0
 33
0.0
 16
1.0
 26
0.0
 36
0.0
 17
0.0
 27
1.0
 37
0.0
 76
1
330
17
  0
LAYOUT
  5
1E
330
D
100
AcDbPlotSettings
  1

  4
A3
  6

 40
7.5
 41
20.0
 42
7.5
 43
20.0
 44
420.0
 45
297.0
 46
0.0
 47
0.0
 48
0.0
 49
0.0
140
0.0
141
0.0
142
1.0
143
1.0
 70
0
 72
1
 73
0
 74
5
  7

 75
16
 76
0
 77
2
 78
300
147
1.0
148
0.0
149
0.0
100
AcDbLayout
  1
Layout1
 70
1
 71
1
 10
0.0
 20
0.0
 11
420.0
 21
297.0
 12
0.0
 22
0.0
 32
0.0
 14
1e+20
 24
1e+20
 34
1e+20
 15
-1e+20
 25
-1e+20
 35
-1e+20
146
0.0
 13
0.0
 23
0.0
 33
0.0
 16
1.0
 26
0.0
 36
0.0
 17
0.0
 27
1.0
 37
0.0
 76
1
330
1B
  0
MATERIAL
  5
1F
102
{ACAD_REACTORS
330
E
102
}
330
E
100
AcDbMaterial
  1
ByBlock
  2

 70
0
 40
1.0
 71
1
 41
1.0
 91
-1023410177
 42
1.0
 72
1
  3

 73
1
 74
1
 75
1
 44
0.5
 73
0
 45
1.0
 46
1.0
 77
1
  4

 78
1
 79
1
170
1
 48
1.0
171
1
  6

172
1
173
1
174
1
140
1.0
141
1.0
175
1
  7

176
1
177
1
178
1
143
1.0
179
1
  8

270
1
271
1
272
1
145
1.0
146
1.0
273
1
  9

274
1
275
1
276
1
 42
1.0
 72
1
  3

 73
1
 74
1
 75
1
 94
63
  0
MATERIAL
  5
20
102
{ACAD_REACTORS
330
E
102
}
330
E
100
AcDbMaterial
  1
ByLayer
  2

 70
0
 40
1.0
 71
1
 41
1.0
 91
-1023410177
 42
1.0
 72
1
  3

 73
1
 74
1
 75
1
 44
0.5
 73
0
 45
1.0
 46
1.0
 77
1
  4

 78
1
 79
1
170
1
 48
1.0
171
1
  6

172
1
173
1
174
1
140
1.0
141
1.0
175
1
  7

176
1
177
1
178
1
143
1.0
179
1
  8

270
1
271
1
272
1
145
1.0
146
1.0
273
1
  9

274
1
275
1
276
1
 42
1.0
 72
1
  3

 73
1
 74
1
 75
1
 94
63
  0
MATERIAL
  5
21
102
{ACAD_REACTORS
330
E
102
}
330
E
100
AcDbMaterial
  1
Global
  2

 70
0
 40
1.0
 71
1
 41
1.0
 91
-1023410177
 42
1.0
 72
1
  3

 73
1
 74
1
 75
1
 44
0.5
 73
0
 45
1.0
 46
1.0
 77
1
  4

 78
1
 79
1
170
1
 48
1.0
171
1
  6

172
1
173
1
174
1
140
1.0
141
1.0
175
1
  7

176
1
177
1
178
1
143
1.0
179
1
  8

270
1
271
1
272
1
145
1.0
146
1.0
273
1
  9

274
1
275
1
276
1
 42
1.0
 72
1
  3

 73
1
 74
1
 75
1
 94
63
  0
MLINESTYLE
  5
22
102
{ACAD_REACTORS
330
10
102
}
330
10
100
AcDbMlineStyle
  2
Standard
 70
0
  3

 62
256
 51
90.0
 52
90.0
 71
2
 49
0.5
 62
256
  6
BYLAYER
 49
-0.5
 62
256
  6
BYLAYER
  0
MLEADERSTYLE
  5
2C
102
{ACAD_REACTORS
330
F
102
}
330
F
100
AcDbMLeaderStyle
179
2
170
2
171
1
172
0
 90
2
 40
0.0
 41
0.0
173
1
 91
-1056964608
 92
-2
290
1
 42
2.0
291
1
 43
8.0
  3
Standard
 44
4.0
300

342
29
174
1
175
1
176
0
178
1
 93
-1056964608
 45
4.0
292
0
297
0
 46
4.0
 94
-1056964608
 47
1.0
 49
1.0
140
1.0
294
1
141
0.0
177
0
142
1.0
295
0
296
0
143
3.75
271
0
272
9
273
9
  0
DICTIONARY
  5
2D
330
A
100
AcDbDictionary
280
1
281
1
  3
CREATED_BY_EZDXF
350
2E
  3
WRITTEN_BY_EZDXF
350
4F
  0
DICTIONARYVAR
  5
2E
330
2D
100
DictionaryVariables
280
0
  1
1.4.4 @ 2026-09-19T11:24:46.295300+00:00
  0
DICTIONARYVAR
  5
4F
330
2D
100
DictionaryVariables
280
0
  1
1.4.4 @ 2026-09-19T11:25:50.352764+00:00
  0
ENDSEC
  0
EOF
