  0
SECTION
  2
HEADER
  9
$ACADVER
  1
AC1027
  9
$ACADMAINTVER
 70
105
  9
$DWGCODEPAGE
  3
ANSI_1252
  9
$LASTSAVEDBY
  1
ezdxf
  9
$REQUIREDVERSIONS
160
0
  9
$INSBASE
 10
0.0
 20
0.0
 30
0.0
  9
$EXTMIN
 10
1e+20
 20
1e+20
 30
1e+20
  9
$EXTMAX
 10
-1e+20
 20
-1e+20
 30
-1e+20
  9
$LIMMIN
 10
0.0
 20
0.0
  9
$LIMMAX
 10
420.0
 20
297.0
  9
$ORTHOMODE
 70
0
  9
$REGENMODE
 70
1
  9
$FILLMODE
 70
1
  9
$QTEXTMODE
 70
0
  9
$MIRRTEXT
 70
1
  9
$LTSCALE
 40
1.0
  9
$ATTMODE
 70
1
  9
$TEXTSIZE
 40
2.5
  9
$TRACEWID
 40
1.0
  9
$TEXTSTYLE
  7
Standard
  9
$CLAYER
  8
0
  9
$CELTYPE
  6
ByLayer
  9
$CECOLOR
 62
256
  9
$CELTSCALE
 40
1.0
  9
$DISPSILH
 70
0
  9
$DIMSCALE
 40
1.0
  9
$DIMASZ
 40
2.5
  9
$DIMEXO
 40
0.625
  9
$DIMDLI
 40
3.75
  9
$DIMRND
 40
0.0
  9
$DIMDLE
 40
0.0
  9
$DIMEXE
 40
1.25
  9
$DIMTP
 40
0.0
  9
$DIMTM
 40
0.0
  9
$DIMTXT
 40
2.5
  9
$DIMCEN
 40
2.5
  9
$DIMTSZ
 40
0.0
  9
$DIMTOL
 70
0
  9
$DIMLIM
 70
0
  9
$DIMTIH
 70
0
  9
$DIMTOH
 70
0
  9
$DIMSE1
 70
0
  9
$DIMSE2
 70
0
  9
$DIMTAD
 70
1
  9
$DIMZIN
 70
8
  9
$DIMBLK
  1

  9
$DIMASO
 70
1
  9
$DIMSHO
 70
1
  9
$DIMPOST
  1

  9
$DIMAPOST
  1

  9
$DIMALT
 70
0
  9
$DIMALTD
 70
3
  9
$DIMALTF
 40
0.03937007874
  9
$DIMLFAC
 40
1.0
  9
$DIMTOFL
 70
1
  9
$DIMTVP
 40
0.0
  9
$DIMTIX
 70
0
  9
$DIMSOXD
 70
0
  9
$DIMSAH
 70
0
  9
$DIMBLK1
  1

  9
$DIMBLK2
  1

  9
$DIMSTYLE
  2
ISO-25
  9
$DIMCLRD
 70
0
  9
$DIMCLRE
 70
0
  9
$DIMCLRT
 70
0
  9
$DIMTFAC
 40
1.0
  9
$DIMGAP
 40
0.625
  9
$DIMJUST
 70
0
  9
$DIMSD1
 70
0
  9
$DIMSD2
 70
0
  9
$DIMTOLJ
 70
0
  9
$DIMTZIN
 70
8
  9
$DIMALTZ
 70
0
  9
$DIMALTTZ
 70
0
  9
$DIMUPT
 70
0
  9
$DIMDEC
 70
2
  9
$DIMTDEC
 70
2
  9
$DIMALTU
 70
2
  9
$DIMALTTD
 70
3
  9
$DIMTXSTY
  7
Standard
  9
$DIMAUNIT
 70
0
  9
$DIMADEC
 70
0
  9
$DIMALTRND
 40
0.0
  9
$DIMAZIN
 70
0
  9
$DIMDSEP
 70
44
  9
$DIMATFIT
 70
3
  9
$DIMFRAC
 70
0
  9
$DIMLDRBLK
  1

  9
$DIMLUNIT
 70
2
  9
$DIMLWD
 70
-2
  9
$DIMLWE
 70
-2
  9
$DIMTMOVE
 70
0
  9
$DIMFXL
 40
1.0
  9
$DIMFXLON
 70
0
  9
$DIMJOGANG
 40
0.785398163397
  9
$DIMTFILL
 70
0
  9
$DIMTFILLCLR
 70
0
  9
$DIMARCSYM
 70
0
  9
$DIMLTYPE
  6

  9
$DIMLTEX1
  6

  9
$DIMLTEX2
  6

  9
$DIMTXTDIRECTION
 70
0
  9
$LUNITS
 70
2
  9
$LUPREC
 70
4
  9
$SKETCHINC
 40
1.0
  9
$FILLETRAD
 40
10.0
  9
$AUNITS
 70
0
  9
$AUPREC
 70
2
  9
$MENU
  1
.
  9
$ELEVATION
 40
0.0
  9
$PELEVATION
 40
0.0
  9
$THICKNESS
 40
0.0
  9
$LIMCHECK
 70
0
  9
$CHAMFERA
 40
0.0
  9
$CHAMFERB
 40
0.0
  9
$CHAMFERC
 40
0.0
  9
$CHAMFERD
 40
0.0
  9
$SKPOLY
 70
0
  9
$TDCREATE
 40
2461303.705439815
  9
$TDUCREATE
 40
2458532.153996898
  9
$TDUPDATE
 40
2461303.705439815
  9
$TDUUPDATE
 40
2458532.1544311
  9
$TDINDWG
 40
0.0
  9
$TDUSRTIMER
 40
0.0
  9
$USRTIMER
 70
1
  9
$ANGBASE
 50
0.0
  9
$ANGDIR
 70
0
  9
$PDMODE
 70
0
  9
$PDSIZE
 40
0.0
  9
$PLINEWID
 40
0.0
  9
$SPLFRAME
 70
0
  9
$SPLINETYPE
 70
6
  9
$SPLINESEGS
 70
8
  9
$HANDSEED
  5
48
  9
$SURFTAB1
 70
6
  9
$SURFTAB2
 70
6
  9
$SURFTYPE
 70
6
  9
$SURFU
 70
6
  9
$SURFV
 70
6
  9
$UCSBASE
  2

  9
$UCSNAME
  2

  9
$UCSORG
 10
0.0
 20
0.0
 30
0.0
  9
$UCSXDIR
 10
1.0
 20
0.0
 30
0.0
  9
$UCSYDIR
 10
0.0
 20
1.0
 30
0.0
  9
$UCSORTHOREF
  2

  9
$UCSORTHOVIEW
 70
0
  9
$UCSORGTOP
 10
0.0
 20
0.0
 30
0.0
  9
$UCSORGBOTTOM
 10
0.0
 20
0.0
 30
0.0
  9
$UCSORGLEFT
 10
0.0
 20
0.0
 30
0.0
  9
$UCSORGRIGHT
 10
0.0
 20
0.0
 30
0.0
  9
$UCSORGFRONT
 10
0.0
 20
0.0
 30
0.0
  9
$UCSORGBACK
 10
0.0
 20
0.0
 30
0.0
  9
$PUCSBASE
  2

  9
$PUCSNAME
  2

  9
$PUCSORG
 10
0.0
 20
0.0
 30
0.0
  9
$PUCSXDIR
 10
1.0
 20
0.0
 30
0.0
  9
$PUCSYDIR
 10
0.0
 20
1.0
 30
0.0
  9
$PUCSORTHOREF
  2

  9
$PUCSORTHOVIEW
 70
0
  9
$PUCSORGTOP
 10
0.0
 20
0.0
 30
0.0
  9
$PUCSORGBOTTOM
 10
0.0
 20
0.0
 30
0.0
  9
$PUCSORGLEFT
 10
0.0
 20
0.0
 30
0.0
  9
$PUCSORGRIGHT
 10
0.0
 20
0.0
 30
0.0
  9
$PUCSORGFRONT
 10
0.0
 20
0.0
 30
0.0
  9
$PUCSORGBACK
 10
0.0
 20
0.0
 30
0.0
  9
$USERI1
 70
0
  9
$USERI2
 70
0
  9
$USERI3
 70
0
  9
$USERI4
 70
0
  9
$USERI5
 70
0
  9
$USERR1
 40
0.0
  9
$USERR2
 40
0.0
  9
$USERR3
 40
0.0
  9
$USERR4
 40
0.0
  9
$USERR5
 40
0.0
  9
$WORLDVIEW
 70
1
  9
$SHADEDGE
 70
3
  9
$SHADEDIF
 70
70
  9
$TILEMODE
 70
1
  9
$MAXACTVP
 70
64
  9
$PINSBASE
 10
0.0
 20
0.0
 30
0.0
  9
$PLIMCHECK
 70
0
  9
$PEXTMIN
 10
1e+20
 20
1e+20
 30
1e+20
  9
$PEXTMAX
 10
-1e+20
 20
-1e+20
 30
-1e+20
  9
$PLIMMIN
 10
0.0
 20
0.0
  9
$PLIMMAX
 10
420.0
 20
297.0
  9
$UNITMODE
 70
0
  9
$VISRETAIN
 70
1
  9
$PLINEGEN
 70
0
  9
$PSLTSCALE
 70
1
  9
$TREEDEPTH
 70
3020
  9
$CMLSTYLE
  2
Standard
  9
$CMLJUST
 70
0
  9
$CMLSCALE
 40
20.0
  9
$PROXYGRAPHICS
 70
1
  9
$MEASUREMENT
 70
1
  9
$CELWEIGHT
370
-1
  9
$ENDCAPS
280
0
  9
$JOINSTYLE
280
0
  9
$LWDISPLAY
290
0
  9
$INSUNITS
 70
4
  9
$HYPERLINKBASE
  1

  9
$STYLESHEET
  1

  9
$XEDIT
290
1
  9
$CEPSNTYPE
380
0
  9
$PSTYLEMODE
290
1
  9
$FINGERPRINTGUID
  2
{A87EEE97-9800-444A-9160-52EF015599B9}
  9
$VERSIONGUID
  2
{B814179A-4A40-42B3-856D-04E24602FC79}
  9
$EXTNAMES
290
1
  9
$PSVPSCALE
 40
0.0
  9
$OLESTARTUP
290
0
  9
$SORTENTS
280
127
  9
$INDEXCTL
280
0
  9
$HIDETEXT
280
1
  9
$XCLIPFRAME
280
1
  9
$HALOGAP
280
0
  9
$OBSCOLOR
 70
257
  9
$OBSLTYPE
280
0
  9
$INTERSECTIONDISPLAY
280
0
  9
$INTERSECTIONCOLOR
 70
257
  9
$DIMASSOC
280
2
  9
$PROJECTNAME
  1

  9
$CAMERADISPLAY
290
0
  9
$LENSLENGTH
 40
50.0
  9
$CAMERAHEIGHT
 40
0.0
  9
$STEPSPERSEC
 40
24.0
  9
$STEPSIZE
 40
100.0
  9
$3DDWFPREC
 40
2.0
  9
$PSOLWIDTH
 40
0.005
  9
$PSOLHEIGHT
 40
0.08
  9
$LOFTANG1
 40
1.570796326795
  9
$LOFTANG2
 40
1.570796326795
  9
$LOFTMAG1
 40
0.0
  9
$LOFTMAG2
 40
0.0
  9
$LOFTPARAM
 70
7
  9
$LOFTNORMALS
280
1
  9
$LATITUDE
 40
37.795
  9
$LONGITUDE
 40
-122.394
  9
$NORTHDIRECTION
 40
0.0
  9
$TIMEZONE
 70
-8000
  9
$LIGHTGLYPHDISPLAY
280
1
  9
$TILEMODELIGHTSYNCH
280
1
  9
$CMATERIAL
347
20
  9
$SOLIDHIST
280
0
  9
$SHOWHIST
280
1
  9
$DWFFRAME
280
2
  9
$DGNFRAME
280
2
  9
$REALWORLDSCALE
290
1
  9
$INTERFERECOLOR
 62
256
  9
$CSHADOW
280
0
  9
$SHADOWPLANELOCATION
 40
0.0
  0
ENDSEC
  0
SECTION
  2
CLASSES
  0
CLASS
  1
ACDBDICTIONARYWDFLT
  2
AcDbDictionaryWithDefault
  3
ObjectDBX Classes
 90
0
 91
0
280
0
281
0
  0
CLASS
  1
SUN
  2
AcDbSun
  3
SCENEOE
 90
1153
 91
0
280
0
281
0
  0
CLASS
  1
VISUALSTYLE
  2
AcDbVisualStyle
  3
ObjectDBX Classes
 90
4095
 91
0
280
0
281
0
  0
CLASS
  1
MATERIAL
  2
AcDbMaterial
  3
ObjectDBX Classes
 90
1153
 91
0
280
0
281
0
  0
CLASS
  1
SCALE
  2
AcDbScale
  3
ObjectDBX Classes
 90
1153
 91
0
280
0
281
0
  0
CLASS
  1
TABLESTYLE
  2
AcDbTableStyle
  3
ObjectDBX Classes
 90
4095
 91
0
280
0
281
0
  0
CLASS
  1
MLEADERSTYLE
  2
AcDbMLeaderStyle
  3
ACDB_MLEADERSTYLE_CLASS
 90
4095
 91
0
280
0
281
0
  0
CLASS
  1
DICTIONARYVAR
  2
AcDbDictionaryVar
  3
ObjectDBX Classes
 90
0
 91
0
280
0
281
0
  0
CLASS
  1
CELLSTYLEMAP
  2
AcDbCellStyleMap
  3
ObjectDBX Classes
 90
1152
 91
0
280
0
281
0
  0
CLASS
  1
MENTALRAYRENDERSETTINGS
  2
AcDbMentalRayRenderSettings
  3
SCENEOE
 90
1024
 91
0
280
0
281
0
  0
CLASS
  1
ACDBDETAILVIEWSTYLE
  2
AcDbDetailViewStyle
  3
ObjectDBX Classes
 90
1025
 91
0
280
0
281
0
  0
CLASS
  1
ACDBSECTIONVIEWSTYLE
  2
AcDbSectionViewStyle
  3
ObjectDBX Classes
 90
1025
 91
0
280
0
281
0
  0
CLASS
  1
RASTERVARIABLES
  2
AcDbRasterVariables
  3
ISM
 90
0
 91
0
280
0
281
0
  0
CLASS
  1
ACDBPLACEHOLDER
  2
AcDbPlaceHolder
  3
ObjectDBX Classes
 90
0
 91
0
280
0
281
0
  0
CLASS
  1
LAYOUT
  2
AcDbLayout
  3
ObjectDBX Classes
 90
0
 91
0
280
0
281
0
  0
ENDSEC
  0
SECTION
  2
TABLES
  0
TABLE
  2
VPORT
  5
8
330
0
100
AcDbSymbolTable
 70
1
  0
VPORT
  5
41
330
8
100
AcDbSymbolTableRecord
100
AcDbViewportTableRecord
  2
*Active
 70
0
 10
0.0
 20
0.0
 11
1.0
 21
1.0
 12
91.83159305536498
 22
8.334765644462005
 13
0.0
 23
0.0
 14
0.5
 24
0.5
 15
0.5
 25
0.5
 16
0.0
 26
0.0
 36
1.0
 17
0.0
 27
0.0
 37
0.0
 40
91.831592955365
 41
1.34
 42
50.0
 43
0.0
 44
0.0
 50
0.0
 51
0.0
 71
0
 72
1000
 73
1
 74
3
 75
0
 76
0
 77
0
 78
0
281
0
 65
1
110
0.0
120
0.0
130
0.0
111
1.0
121
0.0
131
0.0
112
0.0
122
1.0
132
0.0
 79
0
146
0.0
  0
ENDTAB
  0
TABLE
  2
LTYPE
  5
2
330
0
100
AcDbSymbolTable
 70
3
  0
LTYPE
  5
24
330
2
100
AcDbSymbolTableRecord
100
AcDbLinetypeTableRecord
  2
ByBlock
 70
0
  3

 72
65
 73
0
 40
0.0
  0
LTYPE
  5
25
330
2
100
AcDbSymbolTableRecord
100
AcDbLinetypeTableRecord
  2
ByLayer
 70
0
  3

 72
65
 73
0
 40
0.0
  0
LTYPE
  5
26
330
2
100
AcDbSymbolTableRecord
100
AcDbLinetypeTableRecord
  2
Continuous
 70
0
  3

 72
65
 73
0
 40
0.0
  0
ENDTAB
  0
TABLE
  2
LAYER
  5
1
330
0
100
AcDbSymbolTable
 70
4
  0
LAYER
  5
27
330
1
100
AcDbSymbolTableRecord
100
AcDbLayerTableRecord
  2
0
 70
0
 62
7
  6
Continuous
370
-3
390
13
347
21
  0
LAYER
  5
28
330
1
100
AcDbSymbolTableRecord
100
AcDbLayerTableRecord
  2
Defpoints
 70
0
 62
7
  6
Continuous
290
0
370
-3
390
13
347
21
  0
LAYER
  5
45
330
1
100
AcDbSymbolTableRecord
100
AcDbLayerTableRecord
  2
LABELS_NONCUT
 70
0
 62
3
  6
Continuous
370
-3
390
13
347
21
  0
LAYER
  5
47
330
1
100
AcDbSymbolTableRecord
100
AcDbLayerTableRecord
  2
CUT
 70
0
 62
1
  6
Continuous
370
-3
390
13
347
21
  0
ENDTAB
  0
TABLE
  2
STYLE
  5
5
330
0
100
AcDbSymbolTable
 70
1
  0
STYLE
  5
29
330
5
100
AcDbSymbolTableRecord
100
AcDbTextStyleTableRecord
  2
Standard
 70
0
 40
0.0
 41
1.0
 50
0.0
 71
0
 42
2.5
  3
txt
  4

  0
ENDTAB
  0
TABLE
  2
VIEW
  5
7
330
0
100
AcDbSymbolTable
 70
0
  0
ENDTAB
  0
TABLE
  2
UCS
  5
6
330
0
100
AcDbSymbolTable
 70
0
  0
ENDTAB
  0
TABLE
  2
APPID
  5
3
330
0
100
AcDbSymbolTable
 70
3
  0
APPID
  5
2A
330
3
100
AcDbSymbolTableRecord
100
AcDbRegAppTableRecord
  2
ACAD
 70
0
  0
APPID
  5
42
330
3
100
AcDbSymbolTableRecord
100
AcDbRegAppTableRecord
  2
HATCHBACKGROUNDCOLOR
 70
0
  0
APPID
  5
43
330
3
100
AcDbSymbolTableRecord
100
AcDbRegAppTableRecord
  2
EZDXF
 70
0
  0
ENDTAB
  0
TABLE
  2
DIMSTYLE
  5
4
330
0
100
AcDbSymbolTable
 70
1
100
AcDbDimStyleTable
  0
DIMSTYLE
105
2B
330
4
100
AcDbSymbolTableRecord
100
AcDbDimStyleTableRecord
  2
Standard
 70
0
 40
1.0
 41
2.5
 42
0.625
 43
3.75
 44
1.25
 45
0.0
 46
0.0
 47
0.0
 48
0.0
 49
2.5
140
2.5
141
2.5
142
0.0
143
0.03937007874
144
1.0
145
0.0
146
1.0
147
0.625
148
0.0
 69
0
 70
0
 71
0
 72
0
 73
0
 74
0
 75
0
 76
0
 77
1
 78
8
 79
3
170
0
171
3
172
1
173
0
174
0
175
0
176
0
177
0
178
0
179
2
271
2
272
2
273
2
274
3
275
0
276
0
277
2
278
44
279
0
280
0
281
0
282
0
283
0
284
8
285
0
286
0
288
0
289
3
290
0
371
-2
372
-2
  0
ENDTAB
  0
TABLE
  2
BLOCK_RECORD
  5
9
330
0
100
AcDbSymbolTable
 70
2
  0
BLOCK_RECORD
  5
17
330
9
100
AcDbSymbolTableRecord
100
AcDbBlockTableRecord
  2
*Model_Space
340
1A
 70
0
280
1
281
0
  0
BLOCK_RECORD
  5
1B
330
9
100
AcDbSymbolTableRecord
100
AcDbBlockTableRecord
  2
*Paper_Space
340
1E
 70
0
280
1
281
0
  0
ENDTAB
  0
ENDSEC
  0
SECTION
  2
BLOCKS
  0
BLOCK
  5
18
330
17
100
AcDbEntity
  8
0
100
AcDbBlockBegin
  2
*Model_Space
 70
0
 10
0.0
 20
0.0
 30
0.0
  3
*Model_Space
  1

  0
ENDBLK
  5
19
330
17
100
AcDbEntity
  8
0
100
AcDbBlockEnd
  0
BLOCK
  5
1C
330
1B
100
AcDbEntity
  8
0
100
AcDbBlockBegin
  2
*Paper_Space
 70
0
 10
0.0
 20
0.0
 30
0.0
  3
*Paper_Space
  1

  0
ENDBLK
  5
1D
330
1B
100
AcDbEntity
  8
0
100
AcDbBlockEnd
  0
ENDSEC
  0
SECTION
  2
ENTITIES
  0
SPLINE
  5
2F
330
17
100
AcDbEntity
  8
CUT
100
AcDbSpline
 70
0
 71
3
 72
107
 73
103
 74
0
 40
0.0
 40
0.0
 40
0.0
 40
0.0
 40
0.02135593237793
 40
0.02135593237793
 40
0.02135593237793
 40
0.05596640671014
 40
0.05596640671014
 40
0.05596640671014
 40
0.307701126765
 40
0.307701126765
 40
0.307701126765
 40
0.6166601968
 40
0.6166601968
 40
0.6166601968
 40
0.733379516634
 40
0.733379516634
 40
0.733379516634
 40
0.834967744309
 40
0.834967744309
 40
0.834967744309
 40
0.923386422699
 40
0.923386422699
 40
0.923386422699
 40
1.223827724973
 40
1.223827724973
 40
1.223827724973
 40
1.51701818021
 40
1.51701818021
 40
1.51701818021
 40
1.706714885171
 40
1.706714885171
 40
1.706714885171
 40
1.76662585252
 40
1.76662585252
 40
1.76662585252
 40
1.940610087204
 40
1.940610087204
 40
1.940610087204
 40
2.452902649322
 40
2.452902649322
 40
2.452902649322
 40
2.705920261001
 40
2.705920261001
 40
2.705920261001
 40
2.952831548461
 40
2.952831548461
 40
2.952831548461
 40
3.289939228798
 40
3.289939228798
 40
3.289939228798
 40
3.393280866385
 40
3.393280866385
 40
3.393280866385
 40
3.419112421366
 40
3.419112421366
 40
3.419112421366
 40
3.457078577094
 40
3.457078577094
 40
3.457078577094
 40
3.494128458043
 40
3.494128458043
 40
3.494128458043
 40
4.119460283645
 40
4.119460283645
 40
4.119460283645
 40
4.413497366718
 40
4.413497366718
 40
4.413497366718
 40
4.700438162108
 40
4.700438162108
 40
4.700438162108
 40
4.848525835052
 40
4.848525835052
 40
4.848525835052
 40
4.99303956175
 40
4.99303956175
 40
4.99303956175
 40
5.090429891938
 40
5.090429891938
 40
5.090429891938
 40
5.127094490285
 40
5.127094490285
 40
5.127094490285
 40
5.251678569975
 40
5.251678569975
 40
5.251678569975
 40
5.373255938875
 40
5.373255938875
 40
5.373255938875
 40
5.863286277054
 40
5.863286277054
 40
5.863286277054
 40
6.341490228518
 40
6.341490228518
 40
6.341490228518
 40
7.310094568854
 40
7.310094568854
 40
7.310094568854
 40
8.221764457312
 40
8.221764457312
 40
8.221764457312
 40
9.45928379833
 40
9.45928379833
 40
9.45928379833
 40
9.45928379833
 10
9.999997985233e-08
 20
13.280465380007
 30
1.000002640694e-07
 10
0.07513841834097
 20
13.306496541
 30
1.000002640694e-07
 10
0.15974055562
 20
13.334359773432
 30
1.000002640694e-07
 10
0.250738913864
 20
13.362741709276
 30
1.000002640694e-07
 10
0.398215328686
 20
13.408738870376
 30
1.000002640694e-07
 10
0.565622204414
 20
13.457147150269
 30
1.000002640694e-07
 10
0.753903207684
 20
13.507713426033
 30
1.00000256964e-07
 10
2.123340251359
 20
13.875500563284
 30
1.000002498586e-07
 10
4.655549999687
 20
14.426050032779
 30
1.000002498586e-07
 10
6.042201686688
 20
14.655329583481
 30
1.000002427531e-07
 10
7.744067109088
 20
14.93672897387
 30
1.000002356477e-07
 10
9.52513082132
 20
15.129312278904
 30
1.000002356477e-07
 10
11.380757644008
 20
15.299613539108
 30
1.000002285423e-07
 10
12.081780923838
 20
15.363950369406
 30
1.000002285423e-07
 10
12.985686651994
 20
15.445402156043
 30
1.000002285423e-07
 10
13.90326672347
 20
15.522929263778
 30
1.000002285423e-07
 10
14.701894862706
 20
15.590406023264
 30
1.000002214369e-07
 10
15.508945435465
 20
15.65442040252
 30
1.000002214369e-07
 10
16.105275727786
 20
15.699711139307
 30
1.000002214369e-07
 10
16.624299807024
 20
15.739130540368
 30
1.000002214369e-07
 10
16.980522311065
 20
15.76504269854
 30
1.000002214369e-07
 10
17.422639425038
 20
15.796299669767
 30
1.000002214369e-07
 10
18.924926542414
 20
15.90250896074
 30
1.000002214369e-07
 10
20.666234684991
 20
16.011747641674
 30
1.000002143314e-07
 10
22.606609231843
 20
16.112092916443
 30
1.000002143314e-07
 10
24.500154801024
 20
16.210016459468
 30
1.00000207226e-07
 10
26.585064878993
 20
16.299120665621
 30
1.00000207226e-07
 10
28.732467780329
 20
16.37202552982
 30
1.000002001206e-07
 10
30.121855624757
 20
16.41919559374
 30
1.000001930151e-07
 10
31.53521587993
 20
16.459696101621
 30
1.000001930151e-07
 10
32.914294941384
 20
16.493160390082
 30
1.000001859097e-07
 10
33.349842625985
 20
16.503729249956
 30
1.000001859097e-07
 10
33.792246426712
 20
16.513871342922
 30
1.000001859097e-07
 10
34.260807201743
 20
16.523920515388
 30
1.000001859097e-07
 10
35.621529477713
 20
16.553103779455
 30
1.000001859097e-07
 10
37.130857696554
 20
16.57857140686
 30
1.000001859097e-07
 10
38.295278536351
 20
16.59462878088
 30
1.000001788043e-07
 10
41.723888815247
 20
16.641909347952
 30
1.000001716989e-07
 10
45.0946529699
 20
16.664441453752
 30
1.000001716989e-07
 10
47.936934178415
 20
16.668188482524
 30
1.000001645934e-07
 10
49.340716423706
 20
16.670039113085
 30
1.000001645934e-07
 10
50.481813856882
 20
16.669039980091
 30
1.000001645934e-07
 10
51.833210467457
 20
16.666803649164
 30
1.00000157488e-07
 10
53.151992487306
 20
16.664621289822
 30
1.00000157488e-07
 10
54.610073952624
 20
16.660899259216
 30
1.00000157488e-07
 10
56.202241647335
 20
16.656384964525
 30
1.000001503826e-07
 10
58.376026263637
 20
16.650221603476
 30
1.000001503826e-07
 10
60.815655003215
 20
16.642676905422
 30
1.000001432772e-07
 10
63.315968542356
 20
16.635984643542
 30
1.000001432772e-07
 10
64.082449137983
 20
16.633933105288
 30
1.000001432772e-07
 10
64.852418571298
 20
16.63195656697
 30
1.000001361717e-07
 10
65.614360035105
 20
16.630097257007
 30
1.000001361717e-07
 10
65.804816982315
 20
16.629632498863
 30
1.000001361717e-07
 10
65.994759759568
 20
16.62917499154
 30
1.000001361717e-07
 10
66.183983978643
 20
16.628725244165
 30
1.000001361717e-07
 10
66.462097943301
 20
16.628064223993
 30
1.000001361717e-07
 10
66.733125847986
 20
16.627431448424
 30
1.000001361717e-07
 10
67.047009670641
 20
16.626716309832
 30
1.000001361717e-07
 10
67.353318224621
 20
16.626018430388
 30
1.000001361717e-07
 10
67.667915182865
 20
16.625322183331
 30
1.000001361717e-07
 10
67.84481087613
 20
16.624935576764
 30
1.000001361717e-07
 10
70.830475174544
 20
16.618410390058
 30
1.000011309316e-07
 10
75.102488015597
 20
16.610918642846
 30
1.000001219609e-07
 10
79.522720194161
 20
16.603720923102
 30
1.000001148554e-07
 10
81.601156190988
 20
16.600336485542
 30
1.000001148554e-07
 10
83.499188058092
 20
16.597337126298
 30
1.0000010775e-07
 10
86.086557018592
 20
16.593356903155
 30
1.0000010775e-07
 10
88.611482445459
 20
16.589472738672
 30
1.000001006446e-07
 10
91.61282022952
 20
16.584979161299
 30
1.000000935392e-07
 10
94.00219210017
 20
16.581417119206
 30
1.000000935392e-07
 10
95.23532634182
 20
16.579578779962
 30
1.000000935392e-07
 10
96.30133053149
 20
16.577988566303
 30
1.000000864337e-07
 10
97.09392642651
 20
16.576780220103
 30
1.000000864337e-07
 10
97.86739382105
 20
16.575601036118
 30
1.000000864337e-07
 10
98.37828652599
 20
16.574787745321
 30
1.000000864337e-07
 10
98.61694099099
 20
16.574345454736
 30
1.000000864337e-07
 10
98.7777744127
 20
16.574047387369
 30
1.000000864337e-07
 10
99.08219218293
 20
16.573483387355
 30
1.000000864337e-07
 10
99.40426750503
 20
16.57288723951
 30
1.000000864337e-07
 10
99.52551940241
 20
16.572662807358
 30
1.000000864337e-07
 10
99.64927390775
 20
16.572433809577
 30
1.000000864337e-07
 10
99.76881191994
 20
16.572212676222
 30
1.000000864337e-07
 10
100.17499482956
 20
16.571461278503
 30
1.000000793283e-07
 10
100.53841379176
 20
16.57078943266
 30
1.000000793283e-07
 10
101.07632235428
 20
16.569796364659
 30
1.000000793283e-07
 10
101.60124903756
 20
16.568827263351
 30
1.000000793283e-07
 10
102.22914071396
 20
16.567669253413
 30
1.000000793283e-07
 10
102.93398377238
 20
16.566371623547
 30
1.000000793283e-07
 10
105.77492765365
 20
16.561141390258
 30
1.000000722229e-07
 10
109.86600503508
 20
16.553657324639
 30
1.000000651175e-07
 10
113.50384500903
 20
16.547053429087
 30
1.000000651175e-07
 10
117.05388939363
 20
16.540608911876
 30
1.00000058012e-07
 10
119.95046285898
 20
16.535384664733
 30
1.000010527719e-07
 10
123.04942421563
 20
16.52981462673
 30
1.000010456664e-07
 10
129.32638493792
 20
16.518532488705
 30
1.00001038561e-07
 10
135.6033444032
 20
16.507346034526
 30
1.000000295903e-07
 10
141.88029768137
 20
16.496194404995
 30
1.000000153795e-07
 10
147.78829236678
 20
16.485698266967
 30
1.00000008274e-07
 10
153.69627652368
 20
16.475232989129
 30
1.000010030339e-07
 10
159.604276176
 20
16.464747771308
 30
1.00000988823e-07
 10
167.62391566287
 20
16.45051492232
 30
1.000009817176e-07
 10
175.64356955728
 20
16.436245356709
 30
1.000009675067e-07
 10
183.66318601073
 20
16.421812219286
 30
1.000009532959e-07
  0
SPLINE
  5
30
330
17
100
AcDbEntity
  8
CUT
100
AcDbSpline
 70
0
 71
3
 72
56
 73
52
 74
0
 40
0.0
 40
0.0
 40
0.0
 40
0.0
 40
0.08268387987226525
 40
0.08268387987226525
 40
0.11189805348148515
 40
0.11189805348148515
 40
0.14040717255108423
 40
0.14040717255108423
 40
0.2691690382807298
 40
0.2691690382807298
 40
0.332763597620973
 40
0.332763597620973
 40
0.3948233665756406
 40
0.3948233665756406
 40
0.43538964201579616
 40
0.43538964201579616
 40
0.4554250336744355
 40
0.4554250336744355
 40
0.46532036950781797
 40
0.46532036950781797
 40
0.47020760469986217
 40
0.47020760469986217
 40
0.47497689141502464
 40
0.47497689141502464
 40
0.5203012283391908
 40
0.5203012283391908
 40
0.6448334176109758
 40
0.6448334176109758
 40
0.677058352549891
 40
0.677058352549891
 40
0.770641061881956
 40
0.770641061881956
 40
0.7988270110914492
 40
0.7988270110914492
 40
0.8127478486732461
 40
0.8127478486732461
 40
0.8196232502267402
 40
0.8196232502267402
 40
0.8230189616010459
 40
0.8230189616010459
 40
0.8246960790239252
 40
0.8246960790239252
 40
0.8263327209159215
 40
0.8263327209159215
 40
0.9198845551056942
 40
0.9198845551056942
 40
0.9741846163551974
 40
0.9741846163551974
 40
0.995743397808985
 40
0.995743397808985
 40
1.0
 40
1.0
 40
1.0
 40
1.0
 10
68.70362127269
 20
0.06687802442001
 30
1.000002143314e-07
 10
66.75422313794
 20
0.03644338465501
 30
1.000002214369e-07
 10
64.781212085035
 20
0.01744431341001
 30
1.000002214369e-07
 10
62.177685439933
 20
0.00386461793901
 30
1.000002285423e-07
 10
61.423824605227
 20
0.001178414513012
 30
1.000002285423e-07
 10
59.977086267362
 20
-0.000507824160989
 30
1.000002285423e-07
 10
59.294617300958
 20
0.0002394822700094
 30
1.000002356477e-07
 10
55.473138816471
 20
0.01441783393601
 30
1.000002356477e-07
 10
52.355212638782
 20
0.06554191259801
 30
1.000002427531e-07
 10
47.926471947988
 20
0.236393976392
 30
1.000002498586e-07
 10
46.51209296751
 20
0.306363809888
 30
1.000002498586e-07
 10
43.592977470675
 20
0.490503159085
 30
1.000002498586e-07
 10
42.118979766523
 20
0.602962417005
 30
1.000002498586e-07
 10
39.664209092348
 20
0.829082323906
 30
1.00000256964e-07
 10
38.689289218281
 20
0.928787679998
 30
1.00000256964e-07
 10
37.234522154452
 20
1.093031464676
 30
1.00000256964e-07
 10
36.753836894311
 20
1.149817035579
 30
1.000002640694e-07
 10
36.037232368426
 20
1.238230538147
 30
1.000002640694e-07
 10
35.800560755545
 20
1.268044786186
 30
1.000002640694e-07
 10
35.447499210809
 20
1.313433296071
 30
1.000002640694e-07
 10
35.330856034934
 20
1.328577709619
 30
1.000002640694e-07
 10
35.100568718071
 20
1.358770598471
 30
1.000002640694e-07
 10
34.984073489417
 20
1.374182237106
 30
1.000002640694e-07
 10
33.690323732708
 20
1.547139053291
 30
1.000002640694e-07
 10
32.547974505999
 20
1.713639957615
 30
1.000002711748e-07
 10
28.376951451152
 20
2.369978051349
 30
1.000002640694e-07
 10
25.541148401478
 20
2.916511969846
 30
1.000002711748e-07
 10
22.273807997735
 20
3.648514481811
 30
1.000002711748e-07
 10
21.568967068767
 20
3.812177094736
 30
1.000002711748e-07
 10
18.61574633184
 20
4.530888350921
 30
1.000002782803e-07
 10
16.146079471933
 20
5.212322342235
 30
1.000002711748e-07
 10
13.368553362343
 20
6.094098660847
 30
1.000002782803e-07
 10
12.753345029148
 20
6.297513460912
 30
1.000002711748e-07
 10
11.88949768765
 20
6.593654363654
 30
1.000002711748e-07
 10
11.612862466672
 20
6.690300037682
 30
1.000002711748e-07
 10
11.214182050604
 20
6.832028919964
 30
1.000002711748e-07
 10
11.084753241635
 20
6.878453388147
 30
1.000002711748e-07
 10
10.895071348732
 20
6.94707236871
 30
1.000002711748e-07
 10
10.832960235895
 20
6.969638492071
 30
1.000002711748e-07
 10
10.741080828597
 20
7.003160401226
 30
1.000002711748e-07
 10
10.724641913739
 20
7.009153499658
 30
1.000002711748e-07
 10
10.621564971883
 20
7.046932291127
 30
1.000002711748e-07
 10
10.534328406154
 20
7.079035372735
 30
1.000002711748e-07
 10
6.988231644196
 20
8.390764308377
 30
1.000002711748e-07
 10
4.877031394382
 20
9.520690226973
 30
1.000002711748e-07
 10
2.594228193105
 20
11.025302274248
 30
1.000002640694e-07
 10
1.972371875468
 20
11.520877425895
 30
1.000002640694e-07
 10
1.143936348437
 20
12.237338527878
 30
1.000002640694e-07
 10
0.725275919008
 20
12.599966457239
 30
1.000002640694e-07
 10
0.180151470123
 20
13.108766692693
 30
1.000002640694e-07
 10
0.09042049129798
 20
13.193597796281
 30
1.000002640694e-07
 10
9.999997985233e-08
 20
13.280465380007
 30
1.000002640694e-07
  0
LINE
  5
31
330
17
100
AcDbEntity
  8
CUT
100
AcDbLine
 10
68.70362127269
 20
0.06687802442001
 30
1.000002131628e-07
 11
68.71048772311
 21
8.334443138795
 31
1.000001705303e-07
  0
LINE
  5
32
330
17
100
AcDbEntity
  8
CUT
100
AcDbLine
 10
68.71048772311
 20
8.334443138795
 30
1.000001705303e-07
 11
73.710485998666
 21
8.330290496538
 31
1.000001634248e-07
  0
LINE
  5
33
330
17
100
AcDbEntity
  8
CUT
100
AcDbLine
 10
73.710485998666
 20
8.330290496538
 30
1.000001634248e-07
 11
73.703711284027
 21
0.173180055571
 31
1.00000198952e-07
  0
SPLINE
  5
34
330
17
100
AcDbEntity
  8
CUT
100
AcDbSpline
 70
0
 71
3
 72
18
 73
14
 74
0
 40
0.0
 40
0.0
 40
0.0
 40
0.0
 40
0.2735284134207301
 40
0.2735284134207301
 40
0.36186247008613875
 40
0.36186247008613875
 40
0.6183886776527701
 40
0.6183886776527701
 40
0.7594969663108162
 40
0.7594969663108162
 40
0.8971997490961614
 40
0.8971997490961614
 40
1.0
 40
1.0
 40
1.0
 40
1.0
 10
107.10570216001
 20
2.556439635331
 30
1.000001432772e-07
 10
103.98004472583
 20
2.20591484961
 30
1.000001503826e-07
 10
100.9075705576
 20
1.891609533927
 30
1.000001503826e-07
 10
97.09790850696
 20
1.541673521899
 30
1.000001645934e-07
 10
96.16420044319
 20
1.458955402856
 30
1.000001645934e-07
 10
92.33483793574
 20
1.134255961463
 30
1.000001716989e-07
 10
89.269450157196
 20
0.909005063661
 30
1.000001788043e-07
 10
84.926546906204
 20
0.641446185097
 30
1.000001859097e-07
 10
83.456695966203
 20
0.559948313373
 30
1.000001859097e-07
 10
80.329682055421
 20
0.407018937633
 30
1.000002001206e-07
 10
78.741279251222
 20
0.339520294319
 30
1.000002001206e-07
 10
75.997893975449
 20
0.240418875571
 30
1.00000207226e-07
 10
74.834801751046
 20
0.203958250151
 30
1.00000207226e-07
 10
73.703711284027
 20
0.173180055571
 30
1.00000207226e-07
  0
LINE
  5
35
330
17
100
AcDbEntity
  8
CUT
100
AcDbLine
 10
107.10570216001
 20
2.556439635331
 30
1.000001421085e-07
 11
107.11182998791
 21
9.934664639857
 31
1.000001065814e-07
  0
LINE
  5
36
330
17
100
AcDbEntity
  8
CUT
100
AcDbLine
 10
107.11182998791
 20
9.934664639857
 30
1.000001065814e-07
 11
112.11182826347
 21
9.9305119976
 31
1.000011013412e-07
  0
LINE
  5
37
330
17
100
AcDbEntity
  8
CUT
100
AcDbLine
 10
112.11182826347
 20
9.9305119976
 30
1.000011013412e-07
 11
112.10619081936
 21
3.142734696773
 31
1.000001278977e-07
  0
SPLINE
  5
38
330
17
100
AcDbEntity
  8
CUT
100
AcDbSpline
 70
0
 71
3
 72
34
 73
30
 74
0
 40
0.0
 40
0.0
 40
0.0
 40
0.0
 40
0.06648528014399
 40
0.06648528014399
 40
0.07909669625515
 40
0.07909669625515
 40
0.09478940306267
 40
0.09478940306267
 40
0.118511799199
 40
0.118511799199
 40
0.139158905291
 40
0.139158905291
 40
0.174666177978
 40
0.174666177978
 40
0.188033623072
 40
0.188033623072
 40
0.211021906076
 40
0.211021906076
 40
0.244809137743
 40
0.244809137743
 40
0.261496408443
 40
0.261496408443
 40
0.277780948738
 40
0.277780948738
 40
0.3271012045
 40
0.3271012045
 40
0.343581456277
 40
0.343581456277
 40
0.388380050794
 40
0.388380050794
 40
0.388380050794
 40
0.388380050794
 10
183.6631860099
 20
16.421812219287
 30
1.000009532959e-07
 10
179.78778722948
 20
15.503099896896
 30
1.000009675067e-07
 10
175.52384813454
 20
14.523451547808
 30
9.999997985233e-08
 10
170.74312817106
 20
13.464392904464
 30
1.000009959284e-07
 10
169.9765669907
 20
13.295721509184
 30
1.000009959284e-07
 10
168.24407850008
 20
12.917187310881
 30
1.000009959284e-07
 10
167.27583202576
 20
12.707469076417
 30
1.000000011686e-07
 10
164.82534022793
 20
12.181560330482
 30
1.000000011686e-07
 10
163.35996257513
 20
11.871028303798
 30
1.00000008274e-07
 10
160.66098021834
 20
11.306506149574
 30
1.000010172447e-07
 10
159.44246028748
 20
11.054561635089
 30
1.000000153795e-07
 10
156.04060490591
 20
10.359720983032
 30
1.000000295903e-07
 10
153.78543253134
 20
9.908920342296
 30
1.00001038561e-07
 10
150.74687308393
 20
9.316757219995
 30
1.000000366957e-07
 10
149.92226353478
 20
9.157600084486
 30
1.000000366957e-07
 10
147.71617303101
 20
8.735877322057
 30
1.000000509066e-07
 10
146.39417572266
 20
8.487299743352
 30
1.000000509066e-07
 10
142.92328663252
 20
7.84634665242
 30
1.00000058012e-07
 10
140.75349116141
 20
7.456579701055
 30
1.000010669827e-07
 10
137.60023414844
 20
6.908013578129
 30
1.000000722229e-07
 10
136.57161399609
 20
6.731953599287
 30
1.000000722229e-07
 10
134.59978955032
 20
6.399706710517
 30
1.000000793283e-07
 10
133.65162738172
 20
6.242387589947
 30
1.000000793283e-07
 10
129.6286744149
 20
5.586166730705
 30
1.000000935392e-07
 10
126.38320506038
 20
5.085397552798
 30
1.000001006446e-07
 10
122.4163245158
 20
4.509606385879
 30
1.000001148554e-07
 10
121.45682480292
 20
4.373142184566
 30
1.000001148554e-07
 10
117.7058083685
 20
3.851123932729
 30
1.000001219609e-07
 10
114.79295179926
 20
3.471361162633
 30
1.000001219609e-07
 10
112.10619081936
 20
3.142734696773
 30
1.000001361717e-07
  0
ARC
  5
39
330
17
100
AcDbEntity
  8
CUT
100
AcDbCircle
 10
49.859984353754
 20
8.486513960208
 30
1.00000207226e-07
 40
10.0
100
AcDbArc
 50
163.5224534079191
 51
193.54782258012645
  0
ARC
  5
3A
330
17
100
AcDbEntity
  8
CUT
100
AcDbCircle
 10
39.165393068144
 20
5.910923539358
 30
1.000002356477e-07
 40
1.000510366809
100
AcDbArc
 50
-96.01934865160212
 51
13.47006722112232
  0
SPLINE
  5
3B
330
17
100
AcDbEntity
  8
CUT
100
AcDbSpline
 70
0
 71
3
 72
32
 73
28
 74
0
 40
0.0
 40
0.0
 40
0.0
 40
0.0
 40
0.03921025561091296
 40
0.03921025561091296
 40
0.03921025561091296
 40
0.10006064374637257
 40
0.10006064374637257
 40
0.10006064374637257
 40
0.12982801878558217
 40
0.12982801878558217
 40
0.12982801878558217
 40
0.1444480772311083
 40
0.1444480772311083
 40
0.1444480772311083
 40
0.159178036693081
 40
0.159178036693081
 40
0.159178036693081
 40
0.29995977757423314
 40
0.29995977757423314
 40
0.29995977757423314
 40
0.6384960935054171
 40
0.6384960935054171
 40
0.6384960935054171
 40
0.7237798459831012
 40
0.7237798459831012
 40
0.7237798459831012
 40
1.0
 40
1.0
 40
1.0
 40
1.0
 10
39.06040734331
 20
4.915285508209
 30
1.000002356477e-07
 10
38.762407513543
 20
4.946947872834
 30
1.000002356477e-07
 10
38.463707786749
 20
4.979668192095
 30
1.000002356477e-07
 10
38.164230340095
 20
5.013479315874
 30
1.000002356477e-07
 10
37.699464058348
 20
5.065951615394
 30
1.000002356477e-07
 10
37.232800018163
 20
5.121052805982
 30
1.000002356477e-07
 10
36.763947170169
 20
5.178899108905
 30
1.000002427531e-07
 10
36.5345881373
 20
5.207197053879
 30
1.000002427531e-07
 10
36.304701955308
 20
5.23615225784
 30
1.000002427531e-07
 10
36.074254559144
 20
5.265777868658
 30
1.000002427531e-07
 10
35.961071633335
 20
5.280328318638
 30
1.000002427531e-07
 10
35.847752914093
 20
5.295040534114
 30
1.000002427531e-07
 10
35.73429436634
 20
5.309916044273
 30
1.000002427531e-07
 10
35.619982936205
 20
5.324903375541
 30
1.000002427531e-07
 10
35.505529282136
 20
5.3400565032
 30
1.000002427531e-07
 10
35.390929277865
 20
5.355376971297
 30
1.000002427531e-07
 10
34.292949665605
 20
5.502161971246
 30
1.000002427531e-07
 10
33.182759230126
 20
5.662971772119
 30
1.000002427531e-07
 10
32.056758726792
 20
5.840155406491
 30
1.000002498586e-07
 10
29.350999717611
 20
6.265924501228
 30
1.000002427531e-07
 10
26.556539664169
 20
6.788183032651
 30
1.000002498586e-07
 10
23.819950655773
 20
7.401278021488
 30
1.000002498586e-07
 10
23.130144945942
 20
7.555819468037
 30
1.00000256964e-07
 10
22.442553898377
 20
7.716325900954
 30
1.000002498586e-07
 10
21.758369797776
 20
7.88283252481
 30
1.000002498586e-07
 10
19.541953749217
 20
8.422231135475
 30
1.000002498586e-07
 10
17.362144048399
 20
9.024097905281
 30
1.00000256964e-07
 10
15.260484324786
 20
9.690214858604
 30
1.000002498586e-07
  0
ARC
  5
3C
330
17
100
AcDbEntity
  8
CUT
100
AcDbCircle
 10
15.562888639284
 20
10.643766596907
 30
1.000002427531e-07
 40
0.999775825815
100
AcDbArc
 50
94.50555611974528
 51
252.40437381015556
  0
SPLINE
  5
3D
330
17
100
AcDbEntity
  8
CUT
100
AcDbSpline
 70
0
 71
3
 72
17
 73
13
 74
0
 40
0.0
 40
0.0
 40
0.0
 40
0.0
 40
0.021903010121042756
 40
0.021903010121042756
 40
0.021903010121042756
 40
0.05328494981510256
 40
0.05328494981510256
 40
0.05328494981510256
 40
0.7829096067145488
 40
0.7829096067145488
 40
0.7829096067145488
 40
1.0
 40
1.0
 40
1.0
 40
1.0
 10
15.48435367037
 20
11.640412354593
 30
1.000002427531e-07
 10
15.767632963606
 20
11.662651749784
 30
1.000002427531e-07
 10
16.032216681439
 20
11.683016694944
 30
1.000002427531e-07
 10
16.27285714921
 20
11.701265639429
 30
1.000002427531e-07
 10
16.617639195419
 20
11.727412149527
 30
1.000002427531e-07
 10
16.913875910412
 20
11.749289421587
 30
1.000002427531e-07
 10
17.147028141627
 20
11.766284088696
 30
1.000002427531e-07
 10
22.538130140807
 20
12.159246160522
 30
1.000002285423e-07
 10
28.903826349174
 20
12.408333075327
 30
1.000002143314e-07
 10
34.362916105959
 20
12.525190266895
 30
1.00000207226e-07
 10
35.989684940537
 20
12.560012855607
 30
1.00000207226e-07
 10
37.62237370957
 20
12.586556818965
 30
1.000002001206e-07
 10
39.299868519314
 20
12.606478992232
 30
1.000002001206e-07
  0
ARC
  5
3E
330
17
100
AcDbEntity
  8
CUT
100
AcDbCircle
 10
39.31051686309
 20
11.60613827089
 30
1.000012090913e-07
 40
1.000494427065
100
AcDbArc
 50
-16.435058624565272
 51
90.60987431786822
  0
CIRCLE
  5
3F
330
17
100
AcDbEntity
  8
CUT
100
AcDbCircle
 10
89.90600982778
 20
9.048513722959
 30
1.000001432772e-07
 40
4.0
  0
CIRCLE
  5
40
330
17
100
AcDbEntity
  8
CUT
100
AcDbCircle
 10
49.85998435375399
 20
8.486513960207011
 30
0.0
 40
5.1
  0
TEXT
  5
46
330
17
100
AcDbEntity
  8
LABELS_NONCUT
100
AcDbText
 10
0.0
 20
-6.0
 30
0.0
 40
3.0
  1
A35 PLY 5.000mm QTY 2
100
AcDbText
  0
ENDSEC
  0
SECTION
  2
OBJECTS
  0
DICTIONARY
  5
A
330
0
100
AcDbDictionary
281
1
  3
ACAD_COLOR
350
B
  3
ACAD_GROUP
350
C
  3
ACAD_LAYOUT
350
D
  3
ACAD_MATERIAL
350
E
  3
ACAD_MLEADERSTYLE
350
F
  3
ACAD_MLINESTYLE
350
10
  3
ACAD_PLOTSETTINGS
350
11
  3
ACAD_PLOTSTYLENAME
350
12
  3
ACAD_SCALELIST
350
14
  3
ACAD_TABLESTYLE
350
15
  3
ACAD_VISUALSTYLE
350
16
  3
EZDXF_META
350
2D
  0
DICTIONARY
  5
B
330
A
100
AcDbDictionary
281
1
  0
DICTIONARY
  5
C
330
A
100
AcDbDictionary
281
1
  0
DICTIONARY
  5
D
330
A
100
AcDbDictionary
281
1
  3
Model
350
1A
  3
Layout1
350
1E
  0
DICTIONARY
  5
E
330
A
100
AcDbDictionary
281
1
  3
ByBlock
350
1F
  3
ByLayer
350
20
  3
Global
350
21
  0
DICTIONARY
  5
F
330
A
100
AcDbDictionary
281
1
  3
Standard
350
2C
  0
DICTIONARY
  5
10
330
A
100
AcDbDictionary
281
1
  3
Standard
350
22
  0
DICTIONARY
  5
11
330
A
100
AcDbDictionary
281
1
  0
ACDBDICTIONARYWDFLT
  5
12
330
A
100
AcDbDictionary
281
1
  3
Normal
350
13
100
AcDbDictionaryWithDefault
340
13
  0
ACDBPLACEHOLDER
  5
13
330
12
  0
DICTIONARY
  5
14
330
A
100
AcDbDictionary
281
1
  0
DICTIONARY
  5
15
330
A
100
AcDbDictionary
281
1
  0
DICTIONARY
  5
16
330
A
100
AcDbDictionary
281
1
  0
LAYOUT
  5
1A
330
D
100
AcDbPlotSettings
  1

  4
A3
  6

 40
7.5
 41
20.0
 42
7.5
 43
20.0
 44
420.0
 45
297.0
 46
0.0
 47
0.0
 48
0.0
 49
0.0
140
0.0
141
0.0
142
1.0
143
1.0
 70
1024
 72
1
 73
0
 74
5
  7

 75
16
 76
0
 77
2
 78
300
147
1.0
148
0.0
149
0.0
100
AcDbLayout
  1
Model
 70
1
 71
0
 10
0.0
 20
0.0
 11
420.0
 21
297.0
 12
0.0
 22
0.0
 32
0.0
 14
1e+20
 24
1e+20
 34
1e+20
 15
-1e+20
 25
-1e+20
 35
-1e+20
146
0.0
 13
0.0
 23
0.0
 33
0.0
 16
1.0
 26
0.0
 36
0.0
 17
0.0
 27
1.0
 37
0.0
 76
1
330
17
  0
LAYOUT
  5
1E
330
D
100
AcDbPlotSettings
  1

  4
A3
  6

 40
7.5
 41
20.0
 42
7.5
 43
20.0
 44
420.0
 45
297.0
 46
0.0
 47
0.0
 48
0.0
 49
0.0
140
0.0
141
0.0
142
1.0
143
1.0
 70
0
 72
1
 73
0
 74
5
  7

 75
16
 76
0
 77
2
 78
300
147
1.0
148
0.0
149
0.0
100
AcDbLayout
  1
Layout1
 70
1
 71
1
 10
0.0
 20
0.0
 11
420.0
 21
297.0
 12
0.0
 22
0.0
 32
0.0
 14
1e+20
 24
1e+20
 34
1e+20
 15
-1e+20
 25
-1e+20
 35
-1e+20
146
0.0
 13
0.0
 23
0.0
 33
0.0
 16
1.0
 26
0.0
 36
0.0
 17
0.0
 27
1.0
 37
0.0
 76
1
330
1B
  0
MATERIAL
  5
1F
102
{ACAD_REACTORS
330
E
102
}
330
E
100
AcDbMaterial
  1
ByBlock
  2

 70
0
 40
1.0
 71
1
 41
1.0
 91
-1023410177
 42
1.0
 72
1
  3

 73
1
 74
1
 75
1
 44
0.5
 73
0
 45
1.0
 46
1.0
 77
1
  4

 78
1
 79
1
170
1
 48
1.0
171
1
  6

172
1
173
1
174
1
140
1.0
141
1.0
175
1
  7

176
1
177
1
178
1
143
1.0
179
1
  8

270
1
271
1
272
1
145
1.0
146
1.0
273
1
  9

274
1
275
1
276
1
 42
1.0
 72
1
  3

 73
1
 74
1
 75
1
 94
63
  0
MATERIAL
  5
20
102
{ACAD_REACTORS
330
E
102
}
330
E
100
AcDbMaterial
  1
ByLayer
  2

 70
0
 40
1.0
 71
1
 41
1.0
 91
-1023410177
 42
1.0
 72
1
  3

 73
1
 74
1
 75
1
 44
0.5
 73
0
 45
1.0
 46
1.0
 77
1
  4

 78
1
 79
1
170
1
 48
1.0
171
1
  6

172
1
173
1
174
1
140
1.0
141
1.0
175
1
  7

176
1
177
1
178
1
143
1.0
179
1
  8

270
1
271
1
272
1
145
1.0
146
1.0
273
1
  9

274
1
275
1
276
1
 42
1.0
 72
1
  3

 73
1
 74
1
 75
1
 94
63
  0
MATERIAL
  5
21
102
{ACAD_REACTORS
330
E
102
}
330
E
100
AcDbMaterial
  1
Global
  2

 70
0
 40
1.0
 71
1
 41
1.0
 91
-1023410177
 42
1.0
 72
1
  3

 73
1
 74
1
 75
1
 44
0.5
 73
0
 45
1.0
 46
1.0
 77
1
  4

 78
1
 79
1
170
1
 48
1.0
171
1
  6

172
1
173
1
174
1
140
1.0
141
1.0
175
1
  7

176
1
177
1
178
1
143
1.0
179
1
  8

270
1
271
1
272
1
145
1.0
146
1.0
273
1
  9

274
1
275
1
276
1
 42
1.0
 72
1
  3

 73
1
 74
1
 75
1
 94
63
  0
MLINESTYLE
  5
22
102
{ACAD_REACTORS
330
10
102
}
330
10
100
AcDbMlineStyle
  2
Standard
 70
0
  3

 62
256
 51
90.0
 52
90.0
 71
2
 49
0.5
 62
256
  6
BYLAYER
 49
-0.5
 62
256
  6
BYLAYER
  0
MLEADERSTYLE
  5
2C
102
{ACAD_REACTORS
330
F
102
}
330
F
100
AcDbMLeaderStyle
179
2
170
2
171
1
172
0
 90
2
 40
0.0
 41
0.0
173
1
 91
-1056964608
 92
-2
290
1
 42
2.0
291
1
 43
8.0
  3
Standard
 44
4.0
300

342
29
174
1
175
1
176
0
178
1
 93
-1056964608
 45
4.0
292
0
297
0
 46
4.0
 94
-1056964608
 47
1.0
 49
1.0
140
1.0
294
1
141
0.0
177
0
142
1.0
295
0
296
0
143
3.75
271
0
272
9
273
9
  0
DICTIONARY
  5
2D
330
A
100
AcDbDictionary
280
1
281
1
  3
CREATED_BY_EZDXF
350
2E
  3
WRITTEN_BY_EZDXF
350
44
  0
DICTIONARYVAR
  5
2E
330
2D
100
DictionaryVariables
280
0
  1
1.4.4 @ 2026-09-19T11:24:46.502183+00:00
  0
DICTIONARYVAR
  5
44
330
2D
100
DictionaryVariables
280
0
  1
1.4.4 @ 2026-09-19T11:25:50.374367+00:00
  0
ENDSEC
  0
EOF
