  0
SECTION
  2
HEADER
  9
$ACADVER
  1
AC1027
  9
$ACADMAINTVER
 70
105
  9
$DWGCODEPAGE
  3
ANSI_1252
  9
$LASTSAVEDBY
  1
ezdxf
  9
$REQUIREDVERSIONS
160
0
  9
$INSBASE
 10
0.0
 20
0.0
 30
0.0
  9
$EXTMIN
 10
1e+20
 20
1e+20
 30
1e+20
  9
$EXTMAX
 10
-1e+20
 20
-1e+20
 30
-1e+20
  9
$LIMMIN
 10
0.0
 20
0.0
  9
$LIMMAX
 10
420.0
 20
297.0
  9
$ORTHOMODE
 70
0
  9
$REGENMODE
 70
1
  9
$FILLMODE
 70
1
  9
$QTEXTMODE
 70
0
  9
$MIRRTEXT
 70
1
  9
$LTSCALE
 40
1.0
  9
$ATTMODE
 70
1
  9
$TEXTSIZE
 40
2.5
  9
$TRACEWID
 40
1.0
  9
$TEXTSTYLE
  7
Standard
  9
$CLAYER
  8
0
  9
$CELTYPE
  6
ByLayer
  9
$CECOLOR
 62
256
  9
$CELTSCALE
 40
1.0
  9
$DISPSILH
 70
0
  9
$DIMSCALE
 40
1.0
  9
$DIMASZ
 40
2.5
  9
$DIMEXO
 40
0.625
  9
$DIMDLI
 40
3.75
  9
$DIMRND
 40
0.0
  9
$DIMDLE
 40
0.0
  9
$DIMEXE
 40
1.25
  9
$DIMTP
 40
0.0
  9
$DIMTM
 40
0.0
  9
$DIMTXT
 40
2.5
  9
$DIMCEN
 40
2.5
  9
$DIMTSZ
 40
0.0
  9
$DIMTOL
 70
0
  9
$DIMLIM
 70
0
  9
$DIMTIH
 70
0
  9
$DIMTOH
 70
0
  9
$DIMSE1
 70
0
  9
$DIMSE2
 70
0
  9
$DIMTAD
 70
1
  9
$DIMZIN
 70
8
  9
$DIMBLK
  1

  9
$DIMASO
 70
1
  9
$DIMSHO
 70
1
  9
$DIMPOST
  1

  9
$DIMAPOST
  1

  9
$DIMALT
 70
0
  9
$DIMALTD
 70
3
  9
$DIMALTF
 40
0.03937007874
  9
$DIMLFAC
 40
1.0
  9
$DIMTOFL
 70
1
  9
$DIMTVP
 40
0.0
  9
$DIMTIX
 70
0
  9
$DIMSOXD
 70
0
  9
$DIMSAH
 70
0
  9
$DIMBLK1
  1

  9
$DIMBLK2
  1

  9
$DIMSTYLE
  2
ISO-25
  9
$DIMCLRD
 70
0
  9
$DIMCLRE
 70
0
  9
$DIMCLRT
 70
0
  9
$DIMTFAC
 40
1.0
  9
$DIMGAP
 40
0.625
  9
$DIMJUST
 70
0
  9
$DIMSD1
 70
0
  9
$DIMSD2
 70
0
  9
$DIMTOLJ
 70
0
  9
$DIMTZIN
 70
8
  9
$DIMALTZ
 70
0
  9
$DIMALTTZ
 70
0
  9
$DIMUPT
 70
0
  9
$DIMDEC
 70
2
  9
$DIMTDEC
 70
2
  9
$DIMALTU
 70
2
  9
$DIMALTTD
 70
3
  9
$DIMTXSTY
  7
Standard
  9
$DIMAUNIT
 70
0
  9
$DIMADEC
 70
0
  9
$DIMALTRND
 40
0.0
  9
$DIMAZIN
 70
0
  9
$DIMDSEP
 70
44
  9
$DIMATFIT
 70
3
  9
$DIMFRAC
 70
0
  9
$DIMLDRBLK
  1

  9
$DIMLUNIT
 70
2
  9
$DIMLWD
 70
-2
  9
$DIMLWE
 70
-2
  9
$DIMTMOVE
 70
0
  9
$DIMFXL
 40
1.0
  9
$DIMFXLON
 70
0
  9
$DIMJOGANG
 40
0.785398163397
  9
$DIMTFILL
 70
0
  9
$DIMTFILLCLR
 70
0
  9
$DIMARCSYM
 70
0
  9
$DIMLTYPE
  6

  9
$DIMLTEX1
  6

  9
$DIMLTEX2
  6

  9
$DIMTXTDIRECTION
 70
0
  9
$LUNITS
 70
2
  9
$LUPREC
 70
4
  9
$SKETCHINC
 40
1.0
  9
$FILLETRAD
 40
10.0
  9
$AUNITS
 70
0
  9
$AUPREC
 70
2
  9
$MENU
  1
.
  9
$ELEVATION
 40
0.0
  9
$PELEVATION
 40
0.0
  9
$THICKNESS
 40
0.0
  9
$LIMCHECK
 70
0
  9
$CHAMFERA
 40
0.0
  9
$CHAMFERB
 40
0.0
  9
$CHAMFERC
 40
0.0
  9
$CHAMFERD
 40
0.0
  9
$SKPOLY
 70
0
  9
$TDCREATE
 40
2461304.7713078703
  9
$TDUCREATE
 40
2458532.153996898
  9
$TDUPDATE
 40
2461304.7713078703
  9
$TDUUPDATE
 40
2458532.1544311
  9
$TDINDWG
 40
0.0
  9
$TDUSRTIMER
 40
0.0
  9
$USRTIMER
 70
1
  9
$ANGBASE
 50
0.0
  9
$ANGDIR
 70
0
  9
$PDMODE
 70
0
  9
$PDSIZE
 40
0.0
  9
$PLINEWID
 40
0.0
  9
$SPLFRAME
 70
0
  9
$SPLINETYPE
 70
6
  9
$SPLINESEGS
 70
8
  9
$HANDSEED
  5
76
  9
$SURFTAB1
 70
6
  9
$SURFTAB2
 70
6
  9
$SURFTYPE
 70
6
  9
$SURFU
 70
6
  9
$SURFV
 70
6
  9
$UCSBASE
  2

  9
$UCSNAME
  2

  9
$UCSORG
 10
0.0
 20
0.0
 30
0.0
  9
$UCSXDIR
 10
1.0
 20
0.0
 30
0.0
  9
$UCSYDIR
 10
0.0
 20
1.0
 30
0.0
  9
$UCSORTHOREF
  2

  9
$UCSORTHOVIEW
 70
0
  9
$UCSORGTOP
 10
0.0
 20
0.0
 30
0.0
  9
$UCSORGBOTTOM
 10
0.0
 20
0.0
 30
0.0
  9
$UCSORGLEFT
 10
0.0
 20
0.0
 30
0.0
  9
$UCSORGRIGHT
 10
0.0
 20
0.0
 30
0.0
  9
$UCSORGFRONT
 10
0.0
 20
0.0
 30
0.0
  9
$UCSORGBACK
 10
0.0
 20
0.0
 30
0.0
  9
$PUCSBASE
  2

  9
$PUCSNAME
  2

  9
$PUCSORG
 10
0.0
 20
0.0
 30
0.0
  9
$PUCSXDIR
 10
1.0
 20
0.0
 30
0.0
  9
$PUCSYDIR
 10
0.0
 20
1.0
 30
0.0
  9
$PUCSORTHOREF
  2

  9
$PUCSORTHOVIEW
 70
0
  9
$PUCSORGTOP
 10
0.0
 20
0.0
 30
0.0
  9
$PUCSORGBOTTOM
 10
0.0
 20
0.0
 30
0.0
  9
$PUCSORGLEFT
 10
0.0
 20
0.0
 30
0.0
  9
$PUCSORGRIGHT
 10
0.0
 20
0.0
 30
0.0
  9
$PUCSORGFRONT
 10
0.0
 20
0.0
 30
0.0
  9
$PUCSORGBACK
 10
0.0
 20
0.0
 30
0.0
  9
$USERI1
 70
0
  9
$USERI2
 70
0
  9
$USERI3
 70
0
  9
$USERI4
 70
0
  9
$USERI5
 70
0
  9
$USERR1
 40
0.0
  9
$USERR2
 40
0.0
  9
$USERR3
 40
0.0
  9
$USERR4
 40
0.0
  9
$USERR5
 40
0.0
  9
$WORLDVIEW
 70
1
  9
$SHADEDGE
 70
3
  9
$SHADEDIF
 70
70
  9
$TILEMODE
 70
1
  9
$MAXACTVP
 70
64
  9
$PINSBASE
 10
0.0
 20
0.0
 30
0.0
  9
$PLIMCHECK
 70
0
  9
$PEXTMIN
 10
1e+20
 20
1e+20
 30
1e+20
  9
$PEXTMAX
 10
-1e+20
 20
-1e+20
 30
-1e+20
  9
$PLIMMIN
 10
0.0
 20
0.0
  9
$PLIMMAX
 10
420.0
 20
297.0
  9
$UNITMODE
 70
0
  9
$VISRETAIN
 70
1
  9
$PLINEGEN
 70
0
  9
$PSLTSCALE
 70
1
  9
$TREEDEPTH
 70
3020
  9
$CMLSTYLE
  2
Standard
  9
$CMLJUST
 70
0
  9
$CMLSCALE
 40
20.0
  9
$PROXYGRAPHICS
 70
1
  9
$MEASUREMENT
 70
1
  9
$CELWEIGHT
370
-1
  9
$ENDCAPS
280
0
  9
$JOINSTYLE
280
0
  9
$LWDISPLAY
290
0
  9
$INSUNITS
 70
4
  9
$HYPERLINKBASE
  1

  9
$STYLESHEET
  1

  9
$XEDIT
290
1
  9
$CEPSNTYPE
380
0
  9
$PSTYLEMODE
290
1
  9
$FINGERPRINTGUID
  2
{A683CD2C-1F54-4A17-ADF1-B628BDF3BE40}
  9
$VERSIONGUID
  2
{C004CD67-CFA2-4AFD-A830-BFDF6189EC39}
  9
$EXTNAMES
290
1
  9
$PSVPSCALE
 40
0.0
  9
$OLESTARTUP
290
0
  9
$SORTENTS
280
127
  9
$INDEXCTL
280
0
  9
$HIDETEXT
280
1
  9
$XCLIPFRAME
280
1
  9
$HALOGAP
280
0
  9
$OBSCOLOR
 70
257
  9
$OBSLTYPE
280
0
  9
$INTERSECTIONDISPLAY
280
0
  9
$INTERSECTIONCOLOR
 70
257
  9
$DIMASSOC
280
2
  9
$PROJECTNAME
  1

  9
$CAMERADISPLAY
290
0
  9
$LENSLENGTH
 40
50.0
  9
$CAMERAHEIGHT
 40
0.0
  9
$STEPSPERSEC
 40
24.0
  9
$STEPSIZE
 40
100.0
  9
$3DDWFPREC
 40
2.0
  9
$PSOLWIDTH
 40
0.005
  9
$PSOLHEIGHT
 40
0.08
  9
$LOFTANG1
 40
1.570796326795
  9
$LOFTANG2
 40
1.570796326795
  9
$LOFTMAG1
 40
0.0
  9
$LOFTMAG2
 40
0.0
  9
$LOFTPARAM
 70
7
  9
$LOFTNORMALS
280
1
  9
$LATITUDE
 40
37.795
  9
$LONGITUDE
 40
-122.394
  9
$NORTHDIRECTION
 40
0.0
  9
$TIMEZONE
 70
-8000
  9
$LIGHTGLYPHDISPLAY
280
1
  9
$TILEMODELIGHTSYNCH
280
1
  9
$CMATERIAL
347
20
  9
$SOLIDHIST
280
0
  9
$SHOWHIST
280
1
  9
$DWFFRAME
280
2
  9
$DGNFRAME
280
2
  9
$REALWORLDSCALE
290
1
  9
$INTERFERECOLOR
 62
256
  9
$CSHADOW
280
0
  9
$SHADOWPLANELOCATION
 40
0.0
  0
ENDSEC
  0
SECTION
  2
CLASSES
  0
CLASS
  1
ACDBDICTIONARYWDFLT
  2
AcDbDictionaryWithDefault
  3
ObjectDBX Classes
 90
0
 91
0
280
0
281
0
  0
CLASS
  1
SUN
  2
AcDbSun
  3
SCENEOE
 90
1153
 91
0
280
0
281
0
  0
CLASS
  1
VISUALSTYLE
  2
AcDbVisualStyle
  3
ObjectDBX Classes
 90
4095
 91
0
280
0
281
0
  0
CLASS
  1
MATERIAL
  2
AcDbMaterial
  3
ObjectDBX Classes
 90
1153
 91
0
280
0
281
0
  0
CLASS
  1
SCALE
  2
AcDbScale
  3
ObjectDBX Classes
 90
1153
 91
0
280
0
281
0
  0
CLASS
  1
TABLESTYLE
  2
AcDbTableStyle
  3
ObjectDBX Classes
 90
4095
 91
0
280
0
281
0
  0
CLASS
  1
MLEADERSTYLE
  2
AcDbMLeaderStyle
  3
ACDB_MLEADERSTYLE_CLASS
 90
4095
 91
0
280
0
281
0
  0
CLASS
  1
DICTIONARYVAR
  2
AcDbDictionaryVar
  3
ObjectDBX Classes
 90
0
 91
0
280
0
281
0
  0
CLASS
  1
CELLSTYLEMAP
  2
AcDbCellStyleMap
  3
ObjectDBX Classes
 90
1152
 91
0
280
0
281
0
  0
CLASS
  1
MENTALRAYRENDERSETTINGS
  2
AcDbMentalRayRenderSettings
  3
SCENEOE
 90
1024
 91
0
280
0
281
0
  0
CLASS
  1
ACDBDETAILVIEWSTYLE
  2
AcDbDetailViewStyle
  3
ObjectDBX Classes
 90
1025
 91
0
280
0
281
0
  0
CLASS
  1
ACDBSECTIONVIEWSTYLE
  2
AcDbSectionViewStyle
  3
ObjectDBX Classes
 90
1025
 91
0
280
0
281
0
  0
CLASS
  1
RASTERVARIABLES
  2
AcDbRasterVariables
  3
ISM
 90
0
 91
0
280
0
281
0
  0
CLASS
  1
ACDBPLACEHOLDER
  2
AcDbPlaceHolder
  3
ObjectDBX Classes
 90
0
 91
0
280
0
281
0
  0
CLASS
  1
LAYOUT
  2
AcDbLayout
  3
ObjectDBX Classes
 90
0
 91
0
280
0
281
0
  0
ENDSEC
  0
SECTION
  2
TABLES
  0
TABLE
  2
VPORT
  5
8
330
0
100
AcDbSymbolTable
 70
1
  0
VPORT
  5
6F
330
8
100
AcDbSymbolTableRecord
100
AcDbViewportTableRecord
  2
*Active
 70
0
 10
0.0
 20
0.0
 11
1.0
 21
1.0
 12
233.50000010396
 22
47.82222454153101
 13
0.0
 23
0.0
 14
0.5
 24
0.5
 15
0.5
 25
0.5
 16
0.0
 26
0.0
 36
1.0
 17
0.0
 27
0.0
 37
0.0
 40
233.50000000396
 41
1.34
 42
50.0
 43
0.0
 44
0.0
 50
0.0
 51
0.0
 71
0
 72
1000
 73
1
 74
3
 75
0
 76
0
 77
0
 78
0
281
0
 65
1
110
0.0
120
0.0
130
0.0
111
1.0
121
0.0
131
0.0
112
0.0
122
1.0
132
0.0
 79
0
146
0.0
  0
ENDTAB
  0
TABLE
  2
LTYPE
  5
2
330
0
100
AcDbSymbolTable
 70
3
  0
LTYPE
  5
24
330
2
100
AcDbSymbolTableRecord
100
AcDbLinetypeTableRecord
  2
ByBlock
 70
0
  3

 72
65
 73
0
 40
0.0
  0
LTYPE
  5
25
330
2
100
AcDbSymbolTableRecord
100
AcDbLinetypeTableRecord
  2
ByLayer
 70
0
  3

 72
65
 73
0
 40
0.0
  0
LTYPE
  5
26
330
2
100
AcDbSymbolTableRecord
100
AcDbLinetypeTableRecord
  2
Continuous
 70
0
  3

 72
65
 73
0
 40
0.0
  0
ENDTAB
  0
TABLE
  2
LAYER
  5
1
330
0
100
AcDbSymbolTable
 70
4
  0
LAYER
  5
27
330
1
100
AcDbSymbolTableRecord
100
AcDbLayerTableRecord
  2
0
 70
0
 62
7
  6
Continuous
370
-3
390
13
347
21
  0
LAYER
  5
28
330
1
100
AcDbSymbolTableRecord
100
AcDbLayerTableRecord
  2
Defpoints
 70
0
 62
7
  6
Continuous
290
0
370
-3
390
13
347
21
  0
LAYER
  5
73
330
1
100
AcDbSymbolTableRecord
100
AcDbLayerTableRecord
  2
CUT
 70
0
 62
1
  6
Continuous
370
-3
390
13
347
21
  0
LAYER
  5
74
330
1
100
AcDbSymbolTableRecord
100
AcDbLayerTableRecord
  2
LABELS_NONCUT
 70
0
 62
7
  6
Continuous
370
-3
390
13
347
21
  0
ENDTAB
  0
TABLE
  2
STYLE
  5
5
330
0
100
AcDbSymbolTable
 70
1
  0
STYLE
  5
29
330
5
100
AcDbSymbolTableRecord
100
AcDbTextStyleTableRecord
  2
Standard
 70
0
 40
0.0
 41
1.0
 50
0.0
 71
0
 42
2.5
  3
txt
  4

  0
ENDTAB
  0
TABLE
  2
VIEW
  5
7
330
0
100
AcDbSymbolTable
 70
0
  0
ENDTAB
  0
TABLE
  2
UCS
  5
6
330
0
100
AcDbSymbolTable
 70
0
  0
ENDTAB
  0
TABLE
  2
APPID
  5
3
330
0
100
AcDbSymbolTable
 70
3
  0
APPID
  5
2A
330
3
100
AcDbSymbolTableRecord
100
AcDbRegAppTableRecord
  2
ACAD
 70
0
  0
APPID
  5
70
330
3
100
AcDbSymbolTableRecord
100
AcDbRegAppTableRecord
  2
HATCHBACKGROUNDCOLOR
 70
0
  0
APPID
  5
71
330
3
100
AcDbSymbolTableRecord
100
AcDbRegAppTableRecord
  2
EZDXF
 70
0
  0
ENDTAB
  0
TABLE
  2
DIMSTYLE
  5
4
330
0
100
AcDbSymbolTable
 70
1
100
AcDbDimStyleTable
  0
DIMSTYLE
105
2B
330
4
100
AcDbSymbolTableRecord
100
AcDbDimStyleTableRecord
  2
Standard
 70
0
 40
1.0
 41
2.5
 42
0.625
 43
3.75
 44
1.25
 45
0.0
 46
0.0
 47
0.0
 48
0.0
 49
2.5
140
2.5
141
2.5
142
0.0
143
0.03937007874
144
1.0
145
0.0
146
1.0
147
0.625
148
0.0
 69
0
 70
0
 71
0
 72
0
 73
0
 74
0
 75
0
 76
0
 77
1
 78
8
 79
3
170
0
171
3
172
1
173
0
174
0
175
0
176
0
177
0
178
0
179
2
271
2
272
2
273
2
274
3
275
0
276
0
277
2
278
44
279
0
280
0
281
0
282
0
283
0
284
8
285
0
286
0
288
0
289
3
290
0
371
-2
372
-2
  0
ENDTAB
  0
TABLE
  2
BLOCK_RECORD
  5
9
330
0
100
AcDbSymbolTable
 70
2
  0
BLOCK_RECORD
  5
17
330
9
100
AcDbSymbolTableRecord
100
AcDbBlockTableRecord
  2
*Model_Space
340
1A
 70
0
280
1
281
0
  0
BLOCK_RECORD
  5
1B
330
9
100
AcDbSymbolTableRecord
100
AcDbBlockTableRecord
  2
*Paper_Space
340
1E
 70
0
280
1
281
0
  0
ENDTAB
  0
ENDSEC
  0
SECTION
  2
BLOCKS
  0
BLOCK
  5
18
330
17
100
AcDbEntity
  8
0
100
AcDbBlockBegin
  2
*Model_Space
 70
0
 10
0.0
 20
0.0
 30
0.0
  3
*Model_Space
  1

  0
ENDBLK
  5
19
330
17
100
AcDbEntity
  8
0
100
AcDbBlockEnd
  0
BLOCK
  5
1C
330
1B
100
AcDbEntity
  8
0
100
AcDbBlockBegin
  2
*Paper_Space
 70
0
 10
0.0
 20
0.0
 30
0.0
  3
*Paper_Space
  1

  0
ENDBLK
  5
1D
330
1B
100
AcDbEntity
  8
0
100
AcDbBlockEnd
  0
ENDSEC
  0
SECTION
  2
ENTITIES
  0
LINE
  5
2F
330
17
100
AcDbEntity
  8
CUT
100
AcDbLine
 10
9.999999406318238e-08
 20
95.644449037016
 30
1.0000450677936829e-07
 11
1.015399959669594e-07
 21
85.644449037016
 31
1.0000373200326828e-07
  0
LINE
  5
30
330
17
100
AcDbEntity
  8
CUT
100
AcDbLine
 10
1.015399959669594e-07
 20
85.644449037016
 30
1.0000373200326828e-07
 11
123.00000010231
 21
85.644448370516
 31
1.0000338662206829e-07
  0
LINE
  5
31
330
17
100
AcDbEntity
  8
CUT
100
AcDbLine
 10
123.00000010231
 20
85.644448370516
 30
1.0000338662206829e-07
 11
123.00000010231
 21
79.822218570046
 31
1.0000335137146829e-07
  0
LINE
  5
32
330
17
100
AcDbEntity
  8
CUT
100
AcDbLine
 10
123.00000010231
 20
79.822218570046
 30
1.0000335137146829e-07
 11
130.00000010231
 21
85.644449037016
 31
1.0000361374976829e-07
  0
LINE
  5
33
330
17
100
AcDbEntity
  8
CUT
100
AcDbLine
 10
130.00000010231
 20
85.644449037016
 30
1.0000361374976829e-07
 11
273.99999673494
 21
85.644449037016
 31
1.0000372237816829e-07
  0
LINE
  5
34
330
17
100
AcDbEntity
  8
CUT
100
AcDbLine
 10
273.99999673494
 20
85.644449037016
 30
1.0000372237816829e-07
 11
273.99999673494
 21
79.822924732236
 31
1.0000345974446829e-07
  0
LINE
  5
35
330
17
100
AcDbEntity
  8
CUT
100
AcDbLine
 10
273.99999673494
 20
79.822924732236
 30
1.0000345974446829e-07
 11
280.99999673493
 21
85.64323930558601
 31
1.0000338108806828e-07
  0
SPLINE
  5
36
330
17
100
AcDbEntity
  8
CUT
100
AcDbSpline
 70
0
 71
3
 72
29
 73
25
 74
0
 40
0.0
 40
0.0
 40
0.0
 40
0.0
 40
0.07670246059702168
 40
0.07670246059702168
 40
0.07670246059702168
 40
0.15534452998081136
 40
0.15534452998081136
 40
0.15534452998081136
 40
0.23760942197777246
 40
0.23760942197777246
 40
0.23760942197777246
 40
0.3225057897894983
 40
0.3225057897894983
 40
0.3225057897894983
 40
0.4121842537122033
 40
0.4121842537122033
 40
0.4121842537122033
 40
0.43225244553576814
 40
0.43225244553576814
 40
0.43225244553576814
 40
0.9029481590334625
 40
0.9029481590334625
 40
0.9029481590334625
 40
1.0
 40
1.0
 40
1.0
 40
1.0
 10
280.99999673493
 20
85.643239305586
 30
1.0000429058276827e-07
 10
282.70375605243004
 20
85.64161389435601
 30
1.0000440423166829e-07
 10
284.3961470279899
 20
85.638333612516
 30
1.0000429052956827e-07
 10
286.07714277819997
 20
85.63330094186601
 30
1.0000429053836827e-07
 10
287.80064660605996
 20
85.628141007866
 30
1.0000429054726827e-07
 10
289.5121718021899
 20
85.621138864776
 30
1.0000463164196828e-07
 10
291.21174419342
 20
85.612194388356
 30
1.0000417695546828e-07
 10
292.9896111835199
 20
85.602837864656
 30
1.0000383595856827e-07
 10
294.75439883773
 20
85.591355816176
 30
1.0000429079856827e-07
 10
296.50619393295
 20
85.577640497326
 30
1.0000474566916827e-07
 10
298.31402516147006
 20
85.563486455106
 30
1.0000383630166827e-07
 10
300.10801967269
 20
85.546953861686
 30
1.0000372277446828e-07
 10
301.88832879251
 20
85.527933254716
 30
1.0000406402876828e-07
 10
303.76892028604
 20
85.507841243016
 30
1.0000406423336828e-07
 10
305.63424151705004
 20
85.484972827536
 30
1.000036097285683e-07
 10
307.48452750350003
 20
85.45921142729601
 30
1.0000361001056827e-07
 10
307.89858337027005
 20
85.453446556896
 30
1.0000429219476829e-07
 10
308.3118865152699
 20
85.447536867866
 30
1.0000429225986828e-07
 10
308.72443990296
 20
85.441481149086
 30
1.0000338283226827e-07
 10
318.40080301814993
 20
85.299445389486
 30
1.0000338440576828e-07
 10
327.71919291178
 20
85.07628930688601
 30
1.0000463763996827e-07
 10
336.77884854338
 20
84.756760045446
 30
1.0000498268696827e-07
 10
338.64684145766006
 20
84.690876923546
 30
1.000044150746683e-07
 10
340.50369853204
 20
84.62090119330601
 30
1.0000430226536827e-07
 10
342.35000010230993
 20
84.546660960696
 30
1.0000464426116827e-07
  0
LINE
  5
37
330
17
100
AcDbEntity
  8
CUT
100
AcDbLine
 10
342.35000010231
 20
84.546660960696
 30
1.0000464426116828e-07
 11
342.35000010231
 21
88.32224018401601
 31
1.0000357021546828e-07
  0
LINE
  5
38
330
17
100
AcDbEntity
  8
CUT
100
AcDbLine
 10
342.35000010231
 20
88.32224018401601
 30
1.0000357021546828e-07
 11
344.85000010231
 21
88.32224018401601
 31
1.000036838145683e-07
  0
LINE
  5
39
330
17
100
AcDbEntity
  8
CUT
100
AcDbLine
 10
344.85000010231
 20
88.32224018401601
 30
1.000036838145683e-07
 11
344.85000010231
 21
84.443241145196
 31
1.0000441819286828e-07
  0
SPLINE
  5
3A
330
17
100
AcDbEntity
  8
CUT
100
AcDbSpline
 70
0
 71
3
 72
23
 73
19
 74
0
 40
0.0
 40
0.0
 40
0.0
 40
0.0
 40
0.15862877422139524
 40
0.15862877422139524
 40
0.15862877422139524
 40
0.3850766512364188
 40
0.3850766512364188
 40
0.3850766512364188
 40
0.6115245282441106
 40
0.6115245282441106
 40
0.6115245282441106
 40
0.837972405259135
 40
0.837972405259135
 40
0.837972405259135
 40
0.9511963437666467
 40
0.9511963437666467
 40
0.9511963437666467
 40
1.0
 40
1.0
 40
1.0
 40
1.0
 10
344.85000010230993
 20
84.44324114519601
 30
1.0000441819286827e-07
 10
351.09062361254
 20
84.177783419676
 30
1.0000453523676827e-07
 10
357.21244126089
 20
83.86220479392601
 30
1.0000465295996827e-07
 10
363.23821082688
 20
83.489764469946
 30
1.0000465776576828e-07
 10
371.84019828016
 20
82.958093459486
 30
1.0000455093936827e-07
 10
380.23988566771
 20
82.310928951686
 30
1.0000490042326828e-07
 10
388.47976989132
 20
81.519514240276
 30
1.0000456973516827e-07
 10
396.71965411492994
 20
80.728099528866
 30
1.0000401167336827e-07
 10
404.7892382303399
 20
79.793391169826
 30
1.0000459241636827e-07
 10
412.71532995240005
 20
78.672313271716
 30
1.0000392511986827e-07
 10
420.64142167447
 20
77.551235373596
 30
1.0000450837866828e-07
 10
428.4016595757599
 20
76.246760488026
 30
1.0000429830606827e-07
 10
436.00086301280004
 20
74.68731556313601
 30
1.0000443273456827e-07
 10
439.8004647313199
 20
73.907593100696
 30
1.0000432941856828e-07
 10
443.55117156961006
 20
73.065922164186
 30
1.0000445431256829e-07
 10
447.24983952938993
 20
72.14827006162601
 30
1.0000446654506828e-07
 10
448.84410061956993
 20
71.75272846195601
 30
1.0000435813096828e-07
 10
450.4276418626801
 20
71.34332591965601
 30
1.0000390884336827e-07
 10
452.00000010792
 20
70.918733587836
 30
1.0000436925556828e-07
  0
LINE
  5
3B
330
17
100
AcDbEntity
  8
CUT
100
AcDbLine
 10
452.00000010791996
 20
70.918733587836
 30
1.0000334607396829e-07
 11
452.00000010791996
 21
50.322224568466005
 31
1.0000225930526829e-07
  0
LINE
  5
3C
330
17
100
AcDbEntity
  8
CUT
100
AcDbLine
 10
452.00000010791996
 20
50.322224568466005
 30
1.0000225930526829e-07
 11
456.00000010791996
 21
50.322224568466005
 31
1.0000271391216829e-07
  0
LINE
  5
3D
330
17
100
AcDbEntity
  8
CUT
100
AcDbLine
 10
456.00000010791996
 20
50.322224568466005
 30
1.0000271391216829e-07
 11
456.00000010791996
 21
45.322224568466005
 31
1.000030086451683e-07
  0
LINE
  5
3E
330
17
100
AcDbEntity
  8
CUT
100
AcDbLine
 10
456.00000010791996
 20
45.322224568466005
 30
1.000030086451683e-07
 11
452.00000010791996
 21
45.322224568466005
 31
1.0000266772516829e-07
  0
LINE
  5
3F
330
17
100
AcDbEntity
  8
CUT
100
AcDbLine
 10
452.00000010791996
 20
45.322224568466005
 30
1.0000266772516829e-07
 11
452.00000010791996
 21
24.725715549181004
 31
1.0000328625896828e-07
  0
SPLINE
  5
40
330
17
100
AcDbEntity
  8
CUT
100
AcDbSpline
 70
0
 71
3
 72
23
 73
19
 74
0
 40
0.0
 40
0.0
 40
0.0
 40
0.0
 40
0.04880365623492897
 40
0.04880365623492897
 40
0.04880365623492897
 40
0.16202759474083758
 40
0.16202759474083758
 40
0.16202759474083758
 40
0.3884754717526547
 40
0.3884754717526547
 40
0.3884754717526547
 40
0.6149233487632988
 40
0.6149233487632988
 40
0.6149233487632988
 40
0.8413712257784887
 40
0.8413712257784887
 40
0.8413712257784887
 40
1.0
 40
1.0
 40
1.0
 40
1.0
 10
452.00000010792
 20
24.725715549181004
 30
1.0000430944046827e-07
 10
450.4276418626801
 20
24.301123217360004
 30
1.0000431521576828e-07
 10
448.84410061956993
 20
23.891720675057
 30
1.0000375235266828e-07
 10
447.24983952938993
 20
23.496179075392003
 30
1.0000387142416827e-07
 10
443.55117156961006
 20
22.578526972823003
 30
1.0000445235076828e-07
 10
439.8004647313199
 20
21.736856036317004
 30
1.0000400907406829e-07
 10
436.00086301280004
 20
20.957133573875
 30
1.0000458814606829e-07
 10
428.4016595757599
 20
19.397688648991004
 30
1.0000369992686827e-07
 10
420.64142167447
 20
18.093213763417005
 30
1.0000451358106829e-07
 10
412.71532995241006
 20
16.972135865302004
 30
1.0000407421516828e-07
 10
404.7892382303399
 20
15.851057967186003
 30
1.0000397590976827e-07
 10
396.71965411492994
 20
14.916349608151004
 30
1.0000444353286827e-07
 10
388.47976989132
 20
14.124934896742007
 30
1.0000399973676827e-07
 10
380.23988566771
 20
13.333520185332008
 30
1.0000469280906828e-07
 10
371.84019828016
 20
12.686355677526004
 30
1.0000481550946827e-07
 10
363.23821082688
 20
12.154684667067004
 30
1.0000414085326829e-07
 10
357.21244126089
 20
11.782244343090008
 30
1.0000448714286827e-07
 10
351.09062361254
 20
11.466665717338005
 30
1.0000506004356827e-07
 10
344.85000010230993
 20
11.201207991817002
 30
1.0000392697056828e-07
  0
LINE
  5
41
330
17
100
AcDbEntity
  8
CUT
100
AcDbLine
 10
344.85000010231
 20
11.201207991817
 30
1.0000483646526829e-07
 11
344.85000010231
 21
7.322240184016003
 31
1.0000386554066829e-07
  0
LINE
  5
42
330
17
100
AcDbEntity
  8
CUT
100
AcDbLine
 10
344.85000010231
 20
7.322240184016003
 30
1.0000386554066829e-07
 11
342.35000010231
 21
7.322240184016003
 31
1.000036382548683e-07
  0
LINE
  5
43
330
17
100
AcDbEntity
  8
CUT
100
AcDbLine
 10
342.35000010231
 20
7.322240184016003
 30
1.000036382548683e-07
 11
342.35000010231
 21
11.097788176316001
 31
1.0000404213856828e-07
  0
SPLINE
  5
44
330
17
100
AcDbEntity
  8
CUT
100
AcDbSpline
 70
0
 71
3
 72
14
 73
10
 74
0
 40
0.0
 40
0.0
 40
0.0
 40
0.0
 40
0.09702061335109233
 40
0.09702061335109233
 40
0.09702061335109233
 40
0.5675648747425224
 40
0.5675648747425224
 40
0.5675648747425224
 40
1.0
 40
1.0
 40
1.0
 40
1.0
 10
342.35000010230993
 20
11.097788176316003
 30
1.0000404213856828e-07
 10
340.50369853204
 20
11.023547943704004
 30
1.0000472532456828e-07
 10
338.64684145766006
 20
10.953572213463007
 30
1.000038168377683e-07
 10
336.77884854338
 20
10.887689091571007
 30
1.0000381779096827e-07
 10
327.71919291178
 20
10.568159830132005
 30
1.0000404978756828e-07
 10
318.40080301814993
 20
10.345003747526002
 30
1.0000462155536829e-07
 10
308.72443990296
 20
10.202967987925001
 30
1.0000416906146827e-07
 10
299.8317604270799
 20
10.072435630962007
 30
1.0000462587966827e-07
 10
290.63504278043007
 20
10.010401805803008
 30
1.0000394491746827e-07
 10
280.99999673494
 20
10.001209831431007
 30
1.0000417275346827e-07
  0
LINE
  5
45
330
17
100
AcDbEntity
  8
CUT
100
AcDbLine
 10
280.99999673494
 20
10.001209831431005
 30
1.0000417275346829e-07
 11
273.99999673494
 21
15.822924732242004
 31
1.0000398088316829e-07
  0
LINE
  5
46
330
17
100
AcDbEntity
  8
CUT
100
AcDbLine
 10
273.99999673494
 20
15.822924732242004
 30
1.0000398088316829e-07
 11
273.99999673494
 21
10.000000100001003
 31
1.0000337720776829e-07
  0
LINE
  5
47
330
17
100
AcDbEntity
  8
CUT
100
AcDbLine
 10
273.99999673494
 20
10.000000100001003
 30
1.0000337720776829e-07
 11
130.00000010231
 21
10.000000100001003
 31
1.0000429176086829e-07
  0
LINE
  5
48
330
17
100
AcDbEntity
  8
CUT
100
AcDbLine
 10
130.00000010231
 20
10.000000100001003
 30
1.0000429176086829e-07
 11
123.00000010231
 21
15.822218570051007
 31
1.0000375882336828e-07
  0
LINE
  5
49
330
17
100
AcDbEntity
  8
CUT
100
AcDbLine
 10
123.00000010231
 20
15.822218570051007
 30
1.0000375882336828e-07
 11
123.00000010231
 21
9.999994600772006
 31
1.0000201827016829e-07
  0
LINE
  5
4A
330
17
100
AcDbEntity
  8
CUT
100
AcDbLine
 10
123.00000010231
 20
9.999994600772006
 30
1.0000201827016829e-07
 11
1.1326000048939022e-07
 21
10.000000100000001
 31
1.0000441001436829e-07
  0
LINE
  5
4B
330
17
100
AcDbEntity
  8
CUT
100
AcDbLine
 10
1.1326000048939022e-07
 20
10.000000100000001
 30
1.0000441001436829e-07
 11
1.1481000683488674e-07
 21
1.0000000116860974e-07
 31
1.000046584198683e-07
  0
LINE
  5
4C
330
17
100
AcDbEntity
  8
CUT
100
AcDbLine
 10
1.1481000683488674e-07
 20
1.0000000116860974e-07
 30
1.000046584198683e-07
 11
30.00000011480998
 21
1.0000100303386716e-07
 31
1.0001011433426829e-07
  0
LINE
  5
4D
330
17
100
AcDbEntity
  8
CUT
100
AcDbLine
 10
30.00000011480998
 20
1.0000100303386716e-07
 30
1.0001011433426829e-07
 11
30.00000011480998
 21
4.822218570050005
 31
1.000040239675683e-07
  0
LINE
  5
4E
330
17
100
AcDbEntity
  8
CUT
100
AcDbLine
 10
30.00000011480998
 20
4.822218570050005
 30
1.000040239675683e-07
 11
58.60752791272998
 21
4.822218570050005
 31
1.0000390927576829e-07
  0
LINE
  5
4F
330
17
100
AcDbEntity
  8
CUT
100
AcDbLine
 10
58.60752791272998
 20
4.822218570050005
 30
1.0000390927576829e-07
 11
58.60752791272998
 21
1.0000100303386716e-07
 31
1.0000977226876829e-07
  0
LINE
  5
50
330
17
100
AcDbEntity
  8
CUT
100
AcDbLine
 10
58.60752791272998
 20
1.0000100303386716e-07
 30
1.0000977226876829e-07
 11
269.35045198798997
 21
4.6046004342770175e-08
 31
9.99985098688483e-08
  0
SPLINE
  5
51
330
17
100
AcDbEntity
  8
CUT
100
AcDbSpline
 70
0
 71
3
 72
27
 73
23
 74
0
 40
0.0
 40
0.0
 40
0.0
 40
0.0
 40
0.038878075194606704
 40
0.038878075194606704
 40
0.038878075194606704
 40
0.17537207439271543
 40
0.17537207439271543
 40
0.31186607359524343
 40
0.31186607359524343
 40
0.44836007279335205
 40
0.44836007279335205
 40
0.58485407199588
 40
0.58485407199588
 40
0.721348071195668
 40
0.721348071195668
 40
0.857842070396163
 40
0.857842070396163
 40
0.9260890699964106
 40
0.9260890699964106
 40
0.9943360695966581
 40
0.9943360695966581
 40
1.0
 40
1.0
 40
1.0
 40
1.0
 10
269.35045198797997
 20
1.0000100400531231e-07
 30
1.0000396683706828e-07
 10
272.38480141475003
 20
1.0000100400531231e-07
 30
1.0000430779096828e-07
 10
275.41545392896006
 20
1.0000100400531231e-07
 30
1.0000419399766828e-07
 10
278.44237405217
 20
1.0000100400531231e-07
 30
1.0000419389136828e-07
 10
289.05014321134996
 20
1.0000100400531231e-07
 30
1.0000385245816828e-07
 10
299.13536655359
 20
0.06113626959400262
 30
1.0000476077506828e-07
 10
318.60705424228996
 20
0.34695398009800116
 30
1.0000407411946827e-07
 10
327.99418993936007
 20
0.5716410849170056
 30
1.0000418444966828e-07
 10
346.26845824651997
 20
1.2161648607610056
 30
1.0000440249846828e-07
 10
355.15452346627995
 20
1.6359658195620037
 30
1.0000416915706829e-07
 10
372.5557022676799
 20
2.711496604368002
 30
1.0000449511696828e-07
 10
381.06862640918
 20
3.367099027201001
 30
1.0000425861206828e-07
 10
397.80305037984004
 20
4.974387304311002
 30
1.0000491849206827e-07
 10
406.0210512275899
 20
5.925754306595004
 30
1.0000422326566827e-07
 10
422.21055893786007
 20
8.215621735816002
 30
1.0000476028236827e-07
 10
430.17461199125006
 20
9.553131312212004
 30
1.0000428723646827e-07
 10
441.9293270024901
 20
11.965335541196007
 30
1.0000436801356827e-07
 10
445.81279249004007
 20
12.836462249668005
 30
1.0000469720186828e-07
 10
453.5029411858
 20
14.744414300642008
 30
1.0000376173336828e-07
 10
457.30773803670996
 20
15.780780728060003
 30
1.0000374763796827e-07
 10
461.3773503697101
 20
17.013276230824005
 30
1.0000395826466828e-07
 10
461.68885691560996
 20
17.108415719395005
 30
1.0000418434566828e-07
 10
462.00000010792
 20
17.204262062893005
 30
1.0000475147776827e-07
  0
SPLINE
  5
52
330
17
100
AcDbEntity
  8
CUT
100
AcDbSpline
 70
0
 71
3
 72
11
 73
7
 74
0
 40
0.0
 40
0.0
 40
0.0
 40
0.0
 40
0.396608302109
 40
0.396608302109
 40
0.396608302109
 40
0.925419371589
 40
0.925419371589
 40
0.925419371589
 40
0.925419371589
 10
467.00000010792
 20
24.275329874758004
 30
1.0000420129426827e-07
 10
467.00000010792
 20
22.956444784750005
 30
1.0000444643576828e-07
 10
466.64470072196997
 20
21.636580674125003
 30
1.0000389579506829e-07
 10
465.98009634952
 20
20.499169390225003
 30
1.0000436588886829e-07
 10
465.0939571862701
 20
18.982621011693002
 30
1.0000427266386827e-07
 10
463.6579424914799
 20
17.790433214007003
 30
1.0000406140166827e-07
 10
462.00000010792
 20
17.204262062892003
 30
1.0000372829616828e-07
  0
LINE
  5
53
330
17
100
AcDbEntity
  8
CUT
100
AcDbLine
 10
467.00000010791996
 20
24.275329874758004
 30
1.0000522447586829e-07
 11
467.00000010791996
 21
29.861575227883
 31
1.0000037437146829e-07
  0
LINE
  5
54
330
17
100
AcDbEntity
  8
CUT
100
AcDbLine
 10
467.00000010791996
 20
29.861575227883
 30
1.0000037437146829e-07
 11
462.00000010791996
 21
29.861575227882003
 31
1.000000334866683e-07
  0
LINE
  5
55
330
17
100
AcDbEntity
  8
CUT
100
AcDbLine
 10
462.00000010791996
 20
29.861575227882003
 30
1.000000334866683e-07
 11
462.00000010791996
 21
65.78287391315601
 31
1.000006864281683e-07
  0
LINE
  5
56
330
17
100
AcDbEntity
  8
CUT
100
AcDbLine
 10
462.00000010791996
 20
65.78287391315601
 30
1.000006864281683e-07
 11
467.00000010791996
 21
65.78287391315601
 31
1.000020504946683e-07
  0
LINE
  5
57
330
17
100
AcDbEntity
  8
CUT
100
AcDbLine
 10
467.00000010791996
 20
65.78287391315601
 30
1.000020504946683e-07
 11
467.00000010791996
 21
71.369119262256
 31
1.0000481740846828e-07
  0
SPLINE
  5
58
330
17
100
AcDbEntity
  8
CUT
100
AcDbSpline
 70
0
 71
3
 72
11
 73
7
 74
0
 40
0.0
 40
0.0
 40
0.0
 40
0.0
 40
0.528811069479
 40
0.528811069479
 40
0.528811069479
 40
0.925419371589
 40
0.925419371589
 40
0.925419371589
 40
0.925419371589
 10
462.00000010792
 20
78.440187074126
 30
1.0000449494996827e-07
 10
463.6579424914799
 20
77.854015923006
 30
1.0000382066746827e-07
 10
465.0939584256999
 20
76.661829218886
 30
1.0000372299116828e-07
 10
465.9800974119001
 20
75.145280684126
 30
1.0000419813816827e-07
 10
466.64470165153995
 20
74.007869283056
 30
1.0000432712466828e-07
 10
467.00000010792
 20
72.688004352266
 30
1.0000457226696828e-07
 10
467.00000010792
 20
71.369119262256
 30
1.0000368054006828e-07
  0
SPLINE
  5
59
330
17
100
AcDbEntity
  8
CUT
100
AcDbSpline
 70
0
 71
3
 72
35
 73
31
 74
0
 40
0.0
 40
0.0
 40
0.0
 40
0.0
 40
0.003153499157305058
 40
0.003153499157305058
 40
0.003153499157305058
 40
0.041151292278779526
 40
0.041151292278779526
 40
0.041151292278779526
 40
0.07914908540271451
 40
0.07914908540271451
 40
0.07914908540271451
 40
0.15514467165058476
 40
0.15514467165058476
 40
0.15514467165058476
 40
0.23114025789599424
 40
0.23114025789599424
 40
0.23114025789599424
 40
0.3071358441438642
 40
0.3071358441438642
 40
0.3071358441438642
 40
0.38313143038927366
 40
0.38313143038927366
 40
0.38313143038927366
 40
0.45912701663714367
 40
0.45912701663714367
 40
0.45912701663714367
 40
0.5351226028825531
 40
0.5351226028825531
 40
0.5351226028825531
 40
1.0
 40
1.0
 40
1.0
 40
1.0
 10
462.00000010792
 20
78.440187074126
 30
1.0000449494996827e-07
 10
461.68885691560996
 20
78.536033417616
 30
1.0000494841696827e-07
 10
461.3773503697101
 20
78.631172906186
 30
1.0000460608576828e-07
 10
461.0654884972999
 20
78.725621301706
 30
1.0000471851116827e-07
 10
457.30773803670996
 20
79.863668408956
 30
1.0000481699836827e-07
 10
453.5029411858
 20
80.90003483637601
 30
1.0000468948336827e-07
 10
449.65786683792004
 20
81.854010861856
 30
1.0000456307976829e-07
 10
445.81279249004007
 20
82.807986887346
 30
1.0000443667616828e-07
 10
441.9293270024901
 20
83.679113595816
 30
1.0000419770326828e-07
 10
438.01108866541
 20
84.483181672146
 30
1.0000452806906828e-07
 10
430.17461199125006
 20
86.09131782480601
 30
1.0000405193246828e-07
 10
422.21055893786007
 20
87.428827401196
 30
1.0000471631446828e-07
 10
414.1158050827201
 20
88.573761115806
 30
1.0000413274026828e-07
 10
406.0210512275799
 20
89.718694830416
 30
1.0000434497386827e-07
 10
397.80305037984004
 20
90.670061832706
 30
1.0000410507216828e-07
 10
389.43583839451
 20
91.473705971256
 30
1.0000477666056827e-07
 10
381.06862640918
 20
92.277350109816
 30
1.0000431138056828e-07
 10
372.5557022676799
 20
92.93295253264601
 30
1.0000453022106827e-07
 10
363.85511286697994
 20
93.470717925046
 30
1.0000418222156828e-07
 10
355.15452346627995
 20
94.008483317456
 30
1.0000485740346827e-07
 10
346.26845824650997
 20
94.42828427625601
 30
1.0000405625226828e-07
 10
337.13132409294
 20
94.750546164176
 30
1.0000496172646828e-07
 10
327.99418993936007
 20
95.072808052096
 30
1.0000473033226828e-07
 10
318.60705424228996
 20
95.297495156916
 30
1.0000450026146827e-07
 10
308.87121039793993
 20
95.44040401216601
 30
1.000046123649683e-07
 10
299.13536655359
 20
95.58331286741601
 30
1.0000449709496828e-07
 10
289.05014321134996
 20
95.644449037016
 30
1.0000472399926828e-07
 10
278.44237405217
 20
95.644449037016
 30
1.0000415593766827e-07
 10
213.43541886218992
 20
95.644449037016
 30
1.0000404453446827e-07
 10
146.70556554816
 20
95.644449037016
 30
1.0000438793906828e-07
 10
78.60752791289002
 20
95.644449037016
 30
1.0000439033116828e-07
  0
LINE
  5
5A
330
17
100
AcDbEntity
  8
CUT
100
AcDbLine
 10
78.60752791272998
 20
95.644449037016
 30
1.0000223028126829e-07
 11
58.60752791272998
 21
95.644449037016
 31
1.0000359522586828e-07
  0
LINE
  5
5B
330
17
100
AcDbEntity
  8
CUT
100
AcDbLine
 10
58.60752791272998
 20
95.644449037016
 30
1.0000359522586828e-07
 11
58.60752791272998
 21
90.82226179797601
 31
1.000028643818683e-07
  0
LINE
  5
5C
330
17
100
AcDbEntity
  8
CUT
100
AcDbLine
 10
58.60752791272998
 20
90.82226179797601
 30
1.000028643818683e-07
 11
30.00000011480998
 21
90.82226179797601
 31
1.0000206957896828e-07
  0
LINE
  5
5D
330
17
100
AcDbEntity
  8
CUT
100
AcDbLine
 10
30.00000011480998
 20
90.82226179797601
 30
1.0000206957896828e-07
 11
30.00000011480998
 21
95.644449037016
 31
1.0000393729136829e-07
  0
LINE
  5
5E
330
17
100
AcDbEntity
  8
CUT
100
AcDbLine
 10
30.00000011480998
 20
95.644449037016
 30
1.0000393729136829e-07
 11
9.999999406318238e-08
 21
95.644449037016
 31
1.0000450677936829e-07
  0
CIRCLE
  5
5F
330
17
100
AcDbEntity
  8
CUT
100
AcDbCircle
 10
255.55000010230998
 20
90.222240184016
 30
1.0000401484994584e-07
 40
1.1
  0
CIRCLE
  5
60
330
17
100
AcDbEntity
  8
CUT
100
AcDbCircle
 10
217.15000010231
 20
90.222240184016
 30
1.0000401442250997e-07
 40
1.1
  0
CIRCLE
  5
61
330
17
100
AcDbEntity
  8
CUT
100
AcDbCircle
 10
189.95000010231007
 20
90.222240184016
 30
1.0000401537799567e-07
 40
1.1
  0
CIRCLE
  5
62
330
17
100
AcDbEntity
  8
CUT
100
AcDbCircle
 10
138.75000010231003
 20
90.222240184016
 30
1.0000401540020013e-07
 40
1.1
  0
CIRCLE
  5
63
330
17
100
AcDbEntity
  8
CUT
100
AcDbCircle
 10
94.99952075240998
 20
90.92139234880601
 30
1.0000456707056828e-07
 40
1.5
  0
CIRCLE
  5
64
330
17
100
AcDbEntity
  8
CUT
100
AcDbCircle
 10
69.35000010230999
 20
87.822240184016
 30
1.0000401464342702e-07
 40
1.1
  0
CIRCLE
  5
65
330
17
100
AcDbEntity
  8
CUT
100
AcDbCircle
 10
39.35000010230999
 20
87.822240184016
 30
1.0000401392091469e-07
 40
1.1
  0
CIRCLE
  5
66
330
17
100
AcDbEntity
  8
CUT
100
AcDbCircle
 10
15.00000011384003
 20
90.644449037256
 30
1.0000457361176828e-07
 40
1.5
  0
CIRCLE
  5
67
330
17
100
AcDbEntity
  8
CUT
100
AcDbCircle
 10
255.55000010230998
 20
5.4222401840160055
 30
1.0000401506643933e-07
 40
1.1
  0
CIRCLE
  5
68
330
17
100
AcDbEntity
  8
CUT
100
AcDbCircle
 10
217.15000010231
 20
5.4222401840160055
 30
1.0000401463900347e-07
 40
1.1
  0
CIRCLE
  5
69
330
17
100
AcDbEntity
  8
CUT
100
AcDbCircle
 10
189.95000010231007
 20
5.4222401840160055
 30
1.0000401381813232e-07
 40
1.1
  0
CIRCLE
  5
6A
330
17
100
AcDbEntity
  8
CUT
100
AcDbCircle
 10
138.75000010231003
 20
5.4222401840160055
 30
1.0000401384033678e-07
 40
1.1
  0
CIRCLE
  5
6B
330
17
100
AcDbEntity
  8
CUT
100
AcDbCircle
 10
94.99952075260995
 20
4.723056791140004
 30
1.0000470514116827e-07
 40
1.5
  0
CIRCLE
  5
6C
330
17
100
AcDbEntity
  8
CUT
100
AcDbCircle
 10
69.35000010230999
 20
7.822240184016004
 30
1.0000401414382666e-07
 40
1.1
  0
CIRCLE
  5
6D
330
17
100
AcDbEntity
  8
CUT
100
AcDbCircle
 10
39.35000010230999
 20
7.822240184016004
 30
1.0000401519767117e-07
 40
1.1
  0
CIRCLE
  5
6E
330
17
100
AcDbEntity
  8
CUT
100
AcDbCircle
 10
15.000000114030001
 20
5.000000102323001
 30
1.0000436315996828e-07
 40
1.5
  0
TEXT
  5
75
330
17
100
AcDbEntity
  8
LABELS_NONCUT
100
AcDbText
 10
0.0
 20
98.64444913701604
 30
0.0
 40
2.0
  1
A43 / 5 mm / quantity 1
100
AcDbText
  0
ENDSEC
  0
SECTION
  2
OBJECTS
  0
DICTIONARY
  5
A
330
0
100
AcDbDictionary
281
1
  3
ACAD_COLOR
350
B
  3
ACAD_GROUP
350
C
  3
ACAD_LAYOUT
350
D
  3
ACAD_MATERIAL
350
E
  3
ACAD_MLEADERSTYLE
350
F
  3
ACAD_MLINESTYLE
350
10
  3
ACAD_PLOTSETTINGS
350
11
  3
ACAD_PLOTSTYLENAME
350
12
  3
ACAD_SCALELIST
350
14
  3
ACAD_TABLESTYLE
350
15
  3
ACAD_VISUALSTYLE
350
16
  3
EZDXF_META
350
2D
  0
DICTIONARY
  5
B
330
A
100
AcDbDictionary
281
1
  0
DICTIONARY
  5
C
330
A
100
AcDbDictionary
281
1
  0
DICTIONARY
  5
D
330
A
100
AcDbDictionary
281
1
  3
Model
350
1A
  3
Layout1
350
1E
  0
DICTIONARY
  5
E
330
A
100
AcDbDictionary
281
1
  3
ByBlock
350
1F
  3
ByLayer
350
20
  3
Global
350
21
  0
DICTIONARY
  5
F
330
A
100
AcDbDictionary
281
1
  3
Standard
350
2C
  0
DICTIONARY
  5
10
330
A
100
AcDbDictionary
281
1
  3
Standard
350
22
  0
DICTIONARY
  5
11
330
A
100
AcDbDictionary
281
1
  0
ACDBDICTIONARYWDFLT
  5
12
330
A
100
AcDbDictionary
281
1
  3
Normal
350
13
100
AcDbDictionaryWithDefault
340
13
  0
ACDBPLACEHOLDER
  5
13
330
12
  0
DICTIONARY
  5
14
330
A
100
AcDbDictionary
281
1
  0
DICTIONARY
  5
15
330
A
100
AcDbDictionary
281
1
  0
DICTIONARY
  5
16
330
A
100
AcDbDictionary
281
1
  0
LAYOUT
  5
1A
330
D
100
AcDbPlotSettings
  1

  4
A3
  6

 40
7.5
 41
20.0
 42
7.5
 43
20.0
 44
420.0
 45
297.0
 46
0.0
 47
0.0
 48
0.0
 49
0.0
140
0.0
141
0.0
142
1.0
143
1.0
 70
1024
 72
1
 73
0
 74
5
  7

 75
16
 76
0
 77
2
 78
300
147
1.0
148
0.0
149
0.0
100
AcDbLayout
  1
Model
 70
1
 71
0
 10
0.0
 20
0.0
 11
420.0
 21
297.0
 12
0.0
 22
0.0
 32
0.0
 14
1e+20
 24
1e+20
 34
1e+20
 15
-1e+20
 25
-1e+20
 35
-1e+20
146
0.0
 13
0.0
 23
0.0
 33
0.0
 16
1.0
 26
0.0
 36
0.0
 17
0.0
 27
1.0
 37
0.0
 76
1
330
17
  0
LAYOUT
  5
1E
330
D
100
AcDbPlotSettings
  1

  4
A3
  6

 40
7.5
 41
20.0
 42
7.5
 43
20.0
 44
420.0
 45
297.0
 46
0.0
 47
0.0
 48
0.0
 49
0.0
140
0.0
141
0.0
142
1.0
143
1.0
 70
0
 72
1
 73
0
 74
5
  7

 75
16
 76
0
 77
2
 78
300
147
1.0
148
0.0
149
0.0
100
AcDbLayout
  1
Layout1
 70
1
 71
1
 10
0.0
 20
0.0
 11
420.0
 21
297.0
 12
0.0
 22
0.0
 32
0.0
 14
1e+20
 24
1e+20
 34
1e+20
 15
-1e+20
 25
-1e+20
 35
-1e+20
146
0.0
 13
0.0
 23
0.0
 33
0.0
 16
1.0
 26
0.0
 36
0.0
 17
0.0
 27
1.0
 37
0.0
 76
1
330
1B
  0
MATERIAL
  5
1F
102
{ACAD_REACTORS
330
E
102
}
330
E
100
AcDbMaterial
  1
ByBlock
  2

 70
0
 40
1.0
 71
1
 41
1.0
 91
-1023410177
 42
1.0
 72
1
  3

 73
1
 74
1
 75
1
 44
0.5
 73
0
 45
1.0
 46
1.0
 77
1
  4

 78
1
 79
1
170
1
 48
1.0
171
1
  6

172
1
173
1
174
1
140
1.0
141
1.0
175
1
  7

176
1
177
1
178
1
143
1.0
179
1
  8

270
1
271
1
272
1
145
1.0
146
1.0
273
1
  9

274
1
275
1
276
1
 42
1.0
 72
1
  3

 73
1
 74
1
 75
1
 94
63
  0
MATERIAL
  5
20
102
{ACAD_REACTORS
330
E
102
}
330
E
100
AcDbMaterial
  1
ByLayer
  2

 70
0
 40
1.0
 71
1
 41
1.0
 91
-1023410177
 42
1.0
 72
1
  3

 73
1
 74
1
 75
1
 44
0.5
 73
0
 45
1.0
 46
1.0
 77
1
  4

 78
1
 79
1
170
1
 48
1.0
171
1
  6

172
1
173
1
174
1
140
1.0
141
1.0
175
1
  7

176
1
177
1
178
1
143
1.0
179
1
  8

270
1
271
1
272
1
145
1.0
146
1.0
273
1
  9

274
1
275
1
276
1
 42
1.0
 72
1
  3

 73
1
 74
1
 75
1
 94
63
  0
MATERIAL
  5
21
102
{ACAD_REACTORS
330
E
102
}
330
E
100
AcDbMaterial
  1
Global
  2

 70
0
 40
1.0
 71
1
 41
1.0
 91
-1023410177
 42
1.0
 72
1
  3

 73
1
 74
1
 75
1
 44
0.5
 73
0
 45
1.0
 46
1.0
 77
1
  4

 78
1
 79
1
170
1
 48
1.0
171
1
  6

172
1
173
1
174
1
140
1.0
141
1.0
175
1
  7

176
1
177
1
178
1
143
1.0
179
1
  8

270
1
271
1
272
1
145
1.0
146
1.0
273
1
  9

274
1
275
1
276
1
 42
1.0
 72
1
  3

 73
1
 74
1
 75
1
 94
63
  0
MLINESTYLE
  5
22
102
{ACAD_REACTORS
330
10
102
}
330
10
100
AcDbMlineStyle
  2
Standard
 70
0
  3

 62
256
 51
90.0
 52
90.0
 71
2
 49
0.5
 62
256
  6
BYLAYER
 49
-0.5
 62
256
  6
BYLAYER
  0
MLEADERSTYLE
  5
2C
102
{ACAD_REACTORS
330
F
102
}
330
F
100
AcDbMLeaderStyle
179
2
170
2
171
1
172
0
 90
2
 40
0.0
 41
0.0
173
1
 91
-1056964608
 92
-2
290
1
 42
2.0
291
1
 43
8.0
  3
Standard
 44
4.0
300

342
29
174
1
175
1
176
0
178
1
 93
-1056964608
 45
4.0
292
0
297
0
 46
4.0
 94
-1056964608
 47
1.0
 49
1.0
140
1.0
294
1
141
0.0
177
0
142
1.0
295
0
296
0
143
3.75
271
0
272
9
273
9
  0
DICTIONARY
  5
2D
330
A
100
AcDbDictionary
280
1
281
1
  3
CREATED_BY_EZDXF
350
2E
  3
WRITTEN_BY_EZDXF
350
72
  0
DICTIONARYVAR
  5
2E
330
2D
100
DictionaryVariables
280
0
  1
1.4.4 @ 2026-09-20T13:00:41.372960+00:00
  0
DICTIONARYVAR
  5
72
330
2D
100
DictionaryVariables
280
0
  1
1.4.4 @ 2026-09-20T13:00:41.429032+00:00
  0
ENDSEC
  0
EOF
