  0
SECTION
  2
HEADER
  9
$ACADVER
  1
AC1027
  9
$ACADMAINTVER
 70
105
  9
$DWGCODEPAGE
  3
ANSI_1252
  9
$LASTSAVEDBY
  1
ezdxf
  9
$REQUIREDVERSIONS
160
0
  9
$INSBASE
 10
0.0
 20
0.0
 30
0.0
  9
$EXTMIN
 10
1e+20
 20
1e+20
 30
1e+20
  9
$EXTMAX
 10
-1e+20
 20
-1e+20
 30
-1e+20
  9
$LIMMIN
 10
0.0
 20
0.0
  9
$LIMMAX
 10
420.0
 20
297.0
  9
$ORTHOMODE
 70
0
  9
$REGENMODE
 70
1
  9
$FILLMODE
 70
1
  9
$QTEXTMODE
 70
0
  9
$MIRRTEXT
 70
1
  9
$LTSCALE
 40
1.0
  9
$ATTMODE
 70
1
  9
$TEXTSIZE
 40
2.5
  9
$TRACEWID
 40
1.0
  9
$TEXTSTYLE
  7
Standard
  9
$CLAYER
  8
0
  9
$CELTYPE
  6
ByLayer
  9
$CECOLOR
 62
256
  9
$CELTSCALE
 40
1.0
  9
$DISPSILH
 70
0
  9
$DIMSCALE
 40
1.0
  9
$DIMASZ
 40
2.5
  9
$DIMEXO
 40
0.625
  9
$DIMDLI
 40
3.75
  9
$DIMRND
 40
0.0
  9
$DIMDLE
 40
0.0
  9
$DIMEXE
 40
1.25
  9
$DIMTP
 40
0.0
  9
$DIMTM
 40
0.0
  9
$DIMTXT
 40
2.5
  9
$DIMCEN
 40
2.5
  9
$DIMTSZ
 40
0.0
  9
$DIMTOL
 70
0
  9
$DIMLIM
 70
0
  9
$DIMTIH
 70
0
  9
$DIMTOH
 70
0
  9
$DIMSE1
 70
0
  9
$DIMSE2
 70
0
  9
$DIMTAD
 70
1
  9
$DIMZIN
 70
8
  9
$DIMBLK
  1

  9
$DIMASO
 70
1
  9
$DIMSHO
 70
1
  9
$DIMPOST
  1

  9
$DIMAPOST
  1

  9
$DIMALT
 70
0
  9
$DIMALTD
 70
3
  9
$DIMALTF
 40
0.03937007874
  9
$DIMLFAC
 40
1.0
  9
$DIMTOFL
 70
1
  9
$DIMTVP
 40
0.0
  9
$DIMTIX
 70
0
  9
$DIMSOXD
 70
0
  9
$DIMSAH
 70
0
  9
$DIMBLK1
  1

  9
$DIMBLK2
  1

  9
$DIMSTYLE
  2
ISO-25
  9
$DIMCLRD
 70
0
  9
$DIMCLRE
 70
0
  9
$DIMCLRT
 70
0
  9
$DIMTFAC
 40
1.0
  9
$DIMGAP
 40
0.625
  9
$DIMJUST
 70
0
  9
$DIMSD1
 70
0
  9
$DIMSD2
 70
0
  9
$DIMTOLJ
 70
0
  9
$DIMTZIN
 70
8
  9
$DIMALTZ
 70
0
  9
$DIMALTTZ
 70
0
  9
$DIMUPT
 70
0
  9
$DIMDEC
 70
2
  9
$DIMTDEC
 70
2
  9
$DIMALTU
 70
2
  9
$DIMALTTD
 70
3
  9
$DIMTXSTY
  7
Standard
  9
$DIMAUNIT
 70
0
  9
$DIMADEC
 70
0
  9
$DIMALTRND
 40
0.0
  9
$DIMAZIN
 70
0
  9
$DIMDSEP
 70
44
  9
$DIMATFIT
 70
3
  9
$DIMFRAC
 70
0
  9
$DIMLDRBLK
  1

  9
$DIMLUNIT
 70
2
  9
$DIMLWD
 70
-2
  9
$DIMLWE
 70
-2
  9
$DIMTMOVE
 70
0
  9
$DIMFXL
 40
1.0
  9
$DIMFXLON
 70
0
  9
$DIMJOGANG
 40
0.785398163397
  9
$DIMTFILL
 70
0
  9
$DIMTFILLCLR
 70
0
  9
$DIMARCSYM
 70
0
  9
$DIMLTYPE
  6

  9
$DIMLTEX1
  6

  9
$DIMLTEX2
  6

  9
$DIMTXTDIRECTION
 70
0
  9
$LUNITS
 70
2
  9
$LUPREC
 70
4
  9
$SKETCHINC
 40
1.0
  9
$FILLETRAD
 40
10.0
  9
$AUNITS
 70
0
  9
$AUPREC
 70
2
  9
$MENU
  1
.
  9
$ELEVATION
 40
0.0
  9
$PELEVATION
 40
0.0
  9
$THICKNESS
 40
0.0
  9
$LIMCHECK
 70
0
  9
$CHAMFERA
 40
0.0
  9
$CHAMFERB
 40
0.0
  9
$CHAMFERC
 40
0.0
  9
$CHAMFERD
 40
0.0
  9
$SKPOLY
 70
0
  9
$TDCREATE
 40
2461303.705439815
  9
$TDUCREATE
 40
2458532.153996898
  9
$TDUPDATE
 40
2461303.705439815
  9
$TDUUPDATE
 40
2458532.1544311
  9
$TDINDWG
 40
0.0
  9
$TDUSRTIMER
 40
0.0
  9
$USRTIMER
 70
1
  9
$ANGBASE
 50
0.0
  9
$ANGDIR
 70
0
  9
$PDMODE
 70
0
  9
$PDSIZE
 40
0.0
  9
$PLINEWID
 40
0.0
  9
$SPLFRAME
 70
0
  9
$SPLINETYPE
 70
6
  9
$SPLINESEGS
 70
8
  9
$HANDSEED
  5
6A
  9
$SURFTAB1
 70
6
  9
$SURFTAB2
 70
6
  9
$SURFTYPE
 70
6
  9
$SURFU
 70
6
  9
$SURFV
 70
6
  9
$UCSBASE
  2

  9
$UCSNAME
  2

  9
$UCSORG
 10
0.0
 20
0.0
 30
0.0
  9
$UCSXDIR
 10
1.0
 20
0.0
 30
0.0
  9
$UCSYDIR
 10
0.0
 20
1.0
 30
0.0
  9
$UCSORTHOREF
  2

  9
$UCSORTHOVIEW
 70
0
  9
$UCSORGTOP
 10
0.0
 20
0.0
 30
0.0
  9
$UCSORGBOTTOM
 10
0.0
 20
0.0
 30
0.0
  9
$UCSORGLEFT
 10
0.0
 20
0.0
 30
0.0
  9
$UCSORGRIGHT
 10
0.0
 20
0.0
 30
0.0
  9
$UCSORGFRONT
 10
0.0
 20
0.0
 30
0.0
  9
$UCSORGBACK
 10
0.0
 20
0.0
 30
0.0
  9
$PUCSBASE
  2

  9
$PUCSNAME
  2

  9
$PUCSORG
 10
0.0
 20
0.0
 30
0.0
  9
$PUCSXDIR
 10
1.0
 20
0.0
 30
0.0
  9
$PUCSYDIR
 10
0.0
 20
1.0
 30
0.0
  9
$PUCSORTHOREF
  2

  9
$PUCSORTHOVIEW
 70
0
  9
$PUCSORGTOP
 10
0.0
 20
0.0
 30
0.0
  9
$PUCSORGBOTTOM
 10
0.0
 20
0.0
 30
0.0
  9
$PUCSORGLEFT
 10
0.0
 20
0.0
 30
0.0
  9
$PUCSORGRIGHT
 10
0.0
 20
0.0
 30
0.0
  9
$PUCSORGFRONT
 10
0.0
 20
0.0
 30
0.0
  9
$PUCSORGBACK
 10
0.0
 20
0.0
 30
0.0
  9
$USERI1
 70
0
  9
$USERI2
 70
0
  9
$USERI3
 70
0
  9
$USERI4
 70
0
  9
$USERI5
 70
0
  9
$USERR1
 40
0.0
  9
$USERR2
 40
0.0
  9
$USERR3
 40
0.0
  9
$USERR4
 40
0.0
  9
$USERR5
 40
0.0
  9
$WORLDVIEW
 70
1
  9
$SHADEDGE
 70
3
  9
$SHADEDIF
 70
70
  9
$TILEMODE
 70
1
  9
$MAXACTVP
 70
64
  9
$PINSBASE
 10
0.0
 20
0.0
 30
0.0
  9
$PLIMCHECK
 70
0
  9
$PEXTMIN
 10
1e+20
 20
1e+20
 30
1e+20
  9
$PEXTMAX
 10
-1e+20
 20
-1e+20
 30
-1e+20
  9
$PLIMMIN
 10
0.0
 20
0.0
  9
$PLIMMAX
 10
420.0
 20
297.0
  9
$UNITMODE
 70
0
  9
$VISRETAIN
 70
1
  9
$PLINEGEN
 70
0
  9
$PSLTSCALE
 70
1
  9
$TREEDEPTH
 70
3020
  9
$CMLSTYLE
  2
Standard
  9
$CMLJUST
 70
0
  9
$CMLSCALE
 40
20.0
  9
$PROXYGRAPHICS
 70
1
  9
$MEASUREMENT
 70
1
  9
$CELWEIGHT
370
-1
  9
$ENDCAPS
280
0
  9
$JOINSTYLE
280
0
  9
$LWDISPLAY
290
0
  9
$INSUNITS
 70
4
  9
$HYPERLINKBASE
  1

  9
$STYLESHEET
  1

  9
$XEDIT
290
1
  9
$CEPSNTYPE
380
0
  9
$PSTYLEMODE
290
1
  9
$FINGERPRINTGUID
  2
{3DED6C77-A666-4D6D-8CE8-5B5FB2CA9B30}
  9
$VERSIONGUID
  2
{CAAA56DC-5257-47A6-8E2B-6C2A8028816E}
  9
$EXTNAMES
290
1
  9
$PSVPSCALE
 40
0.0
  9
$OLESTARTUP
290
0
  9
$SORTENTS
280
127
  9
$INDEXCTL
280
0
  9
$HIDETEXT
280
1
  9
$XCLIPFRAME
280
1
  9
$HALOGAP
280
0
  9
$OBSCOLOR
 70
257
  9
$OBSLTYPE
280
0
  9
$INTERSECTIONDISPLAY
280
0
  9
$INTERSECTIONCOLOR
 70
257
  9
$DIMASSOC
280
2
  9
$PROJECTNAME
  1

  9
$CAMERADISPLAY
290
0
  9
$LENSLENGTH
 40
50.0
  9
$CAMERAHEIGHT
 40
0.0
  9
$STEPSPERSEC
 40
24.0
  9
$STEPSIZE
 40
100.0
  9
$3DDWFPREC
 40
2.0
  9
$PSOLWIDTH
 40
0.005
  9
$PSOLHEIGHT
 40
0.08
  9
$LOFTANG1
 40
1.570796326795
  9
$LOFTANG2
 40
1.570796326795
  9
$LOFTMAG1
 40
0.0
  9
$LOFTMAG2
 40
0.0
  9
$LOFTPARAM
 70
7
  9
$LOFTNORMALS
280
1
  9
$LATITUDE
 40
37.795
  9
$LONGITUDE
 40
-122.394
  9
$NORTHDIRECTION
 40
0.0
  9
$TIMEZONE
 70
-8000
  9
$LIGHTGLYPHDISPLAY
280
1
  9
$TILEMODELIGHTSYNCH
280
1
  9
$CMATERIAL
347
20
  9
$SOLIDHIST
280
0
  9
$SHOWHIST
280
1
  9
$DWFFRAME
280
2
  9
$DGNFRAME
280
2
  9
$REALWORLDSCALE
290
1
  9
$INTERFERECOLOR
 62
256
  9
$CSHADOW
280
0
  9
$SHADOWPLANELOCATION
 40
0.0
  0
ENDSEC
  0
SECTION
  2
CLASSES
  0
CLASS
  1
ACDBDICTIONARYWDFLT
  2
AcDbDictionaryWithDefault
  3
ObjectDBX Classes
 90
0
 91
0
280
0
281
0
  0
CLASS
  1
SUN
  2
AcDbSun
  3
SCENEOE
 90
1153
 91
0
280
0
281
0
  0
CLASS
  1
VISUALSTYLE
  2
AcDbVisualStyle
  3
ObjectDBX Classes
 90
4095
 91
0
280
0
281
0
  0
CLASS
  1
MATERIAL
  2
AcDbMaterial
  3
ObjectDBX Classes
 90
1153
 91
0
280
0
281
0
  0
CLASS
  1
SCALE
  2
AcDbScale
  3
ObjectDBX Classes
 90
1153
 91
0
280
0
281
0
  0
CLASS
  1
TABLESTYLE
  2
AcDbTableStyle
  3
ObjectDBX Classes
 90
4095
 91
0
280
0
281
0
  0
CLASS
  1
MLEADERSTYLE
  2
AcDbMLeaderStyle
  3
ACDB_MLEADERSTYLE_CLASS
 90
4095
 91
0
280
0
281
0
  0
CLASS
  1
DICTIONARYVAR
  2
AcDbDictionaryVar
  3
ObjectDBX Classes
 90
0
 91
0
280
0
281
0
  0
CLASS
  1
CELLSTYLEMAP
  2
AcDbCellStyleMap
  3
ObjectDBX Classes
 90
1152
 91
0
280
0
281
0
  0
CLASS
  1
MENTALRAYRENDERSETTINGS
  2
AcDbMentalRayRenderSettings
  3
SCENEOE
 90
1024
 91
0
280
0
281
0
  0
CLASS
  1
ACDBDETAILVIEWSTYLE
  2
AcDbDetailViewStyle
  3
ObjectDBX Classes
 90
1025
 91
0
280
0
281
0
  0
CLASS
  1
ACDBSECTIONVIEWSTYLE
  2
AcDbSectionViewStyle
  3
ObjectDBX Classes
 90
1025
 91
0
280
0
281
0
  0
CLASS
  1
RASTERVARIABLES
  2
AcDbRasterVariables
  3
ISM
 90
0
 91
0
280
0
281
0
  0
CLASS
  1
ACDBPLACEHOLDER
  2
AcDbPlaceHolder
  3
ObjectDBX Classes
 90
0
 91
0
280
0
281
0
  0
CLASS
  1
LAYOUT
  2
AcDbLayout
  3
ObjectDBX Classes
 90
0
 91
0
280
0
281
0
  0
ENDSEC
  0
SECTION
  2
TABLES
  0
TABLE
  2
VPORT
  5
8
330
0
100
AcDbSymbolTable
 70
1
  0
VPORT
  5
63
330
8
100
AcDbSymbolTableRecord
100
AcDbViewportTableRecord
  2
*Active
 70
0
 10
0.0
 20
0.0
 11
1.0
 21
1.0
 12
47.822224595485025
 22
233.50000010396002
 13
0.0
 23
0.0
 14
0.5
 24
0.5
 15
0.5
 25
0.5
 16
0.0
 26
0.0
 36
1.0
 17
0.0
 27
0.0
 37
0.0
 40
467.00000000792005
 41
1.34
 42
50.0
 43
0.0
 44
0.0
 50
0.0
 51
0.0
 71
0
 72
1000
 73
1
 74
3
 75
0
 76
0
 77
0
 78
0
281
0
 65
1
110
0.0
120
0.0
130
0.0
111
1.0
121
0.0
131
0.0
112
0.0
122
1.0
132
0.0
 79
0
146
0.0
  0
ENDTAB
  0
TABLE
  2
LTYPE
  5
2
330
0
100
AcDbSymbolTable
 70
3
  0
LTYPE
  5
24
330
2
100
AcDbSymbolTableRecord
100
AcDbLinetypeTableRecord
  2
ByBlock
 70
0
  3

 72
65
 73
0
 40
0.0
  0
LTYPE
  5
25
330
2
100
AcDbSymbolTableRecord
100
AcDbLinetypeTableRecord
  2
ByLayer
 70
0
  3

 72
65
 73
0
 40
0.0
  0
LTYPE
  5
26
330
2
100
AcDbSymbolTableRecord
100
AcDbLinetypeTableRecord
  2
Continuous
 70
0
  3

 72
65
 73
0
 40
0.0
  0
ENDTAB
  0
TABLE
  2
LAYER
  5
1
330
0
100
AcDbSymbolTable
 70
4
  0
LAYER
  5
27
330
1
100
AcDbSymbolTableRecord
100
AcDbLayerTableRecord
  2
0
 70
0
 62
7
  6
Continuous
370
-3
390
13
347
21
  0
LAYER
  5
28
330
1
100
AcDbSymbolTableRecord
100
AcDbLayerTableRecord
  2
Defpoints
 70
0
 62
7
  6
Continuous
290
0
370
-3
390
13
347
21
  0
LAYER
  5
67
330
1
100
AcDbSymbolTableRecord
100
AcDbLayerTableRecord
  2
LABELS_NONCUT
 70
0
 62
3
  6
Continuous
370
-3
390
13
347
21
  0
LAYER
  5
69
330
1
100
AcDbSymbolTableRecord
100
AcDbLayerTableRecord
  2
CUT
 70
0
 62
1
  6
Continuous
370
-3
390
13
347
21
  0
ENDTAB
  0
TABLE
  2
STYLE
  5
5
330
0
100
AcDbSymbolTable
 70
1
  0
STYLE
  5
29
330
5
100
AcDbSymbolTableRecord
100
AcDbTextStyleTableRecord
  2
Standard
 70
0
 40
0.0
 41
1.0
 50
0.0
 71
0
 42
2.5
  3
txt
  4

  0
ENDTAB
  0
TABLE
  2
VIEW
  5
7
330
0
100
AcDbSymbolTable
 70
0
  0
ENDTAB
  0
TABLE
  2
UCS
  5
6
330
0
100
AcDbSymbolTable
 70
0
  0
ENDTAB
  0
TABLE
  2
APPID
  5
3
330
0
100
AcDbSymbolTable
 70
3
  0
APPID
  5
2A
330
3
100
AcDbSymbolTableRecord
100
AcDbRegAppTableRecord
  2
ACAD
 70
0
  0
APPID
  5
64
330
3
100
AcDbSymbolTableRecord
100
AcDbRegAppTableRecord
  2
HATCHBACKGROUNDCOLOR
 70
0
  0
APPID
  5
65
330
3
100
AcDbSymbolTableRecord
100
AcDbRegAppTableRecord
  2
EZDXF
 70
0
  0
ENDTAB
  0
TABLE
  2
DIMSTYLE
  5
4
330
0
100
AcDbSymbolTable
 70
1
100
AcDbDimStyleTable
  0
DIMSTYLE
105
2B
330
4
100
AcDbSymbolTableRecord
100
AcDbDimStyleTableRecord
  2
Standard
 70
0
 40
1.0
 41
2.5
 42
0.625
 43
3.75
 44
1.25
 45
0.0
 46
0.0
 47
0.0
 48
0.0
 49
2.5
140
2.5
141
2.5
142
0.0
143
0.03937007874
144
1.0
145
0.0
146
1.0
147
0.625
148
0.0
 69
0
 70
0
 71
0
 72
0
 73
0
 74
0
 75
0
 76
0
 77
1
 78
8
 79
3
170
0
171
3
172
1
173
0
174
0
175
0
176
0
177
0
178
0
179
2
271
2
272
2
273
2
274
3
275
0
276
0
277
2
278
44
279
0
280
0
281
0
282
0
283
0
284
8
285
0
286
0
288
0
289
3
290
0
371
-2
372
-2
  0
ENDTAB
  0
TABLE
  2
BLOCK_RECORD
  5
9
330
0
100
AcDbSymbolTable
 70
2
  0
BLOCK_RECORD
  5
17
330
9
100
AcDbSymbolTableRecord
100
AcDbBlockTableRecord
  2
*Model_Space
340
1A
 70
0
280
1
281
0
  0
BLOCK_RECORD
  5
1B
330
9
100
AcDbSymbolTableRecord
100
AcDbBlockTableRecord
  2
*Paper_Space
340
1E
 70
0
280
1
281
0
  0
ENDTAB
  0
ENDSEC
  0
SECTION
  2
BLOCKS
  0
BLOCK
  5
18
330
17
100
AcDbEntity
  8
0
100
AcDbBlockBegin
  2
*Model_Space
 70
0
 10
0.0
 20
0.0
 30
0.0
  3
*Model_Space
  1

  0
ENDBLK
  5
19
330
17
100
AcDbEntity
  8
0
100
AcDbBlockEnd
  0
BLOCK
  5
1C
330
1B
100
AcDbEntity
  8
0
100
AcDbBlockBegin
  2
*Paper_Space
 70
0
 10
0.0
 20
0.0
 30
0.0
  3
*Paper_Space
  1

  0
ENDBLK
  5
1D
330
1B
100
AcDbEntity
  8
0
100
AcDbBlockEnd
  0
ENDSEC
  0
SECTION
  2
ENTITIES
  0
CIRCLE
  5
2F
330
17
100
AcDbEntity
  8
CUT
100
AcDbCircle
 10
5.00000009976
 20
15.00000011384
 30
1.000045736118e-07
 40
1.5
  0
CIRCLE
  5
30
330
17
100
AcDbEntity
  8
CUT
100
AcDbCircle
 10
90.644449034693
 20
15.00000011403
 30
1.0000436316e-07
 40
1.5
  0
CIRCLE
  5
31
330
17
100
AcDbEntity
  8
CUT
100
AcDbCircle
 10
90.921392345876
 20
94.99952075261
 30
1.000047051412e-07
 40
1.5
  0
CIRCLE
  5
32
330
17
100
AcDbEntity
  8
CUT
100
AcDbCircle
 10
4.72305678821
 20
94.99952075241
 30
1.000045670706e-07
 40
1.5
  0
LINE
  5
33
330
17
100
AcDbEntity
  8
CUT
100
AcDbLine
 10
1.000000438012e-07
 20
9.999999406318e-08
 30
1.000045067794e-07
 11
10.0000001
 21
1.01539995967e-07
 31
1.000037320033e-07
  0
LINE
  5
34
330
17
100
AcDbEntity
  8
CUT
100
AcDbLine
 10
10.0000001
 20
1.01539995967e-07
 30
1.000037320033e-07
 11
10.0000007665
 21
123.00000010231
 31
1.000033866221e-07
  0
LINE
  5
35
330
17
100
AcDbEntity
  8
CUT
100
AcDbLine
 10
10.0000007665
 20
123.00000010231
 30
1.000033866221e-07
 11
15.82223056697
 21
123.00000010231
 31
1.000033513715e-07
  0
LINE
  5
36
330
17
100
AcDbEntity
  8
CUT
100
AcDbLine
 10
15.82223056697
 20
123.00000010231
 30
1.000033513715e-07
 11
10.0000001
 21
130.00000010231
 31
1.000036137498e-07
  0
LINE
  5
37
330
17
100
AcDbEntity
  8
CUT
100
AcDbLine
 10
10.0000001
 20
130.00000010231
 30
1.000036137498e-07
 11
10.0000001
 21
273.99999673494
 31
1.000037223782e-07
  0
LINE
  5
38
330
17
100
AcDbEntity
  8
CUT
100
AcDbLine
 10
10.0000001
 20
273.99999673494
 30
1.000037223782e-07
 11
15.82152440478
 21
273.99999673494
 31
1.000034597445e-07
  0
LINE
  5
39
330
17
100
AcDbEntity
  8
CUT
100
AcDbLine
 10
15.82152440478
 20
273.99999673494
 30
1.000034597445e-07
 11
10.00120983143
 21
280.99999673493
 31
1.000033810881e-07
  0
SPLINE
  5
3A
330
17
100
AcDbEntity
  8
CUT
100
AcDbSpline
 70
0
 71
3
 72
29
 73
25
 74
0
 40
0.0
 40
0.0
 40
0.0
 40
0.0
 40
0.07670246059702168
 40
0.07670246059702168
 40
0.07670246059702168
 40
0.15534452998081136
 40
0.15534452998081136
 40
0.15534452998081136
 40
0.23760942197777246
 40
0.23760942197777246
 40
0.23760942197777246
 40
0.3225057897894983
 40
0.3225057897894983
 40
0.3225057897894983
 40
0.4121842537122033
 40
0.4121842537122033
 40
0.4121842537122033
 40
0.43225244553576814
 40
0.43225244553576814
 40
0.43225244553576814
 40
0.9029481590334625
 40
0.9029481590334625
 40
0.9029481590334625
 40
1.0
 40
1.0
 40
1.0
 40
1.0
 10
10.00120983143
 20
280.99999673493
 30
1.000042905828e-07
 10
10.00283524266
 20
282.70375605243
 30
1.000044042317e-07
 10
10.0061155245
 20
284.39614702799
 30
1.000042905296e-07
 10
10.01114819515
 20
286.0771427782
 30
1.000042905384e-07
 10
10.01630812915
 20
287.80064660606
 30
1.000042905473e-07
 10
10.02331027224
 20
289.51217180219
 30
1.00004631642e-07
 10
10.03225474866
 20
291.21174419342
 30
1.000041769555e-07
 10
10.04161127236
 20
292.98961118352
 30
1.000038359586e-07
 10
10.05309332084
 20
294.75439883773
 30
1.000042907986e-07
 10
10.06680863969
 20
296.50619393295
 30
1.000047456692e-07
 10
10.08096268191
 20
298.31402516147
 30
1.000038363017e-07
 10
10.09749527533
 20
300.10801967269
 30
1.000037227745e-07
 10
10.1165158823
 20
301.88832879251
 30
1.000040640288e-07
 10
10.136607894
 20
303.76892028604
 30
1.000040642334e-07
 10
10.15947630948
 20
305.63424151705
 30
1.000036097286e-07
 10
10.18523770972
 20
307.4845275035
 30
1.000036100106e-07
 10
10.19100258012
 20
307.89858337027
 30
1.000042921948e-07
 10
10.19691226915
 20
308.31188651527
 30
1.000042922599e-07
 10
10.20296798793
 20
308.72443990296
 30
1.000033828323e-07
 10
10.34500374753
 20
318.40080301815
 30
1.000033844058e-07
 10
10.56815983013
 20
327.71919291178
 30
1.0000463764e-07
 10
10.88768909157
 20
336.77884854338
 30
1.00004982687e-07
 10
10.95357221347
 20
338.64684145766
 30
1.000044150747e-07
 10
11.02354794371
 20
340.50369853204
 30
1.000043022654e-07
 10
11.09778817632
 20
342.35000010231
 30
1.000046442612e-07
  0
LINE
  5
3B
330
17
100
AcDbEntity
  8
CUT
100
AcDbLine
 10
11.09778817632
 20
342.35000010231
 30
1.000046442612e-07
 11
7.322208953
 21
342.35000010231
 31
1.000035702155e-07
  0
LINE
  5
3C
330
17
100
AcDbEntity
  8
CUT
100
AcDbLine
 10
7.322208953
 20
342.35000010231
 30
1.000035702155e-07
 11
7.322208953
 21
344.85000010231
 31
1.000036838146e-07
  0
LINE
  5
3D
330
17
100
AcDbEntity
  8
CUT
100
AcDbLine
 10
7.322208953
 20
344.85000010231
 30
1.000036838146e-07
 11
11.20120799182
 21
344.85000010231
 31
1.000044181929e-07
  0
SPLINE
  5
3E
330
17
100
AcDbEntity
  8
CUT
100
AcDbSpline
 70
0
 71
3
 72
23
 73
19
 74
0
 40
0.0
 40
0.0
 40
0.0
 40
0.0
 40
0.15862877422139524
 40
0.15862877422139524
 40
0.15862877422139524
 40
0.3850766512364188
 40
0.3850766512364188
 40
0.3850766512364188
 40
0.6115245282441106
 40
0.6115245282441106
 40
0.6115245282441106
 40
0.837972405259135
 40
0.837972405259135
 40
0.837972405259135
 40
0.9511963437666467
 40
0.9511963437666467
 40
0.9511963437666467
 40
1.0
 40
1.0
 40
1.0
 40
1.0
 10
11.20120799182
 20
344.85000010231
 30
1.000044181929e-07
 10
11.46666571734
 20
351.09062361254
 30
1.000045352368e-07
 10
11.78224434309
 20
357.21244126089
 30
1.0000465296e-07
 10
12.15468466707
 20
363.23821082688
 30
1.000046577658e-07
 10
12.68635567753
 20
371.84019828016
 30
1.000045509394e-07
 10
13.33352018533
 20
380.23988566771
 30
1.000049004233e-07
 10
14.12493489674
 20
388.47976989132
 30
1.000045697352e-07
 10
14.91634960815
 20
396.71965411493
 30
1.000040116734e-07
 10
15.85105796719
 20
404.78923823034
 30
1.000045924164e-07
 10
16.9721358653
 20
412.7153299524
 30
1.000039251199e-07
 10
18.09321376342
 20
420.64142167447
 30
1.000045083787e-07
 10
19.39768864899
 20
428.40165957576
 30
1.000042983061e-07
 10
20.95713357388
 20
436.0008630128
 30
1.000044327346e-07
 10
21.73685603632
 20
439.80046473132
 30
1.000043294186e-07
 10
22.57852697283
 20
443.55117156961
 30
1.000044543126e-07
 10
23.49617907539
 20
447.24983952939
 30
1.000044665451e-07
 10
23.89172067506
 20
448.84410061957
 30
1.00004358131e-07
 10
24.30112321736
 20
450.42764186268
 30
1.000039088434e-07
 10
24.72571554918
 20
452.00000010792
 30
1.000043692556e-07
  0
LINE
  5
3F
330
17
100
AcDbEntity
  8
CUT
100
AcDbLine
 10
24.72571554918
 20
452.00000010792
 30
1.00003346074e-07
 11
45.32222456855
 21
452.00000010792
 31
1.000022593053e-07
  0
LINE
  5
40
330
17
100
AcDbEntity
  8
CUT
100
AcDbLine
 10
45.32222456855
 20
452.00000010792
 30
1.000022593053e-07
 11
45.32222456855
 21
456.00000010792
 31
1.000027139122e-07
  0
LINE
  5
41
330
17
100
AcDbEntity
  8
CUT
100
AcDbLine
 10
45.32222456855
 20
456.00000010792
 30
1.000027139122e-07
 11
50.32222456855
 21
456.00000010792
 31
1.000030086452e-07
  0
LINE
  5
42
330
17
100
AcDbEntity
  8
CUT
100
AcDbLine
 10
50.32222456855
 20
456.00000010792
 30
1.000030086452e-07
 11
50.32222456855
 21
452.00000010792
 31
1.000026677252e-07
  0
LINE
  5
43
330
17
100
AcDbEntity
  8
CUT
100
AcDbLine
 10
50.32222456855
 20
452.00000010792
 30
1.000026677252e-07
 11
70.918733587835
 21
452.00000010792
 31
1.00003286259e-07
  0
SPLINE
  5
44
330
17
100
AcDbEntity
  8
CUT
100
AcDbSpline
 70
0
 71
3
 72
23
 73
19
 74
0
 40
0.0
 40
0.0
 40
0.0
 40
0.0
 40
0.04880365623492897
 40
0.04880365623492897
 40
0.04880365623492897
 40
0.16202759474083758
 40
0.16202759474083758
 40
0.16202759474083758
 40
0.3884754717526547
 40
0.3884754717526547
 40
0.3884754717526547
 40
0.6149233487632988
 40
0.6149233487632988
 40
0.6149233487632988
 40
0.8413712257784887
 40
0.8413712257784887
 40
0.8413712257784887
 40
1.0
 40
1.0
 40
1.0
 40
1.0
 10
70.918733587835
 20
452.00000010792
 30
1.000043094405e-07
 10
71.343325919656
 20
450.42764186268
 30
1.000043152158e-07
 10
71.752728461959
 20
448.84410061957
 30
1.000037523527e-07
 10
72.148270061624
 20
447.24983952939
 30
1.000038714242e-07
 10
73.065922164193
 20
443.55117156961
 30
1.000044523508e-07
 10
73.907593100699
 20
439.80046473132
 30
1.000040090741e-07
 10
74.687315563141
 20
436.0008630128
 30
1.000045881461e-07
 10
76.246760488025
 20
428.40165957576
 30
1.000036999269e-07
 10
77.551235373599
 20
420.64142167447
 30
1.000045135811e-07
 10
78.672313271714
 20
412.71532995241
 30
1.000040742152e-07
 10
79.79339116983
 20
404.78923823034
 30
1.000039759098e-07
 10
80.728099528865
 20
396.71965411493
 30
1.000044435329e-07
 10
81.519514240274
 20
388.47976989132
 30
1.000039997368e-07
 10
82.310928951684
 20
380.23988566771
 30
1.000046928091e-07
 10
82.95809345949
 20
371.84019828016
 30
1.000048155095e-07
 10
83.489764469949
 20
363.23821082688
 30
1.000041408533e-07
 10
83.862204793926
 20
357.21244126089
 30
1.000044871429e-07
 10
84.177783419678
 20
351.09062361254
 30
1.000050600436e-07
 10
84.443241145199
 20
344.85000010231
 30
1.000039269706e-07
  0
LINE
  5
45
330
17
100
AcDbEntity
  8
CUT
100
AcDbLine
 10
84.443241145199
 20
344.85000010231
 30
1.000048364653e-07
 11
88.322208953
 21
344.85000010231
 31
1.000038655407e-07
  0
LINE
  5
46
330
17
100
AcDbEntity
  8
CUT
100
AcDbLine
 10
88.322208953
 20
344.85000010231
 30
1.000038655407e-07
 11
88.322208953
 21
342.35000010231
 31
1.000036382549e-07
  0
LINE
  5
47
330
17
100
AcDbEntity
  8
CUT
100
AcDbLine
 10
88.322208953
 20
342.35000010231
 30
1.000036382549e-07
 11
84.5466609607
 21
342.35000010231
 31
1.000040421386e-07
  0
SPLINE
  5
48
330
17
100
AcDbEntity
  8
CUT
100
AcDbSpline
 70
0
 71
3
 72
14
 73
10
 74
0
 40
0.0
 40
0.0
 40
0.0
 40
0.0
 40
0.09702061335109233
 40
0.09702061335109233
 40
0.09702061335109233
 40
0.5675648747425224
 40
0.5675648747425224
 40
0.5675648747425224
 40
1.0
 40
1.0
 40
1.0
 40
1.0
 10
84.5466609607
 20
342.35000010231
 30
1.000040421386e-07
 10
84.620901193312
 20
340.50369853204
 30
1.000047253246e-07
 10
84.690876923553
 20
338.64684145766
 30
1.000038168378e-07
 10
84.756760045445
 20
336.77884854338
 30
1.00003817791e-07
 10
85.076289306884
 20
327.71919291178
 30
1.000040497876e-07
 10
85.29944538949
 20
318.40080301815
 30
1.000046215554e-07
 10
85.441481149091
 20
308.72443990296
 30
1.000041690615e-07
 10
85.572013506054
 20
299.83176042708
 30
1.000046258797e-07
 10
85.634047331213
 20
290.63504278043
 30
1.000039449175e-07
 10
85.643239305585
 20
280.99999673494
 30
1.000041727535e-07
  0
LINE
  5
49
330
17
100
AcDbEntity
  8
CUT
100
AcDbLine
 10
85.643239305585
 20
280.99999673494
 30
1.000041727535e-07
 11
79.821524404774
 21
273.99999673494
 31
1.000039808832e-07
  0
LINE
  5
4A
330
17
100
AcDbEntity
  8
CUT
100
AcDbLine
 10
79.821524404774
 20
273.99999673494
 30
1.000039808832e-07
 11
85.644449037015
 21
273.99999673494
 31
1.000033772078e-07
  0
LINE
  5
4B
330
17
100
AcDbEntity
  8
CUT
100
AcDbLine
 10
85.644449037015
 20
273.99999673494
 30
1.000033772078e-07
 11
85.644449037015
 21
130.00000010231
 31
1.000042917609e-07
  0
LINE
  5
4C
330
17
100
AcDbEntity
  8
CUT
100
AcDbLine
 10
85.644449037015
 20
130.00000010231
 30
1.000042917609e-07
 11
79.822230566965
 21
123.00000010231
 31
1.000037588234e-07
  0
LINE
  5
4D
330
17
100
AcDbEntity
  8
CUT
100
AcDbLine
 10
79.822230566965
 20
123.00000010231
 30
1.000037588234e-07
 11
85.644454536244
 21
123.00000010231
 31
1.000020182702e-07
  0
LINE
  5
4E
330
17
100
AcDbEntity
  8
CUT
100
AcDbLine
 10
85.644454536244
 20
123.00000010231
 30
1.000020182702e-07
 11
85.644449037016
 21
1.132600004894e-07
 31
1.000044100144e-07
  0
LINE
  5
4F
330
17
100
AcDbEntity
  8
CUT
100
AcDbLine
 10
85.644449037016
 20
1.132600004894e-07
 30
1.000044100144e-07
 11
95.644449037016
 21
1.148100068349e-07
 31
1.000046584199e-07
  0
LINE
  5
50
330
17
100
AcDbEntity
  8
CUT
100
AcDbLine
 10
95.644449037016
 20
1.148100068349e-07
 30
1.000046584199e-07
 11
95.644449037015
 21
30.00000011481
 31
1.000101143343e-07
  0
LINE
  5
51
330
17
100
AcDbEntity
  8
CUT
100
AcDbLine
 10
95.644449037015
 20
30.00000011481
 30
1.000101143343e-07
 11
90.822230566966
 21
30.00000011481
 31
1.000040239676e-07
  0
LINE
  5
52
330
17
100
AcDbEntity
  8
CUT
100
AcDbLine
 10
90.822230566966
 20
30.00000011481
 30
1.000040239676e-07
 11
90.822230566966
 21
58.60752791273
 31
1.000039092758e-07
  0
LINE
  5
53
330
17
100
AcDbEntity
  8
CUT
100
AcDbLine
 10
90.822230566966
 20
58.60752791273
 30
1.000039092758e-07
 11
95.644449037015
 21
58.60752791273
 31
1.000097722688e-07
  0
LINE
  5
54
330
17
100
AcDbEntity
  8
CUT
100
AcDbLine
 10
95.644449037015
 20
58.60752791273
 30
1.000097722688e-07
 11
95.64444909097
 21
269.35045198799
 31
9.999850986888e-08
  0
SPLINE
  5
55
330
17
100
AcDbEntity
  8
CUT
100
AcDbSpline
 70
0
 71
3
 72
27
 73
23
 74
0
 40
0.0
 40
0.0
 40
0.0
 40
0.0
 40
0.038878075194606704
 40
0.038878075194606704
 40
0.038878075194606704
 40
0.17537207439271543
 40
0.17537207439271543
 40
0.31186607359524343
 40
0.31186607359524343
 40
0.44836007279335205
 40
0.44836007279335205
 40
0.58485407199588
 40
0.58485407199588
 40
0.721348071195668
 40
0.721348071195668
 40
0.857842070396163
 40
0.857842070396163
 40
0.9260890699964106
 40
0.9260890699964106
 40
0.9943360695966581
 40
0.9943360695966581
 40
1.0
 40
1.0
 40
1.0
 40
1.0
 10
95.644449037015
 20
269.35045198798
 30
1.000039668371e-07
 10
95.644449037015
 20
272.38480141475
 30
1.00004307791e-07
 10
95.644449037015
 20
275.41545392896
 30
1.000041939977e-07
 10
95.644449037015
 20
278.44237405217
 30
1.000041938914e-07
 10
95.644449037015
 20
289.05014321135
 30
1.000038524582e-07
 10
95.583312867422
 20
299.13536655359
 30
1.000047607751e-07
 10
95.297495156918
 20
318.60705424229
 30
1.000040741195e-07
 10
95.072808052099
 20
327.99418993936
 30
1.000041844497e-07
 10
94.428284276255
 20
346.26845824652
 30
1.000044024985e-07
 10
94.008483317454
 20
355.15452346628
 30
1.000041691571e-07
 10
92.932952532648
 20
372.55570226768
 30
1.00004495117e-07
 10
92.277350109815
 20
381.06862640918
 30
1.000042586121e-07
 10
90.670061832705
 20
397.80305037984
 30
1.000049184921e-07
 10
89.718694830421
 20
406.02105122759
 30
1.000042232657e-07
 10
87.4288274012
 20
422.21055893786
 30
1.000047602824e-07
 10
86.091317824804
 20
430.17461199125
 30
1.000042872365e-07
 10
83.67911359582
 20
441.92932700249
 30
1.000043680136e-07
 10
82.807986887348
 20
445.81279249004
 30
1.000046972019e-07
 10
80.900034836374
 20
453.5029411858
 30
1.000037617334e-07
 10
79.863668408956
 20
457.30773803671
 30
1.00003747638e-07
 10
78.631172906192
 20
461.37735036971
 30
1.000039582647e-07
 10
78.536033417621
 20
461.68885691561
 30
1.000041843457e-07
 10
78.440187074123
 20
462.00000010792
 30
1.000047514778e-07
  0
SPLINE
  5
56
330
17
100
AcDbEntity
  8
CUT
100
AcDbSpline
 70
0
 71
3
 72
11
 73
7
 74
0
 40
0.0
 40
0.0
 40
0.0
 40
0.0
 40
0.396608302109
 40
0.396608302109
 40
0.396608302109
 40
0.925419371589
 40
0.925419371589
 40
0.925419371589
 40
0.925419371589
 10
71.369119262258
 20
467.00000010792
 30
1.000042012943e-07
 10
72.688004352266
 20
467.00000010792
 30
1.000044464358e-07
 10
74.007868462891
 20
466.64470072197
 30
1.000038957951e-07
 10
75.145279746791
 20
465.98009634952
 30
1.000043658889e-07
 10
76.661828125323
 20
465.09395718627
 30
1.000042726639e-07
 10
77.854015923009
 20
463.65794249148
 30
1.000040614017e-07
 10
78.440187074124
 20
462.00000010792
 30
1.000037282962e-07
  0
LINE
  5
57
330
17
100
AcDbEntity
  8
CUT
100
AcDbLine
 10
71.369119262258
 20
467.00000010792
 30
1.000052244759e-07
 11
65.782873909133
 21
467.00000010792
 31
1.000003743715e-07
  0
LINE
  5
58
330
17
100
AcDbEntity
  8
CUT
100
AcDbLine
 10
65.782873909133
 20
467.00000010792
 30
1.000003743715e-07
 11
65.782873909134
 21
462.00000010792
 31
1.000000334867e-07
  0
LINE
  5
59
330
17
100
AcDbEntity
  8
CUT
100
AcDbLine
 10
65.782873909134
 20
462.00000010792
 30
1.000000334867e-07
 11
29.86157522386
 21
462.00000010792
 31
1.000006864282e-07
  0
LINE
  5
5A
330
17
100
AcDbEntity
  8
CUT
100
AcDbLine
 10
29.86157522386
 20
462.00000010792
 30
1.000006864282e-07
 11
29.86157522386
 21
467.00000010792
 31
1.000020504947e-07
  0
LINE
  5
5B
330
17
100
AcDbEntity
  8
CUT
100
AcDbLine
 10
29.86157522386
 20
467.00000010792
 30
1.000020504947e-07
 11
24.27532987476
 21
467.00000010792
 31
1.000048174085e-07
  0
SPLINE
  5
5C
330
17
100
AcDbEntity
  8
CUT
100
AcDbSpline
 70
0
 71
3
 72
11
 73
7
 74
0
 40
0.0
 40
0.0
 40
0.0
 40
0.0
 40
0.528811069479
 40
0.528811069479
 40
0.528811069479
 40
0.925419371589
 40
0.925419371589
 40
0.925419371589
 40
0.925419371589
 10
17.20426206289
 20
462.00000010792
 30
1.0000449495e-07
 10
17.79043321401
 20
463.65794249148
 30
1.000038206675e-07
 10
18.98261991813
 20
465.0939584257
 30
1.000037229912e-07
 10
20.49916845289
 20
465.9800974119
 30
1.000041981382e-07
 10
21.63657985396
 20
466.64470165154
 30
1.000043271247e-07
 10
22.95644478475
 20
467.00000010792
 30
1.00004572267e-07
 10
24.27532987476
 20
467.00000010792
 30
1.000036805401e-07
  0
SPLINE
  5
5D
330
17
100
AcDbEntity
  8
CUT
100
AcDbSpline
 70
0
 71
3
 72
35
 73
31
 74
0
 40
0.0
 40
0.0
 40
0.0
 40
0.0
 40
0.003153499157305058
 40
0.003153499157305058
 40
0.003153499157305058
 40
0.041151292278779526
 40
0.041151292278779526
 40
0.041151292278779526
 40
0.07914908540271451
 40
0.07914908540271451
 40
0.07914908540271451
 40
0.15514467165058476
 40
0.15514467165058476
 40
0.15514467165058476
 40
0.23114025789599424
 40
0.23114025789599424
 40
0.23114025789599424
 40
0.3071358441438642
 40
0.3071358441438642
 40
0.3071358441438642
 40
0.38313143038927366
 40
0.38313143038927366
 40
0.38313143038927366
 40
0.45912701663714367
 40
0.45912701663714367
 40
0.45912701663714367
 40
0.5351226028825531
 40
0.5351226028825531
 40
0.5351226028825531
 40
1.0
 40
1.0
 40
1.0
 40
1.0
 10
17.20426206289
 20
462.00000010792
 30
1.0000449495e-07
 10
17.1084157194
 20
461.68885691561
 30
1.00004948417e-07
 10
17.01327623083
 20
461.37735036971
 30
1.000046060858e-07
 10
16.91882783531
 20
461.0654884973
 30
1.000047185112e-07
 10
15.78078072806
 20
457.30773803671
 30
1.000048169984e-07
 10
14.74441430064
 20
453.5029411858
 30
1.000046894834e-07
 10
13.79043827516
 20
449.65786683792
 30
1.000045630798e-07
 10
12.83646224967
 20
445.81279249004
 30
1.000044366762e-07
 10
11.9653355412
 20
441.92932700249
 30
1.000041977033e-07
 10
11.16126746487
 20
438.01108866541
 30
1.000045280691e-07
 10
9.55313131221
 20
430.17461199125
 30
1.000040519325e-07
 10
8.21562173582
 20
422.21055893786
 30
1.000047163145e-07
 10
7.07068802121
 20
414.11580508272
 30
1.000041327403e-07
 10
5.9257543066
 20
406.02105122758
 30
1.000043449739e-07
 10
4.97438730431
 20
397.80305037984
 30
1.000041050722e-07
 10
4.17074316576
 20
389.43583839451
 30
1.000047766606e-07
 10
3.3670990272
 20
381.06862640918
 30
1.000043113806e-07
 10
2.71149660437
 20
372.55570226768
 30
1.000045302211e-07
 10
2.17373121197
 20
363.85511286698
 30
1.000041822216e-07
 10
1.63596581956
 20
355.15452346628
 30
1.000048574035e-07
 10
1.21616486076
 20
346.26845824651
 30
1.000040562523e-07
 10
0.89390297284
 20
337.13132409294
 30
1.000049617265e-07
 10
0.57164108492
 20
327.99418993936
 30
1.000047303323e-07
 10
0.3469539801
 20
318.60705424229
 30
1.000045002615e-07
 10
0.20404512485
 20
308.87121039794
 30
1.00004612365e-07
 10
0.06113626960004
 20
299.13536655359
 30
1.00004497095e-07
 10
1.000000419429e-07
 20
289.05014321135
 30
1.000047239993e-07
 10
1.000000419429e-07
 20
278.44237405217
 30
1.000041559377e-07
 10
1.000000419429e-07
 20
213.43541886219
 30
1.000040445345e-07
 10
1.000000419429e-07
 20
146.70556554816
 30
1.000043879391e-07
 10
1.000000419429e-07
 20
78.60752791289
 30
1.000043903312e-07
  0
LINE
  5
5E
330
17
100
AcDbEntity
  8
CUT
100
AcDbLine
 10
1.000000438012e-07
 20
78.60752791273
 30
1.000022302813e-07
 11
1.000000438012e-07
 21
58.60752791273
 31
1.000035952259e-07
  0
LINE
  5
5F
330
17
100
AcDbEntity
  8
CUT
100
AcDbLine
 10
1.000000438012e-07
 20
58.60752791273
 30
1.000035952259e-07
 11
4.82218733904
 21
58.60752791273
 31
1.000028643819e-07
  0
LINE
  5
60
330
17
100
AcDbEntity
  8
CUT
100
AcDbLine
 10
4.82218733904
 20
58.60752791273
 30
1.000028643819e-07
 11
4.82218733904
 21
30.00000011481
 31
1.00002069579e-07
  0
LINE
  5
61
330
17
100
AcDbEntity
  8
CUT
100
AcDbLine
 10
4.82218733904
 20
30.00000011481
 30
1.00002069579e-07
 11
1.000000438012e-07
 21
30.00000011481
 31
1.000039372914e-07
  0
LINE
  5
62
330
17
100
AcDbEntity
  8
CUT
100
AcDbLine
 10
1.000000438012e-07
 20
30.00000011481
 30
1.000039372914e-07
 11
1.000000438012e-07
 21
9.999999406318e-08
 31
1.000045067794e-07
  0
TEXT
  5
68
330
17
100
AcDbEntity
  8
LABELS_NONCUT
100
AcDbText
 10
0.0
 20
-6.0
 30
0.0
 40
3.0
  1
A43 PLY 5.000mm QTY 1
100
AcDbText
  0
ENDSEC
  0
SECTION
  2
OBJECTS
  0
DICTIONARY
  5
A
330
0
100
AcDbDictionary
281
1
  3
ACAD_COLOR
350
B
  3
ACAD_GROUP
350
C
  3
ACAD_LAYOUT
350
D
  3
ACAD_MATERIAL
350
E
  3
ACAD_MLEADERSTYLE
350
F
  3
ACAD_MLINESTYLE
350
10
  3
ACAD_PLOTSETTINGS
350
11
  3
ACAD_PLOTSTYLENAME
350
12
  3
ACAD_SCALELIST
350
14
  3
ACAD_TABLESTYLE
350
15
  3
ACAD_VISUALSTYLE
350
16
  3
EZDXF_META
350
2D
  0
DICTIONARY
  5
B
330
A
100
AcDbDictionary
281
1
  0
DICTIONARY
  5
C
330
A
100
AcDbDictionary
281
1
  0
DICTIONARY
  5
D
330
A
100
AcDbDictionary
281
1
  3
Model
350
1A
  3
Layout1
350
1E
  0
DICTIONARY
  5
E
330
A
100
AcDbDictionary
281
1
  3
ByBlock
350
1F
  3
ByLayer
350
20
  3
Global
350
21
  0
DICTIONARY
  5
F
330
A
100
AcDbDictionary
281
1
  3
Standard
350
2C
  0
DICTIONARY
  5
10
330
A
100
AcDbDictionary
281
1
  3
Standard
350
22
  0
DICTIONARY
  5
11
330
A
100
AcDbDictionary
281
1
  0
ACDBDICTIONARYWDFLT
  5
12
330
A
100
AcDbDictionary
281
1
  3
Normal
350
13
100
AcDbDictionaryWithDefault
340
13
  0
ACDBPLACEHOLDER
  5
13
330
12
  0
DICTIONARY
  5
14
330
A
100
AcDbDictionary
281
1
  0
DICTIONARY
  5
15
330
A
100
AcDbDictionary
281
1
  0
DICTIONARY
  5
16
330
A
100
AcDbDictionary
281
1
  0
LAYOUT
  5
1A
330
D
100
AcDbPlotSettings
  1

  4
A3
  6

 40
7.5
 41
20.0
 42
7.5
 43
20.0
 44
420.0
 45
297.0
 46
0.0
 47
0.0
 48
0.0
 49
0.0
140
0.0
141
0.0
142
1.0
143
1.0
 70
1024
 72
1
 73
0
 74
5
  7

 75
16
 76
0
 77
2
 78
300
147
1.0
148
0.0
149
0.0
100
AcDbLayout
  1
Model
 70
1
 71
0
 10
0.0
 20
0.0
 11
420.0
 21
297.0
 12
0.0
 22
0.0
 32
0.0
 14
1e+20
 24
1e+20
 34
1e+20
 15
-1e+20
 25
-1e+20
 35
-1e+20
146
0.0
 13
0.0
 23
0.0
 33
0.0
 16
1.0
 26
0.0
 36
0.0
 17
0.0
 27
1.0
 37
0.0
 76
1
330
17
  0
LAYOUT
  5
1E
330
D
100
AcDbPlotSettings
  1

  4
A3
  6

 40
7.5
 41
20.0
 42
7.5
 43
20.0
 44
420.0
 45
297.0
 46
0.0
 47
0.0
 48
0.0
 49
0.0
140
0.0
141
0.0
142
1.0
143
1.0
 70
0
 72
1
 73
0
 74
5
  7

 75
16
 76
0
 77
2
 78
300
147
1.0
148
0.0
149
0.0
100
AcDbLayout
  1
Layout1
 70
1
 71
1
 10
0.0
 20
0.0
 11
420.0
 21
297.0
 12
0.0
 22
0.0
 32
0.0
 14
1e+20
 24
1e+20
 34
1e+20
 15
-1e+20
 25
-1e+20
 35
-1e+20
146
0.0
 13
0.0
 23
0.0
 33
0.0
 16
1.0
 26
0.0
 36
0.0
 17
0.0
 27
1.0
 37
0.0
 76
1
330
1B
  0
MATERIAL
  5
1F
102
{ACAD_REACTORS
330
E
102
}
330
E
100
AcDbMaterial
  1
ByBlock
  2

 70
0
 40
1.0
 71
1
 41
1.0
 91
-1023410177
 42
1.0
 72
1
  3

 73
1
 74
1
 75
1
 44
0.5
 73
0
 45
1.0
 46
1.0
 77
1
  4

 78
1
 79
1
170
1
 48
1.0
171
1
  6

172
1
173
1
174
1
140
1.0
141
1.0
175
1
  7

176
1
177
1
178
1
143
1.0
179
1
  8

270
1
271
1
272
1
145
1.0
146
1.0
273
1
  9

274
1
275
1
276
1
 42
1.0
 72
1
  3

 73
1
 74
1
 75
1
 94
63
  0
MATERIAL
  5
20
102
{ACAD_REACTORS
330
E
102
}
330
E
100
AcDbMaterial
  1
ByLayer
  2

 70
0
 40
1.0
 71
1
 41
1.0
 91
-1023410177
 42
1.0
 72
1
  3

 73
1
 74
1
 75
1
 44
0.5
 73
0
 45
1.0
 46
1.0
 77
1
  4

 78
1
 79
1
170
1
 48
1.0
171
1
  6

172
1
173
1
174
1
140
1.0
141
1.0
175
1
  7

176
1
177
1
178
1
143
1.0
179
1
  8

270
1
271
1
272
1
145
1.0
146
1.0
273
1
  9

274
1
275
1
276
1
 42
1.0
 72
1
  3

 73
1
 74
1
 75
1
 94
63
  0
MATERIAL
  5
21
102
{ACAD_REACTORS
330
E
102
}
330
E
100
AcDbMaterial
  1
Global
  2

 70
0
 40
1.0
 71
1
 41
1.0
 91
-1023410177
 42
1.0
 72
1
  3

 73
1
 74
1
 75
1
 44
0.5
 73
0
 45
1.0
 46
1.0
 77
1
  4

 78
1
 79
1
170
1
 48
1.0
171
1
  6

172
1
173
1
174
1
140
1.0
141
1.0
175
1
  7

176
1
177
1
178
1
143
1.0
179
1
  8

270
1
271
1
272
1
145
1.0
146
1.0
273
1
  9

274
1
275
1
276
1
 42
1.0
 72
1
  3

 73
1
 74
1
 75
1
 94
63
  0
MLINESTYLE
  5
22
102
{ACAD_REACTORS
330
10
102
}
330
10
100
AcDbMlineStyle
  2
Standard
 70
0
  3

 62
256
 51
90.0
 52
90.0
 71
2
 49
0.5
 62
256
  6
BYLAYER
 49
-0.5
 62
256
  6
BYLAYER
  0
MLEADERSTYLE
  5
2C
102
{ACAD_REACTORS
330
F
102
}
330
F
100
AcDbMLeaderStyle
179
2
170
2
171
1
172
0
 90
2
 40
0.0
 41
0.0
173
1
 91
-1056964608
 92
-2
290
1
 42
2.0
291
1
 43
8.0
  3
Standard
 44
4.0
300

342
29
174
1
175
1
176
0
178
1
 93
-1056964608
 45
4.0
292
0
297
0
 46
4.0
 94
-1056964608
 47
1.0
 49
1.0
140
1.0
294
1
141
0.0
177
0
142
1.0
295
0
296
0
143
3.75
271
0
272
9
273
9
  0
DICTIONARY
  5
2D
330
A
100
AcDbDictionary
280
1
281
1
  3
CREATED_BY_EZDXF
350
2E
  3
WRITTEN_BY_EZDXF
350
66
  0
DICTIONARYVAR
  5
2E
330
2D
100
DictionaryVariables
280
0
  1
1.4.4 @ 2026-09-19T11:24:46.801410+00:00
  0
DICTIONARYVAR
  5
66
330
2D
100
DictionaryVariables
280
0
  1
1.4.4 @ 2026-09-19T11:25:50.412093+00:00
  0
ENDSEC
  0
EOF
